<svg xmlns="http://www.w3.org/2000/svg" xmlns:ffdec="https://www.free-decompiler.com/flash" ffdec:objectType="shape" width="67.6" height="38.6"><g fill-rule="evenodd"><path fill="#717171" d="m57.45 4.15-.3.45-.45.4-.15.1-.5.1h-.4l-.25.1-.35-.05-.4.2-.5-.1L54 5.2v-.15l.4-.35q0-.25.15-.1v-.05L55.3 4l.05-.15.1-.15.5-.4.05-.15h.05l.35-.35.3-.05h.25q.25.05.55.35l.05.2h.05l.05.35-.1.4zM53.9 6.5l2-.2h1.3l1.55.65.35.2.65.5.35.4.5.8.4 1.2q0 1-.85 1.4-1 .35-1.6-.45l-.5-.9-1.15-1.5-.8-.6-.45-.4-.65-.15-.5-.2h-.45l-.45-.1q-.25-.2-.2-.4.15-.25.5-.25M39.2 5.05l-.45.2q-.35.1-.45-.2-.05-.25.4-.55L42 2.65l2.15-1 2.4-.7h1.6q2 .1 3 .65 1.65.9 1.65 2.5-.1 1.5-1.45 2.05-1.3.55-2.45-.4l-.4-.35-.15.95q-.3 1-1.35 1.15-1.05.25-1.7-.6l-.3-.35-.25-.2-.55-.6-.25-.25-1.5-.55-.8-.1-1.55-.1-.05.05-.35.05zm9.75 4.75-1.1-.4q-.4 0-.45-.2h-.35l-.2-.3.15-.2.25-.15.75-.2.45.05.35-.05 1.05.2 1.45.3.9.3.85.8.5 1.1q.1.7-.25 1.15-.5.65-1.35.5-.8-.15-1.1-.95l-.15-.35-.5-.6-.3-.55q-.35-.05-.6-.3l-.15-.15zM38.7 3.7l-.35-.05-.15-.1v-.3l.05-.15V3l.1-.2v-.4l.1-.15V2.2l-.05-.25.05-.2V1.6l.05-.1.1-.35h.05l.1-.5.25-.3.4-.3.85.1.15.1.2.2.1.3v.1l.05.15-.05.3v.15l-.05.15h-.05l-.2.3-.1.1-.2.45-.15.15-.25.3-.2.1-.15.1-.35.35-.15.05zM34.5 7q-.8.4-1.45.9L30.6 9.45l-.5.1-.2-.4.2-.4 2.45-3.5.6-1.2.7-1.1q.95-.75 2.05-.25 1.05.55 1.05 1.7l-.1.6-.3.6q-.4.5-2.05 1.4m6.9-.3q.9.8.8 2l-.05.5 1.4.3 1.8.6 1.05.8 1.45 1.5.6 1.4q.2 1-.05 1.65-.5 1.25-1.8 1.5-1.35.25-2.2-.85l-.6-1.1-.55-1.1q-.55-.75-2.6-1.6l-1.6-.65-1.35.05-4.05.95-.65.3-1.85.6q-1.1.35-1.75.8l-1.4 1.4-.55.4-.5-.15q-.25-.25-.2-.5 0-.3.35-.65l3.85-4.4 1.85-1.5L34.05 8q1.15-.7 2.45-1.25Q37.95 6.1 39 6q1.45-.1 2.4.7m.85 10.15-.1-.65-.4-1.1-.15-.5q.15-.2.45 0l.9 1 .5.75.3.65 1.7 3.6.3.55.3 2.1.25 1.05q.05.65-.4 1.2-.5.55-1.15.6-.65.1-1.2-.35-.6-.4-.7-1.05v-.8l.1-.85-.1-.85.1-1.7.1-.7-.15-1zm-9.95-2.1h-.4q-.3-.1-.2-.35l.3-.25 4.3-1.8 1.5-.25h.5l.7.2.6.45q.65.65.5 1.65-.25.95-1.1 1.35l-.1.05-.7.3-.5.05-.9-.2-.65-.15-1-.35-.75-.4-.8-.3h-.9l-.1-.05zm-1.5-9.9-.05.3-.05.3q-.15.15-.25-.1l-.2-.55-.3-.2-.25-.05-.6-.2-.35-.55q-.1-.8.65-1.05l.65.05.45.45.15.4.15.95zm.2 15.5-.3-1.25q-.05-.55.3-1.3l-.85.3-.8.45-.1.15q-.4.65-1.45.75-2.4.15-3.7-1.5l-.25-.35q-.25-.45-.35-1.05-.3-1.25.2-2.6l.4-.8.1-.5.25-.4.5-1.15.1-.5.3-.5.25-.35 1-.15.2.15.25-.35.1-.5.05-.05.3-.5.05-.15-.05-.2.05-.8.05-.05.35-.4q.25-.3.65-.3l.05-.05.45.1.5.5.15.75-.05.05-.1.4-.1.2-.3.45-.1.2-.45.75-.15.1q-.2.3-.6.45l-.25.3-.25.15.15.8-.1.65-.2.7-.35.6-.3.4-.3.3-.6 1.05.1.45.35.8.55.4.85.3.15.05.15-.25.65-.35.6-.45q1.4-1.05 2.1-1.2 1.2-.2 2.2.6.95.9.8 2.1l-.15.7-.4.45-.2.2-.05.2.25 1.8q-.1.85-.65 1.25-.6.45-1.35.3L31 22.2l.05-.85-.05-.4z"/><path fill="#fff" d="m55 25.2.35.35q.35.55.35 1.3l-.05.15-.15.4-.1.3-.1.05-.15.25-.5.3-.5.2h-.45l-.45-.1-.45-.25-.35-.3-.25-.4-.15-.85.05-.4.05-.05.2-.5.15-.2.35-.3.35-.2.55-.1.1-.05.8.2.2.1zm2.4 4.05.25.35.15.05.2.25.15.1-.05.45-.25.15-.4-.05-.35-.1-.35.05h-.65l-.2.1h-.25l-.45.15h-.6l-.45-.45h-.05l-.05-.25.05-.45.05-.15.15-.1.4-.3.2-.1.15-.1h.25l.25-.1h.6v-.1q0-.2.15-.35l.15-.15.7.1.05.1V29h-.05v.05l.1.05zm2.5.35-.55-.25-.3-.2-.35-.3-.25-.4-.1-.45-.05-.05v-.55l.1-.5q.3-.9 1.1-1.25l.05.2.55.65.2.1.4.35.2.05.2.15 1 .35.35.1-.2.85-.25.4-.25.3-.55.35-.6.1zM26.65 9.1l.75.05.8.75q.25.55 0 1.1-.2.6-.75.8l-.9.25-.35.1q-.65.2-1.2.7l-.6.6q-1.3 1.5-1.75 3.55l-.05.45-.25.6-.55.75-.85.4q-1.75.55-2.8 1.85-1.15 1.4-1.25 3.1-.1.7.2 1.2.3.65.95.65l.85-.3.95-.95v-.35q.2-.85 1.35-1.15l1.85-.25.95-.35.45-.3 1.5-2.25 1.15-1.45q.4-.35 1.3-.75l1.3-.7v-.05l.65-.6q.4-.35.75-.4.75-.15 1.25.4.45.55.2 1.3l-.4.5-.6.45-1.7.8q-.75.2-1.1.55-.3.25-.65 1.1l-1.15 2.1-1.05 1.25-1.3.7-1.75.4-1.1-.05-1 1.6q-.85.95-2.15 1.3l-1.1.1v.4l.05.3.35 1 .1 1.1-.15 1.1-.9.75-1.15-.2q-.85-.5-.6-1.6-.1-.6.05-1.1l.4-1.35v-.95l-.25-.2-.45-.55-.65-1.1-.45-1.1L13.8 24q.3-3.35 2.8-5.6l.75-.55q1.1-.65 2.95-.95h.05l.2-.25.35-.3.1-.9q.3-1.45 1.15-2.6l2.25-2.65q.15-.1 1.2-.65l.7-.4zm-5.75-.75-.15.6-.15.35-.1.75.15-.1.95-.7q.5-.4.85-.45l.25-.05.25-.15q.3-.1.45.15.2.25-.1.45l-.2.3-.6.7-.45.45-.35.35-.7.55-.6.65-.15.15q-.25.4-.75.4l-.5-.15-.35-.15q-.55-.4-.45-1.1l.05-.1.15-.7.3-.55.15-.35.2-.45q0-.3.15-.55l.1-.25.05-.05.15-.45.2-.15q.2-.25.5-.35h.25l.5.35q.15.3-.05.6m-8.4 16.2-1.25.3q-1.8.05-2.75-1.3-.55-.65-.55-1.55-.2-.7.05-1.35.15-.6.45-1.1.95-1.4 2.6-1.45l1.5.25.85.5.7.65-1.1 2.2-.2.75zm.65 4.65.05-.25.2-.3q.4-.6 1.1-.2l.25.35.1.1-.05.65-.7.5q-.45.1-.8-.35z"/><path d="m55 25.2-.15-.1-.2-.1-.8-.2-.1.05-.55.1-.35.2-.35.3-.15.2-.2.5-.05.05-.05.4.15.85.25.4.35.3.45.25.45.1h.45l.5-.2.5-.3.15-.25.1-.05.1-.3.15-.4.05-.15q0-.75-.35-1.3zm-4 6.2-.2-1.95.05-.85-.7-.4q-.85-.6-1.25-1.5-.35-.95-.15-1.95.25-1.05.9-1.8 1-1 2.45-1.1t2.55.8l.25.3.45.6 1.35-.25q2.5-.2 4.45 1.2l.45-.45 1.25-.7 1.4-.15.8.15q.85.3 1.5 1l.45.6q.9 1.45.4 3.05-.5 1.65-2 2.35l-1.35.3-.65-.05-.7 2.05q-.75 1.4-1.95 2.05l-1.15.4.15.2.6 1.7q.15.85-.1 1.6h-8.9l-.05-.35q-.1-1 .4-1.95l1.2-1.55.45-.4-1.65-1.7zm8.9-1.8h.7l.6-.1.55-.35.25-.3.25-.4.2-.85-.35-.1-1-.35-.2-.15-.2-.05-.4-.35-.2-.1-.55-.65-.05-.2q-.8.35-1.1 1.25l-.1.5v.55l.05.05.1.45.25.4.35.3.3.2zm-2.5-.35-.15-.15-.1-.05V29h.05v-.65l-.05-.1-.7-.1-.15.15q-.15.15-.15.35v.1h-.6l-.25.1h-.25l-.15.1-.2.1-.4.3-.15.1-.05.15-.05.45.05.25h.05l.45.45h.6l.45-.15h.25l.2-.1h.65l.35-.05.35.1.4.05.25-.15.05-.45-.15-.1-.2-.25-.15-.05zm-25.25-10.9q.45 3.5-.5 6.6-.8 2.65-2.5 4.7l.3.3 1.65 1.7q1 1.35 1.9 3.55l.35 1.1q.15 1.05-.2 1.8H8.35l-.05-.05Q7.75 37 8.05 35.9l.45-1.05.45-1.3L8 32.7l-1.9-2.15q-1.5-2.2-1.85-4.95L3 24.65l-2-2.5q-.95-1.6-1-2.8-.1-1.75 1.1-2.65l1.4-.6 3.2-.95.6-.2q1.35-3.1 3.15-4.75.8-.75 2.7-1.85l1.05-.55q1.6-.75 4.2-.85l1.4-1.35q.9-.8 1.45-1l1.7-.05q.6.25 1.2 1.2l1.15 1.8L26 8.6l.65.5-.35.05-.7.4q-1.05.55-1.2.65l-2.25 2.65Q21.3 14 21 15.45l-.1.9-.35.3-.2.25h-.05q-1.85.3-2.95.95l-.75.55q-2.5 2.25-2.8 5.6l.05 1.15.45 1.1.65 1.1.45.55.25.2v.95l-.4 1.35q-.15.5-.05 1.1-.25 1.1.6 1.6l1.15.2.9-.75.15-1.1-.1-1.1-.35-1-.05-.3v-.4l1.1-.1q1.3-.35 2.15-1.3l1-1.6 1.1.05 1.75-.4 1.3-.7 1.05-1.25 1.15-2.1q.35-.85.65-1.1.35-.35 1.1-.55l1.7-.8zm-11.25-10q.2-.3.05-.6l-.5-.35h-.25q-.3.1-.5.35l-.2.15-.15.45-.05.05-.1.25q-.15.25-.15.55l-.2.45-.15.35-.3.55-.15.7-.05.1q-.1.7.45 1.1l.35.15.5.15q.5 0 .75-.4l.15-.15.6-.65.7-.55.35-.35.45-.45.6-.7.2-.3q.3-.2.1-.45-.15-.25-.45-.15l-.25.15-.25.05q-.35.05-.85.45l-.95.7-.15.1.1-.75.15-.35zM13.15 29.2l.15.5q.35.45.8.35l.7-.5.05-.65-.1-.1-.25-.35q-.7-.4-1.1.2l-.2.3zm-.65-4.65.3-2.1.2-.75 1.1-2.2-.7-.65-.85-.5-1.5-.25q-1.65.05-2.6 1.45-.3.5-.45 1.1-.25.65-.05 1.35 0 .9.55 1.55.95 1.35 2.75 1.3z"/><path fill="#717171" d="m26.2 12.15-.75 1.4-.6.9-.05.8q.2 1.05.55 1.6.6.85 1.55.75l1.2-.45 1.6.05-1.3.7q-.9.4-1.3.75l-1.15 1.45-1.5 2.25-.45.3-.95.35-1.85.25q-1.15.3-1.35 1.15v.35l-.95.95-.85.3q-.65 0-.95-.65-.3-.5-.2-1.2.1-1.7 1.25-3.1 1.05-1.3 2.8-1.85l.85-.4.55-.75.25-.6.05-.45q.45-2.05 1.75-3.55l.6-.6q.55-.5 1.2-.7"/></g></svg>