<svg xmlns="http://www.w3.org/2000/svg" xmlns:ffdec="https://www.free-decompiler.com/flash" ffdec:objectType="shape" width="71.65" height="41.5"><g fill-rule="evenodd"><path fill="#717171" d="M18.9 5.05q-.65-.35-2.1-.65-2-.4-3.3-.05-.65.25-1.45.75-2 1.45-3 3.15l.45.25 1.15.85q.65.65.6 1.7.1 1-.55 1.75l-1.6 1-3.9 1.95q-1.25.7-2.15.7-.65 0-1.3-.4l-.95-1-.35-1.35Q.05 11.2 0 8.5L.2 7 1 5.8q.65-.5 1.3-.5.9-.1 2.2.6l.45.15q2-2.75 3.75-4.15 2-1.5 4.1-1.9h3.05l.7.1q3.6.7 5.4 2.15 1.2.95 2.3 2.65 1.35 2.2 1.8 3.95l.5 2.6q.35 4.45-.95 7.1l-1.7 2.7-1.15 1.25-.85.15q-.5-.1-.65-.5-.2-.3 0-1l.8-2.7.55-2.7v-1.8Q22.4 9.4 21 7.3l-.95-1.2zm34.75 10 2.2.15q2.05.05 3.25-.55l1.3-1.05q1.65-1.75 2.3-3.65l-.5-.15q-.9-.3-1.25-.6-.8-.55-1-1.55-.25-1 .2-1.85.35-.5 1.4-1.3L65 1.85Q66.1.9 66.9.75l1.4.15 1.15.8.6 1.25q.9 2.4 1.45 5.05l.15 1.5q-.05.7-.6 1.3-.5.6-1.15.75l-2.3-.15-.4-.1q-1.45 3.15-2.95 4.75-2.15 2.5-4.85 3.15l-2.5.2q-3.65 0-5.75-.95-1.3-.75-2.7-2.25-1.8-1.85-2.55-3.5l-1-2.45q-1.2-4.3-.45-7.15l1.1-2.95.05-.15h2.65L48 2.5q-.2 1.7-.05 2.8L48.3 7q1.05 4.4 2.85 6.25l1.2.95zM49.1 33.1q-.25.45-.35 1.5l-.1 1.6q.05 2.1 1.8 5.3h-4.6l-.5-1.2q-.65-1.7-.75-4.3-.1-2 .3-3.45.75-2.25 3.3-4.85l1.85-1.6q2.35-1.55 5.65-1.4 2.2.15 5.45 1.25l.2-.4q.7-1.25 1.5-1.65.6-.4 1.35-.35.8.05 1.35.45l1 1.15 2.6 4.6.5 1.3q.1.7-.2 1.35l-.9 1.1-2.15.65-4.25.6h-1.9q-.95-.2-1.5-1.05-.6-.85-.4-1.75l.4-1.35.25-.45q-1.8-.85-4.25-.85l-1.6.2q-1.3.4-2.7 1.85-1.05 1.1-1.35 1.75M31.6 16.55q.25.55 1.05 1.4 1.1 1.25 2.1 1.5l1.25.25 3.4-.6-.2-.4-.35-1.05q-.1-.75.4-1.4.4-.7 1.15-.85l1.45.05 3.4.65q1.15.1 1.7.5.5.35.65.85.25.55.15 1.05l-.35 1.05-2.15 3.65-.75.8q-.4.4-1.05.4l-1.1-.25q-.6-.4-1.1-1.4l-.2-.3q-2.55.85-4.3.85-2.65.1-4.45-1.15l-1.45-1.35q-2-2.1-2.55-3.85-.3-1.2-.2-2.8.05-2.1.6-3.4.3-.85.9-1.85 1.8-3.05 3.8-4.15l2.35-.95q.75-.4 1.3-.3l.65.3q.3.3.2.65l-.5.7-1.7 1.3-1.6 1.5-.85 1.15q-1.95 3-2 5l.1 1.25zm8 23.9.3-1.75q.2-1.65-.3-2.6-.15-.5-.65-1.05-1.25-1.45-2.75-2.1l-.2.35-.5 1.05q-.5.55-1.3.65-.8.15-1.4-.3l-.9-1.15-1.85-2.9q-.7-.95-.8-1.6-.05-.6.2-1.05.25-.55.7-.85l1-.4 4.15-.9h1.1q.55 0 1 .5.45.45.55 1 .1.7-.3 1.75l-.1.35q2.35 1.3 3.5 2.6 1.9 1.9 2.2 4.05l-.05 2-.6 3.4h-3.8l.05-.1zM8.7 37.3l1.3.8 1.5.5q2.4.75 6.8-.4l1.7-.55 2.45-1.3q1.9-1.35 2.3-1.6.6-.35.95-.25.4 0 .65.45l.2.9-.9 1.5-2 2.4-2.85 1.75H7.65l-.8-.45Q5 39.7 3.25 36.55l-.9-2.35q-.8-2.7.35-5.8.8-2 2.85-4.75l-.35-.35q-1-1.1-1.15-1.95-.2-.65.15-1.4.25-.75.8-1.15l1.4-.6q2.6-.8 5.1-1.05l1.45-.1q.7.15 1.25.65.6.4.75 1.05.25.85-.05 2.3l-.7 4.25-.5 1.9q-.5.8-1.55 1.1l-1.75-.1-1.1-.9-.4-.4q-1.4 1.45-2.1 3.8-.3.95-.3 1.65-.05 1.25.95 3.1.65 1.35 1.25 1.85"/><path d="m59.9 20.3.75 1.35.1 2.25q-.2 2.95-1.6 4.65-1.05 1.4-2.95 2.2-1.6.65-3.7.75-1.7.05-2.45-.75-.6-.55-.65-1.75-.05-.6.2-1.9.5-5.1 1-7.55l.5-1.55q.35-.7 1.15-.85l1.1-.05 3 .6q1.45.35 2.6 1.4zm-25.35 2-.6-1.75-2.25-7-.4-1.85q.05-1.2.65-1.7.85-.75 1.7-.3.65.2 1.1.85l.6 1.25.6 1.75.25-.1 1.15-.25 1.1-.35 1.15-.15-.05-.1q-.7-1.95-.85-3.3-.15-.85.1-1.3.2-.75 1-1l1.4.25q.55.3 1.05 1.55l3.5 8.35.35 1.3q.1.75-.4 1.45-.45.65-1.25.85l-1.5-.1q-.75-.35-1.1-1.05l-.35-1.2-.65-2.1-.2.1-.9.45-1.45.55-.7.25.4 1.15q.6 1.75.45 2.45-.2.85-.85 1.35-.7.6-1.55.5-.85-.05-1.5-.8M54.1 27l.2.05.95-.45.8-.6q1.55-1.45.7-3.3l-.4-.55-1.65-.6h-.1l-.1.1-.45 5.25zm-40.55-6.85L11.7 17q-1.15-2-1.2-3.7-.05-1.25.65-2.85.5-1.15 1.25-1.7 1.25-.95 2.95-.75 1.4.25 2.75 1.25l2.4 2.1q2.3 2.25 3 3.25l.6 1.25q.2.6-.1 1.2-.25.7-.8 1-.55.4-1.2.4-.7-.05-1.2-.45l-.85-1-.15.1-.65.4q-.85.35-1.4.8l-.4.3.4.55.5 1.25q.15 1-.6 1.8-.8.7-1.9.45-1.2-.3-1.6-1.65l-.05-.05zM31.4 26l.3 1.5q-.1.9-.6 2.2-1.15 2.65-3 3.9-1.45 1-3.5 1.15l-3.75-.5q-1.65-.5-2.1-1.45-.4-.75-.05-1.9l.8-1.75q2.1-4.65 3.35-6.8l.95-1.3q.6-.6 1.35-.5.25 0 1.1.35l2.6 1.5q1.3.8 2.05 2.1zm-7.6 4.55.15.05 1.05-.1.95-.35q1.95-.9 1.75-2.9l-.25-.6-1.35-1.15-.1-.05-.15.15-2.05 4.8zM16.4 13.5q-.8-.8-1.45-1.05-.5.55-.05 1.8l.5 1.05.4-.3.95-.55.4-.3z"/></g></svg>