<svg xmlns="http://www.w3.org/2000/svg" xmlns:ffdec="https://www.free-decompiler.com/flash" ffdec:objectType="shape" width="65.8" height="40.25"><g fill-rule="evenodd"><path fill="#999" d="m53.1 39.25-.7.55-1.1.2q-.65-.15-1.1-.6zm-6.35.15-.8.55-1.75.1q-.8-.35-.95-1.05H43q-1.05-.25-2.25-1.3-1.9-1.55-1.95-3.35l.3-1.9.6-1.1.75-.95.3.1q1.85.15 3.6-.85.35-.25.65-.25l.15.05-.15.1-1.2.85-.8.95-.6 1.1-.3 1.9q.05 1.8 2 3.35 1.15 1.05 2.2 1.3h.25zm-7-9.15-2.3.25q-2.1-.25-3-2L34 26.75q-.15-1.5.15-2.3t1.05-1.4q.95-.85 1.9-.85.65-.05 1.25.4l.35.25-.2.2q-.75.6-1.05 1.4t-.1 2.3q.05.9.4 1.75.65 1.25 2 1.75m2.1-4.25 1.05.3.1.05-.7.25-.8.15v-.4zm3.2 0 .85-1.5h.05l-2.2-.6q-1.55-.65-2.6-1.9-1.7-1.85-2.05-4.1-.2-1.25 0-3.1.1-1.75.45-2.7l.1-.25v-.05l.2-1.4q.4-1.75 1.55-5.2l.35-.7q.55-.8 1.35-.55.3.1.8.55l.8.7-1.5 5.2-.25 1.4v.05l-.1.25q-.35.95-.45 2.7-.2 1.85 0 3.1.35 2.25 2.05 4.1 1.1 1.25 2.6 1.9l2.2.6h-.05l-1.75 2.95-1.25-1.15zM48.9 6.1l1.75.15-1.45.25-.25-.3zm3.75 0 1.5-1.1q1.2-.8 2-.5.6.1.9.7l.05.1-1.45 1.05-.1.2zm-22.8 18.4-.15-.65v-.2l.15-1.35-1.35.05-.8-.05-1.3.15-.2.05-.6-.1q-.45-.3-.45-1.25v-.95q0-.95.45-1.25l.6-.05h.2l1.3.15.8-.05 1.35.15-.15-1.45v-.35l.25-.6q.45-.45 1.1-.15l.95.65L34.45 19q.3.3.7.45l.8.35q.5.3.5.7v.35l-.5.7-.8.35q-.4.15-.7.45L32 24.1l-.45.35-.5.3-1.1-.15zm0 11.2-.15-.65v-.2l.15-1.35-1.35.05-.8-.05-1.3.15-.2.05-.6-.1q-.45-.3-.45-1.25v-.95q0-.95.45-1.25l.6-.05h.2l1.3.15.8-.05 1.35.15-.15-1.45v-.35l.25-.6q.45-.45 1.1-.15l.95.65 2.45 1.75q.3.3.7.45l.8.35q.5.3.5.7v.35l-.5.7-.8.35q-.4.15-.7.45L32 35.3l-.45.35-.5.3-1.1-.15z"/><path fill="#fff" d="m57.1 5.3.4-.3q1.2-.8 1.95-.5.55.1.9.7l.5 1.1q1.05 3.15 1.25 5.9.55 1.75.4 3.95-.25 3.25-1.85 5.2-1.6 2.1-4.55 2.9l-.6.15.35.7 1.55 4.05.7.05q1.05.35 1.9 1.6.65 1.05.65 2.45 0 1.35-.65 2.55-1.15 2.1-3.45 2.95l-.05.25-.75.8-1.15.2q-.7-.15-1.15-.75l-.1-.05h-.05l-.2.05-2.9.15-.15-.05-.8.6-1.75.1-.75-.65-.2-.4h-.25q-1.05-.25-2.2-1.3-1.95-1.55-2-3.35l.3-1.9.6-1.1.8-.95 1.2-.85.15-.1-.15-.05q-.3 0-.65.25-1.75 1-3.6.85l-.3-.1-.7-.15q-1.35-.5-2-1.75-.35-.85-.4-1.75-.2-1.5.1-2.3t1.05-1.4l.2-.2q.85-.65 1.7-.65.65-.05 1.25.4l.8 1q.25.6.05 1.35L41.85 26l-.35.35v.4l.8-.15.7-.25 2.05-.35 1.15.3 1.25 1.15 1.75-2.95h.05l-2.2-.6q-1.5-.65-2.6-1.9-1.7-1.85-2.05-4.1-.2-1.25 0-3.1.1-1.75.45-2.7l.1-.25v-.05l.25-1.4 1.5-5.2.35-.7q.55-.8 1.4-.55l.8.55 1.65 1.6.05.1.25.3 1.45-.25.3-.05 1.7-.1 2.9.45.1-.2z"/><path d="m17.15 5.2-.1-.35.15-.3.05-.35.2-.5.1-.65.15-.65.5-.45h.6l.45.45.1.6-.65.9-1.25 1.25zm-.85-3.1q-.15.45-.15 1.35l-.4 1.3-.4.45q-.4.15-.55-.4-.15-.2-.2-1.35l-.4-1.65q-.05-1.1.5-1.5l1.25-.1q.75.35.6 1.1zm-2.8 3.1-.35-.05-1.2-1.25-.65-.9.05-.6.45-.45h.65l.45.45.2.65.1.65.2.5.05.35.1.3z"/><path fill="#999" d="m54.3 6.2 4.55.35.15-.2L60.8 5q1.2-.8 2-.5.55.1.9.7l.45 1.1q1.05 3.15 1.3 5.9.45 1.75.35 3.95-.25 3.25-1.85 5.2-1.6 2.1-4.6 2.9l-.55.15.35.7 1.5 4.05.75.05q1 .35 1.9 1.6.65 1.05.65 2.45 0 1.35-.65 2.55-1.15 2.1-3.4 2.95l-.1.25q-.2.55-.75.8l-1.15.2q-.7-.15-1.15-.75l-.05-.05h-.05l-3.3.15-.75.6-1.75.1Q50 39.7 49.9 39h-.3q-1.05-.25-2.2-1.3-1.95-1.55-2-3.35l.25-1.9.65-1.1.8-.95 1.2-.85.15-.1-.15-.05q-.3 0-.65.25-1.8 1-3.55.85-2.15-.25-3.05-2-.35-.85-.4-1.75-.25-1.5.1-2.3.3-.8 1.05-1.4.95-.85 1.9-.85.65-.05 1.3.4.6.4.8 1t.05 1.35q-.2.65-.75 1.05l-.35.35q-.05.2.05.4l.8-.15.7-.25q1.75-.7 3.2-.05l1.3 1.15 1.75-2.95h.05l-2.25-.6q-1.5-.65-2.6-1.9-1.7-1.85-2.05-4.1-.15-1.25 0-3.1.15-1.75.45-2.7l.1-.25v-.05l.25-1.4q.35-1.75 1.5-5.2l.35-.7q.55-.8 1.4-.55l.8.55 1.75 1.7.25.3zm1.15 13.2q-.25 0-.5.3l-.6.4q-.25-.3-.05-.65l.25-.3.1-.35q-.1-.3-.35-.2l-.4.2q-1 .75-.85 1.55.1.9.95 1.05.75.2 1.35-.5.75.5 1.3.5.75.1 1.2-.5.3-.4.2-1.15l-.45-.95-.5-.1q-.3.1-.35.35l.05.5.15.55q-.45.2-.85-.25zm-4.35-6q-1.45-.3-2.6.6-1.1 1-1.1 2.45 0 1.6 1.35 2.5 1.35 1 2.9.35 1.5-.6 1.85-2.2.35-1.65-.8-2.8-.65-.75-1.6-.9m10.8 5.75q.75-.4 1.25-1.2.45-.8.35-1.7 0-.9-.65-1.6-.55-.75-1.4-1.05l-1.7-.05q-.9.3-1.5.95v.1q-.75.75-.65 1.85-.05.95.5 1.75.45.75 1.4 1.1z"/><path fill="#fff" d="m61.9 19.15-2.4.15q-.95-.35-1.4-1.1-.55-.8-.5-1.75-.1-1.1.65-1.85v-.1q.6-.65 1.5-.95l1.7.05q.85.3 1.4 1.05.65.7.65 1.6.1.9-.35 1.7-.5.8-1.25 1.2M51.1 13.4q.95.15 1.6.9 1.15 1.15.8 2.8-.35 1.6-1.85 2.2-1.55.65-2.9-.35-1.35-.9-1.35-2.5 0-1.45 1.1-2.45 1.15-.9 2.6-.6m4.35 6 .65.45q.4.45.85.25l-.15-.55-.05-.5q.05-.25.35-.35l.5.1.45.95q.1.75-.2 1.15-.45.6-1.2.5-.55 0-1.3-.5-.6.7-1.35.5-.85-.15-.95-1.05-.15-.8.85-1.55l.4-.2q.25-.1.35.2l-.1.35-.25.3q-.2.35.05.65l.6-.4q.25-.3.5-.3M20.3 20.65q-1.6-.35-2.2-1.75 1.05-.4 1.7-1.25l.95-1.9.3-1.05 1.3.35q1.5.9 1.5 2.6.15 1.65-1.35 2.6-.95.65-2.2.4m-9.7.05-1.5.25-.65-.1q-1-.3-1.6-1.2-.55-.9-.5-1.9.1-1.1.8-1.85.75-.8 1.75-1v.8q.15 1.05 1 1.9.95.9 2.2 1.35h.2q-.45 1.3-1.7 1.75"/><path d="m13.75 6.2 4.55.35.15-.2L20.25 5q1.15-.8 2-.5.55.1.85.7l.45 1.1q1.1 3.15 1.3 5.9.55 1.75.4 3.95-.25 3.25-1.85 5.2-1.6 2.1-4.6 2.9l-.55.15.3.7 1.6 4.05.7.05q1.05.35 1.85 1.6.7 1.05.7 2.45 0 1.35-.7 2.55-1.1 2.1-3.35 2.95l-.1.25-.75.8-1.15.2-1.2-.75v-.05h-.05l-3.25.15-.85.6-1.75.1q-.8-.35-.9-1.05h-.3Q8 38.75 6.8 37.7q-1.9-1.55-2-3.35l.3-1.9.6-1.1.85-.95 1.2-.85.15-.1-.15-.05-.65.25q-1.8 1-3.6.85-2.1-.25-3-2l-.45-1.75q-.2-1.5.2-2.3.25-.8 1-1.4.95-.85 1.9-.85.65-.05 1.25.4l.85 1q.2.6 0 1.35L4.55 26l-.35.35.05.4.8-.15.65-.25q1.85-.7 3.25-.05l1.3 1.15L12 24.5l-2.2-.6q-1.5-.65-2.6-1.9-1.7-1.85-2.05-4.1-.15-1.25 0-3.1.1-1.75.45-2.7l.1-.25v-.05l.2-1.4q.4-1.75 1.55-5.2l.4-.7q.45-.8 1.3-.55l.85.55 1.75 1.7.25.3zM10.6 20.7q1.25-.45 1.7-1.75h-.2q-1.25-.45-2.2-1.35-.85-.85-1-1.9v-.8q-1 .2-1.75 1-.7.75-.8 1.85-.05 1 .5 1.9.6.9 1.6 1.2l.65.1zm9.7-.05q1.25.25 2.2-.4 1.5-.95 1.35-2.6 0-1.7-1.5-2.6l-1.3-.35-.3 1.05-.95 1.9q-.65.85-1.7 1.25.6 1.4 2.2 1.75"/></g></svg>