<svg xmlns="http://www.w3.org/2000/svg" xmlns:ffdec="https://www.free-decompiler.com/flash" ffdec:objectType="shape" width="74.65" height="40.1"><g fill-rule="evenodd"><path fill="#999" d="M68.15 15.15q1.3 1.15 2.15 2.8l.8 1 1.75 2.4 1.1 2.3q.9 1.65.65 2.6-.2.75-.95 1.15l-.95.25-1.45.15-.7 2.35q-.7 2-1.65 3.2-1.95 2.45-5.75 3.65-1.8.65-3.5.7-2.1.2-4.7-.55-2.15-.65-3.8-1.7L48.1 40.1H26.8q-.05-.35.05-.75.3-.95 1.8-2.05l.25-.2q4.1-2.75 12.75-7.8l-1.7.15-3.6.4q-4.1.65-7.7 2.95l-1.25.85q-1.3 1-1.95 1.15-1.65.5-2.85-.9-.5-.6-.55-1.45-.1-.8.25-1.5.6-1.1 2.35-1.95 2-1.05 4-1.75 3.4-1.25 6.7-1.45h3.3l3.6.3 3.55.85.35-.2v-.1q-.3-4.95 2.5-9.15 1.3-1.9 3.05-3.05 1.1-.7 2.7-1.15l.45-1 1.85-3.75.55-.85q.45-.5 1.2-.65.95-.15 1.8.5l1.4 1.35 1.2 1.55L64.1 13q2.3.6 4.05 2.15m1.55 12.9q-.05-.65-.5-1.45l-.25-.4-.5.05-3.8-.4-.5-.15q-.7.55-1.05 1.6-.3.95-.05 2 .3 1 1.1 1.65l.75.45 2.05.15 1.8-1.05q1.1-1.1.95-2.45M58.1 30.2h.05l.1.4.45 1q.5.5 1.2.5l1.3-.15q.65-.15 1.05-.5l.4-.7q.3-.7-.15-1.05l-1.05.05-.95.7h-.35L60 30.1l-.15-1.1-.5-.45-.05-.05q-.5-.4-1.1-.25l-.75.1q-.5-.15-.4-.95l.3-1.1.1-.35-.3-.4h-.55q-.7.2-1.1.9-.4.65-.45 1.45-.1.85.3 1.35.3.35 1.2.65zm1.4-7.5.15-.35q-1.1-1.25-1.65-2.4-.6-1.25-.45-2.4-.9-.3-1.9 0t-1.7 1.05l-.2.3q-1.2 1.55-.5 3.3.3.8 1 1.4.75.55 1.6.65l.9.05q1.25-.15 2-.75zM29 1.8h.6l.5.05h.45l.1.05h.1l.15.05.1.05.15.05.1.05.05.1.1.05.05.05.1.05.15.15.05.1.05.05.1.1v.05l.05.05.05.05V3l.05.05v.05l.05.05v.2l.05.05V4l-.05.05v.15l-.05.05v.1L32 4.4l-.05.1v.05l-.1.1v.05l-.1.1-.05.1-.05.05-.05.05-.05.05-.1.05-.1.05-.05.05-.1.1-.1.05-.15.05-.05.05h-.15l-.1.05h-.1v.05H28l-.65-.05h-.05v-.05h-.2l-.05-.05h-.2l-1-.05h-.4L25 5.3h-.35l-.1-.05h-.05l-.1-.05h-.9l-.45-.05h-.25l-.15-.05h-.1l-.25-.05h-1.4V5h-.15l-.2-.05h-.15l-.1-.05h-.4l-.5-.05h-.25L19 4.8h-.4l-.15-.05h-.15l-.1-.05h-.35l-.1-.05h-.1l-.15-.05-.2-.05h-.15V4.5h-.25l-.15-.05h-.05l-.55-.05h-.25l-.05-.05h-.1l-.1-.05h-.55l-.2-.05-.15-.05-.05-.05-.05-.1L14.6 4l-.05-.05-.05-.05v-.4l.05-.05.05-.05v-.05l.1-.1.05-.05.1-.05.1-.05h.65l.1-.05.15-.05h.2l.25-.05h.4l.2-.05h.15l.1-.05h.15l.05-.05h.15l.1-.05h.15l.05-.05h.2l.2-.05h.1l.2-.05h.35l.15-.05h.35l.25-.05h.65l.1-.05h.15l.1-.05h.15l.15-.05h1.3l.2-.05h.2l.2-.05h.2l.25-.05h1.1l.05-.05h.1l.05-.05h.35l.35-.05h.45l.35-.05h.9l.1-.05h.1l.1-.05h.1l.25-.05H29zm-2.1 3.75h.85l.35.05h.1l.1.05h.1l.1.05.2.1.1.05.1.05.15.05.1.05.1.15.1.05.25.25.05.1.05.1.05.05v.05l.15.15.05.05v.1l.05.05v.1l.1.05v.05l.05.05v.25l.05.05v.25l-.05.15v.1l-.05.05v.15l-.1.1-.05.05v.1l-.05.05v.05l-.15.15-.05.1-.1.1v.1l-.15.05-.05.05-.05.05-.05.15-.15.05-.05.05-.1.05-.15.1-.1.05-.2.1h-.05l-.1.05h-.2l-.1.1h-1.65l.05.05.1.05.1.05v.1l.1.1.05.1.05.1v.05l.1.05.05.05v.1l.05.05v.1l.05.05v.1l.1.05v.2l.05.1v.75l-.05.05v.25l-.1.05v.05l-.05.05v.1l-.05.1-.05.05v.05l-.1.1v.05l-.05.05-.05.15-.2.15-.05.05-.05.1-.05.05-.15.1-.05.1-.1.05-.15.05-.1.05-.05.05-.2.1-.1.1h-.2l-.05.05h-.05l-.15.05h-.2q-.05 0-.15.1h-.9l.05.05.1.05.1.05.05.1.05.05.05.05.05.1v.1l.15.1v.05l.05.1v.15l.05.05v.1l.05.05v.55l-.05.05v.1l-.05.1v.1l-.05.05v.1l-.05.05-.1.1v.05l-.05.1-.15.15-.1.15-.1.05-.05.05-.15.05-.05.1-.1.05-.15.05-.1.15-.15.05-.15.05-.2.05-.2.05-.1.1-.2.05-.15.1h-.2l-.2.05-.4.1H18.7l-.1-.1h-.15l-.2-.05h-.55l-.05-.05h-.2l-.05-.05h-.15l-.15-.05h-.2l-.05-.1-.15-.05h-.15l-.15-.05-.2-.05h-.3l-.15-.05h-.3l-.15-.1-.15-.05h-.05l-.2-.05h-.05l-.1-.05h-.05l-.25-.1h-.2l-.1-.05-.25-.05-.2-.05h-.15l-.2-.05h-.1l-.35-.1h-.3l-.15-.1h-.15l-.05-.05h-.9l-.05-.1h-.15l-1.9-.05h-1.1v-.05h-.4v-.05H7.1v-.05h-.4l-.65-.1-.1-.05H4.8l-.1-.05-.5-.05h-.15l-.15-.1h-.15l-.15-.05-.05-.05-.15-.05-.05-.15-.05-.05v-.15l.05-.1.05-.1.15-.05h.05l.1-.1.15-.05h.05l.15-.05h.65l.1-.05h.05l.15-.05h1.05l.2-.1h.6L7 15.1h.25l.1-.05h.6l.2-.05h.25l.15-.1h2.6l.15-.05h.25l.45-.05h.3l.2-.05.2-.05.2-.1h.35l.1-.05h.2l.1-.05h.2l.1-.05h.1l.1-.1h.05l.1-.05h.4l.15-.05.15-.05.1-.05h.2l.1-.1h.15l.1-.05H16l.15-.05h.25l.15-.05.15-.05h-.1l-.2-.1h-.95l-.05-.05h-.15l-.25-.05h-1.05l-.05-.05h-.3l-.15-.1h-.1l-.6-.05H10.6l-1-.05h-.05l-.5-.05h-.6l-.25-.05h-.55l-.2-.1h-.1l-.25-.05h-.4l-.15-.05H6.4l-.15-.05H6l-.05-.1h-.3l-.1-.05h-.2l-.1-.05h-.1l-.05-.05H5v-.05h-.2l-.2-.1h-.2l-.25-.05-.15-.05-.1-.05-.2-.1h-.55l-.25-.05h-.5l-.25-.05h-.6l-.25-.05-.2-.05H.7l-.15-.15-.1-.1v-.3l.05-.1v-.05l.1-.05.1-.05h.05l.05-.05h.75l.65-.1h.7l.1-.05h.4l.15-.05h.15l.25-.05.1-.1.15-.05h.3l.2-.05h.1l.05-.05H5l.15-.05h.1l.1-.1h.2l.1-.05h.25l.1-.05h.15l.05-.05h.3l.1-.1H7l.35-.05h.05l.15-.05h.35l.5-.05h.3l.35-.05h.55l.25-.1h2.45l.75-.05h.3l.05-.05h.2l.3-.05h.7l.4-.1h.3l.15-.05h.85l.15-.05h.1l.15-.05h.05l.15-.05h.15l.05-.1h.15l.05-.05h.4V9.5h-.3l-.3-.05h-.3V9.4h-.2l-.2-.1h-.2l-.5-.05h-.55l-.3-.05h-.15v-.05h-.25l-.45-.1h-.4L13.3 9h-.75l-.3-.05-.1-.05H12l-.15-.05h-.2l-.1-.1h-.3l-.35-.05-.45-.05h-1.1l-.3-.05H8.8v-.1h-.2l-.1-.05h-.1l-.2-.05h-.55l-.1-.05H6.7l-.25-.05-.55-.1h-.05l-.3-.05h-.1L5.3 8.1l-.15-.05-.05-.1V7.9l-.05-.05v-.2l.05-.05v-.05l.05-.05.1-.05.1-.1h.1l.2-.05.1-.05h.3l.4.05.1-.05h.8l.2-.05h.2l.7-.1.1-.05h.15L8.8 7h.1l.15-.05h1.4l.45-.05h.15l.2-.1h.15l.25-.05h.2l.2-.05.15-.05h.1l.1-.1h.3l.2-.05h.7l.4-.05h.55l.15-.05h.1l.1-.05h.8q.05-.1.2-.1h.4l.2-.05h.1l.2-.05h.3l.3-.05h.05l.25-.1h.35l.15-.05h.25l.1-.05h.3l.2-.05h1.5l.5-.05h.55l.25-.1h.9l.3-.05h1.15l.6-.05h2.1z"/><path fill="#fff" d="m59.5 22.7-.75.85q-.75.6-2 .75l-.9-.05q-.85-.1-1.6-.65-.7-.6-1-1.4-.7-1.75.5-3.3l.2-.3q.7-.75 1.7-1.05t1.9 0q-.15 1.15.45 2.4.55 1.15 1.65 2.4zm-1.4 7.5-1.55-.3q-.9-.3-1.2-.65-.4-.5-.3-1.35.05-.8.45-1.45.4-.7 1.1-.9h.55l.3.4-.1.35-.3 1.1q-.1.8.4.95l.75-.1q.6-.15 1.1.25l.05.05.5.45.15 1.1.15.35h.35l.95-.7 1.05-.05q.45.35.15 1.05l-.4.7q-.4.35-1.05.5l-1.3.15q-.7 0-1.2-.5l-.45-1-.1-.4zm11.6-2.15q.15 1.35-.95 2.45l-1.8 1.05-2.05-.15-.75-.45q-.8-.65-1.1-1.65-.25-1.05.05-2 .35-1.05 1.05-1.6l.5.15 3.8.4.5-.05.25.4q.45.8.5 1.45"/><path d="M40.15 8.15q1.3 1.15 2.15 2.8l.8 1 1.75 2.4 1.1 2.3q.9 1.65.65 2.6-.2.75-.95 1.15l-.95.25-1.45.15-.7 2.35q-.7 2-1.65 3.2-1.95 2.45-5.75 3.65-1.8.65-3.5.7-2.1.2-4.7-.55-2.15-.65-3.8-1.7L19.2 34.4 16 39.1l-.8 1h-3.95q-.4-.6-.4-1.35-.8-.05-1.7.55l-1 .8H.2v-2.75l.05-.05-.05-.1q-.4-.95 0-1.9l.05-.15H.2v-4.5l.45-.35.25-.2q4.1-2.75 12.75-7.8l-1.7.15-3.6.4q-4.1.65-7.7 2.95l-.45.3v-5.7l.45-.15q3.4-1.25 6.7-1.45h3.3l3.6.3 3.55.85.35-.2v-.1q-.3-4.95 2.5-9.15 1.3-1.9 3.05-3.05 1.1-.7 2.7-1.15l.45-1 1.85-3.75q.3-.6.55-.85.45-.5 1.2-.65.95-.15 1.8.5l1.4 1.35 1.2 1.55L36.1 6q2.3.6 4.05 2.15m1.55 12.9q-.05-.65-.5-1.45l-.25-.4-.5.05-3.8-.4-.5-.15q-.7.55-1.05 1.6-.3.95-.05 2 .3 1 1.1 1.65l.75.45 2.05.15q1.05-.25 1.8-1.05 1.1-1.1.95-2.45M30.1 23.2h.05l.1.4.45 1q.5.5 1.2.5l1.3-.15 1.05-.5.4-.7q.3-.7-.15-1.05l-1.05.05-.95.7h-.35Q32 23.4 32 23.1l-.15-1.1-.5-.45-.05-.05q-.5-.4-1.1-.25l-.75.1q-.5-.15-.4-.95l.3-1.1.1-.35-.3-.4h-.55q-.7.2-1.1.9-.4.65-.45 1.45-.1.85.3 1.35l1.2.65zm1.4-7.5.15-.35q-1.1-1.25-1.65-2.4-.6-1.25-.45-2.4-.9-.3-1.9 0t-1.7 1.05l-.2.3q-1.2 1.55-.5 3.3.3.8 1 1.4.75.55 1.6.65l.9.05q1.25-.15 2-.75z"/><path fill="#fff" d="m31.5 15.7-.75.85q-.75.6-2 .75l-.9-.05q-.85-.1-1.6-.65-.7-.6-1-1.4-.7-1.75.5-3.3l.2-.3q.7-.75 1.7-1.05t1.9 0q-.15 1.15.45 2.4.55 1.15 1.65 2.4zm-1.4 7.5-1.55-.3-1.2-.65q-.4-.5-.3-1.35.05-.8.45-1.45.4-.7 1.1-.9h.55l.3.4-.1.35-.3 1.1q-.1.8.4.95l.75-.1q.6-.15 1.1.25l.05.05.5.45.15 1.1q0 .3.15.35h.35l.95-.7 1.05-.05q.45.35.15 1.05l-.4.7-1.05.5-1.3.15q-.7 0-1.2-.5l-.45-1-.1-.4zm11.6-2.15q.15 1.35-.95 2.45-.75.8-1.8 1.05l-2.05-.15-.75-.45q-.8-.65-1.1-1.65-.25-1.05.05-2 .35-1.05 1.05-1.6l.5.15 3.8.4.5-.05.25.4q.45.8.5 1.45"/></g></svg>