<svg xmlns="http://www.w3.org/2000/svg" xmlns:ffdec="https://www.free-decompiler.com/flash" ffdec:objectType="shape" width="76.2" height="42.1"><path fill-rule="evenodd" d="M.5.55h75.2V41.6H.5z"/><path fill="none" stroke="#000" stroke-linecap="round" stroke-linejoin="round" d="M.5.55h75.2V41.6H.5z"/><path fill="#fff" fill-rule="evenodd" d="m30.25 5.95-.8.15q-.45-.15-.6-.65l-.05-.35-.35-1v-.65l-.15-.65v-.35l.4-1.5.8-.75 1.05-.15q.6.1 1.05.5l.5 1-.25 1.35-.4.85-.05.3-.3.75zM25.2 33.2q-3.95-.85-6.2-3.1-1.65-1.65-2.45-4.05-.6-1.75-.7-3.6l-.65-.55q-1.75-1.65-2.55-3.8-.55-1.4-.4-2.55.2-1.5 1.25-2.2.55-.3 1.4-.5l1.05-.2 2.8-.2.3.05q1.1-1.4 2.6-2.35 1.75-1.05 3.95-1.7 3.35-.9 6.45-.6.7-.65 2.15-1.2l1.85-.75q.9-.4 1.65-.55 1.45-.25 2.45.4 1.2.8 1.3 2.1L41.3 8.9l-.45 2.65-.2 1.05.6.95q3.9-.4 7.5 2 3.3 2.2 5.25 6.4l.65 1.55q1.5-1.85 2.55-4.15.65-1.25.8-2.45.05-1.05-.3-2.6-.7-3.5-1.65-5.05-1.25-1.7-1.6-2.7-.7-1.85.35-3.5 1.15-1.7 3.1-1.7 1.85 0 3.3 1.55 1.15 1.15 1.95 3.2l.95 2.85.25 3.3q-.1 5.55-2.9 10.6-2.4 4.3-6.15 7.15l-.25 1.35q-1 4.25-3.45 7.15l-1.25 1.1q-1.6.85-3.05-.2-.65-.45-.95-1.25-.3-.75-.15-1.55l.4-1.2.4-1.2-.7-.75-2.9.1-2.55-.05-.1.65.05 1.6-.05 1.4q-.2 1-.7 1.6-.85 1.05-2.25.95-1.45-.1-2.15-1.25l-.5-1.3q-.35-1.55.1-3.45l.3-1.25-.35-.15q-1.15.5-2.45.8l-.05.1-.3 1.5-.15 2.8q-.15 1.4-1.4 2.15t-2.55.25q-1.35-.55-1.75-1.95l-.1-1q-.05-1.85.6-3.5zM43.95 9.3l1.6-2.25.65-.6.9-.55.9-.15q.8.1 1.3.75.4.55.3 1.25t-.65 1.1l-.65.4-2.25.95-.85.15-.3.1h-.35l-.4.15q-.3 0-.45-.2l-.05-.5.2-.3zm-12.3 6.3-.1.9.05.55q.25 1.9 1.95 2.7t3.35-.25q1.2-.7 1.5-2.05.3-1-.05-2.05-.55-1.55-1.95-2.15l-2.9.1q-1.45.65-1.85 2.25m-12.3 4.65q.35-.95 1.2-1.3l1.3-.05q.75.2 1.1.75l.35 1.3q-.05.7-.5 1.25-.45.5-1.15.6l-1.35-.2q-.6-.35-.85-1-.3-.65-.1-1.35m11.45 4.3h.55l1.05.1q.95.1 1.2-.3.3-.5-.25-.95l-1-.4-1.05-.3-.6-.45-.05-.3-.45-.95-.4-.45q-.45-.45-1-.35l-.5.2-.2.35-.15.8.15 1.25.05.15-.55.95-.55 1.5v.85q.2.55.7.45l1.1-.6.55-.7.6-.6.25-.05zm-6.55-5.65q-.6-1-1.7-1.4-1.65-.65-3.2.35-1.45 1.05-1.45 2.85-.1 1.65 1.35 2.75 1.35 1 3 .6 1.65-.45 2.3-2.1.65-1.6-.3-3.05m9.15-1.45q-.35-.65-.2-1.35.15-.75.65-1.2.5-.5 1.25-.55t1.3.35l.8.95q.25.65.15 1.25-.15.65-.65 1.1-.5.5-1.15.55-1.45.15-2.15-1.1M15.6 9.8l-.2.35-.5.1-.5-.15-.55-.3-.95-.95-1.15-.95-.25-.3q-.45-.5-.5-1.05l-.05-.35.05-.4q.25-.95 1.05-1.3.85-.4 1.65 0l.45.3q.7.6.9 1.5l.1.5.2.45.15.8.1 1.25zM11 27.05l-.65.55-1.6.85-.85.3q-1 .1-1.6-.5-.7-.65-.65-1.55-.05-.45.2-.95.4-.65 1.05-.95l1.35-.55.6-.15.8.05.75.15.4.2.45-.05 1.3.25.3.25q.35.35.15.7l-.4.5-1.05.6-.4.15zm6.2 9.75-.15.6-.2.45-.3.45-1.1.65q-.75.1-1.3-.3l-.7-.95q-.3-.9.15-1.75l.9-.9 1.65-1.25.3-.15.2-.2q.45-.35.9-.2.75.2.65.85l-.2.5-.15.2-.1.25-.4.9z"/><path fill="#717171" fill-rule="evenodd" d="M31.65 15.6q.4-1.6 1.85-2.25l2.9-.1q1.4.6 1.95 2.15.35 1.05.05 2.05-.3 1.35-1.5 2.05-1.65 1.05-3.35.25t-1.95-2.7l-.05-.55zm-12.3 4.65q-.2.7.1 1.35.25.65.85 1l1.35.2q.7-.1 1.15-.6.45-.55.5-1.25l-.35-1.3q-.35-.55-1.1-.75l-1.3.05q-.85.35-1.2 1.3m4.9-1.35q.95 1.45.3 3.05-.65 1.65-2.3 2.1-1.65.4-3-.6-1.45-1.1-1.35-2.75 0-1.8 1.45-2.85 1.55-1 3.2-.35 1.1.4 1.7 1.4m6.55 5.65-.55.2-.25.05-.6.6-.55.7-1.1.6q-.5.1-.7-.45v-.85l.55-1.5.55-.95-.05-.15-.15-1.25.15-.8.2-.35.5-.2q.55-.1 1 .35l.4.45.45.95.05.3.6.45 1.05.3 1 .4q.55.45.25.95-.25.4-1.2.3l-1.05-.1zm2.6-7.1q.7 1.25 2.15 1.1.65-.05 1.15-.55.5-.45.65-1.1.1-.6-.15-1.25l-.8-.95q-.55-.4-1.3-.35t-1.25.55q-.5.45-.65 1.2-.15.7.2 1.35"/></svg>