<svg xmlns="http://www.w3.org/2000/svg" xmlns:ffdec="https://www.free-decompiler.com/flash" ffdec:objectType="shape" width="75.2" height="38.45"><g fill-rule="evenodd"><path fill="#999" d="M15.55 16.5h.15l.25.05.2.05.15.1.15.05.1.1.1.1.1.05.05.1.05.05v.1l.05.1.05.05v.1l.05.1v.2l.15.2.25 1.5-.15 4.4L17 25q-.45.55-1.8.45-1.9-.15-3.6.05-1.25.1-1.75.55l-.8 1.15-.25.75.05-.1q.5-.4 1.1-.35l.3.05.1-.2.95-.9q1.2-.8 1.9-.95h.6q.4.15.3.45l-.25.4-.4.25-1.95 1.55-.5.2v.2l-.45 1-.55.35 3 .35 1.45.1-.4-.45q-.35-.6-.05-1.15l.25-.3q-.2-.3 0-.7l.65-.6 1.15-.95.65.1.25.6-.5.7q.65.1.8.55.3.5-.2 1.1l-.9.75-.8.4 1.6.2.3.1.2-.05.15-.1h3.55q-1-.7-1.4-2.2-.35-1.25-.05-3.4.3-2.5 1.45-3.6 1.05-.9 3.65-1.1 4.45-.4 15.1-.4l5.85.1 4.25.4 3.25.8q1.7.75 2.35 2.2.45 1.05.25 2.7-.3 3-1.65 4.45l2-.05.05-.05v-.5l.05-.1.05-.05v-.1l.05-.1v-.25l.05-.05v-.75l.05-.05v-.1l.05-.1v-.05l.05-.1v-.25l.05-.1v-.05l.05-.1V26l.05-.1v-1.8l.05-.1v-1.05l.05-.05v-.1l.05-.1v-.4l.05-.05.05-.1v-.1l.05-.05v-.35l.05-.05v-.35l.05-.1V21l.05-.1v-.2l.05-.1v-.15l.05-.1v-.15l.05-.1v-.15l.05-.1v-.05l.05-.1v-.1l.05-.05v-.1l.05-.1.05-.05v-.25l.05-.1.05-.05.05-.1v-.1l.05-.05.05-.05h-.05l-.1-.05h-.15l-.2-.05-.2-.1-.1-.1-.1-.05-.1-.1v-.1L56.8 18l-.05-.1v-.15l-.05-.1v-.05l.05-.1v-.15l.05-.1v-.1l.05-.05.1-.1.1-.05.1-.1.2-.1.15-.05h.05l.1-.05h.4l.15.05h.25l.35-.05h.25l.25-.05h.15l.25-.05.3-.05h1.05l.6-.05h.3l.1-.05h.25l.3-.05h.35l.4-.05h2.5l.65-.05h3.05v-.05h3.15l.25.05.2.05.2.1.15.05.1.1.1.1.1.05.05.1.05.05.05.1.25.05.15.05.15.1.05.1.05.05.05.1.1.05v.1l.05.1v.25l.05.05v1.3l.05.1V30.6l.05.1v3.25L75 34v1l.05.1v1.5l.05.05.05.1v.15l.05.1v.3l-.05.1v.15l-.05.1-.05.05-.05.1-.05.1-.05.05-.1.1-.1.1-.1.05-.2.1-.15.05h-2l-1.2-.05h-.25l-.1-.05h-2.65l-.6.05h-1.2l-2.25.05H4.2l-.3-.05h-.5l-.25-.05h-.2l-.65-.05h-.25l-.35-.05-.1.05-.1.1-.15.05H1.3l-.1.05-.25.05-.25-.05-.2-.05-.15-.1-.1-.05-.15-.1-.05-.1-.05-.05V18.3l.05-.1v-.1l.05-.05.05-.1.05-.05H.15l.05-.1v-.1l.05-.05v-.1l.05-.1.05-.05.1-.1.1-.05.15-.1.25-.05.15-.05h.4l.2-.05h.25l.25-.05h.25l.5-.05.25-.05H4l.95-.05H6.7l.9-.05h1.25l.65-.05h1.6l.8-.05h.3l1.4-.05h1.05l.25-.05h.65zm38.4-8.4-.45.05q-.25 0-.4-.2L53 7.3l.4-1 .35-.8.1-.05q.55-1.2 1.45-2.4l.9-.85 1.75.05q.9.55.8 1.55 0 .6-.4 1.15l-.85.9-.75.7-.9.65-.35.2zm-9.6-1.2-.95-.1q-.7-.45-.3-1.5.2-.5 1.1-1.25L45.4 3l.35-.2.7.1.3.65-.35.7-1.25 1.85zm-1-6.2q.6.1.75.5l-.2.8-1.45 2q-.85.85-1.6.75l-.65-.5q-.25-.45-.15-.9.1-.5.65-1.1.7-.8 1.15-1.1.7-.5 1.5-.45M31.7 12.3l1.4-.05.7.3.9-.05 8.5-.55 2.75.4q.65.25 1.1.85t.4 1.25q-.15 1.4-1.75 1.95l-2.05.2-6.85-.35-2.75-.45-1.95-.05q-1.1-.1-1.75-.75-.85-.9-.35-1.8.4-.6 1.7-.9m32.95 13.3-.9.15.1.2-.1.95-.05.55q-.1.55-.6.7l-.9-.15q-.4-.35-.4-1l.25-1h-.2l-.45.1q-.15.15-.15.4v1.1q0 .7.15 1l4.5.2 1 .05.75.15 1.9-.3v-1.5l-.05-.4-.35-.45-.45-.6-.65-.2-1.1-.15-1.1.2zm2.5 3.2-.5-.45q-.3-.55.1-1.45l.55-.75q.4-.4.85-.3.7.1.85.75.2.5 0 1.2l-.3.65q-.6.8-1.55.35M39.75 5.1l-.7 2.35-.45.45-.5.15-.55-.35q-.9-.9-.65-2.1l-.1-1.1v-.85l-.2-1.3q-.1-.6.15-1.15.3-.6.85-.9l1.2-.15q.6.1 1 .55l.4.85v.9l-.2.45-.1.65v.6zm-16.9 3.5-1.1-.45-3.05-2.2-.35-.35q-.75-.7-.6-1.75t1.1-1.5l1.85.05q.7.35 1.3 1.35l.95 1.35.6.95.6 1.6.15.55-.15.55-.6.15-.35-.2z"/><path d="M15.2 18.35v-.05l-.05-.05-.05-.1-.05-.1v-.3l.05-.1v-.15l.1-.1.05-.1.05-.05v-.1l.05-.1.1-.05.05-.1.1-.1.05-.05.1-.1.2-.05.1-.05v-.05l.1-.05.05-.1.05-.05.05-.1.05-.1.1-.05.15-.1.1-.1.1-.05.1-.1.05-.1.1-.05.1-.1.1-.05.1-.1.1-.1.1-.05.15-.1.1-.1.1-.05.15-.1.05-.05.1-.1.15-.1.1-.05.1-.1.1-.1.05-.05.1-.1.05-.1L19 14l.1-.1.15-.05.1-.1.1-.1.1-.05.1-.1.05-.1.1-.05.1-.1.1-.05.15-.1.2-.1.15-.05.05-.1.1-.1.1-.05.15-.1.15-.05.15-.1.05-.1.1-.05.1-.1.1-.1.1-.05.15-.1.1-.1.1-.05.15-.1.1-.05.1-.1.1-.1.15-.05.15-.1.15-.1.1-.05.1-.1.05-.05.15-.1.1-.1.1-.05.15-.1.15-.1.2-.05.1-.1.15-.1.05-.05.1-.1.15-.05.15-.1.15-.1.15-.05.1-.1.15-.1.15-.05.1-.1.15-.05.1-.1.15-.1.05-.05.15-.1.15-.1.1-.05.15-.1.15-.05.1-.05H27l.55-.05h3.6l.7-.05h7l.8.05h11.6l.15.05h.1l.1.1 1.1.25.85.9.5.65.4.35.3.55.65.95 2.85 3.6.45.65.1.7-.05.8-.2 1.15.05 1.1-1 10.3q-.1 1.15-.65 1.5l-1.5.25-.55-.05-.1.05-.15.05-.1.05-.1.05h-.1l-.25.05-.25-.05h-.15l-.65.05h-5.2l-1.15.05h-9.05l-2.8.05h-1.9l-4.9.05h-1.8l-1.25.05h-1.55l-.95.05h-4.4l-.1-.05-.2-.05-.15-.05-.15-.1-.1-.1-.1-.05-.05-.1-.1-.1-.05-.05-.05-.1-.05-.05-.05-.1V32l-.05-.05v-.1l-.05-.1v-.6l-.4.05-2.25.3-2.25-.05-2.25-.15-1.55-.4q-.85-.45-1.05-1.15-.2-.5 0-1.3l.3-1.15q.3-.6 1.5-1.5.95-.75 1.65-1.05l1.85-.4 3.25.1-.05-.1V24l-.05-.05v-.25l-.05-.1v-.05l-.05-.1-.05-.1v-1.1l-.05-.1v-.25l-.05-.1v-.7l-.05-.1v-.15l-.05-.1v-.25l-.05-.05-.05-.1v-.25l-.05-.05v-.7l.05-.05v-.35l.05-.05.05-.1v-.3l.05-.05zM40.15 1.1l.75-.45q1.15-.6 2.35-.65l.75.05.85-.05q1.5.05 2.55 1.85l.35.9.05.95q.1 1.45-.3 2.2l-1.2 1.3-1.25.75-4.25-.15-.6-.3-.45-.4q-1.3-1.3-1.15-2.85l.15-.65.8-1.75zm5.3 1.25Q45.2 2.1 44.7 2l-.8-.25-.55-.15-.55.05q-1.2.4-1.8 1.65-.25.5-.25.95.05.75.75 1.15l1.35.5L44 6l1-.45.7-.6q.35-.55.15-1.55zm-1 2.05-.45.55.05.1-.05.25-.15.2-.25.15-.15.05-.15-.05-.3-.2-.15-.2V5l-.2-.05-.7-.45q-.2-.4.05-1l.25-.35.55-.35.1-.45.15-.1.05-.15.15-.05h.35l.3.3.05.25v.2l.45.15.1.6q-.25.2-.45-.1l-1.2.2v.1l1 .1q.25 0 .4.15zm-24 11.95 1.95.05h1.15l1.4.05h2.45l.8.05h.95l1.25.05.8.05h.7l1.8.05h1.65l.85.05h.7l.7.05h.75l.75.05h.5l1.25.05h.6l.95.05.4.05h.45L44 17h1.05l.65.05h.4l.2-.05h1.45l.4-.05h.25l.9-.05 1.9-.05h4.35l-3.3-4.35-.4-.5-.35-.7-.15-.15h-.1l-.2.05H45.7l-.25-.05h-3.1l-2.7.05h-3.6l-.6.05h-3.3l-.3-.05H28.5l-.1.05-.25.05-.25-.05-.1-.05h-.1l-.15-.05-.3.05-.05.1-.1.05-.1.1-.15.05-.15.1-.1.1-.15.05-.15.1-.15.1L26 12l-.15.1-.15.05-.1.1-.1.1-.1.05-.1.1-.15.1-.2.05-.15.1-.15.05-.1.1-.1.1-.05.05-.1.1-.15.1-.1.05-.15.1-.15.1-.1.05-.1.1-.15.05-.15.1-.1.1-.1.05-.1.1-.15.1-.1.05-.1.1-.15.05-.1.1-.1.1-.15.05-.1.1-.1.1-.05.05-.1.1-.15.1-.1.05-.2.1-.1.05-.05.1-.1.1-.1.05-.15.1-.2.1-.2.05-.15.1-.15.05-.1.1-.1.1-.1.05-.1.1-.1.1zM33.1 12.3h2l.4.05h.25l.45.05h1l.5.05h2.95l1.9.05 1.8.05h.45l.15.05.2.1.1.05.1.1.1.1.05.05.05.1.05.1v.05l.05.1.05.05v.1l.05.1v.3l-.05.1v.05l-.05.1-.05.1v.05l-.05.1-.05.1-.05.05-.1.1-.1.1-.1.05-.2.1-.15.05h-.45l-1.8.05-1.9.05H37.7l-.5.05h-1l-.45.05h-.25l-.4.05h-2l-.3-.05h-.1l-.3-.05-.2-.05-.15-.1-.15-.05-.1-.1-.1-.05-.1-.1-.05-.1-.05-.05-.05-.1v-.1l-.05-.05-.05-.1v-.1L31.3 14v-.5l.05-.1v-.05l.05-.1.05-.05v-.1l.05-.1.05-.05.05-.1.1-.1.1-.05.1-.1.15-.05.15-.1.2-.05.3-.05h.4zm9.7 6.55h-.4l-.95.05h-.6l-1.25.05h-.5l-.75.05h-.75l-.7.05-.7.05h-.85l-1.65.05h-1.8l-.7.05h-.8l-1.25.05h-.95l-.8.05h-2.45l-1.4.05H22.4l-1.95.05H17.6v.25l.05.1.05.05v.1l.05.05v.25l.05.1v.15l.05.1v.25l.05.05v.45l.05.05.05.1v.25l.05.05.05.1v.3l.05.1v.6l.05.05v.1l.05.05v.1l.05.1v.05l.05.1v.15l.05.1v.05l.05.1v.1l.05.05v.1l.05.1v.05l.05.1.05.1v.7l.05.1v.3l.05.1v.1l.05.05v.35l.05.05v.1l.05.1.05.05v.1l.05.1v.05l.05.1v.15l.05.1.05.05v.2l.1.05v.1l.05.05v.35l.05.1v.3l.05.1v.05l.05.1v.35l.05.05v.9l.05.1v.05l.25.05 2.7.05.95.05H25l1.25.05h1.8l4.9.05h1.9l2.8.05h10.2l1.65.05h.85l.8-.05H52l1.05.05h.55l.7-.3.45-.15.2-.5 1.55-10.2h-7.2l-.9-.05-.25-.05H46.9l-.6-.05h-.2l-.45-.05h-.35l-.95-.05H42.8m18.35 6.1 3.4-.3 2.15.05 1.55.15q1.1.1 1.5.45l.35.35.1.6q.05 1.1-.25 2.2l-.4.65-.85.25-7.35-.1-.55-.2-.2-.45-.1-.5-.15-.45-.05-.6q-.1-1.2.4-1.75zm-16.9-2.2 1.8-.05q.85.1 1.25.65l.2 1-.05.4-.5.65-.25.15-1.4 1.05-.35.35-.3.75q-.35.6-1 .5l-.55-.25q-.4-.3-.45-.55l-1.65-2-.35-.9-.05-.85.15-.8.45-.65.75-.2 1.85.3zm21.55 3.3-3.65.15q-.4.65.05 1.35l6.25.1.15-1.05zm-38.05-2.1q-.25.2-.35.7l-.05.35.3.3.95.35 1.05-.2q.6 0 .95.35.4.5.25.95l-.3.65q-.5.6-1.35.75l-.15.45-.7.4-.5-.05-.55-.55-.15-.55-.15-.05q-1.35-.8-1.8-1.8l-.1-.3q-.05-.25.05-.6l.3-1.1q.45-1.2 1.25-1.7l.55-.3.45-.1-.05-.3.1-.45.35-.35.75-.15.55.25q.55.35.4 1l.1.05.45.25.25.4.3.65-.1.75q-.25.35-.6.35-.5-.1-.5-.5l-1.6-.1zM16.2 27.3l-.05-.1-.05-.1-.05-.05v-.35l-.05-.05v-.25l-.05-.1v-.2h-.75l-2.2.1-1.2.25q-.5.15-1.5.8l-.25.25 1 .35.75.05 2.75-.15 1.15-.25.45-.15h.05zm.45 1.9v-.1l-.05-.1-.05-.1v-.05l-.05-.1v-.2l-.7.2-.7.1-3.3-.05-1-.05-1.2-.35-.25-.25q-.3.45-.15.9l6.8.2zm21.75-5.45q0 .45-.5.65l-.8.2-1.4.1-1.15-.15q-.35-.25-.35-.65 0-.45.4-.7l.45-.2 2.15-.1.75.2q.45.25.45.65m-3.3 3.6q-.7.1-1.05-.65-.25-.7.25-1.2.35-.4 1.75-.4l1.65.3.45.25.1.5q-.5.6-1.1.8l-1.1.15z"/></g></svg>