<svg xmlns="http://www.w3.org/2000/svg" xmlns:ffdec="https://www.free-decompiler.com/flash" ffdec:objectType="shape" width="76.45" height="41.4"><g fill-rule="evenodd"><path fill="#999" d="m33.3 9.75 1.9-.35q0-.8.3-1.75.5-1.3 1.15-2.1-1.55-1.65-3.55-1.9-1.95-.25-4.9.9-.75.25-1.15.65l-.7.85q-.7.75-1.55.65-.65-.05-1.05-.55t-.45-1.1q-.2-1.1.75-2.15.7-.75 2-1.35Q29 .05 31.75 0q3.2-.1 5.7 1.5 1.45 1 2.05 2.15.75 1.5.2 2.85l-.8 1.55-.4 1.1.15.2 1.3-.05 3.6.45-.15-1.4.2-1.05q.45-1.35 1.9-1.5 1.5-.1 2.2 1.25l.25 1.5-.35 1.9-.6 1.4-.3.4.35.55q1.15 1.7 1.35 3.45.1 1.75-.5 3.05-9.45-7-18.95 0-.65-1.3-.5-3.05.2-1.75 1.3-3.45l.4-.55-.35-.4-.6-1.4q-.35-1-.35-1.9t.3-1.5Q29.8 5.7 31.3 5.8q1.5.15 1.95 1.5l.15 1.05zm30.15 19.3.15.35v.55l-.45 3.8 4.35-4.35 1.75-1.4q2.4-2 4.5-4.8.55-.9 1.15-1.2l.85-.05.55.55q.1.6-.6 1.3l-.85.9-2.45 7.1q-1.1 3.15-2.2 4.55l3.25-2.65 1.25-1.2.5-.7q.45-.35.85-.25.5.15.4.85l-.45.85-.6.65.05.1.05.1v.2l.05.1-.05.1v.2l-.1.1v2.1l.05.1v2.75l.05.15v.3l-.05.05v.25l.05.1-.05.1v.1l-.05.1v.1l-.1.1-.1.1-.15.1-.3.1-.25-.05-.1-.05-.15-.1-.1-.1-.05-.1-.05-.15-.05-.1v-.05h-.05l-.6.05h-.85l-2.05.05-1.25.05h-5.55l-1.25.05-2.25.05-1 .05h-.9l-3 .05-.3.05H47.1l-.25-.05-.15-.05-.2-.15-.15-.1-.1-.1-.05-.05-.4.3-.95.05q-.15-.35.3-.7 5.6-5.7 9.9-11.55l.4-.4q.5-.15.8.35l.15.95-.55 2.95q-.55 2-.6 2.95l6.45-6.1.85-.6q.6-.2.9.25M42.3 25.3q.9.85.85 2.05 0 1.2-.9 1.95-.75.75-1.95.7-1.15-.05-1.85-.85-.75-.75-.75-1.95.1-1.15.8-1.85.7-.75 1.9-.8 1.15 0 1.9.75M13 29.05q.3-.45.9-.25l.85.6 6.45 6.1-.6-2.95q-.5-1.9-.55-2.95 0-.65.15-.95.3-.5.8-.35l.4.4q4.3 5.85 9.9 11.55.45.35.3.7l-.95-.05-.4-.3-.05.05-.1.1-.15.1-.2.15-.15.05-.25.05H21.5l-.3-.05-3-.05h-.9l-1-.05-2.25-.05-1.25-.05H7.25L6 40.8l-2.05-.05H3.1l-.6-.05h-.05v.05l-.05.1-.05.15-.05.1-.1.1-.15.1-.1.05-.25.05-.3-.1-.15-.1-.1-.1-.1-.1v-.1L1 40.8v-.1l-.05-.1.05-.1v-.25l-.05-.05v-.3l.05-.15V37l.05-.1v-2.1l-.1-.1v-.2l-.05-.1.05-.1v-.2L1 34l.05-.1-.6-.65L0 32.4q-.1-.7.4-.85.4-.1.85.25l.5.7L3 33.7l3.25 2.65q-1.1-1.4-2.2-4.55L1.6 24.7l-.85-.9q-.7-.7-.6-1.3l.55-.55.85.05 1.15 1.2Q4.8 26 7.2 28l1.75 1.4 4.35 4.35q-.35-1.5-.45-3.8v-.55z"/><path d="M25.55 29.2q-.75-1.95-.6-4.95l-.7-.3-2.3-.3-2.6-.35-2.55.05q-1.05.2-2.75 1.15l-2.75 1.25-3.4-.15q-2.3-.65-3.2-2.5l-.25-.65H4.3l-.85.7-.35.5-.4-.15-.1-.5q-.1-1.35 1-2.5.4-.35.85-.55l.45-1.3-.45-.05-1.15.55q-.3.3-.6.25-.25-.15-.25-.5l.25-.55q.75-1.05 1.5-1.4.45-.25 1.45-.35h.7l.75-.75-.2-.15-.9-.3q-1.3-.15-2.25.65-.25-.35-.05-.95l.75-.7q2.1-1.4 4.35-.25l.4.3q.45-.25.85-.4 1.8-.65 4.55-.8 3.5-.1 6 .95 1.55.6 3.55 1.95 1.45.9 2 1.5l.1.1.1-.15.6-.95-.25-1.05-.45-3.7q-.1-.8.1-1.35.4-1.05 1.6-1.05l1.05.25 1.7.6 1.75 1.1 1 .4.45.25.35-.05 3.55-.15v-.05h1.25v.05l3.55.15.3.05.45-.25 1-.4 1.8-1.1 1.7-.6 1.05-.25q1.15 0 1.6 1.05l.05 1.35-.1 1.7-.25.95-.1 1.05-.2 1.05.6.95.05.15.1-.1q.55-.6 2-1.5 2.05-1.35 3.6-1.95 2.5-1.05 5.95-.95 2.8.15 4.55.8l.9.4.4-.3q2.25-1.15 4.35.25l.7.7q.25.6-.05.95-.95-.8-2.2-.65l-.95.3-.15.15.7.75h.75q1 .1 1.4.35.8.35 1.5 1.4l.3.55-.3.5q-.25.05-.6-.25l-1.1-.55-.5.05.5 1.3.85.55q1.1 1.15 1 2.5l-.15.5q-.15.3-.35.15l-.35-.5-.9-.7h-.1l-.3.65q-.85 1.85-3.2 2.5l-3.35.15q-.9-.2-2.75-1.25-1.75-.95-2.8-1.15l-2.55-.05-2.6.35-2.25.3-.7.3q.15 3-.65 4.95-.7 1.85-2.25 3.2l-.9.65-.2.2q-10 7.4-20-.85-1.65-1.35-2.35-3.2m7.35 1.35.6-.55q.45.65 1.8 1.45l-.8.25-.75.2q-.75.05-1.4-.5zm6.15.25-2.05.3v-.3l.2-2 .1-.25h3.3v.25l.1 1.3-.3 1-.35-.15zm-28.1-7.35q.4.45 1.2.45 1.5.1 2.25-.85l.3-.65.2-.65q0-.45-.4-1.05-.9-1.3-1.95-1.1l-1.25.75-.5.6-.2 1.1q0 1.05.35 1.4m-1.55.15q.4-.55.1-1.2-.35-.65-1.05-.65l-.05.05q-.4 0-.65.25-.35.25-.4.65v.3l.05.4.3.4q.6.5 1.2.2zM7.35 21q.6.45 1.25-.15.55-.55.15-1.2-.4-.7-1.15-.5l-.55.45-.2.3q-.2.75.5 1.1m1.8-2.7.2.65q.3.4.65.45.7.2 1.1-.25l.35-.9-.45-.85-1.2-.15q-.65.3-.65 1.05m24.7 5.3.05-.35q-1.3-.4-2.45-1.4-.6-.6-.75-1.35-1.2 0-2.15.85-1.45 1.25-1.1 3 .1.6.5 1.1.35.45 1.15.65l.75-.25 2.9-.65h.6q.45-.65.5-1.6m9.45 8.25-.9-.15 1.35-1.6.15.1.3.45q.35.65.15.95l-.45.3zm1.1-4.25q-.55-.35-1.05-.55L43.1 27q-.4-.05-.6-.35l-1.05-.3-1.2-.15v-.1q.15-.9-.05-1.3l-.2-.65-.2-.6q-.15-.3-.6-.3-.25 0-.6.3l-.15.55-.35 1.05q-.1.6.05 1l-1.7.05q-3.3.35-5.6 2.9-.95 1.05-1.1 2.05-.15 1.7 1.5 2.75 1.35.8 3.2.6l3.2-.6 1-.1 1.25.25 2.7.75 2.75-.35q1.2-.7 1.6-2.35l.1-1.3-.7-1.45-.75-1.05zm-1-3 .35.8h.2l1.05.1 1.3.5 1.3.6.4.25.5-.3q1-.65 1.3-2.25.2-1.3-.4-2.1-.4-.65-1.15-.9l-.8-.3q-1.1 1.85-3.2 2.25l-.8.05q-.15.6-.05 1.3m25-2.5q.9-.1 1.2-.95.2-.55-.2-1.2-.35-.55-1.1-.55h-.25q-.5.1-.85.55-.3.45-.2 1 .1.5.5.85.4.3.9.3m-2.05 2.2.35.2.3.05.4-.15q.6-.45.4-1l-.2-.35q-.25-.25-.7-.35l-.1.05q-.65.1-.75.75l.05.45zm-1.65-2.35.35-1.5-.3-1.05-.4-.55-1.8-.1q-.6.4-.7.55-.25.3-.35 1-.15 1.05.1 1.8.4.7 1 .9l1.35-.1zm1.9-5.3q-.75.35-.6 1 .1.65.75.9.8.1 1.05-.55.35-.65-.15-1.15l-.75-.3-.1.05z"/><path fill="#fff" d="m66.6 16.65.2-.05.1-.05.75.3q.5.5.15 1.15-.25.65-1.05.55-.65-.25-.75-.9-.15-.65.6-1m-1.9 5.3-.75.95-1.35.1q-.6-.2-1-.9-.25-.75-.1-1.8.1-.7.35-1 .1-.15.7-.55l1.8.1.4.55.3 1.05zm1.65 2.35-.25-.35-.05-.45q.1-.65.75-.75l.1-.05q.45.1.7.35l.2.35q.2.55-.4 1l-.4.15-.3-.05zm2.05-2.2q-.5 0-.9-.3-.4-.35-.5-.85-.1-.55.2-1 .35-.45.85-.55h.25q.75 0 1.1.55.4.65.2 1.2-.3.85-1.2.95m-25 2.5q-.1-.7.05-1.3l.8-.05q2.1-.4 3.2-2.25l.8.3q.75.25 1.15.9.6.8.4 2.1-.3 1.6-1.3 2.25l-.5.3-.4-.25-1.3-.6-1.3-.5-1.05-.1h-.2zm1 3 1.2.7.75 1.05.7 1.45-.1 1.3q-.4 1.65-1.6 2.35l-2.75.35-2.7-.75-1.25-.25-1 .1-3.2.6q-1.85.2-3.2-.6-1.65-1.05-1.5-2.75.15-1 1.1-2.05 2.3-2.55 5.6-2.9l1.7-.05q-.15-.4-.05-1l.35-1.05.15-.55q.35-.3.6-.3.45 0 .6.3l.2.6.2.65q.2.4.05 1.3v.1l1.2.15 1.05.3q.2.3.6.35l.25.05q.5.2 1.05.55m-1.1 4.25.6.05.45-.3q.2-.3-.15-.95l-.3-.45-.15-.1-1.35 1.6zm-9.45-8.25q-.05.95-.5 1.6h-.6l-2.9.65-.75.25q-.8-.2-1.15-.65-.4-.5-.5-1.1-.35-1.75 1.1-3 .95-.85 2.15-.85.15.75.75 1.35 1.15 1 2.45 1.4zm-24.7-5.3q0-.75.65-1.05l1.2.15.45.85-.35.9q-.4.45-1.1.25-.35-.05-.65-.45zM7.35 21q-.7-.35-.5-1.1l.2-.3.55-.45q.75-.2 1.15.5.4.65-.15 1.2-.65.6-1.25.15m2.05 2.6-.5.4q-.6.3-1.2-.2l-.3-.4-.05-.4v-.3q.05-.4.4-.65.25-.25.65-.25l.05-.05q.7 0 1.05.65.3.65-.1 1.2m1.55-.15q-.35-.35-.35-1.4l.2-1.1.5-.6 1.25-.75q1.05-.2 1.95 1.1.4.6.4 1.05l-.2.65-.3.65q-.75.95-2.25.85-.8 0-1.2-.45m28.1 7.35 1 .15.35.15.3-1-.1-1.3v-.25h-3.3l-.1.25-.2 2v.3zm-6.15-.25-.55.85q.65.55 1.4.5l.75-.2.8-.25q-1.35-.8-1.8-1.45z"/></g></svg>