<svg xmlns="http://www.w3.org/2000/svg" xmlns:ffdec="https://www.free-decompiler.com/flash" ffdec:objectType="shape" width="76.75" height="43.6"><g fill-rule="evenodd"><path fill="#999" d="m10.4 16.65.65-2.85q.45-1.6 1.65-3.3l.4-.75-.05-.6-.3-1.95q-.05-1 .3-2.35.7-3.1 2.2-4l.7-.1q.3.25.15.75l-.45.65q-.55.7-.75 1.9l-.25 2.1-.05.8.25.85q.5 1.7.15 2.65l-.75 1.3q-1.35 1.9-1.65 4.4l-.1 1.45v1.2l.65 2.6v.85q.1.35-.2.6l-.65.4q-.85.35-2 1.25l-2.65 2.25L6 28.4l-.7 1-1.2 2.3q-.35.9-.65 3.35l-.4 4.85q.1 1.55-.45 1.9l-.9.1-.75-.65q-.3-.6-.2-2l.35-3.5.3-2.35.5-1.75q.7-1.9 1.9-3.5l1.5-1.7q3.15-3.3 5.85-4.3L11 21.5q-.7-1.8-.75-2.75zm1.1-8.8-.9 2.4-1 2.35q-.75 2.3-.35 6.45.1 1.4-.5 1.85l-.7.15h-.1l-.6.3Q4.5 22.7 2.5 25.3l-1.05 1.05-.75.15-.6-.35q-.4-.65.5-1.7 2.95-3.3 6.6-4.5v-.2q-.65-4.6.25-7.45.25-1 1.35-3.15l.85-1.7.4-1.65.5-2.75.65-1.45.6-.65.45-.05.3.3-.15.6q-.5 1.05-.6 2.95zm-9-2L2.65 5q.15-1.05.65-2.15l.45-.95.6-1.1.4-.3q.4-.2.6.25.2.35-.2 1.05L4.55 3l-.4 1.2-.3 1.25.05.75-.5 2.75-.1 2.45q0 .7-.35 1.1l-.6.4-.6.65-1.05-.1Q.2 13 .35 12.4l.4-.75.75-.55.05-.25.05-.7q0-1.1.35-2.5zM35.2.7l1.7.3 3.5-.05 1.15.1q.7.15.9.75.25.75-.85 1.8l-1.05.8-1.65.3-2.2.05q-1.6 0-2.15-.55-.3-.25-.5-.85l-.45-.95-.5-.7q-.3-.4-.25-.75.05-.45.45-.7l.8-.15zM24.7 26.15l-1.4-.9-.85-1.25q-1.45-3.05-1.4-6.25 0-1.8.45-3.15l.8-1.8.85-2-.05-1.5q0-1.3 1.05-4.05L25.7 1.6l.5-1q.5-.45 1-.4.75.15.85 1.1l-.4 1.45-1.3 3.1q-1 2.3-.75 3.55l.3 1.4-.5 1.65q-1.55 3.3-1.6 5.3 0 1.1.5 3.2.4 1.45.85 1.9l1.35.9 1.15 1.05q.2.55 0 1.1l-.15.65-.6.8-.9 1.4-.55 1.05q-.45.5-1.7.8-3.55.85-5.85 2.2-3.05 1.8-4.3 4.4-.85 1.75-.15 2.75l.6.75q.45.6.2 1.25-.25.6-1 .8l-1.65-.15q-.8-.4-1.2-1.15-.35-.7-.25-2.35 0-1.4.35-2.3.25-.7.85-1.55l1.4-2q1.65-1.95 4.65-3.3 2-.9 5.45-1.85l.95-.4.8-1 .3-.4zm-16.9 5.4L6.75 33.1q-.25.6-.25 2.25l.1 4.7-.25.95q-.45.35-.9 0l-.6-.75q-.45-1.1-.35-3.2l.05-2.7q.1-1.45.5-2.25l.5-.85q1.9-2.75 3.5-3.95l1.8-1.1q2.4-1.2 4.75-2l-.8-1.8-.4-1.35-.2-1.2q-.15-1.75 0-3.4l.55-2.75.8-1.75 1.1-1.35.25-.25-.1-.5-.2-.7-.1-1.25.2-2.5.25-1 1.1-2.2.55-.75Q19.6.4 20.35.1l1.1.05q.2.9-.25 1.75l-.9 1-1 1.7-.35 1.1-.2 1.45q-.15.7 0 1.35l.1.8-.05.9v.25l.05.6-.6 1.1-1.05 1.4q-.3.55-.45 1.2l-.2.95v3.55l.1 1.15.35.9.35 1.25.45 1.25.15.25.25.45.05.25.05.1q.2.75-.35 1.05l-.45.05-.5.15-4.3 1.7-2.6 1.45zm39.4 4.5.85-.85q1.45-1.6 1-3.95-.35-1.9-1.95-3.7l-1-1.25q-.5-.7-.5-1.4 0-.75.65-1.7l1.9-2.65q1.1-1.6 1.45-2.9.35-1.1.35-2.65l-.15-2.75-.6-4.8q-.45-2.7-1.2-4.7-.35-1-.25-1.4l.4-.55.65-.15.4.4q1.35 1.9 2.1 4.7l.85 5.1.35 4.55q-.05 2.5-.85 4.3l-1.5 2.5-1.75 2.6.75.95.9.85q.9.9 1.45 2.85.65 2.25.3 4.3-.35 2.3-1.95 3.7l-.45.4.05.2q.2 1.85-.05 2.55l-1.25 1.55-1.35 1q-.95.45-1.65 0-.5-.25-.65-.85-.15-.55.15-1.05l1.2-1q.9-.6.95-1.25-.3-.95-.25-1.4.05-.3.25-.5-.05-.5.4-1.05m4.65-33.1-.6-1.25q-.1-.9.5-1.25l1 .05.8.7q1 1.45 1.9 4.5L56 7.55l.45 1.6.15 2.75q0 4.25-.35 6.3-.6 3.6-2.3 5.9l-.2.3.8.85.85 1.3q1.1 2.05 1.1 4.65l-.4 2.85q-.55 2.1-1.8 3.55l-.4.7.1.7q.5 1.3.45 1.95l-.35.95-.85.45q-.75.1-1.2-.65-.4-.5-.55-1.35-.6-2.05-.25-3.1l1.1-1.65q1.7-2.2 1.45-5.05-.15-2.7-2.15-4.8l-.35-.4-.2-.1q-.55-.3-.6-.9-.05-.45.35-.9l.75-.8q1.5-1.65 2-5.3.65-3.85.35-7.4-.4-3.95-2.1-7m5.4 31.2.4-1.45.2-1.1q.25-1.45-.15-2.9l-.4-1.2-.4-.8-.55-.6-.25-.5q-.25-.15-.25-.5l.1-.8 1.4-4.35 1.1-3.75q.85-3.55.6-7.2l-.25-1.85L58.05 5l-.75-1.35-.9-1.05q-.55-.65-.25-1.25.15-.4.55-.55l.85-.05q.65.1 1.3.95.9 1.05 1.8 3.65l.55 2.2q.25 1.6.05 4.9l-.45 3.75-.5 1.95q-1.1 3.85-2.65 6.3.25.1.55.35l.65 1.05q.85 1.9 1.05 3.35.2 1.5-.1 3.7l-.15 1.05-.85 2.15-1.05 2-.1.55.25.55.2.75q0 .5-.5.6-.4.05-.95-.75-.85-.75-1.05-1.3-.2-.65.4-1.8l.75-1.45zm8.85-17.9q-.1 2.45-.7 4.3l-1.5 3.2-.3.55.65 1.15.55 1.2.35 2.8.15 1.55-.3 1.45-.25 1.65q-.3 1.85-1.45 3.3l-.75 1.15-.1 1.6q.05 1.05-.3 1.55l-.5.3q-.35 0-.5-.25-.7-.7-.9-2.5-.1-.8.05-1.2l.45-.65 1.45-2q.5-.85.8-2.8l.2-1.75-.1-.95-.1-1.55-.35-1.55-.55-1.55-.5-.4q-.45-.55.35-1.8 2-3.05 2.15-7.7.15-2.45-.6-8.1Q63 3.7 62.1 2.3l-.45-1q-.2-.7.35-.95.55-.3 1.2.45.95 1 1.45 2.7l.6 3.05q.95 6.15.85 9.7m5.3-.15-.1 1.3-.6 3.2-.85 2.35-.25.55q.9 1.25 1.25 2.45.45 1.4.65 4.35v2.35l-.65 3.65-.6 2.05-2.6 4.05-.85.95-1.2-.05q-.3-.3-.2-.85l.4-.85 2.35-3.3.5-.95.25-1.1q.8-2.7.85-4.1l-.05-1.4-.4-3.45-.8-3.45-.3-.25-.15-.65q0-.4.45-1.3.85-1.55 1.05-3.3l.1-2.1-.45-4.1q-.5-4.6-1.1-6.7L66.9 2.3l-.35-.95q-.1-.65.4-.9.5-.3 1 .2l.6 1L70 6l.65 4.4q.3 3.15.55 4.4zm.85 23.9q1.95-3.15 2.5-6.9t-.45-7.3l-.75-2.05-.45-.95q-.1-.35.25-1.65 1-3.05.55-8.45-.45-5.35-1.5-10.7-.25-1.3.5-1.3.6-.05.7.9l.8 4.1q1.05 5.45 1.25 8.35.3 4.7-.75 8.25 2.05 4.4 1.8 9.4-.3 5-2.85 9.1l-.9.9-.95-.1q-.5-.5.25-1.6m-50.4-14.45.85.6q.3.35.15.9l-.6.85-1.9.5q-3.4.55-7.05 2.9-2.45 1.65-3.35 3.2-1.4 2.25-1.05 5.55.1 1-.35 1.3L8 41.4l-.45-.4-.3-1.1q-.3-3.35.25-4.95.45-1.3 1.7-2.85 4.05-4.75 10.2-5.9l-.6-2.3-.7-2.3q-.3-1.45-.3-4.35 0-2.1.3-3.1.3-1.25 1.7-3.2l.4-.45-.25-2q-.05-1.1.2-2.6l.25-.85.85-1.8.35-.6.55-.6.75-.95 1.35-.1.4.8-.05.85-1.15 1.65-.75 1.45q-.35 1-.45 2.65l-.15 2.2v.1l-.05 1v.05l-.05.1-.2.3-.9 1.1q-.95 1.45-.85 4.65 0 2.15.4 3.4l.75 2.25.2 1.1q.1.6.45.9M3.3 17.25l.5-.45.05-.7q-.2-1.6.4-4.55Q4.9 8.1 5.7 6.1l.75-2.15 1.65-2.6q.2-.4.5-.45l.55.15.2.6-.6 1.15L8 4.05q-.8 1.5-1.5 4.9l-.65 3.15q-.35 2.4-.15 4.25.1 1.55-.4 2.1L4.15 19q-.6.25-1.25.75l-.75.6-.9.05q-.7-.35-.4-1.1.15-.5.8-1.05z"/><path d="M48.45 14.75q.1 3.5-1.3 6-1.2 2.2-3.35 3.6l.1 1.5q0 .6.15.8l.65.4q1.8.7 2.45 2.55l.3 1.3.15 1.85q-.15 1.75-2.45 3.85.45.65.3 1.5-.1.85-.75 1.35-.8.65-2.75.55l-.85-.05-.15.25q-.6 1.15-1.25 1.45l-1.8.2-1.05-.2q-1.05.9-2.85.5-1.4-.4-1.9-1.2h-.15l-1.3.35-1.55.2q-1.25 0-1.8-.4l-.8-.8q-.4-.5-.45-.9-.15-.85.5-1.6l-1.25-1.65-.6-1.25q-2.25.7-3.45 1.4l-2.1 1.5.85-.15 1.7-.1q.9.05 1.7.5.8.5 1.05 1.3.4 1.4-.7 2.4-.9.9-2.35 1.05l-2.7-.3q-1.25-.1-2.7-.85l-1.05-.8q-.35-.5-.35-1.55 0-1.45.15-1.9l.75-1.3q1.4-1.8 4-3.1 1.55-.75 4.85-1.75l.65-.15q.15-.45.45-.85.85-1.2 2.05-1.85l1.05-.9.15-.8.3-1.05.55-1.15-1.4-1.05q-1.55-1.35-2.35-3.2-.8-1.95-.6-3.9.1-1.1.7-2.75l1.05-2.15.5-.65-.6-.95q-.15-.4-.15-1.35 0-1.25.15-1.85l.95-2 .4-1.1q.2-.7.5-1.1.45-.55 1.25-.7.7-.1 1.35.4l.8 1 1 1.9.75 1 6.8-.2.35-.35q1.15-.95 2.4-2.65.75-1.15 1.3-1.4.5-.2 1 0l.8.6.35 1.25.5 1.75.4 1.75.1 1.25.1.85-.05.75.1.7.1 1v.25q.35 1.4.35 3.15m-4.2 3.2q.9-.45 1.45-1.5.5-1 .45-2.1-.1-1.6-1.05-2.5-.85-.85-2.35-.95-1.25-.05-2.35.65-1.15.75-1.6 1.85-.45 1.2-.05 2.45.35 1.3 1.4 1.95.9.5 1.95.6 1.3.1 2.15-.45m-.8-2.7-.25-.35q-.25-.4-.05-.85.25-.55.75-.45l.05-.05.65.3.2.7-.45.75zm-7.15-.3q.1-1.25-.65-2.3-.8-1.05-2-1.35-1.6-.35-3.2.65-1.85 1.15-2 3-.1 1.3.75 2.4t2.1 1.35l2.35-.25q1.2-.45 1.9-1.45t.75-2.05m-1.75 6.1-.55-.7-.6-.5q-.65-.1-.85.8-.1.75.35 1.4t1.2.9q1.4.45 2.85-.6l.4-.2.4.25q.7.65 1.75.65 1 .05 1.75-.55.7-.5.7-1.15l-.15-.7-.6-.35-.65.1-.65.35-.7.15-.5-.35-.05-.55-.55-.5-.85.1-.65.5-.55.6q-.85.75-1.5.35M31 14l.2-.05.05-.05.65.3q.5.5.15 1.05-.35.6-1 .45-.6-.15-.7-.85 0-.7.65-.85"/><path fill="#fff" d="M44.25 17.95q-.85.55-2.15.45-1.05-.1-1.95-.6-1.05-.65-1.4-1.95-.4-1.25.05-2.45.45-1.1 1.6-1.85 1.1-.7 2.35-.65 1.5.1 2.35.95.95.9 1.05 2.5.05 1.1-.45 2.1-.55 1.05-1.45 1.5m-.8-2.7.9.05.45-.75-.2-.7-.65-.3-.05.05q-.5-.1-.75.45-.2.45.05.85zm-8.9 5.8q.65.4 1.5-.35l.55-.6.65-.5.85-.1.55.5.05.55.5.35.7-.15.65-.35.65-.1.6.35.15.7q0 .65-.7 1.15-.75.6-1.75.55-1.05 0-1.75-.65l-.4-.25-.4.2q-1.45 1.05-2.85.6-.75-.25-1.2-.9t-.35-1.4q.2-.9.85-.8l.6.5zm1.75-6.1Q36.25 16 35.55 17t-1.9 1.45l-2.35.25q-1.25-.25-2.1-1.35t-.75-2.4q.15-1.85 2-3 1.6-1 3.2-.65 1.2.3 2 1.35.75 1.05.65 2.3M31 14q-.65.15-.65.85.1.7.7.85.65.15 1-.45.35-.55-.15-1.05l-.65-.3-.05.05z"/></g></svg>