<svg xmlns="http://www.w3.org/2000/svg" xmlns:ffdec="https://www.free-decompiler.com/flash" ffdec:objectType="shape" width="68.4" height="35.05"><g fill-rule="evenodd"><path fill="#999" d="M56.65 6.7q.75-.9 1.65-1.65l1.1-.75 1.25-.1q.5.2.75.7l.05 1-.45.7q.7-.55 1.4-.3.5.25.6.8t-.4 1.05l-.9.7-3.8 2.5-.75.5q-1.85.9-2.6 1.65-.25 0-.25-.3l.2-.35.35-.3.4-.6.9-1 .9-.85.75-.7q.4-.25.75-.55l1.15-1.1.7-.75-11.1 8.1-.4-.15q-.15-.2.2-.65 2.55-2.75 5.6-5.35l1.1-1.05zm7.5 12.05q-.35-.3 0-.8l.75-.55.75-.5.25-1.15q.1-.85.65-.9.65 0 .85.9l.55.1.15.55-.2.4q-.1.2.15.7l.35.8q0 .65-.5.65l-.45-.1-.45-.15q-.3.05-.5.65l-.2.85-.35.55q-.35.15-.6-.3v-.7l.15-.85h-.75zm-34.2-5.85.8.15.5.1v-.05q1.3-1.75 2.2-3.7l.9-1.35q.9-1.15 1.35-1.25.85-.15 1.2.6l.25.7.2.65-.05.45.15.45.05.65.15 1.3.05.6 1.45-.35 5.7-.65q1.5 0 2.3.6.45.35.4.75l-.3.55-.85.55-1.2.1h-.7l-.15.85-1.1 1.5q-.7.9-1.45 2.55-.35.8-.35 1.2l.35 1.1 2.4 5q.85 1.65.35 2.55-.55.95-1.75.85l-1.95-.55q-3.8-1.6-5.85-3.05l-1-.5-.95.2q-3.45 1.4-6.45 3.4-.2 1.15-.95 1.65l-.95.15-.75-.5q-.3-.35-.15-1l-.05-.05q-.15-.25-.15-.75 0-.85.3-1.7l.2-.6.15-.75 2-5.4-.65-.25q-.55-.45-.25-1l-3.2-3.25.15-.15h-1.2q-.7 0-1.05-.3-.5-.35-.5-1.15l.3-.75q.4-.45 1.5-.45l3-.1 3 .15 1.6.2zM56.7 27.1l-6.8-2.85-.35-.35q0-.35.55-.35l1.6.25.6.15 5.1.65.85.2 3.15.9-3-1.3-2.55-.7-.5-.35-.5-.1-.45-.3q-.25-.25.05-.45l.7.05.65-.05 2.05.25.95.05 2.25.35 1.35.4 1.35.35.95.25q.6.4.6 1.1-.1.75-.75 1l-1 .05-1.8-.45-.2-.1.85.6.2.9-.35 1q-.4.45-.95.5l-.9-.15-2.7-1.2zM24.3 1.2l.55-.3.5-.05q.3.15.2.6l-.4.6-.55.6.4.8q.1.55-.3.8l-.65.05-.65-.15-.95 1q-.3.2-.5.2-.45-.05-.45-.65l.15-.8-.5-.1-.25-.45q0-.6.5-.85l.55-.25.5-.35.3-.75.15-.8q.3-.45.7-.3l.4.5zM10.1 8.75 9.15 8l-.8-.85q-.4-.85.1-1.6.6-.75 1.55-.5.3.1 1.1.9L12 7.1l1.25 2.25 1.5 2 4.2 5.4.05.45-.4-.05L16.1 15l-5.4-5.45zm-1.15.4 2.95 2.95.3.4.15.3.35.45.15.45-.2.3-.35.1-.5-.5-.7-.5-2.4-1.8-.65-.4-1.2-1-.55-.5q-.45-.8.05-1.45.65-.7 1.4-.2l.65.75zM4.2 17.5q.35.35-.05.9l-.2.4q0 .25.35.65l.45.6-.35.55-.7.2q-.6 0-.85.25l-.2.7-.2.65q-.2.25-.55.2t-.5-.3q-.1-.2-.05-.55l-.05-.55-.65.2q-.45.1-.6-.25t.1-.75l.95-1-.1-1.55q-.1-.55.2-.7l.55.05q.4.15.8.55l.25.2.3-.25.55-.35q.35-.1.55.15M3 30.4q-.65-.25-.85-.9-.15-.7.2-1.2t1.1-.7l1.35-.25 2-.5 3.4-.45 7.5-1.3.25.35-.4.35-4.95 1.6-4.85 1.75-1.15.5-1.15.3-1.2.45q-.75.2-1.25 0m12.2-1.9-8.8 3.65-1.05.35-1.05-.25q-.4-.25-.4-.8-.05-.45.3-.8.3-.25 1-.45l6.8-1.65 1.4-.15 1.35-.3.4-.05q.3.1.2.35zm18.5 5.25-.75.05-.55-.45q-.05-.5.55-.8l.9-.5q.35-.3.45-1.15.1-.9.35-1.2.25-.25.6-.25.4 0 .5.3l.05.5.1.4.55-.15.55-.05q.5.35 0 .95l-.3.5.2.4.3.35q.15.55-.5.75h-1.25l-.25.35-.45.85q-.2.4-.55.45-.45 0-.55-.5z"/><path d="m60.35 7-.7 1.05-.65.6q-.45.25-.9-.2-.35-.4-.15-1.15l.45-1.1.05-.25-.2-.15-1.2-.75q-.2-.3-.1-.7l.4-.55 1.3-.25.2-.1.1-.3.4-1.55.2-.45Q60 .5 60.7.85l.4.5-.05.6.2.4.15.2.2-.1q.5-.3.85-.35l.9.15q.4.3.3.85l-.6.8-.65.75.45.85.4.45q.25.5.1.95-.2.55-.75.55l-.6-.1-1.25-.5h-.2zM17.7 9.9q.35-.4 1.45-.7l3.15-.45h5.8l.6-.05.55-.55 1.9-2.8.15-.3 1.1-2.1 1.3-1.9Q34.55.2 35.35.2q.65 0 1.05.5l.35.3.6 1.15 1.85 5.2 9.35-.3 1.7.3q.85.6.7 1.6l-.95 1.6-1.4 2.05-2.35 3.25L43.7 19v.05q.65 1.9 1.55 3.7l1.85 3.75q1 2.2 1.15 3.95.2 1.4-.5 2.05-.7.6-1.7.35l-1.65-.8q-4.35-2.7-9.05-4.9-.95-.35-1.2-.35-.5 0-1.4.5L29.6 29q-3.55 1.95-5.85 2.75-1.7.6-3.1.8l-1.75-.15q-.95-.65-.5-2.65 1.05-4.35 4.85-10.5-4.05-4.25-5.65-6.7-.8-1.1-.35-1.8h.05q.05-.55.4-.85m3.4 2.5h-.05l4.8 4.85q.8.8.95 1.35.25.9-.9 2.6-2.45 3.7-3.9 7.8 3.8-1.3 7.55-3.6l2.4-1.35q1.35-.65 2.5-.6 1.2.05 3.3 1.15 4.45 2.15 7.1 3.95l-4.25-8.9-.35-.8q-.15-1 1.35-2.6 2.6-2.55 4.45-5.65l-7.15.35-1.75-.2q-.6-.35-.9-1.65l-.95-3.75-.2-.85-.9 1.65-1 1.7q-1.05 1.45-1.75 2.85l-.8 1.1-.7.2h-.45l-4.2.1zm38.25 18.55.25-.5.2-1 .05-.35-.3-.4-.9-.5q-.5-.4-.35-1.05.1-.65.65-.8l1.3-.15.15-2.05q.15-.55.65-.9l1.1.1.4.7.5 1.35 1.25-.35 1.25-.15.6.55v.85l-.5.6-1.35 1.25-.2.3.05.25.6 1.95q.35 1.1 0 1.6l-.6.45-.75-.05-.5-.45-1.15-1.2q-.3 1.05-.8 1.3l-1.25-.1q-.6-.5-.35-1.25M5.6 7l-.25-.2q-.6-.3-.8-1.1-.1-.75.5-1.25l.85-.4.65-.2.2-.15v-.25l.15-.6.25-1.05q.1-.6.35-.9.4-.6 1.1-.5t.95.8l.1.85.1.8 1.3-.2q.7 0 1.1.55.45.7-.1 1.5L10.8 5.8l.25 1.05.25.65.05.8.15.65q.05.5-.3.85-.35.4-.85.4-.6 0-1.25-.55l-1.05-.9-.5.65-.65.45-.85-.15-.55-.65q-.3-.8.05-1.75zM2.55 30.85l-.6-.35q-.5-.5-.1-1.15l.45-.4.8-.35.25-.05.05-.2.05-.65.1-.8q.25-.45 1.05-.45l.4.05.35.4.35.45.95-.35q.6 0 .9.3.3.4.15.95l-.5.8-.25.35.15.25.85 1.25.45 1.35q.1.85-.5 1.05l-1.05-.2-.65-.35-.3-.2-.5-.05-.15.2-.35.9q-.45.45-.85.3-.5-.1-.65-.65l-.05-.9v-1.1l-.2-.15z"/></g></svg>