<svg xmlns="http://www.w3.org/2000/svg" xmlns:ffdec="https://www.free-decompiler.com/flash" ffdec:objectType="shape" width="74.75" height="40.7"><path fill="#999" fill-rule="evenodd" d="m43.55 29.6.25-.1q1.1-.5 2-.7l2.15-.15 1.75.1 6.3.8 1.2-.05 4.75-.9 2.9-.1 2.85-.05 2.4-.25 2.4.05q1.35.3 1.75 1.15l.1.2h.35v10.55H.25v-9l-.2-.5q-.1-.5.2-.95v-.1H.3l.25-.3 1.35-.7 4.7-.3 4.8.95 2.45.35h.65l2.05-.25 6.1-1.1 2.1-.2q1.25.2 1.8 1l.25.55z"/><path ffdec:has-small-stroke="true" ffdec:original-stroke-width=".1" fill="none" stroke="#666" stroke-linecap="round" stroke-linejoin="round" d="M74.35 29.6h.35v10.55H.25v-9m0-1.45v-.1H.3m13.65 0h.55m12.3 0h16.75"/><path fill-rule="evenodd" d="m46.8 19.1-.15.3q-1.2 2.2-3.35 3.6l.1 1.5q0 .6.15.8l.65.4 1.3.8q2.1-2.8 4.5-4.3 2.9-1.8 6.2-2.1l2.7.2q2.25.7 3.8 3.7 1 1.75 1.55 4.1l.3 1.65.35-.05q1.65 0 3 .5.9.3 1.5.8l.1.1 1.65.05q1.3.25 2.1 1.05.45.45.55 1.1.15.65-.1 1.15l-1.1.95-1.45.4-1.15.15h-.05l-1.15.35-.3.05-.55.7-1.2.6-5.25.4-1.1-.65-.15-.25H58.2l-1.7-.4q-.85-.5-.85-1.35l-.3-.05-1.2-.25q-.6-.25-.9-.75-.2-.45 0-1.05.2-.55.65-.9.6-.45 2.1-.75l1.4-.25.25-.05q.3-.5.95-.7l1.4-.3 2.1-.3-.2-1.1-.7-2.25q-1.15-2.9-2.95-3.8l-4.05-.1q-2.7.7-4.95 2.3-1.6 1.15-2.8 2.65l.2.5.3 1.3.15 1.85q-.15 1.75-2.45 3.85.45.65.3 1.5-.1.85-.75 1.35-.8.65-2.75.55l-.85-.05-.15.25q-.6 1.15-1.25 1.45l-1.8.2-1.05-.2-.65.4h-2.5q-1.15-.4-1.6-1.1h-.15l-1.3.35-1.55.2q-1.25 0-1.8-.4l-.8-.8q-.4-.5-.45-.9-.15-.85.5-1.6L24.8 34.8l-.6-1.25q-2.25.7-3.45 1.4l-2.1 1.5.85-.15 1.7-.1q.9.05 1.7.5.8.5 1.05 1.3.4 1.4-.7 2.4l-.35.3h-6.5l-.9-.4-1.05-.8q-.35-.5-.35-1.55 0-1.45.15-1.9l.75-1.3q1.4-1.8 4-3.1 1.55-.75 4.85-1.75l.65-.15q.15-.45.45-.85.85-1.2 2.05-1.85l1.05-.9.15-.8.3-1.05.55-1.15-1.4-1.05q-1.45-1.3-2.25-3zm3.6-1.95q.4.1.65.55l.15.85-.8.95q-2.15 1.75-2.9 3.35l-.35.6-.6.25q-.45-.15-.45-.65l.2-.75.7-1.55 1.6-2.65q.95-1.15 1.8-.95m4.3-1.5-.2-.65.15-.6q.3-.5.75-.45l.15-.05q.85.1 1 .85.15.85-.6 1.2-.7.35-1.25-.3m-5.75 11.1 1.6-1.05 1.35-.7 2.65-.35.95.05q.55.15 1.05.55l.75 1 .05.65q-.2 1.1-1.05 1.45l-1.25-.05-1.15-.6-1.15-.75-.3-.15h-.4l-1.6.4-.45.35-.6.45-.55.1-.45-.3q-.15-.35.1-.6zm1.3 4.3.1.5-.05.55-.3.35-.45.35-.8-.05-.7-.5q-.45-.8.15-1.45.7-.6 1.45-.25z"/><path fill="#999" fill-rule="evenodd" d="m25.4 19.1-.1-.2q-.8-1.95-.6-3.9.1-1.1.7-2.75l1.05-2.15.5-.65-.6-.95q-.15-.4-.15-1.35 0-1.25.15-1.85l.95-2 .4-1.1q.2-.7.5-1.1.45-.55 1.25-.7.7-.1 1.35.4l.8 1 1 1.9.75 1 6.8-.2.35-.35q1.15-.95 2.4-2.65.75-1.15 1.3-1.4.5-.2 1 0l.8.6.35 1.25.5 1.75.4 1.75.1 1.25.1.85-.05.75.1.7.1 1v.25q.35 1.4.35 3.15.1 3.3-1.15 5.7zm19.35-2.6 1.45-.25q.75-.4 1-1.1t-.05-1.5q-.3-.75-1-1.1l-1.45-.15q-.8.2-1.25.8t-.35 1.4q.05.8.6 1.35.45.45 1.05.55m-6.8-.65-.35-.9v-.6l-.25-.65-.7-.05-.25.85-.2.85-.2.45v.1l-.25.2-1.1 1.3q-.3.4-.25.7.1.45.45.45l.65-.2 1.05-.6.45-.15 1 .7 1.15.45q.85 0 .85-.7 0-.4-.35-.65l-.65-.45q-.55-.55-.85-.6l-.15-.2zm-7.2-1.5q-.1-.7-.7-1.25-.55-.55-1.3-.6t-1.4.4-.85 1.15.05 1.45q.3.7.95 1.1l1.65.2 1.25-.9q.45-.65.35-1.55"/><path fill="#fff" fill-rule="evenodd" d="M44.75 16.5q-.6-.1-1.05-.55-.55-.55-.6-1.35-.1-.8.35-1.4t1.25-.8l1.45.15q.7.35 1 1.1.3.8.05 1.5t-1 1.1zm-14-2.15q.1.9-.35 1.55l-1.25.9-1.65-.2q-.65-.4-.95-1.1-.25-.75-.05-1.45t.85-1.15 1.4-.4 1.3.6q.6.55.7 1.25m7.2 1.5.05.3.15.2q.3.05.85.6l.65.45q.35.25.35.65 0 .7-.85.7L38 18.3l-1-.7-.45.15-1.05.6-.65.2q-.35 0-.45-.45-.05-.3.25-.7l1.1-1.3.25-.2v-.1l.2-.45.2-.85.25-.85.7.05.25.65v.6z"/></svg>