<svg xmlns="http://www.w3.org/2000/svg" xmlns:ffdec="https://www.free-decompiler.com/flash" ffdec:objectType="shape" width="76.5" height="41.45"><g fill-rule="evenodd"><path fill="#fff" d="M.2 26.05q-.35-1-.15-2.05l.15-.6.8-1.35q.7-.75 2.4-1.45l2.8-1.1 2.7-1.35 5.3-3.95q3.3-2.35 6.05-2.1 2.85.15 5.8 3.2.3.05.6.25l.95 1.1.9 1.5 1 1.25q1.5 1.85 2.85 2.85l1.15.85 1.05.9q.45.45.15.75l-.65.05-2.95-1.15-.35-.2v.1q.25 1.75-.3 3.45l-.5 1.3.9-.3.7.1q.45.3.1 1.05-.7 1.8-2 2.4l-1.6.2-.25-.05-.8.65-.7.35-1.25.45-1 .05-2.05-.35-.15-.05-1-.5-.45-.4-.35.25-1.65 1.15-2.9.25-.55-.1-1.05-.75-.5-.75v-.2l-.55.35-1.1.4-1.2.05-1.15.05-.95-.3q-.35-.05-.65-.3l-.65-.7-.2-.45-.1-1.25.1-.25-3.5-.25q-2.35-.75-3.2-2.9zm75.6-3.6q.5.65.65 1.55.2 1.15-.2 2.2l-.45.9q-.9 1.4-2.75 2l-3.5.25.1.25-.1 1.25-.2.45-.65.7-.65.3-.95.3-1.15-.05-1.2-.05-1.1-.4-.55-.35v.2l-.5.75q-.55.55-1.05.75l-.55.1-2.9-.25-1.65-1.15-.35-.25-.45.4-1 .5-.15.05-2.05.35-1-.05-1.25-.45-.7-.35-.8-.65-.25.05-1.6-.2q-1.3-.6-2-2.4-.35-.75.1-1.05l.7-.1.9.3-.5-1.3q-.55-1.7-.3-3.45v-.1l-.35.2-2.95 1.15-.65-.05q-.3-.3.15-.75l1.05-.9 1.15-.85L47 19.4l1-1.25.9-1.5.95-1.1q.3-.2.6-.25 2.95-3.05 5.8-3.2 2.75-.25 6.05 2.1l5.3 3.95 2.7 1.35 2.8 1.1q1.7.7 2.4 1.45z"/><path fill="#999" d="M.2 23.4V.15h75.6v22.3l-.3-.4q-.7-.75-2.4-1.45l-2.8-1.1-2.7-1.35-5.3-3.95q-3.3-2.35-6.05-2.1-2.85.15-5.8 3.2-.3.05-.6.25l-.95 1.1-.9 1.5-1 1.25-2.85 2.85-1.15.85-1.05.9q-.45.45-.15.75l.65.05 2.95-1.15.35-.2v.1q-.25 1.75.3 3.45l.5 1.3-.9-.3-.7.1q-.45.3-.1 1.05.7 1.8 2 2.4l1.6.2.25-.05.8.65.7.35 1.25.45 1 .05 2.05-.35.15-.05 1-.5.45-.4.35.25 1.65 1.15 2.9.25.55-.1q.5-.2 1.05-.75l.5-.75v-.2l.55.35 1.1.4 1.2.05 1.15.05.95-.3.65-.3.65-.7.2-.45.1-1.25-.1-.25 3.5-.25q1.85-.6 2.75-2v14.25H.2v-15.3l.05.15q.85 2.15 3.2 2.9l3.5.25-.1.25.1 1.25.2.45.65.7q.3.25.65.3l.95.3 1.15-.05 1.2-.05 1.1-.4.55-.35v.2l.5.75 1.05.75.55.1 2.9-.25 1.65-1.15.35-.25.45.4 1 .5.15.05 2.05.35 1-.05 1.25-.45.7-.35.8-.65.25.05 1.6-.2q1.3-.6 2-2.4.35-.75-.1-1.05l-.7-.1-.9.3.5-1.3q.55-1.7.3-3.45v-.1l.35.2 2.95 1.15.65-.05q.3-.3-.15-.75l-1.05-.9-1.15-.85q-1.35-1-2.85-2.85l-1-1.25-.9-1.5-.95-1.1q-.3-.2-.6-.25-2.95-3.05-5.8-3.2-2.75-.25-6.05 2.1l-5.3 3.95-2.7 1.35-2.8 1.1q-1.7.7-2.4 1.45z"/><path d="M24.75 19.25q-.05-.95.35-2.75l.1-.35q-1.75-2.4-2.3-5.45-.2-.8 0-1.35.25-1.15 1.35-1.45l1-.1 5.45.3.3.05q1.5-.9 3.85-1.45l2.9-.45h1v.05l2.9.4q2.35.55 3.85 1.45l.3-.05 5.45-.3 1 .1q1.1.3 1.35 1.45.2.55 0 1.35-.55 3.05-2.3 5.45l.1.35.35 2.75-.05.4q0 1.85-.7 3.3l-.55.95 2.25-.35q2.6-.2 5.25 0L60 24q.95.35 1.6 1.25.65.85.8 1.85.1 1-.35 2-.5.95-1.4 1.45l-3.4.45-6-.55-4.4-.45 1.05 4.05 1.1 7.3v.1H27.55v-.1l.15-1.5q-1.45-.15-3.6.75l-1.7.75-.15.05-.1.05h-5.9l-.15-.1-.8-.55q-1.05-.9-1.45-2.2-.45-1.35-.1-2.6.35-.95.8-1.6.75-1 1.4-1.5.95-.75 2.45-1.1l2.3.1q1.25.35 1.7 1.4.45 1.1-.1 2.2-.45.95-1.55 1.55l-1.25.55-.1.05q.7.05 2-.5L24.3 36q2.45-.75 4.05-.55l.25-1.4q.45-2.15 1.05-4.05l-4.4.45-6 .55-3.4-.45q-.9-.5-1.4-1.45-.45-1-.35-2 .15-1 .8-1.85.65-.9 1.6-1.25l2.05-.45q2.65-.2 5.25 0l2.25.35-.55-.95q-.7-1.45-.7-3.3zm12.7 2.9q-1.2 1-2.15 1.25H34q-1.2-.1-1.7-.85l-.35-.6q-.3-.4-.65-.2-.3.15-.2.85l.45 1.2q.7 1 2.65 1.3l1 .05q1.25-.05 3.05-1.35l.3-.15.45.1 1.15.55 2.3.05q1.15-.35 1.95-1.2l.35-.7q0-.55-.7-.65-.5 0-.95.3l-.9.45q-1 .4-2.3-.35-1.15-.55-1.55-.5-.3.05-.9.45M44.3 17q-.7.8-.45 1.65.1.65.65 1.1.5.45 1.15.45l1.2-.4.75-1.05q.15-.6-.1-1.25l-.85-.95-1.25-.15q-.7.1-1.1.6m11.8 3.45.3.2 1.4.35.9-.4.35-.5.35-.4.05-.55-.05-.55-.3-.45-.5-.5-.4-.05-1.05-.05-1.45.25q-.45.3-.75.75l-.7 1.2q-.25.65-.15 1l.65.85.1.55-.35.4h-.6q-.75-.25-1.1-1l-.1-.55q-.15-.85.15-1.6l.2-.4.25-.65q.95-1.4 1.9-1.9l2.2-.3 1.2.1q.9.3 1.6 1.25l.3.55.15 1.1-.05.75-.4 1.1-1.2 1.2q-.9.5-1.9.25l-1.7-.9-.35-.45q-.15-.3-.05-1.25.2-.85.55-1.2.45-.4 1.45-.3.85 0 1.15.35l.15.35-.05.95q-.3.5-.85.4-.45-.1-.35-.45l.2-.6q-.55-.15-1.05.25l-.05.55zm-25.85-.2q1.15.5 2.05-.5.4-.4.45-1l-.2-1.1q-.6-1.15-1.9-1T29.1 18.1q-.15.7.2 1.3.3.65.95.85m-9.3-.6.25-.65-.05-.45q-.1-.2-.6-.2l-.45.05-.25.1-.7.8-.3.4-.25.05-.2-.05-.4-.25-.05-.45.05-.1-.45-.45-.25-.05h-1.15q-.55.1-.9.6l-.2.45.15.5.4.3.5.15.4.05 1.5.5.35.25.15.2.1-.15.6-.5zm-1.7-2.35.2-.05q.55-.45 1.2-.55l1.25.4.3.25.25.35.25.7-.05.8-.1.4-.35.65-.2.3-.25.2-.1.2-.2.1-2.55 1.85-.25.25-.75.1-.7-.75-.9-.35-1.8-.5q-.2-.2-.35-.25l-.3-.2-.25-.4-.1-.5.05-1.05.4-1.1.9-.8q.45-.15.85-.35l.85-.15 1.4.2.5.2.35.35z"/><path fill="#999" d="m20.95 19.65-1.75 1.1-.6.5-.1.15-.15-.2-.35-.25-1.5-.5-.4-.05-.5-.15-.4-.3-.15-.5.2-.45q.35-.5.9-.6h1.15l.25.05.45.45-.05.1.05.45.4.25.2.05.25-.05.3-.4.7-.8.25-.1.45-.05q.5 0 .6.2l.05.45z"/><path fill="#fff" d="M31.15 2.2q1.35-.95 2.9-1.25l1.55-.2 1.6-.5L39.45 0l5.1.75q1 .35 1.5.8.8.65.75 1.5-.05.8-.85 1.4l-1.6.6-4.9.5-4.6-.05-3.25-.55-.9-.5q-.45-.45-.45-.95.05-.65.9-1.3M58.1 7.3l-.1-.55q0-.5.4-.85.4-.4.9-.35t.85.45q.3.4.25.9l-.25.75-1.35 2.75-.3.4q-.2.2-.4 0zm6 6.9q-.15-.1-.15-.45l.15-.25q0-.05.25-.15l1.15-.65.6-.2.8.1q.5.25.4.85t-.65.7h-1.2l-.9.1zm-2.45-2.65-.25-.4.1-.4q.3-.7 1.3-1.9l.65-.55q.55-.25 1 .2.4.4.25.95l-.65.95-1.9 1.1zM42.75 3.1l1.15-.25-.4-.15-2.35-.55-1.4-.05-3.65.2q-2.15.2-3.2 1l4.8.2.95-.05 2-.2zM44.3 17q.4-.5 1.1-.6l1.25.15.85.95q.25.65.1 1.25l-.75 1.05-1.2.4q-.65 0-1.15-.45-.55-.45-.65-1.1-.25-.85.45-1.65m-6.85 5.15q.6-.4.9-.45.4-.05 1.55.5 1.3.75 2.3.35l.9-.45q.45-.3.95-.3.7.1.7.65l-.35.7q-.8.85-1.95 1.2l-2.3-.05-1.15-.55-.45-.1-.3.15q-1.8 1.3-3.05 1.35l-1-.05q-1.95-.3-2.65-1.3l-.45-1.2q-.1-.7.2-.85.35-.2.65.2l.35.6q.5.75 1.7.85h1.3q.95-.25 2.15-1.25m-7.2-1.9q-.65-.2-.95-.85-.35-.6-.2-1.3.25-1.3 1.55-1.45t1.9 1l.2 1.1q-.05.6-.45 1-.9 1-2.05.5M18.6 7.5V11q-.2.2-.4 0l-.3-.4-1.35-2.75-.25-.75q-.05-.5.25-.9.35-.4.85-.45t.9.35q.4.35.4.85zm-3.55 4.25-.5-.05-1.9-1.1-.65-.95q-.15-.55.25-.95.45-.45 1-.2l.65.55 1.3 1.9.1.4zM12.6 14.4l-.45.05-.9-.1h-1.2q-.55-.1-.65-.7t.4-.85l.8-.1.6.2 1.15.65.25.15.15.25z"/></g></svg>