<svg xmlns="http://www.w3.org/2000/svg" xmlns:ffdec="https://www.free-decompiler.com/flash" ffdec:objectType="shape" width="71.85" height="41.95"><g fill-rule="evenodd"><path fill="#999" d="m64.7 14.75-1.25 1.8-.75.35q-.45.05-.8-.3-.25-.25-.35-.75l-.05-.65.15-2.25.85-3.1q.4-1 1.5-1.25 1.15-.2 1.85.6.85.85.5 1.9l-.2.6zm-1.85 5.7q-.6.85-1.55.85-.9 0-1.5-.75t-.35-1.6q.35-1.25 1.5-1.4 1.25-.15 1.9.85.7 1.05 0 2.05M47.6 35.8q1.6.4 2.85 1.55 1.7 1.7.85 3.05-.4.75-1.5.95l-1.85-.1q-2.3-.3-3.3-.9-2-1.25-2.65-4.55-.8-4.35 1.25-8.35 2.15-4 6.15-5.8 4.15-1.9 8.2-.6 2.05.65 3.65 2.05 1.6 1.5 2.35 3.4.55 1.45.2 2.35l-.75.95-1.1.15-1.05-.85-1.45-1.6q-1.65-1.55-4.05-1.8t-4.35.85q-1.5.85-2.5 2.35-1 1.45-1.35 3.2-.5 2.15.4 3.7M26.05 16.15l-4.6.4-2.25.65q-2.85.95-5.85 2.5Q10.7 21.1 6.5 24l-.35.15-.35-.2.2-.35 2.35-2.35q4.45-4.25 6.35-5.6 3.9-2.8 7.65-3.4l4.05.25q.85.25 1.35.75.7.7.45 1.5-.25 1.1-2.15 1.4m-2.75 6-.6.95 1.4.2q1.15.5.9 1.5-.05.55-1 1.2l-3.3 1.55.85.05 1.05.05-.25.2-.3.75q-.4 1.05-1.55 1.95l-2.2 1.25q-3.2 1.65-6.4 3.95-1.65 1.2-2.6 2.3L8.05 39.3l-.45.05-.1-.3q-.05-.55.4-1.15l.8-1.05.75-1.2.7-1.2q1.55-2.55 4.75-4.75l.4-.2-.35.1q-1.75.85-4.95 3.3l-2.35 1.95-2 2L4.1 38.5l-.65.15-.05-.4q1-4.35 6.45-9.8l1.3-1.2q-2.6 1.85-5.1 4.85-3.75 4.3-4.9 7.85-.2.75-.65.75-.6-.05-.5-1.05.75-8.15 8.55-15.35 2.55-2.3 4.6-3.25 2.4-1.1 5.95-1.45 1.95-.3 3 .3.65.3 1 .95.4.65.2 1.3"/><path d="M39.7 9.8q1 .85 1.85 2.4l.05.05q.9-.65 2.35-.8 1.8-.2 2.85.6.55.35 1 1.05.9 1.25 1.3 2.55.4 1.15.25 2.05l-.5 1.25-1.8 2.25q-1.15 1-2.55 1.3h-2.15q-.9 2.2-2.75 3.7-1.75 1.5-4.2 2.1l-.2.05-.35.1-2.7.2-4.8-.8-.65-.25-.35 1.2q-.5 2.2-1.1 3.2-.9 1.4-2.6 2.2-1.6.7-3.5.8-3.9.2-6.15-2.2-.95-1-1.45-2.4l-1.1-1.35Q9.35 27.5 8.9 26.2q-.65-1.6-.65-4.15l.3-2.45q.4-1.95 1.7-3.65 1.25-1.7 3.1-2.75.95-.55 1.15-.85.65-.6.55-1.7L14.5 8.9q-.4-.75 0-1.1t1.1.35q1.1 1.4 1.25 2.85.15.85-.2 1.8-.3.95-1.25 2l-1.7 1.7q-1.3 1.35-1.7 3.05l-.1 2.55.2 1.2q1.2-2.55 3.95-4.7 2-1.6 3.95-2.3l1.2-.35q.15-1.1.45-1.9 1.05-3.2 4-4.95-.65-.9-.85-1.85l-.1-1.85q0-.9.3-1.7l.75-1.15q1.2-1.35 3.05-2 1.8-.65 3.7-.5l1.3.25 1.35.75 1.2 1q.6.65.9 1.75.35 1.6-.1 2.95l-.6 1.2.45.15q1.05.45 1.75 1.05.6.35.95.65m8.1 16.1.2-.15.7-.45-.2-.5q-.6-1.7.2-3.5.3-.65.75-1.2l.85-.95q.4-.4 1.1-.75 1.85-1 3.7-.4 2.05.6 2.6 2.55l.2 1.1q.05 1.45-.35 2.6h.05q2.4.75 4.1 2.1l.05-.1q1.35-1.9 3.6-2.3l2 .05q1.55.3 2.5.9 1.3.85 1.7 2.05.45 1.05.25 2.45l-.8 2.35-1.55 2.05q-.4.35-1.6.8l-1.9.45-.75.05q-.1 1.9-.4 2.9-.6 2.2-2.6 3.8l-.2.15H47.95l-.7-.35-.55.35h-5.95l.6-.8q1.25-1.45 3.1-2.2l-.55-1.4q-.35-1.1-.25-3 .1-2.15.6-3.65l.25-.6q.35.85 1.35 1.35l1.55.35q1.5 0 2.45-1.2t.55-2.7l-.15-.4-.4-.75-.25-.35q-.6-.65-1.8-.7m-31.9-3.55q-.65.25-.75 1.25v.55l-.35.05q-.75.2-1.1.55-.3.4-.2.95.05.55.5.8l.95.25.1.8q.3.55 1 .55.65 0 .95-.55l.1-1.35.75-.1.9-.3q.65-.4.55-1.15-.1-.7-.8-.95l-1.45.2.05-.5-.3-.85q-.35-.45-.9-.2m15.35 1.1q.3-1.45-.4-2.5l-1.7 2.25.5.85.25.9.3-.1.85-.8zm-8.1-2.4.05.5 1.1-.15-.15-2.4q-.65.5-.9 1.25zM28.5 19l-.3-.1-.25.75-.35 2.05-.05.25.65.35 1.85-2.15-.45-.4zm-1.9-.6-1.5.1.15 2.95 1.15.15v-.15l.15-1 .6-1.75.1-.15zm4-1.35-.6-.2-.4-.2q-.25-.25-.05-.6.15-.25.5-.45-.15.45.25.75.45.25.8 0l.35-.4.15-1.1q-.1-.6-.6-.9l-.75-.2-.9.1-.6.55q-.5.6-.75 1.45-.25.7-.1 1.3l.4.85 1.25 1 1.6.15 1-.4.25-.15.75-.45.6-.6.3-.6.45-1.45v-2.7l-.2-.55q-.4-.7-1-1.05l-.85-.6-.7-.4q-1.2-.5-3 .25-1.4.5-2.15 1.35-1 1.2-.55 2.4l.2.35.65.05.3-.4.95-.7q1.35-.9 2.25-1.1l.5-.05.4.3.8.35.3.4.25.85V15l-.15.45-.05.2q-.35.8-1.1 1.25zM50.5 35.8l.05-.35-.05-.45v-.65l-.25-.6-.55-.05-.45.35-.15.3-.4.4h-.15q-1.25 0-2 1.05-.7 1.15-.05 2.25.4.75 1.3 1.1.9.25 1.75 0l.9-.55.45-1q.25-1-.4-1.8m4.1-4.45-.55.45-.75.85q-.65.9-.45 2.45.25 1.85 1.55 2.65l.75.35 1.8.3q1.95-.1 2.9-2l.3-.65-.3-.3-.7-1-.4-.9-.1-.4q-.35-.9-.1-2l-.3-.15-1.9-.3q-1 .1-1.75.65m-13.85-8.8.1-1.4-.1-.95-.2-.5-.25.05-2.65.9-1.05.25-.75-.05q-1.05-.1-1.75-.65l-.35-.3-.45.7q-.4.8-.4 1.6l1.05.1.6.35.4.35.55.45.45.55.7 1.45.6-.05q1.55-.15 2.7-1.45z"/><path fill="#fff" d="m44.5 30.3-.15-.5-.05-.55q0-.75.3-1.45l.6-.8q.6-.8 1.35-1.05l1.15-.05h.1q1.2.05 1.8.7l.25.35.4.75.15.4q.4 1.5-.55 2.7T47.4 32l-1.55-.35q-1-.5-1.35-1.35m-3.75-7.75-.8 1.4q-1.15 1.3-2.7 1.45l-.6.05-.7-1.45-.45-.55-.55-.45-.4-.35-.6-.35-1.05-.1q0-.8.4-1.6l.45-.7.35.3q.7.55 1.75.65l.75.05 1.05-.25 2.65-.9.25-.05.2.5.1.95zm13.85 8.8q.75-.55 1.75-.65l1.9.3.3.15q-.25 1.1.1 2l.1.4.4.9.7 1 .3.3-.3.65q-.95 1.9-2.9 2l-1.8-.3-.75-.35q-1.3-.8-1.55-2.65-.2-1.55.45-2.45l.75-.85zm-4.1 4.45q.65.8.4 1.8l-.45 1-.9.55q-.85.25-1.75 0-.9-.35-1.3-1.1-.65-1.1.05-2.25.75-1.05 2-1.05h.15l.4-.4.15-.3.45-.35.55.05.25.6V35l.05.45zM30.6 17.05l.75-.15q.75-.45 1.1-1.25l.05-.2.15-.45v-.75l-.25-.85-.3-.4-.8-.35-.4-.3-.5.05q-.9.2-2.25 1.1l-.95.7-.3.4-.65-.05-.2-.35q-.45-1.2.55-2.4.75-.85 2.15-1.35 1.8-.75 3-.25l.7.4.85.6q.6.35 1 1.05l.2.55v2.7l-.45 1.45-.3.6-.6.6-.75.45-.25.15-1 .4-1.6-.15-1.25-1-.4-.85q-.15-.6.1-1.3.25-.85.75-1.45l.6-.55.9-.1.75.2q.5.3.6.9l-.15 1.1-.35.4q-.35.25-.8 0-.4-.3-.25-.75-.35.2-.5.45-.2.35.05.6l.4.2zm-4 1.35.65.15-.1.15-.6 1.75-.15 1v.15l-1.15-.15-.15-2.95zm1.9.6 1.1.75.45.4-1.85 2.15-.65-.35.05-.25.35-2.05.25-.75zm-5.35 2.05.1-.8q.25-.75.9-1.25l.15 2.4-1.1.15zm8.1 2.4-.2.6-.85.8-.3.1-.25-.9-.5-.85 1.7-2.25q.7 1.05.4 2.5m-15.35-1.1q.55-.25.9.2l.3.85-.05.5 1.45-.2q.7.25.8.95.1.75-.55 1.15l-.9.3-.75.1-.1 1.35q-.3.55-.95.55-.7 0-1-.55l-.1-.8-.95-.25q-.45-.25-.5-.8-.1-.55.2-.95.35-.35 1.1-.55l.35-.05v-.55q.1-1 .75-1.25"/></g></svg>