<svg xmlns="http://www.w3.org/2000/svg" xmlns:ffdec="https://www.free-decompiler.com/flash" ffdec:objectType="shape" width="69.75" height="43.8"><g fill-rule="evenodd"><path fill="#999" d="m7 4.6-.75.8-.95.6-1.9.7q-1.25.6-2.35-.2Q-.1 5.75 0 4.4q.15-1 1.05-1.75l.9-.65.7-.7.7-.7q.9-.75 2.2-.6 1.35.25 1.8 1.4.4.75.1 2-.05.7-.45 1.2m49.55 10.75-1.3.75-.8 2.05q-.9 1.45-2.15 1.85l-1.8.3-.2.4-1.1 1.75-.6.7q-.6.45-1.2 0-.6-.5-.35-1.2l-.05-.2v-.05l-.25.1-1.6.35-.65-.15q-.55-.3-.45-1.15.1-.55.65-1.15l1.35-1.3.7-.85.05-.05v-.1l.05-1.15.05-.45h-1.05l-.9-.3-.75-.75-.4-1 .05-.2-.65-.15q-1.05-.15-1.7-.5l-.85-.6-.85-.95q-.35-.65-.15-1.4.15-.75.7-1.15.5-.3 1.95-.55 2.2-.35 4.2-1.2l1.55-.55 1.6.1q.65.4 1.3 1.9l.55 1.4q.65-.65 1.4-.95l2.15-.15.9.25q.7.25 1.2.9l.1-.05 1.15-.2 1.15.1q.65.3.65.9-.05.6-.7.95l-.95.45.85.1q.95.2 1.1.7.25.65-.6 1.05l-1.3.25-1.35.35zM55.5 11.8l-.95-.25q-.7-.4-.75-1v-.1l-.3.25q-.3.3-.3.8 0 .45.3.8.45.5 1.15.35t.85-.85m9.85 29.8-1.1-.1-.45.05-.35.4q-.75 1.2-2.2.95-1.05-.15-1.6-1-.6-.75-.5-1.85l.25-1q.4-.7 1.45-1.35l1-.55L65.8 37l.9.25q.6.2 1.6 1l.65.65.45.7q.45 1.15.35 2l-.5.9q-.4.4-.9.4l-.6-.1-1.2-.6zM37.7 32.75l.8-.8 1-.7q.45-.2 1-.3l3 .25.95.55q1.25.95 1.7 2.4.4 1.55-.25 2.9-.8 1.45-2.85 2.35l-.85.3-2 .05-.15.55-.55 1.1v.4q-.25 1.5-1.75 1.9-1.45.35-2.45-.8l-.15-.25-1.05.4q-.9.15-1.65-.5l-.25-.25-.65-.35q-.5-.5-.4-1.6 0-1.05.4-2.15l1-2.45.5-.9q.4-.4 1-.55l1.1.1q1.05.45 1.15 1.65l.35-.2.1-.8q.25-1.5.95-2.3M26.25 13.3q-1.2 1-3.15 1-1.3 0-2.45-.6-1.3-.8-1.65-1.95l-.2-1.4q0-1.75.7-2.75.9-1.45 2.8-1.9l2.2.05q1.1.3 1.8 1.1l.45.6q.95 1.4.85 3.05-.1 1.7-1.35 2.8M9.2 21.15l.25-.45h.05q-.55-.35-.8-1-.5-1.25.5-2.2.45-.5 1.15-.55l1.25.25.8.9.4-.05q1.45-.15 2.65.8.9.7 1.55 2.4l.25.9q.1.9-.45 2.25l-.4.75q-.7 1.1-2.25 1.45l-2.05-.1-.75 4.75-.45 1.4q-.55.85-1.6.95-.9.1-1.65-.7L7 34.15l-1.25.55-1.1-.2q-.8.8-1.65.55-.55-.1-.95-.6l-.4-1.1.2-1.25q.55-2.8.7-5.35l-.05-.55-.35-.5q-.8-1-.5-2.2.35-1.25 1.6-1.6 1.2-.45 2.15.5l.6.8.7 1.95L8.15 23l.75-1zm14.65 20.5q-.45.6-1.3.85l-.5.1-.45.2-1.75-.25q-.75-.6-.85-1.55-.05-1.1 1-2.65 1-1.6 1.8-2.1l.5-.35.3-.4q1.05-1.25 1.85-1.4l1.45.15q.7.3 1.15.95l.5 1.05.45.85-.05 1.7-.1 1.75q-.15 1-.8 1.55-.7.45-1.6.3l-.5-.15h-.05q-.7-.1-1.05-.6"/><path fill="#fff" d="M55.5 11.8q-.15.7-.85.85t-1.15-.35q-.3-.35-.3-.8 0-.5.3-.8l.3-.25v.1q.05.6.75 1z"/><path d="M64.75 26.15q.85.45 2.05 2.05l1.05 2q.65 1.85-.2 4.15-.55 1.6-1.7 2.75-1.15 1.25-2.65 1.7-2.2.6-4.55-.55l-.05 1.1-.15 2.15-.3.85h-12.2l-.05-.6q.05-.6.5-1.3l.85-1.2.5-.85 1.85-3.8-.75-.15q-.85-.25-1.45-.85-.85-.8-1.15-2-.35-1.2-.05-2.3.2-.85.8-1.8.5-.85 1.1-1.4 1.15-1.15 2.85-1.05 1.6.1 2.65 1.4.6.75.85 1.95.35 1.65.15 3.6l.3-.5v-.2q.2-1.75 1.7-3.6.8-1.1 1.7-1.5l1.1-.3q.05-.6.25-.95l.2-.3.65-.5 2 .15.45.4.3.6.2.45zm-30.2-1.2q0 1.3.85 2.4l2.95.35q1.3.25 2.6.9 1.1-.4 1.7-1.3l.45-.8H43q-.95-.2-1.7-.95l-.45-.65q-1.35-1.95-1.65-3.5v-1.3l-1.65.1q-1.1.3-2 1.35l-.45.6-.35 1zm30.5 9.25.5-.5-.9-.5-.35-.5q-.5-.85-.55-1.4v-.65l.05-.4-.25-.05q-1.4.1-2 1.15-.55.9-.3 1.9l1.8.25.6.35 1.05.6zM44.6 15.45q2.6 5.75 1.8 11-.45 2.85-1.95 5.3-1.55 2.55-3.9 3.95-1.35.85-3.35 1.45-5 1.4-9.7-.15-1.35-.45-2.55-1.05l-1.45 2q-1.1 1.55-1.65 2.55l-1.35 1.85h-2.65l-4.05-1.5q1.2 1 1.25 1.5H12.3l-.2-.3-.35.3H9l-.7-.75-1.9.7q-1.1.15-1.85-.5-1.3.5-2.3-.45l-.6-1.05q-.15-.65.05-1.2l.05-.05-.15-.15-.3-.45V36.2q.6-1.1 2.3-2.25l6.75-4.35q3.8-2.25 7.15-3.45-.1-5.5.95-8.45 1.65-4.65 6.1-7.25l-.1-.45-.1-1.65.1-3.75q0-1.15.3-1.65Q25.3 1.9 26.7 2q.95.05 2.15.9l3.6 2.5 4.4 3.3q2.75.65 4.7 2.3 1.75 1.55 3.05 4.45M8.15 6.9l2.95-.3q.85.1 1.45.35.55.25.95.65 1.3 1 1.85 2.45l.2.05h1.75l1.5.1q1 .2 1.05.85l-.45.75-.75.3-.65.2-.2.05-1.35.3-.7.25-.2.9 1.05.4.5.3.55.55.35.55-.15.7-.65.25-.25-.05-.55.1h-1.1l-.3-.05-1.15.05h-.15l-.55.6-1.25.7-1.2.45H9.5l-.7-.1-.4.85-.1.35-.85 2.3-.4.65 1.2.05.95.4.3.2.15.25.05.05q.55-.45 1.75-.85l.75-.15.6.15q.3.3.1.55l-.65.25q-.45.05-1.05.55l.35.05.6.3.45.3.2.5-.7.45-.9-.05h-.9l-.2.1-.3.2-.15.3-.3.85-.2.15-.5-.3-.15-.55-.05-1 .05-.4-.15-.15-.45-.2-.65-.1-2.05.35-.05.05-1.15.85-2.2.05-.5-.25V21.8l.1-.1-.1-.05V13.7l.1-.05 1.2-.45.85-.15h.5q0-1.35.8-2.9 1.35-2.5 3.4-3.25M31.6 32.8l1.2-.3.25-.1.1.35.9 1.4q.75.75 1.55.3l.6-.65.45-.85.5-.75.65.15 1.25.4 1.15.5 1.15-.25q.45-.5-.05-1.3-.3-.35-1.1-.75l-1.6-.7-2.6-.5-2-.1-2.55.7-.8.5q-.5.55-.15 1.25t1.1.7M12.1 13.6q.45-.4.7-1l-1.3-.45-.7-.7-.45-1.15-.05-.35-.8.4q-.55.4-.75 1.05t.1 1.3l.8 1.05 1.25.35q.7-.05 1.2-.5"/><path fill="#fff" d="m65.05 34.2-.35.25-1.05-.6-.6-.35-1.8-.25q-.25-1 .3-1.9.6-1.05 2-1.15l.25.05-.05.4v.65q.05.55.55 1.4l.35.5.9.5zm-30.5-9.25.2-1.8.35-1 .45-.6q.9-1.05 2-1.35l1.65-.1v1.3q.3 1.55 1.65 3.5l.45.65q.75.75 1.7.95h.1l-.45.8q-.6.9-1.7 1.3-1.3-.65-2.6-.9l-2.95-.35q-.85-1.1-.85-2.4M12.1 13.6q-.5.45-1.2.5l-1.25-.35-.8-1.05q-.3-.65-.1-1.3t.75-1.05l.8-.4.05.35.45 1.15.7.7 1.3.45q-.25.6-.7 1m19.5 19.2q-.75 0-1.1-.7t.15-1.25l.8-.5 2.55-.7 2 .1 2.6.5 1.6.7q.8.4 1.1.75.5.8.05 1.3l-1.15.25-1.15-.5-1.25-.4-.65-.15-.5.75-.45.85-.6.65q-.8.45-1.55-.3l-.9-1.4-.1-.35-.25.1z"/></g></svg>