<svg xmlns="http://www.w3.org/2000/svg" xmlns:ffdec="https://www.free-decompiler.com/flash" ffdec:objectType="shape" width="75.6" height="35.1"><g fill-rule="evenodd"><path fill="#999" d="M64 1.75q.55-.4 1.25-.45l1.3.25.95 1 .25 1.3-.35.8-.8.35q-.8.25-1.3.65l-1.2.65-.7-.15q-.35-.25-.3-.6l-1.4-.9-1.2-1.1q-.3-.55-.2-1.4.1-.7.5-1.1.7-.6 1.7-.25zm10.6 12.9.35.05.2.1.15.1.1.1.05.1.05.1.05.1.05.1v.55l-.05.1-.05.1-.05.1-.05.1-.1.1-.2.1-.15.05-.1.05-.25.05h-1.1l-.3-.05h-3.6l-.55-.05H67.9l-1.55-.05-.4-.05h-9.7l-.9-.05-1.65-.05H3l-.9.05h-.7l-.3-.05H.7l-.3-.1-.15-.1-.1-.1L.1 16l-.1-.1v-.4l.05-.1.05-.1.1-.1.1-.15h.05l.25-.4q.2-.2.6-.3l.7-.2.95-.4 2.6-.1q1.75.3 2.45.85l.4.45 4.15-.05h12.9l.6-.25 1.65-.5 1.25-.25.9.15 2 .25 6.65-.2h1.5q.8.2 1 .8h9.15l.05-.05q.35-.25.7-.25l1.7-.15 1.7-.2 1.6-.55 1.65-.05q.75.2.95.75h2.4l1.75-.25 1.15-.7q1.7-1.05 4-1.15l1.7.25 1.2.55 1.05.05h1l.8.5.85.95.05.05zm-30.9-5.1H45l1.1.35q.55.4.7 1.15l-.15 1.35q-.5 1.2-2.1 1.65-1.65.5-2.6-.4-1.1-1.05-.4-2.55.6-1.2 2.15-1.55M60.2 23q-.75-.45-.5-1.35L60 21l-.05-.7-.15-.75q0-.95.85-1.3t1.5.3l.3.3.35-.05q.8-.1 1.25.5.45.55.2 1.3l-.45.65-.5.55-.45.75-.6.6-1.15.1zm8.35 3.5-1.25.15h-.45l-1.6.3-3.7.15-3.35-.5-.65-.45q-.3-.35-.2-.9.1-.5.5-.75.3-.2 1-.3h.05l1.4-.65 1-.15 4.8-.15q2.15.1 3 .65l.7.65.1.75-.2.7q-.4.4-1.15.5M57.9 30.25q-.1-.45.45-.65l.9.05 1.55 1.6.75 1 .4-1 1.05-1.7.65-.9 1-.05q.3.3.2.8l-.4.8q-.7 1.1-1 2.6l-.25.95q-.3.6-.8.6-.35.1-.6-.25l-.4.4-.65.15q-.6-.1-1.15-1.3L59.1 32l-.35-.7-.55-.45q-.3-.3-.3-.6M43.8 22.9l1 .2 1.05.35.65.9-.25.8-.75.5-1.05.25-.9.15-3.8-.1-.65-.1-.6-.35-.8-.15q-.5-.2-.65-.8-.1-.55.35-.9.25-.3.85-.4l1.9-.3zm24.5 9.7.45-.65.2-.4.25-.35.7-.1q.35.15.35.6l-.15.4q-.85 1.5-1.5 1.85l-.45.1-.35-.25.1-.45.15-.4zM29.85 7.8q.95.8.85 2-.15 1.2-1.2 1.85-.85.5-2 .4l-1.15-.3q-1-.45-1-1.75-.05-1.15.85-1.9.95-.85 2.15-.8.75 0 1.5.5M10.1 1.75q.75-.7 1.5-.95 1-.35 1.7.25l.5 1.1q.1.85-.2 1.4l-1.2 1.1-1.4.9q.05.35-.3.6l-.7.15-1.2-.65q-.5-.4-1.3-.65l-.8-.35q-.25-.25-.35-.8-.05-.65.25-1.3.35-.65.95-1 .55-.35 1.3-.25.7.05 1.25.45m2.65 23.85h-1.4l-.3.05h1.55zm6.8-1.35 1.35-.45q.8-.1 1.3.65.45.7-.05 1.45l-1 .7q-1.75.85-5.15 1.3l-3.45.35H7.6l-2.9-.15q-1.05-.1-1.65-.5-.9-.6-.65-1.45.2-.65 1.25-1.15.85-.4 1.8-.55l1.7-.15 8.75-.35 2.35.2zm-15.8 9.7-.55.1-.55-.35q-.15-.2-.15-.6-.15-.9-.15-1.8l.05-.5q.2-.4.55-.45.45 0 .65.3l.2.5.1.6.2.7v.75zM4.9 29.8l.35-.6q.25-.35.65-.2l.3.6-.15.65q-.1.65.25 1.7l.35 1.7-.15.9q-.25.45-.7.5-.6.15-1-.55-.2-.35-.3-1.2l-.1-1.7zm3 4-.55.2-.45-.4.2-.8.55-.95.75-.9h.25q.5 0 .5.4l-.15.4-.6.85zm23.25-14.45.9.2 1.05.2q.35.2.4.7l-.25.85q-.45.55-1.5.75l-4 .15-1.3-.35q-.7-.3-.8-1-.1-.95.95-1.35l1.75-.25zm-9 12.4v.4l.2.4-.05.9-.05.45-.35.25-.25-.2q-.6-.6-.75-1.2l-.25-1.25q-.1-.45.05-.7.2-.4.55-.35.3.05.5.45l.15.45zm7.6-3.8.1.55-.3.5-1.3 1.95-1.2 2.4-.55.65-.25.2-1.05-.05-.3-.25-.85-.1q-.4-.25-.55-.7-.25-.55-.15-1.8l.15-1.65.15-.75.6-.45q.4 0 .65.45l.15.8v.15l.2-.95.15-.55.2-.4.3-.8.95-1.65q.35-.55.65-.65.35-.1.6.15.3.15.2.6l-.2.45-.65 1.5-.25 1.1-.1.3-.15 1.3v.15l.7-.8 1.05-1.05.4-.55z"/><path d="m63.45 19.9.05-.7v-.1l-.05.05-1.35.9-1.3-.15-.65-.75-.15.2-.8.55h-.95q-.55-.2-.8-.6-.35-.6-.25-1.35.05-1.1.75-2 .7-.95 1.8-1.15l1.6-.15q1.6 0 2.3.35.65.3 1.15.85l1.15 1.2.45.85.15.95v.5l.45.05 1.45.2q.85.3.9.95l-.15.9-1.05 2.3-.65.9-.55-.15-.35-.5.05-.65.25-1.45-.95.1-.75.95-.65.6-1.05.65-.15.45-.5.7-.25.8-.5.25-.45-.15-.2-.7.05-.9h-.15l-1.15-.1-.05.1-.7.8-.95.1q-.35-.25-.5-.9-.15-.2-.05-.4l.1-.5.1-.25-.85-.95-.15-.9.05-.7q.2-.55.8-.45.25 0 .6.3l.65.3q.15-.6.9-.75.65-.15 1.4.3l.3.3h.5l.45.05.1-.1zM45.6 8.25l.05.05.55-.1.05-1.7q0-.7-.6-1.05l-1.35-.1q-.7.1-1.2.65l-.2.4q-.05.35.2.7l.45.65.15.25q1.3-.15 1.9.25m-5.85 2.15q.15-.55.95-1.3l.15-.1-.2-.4-.25-.7q-.25-.8-.2-1.2l.25-.9.55-1.05.7-.75q.85-.6 1.6-.8l2.15-.05.95.15.75.5q.9.75 1.15 2v-.05q1.25-.75 2.7-.4 1.15.35 1.9 1.25l.45.85.05.7v1q-.1 1.05-.75 1.95-.9 1.45-2 2.1l-.35 1.9q-.4 1-1.4 2.4l-.95 1.15q-1.2 1.1-4.05 1.9l-1.65.3q-1.05-.1-1.45-.65l-.4-.8-.2-2.9q0-1.35.35-2.1l.15-.2-.6-.6-.35-.75q-.15-.45-.05-1.65zm9.5-1 .55.9.15.35q.85-.75 1.25-1.9V8.1q-.05-.25-.45-.4l-.6-.25q-.3 0-.7.3-.4.4-.65.85l-.05.35zm-4.2 1.15-1.15-.35-1.2.25q-.4.3-.55.9-.3 1.05.25 1.6.35.4 1 .5h.85q1.1-.2 1.35-1.15.35-1.1-.55-1.75M31.3 7.95l.35 1.1-.05 1.05-.45 1.25-.6.7q-.6.65-1.1.9l-1.6.45-1.65-.1-1.35-.9-.65-1.15-.4-.65-.05-.2-.65.05-2.2-.35q-.75-.45-1.3-1.55l-.35-1.1q-.05-.4.2-1.15.25-1.25.55-1.75.75-1.3 2.45-1.85l3.15.1h.25l.3-.25q1.25-2 2.7-2.45l1.8-.1 1.15.1 1.05 1.05q.95 1.6.45 3.15L32.35 6l-1.3 1.4zm-.3-3.4.45-1.25q.1-.8-.4-1.25l-1.8.25-.75.7q-.7 1.15-.7 1.85l.05.75q1.35-.05 2.1.45zm-6.6 2.5.85-.8-.2-.35-.7-.5q-.45-.15-.95 0-.95.3-1.25 1.25-.15.8.3 1h.4l.95-.05.4.05zM29 10.7q.5-.55.4-1.2-.1-.75-.6-1.1-.55-.4-1.2-.25-.75.1-1.1.85t.05 1.4 1.15.75q.85.1 1.3-.45M5.6 24.2q-.15-2.8 2.7-5.25 2-1.75 4.55-2.6t5.2-.7l2.2.45q2.1.9 2.95 3.15.8 2 .2 4.3-.4 1.6-1.3 2.15l-1.45.55-4.95.3-4.9.15-2.55.2q-1.55-.2-2.2-1.2-.35-.5-.45-1.5m13.8-4.8-.85-.3-4 .3-1.2.35q-.75.25-1.65.9-2 1.35-2.6 2.9l1.8.3 1.85-.2 3.85-.25 1.2-.05 1.4-.3.85-.25.3-.5.05-.25h-.85q-.45-.15-.65-.5-.3-.5-.15-.9.15-.5.6-.75.15-.15.4-.15zm-4 1 .3.45v.8q-.35.8-1.15.7-.85-.1-1-.85-.2-.8.5-1.25.75-.35 1.35.15"/></g></svg>