<svg xmlns="http://www.w3.org/2000/svg" xmlns:ffdec="https://www.free-decompiler.com/flash" ffdec:objectType="shape" width="71.35" height="35.65"><g fill-rule="evenodd"><path fill="#999" d="M70.15 9.6q-.2.6-1 .85H67.8l-1.5.05-.8.55q-.55 0-.55-.7.05-.35.45-.85.95-1.2 1.7-1.6 1.2-.75 2.25-.2l.8.8q.25.6 0 1.1M68 15.35q1.05-.55 2.4.3.7.45.9 1.05v.8l-.45.7-1.6-.15q-.95-.65-1.5-.8l-.75-.2q-.45-.2-.3-.6l.25-.25zM54.35 4.05q-.45 0-.65-.6l-.4-.9-.65-.45q-.3-.25-.35-.7-.1-.4.1-.75.45-.8 1.35-.6.7.1 1.35 1.05l.35.8-.1.8-.25.65q-.2.75-.75.7M42.6 9.6l-.7-.1-.75.15q-.65.05-1.15-.4t-.55-1.1q-.05-.6.4-1.1.5-.55 1.1-.55l1 .2q1.25.5 1.65 1.25l.4 1.2-.1.7q-.15.35-.55.35l-.4-.25zm-5.9 7.5h1.1l1 .05.55.05h.3l.55.05.35.05.1.05.2.05.25.1.2.1.2.1.15.1.1.1.1.1.05.1.05.1.05.1.05.15.05.1v.3l-.05.1-.05.1-.05.1-.1.1-.05.1-.05.1-.15.1-.2.1-.2.1-.2.1-.15.1-.1.05h-.1l-.1.05-.35.05h-.55l-.3.05-.55.05h-5.55l-.85-.05-.9-.05h-1.9l-.7-.05-.45-.05H27.3l-.95-.05-1.7-.05-1.1-.05H21.9l-.25-.05-.5-.05h-.55l-.25-.05-.1-.05H20l-.2-.05-.25-.05h-.3l-.65-.05-.45-.05h-.2l-1.2-.05-.6-.05-1.65-.05H8.2l-.65-.05-.45-.05h-.35l-.15-.05-.2-.05h-.95l-.3-.05L5 19H4l-.15-.1h-.1l-.4-.05-.05-.1-.05-.1.1-.1.1-.1.15-.05.1-.1h1.45l.3-.05.95-.05h.2l.15-.05.35-.05h.45l.65-.05L9.8 18h6.35l.6-.05 1.2-.05h.2l.45-.05.65-.05.3-.05h.25l.2-.05.25-.05h.1l.25-.05.55-.05h.5l.25-.05 1.65-.05h1.1l1.7-.05.95-.05h1.15l.45-.05.7-.05 1.9-.05h.9l.85-.05h3.45zm11.05 11.6h.75l.45.1.2.1.15.1.15.1.1.1.05.1.1.1.05.1.05.1v.1l.05.1.05.1v.45l-.05.1-.05.1v.1l-.05.1-.05.1-.1.1-.05.1-.1.1-.15.1-.15.1-.2.1-.45.1h-.75l-4.25-.05-.3-.05h-.25l-.25-.05-.2-.05-.15-.1h-.2l-.35-.05h-5.85l-1.65.05h-6.35l-.55-.05-.4-.05h-.25l-.1-.05-.35-.05L26 31h-.7l-.2-.05-.25-.05h-2.1l-.55-.05-1.3-.05h-1.35l-.2-.05-.2-.05h-.6l-.4-.05-.15-.05h-.2l-.25.05h-1.7l-.25-.05h-.15l-.15-.05-.2-.1-.15-.1-.15-.05-.15-.05h-.05l-.25-.1v-.05l.05-.05h.2l.05-.05.25-.1.15-.1.1-.05.15-.05h.15l.15-.05.25-.05h1.7l.25.05h.2l.15-.05h.4l.6-.05.2-.05.2-.05h1.35l1.3-.05.55-.05h2.1l.25-.05.2-.05h.7l.3-.05.35-.05h.1l.25-.05.4-.05h.55L29.5 29h.15l4.65.05h7.85l.25-.1.15-.05.15-.05.25-.05h.25l.3-.05h4.25zm17.65-2.45.7.75.4.6q.25.5.05 1.05l-.75.85-1.05.05-.85-.7-.3-1.05q-.2-.65-.7-.8l-.5-.2.1-.3q.5-.7 1.65-.6.7 0 1.25.35M18.9 2.5h1.35l.3.05h.1l.15.05.15.05.25.05.2.1.15.1.15.1.1.1.1.1.1.1.05.1.05.15.05.1v.1l.05.1v.3l-.05.1-.05.1v.1l-.1.1-.05.1-.05.1-.15.1-.1.1-.15.1-.15.15-.15.05-.1.05h-.15l-.15.05-.15.05h-.1l-.3.05H18.9l-.3-.05h-.3l-.2-.05-.2-.05h-.25l-.25-.05-.15-.05h-.3l-.25-.05-.55-.05-.85-.05h-.25L14.8 5l-.6-.05h-.25l-.25-.05-.1-.05-.3-.05-.2-.05-.25-.05-.35-.05h-.25l-.2-.05-.1-.05-1.1-.05h-.8l-.25-.05-.25-.05H9.4l-.1-.05-.35-.05-.2-.05-.3-.1-.25-.1-.05-.1.1-.1.2-.05.3-.1.2-.05.35-.05.1-.05h.15l.25-.05.25-.05.8-.05h1.1l.1-.05.2-.05h.25l.35-.05.25-.05.2-.05.3-.05.1-.05.25-.05.25-.05h.6l.25-.05.25-.05h.85l.55-.05.25-.05h.3l.15-.05.25-.05h.25l.2-.05.2-.05h.6zm2.75 4.6.35.05.2.15.1.1.1.1.05.1.1.1v.1l.05.1v.3l-.05.1v.1l-.05.1-.05.1-.1.1-.15.15-.1.1-.2.05-.25.05L20.8 9l-.45-.05h-2.3l-.9-.05-1.4-.05h-2.5L10.9 8.8l-.2-.05-.9-.05H8.4l-.55-.05-.15-.05-.25-.05-.15-.05-.55-.05h-.9l-.55.05h-1l-.1-.05L4 8.4l-.25-.05-.2-.1-.15-.1-.2-.05V8l.25-.05.2-.1.25-.1.1-.05h.2l.1-.05h1l.55.05h.9l.6-.1.2-.05.15-.05h.15l.55-.05 1.4-.05h.9l.2-.05 2.35-.05h2.5l1.4-.05.9-.05 2.3-.05h1.3zm7.55 17.85h.65l.25.05.1.05h.2l.1.05.2.05.25.15.15.1.15.1.1.1.05.1.1.1v.1l.05.1v.2l-.05.1v.1l-.1.1-.05.1-.1.1-.15.1-.15.15-.25.1-.2.05-.1.05h-.2l-.1.05-.25.05H27.4l-1.75-.05-1.55-.05h-.8l-1.1-.05-1.1-.05h-1.95L18.4 27l-.45-.05h-1l-1.35-.05-.75-.05-.5-.05h-.65l-.4-.05-1.1-.05h-.8l-.3-.05-1-.05h-.9l-.7-.05-.6-.05h-.55l-.8-.05-.75-.05h-.55l-.2-.05-.45-.05H3.2l-1.4.05-.25.05H.7l-.25-.1-.15.1H.05L0 26.3v-.1l.1-.1.1-.1.25-.1.35-.1.1-.05.1.05.55.05h.25l1.4.05h1.4l.45-.05h.2l.55-.05.75-.05.8-.05h.55l.6-.05.7-.05h.9l1-.05.3-.05h.8l1.1-.05.4-.05h.65l.5-.05.75-.05h1.35l1-.05.45-.05.75-.05h1.95l1.1-.05 1.1-.05h.8l1.55-.05 1.75-.05z"/><path d="M58.35 14q-.55.2-1 .7-.4.5-.5 1.1-.1 1.35.95 2l2.2.1q.95-.55 1.05-1.55l-.15-.2-.55-.65-.2-.65-.05-.6q-.75-.55-1.75-.25m3.45 10.75q-2.9 2.65-8.05 2.55l-2.5-.3-.2-.05q.65 1.35.95 3.1l.15 1.3q-.05 1.05-.5 1.85l-.05.55q-.15.7-.7 1.25-.55.5-1.25.6-1.5.25-2.5-1.1-.85-1.25-.35-2.75l.8-1.3-.05-.2-.5-1.2-1.5-2-.4-.6-2.45-.85-.6-.05-4.95.15-.95.25q.55 1.2.75 2.5.25 1.65-.4 2.65l-1 .95q-1.85 1.4-3.85 2.5l-1 .45q-1 .25-1.7-.5l-.65-.75q-.25-.6 0-1.35.35-1 1.4-1.9.75-.6 1.7-1.05.5-.4.9-.65l-.55-1.25-3.85.95q-2.75.2-4.35-1.5l-3.75 1.3-3.05-.05-1.6-.45q-.6-.4-.95-1.35-.85-2.25-.15-4.55.35-1.4 1.35-1.8l1.1-.1q.85.1 1.25.35.9.55 1 1.8 0 .95-.5 2.05.95.15 2.4-.5l1.6-.7v-.55q.15-1.85 1.15-3.55l-.6-3.1-.7-3.5q-.8-2.65-2.65-4.6l-1.6-2q-.35-.75-.25-1.85.2-1.15.7-1.75.6-.75 1.65-1l2 .05q1.75.55 2.95 2.55.85 1.35 1.3 3.3l.65 3.6q.35 1.9.3 3.25l-.05 1q3.55-2.35 8.35-2.25l3.6.4q2.85.55 4.9 1.65l.05-.2Q44.7 12 46.7 9.9l1.15-1.05-1.25-1.2q-.5-.75-.2-1.55.2-.8 1.1-1.15l1.25-.15 3.85.45 1.7.55.75.45.2.15 1.15.25 2.9 1.25 2.5 1.45q2.15 1.65 2.9 4.15.8 2.35.2 5.5-.75 3.6-3.1 5.75m-7.25-6.9-.2-.15-.05-.6-.15-1.65v-.5l-.35-.4q-.35-.15-.6 0l-.35.5-.8 1.9h-.85q-1.05.15-1.9.85l-.6.7q-.15.5.05.9.3.45.75.3l.4-.25 1.35-.15h.85l.55.45.7.3.7.85.6.95q.35.45.75.3.35-.1.45-.9v-1.3l-.4-.9zm-5.3-2.8q.7-.15 1.25-.7l.55-1.3q.1-.7-.3-1.35-.4-.7-1-.9l-.1.05q-1.5 1.2-2.8 1.2l-.05-.1-.2.9q0 1.05.8 1.7t1.85.5"/><path fill="#fff" d="M58.35 14q1-.3 1.75.25l.05.6.2.65.55.65.15.2q-.1 1-1.05 1.55l-2.2-.1q-1.05-.65-.95-2 .1-.6.5-1.1.45-.5 1-.7m-9.1 1.05q-1.05.15-1.85-.5t-.8-1.7l.2-.9.05.1q1.3 0 2.8-1.2l.1-.05q.6.2 1 .9.4.65.3 1.35l-.55 1.3q-.55.55-1.25.7m5.3 2.8.9 1.2.4.9v1.3q-.1.8-.45.9-.4.15-.75-.3l-.6-.95-.7-.85-.7-.3-.55-.45h-.85l-1.35.15-.4.25q-.45.15-.75-.3-.2-.4-.05-.9l.6-.7q.85-.7 1.9-.85h.85l.8-1.9.35-.5q.25-.15.6 0l.35.4v.5l.15 1.65.05.6z"/></g></svg>