<svg xmlns="http://www.w3.org/2000/svg" xmlns:ffdec="https://www.free-decompiler.com/flash" ffdec:objectType="shape" width="64.6" height="42.95"><g fill-rule="evenodd"><path fill="#999" d="M64.4 21.9q-.45 1.15-2.05 1.7l-2.65.5-9.1 2.5-1.15-.05q-.4-.4 0-1l.85-.65 10.05-5.55q1.05-.6 2-.55 1.2.1 1.85 1.05t.2 2.05m-15.75-6-.55.65-.8.2q-.55-.25-.35-.95l.6-1 .25-.5.25-.35.2-.5 1.5-2.65Q50.3 9.75 51 9.45l1.05-.1q.6.1.95.5.8 1 .25 2L52.3 13l-1.95 1.65zM41.05 26v-1.1l-.15-1q-.05-.65.15-1 .3-.65 1-.55.85.05 1.35 1.25l.35 1.7-.2 1-.35.5q.5.4.75 1.5l.25 1.65q.1.9-.2 1.7-.35.95-1.25 1.1l-1.25-.05-.35.1-.2.3q-.65 1.65-.75 3.55l1.4.15-.05-.05q-.45-.35-.45-.9.1-.55.55-.85l.9-.15.9.1 1.05-.05 1 .25q.5.25.4.85-.2.6-1.1.7l-1.5.2-.45.05 1.4.25q.7.25 1.2.65.75.85.45 1.9-.3 1-1.4 1.35l-1.25.1-1.3-.15-1.9-.1q-1.25-.15-2.2-.7l-1.1.3-1.3.2-.9.05-.95.3q-.4.05-1.05-.3-.75-.35-1.1-.35l-1 .3-1 .3-.6-.15-.65-.25-1.5-.2-5.7.2-1.6-.15q-.9-.35-1-1.35t.75-1.5l.35-.15h-2q-.8-.35-.8-1.2.1-.85.8-1.25.45-.25 2.05 0H21l1.45.15q.55.1.7.45.3.35-.1.85l-.75.5-.2.1.9-.15.65-.25.2-.5.15-1.1q.15-.8.45-1.25l-.8-.55-.7-.35-1 .15-2.15.35q-1.35-.1-1.75-1.2-.2-.6.2-1.5l.65-1.5.15-.5-.3-.45v-.85q.3-.8 1.1-.95l.75.1.4.45q.85-.25 1.45 0 .6.2 1.05 1l.7 1.35q.55.95 2.3 2.15l2 1.1 1.55.15q4.5-.05 8.25-2.4l.7-.65 2.05-.15q-.1-1.4.2-2l.55-.65q-.6-.3-.75-.95m15.9 6 1.05.1 2.5.6 1.2.2q.8.3 1.2 1.1.45.8.25 1.6t-.95 1.3-1.6.4l-1.35-.5-3.6-1.45-1.1-.4-4.15-.75-.65-.25-.15-.45.3-.5q.3-.25 1.05-.35zM23.3 22.05q.7-.1 1.15.65l.3 1.35-.3 1.7-.5.9q-.6.6-1.35.35-.85-.15-1-1-.15-.55.2-1.6l.25-.8.4-.95q.35-.55.85-.6m-5.5-6 .3.6.1.45-.35.2-1.15-.15q-1.95-.75-4.5-3l-1-.8-.75-.45q-1-.7-.85-2 .2-1.25 1.3-1.65 1.2-.4 2.1.4l.55.6zm-3.65 11.5-1.1.15-1.75-.3-1.2-.5-2-.5-2.7-.8-2.75-.85-1.55-.5q-1.3-.8-1.05-2.2.15-1.5 1.6-1.85l2.05.2 1.8 1 1.6.9 4.2 2.55 2.35 1.6.5.45q.2.4 0 .65M8.3 36.3 4.2 38l-2.1.4Q.9 38.25.55 37.1q-.35-1.05.4-2 .4-.45 1.35-.75l1.1-.15 1.05-.05.9-.2 1.75-.15 3.05-.5 2.65.05q.85.2.95.65t-.4.75l-.8.25q-2.15.45-4.25 1.3"/><path d="M20.8 18.95q-.7-2.85-.2-5.9l.1-.4-.35-.85-.45-2.45-.1-2.75q0-1.5.35-3.7.1-.85.45-1.6.55-.85 1.35-.9.45 0 1.8.75l1.3.7L27.4 3.4l.25.15.4-.15Q31.9 2 34.85 2q2.75 0 4.85 1.1l.45-.35 1.15-.7 1-.8.6-.7q.5-.5 1.2-.55.75-.05 1.3.35.9.65 1.1 2.6l.2 2.8q.1 2.65-.45 4.05l-.6 1.05q1.15 3.55-.4 7.45 2.1-.95 4.25-1.1 2.2-.2 4.65.6 2.35.85 4.1 2.6 1.3 1.2 2.05 2.8.7 1.35 1.3 3.85l.25 3.35q-.25 1.95-1.35 3.05t-2.8 1.2q-1.65.1-3-.8-1.2-.75-1.85-2-.65-1.3-.6-2.65.1-1.35.95-2.5.9-1.2 2.15-1.6-1.45-1.75-3.6-2.7t-4.4-.75l-1.1.15 1.15 3.7q1.2 5.1 1.1 10.55-.1 3.3-.8 5.25l-1 1.45-1.05.2q-.6-.1-.95-.5-.55-.65-.4-1.7l.4-1.7.15-.75-3.85-.25-.9-.2-.3-.6v-.75l.2-2 .1-.65.15-.5V33q0-.35.4-.65l.75-.25q1.15-.2 2.95 0l.75.1-.4-4.7H42l-.4-.05-.05.3q-.3 1.75-1.1 2.35l-1.3.6q-6.45 1.95-11.1.55-2.85-.8-3.85-2.7l-.35-.9h-.45l-2.45-.15q-.65-.1-.95-.4l-.05.1q-.8 2.7-.95 5.45l.05-.05.7-.1 3.2-.15.8.1q.5.2.7.85l.05 1.15q-.05 1.35-.5 2.9l-.25.55-.95.25-2.75-.05-.65.05.25.85.3 1.2q.1 1.6-.85 2.2l-1.55.15q-.8-.3-1.3-1-.65-.95-.65-3.15-.05-2.9.35-6.55l.25-1.5q.65-3.85 2.1-6.7l-1.75.35q-2.35.4-3.55 1.15-.95.65-2.55 2.35 1.5 1.15 1.9 2.5l.05 2.1-.35 2q-.5 1.35-2.15 2.25-1.4.65-3.1.5-2.5-.2-3.6-1.7-1.35-1.75-.6-4.5.85-4.05 4.8-7.8 1.3-1.3 2.6-2.05 1.6-1 3.55-1.4 2.75-.65 5.95-.05.95.15 1.5.45v-.05zm21.45-8-.4-.3-.05.05-1.5 1.5q-1.65 1.25-3.35 1.6l-.4.1.1.6q.2.95.9 1.65t1.7.9l1.95-.1q1.35-.45 1.95-1.7.65-1.2.25-2.6-.3-1-1.15-1.7m-.55 12.5.05.65.05.35v1l.05.4 2.5-.1-.2-.9-1-2.9zm3.4 12v-1.9h-1.3l-1.75.25-.25 2.2 3.25.25zM29.7 14.9q.15-1.75-1.15-3l-1.05-.75-2.45-.2q-1.25.4-1.95 1.45-1.05 1.6-.3 3.45.8 1.8 2.75 2.1l1.75-.1q.9-.3 1.5-1 .85-.8.9-1.95m-5.85 8.8-1.7-1.6q-.75 1.35-1.35 2.8l-.15 1 2.5.05.55.05zm10.4-5.6-.05-.3q0-.45-.5-.6-.4-.15-.75.2l-.3.5q-.4.5-1.05.4-.2 0-.3-.15v-.35l.1-.4.25-.65-.25-.6-.6-.1-.45.25-.2.3-.15.35-.2 1.2v.55q.15.6.8.95l1.45.3q.8-.05 1.35-.55.65.5 1.65.4l.85-.2.55-.5.3-.45.15-.35.1-.85-.3-.7-.8-.9q-.4-.15-.75.25-.3.3-.2.75.05.35.45.75l.15.3-.1.15-1.05.15zM19 35.5l.05.8.2-.05 3.1.05.25-2.1-.95-.05-.95.05-1-.1-.75.05z"/><path fill="#fff" d="M42.25 10.95q.85.7 1.15 1.7.4 1.4-.25 2.6-.6 1.25-1.95 1.7l-1.95.1q-1-.2-1.7-.9t-.9-1.65l-.1-.6.4-.1q1.7-.35 3.35-1.6l1.5-1.5.05-.05zM29.7 14.9q-.05 1.15-.9 1.95-.6.7-1.5 1l-1.75.1q-1.95-.3-2.75-2.1-.75-1.85.3-3.45.7-1.05 1.95-1.45l2.45.2 1.05.75q1.3 1.25 1.15 3m4.55 3.2.15.1 1.05-.15.1-.15-.15-.3q-.4-.4-.45-.75-.1-.45.2-.75.35-.4.75-.25l.8.9.3.7-.1.85-.15.35-.3.45-.55.5-.85.2q-1 .1-1.65-.4-.55.5-1.35.55l-1.45-.3q-.65-.35-.8-.95v-.55l.2-1.2.15-.35.2-.3.45-.25.6.1.25.6-.25.65-.1.4v.35q.1.15.3.15.65.1 1.05-.4l.3-.5q.35-.35.75-.2.5.15.5.6z"/></g></svg>