<svg xmlns="http://www.w3.org/2000/svg" xmlns:ffdec="https://www.free-decompiler.com/flash" ffdec:objectType="shape" width="68.45" height="39.1"><g fill-rule="evenodd"><path fill="#999" d="M66.1 19.75q-.45 1.15-2.05 1.7l-.7.2.2.85q-.1 1-.95 1.15-.5.1-1.6-.7l-.95-.6-7.75 2.1-1.15-.05q-.4-.4 0-1 .2-.25.85-.65l4-2.2-2.05-.1-3.2.45-1.05.3q-.8.6-1.3.6l-.65-.25-.4-.7q-.05-.8.5-1.45.45-.6 1.15-.85l1.05-.3L54 17.6l3.95.5 1.3.65 2.8-1.55q1.05-.6 2-.55 1.2.1 1.85 1.05t.2 2.05m-15.75-6-.55.65q-.35.35-.8.2-.55-.25-.35-.95l.6-1 .25-.5.25-.35.2-.5 1.5-2.65Q52 7.6 52.7 7.3l1.05-.1q.6.1.95.5.8 1 .25 2L54 10.85l-1.95 1.65q-1.45.95-1.7 1.25M33.05 7.5l4.75.1 3.65.4H42l1.35.35.9.5.95 1.15.2.75.2 3-.2 1.1.1.85q.1.8-.35 1.45-.35.45-.65.4h-.15l-.75-.05-.4.7-.75.9-1.2.3-5.55.2-.6 6.2-.2.8-1.05.75-1.35-.05-1.9-.45q-2.4-.7-3.1-2.1-.35-.7-.4-1.9l-.05-2q-.15-1.15-.75-2.2l-.05-.1h-.1q-.8-.1-1.1-1.05v-1.6l.15-1.2-.15-.55-.05-3.2.2-.5v-.2q.2-.55 1.2-1.05 3.25-1.5 6.65-1.7m7.55 3.15-.15 1.2q.4.45 1.65.55h.35l.05-.05.5-.35-.05-.35-.25-.8-.55-.3-1.6-.2zm0 4.6-.25-.45-.45-.2-1.6-.85-.4-.25h-.6l-4.5.5-1.4-.25-.35.2-1.2.45-.4.2-.05.3v1.4l.1.35.4.15 3 .1q1.1 0 1.6.4l.05.05 2.05-.1 2.5.15 1.8-.3zm2.15 8.6v-1.1l-.15-1q-.05-.65.15-1 .3-.65 1-.55.85.05 1.35 1.25l.35 1.7-.2 1-.35.5q.5.4.75 1.5l.25 1.65q.1.9-.2 1.7-.35.95-1.25 1.1l-1.25-.05-.35.1-.2.3Q42 32.6 41.9 34.5l1.4.15-.05-.05q-.45-.35-.45-.9.1-.55.55-.85l.9-.15.9.1 1.05-.05 1 .25q.5.25.4.85-.2.6-1.1.7l-1.5.2-.45.05 1.4.25q.7.25 1.2.65.75.85.45 1.9-.3 1-1.4 1.35l-1.25.1-1.3-.15-1.9-.1q-1.25-.15-2.2-.7l-1.1.3-1.3.2-.9.05-.95.3q-.4.05-1.05-.3l-1.1-.35q-.35 0-1 .3l-1 .3-.6-.15-.65-.25-1.5-.2-5.7.2-1.6-.15q-.9-.35-1-1.35t.75-1.5l.35-.15h-2q-.8-.35-.8-1.2.1-.85.8-1.25.45-.25 2.05 0h1.45l1.45.15.7.45q.3.35-.1.85l-.75.5-.2.1.9-.15.65-.25.2-.5.15-1.1q.15-.8.45-1.25l-.8-.55-.7-.35-1 .15-2.15.35q-1.35-.1-1.75-1.2-.2-.6.2-1.5l.65-1.5.15-.5-.3-.45v-.85q.3-.8 1.1-.95l.75.1.4.45q.85-.25 1.45 0 .6.2 1.05 1l.7 1.35q.55.95 2.3 2.15 1.3.85 2 1.1l1.55.15q4.5-.05 8.25-2.4l.7-.65 2.05-.15q-.1-1.4.2-2 .15-.45.55-.65-.6-.3-.75-.95m-6.3-3.1 3.9-.2q.85-.1 1.2.3.25.3.15.7l-.45.65q1 1.25.7 2.95l-.1.45q-.35.75-1.05 1.1l-1.95.55-1.45.2-1.15-.45-.65-.35-.35-.75.15-.5-.05-.3.1-.7.2-2.35.05-.5q.15-.65.75-.8m22.2 9.1 1.05.1 2.3.55.25-.35.5-.35.45-.5.35-.45.1-.55-.4-1.05-.2-.45-.15-.2-.35-.05-.75.05-.65.05-.45.35-.65.8q-.45.5-.85.6l-.8-.1-.55-.55q-.3-.5 0-1.25l.7-1.05 1.55-1.25 1.9-.25 1.45-.1q.95.1 1.2.7l.2.6.45 1.4.15.4.2 1.1.1.75-.35 1.2-.85 1-.3.35.35.5q.45.8.25 1.6t-.95 1.3-1.6.4l-1.35-.5-3.6-1.45-1.1-.4-4.15-.75-.65-.25-.15-.45.3-.5q.3-.25 1.05-.35zm-30.6-18.3v1.5l.95-.3 1.45-.3-.05-.3q-.05-.8.25-1.4zM19.5 13.9l.3.6.1.45-.35.2L18.4 15q-1.95-.75-4.5-3l-1-.8-.75-.45q-1-.7-.85-2 .2-1.25 1.3-1.65 1.2-.4 2.1.4l.55.6zm-3.65 11.5-1.1.15-1.75-.3-1.2-.5-2-.5-2.7-.8-2.75-.85-1.55-.5q-1.3-.8-1.05-2.2.15-1.5 1.6-1.85l2.05.2 1.8 1 .1.05.7-.3 3.25-1.2 1.9-.25 2.45-.15 1.45.1 1.25.45q1.9.85 2.65 1.7.65.65.55 1.3 0 .8-.75 1.2l-1.35-.1-.85-.85-.9-.6-1.25-.55-1.5-.25-1.65-.05q-1.6.1-3.6.85L13 22.7l2.35 1.6.5.45q.2.4 0 .65M25 19.9q.7-.1 1.15.65.3.5.3 1.35l-.3 1.7-.5.9q-.6.6-1.35.35-.85-.15-1-1-.15-.55.2-1.6l.25-.8.4-.95q.35-.55.85-.6M10 34.15l-4.1 1.7q-1.4.55-2.1.4-1.2-.15-1.55-1.3-.35-1.05.4-2 .4-.45 1.35-.75l.45-.05-.2-.15-.45-.35q-.95-.95-.95-1.55l.05-.45q.5-2.3.95-3.35l.25-.6.3-1q.25-.45.85-.8.85-.55 1.45-.45l.75.3 1.15.75.7.7.7 1q.5 1.05-.15 2l-.7.4-.4-.25-.45-1.05L6.7 26q-.9 1.65-1.1 3.2.7.1 1.05.4.75.6.5 1.55l-.45.75.35-.1 1.75-.15 3.05-.5 2.65.05q.85.2.95.65t-.4.75l-.8.25q-2.15.45-4.25 1.3"/><path d="m61.35 21.6.2.6 1.05.1h.3q-.35-1.3-1.05-2.2l-.25.35-.1.05-.05.1-.5.45zm-3-3.9-.15-.05-.1.5h-.05l-.05.2-.2.4-.05.15v.15l-.05.1q1.5.35 2.45 1.1l.05-.05v-.1l.4-.8.25-.25-1.15-.75zM50.2 33.9q-.1 3.25-.75 5.2H46v-.5l.4-1.7.15-.75-3.85-.25-.9-.2-.3-.6v-.75l.2-2 .1-.65.15-.5v-.35q0-.35.4-.65l.75-.25q1.15-.2 2.95 0l.75.1-.4-4.7h-2.7l-.4-.05-.05.3q-.3 1.75-1.1 2.35l-1.3.6q-6.45 1.95-11.1.55-2.85-.8-3.85-2.7l-.35-.9h-.45l-2.45-.15q-.65-.1-.95-.4l-.05.1q-.8 2.7-.95 5.45l.05-.05.7-.1 3.2-.15.8.1q.5.2.7.85l.05 1.15q-.05 1.35-.5 2.9l-.25.55-.95.25-2.75-.05-.65.05.25.85.3 1.2-.05 1.05h-3.8q-.5-.95-.5-2.85-.05-2.9.35-6.55l.25-1.5q.3-1.7 1.25-3.9l-.8-1.15q-1.15-1.65-4.05-2.1l-2.8-.1q-1.55.15-2.55.95 1.4.5 2.55 1.65.7.65.85 1.35l-.2 1.05-1.35 4.1-.65.95-.95.1-1.05-.1-.6 1.3q-.4.75-1.1.9l-1.1.05-3-.5q-.6-.2-.85-.5l-.4-1-.65-2.2q-.65-2-.35-2.8l.75-1L2 23.95l1-.8v-.7q.4-2.6 2.15-4.7 1.75-2.15 4.25-3l3.4-.8q2.8-.45 5.6.5 2.2.75 3.95 2.25l.15.25v-.1L22.2 14l-.25-2.85q.1-1.4.45-2.25.75-1.7 3.6-3.2 1.7-.95 2.8-1.35l2.1-.6 3.95-.35-.05-.55-.1-.35-.4-.1q-4-.3-7.75.75l-.3.15-.15.35q-.5 1.35-1.9 1.7l-1.6-.15-.85-.6q-.5-.55-.4-1.55.1-1.45 1.25-2.15 1.15-.85 2.45-.15l.9.45.85-.05 3.8-.5 4.6.2q.65.2.85.55l.15.65-.05 1.3 5.9.7q3.75 1 5.65 3.65.45.55.5.95l-.05.95-.7 3.9-.6 2.6q1.45-1.05 3.2-1.65 2.8-.95 5.6-.5l3.4.8q2.5.85 4.25 3 1.75 2.1 2.15 4.7v.7l1 .8 1.15 1.3.75 1q.3.8-.35 2.8l-.65 2.2-.4 1-.85.5-3 .5-1.1-.05q-.7-.15-1.1-.9l-.6-1.3-1.05.1-.95-.1-.65-.95-1.35-4.1-.2-1.05q.15-.7.85-1.35 1.15-1.15 2.55-1.65-1-.8-2.55-.95l-2.8.1q-2.9.45-4.05 2.1l-.8 1.15q1 4.65.9 9.6M40 11.95q-.35-.55-.4-1.15l.2-1.25.05-.05q.65-1.2 1.95-1.3 1.35-.1 2.15.95l.1.15.3.85q.15 1.15-.5 1.95-.7.8-1.6.85-1.25.15-2.1-.85zm-6.6 14.7 1.45.1v-.5l-.05-.7-.1-2.8q0-2.05.15-3.05.1-.45.35-.65l.4-.1h.2l.2-.05 4.7-.25.85.05h.3q1.15-1.25 1.9-1.55l.75-.2.45-.05.9-7v-.45l-.5-.7-1.15-1q-1.1-.65-2.75-.9l-7.2-.4-.1.2-.1 3.05 1.45.15.3.2v1.3l-.15 1-.05 1.05 4.65.25.7.25.25.8.1 1.55q0 .8-.3 1.05l-.65.1-2.25.05-4.2-.1-3.4.1h-.65l-.5-.4-.1-.4V14.7l.2-.75.7-.25 3.05-.3h1.55l.05-.25.1-2.25-.8-.15-.7-.15q-.3-.05-.4-.65l.05-2.65.05-.7v-.05l-1.55.2q-3.9.65-6 2.25l-.7.8q-.25.45-.25 1.2 0 1.05.35 3.05l.4 3.1v.1l.3.1 1.2.85q.6.5.75 1.45l.1 2.95q.1 1.9 1 2.7l1.2.55q1.55.65 3.5.8m3.3-10.7.95-.1.7.05.75-.1.75-.05V14.4l-5.3.3h-.25v.7l.05.1.05.3-.05.2zm2.5 10.45 1.1-.35q.6-.4.7-1.45l.05-.55-.25-.95-.1-1.5q0-1.2.2-1.65l.05-.1h-2.2l-2 .1-.6.05Q36 21.05 36 23v2.4l.1.45.05.85zm4.2-5.1.05.65.05.35v1l.05.4 2.5-.1-.2-.9-1-2.9zm21.55 4.4-.85-.95-.2-.15-.5-.55-.25-.05-.55-.1-.2-.1H62l-.2-.1-.3-.05h-.2l-.15-.05-.2.1-.95.3q-.55.15-1.35.85l-.45.6.2.75.7 1.7.3-1.3q.2-.85.6-1.15.35-.25.95-.25h1l.9-.05q.5 0 .8.25l.45 1.05.45 1.05q.25.55.15 1l-.7.95-1.3 1.1q-.35.35-.15.5l.3.05 2.25-.4q.2-1.6.9-3.2l.1-.4-.4-.45zM54.8 18.75l1.8.15v-.3l.05-.2v-.1l.05-.1v-.3l.05-.1v-.15l.05-.05v-.15l.05-.05v-.15l-3.2-.4.05.1v.3l-.05.25v.25l-.05.1v.2l-.05.15v.3l-.05.1v.1l-.05.1v.1zm-4.1-1.5-.85.3.3.6h.05l.05.3.3.85v.1l.05.1-.05.15v.05l.1-.05 1.95-.6v-.1h-.05v-.3l-.05-.1.05-.35-.05-.15v-.15l-.05-.2v-.3l-.05-.2v-.25zm-2.15.9-.8.4.85 2.85 1.15-1.15-.05-.1v-.1l-.1-.1v-.1l-.1-.1-.1-.15-.25-.55-.1-.15-.15-.15-.15-.3-.05-.15zM46.8 33.3v-1.9h-1.3l-1.75.25-.25 2.2 3.25.25zM34.55.05V0h.15zM61.5 27.7l-.15.4-.1.2v.2l-.1.7.45-.45.3-.2.55-.55-.2-.45-.1-.05h-.6zM26.55 11.65l-.1-.7.15-.8q.35-.9 1.15-1.35l1.75-.15.45.2.9.8q.4.6.35 1.4l-.45 1.35-.2.2-.8.55-1.95-.05q-.9-.45-1.25-1.45m8.75-3.7q.5 0 .6.55h.05l-.1.45-.1.15q-.2.2-.5.2L34.8 9q-.15 0-.15-.2l.05-.4.15-.2v-.05Q35.1 8 35.3 8zm-17.55 9.3-1.7-.3v.25l-.05.2v.3l-.05.2v.15l-.05.15.05.35-.05.1v.3h-.05v.1l1.95.6.1.05v-.05l-.05-.15.05-.1v-.1l.3-.85.05-.3h.05l.3-.6zm4.05 1.9-1.9-1-.15.15-.05.15-.15.3-.15.15-.1.15-.25.55-.1.15-.1.1v.1l-.1.1v.1l-.05.1 1.6 1.7zm3.75 2.4L23.9 20l-.1.05-1.3 2.7-.15 1 2.5.05.55.05zm5.15-6.35-.1.75h.55l-.05-.45.05-.35zm6.15 5.85q.25-.4.7-.4t.8.35q.3.4.15.9l-.1.2q-.4.6-1.05.4-.7-.25-.7-.9l.05-.25zM10.1 17.7l-1.35.6q-.65.3-1.15.75l.25.25.4.8v.1l.05.05q.95-.75 2.45-1.1l-.05-.1v-.15l-.05-.15-.2-.4-.05-.2h-.05l-.1-.5zm-3 3.9.4-.55-.5-.45-.05-.1-.1-.05-.25-.35q-.7.9-1.05 2.2h.3l1.05-.1zm6.55-2.85 1.35.15v-.1l-.05-.1v-.1l-.05-.1v-.3l-.05-.15v-.2l-.05-.1v-.25l-.05-.25v-.3l.05-.1-3.2.4v.15l.05.05v.15l.05.05v.15l.05.1v.3l.05.1v.1l.05.2v.3zM3.5 25.7l-.75.95-.4.45.1.4q.7 1.6.9 3.2l2.25.4.3-.05q.2-.15-.15-.5l-1.3-1.1-.7-.95q-.1-.45.15-1l.45-1.05q.2-.75.45-1.05.3-.25.8-.25l.9.05h1l.95.25q.4.3.6 1.15l.3 1.3.7-1.7.2-.75-.45-.6q-.8-.7-1.35-.85l-.95-.3-.2-.1-.15.05h-.2l-.3.05-.2.1h-.4l-.2.1-.55.1-.25.05-.5.55-.2.15zm3.45 2-.05-.2h-.6l-.1.05L6 28l.55.55.3.2.45.45-.1-.7v-.2l-.1-.2zm13.75 5.65.05.8.2-.05 3.1.05.25-2.1-.95-.05-.95.05-1-.1-.75.05z"/></g></svg>