<svg xmlns="http://www.w3.org/2000/svg" xmlns:ffdec="https://www.free-decompiler.com/flash" ffdec:objectType="shape" width="75.3" height="42.5"><path fill="#999" fill-rule="evenodd" d="M.05.05h75.2V41.1H.05z"/><path ffdec:has-small-stroke="true" ffdec:original-stroke-width=".1" fill="none" stroke="#000" stroke-linecap="round" stroke-linejoin="round" d="M.05.05h75.2V41.1H.05z"/><path fill-rule="evenodd" d="M55.2 9.7 54 10.75l-3.35 1.4-.7.15q-.45 0-.6-.35-.1-.3.25-.85L51 9.2l1.3-1.45q.9-.7 1.85-.5.8.25 1.1.95.35.8-.05 1.5m.3 16.65q-.7.15-1.5-.4l-1.2-1.15-.85-1-1.85-2.3-.15-.35q0-.4.6-.4l1.05.2q2.4.85 3.55 1.6l1.2 1.05q.55.65.4 1.5-.2 1.1-1.25 1.25M52.05 15.6l1.05-.2h.85l1.75-.35q1.05-.2 2.6 0l1.05.25q.7.3.95 1.05l-.05 1.4q-.45.95-1.25 1l-1.2-.15-3.95-.75-1.55-.4q-.9-.25-1.15-.5-.2-.2-.15-.55l.3-.55zm-33-5.9q-.4-.7-.05-1.5.3-.7 1.1-.95.95-.2 1.85.5.6.4 1.3 1.45l1.4 1.9.25.85-.6.35-.7-.15q-2.3-.8-3.35-1.4zm3.15 5.9.75.25.3.55-.15.55-1.15.5-1.55.4-3.95.75-1.2.15q-.8-.05-1.25-1-.25-.75-.05-1.4.25-.75.95-1.05l1.05-.25q1.55-.2 2.6 0l1.75.35h.85zm-3.45 10.75q-1.05-.15-1.25-1.25-.15-.85.4-1.5.4-.6 1.2-1.05 1.15-.75 3.55-1.6l1.05-.2q.6 0 .6.4l-.15.35-1.85 2.3-.85 1-1.2 1.15q-.8.55-1.5.4"/><path fill="#fff" fill-rule="evenodd" d="M48.5 14.35q.1 3.5-1.3 6-1.2 2.2-3.35 3.6l.1 1.5q0 .6.15.8l.65.4q1.8.7 2.45 2.55l.3 1.3.15 1.85q-.15 1.75-2.45 3.85.45.65.3 1.5-.1.85-.75 1.35-.8.65-2.75.55l-.85-.05-.15.25q-.6 1.15-1.25 1.45l-1.8.2-1.05-.2q-1.05.9-2.85.5-1.4-.4-1.9-1.2H32l-1.3.35-1.55.2q-1.25 0-1.8-.4l-.8-.8q-.4-.5-.45-.9-.15-.85.5-1.6l-1.25-1.65-.6-1.25q-2.25.7-3.45 1.4l-2.1 1.5.85-.15 1.7-.1q.9.05 1.7.5.8.5 1.05 1.3.4 1.4-.7 2.4-.9.9-2.35 1.05l-2.7-.3q-1.25-.1-2.7-.85l-1.05-.8q-.35-.5-.35-1.55 0-1.45.15-1.9l.75-1.3q1.4-1.8 4-3.1 1.55-.75 4.85-1.75l.65-.15q.15-.45.45-.85.85-1.2 2.05-1.85l1.05-.9.15-.8.3-1.05.55-1.15-1.4-1.05q-1.55-1.35-2.35-3.2-.8-1.95-.6-3.9.1-1.1.7-2.75L27 11.05l.5-.65-.6-.95q-.15-.4-.15-1.35 0-1.25.15-1.85l.95-2 .4-1.1q.2-.7.5-1.1.45-.55 1.25-.7.7-.1 1.35.4l.8 1 1 1.9.75 1 6.8-.2.35-.35q1.15-.95 2.4-2.65.75-1.15 1.3-1.4.5-.2 1 0l.8.6.35 1.25.5 1.75.4 1.75.1 1.25.1.85-.05.75.1.7.1 1v.25q.35 1.4.35 3.15"/></svg>