<svg xmlns="http://www.w3.org/2000/svg" xmlns:ffdec="https://www.free-decompiler.com/flash" ffdec:objectType="shape" width="78.9" height="44.55"><g fill-rule="evenodd"><path fill="#999" d="m27.3 15.25-.65-.35q-.9-.7-2.5-2.7L20.9 8.7l-4.25-4.35Q15.2 2.8 15.25 1.8q.1-1.05.85-1.5l1.7-.05.9.8q5.3 6 9 12.8l.25.9q-.15.5-.65.5m1.85 5.85-.55.45-.8-.1-1.8-1Q15.4 13.8 10.15 9.85L3.8 4.7q-1.25-.9-1.45-1.75-.25-.85.4-1.65.6-.8 1.5-.75.85 0 2.15 1.1 14.6 11.7 22.25 18.6.55.55.5.85M37.6 8.2l-.4-2.75L37 3.6l-.05-.45V3.1q0-.95.15-1.3.25-.8 1.1-1.05l1.25.05L40.7.75q.85.25 1.1 1.05l.15 1.3v.5l-.25 1.85-.4 2.75L41 10q0 1.35-.4 2.7l-.1.35q-.15.65-.85.75h-.4q-.7-.1-.85-.75l-.05-.35q-.45-1.3-.45-2.7zm-8.5-4.35-.3-1.6q-.1-.95.45-1.55.65-.7 1.6-.55T32.1 1.2l.25.9.2.6.6 2.4.3 2.4.05 1.75-.25 2.25-.6.7-.85.05q-.65-.3-.75-1.25l-.2-1.55-.25-.65zm-1.35 4.9-.8-.05-.45-.65-2.35-4.35q-.6-.95-.45-1.65.1-.9 1.05-1.15.95-.15 1.45.6l.3 1.05.75 2.65.7 2.65q.1.65-.2.9m23.85 6.5q-.5 0-.65-.5-.05-.3.25-.9 3.7-6.8 9-12.8l.9-.8 1.7.05q.75.45.85 1.5.05 1-1.4 2.55L58 8.7l-3.25 3.5-2.5 2.7zm-1.85 5.85q-.05-.3.5-.85 7.65-6.9 22.25-18.6 1.3-1.1 2.15-1.1.9-.05 1.5.75.65.8.4 1.65-.2.85-1.45 1.75l-6.35 5.15Q63.5 13.8 52.9 20.45q-1.1.75-1.8 1l-.8.1zm.05-17.25L48.3 8.8l-.25.65-.2 1.55q-.1.95-.75 1.25l-.85-.05q-.45-.25-.6-.7l-.25-2.25.05-1.75.3-2.4.6-2.4.2-.6.25-.9q.3-.9 1.25-1.05t1.6.55q.55.6.45 1.55zm1.35 4.9q-.3-.25-.2-.9l.7-2.65.75-2.65.3-1.05q.5-.75 1.45-.6.95.25 1.05 1.15.15.7-.45 1.65L52.4 8.05l-.45.65zm6.1 13.6q-.4 0-.3-.4l.3-.5 2-1.6 8.3-5.65 3.2-2.5 3.3-2.3q1.5-.9 2.5-.55.85.25 1.1 1.2.25.9-.3 1.6l-1.3 1-12.25 6.7-2.6 1.4-1.9.85-1.7.6zm15.85-.9 1.75-.55q1.15-.1 1.7.5.45.45.4 1.25l-.55 1.2q-.8.8-2.45 1.15l-5.8 1-5.75.7-12.15 1.1q-1.05.1-1.05-.55 0-.45.8-.7l8-1.95 12.15-2.55zm-22.4 15.3-.4-.5q-.2-.4 0-.6.1-.2.35-.15l.45.15.7.6 1.2.45.7.65.95.65 4.05 3q1 .9 1.15 1.6.15.75-.45 1.45-.5.6-1.45.5-.9-.05-2.15-1.3l-3.5-3.6-1.05-1.8zm26.05-1.65q.9.25 1.55.75.8.7.55 1.55-.25.9-1.35 1l-1.75-.25-1.85-.6-6.1-2.45-7.75-3.35q-2.35-1.05-3.15-1.7l-.3-.45q-.05-.2.05-.35L57 29l.85.05q4.65.95 9.9 2.75zM49.7 31.2q-1.35-.65-1.1-1.55.15-.65 1-.65l1.25.3 23.9 9.85q1.9.8 2.3 1.85.25.7-.15 1.4-.4.75-1.1.95-.85.15-2.2-.4-4.55-1.8-9.65-4.3zm-2.55 7.2q.35 1.1 1.15 1.95l.9 1 .55 1.1q.1.95-.75 1.55l-1.7.1q-.65-.35-1.3-1.4l-.7-1.3-.25-2.05-.15-.9q-.1-.5.1-.8.2-.45.75-.55.5-.1.85.25zm-15.4 0 .55-1.05q.35-.35.85-.25.55.1.75.55l.1.8-.15.9-.25 2.05-.7 1.3-1.3 1.4-1.7-.1q-.85-.6-.75-1.55.05-.55.55-1.1l.9-1zm-3.55-1.65-.55 1.1-1.05 1.8-3.5 3.6q-1.25 1.25-2.15 1.3-.95.1-1.45-.5-.6-.7-.45-1.45.15-.7 1.15-1.6 1.95-1.65 4.05-3l.95-.65.7-.65 1.2-.45.7-.6.45-.15q.25-.05.35.15.2.2 0 .6zm1-5.55-14.25 7.45q-5.1 2.5-9.65 4.3l-2.2.4q-.7-.2-1.1-.95-.4-.7-.15-1.4.4-1.05 2.3-1.85l23.9-9.85 1.25-.3q.85 0 1 .65.25.9-1.1 1.55M2.15 35.1l9-3.3q5.25-1.8 9.9-2.75l.85-.05.35.25.05.35-.3.45q-.8.65-3.15 1.7L11.1 35.1 5 37.55l-1.85.6-1.75.25q-1.1-.1-1.35-1-.25-.85.55-1.55.65-.5 1.55-.75M5.8 21.45l2.95.6L20.9 24.6l8 1.95q.8.25.8.7 0 .65-1.05.55L16.5 26.7l-5.75-.7-5.8-1q-1.65-.35-2.45-1.15-.5-.5-.55-1.2-.05-.8.4-1.25.55-.6 1.7-.5zm15.85.9-.35-.15-1.7-.6-1.9-.85-2.6-1.4-12.25-6.7-1.3-1q-.55-.7-.3-1.6.25-.95 1.1-1.2 1-.35 2.5.55l3.3 2.3 3.2 2.5 8.3 5.65 2 1.6.3.5q.1.4-.3.4"/><path d="M49.9 15.7q.1 3.5-1.3 6-.8 1.5-2.05 2.65l1.65-.3.35-.15L51 22.5h.05l1.3-1.9q.8-1.55 1-3.55-.35-1.45.3-2.5 0-1.1-.3-1.55l-.4-.6q-.05-.6.75-.7 1.15-.15 1.8 1.1l.2.45.2-.05-.15-.9-.15-.6-.3-.6-.15-.6q.25-.6.9-.35.45.15.8.65l.9 1.5.45 1.45.2.1-.05-1.1-.35-.8q-.2-.55.1-.85l1.05.05q1.1.75 1.3 3 .3 2.3-.5 3.5-.1 2.6-1.95 4.85-1.75 2.15-5.15 3.8l-2.8 1.1-1.4.55-2.15.2q1.5.7 2.1 2.4l.3 1.3.15 1.85q-.15 1.75-2.45 3.85.45.65.3 1.5-.1.85-.75 1.35-.8.65-2.75.55l-.85-.05-.15.25q-.6 1.15-1.25 1.45l-1.8.2-1.05-.2q-1.05.9-2.85.5-1.4-.4-1.9-1.2h-.15l-1.3.35-1.55.2q-1.25 0-1.8-.4l-.8-.8q-.4-.5-.45-.9-.15-.85.5-1.6l-1.25-1.65-.6-1.25q-2.25.7-3.45 1.4l-2.1 1.5.85-.15 1.7-.1q.9.05 1.7.5.8.5 1.05 1.3.4 1.4-.7 2.4-.9.9-2.35 1.05l-2.7-.3q-1.25-.1-2.7-.85l-1.05-.8q-.35-.5-.35-1.55 0-1.45.15-1.9l.75-1.3q1.4-1.8 4-3.1 1.55-.75 4.85-1.75l.65-.15q.15-.45.45-.85.85-1.2 2.05-1.85l1.05-.9.05-.2q-3.15.5-5.55-.1-2.95-.75-5-3.1Q18.55 24 18 22.8l-.85-1.25-.4-.9-.1-1 .1-1.85v-.1q-.3-1.7.5-3.3.5-1 1.2-1.5l.8-.1.25.5-.15.65L19 15.3l.65-.2q.1-.9.65-1.75.45-.6 1.05-1.05l.65-.2q.35-.1.55.35l-.3.7q-.55.8-.65 1.9l.35.1.3-.75 1.25-1.1.6-.3q.45 0 .45.3l-.3.65q-.65.7-.45 2.05l.05.9.1.25.15.7-.1 1.2-.35 1.8.1.35.4.75.6 1.1.9.85 1.3.75H27l3.05.1-.45-.35q-1.55-1.35-2.35-3.2-.8-1.95-.6-3.9.1-1.1.7-2.75l1.05-2.15.5-.65-.6-.95q-.15-.4-.15-1.35 0-1.25.15-1.85l.95-2 .4-1.1q.2-.7.5-1.1.45-.55 1.25-.7.7-.1 1.35.4l.8 1 1 1.9.75 1 6.8-.2.35-.35q1.15-.95 2.4-2.65.75-1.15 1.3-1.4.5-.2 1 0l.8.6.35 1.25.5 1.75.4 1.75.1 1.25.1.85-.05.75.1.7.1 1v.25q.35 1.4.35 3.15M35 17.2l.05-.3.75-.2.35-.75-.05-.75-.65-.55-1.35-.8-1.45-.7-.95-.05q-.55.2-.7.65-.15.55.4 1l.3.25-.25.2q-.35.45-.45 1-.25 1.25.35 2 .4.4 1.15.6 1.55.3 2.2-.75zm-1.4 4.95-.55-.7q-.4-.4-.8-.35-.6.1-.6.8-.1 1 .85 1.35.05.55.9.75 2.5.55 4.5-1.05 1.6 1.6 3.6 1.35 2.1-.15 3.3-1.9l.3-.65q.1-.45-.25-.7l-.7-.05-.6.4q-.95.75-1.65 1l-1.6-.05q-.8-.3-1.3-.95l-.5-.65-.8.05-.5.6-1.2.8-1.2.35q-.75 0-1.2-.4m8.75-4.25 1 .8 1.3.15q1.35-.3 1.85-1.7.3-1-.15-1.65l-.6-.65.6-.3q.85-.5.65-1.1-.05-.6-.85-.6-.25 0-1.05.35l-2.8 1.35-.85.6q-.5.75 0 1.45l.65.4z"/><path fill="#fff" d="m42.35 17.9-.25-.9-.65-.4q-.5-.7 0-1.45l.85-.6 2.8-1.35q.8-.35 1.05-.35.8 0 .85.6.2.6-.65 1.1l-.6.3.6.65q.45.65.15 1.65-.5 1.4-1.85 1.7l-1.3-.15zm-8.75 4.25q.45.4 1.2.4l1.2-.35 1.2-.8.5-.6.8-.05.5.65q.5.65 1.3.95l1.6.05q.7-.25 1.65-1l.6-.4.7.05q.35.25.25.7l-.3.65q-1.2 1.75-3.3 1.9-2 .25-3.6-1.35-2 1.6-4.5 1.05-.85-.2-.9-.75-.95-.35-.85-1.35 0-.7.6-.8.4-.05.8.35zM35 17.2l-.3.85q-.65 1.05-2.2.75-.75-.2-1.15-.6-.6-.75-.35-2 .1-.55.45-1l.25-.2-.3-.25q-.55-.45-.4-1 .15-.45.7-.65l.95.05 1.45.7 1.35.8.65.55.05.75-.35.75-.75.2z"/></g></svg>