<svg xmlns="http://www.w3.org/2000/svg" xmlns:ffdec="https://www.free-decompiler.com/flash" ffdec:objectType="shape" width="75.35" height="42.2"><g fill-rule="evenodd"><path fill="#717171" d="M32.3 42.1q-.9.2-2.2 0l-2.2-.3-1.65-.3-.8-.5-.4-.05h-3.4l-.2-.05h-.15l-.35-.05h-.45l-.5-.05h-2.4l-.25-.05h-2.7v.05H.25l-.25.05V.55L1.45.5h2.1L5.6.45h.6L6.95.4h1.2L9.4.35h10.3V.3h.25l.25.05h.1l.15.05.15.05.1.05h.4l.1.05h.1l.1.05.15.05.1.05.1.05h.05l.1.05h.2l.05.05h.1l.1.05h1l.1.05h.1l.15.05.1.05.15.05.1.05.1.05.1.1.1.05.05.05.05.05.05.05 2.8-.7 5.55-.8q2 0 5.25.95l1 .35H55l.7.05h9.35l.35.05h.35l6.65.05h2.95v39.9H74.2l-.35.05h-.35l-1.65.05h-.8l-2.45.05h-4.1l-.2.05h-.25l-.3.05H60.4l-.7.05h-2.25l-1.65-.05h-1.9l-1.45.05H50.8l-.5.05h-4.9l-.2-.05h-.1l-.1-.05h-.2l-.05-.05h-.1l-.05-.05H44l-.2.05h-.35l-.2-.05-.15-.05-.05-.05-.1-.05-.05-.05q-.95.6-1.6.7l-1.2-.1h-1.5l-2.2-.4-1-.35-.55-.55q-.95 1.2-2.55 1.5M18.95 9.7q-1.5 2.05-1.95 4l-.3 2.25q-.5 4.4-.3 6.6l.5 2.5.3.1 1.25 1.1q1.65 1.7 3.4 2.7l1.85 1.1q.95.75 1.2 1.6l.15 1.6q.1 2.6 1.65 4.8l.5.5h.6l.3.05h.05l.1.05.15.05.1.05.05.05.1.05.1.1V39l.05.05.05.05 1.75.25 2.05-.3.8-1q.35-.35.8-.3v-.1l.3-.45 1.25-.05q.55.4.55 1.15 1.5.65 4.85.75L42.6 38l.6-.55.4-.5q.45-.35.9-.2l.35.15.65.1 1.5.5 1.1.65 1.1.35 1.35-.7 1.85-1.85.75-1.8q.55-1.95.65-5.45l.1-2.7q0-2.95-1-4.7-.65-1.1-1.75-1.7-1.15-.7-2.3-.5l-.7.15h-.7q-.55-.1-.85-.7t-.05-1.1q-.15-5.9-2.9-10-1.15-1.65-2.55-2.5-.75-.45-2.65-1l-1.05-.3h-2.6l-.25-.05-.1-.05-.15-.05-.15-.05-.05-.05-.1-.05-.05-.05-.05-.05-.05-.1V3.1l-.05-.05-.05-.05v-.05h-.05l-.85-.05q-2.2 0-6.1 1.1-1.65.45-2.55.85-1.2.55-2.45 1.55z"/><path d="m23.05 24.5 2.7 1.9q2.2 1.1 4.85 1.35l5.1-.45q2.35-.55 3.7-1.55 2.95-2.05 3.8-6.1.65-3.15-.35-7.3-.5-1.9-1.3-2.9-1.15-1.35-4.4-2.05-4.4-1.05-6.4-.7l-2.55.7q-2.85 1.1-4.65 2.5-2.3 1.9-3.05 4.35-.35 1.35-.35 3.2-.1 3.35 1.05 5.15zM17.6 19q-.05-2.3.45-4.55.3-1.65.9-2.8Q20.7 8 26.15 5.5q1.95-.8 3.3-1.1l7.35.4q2.8.6 4.2 1.6 1.65 1.3 2.85 4.2 1.95 5 1.4 9.15h.15l1.8.15q1.8.2 2.7.75 1.35.75 2.1 2.75 1.15 3 .95 6.9-.1 2.3-.7 3.95l-.9 1.65q-.95.95-2.25.95-1.25 0-2.3-.8-.85-.7-1.15-1.5l-.15-1.95-1.5.05-.6.05q-.1 3.4-1.3 3.95l-.8.55-1.75.3q-1.6 0-2.3-.85-.4-.45-.75-1.75-.25-1-.7-1.2-.6-.15-1.15.4l-.5 1.2q-.7 1.65-2.15 2.5l-3.25.2q-1.05-.5-1.8-1.7-.55-.95-.8-2.35-.4-2.25.1-4.55l-.05-.05q-1.3-.5-2.7-1.3-3.85-2.35-5.05-5.05-.75-1.7-.85-4m23.1-.6q-.5.7-1.4 1.05l-1.8.1q-.85-.15-1.5-.9-.65-.7-.8-1.65l-.05-.7q.1-.9.7-1.7t1.45-1.05q1.25-.5 2.55.25 1.15.75 1.4 2.15v.5q0 1.15-.55 1.95m3.1 5.75q-1.2 2.2-3.05 3.45-1.95 1.25-4.8 1.95l-4.2.65-3.3-.2v.3q-.3 1.85.5 3.75.55 1.05 1.25 1.3.75.3 1.35-.25l.7-.95q.95-2 2.2-2.6t2.5 0q1.25.65 1.5 2l.3 1 .8.6.95-.15q.55-.3.75-1.25v-1.5q0-.85.5-1.25.25-.25.65-.25l2.3-.65 2.05.1q.8.4 1.1 1.25l.2 1.65q-.1.6.15.9l.45.25 1.15-.15.45-.8q.7-2.5.4-5.7-.25-2.1-.85-3.5-.4-1.1-1.1-1.45l-.8-.25-2.6-.3-.55-.05zm-19-7.55q-.4.55-.15 1.15.15.55.8.65.55.15 1.05-.3l.15-.3.05-.75-.45-.65-.75-.15q-.45.05-.7.35m.95-1.5.9-.15 1.35.3q1.05.55 1.4 1.65.25.8.05 1.7l-.9 1.45q-.6.55-1.5.7l-1.7-.3q-.75-.4-1.2-1.15-.45-.85-.4-1.7.1-.85.6-1.55.55-.7 1.4-.95m9.2 5.8.4.6-.25.65-.85.3-2.1.1-.8.05-.85.1-.25-.35.15-.5q.1-.15.55-.2l2.85-.75q.85-.2 1.15 0m2.7-6.4-.8.1q-.65.25-.75.95-.05.55.3 1 .4.4.95.4.65 0 1.05-.55.4-.5.15-1.15-.25-.6-.9-.75"/><path fill="#fff" d="M24.8 16.6q.25-.3.7-.35l.75.15.45.65-.05.75-.15.3q-.5.45-1.05.3-.65-.1-.8-.65-.25-.6.15-1.15m12.85-2.1q.65.15.9.75.25.65-.15 1.15-.4.55-1.05.55-.55 0-.95-.4-.35-.45-.3-1 .1-.7.75-.95z"/><path fill="#717171" d="m67.35 12.1-.15.15.1.25.9 1.65.5.5.75.5 2.2.15 1-.25 1.2-1.25.75-1.5.1-.35-.4-1.45-.4-.7-.55-.25-.75-.15-.95.05-.45.05-.35.1-.7.35-1.75 1.25zm-10.9-6 4.85.2q2.5.95 3.8 3.05 3.95-4.05 8-3.65 1.25.1 2.25.65v10.9L73.3 18.3l-3.3.35q-1.65-.25-3.05-1.3-1.4-1-2.1-2.55-2.2 2.7-4 3.65-2.95 1.5-5.3.3-1.35-.7-2.55-2.6-1.15-1.9-1.1-3.55l.45-2.25q.55-1.6 1.25-2.4 1-1.25 2.85-1.85m-.9 6-.05 1q.05.4.6 1.4l.55.8q.45.45 1.7.65l.85.05.75-.2.5-.3 2.5-3.4-.1-.2-.5-.65-.9-1q-.55-.5-1.35-.8l-.8-.2h-.7l-1.6.4-.6.45-.35.5z"/></g></svg>