<svg xmlns="http://www.w3.org/2000/svg" xmlns:ffdec="https://www.free-decompiler.com/flash" ffdec:objectType="shape" width="66.55" height="36.45"><g fill-rule="evenodd"><path fill="#999" d="m64.85 17.85.65 1.65-.1 2.2-.2.95.1.1.9 1.2q.55.85.2 1.35-.25.4-1.2.45l-1.85.15h-.3l-.3.2-1.3.65q-2 .75-3.6.4-1.75-.3-3.2-1.8l-.3-.3-.75.5q-2.85 1.55-6.5.95-1.6-.25-2.6-.85l-2.6-.55q-1.45-.65-2.35-1.85l-.5-.7q-1.05-1.85-.9-5.65 0-.95.3-1.35.35-.4.9-.4t.9.35l.3.75.05.9q-.1 1.4.05 2.35.2 1.2.6 1.9.5.85 1.25 1.3l-.05-.85.3-1.35.4-.8-.05-.05-.15-.5-.6-2.2-.2-1.35q-.1-1.05.35-2.05.15-.5.5-.75l1-.2q.5 0 .95.4l.5.5.2.7.05 3.3-.05.4.2-.1q1.75-.65 3.75-.55l1.4.15v-2.6l.1-1.45.2-.65.25-.55q.3-.5.95-.6.5-.15 1.15 0 .7.1 1 .5l.1.3-.6 4-.15.75-.1.8-.1.5.15.05q.4-.75.95-1.4 1.05-1.2 2.6-1.8t3.15-.45l.7.1.35-.2 1.2-.6q.3-.15.55-.35l.65-.15q.6.05.75.6v.95l-.05.4-.15.35-.2.65-.1.4zm-4.2 4.25-.25.3-.45.9-.15-.15-.5-.25q-.45-.1-.7.25-.3.45.1.75l.35.15.35.15-.15.25q-.3.55-.05.8.3.4.7 0l.35-.55.6.3.6.1q.45-.1.35-.4l-.55-.45-.4-.35-.35-.2.1-.3.25-.45.15-.6q0-.35-.35-.25M59 19.45q.35 0 .45-.35l.1-.55h.3l1.05-.25.15-.3-.15-.35-1-.25-.35.05v-.5l-.25-.7h-.35l-.3.25q-.15.25-.15.75v.4l-.9.2-.35.1q-.2.1-.1.3l.3.2.35-.05.7.1.1.6q.1.35.4.35m-28.5 13.3L30 34q-.5.6-1.8.9l-3.15.75-4.15.75h-3.5q-4.9-.4-7.55-1.75l-1.15-.8q-.5-.6-.45-1.25.15-1.05 1.6-1.65 1.3-.55 4.2-1.05l6.65-.9 6.6.25 1.9.6q1.05.6 1.25 1.5z"/><path fill="#fff" d="M59 19.45q-.3 0-.4-.35l-.1-.6-.7-.1-.35.05-.3-.2q-.1-.2.1-.3l.35-.1.9-.2v-.4q0-.5.15-.75l.3-.25h.35l.25.7v.5l.35-.05 1 .25.15.35-.15.3-1.05.25h-.3l-.1.55q-.1.35-.45.35m1.65 2.65q.35-.1.35.25l-.15.6-.25.45-.1.3.35.2.4.35.55.45q.1.3-.35.4l-.6-.1-.6-.3-.35.55q-.4.4-.7 0-.25-.25.05-.8l.15-.25-.35-.15-.35-.15q-.4-.3-.1-.75.25-.35.7-.25l.5.25.15.15.45-.9z"/><path d="M29.85 23.8 30 26v.65q-.15 1.45-2.1 3.25.4.55.3 1.25-.1.75-.65 1.15-.7.55-2.35.5l-.7-.05-.15.2-1.05 1.25-1.55.15-.85-.15q-.9.75-2.45.4-1.15-.35-1.6-1h-.1l-1.15.3-1.3.15q-1.05 0-1.5-.35l-.7-.65-.4-.8q-.1-.7.45-1.35l-1.05-1.4-.5-1.05q-1.95.6-2.95 1.2-1.05.55-1.8 1.25l.75-.1 1.45-.1 1.4.45q.7.4.9 1.1.35 1.15-.6 2-.75.8-1.95.9l-2.3-.25-2.3-.7-.9-.7q-.3-.4-.3-1.3 0-1.25.15-1.65l.6-1.1q1.2-1.5 3.4-2.6l4.15-1.5.55-.1.2-.5.15-.25.6-.7-1.55-.15q-2.3-.35-3.7-1.65L5.3 20.7l-.3-.4-.75-.2q-.85-.35-1.4-1.15t-.55-1.7l.6-3.2.7-1.45 1.95-3.15 1.15-1.2q.7-.45 1.6-.45.95-.1 1.75.3.9.4 1.25 1.15l.3 1.15.55-1.2.35-.65.4-.55-.5-.8q-.15-.35-.15-1.15 0-1.05.15-1.55l.8-1.7.35-.95q.15-.6.4-.9.4-.5 1.1-.6.55-.1 1.1.35l.7.8.85 1.65.65.85 5.75-.2.3-.3 2.05-2.25q.6-.95 1.1-1.15.4-.2.85 0 .45.1.65.5.25.3.3 1.05l.45 1.5.35 1.45.05 1.1.1.7-.05.65.1.6.05.85v.2l.25 1.15.15.55v.1q.05-.75.4-1.25.4-.75 1.3-1.15.85-.4 1.8-.3.9 0 1.55.45l1.05 1.2 1.7 3.15.6 1.45.3 3.2q-.05.9-.65 1.7-.65.8-1.5 1.15l-.8.2-.3.4L34.9 22q-1.55 1.3-3.85 1.65zh-.3l.15.25.15.65zm-7.75-7.55-.45-.3-.25-.95-.35-.6-.5-.05q-.25.25-.35.95v.35l.05.25-.05.3-.2.05-.8.55-1.7 1.65-.2.25q0 .4.3.4l.4-.1 1.85-.8 1-.55h.05l1.8.75.8.4.8-.1q.3-.4 0-.9l-.75-.6zm-8.15-2.1.45.75 1.25-.15 1 .1.15.1.55-.95.05-.1-.25-.1q-.95-.4-1.65-.95l-.7-.85-.4.3q-.85.8-.45 1.85m13.9-1-.45-.75-.55.3-.9.55-1.85.6q0 .95.8 1.5h.7l1.3.1.35-.25q1.05-.75.6-2.05m3.35-.45-.25 1.75 1-.35 1-.1.65-.05q-.1-.15-.6-.35l-1.3-.85-.6-.7zm-20.2 0 .15-.65-.65.7q-.5.5-1.4.85-.5.2-.6.35l.65.05 1 .1.95.35q-.2-.9-.1-1.75"/><path fill="#fff" d="M27.85 13.15q.45 1.3-.6 2.05l-.35.25-1.3-.1h-.7q-.8-.55-.8-1.5l1.85-.6.9-.55.55-.3zm-13.9 1q-.4-1.05.45-1.85l.4-.3.7.85q.7.55 1.65.95l.25.1-.05.1-.55.95-.15-.1-1-.1-1.25.15zm8.15 2.1 1.45.95.75.6q.3.5 0 .9l-.8.1-.8-.4-1.8-.75h-.05l-1 .55L18 19l-.4.1q-.3 0-.3-.4l.2-.25 1.7-1.65.8-.55.2-.05.05-.3-.05-.25v-.35q.1-.7.35-.95l.5.05.35.6.25.95z"/><path fill="#999" d="m32.3 5.8.05-.25.35-.5.55-1 .75-1 1.25-1.5q.5-.5.85-.65.85-.4 1.55.15l.45.6q.25.65-.05 1.25l-.55.65-.8.4-1.15.75-.45.15-.35.3-.7.4-.85.45-.5.15zm10.9 1.6q-.35.65-1.1.8l-1.3.15-2.65.15-.45-.1q-.2-.1-.25-.4l.15-.45.85-.45 1.75-.85q.55-.4 1.1-.6l1.2-.05q.55.2.75.75zm-3.9 18.35q.25 1-.6 1.5l-1.6-.05q-.55-.35-.75-1.2l-.3-1.45-.25-1.25q-.1-.5.2-.7l.55-.05q.4.05.9.65l1.3 1.5zM9 5.7l-.75-.8-.8-.6-.8-.8-.25-.4-.15-.5v-.25l.1-.6q.3-.7 1.1-.7l.1-.05q.4 0 .9.35l.65.7.5.75.05.35.15.25.3.65.25.6.3.5.05.4.15.65.1.05-.15.45-.4-.05-.9-.55zM2.1 7.4.8 7.2Q.3 7 .15 6.4q-.2-.6.05-1.1t.85-.65l1.05.15.85.75.75.4 1.15.8.45.45-.05.6-.55.15-1.3-.25zm-.35 18.8q-.8.25-1.35-.3-.55-.5-.3-1.3l.75-1 1.3-.95L3.6 22l.45-.35.55.05q.25.15.15.6l-.4.55L2.8 25.3z"/></g></svg>