<svg xmlns="http://www.w3.org/2000/svg" xmlns:ffdec="https://www.free-decompiler.com/flash" ffdec:objectType="shape" width="55.05" height="38.25"><g fill-rule="evenodd"><path fill="#999" d="M34.2 14q.5-1.2 1.25-1.5l1.45.15q.65.5.65 1.35 0 .8-.6 1.55L35.8 16.7l-1.25.8-.5.6-.7.05q-.25-.2-.15-.65l.3-.65.15-1.3q.05-.55.55-1.55M18 26.95l2 .5 2 .05h4.25q4.75 0 7.2.85 2.15.75 2.6 2.15H37l4.25.25q1.15.25 1.75.75.85.6 1 1.5l-.05 1.1q-.2 1.6-.7 2.2l-1.5.95-3.9.75-4 .2-3.15.05-1.7-.2q-1.65-.35-2.35-1.15l-5 .6Q11.35 39 3.3 36.25q-2.65-1-3.15-2.45-.3-.8-.05-1.7t.85-1.55q1-1.1 3-1.85 4.5-1.75 10.4-1.85zm-2.35-8.85q-.35-.5-.25-1.2.1-.55.5-.95.45-.4.95-.45l1.2.4 1 1.15.9 1.25.5.55q.2.4 0 .65l-.75.15q-1.55-.2-3.05-.9zm12.7 0 .2.3q.2.4 0 .75l-.4.4-.6.05q-.55-.15-.65-.75t.45-.85zm-2.45 3.25q.95.35 1.15 1.4.1 1.1-.85 1.6l-.85.25q-.65 0-1.15-.5-.45-.5-.45-1.2 0-.45.25-.85l.8-.65zm3.4 6.15q-.75.15-1.45-.3-.7-.5-.95-1.25-.25-1.1.35-2.5l.8-1.15q.55-.4 1.2-.25.65.1 1 .6.25.35.5 1.65l.2 1.25q-.05.7-.5 1.25-.5.55-1.15.7"/><path d="M21.3 34.75q-3.5-.25-5.45-1.4-1.25-.7-2.1-1.85l-.7-1.35H13q-2.2-.15-3.45.4l1.05 1.3q.65.65.75 1.25.15.7-.3 1.5-.7 1.15-2.05 1.7l-2.15.25-3.6-.7-1.15-.4q-.7-.2-1.15.25l-.5.35q-.4 0-.3-.7.25-.9 1.1-1.35 1-.55 3.3-.05l4.25-.2L7 31.9q-.95-1.1-.8-2.4.3-1.35 1.85-2.2 1.95-1.1 5.3-1 .75-1.6 2.65-3.1 2.45-1.85 5.85-2.8v-.1l-.35-3.5-.15-2.6.25-3.35q-.1-1.4.25-1.85.45-.65 2.2-.65L27 8.3l-.1-.55-.3-1.9.05-2.7q0-1.5.5-2.15.45-.7 1.45-.9.75-.2 1.75 0l1.6.45q.85.5 1 1.35l-.15 1.15-1.2 5.4.4.55-.05.95-.2.9.15 1.75-.15 4.1-.25 2.8 2.9.45q2.7.65 4.65 2.25 2.55-1.95 5.5-2.1l1.8.1.2-.5.75-1.05q1-1.1 2.25-1.3h1.3q1.05.1 1.9.5 1 .5 1.4 1.3l.45 1.65v1.25l-.2.85-.3.85-.55.6-.7.5.3.85q.25.9.15 1.9l-.2 1.6.55.2q.55.35.95 1 .8 1.4.15 2.95l-.3.55-.8.7q-1.8 1.2-3.6 1.05l-1.55-.35-.65-.25-.55.2q-2.65.95-5.7.55-1.4-.15-2.4-.7-1.25-.55-2.5-2.15l-.7-1q-6.9 3.3-14.7 2.8m20.3-1.85.45-1.05q.1-.5.35-.65l.15-.05.4.1.9-.35.85-.6.4-.4-.05-.65q-.25-.35-.6-.4l-.1.05q-.2 0-.9.35l-.1.1-.6-.4-1.55-.35-1.7-.05q-.5.2-.5.65l.15.45 1.15.65 1.15.3-.25.35-.7.85q-.35.6-.2 1.1l.3.45.55.15zm4.35.25.45.3.55-.1.6-.55.3.1.95.1q.6-.1.6-.65-.05-.45-.75-.75l-.3-.15.6-1.2.2-.6q.1-.45-.35-.7l-.75-.05-.55.55-.8 1.25-.75-.2q-.35.05-.6.3-.3.25-.25.55.05.45.75.75l.15.05-.1.4zm-.9-11.05q-.6-.1-.85.45l-.05.8.15.85-.25.05-.6.35q-.3.3-.15.65l.4.3 1.2.1.1.2v.8l.4.45.6-.05q.35-.25.35-1.15l-.05-.35.7-.05q.95-.1 1.25-.45l.25-.7-.35-.65-1-.25-1.1.2-.25-.95q-.25-.55-.75-.6m-15.9-3.3.35-3.85q.15-2.2-.25-3.8l-4.7.15-.1 3.75.95 8.1.2.85q1.65.5 2.35.85l.55.35.2-.75.2-.8.15-.3z"/><path fill="#fff" d="M45.05 22.1q.5.05.75.6l.25.95 1.1-.2 1 .25.35.65-.25.7q-.3.35-1.25.45l-.7.05.05.35q0 .9-.35 1.15l-.6.05-.4-.45v-.8l-.1-.2-1.2-.1-.4-.3q-.15-.35.15-.65l.6-.35.25-.05-.15-.85.05-.8q.25-.55.85-.45m.9 11.05-.05-.6.1-.4-.15-.05q-.7-.3-.75-.75-.05-.3.25-.55.25-.25.6-.3l.75.2.8-1.25.55-.55.75.05q.45.25.35.7l-.2.6-.6 1.2.3.15q.7.3.75.75 0 .55-.6.65l-.95-.1-.3-.1-.6.55-.55.1zm-4.35-.25-.45.6-.55-.15-.3-.45q-.15-.5.2-1.1l.7-.85.25-.35-1.15-.3-1.15-.65-.15-.45q0-.45.5-.65l1.7.05 1.55.35.6.4.1-.1q.7-.35.9-.35l.1-.05q.35.05.6.4l.05.65-.4.4-.85.6-.9.35-.4-.1-.15.05q-.25.15-.35.65z"/></g></svg>