<svg xmlns="http://www.w3.org/2000/svg" xmlns:ffdec="https://www.free-decompiler.com/flash" ffdec:objectType="shape" width="74.5" height="40.3"><g fill-rule="evenodd"><path fill="#767676" d="m64.75 18.25-2.8 1.65-1.4.3-.15.35-.35.6-.3 3.5v2.8l.2 1.75v.7q0 1.45-.4 2-.75.9-1.95.55-1.1-.45-1.2-1.65-.05-.5.2-1.3l1.85-7.35h-.3q-1.1.15-2.15-.75l-.35-.4q-.55-.7-.4-1.85l.1-.4q.15-.5.55-.85-.75-1.05-1.05-2.45-.45-2.5.8-4.05l1.4-1.1q2.35-1.4 5.3-1l1.5.45.25.15.6-.9 1.1-1.65 1.65-1.95 1.45-2.1.7-1.4q.45-.85.95-1.25 1.25-1 2.6-.45l1.05.9q.4.65.3 1.3-.15.95-1.1 1.85L71.65 5.5l-6.25 5.4.4.5.1.15.85-.35L69 9.8l.85-.75 1.25-.5.95-.05.7.3.5.45q.6.85-.15 1.75l-1.55 1-.95.1-.6-.1-.8.15h-.7l-1.4.3-.65.2.2 1.1-.2 1.75-.6 1.5zM62.45 6q-.75-.7-.5-1.65.25-1 1.35-1.15.65-.1 1.25.35.45.45.55 1.2 0 .65-.5 1.15t-1.15.5q-.65-.1-1-.4m7 14.25 2.15 1.2 1 .4q1.1.55 1.2 1.8t-.95 1.95l-2.15.1-1.2-1.1-1.15-1.65q-.2-.8-.8-1.45l-.45-.6q-.3-.4-.25-.75.1-.6.8-.6.55-.05 1.8.7m-20.5-9.55q-.9-1.6-1.6-2.2l-.7-.4.15.65q.1.8-.35 1.45-.4.7-1.1 1l-1.5.15q-.75-.2-1.25-.8-.5-.55-.55-1.35t.35-1.45l.2-.25-4.05.05q-1.35 0-1.7-.6-.2-.35 0-.8.15-.4.55-.65l1.55-.4q5.15-.3 7.3.1 1.4.25 2.35.85.9.65 1.85 2.1 2.5 3.75 4.25 8.1.45 1.2.25 1.75-.15.65-1.25 1.4l-2.8 1.65q-.55.2-.8.5-.3.25-.7 1.15-.7 1.75-1.8 2l-1-.1.2.9q.1.95-.4 1.9t-1.35 1.45l-1.4.4-.35.05-.55.9q-.65.65-1.65.65-1.05.05-1.7-.6-.65-.55-.8-1.6L37 29.8l-2.25 1.55q-.95.6-1.8 1.35l-1.35 1.1-1.05.05-.85-.6q-.3-.45-.25-1 .1-.6.5-.95.35-.3.95-.45 2.4-.8 6.4-2.95l1.95-1 .2-.25.35-.25-.05-.65q0-1.35 1.05-2.4.6-.6 1.5-.85l-1.45-.4q-.95-.1-2.75.6l-7.5 3.35q-.95 1-2.75 1.65l-.85.25q-2.1 1.25-3.2 1.45.3 1.35-.85 2.35-.7.6-2.4 1.1l-2.55.1.35.55q.4.7.35 1.55-.1.85-.6 1.5-.65.85-1.7 1.1l-2-.2q-1.25-.7-1.5-1.95l-.1-.55q.1-1.55 1.35-2.4 1.15-.85 2.7-.35l.3.15q-.45-.55-.65-1.45-.4-1.4.25-2.5.35-.55 1-.75l1.25.05q.55.25.65 1 .05.65-.3 1l.6-.1.65-.25-.1-.65q-.2-.7.35-1.4l.85-.8-.45-.55q-.9-1.05-1.1-1.85L20 22.75v-.45q-6-1.35-10.3-1.8l-1.85-.3-1.5-.95q-.45-.65-.4-1.5.1-.85.65-1.4.5-.6 1.35-.7l1.55.15 1.05.7q1 .65 2.85 1.5 2.7 1.25 5.3 2.1l1.6.65.2-.5.85-1.1q1.65-1.85 3.8-2.2l2.5.15v-.25l.05-.1.05-.1v-.05l.05-.1.05-.05v-.1l.05-.05v-.1l.05-.05v-.4l.05-.1v-.35l.05-.1v-.85l.05-.1v-.45l.05-.1v-.15l.05-.05v-.1l.05-.05.05-.1v-.05l.05-.1v-.15l.05-.1v-.15l.05-.05v-.1l.05-.05v-.1l.05-.05v-1.6l-.05-.05q-1.6.15-3.1-.8l-.75-.65q-.9-1.05-.75-2.65l.05-.15q-.8-.55-1.9-.9l-1.65-.5L19 4.3q-.35-.3-.45-.8-.1-.55.1-1 .6-.6 1.1-.65.45-.05 1.15.45l.85.5.5.4.7.8.85 1.1.5.35q.35-.7.95-1.25 1.8-1.65 4.1-1.15 1.05.25 1.85 1.05.85.8 1.1 1.85l.1.7-.35 1.6q-.75 1.6-2.4 2.15v.2l-.05.1v1.7l.05.1v.05l.05.1v.15l.05.05v.25l.05.1.05.05v.1l.1.05v.1l.05.05v.25l.05.1v.35l.05.1v.95l.05.05v.3l.05.1v.45l.05.1v.05l.05.1.05.05v.1l.05.05v.1l.05.1v.05l.05.1v.55l.05.05V19l.3.45.5 1.15.4 2.05.05.35 2-.65q1.25-1.2 2.55-2.1l1.7-1.3.6-.75.7-.5.9.1.5.45.65-.25q.65 0 1.35.7.85.75 1.15 1.45l.8.4 2.1.85h.45l.2-.45.05-.55q.05-.6 1.15-1.25l3.6-2.15q-.3-1.45-1.35-3.25zm.95 22q.35.5.3 1.1l-.45 1.05q-.4.4-1.05.45-.6.05-1.1-.3-.45-.35-.6-.95t.1-1.1q.25-.55.85-.8l1.1-.05zm14-3.55q.15-.4.8-1.05l.95-.55.75-.05 1.3.35q1 .55 1.1 1.7l-.1 1.2-.1.4-.35.7-.7.7-.85.3-.6.1q-.95 0-1.7-.65-.65-.65-.75-1.7zM13.4 8.7l2.1-.15q1.05.5 1.3 1.65.2.8-.3 1.65-.45.8-1.25 1l-1.6-.1q-.85-.35-1.2-1.15-.35-.75-.05-1.6.25-.9 1-1.3m6.25 6.65.8 1.8.1.45-.3.3-.45-.05-.7-.6-1.1-.8-.7-.3q-.45-.3-.6-.85-.2-.5 0-1.05.25-.5.75-.75l1-.15q.55.1.9.55.35.5.3 1zm-8.55 19.1q-.45.55-1.1.15-.6-.45-.35-1.1l.15-.2q.3-.3.6-.3l.05-.05q.55 0 .8.55.2.55-.15.95M0 36.65l.1-.7.25-.6q.7-1.55 1.5-2.2 1.1-.8 2.6-.45.25-1.35 1.15-3l1.5-3.3.25-.8.5-.75.75-.65 1.95-.05q.95.5.95 1.65t-1.35 2.3l-.6.6-.6.85-.4.45-.55.8-1.45 2.45-.25.25.65.5 1 1.15q.95 1.75.05 3.6l-.45.7-1.15.75-1.15.1-2.75-.1q-.9-.2-1.55-.75-.7-.6-.9-1.45zM2.75 29l-.35-1.6q-.25-1 .55-1.55l1.6-.1q.85.5.6 1.55l-.9 1.35-.5.95q-.35.6-.75.35l-.25-.45zm34.2 7.05q-.3-.55.05-1.4.25-.5.85-1.1l1.45-1.25q.45-.45.75-.2.3.2.2.75l-.5 2.3-.65 1.25q-.55.5-1.2.35-.7-.1-.95-.7"/><path d="M58.15 14.3q.85 1.5.8 2.1-.15 1.1-1.55 2.2l-.65.6.3.6.4 1.1.85 1.25.2.3.45.7-.15.55-.5.3-.6-.25-1.35-1.05-1-.75-.45-.2-.55-.4-1.6 1.5.25.3.4.5.3.25.25.4.9.9.35.3.2.35.45.6.1.3-.2.3-.5.15-.45-.15-.75-.35-.6-.2-.7-.5-.55-.2-.35-.25q-.2-.15-.75-.4l-.45-.2-.55.55-1.4 1.25q-.75.55-1.6.45-.75.1-1.9-.7l-3.85-2.1-1.25-.45q-.7-.1-1.9.5l-2.55 1 .1.75.25 1.05-.25.9-.55.6q-.55.2-1.1-.45l-.7-1.1-.55-.55-.05-.05-1.85.75.15.55.1.7.05.95-.35.5-.6.2q-.4 0-1-.4l-1.1-1.1-.15-.3-2.35.9q-.15 2.4-2.2 4.1-1.65 1.15-4.45 1.8l-2.3-.2q-.65-.5-1.3-1.75l-1.85-3.7q-.85-2-.4-3 .25-.5 1.45-1.2 3.1-1.9 5.25-1.9l2.45.05 1.95-.85 1.1-.6-.3-1.55v-.7q-.1-.85.4-1.1l.75.1.6.5.9.55.6.65 2.4-1.25.1-1.45v-.75q0-.4.3-.65l.55-.05.5.3.7.95.4.35 4.35-2.1q1.35-.75 2.15-.7l1.9.55 3.5 1.35 1.15.25.8-.75.85-.85-1.85-3.8-.9-1.55-1.4-1.1-1.55-.4-2.35.15-4.05.7h-.05l.3.95.3.85.25.35.2.85-.05.4-.4.4-.65-.1-2.2-1.95-1.15-1.05q-.55-.85-.1-1.8.1-.3.45-.65l.2-.45q.25-.55 1.15-1.4l2.8-2.75q1.25-1.25 2.25-1.7l2.7-.1 5.7.4 2.3.4 2.45 2.1.5.75.95-.5 3.7-1.7 1.3-.5.7-.15q.45 0 .6.35v.6l-.4.45-1.65 1.3-3 2.5.25.6.25 1 .1.3 3-1.4 1.65-.6.85-.5 1.05-.4h.7q.45.25.15.85l-.7.65-2.7 2.35-2.4 1.6-.3.2 1.1 1.9zm-10.1 5.55-1.1.5-1.65-.05-.45-.15-1.3-.55-1.75-.7-2-.35-1.35.45q-3.5 1.6-7.25 3.5-1.45.75-2.95 1.6l-3.15 1.65-1.25.7-1.1.3-2.55.05q-2.2.05-3.8 1.45l2 3.95q2.55-.3 3.35-1.3l1.3-1.8.6-.6.95-.7.7-.35 13.35-6.55q.9-.55 1.7-.6.85 0 2.15.7l4 2.15.75.15h.2l.4-.3.1-.1L55 16.15q-1.3-4.05-3.7-7.4l-1.6-2-1.3-1.1-1.1-.2L42.35 5l-.65-.05-1.25.05q-.85.2-1.25.85l-.25.55 1.85-.3 1.7-.35.3.05q.7.05 1.95.65l1.9.9q1.15.7 1.65 1.35.6.75 1.25 2.25L49.9 12l.55 1.3.9 1.6q.4.75.25 1.4l-.1.25-.7.9-.75.55-.9 1zM18.3 30.25q-.3-.95.25-1.65.45-.5 1.15-.55.7 0 1.15.55.75.6.3 1.65-.4.95-1.35.95-1.15 0-1.5-.95"/></g></svg>