<svg xmlns="http://www.w3.org/2000/svg" xmlns:ffdec="https://www.free-decompiler.com/flash" ffdec:objectType="shape" width="72.2" height="41.55"><g fill-rule="evenodd"><path fill="#999" d="M21.05 14.05h.35l.15.05.2.05.25.1.15.1.15.1.1.05.1.1.15.1.1.1.05.05.05.1.1.1v.1l.05.1.1.05v.1l.05.1.05.1.05.05v.1l.05.1v.2l.05.05.05.1v.45l.05.1V20l-.05.1v2.15l-.05.1v.85l-.05.1v2.65l.05.1v8.4h-4.6v-12.1l-.05-.1v-.55l-.05-.1v-5.3l.05-.1.05-.1v-.15l.05-.1v-.1l.05-.1.05-.05v-.1l.05-.1v-.1l.1-.05.05-.1.05-.1.05-.1.05-.1.1-.05.1-.1.1-.1.1-.1.1-.05.15-.1.2-.1.25-.1.2-.05.15-.05zm8.9 4h.35l.1.05h.05l.2.05.25.1.15.1.15.1.1.05.1.1.15.1.1.1.05.05.05.1.1.1v.1l.05.1.1.05v.1l.05.05v.05l.05.1.05.05v.1l.05.1v.2l.05.05.05.1v.45l.05.1V24l-.05.1v2.15l-.05.1v.85l-.05.1v2.65l.05.1v4.4h-4.6v-8.1l-.05-.1v-.55l-.05-.1v-5.3l.05-.1.05-.1v-.15l.05-.1v-.1l.05-.1.05-.05v-.1l.05-.1v-.1l.1-.05.05-.1.05-.1.05-.1.05-.1.1-.05.1-.1.1-.1.1-.1.1-.05.15-.1.2-.1.25-.1.2-.05.15-.05zm-17.7-10h.35l.15.05.2.05.25.1.15.1.15.1.1.05.1.1.15.1.1.1.05.05.05.1.1.1v.1l.05.1.1.05v.1l.05.1.05.1.05.05v.1l.05.1v.2l.05.05.05.1v.45l.05.1V14l-.05.1v2.15l-.05.1v.85l-.05.1v2.65l.05.1v11.8l-.05.1v1.95l-.05.1v.2l-.05.05-.05.1v.1H10.1v-.1l-.05-.1-.05-.05v-.45l-.05-.1v-17.3l-.05-.1v-.55l-.05-.1v-5.3l.05-.1.05-.1v-.15l.05-.1v-.1l.05-.1.05-.05v-.1l.05-.1v-.1l.1-.05.05-.1.05-.1.05-.1.05-.1.1-.05.1-.1.1-.1.1-.1.1-.05.15-.1.2-.1.25-.1.2-.05.15-.05z"/><path d="M30 16.05h-.35l-2.5-2.25-.2-.25-.05-.25.05-.45.05-.1.05-.1.1-.05 1.15-.15-.05-.55-.05-1.7q.25-.3.55-.5h2.4l.55.5-.05 1.7-.05.55 1.15.15.1.05.05.1.05.1.05.45-.05.25-.2.25-2.5 2.25H30m.75-2.25h-.05v.05zm-1.6 0 .05.05v-.05zM57.65 4.85l1.95-.1L61.1 2q.75-1.75 2.6-2 2.15.6 3.5 2.65l2.95 4.65q1.25 2.15 2.05 4.45V25.2l-.3.55.3.25v15.55l-7.1-.6q-3.6-.6-3.7-2.35v-2.45l-.55.4-1.8 1.2q-4.55 2.85-9.85 2.1-1.3-.15-2.4-.85-3.15-1.8-1.95-5.2.5-1.4 1.85-1.95l1.65-.4q.15-.8.9-1.55.45-.4 1-.4 2.5.6 2.1 3.25l-.3.95.25.9q3.5-.2 6.5-1.85-3.5-.3-6.5-2.45-2.85-2.05-4.45-4.9-3.25-1-5.55-3.95l-.7-1.25q-.95-2.6 1.65-3.6l3.3-1.2q.75-3 2.7-5.6 2.15-2.85 5.5-4.15zm-2.6 15.9q-2.05.1-3 1.95-1 2 .45 3.7 1.4 1.65 3.25 1.2-.05-.7.2-1.4.7-1.95 2.35-2.9-.55-2.2-3.25-2.55M65.15 24l.05-.45.55-.1q3.4-.65 3.65-3.95l-.05-.1-.15-.15-.1-.1-.15-.1-.25-.05-.3.05-.15.1q-1.1 1.95-3.35 1.6-.35-.3-.75-.3-1.55-.05-1.7 1.05l-.05.05q-.4.9.2 1.7v1.25l-.05.2-.25.45-.05.15-.4.4-.2.15-.75.25-.25.25v.1l-.05.15.05.1v.1l.05.1.05.05.1.1.85.2q3-.2 3.45-3.25m1.2-13.35q-2.15.1-3.05 2.05-1 2.1.6 3.75.8.8 1.7 1.05 1.3-2 3.7-2.75l.45-.1v-.15q.1-3.45-3.4-3.85m-62.7-7.7L3.9 3l.25.05.2.1.2.05.1.1.15.1.05.1.1.05.05.1.1.1.05.1.05.1.05.05v.1l.05.1v.1l.05.05v.4l.05.05v.8l.05.1v4.55l.05.05v7.25h.4l.25.05.25.05.2.1.15.1.15.1.05.05.1.1.1.1.05.1.05.05.05.1.05.1.05.1v.1l.05.05v.1l.05.1v.45l-.05.1-.05.05v.1l-.05.1v.1l-.1.05v.1l-.05.1-.1.1-.05.1-.1.05-.15.1-.1.1-.15.1-.15.05h-.1l-.15.05-.25.05h-.4V31l-.05.1v1.2h3.6l5.1-.05h6.65v-.05h3.7l4.65.05h1.6l.5.05h4.45l.15-.05h2.6l.15.05.2.05.2.1.2.05.1.1.15.1.1.1.1.1.1.05.05.1.05.1.05.1.1.05.05.1v.1l.1.1v.1l.05.05v.1l.05.1v.15l.05.1v.55l-.05.1V35l-.05.1v.1l-.05.1v.05l-.1.1v.1l-.05.1-.1.05-.05.1-.05.1-.05.1-.1.05-.1.1-.1.1-.15.1-.1.1-.2.05-.2.1-.2.05-.15.05-.35.05h-1.9l-.35-.05-.15-.05h-4.45l-.5.05-1.6.05H17.4l-3.25-.05-5.1-.05h-4.5l-.35-.05h-.1l-.2-.1-.25-.05-.15-.1-.05-.05H3.3l-.1-.05-.2-.05-.2-.1-.2-.1-.1-.05-.1-.1-.1-.1-.05-.1-.05-.1-.1-.05-.05-.1-.05-.1-.05-.1-.05-.05v-.1l-.05-.1v-.1l-.05-.1v-3.6l-.05-.1V20.8H1.6l-.3-.05-.2-.05-.25-.1-.15-.05-.1-.1-.1-.1-.1-.1-.05-.05-.1-.1L.2 20l-.05-.1-.05-.1-.05-.05v-.2l-.05-.1v-.5l.05-.1v-.2l.05-.05.05-.1.05-.1.05-.1.1-.05.05-.1.1-.1.1-.1.1-.1.15-.05.25-.1.2-.05.3-.05h.15v-7.35l.05-.1v-4.5l.05-.1v-.8l.05-.1V4.3l.05-.1v-.05l.05-.1.05-.1.05-.1V3.8l.1-.1.05-.1.1-.1.1-.1.1-.05.1-.1.15-.1.2-.1.2-.05h.45z"/><path fill="#fff" d="M66.35 10.65q3.5.4 3.4 3.85v.15l-.45.1q-2.4.75-3.7 2.75-.9-.25-1.7-1.05-1.6-1.65-.6-3.75.9-1.95 3.05-2.05M65.15 24q-.45 3.05-3.45 3.25l-.85-.2-.1-.1-.05-.05-.05-.1v-.1l-.05-.1.05-.15v-.1l.25-.25.75-.25.2-.15.4-.4.05-.15.25-.45.05-.2v-1.25q-.6-.8-.2-1.7l.05-.05q.15-1.1 1.7-1.05.4 0 .75.3 2.25.35 3.35-1.6l.15-.1.3-.05.25.05.15.1.1.1.15.15.05.1q-.25 3.3-3.65 3.95l-.55.1zm-10.1-3.25q2.7.35 3.25 2.55-1.65.95-2.35 2.9-.25.7-.2 1.4-1.85.45-3.25-1.2-1.45-1.7-.45-3.7.95-1.85 3-1.95"/></g></svg>