<svg xmlns="http://www.w3.org/2000/svg" xmlns:ffdec="https://www.free-decompiler.com/flash" ffdec:objectType="shape" width="66.2" height="40.75"><g fill-rule="evenodd"><path fill="#767676" d="m12.85 26.9 1.1-.6 3.7-1.2.75-.5.85-.1q.4.1.7.35l.5-.35q-1.5-.9-1.95-1.8l-.25-.35-.3-.15q-1.3-.45-1.6-1.05-.25-.35-.25-1.65l-.25-1.6-.05-1.15-.35-.3-.35-.95-.55-.8-.1-.2-.5-.4-.45-.25q-.25-.05-.65.25l-2.45 1.7-.4.2-.5-.1q-.5 0-.7-.5l-.1-.85-.65-2-.2-.6.05-.3.25-.1q.25 0 .3.15l.2.15.05-.3.1-.45q-.6 0-1-.4l-.4-.55q-.4-.65-.15-1.3l.25-.35.05-.25.1-.05q.3-.8 1.15-1.95l.35-.35.35-.15q.6-.2 1 .2l.4.95.05.15.2.3q.6 1 .65 1.65.1 1.05-.6 1.75-.75.75-1.55.3l-.4 1.05-.15.35.9 1.8.05.05 1.15-.65.6-.5q.55-.45 1.05-.65l1-.2q.4.05 1 .55l.8.5q.1-1.25.4-1.85.25-.55.85-.8-.3-1-.3-2.15l.05-1-.15-.4L16 4.9l-.05-.8q.15-.4 1.1-.6l.55-.05.1-.15q.4-.35 1.3-.45l1.3-.05.75.15.05.05 2.4.5.1.05.65-.95q.3-.25.9-.45L29.2.7q1.25-.4 2.05 0l1.8 1.1.45.5.25.25.35-.3.55-.2 2.05.05 1.1.4 1.1.4.85.55.25-.15q1.2-.55 2.05-.5h1l.75-.3.95.1.7.6.2.7.4.2q.5.5.6 1.35l-.2 1.5-.5 1.4-.35.5.1.5-.05.5.15.45.05.15.65.1.4.1.15-.05q.9-.2 2.1.35l.65.45.15.2.35-.05q1-.1 1.35.75l.1.65-.15 1.5-.25.85q.1.5-.4.9-.4.4-1 .2-.35-.1-1-.75l-1.1-1.15q-.2-.45-.1-1.1.1-1 .7-1.2h.5l-.25-.3-.8-.4h-.65l-.15.15-.45.2.15.3.1.35.05 1.25-.05.7-.3.45-.65.65v.7l-.35 1.85-.25.95-.85.85-.1.1.1.3.15.6.05.65-.25.75-.25.4-2.05 2.05-1.4.55.25.2.9.25q.85.15 1.25.9l.2.4.95.3 1.25.5.45.45.5.3h.35l1.1-.55 1.1-.4.7.25.95-1.3.35-.45.35-.7-.1-.3-.1-.85.1-.7q-.15-1.25 0-1.9.1-.7.65-.7.45 0 .55.7l.05 1.15v.2l.1.9.05.2.1.45v.05l.25-.05.75-.2 1.15-.1 1.5.05h.45l.45.35.25.7.2.2.5.6-.4.25-1.2-.9-.5-.4-.75.15-2.15.2-.55.1-.2.3-.05.1-.25.3-.5 1.15.1.35.05.5.5-.05q.85 0 1.2.6l.7.95q.45.75.3 1.7l-.6 1.7-.25.65-.1.6-.35.6-.9 1-1.25.45-1.45.4-1.15-.05-.2.1-1.45.25q-1.35-.2-2.15-1.55h-.05q-.75-.1-1.95-.8l-.4-.3-.3-.45-.4-.35q-.85-.85-1.3-1.9l-.5.95v.05l.55.2q.6.35 1.15 1.75l.2.7.15 1.5-.2 1.25q-.45.8-1.25.85-1.05.15-1.8-.85-.5-.7-.6-1.95-1.3-.55-1.7-1.45l-.15-.7q.05-.7.45-1.1l-.2-.55.15-.45.2-.5.05-.3-.7-1.45q-.15-.95.45-1.55.6-.75 1.45-.75 1.1.1 1.65.95l.45 1.2.1.05.15.65.35-.2 1.15.1 1 1 .25.3.5.15.3.25.45.15q1.75.25 2.2.6l.5.85.3.65q.3-.35.8-.3l.6.15.35-.2.95-.7 1-.7.05-.65-.55.05q-.6 0-1.2-.6l-.45-.25-.35.1q-1.45.6-1.9.6l-1.55-.55-.8-.3-.5-.4-.65-.3-.8-.4-1.5.05q-.95-.4-1.05-1.5l-.55-.65-.6-.7-.55-.3-.75-.45-.45-.1-.5-.7.2-.55q.25-.3 1.05-.4l.4.05q-.25-.7.2-1.4.3-.35.9-.65l1.1-.45 1-.8.3-.35.15-.85-.2-.75q0-.8.65-1.2l.55-.4.25-1 .25-.6-.1-.25.05-.6.15-.2.1-2.85v-.05l-.45-.45-.4-.5q-.1-.3-.05-.8l.1-.8V8.6q-.05-.6.25-1.8l.2-.85-1.9.25-1.3.25-.85.1q-.6.2-1.25 0l-1.4-.65-.6-.25-1.4-.35-.2-.05-.4.35-1.05-.05-1.05-.4-1 .05-1.05.35-2.45.5-2 .45-.1.5q-.3.95-1.4 1.05-.8.15-1.75-.45l-.9-.5-1.4-.3.15 3.25.2 1.65q0 .9-.55 1.55l-.8.8-.15.4.6.4q.55.55.45 1.35l-.15.8q-.1.55.1 1.55l.2.75 1.4 2.15.9 1.1.8.9.25.4.4.3q.6.5.45 1.2-.05.9-1.55 1.65l-.4.15.55.1q.8.3 1.2 1.15.35.85-.15 1.55-.3.45-1.15.9.25.4.05.9l-.45.65-.3.65-1.4 2.7-.75 2-.5.7q-.4.4-1.05.5-.6.05-1.1-.3-.5-.3-.7-.9-.2-.55 0-1.1l.45-.75 2.45-3.3-1.45.75-1.45.15-.1.25-.4.8-.85.85-.5.7q-.65.8-2.05 1.15l-2.7.25-2.4-.2-.95-.3q-.55-.3-.95-1.45v-.05l-.55-.05-1-.3-.3-.2-.7-1.05q-.25-.65.05-1.25l.2-.35.05-1.65q.15-.9 1.05-1.4l.6-.25.1-.6q.3-1.2.95-1.6l.95-.4 1.05-.25.85-.1h1.1q.55.1 1.15.65l.75 1.1.15.25.3.05.3.1q.05-.85.5-1.3m.95 4.1q-.8-.15-1.2-1l-.2.05-1 .2-.95.2-.9-.25-.55-.4h-.35l-.15.05-.15.25q-.25 1.15-1.45 1.4l-.9-.05v.1l.7.15q.9.25 1.25 1.15l.1.55h.05l2.9-.25.45-.15.3-.35q.9-1.25 2.05-1.45l1.05.05.15-.4zm4.55-2.9-.7.2-1.55.7-.1.3q-.15.8-.65 1.3l.4-.1.3-.05.35-.25.75-.85.85-.45 2.1-1.3h-.05l-.7.05z"/><path d="M62.05 2.5q.3-.95 1.35-1.3 1-.25 1.9.25l.8.9q.3.7-.3 1.6l-.75.75-1.05.15h-.4l1 .85.6.15.55.3q.4.4.2 1l-.65.8-1.2.2-.7-.6-.95-1.15-.15-.1-.45.7-.4.75-.25.4-1.3.05-.8-.45q-.35-.35-.35-.75 0-.6.65-1.05l1-.75-.1-.05-.1-.05-.65-.05q-1.05-.2-1.5-.8-.35-.45-.25-1.15.05-.65.45-1.2l.8-.55.95.05q.75.1 1.05.45.3.3.45 1.1l.4.35.05.05zM55 7.25l-.45-.45-.1-.7v-.15h-.3l-.85-.05q-.5-.2-.4-.7 0-.45.45-.65l.9-.1h.35l.1-.85.8-.1.1.35.15.55q.65 0 1.1.5l.15.5-.6.5-.5.1-.15.8q-.25.55-.75.45M32.9 2.95l2.7.3q1.4.25 2.5.75.5.2 1 .55l1.85-.5 1.3-.3 1.05-.1q.65.1 1.05.7l.3 1.15.05 1.05-.35 3.5-.1.8.5 2.25q.3 2.95-1.05 6.2-1.05 2.45-2.45 3.85L38.8 25q.65.3 1.4.85l2.1 1.65q1.9 1.4 4.35 2.1l.95.15.95-.3 2.05-.1q1.1.25 1.85 1 .7.8.85 1.65.3 1.8-1.3 3.05-1.35 1-3.3.9-1.5-.05-3.4-.75l-2.05-1-1.55-1.3-3.75-3.6.25 1.9.75 4.65q.45 2.35 0 3.35-.6 1.4-2.05 1.55-1.5.15-2.3-1.05l-.2-.3-1.6.05-10.45.3-2-.1q-1.5-.4-1.75-1.95-.2-1 .5-2.7 1.25-3.3 2.55-5.65l-1.8 1-6.15 3.7-1.95 1.1-2.5.45-2.65-.3-1.5-1.15q-.65-.85-.75-1.8t.3-1.9T5.8 28.9t1.75-.75l1.9.1 1.35.55 1.35.3 1.25-.3 5.2-2.2 3.95-1.65-2.3-1.8q-1.9-1.85-2.7-4.15-1.05-3.05 0-6.4l.3-.85-.1-.3q-.2-.8-.1-1.95l.05-2.85-.1-.45q-.35-1.05.4-1.7.55-.5 2.1-.4l3.7.75.25.1q1.2-.65 2.55-1.1l1.9-.5zm8.05 11.4-.25-.9.05-.05q.65-.3.65-.95.1-.65-.5-1.05l-.9-.2h-1l-.7-.1-3-.05-.95.1q-.2-.3-.6-.3l-.5-.2-.65.35-.1.8.15.65.1.15q.05.55.55.8l1.45.05q-.3.6-.3 1.25 0 1.45 1.15 2.45 1.1 1 2.6.75 1.5-.15 2.25-1.5.6-.85.5-2.05m-14-.1-.05-.2h.35q.7 0 1.15-.45.55-.55.35-1.6l-.15-.55q-.2-.35-.7-.45l-.85.2-.3.25-.55.2-2.9.05h-.85l-2.3.35-.45.3q-.2.35.15.6l.55.2h.65l.3.05q-.65.9-.45 2.15.25 1.75 1.8 2.4l2.45.05q1.2-.55 1.65-1.75l.25-1.25zm-.05 6.9.4-.25q.4-.3 1.7-1.05l.65-.3.6-.1.55.3 1.3.65 1.3.4.55-.15.15-.55q-.1-.15-.4-.25l-2.3-1.5.05-.25-.1-.85v-.6l-.3-1q-.1-.5-.45-.55l-.15.1q-.15 0-.25.3l-.35 1.25v.7l-.1.35v.1h-.05q-.1 0-.5.3l-2.5 1.75-.3.7q0 .5.5.5"/><path fill="#fff" d="M40.95 14.35q.1 1.2-.5 2.05-.75 1.35-2.25 1.5-1.5.25-2.6-.75-1.15-1-1.15-2.45 0-.65.3-1.25l-1.45-.05q-.5-.25-.55-.8l-.1-.15-.15-.65.1-.8.65-.35.5.2q.4 0 .6.3l.95-.1 3 .05.7.1h1l.9.2q.6.4.5 1.05 0 .65-.65.95l-.05.05zm-14-.1.1.55-.25 1.25q-.45 1.2-1.65 1.75l-2.45-.05q-1.55-.65-1.8-2.4-.2-1.25.45-2.15l-.3-.05h-.65l-.55-.2q-.35-.25-.15-.6l.45-.3 2.3-.35h.85l2.9-.05.55-.2.3-.25.85-.2q.5.1.7.45l.15.55q.2 1.05-.35 1.6-.45.45-1.15.45h-.35zm-.05 6.9q-.5 0-.5-.5l.3-.7 2.5-1.75q.4-.3.5-.3h.05v-.1l.1-.35v-.7l.35-1.25q.1-.3.25-.3l.15-.1q.35.05.45.55l.3 1v.6l.1.85-.05.25 2.3 1.5q.3.1.4.25l-.15.55-.55.15-1.3-.4-1.3-.65-.55-.3-.6.1-.65.3q-1.3.75-1.7 1.05z"/><path fill="#767676" d="m46.95 3.35-.5-.6-.55-.6-.35-.3q-.35-.4-.1-.9L45.8.7l.8.1.6.65.75 1.05-.25.75zm.55 5.25-.45-.55v-.7l.1-.9q.1-.6.3-.85.35-.4.85-.25.55.2.55.7l-.1.55-.3 1.05-.3.65zm-4.8-6.85-.45.1-1.25.1h-.45q-.35-.05-.45-.5l.45-.55.65-.45.85-.35.85.2q.4.3.3.8zM38.6.4q.4.4.25.85-.1.5-.6.6-.45.15-1.05-.25l-.8-.5-.7-.3V.55q.25-.25.85-.45l.5-.1 1.1.15zm9.1 18.55q.05.45-.5.85l-.9.4q-.55-.1-.65-.65-.1-.5.35-.85l.35-.3.15-.35.1-.35q-.25-.35-.1-.8.25-.5.75-.5.6 0 .75.5v.7l-.15.5-.15.35v.5m-3.6 5.25.55-.55.45-.55.15-.65q.15-.4.65-.5.45 0 .7.45l.05.45q.1.55-.15 1.1l-.6.75-.7.6q-.6.2-.9 0-.6-.4-.2-1.1m12.45 4.9.35.7q.25.4.1.8l-.4.75-.55.3q-.55.2-.9-.35-.3-.45 0-1l.25-.3-.1-.25-.2-.15q-.5-.35-.5-.85 0-.6.5-.85.4-.15.8 0l.45.6.05.45zm-9.7-3.25 1.65-.2.25-.45.5-.35q.35-.15.65 0l.5.5q.1.45-.15.75l-.55.65-.25.2-.4.1-.7.05-.75.05-.4.25q-.6.2-.85-.3l-.1-.45q0-.3.15-.45zm9.1 8.35-.05.75-.2 1.5q-.25.5-.8.5-.5 0-.8-.55-.15-.3.05-.85l.45-.75.4-.55.4-.45.5.1zm-5.05 4.7q-.55 0-.65-.55l.15-.45q.2-.3 1.05-.4l.85-.2.55.1.4.3-.15.45q-.25.35-1.1.55zM20.05 1.6q-.2-.3-.05-.6.2-.4.95-.4h1.2q.55.1.85.55.25.65-.1 1l-.7.25-1.65-.5zm-1.9-.6.55.35.05.6-.1.05v.1l-1.1.35h-.05l-.7.3h-.25l-.35-.25q-.3-.35-.2-.7l.55-.5.7-.1.35-.05h.05zm-4.1 3.4-.15-.1-.15-.2V4l-.35-.6.05-.4.1-.25q.35-.5.9-.6.3 0 .6.3.25.35.1.65l-.3.6-.3.4-.1.05-.1.2zm1.8 3.5q.1.65-.15 1l-.4.4q-.3 0-.5-.35l-.15-.65-.4-.9-.4-.55q-.15-.35 0-.7.15-.4.5-.5l.7.05.45.5.2 1.1zm-1.95 3.55q-.25 0-.55.2h-.75l-.45-.6q0-.4.6-.8l.7-.4.7.05.55.35.65.55.05.7-.55.35q-.6-.4-.95-.4m2.1 10.2q.45.45.1.95-.3.5-.85.3l-.75-.55-.45-.5q-.3-.4-.15-.95l.2-.65.1-.6q0-.35.25-.6.3-.25.55 0l.15.4.05.9.25.85zm-2.5-4-.5-.5h-.05q-.6.1-.7.3l-.55-.05-.35-.45q-.15-.35.2-.8l1.25-.75.3-.1q.4 0 .7.3l.2.35.15.15.3.7v.6q-.2.45-.65.35zm.3 6.15.8-.15.8-.1.4.1.15.35-.2.25-.6.5-.9.35q-.35.65-1 .55-.65-.15-.75-.85 0-.65.6-.9zm-3.85 1.35-.85-.05-.4.05-1.3.4-.7.15q-.7 0-.8-.75-.1-.65.6-.9l.55-.1 1.65-.25q1.1-.1 1.45.65.2.55-.2.8M1.7 30.6l-.2.95.2.15.35.55-.15.6q-.4.65-1.1.3l-.45-.45-.3-.5-.05-.55.05-.7q.1-.6.65-1l.75-.1zm.7 4.9.5.1.45.55q.1.45-.3.65l-.3.15-1.1-.2q-.5-.25-.65-.95.1-.6.7-.7l.5.25z"/></g></svg>