<svg xmlns="http://www.w3.org/2000/svg" xmlns:ffdec="https://www.free-decompiler.com/flash" ffdec:objectType="shape" width="76" height="42.75"><g fill-rule="evenodd"><path fill="#999" d="M75.95 5v4.15l-.2.25q-3.35 4.4-7.95 9.3l-9.95 10-3.7 3.4q-2.15 1.7-4.1 2.5l-1.55.55-.8.45q-1.1.5-3.25.6-4.25.25-8.45-1.25-2.35-.85-3.9-1.9-1.95-1.35-3.3-3.35l-.4.25-1.05.55.9 1 .3.85q-.1.55-.75.6l-1-.05-2.75-.25-.7-.05-.75.15q-.55-.05-.75-.35l-.1-.15-.05-.1q-.2-.3 0-.75l.4-.65.25-.65.9-2.45.4-.9q.35-.55.85-.45l.7.65.55 1.15.95-.7.65-.3q-.65-1.45-.9-3-.45-2.95.3-5.85l.25-1.9q.25-1.1 1.35-3 2.55-4.3 4.25-5.9 2.35-2.2 6.35-3.6l4-.95h.4q3.75-1.05 7.85-1.1l1.05-.4 1.2-.25.75.1.95.85q.15.45-.05.9l.55-.2 3.8-1.15q1-.3 1.95-.75l.8-.1q.3.2.15.55-2 .7-4.4 1.8l-7.9 3.35q-.7.25-.55.65l.75.15 15-4-6.2 3.8-1.8 1.2.5.45.2.45.35-.2q6.6-3.35 9.65-4.35l.5-.15q-5.75 5.7-11.2 11.65l-.1.2.2.2.35-.15 1.4-.95q6.65-4.8 12.3-10.15L73 3.9l1.45-1q.8-.9.5-1.65l-.05-.15.85.2.2.15H76l-.05.05h-.05l-.15.1-.7.7-3.7 4.6q-4.75 5.8-8.1 11.15l.2.05q2.05-1.65 5.1-5zM66.4 23.45l-5.35 4.25-.2.1-.15-.1.05-.15 11.9-12.9 3.1-3.2.1-.1.1-.05v2.95l-.2.2-.75.7-2.35 2.35-2.35 2.45zm-14.8-9.8v.1l-.05.05-.05-.2v-.05l-.05-.05v-.15l.15-.05.05.25v.05zm-9.2-1.25-.05-.1-.15.05-1.45.25q-.85-.1-1.4-.85t-.45-1.55q.2-1.05 1.2-1.8.65-.45 1.9-.95l1.7-.65-.1-.1-.25-.6-3.95 2.3q-5.3 3.6-7.35 8.25-1.15 2.7-.95 5.5.15 3 1.75 5.2 2.6 3.65 8.4 4.7l3.95.2q-.25-.55-.15-1.2.15-.65.65-1.1-.6-.2-1-.7-.55-.65-.5-1.45 0-1 1.2-2.25l-.25-.15-.6-.8q-.15-.55 0-1 .15-.4.8-1.05l3.6-3.7.55-.7.05-.3.45-.55.1-.2q.75-1.1 1.6-1.3l.35-.05.25-.55 1.3-2.25-.25-.25-.85-.65-5.75 3.75v-.35l-.25-1.15q-.55-1.4-2-1.9-1.1-.4-2.1 0m-1.95 6.45q-1.1 0-1.7-.85-.4-.55-.35-1.3.05-.7.5-1.35t1.45-1.25l-.1.15-.5.75-.25 1.05q-.15.9.15 1.75z"/><path fill="#fff" d="M62.35 1.35 66 .25l3.15-.2q.7.1.8.55v.3l1-.2 1.25.2.85-.45L74.2.5l.7.6.05.15q.3.75-.5 1.65L73 3.9l-1.6 1.4q-5.65 5.35-12.3 10.15l-1.4.95-.35.15-.2-.2.1-.2Q62.7 10.2 68.45 4.5l-.5.15Q64.9 5.65 58.3 9l-.35.2-.2-.45-.5-.45 1.8-1.2 6.2-3.8-15 4-.75-.15q-.15-.4.55-.65l7.9-3.35q2.4-1.1 4.4-1.8m13.6.15V5l-7.4 8.1q-3.05 3.35-5.1 5l-.2-.05q3.35-5.35 8.1-11.15l3.7-4.6.7-.7.15-.1zm-29.2 14.3v.3q-.25 1.8-1.9 2.8-1.5.85-3.4.35L40.7 19l-.25-.15-.8-1.05q-.3-.85-.15-1.75l.25-1.05.5-.75.1-.15 1.35-1.4.7-.3q1-.4 2.1 0 1.45.5 2 1.9l.25 1.15z"/><path d="m33.25 9.5.15-.5q.2-.45.7-.95Q36 6.1 39.9 5.2l3.15-.3 1.85.35q.8.35 1.1.6 1 .85.85 2.25-.2 1.2-1.1 2l.35.3.4-.3q1-.6 2.55-.95 2.7-.8 4.6-.5 2.65.35 3.8 2.4.6 1.2.35 2.7-.25 1.4-1.2 2.5-1.45 1.6-4.15 2.45l-4.05.95q-.55 1.85-1.8 3.35l2.25 1.4.3.35 5.1-4.2q4.05-3 5.9-4L61.2 16q.65-.2.8 0 .35.35-.25.9l-3.45 2.95-3.4 3.3-3.3 3.4-1.15 1.2q.4 2.5-1.05 4.35-.9 1.15-2.95 2-3.3 1.3-6.9.85-3.7-.5-6.45-2.65-2.85-2.2-4.1-5.65-1.25-3.5-.45-6.95l.1-.4.2-2.1q.25-1.1.65-2.1l.2.25q.9 1.15 2.35.7l1.05-.55 1.05-.8.5-.6.8-1.35.15-.6q.2-1.15-.35-1.75l-.35-.35q-.8-.6-1.65-.55m3.6 5.3q-.25-.4-.75-.2l-.6.6-1.2 1.9q-.3.1-.6.35l-1.05 1.15-.65.6-.5.5q-.2.4.15.6l.55-.05 1.95-.75.05.1.75 1.45q.3.65.7.75h.4l.2-.5-.15-.95-.25-.75-.2-1-.1-.2.05-.1v-.1l1.2-2.75zm9.9 1.2q-.05-1.55-1.4-2.65-1.3-.9-2.9-.6l-1.3.4-.65.35q-1.45.95-1.8 3-.1 1.05.05 1.55.2.85 1.1 1.55 1.75 1.35 3.8.7 2.05-.6 2.8-2.55l.3-1zm-31.5 23.8-4.3 2.95H0l.05-.35q.15-.55 1.05-1.75 3.2-3.8 5.1-5.3-.8-1.05-1.2-2.4-.55-1.85-.1-3.9.4-2 1.6-3.65 1.1-1.35 2.1-1.9 1.3-.65 2.9-.65l3.1.45-.05-.5-.05-.05-.5-.05-2.65-.5q-.65-.4-1-1.2-.3-.75-.15-1.55.3-1.65 2-2.25l1.9-.1q1.95.25 3.2 1.65l.75 1.1 1.45 2.9.35 1.65.1.65.45 2.9-.05 1.45.1 2.6q-.3 2.7-2 4.85-1.1 1.4-3.2 2.95"/><path fill="#fff" d="m29.5 15.1-.2-.6v-.95l.15-.7.3-.55q.95-1.55 2.7-2.5l.8-.3q.85-.05 1.65.55l.35.35q.55.6.35 1.75l-.15.6-.8 1.35-.5.6-1.05.8-1.05.55q-1.45.45-2.35-.7zm17.25.9v.75l-.3 1q-.75 1.95-2.8 2.55-2.05.65-3.8-.7-.9-.7-1.1-1.55-.15-.5-.05-1.55.35-2.05 1.8-3l.65-.35 1.3-.4q1.6-.3 2.9.6 1.35 1.1 1.4 2.65m-9.9-1.2-.05.65-1.2 2.75v.1l-.05.1.1.2.2 1 .25.75.15.95-.2.5h-.4q-.4-.1-.7-.75l-.75-1.45-.05-.1-1.95.75-.55.05q-.35-.2-.15-.6l.5-.5.65-.6 1.05-1.15q.3-.25.6-.35l1.2-1.9.6-.6q.5-.2.75.2"/></g></svg>