<svg xmlns="http://www.w3.org/2000/svg" xmlns:ffdec="https://www.free-decompiler.com/flash" ffdec:objectType="shape" width="76.3" height="36.3"><g fill-rule="evenodd"><path fill="#999" d="m76 24.15.1.15.05.15.1.15.05.15v.6l-.05.15-.05.15-.05.15-.1.15-.1.15-.1.15-.2.15-.2.15-.2.1-.15.05-.4.05h-.4l-.65-.05-.55-.05-3.5-.05-34.35-.05-15.95-.05-2-.05h-3.5l-2.9.45-6.55.25-2.3-.15-1.1-.5q-.4-.35-.4-.95L.6 25l-.1-.1-.05-.15-.05-.15v-.15l-.05-.15v-.15L.3 24v-.15l-.05-.15v-.6l-.05-.15v-.6l-.05-.15v-.9l-.05-.15v-1.5l-.05-.15v-3.3L0 16.05V3.45l.05-.15V2.25L.1 2.1v-.15l.05-.15.05-.15.05-.15.1-.15.15-.15.15-.15.2-.15.3-.15h.5V.7h.05V.65h.05l.2-.1.3-.15.25-.1.15-.05L3 .2l.5-.05.65-.05L5.9.05h2.15V0h3.15l9.7.05 1.8.05 4.2.05 13 .05h8.4l9.3-.05L61.7.1l7.95-.05H73L74.1 0l.5.1.3.15.2.15.15.15.05.15.1.15.05.15.05.15.05.15v.45l-.05.15-.05.15v.2l.05.15.05.15.05.15v.15l.05.15v.3l.05.15V6.9l.05.15v3.75l.05.15v7.2l.05.15v1.8l.05.15v.15l.05.15v.9l.05.15v.15l.05.15v1.95L76 24zM19.85 7.05q-1.35-.45-2.65.5l-.7.65-3-.15q-1.25.35-1.85 1.2-.95 1.35.15 3.5l1.05 1.35q.6.5 1.7.8l2.15.05q.8-.25 1.3-.75l.25-.2q1.85-1.3 2.5-2.25.85-1.3.65-2.6-.15-1.55-1.55-2.1"/><path fill="#fff" d="M19.85 7.05q1.4.55 1.55 2.1.2 1.3-.65 2.6-.65.95-2.5 2.25l-.25.2q-.5.5-1.3.75l-2.15-.05q-1.1-.3-1.7-.8l-1.05-1.35q-1.1-2.15-.15-3.5.6-.85 1.85-1.2l3 .15.7-.65q1.3-.95 2.65-.5"/><path d="m61.2 18.9.25 3.4q.1 5.3-2.65 7.25-1.45 1.05-5.05 1.25l-10.8.3q-.25 2.9-1.9 4.05-1.1.8-3.7.9l-8.9.25-5.7-.05-2.4-.2H18l-2.75-.1q-1.15-.3-2-1.35-.85-.95-1.05-2.2-.4-2.35 1.1-4.65 1.15-1.7 3.5-3.45 1.3-.9 2.65-1.65.35-1.65 1.4-3.25 1.55-2.35 4.8-4.7 4.5-3.25 9.5-4.95 5.3-1.8 10.45-1.6 5.65.15 9.65 2.7 2.35 1.45 3.8 3.4l-.6.3q-.7.45-1 1.3t0 1.65q.4 1.35 1.85 1.7l1.65-.2zm-22.65 8.35 1.1.25 1.05-.5q.4-.45.4-1.05 0-.65-.35-1.1-.75-.8-1.7-.5-1.05.25-1.15 1.35-.15.95.65 1.55M57 22.1l-.05-.45q-.05-.45-.5-.6-.35-.15-.75 0t-.75.8q-.3.6-.3.95-.1.55.3 1 .55.65 1.25.2.4-.2.6-1.05zm-4.7-1.25q-.7-.1-1.15.3-.4.35-.5.95-.1.55.15 1.05.4.9 1.65 1.35l.6.05.55-.5.2-.85-.2-.85-.55-1.2q-.4-.3-.75-.3m-6.35-6.45q-.85.25-1.45 1.05-.6.75-.6 1.65t.6 1.65q.6.8 1.45 1.05l1.8-.15q.9-.35 1.35-1.15t.3-1.75q-.1-.95-.75-1.6-1.1-1.15-2.7-.75M18.7 12.45q-1.05 1.25-1.7 1.3l-.9-.15-1.35-.45-1.3-.55q-1.1-.7-1.1-1.9-.1-1.35 1.15-1.85.65-.3 1.4 0 .75.25 1.25.85.75-1.25 1.5-1.7l2.15.1q.45.4.55 1.1.1.6-.2 1.2zm10 16q1 .75 2 0l.6-.9q.15-.55-.05-1.05l-.7-.8q-.45-.3-1-.25t-.95.4q-.45.4-.55.9-.25 1.05.65 1.7m5 2.15q.25.3.6.3t.55-.3q.3-.25.2-.65l-.2-.65q-.3-.6-.75-.6l-.1.05q-.45 0-.7.3t-.05.75zm2.4-1.7q-.2.75-.1 1.15.3.75.9.75.65 0 .85-.7.2-.5-.1-1.15l-.25-.5q-.25-.25-.5-.25l-.2.1q-.4 0-.6.6"/><path fill="#fff" d="m59.05 14.25 1.05-.1q.9.05 1.5.65.65.55.8 1.45t-.25 1.65q-.3.65-.95 1l-.25.1-1.65.2q-1.45-.35-1.85-1.7-.3-.8 0-1.65t1-1.3zm-13.1.15q1.6-.4 2.7.75.65.65.75 1.6.15.95-.3 1.75t-1.35 1.15l-1.8.15q-.85-.25-1.45-1.05-.6-.75-.6-1.65t.6-1.65q.6-.8 1.45-1.05m6.35 6.45q.35 0 .75.3l.55 1.2.2.85-.2.85-.55.5-.6-.05q-1.25-.45-1.65-1.35-.25-.5-.15-1.05.1-.6.5-.95.45-.4 1.15-.3M57 22.1l-.2.85q-.2.85-.6 1.05-.7.45-1.25-.2-.4-.45-.3-1 0-.35.3-.95.35-.65.75-.8t.75 0q.45.15.5.6zm-18.45 5.15q-.8-.6-.65-1.55.1-1.1 1.15-1.35.95-.3 1.7.5.35.45.35 1.1 0 .6-.4 1.05l-1.05.5zM36.1 28.9q.2-.6.6-.6l.2-.1q.25 0 .5.25l.25.5q.3.65.1 1.15-.2.7-.85.7-.6 0-.9-.75-.1-.4.1-1.15m-2.4 1.7-.45-.8q-.2-.45.05-.75t.7-.3l.1-.05q.45 0 .75.6l.2.65q.1.4-.2.65-.2.3-.55.3t-.6-.3m-5-2.15q-.9-.65-.65-1.7.1-.5.55-.9.4-.35.95-.4t1 .25l.7.8q.2.5.05 1.05l-.6.9q-1 .75-2 0"/></g></svg>