<svg xmlns="http://www.w3.org/2000/svg" xmlns:ffdec="https://www.free-decompiler.com/flash" ffdec:objectType="shape" width="76.8" height="43.5"><g fill-rule="evenodd"><path d="M40.5.7h.6v.1l-.05.05v1.8l.05.05v.75l.05.05v.3l.05.05v.2l.05.05v.4l.05.05v.3l.05.05v.8l.05.05v.8l.05.05v.35l.05.05v.7l.05.05V9.9l.05.1v1.55l.05.1v.15l.05.05v.5l.05.1v.9l.05.05v4.1l.05.05v.1l.05.05v.45l.05.1v1.55l.05.1v.85l.05.65-.1 1.65q-.25.95-.85 1.4-.55.4-1.2.45h-.3l-1.35-.25-.6-.45-.65-.55.05.1v.8l.05.05v2.6l.05.05v1.1l.05.05v.2l.05.1v.55l.05.05v1.25l.05.05v.8l.05.05v.45l.05.1v.55l.05.05v.9l.05.05v1.8l.05.05v.4l.05.05v1.55l.05.05v1.8l.05.05v.15l.05.05v.45l.05.05v1.8h-5.4v-1.15l.05-.1v-1l.05-.05v-.2l.05-.05v-.9l.05-.05v-1.65l.05-.05v-1l.05-.05V34.1l.05-.05v-1.2l.05-.05v-.7l.05-.05v-.3l.05-.05v-.8l.05-.05V29.7l.05-.05v-.85l.05-.05v-.3l.05-.05v-.55l.05-.1v-1.3l.05-.05v-2.25l.05-.1v-1.3l.05-.05v-.85l.05-.05v-1.15l.05-.05v-.55l.05-.1v-.25l.05-.05v-.85l.05-.1v-.45l.05-.05V18l.05-.05v-.3l.05-.05v-.15l.05-.05v-.15l.05-.05v-.25l.05-.05v-.05l.05-.05v-.15l.05-.05v-.1l.05-.05v-.05l.05-.05v-.15l.05-.05v-.05l.05-.05.15-.15.05-.1.1-.05.05-.05.1-.05.15-.05.15-.05h.4l.15.05.15.05.1.05.15.05.35.1 1.05.95v-1.25l.05-.05v-2.75l.05-.1v-.7l.05-.05v-.25l.05-.05v-.45l.05-.05V8.5l.05-.05V7.5l.05-.05V6.8l.05-.05v-.7l.05-.05v-.6l.05-.05v-.7l.05-.05v-.3l.05-.05V3.9l.05-.05v-.3L38 3.5v-.45l.05-.05V.7zm35 37.15v.35q-5.05 2.65-13.55 2.35l-5.4-.6q-1.8-.35-4.1-1.25l-1.1-.45-.2-.05q-3.55-1.6-5.1-3.35-2.8-3.05-2.9-8.9v-.45q0-3.45.9-6.65.5-1.85 1.25-3.55l-.15-.55-.05-.1v-.1l-.5-1.1-.4-1.6-.25-.5-.85-3.15-.25-.95-.15-.65-.15-1.25-.05-.45.2-1.2.3-.4.1-.1.35-.25.45-.15 1.2.1 2.15.75 1.65.75 2.7 1.4 1.25.65q3.65-2.3 8.3-2.9l2.8-.2q3.15-.05 5.8.75l1.8.65q1.6.7 3.25 1.95l.7-.35zM.6 11.4V6.25l.4.2h.05q3.65-2.3 8.3-2.9l2.8-.2 4.4.4 1.4.35 1.8.65q1.3.6 2.7 1.55l.55.4 1.05-.5.5-.2 2-.8L28 4.7l1.65-.6.55-.25 1.75-.7q1.2-.2 1.75.45.6.65.4 1.8l-.2.8-3.6 9.05.25.6.45 1.25.55 2.85q.6 4.85-.7 9.2-1.45 4.7-4.85 7.5-4 3.25-11.05 3.85l-4.8.05L8 40.4l-3.25-.45Q2.95 39.6.6 38.7V11.4"/><path fill="#717171" d="M26.85 1.45 28.5 1l1.65-.3.8.2.6.4-.2.4-.65.45-3.1.7-2.8.8-1 .3-.7-.25-3.8-2.05-.55-.55q-.25-.35 0-.7.25-.4.9-.4l1 .3 2.6 1.2.15-.25.5-.3.75-.15q.45.1.7.4l.25.5zM36.7 41.8h1.15V40l-.05-.05v-.45l-.05-.05v-.15l-.05-.05v-1.8l-.05-.05v-1.55l-.05-.05v-.4l-.05-.05v-1.8l-.05-.05v-.9l-.05-.05V32l-.05-.1v-.45l-.05-.05v-.8l-.05-.05V29.3l-.05-.05v-.55l-.05-.1v-.2l-.05-.05v-1.1l-.05-.05v-2.6l-.05-.05v-.8l-.05-.1.65.55.6.45 1.35.25h.3q.65-.05 1.2-.45.6-.45.85-1.4l.1-1.65-.05-.65v-.85l-.05-.1v-1.55l-.05-.1v-.45l-.05-.05v-.1l-.05-.05v-4.1l-.05-.05v-.9l-.05-.1v-.5l-.05-.05v-.15l-.05-.1V10l-.05-.1V7.75l-.05-.05V7l-.05-.05V6.6l-.05-.05v-.8l-.05-.05v-.8l-.05-.05v-.3l-.05-.05v-.4l-.05-.05v-.2l-.05-.05v-.3l-.05-.05V2.7l-.05-.05V.85L41.1.8V.7h-.6l.15-.1 1.1-.1.5.4.65-.45L44.8.2l1.95.3 3.55.65.15-.1 1.75-.4.6-.1 1.8.35 1.15.5 2.6-.25 3.5-.3 4.85.25 4.85-.15 1.85-.3q1.1 0 1.7.55t.65 1.65l-.1 1.95-.15 1.55-.7.35q-1.65-1.25-3.25-1.95l-1.8-.65q-2.65-.8-5.8-.75l-2.8.2q-4.65.6-8.3 2.9L51.6 5.8l-2.7-1.4-1.65-.75-2.15-.75-1.2-.1-.45.15-.35.25-.1.1-.3.4-.2 1.2.05.45.15 1.25.15.65.25.95.85 3.15.25.5.4 1.6.5 1.1v.1l.05.1.15.55q-.75 1.7-1.25 3.55-.9 3.2-.9 6.65v.45q.1 5.85 2.9 8.9 1.55 1.75 5.1 3.35l.2.05 1.1.45q2.3.9 4.1 1.25l5.4.6q8.5.3 13.55-2.35v-.35q.25.05.45.2.55.4.75 1.1.2.65 0 1.3-.35 1.15-1.75 1.6l-2.45.4-11.3.85q-6.65.45-11.35-.05l-4.05-.5q-2.35-.2-4.05 0l-2.7.25q-1.65-.1-2.35-1.15zm1.35-38.85V3l-.05.05v.45l-.05.05v.3l-.05.05v.35l-.05.05v.3l-.05.05v.7l-.05.05V6l-.05.05v.7l-.05.05v.65l-.05.05v.95l-.05.05v.85l-.3.85-1.8 4.95.45.6-.15-.05-.1-.05-.15-.05-.15-.05h-.4l-.15.05-.15.05-.1.05-.05.05-.1.05-.05.1-.15.15-.05.05v.05l-.05.05v.15l-.05.05v.05l-.05.05v.1l-.05.05v.15l-.05.05v.05l-.05.05v.25l-.2-.7q-.25-.75-.2-1.3 0-.5.55-1.7l2.4-5.2q.65-1.9.25-4l-.45-1.1q-.55-.8-2.55-1.1l-1.55-.25-.4-.15q-.1-.2.1-.4l.45-.2 2.6-.5q1.6 0 2.45.9.5.55.75 1.45m-5.1 28.65v.1l-.05.05v.3l-.05.05v.7l-.05.05v1.2l-.05.05v1.45l-.05.05v.95q-1.45 2.95-4.55 4.7-1.2.7-2.3.7-.7-.1-1.05-.45l-.2-.5.1-.5.6-.3.7-.05 1.2-.35 1.25-.95 1.45-1.35 1.2-1.7 1.35-2.85zm-18 8.9Q22 39.9 26 36.65q3.4-2.8 4.85-7.5 1.3-4.35.7-9.2L31 17.1l-.45-1.25-.25-.6 3.6-9.05.2-.8q.2-1.15-.4-1.8-.55-.65-1.75-.45l-1.75.7-.55.25-1.65.6-1.45.5-2 .8-.5.2-1.05.5-.55-.4q-1.4-.95-2.7-1.55l-1.8-.65-1.4-.35-4.4-.4-2.8.2q-4.65.6-8.3 2.9H1l-.4-.2v5.15l-.15-.2-.45-.9v-2l.15-.45-.15-.1v-2.7l.65-.45q2.3-1.3 6.9-2l3.4-.4 2.65.05.2.05 1.45-.15q1.3 0 3.8.8 2.8.9 4 1.7l1.1.9 6.35-2.4 3.4-.2q1.15.65 1.25 2.35.05.75-.5 2.7l-2.05 6.4-.6 1.65q1.5 3.45 1.25 7.75-.2 3.65-1.9 8.1-.8 2.3-2 3.9-2.15 2.8-7.05 4.75-2.4.95-4.05 1.15l-2.35-.3-.9-.8zM.6 36.7v2q2.35.9 4.15 1.25L8 40.4l-.3.3-1.15.65-2.2.7-1.3.15q-.8-.05-2.8-1.15l-.25-.2V36.9l.2-.1z"/><path fill="#fff" d="M75.8 21.3v3.6l-.8.25q-1.35.3-2.95-.4-.85-.3-1.45-1l-.5-.65q-.65-1.1-.75-1.85-.25-1.35.35-3l.2-.6.1.15q1.1 1.65 3 2.6 1.35.65 2.8.9m-12.7 7.65-.8.35-.65.9-.15.45.05.6-.35 1.15-1 .65-1.15-.1-.9-.7q-.35-.6-.35-1.6 0-1.65.7-3 .8-1.4 2.15-2.1.6-.3 1.25-.45l.35-.1v-.25q0-1 .3-1.55.45-.8 1.35-.7.9-.1 1.35.7l.3 1.55V25l.35.1 1.25.45q1.35.7 2.15 2.1.7 1.35.7 3 0 1-.35 1.6l-.9.7-1.15.1q-.6-.15-1-.65-.35-.55-.35-1.15l.05-.6-.15-.45-.65-.9q-.3-.25-.8-.35l-.8-.1zm-4.35-11.7q.55.7.65 1.7.15 1.05-.1 2.25-.25 1.3-.95 2.05l-.75.75q-1.35.95-3.05 1-1.45.1-2.7-.5l.35 1.5.15 1.2-.45.85-.9.35q-.55 0-.9-.35-.4-.35-.5-.85l.05-1.05.65-2.85-.45-.6-.4-1.35L52.7 21l1.95-.75 2.75-1.7zM17.2 14.9l-.7.7-.5.05-.35-.35.2-.55 1.05-1.15 2.6-1.85 1.75-.5 1.6-.3 2.25.3q.85.2 1.2.6.4.5.25 1-.1.6-.6.85l-1.2.15-1.2-.35-.95-.15-1.55.05-1.6.3-1.05.35zm-.1 7.5-.4-1.2q-.25-1.2-.1-2.25.15-1.2.9-2l.7-.6q2.3-1.7 5.05-.9 1.15.3 2 1.1.9.8 1.2 1.85l.2 1.4q.1 1.75-.5 2.9l-.8 1q-.6-.3-1.4-.5l-.75-.2.95-.8q.7-.8.85-1.9.1-1.1-.4-2l-.4-.6q-.85-1.1-2.4-1.2-1.45-.15-2.6.9-1.05 1.05-1.05 2.5-.05 1.05.6 1.95l.4.5zm4.7 5.05-.25.5-1.1 1.3-.7.6-1.5.75-1.55.05-.05.45-.1 1.2q-.25 2-1.05 3.4-1 1.7-2.6 2.45l-3.25.15q-1.95-.65-3.2-2.65-.5-.75-.7-1.5l-.1-3.05-.05-.3v-.1l-.85-.1q-1-.25-2.2-1.35l-1.1-1.3-.35-.9-.05-.7q.1-.55.4-.75.4-.25 1 .15l1 .85.4.25 1 .25 1.25.15q1.4 0 2.95-.85l.35-.15.45-.4.3-.4.2-.4.2-.25q.3-.2.7-.3h.5l.3.1.4.2.45.65.25.4.8.55q1.05.55 2 .75l.95.1 1.1-.1.15-.05 1.2-.35.2-.15 1-.85q.6-.4 1-.15.3.2.4.75l-.05.65v.05zM.2 22.4v-2.3l.1.2 1.05.85 1.3-.05.95-.95q.25-.7 0-1.35t-.95-.95l-1.35-.1Q.5 18.1.2 18.8v-3.2l.85-.3 2.7.2q.6.25 1.05.7l1 .9.5 1.15q.6 1.65.35 3L6 22.9l-.1-.05q-.65-.4-1.65-.55l-3.2-.1zM19.8 21q-.45-.75-.2-1.65.2-.65.8-1.05.6-.35 1.25-.3.7.1 1.2.6t.55 1.15L23.15 21l-1.05.8q-.65.25-1.3 0zM6 14.9l-1.2-.85-1.05-.35-1.6-.3-1.55-.05-.6.1v-2.5h.35l1.6.3 1.75.5 2.6 1.85 1.05 1.15.2.55-.35.35-.5-.05zm5.05 14.15-.1.05-.1.1-1 .5-1.2.5-1 .3.1.25.05.15.15.9q.15.9 1 2.2l.6.65.65.35 1.5.35q.75-.05 1.45-.95.8-1.15 1-3.4l.05-.25.1-.55-1.15-.5-1.1-.6-.55-.5z"/><path d="m69.9 17.65-.4-.8q-.4-1.25.15-2.25.65-1.2 1.85-1.1.7 0 2.35 1 .8.6 1.95 1v5.8q-1.45-.25-2.8-.9-1.9-.95-3-2.6zm-20.45 3.7h-.15l-1.95-.5q-.95-.6-1.1-1.75t.65-1.95q.6-.5 1.8-.9 3.2-1.1 4.9-2.45l1-.75q.8-.5 1.8-.5 1 .05 1.75.6t1.05 1.5 0 1.8l-.45.8-1.35 1.3-2.75 1.7-1.95.75zM17.1 22.4l2.05-.05-.4-.5q-.65-.9-.6-1.95 0-1.45 1.05-2.5 1.15-1.05 2.6-.9 1.55.1 2.4 1.2l.4.6q.5.9.4 2-.15 1.1-.85 1.9l-.95.8.75.2q.8.2 1.4.5l.8.4q1.1.8 1.4 1.9l-.05.85q-.2.75-1.1 1l-1.5.05-3.1-.45.1-.4V27l.05-.65q-.1-.55-.4-.75-.4-.25-1 .15l-1 .85-.2.15-1.2.35-.15.05-1.1.1-.95-.1q-.95-.2-2-.75l-.8-.55-.25-.4-.45-.65-.4-.2q.2-.6.75-1.1.65-.55 1.8-.75zm2.65 7.45q-1.1.9-2 1.15l-1.1.1.05-.45 1.55-.05zM5.65 31.1l-1.4-.1q-1-.25-2.2-1.35l-1.1-1.3-.35-.9-.4.2V22.4l.85-.2 3.2.1q1 .15 1.65.55l.1.05q.85.5 1.1 1.2.4.85-.1 1.7l-.9.65-.9.3-1.35.1-.4-.25-1-.85q-.6-.4-1-.15-.3.2-.4.75l.05.7.35.9 1.1 1.3q1.2 1.1 2.2 1.35l.85.1v.1zM.2 20.1v-1.3q.3-.7 1.1-1.05l1.35.1q.7.3.95.95t0 1.35l-.95.95-1.3.05L.3 20.3zm9.2 6.15.25-.4.4-.65.3-.15-.2.4-.3.4zM19.8 21l1 .8q.65.25 1.3 0l1.05-.8.25-1.25q-.05-.65-.55-1.15t-1.2-.6q-.65-.05-1.25.3-.6.4-.8 1.05-.25.9.2 1.65m-8.95 8.2-.4.3-1.1.6-1.2.5-.4.15-.1-.25 1-.3 1.2-.5zm3.35 1.55-.35-.15-1.2-.5-1.1-.6-.5-.45.45-.45.55.5 1.1.6 1.15.5z"/></g></svg>