<svg xmlns="http://www.w3.org/2000/svg" xmlns:ffdec="https://www.free-decompiler.com/flash" ffdec:objectType="shape" width="70.3" height="38.7"><g fill-rule="evenodd"><path fill="#717171" d="M43.05 17.25q-1.45 1.25-2.5 1.2-1.25-.05-2.6-2l-2.4-3.35q-1.9 1.2-5.25 2.7l-1.1.35q-.7 0-1-.45-.3-.5.1-1.15l.9-.8.1-.05.65-.7q1.25-1.15 2.25-1.85l.75-.55 1.9-1.5.95-.75 1-.1h.35q.8.1 1.4.65l1.05 1.45 1.4 2 2.15-2.3 6.95-6.4q1.25-1.1 2.2-1.4Q54.6.7 57.15.2q3.05-.6 5.6.5 3.35 1.45 5.4 5.4 1.3 2.4 1.75 4.85.5 2.4.35 5.6-.2 3.15-1.2 6.9-.55 2.15-1.4 3.9Q65.8 31.2 62 33.6q-3.8 2.35-8.05 2.3-3.45-.1-5.65-1.5-1.9-1.3-3.3-3.55-2.35-3.75-2.25-9 .05-2.3.6-4.85zm-7.2-10.3L35.4 7l-.3-.25q-.2-.35.05-.7l.2-.2.25-.65.35-.4.25-.5.4-.55.15-.35.65-1q.55-.45 1.1-.4l.1-.05q.95 0 1.4.9.4.85-.2 1.7l-.8.6-.75.4-.6.45-.3.05-.2.2-.9.4zm-10.25-.2q-.4-.2-.3-.85.1-1 .9-2.9l.65-1.15q.85-.85 1.9-.3 1 .5.85 1.7l-.7 1.25-2.6 2.1zm3.7 16.55.55.2.35.25.45.15 2.05 1.65.2.25q.45.7.3 1.55-.2.8-.95 1.3l-.55.15q-.7.15-1.4-.3-.6-.45-.85-1.2l-.1-.35-.4-.9-.5-1.7v-.25l.05-.2-.05-.65.45-.25z"/><path d="m61.45 10.2-.05.8.35.15.6.3.3.1q.1-.3.5-.45.7-.3 1.15.25.4.4.3 1.05l-.35 1.1-.15.4-.45.75-.85.1-.25-.5-.1-.65h-.15l-1.05-.15h-.8l-1.3 1.2-.1.85-.05.4.35.2.45.55h.4l.55.25 1 .7q.5.55.2 1.25-.35.65-1.05.55l-.2.65-.1.25 1 1.1.55 1.2h.7v-.05l-.1-.45.2-.4q.2-.15.4-.15l.45.25.25.35.1.4.35.85-.35.75-.8.15-.15-.1-.95.35q-.2 1.65-1.45 2.9l-.6.5.1.3.25.8.05.1h.4l.45.3.1.55-.6.7-.85.35-.45.3-.5.15q-.65.05-.9-.55-.15-.55.2-.85l-.5-.95-2.8-.05-.55.35-.6.25-.6.55v.05l.3.3q.3.7-.25 1.15l-1.15.15-.55-.4-.5-.45-.6-.65q-.2-.6.15-1.1.45-.5.95-.25l.25-.3.35-.3.2-.75.1-.2q-.7-.9-.9-1.85l-.05-.6-.25-.15h-.05l-.95-.2-.25-.05-.05.2q-.4.85-1.35.65-.35-.1-.6-.45l-.15-.75.1-.55v-.9q.1-.75.75-1.05.65-.25 1.05.3l.3.6 1-.2.35.05.4-.15.7-1.25 1-1.05-.05-.25-.75.15-.65-.35-.2-.7q.05-.4.25-.7.25-.25.7-.4l.85-.4.7-.15q.55.05.75.55l.1.75.2.35.05.15 2.1-.2 1.15.3.4-.55.2-.1-.4-.55-.05-.1-.5.1h-1l-.8-.15q-.55-.25-.55-.85-.05-.55.4-.95l.55-.2-.05-.45v-.25q-1.5 0-2.75-.85l-.15-.1-.3.2-.8.7.1.5q0 .7-.55 1l-.9-.05-.7-.6q-.8-.85-.7-1.45l.4-.7q.35-.3.8-.25l.15.05.6-.4.6-.65q-.25-.75-.25-1.65v-.05L52 10.5l-.95-.55-.35.5q-.25.35-.65.25-.35-.05-.55-.6l.1-.85.45-1.4.3-.4q.35-.5.9-.25.45.15.6.65h.8l.85.2q.55-.85 1.3-1.4l.45-.3-.1-.8.05-.85-.1-.05q-.55-.2-.55-.85.1-.65.6-.8l.85-.1.9-.1.8.05q.85.35.65 1.15-.1.7-.7.95v.85h.25q.95.15 1.7.65l.45-.4.6-.45v-.4q0-.45.35-.75.25-.3.7-.35.5-.05.85.2l.55.65.65.9-.1.85-.55.5-1.05.05-.5.45-.55.6.35 1.15zm3.8-2.25q.45.05.7.3l.35.65-.15.75-.65.4-.75-.1q-.4-.2-.5-.6l-.05-.3q-.05-.4.3-.8zM64.15 20q-.45-.15-.65-.5l-.15-.5q-.05-.65.6-1l.4-.1.75.1.6.55q.25.65-.3 1.25-.55.45-1.25.2M55.1 8.7q-.15.75.5 1.15l1.3-.05q.55-.45.35-1.25-.25-.7-1.05-.7h-.1q-.6 0-.85.5zm-6.5 4.05-.05 1.05-.65.7-.95.15q-.55-.15-.9-.5-.3-.35-.3-.9 0-.5.3-.95l.85-.5.95.15zm-.95 7.8q-.9-.4-1.15-1.45-.15-1.1.55-1.8.5-.55 1.35-.6.8-.1 1.45.35.6.45.75 1.25.15.85-.25 1.5-.4.6-1.2.85zm5.9 3.6q-.35.2-.4.65-.1.4.1.75t.65.45l.75-.1.45-.6q.15-.45-.05-.8l-.1-.2-.7-.3zm5.1 1.9v-.15l-.05-.2-.35-.2h-.1l-.3.2-.05.3v.1l.25.25h.35l.1-.05zm-2.25-5.1q-.45.5-.45 1.2t.45 1.2q.9.9 1.95.4 1.1-.4 1.1-1.6l-.35-1-.8-.65q-1.1-.45-1.9.45M59.2 12l-.35-.65q-.25-.25-.65-.25-.35 0-.65.3t-.3.65l.05.3q.2.65.7.7l.95-.25.2-.3zM22.5 25.65l-3.15 1.8q.9 2.95.65 5.45-.35 3.2-1.9 5.4l-.25.4H0v-8l.8-1.15 1.4-.9 2.95-2.2L7.2 24.6l-1.6-1.9Q3.9 20.2 4 17q.15-3.15 2-5.55Q7 10.1 8.65 8.9t3.4-2q2.35-.9 4.75-.8 3.6.1 5.85 2.05l.95.9.25.25.6-.25 3.65-1.5 3.75-1.2.95-.1q.8.3.9.9t-.6 1.3l-1.15.65-1.15.9-1.6 1.2-3.2 2.4.15.45.3 1.85.1.45.4.1 3.85.95q2.2.6 3.7 1.25l.85.5q.45.7.2 1.25-.35.55-1.35.7l-1.3-.2-1.5.05h-2l-3.15.1q-.4 1.4-1.3 2.5zm-7.6-8.9-1.05-.55-.2-.1 1-1.25.1-.9-.5-.75-.85-.2q-.5.05-.8.4l-.4.65-.5 1.1v.05l-1.35-.45-.25-.2-.8-.2q-.45.05-.7.4-.3.35-.25.8.05.5.4.75.4.3 1.35.4l.65.2-.2.3-.95 1.55q-.55.7.1 1.25t1.25 0v-.1l.4-.45 1.05-1.85h.05l.4.15 1.6.75.75-.05.35-.25q.35-.4.05-1z"/><path fill="#fff" d="m14.9 16.75.7.45q.3.6-.05 1l-.35.25-.75.05-1.6-.75-.4-.15h-.05l-1.05 1.85-.4.45v.1q-.6.55-1.25 0t-.1-1.25l.95-1.55.2-.3-.65-.2q-.95-.1-1.35-.4-.35-.25-.4-.75-.05-.45.25-.8.25-.35.7-.4l.8.2.25.2 1.35.45v-.05l.5-1.1.4-.65q.3-.35.8-.4l.85.2.5.75-.1.9-1 1.25.2.1z"/><path fill="#717171" d="m55.1 8.7.15-.35q.25-.5.85-.5h.1q.8 0 1.05.7.2.8-.35 1.25l-1.3.05q-.65-.4-.5-1.15m4.1 3.3-.05.5-.2.3-.95.25q-.5-.05-.7-.7l-.05-.3q0-.35.3-.65t.65-.3q.4 0 .65.25zm-2.8 8.95q.8-.9 1.9-.45l.8.65.35 1q0 1.2-1.1 1.6-1.05.5-1.95-.4-.45-.5-.45-1.2t.45-1.2m2.25 5.1-.15.25-.1.05h-.35l-.25-.25V26l.05-.3.3-.2h.1l.35.2.05.2zm-5.1-1.9.7-.15.7.3.1.2q.2.35.05.8l-.45.6-.75.1q-.45-.1-.65-.45t-.1-.75q.05-.45.4-.65"/></g></svg>