<svg xmlns="http://www.w3.org/2000/svg" xmlns:ffdec="https://www.free-decompiler.com/flash" ffdec:objectType="shape" width="75.35" height="38.4"><g fill-rule="evenodd"><path fill="#999" d="m65.65 8.4.2-.5.2-.4.35-1 .15-.35.3-.45.05-.05.5-.7q.5-.45.9-.45.45 0 .85.35l.25.8-.1.4-.7.9-.4.3-.3.3-.35.25-1.2.8-.2.2-.3.15-.3.05q-.1-.3.1-.6m-7.7 9.4-2.1.15-2.7.15-1.65-.25h-.15l-1.2.05q-1.25-.35-1.5-1.6l-.75-.05-2.95-.7-.35-.3.25-.1.25-.15 1.95-.45 1.3-.25h.7v-.05q.45-.85 1.05-1.55l-.15-.2-.2-.6-.4-.45-.25-.5-.25-.55-.25-.3-.25-.45-.2-.8V8.7h.2l.25.05.3.25.7.45.75.65.3.3.75.5.5.1.2.1q.6-.4 1.3-.6v-.4l-.05-.15.1-1.2-.05-.3v-.4l-.05-.4V7.1q0-.3.3-.3l.1-.1.45.2.25.6.15.25.05.3.2.55.05.2.35.8.25.4 2.75-.05q2.75.2 4.35 1.3l1.1 1 2.3-.75.6-.2q.5 0 .5.4l-.25.4-1.75 1.4-.5.5.1 1.15q-.1 1.1-.75 1.6l-.85.3-.7-.2h-.05l-.95.85-2.05.3zM56.1 5.05l-.3-.15q-.35-.4-.55-1.45l-.2-.95q-.15-.65 0-1.1.25-.75 1.05-.7.75.1.95.8v.8q-.25 1.8-.8 2.55zM45.3 12.6l-1.5-.2-.5-.1-.45.1q-.55 0-1-.4l-.4-1q0-.75.7-1.15t1.35 0l.5.35 1.2.5 2.3 1.45q.2.25 0 .5l-.45.1zM22.8 33.3h9.9l1.95.05H53.5l3.3.05h3.6l1.75.05H67l.55.05h.35l.95.05h1.65l2.65.05h.25l.2.05h.2l.05.05h.1l.2.1.1.05.1.05.1.05.05.05.1.05.05.1.1.05.05.05.05.05.05.05.05.1.15.15v.05l.05.05.05.1v.05l.05.05v.05l.05.05v.15l.05.05v.8l-.05.05v.15l-.05.05v.05l-.05.05v.05l-.05.05-.05.1v.05l-.05.05-.15.15-.05.1-.05.05-.05.05-.1.05-.05.05-.1.05-.05.1-.1.05-.1.05-.1.05-.2.05-.1.05h-.05l-.1.05h-.1v.05h-3.1l-.3.05h-1.05l-1.25.05H67l-3.5.05h-1.35l-1.45.05h-7.25l-8.35.05H32.65l-1.25.05h-9.8q1-.55 1.1-1.9-.35-1.4-.2-2.05zM5.1 37.95H0v-4.7h3.5l.3.8-.25.85q-.5 1.25.45 2.35l1 .65z"/><path fill="#fff" d="M19.15 10.35q.4-.55 1.05-.95l.65-.25 2 .2 1.2 1.1q.45.75.4 1.6l-.15.75-1.15 1.55-.05-.05-1.4-.5-1.55-.2-1.1.1-.15-.25q-.5-.9-.35-1.8l.05-.4q.15-.5.55-.9m-4.7 8-2.05.3-1.3-.65-.6-.6q-.15-.35.05-.7.15-.4.5-.5l1.35.15 1.6-.65q.5-.35.9-.45.45-.45 1.2-.35.6.15 1.45 1 .65.55 1.2.45l.45-.25q.65-.25.95.2.25.4 0 .8l-.5.55q-1.25 1-2.35.7l-1.2-.5-.45-.15zM7.1 12.6q0-1.05.6-1.8l2 .85 2.3.6 1.4.2h.05v.05l-.55 1.6-1.25 1.1-.65.2q-1.8.4-3.05-.75l-.65-.95z"/><path d="m21.6 37.9-.45.2-.95.1-.1.2H5.7l-.05-.4-.55-.05-.1-.05-1-.65q-.95-1.1-.45-2.35l.25-.85-.3-.8-.05-.05-1.75-2.55q-.8-1.55-.75-3Q1.1 26.25 2.1 25l2.2-1.9q1.75-1.2 3.6-2.1l.1-.05-1.35-1.1q-1.75-1.65-2.3-2.9-.65-1.45-.55-4.05l.2-2.35-.6-1.35q-.5-1.3-.7-3.55-.1-1.6.15-2.2.65-1.4 2.55-1.65l3.15.25.25.05Q10.45.8 12.3.3l2.95-.25 3.2.25q2.3.55 4.25 2.35l3.05-.5 1.35.15 1 .9q.4.6.3 1.25l-.2.8-.75 3.35-.9 3.25-.75 1.4-.15.45-1.2 3.2q-1.3 2.55-3.85 4.2l-.9.55q2.2 1.55 3.35 2.75 1 .9 1.6 2.05.6 1.3.4 2.5-.1.85-1.3 2.75l-.95 1.55v.05l-.3.65q-.15.65.2 2.05-.1 1.35-1.1 1.9M7.1 12.6l.2 1.1.65.95Q9.2 15.8 11 15.4l.65-.2 1.25-1.1.55-1.6v-.05h-.05l-1.4-.2-2.3-.6-2-.85q-.6.75-.6 1.8m7.35 5.75 1.2-.65.45.15 1.2.5q1.1.3 2.35-.7l.5-.55q.25-.4 0-.8-.3-.45-.95-.2l-.45.25q-.55.1-1.2-.45-.85-.85-1.45-1-.75-.1-1.2.35-.4.1-.9.45l-1.6.65-1.35-.15q-.35.1-.5.5-.2.35-.05.7l.6.6 1.3.65zm4.7-8q-.4.4-.55.9l-.05.4q-.15.9.35 1.8l.15.25 1.1-.1 1.55.2 1.4.5.05.05 1.15-1.55.15-.75q.05-.85-.4-1.6l-1.2-1.1-2-.2-.65.25q-.65.4-1.05.95m.65 19.45.05.1.7-1.15.15-.4-.15-.35-1.4-1.5zM5.75 27l-.45.65q-.05.35.35.85l.9 1.3Q7 27.5 7.7 25.5q-1.2.8-1.95 1.5M63 4.85q.95.65 1.1.95.2.6.05 1.25l-.5 1.15-.1.1.3.25q.3.2.4.95l-.35 1.2-.75.55-.9.2-.5 1.2-.3 1q-.35.65-1.35.7l-1.55-.2-2.25-.85q-1.05-.45-1.35-.75-.65-.5-.8-1.3-.05-.55.6-1.8l.35-.65-3.8-1.05L41.15 4.3q-1.3-.55-1.7-.95-.45-.4-.5-1-.1-.6.15-1.2l.75-.8Q40.45 0 41 0q.6.05 1.9.65l2.55 1 7.6 3.05 3.4 1.55.65-1.45.7-1.05 1.35-.1.45.15.6.05q1.05-.05 2.8 1M42.75 15.3H56.7l4.7.05h3.85l1.05-.05h.15l.2.05.15.05.15.05.05.05.15.1h.05l.1.1.05.1.05.05.05.05v.1l.05.05.05.1v.1l.1.2.15 1.3-.2 4.7-.15.85-.05.15q-.1.9-.9 1.4-.5.35-1.35.5l-1.45.3-1.15.25-1.85.5h-.15q-.55.35-1.15.65l-.7.7-.45.65-.1.95.1 1.2.4.8.35.6q.7.7 2.1.85l.45.05h.1l.05.05.15.05H62l.1.1.05.05.1.05v.1h.1l.05.1.1.1.05.05v.1l.05.1.05.05v.1l.05.05v3.7l-.05.05v.05l-.05.05-.05.1v.1l-.05.05-.05.05-.05.1h-.1l-.05.05h-21.4l-.05-.05h-.1l-.05-.1-.05-.05v-.05l-.05-.1-.05-.1-.05-.05v-.25l-.05-.05v-3.2l.05-.1v-.35l.05-.05.05-.1v-.05l.05-.05v-.05l.1-.1.05-.1h.1v-.1l.1-.05.05-.05.15-.1h.1l.15-.05.05-.05h.15l.4-.05q1.45-.15 2.1-.85l.35-.6.4-.8.1-1.2-.1-.95-.45-.65-.7-.7-1.1-.65h-.2l-.25-.15h-.4l-.05-.05h-.1l-.5.05q-4.4-.2-5.95-1.1l-2.5-1.95-.7-.65q-.45-.5-.8-1.55l-.35-1.35q-.1-.6.15-1.35l.05-.05v-.1h.05v-.1l.05-.05v-.05l.05-.1h.05l.05-.1v-.05l.1-.05.05-.05.1-.05.05-.1h.1l.1-.1.1-.05h.25l.05-.05h.25l1.55-.05H36l2.8-.05h.9l.65.05h.95v-.25l.05-.05v-.05l.05-.05v-.35l.05-.05v-.1l.05-.1.05-.05.05-.05V16h.1v-.05l.05-.05v-.05l.05-.05.05-.1h.05l.05-.1H42l.1-.1.05-.05.15-.05.15-.05v-.05h.3"/></g></svg>