<svg xmlns="http://www.w3.org/2000/svg" xmlns:ffdec="https://www.free-decompiler.com/flash" ffdec:objectType="shape" width="76" height="43.1"><g fill-rule="evenodd"><path fill="#999" d="M0 1h75.2v40.9H0z"/><path fill="#fff" d="M8.85 2.75 8.1 4.1l-.3.3-.95.65-.75.3-.55.05q-1.1 0-1.8-.55-.95-.8-.7-1.95l.15-.55Q3.7.95 4.45.55l.9-.25.6.05.45-.1Q7.35 0 8.1.7q.85.65.75 1.65zM67.1.9l.6-.6 1.45-.25.6.25q.75.55.45 1.5l-.1.3.2.6q1 1.65.7 3.35-.15 1.25-.95 2.05l-.85.55q-.9.55-1.6.55-.75.05-1.4-.45-.6-.45-.85-1.2-.2-.7.05-1.45t.85-1.2l.25-.25-.05-.2q-.3-1.3-.2-1.8l.25-.7zm-20.95.45q.7.8.25 1.6l-.2.45v.5l-.1.7q-.3 1.1-1.2 1.9t-2.05.9q-.35.75-1.15 1.1l-1.6.2q-.8-.2-1.35-.9t-.55-1.5l.1-.7q.25-1 1.05-1.75.8-.7 1.8-.9l1.05-.05q.2-.85.95-1.45.7-.6 1.55-.7l.85.1q.4.15.6.5M75.3 17.6q-1.15 1.25-2.65 1.15-1.7 0-2.45-1.45-.9.8-2.1.5-1.15-.3-1.55-1.5-.4-1.1.25-2.15l.7-.75q.75-.65 1.45-.85L70 12.5q1.3 0 2.05.5l1.6 1.65q.95-.4 1.8.35.8.7.45 1.75zm-9.5 6.2.7-.85q.55-.5 1.3-.6l1.4.25q.65.35.95 1.05.35.7.15 1.4l-.1.45.3.65q.65 1.05-.05 2.7-.85 2.15-2.35 3.1l-.35.35-.2.55-.45 1.1q-.4.5-.95.5-.65.05-1.2-.6-.95-.95-1-2.15-.1-1.3.8-2.2l1-.8.7-1q-.45-.35-.75-1.25-.3-.8-.3-1.3 0-.55.4-1.35m-13.15-9.95q-.25-.95-.2-1.65.15-1.65 1.35-2.7l.15-.2-.1-.25q-.8-1.35-.6-2.5.15-1.5 1.45-2.05l1.85.1q.85.45 1.1 1.5l.1.4.3.4q.8.95.8 2.2.1 1.25-.7 2.2-.65.95-2.1 1.6l-.4.3-.25.65-.1.65q-.25.75-1.05.75-.7.1-1.2-.6zm.15 10-1.95-.05-1.1.75-1.5.25q-.85-.1-1.4-.65-1.05-1.1-.6-2.65.35-1.35 1.75-2.15 1.2-.65 2.7-.75 1.6-.1 2.7.6l.45.15.25-.2q.75-.9 1.85-.9 1.1-.1 1.85.85.65.9.25 2l-1 1.2q-1.35 1.2-2.35 1.45zM49.7 32l.3-.25.25-.8.1-.8q.25-.85 1.05-1.25l1.65-.15q1.05.3 1.1 1.1l-.2 1.2.1 1.15-.35 1.2q-.8 1.65-1.85 2.25-1.3.8-3.95.5-.35 1.15-1.6 1.5-1.3.25-2.1-.65-.5-.55-.55-1.2-.2-.95.3-1.9.45-.85 1.3-1.45.7-.4 1.25-.55l1.55-.1 1.2.1zm11.25 2.15q1 1.1 1.25 2.6l1.75.1q.95.55.8 1.55t-1.3 1.45l-2 .2-.8-.15-.75-.3-.75-.7-.95-1.45q-.75 0-1.4-.5-.65-.55-.75-1.25-.15-.75.25-1.45.45-.75 1.15-1l1.35-.1 1.25.3q.35.15.9.7m-38-23.5-.5.15q-1 .6-1.6.65-.65 0-1.15-.5-.5-.45-.55-1.1l.25-1L20 7.8q.5-.45 1.35-1 .5-.35 1.15-.6 1.75-.6 3.1.6l.25.15.35-.15q1.3-.9 2.75-.75 1.65.15 2.25 1.55.4 1-.15 1.95-.5 1-1.55 1.15l-.65.1q-.15.05-.9.55-1.05.7-2.4.6-1.25-.15-2.25-1.05zM17.8 21.6l.05-.2-.15-.2q-1.15-.95-1.4-2.1-.25-1.05.25-2.1.55-1 1.6-1.45l2 .05.9.9q.55.85.3 1.85 1.25 1.1 1 3.15-.25 1.4-1.45 3.05.75.35.65 1.25-.05.7-.85 1.15l-1.4.25-1.15-.45Q17 25.95 17 24.3q0-1.2.8-2.7m-6.4-11.2q-.2.3-.3 1.05l-.3 1.2q-.7 2.2-3.05 3.05l-1.3.2q-.75-.05-1.3-.6t-.65-1.25q-.1-.75.25-1.4.35-.7 1-1l.65-.35.35-.8q.4-1.9 1.65-3.15 1.4-1.4 3.15-1.7.9-.2 1.5 0 .85.2 1.3.75.4.55.3 1.35-.1.75-.65 1.2l-1.2.55-.95.5zM9.05 25.45q-.1 1.65-.85 2.85-.85 1.35-2.45 1.65l-1 .15-.9.35-1.4-.15-1.1-.9q-.8-1.35.15-2.75 1-1.25 2.55-1.15l.45-.1.15-.35q.05-1.1.65-2.2.75-1.2 2.3-1.95 1-.45 1.75-.45 1 0 1.75.6.8.7.55 1.65-.15.95-1.15 1.3l-.7.25q-.4.15-.55.4zm8.2 12.3q-.35-.35-.95-.35l-1.1.1q-1.4 0-2.45-.9-.95-.9-1.3-2.3l-.15-1.25.05-.8q.25-1.25 1.4-1.85l2.3.1q1.15.75 1.15 2.05l.05.5q.15.2.65.2 1.7.2 3.2 2.25l.5 1.1-.2 1.2-.45.95-.8.65q-.95.15-1.5-.8zM3.7 34.95l1.65-.15q.9.15 1.35.95l.35.65.25.85.05 2.2-.15 1.05-.5 1.45q-.4.75-1.2.9-.95.1-1.4-.7l-.6-2.25-.3-.95-.3-.4q-.5-.55-.5-1.45l.2-1q.3-.75 1.1-1.15m25.2-1.5L27 33.4q-.55-.25-.95-.7-1-1.2-.3-2.75.65-1.35 2.2-1.7l1.45-.05 1.35.3.75.5.85.35q.6.05 1.5-.75 1.1-.9 1.95-1.2 1.35-.35 2.2.3.45.35.6.95l-.15 1.1-.55.5-.6.45-.7.75-.65.8q-1.1 1.15-2.75 1.4l-3.1-.25-.6-.15zm5.95 4.4.4.55.15.85-.2.6q-.85 1.95-2.8 2.9l-.6.25-.85.1-.8-.05q-1.1-.15-1.6-1.2-.6-1 0-2 .45-1 1.6-1.25l.7-.05.7-.1 1.2-.75q1.2-.65 2.1.15"/><path d="M40.7 20q.75 1 .8 1.7v.7l.1.65.7.75q.75.45.9.6.4.4.85 1.95l.5 1.65q.25.95-.05 1.6-.25.65-.9.95l-1.3.1q-.8-.25-1.4-1.1t-.8-1.65l-.3-.85-.65-.65q-1.35-1.2-1.65-2.9l-.2-1.1-.8-1.2-.2-.35-.6.5q-.7.55-1.6.55h-1.15l-.95.4-1.45.3q-1.6 0-2.15-1.15-.35-.9.35-1.6l1-.7 1.1-1q.65-.65 1.2-.75l.75-.15.75-.55q.35-.35.85-.6l-.1-.3-.4-.75q-1.4-2.1-1.15-3.55.15-.9.85-1.45.75-.65 1.65-.35 1 .25 1.6 1.75l.65 1.35.6.7.4.75.05.4q.35-.2.85-.45l1.2-.7q.65-.4 1.2-.5.9-.2 1.75.35t1.05 1.45q.25.9-.3 1.75-.5.9-1.4 1.1l-.7.25-.4.5-1.05.7-.55.25z"/></g></svg>