<svg xmlns="http://www.w3.org/2000/svg" xmlns:ffdec="https://www.free-decompiler.com/flash" ffdec:objectType="shape" width="76" height="42.35"><g fill-rule="evenodd"><path fill="#999" d="m49.3 29.7-.5.55q-2.7 3.05-6.3 4.55-2.85 1.2-6.65 1.55l-4.45-.15q-2.25-.65-3.35-2.25l-1.9-.3Q23.1 33 21.7 31.8l-1.85-2.1-.45-.65-1.1-1.7-.15-.25-.3-.55-.6-1.7-.05-.15-.25-1-.15-.95-.15-1.15v-.1q-.15-1.75.05-3.3.3-2 2.25-6.05 1.85-3.85 2-6.05.2-2.35-.9-4.6l-.9-1.5h2.5q1.75 1.85 2.85 4.35 1.5 3.3 1.4 6.8l.1 2.6q.2.9 1 2.1l1.7 1.95q-1.1-1.85-1.7-4-1.05-4 .05-7.7l.9-2.5q.85-2 2-3.6h5.9q-1 1.2-1.1 2.4-.05 1 .5 2 .7 1.35 1.9 2.15.85.6 2.75 1.45 1.45.9 2.35 2.45.9 1.5 1 3.2.05 1.3-.35 2.5.8-.85 1.2-1.9l.2-.7-.5-.4q-.95-1-1.05-3.1 0-1.1.3-2.15.75-2.9 4.85-6.7L49.15 0h4.45l-.05.15-.5.45Q50.5 1.85 50 3.2q-.4 1.1.05 2.55l1.15 2.4q1.8 3.6 2.2 7.5.25 2.65-.15 5.2l-.55 2.5-.05.1-.3.95-.45 1.1-.4.85-.5.9-.75 1.2zm-38.6-7.9q0-1.4.45-3 .45-1.5 2.65-5.55 1-1.9 1.15-3 .3-1.8-.65-3.4l-.15-.45q0-.35.5-.35.35.05.6.4 1.2 1.3 1.4 3.65.25 2.65-.6 5.1l-1.2 2.95q-.7 1.75-.9 2.95l-.05.6.05.85.15 1 .2.75.1.2.25.55q.5 1.1 1.35 1.95l.25.25 1.05 1.25-2.5-.2-1.3-.9-.7-.75-.05-.05-1.05-1.35-.25-.45-.25-.5-.25-.85-.2-1.1zm44.3-.95.95-1.75.65-1.25q.2-.85-.15-1.95l-.6-1.85q-.45-1.7.15-3.4.6-1.75 2-2.8.45-.3.65-.15.35.2.15.6l-.45.6q-.3.3-.6 1.3l-.2 1.05.35 1.05.65.95q1.45 2.3 1.05 4.95l-.35 1.1-1.1 1.2-.6.4-.8.5-1.2 1-.75.75-.55.4.05-.35q.15-1.1.45-1.85zM42.4 5.55l.05.55q-.15.25-.45.15L41.6 6q-1.05-1.05-1.05-2.8t.9-3.2h4.8l-.15.15-1.75 1.45q-1.45 1.45-1.9 3.45zm.1 24.3 1.3.25 1.05-.5.9-.75.55-.55.8-1 .65-1.05.5-1.1.3-.8q.6-1.65.75-3.45v-1.3q-.1-2.1-.6-4.05l-.8-2.8q-.35-1.75 0-2.85v-.5l-.45-.05-.3.35q-.65 1.15-.9 3l-.1.8-.55 1.75Q44.3 18.9 42.1 21l-1.75 1.3-.9.65q-.45.6-.3 1.3l.05.25q.2.55.65.9-1.45.8-2.6 1.2-2.2.8-4.75.4l.3-.6q.55-1 .55-1.85l-.05-.4q-.2-.85-.95-1.1-.45-.15-1.05 0l-1.1.3-1.65.1q-1.65 0-2.75-.65-.9-.55-1.35-1.5l-.1-.25q-.25-.65-.35-2.1 0-.9-.4-1.2l-.15-.05-.3-1.25q-.35-.95-1.05-1.2-.35-.2-.55 0-.15.2.05.5.55 1.45 0 3.5l-.55 2.2-.35 1.2-.05.9v.55l.15 1.05.6 1.65.25.55q1.2 2.15 3.5 3.35 1.1.55 1.95.6l1.55-.05q1.5-.2 2.45-.75l2.35 1.15-.5.3 1.75.1q4.45-.3 7.8-2.2m-1.45-2H42q-.15.25-.15.55l.05.35q-.55-.2-.8-.75zm-3.3-6.8q-.2-.45-.1-.95.15-.6.65-1.05l1.2-.7q1.65-1.65 1.65-3.8.1-2.4-1.9-3.8-.2-.15-1.2-.55l.15.65q0 .85-.4 1.25l-1.35.25-1.2-.7q-.15-.15-.3-.15l-.3.15-1.85.05q-.45.8-1.3.9-.95.15-1.55-.45l-.05.25q.25 1.35.9 2.6 1 2 2.7 3.4l1.1.95.45.8 1.6.85-.05.05-1.65 1q.65.3.8.95l.2-.05q1.15-.3 2.6-1.2-.45-.15-.7-.5zm-5.45 7.8-.05-.2q-.1-.45-.55-.65l.4-.45.1-.1.05.15q.25.6.05 1.25"/><path fill="#fff" d="M39.85 25.4q-.45-.35-.65-.9l-.05-.25q-.15-.7.3-1.3l.9-.65L42.1 21q2.2-2.1 3.5-5.75l.55-1.75.1-.8q.25-1.85.9-3l.3-.35.45.05v.5q-.35 1.1 0 2.85l.8 2.8q.5 1.95.6 4.05v1.3q-.15 1.8-.75 3.45l-.3.8-.5 1.1-.65 1.05-.8 1-.55.55-.9.75-1.05.5-1.3-.25-.1-.1q-.45-.45-.5-1l-.05-.35q0-.3.15-.55h-.95l-.65-.35q-.4-.35-.45-.9-.05-.6.3-1zm-8.75 5.1q-.95.55-2.45.75l-1.55.05q-.85-.05-1.95-.6-2.3-1.2-3.5-3.35l-.25-.55-.6-1.65-.15-1.05v-.55l.05-.9.35-1.2.55-2.2q.55-2.05 0-3.5-.2-.3-.05-.5.2-.2.55 0 .7.25 1.05 1.2l.3 1.25.15.05q.4.3.4 1.2.1 1.45.35 2.1l.1.25q.45.95 1.35 1.5 1.1.65 2.75.65l1.65-.1 1.1-.3q.6-.15 1.05 0 .75.25.95 1.1l.05.4q0 .85-.55 1.85l-.3.6-.3.45-.1.1-.4.45q.45.2.55.65l.05.2q.15.8-.85 1.4z"/><path d="M57.55 20.9h.5l2.95.05h2.15l1.4.05.65.05h4l2.25.05h4.25l.25.05H76v3h-.3l-.55.05.85.2v9.05l-1.1.2 1.1.45v2.6l-.6.1.6.1v3.6l-1.65-.1-6.75-.85-.05.35q-.1.65-.7.8h-.75l-.25-.05-.05.35-.65.75-2.05.1q-5.6-.85-8.7-1.9l-.1.65q-.15.5-.75.65l-.3.05-.7.05-1.7-.65-2.35-1.35-.45-.4-.15-.35.2-.45.35-.1.5-.1 1 .25.3.05-.5-.2-2.05-.95-.45-.35q-.2-.35-.05-.55.2-.25.8-.15l5.7 1.2 2.4.45.7.05-.4-.1-4.3-1.1-.75-.35q-.35-.35-.2-.75t.95-.5q1.7-.15 3.85 0l-6.5-.35q-.8 0-1-.35-.2-.25-.05-.6l.4-.45 1.2-.15 9.1.2 4.4.05-11.1-.65-.75-.15q-.35-.15-.35-.6.1-.45.95-.55l3.7-.25-.75-.15-3.25-.45-1.1-.25-.3-.45v-.05l-1.25-.05.95-1.25.75-1.2.5-.9.4-.85.45-1.1.3-.95.05-.1.55-2.5H55l-.25.5q-.3.75-.45 1.85l-.05.35.55-.4.75-.75 1.2-1zM19.4 29.05l-3.55.55 1.8.15.55.2.25.5-.4.45-1.85.45-10.4 1.4 12.55-.85h1.6l.7.3q.35.25.25.65-.15.4-.9.5l-.9.15.1.1q.45.55-.1 1l-.6.15-1.05.3 4.15-.7 1.4-.15.6.05q.4.2.25.5l-.4.3-7.05 2.55 1.45-.25 5.65-.9q2.05-.65 2.9-.65l.6.15.2.5q-.05.25-.5.35l-5.4 1.95-.1.25 2.5-.7 3.45-1.1.8-.2h.1l.4-.15q.3 0 .45.2l.15.45-.15.3.2.1.2.15.25-.05q.65.1.55.75v.05l.45-.05q.35.05.6.4v.65l-.2.3-.15.35-.75.45-.8-.3-.2-.65-.8.75q-.5.4-.85.4-.3-.05-.5-.3l-.15-.25-.05-.05-.45-.45-.25.2-.4.3-.6.55-.75.35-.6-.2-.1-.1q-.55.25-1.15.45l-.6.3-.35.1-1.1.35-.6-.2-.2-.15-.45.1q-.7.1-1.15-.35-.45-.5-.1-1.1l.05-.05-.05-.1-.1-.45-1 .35-4.1 1.2-1.6.25q-1.1-.1-1.5-1L9.4 40l-3.65 1.2-1.75.25q-.9-.25-1.25-1.15l-.05-.2-1.65-.05Q.3 39.8 0 39v-1.1l.4-.75.35-.25-.75-.7v-2q.4-.65 1.5-.95l-.25-.1q-.9-.35-1.1-1.4-.1-1.05.8-1.65l-.4-.25-.55-.8v-1.5l.05-.1H0v-4.9l.2-.2q.75-.8 2.7-.6l2.05.15H8.2l.3-.05h.7l1.3-.05h.2l.05.55.2 1.1.25.85.25.5.25.45 1.05 1.35.05.05.7.75 1.3.9 2.5.2-1.05-1.25L16 27q-.85-.85-1.35-1.95l-.25-.55-.1-.2-.2-.75-.15-1-.05-.85h1.45l.15-.05h.25l.3-.05h.6l.15 1.15.15.95.25 1 .05.15.6 1.7.3.55-1 .1 1.15.15zM46.1 40.4l-.65.1-.6-.4-.25-.25-.5-.4q-.2-.35-.05-.65l.5-.4.1-.05q.4.05 1.05.6l.55.65q.2.6-.15.8m-9.5-19.35h1.15l.1.2q.25.35.7.5-1.45.9-2.6 1.2l-.2.05q-.15-.65-.8-.95zM38 38.9l.2.2.05.35v.2l-.2.6-.8.05-.15-.2-.05-.15-.1-.6.05-.5.4-.3h.3l.2.15z"/><path d="M38.1 15.45q.5 1.35 2 1.85l.3-.45q.35-.35 1.1-.55l2.2-.25.55.1.1-.25q.6-.85.5-2.05l-.15-.75-.4.05q-.4 0-1-.5-1.05-.75-1.5-1.45l-.2-.4q-1.4 0-2.35.75l-.1.05-1 1.2q-.15.45-.15.95-.15.95.1 1.7m7 4.9q-.95 1.55-2.45 2.8l-.45.35.6.75q1.25 1.65 2.3 3.65.9 1.8 1.05 2.85.25 1.75-.45 3-.55.9-2.15 1.8l-2.5 1.05-2.7.4q-3.25.3-5.1-.1-2.9-.5-4.4-2.45l-.8-1.55q-.15-.6-.05-1.85.15-1 .45-1.85.5-1.15 1.1-1.95 1.05-1.65 2.65-3l-.15-.05-2.75-1.75q-.65-.65-1-1.4l-.2.05-2.1.2q-.95-.15-1.85-.8l-.4-.35-.15-.15-.55-.55-.5-.7-.25-.75q-.55-2.3.25-4.55l.3-.7.45-.6q.95-1.1 1.95-1.65 1.3-.65 2.5-.45.7.05 1.45.4l.45.3q1.2-1.6 3-2.4 1.4-.65 3.4-.75l2.2.1.35-.65q1.15-1.6 3.15-1.85l1.2.1q1.15.2 2.3 1.35l.5.6q.85 1.05.6 2.5-.3 1.3-1.25 2l.15.2q.95 1.6 1 3.7.1 2.55-1.15 4.7m-6.25.05.65.1q.3.1.8.5l.9.1q.45-.25.25-.8l-.4-.75-.3-.4q-.6-.6-1.45-.75l-.65-.05-.1-.45-.25-.4-.85-.55q-.35 0-.6.25l-.35.8.15.8-.45.2-.35.2-1.15.95q-.5.7-.55 1.25 0 .6.4 1l.8.2.7-.35.5-.95.6-.5q.9-.4 1.7-.4m-3.7-5.3q-.45-1.05-1.95-1.9l-.8-.35-.95-.1-.8.05-.25.05h-.1l-1.15.6.1.45-.3 1.5q-.45 1.25-1.05 1.75l-.55.4.15.4.35.65.85.8.65.4.25.1h.05l.25.1.55-.65q1.25-1.05 3.3-1.55l1.2-.05.1.05.15-.55.1-.8zm-.25-6.45q-.4.25-.3.8l.2.8-.75.2q-.6.35-.9.65-.2.35-.1.5l.35.1 1.2-.05.45-.05.4 1.45.2.35.5.25.45-.2q.35-.35.15-.95l-.35-.95-.05-.2.95-.2.85-.6q.15-.35-.05-.7l-.55-.4-.65.1-.9.3-.1-.4-.15-.55-.4-.35z"/><path fill="#fff" d="M38.1 15.45q-.25-.75-.1-1.7 0-.5.15-.95l1-1.2.1-.05q.95-.75 2.35-.75l.2.4q.45.7 1.5 1.45.6.5 1 .5l.4-.05.15.75q.1 1.2-.5 2.05l-.1.25-.55-.1-2.2.25q-.75.2-1.1.55l-.3.45q-1.5-.5-2-1.85m-3.2-6.8.45-.1.4.35.15.55.1.4.9-.3.65-.1.55.4q.2.35.05.7l-.85.6-.95.2.05.2.35.95q.2.6-.15.95l-.45.2-.5-.25-.2-.35-.4-1.45-.45.05-1.2.05-.35-.1q-.1-.15.1-.5.3-.3.9-.65l.75-.2-.2-.8q-.1-.55.3-.8m.25 6.45.15 1.35-.1.8-.15.55-.1-.05-1.2.05q-2.05.5-3.3 1.55l-.55.65-.25-.1h-.05l-.25-.1-.65-.4-.85-.8-.35-.65-.15-.4.55-.4q.6-.5 1.05-1.75l.3-1.5-.1-.45 1.15-.6h.1l.25-.05.8-.05.95.1.8.35q1.5.85 1.95 1.9m3.7 5.3q-.8 0-1.7.4l-.6.5-.5.95-.7.35-.8-.2q-.4-.4-.4-1 .05-.55.55-1.25l1.15-.95.35-.2.45-.2-.15-.8.35-.8q.25-.25.6-.25l.85.55.25.4.1.45.65.05q.85.15 1.45.75l.3.4.4.75q.2.55-.25.8l-.9-.1q-.5-.4-.8-.5z"/></g></svg>