<svg xmlns="http://www.w3.org/2000/svg" xmlns:ffdec="https://www.free-decompiler.com/flash" ffdec:objectType="shape" width="60.1" height="44.1"><g fill-rule="evenodd"><path fill="#fff" d="m56.9 21.2-.2 1.15-.65 1.05Q55 24.65 53.2 25.3l-3.4.4-1.6-.25q-1.55-.55-2.1-2.1-.6-1.4-.1-3-1-.5-.9-1.75.1-1 1-1.75.75-.6 1.85-.95l5.9.2q1.65.65 2.3 1.6.85 1.15.75 3.5m-42.75-.95-.3 1.65q-.3.85-1.3 1.55l-1.75 1-1.95.95-.9.3-1.15-.25-1.7-.6-1.2-.6q-1.25-.75-1.85-2.35l-.2-.75v-.8q.1-1.35.3-1.75.3-.6.95-1.25l.55-.55.15-.05 1.2-.7q1.5-.55 3.3.5l.2-.15q1.2-.8 2.55-.55 1.5.25 2.25 1.4l.6 1.2.25.95zm-7.25.2.9.45-.35-.3zm2.15.75-.55-.05.3.2z"/><path fill="#999" d="M19.5 1.35V1.3l.05-.05.05-.1.1-.05.05-.05.05-.1.05-.05.15-.05.1-.1h.15L20.3.7h.3V.65h.05l.2.05h.1l.15.05.15.05.05.1.1.05V.9l.15-.05.15-.05.15-.05.05-.05.05-.1.05-.05.05-.05.1-.1.05-.05.1-.05.1-.1.15-.05.2-.05.15-.05L23 0h14.1l.1.05.15.05.2.05.15.05.1.1.1.05.05.05.1.1.05.05.05.05.05.1.05.05.15.05.15.05.15.05v.05l.1-.05.05-.1.15-.05.15-.05h.1l.2-.05h.05V.7h.3l.05.05H40l.1.1.15.05.05.05.05.1.05.05.1.05.05.1.05.05v.05l.05.1v.05l.05.05v.1l.05.05v.9l.05.1v.1l.05.1v2l.05.1v.55l.05.1v1.9l.05.05v.3l.2 2.25.45-.25L50.9 5q1.55-.8 3.6-1.55l.2.05-.05.15-3.5 3.15-1.4 1.1-2.4 2.25-2.25 1.95-.35.35h1.8l.65.05h1.95l-.1.05h.35l.3.05h1l2.45-.05h.5v.05h4.4l.1.05h.1l.1.05h.05l.1.05.15.05.1.1.1.05.05.05.1.1.1.1.05.05.05.1.05.05.05.05v.1l.05.05.05.05.05.1.05.05.05.05.05.1.05.05v.05l.05.1.05.05v.15l.05.05v.05l.05.05v.2l.05.1v.5l.05.1v.2l.05.05v.4l.05.05V25l.05.05v.8l-.05.05v.25l.05.1v1.5l-.05.05v.15L60 28v.1l-.05.05-.05.05v.1l-.05.05-.05.05-.05.05-.05.1-.05.05-.1.05-.05.1-.1.05-.1.05-.1.1-.2.05-.1.05-.1.1-.15.05-.15.05-.15.1-.1.05-.2.05-.15.05v.05h-.25l-.2.05-.15.05h-.2l-.35.05H55.7l-.3.05h-1.85l-1.35.05h-3.45l-.8.05h-.25l-.2.05h-.3v.05h-1.3l.2.25 2.25 1.95 2.4 2.25 1.4 1.1 3.5 3.15.05.15-.2.05-3.6-1.55-7.1-3.75-.3 2.25-.25 3.15-.15 1.85q-.2 1-.85 1.4-.55.4-1.3.25l-1.1-.7-.1-.2q-.55.5-1.4.6-1.1.1-1.8-.55l-.6-.5-.75-.15h-1.3l-1.55-.2-1.2-.6-1.3-.6q-.7-.45-.9-1-1.05 1.8-3.05 2.05-1.95.25-3.45-1.25-.4.85-1.25 1.35t-1.8.45h-.1v.1l-.6.85-1.05.2-.55-.2q-.6-.1-1.05-.8-.35-.6-.45-1.65L16 34.4l-.2-2.25-.45.25-9.25 4.9-3.6 1.55-.2-.05.05-.15 3.5-3.15 1.4-1.1 2.4-2.25 2.25-1.95.35-.35h-.1l-1.1-.05h-3.2l-1.3-.05H4.7l-.3-.05H3.35L3 29.65h-.2l-.15-.05-.2-.05H2.2v-.05l-.15-.05-.2-.05-.1-.05-.15-.1-.15-.05-.15-.05-.1-.1-.1-.05-.2-.05-.1-.1-.1-.05-.1-.05-.05-.1-.1-.05-.05-.05-.05-.1-.05-.05-.05-.05-.05-.05v-.1l-.05-.05-.05-.05V28l-.05-.05v-.15L0 27.75v-1.5l.05-.1v-.25L0 25.85v-.8L.05 25v-8.9l.05-.05v-.4l.05-.05v-.2l.05-.1v-.5l.05-.1v-.2l.05-.05v-.05l.05-.05v-.15l.05-.05.05-.1V14l.05-.05.05-.1.05-.05.05-.05.05-.1.05-.05.05-.05v-.1l.05-.05.05-.05.05-.1.05-.05.1-.1.1-.1.05-.05.1-.05.1-.1.15-.05.1-.05h.05l.1-.05h.1l.1-.05h4.4v-.05h.5l2.45.05h1l.3-.05h.25l-.1-.05h2.05l.65-.05h1.7l-.35-.35-2.25-1.95-2.4-2.25-1.4-1.1-3.5-3.15-.05-.15.2-.05L9.1 5l9.25 4.9.45.25.2-2.25.1.15V7.6l.05-.05v-1.9l.05-.1V5l.05-.1v-2l.05-.1v-.1l.05-.1v-.9l.05-.05v-.1l.05-.05v-.05zM56.9 21.2q.1-2.35-.75-3.5-.65-.95-2.3-1.6l-5.9-.2q-1.1.35-1.85.95-.9.75-1 1.75-.1 1.25.9 1.75-.5 1.6.1 3 .55 1.55 2.1 2.1l1.6.25 3.4-.4q1.8-.65 2.85-1.9l.65-1.05zM37.2 10.85l-.15.05-.1.05h-.05l-.1.05 1 .6v-.8l.05-.05v-.1l-.1.05-.15.05h-.1l-.15.05zm3.05 11.45q-.7-2.9-2.35-4.75-1.1-1.2-3-2.35-1.55-.85-2.55-1.15-3.3-.9-6.55 1-2.8 1.75-4.35 5.05-1.25 2.65-1.7 6.25.55-.15 1.05 0 1.35.4 1.75 1.75l1.45.15 1.1.95q.7.95 1 2.8.35 2.15.65 2.9l1.5-2.7v-.1q.1-.4.35-.55l.1-.2q.9-1.7 1.85-2.1L31.9 29l1.25-.45.65-.8.7-.8 1.15-.45.8-.7.7-.8q.7-.55 2.3-.55l1.2.2zM22.9 10.85l-.15-.05-.15-.05h-.1l-.15-.05-.1-.05v.1l.05.05v1.05l1.15-.8h-.05V11h-.1l-.1-.05h-.05l-.1-.05zm-5.05 5.4-.4 1.55-.3 1.55q.65-1.8 1.6-3.4h-.85zm-8.8 4.95-.25.15-.3-.2zm-2.15-.75.55.15.35.3zm7.25-.2v-.85l-.25-.95-.6-1.2q-.75-1.15-2.25-1.4-1.35-.25-2.55.55l-.2.15q-1.8-1.05-3.3-.5l-1.2.7-.15.05-.55.55q-.65.65-.95 1.25-.2.4-.3 1.75v.8l.2.75q.6 1.6 1.85 2.35l1.2.6 1.7.6 1.15.25.9-.3 1.95-.95 1.75-1q1-.7 1.3-1.55z"/><path d="m53.15 21.9.15-.6-.05-1.5q-.2-.9-1-1.2l-.65-.1q-1.3-.2-2.2 0-.65.1-1.1.45l-1 .45q-.4 0-.7-.3t-.3-.6q.05-.65.85-1.15Q49 16 51.7 16.45q2.35.3 3.4 1.8.75.95.65 2.7l-.1.85-.7 1.25-.35.45-.55.3-.85.5-1.5.45-3-.2q-1.65-.55-1.8-1.85l.05-.7q.3-1.3.95-1.9.6-.55 1.45-.75l1.95.15q.95.45 1.05 1.3.1.45-.3.8-.4.4-.9.2l-.45-.25-.4-.35-.4.2-.15.4.05.4.6.25 2.25-.15zM20.9 28.8q-2.5-1.3-3.25-3.95-.75-2.7-.7-3.9l.35-2.9-.35-.65-.6-1.5-.3-1.25q-.55-1.8-.3-2.6.25-1 1.2-1.3l1-.2 3.55-.15 3.6-1.3 4.8-.6 4.65.45q1.2.4 3.05 1.45l3.55.15 1 .2q.95.3 1.2 1.3.25.8-.3 2.6l-.3 1.25-.6 1.5-.35.65.35 2.9q.05 1.2-.7 3.9-.75 2.65-3.25 3.95t-1.95 1.1l1.5.45 3.15.2 1.5-.55 2.5-1.25v-.05l.4-.85q.8-1.15 2.35-1.6l2.9-.25q3.35.1 5.05 1.55l.9 1.15.25 1.2-.15 1.2-.8 1.15q-.85.85-2.45 1.2l-2.8.15-1.95-.1-.25.15-1.6.75-1.55.4-2.1.35q-3 .3-6.3-1.2l.65 1.35.8 2.6.8 2.45q.35 1.45-.3 2.55-.65 1.2-2.1 1.2-1.35.1-2.1-1.15-.35-.5-.55-1.4l-.05.05-.9.5-.85.65q-.65.45-1.45.35l-1.2-.55q-.5.4-1.2.55-.8.1-1.45-.35l-.85-.65-.9-.5-.05-.05-.55 1.4q-.75 1.25-2.1 1.15-1.45 0-2.1-1.2-.65-1.1-.3-2.55l.8-2.45.8-2.6.65-1.35q-3.3 1.5-6.3 1.2l-2.1-.35-1.55-.4-1.6-.75-.25-.15-1.95.1-2.8-.15q-1.6-.35-2.45-1.2-.6-.5-.8-1.15l-.15-1.2.25-1.2q.15-.5.9-1.15Q5.2 26.1 8.55 26l2.9.25q1.55.45 2.35 1.6l.4.85v.05L16.7 30l1.5.55 3.15-.2 1.5-.45zm10-3.65.05.05v.1l.05.05v.05l.05.05.05.05v.05l.05.1.1.05.05.05.1.05.1.05.1.05h.05l.1.05.1.05h.55l.1-.05h.9l.5-.05h3.8l.2.05.2-.05h.15l.1-.1.15-.05.2-.2.05-.1.1-.1v-.05l.05-.05v-.15l.05-.05v-.2l-.05-.1v-.1l-.05-.05v-.05l-.05-.05-.05-.1-.1-.1-.05-.05-.1-.1-.15-.1-.1-.05-.15-.05h-.4l-.05.05h-2.1l-.9.35-3.45.7-.3.05zm-2.85.15v-.05l-3.85-.9-.85-.35h-2l-.05-.05h-.4l-.15.05-.1.05-.15.1-.1.1-.05.05-.1.1-.05.1-.05.05v.05l-.05.05v.1l-.05.1v.2l.05.05v.15l.05.05v.05l.1.1.05.1.2.2.15.05.1.1h.15l.2.05.2-.05h3.8l.5.05h.9l.1.05h.55l.1-.05.1-.05h.05l.1-.05.1-.05.1-.05.05-.05.1-.05.05-.1v-.05l.05-.05.05-.05v-.05zm-19.1-1.15-1.1.55-1-.1-.5-.3-.6-.2-1.5-.8-.6-.4q-1.1-.95-.95-2.4l.2-.9q.4-.85 1.15-1.5l.6-.45.75-.2 1.8.1.55.45.3.35q.75-.85 1.45-1l.65-.1h.65q.45.1 1.05.55l.55.5.35.55.25.7v1.2l-.15.65-.4.55-1.85 1.4z"/><path fill="#fff" d="M30.9 25.15v-.05l.3-.05 3.45-.7.9-.35h2.1l.05-.05h.4l.15.05.1.05.15.1.1.1.05.05.1.1.05.1.05.05v.05l.05.05v.1l.05.1v.2l-.05.05v.15l-.05.05v.05l-.1.1-.05.1-.2.2-.15.05-.1.1h-.15l-.2.05-.2-.05h-3.8l-.5.05h-.9l-.1.05h-.55l-.1-.05-.1-.05h-.05l-.1-.05-.1-.05-.1-.05-.05-.05-.1-.05-.05-.1v-.05l-.05-.05-.05-.05v-.05l-.05-.05v-.1zm-2.85.15-.05.05v.05l-.05.05-.05.05v.05l-.05.1-.1.05-.05.05-.1.05-.1.05-.1.05h-.05l-.1.05-.1.05h-.55l-.1-.05h-.9l-.5-.05h-3.8l-.2.05-.2-.05h-.15l-.1-.1-.15-.05-.2-.2-.05-.1-.1-.1v-.05l-.05-.05v-.15l-.05-.05v-.2l.05-.1v-.1l.05-.05v-.05l.05-.05.05-.1.1-.1.05-.05.1-.1.15-.1.1-.05.15-.05h.4l.05.05h2l.85.35 3.85.9z"/></g></svg>