<svg xmlns="http://www.w3.org/2000/svg" xmlns:ffdec="https://www.free-decompiler.com/flash" ffdec:objectType="shape" width="66.75" height="42"><g fill-rule="evenodd"><path fill="#999" d="M32.1 7.85v3.45l-.05.05v1.35l-.05.1v2.1l-.05.1v1.65l-.05.1v4.1l-.05.1v1l-.05.1v.85l-.05.05V25l-.05.1v.7l-.05.1v1.15l-.05.1v.35l-.05.1v.65l-.05.1v.15l-.05.05v.55l-.05.1v.15l-.05.1v.45l-.05.15v.15l-.05.1v.25l-.05.05v.35l-.05.05-.05.1-.05.1-.05.1v.5l-.05.05v.2l-.05.05v.55l-.05.05-.05.1-.05.1-.15.05-.2.05-.25-.05-.1-.05-.1-.1-.05-.1v-.5l-.05-.1v-.25l-.05-.05v-.5l-.05-.1v-.1l.05-.1v-.15l.05-.1v-.05l-.05-.1v-.5l-.05-.05v-.4l-.05-.05v-.15l-.05-.1v-.5l-.05-.05v-.25l-.05-.05V28l-.05-.1v-.3l-.05-.1v-.9l-.05-.1v-.6l-.05-.1v-1.65l-.05-.1v-1.1l-.05-.05v-1.85l-.05-.1v-1.6l-.05-.1v-2.5l-.05-.1V14.2l-.05-.05V12.9l-.05-.1v-2.35l-.05-.1v-4.5l-.05-.1v-2l-.05.05v1.45l-.05.05V6l-.05.1v1l-.05.1v1.55l-.05.1v.95l-.05.05v.4l-.05.1v2.95l-.05.1v.65l-.05.1v1.35l-.05.05v.7l-.05.1v.25l-.05.05v.15l-.05.1v.7l-.05.05v.25l-.05.1-.05.1v.6l-.05.05-.1.1h-.15l-.1-.1v-.3l-.05-.1v-.2l-.05-.05V18l-.05-.1v-.55l-.05-.1V17l-.05-.1v-.55l-.05-.1V16l-.05-.05v-.9L27.3 15v-.8l-.05-.05V12l-.05-.1v-1.45l-.05-.1v-1.4l-.05-.1v-.8l-.05-.15v-.7L27 7.1V5.6l-.05-.1v-.05l-.05-.15V3l-.05-.1v-.85L26.8 2v-.9l-.05-.05V.8l.05-.1V.55l.05-.1.05-.05.05-.1.1-.1.1-.1.15-.1h1.15l.15.1.1.1.1.1.05.1.05.05.05.1.05.1v.3l.05-.05.05-.1.1-.1.05-.05.1-.1.1-.1.1-.05.2-.1.25-.1.2-.05h.35V.1l.3.05.25.05.2.1.15.1.15.05.1.1.1.1.1.05.05.1.05.1.05.05.05.1V.6l.05-.1.05-.05v-.1l.05-.1.05-.05.05-.1.1-.1h3.35l.05.1.1-.1h2.35l.05.05.05.1.1.1V.3l.1.1v.15l.05.15v.05l.05.1v4.1l-.05.1v.55l-.05.1-1.5-1.75-.45-.55-.35-.65q-.3-.4-.7-.4h-.35q-.4 0-.7.4l-.35.65-.45.55-1.55 1.8v-.1l-.05-.1v.2l-.05.1v.05l-.1.05-.65.8q-.3.5.15.9zm7.1-1.5V5.9l-.05-.05V1.1l-.05-.05V.2l.05-.1V0h2.9v3.9l-.05.05V5.8l-.05.1v2.9l-.05.15v.55l-.05.1v.75l-.05.1v.9l-.05.1v.9l-.05.1v.75l-.05.1v.75l-.05.1v4.65l-.05.1v.6l-.05.1v2.35l-.05.1v1.05l-.05.1v.4l-.05.1v.5l-.05.05v.4l-.05.05v.4l-.05.1v.15l-.05.1v.45l-.05.05v.1l-.05.1v.25l-.05.05-.05.1v.05l-.05.1-.1.1-.1.05h-.1l-.2-.05-.15-.05-.05-.1-.05-.05v-.25l-.05-.1v-.1l-.05-.1v-.3l-.05-.1v-.15l-.05-.1V25l-.05-.1v-.2l-.05-.05v-.6L39.8 24v-.25l-.05-.1v-.45l-.05-.1v-2.5l-.05-.1v-.9l-.05-.1v-2.3l-.05-.1v-2.9l-.05-.05v-1.1l-.05-.1v-.5l-.05-.05v-1.5l-.05-.1v-.3l-.05-.05V9l-.05-.05V7.7l.1-.05q.45-.4.15-.9zM43.9 0l.15.05.15.1.05.1.05.05.05.1v.15l.05.15v1.55l-.05.1v1l-.05.1v.3l-.05.1V5.1l-.05.1v.75l-.05.1v1.8l-.05.1v.95l-.05.05v.6L44 9.6v.95l-.05.1v.75l-.05.1v2.45l-.05.05v.65l-.05.1v.1l-.1.1h-.2l-.1-.1-.05-.1V12.9l-.05-.05v-1.3l-.05-.05v-1.35l-.05-.1v-.3l-.05-.15V7.95l-.05-.1V6.8l-.05-.1V5.25L43 5.2v-.7l-.05-.1v-.45l-.05-.1v-.7l-.05-.1v-.7l-.05-.1V.55l.05-.1V.4l.05-.1.05-.05.1-.1.1-.1.15-.05zm13.4 7.45 1.25.15-.05-1.2.05-.7-.15-1.15-.05-.15.1-.55q.25-.4 1.1-.4h.85q.9 0 1.15.4l.05.55v.15l-.15 1.15.05.7-.15 1.2 1.35-.15.85.2q.4.4.1 1l-.55.8-1.6 2.15-.4.6-.3.7-.65.45h-.3q-.35 0-.65-.45l-.3-.7-.4-.6-1.6-2.15-.55-.8q-.3-.6.1-1zm9.45 12.95q.1 2-.65 3.4-.65 1.25-1.8 2.05l.1.85.1.45.35.2q1.1.4 1.5 1.45l.25.75.15 1.05q-.05 1-1.35 2.2.3.35.2.85 0 .45-.4.75-.45.35-1.6.35l-.45-.05-.05.15-.8.8-.95.15-.7-.15q-.55.5-1.6.3-.85-.2-1.15-.7h-.1l-.75.2-.9.1-1.05-.2-.5-.45-.3-.5q-.1-.5.25-.9l-.75-.95-.4-.7-2 .8-1.15.85.5-.1 1-.05.95.3.7.75q.25.75-.3 1.35-.55.45-1.4.55l-1.6-.15-1.6-.5-.6-.45q-.2-.25-.25-.85-.05-.85.05-1.1l.4-.75q.75-1 2.25-1.75l2.75-.95.4-.1.2-.5q.5-.7 1.15-1.05l.6-.5.05-.45.15-.6.3-.65-.85-.65-1.5-1.8q-.45-1.1-.45-2.2.05-.65.4-1.55l.5-1.2.3-.4-.35-.55q-.15-.2-.15-.75-.05-.75.05-1.05l.45-1.15.2-.6q.1-.45.3-.65.25-.3.65-.4.4-.05.85.25l.45.55.7 1.1.45.55 3.95-.1.2-.2 1.3-1.55.7-.75h.6l.55.35.15.7.45 1 .25 1 .05.7.2 1.3v.6l.05.1zM38.6 7.85v5.55l-.05.1v1.75l-.05.1v1l-.05.1v.9l-.05.1v2.25l-.05.1v.75l-.05.1v2.1l-.05.1v.9l-.05.05v.45l-.05.1v3.95l-.05.05v1.2l-.05.1v1.65l-.05.1v.45l-.05.05v1.75l-.05.1v.7l-.05.05v.9l-.05.1v.25l-.05.1v.75l-.05.05v.1l-.05.1v.35l-.05.1v.3l-.05.1-.05.05v.1l-.05.1v.25l-.05.1v.05l-.05.1-.05.1-.1.05h-.05l-.15.05-.2-.05-.1-.1-.05-.1-.05-.05-.05-.1v-.15l.05-.1v-.25l.05-.1v-.75l-.05-.05v-.2l-.05-.05v-.3l-.05-.1v-.65l-.05-.05v-.55l-.05-.05v-1.1l-.05-.1v-.8l-.05-.1v-1.35l-.05-.05v-.8l-.05-.05V28.4l-.05-.05v-2.4l-.05-.05v-1.5l-.05-.1v-1.4l-.05-.1v-1.25l-.05-.1v-1.6l-.05-.05v-1.05l-.05-.05v-2.2l-.05-.1V16l-.05-.05V14.2l-.05.1v.3l-.05.1v.7l-.05.1v.95l-.05.1v1.15l-.05.1v1.6l-.05.1v.5l-.05.05v3.55l-.05.1v1.15l-.05.1v.35l-.05.05-.05.1v1.15l-.05.1v.55l-.05.05v2l-.05.1v1.1l-.05.05v.55l-.05.1v1.7l-.05.1v1.35l-.05.1v2.75l-.05.1v.25l-.05.1v.8l-.05.1v.35l-.05.1v.8l-.05.1v.2l-.05.05v.35l-.05.05v.2l-.05.05-.05.1v.15l-.05.1-.05.1-.05.1-.15.05-.15-.05-.05-.1-.05-.1-.05-.1V41l-.05-.1v-.25l-.05-.1v-.15l-.05-.05v-.45l-.05-.1v-.35l-.05-.05v-.75l-.05-.1v-.4l-.05-.1v-.35l-.05-.05V36.4l-.05-.1v-1.85l-.05-.1V32l-.05-.1v-.65l-.05-.05v-1.75l-.05-.05v-1.2l-.05-.05V26.7l-.05-.1v-.65L33 25.9v-.45l-.05-.1v-.15l-.05-.1v-.05l-.05-.1V21.4l-.05-.05v-1.2l-.05-.1v-1L32.7 19v-1.1l-.05-.1v-2.3l-.05-.1v-.35l-.05-.1v-.55l-.05-.1v-.6l-.05-.1v-.8l-.05-.15v-.45l-.05-.1v-.85l-.05-.1V8.8l-.05-.05v-.5l-.05-.1v-.3h.25l1.45-.15-.15 1.1.05.65-.15 1.05v.2l.05.45q.3.4 1.25.4h.95q.95 0 1.25-.4l.1-.45-.05-.2-.15-1.05.05-.65-.05-1.1 1.35.15z"/><path d="m38.9 25 .15-.25.05-.3.2-.2.35-.8.3-.4.1-.3q.2-.8 1-.8l.15-.05q.65 0 1.05.55.4.45.2 1.15l-.55.8-.5.5-.25.15-.9.9-.45.25q-.3.15-.8.65l-.4.45q-.3.2-.55 0l-.2-.45.25-.45.3-.55.35-.4zm-.3 6.9q.15-.2.45-.2l.55.2.75.05 2.35.6 1.05.3.6.7v.9l-.6.65-.9.15-.95-.45-3-2.25q-.45-.3-.3-.65M23.2 9.05q.15-.25.6-.45.6-.35.75-.35l.6-.1.85-.3.3-.3-.15-.7q-.8-1.15-2.1-.95l-.45.2-.1.55q0 .9-.9 1.25l-1.5-.15q-.85-.5-.7-1.5l.4-.95q1.3-1.7 2.9-1.9l.9-.05 1.4.35q.75.3 1.5 1.25l.9 1.5q.4 1.35-.5 2.5-.6.6-1.3.85l-1.9.4-.55.05q-.4.2-.35.6l-.05.75-.5.3-.35-.2-.2-.5-.05-.7q-.05-.8.55-1.45m1.15 5.15q.15.8-.8 1.4l-1.65-.1q-.7-.55-.55-1.5.1-.85.95-1.15.75-.3 1.4.2.55.35.65 1.15m2.35 14.65-.4.7.5-.2q3.5-1.1 5.35-1.2l1.75.25q1.3.55 1.6 1.9.25 1.4-.8 2.3t-2.6.45q-1.05-.3-1.25-1l-6.15.4-1.5.2-.7.25-.5.15-2.05.55-1.05.15.4 1.55.3 2.55q-.05 1.75-1.1 3.25l-.8.9H0v-.75q.5-.25 1.1-.4l1.25-.05q.35.05 1 .45l1 .45 1.8-.25.6-.2-.15-.15q-.8-.9-1.1-1.6-.45-1-.45-3.55.1-1.55.35-2.3l1-1.75 1.2-1.55-1.35.25q-.95.2-1.5.65-.35.3-.45.65-.05.4.35 1.1.25.65-.2 1.25-.75 1.3-2.35 1.15-.7-.1-1.2-.6l-.7-1.2q-.2-.8.15-1.85.1-.45.35-.8L2 29.6q.4-.3 1.05-.65l1.45-.7q1.3-.6 3.6-.6l2.2.3q-.25-.9-.25-2.25.1-2.15.55-3.4l.45-.9-.55-1.1q-.25-.85-.15-2.1 0-1.25.25-1.85l.75-1.15q1-1.15 2.4-1.7l2.95-.2q.85.25 1.55.65l1.3 1.05q.55.7.65 1.6l1.95.6 1.4.65 1.05-.65 2.3-.2q.6.15 1.8.9l1.2 1.05.55 1.15q.45 1.5.2 3-.3 1.6-1.35 2.65l-1.05.85-1.05.4-.05.25zm-1.6-5.05-.5-.05q-1.2 0-2.05 1-.75.9-.5 2.2.25 1.2 1.4 1.8l1.7.25.55-.2q.95-.4 1.35-1.4l.15-1.4q-.25-1.6-1.8-2.1zm9.15-5.2.1-.05q.55 0 .9.45l.3.95-.2.7v.55l-.4 3.35-.2.7-.1.7q-.2.25-.45 0l-.15-.8-.2-.8-.05-.4-.3-.95v-.95l-.2-.8v-.65l-.2-.6q-.1-.55.25-.95.4-.45.9-.45m-18.4 2.8-.5-.1h-.1q-1 .1-1.65.65-.7.55-.95 1.45l-.05.65q0 .8.45 1.5t1.2 1l1.6.2 1.4-.75.75-1.4q.15-.85-.15-1.55-.3-.75-1-1.25zm2.95 5.35-.05.1v.1l-.9-.15-.15-.05-1.2.15-.4.6q-.15.35.05.7l.6.5h.7l.15-.05.4-.25.5-.15.7-.05.15.1.3.1.5.35.35.1.25-.35-.2-.45-.35-.4.05-.2.1-.3.05-.5-.1-.6V26q-.3-.3-.65-.2-.35.05-.55.45zm8.55 13.5-.5.2h-.65l-.65-.4q-.25-.35-.2-.75 0-.55.25-.85l.25-.3.7-.6.35-.4.6-.5 1.85-1.05v-.1q.65-.5 1.3-.7.25 0 .35.3l-.1.4-.5.55-.65.7-.15.4-.5.65-.15.35-.4.4-.15.3-.3.4-.35.55zm8.7.15-.05-.5-.15-.5-.15-.95v-.8l-.1-1.2-.05-.55q0-.45.45-.55.45.1.7.5l.35.8.6 1.8.1.05.6 1.3.1.3.25.55.15.5-.05.85h-2.65l-.1-.15-.1-.4z"/><path fill="#fff" d="m28.25 26.6-.2.8q-.4 1-1.35 1.4v.05l.45-1.6.05-.25zm-3.15-2.8.3.1q1.55.5 1.8 2.1l-.15 1.4q-.4 1-1.35 1.4l-.55.2-.7-.25q-1.15-.6-1.4-1.8-.25-1.3.5-2.2.65-.8 1.55-.95m-9.25 2.95-.6-.2-1.2-1q-.45-.7-.45-1.5l.05-.65q.25-.9.95-1.45.5-.45 1.25-.55l1 .4q.7.5 1 1.25.3.7.15 1.55l-.75 1.4zm2 .05.9.15v-.1l.05-.1.95.2v-.1l.35-.6.2-.25v.05l.1.6-.05.5-.1.3-.05.2.35.4.2.45-.1-.1-.45-.2-.7.05-.15.05-.15-.1-.7.05-.5.15-.4.25-.45-.45q-.2-.35-.05-.7l.4-.6z"/></g></svg>