<svg xmlns="http://www.w3.org/2000/svg" xmlns:ffdec="https://www.free-decompiler.com/flash" ffdec:objectType="shape" width="74.05" height="43.7"><g fill-rule="evenodd"><path fill="#999" d="M63.8 7.75q-1.35-1.15-1.6-2-.2-.8.15-1.4.5-1.1 1.8-1.2 1.1-.15 2.2.55 1.6 1 3.35 4.25l2.8 5.55q1.25 2.7 1.5 4.7.1.6-.15.85l-.9-.05-.4-.6q-1.35-2.65-4.35-6.9l-.85-1.05q-.25-.25-1.3-.95zm2.75 12.75-1.15-1.25-1.05-1.4q-.35-.65-.3-1.1.1-.5.5-.85t.95-.35q.95-.05 1.8.8l1.15 1.6 1.15 1.95.65 1.35q1.75 3.9 2.75 7.6l.25 1.05.05.75q-.2.55-.6.4-.25-.05-.5-.85l-.35-.65-2.45-4.75-.7-1.3zm-8.05-.6-1.85-.95-1.1-.95q-.15-.25-.15-.75 0-.85.4-1.15t.9-.3q1.05-.1 1.7.35l.65.6 1.15 1 1.55 1.8.4.4.3.65.8 1.2.3.7.2.4-.15.3-.35.1-.65-.4-1.4-1.5-.65-.8-.55-.3h-.55zm-4.85-2.7q.5 1.75.45 3.4l-.3 1.7q3.8.95 8.25 3.2 5.8 2.95 8.25 6.2 1.4 1.95 1.4 3.65v.2l.2.25q.7 1.1.7 2.3l-.2.9q-.25.55-.8.45l-.65-.55-.35-.8-.1-.1-.2.2q.35 1 .15 1.65l-.35.75q-.3.35-.8.2l-.6-.8-.6-.75h-.25q.15.85-.25 1.35-.65.75-1.4.3l-.55-.7-.5-1.55-1.15-1-1.55-2.4q-1.4-2.3-5.35-5.55-2.95-2.4-4.95-3.45l-.6.85q-2.35 3.05-6.2 4.15l-7.55.25q-2.6-.55-4.6-1.8-6.1.35-12.15 3.9l-.3.15 1.1.05q1.3-.05 4-1.1 2.55-1 4-1 1.7 0 2.7.95 1 1.05.75 2.5-.15 1.3-1.45 2.15l-2.05.75-1.9.85q-2.1.75-4.7.6-4.35-.25-7.45-2.15-2.6 2.15-5.2 4.85-1.3 1.3-2.05 1.45H7l-1.5-.35H3.15q-1.35-.05-2-.7-.6-.65-.7-2.5L0 27.45q-.1-3 .55-4.3.7-1.55 2.95-3.05 3.9-2.65 8.55-4 4.6-1.3 9.35-1.15 3.4.1 6.2.95.35-1.9 1.35-3.7l.6-1-1.6-5.15-.2-1.1q-.1-.6.25-1.1.45-.6 1.35-.6l1.45.3q2.4.9 4.65 2.1l.4.25 2.85-.35 2.7.15 1.3.15q2.65.5 4.45 1.95l2.25.2 5.45 1.7q1.05.3 1.5.75.6.6.6 1.4 0 .85-.65 1.4l-.95.65-1.1 1.15-1.1.85.1.25-.6-.7-1.4-1.1-1.45-.55-1.1-.2-1.3.25q-2.65.95-3.85 2.9-1 1.7-.7 3.75l.25.75 1.25.65.75-.1q.3-.2.2-.65l-.35-.6-.3-.4-.1-.55q.1-1.45 1.1-2.55.9-.95 2.15-1.35l.85-.2.9.15q1.45.45 2.15 1.55l.15.35-.1.55-.25.75-.95 1.15-.75.55-1.05.15-1.3-.3q-.65-.4-.8-1.05l.1-.85q.15-.5.45-.85.5-.45 1.05-.35.65.1.95.6l-.45.45-.55.25-.3.4q-.05.35.35.55l.75.2q1-.1 1.3-1.3.3-.9-.3-1.5-.3-.3-.75-.45-1.3-.35-2.4.5-1.05.85-1.15 2.2l.1 1.1.35.7q.45.8.75 1 .55.4 1.65.6l1.75-.05q1.1-.3 2.1-1.5l.65-.85.55-1.95zM48.8 24l-3.85-.35-4.9-.15-5.8-.2q-2.55.2-5.9 1.05-1.25.35-1.3 1-.1.75.7.95.55.2 1.3 0l2-.35.05.2.4.95.75 1 1.1.05q.6-.35.5-1l-.25-.55-.4-1 .95-.2 1.45-.1-.1.55q0 .75.3 1.05l.4.35.3.5.35.4h.45l.35-.3V26l-.15-.8 1.2-.05 1.35-.05-.05.3-.1 1.45.1.65q.35.6 1 .25l.55-.7.55-1.45.1-.55 1.7-.05-.5 1.25q-.35.8-.35 1.15 0 .8.65.9.35.05.95-.65l1-1.5.4-1 .05-.2 2.25-.05.7-.15.2-.3-.15-.35zm-3.9 13q-.7-.6-.25-1.5.25-.65 1.1-1.1 1.4-.75 3.05-.65l3.1.35 1.2.25 2.8.7 1.6.8q1.8 1 3.35 2.35l.6.75q.2.65-.35.8-.35.1-.85-.3l-.95-.5-3-1.25q-2.2-.9-3.45-1l-2.45.2-4.05.35zM31.8 13.8l-.5.65-.4 1.05-.15.7-.05 2.2.05.65.35.55 1.15 1.2.6.4 1.4.4 1.85.25.85-.3.35-.5.15-.4-.5-.45-.7.1q-.7.05-2.25-.5l-.35-.2-.25-.4-.85-.95-.1-.7.1-1.3q.3-1.1 1.25-1.85t2.1-.8l.4.05.4.2.8.65.4.7-.1.85-.4.6-.9.6q-.65.1-1.05-.3-.45-.5 0-1.05l.85-.15.35.05.25-.25q.25-.65-.35-1.1l-.9-.15q-.5.15-.9.45l-.5.45-.3.65q-.25 1.05.25 2.1l.6.8q.35.3 1.05.4 1.9.25 3-1.2l.35-.6.3-.65.1-.75-.05-.95-.55-1.35-1.15-1.1-.7-.5L36 11.8q-1.35 0-2.2.45-.95.4-2 1.55M17.5 8.3l-1.9-.4q-.95-.1-1.5-.5-.65-.55-.55-1.45.15-.95 1-1.2l1-.15 2.25.05q.55.1 1.65.7 1.75 1.1 3.95 3.15l.85.9.8.9.65.75q.3.6-.05.95l-.9.15-.8-.65-2.25-1.65-1.35-.7-1.15-.25zm-7.25 2.2 1.15.45.5.4.65.2.75.3.35.35-.05.6q-.15.3-.5.3l-.5-.15-1.7-.35-.5-.05-.25.2q-.35.35-1.35.55l-2.65.4-1.2-.25Q4.2 13 4.4 11.9q.15-.9.95-1.4l.6-.25 1.3-.1 1.1.15.9.05zm31.7 22.05.25.4-.2.4-.7.2-.65.4-.45.2-.55.8-.7.65q-.45.45-.8 1.25l-.5 1.05-.15.45-.25.35q-.2.25-.65.35l-.95.05-.55-.35-.4-.45q-.15-.35-.15-1.1l.1-.8.45-.85 1.05-1 1.9-1.15q1-.5 1.55-.65l.85-.15.85-.15z"/><path fill="#fff" d="m53.65 17.2-.05 1.05-.55 1.95-.65.85q-1 1.2-2.1 1.5l-1.75.05q-1.1-.2-1.65-.6-.3-.2-.75-1l-.35-.7-.1-1.1q.1-1.35 1.15-2.2 1.1-.85 2.4-.5.45.15.75.45.6.6.3 1.5-.3 1.2-1.3 1.3l-.75-.2q-.4-.2-.35-.55l.3-.4.55-.25.45-.45q-.3-.5-.95-.6-.55-.1-1.05.35-.3.35-.45.85l-.1.85q.15.65.8 1.05l1.3.3 1.05-.15.75-.55.95-1.15.25-.75.1-.55-.15-.35q-.7-1.1-2.15-1.55l-.9-.15-.85.2q-1.25.4-2.15 1.35-1 1.1-1.1 2.55l.1.55.3.4.35.6q.1.45-.2.65l-.75.1-1.25-.65-.25-.75q-.3-2.05.7-3.75 1.2-1.95 3.85-2.9l1.3-.25 1.1.2 1.45.55 1.4 1.1.6.7.25.45zM48.8 24l.3.1.15.35-.2.3-.7.15-2.25.05-.05.2-.4 1-1 1.5q-.6.7-.95.65-.65-.1-.65-.9 0-.35.35-1.15l.5-1.25-1.7.05-.1.55-.55 1.45-.55.7q-.65.35-1-.25l-.1-.65.1-1.45.05-.3-1.35.05-1.2.05.15.8v1.85l-.35.3h-.45l-.35-.4-.3-.5-.4-.35q-.3-.3-.3-1.05l.1-.55-1.45.1-.95.2.4 1 .25.55q.1.65-.5 1l-1.1-.05-.75-1-.4-.95-.05-.2-2 .35q-.75.2-1.3 0-.8-.2-.7-.95.05-.65 1.3-1 3.35-.85 5.9-1.05l5.8.2 4.9.15zm-17-10.2q1.05-1.15 2-1.55.85-.45 2.2-.45l1.15.25.7.5 1.15 1.1.55 1.35.05.95-.1.75-.3.65-.35.6q-1.1 1.45-3 1.2-.7-.1-1.05-.4l-.6-.8q-.5-1.05-.25-2.1l.3-.65.5-.45q.4-.3.9-.45l.9.15q.6.45.35 1.1l-.25.25-.35-.05-.85.15q-.45.55 0 1.05.4.4 1.05.3l.9-.6.4-.6.1-.85-.4-.7-.8-.65-.4-.2-.4-.05q-1.15.05-2.1.8t-1.25 1.85l-.1 1.3.1.7.85.95.25.4.35.2q1.55.55 2.25.5l.7-.1.5.45-.15.4-.35.5-.85.3-1.85-.25-1.4-.4-.6-.4-1.15-1.2-.35-.55-.05-.65.05-2.2.15-.7.4-1.05z"/><path d="m11.5 0 .25.05.2.1.1.1.05.15.05.1.05.1v1.95l.05.1v.2l.05.1v.85l.05.1V4l.05.1v.1l.05.1v.85l.05.1v.2l.05.1v.4l.05.1v.1l.05.1v.4l.05.15V7l.05.1.05.1v.1l.05.1v.4l.05.1v1.05l.05.1V10l.05.1v.4l.05.1v.1l.05.1v.85l.05.1v.2l-.05.1v.3l-.05.1-.05.1v.1l-.1.1-.05.1-.1.1-.05.15-.1.1-.15.1-.15.1-.2.1-.15.05-.15.05-.3.05-.3-.05-.25-.1-.25-.1-.15-.1-.1-.1-.1-.1-.15-.1-.05-.1-.05-.1-.1-.1v-.1l-.05-.1-.05-.1v-.3l-.05-.15v-.3l.05-.1v-.8l.05-.1v-.1l.05-.1V10l.05-.1V9l.05-.1V7.55l.05-.1v-.1l.05-.15V7l.1-.1v-.2l.05-.1v-.4l.05-.1V6l.05-.1v-.45l.05-.1v-.2l.05-.1v-.8l.05-.1V4l.05-.1v-.3l.05-.1v-.6l.05-.1v-.55l.05-.1V.8l-.05-.1.05-.1V.5l.05-.1.05-.1.1-.1.15-.1.15-.05h.2zM60 .35v.75l.05.1v.2l.05.1v.4l.05.1v.1l.05.1v.4l.05.15v.2l.05.1.05.1v.1l.05.1v.4l.05.1V4.9l.05.1v.95l.05.1v.4l.05.1v.1l.05.1v.85l.05.1v.2l-.05.1v.3l-.05.1-.05.1v.1l-.1.1-.05.1-.1.1-.05.15-.1.1-.15.1-.15.1-.2.1-.15.05-.15.05-.3.05-.3-.05-.25-.1-.25-.1-.15-.1-.1-.1-.1-.1-.15-.1-.05-.1-.05-.1-.1-.1v-.1l-.05-.1-.05-.1v-.3l-.05-.15v-.3l.05-.1v-.8l.05-.1v-.1l.05-.1v-.45l.05-.1v-.9l.05-.1V3.5l.05-.1v-.1l.05-.15v-.2l.1-.1v-.2l.05-.1v-.4l.05-.1v-.1l.05-.1V1.4l.05-.1v-.2l.05-.1V.35zm8.35 4.1.25.05.15.1.1.1.05.1V5l.05.1v.75l.05.1v.3l.05.1v.1l.05.1v.2l.05.1v.1l.05.15v.4l.05.1v.1l.05.1v.4l.05.1v.3l.05.15v.4l.05.1v.8l.05.1.05.15v.5l.05.1v.2l.05.1v.5l.05.15.05.1v.5l.05.1v.2l.05.1v.4l.05.1v1.25l.05.1v1.05l.05.1v.85l-.05.1v.2l-.05.1v.1l-.05.1-.05.1-.05.1-.1.1-.05.1-.05.1-.1.1-.15.1-.2.1-.2.15-.25.05-.3.05-.3-.05-.25-.05-.25-.15-.1-.1-.15-.1-.1-.1-.1-.1-.1-.1-.05-.1-.05-.1-.05-.1-.05-.1v-.4l-.05-.1v-.95l.05-.1V13.7l.05-.1v-.35l.05-.1v-.7l.05-.1v-.2l.05-.1v-.35l.05-.1.05-.1v-.7l.05-.1v-.2l.05-.1v-.1l.05-.15v-.4l.05-.1v-.5l.05-.1V8.2l.05-.1V8l.05-.1v-.4l.05-.1v-.1l.05-.1v-.45l.05-.1.05-.1v-.2l.05-.1.05-.1v-.3l.05-.1V4.8l.1-.1.05-.1.15-.1zm-7.2 13.75.25.05.2.1.05.1.05.1.05.1v.15l.05.1v.1l.1.1.05.1v.2l.05.1v.1l.05.1v.3l.05.1v.1l.05.15v.3l.05.1v.2l.05.1v.6l.05.1.05.1.05.15v.1l.05.1v.1l.05.1v.2l.05.1.05.1v.5l.05.1v.15l.05.1v.9l.05.1v.2l.05.1v3.85l-.05.1v.2l-.05.1v.1l-.05.1-.05.1-.05.1-.05.1-.05.1-.1.15-.1.1-.1.1-.1.1-.2.1-.15.05-.1.05-.1.05h-.65l-.25-.1-.2-.1-.15-.1-.15-.1-.1-.1-.05-.1-.1-.1-.05-.1-.1-.1v-.1l-.05-.1-.05-.15v-.3l-.05-.1v-.5l-.05-.1v-2.8l.05-.1v-.5l.05-.1v-.45l.05-.1v-.6l.05-.1V23l.05-.15v-.2l.05-.1.05-.1v-.2l.05-.1v-.1l.05-.1v-.1l.1-.1v-.2l.05-.1V21l.05-.1v-.4l.05-.1v-.1l.05-.1v-.3l.05-.1v-.15l.05-.1v-.1l.05-.1v-.2l.05-.1.05-.1v-.1l.05-.1.05-.1v-.1l.1-.1.1-.1.1-.1h.25zM50.55 4.15l.25.05.2.1.05.15.05.1.05.1.05.1v.3l.05.1.05.1v.1l.05.1v.4l.05.1v.25l.05.1v.4l.05.1v.3l.05.1v.3l.05.15v.1l.05.1v.5l.05.1v.3l.05.1v.2l.05.15v.1l.05.1.05.1v.1l.05.1v.1l.05.1v.5l.05.1v.35l.05.1v1l-.05.1v.1l-.05.1-.05.15-.05.1-.05.1-.1.1-.05.1-.1.1-.15.1-.1.1-.25.1-.2.05-.35.05-.3-.05-.25-.05-.2-.1-.15-.1-.1-.1-.1-.1-.1-.1-.1-.1-.05-.1-.05-.1-.05-.15v-.1l-.05-.1v-.2l-.05-.1v-.2l.05-.1v-.6l.05-.15v-.6l.05-.1v-.1l.05-.1v-.1l.05-.1v-.1l.05-.1v-.1l.05-.1v-.25l.05-.1.05-.1v-.6l.05-.1v-.2l.05-.1V7.3l.05-.1.05-.1v-.7l.05-.1v-.1l.05-.1v-.15l.05-.1v-.4l.05-.1v-.1l.05-.1v-.3l.05-.1v-.1l.05-.1.05-.1.1-.15.15-.1h.25zm-8 20.3.25.05.2.1.1.1.05.15.05.1.05.1V27l.05.1v.2l.05.1v.85l.05.1v.1l.05.1v.1l.05.1v.85l.05.1v.2l.05.1v.4l.05.1v.1l.05.1v.4l.05.15v.2l.05.1.05.1v.1l.05.1v.4l.05.1v1.05l.05.1v.95l.05.1v.4l.05.1v.1l.05.1v.85l.05.1v.2l-.05.1v.3l-.05.1-.05.1v.1l-.1.1-.05.1-.1.1-.05.15-.1.1-.15.1-.15.1-.2.1L43 38l-.15.05-.3.05-.3-.05-.25-.1-.25-.1-.15-.1-.1-.1-.1-.1-.15-.1-.05-.1-.05-.1-.1-.1v-.1l-.05-.1-.05-.1v-.3l-.05-.15v-.3l.05-.1v-.8l.05-.1V35l.05-.1v-.45l.05-.1v-.9l.05-.1V32l.05-.1v-.1l.05-.15v-.2l.1-.1v-.2l.05-.1v-.4l.05-.1v-.1l.05-.1v-.45l.05-.1v-.2l.05-.1v-.8l.05-.1v-.15l.05-.1v-.3l.05-.1v-.6l.05-.1v-.55l.05-.1v-1.35l-.05-.1.05-.1v-.1l.05-.1.05-.1.1-.1.15-.1.15-.05h.2zm11.75-1.9.2.05.1.1.05.1v.1l.05.1v.1l.05.1v.55l.05.1.05.1v.3l.05.1v.1l.05.1v.55l.05.1v.3l.05.1v.5l.05.1v.2l.05.1v.35l.05.1v.6l.05.1v.1l.05.1v.45l.05.1v.3l.05.1v.7l.05.1v.55l.05.1v.6l.05.1v.45l.05.1v.4l.05.1v.8l.05.15v.5l.05.1v.7l.05.1v.35l.05.1.05.1.05.1v.2l.05.1v.2l.05.1v2.7l-.05.1v.1l-.05.1v.1l-.05.1-.05.1v.1l-.1.1v.1l-.1.15-.1.1-.05.1-.15.1-.15.1-.15.1-.2.05-.1.05-.1.05H54l-.25-.1-.2-.1-.2-.1-.15-.1-.1-.1-.1-.1-.05-.1-.1-.1-.05-.1-.05-.1v-.1l-.05-.1-.05-.15v-.2l-.05-.1v-.2l-.05-.1V35.9l.05-.1v-.2l.05-.15v-.4l.05-.1.05-.1v-.1l.05-.1.05-.1v-.65l.05-.1v-.4l.05-.1v-.4l.05-.1v-.85l.05-.1v-.4l.05-.1v-.75l.05-.1v-.3l.05-.1v-.95l.05-.1v-.3l.05-.1v-.5l.05-.1v-.2l.05-.1v-.65l.05-.1v-.2l.05-.1v-.2l.05-.1v-.55l.05-.1v-.2l.05-.1v-.7l.05-.1v-.2l.05-.15v-.2l.05-.1v-.1l.05-.1v-.2l.05-.1v-.3l.05-.1v-.2l.05-.15.05-.1.05-.05.1-.05zm16.3 6.1.25.1.2.1.05.1.05.1.05.1.05.1v.1l.05.1v.95l.05.1v.1l.05.1v.3l.05.1v.2l.05.1v.95l.05.1.05.1v.3l.05.1v.1l.05.1v.55l.05.1.05.1.05.1.05.1v.1l.05.1v.85l-.05.1-.05.1v.1l-.05.1-.1.1v.1l-.1.1-.1.1-.1.1-.15.1-.15.1h-.05l-.15.05-.3.05-.25-.05-.2-.05-.2-.1-.15-.1-.1-.15-.1-.1-.1-.1-.05-.1-.05-.1v-.1l-.05-.1-.05-.1v-1.05l.05-.1.05-.1v-.1l.1-.1v-.3l.05-.1v-.2l.05-.1v-.1l.05-.1v-.35l.05-.1.05-.1v-1l.05-.15v-.1l.05-.1v-.3l.05-.1v-.1l.05-.1v-.95l.05-.1v-.1l.05-.1V29l.1-.1.1-.1.1-.05.1-.05h.15zM27.3 5.9l.2.05.1.1.05.1v.1l.05.1v.1l.05.1v.55l.05.1.05.1v.3l.05.1v.1l.05.1v.55l.05.1v.3l.05.1v.5l.05.1v.2l.05.1v.35l.05.1v.6l.05.1v.1l.05.1v.45l.05.1v.3l.05.1v.7l.05.1v.55l.05.1v.6l.05.1v.45l.05.1v.4l.05.1v.8l.05.15v.5l.05.1v.7l.05.1v.35l.05.1.05.1.05.1v.2l.05.1v.2l.05.1v2.7l-.05.1v.1l-.05.1v.1l-.05.1-.05.1v.1l-.1.1v.1l-.1.15-.1.1-.05.1-.15.1-.15.1-.15.1-.2.05-.1.05-.1.05H27l-.25-.1-.2-.1-.2-.1-.15-.1-.1-.1-.1-.1-.05-.1-.1-.1-.05-.1-.05-.1v-.1l-.05-.1-.05-.15v-.2l-.05-.1v-.2l-.05-.1v-2.15l.05-.1v-.2l.05-.15v-.4l.05-.1.05-.1v-.1l.05-.1.05-.1v-.65l.05-.1v-.4l.05-.1v-.4l.05-.1v-.85l.05-.1v-.4l.05-.1v-.75l.05-.1v-.3l.05-.1v-.95l.05-.1v-.3l.05-.1v-.5l.05-.1v-.2l.05-.1v-.65l.05-.1v-.2l.05-.1v-.2l.05-.1V9.2l.05-.1v-.2l.05-.1v-.7l.05-.1v-.2l.05-.15v-.2l.05-.1v-.1l.05-.1v-.2l.05-.1v-.3l.05-.1v-.2L27 6.1l.05-.1.05-.05.1-.05zm-9.2 1.65.25.05.15.1.1.1.05.1V8l.05.1.05.1.05.1.05.15.05.1.05.1v.1l.05.1v.1l.05.1V10l.05.1v1.4l.05.15v.4l.05.1v1.25l.05.1v.9l.05.1v2.1l.05.1v.8l.05.1v1.85l.05.15v.4l.05.1v.5l.05.1v.95l.05.1v.2l.05.1v.75l.05.1v.2l.05.1v1.15l.05.1v.8l.05.1v1.45l.05.1v1.35l.05.1V30l.05.1v.3l.05.1v.95l.05.1v5.6l-.05.1-.05.1-.05.1v.1l-.05.1-.05.1-.05.1-.05.1-.1.1-.1.1-.1.1-.15.1-.15.1-.25.1-.25.1-.3.05-.3-.05-.3-.1-.2-.1-.2-.1-.1-.1-.1-.1-.1-.1-.1-.1-.05-.1-.05-.1-.1-.1v-.1l-.05-.1-.05-.1v-.45l-.05-.1v-1.65l.05-.1V30.4l.05-.1V30l.05-.1v-1.65l.05-.1V26.8l.05-.1v-.3l.05-.1v-1.95l.05-.15v-.7l.05-.1v-.6l.05-.15v-.2l.05-.1v-.7l.05-.1v-.4l.05-.15v-1l.05-.1v-.45l.05-.1V17.6l.05-.1v-.8l.05-.1v-1.05l.05-.1V13.5l.05-.1v-.85l.05-.1v-.95l.05-.1v-.3l.05-.1V9.05l.05-.1v-.1l-.05-.1v-.2l-.05-.1-.05-.15v-.4l.1-.1.05-.1.15-.1zm-8.55 11.8.25.1.2.1.05.1.05.1.05.1.05.1v.1l.05.1v.95l.05.1v.1l.05.1v.3l.05.1v.2l.05.1v.95l.05.1.05.1v.3l.05.1v.1l.05.1v.55l.05.1.05.1.05.1.05.1v.1l.05.1v.85l-.05.1-.05.1v.1l-.05.1-.1.1v.1l-.1.1-.1.1-.1.1-.15.1-.15.1H10l-.15.05-.3.05L9.3 27l-.2-.05-.2-.1-.15-.1-.1-.15-.1-.1-.1-.1-.05-.1-.05-.1v-.1L8.3 26l-.05-.1v-1.05l.05-.1.05-.1v-.1l.1-.1v-.3l.05-.1v-.2l.05-.1v-.1l.05-.1v-.35l.05-.1.05-.1v-1l.05-.15v-.1l.05-.1v-.3l.05-.1v-.1l.05-.1v-.95l.05-.1v-.1l.05-.1v-.1l.1-.1.1-.1.1-.05.1-.05h.15zm-4.2 9.6.25.05.2.1.1.1.05.15.05.1.05.1v1.95l.05.1v.2l.05.1v.85l.05.1v.1l.05.1v.1l.05.1v.85l.05.1v.2l.05.1v.4l.05.1v.1l.05.1v.4l.05.15v.2l.05.1.05.1v.1l.05.1v.4l.05.1v1.05l.05.1v.95l.05.1v.4l.05.1v.1l.05.1v.85l.05.1v.2l-.05.1v.3l-.05.1-.05.1v.1l-.1.1-.05.1-.1.1-.05.15-.1.1-.15.1-.15.1-.2.1-.15.05-.15.05-.3.05-.3-.05-.25-.1-.25-.1-.15-.1-.1-.1-.1-.1-.15-.1-.05-.1-.05-.1-.1-.1v-.1l-.05-.1-.05-.1v-.3l-.05-.15v-.3l.05-.1v-.8l.05-.1v-.1l.05-.1v-.45l.05-.1v-.9l.05-.1V36.5l.05-.1v-.1l.05-.15v-.2l.1-.1v-.2l.05-.1v-.4l.05-.1v-.1l.05-.1v-.45l.05-.1v-.2l.05-.1v-.8l.05-.1v-.15l.05-.1v-.3l.05-.1v-.6l.05-.1v-.55l.05-.1v-1.35l-.05-.1.05-.1v-.1l.05-.1.05-.1.1-.1.15-.1.15-.05h.2zm25.4 5.4.25.05.2.1.05.15.05.1.05.1.05.1v.3l.05.1.05.1v.1l.05.1v.4l.05.1v.25l.05.1v.4l.05.1v.3l.05.1v.3l.05.15v.1l.05.1v.5l.05.1v.3l.05.1v.2l.05.15v.1l.05.1.05.1v.1l.05.1v.1l.05.1v.5l.05.1v.35l.05.1v1l-.05.1v.1l-.05.1-.05.15-.05.1-.05.1-.1.1-.05.1-.1.1-.15.1-.1.1-.25.1-.2.05-.35.05-.3-.05-.25-.05-.2-.1-.15-.1-.1-.1-.1-.1-.1-.1-.1-.1-.05-.1-.05-.1-.05-.15v-.1l-.05-.1v-.2l-.05-.1v-.2l.05-.1v-.6l.05-.15v-.6l.05-.1v-.1l.05-.1v-.1l.05-.1v-.1l.05-.1v-.1l.05-.1v-.25l.05-.1.05-.1v-.6l.05-.1v-.2l.05-.1v-.45l.05-.1.05-.1v-.7l.05-.1v-.1l.05-.1v-.15l.05-.1v-.4l.05-.1v-.1l.05-.1v-.3l.05-.1v-.1l.05-.1.05-.1.1-.15.15-.1h.25z"/></g></svg>