<svg xmlns="http://www.w3.org/2000/svg" xmlns:ffdec="https://www.free-decompiler.com/flash" ffdec:objectType="shape" width="75.85" height="41.85"><g fill-rule="evenodd"><path fill="#999" d="m73.6 9.45 1.35 2.8q.6 1.9.45 4-.1 1.95-.7 3.55-1.15 2.75-4.35 4.8-4.9 3.35-12.2 3.75-6.75.5-12.3-1.65-2.25-.85-3.75-2l-.2.05-1.7.55-1.85.8q-1.25.4-1.85-.45-.4-.55-.15-1.35l.65-1.2 2.1-3.05q-.2-1.1-.25-2.6 0-2.9.7-4.8.65-1.65 2.1-3.35 4.6-5.55 11.05-6.75l5.85-.3 6.4.4q3.5.65 5.75 2.7 1.35 1.3 2.9 4.1M66 6.85q-3.4-1.05-6.8-1L55.95 6H53.6q-4.55.25-8.9 5.25-1.15 1.3-1.6 2.3-.75 1.7-.65 3.6l.1 1.35.1.55.1.3q.3 1.05 1.15 1.9 1.25 1.35 3.95 2.25 4.35 1.55 9.1 1.4 4.7-.2 9-1.95 4.3-1.8 5.45-4.65.8-2.2-.05-4.8-.5-1.7-2.25-4.25-.65-1-1.25-1.5-.55-.4-1.85-.9"/><path d="M66 6.85q1.3.5 1.85.9.6.5 1.25 1.5 1.75 2.55 2.25 4.25.85 2.6.05 4.8-1.15 2.85-5.45 4.65-4.3 1.75-9 1.95-4.75.15-9.1-1.4-2.7-.9-3.95-2.25-.85-.85-1.15-1.9l-.1-.3-.1-.55-.1-1.35q-.1-1.9.65-3.6.45-1 1.6-2.3 4.35-5 8.9-5.25h2.35l3.25-.15q3.4-.05 6.8 1m7.6 2.6q-1.55-2.8-2.9-4.1-2.25-2.05-5.75-2.7l-6.4-.4-5.85.3q-6.45 1.2-11.05 6.75-1.45 1.7-2.1 3.35-.7 1.9-.7 4.8.05 1.5.25 2.6L37 23.1l-.65 1.2q-.25.8.15 1.35.6.85 1.85.45l1.85-.8 1.7-.55.2-.05q1.5 1.15 3.75 2 5.55 2.15 12.3 1.65 7.3-.4 12.2-3.75 3.2-2.05 4.35-4.8.6-1.6.7-3.55.15-2.1-.45-4zM.25 0h75.6v41.35H.25z"/><path d="m23.65 25-.75-.6-.55-.85v-1q.1-.75.45-1.35.4-.7 1.1-.95l.85-.05q.8.1 1.2.5.55.65.3 1.25-.3.6-.75.5l-.4-.25q-.15-.2-.05-.4-.45-.25-.85.15-.4.45 0 .85.25.35.95.35.95.1 1.55-.45l.5-.75.2-.55q.05-.4-.3-.95-.5-.6-1.3-.85-.85-.25-1.65 0-1.45.45-2.35 2.05l-.5 1.2-.1.75.2.6q.45 1.05 1 1.5 1 .7 2.4.55l2.5-.55h1.15l.2.2-.1.3q-.65 1.1-1.7 1.6-.6.35-1.35.5l-1.85.05-2.15-.55q-1.25-.6-2-1.9l-.4-1.05-.2-1.3.25-1.25.3-.95q.95-2.45 3.3-3.55.75-.4 1.55-.45l1.8.2q1.15.25 1.75.75l1.2 1.45q.8 1.6-.2 3.55l-.7.95q-1.2 1.15-3.45.95zM12.1 15.4l.65.4.9.7.4.6.3.25.65.95.45 1.2v.1l.35-.55.15-.35.2-.25.6-1.75.15-.65.1-.05q.1-.45.55-.35.35 0 .5.3l.15.35.2.9-.05.85-.05.6-.2 1.05-.75 1.45-1.3 1.15-1.7.3-.15-.05-1.15.1L12 21.9l-.95-.9-1.35-.9q-.55-.45-.4-.9.2-.6 1.15-.6l1.9.1-.1-.25-.2-.35-.1-.4-.55-.7-.25-.3-.7-.5-.45-.3q-.15-.3.3-.6l.7-.05.1-.05zm-5.25 9.85-.35-.1q-.5-.05-1 .45l-.85.65-.8-.05-.55-.55q-.15-.35 0-.75l.5-.6 1.25-.25 1.15.1.95.6v.35zm1.3-1.55.35-1.25.25-.45q.4-.3.7.1l.3.7-.05.65q.05.4.65.9 1.1.95 1.95 1.05l1.35-.15 1.15-.3.9-.4 1 .05.5.6.1.2.2.65.5.75.45.75.1.05.5.7 1.6.45 1.25.25q.45.45.35.95l-.65.75-.5.1H20l-.25.3q-1.05 1.15-2.65 1.45l-1-.05q-.6-.2-.6-.75l.2-.6L16.85 29l-.1-.1-.65-1.45-.2-.55-1.1.35-1 .3-.85.05h-.35l-.3.3-.6.4-1.1.85-.65.65-.9.25-.2-.05-.15.05.05.55-.3.75v.5l-.1.25v.35q.1.65-.25 1.05l-.9.55-.65-.2Q6 33.5 5.9 32.9t.4-1.1l.65-.65.15-.35.15-.15.05-.25.2-.25.15-.35.65-1.35v-.35l.15-1.55.25-1.1-.25-.5q-.3-.6-.3-1.25m10.5 10.1.15.35-.3 2.85q-.3 1.2-.75 1.55-.7.55-1.4 0l-.4-.55q-.1-.4.05-.75l.75-.9.6-.85.65-1.4.25-.35z"/><path fill="#fff" d="M53.15 19.95q-.75 0-1.3-.55-.5-.6-.45-1.3.05-.85 1.1-1.9l.75-.8q.5-.4 1.9-.85l.55-.1 1-.1.9.3.85.75q.85 1.05 1.1 2.2h.35l.3-1.45.15-1.65-1.1-.4q-.85-.6-1.2-1.4-.3-.85 0-1.8.35-.75 1.25-1.3 1.55-.75 2.85-.25 1.55.55 1.8 2.2l-.05.85.2.7q.75 2.9.05 5.3-.35 1.5-1.35 2.2l-2.45.55-2-.2-1.5-.5-2-.25zM49.8 12.7q.25-.35.6-.4.65 0 .85.8l.05.4.7.25.7.4q.35.35.2.75l-.55.45-1.05.2-.3.5q-.35.4-.85.45l-.9-.25q-.4-.35-.4-.85v-.05l-.25-.15q-.55-.45-.45-1.1.1-.7.75-.95l.7-.05zM3.15 20q1.5-5 5-8.3l-.2-1.15-.05-.7-.15-.7-.2-1.35v-.7l-.05-.4q.1-.6.35-1 .25-.5.8-.65l.8-.05 2.5.45 1.65.7 1.65.8.55.45.15-.1 6.25-.5q4.65.55 7.55 3.2 1.4 1.35 2.35 3.15l2.5.25 3.35.85q1.4.4 1.75 1.05.25.55.05 1.25l-.45.85-.8.65-1.7 1.2-1.5 1.4-1.1.55-.25.05q.05 3-.75 5.8-.7 2.55-2.1 4.6l6.85-2 3.15-.8v-.2q-.15-1 .1-1.8.3-.95 1.05-1.35 1.25-.7 2.35.2 1 .75 1.1 2.1l-.1.6 1.6.45q1.3.55 2.15 1.95.8 1.4.65 2.7-.25 1.95-2.45 3-1.35.65-3.85.9l-24.3 3.2-.45.7-.65.55L0 39.7V29.55q1.05-.7 2.2-1.3.35-.2.75-.3-.95-3.7.2-7.95m15.5 13.8-.4-.05-.25.35-.65 1.4-.6.85-.75.9q-.15.35-.05.75l.4.55q.7.55 1.4 0 .45-.35.75-1.55l.3-2.85zM8.15 23.7q0 .65.3 1.25l.25.5-.25 1.1-.15 1.55v.35l-.65 1.35-.15.35-.2.25-.05.25-.15.15-.15.35-.65.65q-.5.5-.4 1.1t.65.95l.65.2.9-.55q.35-.4.25-1.05v-.35l.1-.25v-.5l.3-.75-.05-.55.15-.05.2.05.9-.25.65-.65 1.1-.85.6-.4.3-.3h.35l.85-.05 1-.3 1.1-.35.2.55.65 1.45.1.1-1.15 2.15-.2.6q0 .55.6.75l1 .05q1.6-.3 2.65-1.45l.25-.3h1.1l.5-.1.65-.75q.1-.5-.35-.95l-1.25-.25-1.6-.45-.5-.7-.1-.05-.45-.75-.5-.75-.2-.65-.1-.2-.5-.6-1-.05-.9.4-1.15.3-1.35.15q-.85-.1-1.95-1.05-.6-.5-.65-.9l.05-.65-.3-.7q-.3-.4-.7-.1l-.25.45zm-1.3 1.55.3-.15v-.35l-.95-.6-1.15-.1-1.25.25-.5.6q-.15.4 0 .75l.55.55.8.05.85-.65q.5-.5 1-.45zm5.25-9.85-1-.2-.1.05-.7.05q-.45.3-.3.6l.45.3.7.5.25.3.55.7.1.4.2.35.1.25-1.9-.1q-.95 0-1.15.6-.15.45.4.9l1.35.9.95.9 1.05.75 1.15-.1.15.05 1.7-.3 1.3-1.15.75-1.45.2-1.05.05-.6.05-.85-.2-.9-.15-.35q-.15-.3-.5-.3-.45-.1-.55.35l-.1.05-.15.65-.6 1.75-.2.25-.15.35-.35.55v-.1L15 18.3l-.65-.95-.3-.25-.4-.6-.9-.7zM23.65 25l1.05.2q2.25.2 3.45-.95l.7-.95q1-1.95.2-3.55l-1.2-1.45q-.6-.5-1.75-.75l-1.8-.2q-.8.05-1.55.45-2.35 1.1-3.3 3.55l-.3.95-.25 1.25.2 1.3.4 1.05q.75 1.3 2 1.9l2.15.55 1.85-.05q.75-.15 1.35-.5 1.05-.5 1.7-1.6l.1-.3-.2-.2H27.3l-2.5.55q-1.4.15-2.4-.55-.55-.45-1-1.5l-.2-.6.1-.75.5-1.2q.9-1.6 2.35-2.05.8-.25 1.65 0 .8.25 1.3.85.35.55.3.95l-.2.55-.5.75q-.6.55-1.55.45-.7 0-.95-.35-.4-.4 0-.85.4-.4.85-.15-.1.2.05.4l.4.25q.45.1.75-.5.25-.6-.3-1.25-.4-.4-1.2-.5l-.85.05q-.7.25-1.1.95-.35.6-.45 1.35v1l.55.85z"/></g></svg>