<svg xmlns="http://www.w3.org/2000/svg" xmlns:ffdec="https://www.free-decompiler.com/flash" ffdec:objectType="shape" width="76.35" height="41.95"><path fill="#999" fill-rule="evenodd" d="m23.55.65-.4-.65H52.3l-.35.65zm52.3 18.2.25-.35.1-.1v11.15l-.35-.15v-3.8l-3.3-1.8q-1.6-.95-2.1-1.05l-1.8.15q-3.15.3-5.25-1.5l-1.55-1.65-3.3-3.55-1.85-1.4q-1.6-.75-3.15.35l-.8.65-.9.45q-.6.05-.95-.4-.45-.45-.4-.95.15-.45.85-1.35l1.15-1.2v-.4l.05-1-.6-.65-1.7-1.15q-.85-.4-.85-.95.15-.6.7-.6l1 .2q1 .5 2.15 1.35 1.4 1.05 1.65 1.9l.05.45.8.15q2.15.55 4.55 2.8l2.8 3.15q.5-.35 1.35-.4 1.45-.2 2.45.4l1.25.7.9.5q.25.15.3.45l-.15.45-.85.05-.85-.55-1.2-.1-1.55.2 1.1.65 1.5.45 1.55.3q1 .2 3.5 1.5l3.45 1.85zM58.8 41.45v.15H16.7v-.15zM1 28.85l-1 .4V19.2l.15.05.75-.15.1-.05v4.6l2.65-1.45q2.5-1.3 3.55-1.5l1.5-.3 1.55-.45 1.1-.65-1.55-.2-1.2.1-.85.55-.9-.05q-.2-.2-.1-.45l.3-.45.9-.5 1.2-.7q1.05-.6 2.5-.4.85.05 1.35.4l2.8-3.15q2.35-2.25 4.55-2.8l.75-.15.1-.45q.25-.85 1.65-1.9Q24 8.3 25 7.8l.95-.2q.6 0 .7.6 0 .55-.8.95-.95.5-1.75 1.15l-.55.65.05 1v.4l1.15 1.2.85 1.35q.05.5-.4.95-.4.45-.95.4-.4-.05-.9-.45l-.85-.65q-1.5-1.1-3.1-.35-.85.35-1.85 1.4l-3.35 3.55-1.5 1.65q-2.15 1.8-5.25 1.5l-1.8-.15q-.5.1-2.1 1.05-1.25.75-2.55 1.45zm36.85 2.1q-.75-.15-1.45-.7l-1.4-1.4-1.7-2-5.35-6.25Q26.85 19 26.6 17q-.3-1.95.35-3.8.55-1.75 1.9-3.35 1.25-1.6 2.75-2.1l3-.2q1.65.25 2.4.85l1.05.9 1-.9q.8-.6 2.45-.85l3 .2q1.45.5 2.75 2.1 1.35 1.6 1.9 3.35.65 1.85.35 3.8-.3 2-1.35 3.6l-5.4 6.25-1.65 2-1.45 1.45q-.85.6-1.4.65l-.2.05zm11.5 3.9-.25-.95-.75-.9-.9-1.3-.85-1.15-.55-.5-1-1.4q-.5-.95.3-1.75.6-.7 1.65-.35l.45.3q.3.05.6.25l.15.15.7.5q.45.1 1.05.55 1.7 1.45 2.6 2.85l1.15.95 1.6 2.6.45 1.05.2 2.15-.15.95-.2.6-.5.25q-.4 0-.5-.4v-2.55q-.2-1.1-.7-1.65l-.9-.9-2.1-1.65.2 1.25-.15.9.15 1.3q.05.9-.3 2.05l-.3.55-.05.05q-.1.3-.4.2l-.25-.25-.15-.4v-.05zm3-6.55-.7-1.05-.15-.4q-.15-.65-1-1.3l-.7-.4-1.1-.4q-.75-.5-.65-1.2.1-.6.65-.9l1.15-.2.5.05q.65.25 1.3.9l1.15.05q.95.15 1.55.45.8.5 1 1.15v.65q-.1.5-.65.5l-.6-.2-1-.45.8 1.9.3.55q.25.3.95.5l.4.2.2.45-.5.4-.6.05-.55-.2-.9-.5zm-28.6 0-.85.6-.9.5-.55.2-.6-.05-.5-.4q-.05-.2.2-.45l.35-.2q.7-.2 1-.5l.3-.55.75-1.9L22 26l-.65.2q-.5 0-.6-.5v-.65q.15-.65 1-1.15l1.55-.45 1.15-.05 1.25-.9.5-.05 1.15.2q.6.3.65.9.15.7-.65 1.2l-1.05.4-.7.4q-.85.65-1.05 1.3l-.1.4zm3 6.55-.35 3.3v.05l-.1.4-.25.25q-.35.1-.4-.2l-.05-.05-.35-.55Q24.95 36.9 25 36l.15-1.3-.15-.9q-.05-.5.2-1.25l-2.1 1.65-.9.9q-.5.55-.7 1.65v2.55l-.5.4-.55-.25-.3-1.55.2-2.15q.05-.4.45-1.05l1.6-2.6 1.15-.95q.9-1.4 2.6-2.85.6-.45 1.05-.55l.7-.5.1-.15q.35-.2.65-.25.25-.2.45-.3 1-.35 1.65.35.8.8.25 1.75l-.95 1.4-.55.5-.85 1.15-.9 1.3q-.65.6-.75.9z"/><path fill-rule="evenodd" d="M51.95.65h23.9v18.2l-.55.4-.8-.15-8.8-3.55-5.15-3.5Q56.5 9.2 53.8 6.8l-3-2.7-1.25-.9L51.7 1zm23.9 28.75v12.05H58.8l-.5-6.8q-.45-3.05-2-9.1l-2.15-7.85q8.55 6.7 21.7 11.7M16.7 41.45H1v-12.6q12.2-4.8 20.3-11.15l-2.15 7.85q-1.55 6.05-2 9.1-.2 1.5-.45 6.8M1 19.05V.65h22.55l.2.35 2.15 2.2-1.25.9q-.3.2-3.05 2.7-2.65 2.4-6.7 5.25l-5.15 3.5z"/><path fill="#fff" fill-rule="evenodd" d="M23.55.65h28.4L51.7 1l-2.15 2.2 1.25.9 3 2.7q2.7 2.4 6.75 5.25l5.15 3.5 8.8 3.55.8.15.55-.4v5.2L72.4 22.2q-2.5-1.3-3.5-1.5l-1.55-.3-1.5-.45-1.1-.65 1.55-.2 1.2.1.85.55.85-.05.15-.45q-.05-.3-.3-.45l-.9-.5-1.25-.7q-1-.6-2.45-.4-.85.05-1.35.4l-2.8-3.15q-2.4-2.25-4.55-2.8l-.8-.15-.05-.45q-.25-.85-1.65-1.9Q52.1 8.3 51.1 7.8l-1-.2q-.55 0-.7.6 0 .55.85.95l1.7 1.15.6.65-.05 1v.4l-1.15 1.2q-.7.9-.85 1.35-.05.5.4.95.35.45.95.4l.9-.45.8-.65q1.55-1.1 3.15-.35l1.85 1.4 3.3 3.55 1.55 1.65q2.1 1.8 5.25 1.5l1.8-.15q.5.1 2.1 1.05l3.3 1.8v3.8q-13.15-5-21.7-11.7l2.15 7.85q1.55 6.05 2 9.1l.5 6.8H16.7q.25-5.3.45-6.8.45-3.05 2-9.1l2.15-7.85Q13.2 24.05 1 28.85v-3.6q1.3-.7 2.55-1.45 1.6-.95 2.1-1.05l1.8.15q3.1.3 5.25-1.5l1.5-1.65 3.35-3.55q1-1.05 1.85-1.4 1.6-.75 3.1.35l.85.65q.5.4.9.45.55.05.95-.4.45-.45.4-.95l-.85-1.35-1.15-1.2v-.4l-.05-1 .55-.65q.8-.65 1.75-1.15.8-.4.8-.95-.1-.6-.7-.6l-.95.2q-1 .5-2.15 1.35-1.4 1.05-1.65 1.9l-.1.45-.75.15q-2.2.55-4.55 2.8L13 17.6q-.5-.35-1.35-.4-1.45-.2-2.5.4l-1.2.7-.9.5-.3.45q-.1.25.1.45l.9.05.85-.55 1.2-.1 1.55.2-1.1.65-1.55.45-1.5.3q-1.05.2-3.55 1.5L1 23.65v-4.6l8.75-3.5 5.15-3.5q4.05-2.85 6.7-5.25 2.75-2.5 3.05-2.7l1.25-.9L23.75 1zm14.3 30.3.2.05.2-.05q.55-.05 1.4-.65l1.45-1.45 1.65-2 5.4-6.25Q49.2 19 49.5 17q.3-1.95-.35-3.8-.55-1.75-1.9-3.35-1.3-1.6-2.75-2.1l-3-.2q-1.65.25-2.45.85l-1 .9L37 8.4q-.75-.6-2.4-.85l-3 .2q-1.5.5-2.75 2.1-1.35 1.6-1.9 3.35-.65 1.85-.35 3.8.25 2 1.35 3.6l5.35 6.25 1.7 2 1.4 1.4q.7.55 1.45.7m14.5-2.65.85.6.9.5.55.2.6-.05.5-.4-.2-.45-.4-.2q-.7-.2-.95-.5l-.3-.55-.8-1.9 1 .45.6.2q.55 0 .65-.5v-.65q-.2-.65-1-1.15-.6-.3-1.55-.45l-1.15-.05q-.65-.65-1.3-.9l-.5-.05-1.15.2q-.55.3-.65.9-.1.7.65 1.2l1.1.4.7.4q.85.65 1 1.3l.15.4zm-3 6.55.3 3.3v.05l.15.4.25.25q.3.1.4-.2l.05-.05.3-.55q.35-1.15.3-2.05l-.15-1.3.15-.9-.2-1.25L53 34.2l.9.9q.5.55.7 1.65v2.55q.1.4.5.4l.5-.25.2-.6.15-.95-.2-2.15-.45-1.05-1.6-2.6-1.15-.95q-.9-1.4-2.6-2.85-.6-.45-1.05-.55l-.7-.5-.15-.15q-.3-.2-.6-.25l-.45-.3q-1.05-.35-1.65.35-.8.8-.3 1.75l1 1.4.55.5.85 1.15.9 1.3.75.9zm-22.6 0 .25-.95q.1-.3.75-.9l.9-1.3.85-1.15.55-.5.95-1.4q.55-.95-.25-1.75-.65-.7-1.65-.35-.2.1-.45.3-.3.05-.65.25l-.1.15-.7.5q-.45.1-1.05.55-1.7 1.45-2.6 2.85l-1.15.95-1.6 2.6q-.4.65-.45 1.05l-.2 2.15.3 1.55.55.25.5-.4v-2.55q.2-1.1.7-1.65l.9-.9 2.1-1.65q-.25.75-.2 1.25l.15.9L25 36q-.05.9.25 2.05l.35.55.05.05q.05.3.4.2l.25-.25.1-.4v-.05zm-3-6.55.7-1.05.1-.4q.2-.65 1.05-1.3l.7-.4 1.05-.4q.8-.5.65-1.2-.05-.6-.65-.9l-1.15-.2-.5.05-1.25.9-1.15.05-1.55.45q-.85.5-1 1.15v.65q.1.5.6.5L22 26l.95-.45-.75 1.9-.3.55q-.3.3-1 .5l-.35.2q-.25.25-.2.45l.5.4.6.05.55-.2.9-.5z"/><path fill="none" stroke="#000" stroke-linecap="round" stroke-linejoin="round" stroke-opacity=".498" d="M51.95.65h23.9v23.4m0 5.35v12.05H1v-16.2m0-6.2V.65h50.95m23.9 24.95v3.8M1 23.65v-4.6"/><path fill-rule="evenodd" d="m41.3 9.85.1-.35.15-.35.25-.15.25.2.05.3.15.3.1.55.5 1.75q.6 1.7.65 3.4l-.2 1.5q-.4.9-1.2.9-.6 0-1.05-.5-.35-.45-.4-1.15l.1-3.15.5-2.75zm3.6 7.3.1-.35.15-.35.25-.15.25.2.05.3.15.3.1.55.5 1.75q.6 1.7.65 3.4l-.2 1.5q-.4.9-1.2.9-.6 0-1.05-.5-.35-.45-.4-1.15l.1-3.15.5-2.75zm-11.2-7.3.1-.35.15-.35Q34 9 34.2 9l.25.2.05.3.15.3.1.55.5 1.75q.6 1.7.65 3.4l-.2 1.5q-.4.9-1.2.9-.6 0-1.05-.5-.35-.45-.4-1.15l.1-3.15.5-2.75zm-3.2 7.5.1-.35.15-.35.25-.15.25.2.05.3.15.3.1.55.5 1.75q.6 1.7.65 3.4l-.2 1.5q-.4.9-1.2.9-.6 0-1.05-.5-.35-.45-.4-1.15l.1-3.15.5-2.75zm6.8-2.95.2-.5.15-.5q.1-.2.4-.2l.35.25.1.45.2.45.15.8.75 2.55q.85 2.4.9 4.9.1 1.3-.3 2.2-.55 1.25-1.7 1.3-.9 0-1.55-.75-.5-.65-.6-1.65l.15-4.6.75-3.95z"/></svg>