<svg xmlns="http://www.w3.org/2000/svg" xmlns:ffdec="https://www.free-decompiler.com/flash" ffdec:objectType="shape" width="78.75" height="44.5"><g fill-rule="evenodd"><path d="m18.65 4.3.35-.25.45-.15 1.2.1 2.15.75.75.3.9.45.95.45.15-.5.55-.75q.5-.5.9-.6l1.05.1.45.2 1-.85.9-.45.25-.05.95-.1q1.7.05 2.85.6.85.35 1.4 1l.2.2.65-.1 2.65-.2h.15l3.25.2 1.7.3q.35-.65.95-.95 1.2-.6 2.7 0 1.2.5 1.7 1.5l.2.35q.35.8 0 1.7l.35.25 1.05-.5 1.9-.8.15-.35.4-.55q.5-.7 1.25-.95 1.25-.45 2.1.4l.05.05.3-.15 1.75-.7q1.2-.2 1.75.45.6.65.4 1.8l-.2.8-.7 1.8-2.9 7.25.25.6.4 1.15 1.35.2q1.1.45 1.4 1.65v.15L61 21.3l-.55 1q-.55.7-1.35.95v1.55l-.45 3.75-.35 1.5.25.2q.85.65 1.1 1.3l.15.65v1.45l-.3 1.45-.4.5-.85.8q-1.35.8-3 .3l-.5-.2-1.4 1.25-2.05 1.4q-5.1 2.85-13.8 2.5l-2.05-.15-2.85-.35-.1.15-.5.65-.35.2q-1.25.55-2.3-.5L29 41.1q-.25-.5-.15-1l-1.8-.7-.6.35-.65.35-.3.05-1.05.05-1.5-.15-1-.6-1-.95q-.5-.55-.55-1.2l.15-1.1.2-.65.2-.35-.6-1q-.85-1.5-1.25-3.45-.75-.15-1.4-.7l-.65-.9-.05-.05q-.25-.65 0-1.4.25-.7.85-1.15.4-.35.85-.45v-.2q-1.15-.2-1.9-1.15-.9-1.15-.45-2.5l.35-.7-.4-.8-.05-.05q-.3-.95.1-2l.25-.6.45-.6.45-.65q.15-.15.75-.4l.85-.45.4-.05.35-.1.85.05v-.05l-.05-.1v-.1l-.5-1.1-.4-1.6-.25-.5-.25-1.05h-.05l-1.5-.35q-1.25-.75-1.05-2.15.25-1.45 1.55-1.7l-.1-.85-.05-.35.2-1.2zM65.1 17.75l-.2.75-.65.6-.75.05-.2-.05q-.65-.15-1.2-.6l-.5-.45-.15-.65.45-.5.65-.2 1.25-.1q.75.1 1.1.6l.1.2zm-53.85.55-.6-.25-.45-.85q0-.5.3-.9.25-.45.75-.5l.5.05q.8.15.95 1.05.1.8-.6 1.25zm50.45-3.05-.4.35-.7-.05q-.35-.25-.35-.65l.2-.75.1-.75q.1-.5.5-.8.4-.35.9-.35h.15l.75.35q.4.35.45.85.1.5-.2.95l-.75.6zM17.4 31.8l.7.9q.25.75-.1 1.55t-1.1 1.1l-.8.2q-.75 0-1.35-.5L14.1 34q-.2-.75.2-1.55.4-.75 1.15-1l1.55.1zm-7.85.05q-.55-.2-.75-.7t0-1.1l.75-.85.85-.3.85-.3 1-.25.45.2.05.05.1.4-.5.45q-.4.3-.75 1.1l-.75 1.1q-.55.4-1.15.25z"/><path fill="#999" d="m7.9 1.6.15 1.45q-.15.8-.7 1.3-.75.6-2 .7-1.1 0-1.65-.5-.65-.6-.6-1.4 0-.9.75-1.3l.85-.45.8-.7L6.9.6q.7.3 1 1m10.2 4.75-.6.65-.95.7-5.05-.15-.85-.55-.65-.8-.4-.75-.1-1.2L9.7 3q.15-.65.75-1.05l.9-.4.7-.55L13.1.75h1.5l.9.3 1.25.6.75.45.5.6.5.95.15.65-.4.5-.2 1.2zm5.45-1.3-.05-.3.25-1.3q.2-.7.5-1.1l1.05-.85q1.55-.85 2.6-.5l.85.35q1.45.8 1.85 1.6l.05.1-.25.05-.9.45-1 .85-.45-.2L27 4.1q-.4.1-.9.6l-.55.75-.15.5-.95-.45zm10.9-1.5.25-.35q.8-.9 1.7-1.1l1.4-.05q1.05.25 1.4 1.05.25.55.15 1.35l-2.65.2-.65.1-.2-.2q-.55-.65-1.4-1m8.3 1.1V4.6l.25-1q.25-.65 1.1-1.45l.95-.6.7-.2 2.5.25q1.85.75 2.05 2.35.2.95-.3 1.9l-.2-.35q-.5-1-1.7-1.5-1.5-.6-2.7 0-.6.3-.95.95zm11.1.95-.55-1.05-.15-.45q-.1-.65.15-1.2.45-.8 1.1-1L57.6.85l1.1-.1 1.65.05 1.65.9 1.1 1.05q.7 1.05.1 2.25-.5 1-1.75 1.5.2-1.15-.4-1.8-.55-.65-1.75-.45l-1.75.7-.3.15-.05-.05q-.85-.85-2.1-.4-.75.25-1.25.95m6.7 3.5 3.2.1q.8.15 1.3.5l.85.8q.75.75 1.1 1.6l.15 1.55q-.1 1.4-.8 2.5l-.7.75-.55.85-.1-.35-.1-.2q-.35-.5-1.1-.6l-1.25.1-.65.2-.45.5.15.65.5.45q.55.45 1.2.6l-1.75.75-.5.1q-.3-1.2-1.4-1.65l-1.35-.2-.4-1.15-.25-.6zM61 21.3l.55-.15 1.6.05 1.35.35q.85.4 1.7 1.15l.65.7v-.1q.2-1.4.9-2.1l.95-.7q1.95-1.05 3.95-.5.5.05 1.1.4l.7.65q.8 1 1 1.95l.15.9-.05.9-.25.9-.45 1.05-.75.85-1.25.95q1.1 1.6.95 3.1l-.3 1.1q-.55 1.6-1.3 2.5-.7.75-1.8 1.35l-1.65.75q-2.25.6-4-.35-2.1-1.1-2.35-3.25l-.05-1.25h-.6l-1.95-.3-.15-.65q-.25-.65-1.1-1.3l-.25-.2.35-1.5.45-3.75v-1.55q.8-.25 1.35-.95zm-1.2 12.2.4.8.3 1.35-.1.8-.25.8-.35.65-2.15 2.15q-.75.5-1.45.65l-1.3-.05-1.4-.25q-1.05-.3-1.9-1l-.3-.25 2.05-1.4 1.4-1.25.5.2q1.65.5 3-.3l.85-.8.4-.5.3-1.45zm-24.35 8-.05.3q-.15.7-.65 1.05-.5.4-1.15.35-.7-.05-1.15-.5l-.45-.75.5-.65.1-.15zm-9.65-1.4-.2.65q-.4 1.3-1.45 1.95-.9.55-2.15.65l-2.25-.15-1.05-.3q-.5-.2-1.05-.75l-.75-.75-.4-1.15-.15-.85q-.25-1.6.5-2.95.8-1.3 2.4-1.95l1.1-.3.6 1-.2.35-.2.65-.15 1.1q.05.65.55 1.2l1 .95 1 .6 1.5.15 1.05-.05zm-8.75-10.95-1.4-.1q-1-.25-1.6-1l-.4-.65Q13 26 13 24.6q0-.65.15-.95l1-1.45q1.1-1.1 2.15-1.45l.4.8-.35.7q-.45 1.35.45 2.5.75.95 1.9 1.15v.2q-.45.1-.85.45-.6.45-.85 1.15-.25.75 0 1.4zm-.8-8.45h-1.2q-2.05-.35-3.3-1.7l-.5-.7.85-.15q.7-.45.6-1.25-.15-.9-.95-1.05l-.5-.05.4-.55.7-.85 2.15-1.3 1.25-.25q2.1 0 3.15 1.25.6.85.6 1.85l-.4.05-.85.45q-.6.25-.75.4l-.45.65-.45.6-.25.6q-.4 1.05-.1 2M73.9 6q-.9.9-1.9 1.25l-.9.25-2.95-.25Q66.7 6.7 65.8 5.5q-.45-.5-.6-1.2V3.25l.2-.75.6-.8q1-.95 2.5-1.35L71.45 0l2.75.7q1.25.8 1.4 1.9.05.65-.3 1.45l-.85 1.25zm3.1 4.9.45.3q.9.6 1.2 1.45.35 1.05-.3 1.85-.7.9-1.95.8-.9-.05-2-.8-.95-.7-1.35-1.5l-.4-1.65v-1.8q.1-.65.65-1.45l.7-.9q.4-.4.9-.55l1.7.15q.85.5.7 1.5l-.35.85q-.3.55-.25.9l.1.45zm-15.3 4.35.65-.25.75-.6q.3-.45.2-.95-.05-.5-.45-.85l-.75-.35h-.15q-.5 0-.9.35-.4.3-.5.8l-.1.75-.2.75q0 .4.35.65l.7.05zm9.75-5.8q.65 1 .2 2.05-.5 1.25-1.95 1.35-.65 0-1.2-.35l-.85-.95q-.35-.75-.05-1.6.3-.8 1-1.2l1.55-.2q.85.2 1.3.9m-2.5 6.8q1.15-.15 1.8.7.4.5.4 1.15t-.35 1.15-1 .7l-1.25-.05q-.6-.2-.95-.8-.3-.55-.25-1.2.1-.6.55-1.1.45-.45 1.05-.55m5.55 3.3-.5.05q-.45 0-.75-.3l-.3-.4-.05-.45.05-.45q.25-.65.9-.75.4-.05.8.2l.55.65-.1.85zm-12.6 19.7 2.15.25q1.15.5 1.35 1.55.35 1.2-.6 1.95-.45.35-1.05.3-.6 0-1.05-.4-.45.85-1.5.95-.95.1-1.6-.75-.8-1.15.1-2.5.65-1 2.2-1.35m9.75 5.05q-.85-.3-1.3-1.15l-.3-.75-.05-.8.05-1.85q.1-.9.3-1.25l.65-.85q1.25-1.25 2.2-1.7l1.3-.45q1.35-.25 2.15.35l.65.85q.2.6-.05 1.05l-.15.35.1.4q.35 1.15.15 2.15l-.35 1.1-.4.85-.85.85q-.8.7-1.3.85l-1.05.15zM8.55 8.65l1.55-.55h.8l1 .2.55.4q1 1 1.05 2.35l-.3 1.75-.55 1.15-1 .75-1 .5-.9.1-1.05-.05q-1.35-.3-2.4-1.6l-.3-.5q-.2-.5-.1-1.35l.1-.6q.15-.5.8-1.25l.85-.8zM4 6.05q1 .35 1.5 1 .5.6.6 1.4.25 1.55-.75 2.8-1 1.2-2.65 1.3-.9 0-1.35-.45-.55-.5-.65-1.85L.55 8.5Q.35 7.25.8 6.55q.45-.75 1.5-.85zM3.1 25.4q-.9-.2-1.25-.5l-.5-.95-.15-1.15-.1-.55-.2-.6q-.3-1.1-.05-2.3l.65-2.25q.6-1.65 1.35-2.05.65-.4 1.6-.3 1.6.1 2.7.85 1.7 1.15 1.95 3.35.3 1.95-.8 3.9l-1.25 1.5-1.2.75-1.4.45zM7 25l1.3-.25q.7.15 1.15.65.4.5.45 1.2 0 .75-.4 1.25-.4.55-1.15.7l-1.3-.15q-.6-.3-.85-.95-.3-.65-.1-1.35.3-.8.9-1.1m9.1 10.55-.9.7-2.1.2q-1.7-.3-2.45-1.15l-.7-1.1-.35-.85-.1-1 .05-.5.15.05q.6.15 1.15-.25l.75-1.1q.35-.8.75-1.1l.5-.45-.1-.4.8-.05 1.1.1.8.4 1.05.8q.8.8.9 1.95l-.4-.25-1.55-.1q-.75.25-1.15 1-.4.8-.2 1.55l.65 1.05q.6.5 1.35.5m-3.95.85.55.3q1.25.95 1.5 2.4v.8l-.2.8-.4.9q-.6 1.2-1.85 1.75l-2.55.2q-2-.55-2.3-2.3l-.05-.5v-1.7q.2-1 .7-1.5L8.2 37l1-.55 1.9-.15zM6.3 31.55q.55-.15 1.05 0 .6.2 1 .75l.25 1.2q-.05.65-.6 1.1l-1.15.45q-.6 0-1.1-.45-.55-.4-.65-1.05t.25-1.2zM.5 29.8q-.15-.6.2-1.1l.75-.8q.7-.4 1.1-.45.6-.05 1.15.35t.65 1l-.05 1q-.2.65-.7 1.1-.55.45-1.2.5t-1.25-.45zm-.45 7.7.2-1.95.2-.95q.3-.9 1.25-1.35l1.85.15 1.05 1.25.55.95.45 1.25q.25 1.15-.15 2.3l-.25.65-1 2.1q-.9 1.2-1.85 1.05L1.1 42.4l-.8-.75q-.3-.4-.3-1.2l.1-1.25z"/><path fill="#fff" d="m53.8 17.1.1.9v1.1l-.2.85-.9-.05q-.85.05-1.85.65l-.6.45-.65-.2-1.35-.05-1.3.4q-.7.4-.8 1L46 22l-1.3-1.3-.55-.8q-.75-1.45-.35-3.05l.55-1.3.45-.75.15-.2.2.55q.45.8 1.6 1.65l1.15.75 1.1.35 1.5.15 1.35-.2 1.55-.5zm-6.2 13 .1-.65q.1-1-.15-1.6-.4-1.2-1.7-1.6l-2.35.1q-.4-.35-.95-.6l-2.1.1-.4.45-.65-.05-1.15.05-2.45.4q-1.45.4-2.45 1.2L32.2 29l-1.05 1.1q-.55.65-1.15.65-.45.05-.8-.3-.4-.3-.5-.75-.2-.8.25-1.8 1.05-2.55 3.65-4l.95-.5.05.1q.45.7 1.5.7 1.05.1 1.85-.7.45-.5.5-1.1h.1v-.35l.1-1.3q.1-1.35.6-1.9.4-.45 1.1-.45h.05q.7 0 1.1.45.5.55.6 1.9l.1 1.3v.35q2.8.25 4.95 1.5 2.6 1.45 3.65 4 .45 1 .25 1.8l-.5.75-.8.3q-.6 0-1.15-.65M30.85 13.15l.75.15q1.5.4 2.35 1.5l.45.75.55 1.3q.4 1.6-.35 3.05l-.55.8-1.3 1.3q-1.25.8-3.15.6-1.85-.1-3.05-.9-1.45-1-1.7-2.6v-.2l.85-.25q1.1-.4 1.55-1.25l.45-1.55q1.05-.2 1.9-.95z"/><path d="M44.95 14.6q-.2-.8-.1-1.85.1-.9.55-1.35l.65-.4.4-.45q.55-.8 1.6-.7.9 0 1.5.85l.3.65.4.55q.3.35 1.2.55l1.4.6q1.15.55 1.55 1.35.5.9.1 1.85l-.7.85-.4.25-1.55.5-1.35.2-1.5-.15-1.1-.35-1.15-.75q-1.15-.85-1.6-1.65zm8.75 5.35.8.2q.7.2 1.05.65.3.4.15.95l-.55.8-.9.3q-.6.15-.85.4-.2.2-.3.55l-.25.6q-.35.6-1.05.85l-1.4-.05q-.95-.5-1.1-1.55l-.05-.35-.65.15-.8.35q-.75.2-1.2-.35-.55-.45-.35-1.2v-.1q.1-.6.8-1l1.3-.4 1.35.05.65.2.6-.45q1-.6 1.85-.65zM40.05 26.3l.4-.45 2.1-.1q.55.25.95.6l2.35-.1q1.3.4 1.7 1.6.25.6.15 1.6l-.1.65-.85 1.2-1.75.35-1.4-.2q-.5-.15-1.1-.85-.75-.85-.85-1.45v-.4l-.1-.05-.6-.15q-.95-.25-1.1-1.2-.1-.65.2-1.05m-2.6-3.9q-.05.6-.5 1.1-.8.8-1.85.7-1.05 0-1.5-.7l-.05-.1q-.2-.45-.05-1t.75-.8l.8-.25.65-.4 1-.05.6.65zm-12.6-3.5-1.2-.05q-.95-.2-1.4-.7-.65-.85-.15-1.65.4-.85 1.4-1l.4-.15v-.55q-.2-.7.25-1.45.4-.7 1.1-.9l.2-.05h.05l.8-.2.75-.35.65-1.35q.4-.9 1.5-1 1.05-.1 1.65.85.4.6.3 1.7l-.3 1.1-1.25 1.75q-.85.75-1.9.95l-.45 1.55q-.45.85-1.55 1.25z"/></g></svg>