<svg xmlns="http://www.w3.org/2000/svg" xmlns:ffdec="https://www.free-decompiler.com/flash" ffdec:objectType="shape" width="76.05" height="41.95"><g fill-rule="evenodd"><path fill="#999" d="M.65.7h75.4v41.25H.65z"/><path d="m26.7 27.4-1.45.6-2.95.6-3.6.25L13 27.8q-4.1-1-7.5-4.25l-1.55-1.6q-2.2-2.7-3.05-4.2L.2 16.1 0 13.8l.25-4.2.3-1.85.2-.75.05-1.1q.1-.8.85-1.25l-.4-1.15-.3-1.35q-.1-.75.4-1.3L2.3.5l.7.2 1-.65L5.4.3q.6.5.9 2.3.5 3.35 1.9 6.5.6 1.55 1.6 2.9 1.75 2.4 5.25 3.95 2.35.4 4.5-.5l2.15-1.15.05-.05q1.45-.8 2.3-1.1l.2-.1q2.65-.85 5 .3 2.7 1.25 3.35 4 .35 1.7-.25 3.5-.65 2.45-2.5 4.35l-.5.45-.25-.45-.5-1-.75-.85-.65-.25-.6.05-.35.3L26 24l-.1.7.5 1.85zm30-2.6 1.3.25q.45-.7 1.55-1.15 1.6-.7 3.15-.35l1.4.75.85 1.3.15 1.35-.1 1-.75 1.3-1 .95-.35.2q1.05.5 1.65 1.1.9.8 1.15 1.95.15 1.1-.55 2.1l-1.75 1.5-2.2.6-2.3.1-10.9-.2-4.05-.25q-1.4-.1-2.2-.6-1.15-.7-1.2-1.8 0-1 .8-1.65.35-.3.85-.45l.15-.8q.35-1.25 1.75-1.9l.4-.2v-.5q.05-1 .75-1.8.7-.9 1.65-1.15l-.05-.4.2-1.5q.35-.9 1.1-1.6.75-.65 1.75-.95 1.9-.5 3.8.5l.9.65.55 1 .1.5zm-5 3.9.35-.25.5-.45q.5-.5.3-1.2l-.15-.45-.45-.7-.55-.35q-1-.4-2.05 0l-.35.15q-.9.5-1.1 1.05v1.2l.1.4.65.6 1.2.3.95-.15zm2.6 2.55 1 .2.45-.1q.4-.25.1-.7-.5-.75-1.15-.9l-.15-.05.05-.4-.05-.35-.2-.2q-.2-.15-.55 0l-.25.2-.35.5-.45-.1h-1l-.55.05-.6.05-.5.4-.2.65q.1.8.9.9l1.7-.3zm1.65-2.65.15.5.2-.05.4-.1h.55l.85.15 1.05.25.95.45.55.45.1.1q.5-.1.8-.7l.2-1.05-.45-1.05q-.35-.45-1.05-.6-1.8-.6-3.2.25l-.7.45q-.5.35-.4.95M33.4 24.5l-.45.3q-.3.1-.45-.15l-.15-.4.3-.55.2-.35.7-.7.75-.3.8-.25.65-.05q.85 0 1.45.65l.45.75q.4 1.1-.35 1.75-.8.75-1.75.3-.6-.3-.9-1l-.2-.2-.7.05zm-7.7 8.55.3.4v.75l-.05.3v.35l.05.3.4.25q.65.4.8 1.15.05.85-.6 1.35-.55.4-1.2.25l-.95-.35q-.4-.4-.6-1.45v-.3l.35-1.25.2-.45.25-.4.1-.3.2-.2.05-.15.3-.25z"/><path fill="#fff" d="m21.7 14.3-1.05-2.55-.25-1.1-.25-.65-1.65.05-.5-.15-.4-.35q-.6-.5-.75-1.25v-.4q-.15-.55.15-1.05l.6-.75q.35-.3.7-.45l.8-.15.15.05V5.2q.15-1.15 1.1-1.8.9-.6 2.1-.3 1.35.4 1.75 1.8.5 1.4-.45 2.55l-.35.45v.6l.45 2.8.4 1.75-.2.1q-.85.3-2.3 1.1zm7.65 11.35.6.9.95-.1q.8.1 1.1.3.65.35.8 1.1v1.25l-.75 1-.55.4q-.2.85-.85 1.5-.55.6-1.1.75l-.5.1q-1.1.15-2.05-.7-.8-.9-.75-1.95l.1-.65q.25-.6.8-1l-.45-1.15-.3-.85-.5-1.85.1-.7.25-.55.35-.3.6-.05.65.25.75.85.5 1zM58 8.75l-.1.75-.1.75.1 2.05-.6 4.75-.2.7q-.25.4-.6.3l-.4-.65-.7-2.75q-.4-1.95-.45-4.2l-.1-.95-.1-.7q-.05-.95.8-1.45l1.65-.05q.8.45.8 1.45M51.7 28.7l-.6.15-.95.15-1.2-.3-.65-.6-.1-.4v-1.2q.2-.55 1.1-1.05l.35-.15q1.05-.4 2.05 0l.55.35.45.7.15.45q.2.7-.3 1.2l-.5.45zm4.15-9.4.9-.2q.5 0 .85.3l.4.8-.1.9-.7.6-.9.05-.7-.5q-.35-.35-.35-.85.1-.7.6-1.1m.1 9.3q-.1-.6.4-.95l.7-.45q1.4-.85 3.2-.25.7.15 1.05.6l.45 1.05-.2 1.05q-.3.6-.8.7l-.1-.1-.55-.45-.95-.45-1.05-.25-.85-.15h-.55l-.4.1-.2.05zm-1.65 2.65-1.8-.15-1.7.3q-.8-.1-.9-.9l.2-.65.5-.4.6-.05.55-.05h1l.45.1.35-.5.25-.2q.35-.15.55 0l.2.2.05.35-.05.4.15.05q.65.15 1.15.9.3.45-.1.7l-.45.1z"/></g></svg>