<svg xmlns="http://www.w3.org/2000/svg" xmlns:ffdec="https://www.free-decompiler.com/flash" ffdec:objectType="shape" width="59.9" height="37.6"><g fill-rule="evenodd"><path fill="#999" d="m53.55 13.45-.05-.15-.05-.4v-.35l-.05-.45v-.45l.05-1.35.1-.1q.35-1 1.45-1l.05-.05q.95.1 1.4.85l.25.7-.25 1.15-.5 1.35-.2.9-.25.55-.5.5q-.7.35-1.15-.25l-.25-.65zm.7 5.1-.5-.1q-.65-.3-.65-1 .1-.7.7-.95.6-.35 1.15.2.5.5.25 1.15-.25.7-.95.7m-6 9.5q-.9-1.15-.75-2.6l.2-.95-.3-.2-.6-.6-.45-.8-.1-.4.1-1.35q.25-1.25 1.25-1.95.65-.5 1.45-.6l1.55.25.55.3.5.45.3.35.15.25 1.55-.1 1.15.2.35-.3q.6-.5 1.65-.6 1.2-.1 2.15.65.85.8.95 1.95v.45L59.3 24q-.5.7-1.3.9l-.05.05q-.05 1.4-.95 2.55l-1.1 1.15.25.2q.8.8 1.15 1.75l.25 1.75q-.1 2.25-1.5 3.65-1.9 1.9-5.35 1.55-2.75-.35-4.05-1.9l-.35-.45h-.6l-1.25.25q.05.55-.6 1.05l-1.2.3-1.1-.15-.4-.2-.65-.2q-.65-.15-1.15-.45.65-.7 1.55-.65l1.2.2.9-.1.1-.05v-.1q-.1-.5.35-.75l.8-.3.75-.15.8-.1-.05-.15q-.2-1.15.15-2.2.5-1.95 2.4-3.35zm8.5-2.1.35-.35.2-.35h.05l.1-.35.05-.35-.05-.3-.15-.5-.1-.1-.95-.75-1.2.1-.35.25-.05.1-.25.25-.25.65-.05.4.05.35h.05l.1.35.55.6.4.2.75.05.3-.05zm-8.5-1.9.05.2.05.35.1.15.1.25.2.2q.3.3.8.4l.5.05.4-.05.65-.5.25-.35.1-.3.05-.35-.1-.75h-.05l-.4-.55-.25-.2-.2-.1-.65-.1-.4.1-.4.15-.3.2-.25.3-.05.2h-.05l-.1.4zm-18-17.35-.25.15q-.3.1-.45-.15l-.05-.4.2-.3.2-.6.25-.2.25-.3 1.7-2.65.25-.3q.4-.5.75-.6.8-.35 1.4.35.55.65.1 1.45l-.55.55zm-3.45-.45-.35.25q-.2 0-.4-.2l-.15-.7-.05-1.1.1-.55.1-1.7.25-1.4q.4-.9 1.1-.8l.05-.05q.55.1.9.45l.3.55v.5l-.2.85-.15.35-.25.8-.3.8-.3.95-.45.65-.1.15zm5.55 7.05q-.1-.35.1-.75l.05-.05.3-.5.2-.05.6-.35.25-.05.3-.2q.8-.4 1.9-.65l.75-.15h.65l2.4-.55q1.85 0 2.95.95l.95 1.1q.95 1.7.6 3.45-.3 1.45-1.35 2.75l-2.25 2.2L38 22.4l-2.75 1.2L31.7 25l-1.25.3q-.6-.05-1-.55-.45-.5-.4-1.05.05-.9 1.1-1.75l.1-.05.3-.9 1.2-2.1.95-2.25.05-.5-.35-.6q-.6-.9 0-1.9l.1-.1zM21.5 4.35l-.7-1.25-.1-.1-.15-.2-.35-.6-.05-.05.1-.8.05-.05q.25-.55.95-.55L21.3.7q.55 0 .85.4l.25.3.1.35.65 1.75.1.6v.3l-.1.2v.25l-.3.35-.55-.1-.35-.2-.2-.25-.2-.15zm-8.45 5q.1.95-.45 1.8l-1.25 1.4-.8.4-.6.15-.75.05q-1.05 0-1.9-.7-.75-.55-1.1-1.7l-.05-.55-.25-.05-.9-.4q-.7-.55-.85-1.45L4.1 8l.1-.75.3-.7.1-.1q.5-.9 1.6-1l.15-.05 1.05.3.35.2.3-1.05.15-.2q.45-.85 1.4-1.25l1.85.05.6.3.85.6q.75.7.85 1.8T13.15 8l-.3.35zm-5.8 4.85h.1v-.1l1.35.45 1.65.3.5.25.7.15.35.25q.2.3 0 .65l-.3.1-3.1.5h-.75l-.35.05q-.8 0-1.15-.65l-.1-.1-.1-.3q-.1-.65.25-1.05.35-.5.95-.5M5.9 31.5l-2.3.05-.7-.75q-.3-.65-.25-1.3.1-.7.65-1.1l1.25-.25L5.8 28l1.2-.9 1.85-1.25 4.85-2.8q.6-.4.95-.45l1.05.15.3.45-.1.5q.5.8 1.15 1.2l1.2.95q.5.55.5 1.35 0 .85-.5 1.35-.6.65-1.9.85l-2.15.15-1.75.35zM5.45 2.8l.25-.4.8-.25.45.05q.75.35.75 1.15 0 .85-.8 1.1-.75.35-1.3-.3Q5 3.5 5.45 2.8m-4.5 7.55L1 9.9l.15-.2q.45-.45 1.1-.2.65.35.55 1l-.05.05q-.2.75-.9.75t-.9-.75zM22.4 26.4l-.2-.35-.05-.25h-.05v-.5l.1-.35.35-.5.25-.2.65-.1v-.05l.55.1.7.45.6.6h.05l.15.7-.1.45-.1.2-.15.2-.15.1-.7.25-.3-.05-.35-.15-.15-.1h-.15l-.35-.1z"/><path fill="#fff" d="m48.25 24.05.05-.3.1-.4h.05l.05-.2.25-.3.3-.2.4-.15.4-.1.65.1.2.1.25.2.4.55h.05l.1.75-.05.35-.1.3-.25.35-.65.5-.4.05-.5-.05q-.5-.1-.8-.4l-.2-.2-.1-.25-.1-.15-.05-.35zm8.5 1.9-.45.2-.3.05-.75-.05-.4-.2-.55-.6-.1-.35h-.05l-.05-.35.05-.4.25-.65.25-.25.05-.1.35-.25 1.2-.1.95.75.1.1.15.5.05.3-.05.35-.1.35h-.05l-.2.35z"/><path d="M44.15 11.2 43 10.25q-1.2-.75-3.15-.7-3.05.15-7.6 2l.05.1.65 1.65.15 1.6q.1 3.75-1.65 5.9l-1.55 1.45-.5.45.1 1.9 6.7-2.35q4.8-1.9 7.2-4.1 1.4-1.35 1.75-2.65l.15-1.45-.25-1.55zM.3 26q.45-1.1 1.75-1.4l2.3.05q3.55-2.8 7.25-5.3v-.1q-.15-.3-.05-.8.2-.7 1.2-1.6l2.5-2.3.15-.1v-.25l.15-.75.3-.7.35-.5 1.7-1.6-.05-.15-.15-.95-.05-.85q0-.45.35-1l.8-.65.6-.3-.55-.8-1.25-.1q-.5.1-.7.3l-.25.5-.25 2.1q-.25 1.4-1.5 2.35-1.25.9-2.6.9-1 .1-1.75-.35-.55-.4-.8-1.05l-.1-.8q.15-.85.9-1 .8-.25 1.3.45l.3.35.8-.1q1.25-.7 1.4-2.25l.05-.95q.25-1.3 1.35-2 1-.7 2.35-.7.95-.1 1.6.3l.9.8.5 1.25 1.35-.2.5.1.45.35q.4.5.45 1.5l.05-.05 2.8-.15q.85.1 2.05.75l1.15.6.45-.2q4.45-1.75 7.15-2l1.4-.05q3.65 0 6 1.7 1.3 1 2 2.45l.35.9.3.75q.55 1.55.3 3.15-.45 2.9-3.1 5.4l-1 .95q-2.1 1.75-6.5 3.6-4 1.65-7.5 2.65l-.1.25-.15.4-.6.4-.1.05-.8.4-.95.25-.65.1-.65.05q-.7-.15-.75-.85h-.05l-.5.05h-.15l-.15.2-.6.45-1.1.6-1.25.35q-.45-.05-.7-.5l-.05-.05-13 1.95q-.6 1.15-1.55 1.7-1.2.7-2.25.3l-1.5-1.15q-1-1.15-1.45-2.3l-.15-.25q-.45-1.2-.55-2.7-.1-1.1.3-1.85m27.05-15.1q-.75-.45-1.65-.6v.1q-.1 1.6.1 4.85l.25 2.25.3 2.75.05.65 1.2-.7.35-.45.1-2.3.15-3.9-.05-1.35v-.7zm2.55 4.15-.45-1.8-.1 2.3h.15v-.05l.35.15.1.05zm-10.1-6.3.3.4.2-.15-.2-.35V8.6zm2.3-.65-.1-.25.05.1zm.15 2.4q-.95.3-2.2 1.1l-.6.45-.2.3v.05l.15.6q.2-.55.75-1l1.65-1.3q1.15-.55 2.05-.35l.35.1v-.3zM7.95 4.45l.15-.2.2-.1h.2l.3.15.1.2.05.25-.1.25-.2.15q-.45.2-.7-.15l-.1-.35zm2.9 1.6-.1-.05-.2-.05-.15-.2-.05-.3.15-.25q.2-.2.35-.15V5l.25.1.15.15.05.1v.45l-.2.15zM7.65 8.8l-.15-.5-.05-.05.05-.15q.1-.8.95-.9l.65.2.4.6q.2.8-.6 1.15l-.7.05q-.35-.1-.55-.4m6.05 10.15q3.05 3.05 6.1 6.8l1.3 2.05.2.75.1-.05.35-.3-.05-.3-1.75-3.85-.15-.25-.15-.4-2.55-4.6-1.15-2-2.45 1.95zm4.1-3.4 2 3.7-1.55-5.65-.2.25-.25.55-.3.45zM6.05 27.25q-.65.55-1.1.6-.5.1-1.4-.35l-.45-.05-.1.35q0 1.1.4 1.9.25.7.95 1.35l.3.1.25-.3q.35-.95.8-1.25l1.2-.3 11.05-1.9.65-.15-1.3-1.45-3.6-3.9q-5.15 3.35-7.65 5.35M28 23.7l-1.55.65.05.25.3 3.35h.75l.15-.05zm-4.55 2.8 1.55-.45v-.25l.05-.35-.05-.7-2.05.2-.15.05zl.15-.15.45-.25z"/></g></svg>