<svg xmlns="http://www.w3.org/2000/svg" xmlns:ffdec="https://www.free-decompiler.com/flash" ffdec:objectType="shape" width="76.2" height="41.9"><path fill="#717171" fill-rule="evenodd" d="M.5.5h75.2v40.9H.5z"/><path fill="none" stroke="#717171" stroke-linecap="round" stroke-linejoin="round" d="M.5.5h75.2v40.9H.5z"/><path fill="#fff" fill-rule="evenodd" d="M35.4 10.3q.25-1 .8-1.8l.2-.25-.25-.4-.05-.3q-.15-.8.15-1.65.3-.8.95-1.3l.45-.25 1.35-.2 1.05.3q.35.15.8.7l.35.55.2 1.25v.25l1 .4.75 1.1q.25.7.1 1.35-.4 1.55-2 1.7l-1.35-.25-.7-.45-.5.25-1.05.55-1.4-.05-.4-.25-.3-.5-.15-.4zM25.3 27.25q.6.6 1.15.85l2.1.3q1.1-.2 1.95-.95.8-.7 1.1-1.8.35-1.1.1-2.15-.25-1.2-1.05-1.95-.65-.65-1.65-.8l-2.1.2q-1 .35-1.65 1.15-.95 1.2-.95 2.6.1 1.5 1 2.55m-15.95-3.5q-.25-1.45-.15-3.7.2-2.6.65-4.2.95-3.15 3.55-5.5t5.85-3.1q3.2-.75 6.65-.05 3.25.65 6.15 2.55 2.6 1.8 3.6 3.9.85 1.7.85 4.5-.1 5-2.65 8.8-2.05 3.05-5.45 4.8l.25.95v.7l-.25 1.1q-.5 1.05-1.55 1.55L24.2 36l-.55-.35-.45.6q-.75.85-2 1-1.2.1-2.15-.5-1.25-.7-1.65-1.85l-.25.3-1 .6q-1.2.4-2.25-.25-1.1-.7-1.25-2-.05-.85.35-1.75l.7-1.05-.5-.4q-3.25-2.7-3.85-6.6M11.1 10.8v.35l-.15.4-.3.5-.4.25-1.4.05-1.05-.55-.5-.25-.7.45-1.35.25q-1.6-.15-2-1.7-.15-.65.1-1.35t.75-1.1l1-.4v-.25l.2-1.25.35-.55q.45-.55.8-.7l1.05-.3 1.35.2.45.25q.65.5.95 1.3.3.85.15 1.65l-.05.3-.25.4.2.25zm7.55 12.5-.55-.85q-.65-.75-1.7-1l-2 .15q-1.95.8-2.4 3l-.05.45q0 1.5 1.1 2.45l.6.45q1.5.95 3.15.3 1.4-.55 2-2.05.5-1.4-.15-2.9m-8.9 7.05h.35q.2 0 .4.15l.5.3.25.4q.2.65.05 1.4l-.55 1.05-.25.5.45.7.25 1.35q-.15 1.6-1.7 2l-1.35-.1-1.1-.75q-.35-.6-.4-1H6.4l-1.25-.2-.55-.35-.7-.8-.3-1.05.2-1.35.25-.45q.5-.65 1.3-.95L7 31.05l.3.05.4.25.25-.2q.8-.55 1.8-.8m23.3 0q1 .25 1.8.8l.25.2.4-.25.3-.05 1.65.15q.8.3 1.3.95l.25.45.2 1.35-.3 1.05-.7.8-.55.35-1.25.2h-.25l-.4 1-1.1.75-1.35.1q-1.55-.4-1.7-2-.1-.7.25-1.35l.45-.7-.25-.5-.55-1.05q-.15-.75.05-1.4l.25-.4q.2-.2.5-.3.2-.15.4-.15z"/><path fill-rule="evenodd" d="M25.3 27.25q-.9-1.05-1-2.55 0-1.4.95-2.6.65-.8 1.65-1.15l2.1-.2q1 .15 1.65.8.8.75 1.05 1.95.25 1.05-.1 2.15-.3 1.1-1.1 1.8-.85.75-1.95.95l-2.1-.3q-.55-.25-1.15-.85m-6.65-3.95q.65 1.5.15 2.9-.6 1.5-2 2.05-1.65.65-3.15-.3l-.6-.45q-1.1-.95-1.1-2.45l.05-.45q.45-2.2 2.4-3l2-.15q1.05.25 1.7 1zM67.85 8.55q2 2 3.05 3.85 1 1.85 1.7 4.8.65 2.5.7 4.95.1 3.8-1.15 7.2-1.35 3.6-4 5.9-3.7 3.2-9.4 3.7-4.6.35-10.15-1.1-1.9-.5-2.75-1l-2.2-1.75q-1.95-1.85-2.95-3.55-1.7-2.9-1.8-7.45-.1-3.95 1.15-7.6 1.3-3.8 3.8-6.6 2.85-3.1 7.25-5 6.15-2.65 11-.7 2.65 1.05 5.75 4.35M59.8 8.5l-3.75.3q-3.85.85-5.3 1.6-2.6 1.25-4.25 3.65-1.2 1.7-2 4.55-1.2 4.35-.45 7.85.95 4.35 4.25 6.4 1.65 1 4.55 1.55 7.15 1.4 11.3-1.25 3.5-2.25 4.65-6.7 1-3.95-.2-8.25-.6-2.15-1.5-3.55l-2.25-2.7-2.3-2.15q-1.4-1.05-2.75-1.3m-5.5 15.25.05-1.35.5-5.8.65-5.75.3-.9q.35-.55.85-.65.7-.1 1 .35l.35.9.25 3.3.05 2.55-.05 4.85v.5l3.95-.7 1.7-.45 1.65-.25q.7 0 1 .35.5.65-.2 1.35l-1.25.75-2.05 1.15-1.85.65q-1.2.35-1.85.75-.95.75-1.5.95-1.1.45-2.2-.3-.65-.55-.8-1.25-.4-.4-.55-1"/><path fill="#fff" fill-rule="evenodd" d="M54.3 23.75q.15.6.55 1 .15.7.8 1.25 1.1.75 2.2.3.55-.2 1.5-.95.65-.4 1.85-.75l1.85-.65 2.05-1.15 1.25-.75q.7-.7.2-1.35-.3-.35-1-.35l-1.65.25-1.7.45-3.95.7v-.5l.05-4.85-.05-2.55-.25-3.3-.35-.9q-.3-.45-1-.35-.5.1-.85.65l-.3.9-.65 5.75-.5 5.8zM59.8 8.5q1.35.25 2.75 1.3l2.3 2.15 2.25 2.7q.9 1.4 1.5 3.55 1.2 4.3.2 8.25-1.15 4.45-4.65 6.7Q60 35.8 52.85 34.4q-2.9-.55-4.55-1.55-3.3-2.05-4.25-6.4-.75-3.5.45-7.85.8-2.85 2-4.55 1.65-2.4 4.25-3.65 1.45-.75 5.3-1.6z"/></svg>