<svg xmlns="http://www.w3.org/2000/svg" xmlns:ffdec="https://www.free-decompiler.com/flash" ffdec:objectType="shape" width="77.1" height="41.8"><g fill-rule="evenodd"><path fill="#999" d="m48.7 7.6.8-.55.75-.7.5-1.65q.2-1.1-.2-1.75l-.85-.85-.75-.95q-.2-.75.45-1 .4-.1 1.05.35 1.55 1.35 1.8 2.35.3.9 0 2.55L51.8 7l-1.25 1.4-.7.6-.5 1.35q-.35 1-1.65 2.1l-1.3 1.1q-1.75 1-4.7.45-1.05-.2-1.65-.6l-1-1.05-1.8-1.75q-1.15-1.05-1.5-1.95-.4-.95-.25-2.25.15-3.15 2.3-4.9.55-.4 1.4-.85 2.1-1 3.35-.4.7.35.45.8-.1.25-.8.25-2.1 0-3.65 1.65-1.4 1.65-1.4 3.8 0 1 .45 1.6l.8.8 1 .9.9.5.5 1q.35.5 1.6.7l2.85-.1 1.9-1.55q.8-.8.85-1.4l.1-.9zm13.1 19.25q.25.75 0 1.45l.6.25 3.55.05 4.25-.75-1.1-.8-.65-.6q-.4-.65-.25-1.75l.5-1.6-.6-.15-1.7-.2-1.9.1-1.6.55-.25.4-1 1.3-.3.8-.05.1zm-9.7-4.55q-1.55-1.4-2.05-3.7-.35-2.05.15-3.6l.35-.8-.45-.85-.2-.7q-.4-.95-.05-1.45.3-.35.85-.35l.9.25.95.5.35.25.8-.45 1.9-.85.75-.15.1-.1.5-.3 1.1-.35 2.5-.3.8.1.75.75-.15 1-.8.8.75.7q1.3 1.35 1.7 2.95l.05.1q1.3-.7 3.15-1.05l2.35-.25q3.1-.1 5.4 1.45v-.65l.15-1.65-.4-.8-1.25-1.3-.55-.4-.75-.05-1.2.45-.85.5-2.1.05-.8-.7-.2-.75.05-.9q.3-1.1 1.35-1.75.95-.55 2.1-.55 2.6-.1 4.2 1.75l.9 1.45.65-1.7v2.95l.3.6.05 1.2-.05 2.2-.1.65-.2.3v7.7l-1.8.25-2.5-.6-.35.8.6.4 1.1.7.9 1.25.05.15q1.15.25 2.75 1.45l.5.55q.05.5-.5.8l-.6.25v11.05H.25v-9.9l-.25-.6.25-.65v-1.7H3l.45-.2L6 27.9l1.8-.2 3.35.35 3.05.65h1.3l1.35-.4 1.2-.05.5.35.1.1H43.3l1.05-2.8.45-1 .25-.35.5-1.05-.15-1.1q.15-.95.95-1.4l1.3-.1.15-.35.4-.4q.4-.25.8-.25l.75.4.3.7v.85l-.6.7.25.85v.4l.35.25 2.1.05 2.15-.5zm.25-13.2-.15-.4-.15-.25v-.7l.35-.7Q53 6.2 54 6.3q1.1.2 1.4 1l.05.75q0 .85-.4 1.25l-.5.4-.75.25q-.4 0-1-.4zm.75-.6.25.3.35.25.35-.1.5-.55.1-.55-.2-.3-.5-.25-.45.05-.4.25-.1.35v.25l.1.15zM44 3.45l.7.25.4.55q0 .45-.4.55l-.35-.1-.1-.3q-1.1-.25-1.8.45.45.55 1.75.55 1.25.1 1.65.75l.15.8-.15.8q-.3.7-1.2 1.05l-.1.05v.05l-.3.45-.15.3-.65.1-.25-.15-.2-.45.05-.15-1.2-.25q-.45-.35-.45-.95l.3-.55.5-.1.45.7 1.7-.15.55-.55q0-.4-.55-.6h-.8l-1.2-.35-.75-.5q-.35-.35-.25-.95t.55-.95q.4-.3.9-.35v-.1l.1-.45q.2-.3.45-.2v-.05l.5.45.05.35zm9 13.15-.15-.7-.5-.5q-.8-.4-1.4.2-.3.3-.35.7l.1.7.2-.1 2.05-.05zm-7.7 10.8 1.05-.95.6-.4.4-.4-1-.85-.05.15-.5.95zm15.1-12.75-.45-.75q-.35-.3-.75-.3-.45 0-.8.3-.4.25-.5.65-.1.45.1.85l.05.15.05-.05 1.35-.3h.85l.1.05zm-8.75 4.7q.2.3.95.3h.4l.2.15.35.2.3-.05.2-.1.1-.4v-.05l.25-.15 1.5-1.1q.8.5 2.25.45h.4l.25.45.6-.1.15-.35v-.4l.95-.7.2-.35-.35-.4q-.25-.05-.5.2l-.45.3-.7.25-1.95-.15-.6-.25q-.45-.15-.7 0l-.55.45q-.95 1-2.45.9h-.55q-.25.05-.35.35t.1.55M46.3 28.2l-.6.5h5.4l1.35-.3 1.6-.4 2.15-.15h2.45v-.05l-.3-1.2.1-.85q.2-1.15.6-2l-.1.05-.95.15-1 1.15q-.75.55-2.1 1-2.5.9-4.7.55l-1.55-.35-.05.05-.4.35-.4.25-.35.35-.6.45z"/><path d="M12.65 27.05q-.1-1.6.1-3.05l-1.6-.2q-1.7-.45-2.45-1.4-1.15-1.35-.75-3.95.25-1.5.75-2.4l1.1-1.4q1.15-1 2.65-1.4 1.55-.35 2.95 0 1.3.3 2.05 1.15l.6 1 .15.2.35.55q4.05-2.05 8.9-.7l.85.3q-.1-.9.35-1.9t1.2-1.75q.35-.35.85-.6l1.1-.15 2.45.25q1.3.4 1.9 1.35l.4.75q.55 1.3.3 2.75l-.3 1.2-.45 1.1-.9 1.05-.85.75.45.8q1.1 2.25 1 4.75-.15 2.6-1.5 4.55-1.15 1.65-2.95 2.7l.95 1.8q.95 2.2 1.2 4.5l.5-.1 2.8-.65q.6-.25.45-.6l-.3-.25q-1.25-.55-1.6-1-.55-.75-.25-2.3.2-1 .55-1.55.55-1.1 2.05-1.7l2.65-.25q1.25.1 1.8.6l.35.75q0 .55-.55.55l-.5-.2-2.3.05q-.95.3-1.3.75-.35.4-.45 1.4 1.35.65 1.8 1.05.95.8 1.1 1.7.2.85-.35 1.85-.55.85-1.45 1.3-.75.45-2 .75H13.7v-.4q.3-4.9 2.6-8.5l-.4-.25-1.95-1.5q-1.1-1.3-1.3-4.1M26.2 8.25q.45 1.5-.3 3.15-.75 1.4-2.15 2.35l-1.05.5-1.35.05-1.5-.4-1.15-.95q-1.2-1.1-1.25-2l.05-.85.15-.95.15-.7q.15-.5.65-1.3l1.05-1.3-.6-.7q-.1-.25.1-.75l.3-.5.55-.15h.9l.65.15.45.4q.3-.55.75-.75.95-.45 1.65.25l.3.65-.2.45-.35.5.35.3.5.65.8.75zm-10 11.05q-.6.45-1 1.95-.2 1-.05 1.45l.8.75 2.3-.05q1.15-.5 1.55-1.8.35-1 .05-1.65-.55-1.25-2.2-1.15-.9 0-1.45.5m11.35 5.9q-.05-.15-.3-.2l-.45-.1-.6-.2-1-.3-.8-.3-.1-.2-.4-.9-.1-.35q-.15-.25-.45-.35l-.25.05-.2.3q-.25.7-.2 1l.1.8h-.05l-.9 1.05-.75 1.15-.1.45q.15.4.6.3l.65-.4 1-.85.7-.45.05-.05h.15l1.05.1.9.15h.85l.5-.2q.25-.25.1-.5m-.35-5.1.2.95 3.1-.1.35.05.1-.3.15-1.15-.55-.7q-.6-.55-1.2-.6-.7-.15-1.3.25-.4.25-.65.85zM19.9 8.85q-.3.6-.2 1.55l.05.6q.25.55.75.7l.25.1.05.45.1.3.35.25h.45l.25-.4.05-.4v-.15l.5-.15q.55-.25.55-.8l-.2-.45-.45-.15-.45.25-.5.05-.4-.15-.2-.5q.1-.6.55-.85l1.05.05.4.25.45-.2.1-.5q-.05-.5-.7-.7l-.2-.1.05-.15-.3-.55-.55-.25-.05.05q-.45 0-.7.4l-.1.55q-.7.25-.95.9"/><path fill="#fff" d="M19.9 8.85q.25-.65.95-.9l.1-.55q.25-.4.7-.4l.05-.05.55.25.3.55-.05.15.2.1q.65.2.7.7l-.1.5-.45.2-.4-.25-1.05-.05q-.45.25-.55.85l.2.5.4.15.5-.05.45-.25.45.15.2.45q0 .55-.55.8l-.5.15V12l-.05.4-.25.4h-.45l-.35-.25-.1-.3-.05-.45-.25-.1q-.5-.15-.75-.7l-.05-.6q-.1-.95.2-1.55m7.3 11.25.2-.75q.25-.6.65-.85.6-.4 1.3-.25.6.05 1.2.6l.55.7-.15 1.15-.1.3-.35-.05-3.1.1zm.35 5.1q.15.25-.1.5l-.5.2h-.85l-.9-.15-1.05-.1H24l-.05.05-.7.45-1 .85-.65.4q-.45.1-.6-.3l.1-.45.75-1.15.9-1.05h.05l-.1-.8q-.05-.3.2-1l.2-.3.25-.05q.3.1.45.35l.1.35.4.9.1.2.8.3 1 .3.6.2.45.1q.25.05.3.2M16.2 19.3q.55-.5 1.45-.5 1.65-.1 2.2 1.15.3.65-.05 1.65-.4 1.3-1.55 1.8l-2.3.05-.8-.75q-.15-.45.05-1.45.4-1.5 1-1.95"/></g></svg>