<svg xmlns="http://www.w3.org/2000/svg" xmlns:ffdec="https://www.free-decompiler.com/flash" ffdec:objectType="shape" width="78.6" height="43.65"><g fill-rule="evenodd"><path fill="#767676" d="M72.1 7.95q.7-.8 1.6-.65 1 .1 1.15 1.05t-.8 1.5l-1.7.35q-.7-.1-.85-.4l-.05-.5q.15-.65.65-1.35m-.45-1.3L71.3 7l-.65 1.1q-.45.8-.9.85-.55 0-.85-.65-.15-.45.05-1.1l.45-1.8q.25-.85 1.15-.95.9 0 1.25.75.45.8-.15 1.45M65.8 7.8q-.7-.7-.7-1.5-.1-1 .85-1.35l.7-.05q.8.2 1 .75l.1 1.5v1.3l-.65.45q-.45.1-.7-.35l-.2-.35zm-18.3 6.5-.3-1-.1-1.3-.1-1.25-.15-.65q-.1-.6.15-1.15.25-.6.75-.85l1-.25 1 .25q1 .65.9 1.8l-.05.5.05 1.15v.7l-.25 2.35-.4 1.1-.35.65q-.25.35-.7.25l-.65-.35-.25-.6-.4-.85zm.7 3.6.4-.25.7-.1q.45.05.8.4l.4.8-.25.9-.7.55-.9-.05-.7-.55-.15-.9q.05-.5.4-.8M17.4 28.5l.65.45.15.85-.15 8 .95.05q1.35.1 1.95.55l.6.65q.7.9.3 1.9l-.35.65-.65.45-1.2.15-1.2.05-.65.2-1.85.15q-1.3-.25-1.7-1.25l-.3-.3q-.5-.65-.5-1.4l.1-1.05.5-3.65.25-2.1q.2-1.95.7-2.8l.85-1.1q.35-.35.6-.45.4-.2.95 0"/><path d="m34.95 22.95-.4 1q-1.5 3.35-4.7 4.8-1.95.85-5.1.95l-3.65-.4-.3-.1-3.6 2.85q-1.2.8-3.1 1.6l-1.15.55-.85 4.3h.05q1.05-.05 2.15.4.8.25 1.2.75.6.6.65 1.3.1.9-.55 1.55-.55.55-1.5.65h-.8l-2.3.45-1.55-.05-.2-.1-1.15-.15-1.05-.85q-.45-.65-.5-1.35 0-.5.3-1.5l.9-3 .4-1.3H5q-2.1-.2-3.2-.8-1.75-.9-1.75-2.6-.05-.85.55-1.5l.35-.3.15-.65q.3-1 .3-3.1 0-10.95-.4-16.4Q.9 7.8.5 6.45l-.4-1.6q-.2-1 0-1.65.35-1.3 2.1-1.95L4.7.7 7.3.6l4.6-.35L18.8 0q2.85 0 4.05.7 1.35.65 2.45 2.7 1.25 2.2 1.9 4.7 2.45.55 4.5 2.15l.95.85L35 11l1.6.4q1.15.7 1.05 1.9l-.95 3.45-.3 1.05.1.6q.05.6-.3 1.15l-.45.55-.5.25-1.45.2-3.65-.2-.05.4q-.05.9.4 1.65.4.7 1.25 1.1l1.65.2q.9-.1 1.55-.75m32.4-13.2q2.3.05 4.25 1.2l2.3 1.95 1.95-.1q1.25.25 1.65 1.4.3.8-.1 1.65-.5.95-1.4 1l.25 1.35q.45 3.45-1.05 6.4l.2 1.3.1 3.3q-.15 1.9-1.05 3.1l-.9.95-.8.75q-.95.65-2.2.5l-1.35-.3.8 2.6.4 1.05 4.2-4.05.85-.7 1.4-.25q.75.1 1.25.6.5.55.5 1.4 0 .8-.5 1.4l-1.15.9-2.05 1.7-1.5 1.05-.6.6-1.25 1.05q-.85.7-1.55.85l-1.2-.05-1.45.05-3.6-.15-2.05-.35-.7.75-1.4.55q-.8.1-1.5-.35t-1-1.15q-.25-.7-.25-1.75 0-3 .75-5.3l.9-2.05 1.2-2.2-3.3-.25q-1.2-.45-1.75-1.15l-.7-1.2q-.6-1.5-.4-3.15.2-1.55 1-2.8l-.25-.65-.05-.6q0-1.35.35-2.55l.35-.8q.7-1.1 2.05-1.25h.9l-.3-1.1v-1.85l.1-1.65q.15-.9.75-1.4.6-.45 1.45-.45l1.5.2 1.65.4.8.25q1.6-.7 3.5-.65m-7.4 8 .05.4q.15.8.9 1.4.7.6 1.75.6 1.05-.1 1.7-.75l.1-.15q.7-.7.7-1.85-.1-1.45-1.45-2.2l-.35-.15-1 .7-1.25.5h-.85q-.4.7-.3 1.5m7.6 7.95.05-.8.05-.85.1-.85-.1-1.4-.3-.55-.05-.05.2-.6v-.65q-.2-.45-.75-.45-.4 0-.7.3l-.35.8v.05l-.5.05-1.7 1.2-.55.6-.5.85q-.3.55-.2 1.25.15.75.7 1.05l.6.2.6.1.35.15.35.2q.75.75 1.5.6.4 0 .8-.4zm2.05-3.85q.55.65 1.35.85l.65.1.7-.1q1.4-.3 1.8-1.75l.1-.6-.4-.35-.75-.8q-.35-.55-.4-1.15l-.05-.25-1.5-.15q-.85.2-1.35.75-.55.6-.65 1.4-.15.85.2 1.55l.3.4zm-17 8.75q-.95 2.55-2.85 3.65-1.2.7-2.75.75l.15.45.45.7q1.15 1.75.7 3.45-.25 1.1-1.2 1.8-.95.75-2.05.7l-.95-.25-2.35.05-.7-.2-1.1 1.15-2.5-.1q-.65-.5-.95-1.45l-.6-.35-.55-.7-.45-.8-.45-.65-.2-.7-.4-.6-.45-.25-.3-.1-.35.1-1.3.5-.85-.05q-1.05-.35-.95-1.45l.15-.3q.2-.2.45 0l.15.15.25.1.55.35.6-.3.9-.75.8-.4.75-.1q1.35 0 2 .55l.6.65q.45-1.25 1.35-2.35l1.55-1.4.95-.65q-.55-.95-.85-2.25l-.25-1.45q-.05-1.4 1.15-3.2-.85-.75-1.05-1.5l-.1-.95.05-1q.15-.8.8-1.65l.85-.75q.6-.4.95-.5l.95-.05 1.4.15q1.55.4 2.15 1.9l.3 1.45q2.45.1 3.65.95 1.1.8 2 3.05l.4 1.45-.2-.15q-.6-.4-1.25-.35-.6.1-1.1.55t-.6 1.1q-.1.95.5 1.55.45.45 1.1.55zm-5.15-5.5q-.7-.6-1.8-.7l-.8.15-.55.25-.75.65q-.5.75-.5 1.55l.15.95.35.7.6.55q1.1.8 2.45.3t1.65-1.85V26.6l-.25-.75zm10.9.1-.3-.5H58l-.25.65q-.2.8.1 1.2l.8.55h1.3zM45.5 31.3q.05.35.45.45l.7.05q1.2.1 2.05.55l.7.3q.45 0 .75-.3.3-.45-.05-.8l-.4-.3-.55-.15v-.05l.15-.35-.05-.25-.4-.55-.65-.05-.5.55-.1.35-.75-.1h-.9q-.6.2-.45.65m23.75-2.05-.35.1q.6.55 1.15.75l.65.1.45-.4.35-1.2zm-45.7-5.45-.3.15-.15.15-.2.1-.1.35.7.3 1.5.2.25.15.4.15.6.1.8.05 1.3.25.5.15q.6.1.95-.35t.2-.95l-.35-.55q-.35-.35-.95-.45h-.4l-.25-.05-.05-.1-.2-.4-.15-.45-.4-.3-.5.1-.6.65-.25.55h-.1l-.75.15zm-2.3-2 1.25.4 1.4-.25q1.05-.45 1.55-1.5l.25-.85-5.7-1.55q-.2.45-.25 1.05-.1 1.8 1.5 2.7"/><path fill="#fff" d="M35.75 20.1v.05q.35 1.15-.35 2.25l-.45.55q-.65.65-1.55.75l-1.65-.2q-.85-.4-1.25-1.1-.45-.75-.4-1.65l.05-.4 3.65.2 1.45-.2zm33.85 1.75v-.1l-.3-.4q-.35-.7-.2-1.55.1-.8.65-1.4.5-.55 1.35-.75l1.5.15.05.25q.05.6.4 1.15l.75.8.4.35-.1.6q-.4 1.45-1.8 1.75l-.7.1-.65-.1q-.8-.2-1.35-.85m-2.05 3.85-.4.8q-.4.4-.8.4-.75.15-1.5-.6l-.35-.2-.35-.15-.6-.1-.6-.2q-.55-.3-.7-1.05-.1-.7.2-1.25l.5-.85.55-.6 1.7-1.2.5-.05v-.05l.35-.8q.3-.3.7-.3.55 0 .75.45v.65l-.2.6.05.05.3.55.1 1.4-.1.85-.05.85zm-7.6-7.95q-.1-.8.3-1.5h.85l1.25-.5 1-.7.35.15q1.35.75 1.45 2.2 0 1.15-.7 1.85l-.1.15q-.65.65-1.7.75-1.05 0-1.75-.6-.75-.6-.9-1.4zm-6.85 9.7.55.8-.05 1.25-.8.95-.2.15-1.05.1q-.65-.1-1.1-.55-.6-.6-.5-1.55.1-.65.6-1.1t1.1-.55q.65-.05 1.25.35zm-5.65-2.35.55.75.25.75v1.05q-.3 1.35-1.65 1.85t-2.45-.3l-.6-.55-.35-.7-.15-.95q0-.8.5-1.55l.75-.65.55-.25.8-.15q1.1.1 1.8.7m-1.95 6.2q-.15-.45.45-.65h.9l.75.1.1-.35.5-.55.65.05.4.55.05.25-.15.35v.05l.55.15.4.3q.35.35.05.8-.3.3-.75.3l-.7-.3q-.85-.45-2.05-.55l-.7-.05q-.4-.1-.45-.45m-24.25-9.5q-1.6-.9-1.5-2.7.05-.6.25-1.05l5.7 1.55-.25.85q-.5 1.05-1.55 1.5l-1.4.25zm2.3 2 1.5-.05.75-.15h.1l.25-.55.6-.65.5-.1.4.3.15.45.2.4.05.1.25.05h.4q.6.1.95.45l.35.55q.15.5-.2.95t-.95.35l-.5-.15-1.3-.25-.8-.05-.6-.1-.4-.15-.25-.15-1.5-.2-.7-.3.1-.35.2-.1.15-.15z"/></g></svg>