<svg xmlns="http://www.w3.org/2000/svg" xmlns:ffdec="https://www.free-decompiler.com/flash" ffdec:objectType="shape" width="74" height="39.85"><g fill-rule="evenodd"><path fill="#999" d="M58.75 12.3q-.15.5 0 .7l.35.65 1.5-.05q.5-.1 1.05-.65l.65-.85.25-1.1v-.2l-.1-.3-.7-.8-.75-.2-1.25.05-.7-.05-.45-.5q.15-.7.7-.85l.45-.1 1.5.1q.9.2 1.4.6l.65.9.2.4.35.55-.15 1.15-.55 1.6q-.45 1.05-1.55 1.6l-2.3.25-.2-.1-.85-.2-.6-.75-.3-.5-.05-.55q0-.95.15-1.45.3-.8.9-1.15.45-.4 1.2-.4l.75.15q.45.15.75.4l.3.7-.15.55-.2.4-.2.2q-.25.25-.5-.1-.2-.25-.1-.55l.05-.2q-.05-.25-.4-.25l-.8.15zM53.1 32.4q3.3-9.35 10.2-15.45.25-.25.6-.35l.6.1q.45.45-.35 1.2-6 6.25-8.45 14.55l.55-.35q2-1.3 3.1-3.3l.1-.15.05-.15-.6-.05-.35-.15-.25-.35v-.5q0-.6.2-.85l.35-.2.5.5.1.8.55.1.45-.4.25-.1.2-.45-.2-.1-.2-.95h-.05l-.65.35q-.55.1-.7-.5.15-.65.8-.8h.4l.3.05q.15-1.25.75-1.8.15-.2.35-.25l.45-.05q1 0 1.4.3l.5.8.1.7.7-.25.65.1q.55.25.7.75l.1 1.1-.15.5-.55.7.15.15.55.9.25 1.1q-.15.55-.65.8l-1.05.1h-.05l-.1.65-.35.9-.95.45.15.5q.3 1.55-.8 4L61.5 39.4l-.35.45H57.7l.75-.65 1.6-1.5q1.6-1.9 2.25-4.8l.1-.4-1.15-.7q-.55-.55-.55-1.15h-1.2l-.1.1-1.1 1.6L57 33.5l-1.4 1.05-.55.55-.15.75.05 4H48.3l.1-.2q1.45-3.05 3.9-5zm17-9.05-.2.2q-.15.05-.15.35l.1.3.65.5.75.2.55-.25.3-.3.3-.55.25-.65-.25-.5-1.15-1-1.4-.25-1.45.35q-.4.1-.5.25l-.2.35-.35-.05q-.45-.2-.3-.75l.4-.55 1.6-.95.85-.1h.6l.9.2.55.25.45.35L73.6 22q.5.55.4 1.5l-.05.4-.35.95-.3.6-.4.35-1 .65-1.5-.05q-1-.25-1.4-1-.45-.75-.15-1.5l-.05-.25.1-.55q.15-.45.6-.55l.8-.1 1 .2.4.4q.1.3-.3.4l-.35-.05zm-22.65 8q2.3-3.3 3-5l.95-2.9 1.15-6.3q.2-2.9.55-3.9.35-1.25 1.1-.9.4.15.4 1 .3 6.85-1.15 12.85l-.9 2.9-1.4 2.5-1.6 2.45q-1.9 3-1.95 5.35v.45h-9.65Q36.65 36 35.1 33.1l-.7 1.5q.45.1.75.5l.15.65-.5 4.1H19.85q.1-1 .4-1.55.35-.35.65-.55l-.2-.75-.45-3.4-.3-4-.2-2.55q-.1-3.8 1.05-7.2.25-.75.65-.8.6-.1.75.6l-.1 1q-.45 2.3-.3 5.25l.65 5.3q.75 5.15 1.7 7.6v.05l1.05-2.95.9-1.7.3-3.25.95-3.3.6-3.35q.05-1.45-.45-3.35l-.2-.85-.2-.1q-2.75-1.45-3.6-2.75-.9-1.4-1-4.4 0-2.15.3-3.2.35-1.65 1.55-3.05l-.3-3.65V2.4q.1-.6.6-.9.6-.45 1.6-.35l2.2.4 1.95.65.5-.25 3.35-1.2Q37.65 0 41 1.6l.5.25.65-.4 1.7-.85.55-.35q.6-.3 1.15-.25.65.1.95.65l.1.85.15 2.35.2.65.2 1.55-.1 1.05-.05.25q1.05 1.85 1.15 3.5.15 1.5-.35 3.3-1.2 4.6-4.7 6.7-.6.35-1.25.65l.5.8 2.45 4.65q.7-1.05 1.3-1.6l1.1-.8.35-.2q.25.15.15.5l-.3.4q-.5.4-1.1 1.7l-.8 1.8.8 2.75.25 1.2zm-16.3-17.8-.5-.45q-.25-.05-.5.2-.5.5-.1 1.3.3.6 1.15.7l1.4-.05q1.2-.3 1.65-.7l.6-.5q.45.5 1.5.9l1.4.15q.45-.05 1.1-.5l.6-.55.15-.7q-.3-.5-.85-.4-.45.05-.85.35l-.45.05-.5-.25-.6-.1q-.4-.05-.5-.25l-.2-.6q-.2-.25-.5-.2l-.35.1h-.05l-.75.75-1.35.8zm11.9-6.8-1.2-.45q-1.35-.15-2.45.8-1.05.95-.95 2.3l.05.6q.1.9.75 1.55l1.55.85 1.7-.1q.8-.3 1.35-1 .6-.7.65-1.6.2-1.95-1.45-2.95m-.2 23.35q-.45-1.9-1.3-3.75l.5 2.15.4 2.4zm.8 4.6-.45 3.4.05-.1.4-.45zm20.4-7.25.05.1.05-.05v-.35l.9-.7q.3-.25.15-.65l-.2-.35-.45.15-.5.45-.1.45-.1.35zm1.1 1.9-.6-1.1-.45-.2-.05-.05-.2.55h.05l.25.3.3.5zm-2.8-3.4.75.2v-.1l.25-.7v-.15l-.15-.95q-.35-.5-.8-.45-.55.15-.65 1l-.05 1v.05l.1.1.05.1zm.5 3.35-.95.05-.05.2v.5l.35.8q.25.45.8.25l.25-.8.05-.5-.15-.55zm-2.05.1.3-.25.1-.2-.45-.65h-.05q-.3.25-.55 1.35zm4.3 9.5-.5.8-.05.1-.05.05h-2.55l.4-.25v-.15l1.45-1.1.25-.3q.3-.45.8-.35.55.1.55.65zM25.95 8.35l-.05.05q-.75 1.6.25 3 .95 1.45 2.65 1.35 1.4-.15 2.15-1.15.65-.75.65-1.85 0-1-.6-1.8-.85-1.2-2.4-1.2-1.2 0-2.05.8zM19.7 4h-.2q-.45-.05-.85.2-.35.3-.4.75.45.45 1.2.3.9-.1 1.45-.85.55-.95-.2-1.6-.55-.5-1.65-.3l-.8-.05q-.25-.15-.2-.4l.3-.45q.25-.3.9-.3 1.8-.1 2.5.9.5.6.35 1.75L21.95 5l-.55.75q-.65.65-1.65.85L18 6.35q-.8-.5-.85-1.2-.15-.55.15-1.05.4-.75 1.1-.9.85-.3 1.3.4.3.3 0 .4m10.9 17.5-.9-.25.55 2.85.7-2.1.2-.3zM1.45 25.8q-.15.5 0 .7l.35.65 1.5-.05 1.05-.65.65-.85.25-1.1v-.2l-.1-.3-.7-.8-.75-.2-1.25.05-.7-.05-.45-.5q.15-.7.7-.85l.45-.1 1.5.1q.9.2 1.4.6l.65.9.2.4.35.55-.15 1.15-.55 1.6q-.45 1.05-1.55 1.6L2 28.7l-.2-.1q-.35.15-.85-.2l-.6-.75-.3-.5L0 26.6q0-.95.15-1.45.3-.8.9-1.15.45-.4 1.2-.4l.75.15q.45.15.75.4l.3.7-.15.55-.2.4-.2.2q-.25.25-.5-.1-.2-.25-.1-.55l.05-.2-.4-.25-.8.15q-.2.15-.3.75m12.9 5.75-.55-1.3q.05.8-.6 1.5l-.5.35v.05q.55 1 .1 2.15l-.7.9-1.05.2q-.5-.05-.95-.5l-.4-.45q-.5 1.05-1.5 1.2-.5.05-.95-.3l-.65-.75v-1l.1-.65.1-.1q-.65.05-1.25-.4l-.5-.5-.15-.75q0-.75.3-1.35.6-1 1.9-.85l.2.05v-.3l.1-1.15q.2-.65.7-.85l.85-.2 1.7.2.65.65q.4.55.35 1.3v.15l1.15-.05.5.25-.75-1.4Q10.8 24.7 7.8 23q-.3-.1-.45-.35l.1-.4.4-.3q.4-.05.95.25 4.65 2.1 7 6.9l.85 1.8 1.1 2.3.9 2.35.5 2.1.65 2.2h-4.55l.1-1.35v-3.75zm-5.8-2.15 1.3.1.3.15.05-.3q.3-.4.2-.95l-.25-.45-.65-.3q-.7-.1-.95.3v.35l-.05 1.2zm2.15 2.25-.25.55-.35.3.15.35.15.5q.15.3.65.5l.35.15.35-.55q.1-.9-.35-1.15l-.55-.25q-.2-.3-.05-.6l.55-.15.6-.05.35-.35q.45-.65.35-1.05l-1.5.05-.05.05-.4.4v.05q.3.65 0 1.25m-1.4 1.1-1.25-.25-.1.2-.45.55v.55l.45.45q.7.2 1-.4l.2-.8.2-.3zm-2.55-2.2q-.45.25-.2.7l.85.15q-.1-.5.05-.95zm2 8.1-1.6-1.6-.55-.35-.75-.4q-.1-.3.3-.5l.6-.05.75.1.75.45 2.4 1.95 1.25 1.55.05.05H9.5zm20.85.25.15.5q.2-1.85 1.15-4.25l-.75-.35q-.95-.65-1.15-1.95l-.05-.45q-.4 3.25.65 6.5"/><path fill="#fff" d="M43.05 6.75q1.65 1 1.45 2.95-.05.9-.65 1.6-.55.7-1.35 1l-1.7.1-1.55-.85q-.65-.65-.75-1.55l-.05-.6q-.1-1.35.95-2.3 1.1-.95 2.45-.8zm-11.9 6.8 1.5.05 1.35-.8.75-.75h.05l.35-.1q.3-.05.5.2l.2.6q.1.2.5.25l.6.1.5.25.45-.05q.4-.3.85-.35.55-.1.85.4l-.15.7-.6.55q-.65.45-1.1.5l-1.4-.15q-1.05-.4-1.5-.9l-.6.5q-.45.4-1.65.7l-1.4.05q-.85-.1-1.15-.7-.4-.8.1-1.3.25-.25.5-.2zm-5.2-5.2.6-.8q.85-.8 2.05-.8 1.55 0 2.4 1.2.6.8.6 1.8 0 1.1-.65 1.85-.75 1-2.15 1.15-1.7.1-2.65-1.35-1-1.4-.25-3z"/><path d="M19.2 12.4h.2l-.1-.25-.3-1q0-.8.65-1.15.65-.4 1.3 0 .6.4.7 1.2l-.1 1.2.35-.3q.7-.5 1.25-.7l1.35.1q.4.2.6.7v.9q-.35 1-1.35 1.1h-.85l-.25.05.05.2h.05q.95-.1 1.8.4l.9.75q.5.95-.2 1.65t-1.65.3q-.9-.8-1.45-.9h-.1v.05l.6.85.3 1.05q.1.9-.25 1.5t-1 .7l.4 2.85.35 2.8v.75l.4.6q.25.85-.35 1.45l-.05.05.1.1.35.35q.45-4.95 1.45-7.5l.8-1.7q1.7-3.45 4.15-6.6.2-.3.4-.3l.3.4-.2.45-2.45 5.1q-1.25 2.9-1.7 5.35v.1l.3-.05q-.1-1.6.6-2.25.35-.3.85-.45l.75-.2q.65-.05 1.2.4l.75 1.05.6-.6 1.15-.2q.5.05.75.6.7 1.1-.05 2.35l.95.15.65.5L34 24.3l-1.05-6.25-.75-3.8-1-4.35q-.75-2.4-1.9-4l-.3-.65q-.1-.5.3-.6.3 0 .55.25l1.45 1.9q1.3 2.25 2.85 7.35 1.6 5.15 2.1 8.3.45 2.65.65 7.65l.6-1.4 1.6-4.05-1.1-.2q-.65-.4-.6-.9l.1-1.15-.95-.25q-.4-.3-.4-.8l.1-.5q.4-.9 1-1.1l-.35-.5-.1-.8.2-.8.65-.5q.55-.25 1.3-.35.75 0 1.25.45l.35.5.85-.25q1-.1 1.6.5.5.3.55.85l-.25 1-.55.65.2.1q.45.4.45 1.05 0 .95-.8 1.45l-1.4.25v.05l-1.85 6.75-.3 1.4 1-.1.95.1-.2-.3-.55-.55q-.4-.45-.35-1.1 0-.7.5-1.1.5-.35 1.15-.3.7.1 1.05.6l.4 1.3.25-.9.25-.55.6-.4.7.05.25.2-.6-2.7q-.55-2.7-.5-4.55.05-2.45 1.4-6.4l1.25-3.45-.3-.25h-.1q-.3.2-.5.85l-.45 1q-.35.5-.95.55-.65.05-1.05-.35-.75-.65-.35-1.8.25-.75 1.25-1.4.65-.5 1.4-.65l.1-.8L45 8.4l-.45.25-1.1.15q-.65-.15-.95-.65-.3-.55-.15-1.15.2-.65.7-.95l1.75-.1q1.05.15 1.75.75l.3.3.25-.1-.3-1-.4-.5q-.3-.35-.25-.85t.4-.85q.65-.75 1.65-.4.9.3 1.3 1.25l.25 1-.05 1.5v.1q.15-.15.35-.25l.6-.6.65-.5 1.05-.25q.9 0 1.3.45.35.35.3.85l-.45.75-.75.25-.85.05q-.9.1-1.35.5l.1.45V9q.95-.1 1.75.3l1.1 1.05.45 1.2q0 .6-.4 1-.45.45-1.05.35-.65-.15-1.15-.9l-.9-1.25-.15-.1-.5.65q.45.7.45 1.6 0 1-.45 1.5-.65.75-1.45.6-.5-.1-.85-.5l-.1.45q-.95 4.3-.85 6.15.05 1.45.65 4.25 1.75 7.5 1.65 11.7 0 1.4-.45 2.05l-.85.65-1-.1q-.75-.45-.65-2.25l.1-1.7q-.1.55-.55.95l-.85.35.05.8-.2.75-.6.45h-.75q-.7-.25-.8-.95l.05-.75.05-.4.1-.35.05-.55-.55.6-1.5-.15q-.65-.6-.4-1.45l.55-.9.35-.35-.95.3-.95.05-.45-.2q-.2 1.75-.05 3.15l.05 1.4q0 .75-.5 1.2l-.25.2h-1.4l-.2-.15-.4-.65-.55.3-1.1-.15q-.75-.45-.65-2.4.55-4.65.6-8.35l-1.2.7.3 1.05q.05.6-.3 1.5l-.5.7-1 .2-.9-.2.05.25.3 2.9.05.7.15.4.1.85v1.15l-.1.95-.15.25h-1.95l-.1-.15q-.15-.35-.15-1v-1.05l-.15-.7q-.1-.45-.05-1.1V34.7l-.2-1.15.1-1.9-.25.15-1 .45-1.1-.7-.5-.7q-.2-.55 0-1.75l-.4-.1-.1 1.75.05 1.65.35 1.5-.05.65.8 1.85.5 1.65q.1.8-.2 1.35l-.4.45h-1.7l-.4-.4q-.3-.4-.4-1.8l-.7-2.7-.4-1.1-.05 1.25-.15 1.55v1.45q-.1.8-.55 1.25-.4.4-1.05.4-.7-.05-1.05-.55-.4-.45-.35-1.3l.25-1.45.3-2.1.1-2.4q-.55-.1-.9-.45l-.3-.55-.2.6-.65.6h-.85l-.7-.55q-.2-.45-.1-.9l.45-.75-.3.1-.85-.05-.6-.6q-.15-.4 0-.85.15-.5.55-.7l.85-.2h.15q-.4-.45-.45-.9-.1-.75.5-1.15l1.25-.1.6.6.35-.8q.35-.4.95-.5h.1l-.1-1.4-.65-5.8-.55.8-.05.3-.55 1.35q-.5.65-1.2.8t-1.35-.4q-.6-.5-.5-1.3l.1-.65 1-1.1.4-.35.9-.6-1 .25-.8.4q-.2.1-.25.2l-.95.35-1-.3q-.55-.3-.7-.95l-.05-.45q-.1-.65.4-1.15.45-.55 1-.6l1.5-.2.5.05.6-.1-.65-.2q-.75-.25-1-.95-.3-.7.15-1.35.65-.9 2.1-.5 1 .25 1.7 1.05zm21.85 7.35.1.25q.75-.1 1.2-.8l.1-.25-.25-.3-1.05.05-.5.4v.1zm-1.7-1 .15-.45q-.05-.35-.65-.25l-.6.25-.25.2q-.1.15-.05.3l.8.45.6-.35zm3.15 3.35.05-.2-.2-.55-.3-.15-.7-.05-.3.25-.15.35.1.4.3.3.35.1.3.05zm-2.5-.25.05-.1h-.45l-.45.2-.35.4-.1.05-.15.5v.4l.05.05.35.35h.55l.3-.2.45-.5.1-.15.1-.3-.05-.35zm8.7 1.35.8.05.95-.25.05-.1-.75-.7-.15-.2-.25-.15-.5.2-.25.25zm8.85 2.3-1 .4-1.15.1q.4 1.15-.4 2.15l-1 .65-1-.1-.4 2.1v1.35l-.1 2.7-.05.75q1.55-2.9 3.75-5.55 2.25-2.7 4.45-3.9l.5-.15q.35-.1.45.2.15.3-.1.55l-.45.35-1 1q-4.35 5.4-5.2 10.05l-.5 1.5-.15.2h-2.05l-.15-.2-.3.2h-1.1q-.55-.2-.8-.8-.15-.5-.05-1.2l.25-2.5q.3-3.2.65-4.75l.7-2.7-.3.15q-.95.7-1.6.45-.6-.2-1-1.05-.65-1.3-.2-2.25l.1-.2-.3-.2q-.65-.15-.85-1.05l-.1-1.4q-.1-.55.05-.9l.7-.65.95-.5.5-.25.15-.55q.15-.6.75-1.2l.75-.5 1.45.05 1.05 1.05.4-.15q.9-.6 2.1-.35l.8.55.2.7q0 1.15-.7 2l1.35.85q.85.9.4 2.25zm-5.35-4.05h.25v-.05q-.3-.05-.5-.5l-.1-1.2q-.05-.3-.5-.3-.6.5-.6 1.25.45.2.9.65l.25.25zm1.45.3.3.2.45-.4.3-.3.55-1.2q-.75 0-1.15.55l-.35.5-.15.45-.05.15zm1.05 2.6.8.1.75-.1v-.5l-.35-.4-.6-.15-.6.15-.1.85zm-1.35 2.9.2-.05.05-.15.1-.05.05-.15-.2-.75v-.15l-.15-.15-.15-.2-.05.05-.15 1v.05l.05.1v.15zm-3.55-.5.25-.05 1.1-1.1.15-.2-.55-.55-.35.05-.7.55-.15.35.1.8zm-4.5 3.9-.3.8.2-.1.45-.1-.2-.95-.05-.15zm.65 4.55.05.15-.05-1.3-.75-.1H45zm-18.6-10.6.15.55.45.5.1.1q.3-.2.7-.25l-.1-1.5-.2-.35H28q-.4.1-.5.25-.15.2-.15.7m9.85-3.3h.45l.55-.1.25-.2-.15-.45h-.4l-.25.1-.25.2-.25.4v.05zM17 34.55l1.15 3.55.2 1.25v.5H15.6v-.55l-.25-2.1-.3-1.1L14 32.65l-.85-2.45-2.05-3.85-.15-.5q0-.35.2-.4.35-.2.7.3l1.8 2.2 1.95 3.35.75 1.7zm14.05-10.2-.25.3-.4.6-.15.5.3.25.75-.65.35-.5.05-.9-.2.05-.15.15zm.95 6-.4-.7-.25-.2-.95-.2-.05.7.1.35 1 .7h.35zm-.6-2.5q.5 0 1.6-.55l-.8-.15-.85.05-.15-.05v.7zm-4.3-1-.9-.35q-.4-.05-.7.2l-.1.1-.05.65q.5.4.95.25.2 0 .8-.35l.1-.45zm.35 2.05q-.7.5-.4 1.35.1.4.35.4l.45-.15.95-.9-1.2-.8z"/><path fill="#fff" d="M39.35 18.75v.15l-.6.35-.8-.45q-.05-.15.05-.3l.25-.2.6-.25q.6-.1.65.25zm1.7 1-.4-.55v-.1l.5-.4 1.05-.05.25.3-.1.25q-.45.7-1.2.8zm1.45 2.35-.55.5-.3-.05-.35-.1-.3-.3-.1-.4.15-.35.3-.25.7.05.3.15.2.55zm-3.7.25.25-.3.25-.05.05-.05h.1l.15-.1.35-.05.05.05.4.35.05.35-.1.3-.1.15-.45.5-.3.2h-.55l-.35-.35v-.05l-.05-.3v-.1l.15-.5zm9.9.85-.1-.9.25-.25.5-.2.25.15.15.2.75.7-.05.1-.95.25zm1.1 3.55-.15-.15-.1-.8.15-.35.7-.55.35-.05.55.55-.15.2-1.1 1.1zm3.55.5-.25-.3v-.15l-.05-.1v-.05l.15-1 .05-.05.15.2.15.15v.15l.2.75-.05.15-.1.05-.05.15zm1.35-2.9-.1-.05.1-.85.6-.15.6.15.35.4v.5l-.75.1zm-1.05-2.6-.1-.05.05-.15.15-.45.35-.5q.4-.55 1.15-.55l-.55 1.2-.3.3-.45.4zm-1.45-.3-.3.1-.25-.25q-.45-.45-.9-.65 0-.75.6-1.25.45 0 .5.3l.1 1.2q.2.45.5.5v.05zm-15.05-.2.25-.4.25-.2.25-.1h.4l.15.45-.25.2-.55.1h-.45zm-9.8 3.35q0-.5.15-.7.1-.15.5-.25h.45l.2.35.1 1.5q-.4.05-.7.25l-.1-.1-.45-.5zm.1 4.3.15-.1 1.2.8-.95.9-.45.15q-.25 0-.35-.4-.3-.85.4-1.35m-.35-2.05.1.05-.1.45q-.6.35-.8.35-.45.15-.95-.25l.05-.65.1-.1q.3-.25.7-.2zm4.3 1h-.2v-.7l.15.05.85-.05.8.15q-1.1.55-1.6.55m.6 2.5-.2.65h-.35l-1-.7-.1-.35.05-.7.95.2.25.2zm-.95-6 .3-.2.15-.15.2-.05-.05.9-.35.5-.75.65-.3-.25.15-.5.4-.6z"/></g></svg>