<svg xmlns="http://www.w3.org/2000/svg" xmlns:ffdec="https://www.free-decompiler.com/flash" ffdec:objectType="shape" width="77.35" height="37.2"><g fill-rule="evenodd"><path fill="#767676" d="m49.1 1.35 2.55.3L52.8 2q1.3.5 2.1 1.2l.6.6 1.1 1.4.65-.3.65-.25q.65-.15 1.15.35.45.6.3 1.2l-.15.5-.1.4-.2.8-.25.75-.05.35-.15.55q-.15.7-.8 1l-1.25-.1-.35-.3-1.25-.8-.65-.3-.35-.25-.35-.35-.25-.4-.05-.55q0-.5.4-.75l.45-.3.3-.15q-.85-1.75-2.8-2.6l-1.65-.55-2.45-.7-.3-.15q-.2-.1-.1-.3 1.4-.6 2.1-.65m23.4 24.6h4l.15.05.15.05.1.05.05.05.1.05.05.05.05.05v.1l.05.05v.05l.05.05.05.05v.1l.05.05v.3l-.05.1v.1l-.05.05-.05.05v.05l-.05.05v.05l-.1.1-.1.05-.05.05-.1.05-.15.05-.15.05-.15.05H67.8l-2.5-.05h-1.15l-.25-.05H62l-2.65-.05H36.5l-1.9-.05H24.35L20 27.65H2.75l-.1-.05h-.3l-.15-.05h-.3l-.15-.05h-.2l-.1-.05H1.1l-.35-.05h-.3l-.15-.05-.1-.05-.1-.05-.05-.05-.05-.05v-.45l.05-.05v-.05l.05-.05.1-.05.1-.05h.15l.45-.05h.55l.1-.05h.1l.1-.05h.3l.1-.05h.35l.15-.05h.6l.4-.05H8.7l3.2.05h5.65l2.45-.05h12.65l2.1-.05h1.9l1.9-.05H62l1.45-.05h.85l1-.05h7.2m-8.8 7.15 1.1.25q.55.3.7.8.15.55-.4 1.2-.45.45-1.1.6l-3.1.45-3.2-.2-1.8-.25q-1-.35-1.15-1.2-.15-.75.4-1.4l1.25-.75 1.25-.3 1.5.15.9.25q.45.25.45.75l1.6-.15zm-28.55 1q4 .3 6.55.05l2.3-.25 2.25.2.7.35q.3.3.25.75l-.55.6q-1.5.95-4 1.2-2.75.35-8.4.05L22 35.9q-3.4-.2-5-1.1l-.95-.8q-.55-.85-.1-1.9.45-1.15 1.65-1.85l2.4-.95q3.6-.95 5.85-.95 1.2 0 1.75.45.4.25.45.8l.45.05q1.1.1 1.45.65l.25.5.3.35q.4.5.35 1.15t-.5 1.1l-.25.25z"/><path d="M64.8 11.65h.2l.15.05.15.05.1.05.1.05.05.05.1.05.05.05v.05l.1.1.05.1v.05l.05.05v.05l.05.05v.05l.05.05v.6l-.05.05v.1l-.05.05v.05l-.05.05v.05l-.05.05v.3l-.05.05v.5l-.05.1v.25l-.05.05v.15l-.05.05v.05l-.05.05v.1l-.05.1v.15l-.05.05v.05l-.05.05v.05l-.05.05v.05l-.05.05v.1l-.05.05v.15l-.05.05-.05.05v.15l-.05.05v.05l-.05.05v.3l-.15.15h-.2l-.05-.05-.1-.05v-.2l-.05-.05v-.15l-.05-.05v-.15l-.05-.05v-.05l-.05-.05-.05-.05v-.2l-.05-.05v-.05l-.05-.05v-.05l-.05-.05v-.05l-.05-.05v-.1l-.05-.05v-.2L64 15.1v-.05l-.05-.05v-.15l-.05-.05v-.25l-.05-.05V14l-.05-.05v-.2l-.05-.1v-.2l-.05-.05v-.05l-.05-.05v-.05l-.05-.05v-.15l-.05-.05v-.3l.05-.05v-.1l.05-.05v-.1l.05-.05v-.05l.05-.05v-.1l.05-.05.05-.05.05-.05.05-.05.1-.05.05-.05.1-.05.1-.05.15-.05.15-.05zm-.15 6.2.5.05.65.5q.3.4.2.8l-.35.75-.75.35-.8-.2-.5-.7q-.25-.95.6-1.45zm1.05 6.2.35.75h.3l.5.15.7.5.45.5.25.45.15.7-.05.5-.3.6-.95.55-.05.05h-.9l-.4-.05-.4-.15-.9.45-.55.1.65.9q.9 1.3 1.1 2.3l.1.9 1.15-.2 1.7.05q1.4.4 1.65 1.9l-.15.85-.35.3-.9.5-.9.15h-.45l-.9-.15-1.25.15-.6.1-.5-.25.95-.65.6-.1h1.85l.7-.15.5-.35.1-.2-.2-.25-.6-.25-.6.05-.6.05-2.1.55-.85.15-.25.1-.95.15-2.5-.3q-1.35-.4-2-1.45-.5-.8-.6-2.2-.05-1.4.45-2.7.65-1.25 1.65-1.9-.65-1.3 0-2.65.3-.65.95-1.15l.35-.2v-.85l.1-.5.2-.35q.45-.65 1.05-.85l.6-.05 1.2.2.45.3.4.4.3.65.05.4-.05 1-.05.1zM24.4 9.85l-.5 1.9q-.6 1.5-2.4 3.3l-.9.8-1.15.7 1.2-.15.65-.15.75-.35.15-.05.15-.35.1-.55.55-1.15q.45-.6 1-.9l1.35-.05.05.05q1.55-3.15 4-5.15 1.15-.9 2.05-1.4 4.35-2.6 8.5-2.4l4.15.55q3.7.7 5.95 2.2 3 2.1 4.8 6.3 2.85 6.45 1.6 13.4l-.25 1.15q-.85 3.25-3 4.85l-2 1.5-1.75.9Q46 36.1 41.6 36.2l-6.55-.35-3.2-.65q-1-.3-3.15-1.5l-1.95-1.3-1.15-1.15-1.45-1.85Q23 27.45 23 23.1q0-1.9.15-2.95l-.1-.05-.55-.45-.15-.2-1.25-.05-2-.1-3.6.05-1.9.1h-.05l-1.3 1.4-2.5 2.5q-1.6 1.7-3.65 4.3L2.6 32.1q-.85 1.05-1.6 1.1l-.2.3V21.8l.5-.65.4-.4q-.55 0-.9-.35v-2.3l.5-.4q.75-.45 1.95-.85l2.05-.75q1.7-.85 2.6-1.15l.55-.15L7 12.95l-.7-1.5q-.15-.45-.15-1.4L6.2 8.5q.2-1.75 1.25-3.3l-.05-.9.15-1.7.25-1.5Q8.15.3 8.85.05L10.3.2l2.75 1 4.7-.4L19 1q2.7.8 4.45 4.2l.5 1.2-.5-.1v.05q-.15.65-.8 1.3l-.8.6v.7l.3.55.4.3.4.2H24zm-6.5-.8.1-.85q-1.4-.65-1.9-2.15l-1.45.2-.9.95-.1.25-.05.2-.05 1.15.05.25q.25 1.15 1.35 1.3l.1.05 1.8-.3q.8-.3 1.05-1.05m-2.3 2.9.05.05 1.2-.15 2.7.1 1.6.25.4.2.35.35.3-.15.5-.55q.35-.95-.55-1.4l-.75-.2-.8-.1-.05.05-.05-.15-.1-.35-.2-.4q-.2-.3-.55-.2-.25.05-.45.45v.4l-.15.4v.05l-.35.05-1.45.3-1.4.5-.25.2zm49 13.45h-.45q-.6.15-.85.75-.2.6.2 1.1l.3.35q.8.3 1.45-.25.65-.65.15-1.4l-.3-.3zm-2.05-2.3-1.1.05-.55.5q-.35.7.15 1.25.55.7 1.3.45.85-.25.85-1.1l-.05-.45-.25-.4zm-1.7 3.3.4.05.3.25.35.55.05.85q.15.4.6.3l.3-.35.05-.4-.1-.65-.15-.25.2-.35.05-.3-.05-.2-.25-.15h-.15l-.1.1-.25.15-.1.15v.05l-.55-.35h-.4q-.15 0-.25.15l-.05.2zM49.6 24.2l.1-.15.15-.6-.05-.7-.2-.5-.2-.3-.15-.35-.9-.55-.55-.1-.75.15-.45.2-.6.8-.1.9q0 .55.15.85l.3.45.3.25.7.35.55.05.75-.05.65-.4zm-8.85-6.6.15-.15-.05-.2-.2-.05-.3.1-.35.3-.25.45v.15l-.05.55.1.5.2.35q.5.75 1.5.9v.05l.2.05v1.05l.1.45.1.15.35.55.3.3.65.3.3.05h.55l.05-.05q.25 0 .45-.2l.05-.5-.35-.2-.5-.05-.1-.1q-.5-.3-.4-.75l.1-.45V21l.2-.3.25-.85-.5-.65-.05-.05q-.3-.3-.6-.35l-.9.15-.65-.25-.25-.15-.1-.4.05-.4zm1.5-5.2-.3-.3-.45-.35-1.1-.15-.05.05-.8.2-.4.4q-.4.5-.5 1.2l.05.65.15.35.2.3.05.1.15.2.9.6 1.1-.05.65-.4.55-.8.1-.3.05-.4-.05-.2v-.4z"/><path fill="#fff" d="m23.95 6.4.25.1.35.15L25 7l.3.65v1l-.1.3-.4.55-.25.2-.15.15-.4.15h-1.05l-.4-.2-.4-.3-.3-.55v-.7l.8-.6q.65-.65.8-1.3V6.3zm18.3 6 .3.7v.4l.05.2-.05.4-.1.3-.55.8-.65.4-1.1.05-.9-.6-.15-.2-.05-.1-.2-.3-.15-.35-.05-.65q.1-.7.5-1.2l.4-.4.8-.2.05-.05 1.1.15.45.35zm-1.5 5.2.05.15-.05.4.1.4.25.15.65.25.9-.15q.3.05.6.35l.05.05.5.65-.25.85-.2.3v.15l-.1.45q-.1.45.4.75l.1.1.5.05.35.2-.05.5q-.2.2-.45.2l-.05.05h-.55l-.3-.05-.65-.3-.3-.3-.35-.55-.1-.15-.1-.45V20.6l-.2-.05v-.05q-1-.15-1.5-.9l-.2-.35-.1-.5.05-.55v-.15l.25-.45.35-.3.3-.1.2.05.05.2zm8.85 6.6-.3.3-.65.4-.75.05-.55-.05-.7-.35-.3-.25-.3-.45q-.15-.3-.15-.85l.1-.9.6-.8.45-.2.75-.15.55.1.9.55.15.35.2.3.2.5.05.7-.15.6zm11.25 2.2-.1-.2.05-.2q.1-.15.25-.15h.4l.55.35v-.05l.1-.15.25-.15.1-.1h.15l.25.15.05.2-.05.3-.2.35.15.25.1.65-.05.4-.3.35q-.45.1-.6-.3l-.05-.85-.35-.55-.3-.25zm1.7-3.3.35.3.25.4.05.45q0 .85-.85 1.1-.75.25-1.3-.45-.5-.55-.15-1.25l.55-.5zm2.05 2.3.5.25.3.3q.5.75-.15 1.4-.65.55-1.45.25l-.3-.35q-.4-.5-.2-1.1.25-.6.85-.75zm-49-13.45v-.3l.25-.2 1.4-.5 1.45-.3.35-.05v-.05l.15-.4v-.4q.2-.4.45-.45.35-.1.55.2l.2.4.1.35.05.15.05-.05.8.1.75.2q.9.45.55 1.4l-.5.55-.3.15-.35-.35-.4-.2-1.6-.25-2.7-.1-1.2.15zm2.3-2.9q-.25.75-1.05 1.05l-1.8.3-.1-.05q-1.1-.15-1.35-1.3l-.05-.25.05-1.15.05-.2.1-.25.9-.95 1.45-.2q.5 1.5 1.9 2.15z"/></g></svg>