<svg xmlns="http://www.w3.org/2000/svg" xmlns:ffdec="https://www.free-decompiler.com/flash" ffdec:objectType="shape" width="71.45" height="40.25"><g fill-rule="evenodd"><path fill="#999" d="M25.4 37.9q-3.7-1.6-5.3-3.4-2.9-3.15-2.9-9.35 0-5.4 2.15-10.2l-.15-.55-.05-.1v-.1l-.5-1.1-.4-1.6L18 11l-.85-3.15-.25-.95-.35-2.35.2-1.2.4-.5.35-.25.45-.15 1.2.1 2.15.75 1.65.75 2.7 1.4 1.25.65q3.65-2.3 8.3-2.9L38 3q3.15-.05 5.8.75l1.8.65q1.6.7 3.25 1.95l1.05-.5 2.5-1 1.45-.5 1.65-.6.55-.25 1.75-.7q1.2-.2 1.75.45.6.65.4 1.8l-.2.8-3.6 9.05.25.6q.65 1.5 1 4.1.6 4.85-.7 9.2-1.45 4.7-4.85 7.5Q46.6 40.6 36 40.2l-5.4-.6q-2.2-.45-5.2-1.7"/><path d="M49.3 13.6q.75.4.9.55.4.5.1.95-.25.35-.8.25l-.8-.35-.2-.1-.2.55-.5 1q-.6.65-1.4.5-.9-.25-1.05-1.05-.1-.45.2-1.35l.25-.6q-1.6-.6-2.35-1.35-.45-.45-.7-.45-.3 0-.45.25l-.9 1.2-1 1-1.55-.05-1.5-.25v.05l-.3 1.1-.85.8q-.55.25-1.15 0-.8-.35-.8-1.15-.05-.45.2-1.1l.1-.2-2.3-.4-1.35-.05-1.25.8-.55.5.15.25.55 1.65q0 1.05-.9 1.55-.7.3-1.3 0-.6-.2-.9-.95l-.1-.45v-.05l-1.45 1.15q-.85.75-1.45.8-.6.1-1.1-.35-.55-.45-.55-1.1 0-1 1.6-2.15l1.55-1.1-.1-.15-.35-.7-.5-1.4-.1-.45.05-.45q.45-.95 1.35-.7.55.05 1.25.85l.8 1.3 1.2-.9q1.3-.85 1.9-.95l2.2.25 2.45.45.1-.5.85-1.8q.1-.5.35-.7l.5-.25h.15q.45-.05.85.5l.1 1-.55 2v.05l.9.2.9.1q.45-.05.8-.6 1.25-1.35 1.95-1.3.4 0 1.3.55l3.05 1.95.85-1.55.8-.9 1.15-.1q.45.3.45.95l-.25 1.05-.6 1.75zm4.55 6.9 2.45.05q1.2.8 1.05 2.15-.15 1.4-1.5 1.9l-1.65-.05q-.8-.35-1.2-1.1-.35-.75-.1-1.6.25-.9.95-1.35m-5.15 6.65 1.15.25q.6.35.6.9t-.6.85l-1.05.3-23.7 2.9-2.15-.2q-.7-.4-.8-1.3-.1-.95.6-1.4.55-.4 1.7-.4l10.5-.9h.3l.1-1 .2-.9q.2-.9.65-1.2.65-.4 1.35.2l.75 1.3.3 1.15 3.2-.4q3.9-.4 6.9-.15M22.9 22.1q.25.8-.05 1.5-.25.75-1.05 1.2l-1.6.3q-.8-.15-1.4-.85-.55-.7-.5-1.55 0-.8.6-1.5.65-.65 1.45-.75.85-.1 1.6.4.75.45.95 1.25"/><path fill="#999" d="M26.35.2 27.7.05q.75.15 1.2.65t.5 1.3q.05.75-.35 1.3-.4.5-1 .7l-1.25.1q-.6-.15-1.05-.65-.4-.5-.5-1.15-.05-.6.25-1.2t.85-.9M66.7 7.15q-.35-1.05-.1-1.85.3-1.05 1.25-1.35 1.1-.4 2.35.3l.95.85q.6.95-.05 2.2-.7 1.3-1.9 1.45l-1.45-.4q-.7-.45-1.05-1.2m-4.6 5.3q-.1.3.15.75l.65.5.6.2q.55 0 .9-.35l.45-.8-.05-.45-.25-.25-1.45-.2h-.4q-.5.1-.6.6m-2.15 1.35v-1.3l.15-.95.65-.9q.65-.75 1.5-.9l.95-.1 1.45.1q1.35.25 2.1 1.3l.2.3.1.4.1 1.1L67.1 14q-.2.8-.95 1.4l-1.55.8-2.15.15q-.45-.1-1-.5l-.65-.6-.55-.75zm4.1 4.55q.45 0 .7.4.3.3.2.8l-.1.65v1.15q-.05.45-.5.6h-.75l-.55-.6-.15-.85q-.1-.95.1-1.35.3-.85 1.05-.8m-2.35 4.7-1.1-.25-.7-.85q-.1-.75.6-.85l.2-.1 1.3.5.45.15q.5.25.4.8-.1.5-.6.65zm.4 2q.35-.8 1.15-.7.75 0 1.1.7l.25 1.05.05.6q0 .65-.5 1.15l-1.2.15q-.45-.25-.65-1.05l-.25-1.15zm2.2-1.95q.15-.55.9-.75l2.05-.1.65.25q.4.3.3.65l-.4.45-1.55.35-.7.25q-.6.1-.95-.2-.45-.35-.3-.9M53.55.6l.5 1.25.15 1.2q0 .75-.6.95l-1-.2-.6-.85-.45-1.1Q51.4 1.2 51.8.7q.3-.45.85-.45zm-4.2-.35q.6-.1 1.1.4t.4 1.15q-.05.55-.65 1.35l-.75.75-.65.4-.9-.05q-.45-.2-.6-.7-.2-.55.2-1.5L48.2.9q.5-.6 1.15-.65m8.8 36.2-.8-1.2-.2-1.05q.1-1.15 1.1-1.9.7-.4 1.2-.4 1.3-.1 2.05 1.05.7 1 .25 2.3-.25.7-.85 1.15-.65.4-1.4.4-.85 0-1.35-.35m8.85 1.8-.95-.4-.8-.55-.6-1-.5-1.3.1-.65.3-1.2.3-.55q.65-1.2 2.1-1.6l.5-.1q1.1-.15 2.1.45 1.15.6 1.55 1.9l.15.55q.15 1.05-.25 2.1l-.5 1.15-.65.65-.75.5-1.05.1zm-.25-2.9.35.25.85.2.3-.05.3-.35.35-.75q.1-.95-.7-1.25l-.9-.3-.4.35-.25.35-.2.65v.45l.1.2zm-53.6-21.4-.75-.15q-.45-.3-.45-.95-.1-.7.4-1l.8-.4.55-.35.75-.05.7.25.45.7-.15.85-1 .85zm-3.3-.6q-.9-.5-1.45-1.95l-.15-.7q0-.75.7-1.1l.9-.1q.5.1.75.45l.45 1.05.4 1.45-.25.7-.6.4zM7.4 2.7q1.2.1 1.65.5l.85.8q.35.4.35 1.35l-.05.7Q10 7.8 8.05 8.7l-1 .25-.75-.05-.5-.1-.5-.2-1.35-1q-.6-.8-.55-1.6 0-.6.55-1.45Q4.6 3.4 5.6 2.9l.95-.3zm.65 3.15.15-.4-.25-.5-.6-.2-.75.05q-.4.15-.65.65l-.35.85 1.3.4.65-.25.4-.35zM9.2 15.4l-.8.45q-1.1.6-1.75.4-.6-.15-.8-.9-.1-.7.5-1.1l1.15-.45.85-.3.85-.1q.6.1.75.65.15.5-.2.95zm.85 1.3-.35-.8q-.1-.85.4-1.25.55-.55 1.25-.35l.7.45q.75.75.9 1.8l-.15 1.1q-.25.45-.8.6l-.95-.1q-.45-.3-1-1.45m-2.6 8.4q.25-1.85 1.95-2.4l1.6-.05q.85.25 1.25.9t.4 1.35q.1.85-.4 1.65-.45.7-1.35 1l-1.7.1-1.1-.55q-.8-.75-.65-2m4.25 8.3-.4.55q-.3.3-.6.2-.35-.05-.45-.45l-.1-.7v-1.1q0-.8.15-1.1.35-.7 1.1-.6l.55.3.3.55-.2 1.65zm.2 3.15q-.45-.3-.45-.85-.1-.5.35-.85l.7-.3 1.3-.3q.55 0 .9.3l.35.8-.25.8q-.4.45-1.5.55zM2.8 33.9q-1.05.7-1.85.5l-.75-.55q-.3-.45-.1-.9.15-.3 1.3-.8.95-.5 1.2-1.45.4-1.05-.4-1.55l-.7-.2-.7-.1-.65-.55q-.25-.4-.1-.8.2-.75 1.45-.85 1.95-.1 2.9 1.4l.45 1.15q.35 1.2.05 2.2-.4 1.55-2.1 2.5m5.65-.25.95.15q.5.2.6.85 0 .6-.45.9l-.85.2-1.05.05-.65-.05q-.65-.15-.75-.9-.1-.7.55-1.1zm.95 3.7.2-.85q.25-.45.8-.55.55 0 .85.45l.1 1.45-.15.8-.4.45-.6.3q-.55.1-.85-.3-.4-.3-.3-.85z"/></g></svg>