<svg xmlns="http://www.w3.org/2000/svg" xmlns:ffdec="https://www.free-decompiler.com/flash" ffdec:objectType="shape" width="76.85" height="42.9"><g fill-rule="evenodd"><path fill="#717171" d="M7 1.8h3.25l1.35.05h.85l.75.05h13.1l7.55.05.1-.05 3.45-.25 3 .1 1.9.2h29.6l.4-.05h1.3l-.4.5q-.45.45-1.3.55l-1.45-.05q-1.7 0-2.7 1-1.15 1.05-.95 3.3l-.05.55q-.2.35-.75.35l-3 .05q-.85.4-1.15 1.25-.25.9.2 1.6l.25.45.1.25.35-.05.15-.35.2-.7.25-.4h.6l3.2.25q.8-.2 1.35-.8.6-.65.65-1.4V7.3q0-.55.4-.8.35-.2 1.2 0l2.9-.15q1.5-.55 2.45-1.7l.15-.2v.25l.05.05v2.5l.05.05v12l-.2-.6q-.75-1.95-1.45-2.65-.7-.65-1.75-.8l-1.9.3q-1.2.65-1.95 2.2-.8 1.6-.95 3.3-.45-.3-1.15-1.8l-.95-2.05-.7-1q-.35-.3-.9-.35l-1 .1-1.15.8-.45 1-.8 2.4-.35-.55-.4-.55q-.6-.4-1.15.15-.4.5-.25 1.15.05.5.55 1.1.75 1 1.65 1.2l.95-.15q.55-.3.85-1.35l.85-2.55q.3 1.8 1.3 3.4.75 1.45 1.9 2.05l2.65.05q.6-.35 1.2-1.4l.65-1.7.85-1.5.75 1.7.85 1.45q.75.75 1.5.55l.95-.6v16.7q-.9-3.3-3-4.65-1.95-1.25-4.1-.6-1.1.4-1.85 1.2l-.45.2-.25-.25q-.25-.55 0-1.9.3-1.3 0-1.9l-.75-.85-1-.65-1.5.15q-.65.3-1.15.95-.55-.5-.4-1.15l.15-.7-.3-.6q-.3-.3-.65-.25-.85.1-1.05 1.25-.15.75.1 1.55.3.75.9 1.2 1.05.7 2.15.2l.55-.2.5.2q-.5 1.2-.35 2.55t.95 2.4l.8.75 1.5.25 1.65-.3 1-.6q1-.4 1.95.65l.85 2q.3 1.35.75 2l-1.45.05h-1.35L70 42.2q-.4-.05-.7-.3h-1.5l-.95.05h-6.8l-.5-.05H49.5l-.2-.05h-.45l-.1-.05h-.45l-.2-.05H48l-1.15.25-2.4.05-.85-.35q-.4-.3-.4-.75 0-.6.7-.9l1.2-.2 1.15-.2v-.05l.05-.05.05-.05.05-.1.05-.05.1-.05.05-.05.1-.05.05-.05.15-.05.1-.05.1-.05.15-.05.05-.05h.15l.1-.05h.25l.1-.05h.2l.2-.05h.3q2.35-1.1 4-2.65 3.8-3.6 4.4-9.75.25-2.85-.3-5.55l-.95-3.35q-1.7-4.55-4.95-7.95l-.8-.8q-.75-.6-2.45-1.4l-3.7-1.45-4.15-.6-5.5.25q-2.5.5-4.9 1.75l-3.55 2.4-2.35 1.75q-.85.8-1.7 2.4l-.25.45.05.05v.6l-.05.1v.1l-.05.05v.1l-.05.05-.05.05v.05l-.05.1v.1l-.05.05v.05l-.05.05-.05.05v.05l-.05.05v.2l-.05.05v.1l-.05.05v.1l-.05.05v.15l-.05.05v.1l-.05.05v.05l-.05.05v.15l-.05.05v.05l-.05.05v.05l-.05.05v.1l-.05.05v.1l-.05.05-.05.05v.2l-.05.05v.25l-.05.05v.1l-.05.05-.05.05v.15l-.05.05v.05l-.05.05-.05.05v.2l-.05.05v.5l-.05.1v.15l-.05.05v.1l-.05.05v.2l-.05.05v.05l-.05.05v.05l-.05.05v.05l-.05.05v.35l-.05.05v.1l-.05.1v.3l-.05.05v.45l-.05.05v.4l-.05.05v.25l-.05.05v.5l-.05.05v.15l-.05.05v.2l-.05.05v.15l-.05.05v1l-.05.05v.35l.05.05v1.15l.05.05v.2l.05.05v.05l.05.05v.45l.05.05v.35l.05.05v.1l.05.05v.35l.05.05v.1l.05.05v.15l.05.05v.1l.05.05v.1l.05.05v.1l.05.05v.15l.05.05v.15l.05.05v.1l.05.05v.15l.05.05v.1l.05.05v.1l.05.05v.15l.05.05.05.05v.1l.05.05v.2l.05.05v.05l.05.05v.1l.05.05v.1l.05.05v.1l.05.05v.05l.05.05v.05l.05.05v.1l.05.05v.15l.05.05v.1l.05.05v.1l.05.05v.15l.05.05v.05l.05.05v.1l.05.05v.15l.05.05.05.05V33l.05.05v.1l.05.05v.15l.05.05v.05l.05.05v.05l.05.05.05.05.05.05v.05l.05.05v.1l.05.05.05.05.05.05.05.05.05.05v.05l.05.05.05.05.05.1.1.1v.05l.05.05.2.2.05.1.05.05.1.1v.05l.05.05.05.05.05.05.05.05.05.1v.05l.1.05.1.1.05.05.05.05v.05l.05.05.05.1.1.05.1.05.05.05.1.05.05.05.1.05.05.05.1.05.15.05.1.1.1.05.15.05.1.05.05.05.15.05.1.05.1.05.1.05.1.1h.1l.05.05h.15l.1.05.15.05.15.05h.05l.15.05.1.05.15.05.1.05.05.1.15.05.1.05.1.05.1.05.05.05h.15l.1.05.1.05.15.05h.1l.05.05h.1l.05.05h.25l.15.05h.15l.1.05.15.05.4.05h.25l.1.05h.15l.1.05h.05l.25.05h.15l.15.05h.15l.15.05.15.05.1.05h.05l.1.05h.05l.15.05.1.05h.15l.05.05h.15l.1.05.05.05h.3l.05.05h.15l.15.05.15.1.15.05.1.05.15.05.05.05.1.05.1.05.05.05.05.05.1.1.15.15v.05l.1.1.05.05v.05l.05.1.05.05v.1l.05.05v.1l.05.05v.2l.05.05v.45l-.05.05v.2l-.05.05v.1l-.05.1v.05l-.05.05v.05l-.05.05-.05.05v.05l-.1.1-.05.1-.05.05v.05l-.1.05-.05.05-.1.05-.05.05-.1.05-.05.05-.15.1-.1.05h-.1l-.05.05h-.1l-.05.05h-.9l-.05-.05h-.1L31 42.6h-.2l-.25-.05H24l-5.5.05h-5.45l-5.95-.05H3.2l-.3-.05h-.1l-.1-.05h-.15l-.05-.05h-.15l-.15-.1-.1-.05-.1-.05-.1-.05-.1-.05-.05-.05-.1-.1-.1-.05-.05-.05v-.1l-.1-.05-.05-.05-.1-.05-.1-.05-.05-.05-.1-.1-.1-.05v-.1l-.05-.05-.05-.05-.05-.05v-.05L.7 41l-.05-.05v-.1l-.05-.1v-.05l-.05-.05v-.4L.5 40.2l.05-.05v-.3l.05-.1v-.05l.05-.05v-.1l.05-.05v-.05l.1-.1.05-.05v-.1l.05-.05.05-.05.05-.05.05-.05.1-.05.05-.05.1-.05.1-.05.1-.1h.1l-.4.4-.35 1.2.45 1.1 1 .65 1.75-.15Q6.1 41.25 7.3 40q1.45-1.5 1.5-3.35l-.4-2.45 1.45.1 1.45.5 2.05-.2q1-.45 1.5-1.35.7-1.25.15-3.15l.85-.2.9-.1q.5-.35.2-.95l-.75-.7-1.7-.15q-.7.3-1.05 1.15-.25.6-.35 1.5-.1 1.3-.55 1.75l-1.95-1.1q-2.05-.85-4.05.3-.65.3-1.05.95-.25.4-.35.95-.2.7-.15 1.35l.1 1.1q.05.65-.4 1.3l-1.05.8-1.55.3-.2.1V37.2l-.05-.05v-8.9l-.05-.05v-2l.05-.05v-.45l-.05-.05V22.9q.8.05 1.7-.55 1.45-.9 2.15-3 .4-1.2.5-3.75l.1-.25.3.05q.6.5.9 1.95l.5 2.45.3 1.1q.45 1 1.6 1.4l2.1-.2q1.4-.65 2.35-2.9l.45-.6.55-.05q.7.25 1.1.9l.45 1.3.5.45q.3.2.6 0 .35-.25.25-1.1-.2-1.4-.6-2.15-.75-1.4-2.2-1.7-1.55-.35-2.6.7L12 18l-.9.85-.45-2.05q-.25-1.6-.8-2.55-.7-1.35-2-1.95-1.4-.65-2.85-.25-.9.25-1.35.8-.75.7-1.15 2.5l-.45 2.75-.25.5v-8.45l-.05-.05V4.2l-.05-.05v-.7q.75.6 2.05.5-.05.65.45 1.75l1.3 1.7q.9.65 2.15.75h1.7l1.75-.65q-.3 1-.3 1.55 0 .85.4 1.45.6.75 1.7.75l1.8-.45q.8-.35 1.05 0v.65l-.05.75.4.25.45-.1.45-.85q.1-1.15-.55-1.85-.8-.9-1.85-.6l-.8.3-.75-.05.35-1.75q.1-1.1-.3-1.75-.8-1.35-2.7-1.15l-1.35.15q-.8.1-1.25-.45l-.3-.75-.15-.9z"/><path fill="#fff" d="M1.7 3.45q-.5-.35-.6-1.05-.15-.65.15-1.2.3-.65 1.1-.95L3.9 0l1.75.55L7 1.8l.35.9.15.9.3.75q.45.55 1.25.45l1.35-.15q1.9-.2 2.7 1.15.4.65.3 1.75l-.35 1.75.75.05.8-.3q1.05-.3 1.85.6.65.7.55 1.85l-.45.85-.45.1-.4-.25.05-.75v-.65q-.25-.35-1.05 0l-1.8.45q-1.1 0-1.7-.75-.4-.6-.4-1.45 0-.55.3-1.55l-1.75.65h-1.7Q6.4 8.05 5.5 7.4L4.2 5.7q-.5-1.1-.45-1.75-1.3.1-2.05-.5M73.6 1.9l.3-.6q.35-.45.95-.55l1.1.15q1 .55.9 1.8 0 .8-.6 1.75l-.15.2q-.95 1.15-2.45 1.7l-2.9.15q-.85-.2-1.2 0-.4.25-.4.8v.95q-.05.75-.65 1.4-.55.6-1.35.8l-3.2-.25h-.6l-.25.4-.2.7-.15.35-.35.05-.1-.25-.25-.45q-.45-.7-.2-1.6.3-.85 1.15-1.25l3-.05q.55 0 .75-.35l.05-.55q-.2-2.25.95-3.3 1-1 2.7-1l1.45.05q.85-.1 1.3-.55zm2.75 17.4q.45 1.3.35 2.25l-.35 1.05-.95.6q-.75.2-1.5-.55l-.85-1.45-.75-1.7-.85 1.5-.65 1.7q-.6 1.05-1.2 1.4l-2.65-.05q-1.15-.6-1.9-2.05-1-1.6-1.3-3.4l-.85 2.55q-.3 1.05-.85 1.35l-.95.15q-.9-.2-1.65-1.2-.5-.6-.55-1.1-.15-.65.25-1.15.55-.55 1.15-.15l.4.55.35.55.8-2.4.45-1 1.15-.8 1-.1q.55.05.9.35l.7 1 .95 2.05q.7 1.5 1.15 1.8.15-1.7.95-3.3.75-1.55 1.95-2.2l1.9-.3q1.05.15 1.75.8.7.7 1.45 2.65zm0 20 .1.35q.4 1.55-.05 2.4-.4.65-1.2.8-.8.2-1.4-.25l-.45-.4q-.45-.65-.75-2l-.85-2q-.95-1.05-1.95-.65l-1 .6-1.65.3-1.5-.25-.8-.75q-.8-1.05-.95-2.4t.35-2.55l-.5-.2-.55.2q-1.1.5-2.15-.2-.6-.45-.9-1.2-.25-.8-.1-1.55.2-1.15 1.05-1.25.35-.05.65.25l.3.6-.15.7q-.15.65.4 1.15.5-.65 1.15-.95l1.5-.15 1 .65.75.85q.3.6 0 1.9-.25 1.35 0 1.9l.25.25.45-.2q.75-.8 1.85-1.2 2.15-.65 4.1.6 2.1 1.35 3 4.65M1.6 38.7l.3-.25.2-.1 1.55-.3 1.05-.8q.45-.65.4-1.3l-.1-1.1q-.05-.65.15-1.35.1-.55.35-.95.4-.65 1.05-.95 2-1.15 4.05-.3l1.95 1.1q.45-.45.55-1.75.1-.9.35-1.5.35-.85 1.05-1.15l1.7.15.75.7q.3.6-.2.95l-.9.1-.85.2q.55 1.9-.15 3.15-.5.9-1.5 1.35l-2.05.2-1.45-.5-1.45-.1.4 2.45Q8.75 38.5 7.3 40q-1.2 1.25-3.25 1.9l-1.75.15-1-.65-.45-1.1.35-1.2zm.2-15.8-.6-.1q-.95-.4-1.2-1.45-.15-1.05.65-1.7L1.5 19l.3-.4.25-.5.45-2.75q.4-1.8 1.15-2.5.45-.55 1.35-.8 1.45-.4 2.85.25 1.3.6 2 1.95.55.95.8 2.55l.45 2.05.9-.85.8-1.05q1.05-1.05 2.6-.7 1.45.3 2.2 1.7.4.75.6 2.15.1.85-.25 1.1-.3.2-.6 0l-.5-.45-.45-1.3q-.4-.65-1.1-.9l-.55.05-.45.6q-.95 2.25-2.35 2.9l-2.1.2q-1.15-.4-1.6-1.4l-.3-1.1-.5-2.45q-.3-1.45-.9-1.95l-.3-.05-.1.25q-.1 2.55-.5 3.75-.7 2.1-2.15 3-.9.6-1.7.55"/><path d="m35.1 6.4-2.15.4q-2.1.6-5.7 3.1-1.5 1.1-2.15 1.8l-.85 1q-1.55 2.15-2.1 3.5-.8 2.15-.4 4.05.35 1.5 1.6 2.75 1.1 1.2 2.65 1.85 1.5.7 4.1 1.15l4.55.8 1.2.3q3.9.7 7.8-.65h.1l.35-.05 3.45-.7q3.8-1.2 5.5-2.7l.75-.4.65-.75.4-.75.25-1.4-.1-2.2q-.3-1.45-1.5-3.3l-.05-.05-.25-.6-.9-1.25-1.9-2.15q-.65-.65-2.25-1.65-2.4-1.6-4.3-2.15L39.5 5.9zm-8.8 32.5q-3.7-1.6-5.3-3.4-2.9-3.15-2.9-9.35 0-5.4 2.15-10.2l-.15-.55-.05-.1v-.1l-.5-1.1-.4-1.6-.25-.5-.85-3.15-.25-.95-.35-2.35.2-1.2.4-.5.35-.25.45-.15 1.2.1 2.15.75 1.65.75 2.7 1.4 1.25.65q3.65-2.3 8.3-2.9l2.8-.2q3.15-.05 5.8.75l1.8.65q1.6.7 3.25 1.95l1.05-.5 2.5-1 1.45-.5 1.65-.6.55-.25 1.75-.7q1.2-.2 1.75.45.6.65.4 1.8l-.2.8-3.6 9.05.25.6q.65 1.5 1 4.1.6 4.85-.7 9.2-1.45 4.7-4.85 7.5-5.25 4.3-15.85 3.9l-5.4-.6q-2.2-.45-5.2-1.7M47.45 16l-.15-.4-.05-.35.1-.35q.2-.55.7-.45l.4.15.25.25.15.4.3.3.3-.2.55-.15h.05l.05-.05.85.2.1.2q.15.35-.1.6l-.3.4-.2.15q-.1.1-.25.15l.05.1.4.45.15.4-.05.85q-.35.55-.85.55l-.65-.1-.4-.25-.4-.85v-.05l-.3.25-.4.45-1.05.2-.4-.3-.2-.5.05-.45.2-.3.3-.2.5-.2.55-.45h.05zm-5.15 1.55.15.5.05.35q.1.55-.35.8-.45.35-.9 0l-.25-.3-.9-1.15-.25-.2-.45-.15-.45-.05h-.6l-.6.2q-.35.15-.65.85.1.6-.45 1.05l-1.15.1q-.65-.35-.55-1v-.65l.1-.4.25-.35.25-.55q.3-.6 1.3-1l2.35-.3.65.1q1.05.25 1.65.8.45.4.55.95zm12.55 11.9-.15-.35q-.45-1-1.4-1.4l-.7-.15q-1.1-.1-1.8.35-.5.25-.95.8l-.3.4-.2.6q-.15.75 0 1.45.25.8.75 1.3l.5.35 1.1.4 1.4-.2q.85-.3 1.35-1.05.8-1.1.4-2.5m-.95.35.2.8q0 .65-.75.95-.75.25-1.2-.35-.35-.4-.25-1 .15-.5.65-.75.8-.35 1.35.35m-21.3 6 2.05-.05 5.4-.25 4.3-.55.75-.3q.4-.5-.15-1.05-.35-.35-1.05-.35h-1.15l-1-.15-2.15.1.05-.35v-.65l-.25-.5-.25-.25-.35-.25-.6-.15v.05h-.1l-.35.05-.2.05-.6.45-.25.7-.05.25.05.35.05.15v.1l-1.8-.05-2.85.15q-.85.1-1.15.35-.6.55-.45 1.25.15.8.95.95zm-3.1-18.75.4.25q.45.4.45 1.05-.1.65-.6.95l-.35.1q-.65.15-1.35-.4l-.25-.2-.6.6-.8.15q-.65-.2-.55-.8 0-.15.35-.75l.4-.45-.15-.15-.4-.45q-.5-.6-.5-.95t.25-.6q.5-.4 1.1-.15l.5.35.5.25.9-1.15.85-.2.7.55q.3.5 0 1.15l-.2.3-.3.2zm-6.05 16.4.7.05 1.55-.25 1.15-.9q.8-1.25.5-2.6l-.2-.6-.25-.45q-.55-.85-1.8-1.2-1.4-.25-2.45.35-1.2.7-1.5 1.95l-.05.5q-.1.9.25 1.5l1.1 1.15q.55.4 1 .5m-.3-3.95q.75-.1 1.1.7.25.75-.25 1.25-.55.5-1.3.25-.7-.35-.7-1.1.05-.45.35-.75.35-.35.8-.35"/><path fill="#fff" d="m35.1 6.4 4.4-.5 4.35.45q1.9.55 4.3 2.15 1.6 1 2.25 1.65l1.9 2.15.9 1.25.25.6.05.05q1.2 1.85 1.5 3.3l.1 2.2-.25 1.4-.4.75-.65.75-.75.4q-1.7 1.5-5.5 2.7l-3.45.7-.35.05h-.1q-3.9 1.35-7.8.65l-1.2-.3-4.55-.8q-2.6-.45-4.1-1.15-1.55-.65-2.65-1.85-1.25-1.25-1.6-2.75-.4-1.9.4-4.05.55-1.35 2.1-3.5l.85-1q.65-.7 2.15-1.8 3.6-2.5 5.7-3.1zm-7.35 5q-.55.75-.65 1.5-.75.15-1.45.6-1 .6-1.55 1.55-1.15 1.8-.6 4.05-.2.95.2 2 .35.9 1.15 1.6.8.65 1.75.85l.75.1h.2l.2.3q.8.95 2 1.1l.85.05 2.4-.25.3-.15q1.55.85 3.5.05.95-.4 1.55-1l1.55 1q1.95.8 3.5-.05l.3.15 2.4.25.85-.05q1.2-.15 2-1.1l.2-.3h.2l.75-.1q.95-.2 1.75-.85L53 21.1q.4-1.05.2-2 .55-2.25-.6-4.05-.55-.95-1.55-1.55l-1.45-.6-.65-1.5q-.65-.9-1.75-1.3l-1.6-.25-.15-.45q-.65-1.3-1.8-1.8l-2.55-.2h-.05l-1.55-.2-1.05.2-.1.05-.1-.05-1.05-.2-1.55.2h-.05l-2.55.2q-1.15.5-1.8 1.8l-.15.45-1.6.25q-1.1.4-1.75 1.3m27.1 18.05q.4 1.4-.4 2.5-.5.75-1.35 1.05l-1.4.2-1.1-.4-.5-.35q-.5-.5-.75-1.3-.15-.7 0-1.45l.2-.6.3-.4q.45-.55.95-.8.7-.45 1.8-.35l.7.15q.95.4 1.4 1.4zm-.95.35q-.55-.7-1.35-.35-.5.25-.65.75-.1.6.25 1 .45.6 1.2.35.75-.3.75-.95zm-21.3 6-1.15.05q-.8-.15-.95-.95-.15-.7.45-1.25.3-.25 1.15-.35l2.85-.15 1.8.05v-.1l-.05-.15-.05-.35.05-.25.25-.7.6-.45.2-.05.35-.05h.1v-.05l.6.15.35.25.25.25.25.5v.65l-.05.35 2.15-.1 1 .15h1.15q.7 0 1.05.35.55.55.15 1.05l-.75.3-4.3.55-5.4.25zm-9.15-2.35q-.45-.1-1-.5l-1.1-1.15q-.35-.6-.25-1.5l.05-.5q.3-1.25 1.5-1.95 1.05-.6 2.45-.35 1.25.35 1.8 1.2l.25.45.2.6q.3 1.35-.5 2.6l-1.15.9-1.55.25zm-.3-3.95q-.45 0-.8.35-.3.3-.35.75 0 .75.7 1.1.75.25 1.3-.25.5-.5.25-1.25-.35-.8-1.1-.7"/><path fill="#717171" d="M27.75 11.4q.65-.9 1.75-1.3l1.6-.25.15-.45q.65-1.3 1.8-1.8l2.55-.2h.05l1.55-.2 1.05.2.1.05.1-.05 1.05-.2 1.55.2h.05l2.55.2q1.15.5 1.8 1.8l.15.45 1.6.25q1.1.4 1.75 1.3l.65 1.5 1.45.6q1 .6 1.55 1.55 1.15 1.8.6 4.05.2.95-.2 2l-1.15 1.6q-.8.65-1.75.85l-.75.1h-.2l-.2.3q-.8.95-2 1.1l-.85.05-2.4-.25-.3-.15q-1.55.85-3.5.05l-1.55-1q-.6.6-1.55 1-1.95.8-3.5-.05l-.3.15-2.4.25-.85-.05q-1.2-.15-2-1.1l-.2-.3h-.2l-.75-.1q-.95-.2-1.75-.85-.8-.7-1.15-1.6-.4-1.05-.2-2-.55-2.25.6-4.05.55-.95 1.55-1.55.7-.45 1.45-.6.1-.75.65-1.5m14.55 6.15-.25-.4q-.1-.55-.55-.95-.6-.55-1.65-.8l-.65-.1-2.35.3q-1 .4-1.3 1l-.25.55-.25.35-.1.4v.65q-.1.65.55 1l1.15-.1q.55-.45.45-1.05.3-.7.65-.85l.6-.2h.6l.45.05.45.15.25.2.9 1.15.25.3q.45.35.9 0 .45-.25.35-.8l-.05-.35zM47.45 16l.3.45h-.05l-.55.45-.5.2-.3.2-.2.3-.05.45.2.5.4.3 1.05-.2.4-.45.3-.25V18l.4.85.4.25.65.1q.5 0 .85-.55l.05-.85-.15-.4-.4-.45-.05-.1q.15-.05.25-.15l.2-.15.3-.4q.25-.25.1-.6l-.1-.2-.85-.2-.05.05H50l-.55.15-.3.2-.3-.3-.15-.4-.25-.25-.4-.15q-.5-.1-.7.45l-.1.35.05.35zM29.5 17.05l.35-.35.3-.2.2-.3q.3-.65 0-1.15l-.7-.55-.85.2-.9 1.15-.5-.25-.5-.35q-.6-.25-1.1.15-.25.25-.25.6t.5.95l.4.45.15.15-.4.45q-.35.6-.35.75-.1.6.55.8l.8-.15.6-.6.25.2q.7.55 1.35.4l.35-.1q.5-.3.6-.95 0-.65-.45-1.05z"/></g></svg>