<svg xmlns="http://www.w3.org/2000/svg" xmlns:ffdec="https://www.free-decompiler.com/flash" ffdec:objectType="shape" width="76.85" height="41.55"><g fill-rule="evenodd"><path fill="#717171" d="m33.2 10.05-.65.3Q34.3 16 35.55 22q.85 4.1 1.1 6.85l-1.25 8.9 6.1-6.45 3.8 7.65 3.4-7.65q.55-.1.95.3l.15.3.1.1.85.85 2 2.45.7.8.3.65.15.75q0 .95-.95 1.3l-.15.1-.05.05-.65 1.4q-.6.7-1.35.55l-.65-.1-1.15.2-1.2.2q-.7-.05-1.2-.5l-1.05.85-1.1-.35-.75-.85-.15.1-.1.05-.05.05-.1.1-.05.05-.15.15-.1.05-.05.05-.05.1-.1.05-.1.05-.1.05-.05.05-.15.05-.15.05-.1.05-.05.05h-.15l-.1.05h-.85l-.1-.05h-.05l-.15-.05-.15-.05H29.35l-3.05-.05h-3.45l-.75-.05h-2.65l-.55-.05h-1.25l-.35-.05h-4.45l-5.5-.05H5.8l-.4-.05h-.75l-.3-.05H3.8l-.65-.05h-.5l-.25-.05h-.2l-.15-.05-.15-.05-.1-.1-.1-.05-.1-.05-.1-.05-.05-.05-.1-.05-.05-.05-.05-.05-.05-.05-.05-.05-.1-.1L1 40.1l-.05-.05L.9 40l-.1-.05-.05-.05v-.05L.7 39.8l-.05-.1-.05-.05v-.05l-.05-.05-.05-.05-.05-.05v-.05l-.05-.1v-.05l-.05-.05v-.05L.3 39.1v-.05L.25 39v-.2l-.05-.05v-.35l-.05-.05V38l-.05-.05V35.1l.05-.05v-18.5l.05-.05V5.45L.15 5.4V3.75L.1 3.7v-.4l-.05-.05v-1.1L0 2.1l.05-.05V1.7l.05-.05v-.1l.05-.05v-.1l.05-.05V1.3l.05-.05V1.2l.15-.15.05-.1L.5.9.55.85.6.8.7.75.75.7l.1-.05.1-.1.1-.05h.1L1.2.45h.05V.4l.1-.05.1-.05.15-.05h.1l.1-.1.1-.05.15-.05L2.2 0h36.25l.75 5.5-10.85-3.15 4.9 7.65zM45.6 4.1 44.8 0h3.4zm-5 30.6-.15.15.05-.05.1-.05h.05z"/><path d="M76.1 13.8q.1 2.65-.45 4.25l-.1.3.8.9q.5.9.5 2.55l-.15 5.65-.5 10.8q-.1 1.8-.55 2.6H51.8q-1.15-1.5-1.05-4.15l-3.5-2.05-2.1-1.6-1.4 2.75-1.3 2.05-1.35 1.45-1.2.85-.7.7h-1.9l-.1-.5q.05-.3.4-.65l.5-.6.4-.75.35-.8.8-1.25.9-1.25 1.3-2.7.1-.15L43 30.15l.3-1.2q.25-.7 1-1.05l1.45-.15 1.2.7 5.2 3.3q.3-.7.75-1.3l1.15-1.4q-1.6-.6-2.85-1.6-1.75-1.4-3.2-3.8-1.5-2.45-2.05-4.6-.55-2.05-.35-5.9.1-2.45.5-3.95.8-3.25 3.7-6.4 1.6-1.75 3.25-2.8h21.7l.05.05q.65.45.85 1.15l.2.6.3.65q.65 1.1.3 2.55L75.2 7.3q.85 2.8.9 6.5m-16.75-.3L59.2 12l-.6-1.15-.75-.95-1.35-.8-1.4-.55-2.6.05q-1.35.35-2.35 1.25-2 1.85-1.85 4.75l.3 1.45.55.85q1.55 2.2 3.85 2.4l1.9-.25q1.7-.45 2.9-1.6 1.35-1.25 1.55-2.85zM55.5 3.55q-1.2.15-1.6 1.25-.45 1.1.3 2 .45.5 1.2.65l1.35-.15.85-1.05q.3-.7.05-1.35l-.85-1.05q-.6-.4-1.3-.3m.1 17.8-.4.35-.4-.1-1-.5-1.1-.1-.7.5-1.35 1.45-.45 1q0 .5.45.8l.9.05.5-.45.65-.7.25-.2q.15 0 .4.15l.75.2.7.45 1.3-.1 1.25-1.45.3-.2.3.2.9.65q.55.35 1.05.35h.4l.75-.05 1.15-1 .95.7.4.2.3.65q.3.7 1.1.8.85.1 1.25-.55.3-.45.2-1l-.4-.85-.35-.3-.7-.75-.75-.5-.9-.65-1.05-.4q-.65-.05-1.4.7l-.5.5-.7-.5-.6-.25Q58 19.9 57.8 19.9q-.6 0-1.2.5zM64.1 5.8q-.8-1.25-2.4-1.25-.95 0-1.65.5l-1 1.3-.2.75q-.15 1.05.5 1.85.7.95 1.85 1.1h.75l.7-.15.4-.2q1.3-1 1.4-2.6zM33.95 8.3q3.65.25 6.3 2.6 2.7 2.4 3.25 5.9.25 1.3.15 3.4-.2 3.6-1.25 5.6-1.8 3.35-5.95 4.75l-2.15.5-.9.15.05 1.9-.05 6.1-.1 1.15-.2.5h-3.85l-.15-.3-.05-.15-.1.1-.3.35H25.4v-.05l-.1.05H6.1l-.3-.35q-.45-.7-.55-1.9-.1-1.3.1-4.95l.75-9.15q.2-1.95-.15-3.05L5 19.35q-.8-2.1.4-3.65 1.2-1.7 3.4-1.35 2 .3 2.75 2.35.45 1.3.1 3.1l-.8 3-.25 2.45-.55 5.3q1.6-2.8 3.8-5.35 3.2-3.75 6.5-5h.1l.2-1.2q.65-2.75 2.65-5.8l-.15-3.35.2-1.45q.25-.85.8-1.25l.8-.3.7-.05q2.9.15 5.6 1.45l.2.15.7-.1zm-.35 8.4-.2.75-.05 1.1q.15 1.4 1.25 2.35 1.1.85 2.5.95l.85-.05 1-.35 1.5-1.3.35-.75.15-.65q.2-1.15-.1-2.1l-.6-.1-.95-.4-1-.8-.5-.55-.25-.4-.2-.25h-.2l-.95.1q-1.1.2-2.35 1.95z"/><path fill="#fff" d="m64.1 5.8.35 1.3q-.1 1.6-1.4 2.6l-.4.2-.7.15h-.75q-1.15-.15-1.85-1.1-.65-.8-.5-1.85l.2-.75 1-1.3q.7-.5 1.65-.5 1.6 0 2.4 1.25m-8.5 15.55 1-.95q.6-.5 1.2-.5.2 0 1.25.55l.6.25.7.5.5-.5q.75-.75 1.4-.7l1.05.4.9.65.75.5.7.75.35.3.4.85q.1.55-.2 1-.4.65-1.25.55-.8-.1-1.1-.8l-.3-.65-.4-.2-.95-.7-1.15 1-.75.05h-.4q-.5 0-1.05-.35l-.9-.65-.3-.2-.3.2-1.25 1.45-1.3.1-.7-.45-.75-.2q-.25-.15-.4-.15l-.25.2-.65.7-.5.45-.9-.05q-.45-.3-.45-.8l.45-1L52 21.5l.7-.5 1.1.1 1 .5.4.1zm-.1-17.8q.7-.1 1.3.3l.85 1.05q.25.65-.05 1.35l-.85 1.05-1.35.15q-.75-.15-1.2-.65-.75-.9-.3-2 .4-1.1 1.6-1.25m3.85 9.95v1.1q-.2 1.6-1.55 2.85-1.2 1.15-2.9 1.6l-1.9.25q-2.3-.2-3.85-2.4l-.55-.85-.3-1.45q-.15-2.9 1.85-4.75 1-.9 2.35-1.25l2.6-.05 1.4.55 1.35.8.75.95.6 1.15zM33.6 16.7l.25-.5q1.25-1.75 2.35-1.95l.95-.1h.2l.2.25.25.4.5.55 1 .8.95.4.6.1q.3.95.1 2.1l-.15.65-.35.75-1.5 1.3-1 .35-.85.05q-1.4-.1-2.5-.95-1.1-.95-1.25-2.35l.05-1.1z"/></g></svg>