<svg xmlns="http://www.w3.org/2000/svg" xmlns:ffdec="https://www.free-decompiler.com/flash" ffdec:objectType="shape" width="71.35" height="38.4"><g fill-rule="evenodd"><path d="m47.8 12.95 1.5-.15q1.3.5 1.3 2 0 1.25-1.15 2.2-.8.65-2.35 1l-.1.05h-.65l-.85-.95-.9-1.7q-.3-1.2.3-1.8.7-.7 1.55-.35l.6.35z"/><path fill="#999" d="m59.95 15.75-.6-1.55-.2-1-.3-3.15.1-1q.1-.55.6-.9.45-.4 1-.45 1.35-.1 1.85 1.1.25.55.15 1.55l-.7 5.2-.15.55-.35.65-.4.4q-.35.05-.65-.45l-.3-.55zm2.45 3.95q-.15.8-1 1.15l-1.5-.2-.55-.75-.15-.6q-.05-.45.25-.85.3-.45.7-.6.95-.3 1.8.35l.4.5q.2.45.05 1m-2.15 17.6h-27.4q-1.1-.75-1.9-1.8l-.7-1.05q-1.55-2.85-1.4-8.5 0-1.45.5-2.05.45-.6 1.3-.6.8 0 1.35.5l.45 1.2.05 1.3q-.05 2.15.15 3.55.25 1.75.9 2.85.7 1.25 1.8 1.95V33.4q.05-1.35.4-2.1l.6-1.15-.05-.05-.25-.8-.9-3.3-.3-2q-.15-1.55.5-3.1.3-.7.8-1.1.6-.45 1.5-.35.75.05 1.45.6l.7.8.3 1.05q.3 2.5.1 4.95l-.05.6.25-.15q2.65-.95 5.6-.85l2.1.25.05-3.95q0-1.45.15-2.1l.3-1.05.35-.8q.5-.7 1.45-.9l1.15-.05.6.1q1.05.15 1.45.75l.25.9q.15 1.25-.5 3.65l-.5 1.9-.25 1.1-.1 1.2-.15.7.2.15q.6-1.15 1.45-2.1 1.6-1.85 3.9-2.75 2.35-.9 4.7-.7l1.05.15.55-.25 1.8-.9.85-.5q.55-.3.95-.25.85.05 1.15.85l-.05 1.45-.1.65-.2.45-.3 1-.15.6.8 1.35q.65 1.15.9 2.45.2 1.15-.1 3.35l-.3 1.4.15.2 1.35 1.75.4.8h-6.4q.75-1 .4-2.45l-.4-.95-.65-.65q-1.15-.65-2.65-.25l-.65.25-.4.3-.7.8q-.55 1.05-.15 2.15zm-4.05-5.55.2.3q-.2.25-.25.55l-.05.45-.2.7q-.05.25.15.5.2.2.45.2.3 0 .65-.35l.65-.85.4-.1.4-.2.5-.1.6-.2.4-.35-.05-.35-.35-.25-.8-.05-.4.1-.45-.1-.05-.1-.25-.65-.3-.5q-.25-.5-.85-.6-.3.05-.55.3t-.2.55l.15.5zm7.5-5.65-.75-.95-.8-.45-1.2-.25q-1.05 0-1.75.65-.75.6-1 1.6v1.2l.1.4q.15 1 .9 1.5l.55.35 2 .3q1.15-.15 1.75-1.05.55-.6.55-1.7 0-.95-.35-1.6"/><path fill="#fff" d="m64.95 37.3-.1.1q-.45.8-1.4.95l-1.55-.1-.7-.2-.95-.75-.5-.8q-.4-1.1.15-2.15l.7-.8.4-.3.65-.25q1.5-.4 2.65.25l.65.65.4.95q.35 1.45-.4 2.45M63.7 26.1q.35.65.35 1.6 0 1.1-.55 1.7-.6.9-1.75 1.05l-2-.3-.55-.35q-.75-.5-.9-1.5l-.1-.4v-1.2q.25-1 1-1.6.7-.65 1.75-.65l1.2.25.8.45zm-7.5 5.65-.2-.6-.15-.5q-.05-.3.2-.55t.55-.3q.6.1.85.6l.3.5.25.65.05.1.45.1.4-.1.8.05.35.25.05.35-.4.35-.6.2-.5.1-.4.2-.4.1-.65.85q-.35.35-.65.35-.25 0-.45-.2-.2-.25-.15-.5l.2-.7.05-.45q.05-.3.25-.55z"/><path d="m40.65 16.6-.95-.4-.5-.3-.45-.8q-.3-1.3.55-1.9.4-.3 1.25-.3l1.2.3q.95.45 1.35 1.6.3.95-.05 2.05-.4 1.15-1.4 1.85-.6.4-1.35.6l-1.6.45-2.95.1-1.3-.25-.45-.35.2-.4.4-.15 1.85-.2 2.55-.55.75-.35zm.6 4.1 3.65-.65.95-.1 1.5-.3 1.5.25q.8.45.7 1.35 0 .85-.8 1.3l-1.05.2h-1.55l-4.85-.45-1.1-.1h-.8q-.5-.1-.5-.5 0-.3.45-.55.7-.35 1.9-.45m.95 5.75-.85-.95q-.2-.2-.65-.3l-2.3-.5-1.7-.15-.35-.15-.15-.35q.05-.25.4-.35l1.15-.2 2.7.1 1.4.4q.7.15 1.25.55.9.6 1.25 1.65.3 1 .05 1.85-.35 1.05-1.2 1.45l-1.1.25-1.15-.25q-.75-.55-.5-1.7l.45-.75.45-.25zM29.65 17.6l-.65 2q-1.65 3.75-6 5.35l-3.8.75.95.25 2.15.4 1.55.35q1.6.1 3.9-1.5l.6-.55.05-.7q-.05-1.2.55-2.25.55-1.1 1.55-1.6 1.05-.55 2.25-.3T34.6 21q1 1.45.2 3.75-.4 1.35-1.2 2.3-.9 1-2.3 1.85l-2.75 1.45q-3.2 1.25-5.6.85l-2.25-.55-2.3-.8-1-.55.05 6.2-.25 2.1H.05L0 37.35q-.1-1.05.9-2.85 4.05-7.7 7.45-11.95-2.2-1.8-3.1-4.25-.9-2.6-.3-6.2.15-1.15.45-2.1l.25-1.35Q6.35 6 7.1 4.2l1.15-2.25Q8.9.85 9.35.5q.95-.75 2-.35l1.1.7 1.45 1.3 1.55-.3 3.8-.2 1.55.3q1 .1 2.15.7Q25.8 4.2 27.6 6.9l1.05-.25 1.55-.15q.6.1 1.05.5.5.45.6 1.05l-.05 1.3-.3 1.7-.9 3.15-.5 1.45q-.1-1.3-1.2-2.1l-.55-.3q-1.45-.6-2.7.2-1.15.75-1.3 2.05-.15.75.15 1.5l.45.75.45.05 1.35.45.85.6.75-.25q.85-.35 1.3-1m-8.05 4.65.9-1.45q.3-1.15.05-1.85l-.4-.85.15-.35.15-.5q.1-.7-.55-.95-.7-.2-1 .35-.15.25-.15.6v.2q-.8 0-1.45.65-.8.7-.95 1.95-.1.95.15 1.5.3.7 1 .95 1.15.5 2.1-.25m-.4-.95-.95.2-.7-.65-.05-.7q.05-.4.4-.9.3-.4.85-.4.5-.05.85.45.3.55.05 1.25zm11.15-4.55L32 16.3l.05-.5.15-.4q.15-.3.5-.4h.6q.25-.55.9-.7.7-.1 1 .45l.1.4-.15 1.1-.4.65q-.7.8-1.25.6l-.5-.25zm-20.1-4.65q-.8 1.65.2 3.15l.2.3.4-.1h1.1l1.85.4.9.5q.65-.4 1.1-1.2.95-1.55.1-3.2-.8-1.45-2.35-1.7-1.6-.25-2.75.8-.5.45-.75 1.05"/><path fill="#fff" d="M30.1 15.65v.6l-.45 1.35q-.45.65-1.3 1l-.75.25-.85-.6-1.35-.45-.45-.05-.45-.75q-.3-.75-.15-1.5.15-1.3 1.3-2.05 1.25-.8 2.7-.2l.55.3q1.1.8 1.2 2.1m-8.5 6.6q-.95.75-2.1.25-.7-.25-1-.95-.25-.55-.15-1.5.15-1.25.95-1.95.65-.65 1.45-.65v-.2q0-.35.15-.6.3-.55 1-.35.65.25.55.95l-.15.5-.15.35.4.85q.25.7-.05 1.85zm-.4-.95.45-.75q.25-.7-.05-1.25-.35-.5-.85-.45-.55 0-.85.4-.35.5-.4.9l.05.7.7.65zm-8.95-9.2q.25-.6.75-1.05 1.15-1.05 2.75-.8 1.55.25 2.35 1.7.85 1.65-.1 3.2-.45.8-1.1 1.2l-.9-.5-1.85-.4h-1.1l-.4.1-.2-.3q-1-1.5-.2-3.15"/></g></svg>