<svg xmlns="http://www.w3.org/2000/svg" xmlns:ffdec="https://www.free-decompiler.com/flash" ffdec:objectType="shape" width="77.7" height="42.2"><path fill="#999" fill-rule="evenodd" d="m45.25 25.7.6.5q.4.45.4 1.1t-.35 1.1l-.75.6-.25.05-.3.05h-.05l-.8-.15-.7-.5-1.9-1.4-1.45-.95-.8-.55-.8.55-1.45.95-1.9 1.4-.7.5-1.15.1h-.1l-.9-.65q-.35-.45-.35-1.1t.4-1.1l.6-.5 4.55-3.1.3-.1v-.05l.15-1.1.1-.6.35-1.3.2-.4.55-.3h.3l.55.3.2.4.35 1.3.1.6.15 1.1v.05l.3.1zm6.45-11.8 1.75 1.3q1.15 1.3 1.15 3.1l-.3 1.8-.85 1.35q-.55.7-1.4 1l-1.6.25-1.5-.05Q47.4 22.4 46 20.9l-.65-.95L45 18.8l-.05-.2v-.15h-.05q-.65-.05-1.05-.65-.6-.75-.25-1.65.4-.9 1.35-1.05l1.1-.05.65-.45.8-1.05.75-1.1.55-.2.5-.1q.3-.05.55.2v.25l-.25-.05-.2.1-.1.25v.35l-.05.1 1.3.1q.65.15 1.15.45M27 38.25q3 1.25 5.2 1.7l5.4.6q10.6.4 15.85-3.9 3.4-2.8 4.85-7.5 1.3-4.35.7-9.2-.35-2.6-1-4.1l-.25-.6 3.6-9.05.2-.8q.2-1.15-.4-1.8-.55-.65-1.75-.45l-1.75.7L54 5.2q-2.35.8-3.55 1.5-1.65-1.25-3.25-1.95-3.3-1.5-7.6-1.4-6.35.1-11.1 3.1l-1.25-.65q-4-2.25-6.5-2.9l-1.2-.1q-.8.15-1.2.9l-.2 1.2q.05 1.4.6 3.3l.85 3.15.25.5.4 1.6.5 1.1v.1l.2.65q-2.15 4.8-2.15 10.2 0 6.2 2.9 9.35 1.6 1.8 5.3 3.4m-.4-24.35q.5-.3 1.15-.45l1.3-.1-.05-.1v-.35l-.1-.25-.2-.1-.25.05q-.15-.1 0-.25.25-.25.55-.2l.5.1.55.2.75 1.1.8 1.05.65.45 1.1.05q.95.15 1.35 1.05.35.9-.25 1.65-.4.6-1.05.65h-.05v.15l-.05.2-.35 1.15-.65.95q-1.4 1.5-2.95 1.75l-1.5.05-1.6-.25q-.85-.3-1.4-1L24 20.1q-.3-.85-.3-1.8 0-1.8 1.15-3.1.75-.85 1.75-1.3M1.6.5h75.6v41.2H1.6z"/><path fill-rule="evenodd" d="M27 38.25q-3.7-1.6-5.3-3.4-2.9-3.15-2.9-9.35 0-5.4 2.15-10.2l-.2-.65v-.1l-.5-1.1-.4-1.6-.25-.5-.85-3.15q-.55-1.9-.6-3.3l.2-1.2q.4-.75 1.2-.9l1.2.1q2.5.65 6.5 2.9l1.25.65q4.75-3 11.1-3.1 4.3-.1 7.6 1.4 1.6.7 3.25 1.95Q51.65 6 54 5.2l3.65-1.35 1.75-.7q1.2-.2 1.75.45.6.65.4 1.8l-.2.8-3.6 9.05.25.6q.65 1.5 1 4.1.6 4.85-.7 9.2-1.45 4.7-4.85 7.5-5.25 4.3-15.85 3.9l-5.4-.6q-2.2-.45-5.2-1.7M51.7 13.9q-.5-.3-1.15-.45l-1.3-.1.05-.1v-.35l.1-.25.2-.1.25.05v-.25q-.25-.25-.55-.2l-.5.1-.55.2-.75 1.1-.8 1.05-.65.45-1.1.05q-.95.15-1.35 1.05-.35.9.25 1.65.4.6 1.05.65h.05v.15l.05.2.35 1.15.65.95q1.4 1.5 2.95 1.75l1.5.05 1.6-.25q.85-.3 1.4-1l.85-1.35.3-1.8q0-1.8-1.15-3.1zm-6.45 11.8-4.55-3.1-.3-.1v-.05l-.15-1.1-.1-.6-.35-1.3-.2-.4-.55-.3h-.3l-.55.3-.2.4-.35 1.3-.1.6-.15 1.1v.05l-.3.1-4.55 3.1-.6.5q-.4.45-.4 1.1t.35 1.1l.9.65h.1l1.15-.1.7-.5 1.9-1.4 1.45-.95.8-.55.8.55 1.45.95 1.9 1.4.7.5.8.15h.05l.3-.05.25-.05.75-.6q.35-.45.35-1.1t-.4-1.1zM26.6 13.9q-1 .45-1.75 1.3-1.15 1.3-1.15 3.1 0 .95.3 1.8l.85 1.35q.55.7 1.4 1l1.6.25 1.5-.05q1.55-.25 2.95-1.75l.65-.95.35-1.15.05-.2v-.15h.05q.65-.05 1.05-.65.6-.75.25-1.65-.4-.9-1.35-1.05l-1.1-.05-.65-.45-.8-1.05-.75-1.1-.55-.2-.5-.1q-.3-.05-.55.2-.15.15 0 .25l.25-.05.2.1.1.25v.35l.05.1-1.3.1q-.65.15-1.15.45"/><path fill="none" stroke="#5f645e" stroke-linecap="round" stroke-linejoin="round" stroke-opacity=".498" d="M1.6.5h75.6v41.2H1.6z"/><path fill="#fff" fill-rule="evenodd" d="M2.7 6.45h8.1V6.3l.05-.05v-1.7l.05-.05v-4h1.85v4.05l.05.05v1.85h16V6.3l.05-.05v-1.7l.05-.05v-4h1.85v4.05l.05.05v1.85h16V6.3l.05-.05v-1.7l.05-.05v-4h1.85v4.05l.05.05v1.85h16V6.3l.05-.05v-1.7l.05-.05v-4h1.85v4.05l.05.05v1.85h5.6l.9.05h4.3v1.85h-1.75v5.05l.05.05v2.05h1.7v1.85h-5.2l-3.3.05h-2.35v5.15l.05.05v1.85h5.6l.9.05h4.3v1.85h-1.75v5.05l.05.05v2.05h1.7v1.85h-5.2l-3.3.05h-2.35v5.15l.05.05v1.25h-1.95v-1.3l.05-.05v-5.1h-6.8l-3.1-.05h-6.25v5.2l.05.05v1.25h-1.95v-1.3l.05-.05v-5.15H30.75v5.2l.05.05v1.25h-1.95v-1.3l.05-.05v-5.15l-16.15.05v5.15l.05.05v1.25h-1.95v-1.3l.05-.05v-5.1H0v-1.95h1.95v-.05l-.05-.05v-.2l.05-.05v-1.7l.05-.05V26.4H0v-1.95h10.8v-.15l.05-.05v-1.7l.05-.05v-5.1H0v-1.95h1.95v-.05l-.05-.05v-.2l.05-.05v-1.7l.05-.05V8.4H0V6.45zm70.6 1.9h-.9l-3.3.05H57.85v5l.05.05v2h14.5l.9.05h.65v-.1l-.05-.05v-.2l.05-.05v-1.7l.05-.05v-5zM58.1 17.4l-3.1-.05h-6.25v5.2l.05.05v1.85h16v-.15l.05-.05v-1.7l.05-.05v-5.1zM55 8.35H39.85v5.05l.05.05v2h16.05v-.05l-.05-.05v-.2l.05-.05v-1.7l.05-.05v-5zm-8.2 16.1v-.15l.05-.05v-1.7l.05-.05v-5.15H30.75v5.2l.05.05v1.85zm26.5 1.9h-.9l-3.3.05H57.85v5l.05.05v2h14.5l.9.05h.65v-.1l-.05-.05v-.2l.05-.05v-1.7l.05-.05v-5zm-18.3 0H39.85v5.05l.05.05v2h16.05v-.05l-.05-.05v-.2l.05-.05v-1.7l.05-.05v-5zM37.95 15.4l-.05-.05v-.2l.05-.05v-1.7l.05-.05v-5l-16.15.05v5l.05.05v2h16.05zm-9.15 9.05v-.15l.05-.05v-1.7l.05-.05v-5.15l-16.15.05v5.15l.05.05v1.85zm-8.85-9.05-.05-.05v-.2l.05-.05v-1.7l.05-.05V8.4H3.85v5l.05.05v2h16.05zm18 18-.05-.05v-.2l.05-.05v-1.7l.05-.05v-5l-16.15.05v5l.05.05v2h16.05zm-34.1-6.65v4.65l.05.05v2h16.05v-.05l-.05-.05v-.2l.05-.05v-1.7l.05-.05V26.4H3.85z"/></svg>