<svg xmlns="http://www.w3.org/2000/svg" xmlns:ffdec="https://www.free-decompiler.com/flash" ffdec:objectType="shape" width="77.05" height="43.6"><g fill-rule="evenodd"><path fill="#999" d="M9.95 1.55 11 .75h.7l.45.4q.25.65-.85 1.55-2.05 1.65-3.4 4.15-1.25 2.45-1.6 5.2-.65 5.2 1.8 10.6.85 2.05 2.2 3.8 1.3 1.65 4.2 3.85 3.5 2.7 5.35 3.65 3.05 1.7 7.6 2.8 5.9 1.45 9.9.8L42.5 36l6.15-2.2q-.5 1.6-2.2 2.7-.95.6-3.3 1.4l-5.35 1.5q-3.35.6-8.6-.15-7.5-1.25-12.15-4.1-2.45-1.55-5.85-4.7l-2.65-2.6q-3-3.65-3.9-10.25-.3-1.7-.3-3.5.05-6.5 5.6-12.55m22.4 29.8 4.75-.1q1.3-.25 3.8-1.35 6.1-2.9 9.85-6.55 4.7-4.5 6.05-10.05.55-2.15.75-5.9.2-3.25-.25-4.8-.45-1.3-.05-1.9.25-.35.8-.4l.9.15Q59.75.95 60 2q.45 1.35.35 4.2-.3 6.45-1.6 10.1-2.2 6.4-9.1 11.9l-3.55 2.45-3.85 1.9q-2.2 1.05-3.85 1.5l-5.55.45q-7.85-.3-13.9-3.85-6.9-4.1-9.2-10.95-.6-1.7-.75-3.6l.15-3.25Q10 5.3 14.65 1.3q.85-.75 1.5-.45.55.4.35 1.2l-.7 1.1Q14.35 4.9 13.15 8.4q-.85 2.55-1.05 4.65-.35 3.65 1.45 7.25 1.7 3.45 4.75 5.9 5.4 4.3 14.05 5.15m8.95-17.9q-.8 1.15-2.4 1.5l-2.9.15-3.3-.4q-1.05-.35-2.15-1.05-1.85-1.25-2.45-2.85-.4-1.1-.25-2.6.2-2.2 1.45-4.15Q30.5 2.1 32.4.9q.7-.5 1.45-.7l2-.2 2.35.2q1.95.35 3.75 1.9l1.45 1.75.4 1.2q.4 1.55.05 3.15-.3 1.6-1.2 2.9l-.65.85zm1.2.3 1.65-2.5q.9-1.55 1-2.9l-.2-2.4-.65-2.55-.4-.85q-.25-.5-.15-.9l.75-.7 1.1.05q1.1.45 1.8 2.55.6 2 .65 3.65.1 2.9-1.4 5.7-1.5 2.65-4 4.35-4.9 3.35-11.4 2.35l-2.9-.75q-2.1-1-3.4-3.25-1.2-2.1-1.5-4.65-.25-2.6.45-5.1.75-2.55 2.45-4.4 1.2-1.2 2.15-1.3l1.2.35q.6.45.6 1.05 0 .65-1.1 1.75-1.9 2-2.35 4.9t.8 5.4q.65 1.25 1.35 1.8 1.15.9 3.2 1.15l5.5-.15q2.95-.65 4.8-2.65M21.75.95 22.6.7q.65.25.55 1l-.45 1.05q-2.5 4.35-2.75 9.35-.1 2.55.6 4.2 1.25 3.1 5.95 5.3 5.95 2.7 11.2 2.3 2.95-.2 5.6-1.4 2.7-1.3 4.5-3.45 1.3-1.55 2.45-4.2 2.75-6.4 1-11.4-.8-2.2.05-2.9.85-.6 1.8.15.55.5.95 1.65.65 1.95.75 4.5.15 7.45-3.9 13-2.1 2.85-5.05 4.7-3.05 1.85-6.45 2.35l-7.35-.3q-5.9-1-9.4-3.2-4.85-3.05-5.8-7.75-.5-2.35.15-6.2 1.3-6.55 4.75-8.5m52.2.7q.4 2.15.25 4.95l-.55 4.95-.8 5.4q-.35 3.25-.9 5.25-1.3 5-5.1 10.5-1.8 2.6-3.35 4.1-3.85 3.8-10.15 5.55-5.05 1.35-11.6 1.25l-1.15-.2-.4-.4-.05-.55q.25-.5 1.2-.5L51.1 41q5.35-1 8.95-3.4 5.75-3.85 8.85-11.9 1.2-3.1 2.05-7.2l1.2-7.45q.7-4.15.45-6.6l-.25-2.5.3-.9Q73 .6 73.4.7q.45.2.55.95M64 2q.45-.7 1.3-.4.6.3.9 1.45.7 2.45.85 4.7.15 1.7-.1 3.7-.5 5.4-3.15 10.45-2.6 4.95-6.75 8.7-3 2.65-5.45 3.6l-1.05.3-.4-.05q-.4-.15-.2-.7l.6-.55q7.3-5.05 10.3-9.8 2.4-3.85 3.6-9.6 1.2-5.9-.3-9.7Q63.6 2.6 64 2m3.7 39.95q1.05-.4 1.7-1l3.05-3.45 2.1-3.2 1.2-3.15.45-.7q.35-.2.7.15.25.25.05 1.1-1.15 3.65-3.4 6.55l-1.65 1.9-2.55 2.2-1.25.5q-.35.1-.6-.15-.4-.3-.1-.6zM38.85 10.1l.95-1.25.45-1.15.05-.7-.2-1.05-.5-.75q-.7-.7-1.75-1.1l-2.3-.3-.75.1-1 .7-.55.4-.7.95q-1 1.7-1 2.75l.2.95.6.6 1.15.7 1.1.3 1.35.15 1.1-.35q1.15-.35 1.8-.95"/><path fill="#999" d="M50.5 24.05q-.05.65.35 1.25l.95.85 1.25.05q.65-.15 1.05-.65l.5-1.15q.05-.7-.3-1.25l-.95-.8-1.25-.1q-.65.15-1.1.65-.4.5-.5 1.15m-2.8 2.1q.9-.55 1.2-1.5.3-.85.2-1.8-.1-1.2-.5-1.8-.75-1.2-2.45-1.3-1.65 0-2.65 1.05-1.2 1.3-.7 3.1.45 1.7 1.9 2.4zM19.6 42.9h-1.05L3.9 42.35q-1.65-.1-2.15-.75-.4-.5-.3-1.35l.3-.95h.35q1.1-.05 2.5-1.55L10.25 32l11.6-11.45q6.6-6.25 12.35-10.6 1.25-.95 2-1.05.95-.2 2.3.45 2.5 1.05 6.1 4l7.55 6.45q1.9 1.8 2.5 2.75 1.15 1.95.85 4.3t-1.85 4q-1.55 1.6-3.9 2-2.3.4-4.4-.5-1.8-.8-4.05-3.25l-3.75-3.7q-1.45-1.2-2.8-1-1.3.15-2.85 2.15l-6.3 6.95-5.15 5.85-1 1.25q-.95 1.25-.4 1.95.2.3.55.35m25.2-12q.55.6 1.35.75l1.5-.2q.7-.4 1-1.2.3-.75.1-1.5-.25-.75-.95-1.2t-1.5-.4q-.75.1-1.35.65-.55.6-.65 1.4-.15.95.5 1.7m5.5-.7q.55.35 1.2.35l1.2-.4q1.2-.85.75-2.3l-.7-1q-.55-.45-1.2-.45-.65-.05-1.2.35-.55.35-.8.9-.3.65-.05 1.4.2.75.8 1.15"/><path d="M56.95 11.85q-.75.15-1.4-.4-.6-.45-.7-1.3v-1L53.3 10.7l-.75.65q-1 .3-1.4-.55-.25-.55 0-1.15l.7-1 1.35-1.4.8-.85.55-.8q.8-.85 1.85-.45l1 1 .55.95 3.7-1.35 1.75-.25q1.1.25 1.5 1.25.4 1.1-.35 1.95-.6.65-1.95.95-2.65.65-3.6 1.15l-.95.65zm-9.25 14.3-3 .15q-1.45-.7-1.9-2.4-.5-1.8.7-3.1 1-1.05 2.65-1.05 1.7.1 2.45 1.3.4.6.5 1.8.1.95-.2 1.8-.3.95-1.2 1.5m2.8-2.1q.1-.65.5-1.15.45-.5 1.1-.65l1.25.1.95.8q.35.55.3 1.25l-.5 1.15q-.4.5-1.05.65l-1.25-.05-.95-.85q-.4-.6-.35-1.25M1.75 39.3q-.7-.1-1.2-.75-.65-.75-.5-1.65.15-.85 1.4-2L15.9 20.55q8.6-8.5 15.2-13.4 2.15-1.7 3.85-2.15 2.65-.75 5.75.6 2.05.95 4.9 3.25l8.05 6.85q3.4 3 4.65 5.25 1.1 2.15 1.25 4.35.25 3.1-1.25 5.95t-4.2 4.45q-2.65 1.55-5.9 1.5-3.25-.1-5.85-1.75-1.55-1-3.7-3.3l-3.45-3.4-.25.25q-1.7 1.75-4.4 5.25L26.2 39.6l-1.9 2-1.45 1.1-1.45.25-.65-.25-1.15.2q-.35-.05-.55-.35-.55-.7.4-1.95l1-1.25 5.15-5.85 6.3-6.95q1.55-2 2.85-2.15 1.35-.2 2.8 1l3.75 3.7q2.25 2.45 4.05 3.25 2.1.9 4.4.5 2.35-.4 3.9-2 1.55-1.65 1.85-4t-.85-4.3q-.6-.95-2.5-2.75l-7.55-6.45q-3.6-2.95-6.1-4-1.35-.65-2.3-.45-.75.1-2 1.05-5.75 4.35-12.35 10.6L10.25 32 4.6 37.75q-1.4 1.5-2.5 1.55zm48.55-9.1q-.6-.4-.8-1.15-.25-.75.05-1.4.25-.55.8-.9.55-.4 1.2-.35.65 0 1.2.45l.7 1q.45 1.45-.75 2.3l-1.2.4q-.65 0-1.2-.35m-5.5.7q-.65-.75-.5-1.7.1-.8.65-1.4.6-.55 1.35-.65.8-.05 1.5.4t.95 1.2q.2.75-.1 1.5-.3.8-1 1.2l-1.5.2q-.8-.15-1.35-.75M16.9 9.45l-1.2-1.3-1.8-1.05q-1.05-.75-1-1.7 0-.8.8-1.35.5-.35 1.05-.25l.9.4 1.8 1.05 1.25.95q.7-1.1 1.3-1.55.95-.75 1.85-.45l.9.65L24.5 7.4l.85 1.3q.45.8.25 1.45-.15.65-.8.95l-1.2-.05-.95-.85-1.35-1.4-.45.75-.45.8q-.6.7-1.35.7-.8.1-1.45-.55z"/></g></svg>