<svg xmlns="http://www.w3.org/2000/svg" xmlns:ffdec="https://www.free-decompiler.com/flash" ffdec:objectType="shape" width="76.3" height="39.45"><g fill-rule="evenodd"><path fill="#999" d="M69.55 11.3q.35-1.05 1.4-1.2t1.65.7q.65.85.1 1.85l-.95.75-1.2-.05q-.55-.2-.85-.85-.3-.6-.15-1.2M63.3 21.8l-.35-.1-.35-.2q-.6-.55-.45-1.2.2-.8.95-.8l.1-.05q.7.1 1.05.6.35.6.05 1.2-.25.65-1 .55M60.15 2l-1.6 3.85-.45-.1-.25-.4q-.35-.85-.35-3.1l.1-.75q.15-.5.6-.75l.95-.2q.5.1.8.5.3.45.2.95M59.1 8.4l-.55.75-.9.2q-.5-.05-.85-.4t-.35-.85q-.05-.5.25-.9.25-.4.8-.5l.9.1.65.65q.2.5.05.95m17.2 17.65v13.4H.7V27.7l-.3-.25q-.65-.65-.3-1.6.2-.6.85-1.05.7-.4 1.05-.5l3.1-.4.85.05q2.4-1.15 5.55-.35 1.95.45 2.75 1.65l.35.8h3.95l1.25-.7 3.05-1 1.6-.15q2.3 0 4.65.7 1.3.4 1.55 1.15h8.65q.25-.3.6-.5l.9-.4.85-.25 1.2-.1 5.9 1 .5.25H50l.6-.3q5.45-2.15 9.65-.8l1.6.45 2.95-.5q4.2-1.35 6.75-1.1 2.05.2 3.25 1.25l.85 1zM13.1 5.25q-.6 0-.9-.55-.35-.5-.1-1.05.25-.65.9-.75h.2q.7-.1 1.05.6.35.65-.05 1.2-.3.65-1.1.55m4.95 1.1q.4-.8 1.3-.8.85 0 1.2.85.2.5 0 1.9l-.15 2.2-.1.95q-.3.6-.8.45-.35-.15-.45-.8l-.3-1.25-.25-.95-.45-1.25q-.2-.8 0-1.3m-9.8 7.95q.95.6.8 1.75-.1 1.1-1.1 1.6l-1.3.05-1.05-.75q-.35-.5-.3-1.25.05-.7.5-1.15.45-.5 1.15-.55.75-.1 1.3.3m10.5.65-.25-.6q-.05-.45.15-.9.55-1 1.6-.75.45.1.8.45l.35.85q.1 1.15-.95 1.5h-.95z"/><path d="M53.35 17.8q-1.15-.5-1.3-1.65-.1-.5.2-1.4l.05-.1-.15-.15-.15-.15-.6-.65-.2-1.25.2-1.3q.3-1.05 1.4-1.45l2.05-.3 1.2.4q.55.4.95 1.15l.25.6q.3-.45.75-.8l.55-.35q.8-.5 1.5-.65 1.25-.3 2.5.6l.7.85.1 1.25q-.2 1.2-1.05 2.15-.85 1-1.95 1.4l-.2.65q-.15 1.55-.8 2.45l-.7.8-2.05 1.7-.9.55-1.05.15q-.7-.15-.9-.75-.25-.55 0-1.15l.15-.35-.05-.4-.3-1.1-.15-.7zm-5-5.6q.1 3.15-1.15 5.45-1.1 2-3.05 3.25l.1 1.35.1.75.6.35q1.65.65 2.25 2.35l.25 1.15.15 1.7q-.15 1.6-2.25 3.5.4.6.3 1.35t-.7 1.25q-.7.55-2.5.5l-.75-.05-.15.2q-.55 1.05-1.15 1.35l-1.6.15-1-.15q-.95.8-2.55.45-1.3-.4-1.75-1.1h-.15l-1.15.3-1.4.2q-1.15 0-1.65-.35l-.75-.75-.4-.8q-.15-.8.45-1.45l-1.1-1.5-.55-1.15q-2.05.65-3.15 1.25l-1.9 1.4.75-.15 1.55-.1q.85.05 1.55.45.75.45.95 1.2.35 1.25-.65 2.15-.8.85-2.1.95l-2.45-.25q-1.15-.1-2.45-.75l-.95-.75q-.35-.45-.35-1.4 0-1.3.15-1.75.2-.5.7-1.15 1.25-1.65 3.6-2.85 1.4-.65 4.4-1.55l.6-.15.4-.8q.8-1.05 1.9-1.65l.95-.85.1-.7.3-.95q.2-.75.5-1.05l-1.3-.95q-1.4-1.25-2.1-2.9-.75-1.8-.55-3.55l.6-2.5 1-1.95.45-.6-.55-.85q-.15-.35-.15-1.25 0-1.1.15-1.65L29.6 3l.35-1 .45-1 1.15-.6q.65-.1 1.25.35l.7.9.9 1.75.7.9 6.15-.2.35-.3 2.15-2.4q.7-1.05 1.2-1.3.45-.15.9 0 .5.15.75.55l.3 1.15.45 1.6.35 1.55.1 1.15.1.8-.05.65.1.65.1.9v.25zm-1.9 2.5.15-.8h-.05l-.2.05L46 14h-.15l-.7-.05-.7-.05h-.05l-.85.45-1.2.55.5.75q.55.5 1.35.55l1.4-.35q.6-.4.85-1.15m9.85-2.5-.05-.1-.35-.4q-.55-.55-1.3-.55-.85 0-1.35.5l-.25.25-.1.45.25.7.2.5.55-.45q.75-.4 2.1-.4h.4zm5.25.65.05-.8q-.4-.75-1.35-.55-.65.15-1.25.8l-.45.7v.15l1.15.65.35.45.35-.1.85-.5zm-1 18.45q.6.5 1.2 0 .65-.4.4-1.15-.3-.75-1-.75l-.1.05q-.35 0-.65.3t-.3.7l.15.5zm-2.8 3.1-4.7.2-2.35-.35-1.05-.45q-.55-.55-.35-1.35.1-.5.7-1.3 1.25-1.45 3.85-2.65l2-.8q1.85-.5 3.5-.05 1.25.25 1.95.85 1 .65 1.3 1.7l.25 1.65q0 1.5-.55 1.95l-1.4.35zM34 15l.2-.45-.35-.1-1.95-.9h-.65l-.35-.05-.3-.05-.35-.05-.15-.05h-.05l-.1.65q.05.75.45 1.3.45.55 1.2.75l1.4-.1zm22.45 16.55.4-.25.25-.35.15-.4q.15-.45-.05-.9l-.65-.7-.95-.1q-.5.1-.8.45-.7.9-.05 1.75l.75.55zm-36.9-8.9q-.7-.25-1-.65h-.5L16 21.6q-1.1-.65-1.25-1.6-.1-.4.15-1.45l.35-.95q.6-.95 2-1.05l2.3.45.45.2.7-.85q.95-.75 2.15-.85.75-.1 1.3.25.95.6.85 2-.15 2-1.85 2.9l-.2.1-.15.65q-.4.95-1.35 1.25-.85.35-1.9 0m1.5-4.1q1.2 0 1.7.85l.45-.6q.5-.8.4-1.7l-1.15-.15q-1.1.3-1.35.9l-.15.7zm-2.4 1.35.55-.75.4-.3v-.3l-.05-.05-1-.45q-1.35-.2-1.8.25l-.45.85-.05.5.35.3 1.3.25h.6zM9.5 32.6h-.35l-.45.4.1.7q0 .45-.35.55-.4.15-.7-.25l-.3-.7-.3-1-.1-.05-.8 1.1-.05.55-.4-.2-.4-1.1q-.1-.45.1-.7l.3-.45.1-.35q-.2-.65-.1-1.45.25-1.4 1.4-2.25l1-.6q1.3-.55 1.85-.55l1.35.25.75.25.75.6q.7.7.75 1.45l-.1.95v.05l.55.8q.4 1.2-.15 2.2l-.3.4-.45.05q-.25-.1-.35-.7 0-.75-.2-1.05l-.05-.05-.6.5v.85q0 .6-.4.9l-.65.25-.45-.05q-.25-.2-.15-.65l.05-.75z"/><path fill="#fff" d="M46.45 14.7q-.25.75-.85 1.15l-1.4.35q-.8-.05-1.35-.55l-.5-.75 1.2-.55.85-.45h.05l.7.05.7.05H46l.35-.05.2-.05h.05zm14.1 16.6-.3-.35-.15-.5q0-.4.3-.7t.65-.3l.1-.05q.7 0 1 .75.25.75-.4 1.15-.6.5-1.2 0m-4.1.25-.95.05-.75-.55q-.65-.85.05-1.75.3-.35.8-.45l.95.1.65.7q.2.45.05.9l-.15.4-.25.35zM34 15l-1 .95-1.4.1q-.75-.2-1.2-.75-.4-.55-.45-1.3l.1-.65h.05l.15.05.35.05.3.05.35.05h.65l1.95.9.35.1z"/></g></svg>