<svg xmlns="http://www.w3.org/2000/svg" xmlns:ffdec="https://www.free-decompiler.com/flash" ffdec:objectType="shape" width="76.3" height="41.2"><g fill-rule="evenodd"><path fill="#999" d="M41.25.15h8.3l7.7.05h1.65l1.3.05h1.9l8.2.05h.3l.55-.05h.9l.4-.05h.25l.15-.05h.2l.1-.05h.1l.05-.05h.9V0h.4l.25.05H75l.2.1h.1l.1.05.2.1.1.05.1.05.1.05.05.05.05.1.1.05V.7l.05.05.05.1V.9l.05.05V1l.05.05v.7l-.05.05.05.05V37.9l-.05.05v1.95l-.05.1v.1l-.05.05v.05l-.05.1v.05l-.1.1-.05.1-.05.05-.1.05-.05.05-.1.1-.1.05-.15.05-.15.05h-.45l-.1-.05-.15.05h-.1l-.1.05h-.3l-.2.05h-.25l-.25.05h-.5l-.4.05H23.8l-6.4.05H5.45l-3-.05H2.2l-.15-.05h-.1l-.15-.05-.15-.05-.1-.1-.1-.05-.1-.1-.05-.1-.05-.05-.05-.05v-.05l-.05-.05-.05-.1v-.3L1.05 40l.05-.05v-.3l.05-.1.05-.05v-.05l.05-.05.05-.1.15-.15.1-.05v-8.75l.05-.1v-19.2l.05-.1V9.9l.05-.05V6.2l.05-.1V2.55H1.3l-.15-.05L1 2.45l-.1-.1-.05-.05-.1-.05L.7 2.2l-.05-.1-.1-.1-.05-.05V1.8l-.05-.05V1.7L.4 1.65V1.2l.05-.05V1L.5.95V.9L.55.85.6.75l.1-.1L.75.6.8.5.9.45.95.4 1.1.35 1.2.3h.1l.05-.05h.55L2.1.2h.2L3.4.15h37.15q-.4.15-.65.6-.25.5-.2 1v.75l.3 1.95q.15 1.1.75 1.95h.3q.6-.85.75-1.95l.3-1.95.05-.7L41.9.75zm6.2 4.45q-.75.15-1.3.85l-2.1 3v.15l.05.05v.1l.6.1 3.05-1.95.5-.6q.85-1.35-.8-1.7M44.7 31.8q2.75-2.25 4.65-5.2 1.4-2.25 2.2-4.75L52 20.2l.15-.75h-.95l-.15-.05h-.1l-.7-.05h-1.9l-.75-.05h-.8l-1.85.05H43.2l-1.15-.05h-.65v.75l.05.1v3.05l.05.05v1.35l.05.05v2.55l.05.05v2.3l.05.05v1.55l.05.05v2.5l.05.05v.35zm7.85-15.05.15-2.65-.15-2.35q-5 1.75-9.2-1.6l-1.95-1.6V9.6l-.05.1v3.5l.05.05v4.65h6.95l1.15-.05h1.45l.1-.05h.15l.35-.05h.9zM34.35 4.6q-1.65.35-.8 1.7l.5.6q1.4 1.15 3.05 1.95l.6-.1v-.1l.05-.05v-.15l-2.1-3q-.55-.7-1.3-.85m-.8 6.6-3.6.35q-.6 1.95-.55 4l.05 2.6v.05l1.25-.05h.4l.3-.05h.7l.8-.05h2.65l.65-.05h.95l.2-.05H38l2.25-.05V8.3q-2.95 2.3-6.7 2.9m-1.9 15q2.15 3.95 5.2 7.25l2.45 2.3.65-.4-.05-.1v-2l.05-.05v-2.05l.05-.05v-1.85l.05-.05v-2l.05-.05v-2.9l.05-.05v-1l.05-.05V20.1l.05-.1v-.7H38l-.65-.05h-.6l-.55-.05h-.65l-2.65-.05h-.8l-.2-.05h-.8l-.4-.05h-1.2q.3 3.75 2.15 7.15"/><path fill="#fff" d="M40.55.15 40.8.1l.1.05.1-.05.25.05.65.6.25 1.05-.05.7-.3 1.95q-.15 1.1-.75 1.95h-.3q-.6-.85-.75-1.95l-.3-1.95v-.75q-.05-.5.2-1 .25-.45.65-.6m6.9 4.45q1.65.35.8 1.7l-.5.6-3.05 1.95-.6-.1v-.1l-.05-.05v-.15l2.1-3q.55-.7 1.3-.85m-13.1 0q.75.15 1.3.85l2.1 3v.15l-.05.05v.1l-.6.1q-1.65-.8-3.05-1.95l-.5-.6q-.85-1.35.8-1.7"/><path d="m59.15 17.3-.15.05-.1.05-.05.05-.05.1-.05.1v.05q.7 1.4 2.15 1.95l.75.2-.35.35-2.35-.15-.05.05-.1.25v.15q.3.6.95.85l2.1-.05q1.65-.85 1.45-2.4l.05-.25-.2-.35q-.25-.3-.65-.2-1.9.45-3.35-.8m6.9.2q-.9.05-1.15.9-.45 1.55 1.15 1.75.65.05 1-.5.9-1.65-1-2.15m-3.5-3.75q5.05-.25 6.9 4.2.5 1.05.55 2.15l3.15-.95q1.75.4 2.55 1.8V32.6q-.9-.35-1.4-1.25l-.55-1-.8.4-1.05-.15-.95-1-.45.1q-1.25.05-1.7-.65l-1.3 1.1.05.35.4 1.8q.65 2.35-.85 4.1l-.7.3-1.25-.25-1.35 1.95-.65.25q-2.05 0-1.95-1.95 0-.9.65-1.6l-.75-.6q-.5-.45-.35-1.15.3-1.5 1.7-2.5l.3-.2-.5-.2-1.4-1.05q-.85.7-1.35 1.7l.05.2v.3l-1.05 1.9-.7.7h-.25l-.1-.15-.15-.3v-.05l-.05-.3.1-.6.05-.05.05-.1.15-.5-.25-.05q-.3.05-.55.2l-.3.15v.05l-.2.15-.05.05-.15.05-.1-.05-.1-.05-.05-.05-.05-.1-.05-.15v-.3l.05-.15q.7-.85 1.7-1.15v-.45q.1-.8.7-1.4.65-.7 1.5-1l-.5-1.1q-.4-1.4-.1-2.55l-.65-.7-.7-1-1.05.1q-2.15-.2-3.45-1.45-1 1.25-2.45 2.15l-1.3.65q-2 .6-2.55-1.2-.15-.5.3-.95l.3-.25q-1.5.8-3.25.8-1.3 0-1.45-1.25-.2-1.35 1.25-1.65l.25-.05q-2.75.05-3.05-2.5-.3-1.65 1.2-2.5l2.05-.1 1.8-.15q2-1.2 3.75-3 .65-.65 1.6-.75 2.45.55 3.7 2.85l1.6 2.25 1.1 1.15q.6-.95 1.5-1.7 1.35-1.1 2.95-1.25M18.15 6.8q4 .2 7.2 2.6 1.75-.7 3.65-1 2.05.5 1.4 2.6l-.25 1.45q-.15 2.8-1.1 5.4-.1 3.45-2.45 6.15l-.2.25.7-.3q3.65-1.5 7.55-2.4l.75-.35q-.55-2.25.3-4.45.65-1.6 2.3-1.75 2.8.25 2.9 3 .05 1.7-.4 3.35-.5 1.75-2.05 2.35l-.9.3-7.65 2.5-2 .65q-3.75 1.5-7.75 2.15l-.5.05-1.25 6.3-.75 3.75-.5 1.65H6.2q-.4-.95.05-2.15 1.6-4.15 4.5-7.55l.7-.8Q9.2 31.7 7.15 33.2l-1.5 1.35-.15.35-.45.55-.05.05q.6 2.65-2.15 3.45-1.05.3-1.9-.4-1.5-1.3-.6-3.1 1.9-3.8 5.7-5.85 3.25-1.8 6.8-2.6l-.4-.15q-1.2-.5-2.2-1.35-3.15-2.95-3.05-7.2.05-3.2 1.6-6.1v-.15q-.2-2.5.55-4.85l.4-.55q.5-.35 1.05-.35 2.5-.2 4.4 1.05zm-3.05 7.9q-1.5.05-2.25 1.4-.75 1.5.3 2.75 1.25 1.55 3.1.7 1.35-.7 1.35-2.2-.05-2.35-2.5-2.65m2.5 5.2-.15.05-.15.05-.05.05-.05.1-.05.05-.05.05-.1.1q-.8.95-.45 2.3.45 1.7 2.25 1.3 1.65-.35 1.55-1.8.75.85 1.65.4.55 0 .9-.45.6-.8.1-1.5l-.15-.05h-.1l-.2.25q-.2.8-1 .85l-.35-.1-.2-.1-.15-.4-.25-.3-.1-.05h-.25l-.1.05-.95.6-1.05-.1-.05-.4v-.3l.05-.2v-.1l-.05-.1-.05-.1L18 20l-.15-.05zm8.3-4.1q-1.35.1-2 1.3-.7 1.3.25 2.4 1.2 1.55 2.95.55.85-.45.95-1.4.35-2.45-2.15-2.85"/><path fill="#fff" d="M66.05 17.5q1.9.5 1 2.15-.35.55-1 .5-1.6-.2-1.15-1.75.25-.85 1.15-.9m-6.9-.2q1.45 1.25 3.35.8.4-.1.65.2l.2.35-.05.25q.2 1.55-1.45 2.4l-2.1.05q-.65-.25-.95-.85v-.15l.1-.25.05-.05 2.35.15.35-.35-.75-.2q-1.45-.55-2.15-1.95v-.05l.05-.1.05-.1.05-.05.1-.05zM25.9 15.8q2.5.4 2.15 2.85-.1.95-.95 1.4-1.75 1-2.95-.55-.95-1.1-.25-2.4.65-1.2 2-1.3m-8.3 4.1.25.05.15.05.05.05.05.1.05.1v.1l-.05.2v.3l.05.4 1.05.1.95-.6.1-.05h.25l.1.05.25.3.15.4.2.1.35.1q.8-.05 1-.85l.2-.25h.1l.15.05q.5.7-.1 1.5-.35.45-.9.45-.9.45-1.65-.4.1 1.45-1.55 1.8-1.8.4-2.25-1.3-.35-1.35.45-2.3l.1-.1.05-.05.05-.05.05-.1.05-.05.15-.05zm-2.5-5.2q2.45.3 2.5 2.65 0 1.5-1.35 2.2-1.85.85-3.1-.7-1.05-1.25-.3-2.75.75-1.35 2.25-1.4"/></g></svg>