<svg xmlns="http://www.w3.org/2000/svg" xmlns:ffdec="https://www.free-decompiler.com/flash" ffdec:objectType="shape" width="70.85" height="39.85"><g fill-rule="evenodd"><path fill="#999" d="m41.45 6.45-1.6-.05q-.75-.55-.6-1.55.1-.8.95-1.35l.75-.2q.5 0 .9.35l.4.6q.45-.4 1.1-.35l1.3.45 3.65 1.5.95.5.6.45 1.2.8.35.4-1.25.05-2.15.2-.95-.1-3.15-.7-1-.4-.75-.45-.35-.5zM45.65 26q-1.05 0-1.5-1.05l-.2-.7.05-.65.7-1q.55-.4 1.2-.4l.95.15.3-.1q1.05-.4 2.05-.55h1.2l.75.05.7-.15 2.25-.2-.25.15-2.9 1.3-1.15.75-2.45.8-.55.95q-.4.55-1.15.65M23.55 6.2l4 .35 3.75.9 2.35.55 1.05.45 1.45.05.8.3Q38 9.35 38.9 10l-1.25-.3-2.3-.15-1.55.1-2.5-.05-1.85-.15-6.1.2-1.65-.2q-1-.4-1-1.6.1-1.15 1.1-1.55zM7 37.55q-1.45 1.1-3.3 1-1.35-.1-1.9-.95-.5-.7-.3-1.75l.15-.8-.25-.1Q.55 34.6.2 33.8q-.45-1.1.2-2.35l1.5-1.9q8.6-8.95 17.1-12.3 3.95-1.5 6.7-1.3 4 .25 6 3 1.15 1.65 1.15 3.8-.05 2.15-1.3 3.7-.8 1.1-1.85 1.3l-1.05-.15-.9.8-3.3 2.4-5.6 3.65-4.6 3.25Q12.8 38.95 11.9 39q-.7.1-1.35-.35-.6-.45-.8-1.15l-1.4.6q-.95.2-1.35-.55"/><path d="m8.45 1.8.3-.1v-.35Q8.85.8 9.3.4t1-.4q.55-.05 1.05.35t.6.95l.05.35h.05q1.65.85 2.15 1.95.3.75.2 1.5-.15.8-.75 1.2l-.8.25q-.4-.05-.6-.45-.25-.4-.05-.8l.2-.4-.25-.35q-1.05-.85-1.8-.85-.45.05-1.25.55-1.15.75-1.25 1.4.4.4 1.1.55l1.25.25q1.75.35 2.6 1.55l.55 1.2q.45 1.45.35 2.05l-.55 1.5q-1.2 1.9-2.75 2.25h-.1q.35.7.2 1.35-.05.8-.85 1.25l-1.35-.05q-.65-.4-.75-1.1l-.05-.75.05-.65L7.3 15q-1.2-.3-1.95-1.45-.55-.7-.4-1.65.15-1 1.1-1.25l1 .2.7.85.35.55.5.1 1.25-.15.85-.9.2-.45-.1-.45-.45-1.05q-.3-.3-1.45-.5-1.5-.2-2.75-1.25l-.8-1-.05-.7q.15-1.3 1.05-2.45.8-.9 2.1-1.65M58.9 11.7l.05.4.4.4.55-.15.2-.6-.1-1.1.4-.1.95-.45.45-.2.5-.5v-.5q-.1-.4-.6-.4l-.8.1-1.1.55-.65-.3-.55-.35H58q-.3.2-.3.45-.05.4.5.75l.6.4v.2l-.05.9zm8.75-.85q.95-.85 1.8-.85.55.05.95.4t.45.85q0 .8-.75 1.3l-1.4.6q-.9.3-1.3.75.1.25-.2.35l-.4-.2-.15-.45.1-.95q.25-1.05.9-1.8m-5.6-7.15q2.1.95 3.25 2.85 1.25 2.35.55 4.95-.4 1.35-1.2 2.4l1.65 2.65q1.35 2.8 1.05 6.05-.4 4.5-3.75 7.4-1.65 1.4-3.7 2.05l-4.2.3-1.45-.4-.2.45-.8 1.8q-.65.8-1.85 1.15l-2.2.15q-1.5 0-2.45-.5-1.25-.7-1.5-1.95l-.05-1.55-.9.1q-.45.25-.65.65l-.2.9q-.05.6-.3.8l-1.2-.05q-.35-.4-.25-1.1 0-1.25.35-2.15.5-1.15 1.45-1.6.5-.25 1.55-.35 1.5 0 2.15.55.85.65.85 2.3.1.65.3.8l.4.15 1 .1 1.2-.3.5-1.35q.1-.75.35-1.35-.8-1.65-.75-3.2.05-1.35 1.15-3.75 1.15-2.45 1.85-3.35l.85-1.2q.4-.75.4-1.4l-.1-.4-.2-.1q-1.15-.5-2.25-1.8l-1.05-1.55-.2.1q-1.45.95-2.95.55l-.85-.3-.7-.45-1-1.25q-.3-.75-.1-2 0-.35.15-.65.3-.75 1.3-1.3l.65-.3 2-.2 1.4.4q.4-1.15 1.2-2.05L54 4.2q-.3-.6-.2-1.35.05-.65.5-1.45.55-.8 1.15-1.05l1.3-.25q1.85.2 2.3 1.55l.1 1.25.35.05q1.35.15 2.55.75m-3.7 2.4q.2.4.7.6t.9 0l.7-.6.15-.95q-.25-1-1.35-1-.45 0-.8.3t-.45.75v.4zM50.9 2.3q.55.85.55 1.5l-.35 1.05-.4.5q-.35 0-.5-.2l-.35-.45-1.05-.8q-.75-.45-.95-.9-.35-.75.1-1.35.45-.7 1.25-.6.9.05 1.7 1.25m-13.05.15.8-.65.95-.3.85-.1q.45 0 1.15.3l1.05.45.9.75.35.4.2.75q.1 1.65-.55 2.4l-.65.6-.7.45-1.45.3-.95-.05-1.3-.55-.95-.7-.4-.7q-.15-.45-.05-1.7 0-.4.15-.7zM42.1 4.2l-.45-.65-.25-.1-1.6-.3q-.35 0-.7.25l-.35.55q-.05.4.2.85l.7.5q.75.4 1.25.25l.65-.25.5-.45zm7.8 11.7q.45.15.9.65l.8 1.7.1.75-.45.55-.7-.25-.55-.55-1-.25q-.5-.2-.8-.7-.25-.55-.05-1.05.15-.5.7-.8zm-6.55 8.2.65.4 1.15.4 1.15-.9.4-.5.3-.65-.4-.55-.95-.6-.35-.1-.4.15-.9.25-.55.5-.15.55q-.2.7.05 1.05m-1.45 1.55-.4-.5-.35-.75q-.1-.5.2-1.3l.3-1.05.2-.5.45-.5q.9-.85 2.2-1.05l2.45.3.3.2h.05q.75.3 1.15 1l.2.5.15.6q.2.95-.25 2.15l-.35.75-.7.55q-1.1.7-2.75.7l-1.25-.2q-1-.25-1.6-.9m11.6-13.2q.75.65 1.6.15.9-.45.7-1.4-.05-.55-.5-.95l-1.05-.3q-.5.05-.9.5t-.4 1q.1.6.55 1m-32.95-2-.75-.25-.85-.55q-.9-.85-.65-2.35.15-.75.65-1.6l.85-1.05q.4-.4 1.3-.7l.7-.25h1.25q1.7.25 2.65 1.1l.45.65q.7.3.85 1.25.15.75-.35 1.7-.55 1.1-1.55 1.65l-2.65.4h-.15q-.8.25-1.75 0m2-1.95h.75l.75-.4.6-.5q.25-.3.15-.75l-.4-.5-.5-.45-1.25-.25-.6.1q-.65.2-1.15.8-.45.65-.45 1.35.75.5 2.1.6m-10.3 29.55q0-1 1.45-2.35 4.75-4.45 8.05-6.1L26 27.8q2.55-1.1 3.95-2.15 2.1-1.55 2.35-3.3.25-1.35-.55-2.7-.7-1.25-2.05-2-2.1-1.15-5.55-.95-3.05.2-5 .85-3.05.95-7.65 4.35-4.75 3.55-9.2 7.25-1.25 1.15-2 .5-.7-.7.4-2.05 5.25-6.45 12.15-11.15 2.2-1.5 3.95-2.25 2.05-.9 4.7-1.3 3.45-.6 6.35-.1l.75-.7q1.4-.95 3.2-1.35l1.65.05.75.4q.3.3.25.7-.1.5-1.2.95-1 .35-1.75 1.15 1.2.6 2.2 1.5l.45-.25 1.9-.4 1.8-.05q.45.15.75.45.35.3.25.7-.05.45-1.05.8-1.25.45-1.7.85l-.4.5.55 1.4 2.1.25q1.2.5 1.2 1.4-.1.65-.6.85l-1.05.1q-.8 0-1.5.4-.25 1.6-1.2 3.2-1.4 2.3-3.8 3.8-1.4.95-4.2 2.1-3.1 1.25-4.25 1.9-2.8 1.5-5.95 4.65-2.15 2.15-3.65 1.6-1.2-.55-1.1-1.7m10.9-19.25q.85.25 1.1 1.1l.05.75q-.2 1.2-1.25 1.35-1.1.25-1.7-.75-.25-.45-.15-1.2.2-.8.8-1.15zm6.05 1.7.05.55-.45.95-.95.45-1-.25q-.5-.35-.65-.85-.15-.55.05-1.05.2-.55.7-.8l1.05-.1q.55.1.9.5zm-7.85 2.3q1.3-.35 2.3 0 1.3.45 1.7 1.5.4 1.25-.55 2.45-.55.8-2 1.55-1.25.65-2 .5-.55-.1-1.3-.75t-1-1.25q-.6-1.3.5-2.65.8-1 2.35-1.35m17.4 7.65-.9 1.25-1.15.25q-.7-.1-1.05-.65-.35-.5-.2-1.2.15-.65.65-1.05l1.3-.5 1.25-.3L40 28.2q.8.2.65.8-.05.35-.65.55zm-11.95-5.2.05-.65q.25-.7 1.05-.9 1-.1 1.4.75.4.9-.35 1.6l-1.6.1q-.45-.3-.55-.9"/><path fill="#fff" d="m58.9 11.7-.15-.5.05-.9v-.2l-.6-.4q-.55-.35-.5-.75 0-.25.3-.45h.6l.55.35.65.3 1.1-.55.8-.1q.5 0 .6.4v.5l-.5.5-.45.2-.95.45-.4.1.1 1.1-.2.6-.55.15-.4-.4zm-.55-5.6-.15-.5v-.4q.1-.45.45-.75t.8-.3q1.1 0 1.35 1l-.15.95-.7.6q-.4.2-.9 0t-.7-.6m-4.85 6.35q-.45-.4-.55-1 0-.55.4-1t.9-.5l1.05.3q.45.4.5.95.2.95-.7 1.4-.85.5-1.6-.15"/></g></svg>