<svg xmlns="http://www.w3.org/2000/svg" xmlns:ffdec="https://www.free-decompiler.com/flash" ffdec:objectType="shape" width="63.95" height="42.35"><g fill-rule="evenodd"><path fill="#999" d="m13.3 17.75.25-2.95q.65-4.3 4-8.35Q19.8 3.8 24.5.15l.35-.15.25.2.1.35-.05.1h2.1V.6h2.65l.35.05.2.1.1.1.1.1.05.05.2-.3.45-.3.55.1q.25.3-.1.95-.35.9-.15 2.55l.2 1.35.2.65 1.25 2.05.35-2.05.25-.6 1.55-2.75q.35-.55 1.25-1.55.8-1 1.55-.9.55 0 .7.5l.05.15h.1V.8l.55.05.3.05.2.1.15.1.5-.2q.45 0 .45.65l-.3.8q-1.35 2.45-.6 4.75l1.2 2.25 1.65 2.5q1.4-.95 2.25-2.55t.8-3.35q0-1.4.6-1.55.55-.2 1.2.7 4 5.65 4 12.95l-.2 2.55-.8 2.4q-1.5 3.7-.95 5.8l.1.35q1.4-1.45 2.15-3.4.7-1.75.75-3.6l-.05-.95v-.15l.1-1.25.25-3.45q.35-1.75 1.15-3.2.1-1.4.45-2.55l.1-.55.2-.65.4-1.4.5-.9 1.55-1.85q.4-.4.65-.45.55-.1.65.3l-.3.8q-.4.65-.6 1.85l-.2 1.85v.9q.3 1.55 1.1 3.5l1.5 4.05q.5 1.8.45 3.25-.05 1.05-.5 2.35-.3 1.25-.75 1.9L59 26.6l-.3.65-.5.4q-.4-.65-.7-2.6-.5-3-1.9-6.05l-.35-.7.15 2.2.25 2.05.15.75q1 4.95.4 7.55l-.75 2.25-.95 2.25q-1.05 2.8-.55 4.55v.05L55 39.9q.45-4 2.95-6.05l.75-2L59 31l.05-1.4.1-.55.55-.1.45.35q1.25 1.6 1.1 3.3l-.2 1.05-.65 2.25L60 38v.5l.05.1v.2l.05.1v.3l.05.1v.1l.1.1v.1l.05.1.05.1.1.15.05.1.1.1v.1l.05.1v.1l.05.1v.6l-.05.1-.05.1-.05.15-.05.1-.15.1-.1.1-.15.05-.1.05q-.4.3-1 0h-5l-.1.1-.75.25q-.5 0-.85-.35h-1.65l-4.95.05h-.95l-.35-.05-.2-.1-.15-.1-.1-.1-.05-.1-.1-.15v-.1l-.05-.1v-.1l-.05-.1.05-.1v-.2l.05-.1.05-.1.05-.1.1-.1.1-.1.15-.1.15-.1h.1l.25-.05h.1l-.05-.25-1-8.7q-.55-4.45-1.05-6.15l-1.55-3.65q-1.15-2-2.55-3.15-2.55-2.1-7-2.35-2.2-.2-3.45.35-1.4.55-2.9 2.4-5.15 6.4-6.05 18.35l-.35 2.1.25.1.2.1.15.1.15.1.1.1.05.1.05.1.1.1v.1l.05.1.05.1v.45l-.05.1v.1l-.05.1-.05.1-.05.1-.05.1-.1.1-.1.1-.15.1-.15.1-.15.1h-.1l-.15.05-.15.05H14.6l-.35-.05-.25-.05h-.5l-5.55-.05-1.7-.05-1.3-.05-.1.25q-.25.75-1 .75-.8 0-1.05-.7l-.1-.95.15-1.1.25-.95 1.5-3.1q.55-1.4.4-2.5l-.2-.9.2-.9q.4-.55.95-.4l.65.4 1.05 1.25 1.05 2.2.35.95q.65-1.8.4-3.6-.2-1.3-1-3.15L7.1 25.85q-1.7-4.6.1-9.2l1.6-3.05 2-2.9.8-.65 1 .15q.45.45-.1 1.65-1 2.5-.3 5.3.35 1.55 1.25 2.95-.15-.65-.15-2.35M46.45.45q.5.65.05 1.6l-.95 1.5q-.3.7-.3 1.4 0 1.05-.35 1.25-.4.3-.95-.15l-.5-.9q-.7-1.95-.4-3l.8-1.25q.55-.65 1.2-.85.9-.25 1.4.4m17.5 20.05-.45 1.7-.3.95-.35.7-.2.6-.05 1.35h-.15l-.2-.55-.6-1.2-.2-1 .05-.4.2-.95.15-.35.1-.35.25-1.4v-.4l-.05-.35.2-1.75.1-.25.6.05.2.65.45 1.05.2 1zM35.7 35.25l-.65.65-1.45.35-1.5-.15-1.1-.5q-1.55-.85-2.2-1.75l-.4-.7-.05-.8q0-2.45.45-3.5.35-.8 1.1-1.65l1.1-.8q.55-.15 1.1.3.45.45.35 1l-.15.6-.45 1.25q-.1.1-.05.25l.3.05q.95 0 1.6.75l.5.55.6.35q.85.4 1.2 1.3.4.85.05 1.75zM9.2 2.4q.2-.15.35 0l.25.35.95 2.35.35 1.85.05 1.15q-.1 1.3-1.3 2.85-1.4 1.75-1.8 2.6l-.9 2.9-.65 1.25q-.7-1.4-.75-2.3L5.8 14l-.05-1.1.1-1.1.6-1.2 1.6-1.95q.95-1.2 1.1-2.2l.05-1.1-.1-2.5zm-8.6 28 .8-2.35V26.9l-.15-2.7-.1-.85.15-.75.45-1.25q.2-.55.5-.35l.1.5v.75q.1 1 .95 2.75.4 1.05.5 3.3l-.05.95-.45 1.65q-.4 1.1-.45 1.65-.15.85.05 2 .2.8 0 1.25l-.7 1-1.25-1.55-.75-1.4q-.3-.7-.15-1.75z"/><path d="M18.1 32.5q.35-5.35 1.3-8.55 1-3.55 3-6.05-.9-.9-.8-3.3.3-3.5 1.35-4.95.9-1.25 2.1-1.25.65-.05 1.15.45t.4 1.1l-.35.75-.5.75-.4 1.2q-.2 1.1.1 2.35l.05.15q1.45-.95 3.15-1.45l1.15-.3q.15-1.45.85-2.9.95-1.9 2.55-3.1.75-.6 1.45-.65l.75.15.5.6q.25.75-.85 1.8-1.6 1.6-1.6 3.2l.1.7.75.1q1.35.2 2.65.75.25-1.05.75-1.95 1.15-1.95 3.2-2.65l2.45.1q1 .55.7 1.25-.15.35-.9.65-1.1.5-1.8 1.5-.65 1.05-.75 2.2v1.1q1.65 1.45 2.75 3.4 1.2 2.15 1.7 5.1.35 2.05.5 5.45l.05 11.95h-3.85q.2-7.95-.25-13.45-.5-5.5-2.9-8.2-2.45-2.7-5.15-2.9l-1.95-.15-.1-.05q-2.35.25-4.3 1.85-2.55 2.1-3.7 6.4-.95 3.3-1.25 9.55L22 42.15h-4.25q0-4.75.35-9.65m17.75-7.6-.2-.95.15-.8q.2-.65.9-1l1.9-.1q.9.4 1.25 1.4.2.8-.2 1.55-.4.8-1.15 1.05l-1.55-.1q-.8-.35-1.1-1.05m.45 5.95q.85.85.95 2.1.1 1.15-.55 2.25l-.8 1.15q-.85.85-1.95 1.15l-1.5.15-1.7-.15-.85-.35L29 37l-.8-.65-1.1-1.5q-.25-.6-.25-1.55 0-1.75.35-3.2.15-.65.45-1.15l.5-.75q1.2-1.55 3.35-3.2.6-.5 1.05-.4h.15q.7 0 .8.65l-.4.9q-.7 1.1-.35 2.35l.9-.55q.7-.25.8.35v.15l.05.1.15.65.75.9zm-9.95-4.1q-1.1-.15-1.55-1.35-.35-1.15.35-2 .6-.8 1.5-.7l.15-.05q1.25 0 1.85 1.2.55 1.2-.25 2.15-.8 1.1-2.05.75m4.1-5.6.2-1q.35-.7 1.1-1.05l1.5-.15q.75.2 1.25.85.5.6.45 1.4 0 .75-.5 1.4l-1.3.75-1.5-.2q-.75-.4-1.05-1.1zm-1 8.3q-.7 1.8-.4 3.65.2.8.55 1.2.55.7 1.8 1.05l1.85.3q1.4-.2 2.1-1.85l.2-.65q.05-.5-.4-1.05l-.85-.75-.9-1.15-.25.75q-.45.5-1.05 0l-.6-1.15-.35-2.05.15-1.05q-1.2 1.15-1.85 2.75"/></g></svg>