<svg xmlns="http://www.w3.org/2000/svg" xmlns:ffdec="https://www.free-decompiler.com/flash" ffdec:objectType="shape" width="75.65" height="42.65"><path fill="#999" fill-rule="evenodd" d="m20.2 42.05-.25-.4-.05-.35-4.45.15-.15.05h-.1l-.15.05-.15.05h-4.15l-.35-.05-.25-.05h-.5l-5.55-.05-1.7-.05-1.3-.05-.1.25q-.25.75-1 .75V37.1l.75-1.55q.55-1.4.4-2.5l-.2-.9.2-.9q.4-.55.95-.4l.65.4L3.8 32.5l1.05 2.2.35.95q.65-1.8.4-3.6-.2-1.3-1-3.15l-1.35-3.05q-1.7-4.6.1-9.2l1.6-3.05 2-2.9.8-.65q.6-.25 1 .15.45.45-.1 1.65-1 2.5-.3 5.3.35 1.55 1.25 2.95-.15-.65-.15-2.35l.25-2.95q.65-4.3 4-8.35 2.25-2.65 6.95-6.3L21 0l.25.2.1.35-.05.1h2.1V.6h2.65l.35.05.2.1.1.1.1.1.05.05.2-.3.45-.3.55.1q.25.3-.1.95-.35.9-.15 2.55l.2 1.35.2.65q.4 1.05 1.25 2.05L29.8 6l.25-.6 1.55-2.75 1.25-1.55q.8-1 1.55-.9.55 0 .7.5l.05.15h.1V.8l.55.05.3.05.2.1.15.1.5-.2q.45 0 .45.65l-.3.8q-.7 1.25-.8 2.45l2.9-2.65h.05Q39.4 1.6 40 .9l1.2-.85h.75L42 0l.2.1.4.35.15.2h1.65V.6h2.65l.35.05.2.1.1.1.1.1.05.05.2-.3.45-.3.55.1q.25.3-.1.95-.35.9-.15 2.55l.2 1.35.2.65q.4 1.05 1.25 2.05L50.8 6l.25-.6 1.55-2.75 1.25-1.55q.8-1 1.55-.9.55 0 .7.5l.05.15h.1V.8l.55.05.3.05.2.1.15.1.5-.2q.45 0 .45.65l-.3.8q-1.35 2.45-.6 4.75l1.2 2.25 1.65 2.5q1.4-.95 2.25-2.55t.8-3.35q0-1.4.6-1.55.55-.2 1.2.7 4 5.65 4 12.95L69 20.6l-.8 2.4q-1.5 3.7-.95 5.8l.1.35q1.4-1.45 2.15-3.4.7-1.75.75-3.6l-.05-.95v-.15l.1-1.25.25-3.45q.35-1.75 1.15-3.2.1-1.4.45-2.55l.1-.55.2-.65.4-1.4.5-.9 1.55-1.85.65-.45h.1v1.6l-.35 1.35-.2 1.85v.9l.55 2.05V27.5l-.3.15q-.4-.65-.7-2.6-.5-3-1.9-6.05l-.35-.7.15 2.2.25 2.05.15.75q1 4.95.4 7.55l-.75 2.25-.95 2.25q-1.05 2.8-.55 4.55v.05l1.05-.05q.45-4 2.95-6.05l.55-1.45v9.5h-4.5l-.1.1-.75.25q-.5 0-.85-.35H67.8l-4.95.05h-.95l-.35-.05-.2-.1-.15-.1-.1-.1-.05-.1-.1-.15v-.1l-.05-.1v-.1l-.05-.1.05-.1v-.2l.05-.1-4.1.15v.45l-.05.1-.05.1-.05.15v.05l-.05.05-.15.1-.1.1-.15.05-.1.05q-.4.3-1 0h-5l-.1.1-.75.25q-.5 0-.85-.35H46.8l-3.15.05H40.9l-.35-.05-.2-.1-.15-.1-.1-.1-.05-.1-.1-.15-1.45.05-2.05.05-.15.05h-.1l-.05.05h-.1l-.15.05h-4.15l-.35-.05-.25-.05h-.5l-5.55-.05-1.7-.05-1.3-.05-.1.25-.15.4q-.3.35-.85.35t-.8-.3M63.6.45q.5.65.05 1.6l-.95 1.5q-.3.7-.3 1.4 0 1.05-.35 1.25-.4.3-.95-.15l-.5-.9q-.7-1.95-.4-3L61 .9l1.2-.85q.9-.25 1.4.4m-6.9 41.1-13.05.4zM5.35 2.4q.2-.15.35 0l.25.35.95 2.35.35 1.85.05 1.15Q7.2 9.4 6 10.95l-1.8 2.6-.9 2.9-.65 1.25q-.7-1.4-.75-2.3l.05-1.4-.05-1.1.1-1.1.6-1.2 1.6-1.95q.95-1.2 1.1-2.2l.05-1.1-.1-2.5q0-.4.1-.45"/><path fill="none" stroke="#039" stroke-linecap="round" stroke-linejoin="round" d="m56.7 41.55 2.8-.1m-21-.05-2.35.15m-2.35.05-11.95.4m-1.65.05-4.2.1m27.65-.2-6.65.2m6.65-.2 13.05-.4"/><path fill-rule="evenodd" d="M42.3 41.45h-3.85q-.2-5.75.05-11.95.15-3.4.5-5.45.5-2.95 1.7-5.1 1.1-1.95 2.75-3.4v-1.1q-.1-1.15-.75-2.2-.7-1-1.8-1.5-.75-.3-.9-.65-.3-.7.7-1.25l2.45-.1q2.05.7 3.2 2.65l.75 1.95q1.3-.55 2.65-.75l.75-.1.1-.7q0-1.6-1.6-3.2-1.1-1.05-.85-1.8l.5-.6.75-.15q.7.05 1.45.65 1.6 1.2 2.55 3.1.7 1.45.85 2.9l1.15.3q1.7.5 3.15 1.45l.05-.15q.3-1.25.1-2.35l-.4-1.2-.5-.75-.35-.75q-.1-.6.4-1.1T59 7.7q1.2 0 2.1 1.25 1.05 1.45 1.35 4.95.1 2.4-.8 3.3 2 2.5 3 6.05.95 3.2 1.3 8.55l.35 9.65h-4.25l-.15-6.95q-.3-6.25-1.25-9.55-1.15-4.3-3.7-6.4-1.95-1.6-4.3-1.85l-.1.05-1.95.15q-2.7.2-5.15 2.9-2.4 2.7-2.9 8.2-.45 5.5-.25 13.45m9.8-11.1-1.7.1q-1.35-.15-2.05-1.25-.8-1.15-.3-2.4.35-.9 1.4-1.5l4.35-.2.75.4q1.4.85 1.3 2.45-.05.75-.5 1.4t-1.1.85zm5.6-4.3q-1.25.35-2.05-.75-.8-.95-.25-2.15.6-1.2 1.85-1.2l.15.05q.9-.1 1.5.7.7.85.35 2-.45 1.2-1.55 1.35m-9.5-1.85q-.3.7-1.1 1.05l-1.55.1q-.75-.25-1.15-1.05-.4-.75-.2-1.55.35-1 1.25-1.4l1.9.1q.7.35.9 1l.15.8zm5.4-3.75-.15.9-1.05 1.1-1.5.2q-.75-.15-1.3-.75-.5-.65-.5-1.4-.05-.8.45-1.4.5-.65 1.25-.85l1.5.15q.75.35 1.1 1.05zm-40.95 21H8.4q0-4.75.35-9.65.35-5.35 1.3-8.55 1-3.55 3-6.05-.9-.9-.8-3.3.3-3.5 1.35-4.95.9-1.25 2.1-1.25.65-.05 1.15.45t.4 1.1l-.35.75-.5.75-.4 1.2q-.2 1.1.1 2.35l.05.15Q17.6 13.5 19.3 13l1.15-.3q.15-1.45.85-2.9.95-1.9 2.55-3.1.75-.6 1.45-.65l.75.15.5.6q.25.75-.85 1.8-1.6 1.6-1.6 3.2l.1.7.75.1q1.35.2 2.65.75.25-1.05.75-1.95 1.15-1.95 3.2-2.65l2.45.1q1 .55.7 1.25l-.9.65q-1.1.5-1.8 1.5-.65 1.05-.75 2.2v1.1Q32.9 17 34 18.95q1.2 2.15 1.7 5.1.35 2.05.5 5.45l.05 11.95H32.4q.2-7.95-.25-13.45-.5-5.5-2.9-8.2-2.45-2.7-5.15-2.9l-1.95-.15-.1-.05q-2.35.25-4.3 1.85-2.55 2.1-3.7 6.4-.95 3.3-1.25 9.55zm8.45-21 .2-1q.35-.7 1.1-1.05l1.5-.15q.75.2 1.25.85.5.6.45 1.4 0 .75-.5 1.4-.55.6-1.3.75l-1.5-.2q-.75-.4-1.05-1.1zm1.5 9.9-2.15-.15-1.1-.85q-.45-.65-.5-1.4-.1-1.6 1.3-2.45l.75-.4q2.4-.95 4.35.2 1.05.6 1.4 1.5.5 1.25-.3 2.4-.7 1.1-2.05 1.25zm3.9-6.15-.2-.95.15-.8q.2-.65.9-1l1.9-.1q.9.4 1.25 1.4.2.8-.2 1.55-.4.8-1.15 1.05l-1.55-.1q-.8-.35-1.1-1.05M17 26.05q-1.1-.15-1.55-1.35-.35-1.15.35-2 .6-.8 1.5-.7l.15-.05q1.25 0 1.85 1.2.55 1.2-.25 2.15-.8 1.1-2.05.75"/><path fill="#fff" fill-rule="evenodd" d="M42.3 41.45q-.2-7.95.25-13.45.5-5.5 2.9-8.2 2.45-2.7 5.15-2.9l1.95-.15.1-.05q2.35.25 4.3 1.85 2.55 2.1 3.7 6.4.95 3.3 1.25 9.55l.15 6.95zm11.3-21-.2-1q-.35-.7-1.1-1.05l-1.5-.15q-.75.2-1.25.85-.5.6-.45 1.4 0 .75.5 1.4.55.6 1.3.75l1.5-.2 1.05-1.1zm-5.4 3.75.2-.95-.15-.8q-.2-.65-.9-1l-1.9-.1q-.9.4-1.25 1.4-.2.8.2 1.55.4.8 1.15 1.05l1.55-.1q.8-.35 1.1-1.05m9.5 1.85q1.1-.15 1.55-1.35.35-1.15-.35-2-.6-.8-1.5-.7l-.15-.05q-1.25 0-1.85 1.2-.55 1.2.25 2.15.8 1.1 2.05.75m-5.6 4.3 2.15-.15q.65-.2 1.1-.85t.5-1.4q.1-1.6-1.3-2.45l-.75-.4-4.35.2q-1.05.6-1.4 1.5-.5 1.25.3 2.4.7 1.1 2.05 1.25zm-19.7 11.1H12.65l.15-6.95q.3-6.25 1.25-9.55 1.15-4.3 3.7-6.4 1.95-1.6 4.3-1.85l.1.05 1.95.15q2.7.2 5.15 2.9 2.4 2.7 2.9 8.2.45 5.5.25 13.45M17 26.05q1.25.35 2.05-.75.8-.95.25-2.15-.6-1.2-1.85-1.2l-.15.05q-.9-.1-1.5.7-.7.85-.35 2 .45 1.2 1.55 1.35m9.5-1.85q.3.7 1.1 1.05l1.55.1q.75-.25 1.15-1.05.4-.75.2-1.55-.35-1-1.25-1.4l-1.9.1q-.7.35-.9 1l-.15.8zm-3.9 6.15 1.7.1q1.35-.15 2.05-1.25.8-1.15.3-2.4-.35-.9-1.4-1.5-1.95-1.15-4.35-.2l-.75.4q-1.4.85-1.3 2.45.05.75.5 1.4l1.1.85zm-1.5-9.9.15.9q.3.7 1.05 1.1l1.5.2q.75-.15 1.3-.75.5-.65.5-1.4.05-.8-.45-1.4-.5-.65-1.25-.85l-1.5.15q-.75.35-1.1 1.05z"/></svg>