<svg xmlns="http://www.w3.org/2000/svg" xmlns:ffdec="https://www.free-decompiler.com/flash" ffdec:objectType="shape" width="36.45" height="28.55"><g fill-rule="evenodd"><path d="M.25 20.4q-.85-6.45 1.3-12.65 1.3-3.6 3.15-5.15 1.15-1.05 2.7-1.4l.4-.05q.15-.2.4-.3.85-.5 2.8-.7l7.3.45q3.45 1.15 5.85 4.55 2 2.8 2.9 6.9l.2.7.3.05 2.4.05q.45-1.3 1.9-2.05l.75-.3.75-.05q1.4.1 2.4 1.1l.3.45.2.5.15 1.2-.35 1.65-.8.95.45.6.3 1.15v1q-.05.55-.5 1.15l-.55.7-.7.5-.8.35-.7.05-1.5-.1q-.8-.25-1.3-.75l-.3-.5-.45-1.05-.05-.6h-.05l-1.85.05q-.75 2.5-2.8 4.5-1.95 1.9-4.65 3-2.9 1.15-8.35 1.7l-3.4.45L5 28.15l-1-.55-1.65-1.5-1.1-2.05q-.7-1.45-1-3.65m31.95-8.15q-.55.3-.9.95-.3.65-.15 1.3H29.9l-1.5.15-.3.2v.05l.05.7-.1 1.35q.25.25.65.3h.7l.65.1.7.1-.1.1q-.3.65-.2 1.35.15.9.85 1.35l.75.25h.05l.8-.05.2-.05q.7-.2 1-.75l.15-.2.3-.85q.15-1.35-.8-2.25l-.3-.2.05-.1q.65-.15 1.15-.9.4-.65.25-1.45-.1-.7-.6-1.15l-.35-.2-.75-.25zM6.55 4.45q-.5.35-1.1 1.45Q4.7 7.35 4.2 9.15q-1.55 5.8-.65 11.5.4 2.7 1.65 3.6.85.6 1.95.55 1.1-.1 1.85-.85.65-.65 1.15-2.2 1-3.4 1-6.8l-.05-2.9q-.2-3.75-.85-5.85-.25-.95-.8-1.5-.5-.55-1.35-.65-.85-.05-1.55.4"/><path fill="#fff" d="m32.2 12.25 1-.15.75.25.35.2q.5.45.6 1.15.15.8-.25 1.45-.5.75-1.15.9l-.05.1.3.2q.95.9.8 2.25l-.3.85-.15.2q-.3.55-1 .75l-.2.05-.8.05h-.05l-.75-.25q-.7-.45-.85-1.35-.1-.7.2-1.35l.1-.1-.7-.1-.65-.1h-.7q-.4-.05-.65-.3l.1-1.35-.05-.7v-.05l.3-.2 1.5-.15h1.25q-.15-.65.15-1.3.35-.65.9-.95m-27.85 3.8.1-.6-.2-.75.2-.9.1-.6q.1-1.05.6-1.85l.25-.3.55-.4.55-.2q.4 0 .95.55l.4.5.15.3.4 1.4-.05 1.35.05.5-.2.6-.35 1.45-.35.8-.75.95-.6.15q-.6 0-1.25-.75l-.3-.4-.1-.6zm1.6-1.5.2 1.35.15.6v.15q0 .25.15.1l.25-2.2q0-1.65-.3-2.2l-.25.3z"/><path fill="#999" d="M6.55 4.45q.7-.45 1.55-.4.85.1 1.35.65.55.55.8 1.5.65 2.1.85 5.85l.05 2.9q0 3.4-1 6.8-.5 1.55-1.15 2.2-.75.75-1.85.85-1.1.05-1.95-.55-1.25-.9-1.65-3.6-.9-5.7.65-11.5.5-1.8 1.25-3.25.6-1.1 1.1-1.45m-.6 10.1.2-1.9.25-.3q.3.55.3 2.2l-.25 2.2q-.15.15-.15-.1v-.15l-.15-.6zm-1.6 1.5.15 1.2.1.6.3.4q.65.75 1.25.75l.6-.15.75-.95.35-.8.35-1.45.2-.6-.05-.5.05-1.35-.4-1.4-.15-.3-.4-.5q-.55-.55-.95-.55l-.55.2-.55.4-.25.3q-.5.8-.6 1.85l-.1.6-.2.9.2.75z"/></g></svg>