<svg xmlns="http://www.w3.org/2000/svg" xmlns:ffdec="https://www.free-decompiler.com/flash" ffdec:objectType="shape" width="55.05" height="37.85"><g fill-rule="evenodd"><path d="m42.15 12.35-.05.05-.65 1-1.05 1.75-.6.85-.75-.15-.05-.05q-.25-.3-.15-.95v-.7l.1-.5q-.95.55-1.4 1.95l-.45 2.35-.1.4q-.55 2.2-2.3 3.75L33 23.3l-.15 1.6-.35 1.65-.85 1.3q-.9.9-1.6 1.1-1.1.35-1.8-.4l-.35-.6-.4.15-2.8-.05q-1.4-.55-2.25-1.75l-.6-1.3-.3-1.4q-.05-.9.15-1.7l.4-1.15.75-1.2-1.95.2h-.45l-1.7-.4-.65-.35-1.3-1.25-.65-1.05-.2-1.2.1-1.05.2-.55q.35-.85 1.3-1.25l.65-.15q.95-.1 1.7.55 1 .95.7 2.2.8.55 1.45.6l.9-.1-1.5-1.55q-1-1.6-.85-3.85.05-.9.35-1.7l-.35-.4-.6-1.3-.3-.4q-.15-.2-.15-.6-.1-.45.15-.85l.2-.3.15-.1.3-.25.35-.05 1.35-.05h.2l.7.1.2.1V4.3l.05-.55.1-.4-.05-.4.15-.8.25-.85.15-.65.2-.3q.1-.2.35-.2l.1-.05q.45.05.6.6l.75 2.5.1.75 1.9-.35 2.6.4v-.1l.2-1.65.45-1.35.05-.35q.1-.6.6-.5l.05-.05q.4 0 .6.5l.15.8.45 1.4.1.45.05 1.35 1.4-.35q1.1-.1 1.5.45.35.5.05 1.4l-.7 1.25-.45 1.25.25 2.4-.45 1.65q-.35 1-1.05 1.8l-.8.9-1.05.8.25.75.2 1.55.05 1.15.4 1.35.05.15.15-.15 1.45-1.95.1-.35.4-1.55.5-2.55.35-1.05.05-.15q.4-.95 1.2-1.55l.9-.65-.25-.3-.1-.15q-.2-.35-.05-.7.15-.65 1-.65l.5.1.7.25.85.5.2.15q.6.35.9.8.7.55.55 1.3M29.6 9.5l.7.7 1 .05.75-.55.25-.95q-.05-.5-.45-.85-.45-.35-.95-.4-.7 0-1.2.65-.45.7-.1 1.35m-7.3.1q.05.5.5.8l.8.3h.1q1.15-.1 1.3-1.2.1-.5-.2-.9-.3-.45-.75-.6l-.95.05-.1.1-.6.55-.15.5zm-2.85 4.2-.2.2v.15l-.05.1.05.1.35.35h.1l.1-.05h.1l.1-.1.1-.35q0-.45-.4-.45v.05zm.1 1.65-.25-.35-.2-.1-.45-.15-.1.05q-.4 0-.7.3-.3.35-.3.75.15.65.7.9.65.25 1.1-.2l.25-.35q.2-.4-.05-.85m-2.2-.45-.4-.35v.05l-.2.05-.1.05-.1.05-.05.2.05.25.35.2h.05l.3-.15v-.1l.1-.1zm1.4-1.35-.05-.2-.25-.25h-.5l-.15.05-.1.15-.1.35.05.2.3.3.3.1.4-.25zm8.1-3.1-.4.55q-.35.55-.95.45l-.5-.05q-.35.2-.15.6l.5.35h.8l.3.55.8.2 1.05-.4.35-.35.05-.05.8-.3.3-.35-.05-.45-.45-.1-.5.1q-.45.05-.9-.3l-.5-.4z"/><path fill="#fff" d="M29.6 9.5q-.35-.65.1-1.35.5-.65 1.2-.65.5.05.95.4.4.35.45.85l-.25.95-.75.55-1-.05zm-7.3.1-.05-.4.15-.5.6-.55.1-.1.95-.05q.45.15.75.6.3.4.2.9-.15 1.1-1.3 1.2h-.1l-.8-.3q-.45-.3-.5-.8m-3.55 4.05-.1.45-.4.25-.3-.1-.3-.3-.05-.2.1-.35.1-.15.15-.05h.5l.25.25zM17.35 15v.15l-.1.1v.1l-.3.15h-.05l-.35-.2-.05-.25.05-.2.1-.05.1-.05.2-.05v-.05zm2.2.45q.25.45.05.85l-.25.35q-.45.45-1.1.2-.55-.25-.7-.9 0-.4.3-.75.3-.3.7-.3l.1-.05.45.15.2.1zm-.1-1.65h.25v-.05q.4 0 .4.45l-.1.35-.1.1h-.1l-.1.05h-.1l-.35-.35-.05-.1.05-.1V14zm7.4-3.25.55.05.5.4q.45.35.9.3l.5-.1.45.1.05.45-.3.35-.8.3-.05.05-.35.35-1.05.4-.8-.2-.3-.55h-.8l-.5-.35q-.2-.4.15-.6l.5.05q.6.1.95-.45z"/><path fill="#999" d="m40.7 10.25 1.05-1.45q.7-.8.95-.9.85-.35 1.4.2.65.5.4 1.35l-.5.8-1.85 2.1q.15-.75-.55-1.3-.3-.45-.9-.8M39 15.8l-1.9 2.15.45-2.35q.45-1.4 1.4-1.95l-.1.5v.7q-.1.65.15.95M21.85 25l-.2-.25-2.9-5.4 1.7.4h.45l.8 2.15q-.2.8-.15 1.7zm-5.6-11.1-.55-1.3q-1.15-2.75-1.9-3.85-.95-1.4-1-1.9t.25-1l.8-.75L14.9 5q.6.1.95.5l.55 1.2.25 1.4.55 1.85 1 2.55-.65.15q-.95.4-1.3 1.25m3.65-9.1-.6-1q-.4-.65-.25-1.25.15-.75.85-.9.7-.25 1.2.25l.65 1.2.3 1.25-1.35.05-.35.05-.3.25zm15.25 6.1 1.8-3.5q.65-.75 1.5-.4.95.35.85 1.3l-.35 1v.05l-.5-.1q-.85 0-1 .65-.15.35.05.7l.1.15-.65.95q-.8.6-1.2 1.55l-.05.15-1.55 2.15-1.9 2.8-.2-1.55.05-.25.4-.75.35-.55.8-.9q.7-.8 1.05-1.8zm-.3 12.6 1.35-1.75 1.8-2.2 2.35-2.9.8-1.3q.55-.75 1.25-.75.85 0 1.15.95.15.85-.5 1.45l-.45.3-5.8 5-.65.75q-.65.5-.8.7l-.3.3q-.2.2-.4 0-.05-.3.2-.55m13.2-9.5q-.95-.25-1.1-1.2 0-.7.4-1.1.45-.45 1.05-.4.75 0 1.2.8.35.75-.2 1.4-.5.65-1.35.5m-2.1 6.1-.25.55-.65.55q-.8.3-1.5-.3-.6-.65-.35-1.45.25-.85 1.15-1 .85-.15 1.4.65.3.45.2 1m-33.4-9.2-4.7-6.55-.3-.5q-.25-.75.35-1.2l1.1-.2.85.7L12 7.95l1.25 2.65.05.45-.25.3-.3-.15zm-2.2 4.25q-.9-.7-.55-1.9.35-1.1 1.55-1.2 1.15 0 1.65 1l.25.75.45.95 1.75 3.05 4.15 6.7.15.45q.1.35-.2.35-.2.05-.45-.2l-3.75-4.3-3.1-3.95-.85-1.1zm-9.7-6.7h.2L.9 8.4q.8 0 .9.8.1.7-.65 1-.75.2-1.1-.5L0 9.1l.4-.5q0-.05.25-.15m4.8 8.8.4-.1q.55-.1 1.05.25.6.55.45 1.35t-1 1.05q-.75.15-1.35-.45-.5-.7-.2-1.4.15-.45.65-.7m5.55 5.5 2.35 2.15 1.6 1.9.45.7q.1.6-.3.75h-.45l-.85-.35-5-3.35-.8-.7q-.35-.45-.3-1.05.05-.65.45-1.05t1.05-.4q.6-.05 1.05.35zm-.65 7.2-.55-.15q-.75-.35-.65-1.1-.05-.4.3-.85.45-.35.85-.35.9 0 1.15.9.15.8-.55 1.35z"/><path d="M51.95 25.1q.85 1.45 1.15 3.05.25 1.4-.15 4.15l-.35 1.75.2.2 1.65 2.2.6 1.4H7.8Q6 36.8 4.8 35.2l-.85-1.3Q2 30.4 2.2 23.35q0-1.8.6-2.55.6-.7 1.65-.75 1 0 1.65.65.45.55.6 1.45l.05 1.65q-.1 2.65.15 4.4.35 2.2 1.15 3.55.85 1.55 2.25 2.4l-.05-1.55q.1-1.65.5-2.6l.75-1.45-.05-.05-.3-1q-.8-2.4-1.1-4.1l-.4-2.45q-.2-1.95.65-3.85.35-.9.95-1.35.75-.6 1.85-.45.95.05 1.8.75l.9.95.35 1.35q.4 3.1.15 6.1l-.1.75.35-.15q3.3-1.2 6.95-1.05 1.3.05 7.85 2.1l.25.15q.75-1.4 1.8-2.6 2-2.25 4.85-3.4 2.9-1.1 5.85-.85l1.3.2.7-.35q1.3-.5 2.2-1.1l1.05-.65 1.2-.3q1.05.1 1.4 1.1l-.05 1.8-.1.75-.25.6-.4 1.2-.2.75zm-14.3 5.45.6.6q-.6.75-.7 1.75t.4 1.7l.85.65.95.3q.65.1.9-.45T40.4 34q-.35-.35-1.05-.6-.15-1.1.6-1.8l.25-.2.4-.2.35-.55-.1-.6q-.2-.3-.95-.4l-1-.15q-.45-.25-.55-.8 0-.55.35-.9l.45-.65q0-.35-.45-.35l-.55.2-.55.35q-.35.4-.45 1.45-.1.75.1 1.25zm8.75 4.75q.55.2.95-.2.4-.3.2-.9-.15-.35-1.3-.85l-.4-.25.5-.5.45-.5q.3-.35 0-.65l-.9.05-1.1.9q-.9-.6-1.65-.55l-.45.2q-.25.25-.1.45l.5.3.6.4.2.15-.8.95-.3.55q-.15.55.3.9l1-.05.95-1.45.7.6zm.45-9.4-.5-.3-1-.5-.65-.2.25-.75.4-.85q0-.55-.45-.7l-.8.1-.4.75-.3 1.15-.95-.4q-.7-.2-1.15 0l-.45.4-.1.55q.15.45.6.55l.85.15.8.05-.25.9-.05.55.35.45q.4.15.75-.55l.55-1.2 1.7.25h.55q.35-.1.25-.4"/><path fill="#999" d="M41.4 2.3q.7-.3 1.4 0l.65.7v.15l.05.35-.05.35-.05.2v.05l-.55.75-.85.4-.65.2-.2.05q-.3.45-.75.25l-.6-.55-.55-.2q-.6-.2-.85-.9-.15-.65.25-1.2.2-.25.7-.55l1.4-.15.45.25z"/><path fill="#fff" d="M46.85 25.9q.1.3-.25.4h-.55l-1.7-.25-.55 1.2q-.35.7-.75.55l-.35-.45.05-.55.25-.9-.8-.05-.85-.15q-.45-.1-.6-.55l.1-.55.45-.4q.45-.2 1.15 0l.95.4.3-1.15.4-.75.8-.1q.45.15.45.7l-.4.85-.25.75.65.2 1 .5zm-.45 9.4-.65-.45-.7-.6-.95 1.45-1 .05q-.45-.35-.3-.9l.3-.55.8-.95-.2-.15-.6-.4-.5-.3q-.15-.2.1-.45l.45-.2q.75-.05 1.65.55l1.1-.9.9-.05q.3.3 0 .65l-.45.5-.5.5.4.25q1.15.5 1.3.85.2.6-.2.9-.4.4-.95.2m-8.75-4.75-.4-.5q-.2-.5-.1-1.25.1-1.05.45-1.45l.55-.35.55-.2q.45 0 .45.35l-.45.65q-.35.35-.35.9.1.55.55.8l1 .15q.75.1.95.4l.1.6-.35.55-.4.2-.25.2q-.75.7-.6 1.8.7.25 1.05.6.5.55.25 1.1t-.9.45l-.95-.3-.85-.65q-.5-.7-.4-1.7t.7-1.75z"/></g></svg>