<svg xmlns="http://www.w3.org/2000/svg" xmlns:ffdec="https://www.free-decompiler.com/flash" ffdec:objectType="shape" width="77.5" height="42.9"><g fill-rule="evenodd"><path fill="#717171" d="m18.1.6 1.15-.6q.75-.1 1.2.35.55.45.45 1.1l-.55.95-.95.6q-.05.4.35.9L20.5 5q1.1-.15 1.8.8l.2.55v.4l.1.6-.45.85-.5.5-.35.2-.4.65-.6 1.25-.25.35-.4.1-.25-.3.05-.45q.3-1.1.75-2.05l.6-.65.4-.15.55-.45-.8-.7-.5-.05-.6-.25-.45-.4-1.35-1.5-.95-1.35q-.45-.85.05-1.6zm41.35 23.95.8.75.65-.1 1.35-.5.9-.6.25-1q.25-2.3 1.6-4.1.6-.8 1.1-.95l.85-.05.85.1 2.5-.5 2.15-.1.85-.15.1-.6-.25-1.5.3-.9.35-.9q.15-.7-.35-1.9Q72.5 9.4 70.5 7.9l-3.2.45-2.85.05q-1.6-.3-2.6-1.7-1.05-1.4-.85-3l-.15-.8-.6-.15-7.45.45q-.95.1-1.1.5l.15 1.05q.2 1.15-1.15 2.1-1.3.85-3.45.85h-3.6l-2.5-.05Q40.6 7.4 40 6.6l-1-1.2q-1.4-1.05-3.9-.2-2.2.75-3.95 2.35-.75.6-.95.15-.15-.25.15-.55 1.3-1.85 3.35-2.95T38 3q2.05 0 2.9.9l.55.65.65.45 1.45-.15h1.2l1.15.2 3.4-.35q-.4-2.35.7-3.5.9-.95 3.5-1.05L59.55 0q2.7 0 3.5 1.1.4.55.65 2.15.15 1.5.75 2.05 2.6-1 4.85-1.35l2.55.05 1.75 1.25 2.3 2.5q1.05 1.5 1.4 3.15.45 1.55 0 2.8l-.7 1.45q-.5.85-.6 1.45l-.05.9-.2.9q-.45 1.2-2.05 1.3l-2.55-.15-4.3.2Q65.7 21 65.45 22.7l-.3 1.65q-.45 1.05-2.55 2.1l-2.15.45q-.85-.15-1.8-1.2l-1.7-1.65-3.15.4q-1.1-.1-1.1-.75-.1-.7.9-.8l1.3.05.9-.3.85-.3q.9-.15 1.7.65zm-26.65-5.6q-.25-1.9.95-3.4-.8-.9-2.1-.55-1.05.2-1.85 1.25-.9 1.9-1.7 2.5t-1.9.45q-1.05-.2-1.75-.95-.65-.7-.8-1.8-.15-1 .15-2 .5-1.7 2.35-3.25 3.25-2.7 6.7-2.35 2 .15 3.9 1.45l2.05 1.5.7.25.55-.25q.9-.5 1.95-.3 1.05.25 1.8 1.05 1.35 1.5.9 3.8-.4 1.85-1.95 3.55l-2 1.75q.9.85 1 2.15.05.75-.45 2.05-1.35 3.55-3.4 5.15-1.05.8-2.8 1.5-3.35 1.45-5.6 1.15l-2.95-.95q-1.75-.65-2.7-1.3-1.5-1.05-1.95-2.3-.6-1.65.35-2.9.65-.8 1.75-.85 1.15-.05 1.85.65.35-1 1.65-1.55l2.25-.55q1.9-.45 3.45-1.7l.9-.75q-1.05-1-1.3-2.5m37.7 14.4q-.1.7.25 1.35.3.7.95 1.05l1.6.35 1.6.4q1.1.65 1.6 2.85l.25 2q-.2 1.25-1.2 1.5l-1.05-.1-.75-.7q-.5-.75-.5-2-.1-1.25-.35-1.55-.25-.4-.95-.65l-1.15-.45q-.45-.2-1.2-1.2-.55-.85-.45-1.3l.5-1.05-.15-1.3q-.3-.85.3-1.2-1.1-.55-2.35-.45-1.3.1-2.3.8-.6.4-1.95 2.1l-1.95 2.7-1.05 1.1-1.65.3-3.05.5q-1 .3-1.35.65l-1.1 1.45q-1.05 1.55-3 2.05-2 .45-3.65-.45l-.4-.45q-.05-.5.95-.5 1.55 0 2.75-1.1l1.25-1.65 1.15-1.45.2-.45q.7-1.5-.05-2.35l-2.5.3H48.2l-1 .25-3.95.4-1.15-.2-.3-.1-.9.55-5.3 2.85.45.75q.35.45.15 1.05l-.65.95q-.8.55-2.2.45l-1.15-.1h-1.15l-1.65.5-2.25.4q-.5 0-.65-.25-.1-.35.15-.5l.45-.3q3.1-1.1 6.15-2.1v-1.8q-.05-1.1.3-1.65l1.1-.85q3.6-1.85 6.2-2.6l.1-.2q.35-.6.9-.85l1.05-.1q.4.15 1 .6l1.3.05-.25.4.8-.1 1.6-.3 2.25-.05 2.3-.4q1.45-.2 2.1.75l.4 1.15.2 1.7-.25 1 .75-.15 3.05-.15 1.15-.1.5-.45 3-3.65q1.95-2.05 4.05-2.3l2.65.25q1.95.4 2.2 1.6.15.65-.3 1.35zm-53.4-18.2-.5 1.7q-.1 1.1 1.15 2.45 1.25 1.25 2.6 1.95l.5.4q.2.4-.1.55l-.5-.05-2.05-1.05-1.85-1.8q-1.45-1.55-1.65-2.7l.05-1.3V14l-.7-2.1L13 9.85l-.45-.6q-.4-.2-.9.2l-.65.8q-.9 1.1-2.45 1.25t-2.7-.75T4.3 8.4t0-2.85q-.5-.35-2.15-.9Q.75 4.05.4 3.2.05 2.6.3 1.8q.2-.75.8-1.2Q2.2-.25 3.8.1q1.3.35 2.5 1.45 1 .85 1.45 1.95.55 1.2.2 2.3l-.35 1q-.15.6.15.95.45.6 1.35.2l1.25-.8q.85-.5 1.95-.4t1.85.8q.75.6 1.7 2.6l1.1 2.45q.5 1.45.15 2.55M6 25.9l-1.65 1.35q-1.5 1.2-2.4 1.35L.9 28.55q-.6-.3-.8-1.1-.3-.9.2-1.85.45-.85 1.45-1.1l1-.2q.65-.2.9-.55l.1-.8q0-1.6.15-2 .4-.95 2.05-1.65 1.25-.55 2.1-.6 1.3-.1 2.05.65l.7 1.3.55 1.35q.55-.05 1.55-.65l.5-.2.2.05.05-.05 1 .45.85 1.25.45.45.45.3 1.9.65 1.6.3.55.25-.9.3-1.95.25-1.5-.2q-.95-.2-1.25-.6l-.35-.9-.25-.55-.75-.8-1.5.8-.95.15q-.85-.15-1.6-1.15l-.7-.65-1.25.15q-.45.15-.75.45l-.2 1q.1 2-.55 2.85m1.7 10.75q.55-.35.75-1.45l.05-1.65q.1-2.05 1.45-3.7 1.35-1.7 3.35-2.2l2.35.2q.65.35 1.4 2 .7 1.6.8 2.45l.3 1.15.85.75.2-.3q.3-.85 1-1.4.75-.6 1.6-.7.9-.1 1.7.4.85.5 1.1 1.35t-.15 1.7q-.45.9-1.3 1.15l-1.05.3-.8.6q-1.45 1.2-3.2.55l-1.6-1.05q-1.15-1.05-1.6-2.1l-.55-2-.75-1.9q-1.15.3-1.95.95-.95.75-1.15 1.75l-.1 1.7q.1 2.25-1.15 3.2l-1.8.65-2.1-.05H3.8l-.7.45-1.05.85-.45.15q-.2-.1.1-.7l.35-.9q.25-.85.9-1.2.6-.4 2-.5L6.3 37z"/><path d="M23.95 10.95q1.5-4.35 4.75-5.8 1.45-.7 3.25-.8 2.9-.15 5.3 1 2.6 1.3 3.85 3.65.9-.5 2.05-.25 1.1.3 1.9 1.1l1.7-.8 2.7-.2 2.3.55q1.2.5 2.15 1.45l.25-.4 2.45-2.9q1.6-1.5 3.15-1.95l3.45-.3.9.2.85 1.1.6.85.1.45.25.35.9 1.75q.4 1.1.05 1.9l-.7 1.15-.6 1.15q-.1.45.05.65l.35.35q1.3.8 2.5 1.85 1.35 1.25 1.35 2.2.05.7-.5 1.5l-1.05 1.3q.5 1 .45 1.55l-.35.7q-.35.35-.7.25-.6-.1-.9-1.15-.35-1-.25-1.45.05-.4.45-1.2l.4-1.25L66 18.4l-1.35-1-.7-.25-.65-.4q-.3-.3-.3-1.1-.15-2.35 1.35-4.2l-.75-1.15q-.8-1-1.35-1.05-.5-.05-1.2.45-3.15 2-4.4 4.4l-.4 1q.6 2.3.05 5.05-.7 3.25-2.95 6.5-2.25 3.3-4.9 5.1-2.25 1.65-4.75 2.3 1.95-.2 4.7-1.35 2.6-1 3.75-1.75l1.35-1.05q.8-.6 1.35-.9 1-.55 3.2-.95 2.75-.4 3.6.8.7.95.2 3l3.15-.1 1.2.9.8.5q.4.35.3.75-.2.75-1.5.4-1-.35-1.15-.75l-.3-.75q-.4-.35-1.2.35-.65.5-1.4.6-.9.1-1.45-.35-.85-.8-.4-2.1l.05-.9-.55-.2q-1.75-.2-3.7 1.05l-3 2.45q-3.35 2.85-6.55 3.75-4.1 1.25-7.45-.35l-1.25-.55-1.6-.2-2.3.75q-3.45.9-6.55.1-3.55-.85-5.35-3.55-.95-1.4-1.1-3.1-.1-1 .1-1.95l-.55-.2q-1.25-.45-2-1l-.85-.95q-1.05-1.5-1.3-3.4-.25-1.95.35-3.7.6-1.65 2.05-3.25l1.8-1.75-.1-.6-.2-.6-.75-.65-1.55-.95-1.1-.25q-.35.05-.75.45l-3.25 3.35-.55.9q-.2.6-.05 1.25l.35 1.85.25 1.85-.65 3.2q-.25.6-.25 1.1l.35 1.25q.65 1.75 0 2.9l-.95 1.25q-.65.75-.75 1.35-.1.7-.45.65-.25-.05-.25-.45-.05-.75.9-2.35l.35-.85-.2-.75-.8-1.25-.6-1.35q-.15-.8.25-2.05l.55-2.1q.1-1.05-.4-3.25-.55-2.1-.3-3.25.3-1.15 2.1-3.2l3.05-3.25q1.1-1.1 1.8-1.35.85-.25 2.65.4 3.4 1.35 4.5 3.2l.4.8zm12.25-2.1q-1.05-.7-3.2-.9L30.95 8q-1.25.35-2.4 1.55-1.45 1.7-1.85 3.85l-.05.6 1.85-.35q2.3-.15 3.8.55 1.25.7 1.55 1.5l.2 1.35.5.35.8.95.45.9.15.75.1.6.5.2q1.25.7 2.8.4 1.5-.25 2.6-1.3 2-1.95 2-5.35 0-1.35-.55-2.4l-.55-.85q-.35-.4-1.25-.5-.95-.1-1.55.55-.65.6-1.95-.6zm4.15 10.4q-1.15.7-2.05.35-.95-.3-1.3-1.4l-.1-.6q-.05-.6.6-1.55l1-1.5.95-1.05q.9-.7 1.65-.7 1.05 0 1.55.85l.15.4q.2 1-.1 2.1l-.95 1.8-.6.7zM39.1 23.8l-1.55-.25q-.75.05-1.65-.55l-.1-.05-.8 1.3-.8.75q-2.3 1.9-4.95 2.7l-5.45.3-.05 1.4q.05 2.15 2.4 3.6 2.65 1.55 6.05.95 2.7-.45 5.75-2.3l1.6-1.2 1-1.65q1.3-2.7 1.05-4.65l-.1-.85z"/></g></svg>