<svg xmlns="http://www.w3.org/2000/svg" xmlns:ffdec="https://www.free-decompiler.com/flash" ffdec:objectType="shape" width="76.2" height="43.3"><path fill="#717171" fill-rule="evenodd" d="M.5.5h75.2v40.9H.5z"/><path fill="none" stroke="#717171" stroke-linecap="round" stroke-linejoin="round" d="M.5.5h75.2v40.9H.5z"/><path fill-rule="evenodd" d="M34.45 19.15q-.25-1.95 0-3.95.15-1.45.45-2.7l-.7-1.85-.25-2.25-.5-3.15q-.1-.7.05-1.25.2-.7.85-1.2.65-.45 1.35-.5l1.2.2 3.7.15q1.25.1 2.1.55 2.4-.9 5.45-1.05l4.45.45q1.1.3 2.2 1.05l2.9-.75q1-.4 1.65-.35 1.15.2 1.4 1.3l.05 1.4.15.75.05 1.05q.1 2.6-.3 4.6.65 2.1.65 4.45 0 4-1.8 6.95L56.9 26.3l-1 1 1.2-.15 3.8-.65 2.6-.8q3.15-2.15 4.65-4.85l.5-1.3.05-1.3v-.35l-.65-.35-.05.05-.2.8q-.35.95-1.4.95-.45 0-.8-.3l-.45-.75q-.1-.5.3-1.4l.65-1.05q-1-1.15-1.15-2.55-.3-2 1.05-3.85.55-.8 1.3-1.3-.1-.55.3-1.5l2.35-4.4q.6-.85 1.15-1.1.85-.25 1.45.3.55.55.4 1.4l-.2.5q-.15.4-.15.7l-1 4q.8.6 1.45 2 1.4 3.15 1.15 6.75-.2 3.6-2.05 6.5-1.8 2.95-4.9 4.75t-6.55 1.9l-3.25.1-2.45.25-2.2-.45-.4-.2-1.6.5.25 2.55.3 5.75q.2 2.3-.7 3.25-.75.85-2.95.95l-5.5.4q-5.2.4-8.25.1-2.35-.2-3.2-1.25l-.4-.6-.35.2-1.5.25q-.8-.1-1.4-.6-.55-.55-.8-1.3-.2-.8 0-1.55.2-.7 1.1-1.9l8.4-10.65 1-.95-.15-.2-1.7.3q-3.1.05-8.4-2.1-2.85-1.2-4.2-2.2-3.95-3.1-4.15-9.4 0-2.65.7-4.45l.1-.15-.6-.35-.95-.55q-.5-.45-.6-1.2l-.05-.25.05-.25q.1-.7.6-1.15.5-.5 1.25-.5l.05-.05q.75 0 1.5.6l.85.9.65-.45q2.2-1.3 4.3-.2 1.6.75 2.1 2.6.45 1.35-.1 2.8l.1.05.4.2.05-.1.5-.45 1-.1.95.45.95.65.35.3q.4.4.25.9l-.65.65q-.45.2-1.15-.2l-.95-.5-.15.25.2.2 1.7 1 .5.4-.1.35-.4.15-.75-.15-.65-.25-.45-.35-.55-.05.15.2.6.45.55.45v.65l-.55.3-.55-.15-.45-.25-1.2-1-.5-.5q-.2-.4.1-1.3l.05-.05-.25-.3-.2-.3-3 2.15q.4 2.75 1.55 4.05.7.8 2.2 1.65 3.9 2.25 6.2 3.15l1.2.5zm12.4.05.8-.65.1.1.8.85 1.75.95-.7 1.25-.5.45-.65.1-1.05-.05-.5-.2-.35-.2-.4-.45-.3-.35-.1-.85-.1-.4zM41.2 18l-.3-.3q-.6-.35-1 .3-.25.65.35 1l.4.25.3.3.5.2 1.3.35.45.1-.05.2q-.2 1.5.25 2.15.3.6 1.15 1.15l.8.5 1 .3 1.1.15.65.05.65-.15.6-.05h.1v.1q.2.65.55.95.45.55 1.3.55 1.1.1 1.55-.7.5-.8-.1-2.15l-.8-1.1-.3-.15v-.05l.3-1.15 2.3-.55q1.1-.3 1.3-.85.25-.45-.1-.95-.25-.4-.8-.4l-.75.2-.85.3-.65.05-.85-.3-1.35-.9-.35-.35-.15-.4-.55-.8q-.25-.2-.55-.25l-.05-.05-.95-.1q-.5.1-.8.45l-.3.4-.7.65q-1.1.75-2.85 1.35l-.75.1-.55-.15zm-3.05-6.7-.4.75q-.7 1.6.25 3.15.95 1.45 2.75 1.6 1.8.1 2.9-1.25.85-.85.85-2.15 0-1.25-.75-2.15l-.25-.3q-1.2-1.4-3.1-1.05-1.3.2-2.25 1.4m13.7 2.35q0 1.95 1.55 3.05.95.75 2.15.65 1.25-.1 2.1-.95l.45-.65.6-1.7-.05-.85-.15-.55-.7-1.2q-1.2-1.3-3.05-1.05-1.8.25-2.55 1.9l-.25.6z"/><path fill="#717171" fill-rule="evenodd" d="m51.85 13.65.1-.75.25-.6q.75-1.65 2.55-1.9 1.85-.25 3.05 1.05l.7 1.2.15.55.05.85-.6 1.7-.45.65q-.85.85-2.1.95-1.2.1-2.15-.65-1.55-1.1-1.55-3.05m-13.7-2.35q.95-1.2 2.25-1.4 1.9-.35 3.1 1.05l.25.3q.75.9.75 2.15 0 1.3-.85 2.15-1.1 1.35-2.9 1.25-1.8-.15-2.75-1.6-.95-1.55-.25-3.15zM41.2 18l.45.25.55.15.75-.1q1.75-.6 2.85-1.35l.7-.65.3-.4q.3-.35.8-.45l.95.1.05.05q.3.05.55.25l.55.8.15.4.35.35 1.35.9.85.3.65-.05.85-.3.75-.2q.55 0 .8.4.35.5.1.95-.2.55-1.3.85l-2.3.55-.3 1.15V22l.3.15.8 1.1q.6 1.35.1 2.15-.45.8-1.55.7-.85 0-1.3-.55-.35-.3-.55-.95v-.1h-.1l-.6.05-.65.15-.65-.05-1.1-.15-1-.3-.8-.5q-.85-.55-1.15-1.15-.45-.65-.25-2.15l.05-.2-.45-.1-1.3-.35-.5-.2-.3-.3-.4-.25q-.6-.35-.35-1 .4-.65 1-.3zm5.65 1.2-1.2.55.1.4.1.85.3.35.4.45.35.2.5.2 1.05.05.65-.1.5-.45.7-1.25-1.75-.95-.8-.85-.1-.1z"/><path fill="#fff" fill-rule="evenodd" d="m26.5 42.95-2.65.25-4.5-.1q-1.15-.25-3.1-1.25l-1.05-.55-.55.65q-.6.5-1.4.45-.85 0-1.4-.55l-.5-.8H11l-.6-.05q-.8-.15-1.3-.8-.5-.6-.6-1.45l.05-.25q0-.3.15-.55l-1.2-.85q-.6-.8-.55-1.6l.1-.6.4-1.05.8-.95.8-.5.4-.15q-.15-2.3.4-4.55.85-3.3 3-5.6 3.9-4.25 11.1-4.7l4.05.4q1.15.45 3.05 2.05 2.25 2.05 3.35 3.75l1.05-.3.5-.05q-.1-1.15.45-2 .75-1.25 2-1.45h1.2l1.05.3q.55.25 1.05.95l.7 1.15.1.5q.55.2 1.15.55l.1-.1q.1-1 .55-1.6l.95-.9.65-.25q1.3-.45 2.55.3l.45.35q.85.85.6 2.4v.1l1.1.7.7.5.15-.4.85-.95.75-.4 2.3-.1q1.15.3 1.85 1.3l.3.55q.65.05 1.5.45l1.45 1.1 1.05 1.45.85 1.4.75 2.2q.9 3.3.7 5l-.75 2.95q-.6 1.8-1.55 2.1-.8.2-1.15-.25-.4-.5 0-1.65.85-2.65.55-4.4l-.6-2.2-.6-1.85-.75-1.05-1.3-1.05-1.1-.25-.4.3-1.05.5.75 2 .55 2.05q.35 2.05-.35 4.15-.7 2.05-2.25 3.5-.95.85-1.7.85-.55.05-.95-.3-.45-.3-.4-.8 0-.35.35-.9l1-2.2q.4-1.1.4-2.1l-.35-2.05-.3.55-.4.9-.05.65.05 1.05-.05.7-.15.45q-.35.35-.85.2l-.35-.35q-.4-.5-.4-1.65l-.1-1.7v-.3l-.1-.85.55-1.8.55-1 .15-.2-.45-.6-1.5-1.2-1.25-.7q.85 1.75 1.05 3.05v2.35l-.3 2.1q-.6 2.55-2.7 4.95L44 41.9q-1.35.9-2.95 1.05-1.4.2-2.25-.35-1.2-.75-.9-1.95.25-.75 1.3-1.4 1.3-.8 1.85-1.4l1.15-1.8q1.35-2.45 1.1-4.15l-.65-1.9q-.75.55-1.35 1.4l-.85 1.8q-.25.65-.25 1.65v.85l.2.8-.45.85-1 .15q-.6-.25-.75-.85l-.2-1.2-.25-3.15q0-.8.15-1.65t.55-1.55l1.1-1.45.2-.2h-.05l-.6.15-.8.05q-1.1 0-2 .75l.15 1.2q.3 3.1-.7 6-.85 2.5-2.35 4.1-1.25 1.25-3.4 2.2zm46.1-3.3v.8l-.3.8-.35.45-1 .15q-.45-.15-.85-.95-.5-1.1-.85-2.8l-.45-1.8-.3-1.15-.05-.1-.4.05-.7-.05q-.65-.15-1.2-.6l-.9-1.15q-.35-.8-.15-1.45l.25-.6.3-.45.3-.25L67 29.9l1.05-.1.45.1q.35-.55.85-1.05l.45-.35q.95-.55 2-.25 1.1.25 1.6 1.15l.2.45.1.7-.65 1.75-.35.45-.4.3-.35.5v.05l.2 1.55.25 1.6zM2.95 36.7q-.5 1-1.2 1-.85 0-1.05-.95l.15-1.55 1-3.8L3 28.65l.15-.25q-.85-.75-.75-1.95l.2-1.2.2-.6.3-.65.6-.55q.75-.45 1.35-.4.75 0 1.4.55l.55.7.3.8.7.5q.7.7.6 1.6-.05 1-.9 1.65-.55.5-1.15.6-.65.95-1.65 3zm15.85.2-.45.65q-.3.5-.4 1.6v.8q.05 1 .7 1.8t1.6 1.1l1.9-.05q1-.3 1.6-1.1l.7-1.25q.35-.85.15-1.85-.15-1-.8-1.65l-.7-.55-.75-.4-1.9-.1q-.85.2-1.65 1m-6.3-5.7.15 1.05q.35 1 1.5 1.6 1.5.85 3.15.3 1.4-.45 2.15-1.9.7-1.35.35-2.9l-.35-.9Q18.95 27.5 18 27q-1-.55-2.1-.4-1.55.25-2.55 1.65-.85 1.2-.85 2.95"/><path fill="#717171" fill-rule="evenodd" d="M12.5 31.2q0-1.75.85-2.95 1-1.4 2.55-1.65 1.1-.15 2.1.4.95.5 1.45 1.45l.35.9q.35 1.55-.35 2.9-.75 1.45-2.15 1.9-1.65.55-3.15-.3-1.15-.6-1.5-1.6zm6.3 5.7q.8-.8 1.65-1l1.9.1.75.4.7.55q.65.65.8 1.65.2 1-.15 1.85l-.7 1.25q-.6.8-1.6 1.1l-1.9.05q-.95-.3-1.6-1.1t-.7-1.8v-.8q.1-1.1.4-1.6z"/></svg>