<svg xmlns="http://www.w3.org/2000/svg" xmlns:ffdec="https://www.free-decompiler.com/flash" ffdec:objectType="shape" width="76.6" height="42.2"><path fill="#999" fill-rule="evenodd" d="M16.4 41.7H.5V.5h75.6v41.2H49.3l-1.1-7.3-1.05-4.05 4.4.45 6 .55 3.4-.45q.9-.5 1.4-1.45.45-1 .35-2-.15-1-.8-1.85-.65-.9-1.6-1.25l-2.05-.45q-2.65-.2-5.25 0l-2.25.35.55-.95q.7-1.45.7-3.3l.05-.4-.35-2.75-.1-.35q1.75-2.4 2.3-5.45.2-.8 0-1.35-.25-1.15-1.35-1.45l-1-.1-5.45.3-.3.05q-1.5-.9-3.85-1.45l-2.9-.4V6.6h-1l-2.9.45Q32.8 7.6 31.3 8.5l-.3-.05-5.45-.3-1 .1q-1.1.3-1.35 1.45-.2.55 0 1.35.55 3.05 2.3 5.45l-.1.35q-.4 1.8-.35 2.75l.05.4q0 1.85.7 3.3l.55.95-2.25-.35q-2.6-.2-5.25 0l-2.05.45q-.95.35-1.6 1.25-.65.85-.8 1.85-.1 1 .35 2 .5.95 1.4 1.45l3.4.45 6-.55 4.4-.45q-.6 1.9-1.05 4.05l-.25 1.4q-1.6-.2-4.05.55l-2.9 1.15q-1.3.55-2 .5l.1-.05 1.25-.55q1.1-.6 1.55-1.55.55-1.1.1-2.2-.45-1.05-1.7-1.4l-2.3-.1q-1.5.35-2.45 1.1-.65.5-1.4 1.5-.45.65-.8 1.6-.35 1.25.1 2.6.4 1.3 1.45 2.2zm11.45 0H22.7l1.7-.75q2.15-.9 3.6-.75z"/><path fill="#fff" fill-rule="evenodd" d="M49.3 41.7v.1H27.85v-.1l.15-1.5q-1.45-.15-3.6.75l-1.7.75-.15.05-.1.05h-5.9l-.15-.1-.8-.55q-1.05-.9-1.45-2.2-.45-1.35-.1-2.6.35-.95.8-1.6.75-1 1.4-1.5.95-.75 2.45-1.1l2.3.1q1.25.35 1.7 1.4.45 1.1-.1 2.2-.45.95-1.55 1.55l-1.25.55-.1.05q.7.05 2-.5l2.9-1.15q2.45-.75 4.05-.55l.25-1.4q.45-2.15 1.05-4.05l-4.4.45-6 .55-3.4-.45q-.9-.5-1.4-1.45-.45-1-.35-2 .15-1 .8-1.85.65-.9 1.6-1.25l2.05-.45q2.65-.2 5.25 0l2.25.35-.55-.95q-.7-1.45-.7-3.3l-.05-.4q-.05-.95.35-2.75l.1-.35q-1.75-2.4-2.3-5.45-.2-.8 0-1.35.25-1.15 1.35-1.45l1-.1 5.45.3.3.05q1.5-.9 3.85-1.45l2.9-.45h1v.05l2.9.4q2.35.55 3.85 1.45l.3-.05 5.45-.3 1 .1q1.1.3 1.35 1.45.2.55 0 1.35-.55 3.05-2.3 5.45l.1.35.35 2.75-.05.4q0 1.85-.7 3.3l-.55.95L53 23.9q2.6-.2 5.25 0l2.05.45q.95.35 1.6 1.25.65.85.8 1.85.1 1-.35 2-.5.95-1.4 1.45l-3.4.45-6-.55-4.4-.45 1.05 4.05z"/><path fill="none" stroke="#999" stroke-linecap="round" stroke-linejoin="round" d="M16.4 41.7H.5V.5h75.6v41.2H49.3m-21.45 0H22.7"/><path fill-rule="evenodd" d="m15.95.85.15.15.05-.4.05-.25h.9V.4l.6 1.85.2.95-.05.2q.1.45-.4.8l-1 .1-2.3-.55-.3-.15v-.4q.15-.25.65-.4l.1-.05-1.2-1.4-.75-1h2.75zM72 5.75l-1.5 1.9-2.1 2.8-1.65 2 .15.05q.7.2.9.6v.55l-.4.2-3.25.8-1.45-.2q-.65-.45-.55-1.1l-.05-.25.3-1.35.8-2.65q.1-.75.5-.85.45-.1.65.35l.2.8.05.6.25-.25L69.8 5.3q1.2-1.15 2.4-1.9l.6-.15q.3.1.3.55l-.25.6zM60.85.85l.55-.5h2.75l-.75 1-1.2 1.4.1.05.65.4v.4l-.3.15-2.3.55-1-.1q-.5-.35-.4-.8l-.05-.2q-.05-.25.2-.95L59.7.4V.35h.9l.05.25.05.4zM59 15.5q-.1-.75-.4-1l-.2-.35-.3-.2-.3-.15-.25.05-.35.2q-.3.25-.4.85l-.05.75.1.4.25.7.1.75-.05.75 1.85.5 1.4.65.5.15 1 .15.4-.15.1-.7-.15-.85-.2-.2-.75-.6-1-.15h-.8l-.35-.4-.1-.6zM57.85 4.8q.85.05 1.5.5.7.5.85 1.35l.1.7q0 .9-.3 1.3l-.85.5q-1.05.2-2.65-.55l-.8-.3-.7-.05-.55-.4v-.5l.1-.45-.25-1q-.35-1.15-.05-2.3l.2-.35.25-.25q1-.65 1.8-.25l.5.3q.75.75.85 1.75m17.4 13.3-1.1 1.35-1.45 2-1.2 1.4.1.05q.5.15.65.4v.4l-.3.15-2.3.55-1-.1q-.5-.35-.4-.8l-.05-.2q-.05-.25.2-.95l.6-1.85q.05-.55.35-.65.3-.05.45.25l.15.6.05.4.15-.15 3.5-3.15q.85-.85 1.75-1.35.25-.15.4-.15l.2.4-.15.45zm-8.1 6.8q.85.05 1.5.5.7.5.85 1.35l.1.7-.3 1.3-.85.5q-1.05.2-2.65-.55l-.8-.3-.7-.05-.55-.4v-.5l.1-.45-.25-1q-.35-1.15-.05-2.3l.2-.35.25-.25q1-.65 1.8-.25l.5.3q.75.75.85 1.75m-6.55-9.6q1.2.1 2.1.75 1 .7 1.25 1.85l.15 1.05q0 1.25-.45 1.8-.4.5-1.2.7-1.45.3-3.7-.8l-1.15-.4-1-.05q-.65-.2-.8-.55v-.7l.2-.7q.1-.4-.35-1.4-.55-1.6-.1-3.2l.25-.5.4-.35q1.4-.95 2.55-.35.4.15.7.45 1.05 1 1.15 2.4m-14.9-1.25h-.75l1.25.95q.35.35.1.5l-.25.05-1.55-.35-1.5-.4-1.2-.2q-.75-.25-.8-.85l.1-.65.05-.05.65-.7 1.25-.2.1.05 1.6.15.35.05.3.1.45.05 1.55.45.45.25.15.45q-.05.4-.6.5h-.35l-.25-.1zm-9.7 6-1.3.15-.7-.05-.95-.2-1.2-.95-.2-.3q-.15-.3-.05-1.2l.15-.7q.15-.35.6-.55.3.1.45.3l-.05.7q-.2.45-.1.65.4.4 1.35.5 1.3 0 2-.5l.45-.3.6-.25.45-.45.35-.25.4-.1h.35l.35.1.35.25.45.45.6.25.45.3q.7.5 2 .5.95-.1 1.35-.5l-.1-.65-.05-.7q.15-.2.45-.3l.6.55.15.7-.05 1.2-.2.3-1.2.95-.95.2-.7.05-1.3-.15-.7-.3-1.7-.95-1.7.95zm-4.9-6-1.1.05-.25.1h-.35q-.55-.1-.6-.5l.15-.45.45-.25 1.55-.45.45-.05.3-.1.35-.05 1.6-.15.1-.05 1.25.2.65.7.05.05.1.65q-.05.6-.8.85l-1.2.2-1.5.4-1.55.35-.25-.05q-.25-.15.1-.5l1.25-.95zM18.95 4.8q.1-1 .85-1.75.2-.2.5-.3.8-.4 1.8.25l.25.25.2.35q.3 1.15-.05 2.3-.35.7-.25 1l.1.45v.5l-.55.4-.7.05-.8.3q-1.6.75-2.65.55-.55-.15-.85-.5-.3-.4-.3-1.3l.1-.7q.15-.85.85-1.35.65-.45 1.5-.5M4.8 5.75 3.95 4.4l-.25-.6q0-.45.3-.55l.6.15L7 5.3l4.95 4.45.25.25.05-.6.2-.8q.2-.45.65-.35.4.1.5.85l.8 2.65.3 1.35-.05.25q.1.65-.55 1.1l-1.45.2-3.25-.8-.4-.2q-.15-.25 0-.55.2-.4.9-.6l.15-.05-1.65-2-2.1-2.8zm11.4 9.55q.1-1.4 1.15-2.4.3-.3.7-.45 1.15-.6 2.55.35l.4.35.25.5q.45 1.6-.1 3.2-.45 1-.35 1.4l.2.7v.7l-.8.55-1 .05q-.3.05-1.15.4-2.25 1.1-3.7.8l-1.2-.7q-.45-.55-.45-1.8l.15-1.05q.25-1.15 1.25-1.85.9-.65 2.1-.75M1.55 18.1l-.6-.95-.15-.45.2-.4.4.15 1.75 1.35 3.5 3.15.15.15.05-.4.15-.6q.15-.3.45-.25l.35.65.6 1.85.2.95-.05.2q.1.45-.4.8l-1 .1-2.3-.55-.3-.15v-.4q.15-.25.65-.4l.1-.05-1.2-1.4-1.45-2zm8.1 6.8q.1-1 .85-1.75.2-.2.5-.3.8-.4 1.8.25l.25.25.2.35q.3 1.15-.05 2.3-.35.7-.25 1l.1.45v.5l-.55.4-.7.05-.8.3q-1.6.75-2.65.55-.55-.15-.85-.5-.3-.4-.3-1.3l.1-.7q.15-.85.85-1.35.65-.45 1.5-.5m8.15-9.4-.05.55-.1.6-.35.4h-.8l-1 .15-.75.6-.2.2-.15.85.1.7.4.15 1-.15.5-.15 1.4-.65q.6-.3 1.85-.5l-.05-.75.1-.75.25-.7.1-.4-.05-.75q-.1-.6-.4-.85l-.35-.2-.25-.05-.3.15-.3.2-.2.35q-.3.25-.4 1"/><path fill="#fff" fill-rule="evenodd" d="m59 15.5.05.55.1.6.35.4h.8l1 .15.75.6.2.2.15.85-.1.7-.4.15-1-.15-.5-.15-1.4-.65-1.85-.5.05-.75-.1-.75-.25-.7-.1-.4.05-.75q.1-.6.4-.85l.35-.2.25-.05.3.15.3.2.2.35q.3.25.4 1M44.05 4.75q-.55-.9-.4-1.3l.4-.45 1.2-.15q.65.25.8.85 1.3-.1 1.8.4.4.4.25 1t-.7.75l-.8.2-.5.3-.5.15-.4-.3zm6.3 31q-.55-.9-.4-1.3l.4-.45 1.2-.15q.65.25.8.85 1.3-.1 1.8.4.4.4.25 1t-.7.75l-.8.2-.5.3-.5.15-.4-.3zm-17.3-31L31.9 6.2l-.4.3-.5-.15-.5-.3-.8-.2q-.55-.15-.7-.75t.25-1q.5-.5 1.8-.4.15-.6.8-.85l1.2.15.4.45q.15.4-.4 1.3M17.8 15.5q.1-.75.4-1l.2-.35.3-.2.3-.15.25.05.35.2q.3.25.4.85l.05.75-.1.4-.25.7-.1.75.05.75q-1.25.2-1.85.5l-1.4.65-.5.15-1 .15-.4-.15-.1-.7.15-.85.2-.2.75-.6 1-.15h.8l.35-.4.1-.6zm-5.75 20.25L10.9 37.2l-.4.3-.5-.15-.5-.3-.8-.2q-.55-.15-.7-.75t.25-1q.5-.5 1.8-.4.15-.6.8-.85l1.2.15.4.45q.15.4-.4 1.3"/></svg>