<svg xmlns="http://www.w3.org/2000/svg" xmlns:ffdec="https://www.free-decompiler.com/flash" ffdec:objectType="shape" width="65.3" height="37.2"><g fill-rule="evenodd"><path fill="#999" d="M38.45 25.4q-1.6-1.1-2.75-2.6-2.65-3.2-3.25-8.2-.4-3.9.75-6.65l-.3-.55-.2-.85-.2-1.5-.15-2.65q0-1.3.4-1.75.35-.45 1-.6l.9.1.75.4 1.05.5q1 .65 1.55.9l1.1.5q.5-.25 1.05-.45 2-.85 3.65-1.1 1.7-.25 3.75.05 3.05.4 5.85 2.05l2.2-.75 2.25-.45q.8-.1 1.35.25.45.25.75 1.1L60 4.5l-.15 1-.2.75-.1.8-.35 1.15.4.6q2.25 3.55 2.25 6.85.05 2.25-1 4.5-.95 2.15-2.7 3.8-2.35 2.2-5.5 3.2l.4.55.55 1.45.25.85.35 1.3.25 2.8.35-.5 1.25-1.3 1.1-1.75.9-1.15.35-.55 1.7-3.25q.5-1.3 1.1-1.85t1.45-.55q.85-.05 1.55.45.55.35.9 1.15l.2 1.55-.2 1.45-.75 1.2-1.6 1.85-.7.6-1.2 1.7-.75.8-1.4.55-.85.7q-1.1.9-1.85 1-1.1.15-1.6-.65l-.05.25q-.3 1.1-1.5 1.35-1.1.25-1.85-.7l-.35-.55-.8.05-2.45-.2-2.4-.4-4.25.15-2.2.15q-1.3-.2-1.8-1.15-.25-.45-.25-1.35l.15-1.3.2-.9q.45-1.95 1.05-3.5l.55-1.5.1-.5zM53.1 10.55q-1.15.15-1.8.95-.9 1.15-.1 2.55.65 1.15 2.2 1.5l1.6.05q1.05-.35 1.35-1.25l.1-.9-.3-1.55q-.4-.75-1.3-1.1zm-13.1-.2q-.45-.65-1.25-.95l-1.6-.1q-1.1.2-1.55.85-.35.5-.45 1.4-.1 1.45.6 2.1.55.5 1.65.5l1.7-.2q.7-.35 1.05-1.2.5-1.35-.15-2.4m6.8 7.75-.55-.8-.65-.45q-.45-.15-.8 0-.3.1-.95.75-.8.65-1.55.7-.7.05-1.95-.7-1.25-.8-2-.75L38 17q-.15.15-.15.45 0 1.1 1.35 2.15 1.4 1.05 3 1.1 1.8.1 2.9-1.1l1.15.95q.7.55 1.3.7h1.2Q50.7 21 52.1 19.9q1-.8 1-1.75 0-.45-.3-.6l-.7.05-.55.45q-.85.7-2.65.9h-.85l-.6-.4z"/><path fill="#fff" d="m46.8 18.1.65.45.6.4h.85q1.8-.2 2.65-.9l.55-.45.7-.05q.3.15.3.6 0 .95-1 1.75-1.4 1.1-3.35 1.35h-1.2q-.6-.15-1.3-.7l-1.15-.95q-1.1 1.2-2.9 1.1-1.6-.05-3-1.1-1.35-1.05-1.35-2.15 0-.3.15-.45l.35-.15q.75-.05 2 .75 1.25.75 1.95.7.75-.05 1.55-.7.65-.65.95-.75.35-.15.8 0l.65.45zM40 10.35q.65 1.05.15 2.4-.35.85-1.05 1.2l-1.7.2q-1.1 0-1.65-.5-.7-.65-.6-2.1.1-.9.45-1.4.45-.65 1.55-.85l1.6.1q.8.3 1.25.95m13.1.2 1.75.25q.9.35 1.3 1.1l.3 1.55-.1.9q-.3.9-1.35 1.25l-1.6-.05q-1.55-.35-2.2-1.5-.8-1.4.1-2.55.65-.8 1.8-.95"/><path d="m38.45 25.4.1.05-.1.5-.55 1.5q-.6 1.55-1.05 3.5l-.2.05-4.65.35-2.1-.1-1.35-.3-2.2-.85-1-1q-.7-.9-.7-1.55l.1-.9.1-.8q.25-.6.9-.7t1.15.35l.7.9q.45.45 1.3.6l2.9.35q3.8.1 5.5-1.1z"/><path d="M32.85 14.6q-.6 5-3.25 8.2l-2.85 2.65.1.5.55 1.5 1.25 4.4.15 1.3-.25 1.35q-.5.95-1.8 1.15l-2.2-.15-4.25-.15-2.4.4-2.45.2-.8-.05-.35.55q-.75.95-1.85.7-1.2-.25-1.5-1.35l-.05-.25q-.5.8-1.6.65-.75-.1-1.85-1l-.85-.7-1.4-.55-.75-.8-1.2-1.7-.7-.6L.95 29 .2 27.8 0 26.35l.2-1.55q.35-.8.9-1.15.7-.5 1.55-.45.85 0 1.45.55t1.1 1.85l1.7 3.25.35.55.9 1.15 1.1 1.75 1.25 1.3.35.5q.05-1.85.25-2.8l.35-1.3.25-.85q.3-1 .55-1.45l.4-.55q-3.15-1-5.5-3.2-1.75-1.65-2.7-3.8-1.05-2.25-1-4.5 0-3.3 2.25-6.85l.4-.6q-.3-.5-.35-1.15l-.1-.8-.2-.75q-.15-.45-.15-1-.1-.75.05-1.35.3-.85.75-1.1l1.35-.25 2.25.45 2.2.75q2.8-1.65 5.85-2.05Q19.8.65 21.5.9q1.65.25 3.65 1.1l1.05.45 1.1-.5q.55-.25 1.55-.9l1.05-.5.75-.4.9-.1 1 .6q.4.45.4 1.75l-.15 2.65-.2 1.5-.2.85-.3.55q1.15 2.75.75 6.65M12.2 10.55l-1.75.25q-.9.35-1.3 1.1-.3.6-.3 1.55l.1.9q.3.9 1.35 1.25l1.6-.05q1.55-.35 2.2-1.5.8-1.4-.1-2.55-.65-.8-1.8-.95m6.3 7.55-.65.45-.6.4h-.85q-1.8-.2-2.65-.9l-.55-.45-.7-.05q-.3.15-.3.6 0 .95 1 1.75 1.4 1.1 3.35 1.35h1.2l1.3-.7q.75-.65 1.15-.95 1.1 1.2 2.9 1.1 1.6-.05 3-1.1 1.35-1.05 1.35-2.15L27.3 17l-.35-.15q-.75-.05-2 .75-1.25.75-1.95.7-.75-.05-1.55-.7-.65-.65-.95-.75-.35-.15-.8 0-.4.1-.65.45zm6.8-7.75q-.65 1.05-.15 2.4.35.85 1.05 1.2l1.7.2q1.1 0 1.65-.5.7-.65.6-2.1l-.45-1.4q-.45-.65-1.55-.85l-1.6.1q-.8.3-1.25.95"/><path fill="#fff" d="M25.3 10.35q.45-.65 1.25-.95l1.6-.1q1.1.2 1.55.85l.45 1.4q.1 1.45-.6 2.1-.55.5-1.65.5l-1.7-.2q-.7-.35-1.05-1.2-.5-1.35.15-2.4m-6.8 7.75.55-.8q.25-.35.65-.45.45-.15.8 0 .3.1.95.75.8.65 1.55.7.7.05 1.95-.7 1.25-.8 2-.75l.35.15.15.45q0 1.1-1.35 2.15-1.4 1.05-3 1.1-1.8.1-2.9-1.1-.4.3-1.15.95l-1.3.7h-1.2Q14.6 21 13.2 19.9q-1-.8-1-1.75 0-.45.3-.6l.7.05.55.45q.85.7 2.65.9h.85l.6-.4zm-6.3-7.55q1.15.15 1.8.95.9 1.15.1 2.55-.65 1.15-2.2 1.5l-1.6.05q-1.05-.35-1.35-1.25l-.1-.9q0-.95.3-1.55.4-.75 1.3-1.1z"/></g></svg>