<svg xmlns="http://www.w3.org/2000/svg" xmlns:ffdec="https://www.free-decompiler.com/flash" ffdec:objectType="shape" width="76.9" height="42.8"><g fill-rule="evenodd"><path fill="#767676" d="M61.85 9.35q2.9 4.85 2.45 10.5-.2 2.2-.8 3.25-.8 1.6-2.25 2.1-1.05 1.95-2.9 2.9l-.7-2.1-.55-4.55q-.5-2.65-2-3.9-1.7-1.35-5-1.15-3.3.15-7.55 2.05-4.2 1.9-10.5 8.6l-8.7 9.3 1.4-.05h5.95l1.1-.6.7-.2 2.25-.2 1.35.25.7.4.75.15.45.2 7.1-.05.75-.1 2.4-.3 3.4-.75 3.4-.2 2.4.6q2.75.55 6.8-.55l3.1-.65q3.35-.3 6.9 1.5h.2l.3.05h.15l.2.05.15.1.15.1.1.05.15.1.1.05.1.1.05.05.05.1.05.1.05.05.1.1v.05l.05.1.05.05v.1l.05.1v.05l.05.1v.75l-.05.1v.1l-.05.05v.1l-.05.05-.05.1-.05.05-.05.1.15.1.05.05.1.1.05.05.05.1.05.05.05.1.05.1.1.05v.1l.05.05.05.1v.05l.05.1V40l.05.1v.6l-.05.1v.05l-.05.1v.1l-.05.05v.1l-.05.05-.05.1-.05.05-.05.1-.05.1-.05.05-.1.1-.05.05-.1.1-.1.05-.1.1-.15.1-.1.05-.25.1-.1.05h-.1l-.1.05h-.05l-.3.05h-.35l-1.9.05H22.75l-4.05-.05h-1.75l-3.25-.05H8.85l-2.5-.05h-1.9l-.7-.05h-.7l-.3-.05h-1.1l-.35-.05H.95l-.1-.05h-.2l-.2-.05-.2-.05-.2-.05-.05-.05V38.8h.05l.1-.05-.05-.05-.05-.1-.05-.05v-1.6l.05-.05.05-.1.1-.05.1-.1.15-.05.15-.1.15-.05.1-.05h.1l.1-.05H2.5l.55-.05h15.6l1.05.05h2l4.8-6.75q7.65-10.7 13.3-14.4l6.9-4.5q-5.4 1.15-10.55 4.75-5.2 3.55-10.1 8.8Q22 28.6 17.1 35.95l-2.1-.3 4.8-8.2Q25 19 29.75 13.95q3.85-3.85 7.6-6.45 2.95-2.15 5.6-3.1l-1.2.05q-3.65.6-7.7 3.75-3.8 3.05-7.65 7.65-2.35 2.8-6.6 8.65l-.5-.1q4-7 6.4-10.55 3.9-5.6 8.15-9.1Q36.3 2.7 38.5 1.7 41.9.1 46 0q3.85-.05 7.7 1.3 4.45 1.65 6.05 4.4l.75 1.75zM46.9 10.9q-1.65 1.75.5 1.15 1.5-.55 2.95-.75l-3.25-.6z"/><path d="M54.75 23.65q.25-1.45 1-2.55.95-1.1 2.2-1.65l.1-.05-1.2-1.4-1.35-.6-1.7-.95-.6.3-.75.4-.65.55-.5.55q-.45.7-1.45.8-.7.1-1.35-.4-.75-.45-.95-1.1-.3-.9.1-1.6.2-.75.9-1.2l.7-.25 1.05-.45 1.1-.2.85-.15-.05-.75.25-1.8-2.4 1.3q-3.85 2.2-5.1 3.3l-1.5 1.15q-.65.25-1.35 0-.65-.2-1.15-.7-.4-.6-.35-1.3 0-.75.35-1.35l1-.8q1.8-1.15 5.6-2.65 2.2-.9 3.35-1.2l2.4-.55.85-.1q1-.95 2.7-1.25h.5l-.55-.2-1-.2-1 .2q-1.2.15-1.85-.75-.7-.8-.25-1.9.4-1.1 1.5-1.25l1.1.1q2.85.4 4.65 1.6.9.6 1.45 1.2.75.65 1.1 1.55l.4 1.55.1.3q1.85 1.75 2.5 4.45l.05-.25q.4-1.15 1.65-1.25t1.9.95q.7 1.05.15 2.2l-.85 1.8-1.65 2.35-2.05 1.75.3.85q.7 1.55.3 3.3-.5 2-1.9 3.15l-.05.3-.7 1.75q-.85 1.2-1.9 1.15-.65 0-1.05-.45-.5-.6-.45-1.75l-.75-.3q-.65-.2-1.5-.75l-.95-.7h-.15q-1.15.5-1.85.4-1.25-.05-1.45-1.1-.05-.55.5-1.25l.9-.95.7-.85zM3.95 33.3l.3-.4q.1-1.1.5-2.5L6 25.9q.45-2 1-3.3 1.4-2.95 4.45-4.65t6.35-1.25q3.2.4 5.7 2.85 2.5 2.4 3 5.7.9 5.15-3.65 12.1L20.8 40.1l-3.15 2.7H0v-6.3q2.6-1.4 3.95-3.2m9.7 1.5 1.3-.9.45-.45.65-.9q1.05-1.65.75-3-.1-1.2-1.05-2.15-.95-.75-2.05-1.2l-1.2-.25-1.25.35-1.25.8-.6.65q-.75 1-1 1.65-.55.9-.3 1.85 0 .4.3.85l.6.9q.7.9 1.95 1.45.45.3 1 .4zm6.5-9.65-1.1.95q-.4.75-.3 1.45.05.85.6 1.5t1.3.85l1.6-.15 1.25-1.05q.4-.65.3-1.5-.1-.9-.7-1.45-.5-.65-1.3-.8zm-6.1-.95q.65.65 1.5.9l1.7-.1 1.3-1.1q.45-.75.5-1.65-.05-.85-.6-1.55-.6-.75-1.35-.95-.85-.25-1.75 0-.85.3-1.35.95-.6.8-.55 1.75.1 1.1.6 1.75M8.5 21.35l-.7.75q-.4.7-.2 1.55.15.8.7 1.3.6.45 1.4.5.9.05 1.45-.5.65-.5.75-1.25.2-.8-.15-1.5t-1.05-1.05l-1.6-.05z"/><path fill="#fff" d="m8.5 21.35.6-.25 1.6.05q.7.35 1.05 1.05t.15 1.5q-.1.75-.75 1.25-.55.55-1.45.5-.8-.05-1.4-.5-.55-.5-.7-1.3-.2-.85.2-1.55zm5.55 2.85q-.5-.65-.6-1.75-.05-.95.55-1.75.5-.65 1.35-.95.9-.25 1.75 0 .75.2 1.35.95.55.7.6 1.55-.05.9-.5 1.65l-1.3 1.1-1.7.1q-.85-.25-1.5-.9m6.1.95 1.65-.2q.8.15 1.3.8.6.55.7 1.45.1.85-.3 1.5l-1.25 1.05-1.6.15q-.75-.2-1.3-.85t-.6-1.5q-.1-.7.3-1.45zm-6.5 9.65-1.7.05q-.55-.1-1-.4Q9.7 33.9 9 33l-.6-.9q-.3-.45-.3-.85-.25-.95.3-1.85.25-.65 1-1.65l.6-.65 1.25-.8 1.25-.35 1.2.25q1.1.45 2.05 1.2.95.95 1.05 2.15.3 1.35-.75 3l-.65.9-.45.45z"/></g></svg>