<svg xmlns="http://www.w3.org/2000/svg" xmlns:ffdec="https://www.free-decompiler.com/flash" ffdec:objectType="shape" width="77.55" height="43.3"><g fill-rule="evenodd"><path fill="#ccc" d="m28.1 18.15 1.65.55q3 .6 4.4-.5.8-.65 1.2-1.9l.45-2.35q.55-3.45 2.25-5.1 1.6-1.55 4.5-1.8 2.5-.2 4.95.6t4.3 2.5q1.85 1.75 2.8 4.15.95 2.45.75 4.95-.5 5.4-6.4 10.8-2.9 2.75-5.3 3.75-3.8 1.7-9.85.95-3.3-.45-5.5-1.45-4.05-1.8-7.1-6.3-1.4-2-1.6-3.55t.55-3.3q.9-2.25 2.55-3.25 1-.55 2.05-.55 1.1 0 1.95.6.5.35 1.4 1.2"/><path fill="#999" d="m26.65 1.3.6-.75q.65-.2 1.15.45l.4 1.2.1 1.3.2.95.05 1.1q.05 1.15.5 2.7l.15 1.2q-.1.85-1 1.05-.7.2-1.55-.45l-1.2-1.1-2.4-1.85-1.15-1.35-.15-.15-.9-.6-1.85-1.25-.3-.3-.7-.75-.45-1.05q-.15-.95.8-1.4l1.65.1.85.75.85.45.6.35.25-.55q.55-.5 1.55-.3 1.25.1 1.8.7l.1.1zm-15.45.8.25-.6q.25-.3.7-.2l.55.4.05.8q-.05.55.35 1.65L14.05 7q.4.5.4 1.25v.2l.3 1.2q.3 1.15 0 1.75-.5.9-1.8.7L11 11.4q-1.4-.55-3.85-.85l-3.55-.5-1.25-.35q-.8-.45-.7-1.45l.3-.75q-.15-.65.15-1.2Q.85 6.4.25 5.25T.5 3.1l1.35-.8 1.6-.35 1.6-.4L7.3 1.4l2.5.35.65.35.75.15zm21.7-.95.85.25.85.15 1.25-.15q.75-.1 1.2.3l.1.1 1.75-.6q1.05-.15 1.8.35l-.75 1.15-1.05.5q-1.7.75-3.15 2.1l-.45.45-.35.55-1 1q-.75.1-1.5-1.05L30.8 3.6l-.4-1q-.15-.7.2-1.05.3-.3 1.1-.4zm18.65 3.6-1.45-.9-.2-.25-1.6-.1-1.75-.25-1.85-.75 1.45-.5 1.7-.05 1.8.15q.35-.6 1.25-.7l1 .15.65-.2 2.25.15 2.2.3 2.25-.25 8.45-.7 1.8.3.7 1 2.6-.4.65.15q.4.2.25.55l-.55.5L69.3 4.4h-.1l-.1.05-1.05.35q-3.2 1.1-5 2.05-1.75.85-4 2.5-1.15.75-1.75.5l-.9-.9-1-1.1q-2.4-2.3-3.85-3.1m21.7.2L74.9 3.4q.75-.55 1.2-.15.35.3.05 1.15.75 0 1.2.7.4.7 0 1.35l-.65 1-.1.7-.05 4.8-.05 1.35q-.2.6-1 .85l-1.4.15-10.3.55-1.45.1q-.95-.1-1.1-.9-.2-.6.4-1.2l1.15-.7 3-1.9zm3.4 25.35q.7.55.7 1.3.1.75-.65 1.2l-1.4.2-1.25-.7-3.55-2.05-1.35-.95-1.4-.65q-2.3-.95-3.95-2.3l-1.75-1.3-.95-.4-.85-.55q-.35-.4-.4-.95-.05-.6.25-.95.4-.4 1.55-.5l4.8-.8 2.6-.55 2.7-.8 2.45-.4 1-.05q.65.1.55.65l-.5.65.4.85q.3.85.1 2.3l-.05 3.65.1 1.1.25 1v.65zm-13.6 12.3q-.8.6-1.6.3l-1.4-1.25q-2.5-3.45-4.45-6.9l-.45-1.2q-.1-.8.55-1.3.5-.4 1.6-.4l2.4.35 2.4.6 5.1.85 5.15.65q1.75.25 2.9.75.75.3.85.8.15.75-.75 1.05l-.05.05.5.85.1 1.5q-.15 1.15-.65 2-.65 1-1.75 1.15l-1.15-.05-1.2-.15-1.35.05-1.35-.25-1.4-.3-2.2.2-1.25-.1zm-8.1-4 1.45 1q.45.55.5.95.1.65-.3.95l-1.5.05-.55-.15-.35.35-.95.3-10.3.3-1.35-.2q-.75-.35-.85-1.15-.15-.75.45-1.3.4-.4 1.35-.6l3.3-.85 1.55-.45 1.8-.8q.6-.35 1.15-.35l.95.3zm-53.1-23q-.45-.9-.15-1.3.35-.5 1-.3l.9.55q3.65 2.95 6.6 4.75l.8.65q.7.75.15 1.65l-1.6 1.15q-2.3 1-4.55 2.4l-1.75.8q-1.15.3-1.7-.55-.45-.6-.15-1.2l-.1-.65L1 22.5v-.85l-.1-.7-.05-1.5.2-1.2.55-.7.25-.55.45-.7zm18.4 19q.8.35.7 1.5l-.45 1.7-.25 2.15L19.8 42l-1.05 1.05-1.05-.1q-.55-.3-.65-.8l-.55-.1-.55-.2-.7.3-1.4.25-1-.2-1.05.3-1.55.25-1.6.05-2 .45-1.95-.3-.6-.4-.95-.15q-.95-.1-1.5-.55-.55-.5-.75-1.6L1 38.5l.35-2.55q.35-1.7.85-2.3.2-.2.45-.35l-.45.1q-.5 0-.6-.4t.6-.75q3.95-2 8.35-3l2.5-.65 1.3-.3q.5.05.85.45t.35.9l-.6 1.25L11.1 37q1.15-.5 3.65-1.05t3.65-1.05q1.25-.6 1.85-.3"/><path d="m65.75 9.1-1.1 1.15q-1.05.75-2.25 1.2l-2.1.55-.5-.05q-.25-.25.25-.75l1.1-1.6Q62 8.4 63.2 7.55q.85-.55 1.45-.5.7.1 1.05.75.3.6.05 1.3m-5.2 10.15-.3-.35q-.05-.25.35-.45 2.35-1.4 5.05-1.1l1.25.4q.5.4.45 1.1 0 .65-.5 1.05l-1.5.3q-3.1.1-4.8-.95M38.35 6q1.9-.7 5-.9 4-.3 6.4.6 1.75.65 3.75 2.35L56.3 11q1.55 2.3 1.95 5.3.35 2.85-.45 5.7-1.35 4.85-5.8 9.75-2.3 2.6-4.45 3.9-2.35 1.4-5.35 2.15l-2.75.5-.3.25q-1.5 1.35-4.35 1.35-3.05 0-6.1-1.1-1.9-.65-2.85-1.5-1.35-1.1-1.65-2.65-3.45-2.4-5.5-6.15-2.15-4-1.65-7.8.3-2.05 1.45-3.75 1.2-1.8 2.95-2.65.4-.2.85-.3l.1-.05 1.45-.4.7-.2h.2l.6-.15 1.1-.05 1.5-.3 3-.85q1.7-.9 2.85-2.15l.85-.95.45-.35q1.05-1.6 3.25-2.55m4.3 7.45q.15-.55.65-1.55l.3-.5.85-.1q.4.15.6.65l-.05.95-.3 1.3-.4 1.55.4.5.55 1.3q.05.55-.45 1t-1.05.35l-.15-.05-.2.85-.35 1-.9.6q-.55.2-1.05 0t-.75-.75-.15-1.1l1.4-3.1-.8-1.3q-.6-.8-.65-1.45 0-.4.25-.75.3-.35.65-.3.4 0 .85.45l.7.7zm5.85 1.85.5-.9q.2-.35.6-.5l.8.05q.65.35.65 1.3l-.4 1.5-.4.9-.4 1 .55 1.1q.35.8.3 1.15 0 .6-.55.95-.55.4-1.1.2l-.65-.5-.5.85-.4.95-.6.8-1.5.1q-.7-.35-.9-1.25-.15-.75.4-1.55l.45-.5 1.6-2.85-.45-1.95q-.2-1.2.55-1.4.45-.15.8.2l.5.75zm-10.8-1q-.25 2.7-1.9 4.65-1.9 2.15-4.4 2.35-2.4.3-3.5-1.3l-.95-1.7q-.65-.9-1.85-1.1l-2.15.3q-2 1.05-2.25 3.7-.2 1.85.9 4.3 1.35 2.85 3.75 5 2.35 2.1 5.35 3.15 5.85 2.2 12.25 0 2.15-.7 3.4-1.65l3-2.75q3.4-3.85 4.65-7.2 1.65-4.65-.25-8.35-1.8-3.25-5.5-4.4l-7.15-.2q-1.85.5-2.6 1.35-.5.65-.65 1.8zm23.2 16.65-1.45-1.35-.7-.75-.5-.4q-.25-.35-.1-.6t.6-.25l1.05-.05 1.3.3 1.6.5q.75.2 1.1.5.65.55.55 1.45-.2.9-.95 1.2-1 .45-2.5-.55M28.8 15.7l.75.9.85.65.45.1-.2-1.6-.15-.7h-.05l-1.7.6zm8.95 13.15L37 27.5l-.9-1.15-.8-.55q-1.3-.75-2.75-.85l-1.2-.15q-.75-.35-.65-1.15 0-.8.75-1.05l.85-.15h1.2q1.45.15 2.7.75l1.45.9 1.1 1.4.5.85.4 1.2.1.8v.95q-.1 1.1-.6 1.3-.4.25-.75 0-.4-.15-.4-.6v-.45zm-5.2-14.65.3 2.1q.75-1 1.05-3.05l-1.35.85zm-15.2-7.95q.45.1 1.05.7.85.9 1.15 2.15l.25 1.55.1.95-.05.3q-.1.25-.4.15l-.4-.3-2.3-2.15q-1.25-1.15-1.2-2.05.05-.65.6-1.05t1.2-.25m-2.2 10.15.05.45-.35.35h-1l-2.05-.1-2-.7-1.1-.7q-.55-.6-.3-1.4t1.05-.95q.7-.2 2 .4 2.15 1.1 2.8 1.9l.5.55zm-4.2 11.35q-.6.1-1.15-.3-.55-.45-.55-1.05-.05-.55.45-1.1l1.05-.65L12 24.4l1.2-.3.95-.4 1.05.1.35.65-.25.7q-.25.2-.9.4l-1.7 1.25q-1 .85-1.75.95"/><path fill="#999" d="m37.7 14.3.15-2.05q.15-1.15.65-1.8.75-.85 2.6-1.35l7.15.2q3.7 1.15 5.5 4.4 1.9 3.7.25 8.35-1.25 3.35-4.65 7.2l-3 2.75q-1.25.95-3.4 1.65-6.4 2.2-12.25 0-3-1.05-5.35-3.15-2.4-2.15-3.75-5-1.1-2.45-.9-4.3.25-2.65 2.25-3.7l2.15-.3q1.2.2 1.85 1.1l.95 1.7q1.1 1.6 3.5 1.3 2.5-.2 4.4-2.35 1.65-1.95 1.9-4.65m10.8 1-.15.4-.5-.75q-.35-.35-.8-.2-.75.2-.55 1.4l.45 1.95-1.6 2.85-.45.5q-.55.8-.4 1.55.2.9.9 1.25l1.5-.1.6-.8.4-.95.5-.85.65.5q.55.2 1.1-.2.55-.35.55-.95.05-.35-.3-1.15l-.55-1.1.4-1 .4-.9.4-1.5q0-.95-.65-1.3l-.8-.05q-.4.15-.6.5zm-5.85-1.85-.05.25-.7-.7q-.45-.45-.85-.45-.35-.05-.65.3-.25.35-.25.75.05.65.65 1.45l.8 1.3-1.4 3.1q-.1.55.15 1.1t.75.75 1.05 0l.9-.6.35-1 .2-.85.15.05q.55.1 1.05-.35t.45-1l-.55-1.3-.4-.5.4-1.55.3-1.3.05-.95q-.2-.5-.6-.65l-.85.1-.3.5q-.5 1-.65 1.55m-4.9 15.4.25.7V30q0 .45.4.6.35.25.75 0 .5-.2.6-1.3v-.95l-.1-.8-.4-1.2-.5-.85-1.1-1.4-1.45-.9q-1.25-.6-2.7-.75h-1.2l-.85.15q-.75.25-.75 1.05-.1.8.65 1.15l1.2.15q1.45.1 2.75.85l.8.55.9 1.15z"/></g></svg>