<svg xmlns="http://www.w3.org/2000/svg" xmlns:ffdec="https://www.free-decompiler.com/flash" ffdec:objectType="shape" width="74.5" height="38.2"><g fill-rule="evenodd"><path fill="#fff" d="m9.6 29.5.3.5.25.65.5-.4q.55-.45 1.05-.45.75 0 .85.65.05.4-.3.75-.35.25-.75.45l-.7.45.55 1.25.15.5q-.1.6-.65.7-.45.15-.85-.35l-.4-1.25-1.15.9-.65.15-.3-.3q-.05-.25.05-.5l.6-.65L9.2 31.5 8.8 30q-.3-.55-.05-.8l.5-.05zm7.65 2.25-1.1-1.45-.65-.75-.15-.25h-.05l-.8-.1-1.4-.15q-.95-.2-.85-.95.05-.65.9-.85l1.3-.1 1.1-.15.15.05.05-.05.6-.45.3-.45 1.5-.8.5.1q.25.2.05.65l-.45.6-.35.85-.35.95.2.4.5 1.15.45.6q.25.75-.2 1.2l-.7.25z"/><path fill="#999" d="m3.1 20.65 1-1.7-.2-.75-.4-1.2-.25-.6-.1-.75-.05-1.8q.35-1 1.4-1.1l1.2.3 1.05.65q.9.6 2.2 1.1l.7.35 1.3-.2q2.95-.25 5.85.85 2.85 1.15 4.85 3.4l1.8 2.6.25-.15-.2-.85-.15-1.55-.3-1.35-1.3-5.95.05-.9q.1-.85.35-1.15.5-.75 1.8-.95l2.15-.05q1.2.25 1.8 1.15l.45 1 .35 1.25.2 2.65.05 4.9 2.6-.3q3.65-.15 6.95 1.05l.35.15-.1-.75q-.25-3 .15-6.1.1-.75.35-1.35l.9-.95q.85-.7 1.8-.75 1.1-.15 1.85.45l.95 1.35q.85 1.9.65 3.85l-.4 2.45-1.1 4.1-.3 1-.05.05.75 1.45q.4.95.5 2.6l-.05 1.55q1.4-.85 2.25-2.4.8-1.35 1.15-3.55.25-1.75.15-4.4l.05-1.65q.15-.9.6-1.45.65-.65 1.65-.65 1.05.05 1.65.75.6.75.6 2.55.2 7.05-1.75 10.55l-.85 1.3q-1.7 2.2-4.45 3.4-2.3 1-4.8 1-1.9 1.15-4.8 1.6-6.8 1.1-12.1-1.75l-1.4-.9-.55.55q-2.7 2.8-5.95 3.35-3 .6-6.75-.8Q7.75 36.5 7 36l-.55-.35-.5-.05-3.5-.2q-1.7-.1-2.2-.85Q-.4 33.6.6 32q.7-1.25 1.65-2.2l.2-.2-.35-1.75q-.4-2.75-.15-4.15.3-1.6 1.15-3.05m7.6 3.9.25.3.3.1.7-.05.4-.55.05-.75.2-.75 1.4.2.5.05.35-.3q.05-.25-.3-.5-.6-.45-1.7-.75l.05-.4.45-1.65-.15-.5-.35-.15-.7-.1-.7.6-.4 1.5-.05.3-1-.35-.9-.3q-.55 0-.85.4t-.05.9l.7.45 1.8.45-.1 1.25zm6.55 7.2.55.3.7-.25q.45-.45.2-1.2l-.45-.6-.5-1.15-.2-.4.35-.95.35-.85.45-.6q.2-.45-.05-.65l-.5-.1-1.5.8-.3.45-.6.45-.05.05-.15-.05-1.1.15-1.3.1q-.85.2-.9.85-.1.75.85.95l1.4.15.8.1h.05l.15.25.65.75zM9.6 29.5l-.35-.35-.5.05q-.25.25.05.8l.4 1.5-1.05 1.05-.6.65q-.1.25-.05.5l.3.3.65-.15 1.15-.9.4 1.25q.4.5.85.35.55-.1.65-.7l-.15-.5-.55-1.25.7-.45q.4-.2.75-.45.35-.35.3-.75-.1-.65-.85-.65-.5 0-1.05.45l-.5.4L9.9 30z"/><path d="M69.4 16.75q-.25 2.55-1.65 4.7t-3.55 3.4l.2.15 1.25 1.5.75.8.7 1.1q.75 1.65 1.1 4.15.3 2.75-.5 4.1l-.5.7H44.25l-.75-1.1q-.6-1.35-.5-3.95l.05-.25H41.8l-1.5.25q-1.8.5-3.35 1.35l-.8.55-.6.35-.3-.35.1-.45q.6-1.6 1.05-2.3.6-.8 1.35-1.35l.9-.6.95-.4 2.15-.45-.8-.35-1.05-.65-1.15-.9-.75.15-3.25.35-1.05-.1-1.4-.1q-.8-.1-1.1-.75-.2-.4.15-1.4l.2-.45.8-.85.45-.35.2-.25.35-.3q-1.05-1.25-1.5-2.3-.5-1 0-1.55.25-.25.65-.25l.7.2 1 1.05.6.65v-.65q.25-1.45.8-2.55.35-.85.9-1.3.75-.55 1.5-.25.5.25.6.75l.35.65.1 1.85.1.95 1.2 3.55.9 1.2q.8 1 1.65 1.45l2.15 1.05.3.2q.95-1.2 2.05-1.95l-.6-.3q-2.2-1.2-3.3-2.35-1.35-1.5-2-3.7-.8-2.7-.4-5.6l.1-.6-1.5-.3q-1.2-.45-2.2-2.65l-.55-1.55.15-1.5q.55-2.4 1.6-3.7 1.15-1.45 3.7-2.55l1.75-.5h1.2l1.55.3q1.25.5 2.3 2.1l2.55-.9q4.9-1.25 9.5.7l.15-.2Q62.5.9 64.1.35l4.55-.1L70.3.8l1.3.95q1.95 1.8 2.6 4 .75 2.65-.5 4.65-.95 1.4-2.5 2.1l-1.95.65q.35 1.9.15 3.6m-15.5 3.8q.3-.3 1.35-.4l.7.05.75.2q.35-.05.55-.3l.15-.65q-.1-.6-.75-.95l-1.1-.2.15-.3v-.35q-.25-.75-.95-.65-.75.1-.85.8l.2.65q-1 .2-1.65.8-.7.6-.55 1.25.1.65.7.8.55.15 1-.3zM48 10.25h-.25l-.1.7-.55 1.45-1.3 1.95-.9.75-1.05.65-.3.1.15.45.7 1.05q.95.95 2.3 1.3l.25.05-.15.35-.1.75-.3.55q-.25.55-.05 1.15.15.6.65.9l1.15.25q.6-.1 1-.5.4-.45.4-1.1.05-.65-.35-1.1l-.55-.55-.25-.65.9-.2.85-.35q1.75-1.1 2-3.05.3-1.95-.95-3.55l-.8-.75q-.95-.6-2.4-.6m8.5 2.9q-.1 1.3.05 1.95.3.8.9 1.4Q58.95 18 61 18q1.55-.1 2.75-1 1.35-.9 1.7-2.25l.05-.3-.65-.3-.6-.4q-2.45-1.9-3.25-3.8l-.15-.45q-1.5-.1-2.45.7l-.7.6q-.9.85-1.1 1.6z"/><path fill="#fff" d="m56.5 13.15.1-.75q.2-.75 1.1-1.6l.7-.6q.95-.8 2.45-.7l.15.45q.8 1.9 3.25 3.8l.6.4.65.3-.05.3q-.35 1.35-1.7 2.25-1.2.9-2.75 1-2.05 0-3.55-1.5-.6-.6-.9-1.4-.15-.65-.05-1.95m-8.5-2.9q1.45 0 2.4.6l.8.75q1.25 1.6.95 3.55-.25 1.95-2 3.05l-.85.35-.9.2.25.65.55.55q.4.45.35 1.1 0 .65-.4 1.1-.4.4-1 .5L47 22.4q-.5-.3-.65-.9-.2-.6.05-1.15l.3-.55.1-.75.15-.35-.25-.05q-1.35-.35-2.3-1.3l-.7-1.05-.15-.45.3-.1 1.05-.65.9-.75 1.3-1.95.55-1.45.1-.7zm5.9 10.3-.3.45q-.45.45-1 .3-.6-.15-.7-.8-.15-.65.55-1.25.65-.6 1.65-.8l-.2-.65q.1-.7.85-.8.7-.1.95.65V18l-.15.3 1.1.2q.65.35.75.95l-.15.65q-.2.25-.55.3l-.75-.2-.7-.05q-1.05.1-1.35.4"/></g></svg>