<svg xmlns="http://www.w3.org/2000/svg" xmlns:ffdec="https://www.free-decompiler.com/flash" ffdec:objectType="shape" width="77.1" height="42.7"><g fill-rule="evenodd"><path fill="#999" d="M61.7 3.5h1.35l2.45.05h9.65l.3.05.2.05.2.15.15.1.1.1.1.1.05.1.1.1v.1l.05.1.05.1v.6l-.05.1-.05.15v.1l-.1.1-.05.1-.1.1-.1.1-.15.1-.2.1-.2.05-.3.05-2.85.05H58.8l-2.35-.05-4.25-.05h-5.6l-4.55-.05-3.7-.05h-3.4l-6.65-.05H13.2L11.85 6h-1l-.6-.05-.7-.05-4.2-.05h-.5L4.5 5.8l-.25-.05H3.9L2.75 5.7l-.55-.05H2l-.2-.1-.15-.05-.05-.05h-.25l-.2-.1-.15-.1-.05-.1-.05-.1-.05-.1.05-.1v-.1l.05-.1.1-.1.1-.1h.05l.15-.05.3-.05.15-.1.05-.05H2l.2-.05.55-.05H3.9l.35-.05L4.5 4h.35l.5-.05 4.2-.05h.7l.6-.05 1-.05H28.3l6.65-.05 3.4-.05 3.7-.05h4.55l5.6-.05 4.25-.05h5.25zm13.6 4.7h.7l.35.05.2.1.2.1.1.1.05.1.1.1v.1l.1.1v.65l-.05.1-.05.1-.05.1-.05.1-.1.1-.15.1-.1.1-.15.1h-.1l-.3.05h-.7l-1.65-.05h-1.6l-1.4-.05h-8.6l-7.15.05h-6.7l-1.4-.05-1.1-.05h-1.25l-3-.05-1.15-.05h-1.6l-1-.05-1.1-.05-1.35-.05h-1L32.9 10l-1.05-.05h-.2l-.55-.05-.25-.05-.15-.1-.05-.1-.1-.15v-.1l-.05-.1.05-.1v-.1l.1-.1.05-.1.15-.1.25-.05.55-.05.2-.05h1.05l1.35-.05 1-.05 1.35-.05h1.1l1-.05 1.6-.05h1.15l3-.05 1.25-.05h1.1l1.4-.05h6.7l7.15.05h8.6l1.4-.05h.5l.55-.05h2.2m-17.05 3.5h9.3l3.85.05h4.05l.35.1.2.1.2.1.1.1.05.1.1.1.05.1.05.1v.4l-.05.1-.05.1-.1.1-.05.15-.1.1-.2.1-.2.1-.35.05H72.5l-1.1.05H52.3l-1.35-.05h-2.7l-2.1.05h-.9l-1.05-.05-3.85-.05H38.3l-.7-.05-.95-.05h-.55l-.6-.05-.4-.05h-.3l-.2-.05-.2-.05-.3-.05-.5-.1-.25-.05-.2-.05-.2-.1-.15-.1-.05-.1-.05-.1-.05-.1.05-.1v-.1l.05-.1.1-.1.1-.1H33l.15-.05h.15l.15.05h.15l.1.05.25-.05.2-.05h.25l.2-.05h.2l.3-.05.4-.05h.6l.55-.05.95-.05h.7l2.05-.05 3.85-.05h14.05zm.9 4.25h.9l4.05.05 1.3.05h3.2l1 .05 1.4.05h3.7l.2-.05h1.2l.25.05.2.05.15.1.15.1.05.1.05.1.05.1v.45l-.05.1-.05.1-.05.1-.15.1-.15.1-.2.05-.25.05h-1.2l-.2-.05H71l-1.4.05-1 .05h-3.2l-1.3.05-4.05.05h-.9l-5.1-.05-2.2-.05H50.5l-4.4-.05-7.15-.05H37.9l-.85-.05-.7-.05h-.55l-.4-.05-.15-.05-.2-.05h-.25l-1.2-.05-.2-.05-.1-.1-.15-.1v-.45l.15-.1.1-.1.2-.05 1.2-.05.25-.05h.2l.15-.05.4-.05h.55l.7-.05.85-.05h1.05l7.15-.05 4.4-.05h1.35l2.2-.05h5.1zM55.2 29.4h5.75l1.15.05 1.9.05h4.35l1.15.05 2.05.05h.35l.4-.05h.55l1-.05h.95l.2-.05h.2l.8.05.3.05.15.1.1.1.05.1.05.1v.45l-.05.1-.05.1-.1.1-.15.1-.3.05-.8.05H75l-.2-.05h-.95l-1-.05h-.55l-.4-.05h-.35l-2.05.05-1.15.05H64l-1.9.05-1.15.05H50.7l-1.45-.05-2.05-.05H35.5l-1.1-.05-1.25-.05-1-.05-.2.05-.2.1h-.1l-.25-.1-.2-.1-.15-.1-.1-.1-.05-.1-.05-.1v-.3l.05-.1.05-.15.15-.1.15-.05.15-.05.2.05h.6l.2.05h.75l1.25-.05 1.1-.05h11.7l2.05-.05 1.45-.05zm-7.55 4.95h.15l6.9.05h5.55l2.6.05h1.3l1.4.05 1.5.05h4.25l2.15-.05.25-.05H76l.35.05.2.1.15.1.1.1.1.1.05.1.05.15v.1l.05.1v.3l-.05.1v.1l-.1.1-.05.1-.05.1-.15.1-.15.1-.15.1h-.1l-.25.05h-.65l-.3-.05h-1.6l-2.15-.05h-4.25l-1.5.05h-1.4l-1.3.05-2.6.05H39.7l-1.25-.05-1.95-.05H35l-.55-.05-.55-.05h-1l-1.1-.05-.75-.05h-.65l-.55-.05-.2-.05h-.3l-.25-.05h-.45l-.05.05h-.7l-.25-.05-.2-.1-.1-.1-.05-.1v-.35l.05-.1.1-.1.1-.1.2-.05.15-.05.35-.05.15-.1h.15l.55-.05.25-.05h.3l.2-.05.55-.05h.65l.75-.05 1.1-.05h1l.55-.05.55-.05 1.5-.05h1.95l1.25-.05h7.95zm17.8 3.05h2.85l2.35.05h.95l.3.05h3l.3.05.35.05.2.1.15.1.1.1.1.1.1.1.05.15.05.1.05.1v.6l-.05.1-.05.1v.1l-.1.1-.05.1-.1.1-.15.1-.15.15-.15.05-.1.05h-.25l-.3.05h-3l-.3.05h-.95l-2.35.05h-2.85L65 40.1h-.25l-.25-.05-.25-.05h-.45l-.35-.05-2.5-.05H54.7l-2.1-.05h-3.4l-3 .05h-5.5l-3.75.05h-.4l-4.4-.05H25l-3.3-.05-.95-.05-2.7-.05h-1.2l-.6-.05-3.4-.05H1.1l-.3-.1-.2-.1-.1-.1-.15-.1v-.1l-.1-.1v-.5l.05-.1.05-.1.1-.1.1-.15.15-.1.15-.05.25-.05h11.75l3.4-.05.6-.05h1.2l2.7-.05.95-.05 3.3-.05h7.15l4.4-.05h.4l3.75.05h5.5l3 .05h3.4l2.1-.05h6.25l2.5-.05.35-.05h.45l.25-.05.25-.05h.7zM47.9 31.6h11.05l3.8.05 4.8.05h.35l.25.05h.25l1-.05h5.75l.3.1.2.1.15.05.2.1.25.1.1.1.1.1v.1l.05.1v.2l-.05.1-.05.1-.15.1-.15.1-.15.1-.25.05-.15.1-.15.1h-.25l-.25.05h-.5l-2-.05h-4.5l-.35.05-4.8.05h-16.6l-10.05-.05-.7-.05h-.9l-.4-.05-.25-.05-.35-.05H33l-.35-.05-.2-.05h-.15l-.3-.05-.15-.05h-.3l-.15-.05-.1-.05h-.75l-.2-.1-.1-.1-.05-.1-.05-.1.05-.1v-.1l.1-.1.05-.1h.05l.15-.05.75-.05h.1l.15-.05.3-.05H32l.3-.05.15-.05h.2l.35-.05.5-.05.35-.05h.25l.4-.05.9-.05h.7l10.05-.05h1.75z"/><path fill="#999" d="M18.55 35.55Q17 35.05 16 34.3q-.9-.6-1.45-1.35-1-1.3-1.55-3.25-.35-1.35-.6-3.55-.25-1.7-.1-2.85l.5-1.85q.7.6 1.7.9l2.9.1 2.2-.95q2.4-1.55 3.25-4.65.7-2.55.05-5.8l-.6-1.85-1-1.75-.35-.55q1.1-.2 2.95.55l1.6.75q1.4.8 2.35 2.2.9 1.45 1.05 3.05l-.2 3.05-.05 2.9v2.9q-.05 2.95-.85 4.9l-.05.35q-.65 2.65-2.35 4.65-1.75 2.15-4.2 2.85zM20.8 6.7l-.5-.65 1.05.1-.05.1-.1.1-.1.1-.1.1-.2.1zM10.65 34.9l-.55-.45q-1.6-1.25-2.15-2.5l-.7-1.5v-.5L7 27.25q-.25-3.2.05-7.7l.65-7.7v-1.1L9.8 8.7q1.2-1.25 2.4-1.6l2.5-.35 1.45.05 1 .45h-.35l-.5.05h-1.75l1 .6q1.2.85 1.95 2.25.85 1.65.75 4.2 0 1.9-.65 3-.6 1.05-1.7 1.55l-.5.2-.1-.05q-.6-.45-.7-1.5-.05-1.5.35-2.6l.6-1.6q.3-.9.1-1.55L14 11.7l-1.4 1.05q-1.3 1.7-1.25 4.65v.35l-.35.5q-.95 1.3-1.3 2.75-.6 2.05-.3 4.65l.8 3.6-.1.05.25.55.1.45.75 1.95 1.85 2.45.9.85.45.2-2.85-.5zm-8-22.05h.25l1.25.25.6.7-.05.7-.6 7.35-.05 1.3-.2.85q-.5 2.7-.55 4.7l-.15 2.15q-.15 1.1-.9 1.75l-.15.15q-.35-.65-.55-1.3l-.25-2.1-.1-2.65v-3.8q.2-3.35.55-6.1.3-2.35.9-3.95"/><path d="m63.6 37.2-1.2.85v.15q.2 1.3-.3 2.05-.35.45-1.1.75-1.7.65-2.6-.5-.4-.45-.45-1.05l-.65-.05q-2.85-.15-4.3-2.3-.6-1-1-3l-.2-1.5q.05-1.8 1.6-3.7l.7-.75.8-.55q-2.05-3.1-2.55-8.45-.45-3.5.2-6 .7-2.55 2.3-3.9-.35-.8-.25-1.7.1-1.2 1.05-2.1-.45-.65-1.15-.55l-1.15.3q-1.85.65-3.5-.3l-.9-.8q-.5-.7-.3-2.3.2-1.1.6-1.5L50 0l.7.3q.3.45.05 1.05l-.3 1.05q0 .75.5.9l.8-.15q2.05-1.1 2.7-1.15 1.95-.25 3.3 1.4.8.85.85 1.8.15 1.15-.6 1.9l-.45.6.1.3q1.65-.3 3.3.4 2.4.95 3.6 3.4 1.2 2.3 1.1 6l-.55 3.95-.75 2.65-1.05 2.75-.1.2 1.35 1.4q.65-.15 1.3 0 .85.15 1.45.75l.7 1.05q.2.7 0 1.45l-.8 1.25q-.9.65-1.85.65-.35 1.95-1.75 3.3m6.95-32.05 2.8-.2q.7.1 1.15.35.5.15.65.55.35.7-.3 1.25.55.45.7.95l.15 1.15V14q0 1.45-.5 2l-.3.25q1.1.5 1.2 1.7 0 1.05-.7 1.65l.05 1-.05 1.4.25 1.6-.1 2.4-.3 2.35q-.15 1.15.2 2.55l.4 1.55q.15.75-.1 1.35l.75.65q.3.75-.1 1.4l-1.2.9-1.15.75-.5.5-.5 1.05-.7.95q-.75.75-1.85.9-1.15.1-2.05-.45l-.75-.6-.4-.3q-.2 0-.5.3-.8.9-1.1 1.9l-.45.7q-.35.1-.5-.15l-.25-.5q-.1-.7.35-1.85.35-.95.8-1.6.65-.8 1.4-1 1.1-.3 2.2.55.7.5 1.05.4l.55-.6 1.3-2.15q.2-.25.65-.55-1.2-.45-2.45-2l-.9-1.3q-1.05-1.75-1.3-4.45l.05-1.85q.2-2.8 2-5.9l.2-.25q-1.25-.7-1.95-1.6l-1-1.7-.6-1.55q-.15-.8-.05-2.45l.1-1.55-.9-.45q-.7-.5-.9-1.5-.2-.9.1-1.85.45-1.2 1.3-1.7.7-.4 1.5-.3 1.2.1 2.05.9.25-.25.5-.35m-1.9 7.35q-.05.55.35 1.05l.95.6 1.15-.25.65-.95-.25-1.15q-.35-.55-.9-.7-1-.25-1.65.55-.3.4-.3.85m-18.9 6.35-.35.4q.65 1.1 1.1 2.55 1.65 5.1 0 9.45-.85 2.3-2.6 4-1.8 1.8-4.05 2.45l-1.55.3q-.85 2.1-2.8 3.05-1.2.55-2.5.45-1.65-.05-2.95-1.2-.5-.5-.9-.5-.4-.1-.7.4l-.35.75-.4 1.2-.15.35-.5.2q-.35 0-.55-.25-.35-.4-.25-1.15l.35-1.4q.5-1.25 1.05-1.75.35-.3 1.05-.6 1.15-.5 1.95-.25l1.5.75q.8.3 1.65 0l1.35-1 .15-.3-.2-.15q-2.2-1.95-2.9-4.8-.75-3.05.4-6.65.75-2.2 2.75-5.9l-1.1-1.75q-.7-1.25-.9-2.2-.25-1.15 0-2.7l.25-1.25-.95-.45q-1.2-.7-1.6-2-.4-1.35.3-2.55.6-.9 1.65-1.2l2.1-.05q1.15.35 1.9 1.4l.25.45q1.5-.85 2.55-1.1V5.6q.3-1.45 1.4-1.85l1.8.2q1.3.6 1.45 1.9l-.05.55.8.75q1.45 1.6 2 3.9.5 2.15.05 4.4-.45 2.2-1.5 3.4m13.55 12.8.45-.45.1-.65q-.15-.3-.55-.3-.35.1-.6.3l-.55.55-.25.4-.75.6-.6.65q-.15.3 0 .7l.4.55q.7.4 1.3-.2l.45-1.25zm-6.8 6.8.25-.5 1-1 .25-.3-.05-.45q-.15-.25-.4-.25l-.55.25-1.45 1.15q-.4.6-.05 1l.5.25zm2.25-7.3v-.55q-.15-.35-.55-.25l-.3.15-.15.55-.05.85-.3.3-.9-.05-.95.1q-.25.45.15.75l.75.25h.9l.2.35q.25.3.95.55l.65.5.5-.35-.15-.75-.25-.4-.2-.5-.45-.65zM44.7 14.65l-.05.85.15.6q.2.4.5.25l.3-.55.05-.6.25-.3.1-.1.4-.05.75.2.7-.2.45-.35q.15-.35-.25-.75l-.8-.2-.55-.15-.2-.5q-.15-.2-.65-.35l-.7-.25-.2.1-.2.2.1.45.15.4-.1.35q-.15.15-.15.4v.3zm-5.55-.5q.85.35 1.5 0 .75-.35 1-1.1.25-1.1-.45-1.8-.8-.8-1.8-.45-1 .25-1.25 1.35-.1.6.15 1.15.3.6.85.85m6.4-5.85q-.15.9.4 1.6.4.45 1.1.55l1.2-.15.8-.9q.25-.65.1-1.2l-.7-1-1.15-.4q-.65.05-1.15.45-.5.45-.6 1.05m-27 27.25.95.25.85.1 1.8-.45 2.45-.7q1.3-.45 2.15-1.15 1.35-1.05 2.6-3.7 3.7-8.05 2.35-14.95-.5-2.8-2-4.9-1.6-2.4-3.95-3.25-1.35-.5-4-.65h-.4l-1.05-.1.5.65.15.2.35.55 1 1.75.6 1.85q.65 3.25-.05 5.8-.85 3.1-3.25 4.65l-2.2.95-2.9-.1q-1-.3-1.7-.9l-.5 1.85q-.15 1.15.1 2.85.25 2.2.6 3.55.55 1.95 1.55 3.25.55.75 1.45 1.35 1 .75 2.55 1.25M.7 35.1l-.7-.8V9.15l1.15-.05L2.5 8.05q1.15-.7 2.4-.65 1.2.05 1.95.75l1-1.1L9.3 5.5q.75-.75 1.45-1l.6-.2.9-.15 3.65-.3 1.15.15.8-.4q4.85-1.55 9.45.4 4.2 1.85 6.3 5.8l.4.8q1.5 3.15 1.5 7.85-.05 5.45-1.9 10.45l-1.65 3.75q-1.2 2.35-2.5 3.45-1 .85-2.8 1.55-4.55 1.95-9.45 2.45-2.25.3-3.95-.05-2.95-.6-6-3.4l-1.5-1.6q-.95 1-2.15 1.15-1.55.15-2.9-1.1m27.85-24.05.05.2-.35-.6zm-11.4-3.8-1-.45-1.45-.05-2.5.35q-1.2.35-2.4 1.6l-2.1 2.05v1.1l-.65 7.7q-.3 4.5-.05 7.7l.25 2.7v.5l.7 1.5q.55 1.25 2.15 2.5l.55.45q1.45 1.15 2.7 1.55l2.85.35-1.3-.85-.5-.2-.45-.2-.9-.85-1.85-2.45-.75-1.95-.1-.45-.15-.6-.8-3.6q-.3-2.6.3-4.65.35-1.45 1.3-2.75l.35-.5v-.35q-.05-2.95 1.25-4.65L14 11.7l1.65.1q.2.65-.1 1.55l-.6 1.6q-.4 1.1-.35 2.6.1 1.05.7 1.5l.1.05q.6.45 1.8 0 1.1-.55 1.9-1.7.7-1.1.85-2.45.3-2.2-.85-4.95-.8-1.95-1.95-2.75m-14.5 5.6q-.6 1.6-.9 3.95-.35 2.75-.55 6.1v3.8l.1 2.65.25 2.1q.2.65.55 1.3l.25.5h-.2l.4.4.5-.2q1.15-.95 1.3-2.5l-.05-1.8q-.35-2.75-.25-6l.05-1.3.6-7.35.05-.7.05-3.45q-.65-.3-1.35.7-.45.75-.8 1.8"/><path fill="#fff" d="M68.65 12.5q0-.45.3-.85.65-.8 1.65-.55.55.15.9.7l.25 1.15-.65.95-1.15.25-.95-.6q-.4-.5-.35-1.05m-23.1-4.2q.1-.6.6-1.05.5-.4 1.15-.45l1.15.4.7 1q.15.55-.1 1.2l-.8.9-1.2.15q-.7-.1-1.1-.55-.55-.7-.4-1.6m-6.4 5.85q-.55-.25-.85-.85-.25-.55-.15-1.15.25-1.1 1.25-1.35 1-.35 1.8.45.7.7.45 1.8-.25.75-1 1.1-.65.35-1.5 0m5.55.5.05-.25v-.3q0-.25.15-.4l.1-.35-.15-.4-.1-.45.2-.2.2-.1.7.25q.5.15.65.35l.2.5.55.15.8.2q.4.4.25.75l-.45.35-.7.2-.75-.2-.4.05-.1.1-.25.3-.05.6-.3.55q-.3.15-.5-.25l-.15-.6zm14.05 16.5-.15.85.45.65.2.5.25.4.15.75-.5.35-.65-.5q-.7-.25-.95-.55l-.2-.35h-.9L55.7 33q-.4-.3-.15-.75l.95-.1.9.05.3-.3.05-.85.15-.55.3-.15q.4-.1.55.25zm-2.25 7.3-.5.15-.5-.25q-.35-.4.05-1L57 36.2l.55-.25q.25 0 .4.25l.05.45-.25.3-1 1zm6.8-6.8-.6.9-.45 1.25q-.6.6-1.3.2l-.4-.55q-.15-.4 0-.7l.6-.65.75-.6.25-.4.55-.55q.25-.2.6-.3.4 0 .55.3l-.1.65z"/></g></svg>