<svg xmlns="http://www.w3.org/2000/svg" xmlns:ffdec="https://www.free-decompiler.com/flash" ffdec:objectType="shape" width="76.2" height="42.4"><g fill-rule="evenodd"><path fill="#999" d="M6.55 18.6q-2.85 7.9-2.4 12.9.15 1.45.85 4.5.8 2.7 1.55 3.95L8.6 42.4H3.45q-1.35-2.1-2.2-5.05Q-.45 31.8.2 26.8l.85-4.15Q2.65 16.3 4.8 11.6l.05.05.05-.05.2-.7.25-.6.15-.3.5-1q1.55-2.65 2.05-3.25 1.85-2.6 4.5-5.2l.6-.55h7.95q-3.45 1.25-6.35 4.15l-.1.1-.7 1.1-2.6 3.35-2.45 4.15-.1.25zM72.2 29.75q1-5.7-.15-11.45-1.2-5.85-4.4-10.6-2.3-3.4-5.3-5.75Q60.8.8 59.2 0h6.6l.35.35q4.75 4.55 7.4 10.8 2.6 6.2 2.65 12.8.1 4.7-1.3 9.35l-1.55 4.35-2.05 4.1-.4.65h-4.05q4.1-5.6 5.35-12.65m-22.1 11.3q4.25-2.95 7.7-9.7l2.15-5.1q.9-3.05 1.05-6.4.35-8.4-4-12.95-1.5-1.6-4.1-3.1Q48.35 1.2 42.1 0h11.75q3 1.55 4.9 3.35 2.75 2.65 4.3 6.5 1.5 3.65 1.6 7.7.2 7.15-3.7 15.2-3 6.05-7 9.65h-6.2zM45.1 11q1.05.5 1.35 1.2l.05 1.05q1.1 1.35 1.6 2.8.95 2.85-.2 6.55-1.2 4.3-3.85 6.8l1.3.3.75.65q.2.6-.3.85.8.8.5 1.75L48.7 30q2.35-3.6 2.7-8.05.4-4.45-1.35-8.4-.85-2-2-3.2-1.45-1.6-3.7-2.55-2.9-1.2-7.95-1.5-2.85-.2-4.65.05-6.15.75-10.95 5.7-4.05 4.2-6.05 10.85-1.8 6.05-.15 10.15 1.6 3.7 7.3 7.35l3.4 2h-7.45l-3.05-2.35q-2.6-2.3-3.8-4.9-2.7-5.6-.25-13.8.8-2.6 1.9-4.9l.1-.3.45-.9q1.1-2 2.45-3.65v-.1q1.05-1.4 2.25-2.65 5.55-5.6 12.65-6.65 2.85-.4 6.55-.05 7.1.55 11.15 3.35 4.4 3.05 6.1 8.65 1.5 5 .3 10.65-.6 3-2.05 5.85-3.05 5.85-9 8.65-2.1 1-4.95 1.6-5.15 1.1-9.3 0-2.95-.7-5.35-2.35-2.2-1.6-3.45-3.4-3.1-4.3-2.45-10.1.7-5.25 4.25-9.55 2.15-2.6 4.95-4.35 2.95-1.85 6.15-2.4l6.55.4q1.75.5 3.25 1.35zm-1.45 5.35-4.4.3-.1.05q-.3.25-1.1 0l-.15-.05H35q-1.4.25-2.75 1.15-2.4 1.65-3.55 4.8-.75 2-.15 3.45.6 1.55 2.35 2.2l3.2.55q3.45.2 5.55-.95 3.1-1.6 4.55-6.05.9-2.5.3-4.35L44 16.3zm-.6 18.1-10.65.1-1.75-.2q-1.05-.35-1.1-1.25v-.7l-.2-.55q-3.25-1.45-4.4-4.35-1.35-3.6 1.15-7.8 1.4-2.5 3.5-3.9l-.6-.65-1.55 1.15q-3.75 3.4-4.8 8.15-.5 1.85-.35 3.5.15 2 1.25 3.9Q24.6 33.7 26.3 35q3.35 2.5 7.85 2.6 4.3.15 8.25-1.9l2.3-1.4z"/><path d="m56.75 14.2.3.05.2.1.15.1.05.1.05.15.05.1.05.1.05.1v.7l.05.1v1.55l.05.1v4.25l-.05.1v2.15l.05.1v.1l-.05.15v.1l-.05.1v.1l-.1.1-.05.1-.1.1v.65l-.1.1v.1l-.1.1-.05.1-.05.1-.15.1-.15.1-.15.1-.05.05h-.15l-.25.05h-2.7l-1.6-.05h-.75l-.3-.05-.4-.05-.3-.05H50l-.25-.1-.25-.1-.1-.1-.1-.1-.1-.1-.05-.1-.05-.1-.05-.1-.05-.05-.05-.1-.05-.15-.05-.1-.05-.1v-.2l-.05-.1v-3.9l.05-.1V15.8l.05-.15v-.1l.05-.1v-.1l.05-.1.05-.1.1-.1.1-.1.05-.05v-.05l.05-.1.05-.1.1-.1.05-.1.15-.1.15-.1.2-.1.15-.1.1-.05H52q0-.35.15-.55.3-.35 1.05-.45l1.25.1q.7.3.6 1l1.15.05.3.05.1.05h.15zm-9.65.75q.05 3-1.15 5.15-1 1.9-2.85 3.1l.1 1.25.1.7.6.35q1.5.6 2.05 2.2l.3 1.1.1 1.55q-.1 1.5-2.1 3.3.4.55.25 1.3-.05.75-.6 1.15-.7.55-2.4.5l-.7-.05-.15.2L39.6 38l-1.55.15-.9-.15q-.9.75-2.45.4-1.2-.35-1.6-1h-.15l-1.1.3-1.3.15L29 37.5l-.7-.65-.4-.8q-.1-.7.45-1.35l-1.1-1.4-.35-.7-.15-.4q-1.9.6-2.95 1.2L22 34.7l.75-.15 1.45-.05 1.45.4q.7.45.9 1.1.35 1.2-.6 2.05-.75.8-2 .9l-2.3-.25q-1.1-.05-2.35-.7l-.9-.7q-.3-.45-.3-1.3 0-1.25.15-1.65l.65-1.1q1.2-1.55 3.4-2.65 1.35-.65 4.15-1.5l.45-.1.1-.05.4-.7q.75-1.05 1.75-1.6l.9-.75.15-.7.25-.9.45-1-1.2-.9q-1.3-1.15-2-2.75-.7-1.65-.5-3.3.05-.95.6-2.35.5-1.3.9-1.85l.4-.55-.5-.85q-.15-.3-.15-1.15 0-1.05.15-1.55l.8-1.75.35-.9.45-.95q.35-.5 1.05-.6.6-.1 1.15.35l.7.85.85 1.6.65.85 5.8-.15.3-.3 2.05-2.25q.65-1 1.15-1.2.4-.2.85 0l.65.5q.25.3.3 1.05l.45 1.5.35 1.5.05 1.1.1.7-.05.65.1.6.1.85v.2zm-6.3 3.25.25.65h3.75l.3.05.15.1.3-1v-.35l-1.1.15H41.8l-1.05.05zm14.95-.6v-1.45h-1.7l-.3.05h-.7l-1.45.05h-.45v1.25l.05.1 1-.05 2.95.1h.6zm-1.05 3.75.65-.85.05-.55-.1-.65-.3-.3h-.4q-.35.3-.05.6l.15.2v.3q-.4.85-1.35.85l-.55-.1q-.4-.35-.25-.75.1-.45.55-.55l.3.05-.2.3q-.1.25.15.4l.45-.05.35-.5-.15-.6q-.45-.6-1.15-.35-.55.15-.95.8l-.2.5-.05.45.25.6.5.5 1.15.2.45-.05zm1.05 2.55v-1.3l-3.9.3h-.6v1.05h2.25v-.05zm-31.7-9.7.3.05.2.1.15.1.05.1.05.15.05.1.05.1.05.1v.7l.05.1v1.55l.05.1v4.25l-.05.1v2.15l.05.1v.1l-.05.15v.1l-.05.1v.1l-.1.1-.05.1-.1.1v.65l-.1.1v.1l-.1.1-.05.1-.05.1-.15.1-.15.1-.15.1-.05.05h-.15l-.25.05h-2.7l-1.6-.05h-.75l-.3-.05-.4-.05-.3-.05h-.15l-.25-.1-.25-.1-.1-.1-.1-.1-.1-.1-.05-.1-.05-.1-.05-.1-.05-.05-.05-.1-.05-.15-.05-.1-.05-.1v-.2l-.05-.1v-3.9l.05-.1V15.8l.05-.15v-.1l.05-.1v-.1l.05-.1.05-.1.1-.1.1-.1.05-.05v-.05l.05-.1.05-.1.1-.1.05-.1.15-.1.15-.1.2-.1.15-.1.1-.05h1.75q0-.35.15-.55.3-.35 1.05-.45l1.25.1q.7.3.6 1l1.15.05.3.05.1.05h.15zm10.05 3.95v-.2h-.6l-3.85-.1-.25-.05q-.05.35.05.7l.1.35h4.4zm-11.05-.55v-1.45h-1.7l-.3.05h-.7l-1.45.05h-.45v1.25l.05.1 1-.05 2.95.1h.6zM22 21.35l.65-.85.05-.55-.1-.65-.3-.3h-.4q-.35.3-.05.6l.15.2v.3q-.4.85-1.35.85l-.55-.1q-.4-.35-.25-.75.1-.45.55-.55l.3.05-.2.3q-.1.25.15.4l.45-.05.35-.5-.15-.6q-.45-.6-1.15-.35-.55.15-.95.8l-.2.5-.05.45.25.6.5.5 1.15.2.45-.05zm1.05 2.55v-1.3l-3.9.3h-.6v1.05h2.25v-.05z"/><path fill="#fff" d="m40.8 18.2-.05-.35 1.05-.05h2.65l1.1-.15V18l-.3 1-.15-.1-.3-.05h-3.75zm14.95-.6v.05h-.6l-2.95-.1-1 .05-.05-.1v-1.25h.45l1.45-.05h.7l.3-.05h1.7v1.45m-1.05 3.75-.7.45-.45.05-1.15-.2-.5-.5-.25-.6.05-.45.2-.5q.4-.65.95-.8.7-.25 1.15.35l.15.6-.35.5-.45.05q-.25-.15-.15-.4l.2-.3-.3-.05q-.45.1-.55.55-.15.4.25.75l.55.1q.95 0 1.35-.85v-.3l-.15-.2q-.3-.3.05-.6h.4l.3.3.1.65-.05.55zm1.05 2.55H53.5v.05h-2.25V22.9h.6l3.9-.3v1.3M34.1 18.15l-.15.7h-4.4l-.1-.35q-.1-.35-.05-.7l.25.05 3.85.1h.6zm-11.05-.55v.05h-.6l-2.95-.1-1 .05-.05-.1v-1.25h.45l1.45-.05h.7l.3-.05h1.7v1.45M22 21.35l-.7.45-.45.05-1.15-.2-.5-.5-.25-.6.05-.45.2-.5q.4-.65.95-.8.7-.25 1.15.35l.15.6-.35.5-.45.05q-.25-.15-.15-.4l.2-.3-.3-.05q-.45.1-.55.55-.15.4.25.75l.55.1q.95 0 1.35-.85v-.3l-.15-.2q-.3-.3.05-.6h.4l.3.3.1.65-.05.55zm1.05 2.55H20.8v.05h-2.25V22.9h.6l3.9-.3v1.3"/></g></svg>