<svg xmlns="http://www.w3.org/2000/svg" xmlns:ffdec="https://www.free-decompiler.com/flash" ffdec:objectType="shape" width="76.4" height="44.25"><g fill-rule="evenodd"><path fill="#999" d="m64.25 5.9.05-.15.7.75q.9 1.15.95 2.3.1.65-.35 2.25-.95 3.9-.95 7.5-.85-1.4-2.1-1.8l-.7-.1q-.5-1.5-.55-2.45-.05-1.65 1.2-4.15z"/><path d="M1.9 21.4q-.7 0-1.25-.55-.5-.55-.5-1.25L.2 19l-.15-.85V16.3l1.4-11.7q.2-1.75.85-2.5.6-.7 1.6-.75l1.25.25 1-.35 1.75.15 3.55.55 1.3-.15.95.3.45-.55q.9-.7 1.85-.45l.1.05.3-.2L18.25.7l1.95.15L23.85.4l4.85.05 7.1.15 15.35.55 3.5.35 2.25.4 2.4-.3 2.4.1.05.05v-.1Q62.05.7 62.8.3l2.65.15.45.3.3-.1 2.95.1 3 .35h1.55l1.45.4q.8.5 1.05 1.7l.1 2q-.3 7.9-.15 15.75.1 2.6-.9 3.55-.85.85-2.05.6-1.25-.25-1.65-1.35l-.35-1.65-.5-1.65q-.75-2.1-1.1-5.9-.9 4.4-.25 9.95.2 1.4-.05 2.1-.35 1.15-1.5 1.5-1.1.35-2.15-.4l-.8-1-.2-.35q.25 1.1 0 2.95-.6 3.55-2.35 7.4-.85 2-.65 2.95l.4 1.7q.05.8-.55 1.45l-1.35.9q-.95.25-3.2.05-3.65-.3-5.5-.05l-2.9.3-2.5-.7-1.55-.2-1.6-.2q-2-.5-2.3-1.9-.15-1 .5-1.65.85-.85 3-.55l1.55.25 1.55-.2q.25-1 1.2-1.9l1.85-1.5q2.95-2.25 5.45-5.25 1.55-1.9 1.95-3.4l.2-2.15q.05-1.4.35-2.15l.4-1.1-.55-1.75q-1.25-2.3-1.35-5-.15-2.7.85-5.15l1.05-2.2.5-1.15L53.35 8l-4.4.9-2.65-.35-7.25-1q-4.2-.1-7.15 1.3l-2 .9q-1.2.35-2.05 0l-.95-.6-.85-.8Q25.2 7.75 23 7.1l-3.05-.7.05.2q.45 1.4.75 3.75.35 3.35 0 5.5-.3 2.45-1.5 4.25l.4.35q.4.65.1 1.65l-.55 1.6q-.2.8 0 2.45l.6 5.8h.05l1.25.7 6.95 5.15.7 1.2.9-.2 3.85.4q1.2.4 1.7.95.9.8.65 1.8-.15.7-.8 1.15l-1.45.5h-2.95l-2.15.45-2.2.2-1.1-.25-1.1-.25q-2.3.1-3.25-.4l-1.35-.75h-1.15l-1.25.15q-.8-.05-1.5-.65-.65-.6-.75-1.45-.05-.55.2-1.5l.25-1.55-.65-2.4q-1.2-2.95-1.55-5.8-.25-1.65-.05-2.95.1-.75.5-1.55l-1.8 1.45-.9 1-1.1.7L8 27.9q-.9-.5-1.15-1.4-.2-.95.5-2.6l1.2-3.2q.5-1.85.35-3.35l-.65-2.65-.5-1.55L7.4 15l-.6 1.35q-1.3 2.7-2.95 4.15-1 .9-1.95.9M64.25 5.9l-1.75 4.15q-1.25 2.5-1.2 4.15.05.95.55 2.45l.7.1q1.25.4 2.1 1.8 0-3.6.95-7.5.45-1.6.35-2.25-.05-1.15-.95-2.3l-.7-.75zm-51 13.4q1.85-.9 2.6-3.2.6-1.75.5-4.2-.2-3.6-1.45-5.55l-.65-.9-.45.6-.75 1.2q-.7 1.1-.8 1.85l.05 1.1v1.1l-.4.95q1.25 3.3 1.35 7.05"/><path fill="#999" d="M63.3 28.55q.3-2.1-.45-3l-1-.8q-.65-.45-.65-1.05 0-.9 1-1.1l1.55.2q3.05 1.1 4.9 3.65l.6 1-.45-1-1.15-2.25q-1.1-2.2-1.2-4.75-.15-2.5.7-4.8.5-1.45 2.1-4.05.35-.7.85-.95l1 .05q.55.25.65.75l-.05.85-.3.85q-.6 1.8.55 3.95.45.85 2.45 3.3l2 2.9v10.95l-.2-.05-.65-.75-1.35-3.3-2.35-4.1q1.3 2.95 1.65 5.4.2 1.6 0 3.65v.05l.15 1.25-.1.9-.5 2.2-.25.45h-.05q-.4.7-1.2.6-.65 0-1.6-.75l-1.35-1.25q-1.2-1.25-1.8-2.5l-.4-.95-.25.85v1.4l.2 2.1q.3 1.85 1.05 2.75l1.45 1.2.35.7.05.15H63q-1.15-.9-1.65-2.2-.75-1.65-.35-4.4.3-2.05.8-3.25l.85-1.8zm-.35-14 .25-1.5.6-2.15.1-1.8-.05-.85-.45.7-1.55 3.15-.15.8.05.75.1 1.2.2.3.5 1.1v.05l.3.2zm-1.1-7.2.95-2.05.1-1.25q.2-.75.8-.85.4-.1.8.25l.5.7.95 2.15.3 1.45.15 2.05-.35 1.75-.7 2.25Q65 15.1 65 16.1l.1 1.1.45 1.25q.3.75-.05 1.3l-.7.5-.85-.15-.75-.9-1.15-1.15q-1.4-1.35-1.95-3.15l-.25-1q-.15-1.45.7-3.75.5-1.45 1.3-2.8M46.4 5.8l.1.05q1.6.7 3.25 1.95l1.05-.5 2.5-1 1.45-.5 1.65-.6.55-.25 1.75-.7q1.2-.2 1.75.45.6.65.4 1.8l-.2.8-3.2 8.15h-.1l-1.15.35-.1-.25-.35-.65-.5-.3q-.95-.2-1.35.55-.25.55-.1 1.25l.05.25-.55.25q-.35.1-.55.3-.7.45-.6 1.35.1.8.8 1.2l.75.1.65-.2.25-.1.15.6-.8.3-.65.75q-.25.85.35 1.4.6.6 1.4.35l.45-.15.65 1.4q.35.35.7.3l.65-.45.05-.5-.05-1.45v-.2l.8-.35h.05q.5 4.55-.75 8.7l-1.5 3.55-.2-.4-.15-.2v-1.9q.45-.55.1-1.25l-.2-.25-.05-.95-.05-2.85-.3-.65q-.45-.3-.75.1-.15.2-.15.8l-.15 1-.3 1-.1 1.25-.95.1.1-.85.1-.75-.35-.5-.65-.05q-.4.2-.6.95L51 29.85l-1.05.2-.6.15-.5.15-.35.45.15.55.55.25 1.45.15-.2 1.85-1.85.35-.65.15-.5.05-.55.4q-.1.45.1.65l.4.3 1.4.55 1.45.1-.05.4-.2 1.05-.25 1.4.2.55q-5 2.4-13.05 2.1l-5.4-.6q-2.2-.45-5.2-1.7-3.7-1.6-5.3-3.4-1.75-1.9-2.45-4.9l.6-.25.6-.25.2.6q.25.4.75.25.45-.1.6-.5l.05-1.15 1.1-.5.05.1.15.65.35.65.1.75q.1.5.45.5l.4-.25.1-.5.1-1.65v-.6l-.05-.45 2.25-1.1.25-.55-.2-.55q-.35-.35-1-.25l-1.05.3-.3.05-.1-1.25-.05-.85-.1-.45 1.4-.95q.8-.6.8-1.1 0-.55-.65-.85l-1.05-.05-1.15.4-.45-.15-.95.1-.65.7-.1.5-1.05.55-.85-.15q-.45.1-.75.35.45-3.5 1.9-6.75l-.15-.55-.05-.1v-.1l-.5-1.1-.4-1.6-.25-.5-.85-3.15-.25-.95L17.45 6l.2-1.2.4-.5.35-.25.45-.15 1.2.1 2.15.75 1.65.75 2.7 1.4 1.25.65q3.65-2.3 8.3-2.9l2.8-.2 1.75.05-.3.3-.05.1q-.5.05-.85.35-.4.4-.4.95l.05.5-.45.55-.4.95q-.05.5.25 1 .4.5 1 .5t1-.5l.65-1.05 1.1.7-.7 1.3q-.35.7-.25 1.05l.5.45.65-.15.35-.7.9-1.25.35.3 1.55 1.05.8.3.65.3.7-.2.3-.6q.05-.35-.3-.8l-.6-.5-2.25-1.8.5-.95.35-.4.5-.3zm11.3 12.25.2.8-.85.3-.2-.7zm-4.45 19.3-.5.4-.2.2v-.35l.05-1.75.1-.05.3-.15h.2q-.25 1.15-.1 1.5zm-35.1-9.15-.05-.85h.55v.2l.1.4-.35.1zM42.9 4.75l1.05.2-.05.2-.3.95-.3.6-.8-.5-.15-.1.25-.45zm6.3 14.4-1.7.1-4.15-.05-.3-.05q-.35.75-.25 2.1l.05.7.05.2.55-.15 1.8-.15 2.05.15 1.7.3v-.05l.45-1.25q.15-.95-.25-1.85M27.45 22.2l.4.5 1.4.9.9.1q1.1 0 1.75-.4l.65-.6.75-1 .1-.25.15-1.45-.2-1.15q-.35-.9-.95-1.3-1.4-1.05-3.35-.35-1.2.55-1.65 1.35l-.35.8q-.15.3-.15.65-.15 1.15.55 2.2m4.5-13.55q-.2-.2-.55-.3-.65.1-.75.75v.5l-.15.6-.05.35-2.05.1-.85.2q-.55.25-.65.8-.15.6.15 1.05.45.6 1.35.6l1.65-.3h.25l-.05.75.05.6.1.55q.25.75 1.05.85.9 0 1.15-.75l.15-.65.05-1.6 2.3-.4.55-.25q.6-.45.35-1.15t-1-.7l-.85.2h-.75l-.75.15h-.1l-.1-.25-.2-.3-.1-.75zm16 19.95q-1.2-.85-4-.45l-4.45.65-.1-.4-.25-1.3-.2-.8q-.3-.65-1.15-.75-.8 0-1.2.65l-.3.8-.25 1.05-.25 1.25-5.35.75-2.9.5q-1.05.25-1.6.75-.7.8-.4 1.7.25 1.05 1.3 1.2l1.15-.1 1.15-.45 2.05-.5 11.85-2.35 1.75-.3 1.7-.2q1-.2 1.55-.65l.3-.3q.15-.4-.4-.75m5.5 4.15-.75.25.05-1.2h.8l-.05.95zm-37.7-25.4 1.3 2.8q.85 2.3.7 3.75l-.25 1q-.55 1.8-1.95 3.15L14.4 19.2l-.75.9-.85.15-.7-.5q-.35-.55-.05-1.3l.45-1.25.1-1.1-.35-2.3-.7-2.25-.35-1.75.15-2.05.3-1.45q.25-.9.95-2.15l.5-.7q.4-.35.8-.25.6.1.8.85l.1 1.25zm-1.45 21.2q.2 1.95.65 3.05l.85 1.8q.5 1.2.8 3.25.4 2.75-.35 4.4-.5 1.3-1.65 2.2H8.35l.05-.15q0-.35.35-.7l1.45-1.2q.75-.9 1.05-2.75l.2-2.1v-1.4l-.25-.85-.4.95q-.6 1.25-1.8 2.5L7.65 38.8q-.95.75-1.6.75-.8.1-1.2-.6H4.8l-.25-.45-.5-2.2-.1-.9.15-1.25v-.05q-.2-2.05 0-3.65.35-2.5 1.7-5.5l.05-.05Q4.2 27.35 3.4 29.15l-1.35 3.3-.65.75q-.5.15-.9-.25v-9.2q.85-2.1 2.7-4.35l2.45-3.3q1.15-2.15.55-3.95l-.3-.85-.05-.85q.1-.5.65-.75l1-.05q.5.25.85.95 1.6 2.6 2.1 4.05.85 2.3.7 4.8-.1 2.55-1.2 4.75L8.8 26.45l-.45 1 .6-1q1.85-2.55 4.9-3.65l1.55-.2q1 .2 1 1.1 0 .6-.65 1.05l-1 .8q-.75.9-.45 3m23.85 6.05-.7.3-2.35.7-.9.4-.3-.5-1-.55h-.8l-.4.25q-.4.4-.4.95 0 .5.35.95l.25.2-1.15.6q-.4.45-.1 1.1.35.5.95.5l.7-.25.95-.5.75 1.1.85.75.5.3.7.05.55-.4.15-.8-.3-.7-1-1.45 3.1-1.7.35-.25q.3-.35 0-.75t-.75-.3M21.1 25.55l.3-.2.3 1.35.05.15h-.1l-.55.2v-.65l-.1-.5v-.25z"/><path d="m57.45 15.45.9-.1q.5.05.75.6.25.5.1.95l-.1.05-.25.35-1.15.75-.85.4.2.7.85-.3h.55q.85.1 1.15.35.55.45.35 1.3l-.05.05q-.25.5-.7.65l-.45.1-.4.25h-.05l-.8.35v.2l.05 1.45-.05.5-.65.45q-.35.05-.7-.3l-.65-1.4-.45.15q-.8.25-1.4-.35-.6-.55-.35-1.4l.65-.75.8-.3-.15-.6-.25.1-.65.2-.75-.1q-.7-.4-.8-1.2-.1-.9.6-1.35.2-.2.55-.3l.55-.25-.05-.25q-.15-.7.1-1.25.4-.75 1.35-.55l.5.3.35.65.1.25 1.15-.35zM56.1 33.8v.5l-.35.9-.25 1.5-.25.65q-.4.65-1.15.55-.55-.1-.85-.55l-.15-.2q-.15-.35.1-1.5H53l-.3.15-.1.05-.05 1.75v.35l-.25 1.25q-.25.9-1.1 1-.5.1-.95-.3l-.3-.35-.2-.55.25-1.4.2-1.05.05-.4-1.45-.1-1.4-.55-.4-.3q-.2-.2-.1-.65l.55-.4.5-.05.65-.15 1.85-.35.2-1.85-1.45-.15-.55-.25-.15-.55.35-.45.5-.15.6-.15 1.05-.2.45-1.45q.2-.75.6-.95l.65.05.35.5-.1.75-.1.85.95-.1.1-1.25.3-1 .15-1q0-.6.15-.8.3-.4.75-.1l.3.65.05 2.85.05.95.2.25q.35.7-.1 1.25v1.9l.15.2zm-37.55-2.75-.3.05q-.45.05-.8-.25-.4-.3-.5-.75-.3-.9.6-1.65l.6-.25.25-.15.35-.1-.1-.4v-.2h-.55l-.25-.1q-.85-.3-1.05-1.3-.15-1 .55-1.65l.55-.35.1-.35.35-.45q.3-.25.75-.35l.85.15L21 22.4l.1-.5.65-.7.95-.1.45.15 1.15-.4 1.05.05q.65.3.65.85 0 .5-.8 1.1l-1.4.95.1.45.05.85.1 1.25.3-.05 1.05-.3q.65-.1 1 .25l.2.55-.25.55-2.25 1.1.05.45v.6l-.1 1.65-.1.5-.4.25q-.35 0-.45-.5l-.1-.75-.35-.65-.15-.65-.05-.1-1.1.5-.05 1.15q-.15.4-.6.5-.5.15-.75-.25l-.2-.6-.6.25zM40.65 4.5l.5-.55.45-.15q.65-.2 1.1.25l.2.65v.05l-.3.9-.25.45.15.1.8.5.3-.6.3-.95.05-.2v-.4l.45-.8q.35-.3.8-.35 1.05-.1 1.5.85.3.95-.3 1.55l-.15.15-.5.3-.35.4-.5.95 2.25 1.8.6.5q.35.45.3.8l-.3.6-.7.2-.65-.3-.8-.3-1.55-1.05-.35-.3-.9 1.25-.35.7-.65.15-.5-.45q-.1-.35.25-1.05l.7-1.3-1.1-.7-.65 1.05q-.4.5-1 .5t-1-.5q-.3-.5-.25-1l.4-.95.45-.55-.05-.5q0-.55.4-.95.35-.3.85-.35l.05-.1zm8.55 14.65q.4.9.25 1.85L49 22.25v.05l-1.7-.3-2.05-.15-1.8.15-.55.15-.05-.2-.05-.7q-.1-1.35.25-2.1l.3.05 4.15.05zm4.25 13.6h.05l.05-.95h-.8L52.7 33zm-5.5-4.15q.55.35.4.75l-.3.3q-.55.45-1.55.65l-1.7.2-1.75.3-11.85 2.35-2.05.5-1.15.45-1.15.1q-1.05-.15-1.3-1.2-.3-.9.4-1.7.55-.5 1.6-.75l2.9-.5 5.35-.75.25-1.25.25-1.05.3-.8q.4-.65 1.2-.65.85.1 1.15.75l.2.8.25 1.3.1.4 4.45-.65q2.8-.4 4 .45m-16-19.95.2.65.1.75.2.3.1.25h.1l.75-.15h.75l.85-.2q.75 0 1 .7t-.35 1.15l-.55.25-2.3.4-.05 1.6-.15.65q-.25.75-1.15.75-.8-.1-1.05-.85l-.1-.55-.05-.6.05-.75h-.25l-1.65.3q-.9 0-1.35-.6-.3-.45-.15-1.05.1-.55.65-.8l.85-.2 2.05-.1.05-.35.15-.6v-.5q.1-.65.75-.75.35.1.55.3m-4.5 13.55q-.7-1.05-.55-2.2 0-.35.15-.65l.35-.8q.45-.8 1.65-1.35 1.95-.7 3.35.35.6.4.95 1.3l.2 1.15-.15 1.45-.1.25-.75 1-.65.6q-.65.4-1.75.4l-.9-.1-1.4-.9zm-6.35 3.35-.1.1v.25l.1.5v.65l.55-.2h.1l-.05-.15-.3-1.35zm17.05 9.05q.45-.1.75.3t0 .75l-.35.25-3.1 1.7 1 1.45.3.7-.15.8-.55.4-.7-.05-.5-.3-.85-.75-.75-1.1-.95.5-.7.25q-.6 0-.95-.5-.3-.65.1-1.1l1.15-.6-.25-.2q-.35-.45-.35-.95 0-.55.4-.95l.4-.25h.8l1 .55.3.5.9-.4 2.35-.7z"/></g></svg>