<svg xmlns="http://www.w3.org/2000/svg" xmlns:ffdec="https://www.free-decompiler.com/flash" ffdec:objectType="shape" width="67" height="41.55"><g fill-rule="evenodd"><path fill="#999" d="M60.5 12.15q.3.55.3 1.9l-.1.7-.3.5-1.1 1.1-1.05.45-1.1.4-1.15.6-.05.05-.05.05q-.6.6-1.3.3-.75-.25-.65-1.1l.05-.65-.3-.7-1.15-1.5q-.8-1.55.2-2.95l1.05-.9q.4-.25.95-.35l.95.15q.7.25 1.05.7l.3.45.65-.25 1-.15q1.25.1 1.8 1.2m-4.2-9.6 1.45.05q.55.3.75 1.25.15 1.1-.55 1.8l-1.05.6-1.1.6-.5.35-.6-.05-.15-.15-.45-.4-.3-.35-.25-.15q-.55-.05-.95-.45-.6-.5-.65-1.15 0-.65.4-1.2l.7-.55.7-.2q.65-.05 1.15.3l.5.3q.45-.4.9-.6M43 5.75l3.95-.2q2.8.85 3.8 3.8.9 2.55-.25 5.4-.9 2.35-3.35 4.3L43.6 21.5q-2.05 1.6-2.5 3.45L40.85 26l-.85.6q-.75-.05-.95-1.25l-.05-.6q-.85-.1-1.95-1l-5.55-5.6q-1.35-1.55-1.75-2.45-.3-.75-.4-2.4-.1-3.15.95-5.3 1.35-2.8 4.05-3.4 2.45-.55 4.5 1.1 1 .8 1.6 1.9Q41.6 6.3 43 5.75M18.2 31.1q6.85-1.15 13.8-.3l1.7.25q7.75-.4 12.65.05l2.9.5.55.25 4.75.1 5.5.25q3.05.4 5.05 1.7 1.95 1.4 1.9 3-.05 1.35-1.4 2.25-.7.55-2.5 1.05-5.15 1.35-11.75 1.35l-11.9-.65-5.85-.65-4.35-.75-3.45-.5-8.05 1.25q-6.2.5-10.85-.75-1.3-.35-2.1-.9-1.1-.8-1.1-1.9-.05-1.15 1-2.05.75-.6 2.15-1.05 3.35-1.1 7.35-1.5z"/><path fill="#fff" d="m34.3 3.75.15.15.3.55.05.05v.05q.3.75.05 1.55-.15.75-.85 1.35-.7.55-1.55.55-.9 0-1.6-.55l-.65-.75q-.75-1.35.1-2.7.65-.95 1.75-1.1t1.95.55zm6.3 13.1.75-.9q.5-.35 1.05-.35.9 0 1.45.6l-.4.4q-.75.95-1 1.65-.25.75.05 1.35l.05.05-.1.05-.7-.2q-.8-.2-1.15-1.05-.4-.8 0-1.6m2.7 6.9-.2-.6-.35-.35-.1-.2-.35-.1-.6-.25-.15-.25q-.1-.25.1-.5l.35-.2.6-.05h.15l.25-.15.2-.1.25-.15.5-.4.4-.5.3-.6.05-.05.4.05-.05.4.05.75-.15.35q-.4 1.1-.95 1.5l-.1.1-.1.35.3 1.05-.1.4-.15.2q-.45 0-.55-.35zm-5.3.75q.05-.55.4-1 .4-.45.9-.6.9-.25 1.6.3l-.6.65L40 25q-.1.8.25 1.4l-1.05-.05-.9-.7q-.35-.55-.3-1.15m-7.15-11.6-.3 1.2-.2.35-.55.1-.45-.35-.05-1-.15-.9q-.05-.4.15-.7l-.2-.25-.35-.45q-.15-.3.05-.6.15-.3.55-.3l.6.2.6.45.25-.1 1.9-.1.45.2.15.4-.15.3-.65.35-.7.25-.65.35zm-4.95-2.75.7.75.15.35q.3.65.15 1.45l-.65 1.35q-.55.55-1.3.7l-1.5-.05-1.2-.9q-.45-.6-.5-1.35-.15-1.65 1.3-2.5l1.45-.3q.8.05 1.4.5"/><path d="M34.8 4.55Q35.9 6.6 36.05 9q.1 2.25-.7 4.2l1.15 2.1.15.2.3.55.5 1.25.3-.4q-.2-.6-.1-1.35.15-1.25.55-2.2.5-1.15 1.45-1.8.3-.25.75-.4l.9-.15 2.1.3q1.2.45 1.7 1.3l.55 1.45q1.45.4 2.6 1.3 2.25 1.8 2.4 5 .1 1.55-.45 3.05 2.4 1 3.85 3.25.55-.4 1.7-.85 1.15-.6 1.7-1.55.7-1.25 0-2.25l-.6-.45-.6.15-1.05.95-.8.9-.6-.1-.35-.45q-.15-.5.2-1.2.45-.95 1.3-1.5.95-.6 1.95-.6l.75.15.65.5.8.9.3 1q.3 1.2-.05 2.5l-.35.75-.45.65-1.2 1.1-2.1.95-.35.2q.85 2.5 0 5.15-.45 1.35-1.15 2.05-.7.65-2.15 1.1l-6.7.35q-1.15-.25-2.05-.8-1.35-.9-2-2.5-.6-1.55-.4-3.25.15-1.05.55-1.95l-.85-.3-.4-.15-.1 1.65L39.3 31l-.75 1.85-.3.65.4 1.75-.1 1.55q-.4 1.25-1.75 1.6l-.8.05-1.05-.25-.8-.65-.3-.35-.35-.75q-2.65.4-6.05 0l-.5.5-1.3.75-.8.3q-1.55.45-2.55-.75-.4-.55-.45-1.3l-.25.1q-3.55 1.4-7.1 1l-1.95-.5-1.35-.8-1.45-.35q-.45.05-1.15.4l-1.15.5q-1.6.45-2.6-.8-1.05-1.15-.45-2.7.5-1.2 2.35-1.95l3.45-.5q1.85.1 3.25 1.1l1.75 1.2 2.75.45 2.6-.25-.9-1.45q-.4-.95-.4-1.8-.1-1.95 1.1-3.5.95-1.2 2.1-1.55l2.8.05.7.15.2-.65 1.15-4.7-2 .1-3.2-.2q-1.25-.25-2.75-1.15l-1.4-1-2.8-.4Q14.5 16.6 12 15.5q-1-.5-1.45-.95-.45-.55-.45-1.3 0-.8.45-1.35l1.25-1.35 1.2-1.2-.3.3 1.45-1.35.75-.95.15-.1.3-1q.9-2.45 2.85-4.15Q20.25.4 22.7.05h3.8l2.55.1q3.1.5 5.25 3.6l-.3-.3q-.85-.7-1.95-.55T30.3 4q-.85 1.35-.1 2.7l.65.75q.7.55 1.6.55.85 0 1.55-.55.7-.6.85-1.35.25-.8-.05-1.55m-8.9 5.6q-.6-.45-1.4-.5l-1.45.3q-1.45.85-1.3 2.5.05.75.5 1.35l1.2.9 1.5.05q.75-.15 1.3-.7l.65-1.35q.15-.8-.15-1.45l-.15-.35zm4.95 2.75.3-.6.65-.35.7-.25.65-.35.15-.3-.15-.4-.45-.2-1.9.1-.25.1-.6-.45-.6-.2q-.4 0-.55.3-.2.3-.05.6l.35.45.2.25q-.2.3-.15.7l.15.9.05 1 .45.35.55-.1.2-.35zM38 24.5q-.05.6.3 1.15l.9.7 1.05.05q-.35-.6-.25-1.4l.3-1.15.6-.65q-.7-.55-1.6-.3-.5.15-.9.6-.35.45-.4 1m5.3-.75v.35q.1.35.55.35l.15-.2.1-.4-.3-1.05.1-.35.1-.1q.55-.4.95-1.5l.15-.35-.05-.75.05-.4-.4-.05-.05.05-.3.6-.4.5-.5.4-.25.15-.2.1-.25.15h-.15l-.6.05-.35.2q-.2.25-.1.5l.15.25.6.25.35.1.1.2.35.35zm-2.7-6.9q-.4.8 0 1.6.35.85 1.15 1.05l.7.2.1-.05-.05-.05q-.3-.6-.05-1.35.25-.7 1-1.65l.4-.4q-.55-.6-1.45-.6-.55 0-1.05.35zM8.4 3.2l.7-.75.9-.1.55.6.5.65.45.25.1.35-.2.35v.15l-.55.95-1.4 1.1-1.8.3Q6.7 6.9 6 6.35q-.65-.55-.65-1.2V5.1l-.15-.2v-.4l.55-.35.7-.9.85-.7q.5-.05 1.1.65m1.05.45-.95.7q-.75.1-1-.5l-.75.8.3.3q.45.35 1.15.25.65-.05 1.1-.5l.55-.5zm-8.3 2.3V5.7l-.8-.15Q0 5.4 0 4.95q0-.4.3-.65l.75-.25h.2l.05-.3.25-.55q.3-.25.65-.2l.45.5v.55L3.3 4q.5.1.6.6.15.5-.3.8l-.85.2H2.7l-.05.65-.4.55-.6.05q-.3-.1-.45-.35z"/></g></svg>