<svg xmlns="http://www.w3.org/2000/svg" xmlns:ffdec="https://www.free-decompiler.com/flash" ffdec:objectType="shape" width="76.45" height="43.55"><g fill-rule="evenodd"><path d="m23.85 5.3.4-.05 1.4.1 1.4.2 1.15.15.35-.15 1.9-.45 1.4-.2 3.85-.4.65-.05 4.2-.2h4.05l3.6.45h.15l2.6.7 1.3.5h2.65l3.3-.05 1.2.15q.75.3 1.1 1.15l.4 1.55.05.35.4 2.6.2 1.15 2 2.9.15.25.8 1.55q1.05 2.35 1.3 4.7v.25l.05 1.3-.25 2.05.15.05q1.85.6 3.1 1.4l.35.2q.8.55 1.8 1.6l.65.7L74 33.1q1.6 2.75 2.45 5.95v2.3l-.75.6-.75.25h-.05l-.05.1-.1.1-.1.15-.15.1-.2.1-.15.1-.3.15-.15.05-.15.05-.15.05h-2.2l-2.25.05H65.4l-17.75.05-4.05.05h-5.45l-5.4.05-10.3.05-7.95.05H2.1l-.15.05-.4.05-.4-.05-.15-.05-.3-.05-.2-.1-.25-.15-.15-.1L0 43v-5.65l.05-.05.05-.1.05-.1.1-.15.05-.1.1-.1v-.1l.1-.15.05-.1.05-.1.1-.1v-.15l.1-.1.05-.1.05-.1.05-.15.05-.1.1-.1.05-.1.15-.15.05-.1.1-.1.15-.1.05-.15.1-.1.15-.1.1-.1.1-.15.1-.1.1-.1.1-.1.1-.15.1-.1.1-.1.15-.1.15-.15.1-.1.05-.1.15-.1.1-.15.1-.1.15-.1.1-.1.15-.15.1-.1.1-.1.1-.1.15-.15.15-.1.15-.1.15-.1.1-.15.15-.1.15-.1.15-.1.1-.15.1-.1.15-.1.15-.1.15-.15.15-.1.15-.1.1-.05.05-.05.15-.15.15-.1.15-.1.25-.1.2-.15.15-.1h.1l.1-.1.15-.1.2-.15.2-.1.3-.1.2-.1.2-.15.2-.1.15-.1.2-.1.25-.15.2-.1.15-.1.15-.15.15-.1.15-.1.25-.1.2-.15.25-.1.05-.05.1-.05.15-.1q-.45-1.4-.55-2.6l-.05-1.5q.2-2.05 1.75-4.95l.2-.35.85-1.35q1.5-2.2 3.4-4.05v-.1l.15-1.4q.15-1.85.75-3.5.5-1.35 1.25-1.75l1.1-.25z"/><path fill="#717171" d="M19.3 5.75 17.25 0h4.9l1.7 5.3-3.45.2zm9.25-.2q-.3-1.4-.35-3.45L28.1 0h3.7v3.5l.05 1.4-1.4.2zm7.8-1.1L36.3 0h4.45l-.2 4.25zm8.25-.2L44.85 1l.1-1h3.85l-.6 4.7zm6.35 1.15Q51.3 3 52 0h4.25l-.4 1.6-.95 4.3h-2.65zm7.25.45 1.05-1.45L62.2 0h4.85q-2.35 4.15-6.1 9.05l-.05-.35-.4-1.55Q60.15 6.3 59.4 6zm3.15 5.8L66.15 6l5.55-6h4.75v2.25l-.1.1-3.45 3.4-3.3 3.55-5.9 6.65-.15-.25-2-2.9zm3.15 5.85 2.9-2.6q5.25-4.75 8.75-7.15l.3-.2v5.8L65.8 22.2q-.25-2.35-1.3-4.7m1.35 6.25q2.45-1.7 5.55-3.65l5.05-3.2v5.5l-6.3 4-1.3.85q-1.25-.8-3.1-1.4l-.15-.05zm5.15 5.3 3.2-1.25 2.25-.8v5.2l-2.45.9-2.35-3.35zm-68 4.3-1.85-.6-1.15-.5V27.2l.45.3q1.6 1.2 3.25 1.85l2.3.8.4.25-.1.05-.15.1-.15.1-.15.15-.15.1-.15.1-.1.1-.1.15-.15.1-.15.1-.15.1-.1.15-.15.1-.15.1-.15.1-.15.15-.1.1-.1.1-.1.1-.15.15-.1.1-.15.1-.1.1-.1.15-.15.1-.05.1zm4.6-3.7L0 22.85v-6.7l2 1.9q6.2 5.95 9.3 9.4l-.05.05-.25.1-.2.15-.25.1-.15.1-.15.1-.15.15-.15.1-.2.1-.25.15-.2.1-.15.1-.2.1-.2.15-.2.1-.3.1-.2.1-.2.15-.15.1zM11 24.7l-1.85-2.9L.85 7.1 0 5.1V0h3.1l.65.9 2.1 4 2 4.1 2.35 4 1.65 3.45.85 1.8q-1.55 2.9-1.75 4.95zm2.75-8.15-.1-.3-1.35-3.35Q8.9 4.5 6.15 0h5.4q3.2 6 5.6 12.4v.1q-1.9 1.85-3.4 4.05"/><path fill="#fff" d="m54.15 13.8-1.6-.15-1.95-.1q-.85-.4-.95-1.4 0-.95.8-1.45l2.15-.15 1.4.2q1.7.3 2.2.75.45.4.6 1 .1.65-.3 1.05t-1.15.4zm-22.6-.05q.4-.7 1.25-.95.6-.1.8.2t-.15.75l-.5.6q-.15.4.05.85l.15.45.8.25.95.05 1.65-.35.55-.5.6-.5q.5-.5.95-.55l.2-.05.3-.1h.35l.55.1.8.25.75.8.8.55q1.1.65 1.9.45l.75-.35.45-.5.05-.6-.35-.65-.4-.5-.1-.55q-.1-.5.15-.75.2-.2.55-.2l1.05-.05.6.4.9.95q.3.55.3 1.9l-.1 1q-.25.9-1.4 1.75-1.1.8-1.85.9l-1.2.05q-2.4-.3-4.25-1.95l-1.5 1.25-.55.3-1.2.4h-1.5l-1.55-.3q-.9-.25-1.45-.8-.65-.6-.75-1.4v-.85l.2-.9zM38.9 28.2l-2.15-.1-1.4-.5-.8-.45-.55-.5q-.9-1-.9-1.7 0-.4.3-.55l.75.1 2.15 1.1 1.95.25 1.5-.05q.5-.05 1-.4l1.05-.55q.8-.45 1.35-.55l.8.15q.2.3-.1.95l-.35.6-1.85 1.55-.9.4-.75.2zm-13.7 1.65q1.05 2.1 4.05 3.55 5.2 2.55 11.55 1.9l3.25-.65 3.35-1.5 3.45-2.05 1.4-1.05q.85-.6 1.6-.65l-1.45 3.1q-.8 1.1-2.95 2.45-3.85 2.4-5.8 2.95l-2.3.5-8.6-.3q-4.55-1.1-7.5-4.15-1.9-1.9-1.95-3.8 0-.55.25-.95.3-.45.7-.4.55.1.95 1.05m3.35-18.2q.5.5.45 1.25-.05.8-.6 1.25-.5.4-1.35.45H25.5l-1.85.2-1.6.05q-.8-.35-.65-1.2.1-.6 1.1-1.3 2.05-1.3 4.1-1.35 1.3 0 1.95.65"/></g></svg>