<svg xmlns="http://www.w3.org/2000/svg" xmlns:ffdec="https://www.free-decompiler.com/flash" ffdec:objectType="shape" width="35.2" height="30.7"><g fill-rule="evenodd"><path d="M33.35 12.8q-.6 3.15-2.2 5.85-1.4 2.3-3.5 4.3-2.5 2.25-6.45 4.1l-.25.1q-4.95 2.15-8.4 1.6-.8-.1-1-.55-.15-.3 0-.6l-.15-.4-.35-1.6Q10.4 22.75 6.4 20l-2.5-1.95q-1.4-1.4-1.95-3.4-.6-2-.2-4Q2.5 6.75 6 4.1q1.65-1.25 3.3-1.65 2.95-.7 5.7 1l1.7 1.45.8 1.15 1.6-1.55q.45-.45 1-.8 2.3-1.5 4.9-1.9 2.3-.35 4 .4 1.8.8 3.25 3.1.9 1.55 1.25 3.1.4 1.85-.15 4.4"/><path fill="#fff" d="M33.35 12.8q.55-2.55.15-4.4-.35-1.55-1.25-3.1Q30.8 3 29 2.2q-1.7-.75-4-.4-2.6.4-4.9 1.9-.55.35-1 .8l-1.6 1.55-.8-1.15L15 3.45q-2.75-1.7-5.7-1-1.65.4-3.3 1.65-3.5 2.65-4.25 6.55-.4 2 .2 4 .55 2 1.95 3.4L6.4 20q4 2.75 4.65 5.6l.35 1.6.15.4q-.15.3 0 .6.2.45 1 .55 3.45.55 8.4-1.6l.25-.1q3.95-1.85 6.45-4.1 2.1-2 3.5-4.3 1.6-2.7 2.2-5.85M7.95 24.75q-.6-1.9-3.2-3.95L2.8 19.15l-1.7-2Q-.85 14.1.6 9.65q.9-2.7 2.75-4.8 1.9-2.2 4.45-3.2Q10.45.6 13.3 1.1q2.9.45 4.9 2.35l.1.1 2.2-1.45Q22.3 1 23.3.6q3.2-1.25 6.45.1 3.2 1.35 4.65 4.55.95 2.35.8 5.7-.25 5.55-3.25 9.9-1.9 2.75-4.45 4.45l-.5.4-3.4 2.2q-5.15 2.45-10.4 2.75-2.65.2-3.75-.9-.75-.7-1-2.3z"/></g></svg>