<svg xmlns="http://www.w3.org/2000/svg" xmlns:ffdec="https://www.free-decompiler.com/flash" ffdec:objectType="shape" width="75.25" height="41.05"><g fill-rule="evenodd"><path fill="#999" d="m2.6 4.25-.65-.65h-.7Q.5 3.65 0 3.3V.35L.6 0h1.7l.5.2h.55l.7.4 2.8 1.65q2.05 1.1 3.55 1.3 2.25.25 4.1-1.15l.95-.85L17.35 0h6.2l.05.05.05-.05h3.9l.8 1.2q.7 1.6.45 2.85-.25 1.05-1.25 1.75-.95.7-2.1.7-1.1-.05-2.1-.7-.95-.6-1.55-1.6-.7-1.15-1.2-1.25-.45-.1-.95.25l-2.1 1.7-2.15 1.65-1.3.45-1.9.45q-1.5.15-3.5-.6L7.2 6.3 7 6.2q.35 1.65 0 3.3-.65 2.65-2.85 4.15Q2.2 14.9 0 14.8v-2.5l.3-.05q1.65-.2 2.5-.85 1.55-1.15 1.25-3.55-.15-1.5-1.45-3.6M73.2 15.3l-.7-1.35-1.05-1.1q-1.1-1.1-1.85-2.85-1.45-3.05-.85-5.45.2-.85.9-1.95-.2-.2-.55-.3-1.6-.5-3.3.95L64.55 4.6 63.4 5.95q-2 2.1-5.85 3.55l-1.15.4q-1.75.4-3.4-.6-.95-.6-1.4-1.4-.6-.95-.6-2.15 0-1.35.9-2.25 1-1 2.75-.85 1.7.1 2.3 1.4l.3.55.45.05 1.1-.15 1.45-.45L62 2.6 63.55.9Q64.2.35 65 0h5l1 .55.05.05.6-.6h2.2q.75.4.95 1.3.2 1.05-.65 2.35l-1.45 2-.3.85q-.15.85.5 2.2l.7 1.3 1.1 1.15.55.55v9.9l-1.5 1.25-1 1.1q-.15.35-.05.85 0 .55.35 1.35l1.45 2 .75 1.35v5.25l-.4.8-.8 1.2q-2.4 3.1-5.55 3.95l-1.05.25q-1.4.25-2.6 0-1.6-.3-2.95-1.35l-1.1-.85q-1.15-.75-3.6-.85l-.95.05q-.3.1-.65.45l-.55.55-1.2.8-1.1.85-.25.35h-1.15l-.05-.25.3-.7.95-1.45q1-1.5 2.25-2.4.75-.65 1.6-.95l1.7-.25 1.95-.05q1.45.15 2.85 1.05l1.35.75q1.7.7 3.5.05 1.6-.5 2.95-2l1.15-1.8q.45-1.15 0-2.05l-.8-1.15q-1.85-2.2-2.15-4.7-.35-2.9 1.6-4.75l1.7-1.3q1-.75 1.2-1.65.2-.7-.2-2.05m-12.65 5.6-.6.95q-.95 1.2-2.35 1.65l-2.85.35-1.3-.25q-1.65-.55-2.5-2.05-.85-1.45-.6-3.15.1-1 .55-1.85l1.25-1.85q.85-.95 2.2-1.3l.3-.05.9-1q1.7-1.4 4.35-1.25l1.75.3 1.55 1q1 .9 1.35 1.7l.45 1.55.2 1.65.05.15h.2q.6-.25.6-1.25l.1-1.45q.3-.95 1.55-.95l.4.05.2.35-.35.3-.5.15q-.35.25-.25 1l.15 1.1q.05.7-.4 1.3l-1.1.8-1.35-.05q-.7-.3-1.1-.85l-.4-.85q-.75-1.85-1.95-2.4-.8-.4-1.75-.25l-.2.05q.85.8 1.45 2.25l.4-.05.45.4q2.25 3.05 3.15 6.5.7 2.75.25 4.85-.6 2.75-2.65 3.9l-1.45.6-2.85.3q-1.5-.15-2.5-1.25l-1.15-1.8q-.75-1.15-1.7-1.2-1.2-.15-2.1 1.35l-1.3 2.3q-1 1.25-2.6 1.15T44 32.5l-.55-.5-.6.05-1.5.5q.25-1.5 1.35-2.15l1.3-.2q.75.1 1.05.65l.3.6.4.45q.45.15.9-.25l.95-1 .7-1.35Q49 28 50 27.25q1.75-1.35 3.95-.85t3.15 2.45l.95 1.2 1.05.05q1.5-.3 2.15-1l.55-1.25q.7-2.75-.9-7l-.15-.4zM12.4 26.75l-.75-.65-1-1.5-.1-1.3.1-1.15q.4-2.1 2.2-3.35 1.75-1.2 4.1-.85 1.65.25 2.55 1.3l.3.35v-1.1q-.45-1.95-1.9-2.3l-1.5.1-1.75.6-1.3.9q-.8.4-1.6.4-.85 0-1.4-.4-.75-.5-.65-1.3 0-.25.35-.95l.3-.4q.2-.3.45-.1l.25.45-.2.5-.1.45q.05.3.4.4.7.2 1.45-.35l1.05-1.1q1.25-1.35 2.8-1.85l3.35.15q2 .9 2.8 3.7.45 1.65.1 3-.3 1.2-1.1 1.9.4.05.6.55 1.05 1.65.25 4.3l-2.1 3.9q-1.05 1.85-.65 2.9.45 1.05 1.5 1.2 1.05.25 1.9-.45l1.2-1.15 1.45-.95q1.55-.8 2.15-.9 1.35-.35 2.25.35l.75.7.7.65q.75.4 2 0l1.9-.55q.55-.1.65.2v.4q-.25.85-1.65 1.45l-1.6.55q-1.75.3-3.05-.9l-1.1-.9q-.65-.2-2.05.65l-1.2.7-1.25 1-1.15.6q-1.4.65-2.3.65-1.25.05-2.55-.65l-1.1-.9q-.85-1.05-.65-2.75.25-2.4 2.7-5.25l1.5-1.9q.65-1.3.25-2.3l-.2-.6.05-.15-.15.05q-.1 1.25-.9 2.4-1.1 1.65-3.2 2.15l-3.05-.15zm.6 5 .4 1.2q.2 1.3-.5 2.6l-1.1 1.4.1.35.15.55.15.35.15 1.2q0 .95-.7 1.55h-5.5l-.1-.05-.05.05h-.9l-.05-.05-.15-.25-.2-.25-.45-.7-.2-.2-.3.05-.25.1h-.4l-.35-.05-.2-.15-.4-.45-.1-.35.25-1.05.25-.4.45-.05.15.15-.2.3-.05.4.05.3-.1.15.2.2.3-.1.95-.35h.5l.6.35.35.25.25-1-1-.75-.75-1q-1 .15-2-.45Q1 34.75 1 33.25l.05-.3q.1-1 .85-1.7.75-.75 1.75-.75l.15-.05 1.05.2 1.1-.9.15-.1v-.05q-.15-1.05.7-2 .8-.8 1.95-.65 1.2.15 1.8 1.25l.3 1.1h.05l-.6.55-.2.35-.05.25-.05.3.15.65.25.4.35.35.4.2.6.1.45-.1.4-.2zm-4.6 3.1.15-.45.1-.55-.05-.2-.25-.65-.15-.25-.35-.3-.3-.2-.75-.1-.6.1-.35.2-.5.55-.2.45-.05.35v.45l.3.75.1.05.1.15.8.45.5.05q.8 0 1.25-.55zm2 1.05q.3-.2.2-.55v-.5l-.05-.15.1.05.35-.05.2-.1.4-.1.15-.2-.1-.2-.2-.05-.25-.1-.7-.2-.2-.3-.35-.25q-.3 0-.4.2l-.05.15.2.4.05.15.15.15.05.15-.3.65-.05.45.15.3z"/><path fill="#fff" d="m10.9 29.3.05-.05.7-.1v-.05l.7.15.65.55.15.25.1.3.05.25-.1.85-.15.25-.05.05-.4.4-.4.2-.45.1-.6-.1-.4-.2-.35-.35-.25-.4-.15-.65.05-.3.05-.25.2-.35zm-.5 6.6-.65-.1-.15-.3.05-.45.3-.65-.05-.15-.15-.15-.05-.15-.2-.4.05-.15q.1-.2.4-.2l.35.25.2.3.7.2.25.1.2.05.1.2-.15.2-.4.1-.2.1-.35.05-.1-.05.05.15v.5q.1.35-.2.55m-2-1.05-.25.3q-.45.55-1.25.55l-.5-.05-.8-.45-.1-.15-.1-.05-.3-.75v-.45l.05-.35.2-.45.5-.55.35-.2.6-.1.75.1.3.2.35.3.15.25.25.65.05.2-.1.55z"/><path d="M52.6 16.8q.55-.8 1.45-1.4 2.45-1.55 5.05-.85 2.75.65 3.95 3.2.55 1.05.7 2.55.4 3.6-1.35 7-1.8 3.3-5 5.05l-1.65.75q-2.95 1.15-4.75.95l-1.6-.35-1.35-.5q-1.8-.85-2.65-2.65l-.45-.55-.5-.05-1.35.35.4 1q.55 1.7.45 4.5l-.2 1.9q3.3-2.4 7.55-3.25l2.65-.1q1.05.25 2.7 1.5l2.65 1.6 3.65-.25q2-.55 2.65-1.85l.3-1.05.4-2.15q.3-1.2.9-1.85 1.1-1.25 2.7-.9 1.15.25 1.7 1.2l.3 1.5q0 1.9-.85 3.6l-1.15 1.8-2.2 2.4-1.5 1.05h-9.8l-.55-.35-1.8-1.65q-1.2-.9-2.2-1.05l-1.95.3-7.15 2.75h-19.7q.2-.85 1.45-1.65l3.05-1.3 1.05-.55 1.4-.5 2.15-1.15q2.65-1.55 3.45-3l.3-.55-1.6.95-1.45.5-1.95.75-2.05.25q-2.1.2-3.5 0-1.95-.25-3.25-1.15l-.95-.9-.5-1.05q-.65-1.65-.45-3.1l.25-1.4-.2-1.4-.35-.85-.85-.6q-1.55 1.45-2.5 1.85l-3 .05q-.75-.4-1.15-1.25-.35-.75-.25-1.55l.1.1 1.25.1q.65-.4.4-1.2-.25-.75-1.05-.65l-.25.1q.45-.85 1.35-1.55 2.05-1.75 4.95-1.4 2.7.3 4.65 2.4.75.85 1.1 1.65.4.95.4 1.85l-.2 1.95-.5 1.9-.1 1.2q.1.7.5 1.05l.95.4 2.9.4q3.95.1 6.75-1.6l.1-.05-.5-.05q-3.9-.55-6-2.5l-1.05-1.3Q26 23.7 25.65 21l-.15-1.8.05-1.35-.1-.25L24 13.15q-.25-.9.2-1.5.3-.4 1.25-.6l1.05-.25 1.4-.25.85-.05h.3l.6-.55q1.3-1.15 2.6-1.75 1.55-.85 3.6-1.25L39 6.7l2.3-1.55q1.1-.8 1.9-.75.95 0 1.75.95l.95 1.8 1.5 3.75.2.5.45.6q.65 1 1.1 2.15.8 2 .7 4.15l-.2 1.65-.6 2.6q-.65 2.05-2.2 3.7l-.6.65q.95.1 1.5.85l.6 1q.8 1.1 2.5 1.1l2.7-.65q2.45-1 3.45-2.15l1.1-1.5.85-1.9q.3-1.25.1-2.35l-1.2.6-1.25.5-2.6-.1q-1.15-.4-1.75-1.3-.65-.9-.45-2l.05-.5.2.2.65.2q.8 0 1-.9.1-.85-.65-1.1zm-34.3 4.8-.4-.1q-.5 0-.9.4-.4.55-.05 1.25.45.65 1.15.45t.8-.95q.1-.7-.6-1.05m15.45 1.45h-.45l-.15.05v.15l-.05.2v.2l.15.3.45.25.25.15h.55l.3-.1.8-.4.4-.45.1-.05.2-.3.05-.2 1.4.25.35-.05 1.05-.45.3-.3.5-.7.1-.2-.15-.4-.5-.15-.4.3-.25.15-.15.2-.3.1h-.25l-.2-.15-.35-.15-.55-.4-.65-.25-.05.05h-.1q-.2-.05-.45.2l-.15.1-.15.1-.25.4v.3l-.05.25-.15.35-.1.05-.25.3-.45.2L34 23zm-5.2-4.3q-1.5.25-2.1 1.75-.5 1.6.5 2.75.95 1.2 2.6.95 1.5-.25 2.1-1.75.35-1 .05-1.9h-.05q-.75-.1-1.2-.4l-.85-1.05-.15-.35zm29.85-.85-.65-.25-.15.05q-.4.05-.7.35-.3.35-.25.75l.3.75q.3.35.75.4.4.05.8-.25l.4-.75q.1-.7-.5-1.05m-17.2-4-.75.4-.25 2-.4 1-.5.65q.25.9 1.05 1.55.85.7 1.8.75 1 .1 1.9-.45.9-.5 1.3-1.4.45-.9.3-1.9-.15-1.05-.85-1.75-.65-.75-1.7-.95z"/><path fill="#fff" d="M12.15 23.35q-.4-.55-.05-1.15l.15-.2.35-.2.25-.1q.8-.1 1.05.65.25.8-.4 1.2l-1.25-.1zm39.7-4.85-.2-.35-.05-.25.05-.35.15-.25q.3-.5.8-.5l.45.1q.75.25.65 1.1-.2.9-1 .9l-.65-.2zM41.2 13.9l1.9-.1q1.05.2 1.7.95.7.7.85 1.75.15 1-.3 1.9-.4.9-1.3 1.4-.9.55-1.9.45-.95-.05-1.8-.75-.8-.65-1.05-1.55l.5-.65.4-1 .25-2zm17.2 4q.6.35.5 1.05l-.4.75q-.4.3-.8.25-.45-.05-.75-.4l-.3-.75q-.05-.4.25-.75.3-.3.7-.35l.15-.05zm-29.85.85h.9l.15.35.85 1.05q.45.3 1.2.4h.05q.3.9-.05 1.9-.6 1.5-2.1 1.75-1.65.25-2.6-.95-1-1.15-.5-2.75.6-1.5 2.1-1.75m5.2 4.3L34 23l.15-.05.45-.2.25-.3.1-.05.15-.35.05-.25v-.3l.25-.4.15-.1.15-.1q.25-.25.45-.2h.1l.05-.05.65.25.55.4.35.15.2.15h.25l.3-.1.15-.2.25-.15.4-.3.5.15.15.4-.1.2-.5.7-.3.3-1.05.45-.35.05-1.4-.25-.05.2-.2.3-.1.05-.4.45-.8.4-.3.1h-.55l-.25-.15-.45-.25-.15-.3v-.2l.05-.2v-.15l.15-.05zM18.3 21.6q.7.35.6 1.05-.1.75-.8.95t-1.15-.45q-.35-.7.05-1.25.4-.4.9-.4z"/></g></svg>