<svg xmlns="http://www.w3.org/2000/svg" xmlns:ffdec="https://www.free-decompiler.com/flash" ffdec:objectType="shape" width="75.6" height="41.35"><g fill-rule="evenodd"><path fill="#999" d="M25.4 37.9q3 1.25 5.2 1.7l5.4.6q10.6.4 15.85-3.9 3.4-2.8 4.85-7.5 1.3-4.35.7-9.2-.35-2.6-1-4.1l-.25-.6 3.6-9.05.2-.8q.2-1.15-.4-1.8Q59 2.6 57.8 2.8l-1.75.7-.55.25-1.65.6-1.45.5-2.5 1-1.05.5Q47.2 5.1 45.6 4.4l-1.8-.65Q41.15 2.95 38 3l-2.8.2q-4.65.6-8.3 2.9l-1.25-.65-2.7-1.4-1.65-.75-2.15-.75-1.2-.1-.45.15-.35.25-.4.5-.2 1.2.35 2.35.25.95L18 11l.25.5.4 1.6.5 1.1v.1l.05.1.15.55q-2.15 4.8-2.15 10.2 0 6.2 2.9 9.35 1.6 1.8 5.3 3.4M0 0h75.6v41.35H0z"/><path fill="#fff" d="M25.4 37.9q-3.7-1.6-5.3-3.4-2.9-3.15-2.9-9.35 0-5.4 2.15-10.2l-.15-.55-.05-.1v-.1l-.5-1.1-.4-1.6L18 11l-.85-3.15-.25-.95-.35-2.35.2-1.2.4-.5.35-.25.45-.15 1.2.1 2.15.75 1.65.75 2.7 1.4 1.25.65q3.65-2.3 8.3-2.9L38 3q3.15-.05 5.8.75l1.8.65q1.6.7 3.25 1.95l1.05-.5 2.5-1 1.45-.5 1.65-.6.55-.25 1.75-.7q1.2-.2 1.75.45.6.65.4 1.8l-.2.8-3.6 9.05.25.6q.65 1.5 1 4.1.6 4.85-.7 9.2-1.45 4.7-4.85 7.5Q46.6 40.6 36 40.2l-5.4-.6q-2.2-.45-5.2-1.7"/><path d="M49.1 22.05q-.8-.35-1.15-1.25-.45-1.4.65-2.3.5-.4 1.15-.5l1.25.25q.55.3.85.9t.2 1.25l-.35.9-.4.5-.65-.1-1.45.3zm-25.15 0-.1-.1-.05-.1q-.3-.55-.25-1.15.1-.75.6-1.35.55-.6 1.25-.75l1 .05q.65.15 1.15.65.5.55.55 1.35l-.05.85-.05.05-.25.55-.2.3-.15.2-.5-.05-1.5.1-.8.15-.65-.7zm-6.15 15.6q-1.6.75-3.45.35-1.85-.35-2.8-1.45-1.05-1.3-.8-3.15.25-2.1 2-3.45 1.65-1.25 3.8-1.1l1.55.15 1.6-.35Q22 27.9 27 27l4.35-.8 2.45-.35 1.8-.05q.8.2 1.2.7l.45 1.15q.1 1-.3 1.65l-1.25 1-1.5.65 1.9.35q1.2-.05 2.15-.85l.8-.85.85-.85.3-.1.45.2.25.95-.1.7-.5 1.15-.55.8-1.15.8q-1.55.8-2.9.65l-.95-.2L33 33l-.9-.9-.2-.4-12 3.5q-.35 1.65-2.1 2.45m4.15-7-1.2.35-1.6.5-.35.1-.2.1-.25.05-.3.1-.65.05-.85-.1h-1l-.25.1h-.05l-.9.65q-.8.8-.7 1.5.1.5.55.85l1.15.45 1.5-.2.2-.2.05-.05.4-.65.4-.7q.35-.4.95-.35h.05l.3.1.2-.1h.1v-.05l1.6-.6.95-.35.35-.1-.05-.7q.25-.3.75-.35.55 0 .9.55l1.75-.55.05-.4q.25-.4.6-.4l.15-.1.6.25.1.15.95-.3.25-.4.3-.15q.35.05.55.2l2.55-.8 2.8-1.2-.95-.15-.75.05-2.65.7-4.75 1.1z"/><path fill="#999" d="m48.2 8.75-.1.75q-.35.85-1 .9t-1.25-.8l-.95-1.8-.65-.95-.3-.25.15-.35q.5-.3 1.3 0 1.6.55 2.4 1.45.4.6.4 1.05m-5.65 4.15q.15-.2.45-.1l.45.25.85.95.5.95.25.65.3 1.2q0 .5-.4.9-.35.45-.9.35-.65-.15-.95-1L43 15.6l-.2-1.5-.15-.65zm13.4 13.95-.8.15-.65-.55-.05-.85q.2-1.65.7-3.55l.3-.4.35.4.65 1.7q.4 1.25-.05 2.45zM30.2 14.05l-.2 1q-.25.7-.9.85-.4.1-.8-.25l-.45-.7q-.2-.75.45-1.65l1.25-1.3.9-.8q.45-.35.65-.15v.5zm-9.25 1.1.8-.65 1.45-1.3.65-.45.8-.05q.25.25-.05.7l-.65.9-.6.85-.25 1.1-.5 1q-.6.45-1.35 0-.6-.45-.6-1.2 0-.5.3-.9m1.4 16.25.05.7-.35.1-.95.35-1.6.6v.05h-.1l-.2.1-.3-.1h-.05q-.6-.05-.95.35l-.4.7-.4.65-.05.05-.2.2-1.5.2-1.15-.45q-.45-.35-.55-.85-.1-.7.7-1.5l.9-.65h.05l.25-.1h1l.85.1.65-.05.3-.1.25-.05.2-.1.35-.1 1.6-.5 1.2-.35.1.15z"/><path fill="#fff" d="m51.3 21.8.45.05q.5.15.7.45.35.45.05.8-.25.4-1 .2l-1.1-.15-1.4.2-.65-.25q-.25-.35.15-.75l.6-.3.1-.05 1.45-.3zm-23.25-.3q.65.05.9.45l.15.55.1.1q.35.45-.15.85v.05q.05.6-.65 1.05l-1.45.3-1.55-.05-2.6.15q-.7-.3-.85-1.05-.25-.7.3-1.3.25-.35.7-.5-.65.5-.65 1.25l.05.45.15-.35.15-.55q.3-.5 1.3-.85v.05l.65.7.8-.15 1.5-.1.5.05.15-.2.2-.3.25-.55z"/></g></svg>