<svg xmlns="http://www.w3.org/2000/svg" xmlns:ffdec="https://www.free-decompiler.com/flash" ffdec:objectType="shape" width="77.65" height="42.85"><path fill="#999" fill-rule="evenodd" d="M13.1 1.4h42.8l-.1.05q-.65.35-.45 1.1l.2.4.2.55 1.5 6.15-.4.35q-.75.65-.85 1.25l.15.9.65 1.45q.9 1.6 1.95 3l-5.05 3.75-.05-.4-.4-2.15-.3-2.15-.4-2.05-.15-1 .05-.75-.3-.7q-.3-.25-.7-.15l-.75.15-1.15.05q-.7 0-1.1.4-.5.5-.25 1.15t1 .65l.65-.1 1.25-.4.7 3.8.15 1.05.55 2.55.3.8-1.1.95-1.1 1.1q-.25.35-.2.55 0 .5.75.5.45 0 1.5-.8 2.15-1.8 6.2-4.55l1.7-1.05q.75-.35.9-.65.2-.4-.15-1.05l-.7-.8-.85-1.3-.9-1.7-.1-.45.25-.35 2.8-2.2h.1l4.55.65 2.3.2L68 13.2q-.2.75-.05 1.05.3.55 1.45.55l5.25.65 1.05.15v10.95h-.2l-5.65.85-1.15.3q-.6.4-1.1 1.5l-2.75 6.15-.05.1h-2.25l-.15-5.85q0-1-.4-1.4-.4-.5-1.2-.4-.65.1-1.2.4L56 29.8q-3.45 1.35-4.2 1.85l-.55.4q-.2.4-.05.65.2.5 1.15.4 2.9-.45 7.2-2.2l.05 2.5v2.55l-.05 1.15q0 .6.4 1.1.5.4 1.6.4l11.55.95 2.4.25.2.05v1.85H57.9l-.05-.05-.4-.55-.1-.7-.25-1.8-.05-.7q-.15-.4-.9-.6l-2.4-.35h-.5l-.35-.1-.6-.05q-.5 0-.9.25-.45.25-.55.75-.1.55.25.95.25.4.95.55l1.1.05h2.6l.5 2.05.2.3H6.3l1.25-2 1.5-2q.35.85 1.2 1.6l1.2.65.9-.6q2-2.15 4.1-3.7l1.15-.8q2.5-1.75 3.7-2.3l1.2-.8.55-.2-.35 1.95q-.1.9.15 1.25l.15.2-.4.2q-.15.15-.35.25-.25.3-.15.7l.5.5.65.15.75.05.05-.05h1.35l1.05.05.3-.15.55-.15.2-.5-.1-.35-.35-.45q-.25-.2-.85-.3l-.65-.1H24.5l.2-.5.2-1.05.4-3.25h.3l.65.15 1.05.05v-.05l.3-.05h.4l.5-.25.45-.65-.75-.65-.25-.05h-.3l-.35.05-.55.25-.3.05-.15.05h-.2l-.35.05-.3.1.45-1.45q.6-1.8 1.35-3l.25-.7q0-.6-.75-.6-.55.05-.95.55l-.95 1.4q-.75 1.55-1.2 3.05l-.25 1.55-.3-.25-.95-.3q-4.65-.5-7.9-.15l-1.6.15-2.1-.25q-.2-1.45-.1-4.95v-.5l.05-2.15.35-8.95-.15-2.3.05-.15q.2-.75-.4-1.15L9 8.85q-.45.15-1.15.75l-3.3 2.75L3.6 3.5l-.15-2.1h7.05v.3l.6.95 2.85 4.2.75 1.2.65.8q.4.4.95.25l.6-.4q1.05-.9 2.45-1.3l1.05 3.35-.15.3q-.15.4-.15 1.4l-.25 2.9-.25 2.4-.5-.15-1.65-.2-.75.1-.4.5v.65l.05.05-.5 5.1v.7l.3.6.7.25q.4-.05.65-.3l.25-.35.05-.5-.05-3.2.15-1.65v-.05l1.05.15.05.05h.2l.05.05h.2l.05.05 1.65-.05.15-.15q.4-.1.3-.55l-.05-.15.1-.8.25-2.7.2-2.7 3.75 1.7 2.2.35.5-.3q.2-.35 0-.55l-.35-.25h-.15l.25-.65q.6-1.45 2.75-3.2l.8-.6 1.2-.5 2.3-.95.05.55.25.9v.15l.2.25.3.15.45-.1.15-.2.05-.15.05-.25.1-.2.05-.3.05-.15.2-.3.15-.65h.05l1.1-.1h.55l.4-.2.4-.35-.05-.6-.3-.2q-.6-.3-1.1-.3l-1.35-.25-.05.05-.95.15q-.35.1-.55.3l-.3.5L35 6.2l-.6-.1h-.65q-2.9.5-4.95 2.15l-.6.6-1.1 1.2-.9 1.4-.45 1.05-3.25-1.7-.8-.45-.3-1.2-.65-2.5q0-.75-.3-1.1-.5-.4-1.4 0l-2.75 1.1-1.75-2.75-.55-1zm43.55 0H66.9l-3.75 3.3-4.9 4.1-.95-6.1-.35-1.05zm13.5 0h5.55v11.9l-.35-.05-5.45-.55.7-2.7.05-.75q-.1-.35-.6-.55l-.8-.05-6.05-.45 2.7-2.15 3-2.3 1.2-1.25zM75.7 28v8.5h-.1l-8.35-.95.95-2.25q.95-2.2 1.65-3.5l.25-.4.55-.25L75.6 28zM5 41.7H.5V1.4h1.4q-.15 1.8 0 4.95l.45 8.15q.1.9.35 1.15.6.6 1.4.15l1.25-.9 3.9-3.15Q9.05 12.8 9 14.2l-.45 9.15-.3.15-2.8.95q-.6.2-.8.5l-.1.6-.45 2.15-.15.35-.55.25-.5.25q-1.45.65-1.7.85l-.35.4.05.5.55.1.5-.3q1.1-.8 2.35-1l.55-.15.45-.6.65-2.4 2.55-.8-.05.35.05 2.4.05 2.1.15.75q.3.45 1.25.55l3.3.25 5.4-.1.6.1-1.05.6-1.15.8-1.4 1q-3.15 2.4-4.25 3.8l-.7-.95-.5-1.1q-.45-.65-1.05-.5l-.9.85-2.9 4.85-.35.75zm29.6-17-.05.4.05.3.15.35.4.35.55-.1.35-.4.15-.3v-.2l.1-.3.85-.2H38l.45-.1.25-.4-.3-.4-.5-.05h-.15l-.15-.1-.15-.05-.75-.15-1.4.05-.35.2-.05.15-.15.2v.2zm-4.9-12.5-.1.4.1.6q.25.5.8.5.6 0 .85-.45.25-.55-.05-.95l-.25-.3q-.25-.25-.6-.25l-.15.05q-.2-.05-.45.2zm8.05.75-.2.3-.05.3.05.45.4.4.45.1q.55 0 .8-.45t-.05-.95q-.35-.45-.85-.4-.3 0-.55.25m-.5 19.35-3.2-.25-2.05-.4-1.55-.05q-.55.35-.25 1.05.15.55.75.9.85.65 3.05.95l3.55.2 1.85-.25q2.85-.4 4-1.45l.5-.7q.15-.5-.1-.85-.25-.4-.9-.4-.45 0-1.05.25l-1.05.4zm12.2-7.4-.45-.95-.5-1.05q-.5-.6-1-.5-.55.1-.75.7-.15.5.1 1.1l.45 1 .45 1.85.3 1.7h-2.1l-.35.15-.35.4-.05.15v.15l.6.55 1.05.2v.05l1.45-.05q.3 1.8.2 2.75l.05.95.2.4-.35-.05-.05.05-2.25.05-.45.15q-.35.1-.55.3l-.25.5.2.55q.3.45.95.45l.5-.1 1.25-.1 1.2-.1.7-.25.25-.15.05-.1.1-.3-.1-.4-.1-.2.6-.55.15-1.05-.15-3.85zm-17.2-5.65-.85.9-.4 1.15-.55 2.35v.55q.15.4.65.2l.55-.45 1.2-2.45.25-.45.55-.15 6.65-.45.3.05-.1.05-.4.6.15.65.55.4.1.1h.35l.1-.1q.7-.15.7-.9l-.35-.7-.05-.05h.45q1 0 1.15-.7l-.15-.6-.55-.4-1.3-.25-8.3.5zm13.5-5.55q.75 0 1.1-.75t-.3-1.3-1.3-.15q-.75.35-.6 1.2l.35.65q.35.3.75.35m2.05-5.3-.2-.25-1.1-.95-.35-.25q-.55-.45-1.55-.7L43.5 6l-1.45-.1-1.15.05q-.5.1-.65.35l.05.4.3.35 3.9 1.25.35.25 1.55.55.95.15.75-.2z"/><path fill="#fff" fill-rule="evenodd" d="M10.5 1.4q-.05-.5.35-.9L12.1.35l.85.8.15.25.9 1.5.55 1 1.75 2.75 2.75-1.1q.9-.4 1.4 0 .3.35.3 1.1l.65 2.5.3 1.2.8.45 3.25 1.7.45-1.05.9-1.4 1.1-1.2.6-.6q2.05-1.65 4.95-2.15h.65l.6.1.25.05.3-.5q.2-.2.55-.3l.95-.15.05-.05 1.35.25q.5 0 1.1.3l.3.2.05.6-.4.35-.4.2h-.55l-1.1.1h-.05l-.15.65-.2.3-.05.15-.05.3-.1.2-.05.25-.05.15-.15.2-.45.1-.3-.15-.2-.25V9l-.25-.9-.05-.55-2.3.95-1.2.5-.8.6q-2.15 1.75-2.75 3.2l-.25.65h.15l.35.25q.2.2 0 .55l-.5.3-2.2-.35-3.75-1.7-.2 2.7-.25 2.7-.1.8.05.15q.1.45-.3.55l-.15.15-1.65.05-.05-.05h-.2l-.05-.05H19l-.05-.05-1.05-.15v.05L17.75 21l.05 3.2-.05.5-.25.35q-.25.25-.65.3l-.7-.25-.3-.6v-.7l.5-5.1-.05-.05V18l.4-.5.75-.1 1.65.2.5.15.25-2.4.25-2.9q0-1 .15-1.4l.15-.3-1.05-3.35q-1.4.4-2.45 1.3l-.6.4q-.55.15-.95-.25l-.65-.8-.75-1.2-2.85-4.2-.6-.95zm45.4 0h.75l.3.25.35 1.05.95 6.1 4.9-4.1 3.75-3.3.1-.1q1.1-.9 1.95-.8.65.05 1.1.7l.1.2-.05 1.1-1.2 1.25-3 2.3-2.7 2.15 6.05.45.8.05q.5.2.6.55l-.05.75-.7 2.7 5.45.55.35.05.7.3q.5.4.4.95-.05.6-.6.9l-.5.15-1.05-.15-5.25-.65q-1.15 0-1.45-.55-.15-.3.05-1.05l.75-3.05-2.3-.2-4.55-.65h-.1L59 11.5l-.25.35.1.45.9 1.7.85 1.3.7.8q.35.65.15 1.05-.15.3-.9.65l-1.7 1.05q-4.05 2.75-6.2 4.55-1.05.8-1.5.8-.75 0-.75-.5-.05-.2.2-.55l1.1-1.1 1.1-.95-.3-.8-.55-2.55-.15-1.05-.7-3.8-1.25.4-.65.1q-.75 0-1-.65t.25-1.15q.4-.4 1.1-.4l1.15-.05.75-.15q.4-.1.7.15l.3.7-.05.75.15 1 .4 2.05.3 2.15.4 2.15.05.4 5.05-3.75q-1.05-1.4-1.95-3l-.65-1.45-.15-.9q.1-.6.85-1.25l.4-.35-1.5-6.15-.2-.55-.2-.4q-.2-.75.45-1.1zm19.8 25.15h.45l.55.4q.2.45-.3.75l-.7.3h-.1l-4.95 1.15-.55.25-.25.4q-.7 1.3-1.65 3.5l-.95 2.25 8.35.95h.1l1.2.4q.75.45.75 1.35 0 .85-.8 1.35l-1.15.25-.2-.05-2.4-.25-11.55-.95q-1.1 0-1.6-.4-.4-.5-.4-1.1l.05-1.15V33.4l-.05-2.5q-4.3 1.75-7.2 2.2-.95.1-1.15-.4-.15-.25.05-.65l.55-.4q.75-.5 4.2-1.85l3.6-1.6q.55-.3 1.2-.4.8-.1 1.2.4.4.4.4 1.4l.15 5.85h2.25l.05-.1 2.75-6.15q.5-1.1 1.1-1.5l1.15-.3 5.65-.85zM57.9 41.7l.1.5-.2.5-.75-.1-.6-.9-.2-.3-.5-2.05h-2.6l-1.1-.05q-.7-.15-.95-.55-.35-.4-.25-.95.1-.5.55-.75.4-.25.9-.25l.6.05.35.1h.5l2.4.35q.75.2.9.6l.05.7.25 1.8.1.7.4.55zm-51.6 0-.1.15q-.4.5-.75.45-.45-.05-.45-.6v-.05l.35-.75 2.9-4.85.9-.85q.6-.15 1.05.5l.5 1.1.7.95q1.1-1.4 4.25-3.8l1.4-1 1.15-.8 1.05-.6-.6-.1-5.4.1-3.3-.25q-.95-.1-1.25-.55L8.55 30l-.05-2.1-.05-2.4.05-.35-2.55.8-.65 2.4-.45.6-.55.15q-1.25.2-2.35 1l-.5.3-.55-.1-.05-.5.35-.4q.25-.2 1.7-.85l.5-.25.55-.25.15-.35.45-2.15.1-.6q.2-.3.8-.5l2.8-.95.3-.15L9 14.2q.05-1.4.25-2.45l-3.9 3.15-1.25.9q-.8.45-1.4-.15-.25-.25-.35-1.15L1.9 6.35q-.15-3.15 0-4.95l.05-.5q.1-.85.6-.9l.6.25.25.65.05.5.15 2.1.95 8.85 3.3-2.75Q8.55 9 9 8.85l1.35.05q.6.4.4 1.15l-.05.15.15 2.3-.35 8.95-.05 2.15v.5q-.1 3.5.1 4.95l2.1.25 1.6-.15q3.25-.35 7.9.15l.95.3.3.25.25-1.55q.45-1.5 1.2-3.05l.95-1.4q.4-.5.95-.55.75 0 .75.6l-.25.7q-.75 1.2-1.35 3l-.45 1.45.3-.1.35-.05h.2l.15-.05.3-.05.55-.25.35-.05h.3l.25.05.75.65-.45.65-.5.25h-.4l-.3.05v.05l-1.05-.05-.65-.15h-.3l-.4 3.25-.2 1.05-.2.5h1.05l.65.1q.6.1.85.3l.35.45.1.35-.2.5-.55.15-.3.15-1.05-.05h-1.35l-.05.05-.75-.05-.65-.15-.5-.5q-.1-.4.15-.7.2-.1.35-.25l.4-.2-.15-.2q-.25-.35-.15-1.25l.35-1.95-.55.2-1.2.8q-1.2.55-3.7 2.3l-1.15.8q-2.1 1.55-4.1 3.7l-.9.6-1.2-.65q-.85-.75-1.2-1.6l-1.5 2zM47.8 8.4l.3.65-.75.2-.95-.15-1.55-.55-.35-.25-3.9-1.25-.3-.35-.05-.4q.15-.25.65-.35l1.15-.05 1.45.1 1.1.25q1 .25 1.55.7l.35.25 1.1.95zm-2.05 5.3q-.4-.05-.75-.35l-.35-.65q-.15-.85.6-1.2.65-.4 1.3.15t.3 1.3-1.1.75m-13.5 5.55.7-.15 8.3-.5 1.3.25.55.4.15.6q-.15.7-1.15.7h-.45l.05.05.35.7q0 .75-.7.9l-.1.1h-.35l-.1-.1-.55-.4-.15-.65.4-.6.1-.05-.3-.05-6.65.45-.55.15-.25.45-1.2 2.45-.55.45q-.5.2-.65-.2v-.55L31 21.3l.4-1.15zm17.2 5.65 1 4.4.15 3.85-.15 1.05-.6.55.1.2.1.4-.1.3-.05.1-.25.15-.7.25-1.2.1-1.25.1-.5.1q-.65 0-.95-.45l-.2-.55.25-.5q.2-.2.55-.3l.45-.15 2.25-.05.05-.05.35.05-.2-.4-.05-.95q.1-.95-.2-2.75l-1.45.05v-.05l-1.05-.2-.6-.55v-.15l.05-.15.35-.4.35-.15h2.1l-.3-1.7-.45-1.85-.45-1q-.25-.6-.1-1.1.2-.6.75-.7.5-.1 1 .5l.5 1.05zm-12.2 7.4 3.55-.6 1.05-.4q.6-.25 1.05-.25.65 0 .9.4.25.35.1.85l-.5.7q-1.15 1.05-4 1.45l-1.85.25-3.55-.2q-2.2-.3-3.05-.95-.6-.35-.75-.9-.3-.7.25-1.05l1.55.05 2.05.4zm.5-19.35q.25-.25.55-.25.5-.05.85.4.3.5.05.95t-.8.45l-.45-.1-.4-.4-.05-.45.05-.3zm-8.05-.75.15-.2q.25-.25.45-.2l.15-.05q.35 0 .6.25l.25.3q.3.4.05.95-.25.45-.85.45-.55 0-.8-.5l-.1-.6zm4.9 12.5.15-.55v-.2l.15-.2.05-.15.35-.2 1.4-.05.75.15.15.05.15.1h.15l.5.05.3.4-.25.4-.45.1h-.85l-.85.2-.1.3v.2l-.15.3-.35.4-.55.1-.4-.35-.15-.35-.05-.3z"/><path fill="none" stroke="#999" stroke-linecap="round" stroke-linejoin="round" d="M13.1 1.4h53.8m3.25 0h5.55v11.9m0 2.3v10.95m0 1.45v8.5m0 3.35v1.85H57.9m-1.45 0H6.3m-1.3 0H.5V1.4h1.4m1.55 0h7.05"/><path fill-rule="evenodd" d="m24.6 13.3-.45-2.45-.1-2.75q0-1.5.35-3.7.1-.85.45-1.6.55-.85 1.35-.9.45 0 1.8.75l1.3.7 2.35 1.55.2.15.15-.1q1.9-1 3.3-1.3l1.8-.25 5.95.35 1.35.55v-.05l1.15-.7 1-.8.6-.7q.5-.5 1.2-.55.75-.05 1.3.35.9.65 1.1 2.6l.2 2.8q.1 2.65-.45 4.05l-.25.55.2 2q.15 2.7-.45 4.9l-.6 1.8.1.55 1.35.45 3 .4 2.7-.75 1.05-.6.55-.65-.35-.55q-.8-1.15-.95-2.45-.2-1.4.4-2.5.3-.75 1.25-1.45 1.1-.8 2.5-.9 1.4-.15 2.65.45l1.45 1.1 1 1.55.5 2.65q.3 1.9-.2 3.2l-1 1.95-1.5 1.5q-3 2.75-8.1 2.3l-3.1-.6-1.3-.4.05.3.1.3.1.6q1.2 5.1 1.1 10.55-.1 2.95-.65 4.85h-3.55v-.15l.4-1.7.15-.75-3.85-.25-.9-.2-.3-.6V38l.2-2 .1-.65.15-.5v-.35q0-.35.4-.65l.75-.25q1.15-.2 2.95 0l.75.1-.4-4.7h-2.7l-.4-.05-.05.3q-.3 1.75-1.1 2.35l-1.3.6q-6.45 1.95-11.1.55-2.85-.8-3.85-2.7l-.35-.9h-.45L25.2 29q-.65-.1-.95-.4l-.05.1q-.8 2.7-.95 5.45l.05-.05.7-.1 3.2-.15.8.1q.5.2.7.85l.05 1.15q-.05 1.35-.5 2.9l-.25.55-.95.25-2.75-.05-.65.05.25.85.3 1.2v.7h-4q-.35-.95-.35-2.5-.05-2.9.35-6.55l.25-1.5q.5-2.8 1.4-5.1v-.05l.25-.6.2-.35-1.45.45-3.1.6q-5.1.45-8.1-2.3L8.15 23q-.55-.65-1-1.95-.5-1.3-.2-3.2l.5-2.65q.25-.7 1-1.55l1.45-1.1q1.25-.6 2.65-.45 1.4.1 2.5.9.95.7 1.25 1.45.6 1.1.4 2.5-.15 1.3-.95 2.45l-.35.55.55.65q.35.3 1.05.6l2.7.75 3-.4 2.05-.7-.05-.15-.4-1.25-.2-1.05v-1.45q.15-1.8.6-3.35zm21.45-4.8-.1-.1q-2.7-1.9-4.45-2.25l-.6-.05-.1.75.1.75v1l.1.6-.2.6-.55.25-.6.1-3.9.15-.55-.05-.4-.35v-.7l.05-1.55L35 6.6q-2 .55-3.9 1.65-.75.4-1.35.9-.8.7-1.65 2l-.05.1-.2.5-.55 1.55 1.1.3.3.1 1.1.1 3.15.55 1.9.2 2.25.15 3.65-.15 1.35-.2 1.3-.25 4.35-1.1h.05l-.5-2.15-.2-.75-.5-.75zm-1.95 4.25q-.2-.85.45-1.15l1.2.1q.65.55.25 1.2-.35.7-1.1.6l-.55-.3zm6.3 6.7h-.05l.1-.05zm-4.15-3.5-.2-.25-4 .75-.35.05-.05.15q-.15.4-.05.95l.1.35q.4.85 1.2 1.25l.65.15 1.8-.1 1.05-1.05.2-.6v-.55l-.15-.7zm-2.45 7.6h.05l-.6-1.15-.85-1.65-.7-.8-1.3-.45q-4.15-.8-7.5 0l-.8.3-.55.9-1.05 2.6-.05.15h.1l1.25 1q.7.4 1.75.65l.05.05.05-.45.15-1.2.6-.55.45-.05.55-.2.5-.05.1-.05h1.9l.5.05.5.25.55.75.05.1.1.1.1.2v.1l.1.1.2.75.05.1v.15l2-.8 1.2-.6zm2.15 1.4.05.65.05.35v1l.05.4 2.5-.1-.2-.9-1-2.9zm3.4 12v-1.9h-1.3l-1.75.25-.25 2.2 3.25.25zM39.4 8.65l.1-.25-.1-.9-.05-1.1.15-.4-3.4.35-.05.2-.05.35-.1 1.85 3.25-.05zm-1.75 3.8.65.1.3.2.2.55-.2.55-.4.25-.7-.05q-.55-.25-.45-.85 0-.55.6-.75m-6.75.3q-.15.65-.75.8-.7.1-1-.45-.3-.45-.05-.95.25-.45.8-.45l.05-.05.5.15.2.2.2.35zm1.35 5.7.35-.75.05-1.3-4.05-1.05-.6.75-.15.5-.1 1.05.45.95 1.15.7 1.35.1q.7-.15 1.3-.6l.15-.15zm-7.2 7.95-.15 1 2.5.05.55.05.1-2.15-1.75-1.55q-.7 1.25-1.25 2.6m16.5-5.15-.1.2q-.25.35-.7.35-.3 0-.6-.3-.3-.4-.15-.9.25-.45.75-.45l.05-.05q.5 0 .65.4.25.35.1.75m-9.25-.3.1-.45.35-.3.35-.15.7.2.35.6-.05.4q-.25.6-.8.6-.35.1-.7-.25-.3-.2-.3-.65m5.05 4.75 1.2-.05v-.1l-.05-.2v-.45l.05-.15-.1-.2-.15-.45L36 24l-.6.15-.1 1.15v.2l.95.1zM23.25 37l.05.8.2-.05 3.1.05.25-2.1-.95-.05-.95.05-1-.1-.75.05z"/><path fill="#fff" fill-rule="evenodd" d="m46.25 15.95.2.4.15.7v.55l-.2.6-1.05 1.05-1.8.1-.65-.15q-.8-.4-1.2-1.25l-.1-.35q-.1-.55.05-.95l.05-.15.35-.05 4-.75zm-14 2.5-.1.2-.15.15q-.6.45-1.3.6l-1.35-.1-1.15-.7-.45-.95.1-1.05.15-.5.6-.75 4.05 1.05-.05 1.3z"/></svg>