<svg xmlns="http://www.w3.org/2000/svg" xmlns:ffdec="https://www.free-decompiler.com/flash" ffdec:objectType="shape" width="70.35" height="41.4"><g fill-rule="evenodd"><path fill="#767676" d="m65.45 25.4.45-1.35.3-.7.1-.4.75-1.4.6-.8q.3-.35.8-.5l.9.05q1 .4 1 1.5 0 .75-.65 1.25l-.3.45-2 1.95-.5.4v.1l-.7.55q-.6.3-.85-.15l-.1-.6zM33.7 33.6l-.75-2.45q-.35-1.4 0-2.25.25-.55.85-.9.55-.4 1.15-.35 1.4 0 2 1.3l.2.3.3.1q.8.15 1.05 1 .25.55.15 1.5l-.3 2.85q1.2.05 2.5.95l.6.5.7 1.2q.4.9.2 1.8-.25 1.1-1.05 1.5l-.85.3-2.95.25-2.7-.45-.7-.55q-.4-.6.05-1.55l1-1.2-.2-.1q-1.1-.4-1.25-1.55v-2.2"/><path d="M0 18.65v-4.9l.1-.45q.55-2.6 1.3-4.1l1.35-2.25L4 4.65l.4-1.9-.1-1.8.25-.95h5.2l.35 1.2q.35 1.75-.3 3.65-.6 1.6-2.75 4-2.25 2.55-2.9 3.9L3.3 15.2q-.5 1.9-.6 3.3h-.75l-.75.05H.85l-.15.05H.35zm2.85-.2q.95-3.2 2.65-6.2 3.45-6.05 8.55-8.7 4.1-2.15 8.75-1.75 2.45.15 4.3 1.05Q30 4.3 32.35 8.3q.1-.15.25-.2l.3-1.35 1.25-2.95.45-.75.95-.7q.65-.3 1.3-.25l1.1.5 1.55.85 1.95 1.6H43l3.35.45q.9.35 2.15 1.2l.75-.05 2-.05 1.5-.05 1 .7.35 1-.15 1.1v2.35l.35 1.6.7 2.15q.65 2.5.15 4.75-.4 2-1.85 4.2-1.55 2.4-2.95 3.65L48.1 29.8l-1 .55q-2.85 1.4-6.2 1.35l-3.8-.4-3.05-.8.25 5.3q2.1 0 3.35 1.25.7.65.9 1.6t-.15 1.8l-.65.95H29.8l-.4-.3-.55-1.15-.6.7q-.55.5-1.65.75H6.25L5.5 41h-.05q-.4.3-.95.4H3.2l-1.1-.6Q.9 39.65 1 36.35l.1-1.25h.1l.75.05h.55l.5.05h.4l.4.05h.35l.5.05h1.2l.2.05h.2l.25.05h.55l.35.05h.4l.1.05h.25l.55.05h1l3.25.05H14l.05 1.25.3.35.5.25q.35 0 .8-.35l2.7-1.8.9-.85.1-.2h.05v-.05h-.05l-.1-.2-.9-.85-2.7-1.8q-.45-.35-.8-.35l-.5.25-.3.35-.05 1.25h-1.05l-3.25.05h-1l-.55.05H7.9l-.1.05h-.4l-.35.05H6.5l-.25.05h-.2l-.2.05h-1.2l-.5.05H3.8l-.4.05H3l-.5.05h-.55l-.75.05h-.05l.25-4.55.05-.5h1.5l.65.05h.55l.6.1h.5l.65.05h.8l.85.05.3.05h.25l.35.05h.8l.5.1h.55l.1.05h.3l.8.05h1.4l4.5.05h1.35v1l.15.75.4.5.7.3 1.1-.5q1.2-.9 3.75-2.45l1.2-1.15.15-.25h.05v-.15h-.05l-.15-.2-1.2-1.2Q22.3 24 21.1 23.1q-.65-.5-1.1-.5l-.7.3-.4.5-.15.8v.95H17.4l-4.5.05h-1.4l-.8.05h-.3l-.1.1h-.55l-.5.05h-.8l-.35.05h-.25l-.3.05-.85.05h-.8l-.65.1h-.5l-.6.05H3.6l-.65.05h-.8l-.6.05.05-.25-.3-.5L.05 20.9 0 20.65v-.4h.7l.15.05h.35l.75.05h.55l.5.05h.4l.4.05h.35l.5.05h1.2l.2.05h.2l.25.05h.55l.35.05h.4l.1.05h.25l.55.05h1l3.25.05H14l.05 1.25.3.35.5.25q.35 0 .8-.35l2.7-1.8.9-.85.1-.2h.05v-.05h-.05l-.1-.2-.9-.85-2.7-1.8q-.45-.35-.8-.35l-.5.25-.3.35-.05 1.25h-1.05l-3.25.05h-1l-.55.05H7.9l-.1.05h-.4l-.35.05H6.5l-.25.05h-.2l-.2.05h-1.2l-.5.05H3.8l-.4.05h-.55m61.2 9.2.9 1.15.05.05 1.2-.25q1 .1 1.8.7.9.75 1.05 2 .1 1.2-.7 2.15-.75.9-1.9 1.05l-1.7-.3-.45.45-1.95 1.25-1.55.25-1.35-.05.05 1.65-.1.65.95-.65 1.5-.9 1.35-.3 1.1.7.7 1.15.85 1.5v1q-.2.5-.6.4l-.35-.15-.6-1.1-.7-1.3q-.25-.35-.6-.3l-.35.15-2.35 1.65-.9.85-.55.2-.1.1h-8.7l-.4-.2-1.4-1.15q-.6-.9-.7-2.25l-.05-1.05q.05-1 .5-2.2l.3-.8q.35-.8 1.85-2.2.5-.5.95-.7l.95-.35.75-.05q.45.1.6.35l.1.9q-.05 1.05.2 2.55l.2 1.5 1.6-1.7.2-.15-.5-1.25-.1-1.35.2-2 .9-1.55.8-.75q-.15-.5-.15-1l.15-.95.25-.75.95-1.3q.55-.55 1.45-.8.85-.15 1.7 0l.75.15.65.4.75.8.4 1 .25 1.4-.45 1.4zm-22.2-2.5 2.25-.1 2 .2 2.15.9q.5.4.85.4.5 0 .7-.35l.15-.75-.55-.6q-1.6-1.2-3.9-1.55.1-.75-.15-1.2-.35-.75-1-.65-.55 0-.9.6-.25.55-.15 1.1v.05l-2.4.2-1.25.3q-1 .25-1.85.65-.95.55-.95 1.2 0 .4.3.7l.7.25.95-.5 1.75-.6zm1.75-4.45q.6-.1.85-.6l.15-.9.2-1.4.05-1.15q-.2-.7-.7-.85-.55-.1-.85.3l-.5 2.05-2.1-.35-2.95-.3h-.65l-.6-.2q-1-.25-1.6.6t0 1.7 1.65.6l.55-.2.6-.1h.4l.25.75q.45.5 1.2.6l1.3-.15q.7-.2 1-.65zm1.85-1.8q-.1 1.2.3 1.55.3.3 1.3.4h1.1v.05q.15.6.55.85l1.2.3 1.25-.5.6-.6h1.7l.65-.1q.8-.15.9-1.1.1-.9-.75-1.25l-1.1-.15-5.4-.15.05-1.45q-.3-.95-1.05-.95-.6.1-.95.7l-.25 1.15zm14.8 13.55q.15.6.65 1l1.15.25q.6-.05.95-.7.35-.4.25-1.15l-.3-.7q-.7-.95-1.8-.5-.5.25-.75.75-.25.55-.15 1.05m-1.35-5.4q-.55-.05-1 .2-.5.25-.75.75-.2.45-.1 1 .15.55.55.9.9.75 1.95.15l.65-.85q.2-.5.05-1-.35-1.05-1.35-1.15m-6.95 11.7.75-1.25.15-.2-.55-3.8-.05-.9q-.2-.05-.45.35l-.4.4-.5.4q-.4.55-.5 1.4-.15.55-.15 1.05l.15 1.35.3.6 1.15.85zm6.1-5.15.2.25.45.3.3-.2.1-.35q0-.4-.2-.45v-.25l.2-.15.2-.45v-.15l.05-.15v-.35l-.3-.1h-.25l-.35.3-.75-.15-.05.05-.55.1q-.35.1-.4.35l.05.15.5.25.6.2.15.2z"/><path fill="#fff" d="m45.45 18.9.1-1.25.25-1.15q.35-.6.95-.7.75 0 1.05.95l-.05 1.45 5.4.15 1.1.15q.85.35.75 1.25-.1.95-.9 1.1l-.65.1h-1.7l-.6.6-1.25.5-1.2-.3q-.4-.25-.55-.85v-.05h-1.1q-1-.1-1.3-.4-.4-.35-.3-1.55m-1.85 1.8-1.75-.25q-.3.45-1 .65l-1.3.15q-.75-.1-1.2-.6l-.25-.75h-.4l-.6.1-.55.2q-1.05.25-1.65-.6t0-1.7 1.6-.6l.6.2h.65l2.95.3 2.1.35.5-2.05q.3-.4.85-.3.5.15.7.85l-.05 1.15-.2 1.4-.15.9q-.25.5-.85.6m-1.75 4.45-1.3.25-1.75.6-.95.5-.7-.25q-.3-.3-.3-.7 0-.65.95-1.2.85-.4 1.85-.65l1.25-.3 2.4-.2v-.05q-.1-.55.15-1.1.35-.6.9-.6.65-.1 1 .65.25.45.15 1.2 2.3.35 3.9 1.55l.55.6-.15.75q-.2.35-.7.35-.35 0-.85-.4l-2.15-.9-2-.2zm17.05 1.9q1 .1 1.35 1.15.15.5-.05 1l-.65.85q-1.05.6-1.95-.15-.4-.35-.55-.9-.1-.55.1-1 .25-.5.75-.75.45-.25 1-.2m1.35 5.4q-.1-.5.15-1.05.25-.5.75-.75 1.1-.45 1.8.5l.3.7q.1.75-.25 1.15-.35.65-.95.7l-1.15-.25q-.5-.4-.65-1m-2.2 1.15L58 33l-.15-.2-.6-.2-.5-.25-.05-.15q.05-.25.4-.35l.55-.1.05-.05.75.15.35-.3h.25l.3.1V32l-.05.15v.15l-.2.45-.2.15v.25q.2.05.2.45l-.1.35-.3.2-.45-.3z"/><path fill="#767676" d="m2.7 18.5.15-.05h.55l.4-.05h.35l.5-.05h1.2l.2-.05h.2l.25-.05h.55l.35-.05h.4l.1-.05h.25l.55-.05h1l3.25-.05H14l.05-1.25.3-.35.5-.25q.35 0 .8.35l2.7 1.8.9.85.1.2h.05v.05h-.05l-.1.2-.9.85-2.7 1.8q-.45.35-.8.35l-.5-.25-.3-.35L14 20.8h-1.05l-3.25-.05h-1l-.55-.05H7.9l-.1-.05h-.4l-.35-.05H6.5l-.25-.05h-.2l-.2-.05h-1.2l-.5-.05H3.8l-.4-.05H3l-.5-.05h-.55l-.75-.05H.85l-.15-.05H0v-1.6l.35-.05H.7l.15-.05h.35l.75-.05h.75m51.25-6.8 3.65-2.95.35-.25-.05-.3-.1-.75q.1-.45.45-.8.45-.4.9-.35l.4.05q-.05-.75.4-1.2.45-.55 1.15-.45.65 0 1 .65l.25.8.25.25.2.4 1.05.6q.3.5-.15.8l-.2.1.15.1q.3.5.15.9-.15.5-.75.6L62 9.85l-.2-.05q.2.5 0 .9-.2.55-.8.55l-.9-.55-.85-.55-.1.05-4.85 3.1zM1.1 35.1H.85l-.15-.05H0v-1.6l.35-.05H.7l.15-.05h.35l.75-.05h.55l.5-.05h.4l.4-.05h.35l.5-.05h1.2l.2-.05h.2l.25-.05h.55L7.4 33h.4l.1-.05h.25l.55-.05h1l3.25-.05H14l.05-1.25.3-.35.5-.25q.35 0 .8.35l2.7 1.8.9.85.1.2h.05v.05h-.05l-.1.2-.9.85-2.7 1.8q-.45.35-.8.35l-.5-.25-.3-.35L14 35.6h-1.05l-3.25-.05h-1l-.55-.05H7.9l-.1-.05h-.4l-.35-.05H6.5l-.25-.05h-.2l-.2-.05h-1.2l-.5-.05H3.8l-.4-.05H3l-.5-.05h-.55l-.75-.05zm.35-6.8-.35-.05H.7l-.25-.05H0v-2.3h.45l.25-.1h.85l.6-.05h.8l.65-.05h.55l.6-.05h.5l.65-.1h.8l.85-.05.3-.05h.25l.35-.05h.8l.5-.05h.55l.1-.1h.3l.8-.05h1.4l4.5-.05h1.35v-.95l.15-.8.4-.5.7-.3q.45 0 1.1.5 1.2.9 3.75 2.45l1.2 1.2.15.2h.05v.15h-.05l-.15.25-1.2 1.15q-2.55 1.55-3.75 2.45l-1.1.5-.7-.3-.4-.5-.15-.75v-1H17.4l-4.5-.05h-1.4l-.8-.05h-.3l-.1-.05h-.55l-.5-.1h-.8l-.35-.05h-.25l-.3-.05-.85-.05h-.8l-.65-.05h-.5l-.6-.1H3.6l-.65-.05h-1.5"/></g></svg>