<svg xmlns="http://www.w3.org/2000/svg" xmlns:ffdec="https://www.free-decompiler.com/flash" ffdec:objectType="shape" width="76.7" height="42.6"><g fill-rule="evenodd"><path fill="#999" d="M70.2 22.2h.45l2.3.05h2.25l.1.05h.1l.05.05h.1l.2.05.1.1.05.05.1.05.1.05.05.05.1.05v.1l.1.05v.05l.1.1.05.1v.05l.05.05v.05l.05.05.05.05v.2l.05.05v.45l-.05.1v.15l-.05.05-.05.05v.1l-.05.05v.05l-.05.05-.05.05-.05.05v.1l-.1.05V25l-.1.05-.05.05-.05.05.05.05v.05l.05.1.05.05v.1l.05.05v.15l.05.05v.15l.05.05v.25l-.05.05v2.05l-.05.05V39l-.05.05v.65l.05.05v.05l.05.1v.05l.05.05v.75l-.05.05v.05l-.05.1v.1l-.05.05v.05l-.05.05-.05.1v.05l-.05.05-.05.05-.05.05-.05.05-.05.1-.05.05-.05.05-.1.05-.1.05-.1.1-.1.05-.1.05-.1.05-.1.05-.1.05h-.05l-.1.05h-.45l-.2-.05-.05-.05-.1-.05h-.15l-.05-.05h-.25L72.8 42H4.95l-.5-.05h-1.2L3.2 42l-.05.1-.05.05-.1.05-.05.05-.1.05-.05.05-.15.1-.1.05-.1.05H2.3l-.1.05h-.5l-.1-.05h-.15l-.15-.1-.15-.05-.1-.05-.1-.05-.05-.05-.1-.05-.05-.1-.1-.1-.05-.05-.05-.05v-.05l-.05-.1-.05-.05v-.05L.4 41.6l-.05-.05v-.15l-.05-.05V40.2l-.05-.05V32.9l.05-.05V25.1l.05-.05v-.35l-.15-.15-.05-.1-.05-.05v-.05l-.05-.05v-.1L0 24.1v-.45l.05-.05v-.1l.05-.1v-.05l.05-.05.05-.05.05-.05.05-.05.05-.1L.4 23l.05-.05.1-.05.1-.05.15-.1.1-.05.2-.05.15-.05h.15l.1-.05h.1l.2-.05H3l.45-.05h.7l1.15-.05h26.65v-.05l.45-2 .6-2.1q-3.2 2.8-6.15 3.65l-3.3.15q-1.85-.55-2.45-2.1-.6-1.65.55-2.95t2.85-1.15 2.7 1.5l6.05-2.8.8-.6q-1.15-.55-2-1.35-1.1-1.1-1.6-2.7-.55-1.55-.3-3.15l.4-1.6-.2-.15-.9-.85q-.4-.4-.5-1.1 0-.7.35-1.2.5-.55 1.1-.65l1.95-.05.6.2.5.25.05-.05Q35.6.1 38.2 0h.6v.05q2.55.1 4.6 1.5l.05.05.5-.25.6-.2 1.95.05q.6.1 1.1.65.35.5.35 1.2l-.5 1.1-.9.85-.2.15.4 1.6q.25 1.6-.3 3.15-.5 1.6-1.6 2.7-.85.8-2 1.35l.8.6 6.05 2.8q1-1.35 2.7-1.5T55.25 17t.55 2.95q-.6 1.55-2.45 2.1l-3.3-.15q-2.95-.85-6.15-3.65l.6 2.1.45 2h21.1l1.05-.05h.15l.2-.05h2.75zM44.65 10.8l.3-.6.1-.4q.15-.8-.2-1.6l-.75-1-.55.9-1.4 1.15-.9.5-1.4.45-.25.05.7 1.1q.65.6 1.45.7l1.65-.2q.8-.35 1.25-1.05m-12.4 0q.45.7 1.25 1.05l1.65.2q.8-.1 1.45-.7l.7-1.1-.25-.05-1.4-.45-.9-.5-1.4-1.15-.55-.9-.75 1q-.35.8-.2 1.6l.1.4z"/><path fill="#fff" d="M44.65 10.8q-.45.7-1.25 1.05l-1.65.2q-.8-.1-1.45-.7l-.7-1.1.25-.05 1.4-.45.9-.5 1.4-1.15.55-.9.75 1q.35.8.2 1.6l-.1.4zm-12.4 0-.3-.6-.1-.4q-.15-.8.2-1.6l.75-1 .55.9 1.4 1.15.9.5 1.4.45.25.05-.7 1.1q-.65.6-1.45.7l-1.65-.2q-.8-.35-1.25-1.05"/><path fill="#999" d="m57.45 14.35 1.1 1.2q.7 1.05 1.1 3.3l.05 1.3q-.2 1.6-2.1 3.35-1.05.95-1.8 1.25l-2.15-.1-.15-.2q-.05-.15.05-.25l.45-.8 1.1-1 1.75-1.85q.65-1.2.35-2.65-.3-1.35-1.45-2.25l-.85-.5-1.2-.15q-2.1 0-2.95.6l-.75.2q-.35-.25-.05-.65l.55-.5.6-.75q.55-.65 2.35-.75 2.1-.1 2.95.4zm9.45 2.55q.65 2.15.3 4-.2 1.2-.6 1.8-.6.95-1.5 1.1l-1.3-.15q1.5-2.15 1.5-4.7 0-2.5-1.5-4.7-1.55-2.25-4.9-3.85l-1.15-.4H55.7q-.25 0-.3-.15-.1-.3.3-.4l1.25-.35 1.55.2q2.7.6 3.85 1.3 2.3 1.35 4.1 5.2zm-7.7-2.4-1.4-1.1q-2.3-1.3-3.4-1.3l-.8.1-.2-.1q-.15-.25.2-.35 1.95-1 4.25-.25l1.05.5q1.2.55 1.85 1.15.65.55 1.5 2.25l.75 2.15.3 2.3-.05.7q-.15 1.1-.85 2.05l-1 .85q-.75.3-1.2-.25-.5-.55 0-1.45l.8-1.35q.3-.95.1-1.8l-.55-1.75q-.7-1.7-1.35-2.35m-41.3 0q-.65.65-1.35 2.35L16 18.6q-.2.85.1 1.8l.8 1.35q.5.9 0 1.45-.45.55-1.2.25l-1-.85q-.7-.95-.85-2.05l-.05-.7q0-1.15.3-2.3l.75-2.15q.85-1.7 1.5-2.25.65-.6 1.85-1.15l1.05-.5q2.3-.75 4.25.25.35.1.2.35l-.2.1-.8-.1q-1.1 0-3.4 1.3zm-7.7 2.4.45-1.1q1.8-3.85 4.1-5.2 1.15-.7 3.85-1.3l1.55-.2q.8.1 1.25.35.4.1.3.4-.05.15-.3.15h-2.05l-1.15.4q-3.35 1.6-4.9 3.85-1.5 2.2-1.5 4.7 0 2.55 1.5 4.7l-1.3.15q-.9-.15-1.5-1.1-.4-.6-.6-1.8-.35-1.85.3-4m9.45-2.55 1.05-.8 2.95-.4q1.8.1 2.35.75l.6.75.55.5q.3.4-.05.65l-.75-.2q-.85-.6-2.95-.6l-1.2.15-.85.5q-1.15.9-1.45 2.25-.3 1.45.35 2.65L22 22.4l1.1 1 .45.8.05.25-.15.2-2.15.1-1.8-1.25q-1.9-1.75-2.1-3.35l.05-1.3q.4-2.25 1.1-3.3z"/><path d="m59.55 26.3.15.3-.25.25q-.35.25-.35.55 0 .35.3.45l.6-.05.35-.3.05-.05.25.15.45.3h.4l.1-.1.05-.05.1-.4-.05-.25-.05-.55-.05-.1.15-.05.3-.45-.15-.5q-.5-.3-.85 0l-.2.2q-.35-.3-.8-.45l-.45.2-.2.5zm-6.4 12.15q-3.45 2.25-7.7 1.4l-2.55-.75-.2-.05-2.8 1.2-10 .65q-2.95-.4-4.35-1.2-1.4-.75-2.15-1.8-.7-.6-1.05-1.35-.65-1.2-.45-2.7.15-1.4 1-2.65 1.4-2 4.45-3.4l-.8-.05-1.95.2-.2.4q-.7 1.3-3.3 2l-4.5.85-1.25.05-1.25.1-.4.4q-1.7 1.55-3.95 2l-2 .2L6.4 35l-.45.1-2.1-.15q-1.1-.35-1.75-1.2l-.35-.65-.15-.4-.05-.85v-.4l-.85-1.5q-.45-1.3-.1-2.9.55-2.75 2.4-4.5 2.05-1.9 4.7-1.8l2.2.4q1.25.45 2.1 1.1 1.75-1.05 3.75-1.35l4.45.3 1.6.65q1.15.7 1.95 2l.85 1.6 2.5-.15 1.65.25q.55.2 1.65 1.15L34 26l3.8.2q.75.2 1.9.8l.9-1q2.25-2 5-2.4 3-.5 5.45.95 1.55.95 3.5 3.45l.8 1.15.05-.5q.3-.95 1.15-1.4l.35-.15.75-.25q.2-1.05.85-1.85l1-1 .4-.25.25-.65q1.1-2 3.3-2.95 1.95-.85 4.4-.7 4 .25 5.8 3l.6 1.15q.6 1.4.65 2.2 0 1.4-.75 2.1-.5.45-1.7.75l-1.15.3-.3.9.15 1.35q.1 1-.15 1.6-.45 1.05-1.8 1.5-1.85.5-3.25-.75l-.1-.15-2.6-.3-1.8-.4-1.75-.65-.15-.1-.2.05-.85.1.2.15.7.55q.9.9 1.2 2.05.3 1.3-.45 2.35l-.45.55-.8.75-.85.4-3.4-.2-1-.55zM51.4 27.1l-.1-.2.05-.05.35-.5-.3-.6-.7-.05-.35.25-.2-.2-.35-.4q-.3-.25-.7 0-.35.25-.25.65l.6.7-.45.45q-.35.35-.35.65 0 .5.4.6l.5-.15.55-.35.25-.2.2.15q.25.25.8.35l.25-.7zm4.75 4.4.4.05-.4-.35-.05-.05zm-48.2-2.25-.5-.55-.1-.1.25-.35.25-.8-.6-.55q-.45-.15-.8.2l-.3.45-.25-.15q-.65-.35-.9.2-.15.25.15.65l.5.45-.45.95h-.05v.65q.2.35.6.35l.55-.5v-.25l.1-.1q.45.55.9.5l.6-.35zm59.4-2.1-.6-.45-.5.1q-.25.15-.35.45-.1.55.45.8h-.05l-.4.55q-.15.35.15.65l.55.1.45-.25h.05l.05.1q.3.4.6.3l.35-.2-.05-.65-.1-.25.25-.3.4-.35q.3-.3.2-.6-.2-.4-.5-.4l-.6.15-.3.3zm-22.7 2.8q.3.95-.1 1.9l-.35.75q-.1.5.15 1l.75.5q.75.15 1.2-.55l.45-1.35.05-.55.8-.4.35-.4v-.55l-.4-.3-.95-.05-.15-.4-.7-1.05-.65-.15q-.35.05-.5.3-.2.3.05 1.3m4.65 2.4q-.45-.05-.85.25-.4.35-.4.8 0 .6.8 1.3l-.35.35-.5.65q-.1.55.3.7l.7-.1 1.1-.55.8.8q.55.1.7-.35l-.1-.75-.3-.4q.4-.25.75-.55.45-.45.35-.9-.1-.55-.6-.8l-.9.15-.45.35q-.45-.85-1.05-.95"/><path fill="#fff" d="m59.55 26.3-.15-.4.2-.5.45-.2q.45.15.8.45l.2-.2q.35-.3.85 0l.15.5-.3.45-.15.05.05.1.05.55.05.25-.1.4-.05.05-.1.1h-.4l-.45-.3-.25-.15-.05.05-.35.3-.6.05q-.3-.1-.3-.45 0-.3.35-.55l.25-.25zm-8.15.8.2.4-.25.7q-.55-.1-.8-.35l-.2-.15-.25.2-.55.35-.5.15q-.4-.1-.4-.6 0-.3.35-.65l.45-.45-.6-.7q-.1-.4.25-.65.4-.25.7 0l.35.4.2.2.35-.25.7.05.3.6-.35.5-.05.05zm-2.1 5.25q.6.1 1.05.95l.45-.35.9-.15q.5.25.6.8.1.45-.35.9-.35.3-.75.55l.3.4.1.75q-.15.45-.7.35l-.8-.8-1.1.55-.7.1q-.4-.15-.3-.7l.5-.65.35-.35q-.8-.7-.8-1.3 0-.45.4-.8.4-.3.85-.25m-4.65-2.4q-.25-1-.05-1.3.15-.25.5-.3l.65.15.7 1.05.15.4.95.05.4.3v.55l-.35.4-.8.4-.05.55-.45 1.35q-.45.7-1.2.55l-.75-.5q-.25-.5-.15-1l.35-.75q.4-.95.1-1.9m22.7-2.8.05.05.3-.3.6-.15q.3 0 .5.4.1.3-.2.6l-.4.35-.25.3.1.25.05.65-.35.2q-.3.1-.6-.3l-.05-.1h-.05l-.45.25-.55-.1q-.3-.3-.15-.65l.4-.55h.05q-.55-.25-.45-.8.1-.3.35-.45l.5-.1zm-59.4 2.1-.05.7-.6.35q-.45.05-.9-.5l-.1.1v.25l-.55.5q-.4 0-.6-.35v-.65h.05l.45-.95-.5-.45q-.3-.4-.15-.65.25-.55.9-.2l.25.15.3-.45q.35-.35.8-.2l.6.55-.25.8-.25.35.1.1z"/></g></svg>