<svg xmlns="http://www.w3.org/2000/svg" xmlns:ffdec="https://www.free-decompiler.com/flash" ffdec:objectType="shape" width="72.7" height="42.55"><g fill-rule="evenodd"><path fill="#999" d="m70.9 4.45-2.5 2-.7.6q.7.45.7 1.15.1.65-.55 1.2l-.6.25-.5.05-1 .25-1.05.35-.35.05q-.75.1-1.2-.6-.4-.6-.05-1.3l.25-.45.75-2.3.3-.35.35-.4.6-.2q.7 0 1 .65l2.35-1.9 2.75-2.15L72.7.6v2.45zM53.25.8l-.25.35-1.6 1.7-1.75 1.85-.85 1.15.2.1q.85.5.6 1.55-.25.75-1.05 1.1L47.4 9l-2.15.2q-.65-.2-1-1-.25-.7.15-1.4l.15-.2.5-1.75.15-.35q.25-.4.65-.55.5-.15.95.2l.3.35L49 2.75l1.9-1.65 1.45-.95.35-.1q.3-.1.5.2zM65.4 20.85l7.3-4.4v2.2q-2.15 1.3-3.35 2.1L64.4 24.3l.1.1q.6.75.1 1.6-.45.65-1.35.75h-.85l-1.4.15-1.6-.05q-.6-.25-.75-.9-.15-.7.2-1.15l.6-.85.95-1.7.5-.55q.6-.6 1.05-.7.9-.2 1.1.4l.1.7zM44.75 13.4l-.3 2.15-.7 1.8-.75 1-1.2.6q-1.15.45-3.6 1.8l-1.05.6-1.5 1.05-1.55.95-.6.3-.65.35q-.4.1-.65-.25-.25-.3-.05-.7l.3-.4.4-.6.8-.85-.4-.35-.05-.6.3-.4 1.4-1.55.25-.45 1.65-1.75-.45-1q-.6-1.45-.5-3 .1-1.6.9-2.85.95-1.45 2.4-1.8Q41 6.9 42.6 8q1.6 1.05 2 2.9.25 1 .15 2.5m7.7 22.6-1.15.85-2.75-.1-3.2-.6-3.25-.55q-3.7-.65-5.95-1.85-.6-.25-.95-.75-.5-.6-.05-1.1t1.45-.3l4.3.5q-1.05-.5-1.7-1-.2-.3-.05-.55.15-.45.9-.45h1.35l.8.05 1.85.15.85.05.9.1q.2-.95.85-1.75 1.25-1.65 3.4-1.75 1 0 1.9.45.95.5 1.45 1.3l.6 1.55q.35 1.5-.1 3.05-.4 1.6-1.45 2.7m-43.8 4.15.5 1.4.35 1H6.9l-2-4.75-2.5-6.95-.45 1.2-.2.5q-.25.35-.75.35-.45 0-.75-.4l-.15-.7.05-.35L0 30.7v-.4l.25-3.05q.1-.65.35-1.05.25-.35.75-.45l.55-.05.35-.05q.35 0 1.2.6l1.85 1.3 1.2 1.15.3.85-.15.55-.45.25h-.75l-.4-.15z"/><path d="M64.05 3.4 59.7 7.05q.5.4.6 1.25l-.45 1.2-1.05.75-1.05.15-1.85.2-1.75.1L53 9.95q-.4-.55-.25-1.3l.25-.7.8-3.2q.4-.95.9-1.35.8-.6 1.55-.3l.8.8.1.7 4.8-3.3h4.75zm-1.4 9.6.75.6 9.3-6.05v2.7q-4.65 3.4-7.25 5.65h.05q.7.3.8 1.15 0 .85-.7 1.25l-.8.25-2.2.5-1.1.5-1.15.25q-.55-.05-.9-.45-.4-.35-.5-.85-.1-.55.15-1.25l.5-1.15.65-1.65q.4-.9 1.1-1.15.55-.5 1.3-.3M7.8 15.5q1.85-3.05 5.4-4.65 1.6-.7 3.4-1.05l.25-.4 1.35-2.1q.7-1.25 1.5-1.55l1.75.15 1.45 1.05Q25 8.9 26.55 11.2l1.4 1.15q2.65 2.5 3.5 6.2.8 3.6-.35 7.05l.25-.2q1.15-.75 3.65-1.95l4-1.75 3.7-1.25 3.1-1.3.1-2.2q.4-2.8 2.3-4.4.95-.85 2.2-1.15l2.5.05q2.25.7 3.25 3 .85 1.95.5 4.5-.3 2.05-1.3 4.1-.7 1.45-1.7 2.15l-3.05 1.05-10.55 2.55-7 1.5 1.65 4.3.95 3.1q.4 1.8.25 3.9l-.15.95H18.3q-.75-.8-.6-2 .15-.75.85-1.8l.6-1.15-1.95 1.35q-3.65 2.25-7.4 2.55l-.45.05.35 1H7.3l-.45-.95-1.9-.2q-1.1-.3-2-1.15-.85-.8-1.2-1.9t-.1-2.25q.2-1.2.9-2.1l.6-.65q3.1-1.25 3.45-1.25 2.1.1 3.3 1.5 1.4 1.55.9 3.5 2.35-.1 4.45-.8 1.2-.45 2.8-1.3l-1.6-.2q-3.65-.7-5.8-2.3-1.3-.9-2.85-2.8-1.2-1.65-1.65-3l-.95-.65-1.05-1.15-.8-1.3q-.35-.85-.2-1.5.2-1 1.25-1.7 1.25-.7 1.85-1.05h.05q.5-2.2 1.5-3.85m12.75 12.4q.1.8 1 .8l1.1-.75q.95-1.15.95-2.85l.05-.05q.2-.2.7-.3.8-.25 1.75-1.15l1.25-1.1q.45-.45.8-1.85l-.4-.3-.55.15-1.7 1.15-.7.45-.5.1-1.05.1-.9.25q-.55.35-.75.9-.15.45-.05.95l-.05.45-.25 1.2-.25.75q-.5.85-.45 1.1M14 23.45l-.25.9-.1.45q-.1 1.35.2 1.9l.6.8 1.15.75 1 .1q.95 0 1.7-.4.85-.5 1.4-1.55.45-1.2.25-2.2l-.4-1.15q-2.05.9-4.3.4l-1.05-.3zM24.2 13.4l-.35.25-.05.6-.15 2-.3 2.25-.6 1.5.4.4.35.35q1.75-2.05 5.6-3.75.2-.05.35-.15-.05-1.25-.85-2.35-.55-.85-1.45-1.25-.9-.45-1.8-.25-.55.05-1.15.4"/><path fill="#fff" d="M24.2 13.4q.6-.35 1.15-.4.9-.2 1.8.25.9.4 1.45 1.25.8 1.1.85 2.35-.15.1-.35.15-3.85 1.7-5.6 3.75l-.35-.35-.4-.4.6-1.5.3-2.25.15-2 .05-.6zM14 23.45l.2-.3 1.05.3q2.25.5 4.3-.4l.4 1.15q.2 1-.25 2.2-.55 1.05-1.4 1.55-.75.4-1.7.4l-1-.1-1.15-.75-.6-.8q-.3-.55-.2-1.9l.1-.45zm6.55 4.45q-.05-.25.45-1.1l.25-.75.25-1.2.05-.45q-.1-.5.05-.95.2-.55.75-.9l.9-.25 1.05-.1.5-.1.7-.45 1.7-1.15.55-.15.4.3q-.35 1.4-.8 1.85l-1.25 1.1q-.95.9-1.75 1.15-.5.1-.7.3l-.05.05q0 1.7-.95 2.85l-1.1.75q-.9 0-1-.8"/></g></svg>