<svg xmlns="http://www.w3.org/2000/svg" xmlns:ffdec="https://www.free-decompiler.com/flash" ffdec:objectType="shape" width="74.9" height="40.55"><g fill-rule="evenodd"><path d="m43.9 32.3-.2.1.15.45.25.35 1.05-.15.95.55q.35.45.25 1.15l-.55 1-.05.15-1.2 1-.6.4-1.25.15-.55-.1q-1.05-.3-1.15-1.45-.1-.95.8-1.35l-.2-.75-.05-.2q-2.05.85-4.25.9l.05 1 .85.25q.45.4.35 1l-.55.9-1.15.25-1.15.15-1-.3q-.55-.4-.5-1.05 0-.6.55-.95l.6-.15.1-1-3.25.1-1.25-.15-.05.05-.15 1 .9.8q.35.5.3 1.1 0 .6-.4 1.15l-.9.7-2.5-.2q-1.25-.35-1.8-.9-1-.95-.55-2.3.25-.55.8-.95.6-.3 1.25-.25h.7l.2-.15.45-.55-.1-.05q-1.8-.8-3.55-2.75l-.95-1.1-1.05.7-.75.7-.35 1.4q-.5 1.45-1.95 1.8-1.5.35-2.55-.8-.6-.65-.7-1.65-.1-.9.35-1.75.2-.55.6-.8.6-.65 1.55-.7.9-.1 1.65.5l2.2-1.05q-1.45-2.55-1.6-5.65l-.9.2-.65.25-.1.2q-.45 1.15-1.65 1.4l-1.45-.35q-.7-.45-.95-1.2-.3-.7-.05-1.45.2-.8.75-1.3.65-.65 1.4-.65.85 0 1.4.7l.15.2H22q.15-2.95 1.4-5.8l.05-.05-.9-.8-.3-.2H22q-1.35.35-2.45-.55-1.05-1-.9-2.4.05-.65.6-1.5l.75-.9q.65-.55 1.65-.65t1.75.4q.75.45 1.1 1.35.4.9.15 1.8l-.05.35.3.5.75-1q1.45-1.65 4.3-3.05l1.25-.65-.2-.55-1.25-.25-.95-.95q-.25-.6-.15-1.3.1-.65.5-1.15l1.4-1.1.55-.35L33.15 2q1 .55 1.25 1.65v.85l-.65 1.55-.4.45.05.4q1.4-.5 2.75-.65 1.6-.15 3.05 0v-.1l.15-.45-.2-.25q-.35-.3-.55-1-.1-.55.3-1.05.5-.65 1.2-.6l.05-.05 1 .05q.55.1.9.45l.35.5.15.5q.15.5-.1 1.1l-.25.35q-.25.25-1.1.4l-.25.15-.1.35 1.75.75q1.25.65 2.55 2L46.5 7.9l.25-.3.1-.55q.2-1.55 1.2-2.3.85-.6 2-.45 1 .15 1.8.95t.9 1.9q.15 1.25-.45 2.15l-1.35 1.05-1.75.3h-.65L48 11l-.7.5-.2.15 1.35 2.25.4 1.25.85 1.85.65-.1.3-.15.1-.2q.25-1.25 1.5-1.45 1.25-.15 1.9.85l.7 1.4q.45.95-.1 1.85-.5.85-1.55.95-1.05.15-1.75-.65l-.4-.3-.85.1.05 1.25q.05 2.5-1.05 5.05 1 .3 1.5.75l.4.25h.8l1.7.15q.85.3 1.4 1.05.3.45.45 1.6l.1.95-.25.85q-.8 1.6-2.55 1.95l-1.7-.05q-.85-.3-1.35-.95l-.4-.7-.5-1.25-.05-.55-.4-.5-.75-.7q-1.65 2.4-3.7 3.85"/><path fill="#717171" d="m14.75 4.65.8-.2.55-.2.1-.2q.4-1 1.5-1.25l1.3.35q.6.4.85 1.05.25.6 0 1.3l-.65 1.15q-.6.6-1.25.6-.75 0-1.25-.65l-.15-.15h-1.8q-.15 2.6-1.25 5.15l-.05.05.8.7.25.2h.25q1.2-.3 2.2.5.9.9.8 2.15l-.55 1.35-.7.8q-.55.45-1.45.55t-1.55-.35q-.7-.4-1-1.2-.35-.8-.15-1.6l.05-.3-.25-.45-.65.85q-1.3 1.5-3.85 2.75l-1.15.6.2.45q.55-.05 1.1.25l.85.85q.25.55.15 1.15l-.45 1.05-1.25.95-.5.35q-.9.4-1.8 0-.9-.45-1.15-1.45v-.75q.2-1 .6-1.4l.35-.4-.05-.35-2.45.55-2.1.05V0h13.55q1.05 2.15 1.2 4.65m46.9-1.8q.4-.35.9-.4l1.25.25q.65.35.9.95.3.55.15 1.25l-.65 1.15q-.5.45-1.2.5l-1.25-.3-.8-1q-.25-.65-.1-1.3.25-.75.8-1.1m9.25 7.35q1.4 1.1 1.15 2.85-.15.85-.75 1.55t-1.45.9l-1.7-.05q-.9-.25-1.45-.9v-.1q-.75-.8-.65-1.85-.05-.85.45-1.6.45-.75 1.2-1.15l1.65-.25q.85.05 1.55.6m-4.25 13.1.15-.1-.15-.4-.2-.3-.95.15-.85-.5q-.3-.4-.2-1.05.1-.5.5-.9v-.1l1.1-.9.55-.35 1.1-.15.5.1q.95.25 1 1.3.1.85-.7 1.2l.2.65v.2q1.85-.75 3.8-.8v-.9l-.8-.25q-.4-.35-.3-.85.1-.55.5-.8l1-.25 1.05-.15q.65 0 .9.3l.05.05v1.65l-.1.05-.55.15-.1.9.75-.05v19.35H63l-.45-.8-.35-1.15-.75-1.65-.6.1-.25.15-.1.15q-.2 1.15-1.35 1.3-1.1.15-1.7-.75l-.6-1.25q-.4-.85.1-1.65.45-.75 1.35-.85.95-.15 1.6.6l.35.25.75-.1-.05-1.1q-.05-2.25.95-4.5-.9-.3-1.35-.7l-.35-.2h-.7l-1.55-.15-1.25-.95q-.25-.4-.4-1.4l-.1-.85.25-.75q.7-1.45 2.25-1.75l1.55.05q.75.25 1.2.85l.35.6.45 1.15.05.45.35.45.65.65q1.5-2.15 3.35-3.45M56.6 10.35q.6-.75 1.4-.9.75-.15 1.5.25.7.4 1 1.1t.05 1.5-.9 1.2l-1.45.3q-.8-.1-1.35-.65-.55-.5-.6-1.35-.05-.8.35-1.45M6.95 30.7q.3-1.6 1.75-2.3l2.9-.05q1.3.65 1.7 2.05.5 1.8-.7 3.15-1 1.2-2.55 1.1t-2.5-1.35q-.85-1.15-.6-2.6m.35 5.1-.45 1.25-1.1.75-1.35-.05-1.05-.8Q3 36.4 3 35.65q.05-.7.45-1.25t1.1-.7q.65-.2 1.3 0t1.05.85q.4.55.4 1.25M39.25 16.05l.4-.9q1.15-1.55 3.05-1.3 1.85.35 2.4 2.05.3.85.05 1.75-.2.9-.9 1.5-.65.6-1.55.75l-1.75-.2q-.8-.35-1.35-1.1-.5-.8-.5-1.7zm5.2 11.75-1-.05q-.4-.4-.25-.95l.1-.15.3-.3.4-.1.4.1.25.2.15.4q.1.5-.35.85M30.55 13v-.05l.4.2.15.4q0 .5-.5.6l-.2-.05-.2-.15-.2-.2-.05-.25.1-.3.25-.2zm-5.4 8.25q.15-1.15 1.3-1.65l2.1.15q.7.4.95 1.25t-.1 1.6l-1.15 1.05-1.55.15q-.8-.25-1.25-1t-.3-1.55M35.2 19.9h-.45q-.8-.2-.8-1-.1-.4.25-.75.3-.3.75-.3l.05-.05q.5.1.8.4.35.4.25.9-.2.7-.85.8m1.25 6.7q-.15-.9.4-1.6.75-.9 1.9-.65 1.1.25 1.45 1.4.25 1.1-.55 1.9-.8.75-1.9.4-1.15-.35-1.3-1.45m-5.15 3.55-.25.65q-.7.9-1.7.55t-1-1.45q0-1.05 1.05-1.4 1.1-.25 1.65.65z"/></g></svg>