<svg xmlns="http://www.w3.org/2000/svg" xmlns:ffdec="https://www.free-decompiler.com/flash" ffdec:objectType="shape" width="75.05" height="42.8"><g fill-rule="evenodd"><path fill="#999" d="M63.3 0q1.55 0 2.45.55.95.5 1.85 1.75 2.15 2.7 2.7 5.65.75 3.35-.75 6.1-.9 1.7-2.65 2.85l-.1.1v.1l1.25 3.1.7 1.7q.7-3.15 2-4.55 1.1-1.15 2.3-1.1.65.05 1.25.55.55.45.7 1.1.15.7-.1 1.35L74 20.3q-.85.4-1.2.75l-.4.75-1.3 3.75-1 2.3q0 1.55-.65 2.35-.7.8-2.45 1.2-5.9 1.3-9.45-.55-1.05-.55-1.45-1.25-.35-.6-.3-1.55l.3-1.7.6-4.05q.35-2.5.9-3.95l.4-.85-2.15-1.25q-2.75-2.1-3.45-4.9-.2-.7-.25-1.75l-.85-1.1-1.2-2.2-.4-.95q-.05-.6.35-1.1.45-.45 1.65-.65l2.7-.4h1.15l.1-.1Q59.9 0 63.3 0M55 12.85q1.35.85 2.7.3 1.4-.45 1.9-2l.15-.85q-2.15-.2-4.05-1.4l-.5-.4-.4-.5-.4.4-.5.8q-.4 1.05-.1 2 .3 1 1.2 1.65m8.85-2.5.45.65q.75.75 1.75.9l1.9-.35q1.45-.8 1.55-2.55t-1.4-2.65q-.8-.5-1.6-.5l-.15.8Q66 7.8 64.7 9l-1.1.75v.1zM46 35.25h.85l.85-.2 1.25-.15 4.55-.7.95-.25 1.1-.5q1.15-.25 1.9.65.7.85.35 1.95-.3.95-1.3 1.55l-1.95.75-5.05.5q-2.2-.1-3.45-.85l-.85-.75q-.3-.5-.25-1.05.15-.85 1.05-.95m17.1 1.6q.05-.4.45-.7l.85-.3 2.05-.3 1.65.15.6.55q.25.4.15.75l-.7.75-1 .25-3.25-.2q-.8-.4-.8-.95m-35.65-16.7q-.35-.7-.25-2.25l-.1-3v-.65l.05-.4.05-1.25-.05-.35-.95.05q-.5-.05-.85-.4-.4-.35-.45-.85-.05-.45.2-.9.3-.45.75-.6l1.7-.15-.05-.9q-.1-1.15.2-1.6.3-.55.95-.55t.95.5q.3.35.3 1.35l-.05 1.5 1 .15.9.25.4.65-.2.75-1.35.5h-.9l-.1.55v1.4l-.4 4.15-.05.9-.4 1-.4.7-.05.4-.3.3q-.3 0-.3-.35l-.05-.45zm-13.15.45 1.25 2.3.75 1.65.25.7.35.6-.15.35-.35.1-.35-.2-1.5-1.85-1.35-2.15-1.65-2.15-1.65-2.9-.5-.65-.45-.95-.1-.25-.55.4-.85.1-.85-.3-.45-.65q-.15-.45.1-.85l.15-.2 1.3-1.3.4-.25.3-.25.95-.5 1.25-.5h.3q.8-.1 1.25.7.35.8-.15 1.45l-.65.5-.35.2.15.25.6 1.35 1.1 2.15 1.1 2.15zM9.7 34.7q.55-.65 2.15-.95l2.45-.35q1.6 0 2.15.65l.45.5.5.15q3.15.25 6.3 0-.05-.6.4-1.05.3-.25 1-.55l2.35-.35q1.55-.1 2.3.5l.45.45q2.95-.05 5.3.9l1.25.75q.8.65.9 1.8.1 1.75-1.65 2.95-1.25.85-3.35 1.1l-7.75-.3q-1.8-.35-2.75-1.1l-1.3-.05-3.75-.35-2.7-.6-2.5-.4q-1.35-.35-2.1-1.3-.9-1.25-.1-2.4m-4.15 4.9-.75.15-1.45.1-.9-.1-.5-.15-.6-.1q-.55-.05-.9-.45-.4-.45-.45-.95-.05-.7.55-1.25l.95-.5.7-.15h1.45l.55.1.7.15q.7.2 1.1.5l.5.75v.9q-.25.75-.95 1"/><path fill="#fff" d="m63.85 10.35-.25-.5v-.1L64.7 9q1.3-1.2 1.65-2.35l.15-.8q.8 0 1.6.5 1.5.9 1.4 2.65t-1.55 2.55l-1.9.35q-1-.15-1.75-.9zM55 12.85q-.9-.65-1.2-1.65-.3-.95.1-2l.5-.8.4-.4.4.5.5.4q1.9 1.2 4.05 1.4l-.15.85q-.5 1.55-1.9 2-1.35.55-2.7-.3m-10.25 5.4q.4-.35.8.15l.4.8.4.9.6 1.85.5 1.85q.1.6-.2.65l-.35-.2q-.3-.35-.5-1.5L45.65 21l-.9-1.7q-.35-.75 0-1.05"/><path d="m54.25 36.35-8.35.25-4.1-.3-2.15-.55-3.8 1.1-6.1.45-12.9-.8q-2.55-.45-4.3-1.35-1.2-.65-2-1.5H8.9q-2.25.1-3.35 1.2-.35.45-.25.65l.4.3q4.5 1.9 7.25 2.35l1.25.35.8 1.1q.25.65.1 1.35-.25 1.25-1.7 1.7l-2.5.05-.3-.2q-.05-.2.3-.3 1.65-.55 2.85-1.55-.1-.4-.95-.4-3.9.15-7.45-1.1-1.8-.7-2.5-1.55-1.05-1.3-.8-3.4l.45-1.45.85-.95q1.7-1.4 4.05-1.95l1.7-.25q.05-1 .45-2.1.7-1.85 2.65-3.8 1.7-1.65 4.3-3.4 2.1-1.5 3.85-2.3l-.65-2.5-.85-3.7-.65.3-1.25.45q-1 0-1.45-.75-.55-.75-.15-1.65.35-.65 1.45-1.25l1.85-.95q-.3-.5-.45-1.2l-.15-.6-.2-1.6q-.6-.35-.85-.9l-.1-.8q0-1.35 1.3-1.85 1.25-.5 2.2.45L21 2.5q.1.65-.15 1.2l-.05.1.2.45.1.8v.45l.1.8v.55l.35-.15 1-.25q.9-.05 1.55.6.6.75.3 1.6-.2.65-1 1.1l-1.25.5.05 1.3.2 1.1.05.9.45 2.35.2 1.15 3.75-.45 5.1.25 1.05.3 2.3-5.4.2-.45-.7-.5-.45-.55q-.25-.5-.1-1.05.1-.55.5-.9.6-.55 1.6-.45l.85.3.15-.35.35-1.1.3-.55q-.3-.55-.1-1.35.15-.65.6-1l.85-.4 1.25.2q.65.3.95.9.25.6.1 1.25-.2.7-.75 1.05l-.8.25-.3.8-.65 1.1h.1q.55.25.9.6.7.7.45 1.8-.35 1.2-1.5 1.35h-.85l-.25.4-2.85 4.95q1.55.8 3.15 2.15l.45-.55q1.25-1.4 2.7-2.35 2-1.25 4.75-1.65l3.25-.1q.35-2.15 1.4-3.4l1-.95q.75-.6 1.7-1 1.4-.6 2.95-.7 1.55-.05 2.9.5 3.05 1.15 4 4.2.4 1.45.1 2.95-.35 1.55-1.4 2.6-1.25 1.3-3.6 2l.9 1.45q1 2 1.2 3.05l.2 1.95h.35l2.05.35 1.6.9.85.7.6 1q.55 1.3.05 2.35-.45 1.05-1.5 1.5l-2.05.7-6.75.55-.6-.05zm-4.8-3.8 1.15.9-.05.15-.3.8q-.1.55.2.9.35.45.85.3.55-.2.55-.7l-.25-1.05.3.05 1.05.15.55-.05v-.05l.1-.65.35-1.25.3-.6.65-.95.45-.5q.3-.45.95-.8.15-.15.35-.2v-.05q-.45-1.45-1.85-2.25l-.85-.35-1.1-.1-1.2.05q-1 .15-1.8.9t-1.05 1.75l-.15 1.4.05.85q.15.65.75 1.35m-6.55 1.2.7-.2.8-1.35.5-1.55.2-.95.2-.25.7-.6.75-.4.6-.55.05-.25-.25-.2-.6.05-1.6.6q-.25-.2-.7-.45-1.55-.9-2.55-1.1l-.55-.05q-.35.1-.35.35l.15.45.7.9 1.4 1.35.2.15-.05.1-.6 2.3q-.2.8 0 1.3zm2.85-13.85v.25l.05.2-.8.6-.2.25-.5.45-.4.4q-.25.35.1.45l.4-.15.6-.3.4-.1.55-.25.35-.1.05.15.15.3.25.25.3.8.15.2.1.3q.2.7.85.95l.5.05.4-.3.3-.6-.15-.7-.25-.7-.6-1.1.75-.35.35-.2.35-.4.15-.5-.1-.45-.25-.4q-.4-.5-1.05-.4l-.65.25-.95.55-.05-.05-.2-.15-.4-.75q-.2-.45-.8-.6l-.3.25v.3zM53.5 30l-.05.2-.15.3-.25.2q-.6.2-.85-.3-.3-.45.05-.8l.5-.25.55.2.05.15.1.15z"/><path fill="#fff" d="m45.75 19.9-.55-1.6V18l.3-.25q.6.15.8.6l.4.75.2.15.05.05.95-.55.65-.25q.65-.1 1.05.4l.25.4.1.45-.15.5-.35.4-.35.2-.75.35.6 1.1.25.7.15.7-.3.6-.4.3-.5-.05q-.65-.25-.85-.95l-.1-.3-.15-.2-.3-.8-.25-.25-.15-.3-.05-.15-.35.1-.55.25-.4.1-.6.3-.4.15q-.35-.1-.1-.45l.4-.4.5-.45.2-.25.8-.6-.05-.2zM42.9 33.75l-.3-.35q-.2-.5 0-1.3l.6-2.3.05-.1-.2-.15-1.4-1.35-.7-.9-.15-.45q0-.25.35-.35l.55.05q1 .2 2.55 1.1.45.25.7.45l1.6-.6.6-.05.25.2-.05.25-.6.55-.75.4-.7.6-.2.25-.2.95-.5 1.55-.8 1.35zm6.55-1.2q-.6-.7-.75-1.35l-.05-.85.15-1.4q.25-1 1.05-1.75t1.8-.9l1.2-.05 1.1.1.85.35q1.4.8 1.85 2.25V29q-.2.05-.35.2-.65.35-.95.8l-.45.5-.65.95-.3.6-.35 1.25-.1.65V34l-.55.05-1.05-.15-.3-.05.25 1.05q0 .5-.55.7-.5.15-.85-.3-.3-.35-.2-.9l.3-.8.05-.15zM53.5 30l-.05-.15-.1-.15-.05-.15-.55-.2-.5.25q-.35.35-.05.8.25.5.85.3l.25-.2.15-.3z"/></g></svg>