<svg xmlns="http://www.w3.org/2000/svg" xmlns:ffdec="https://www.free-decompiler.com/flash" ffdec:objectType="shape" width="75.95" height="43.2"><g fill-rule="evenodd"><path fill="#999" d="M7.8.55Q8.25.05 8.95 0t1.2.4l.7 1.15 1.35 2.2 3.75 5.5q1.4 2 1.75 3.15l-.1.55-.4-.05-.4-.5v.05l-.05.1.15.25q.35.65-.05.85l-.45-.1-.95-.8-.8 1.25q-.7.7-1.2.7l-.3-.05.4.55q.5.75.1 1.05l-.65.05q-.55-.15-1.45-.85-3.55-2.9-8.4-8.4L1.3 5.1.45 4.05V3.4q-.5-.6-.45-1.35l.5-.9.95-.35.55.1.25-.4L3.4.4l.9.6.8.2.05.05.1-.15Q5.75.5 6.5.75l.95.6zm11.55.85.4-.25.45.15.25.45.3 1.1.75 3.9.85 2.65 1.45 4.7.25 1.2q0 .6-.35.6l-.45-.4-3-5.65-1.2-2-2.95-4.5q-.55-.9-.55-1.3-.1-.75.6-1.2.7-.4 1.35 0l.75.9.1.15.1-.15.85-.2zm10.8 11.15-1.3 1.75.7 1.6.45 1.55q.1 1-.75 1.35-.7.3-1.45-.35L27 17.1q-1.55-3.65-3.35-8.5l-2.1-5.75q-.3-.8-.25-1.2 0-.45.3-.6l.75.15.6.6.9-.25.4.15h.05l.05-.1.15-.05.25-.05h.8l.3-.05h.55l.25-.05h.3l.6-.05h9.35l.4.05h.75l1.9.05h20.1l4.05-.05h7.95l1.6-.05H75l.25.05.15.05.1.1.1.05.05.05.05.05.05.1v.05l.05.05V2l.05.05v.45l-.05.05v.05l-.05.1-.05.05V3l.05.1v.25l.05.05v.65l.05.05v6.05l.05.05v.45l-.05.1v.1l.05.05v.7l-.05.1v1l.05.05v1.4l-.05.1v6.6l.05.05v3.2l.05.05v3.25l-.05.1v3.7l.05.05v8.7l-.05.1v.25l-.05.05v.05l-.05.1v.05l-.1.1-.05.1h.05l.05.05.05.1v.05l.05.05.05.1v.1l.05.05v.25l-.05.1v.1l-.05.1-.05.05v.05l-.05.05-.05.1-.05.05-.1.05-.1.05-.15.1-.1.05h-.35l-.2.05h-.35l-.2-.05h-.75l-.35.05h-.9l-.1.05h-.2l-.4.05h-3.5l-.3.05h-1.5l-.95-.05h-2.6l-2.3-.05H58.2l-.45-.05h-6l-1.05.15-1.45-.1h-.9l-.25.05h-.3l-.3.05h-.1l-.2.05h-.3v.05h-.2l-.1.05h-.2l-.25.05h-.7l-.1-.05-.15-.05-.15-.05-.1-.05-.05-.05-.1-.1-.05-.05-.05-.05-.05-.1-.05-.05-.05-.05-.05-.05v-.1l-.05-.05-.05-.05-.05-.05v-.15l-.05-.05v-.1l-.05-.05-.05-.05v-.05l-.05-.1v-.05l-.05-.05-.05-.05v-.15L44 40.9v-.1l-.05-.05v-.1l-.05-.1-.05-.05-.05-.05-.05-.05-.05-.1-.05-.05v-.05l-.05-.1-.05-.05v-.1l-.05-.1v-.15l-.05-.1v-.05l-.05-.05v-.15l-.05-.05v-.15l-.05-.05-.05-.05-.05-.05v-.1l-.05-.05v-.05l-.05-.1v-.05l-.05-.05v-.05l-.05-.1-.05-.05v-.05l-.05-.05-.4-.25q-.35-.3-.3-.75.05-.5.45-.75l1.75-.05 3.4.8 2 .55 1.55.6 4.95 1.45.25.1-4.45-3.8-.95-1q-.45-.55-.35-.95V34q.05-.45.35-.65l1.15-.25 8.4-.5 2.05-.2h1.75l-5.6-1.45-5.7-1.55-.7-.3-.4-.2q-.3-.2-.3-.6-.05-.4.2-.65t.95-.45l6.85-2.7 4.5-1.9-5.75 1.1-6 .9-.9.55-.85.3q-.35 0-.6-.35-.25-.3-.15-.7t.8-.8l14.25-8.85q.7-.5 1.35-.9l-1.45.3-7 1.8-.4.05-.1.05-.5.05q-.3-.05-.2-.5l.05-.05v-.4l.8-.55q2.85-2.9 9.25-7.85l2.5-1.85-1.9.9-5.25 2.6-10.35 6.8-1.15.6q-.7.2-1.2-.3-.4-.5-.15-1.2l.5-1.15q.5-1.05.6-2.2l-1.4.65-2.8 1.95-5.6 3.7-2.5 1.7-.25.25-.5.4-2.65 2.1-.65.35q-.55 0-.85-.4l-.5-.8-.55-1.35q-.35-.75-.25-1.15l.1-.3-.05-.15q-.1-.6.3-1l.55-.2.5.2.35.65.35-5.5.15-4.1zM36.7 33.6l.1.15.3.35.05.1 3.15 5.2q.55 1.15 1.25 1.95l.35.55q.3.55-.2.95l-1 .1-.35-.45-.4.15-1.05.05-1.95.3-.45.15h-.6q-.65-.1-.75-.75l-.05-.6.25-2V39l.3-2.75q.1-1.45.3-1.95l-.05-.2q0-.35.25-.5.3-.15.55 0m-27.25-14q.45.45.3.7-.05.3-.45.2l-.45-.2-.8-.6-1.95-2q-.15.55-.7.85l-.1.85 1.65.1.35.05.4.2.55.15.55.55.1.25-.05.2-.65.4-.35-.1-.3.1-.95-.05-2.75.1-1.6-.45q-.4-.4-.25-1l.05-.05H1.9q-.6.1-1-.4l-.35-.95v-1.95l.1-1.85.4-1.1.35-.5.15-.1-.4-.4-.6-.95q-.1-.55.3-.85.35-.4.9-.25l.95.85 2.4 2.75 2.35 2.8.95 1.3zM6.7 25.3q-.15.45-.8.55l-.5.1.3.5.9 1.95.1.35.05.3 2.05-.55.7.1q.2.3-.1.5l-.5.25-.8.45-1.25.6-1.7.65-1.8.55-1.25.55-.85.25q-.5 0-.8-.35-.35-.35-.1-.85.15-.4 1-.6l.2-.05-.15-.1-.3-.4-.2-.85.1-2.15-.05-.4.25-.75-.05-.05q-.3-.6.4-1.1l1.25-.2h2.75l.75.15q.5.2.4.6M5.1 40.8l-1.9-1.45q-.4-.55-.5-1.2l-.5-.35q-.7-.55-.9-1.45-.25-.9.1-1.7l.4-.6.7.05-.05 1.1q0 .45.45.8l.1.1.1-.25.35-.4q-.1-.4-.05-.8l.2-1.1q.25-.7 1.05-1.2.25-.2.6-.3.45 0 .5.3l-.3.7q-.5.6-.55 1.45l.65-.15q.25-.7 1-1.25l.9-.1.2.35-.15.3-.35.35v.35l.1.35.7.5q.7.65.95 1.55 2.55-.6 4.6-2.4t3-4.3l.35-.8q.45-.45.75-.3.65.15.65 1.25-.05 3.55-2.75 6.55-2.2 2.4-6.05 3.95l-2.25.55zm20.2.7q0-.45.35-1l.7-.85 4.1-5.05.6-.5q.45-.2.7.15l.05.55-3 6.85-.4.65-1.1.1h-.05l-1.2.1q-.65-.25-.75-1"/><path d="m64.7 11.4-4.4 1.3q-.1-.1.15-.35l3.2-2.6 2.05-1.7q1.35-1.05 2.15-1l.95.4q.45.35.55.85.25 1.2-.75 1.85-.35.2-.75.35l-2.45.6zm.85 7.6-2 .25q-1-.25-1.85-1l-.8-.55h-.8l-6.95 2-6.85 2.25-.6.1q-.4 0-.5-.35-.05-.4.55-.75 10.1-5.35 15-7.2 1.1-.4 1.75-.45l1.6.1q2.1.55 2.65 2.4.25.9-.05 1.85-.35.9-1.15 1.35M59.8 6.15q1.25.25 1.7 1.35.5 1.1-.1 2.2-.35.7-1.6 1.5l-6.1 4.2-3.5 2.05-4.95 3.3-5.15 3-.6-.05q-.2-.2.2-.6l3.95-3.9 3.65-3.4 2.5-2.05 2.95-2.9-1.45 1.2-1.3.9-1.65 1.4-1.7 1.35-.7.5-.4.3h-.5q-.3-.3 0-.8l2.15-4.1 2.25-3.85.5-.7q.85-1.05 2.15-.8 1.3.15 1.8 1.35.5 1.1-.05 2.1l2.85-2.6q1.75-1.25 3.1-.95M40.4 15.4l1-.1q.5-.35.5-.9l-.5-1.25-.25-.75q-.05-.85.5-1.6.3-.5.2-.75-.15-.3-.55-.2l-.5.35q-.9.9-1.25 1.9l-.7.1q-.7.3-.75.75-.1.3.2.6l.6.35.5.05.25.7zm-2.1-10q3.65.45 5.45 2.65 1.45 1.8 1.45 4.5-.1 2.4-1.35 4.1-1.2 1.6-3.35 2.45-1.6.7-4.05.85l-2.65-.1-.35.3-1.75 1-.7.2q-1.65.35-2.95-.5-1.4-.95-1.7-2.55-.15-.95.2-1.85.35-.95 1.1-1.55.65-.55 1.35-.65l.05-1.55.45-2.25.3-.8q-1.3-1.25-1.1-3 .15-.7.45-1.3l.55-.95.55-.55q1.1-.9 1.9-1l1.25.1 1 .25q1.15.4 1.7 1.5l.2.5.05.15zm3.85 27.25Q42 32 42 30.7q0-2 .5-3.3.75-2.1 2.85-3.65 1.65-1.2 4.25-2.15l2-.4q2.3-.05 3.8 2.15 1.15 1.7 1.25 4.3.15 2.35-.55 4.3-1.1 3.15-3.9 4.7-3 1.6-6.05.45-1.35-.5-2.35-1.55l-.35.35q-.15.35.1.7l.5.55 1.65 1.1 3.4.1 1.2-.3 1.75.05.9.5q.6.75.15 1.6-.3.7-1.15 1.25-1.05.65-1.8.35l-.25-.3.25-.2 1.3-.55q.7-.5.65-1.15l-1.3-.15-1.4.3-1.4.2q-2.6.3-4.1-.05-2.4-.55-3.15-2.35-.3-.7-.3-1.8 0-.85.15-1.2.3-1.15 1.6-1.8zm17.3-9.3-1.4-.05-.5-.4-.25-.8-.6-.8-.6-.6q-.05-.3.35-.6l.65-.15 1.85.35q1 .55 1.15 1.4.25 1.15-.65 1.65M34.15 7.6q-.65.35-.95 1.1-.25.7-.05 1.4l.9 1.15q.65.45 1.35.35.75-.05 1.3-.65.55-.55.6-1.3.1-.7-.35-1.35l-1.15-.9q-.9-.25-1.65.2M4.95 26.7l-.3-2.05-.25-.35-.5-1.15Q2.8 20.2 2.8 18.2q0-1.15.5-1.7.5-.6 1.2-.5l.75.2 2.35 1.1q2.15-2.15 5-2.75h.05v-.05l.7-2.4q.4-1.6 1.2-2.15.85-.4 1.65 0l.75.7 2.35 2.65q2.6 3.3 3.75 8.2.7 1.85.6 3.2 2.6-1.45 4.75-2.05l5.7.2q3 1.15 3.85 4l.25 1.65q.2 2.25-.35 3.9l-.3.7.05.2V35l-.05.5-.65 1.65-.2.25-.9.75-.7.25h-.9l-.35-.55.25-.5.45-.4.15-.5.25-1-.95.15-.05.15-1 1.6-1.7 1.15-.7.05h-.65q-.6-.15-1.15-.75-.3-.3-.25-.55 0-.45.7-.55l.9-.05.45-.25.95-1 .2-.3-.1-.05-.5-.35-.5.5-1.45.8-.95-.05-.45-.1-.35-.15-.35-.25-.25-.35q-.2-.45.1-.75l.65-.25.4-.15.45-.1.55-.3.9-1.3.15-.3q-.05-.95.2-2.15l-.05-.8-.5-.25-2.3-.2-2.15.15-2.15.25-.3.05.2.3q.6 1.05.8 1.85l.2 1.85q.2 4.9-1.15 8.05l-.55 1.1H9.35q-.05-.65.35-1.35.35-.65 1.55-1.45l3.35-2.65q1.75-1.8 2.3-3.6l.45-1.55q-1.95 1.05-4.6.95-2.3-.1-4.25-1.2l-1.65-1.25.25.05 1.55-.35.8-.6.4-.5.3-.75.05-.9-2.6-.35-1.25-.9-.3-.55-.75.7-.35.65zm11.2-7.75q-.9 0-1.7.55l.25 1.7-.1.95-.7 2.3q.4.3.9.45l.65.15h1.35l1.25-.5.4-.45.55-1.05q.35-1.3-.2-2.45-.55-1.25-1.85-1.55zm19.8-1.25 1-.05.15-.25q.05-.45-.25-.75l-.45-.25h-.05q.25-.4-.05-.9-.15-.25-.5-.25-.3-.05-.5.15l-.2.3-.3-.25-.65-.1-.55.4q-.2.35-.1.7l.45.5.65.2-.05.1q-.3.45-.15.85l.25.4.4.1.3-.3.35-.75z"/><path fill="#fff" d="m40.4 15.4-.75-.75-.25-.7-.5-.05-.6-.35q-.3-.3-.2-.6.05-.45.75-.75l.7-.1q.35-1 1.25-1.9l.5-.35q.4-.1.55.2.1.25-.2.75-.55.75-.5 1.6l.25.75.5 1.25q0 .55-.5.9zm-6.25-7.8q.75-.45 1.65-.2l1.15.9q.45.65.35 1.35-.05.75-.6 1.3-.55.6-1.3.65-.7.1-1.35-.35l-.9-1.15q-.2-.7.05-1.4.3-.75.95-1.1M6.85 30.05 5.6 29.5q-.6-.6-.75-1.45v-.8l.1-.55v-.15l.35-.65.75-.7.3.55 1.25.9 2.6.35-.05.9-.3.75-.4.5-.8.6-1.55.35zm29.1-12.35-.25-.15-.35.75-.3.3-.4-.1-.25-.4q-.15-.4.15-.85l.05-.1-.65-.2-.45-.5q-.1-.35.1-.7l.55-.4.65.1.3.25.2-.3q.2-.2.5-.15.35 0 .5.25.3.5.05.9h.05l.45.25q.3.3.25.75l-.15.25zm-19.8 1.25.8.1q1.3.3 1.85 1.55.55 1.15.2 2.45l-.55 1.05-.4.45-1.25.5h-1.35l-.65-.15q-.5-.15-.9-.45l.7-2.3.1-.95-.25-1.7q.8-.55 1.7-.55"/></g></svg>