<svg xmlns="http://www.w3.org/2000/svg" xmlns:ffdec="https://www.free-decompiler.com/flash" ffdec:objectType="shape" width="68.4" height="41.05"><g fill-rule="evenodd"><path fill="#717171" d="M59 9.95q.1-.45.6-.65.55-.1.85.3l.25.75.1.8q0 1.25-1 2.15l-.25.25v.35l.1.45.45 1.15v.4l.15.7-.35 1.35-.2.3-.35.05-.2-.5q0-.3.25-.5v-.2q.15-.5-.05-.95l-.3-.45-.45-.45-.35-.3-.25-.5-.25-1q0-.95.65-1.7l.35-.45.2-.65q-.05-.5.05-.7m-7.05 1.95.05-.75q0-.5.15-.9l.45-.85.25-.35.8-.75q.3-.45-.1-1.35l-.15-.35.1-.4q.3-.2.65.15.5.4.55 1l.1 1.35-.05.4-.15.3-.5 1.3q-.25.6-.05 1.1l.5.85.05.65-.1.6-.35.6-.4-.6-.95-.45q-.45-.3-.6-.8zM33.75.05l5.3.45.95-.15 1.05.05 2.8-.05 1.55.3q.8.4.9 1.35.1.6-.3 1.05l-.45.4L43.9 5.2l-.35.55.2 2.35q-.1 3.2-1.55 4.9l-.85.85 2.2.25q.8.2 1.7.85l.9.8.75 1.3.35.85.05 1.3-.15.85q-.25 1.05-1.4 1.85l-.75.4 1.15 1.3.35.65.1.25.45 1.15.05 1.25 1.5.4q.75.4 1.1 1.15.4.8.25 1.55l11.25-1.05.7-.2.3-.5q.6-1.15 1.95-1.55 1.3-.4 2.45.25 1.1.6 1.5 1.95.35 1.35-.3 2.45-.8 1.35-3.05 2.1-2.85 1-7.6 1.45l-3.45.35.1 1.2q-.1 1.25-.8 1.95l-.65.55q-2.45 1.6-5.4 1.3-1.8-.3-2.45-1.3-.65-1.1.05-2.2.65-1.05 1.95-1.15l.8-.05.75-.15v-.25q-1.7-.25-2.7-.95-1.8-1.15-1.95-3.25-.05-.55.05-1.05l-.65.15-1.1-.15-.3.1-2.6.15q-1.1-.45-1.85-1.6l-1.15-2.2-1 .45-1.15.25-1 .3-.65.05q.75 1.4.45 2.6-.2.85-.9 1.4-.75.6-1.6.6-.9 0-2.1-.75l-.8-.7-.5.35-1.65.25-.45 1.2-1.7 1.6q.5.4.5 1.1l5.1.15q1.8.2 2.5.85l.3.5-.15.5q-.65 1-1.85 1.55l-2.3.85-5.3.9-1.85-.25-1.55-.5q-1.05-.55-1.6-1.7-.4-.8-.4-1.6l-1.25.2q-6.2 1.05-10.95.25-1.6-.25-2.5-.8Q.15 35.1 0 33.8q-.05-1.15 1-2.15.75-.7 2.15-1.05l2.05-.05q1.2.4 1.3 1.5 5.75.15 11.05-1.25 1-.2 1.45-.65l.7-.8q.75-.7 1.8-.85l1.05-.05-.05-.1.05-.8q.2-1.3 1.05-2.55l.45-.55.1-.05-.75-.2q-1.05-.35-1.75-1.3-.65-.95-.7-2.05 0-2.1 2.15-4.05l1.05-.8 2.2-.9 2.3-.75q-1.55-1.15-2.1-2.1t-.6-2.55q-1-.3-2.1-1.15-1.15-1-1.35-1.85-.15-1.1.55-1.8l3.7-2.65 1.3-.65.95-.35 1.15-.6.6-.05zm3.2 7.55q.25.9 1 1.5.75.65 1.65.75l1.75-.35q.85-.45 1.3-1.3.4-.8.3-1.75l-.25-.85-1.25.15q-1.75-.1-2.6-1l-.4-.55q-.6.3-1 .9-.55.8-.6 1.7zm13.1 7.3.75.8.4.7.05 1.15-.1.55-.15.45-.5.6-.65.65-.25.4-.45.2-.2-.15-.15-.35-.05-.55.05-.3.1-.75.35-.5.1-.6-.1-.15-.5-1.3-.05-.35.15-1 .45-.75.15-.1.2.1.1.55v.45zm-6.55 4q-.05-.6-.75-.85l-1.05-.2.65 1.45zM27.1 6.65q-.6.6-.75 1.45-.2.85.1 1.7l1 1.35.4.25.2-.3.9-.55q1.8-.8 2.8-.95l.5-.05.1-.75q0-.9-.4-1.6l-.25-.4q-.75-1-2.1-1.15-1.4-.1-2.3.75zm10.85 5.8.05-.4-.15-.45-.55-.65-.45-.3-.65-.2h-.35V9.8q-.15-.45-.8-.65L35 9.2q-.35 0-.6.25-.25.2-.25.55l.05.55-.4.1q-.4.2-.85.35l-.1.1-.75.5-.1.05-.3.35q-.45.7.15 1.3l1.3.1.4-.4.75-.45 1.15-.4.65-.1.85.4.55.2q.35.1.45-.2m-11.1 7.05.75-1.5-.4.2q-1.45.85-1.7 1.6l1.2.1zM11.1 16.45l-.45 1.6-.3.15-.15-.1-.25-.6-.15-.6-.75-1.05-.3-.5-.2-1 .25-1.15.8-1.35.55-.85.1-1-.15-.65q-.1-.45.3-.6l.45.1.35.35.5.85q.7 1.45-.1 2.75l-.75 1.3-.05.5.15.5.2.75zm7.2-4.05q.05.65-.5 1.75l-.05.6.15.9.3 1-.25.95-.05.4-.4 1.3-.3.45-.5.1q-.4-.3-.2-.65v-.15l.2-.8.15-.3.05-.2-.05-.5-.45-.9-.3-.85q-.2-.6-.1-1.45l.05-.7q.15-.6.65-1.1l.45-.5.45-.9q0-.15.15-.15l.1.1.3.75zM3.95 18.9l.5-.65.05-1.15-.1-.7q-.1-.45.1-.7l.6-.05.45.5.25 2.05-.2 2.1-.1.4.1 2.05-.5 1.4-.3.3-.4.05q-.25-.1-.25-.65L3.7 22.8l-.25-.4q-.15-.3-.15-.6-.1-.5.1-1.6.2-.9.55-1.3"/><path fill="#fff" d="m36.95 7.6-.1-.8q.05-.9.6-1.7.4-.6 1-.9l.4.55q.85.9 2.6 1l1.25-.15.25.85q.1.95-.3 1.75-.45.85-1.3 1.3l-1.75.35q-.9-.1-1.65-.75-.75-.6-1-1.5m1 4.85q-.1.3-.45.2l-.55-.2-.85-.4-.65.1-1.15.4-.75.45-.4.4-1.3-.1q-.6-.6-.15-1.3l.3-.35.1-.05.75-.5.1-.1q.45-.15.85-.35l.4-.1-.05-.55q0-.35.25-.55.25-.25.6-.25l.05-.05q.65.2.8.65v.65h.35l.65.2.45.3.55.65.15.45zM27.1 6.65l.2-.25q.9-.85 2.3-.75 1.35.15 2.1 1.15l.25.4q.4.7.4 1.6l-.1.75-.5.05q-1 .15-2.8.95l-.9.55-.2.3-.4-.25-1-1.35q-.3-.85-.1-1.7.15-.85.75-1.45"/><path d="m64.9 9.85-1.05-.1q-1.1-.4-1-1.65.05-.5.45-.9l-.05-.2q-.15-.8.15-1.65l.3-.55q.35-.55 1.2-.65.7-.1 1.3.35.6.4.8 1v.95l.9.3q.4.35.5 1.2.1 1.45-1 1.9-.5.2-1.25 0l-.65-.3zm2.45-2.5-.45-.1-.25.1-.25.2-.3.1-.1.1.1.7.85.2q.5-.05.6-.75zm-1.8-.55q.2-.15.45-.2.35-.6-.05-1-.15-.2-.5-.3l-.7.15q-.35.2-.45.55l.05.65q.65-.1 1.1.25zM6.2 5.5l.3-.3q.45-.5.2-1.05-.2-.3-.55-.35-.6.25-.75.75l.05.75v.05zm.65 1.7L6.1 8l-1.15.05-.1-.05-.5.3-.95.1q-.85 0-1.25-.35t-.6-1.2q-.1-.95.25-1.55l.55-.6.85-.4.95.1.2.1.3-.9q.6-.85 1.55-.75 1.05.1 1.4 1l.15.8-.2 1.1-.65.6zm-2.7-.9L4.3 6l-.1-.3-.15-.15h-.3q-.45.15-.8 1.25v.25l.4.15.6-.25.15-.05zM10.95 34.35h-3.1q-1.2-.05-2.55-.75-1.05-.65-1.45-1.3-.7-1.05-.55-2.45.15-1.3 1-2.35 1-1.15 2.6-1.8.2-.85.75-1.5.5-.55 1.5-1.2.5-.35 1.15-.6l1.85-.2.3-1.35.4-.85q.4-.5 1.35-.85l.55-.15.55.25.3.5v.4l.1.45.3.65 1.3 1 .45.5q.45.55.55 1.2l1.15.4q1.25.55 2.1 1.65.9 1.15.95 2.45.05 1-.3 1.9 1.25-1.35 3.35-2.2.2-1.1.95-2.1.8-1.2 2.65-2.2.7-.4 1.4-.6l.45-.1v-.8l.2-1.15q.6-1.95 2.9-2.85l.75-.1q.8.2.7.95l-.1.5.05 1.2 1.2-.25q1.3-.15 2.3.6.75.6.9 1.45l.15.75h.5q2.2 0 3.55 1.2 1.05.85 1.45 2.2.3 1.05.1 2.05l1.05.85q.05-.6.25-1.1.35-.95 1.55-1.8v-.6l.2-1q.25-.9 1.25-1.7l1.3-.7.05-.4.4-.8q1.4-2.35 3.6-2.8 0-.6.15-.85.2-.5.55-.55l.75.25.55.4.45.9q.2.8 0 1.6l1.65-.05q1.45.1 2.5 1 1.15 1.05 1.05 2.4v.1q1.8.35 2.65 1.4 1.1 1.3.65 3.15-.45 1.6-2 2.6l-1.8.85-2.1.7-3.45.45-3.5.05h-3.1l-1.05-.2q.8 1.95.1 3.6-.55 1.4-2.2 2.35-1.1.65-3.1 1.1l-14.9.65q-3.25-.3-4.95-1-2.75-1.2-3.6-3.5-.4-1.2-.15-2.6.15-.75.45-1.45l-.45.4q-1.7 1.35-4.45 1.8l-3 .15z"/></g></svg>