<svg xmlns="http://www.w3.org/2000/svg" xmlns:ffdec="https://www.free-decompiler.com/flash" ffdec:objectType="shape" width="76.55" height="43.5"><path fill="#999" fill-rule="evenodd" d="M.5 10.9V.5h75.55v11.9l-.85-.85q-1.15-1-2.6-1.4l-2.9-.1q-1.7.4-3.25 1.95-1.75 1.7-3.3 5.15l-2.65 5.7q-1.15 2-2.6 3-2 1.3-4.15.8l.05-.05 4.1-4.3 4.75-5.5q2.25-3.55 2.45-6.75.2-3.75-1.95-5.8-1.1-1.1-2.65-1.45l-3 .2q-1.45.55-2.25 1.95-.45.75-.6 1.5-.6-.9-1.7-1.1l-1.9-.05-2.5.4q-2.05-1.05-4.7-1.15-2.5-.05-6.25.95l-.5.2-3.05-.6-5.3.45-1.15.55q-.9-.85-2.2-1.1l-1.25-.1-1.15.2q-.6.25-1.05.7-.45-1.55-2-2.45-1.7-.95-3.8-.65-2.2.4-3.85 2.15-1.6 1.75-1.8 4-.2 2.15.95 4.45.05 1.15.4 2.35l1.15 3.1 1.1 3.05q.45 1.85.55 4.3l-.1 2.95q-.35 1.7-1.5 3.05-1.2 1.35-2.8 1.95l-1.4.2-1.05-.7-1.2-1.6q-.5-1-.5-2.35l.35-1.85q.25 1.45.7 2.3.5 1.05 1.75 2.05l.55.3q.45.1.6-.2v-.3l-.25-.2q-1.15-2.4-.85-5l.8-3.6q.7-2.4.75-4.25.1-2.45-.8-4.2l-.1-.25-.1-.25q-.45-1.5-1.5-2.65-1.15-1.2-2.55-1.6l-3.25.15q-.9.3-1.7.85m75.55 25.4v5.4h-19l.1-.35.55-1.05.15-1.65q-.1-2-1.25-4.9-.75-2.45-2.3-4.3l1.7.05q2.15-.2 4.05-1.4 2.95-1.9 5.35-6.6l1.2-2.2.55-.7 1.35-1.2q1.05-.55 1.8-.3.55.15 1.1.75l.15.2-1.7-.15q-.95.2-1.4.5-.45.25-1.25 1.5L65.45 23q-.15.25-.15.45-.1.3.2.4l.5-.15 1.55-1.8q.9-1.1 1.85-1.35l.75.05q.4.3.2.95l-.6.7-2 2.4-2.15 2.25q-2.5 3-2.55 6.1 0 1.75.85 3.25.85 1.6 2.35 2.25 1.35.65 3.4.55l2.45-.3 1.6-.65q1.5-.85 2.2-1.65zM52.7 41.7h-8.65l.15-.15q.55-.45.8-1.35l.6-1.2q.3-.55.2-1.05.45-.55.5-1.25.1-1.1-.75-1.85l-1.1-.55.2-.25 1.5-2.1.85-1.7q.25-1.3-.85-2.2-.8-.7-1.8-.4v-.2l-.4-1-.9-.7-2.25-1.3-.85-.6-.15-.45-1-2.05-1-1.2q-.7-.5-1.45-.3-.8.25-1.05 1.1l-.2 1.6q.1 1.25.35 2.2l.55 1.4.3.45.5.65 1.2.8-.75.65-2-2.2q-.95-.8-2.2-.4-.9.5-.75 1.55l.35.8.7 1.05-.4-.3-.6-.3-1 .1-.7.7-.1.45q-.1.65.05 1.2l.7 1.35 1.25 1.65 1 1 1.1.3-.45.15-1.7.35-.75-.1q-1.05.1-1.35 1.2-.15 1.1.65 1.75l.5.3v.4l.1.5v.35l.15.5.35.65H22.5l.7-2.15q.85-4 3.8-8.7Q28.2 29 28.25 28v-.05l.65-.75q.35-.6.3-1.2-.15-1.05-1.85-2.2l-1.8-1.4-3.4-5.2-.4-.6.25-.5.15-.65.3-1.1 1.25.35q.8.05 1.45-.5.7-.5.8-1.3L26 12l-.1-.85.75.35q.8.25 1.55 0l1.35-.75q1.8-.95 5.2-.85.6.65 1.45.7l.7-.1 1.05.95 1.25.15q.7-.15 1.05-.65.4-.55.4-1.3 3.85-.5 5.7.4l1 .6 1.1.4q1 .25 1.8-.35-.2 1.75.25 2.6l.8.75.6.1.05 1.1-.25 1.9q-.4 2.3-1.35 3.25l-1.2 1.15q-.95 1.1-.35 2.45l.4.6q-.4.4-.5.75-.45.95 0 1.8l.5 1.7 1.35 2.75.95 1.75q1.55 3 1.2 6.7zm-12.15 0H35.4l.15-.55.05-.35-.1-.9-.05-.2.2-.1 1.65-.7.25.15 1.4.4 1.75.1-.05.15-.3 1.05q-.1.55.2.95m-21.9 0H.5v-7.2q1.45 1.9 3.2 3.05 2.8 1.75 5.65 1.55 2.35-.2 4.55-1.75 4.1-2.85 4.75-7.25.25-1.65-.15-5l-.4-2.55.95 1q1.95 2 4.2 3.55l.05.05.05.35-.2.5-2.9 5q-1.45 2.9-2 5.35-.4 1.85.05 2.75zm2.2-31.05.25-.35.05.85-.15.1-.65 1.2-.4 1-.4-.75zm-5.1-1.8.25-.5.3-.25.7-.35-.6 1.1-.5 1.25-.15.1q-.15-.65 0-1.35M55.05 10l.15-.45.2.45 1.1 2.05q.35.85.3 1.55l-.45 1.35q-.2-2-1-3.95l-.35-.75z"/><path fill="#fff" fill-rule="evenodd" d="M76.05 12.4v23.9l-.15.15q-.7.8-2.2 1.65l-1.6.65-2.45.3q-2.05.1-3.4-.55-1.5-.65-2.35-2.25-.85-1.5-.85-3.25.05-3.1 2.55-6.1l2.15-2.25 2-2.4.6-.7q.2-.65-.2-.95l-.75-.05q-.95.25-1.85 1.35L66 23.7l-.5.15q-.3-.1-.2-.4 0-.2.15-.45l1.75-3.1q.8-1.25 1.25-1.5.45-.3 1.4-.5l1.7.15-.15-.2q-.55-.6-1.1-.75-.75-.25-1.8.3l-1.35 1.2-.55.7-1.2 2.2q-2.4 4.7-5.35 6.6-1.9 1.2-4.05 1.4l-1.7-.05q1.55 1.85 2.3 4.3 1.15 2.9 1.25 4.9l-.15 1.65-.55 1.05-.1.35-.7 1.2q-.9.85-2.15.5-1.25-.4-1.5-1.6v-1.75q.35-3.7-1.2-6.7l-.95-1.75-1.35-2.75-.5-1.7q-.45-.85 0-1.8.1-.35.5-.75l-.4-.6q-.6-1.35.35-2.45l1.2-1.15q.95-.95 1.35-3.25l.25-1.9-.05-1.1-.6-.1-.8-.75q-.45-.85-.25-2.6-.8.6-1.8.35l-1.1-.4-1-.6q-1.85-.9-5.7-.4 0 .75-.4 1.3-.35.5-1.05.65l-1.25-.15-1.05-.95-.7.1q-.85-.05-1.45-.7-3.4-.1-5.2.85l-1.35.75q-.75.25-1.55 0l-.75-.35.1.85-.05.9q-.1.8-.8 1.3-.65.55-1.45.5l-1.25-.35-.3 1.1-.15.65-.25.5.4.6 3.4 5.2 1.8 1.4q1.7 1.15 1.85 2.2.05.6-.3 1.2l-.65.75V28q-.05 1-1.25 2.85-2.95 4.7-3.8 8.7l-.7 2.15-.05.05q-.8 1.15-2.25.9-1.05-.2-1.55-.95l-.35-.6q-.45-.9-.05-2.75.55-2.45 2-5.35l2.9-5 .2-.5-.05-.35-.05-.05q-2.25-1.55-4.2-3.55l-.95-1 .4 2.55q.4 3.35.15 5-.65 4.4-4.75 7.25-2.2 1.55-4.55 1.75-2.85.2-5.65-1.55Q1.95 36.4.5 34.5l-.2-.25v-23.2l.2-.15q.8-.55 1.7-.85l3.25-.15q1.4.4 2.55 1.6 1.05 1.15 1.5 2.65l.1.25.1.25q.9 1.75.8 4.2-.05 1.85-.75 4.25l-.8 3.6q-.3 2.6.85 5l.25.2v.3q-.15.3-.6.2l-.55-.3q-1.25-1-1.75-2.05-.45-.85-.7-2.3L6.1 29.6q0 1.35.5 2.35l1.2 1.6 1.05.7 1.4-.2q1.6-.6 2.8-1.95 1.15-1.35 1.5-3.05l.1-2.95q-.1-2.45-.55-4.3L13 18.75l-1.15-3.1q-.35-1.2-.4-2.35-1.15-2.3-.95-4.45.2-2.25 1.8-4 1.65-1.75 3.85-2.15 2.1-.3 3.8.65 1.55.9 2 2.45.45-.45 1.05-.7l1.15-.2 1.25.1q1.3.25 2.2 1.1l1.15-.55 5.3-.45 3.05.6.5-.2q3.75-1 6.25-.95 2.65.1 4.7 1.15l2.5-.4 1.9.05q1.1.2 1.7 1.1.15-.75.6-1.5.8-1.4 2.25-1.95l3-.2q1.55.35 2.65 1.45 2.15 2.05 1.95 5.8-.2 3.2-2.45 6.75l-4.75 5.5-4.1 4.3-.05.05q2.15.5 4.15-.8 1.45-1 2.6-3l2.65-5.7q1.55-3.45 3.3-5.15 1.55-1.55 3.25-1.95l2.9.1q1.45.4 2.6 1.4zm-32 29.3q-.95.8-2.1.15h-.1l-1.2-.05-.1-.1q-.3-.4-.2-.95l.3-1.05.05-.15-1.75-.1-1.4-.4-.25-.15-1.65.7-.2.1.05.2.1.9-.05.35-.15.55-.25.3q-.6.7-1.65.6l-.95-.45-.3-.3-.1-.15-.35-.65-.15-.5v-.35l-.1-.5v-.4l-.5-.3q-.8-.65-.65-1.75.3-1.1 1.35-1.2l.75.1 1.7-.35.45-.15-1.1-.3-1-1-1.25-1.65-.7-1.35q-.15-.55-.05-1.2l.1-.45.7-.7 1-.1.6.3.4.3-.7-1.05-.35-.8q-.15-1.05.75-1.55 1.25-.4 2.2.4l2 2.2.75-.65-1.2-.8-.5-.65-.3-.45-.55-1.4q-.25-.95-.35-2.2l.2-1.6q.25-.85 1.05-1.1.75-.2 1.45.3l1 1.2 1 2.05.15.45.85.6 2.25 1.3.9.7.4 1v.2q1-.3 1.8.4 1.1.9.85 2.2l-.85 1.7-1.5 2.1-.2.25 1.1.55q.85.75.75 1.85-.05.7-.5 1.25.1.5-.2 1.05l-.6 1.2q-.25.9-.8 1.35zm11-31.7-.05.25.35.75q.8 1.95 1 3.95l.45-1.35q.05-.7-.3-1.55L55.4 10l-.2-.45zm-39.3-1.15q-.15.7 0 1.35l.15-.1.5-1.25.6-1.1-.7.35-.3.25zm5.1 1.8-1.3 2.05.4.75.4-1 .65-1.2.15-.1-.05-.85z"/><path fill="none" stroke="#8c5a5a" stroke-linecap="round" stroke-linejoin="round" d="M.5 10.9V.5h75.55m0 41.2h-19m-4.35 0h-8.65m-3.5 0H35.4m-3.25 0H22.5m-3.85 0H.5v-7.2"/><path fill="#999" fill-rule="evenodd" d="M55.15 13.2q.9 2.2 1 4.05 1.35-1.8 2.15-3.9l.2-.9-.6-1.1Q56.45 9.5 56.1 8.4q-.65-2 .4-3.3 1.1-1.25 2.85-1.15 1.35.05 2.45.85t1.65 1.9l.7 1.75q.35 2.65-.75 4.35l-1.3 2.1q-3.35 5.6-7.2 8.9-2.1 1.8-3.9 2.7-.25.1-.55.25 1.8 1.15 3.2 3.55.6.95 1.8 3.85l.65 1.8.35 1.8.1 2.55-.15 1.8-.05.2h-14.6l.05-.7.7-1.4 1.1-2.1-1.3.15-1.65.05-2.5-.35q-1.45-.55-1.9-1.55-.55-1.05-.2-2.35.2-.9 1.1-2.15 1.55-2.1 4.65-4.45l-.45-.1-1.7-.5q-3.05-1.2-4.85-4.6-1.5-2.95-1.35-6.65l.1-1.7-1.5-3.2q-.15-.9.2-1.55.45-.75 1.3-.85l2.1.35.1.05.4-.45q.35-.4 1.05-.85 2.45-1.55 5.95-1.55 2.6.05 6 1.3l2.2-.8 2.05.05q.5.35.8 1.15L54.35 9l.05 2.5v.2zm-16.4 5.05q.65 1.6 2.35 1.85 1.75.15 2.75-1.3.7-1.05.35-2.35l-.25-.65-3.6-.15-.85-.3-.1-.1q-.75.7-.8 1.85-.1.6.15 1.15m4.9 3.5q.1.45.55.6h.85q1.5-.3 2.3-1.7l.1-.15h.4l2.1-.1.65-.2.35-.2.15-.3-.15-.35-.35-.15q-.75-.4-1.15-.5l-1.15-.2-1.2-.25q-.6.1-.9.75v.1l-.2.35-.25.2-.7.45-.75.55q-.7.6-.65 1.1m9.8-7.9q-.35-.75-1.1-1.2-.65-.45-1.4-.5l-.2.25L49 14.05l-1 .75q-.05.4.05.8.15.9.75 1.5t1.5.75l1.65-.15q.75-.35 1.25-1.05.5-.75.5-1.6l-.1-.75zm-10 18.75q.5-.7 1.2-.95l-.3-1.85-.7 1-2.55 3.1q1.4-.1 1.85-.55z"/><path fill="#fff" fill-rule="evenodd" d="m53.45 13.85.15.45.1.75q0 .85-.5 1.6-.5.7-1.25 1.05l-1.65.15q-.9-.15-1.5-.75t-.75-1.5q-.1-.4-.05-.8l1-.75 1.75-1.65.2-.25q.75.05 1.4.5.75.45 1.1 1.2m-9.8 7.9q-.05-.5.65-1.1l.75-.55.7-.45.25-.2.2-.35V19q.3-.65.9-.75l1.2.25 1.15.2q.4.1 1.15.5l.35.15.15.35-.15.3-.35.2-.65.2-2.1.1h-.4l-.1.15q-.8 1.4-2.3 1.7h-.85q-.45-.15-.55-.6m-4.9-3.5q-.25-.55-.15-1.15.05-1.15.8-1.85l.1.1.85.3 3.6.15.25.65q.35 1.3-.35 2.35-1 1.45-2.75 1.3-1.7-.25-2.35-1.85"/><path fill-rule="evenodd" d="m21.15 13.2.75-1.5v-.2l.05-2.5.15-1.45q.3-.8.8-1.15l2.05-.05 2.2.8q3.4-1.25 6-1.3 3.5 0 5.95 1.55l1.05.85.4.45.1-.05 2.1-.35q.85.1 1.3.85.35.65.2 1.55l-1.5 3.2.1 1.7q.15 3.7-1.35 6.65-1.8 3.4-4.85 4.6l-1.7.5-.45.1q3.1 2.35 4.65 4.45.9 1.25 1.1 2.15.35 1.3-.2 2.35-.45 1-1.9 1.55l-2.5.35-1.65-.05-1.3-.15 1.1 2.1.7 1.4.05.7h-14.6l-.05-.2-.15-1.8.1-2.55.35-1.8.65-1.8 1.8-3.85q1.4-2.4 3.2-3.55l-.55-.25q-1.8-.9-3.9-2.7-3.85-3.3-7.2-8.9l-1.3-2.1q-1.1-1.7-.75-4.35l.7-1.75q.55-1.1 1.65-1.9t2.45-.85q1.75-.1 2.85 1.15 1.05 1.3.4 3.3-.35 1.1-1.8 2.95-.55.65-.6 1.1l.2.9q.8 2.1 2.15 3.9.1-1.85 1-4.05m11.45 3.4.2.7 2.6 1.25.55.4.5-.15q1.5-.75 1.6-2.4.1-1.3-.85-2.1l-1 .35-2.55.75-.9-.05q-.2.55-.15 1.25m-3.25 3.45.95.55 1.1.35q.7.1 1.05-.35l.15-.55-.05-.1-.65-.4-.6-.5-.3-.2q-1.05-.9-1.35-1.6l-.6-.15q-.35.05-1.15.6l-2.2 1.15-.35.4q-.1.3.3.7.7.5 1.7.4.7-.1 1.65-.6h.05zM21.55 15q.1 1.45 1.25 2.25 1.25.8 2.6.25 1.35-.6 1.65-1.95l.1-.75-2-.7q-1.25-.6-1.65-1.3l-.15-.4h-.05q-1.05.4-1.55 1.55zm11.3 17.6.5.75q.45.45 1.85.55l-2.55-3.1-.7-1-.3 1.85q.7.25 1.2.95"/><path fill="#fff" fill-rule="evenodd" d="m21.55 15 .2-1.05q.5-1.15 1.55-1.55h.05l.15.4q.4.7 1.65 1.3l2 .7-.1.75q-.3 1.35-1.65 1.95-1.35.55-2.6-.25-1.15-.8-1.25-2.25m7.8 5.05-.3-.3H29q-.95.5-1.65.6-1 .1-1.7-.4-.4-.4-.3-.7l.35-.4 2.2-1.15q.8-.55 1.15-.6l.6.15q.3.7 1.35 1.6l.3.2.6.5.65.4.05.1-.15.55q-.35.45-1.05.35l-1.1-.35zm3.25-3.45q-.05-.7.15-1.25l.9.05 2.55-.75 1-.35q.95.8.85 2.1-.1 1.65-1.6 2.4l-.5.15-.55-.4-2.6-1.25z"/></svg>