<svg xmlns="http://www.w3.org/2000/svg" xmlns:ffdec="https://www.free-decompiler.com/flash" ffdec:objectType="shape" width="76.6" height="42.95"><g fill-rule="evenodd"><path d="m57.15 41.5-1.3.75q-1.1.35-2-.4l-.35-.35-.05-.05-.05.05q-.95.8-2.2 1.15l-4.05.3-9.55-.4-1.55.1-1.6.05q-1.4-.05-2.15-.75l-.55.25-1.7-.1-.7-.65-.05-.15-.45.15-.85.2-1.5.15-1.3-.1-.45-.25-1.25-.55.8-.5 1.2-.55 5.7-2.55 1.1-.9.2-.2q-2.85-1.15-5.95-3.6-4.3-3.45-5.4-6.8-.55-1.7-.55-3.9 0-2.45.6-4.75l-.15.05-3.25 1.5-4.7.3q-2.55-.75-3.65-2.85-1.15-2.2-.25-5.45l.25-2-.2-.25q-.6-.7-.65-1.3l-.4-.25-1.5-.45q-.95-.4-.95-1.15 0-.45.45-.85l.5-.35 3.1-.2 1.2.5q.75.4 1.45 1.1 1.05 1 1.55 2.1l.15.3.35 1.1.2 1q.15.6.45.9.75.85 2.25.35l1.5-.6 1.5-.75q2.35-1.05 4.25-.9l1.1.15q2.9-3.1 7.05-4.8 3.15-1.25 6.55-1.4 3.45-.1 6.55.95l1.15.45q1.95.85 3.55 2.1 2.55-.05 4.55.75l1.25.5q.75.25 1.25 0l.75-.65.65-.85.8-.65 1-1.25.25-.25q.65-.6 1.4-.95.9-.6 2.2-.6l1.8.15q1.05.25 1.5.9l.05.1.2.25.15.4-.1.55-.6.7-1.5.2-1.5.4q-.6.45-.8 1.1l-.1 2q0 2.5-1.4 3.95-1.2 1.25-3.1 1.5l-3.45-.35.1.45q.75 3.15.3 6.35l-.4 2 .25.3q2.55 3.45 3.15 7.75.5 3.15-.25 6.25l-.7 2.1zm14.3-28.3-1.1 1.1-2.95 2.05q-.8.5-1.15.85l-.45.55-.7.5-.85.35-1.45-.2q-.7-.35-1.05-1t-.15-1.45.8-1.25l.6-.3 1.1-.4.8-.15 4.3-1.45.75-.2.7-.45.9.15q.4.4.2.85zm-.9 5 1.25.05 1 .45.2.45-.2.4-.05.05-.45.15-.5.4-1.55.7-1.25.35q-.8 0-1.2-.65t-.05-1.35q.4-.65 1.25-.85zm-.1 6.95.45.15.65.4.7.95q.25.75-.35 1.25-.5.5-1.3.25l-.4-.2-.8-.05-1.25-.35-2.25-.1-2.2-.65q-.6-.45-.85-1.2-.2-.8 0-1.5.25-.7.95-1.15.65-.45 1.4-.45l.7.15 1.95.8.95.55 1.15.7zM56.05 4.6l-.65.8-1 .25-.9-.4q-.45-.4-.55-.9-.1-.65.25-1.15l.85-.9.85-.85 1.1-.1q.3.2.4.7v.85l-.15 1zm12.7 28.65q-.65-.25-.95-.8-.55-.85.05-1.8.6-.85 1.6-.7.5.1 1.1.6l1.05.7.8.4.3.2.35.4q.25.5-.15.85l-.2.1h-.4l-2.3.15zm-.05 4.15-.8.1-1.55.35-.85.25-1 .1q-1.1-.15-1.7-.75l-.4-.45q-.4-.6-.35-1.35.05-.8.5-1.35 1.1-1.25 2.65-.85l1.2.45 2.75.5 1.05.25 1.3.75q.7.8.2 1.45l-.55.4-.85.15-.9-.05zM28.05 5.1q-.1.5-.55.8l-.9.3q-.8 0-1.25-.7L25 4.45l-.05-.15-.1-.9q0-.6.35-.95.5-.55 1.25-.3l.9.9L28 4.3zm-7.3 2.75q-1.5-.1-2.2-1.7l-.4-1.1-.2-.8-.05-.4q0-.7.6-1.05h.85q1.5.25 2.6 1.45l.2.25.5.95q.15 1-.35 1.65-.6.75-1.55.75M3.3 19.45 3 18.6q0-.8.75-1.05l.5-.15.65-.2q1.55-.45 3 .25l.45.25q.7.55.8 1.5.1.9-.6 1.65-1 .95-2.5.5l-.5-.2zm2.2 6q.25-.2.85-.4l.8-.3.85-.65q.35-.3.85-.45l.75-.2 1.35-.1q.7.1 1.3.6.55.55.65 1.25t-.3 1.35q-.35.7-1.05.9l-1.4.25-1.05.1-.75-.2-.8-.2-1.4.05-.9-.25-.45-.1-.35-.1-.25-.45.2-.45.5-.25zm13.05.05q.75.45.85 1.25.1.9-.55 1.45-.5.4-1.25.5L15 29l-.95-.05q-.55-.2-.65-.65-.1-.6.75-1.25 1.8-1.3 2.7-1.55 1.05-.3 1.7 0M8.8 36.45l-.45.25-1.55.6-.5.25-.8-.05-.05-.05q-.35-.25-.35-.65-.05-.55.65-1.25l1.45-1.5.4-.85.5-.65.8-.8 1.25-.95 1.6-.1q.8.2 1.3.85.45.65.4 1.5l-.55 1.45-1.5 1-1.15.55-.85.3zM20 33.9l.2.35.2.25q.25.8-.15 1.55l-.4.5-.6.4-.7.15-1.9.8-.8.4q-.35.1-.7-.25l-.2-.5v-.2q.1-.4.35-.6l.5-.55.3-.75.65-.65.2-.4q.4-.9 1.4-1.05.95-.15 1.65.55"/><path fill="#717171" d="M24.75 41.45h-.05l-6.25-.05H12l-.6.05h-.7l-1.5.05H4.4l-.4-.05h-.4l-.3-.05-.25-.05-.3-.1-.15-.1h-.05l-.25-.05-.15-.05-.2-.05-.2-.1-.2-.05-.15-.1-.05-.1-.1-.1-.1-.1-.1-.05-.1-.1-.05-.1-.05-.1L.8 40l-.05-.05v-.1l-.1-.1v-.2L.6 39.5v-.4l-.05-.05v-.85l-.05-.05v-13.6l.05-.1v-1.6l.05-.1v-1.9l.05-.1V11.6l.05-.1V9.55l.05-.1v-3.6l.05-.1v-1.7l.05-.1v-.2L.8 3.7l-.1-.05-.1-.1-.05-.1-.05-.1-.1-.1-.05-.05-.05-.1L.2 3v-.1l-.05-.1v-.05l-.05-.1-.05-.1V2.2L0 2.1.05 2v-.45l.05-.1.05-.05v-.1l.05-.1.05-.1L.3 1 .35.95l.1-.1.05-.1.1-.1.05-.1L.8.5.9.4l.15-.1.15-.1.2-.1.25-.05h.45V0h.2l.35.05h.75L4.15 0h5.3l1.4.05h.55l.75.05h.9l.7.05L15.3.2h.85L29 .15 30.85.1h1.1L33.8.05h2.75l16.3.05H56l3.9.05 5.85.05h1.8l.75-.05h.3l.5.05h.5l.35.05h2.35l.15-.05.15-.05.15-.05h.65l.15.05.2.05.2.1.15.1.15.1.15.05.1.1.1.1.05.1.1.1.05.05.05.1.05.1.05.1.05.1.05.05.05.1v.2l.05.05.2.1.2.1.1.05.1.1.1.1.1.1.1.1.05.05.05.1.05.1.1.1.05.1v.05l.1.1v.1l.05.1v.15l.05.1v.3l.05.05v.1l-.05.1V6.1l-.05.1v.9l-.05.1v16.1l.05.1v12.85l-.05.1v1.15l-.05.1v.35l-.05.1v.55l-.05.05v.45l-.05.1v.1l-.05.1v.1l-.05.05v.1l-.05.1-.05.1-.05.1V40l-.1.1-.05.1-.05.1-.1.1-.1.05-.05.1-.15.1-.15.1-.15.1-.2.05h-.1l-.3.05h-.15l-.15.1-.1.1-.15.05-.2.1-.2.05-.15.05-.35.05H72l-.4.05h-1.55l-.25-.05h-3.85l-.35.05h-8.45l1.15-1.95.7-2.1q.75-3.1.25-6.25-.6-4.3-3.15-7.75l-.25-.3.4-2q.45-3.2-.3-6.35l-.1-.45 3.45.35q1.9-.25 3.1-1.5 1.4-1.45 1.4-3.95l.1-2q.2-.65.8-1.1l1.5-.4 1.5-.2.6-.7.1-.55-.15-.4-.2-.25-.05-.1q-.45-.65-1.5-.9l-1.8-.15q-1.3 0-2.2.6-.75.35-1.4.95l-.25.25-1 1.25-.8.65-.65.85-.75.65q-.5.25-1.25 0l-1.25-.5q-2-.8-4.55-.75-1.6-1.25-3.55-2.1L45.9 3.9q-3.1-1.05-6.55-.95-3.4.15-6.55 1.4-4.15 1.7-7.05 4.8L24.65 9q-1.9-.15-4.25.9l-1.5.75-1.5.6q-1.5.5-2.25-.35-.3-.3-.45-.9l-.2-1-.35-1.1-.15-.3q-.5-1.1-1.55-2.1-.7-.7-1.45-1.1l-1.2-.5-3.1.2-.5.35q-.45.4-.45.85 0 .75.95 1.15l1.5.45.4.25q.05.6.65 1.3l.2.25-.25 2q-.9 3.25.25 5.45 1.1 2.1 3.65 2.85l4.7-.3 3.25-1.5.15-.05q-.6 2.3-.6 4.75 0 2.2.55 3.9 1.1 3.35 5.4 6.8 3.1 2.45 5.95 3.6l-.2.2-1.1.9-5.7 2.55-1.2.55-.8.5zm28.75.05h-.1l.05-.05zm-24.15-.05h-.5l.45-.15zM20 33.9q-.7-.7-1.65-.55-1 .15-1.4 1.05l-.2.4-.65.65-.3.75-.5.55q-.25.2-.35.6v.2l.2.5q.35.35.7.25l.8-.4 1.9-.8.7-.15.6-.4.4-.5q.4-.75.15-1.55l-.2-.25zM8.8 36.45l.6-.1.85-.3 1.15-.55 1.5-1 .55-1.45q.05-.85-.4-1.5-.5-.65-1.3-.85l-1.6.1-1.25.95-.8.8-.5.65-.4.85-1.45 1.5q-.7.7-.65 1.25 0 .4.35.65l.05.05.8.05.5-.25 1.55-.6zm9.75-10.95q-.65-.3-1.7 0-.9.25-2.7 1.55-.85.65-.75 1.25.1.45.65.65L15 29l2.6-.3q.75-.1 1.25-.5.65-.55.55-1.45-.1-.8-.85-1.25M5.5 25.45l-.6.4-.5.25-.2.45.25.45.35.1.45.1.9.25 1.4-.05.8.2.75.2 1.05-.1 1.4-.25q.7-.2 1.05-.9.4-.65.3-1.35t-.65-1.25q-.6-.5-1.3-.6l-1.35.1-.75.2q-.5.15-.85.45l-.85.65-.8.3q-.6.2-.85.4m-2.2-6 2.25 1.7.5.2q1.5.45 2.5-.5.7-.75.6-1.65-.1-.95-.8-1.5l-.45-.25q-1.45-.7-3-.25l-.65.2-.5.15Q3 17.8 3 18.6zm17.45-11.6q.95 0 1.55-.75.5-.65.35-1.65l-.5-.95-.2-.25q-1.1-1.2-2.6-1.45h-.85q-.6.35-.6 1.05l.05.4.2.8.4 1.1q.7 1.6 2.2 1.7m7.3-2.75L28 4.3l-.65-1.25-.9-.9q-.75-.25-1.25.3-.35.35-.35.95l.1.9.05.15.35 1.05q.45.7 1.25.7l.9-.3q.45-.3.55-.8M68.7 37.4l.7-.05.9.05.85-.15.55-.4q.5-.65-.2-1.45l-1.3-.75-1.05-.25-2.75-.5-1.2-.45q-1.55-.4-2.65.85-.45.55-.5 1.35-.05.75.35 1.35l.4.45q.6.6 1.7.75l1-.1.85-.25 1.55-.35zm.05-4.15 1.25.1 2.3-.15h.4l.2-.1q.4-.35.15-.85l-.35-.4-.3-.2-.8-.4-1.05-.7q-.6-.5-1.1-.6-1-.15-1.6.7-.6.95-.05 1.8.3.55.95.8M56.05 4.6l.2-.7.15-1v-.85q-.1-.5-.4-.7l-1.1.1-.85.85-.85.9q-.35.5-.25 1.15.1.5.55.9l.9.4 1-.25zm14.4 20.55-.5-.45-1.15-.7-.95-.55-1.95-.8-.7-.15q-.75 0-1.4.45-.7.45-.95 1.15-.2.7 0 1.5.25.75.85 1.2l2.2.65 2.25.1 1.25.35.8.05.4.2q.8.25 1.3-.25.6-.5.35-1.25l-.7-.95-.65-.4zm.1-6.95-1.55.15q-.85.2-1.25.85-.35.7.05 1.35t1.2.65l1.25-.35 1.55-.7.5-.4.45-.15.05-.05.2-.4-.2-.45-1-.45zm.9-5 .3-.45q.2-.45-.2-.85l-.9-.15-.7.45-.75.2-4.3 1.45-.8.15-1.1.4-.6.3q-.6.45-.8 1.25t.15 1.45 1.05 1l1.45.2.85-.35.7-.5.45-.55q.35-.35 1.15-.85l2.95-2.05z"/><path d="m39.6 20.5-.6.15q-1 .2-1.65-.3-.95-.65-.45-1.55.15-.4.95-.8l2.9-1.6q4.1-2.2 5.8-3.9l1.3-1.1 1.6.05q.65.45.35 1.4l-.75 1.35-.75.9 1.25 2.75.2.6.05 1.55-.15 1.15-.4.8-.5.65-.9.05-.55-.3-.05-.1q-.15-.35-.15-1.1l-.35-1.4-.35-.75-.9-1.75-3.6 2.05-1.25.65zm4.85 4.65.1-.25.55-.95.7-.15.7.3.35.45.55.8 1.9 2.4.2-.45.4-.8 1-1.55.1-.15.55-.8 1-.1.65.7q.15.6-.2 1.4l-.2.25-1.4 2.1-.2.5-.25.45-.35.6-.55.65-.7.4q-.4 0-.65-.25l-.15-.4-.35-.25-.15-.25-.45-.7-.6-.65-1.45-1.8q-1.2 1.65-1.5 3.7l-.05.3-.3.85-.65.45q-.65.05-1.25-.55l-.25-.35-.65-.75-1.25-.95-1.15-1.3-.05.1-.6.95-.7 1.8-.15.55-.15.75q-.3.8-.95.85l-.95-.45-1.05-.95-.2-.2-.35-.45-.95-1-.2-.1-.1.15-.55 1.8-.25.65-.3.6-.6.2q-.35 0-.55-.3-.25-.3-.15-.95l.05-.35 1-2.95.2-.55v-.1l.05-.45q.1-.65.8-.75.6-.15 1.15.3l.05.05.55.65.95.8.75.9.1.15.2-.25.55-1.6.7-1.3.3-.55.6-.8q.55-.3 1.05 0l.3.15.9.65.5.55.5.5 1.05.7.75 1q.4-1.5 1.2-2.75zm-19.5-3.3-.65-.05-1.35-.25-.5-.45-.05-.65.4-.45q.6-.45 1.15-.55l3.8-.75 2.9-.45 2.8-.35q1.45-.5 1.8-.45.55.05.95.4l.45.9-.25 1.2q-.6 1.05-1.85 1.5l-2.35.5-3 .15q-.3.7-.3 2.25l-.05.35.05.3.1 1.4-.25.9q-.8.1-1.35-.45l-.25-.35-.75-1q-.15-.35-.15-1.5l-.35-2.1z"/><path fill="#fff" d="M48.3 15.1q1.6-.3 3.4.05.65.1.9.35l.35.6q.3.9-.25 2.05l-1.35 1.6-1.7 1.4.15-1.15-.05-1.55-.2-.6zm-1.05 7.15-.55.05-5.15-.2q-1.1-.4-1.5-.8t-.45-.8l1.05-.55 1.25-.65 3.6-2.05.9 1.75.35.75.35 1.4q0 .75.15 1.1m-.4 2.3 2.45.05 1.6.35-1 1.55-.4.8-.2.45-1.9-2.4zM53 26l.25.25q.95 1 .65 2-.3.85-1.25 1.2l-2.05.45.35-.6.25-.45.2-.5 1.4-2.1zm-4.8 4.05-2.95.35-1.25.25.05-.3q.3-2.05 1.5-3.7l1.45 1.8.6.65.45.7zm-6.65 1-.55.05-4 .35.15-.55.7-1.8.6-.95.05-.1 1.15 1.3 1.25.95zm-7.65.6-2.35.2.55-1.8.1-.15.2.1.95 1 .35.45zm-4.2.4-.7-.1-.5-.6q-.15-.45 0-.85.15-.55 1-1.3l1.45-1-.2.55-1 2.95zm3.3-4.8q1.8-.65 3.8-.65l-.7 1.3-.55 1.6-.2.25-.1-.15-.75-.9-.95-.8zm7.45-.65 2.55-.85 1.45-.6-.5.9q-.8 1.25-1.2 2.75l-.75-1-1.05-.7zm-5.9-5.15-.1.85q-.4 1.15-1.25 1.9L31 25.6l-1.45.65-.55.15-.1-1.4-.05-.3.05-.35q0-1.55.3-2.25l3-.15zm-7.4 5.05h-.25l-1.1-.05-.9-.25-1.3-.6q-.7-.45-.85-1.15l.05-.75.45-1.1q.35-.4 1.45-.7l.25-.05.95.05.35 2.1q0 1.15.15 1.5z"/></g></svg>