<svg xmlns="http://www.w3.org/2000/svg" xmlns:ffdec="https://www.free-decompiler.com/flash" ffdec:objectType="shape" width="73.65" height="43.85"><g fill-rule="evenodd"><path fill="#999" d="M2.05 9.15 1.2 8.9l-.55-.75Q.4 7.35.9 6.3q.9-2.05 3.45-3.25 1.4-.65 4.7-1.15 6.75-.9 11 .2 2.8.75 5 2.4 2.35 1.75 3.45 4.2.55 1.2.9 3.2v.8l-.55.5q-.4.05-.85-.7-1.6-3.15-2.55-4.15-2.15-2.15-6.85-3-6-1.15-10.4-.1Q5 6 3.65 7.7l-.7.95q-.4.45-.9.5m26.4-5.45-1.25-.8q-.75-.75-.4-1.75Q27.15.2 28.2 0q1-.1 2.15.85 3.65 2.85 4.5 7.5.2 1.1 0 1.8l-.25.5-.55.1-.4-.55q-.8-2.05-1.55-3.05L30.85 5.7q-1.5-1.5-2.4-2m28.5 27.35q-.2-.3.05-.65l.55-.4 3.15-.55 1.55-.05.25.15.4-.3q-.25-.95.3-2.55l.45-1.45q.3-.8.2-1.3-.05-.75-1.15-1.65-1.1-1-1.85-.8l.25.1q.45.2.65 1.1.4 1.55.2 2.3l-.35.7-.55.2-.95.05q-.6-.2-.55-.7.1-.55.7-.55l-.15-1-.45-.95-.2.65-.2 1.8-.55 1.65-.25.55.05.7v.1l.05-.05 3.95-.5.1.25-.1.2-.25.1-2.35.35-.85.15-.75.15-.25-.05-.55.15q-.65.45-1.4.35-1.45-.15-2.2-1.7-.5-1-.6-2.9-.05-2.55.55-4.2l-.5-.65q-.2-.5-.05-1.1.3-1.25 1.4-1.55l-.15-.15q-1.2-1.2-1.3-2-.15-.9.65-2.4l1.25-2.2q.3-.4.9-.8L56 9.2q.1-1.15 1.3-1.7l1.3-.1q.65.2.9.65l1.5-.2q1.85 0 3.5.95 1.65.9 2.65 2.45l1.1-.95.5-1.15-.25-.9Q67.8 7 66.7 6.2l-1.1-.95q-.2-.5-.1-1.2.25-1.15.85-1.75l.1-.05q.7-1.15 2.4-1.7l1.3-.1q.8.2.8.85.15.9-1.3 1.35-1.45.5-1.55 1.25-.05.7.7 1.2l1.3.6q1.7.95 2.05 3.05.3 1.75-.7 3.65-1.35 2.55-3.5 2.7-1.9.15-3.85-2-1.75-1.75-2.8-1.45-.5.1-1.1.8-.9 1.1-.65 1.95.15.6.8 1.05l.3-.35q.35-.35.9-.4l1 .15q1 .5.9 1.5 1.6.4 3.05 1.55l.05-.05 1.3-.05.55.1.8.5.4.45.25.45q.45.95.2 2.05l-.55 1.3q.3 1.4.05 2.8-.3 1.9-1.45 3.2l-.15.85q-.25 1.25-1 1.85-.85.75-2.25.45l-1.1-.6-.9.15h-.05l-.3.2-1.05.2-3.85-.4zM73.55 5.5q-.45.65-1.15.45-.75-.25-.65-1.05.1-.7.85-.8l.1-.05q.75.1.9.75zM72.45 19l-.4.25-.65-.05-.4-.35-.15-.55q.1-.65.55-.8l1 .1.3.7zm.15 5.05.65.25.35.65-.2.7-.65.4-.65-.1-.2-.2-.3-.5q-.1-.5.2-.8.25-.4.75-.4zM60.4 5.35q.05-.35.45-.55l.75-.05.35.2.1.15.15.45-.35.75-.45.2q-.45 0-.7-.2-.35-.35-.35-.7zM54 9.3q.35.35.25.85l-.5.75q-.5.25-1 0-.5-.35-.5-.9l.1-.55q.35-.65 1.1-.45.25 0 .55.3m15.5 21.25-.9-.75q-.3-.55-.2-1.1t.45-.9q.35-.4.85-.5 1.2-.25 1.8.75l.25 1-.4.95q-.75.9-1.85.55M.35 15.25q-.05-1.85 1.7-3.8 2.65-3.1 6.25-3.6L10 7.7l1.7-.05 3.45-.3q1.75 0 5.15 1.1l2.2.85q1.8.95 3.3 3.35 1 1.7 1.1 2.8.25 1.75-.75 2.9l-.35.2q-.3 0-.3-.35l.1-.55q.45-1.55-.95-3.45-1.25-1.75-3.2-2.85t-4.15-1.3l-2.6.05-4.15.35-2.65.5q-1.55.55-3.15 2.15L2.05 16q-.4.5-.8.5-.9 0-.9-1.25m.3 5.7q.65-1.65 2.15-3.6 1.75-2.25 3.25-3.2 3.15-2.05 8.75-1.8 2.45.1 3.85.6 1.4.4 2.8 1.5 2.95 2.35 4.1 5.85.65 1.9.6 3.8.85 2.25.6 4.15-.3 1.85-1.6 3.65-2.65 3.7-7.25 5.3-4.1 1.5-9 1.15-2.85-.2-4.5-1.1-1.65-.95-2.55-2.75t-.6-3.7l.1-.4-.1-.5L1 28.45.4 27.1q-.5-1.1-.4-3 .15-1.75.65-3.15m20.5 6.85q.8-1 1.1-2.95l.15-1.9-.4-1.65-.6-1.45-1-1.15-1.55-1.25-1.65-.6-6.1.35q-1.35.35-2.15.85-.95.6-2.4 2.35-1.05 1.25-1.4 1.95-.3.55-.85 2.5-.55 2.25-.5 3.75.2 2.2 1.6 3.35 1 .7 3.15 1l2.6.25 2.4-.35q3.55-.7 4.8-1.95-.75 0-.7-.45 0-.15.3-.35l1.7-1zM10.35 23l.05-.6q.15-.55.65-.9.55-.3 1.1-.25.55.1 1 .55.4.45.4 1l-.35 1.05q-.4.5-.95.6l-1.05-.2q-.55-.3-.75-.8zM12 25l.7-.35 1.8.1.75.25.6.7.3.9.1.75-.15.9-.3.75-.7.25-.2-.05-.25.2q-.4.4-.95.45l-1-.2-.6-.45-.35-.35-.5-.95v-.1l-.35-.1-.35.05-.85.35q-.25.2-.45 1.05-.15.7-.7 1.15l-.85.25-.85-.25-.5-.75-.05-.5.3-1.05.9-1.05.4-.25.45-.2q.95-.4 1.65-.45l1.2.25.1.05q.15-.9.7-1.35m-3.5-.3-.25.35L7.4 25l-.2-.5q0-.35.4-.55l.7.1.1.15zm20.9-3.2q1.9 3.55.6 9.65l-.7 2.5q-.9 2.2-2.6 4-2.8 3.05-7 4.7-3.95 1.55-8.35 1.5-5.75-.1-9.2-2.85l-.55-.7q-.25-.6.25-.75l.75.1q4.7 2.1 10 1.75t9.65-3.05q2.45-1.55 4.05-3.5 4-5.1 3.1-13.35"/><path d="m22.95 31.95.8-.3q1-.6 3-1.65l-.7-.4q-1.65-1-2.5-2.4-1.45-2.3-1-6.05.6-4.75 3.15-8.5l-.05-.35-.45-4.35q-.1-1.15.05-1.65.15-.6.65-1.05.5-.4 1.1-.45l1.2.1 1.75.4 2.4.8.35.15 1-.7 2.3-1.4q1.05-.55 2.15-.75l.45-.1h.4l.45.1q1.1.2 2.15.75l2.3 1.4 1 .7.35-.15 2.4-.8 1.75-.4 1.2-.1q.6.05 1.1.45.5.45.65 1.05l.05 1.65-.45 4.35-.05.35q2.55 3.75 3.15 8.5.45 3.75-1 6.05-.85 1.4-2.5 2.4l-.7.4 3 1.65.8.3.65-.15q-.2-.6.05-1.4.15-.4 1.25-1.9l1.95-3.55.4-1.5q.05-.75-.6-1.7t-.6-1.35q.15-.55.8-.75l1.1.1.95.3q2.05.9 2.9 2.85.8 1.7.55 4l-.8 2.9-1.1 2.05-.35.7q.75.9.75 2 .05 1.9-1.7 3.05-1.5 1-3.5.75h-.25l-.35.6-1.05 1.2-1.2.15q-.7-.15-1.05-.65-.85-1.1-.05-2.3l.3-.25-3.45-2.45-.6-.5.05.1 1.6 3.45 1.5 3.6.35 1.45h-28.7q0-.55.35-1.45l1.5-3.6q.75-2.05 1.6-3.45l.05-.1-.6.5Q25.3 36.3 23.7 37.2q-1.85 1-3.25 1.15v.05l.05.15.25-.1.6-.1q.65.1.8.75.15.6-.4.95l-.55.3-1.9.55-.75.1q-.4-.05-.65-.45-.15-.45.05-.8t.65-.55l-.05-.1-.2-.8q-.85-.2-1.6-.7-1.75-1.15-1.7-3.05v-.1q-1.5-.1-2.2-1.55l-1.6-3.4-.15-.85q0-.55.25-.85.2-.4.7-.65l2.85-1.7q1.85-.85 3.9-1.15l1.3.25.4.8.4 1.7.05.85q.1 2-.3 3.15v.05q.7.2 1.45.55zM48.6 24.1l1.7-1.3.55-.7q.55-.8.45-2.15-.25-2.5-2.2-3.75-2.15-1.35-4.3-.3v.05l-.4 1.85-.55.9-1.1 1.3-.55.3.05.3.55 1.3q1.25 1.9 2.9 2.3l1.35.15zm13.6.25-.15-.45-.6-.9-.4-.3-.1 2.3-1.35 3.05-1.55 2.45 2.2.8h.2l.1-.1 1.3-2.5.15-.4.2-.95.15-1.65zm-33-.25 1.55.25 1.35-.15q1.65-.4 2.9-2.3l.55-1.3.1-.4-.5-.25L34 19l-.5-1.05-.25-1.85v-.05L33 15.9q-2.15-1.05-4.3.3-1.95 1.25-2.2 3.75-.1 1.35.45 2.15l.55.7zm-10.25 2.8-.1-.2-.05-.05-1.55.4-1.65.7h.25l.65.2.55-.05.9-.3 1.05.1h.05v-.15l-.1-.35z"/><path fill="#fff" d="m48.6 24.1-1.55.25-1.35-.15q-1.65-.4-2.9-2.3l-.55-1.3-.05-.3.55-.3 1.1-1.3.55-.9.4-1.85v-.05q2.15-1.05 4.3.3 1.95 1.25 2.2 3.75.1 1.35-.45 2.15l-.55.7zm-19.4 0-1.7-1.3-.55-.7q-.55-.8-.45-2.15.25-2.5 2.2-3.75 2.15-1.35 4.3-.3l.25.15v.05l.25 1.85L34 19l1.15.95.5.25-.1.4-.55 1.3q-1.25 1.9-2.9 2.3l-1.35.15z"/></g></svg>