<svg xmlns="http://www.w3.org/2000/svg" xmlns:ffdec="https://www.free-decompiler.com/flash" ffdec:objectType="shape" width="77.6" height="43.35"><path fill="#999" fill-rule="evenodd" d="M36.4 1h40.2v41.35H36.55v-2.8l.1-.15V38l.05-.1v-.25l.05-.1v-.85l.1-.15v-2.5l.05-.1v-1l.1-.1v-.6l.05-.15v-1.15l.1-.1V30l.05-.15v-2.3l.15.15h.15l.7.6h.15l1.8 1.7h.1l.15.15h.15l1 .9h.15l1.8 1.65.05-.05.65.65h.15l.6.55h.15l.7.6h.15l.9.85H47l.45.4.05-.05.3.3h.15l1.65 1.5h.15l.9.85h.15l.2.2h.15l.5.5.1-.05.05.05.15-.15v-.15l-.05-.1-.45-.45v-.05l-.1-.1v-.1l-.4-.45v-.1l-.9-.85v-.15L48.4 34.8l.05-.05-.45-.45v-.1l-.65-.65.1-.05-1-.9v-.15l-.65-.65v-.15l-.3-.25v-.15l-.6-.55v-.15l-2.1-1.95.1-.05-.6-.6v-.1l-1.65-1.55.05-.05-.85-.85v-.15l-.55-.5h.4l.15-.05h3.95l.1-.1h1.2l.15-.05h.25l.15-.05H47l.05-.1h2.85l.05-.05h.45l.15-.1h.75l.15-.05h1.35l.15-.05h3.1l.15-.1h.85l.05-.05h.7q.05-.1.15-.1h.65l.15-.05h.2l.15-.05h1.05q.1-.1.15-.1h1.2l.15-.05h.25l.1-.05h1.35l.15-.1h.75l.15-.05h.15l.15-.1h.6l.15-.05h.65l.15-.05h.85l.05-.1h2.9l.15-.05h1.35q.1-.1.15-.1h.7l.05-.05.15-.05h.35q.1-.1.15-.1h1.2l.1-.15.05-.05v-.2l-.15-.15-.15-.05H73.1l-.15-.1h-.2l-.15-.05h-.2l-.15-.1h-.7l-.15-.05h-1.35l-.05-.05h-.7l-.15-.1h-2.9l-.15-.05h-.65l-.15-.1h-.2l-.15-.05h-.55l-.15-.05h-.9l-.15-.1h-.5l-.15-.05H61.5l-.15-.1H60.3l-.15-.05h-.65l-.1-.05h-.8l-.15-.1h-.65l-.15-.05h-.6l-.15-.1h-.7l-.15-.05h-3.1l-.15-.05h-1.5l-.15-.1h-.2l-.15-.05h-.9l-.15-.1h-2.7L47 20.5h-1.15l-.05-.05h-.7l-.15-.1H43.8l-.15-.05h-.9l-.15-.05h-3.15l.45-.45.15-.05v-.1l.45-.4v-.15l.6-.55.15-.15.05-.05v-.15l2.2-2 .15-.15.2-.2v-.15l.8-.8.15-.1.25-.25v-.1l.8-.8.15-.1 1.05-1 .15-.15.1-.05-.1-.1.45-.4.05-.05.45-.45v-.15l.15-.1 1.05-1 .15-.05v-.2l.9-.85v-.15l.1-.05.15-.15.5-.5.05-.05.15-.15V7.8l.3-.3.15-.1.4-.35V6.9l.6-.55.15-.1.05-.1 1.05-1L54.2 5l.3-.25V4.6l.15-.15.05-.05.45-.45V3.8l.15-.1.55-.5v-.15l-.1-.05h-.3l-.45.4-.15.15-.15.15h-.1l-.3.25-.1.1-.2.2h-.15l-.25.2-.15.15-1.05.95-.05.15-.15.1-1.05.95-.2.1-.55.45h-.15l-.5.5-.15.15-.15.15h-.15l-.85.75-.05.15-.15.05-.55.5h-.15l-.4.4-.15.15-.25.2h-.15l-.2.2-.1.1-.45.4h-.15l-.15.15-1.05 1-.15.1-1.1 1.05-.15.15-.35.35h-.15l-.7.65-.2.05-2 1.9h-.15l-.25.2-.15.15-1.1 1.05v.05l-.15.05h-.15l-.55.5v-3.2l-.05-.15v-.85l-.1-.1v-1.15l-.05-.1v-.65l-.1-.05V11.1l-.05-.1V8.5l-.1-.15V7.5l-.05-.1v-.25l-.05-.1v-1.4l-.1-.15V2.55l-.05-.1V1.8l-.1-.15V1m-3.35 41.35h-19l.15-.15.15-.15.1-.05h.15l.65-.65h.15l.2-.2.15-.15 1.15-1 .15-.15.65-.65h.15l.3-.25.15-.15.35-.35h.15l.7-.65.15-.15.15-.1h.15l.9-.85.2-.05 1.05-1 .15-.15.05-.05h.15l1-.9.05.05.15-.15 1.15-1.05.15-.1.8-.8h.15l1.2-1.1h.15l.75-.7.15-.15 1.1-1.05.15-.15.35-.35h.15l.6-.55.15-.05v-.1l.1-.05h.15l.95-.9.15-.15.4-.35v.3l.05.1v3.7l.1.15v1.15l.05.1v.25l.1.1v1.25l.05.1v2.65l.1.05v.45l.05.15V38l.1.15v1.25l.05.15v2.8m-19.45 0H1v-19.2h1.35l.1.1h.8l.15.05h.7l.1.05h.6l.15.1h.15l.15.05H6l.15.1H7.5l.15.05h.2l.15.05h1.2l.15.1h1.05l.15.05h.25l.15.05h.65l.15.1h.65l.1.05h.8l.15.1h3.15l.15.05h1.35l.15.05h.7l.15.1h.45l.1.05h2.8l.1.1h1.35l.15.05h.2l.15.05h1.2l.15.1h3.95l.15.05h.6l-.55.5-.15.15-.3.25v.15l-.7.7v.1l-.15.05-.75.7v.15l-.25.2-.15.15-1.1 1.05-.15.1-.4.35v.15l-.7.7v.15l-1.65 1.55-.15.1-1.1 1.05-.1.25-.75.65v.15l-.3.3-.15.15-.35.35v.1l-.6.6-.15.1-.85.8v.15l-.2.2-.15.15-.45.4v.15l-.5.45v.15l-.15.15-1.05 1-.15.1-1.15 1.05-.15.15-.1.15v.15l-.6.55v.15l-.25.2-.15.15-.35.35zM1 21.75V1h32.2v.6l-.1.05v.8l-.05.1V5.5l-.05.15V6.9l-.1.15v.7l-.05.1v.45l-.1.05V11l-.05.1v1.25l-.1.15v.2l-.05.15v1.1l-.1.15v3.7l-.05.1v.35l-.25-.2-.05.1-.9-.85-.1.05-1.7-1.6h-.15l-.5-.5h-.15l-2.1-1.95-.1.1-.65-.65-.05.1-.3-.3h-.15l-.7-.65h-.15l-.95-.9h-.15l-.7-.6h-.15l-.35-.35h-.15l-1.55-1.5h-.15l-.9-.8h-.15l-.45-.45h-.15l-.05-.05-.15-.1-.45-.4h-.25l-.15.15v.15l.55.45v.15l.2.2-.05.1.95.9-.1.05 1.65 1.55v.15l.3.25V11l.4.35v.15l.95.9v.15l.65.65v.1l.6.55V14l.6.55v.15l1.8 1.7-.1.05 1 .9v.15l.2.2-.05.1 1.85 1.75v.1l.6.6h-2.6l-.15.05h-.9l-.15.05h-1.2l-.15.1h-.65l-.1.05h-1.1l-.1.05H19.8q-.1 0-.15.1h-.9l-.15.05h-.2l-.15.1h-1.5l-.15.05h-3.15l-.15.05h-.65q-.1 0-.15.1h-.6l-.15.05h-.65l-.15.1h-.85l-.05.05h-.7l-.15.05H8.15l-.15.1H7l-.15.05H6.3q-.05 0-.15.1h-.9l-.15.05h-.5l-.15.05H4.2l-.1.1h-.7l-.15.05H1"/><path fill="#fff" fill-rule="evenodd" d="M33.2 1V.95l.05-.15V.7h3.1v.25l.05.05v.65l.1.15v.65l.05.1V5.5l.1.15v1.4l.05.1v.25l.05.1v.85l.1.15V11l.05.1v1.05l.1.05v.65l.05.1v1.15l.1.1v.85l.05.15v3.2l.55-.5h.15l.15-.05v-.05l1.1-1.05.15-.15.25-.2h.15l2-1.9.2-.05.7-.65h.15l.35-.35.15-.15 1.1-1.05.15-.1 1.05-1 .15-.15h.15l.45-.4.1-.1.2-.2h.15l.25-.2.15-.15.4-.4h.15l.55-.5.15-.05.05-.15.85-.75h.15l.15-.15.15-.15.5-.5h.15l.55-.45.2-.1 1.05-.95.15-.1.05-.15 1.05-.95.15-.15.25-.2H54l.2-.2.1-.1.3-.25h.1l.15-.15.15-.15.45-.4h.3l.1.05v.15l-.55.5-.15.1v.15l-.45.45-.05.05-.15.15v.15l-.3.25-.15.15-1.05 1-.05.1-.15.1-.6.55v.15l-.4.35-.15.1-.3.3v.15l-.15.15-.05.05-.5.5-.15.15-.1.05V9l-.9.85v.2l-.15.05-1.05 1-.15.1v.15l-.45.45-.05.05-.45.4.1.1-.1.05-.15.15-1.05 1-.15.1-.8.8v.1l-.25.25-.15.1-.8.8v.15l-.2.2-.15.15-2.2 2v.15l-.05.05-.15.15-.6.55v.15l-.45.4v.1l-.15.05-.45.45h3.15l.15.05h.9l.15.05h1.15l.15.1h.7l.05.05H47l.05.05h2.7l.15.1h.9l.15.05h.2l.15.1h1.5l.15.05h3.1l.15.05h.7l.15.1h.6l.15.05h.65l.15.1h.8l.1.05h.65l.15.05h1.05l.15.1h1.05l.15.05h.5l.15.1h.9l.15.05h.55l.15.05h.2l.15.1h.65l.15.05h2.9l.15.1h.7l.05.05h1.35l.15.05h.7l.15.1h.2l.15.05h.2l.15.1h1.05l.15.05.15.15v.2l-.05.05-.1.15h-1.2q-.05 0-.15.1h-.35l-.15.05-.05.05h-.7q-.05 0-.15.1H70.2l-.15.05h-2.9l-.05.1h-.85l-.15.05h-.65l-.15.05h-.6l-.15.1h-.15l-.15.05h-.75l-.15.1H62l-.1.05h-.25l-.15.05h-1.2q-.05 0-.15.1H59.1l-.15.05h-.2l-.15.05h-.65q-.1 0-.15.1h-.7l-.05.05h-.85l-.15.1h-3.1l-.15.05h-1.35l-.15.05h-.75l-.15.1h-.45l-.05.05h-2.85l-.05.1h-1.35l-.15.05h-.25l-.15.05h-1.2l-.1.1h-3.95l-.15.05h-.4l.55.5v.15l.85.85-.05.05 1.65 1.55v.1l.6.6-.1.05 2.1 1.95v.15l.6.55v.15l.3.25v.15l.65.65v.15l1 .9-.1.05.65.65v.1l.45.45-.05.05 1.65 1.55v.15l.9.85v.1l.4.45v.1l.1.1v.05l.45.45.05.1v.15l-.15.15-.05-.05-.1.05-.5-.5H51l-.2-.2h-.15l-.9-.85h-.15l-1.65-1.5h-.15l-.3-.3-.05.05-.45-.4h-.15l-.9-.85h-.15l-.7-.6h-.15l-.6-.55h-.15l-.65-.65-.05.05-1.8-1.65h-.15l-1-.9h-.15l-.15-.15h-.1l-1.8-1.7h-.15l-.7-.6h-.15l-.15-.15v2.3l-.05.15v.85l-.1.1v1.15l-.05.15v.6l-.1.1v1l-.05.1v2.5l-.1.15v.85l-.05.1v.25l-.05.1v1.4l-.1.15v2.95l-.05.15v.1h-3.4v-.1l-.05-.15v-2.95L33 39.4v-1.25l-.1-.15v-.65l-.05-.15v-.45l-.1-.05v-2.65l-.05-.1V32.7l-.1-.1v-.25l-.05-.1V31.1l-.1-.15v-3.7l-.05-.1v-.3l-.4.35-.15.15-.95.9h-.15l-.1.05v.1l-.15.05-.6.55h-.15l-.35.35-.15.15-1.1 1.05-.15.15-.75.7h-.15l-1.2 1.1h-.15l-.8.8-.15.1-1.15 1.05-.15.15-.05-.05-1 .9h-.15l-.05.05-.15.15-1.05 1-.2.05-.9.85h-.15l-.15.1-.15.15-.7.65h-.15l-.35.35-.15.15-.3.25h-.15l-.65.65-.15.15-1.15 1-.15.15-.2.2h-.15l-.65.65h-.15l-.1.05-.15.15-.15.15-.3.3-.05-.1-.1.1-.05-.1v-.15l.05-.05-.05-.05.35-.35.15-.15.25-.2v-.15l.6-.55v-.15l.1-.15.15-.15 1.15-1.05.15-.1 1.05-1 .15-.15V38l.5-.45v-.15l.45-.4.15-.15.2-.2v-.15l.85-.8.15-.1.6-.6v-.1l.35-.35.15-.15.3-.3v-.15l.75-.65.1-.25L23.3 32l.15-.1 1.65-1.55v-.15l.7-.7v-.15l.4-.35.15-.1 1.1-1.05.15-.15.25-.2v-.15l.75-.7.15-.05v-.1l.7-.7v-.15l.3-.25.15-.15.55-.5h-.6l-.15-.05h-3.95l-.15-.1h-1.2l-.15-.05h-.2l-.15-.05h-1.35l-.1-.1h-2.8l-.1-.05h-.45l-.15-.1h-.7l-.15-.05h-1.35l-.15-.05h-3.15l-.15-.1h-.8l-.1-.05h-.65l-.15-.1h-.65l-.15-.05h-.25l-.15-.05H9.35l-.15-.1H8l-.15-.05h-.2l-.15-.05H6.15L6 23.5h-.75l-.15-.05h-.15l-.15-.1h-.6l-.1-.05h-.7l-.15-.05h-.8l-.1-.1H.85v-1.4h2.4l.15-.05h.7l.1-.1h.25l.15-.05h.5l.15-.05h.9q.1-.1.15-.1h.55l.15-.05h1l.15-.1H9.2l.15-.05h.7l.05-.05h.85l.15-.1h.65l.15-.05h.6q.05-.1.15-.1h.65l.15-.05h3.15l.15-.05h1.5l.15-.1h.2l.15-.05h.9q.05-.1.15-.1h2.65l.1-.05h1.1l.1-.05h.65l.15-.1h1.2l.15-.05h.9l.15-.05h2.6l-.6-.6v-.1L27.1 17.8l.05-.1-.2-.2v-.15l-1-.9.1-.05-1.8-1.7v-.15l-.6-.55v-.15l-.6-.55v-.1l-.65-.65v-.15l-.95-.9v-.15l-.4-.35v-.15l-.3-.25v-.15L19.1 8.9l.1-.05-.95-.9.05-.1-.2-.2V7.5l-.55-.45V6.9l.15-.15h.25l.45.4.15.1.05.05h.15l.45.45h.15l.9.8h.15l1.55 1.5h.15l.35.35h.15l.7.6h.15l.95.9h.15l.7.65h.15l.3.3.05-.1.65.65.1-.1 2.1 1.95h.15l.5.5h.15l1.7 1.6.1-.05.9.85.05-.1.25.2v-.35l.05-.1v-3.7l.1-.15v-1.1l.05-.15v-.2l.1-.15V11.1l.05-.1V8.35l.1-.05v-.45l.05-.1v-.7l.1-.15V5.65l.05-.15V2.55l.05-.1v-.8l.1-.05V1"/><path fill="none" stroke="#605967" stroke-linecap="round" stroke-linejoin="round" stroke-width="2" d="M36.4 1h40.2v41.35H36.55m-3.5 0h-19m-.45 0H1v-19.2m0-1.4V1h32.2"/><path fill="#999" fill-rule="evenodd" d="M36.35 18.4q1.45 1.9 1 4.45H32.3q-.45-2.55 1.05-4.45.7-.9 1.5-.75.8-.1 1.5.75"/><path fill-rule="evenodd" d="M55.5 5.35q3.95.2 7.1 2.35 2.15-.8 4.4-1.05 3 .1 2.7 3.05l-.05 2.6q.05 3.05-.85 5.9l-.1 1.1q-.3 2.3-1.35 4.4-2.15 4.3-6.55 6.05l.2.95q.25 2.25-.5 4.15l.1.2 1.15 1.25q1.25-2.9 3.15-5.45 2.65-3.6 7.15-3.6 4.1.35 5.25 4.35.85 3.1-1.4 5.15-.9.75-2.05.55-2.5-.5-2.6-2.95l-.05-.65v-1.4q-2.65.15-4.15 2.55l-1.4 2.25L64 40l-1.1 1.3-.55 1.45h-2.4l-.3-.45H43.1q-.2-.95-.05-1.95.75-5.25 4.05-9.5.8-1 1.75-1.75-4.45-2.4-5.8-7.35-.65-2.45-.35-5l.2-1.1q-1.6-2.5-1.25-5.85.1-.9.9-1.4l2.05-.2 1.15-.15 1-.05 1.1-.05q3.4-2.55 7.65-2.6m.9 15.7q-.5-.9-1.4-1.15l-.25-.15q-.75.05-1.05.75-.85 1.95-2.8 1.4l-.1-.1-.2-.05-.15.05h-.05l-.1.05-.1.2-.05.15v.1l-.05.2-.05.35.05.15.7.65q2.6 1.05 4.3-1.1 2.2 1.3 4.45.25l.15-.25.1-.2.05-.05v-.2l-.05-.1-.05-.05-.15-.1-.15-.05-2.75-.25zm-9-5.5q-1.8.05-2.7 1.65-.95 1.7.15 3.25 1.45 2.05 3.8 1.05 1.75-.75 1.75-2.6.05-3-3-3.35m14.45-1.7q-1.85.05-2.8 1.65-1.3 2.1.35 3.95 1.55 1.75 3.7.85 2-.85 1.95-3-.05-3.1-3.2-3.45M17.45 3.8q4.75-.4 8.65 2.05l.2-.05 3.75-.7q2.85.2 2.5 3.1l-.65 4.9-.35 2.55-.05.35q0 1.6-.4 3.25-.8 3.45-3.3 6.1-3.3 3.55-8.1 3.8l-.4.05.25.3q3.45 4.25 8.85 4.05l2.1-.4q.5-3.45 4.2-3.65 3.2-.2 3.9 2.75.4 1.75-.9 3.1-2.15 2.15-5.2 2.9-4.9 1.2-9.35-1-1.1-.55-2.1-1.3l-2.7-2.75q-.55 3.25-1.65 6.45l-.25 1.2-.35 1.45h-5.3l-.2-.5-.45.5h-6.6l-2.1-1.6-.35-1.05q.2-2.45 1.85-4.45 3.2-4 7.15-7.4l-1.15-.85q-4.3-3.5-4.75-8.9-.35-3.45 1.55-6.35l-.2-1.5-.25-1.7q-.35-1.3.1-2.55.55-1.35 2-1.65L9 3.95l4.55.65 1.65-.45zm-.8 14.4-.2.05h-.1l-.35.35-.1.15v.45l-.85.85-1.3.35-.45-.2q-1.35-.35-1.25.9l1 .75q2.15.65 3.45-.4.85 1.3 3.05 1.6t3.8-1.2q1.15-1.15.2-2.5-.7-.95-1.95-.6-1.55.45-2.95 1.3l-1-.3v-.2q.15-.75-.45-1l-.2-.2-.15-.1zm9.5-4.3q.1-1.2-.25-2-2.9 1.05-5.9.5-.6 1.6.6 3.05l.35-.15 1.5-.35q2-.35 3.05.55.55-.65.65-1.6m10.2 12.8q-.7.85-1.5.75-.8.15-1.5-.75-1.5-1.9-1.05-4.45h5.05q.45 2.55-1 4.45m-24.5-10.35-.05-1.6-3.7-.05q-1.05-.15-1.6-.7l-.15.2q-1 1.55 0 3.15 1.3 2.05 3.6 1.3 1.65-.55 1.9-2.3"/><path fill="#fff" fill-rule="evenodd" d="M61.85 13.85q3.15.35 3.2 3.45.05 2.15-1.95 3-2.15.9-3.7-.85-1.65-1.85-.35-3.95.95-1.6 2.8-1.65m-14.45 1.7q3.05.35 3 3.35 0 1.85-1.75 2.6-2.35 1-3.8-1.05-1.1-1.55-.15-3.25.9-1.6 2.7-1.65m9 5.5.3.5 2.75.25.15.05.15.1.05.05.05.1v.2l-.05.05-.1.2-.15.25q-2.25 1.05-4.45-.25-1.7 2.15-4.3 1.1l-.7-.65-.05-.15.05-.35.05-.2v-.1l.05-.15.1-.2.1-.05h.05l.15-.05.2.05.1.1q1.95.55 2.8-1.4.3-.7 1.05-.75l.25.15q.9.25 1.4 1.15M26.15 13.9q-.1.95-.65 1.6-1.05-.9-3.05-.55l-1.5.35-.35.15Q19.4 14 20 12.4q3 .55 5.9-.5.35.8.25 2m-9.5 4.3.2.05.15.1.2.2q.6.25.45 1v.2l1 .3q1.4-.85 2.95-1.3 1.25-.35 1.95.6.95 1.35-.2 2.5-1.6 1.5-3.8 1.2t-3.05-1.6q-1.3 1.05-3.45.4l-1-.75q-.1-1.25 1.25-.9l.45.2 1.3-.35.85-.85v-.45l.1-.15.35-.35h.1zm-4.8-1.85q-.25 1.75-1.9 2.3-2.3.75-3.6-1.3-1-1.6 0-3.15l.15-.2q.55.55 1.6.7l3.7.05z"/></svg>