<svg xmlns="http://www.w3.org/2000/svg" xmlns:ffdec="https://www.free-decompiler.com/flash" ffdec:objectType="shape" width="76" height="42.55"><g fill-rule="evenodd"><path fill="#999" d="M.4 20.5V0H76v41.2H.4V29.85l1.05 1.8q1.45 1.7 4.5 2.85l1.4.5q1.25.3 3.45 0l1.2-.25 1.8-.6 2.85-1.1 1.15-.75 2.15-1.85q1.4-1.5 2.15-4l.25-1.5q0-.75-.6-.85-.45-.05-.85.55l-.85 1.9-.6.95-1.05 1.3-2.1 1.8-1 .65-1.65.5q-1.8.95-2.8 1.1l-3.1-.4Q4.55 31.4 3.2 29.7l-.4-.6-.3-1q-1-5.75 1.6-10.85.45-.9.95-1.3.4-.35 1.3-.65 2.6-.95 3.75-1.2l1.95-.25q1.3.05 2.45 1.05 1 .75 1.75 2.05 1.5 2.3 1.45 4.4-.05 1.6-1.05 3.15l-.65.95Q14.75 27 12.4 27.9l-2.6.3q-1.15-.25-2.4-1.6l-.65-.9q-.45-.85-.15-2.25.6-3.15 3-4.25l1-.25q.65-.05 1.4.5l.85.95q.3.7-.05 1.5l-1 1.15q-.75.55-.75.9 0 .4.45.65l1.9-.1q1.05-.5 1.65-1.55t.5-2.2q-.1-2.45-2.2-3.8-1.15-.75-2.5-.85-1.4-.1-2.55.5l-1.35.85-1.7 1.8-.8 1.2-.4 1.2q-.95 3.4.05 5.25l.95 1.35q1.1 1.4 2.15 2 2 1.25 4.55.75 1.9-.3 4.25-1.85l1.35-1.1 1.05-1.25q2.05-2.95 2-5.8-.15-2.05-1.2-4.15-1.25-2.6-3.1-4.1-2.3-1.75-4.8-1.7l-1.6.25q-2.25.5-3.95 1.15-1.8.65-2.65 1.45-.8.8-1.4 2.15Q.85 17.9.4 20.5M6.25 5.4l.15 2.7-.05.2q-.15.4.35.8l.85.05.4-.25.5-.7 1.2-1 .3-.35.75-1.05.2-.7-.15-.75q-.35-.6-1.3-.6l-.55.1-.35.2-1 .8-.1.05-.05-.1q-.25-.4-.75-.3l-.3.3zm7.8.2q-.2.55.2 1.3l.9 1.3.25.3q.35.35.85.45.65.15 1.2-.3L19.6 6.3l.2-.4.1-.7q-.1-.65-.65-1.05L18.05 4 17 4.75l-.75.75-.55-.55q-.4-.3-.7-.3-.5.05-.85.7zM62.2 27.2q-2.05-.8-2.4-2-.15-.35-.15-1.1-.1-1.25.25-1.95.25-.4.85-.85.7-.55 1.35-.6.95-.05 2.1.8.8.7 1.35.55.55-.25.45-.85l-.35-.95q-1.2-1.75-3.35-2-2.15-.3-3.7 1.25l-.85 1.05-.55.95q-.25.5-.35 2.1 0 1.75.3 2.6.45 1.45 1.85 2.45.85.7 2.75 1.4l1.7.35 1.4-.3q2.2-.8 3.8-2.65t2.05-4.2l.2-1.3V20.7l-.3-1.1q-.8-2.15-2.5-3.75-1.7-1.65-3.9-2.4l-5-.2-1.2.5-2.3 1.5q-2 1.7-3.2 5.35-.85 2.45-.85 4.45l.3 2.55.4 1.7 1.15 1.9 1.1 1.35 1.2 1q2.15 1.5 3.65 1.85l2.4.25 3.25-.1q2.3-.45 5.55-2.85l1.1-.9 1.6-2.35.75-1.6q1.75-4.1.7-8.9-.6-2.75-2-5.1l-.95-1.3q-.35-.3-1.05-.65-3.5-1.85-5.4-2.1-1.3-.1-1.9.35-.4.25-.5.8-.15.55.15.9.4.45 1.6.45 1.7.2 3.95 1.35l1.35.8 1.1 1.55q1.3 2.5 1.55 5.1.25 2.8-.65 5.25l-1.1 2.25-.8 1.2-1.2.95-2.85 1.7-1.8.55-1.6-.1h-1.6q-1.25-.15-2.5-.85-1.65-.95-2.9-2.55l-.6-1.1-.4-2.15-.15-1.45.15-1.15q.85-3.7 2.3-5.5 1-1.2 2.35-1.85 1.45-.7 2.9-.5 1.1.15 2.9 1.15l1.2.8q.6.55 1.4 1.95l.5 1.1.05.85q-.1 1.7-1.05 3.2-1 1.5-2.45 2.3-.65.4-1.3.4z"/><path fill="#fff" d="m.4 29.85-.35-1.4-.05-3.2.4-4.75q.45-2.6 1.3-4.45.6-1.35 1.4-2.15.85-.8 2.65-1.45 1.7-.65 3.95-1.15l1.6-.25q2.5-.05 4.8 1.7 1.85 1.5 3.1 4.1 1.05 2.1 1.2 4.15.05 2.85-2 5.8l-1.05 1.25-1.35 1.1Q13.65 30.7 11.75 31q-2.55.5-4.55-.75-1.05-.6-2.15-2L4.1 26.9q-1-1.85-.05-5.25l.4-1.2.8-1.2 1.7-1.8 1.35-.85q1.15-.6 2.55-.5 1.35.1 2.5.85 2.1 1.35 2.2 3.8.1 1.15-.5 2.2T13.4 24.5l-1.9.1q-.45-.25-.45-.65 0-.35.75-.9l1-1.15q.35-.8.05-1.5l-.85-.95q-.75-.55-1.4-.5l-1 .25q-2.4 1.1-3 4.25-.3 1.4.15 2.25l.65.9q1.25 1.35 2.4 1.6l2.6-.3q2.35-.9 3.6-2.45l.65-.95q1-1.55 1.05-3.15.05-2.1-1.45-4.4-.75-1.3-1.75-2.05-1.15-1-2.45-1.05l-1.95.25q-1.15.25-3.75 1.2-.9.3-1.3.65-.5.4-.95 1.3-2.6 5.1-1.6 10.85l.3 1 .4.6q1.35 1.7 4.55 2.75l3.1.4q1-.15 2.8-1.1l1.65-.5 1-.65 2.1-1.8 1.05-1.3.6-.95.85-1.9q.4-.6.85-.55.6.1.6.85l-.25 1.5q-.75 2.5-2.15 4L17.8 32.3l-1.15.75-2.85 1.1-1.8.6-1.2.25q-2.2.3-3.45 0l-1.4-.5q-3.05-1.15-4.5-2.85zm61.8-2.65 1.3.35q.65 0 1.3-.4 1.45-.8 2.45-2.3.95-1.5 1.05-3.2l-.05-.85-.5-1.1q-.8-1.4-1.4-1.95l-1.2-.8q-1.8-1-2.9-1.15-1.45-.2-2.9.5-1.35.65-2.35 1.85-1.45 1.8-2.3 5.5l-.15 1.15.15 1.45.4 2.15.6 1.1q1.25 1.6 2.9 2.55 1.25.7 2.5.85h1.6l1.6.1 1.8-.55 2.85-1.7 1.2-.95.8-1.2 1.1-2.25q.9-2.45.65-5.25-.25-2.6-1.55-5.1l-1.1-1.55-1.35-.8q-2.25-1.15-3.95-1.35-1.2 0-1.6-.45-.3-.35-.15-.9.1-.55.5-.8.6-.45 1.9-.35 1.9.25 5.4 2.1.7.35 1.05.65l.95 1.3q1.4 2.35 2 5.1 1.05 4.8-.7 8.9l-.75 1.6-1.6 2.35-1.1.9q-3.25 2.4-5.55 2.85l-3.25.1-2.4-.25q-1.5-.35-3.65-1.85l-1.2-1-1.1-1.35-1.15-1.9-.4-1.7-.3-2.55q0-2 .85-4.45 1.2-3.65 3.2-5.35l2.3-1.5 1.2-.5 5 .2q2.2.75 3.9 2.4 1.7 1.6 2.5 3.75l.3 1.1v1.25l-.2 1.3q-.45 2.35-2.05 4.2t-3.8 2.65l-1.4.3-1.7-.35q-1.9-.7-2.75-1.4-1.4-1-1.85-2.45-.3-.85-.3-2.6.1-1.6.35-2.1l.55-.95.85-1.05q1.55-1.55 3.7-1.25 2.15.25 3.35 2l.35.95q.1.6-.45.85-.55.15-1.35-.55-1.15-.85-2.1-.8-.65.05-1.35.6-.6.45-.85.85-.35.7-.25 1.95 0 .75.15 1.1.35 1.2 2.4 2M14.05 5.6l.1-.25q.35-.65.85-.7.3 0 .7.3l.55.55.75-.75L18.05 4l1.2.15q.55.4.65 1.05l-.1.7-.2.4-2.15 2.35q-.55.45-1.2.3-.5-.1-.85-.45l-.25-.3-.9-1.3q-.4-.75-.2-1.3m-7.8-.2.1-.6.3-.3q.5-.1.75.3l.05.1.1-.05 1-.8.35-.2.55-.1q.95 0 1.3.6l.15.75-.2.7-.75 1.05-.3.35-1.2 1-.5.7-.4.25-.85-.05q-.5-.4-.35-.8l.05-.2z"/><path d="m28.55 32.95-.35-.35-.55-.5-.3-.4Q25.4 29.5 25 26.75l-.15-.35q-.7-2.8-.15-6.1.35-2 1.35-4.3l-.15-.7-.15-.8-.15-.25-.05-.15v-.2l-.1-.15-.05-.7-.05-.5.15-.6.25-.45.15-.1.05-.05.1-.15.35-.25-.05-.9.2-.5.15-.25.25-.25-.15-.15-.8-.75-.45-.6-.4-.45-.05-.05L25 7l-.05-.3-.05-1.55q.1-1 .8-1.3.5-.25 1.05 0l1 .5 1.7 1.2 2.2 2.25L33 9.25l2.2-.45 1.75-.05h.95l1.75.05q3.6.4 5.8 2.15h.15l3.7.55-.05.25.15.55.2.35q.7.6 1.35.6l.45-.05.15-.05.45-.2.6-.6.2-.3.1-.2h.85l1.3.2q.9.5.7 1.6-.05.75-.8 1.6-1.45 1.65-4.75 2.9l-.5.2.45 1.95q.55 3.3-.15 6.1l-.5 1.5q-1.05 2.8-2.3 4.2l-1.05.9 3.35-.25 1.15-.15q3-.45 4.7-1.15 2.55-1.1 3.7-3l.35-.75-.1-1.05q-.55-2.15-.35-3.65.25-2 1.6-3.2.65-.5 1.45-.75l1.2-.25q1.55-.15 2.75.8 1.3.9 1.6 2.4l.2 1.85-.25 2.3-.6 1.55v.7l.05.1v1.1l.05.05v.25l.05.1v.15l.05.05v3.35l.05.05v.4l-.05.05v.1l.05.05v1.55l.05.05v.45l.05.05v.15l.05.05v.05l.05.05v.05l.05.05v.2l.05.05v.75l-.05.05v.1l-.05.05-.05.05V38l-.05.05-.05.05v.05l-.1.1-.1.1-.1.05-.1.05h-.1l-.05.05h-.5l-.15-.05-.1-.05-.1-.05-.1-.05-.05-.05-.05-.05-.05-.05-.05-.05-.05-.1v-.05l-.05-.05v-.1l-.05-.05v-.1l-.05-.05v-.5l.05-.05v-.2l.05-.05v-.15l.05-.05v-.15l.05-.05.05-.05v-.3l.05-.05v-.3l.05-.05v-4.9l.05-.05v-.65l.05-.05v-.35l.05-.05v-.05l-1.85 2.4v.3l.05.05v1.8l.05.05v.45l.05.05v.4l.05.05v.3l.05.05v.35l.05.05v.35l.05.1.05.05v.1l.05.05v.8l-.05.05v.05l-.05.05v.05l-.05.05-.05.05v.05l-.1.05-.05.05-.1.1h-.1l-.05.05h-.3l-.15-.05-.1-.05-.1-.05-.05-.05-.05-.05-.05-.05v-.1l-.05-.05v-.05l-.05-.05v-.3l-.05-.05v-.25l.05-.05v-.3l.05-.05v-.05l.05-.05v-.3l.05-.05v-.25l.05-.05v-.2l.05-.05v-.45l.05-.05v-.4l.05-.05v-1.7l.05-.05v-.1l-2.15 1.6-1.85.95q-2.9 1.35-5.45 1.6-1.85.2-6.3-.1l-.8-.1 1.2 3.05.25 1.25q-.15.55-.75.9l-1.15.4-3.9.4h-3.05l-1.45-.15-.95-.1v.1l-1.45.15h-3.05l-3.9-.4-1.15-.4q-.6-.35-.75-.9-.05-.45.25-1.25l1.2-3.05-.8.1q-4.45.3-6.3.1-2.55-.25-5.45-1.6l-1.85-.95q-2.9-1.75-5-5.15v.35l.05.05v1.05l.05.05v.15l.05.1v.05l.05.05v.1l.05.05v.15l.05.05v1.55l.05.05v.45L9 33.3v.15l-.05.05-.05.05v.05l-.05.05v.05l-.05.1-.05.05-.1.05-.05.05-.1.05-.1.05h-.15v.05H7.9v-.05h-.1l-.15-.1-.1-.05-.05-.05-.05-.05-.05-.05-.05-.05-.05-.05-.05-.05v-.05l-.05-.05v-.05l-.05-.05v-.8l.05-.05v-1.4l.05-.05v-.25l.05-.05v-.05l.05-.05v-.05l.05-.05v-1l.05-.05v-.2l.05-.05v-.8l.05-.05v-1.4L7.6 27v-.05l-.25-.8q-.25-.95-.25-2.3L7.3 22q.3-1.5 1.6-2.4 1.2-.95 2.75-.8l1.2.25q.8.25 1.45.75 1.35 1.2 1.6 3.2.2 1.5-.35 3.65l-.1 1.05.35.75q1.15 1.9 3.7 3 1.7.7 4.7 1.15l1.15.15 3.3.25zm25.7-22.5-.3.15-.3.1h-.75l-.15.1-.35.15-.3.4-.2.15-.2.1-.2-.05-.05-.15-.1-.1v-.2l.4-1.45.5-.5.25-.2.25-.15q.3-.25.8-.25l.8.3.2.25.1.55-.15.5zm-8.3 13.8q.55 1.2-.15 2.55l-.2.3-.5.5-.55.4-.5.15-1.8-.25-.8-.7-.25-.35-.35.25-.5.1-.65-.15-.45-.4-.25-.25q-.55-.55-.2-1.2l.25-.3.3.05.5.45.25.35.3-.05.45-.2.6-.8.3-.55.2-.2.4-.7.35-.4.75-.9q.35-.1.65.15l.2.5.6.35.35.3zm-9.85-11.1-.05.35-.55.95-.15.2.05.05v.2l.05.05v.1l.05.05v.1l.05.05.05.05v.05l.05.05v.1l.05.1v.6l.05.05v.2l.05.05v.1l.05.05v.2l.05.05v.8l.05.05v.35l.05.05v.9l-.05.05v.15l-.05.05v.1l-.05.05v.05l-.05.05v.05l-.05.05-.05.05-.1.1-.1.05-.1.05-.1.05-.05.05h-.05l-.1.05h-.55l-.1-.05-.15-.05-.05-.05-.1-.05-.15-.15-.1-.05v-.1l-.05-.05-.05-.05v-.05l-.05-.05v-.1l-.05-.05v-1.3l.05-.05v-.15l.05-.05v-.85l.05-.05v-.15l.05-.1v-.1l.05-.05v-.5l.05-.1v-.3l-1-.1-.75-.35-.15-.25-.25.15-1.7 1.7Q28 19.2 27.6 22.75q-.25 2.55.45 4.6.8 2.45 2.6 3.8l1.1.8 1.2.7-.05.05-.1.3-.05.95.1.25.05.2q.4.65 1.1.8l.1.05h.5l.05-.05q.45 0 .75-.3l.5-.65.05-.15v-.15l.1-.1.05-.25.05-.2h.1l-.05.3.1.65.35.45.4.35 1.45.2.35-.2.35-.35.2-.3.05-.2.45.4.2.1.5.1h.05l.4.1v.05h.45V35l.4-.1.2-.1.25-.25.25-.25.1-.15.25-1.05-.05-.25-.05-.15-.2-.45q1.85-.9 2.95-2.3l.95-1.4q1.4-2.4 1.6-3.75l.1-1.2q.1-3.15-1.5-5.7-1.7-2.75-4.45-3.85l-1.85-.55zm-5.25 5.6H31l.05.05.05.1.05.05v.6l.05.1v.1l.05.05v.15l.05.05v.15l.05.05v.1l.05.1v.05l.05.05v.1l.05.05v.15l.05.05v.2l.05.1v.35l-.05.05v.15l-.05.05v.05l-.05.1-.05.05-.1.1-.1.05-.1.05-.1.05h-.3l-.15-.05-.1-.05-.2-.2-.05-.1-.05-.05v-.1l-.05-.05v-.65l.05-.05v-.1l.05-.05v-.15l.05-.05v-.15l.05-.1v-.05l.05-.05v-.1l.05-.05v-.15l.05-.05v-.1l.05-.05v-.25l.05-.05-.05-.05v-.25l.05-.05v-.15l.05-.1.1-.05zm-.5 7.2.25-1 .65-.8.35-.2q-.3-.45-.25-.8l.3-.5.6-.15q.3 0 .55.25l.35.4.75.8.3.25.35.45.7.45q.55.25.9.6l.4.1.15-.2.4-.3.55.05.05.65-.15.3-.65.75-.9.25-.2-.1-.5.75-1.1.75-.55.25-.7.1-.85-.1-.4-.15-1.2-1-.15-.5zm9.15-10.9-.05.4q-.15.55-.7.8l-.6.1q-.45-.05-.75-.4-.35-.4-.35-.85 0-.5.4-.85.35-.35.8-.35.5 0 .85.35zM17.1 3.65q.4-.4.7-.5l.65-.1q1.5 0 2.3 1.25L21 5l-.05.55-.25.9-.5.65-.6.65-1.95 1.6-.15.15-.15.3-.25.35-.35.3-.85-.1-.75-.7-1.35-1-.8-.8q-.55-.85-.4-2.1l.15-.6q.25-.85.95-1.35.8-.55 1.6-.4.85.15 1.35.75zm1.25.9-.65.55-.45.75q-.3.4-.75.25l-.4-.4v-.05l-.25-.2L15.2 5q-.25 0-.55.3l-.25.6q-.1.65.05.95l.6.8.75.6.75.5V8.7l1.65-1.3.75-.8.5-.7.15-.45q0-.65-.75-.85zm-10.4-.9q.4-.4.7-.5l.65-.1q1.5 0 2.3 1.25l.25.7-.05.55-.25.9-.5.65-.6.65-1.95 1.6-.15.15-.15.3-.25.35-.35.3-.85-.1-.75-.7-1.35-1-.8-.8q-.55-.85-.4-2.1l.15-.6q.25-.85.95-1.35.8-.55 1.6-.4.85.15 1.35.75zm1.25.9-.65.55-.45.75q-.3.4-.75.25l-.4-.4v-.05l-.25-.2L6.05 5q-.25 0-.55.3l-.25.6q-.1.65.05.95l.6.8.75.6.75.5V8.7l1.65-1.3.75-.8.5-.7.15-.45q0-.65-.75-.85zm1.4 29h.1l.1.05v.05l.05.05v.9l.05.05v.1l.05.05v.25l.05.05v.45l.05.05.05.05v.05l.05.05v.3l.05.05v.25l.05.05v.35l.05.1v.55l-.05.05v.05l-.05.1v.05l-.05.05-.1.1-.1.05-.05.05-.1.05h-.35l-.15-.05-.1-.05-.05-.05-.05-.05-.05-.05-.05-.05-.05-.05-.05-.05V36.5l.05-.05v-.2l.05-.05v-.3l.05-.05v-.2l.05-.05.05-.05v-.15l.05-.05v-.5l.05-.05v-.05l.05-.05v-.15l.05-.05v-.8l.05-.05.05-.05.05-.05z"/><path fill="#fff" d="m45.95 24.25-.7-1-.35-.3-.6-.35-.2-.5q-.3-.25-.65-.15l-.75.9-.35.4-.4.7-.2.2-.3.55-.6.8-.45.2-.3.05-.25-.35-.5-.45-.3-.05-.25.3q-.35.65.2 1.2l.25.25.45.4.65.15.5-.1.35-.25.25.35.8.7 1.8.25.5-.15.55-.4.5-.5.2-.3q.7-1.35.15-2.55m-9.85-11.1 4.35.35 1.85.55q2.75 1.1 4.45 3.85 1.6 2.55 1.5 5.7l-.1 1.2q-.2 1.35-1.6 3.75l-.95 1.4q-1.1 1.4-2.95 2.3l.2.45.05.15.05.25-.25 1.05-.1.15-.25.25-.25.25-.2.1-.4.1v.05h-.45V35l-.4-.1h-.05l-.5-.1-.2-.1-.45-.4-.05.2-.2.3-.35.35-.35.2-1.45-.2-.4-.35-.35-.45-.1-.65.05-.3h-.1l-.05.2-.05.25-.1.1v.15l-.05.15-.5.65q-.3.3-.75.3l-.05.05h-.5l-.1-.05q-.7-.15-1.1-.8l-.05-.2-.1-.25.05-.95.1-.3.05-.05-1.2-.7-1.1-.8q-1.8-1.35-2.6-3.8-.7-2.05-.45-4.6.4-3.55 2.55-6.15l1.7-1.7.25-.15.15.25.75.35 1 .1v.3l-.05.1v.5l-.05.05v.1l-.05.1v.15l-.05.05v.85l-.05.05v.15l-.05.05v1.3l.05.05v.1l.05.05v.05l.05.05.05.05v.1l.1.05.15.15.1.05.05.05.15.05.1.05h.55l.1-.05h.05l.05-.05.1-.05.1-.05.1-.05.1-.1.05-.05.05-.05v-.05l.05-.05v-.05l.05-.05v-.1l.05-.05v-.15l.05-.05v-.9l-.05-.05v-.35l-.05-.05v-.8l-.05-.05v-.2l-.05-.05v-.1l-.05-.05v-.2l-.05-.05v-.6l-.05-.1v-.1l-.05-.05v-.05l-.05-.05-.05-.05v-.1l-.05-.05v-.1l-.05-.05v-.2l-.05-.05.15-.2.55-.95zm3.4 1.9-.4-.8q-.35-.35-.85-.35-.45 0-.8.35-.4.35-.4.85 0 .45.35.85.3.35.75.4l.6-.1q.55-.25.7-.8zm-9.15 10.9v1.35l.15.5 1.2 1 .4.15.85.1.7-.1.55-.25 1.1-.75.5-.75.2.1.9-.25.65-.75.15-.3-.05-.65-.55-.05-.4.3-.15.2-.4-.1q-.35-.35-.9-.6l-.7-.45-.35-.45-.3-.25-.75-.8-.35-.4q-.25-.25-.55-.25l-.6.15-.3.5q-.05.35.25.8l-.35.2-.65.8zm.5-7.2h-.15l-.1.05-.05.1v.15l-.05.05v.25l.05.05-.05.05v.25l-.05.05v.1l-.05.05v.15l-.05.05v.1l-.05.05v.05l-.05.1v.15l-.05.05v.15l-.05.05v.1l-.05.05v.65l.05.05v.1l.05.05.05.1.2.2.1.05.15.05h.3l.1-.05.1-.05.1-.05.1-.1.05-.05.05-.1v-.05l.05-.05v-.15l.05-.05v-.35l-.05-.1v-.2l-.05-.05v-.15l-.05-.05v-.1l-.05-.05v-.05l-.05-.1v-.1l-.05-.05V20l-.05-.05v-.15l-.05-.05v-.1l-.05-.1v-.6l-.05-.05-.05-.1-.05-.05z"/></g></svg>