<svg xmlns="http://www.w3.org/2000/svg" xmlns:ffdec="https://www.free-decompiler.com/flash" ffdec:objectType="shape" width="78.6" height="41.25"><g fill-rule="evenodd"><path fill="#999" d="M72.55.5q1.8-.7 2.8-.45.75.15 1.2.8 1 0 1.6.65.45.55.45 1.35t-.45 1.4l-.75.9q.05.75-.65 1.55-.45.5-1.85 1.15L65.8 12l-16.45 7.25 8.8 3.9q12.65 5.65 17.65 8.2 2.2 1.1 2.55 2.4.2.8-.3 1.6l.5 2.9q.1 2.3-1.1 2.85-1 .5-2.8-.55l-14.95-8.2-5.15-2.65-15.25-6.3-15.25 6.3-5.15 2.65q-6.25 3.3-14.95 8.2-1.8 1.05-2.8.55-1.2-.55-1.1-2.85.15-1.7.5-2.9-.5-.8-.3-1.6.35-1.3 2.55-2.4 5-2.55 17.65-8.2l8.85-3.9L12.8 12 3.7 7.85 1.85 6.7q-.7-.8-.65-1.55l-.75-.9Q0 3.65 0 2.85T.45 1.5q.6-.65 1.6-.65.45-.65 1.2-.8 1-.25 2.8.45 6.5 2.55 22.8 9.7l10.45 4.65 10.45-4.65q16.3-7.15 22.8-9.7m-1.7 19.2q.7-.3.65-.8l-.35-.4-.65-.1q-.85.2-1.3.65.25.45.15 1.25zm-5.1 2.65q-.9-.55-1.05-1.6v-.9l-.15-.1-.85-.8q-.45-.95.35-2.35l1.2-1.45q.85-.65 1.75-.6.6 0 1.4.45l1.25 1.05.15.55 1-.1q1.2.1 1.75.65.6.6.6 1.75l-.2 1.35-1.35 1.25q-1.6.85-3.1.75-.45.45-1.25.5-.85.05-1.5-.4m1.45-4.2.65-.7v-.05q-.2-.65-.95-.55-.55.1-.95.65l-.1.35.25.3.15.1zm-55.65.55.75.75.65-1.05q.4-.8.2-1.35l-1.3.2q-.65.3-1 .9l-.15.3zm.9 2.7-.65 1.05-2.45.1-.65-.45-.35.05H6.7q-1-.2-1.35-.85-.4-.5-.3-1.65l.2-1.25q.35-1.15 1.8-1.6l2.2.15.15.1q.55-.75 1.4-1.2 1.2-.7 2.5-.5l1 .4.45.9q.3 1.65-.65 2.95l-1.55 1.3zm-4.7-2.65q-.7.25-.8 1l.1.3.45.1.75-.15q.15-.7.6-1.1z"/><path d="M26.85 37.55q-3.7-1.6-5.3-3.4-2.9-3.15-2.9-9.35 0-5.4 2.15-10.2l-.2-.65v-.1l-.5-1.1-.4-1.6-.25-.5-.85-3.15q-.55-1.9-.6-3.3l.2-1.2q.4-.75 1.2-.9l1.2.1q2.5.65 6.5 2.9l1.25.65q4.75-3 11.1-3.1 4.3-.1 7.6 1.4 1.6.7 3.25 1.95 1.2-.7 3.55-1.5l3.65-1.35 1.75-.7q1.2-.2 1.75.45.6.65.4 1.8l-.2.8-3.6 9.05.25.6q.65 1.5 1 4.1.6 4.85-.7 9.2-1.45 4.7-4.85 7.5-5.25 4.3-15.85 3.9l-5.4-.6q-2.2-.45-5.2-1.7m25.3-23.1L50.1 15.9l-.8-.7-1.65-1.3q-.7-.45-1.3-.3-.8.25-.95.95t.55 1.4L47.2 17l.5.6-.95.6-.9.6-.4.95q-.1.6.15 1.15.25.6.9.9l1.2.1.85-.45 1.5-1.15 1.4 1.55.45.8q.35.55 1.1.75l1.3-.2q.6-.35.85-1.05.2-.7-.05-1.35-.25-.5-1.5-1.55L52.3 18l.05-.05 1.25-1.1q.7-.7.85-1.45l-.15-.8-.6-.55q-.5-.2-1.55.4m-25.9 0q-1.05-.6-1.55-.4-.35.1-.6.55-.2.35-.15.8.15.75.85 1.45l1.25 1.1.05.05-1.3 1.25-1.5 1.55q-.25.65-.05 1.35.25.7.85 1.05l1.3.2q.75-.2 1.1-.75l.45-.8 1.4-1.55 1.5 1.15.85.45 1.2-.1.9-.9.15-1.15-.4-.95-.9-.6-.95-.6.5-.6 1.25-1.05q.7-.7.55-1.4t-.95-.95q-.6-.15-1.3.3l-1.65 1.3-.8.7zm11.45 14.5 1.35-1.25.15-.15.15.15 1.35 1.25 1.05.75q2.8 1.75 7.15 1.2l2.3-.5.9-.55 1.45-1.4.65-1q.5-1.05-.3-2-.65-.75-1.25-.35l-.5.65q-.8 1.25-2.45 1.75l-3 .25-2.1-.4q-.95-.4-2.25-1.6l-.85-.9-.3-.55v-.05q.15-1.05-.3-1.7-.4-.65-1.2-.75h-1q-.8.1-1.2.75-.45.65-.3 1.7v.05l-.3.55-.85.9-2.25 1.6-2.1.4-3-.25q-1.65-.5-2.45-1.75l-.5-.65q-.6-.4-1.25.35-.8.95-.3 2l.65 1 1.45 1.4.9.55 2.3.5q4.35.55 7.15-1.2z"/><path fill="#fff" d="M52.15 14.45q1.05-.6 1.55-.4l.6.55.15.8q-.15.75-.85 1.45l-1.25 1.1-.05.05 1.3 1.25q1.25 1.05 1.5 1.55.25.65.05 1.35-.25.7-.85 1.05l-1.3.2q-.75-.2-1.1-.75l-.45-.8-1.4-1.55-1.5 1.15-.85.45-1.2-.1q-.65-.3-.9-.9-.25-.55-.15-1.15l.4-.95.9-.6.95-.6-.5-.6-1.25-1.05q-.7-.7-.55-1.4t.95-.95q.6-.15 1.3.3l1.65 1.3.8.7zM37.7 28.95l-1.05.75q-2.8 1.75-7.15 1.2l-2.3-.5-.9-.55-1.45-1.4-.65-1q-.5-1.05.3-2 .65-.75 1.25-.35l.5.65q.8 1.25 2.45 1.75l3 .25 2.1-.4 2.25-1.6.85-.9.3-.55v-.05q-.15-1.05.3-1.7.4-.65 1.2-.75h1q.8.1 1.2.75.45.65.3 1.7v.05l.3.55.85.9q1.3 1.2 2.25 1.6l2.1.4 3-.25q1.65-.5 2.45-1.75l.5-.65q.6-.4 1.25.35.8.95.3 2l-.65 1-1.45 1.4-.9.55-2.3.5q-4.35.55-7.15-1.2l-1.05-.75-1.35-1.25-.15-.15-.15.15zm-11.45-14.5 2.05 1.45.8-.7 1.65-1.3q.7-.45 1.3-.3.8.25.95.95t-.55 1.4L31.2 17l-.5.6.95.6.9.6.4.95-.15 1.15-.9.9-1.2.1-.85-.45-1.5-1.15-1.4 1.55-.45.8q-.35.55-1.1.75l-1.3-.2q-.6-.35-.85-1.05-.2-.7.05-1.35l1.5-1.55L26.1 18l-.05-.05-1.25-1.1q-.7-.7-.85-1.45-.05-.45.15-.8.25-.45.6-.55.5-.2 1.55.4"/></g></svg>