<svg xmlns="http://www.w3.org/2000/svg" xmlns:ffdec="https://www.free-decompiler.com/flash" ffdec:objectType="shape" width="75.85" height="39.65"><g fill-rule="evenodd"><path fill="#999" d="m56.35 14.95.1-.2q1.85-2 5.55-4.05.7-.35.95-.35.65-.1.9.45.2.5-.3.9l-.9.5q-3.45 1.3-5.6 2.85l-.4.15zm5.9-6.4q.45.7-.25 1.5l-1.4.9q-3.05 1.5-5.3 3.25-2 1.5-5 4.5l-.25.2-.25-.15.05-.15q1.65-3.4 6.35-7.35l3.6-2.7 1.25-.5q.85-.1 1.2.5M7.75 28.9h46.5l13.3.05h7l.3.05.2.05.15.1.2.1.1.1.05.1.05.1.1.1.05.1.05.1v.1l.05.1v.4l-.05.1-.05.1-.05.1-.05.1-.05.15-.1.1-.1.1-.1.1-.2.1-.1.05-.15.05h-.1l-.05.1v.45l-.05.1v2l-.05.1v.5l-.05.1v1l.1.05.1.15.1.1.05.1.05.1.05.1v.1l.05.1v.4l-.05.1-.05.1-.05.1-.05.1-.05.1-.1.1-.15.1-.2.1-.15.05-.25.05h-12.3L59.1 38l-2.8.05h-4.45l-7.8.05-32.1.05H9.2l-1.6-.05-.8-.05H5.75L4.6 38l-1-.05-.5-.05h-.3l-.2-.05q-.35.7-1.2.8l-.8-.25-.5-.7-.1-.75.2-5.25.1-.75.1-.1-.05-.05-.05-.1-.05-.1v-.2l-.05-.1v-.1l.05-.1v-.2l.1-.1.1-.1.1-.1.15-.1.25-.1.25-.1.3-.1h.25l.3-.05.35-.05h.5l.4-.05.55-.05h.6l.95-.05h2.35zm24.2-14.3-.85 2.2-.6 2-.2.35q-.25.05-.35-.35-.15-.45.1-1.6.9-3.35 1.85-6l.8-2.15Q33.4 7.4 34 6.5t1.1-1l.75.15.45.6-.05.7.2-.3q.4-.35.85-.15.45.25.45.75l-.25.5-.9 1.3-1.1 2.1-1.9 4.8-.2.4q-.25.25-.4 0l.05-.45.15-.65.15-.65 2.35-6.65.3-.5-.4.45-.7.95-.45 1.05-1.25 2.35zM25.8 3.4l.2-.45.05-.5.65-1.3.25-.35q.15-.2.4-.15.3.05.4.25l.15.95.35.7.4.7q.2.55-.2.75l-.6.1-.3-.05.1.65v.6l-.25.5q-.5.2-.75-.15l-.1-.75V3.85l-.15-.05-.35-.1zm-4.15 2.8-.7-.1q-.35-.35-.1-.75l.25-.5-.45-.5-.6-.45q-.1-.4.45-.6h.8l.8-.2.3-.65q.2-.6.55-.8l.9.05.15.45-.05.15.1 1.05.7-.15.6.45q.1.35-.3.65l-.7.3.2 1.1.05.1.35.85.3.7.25.95.35 1 .45 1.75.3 1.45.1.35v.9l.05.4.05 1.25h-.2l-.3-.85-1.55-5-.2-.35v-.4l-.25-.4-.1-.35-.6-1.2-.15-.25-.45-.3.2.7.5 1.25.2 1.5-.05.3-.35-.05-.15-.3q-.25-1-.7-1.7l-.35-.8-.1-.45-.5-.55zm-3.9 10.1.75 1.25.6.85q.55.8 1.1 2.4l.75 2.3-.2-.05L20 21.5l-3.5-4.7-1.6-1.6q-3.55-3.15-6.25-4.4-.6-.2-.85-.5-.45-.5-.2-1.15.25-.6.95-.7l1.05.3q1.15.6 3.75 2.9l3.5 3.45zM9.6 11.65q.7.15 1.25.7l1.05 1 1.2.95 1.45 1.65.65.8q.3.3.2.5-.15.25-.55.15l-.35-.45q-.55-.75-1.65-1.55l-1.9-1.25-1.1-.8L8.9 13q-.55-.4-.5-.85.05-.35.45-.5z"/><path d="M63 6.1q.35-.05.7.2l.65 1.4 1 .3.7.2q.5.5.05.95l-.5.25-.45.15q-.25.1-.25.15l-.15.3.15 1 .25 1.05.05.7-.35.55-.55-.05-.45-.3-1.8-1.5-.75.45-.75.5-.8-.15q-.25-.2-.15-.7l.3-.65.6-.95.05-.15-.1-.15-.65-.8q-.5-.5-.4-.95l.4-.35.6-.05 1.05.1h.35l.45-.9.3-.35zm7.6.45.55 1.1.2 1.15-.35.6-.55.15v.8l.4 1.15q.2.8-.3 1.1l-1.65.05-.7-.2-.25-.65-.05-.8.45-1.65-.3-.05q-.5 0-.7-.25v-.8l.85-2.5q.2-.65.45-.8.65-.45 1.3.3zm-1.5 6.5 1.4.25.3.2q.1.25-.2.35l-.85.25-.5.15-.55-.1-.25-.4.15-.5zM41.7 4.3l-.6-.35-.1-.5q.05-.45.65-1.25L42.9.65Q43.45-.1 44 0t.75 1.15l.25 1.1.25.8.25.55.1.55-.65.4h-.55v.75q0 .85-.4 1.15l-.65.2q-.9 0-1.2-.4-.2-.35 0-1.1l.2-.7zm-.05 3.2.1-.4.4-.15.05-.05 1.55.25.3.1-.05.45-1.55.3-.4-.05zm19.3 14.6q.85 1.45 1.15 3.05.25 1.4-.15 4.15l-.35 1.75.2.2 1.65 2.2q1 1.6.35 2.55-.5.75-2.2.85l-3.5.2-.5.05-.55.35q-.75.5-2.45 1.2-3.75 1.4-6.75.8-3.25-.55-5.95-3.35l-.55-.55-1.4.9q-5.3 2.85-12.1 1.75-2.9-.45-4.8-1.6-2.5 0-4.8-1-2.75-1.2-4.45-3.4l-.85-1.3Q11 27.4 11.2 20.35q0-1.8.6-2.55.6-.7 1.65-.75 1 0 1.65.65.45.55.6 1.45l.05 1.65q-.1 2.65.15 4.4.35 2.2 1.15 3.55.85 1.55 2.25 2.4l-.05-1.55q.1-1.65.5-2.6l.75-1.45-.05-.05-.3-1q-.8-2.4-1.1-4.1l-.4-2.45q-.2-1.95.65-3.85.35-.9.95-1.35.75-.6 1.85-.45.95.05 1.8.75l.9.95.35 1.35q.4 3.1.15 6.1l-.1.75.35-.15q3.3-1.2 6.95-1.05l2.6.3.05-4.9.2-2.65.35-1.25.45-1q.6-.9 1.8-1.15l2.15.05q1.3.2 1.8.95.25.3.35 1.15l.05.9-1.3 5.95-.3 1.35-.15 1.55-.2.85.25.15q.75-1.4 1.8-2.6 2-2.25 4.85-3.4 2.9-1.1 5.85-.85l1.3.2.7-.35q1.3-.5 2.2-1.1l1.05-.65 1.2-.3q1.05.1 1.4 1.1l-.05 1.8-.1.75-.25.6-.4 1.2-.2.75zm-13.45 10-.7-.4q-.25-.4.05-1.05l.15-.3q.15-.2.55-.3l.65-.25.35-.5q.1-.5-.3-.8l-.55-.2-.8-.25-.4-.15q-.15-.15-.15-.45l-.05-.5-.05-.4.3-.35.75-.55.2-.15.05-.4-.4-.25-.5.1q-.65.25-1.05.65l-.35.6-.1.55-.05 1 .25.9.7.6-.45.5-.15.35-.15.45-.05.8.05.6.25.55.85.75.65.35 1.25.15.5-.2.3-.55-.3-.6zm6.95-1.15-.3.5-.25.65-.5-.4q-.55-.45-1.05-.45-.75 0-.85.65-.05.4.3.75l.75.45.7.45-.55 1.25-.15.5q.1.6.65.7.45.15.85-.35l.4-1.25 1.15.9.65.15.3-.3-.05-.5-.6-.65-1.05-1.05.4-1.5q.3-.55.05-.8l-.5-.05zM53.35 26l.1-.6-.1-1.25 1.8-.45.7-.45q.25-.5-.05-.9t-.85-.4l-.9.3-1 .35-.05-.3-.4-1.5-.7-.6-.7.1q-.2-.05-.35.15l-.15.5.45 1.65.05.4q-1.1.3-1.7.75l-.3.5.35.3.5-.05 1.4-.2.2.75.05.75.4.55.7.05.3-.1zM36.75 1.4l.35.8.15.7 1.9-.5q.55.1.65.4.3.5-.15.75l-.4.25-.65.55-.5.5 1.05 1.6q.35.55.15.95-.1.3-.65.4l-.8-.1-1.9-.8-.55.75-.4.45q-.4.2-.75-.15-.25-.2-.25-.7l.2-.8.05-.3-.25-.1q-.6-.1-.95-.45-.5-.5-.15-1 .15-.25.6-.4l1.5-.55.15-.3.4-1.7q.05-.35.55-.45zm-22 8.95L14 10.1q-.2-.25-.1-.85l.15-1.8-.65-.15q-.55-.35-.4-.95l.35-.55 1.1-1.55.6-.6.8-.1.55.6.85 1.7.3.75q.1.55-.2.75l-.9.2h-.1l.15 1.65q.1.9-.25 1.15l-.65.05zM6.4 12l-.8.45-.9-.15-.25-.6v-.55q.15-.6.75-1.25-1.05-.5-1.1-1.1-.15-.7.55-.95l.7-.05 1.55-.35L7.95 6.1q.5-.7.9-.85h.7l.5.45v1L9.9 7.75l1.3-.2q.9-.1 1.15.45.25.5-.2.95l-.9.5-.65.2-.5.5.1.85.2 1.4q.1.85-.3 1.15l-.75.1-.7-.4L7.4 12.2q-.3-.4-.6-.4zm9.75.1-.6.1h-.95l-.5-.05-.4-.5.2-.6.95-.2h.75l.6.15q.3.15.3.55z"/><path fill="#fff" d="m53.35 26-.25.3-.3.1-.7-.05-.4-.55-.05-.75-.2-.75-1.4.2-.5.05-.35-.3.3-.5q.6-.45 1.7-.75l-.05-.4-.45-1.65.15-.5q.15-.2.35-.15l.7-.1.7.6.4 1.5.05.3 1-.35.9-.3q.55 0 .85.4t.05.9l-.7.45-1.8.45.1 1.25zm1.1 4.95.35-.35.5.05q.25.25-.05.8l-.4 1.5L55.9 34l.6.65.05.5-.3.3-.65-.15-1.15-.9-.4 1.25q-.4.5-.85.35-.55-.1-.65-.7l.15-.5.55-1.25-.7-.45-.75-.45q-.35-.35-.3-.75.1-.65.85-.65.5 0 1.05.45l.5.4.25-.65zM47.5 32.1l1.3.3.3.6-.3.55-.5.2-1.25-.15-.65-.35-.85-.75-.25-.55-.05-.6.05-.8.15-.45.15-.35.45-.5-.7-.6-.25-.9.05-1 .1-.55.35-.6q.4-.4 1.05-.65l.5-.1.4.25-.05.4-.2.15-.75.55-.3.35.05.4.05.5q0 .3.15.45l.4.15.8.25.55.2q.4.3.3.8l-.35.5-.65.25q-.4.1-.55.3l-.15.3q-.3.65-.05 1.05z"/></g></svg>