<svg xmlns="http://www.w3.org/2000/svg" xmlns:ffdec="https://www.free-decompiler.com/flash" ffdec:objectType="shape" width="75.1" height="34.15"><g fill-rule="evenodd"><path fill="#999" d="m67.3 6.75-3.05 2.6L63 10q-.55.1-.8-.25-.35-.45 0-1.1l.7-.95.3-.95.9-1.65q.95-1.35 1.65-1.75 1.4-.7 2.2.2.65.75.3 1.7zm-3.1 6.8-1-.5q-.25-.3-.15-.75t.45-.6l1.15-.05 1.5-.25 1.45-.25q1 0 1.8.45.75.35 1.1.95.4.85-.05 1.55-.45.9-1.6 1l-2-.3-1.65-.75zm-17-6.2-.05.85-.4.8-.5 1.3-.75 1.1-.4.35-.25.55-.45 1.3-.95.95q-.85.3-1.7-.35-.65-.5-.75-1.55l.05-1.3.1-1.05.35-.85.1-.8q.1-1.15.45-2.2l.5-1.2.45-.75.8-.45q.45-.25.95-.3 1.1-.15 1.95.7.85.8.7 2zM0 20.3h75.1v13.85H0zm31.05-15 .15.9-.05 1.9-.45 2.15-.25.7-.3.55.05.4q.15 1.1-.7 1.8-.85.75-1.9.45-1.1-.35-1.4-1.35l-.15-1-.05-1.05-.15-.85q-.15-.6-.05-1.35l.1-2.3q0-.5.15-.9.2-.45.75-.95l1.1-.75q1.45-.55 2.65.85z"/><path d="M60.6 11.85q.85 1.45 1.15 3.05.25 1.4-.15 4.15l-.35 1.75.2.2 1.65 2.2q1 1.6.35 2.55-.5.75-2.2.85l-3.5.2-.5.05-.55.35q-.75.5-2.45 1.2-3.75 1.4-6.75.8-3.25-.55-5.95-3.35L41 25.3l-1.4.9q-5.3 2.85-12.1 1.75-2.9-.45-4.8-1.6-2.5 0-4.8-1-2.75-1.2-4.45-3.4l-.85-1.3q-1.95-3.5-1.75-10.55 0-1.8.6-2.55.6-.7 1.65-.75 1 0 1.65.65.45.55.6 1.45l.05 1.65q-.1 2.65.15 4.4.35 2.2 1.15 3.55.85 1.55 2.25 2.4l-.05-1.55q.1-1.65.5-2.6l.75-1.45-.05-.05-.3-1q-.8-2.4-1.1-4.1l-.4-2.45q-.2-1.95.65-3.85.35-.9.95-1.35.75-.6 1.85-.45.95.05 1.8.75l.9.95.35 1.35q.4 3.1.15 6.1l-.1.75.35-.15q3.3-1.2 6.95-1.05l2.6.3.05-4.9.2-2.65.35-1.25.45-1q.6-.9 1.8-1.15l2.15.05q1.3.2 1.8.95.25.3.35 1.15l.05.9.4.15 1.3 1q.35.5.2 1.1l-.55.95q-.65.55-1.9.35h-.1l-.05.05-.6 2.35-.3 1.35L40.2 12l-.2.85.25.15q.75-1.4 1.8-2.6 2-2.25 4.85-3.4 2.9-1.1 5.85-.85l1.3.2.7-.35q1.3-.5 2.2-1.1L58 4.25l1.2-.3q1.05.1 1.4 1.1l-.05 1.8-.1.75-.25.6-.4 1.2-.2.75zm-7.5 12.7 1.5.15q.8-.1 1.35-.65l.75-1.3q.2-.8-.15-1.5-.45-1.1-1.65-1.4-1.15-.3-2.2.25-1.15.65-1.3 1.85-.05.55.2 1.15.5 1.05 1.5 1.45m-.15-14q-.3.3-.5 1.2l-.25 2.95q-.1.75.15 1.2.35.7 1.05.7t1.1-.65l.25-1.55.15-1.15.15-1.35-.2-1.1q-.3-.45-.9-.55-.6-.05-1 .3M48.4 15.9l-.6-.1q-.2-.2-.1-.45.1-.3.35-.45.55-.45 1.3-.55.95-.1 1.05-.5.05-.4-.45-.7-.65-.45-1.55-.35-.85.05-1.45.6-.65.5-.85 1.35t.1 1.65l.1.4-.35.4q-.45.45-.45 1.65 0 1.7.55 2.3.5.55 1.65.65 1.15.2 1.55-.45.2-.3.05-.7l-.4-.6-1.35-.55q-.2-.35-.1-.7l.5-.6.8-.3q.7-.35.55-1.1-.1-.7-.9-.9"/><path fill="#fff" d="M48.4 15.9q.8.2.9.9.15.75-.55 1.1l-.8.3-.5.6q-.1.35.1.7l1.35.55.4.6q.15.4-.05.7-.4.65-1.55.45-1.15-.1-1.65-.65-.55-.6-.55-2.3 0-1.2.45-1.65l.35-.4-.1-.4q-.3-.8-.1-1.65t.85-1.35q.6-.55 1.45-.6.9-.1 1.55.35.5.3.45.7-.1.4-1.05.5-.75.1-1.3.55-.25.15-.35.45-.1.25.1.45zm4.55-5.35q.4-.35 1-.3.6.1.9.55l.2 1.1-.15 1.35-.15 1.15-.25 1.55q-.4.65-1.1.65t-1.05-.7q-.25-.45-.15-1.2l.25-2.95q.2-.9.5-1.2m.15 14q-1-.4-1.5-1.45-.25-.6-.2-1.15.15-1.2 1.3-1.85 1.05-.55 2.2-.25 1.2.3 1.65 1.4.35.7.15 1.5l-.75 1.3q-.55.55-1.35.65z"/></g></svg>