<svg xmlns="http://www.w3.org/2000/svg" xmlns:ffdec="https://www.free-decompiler.com/flash" ffdec:objectType="shape" width="67.3" height="36.25"><g fill-rule="evenodd"><path fill="#999" d="m62.2 5.35-6 2.55q-5.45 2.2-9.7 4.8l-5 2.9-.6.1q-.35-.1-.25-.65.15-.35.45-.55 1.35-1.2 3.55-2.65L48.4 9.4 52.7 6l-.35.15q-1.55.7-4.75 2.65l-4.75 2.55-.6.05q-.45-.25-.1-.7l.65-.55 7.45-7.35 1.2-.95 1.4-.1q.75.2 1.2.75.4.55.4 1.35l-.1.75q2.5-2.15 4-3.2 1.3-.9 2.2-1.2L63 .3q.95.5 1.25 1.55.35 1.05-.15 1.95-.45.75-1.9 1.55m-8 4.25q.9-.85 1.7-.95l1.35.2q.65.3 1 .9t.25 1.35-.6 1.25q-.65.6-2.2 1l-1.75.35q-1.1 0-1.5-.85-.45-.9.6-2.15zm9.5 16.8q-1.2.8-2.6.3-.8-.35-1.25-1.15-.5-.85-.35-1.7.1-.9.8-1.55.65-.65 1.55-.75l1.65.4q.8.45 1.15 1.3.3.85.05 1.75-.3.9-1 1.4M44 2.7q-.45-.55-.3-1.15.2-1 1.2-1 .4-.05.8.25l.45.65q.25.9-.55 1.45l-.85.15zm17.75 27.95q.45 1.15-.3 2.35-.75 1.1-2.05 1.1-1.1.05-2.95-1.2l-4.1-2.8-2.05-1.35-2.35-1.35-2.2-1.5-5-3.65-.35-.35q-.1-.35.1-.4h.45l6 2.55q3.1 1.35 4.55 1.75l3.65.9q2.3.7 4.2 1.7 1.95 1.1 2.4 2.25m-8.3 2.65q-.25.75-1.05 1.15l-1.55.15-1.6-.9-1.45-1.1-1.25-1.65-3.15-3q-1.4-1.2-2.15-1.7-.8-.45-.7-.95.1-.45.65-.45l.85.25 1.1.6.95.75 1.95 1.1q1.35.9 3.7 1.7 2.05.75 2.7 1.35 1.45 1.2 1 2.7M17.75 5.1q-.8-.95-.3-2.1.4-1.15 1.7-1.3 1.2-.15 1.95.8l.65 1.05.95 2.2 1.55 2.35.95 1.2.15.5-.3.45q-.15.05-.6-.3l-1.15-1.1-.15-.35-.65-.65-2.35-1.2-1.55-.85q-.7-.45-.85-.7m2.95 7-8.95-4.5-2.4-1.5Q8.1 4.9 8.15 3.6q0-1 .7-1.8.7-.85 1.65-1 .8-.1 1.95.45L14.6 3l4.25 4 2.9 2.95 1.3 1.1 1.05 1.35.15.7-.35.55q-.45.25-1.2-.4zm-.1 9.1q.2.35-.2.55l-.55.3-4.15 1.3q-1.75.65-3.5 2.05-1.1.9-1.8 1.1-1.5.5-2.5-.7-.45-.5-.55-1.25t.2-1.35q.3-.65.9-1.05.65-.4 1.3-.35l1.5.25 1.6.15 2.5-.4 2.5-.5 1.65-.25.6-.1q.4 0 .5.25M6.75 33.35l-1.6 1.25-1.65.25q-.9-.15-1.4-.8-.55-.6-.6-1.5-.1-.9.4-1.55.5-.7 1.55-1.1l1.9-.5 3.45-1.05 14.55-5.05q2.1-.7 3.15-.9 1.1-.1 1.2.45.1.5-.8.95l-.4.2.25.3-.55.6q-.9.4-2.25 1.2l-2.2 1.25q-5.15 2.95-7 4.8l-1.5 1.4q-1 .7-1.9.65-.75-.05-1.35-.55-.6-.55-.7-1.3v-.6q-1.8.9-2.55 1.6m.85-21.1q-1.3-.55-1.55-1.95t.75-2.45q.7-.65 1.8-.75 1.05-.05 1.8.55.8.6 1 1.65.2 1.1-.35 1.95T9.5 12.4zm9 21.6q.1-.5.5-.85.45-.35.95-.35 1.15-.1 1.6 1.05.35 1.1-.6 1.8l-1.95-.1q-.75-.65-.5-1.55"/><path d="M60.6 2.15q3.1-.2 4.9 1.4Q67 4.9 67.25 7.5l-.1 1.75-.35 1.2-.6 1.2q-.9 1.35-3.1 2l-.15 1.2-.8.9-1.2.15-1-.65q-.3-.45-.4-1.9 0-1.15.15-1.55.35-1 1.6-1.45l1.35-.5q.6-.35.7-1.15.1-.75-.25-1.45-.4-.75-1-.9l-.75-.1-1.25.15-1.1.8q-.6.4-.55.85l.75.9q.6.65.45 1.3-.05.55-.6.9l-1.15.4q-.9.05-1.7-.45t-1.15-1.3l-.4-1.5V6.65q.4-1.7 2.45-3.2l1.8-1zm-.5 15q.55-.4 1.25-.4.75 0 1.25.4.55.4.7 1.1l-.05 1.3-.85 1-1.3.3q-.6-.05-1.1-.45-.5-.45-.65-1.05-.2-.6.05-1.2.2-.6.7-1m-29.7-15q5.1-1 10.1.7 2.25.75 3.8 1.9 2.15 1.6 3.4 4.2 1.2 2.5 1.3 5.35.15 5.35-3.5 10.3-1.2 1.7-2.65 2.85l-.9.65.45.6.3 1.2-.05 1.45q-.3 1.1-1.7 2l-1.55.75-2.2-.1-.3-.1q-.75 1.7-2.5 2l-2.15.1-2-.15q-1.2-.4-2.15-2.1l-.2-.4q-1.45.8-2.7.55-1.4-.2-2.6-1.85-.6-.8-.7-1.35-.15-.45-.05-1.1.2-1.2.95-2.05-2.35-1.5-3.55-3.1-1.5-2-1.9-4.8-.4-2.55.25-5.25 1.45-6.25 6.45-9.65 2.75-1.9 6.35-2.6m-2.2 19.1q.95-.55 1.4-1.5l.4-1.25.1-1.25q-.1-1.8-1.45-2.95-1.4-1.15-3.2-1l-1.4.3-1.85.9q-1 .8-1.25 1.7l-.2 1q-.1 1.3.15 1.95l.35.8 1.25 1.4q1.2 1 2.85.9 1.55-.05 2.85-1m10-6.7q-1.3 1-1.55 1.95l-.1.95q0 2.25.7 3.25.5.65 1.75 1.3l1.65.55 1.75-.35 1.35-.7.95-1.05q1.35-1.8 1.1-3.85l-.3-.95q-.5-1.2-2-1.75l-2.65-.35-1.5.25zm-32.2 3q3.1-.2 4.9 1.4 1.5 1.35 1.75 3.95l-.1 1.75-.35 1.2-.6 1.2q-.9 1.35-3.1 2 .1.6-.15 1.2l-.8.9-1.2.15-1-.65q-.3-.45-.4-1.9 0-1.15.15-1.55.35-1 1.6-1.45l1.35-.5q.6-.35.7-1.15.1-.75-.25-1.45-.4-.75-1-.9l-.75-.1-1.25.15q-.55.25-1.1.8-.6.4-.55.85l.75.9q.6.65.45 1.3-.05.55-.6.9l-1.15.4q-.9.05-1.7-.45T.45 25.2l-.4-1.5v-1.65q.4-1.7 2.45-3.2 1.05-.75 1.8-1zm-.5 15q.55-.4 1.25-.4.75 0 1.25.4.55.4.7 1.1l-.05 1.3-.85 1-1.3.3-1.1-.45q-.5-.45-.65-1.05-.2-.6.05-1.2.2-.6.7-1"/><path fill="#fff" d="m38.2 14.55 1.15-.75 1.5-.25 2.65.35q1.5.55 2 1.75l.3.95q.25 2.05-1.1 3.85l-.95 1.05-1.35.7-1.75.35L39 22q-1.25-.65-1.75-1.3-.7-1-.7-3.25l.1-.95q.25-.95 1.55-1.95m-10 6.7q-1.3.95-2.85 1-1.65.1-2.85-.9l-1.25-1.4-.35-.8q-.25-.65-.15-1.95l.2-1q.25-.9 1.25-1.7l1.85-.9 1.4-.3q1.8-.15 3.2 1 1.35 1.15 1.45 2.95L30 18.5l-.4 1.25q-.45.95-1.4 1.5"/></g></svg>