<svg xmlns="http://www.w3.org/2000/svg" xmlns:ffdec="https://www.free-decompiler.com/flash" ffdec:objectType="shape" width="69.9" height="42.85"><g fill-rule="evenodd"><path fill="#999" d="M18.35.7q.6.85.1 1.75L17.9 3l-1.3.15q-.5-.15-.8-.6-.35-.4-.35-.9 0-1.2 1.1-1.55t1.8.6m20.4 5.65q-.95-.1-1.75-.9-.75-.8-.85-1.8-.1-.85.25-1.45.35-.75 1.15-1.2 1.2-.75 2.6-.5 1.45.35 2.05 1.6.45.95 0 2.1-.35.95-1.4 1.65-1 .6-2.05.5M59 10.05q-.2-.45-.05-.95.15-.55.6-.8l1-.15q.45.1.75.5l.3.85-.3.8-.75.5q-1.05.2-1.55-.75m7.75 6.15.9.2.6.75q.2.45 0 .95l-.6.7-.9.15q-.5-.05-.85-.45-.5-.6-.25-1.4.25-.75 1.1-.9m-7.7 8.9q-.35-1.05.65-1.7l1.85.1q.85.8.45 1.8-.45 1.05-1.55.95-1.15-.1-1.4-1.15m-6.9-19.5q-.5-.4-.65-1.05-.1-.6.15-1.15l.65-.75q1.05-.6 1.95.15.85.75.5 1.9l-.75.95zm-20.5 7.7-.25-.85Q31.2 10.6 32.7 9q.6-.75 1.55-1.15l1.9-.1 1 .55.6.55.45.9.1.8.25-.3q.5-.5 1.3-.65L41 9.5l1.15.15q.55.2 1.5.75l1 .4.35.2.25-.2q.8-.5 1.6-.3.95.25 1.25 1.05.4 1-.3 2.15-.4.65-1.15.95l-.25.1q-.25 1.65-1.05 2.55-.6.65-1.8 1.3-1.35.65-2.25.55l-.9-.3-.9-.5-1.05-1.05-.6-.95q-.6-1.3-.45-3.1v-.1l-.95.7-.1.05-.05.85-.35.7.8.15q1.15.4 1.4 1.6.1.75-.2 1.3l-.8.9-1.5.25-1.35-.85q-.45-.65-.3-1.5l.15-.5-.5.15-1.6.1-1.1-.35q-.7-.55-.6-1.55.1-1.25 1.2-1.5h.35zm13.6-4.15-.7-.7-.35-.75q-.25-1.15 1-2l.75-.3q1.05-.25 1.75.75.55.85.2 1.9-.3.8-1.1 1.2zm3.15 5.95q.85-.1 1.35.35.85.6.75 1.55l-.45 1.15q-.7 1-1.7 1.05-1 .1-1.6-.75-.65-.85-.25-1.75.3-.75 1-1.15zm2.35 17q.1-.35.35-.55l.2-.05h.1l.05-.05q.35 0 .55.3l.05.1.1.45-.1.25-.45.35q-.55.1-.8-.5zm16.55 7.45q-.55-.3-.75-.9-.2-.65 0-1.2.25-.65.85-.95l1.35-.1q1 .4 1.15 1.45.1 1.1-.8 1.65zM29.75 12.5l.15 1.55-.1.95-.35.95-.2 1q-.4 1.55-2.5 2.5l-1.15.4-.5 1.05q-.85 1.25-2.2 1.4-1.15.05-2.15-.85-.8-.8-.85-1.8 0-1.15.8-1.95l.55-.45-.15-.25-.65-1.3-.1-1.25.2-1.65.6-.9 1.05-1.1 1.35-.8.95-.45.45-.05L25 9l.1-.85.55-.95q.7-.95 1.55-1.35l.65-.2 1.85.3.7.4q.6.5.9 1.7l.05.5-.1 1.05-.15.6-1.1 1.65-.35.4zm-7.8-10.45q.7-1.15 2.45-.9.85.15 1.45.7.65.55.7 1.3.15 1.3-1.15 2.2-1.2.7-2.3.3-1.3-.45-1.55-1.7l.05-.9q.1-.6.35-1m-5.05 6.3q1.8.15 2.45 1.7.5 1 .15 2.2-.35 1.1-1.25 1.85l-1.5.65q-1.15.05-2.25-1.05-.8-.8-.9-1.5-.2-1.2 1.1-2.7l.85-.85zM30.5 20.5l-.35 1.3-.6.6q-.75.35-1.55 0l-.85-.9q-.25-.6-.1-1.2t.7-1q.5-.4 1.1-.35.65.05 1.15.5.45.45.5 1.05M14.4 5.45q.25.45 0 .85-.25.45-.8.35l-.55-.45q-.15-.3 0-.7.2-.4.55-.35l.15-.05.45.15zm-5.75.9q.3.4.25 1l-.4.95q-.35.35-.95.4t-1-.25l-.6-.85q-.15-.55.1-1.05.25-.45.75-.65l1.05-.1zm4.7 13.05q.55.7.4 1.6-.15.85-1 1.35l-1.45.15q-.8-.2-1.2-.85-.35-.65-.2-1.45t.75-1.2q.65-.45 1.45-.3.8.1 1.25.7m1.55 13.35-.3-.7q-.1-1.05.8-1.5l1.2-.1q1.1.35 1 1.45 0 1.05-1.05 1.4-1 .35-1.65-.55M.75 35.05l-.7-.4-.05-.4v-.35q.15-.5.75-.5l.05-.05.55.2.25.35.05.3-.1.35-.3.4z"/><path d="m46.55 5.7-.3.5-.7 1.25-.65 1.6-.15.75-.25.75-.5.95q-.7 1.1-1.9 1.1-1.4 0-1.8-1.2l-.1-.55q-.1-.7.1-1.15l.55-.75 1.45-1.5 2.6-3.35.55-.5.7-.1.6.4q.45.55.1 1.35zM20.4 30q.35-5.35 1.3-8.55.95-3.4 2.85-5.8l1.2.15 1.1-.2q.95-.35 1.45-1.4l.6-2 .05-.2 2-.8.6-.15q.4.75 1.15 1.05l1.25.25q1.1 0 1.8-.55l.65-.75.2-.25q1.15.15 2.3.6v.45q.25 1.5 1.55 2.2l2.6-.15q1.55 1.4 2.6 3.25 1.2 2.15 1.7 5.1.35 2.05.5 5.45.3 7.95-.1 15.15H43.9v-.2q.45-9.95-.1-16.45-.5-5.5-2.5-8.15-2.1-2.75-4.2-3.05l-2.9-.4-1.8.25q-1.05.3-3 1.9-2.55 2.1-3.7 6.4-.95 3.3-1.25 9.55-.25 5.35-.1 10.15H20.1q-.2-6.3.3-12.85m17.75-7.6-.2-.95.15-.8q.2-.65.9-1l1.9-.1q.9.4 1.25 1.4.2.8-.2 1.55-.4.8-1.15 1.05l-1.55-.1q-.8-.35-1.1-1.05m-1.1 1.35q1.4 1 1.7 2.65.3 1.2 0 2.35-.15.9-.7 1.45-.9.9-2.7.9-2.35.1-3.95-.95-.85-.6-1.35-1.5-.55-1-.45-1.95.15-1.25 1.2-2.3.85-.85 2.05-1.25l2.2-.2q1.15.15 2 .8M34.8 2.55l.3 1.5-.05.6.35 1.7.2.65.1.6q.1 1.35-.3 2-.65 1-1.9.85-1.2-.25-1.45-1.5L32 6.4l.5-2.6.15-.35.25-1q.2-.65.7-.65l.25-.1q.65.2.85.55zm-9.95 6L26.3 9.7l.75.9q.4.9.05 1.8-.6 1.1-1.8 1.2-1.25 0-1.9-1.05l-.2-.5-.7-.8-.7-.8-.3-.45-.5-.6-.85-1.3q-.4-.9-.3-1.4.1-.6.75-.75l.6-.05 1.35.8 1.15 1.1zm7.9 10.1.2-1q.35-.7 1.1-1.05l1.5-.15 1.25.85q.5.6.45 1.4 0 .75-.5 1.4l-1.3.75-1.5-.2q-.75-.4-1.05-1.1zm-4.1 5.6q-1.1-.15-1.55-1.35-.35-1.15.35-2 .6-.8 1.5-.7l.15-.05q1.25 0 1.85 1.2.55 1.2-.25 2.15-.8 1.1-2.05.75"/></g></svg>