<svg xmlns="http://www.w3.org/2000/svg" xmlns:ffdec="https://www.free-decompiler.com/flash" ffdec:objectType="shape" width="51.35" height="37.65"><g fill-rule="evenodd"><path fill="#999" d="M46 5.4q2.25 1.55 2.9 4.2.3 1.2-.35 1.6-.6.45-1.2-.15l-.8-1.05-.95-.95-.75.55q-.55.1-.9-.2-.5-.4-.7-1.35-.25-1-.15-1.75.1-1.05.95-1.35.7-.25 1.95.45M28.4 8.1q.4-1.5 1.95-1.65 1.5-.25 2.35 1.1.8 1.3-.05 2.55-.45.75-1.35 1l-1.65-.15q-.8-.35-1.15-1.2t-.1-1.65m-9.9 15.25-.3-1q-.55-1.8.25-3.55.8-1.8 2.45-2.65.3-.2.65-.3l-.4-.2q-.6-.35-.85-.9-.25-.5-.25-1.25l.1-1.05.5-.9.6-.7.85-.7q1.7-.95 3.4-.5 1.95.4 2.85 2l.5 1.15.05.75-.5 1.65q-.5.75-1.35 1-1 .15-1.6-.5-.65-.8-.2-1.85l-.35-.2-.4.05-.3.15q-.15.25-.15.45-.1.65-.6 1.1l-.4.3 1.6.1q.6.15 1.5.8l1.1.85.7.85q.8.75 1.25 1.45.5-.2 1.15 0l1.05.5 1.2.9q1.55 1.5 1.15 3.6-.5 2.2-2.5 2.9l-.65.15-.9.05-2.35-.25h-.1l-.45.35-.25.25-.55.75-.65.95-.6 1q-.6.85-2.5 1.05l-5.75-.35-1.15-.35q-.7.7-1.75.45-1.05-.35-1.2-1.4v-.65l.2-.55-.05-.1q-1-1.4-.6-3.25.35-1.45 1.75-2.8.65-.65 1.4-.85h1.15l1.3.4q.65.4.8 1.2l.05.75.1.75.35.5q-.2-.9 0-1.5zm11.1.45-.05-.2-.05.25zm-2.1 6.85-.35-1.05q0-.3.25-.5.25-.25.55-.25l.6.25.9.8.8 1 .55.75 1.2.85q.6.5 1.2 1.7l.45 1.05q.25 1.3-.85 2.05l-1.1.3-1.05-.4-.55-.5-.4-.55-.2-.6-.5-.7-.2-1.15-.15-.75-.45-1.05-.45-.55zM20.95 8.2l-.05 1.25q0 .75-.35.9l-.7.05-.4-.55-.1-.6-.25-.45-.1-.75-.25-.6-.3-1.2-.05-.55-.3-.55-.45-.65-.3-.55q-.25-.5-.15-1.15.15-.65.55-1.05.45-.4 1.1-.5.65-.05 1.15.25.55.3.8.9.25.55.15 1.15l-.3 1.1.15.7v1.1zm-3.6 6.45L16.2 15q-.7-.05-1.15-.5-.45-.4-.55-1.1-.1-.65.15-1.25.5-1.25 1.95-1.4.8-.1 2 .35.95.4 1.3 1.05l.1.85-.5.65-1.15.2-.5.35zM6.3 15.95l-.6.6h-.8L4.35 16q-.2-.35-.05-.75l.3-.4q.3-.35.6-.3l.1-.05q.55.1.9.5.25.5.1.95m.2 14.35q-.15-.7.2-1.4.3-.65.95-.95l1.4-.15q.75.15 1.2.7t.5 1.3q0 .75-.4 1.35l-1.15.75q-.7.25-1.4 0-1.15-.55-1.3-1.6m-4.7 5.35q-.3-.5-.2-1.15.15-.65.8-1 .8-.5 1.65.15.75.65.5 1.6T3.3 36.3q-.95.15-1.5-.65m24.15-.3q.1.8-.2 1.45l-.9.75q-.6.25-1.15 0-.55-.2-.85-.8t-.1-1.15l.55-1.25.1-1.05q.25-.7 1-.8t1.15.5l.3 1.1z"/><path d="m49.45 14.2-1.1-.15q-.6.1-.95.55t-.3 1.05q.05.65.4 1.05.4.4 1 .5l1.1-.2q.65-.35.7-1l-.05-.65q-.15-.75-.8-1.15M48 23.75q-2.9 2.65-8.05 2.55l-2.5-.3-.2-.05q.65 1.35.95 3.1l.15 1.3q-.05 1.05-.5 1.85l-.05.55q-.15.7-.7 1.25-.55.5-1.25.6-1.5.25-2.5-1.1-.85-1.25-.35-2.75l.8-1.3-.05-.2-.5-1.2-1.5-2-.4-.6-2.45-.85-.6-.05-1.1-2.8-3.2-1.8v-4.4l-2.05 4.25 2.6 2.2v2.55l-1.2.15-.95.25q.55 1.2.75 2.5.25 1.65-.4 2.65l-1 .95-3.85 2.5-1 .45q-1 .25-1.7-.5l-.65-.75q-.25-.6 0-1.35.35-1 1.4-1.9.75-.6 1.7-1.05l.9-.65-.55-1.25-3.85.95q-2.75.2-4.35-1.5l-3.75 1.3L3 27.25l-1.6-.45q-.6-.4-.95-1.35Q-.4 23.2.3 20.9q.35-1.4 1.35-1.8l1.1-.1 1.25.35q.9.55 1 1.8 0 .95-.5 2.05.95.15 2.4-.5l1.6-.7v-.55q.15-1.85 1.15-3.55l-.6-3.1-.7-3.5q-.8-2.65-2.65-4.6-1.4-1.5-1.6-2-.35-.75-.25-1.85.2-1.15.7-1.75.6-.75 1.65-1l2 .05Q9.95.7 11.15 2.7 12 4.05 12.45 6l.65 3.6q.35 1.9.3 3.25l-.05 1q3.55-2.35 8.35-2.25l3.6.4q2.85.55 4.9 1.65l.05-.2Q30.9 11 32.9 8.9l1.15-1.05-1.25-1.2q-.5-.75-.2-1.55.2-.8 1.1-1.15l1.25-.15 3.85.45 1.7.55.75.45.2.15 1.15.25q.7.2 2.9 1.25L48 8.35q2.15 1.65 2.9 4.15.8 2.35.2 5.5-.75 3.6-3.1 5.75m-6.35-5.2h.45l.4.65.45 1.05.65.85 1.4.15q.7-.4.8-1.15l-.35-1.35-.9-1.5-.5-.45.05-.5.25-.7q.15-.5-.25-.9-.4-.35-.9-.25-.65.15-.9.95l-.2.8-.9.1q-.45.1-2.3.85l-.65.5q-.2.25-.05.65l.4.45.75.05zM37.9 14.2q1.45-.1 1.85-1.4.2-.6-.05-1.2-.25-.65-.8-.95l-1.1-.3q-1 0-1.45.4-.65.65-.4 1.75.2.95.8 1.45z"/><path fill="#fff" d="M49.45 14.2q.65.4.8 1.15l.05.65q-.05.65-.7 1l-1.1.2q-.6-.1-1-.5-.35-.4-.4-1.05-.05-.6.3-1.05t.95-.55zm-11.55 0-1.15-.25q-.6-.5-.8-1.45-.25-1.1.4-1.75.45-.4 1.45-.4l1.1.3q.55.3.8.95.25.6.05 1.2-.4 1.3-1.85 1.4m3.75 4.35-2.3.25-.75-.05-.4-.45q-.15-.4.05-.65l.65-.5q1.85-.75 2.3-.85l.9-.1.2-.8q.25-.8.9-.95.5-.1.9.25.4.4.25.9l-.25.7-.05.5.5.45.9 1.5.35 1.35q-.1.75-.8 1.15l-1.4-.15-.65-.85-.45-1.05-.4-.65z"/></g></svg>