<svg xmlns="http://www.w3.org/2000/svg" xmlns:ffdec="https://www.free-decompiler.com/flash" ffdec:objectType="shape" width="76.6" height="42.2"><path fill-rule="evenodd" d="m28.5 8.8-1.15-.9q-1.3-.7-2.8-.75-1.55 0-2.8.75-1.55.8-2.35 2.7-.65 1.45-.45 3.05.3 1.65 1.8 2.8l.65.45.2-.05 1.4-.05 3.85.2q1.4-.8 1.95-1.6l.55-.9.55-2.1q.15-2.1-1.4-3.6m28.9 18.65q-2 1.5-3.1 2l-4.3 1.3L43.95 32q-12.6 2.05-24.65-2.4l-2.85-1.55q.3-1.05 1.5-1.65.7-.35 2.25-.55 3.65-.45 8.65 0l8.65 1.05 8.75.35Q51 27 54.6 25.3l2.2-.9 2.15-.05q.15 1-.2 1.8zm1.1-12.3q1.65-1.75.95-4.5-.5-2-2-3.15-2.05-1.65-4.95-.7-2.2.65-3.05 2.2-.85 1.5-.85 3.3l.25 1.25.65 1.2 1.05 1.2q1.25 1.15 3 1.15 1.65.05 3.15-.7zm5.35 9q-.2-1.95-2-3.3-2.25-1.85-5.15-1.6l-2.4.55-2.3.8q-3.65 1.2-8.3 1.1l-8.5-.9-8.45-1.1-8.4.45q-3.3.75-5.1 2.3-1.85 1.6-2.55 4.05-.5 1.9-.05 3.3.45 1.45 2 2.7 2.4 2.05 7.55 3.45 11.4 3.15 20.7 2.15l5.7-.9 7.6-1.8q4.05-1.35 6.7-3.6 1.6-1.35 2.25-2.75l.65-2.7zM.5.5h75.6v41.2H.5z"/><path fill="#fff" fill-rule="evenodd" d="m63.85 24.15-.05 2.2-.65 2.7q-.65 1.4-2.25 2.75-2.65 2.25-6.7 3.6l-7.6 1.8-5.7.9q-9.3 1-20.7-2.15-5.15-1.4-7.55-3.45-1.55-1.25-2-2.7-.45-1.4.05-3.3.7-2.45 2.55-4.05 1.8-1.55 5.1-2.3l8.4-.45 8.45 1.1 8.5.9q4.65.1 8.3-1.1l2.3-.8 2.4-.55q2.9-.25 5.15 1.6 1.8 1.35 2 3.3m-5.35-9-1.8 1.25q-1.5.75-3.15.7-1.75 0-3-1.15l-1.05-1.2-.65-1.2-.25-1.25q0-1.8.85-3.3.85-1.55 3.05-2.2 2.9-.95 4.95.7 1.5 1.15 2 3.15.7 2.75-.95 4.5m-1.1 12.3 1.35-1.3q.35-.8.2-1.8l-2.15.05-2.2.9Q51 27 46.25 27.25l-8.75-.35-8.65-1.05q-5-.45-8.65 0-1.55.2-2.25.55-1.2.6-1.5 1.65l2.85 1.55q12.05 4.45 24.65 2.4L50 30.75l4.3-1.3q1.1-.5 3.1-2M28.5 8.8q1.55 1.5 1.4 3.6l-.55 2.1-.55.9q-.55.8-1.95 1.6L23 16.8l-1.4.05-.2.05-.65-.45q-1.5-1.15-1.8-2.8-.2-1.6.45-3.05.8-1.9 2.35-2.7 1.25-.75 2.8-.75 1.5.05 2.8.75z"/><path fill="none" stroke="#fff" stroke-linecap="round" stroke-linejoin="round" d="M.5.5h75.6v41.2H.5z"/></svg>