<svg xmlns="http://www.w3.org/2000/svg" xmlns:ffdec="https://www.free-decompiler.com/flash" ffdec:objectType="shape" width="75.9" height="43.15"><g fill-rule="evenodd"><path d="M48.05 11.35q.1-1.15.85-2.85.65-1.5 1.25-2.5 1.55-1.95 3.9-2.65l-.65-1.9L53.2 0h9.25l-.6 4.35q1.1.6 2.05 1.5 1.65 1.55 2.35 3.55.45 1.4.4 2.65-.05 1.05-.65 2.65-.7 1.7-1.6 2.75-2.35 2.75-6.75 3.05-2.7.15-4.6-.8-1.75-1-3.35-3.35-1.8-2.7-1.65-5m11.55 2.4q-.55.4-.75 1.15-.2.7.1 1.35.35.65 1.05.95l1.35.1q.7-.2 1.1-.85t.3-1.35q-.2-1.15-1.2-1.55-1-.5-1.95.2m1.65-8.1-.55-.25-1.85-.3-.8.1-.8.35-.9.6q-.75.65-1 1.8-.2.9 0 1.8.25 1.2 1.3 1.95t2.3.6l.65-.15q.8-.25 1.35-.8l.4-.45.55-1.1.25-2.05q-.1-1.4-.9-2.1m-5.95 33.2-1.75-2.2Q52.4 34.85 52.2 33q-.15-1.9.85-3.95.8-1.6 2.3-3.35 1.3-1.55 2.6-2.4 1.3-.8 4-1.4l2.7-.4q2.1 0 4 1.2 1.85 1.15 2.8 3.05t.95 4.1q.05 2.15-.85 4.1l-.7 1.3 1.5 2 2.15 3.1 1.1 1.55.3 1.25H65.7l-.1-.3-.45-2.95q-2.55 1.05-4.85.9-3-.15-5-1.95M67.7 25.2q-.35-.65-1.1-.9-.7-.25-1.4 0-.65.25-1.05.9t-.3 1.35.65 1.25 1.25.6l1.35-.4q.65-.4.85-1.1.25-.95-.25-1.7M60.8 8.25l-.35.85q-.35.45-.9.55l-1.1-.15q-.5-.25-.7-.85-.2-.55 0-1.05l.75-.8 1.05-.2q.55.15.9.6.35.5.35 1.05m-10.35 5.2q.35.65 1.15.95l1.5-.05 1.05-1.05q.35-.8.1-1.5-.2-.75-.95-1.15-.7-.45-1.5-.25-.75.15-1.25.85-.45.65-.35 1.4zm-28.1 18.1q-2.7-4.3-1.05-10 .3-1.3.95-2.5.55-1.5 1.55-3 1.25-1.9 2.85-3.15 1.6-1.3 4.2-2.05l2.35-.75q2.35-.45 4.85-.05 3.2.6 5.45 2 2.9 1.55 4.75 4.35 1.95 2.9 2.25 6.2.35 3.25-1.1 6.35-1.4 3.15-4 5.15l-3 1.85.45 1.55.7 3.35.25 2.15v.15H26.05L26.6 41l.5-1.65.75-2.2.2-.55-1.6-.6q-2.5-1.35-3.8-4.1zm38 5.95.9-.4.55-.5q.55-.4 1.4-.85l1.55-.9q1.4-.95 2.4-1.35l1.15-.55.5-.9q.15-.55-.05-1.05-.55-1.1-1.7-.95-.35.05-1.15.5L64 31.8l-.85.45-1.65 1.3L60 35.1l-.9 1.1q-.4.85.3 1.3.4.2.95 0m-5.8-2.8q1.2 1 2.55.25l.95-.95.25-1.3q-.15-1.55-1.65-1.95-.65-.2-1.3 0-.7.25-1.1.75-.65.75-.5 1.65.1 1 .8 1.55M32.15 33l5.6-1.7 2.85-.85 2.95-.95q1.75-.7 2.65-1.8 1.15-1.5.45-3-.7-1.65-3.25-1.85l-5.4.8q-7 1.65-10.05 4.15-1.3 1-1.65 2.05-.4 1.2.15 2.3.65 1.2 1.8 1.5 1.35.35 3.9-.65M40 17q-.45 1.5.35 2.8.8 1.35 2.3 1.6 2 .35 3.3-1.2.55-.7.7-1.65t-.2-1.8q-.45-1.1-1.45-1.7-1.05-.55-2.2-.4-.95.1-1.7.75-.8.65-1.1 1.6m-18 .45q-2.2 4.1-6.1 5.65-2.05.8-4.2.65-2.2-.15-3.95-1.3Q5 20.75 4 17.25q-.5-2.05-.25-4.15l-1.65-.25-2.05-.65H0V0h4.25q3.3 3.2 4.6 5l.35-.2q1.6-.95 2.95-1.25l4-.15q2.1.4 3.7 1.6 1.6 1.25 2.55 3.1t1 3.85q.05 2.75-1.4 5.5M8.85 8.8v1.05l-.5.65Q7.25 11.65 6.6 13q-.95 1.9-.5 3.2.3.95 1.2 1.6l.95.4q.75.15 1.55-.3l1.15-1.05 1.3-2.05q1.3-2.2 1.7-3.8l.2-1v-.7l.15-.7-.35-1.2-.8-1.15q-.65-.45-1.85-.35-.85.1-1.25.45l-.55.75q-.65 1-.65 1.7m14.5 13q-.1.95.35 1.85l1.2 1.4q.85.5 1.8.5 1 0 1.8-.5.95-.65 1.35-1.75.35-.95.1-1.95-.25-.95-.95-1.65-1.05-1.05-2.55-.9-1.2.1-2.1.9-.85.85-1 2.1M16.5 8.75l-.1.8q-.1 1.15.8 2.05t2.15.8q1.6-.15 2.3-1.5.7-1.4-.1-2.8-.85-1.35-2.4-1.35L19 6.8l-.75.1-.85.5q-.65.55-.9 1.35m-4.35 3.3-.55 1.35-.55 1-.8 1.15-.5.4h-.7q-.4-.2-.5-.55-.15-.35 0-.75l.75-1.25.7-.95.6-1.6.25-1.25-.2-.75.3-.7q.3-.3.75-.3t.7.3q.35.4.35 1.2l-.3 2-.15.45-.1.15zm31.5 13.8-3.3 1.35-3.45 1.1-4.95 1.95-2.25.2q1.15-1.2 4.05-2.3l4.45-1.6 1.7-.35zm-31.1-3.55q.95.05 1.7-.6t.85-1.6q.1-.9-.5-1.7t-1.5-1q-1.6-.25-2.5 1.05-.4.55-.4 1.3-.05.75.3 1.35.75 1.2 2.05 1.2"/><path fill="#fff" d="M61.25 5.65q.8.7.9 2.1L61.9 9.8l-.55 1.1-.4.45q-.55.55-1.35.8l-.65.15q-1.25.15-2.3-.6t-1.3-1.95q-.2-.9 0-1.8.25-1.15 1-1.8l.9-.6.8-.35.8-.1 1.85.3zm-1.65 8.1q.95-.7 1.95-.2 1 .4 1.2 1.55.1.7-.3 1.35t-1.1.85L60 17.2q-.7-.3-1.05-.95-.3-.65-.1-1.35.2-.75.75-1.15m8.1 11.45q.5.75.25 1.7-.2.7-.85 1.1l-1.35.4q-.7-.05-1.25-.6t-.65-1.25.3-1.35 1.05-.9q.7-.25 1.4 0 .75.25 1.1.9M60.8 8.25q0-.55-.35-1.05-.35-.45-.9-.6l-1.05.2-.75.8q-.2.5 0 1.05.2.6.7.85l1.1.15q.55-.1.9-.55zm-10.35 5.2-.25-.8q-.1-.75.35-1.4.5-.7 1.25-.85.8-.2 1.5.25.75.4.95 1.15.25.7-.1 1.5l-1.05 1.05-1.5.05q-.8-.3-1.15-.95M40 17q.3-.95 1.1-1.6.75-.65 1.7-.75 1.15-.15 2.2.4 1 .6 1.45 1.7.35.85.2 1.8t-.7 1.65q-1.3 1.55-3.3 1.2-1.5-.25-2.3-1.6-.8-1.3-.35-2.8m-7.85 16q-2.55 1-3.9.65-1.15-.3-1.8-1.5-.55-1.1-.15-2.3.35-1.05 1.65-2.05Q31 25.3 38 23.65l5.4-.8q2.55.2 3.25 1.85.7 1.5-.45 3-.9 1.1-2.65 1.8l-2.95.95-2.85.85zm22.4 1.7q-.7-.55-.8-1.55-.15-.9.5-1.65.4-.5 1.1-.75.65-.2 1.3 0 1.5.4 1.65 1.95l-.25 1.3-.95.95q-1.35.75-2.55-.25m5.8 2.8q-.55.2-.95 0-.7-.45-.3-1.3l.9-1.1 1.5-1.55 1.65-1.3.85-.45 1.9-1.25q.8-.45 1.15-.5 1.15-.15 1.7.95.2.5.05 1.05l-.5.9-1.15.55q-1 .4-2.4 1.35l-1.55.9q-.85.45-1.4.85l-.55.5zM16.5 8.75q.25-.8.9-1.35l.85-.5.75-.1.15-.05q1.55 0 2.4 1.35.8 1.4.1 2.8-.7 1.35-2.3 1.5-1.25.1-2.15-.8t-.8-2.05zm6.85 13.05q.15-1.25 1-2.1.9-.8 2.1-.9 1.5-.15 2.55.9.7.7.95 1.65.25 1-.1 1.95-.4 1.1-1.35 1.75-.8.5-1.8.5-.95 0-1.8-.5l-1.2-1.4q-.45-.9-.35-1.85m-14.5-13q0-.7.65-1.7l.55-.75q.4-.35 1.25-.45 1.2-.1 1.85.35l.8 1.15.35 1.2-.15.7v.7l-.2 1q-.4 1.6-1.7 3.8l-1.3 2.05L9.8 17.9q-.8.45-1.55.3l-.95-.4q-.9-.65-1.2-1.6-.45-1.3.5-3.2.65-1.35 1.75-2.5l.5-.65zm3.3 3.25.05-.1.1-.15.15-.45.3-2q0-.8-.35-1.2-.25-.3-.7-.3t-.75.3l-.3.7.2.75-.25 1.25-.6 1.6-.7.95-.75 1.25q-.15.4 0 .75.1.35.5.55h.7l.5-.4.8-1.15.55-1zm.4 10.25q-1.3 0-2.05-1.2-.35-.6-.3-1.35 0-.75.4-1.3.9-1.3 2.5-1.05.9.2 1.5 1t.5 1.7q-.1.95-.85 1.6t-1.7.6m31.1 3.55-3.75.35-1.7.35-4.45 1.6q-2.9 1.1-4.05 2.3l2.25-.2 4.95-1.95 3.45-1.1z"/></g></svg>