<svg xmlns="http://www.w3.org/2000/svg" xmlns:ffdec="https://www.free-decompiler.com/flash" ffdec:objectType="shape" width="75.95" height="41.1"><g fill-rule="evenodd"><path fill="#999" d="M6.3.2h9.5v9.75l-2.25.75-2.25-3.5-.3-.45.4-1.1q0-.85-.55-1.5-.6-.6-1.45-.7l-.75.05-.2-.25.2-.05q.55-.2.55-.75t-.6-.75q-.6-.1-.85.45v.05zm12.95 0h11.6L25.95 5l-4.9 5.05-.1-.05-.45-.1-1.15-8.7zM33.3.2h16.55l-1 .55-11.35 5.9-11.5 5.7-.2.1-.45-.35 1.55-2.55q2.35-3.9 3.8-5.85zm19.65 0H75.6v17.05l-.05-.05-.15-.05-.15-.05h-.55l-.45-.05h-.35l-.3-.05h-.55l-2.9-.05h-.35l-.25-.05h-.4l-.45-.05h-.8l-1-.05h-.65l-.75-.05H65l-.5-.05h-.35l-.5-.05h-.4l-.4-.05h-.2l-.55-.05-.6-.05h-.6l-.6-.05h-.55l-.55-.05h-.35l-.5-.05H58l-.4-.05h-.45l-.55-.05h-.35L56 16.2h-.25l-.35-.05h-.3l-.4-.05H54l-.45-.05h-1.1l-.7-.05h-.6l-.45-.05h-.25l-.3-.05h-.35l-.6-.05-.85-.05h-.55l-.65-.05h-.65l-.4-.05h-.35l-.3-.05H45l-.9-.05h-.5l-.9-.05h-1.1l-.4-.05H41l-.15-.05h-.3l-.3-.05h-.4l-.35-.05h-.8l-1.1-.05h-1.25l-.65-.05h-.85l-.25-.05h-.1l-.1-.05h-.15l-.3-.05-.3-.05h-.4L32.9 15h-.3l-.15-.05h-.15l-.15-.05h-.25l-.25-.05h-.35l-.4-.05h-.3l6.3-3.9q5.85-3.6 9.15-6l4.45-3.2zM75.6 18.25V41.1H29.7l-3.9-12.3 1.85-2.25q6.4 2.95 12.05 6.2l5 2.9q4.6 2.45 8.5 3.75 3.2 1.15 5.25 1.3.8 0 .8-.4l-.3-.5-2.05-.8q-1.7-.55-4.55-2.2-5.8-3.4-8.15-5.35l-2.3-2q-1.6-1.25-4.6-3.05l-8.15-4.5.05-1.2.35-.05h.4l.95-.05h.4l.35-.05h.25l.25-.05h.15l.15-.05h.15l.3-.05h.35l.4-.05h.3l.3-.05h.15l.1-.05.1-.05h.25l.85-.05h.65l1.25-.05h1.1l.8-.05h.35l.4-.05h.3l.3-.05H41l.2-.05h.4l1.1-.05h.9l.5-.05h.9l.45-.05h.3l.35-.05h.4l.65-.05h.65l.55-.05h.85l.6-.05.35-.05h.3l.25-.05h.45l.6-.05h.7l1.1-.05H54l.7-.05h.4l.3-.05h.35l.25-.05h.25l.35-.05h.55l.45-.05h.4l.35-.05h.5l.35-.05h.55l.55-.05h.6l.6-.05h.6l.55-.05h.2l.4-.05.4-.05h.5l.35-.05h.5l.5-.05h.75l.65-.05h1l.8-.05h.45l.4-.05h.25l.35-.05h2.9l.55-.05h.3l.35-.05h.45l.55-.05h.15l.1-.05zM26.5 41.1h-8.75l.15-3.3.3-5.85 3.2-.7zm-12.7 0H1.2l4-4.7 2.45-3.05 2.1-2.4.45.25q1.3.75 3.2.95l.05 2q-.05 2.5.35 6.95M.4 38.4v-8.3l5.5-4.05v.1l.9 1.75-.3.4-1.35 1.95L3.7 32.8zm0-12.1v-4.25h.4l.8.05h.45l.35.05h.25l.1.05h.1l.25.05h.15l.1.05h.15l.15.05H4l.15.05.2.05-2.45 2.3zm0-7.95v-5.6l1.05.9L5.6 17.1l.75.6h-.7l-.35.05H5l-.3.05h-.15l-.1.05h-.1l-.2.05-.15.05-.35.05H3.5l-.15.05-.1.05H3.1l-.25.05h-.1l-.1.05H2.4l-.35.05H1.6l-.8.05H.45zm0-10.1V.2h2.75l.35.7 2.3 4.65q-.6.05-.75.75L5 6.5l.1.5.45.4 1.1-.05.5 1.1L9.3 13.3l.1.15-.8.85-6.55-4.85zM13.1 26.1l-.75-.8q-.5-.5-.7-1.05l-.15-1.65q.15-2.55 1.85-4.55l1.05-1.1q1.2-.95 3.1-1.45l.45-.1q.15.75.85 1.35 1.1.95 2.5.45l1.05-.75.1.1q1.15 1.15 1.5 3.25.55 3.1-1.15 5.15l-.2.2-.35.05q-1.35.25-1.85 1.5v.05l-.3.15-.4.2-.6-.15-1.35-.1-1.4.05-1.95-.35z"/><path fill="#fff" d="m3.15.2-.1-.2h3.1l.15.2 1.45 2v-.05Q8 1.6 8.6 1.7q.6.2.6.75t-.55.75l-.2.05.2.25.75-.05q.85.1 1.45.7.55.65.55 1.5l-.4 1.1.3.45 2.25 3.5 2.25-.75V0h3.4l.05.2.1 1 1.15 8.7.45.1.1.05L25.95 5l4.9-4.8.2-.2h2.4l-.15.2-2.6 3.5q-1.45 1.95-3.8 5.85l-1.55 2.55.45.35.2-.1 11.5-5.7L48.85.75l1-.55.4-.2h3.05l-.35.2-2.45 1.5-4.45 3.2q-3.3 2.4-9.15 6l-6.3 3.9h.3l.4.05h.35l.25.05h.25l.15.05h.15l.15.05h.3l.35.05h.4l.3.05.3.05h.15l.1.05h.1l.25.05h.85l.65.05h1.25l1.1.05h.8l.35.05h.4l.3.05h.3l.15.05h.2l.4.05h1.1l.9.05h.5l.9.05h.45l.3.05h.35l.4.05h.65l.65.05h.55l.85.05.6.05h.35l.3.05h.25l.45.05h.6l.7.05h1.1l.45.05h.7l.4.05h.3l.35.05H56l.25.05h.35l.55.05h.45l.4.05h.35l.5.05h.35l.55.05h.55l.6.05h.6l.6.05.55.05h.2l.4.05h.4l.5.05h.35l.5.05h.5l.75.05h.65l1 .05h.8l.45.05h.4l.25.05h.35l2.9.05h.55l.3.05h.35l.45.05h.55l.15.05.15.05.05.05h.15l.1.1.05.1v.05l.05.1v.3l-.05.05-.05.1-.1.1-.1.05-.05.05h-.1l-.1.05h-.15l-.55.05h-.45l-.35.05h-.3l-.55.05h-2.9l-.35.05h-.25l-.4.05h-.45l-.8.05h-1l-.65.05h-.75l-.5.05h-.5l-.35.05h-.5l-.4.05-.4.05h-.2l-.55.05h-.6l-.6.05h-.6l-.55.05h-.55l-.35.05h-.5l-.35.05h-.4l-.45.05h-.55l-.35.05H56l-.25.05h-.35l-.3.05h-.4l-.7.05h-.45l-1.1.05h-.7l-.6.05h-.45l-.25.05h-.3l-.35.05-.6.05h-.85l-.55.05h-.65l-.65.05h-.4l-.35.05h-.3l-.45.05h-.9l-.5.05h-.9l-1.1.05h-.4l-.2.05h-.15l-.3.05h-.3l-.4.05h-.35l-.8.05h-1.1l-1.25.05h-.65l-.85.05h-.25l-.1.05-.1.05h-.15l-.3.05h-.3l-.4.05h-.35l-.3.05h-.15l-.15.05h-.15l-.25.05h-.25l-.35.05h-.4l-.95.05h-.4l-.35.05-.05 1.2 8.15 4.5q3 1.8 4.6 3.05l2.3 2q2.35 1.95 8.15 5.35 2.85 1.65 4.55 2.2l2.05.8.3.5q0 .4-.8.4-2.05-.15-5.25-1.3-3.9-1.3-8.5-3.75l-5-2.9q-5.65-3.25-12.05-6.2L25.8 28.8l3.9 12.3h-3.2l-5.1-9.85-3.2.7-.3 5.85-.15 3.3H13.8q-.4-4.45-.35-6.95l-.05-2q-1.9-.2-3.2-.95l-.45-.25-2.1 2.4L5.2 36.4l-4 4.7H0v-2.05l.15-.25.25-.4 3.3-5.6 1.45-2.55L6.5 28.3l.3-.4-.9-1.75v-.1L.4 30.1l-.4.3v-3.7l.4-.4 1.5-1.55 2.45-2.3-.2-.05-.15-.05h-.35l-.15-.05h-.15l-.1-.05H3.1l-.25-.05h-.1l-.1-.05H2.4l-.35-.05H1.6l-.8-.05H.4L.35 22H.2l-.15-.05H0v-3.5l.1-.05.1-.05h.2l.05-.05H.8l.8-.05h.45l.35-.05h.25l.1-.05h.1l.25-.05h.15l.1-.05.15-.05h.15l.35-.05.15-.05.2-.05h.1l.1-.05h.15l.3-.05h.3l.35-.05h.7l-.75-.6-4.15-3.45-1.05-.9-.4-.35V8l.4.25 1.65 1.2L8.6 14.3l.8-.85-.1-.15-2.15-4.85-.5-1.1-1.1.05L5.1 7 5 6.5l.05-.2q.15-.7.75-.75L3.5.9zm9.95 25.9 1.3.45 1.95.35 1.4-.05 1.35.1.6.15.4-.2.3-.15v-.05q.5-1.25 1.85-1.5l.35-.05.2-.2q1.7-2.05 1.15-5.15-.35-2.1-1.5-3.25l-.1-.1-1.05.75q-1.4.5-2.5-.45-.7-.6-.85-1.35l-.45.1q-1.9.5-3.1 1.45l-1.05 1.1q-1.7 2-1.85 4.55l.15 1.65q.2.55.7 1.05z"/><path d="M36.5 8.9q2.75-1.9 6.65-2h.7l2.85-3q.55-.45.9-.6.85-.25 1.6.45l1.1 1.35L52.1 8l.65 1.4q.85 1.9 1 3.2 1.15 2.8.35 6.7-.45 1.9-1.15 3.15l-1.35 1.8 1.5-.05q1.3.2 3.1.9 1.5.55 2.65 1.25-.6-1.45-.35-2.4.25-1 1.4-1.9.65-.55 2.05-1.6l-1-3.1q-.35-1.5-.1-2.55.2-1 .9-1.75.65-.8 1.6-1.05.95-.3 1.95 0 .95.25 1.6 1.05t.7 2q.05 1.1-.45 2.1l-.8 1.65.05 1.65q.2 1.9-.55 2.95l-1.4 1.15q-1.2.65-1.55.95.15.75 1.2 2.6.95 1.6.7 2.75-.2.9-1 1.85v.05l.35 1.8q.2 1.8-.25 2.95-.65 1.7-2.05 2-1.35.3-2.4-.8-.7-.75-.65-1.7l-1.7 1.15-3.2 2.2v.05l-.8.7H36.15q-.3-.8.15-1.4l.95-.85 3.05-2.2L43 34.4q1.4-1.45 1.45-3.15L44.4 30l-5.45 3.05-5.55 2.2-5.4 1-5.15.3q-3.35-.25-6.3-1.75-2.65-1.35-3.15-3.3-.25-1.2.15-2.15L12.5 29q-1.4-.55-2.7-2.15-1.75-2.3-2-4.95l-.05-1.7q.05-.8.25-1.45l.5-1.5 1.4-2.3q1.1-1.5 2.2-2.15l1.65-.65v-.2q-.1-1 .05-1.45l.75-.85 1.05-.4h.1v-1.4l-.25-.55-.4-.1q-1.7-.1-2.45.45l-.85.9-.85.85-1.8.05Q8.2 9.05 8.05 8q-.1-.65.15-1.65l.25-.65q.3-.35.65-.3l.4.45.05.6-.15.8.2.5.3.25.45-.2.85-1.2q.5-.8 1-1.1l1-.35 2.9-.1q1.1.35 1.75 1.45.55.85.7 2.15l.05.4.85.15.95.75q.3.55.15 1.2l-.25.5-.05.25q1.8.35 3.3 1.4 1.75 1.2 2.8 3.1 1 1.9 1.05 4 .05 2.15-.95 4.1-.95 1.9-2.65 3.15l-1.95 1.15.2.4 1.25 2.6q6.3.6 12.45-1.4l4.5-1.75q.8-.35 1.55-.6l-1.35-.15q-4.8-.8-7.15-4.65-1.6-2.75-1.5-6.55l-.35-.35-1.35-1.55-.6-.95q-.35-.55-.35-1.3-.1-.95.5-1.45.45-.4 1.5-.5l1.65-.2 2.05-.1zm4.8 11.6-.15-.55-.4-.3-.2.2-.2.75v.75l.1.3.1.05q0 .25.15.3l.3.2.4.4h.65l.7-.05.8-.9.15-.15.15.1.8.2.85-.25.35-.25.4-.75.05-.75-.05-.6-.3-.7-.35-.35-.4-.25h-.3q-.4.15-.5.6l.1.25.15.2.5.75.1.4-.25.35-.7.15-.45-.35-.55-.2-.4.5v.35l-.25.35-.2.2H42l-.4-.2-.3-.35zm8.1-6.9-.4-.5q-1.15-.95-2.55-.55l-.3.15v.2q.1 2.15-.5 3.25l-.5.7.8.6 2.8-.15q1.35-1 1.1-2.55l-.15-.55zm3.8 14.65q.75 1.25 1.25 3.85l.55 3.25 1.2-.95 2.7-2.05-.65-1.15-1.55-1.7q-1.25-1.1-3.15-2.15l-1.6-.65zM22.05 18.5l.45.3q.5.35.5 1.15-.1.7-.65 1.1l-1.4.1q-.7-.4-.8-1.2 0-.8.6-1.25zM35 22.65l1.7.2q.9-.15 1.5-.75.65-.6.8-1.5v-1.15l-1.25-.15-1.4-.9-1.15-1.05q-.75.3-1.3 1.05-.5.7-.5 1.65v.5l.15.5q.4 1.1 1.45 1.6m-14.25-7.2-1.45-.35-3.05.15q-1.5.4-2.55 1.7-1 1.25-1.2 2.8v1q.2 1.55 1.8 2.45-.35.75.2 1.6.7 1 1.9.75l.4-.15.15.1q.6.5 1.5.35l.95-.6 1.35-.2q.8-.55.7-1.5l-.1-.45.4-.35 1.15-1.65.4-1q.25-1.2-.3-2.35-.7-1.7-2.25-2.3m-4.45 5q-.15.8-.95 1.05-1.05.4-1.75-.5-.3-.35-.3-.9 0-.5.25-.9.7-.95 1.75-.6.55.2.85.75z"/><path fill="#fff" d="m49.4 13.6.3.6.15.55q.25 1.55-1.1 2.55l-2.8.15-.8-.6.5-.7q.6-1.1.5-3.25v-.2l.3-.15q1.4-.4 2.55.55zm-8.1 6.9v.4l.3.35.4.2h.45l.2-.2.25-.35v-.35l.4-.5.55.2.45.35.7-.15.25-.35-.1-.4-.5-.75-.15-.2-.1-.25q.1-.45.5-.6h.3l.4.25.35.35.3.7.05.6-.05.75-.4.75-.35.25-.85.25-.8-.2-.15-.1-.15.15-.8.9-.7.05h-.65l-.4-.4-.3-.2q-.15-.05-.15-.3l-.1-.05-.1-.3v-.75l.2-.75.2-.2.4.3zm-19.25-2-1.3.2q-.6.45-.6 1.25.1.8.8 1.2l1.4-.1q.55-.4.65-1.1 0-.8-.5-1.15zm-1.3-3.05q1.55.6 2.25 2.3.55 1.15.3 2.35l-.4 1-1.15 1.65-.4.35.1.45q.1.95-.7 1.5l-1.35.2-.95.6q-.9.15-1.5-.35l-.15-.1-.4.15q-1.2.25-1.9-.75-.55-.85-.2-1.6-1.6-.9-1.8-2.45v-1q.2-1.55 1.2-2.8 1.05-1.3 2.55-1.7l3.05-.15zM35 22.65q-1.05-.5-1.45-1.6l-.15-.5v-.5q0-.95.5-1.65.55-.75 1.3-1.05l1.15 1.05 1.4.9 1.25.15v1.15q-.15.9-.8 1.5-.6.6-1.5.75zm-18.7-2.2-.15-1.1q-.3-.55-.85-.75-1.05-.35-1.75.6-.25.4-.25.9 0 .55.3.9.7.9 1.75.5.8-.25.95-1.05"/></g></svg>