<svg xmlns="http://www.w3.org/2000/svg" xmlns:ffdec="https://www.free-decompiler.com/flash" ffdec:objectType="shape" width="75.6" height="41.35"><g fill-rule="evenodd"><path fill="#999" d="M25.4 37.9q-3.7-1.6-5.3-3.4-2.9-3.15-2.9-9.35 0-5.4 2.15-10.2l-.15-.55-.05-.1v-.1l-.5-1.1-.4-1.6L18 11l-.85-3.15-.25-.95-.35-2.35.2-1.2.4-.5.35-.25.45-.15 1.2.1 2.15.75 1.65.75 2.7 1.4 1.25.65q3.65-2.3 8.3-2.9L38 3q3.15-.05 5.8.75l1.8.65q1.6.7 3.25 1.95l1.05-.5 2.5-1 1.45-.5 1.65-.6.55-.25 1.75-.7q1.2-.2 1.75.45.6.65.4 1.8l-.2.8-3.6 9.05.25.6q.65 1.5 1 4.1.6 4.85-.7 9.2-1.45 4.7-4.85 7.5Q46.6 40.6 36 40.2l-5.4-.6q-2.2-.45-5.2-1.7"/><path d="M25.4 37.9q3 1.25 5.2 1.7l5.4.6q10.6.4 15.85-3.9 3.4-2.8 4.85-7.5 1.3-4.35.7-9.2-.35-2.6-1-4.1l-.25-.6 3.6-9.05.2-.8q.2-1.15-.4-1.8Q59 2.6 57.8 2.8l-1.75.7-.55.25-1.65.6-1.45.5-2.5 1-1.05.5Q47.2 5.1 45.6 4.4l-1.8-.65Q41.15 2.95 38 3l-2.8.2q-4.65.6-8.3 2.9l-1.25-.65-2.7-1.4-1.65-.75-2.15-.75-1.2-.1-.45.15-.35.25-.4.5-.2 1.2.35 2.35.25.95L18 11l.25.5.4 1.6.5 1.1v.1l.05.1.15.55q-2.15 4.8-2.15 10.2 0 6.2 2.9 9.35 1.6 1.8 5.3 3.4M0 0h75.6v41.35H0z"/><path d="m53.25 26.9-1.45.25-.95.05-.55.6q-.55.4-1.45.5-2.05.15-3.35-1.45-.55-.65-.6-1.2l-1.35-.1-1.4-.05q-.65-.2-1.05-.75-.45-.6-.45-1.25.05-.65.5-1.2l1.1-.65.95-.05q3.45.2 5.25.95l2.25 1 2.3.15 1.1-.05q.55.25.65.9.2.7-.3 1.45zM28.8 36.7q-.7 0-1.15-.6-.4-.6-.2-1.25.2-.7 1.6-1.45 3-1.4 6.5-2.7l.5-.1.1-.75.05-.05.2-1.05q.35-.7 1-.85l.45-.05.4.05q.65.15 1 .85l.25 1.05v.05l.15.75.45.1q3.5 1.3 6.5 2.7 1.4.75 1.6 1.45.2.65-.2 1.25-.45.6-1.15.6l-.7-.15-7.4-2.05-.9-.35-.95.35-7.4 2.05zm-6.4-9.8q-.85-.35-1.2-.9-.5-.75-.3-1.45.1-.65.65-.9l1.1.05 2.3-.15 2.25-1q1.8-.75 5.25-.95l.95.05q.65.1 1.1.65t.5 1.2l-.45 1.25-1.05.75-1.4.05-1.35.1-.6 1.2q-1.3 1.6-3.35 1.45l-1.45-.5-.55-.6-.95-.05z"/><path fill="#999" d="M72.4 22.05v.05h.15l.1.05.15.15v.1l.05.1v.5l.05.1v.3l.05.1.05.1v.65l.05.1v.9l.05.15v.2l.05.1v.1l.05.1v.1l.05.1v.1l.05.1.05.1v.3l.1.1v.25l.1.1v.1l.1.1v.1l.1.1.05.1v.1l.05.1.05.1v2.8l-.05.1v.2l-.05.1v.1l-.05.1-.05.1-.05.1-.1.1-.1.15-.1.1-.1.1-.15.1-.3.1-.4.05-.3-.05-.2-.05-.2-.1-.15-.1-.15-.1-.1-.1-.05-.1-.1-.1-.05-.1-.05-.1-.05-.1v-.15l-.05-.1v-.2l-.05-.1v-2.65l.05-.15.05-.1v-.1l.05-.1.1-.1v-.1l.1-.1v-.1l.1-.1v-.2l.1-.1v-.3l.05-.15.05-.1v-.2l.05-.1.05-.1v-.1l.05-.1v-.2l.05-.1v-.95l.05-.1v-.6l.05-.1.05-.1v-.35l.05-.1v-.5l.05-.1v-.1l.1-.1.1-.1zM67.9 11.4v.05h.25l.1.1.1.1.05.1.1.1.05.1.05.1v.1l.05.1.05.1v.55l.05.1v.6l.05.1v1.55l.05.1v.3l.05.1v.45l.05.1v.2l.05.1.05.1.05.1.05.1v.1l.05.1v.1l.05.1v.2l.05.15.05.1.05.1v.1l.05.1v.2l.05.1.05.1v.4l.05.1V20l-.05.1v.3l-.05.1-.05.1v.1l-.1.15-.05.1-.05.1-.1.1-.15.1-.1.1-.2.1-.25.1-.2.05-.35.05-.3-.05h-.15l-.1-.05-.15-.05-.15-.1-.15-.1-.15-.15-.05-.1-.1-.1-.1-.1v-.1l-.1-.1-.05-.1v-.1l-.05-.1-.05-.1V18.8l.05-.1v-.2l.05-.1v-.2l.05-.15.05-.1.05-.1v-.1l.05-.1.05-.1v-.2l.05-.1.05-.1v-.1l.05-.1.05-.1v-.1l.05-.1.05-.1V16l.05-.1v-.1l.05-.1v-.3l.05-.1v-1.55l.05-.1V13l.05-.1v-.5l.05-.1.05-.1v-.1l.05-.1.05-.1.05-.1.1-.15.05-.1.15-.1zm-4.95-6.35v.05h.15l.15.05.15.1.1.1.05.1.05.1v.1l.05.1V7.1l.05.1.05.1.05.1v.1l.05.1.05.15v.2l.05.1v.1l.05.1v.2l.05.1v.1l.05.1v.1l.05.1.05.1v.35l.05.1v.5l.05.1v.3l.05.1v.1l.05.1.05.1v1.05l-.05.1v.1l-.05.1-.05.1-.1.1-.05.1-.05.15-.1.1-.15.1-.15.1-.2.1-.25.05-.3.05-.3-.05h-.15l-.15-.1-.2-.1-.15-.1-.1-.1-.1-.1-.05-.1-.05-.1-.1-.1-.05-.1v-.1l-.05-.15-.05-.1v-.9l.05-.1.05-.1v-.1l.05-.1v-.35l.05-.1v-.5l.05-.1v-.3l.05-.1.05-.1v-.1l.05-.15v-.1l.05-.1v-.2l.05-.1v-.1L62 8v-.2l.05-.1.05-.1.05-.1v-.1l.05-.1.05-.15v-1.3l.05-.1v-.1l.05-.15.05-.1.05-.1.1-.1.2-.1zm8.85-3.7v.05h.3l.15.1.1.1.1.15.05.1.05.1v.3l.05.1.05.1v.4l.05.1v.1l.05.1v.35l.05.1.05.1.05.1.05.1.05.1v.1l.05.1v.1l.05.1v.45l.05.1v.1l.05.1.05.1.05.1v.1l.05.1v.5l.05.1v.95l-.05.1v.5l-.05.1-.05.1-.05.15-.05.1-.05.1-.1.1-.05.1-.1.1-.15.1-.15.1-.2.1-.25.05-.3.05-.35-.05-.2-.05-.25-.1-.1-.1-.15-.1-.1-.1-.1-.1-.1-.1v-.1l-.1-.1V7.9l-.05-.1-.05-.1v-.3l-.05-.1v-.2l-.05-.1v-.75l.05-.1v-.3l.05-.1v-.3l.05-.1.05-.1v-.1l.05-.1.05-.1V4.4l.05-.1.05-.1v-.1l.05-.1.05-.1.05-.1.05-.1.05-.1v-.3l.05-.15v-.1l.05-.1v-.4l.05-.1.05-.1v-.3l.05-.1.05-.1.05-.1.1-.15.1-.1.15-.1zM64 29.3v.05h.2l.1.1.15.1v.55l.05.1v.1l.05.1v1.45l.05.1.05.1v.4l.05.1v.1l.05.1.1.1.05.1.1.15v.1l.05.1.05.1v.1l.05.1.05.1.05.1.05.1v.1l.05.1v.2l.05.1v.45l.05.1v.2l.05.1v1.45l-.05.1v.3l-.05.1v.3l-.05.1-.05.1-.05.15-.05.1-.1.1-.05.1-.1.1-.15.1-.15.1-.25.1-.4.05-.45-.05-.2-.1-.2-.1-.15-.1-.1-.1-.05-.1-.1-.1v-.1l-.1-.15v-.1l-.05-.1-.05-.1v-.3l-.05-.1v-.3l-.05-.1v-1.25l.05-.1v-.2l.05-.1v-.45l.05-.1v-.2l.05-.1V34l.05-.1.05-.1.05-.1.05-.1.05-.1v-.2l.1-.1v-.1l.1-.15.05-.1.05-.1.05-.1v-.1l.05-.1v-.1l.05-.1v-.2l.05-.1V30.8l.05-.1v-.4l.05-.1v-.3l.05-.15v-.2l.1-.1.1-.1zM12.9 5.05l.2.05.2.1.1.1.05.1.05.1.05.15v.1l.05.1v1.3l.05.15.05.1v.1l.05.1.05.1.05.1V8l.05.1v.1l.05.1v.2l.05.1v.1l.05.15v.1l.05.1.05.1v.3l.05.1v.5l.05.1v.35l.05.1v.1l.05.1.05.1v.9l-.05.1-.05.15v.1l-.05.1-.1.1-.05.1-.05.1-.1.1-.1.1-.15.1-.2.1-.15.1h-.15l-.3.05-.3-.05-.25-.05-.2-.1-.15-.1-.15-.1-.1-.1-.05-.15-.05-.1-.1-.1-.05-.1-.05-.1v-.1l-.05-.1V10.8l.05-.1.05-.1v-.1l.05-.1v-.3l.05-.1v-.5l.05-.1v-.35l.05-.1.05-.1v-.1l.05-.1v-.1l.05-.1v-.2l.05-.1v-.1l.05-.1v-.2L12 7.6l.05-.1v-.1l.05-.1.05-.1.05-.1V5.75l.05-.1v-.1l.05-.1.05-.1.1-.1.15-.1.15-.05h.15zm-8.85-3.7.3.05.15.1.1.1.1.15.05.1.05.1.05.1v.3l.05.1.05.1v.4l.05.1v.1l.05.15v.3l.05.1.05.1.05.1.05.1.05.1v.1l.05.1.05.1v.55l.05.1.05.1v.1l.05.1.05.1v.3l.05.1v.3l.05.1V7l-.05.1v.2l-.05.1v.3l-.05.1-.05.1v.15l-.1.1v.1l-.1.1-.1.1-.1.1-.15.1-.1.1-.25.1-.2.05-.35.05-.3-.05-.25-.05-.2-.1-.15-.1-.15-.1-.1-.1-.05-.1-.1-.1-.05-.1-.05-.1-.05-.15-.05-.1-.05-.1v-.5l-.05-.1v-.95l.05-.1v-.5l.05-.1v-.1l.05-.1.05-.1.05-.1v-.1l.05-.1V4.4l.05-.1v-.1l.05-.1V4l.05-.1.05-.1.05-.1.05-.1.05-.1v-.35l.05-.1v-.1l.05-.1v-.4l.05-.1.05-.1v-.3l.05-.1.05-.1.1-.15.1-.1.15-.1h.3zm3.9 10.05.2.05.15.1.05.1.1.15.05.1.05.1.05.1v.1l.05.1.05.1v.5l.05.1v.65l.05.1v1.55l.05.1v.3l.05.1v.1l.05.1v.55l.05.1.05.1v.1l.05.1.05.1v.1l.05.1.05.1v.2l.05.1.05.1v.1l.05.1.05.1.05.15v.2l.05.1v.2l.05.1v1.45l-.05.1-.05.1v.1l-.05.1-.1.1v.1l-.1.1-.1.1-.05.1-.15.15-.15.1-.15.1-.15.05-.1.05h-.15l-.3.05-.35-.05-.2-.05-.25-.1-.2-.1-.1-.1-.15-.1-.1-.1-.05-.1-.05-.1-.1-.15v-.1l-.05-.1-.05-.1v-.3l-.05-.1v-1.05l.05-.1v-.4l.05-.1.05-.1v-.2l.05-.1v-.1l.05-.1.05-.1.05-.15v-.2l.05-.1v-.1l.05-.1v-.1l.05-.1.05-.1.05-.1.05-.1v-.2l.05-.1v-.45l.05-.1v-.3l.05-.1V13.7l.05-.1V13l.05-.1v-.55l.05-.1.05-.1v-.1l.05-.1.05-.1.1-.1.05-.1.1-.1.1-.1h.25zm-4.5 10.65.2.1.1.1.1.1v.1l.05.1v.5l.05.1v.35l.05.1.05.1v.6l.05.1v.95l.05.1v.2l.05.1v.1l.05.1.05.1v.2l.05.1.05.15v.3l.1.1v.2l.1.1v.1l.1.1v.1l.1.1.05.1v.1l.05.1.05.15v2.65l-.05.1v.2l-.05.1v.15l-.05.1-.05.1-.05.1-.1.1-.05.1-.1.1-.15.1-.15.1-.2.1-.2.05-.3.05-.4-.05-.3-.1-.15-.1-.1-.1-.1-.1-.1-.15-.1-.1-.05-.1-.05-.1-.05-.1v-.1l-.05-.1v-.2l-.05-.1v-2.8l.05-.1.05-.1v-.1l.05-.1.1-.1v-.1l.1-.1v-.1l.1-.1v-.25l.1-.1v-.3l.05-.1.05-.1v-.1l.05-.1v-.1l.05-.1v-.1l.05-.1v-.2l.05-.15v-.9l.05-.1v-.65l.05-.1.05-.1v-.3L3 23v-.5l.05-.1v-.1l.15-.15.1-.05h.15zm8.4 7.25.25.05.1.1.1.1v.2l.05.15v.3l.05.1v.4l.05.1v1.15l.05.1v.2l.05.1v.1l.05.1v.1l.05.1.05.1.05.1.1.15v.1l.1.1v.2l.05.1.05.1.05.1.05.1.05.1v.1l.05.1v.2l.05.1v.45l.05.1v.2l.05.1v1.25l-.05.1v.3l-.05.1v.3l-.05.1-.05.1v.1l-.1.15v.1l-.1.1-.05.1-.1.1-.15.1-.2.1-.2.1-.45.05-.4-.05-.25-.1-.15-.1-.15-.1-.1-.1-.05-.1-.1-.1-.05-.1-.05-.15-.05-.1-.05-.1v-.3l-.05-.1v-.3l-.05-.1v-1.45l.05-.1v-.2l.05-.1v-.45l.05-.1v-.2l.05-.1v-.1l.05-.1.05-.1.05-.1.05-.1v-.1l.05-.1.05-.1v-.1l.1-.15.05-.1.1-.1.05-.1v-.1l.05-.1v-.4l.05-.1.05-.1V30.4l.05-.1v-.1l.05-.1v-.55l.15-.1.1-.1h.2z"/></g></svg>