<svg xmlns="http://www.w3.org/2000/svg" xmlns:ffdec="https://www.free-decompiler.com/flash" ffdec:objectType="shape" width="71.75" height="42.2"><g fill-rule="evenodd"><path d="m31.55 8.6 2.35-3.5q.6-1.45.95-1.8.4-.3.95-.35h.3q.5.05.95.35L38 5.1l2.35 3.5q2.9 3.6 5 7.3 2.45 4.15 3.2 7.55 1.05 4.4-.35 8.1-1 2.65-3.3 4.55t-5.15 2.55l-4.85.3-1.55-.1-1.2-.2Q29.3 38 27 36.1t-3.3-4.55q-1.4-3.7-.35-8.1.75-3.4 3.2-7.55 2.1-3.7 5-7.3"/><path fill="#717171" d="m4.3 39.75.65.95q.15.55-.25 1.05l-.55.45H2.6l-1-.75q-1.35-1.4-1.55-4.7-.25-5.55 1.9-12 1.75-5.1 5.15-11.1 2.65-4.95 5-8.1Q13.75 3.3 16.7 0h2.7l-4.55 6.85q-3.6 5.4-5.5 8.75-5.9 10.65-6.1 19.55 0 3.15 1.05 4.6m5.85-4.25q-1.3-4.9.3-10.55 1.2-4.55 4.25-9.75Q19 7.8 24.6 1.85L26.35 0h3.45q-7.05 10.25-10.4 15.8-2.55 4.15-3.65 7.1-1.6 4.2-1.35 7.8.15 2.9 1.55 5.7.75 1.5 1.75 2.5l2.1 1.65 1.95 1.65h-7.9q-2.6-2.6-3.7-6.7m30-33.35q1.15 2.4 4 5.8l4.45 5.55q2.6 3.8 3.6 8.35.95 4.6.15 9.1-.8 4-2.7 6.45-2.8 3.55-8.2 4.8h-11.7l-2.65-.9q-2.7-1.15-4.75-3.15-2.15-2.1-3.15-4.75-1.75-4.55-.05-10.2 1.1-3.7 4.6-9.25l5.7-8.65Q32 1.55 33.7 0h5.35zM67 39.75q1.15-1.45 1.45-4.6.55-8.9-4.4-19.55-1.6-3.35-4.75-8.75L55.4 0h2.75l4.05 5.55q2.05 3.15 4.25 8.1 2.9 6 4.2 11.1 1.6 6.45.85 12-.5 3.3-1.95 4.7l-1.05.75h-1.6l-.5-.45q-.35-.5-.15-1.05.05-.25.75-.95M51.3 41.3l1.85-2.45 2.55-4.45q1.2-2.55 1.35-4.8l-.15-3.45-.8-4.85q-1.65-6.9-8-14.5l-3.25-4.1q-.9-1.35-1.4-2.7h3.65l3.7 4q4.05 4.3 5.8 7.2l1.5 2.8 1.35 3.05Q60 18.4 60.6 21.3q1.7 8.45-.15 13.55-.65 1.85-2.2 4.4l-2 2.95H50.4zM31.55 8.6q-2.9 3.6-5 7.3-2.45 4.15-3.2 7.55-1.05 4.4.35 8.1 1 2.65 3.3 4.55t5.15 2.55l1.2.2 1.55.1 4.85-.3Q42.6 38 44.9 36.1t3.3-4.55q1.4-3.7.35-8.1-.75-3.4-3.2-7.55-2.1-3.7-5-7.3L38 5.1l-.95-1.8q-.45-.3-.95-.35h-.3q-.55.05-.95.35-.35.35-.95 1.8z"/><path fill="#fff" d="M35.8 14.5h.4l.1.05h.15l.15.1.15.05.1.05.1.05.1.05.05.05.1.05.05.1.05.05.05.05.1.05v.05l.1.1.05.1.1.1v.05l.05.05v.05l.05.05v.05l.05.1v.05l.05.05v.15l.05.05v.15l.05.05v.5l.05.05v.65h1l.05.05h.3l.05.05h.05l.05.05h.15l.05.05h.05l.05.05h.05l.05.05H40l.1.05.1.1h.05l.15.15.1.05.05.05.05.1.1.1.05.1.05.1.1.1.05.1.05.15.05.15.05.15v.2l.05.3-.05.25v.25l-.05.1-.05.2-.05.1-.05.15-.1.1-.05.05-.05.1-.05.05-.05.1-.05.05-.05.05-.1.05-.05.05-.05.05-.05.05-.05.05-.05.05-.05.05H40l-.05.05h-.05l-.05.05-.05.05h-.1l-.05.05h-.1l-.05.05h-.2l-.05.05h-.7l-.05.05-.05-.05h-.4v1.05l-.05.05v.3l-.05.05v.05l-.05.05v.15l-.05.05v.05l-.05.05v.05l-.05.05v.05l-.05.1-.1.1v.05l-.15.15-.05.1-.05.05-.1.05-.1.1-.1.05-.1.05-.1.1-.1.05-.15.05-.15.05-.15.05h-.2l-.3.05-.25-.05h-.25l-.1-.05-.2-.05-.1-.05-.15-.05-.1-.1-.05-.05-.1-.05-.05-.05-.1-.05-.05-.05-.05-.05-.05-.1-.05-.05-.05-.05-.05-.05-.05-.05-.05-.05-.05-.05v-.1l-.05-.05v-.05l-.05-.05-.05-.05v-.1l-.05-.05v-.1l-.05-.05v-.2l-.05-.05v-.7l-.05-.05.05-.05v-.45h-1.05L32.5 22h-.25l-.1-.05h-.1L32 21.9h-.1l-.05-.05h-.1l-.05-.05h-.05l-.05-.05h-.05l-.05-.05-.05-.05h-.05l-.1-.05-.05-.05-.05-.05-.05-.05-.1-.1-.05-.1-.1-.05-.05-.05-.05-.1-.05-.1-.05-.05-.05-.15-.05-.1-.1-.2v-.1l-.05-.1v-.8l.05-.1v-.15l.1-.15.05-.15.05-.1.05-.1.05-.1.05-.05.05-.1.1-.05.05-.05.05-.05.05-.1h.05l.1-.1.1-.05.1-.1h.05l.05-.05h.05l.05-.05h.05l.1-.05h.05l.05-.05h.15l.05-.05h.15l.05-.05h.5l.05-.05h.7v-1l.05-.05v-.25l.05-.1v-.1l.05-.05v-.1l.05-.05v-.1l.05-.05v-.05l.05-.05v-.05l.05-.05.05-.05v-.05l.05-.1.05-.05.05-.05.05-.05.1-.1.1-.05.05-.1.05-.05.1-.05.1-.05.05-.05.15-.05.1-.05.2-.1h.1l.1-.05h.4m-5.35 15.35v-.4l.05-.1v-.15l.1-.15.05-.15.05-.1.05-.1.05-.1.05-.05.05-.1.1-.05.05-.05.05-.05.05-.1h.05l.1-.1.1-.05.1-.1h.05l.05-.05h.05l.05-.05h.05l.1-.05h.05l.05-.05h.15l.05-.05h.15l.05-.05h.5l.05-.05h6.15l.05.05h.3l.05.05h.05l.05.05h.15l.05.05h.05l.05.05h.05l.05.05H40l.1.05.1.1h.05l.15.15.1.05.05.05.05.1.1.1.05.1.05.1.1.1.05.1.05.15.05.15.05.15v.2l.05.3-.05.25v.25l-.05.1-.05.2-.05.1-.05.15-.1.1-.05.05-.05.1-.05.05-.05.1-.05.05-.05.05-.1.05-.05.05-.05.05-.05.05-.05.05-.05.05-.05.05H40l-.05.05h-.05l-.05.05-.05.05h-.1l-.05.05h-.1l-.05.05h-.2l-.05.05h-.7l-.05.05-.05-.05h-5.9L32.5 32h-.25l-.1-.05h-.1L32 31.9h-.1l-.05-.05h-.1l-.05-.05h-.05l-.05-.05h-.05l-.05-.05-.05-.05h-.05l-.1-.05-.05-.05-.05-.05-.05-.05-.1-.1-.05-.1-.1-.05-.05-.05-.05-.1-.05-.1-.05-.05-.05-.15-.05-.1-.1-.2v-.1l-.05-.1v-.4"/></g></svg>