<svg xmlns="http://www.w3.org/2000/svg" xmlns:ffdec="https://www.free-decompiler.com/flash" ffdec:objectType="shape" width="68" height="40.05"><g fill-rule="evenodd"><path fill="#999" d="m66.15 16.75-1.95 1.5-.5.25.1.1q.55.95.25 1.9-.35 1.1-1.35 1.25-.95.2-2.05-.9l-.5 1q-.65.75-1.7.5-.85-.2-1.3-1.2l-.1-.15-.95.6q-.95.45-1.7 0-.95-.55-.75-1.8.1-.7.85-1.6l-1.2-.9q-2-1.85-1.9-5.25 0-1.6.55-2.85 1.2-2.5 4.15-3.45l5.45-.25q1.5.3 2.25.7.6.3 1.4 1l1.45 1.55q.55.75 1.05 2.55l.3 1.75q.05 1.8-1.85 3.7m-1.3-3.6q-.45-.55-1.2-.7l-1.05.1q-.65.25-1 .85-.4.55-.3 1.25.05.65.55 1.2t1.15.6l1.3-.25.9-.95q.45-1.25-.35-2.1m-20-6.35-.3.9-.45.45-.8.45-1.45.2-.95-.15q-.6-.35-.6-1.05 0-.65.65-1l1.8-.3-.05-.3h-.15q-.4 0-.65-.2-.55-.3-.7-.85L41 4.5l-.35-.65q-.25-.7.25-1.3.5-.55 1.25-.3.45.15.7.55.45.45.55 1.1l.2-.05-.15-.7-.05-.7.35-.65q.3-.25.7-.25.6-.05.95.35l.25.45.15.95.2 1.1-.2 1.1-.7.5-.3.05zm-10.8-.15q-.7.3-1.3-.2l-.15-.15-.75-.15q-.55 0-1-.35-.4-.35-.5-.9t.2-.95 1.1-.6h.2q.45-.4 1-.25l.3.15 1.05-.15q.5 0 .95.35l.35-.05-.25-.3-.7-.9q-.4-.6-.35-1.1.2-.95 1.2-1.05.75-.15 1.55.5.75.6 1.1 1.4l.7.75.45 1.4q0 .9-.7 1.2l-.1.05.4.4.25.7.25.8.1.8q0 1-.7 1.2-.5.2-.9-.3l-.55-.85-.3-1.25q-.1-.6.1-1l.3-.35-.9.1-1.35.3-.35-.1-.05.1q-.05.5-.65.75m5.45 8.9-.95-.75q-.4-.6-.35-1.25.1-.8.6-1.3.55-.55 1.3-.55.65.05 1.15.5l.45.55.2-.5.7-.65.75-1.25q.4-.8 1.1-.85l.65.25.35.6-.05 1.4q-.3 1-.95 1.6-1 1.1-1.95.8l-.55-.4q-.05.8-.6 1.35-.8.8-1.85.45m5.45-2.7q.5-.5.85-.65.75-.35 1.4.2.7.6.4 1.4l-.65.85-1.35.9-.9.3q-.55 0-.85-.4-.25-.35-.05-1.05.3-.7 1.15-1.55m-7.5 10.3q-.6-.6-.5-1.35.15-.8.8-1.2l1.1-.1q.6.1.95.6.35.45.25 1.05l-.5 1q-.45.4-1.05.4-.65 0-1.05-.4m5.15-1.75 1.05.15.75.7q.6.95 0 2l-.6.6-1.1.25h-.2v.9l.05.15v.25l.05.15v.3l.15.15.05.15.05.15.05.1.05.15V28l-.05.15-.05.15-.05.15-.05.15-.1.1-.15.15-.2.15-.2.1-.15.05-.35.05-.45-.1-.3-.15-.2-.15-.1-.15-.15-.1-.05-.15v-.15l-.05-.15v-.15l-.05-.15.05-.15v-.15l.05-.1v-.15l.05-.15.15-.15.05-.15.05-.15v-.3l.05-.15v-.1l.05-.15v-1.6l.05-.15v-.15h.05l-.1-.3q-.1-.55.1-1 .3-.55.75-.85.5-.45 1-.5m3.45-1.4-.85-.1-.6-.45q-.2-.3-.1-.8l.1-.45q.2-.5 1.05-.6h.95l.8.25q.6.35.5 1.05l-.65.95zm8.7-3.95q.95 0 1.6-.9.55-.9.15-1.9-.4-.95-1.5-1.2-1.1-.15-1.85.65-.4.4-.5 1.05t.15 1.15q.6 1.25 1.95 1.15m7.1 12q.8 1 .45 1.85-.25.85-1.8 1.55 2.05-.3 3.65.95 1.05.85 1.1 1.8L65 35.35l-.25.55.45-.1 1.05.4q.5.5.4 1 0 .6-.5 1l-.8.3-.15.05L57.95 40l-.8.05q-.45-.05-.7-.4h-.15q-1.9.4-2.75-.55l-.35-.6-.1-.5q-.05-.6.3-1.1l1.15-.9q1.75-.95 3.85-1.25l-1.9-.05q-1.05-.1-1.35-.5-.15-.25-.15-.9 0-.8.15-1.15l.7-.75q1.05-.8 3.55-1.7l1.1-.45q-.55-.7-1.55-.7h-.6l-.35-.3v-.5l.5-.4 1.8-.15q.95.2 1.55.85m-25.4-3.4.3.1.1.15.1.1.05.15.05.15v.15l-.05.15v.15l.05.15v.4l.05.15v1.3l-.05.15v1.15l.05.15v.3l-.05.15.05.15v.4l.05.15v.7l.05.15v.3l.05.15v.15l.05.15v.15l.05.15.05.1v.15l.05.15v.15l.05.15v.15l.05.15v.4l.05.15v.15l.05.15.05.15v.3l.05.1v.15l-.05.15v1.6l.05.15.05.15v.4l-.05.15-.05.15-.1.15-.05.15-.15.15-.15.15-.25.15-.25.05-.3.05-.5-.1-.3-.1-.15-.15-.1-.15-.15-.15-.05-.15-.05-.15-.05-.15v-.15l-.05-.1.05-.15v-.15l.05-.15.05-.15V35l-.05-.15v-.25l.05-.15v-.3l.05-.15.05-.15v-.15l.05-.15v-.4l.05-.15v-.15l.05-.15v-.15l.05-.15v-.25l.05-.15v-.15l.05-.15v-.15l.05-.15v-.3l.05-.1v-.75l.05-.15v-1l.05-.15v-.15l-.05-.15.05-.1v-.6l-.05-.15v-1.45l.05-.15v-.1l-.05-.15v-.15l-.05-.15.05-.15.05-.15v-.15l.05-.15.05-.1.15-.15.15-.1h.25zM23.95 9.4l-1.25-.5q-.75-.4-.9-1-.25-.85.55-1.3l2.05.1 1.3.3-.95-1.25Q23.7 4.6 23.6 4l.15-.8q.25-.4.65-.5.45-.15 1.05.25l.85.8 1.35 1.3 1.15 1q.55.75.25 1.45l-.6.65-.95.15-.45-.15L27 9l-.2.45q.6.25.75.95.15.95-1.05 1.65l-2.05.55-1.6.45q-.6-.05-.95-.65-.4-.55-.2-1.15.2-.65.95-1.05.7-.3 1.35-.45l.45-.15zm2.55 3.3q.3-.65 1-1.05l1.4-.25q.7.1 1.3.7 0-.9.45-1.5.4-.45 1.55-.9l2.9-.05 1.15.9q.5.6.45 1.3-.05.85-1.05 1.85l-1.15.9 1.1.15q.8.35 1.15 1.2t.1 1.7l-.6.95q-.5.45-1.2.6l-1.8-.1q-1-.45-1.25-1.25-.45-1.35.95-2.55.35-.3.75-.5h-.05l-1.8-.4-.55-.25q.25 1.25-.05 2.1-.25 1-1.3 1.95l-1.05.9v4.35l.05.15v.15l.05.1V24l-.05.15v.3l.05.15v.4l.1.15.05.15.1.15v.15l.05.15.05.15v.15l.05.15v.1l.05.15v.75l.05.15.1.1.05.15.05.15v.15l.05.15v1.75l-.05.1v.15l-.05.15-.05.15-.05.15-.1.15-.05.15-.15.15-.2.1-.2.1-.15.05-.35.05-.45-.1-.3-.1-.2-.15-.1-.15-.15-.15-.05-.15-.05-.15-.05-.15V27.7l.05-.15.05-.15.05-.1.1-.15V27l.05-.15v-.45l.05-.15v-.1l.05-.15v-.15l.05-.15v-.15l.05-.15.05-.15.15-.15.05-.15v-.55l.05-.15-.05-.15v-.3l.05-.1v-.15l.05-.15v-3.8h-.1q-1.55.45-2.5-.6-.95.2-1.6-.5l-.95.15-1.15-.2-.6-.55-.35-.55q-.25-.8.25-1.4.6-.6 1.35-.45l.9.35.65.45.55-.55.85-.8.35-.2q.05-.45.35-.8l.55-.5zM22.05 20l.55.7-.05.9q-.4.8-1.75.9-1.3.2-1.85-.35-.35-.35-.35-.95.1-.55.5-.9.35-.25 1.3-.35zm-20.2-3.25q-1.9-1.9-1.85-3.7 0-.55.3-1.75.5-1.8 1.05-2.55L2.8 7.2l1.4-1 2.25-.7 5.45.25q2.95.95 4.15 3.45.55 1.25.55 2.85.1 3.4-1.9 5.25l-1.2.9q.75.9.85 1.6.2 1.25-.75 1.8-.75.45-1.7 0-.35-.1-.95-.6l-.1.15q-.45 1-1.3 1.2-1.05.25-1.7-.5l-.5-1q-1.1 1.1-2.05.9-1-.15-1.35-1.25-.3-.95.25-1.9l.1-.1-.5-.25q-.85-.4-1.95-1.5m11.4-.7q1.35.1 1.95-1.15.25-.5.15-1.15l-.5-1.05q-.75-.8-1.85-.65-1.1.25-1.5 1.2-.4 1 .15 1.9.65.9 1.6.9m-10.1-2.9q-.8.85-.35 2.1l.9.95 1.3.25q.65-.05 1.15-.6l.55-1.2q.1-.7-.3-1.25l-1-.85-1.05-.1zm6.9 14.9q.8 1 .45 1.85-.25.85-1.8 1.55 2.05-.3 3.65.95 1.05.85 1.1 1.8l-.25 1.15-.25.55.45-.1 1.05.4q.5.5.4 1 0 .6-.5 1l-.8.3-.15.05L6.15 40l-.8.05q-.45-.05-.7-.4H4.5q-1.9.4-2.75-.55l-.35-.6-.1-.5q-.05-.6.3-1.1.35-.55 1.15-.9 1.75-.95 3.85-1.25l-1.9-.05q-1.05-.1-1.35-.5-.15-.25-.15-.9 0-.8.15-1.15l.7-.75q1.05-.8 3.55-1.7l1.1-.45q-.55-.7-1.55-.7h-.6q-.25-.1-.35-.3v-.5l.5-.4 1.8-.15q.95.2 1.55.85"/><path fill="#fff" d="M64.85 13.15q.8.85.35 2.1l-.9.95-1.3.25q-.65-.05-1.15-.6t-.55-1.2q-.1-.7.3-1.25.35-.6 1-.85l1.05-.1q.75.15 1.2.7m-10.1 2.9q-1.35.1-1.95-1.15-.25-.5-.15-1.15t.5-1.05q.75-.8 1.85-.65 1.1.25 1.5 1.2.4 1-.15 1.9-.65.9-1.6.9m-51.6-2.9 1.2-.7 1.05.1 1 .85q.4.55.3 1.25l-.55 1.2q-.5.55-1.15.6l-1.3-.25-.9-.95q-.45-1.25.35-2.1m10.1 2.9q-.95 0-1.6-.9-.55-.9-.15-1.9.4-.95 1.5-1.2 1.1-.15 1.85.65l.5 1.05q.1.65-.15 1.15-.6 1.25-1.95 1.15"/><path d="M19.95 26.3q.35-5.35 1.3-8.55 1-3.55 3-6.05-.9-.9-.8-3.3.3-3.5 1.35-4.95.9-1.25 2.1-1.25.65-.05 1.15.45t.4 1.1l-.35.75-.5.75-.4 1.2q-.2 1.1.1 2.35l.05.15Q28.8 8 30.5 7.5l1.15-.3q.15-1.45.85-2.9.95-1.9 2.55-3.1.75-.6 1.45-.65l.75.15.5.6q.25.75-.85 1.8-1.6 1.6-1.6 3.2l.1.7.75.1q1.35.2 2.65.75.25-1.05.75-1.95 1.15-1.95 3.2-2.65l2.45.1q1 .55.7 1.25l-.9.65q-1.1.5-1.8 1.5-.65 1.05-.75 2.2v1.1q1.65 1.45 2.75 3.4 1.2 2.15 1.7 5.1.35 2.05.5 5.45.3 7.95-.1 15.15h-3.85v-.2q.45-9.95-.1-16.45-.5-5.5-2.5-8.15-2.1-2.75-5.65-3.15l-.65-.05-.95.15-.35-.1q-2.35.25-4.3 1.85-2.55 2.1-3.7 6.4Q24.3 22.75 24 29q-.25 5.35-.1 10.15h-4.25q-.2-6.3.3-12.85m17.75-7.6-.2-.95.15-.8q.2-.65.9-1l1.9-.1q.9.4 1.25 1.4.2.8-.2 1.55-.4.8-1.15 1.05l-1.55-.1q-.8-.35-1.1-1.05m-1.1 1.35q1.4 1 1.7 2.65.3 1.2 0 2.35-.15.9-.7 1.45-.9.9-2.7.9-2.35.1-3.95-.95-.85-.6-1.35-1.5-.55-1-.45-1.95.15-1.25 1.2-2.3.85-.85 2.05-1.25l2.2-.2q1.15.15 2 .8m-4.3-5.1.2-1q.35-.7 1.1-1.05l1.5-.15 1.25.85q.5.6.45 1.4 0 .75-.5 1.4l-1.3.75-1.5-.2q-.75-.4-1.05-1.1zm-4.1 5.6q-1.1-.15-1.55-1.35-.35-1.15.35-2 .6-.8 1.5-.7l.15-.05q1.25 0 1.85 1.2.55 1.2-.25 2.15-.8 1.1-2.05.75"/></g></svg>