<svg xmlns="http://www.w3.org/2000/svg" xmlns:ffdec="https://www.free-decompiler.com/flash" ffdec:objectType="shape" width="75.6" height="41.35"><g fill-rule="evenodd"><path fill="#999" d="M25.4 37.9q3 1.25 5.2 1.7l5.4.6q10.6.4 15.85-3.9 3.4-2.8 4.85-7.5 1.3-4.35.7-9.2-.35-2.6-1-4.1l-.25-.6 3.6-9.05.2-.8q.2-1.15-.4-1.8Q59 2.6 57.8 2.8l-1.75.7-.55.25-1.65.6-1.45.5-2.5 1-1.05.5Q47.2 5.1 45.6 4.4l-1.8-.65Q41.15 2.95 38 3l-2.8.2q-4.65.6-8.3 2.9l-1.25-.65-2.7-1.4-1.65-.75-2.15-.75-1.2-.1-.45.15-.35.25-.4.5-.2 1.2.35 2.35.25.95L18 11l.25.5.4 1.6.5 1.1v.1l.05.1.15.55q-2.15 4.8-2.15 10.2 0 6.2 2.9 9.35 1.6 1.8 5.3 3.4M0 0h75.6v41.35H0z"/><path fill="#fff" d="M25.4 37.9q-3.7-1.6-5.3-3.4-2.9-3.15-2.9-9.35 0-5.4 2.15-10.2l-.15-.55-.05-.1v-.1l-.5-1.1-.4-1.6L18 11l-.85-3.15-.25-.95-.35-2.35.2-1.2.4-.5.35-.25.45-.15 1.2.1 2.15.75 1.65.75 2.7 1.4 1.25.65q3.65-2.3 8.3-2.9L38 3q3.15-.05 5.8.75l1.8.65q1.6.7 3.25 1.95l1.05-.5 2.5-1 1.45-.5 1.65-.6.55-.25 1.75-.7q1.2-.2 1.75.45.6.65.4 1.8l-.2.8-3.6 9.05.25.6q.65 1.5 1 4.1.6 4.85-.7 9.2-1.45 4.7-4.85 7.5Q46.6 40.6 36 40.2l-5.4-.6q-2.2-.45-5.2-1.7"/><path d="m47.2 18.7-.1-.05L45 17.3l-1.2-.55q-.7-.25-1.05-.8-.55-.9.05-1.85.55-.9 1.7-.9l1.1.25q1.25.45 2.55 1.75l.45.45.4.4.2.2.25.2.55.15 1 .05.8.25.25.6v.25l-.2.4-1.15.7h-.05l-1.2.25q-1.25.1-2.25-.4M29.9 31.85l-.15-.05q-2.3-.35-2.75-2.15l-.1-1.4q0-1 .25-1.7l.55-1.05q1.95-2.95 5-4.4 1.75-.85 3.2-.8 0-1.4.25-1.85t.65-.65l.6-.1.55.1.65.65.25 1.85q1.45-.05 3.2.8 3.05 1.45 5 4.4l.55 1.05.25 1.7-.1 1.4q-.45 1.8-2.75 2.15l-1.55-.05q-.8-.25-1.85-1.1l-1.65-1.45q-1.2-.7-2.45-.75h-.25l-1.9.5-.55.25-1.65 1.45q-1.05.85-1.85 1.1zM26.2 15.6l.4-.4q1.3-1.3 2.55-1.75l1.1-.25q1.15 0 1.7.9.6.95.05 1.85l-1.05.8-1.2.55-1.95 1.3-.15.05-3.55.2-1.2-.7-.2-.65q0-.4.25-.6l.8-.25 1-.05.55-.15.45-.4z"/><path fill="#999" d="M53.25 13.35q.15.45-.1.95l-.7.6-.9-.1q-.5-.25-.65-.7-.2-.5.05-1t.8-.65 1.05.25q.4.25.45.65m-4.65 2.3 2-.3q1.4.1 2.05.7.75.75.6 1.95-.15 1-.95 1.75l.35.85-.15 1.25-.85.95-1.2.3q-.65 0-1.2-.4-1.2-.85-.85-2.25l.05-.15-.9-.85-.35-.75q1 .5 2.25.4l1.2-.25h.05l1.15-.7.2-.4v-.25l-.25-.6-.8-.25-1-.05-.55-.15-.25-.2-.2-.2zm-18.7 16.2 1.4-.1q.8-.25 1.85-1.1l1.65-1.45.55-.25-.05 1.35-.55 1.6-1.05.95q-1.3.7-2.4.35-1.2-.4-1.4-1.35M27.8 18.6l-.05.05-1.05 1.45-1 .65v.75l-.6 1q-.45.35-1.1.4-.6 0-1.1-.35-.75-.6-.75-1.5.05-.4.25-.7l-.7-.85q-.5-.95-.15-1.85.35-1 1.45-1.6 1.05-.65 2.2-.65l1 .2-.45.45-.45.4-.55.15-1 .05-.8.25q-.25.2-.25.6l.2.65 1.2.7 3.55-.2zm-8.5 2.75q-.05-.2.05-.45.1-.4.5-.65.35-.3.8-.25l.75.35.3.8-.2.8-.7.45-.85-.1-.55-.6zM29.8 34.9l.05-.5.45-.65 1.7-.1q.9.55.65 1.5-.15 1.05-1.2 1.2-1 .1-1.5-.75-.15-.3-.15-.7"/><path fill="#fff" d="M66.85 21.25q1.55-.25 2.8 0 1.5.35 2.45 1.35 1 1.05.95 2.3-.2 1.6-1.5 1.9-.95.15-1.8-.4l-1.3-1.3q-.45-.65-.85-.75l-.65.05-1.4.55h-1.3q-1.85-.35-2.9-1.4l-.4-.65q-.15-.5.15-.9t.8-.4l.75.15 1.85.7q.65-.8 2.35-1.2m-4.65-7.5.2-.55q.8-2.2 3.2-2.8l1.75-.15 1.15.1q.5.15.85.45l.85.9q.55 1.05.1 2.15-.5 1.1-1.65 1.35-.9.2-2.6-.4l-.4-.1-.3.35q-.8 1.2-2 1.7l-2.55.05q-.8-.25-1.05-.8-.4-.8.2-1.2l1.4-.05h.3l.15-.2zm-1.95 15.2.85-.15q.45.05.7.4l.4.65q.35.45 1.55.55l1.05.05q1.55.1 2.2.5l1.05.85.45.6.1.55.05 1.2-.05.6-.6.7-1.05.55q-.9.15-1.85-.55L63.8 34l-.25-.3-.35-.2-1.1-.4-1.1-.55-.55-.6q-.3-.35-.45-.85l-.25-1.15q.1-.65.5-1M13.2 13.75l.4.8.15.2h.3l1.4.05q.6.4.2 1.2l-1.05.8-2.55-.05q-1.2-.5-2-1.7l-.3-.35-.4.1q-1.7.6-2.6.4-1.15-.25-1.65-1.35-.45-1.1.1-2.15l.85-.9q.35-.3.85-.45l1.15-.1 1.75.15q2.4.6 3.2 2.8zm-4.65 7.5q1.7.4 2.35 1.2l1.85-.7.75-.15q.5 0 .8.4t.15.9l-.4.65q-1.05 1.05-2.9 1.4h-1.3l-1.4-.55-.65-.05q-.4.1-.85.75l-1.3 1.3q-.85.55-1.8.4-1.3-.3-1.5-1.9-.05-1.25.95-2.3.95-1 2.45-1.35 1.25-.25 2.8 0m6.6 7.7.5 1-.25 1.15-.45.85-.55.6-1.1.55-1.1.4-.35.2-.25.3-1.3 1.45q-.95.7-1.85.55l-1.05-.55-.6-.7-.05-.6.05-1.2.1-.55.45-.6 1.05-.85q.65-.4 2.2-.5l1.05-.05q1.2-.1 1.55-.55l.4-.65q.25-.35.7-.4z"/></g></svg>