<svg xmlns="http://www.w3.org/2000/svg" xmlns:ffdec="https://www.free-decompiler.com/flash" ffdec:objectType="shape" width="75.5" height="41.85"><g fill-rule="evenodd"><path fill="#999" d="M74.4 6.9H60.7L46.45 7l-3.35.05-4.5.05h-4.85l-2.5.1-1.1.05-1.4.05-2.25.1-3.6.05h-1.75l-5.35.05H6.75l-6.7-.05V0H75.5v6.9zM14 8.4l14.55.05H74.4l1.1.05v1.7l-1.1.05H.05V8.4zM3.95 11.55l2 .05 5.55.05 2.35.1 1.8.05h2.5l4.75.05 7.2.1 2.95.05 2.3.05h3.85l3-.05 2.35-.05 4.25-.1 7.9-.05h7.05l.55-.05.6-.15h.15l.45.15.15.1.25.2v.35l-.25.15-.15.2-.45.05-.6.15-.4.1-.5.15h-4.6l-2.25-.05-7.9-.1h-4.25L42.2 13l-3-.05h-3.85l-2.3.05-2.95.05h-7.2l-4.75.1-2.5.05-1.8.05-2.35.1H5.95l-2 .05-3.9.05V11.5zm57.4 17.65H73.1l.6.05.3.2.25.15.05.2.1.15v.3l-.1.2-.05.15-.25.2-.3.15-.6.1H61.35l-6.1-.05-5.15-.05-3.9-.1-3.4-.05h-32l-1.6-.05-.45-.15-.3-.15-.1-.2-.05-.1.05-.2.1-.15.3-.2.45-.1 1.6-.05h24.45l7.55-.05 3.4-.05 3.9-.1h11.25zm-11.2 6.55H75.5v6.1H.05V35.8h50.1zM4.8 31.65l7 .1h16.75l19.1.05 25.85.05 2 .05v1.65h-2l-25.85.05h-19.1l-16.75.1-7 .05H.05v-2.1z"/><path d="m56.8 16.3 4.75 1.05 4.75.9 2.85.25q1.7.15 2.8.6.5.2.85.5.45.5.3.95-.15.5-1.65.65l-2.05.35Q58.5 24.1 52.45 26.2l-1.05.25q-.65-.05-1-.5-.3-.45-.05-1.05l.55-.85L52.95 21q-2.25-1-4-2.75l-.8-1q-.3-.65.05-1.15t1.65-.4zm3.15 2.85-4-.65-3.5-.25q.45.05 1.05.55l.95.75 1.15-.2 1.2.2q1.6.4 5.4.1h.05zm-13.6 1.25h2.35l.3.1.2.1.15.1.05.1.05.1.05.1.05.1v.3l-.05.1-.05.1-.05.15-.05.1-.1.1-.15.1-.15.05-.25.05h-2.35l-.8-.05-.2-.05-.3-.05-.15-.05-.25-.05-.35-.05h-.65l-.35-.05-.3-.05h-.6l-.65-.05-1.2-.05-.25-.05-.1-.1-.1-.1v-.2l.1-.15.1-.1.25-.05 1.2-.05h.65l.6-.05.3-.05h.35l.65-.05.35-.05.3-.05.2-.1h.2l.2-.05h.8zm-1.05 3.55h1.35L47 24l.25.1.1.1.1.1.05.1.05.15.05.1.05.1v.5l-.05.1-.05.1-.05.1-.05.1-.1.1-.2.1-.15.1h-.1l-.25.05H45.3l-.35-.05-.15-.1h-.1l-.25-.05-.2-.05H44l-2.5-.05-.8-.05h-1.2l-.2-.05-.7-.05-1.6-.05h-.55l-1.85-.05-2.1-.05-.3-.05-.15-.05-.25.05-.2-.05-.05-.1v-.25l.1-.1.15-.1.3-.1.1-.05.1-.05h.2l2.1-.05 1.85-.05.55-.05h1.6l.7-.05.2-.05h1.2l.8-.05 2.5-.05h.25l.2-.05.35-.05.15-.1h.35zm-33.8.3q2.55-2.15 5.15-3.7-2.9-1.35-5.35-3.5-.7-.55-.7-1.1 0-.7.75-.85l1.25.1 9.9 1.4 9.9 1.4 3.25.55 1.45.4.4.55-.1.75q-.3.5-1.25.7l-11.95 2.5q-7.25 1.5-11.85 2.85L11 26.25q-.55-.35-.25-1.15zm-.65-4.85h.3l.45.05.3.05h.25l.1.05.2.05.25.1.1.1.1.1v.15l.05.1.05.1v.2l-.05.1-.05.1v.1l-.1.1-.1.1-.25.1-.2.1h-.1l-.25.05-.3.05H9.4l-.35-.1-.95-.05-.6-.05L7 21h-.2l-.35-.05-.55-.05H4.2l-.25.1H3.1l-.25-.05-.1-.1-.1-.1v-.1l-.05-.1.05-.1.05-.1.1-.1.1-.1.2-.05.15-.05.15-.05.3-.1.15-.05.15-.05h1.6l.3-.05.55-.05h.35l.2-.05.5-.05h.6l.95-.1.35-.05h1.45zM7.2 23.5h1l.25.05.2.1.1.1v.1l.1.1v.45l-.05.1-.05.1-.05.1-.15.1-.1.05-.05.05-.2.05h-1l-1.95-.05-.4-.05h-.7L4 24.8l-.15-.05H3.5l-.4-.05-.55-.05-.45-.05h-.4l-.35-.05-.65.05-.2.1-.2.05-.2-.05-.05-.1-.05-.1.05-.1.05-.1.15-.1.1-.15.15-.1.2-.05.65-.05h.35l.4-.05.45-.05h.55l.4-.05.35-.05H4l.15-.05.7-.05.4-.05zm8.15-5.85q.6.1 1.45.65l.3.15q5.3.45 10.85.25zm2.05 5 .2-.05v-.05z"/></g></svg>