<svg xmlns="http://www.w3.org/2000/svg" xmlns:ffdec="https://www.free-decompiler.com/flash" ffdec:objectType="shape" width="68.7" height="35.85"><g fill-rule="evenodd"><path fill="#999" d="M66.9.6q.65.55.85 1.75.45 1.95.05 4.1-.4 2.05-1.55 3.75l-1.35 1.65-1.4 1.6q-1.55 1.8-2.75 3.8l.15.1 2.45 2 .35.25 1.6 1.3 1.35 1.5 1.2 1.8.5 1.9q.65 3.95.15 6.6l-.5 1.45-1.05.9-1.4.1q-1.5-.4-1.85-1.95v-1.05l.1-1.1v-2.5l-.3-2.1-.1-.2q-.45-1.25-1.05-1.95l-.1-.1-.3-.3-1.85-1.25-1.4-.9q-1.55 4.65-1 9.2.2 1.85-.05 2.6-.5 1.45-2.05 1.8-1.55.25-2.55-.95-.7-.95-.8-2.85-.35-5.35 1.4-10.55l1-2.55-2.4-3q-3.2-5-2.45-10.25.4-2.9 2.2-3.65 1.25-.55 2.45.2 1.2.85 1.2 2.15l-.15 1.15-.35 1.15q-.75 3.15 1.2 6.35l.85 1.2 1.55-2.1 1.6-1.8L61.85 8q1.65-2.25 1.85-4.4l.1-1.45q.1-.8.5-1.3.45-.6 1.25-.65.8-.1 1.35.4M33 13.35l3 1.6q1.3-1.95 1.7-4.4.45-2.6-.25-5.1L37.1 4.1l-.05-1.35Q37.3 1.2 38.75.7t2.6.5q.75.7 1.25 2.55.9 4.15.05 8.3-.7 3.25-2.35 5.8 2.05 1.85 3.4 4.6 1.55 3.1 2 6.75.4 2.85-.75 4.2-.9 1.15-2.35 1.05t-2.15-1.35q-.35-.65-.45-2.8-.05-2-.75-3.85-.9-2.5-2.55-4.15l-.2-.2-1.05.95q-2.35 2.2-3.3 3.9-1.1 2.05-1.9 6.2l-.6 1.75q-.55.95-1.5.95-1.1 0-1.55-1.2-.3-.75-.2-2.1l.8-4.45q.4-2 .75-3 1.05-2.75 4.1-5.9-2.55-1.4-3.55-2.25-2.5-2.05-3.8-5.35-1.2-3.15-1.05-6.6.1-2.15.75-3.4.4-.75 1-1.2.75-.5 1.45-.3.85.3 1.2 1.3.35.85.3 2.25L28.3 6q.05 1.6.8 3.2.65 1.5 1.5 2.4.8.8 2.4 1.75M4.1 1.15q.75.4 1.05 1.85l.3 3.1q.2 1.85.85 2.95.55 1 1.8 2l1.75 1.3.05-.1L11.1 9q.5-1.85.35-3.4l-.3-1.85q-.15-1.1.05-1.8.5-1.5 2-1.85 1.55-.4 2.65.8.7.8 1 2.95.35 3.45-.25 5.8l-1.95 4.45-1.05 1.95q1.55 2.1 2.45 4.7 1.6 4.55.8 9.8-.4 2.05-1.2 2.85-1.15 1.15-2.7.75t-2.05-1.9q-.25-.8-.1-1.9l.4-1.9q.85-4.1-1.2-7.75v-.05l-1.05 1.1q-1.05 1.3-2.35 3.6l-.9 1.7q-.4 2.05-.45 4.2 0 1.75-.3 2.4L4 34.75q-.7.4-1.4.4-.75 0-1.4-.45-.65-.4-.95-1.1-.35-.8-.25-2.3l.4-2.35q0-.8.15-1.5.25-1.2 1.65-3.85L4.4 20l2.15-2.5-1.05-.6Q2.1 14.8.8 10.8-.4 7 1.1 3.1q.5-1.15 1.1-1.65.95-.75 1.9-.3"/><path d="m39.95 8.5 1.7-1.85.9-1.2 1.1-.95 1.8-.1q.95.25 1.4 1.05.55.95.35 2.7l.1 3.95-.05 4.5.2 4.2q.35 4.85.65 6.55.35 1.95.1 2.75-.25.85-1 1.45t-1.65.65-1.7-.45q-.75-.5-1.1-1.35-.3-.8-.3-2.1l.1-6.5v-.15l-.45-6.6q-2.2-.1-3.25-1-.85-.7-1-1.8-.2-1.1.35-2 .3-.5 1.75-1.75M18.4 15.6q-1.15-2.25.55-5.5 1.1-2.05 2.95-3.4t3.95-1.45q2.2-.1 4.55 1.5 2 1.25 2.9 3 .9 1.95.55 4.3-.2 1.8-1.35 4.15l-1.6 2.55q-1.2 1.6-3.45 3.3l2-.1 2.35.2 1.95.7q1.7.85 2.35 1.85.7 1.05.6 2.4-.1 1.4-.95 2.25-.85.9-2.15 1.1-1.3.1-2.3-.6l-1.25-1.15-1.4-.6q-2.75-.9-5.75-1.2l-2.6-.45q-.75-.35-1-.85-.2-.45 0-.95 0-.5.45-1l1.15-.85 2.55-2.1 2.25-2.5q1.2-1.3 1.65-2.3l.6-1.55.2-2.1q-.15-1.25-1-1.8l-.95-.1-.75.85-.6 1.35-.7 1.35-1.3 1.1-1.6.4q-1.85-.1-2.85-1.8"/></g></svg>