<svg xmlns="http://www.w3.org/2000/svg" xmlns:ffdec="https://www.free-decompiler.com/flash" ffdec:objectType="shape" width="77.55" height="36.85"><g fill-rule="evenodd"><path fill="#fff" d="M39 17.95v1.25l-.05.05v1.1l-.05.05v.1l-.05.05v.05l-.05.05-.05.05-.05.05-.05.05-.1.05-.05.05-.1.05-.8.15-.7-.45-3.15-2.95-1.2-1.1q-.95-.75-1.2-1.1l-.5-.5q-.25-.15.25-.6l1.45-1.2 1.2-1.1 3.15-2.95q.4-.4.7-.45l.8.15.1.05.05.05.1.05.05.05.05.05.05.05.05.05v.05l.05.05v.1l.05.05v1.1l.05.05v1.35h.6l.1-.05h1.45l.55-.05h1.75l.25.05h.05l.15.05.1.05.1.05.1.05.05.05.05.05.1.05.05.1.05.05v.05l.05.05v.05l.05.05.05.05v.1l.05.05v.35h.05v3.5h-.05V17l-.05.05v.1l-.05.05-.05.05v.05l-.05.05v.05l-.05.05-.05.1-.1.05-.05.05-.05.05-.1.05-.1.05-.1.05-.15.05h-.05l-.25.05H41.7l-.55-.05H39.7l-.1-.05H39zm8.15-3.3v2l.05.05v.2l-.05.05v.15l-.05.05v.05l-.05.05v.05l-.05.05-.05.05-.05.05-.05.05-.05.05-.1.05-.1.05-.1.05h-.1v.05h-.35v-.05h-.1l-.15-.05-.1-.05-.05-.05-.05-.1-.05-.05-.05-.05-.05-.05-.05-.05v-.05l-.05-.05v-.05l-.05-.05v-4.3l.05-.05v-.05l.05-.05v-.05l.05-.05.05-.05.05-.05.05-.05.05-.1.05-.05.1-.05.15-.05h.1v-.05h.35v.05h.1l.1.05.1.05.1.05.05.05.05.05.05.05.05.05.05.05v.05l.05.05v.05l.05.05v.15l.05.05v.2l-.05.05v1.5"/><path fill="#999" d="m75.3 23.25.1.05.05.05.05.1.05.05.05.05.05.05v.05l.05.05.05.05v.15l.05.05v.15l-.05.1v.15l-.05.05-.05.05v.05l-.05.05v.05l-.1.1-.1.05-.05.05-.15.05-.1.05-.05.05h-36.8l-7.4-.05h-1.5l-5.6-.05h-1.3l-1-.05h-7.2l-.1.05h-.2v.05h-.1l-.2.05h-.3l-.05.05h-5l-.15-.05H6l-.9-.05h-.65l-.85-.05H1.15l-.3.05H.8l-.25-.05-.1-.05-.15-.05-.05-.05-.05-.05-.05-.05-.05-.05v-.05l-.05-.05v-.15L0 24.25v-.2L.05 24v-.1l.05-.05v-.05l.1-.1.05-.1.05-.05.15-.05H.5l.05-.05h.4v-.1L.9 23.3v-.25L.85 23v-.95L.8 22v-.95L.75 21V1.3l.05-.05V1.2l.05-.1v-.05L.95 1V.85L1 .8V.75L1.05.7V.6L1.1.55 1.15.5 1.2.45 1.25.4 1.3.35 1.4.3l.15-.05.1-.05h.95l.5-.05H4L4.1.1h.3L5.75.05h4.6L11.9 0h43.5l4.4.05h14.25l.2.05h.15l.1.05.15.05.1.05.05.05.05.05.05.1.05.05.05.05.05.05v.05l.05.05v.05l.05.05v.15l.05.05v.2l-.05.05v.15l-.05.05v.15l.05.05v.15l.05.05v.35l.05.05V7.8l.05.05v15.4m-28.15-8.6v-1.5l.05-.05v-.2l-.05-.05v-.15l-.05-.05v-.05l-.05-.05v-.05l-.05-.05-.05-.05-.05-.05-.05-.05-.05-.05-.1-.05-.1-.05-.1-.05h-.1v-.05h-.35v.05h-.1l-.15.05-.1.05-.05.05-.05.1-.05.05-.05.05-.05.05-.05.05v.05l-.05.05v.05l-.05.05v4.3l.05.05v.05l.05.05v.05l.05.05.05.05.05.05.05.05.05.1.05.05.1.05.15.05h.1v.05h.35v-.05h.1l.1-.05.1-.05.1-.05.05-.05.05-.05.05-.05.05-.05.05-.05v-.05l.05-.05v-.05l.05-.05v-.15l.05-.05v-.2l-.05-.05v-2M39 17.95v-.1h.6l.1.05h1.45l.55.05h1.75l.25-.05h.05l.15-.05.1-.05.1-.05.1-.05.05-.05.05-.05.1-.05.05-.1.05-.05v-.05l.05-.05v-.05l.05-.05.05-.05v-.1l.05-.05v-.35h.05v-3.5h-.05v-.35l-.05-.05v-.1l-.05-.05-.05-.05v-.05l-.05-.05v-.05l-.05-.05-.05-.1-.1-.05-.05-.05-.05-.05-.1-.05L44 12l-.1-.05-.15-.05h-.05l-.25-.05H41.7l-.55.05H39.7l-.1.05H39V10.6l-.05-.05v-1.1l-.05-.05v-.1l-.05-.05V9.2l-.05-.05-.05-.05-.05-.05-.05-.05-.1-.05-.05-.05-.1-.05-.8-.15q-.3.05-.7.45l-3.15 2.95-1.2 1.1-1.45 1.2q-.5.45-.25.6l.5.5q.25.35 1.2 1.1l1.2 1.1 3.15 2.95.7.45.8-.15.1-.05.05-.05.1-.05.05-.05.05-.05.05-.05.05-.05v-.05l.05-.05v-.1l.05-.05v-1.1l.05-.05v-1.25m16.75 10.1.45-.35.65.05.4.5q.1.55-.3.8-.25.3-.65.2t-.55-.4q-.25-.4 0-.8m-41.15.75.4-.15.75-.05.6.05 1.35.4.5.6.1-.05.35-.05.1-.05q.9-.15 1.8.35l.7.55.55-.35 1.3-.15.4.1 1.05.55.45.55q.5.15.65.7l.1.35.1-.25.25-.25v-.1l.05-.2.15-.25.1-.1v-.1l.1-.1q.5-.4.95-.35v-.05h.05l1.1-.15 2.05.2h2.05l1.25-.3 2.2-.2 1.65-.4q1-.1 1.6.4l.65-.15.05-.05q1.2.1 1.8.75l.15.2 5.5-.6-.05-.15-.2-.8v-.35l.35-.6.55-.4.4-.2.5-.05.05-.05.8.1.7.3.25.25.1.15.3.35q.35.6-.05 1.2l1-.1v-.3l.05-.1v-.15q.15-.4.45-.55l.4-.25h.05l.1-.05h.15l1.05.3.25.2.1.25v.1l.1.3v.1l.3-.05 3.45-.35 2.8-.1 2.9.05 1.6.2h.75l.3-.05h.8v-.05h4.95l.35.05h3.4l.1.05h.15l.15.05.1.1.05.05.05.05.05.05.1.05.05.05v.05l.05.05v.05l.05.05V30l.05.05v.1l.05.1v.15l-.05.05v.1l-.05.05v.1l-.05.05-.05.05v.05l-.05.05-.05.1-.05.05-.1.05-.05.05-.1.05-.1.05-.1.05h-.1l-.1.05H67.4l-.35-.05h-.9l-.4.1-1.9.05-8.9.15-1.9.05v.15l-.05.1v.1l-.15.25-.05.15-.3.3-.25.1-.1.1-.4.05-.85-.25-.2-.15-.2-.25-.15-.4v-.2h-.15l-3.5.15-.2.4q-.3.4-.7.45l-.8-.15-.45-.5-2.4.25-.1.1-.35.45-.35.35-.8.35H39.4l-.4-.15-.45-.2-2.4.45q-2.85-.05-4.25.05l-1.75.1-1.35-.05-.15.15-.25.15-.35.15-.65-.05-.7-.1-.65-.45-.2-.3-.15-.35-.05-.1-.5.75-.3.25-.65.35-.4.15-1.8.05.25.55v.1l.05.1v.6l-.25.55-.1.05v.05l-.55.35-.25.1h-.6l-.25-.1-.5-.3-.35-.6-.05-.5v-.25l.25-.55q.3-.45.9-.55l.3-.05-.2-.15-.35-.45-.4.2-1.2.1-.5-.05-.2.4-.1.15-.6.4-1.3.15v-.05q-.55-.1-.85-.4l-.3-.45-.15-.5v-.25l-.5-.25-.45-.3-.2-.2-.25.05-.5.5-.45.7q-.75.6-1.55 0-.35-.35-.4-.75v-.05l-.3-.2-.3-.3q-.35-.45-.3-.85-.7-.2-.8-.95-.05-.35.2-.65.3-.3.65-.35l.15-.05.5.2v-.1q.1-.6.3-.85l.65-.55.95-.2.95.35.3.3v-.05q.6.05 1 .35zm29.3.5q-.75-.25-.65-1.05.2-.75.95-.75l.25.05q.5.1.6.65v.4l-.2.45q-.4.4-.95.25"/><path d="M18.7 15.5h1.6q.05-.45.25-.95l.4-.65q.65-.85 1.3-1.15l.75-.25q2.15-.45 3.4.8l.65.85.35.6q.45 1 .1 2.45l-.3.85-.55.6-.4.3.55 1.75q.4 1.95.2 3.5l.65-.3 2.5-.8 1.65-.25q2.95-.3 4.6.05 2.65.5 4.05 2.2 1.3 1.6 1.25 3.55l3-.1 6.1.25 10.05.2q.4 0 .45.2l-.15.35v.1q0 .25-.5.35l-8.9 1.1-11.65.45q-1.45.8-2.9 1.1l-2.55.2-11.6-.2-1.6-.15-.9-.1-.4-.15-1.8-.35q-2.65-.8-4.6-2.05l-3.65-2.6-1.3-1.05-.8-.9-.85-1.2q-.4-.8-.05-1.65.4-.85 1.25-1.15l1.4-.2H10L9.35 20l-.6-1.6q-.35-1.6.2-3l.8-1.35q.85-1 2-1.3l1.1-.1 1.1.2q1.25.45 1.85 1.6.5.85.55 1.75 1.25-.65 2.35-.7m-3.95 4.05q-.75.15-1.35.6v.15l-.15 1.05-.25.6-.35.45-.5.5q.05.95.75 1.75l.5.4 1.55.35.75-.05.7-.35.55-.4.7-.95.2-1.5-.1-.8-.25-.5q-.4-.7-1.25-1.1l-.75-.25zm8.1 4.65h.1l.2-.1.35-.05.25.05.5-.15.3-.1.15-.3-.4-.3-.5-.15h-.85l-1.3.15-.45-.35-.75-.05q-.4.1-.6.4-.25.4-.15.85l-.55.25-.7.65-.55.8q-.3.65.1 1.1.35.6 1 .5l.65-.15.1-.35q.25-.6.6-1.05l1.1-1.05.5-.25.85-.3zm-1.3-5.1-.15.5-.05 1 .15.4.1.2q.4.65 1.1.95l1.45.15q1.15-.15 1.65-1.3l.1-.25q.2-.9-.4-1.85l-.55-.65q-.7-.5-1.6-.4l-.1.05-.65.15-.55.4-.3.35z"/><path fill="#fff" d="m21.55 19.1.2-.3.3-.35.55-.4.65-.15.1-.05q.9-.1 1.6.4l.55.65q.6.95.4 1.85l-.1.25q-.5 1.15-1.65 1.3l-1.45-.15q-.7-.3-1.1-.95l-.1-.2-.15-.4.05-1zm1.3 5.1-.05.05-.85.3-.5.25-1.1 1.05q-.35.45-.6 1.05l-.1.35-.65.15q-.65.1-1-.5-.4-.45-.1-1.1l.55-.8.7-.65.55-.25q-.1-.45.15-.85.2-.3.6-.4l.75.05.45.35 1.3-.15h.85l.5.15.4.3-.15.3-.3.1-.5.15-.25-.05-.35.05-.2.1zm-8.1-4.65.75-.05.75.25q.85.4 1.25 1.1l.25.5.1.8-.2 1.5-.7.95-.55.4-.7.35-.75.05-1.55-.35-.5-.4q-.7-.8-.75-1.75l.5-.5.35-.45.25-.6.15-1.05v-.15q.6-.45 1.35-.6"/></g></svg>