<svg xmlns="http://www.w3.org/2000/svg" xmlns:ffdec="https://www.free-decompiler.com/flash" ffdec:objectType="shape" width="29.55" height="28.2"><g fill-rule="evenodd"><path d="M15.15 9.2q.85-2 2.2-3.8.95-1.3 1.8-1.45.7-.1 1.45.3.65.3 1.3.75l.35.3L23.7.65q.35-.8 1.3-.65.9.25.95 1.2l-.1.7-1.05 3.45L25.9 5l1-.1q.95.15 1.7 1.4l.4.9.2.95.35 2.3-.1 1.05-.25 1.4q0 3.3-2.55 6.95l-.05.05-.45-.15-1.65-.1-.65.05-.3.15-.05.4.35.35 1.65.75q-4 4.95-9.15 5.85l-3.5.2-3.45-.45.15-.35 1.15-3.15.05-.25q-.05-.25-.4-.15L7.9 25.8l-.35.55-1.05-.45-.3-.05q-2.7-1-4.6-2.8-1.05-1.05-1.45-2-.45-1.4.45-2.3.5-.55 1.55-.7l1.85-.1q2.15-.1 4.35-1.55l3.55-3.1 2.35-2.6 2.75.9.45-.15.05-.4-.25-.3-.8-.4-.5-.45zm6.65-.65-1 2-1 1.95-1.2 1.55-2.8 3q-3.05 2.8-7.25 3.25-.65.05-.95.3l4.35.15q1.95-.45 4-1.8l1.15-.85q1.4-1.35 2.55-3.4 1.5-2.8 2.3-5.65.1-.5-.15-.5"/><path fill="#999" d="M26.6 19.9q.7.1 1.15.45.5.45.4.85l-.25.45q-.5.3-1.5 0l-.9-.3-1.65-.75-.35-.35.05-.4.3-.15.65-.05 1.65.1zM9.4 26.95l-.5.85q-.7.6-1.25.25-.6-.3-.35-1.15l.25-.55.35-.55 2.45-2.75q.35-.1.4.15l-.05.25-1.15 3.15zm4.85-16.25-.35-.15-.6-.6q-.15-.35.1-.7.3-.45.65-.45.55 0 1.1.4l.8.7.5.45.8.4.25.3-.05.4-.45.15zm7.55-2.15q.25 0 .15.5-.8 2.85-2.3 5.65-1.15 2.05-2.55 3.4l-1.15.85q-2.05 1.35-4 1.8L7.6 20.6q.3-.25.95-.3 4.2-.45 7.25-3.25l2.8-3 1.2-1.55 1-1.95z"/></g></svg>