<svg xmlns="http://www.w3.org/2000/svg" xmlns:ffdec="https://www.free-decompiler.com/flash" ffdec:objectType="shape" width="75.7" height="42.05"><g fill-rule="evenodd"><path fill="#999" d="M9.6.85v.35l-.15.05Q8.4 1.55 7.9 2.7q-.35.7-.55 2.15l-.1 1.05-1.1-.95-2.65-1.5L1.65 2.2l-.6-.1q-.2.3.2.6 2.35 1.8 3.15 3l.6.8 1.3 1.4.7.75-.05.05-.65-.1-1.2-.3-2.9-.65-1.95-.8L.1 6.8V.85zM.1 8.55l.95.4q3.35 1.35 5.35 2.8l.5.35.05 1.05-.5-.05H2.8l-2.05.05-.65-.05zm0 6.25h.15l1.6.35 4.85 1.3.2.1h-.2l-.75.25-1.3.05-2.85.5-.85.15q-.45.25-.3.65.2.25.45.25l5.65.9-.55.25-1.15.55q-.75.3-1.1.6l-.6.45-.85.45-2.4 1.2zm0 9.15 2.3-.55 1.6-.25 1.2-.45 2.1-.55-.1.3q-.6 1.6-1.55 3l-2.3 3.15-1.55 2.6-1.05 2.35-.05.2q.15.4.45.15l.25-.45 1.1-1.05 4.45-4.6 1.15-1.25-1.05 3.35-.4 1.3-.45.9q-.65 1.3-1.35 4.3v.45l.55.05q.7-.25 1.45-1.35l.95-1.75 1-1.3.7-1.6.2-.5.15.15q.75.6 1.7.5h.05l-.15-5.4.1-6.3.75 5.1.6 5.4h.05q1 0 1.65-.65l.15-.15.25.45.9 1.5 1.15 1.25 1.2 1.65q.9 1 1.6 1.2l.55-.1-.05-.45q-1.1-2.9-1.95-4.15l-.55-.85-.55-1.25-1.5-3.2 1.3 1.1 5 4.1 1.3 1 .3.4q.35.25.45-.15l-.1-.2-1.35-2.3-1.95-2.4-2.7-2.95q-1.1-1.3-1.9-2.8l-.15-.3 2.15.35 1.25.35 1.6.1 2.4.3q1.45.2 2.35 0l.2-.1-.1-.25-.25-.05-1.2-.3-3.75-1.4-.9-.35-.65-.4-1.15-.5-1.25-.4-.55-.25 5.45-1.45.4-.25q.1-.45-.4-.65l-.85-.05-2.85-.2-1.3.05-.8-.15h-.2l.2-.1q1.85-.85 4.6-1.75l1.55-.5 4.45-2.1.35-.3-.35-.4-.55.15-2.7.55-1.9.45-2.05.15-3.6.4-.5.1-.1-1.1.45-.4q1.8-1.6 4.9-3.25l1.45-.8 1.55-1q.95-.65 1.65-.9l.65-.45-.35-.35h-.55l-2 .45q-.7.25-1.85.9l-1.85.95-2.75.95-1.15.4-.65.15-.05-.05.6-.8 1.1-1.5.45-.9q.65-1.2 2.6-3.1h36.4q1.95 1.9 2.6 3.1l.45.9 1.1 1.5.6.8-.05.05-.65-.15-1.15-.4-2.75-.95-1.85-.95-1.85-.9-2-.45h-.55q-.35.1-.35.35l.65.45 1.65.9 1.55 1 1.45.8q3.1 1.65 4.9 3.25l.45.4-.1 1.1-.5-.1-3.6-.4-2.05-.15-1.9-.45-2.7-.55-.55-.15q-.35.1-.35.4l.35.3q2.4 1.4 4.45 2.1l1.55.5q2.75.9 4.6 1.75l.2.1H59l-.8.15-1.3-.05-2.85.2-.85.05q-.5.2-.4.65.15.25.4.25l5.45 1.45-.55.25-1.25.4-1.15.5-.65.4-.9.35L50.4 21l-1.2.3-.25.05q-.2.1-.1.25l.2.1q.9.2 2.35 0l2.4-.3 1.6-.1 1.25-.35 2.15-.35-.15.3-1.9 2.8-2.7 2.95-1.95 2.4-1.45 2.5q.1.4.45.15l.3-.4q.15-.25 1.3-1l5-4.1 1.3-1.1-1.5 3.2-.55 1.25-.55.85q-.85 1.25-1.95 4.15l-.05.45.55.1q.7-.2 1.6-1.2l1.2-1.65L58.9 31l.9-1.5.25-.45.15.15q.65.65 1.65.65h.05l.6-5.4q.3-2.6.75-5.1l.1 6.3-.15 5.4h.05q.95.1 1.7-.5l.15-.15.2.5.7 1.6 1 1.3.95 1.75q.75 1.1 1.45 1.35l.55-.05v-.45q-.7-3-1.35-4.3l-.45-.9-.4-1.3-1.05-3.35 1.15 1.25 4.45 4.6 1.1 1.05.25.45q.3.25.45-.15l-.05-.2L73 31.2l-1.55-2.6-2.3-3.15q-.95-1.4-1.55-3l-.1-.3 2.1.55 1.2.45 1.6.25 2.3.55.95.2v-.85l-3.35-1.7-.85-.45-.6-.45q-.35-.3-1.1-.6l-1.15-.55-.55-.25 5.65-.9.45-.25q.15-.4-.3-.65l-.85-.15-2.85-.5-1.3-.05-.75-.25h-.2l.2-.1 4.85-1.3 1.6-.35 1.1-.3v-1.55l-1.6.2L72 13.1h-3.65l-.5.05.05-1.05.5-.35q2-1.45 5.35-2.8l1.55-.65.35-.15v-1.7l-1.1.4-1.95.8-2.9.65-1.2.3-.65.1-.05-.05.7-.75 1.3-1.4.6-.8q.8-1.2 3.15-3 .4-.3.2-.6l-.6.1-1.85 1.25-2.65 1.5-1.1.95-.1-1.05q-.2-1.45-.55-2.15-.5-1.15-1.55-1.45l-.15-.05V.85h10.5v41.2H.1zM18.2.85l-1 .8-2.4 1.75-.95 1-.3-1-.85-2.05-.35-.5zm44.25 0-.35.5q-.45.65-.85 2.05l-.3 1-.95-1-2.4-1.75-1-.8z"/><path fill="#fff" d="m.1 6.8.15.05 1.95.8 2.9.65 1.2.3.65.1.05-.05-.7-.75L5 6.5l-.6-.8q-.8-1.2-3.15-3-.4-.3-.2-.6l.6.1L3.5 3.45l2.65 1.5 1.1.95.1-1.05q.2-1.45.55-2.15.5-1.15 1.55-1.45l.15-.05V.85l.05-.7L11 .05q.8.15 1.35.8l.35.5.85 2.05.3 1 .95-1 2.4-1.75 1-.8.65-.6.6-.15q.25.25-.1.6l-.15.15q-1.95 1.9-2.6 3.1l-.45.9-1.1 1.5-.6.8.05.05.65-.15 1.15-.4 2.75-.95 1.85-.95q1.15-.65 1.85-.9l2-.45h.55l.35.35-.65.45q-.7.25-1.65.9l-1.55 1-1.45.8q-3.1 1.65-4.9 3.25l-.45.4.1 1.1.5-.1 3.6-.4 2.05-.15 1.9-.45 2.7-.55.55-.15.35.4-.35.3-4.45 2.1-1.55.5q-2.75.9-4.6 1.75l-.2.1h.2l.8.15 1.3-.05 2.85.2.85.05q.5.2.4.65l-.4.25-5.45 1.45.55.25 1.25.4 1.15.5.65.4.9.35L24.4 21l1.2.3.25.05.1.25-.2.1q-.9.2-2.35 0l-2.4-.3-1.6-.1-1.25-.35L16 20.6l.15.3q.8 1.5 1.9 2.8l2.7 2.95 1.95 2.4 1.35 2.3.1.2q-.1.4-.45.15l-.3-.4-1.3-1-5-4.1-1.3-1.1 1.5 3.2.55 1.25.55.85q.85 1.25 1.95 4.15l.05.45-.55.1q-.7-.2-1.6-1.2l-1.2-1.65L15.9 31l-.9-1.5-.25-.45-.15.15q-.65.65-1.65.65h-.05l-.6-5.4-.75-5.1-.1 6.3.15 5.4h-.05q-.95.1-1.7-.5l-.15-.15-.2.5-.7 1.6-1 1.3-.95 1.75q-.75 1.1-1.45 1.35l-.55-.05v-.45q.7-3 1.35-4.3l.45-.9.4-1.3 1.05-3.35-1.15 1.25-4.45 4.6-1.1 1.05-.25.45q-.3.25-.45-.15l.05-.2L1.8 31.2l1.55-2.6 2.3-3.15q.95-1.4 1.55-3l.1-.3-2.1.55-1.2.45-1.6.25-2.3.55L0 24v-1.15l.1-.05 2.4-1.2.85-.45.6-.45q.35-.3 1.1-.6l1.15-.55.55-.25-5.65-.9q-.25 0-.45-.25-.15-.4.3-.65l.85-.15 2.85-.5 1.3-.05.75-.25h.2l-.2-.1-4.85-1.3-1.6-.35H.1l-.1-.05V13.1h.1l.65.05 2.05-.05h3.65l.5.05-.05-1.05-.5-.35q-2-1.45-5.35-2.8l-.95-.4L0 8.5V6.75zM55.6.85 55.45.7q-.35-.35-.1-.6l.6.15.65.6 1 .8L60 3.4l.95 1 .3-1q.4-1.4.85-2.05l.35-.5 1.35-.8 1.35.1.05.7v.35l.15.05q1.05.3 1.55 1.45.35.7.55 2.15l.1 1.05 1.1-.95 2.65-1.5 1.85-1.25.6-.1q.2.3-.2.6-2.35 1.8-3.15 3l-.6.8-1.3 1.4-.7.75.05.05.65-.1 1.2-.3 2.9-.65 1.95-.8 1.1-.4v1.7l-.35.15-1.55.65q-3.35 1.35-5.35 2.8l-.5.35-.05 1.05.5-.05H72l2.05.05 1.6-.2v1.55l-1.1.3-1.6.35-4.85 1.3-.2.1h.2l.75.25 1.3.05 2.85.5.85.15q.45.25.3.65l-.45.25-5.65.9.55.25 1.15.55q.75.3 1.1.6l.6.45.85.45 3.35 1.7v.85l-.95-.2-2.3-.55-1.6-.25-1.2-.45-2.1-.55.1.3q.6 1.6 1.55 3l2.3 3.15L73 31.2l1.05 2.35.05.2q-.15.4-.45.15l-.25-.45-1.1-1.05-4.45-4.6-1.15-1.25 1.05 3.35.4 1.3.45.9q.65 1.3 1.35 4.3v.45l-.55.05q-.7-.25-1.45-1.35L67 33.8l-1-1.3-.7-1.6-.2-.5-.15.15q-.75.6-1.7.5h-.05l.15-5.4-.1-6.3q-.45 2.5-.75 5.1l-.6 5.4h-.05q-1 0-1.65-.65l-.15-.15-.25.45-.9 1.5-1.15 1.25-1.2 1.65q-.9 1-1.6 1.2l-.55-.1.05-.45q1.1-2.9 1.95-4.15l.55-.85.55-1.25 1.5-3.2-1.3 1.1-5 4.1q-1.15.75-1.3 1l-.3.4q-.35.25-.45-.15l1.45-2.5 1.95-2.4 2.7-2.95 1.9-2.8.15-.3-2.15.35-1.25.35-1.6.1-2.4.3q-1.45.2-2.35 0l-.2-.1q-.1-.15.1-.25l.25-.05 1.2-.3 3.75-1.4.9-.35.65-.4 1.15-.5 1.25-.4.55-.25-5.45-1.45q-.25 0-.4-.25-.1-.45.4-.65l.85-.05 2.85-.2 1.3.05.8-.15h.2l-.2-.1q-1.85-.85-4.6-1.75l-1.55-.5q-2.05-.7-4.45-2.1l-.35-.3q0-.3.35-.4l.55.15 2.7.55 1.9.45 2.05.15 3.6.4.5.1.1-1.1-.45-.4q-1.8-1.6-4.9-3.25L53 6.1l-1.55-1-1.65-.9-.65-.45q0-.25.35-.35h.55l2 .45 1.85.9 1.85.95 2.75.95 1.15.4.65.15.05-.05-.6-.8-1.1-1.5-.45-.9q-.65-1.2-2.6-3.1"/><path d="m28.15 5.7 4.25.65h.05l3.35-.6.9-.05v-.05h1.5v.05l.9.05 3.35.6h.05l5.75-.85 2.15.25q.7.45 1.1 2.15.8 3.8.9 7.75v1.25q.9 3.2.4 7.2-.25 2.1-.9 3.4-.7 1.4-2.4 3.2l-1.7 1.6 2.6 1.25q2.45 1.1 4.45 1.15l3.4-.45-.15-1.4-.2-.1q-.85-.5-.95-1.7-.1-.5.1-.8l.6-.55q.85-.5 2.25-.85l-.05-2.8.1-3.35q.15-4 1.35-12 .55-3.6 1.15-6.05.3-1.1.75-1.5.5-.45 1.25-.4.75.1 1.15.6l.5 1.5q.7 4.3.65 6.45l-.25 3.15-.95 6.75q-.6 4.2-.75 6.85l-.05.2 2.05.2q1.2.3 1.65.7.9.8.65 1.95-.15 1.1-1.3 1.6l-.75.2q.2 1.55-.55 2.8-.75 1.15-2.3 1.95v.15q0 1.5-.35 2.3-.55 1.35-1.7 1.5-.95.15-1.65-.65-.6-.85-.35-1.75l.05-.15-2.8.25q-4.4.1-8.3-1.4h-.05l.15.35q.6 1.55.4 2.75l-.05.1h-24.2l-.05-.1q-.2-1.2.4-2.75l.1-.2.05-.15h-.05q-3.9 1.5-8.3 1.4l-2.25-.15-.55-.1.05.15q.25.9-.35 1.75-.7.8-1.65.65-1.15-.15-1.7-1.5-.35-.8-.35-2.3v-.15q-1.55-.8-2.3-1.95-.75-1.25-.55-2.8l-.75-.2q-1.15-.5-1.3-1.6-.25-1.15.65-1.95.45-.4 1.65-.7l2.05-.2-.05-.2-.75-6.85-.95-6.75-.25-3.15q-.05-2.15.65-6.45l.5-1.5.35-.3.8-.3q.75-.05 1.25.4.45.4.75 1.5l1.15 6.05q1.2 8 1.35 12l.1 3.35-.05 2.8q1.4.35 2.25.85l.6.55.1.8q-.1 1.2-.95 1.7l-.2.1-.15 1.4 3.4.45q2-.05 4.45-1.15l2.6-1.25-1.7-1.6q-1.7-1.8-2.4-3.2-.65-1.3-.9-3.4-.5-4 .4-7.2v-1.25q.1-3.95.9-7.75.4-1.7 1.1-2.15.75-.45 2.15-.25zm3.15 21.35.55.3q1.1-.6 1.65-1.8l.15-.25-.9-.35-.8-.3-1.1-.45h-.05l-1-.75-2.35-1.9-.9-1q-.6.55-.95 1.25-.6 1.1-.5 2.25.05 1 .75 2l.2.3.3-.1 1-.05h1.4l1.15.25zm-2.7 1.55.25.6.3.3.9.7.8.45.95.3 4.2.15.7-.2 1.3-.6 1.25.6.75.2 4.2-.15.9-.3 1.75-1.15.25-.3.2-.35.1-.2-.65.15-1.4.25h-.3l-1.6.3-2.7-.2-.75-.25-.55-.3-.55-.35-.2-.15-.3-.15-.35-.05-.45.05-.3.15-.25.15-.5.35-.55.3-.75.25-2.7.2zm20.35-8.45q-.5-.4-1-.6l-.25.55q-.85 1.85-3.25 3.6l-1.7 1.05-.4.2.25.8q.5.9 1.7 1.35l1.7-.7 2.15-.3 1 .1.45.15q1.05-.9 1.2-2.2v-.9l-.3-1.15-1.05-1.45z"/><path fill="#fff" d="m48.95 20.15.5.5 1.05 1.45.3 1.15v.9q-.15 1.3-1.2 2.2l-.45-.15-1-.1-2.15.3-1.7.7q-1.2-.45-1.7-1.35l-.25-.8.4-.2 1.7-1.05q2.4-1.75 3.25-3.6l.25-.55q.5.2 1 .6M28.6 28.6l3.95.75 2.7-.2.75-.25.55-.3.5-.35.25-.15.3-.15.45-.05.35.05.3.15.2.15.55.35.55.3.75.25 2.7.2 1.6-.3h.3l1.4-.25.65-.15-.1.2-.2.35-.25.3-1.75 1.15-.9.3-4.2.15-.75-.2-1.25-.6-1.3.6-.7.2-4.2-.15-.95-.3-.8-.45-.9-.7-.3-.3zm2.7-1.55-1.4-.6-1.15-.25h-1.4l-1 .05-.3.1-.2-.3q-.7-1-.75-2-.1-1.15.5-2.25.35-.7.95-1.25l.9 1 2.35 1.9 1 .75h.05l1.1.45.8.3.9.35-.15.25q-.55 1.2-1.65 1.8z"/></g></svg>