<svg xmlns="http://www.w3.org/2000/svg" xmlns:ffdec="https://www.free-decompiler.com/flash" ffdec:objectType="shape" width="68.6" height="42.7"><g fill-rule="evenodd"><path fill="#999" d="m27.95 6.1-.2.95-.45.55-.85-.15-.4-.65-.25-.6-.2-1.2-.3-1.15-.25-1.45q0-.65.15-.95.15-.4.6-.65.4-.3.85-.25l.8.35q.4.35.45.8zm14.3-2 1.4-1.3 1.1-1.35.9-.95q.6-.5 1.2-.5 1.05-.1 1.5.9.35 1-.35 1.7l-1.4.95-.5.25-.7.3-2.85 1.4-.5.15q-.3 0-.45-.2-.15-.25.05-.55zM58.95 19q-.25-2 .2-4.95.35-2.3 1.1-3.5l.55-.65.05-.2.1-.1.3-.45.25-.25.35-.2.95-.15.9.2.75.45.2.25.3.5.1.1q.75.6 1.1 2.4l.3 1.5.4 3.25.1 1.5-.05 1.95-1.25 1.85-1.55 1.3q-1 .6-1.95.3l-1.05-.65Q59.4 21.8 58.95 19l.15 1.05.3 1.15.45 1q.25.85-.35 1.65-.55.75-1.45.8l-1.5-.1-1.2-.65q-.75-.55-1.4-2-1.1-2.55-1.25-5.55 0-1.75.3-2.9.4-1.5 1.45-2.55.3-.3.95-.75l1.7-1 1.3-.2q.35.15.45.65l-.15.85q-.35.55-1.4 1.05.55.75 1 3zm4.55-6.95-.2.25-.45.85-.3.45q-.1.1-.25.15l-.15.45.1.45.1 1.25.05.8.6 1.85.5 1.1.35-.45.3-.5.1-.45.25-2.25-.1-1.05-.1-.5v-.4l-.15-.6-.15-.7-.1-.5v-.05l-.3-.2zm-15.25-.2q.5.4.5 1.05T48.3 14q-.6.7-1.95.4l-.5-.15-3-.6-.85-.25-.45-.5q0-.4.45-.65l1.15-.3 1.2-.15.5-.1.8-.25 1.45-.15.7.25zm-3.6 11.05-3.4-2.65q-.7-.6-.85-1 .1-.75.85-.75l.05-.05 1.45.3.85.5.85.45.5.15q1.1.3 1.85 1.05.35.5.2 1.15l-.65.9zm15 2.85.4-.1.9.15q.45.3.55.75.2.55-.15 1.25l-.7 1.1-1.25 2.35-.45.55q-1 .95-2.7 1.45l-1.45.05-.55-.65q-.2-.5 0-.9l.95-.9q.95-.75 1.9-2.6l.4-.8.35-1.05q.2-.5.6-.7l.95-.1zm-7.9 6.05-.05.4q-.1.8-.5 1.1l-.65.25-.7.25-.3.3-.6.85-.75 1.25q-.45.5-1.25.6l-1.3-.45q-.75-.65-.65-1.75.15-1.05.95-1.6l.6-.35v-.05l.15-.15.7-.75.2-.1.65-.5q1-.75 2-.15l.1.05.6.05q.75.2.8.75m-22.9-7.2q-.25 2.55-.1 7.55-.1 1.8-.9 2.3l-1.3.1q-.7-.25-.85-.95-.2-.55 0-1.45l.05-4.05.3-3.05.05-.35v-.15l-.05-2.5-.2-3.85-.15-3.85.25-1.25q.1-.3.35-.55.2-.75.65-1.1l.75-.35.75-.5.4-.15.35-.1q.5 0 .7.35.2.3-.1.8l-.3.35.4.45.2.35.3-.4 1.8-1.45.25-.2.5-.3 2.7-2.25 1.35-1q.6-.25.85 0l.1-.05q.4-.2.6.2v.55l-.25.2-.55.35-.1.05-.7.65-2.05 1.7-.5.35-2.8 2.3-.8.5q-.35.05-.7-.3l-.1.35-.4 3.55-.45 1.35-.25.15.15 2.35.1-.25q.45-.55 1-.2l.35.5 1.75 3.35.55.8.9.95 1.25 1.25.45.7q.25.6-.15 1.15l-1.15.95-.65.1q-1.35.05-2.6-.85-1.1-.95-1.5-2.25l-.45-2.3zm2.95-10.05 6.15-4.45.95-.5.65.1.15.25q.2.55-.25 1.2l-.95.9L36 13.7l-4.75 3.05-.75.25q-.55 0-.55-.5l.4-.5zm-11.1-6.7.9 1.9.2.55.25.4v.5q-.2.3-.55.2l-.55-.3-1.25-1.25-3.5-4.1-.6-1.05q-.25-.9.5-1.5.7-.7 1.55-.25.65.25 1.35 1.55zm3.25 8.8.15-.05.55.25.2.5-.25.45-.85 1.05-.85.05q-.45-.2-.45-.7l.4-.75.25-.25.35-.2zm5.05 6.5-.05.8q.1-.6.5-.9l-.4-.8zm-10.85-7.6-.3.25h-.75l-3.45-.9-1-.3-3.4-1.3-.85-.9q-.4-.8.1-1.65.6-.75 1.5-.7.65.05 1.45.6l4.25 2.65.55.3.65.5 1.1 1.05zm-.75 5.95-.65.25-5.6 1.3-1.3.15q-.75 0-1.25-.35-.45-.3-.6-.85-.2-.55 0-1.1.15-.5.6-.9.45-.35 1-.4h.95l1.6.2 2.5.3 3 .45.4.15.2.35-.3.35zm13.1 11.2.1-.15.9-.75.3-.15.2-.2.4-.1.35.05q.1 0 .25.15l.2.5-.05.25-.1.3-.1.15-.1.2-.2.15-.85.75-.55.3-.4-.1-.2-.1-.25-.35-.1-.35.05-.1V33l.1-.3z"/><path d="M54 24.95q-.65-.5-1.25-1.75-2.7-5.6-2.3-10.7.1-2.25 1.2-3.3.25-.25 1.05-.7 3.4-1.85 7.05-2.85l2.65-.4q1.5 0 2.55.7.85.7 1.6 2.05l.95 2.05.75 3.45.35 4.35q-.1 2.45-.95 4.25l-.85 1.45-1.05 1.25-1.55.8-1.25.75q-.95.75-1.15 1.75l-.15.9q-.25 2-1.6 3.35l-.85.8-1.5 1q-1.55.7-2.95.3l-.85-.25q-.75-.45-1.15-.6l-1.2-.1q-.4.1-1.05.85-1.15 1.35-2.35 3.4-.7 1.05-1.2 1.1-.65.05-1.35-.75l-1.95-2.15-1.05-.9q-.55-.65-.35-1.3l.45-.6 2.65-3 .65-.7q1.65-1.5 4-1.1 1.95.35 3.3 2h.1l.65-.2.2-.1q.65-.65.8-1.5l.55-2.2.3-.65.1-.1zm5.65-8.8q.25 2.75 1.65 5.3l.9 1.3q.5.6.95.7l1.35-.2.95-1q1.25-1.75 1.35-4.35.05-1.75-.5-4.65l-.35-1.55-1.4-2.9-.55-.65-.8-.3L62 8q-1.65.6-2.1 2.6l-.2 1.35q-.2 2.8-.05 4.2M62 15.5l.25-2.55.25-.7.35-.3q.55-.45 1.1-.15l.45.6.45 1.05.4 1.7.05.4-.05 1.2-.35 2.3-.3.45-.5.25h-.5l-.75-.7-.55-1.15-.15-.85-.15-.85zm1.95 3.15.15-.05v-.15l.1-.05.1-.55-.1-2-.1-.7-.1-.4-.1-.25-.2-.9-.2-.5-.2-.3-.1.2-.1.55.15.15.35.6.1.3.05.25.05.15v.1l.1.2.1.5.05.2v1.05l-.1.45-.1.1-.1.2-.2.2.2.25zM54 20.9l.45 1.3q.4.95.9 1.2l.9.2 4.05.5q-2.25-2.45-3-7.25l-.15-1.45.05-1.75q.2-3.4.95-5.15-2.45 1-3.9 1.75l-.9.65-.4 1q-.3 1.25-.2 2.85.05 1.55.85 4.75zM18.5 38.25l-3.1 1.1q-5.1 1.7-10.55 2.25l-1.6.2q-.55.1-2.2.7L0 42.7v-3.55l.45-.25.1-.05L3 37.35l7-5 11.4-9.1-.3-.6-.4-1.1-1.05-4.45v-.8l.2-.35.05-.25.7-.85 1.75-1.4 1.4-.95.05-.65.2-1q.3-.55 1.1-1l2.15-1.2.8-.65.8-.5 1.4-.2 2.6-1.8L36 3.3q.6-.4 1-.45.8-.15 1.65.65.95.9 1.75 2.5l1.3 2.8.25.9q-.05.55-1.15 1.3l-1.1.9-1 .95-.8.65.2.2.8 1.4.2.55V16l-.25 2.4-.75.95-.15.05.25.55.4 1.3.05 1.5-.1 1.55q-.2 1.3-1.25 2.95l.05.05.65 1.1-.7 1.05-1.05.95.25 1.15.3.75.15.75q-.05.8-.9 1.25l-3.55 1.55-2.45.7-1.1.15q-.8-.1-1.15-.9l-.1-.35-.75.1-1.6.3-.95.2-.6-.05-2.3 1zm39.95-12.3-.85-.1-.1.1-.45.6-.2.35-.1.25-.35 1.55-.25.9-.6.9-.7.8-.6.3-.15.05.75.95.05.05.65.15q1.05.15 2.45-.8l1.45-1.6.95-2.7q.4-1 1.05-1.7zm-11.35 10 1.8-2.6 1.2-1.3q.5-.4 1.05-.5-.55-.6-1.5-.85-.9-.15-1.7.25-.75.35-1.85 1.65l-1.3 1.5.85.7.35.45.45.45.4.5zm-10-29.8-6.05 4.3-.35 3.6L37.9 8l.2-.15zm-5.5 10.1h.15v-.05l.6-.75 3.65-2.9 3-2.9-.4-.85-.35.25-1.7 1.4-5.95 4.5-.15 1.6zm-6.1 1.95.45 8.95v1.6l-.25 2.45-.4 3 2.85-.45.55-14.9.2-1.1.15-1.4.4-6.9q-1.2.25-3.15 1.8l-.5.55-.2.65-.25 2.8zm-2.55-1.6-.15.2.05.25.6 1.45.2-.1.5-.25V16.9l-.15-1v-.1zm1.2 2.9v-.25l-.3.2.1.25zm0 3.1V22l-.4.5v.25l.5.7zm5.7 1.25.05 2.1-.05 2.5.25.15q1.2.95 3.35 1.85l.45.1.35-.35q.8-1.1 1.75-1.85-3.3-3.45-5.75-7.45l-.2-.35zm5.7-6.85.95.65.05-.35-.05-.2v-.4l-.2-.65-.15-.2v-.15l-.2-.2-.2-.25-1.35 1.25zM29.6 33.65q2.05-.3 3.65-1.3l-.25-.2-.75-.35-2.6 1.45z"/></g></svg>