<svg xmlns="http://www.w3.org/2000/svg" xmlns:ffdec="https://www.free-decompiler.com/flash" ffdec:objectType="shape" width="76.95" height="40.7"><g fill-rule="evenodd"><path fill="#767676" d="m68 3.15-.05-.1-.35-.2q-.4-.2-.65 0-.15.35.1.6l.75.1zm2.3-.55.1-.5-.35-.4-.55.1-.3.45v.25q.45-.05.9.25zm-1.6 2.7-.4-.2-.6.15q-.95.15-1.7-.35-.8-.5-.8-1.45 0-.45.3-1.05l.6-.7 1.95-.15q.3-.7 1.15-1.05 1.3-.5 2.25.5l.5 1.05q.1.7-.2 1.2l-.5.55-.55.35-.25.55-.75.6q-.5.2-1 0m3.85 8.95-.45.6-.75.05-.35-.2q-.25-.35-.2-.7l.05-.3.1-.2q.35-.5 1-.35.65.3.65.85zm-10.25 3.6.15-.6q.2-.75-.15-1.2l-.35.05-.3.7v.2l.1.35.05.4v.05zm1.1 1.8-.6.85q-.4.3-.95.25l-.85-.3-.35.25-.9.1h-.55l-.65-.1-.5-.4-.5-.45-.1-.8.35-1.25q.35-.55 1.05-1l.35-.25 1.05-.05q.15-.55.45-1 .4-.55 1-.85.65-.25 1.25 0l.85.9.25 1.2-.15.95-.15.4-.1.35-.25.4zM60.75 3.7l.4.25.25.35q.25.5 0 1l-.65.55h-.85q-.4-.2-.55-.6-.2-.45-.05-.85t.6-.65zM47.7.85Q48.1.3 48.8.2l1.15.25.7.9q.2.55 0 1.15l-.75.85-1.15.2q-.6-.1-1-.55-.4-.4-.4-1.05t.35-1.1m8.5 11.55.35-.45.5-.3 1.15-.05q.6.2.9.7t.25 1.1q-.1.65-.55 1.05-.4.4-1.05.4t-1.1-.35-.6-1q-.1-.6.15-1.1m4.35 6.05-.15-.35-.2-.25h-.45q-.5.1-.65.3l-.15.45.1.45.35.1h.55l.5-.05.2-.6zm-7.25 18q-.75-.4-.85-1.3-.1-1.1.8-1.65.85-.5 1.8 0 .9.55.8 1.6-.05.9-.9 1.4zm12.35-2.65q-.25-.5-.1-.95.15-.5.65-.65l.55-.1q.35.05.75.35l.1.25q.35.6 0 1.1-.3.55-1 .55-.65 0-.95-.55M37.05.05l1.3.15q.7.35.9 1 .25.65-.1 1.35l-.95.95q-.65.25-1.3 0-.7-.25-1.05-.9-.3-.65-.1-1.25Q36 .3 37.05.05m-6.55 4.7-.6-.2-.1-.4.1-.5q.25-.25.55-.25.35 0 .6.25l.1.65-.35.4zM21.3.6q.35-.6.95-.6t.95.5q.35.55.05 1.1-.35.7-1.2.6l-.25-.15q-.45-.15-.6-.6t.1-.85M10.15 2l.2-.6Q10.9.5 11.9.65q1 .1 1.25 1.15.25 1-.6 1.6t-1.7 0l-.6-.75zm-3.2 4.65L7 6.6l-.05-.1-.5-.35-.2.15q-.1.15-.05.25l.2.35v-.05l.55-.15zm3.05-.3q.25.45.05 1.15l-.35.65L8.45 9l-.35.4q-.75.65-1.65.25-.8-.4-.85-1.15L5 7.75q-.2-.55-.1-1.35.1-.7.35-1.15.55-.7 1.5-.6.9.15 1.3 1l.05.1.8-.05q.8.1 1.1.65m-1.05.45q-.4-.25-.85 0l-.05.2.4.5zM2.1 12.75l.55.35.25.4-.1.9-.6.6q-.75.3-1.4-.35Q.3 14 .75 13.2q.55-.7 1.35-.45m15.6.3-.2-.7q-.1-.45.25-.7l.1-.2q.6-.5 1.2-.25.65.15.8.9.15.65-.35 1.15-.45.35-.95.3t-.85-.5m1 6.4-1.15-.05-.3-.2-.95.05q-1.1-.2-1.5-.85-.6-.95.15-2.3.5-.85 1-1.1l1.75.15.45.45.15-.2q.6-.5 1.3-.35.75.15 1.05.8.5.85.1 1.7-.35.8-1.2 1-.15.6-.85.9m-1.85-1.9.65-.7.1-.05v-.05l-.8-.3-.6.5-.05.4q.05.2.5.2l.2.05zM19.1 17l.15.15.4-.35q.15-.35-.1-.6l-.6-.05-.35.55zm-6.4-3.4-.05.1-.05.15-.15.1-.2.1v.05h-.3v-.05q-.2.1-.3-.15l-.2-.25v-.45l.1-.15.2-.2.3-.05.25.05.35.3.1.25zm-.05 20.9q0-.55.4-.95l.55-.2q.65-.15 1.05.4.55.65.05 1.3-.4.65-1.25.5-.8-.25-.8-1.05m10.9.9-.85.15q-.6-.15-.85-.6h-.1q-.7.2-1.3-.65-.8-1.4 0-2.8l.3-.4q.4-.3 1.2-.3 1 .1 1.4.45l.05.05.5-.2 1.15.05.85.7.25.75q.1.7-.3 1.4l-1.05.95-.55.1-.2-.1zm-16.6-5.75.4.45.2.9-.2.65q-.5 1.05-1.65.85-.5-.05-.9-.45l-.45-.85q-.25-1.1.75-1.7.95-.6 1.85.15m16.7 3.55.45.55.5-.25.5-.75-.3-.9q-.6-.3-.95.25l-.1.15v.15l-.15.8zm-1.6.25.45-.3-.15-.45v-.05q-.2-.45-.55-.3l-.2.3.1.45.35.4z"/><path d="m64.25 11 .05-.05-.1-.8-.35-.2-.6.05-.3.55.15.55.7.25.2.05zm-.05 2.55-.25-.45h-.9l-1.3-.65-.55-.4-.25-.8q-.25-1.95.95-2.8.7-.55 1.8-.45.8.2 1.2.55.4-.45 1.15-.8l2.2-.05q.65.35.85 1.35.25 1-.2 1.95l-1.25 1.35-.15.65-.85 1-1.3.2q-.7-.1-1.15-.65m2.65-3.05q.95-.55.6-1.5l-1.05.1q-.5.25-.6.8v.45l.8.25zm6.3 15.15-.65.85q-.55.4-1.3.3-.6-.1-1-.5l-1 .2q-1.45.1-2.15-.75-.75-1-.1-2.6.3-.85.8-1.25l2.25-.1.1.05q.25-.7.75-1.15.95-.95 2.1-.6 1.05.3 1.4 1.5.25 1-.25 2.05l-.7.95-.15.1zm-.7-2.2.1.05.25-.95q.1-.5-.15-.75l-.65-.2q-.5.1-.65.55v1.05q.65-.1 1.1.25M52.7 24.7q-.85 2.8-1.9 4.1-1 1.25-2.95 2.4l-.65.4.55 1.75.95 3.4.4 1.8v.9H28.5l.35-1.5-.1-.15-.45-.75q-.3-.35-.8-.4l-.6.05.15.65q.2 1.3-.45 2.05l-.1.15h-2.25l-.5-.6q-.3-.4-.6-.4l-.45.15-1.1.85h-7.55l-.3-.6-.15.3-.25.3H8.4l-.05-.05-.05.05h-8q-.45-.8-.25-1.8l.3-.85q.8-1.75 1.85-2.3.7-.45 1.9-.45l.1-.7-.05-.95v-.1l-.2-.15q-.9-.75-.85-1.65 0-.75.7-1.3l.85-.25q.85 0 1.35.7l.2.4.35-.15q.75-.15 1.35.3.65.5.65 1.25.1 1.25-1.15 1.7l-.5.15-.5.15q-.15.15-.15.55l-.05.3q1.15.35 2.15 1.6l.1.15.2-.2q.45-.4.9-.5 1.55-.45 3 .55l.45.35.75 1.35q.15-.5.45-.8v-.1l1.1-.85v-.8q.25-1.05 1.4-1.15 1.1 0 1.5 1l.1.7.35.15q.7-.65 1.3-.95.85-.5 2-.75l.7-.15q1.65-.15 2.85.8l.45.4 2.3-.05q.75.25 1.3.75l.45-1.45q.5-1.15 1.15-2.15l-2.7-1.65q-2.3-1.65-3.35-3.1-.8-1.2-1.35-3.15-1.4-4.8-.5-9.15l-.55-1.8-.65-2.35-.1-2.25q.1-1.4.6-1.95.8-1.05 3.1-1.05l4.05.3q3.3-1.8 8.85-1.9 4.6-.2 7.4 1.1l.95.5q1.7-.65 3.55-.85h1.5q.75.1 1.35.6.5.5.6 1.35l.05 1.55-.2 3.2-.85 3.1.3 1.15q.5 2.4.45 4.15-.05 1.95-.95 4.6m-3.6-7.55q-1-1-2.2-1.2l-.1.15q-1.7 2.7-4.6 4.3l.35 1 .4.65 4.3-.3 2.05.35.1.05q.75-.95.75-2.3 0-1.55-1.05-2.7m9.35 10q.2-.45-.05-.75l-.55-.25q-.5-.1-.7.15-.3.35.1.85l.4.55h.65zm1.4.9-.15.1-.25.35.25.6.2.05 1 .1.4-.3.05-.45-.2-.25q-.55-.5-1.3-.2m-1.55 3.2q-1.2.25-1.9-.7-.4-.55-.25-1.3l.1-.4-.4-.35q-.4-.5-.5-1.25-.2-1.75 1.05-2.5l2.5-.05.9.65q.35.45.3 1.4h.8q1.2.2 1.75.75.4.45.4 1.1l-.35 1.2q-.7 1.05-2.1 1.15l-1.35-.2zm3.8 7.8-.5.45-.05.05H52.9l-.05-.05q-.7-.95-.3-2.05.4-1.05 1.6-1.3.4-.15.95 0l.05-.25.3-.5q.9-1.15 2.2-1.45l2.6.05.85.25.9-1.05.5-.45-.05-.2q-.1-.5.1-.9.25-.9 1.25-.9.95 0 1.3.9l.1.9v.1q.6.2.8.75l.05.55q-.1.7-.6 1l-.85.15-.7-.1-1.2.9v.05q.3.8.15 1.65-.15.9-.75 1.45m-24.65-15.7-.9.85-.75.95q-.95 1.1-2.45 1.55l-2.8.2-1 .05q-.6.15-.6.7-.05.45.65.75 2.3 1.05 4.75.4 2.55-.65 4.2-2.65l3.75.85q2.2.2 3.8-.65l1.65-1.15.65-.7.35-.65q-.45-.75-1.9-.35l-2.35.5-2.8-.45-2.8-.6q-.85 0-1.45.4m38.8 14.8q-.85 1.2-2.1 1.4H70.7l-.6-.45-.15-.2-.5.6-.05.05h-1.6l-.3-.15-.25.15H63.3q-.35-.55-.3-1.15l.1-.65.45-.95 1.15-.95 1.35-.4h.45l1.85.45q.45.25.9.85v-.05q-.05-.8.5-2.65l.4-.95.6-.9.1-.05-.55-.65h-.2l-.85.15q-.95-.15-1.05-1.15-.05-.6.45-1.1.6-.7 1.3-.65 0-.4.35-.75t.8-.35q.4 0 .75.35l.35.75-.1.65-.3.65.15.85.1.2q1.65-1.05 3.15-.55.75.25 1.1.8.45.7.05 1.35l-.15.2.1.25q.65 1 .65 2.5.1 1.15-.4 2zM70 23.95q-.15-.25-.15-.7l-.3-.2q-.5-.15-1 .45l-.25.6q0 .45.45.7l.8.1h.15zm-43.2-4.8-.3.5q-.75 1.45-.2 3 .45 1.45 1.95 2.3l3.35.15 1.2-.9.35-.4q.55-.75.6-1.95-2.5-.6-4.6-2.9l-.9-1.2-.2.1q-.6.35-1.25 1.3M16.6 3.6q-.35.1-.45.3l-.05.4-.1.35.45.55.9-.15.2-1-.2-.45q-.25-.2-.75 0m2.15 3.65-.6.85-1 .35-.8-.2-.2.2-.95.6-1.9-.25-.8-.55-.2-.85q0-.85.3-1.6.35-.85 1.05-1.1l.95-.15.1-.5q.35-.9 1.4-1.6.55-.35 1-.35.4.05.8.3.9.65.9 1.7.1.8-.4 1.45.65.65.35 1.7m-3.7-1.2-.2-.25-.4.15-.6.7v.55l.5.35.6-.1.55-.35-.05-.7zm-6.85 9.8q.85.5.85 1.7v.5q1.25-.1 1.95.85.75 1.1 0 2.05-.45.6-1.55.8L8.3 21.7l-.35-.2-.7.6q-1 .45-1.8-.2-.85-.6-.75-1.6.05-.55.35-.9l-.2-.35-.05-.85q.2-1.1.45-1.5.4-.7 1.15-1l.85-.1zM7.45 18q.2-.45-.05-.85H7l-.3.3q-.15.25-.05.8l.05.45.35.05zm.8 1.65-.1.1.15.6h.45l.8-.25q-.25-.45-.8-.55l-.4.05zM18.5 30.7q-.25.75-.9 1.15l-1.4.2q-.75-.15-1.25-.6l-.25.05-1.2.2-.9-.05-.7-.45-.25-.4-.2-.25-.25-.2q-.45-.45-.25-1.3.15-.7.65-1.5l.35-.4.75-.5.45-.25.65-.1q.85 0 1.55.35l.1.05.25-.75.65-.7.55-.45q.55-.35 1-.35l.95.05.4.1q.4.15.6.45l.25.45.3.5.15.7v.9l-.1.7-.25.35-.45.55-.6.55-.5.3zm-.1-4.4-.25-.05-.15.05-.35.25-.1.2-.2.35-.2.95.35.15 1.05-.65.1-.2.05-.3v-.25l-.2-.45zM15 28.65l.2-.15-.05-.1-.8-.2h-.25q-.55 0-.9.5-.35.45-.05.95l.1.15.35.05.85-.3h.1q.1-.55.45-.9"/><path fill="#fff" d="M49.1 17.15q1.05 1.15 1.05 2.7 0 1.35-.75 2.3l-.1-.05-2.05-.35-4.3.3-.4-.65-.35-1q2.9-1.6 4.6-4.3l.1-.15q1.2.2 2.2 1.2m-11.65 6.2q.6-.4 1.45-.4l2.8.6 2.8.45 2.35-.5q1.45-.4 1.9.35l-.35.65-.65.7-1.65 1.15q-1.6.85-3.8.65l-3.75-.85q-1.65 2-4.2 2.65-2.45.65-4.75-.4-.7-.3-.65-.75 0-.55.6-.7l1-.05 2.8-.2q1.5-.45 2.45-1.55l.75-.95zm-10.65-4.2q.65-.95 1.25-1.3l.2-.1.9 1.2q2.1 2.3 4.6 2.9-.05 1.2-.6 1.95l-.35.4-1.2.9-3.35-.15q-1.5-.85-1.95-2.3-.55-1.55.2-3z"/><path d="M43.95 31.35q-.35-.85-.05-1.6.25-.85 1.05-1.15 1.2-.55 2.7.4 1.45.9 2.55 2.7 1.45 2.15 2.15 4.3.75 2 .2 3.2l-.85 1q-.65.4-1.3.4-1.55 0-2.25-1.35l-.45-1.35q-.65-2.15-3.15-5.55zM31.4 35.5q-.5.9-.75 1.9l-.25 1.55q-.3.85-1.1 1.35t-1.65.4q-.85-.05-1.55-.7t-.8-1.55v-.8q.2-3.55 3.4-6.4l1.1-.85q1.05-.5 2.1 0 1.1.5 1.2 1.65.05.9-.55 1.85z"/></g></svg>