<svg xmlns="http://www.w3.org/2000/svg" xmlns:ffdec="https://www.free-decompiler.com/flash" ffdec:objectType="shape" width="70.3" height="40.45"><g fill-rule="evenodd"><path fill="#999" d="M49.5 15.3q-.55.1-.75-.55-.15-.3-.05-.95l.45-1.35.55-1.3.55-1.25q.6-.7 1.45-.35.35.1.65.45l.25.75q0 .6-.6 1.4l-1.55 2.4q-.45.75-.95.75m-2.2-1.95-.15.85q-.15.5-.65.6l-.5-.05-.6-.45-.3-.95-.1-.4v-.4l-.15-.35-.1-.9-.2-.55v-.45L44.1 9q-.15-.75.3-1.35.5-.6 1.25-.6 1.2.1 1.5 1.05l.15 1 .1 2.95zm-5.6-2.6q.5.2.9.7l1.5 2.45.2.7q-.1.6-.55.65l-.9-.05-.85-.6-1.25-1-.75-.8q-.45-.9.15-1.65.65-.75 1.55-.4m-5.3-7 .15.45-.05.4-.35.3-.45-.1q-.65-.3-.65-1.1l.1-.55.1-.3.25-.5.25-.35.5-.4.9-.5L38.3.95l.65.05q.3.05.8.35l.4.35.25.6.25 1.05-.5 1.65-.2.4-.3.3-.85.5q0 .65-.65.85-.65.15-1-.4l-.35-1q0-.7.7-.95l.65-.2.25-.35.2-.55-.1-.4-.1-.25-.2-.05h-.75l-.3.15-.4.15-.25.25zm-6.5 0 .15.45-.05.4-.35.3-.45-.1q-.65-.3-.65-1.1l.1-.55.1-.3.25-.5.25-.35.5-.4.9-.5L31.8.95l.65.05q.3.05.8.35l.4.35.25.6.25 1.05-.5 1.65-.2.4-.3.3-.85.5q0 .65-.65.85-.65.15-1-.4l-.35-1q0-.7.7-.95l.65-.2.25-.35.2-.55-.1-.4-.1-.25-.2-.05h-.75l-.3.15-.4.15-.25.25zm.6 4.85.25-.65q.3-.3.65-.35l.1-.05.65.25.2.2q.45.6-.05 1.2-.45.6-1.1.35-.7-.25-.7-.95m6.5 0 .25-.65q.3-.3.65-.35l.1-.05.65.25.2.2q.45.6-.05 1.2-.45.6-1.1.35-.7-.25-.7-.95M23.4 3.75l.15.45-.05.4-.35.3-.45-.1q-.65-.3-.65-1.1l.1-.55.1-.3.25-.5.25-.35.5-.4.9-.5L25.3.95l.65.05.8.35.4.35.25.6.25 1.05-.5 1.65-.2.4-.3.3-.85.5q0 .65-.65.85-.65.15-1-.4l-.35-1q0-.7.7-.95l.65-.2.25-.35.2-.55-.1-.4-.1-.25-.2-.05h-.75l-.3.15-.4.15-.25.25zm-6.6 0 .15.45-.05.4-.35.3-.45-.1q-.65-.3-.65-1.1l.1-.55.1-.3.25-.5.25-.35.5-.4.9-.5L18.7.95l.65.05.8.35.4.35.25.6.25 1.05-.5 1.65-.2.4-.3.3q-.55.45-.85.5 0 .65-.65.85-.65.15-1-.4l-.35-1q0-.7.7-.95l.65-.2.25-.35.2-.55-.1-.4-.1-.25-.2-.05h-.75l-.3.15-.4.15-.25.25zM24 8.6l.25-.65q.3-.3.65-.35l.1-.05.65.25.2.2q.45.6-.05 1.2-.45.6-1.1.35-.7-.25-.7-.95M10.3 3.75l.15.45-.05.4-.35.3-.45-.1q-.65-.3-.65-1.1l.1-.55.1-.3.25-.5.25-.35.5-.4.9-.5L12.2.95l.65.05.8.35.4.35.25.6.25 1.05-.5 1.65-.2.4-.3.3-.85.5q0 .65-.65.85-.65.15-1-.4l-.35-1q0-.7.7-.95l.65-.2.25-.35.2-.55-.1-.4-.1-.25-.2-.05h-.75l-.3.15-.4.15-.25.25zm.6 4.85.25-.65q.3-.3.65-.35l.1-.05.65.25.2.2q.45.6-.05 1.2-.45.6-1.1.35-.7-.25-.7-.95m6.5 0 .25-.65q.3-.3.65-.35l.1-.05.65.25.2.2q.45.6-.05 1.2-.45.6-1.1.35-.7-.25-.7-.95M3.8 3.75l.15.45-.05.4-.35.3-.45-.1q-.65-.3-.65-1.1l.1-.55.1-.3.25-.5.25-.35.5-.4.9-.5L5.7.95l.65.05.8.35.4.35.25.6.25 1.05L7.55 5l-.2.4-.3.3q-.55.45-.85.5 0 .65-.65.85-.65.15-1-.4l-.35-1q0-.7.7-.95l.65-.2.25-.35.2-.55-.1-.4-.1-.25-.2-.05h-.75l-.3.15-.4.15-.25.25zm.6 4.85.25-.65q.3-.3.65-.35l.1-.05.65.25.2.2q.45.6-.05 1.2-.45.6-1.1.35-.7-.25-.7-.95"/><path d="M20.85 6.65q3.45-.35 6.9.85 1.35.45 2.6 1.1l4.55-1.5 1.75-.55 1.45-.1q.65.15 1.05.7t.3 1.15l-.3 1.1-.45 7.4 1 2.6.45-.5q2.8-2.7 6.15-3.05l3.4.15 3.55.7q1.85.55 3.35 1.6l.35-1.25.55-1.35h-.9q-2.95-.2-4.65-1.3t-2.6-3.15q-.8-1.95-.65-4.15.1-1.75.9-3.25 1.3-2.2 4.1-3.2Q55.75-.1 58.05 0q3.2.25 5.1 1.9 2.2 1.95 3.5 7.1l.85 3.7.15 1.65q1.9 4.5 2.5 9.85.45 4.55-.4 7.8-1.2 4.3-4.3 6.4-1.65 1.15-3.65 1.45-2.1.25-3.85-.55-1.1-.5-1.45-.45-.3.05-1.1.5-1.05.65-2.3 1.1H0V28.2l.05-.05Q1.35 27 3.9 25.6l.7-.35v-.75q.15-1.75.55-3.35l-.3-.55-2.3-5.2Q2 13.85 2 13.2q0-1.4.9-1.95l1.3-.4 4-.2q1.35.15 2.45.6 2.15-2.05 4.9-3.3 1.3-.55 2.45-.75zm5.8 23.55-1.05.45q-2.95 1.05-6.25.8l-2.05-.25q-1.95-.4-2.8-1.05l2.35-.35.05.6q.1.3.65.5l.85.05 1.45-.15q.75-.25 1-.95.15-.6-.25-1.6l-.1-.15 2.05-1.85.35-.3.4.1 1.35.6v.5l-.05.95q.15.75.95 1l1.45.05q1.25-.3 1.5-1.1V26.9l-.05-.15.6-.15 1.2-.25-.6 1.4-.85 1.2zm-9.55-5.95.5-.8q.55-1.1.25-2.35-.2-1.1-1.2-2-1.4-1.25-3.15-1-1.8.25-2.9 1.7l-.25.45-.3 1.1q-.15 1.25.15 2.15.45 1.3 1.85 2.05l2.8.3 1.1-.45zm16 .45q.1-1.05-.4-1.5-.4-.4-1.2-.3l-1.15.4q-3.45 1.55-5.7.3l-1.2-.65-1.3-.1-.9 1q-2.5 3.65-8.4 4.55l-1.55.2-.55.15q-.2.2-.25.45l-.2 1q.05.95 1.25 1.95l1.1.8-.2 2.65-.1.85-.2.5q-.35.7-.3 1.45.05.8.5 1.3l1.1.65 1.3-.15.9-.9.25-1.25-.35-1.05-.5-1.1v-.05l1.35-.05q1.05-.3 1.6-1.15h2.75q3.5-.15 6.35-1.55l2.25-1.35 1.45-1.1q.8-.8 1.4-2.15.85-2 .9-3.8m-.4-3.85.65.05.9-.4.45-.85q.05-.5-.25-.9-.25-.45-.7-.6l-1.5.05h-.55l-1 .15.55-.55q.3-.35 0-.75-.25-.45-.7-.35-.3.05-.7.45l-1.5 1.55-.45.75-.35.45q-.5.75.1 1.35t1.35.15l.4-.3.75-.25.6-.2 1.2.05zm13.55 5.45.55.2.35.6.65 1.4q-.15.5.05.7.2.35.6.25l.35-.45q.4-.9.05-2l-.95-1.75q-.45-.8-1.05-.95l-.65.15q-.4.2-.5.55l.05.75zm5.05-1-.9 1.15-.25.45-.15.7q-.25.95-.05 1.4l.25.3q.25.35.8.35.6 0 .85-.4l.2-.4v-.65q-.05-.7.35-1.5l1.45-1.55.3-.1.25-.35-.1-.15q-.05-.45-.55-.55l-.85.2-.4.2zm-.65-3.9-.55.45-.55.55q-.65.5-1.45.35-.45-.15-.55 0-.25.15 0 .6.35.6 1 .9l1.35.2.85-.3 1.05-.8q.45-.6.3-1.2l-.55-.65z"/><path fill="#fff" d="m50.65 21.4.9.1.55.65q.15.6-.3 1.2l-1.05.8-.85.3-1.35-.2q-.65-.3-1-.9-.25-.45 0-.6.1-.15.55 0 .8.15 1.45-.35l.55-.55zm.65 3.9 1.2-.9.4-.2.85-.2q.5.1.55.55l.1.15-.25.35-.3.1-1.45 1.55q-.4.8-.35 1.5v.65l-.2.4q-.25.4-.85.4-.55 0-.8-.35l-.25-.3q-.2-.45.05-1.4l.15-.7.25-.45zm-5.05 1-.5-.55-.05-.75q.1-.35.5-.55l.65-.15q.6.15 1.05.95l.95 1.75q.35 1.1-.05 2l-.35.45q-.4.1-.6-.25-.2-.2-.05-.7l-.65-1.4-.35-.6zM32.7 20.85l-.75-.15-1.2-.05-.6.2-.75.25-.4.3q-.75.45-1.35-.15t-.1-1.35l.35-.45.45-.75 1.5-1.55q.4-.4.7-.45.45-.1.7.35.3.4 0 .75l-.55.55 1-.15h.55l1.5-.05q.45.15.7.6.3.4.25.9l-.45.85-.9.4zm.4 3.85q-.05 1.8-.9 3.8-.6 1.35-1.4 2.15l-1.45 1.1-2.25 1.35q-2.85 1.4-6.35 1.55H18q-.55.85-1.6 1.15l-1.35.05v.05l.5 1.1.35 1.05-.25 1.25-.9.9-1.3.15-1.1-.65q-.45-.5-.5-1.3-.05-.75.3-1.45l.2-.5.1-.85.2-2.65-1.1-.8q-1.2-1-1.25-1.95l.2-1q.05-.25.25-.45l.55-.15 1.55-.2q5.9-.9 8.4-4.55l.9-1 1.3.1 1.2.65q2.25 1.25 5.7-.3l1.15-.4q.8-.1 1.2.3.5.45.4 1.5m-16-.45-1.15 1.15-1.1.45-2.8-.3q-1.4-.75-1.85-2.05-.3-.9-.15-2.15l.3-1.1.25-.45q1.1-1.45 2.9-1.7 1.75-.25 3.15 1 1 .9 1.2 2 .3 1.25-.25 2.35zm9.55 5.95 2.15-1.25.85-1.2.6-1.4-1.2.25-.6.15.05.15v1.15q-.25.8-1.5 1.1l-1.45-.05q-.8-.25-.95-1l.05-.95v-.5l-1.35-.6-.4-.1-.35.3-2.05 1.85.1.15q.4 1 .25 1.6-.25.7-1 .95l-1.45.15-.85-.05q-.55-.2-.65-.5l-.05-.6-2.35.35q.85.65 2.8 1.05l2.05.25q3.3.25 6.25-.8z"/></g></svg>