<svg xmlns="http://www.w3.org/2000/svg" xmlns:ffdec="https://www.free-decompiler.com/flash" ffdec:objectType="shape" width="40.35" height="28.35"><g fill-rule="evenodd"><path d="m6.7 21.45.05-1-.9-1.4q-.6-1.25-.6-2.7H5.2l-2.1.25q-1.2 0-1.95-.6l-.85-.95q-.5-.9-.1-2Q.45 12 1.45 11.5l1-.4q2.15-.5 3.6 0l.55.2q1.5-2.65 4.05-4.55 2.85-2.2 6.3-2.75 1.85-.25 3.5 0l.45-.25 1.1-.6.1-.45.35-1.25Q22.9.6 23.8.2l1.8-.05q.45.2.95.65l.45.3 1.1.9 1.15-.05q1.85.1 3.5.95 1.3.65 2.2 1.6h2.5l1.35.2q1.45.55 1.55 2.1 0 .8-.55 2.05l-.9 2.1L37.85 13q-.25 1.75-1.15 3.75-.75 1.7-1.9 2.9-1.65 1.6-4.55 2.2l-.45.1-2.05.15.15 1.3.25.4q.35.8-.05 1.5-.4.8-1.3.9l-.85-.05L24.4 26l-.85-.65-.45-.75-.1-.85.15-2.1.05-.15.05-.6-.05-.05-.7-.45-.55.4.15.7.2 1.45.05.1.4.5q.35.5.2 1.3L22.3 26q-.95.85-2.6.5-.6-.15-.95-.45l-.4-.3q-1.2-.85-1-2.35l.1-.65-.75.2-.15.9-.05.45.2.55q.35 1.15-.55 1.8-.5.4-1.2.4l-1.55-.25-.8-.55-.3-.3-.1-.6-.05-.4-.05-.55.2-1.05v-.25l-1.05-.1.05.5v.25l.3.4q.35.6.15 1.3-.2.65-.75 1l-1.65.3-1.75-.45-.5-.8-.05-.45-.2-.55-.1-1.05V22.4l-.05-.45z"/><path fill="#717171" d="M29.8 21.95q1.7.3 2.7 1.1 1.45 1.25 1.05 2.7-.3 1.2-1.65 1.75l-2.4.5-11.45.35L6.1 28q-2.1-.2-3.25-.9-.75-.45-1.15-1.2-.5-.85-.3-1.65.4-1.7 3.1-2.35l2.2-.45v.5l.05.45v1.05l.1 1.05.2.55.05.45.5.8 1.75.45 1.65-.3q.55-.35.75-1 .2-.7-.15-1.3l-.3-.4v-.25l-.05-.5 1.05.1v.25l-.2 1.05.05.55.05.4.1.6.3.3.8.55 1.55.25q.7 0 1.2-.4.9-.65.55-1.8l-.2-.55.05-.45.15-.9.75-.2-.1.65q-.2 1.5 1 2.35l.4.3q.35.3.95.45 1.65.35 2.6-.5l.65-1.15q.15-.8-.2-1.3l-.4-.5-.05-.1-.2-1.45h1.1l-.05.15-.15 2.1.1.85.45.75.85.65 1.55.15.85.05q.9-.1 1.3-.9.4-.7.05-1.5l-.25-.4-.15-1.3z"/><path fill="#fff" d="m22.85 9 .55-.4q.8-.5 1.6-.4.8.05 1.5.75 1.05 1 .65 2.45-.4 1.5-1.85 1.75-1.45.35-2.45-.75v-.1q-1.05-1.25-.4-2.6l.1-.25.3-.35zm2.45 5.6q.15-.6.7-.5.35 0 .95.35l.7.05 1-.2.95-.65.95.1.35.35.5.8.35.45q.4.2.9 0l1.1.25.2.55q-.05.65-.7 1L32 17.5l-1.55-.3-.95-.8-.1-.25-1.6.35q-1.25.1-2.1-.75-.6-.55-.4-1.15m8.65-1.65q0-.95.5-1.55.5-.65 1.3-.9.9-.25 1.75.25.9.45 1.15 1.35l.15.85-.3 1.05-.2.4-.65.55-2.4.05q-1.3-.7-1.3-2.05"/></g></svg>