<svg xmlns="http://www.w3.org/2000/svg" xmlns:ffdec="https://www.free-decompiler.com/flash" ffdec:objectType="shape" width="67.25" height="32.25"><g fill-rule="evenodd"><path fill="#999" d="M59.45 6.65q-.45-.5-.5-1.5l-.1-1.7-.1-.9v-.9q.1-.55.6-.95.5-.35 1.05-.35t1.05.4.6.95l.05 1.15-.25 2.1-.3 1.4q-.35.8-1.1.8-.6 0-1-.5m1.5 5.65q-.6-.05-1.05-.45-.45-.45-.55-1.05-.2-1.25.9-1.85t2.05.3q.4.35.5.95.15.55-.1 1.05-.5 1.15-1.75 1.05m5.25 7.45q.95.55 1.05 1.65.1 1.05-.85 1.75l-1.3.55-2.9.6-2.75.1H57.7l-1.6-.15-1.05-.4q-1.1-.5-1.4-1.2-.2-.4-.1-1 0-.55.3-1.1l1.3-.8.55-.15-.05-.9q.15-.65.75-1l.8-.3 2.2-.4.05-.1.35-.45v-.6l-.1-.65q.05-.45.55-.65.4-.25.9-.15.85.1 1.45.85.55.75.5 1.6l-.05.4q.8.15 1.3.55.65.5.8 1.3l.05.2zm-15.25 5.8q.25 1.9-2.3 3.55-2.7 1.65-7.95 2.3l-12.85.85q-6.95 0-10.7-1.9-2.5-1.15-2.75-3-.2-1.75 1.4-3 1.1-.95 3.15-1.3L25 22.5l6.1.05 8-.5 7.9.4q1.6.35 2.5.95 1.3.85 1.45 2.15M7 8.2q-.45.05-.8-.3l-.4-.85-.2-1.55-.05-1.55V2.4q.35-1.05 1.5-1.15L8 1.5l.65.7q.25.55.15 1.7l-.85 3.25Q7.55 8.1 7 8.2m-.1.9.8.6q.3.45.25.95l-.4.9q-.4.4-.9.45l-1-.2q-.45-.3-.6-.8L5 10.4q0-.45.3-.85.3-.3.75-.45.4-.15.85 0m4.5 11.2q.5.15.85.45.65.65.5 1.6-.05.85-.9 1.45l-1.25.55-2.8.6-1.9.05-.9.15-1.9-.1-1.6-.3Q.6 24.5.2 23.8q-.35-.65-.15-1.9l.2-.65q.2-.5.85-.85l.45-.2q0-.55.3-.85t.9-.55l.8-.2.05-.55q.1-.65.5-1.2.2-.55.7-1 .45-.35 1.05-.6l1.45.1q.85.4.6 1.2l-.05.25.7.9 1.3-.05q1 .1 1.5.75.6.85 0 1.8v.1z"/><path d="m48.85 2.55-.15.7-.35.75-.9.6-2.95-.2-.3-.1-.4.15q-.9.6-1.35 1.2L42 6.2l-1.1 1q-.65.55-1.1.4l-.4-.5-.05-.7.2-.7.3-.65L41.3 2.6l.9-.95.55-.55.75-.5 1.05-.45 2.2-.05q.9.25 1.5.85.7.75.6 1.6m1.1 10.05-2.15 1.55-1.05.25-.35-.4v-.55l.5-1.25.4-.6q1.35-1.95 2.35-2.5 1.2-.7 2.6-.45L53.3 9q1 .75.85 1.85Q54.05 12 53 12.5l-.85.2-1.5-.1-.35-.15zM34.1 7.5q.3.45 1.3.75l2.6.5q1.55.3 2.5.7 1.35.55 2.55 1.7 1.95 1.9 1.75 4.05l-.35 1.15q3.45 1.15 5.3 3.2.9 1 1.15 1.95.55 2.25-1.85 4.55-3.35 3.1-10.4 3.75-4 .35-7.95.05h-.2l-5.3-.25q-2.45-.4-4.15-1.5-2.05-1.25-2.65-3.4-.45-1.6.25-3.3.6-1.6 1.95-2.8 1.3-1.1 3.45-2-.8-1.5-.3-3.05.6-2 2.95-2.9l.55-.2-.05-1.3q.15-2.2 1.6-4.15l1.5-1.5q1.15-.95 1.6-1.15.65-.35 1.2-.4l1.4-.35q.65.1 1.1.65.4.55.2 1.1l-.4.65-.1.15-.6.6-.5.4-.3.9q-.2.95.2 1.45m2.1 12.95q-1-.6-1-1.75.1-1.2 1.2-1.65l1.55.05.75.5q.5.55.5 1.3t-.5 1.25q-.45.5-1.15.6-.75.05-1.35-.3m-1.35-8.65q-2.75-.45-5.9 1.5l-1.4 1.15q-1.4 1.5-1.2 5l.25 1.3q.2.7.9 1.3l.25.25-.15.3q-.25.65-.05 1.35.15.7.7 1.1.3.25.75.3.7.25 1.35 0 .95-.3 1.05-1.45v-.2l.35.1-.1.35v.75l.75 1q.75.6 1.6.5.95-.1 1.35-.95l.15-.8v-.9l.3-.1.25 1 .95.85 1.25.1 1.05-.75q.45-.6.35-1.25l-.3-.85-.45-.6.55-.5q1.55-1.35 1.75-3l-.05-1.5q-.45-2.75-2.5-4l-1.7-.75zm-12.1-8.05Q24.7 5.6 25.3 7.2l.25.7.3 1.15-.4.55-.7.05-.7-.4-2.45-2-1.9-.05-1.1-.15q-1.05-.3-1.55-1.35T17 3.6l.3-.55q.15-.25.65-.55l.85-.2q1.8-.15 3.05.65zm-5.9 12.9q-.05 1.05-1.15 1.6l-.7.2-.5.05-.65-.2-.55-.55q-.3-.55-.1-1.65l.3-.85q.4-.7 1.7-1.2l1.15-.4h.8l2.1.25q.85.3 1.5.95l.4.5.05.7-.1.6-.6.35-.65-.05-1.5-.35zm11.8 3.8q-.6-.45-.7-1.25t.3-1.45 1.2-.85q.75-.25 1.45 0 .9.3 1.35 1.25.4 1-.15 1.8-.7 1.1-2.25.9-.65 0-1.2-.4"/><path fill="#fff" d="M36.2 20.45q.6.35 1.35.3.7-.1 1.15-.6.5-.5.5-1.25t-.5-1.3l-.75-.5-1.55-.05q-1.1.45-1.2 1.65 0 1.15 1 1.75m-1.35-8.65 2.1.6 1.7.75q2.05 1.25 2.5 4l.05 1.5q-.2 1.65-1.75 3l-.55.5.45.6.3.85q.1.65-.35 1.25l-1.05.75-1.25-.1-.95-.85-.25-1-.3.1v.9l-.15.8q-.4.85-1.35.95-.85.1-1.6-.5l-.75-1v-.75l.1-.35-.35-.1v.2q-.1 1.15-1.05 1.45-.65.25-1.35 0-.45-.05-.75-.3-.55-.4-.7-1.1-.2-.7.05-1.35l.15-.3-.25-.25q-.7-.6-.9-1.3l-.25-1.3q-.2-3.5 1.2-5l1.4-1.15q3.15-1.95 5.9-1.5m-6.2 8.65q.55.4 1.2.4 1.55.2 2.25-.9.55-.8.15-1.8-.45-.95-1.35-1.25-.7-.25-1.45 0-.8.2-1.2.85t-.3 1.45.7 1.25"/></g></svg>