<svg xmlns="http://www.w3.org/2000/svg" xmlns:ffdec="https://www.free-decompiler.com/flash" ffdec:objectType="shape" width="78.6" height="44.2"><g fill-rule="evenodd"><path fill="#999" d="M34.1 1.25q.5.55.5 1.7V6.2l-.3.4q-.4.1-.55-.25l-.25-.6-.9-1.5q-.6-.8-.8-1.55-.2-1 .4-1.6.4-.35 1-.3.55.05.9.45M24.05 8.2 20.3 2.75q-.5-.65-.25-1.45.05-.4.45-.8l1.75.1 1.1 1.5.75 1.4 2 4 .25.6.45 1.35-.4.45h-.6l-.6-.55-.55-.45zm2.85-2.05-.55-.75-.85-1.55-.45-1q-.55-1.2-.4-1.75.1-.65.75-1l1.25.1q.5.35.8 1.2.9 2.4 1.1 4.65.1 1-.4 1.2-.4.15-.8-.35zM69.1 3l-1.75 1.85-1.35 1-.4.15-.25-.4.15-.45 2-3.55Q68.15.55 68.85.55l.75.45.25.85zm-1.55 7.6-.95.75-1 .55q-.65.2-.9-.2t.25-1l1.25-1.2 6.5-6.15 2-1.7 1-.55q.9-.15 1.45.4.65.5.55 1.35-.15.85-1 1.55l-1.65.95L73.4 6.6l-4.65 3.25zm7.6.15-4.4 1.85-.75.25-.6.4q-.55.1-.8-.3t-.05-.85l.5-.55 1.4-1.35q.55-.45 2.85-1.55l2.8-1.55 1.4-.05q.9.25 1.1 1.25.15 1.05-.7 1.55l-.85.35-1.1.3zm-12.55 1.4-.9.8-.5-.1q-.2-.2-.1-.8l.45-2.4.15-.5.05-.65V6.65q-.15-.25-.8-.35l-1.6.15q-.95.25-1.75.6l-.85.45-.7.1-.85.1.4-1.15q.15-.35.75-.75 1.25-.75 2.1-1l2.1-.3.95.05 1 .3q1.05.6 1.15 1.9l-.55 3.8-.25 1.05zm-6.2 15.8-2.35 1.3q-1.3.7-2.1.65-1.05-.1-1.05-.8 0-.3.45-.75.65-.55 2.2-1.45l2.15-1.45 1.55-1.65q2.85-3.5 3.95-5.9l1.8-4.35.25.9.4 2.3q0 1.2-.85 3.2l-1.1 2.25-2.6 3.35zm9.35-10.65q.1 2.1-.65 4l-.7 1.6-1.6 2.95-.65.95-1.25 1.55-1.05.8q-1.9 1.2-3.85 1.7 1.1-1.5 2.65-2.85l1.15-1 .85-1.2 2.2-3.75.75-1.55.75-1.85.65-1.6q.1-.35.35-.4.4 0 .4.65M48.85 3.55l2.25.1q1.35.25 2.75 1.1Q54.9 5.4 55.1 6q.25.75-.25 1.35-.6.6-1.35.45-.45-.1-1.5-1.05-.9-.75-2.1-1.15l-1.55-.55-.45-.6q-.1-.4.15-.65t.8-.25M53.2 38v-.55l.25-.55.05-.75.2-1 .25-2.15-.2-1-.2-.75q.05-.3.35-.45l.6-.05.45.5q.75 1.2.9 2.6l.1 1.55-.55 3.2-.15.6-.25.45-.3.7-.95 1.1-1.45.35.15-1.45.4-1.35zm11.3 2.75.8.95.1.9-.5.8-1.75.15-.75-.7-.95-1.75-.65-1.4-2-3.35-.7-1-.45-1.2q-.2-.5-.1-.8.15-.6.8-.5l.85.85 1.5 2.05.7 1.1.75.75 1.15 1.6zm-7.25-2 .8.8 1 1.85q.45.7.45 1.3.1.7-.45 1.15-.6.5-1.25.25-.7-.25-1.15-1.75l-.45-1.75q-.3-1.15.1-1.6.4-.5.95-.25M47 40.8l.8-.5 1.05-1.3.65-1.95.3-1.65-.25-2.75-.25-1.4-.05-.9q0-.55.45-.8.7.2 1.3.9l.7 1.45q.85 2.6.35 5.15l-.4 1.5-.85 2.15q-1.25 2.15-3.85 2.15l-.95-.3q-.45-.35-.35-.9t.6-.7zM36.25 6.1l.35-.7.75-1.05 1.2-1.15.65-.55.9-.45.75-.1.4.55-.5.6L39 4.8l-.4.55-.45 1-.2.65.05.9-.15.85-.8.75L36 10l-1.05.75-1.2.65-.65.2-.6-.25q-.4-.3-.1-.9l.7-.75q1.8-1.5 2.9-1.9zm-7.15 5.5-.4 1.25-.2 1-.15 1.3.15 1.7q.1 1.1-.55 1.6l-.9.25q-.55-.1-.85-.5l-.3-.9q-.25-1.85-.05-3.4l.4-1.65q.6-1.55 1.8-2.85l1.4-1.1 2.15-.9.7-.15q.5.1.4.5l-.6.45-.85.55-.7 1q-1.1 1.15-1.45 1.85m3.15 9.35-.7 1.6q-.45.45-1.4.55l-1.5-.15q-2.2-.3-2.9-1.25 1.95-1.4 4.1-.6l.35.05.2-.4q.1-.8.3-1.15.4-.65.95-.5.5.05.7.75zm-14 2.2-2 .5-1.15.4-1.8 1.05q-1.7 1-2.15 2-.25.6-.25 2.3l-.2 1-.65.25q-.8 0-1.25-.8-.35-.65-.35-1.55l.15-1.4q.4-1.25 1.75-2.55l2.9-2 .95-.5 1.4-.4 1.75-.25h1.1l1.05-.15 1.6.25.65.2 1.1.1q.75.1.9.65.1.55-.5.85l-1 .15-2-.1h-2M3.55 8.8 2.6 7.55 1.85 7l-.5-.6-.1-.3-.1-.45q-.1-.85.5-1.35.55-.65 1.4-.3l.75.7 1.1 1.5 1.8 3.2.35.55.25.55q.05.5-.4.85l-.95.05-.5-.4-.7-.7-.4-.45-.15-.25zm3.8 19.35.1 1.15.4 1 .25 1-.25.75-1 .1q-.95-.35-1.5-1.7L5 29.25l-.05-.55.05-.6.2-1.9.55-1.1 1.15-1.5q.8-.8 2.6-1.85l.45-.2q.35-.05.6.25.2.3.05.65l-.5.45-1.15 1.25Q7.7 25.7 7.5 26.7q-.15.45-.15 1.45m4.95 5.3q.2-.8.6-1.05.35-.2.75 0l.4.55.1.65.75.55.5.4.55.35L17 35q.7 0 1.45.5l.3.45-.35.45q-1.15.7-2.05.9-1.3.25-2.15-.45l-.7-.75-.7-.7-.5-.8q-.2-.4 0-1.15m4.8 5.4.6.65.1.1.3.45 1 .65q.95.5.95 1.2-.1.8-1 .9l-1.35-.35-.7-.6-.55-1.2v-.05l-1.05-.15-1.9-.2q-1.75-.3-3.55-2.4l-.35-.6q-.1-.45.25-.6l.65.15 1.5.85q1.3.8 2.1.9l1.55.05zm2.5-1.65q.1-.65.65-.75.55-.05 1 .45l.7.85 1.85 1.05q1.25.6 1.55 1.35-.3.9-1.4 1-.75.05-1.75-.4t-1.45-1.1L20 38.2zM9.1 32.5l1.15-.25q.4.1.6.55.2.4 0 .75l-.6.6-3.65 2.9L3.25 40l-1.05.6q-1.15.25-1.8-.65-.7-.95-.15-1.9l1.35-1.2zm-5.95 9.9q0-.55.45-1.2l1-.8 2.8-1.85q.7-.45 1.1-.25.5.25.3.9l-.55.85-2.4 2.55q-.7.8-1.25.9l-.95-.25q-.45-.35-.5-.85"/><path d="M55.45 22.35q-1.7 3.1-4.15 4.55-2.15 1.3-4.7 1.45l-.65 1.35-.3.75.4.7q1.2 1.5.8 3.4l-.4 1.3-.75 1.7q-1.05 1.4-4.1 2.1.1.8-.45 1.45-.5.65-1.3.8-1.05.15-2.7-.9l-.7-.45-.25.1q-1.1.7-1.8.65-.8 0-1.65-.7l-.8-.75q-1.4.3-2.75-.95-1-1.05-1.05-2l-.1-.1-1.35-.35-1.45-.6q-1.05-.65-1.35-1.2l-.3-1.1q-.1-.65.1-1.05.3-.8 1.2-1.15l-.2-2 .05-1.4-3.7-.55-2.55.25.85.35 1.5.75 1.25 1.3q.4.8.25 1.6-.35 1.4-1.8 1.75l-2.6-.25q-1.5-.55-2.2-1.6-1-.75-1.9-2.1l-.5-1.25q-.05-.55.45-1.5l1.1-1.6q.45-.35 1.3-.7 2.1-.85 5-.7 1.75.1 5.1.9l.6.2.85-.5q1.35-.6 2.7-.55l1.35-.3.5-.6.85-.75 1-.75-.65-1.6q-.7-1.95-.45-3.95.25-2.05 1.45-3.65.65-.9 1.95-2.05 1.25-1 2-1.35l.75-.3-.05-1.15.55-1.2 1.05-1.55L42.6 3.3l.9-.75.95-.7q.65-.25 1.45 0 .65.25.95 1.05l.2 1.25L47 6.3l.15 1.2q3.25 1 5.95 3.25l.45-.1L57 9.55q1.2-.65 1.85-.55.5.05.85.5l.4.9-.35 1.25-.45 1.75-.55 1.7q-.4.7-.5 1.15l-.35.8-.4.65-.25.65-.45.9-.15.25zm5.95 3.4-.65-.05-.4-.55q-.1-.45.45-1.35 1.45-2.05 2.05-3.85l.3-.6q.25-.35.6-.2.35.2.25.75-.15 3.3-1.95 5.35zM52.85 8.3q-.9-1.05-2.35-1.7-.85-.3-1-.75-.15-.3.05-.65.15-.3.5-.35l.8.15 1 .3 2.05 1 .6.5.8-.6 1.5-.55 1.4-.3 2.1-.2h.7q.6.1 1.05.55.5.45.55 1.05l-.05.7-.45.5-.9-.05-.85-.3-1 .05h-1l-1.65.45-.4.05-.3.2-1.1.4-.15.1L53.7 9zm-7 13.2-.15-.15-.05-.7q-.3-1.35-.7-1.95l-.55-.45q-.3-.05-.65.2l-.35.55q-.45.95-.45 1.8l-.4.2-1.6 1.05-.9.7q-.35.6-.15 1.1.4.65 1.15.45l1.25-.4q.55-.25 1.7-.6l.65-.35h.25l.5.2.95.65.85.5q.6.2.85-.25.2-.35-.1-.9l-.75-.55zm9.45-2.8q.35-.75-.2-1.45l-.9-.55-1.05.15q-.45.25-.65.8t0 1.05q.4 1 1.4 1 1.05 0 1.4-1m6.45-3.45q.3.3.3 1.15l-.3 2.7q-.25 1.15-1.2 2.9l-1.15 2-2.1 2.05-.85.7-.95.55q-.6.1-.95-.45-.4-.45-.1-1.1l.8-.9 2.55-2.3.55-1.05 1.7-4.2.3-1.25.15-.6q.2-.35.6-.4t.65.2m-7.85 22.5-.5.55q-.4.2-.7 0-.25-.2-.25-.65l.2-.65.25-1.1q.15-1.05-.1-1.85l-.3-1q-.2-.55.1-1 .2-.35.7-.35.45 0 .75.25l.45 1.1q.25 1 .15 1.95-.1 1.7-.75 2.75m-4.75-1.95q.3-1.6.05-2.55l-.35-1.15-.15-.9q.1-.55.55-.8l1 .1.65 1.1.4 1.25q.3 1.2.05 2.9l-.3 1.05-.3.9-.7 1.2-.75.7-.55.15-.35.3q-.4.2-.65-.15-.35-.25-.15-.65l.4-.6.4-.8.35-.45zM34.4 9.85l-.45.7-.9.75q-.85.8-1.4 2.25l-.25.85q-.15.6-.05 1.3l.05.9.15.55.5 1.25.35.7q.15.65-.35 1.1-.5.5-1.15.2-.6-.3-.8-1.1l-.65-1.95-.1-.8v-2l.1-.7 1.25-2.55.5-.7 1.05-1q.65-.55 1.25-.7h.6l.45.45zm1.05 4.85q-.15.65.25 1.2l.9.7 1.15-.05.85-.8q.3-.55.2-1.1-.15-.6-.65-1l-1.05-.4q-.6.05-1.1.45-.45.4-.55 1m-7-4.65q.25-.2.55 0l.3.5-.4.7-.5 1.1-.45 1.1-.35.6.1 1.1q.2.75-.1 1.1l-.6.25q-.4 0-.65-.25-.4-.35-.5-1.1l.2-1.25.8-2.1.6-.95.55-.35zM9.95 27.3l.1-.8.55-.9 1.25-1.55 1.8-1.4q1.25-.85 2.95-1.4l.6-.15q.35.05.55.35l.1.6-.45.5-1.05.55-1.45.85-1.1.8-1.2 1.6-.25.45v.8q.1.95-.3 1.4-.45.55-1.05.45t-.95-.65q-.2-.45-.1-1.5m-1.3.6.05 1.05q0 .65-.4.95l-.95.15-.8-.6q-.35-.8-.1-2.05.55-2.65 2.15-3.9.65-.45 1.15-.4l.55.3q.25.25.15.6l-.7.7-.45.8q-.65 1.65-.65 2.4m8.85 9.35-1.15-.35-.85-1-.25-.6q-.05-.35.2-.6.3-.2.95.15l2.85.35h1.25q.55.15.75.5l.35.45.3.9.6.55.35.65.4.15.3.3.5.15.15.4-.25.4-.95.05-1.3-.45-.8-.7-.7-.65-.3-.55z"/><path fill="#fff" d="M55.3 18.7q-.35 1-1.4 1-1 0-1.4-1-.2-.5 0-1.05t.65-.8l1.05-.15.9.55q.55.7.2 1.45m-9.45 2.8 1.35 1.1.75.55q.3.55.1.9-.25.45-.85.25l-.85-.5-.95-.65-.5-.2h-.25l-.65.35q-1.15.35-1.7.6l-1.25.4q-.75.2-1.15-.45-.2-.5.15-1.1l.9-.7 1.6-1.05.4-.2q0-.85.45-1.8l.35-.55q.35-.25.65-.2l.55.45q.4.6.7 1.95l.05.7zm-10.4-6.8q.1-.6.55-1 .5-.4 1.1-.45l1.05.4q.5.4.65 1 .1.55-.2 1.1l-.85.8-1.15.05-.9-.7q-.4-.55-.25-1.2"/><path fill="#999" d="M20.55 2.9q-.4 1.6-1.55 2.85l.35 1 .2.5.55.1q1.2.15 1.95 1.25l.4.75.4 1.2q.2 1.1-.9 2.85.45.3.5.9.05.55-.25 1-.45.55-1.65.85l-.55.1-.05.15q-.2.85-.55 1.15-.4.4-1.15.45l-.65.05q-.5.75-1.75.8-.95 0-1.4-.45l-.85.45-.95.4-1.2.1-.65-.45-.45-.45q-.25-.55 0-1.15l-1.05-.85-.55-.7q-1.35.85-2 1.5l-1.1 1.3.55-.2L7.3 18l1.1.05.95.6q.5.85-.05 1.7-.45.75-1.3 1.05-.95.45-1.75.3l-1.9-.1-.8-.3q-.3-.3-.45-.95l-.25-1.3.25-.9q.55-1.4 2-2.7.8-.75 2.75-1.9l.45-.25.1-.6q.3-.95.95-1.55l.55-.75-.05-.55v-.7L10 8.3l-1.05-.4q-1.2-.65-2.05-1.65-.8-1.15-1.05-2.4-.15-.75-.05-1.9l.15-.75H20.7zM63.6 29.95q.45-2.3 1.65-3.75 1.05-1.25 2.65-1.85l.1-1 .05-.5-.35-.35q-1.05-.7-1.2-2l-.05-.9.15-1.2q.35-1.15 2.1-2.15-.2-.5 0-1 .2-.55.7-.8.55-.3 1.8 0l.55.2.15-.2q.55-.65 1-.8l1.15.15.7.25 1.9.1.4.25v20.5l-.1.1-.4.35.2.7-.05.9-.35 1.15-.9 1.2-.4.65-.45.65-.9.3q-.45-.05-.85-.45l-.35-.75-.4-1.4-.35-.75q-2.2.05-4.35-.75l-.25.15-1.95 1.4-1.05.75-.65-.15-.4-.5q-.1-.3-.05-.85l-.1-1.2v-1.25l.15-.8v-.55l.15-.5.05-.45.05-.65v-.15z"/></g></svg>