<svg xmlns="http://www.w3.org/2000/svg" xmlns:ffdec="https://www.free-decompiler.com/flash" ffdec:objectType="shape" width="71.35" height="37.85"><g fill-rule="evenodd"><path fill="#717171" d="M61.15 23.55q-1.65-.35-3-1.25-1.5-1-1.85-2.5-.25-.9-.05-3 .3-1.85.65-2.55.6-1.2 1.9-1.95-.6-.8-.85-1.8-.35-1.2-.05-2.75.1-.95.7-2.75l.55-1.3q.3-.55 1-1.15 1.25-1.2 2.9-1.65 1.7-.55 3.35-.05.85.25 1.55.8 1.6.95 2.1 2.25.35.75.2 1.55-.15.85-.65 1.4-.65.55-1.2.3l-.6-.65-1.15-1.6q-.8-.9-1.75-.85l-1.3.3q-1.05.5-1.3.9l-.6 1.3-.25.95q-.35 1.4-.2 2 .2.8 1.1 1.45l.9.8q.5.4.5.9l-.05.45q0 .9-.75 1.4l-1.5.55q-.95.25-1.25.8l-.3 1.85.25 1 1.15.8 1.3.55 1.5-.2q2.65-.7 3.45-1.7l.7-.85q.4-.55.9-.25.45.15.35.8l-.3.9-1.3 1.95q-1.35 1.55-3.3 2.45l-1.75.55zM54.7.95q.05.6-.65.85L52.9 2q-1.5.2-3.75 1.8 2.05 1.8 2.7 4.35.75 2.85-.6 5.15l-1.8 1.85q-1 .75-1.9 1-1.5.5-3.15-.35-1.2-.6-2.3-2.05-1.05-1.4-1.25-3-.1-1.8 1.1-4.05 1.25-1.95 2.95-3.45Q48.35.45 53 .1q.65-.15 1.1 0 .6.25.6.85m-30.1 22.2q-.95-.45-1.55-.95l-1-1.6q-1.05-2-1.2-4.2l.35-2.45q.1-.6.35-1 .3-.45.75-.35.6.1.7.8l-.05 1.25q-.05 1.35 1.7 3.6l1.1 1.25 1.45.35 1.45.15.75-.65 1.1-1.7q.1-.7-.55-1.55l-.8-1.4q-.35-.95.25-1.6.05-.25.25-.45.4-.35 1.1-.4l1.2.05q1.25 0 1.9-.5.55-.4 1.15-1.8l.5-.9.4-1.45q.05-.55-.45-1.5l-.85-1.2q-.85-.7-2.1-.45l-2 .6-.95.1q-.55-.15-.65-1.1-.15-.8.25-1.55l1.3-1.15Q31.7.75 33.7 1q.9.05 1.8.5 1.6.55 2.7 2.2 1 1.45 1.25 3.3l.1 1.55-.5 1.35-1.25 2.7q-.85 1.5-1.8 2.25-.9.65-2 .9.55 1.45.25 2.8L33.05 21Q31.9 22.9 31 23.45q-1.35.85-3.2.7-1.65-.15-3.2-1m19.1-12.9q-.05.45.05.75l.45 1.05.35.45.25.15.45.35q.4.3.9.2l.8-.3.45-.4.95-1.1.5-1.8-.4-1.3-.55-1-.55-.6-1.2-.15-.2-.1-.25.1-1.25 1.5-.7 1.9zm6 13.95-1.35-.2q-.65-.5-.75-1.15v-.65l-.15-.6q-.2-.4-.95-.65l-3.4-.2q-.8.4-1.35 1.1-.5.8-.35 1.65.15.95 1.05 1.8l1.9.9 1.9.55.85-.1.9.2q.5.2.85.7.25.5.15 1.05l-.35.75-.45.75-.75 1.9q-.45 1.2-1.35 1.4h-1l-1.4-.3q-4.5-.7-6.65-1.6l-.7-.35q-.3-.3-.25-.75.1-.35.55-.5l.85-.05 7.3.85.3-.8q-2.4-.5-4.5-1.7-.75-.45-1.2-.9l-.95-1.45q-.8-1.7-.85-2.65.05-.75.45-1.8.5-1.3 1-1.95 1.35-1.85 3.75-2.35l4.4.25q1.25.35 1.9.8 1.05.75 1.65 2.1.55 1.25.4 2.3-.3 1.4-1.45 1.65M1 22.1q-1.1-.75-.85-2.4.25-1.15 1.35-2.25 1.2-1.2 2.65-1.55l2.35-.15q2.75.25 4.8 1.55 2.4 1.55 3 4.05l.3 2.55-.3 2.05q-.35 1-1.95 2.5-1.1 1-1.65 1.2l-1.65.4q-2.7.4-5.45 0v1l8.1 2.1.9.35q.45.35.4.8l-.55.65-.9.15q-2.7.05-7.8-1.05l-1.6-.3-1.05-.35q-.9-.6-.9-2.05v-2.3l-.15-1-.05-1q.1-.6.6-1.05.5-.4 1.15-.4l1 .2.95.35 2.2.25 2.4-.25q1.35-.45 1.9-1.4.45-.85.25-1.9-.25-1-1-1.7-1.4-1.25-3.7-1.25-.9 0-1.25.35l-.4.55-.3.7q-.35.7-1.25.9zM17.4 6.2l-.3-.35-1.55-.95-.4-.2L13 4.15l-.25.05-.1.2-.65.5-.4.5-.1.9.15 1.35.6 1.4 1.65 1.3 1.65.35.65.05.95-.25.65-.75.2-.7.15-.35.05-.55-.35-1.3zM.9 5.15q-.4-.55.05-1.2.25-.45.95-.8Q6.4.35 11.45.6q2.6.15 5.05 1.15 2.7 1.2 3.75 2.95.95 1.55.95 3.55 0 2.05-.75 3.5-.9 1.8-2.6 2.45l-2.4.4-2.85-.55q-2.85-1.15-4.15-4.2Q7.3 7 8 3.95q-3.2.1-4.75.95l-1.15.55q-.8.25-1.2-.3m69.8 19.8q.65.2.65 1.05l-.25 1.15q-2.05 4.95-6.3 7.7-2.15 1.35-4.75 2l-4.75-.2q-1.7-.7-2.85-2.3-1.2-1.65-1.45-3.25-.35-2 .65-3.5.6-.95 1.7-1.75Q54.75 25 56 24.6q2.95-.7 5.85 1 2.55 1.6 3.8 4.5 2.55-1.95 3.3-3.55l.6-1.15q.5-.65 1.15-.45M56.75 33.8l.45.1 1.8-.15.4-.1q1.15-.2 2.1-.8l.15-.2v-.2l.2-.8.05-.6-.45-.85-.9-.95-1.35-.8-2.1-.05-1.5.65-.6.35-.6.75q-.25.55-.1 1l.25.7.1.4.3.45 1 .85zM14.8 27q.65-.3 1.2.35l.75 1q.85 1.55 3.6 3.25.95-3 3.35-4.95 2.65-1.95 5.65-1.5 1.3.2 2.8.9 1.2.7 1.85 1.55 1.15 1.4 1 3.4-.05 1.7-1.1 3.45-1 1.75-2.55 2.6-1.8 1-4.75.7-2.6-.4-4.9-1.55-4.55-2.3-7.05-7l-.4-1.15q-.05-.8.55-1.05m14.85 7.35.65-.4.95-.9.3-.55v-.35l.2-.7q.1-.55-.2-1l-.7-.65-.55-.3-1.65-.5-2.1.25-1.2.9-.8 1.15-.35.8.1.65.3.75v.2l.15.2q1 .5 2.2.6h2.2z"/><path d="m56.75 4.1-.8.25-1 .85-.3.45-.1.4-.25.7q-.15.45.1 1l.6.75.6.35 1.5.65 2.1-.05 1.35-.8.9-.95.45-.85-.05-.6-.2-.8v-.2l-.15-.2q-.95-.6-2.1-.8l-.4-.1L57.2 4zm13.95 8.85q-.65.2-1.15-.45l-.6-1.15q-.75-1.6-3.3-3.55-1.25 2.9-3.8 4.5-2.9 1.7-5.85 1-1.25-.4-2.65-1.25-1.1-.8-1.7-1.75-1-1.5-.65-3.5.25-1.6 1.45-3.25 1.15-1.6 2.85-2.3l4.75-.2q2.6.65 4.75 2 4.25 2.75 6.3 7.7l.25 1.15q0 .85-.65 1.05m-27 14.7.05.3.7 1.9 1.25 1.5.25.1.2-.1 1.2-.15.55-.6.55-1 .4-1.3-.5-1.8-.95-1.1-.45-.4-.8-.3-.9.2-.45.35-.25.15-.35.45-.45 1.05q-.1.3-.05.75m11 9.3q0 .6-.6.85H53q-4.65-.35-8.1-3.15-1.7-1.5-2.95-3.45-1.2-2.25-1.1-4.05.2-1.6 1.25-3 1.1-1.45 2.3-2.05 1.65-.85 3.15-.35.9.25 1.9 1l1.8 1.85q1.35 2.3.6 5.15-.65 2.55-2.7 4.35 2.25 1.6 3.75 1.8l1.15.2q.7.25.65.85m-5-23.25q1.15.25 1.45 1.65.15 1.05-.4 2.3-.6 1.35-1.65 2.1l-1.9.8-4.4.25q-2.4-.5-3.75-2.35l-1-1.95q-.4-1.05-.45-1.8.05-.95.85-2.65.6-1.15.95-1.45.45-.45 1.2-.9 2.1-1.2 4.5-1.7l-.3-.8-7.3.85-.85-.05q-.45-.15-.55-.5-.05-.45.25-.75l.7-.35q2.15-.9 6.65-1.6l1.4-.3h1q.9.2 1.35 1.4l.75 1.9.45.75.35.75-.15 1.05-.85.7-.9.2-.85-.1-1.9.55q-1.3.5-1.9.9-.9.85-1.05 1.8-.15.85.35 1.65l1.35 1.1 3.4-.2q.75-.25.95-.65l.15-.6v-.65q.1-.65.75-1.15zm11.45.65 1.7-.15 1.75.55q1.95.9 3.3 2.45l1.3 1.95.3.9q.1.65-.35.8-.5.3-.9-.25l-.7-.85q-.8-1-3.45-1.7l-1.5-.2q-.3.1-1.3.55l-1.15.8-.25 1 .3 1.85q.3.55 1.25.8l1.5.55q.75.5.75 1.4l.05.45q0 .5-.5.9l-.9.8q-.9.65-1.1 1.45-.15.6.2 2l.25.95.6 1.3q.25.4 1.3.9l1.3.3q.95.05 1.75-.85l1.15-1.6.6-.65q.55-.25 1.2.3.5.55.65 1.4.15.8-.2 1.55-.5 1.3-2.1 2.25-.7.55-1.55.8-1.65.5-3.35-.05-1.65-.45-2.9-1.65l-1-1.15-.55-1.3q-.6-1.8-.7-2.75-.3-1.55.05-2.75.25-1 .85-1.8-1.3-.75-1.9-1.95-.35-.7-.65-2.55-.2-2.1.05-3 .35-1.5 1.85-2.5 1.35-.9 3-1.25m-36.55.4q1.55-.85 3.2-1 1.85-.15 3.2.7.9.55 2.05 2.45l1.2 2.45q.3 1.35-.25 2.8 1.1.25 2 .9.95.75 1.8 2.25l1.25 2.7.5 1.35-.1 1.55q-.25 1.85-1.25 3.3-1.1 1.65-2.7 2.2-.9.45-1.8.5l-3.25-.4-1.3-1.15q-.4-.75-.25-1.55.1-.95.65-1.1l.95.1 2 .6q1.25.25 2.1-.45l.85-1.2q.5-.95.45-1.5 0-.5-.4-1.45l-.5-.9q-.6-1.4-1.15-1.8-.65-.5-1.9-.5l-1.2.05q-.7-.05-1.1-.4l-.25-.45q-.6-.65-.25-1.6l.8-1.4q.65-.85.55-1.55l-1.1-1.7-.75-.65-1.45.15-1.45.35-1.1 1.25q-1.75 2.25-1.7 3.6L23 24.5q-.1.7-.7.8-.45.1-.75-.35-.25-.4-.35-1l-.35-2.45q.15-2.2 1.2-4.2.4-.95 1-1.6.6-.5 1.55-.95m-9.8-3.85q-.6-.25-.55-1.05 0-.5.4-1.15 2.5-4.7 7.05-7Q24 .55 26.6.15q2.95-.3 4.75.7 1.55.85 2.55 2.6Q34.95 5.2 35 6.9q.15 2-1 3.4l-1.85 1.55-2.8.9q-3 .45-5.65-1.5-2.4-1.95-3.35-4.95-2.75 1.7-3.6 3.25l-.75 1q-.55.65-1.2.35m14.85-7.35-.5-.15h-2.2q-1.2.1-2.2.6l-.15.2v.2l-.3.75-.1.65.35.8.8 1.15 1.2.9 2.1.25 1.65-.5.55-.3.7-.65q.3-.45.2-1l-.2-.7V5.4l-.3-.55-.95-.9zM1 15.8q.7-.5 1.55-.3.9.2 1.25.9l.3.7.4.55q.35.35 1.25.35 2.3 0 3.7-1.25.75-.7 1-1.7.2-1.05-.25-1.9-.55-.95-1.9-1.4l-2.4-.25-2.2.25-.95.35-1 .2q-.65 0-1.15-.4-.5-.45-.6-1.05l.05-1 .15-1v-2.3q0-1.45.9-2.05l1.05-.35 1.6-.3q5.1-1.1 7.8-1.05l.9.15q.45.2.55.65.05.45-.4.8l-.9.35-8.1 2.1v1q2.75-.4 5.45 0l1.65.4q.55.2 1.65 1.2 1.6 1.5 1.95 2.5l.3 2.05-.3 2.55q-.6 2.5-3 4.05-2.05 1.3-4.8 1.55L4.15 22q-1.45-.35-2.65-1.55Q.4 19.35.15 18.2q-.25-1.65.85-2.4m16.4 15.9.45-.65.35-1.3-.05-.55-.15-.35-.2-.7q-.15-.5-.65-.75l-.95-.25-.65.05-1.65.35-1.65 1.3-.6 1.4-.15 1.35.1.9.4.5.65.5.1.2.25.05 2.15-.55.4-.2 1.55-.95zM.9 32.75q.4-.55 1.2-.3.35.1 1.15.55 1.55.85 4.75.95-.7-3.05.45-5.9 1.3-3.05 4.15-4.2 1.2-.45 2.85-.55l2.4.4q1.7.65 2.6 2.45.75 1.45.75 3.5 0 2-.95 3.55-1.05 1.75-3.75 2.95-2.45 1-5.05 1.15-5.05.25-9.55-2.55l-.95-.8Q.5 33.3.9 32.75"/></g></svg>