<svg xmlns="http://www.w3.org/2000/svg" xmlns:ffdec="https://www.free-decompiler.com/flash" ffdec:objectType="shape" width="77.25" height="44.1"><g fill-rule="evenodd"><path fill="#717171" d="M33.55 4.9q4.15-.6 9.65.1l1.8.3.25-.2q1.6-1.05 2.8-1.55 1.3-.65 2.3-.6 1.45.1 2 1.15l.25 1.1q.3 1.7 1.3 5.1l.3 1.65q3.55 5.25 2.65 12.45l-.45 2.45q.55.2 1.05.7l.55.3.05.05 1.35-1.35q1.6-1.6 3.2-4l2.55-4.4.5-1.35q0-.55-.6-1.55-.6-.95-.6-1.55l-.7.25-.2 1.35-.85 4.15-.35.95v.7l-.1.9q-.25.9-1.3 1-.95 0-1.3-.95l-.1-.85-.1-7.55q-1.75-.85-2.35-2.7-.6-1.9.4-3.8 1.1-2.45 3.45-3.45 1.2-.5 2.4-.5l.1-1.15q.1-.85.3-1.2Q64.2.1 65 0q.9-.1 1.45.55t.4 1.45l-.1.35-.25 1.7q1.8 1.05 3 3.65 1.4 3.05 1.1 6.4-.3 2.95-2.1 6.15-1.2 2.2-3.75 5.5l-3.05 3.4-1.55 1.3.05.1.35.7.15.55.2.95q.15 1.05-.35 2.05-.5.95-1.45 1.4-.2.1-.9.35l-1.05.1-.95-.35-1.6 1.7q-2.8 2.55-7.85 4.15-8.35 2.75-16.05 1.6-2.7-.4-4.65-1.3-1.9-.95-4.05-2.8l-1.05-.75-.75-.25-.8-.15q-.85-.2-1.45-.95-.65-.7-.75-1.6v-.6q-.95 1.05-1.85 2.6l-.85 1.3-1.4.65-1.5-.25q-.7-.35-1.1-1.1-.35-.75-.3-1.55l.1-.45-1-.25q-.65-.35-1-1.15-.65-1.3-.15-2.6.45-1.15 2.2-2.55l2.3-1.65 1.1-.4 2.45-.4q1.35.1 2.3.8l.55.6h.05q-.5-1.4-.7-2.9-.25-1.8 0-4.25.3-3.7 1.65-6.8v-.25l.1-2.75q.2-3.6.7-5.35.4-1.25 1-1.7l1.2-.45h1.9q1.95.25 4.7 1.35 1.8-.65 3.9-.95m-5.6 5.75q-1.8.15-3.1 1.3-1.4 1.3-1.55 3l.05 1.4q.25 1 1 1.65l.5-.2q1.35-.65 2.3-.75l3.1.05.7.05q.65-1.1.7-2.65.1-.95-.2-1.75-.3-.95-1-1.5-.9-.7-2.5-.6m19.4 21.3q.45.55 1.1.45.7-.1.95-.7.25-.65-.1-1.25l-1-.9q-.45-.3-.95-.25-.25.05-.6.25l-.6.4-.65.3q-.45.35-.2.65l.6.15.65-.05q.3.05.5.4zm-6.2-10.65 1.7.2-.1.95q-.1 3.1-.9 5.55l-.55 1.45-.6-.3-.9-.1-1.05.15-.45.3-.55.6-.35-.2q-.85-.45-1.6-.3-.9.1-1.4.9l-1.05-.95q-.9-1.1-1.05-2.65-.2-1.15 0-2.9v-.95l.4-.05 1.05-.25L35 22q1.4-.9 2.3-1.95l.8-1 .45.7.6.45q1.05.8 2 1.1M44 20l-1-.2-1.7-.5-1.15-1-.65-1.05-.25-.6q-.3-.45-.85-.5l-.3-.15-.9.1-.65.6-.25.65-.4.75q-1.55 2.25-4.15 3.05l-1.5.2q-.9-.1-1.3-.65l-.35-.35-.45.05q-.4.25-.5.8-.1.45.15.9l.95.85.7.25h.4l-.1.7q-.3 2.65-.05 4 .35 2.1 1.75 3.8t3.35 2.55l.8.3-.1.6-.05 1.15v1.2q.25 1.2 1.45 1.9 1.05.55 2.4.3 1.05-.25 1.6-.8l.65-.95.15-.25v-.05l.9-1.15.2-.6q.6-2 .05-4.05v-.1l.95-1.8q.8-1.8 1.25-5.25l.2-2.15-.15-1.3.3-.15 1-.7.6-.7v-.45l-.35-.25-.8.5-.55.3zm-1.15-4.85q.35.85 1 1.45l.15-.1.75-.25 3.3-.25 1.75.15.45.15q.65-.8.85-1.9l.05-1.15-.25-1.1q-.55-1.75-2.35-2.5l-3.45.15-.8.45q-.95.65-1.25 1.35l-.3.7q-.4 1.55.1 2.85m-27.3-.85-.85.3.15 1.6.8.05q.8.15 1.35.8l.75 1.6.15.6.25 1.9-.25 1.2-.2.4-1.05.05-.3-.65-.25-.85-.2-1.7q-.2-.7-.6-.85l-.1-.05.5 4.2q.1.9-.45.95-.4 0-.6-.65l-1.1-3.6-.05.05-.05.85v.6l.3 1.4.2 1q-.1.65-.8.9-.65.15-1.15-.25l-.35-.45-.1-.55-.45-1.25-.05-.7q-.1-2.3.5-3.3.35-.65 1.15-1.1l.2-.05-.35-1.65-.65.05q-.65 0-1 .3-.45.3-.65 1.2-1.45 5.75-1.55 12 0 1.15-.35 1.6-.35.4-.9.45l-1.05-.2q-.8-.45-1.25-1.65-.6-1.35-.8-4.3-.5-7.65.9-11.8 1-3 2.95-5.2l1.85-1.65-.3-1.15q0-.65.4-1.2t1-.8l1.25-.05q.7.15 1.1.65l.5.85q1.1-.2 2.15 0 1.65.3 2.6 1.4 1.4 1.55 1.05 3.75-.3 1.65-1.5 3-1.15 1.3-2.75 1.95m10.4 16.85.9-.15.55-.1.35-.45-.25-.4-.9-.45-1.6-.1q-1.1.15-1.55.95-.25.4-.2.9t.4.8l.95.2.85-.5z"/><path fill="#fff" d="M42.85 15.15q-.5-1.3-.1-2.85l.3-.7q.3-.7 1.25-1.35l.8-.45 3.45-.15q1.8.75 2.35 2.5l.25 1.1-.05 1.15q-.2 1.1-.85 1.9l-.45-.15-1.75-.15-3.3.25-.75.25-.15.1q-.65-.6-1-1.45M44 20l1.3-.2.55-.3.8-.5.35.25v.45l-.6.7-1 .7-.3.15.15 1.3-.2 2.15q-.45 3.45-1.25 5.25l-.95 1.8v.1q.55 2.05-.05 4.05l-.2.6-.9 1.15v.05l-.15.25-.65.95q-.55.55-1.6.8-1.35.25-2.4-.3-1.2-.7-1.45-1.9v-1.2l.05-1.15.1-.6-.8-.3q-1.95-.85-3.35-2.55t-1.75-3.8q-.25-1.35.05-4l.1-.7h-.4l-.7-.25-.95-.85q-.25-.45-.15-.9.1-.55.5-.8l.45-.05.35.35q.4.55 1.3.65l1.5-.2q2.6-.8 4.15-3.05l.4-.75.25-.65.65-.6.9-.1.3.15q.55.05.85.5l.25.6.65 1.05 1.15 1 1.7.5zm-2.85 1.3q-.95-.3-2-1.1l-.6-.45-.45-.7-.8 1Q36.4 21.1 35 22l-1.25.75-1.05.25-.4.05V24q-.2 1.75 0 2.9.15 1.55 1.05 2.65l1.05.95q.5-.8 1.4-.9.75-.15 1.6.3l.35.2.55-.6.45-.3 1.05-.15.9.1.6.3.55-1.45q.8-2.45.9-5.55l.1-.95zm6.2 10.65-.3-.55q-.2-.35-.5-.4l-.65.05-.6-.15q-.25-.3.2-.65l.65-.3.6-.4q.35-.2.6-.25.5-.05.95.25l1 .9q.35.6.1 1.25-.25.6-.95.7-.65.1-1.1-.45m-19.4-21.3q1.6-.1 2.5.6.7.55 1 1.5.3.8.2 1.75-.05 1.55-.7 2.65l-.7-.05-3.1-.05q-.95.1-2.3.75l-.5.2q-.75-.65-1-1.65l-.05-1.4q.15-1.7 1.55-3 1.3-1.15 3.1-1.3m-2 20.5-.5.7-.85.5-.95-.2q-.35-.3-.4-.8t.2-.9q.45-.8 1.55-.95l1.6.1.9.45.25.4-.35.45-.55.1z"/><path d="m58.95 28.85.25.1.2-.35 1.25-1.45.1-.15-.15-.2q-.45-.3-.55-.9-.1-.8.35-1.35.5-.6 1.45-.5l.65.2.5.45.65 1.15L63.6 27v.15l.75-.7.9-.65q.55-.3 1.6-.5l.1-1.1q.15-2.2 1.1-3.95.75-1.45 2-2.4l-.2-1.35-.05-.25-1.75.25q-1.15-.25-1.45-1.15-.2-.5 0-1.15.2-.95.9-1.15l1.05-.1.75-.05h.1q.45-.9.85-1.2 1.05-.95 2.25-.5l.95.8.25 1.15-.4 1-.45.8-.5.5-.25.2-.05.25.15.95.45-.15 1.45-.15q.45.05 1.35.45 1 .55 1.1 1.05v.8l.25.75q.45 1.15.25 3.65l-.2 2.3q-.1 1.85.05 2.5l.3 1.15q.15.85-.45 1.7l-1.25 1.05.05.05.55 2-.15 4.1-.35 1.7q-.25.8-.9 1.4-.7.6-1.5.75l-1.6-.05-.9-.15-1.1.4-3.1.6-1.85-.05-4-.2-1.5-.25-.25-.1-1.35.75-.9.2q-.95.1-1.85-.5-.75-.55-1.15-1.35l-.5.5-1.3.4-1.3-.35-.4-.3q-.6.75-1.65.9l-1.6-.2-1.3-.85v-.05l-.4.5q-.4.55-1.2.7l-1.35-.2q-.6-.35-.8-1.1-.25-.75.05-1.4.45-.85 1.6-1.3l1.7-.25.15.05.15-.35-.3-.1-1.8-.8-.55.85-.6.6-1.55.05q-.55-.25-.75-.75-.5-1 .35-2.2l.2-.25-.1-.2-.2-.8q-.1-1.4 1.05-2.05l.75-.2.55.05q.8.2 1.2.65.55.65.4 1.3l2.6.85 1.1.55 1.2-1.1.95-.6.9-.4 2 .15.15.05q1.45-2.15 2.65-3.6.85-.95 1.35-1.15.85-.35 1.9 0m-45.8 2.1q1.5-.65 2.95-.55l.05-.25.85-3.6-1.15-.8-.15-.25q-.65-.85-.45-1.75l.3-1.15q.1-.5.4-.7l.1-.15q.7-.7 1.45-.75h.6l.6.1 1.4.9.45.8 1.1-.15 1.4.2q1.35.6 1.45 2.1.1 1.35-1 2.35-.95.9-2.45.8l-.55 1.55-.5.75-.45 1 1.05.6 1.25 1.4L23 35.65q.45-.25 1.05-.45l1-.25 1.55.2.5-.95 1.1-1.15 1.6-1 1.35-.1.25-.7 1.65-4.35.4-1.3q.25-.65.85-.95.5-.2 1.05 0t.75.7l-.05 1.3-.65 1.15-2.15 3.85-.55 1.2q.7.8.85 2.1.05 1.25-.6 2.4l-1 1.75.55.7.25.55.05.35-.2 1q-.5.95-1.65 1.05h-.45l-.45.25-.7.1h-.5q-1.05-.2-1.5-1l-1.65-.05-1.1-.15-.7.25-.65.35-2.25-.1-.7-.05q-.7-.15-1-.7-1.55 1.15-3.95 1.5l-3.5-.25-1.45-.85-1-.75q-1 .7-2.25.45l-.55-.15-2.05.4-1.2.2q-.95 0-1.7-.65-.75-.7-.85-1.6-.15-1.05.4-2.1l-.15-.15q-.9-.75-1-2.05L.2 34.4l.3-1.25.1-1.1.1-.25-.4-.6q-.55-1.1-.05-2.25.35-.7 1-1.05-.4-.8.1-1.7l.3-.35-.1-.05Q.7 25.25.3 24.25q-.3-1.05-.1-2l.25-.85q.6-.95 1.85-1.3l.35-.05.05-.1 1.55-.4q1.95 0 3.4.8l.55.35.65.6 1 1.15.2.6.15.7-.05.6-.35 1.1.35.25 1 .45q.55.35.6.95.1.6-.35 1.05-.4.4-1 .4l-.1.85-.3.65q1.35.8 1.65 1.65l.05.1q.65-.5 1.45-.85m17.9 6.6q.95-1.45.85-2.3l-.1-.55-.45.9-1.6 2.9.7.1zm-2.2-1.85-.25.7-.05.2.4.55.8-2.3.6-1.2h-.1l-.6.45z"/><path d="m65 20.3-.1.4-.15.35-.25.2-.1.25-.25.15q-.15.15-.15.55l-.2.5-.65-.1-.2-.7q-.1-.65.2-.9l.2-.2.15-.3.2-.45-1-1.5q-.1-.45.05-.8l.5-1.15q.3-.55 1-.65l.4.25-.05.5-.5 1.15v.45l.25.15.15.2.2.15.3.55.05.5zm-11.6 1.75v-.5q.2-.45.65-.35l.75.55.2.3.1.2.1.65-.2.85-.4.65-.2.15-.1.15-.35.4-.05.25v.3l.35.4.35.75q.1.55-.4.95l-.3.15-.25-.2-1.1-1.35-.1-.25.05-.95q0-.3.15-.55l.15-.2.35-.65.5-.55.05-.3-.05-.15-.25-.45zM27.1 24.7l.15-.35.6-.15.85.8q.25.55.15 1.15 0 1.05-.75 1.55l-.65.5q-.1.2-.05.6l.15.65q.1.6-.35 1.05-.95-.3-1.3-1.3-.4-.95 0-1.85l.5-.6.45-.2.3-.3-.05-.55zm-15.9-8.55-.1.2-.1.4-.1.25-.05.3-.15.45-.2.3-.45-.05-.6-.6-.15-.4-.05-.45.15-.8.3-.65.65-.55.15-.2v-.25l-.2-.7-.3-.45-.1-.55q0-.55.3-1l.2-.3.3-.2.25-.25q.35-.2.55-.15.45.1.35.45l-.35.5q-.25.15-.4.6l.05.1-.05.35.5.6.45.55v.5l.05.65-.7 1.1z"/><path fill="#717171" d="m43.95 8.3 1.55.25h1.6l1.65-.15 1.45-.2q1.05-.05 1.95.65t1.15 1.7-.25 2q-.45 1-1.4 1.5-.85.45-2.45.55h-2.6l-2.75-.2-2.3-.75-1.2-.65q-1.75-1.25-1.6-3.15.1-.9.8-1.65.65-.7 1.55-.75l1.45.3z"/></g></svg>