<svg xmlns="http://www.w3.org/2000/svg" xmlns:ffdec="https://www.free-decompiler.com/flash" ffdec:objectType="shape" width="75.35" height="42.35"><g fill-rule="evenodd"><path fill="#717171" d="m25.45 39.8-1.95-.2-1.6.15-.35.15-.6.5-.55.45-.45.7q-.5.65-1.5.75l-1.25.05q-.9-.1-1.3-.8l-.15-.35-.85.15-3.45-.1-1.3-.6-.5.3-.1.05-.35.25-2.1-.15-.15-.1-.15-.05-1.8-.1-.75.05-.8.8-.95-.05q-.5-.2-.7-.7V40l.2-.95-.05-1.1-.2-1.15-.15-2.65q-.05-1.65-.45-2.6l-.7-1.3-.45-1.4.25-1.65q.15-.7.15-2.1L.55 23l.05-1.1-.15-.85.05-.1-.4-.8.2-1.25.5-1.05.7-1.25.5-1.65.35-1.4-.15-1.65-1.05-3.7-.3-.75L.4 7.2l-.35-.65q-.1-.9.7-1.25l1-.35.4-.15.25-.3.5-.8.5-1.05.3-.65.15-.2v-.2l-.05-.3q-.05-.25.15-.45L4.4.7q.25-.1.45.2l.15.3q.55-.45 1.15 0l.55.8.55.8q.45.35 1.4.35l1.45-.2.5-.15 1.7-1.25.35-.25v-.05l.05-.05.1-.1.1-.05.1-.1.15-.05h.1l.2-.05.2.05h4.1l.95-.05h.2l.3-.05h1.95l2.25.05h.25l.3.05h.45l.15.05H25l.3.05h.25l5.55.05h5.75l.6.05h.5l.15.05h.1q-.5.85.05 1.95.35.55 1 .85l1.25.2q1.45-.35 1.7-1.8l-.1-1.05.1-.05h.2l.4-.05h.45l.1-.05h.1l.15-.05h.85l.15-.05h.3l.25-.05h.15l.05-.05h.25l.15-.05h.35l.2-.05h.5l.05-.05h.3l.8-.05h6.4l.15.05h.2q-.3.3-.4.75-.25.7 0 1.35t.85 1.05l1.3.4q.7 0 1.25-.45.6-.45.8-1.15.2-.65-.05-1.35L58 .7l.45.3.2.15 1.7.1.75.1.55-.05.65.1 1.75-.05 1.7.15.25.15.55-.45 1.3-.05.1.05.8.1.45-.2.45-.1q.55-.6 1.4-.7l1.35.1 1.6.9.55.85q.55 1 .55 1.75l-.25 2.8q.25.6 0 1.2l-.15.3-.3 2.6-.15 1.3v.65l.8 1.2q.45.95.2 1.65l-.8 1.15q-.5.65-.7 1.7-.05.7.2 1.65l.45 1.6q.65 2.05.7 3.95.1 2.05-.4 3.25l.3.3q.5.55.1 1.3l-.65.7-.65.65q-.2.4-.15 1.05l.15 1.1.2.95.45 1.4q.25.8-.05 1.4-.3.55-1 .7l-1.2.1-1.9.3q-1.15.3-1.9 1.15l-.85.85-1.75.35-2.95-.05-.8.15-2.2-.25-2.95.05-3-.1-1.75-.6q-3.6-1.2-7.15.05l-2.15.75q-1.7.45-5.25-.05l-.7-.2h-.4l-1.4-.65-3.15.25q-2 .8-3.1.6L28.3 41q.9-.65.55-1.85-.35-1.25-1.6-1.25-.55-.05-1.05.3-.45.3-.65.85zm36.2-32.25-.15.6.25-.7zM5.2 29.95l-.2.65q-.2.45 0 1.15l.15.75.7 1.9.85 1.1.5.4.45.15.55-.1.7.15.4.05q.6-.25 1.1.2.45.35.85 1.45.5.85 1.6 1.1l1.95.05q1.25-.15 2.25-.65 1.15-.55 1.7-1.55l.4-1.15.3-2.2q-.1-1.3-.7-2.1-.4-.65-1.1-.8l-1.55-.15q-.65-.05-.9-.4l-.35-.15-.35-.35-.8-.55-.65-.7v-.85l.3-.9q.4-1.25 0-2.45l-.2-.6q-.1-.65.5-.95l.15-.25.45-.55.25-.8.05-.5-.15-.45q-.1-.5.2-.85.35-.35.8-.25l.45.15 1.4-.35.5-.3 1.15-1.25q.4-.4.8-.4l.6.1.65-.1 1.15-.25.65-.35q.45-.2.75 0 .35.2.45.95l-.05.95-.25.3-.2.4-1.35 1.7q-1.4 1.75-1.45 3.55l.1 1.9q.1.9.35 1.3.45.9 2.6 1.45 1.1.2 1.3.85l-.05.8-.2.75.3 1.05q.6 1.5 1.45 1.8l1.1.15h.7l.55.15.6.25 1.15.3 1.65-.6 1.1-.6.9-.5h.2l1.5.1.9-.15 1.45-.4 1-.45.4-.25q1.05-.7 1.35-.75h.05q.3-.6 1.1-.5l.7.25q.75.25 1.5 0 1-.3 2-1.6l.8-1.05q.9-1.4.8-3.25l-.15-.7-.8-1.4-.15-.35q-.25-.35-.35-1-.05-.55.05-.9l-.15-.25-.35-.75-.4-1.05q-.15-.5.1-1.05.35-.55.9-.55l.75.25q.8.6.85.95v.45l.3 1.3.05.15 1.6 1.7.25.9v2.15l.1.35.55-.05 1.3.95 1 .9.6.35 1.35.35.85.05 1.05-.1.2.05q.4-.15.8 0l.65.5.65.6.95.4 1.05.4 1.5-.15q2.2-.7 3.45-2.05l.65-.95.65-2.5q.3-1.4-.3-2.85-.6-1.35-1.8-2.4-.75-.6-1.5-.8-.7-.2-1.9 0l-1.75.3-1.3.2q-.5-.25-.5-.7-.25-.3-.25-.75l.3-1.2v-.8q-.25-1.6-1.1-2.75l-.8-.75-3.05-.8q-.65-.1-.8-.45-.2-.4.05-.7L53 9.1l-.15-.4q-.25-.5-.9-.95l-.85-.7q-.5-.3-1.6-.6l-.7-.15-1.9.1q-.2 0-.45.15l-.3.2-.5.1h-.05q-.55.05-1.1-.4l-.85-.5-.8-.1-1.3.1-.7.3-.6.4-.75.65q-.45.45-.85.5h-.35l-.95-.15-.75-.6-.55-.15-1.1-.05-.7.1-.4-.25-.7-.2-.75-.65-.65-.25-.95-.1-.75.15q-1.4.3-2 .8l-.6.45-1.1-.15-.15-.2h-.05l-.95-.45-2.4-.2-.95.15-.85.4-1.3.75-.55.4-.95.8-.55-.05-.2.05-1.35-.15q-1.35-.25-3.35.95-.9.6-1.25 1.05-.7.75-1.1 2.6l-.3 1q-.45.55-1.05.45h-.1l-.15.1-1.05.6q-1.65.95-2.2 2.75-.55 1.65 0 3.55l.15 1.3-.85.75q-.7.35-.85.7l-.15.65q-.2 1.25 0 2.1l.75 1.8.3.65.15.45zm59.45-7.3.15 1.15-.6.95q-.5.35-1.1.35-.65 0-1.05-.4-.45-.35-.55-1-.1-.6.15-1.1.5-.9 1.55-.9 1 0 1.45.95m-9.3-15-.05.25q0 .7.65.9.65.25 1.1-.3.35-.55 0-1.15-.5-.6-1.05-.35-.2 0-.3.15-.25.15-.35.5m16.8 17.7q-.35-.35-.75-.25-.6-.1-1 .5-.35.6 0 1.15l.15.25q.45.5 1.1.35.7-.15.85-.85t-.35-1.15M42.8 11.75l-1.45.05q-.6-.3-.7-1-.05-.5.25-.95t.8-.55l.95.15.65.75q.25.95-.5 1.55m5.75-1.8q1.1-.1 1.7.85t0 1.85q-.6.95-1.65.85-.65-.05-1.15-.6-.45-.5-.45-1.15t.45-1.2q.45-.5 1.1-.6m-6.85 10.2q-.5.25-1 0-.5-.3-.6-.85v-.35l.4-.65.7-.25q.9.1 1.05.85.15.8-.55 1.25m1.55 6.95-1.05-.05-.8-.65q-.25-.5-.15-1.05.05-.55.45-.9t1-.4q.6 0 1 .3l.55.9q.15.55-.1 1.05zm8.55-11.8q.2-.7.6-1.05.45-.35 1.1-.35.6 0 1.1.35.45.35.55 1L55 16.4l-.9.75q-.6.2-1.15 0l-.9-.75q-.3-.55-.25-1.1m3.25 7.95q-.7-.4-.8-1.2-.1-.85.65-1.25l.9-.2q.5.05.85.4.8.85.1 1.8l-.75.5zM35.95 2.7q-.95-.1-1.35.75t.3 1.45q.35.35.85.3.5 0 .85-.3.65-.55.3-1.45-.25-.55-.95-.75m26.9 32.9q-.4-.05-.75.25t-.45.75q-.15.9.8 1.3l.85-.05.6-.55.1-.8-.5-.7q-.25-.2-.65-.2m6-2q-.8 1.15-.05 2.3.75 1.1 2.15.85l1.05-.6.5-1.1q.2-1.4-1.05-2.05l-1.4-.15q-.75.15-1.2.75m-21.3-.6q-.85.1-1.3.95-.35.85.15 1.6.8 1.05 1.95.65l.85-.7.25-1.05q-.05-.65-.65-1.15zm-6.7 4.45q-.55.25-.45.95.1.65.7.8.7.15 1-.4.4-.5.05-1.05l-.3-.3-.4-.15zm10.3-8-.1-.15-.55-.3-.1.05q-.45 0-.6.4-.2.4.05.7.25.35.6.35.65.1.75-.55zM36.5 11.3l.45.6q.35.75-.15 1.4l-.9.6-1.05-.15-.65-.8q-.15-.6.05-1.1.25-.5.75-.7l1.05-.1zm-6.1-1.9.95.1.85.85.15 1.2q-.2.65-.75 1-.55.4-1.15.3-.65-.05-1.1-.6-.45-.5-.45-1.1 0-.65.45-1.15.4-.5 1.05-.6m-6 2.5q-.7 1-1.9.55-.5-.2-.8-.7-.3-.45-.25-1 .1-1.15 1.2-1.5 1.2-.25 1.85.7l.25 1zm3.95 4.95.05-.45q.15-.9 1.2-1.1.45-.05.9.25l.55.7v.9l-.55.7-.85.25-.85-.35q-.35-.35-.45-.9M24.9 23.1q.1-.7.7-1.05.65-.3 1.3 0 .9.35.8 1.35-.1.75-.8 1.1l-1.4-.15q-.7-.4-.6-1.25m13.35-5.85q-.8.15-1.35-.55-.5-.7-.2-1.45.25-.75 1.05-1 .5-.15.95 0 .7.25.95.9.25.7-.15 1.3l-.7.65zm-1.85 3.7.25.65.35.5q.45.7-.2 1.25-.3.3-1.5.4l-.95.05-1.25-.3-.9-.5q-.5-.4-.4-.85l.35-.6.45-.55.35-.5.4-.45 1.3.1.95.25zM12.45 7.05l.15-.1.05-.1.1-.1q.15-.25-.05-.6L12.6 6l-.45-.2v.05q-.35-.1-.55.3l-.1.2q-.05.35.25.6l.2.15zm4.25-.95.85-.25.55-.75q.25-1-.55-1.55l-1.7.05q-.8.65-.45 1.6.25.6.75.8zm.8 8.2q-.25.75-.95.9-1.05.25-1.55-.65-.2-.35-.15-.85t.35-.8q.35-.35.85-.4l.85.2.6.7zm-9.75-2.6q-.25-.75-1.05-.85l-.05.05q-.5 0-.8.35-.3.4-.25.75-.1.7.6 1.05.65.3 1.25-.2.55-.45.3-1.15m-1.3-2.9q.45-.5.5-1.3 0-.75-.4-1.3t-1.1-.8q-.75-.2-1.4 0l-1.1.8q-.45.65-.4 1.35 0 .7.45 1.25l1.2.8 1.25-.05zm3.65 11.35-.45-.45-.2-.65q.1-.85.8-1.15.85-.25 1.35.35.55.65.15 1.4-.35.75-1.2.65zm-6.15-1.1q.4-.3.4-.8 0-.55-.45-.8l-.55-.2-.1.05-.3.05q-.6.25-.6.9t.55.9zm6.9 5.1-.05.55-.3.6-.85.5-1-.1q-.5-.25-.7-.75t-.05-1q.1-.5.55-.8l1-.3q.5.05.9.4.45.4.5.9m8.1 0q-.7-.4-1.45 0-.7.35-.7 1.2 0 .95.85 1.3.85.4 1.55-.3.65-.65.3-1.5zM18.4 22q.45 0 .7-.35.4-.4.1-1-.25-.5-.85-.5-.65 0-.8.6-.1.2-.05.35l.15.45.25.25zm-9.6 8.1q.7-.7 1.5-.15l.45.65v.8q-.35.9-1.35.7-.95-.25-.95-1.2l.05-.25zm5.05 2.2q.7-.3 1.35.25.75.6.3 1.6-.45.9-1.4.75-1.05-.2-1.15-1.2-.1-1.05.9-1.4M5.6 38.55q-.25.7.15 1.25l.85.55.95-.05q1-.4.8-1.55-.05-.5-.45-.8-.4-.35-.85-.4-.5 0-.9.3-.45.25-.55.7M35.65 27.2q.75-.65 1.7-.4t1.3 1.2q.2.65-.1 1.3l-.85.9-1.3.1q-.65-.15-1.05-.7-.35-.55-.25-1.25.05-.7.55-1.15m-4.45 2.65q-.7.6-1.55.2-.8-.45-.65-1.4.1-.9 1.1-1.1 1-.1 1.4.75.35.9-.3 1.55m-7.3 7.25-.15-.2-.45-.25q-.5-.1-.8.3-.35.35-.2.8.15.65.85.65l.3-.05.45-.4q.25-.4 0-.85m10.85-1-1.1-.1q-.6.25-.75.75-.2.5 0 1l.7.65.95.05.7-.65.05-.95z"/><path fill="#fff" d="m38.2 1.15.35-.5q.45-.5 1.15-.6L41 .2l.95.85.15.25.1 1.05q-.25 1.45-1.7 1.8l-1.25-.2q-.65-.3-1-.85-.55-1.1-.05-1.95M54.7.8l.35-.35L56.3 0q.75-.05 1.3.35l.4.35.45.7q.25.7.05 1.35-.2.7-.8 1.15-.55.45-1.25.45l-1.3-.4q-.6-.4-.85-1.05t0-1.35q.1-.45.4-.75M28.3 41l-.1.05-2.05-.05q-.65-.55-.7-1.2l.1-.75q.2-.55.65-.85.5-.35 1.05-.3 1.25 0 1.6 1.25.35 1.2-.55 1.85M61.65 7.55l.1-.1-.25.7zm10.5 17.8q.5.45.35 1.15t-.85.85q-.65.15-1.1-.35l-.15-.25q-.35-.55 0-1.15.4-.6 1-.5.4-.1.75.25m-16.8-17.7q.1-.35.35-.5.1-.15.3-.15.55-.25 1.05.35.35.6 0 1.15-.45.55-1.1.3-.65-.2-.65-.9zm-4.2 21.8.05.5q-.1.65-.75.55-.35 0-.6-.35-.25-.3-.05-.7.15-.4.6-.4l.1-.05.55.3zm-10.3 8 .6-.15.4.15.3.3q.35.55-.05 1.05-.3.55-1 .4-.6-.15-.7-.8-.1-.7.45-.95m6.7-4.45 1.25.3q.6.5.65 1.15l-.25 1.05-.85.7q-1.15.4-1.95-.65-.5-.75-.15-1.6.45-.85 1.3-.95m21.3.6q.45-.6 1.2-.75l1.4.15q1.25.65 1.05 2.05l-.5 1.1-1.05.6q-1.4.25-2.15-.85-.75-1.15.05-2.3m-6 2q.4 0 .65.2l.5.7-.1.8-.6.55-.85.05q-.95-.4-.8-1.3.1-.45.45-.75t.75-.25M35.95 2.7q.7.2.95.75.35.9-.3 1.45-.35.3-.85.3-.5.05-.85-.3-.7-.6-.3-1.45t1.35-.75M16.7 6.1l-.55-.1q-.5-.2-.75-.8-.35-.95.45-1.6l1.7-.05q.8.55.55 1.55l-.55.75zm-4.25.95-.5.05-.2-.15q-.3-.25-.25-.6l.1-.2q.2-.4.55-.3V5.8l.45.2.1.15q.2.35.05.6l-.1.1-.05.1zm-6 1.75-1 .75-1.25.05L3 8.8q-.45-.55-.45-1.25-.05-.7.4-1.35l1.1-.8q.65-.2 1.4 0 .7.25 1.1.8t.4 1.3q-.05.8-.5 1.3m1.3 2.9q.25.7-.3 1.15-.6.5-1.25.2-.7-.35-.6-1.05-.05-.35.25-.75.3-.35.8-.35l.05-.05q.8.1 1.05.85m-3.8 7.35-1.05.1q-.55-.25-.55-.9t.6-.9l.3-.05.1-.05.55.2q.45.25.45.8 0 .5-.4.8M18.4 22l-.5-.2-.25-.25-.15-.45q-.05-.15.05-.35.15-.6.8-.6.6 0 .85.5.3.6-.1 1-.25.35-.7.35m.55 2.15.55.7q.35.85-.3 1.5-.7.7-1.55.3-.85-.35-.85-1.3 0-.85.7-1.2.75-.4 1.45 0M5.6 38.55q.1-.45.55-.7.4-.3.9-.3.45.05.85.4.4.3.45.8.2 1.15-.8 1.55l-.95.05-.85-.55q-.4-.55-.15-1.25m29.15-2.45.55.75-.05.95-.7.65-.95-.05-.7-.65q-.2-.5 0-1 .15-.5.75-.75zm-10.85 1q.25.45 0 .85l-.45.4-.3.05q-.7 0-.85-.65-.15-.45.2-.8.3-.4.8-.3l.45.25z"/><path d="M61.3 25.6q.6.45 1.35.45l1.1-.55.95-1.6q.25-1-.1-1.9-.15-.55-.65-.95l-1.5-.2-1.55-.15q-.55.7-.65 2.65l.2 1.25zm-13.1-9.35-1.25-.1-1.65-.9-.75-.95-1.05.9-1.15.15-.35.05-.05.35v.05h.2l.8.05.9.55.9.9.25.65q.45 1.3.05 2.4l-.35.65 1 .75.75.65q.6.65.75 1.65v1.85q-.25 2.1-1.35 3.05l-.85.5-1.2.5-2-.15-1-.4-.2.4-.45.7q-.7 1-2 1.4l-2.45.15q-.9-.2-1.3-.55l-.35-.3-.8 1.2-.55.6-1 .55-2.75.45q-.65-.05-1.35-.5l-1.15-1-.4-.8q-.8-1.9-.2-3.4l-1.2-.1-1.35-.35-.85-.7q-.8-.7-.95-1.3l-.05-.9q.1-3.1.85-4.4.8-1.25 2.15-1.8l.4-.1-.05-.45-.05-1.05q0-1.65.85-2.95l.85-1-.15-.25-.55.55-1.5 1.3q-.95.7-1.85.75l-.75.05-1.05.05q-.55-.15-.9-.5l-.25-.2-.4 1-.95 1-1.35.9-1.55.35-.9.1-.2-.05-.1.45-.5 2-1.15 1.7.15.25.25.9.15.7.05.7q-.1 1.2-.55 2.15l-.35.6.65.7.3.65q.45.85.5 1.65v.35l.65-.25.5-.35q.55-.15 1.05 0l.95.45.55.35q.95.65 1.25 2.55v.95q-.1 1.4-1.2 2.3l-1.05.6-1.95.55h-.6l-.7-.2-1.3-.6q-.55-.45-.95-1.6l-.1-.4V35l-.3.1-.85.1q-1.35.1-2.3-.65l-.9-1.2L6 32.9l-.1-1 .05-.9.1-.6.3-.6.5-.8-.9-.65q-.45-.35-.65-1.2L5 25.7l.2-1.1.8-1.55.6-.55.9-.55-.1-.1q-.7-1.2-.8-1.95-.15-.95.3-2.15.5-1.05 1.2-1.85l.45-.5q.85-.75 2.25-.95l.45-.05v-.65l.05-.8q.15-.95.8-1.95l.4-.45.85-.65.95-.5q1.55-.7 3.2-.45l1 .3.5.4.4-.75.75-.9q.65-.55 1.75-1l2.25-.35q.9.15 1.9.95l.8.8.25-.35.95-.75q.9-.55 1.35-.65h.85l1.35.05.75.3q.65.4.8 1.1v.05q.8-.6 1.8-.75l1.1-.05 1.5.5.95.65.05-.15.55-.8q.45-.45 1.65-.95l1.85-.5 1.25.35 1.15.7.65 1q1.1-1 2.95-1l1 .15.6.3.8.6.85.95.75 1.15.3.95h.65l1 .1.9.15q.6.25 1.25 1l1.05 1.6.1.9q.1 1.65-.5 2.9l.15.05 1.6 1.5.15.2q.85-.75 1.95-1.05l3.35.1.85.45q.5.4.8 1.05 1.35 2.6.3 5.45l-.35.7-1 1.05-.6.4-.9.35-1.35.35q-1.5.25-2.8-.65-1.1-.7-1.55-1.75l-.15.1q-1.1.65-2.4.55-1.95-.1-3.15-1.65l-.55-.85-.3-.65-.15-.6q-.15-1.25.3-2.3l.1-.15-1.4-.75-.85-.8q-.65-.95-.45-2.6L49 16h-.25zm-6.15-3.35.65.2q.35-.05.55-.45l.15-.2.65-.8q.4-.8.15-1.6t-1.05-1.2l-1.55-.2q-.8.25-1.25 1t-.25 1.55q.35 1.3 1.6 1.55l.2.05zm6.75.8.6-.1.6-.3.55-.8.05-.85-.4-.95-.5-.55-.95-.3-.9.05q-.55.2-.85 1.15-.25.95-.15 1.3l.2.55.7.6zm-9 6.8.35.3.35.35 1.15.2q.6-.05 1-.45l.6-.95V19q0-.65-.5-1.05-.55-.55-1.4-.2l.05.05h-.15q-.9.15-1.4 1.05l-.2.8.15.65zm3.05 3.2-1.25.3q-.6.2-.95.85l-.3.55-.05.25.2.3q0 .6.45 1.1.45.55 1.25.7l1.35-.25.25-.15.15-.1q.55-.3.7-.9l.15-1.15-.15-.65-1-.65zm10.85-9.85-.85.1h-.2l-.55.85-.05.05-.55.7q-.3.55 0 1.6.5.55 1.9.55l.5-.05.5-.3q1.15-1 1-2.3-.1-.8-.65-1.1zm4.1 7.7q-.1-.55-.75-1l-.55-.25h-.25l-.7-.1-.25.05-.15-.05-.35.2-.25.15-.25.05v.1l-.2.15q-.8.9-.4 2t1.6 1.25q1.1.15 1.75-.6l.05-.05.05-.05.45-.7.05-.1v-.1l.15-.85zM31.5 10l.45-.65-.3-.3-.8-.15-1 .1q-.75.25-1.05.85l-.2.65-.05.7.35.9.6-.05 1.25.2q.2-1.2.75-2.25m4.85.4-1 .05h-.1q-.8 0-1.45.65t-.7 1.5.55 1.5l.5.45.05.05.5.2.4.1h.1l.8-.1 1.05-.8q.8-1.05.3-2.15l-.2-.45q-.25-.8-.8-1M21.8 13.35l.35.25.35-.1 1.25-.95.9-.8.6-1.15q.1-.75-.3-1.25-.7-1-2.15-.5-.85.3-1.45 1.15-.55.8-.65 1.75 0 .85.35 1.15zm6.7 5.2 1.35.3q.35.05.9-.4l.55-.55.15-.7-.15-1.4-.2-.3-1.45-.5q-.95-.15-1.5.75-.4.65-.3 1.7.2.85.65 1.1m-1.25 3L26 20.7l-.15.1-.7.6q-.4.45-.6 1.7l-.1 1.35.05.55.5.3 1.6.2q.7-.15 1.65-1.1l.3-.95.05-.35-.15-.4-.3-.35-.2-.6zm6.05-2.15-.55.6-1.4 1.1-.75.35.05.25q.35 1 .3 1.7v.15h.25q1.2.1 2.05.65l1.05.95.35-.45q.85-.7 1.9-.85l1.05-.05 1.2.5.05-.6.25-.65-.95-.75q-.35-.35-.55-1.1v-1.25h-.5l-.8-.05-.9-.3-.55-.55-.45-.3-.45-.95-.15-.5-.2-.05q.1 1.5-.3 2.15m6.4-4.3-.8-.3-.05.2-.7 1.1-1.15.85.1.05.4.3.4.05 1.3-.35q.4-.45.85-.7l.15-.65.05-.35zm-25.5-1.9q-.3.9.05 1.7.4.9 1.35 1 1.15.15 1.85-.9.5-.75.6-2.05l-.05-.5q-.25-.7-1.05-.8l-1.5.25q-.7.4-.95.7zm-2.6 4.05-.5-.3-.6.25-.8.9q-.45.7-.45 1.35 0 .85.7 1.15l.85.35.2.05.15-.1q.95-1 1-2.3l-.1-.8zM9 26.6l.55.05.55-.25q.8-.7.85-1.65l-.05-.45-.35-.35-.9-.7H9.4l-.55.35q-.5.25-.7.45l-.45.9q-.3.75 0 1.1l.45.25.35.25zm-.3 3.1q-.4.65-.4 1.45l.05.3.2.25.3.4.3.35.85-.2q1.05-.6 1.15-1.25.1-.4-.2-1.2l-.1-.2-.25-.1-.65-.3-.1-.1-.75.1zm5.9 5.8 1.1-.25.65-.95-.15-.95q-1-.65-1.6-.65-.45 0-.85.4-.3.35-.5.85-.15.3-.15.7.05.4.55.7zm23.45-8.1-.2-.4-.45-.3-.4-.35-.6.05q-.9.25-1.5 1.05v.75l.15.55.3.25.65.4q1 .45 1.9-.25l.35-.5q.2-.5-.2-1.25m-8.4-.85-1 .9-.05.25-.3.65-.1.85q0 .75.4 1.2.6.65 1.9.35l.45-.15.4-.5.7-1.8q.3-.9-.15-1.35-.25-.25-.85-.35l-.95-.05-.3-.1z"/><path fill="#fff" d="M61.35 13.4q-1.15-1.15-1.6-2.8-.45-1.6-.1-3.2.4-1.6 1.6-2.75 1.25-1.2 2.8-1.6l1.35-.2.95-.05.85.05 1.35.2q1.55.4 2.8 1.6 1.2 1.15 1.6 2.75.35 1.6-.1 3.2-.45 1.65-1.6 2.8l-1.4 1.1q.4.5.2 1.2-.25.9-1.25 1-.8.1-1.25-.55l-.6.75-.7.25-.6-.25q-.5-.3-.6-.75-.45.65-1.25.55-1-.1-1.25-1-.2-.7.2-1.2zm2.65-.95.25-.5-.05-1.1-.7-.8-1.1-.2-.95.55q-.35.45-.4 1.05 0 .6.35 1.05t.95.55l1.1-.1zm4.6 0 .55.5 1.1.1q.6-.1.95-.55l.35-1.05-.4-1.05-.95-.55-1.1.2q-.5.25-.7.8-.25.6-.05 1.1z"/><path fill="#717171" d="m64 12.45-.55.5-1.1.1q-.6-.1-.95-.55t-.35-1.05q.05-.6.4-1.05l.95-.55 1.1.2.7.8.05 1.1zm4.6 0-.25-.5q-.2-.5.05-1.1.2-.55.7-.8l1.1-.2.95.55.4 1.05-.35 1.05q-.35.45-.95.55l-1.1-.1z"/></g></svg>