<svg xmlns="http://www.w3.org/2000/svg" xmlns:ffdec="https://www.free-decompiler.com/flash" ffdec:objectType="shape" width="77" height="37.5"><g fill-rule="evenodd"><path fill="#999" d="m68.85 16.45.65.4 1 .8.8-.7q1.45-1.05 3.25-.35 1.7.75 2.25 2.45l.2.85v.8l-.25 1.35-1.1 1.35-.6.55-1.05.35-.6.05-.05 1.75-1.05 2.15-1.15 1.35-.6.35.5.8.45.75.2.45.25 1.2.05.45v.75l-.2.7-.65.8-.7.45-.45.15-.3.3q-1.6 1.15-3.4.5l-.75-.35q-.95.7-2.4.45-.95-.05-2.1-.6l-.25-.1-.05.05q-.65.8-1.75.65-.65-.1-1.25-.75-.85-.85-1-2.35-.15-1.2.2-2.55.6-2.45 1.95-4l1-.95-.75-1.65q-.8-2.25-.1-4.55l.15-.5-.25-.2-1.5-1.75q-.6-1.1-.45-2.2.05-1.1.8-1.95.75-.9 1.8-1.15l1-.15 2.35.3.9.65q1.1 1 1.3 1.75l.05.35h.6v.1l.8 2.9-1.05.6-.5.45q-.2.3-.05.6l.2.35.3.75.65 1.85q.2.8.65.85l.5-.1.2-.4-.15-.5-.6-1.75-.2-.75 1.5-.5.65-.15q.55-.25.65-1l-.15-1.25-.35-1.2zM61.4 25.1q1.05.15 1.7-.35l.85-1.25q.25-.8-.05-1.5-.35-.7-1.05-1.1l-1.5-.2q-.8.15-1.3.8t-.5 1.45q.05.75.55 1.4.55.65 1.3.75m11.45.5q0-1.15-.85-1.75-.5-.3-1-.45l-1.3.25q-.6.3-.95.85-.35.6-.25 1.3.05.75.5 1.25.4.5 1.1.65l1.35-.05 1-.8q.4-.6.4-1.25M11.2 15.7h.6l.05-.35q.2-.75 1.3-1.75.45-.45.9-.65l2.35-.3 1 .15q1.05.25 1.8 1.15.75.85.8 1.95.15 1.1-.45 2.2-.55.95-1.5 1.75l-.25.2.15.5q.7 2.3-.1 4.55l-.75 1.65 1 .95q1.35 1.55 1.95 4 .35 1.35.2 2.55-.15 1.5-1 2.35-.6.65-1.25.75-1.1.15-1.75-.65l-.05-.05-.25.1q-1.15.55-2.1.6-1.45.25-2.4-.45l-.75.35q-1.8.65-3.4-.5l-.3-.3-.45-.15q-.4-.15-.7-.45l-.65-.8-.2-.7v-.75l.05-.45.25-1.2.2-.45.45-.75.5-.8-.6-.35-1.15-1.35q-.8-1.15-1.05-2.15-.1-.6-.05-1.75L3 24.3l-1.05-.35-.6-.55-1.1-1.35L0 20.7v-.8l.2-.85q.55-1.7 2.25-2.45 1.8-.7 3.25.35l.8.7 1-.8.65-.4v.1l-.35 1.2q-.3.75-.15 1.25.1.75.65 1l.65.15 1.5.5-.2.75-.6 1.75-.15.5.2.4.5.1q.45-.05.65-.85l.65-1.85.3-.75.2-.35-.05-.6-.5-.45-1.05-.6.8-2.9zm-7.05 9.9q0 .65.4 1.25t1 .8l1.35.05 1.1-.65q.45-.5.5-1.25.1-.7-.25-1.3-.35-.55-.95-.85-.65-.3-1.3-.25l-1 .45q-.85.6-.85 1.75m11.45-.5q.75-.1 1.3-.75l.55-1.4q0-.8-.5-1.45t-1.3-.8l-1.5.2q-.7.4-1.05 1.1-.3.7-.05 1.5.2.8.85 1.25.65.5 1.7.35"/><path fill="#fff" d="M68.85 16.45v.1l.35 1.2.15 1.25q-.1.75-.65 1l-.65.15-1.5.5.2.75.6 1.75.15.5-.2.4-.5.1q-.45-.05-.65-.85l-.65-1.85-.3-.75-.2-.35q-.15-.3.05-.6l.5-.45 1.05-.6-.8-2.9v-.1l-.05-1.15q.35-1.05 1.4-.95.95 0 1.4.95.25.6.3 1.9m4 9.15q0 .65-.4 1.25l-1 .8-1.35.05q-.7-.15-1.1-.65-.45-.5-.5-1.25-.1-.7.25-1.3.35-.55.95-.85l1.3-.25q.5.15 1 .45.85.6.85 1.75m-11.45-.5q-.75-.1-1.3-.75-.5-.65-.55-1.4 0-.8.5-1.45t1.3-.8l1.5.2q.7.4 1.05 1.1.3.7.05 1.5l-.85 1.25q-.65.5-1.7.35M8.15 16.45q.05-1.3.3-1.9.45-.95 1.4-.95 1.05-.1 1.4.95l-.05 1.15v.1l-.8 2.9 1.05.6.5.45.05.6-.2.35-.3.75-.65 1.85q-.2.8-.65.85l-.5-.1-.2-.4.15-.5.6-1.75.2-.75-1.5-.5L8.3 20q-.55-.25-.65-1-.15-.5.15-1.25l.35-1.2zm7.45 8.65q-1.05.15-1.7-.35-.65-.45-.85-1.25-.25-.8.05-1.5.35-.7 1.05-1.1l1.5-.2q.8.15 1.3.8t.5 1.45l-.55 1.4q-.55.65-1.3.75m-11.45.5q0-1.15.85-1.75l1-.45q.65-.05 1.3.25.6.3.95.85.35.6.25 1.3-.05.75-.5 1.25l-1.1.65-1.35-.05q-.6-.2-1-.8t-.4-1.25"/><path d="m61.55 10.75-.25.75-.45.7-.35.35q-1.4 1-2.45.75l-.4-.05-.35.2-1.2.25q-.7-.05-1.15-.5t-.5-1.15q-.05-.65.3-1.2l.55-.55.65-.5q.65-.3 2.05 0l1.05.25.25-1.8.2-.6.5-.45.85-.5 1-.1q.7.2.6.75l-.55.6-.5.55.2 1.55zm-6.1 5.05 1.15-.15.95.05 1 .3.6.5.5.6.15.25q.35.25.75-.15l.45-.65q.6-.75 1.5-.45l.2.45-.35.4q-.1.25-.05.8l-.05.8-.25.5-.65.75q-.85.7-2.15.6l-.7-.1-1.45-1.2q-.45.4-1.1.4l-1.1-.35-.65-.95q-.15-.65.1-1.15l.3-.55q.45-.5.85-.7M26.8 24.85q-.95-1.3-1.75-3.3-.9-2.05-1.3-3.85-.55-2.8.05-5.6l-.3-.65-.65-1.85q-.8-2.65-.75-5.45 0-.95.25-1.65.25-.9 1-1.3L24.8.95q3.5-.1 6.6.65Q33.85.25 36.75.05h3.6q2.9.2 5.35 1.55 3.1-.75 6.6-.65l1.45.25q.75.4 1 1.3L55 4.15q.05 2.8-.75 5.45l-.65 1.85-.3.65q.6 2.8.05 5.6l-1.3 3.85q-.8 2-1.75 3.3l-2 1.8q-1.15 1-2.5 1.65l-.15.1 1.85 2.8q1.65 2.65 1.8 4.75H27.8q.15-2.1 1.8-4.75l1.85-2.8q-1.45-.7-2.6-1.75-1.4-1-2.05-1.8m16.9-20.8q-1.35-.65-2.65-.85l.05.25.35 2.2.15 3v1.2l-.15 1.55q-.35 3.05-1 4.8l-.15.4.05.4 1.6-.4q2.5-.7 5.5-2.8l1.9-1.65q.75-.9.8-1.7.1-1.5-1.8-3.1-2.7-2.3-4.65-3.3m3.25 15.75-2.75.05q.15-.8-.4-1.35-.6-.55-1.4-.3-.8.2-.95 1l-.15 1.5.05.65q.05.45.45.8t.9.35l5.25-.8 1.05-.35.55-.1.4-.55q.1-.4-.25-.65l-1.3-.15zm8 9.15.35 1.6q.3 1.1.95 1.25l-.05.75-.4.15q-.7.2-1.2 0l-.45-.3q-1-.85-1.45-2.1l-1.85.3q-1-.1-1.7-.75l-.4-.7-.2-.6q-.25-1.05.8-1.65l1.85.05.45.2.6.05q1.4-.05 2.4 1.3zM61 28.3l-1.45-.5-.75-1.15-.7-1.15-.4-.25-.7.3-1.5.3-1.8-.35-.65-.75-.45-1.05q-.2-1.2.8-1.8l1-.2q.6.05.95.4l.45.3.4-.05 1.65.05q1.75.5 2.35 1.75.35.65.35 1.5v.55q0 .55.6.9l.45.2.3.4q.1.3-.3.5zM35.15 16.6l1.5.35-.25-.4q-.75-1.55-.85-2.7l-.05-1.45.2-4.7q.25-2.65 1.05-4.55l.05-.05q-1.65.15-3.4.95-1.95 1-4.65 3.3-1.9 1.6-1.8 3.1.05.8.8 1.7l1.9 1.65q3 2.1 5.5 2.8M34.1 27.05l.25.1.55-.1h.45l.5-.15 1.75-.1h2l1.75.1.5.15h.45l.55.1.25-.1h.2l.75-.3q.55-.3.3-.8-.05-.15-.45-.35l-1.1-.45-.45-.1-2.45-.75-.25-.05v-.3l-.15-.4-.15-.4-.55-.25h-.05l-.1-.05h-.1l-.1.05-.6.25-.15.4-.15.4v.3l-.25.05-2.45.75-.45.1-1.1.45q-.4.2-.45.35-.25.5.3.8l.75.3zm-18.55-16.3-.05-.7.2-1.55-.5-.55-.55-.6q-.1-.55.6-.75l1 .1.85.5.5.45.2.6.25 1.8 1.05-.25q1.4-.3 2.05 0l.65.5.55.55q.35.55.3 1.2-.05.7-.5 1.15t-1.15.5l-1.2-.25-.35-.2-.4.05q-1.05.25-2.45-.75l-.35-.35-.45-.7zm6.1 5.05.85.7.3.55q.25.5.1 1.15l-.65.95-1.1.35q-.65 0-1.1-.4l-1.45 1.2-.7.1q-1.3.1-2.15-.6l-.65-.75-.25-.5-.05-.8-.05-.8q-.25-.1-.35-.4l.2-.45q.9-.3 1.5.45l.45.65.75.15.15-.25.5-.6.6-.5 1-.3.95-.05zm8.6 4-1.45.1-1.3.15q-.35.25-.25.65l.4.55.55.1 1.05.35 5.25.8.9-.35.45-.8.05-.65-.15-1.5q-.15-.8-.95-1-.8-.25-1.4.3-.55.55-.4 1.35zM16.1 28.3l-.6-.1q-.4-.2-.3-.5l.3-.4.45-.2q.6-.35.6-.9v-.55q0-.85.35-1.5.6-1.25 2.35-1.75l1.65-.05.4.05.45-.3q.35-.35.95-.4l1 .2q1 .6.8 1.8l-.45 1.05-.65.75q-.7.45-1.8.35l-1.5-.3-.7-.3q-.25 0-.4.25l-.7 1.15-.75 1.15q-.45.4-1.45.5m6.05.65.3-.45q1-1.35 2.4-1.3l.6-.05.45-.2 1.85-.05q1.05.6.8 1.65l-.2.6-.4.7q-.7.65-1.7.75l-1.85-.3q-.45 1.25-1.45 2.1l-.45.3q-.5.2-1.2 0l-.4-.15q-.15-.2-.05-.75.65-.15.95-1.25z"/><path fill="#fff" d="M43.7 4.05q1.95 1 4.65 3.3 1.9 1.6 1.8 3.1-.05.8-.8 1.7l-1.9 1.65q-3 2.1-5.5 2.8l-1.6.4-.05-.4.15-.4q.65-1.75 1-4.8l.15-1.55v-1.2l-.15-3-.35-2.2-.05-.25q1.3.2 2.65.85m3.25 15.75 1.45.1 1.3.15q.35.25.25.65l-.4.55-.55.1-1.05.35-5.25.8q-.5 0-.9-.35t-.45-.8l-.05-.65.15-1.5q.15-.8.95-1 .8-.25 1.4.3.55.55.4 1.35zM34.1 27.05h-.2l-.75-.3q-.55-.3-.3-.8.05-.15.45-.35l1.1-.45.45-.1 2.45-.75.25-.05v-.3l.15-.4.15-.4.6-.25.1-.05h.1l.1.05h.05l.55.25.15.4.15.4v.3l.25.05 2.45.75.45.1 1.1.45q.4.2.45.35.25.5-.3.8l-.75.3h-.2l-.25.1-.55-.1h-.45l-.5-.15-1.75-.1h-2l-1.75.1-.5.15h-.45l-.55.1zm1.05-10.45q-2.5-.7-5.5-2.8l-1.9-1.65q-.75-.9-.8-1.7-.1-1.5 1.8-3.1 2.7-2.3 4.65-3.3 1.75-.8 3.4-.95l-.05.05q-.8 1.9-1.05 4.55l-.2 4.7.05 1.45q.1 1.15.85 2.7l.25.4zm-4.9 3.2 2.75.05q-.15-.8.4-1.35.6-.55 1.4-.3.8.2.95 1l.15 1.5-.05.65-.45.8-.9.35-5.25-.8-1.05-.35-.55-.1-.4-.55q-.1-.4.25-.65l1.3-.15z"/></g></svg>