<svg xmlns="http://www.w3.org/2000/svg" xmlns:ffdec="https://www.free-decompiler.com/flash" ffdec:objectType="shape" width="72.45" height="44.05"><path fill="#999" fill-rule="evenodd" d="m54.6 2.25.35-1h17.5v41.2h-17.1l.55-.65q.4-.6.3-1.3-.05-.8-.65-1.4-.65-.65-1.45-.7-.85-.05-1.5.5-.7.55-.85 1.35-.2.8.25 1.55l.6.65H42.5V39.4l4.95-14.2.15.6q.35.8 1.05 1.15 1.15.55 2.25-.2t.85-2.1l-.5-1.1q-.45-.5-1.05-.65l-1.55.15-.6.45L54.6 4.65v-2.4m13.3 25.3.6.35.65-.25.2-.35.05-.45-.1-.2-.1-.15-.65-.35-.05.05h-.1l-.25.1-.4.4q-.25.4.15.85m-8.7-1.85.15.05.2-.1.15-.1.1-.2v-.25q0-.4-.45-.4v.05h-.25l-.1.1-.1.15-.05.15-.05.1.05.15.1.15zm-1.75-6.85.45.6.05.05-.7.7q-.3.7.3.95l.6-.1.4-.35.65.75q.5.5.95.3.5-.25.4-.85l-.45-.9-.3-.4.3-.2.3-.3.1-.4-.35-.2-.45.1-.5.2-.4-.45q-.35-.35-.6-.4-.35-.1-.6.25-.3.25-.15.65m6.2.1.2.05.55-.1.15-.4-.1-.35-.35-.25q-.4 0-.55.25l-.1.2v.2zm-8.25-7.3q-.35.65-.15 1.45.2.75.75 1.25l2.6.1.85-1.05q.25-.65.1-1.3-.15-.7-.7-1.15-.55-.5-1.2-.55-1.6-.15-2.25 1.25m8.85-6.4L63.4 6.3l-.65-.55-1.05.05q-.55.4-.4.95l.6.65.45.25-.1.25q-.2.55.1.9.4.5.85.25l.45-.85.1-.1.55.2.5.15.45-.25.1-.5-.55-.55-.35-.2.55-.9.25-.5q.1-.4-.15-.55-.35-.2-.85.25m5.25 8.5q.4-.4.45-1t-.25-1.1l-.8-.65-1.05-.1q-.55.1-.9.55-.4.45-.45.95-.1 1.3 1 1.8 1.25.45 2-.45m.8-9.15-.2-.1q-.5-.25-.85.15-.25.25-.15.7l.2.45.7.1.2-.1.15-.2.1-.7-.1-.15zM53.95 35.05l-.2.15-.1.35.15.45.3.15.3-.05.4-.4-.2-.55zm-4.4 1.7-.45-.6-.05-.05.7-.7q.3-.7-.3-.95l-.6.1-.4.35-.65-.75q-.5-.5-.95-.3-.5.25-.4.85l.45.9.3.4-.3.2-.3.3q-.2.15-.1.4l.35.2.45-.1.5-.2.4.45.6.4.6-.25q.3-.25.15-.65M47.8 29.9l-.15-.05-.2.1-.15.1-.1.2v.25q0 .4.45.4v-.05h.25l.1-.1.1-.15.05-.15.05-.1-.05-.15-.1-.15zm9 2.8 1.55-.15q.8-.4 1.1-1.2.25-.75-.05-1.55-.35-.8-1.05-1.15-1.15-.55-2.25.2t-.85 2.1q.1.6.5 1.1.45.5 1.05.65m4 2.6q-.05.45.35.8L62 36l.2-.2.45.6 1.1-.05q.45-.25.55-1 .05-.6-.55-1.4l.5-.65.3-.7q-.1-.55-.65-.55l-.75.6-.25.35-.65-.45-.7-.25q-.45-.1-.7.25-.25.3-.05.75l.65 1.15q-.6.55-.65.85m9.15 3.3q.2-.65-.1-1.05-.3-.55-1-.65l-.85.15-.4.35q-.3.35-.2.85l.05.4q.35.95 1.25.85.9 0 1.25-.9M0 21.2l.1-.9q.05-.6.25-1l.6-1.05.25-.65.65-.05.1.25.1 1.75-.1.75.15 1.4.1.35.15.35.15.95.05.4-.3 1-.7 1.2-.3.55H1.1l.05-1.35-.2-.6-.35-.7-.2-.95zm13.05-2.45q.45-6.85 4.65-12.2L29.55 41.6l-1.05-.05-5.35-.05-1.25.3-.8.6-.95.05-.15.05-.25.1-.35.05h-1.05L13 42.6h-1.8q-.4.35-.95.35-.4.05-.8-.25l-.1-.1H3.9q-.65.3-1.05 0l-.15-.05-.15-.05-.05-.1-.15-.1-.05-.1-.05-.15-.05-.1-.1-.1v-.1l.05-.1v-.4l.1-.1v-.1l.1-.1v-.1l.1-.1.05-.1.1-.15.05-.1.05-.1.05-.1.1-.1V40l.05-.1v-.3l.1-.1.05-.1v-.1l.05-.1v-.05l.05-.45-.35-2.1-.55-2.25-.15-1.05q-.05-1.7 1.4-3.3l.55-.35.55.1.1.55-.05 1.4.3.85.65 2q2.55 2.05 2.8 6.05l1.15.05v-.05q.65-1.75-.3-4.55l-.9-2.25-.65-2.25q-.45-2.6.95-7.55l.2-.75.45-2.05.3-2.2-.45.7q-1.7 3.05-2.45 6.05l-.95 2.6-.5-.4-.3-.65-.75-1.05q-.45-.65-.65-1.9-.45-1.3-.4-2.35.05-1.45.7-3.25l1.9-4.05q1-1.95 1.4-3.5v-.15l.05-.75-.05-1.85L6.6 6.6q-.4-.5-.3-.8.15-.4.75-.3.3.05.65.45L9.3 7.8l.5.9.35 1.4.15.65.05.55q.35 1.15.35 2.55.75 1.45 1 3.2l.05 3.45.05 1.25v.15l-.15.95q-.05 1.85.6 3.6.65 1.95 2.05 3.4l.2-.35q.75-2.1-.65-5.8l-.7-2.4q-.2-.85-.1-2.55"/><path fill="#fff" fill-rule="evenodd" d="m27.6 1.25.35-.15.6.1.1.05.2.4v.6l.1.6v.35l.05.9.55 4.45L31.6 6.9q3.9-3.2 7.9-5.65l1.7-1 .6-.25q.5 0 .55.35.1.3-.4.7l-.25.2-10.4 8.4q4.15 1.95 7.55 4.65 1.05.85 1 1.55 0 .7-.7 1.15l-1.3.55q-1.95.7-3.6 1.95l1.4 2.6 1.85-.4.25-.3L44 14.45v-.05l2.15-3.7.5-1.2-.15-.35-.15-.65-.05-.5-1.75-4.3-.25-.85q0-.55.25-.8l.6-.15.45.1.15-.45.8-.1.3.4.75 1.75.15.25.2-.15 5.9-2.4.1-.05.65-.25v1.55l-.55.1-2.75 1-2.65.8-.5.2-.05.05 1.25 3.6.15 1.6q-.1 1-1.3 2.5l-2.25 2.95q-.3.4-.3.7l.1.45L47 19.45l.2-.05q.95-.1.95.4 0 .25-.5.45l-.3.15-.25.45-.6-.1-7.05 2.85.1.3.1.55.3.55.9 1.3 1.9 2.85.7 1.05.35.45.35.95-.1.55-.65-.15q-1-.7-1.8-1.85l-.5-.75-2.1-2.8-.75 1.35-1.15 1.6-.25.35-1.75 3.6-2.95 4.6 1.6 1.25 2.9 2.25.7.85q.35.65-.2 1.2-.5.5-1.15.4-.55-.05-1.05-.55l-.85-1-.05-.05-1.65-1.5-1.85-1.45-.15-.1-.4.7-.45-1.3.1-.15.4-.35.05-.15.15-.35 1.35-2.05L33 33.7l2.65-4.35L37 27.5l.1-.1.3-.75.25-1.7.05-.7-1.8.65-.9.3-8.65 2.85 2.65 5.9q.5.95.3 1.6l-.65.7-3.8-11.15q1.3-.65 3.25-1.15v-.65l-.05-3.95q-1.85.3-4.7 1.35l-.55-1.6.45-.2-.45-.55-.75-1.35-2.8-8.3.95 1.9q1-1.05 2.25-1.85l-.7-3.35-.2-1.35-.15-1.1q-.25-1.2-.1-1.5l.15-.2.95-.15.2.15.45 1.2.85 6.6-.05.45-.8.75q-.6.4-2.1 1.75l3.35 6.55 2.55-.7 1.45-.35.95.05q.35.25.25 1.2l-.05 2.2-.05 2.65 3.5-.85-1.25-2.15q-.75-1.1-.6-1.7.1-.6 1-1.1l4-2.3q-2.7-2.05-5.9-3.6-1.1-.5-1.45-.9-.8-.8-.3-1.6h.05l-.3-1.25-.1-1.1-.15-.9-.05-.45-.2-1.3-.05-1-.15-.35-.05-.7-.1-.4q0-.5.3-.7m27.75 41.2-.85.4-1.25-.05-.65-.35-.6-.65q-.45-.75-.25-1.55.15-.8.85-1.35.65-.55 1.5-.5.8.05 1.45.7.6.6.65 1.4.1.7-.3 1.3zm-13.7-.65-.1.6v.05l-.25.3-.55.1-.65-.2-.2-.2-.1-.1-.2-.5-.5-1.65-.35-1.6q-.1-.65.05-.95l.7-.55.35-.4 1.35-1.55.7-.7 1.15-.8.2-.05h.35q.3.2.1.55l-.3.35-.7.65q-1.2 1.1-2.2 2.5l-.1.25.05.2 1.1 3.1zM70.3 4.6l.05.15.1.15-.1.7-.15.2-.2.1-.7-.1-.2-.45q-.1-.45.15-.7.35-.4.85-.15zm-.8 9.15q-.75.9-2 .45-1.1-.5-1-1.8.05-.5.45-.95.35-.45.9-.55l1.05.1.8.65q.3.5.25 1.1t-.45 1m-5.25-8.5q.5-.45.85-.25.25.15.15.55l-.25.5-.55.9.35.2.55.55-.1.5-.45.25-.5-.15-.55-.2-.1.1-.45.85q-.45.25-.85-.25-.3-.35-.1-.9l.1-.25-.45-.25-.6-.65q-.15-.55.4-.95l1.05-.05.65.55zm-8.85 6.4q.65-1.4 2.25-1.25.65.05 1.2.55.55.45.7 1.15.15.65-.1 1.3l-.85 1.05-2.6-.1q-.55-.5-.75-1.25-.2-.8.15-1.45m8.25 7.3-.2-.4v-.2l.1-.2q.15-.25.55-.25l.35.25.1.35-.15.4-.55.1zm-6.2-.1q-.15-.4.15-.65.25-.35.6-.25.25.05.6.4l.4.45.5-.2.45-.1.35.2-.1.4-.3.3-.3.2.3.4.45.9q.1.6-.4.85-.45.2-.95-.3l-.65-.75-.4.35-.6.1q-.6-.25-.3-.95l.7-.7-.05-.05zm1.75 6.85-.25-.15-.1-.15-.05-.15.05-.1.05-.15.1-.15.1-.1h.25v-.05q.45 0 .45.4v.25l-.1.2-.15.1-.2.1zm8.7 1.85q-.4-.45-.15-.85l.4-.4.25-.1h.1l.05-.05.65.35.1.15.1.2-.05.45-.2.35-.65.25zM48.05 23.5l.6-.45 1.55-.15q.6.15 1.05.65l.5 1.1q.25 1.35-.85 2.1t-2.25.2q-.7-.35-1.05-1.15l-.15-.6zm-2.25-3.75-1.6-2.9-4.4 4.3zm11 12.95q-.6-.15-1.05-.65-.4-.5-.5-1.1-.25-1.35.85-2.1t2.25-.2q.7.35 1.05 1.15.3.8.05 1.55-.3.8-1.1 1.2zm-9-2.8.25.15.1.15.05.15-.05.1-.05.15-.1.15-.1.1h-.25v.05q-.45 0-.45-.4v-.25l.1-.2.15-.1.2-.1zm1.75 6.85q.15.4-.15.65l-.6.25-.6-.4-.4-.45-.5.2-.45.1-.35-.2q-.1-.25.1-.4l.3-.3.3-.2-.3-.4-.45-.9q-.1-.6.4-.85.45-.2.95.3l.65.75.4-.35.6-.1q.6.25.3.95l-.7.7.05.05zm4.4-1.7.65.1.2.55-.4.4-.3.05-.3-.15-.15-.45.1-.35zm16 3.55q-.35.9-1.25.9-.9.1-1.25-.85l-.05-.4q-.1-.5.2-.85l.4-.35.85-.15q.7.1 1 .65.3.4.1 1.05m-9.15-3.3q.05-.3.65-.85l-.65-1.15q-.2-.45.05-.75.25-.35.7-.25l.7.25.65.45.25-.35.75-.6q.55 0 .65.55l-.3.7-.5.65q.6.8.55 1.4-.1.75-.55 1l-1.1.05-.45-.6-.2.2-.85.1q-.4-.35-.35-.8"/><path fill-rule="evenodd" d="M22.6 1.25h5q-.3.2-.3.7l.1.4.05.7.15.35.05 1 .2 1.3.05.45.15.9.1 1.1.3 1.25h-.05q-.5.8.3 1.6.35.4 1.45.9 3.2 1.55 5.9 3.6l-4 2.3q-.9.5-1 1.1-.15.6.6 1.7l1.25 2.15-3.5.85.05-2.65.05-2.2q.1-.95-.25-1.2l-.95-.05-1.45.35-2.55.7L20.95 12q1.5-1.35 2.1-1.75l.8-.75.05-.45-.85-6.6zm6.05 0H39.5q-4 2.45-7.9 5.65l-2.05 1.65L29 4.1l-.05-.9v-.35l-.1-.6v-.6zm13.05 0h12.25l-.1.05-5.9 2.4-.2.15-.15-.25-.75-1.75-.3-.4-.8.1-.15.45-.45-.1-.6.15q-.25.25-.25.8l.25.85L46.3 8l.05.5.15.65.15.35-.5 1.2L44 14.4v.05l-6.25 6.95-.25.3-1.85.4-1.4-2.6q1.65-1.25 3.6-1.95l1.3-.55q.7-.45.7-1.15.05-.7-1-1.55-3.4-2.7-7.55-4.65zm.8 38.15-.85 2.4-.1-.6-1.1-3.1-.05-.2.1-.25q1-1.4 2.2-2.5l.7-.65.3-.35q.2-.35-.1-.55h-.35l-.2.05-1.15.8-.7.7-1.35 1.55-.35.4-.7.55q-.15.3-.05.95l.35 1.6.5 1.65.2.5.1.1h-2.55l-.7-.85-2.9-2.25-1.6-1.25 2.95-4.6 1.75-3.6.25-.35 1.15-1.6.75-1.35 2.1 2.8.5.75q.8 1.15 1.8 1.85l.65.15.1-.55-.35-.95-.35-.45-.7-1.05-1.9-2.85-.9-1.3-.3-.55-.1-.55-.1-.3 7.05-2.85.6.1.25-.45.3-.15q.5-.2.5-.45 0-.5-.95-.4l-.2.05-1.25-2.95-.1-.45q0-.3.3-.7l2.25-2.95q1.2-1.5 1.3-2.5l-.15-1.6-1.25-3.6.05-.05.5-.2 2.65-.8 2.75-1 .55-.1v2.1L48.05 23.5l-.6 1.7zm-8.45 3.05H30.8L30 40.1l.4-.7.15.1 1.85 1.45zm-4.5-3.65-.9-2.55.65-.7q.2-.65-.3-1.6l-2.65-5.9L35 25.2l.9-.3 1.8-.65-.05.7-.25 1.7-.3.75-.1.1-1.35 1.85L33 33.7l-1.4 2.05-1.35 2.05-.15.35-.05.15-.4.35zm-4.7-13.7-1.5-4.4q2.85-1.05 4.7-1.35l.05 3.95v.65q-1.95.5-3.25 1.15m-2.05-6-.75-2.1.75 1.35.45.55zM19.25 8.7 17.2 2.8V1.25h4.25l-.15.2q-.15.3.1 1.5l.15 1.1.2 1.35.7 3.35q-1.25.8-2.25 1.85zM45.8 19.75l-6 1.4 4.4-4.3z"/><path ffdec:has-small-stroke="true" ffdec:original-stroke-width=".1" fill="none" stroke="#999" stroke-linecap="round" stroke-linejoin="round" d="M52.6 42.45H42.5"/><path fill-rule="evenodd" d="M17.25.85v.1l.05.1.05.1.05.1v.1l.05.15.05.1.05.1v.1l.05.1.05.1.05.15v.1l.05.1.05.1.05.15v.1l.05.1.05.1V3l.05.1.05.15.05.1v.1l.1.05v.1l.05.1.05.05.05.15V4l.05.15.05.1v.1l.05.1.05.15.05.05v.1l.05.1.05.15.05.1.05.15v.1l.05.1.05.05v.15l.05.1v.05h.1v.05l.05.1v.1l.05.1.05.15.05.05.05.15v.1l.05.1.05.1v.15l.05.1.05.15.05.05v.1l.05.1.05.15.1.1.05.15v.1l.05.1.05.05v.15l.05.1.05.1v.1l.05.15.05.1.05.15.05.05v.1l.05.1.05.15.05.1v.15l.05.1.05.1v.1l.05.1.05.1.05.15.05.1v.1l.05.1.05.15v.1l.05.1.05.1.05.1v.1l.05.15.05.1.05.15.05.1v.05l.05.1.05.15v.1l.05.1.05.1v.25l.05.1.05.1.05.1v.1l.05.15.05.1.05.15v.1l.05.05.05.1.05.15v.1l.05.15.05.1.05.1v.1l.05.1.05.1.05.15v.1l.05.1.05.1.05.15v.1l.05.1.05.1.05.1v.1l.05.15.05.1.05.1v.1l.05.1.05.1.05.15v.1l.05.1.05.1.05.15v.1l.05.1.05.1.05.1v.1l.05.15.05.1.05.15v.1l.05.1.05.05.05.15v.1l.05.15.05.1v.1l.05.1.05.15.05.05v.1l.05.1.05.15.05.1.05.15v.1l.05.1.05.05v.15l.05.1.05.15.05.1v.1l.05.1.05.15.05.05.05.15v.1l.05.1.05.1v.15l.05.1.05.15.05.05v.1l.05.1.05.15.05.1.05.15v.1l.05.1.05.05v.15l.05.1.05.1v.1l.05.15.05.1.05.15.05.05v.1l.05.1.05.15.05.1v.15l.05.1.05.1v.1l.05.1.05.1.05.15.05.1v.1l.05.1.05.15.05.1v.1l.05.1.05.1v.1l.05.15.05.1.05.15.05.1v.05l.05.1.05.15v.1l.05.1.05.1.05.15v.1l.05.1.05.1.05.1v.1l.05.15.05.1.05.15v.1l.05.05.05.1.05.15v.1l.05.15.05.1.05.1v.1l.05.1.05.1.05.15v.1l.05.1.05.1.05.15v.1l.05.05.05.1.05.15v.1l.05.15.05.1.05.1v.1l.05.1.05.1.05.15v.1l.05.1.05.1.05.15v.1l.05.1.05.1.05.1v.1l.05.15.05.1.05.15v.1l.05.1.05.05.05.15v.1l.05.15.05.1.05.1v.1l.05.15.05.05v.1l.05.1.05.15.05.1.05.15v.1l.05.1.05.05v.15l.05.1.05.15.05.1v.1l.05.1.05.15.05.05.05.15v.1l.05.1.05.1v.15l.05.1.05.15.05.05v.1l.05.1.05.15.05.1.05.15v.1l.05.1.05.05v.15l.05.1.05.1v.1l.05.15.05.1.05.15.05.05v.1l.05.1.05.15.05.1v.15l.05.1.05.1v.1l.05.1.05.1.05.15.05.1v.1l.05.1.05.15.05.1v.1l.05.1.05.1v.1l.05.15.05.1.05.1v.1l.05.1.05.1.05.15.05.1v.1l.05.1.05.15v.1l.05.1.05.1.05.1v.1l.05.15.05.1.05.15v.1l.05.05.05.1.05.15v.1l.05.15.05.1.05.1h-3.1l-.05-.15v-.1l-.05-.1-.05-.1-.05-.15v-.1l-.05-.05-.05-.1-.05-.15v-.1l-.05-.15-.05-.1v-.1l-.05-.1-.05-.1-.05-.1-.05-.15v-.1l-.05-.1-.05-.1-.05-.15v-.1l-.05-.1-.05-.1v-.1l-.05-.1-.05-.15-.05-.1-.05-.15v-.1l-.05-.05-.05-.1-.05-.15v-.1l-.05-.15-.05-.1v-.1l-.05-.1-.05-.1-.05-.1v-.1l-.05-.1-.05-.15-.05-.1-.05-.15v-.1l-.05-.05v-.1l-.05-.15-.05-.1-.05-.15-.05-.1v-.1l-.05-.1-.05-.1-.05-.1-.05-.15v-.1l-.05-.1v-.1l-.05-.15-.05-.1-.05-.1-.05-.1v-.1l-.05-.1-.05-.15-.05-.1v-.1l-.05-.1-.05-.15v-.05l-.05-.15-.05-.1-.05-.1v-.1l-.05-.15-.05-.1-.05-.1-.05-.1v-.1l-.05-.1-.05-.15v-.1l-.05-.15-.05-.1-.05-.1v-.05L25.2 33l-.05-.1-.05-.15-.05-.1v-.1l-.05-.1-.05-.15v-.05l-.05-.15-.05-.1-.05-.1v-.1l-.05-.15-.05-.1-.05-.1v-.05l-.05-.15-.05-.1-.05-.15v-.1l-.05-.1-.05-.1-.05-.15v-.05l-.05-.15-.05-.1-.05-.1v-.1l-.05-.15-.05-.1-.05-.15v-.05l-.05-.1-.05-.1-.05-.15v-.1l-.05-.15-.05-.1-.05-.1v-.1l-.05-.1-.05-.1-.05-.15v-.1l-.05-.1-.05-.1-.05-.15v-.1l-.05-.05-.05-.1-.05-.15v-.1l-.05-.15-.05-.1v-.1l-.05-.1-.05-.1-.05-.1-.05-.15v-.1l-.05-.1-.05-.1-.05-.15v-.1l-.05-.1-.05-.1v-.1l-.05-.1-.05-.15-.05-.1-.05-.15v-.1l-.05-.05-.05-.1-.05-.15v-.1l-.05-.1v-.1l-.05-.15-.05-.1-.05-.1-.05-.1V24l-.05-.1-.05-.15-.05-.1-.05-.15v-.1l-.05-.05v-.1l-.05-.15-.05-.1-.05-.15-.05-.1v-.1l-.05-.1-.05-.1-.05-.1-.05-.15v-.1l-.05-.1v-.1l-.05-.15-.05-.1-.05-.1-.05-.1v-.1l-.05-.1-.05-.15-.05-.1v-.1l-.05-.1-.05-.15v-.05l-.05-.15-.05-.1-.05-.1v-.1L20.8 20l-.05-.1-.05-.1-.05-.1v-.1l-.05-.1-.05-.15v-.1l-.05-.15-.05-.1-.05-.1v-.05l-.05-.15-.05-.1-.05-.15-.05-.1v-.1l-.05-.1-.05-.15v-.05l-.05-.15-.05-.1-.05-.1v-.1l-.05-.15-.05-.1-.05-.1v-.05l-.05-.15-.05-.1-.05-.15v-.1l-.05-.1-.05-.1-.05-.15v-.05l-.05-.15-.05-.1-.05-.1v-.1l-.05-.15-.05-.1-.05-.15v-.05l-.05-.1-.05-.1-.05-.15v-.1L19 14.7l-.05-.1-.05-.1v-.1l-.05-.1-.05-.1-.05-.15v-.1l-.05-.1-.05-.1-.05-.15v-.05l-.05-.1-.1-.1-.05-.15v-.1l-.05-.15-.05-.1v-.1l-.05-.1-.05-.1-.05-.1-.05-.15v-.1l-.05-.1L18 12l-.05-.15v-.1l-.05-.1-.05-.1v-.1l-.05-.1-.05-.15-.05-.1-.05-.15v-.1l-.05-.05-.05-.1-.05-.15v-.1l-.05-.1v-.1l-.05-.15-.05-.1-.05-.1-.05-.1v-.1l-.05-.1-.05-.15-.05-.1-.05-.15v-.1L17 9.05v-.1l-.05-.15-.05-.1-.05-.1.05-.05-.05-.1v-.1l-.05-.1-.05-.1-.05-.1-.05-.15v-.1l-.05-.1v-.1l-.05-.15-.05-.1-.05-.1-.05-.1v-.1l-.05-.1-.05-.15-.05-.1v-.1l-.05-.1-.05-.1v-.1l-.05-.15-.05-.1v-.2L16 5.7l-.05-.1-.05-.1-.05-.1v-.1l-.05-.1-.05-.15v-.1l-.05-.15-.05-.1-.05-.1v-.05l-.05-.15-.05-.1-.05-.15-.05-.1v-.1l-.05-.1-.05-.15v-.05l-.05-.15-.05-.1-.05-.1v-.1l-.05-.15-.05-.1-.05-.1V2.8l-.05-.15-.05-.1-.05-.15v-.1l-.05-.1-.05-.1-.05-.15V1.9l-.05-.15-.05-.1-.05-.1v-.1l-.05-.15-.05-.1-.05-.15V1l-.05-.1V.75h2.9zm36.1 0 .05-.1h2.85V.9l-.05.1v.05l-.05.15-.05.1-.05.15v.1l-.05.1-.05.1-.05.15v.05l-.05.15-.05.1-.05.1v.1l-.05.15-.05.1-.05.15v.05l-.05.1-.05.1-.05.15v.1l-.05.1-.05.1-.05.15v.05l-.05.15-.05.1v.1l-.05.1-.05.15-.05.1-.05.15v.05l-.05.1-.05.1-.05.15v.1l-.05.15-.05.1v.1l-.05.1-.05.1-.05.1-.05.15v.2l-.05.1-.05.15v.1l-.05.1-.05.1v.1l-.05.1-.05.15-.05.1v.1l-.05.1-.05.1-.05.1-.05.15v.1l-.05.1v.1l-.05.15-.05.1-.05.1-.05.1v.1l-.05.1.05.05-.05.1-.05.1-.05.15v.1l-.05.05v.1l-.05.15-.05.1-.05.15-.05.1v.1l-.05.1-.05.1-.05.1-.05.15v.1l-.05.1v.1l-.05.15-.05.1-.05.05v.1l-.05.15-.05.1-.05.15-.05.1v.1l-.05.1-.05.1v.1l-.05.15-.05.1-.05.1v.1l-.05.15-.05.1-.05.1-.05.1v.1l-.05.1-.05.15v.1l-.05.15-.1.1-.05.1v.05l-.05.15-.05.1-.05.1v.1l-.05.15-.05.1-.05.1v.1l-.05.1-.05.1-.05.15v.1l-.05.15-.05.1-.05.1v.05l-.05.15-.05.1-.05.15v.1l-.05.1-.05.1-.05.15v.05l-.05.15-.05.1-.05.1v.1l-.05.15-.05.1-.05.15v.05l-.05.1-.05.1-.05.15v.1l-.05.1-.05.1-.05.15V18l-.05.15-.05.1v.1l-.05.1-.05.15-.05.1-.05.15v.05l-.05.1-.05.1-.05.15v.1l-.05.15-.05.1v.1l-.05.1-.05.1-.05.1-.05.15v.1l-.05.1-.05.1-.05.15v.05l-.05.15-.05.1v.1l-.05.1-.05.15-.05.1v.1l-.05.1-.05.1-.05.1-.05.15v.1l-.05.1v.1l-.05.15-.05.1-.05.1-.05.1v.1l-.05.1-.05.15-.05.1-.05.15v.1l-.05.05v.1l-.05.15-.05.1-.05.15-.05.1v.1l-.05.1-.05.1-.05.1-.05.15v.1l-.05.1v.1l-.05.15-.05.1-.05.05v.1l-.05.15-.05.1-.05.15-.05.1v.1l-.05.1-.05.1v.1l-.05.15-.05.1-.05.1v.1l-.05.15-.05.1-.05.1-.05.1v.1l-.05.1-.05.15v.1l-.05.15-.05.1-.05.05v.1l-.05.15-.05.1-.05.1v.1l-.05.15-.05.1-.05.1v.1l-.05.1-.05.1-.05.15v.1l-.05.15-.05.1-.05.1v.05l-.05.15-.05.1-.05.15v.1l-.05.1-.05.1-.05.15v.05l-.05.15-.05.1-.05.1v.1l-.05.15-.05.1-.05.15v.05l-.05.1-.05.1-.05.15v.1l-.05.1-.05.1-.05.15v.05l-.05.15-.05.1v.1l-.05.1-.05.15-.05.1-.05.15v.05l-.05.1-.05.1-.05.15v.1l-.05.15-.05.1v.1l-.05.1-.05.1-.05.1-.05.15v.1l-.05.1-.05.1-.05.15v.05l-.05.15-.05.1v.1l-.05.1-.05.15-.05.1v.1l-.05.1-.05.1-.05.1-.05.15v.1l-.05.1v.1l-.05.15-.05.1-.05.1-.05.1v.1l-.05.1-.05.15-.05.1-.05.15v.1l-.05.05v.1l-.05.15-.05.1-.05.15-.05.1v.1l-.05.1-.05.1-.05.1v.1l-.05.1-.05.15v.1l-.05.15-.05.1-.05.05v.1l-.05.15-.05.1-.05.15-.05.1v.1l-.05.1-.05.1v.1l-.05.15-.05.1-.05.1v.1l-.05.15-.05.1-.05.1-.05.1v.1l-.05.1-.05.15v.1l-.05.15-.05.1-.05.05v.1l-.05.15-.05.1-.05.1v.1l-.05.15H39l.05-.1.05-.1.05-.15v-.1l.05-.15.05-.1.05-.05v-.1l.05-.15.05-.1.05-.15v-.1l.05-.1.05-.1.05-.1v-.1l.05-.15.05-.1v-.1l.05-.1.05-.15.05-.1.05-.1v-.1l.05-.1.05-.1.05-.15v-.1l.05-.1.05-.1v-.1l.05-.1.05-.15.05-.1v-.1l.05-.1.05-.15.05-.1.05-.1v-.1l.05-.1.05-.1v-.15l.05-.1.05-.15.05-.1v-.1l.05-.05.05-.15.05-.1.05-.15v-.1l.05-.1.05-.1v-.15l.05-.05.05-.1v-.1l.05-.15.05-.1.05-.15.05-.1v-.1l.05-.05.05-.15.05-.1v-.15l.05-.1.05-.1v-.1l.05-.15.05-.05.05-.15.05-.1v-.1l.05-.1.05-.15.05-.1v-.15L42 34l.05-.1v-.1l.05-.15.05-.1.05-.15.05-.1v-.1l.05-.05.05-.15v-.1l.05-.1.05-.1.05-.15v-.1l.05-.15.05-.05.05-.1v-.1l.05-.15.05-.1.05-.15v-.1l.05-.1.05-.1.05-.1v-.1L43 31l.05-.1.05-.1v-.1l.05-.15.05-.1.05-.1v-.1l.05-.1.05-.1.05-.15v-.1l.05-.15.05-.1.05-.05v-.1l.05-.15.05-.1.05-.1v-.1l.05-.15.05-.1.05-.1v-.1l.05-.1.05-.1.05-.15v-.1l.05-.15.05-.1.05-.05v-.1l.05-.15.05-.1.05-.15v-.1l.05-.1.05-.1.05-.1v-.1l.05-.15.05-.1.05-.1v-.1l.05-.15.05-.1V26l.05-.1.05-.15.05-.1.05-.15v-.1l.05-.1.05-.1v-.1l.05-.1.05-.15.05-.1v-.1l.05-.1.05-.15.05-.1.05-.1v-.1l.05-.1.05-.1v-.15l.05-.1.05-.15.05-.1v-.1l.05-.05.05-.15.05-.1.05-.15v-.1l.05-.1.05-.1v-.15l.05-.05.05-.1v-.1l.05-.15.05-.1.05-.15.05-.1v-.1l.05-.05.05-.15.05-.1v-.15l.05-.1.05-.1v-.1l.05-.15.05-.05.05-.15.05-.1v-.1l.05-.1.05-.15.05-.1v-.15l.05-.05.05-.1v-.1l.05-.15.05-.1.05-.15.05-.1v-.1l.05-.05.05-.15.05-.1v-.1l.05-.1.05-.15v-.1l.05-.15.05-.05.05-.1v-.1l.05-.15.05-.1.05-.15v-.1l.05-.1.05-.1.05-.1v-.1l.05-.15.05-.1.05-.1v-.1l.05-.15.05-.1.05-.1v-.1l.05-.1.05-.1.05-.15v-.1l.05-.1.05-.1.05-.1v-.1l.05-.15.05-.1.05-.1v-.1l.05-.15.05-.1.05-.1v-.1l.05-.1.05-.1.05-.15v-.1l.05-.15.05-.1.05-.05v-.1l.05-.15.05-.1.05-.15v-.1l.05-.1.05-.1.05-.1v-.25l.05-.1.05-.1V12l.05-.15.05-.1v-.05l.05-.1.05-.15.05-.1.05-.15v-.1l.05-.1.05-.1.05-.1v-.1l.05-.15.05-.1v-.1l.05-.1.05-.15.05-.1.05-.1v-.1l.05-.1.05-.1v-.15l.05-.1.05-.15.05-.1V9l.05-.05.05-.15.05-.1.05-.15v-.1l.05-.1.05-.1V8.1l.05-.05.05-.1v-.1l.05-.15.1-.1.05-.15.05-.1v-.1l.05-.05.05-.15.05-.1V6.8l.05-.1.05-.1v-.1l.05-.15.05-.05.05-.15.05-.1v-.1l.05-.1V5.8h.1v-.05l.05-.1V5.5l.05-.05.05-.1v-.1l.05-.15.05-.1.05-.15.05-.1v-.1l.05-.05.05-.15.05-.1v-.1l.05-.1.05-.15v-.1l.05-.15.05-.05.05-.1v-.1l.1-.05v-.1l.05-.1.05-.15.05-.1v-.1l.05-.1.05-.1v-.1l.05-.15.05-.1.05-.1v-.1l.05-.15.05-.1.05-.1v-.1l.05-.1.05-.1.05-.15v-.1l.05-.1.05-.1.05-.1zm9.2 19.35q1.05.35 2.5 1.25l1.55 1.35q1.1 1.35 1.1 4.25l-.3 2.25q-.4 1.55-1.65 2.8-1.2 1.2-2.85 1.7l-1.95.3q-3.2.25-5.2-.9-1.5-.85-2.35-2.55-.8-1.6-.85-3.45-.1-2.25.85-3.9.7-1.1 1.95-2.1 1.1-.95 2.15-1.2l1.75-.15zm.1 5.7.45-.45.15-.1h.1L64 25v-.3l-.15-.4-.4-.3-.5-.2v.05l-.45.15-.05.25h-.15q-.35.1-.8.6l-.5.45V24l.05-.1v-.35l-.05-.1-.05-.1v-.15h.25l.8-.2q.45-.3.1-.75-.2-.35-1-.35l-.85.05-.95-.05q-.8 0-.95.35-.35.45.05.75l.8.2h.3v.15l-.05.1-.1.1v.35l.1.1v1.3l-.55-.45-.8-.6H58l-.05-.25-.45-.15v-.05l-.55.2-.4.3-.1.4v.3q.15.35.6.35h.15l.1.1.65.55h-.2v-.1H56.1l-.1-.4-.5-.25-.45.4-.1.6v1.25l.1.6.45.4.5-.25.1-.45h1.65v-.05h.2q-.55.3-.65.55l-.1.1h-.15q-.45 0-.6.35v.3l.1.4.65.4.3.1v-.05l.45-.2.05-.2h.1l.8-.6.55-.45v1.25l-.1.15v.35l.1.1.05.1v.15h-.3l-.8.2q-.4.3-.05.75.15.35.95.35l.95-.05.85.05q.8 0 1-.35.35-.45-.1-.75l-.8-.2h-.25v-.15l.05-.1.05-.1v-.35L61 29.7v-1.25l.5.45q.45.5.8.6h.15l.05.2q.2.25.45.2v.05l.9-.5.15-.4v-.3l-.65-.35h-.1l-.15-.1-.6-.55h.15v.05h1.65l.15.45.45.25.45-.4.15-.6.05-.65-.05-.6-.15-.6-.45-.4q-.35.1-.45.25-.15.15-.15.4h-1.65v.1h-.15zM32.4 18.95q-.75-.1-1-.75t.25-1.2l.35-.3 1.15-1.3 1-1.05 1.55-1.65.7-.55q.6-.2.75.3l-.1.55-.05.45-.85 2.4 1.4-.25q.4.05.7.35l.15.05q.7.4.6 1.1l-.3.85-1.75 2.95-.9 1.7-.4.25-.45.05-.3-.4V22l.15-.85.25-1.15.15-.3.05-.8v-.2l-1.1.15-1.3.2-.35-.1zM12.55 20.2q1.05.35 2.5 1.25l1.55 1.35q1.1 1.35 1.1 4.25l-.3 2.25q-.4 1.55-1.65 2.8-1.2 1.2-2.85 1.7l-1.95.3q-3.2.25-5.2-.9-1.5-.85-2.35-2.55-.8-1.6-.85-3.45-.1-2.25.85-3.9.7-1.1 1.95-2.1 1.1-.95 2.15-1.2l1.75-.15zM6.9 26.75l-.45.6q-.25.35-.25.7-.1 1 .55 2.1l.5.7q.95 1.05 2.55.95 1.45 0 2.5-.95.85-.8.85-1.65l-.1-.75-.25-1q-.55-1.65-2.55-2.7l-.75-.35-.35-.65.25-.5.25-.4-.05-.4-.15-.45-.55-.15q.3.4.2.55l-.25.2-.15.05q-.4.2-.5.8l-.1.7q.05.7.5 1.25l.95.85.45.55v.3l-.1.3-.25.15-.6-.2L9 27.3l.05-.1.15-.55q0-.4-.5-.7-.2-.15-.85-.35l-.05.1.1.15-.1.3q-.45.1-.9.6m6.25-2q-.3 0-.4.35l-.05.85q.05.55.6 1.15l.25.4-.1.35q-.05.2.05.3l.4.15.4-.25q.4-.35.3-.75l-.6-1.05q-.65-.65-.65-1.05z"/><path fill="#fff" fill-rule="evenodd" d="M62.65 25.9h1.65q0-.25.15-.4.1-.15.45-.25l.45.4.15.6.05.6-.05.65-.15.6-.45.4-.45-.25-.15-.45h-1.65v-.05h-.15l.6.55.15.1h.1l.65.35v.3l-.15.4-.9.5v-.05q-.25.05-.45-.2l-.05-.2h-.15q-.35-.1-.8-.6l-.5-.45v1.25l.05.15v.35l-.05.1-.05.1v.15h.25l.8.2q.45.3.1.75-.2.35-1 .35l-.85-.05-.95.05q-.8 0-.95-.35-.35-.45.05-.75l.8-.2h.3v-.15l-.05-.1-.1-.1v-.35l.1-.15v-1.25l-.55.45-.8.6H58l-.05.2-.45.2v.05l-.3-.1-.65-.4-.1-.4v-.3q.15-.35.6-.35h.15l.1-.1q.1-.25.65-.55h-.2v.05H56.1l-.1.45-.5.25-.45-.4-.1-.6v-1.25l.1-.6.45-.4.5.25.1.4h1.65v.1h.2l-.65-.55-.1-.1h-.15q-.45 0-.6-.35v-.3l.1-.4.4-.3.55-.2v.05l.45.15.05.25h.1l.8.6.55.45V24l-.1-.1v-.35l.1-.1.05-.1v-.15h-.3l-.8-.2q-.4-.3-.05-.75.15-.35.95-.35l.95.05.85-.05q.8 0 1 .35.35.45-.1.75l-.8.2h-.25v.15l.05.1.05.1v.35L61 24v1.3l.5-.45q.45-.5.8-.6h.15l.05-.25.45-.15v-.05l.5.2.4.3.15.4v.3l-.65.35h-.1l-.15.1zl-.15.1h.15zm-49.5-1.15.2.45q0 .4.65 1.05l.6 1.05q.1.4-.3.75l-.4.25-.4-.15q-.1-.1-.05-.3l.1-.35-.25-.4q-.55-.6-.6-1.15l.05-.85q.1-.35.4-.35m-6.25 2q.45-.5.9-.6l.1-.3-.1-.15.05-.1q.65.2.85.35.5.3.5.7l-.15.55-.05.1.05.05.6.2.25-.15.1-.3v-.3l-.45-.55-.95-.85q-.45-.55-.5-1.25l.1-.7q.1-.6.5-.8l.15-.05.25-.2q.1-.15-.2-.55l.55.15.15.45.05.4-.25.4-.25.5.35.65.75.35q2 1.05 2.55 2.7l.25 1 .1.75q0 .85-.85 1.65-1.05.95-2.5.95-1.6.1-2.55-.95l-.5-.7q-.65-1.1-.55-2.1 0-.35.25-.7z"/><path fill="#999" fill-rule="evenodd" d="M37.55 11.2q1.05.35 2.5 1.25l1.55 1.35q1.1 1.35 1.1 4.25l-.3 2.25q-.4 1.55-1.65 2.8-1.2 1.2-2.85 1.7l-1.95.3q-3.2.25-5.2-.9-1.5-.85-2.35-2.55-.8-1.6-.85-3.45-.1-2.25.85-3.9.7-1.1 1.95-2.1 1.1-.95 2.15-1.2l1.75-.15zm-5.15 7.75h.35l.35.1 1.3-.2 1.1-.15v.2l-.05.8-.15.3-.25 1.15-.15.85v.5l.3.4.45-.05.4-.25.9-1.7 1.75-2.95.3-.85q.1-.7-.6-1.1l-.15-.05q-.3-.3-.7-.35l-1.4.25.85-2.4.05-.45.1-.55q-.15-.5-.75-.3l-.7.55-1.55 1.65-1 1.05L32 16.7l-.35.3q-.5.55-.25 1.2t1 .75"/></svg>