<svg xmlns="http://www.w3.org/2000/svg" xmlns:ffdec="https://www.free-decompiler.com/flash" ffdec:objectType="shape" width="75.7" height="44.1"><g fill-rule="evenodd"><path d="M56.2 20.3q1.45.5 2.45 1.65 1.2 1.45 1.05 3.1-.1.85-.6 1.55l-.05.1.15.05.15.05.1.05.15.1.15.05.1.05.1.05.1.1.1.05.05.05.1.05.1.1.05.05.1.05.05.05.1.1.05.05.1.05.1.05.1.1.1.1.05.1.1.05.05.05.05.05.05.1v.05l.1.05.05.05v.1l.1.05.05.05.05.05.05.1.15.15.05.1.05.05v.05l.05.05.05.1v.05l.05.05v.05l.05.1.05.05v.05l.05.05.05.1.05.05V30l.05.05v.1l.05.05v.1l.05.1v.05l.05.05.05.05v.1l.05.05v.05l.05.1v.05l.05.05v.2l.05.05v.05l.05.1v.1l.05.05v.15l.05.05v.15l.05.05v.3l.05.05v.4l.05.05v2.75l.4.5 1.3 2.2.75 1.4.6 1.4q.2.8-.1 1.55-.3.8-.95 1.2-.65.45-1.5.4-.8 0-1.45-.5-.5-.35-1.05-1.55h-.05l-.05.1-.1.05-.1.05-.15.05-.1.1-.15.05-.15.05-.15.05h-.05l-.15.05h-.1l-.3.05-.35-.05h-.1l-.1-.05h-.6l-.6-.05h-.05l-1.8.05H37.5l-1.1.05h-1.65l-1.1.05h-12.2l-.3-.05H21l-.1-.05h-.1l-.15-.05-.15-.05-.15-.05-.1-.1h-.1q-.8.75-1.35.8-.45 0-.85-.4-.35-.35-.45-.85-.1-.75.35-1.9l.5-1q-1.35-.5-2.5-1.6-1.2-1.15-1.85-2.75-1.15-3-.25-6.55.75-3 2.95-5.9l2.2-2.75-.65-.25Q15.65 18 14.7 15.6q-1.1-2.65.35-4.95.85-1.4 2.95-2.6 1.15-.65 2.85-1.25.25-1.3 1-2.2.9-1 2.65-1.8 1.8-.8 3.2-1l3.2-.05 3.65-.7 3.7-.15 3.75.25q3.45.1 4.75.9 1.8 1.1 2.8 3.95L50 8.3l-.4 1.45q2.1 2.4 3.6 5.8 1.1 2.5 1.2 4.45zm-15.55-4.35h.15q.95.1 1.4.75.3.45.4 1.15l.3 1.2.2 1.45v1.55l.15.95q-.05.9-1.15 1.8l-2.7 1.7-1.5.65-2.1.2q-1.3-.25-3.05-2.3-1-1.35-1-2l.2-1.2.55-1.75.5-1.25 1.35-1.05q1.7-1 4.35-1.6l.45-.1zm-16.6 2.6-1.65 2.5-2.65 3.5q-1.85 2.45-2.3 4.7l-.1.95.15 1.65q.35 1.4 1.25 2.25l2.2 1.55q1.1-1 2.2-1.45h.05v-.35l.05-1.5.05-.4q.15-1.7 1.6-4.2l2.2-3.95.4-1.05.2-2.5q0-.55.15-.75l.6-.45.5.4.1.7q.05 2.85-2 7.65l-.5 1.3-.45 1.85q-.2 1.3-.05 2.6l.35-.05 3.8-.25 1.5.1 1.5.05q2-.15 4.1-1.4 1.5-.9 3.6-2.75l4.7-4.15q2.75-2.4 5-3.75l.9-.5-.15-.55q-1.4-4.85-4.25-7.75l-1.25-1.15q-3.5 2.3-7.55 2.95L31.05 14l-.75-.25-.6-.2L28.4 15q-1.05.9-2.5 1.35-.75.25-.9.4l-.35.6zM34.9 22.7l1.15 1.3.5.25q.45.15 1-.25l1.1-.55 1.1-.6.35-.25.65-.5.2-.65L41 21l-.15-.75-.55-1.35-1.45.4-.35.05-2.85 1.15-.25.15-.1.25-.2.9-.2.45-.05.25z"/><path fill="#717171" d="m21.15 1.05.2.05h.1l.1.05.15.05.1.05.1.1.05.05.1.05.05.05.05.1v.05l.05.05v.05l.05.1.05.05V2l.05.1v.3l-.05.05v.2l-.05.05v.05l-.05.1v.05l-.05.05v.1l-.05.05-.05.05-.05.05-.05.1-.1.05-.05.05-.1.05-.05.1-.05.05-.1.05-.05.05-.1.1-.05.05-.1.05-.1.05-.05.1-.1.05-.05.05-.1.05-.05.1-.1.05-.05.05-.05.05v.1l-.05.05-.05.05-.05.05v.1l-.1.05v.25l-.05.05v.05l-.05.1v.05l-.05.05v.1l-.05.05-.05.05-.05.05v.1l-.05.05-.05.05-.05.05-.05.1-.1.1-.05.05-.05.1-.1.05-.1.1-.15.1-.1.05-.1.05-.15.05-.15.05-.1.05h-.15l-.15.1-.1.05h-.1l-.1.1-.15.05-.15.05-.15.05h-.05l-.2.05-.1.1-.15.05-.1.05-.1.05-.15.1-.15.05-.1.05h-.1l-.1.05-.2.05-.15.05-.15.05-.15.05-.1.05-.1.1-.1.05-.1.05-.15.05-.1.1-.05.05-.05.05-.05.05-.1.1-.05.05-.1.1-.1.1-.05.05-.1.05-.05.05-.05.1-.15.15-.1.1-.15.15-.05.1-.05.05-.05.05-.05.05-.05.1v.05l-.1.05-.05.1-.1.1-.05.05-.05.1-.05.05-.05.05-.1.05-.05.1-.05.05v.05l-.05.05v.1l-.1.1v.05l-.05.1-.05.05v.05l-.05.05-.1.1v.05l-.05.05-.05.05v.15l-.05.05v.05l-.05.1-.05.05v.05l-.05.05-.05.1v.05l-.05.05v.05l-.05.1v.05l-.05.05v.1l-.05.05v.1l-.05.1v.1l-.05.05v.2l-.05.05v.15l-.05.05v.45l-.05.05v.05l-.05.1V14l-.05.05v.05l-.05.1v1.05l.05.05v.6l.05.05.05.05v.05l.05.1v.1l.05.05v.1l.05.05v.3l.05.05v.1l.05.05.05.05v.05l.05.1v.05l.05.05v.05l.05.1.05.05.05.05v.15l.05.05.05.05.05.1v.05l.05.05.05.05.1.1.05.05.05.05.05.05.05.1.05.05.05.05v.05l.05.1.05.05.15.05.05.05.1.1.1.05.1.05.1.05.05.1.1.05.05.05.1.05.05.1.05.05.1.05.1.05.05.1.05.05.1.05.05.05.05.1.05.05.05.05.1.05v.1l.05.05.05.05.05.1.1.1v.15l.05.05.05.05v.05l.05.1v.15l.05.1v.3l.05.05v.05l-.05.1v.3l-.05.05v.2l-.05.05v.05l-.05.1-.05.05v.1l-.05.1-.05.05-.05.05v.05l-.05.1-.05.05-.05.05-.05.1-.05.05-.05.05-.05.05v.1l-.05.05-.1.05v.05l-.05.1-.05.05-.05.05-.05.05-.05.1-.05.05-.05.05-.05.05-.05.1-.05.05v.05l-.05.05-.05.1-.05.05v.05l-.05.05-.05.1-.05.05-.1.05v.05l-.05.1-.05.05-.05.05-.05.05-.05.1-.05.05v.05l-.05.05-.05.1v.05l-.05.05v.05l-.05.1-.05.05-.05.05-.05.1-.1.1-.05.05v.1l-.05.05-.05.05v.05l-.05.1-.05.05v.05l-.05.05v.1l-.05.05-.05.05v.05l-.05.1-.05.05v.05l-.05.05v.1l-.05.05-.05.05v.15l-.05.05v.05l-.05.05v.15l-.05.05v.15l-.05.05v.05l-.05.05v.1l-.05.05-.05.05v.15l-.05.05v.15l-.05.05-.05.05v.2l-.05.05v.2l-.05.05v.05l-.05.1v.1l-.05.05v.1l-.05.05-.05.05v.15l-.05.05v.05l-.05.05v.2l-.05.05v.1l-.05.05v.2l-.05.05v.25l-.05.05v.1l-.05.05v.1l-.05.1-.05.05v.1l-.05.1v.25l-.05.05v.25l-.05.05v.3l-.05.1v.3l-.05.05v.7l.05.05v.45l.05.05v.2l.05.05v.1l.05.05v.2l.05.05v.05l.05.05v.1l.05.05v.05l.05.05v.1l.05.05v.05l.05.05.05.1.05.05.05.05.05.05.05.1.05.05.05.05.05.05.05.1.05.05.05.05.05.1v.05l.1.05.05.05v.1l.05.05.05.05.05.05.05.1.05.05.05.05.05.05.1.1.05.05.1.05.1.05.05.1.1.05.1.05.1.05.1.1.05.05.1.05.1.05.05.1.1.05.05.05.1.05.1.1.05.05.05.05.05.05.1.1.15.05.15.05.15.05.15.1.15.05.1.05.1.05.1.1.05.05.1.05.05.1.05.05.1.05.05.05.05.1.05.05v.05l.05.05.05.1.05.05.05.05.05.05.05.1.1.1v.05l.05.1.05.05v.1l.05.1.05.05v.1l.05.1v.15l.05.1v.95l-.05.05v.2l-.05.05v.1l-.05.1-.05.05v.1l-.05.1-.05.05v.05l-.05.05-.05.1-.05.05-.05.05-.05.05-.05.1-.05.05-.05.05-.05.05-.1.1-.05.05-.1.05-.1.05-.1.1-.1.05-.15.05-.15.05-.15.05-.05.05h-.1l-.1.05h-.25l-.3.05h-.25l-.15.05H2l-.1-.05-.15-.05-.2-.05-.15-.05-.1-.05-.1-.1-.1-.05-.1-.05-.1-.05-.05-.1-.1-.05-.05-.05-.05-.05-.05-.1-.05-.05-.1-.1-.05-.1-.05-.05v-.05L.3 42.3l-.05-.1-.05-.05v-.1l-.05-.1v-.05l-.05-.05v-.2l-.05-.05v-.4L0 41.15l.05-.05v-.4l.05-.05v-.2l.05-.05v-.05l.05-.1v-.1l.05-.05.05-.1.05-.05v-.05l.05-.05.05-.1v-.3L.4 39.4v-.35L.35 39v-.8l-.05-.05v-1.2l-.05-.05v-.35L.2 36.5v-.95l-.05-.05v-7.8l.05-.05V14.5l.05-.05V5.6L.2 5.55V5.2l-.05-.05V4.8L.1 4.7v-.65l.05-.1V3.6l.05-.05v-.2l.05-.05.05-.1v-.05l.05-.05v-.05l.05-.1.05-.05v-.05l.05-.1.05-.05.05-.05.05-.05.05-.1.1-.05.1-.1.1-.1.1-.05.05-.05.15-.05.1-.1.15-.05.1-.05h.1l.05-.05h.55V1.8l.25.05.1-.1.1-.05.15-.05.15-.05h.05l.1-.05h.05l.15-.05h.35l.2-.05h.3l.3-.05h.3l.65-.05h9.15l.3.05h.15l.1.05h.1l.1.05h.05l.15.05.15.05.15.05.15.1.1.05.1.05.1.05.1.1.05.05.1.05.05.05.05.1.1.1.05.05.05.1v.05l.1.1v.1l.05.05.05.05v.05l.05.1v.05h.05L17.3 3h.1l.1-.05.15-.05.05-.05.05-.05.1-.05.05-.1.05-.05.1-.05.05-.05.1-.1.1-.05.1-.05.15-.05.1-.1.15-.05.15-.05.15-.05.05-.05.1-.05.1-.05.1-.1.1-.05.1-.05.1-.05.15-.1.1-.05.15-.05.1-.05.15-.1.15-.05.15-.05.15-.05h.3zm34 15.7q-.8-3-2.6-5.15l-1.3-2.05q-.1-.5-.05-1.3l.05-1.3q.05-1.25-.75-3.55-.4-1.2-.35-1.85.1-1.2 1-1.5 1.1-.35 2.2.95l1.1 1.35.1-.1h.15l.05-.05h.1l.15-.05h2.65l.5.05H68.8l.75.05h1.1l.15.05h.1l.1.05h.1l.1.05h.05l.15.05.25.05q.5-.55 1.4-.65 1.15-.1 1.85.65.75.85.75 3.05l.05 34.1q.1 1.85-.6 2.65-.8 1-2.4.9l-2.65-.45-1.15-.2-1.05-.5q-.5-.45-1.05-2.15-.5-1.75-1.65-3.35l-1.05-1.7q-.15-.6 0-1.4l.25-1.4q.3-2.4-1.2-4.3L62 26.4l-.1-.15q-.85-.35-1.15-1.15-.25-.65-.05-2.05.15-1.45-.1-2.1-.4-1.05-1.55-1.3l-1.15-.05-1.15-.15q-.65-.25-1.05-1.1zm-8.05-4.2-.05.05q-1.6 2.05-4.6 2.9l-1.8.45-1.5.15-.45.1-1.7.1-6.8-.6q-2 2.4-4.8 2.85h-1.35l.6-1.2.35-.6q.15-.15.9-.4 1.45-.45 2.5-1.35l1.3-1.45.6.2.75.25 7.25.35q4.05-.65 7.55-2.95zM17.35 30.2l.3.3 1.05 1.45.75.5 2 .05 1.8-.15-.05 1.5v.35h-.05q-1.1.45-2.2 1.45l-2.2-1.55q-.9-.85-1.25-2.25zm8.75.75.2.05q3.25 1.2 6.85.65 3.6-.5 6.35-2.65l2.95-2.8 2.95-2.8q2-1.7 5.1-2.85l.85-.25.15.55-.9.5q-2.25 1.35-5 3.75l-4.7 4.15Q38.8 31.1 37.3 32q-2.1 1.25-4.1 1.4l-1.5-.05-1.5-.1-3.8.25-.35.05q-.15-1.3.05-2.6m8.8-8.25-.05-.2.05-.25.2-.45.2-.9.1-.25.25-.15 2.85-1.15.35-.05 1.45-.4.55 1.35.15.75-.05.45-.2.65-.65.5-.35.25-1.1.6-1.1.55q-.55.4-1 .25l-.5-.25z"/><path d="m36.3 18.1 1.3-.05q1.7.25 2.2 1.9.45 1.65-.8 2.8l-.9.6-.65.3-1.9-.15q-.85-.35-1.35-1.3-.55-1.05-.1-2.25.5-1.2 1.6-1.65z"/></g></svg>