<svg xmlns="http://www.w3.org/2000/svg" xmlns:ffdec="https://www.free-decompiler.com/flash" ffdec:objectType="shape" width="77.1" height="42.15"><g fill-rule="evenodd"><path fill="#999" d="M4.6 14.65q2.45 2 5.6 3.35l.35.15-.65-1.95-1.2-3.9-.65-2.15-.3-.7q-.1-.65.7-.85l1.2.1 3.15.7q-.1-1.3.1-4l.05-4q0-.8.15-1.05l.5-.35.6.1q.45.3.45 1.55l-.3 4.9q-.1 2.15.05 3.2l-.1.95-.7.3-1.65-.05-1.25-.3-1.25-.15 1.3 5.25.8 2.75 1.1.5 1.8 1.2 1.75 1.05.55.05.3-.3.85-2q.65-1.2 1.6-1.35.75-.1 1.8.55l2.95 2.55 2 1.15 1.95 1.25q.55.45.35.8l-.7.2q-4.05-.4-7.15-3.1-.8 1.4-1.1 2.8-.45 1.7-1.15 2t-1.8-.3L6.9 21.1l-2.8-1.45-2.8-2q-1-.9-1.25-1.75Q-.2 14.85.5 14q.7-.8 1.8-.7.85.1 2.3 1.35m36.85-12.3.35 1.15.65 1.6 2.95-.85 1.05.15q.3.35.05 1.15l-.8 2-.5 1.9-1.45 4.95-.2.35-.5-.1-.2-.5q-.15-.8.5-2.5l.7-2.8q.35-1.75.8-2.75-1.5.4-2.25.75l-1 .1q-.3-.1-.5-.7l-.65-1.45q-.8-1.95-1.05-3.45-.1-.5.05-.85.25-.65 1-.45.6.15.8.95zm15.75 10.9L71.4 2.6q1.5-1.05 2.3-1.4l2.6-.05q.7.5.8 1.4t-.4 1.6q-.45.65-1.85 1.35l-5.7 4-7.9 5.85 1.05.6 1.3 1.2 1.8 1.15.7.45h.85l3-.45 4.2-.5 1.95-.15.45-.05.3.25q.05.35-.5.45l-7.55 1.4-1.75.4-.8.35-.8.05-.8-.5L63 18.95l-1.4-1.15-1.5-1.1-.55-.2-1.25.8q-1.55 1.05-2.5.5-.6-.35-.9-1.45l-1.3-3.65-12 8.75-1 .15q-.5-.5.35-1.2 4.6-4.15 9.55-7.9l2.2-1.95q.8-1 1.15-1.2l1.35.15q.65.35.95 1.05l.55 1.35zM44.3 33l-.95-.2q-.6-.4-.35-.85.1-.3.75-.5 2.9-.75 8.45-1.05l8.55-.9q2.15-.55 2.9.3.45.55.3 1.4-.15.75-.7 1.4l-1.05 1.15q-.6.65-.8 1.25 5.8 1.7 11.8 2.85 1.8.3 2.55.85.55.4.8 1.05.3.7.05 1.25-.35.95-1.65 1.15l-2.1-.2-3.45-.75-7.7-2.05q-1.5-.6-2.35-.7l-1.05-.15q-.65-.1-.95-.4-.6-.6-.4-1.55l.6-1.55 1.05-1.9q-9.15.5-14.3.1M24.8 11.4l-.75-.1-1.1-.6Q22.1 10.05 22 9l.05-1.15V7.2l.1-.4-.6-.5q-.55-.75-.35-1.35l.4-.75.65-.55 1.25-.05.95.9.1.2.5-.1 1.2.05 1.15.55q.9.7 1.1 1.3l.15.85-.15 1.9q-.45 1.15-1.7 1.75zm-7.85 25.4q-.35.45-1.45.75-6.95 2.15-10.05 3.6-1.7.75-2.5.5-.65-.2-.95-.9t-.05-1.35q.35-.9 2.3-1.65l9.65-3.25q-.4-2 .35-2.7.4-.35 1.3-.45L25 29.6l1.85-.2q1.25 0 1.2.75 0 .55-1 .75l-3.95.95.45 1.45.6 1.45.85 1.75.4.95-.65.75-.8.6-1.6 1.6-.9.85q-.5.3-.7 0-.15-.15.05-.6l.7-.95.85-.8 1.4-1.45-.9-1.9-.8-2-.35-1.15-.05-.15q-2.9.7-4.7 1.35l.45 1.6q.1 1-.45 1.6"/><path d="m27.45 7.55.8-.15.8-.75q1.05-1.25 2.6-1.95t3.15-.65q2.4.2 3.25 1.8l.45 2.1v.15l.8-.1 1.1.2q.3.05.8.35l.4.25.3.55.1 1.4-.05.95-.05.7.05.25q1.4.4 2.75 1.25 2.15 1.3 3.5 3.35 1.35 2 1.75 4.5.45 2.45-.1 4.85-.95 4.05-4.05 6.85-3.05 2.65-7.2 3.45-3.7.6-7.4-.55-1.7-.55-3-1.5-2.05-1.35-3.6-4.05-.9-1.7-1.2-2.9-.35-1.6-.1-3.5.35-3.3 2-6.15 1.7-2.95 4.4-4.6 1.4-.9 2.75-1.25l.1-1.7q0-.95.3-1.5.4-.55 1.05-.8l1.3-.2h.35l-.1-.6-.35-.35L33.15 7q-1.3.25-2.05.95L29.8 9.2q-.7.5-2.2.4l-.65-.05-.65-.25-.65-.6q-.3-.5-.25-.95.2-.65.75-.55l.5.3.75.05zm13.2 13.6-.5-1.35-1.4-2.9-.3-.75-.3-.4q-.4-.6-.75-.6-.55 0-.65.6-.1.35.1 1l.45 2.15q.15 1.05.65 1.85l-3.45-.4-1.15.3q-1.1.5-1 1.65l.3.95.05.15.4 1.3q.15.8.75 1.75l.85 1.75.55 1 .75.55.5.2.5-.25.15-.6-.25-.7-.15-1.4-.15-.85-.65-2.35.6-.1 1 .1h1.4l1.5-.45q.4-.35.4-1.05z"/><path fill="#fff" d="M26.95 9.55q-.55.6-1.55.7l-1.3-.3q-.65-.4-.75-1.1l.1-1.05.15-.9q.3-.8 1.15-1.05l1.6.05q.95.3 1.1 1.05v.6h-.05l-.75-.05-.5-.3q-.55-.1-.75.55-.05.45.25.95l.65.6zm13.7 11.6.2 1.15q0 .7-.4 1.05l-1.5.45h-1.4l-1-.1-.6.1.65 2.35.15.85.15 1.4.25.7-.15.6-.5.25-.5-.2-.75-.55-.55-1-.85-1.75q-.6-.95-.75-1.75l-.4-1.3-.05-.15-.3-.95q-.1-1.15 1-1.65l1.15-.3 3.45.4q-.5-.8-.65-1.85l-.45-2.15q-.2-.65-.1-1 .1-.6.65-.6.35 0 .75.6l.3.4.3.75 1.4 2.9z"/></g></svg>