<svg xmlns="http://www.w3.org/2000/svg" xmlns:ffdec="https://www.free-decompiler.com/flash" ffdec:objectType="shape" width="72.25" height="41.55"><g fill-rule="evenodd"><path fill="#999" d="M69.85 24.8q.65 1.1.9 2.35.2 1.1-.15 3.25l-.25 1.35.15.15 1.3 1.7q.75 1.25.25 2-.4.55-1.7.65l-2.7.15-.4.05-.45.25-1.9.95q-2.9 1.05-5.2.6-2.55-.4-4.65-2.6l-.4-.4-1.1.7q-4.1 2.2-9.35 1.35-2.25-.35-3.75-1.25-1.95 0-3.7-.8-2.15-.9-3.45-2.6l-.7-1.05q-1.5-2.7-1.35-8.15 0-1.4.5-2 .45-.55 1.25-.55t1.3.5l.45 1.1.05 1.3q-.1 2.05.1 3.4.3 1.7.9 2.75.65 1.2 1.75 1.85l-.05-1.2q.1-1.25.4-2l.6-1.15h-.05l-.25-.8-.85-3.15-.3-1.9q-.15-1.55.5-3 .25-.7.75-1.05.55-.45 1.4-.35.75.05 1.4.6l.7.7.3 1.05q.3 2.4.1 4.75l-.1.55.3-.1q2.55-.9 5.4-.8l2 .25.05-3.8q0-1.4.15-2.1l.25-.95.35-.75q.5-.7 1.4-.9.75-.15 1.7 0 1 .2 1.35.75l.3.9.05.7-1.05 4.6-.2 1.05-.1 1.2-.2.65.2.15 1.4-2.05q1.55-1.7 3.75-2.6 2.25-.85 4.55-.65l1 .15.55-.3 1.7-.85.85-.5.9-.25q.8.1 1.1.85l-.05 1.4-.05.6-.2.45-.3.95-.2.6zm-7.8 2.95q0 .55.5.8l.95-.1.6-.9.3.3q.7.65 1.45.7.45 0 .5-.25l-.1-.4-.4-.45-.95-1 .75-1.05.25-.6q.1-.4-.15-.6l-.85-.05-.7.65-.55.5-.55-.45q-.3-.3-.7-.45l-.8.1q-.5.4-.2 1 .2.5.75.75l.45.25-.1.1q-.5.7-.45 1.15M56.7 32.3q-.2.3-.05.55.25.25.7 0l.5-.35.9-1 1.05-.15.4-.25.4-.15q.4-.25.3-.65l-.45-.45-1.35-.25-.1-.1-.7-.75-.75-.65q-.45-.1-.55.45-.05.25.4.8l.55.9v.65l-.4.55zm5.15 4.85L63 36.4l.05.05.75.65q.6.3.95-.2.2-.45-.15-.9l-.6-.7.55-.5.65-.65q.35-.55.05-.95l-.75-.2q-.35.05-.75.35l-.9.6-.2-.3q-.35-.45-.7-.55l-.6.15q-.3.25-.3.6.05.4.45.8l.1.15-.75.7q-.5.7-.1 1.25.35.6 1.1.4M7.45 20.4q-.15.3-.15 1.1-.2 1-1.15 1.15l-.8-.2q-.4-.3-.5-.7-.2-.55.15-1.15l.75-.9 1.6-1.25 1.1-.15.4.25.1.4-.25.3-.8.65zm2.05 1.3q.55-.45 1-.45l.5.15.25.45-.25.55-1 1.3q.55.55.45 2.15l-.15.8-.8.6-1.1-.05q-.55-.2-.8-.7-.3-.6-.1-1.55.45-2 2-3.25"/><path fill="#fff" d="M61.85 37.15q-.75.2-1.1-.4-.4-.55.1-1.25l.75-.7-.1-.15q-.4-.4-.45-.8 0-.35.3-.6l.6-.15q.35.1.7.55l.2.3.9-.6q.4-.3.75-.35l.75.2q.3.4-.05.95l-.65.65-.55.5.6.7q.35.45.15.9-.35.5-.95.2l-.75-.65-.05-.05zM56.7 32.3l.85-.85.4-.55v-.65l-.55-.9q-.45-.55-.4-.8.1-.55.55-.45l.75.65.7.75.1.1 1.35.25.45.45q.1.4-.3.65l-.4.15-.4.25-1.05.15-.9 1-.5.35q-.45.25-.7 0-.15-.25.05-.55m5.35-4.55q-.05-.45.45-1.15l.1-.1-.45-.25q-.55-.25-.75-.75-.3-.6.2-1l.8-.1q.4.15.7.45l.55.45.55-.5.7-.65.85.05q.25.2.15.6l-.25.6-.75 1.05.95 1 .4.45.1.4q-.05.25-.5.25-.75-.05-1.45-.7l-.3-.3-.6.9-.95.1q-.5-.25-.5-.8"/><path d="M33.85 13.4q.1 3.5-1.3 6-1.05 1.9-2.8 3.2l.55.45q1.75 1.25 3.8.95l1.45-.5 1.7-1.85.15-.25.3-.75-.1-1.1-.1-1q-.1-1.2.5-2.2l-.05-.1q-.25-.5-.8-.4l-.35.05-.35-.05q-.35-.2-.15-.5l.4-.45q.85-.65 1.45-.7l1.1.15.65.35.15-.1.2-.05v-.05q.2-.7-.1-.95l-.6-.15q-.4 0-.5-.2-.2-.35.3-.7.35-.3.85-.5 1.05-.3 1.85.65.55.7.65 1.95l.1-.1q.75-1.05.1-2.2l-.25-.6q-.05-.3.25-.5l.55-.25q.55 0 1 .55l.5.7.1.9.2 1.5-.5 1.6-.15.35.2.6.1 1.75-.2 1.2-.1.3q0 1.85.3 3.7l.15 1.6-.05.15-.5.75q-.35.3-.8.2-.55-.15-.75-.8l-.1-1.2.1-1.6-.9.8-.75.55-.3.2-2.1 1.3q-1.65 1-2.9 1.45l-.2.05-3.4.25.15.45.3 1.3.15 1.85q-.15 1.75-2.45 3.85.45.65.3 1.5-.1.85-.75 1.35-.8.65-2.75.55l-.85-.05-.15.25-1.25 1.45-1.8.2-1.05-.2q-1.05.9-2.85.5-1.4-.4-1.9-1.2h-.15l-1.3.35-1.55.2q-1.25 0-1.8-.4l-.8-.8q-.4-.5-.45-.9-.15-.85.5-1.6L10.7 34.8l-.6-1.25q-2.25.7-3.45 1.4-1.25.65-2.1 1.5l.85-.15 1.7-.1 1.7.5q.8.5 1.05 1.3.4 1.4-.7 2.4-.9.9-2.35 1.05l-2.7-.3q-1.25-.1-2.7-.85-.8-.4-1.05-.8Q0 39 0 37.95q0-1.45.15-1.9l.75-1.3q1.4-1.8 4-3.1 1.55-.75 4.85-1.75l.65-.15.45-.85q.85-1.2 2.05-1.85l1.05-.9.15-.8.3-1.05.55-1.15-1.4-1.05Q12 20.75 11.2 18.9q-.8-1.95-.6-3.9.1-1.1.7-2.75l1.05-2.15.5-.65-.6-.95q-.15-.4-.15-1.35 0-1.25.15-1.85l.95-2 .4-1.1q.2-.7.5-1.1.45-.55 1.25-.7.7-.1 1.35.4l.8 1 1 1.9.75 1 6.8-.2.35-.35 2.4-2.65Q29.55.35 30.1.1q.5-.2 1 0l.8.6.35 1.25.5 1.75.4 1.75.1 1.25.1.85-.05.75.1.7.1 1v.25q.35 1.4.35 3.15m6.75 12.8.45.6v.8l.1.65.25 1.15.05 1.35q-.25.85-1.2.85-.95-.1-1.2-.9-.15-.5.15-1.55l.3-1.6.25-1q.4-.6.85-.35M18.9 13.65l-.05-.4q-.2-.2-.6 0l-.35.5q-.85 1.3-3 1.85-1.4.3-1.65.95-.15.4.05.8l.6.5h.75l.05.2q.2.65.9 1l2.25-.15q1-.6 1.1-1.95 0-.7-.35-1.1l-.3-.3q.55-.85.6-1.9m2.85 7.1-1.5 1.05q-.6.5-.65.85-.15.45.2.8t.8.25l.85-.6.8-.45.3-.05.55.4 1.25.85q.85.55 1.3.3.65-.4.25-1.2l-.8-1.1-.6-.75-.45-.3-.1-.6-.2-.6q-.25-.3-.85-.5-.55.2-.7.65l-.15.6v.3zm6.2-7.45q-.25-.5-.85-.2-.35.2-.45.8l.25.9v.05h-.05q-.25.15-.55.65-.65 1.25-.3 2.1.35.9 1.55 1.25l1.75.05q1-.35 1.25-1.25l.1-.55.2-.65q.1-.75-.6-1.2l-1.2-.6q-.8-.3-1-.9z"/><path fill="#fff" d="m27.95 13.3.1.45q.2.6 1 .9l1.2.6q.7.45.6 1.2l-.2.65-.1.55q-.25.9-1.25 1.25l-1.75-.05q-1.2-.35-1.55-1.25-.35-.85.3-2.1.3-.5.55-.65h.05v-.05l-.25-.9q.1-.6.45-.8.6-.3.85.2m-6.2 7.45.3-.1v-.3l.15-.6q.15-.45.7-.65.6.2.85.5l.2.6.1.6.45.3.6.75.8 1.1q.4.8-.25 1.2-.45.25-1.3-.3L23.1 23l-.55-.4-.3.05-.8.45-.85.6q-.45.1-.8-.25t-.2-.8q.05-.35.65-.85zm-2.85-7.1q-.05 1.05-.6 1.9l.3.3q.35.4.35 1.1-.1 1.35-1.1 1.95l-2.25.15q-.7-.35-.9-1l-.05-.2h-.75l-.6-.5q-.2-.4-.05-.8.25-.65 1.65-.95 2.15-.55 3-1.85l.35-.5q.4-.2.6 0z"/></g></svg>