<svg xmlns="http://www.w3.org/2000/svg" xmlns:ffdec="https://www.free-decompiler.com/flash" ffdec:objectType="shape" width="67.65" height="40.75"><g fill-rule="evenodd"><path fill="#767676" d="m28.1 1.65-.2-1-.2-.65h1.4q-.7.65-1 1.65M52.15 0H58l.75 1.1v.15q1.4 1.85 1.85 3.45v2.7q-.3 3.75-1.3 5.5l-1.85 2.45q-3.4 3.65-6.6 4.6l-4.7.5h-1.9q1.5 7.25 1.5 14.8 0 3.35-.9 5.5h-2.4l.05-1.3-.45-1.15q0-.1-.15-.1 1.1-1.95 1.1-5.25 0-6.4-1.25-12.5h1.55l3.85-.45q2.65-.8 5.45-3.9l1.5-2.05q.8-1.5 1.05-4.7V7.1q-.35-1.35-1.5-2.9v-.15l-2.05-2.6.25-.6zm-25.1 40.75H6.5q-2.25-1.6-3.8-3.9-2.2-3.1-2.6-7-.45-3.85 1-7.4.85-2.15 2.35-3.75 1.9-1.85 4.65-2.7l5.4-.25 1.6.55-3.15.4q-2.25.65-3.8 2.25-1.25 1.35-1.95 3.2-1.2 3-.8 6.25.3 3.3 2.1 5.9 3.2 4.75 9.7 5.95l9.95-.5-.1.8zM18.1 17.1l1.05.1q1.75.45 3.1 1.75 1.4 1.25 1.95 3 1.05 3.8-1.55 6.75l4.05.85 1.2-3.9.75-4.7.35-5.1q-1.1-1.55-1-3.3v-.1q-.25-1.7.2-3.45l.1-.2v-.1l-.05-.3q-.4-.55-.5-1.4-.35-.8-.2-1.55.25-.8.8-1.35l.3-.25q.9-.65 1.8-.55.65 0 1.55.55l.2-.1Q34.85 2 38.75 1.8q2.3 0 3.9.65l.5-.65q.6-.45 1.45-.35.8 0 1.35.45 1.45 1.3.65 2.85l-.2.45 1.65 2.1v.1q.9 1.25 1.2 2.35v1.8q-.2 2.55-.85 3.75l-1.2 1.65q-2.25 2.45-4.35 3.1l-3.1.35H38.5q1 4.9 1 10 0 2.65-.85 4.2l.1.1.35.9-.15 1.55-.85 1-2.15-.1q-.65-.45-.85-1.1l-1.8.3-.75-.1q-.15.8-.9 1.45-.8.9-2 .9t-2.1-.9-.8-2.1l.1-.65-7.95.4q-5.2-.95-7.75-4.75-1.45-2.1-1.7-4.75-.3-2.6.65-5 .55-1.45 1.55-2.55 1.25-1.25 3.05-1.8l3.55-.2.2.05zm3.65 11.6.45.15.65-1.7z"/><path fill="#fff" d="M29.1 0h23.05l-.3.85-.25.6 2.05 2.6v.15q1.15 1.55 1.5 2.9v2.25q-.25 3.2-1.05 4.7l-1.5 2.05q-2.8 3.1-5.45 3.9l-3.85.45h-1.55Q43 26.55 43 32.95q0 3.3-1.1 5.25.15 0 .15.1l.45 1.15-.05 1.3h-15.4v-.2l.1-.8-9.95.5q-6.5-1.2-9.7-5.95-1.8-2.6-2.1-5.9-.4-3.25.8-6.25.7-1.85 1.95-3.2 1.55-1.6 3.8-2.25l3.15-.4 1.3.15q.9.2 1.7.65l.35.15-.2-.05-3.55.2q-1.8.55-3.05 1.8-1 1.1-1.55 2.55-.95 2.4-.65 5 .25 2.65 1.7 4.75 2.55 3.8 7.75 4.75l7.95-.4-.1.65q-.1 1.2.8 2.1t2.1.9 2-.9q.75-.65.9-1.45l.75.1 1.8-.3q.2.65.85 1.1l2.15.1.85-1 .15-1.55-.35-.9-.1-.1q.85-1.55.85-4.2 0-5.1-1-10h1.25l3.1-.35q2.1-.65 4.35-3.1l1.2-1.65q.65-1.2.85-3.75v-1.8q-.3-1.1-1.2-2.35v-.1L46.4 5.2l.2-.45q.8-1.55-.65-2.85-.55-.45-1.35-.45-.85-.1-1.45.35l-.5.65q-1.6-.65-3.9-.65-3.9.2-6.55 1.95l-.2.1q-.9-.55-1.55-.55-.9-.1-1.8.55l-.3.25-.05-.4q-.45-1-.25-1.95l.05-.1q.3-1 1-1.65m-7.35 28.7 1.1-1.55-.65 1.7z"/><path d="m43.25 15 .15.5v1.25q-.1 1.65-.55 2.45l-.75 1.05q-1.5 1.65-2.85 2.05l-2.05.25h-.8q.65 3.25.65 6.6 0 1.75-.55 2.75l.05.1.25.6-.1 1-.55.65-1.4-.05q-.45-.3-.55-.7l-1.2.15-.45-.05-.6.95q-.55.6-1.35.6-.75 0-1.35-.6t-.55-1.35l.1-.45-5.2.25q-3.4-.6-5.05-3.15-.95-1.35-1.15-3.1-.15-1.75.45-3.3.35-.95 1-1.7.85-.8 2-1.2l2.35-.1q1.1.3 2 1.15t1.25 1.95q.75 2.55-1 4.45 1.55.55 3.2.6l.85-2.55.45-3.15.25-3.35q-.7-1-.65-2.15v-.05q-.15-1.15.1-2.3l.15-.3q-.35-.35-.4-1.05-.25-.5-.15-1l.7-1.1q.6-.4 1.2-.35.45 0 1 .35l.15-.05q1.7-1.15 4.25-1.25l2.6.4.25-.4q.45-.3.95-.25.55 0 .9.3.95.85.45 1.85l-.15.3 1.1 1.4q-.5-.3-1.05 0-.45.2-.55.7-.2.5.1.9l.4.5.45.1.55-.15.55-.5zm-4.7 2.15-.25.4-.8.1-.2-.2v-.3l.15-.3q.15-.35-.35-.5-.35 0-.55.3l-.15.6.05.55.35.5q.4.4 1.15.4t1.05-.6q.4.5 1 .3.6-.15.75-.85l-.25-1.1-.15-.2q-.35-.15-.35.25v.45l-.1.75q-.25.05-.5-.25l-.25-.4q-.4-.25-.6.1m18.6 19.7-.9.25q-.55-.1-.7-.6-.2-.4 0-1l-.3-.05-.95-.15q-.45-.4-.35-.85 0-.55.45-.75l.65-.1.7-.05v-.5q.15-.55.45-.85l.9-.05q.35.3.35 1.1v.3q.75 0 1.2.35.75.5.35 1.2l-.65.4-.8.1h-.05q0 .8-.35 1.25m10.4-4.55.1 1.25-.35.75-1.25 1.15-.9.5-1 .75q-.35.25-.35.55l-.9.35-.55-.3Q61 36.2 60.7 35.45l-.3-.4-.45-.85-.25-.7-.05-.9.25-1.15q.45-.65 1.3-.8l1.45.25.9.7.45-.2 1.75-.3q.85.1 1.15.35l.35.35zm-3.05 1.25q-.35.4-.8.25l-.55-.4-.85-.95-1.05-.1.3.9 1.05 1.8.6.45.4-.3q.6-.6 2.1-1.4l.5-.75q0-.55-.6-.55-.5 0-.8.5zm-32.05-15.7.9-.1.65-.65q.45-1.1-.45-1.7-.95-.65-1.8.2l-.25.3q-.2.85.1 1.3.25.6.85.65"/><path fill="#fff" d="m42.65 13.9.3.25.3.85-.15.45-.55.5-.55.15-.45-.1-.4-.5q-.3-.4-.1-.9.1-.5.55-.7.55-.3 1.05 0m-4.1 3.25q.2-.35.6-.1l.25.4q.25.3.5.25l.1-.75v-.45q0-.4.35-.25l.15.2.25 1.1q-.15.7-.75.85-.6.2-1-.3-.3.6-1.05.6t-1.15-.4l-.35-.5-.05-.55.15-.6q.2-.3.55-.3.5.15.35.5l-.15.3v.3l.2.2.8-.1zm-6.1.7q-.6-.05-.85-.65-.3-.45-.1-1.3l.25-.3q.85-.85 1.8-.2.9.6.45 1.7l-.65.65z"/></g></svg>