<svg xmlns="http://www.w3.org/2000/svg" xmlns:ffdec="https://www.free-decompiler.com/flash" ffdec:objectType="shape" width="71.35" height="41"><g fill-rule="evenodd"><path fill="#fff" d="M42.8 23.2q.9-.75 2.15-.45 1.1.25 1.5.85l.35.65.15.7q.2 1.25-1.05 1.95l-.4.15-1.7.15q-.9-.15-1.55-.75-.55-.6-.55-1.35l.05-.35q.1-.7.65-1.3zm5.95 5.8q.6.95.25 2l-.25.55-.25.35-.75.55-1.65.2q-1.2-.3-1.75-1.4l-.2-.45-.05-1q0-.95.85-1.55.75-.6 1.75-.35l.05-.05.95.3.7.45zm-9.15 5.15.6-.9q.65-.6 1.4-.7l1.1.15.75.15.7.65.5.75.1 1.45v.4q-.15.95-1.3 1.65l-1.05.35-1.65-.25q-.8-.4-1.25-1.1l-.15-.3q-.2-.45 0-1.4zm-4.55-1.6-1.15-.45-.85-.75q-1.3-1.55-.75-3.5.5-1.9 2.45-2.7.1-.15.75-.35l2-.2q1.55.1 2.6 1.3 1.25 1.25.95 2.95-.15 1.75-1.65 2.85-1.4 1-3.2 1z"/><path fill="#999" d="m42.8 23.2-.4.25q-.55.6-.65 1.3l-.05.35q0 .75.55 1.35.65.6 1.55.75l1.7-.15.4-.15q1.25-.7 1.05-1.95l-.15-.7-.35-.65q-.4-.6-1.5-.85-1.25-.3-2.15.45m-22-1.95 6.75-1.1L30 19.8l11.05.6q2.55.55 4 1.3 1.35.7 2.95 1.95 2.05 1.65 2.75 2.7 2 2.85 1.25 6.65-.55 2.55-2.3 4.55-1.85 2.15-4.35 2.85l-5.15.35-4.65-.65-4.85-1.05-2.8-.2-6.4.15L.45 40.95 0 41V25.65q.15-.15.35-.2l.15-.05.4-.4q.95-.65 3.25-1zm14.25 11.3 1.15.15q1.8 0 3.2-1 1.5-1.1 1.65-2.85.3-1.7-.95-2.95-1.05-1.2-2.6-1.3l-2 .2q-.65.2-.75.35-1.95.8-2.45 2.7-.55 1.95.75 3.5l.85.75zm4.55 1.6-.25.9q-.2.95 0 1.4l.15.3q.45.7 1.25 1.1l1.65.25 1.05-.35q1.15-.7 1.3-1.65v-.4l-.1-1.45-.5-.75-.7-.65-.75-.15-1.1-.15q-.75.1-1.4.7zM48.75 29l-.35-.4-.7-.45-.95-.3-.05.05q-1-.25-1.75.35-.85.6-.85 1.55l.05 1 .2.45q.55 1.1 1.75 1.4l1.65-.2.75-.55.25-.35L49 31q.35-1.05-.25-2"/><path d="m42.1 3.5 3.75 1.35 1.05.55q.5.55.05 2l-.45 1.35-1.7 3.75-.55 1.35q1.8.55 4.05 1.85l.75.5q.55.7.2 2-.6 2.25-1.95 4.5l-.75.85-1.85.25q-1.3-.1-3.85-1.15l-1.75 4.5-2.55 5.45-.6 1q-.55.45-1.4.4l-1.45-.2-5.15-1.55q-1.35-.55-1.5-1.15-.3-.45 0-1.35Q27.5 26.1 30.8 18.9l-2.1-.7-1.05-.5q-.55-.45-.55-.9l.15-1 1.95-5q.4-.85 1-1.2l1.35-.2 1.3.25 2.8.9.6-1.75 1.1-2.75.55-1.35q.25-.8.55-1.15l.8-.4zm.5 3.5-2.45-.8-1.3 3.05-1.05 2.3-.75 1.1q-.5.85-1.45.95l-1.35-.2-2.15-.7-1.2 2.8q1.2.25 2.6 1.15 1 .5 1.1 1.15l-.15.8-.5 1.6-.35.8q-1.65 3.25-2.9 6.75l-.15.3-.35 1.05-.1.2 2.75.95.65.2.25-.4.2-.4.25-.45.05-.15 3.65-7.85q.45-1.1.9-1.55.6-.5 1.2-.5h.65l1.2.4 1.55.75 1.05.3.35-.6.1-.15.65-1.8v-.2l-.2-.2-.35-.15-.3-.15q-1.35-.65-2.7-1.2l-.5-.25-.25-.15-.2-.1v-.05l-.3-.6-.05-.05q-.25-.6.2-1.7l1.95-4.3.7-1.65zm17.6 29-.25-.7.15-.6.35-.25 1.05.05.35.4.35-.3 1 .15q.45.3.3.95l-.25.5-.45.35.15.15.5.5.15.55-.35.5q-.55.45-1.1 0l-.35-.55-.05-.15-.85.9-.9.1q-.5-.25-.4-.8 0-.35.5-.8l.55-.6zm8.05-3.5q-.2-.15-.55-.15l-.55.25-.15.25-.05.5q-.2.9-.65 1.2l-.15.1q-.5.3-1-.2-.45-.45-.25-1.3v-.05l.1-.7q.3-1.1 1.35-1.85 1.05-.6 2.3-.45 1.3.15 1.8 1.2.3.5.3 1.9l-.1.9-.65 1.1q-.55.65-1.65 1.35l.85.05 1.15-.15q.5-.15.8.3t.15 1.2q-.15.8-.9 1.05l-.9.1H67q-1.55.2-1.95-.35l-.2-.6q-.2-.5-.05-1l.45-.85.6-.6 1.8-1.3.55-.5q.35-.35.25-1z"/><path fill="#fff" d="m42.6 7-.2.3-.25.75-.35.7q-1.05 1.8-1.9 4.4l-.2.85.1.55q.35 1.25 1.55 1.35h.15l.5.25q1.35.55 2.7 1.2-.5.45-.95 1.45l-.15.5-2.45-1.05-1.65-.4q-.95-.1-1.55.45l-.65 1-4.05 8.2-.35 1-.75-.45-1.45-.3q1.25-3.5 2.9-6.75l.35-.8.5-1.6.15-.8q-.1-.65-1.1-1.15-1.4-.9-2.6-1.15l1.2-2.8 2.15.7 1.35.2q.95-.1 1.45-.95l.75-1.1 1.05-2.3 1.3-3.05z"/><path fill="#999" d="M33.1.9q1.35 1.25 1.6 2.75l.15 1-.1 1.1q-.2.65-.8.9-.55.35-1.25 0-1-.35-1.15-1.8L31.5 3.7l-.7-1.15-1.25-1.05-1.8-1.2-.4-.3h4.6zm24.1 6.25q1.55.65 2.35.45l.8-.5.9.05q.35.35.05.85l-.65.6q-1.85 1.1-3.75.75l-2.05-.45-1.7-.05-1.3.25-.85.8q-1.1.95-2.05.55-.8-.25-.95-.9-.25-.6.1-1.25l.7-.85.85-.6q1.2-.85 3-.8 1.3 0 3.1.65zm2.5 6.75q1.45 1 2.15.95l.95-.15q.55-.15.8.2.25.5-.15.85l-.75.4q-2.1.55-3.85-.3l-1.9-.95-1.65-.5-1.2-.05q-.2.05-1 .6l-2.25-.05q-.55-.5-.65-1.15-.05-.65.4-1.1l.85-.65 1-.45q1.45-.45 3.2 0 1.3.35 2.75 1.4zM47.6 1.8l.55-.7h9.4l-1.65.4-2.15.15-1.6.3-1.2.65-.6 1q-.8 1.2-1.9 1-.75-.1-1.05-.65-.45-.5-.25-1.2zm-6.1 14.1h-.15q-1.2-.1-1.55-1.35l-.1-.55.2-.85q.85-2.6 1.9-4.4l.35-.7.25-.75.2-.3.95.3-.7 1.65-1.95 4.3q-.45 1.1-.2 1.7l.05.05.3.6v.05l.2.1zM30.7 27.75l1.45.3.75.45.35-1 4.05-8.2.65-1q.6-.55 1.55-.45l1.65.4 2.45 1.05.15-.5q.45-1 .95-1.45l.3.15.35.15.2.2v.2l-.65 1.8-.1.15-.35.6-1.05-.3-1.55-.75-1.2-.4H40q-.6 0-1.2.5-.45.45-.9 1.55l-3.65 7.85-.05.15-.25.45-.2.4-.25.4-.65-.2-2.75-.95.1-.2.35-1.05zm25.95-1.95q.25 1.75.85 2.25l.8.5q.5.3.35.8-.05.45-.65.5-.4-.05-.85-.3-1.8-.95-2.5-2.85L54 24.65l-.75-1.5-1-.9-1.05-.4q-1.4-.45-1.55-1.6-.05-.7.4-1.25.35-.5 1.1-.5l1.1.25.9.35q1.35.6 2.25 2.2.7 1.2 1 3zM20.95 3.6l1.55-.1 3.15.15q1.75.4 2.75 1.55l.6.8.5 1q.15.7-.25 1.2-.3.55-1.1.65-1.05.15-1.9-1l-.6-1q-.4-.35-1.2-.6l-1.6-.35-2.15-.1q-1.95-.15-3.45-1.65l-.5-.75q-.15-.55.25-.8.45-.2.9.2l.7.65zm-4.25 6.65q.75-.4 1.4-.55 1.75-.65 3.1-.7 1.8 0 3.05.8l.85.65.7.85q.35.6.1 1.2l-.9.9q-1 .45-2.15-.45L22 12.1l-1.25-.25-1.7.1-2.1.4q-1.9.4-3.7-.65l-.65-.6q-.3-.45.05-.8l.85-.1.85.45q.75.25 2.35-.4m-.1 7.65 1.25-.9q1.5-1.05 2.8-1.45 1.75-.5 3.15 0l.95.4.9.6q.5.5.4 1.15 0 .65-.6 1.1l-2.15.1-1.05-.55-1.3.05-1.6.55-1.9.95q-1.8.85-3.8.3-.5-.1-.8-.4-.4-.4-.15-.8t.85-.3l.9.2q.8.05 2.15-1"/></g></svg>