<svg xmlns="http://www.w3.org/2000/svg" xmlns:ffdec="https://www.free-decompiler.com/flash" ffdec:objectType="shape" width="76.45" height="41.15"><g fill-rule="evenodd"><path fill="#999" d="m68.1.55.45-.45.65.05q.3.25 0 .9L68.15 2.8l-.2.35.3.05.7.25.15.5-.25.4-.7.15-.75-.2-.15.35-2 4.9-.35.95.55.6.2 1.35-.55 2.05-.35.55-.45.35q-.8.55-1.75.4L61 15.25l-.8-.4q-.85-.7-.7-1.9.05-.45.45-1.05l.45-.6.45-.35.85-.5.7-.1.4-.6.45-.8 1.4-2.5-.1-.05-.25-.3q-.35-.5-.25-.95.2-.7.75-.6l.05-.05q.35 0 .5.25l.15.15 1.4-2.55zm3.55 10-.5.7q.5.1.7.4v.55l-.4.4-.85-.2-.2-.05-.35.5-1.85 3.65-2.5 4q-.5 1.15-1.1 1.35-.4.2-.85 0l-.65-.55q-.3-.5 0-1.4l.8-1.35 2.4-3.3 1.15-1.3-.15-.45.05-.25.15-.15q.25-.2.45-.15v-.05l.4.1 1.55-1.85 1.4-1.9.15-.2-.6-.7q-.65-1.25.4-2.85l.65-.75q.4-.25 1.1-.35l1.45.35q.7.4.95 1.05.45 1.15-.4 2.35T72.95 9.4h-.65zM50.55 38.5q-1.1.6-1.8.5t-1.05-.85q-.25-.7.2-1.4.4-.5 1.45-.9 2.2-.8 4.95-1.55l4.2-1.2-.05-.15-.05-.25q0-.45.3-.6l.7-.1.55.65 4.45-1.3 2-.55.15-.9q.15-.75.6-1.25.55-.8 2.1-1.55l.65-.25 1.05-.05.65.2.65.55q.6.8.75 1.85l-.05 1.35-.35.85q-.6.95-1.9 1.3l-2.4.05-.85-.15-.7-.6-6.9 2.55-1.8.65-2.35.85v.15l-.2.9-.2.3q-.25.15-.8-.2l-.45-.45v-.05q-2.25.9-3.5 1.6m-9.05 2.25-2.7.4H27.25q1.65-1.05 3.9-1.8l5.2-1.2 3.35-.55 2.75.15 2.65.7q3.4 1.2 4.2 1.6.8.45.75.85l-.1.25H45.9l-.7-.1zm-24-31.8.05-.55.25-.8.7-.3 1.7-.35.55.1.5.15.2.25.4.2.45 1.1.1 1.9.05.8.3.5q.25.75-.45 1.2l-1.3.25-.8-.35q-.35-.3-.35-.8-.2-1.2.65-1.45l.05-2.55q-.95.1-1.6.35l.3 1.75-.05 1.85-.05.35-.05.25q-.15.65-.8.8l-1.1-.1q-.8-.25-.95-.95l.05-.55.2-.75q.3-.4 1-.6zm2.55 13.6-.35-.3-.4-1.05q-.1-.4.05-.75l.1-.3.4-.35.5-.25 1.45.1.2.05.1-.2q.15-.4.45-.7l.65-.8v-.1l.4-.35q.1-.45.4-.5.4-.1.5.3l-.05.3-.6.9v.1l-.65.95-.2.4-.6 1.95-.75.65-1 .15q-.4 0-.6-.2M2.15 6.15l.1-.7.3-.6.5-.35.7-.25h.35l.25-1.2.2-.8.3-.6.15-.1.05-.45q.25-.4.7-.5L7.1.75 7.8.7l.65.5-.15.85-.75.4-.85.2-.2.15-.1.8-.1 1.1q-.05.65.05 1.05l-.15.7-.2.65-.7.5-.85.1-.85.05-.5-.15-.6-.45-.15-.2-.15-.45zm3.65 24.8q7.05.15 12.1 3.7l2.4 1.8 2.6 1.4 4.1-.15.9-.25q.6 0 .75.45.2.6-.75 1.1-2.65 1.35-5.75 1.2l-.7.95h-7.2l-3.3-.5-8.2-.25q-1.8-.2-2.4-1.05Q0 38.85 0 38l.05-1.5.05-1.65.35-1.6Q1 31.9 2.75 31.3z"/><path d="m62.75 10.1-.15 1.3-.6 1.15-.55.6-.7.4-.75.3-1 .6-1 .1q-1.05-.1-1.7-.65-.8-.7-.55-1.65l.05-.3-.2-.25q-.55-.35-.65-1.2 0-.7.35-1.3l.55-.6 1.2-.85q.9-.55 2.55-.25l1.4.4.6.3.5.6L68.5 5l.6-.35-.1-.4-.05-.45q.1-.75.9-.85.55 0 .8.5l.1.25q.4-.3.7-.5l1.4-1.05q.8-.55 1.5-.65.65-.2.95.2.45.45.05 1.05l-.9.7-5 2.7-2 .85-.4.25.35.6.15.6.05.8-.35.75-.65.2-.65-.35-.2-.6-.15-.75-.05-.4-2.95 1.65zm9.2 9.75q-.25 2.6-1.4 4l-.75.85-1.1.9q-.95.6-1.75.5l-.3.15-.25.85-1.45 5.2-.95 4.05.35.05.6-.05.6.1q.45.2.35.65l-.55.65-1.6.75-.3.1-.2.7.65-.25 2.05-.9 1.55-.75v-.1l.05-1 .1-.55q.1-.5.35-.75.15-.15.4-.15l.4.15.5.65.35.6.05.15.4-.2.65-.35v-.15l.2-2.4.2-.85.65-.9.6-.6.7-.45.85-.65q.65-.35 1.2-.3l.7.3.6.5v7.4q-.5.7-1.5.95l-2-.15-1.5-.95-3.3 2.1-1.25.7q-.5.4-1.05.75H58.9l.3-1.05q.8-2.2 2.55-6.45l-.2-.15-.8-1.15-.25-1.1q0-.65.5-.9.45-.3 1 0l.8.7L64.45 27l.4-.85-.3-.1-1.2-.55q-.9-.6-1.45-2.05-.45-1.45-.35-3.55l.25-1.2.45-.65q1.05-1.45 1.9-1.7l1.6-.1 1.95.25.95.8.05-.05q.35-.3 1.15-.4l1 .1q.75.3 1 1.25zm-31-9.1-1.4-.45-.95-.15-.6.05q-.7.2-1 .5-.35.4-.25.9l.2.75.4-.15.8-.05 1.15.05 1.25.25.8.35.4.3.65.75.4-.2.3-.6q.1-.55-.25-1.05l-.9-.75zM36.3 3l3.4.75 3.1 1.2.65.35 1.4-.45 1.9-.65q1.45-.5 2.15-.25 1.1.45 1.5 2.3.5 2.3.35 4.85l-.25 2.05-.95 3.35-1.35 2.75-.1.2q-.85 1.8-1.9 2.85-1.9 2.05-5.1 2.95l-2.05.4.35.4q1.25 1.45 3.1 2.1 1.85.7 3.7.4-.35-1.05 0-2.2t1.2-1.95q1.65-1.6 4.15-1.5 1.25 0 2.2.5 1.9 1 2.2 3 .4 2.05-1.1 3.55l-1.55 1.2Q51.25 32.5 49.95 33q-2.3 1-5.25.9l-2.4-.35q-.85-.25-2-1l-2.8-2.35-.35-.45-.15.9q-.35 2.45 1.15 6.7l.5 2.2q-.05.95-.5 1.6H19.3q-.25-.7-.15-1.5l.55-1.8q.75-1.8 1.8-3.45l.6-1.15 1.55-2.3-5.6 2.1-3.35.9-3.2.55-1.6.3-1.65-.05q-1.45-.45-1.8-1.85-.25-.95.15-1.9t1.2-1.6q1.35-1.05 3.65-1.3l2.15.1q1.25.35 1.6 1.3 6.55-1.05 12.75-3.15l2-1.55-1.5-.65q-3.5-1.7-4.95-4.75-.65-1.4-.9-3.05-.5-3.05.15-5.6l.35-1.05-.1-.8q-.05-3.05 2.2-6.2l.75-.9q.5-.4 1.1-.5l1.2.15q.55.25.9 1l.4 1.25.05.2 2.15-.55zm-5.95 6q-.35-.3-1-.4l-.95-.1q-1.5-.05-2.8.7-.75.55-.85 1l.05.5q.95-.55 1.9-.55l2.05.25.6.15.45.25.45.35q.5-.2.6-.85.15-.8-.5-1.3m4.6 6.75-.15-.95-.55-.85v-.85l-.05-.4.05-.4q.1-.6-.15-.95-.3-.5-.8-.4-.4.1-.7.7l-.4.85-.25.35-.15.45-.35.1q-.5.2-1.1.75l-.4.55-.1.05q-.55 1.35-.65 3l.2 1.35q.3.65.95 1.15l1 .4 1.3-.15 1.25-.65q.8-.75 1-2.55zm-1.5-1.25q.35.4.35 1.05l-.15 1.1-.65 1.6q-.65.85-1.55.65-.75-.2-1-1.1-.2-.6.1-1.55.3-1.25 1-1.75.45-.3.95-.35.6 0 .95.35M11.8 7.4q.45-.5 1.8-.6l.05-1.1.15-.4.05-.55.15-.4q0-.75.15-1.1.25-.4.65-.45h.15l.85.05q1.05.1 1.6.45l.55.7-.05.8-.7.55-.85.25-.65.3-.05 1.15.15 1.3-.25 1.25-.3.35-.25.4q-.45.55-1.5.65l-1.35-.25q-.7-.35-.85-1V8.7q.1-.8.5-1.3m-6.4 8.65.1-.9.1-.5q.25-.7 1.35-.9v-.65l-.25-.9-.15-2.25.05-.05q-.15-.7.45-1l1.7-.25.85.05.55.5.05.75-.55.7-.75.6-.2.3.4 1.75.3.9.05.45.3.9-.2.95-.7.65q-.8.55-1.8.4t-1.5-1.05q-.15-.15-.15-.45m9.7 1.2.2-.6.15-.45H13.7q-.45 1-.9 3.2l.9.8q.5.7-.05 1.6-.7 1.35-2.45 1.2l-1.15-.45q-.5-.35-.6-1.05l.25-1.05.15-.8.3-.85 1.5-4 .35-.6 1-.2h2.3q1.5.1 1.95.5.55.45.4 1l-.1.2-.1 1.6-.4 2.35q.95.4 1.15 1.15l.1.75q0 .65-.4 1.2-.45.7-1.35.85-.9.1-1.6-.45-.65-.55-.7-1.15v-.45l.2-.7.15-.95z"/><path fill="#fff" d="m40.95 10.75 1 .5.9.75q.35.5.25 1.05l-.3.6-.4.2-.65-.75-.4-.3-.8-.35-1.25-.25-1.15-.05-.8.05-.4.15-.2-.75q-.1-.5.25-.9.3-.3 1-.5l.6-.05.95.15zm-6 5-.05 1.55q-.2 1.8-1 2.55l-1.25.65-1.3.15-1-.4q-.65-.5-.95-1.15l-.2-1.35q.1-1.65.65-3l.1-.05.4-.55q.6-.55 1.1-.75l.35-.1.15-.45.25-.35.4-.85q.3-.6.7-.7.5-.1.8.4.25.35.15.95l-.05.4.05.4v.85l.55.85zM30.35 9q.65.5.5 1.3-.1.65-.6.85l-.45-.35-.45-.25-.6-.15-2.05-.25q-.95 0-1.9.55l-.05-.5q.1-.45.85-1 1.3-.75 2.8-.7l.95.1q.65.1 1 .4m3.1 5.5q-.35-.35-.95-.35-.5.05-.95.35-.7.5-1 1.75-.3.95-.1 1.55.25.9 1 1.1.9.2 1.55-.65l.65-1.6.15-1.1q0-.65-.35-1.05"/></g></svg>