<svg xmlns="http://www.w3.org/2000/svg" xmlns:ffdec="https://www.free-decompiler.com/flash" ffdec:objectType="shape" width="76.65" height="43.65"><g fill-rule="evenodd"><path fill="#999" d="m9.4 1.15-.05.05-.15.55-.1.4-.05.5-.65 3.4-.05.7-.2.7.05.45-.25.8v.65q-.35.5-.25.8.1.7.9.8l1.3-.2 2.55-.8 1.9-.75q-.35 1.15-.75 3.65l-.8 4.95-1.3-1.55-.35-.5-.15-.05-.45-.15q-.5 0-.8.7l-.2.65-.3.55-1.05 3.1Q4.5 12.75 3 7.95 2.6 6.7 2.15 6.3q-.4-.35-.95-.35V4.8l.05-.1V4l.05-.1v-.45l.05-.1v-.1l.05-.1v-1.1l.05-.15.05-.1v-.1l.1-.1.1-.1.1-.1.15-.1.15-.05.15-.05.25-.05h6.9m-8.25 9.5.55 1.3-.6-.15v-.25l.05-.15v-.75m-.05 5.8.3.65.9 1.3 2.45 2.95 2.1 2.55.55.35.2.2q.7.6 1.3.2l.65-1.05 1.3-4.6q2.9 2.45 5.7 5.5l2.3 2.1-.9 2.05-.55 1.15q-.4.95-.45 1.6l.1 1.15-.5.4q-.8.65-2.4 1.2L9.3 35.8l.2-1.7q.1-2.25.35-3.3l.2-.95q0-.6-.5-.7-.35-.05-.8.4l-.7.6-6 6.15-.75.85-.15.45.5.05 1.4-1.2q2.5-2.65 5.35-5.05 0 2.7-.65 5.15-.2 1 .2 1.3l.8.05.7-.4q.45-.25 1.65-.6 3.4-1 6.2-2.5l.55-.3.2.2.55.6.9-.15.55.05q.45-.4.9-.15l.45.5.65.2.6.2-.1-.1-.15-.3q-.3-.55-.4-1.8V32.1l-.25-.5-.05-.2-.1.05q-.45.35-.7.15l.2.8.05.9-.3.5-.95-.05-.75-.8-.4-.45-.25-.85.1-1.35q.1-.3.7-1.25l1-1.45.2-.35-.35-.5q.1-.35-.35-.95l-.65-.85-.75-.85-.7-.8-1.55-2.1-1.8-1.9-.1-.1v-.15L15.7 9.4l.15-1.2.05-.3q0-.6-.55-.85l-1 .1-4 1.35 3.35-7.25h1.45l.6.05.35.05h.85l.5.05.25.05.85.05h.9l.8.05.8.05v-.1l.25-.35.25.1.05.05.1-.05.55.15-.05.65q-.05.55.2 1.15l.25.95q.25 1.65-.2 2.8-.4.9-1.35 1.65l-.05.1.15 1 .8.05q.4.3.05 1.2-.5 1.4-.65 2.5v.45q.2-1.65 1.2-4.2l1.1-3.25-.4-1.25-.1-1.05.05-1 .35-.8.15-.2.1-.25q.35-.65 1.1-.65l.5.1.6-.4q.65-.4 1.3-.35l.35.1.3-.05.4.15.05.05q.3-.65 1.2-.8L30.8.2l.6-.1.8.4 1.55 1.65q.1-.35.35-.55l.4-.2.3-.2.65.1.25.15.05-.05-.05-.45q.15-.25.45-.15l.25.2.65-.05.75.25q.2-.3.45-.2l.3.5q.2-.3.6-.35l.3.1.25-.5.95-.05.45.3.35.05 1-.15 1.6-.05 1.35.2.5-.7.65-.25q.35 0 .5.3l.05.45.8.05.25.6-.3.6-.6.8q-.35.45-.4.85-.05.5.35 1.4l.45 1.05.85 1.3.55 1.3q.5 1.65.3 5.1l-.25 1.65.3-.4 1.15-1.95.95-3.75.05-.25-.15-.05q-1-.15-1.25-1.25v-.05l-.35-.55-.2-.35q-.75-1.4-.85-2.45-.25-1.7.75-2.8l.4-.3q.35-.1.45.2.2-.55.55-.7l.45-.05q.25 0 .3.2l.05.05.6-.2.9.2.2.15.1-.15.5.15.1.2q.5-.55 1.15-.5.9 0 1.1.8l.05.1.3-.45q.45-.35.8 0l.05.05h.05V1.4h4.95l1.15.05-.8 1.6-.35.75-.3 1-.3.75-.1.55-.35.95-2.6-1.5-.65.05-.25.35-.4.4-.1.1-.4.65-.15.25-.45.75v.15l-.3.35v.05l.15.25-.05.1.05.4.2.15v.2l-.05 1.35-.05 1.45-.4.9-.75.6-.6.3-.5.45-.1.15-.15-.1.1-.3q0-.4.35-1.8l.05-2-.3-2-.05-.2h-.05l-.6.25-.4-.05H53l-.25.15v.6l.25.9q.75 2.25.6 4.4l-.5 2.4q-.55 1.55-1.7 3.2-1.5 2.1-1.75 3.15-.35 1.6.75 4.55l.45-1.85.1-.8v-.15l.05-.6q-.1-.3.05-.45l.15-.85.75-1q-.05-.55.35-1.3.85-1.5 1.8-2.85l1.75-1.9q-.05-.4.3-1.05l.9-1.8.3-.75.1-.95.2-.85-.2-.95V8.95l.45-.6.75-.9.15-.1.15.05 1.55.75.8.45.85-.15.25-.5 1.85-6 .25-.5h4.75l-1.15 9.1-.1.25-.3 1.6-.55 2.8-3.45-3.45-.7-.4q-.4-.1-.65.35l-.35.7-.5 1.55-.2.65q-1.25 2.4-2.65 5.9l-.05.15-2.2 5.2-.15.75.05.15.05.05-.2.45-.15.5-.1.9-.25.45-.05.1.35 1.25q.55 1.35-.2 2.65l-.45.65-.35 1.4-.1.2h.05l.25-.2.7-.5.5-.65.3-.45q.7-1.2.8-1.95L57.3 30l-.15-1.65.2-1 .15-.4.05-.1q.45.05.9-.45l.55-1.25.2-.55.4-.65L61.95 20l.2-.55 1.4-1.95.9 1.3 1.65 2.05 1.6 1.85q.8.9 1.35.85.8 0 1.35-1.45l5.3-13.3v9.3l-.55.05-.45.55-3.2 7-3.3 6.95-2-1-1.35-.25q-.4.1-.8.8l-1.65 2.55-5.5 2.45-1.25.6-.05-.15v-.95l.1-.2-.1-.4-.4-.1-.35.15q-.3 0-.45.25l-6.55 3.8-.6.55q-.1.2-.05.45l-4.6.4q-2.35.25-4 0l-1.55-.3-6.9.05-.25.55q-.45.95-1.4 1.25l-1.7-.05q-.85-.35-1.25-1.1l-.2-.5h-2.3l-1.2.05H16.3l-3.75.05h-4l-4.2-.05h-.3l-.55-.05-.6-.05h-.25l-.2-.05-.3-.05-.2-.1-.1-.15-.05-.1-.15-.05-.15-.1-.15-.1-.1-.1-.05-.1-.1-.1-.05-.1V40L1 39.9v-.7l-.05-.1v-3.3l.05-.1v-.85l-.05-.1v-.3l.05-.1V29.8l-.05-.1v-2.6L1 27v-.4l.05-.1v-6.8l.05-.1v-3.15M12.2 1.2l-.45.65v.05q-.05-.55-.45-.75h.2zm59.95.3.25.05.25.05-.3.3-.3.5zm3.15.35.1.05.1.1.05.1.05.1.05.1v.1l-.25-.45zm.4 17.3V30.8l-.05.1v3.4l-.05.1v3.2l-.05.1-.05.1v1.05l-.05.1v.25q.35.2.45.95.1.7-.15 1l-1.05.3h-2.9l1.75-7.6.25-.8v-.8l-.4-.45-1.05-1.55-.45-.55-.45-.15 1.45-3.5zm-4.5 22.3H60.35q2.15-4.15 5.15-8.25.45.05.95.4l.9.55 1.95.1.65-1.05.95-2.3.45.65.95 1.3.1.25-.15.25-.05.7-.25 1.05v.7l-.2.7-.3 1.6-.3 1.4q-.3 1.25-.05 1.85zm-12.95 0h-.05l-8.9-.3.4-.25.75-.6 3.9-2.6.25 1.2.05.3q.15.4.65.3l.75-.35q.65-.45 3.4-1.75l1.85-.95zM66.6 18.3l.1.1v.05zm-18.55-.5-.2-.15-.25.1q-.45.25-.65-.2-.1-.2.1-.65l.85-2v-.8l-.85 1.75-.85 1.25 1.4 1.2zm5.25 11.85-.15 2.05-.05.25.6-.15.6.05v-.1l-.15-2.05-.2-.1q-.45-.2-.6-.6l-.05.05v.6m-27-18.35.1-.8-.5-.4-.55 2.2q.4 1.5.95 2.45-.3-1.5 0-3.45m-6.4-1.25.5-.5.2-.5-.55.6-.3.55zm-2.35 1.9-.05.1h.1zM39.6 30.5l.75-.55.2-.65-.4.3-.25.2-.75.95zm-5.1-.35.65.5q1.15-2.8 3.75-4.45l-2-.05q-1.1.3-1.65 1.15l-.6 1.3-.25.95q-.1.35.1.6"/><path fill="#fff" d="M1.2 5.95q.55 0 .95.35.45.4.85 1.65 1.5 4.8 5.2 12.6l1.05-3.1.3-.55.2-.65q.3-.7.8-.7l.45.15.15.05.35.5 1.3 1.55.8-4.95q.4-2.5.75-3.65l-1.9.75-2.55.8-1.3.2q-.8-.1-.9-.8-.1-.3.25-.8V8.7l.25-.8-.05-.45.2-.7.05-.7.65-3.4.05-.5.1-.4.15-.55.05-.05q.25-.45.75-.35.4 0 .6.3h.35l.2.05q.4.2.45.75v-.05l.45-.65.3-.45.7-.55q.6-.2.7.35l-.15.5-.05.2-3.35 7.25 4-1.35 1-.1q.55.25.55.85l-.05.3-.15 1.2-1.45 9.65v.15l.1.1 1.8 1.9 1.55 2.1.7.8.75.85.65.85q.45.6.35.95l-.2.2-.65-.1-.45-.25-2.3-2.1q-2.8-3.05-5.7-5.5l-1.3 4.6-.65 1.05q-.6.4-1.3-.2l-.2-.2-.55-.35-2.1-2.55L2.3 18.4l-.9-1.3-.3-.65-.55-1.2-.2-.65.2-.8.2-.2-.3-.9q0-.75.55-.9h.1l.6.15-.55-1.3-.85-2.2q-.6-1.4 0-2.15.35-.35.9-.35m62.5-4.5.45-.9.3-.2.25.25V1l-.2.45-.25.5-1.85 6-.25.5-.85.15-.8-.45-1.55-.75-.15-.05-.15.1-.75.9-.45.6-.3.3-.4.3h-.2l-.2-.15-.05-.4.05-.1.15-.65V8.1l.45-.75.15-.25.4-.65.1-.1.4-.4.25-.35.65-.05 2.6 1.5.35-.95.1-.55.3-.75.3-1 .35-.75zm5.55 0 .25-.7.6-.2.6.25.3.55.15-.25q.4-.65.85-.35.25.2.15.7v.05l-.1.9.3-.5.3-.3q.55-.45 1.35-.45.8.05 1.3.7l.1.1.25.45.2 1.15-.1.95.35.75.05.55.3.05q.4.3.05.95l-.8 2-5.3 13.3q-.55 1.45-1.35 1.45-.55.05-1.35-.85l-1.6-1.85-1.65-2.05-.9-1.3-1.4 1.95-.2.55-2.35 3.95-.4.65-.2.55-.55 1.25q-.45.5-.9.45l-.05.1-.15.1-.65.05-.35-.3-.05-.05-.05-.15.15-.75 2.2-5.2.05-.15q1.4-3.5 2.65-5.9l.2-.65.5-1.55.35-.7q.25-.45.65-.35l.7.4 3.45 3.45.55-2.8.3-1.6.1-.25zM75.7 18.1l.1.05v.75l-.1.25-2.8 6.9-1.45 3.5.45.15.45.55 1.05 1.55.4.45v.8l-.25.8-1.75 7.6q-.2.2-.4.2l-.2-.2-.1-.1q-.25-.6.05-1.85l.3-1.4.3-1.6.2-.7v-.7l.25-1.05.05-.7.15-.25-.1-.25-.95-1.3-.45-.65-.95 2.3-.65 1.05-1.95-.1-.9-.55q-.5-.35-.95-.4-3 4.1-5.15 8.25l-.45.9-.7 1-1.15.1q-.65-.5.05-1.8l.15-.2 3.05-5-1.85.95q-2.75 1.3-3.4 1.75l-.75.35q-.5.1-.65-.3l-.05-.3-.25-1.2-3.9 2.6-.75.6-.4.25-.65.45-.65.2q-.45 0-.7-.3l-.1-.3q-.05-.25.05-.45l.6-.55 6.55-3.8q.15-.25.45-.25l.35-.15.4.1.1.4-.1.2v.95l.05.15 1.25-.6 5.5-2.45 1.65-2.55q.4-.7.8-.8l1.35.25 2 1 3.3-6.95 3.2-7 .45-.55zm-9.1.2.1.15v-.05zM17.05 32.55l.2-.15.9-.1.3.4.05.15-.15.7-.5.55-.55.3q-2.8 1.5-6.2 2.5-1.2.35-1.65.6l-.7.4-.8-.05q-.4-.3-.2-1.3.65-2.45.65-5.15-2.85 2.4-5.35 5.05l-1.4 1.2-.5-.05.15-.45.75-.85 6-6.15.7-.6q.45-.45.8-.4.5.1.5.7l-.2.95q-.25 1.05-.35 3.3l-.2 1.7 4.85-1.65q1.6-.55 2.4-1.2z"/><path fill="#fff" d="m17.9 14.2-.05-.1-.4-.8v-.55l-.05-.2q-.05-.65.3-1.65l.55-.85.55-.65.05-.05.45-.5q.7-.55 1.8-.8l.5-.05.55-.85.5-.8-.05-.2-.2-1.1-.35-.7-.25-.75-.2-.55q0-.3.45-.85l.7-1.1q.5-.7 1.15-.45l.4.4h.15q.35.05.5.4v.7l-.8 1.05-.35.45v.65l.35 1.1.15 1.15-.5 1.05-.25.35 1.6.05q8.65-.2 30.05-.1 1.45 0 2 .6l.6.25q1.1.7 1.25 2.15.15 1.3-.65 2.45l-1.05 1.1-.55.45-1 .65-.1.05-.1.1v.05l-3.65 9.5-.05.1v2.4h2.6l.25.1.2.1.15.1h.1l.2.05.55-1.4 1.1-2.3.9-1.35 1.05-1.1h.05l.2-.3.4-.55.15-.4q.1-.15.35-.15.4-.1.4.35l-.1.6-2.2 5.35-1.1 1.9.45.45.4.65.15 1.1-.1 1.45-.65 1.45-.6.7-1.05.55-.45.15-.25.15-.2.05-.3.05H40.8l-2.3.05-2.1.05h-9.1l.1.2.55 1.05.1.6.2.5.8-.2q1.2-.65 3.85-1.25.5-.25.95-.25.6-.1.8.45l-.05.7-.45.55q-.4.55-.8 1.85l-.85 1.8-.4.4q-.65.2-.9-.3-.15-.35.05-.8l.4-.75.9-2.1-1.55.4-2.2.9-.6.3-.65-.15-.25-.5-1.15-3.4h-3.4l-.1.05-.5.1-1.45.15-.65-.05-1.05-.4-1-.95-.25-.45-.1-.35-.05-1 .05-.2-.05-.1v-.7l.05-.1v-1.25l.05-.1.05-.1v-.1l.05-.1.05-.1.1-.1.1-.1.1-.15.1-.1.05-.1.1-.1.1-.1.1-.1.1-.1.1-.1.1-.1.15-.1.2-.1h.05q-.15-.45.25-.75l.2-.1.1-.25.05-.1-.05-.15q-.55-.35-.65-1.1l-.05-1.15.55.85.95.95.7.55.2.1v.05l2.1-.1.35.05v-.1l-.05-.1v-9.8l.05-.1v-.3l.05-.1v-.35l.05-.1v-.05l-.8.1-2.6-.35-.4-.1q-1.95-.5-2.4-1.7zm3.65-5.25h-.45l-.2.05-.2.05-.2.05-.25.15-.15.05-.1.05-.15.15-.15.1-.1.1-.15.15-.15.1-.05.2-.1.1-.1.1-.05.15-.05.1v.15l-.1.1-.05.1v.25l-.05.15v.2l-.05.15.05.1v.15l.25.45.1.7.1.25.1.05.05.15.05.05.05.05.15.1.05.05.65.4 1.25.4h3.95v2.5l-.05.15v9.1l.05.1v1.05l.05.1v.25l.05.1v.35l.05.15.1.1.05.15v.1l.05.05H21.3l-.4.05-.35.15-.3.1-.25.15-.15.1-.2.1-.2.15-.05.05-.05.05-.05.1-.05.15-.15.1-.05.15-.1.1v.1l-.05.05-.1.1v.1l-.05.2-.05.1v1.2l.05.1.05.15v.1l.1.15.05.05v.1l.1.1.05.15.15.1.05.15.05.1.1.1.2.15.2.1.15.15.1.05.15.05.3.1.35.15h.4l1.5.05H32l14.25.05h8.35l.15-.05.2-.05.25-.1.2-.1.25-.1.2-.15.1-.1.1-.05.05-.05.1-.15.2-.1.05-.2.05-.1.1-.15.1-.1.05-.1v-.15l.05-.1.05-.1v-.25l.05-.15v-.2l.05-.15-.05-.1v-.45l-.05-.1v-.25l-.05-.1-.05-.1v-.15l-.1-.05-.05-.05-.05-.15-.05-.1-.1-.1-.1-.15-.1-.1-.1-.15-.15-.15h-.05l-.1-.1-.2-.15-.25-.1-.15-.05-.15-.1H55l-.25-.05-.15-.05-.5-.05h-3.9v-2.5l.05-.15V17l-.05-.15v-1l-.1-.1v-.25l-.05-.1v-.35L50 14.9l-.05-.1-.05-.15v-.1l-.1-.05h4.55l.25-.05h.15l.4-.15.25-.1.25-.15.2-.1.1-.05.05-.05.2-.15.1-.1.05-.05.05-.05.05-.15.1-.1.05-.15.15-.1v-.1l.1-.15v-.1l.05-.2.05-.1v-1.2l-.05-.1V11l-.05-.1v-.1l-.1-.2v-.1l-.15-.15-.05-.1-.1-.1-.05-.15-.1-.1-.1-.1-.2-.15-.15-.1-.2-.15-.1-.05-.15-.05-.25-.1-.4-.15h-.4L52.85 9H43.7l-14.25-.05h-7.9m14.8-2.25q-.45-.25-.35-.8l.25-.6 1.55-2.8.6-.65.45-.05.3.25-.15.6-1.05 2.1 7.8-1.6L47 3l1.25.2q.6.5.15 1.25-.4.5-1.6.5l-9 1.8zm17.1 9.35H51.8v.35l.05.1v2.65l.05.1v1l1.95-4.2zM43.7 14.5h1.4l-.05.05-.05.1-.05.15v.1l-.1.2v.1l-.05.1v.15l-.05.1v.75l-.05.1v.55l-.05.1V26l.05.1v2.3l.05.1v.3h-4v-8l-.05-.15v-6.1h.4l2.5-.05zm-.2 1.5h-2.25v.6l.05.1v.6l.05.1v1.05l.05.1v.7l.05.1v1.55l.05.1v1.55l.05.15v.7l.05.1v4.35h.8l1.1-.05v-.25l.05-.1v-.25l.05-.1V16zm-12.6-1.4v-.05h4.85v14.3H30.6v-.05l.1-.1.05-.15v-.1l.05-.2v-.1l.05-.1v-.15l.05-.1v-.75l.1-.1v-.55l.05-.1v-8.95l-.05-.1v-2.3l-.1-.1v-.25m2.05 1.4h-1.1v.25l.05.1v.3l.05.1v.65l.05.1v1.1l.05.1v.2l.05.15v2.65l.05.1v2.8l.05.1v3.1l.05.1v.15l1.1-.05h.85l.3-.05h.4V25.7l.05-.1v-5.35l.05-.1v-.75l.05-.1v-.8l.05-.15v-1.5l.05-.15v-.1l.05-.1V16z"/><path d="M21.55 8.95h7.9L43.7 9h9.15l1.5.05h.4l.4.15.25.1.15.05.1.05.2.15.15.1.2.15.1.1.1.1.05.15.1.1.05.1.15.15v.1l.1.2v.1l.05.1v.05l.05.1v1.2l-.05.1-.05.2v.1l-.1.15v.1l-.15.1-.05.15-.1.1-.05.15-.05.05-.05.05-.1.1-.2.15-.05.05-.1.05-.2.1-.25.15-.25.1-.4.15h-.15l-.25.05H49.8l.1.05v.1l.05.15.05.1.05.15v.35l.05.1v.25l.1.1v1l.05.15v9.1l-.05.15v2.5h3.9l.5.05.15.05.25.05h.05l.15.1.15.05.25.1.2.15.1.1h.05l.15.15.1.15.1.1.1.15.1.1.05.1.05.15.05.05.1.05v.15l.05.1.05.1V31l.05.1v.45l.05.1-.05.15v.2l-.05.15v.25l-.05.1-.05.1v.15l-.05.1-.1.1-.1.15-.05.1-.05.2-.2.1-.1.15-.05.05-.1.05-.1.1-.2.15-.25.1-.2.1-.25.1-.2.05-.15.05h-8.35L32 34.35h-9.2l-1.5-.05h-.4l-.35-.15-.3-.1-.15-.05-.1-.05-.15-.15-.2-.1-.2-.15-.1-.1-.05-.1-.05-.15-.15-.1-.05-.15-.1-.1v-.1l-.05-.05-.1-.15v-.1l-.05-.15-.05-.1V31l.05-.1.05-.2v-.1l.1-.1.05-.05v-.1l.1-.1.05-.15.15-.1.05-.15.05-.1.05-.05.05-.05.2-.15.2-.1.15-.1.25-.15.3-.1.35-.15.4-.05h4.55l-.05-.05v-.1l-.05-.15-.1-.1-.05-.15v-.35l-.05-.1v-.25l-.05-.1v-1.05l-.05-.1v-9.1l.05-.15v-2.5h-3.95l-1.25-.4-.65-.4-.05-.05-.15-.1-.05-.05-.05-.05-.05-.15-.1-.05-.1-.25-.1-.7-.25-.45v-.15l-.05-.1.05-.15v-.2l.05-.15v-.25l.05-.1.1-.1v-.15l.05-.1.05-.15.1-.1.1-.1.05-.2.15-.1.15-.15.1-.1.15-.1.15-.15.1-.05.15-.05.25-.15.2-.05.2-.05.2-.05h.45M43.7 14.5h-.1l-2.5.05h-.4v6.1l.05.15v8h4v-.3l-.05-.1v-2.3l-.05-.1v-8.95l.05-.1v-.55l.05-.1v-.75l.05-.1v-.15l.05-.1v-.1l.1-.2v-.1l.05-.15.05-.1.05-.05zm-12.8.1v.25l.1.1v2.3l.05.1v8.95l-.05.1v.55l-.1.1v.75l-.05.1v.15l-.05.1v.1l-.05.2v.1l-.05.15-.1.1v.05h5.15v-14.3H30.9z"/><path fill="#999" d="m19.15 24.9-.6-.95-.55-.65-.55-.6q-.5-.75.1-1.55l.4-.5q.2-.4 0-.95l-.4-1.25q-.2-.8 0-1.3l.35-.45-.45-.35q-.95-.85-.95-1.5t.5-.8l.65.05.25.1v.1q.45 1.2 2.4 1.7l.4.1.3.2.9.5q.5.4.4.9l-.65.6-.75.25.1.85.5 2.05.25.8.45 1.1.35.9.6.8q.55 1-.15 1.75l-.75.5-.7.05-.2-.1-.7-.55-.95-.95z"/></g></svg>