<svg xmlns="http://www.w3.org/2000/svg" xmlns:ffdec="https://www.free-decompiler.com/flash" ffdec:objectType="shape" width="77.25" height="44.8"><path fill="#999" fill-rule="evenodd" d="M13.6 1.3h30.9l-3.9 3.55-4.1 4.05q-.7.75-1.3 1.65L32.9 7.7l-.95-.8q-.65-.15-1.35.3l-.95 1-3 2.8-4.35 4.25-3 2.5-2.7 2.2.1-1 .1-3.1.1-3.05V11l-.55-.75q-.45-.3-.9-.25-.55.05-1.25.75l-2.55 2.5-1.05 1.2 1.1-6.8.05-.2.55-1.65.15-.65.4-1.05.25-.9zm33.45 0H62.7l-3.2 3.55-1.75 2.1-.55.55q-.25.45-.15.75.15.5.75.5l.9-.15q2.75-.75 8.35-1.55l-2.5 4.05-.15.3-2.4.6q-3.7.95-5.95 1.95-.6.2-.65.6t.35.6l.8.2 5-.7 4.95-1.15-3.55 6.7q-.6.95-.4 1.7.15.6 1.3 1.2l9 4.8Q67.7 34.25 61.5 40.05 60.15 41.4 60 42.1l-.05.4h-24.3l.15-.4.55-1.8.1-.25.6-.2 3.65-.75q1.45-.1 1.9-.6.35-.35.55-1.3.5-2.85.5-8.7l-.2-1.3q-.35-.85-1.35-.85t-1.35.95q-.15.35-.15 1.4.15 2.5-.1 5.4l-.15 1.3-.15.4-.55.2-3 .7-.75.1-.5-.45-2.75-2.85-.9-.6q-.65-.25-1.05.15-.4.45-.1 1.4l.55 1.15L34 39.1l.25.3-.1.2-.6 1.05-.55 1.2v.65H6.9l.3-.8 1-6.15q.6-3.85 1.3-6.1 7.15-1.95 13.8-3.25l2.65-.75.1.3q.25.75 1.05 1.05l1.45-.2q.75-.7.4-1.9l-.85-1.85-1.6-4.35-.65-2.5-.1-.9 5.6-5.1 1.85 2.25 1.35.95q.55.1 1.05-.3l.4-.55.1-.15 4.8-4.5 2.8-2.4 2.7-2.55.65-1.15zm17.15 0h11.95v24.3l-1.45-.75q-4.4-1.9-8.8-4.3 1.9-4.3 4.25-7.9.85-1.25.45-1.95-.25-.55-1.15-.65l-1.35.3-1.1.3.8-1.4q.9-1.5 1.75-2.45l.5-.7q.25-.4.1-.85-.25-.4-.75-.5l-.9.05-4.1.75-4.4.9q.6-1.05 2.25-2.8L63.7 2.1zm11.95 28.05V42.5h-11.3l.35-.6 1.65-2.05zM5.3 42.5H.55v-5.7l.4.1 5.4-1.35-.3 1.85-.55 3.1q-.4 1-.35 1.55zM.55 32.9V1.3h11.7l-.2 1.05-.75 2.45-.4 2h-.15l-1.3.4-1.35.5-1.8.4-1.25.5-2.5.8-.85.25-.6.65q-.1.35.15.7t.6.35l1-.35 1.85-.7 1.1-.5 2.35-.75 2.3-.7-.85 6-.15 1.45-2.35 2.9-5.8 7.45-.55.75q-.3.6.1.9l.8.05.6-.5 6-6.15 1.6-1.8L13.9 15l-.1 3.2-.3 3.15q0 1.1.3 1.55.5.65 1.25.65.65-.1 1-.5l1.3-.9 5.75-4.25 1.35 3.8.8 2.2.35.65-3.75.6-12.95 2.9q-.65.25-.8.35-.25.2-.45.9l-1.1 5.15-1.6.2L3 34.9l-.45.1h-.4l-1.45.25-.15.15zM42.5 21.8l.3-1.7-.05-1.7q.3-2.95.05-4.35l2.25 1.45.8.4q.9.2 1.3-.55.5-.65 0-1.35l-.55-.55-3.4-2.15-1.1-.75-1.3.05q-.35.25-.55.9l.15 6.7.35 3.05.25.85.75.45q.55-.05.75-.75"/><path fill="#fff" fill-rule="evenodd" d="m12.25 1.3.05-.35.1-.5q.2-.55.8-.45.6.15.6.75l-.1.3-.1.25-.5 1.9-.25.9-.4 1.05-.15.65-.55 1.65-.05.2-1.1 6.8 1.05-1.2 2.55-2.5q.7-.7 1.25-.75.45-.05.9.25l.55.75v1.8l-.1 3.05-.1 3.1-.1 1 2.7-2.2 3-2.5L26.65 11l3-2.8.95-1q.7-.45 1.35-.3l.95.8 2.3 2.85q.6-.9 1.3-1.65l4.1-4.05 3.9-3.55.2-.2q.7-.6 1.2-.65l.85.3.3.55v.3l-.65 1.15-2.7 2.55-2.8 2.4-4.8 4.5-.1.15-.4.55q-.5.4-1.05.3l-1.35-.95L31.35 10l-5.6 5.1.1.9.65 2.5 1.6 4.35.85 1.85q.35 1.2-.4 1.9l-1.45.2q-.8-.3-1.05-1.05l-.1-.3-2.65.75q-6.65 1.3-13.8 3.25-.7 2.25-1.3 6.1l-1 6.15-.3.8-.75.6q-.4.05-.7-.3l-.15-.3-.15-.45q-.05-.55.35-1.55l.55-3.1.3-1.85-5.4 1.35-.4-.1-.45-.75.1-.4.35-.25q-.45-.05-.55-.7l.2-.95.35-.85v2.5l.15-.15L2.15 35h.4l.45-.1 1.95-.25 1.6-.2 1.1-5.15q.2-.7.45-.9.15-.1.8-.35l12.95-2.9 3.75-.6-.35-.65-.8-2.2-1.35-3.8-5.75 4.25-1.3.9q-.35.4-1 .5-.75 0-1.25-.65-.3-.45-.3-1.55l.3-3.15.1-3.2-4.05 4.4-1.6 1.8-6 6.15-.6.5-.8-.05q-.4-.3-.1-.9l.55-.75 5.8-7.45 2.35-2.9.15-1.45.85-6-2.3.7-2.35.75-1.1.5-1.85.7-1 .35q-.35 0-.6-.35t-.15-.7l.6-.65.85-.25 2.5-.8 1.25-.5 1.8-.4 1.35-.5 1.3-.4h.15l.4-2 .75-2.45zm50.45 0 .35-.4q.45-.45.75-.4l.35.3.05.5-.5.8-1.45 1.55Q60.6 5.4 60 6.45l4.4-.9 4.1-.75.9-.05q.5.1.75.5.15.45-.1.85l-.5.7q-.85.95-1.75 2.45l-.8 1.4 1.1-.3 1.35-.3q.9.1 1.15.65.4.7-.45 1.95-2.35 3.6-4.25 7.9 4.4 2.4 8.8 4.3l1.45.75.3.25q.95.85.8 1.8-.1.65-.9 1.45l-.2.25-9.3 10.5-1.65 2.05-.35.6-.6.95-1.3 1.15q-1.25.5-2.25-.35-.8-.7-.75-1.75l.05-.4q.15-.7 1.5-2.05 6.2-5.8 11.35-12.15l-9-4.8q-1.15-.6-1.3-1.2-.2-.75.4-1.7l3.55-6.7-4.95 1.15-5 .7-.8-.2q-.4-.2-.35-.6t.65-.6q2.25-1 5.95-1.95l2.4-.6.15-.3 2.5-4.05q-5.6.8-8.35 1.55l-.9.15q-.6 0-.75-.5-.1-.3.15-.75l.55-.55 1.75-2.1zM35.65 42.5l-.2.35q-.25.35-.7.5h-.9q-.7-.3-.85-.85v-.65l.55-1.2.6-1.05.1-.2-.25-.3-2.85-3.5-.55-1.15q-.3-.95.1-1.4.4-.4 1.05-.15l.9.6 2.75 2.85.5.45.75-.1 3-.7.55-.2.15-.4.15-1.3q.25-2.9.1-5.4 0-1.05.15-1.4.35-.95 1.35-.95t1.35.85l.2 1.3q0 5.85-.5 8.7-.2.95-.55 1.3-.45.5-1.9.6l-3.65.75-.6.2-.1.25-.55 1.8zm6.85-20.7q-.2.7-.75.75L41 22.1l-.25-.85-.35-3.05-.15-6.7q.2-.65.55-.9l1.3-.05 1.1.75 3.4 2.15.55.55q.5.7 0 1.35-.4.75-1.3.55l-.8-.4-2.25-1.45q.25 1.4-.05 4.35l.05 1.7z"/><path fill="none" stroke="#5f645e" stroke-linecap="round" stroke-linejoin="round" stroke-opacity=".498" d="M13.6 1.3h30.9m2.55 0H62.7m1.5 0h11.95v24.3m0 3.75V42.5h-11.3m-4.9 0h-24.3m-2.65 0H6.9m-1.6 0H.55v-5.7m0-3.9V1.3h11.7M.55 35.4v-2.5"/><path fill-rule="evenodd" d="m56.8 13.55 2.15 3.55q3.55 5.75 2.6 11.25-.2 1.6-1.05 3.4-.9 2.5-2.5 4.4-1.4 1.6-2.7 1.55-.7 0-1.35-.5-.6-.5-.9-1.2-.25-.75-.15-2.45l-.25-5.85-.15-.5-.8-.2q-2.95.2-4.5-1.25l-.6-.75-.65.4Q37.5 30.9 29 36.95q-2.2 1.5-3.45 1.7l-3.15-.4-4.1-.7-2.3-.4q-1.25-.45-1.75-1.5-.3-.7.05-2.25.3-1.5 1-3 .65-1.7 1.55-2.3.75-.4 2.05-.4l2.2.05q1.35-.1 4.1-1.35 6.5-3.2 18.9-7.95l-.3-1.2q-.2-1.5 0-2.2.4-1.05 1.7-1.95l-.1-.3h-.05q-.55.45-1.8.45l-1.25-.15-.9-.75q-.65-.95-.75-2.05 0-1.2.7-1.95l1-.75 2.6-1.6 2.5-1.15.95-.2 1.45-.4q1-.05 1.85.55.9.6 1.15 1.55l.15.8-.05 1.05-.85 1.15-1.3.75.15.4 1.95-.15q1.65.15 2.35.75.55.35.9 1.1zm-13.45-2.5 1.1.15.45-.2 4.2-2 1.1-.65.55-.6.1-.45-.4-.65q-.55-.55-1.25-.3L48 6.9l-2.6 1.15q-1.05.65-2.15 1.25l-.35.7q-.05.4.2.7zM57 32.15l.9-2.45q.5-2.25.15-4.65L57 21.25l-1.25-3.2-.25-.5q-1-2.05-2.15-3.15l-.4-.35-1.8.6-1.6.95-1.4.85-.5.45-.05.4q.4 2.4 1.3 4.55l.2.5q.25.6.65.85.3.3.95.3h1.9l1.7.25q1.25.65 1.55 2.15l.2 4q-.05 2.6.55 2.8zm-21.4-4.9.35 1.05 8.4-5.8.8-.55v-.05l-.35-1-9.85 4.6.2.55zm-16.95 4.9-.2.25q-.5.75-.5 1.6 2.5 0 5.2.7l1.65.3 1.8-.65 7.1-4.55.35-.25L32.8 27l-.05-.1-.1-.3-.5.2q-4.85 2.25-7.25 3.85-1.85 1.05-2.55 1.1l-1.3-.2-1.3-.05q-.7.1-1.1.65"/><path fill="#fff" fill-rule="evenodd" d="m50.85 7.3-.15.05-1.55.85-.85.4-3.75 1.9-1.2.55-.25-.35q-.25-.3-.2-.7l.35-.7q1.1-.6 2.15-1.25L48 6.9l1.2-.55q.7-.25 1.25.3zM48.9 21.85q-.9-2.15-1.3-4.55l.05-.4.5-.45 1.4-.85 1.6-.95 1.8-.6.4.35q1.15 1.1 2.15 3.15l.25.5 1.25 3.2 1.05 3.8q.35 2.4-.15 4.65l-.9 2.45.05-2.8-.85-5-.9-2.45-1.15.95-1.85.35q-1.35 0-2.25-.5l-.7-.5zm-3.75.05-.25.1-3.2 1.9-2.5 1.2-2.35 1.45-1.25.7-.45-1.2-.2-.55 9.85-4.6zM32.8 27l-1 .75q-2.55 1.15-4.2 2-1.3.7-1.9 1.15l-1.5 1.15-2.45.4-2.1-.05-1-.25q.4-.55 1.1-.65l1.3.05 1.3.2q.7-.05 2.55-1.1 2.4-1.6 7.25-3.85l.5-.2.1.3z"/></svg>