<svg xmlns="http://www.w3.org/2000/svg" xmlns:ffdec="https://www.free-decompiler.com/flash" ffdec:objectType="shape" width="76.6" height="43.1"><path fill="#999" fill-rule="evenodd" d="M67.25 1.4h8.85v41.2H.5V1.4h51.4Q50.1 2 48.8 3l-.8-.4-.85-.35-1.45-.2-.6.1q-1.9.3-2.8 1l-.45.35-.35.15-.25.25q-.2.3-.15.55.15.3.55.2l.5-.2.45-.1.95-.05 1.9.45.85.35.4.25q-.6.95-.9 2l-.65-.25-.6-.15-1.1.1-1.2.4-.65.3-.8.6-.3.55-.1.4.3.25.2-.1.35-.05 1.05-.15 1.05-.1.95.3.5.25.7.4q.1 2.9 1.95 5.25 2.25 2.75 7 4.2l.5.15q-2.1.8-5.9.9l-9.35-.3-4.3-.65-4.3-.4-7.65.8-3.2.8q-1.6.6-3.7 2.05-2.8 1.95-3.7 3.95-.7 1.5-.55 3 .25 2.7 2.4 4.65 1.85 1.7 4.75 2.2l5-.2q2.5-.7 4.45-2.3l-4.45-.65-2.5.05-2.15-.2-.85-.45q-1-.7-1.75-2.5l-.4-1.5q.3-.85 1.25-1.65 1.85-1.55 5.5-2.4h.9l5.85.05 9.1 1.15 4 .6q8.95 1.5 13.85 1 8.05-.8 12.4-5.7l.25-.3 2-2.4q1.45-2.2 1.9-4.9.45-2.65-.25-5.2t-2.4-4.65Q69.5 2.5 67.25 1.4m-6.6 17.05-1.25-.05q-1.35-.25-2.15-.7-1.2-.7-1.65-1.6-.7-1.3-.25-2.8.45-1.4 1.8-2.15l1.3-.5 1.1-.15 2.55.4.75.5 1.2 1.2q.4.75.45 1.55.1 1.7-1 2.95-1.2 1.3-2.85 1.35M59.7 5.6q1.55.1 2.05 1.55t-.65 2.5q-.55.55-1.35.6l-1.5-.35q-.65-.4-.9-1.2-.3-.8-.05-1.5.25-.75.9-1.2.7-.45 1.5-.4m-5.45 5.45L53 11l-.7-.3q-1.45-.9-1.4-2.4l.05-.45q.25-.95.8-1.5.5-.5 1.1-.65l1.25-.1 1.3.4q.8.45 1.05 1.45l.1 1.05q0 1-.7 1.7-.6.7-1.6.85m-.4 3.55q-.4.55-1.1.75l-1.3-.05-1-.75q-.45-.6-.4-1.25 0-.65.4-1.25.4-.55 1.05-.8l1.35.05q.7.2 1.1.75t.35 1.3zM25.1 13.25q-1.1.2-2.85.9-1.95.9-4.05 2.2l-1.15.75q-3.6 2.45-4.75 6.9-.1.5.15.55l.4-.3q.7-1.25 2.85-2.7 2.75-1.95 4.45-2.6l3-.65 3-.35q1.85-.3 2.5-1 .75-.65.65-1.8-.1-1-.95-1.65-1.05-.75-3.25-.25M50.95 36l.05.3-.25.4-1.05.7q-.75.35-1.05.65l-.7.75-.65.9-.35.8-.25.4-.15.3h1l1.9-.25q.95-.2 2.4-1l1.25-.7.85-.95.45-.65.15-.95-.1-1.55-.5-.85q-.55-.8-1.1-1.05l-.8-.15-1.15-.05q-1.25 0-1.8.45-.6.5-.3 1l.35.3.85.4.65.35z"/><path fill="#fff" fill-rule="evenodd" d="m51.9 1.4 4.85-.75.45-.15 4.15-.5q3.1.1 5.7 1.3l.2.1q2.25 1.1 3.9 3.15 1.7 2.1 2.4 4.65t.25 5.2q-.45 2.7-1.9 4.9l-2 2.4-.25.3q-4.35 4.9-12.4 5.7-4.9.5-13.85-1l-4-.6-9.1-1.15-5.85-.05h-.9q-3.65.85-5.5 2.4-.95.8-1.25 1.65l.4 1.5q.75 1.8 1.75 2.5l.85.45 2.15.2 2.5-.05 4.45.65q-1.95 1.6-4.45 2.3l-5 .2q-2.9-.5-4.75-2.2-2.15-1.95-2.4-4.65-.15-1.5.55-3 .9-2 3.7-3.95 2.1-1.45 3.7-2.05l3.2-.8 7.65-.8 4.3.4 4.3.65 9.35.3q3.8-.1 5.9-.9l-.5-.15q-4.75-1.45-7-4.2Q45.6 13 45.5 10.1l-.7-.4-.5-.25-.95-.3-1.05.1-1.05.15-.35.05-.2.1-.3-.25.1-.4.3-.55.8-.6.65-.3 1.2-.4 1.1-.1.6.15.65.25q.3-1.05.9-2l-.4-.25-.85-.35-1.9-.45-.95.05-.45.1-.5.2q-.4.1-.55-.2-.05-.25.15-.55l.25-.25.35-.15.45-.35q.9-.7 2.8-1l.6-.1 1.45.2.85.35.8.4q1.3-1 3.1-1.6m1.95 13.2.45-1.25q.05-.75-.35-1.3t-1.1-.75l-1.35-.05q-.65.25-1.05.8-.4.6-.4 1.25-.05.65.4 1.25l1 .75 1.3.05q.7-.2 1.1-.75m.4-3.55q1-.15 1.6-.85.7-.7.7-1.7l-.1-1.05q-.25-1-1.05-1.45l-1.3-.4-1.25.1q-.6.15-1.1.65-.55.55-.8 1.5l-.05.45q-.05 1.5 1.4 2.4l.7.3zM59.7 5.6q-.8-.05-1.5.4-.65.45-.9 1.2-.25.7.05 1.5.25.8.9 1.2l1.5.35q.8-.05 1.35-.6 1.15-1.05.65-2.5T59.7 5.6m.95 12.85q1.65-.05 2.85-1.35 1.1-1.25 1-2.95-.05-.8-.45-1.55l-1.2-1.2-.75-.5-2.55-.4-1.1.15-1.3.5q-1.35.75-1.8 2.15-.45 1.5.25 2.8.45.9 1.65 1.6.8.45 2.15.7zM50.95 36l-.3-.45-.65-.35-.85-.4-.35-.3q-.3-.5.3-1 .55-.45 1.8-.45l1.15.05.8.15q.55.25 1.1 1.05l.5.85.1 1.55-.15.95-.45.65-.85.95-1.25.7q-1.45.8-2.4 1l-1.9.25h-1l.15-.3.25-.4.35-.8.65-.9.7-.75q.3-.3 1.05-.65l1.05-.7.25-.4zM25.1 13.25q2.2-.5 3.25.25.85.65.95 1.65.1 1.15-.65 1.8-.65.7-2.5 1l-3 .35-3 .65q-1.7.65-4.45 2.6-2.15 1.45-2.85 2.7l-.4.3q-.25-.05-.15-.55 1.15-4.45 4.75-6.9l1.15-.75q2.1-1.3 4.05-2.2 1.75-.7 2.85-.9"/><path fill="none" stroke="#5f645e" stroke-linecap="round" stroke-linejoin="round" stroke-opacity=".498" d="M67.25 1.4h8.85v41.2H.5V1.4h51.4"/><path fill-rule="evenodd" d="M28.3 42v1h-4.25q0-4.75.35-9.65.35-5.35 1.3-8.55 1-3.55 3-6.05-.9-.9-.8-3.3.3-3.5 1.35-4.95.9-1.25 2.1-1.25.65-.05 1.15.45t.4 1.1l-.35.75-.5.75-.4 1.2q-.2 1.1.1 2.35l.05.15q1.45-.95 3.15-1.45l1.15-.3q.15-1.45.85-2.9.95-1.9 2.55-3.1.75-.6 1.45-.65l.75.15.5.6q.25.75-.85 1.8-1.6 1.6-1.6 3.2l.1.7.75.1q1.35.2 2.65.75.25-1.05.75-1.95 1.15-1.95 3.2-2.65l2.45.1q1 .55.7 1.25l-.9.65q-1.1.5-1.8 1.5-.65 1.05-.75 2.2v1.1q1.65 1.45 2.75 3.4 1.2 2.15 1.7 5.1.35 2.05.5 5.45L51.9 43h-3.85l.05-1.8q.1-6.8-.3-11.65-.5-5.5-2.9-8.2-2.45-2.7-5.15-2.9l-1.95-.15-.1-.05q-2.35.25-4.3 1.85-2.55 2.1-3.7 6.4-.95 3.3-1.25 9.55zm13.85-16.25-.2-.95q0-.4.15-.8.2-.65.9-1l1.9-.1q.9.4 1.25 1.4.2.8-.2 1.55-.4.8-1.15 1.05l-1.55-.1q-.8-.35-1.1-1.05m-1.1 1.35q1.4 1 1.7 2.65.3 1.2 0 2.35-.15.9-.7 1.45-.9.9-2.7.9-2.35.1-3.95-.95-.85-.6-1.35-1.5-.55-1-.45-1.95.15-1.25 1.2-2.3.85-.85 2.05-1.25l2.2-.2q1.15.15 2 .8m-4.3-5.1.2-1q.35-.7 1.1-1.05l1.5-.15q.75.2 1.25.85.5.6.45 1.4 0 .75-.5 1.4-.55.6-1.3.75l-1.5-.2q-.75-.4-1.05-1.1zm-4.1 5.6q-1.1-.15-1.55-1.35-.35-1.15.35-2 .6-.8 1.5-.7l.15-.05q1.25 0 1.85 1.2.55 1.2-.25 2.15-.8 1.1-2.05.75"/><path fill="#fff" fill-rule="evenodd" d="m48.1 41.2-.2.15q-.9.6-3.15.6-6-.05-11.9.3-2.45.2-3.65 0l-.9-.25.15-5.95q.3-6.25 1.25-9.55 1.15-4.3 3.7-6.4 1.95-1.6 4.3-1.85l.1.05 1.95.15q2.7.2 5.15 2.9 2.4 2.7 2.9 8.2.4 4.85.3 11.65M32.65 27.6q1.25.35 2.05-.75.8-.95.25-2.15-.6-1.2-1.85-1.2l-.15.05q-.9-.1-1.5.7-.7.85-.35 2 .45 1.2 1.55 1.35m4.1-5.6.15.9q.3.7 1.05 1.1l1.5.2q.75-.15 1.3-.75.5-.65.5-1.4.05-.8-.45-1.4-.5-.65-1.25-.85l-1.5.15q-.75.35-1.1 1.05zm4.3 5.1q-.85-.65-2-.8l-2.2.2q-1.2.4-2.05 1.25-1.05 1.05-1.2 2.3-.1.95.45 1.95.5.9 1.35 1.5 1.6 1.05 3.95.95 1.8 0 2.7-.9.55-.55.7-1.45.3-1.15 0-2.35-.3-1.65-1.7-2.65m1.1-1.35q.3.7 1.1 1.05l1.55.1q.75-.25 1.15-1.05.4-.75.2-1.55-.35-1-1.25-1.4L43 23q-.7.35-.9 1-.15.4-.15.8z"/></svg>