<svg xmlns="http://www.w3.org/2000/svg" xmlns:ffdec="https://www.free-decompiler.com/flash" ffdec:objectType="shape" width="70.75" height="42.75"><g fill-rule="evenodd"><path fill="#999" d="M10.7 24.75q-.2-3.25.3-6.55.85-4.95 2.85-8.35 2-3.35 4.9-5.25L20.9 3q2.2-1.25 4.3-.9 2.3-.85 5.05-1.3L42.8.4q2.75-.8 5.8 0 3 .85 5.4 2.95 4.05 3.55 6.35 10.4 1.05 3.1 1.25 5.5.25 2.85-.6 7.3l-.15.05-1.55 1.2q-1.7 1.85-1.95 4.75-.15 1.55.3 2.6l.15.3-.65.85q-2.4 3.1-7.2 5.25-3.2 1.4-5.1.7-1.15-.45-1.2-1.35-.05-.6.6-1.2l.45-.25.3-.35 3.95-3.2q2.3-1.95 3.35-3.7.9-1.45 1.65-4.35 1.1-4.7.6-9.15-.6-4.85-3-8.55-.95-1.45-1.8-1.95-.75-.5-2.2-.8-8.4-2.05-17.05-.35-6.45 1.35-8.9 4.75l-1.35 2.5q-.95 2.1-1.4 3.65-.75 2.8-.65 7.55.1 3.35.65 5.2.95 2.95 2.95 4.25 1.6 1.05 5.05 1.4 3.75.45 5.15 1.1 1.15.65 1.1 1.4l-.55.9-2.35 1.35q-2.55.9-5.3.75-2.8-.15-5.2-1.4t-4.2-3.35q-1.05-1.25-1.75-2.65l-.5-.7.15-1 .05-1.65-.65-1.7L12 28l.45-.6.6-.95q.3-.9-.35-1.55-.7-.7-1.55-.4-.2.05-.45.25"/><path d="M61 26.55q1.85-1.1 3.9-.95 1.05.05 1.95.45l.05-.1q.6-.85 1.1-1.2.25-.2.45-.25.85-.3 1.55.4.65.65.35 1.55l-.6.95-.45.6.8 1.4.65 1.7-.05 1.65-.2 1.35q-.5 2-2.6 3.1l-2.25.75-3.15.2-1.3-.05-1.45 1.35-.65.15-.25-.45.2-.55.6-1.05-1.2-1.05q-.4-.45-.65-1.05l-.15-.3q-.45-1.05-.3-2.6.25-2.9 1.95-4.75l1.55-1.2zm-47.75 7.2-.05.35q-.5 2-2.6 3.1l-2.25.75-3.15.2-1.3-.05-1.45 1.35-.65.15q-.25-.05-.25-.45l.2-.55.6-1.05-1.2-1.05-.8-1.35q-.45-1.05-.3-2.6Q.3 29.65 2 27.8q.7-.7 1.55-1.2 1.95-1.15 4.05-1 1.05.05 1.95.45l.05-.1q.6-.85 1.1-1.2.25-.2.45-.25.85-.3 1.55.4.65.65.35 1.55l-.6.95-.45.6.8 1.4.65 1.7-.05 1.65zm53.65.6.35-.35.4-.85q.15-.75-.15-1.45l-.5-.75-2.65 3.4-.75.95.5.65 1.85-.85.85-.55zm-2.4-4.95q-.95-.05-2 .65l-.55.45-.2.4q-.45.85-.7 2.1l-.05.65.3.55.2.25 3.2-5zM9.6 34.35l.35-.35.4-.85q.15-.75-.15-1.45l-.35-.55-.15-.2-2.65 3.4-.75.95.5.65q1-.25 1.85-.85l.85-.55zM7.2 29.4q-.95-.05-2 .65-.5.35-.55.45l-.2.4q-.45.85-.7 2.1l-.05.65.3.55.2.25 3.2-5zM28.45 5.8l.45-.15 1.35-.4.4-.15.95-.25 2.3-.5 1.25-.05.2-.05h1.5l.45.05h.4l.6.05 2.7.6.25.1.3.05.5.15 1.7.55 2.4.85q.75-.45 1.9-.8l1.9-.55.6-.2.5-.1 3.15-.8 2-.1.95.65.2.25.25.5.1.25L58 8v.5l-.05 3.35-.15 1.8-.25 2v.05l.05.45.1 2.55-.25 4.25-.5 2.95-.3 1.85q-.7 4.85-2.3 7.4l-.25.35-.25.35-2 1.95-.8.5q-.7.45-1.55.75l-1.8.6-.05.05h-.1l-.35.1-.1.05.05.45.05.6-.1 1.3-.45.55h-4.3l-.05-.1H29.9l-.05.1h-4.3q-.3-.15-.45-.55-.2-.4-.1-1.3l.05-.6.05-.45-.05-.05h-.15l-.4-.15q-1.9-.5-3.35-1.35-1.65-1-2.75-2.4l-.4-.55-2.35-7.05-.1-.55-.15-1.05-.05-.2-.1-.6-.5-2.95-.25-4.25.1-2.55.1-.4-.05-.1-.15-1.1-.15-1.75q-.15-1.85-.15-4.3V8q.1-1.7.3-2.25l.35-.75.4-.4.75-.5 2 .1 2.8.7.4.1.45.1.3.1.9.25 1.3.4 1.9.8zm11.45 8.85-.25.35-.1.55.1.55q.45.6 1.15.45.65-.1.85-.85.1-.75-.5-1.1zm-.9 5.1 4.4-1.2q1.95-.45 2.7-.95.8-.6 1.1-1.5l.05-.05.25-1.4-.25-1.8-1.05-1.65Q45 9.7 43.4 8.85q.85 1.3.95 2.9.15 1.8-.75 3.5-.9 1.65-2.5 2.55-1.35.75-3.3 1-2.25.35-4-.05-1.55-.3-3.1-1.35-.9-.6-1.35-1.35-.85-1.3-.85-3.4.05-1.55.65-2.8-1.65 1.1-2.45 2.4-.45.85-.55 1.6-.25.7-.25 1.45 0 1.2.65 2 .65.75 1.5.9.85.5 2.45.9 5.3 1.25 8.5.65m14.7 4.55-.25-1.4-.2-.45-.9 1.7q-1.6 2-4.2 2.45-2.35.45-4.85-.6l-1.6-1q.05.7.4 1.35.5.9 1.6 1.5l2.15.75q3.1.55 5.05-.1l1-.5.85-.8.65-.8q.4-.75.3-2.1m-34.3 0q-.1 1.35.3 2.1l.65.8.85.8 1 .5q1.95.65 5.05.1l2.15-.75q1.1-.6 1.6-1.5l.4-1.35-1.6 1q-2.5 1.05-4.85.6-2.6-.45-4.2-2.45-.65-.8-.9-1.7l-.2.45zm14.1-12.1q1.6-.2 2.15-1.5l.05-1.4q-.2-.75-.8-1.1-.5-.3-1.25-.3-1.55.1-2.2 1.2-.35.55-.35 1.25.05.7.45 1.2.75.75 1.95.65m1 19.05 2.05-1.3 2.05 1.3 1.05.5 1.65.35 1.95.15L44 32q.35-.25.35-.7l-.4-.5-.6-.25-2.2-.95-2.95-1.7h-.05l-.1-1.1-.2-1.2-.45-1.25q-.4-.6-.85-.55-.45-.05-.85.55l-.45 1.25-.2 1.2-.1 1.1h-.05l-2.95 1.7-2.2.95-.6.25-.4.5q0 .45.35.7l.75.25 1.95-.15 1.65-.35z"/><path fill="#fff" d="M39 19.75q-3.2.6-8.5-.65-1.6-.4-2.45-.9-.85-.15-1.5-.9-.65-.8-.65-2 0-.75.25-1.45.1-.75.55-1.6.8-1.3 2.45-2.4-.6 1.25-.65 2.8 0 2.1.85 3.4.45.75 1.35 1.35 1.55 1.05 3.1 1.35 1.75.4 4 .05 1.95-.25 3.3-1 1.6-.9 2.5-2.55.9-1.7.75-3.5-.1-1.6-.95-2.9 1.6.85 2.8 2.35l1.05 1.65.25 1.8-.25 1.4-.05.05q-.3.9-1.1 1.5-.75.5-2.7.95zm.9-5.1 1.25-.05q.6.35.5 1.1-.2.75-.85.85-.7.15-1.15-.45l-.1-.55.1-.55zm13.8 9.65q.1 1.35-.3 2.1l-.65.8-.85.8-1 .5q-1.95.65-5.05.1l-2.15-.75q-1.1-.6-1.6-1.5-.35-.65-.4-1.35l1.6 1q2.5 1.05 4.85.6 2.6-.45 4.2-2.45l.9-1.7.2.45zm-19.2 6.95-1.05.5-1.65.35-1.95.15-.75-.25q-.35-.25-.35-.7l.4-.5.6-.25 2.2-.95 2.95-1.7h.05l.1-1.1.2-1.2.45-1.25q.4-.6.85-.55.45-.05.85.55l.45 1.25.2 1.2.1 1.1h.05l2.95 1.7 2.2.95.6.25.4.5q0 .45-.35.7l-.75.25-1.95-.15-1.65-.35-1.05-.5-2.05-1.3zm-1-19.05q-1.2.1-1.95-.65-.4-.5-.45-1.2 0-.7.35-1.25.65-1.1 2.2-1.2.75 0 1.25.3.6.35.8 1.1l-.05 1.4q-.55 1.3-2.15 1.5M19.4 24.3l.25-1.4.2-.45q.25.9.9 1.7 1.6 2 4.2 2.45 2.35.45 4.85-.6l1.6-1-.4 1.35q-.5.9-1.6 1.5l-2.15.75q-3.1.55-5.05-.1l-1-.5-.85-.8-.65-.8q-.4-.75-.3-2.1"/></g></svg>