<svg xmlns="http://www.w3.org/2000/svg" xmlns:ffdec="https://www.free-decompiler.com/flash" ffdec:objectType="shape" width="72.5" height="42.2"><g fill-rule="evenodd"><path fill="#999" d="M4.55 23.4q-.85-1.25-.6-3 .2-1.4 1.25-2.9 1.75-2.5 4.65-3.8 2.35-1.05 4.75-1l.4-1.55q1.6-6.3 4.8-10.4l.45-.55h3.6l-1.4 2.05-1.35 3q-1.95 4.95-2.2 8.3l.9.3.05-.35q.7-4.05 1.45-6.3 1.05-3.4 2.85-5.7l1.2-1.3h8.55l-1.1 1.35q-.7 1.4-1.1 3.55l-.65 3.85L30.9 10l.15 1.4 3.1-.3 2.1.45q1.25.5 2.25 1.65l1.05 1.65q.2.85.05 1.9l-.2 1.1 2.05-.05q2.45.1 4.25.95 1.7.75 2.9 2.25 1.25 1.45 1.65 3.25t-.1 3.65-1.8 3.15q-1.1 1-2.3 1.65-2.5 1.5-5.6 2.45-2.3.8-4.2.85l-1 .6q-1.7.95-4.7 1.6-9.15 1.95-16.2-.35-2.05-.7-3-1.65h-.2q-4.45.4-6.4 0-1.65-.35-2.9-1.3Q.5 33.9 0 32.55v-3.7q.5-1.35 1.7-2.55 1.2-1.15 2.75-1.75l1.05-.25zM68.2 2.8q-.7 3.4-1.8 4.9l-.55.5-.9-.05q-.2-.15-.3-.75l-.05-5.15L64.35 0h4.35zM65.9 9q.2-.3.5-.35.7-.4 1.2-.45l.6-.05.35-.1.75-.35.75-.05q.7.05.7.6l.1.6-.2.4.05.15.55.9.1.6.5.2q.65.3.65.85 0 .5-.6.8l-1.05.35-.55.4v.1q-.65.9-1.9 1-.9 0-2-.55l-.25-.1q.4.55 1.5 1.1.9.35 1 .9.15.55-.5.8l-1 .05-1-.55-.8-1-.25-.45-.25.6-.6.95-1.15.95q.2 1.35-.6 2.75l-.95.85q-.75.3-1.3 0-.85-.55-.3-1.35l.6-.6 1.15-1.5.1-.1-.4-.25-1.1-1-.35-.45-.15-.8.1-.25-.6-.6-1.1-.05-.45.4-1.3.15q-.4-.1-.55-.55-.2-.5 0-.8.25-.95 1.25-1.15l1.75.1.85.4-.25-.7-.2-1.15.15-1.25.2-.65.4-.75.5-.65.5-.35.15-.1v-.05l.05-.6q0-.75.8-.95.75-.25 1.15.5.3.55-.1 1.45l-.6.85-.4.35-.3.25-.2.25-.2.25-.1.15q-.2.6-.3 1.7v.85l.2.7.35-.25 1.75-.9-.1-.1-.65-.7q-.35-.85 0-1.55l.1-.7q.4-.6.95-.5.6 0 .9.65v1.85l.25.55.1.1.15-.4.05-.25.3-.55V9.7z"/><path d="M55.25.75q-.15.7-1.4 1.75-6.4 4.4-9.3 7l-1.7 1.45-3.15 2.25-6.75 4.25-.35.15q-.35-.1-.25-.5l.4-.5 9.45-8.35 2.4-2.45 3.5-2.95L51.5 0h3.75zM44.6 23.4l.4-.3 5.85-1 7.05-.9 1.55.15q.5.25.6.9.1.6-.25 1-.3.4-1.05.6l-1.2.05-8.45.05-2.05-.15-2.1-.1zm20.3 5.95-10.45-.85-2.9-.45-1.95-.15-2-.1-9.5-.9q-.55 0-.55-.4.1-.3.5-.3l4.25-.25 4.3.1 2.55-.1 2.5-.2q7.45-.5 13.7-.15 1.15 0 1.75.35.65.4.75 1.25t-.45 1.4q-.6.65-2.5.75M45.4 37.6l-3.15.4-.95-.1-2.25-.05-.6-.2q-.65-.4-.25-1.25l2.05-3.95.65-.85.45-.4 1.1.1.75.85 1 2.1 1 1.3.55.6.2.5q.2.5 0 .75zm-3-3.3-.5-.85-.5 1.05-.55 1.3h2.45l-.45-.55zM38.15 1.85q.65 0 .75.65v.3l.15.3v.6l-.35 1.4-.35.75-.85 3.2q-.25.5-.8.5t-.8-.5l-.2-.6-.55-.6-.55-1.65-.35-.75-.1-.4v-.4l.05-.4.1-.35.6-.5L37.7 2zM36.6 6.8l.15-.8.4-.8.45-1.65-1.7.85q-.25 0-.3.2l.05.2.6 1.4zm-24.65 3.6-.3-.6.15-.85.35-2.5.2-.65q.3-.45 1.25-.45l1.7.05 1.2.45q.65.45.5 1.1l-.2.45.05.6v.75l-.25 5.8-.1.7q-.15.5-.7.6-.5.15-.9-.25l-.5-.85-.4-.8-.2-.8zm1.85-.8.25.5 1.15 1.55q-.1-.65-.05-1.8v-1.8L15 7.6l-.4-.1h-.45q-.25.55-.35 1.75zM.6 3.4 2 5.05Q3.15 7 7.05 12.1L11.3 18l1.1 1.7q.25.6-.05.75l-.5-.15q-2-1.55-4.5-4.1L0 8.9V3.15q.3.05.6.25m3.6 29.9 6.55-3.15.45-.15q.3 0 .45.2l-.1.5-.45.3-3.85 2.4-2.1 1.4-1.3.75-3.4 2.65-.45.35V35.4zm9.45 7.6-1.45-.45-.7-.4-2.05-.8-.5-.4q-.25-.35-.1-.8l.4-.7.7-.7 2.6-1.2q1.85-.85 3.65-1.35l1-.15q.55 0 .8.5.25.4-.05.95l-.4.85-.3 1.85v1.85l-.05.75.1.9q-.2.6-1.1.6l-1.25-.5-.6-.55zm2.2-1.85q0-1.45.3-2.8-2.3.6-4.3 1.8l1.8.9 1.1.3 1 .55z"/></g></svg>