<svg xmlns="http://www.w3.org/2000/svg" xmlns:ffdec="https://www.free-decompiler.com/flash" ffdec:objectType="shape" width="76.25" height="35.25"><g fill-rule="evenodd"><path fill="#999" d="M61.35 16.3q-.5.6-1.35.6-.85-.05-1.35-.65-.45-.55-.45-1.55-.9.1-1.5-.35-.8-.5-.9-1.45-.05-.8.65-1.55.6-.5 2.2-.55l.05-.6q.2-1.2 1-1.55l.85-.1.7.45.45 1.3.1.7.85.2q.9.4 1.05.9.2.55-.15 1.1l-.9.8-.75.2v.05q0 1.3-.55 2.05M33.5 5.05h7.35l1.25.05.85.05 4.45.05.7.05.55.05.3.05.3.1.2.15.2.15.1.15.05.1.05.15.05.15v.3l-.05.15-.05.15-.05.15-.1.1-.2.15-.2.15-.3.1-.3.05-.3.05.1.1q.5.65.3 2.2l-.45 3.95-.05.4.2 2.85-.05 2.1.25 1.5-.5 2.65v1.05l-.1.85 4-.2.05-1h-.15l-.5-.1-.35-.15-.15-.15-.2-.15-.1-.15-.1-.15-.05-.15-.05-.15v-.25l-.05-.15v-.15l.05-.15v-.15l.05-.15v-.15l.1-.15.1-.1.15-.15.15-.15.25-.15.3-.1.15-.05h.35v-.05l.35.05.15.05h22.2l.45.1.3.15.25.15.15.15.05.1.1.15.05.15.1.15.05.15v.6l-.05.1-.05.15-.05.15-.1.15-.05.15-.1.15-.2.15-.15.1v.15l-.05.15-.05.15v.45l.05.15v2l.05.15v4.05l.05.15v.4l.05.15-.05.15v.15l-.05.15v.15l-.1.1-.05.15-.1.15-.1.15-.2.15-.2.15-.15.1-.2.05h-.05v.3l-.05.15-.05.15-.05.15-.1.15-.1.15-.1.15-.15.15-.2.15-.3.1-.55.1h-.2l-1.2-.05h-1.45l-4.55.05-9.1.05H55l-7.05-.05h-18.4l-17.15-.05-4.3-.05-3.9-.05-.9-.05h-.55l-.35-.05-.35-.05-.2-.05-.6-.05-.5-.1-.2-.15-.15-.15-.15-.15-.1-.15-.05-.15-.05-.15v-.1L0 33.55l.05-.15v-.15l.05-.15.05-.15v-.15l-.05-.15V30.1l.05-.15v-.45l-.05-.15v-1l.05-.15v-2.75l.05-.15v-.4l.05-.15v-.15l.05-.15v-.4l.05-.15v-.15l.05-.15.05-.15.05-.15.1-.1v-.3l-.05-.15.05-.15v-.15l.05-.15.05-.15.05-.15.05-.15.1-.15.15-.1.2-.15q.1-.1.25-.15l.3-.1h.35v-.05l.4.05 1.55.05 12.35.05 2.45.05 1.9.05 1.3.05.7.05.7.05.3.05.4.05.5.15.25.15.15.15.1.15.05.15.1.15v.4l-.05.15-.1.15-.05.15-.15.15-.2.15-.2.1-.15.05.05.15v.4l.65.5.95.15 2.5.05v-.2l-.05-.15v-.45l-.05-.15.05-.1v-.45l.05-.15v-4.2l.05-.1v-2.2l-.1-.85.1-1.45v-.4l.05-.15v-1.45l.05-.15V9.9l.05-.1-.1-.6q-.15-1.55 0-2.35v-.3l-.05-.15.05-.15V6.1l.05-.15.05-.1.1-.15.15-.15.15-.15.25-.15.25-.1.3-.05h3.5zm9.15 20.05q-1.05-.2-1.25-.9-.8.95-2 .8l-.85-.15-1 .3-.2.05 5.1.05 1.25.05zm-26.4-8q-.5.75-1.4.85-.8.1-1.5-.6-.55-.7-.55-1.8l.05-.15-1.45-.1q-1.15-.35-1.25-1.6t1-1.75l1.95-.25h.05l.1-.6q.4-1.6 1.65-1.75.85-.1 1.4.55.45.55.45 1.9v.25q.75.15 1.3.45l.85.75q.25.65-.2 1.25l-1.15.75-.9.2q-.1 1.15-.4 1.65m19.8 7.6-.45-.45-.45-.15-.4 1.05 2.15.05q-.5-.1-.85-.5"/><path d="M49.4 0h3.9l.4.05.3.1.1.05h.1l.15.05.3.1.25.15.2.15.15.15.15.1.15.15.1.15.05.15.05.15.05.15.05.15v.25l.05.15-.05.15v.3l-.05.15-.05.15-.1.15-.1.15-.1.1-.15.15-.15.15-.15.15-.3.15-.35.15-.25.05-.1.05-.3.1-.4.05h-1.5v.45l.05.15v.85l.05.15v.75l.05.15V8.4l.05.15v.6l.05.15v3.3l.05.15v5.6l.05.15v5.75h2.5l.3.05h.1l.3.1.3.15.25.15.15.15.1.15.15.1.1.15.05.15.1.15.05.15.05.15.05.15v.7l-.05.15-.05.15-.05.15-.05.15-.1.15-.1.1-.1.15-.1.15-.15.15-.2.15-.3.15-.2.1-.2.05h-.1l-.3.05h-33.8l-.3-.05h-.1l-.2-.05-.2-.1-.3-.15-.2-.15-.15-.15-.1-.15-.1-.15-.1-.1-.1-.15-.05-.15-.05-.15-.05-.15-.05-.15V26l.05-.15.05-.15.05-.15.1-.15.05-.15.1-.15.15-.1.1-.15.15-.15.25-.15.3-.15.3-.1h.1l.3-.05h2.5V18.5l.05-.15v-5.6l.05-.15V9.3l.05-.15v-.6l.05-.15V6.85l.05-.15v-.75l.05-.15v-.85l.05-.15v-.4l.05-.05H22.2l-.4-.05-.3-.1-.1-.05-.25-.05-.35-.15-.3-.15-.15-.15-.15-.15-.15-.15-.1-.1-.1-.15-.1-.15-.05-.15-.05-.15v-.3l-.05-.15.05-.15V1.8l.05-.15.05-.15.05-.15.05-.15.1-.15.15-.15.15-.1.15-.15.2-.15.25-.15.3-.1.15-.05h.15l.05-.05.3-.1.4-.05h3.9v.05h2.15L31.9.1h11.7l3.65-.05h2.15zm-2.15 4.3h-19l-1.1.05v.55l.05.15v.85l.05.15v.75l.05.1v1.6l.05.15v.6l.05.1v3.35l.05.15v5.45l.05.15v5.8H48v-5.8l.05-.15v-5.45l.05-.15V9.35l.05-.1v-.6l.05-.15V6.9l.05-.1v-.75l.05-.15v-.85l.05-.15v-.55zM35.9 16.75l3.9-.1q1.3-.1 2 .3 1 .55.9 1.65 0 1.1-.95 1.6l-2.25.25-3.25.2-2.1.15q-1.25-.1-1.7-1-.25-.45-.25-1.5l.25-7.3.2-1.2q.3-.65 1.15-.9l1.4-.05 2.6-.15 1.7-.1 1.6.05q.85.15 1.25.9.3.65-.1 1.3-.4.55-1.65.85l-4.45.55.05.8h.25l1.8.1q.85 0 1.25.3l.4.7-.15.75q-.35.5-1.1.65l-1.25.2q-.9.45-1.4.5h-.05z"/></g></svg>