<svg xmlns="http://www.w3.org/2000/svg" xmlns:ffdec="https://www.free-decompiler.com/flash" ffdec:objectType="shape" width="75.35" height="43.55"><g fill-rule="evenodd"><path fill="#fff" d="M59.7 41.1h-.05l-1.4.35-1.8-.05-.4-.05q-1.75 1.8-3.25 2.2-.8.1-1.1-.25-.15-.35 0-.75.2-.75 1-1.55l1.45-1.25 1.8-1.75 1.9-1.6q4.35-3.3 8.6-5.8l1.5-1q.75-.75 1.25-.7l-.1.35q-2.35 2.7-6.85 6.45l-3.75 3.25-.4.4 4.35-.85 5.5-.3 1-.25.95.05-.45.1-.45.2-1.8.7zm-7.35-.1-.6.75-.8.8-1.05.05q-.55-.3-.45-1.05l.1-.55.3-.55q1.1-1.9 3.8-5.3L63 23.55q3.6-4.5 5.65-6.5.45-.35.65-.2.2.25-.1.65L58.7 32.35zm-5.05 0-.1.15q-.55.7-1.45.55h-.6l-.95-.45-.7.05-5.7.4h-.85v-.05h-.2v.05h-.85l-5.7-.4-1.2-.2q-.35.5-1.05.6-.9.15-1.45-.55l-.1-.15-.05-.05-.4-1.35-.1-1.1.05-2.15-.2-.05q-.65-.1-1.1-.55l-.1-.1.15.85q0 1-.8 1.25-.7.25-1.65-.8l-2.5-3.9-2.35-3.65-2.45-3.6L1.2 1.4Q1 1.1 1.1.95 1.2.5 1.7.7l.5.55 7.9 12.3 8.1 12.15 4.35 6.4L9.35 4.35q.05-.2.25-.25h.4l.55.6 8.6 14.45q.35-.85 1.2-1.35.4-.25 1.15-.4l.45-.05-3.1-8.5q-.25-.75.2-.75l.35.3q1.5 2.45 3.45 7.1l.75 1.8 1.2.1 1.15.15 1.5.2q-1.2-1.2-1.95-2.75-1.1-2.3-.55-5 .4-2.15 1.7-3.7l-.1-.65v-.4l-.75-2.3q-.3-.9-.2-1.4l.1-.3q.15-.3.45-.5L27.1.5l.75.25 2.25 1 .55.35 1 .75.55-.2.8-.2 1.75-.3h4.2l1.75.3.8.2.15.05.4.15 1-.75.55-.35 2.25-1 .6-.2.15-.05.95.25.45.5.1.3q.1.5-.2 1.4l-.75 2.3v.4l-.1.65q1.3 1.55 1.7 3.7.55 2.7-.55 5l-1.85 2.7-.1.05 1.5-.2 1.15-.15 1.2-.1h.05l.7-1.8q1.95-4.65 3.45-7.1l.35-.3q.45 0 .2.75l-3.1 8.5.45.05 1.15.4q.85.5 1.2 1.35l8.6-14.45.55-.6h.4l.25.25-13.2 27.75 4.35-6.4 8.1-12.15 7.9-12.3.5-.55q.5-.2.6.25l-.1.45-13.7 24.4-2.45 3.6L54 33.05l-2.5 3.9q-.95 1.05-1.65.8-.8-.25-.8-1.25 0-.4.15-.85l-.1.1q-.45.45-1.1.55l-.2.05.05 2.15-.1 1.1-.4 1.35zm-23.15 0 .1.55q.1.75-.45 1.05l-1.05-.05-.8-.8-.6-.75Q18.7 37.75 15 32.35L4.5 17.5q-.3-.4-.1-.65.2-.15.65.2 2.05 2 5.65 6.5l9.35 11.6q2.7 3.4 3.8 5.3zM21 41q.8.8 1 1.55v.75l-1.1.25q-1.5-.4-3.25-2.2l-.4.05-1.8.05-1.4-.35L6.5 39l-1.8-.7-.45-.2-.45-.1.95-.05 1 .25 5.5.3 4.35.85-.4-.4-3.75-3.25q-4.5-3.75-6.85-6.45-.2-.2-.1-.35.5-.05 1.25.7l1.5 1q4.25 2.5 8.6 5.8l1.9 1.6 1.8 1.75zm25.15-17.3-1.45-.15.05.1.9 2.1.1.3 1.25-2.2v-.05zm5.7.1-2.5.15-.6 1.6-1.95 4.8.35 1.65 1.35-2.3zm-24.3-.1-.85.1 1.25 2.25.1-.3q.4-1.2.95-2.2zm-5.7.1 3.35 5.9 1.35 2.3.35-1.65-1.95-4.8-.6-1.6z"/><path fill="#999" d="M14.05 41.1H1.7l-.2.05H.95l-.2-.05H.5v.05l-.05.1v.05l-.1.1-.05.1-.05.1-.1.1-.1.1H0V0h2.3v.05h7.5l5.9.05h7.25l2.6.05h2.4l1.6.05h13.8l1.8-.05h4l1.6-.05H58l5.3-.05h7.5V0h2.9v.1h.05l.2.1.15.1.15.1.1.05.1.1.05.1.1.1v.1l.05.05.05.1.05.1.05.1.05.1V2l-.05.1-.05.1v.1l-.05.1-.05.05-.05.1v.15l.05.05.05.1.05.1v.1l.05.1.05.1v.15l.05.1v.45l.05.1v.55l.05.1v1.35l.05.1v5.35l.05.1v2.55l.05.1v21.9l.05.1v2.85l.1.1v.1l.05.1v.6l-.05.1v.1l-.05.1-.05.1v.3l-.05.1v.25l-.05.1-.05.1-.05.05v.1l-.1.1-.05.1-.1.1-.1.1-.15.05-.2.1-.15.05-.3.05-.25-.05-.25-.05-.15-.1-.15-.05-.1-.1-.1-.1-.05-.1-.05-.1-.1-.1v-.05l-.05-.1h-.4l-.2-.05H59.7l7.5-2.1 1.8-.7.45-.2.45-.1-.95-.05-1 .25-5.5.3-4.35.85.4-.4 3.75-3.25q4.5-3.75 6.85-6.45l.1-.35q-.5-.05-1.25.7l-1.5 1q-4.25 2.5-8.6 5.8l-1.9 1.6-1.8 1.75L52.7 41h-.35l6.35-8.65L69.2 17.5q.3-.4.1-.65-.2-.15-.65.2-2.05 2-5.65 6.5l-9.35 11.6q-2.7 3.4-3.8 5.3l-.3.55H47.3l.05-.05.4-1.35.1-1.1-.05-2.15.2-.05q.65-.1 1.1-.55l.1-.1q-.15.45-.15.85 0 1 .8 1.25.7.25 1.65-.8l2.5-3.9 2.35-3.65 2.45-3.6L72.5 1.4l.1-.45Q72.5.5 72 .7l-.5.55-7.9 12.3-8.1 12.15-4.35 6.4 13.2-27.75-.25-.25h-.4l-.55.6-8.6 14.45q-.35-.85-1.2-1.35l-1.15-.4-.45-.05 3.1-8.5q.25-.75-.2-.75l-.35.3q-1.5 2.45-3.45 7.1l-.7 1.8h-.05l-1.2.1-1.15.15-1.5.2.1-.05L48.2 15q1.1-2.3.55-5-.4-2.15-1.7-3.7l.1-.65v-.4l.75-2.3q.3-.9.2-1.4l-.1-.3-.45-.5L46.6.5l-.15.05-.6.2-2.25 1-.55.35-1 .75-.4-.15-.15-.05-.8-.2-1.75-.3h-4.2l-1.75.3-.8.2-.55.2-1-.75-.55-.35-2.25-1L27.1.5l-.95.25q-.3.2-.45.5l-.1.3q-.1.5.2 1.4l.75 2.3v.4l.1.65q-1.3 1.55-1.7 3.7-.55 2.7.55 5 .75 1.55 1.95 2.75l-1.5-.2-1.15-.15-1.2-.1-.75-1.8q-1.95-4.65-3.45-7.1l-.35-.3q-.45 0-.2.75l3.1 8.5-.45.05q-.75.15-1.15.4-.85.5-1.2 1.35L10.55 4.7 10 4.1h-.4q-.2.05-.25.25l13.2 27.75-4.35-6.4-8.1-12.15-7.9-12.3L1.7.7q-.5-.2-.6.25-.1.15.1.45l13.7 24.4 2.45 3.6 2.35 3.65 2.5 3.9q.95 1.05 1.65.8.8-.25.8-1.25l-.15-.85.1.1q.45.45 1.1.55l.2.05-.05 2.15.1 1.1.4 1.35.05.05h-2.25l-.3-.55q-1.1-1.9-3.8-5.3l-9.35-11.6q-3.6-4.5-5.65-6.5-.45-.35-.65-.2-.2.25.1.65L15 32.35q3.7 5.4 6.35 8.65H21l-1.45-1.25-1.8-1.75-1.9-1.6q-4.35-3.3-8.6-5.8l-1.5-1q-.75-.75-1.25-.7-.1.15.1.35 2.35 2.7 6.85 6.45l3.75 3.25.4.4-4.35-.85-5.5-.3-1-.25-.95.05.45.1.45.2 1.8.7zm37.8-17.3-3.35 5.9-1.35 2.3-.35-1.65 1.95-4.8.6-1.6zm-5.7-.1.85.1v.05l-1.25 2.2-.1-.3-.9-2.1-.05-.1zm-24.3.1 2.5.15.6 1.6 1.95 4.8-.35 1.65-1.35-2.3zm5.7-.1 1.45-.15q-.55 1-.95 2.2l-.1.3-1.25-2.25z"/><path d="M45.75 8.75q-.55.9-1.65.9-1.15 0-1.7-.9-.35-.6-.25-1.3.1-.75.65-1.2t1.25-.45q.75-.05 1.3.4.5.45.65 1.2.1.75-.25 1.35M33.1 8.6l.45-.05.25.3v.75l-.05.45.3.4q.6.6 1.05.6l.55-.2.6-.35.4-.7.2-.1q.45-.25.85.15l.25.35.3.25.6.3q.6 0 .9-.65l.4-1.05q.2-.5.55-.5.25 0 .35.3l.1.5.05 1q-.05.95-1.1 1.6l-1 .45-.9-.15q-.75-.2-1-.6l-.35.25-.7.25-.65.15-1.75-.2-.8-.65-.3-.4q-.15-.25-.15-.95l.15-.8q.1-.5.45-.7m20.35 22.15q.65 1.15.9 2.45.2 1.15-.1 3.35l-.3 1.4.15.2 1.35 1.75.4.8h-38.5q-1.1-.75-1.9-1.8l-.7-1.05q-1.55-2.85-1.4-8.5 0-1.45.5-2.05.45-.6 1.3-.6.8 0 1.35.5l.45 1.2.05 1.3q-.05 2.15.15 3.55.25 1.75.9 2.85.7 1.25 1.8 1.95V36.8q.05-1.35.4-2.1l.6-1.15-.05-.05-.25-.8-.9-3.3-.3-2q-.15-1.55.5-3.1l.8-1.1q.6-.45 1.5-.35.75.05 1.45.6l.7.8.3 1.05q.3 2.5.1 4.95l-.05.6.25-.15q2.65-.95 5.6-.85l2.1.25.05-3.95q0-1.45.15-2.1l.3-1.05.35-.8q.5-.7 1.45-.9l1.15-.05.6.1q1.05.15 1.45.75l.25.9q.15 1.25-.5 3.65l-.5 1.9-.25 1.1-.1 1.2-.15.7.2.15 1.45-2.1q1.6-1.85 3.9-2.75 2.35-.9 4.7-.7l1.05.15.55-.25 1.8-.9.85-.5q.55-.3.95-.25.85.05 1.15.85l-.05 1.45-.1.65-.2.45-.3 1-.15.6zm-7.05-1.4-.45-.35-.6.1-.25.55-.2 1.3-.8-.05-.65.1q-.5.35-.35.95.25.6 1.1.6h.65v.2q0 .6.25.85.2.25.55.25l.55-.3.15-.75v-.4h.2l.8.05.5-.5q.05-.35-.3-.55l-.6-.2-.65-.05.05-.9zm-16.1-19q-1.05.5-2-.2t-.85-1.8q.05-.65.5-1.15.4-.55 1.05-.7l1.25.1.95.75q.55.8.25 1.75-.25.9-1.15 1.25"/><path fill="#fff" d="m46.4 29.35-.05.9-.05.9.65.05.6.2q.35.2.3.55l-.5.5-.8-.05h-.2v.4l-.15.75-.55.3q-.35 0-.55-.25-.25-.25-.25-.85v-.2h-.65q-.85 0-1.1-.6-.15-.6.35-.95l.65-.1.8.05.2-1.3.25-.55.6-.1z"/></g></svg>