<svg xmlns="http://www.w3.org/2000/svg" xmlns:ffdec="https://www.free-decompiler.com/flash" ffdec:objectType="shape" width="75.7" height="41.95"><g fill-rule="evenodd"><path fill="#717171" d="M1.85 0h.2l.15.05h.2l.15.05.15.05.15.05.05.05.1.05.1.1.05.05h.15L3.55.4H36.7l22.95.05H73.6l.1.05.15.05.15.05.1.05.05.1.1.05.05.05.1.05.05.05.05.05.1.05.05.05v.05l.05.1.1.1v.05l.05.05v.05h.05l.1.05.05.05.1.05.05.1.05.05.05.05.05.05.05.05.05.05.05.05v.05l.05.05v.05l.05.1v.05l.05.05v.1l.05.05V7.1l-.05.05V18.6l.05.05v17.4l-.05.05v1.65l-.05.05v1.05l-.05.05v.8l.05.05v.35l-.05.1v.2l-.05.05v.1l-.05.05v.1l-.05.05-.05.05v.05l-.05.05v.05l-.1.1-.05.05-.05.1-.05.05-.05.05-.1.05-.05.05-.1.05-.1.05-.1.05-.1.05-.15.05h-.05l-.1.05h-.1l-.25.05H73l-.4-.05h-.25l-.2-.05H72l-.7-.05h-.75l-.35.05h-1.55l-.95-.05h-3.45l-30.95.05H5.25L3.4 41.6h-.3l-.1.05-.1.1-.15.05H2.7l-.1.05h-.05l-.05.05h-.2l-.25.05-.3-.05h-.2l-.05-.05-.1-.05-.15-.05-.1-.05-.1-.05-.1-.05-.1-.05-.05-.05-.1-.1-.05-.1-.1-.05-.05-.05v-.05l-.05-.05-.1-.1v-.05L.3 40.9v-.1l-.05-.05-.05-.05v-.1l-.05-.05v-.15l-.05-.05v-.3L.05 40V9.5l.05-.05V4.5l.05-.05V2.6L.1 2.5v-.05L.05 2.4v-.15L0 2.2v-.5l.05-.05V1.4l.05-.05V1.3l.05-.05v-.1L.2 1.1V1L.25.95V.9L.3.85.35.8V.75L.5.6.55.5.6.45.7.4.75.35.8.3.9.25 1 .2l.15-.05.1-.05.15-.05h.1L1.6 0z"/><path fill="#fff" d="M45.85 26.6v.35l-.05.3V28l-.05.75-.15.4-.05.3-.35.55-1.25.35-1.15-.2q-.4-.25-.5-.75-.15-.45.1-.9l.2-.3v-.15l.05-.35-.75.05v.2l.15.75-.05.35-.05.3-.05.45-.2.2-.6.4-1.1.15-.85-.3q-.6-.45-.35-1.25l.1-.4v-.3l-.1-.65-.55-.15.05.45q.15 1.1-.7 1.7l-.25.2-.7.3q-1.15.25-1.85-.35l-.45-.8q-.1-.55.15-.9l.3-.35v-.1l.25-1.5-.35-.3-.5.3-.05.05.05.45v.1l.15 1.45-.1.6-.3.55-.6.45-1.1.1-.6.05q-.65-.05-.95-.65-.25-.5 0-1.05l.15-.3.1-.9-1.45-.1-.3-.05q-2.05-.45-3.2-1.6-.85-.8-1.35-2-.65-1.45-.8-2.7l-.75-1.4-.65-1.5-.4-1.45q.1-1.1 1.1-1.5l.95-.15h1.8l1.55-1.1q1.15-.6 2.45-.7l.8.05.8-.65.3-.2.7-.45 1.25.05q.65.25.95.85l.25.9.1.3.75.45.35.15q1.15-.15 2.45 0 2.45.4 4.45 1.95 1.8 1.35 2.85 3.2l.4-.1q1.05-.35 2.55 0l.7.25q.7.35.9 1.1.25.8-.1 1.4l-.6.7q-.5.4-1.35.4L46.9 23h-.05q0 1-.4 1.9l-.65 1zM30.95 9.85l.15-.2v-.3l.35-1.1.55-.85.45-.3.45-.1.55.1q.75.45.65 1.25l-.25.65-.75.95-.45.35-.1.15-.2.45-.25.25-.35.3-.85-.05q-.35-.35-.3-.75l.1-.35zm-5 1-.45-.5-.15-.3-.25-.25-.55-1-.05-.5.05-.45.15-.35q.6-.8 1.6-.65l.75.45.45.8.15.55.1.6.1.3V10l.1.8v.2l-.1.5-.35.3h-.65l-.5-.45-.2-.25zm-2.25 2.8-.6-.05-.2-.15-.25.05-.65-.1h-.35l-.55-.25-.3-.1-.3-.15q-.7-.3-.7-1.1l.25-.7.25-.25.85-.2.35.05.5.25.25.05.2.15.35.15.45.35.35.5.6.45.1.35-.2.55zm8.55 3.65q-.25.4-.25.85l-.05.15.15.8.1.15.05.1.2.25.75.55 1 .05 1.05-.55.3-.4.15-.4.05-.75q-.1-.55-.4-.95l-.2-.25-.35-.2-.5-.2q-.4-.15-.85 0l-.35.1-.3.15zm-2.8 3.2v.05l.05.2.05.1v.1l-.05.4-.1.3-.05.1-.9.85-.05.15.05.15.4.3h.2l.3-.05.7-.3v-.1l.55-.4.05-.15.1-.15H31l.4.1h.2l.75-.1.3-.15.4-.4.05-.1.05-.15-.2-.4-.55-.15-.55.05-.45-.15-.45-.5q-.45-.45-.95-.25l-.4.25zm-1.95 1.1.2-.35.1-.3v-.85l-.4-.75q-.55-.55-1.15-.6l-.55.05-.5.2-.5.35q-.65.8-.3 1.8l.25.5.55.45.25.1.6.15.25-.05q.75-.1 1.2-.7"/><path d="M27.5 21.6q-.45.6-1.2.7l-.25.05-.6-.15-.25-.1-.55-.45-.25-.5q-.35-1 .3-1.8l.5-.35.5-.2.55-.05q.6.05 1.15.6l.4.75v.85l-.1.3zm1.95-1.1.15-.4.4-.25q.5-.2.95.25l.45.5.45.15.55-.05.55.15.2.4-.05.15-.05.1-.4.4-.3.15-.75.1h-.2l-.4-.1h-.25l-.1.15-.05.15-.55.4v.1l-.7.3-.3.05h-.2l-.4-.3-.05-.15.05-.15.9-.85.05-.1.1-.3.05-.4v-.1l-.05-.1-.05-.2zm2.8-3.2.55-.55.3-.15.35-.1q.45-.15.85 0l.5.2.35.2.2.25q.3.4.4.95l-.05.75-.15.4-.3.4-1.05.55-1-.05-.75-.55-.2-.25-.05-.1-.1-.15-.15-.8.05-.15q0-.45.25-.85"/></g></svg>