<svg xmlns="http://www.w3.org/2000/svg" xmlns:ffdec="https://www.free-decompiler.com/flash" ffdec:objectType="shape" width="75.4" height="43.2"><g fill-rule="evenodd"><path d="m59.1 41-.4.1-4.3.85-2.45.15-1.85-.2-1-.2-.45.05-.3-.05h-.05l-.6-.2-.15.2q-.5.45-1.3.45H46q-.6.55-1.7.85l-2.55.15h-.4l-1.55.05h-7.15l-.9-.05h-1.1L28.8 43q-1.1-.3-1.7-.85h-.25q-.95 0-1.45-.65l-.5.2H24l-.2.05-.8.15-2.55.2-1.75-.15-4.3-.85-.4-.1-1.85-.45-1.05-.35q-1.7-.65-3.05-1.8l-1.8-1.9-.1-.1-.8-1.2q-1.3-2.2-1.5-4.65-.1-2.35.75-3.75.65-1.05 1.75-1.65t2.35-.6q2.35 0 4.05 1.8l.2.2q1.6 1.9 1.5 4.55l-.1 1.4.1 1.4.9 1.7.8.95q.5.45 1.75.75l3 .55.9.1.55.05.8.1.2-.35.15-.5.45-.7.1-.25.5-1.1.6-.45.4-.1.25.05.35.3.1.25.05.15.25.05.65.5.05-.05.5-.3 1.05.15q.5-.55 1.25-.75l.8-.05.7.15q.75.3 1.2 1.05l.35 1.45 3.05.15 2.35-.05h.25l1-.05.25-.05q-.05-.75.35-1.45.45-.75 1.2-1.05l1.5-.1 1.25.75q.2-.15.45-.2l.6.05.5.3.05.05.3-.3.35-.2h.05l.75-.1-.05.15h-.05q-.25.45-.05.85.25.6 1.15.7h.3l.7-.05.6 1.1.8-.1 4.45-.7q1.25-.3 1.75-.75l.8-.95.9-1.7.1-1.4-.1-1.4q-.1-2.65 1.5-4.55 1.75-2 4.25-2 1.25 0 2.35.6t1.75 1.65q.85 1.4.75 3.75-.25 3.15-2.3 5.85l-1.9 2Q63.7 39.55 62 40.2z"/><path fill="#999" d="M20.45 42.1 18 41.95l-4.3-.85-.4-.1-1.85-.45-.65.65h.05-.05l-.1.05-1.25.3-1-.35H5.2l-1.15-.05H3.7l-.3-.05h-.75l-.05.05-.1.05-.1.1-.15.05-.1.1H2.1l-.15.05h-.1l-.25.05-.3-.05h-.1l-.2-.05-.15-.1-.15-.1-.1-.05-.05-.1-.1-.1-.1-.05-.05-.1-.05-.05-.05-.1v-.1l-.05-.05-.05-.1v-.1l-.05-.05V19L0 18.9V3.6l.05-.1v-.9l.05-.05V2.2l.05-.05v-.1l.05-.1V1.8l.05-.1v-.15l.05-.1V1.4l.05-.1.05-.05.05-.1.05-.1L.55 1 .6.9.7.8.75.75l.1-.1.1-.05L1 .55l.05-.1L1.2.4l.15-.1.15-.05.1-.05h.15L2 .15 3.5.2h5.25l.6-.05h7.4l.9-.05H39.7l5.7-.05h12.65V0h6.8l3.2.05h.5l.35.05h.3l.15.05h.25l.95.05h1.55l.45.05.3.05h.25l.25.05h.25l.2.05.15.05.2.05h.1l.05.05.2.05.2.1.1.05.1.1.05.1.1.05.05.1.05.1.05.05.05.1v.05l.05.1.05.1v.3l-.05.1-.05.05v.1l-.05.1-.05.05-.05.1v.1l-.05.05v.65l-.05.05V4.5l.05.05V6.2l.05.1v1.3l.05.05v2.55l.05.1v8.95l.05.1v1.8l.05.05v.4l.05.1v1.15l.05.05v14.55l-.05.05v.9l-.05.1v.15l-.05.1V39l-.05.05v.05l.05.1v.1l.05.05.05.1v.5l-.05.05-.05.1v.1l-.05.05-.05.1v.05l-.05.1-.05.1-.1.05-.05.1-.1.1-.1.05-.15.1-.2.1-.2.05h-1.1l-.25-.05-.2-.05-.2-.05h-8.6l-1.65-.05h-.55l-.8.05h-1.7l2.9-.8q1.7-.65 3.05-1.8l1.9-2q2.05-2.7 2.3-5.85.1-2.35-.75-3.75-.65-1.05-1.75-1.65t-2.35-.6q-2.5 0-4.25 2-1.6 1.9-1.5 4.55l.1 1.4-.1 1.4-.9 1.7-.8.95q-.5.45-1.75.75l-4.45.7-.8.1-.6-1.1-.7.05h-.3l.3-.05 1.65-.35q1.95-.6 2.9-1.2 1.45-.95 3.15-3.9l1.35-2.6.75-2.35q.9-3.2.9-4.8l-.3-2.35q-.7-3.3-2.15-4.7-1.05-1.05-2.1-.85-.9.15-1.35 1.1-.35.8-.1 1.75l.75 1.95q1.35 3.2.45 6.9-.7 3.1-3.05 6.25-1.45 1.85-2.7 2.35-1.5.55-1.65.65l-.5.5-.05.1h-.05l-.35.2-.3.3-.05-.05-.5-.3-.6-.05q-.25.05-.45.2L43.05 35l-1.5.1q-.75.3-1.2 1.05-.4.7-.35 1.45l-.25.05-1 .05h-.25l-2.35.05-3.05-.15-.35-1.45q-.45-.75-1.2-1.05l-.7-.15-.8.05q-.75.2-1.25.75l-1.05-.15-.5.3-.05.05-.65-.5-.25-.05-.05-.15-.1-.25-.35-.3.2-.25q.45-.7.25-1.45-.15-.65-.9-1.15l-1.4-.8q-3.6-1.95-5.25-7.25l-.35-1.15q-.5-2.3.2-4.75.3-1.05.05-1.55-.4-.55-1.2-.4-.55.2-1.1.75-.85.85-1.2 1.85-.3.75-.45 1.5-.7 3.55.55 7 .55 1.6 2 4.1l.9 1.3q1.25 1.65 3.7 2.6l1.5.4.45.05.1-.3q.45-.55 1-.55l.3.1-.6.45-.5 1.1-.1.25-.45.7-.15.5-.2.35-.8-.1-.55-.05-.9-.1-3-.55q-1.25-.3-1.75-.75l-.8-.95-.9-1.7-.1-1.4.1-1.4q.1-2.65-1.5-4.55l-.2-.2q-1.7-1.8-4.05-1.8-1.25 0-2.35.6T4.6 26.8q-.85 1.4-.75 3.75.2 2.45 1.5 4.65l.8 1.2.1.1 1.8 1.9q1.35 1.15 3.05 1.8l1.05.35L14 41l.4.1 4.3.85zm31.5 0-2.55-.2-.75-.15.45-.05 1 .2zm-3.65-.4h-.75l.15-.2zm-15.65 1.5-1.6-.05h.7zm-2-.05L28.1 43q-1.1-.3-1.7-.85h-.25q-.8 0-1.25-.45l.5-.2q.5.65 1.45.65h.25q.6.55 1.7.85zm-6.6-1.45-.25.05.2-.05zm.65-30.4 2.75-1.15L30.1 8.7q2.8-1.35 6.45-1.5l6.65.35 4.65.7 1.9-.05q.7-.55.3-1.6-.3-.65-1.2-1.25-3.1-2.15-8.7-2.8-7.45-.7-12.15 1.7-2.2 1.15-3.25 2.65-1.4 2.1-.7 4.05l.2.3z"/><path fill="#fff" d="m25.15 34.75-.3-.1q-.55 0-1 .55l-.1.3-.45-.05-1.5-.4q-2.45-.95-3.7-2.6l-.9-1.3q-1.45-2.5-2-4.1-1.25-3.45-.55-7 .15-.75.45-1.5.35-1 1.2-1.85.55-.55 1.1-.75.8-.15 1.2.4.25.5-.05 1.55-.7 2.45-.2 4.75l.35 1.15q1.65 5.3 5.25 7.25l1.4.8q.75.5.9 1.15.2.75-.25 1.45l-.2.25-.25-.05zm21.45.7.05-.1.5-.5q.15-.1 1.65-.65 1.25-.5 2.7-2.35 2.35-3.15 3.05-6.25.9-3.7-.45-6.9l-.75-1.95q-.25-.95.1-1.75.45-.95 1.35-1.1 1.05-.2 2.1.85 1.45 1.4 2.15 4.7l.3 2.35q0 1.6-.9 4.8l-.75 2.35-1.35 2.6q-1.7 2.95-3.15 3.9-.95.6-2.9 1.2l-1.65.35-.3.05q-.9-.1-1.15-.7-.2-.4.05-.85h.05l.05-.15zM24.7 11.3l-.45-.05-.2-.3q-.7-1.95.7-4.05Q25.8 5.4 28 4.25q4.7-2.4 12.15-1.7 5.6.65 8.7 2.8.9.6 1.2 1.25.4 1.05-.3 1.6l-1.9.05-4.65-.7-6.65-.35q-3.65.15-6.45 1.5l-2.65 1.45z"/><path d="m19.1 32.2-.6-.85q-2.65-4-2.5-8.7.05-2.1.85-4.95l-.15-.1q-.75-.35-1.8-1.95l-1.45-2.4q-.85-1.3-1.05-2.1-.35-1.35.3-2.3l1.55-1.1q4.4-2.15 8.15-2.55l1.85-.15 3.15-.25 1.7.15 3.3-.6 4.7-.2 4.4.2q3.3.4 6 1.45l1.5-.05 4.2.1 2.3.25 3.9 1q1.5.55 1.95 1.25.65.85.1 2l-.8 1.15-3.5 3.75-.65.55q1.35 4.15 1.4 6.85.15 4.7-2.5 8.7l-.45.7-.2.2-.35.45-1.55 1.6.8-2.8.35-2.55q.3-3.45.1-5.1l-.5-2.55-.45-1.35.2-.9-.05-1.5-.3-1.5q-.7-2.15-2.5-3.35l-1.35-.7-1.75-.5q-1.75-.15-2.95 1.05l-.9 1.05q-.7.95-.95 1.8-.5 1.5.05 3.1.4 1.4 1.7 2.6 1.2 1.05 2.55 1.5v.15l.8 4.8.25 4.85q-.1 1.55-.5 2.4l-.65 1.55q-.15.6.1 1.15l-2.9.65-4.3.4-2.9-.15-2.6.15-4.3-.4-4.3-1.1-.15-.05-.7-.3-1.05-.5.15.05.2.1.2-1.35-.1-3.55q-.05-2.2.2-3.55.15-.95.45-1.75.55-1.85 1.25-3.3l.15-.05q1.75-.3 3.35-1.7 1.3-1.2 1.7-2.6.55-1.6.05-3.1l-.95-1.8-.9-1.05q-1.2-1.2-2.95-1.05l-1.75.5-1.35.7q-1.8 1.2-2.5 3.35l-.3 1.5v.15l-.05.6v.05q-.6.7-1.1 2.35l-.5 1.95q-.35 1.6-.25 4.2l.1 2.25.2 1.15.1 1.35zM49 22.9l1.4-.25-.45.15h-.15zm-7.8-12.6q-.55.2-.7.65l-.1.4q0 .85.8 1.15.8.25 1.3-.4.55-.7 0-1.35-.55-.7-1.3-.45M30.15 30.65q.25 1.15.95 1.85.85.8 2.1.7 1.05-.05 2.05-.75 1.05-.7 1.4-.65l.15.05V32l.2-.1.1-.05.15-.05q.35-.05 1.4.65 1 .7 2.05.75 1.25.1 2.1-.7l.95-1.85q.45-1.9-.35-3.8-.6-1.65-2.1-3.25-1.4-1.5-2.7-1.8l-.25-1.4q-.4-.65-1.05-.95l-.2-.1H37l-.2-.05v.1l-.2.05q-.65.3-1.05.95-.35.7-.25 1.4-1.3.3-2.7 1.8-1.5 1.6-2.1 3.25-.8 1.9-.35 3.8m8.75-20.8q.55.45 1.25.2.7-.15.85-.85.25-1-.55-1.55l-1.6.1q-.75.7-.35 1.6zm-.45 6.5.95-.55.65-.9.3-.5.15-.45q.25-1.2-.6-2.3-.8-1.1-2.35-1.2-1.75-.1-2.75 1.15l-.45.6-.15.5q-.3 1.25.3 2.35.65.95 1.75 1.35zm-4.3-6.65q-.45-.4-1.1-.2-.6.25-.75.85v.25q-.1.9.85 1.2 1 .2 1.35-.65l.05-.8zm1.25.05.95.15q.5-.05.8-.4l.3-.9q.05-.5-.3-.85-.3-.4-.8-.45l-.9.15-.6.7q-.15.5 0 .95l.2.3z"/><path fill="#fff" d="M20.55 18.35v-.05l.05-.6v-.15l.3-1.5q.7-2.15 2.5-3.35l1.35-.7 1.75-.5q1.75-.15 2.95 1.05l.9 1.05.95 1.8q.5 1.5-.05 3.1-.4 1.4-1.7 2.6-1.6 1.4-3.35 1.7l-.15.05q-1.55.25-2.95-.4l-.55-.3-.2-.15-.05-.05-.75-.6-1-2.3v-.7M46.9 22.6q-1.35-.45-2.55-1.5-1.3-1.2-1.7-2.6-.55-1.6-.05-3.1.25-.85.95-1.8l.9-1.05q1.2-1.2 2.95-1.05l1.75.5 1.35.7q1.8 1.2 2.5 3.35l.3 1.5.05 1.5-.2.9v-.05l-.25.65-1.4 1.5-.15.1-.95.5-1.4.25-.95-.05H48l-.3-.05zm-16.75 8.05q-.45-1.9.35-3.8.6-1.65 2.1-3.25 1.4-1.5 2.7-1.8-.1-.7.25-1.4.4-.65 1.05-.95l.2-.05v-.1l.2.05h.1l.2.1q.65.3 1.05.95l.25 1.4q1.3.3 2.7 1.8 1.5 1.6 2.1 3.25.8 1.9.35 3.8l-.95 1.85q-.85.8-2.1.7-1.05-.05-2.05-.75-1.05-.7-1.4-.65l-.15.05-.1.05-.2.1v-.15l-.15-.05q-.35-.05-1.4.65-1 .7-2.05.75-1.25.1-2.1-.7-.7-.7-.95-1.85"/><path fill="#999" d="m52.85 34.3-.4.35-1.45 1.1-2.35 1.15-.1.1-.2.05h-.05l-.05.05-1.35.4q-.25-.55-.1-1.15l.65-1.55q.4-.85.5-2.4l-.25-4.85-.8-4.8v-.15l.8.2.3.05h.05l.95.05.8-.1h.15l.45-.15.95-.5.15-.1 1.4-1.5.25-.65v.05l.45 1.35.5 2.55q.2 1.65-.1 5.1l-.35 2.55zM23.7 36.2l-3.05-2.25-1.15-1.25-.4-.5v-.6l-.1-1.35-.2-1.15-.1-2.25q-.1-2.6.25-4.2l.5-1.95q.5-1.65 1.1-2.35v.7l1 2.3.75.6.05.05.2.15.55.3q1.4.65 2.95.4-.7 1.45-1.25 3.3-.3.8-.45 1.75-.25 1.35-.2 3.55l.1 3.55-.2 1.35-.2-.1zm17.5-25.9q.75-.25 1.3.45.55.65 0 1.35-.5.65-1.3.4-.8-.3-.8-1.15l.1-.4q.15-.45.7-.65m-5.8-.55-.35-.35-.2-.3q-.15-.45 0-.95l.6-.7.9-.15q.5.05.8.45.35.35.3.85l-.3.9q-.3.35-.8.4zm-1.25-.05.4.65-.05.8q-.35.85-1.35.65-.95-.3-.85-1.2v-.25q.15-.6.75-.85.65-.2 1.1.2m4.3 6.65-2.2.05q-1.1-.4-1.75-1.35-.6-1.1-.3-2.35l.15-.5.45-.6q1-1.25 2.75-1.15 1.55.1 2.35 1.2.85 1.1.6 2.3l-.15.45-.3.5-.65.9zm.45-6.5-.4-.5q-.4-.9.35-1.6l1.6-.1q.8.55.55 1.55-.15.7-.85.85-.7.25-1.25-.2"/></g></svg>