<svg xmlns="http://www.w3.org/2000/svg" xmlns:ffdec="https://www.free-decompiler.com/flash" ffdec:objectType="shape" width="76.9" height="42.3"><g fill-rule="evenodd"><path fill="#999" d="M62.45 1.3h.45l.85.05h.45l.6.05.8.05h.85l.75.05h.4l.2.05.25.05h.2l.1.05h.15l.05.05-.05-.1-.15-.6.3-.25H69l.6.5q.55.8 1.1 2.5l.75 2.6L71.6 8q.25 2.5 0 4.4l-.6 3.05q1.85-3.3 2.35-6.1Q74 5.85 73 2.9q-.3-.8-.25-1.15.1-.75.7-.75l.2.05q.1-.15.3-.15.45 0 .55.85l.55 2.95q.45 2.4.45 7.35V22.8l-.25 1.1-.2.15v.15l-.1.1v.1l.05.1v.25l.05.1v1.75l-.05-.1-1-1.2-.05-.05q-.25-.2-.55-.3l-.95-.2-.35.1.5-.6-.5-.05-.6.1q-.3.1-.5.55-.5.65-.65 1.4l1-.6.15-.1-.1.5.25 1.1-1.3.8V28Q69 29.15 68.6 31.1q-.2.9.1 3.15L68.65 36l-.35.7q-.55-5.6-3.7-10.1 1.4-1.15 2.3-2.65 1.25-2.15 1.4-5.65.2-2.85-.4-4.9l.9-2.35.4-1.55-.1-1.1q-.15-.5-.7-.8-.45-.3-1.05-.25l-2.2.4-.7.15q.1-2.35-.9-4.7l-.05-.1zm12.9 31.95v6.3h.15l.3.05.25.05.2.1.15.1.1.05.1.1.05.1.1.1v.1l.05.05.05.1.05.1v.65l-.05.1-.05.05-.05.1-.05.1-.05.1-.05.1-.15.1-.1.05-.15.1-.15.05-.1.05-.15.05h-.3l-1.45.05H63.3l-2.55-.05H54.2l-1.7.05h-1.1l-3.75.05-2.3.05h-3.4l-.25-.05-.2-.05-.25-.1-.05-.05-.05-.05-.25-.05-.2-.1-.05-.05q-.65.05-.95-.65-.2-.5-.1-1.3 0-1.85-.55-3.6l.25.1.35.05 1.75.2h.35l.05.1.05.05.05.1.05.1v.1l.05.1.05.05v.2l.05.1v.1l.05.1v.05l.05.1v.1l.05.1v.1l.05.05v.1l.05.1v.15l.25-.5.1-.4.1-.2-.25-.85h1.25l.7-.05h.25L46 36.5l3.05-.55q1.75-.55 3.2-1.5Q51.4 37 51.1 39.5l-.2 1.35-.1.55h18.65l.1-.05.3-.25 1.25-1.55.05-.1 1.35-2.25.3-1.35q.25-1.85-.05-3.4-.15-.95.15-1.3l.2-.2.15 1.45q.1.5.55.8l.4.2.5.05zM37.6 32.9q-1.55-3.85 0-7.75l.45-1.2.2-1.2-.15-.85q-.05-.5.2-.75l.8 1.65.05 1.85-.2 2.95v1.05l.6 1.5.5 1-.65.15-.25.1-.65.35-.2.15-.5.6zm3.6-1.85-.55-1.95q-.6-2.6-.65-4-.2-4.4 2.25-8.45l.6-.7.9-.1.15.1-.15.7-.1.65q-.15 1.75.2 3.85.35 2.45.95 3.7l.6 1.05q.8 1.1 1.95 1.9l1.15.65.9.4.2.1.3 2.5v.05l-1.95.35L44 31.4h-.05l-2.7-.35zm5.2-21.4.2-.6.2.65zM46.5 4l-.15.3q-.15 0-.15.3l-.35.95-.3 1.45-.05.35.15.35V8l-.25.05-.3-.65-.2-.75-.05-.5-.05-.25-.05-.2L44.6 4l.15-1.85q.2-.85.75-.95l.55.15.1.1.1-.2 1-.05.1.05-.15.45-.15.2-.2.55zm2.8-.2.15-.25L51.3.6q.2-.65.6-.6.35.05.35.6l-.05.6h7.2l.3.9.3 1.1.2 1q.15 1.35-.45 2.75l-4.9-.2q-2.2.35-4.05 1.2l-1-2.2-.05-.1L49.5 5zm-9.55 10.75.1-.5.15-.3-.05-.35-.85-2.2q-.5-1.2-.55-1.95l.2-1.45.35-1.05q.2-.65.6-.8l.45.1.3.35v.55q-.15.6 0 1.15l.3 1.2.6 1.3.5 1.3.1 1.3-.05 1.1-.35.9-.5.85-.45.6-.5 1.25q-.1.5.05.75l-.75-.05-.4-.7q-.2-.95.35-2.2zM17.5 4.4l3.15-.35 1.2-.35.95-.4-.6-.2h-5.45q-2.25.15-4.05 1.1l.8.2 2.2.1zm4.9-3q1.35.2 1.9.65.4.35.6.85.2.55 0 1l-.9.85-1.85.75q-4.1 1.1-7.95.6-1.65-.2-2.5-.7-.85-.45-.85-1.2 0-.5.45-.85.35-.3.85-.5l2.45-.95 1.4-.35z"/><path d="m59.4 1.2-.05-.1-.15-.8h2.7l.55 1 1.05 1.8.05.1q1 2.35.9 4.7l.7-.15 2.2-.4q.6-.05 1.05.25.55.3.7.8l.1 1.1-.4 1.55-.9 2.35q.6 2.05.4 4.9-.15 3.5-1.4 5.65-.9 1.5-2.3 2.65 3.15 4.5 3.7 10.1l.35-.7.05-1.75q-.3-2.25-.1-3.15.4-1.95 1.75-3.1v-.05l1.3-.8-.25-1.1.1-.5.3-.55.3-.15.35-.1.95.2q.3.1.55.3l.05.05 1 1.2.05.1q.35.55.2.9l.4.35.8 1.1.35.95q-.1.65-.5.95l-.05.05q.1.85-.35 1.65l-.55.7-.65.2-.5-.05-.4-.2q-.45-.3-.55-.8l-.15-1.45-.2.2q-.3.35-.15 1.3.3 1.55.05 3.4l-.3 1.35-1.35 2.25-.05.1-1.25 1.55-.3.25-.1.05H50.8l.1-.55.2-1.35q.3-2.5 1.15-5.05-1.45.95-3.2 1.5L46 36.5l-1.25.05h-.25l-.7.05h-2.4l-1.75-.2-.35-.05-.25-.1q-.85-.3-1.25-.85-.6-.7-.4-1.75l.2-.75.2-.4.5-.6.2-.15.65-.35.25-.1.65-.15 1.15-.1h.05l2.7.35H44l3.95.45 1.95-.35v-.05l-.3-2.5-.2-.1-.9-.4-1.15-.65q-1.15-.8-1.95-1.9l-.6-1.05q-.6-1.25-.95-3.7-.35-2.1-.2-3.85l.1-.65.15-.7.25-.8.05-.25-.8-2.45-.1-.6q.05-1.2.65-1.75.6-.75 1.65-.65l.5.15.3.05.4.05-.2-.65-.3-1.25-.05-2.3.25-1.5.35-1.55.2-.55.15-.2.15-.45.35-.95h1.5q-.35 1.2.05 3.3l.05.2.2 1.2.25.65.05.1 1 2.2q1.85-.85 4.05-1.2l4.9.2q.6-1.4.45-2.75l-.2-1-.3-1.1zM31.35 15.15l.2 1.5v.65q-.05 1.75-.65 3.85l-1.45 3.7q-1.7 2.75-5.1 4l-2.5.65-.85.1q1.7 2.15 4.45 2.25l4-.45 2.8-.35q1.8-.1 2.8.85.7.7.7 1.75.05 1.05-.6 1.75-.65.75-2 1l-2.7.2-6.65-.65q-1.65-.55-3-1.5.65 3.25.55 6.4v.55H2.7l-.05-.05-1.4-1.9Q.45 38.2.2 37.2l-.15-1.35q0-1.85.5-3.4.25-.95 0-1.3l-.55-.4v-3.8l.25-.05q1.8-.3 3.25 1.05 1.25 1.15 1.4 3.15.05.9-.5 3.15-.25 1.05-.2 1.75l.25.7q1.3-5.6 5-10.1-1.25-1.15-1.95-2.65-1-2.15-.7-5.65.15-2.85 1-4.9l-.6-2.35L7 9.5q0-.65.25-1.1.2-.5.8-.8.5-.3 1.1-.25l2.15.4 1 .3.6.2 1.15-.5q4-1.5 7.65-1 4 .6 6.5 3.1l.95-.15.95-.1.5-.15q1.1-.1 1.6.65.5.55.4 1.75l-.15.6-1.05 2.3-.1.15z"/><path fill="#fff" d="M61.35 15.75h.05q.75.05 1.25.55.8.8.5 1.95-.25 1.15-1.4 1.4l-1.35-.15q-.65-.3-.95-.95l-.1-.3.1-.05 1.4-1.15.4-.7zm-12 3.05q0 .65-.4 1.2l-1.2.7q-.75.1-1.35-.3-.55-.4-.7-1.15t.25-1.35q.35-.5.95-.7l.35.6q.55.65 1.6.9zm10.4 2.55.5.05q.45.25.1.8l-.7.6-.85.35-.2.1q.1 1.1-.15 1.6l-.45.55-.45.25q-.45 0-.75-.55l-.05-.45-.3.5q-.85 1.15-1.8 1.2-.7 0-1.35-.5l-.45-.35-.2-.25-.05.45-.5.35q-.45.05-.95-.45l-.65-1-.1-.35-.55-.3q-.7-.5-.75-1.15 0-.35.25-.6t.6-.2q.45.05 1.05.7l1 .05.8-.45.3-.65.25-.8.05-.55q.15-.35.55-.45.4-.05.7.25l.35.6.45.8.6.6 1 .1 1.15-.3.8-.35zM54.9 23.2l-.4-.25-.15.15-.95 1v.45l.5.4.95.1.45-.5.5-.45.15-.45q-.85-.1-1.05-.45M42.85 34.8q-.7.7-1.5.2-.85-.5-.5-1.45.15-.45.65-.7.9-.35 1.45.45t-.1 1.5m-16.6-14.9q-.6-1.05.15-1.9.35-.35.85-.45l1 .1.75.7.1 1q-.15 1.05-1.25 1.25-1.05.2-1.6-.7m-8.2.95.8.5.75-.15.55-.25.45-.3.85.1.5.6.95.15.8-.2q.5 0 .7.35l.15.4q.1.45-.4.75l-.85.35q-1.5.25-2.4-.5l-.3-.15-.3.1-1.9.35-.7-.3-.4-.3-.6-.8-.05-.5q.1-.75.4-1.05l.35-.25q.3-.05.55.2l.1.5zm-4.9-3.15.1-.45.25-.45q.7-.85 1.65-.4.5.2.7.75.25.5.1 1l-.65.8-.95.2q-.55-.05-.9-.5t-.3-.95M33.4 33.75l.25-.25.3-.05v-.05l.35.1.15.3.05.35-.2.25-.2.15h-.25l-.15-.05-.15-.15-.15-.2zm.4-1.25-.1.25v.2l-.15.1-.45.2-.6-.4-.05-.25v-.25l.2-.35q.15-.15.45-.15l.45.15.15.1v.2zm-2.45 2.1q-.3.7-1 .5-.35-.05-.6-.5-.3-.65.3-1.15l.4-.1h.05l.05-.05q.5 0 .75.4zm2.05.45v.3l-.05.25-.1.1-.5.25-.5-.25-.15-.5.1-.2.25-.3.35-.05v-.05l.35.15zm7.4-1.9-.3.2h-.35l-.5-.35-.15-.35.1-.4q.2-.35.6-.35l.05-.05.7.45q.2.55-.15.85m-2 .2.35.15.2.3v.35l-.05.15-.45.3-.5-.25-.1-.2-.05-.15.05-.25.1-.15.1-.1.35-.1zm.85 1.55.1-.15.5-.2v-.05l.4.15.25.25-.1.65-.3.2-.25.1-.2-.05-.4-.35-.05-.3z"/><path d="m59.35 18.25-1.5-.1Q57.3 18 57 17.7q-.6-.6-.2-1.2.2-.35.75-.55l1-.45.9-1 .15-.15.05-.1q.55-.65 1.05-.35l.3.3.2.2.2.8-.05.3v.25l-.1.6-.4.7-1.4 1.15zM46.9 17.2l-.2-.75.2-.85q.4-.4.75-.25l.6.4q.4.35 1.65.55 1.15.2 1.4.95.25.95-.75 1.4l-1.2.15-.5-.1q-1.05-.25-1.6-.9z"/></g></svg>