<svg xmlns="http://www.w3.org/2000/svg" xmlns:ffdec="https://www.free-decompiler.com/flash" ffdec:objectType="shape" width="67.7" height="42.65"><g fill-rule="evenodd"><path fill="#717171" d="M49.15 19.65q.15.35-.35.85l-.6.5q.65-.2.8.3l-.25.8-.1.2-.05.15-.15.45-.15 1.1q-.9 4.35-.95 7.65 1.3 0 2.5.55.65.25 1.85 1.05l.9.7-.7-1.1-.2-.25-.55-.4q-.4 0-.55-.3l-.25-.6q.25-.6.8-.6l.6.1q2 .6 2.55 2.4l.2 1.85-.05.8-.15.5-.05.15h.1l.85.15q1.05.25 1.75.65.95.6 1.2 1.4.35 1-.2 1.85l-.25.3-.85.35-.6-.05-.75-.2h-.55l-.4.25-1.4.85L51.7 42l-.65-.35-.7-.4q-.3-.3-.5-1l-.05-.05-.3-.25-.45.05q-1.15.4-2.4 1.15l-.9.55-1.1.15q-.8-.05-1.3-.45l-.45-.1-.65-.25-.3.05-1-.05q-.65 1.15-1.85 1.45-1.1.4-2.3-.35l-.95-.6-1.2-.05q-1.75.15-3.35-.45-1-.5-1.55-.65l-2.2-.4q-.7-.15-1.15-.45h-.05q-.85 1-2.95 1.4l-4 .4-4.05.05-7.9-.1-5.7-.2L0 40.75V17.6q.65-.65 1.8-1 2.6-.7 4.95.55l1.65 1.2q2.25-1.85 4.75-2.3 3.1-.55 5.6.95 1.35.8 2.3 2.15 1.75-1 4.25-.7 1.9.25 3.3 1.15l.4.3-.2-1.75-.3-.85-.7-.4-1.9-.75-.5-.4q-.1-.3.3-.6l.6-.3 1.3-.15 1.65.6.65.45.4.5q1.95 3 1.1 6.35l-.2.75.2 1.05.15 1.9 3.55-.65q3.7-.8 6.8-2.25l1.65-1.25q1.6-1.2 2.55-1.5l.45-.1 1.6-1zm-5.5 5.3-2.95 1.9L36.95 29l-5.5 2.5 2.55-.45L40.05 28l1.5-.9 3.15-2.6 1.35-1.4.5-.75.1-.1zM17.2 14.7l-3.7-.2-1.2.2-1.65.5-.65.1q0-.2.15-.45l.65-.95q2.4-1.5 3.9-1.6l1.3.05q1.05.1 1.5.35l.75.65.8.9.25.7v.4l-.2.25h-.25l-.35-.25-.4-.2-.35-.3z"/><path d="M52.85 5.3q.45-1.55 1.7-2.6l.1-1.45.3-.7q.5-.8 1.4-.45l.85.45.55.3.75.55.65-.05 1.5.25q1.55.4 2.85 1.9l1.15 1.65.5.2 1.75 1.3q.95.75.8 1.5l-.2.65-.4.4-1.95 1.4-.15.6q-.45 1.3-1.7 2.15-1.25.7-2.65.75L58 14.05l-.1.35-.75 2.2-.5 1.2-.25 1.15-.1.6 2.05-.05.85.35.8.5q.5.45.65 1.5.1.7-.2 1.65l.05.3.2.15.75 1.1q.35.65.15 1.35l-.65.95-1.15.45-1.9-.75-.9-.5-.65-.95q-.1-.7.1-1.2l.55-.9.3-.75v-.15l-.15-.05-1.65.15-.9.05-.05.05-1.45 1.9-1.7.9-2.05-.2q-.95-.35-1.7-1.3l-.6-1.05q-.85.15-1.6-.3l-1.35 1q-1.1.7-1.95.7l-2.35-.8-2.35-.15-.55.6-.55.7q-.5.4-1.25.25-.8-.1-1.2-.7-.35-.55-.35-1.3-.05-.65.3-1.2.6-1.05 1.95-1.6l4.45-.1 1.15.6.7.55 1.5-.15.25-.05q-.45-1.15-.3-2.25.25-1.15 1.35-2.45l-.1-.8-.1-.75-.55-.7-.55.05-.95.2q-.6.4-.85.4l-1.3-.05-1.05-1q-.3-.75-.3-2.4l.15-.9.6-1.15.8-.7 1.3-.05q.6.25.9.95l.25.3.45.15q1.4 0 2.6.75 1.2.9 1.75 2.25l.2.5.75-.8 1.45-1.1q.3-.2 1.45-.65l1.05-.75.45-.15q-.5-1.1-.65-2V6.7zm6.1 3.9.4-.6q.15-.35-.1-.7-.25-.3-.65-.2l-.4.3-.05.05-.4.05q-.7.1-.95.3-.3.3-.25.5l1.2.9.3.1.15.5.1.2.3.1.25-.2v-.2l.2-.8zM59 4.3q-.1-1.25-1.35-1.6-1.15-.35-1.95.7-.4.55-.3 1.3.05.75.6 1.2.55.4 1.25.4.75-.05 1.25-.55.55-.65.5-1.45m2.15 3.95q-.2.7.05 1.4t.85 1.05l1.4.25q.7-.15 1.2-.7.45-.5.5-1.3 0-.75-.4-1.3-.75-1-2-.75-1.15.15-1.6 1.35"/><path fill="#fff" d="M61.15 8.25q.45-1.2 1.6-1.35 1.25-.25 2 .75.4.55.4 1.3-.05.8-.5 1.3-.5.55-1.2.7l-1.4-.25q-.6-.35-.85-1.05t-.05-1.4M59 4.3q.05.8-.5 1.45-.5.5-1.25.55-.7 0-1.25-.4-.55-.45-.6-1.2-.1-.75.3-1.3.8-1.05 1.95-.7 1.25.35 1.35 1.6m-.05 4.9.1.3-.2.8v.2l-.25.2-.3-.1-.1-.2-.15-.5-.3-.1-1.2-.9q-.05-.2.25-.5.25-.2.95-.3l.4-.05.05-.05.4-.3q.4-.1.65.2.25.35.1.7z"/></g></svg>