<svg xmlns="http://www.w3.org/2000/svg" xmlns:ffdec="https://www.free-decompiler.com/flash" ffdec:objectType="shape" width="76.75" height="43.1"><g fill-rule="evenodd"><path fill="#999" d="M1.55 4.8v-.05l-.1-1.3q.15-.85 1.05-1.6l1.1-.5q.35-.4 1.05-.5L5.9.7 7.2.4l2.9-.05L14.15.1q3.55-.2 6.3 0 1.2.1 1.6.6t.1 1.3l-.8 1.1q-3 3.2-6.6 3.4-.2 1.3-1.55 2.3-1.1.7-2.65.95l-2.5-.05h-.4q-.25.05-.25.5-.25 2.1-1.65 3.35-1.55 1.4-3.5 1.15-1.05-.1-1.4-.8l.05-.8q.2-.45.6-.4-.2-.75-.1-1.85l.15-1.35-.1-1.5zm74.3 2.85.05.2.3.15q.45.35.45.8.1.45-.4.85l-.95.4-1.85-.1-1.25.3-1.6-.05-1.35-.25-1.05-.7-1.85-1.65-.55-.85-.1-.25-3.05-.35q-1.6-.6-3.2-2.75l-.3-.4q-.4-.85-.05-1.6.45-.8 1.3-.75l.3.05q.2-.2.45-.2.55-.15.95.35l1.2.1 3.35.15 5.9-.4 1.8.25.8.7.75.55.6.65q.35.65 0 1.5l-.6 1.35-.35 1.05.15.25.1.45zM62.95 20.9l.2-.9q.15-.2.6-.3l.6-.05.4.5.45.95.6 1.1q.55.7.35 1-.15.3-.85.3h-2.7q-.5-.15-.3-.75l.35-.8zm-7.15 6.4.7-.1.55.45.05.95-.5 2.35-.3.6-.55.2q-.35-.05-.55-.3l-.3-.7-1.05-1q-.55-.55-.55-1.15 0-.75.65-1.1l.65.05.4.45.05.5q-.05.35.05.5l.25-.9q.15-.6.45-.8m.15 5.15 2.15-1.25q1.05-.45 1.45-.3.55.2.55.7v.6q-.1.55.1 1.65l.2 1.45v.8l-.2.75-.45.2-.4.8-.85.35q-.5 0-.9-.5l-.5-.9-.1.35q.1.55-.35 1l-1.05.05-.5-.55-.65-.9-.8-.85-.6-.45q-.35-.35-.25-.9.05-.5.7-.85.15-.1 1.05-.5zm10.8-1.15q.5.1.65.6l.25.9q.25 1.05.85 2l.25.7-.4.4q-.35.05-.5-.25l-.7.85-1.05.2q-1.35-.2-1.5-1.4l-1.2 1.15q-.8.8-1.5.35-.55-.3-.35-1.1l.6-1.05q1.05-1.15 3.55-2.95.6-.5 1.05-.4M46.7 36.7l1.4-1.5q.8-.9 1.45-.75.45.1 1 1.1l.4 1 .2.75q0 .5-.35.65-.4.15-.75-.2l-.5-.6-1.2 1.2q-.65.95-1.2 1.05-.5.1-.95-.3-.4-.4-.35-.95.05-.65.85-1.45m27.15-7.8q-1.2 1.45-2 3.5l-.45.6q-.5.25-1-.6l-1.25-2.45-.35-.15q-.2-.2-.1-.45.1-.35.7-.65l1.7-.7 1.7-.8q.55-.45.9-.5.35 0 .55.3l.25.65zm2.6 4.6q0 .85-.5 1.6-.55.75-1.35 1.05l-2.2.3q-1.45 0-1.8-.5-.3-.45 0-1l.85-.6 2.7-1.7q.95-.65 1.45-.55.85.25.85 1.4M31.05 9.45q.5.2.7.75.25.6 0 1.1l-1.2 1.05-2.15 1.05-1.7-.05q-.65-.65.05-1.8-1.1-.5-1.4-1.15-.2-.4-.05-.9t.55-.65q.55-.15 1.45.25l2.05.25zM19.65 34.7l-.85-.25q-.6-.2-1.25-.6l-.85-1.05q-.15-.5-.15-1.15l.15-.95.2-.4q.5-.65 1.1-.85.7-.25 1.4 0T21 30.9l.4.6.25.9.45.75.75 1.75.15.8-.05.4-.5.6-.5-.1Q21 36 20.5 35.2l-.35-.4zm-8.4-4.25.05-.45.25-.5q.3-.4.85-.55l1 .1q.45.2.65.75l.05 1-.55.8-1 .2q-.5-.05-.85-.45-.4-.4-.45-.9m19.35 2.9.85-.75 1.45-.8.2-.15.15-.25.65-1.45.6-1q.4-.35 1.35-.35 1.25.1 1.85 1 .65 1.05-.1 2.4l-1.7 1.75-.85.55-.85.3q-.5.2-.75.45l1.4.6.85.15 3.85 1q.8.2 1 .7l-.1.7.35.8q.15 1.05-1 1.7l-2 .4-5.75.05H30.6L29.1 41l-.85-.5-3.25.6-2.5-.05-3.45.25-4-.2-1.9-.4q-1.05-.6-1-1.5.05-1.2 1.65-1.6 1-.25 2.55 0l2.6.3 2.55-.3 3.05.25 2.9-.35 1.2-.75 1.05-.6.25-.45.25-.95q.05-.95.4-1.4"/><path d="m69.55 26.25-1.1-.55-.6-.2-.85-.05q-.3-.25-.15-.65.05-.25.35-.55l1-1.35.8-1.65.45-.95.7-.1.55.45.2.45v1.1l.15.85q.25 1.15 0 2.25-.1.95-.7 1.15l-.65-.15zM13.95 26q-2.35-2.15-3.1-5.75-.6-3.15.2-5.5.75-2.5 2.9-4.15.8-.55 2.5-1.45l2.9-1.25 1.15-.25.2-.15.75-.45 1.7-.55L27 6.05l1.25.15q.9.35 1.1 1.15.3.8-.2 1.55l-1.25 1.2 1.15 1.05q2 2.1 2.65 4.55l.05.2q2.05-1.1 4.9-1.65l3.6-.4q4.8-.1 8.35 2.25l-.05-1q-.05-1.35.3-3.25.35-2.45.65-3.6.45-1.95 1.3-3.3 1.2-2 2.95-2.55l2-.05q1.05.25 1.65 1 .5.6.7 1.75.1 1.1-.25 1.85l-1.6 2q-1.85 1.95-2.65 4.6l-.7 3.5-.6 3.1q1 1.7 1.15 3.55v.55l1.6.7q1.45.65 2.4.5-.5-1.1-.5-2.05.1-1.25 1-1.8.4-.25 1.25-.35l1.1.1q1 .4 1.35 1.8.7 2.3-.15 4.55l-.95 1.35-1.6.45-3.05.05-3.75-1.3q-1.6 1.7-4.35 1.5-1.55-.1-3.85-.95l-.55 1.25.9.65q.95.45 1.7 1.05 1.05.9 1.4 1.9.25.75 0 1.35l-.65.75q-.7.75-1.7.5l-1-.45-3.85-2.5-1-.95q-.65-1-.4-2.65.2-1.3.75-2.5l-.95-.25-2.55-.25-3 .15-2.45.85-.4.6-1.5 2-.5 1.2-.05.2.8 1.3q.5 1.5-.35 2.75-1 1.35-2.5 1.1-.7-.1-1.25-.6-.55-.55-.7-1.25l-.05-.55q-.45-.8-.5-1.85l.15-1.3q.3-1.75.95-3.1l-.2.05-2.5.3q-5.15.1-8.05-2.55m49.25 8.95-1-.85-.6-.7-.8-.65q-.35-.55-.05-1l.8-.8.45-.45.55-.25 3.55-1.8q.5-.3.8-.3.35 0 .6.35.2.35 0 .7l-.3.4-.9 2.85-.1.45-.15.3-.1.3-.15.45-.1.45.1.35.05.3.4.35.05.05 1.7-2.1 1.55-1.8.35-.55q.25-.25.6-.2.25.05.3.25l.4.2q.3.25.4 1.25 0 1.3.3 2.5l2-.2H75l.8.6q.1.4-.15.8l-.6.5v.05q.5.4.6 1.2v.75q.95.3 1.1 1.4.1.55-.2 1.05l-.8.7q-.95.3-1.75-.5l-.65-.85h-.7l-3.25-.05-.95-.1-.75.55q-.75.25-1.7-.3l-.2-.15-.4.2-2.15.3-5.75.4-1.55-.2q-.85-.4-1.1-1-.4-.1-.85.25l-.65.6-1.45.25-4.05-.4-.15.3q-.3.5-.9.4-.45 0-.7-.3l-.4.05-4.55.2-.75.35q-.65.05-1.1-.4-.7-.35-.6-1l.05-.4.05-.1-.4-1.75-.15-.7-.15-.55q-.35-1 .3-1.6.4-.4.95-.3l.8.2L43 36.4l.85.55.75.3.5.3.65.15v-.15q0-.45.15-.65.3-.45 1.3-.35l2.6.2.25-.05.1-.2q.5-1.45 1.1-2.5l.6-.95.85-1.15.7-1.05h.35l.3-.1q.6.05.8 1 .5 1.9.65 4.15l1.55-1.3.05-.05q0-.3.25-.5.3-.25.65-.25.4 0 1.3.55l2 1.25.7.3.55-.25.8-.55zM48.45 32.1l-.3-.4q-.15-.4.2-.65.2-.2.6-.3l1.15-.45.55-.25.55.15.15.55-.25.4-.15.4-.3 1.2-.1.7-.15.85-.7.05-.45-.6-.25-.55-.35-.5zM24.4 15.3q.05-.6-.3-1.15l-.85-.8q-1.25-.5-2.25.4-.4.4-.55.95-.15.7.25 1.4.35.7 1.05.95l1.4-.05q.7-.3 1.05-.95zm-6.85 8.55.7-.25.55-.4.35-.55.2-.55q.45.35.85.35l1.1-.1.65-.3.45-.4.5-.5q.3-.45.15-1l-.4-.9-.45-.4-.35.05-.4.3.05.55q0 .5-.6.8l-1.6-.15-.4-.2-.5.05q-.25.1-.35.35l-.15.55-.15.45-.25.35q-.5.55-1.5.25l-.8-.05q-.35.2-.15.6l.45.5.75.5h.65zM14.1 17.7q-.3-.55-.9-.7-.6-.2-1.15 0-.65.2-1 .85-.4.6-.2 1.25.15.7.75 1.1l1.3.3q.65-.1 1.1-.7.45-.55.4-1.25zM5.75 41.55l-1.2.2-1.45-.25q-.8-.35-.95-1.05-.5.15-1-.25l-.65-.9-.15-2.2-.1-2.25-.2-2.3v-1.3q.15-.75.7-1.1l1.15-.25q.4-.75 1.25-.95.95-.2 1.95.5l.4.4.4.1q.55.3.95 1.1l.85 2.15.3.6 3.3-.35.7-.4 1.5.1q.75.45.85 1.25l.05.7.2.7v.65l.4.05 1.3.05q1.05.2 1.6 1.2l.75 1.95.1.5q.3 1.2-.2 1.95-.6 1.05-1.7.95-1.2-.1-1.6-1.15l-.15-.5-.55.2q-.65.05-1.25-.5-.45.5-1.2.65-.95.25-1.7-.25l-.5-.25-.7.1-2.35-.05-.55-.1z"/><path fill="#fff" d="m14.1 17.7.3.85q.05.7-.4 1.25-.45.6-1.1.7l-1.3-.3q-.6-.4-.75-1.1-.2-.65.2-1.25.35-.65 1-.85.55-.2 1.15 0 .6.15.9.7m3.45 6.15-.65-.1h-.65l-.75-.5-.45-.5q-.2-.4.15-.6l.8.05q1 .3 1.5-.25l.25-.35.15-.45.15-.55q.1-.25.35-.35l.5-.05.4.2 1.6.15q.6-.3.6-.8l-.05-.55.4-.3.35-.05.45.4.4.9q.15.55-.15 1l-.5.5-.45.4-.65.3-1.1.1q-.4 0-.85-.35l-.2.55-.35.55-.55.4zm6.85-8.55-.2.75q-.35.65-1.05.95l-1.4.05q-.7-.25-1.05-.95-.4-.7-.25-1.4.15-.55.55-.95 1-.9 2.25-.4l.85.8q.35.55.3 1.15"/></g></svg>