<svg xmlns="http://www.w3.org/2000/svg" xmlns:ffdec="https://www.free-decompiler.com/flash" ffdec:objectType="shape" width="69.1" height="40.75"><g fill-rule="evenodd"><path fill="#999" d="M59.15.85Q65.8 3.1 68 8.05q.7 1.45.95 3.25.55 4-1.25 7.8-1.85 3.85-5.3 5.85-2.65 1.6-6.6 2.2l-3.45.2-2.9-.6-3.2-.95q-2.3-.95-4.05-2.75-1.8-1.85-2.6-4.15-.85-2.3-.7-4.8t1.3-4.7l1.9-2.9q2.5-3.15 4.45-4.4 1.4-.85 3.15-1.4Q53-.2 55.75.05q1.5.2 3.4.8M45.1 21.6q1.4 1.1 3.65 1.9 4.9 1.55 9.2.35 2.25-.6 4.15-2.05 1.95-1.45 3.05-3.45 2.15-4 .75-8.25-.5-1.55-1.4-2.6-.85-1.1-2.3-2.05-2.6-1.75-5.75-2.25l-6.1.3q-3 .9-5.25 3.2-2.3 2.3-3 5.25-.65 2.65.15 5.3.8 2.7 2.85 4.35m6.55-4.85L49.2 17l-1.05-.25q-.35-.35-.1-.8l-.3-.45q-.35-.7-.1-1.6l.15-.65-.1-.8-.15-.5-.15-.85q0-.6.4-1.1.45-.55 1.2-.7l2.45-.1.95.1q.55.15.95.7l.3.75-.3 2.45-.15.65-.15.35.9-.1 1.7-.05 2.1.3 1.15.35q.8.45.7 1.4t-.9 1.25l-1.7.05-1.35-.45-1.35-.25zm-36.1-3.3 1.2-.2q.7 0 1.05.45.45.5.35 1.1-.1.8-.9 1.25l-.7.25.2.15q.25.4 0 .8l-.7.45-.4.1-.1.3q-.15 1-1.25 1.1l-.85-.2q-.45-.25-.6-.7-.25-.75.2-1.45.45-.6 1.25-.85h.1q-.5-.25-.65-.85-.15-.7.35-1.2.4-.5.8-.5zm-3.4-3.5h-.9l-.95.15q-1-.1-1.25-1.05-.05-.4.15-.85.2-.4.55-.55l2 .2q.85.25 1.45.65.7.55.85 1.25.1.65-.3.8l-.85-.1zm.85 5.9.1.5-.25.55q-.45.45-1.15.2-.5-.3-.5-.7v-.35q.2-.5.55-.65h.65z"/><path d="m60.35 7.35.1.9.45.05q1.05.25 1.3.5.45.45.3 1.05-.05.6-.7.85h-1.2l-.3-.05-.25.85-.95.55q-.6 0-.95-.55-.35-.45-.15-1.35l-.2-.05q-1.05-.4-1.1-1 0-.45.35-.7.45-.45 1.6-.4l.2-.6.25-.6q.25-.3.55-.3.6 0 .7.85m-7.15 10.6 4.5.1.35-1.35q.1-.75-.35-1.35l-.5-.4-.75-.45-1.05-.3-.8-.05-1.5.35-.55-.2h-.05l-1.85-.05-.45-.25q-.25-.25-.1-.45l.4-.3q1-.45 1.7-.5v-.05l-1.5-.15-.4-.05-.35-.25q-.1-.3.3-.5.6-.4 1.7-.6h.4l.15-.7-4.15.1.05 5.35-.1 1.15-.1.85.8.5zm6.9-2.65q.2.8.05 1.75l-.5 2.25-.3.7q-.25.4-.9.5H57.4l-4.25-.25-4.2.15-.8-.05-1.15.2q-.6 0-1-.5-.2-.25-.3-.9v-1.6l.1-1.6.15-5.9q0-.6.15-.85.2-.35.75-.65l1-.25 3.95-.25 2 .15q.7.1 1 .45.25.3.15.9l-.25.9q-.3.65-.45 1.5 2.65-.05 4.6 1.65.95.8 1.25 1.7M28.2 3.05q1.9-.3 4.6-.05 2.2.25 3.95.85l2.6-.7 2.55-.85.65-.25q.65-.1 1.05.3.4.35.5 1.05l-.5 1.4-.85 1.45-.45.7-.35.9q.95 1.65 1.3 3.9.8 4.5-1 8.7-1.6 3.7-4.65 5.8l4.15.2 4.05-.55 1.85-.85v-.45l.2-.95.9-.8 1.45-.3q.8.15 1.25 1l.5-.1q1.35-.15 2.35.6.65.5.9 1.45.2.85-.05 1.7-.5 1.6-2.25 2.55-1.2.75-3.25 1.1l-5.35.65-4.7-.4-1.8-.3.7 1.6q1.5 3.75 1.45 7.05h-21l-.1.2-1.1.8-1.1.3q-.55 0-1.35-.6-1.25-1-1.95-2.5-.65-1.55-.6-3.15l-.15-1.75-.6.15-.6.25q-.35.25-.65 1.2L9.9 35l-1.1-.15q-.6-.4-.85-1.35-.15-.35-.15-.85-.05-1.3 1.15-2.25.85-.65 2.35-1l2.25-.15q1.05.25 1.8 1.15.7.9.9 2l.2 2.6.45 1.2q.65-3.3 3.15-7.65l1.3-2-2.25-1.45q-2.3-2-2.95-5.35v-.15l-.5.1-6.9 1.5-.85.1q-.7-.1-.95-.75l-.3-1.2.15-2.05.05-.55-4.1.4h-1.1q-.65-.1-1.1-.6-.45-.45-.55-1.1-.05-.65.25-1.25.35-.6.95-.85l1.15-.25 1.8-.15 2.3.1.25.05.15-.3q.4-.45 1.55-.55l4.9-.4 3.75.15v-.05l-.25-.35-.7-1.1-.55-.75-.3-.9-.6-1.45q-.25-.9.05-1.5.35-.85 1.1-.9l1 .05.7-.05 1.6.15 3.3.5q2.9-2.05 5.8-2.6m2.95 14.65-.7.95-.85.75-1.15.45-1.2-.15-.55-.4-.65-.1q-.25.05-.35.5l.1.6q.5 1.05 1.9 1.3.85.2 1.7 0 .25.8.9 1.4.75.65 1.65.7 1 .05 1.8-.7.8-.7 1.05-1.7l.05-.4 2.3-.4q1.55-.65 1.8-1.8.1-.8-.4-1-.35-.15-1.2.45-.8.6-1.8.7-1.05.1-1.9-.4l-1.15-.75q-.85-.4-1.35 0m3.6-4.8q-.15.35-.05.85.1 1 .9 1.65.8.55 1.85.4l1-.3q.95-.45 1.1-1.5.25-1.05-.4-1.85-.4-.6-1.1-.9l-1.35-.2q-.7.1-1.25.65-.55.5-.7 1.2m15.4 4.9q-.7.35-1.15-.3l-.25-.7q.1-.5.35-.7.5-.4 1.05-.15l.6.6q.15.4-.1.8zm-27.8-2.9h.3l-.6.3-1.3.9-.35.5q-.1.35.05.6.2.3.55.2l.45-.25q.3-.25 1.2-.45l.55-.2 1.2-.2 1.6-.45q.45-.25.55-.75t-.25-.85l-.05-.05-.15-.4q-.35-.55-1.35-.65l-1.55.15-1.5.25-1.2.2q-.7.2-.8.8l.15.6q.2.25.5.25l.55-.3zm-6.65-.7-2.65.05-3.75.45v3.9l6-1.4.65-.15q.05-1.4.4-2.85zm-2.95 8.3 1.55-1.4q.6-.45.75-.55l.5-.15.25.35-.05.45-.55.75q-.25.4-.3 1.35l-.25 1.4-.85.65-1.1-.1q-.5-.25-.65-.85-.2-.6.05-1.1zm19.2-2.6 1.3.7-.4.85q-.45.55-1.2.3l-1-.65zM10.6 22.3q.25.25-.05.6l-.45.4q-.65.5-1.15 1.85-.35 1.05-.7 1.3l-.85.15-.75-.35q-.6-.7-.2-1.6l.65-.75q1.15-1.1 2.75-1.65z"/><path fill="#fff" d="M34.75 12.9q.15-.7.7-1.2.55-.55 1.25-.65l1.35.2q.7.3 1.1.9.65.8.4 1.85-.15 1.05-1.1 1.5l-1 .3q-1.05.15-1.85-.4-.8-.65-.9-1.65-.1-.5.05-.85m-3.6 4.8q.5-.4 1.35 0l1.15.75q.85.5 1.9.4 1-.1 1.8-.7.85-.6 1.2-.45.5.2.4 1-.25 1.15-1.8 1.8l-2.3.4-.05.4q-.25 1-1.05 1.7-.8.75-1.8.7-.9-.05-1.65-.7-.65-.6-.9-1.4-.85.2-1.7 0-1.4-.25-1.9-1.3l-.1-.6q.1-.45.35-.5l.65.1.55.4 1.2.15 1.15-.45.85-.75zm-8.8-2.8-1.45.2-.55.3q-.3 0-.5-.25l-.15-.6q.1-.6.8-.8l1.2-.2 1.5-.25 1.55-.15q1 .1 1.35.65l.15.4.05.05q.35.35.25.85t-.55.75l-1.6.45-1.2.2-.55.2q-.9.2-1.2.45l-.45.25q-.35.1-.55-.2-.15-.25-.05-.6l.35-.5 1.3-.9.6-.3zm9.6 5-1.3 1.2 1 .65q.75.25 1.2-.3l.4-.85z"/></g></svg>