<svg xmlns="http://www.w3.org/2000/svg" xmlns:ffdec="https://www.free-decompiler.com/flash" ffdec:objectType="shape" width="78.5" height="43.5"><g fill-rule="evenodd"><path fill="#999" d="M7.3 18.9q-.95 1.9-3.35 3.85l-1.6.95-1.8-.2-.5-.8q-.1-.5.15-.85l.85-.65.65-.7-.05-.95V17.7l.1-1.85-.2-1.9L1.4 11V4.35l.3-1.5q.45-.7 1.45-.9h1.8q3.25.2 6.55-.8L13.8.6h.65l.5-.4 1.6.1.65 1.05 1.2.05.95.1.5-.55q.7-.6 1.55-.25.8.35 1.2 1.1.55 1.15-.1 2.1l-.65.7q-2.5 2.15-5.15 2.5l-2 .1-1.85-.15q-1.15.9-2.3 1.4l.05.65q0 1.75-.8 3.15-.65 1.2-1.95 2.15.65 2.15-.55 4.5m43.6-14-.55-.4-.75-.7-.55-.85-.05-.4V1.5l.5-.8.95-.25.8.3q.6.3 1.95.65l.35.05.3-.05.65-.6q.85-.85 1.95-.35l.8.75q.3.5.2 1l-.3.75-.35.6-.6.5-1 .65-.75.3-1.1.3-1.2-.1-.75-.15zm18.8 12.55-.5-.7-.4-.95v-.65l.1-1.3-.55-.55-1.4-1.95q-.55-1.15-.45-4.05-3.55.1-5.85-1.8-1.2-.95-1.55-2.1-.35-1.55.75-2.4.55-.4 1.25-.3t1.05.65l2.25.15 2.75-.2q3.1-.25 6.75.05 2.2.1 2.95 1.2.4.55.4 1.7.25 3.8-.9 7.5-.15.4-.15.85l.4.65.8.7.75.7q.6.9.1 1.95l-.8.9-.25.95-.7.8-.75.45-1.5.2-.1-.7q-.3-1.3-1.5-1.8zM44.25 7.6v.2q-.1 1.3-1.3 1.8l-1.55-.1-.15-.1q.25-.2.65-.3 1.45-.45 2.15-1.2zm-3.75 3.2q.55.7.7 1.55l.25-.05q2.35 0 4.15 1.55l.6.65q.35.6.35 1.25l-.3 1.35h-.05l-.25.45-.9.85-.95.55q-1.1.15-1.55-.95-.35-1.05.5-1.8l-1.5-.15-.6.65-.3.4.15.45q.3.8-.2 1.65-.45.75-1.4.85l-1.05-.2q-.6-.15-1.05-.6-.6-.75-.5-2l-.75.45-1.4.35-2.1-.05q-1.15-.35-1.7-1.15-.65-1-.35-3.1l.3-1.55q-1.5.3-2.1 0-.85-.3-1.2-1.25-.35-.8-.1-1.8l.25-.9.5.7q.7.55 1.65.35l1.7-.55.65.05.25.5.2 1.2q.3.75.95.6.6-.15.6-1.15.1-1.15-.3-2.2-.3-.75-.8-1.2l.75.7q.45.7.45 1.65l.8-.2q2.05-.3 3.75.5l.45.25-.2 1.25q-.1.55.05.9.3.6.75.45l.65-.85zm14.3 24q-.5-.8-.35-1.9.25-1.1 1.1-1.55.7-.45 1.65-.35.85.1 1.45.7.65.65.65 1.45l-.25 1.15-.45 1-.95.65-1.6-.1q-.8-.35-1.25-1.05m-21.9-3.1q.55-.65 1.45-.45.85.25 1.1 1.05l.2.75.7.6.9.25h1.25q.7-.2.85-.75l-.75-.95q-.25-.6-.1-1.15.1-.6.65-1 .5-.45 1.1-.4l.9.2q1.3.45 1.75 1.3l.6.1q.65.2.85.75.45.05.95-.3l.95-.6 1.1-.25q.65.05 1.05.45.75.85.3 2l-1.4 1.55q-1.85 1.25-3.55.9-.7-.1-1.25-.5-.8 1.5-2.35 2.2l-1.1.4h-1.3l-2.8-.5q-1.4-.6-2.15-1.9-.75-1.4-.35-2.85zm44.05 7.15-.5 1.6q-.75 1.35-2.35 1.75l-3.3-.1-1.05-.35q-.6-.1-1.4.3l-1.3.75q-1.8 1.2-3.1.4l-.8-.9-.75.05-3.45.05-.55.05-.3.15-.5.15-1.3-.1q-.75-.3-.9-.9v-1l.25-.6q.3-.4 1.25-.85l1-.25 1 .05 2.6.1.9.15.85.5.1.1.5-1.1L65 37.3q1-.95 2.35-1.65 1.7-1.05 4.05-2.05l.45-.3.1-.7q-.1-1.5.6-2.95.65-1.45 1.9-2.4 1.2-.9 2.15-.45.85.4.75 1.55-.05.8-.85 1.5.7.4.95 1.1l.15 1.5-.1 2.35zm-11.5-7.4-.25-.9v-.15l.15.15.2.45zM20.7 17.7l1.05-.45 1.45-.2q.75.2 1.35 1.35.45.8.5 1.5l.1 2.05-.1 1.05-.4.55-.75.65-1.25.2-1.25-.1-1.1-.5q-1.1-.75-1.25-1.9l.05-1.05.35-1.5.3-.7q.4-.55.95-.95m-1.15-6.35q0 .75-.55 1.35-.55.65-1.3.7-.75.1-1.4-.4-.65-.45-.85-1.15-.35-1.35.7-2.15 1-.85 2.2-.25 1.2.55 1.2 1.9m-9.9 6.25-.1-.25.1-.55.1-.3q.6-.85 1.6-.5l.65.6.05.1q-1.15.15-1.8.5zm15.7 16.75-.75-.2-1.25-.55q-1.35-.9-1.25-2.5l.1-.65q.15-.7.45-1.1l.8-1 .75-.2q.7-.05 1.2.45.5.55.25 1.25l-.05.65.7.1q-.3-1 .45-1.85.8-.75 1.8-.35l.75.45.7.95.15.75-.05 1.1-.85 1.4-1.5 1.2-1.3.15zM15.5 30q.45-1.15 1.25-1.5l1.75-.05q1.7.4 2.3 1.45.55.85.45 2.45l-.3 1.4-1.25 1.05q-1.3.65-2.25.4l-1.4-1-.9-1.35q-.45-1.3.35-2.85M10 35.3q-.35-.6-.1-1.3.3-.65.95-.9.95-.25 1.6.5.6.8.2 1.6-.4.95-1.4.85-.85 0-1.25-.75m8.8 2.9.55.2q.85.35 1.35.9.65.65.55 1.4l-.05.65-.25.7-.75.9-1.2-.1q-.5-.35-.6-1.1l-.05-.3-.3-.1-.9.1-.65.75q-.65.5-1.4.35l-.7-.2-.85.1-1.05-.2-3.5.65-1.95.05-1.7-.15-.9.05-1.7-.15q-1.05-.4-1.3-1.1l.05-1.8q.15-1 0-2.45l-.25-2.45q-.15-2.25.7-3.75-1.2-.55-1.35-1.2-.25-1 .75-1.55.7-.4 1.8-.25 1.4.2 2.6 1.05 1.15.8 1.8 2.05l.65 1.9q.45 1.75.3 3.05l4.6.5q.8.25 1.5.65l.25.75q.6.8 1.85.7z"/><path d="m74.25 19.9-.2.65q-.25.75-1.05.9-.7.15-1.5-.5L70.15 20l-.7-.1q-.35.1-.55.3l-1.2.7-.9.1q-.3-.2-.2-.75.2-1.5 2.35-2.5.4-.2.75-.3l2.95-.05q1.2.5 1.5 1.8zm-17.4-9.1q.1-1.3.6-1.85.85-.85 2.1-.3.9.4 1.6 1.55.65 1 1 2.45.2.85 0 1.45-.15.9-.85 1.1-.4.2-.85 0l-.7-.55-1.25.4q-.7-.05-1.1-.6-.35-.45-.45-1.45zm-17.8-1.35q.3-1.3 1-2.6l.9-1.15q.6-.5 1.45-.6 1.25-.2 1.8.55.4.45.3 1.1l-.25.85-.2.3q-.7.75-2.15 1.2-.4.1-.65.3h-.05l-.4.6-.3.8-.2.4-.65.85q-.45.15-.75-.45-.15-.35-.05-.9zm7.2 7.65q.6-.65 1.85-.65l1.3.1q1.65.2 2.35.7.95.75.5 1.45-.25.5-1.1.6l-1.3-.1-1.4.35-1.4.15q-.85-.15-1.2-1.05-.2-.55.1-1.1l.25-.45zm-18.8-8.85q-.15-.5.1-1.1.35-.85 1.4-1.3l1.95-.15 1.25.35.7.5q.5.45.8 1.2.4 1.05.3 2.2 0 1-.6 1.15-.65.15-.95-.6l-.2-1.2-.25-.5-.65-.05-1.7.55q-.95.2-1.65-.35zM65.2 30.4l-.7-.7-.75-.7q-.1-.35.1-.65l.55-.45 1.35.2q1.05.45 1.9 1.5l.25.3.15.25q1.2 1.7.9 3.3-.2.85-.9 1.45-.75.65-1.6.5-.7-.1-1-.6-.2-.25-.3-.9-.3-1.45.05-2.05l.25-.4.1-.45-.2-.45zM12.05 16.7l.8-.1q2.05 0 2.9.65.55.3.7.85.2.65-.25 1l-1.55-.15-.7-.35q-.35 0-.8.35l-1.2 1.35q-.85.85-1.55.85t-1.2-.6q-.45-.55-.45-1.25.05-1.05.9-1.7l.6-.4q.65-.35 1.8-.5m2.55 20.65q0-.5.3-1.05.65-.8 1.65-.9l1.9.2.6.1.6-.35.95-.9.65-.5.8.05q.3.2.2.75l-.45.75-2.25 2.2-.75.5-2.1.6q-1.25.1-1.85-.7z"/><path d="M61.15 28q-1.85 1.7-4.65 2.3l-.9.85q-1.45 1-4.05 1.1h-.4l.2 1.05.15 1.3q-.05 1.05-.5 1.85l-.05.55q-.15.7-.7 1.25-.55.5-1.25.6-1.5.25-2.5-1.1-.85-1.25-.35-2.75l.8-1.3-.05-.2-.1-.45-.95.4-.95.3-1.15.05-2.1-.45q-.85 1.05-2.05 1.8-2.3 1.4-4.95 1.15l-.9-.15-2.7 1.65-1 .45q-1 .25-1.7-.5L27.7 37q-.25-.6 0-1.35.35-1 1.4-1.9l.45-.3-.1-.15-1.5-.15q-2.3-.35-3.7-1.35l-.5-.4-1.45.45-1.45.1-1.2-.5-.45.1-3.05-.05q-1.05-.1-1.6-.45-.6-.4-.95-1.35-.85-2.25-.15-4.55.35-1.4 1.35-1.8l1.1-.1 1.25.35q.9.55 1 1.8 0 .95-.5 2.05h.8l.15-.5.8-1 .65-.5 1-.5.6-.2q.15-1.7.9-3.7l-.2-1.3h-.05l-.65-.5q-1.35-1.25-1.6-2.4-.15-.5-.05-1.6.05-.65.25-1.15l-.4-.15-2.5-1.5-1.35-1.9q-.85-1.75-.8-3.2.15-1.95 1.45-2.95 1.15-.9 3.05-.8l1.85.4q.95.45 1.75 1.25l.85 1.15.8 1.3.45 1.8.2.75.15.55.3 1.25.1 1.05.1.75.2 1.05q2.85-2.3 7.35-2.4 3.35-.05 6.4 1.2l.3.15h.75l1.35.15q1.1.25 2 1.05l1.45-1.9 1.15-1.05-1.25-1.2q-.5-.75-.2-1.55.2-.8 1.1-1.15l1.25-.15 3.85.45 1.7.55.75.45.2.15 1.15.25 2.9 1.25 2.5 1.45q1.55 1.15 2.35 2.8l.55.65v.7q.8 2.35.2 5.5-.75 3.6-3.1 5.75m-6.95-9-.8.05.8.75.9 1.95q.25 1.6-1.1 3.35l-.1.15h.45q.6-.15.95-.85l.25-.6.4-.05.65-.1v.15q.1.95.55 1.3l.25.15.45.1h.2q-.45-.75-.35-2 .1-2.1 1.5-3.2l.25-.1-.1-.25q-.15-.3-.55-.2l-.55.25-1.1 1.2-.15.35-.1-.05-1.25-.05-.7-1.6zm-3-3.95-.15-.15-.75.6-1.3.15-.5-.2q-.25.35-.25.8l.55-.05q1.45-.05 2.8.65.35-.95-.4-1.8m9.1 2.1-.05.35h.55l.8.2.85.1.45.15.05-.1.1-.5-.4-.05-1-.8-.25-.5q-.55.1-.95.65z"/><path fill="#fff" d="m60.3 17.15.15-.5q.4-.55.95-.65l.25.5 1 .8.4.05-.1.5-.05.1-.45-.15-.85-.1-.8-.2h-.55zm-9.1-2.1q.75.85.4 1.8-1.35-.7-2.8-.65l-.55.05q0-.45.25-.8l.5.2 1.3-.15.75-.6zm3 3.95.75.7.7 1.6 1.25.05.1.05.15-.35 1.1-1.2.55-.25q.4-.1.55.2l.1.25-.25.1q-1.4 1.1-1.5 3.2-.1 1.25.35 2h-.2l-.45-.1-.25-.15q-.45-.35-.55-1.3v-.15l-.65.1-.4.05-.25.6q-.35.7-.95.85h-.45l.1-.15q1.35-1.75 1.1-3.35l-.9-1.95-.8-.75z"/></g></svg>