<svg xmlns="http://www.w3.org/2000/svg" xmlns:ffdec="https://www.free-decompiler.com/flash" ffdec:objectType="shape" width="70.7" height="39.75"><g fill-rule="evenodd"><path fill="#717171" d="m3.35 2.65-.15.05-.05.5.25.5q.35.8-.15 1.45l-.6.45-.75-.05q-.6-.15-.8-.9-.15-.6.2-1.2l.25-.4V2.6l.05-.2-.15-.1Q.85 1.8.7 1.2L.55 0h5.2L5.5.9l-.15.35q-.6 1.15-2 1.4m24.3-.35L27 2l-.5-.45-.05-.1-.7.3-1.25-.05-.7-.3q-.55-.3-.55-1V0h8.4l-.25.65-.3.45-.9.95q-.5.45-1.25.45zm25.65-.8q-.55-.2-.8-.75L52.4 0h3.05l-.1.6-.85.9q-.55.25-1.2 0m5.1-.25-.1-.6.2-.65h9.4l-.05.1q-.15.8-1.2 1L65.5.9l-1.8.7-.65.5-.85.15-1.15-.2-.6.3-1.2-.15q-.6-.35-.85-.95m5.4 6.25.7-.3-.1-.1q-.4-.25-.5-.65l.15-.75q.25-.4.65-.5l.8.1.5.6q.2.55-.2 1l-.35.3-.1.05.35.1q.7.35 1.05 1.1.3.8.05 1.55l-1.05 1.05-.9.1q-1.4-.25-1.75-1.5-.2-.55 0-1.2.2-.6.7-.95m-5.6 2.05L59 8q.6-1.1 1.15-1.4.95-.45 1.7.25.45.55.55 1.5l-.35 1.85-.6 1.25-1 4.05L58 25.4l-1.2 3.55q-.95 2.2-2.35 2.8-1.05.5-1.85 0-.4-.25-.5-.8t.25-.85l.8-.4.6-.5-.15-.8q-.3-1 .05-2.15.4-1.1 1.25-1.9l.65-.7.15-1.05q-.05-2.3.65-4.8l-1.2-.85v-.1q-.5-.65-.6-1.5-.05-.85.35-1.55.85-1.45 2.6-1.35h.15l-.05-.35q-.05-.65.05-1.05.05-.5.55-1.5m4.85 4.6-.45-1q-.05-.55.25-1.1.35-.5.85-.7l1.1-.05.95.6q.4.55.3 1.3-.1.7-.6 1.1-.55.4-1.25.4-.7-.05-1.15-.55m6.4 12.2q-.8-.15-.95-.85-.15-.8.5-1.2l1.25.05q.4.3.45.75 0 .6-.4 1zm-17.75-23q-.05-.35.2-.8.4-.65 1.25-.4l.65.6v.9q-.35.75-1.15.65-.85-.15-.95-.95m2.25 8.75q-1-.35-1.15-1.3-.15-.7.25-1.3.35-.5 1.05-.65l1.15.15q.55.3.75.95.25.65 0 1.2l-.85.85zm-9.5 7.4q-.55-1.25.7-2.7-.7-1.4-1.1-3.1-.2-.95-.1-1.4.1-.85.75-1.1l-.15-1.4-.2-1.4q-.1-1.85 1.05-2.4l1.6.1q.65.4.65 1.2l-.25.95q-.15.5.05 1.4l.2 1.4-.35 1.6q-.2.9.2 1.9l.8 1.55.45 1.25.7.85q1 1.2.55 2.75L49.85 22l.3.45.4.4q.95 1.05.35 3.1l-.5 1.6q-.25.9-.2 1.55.05 1.05 1.25 2.85l1.8 2.75q.5-.15 1.2-1.15.65-.95 1.25-1.05.5-.05.9.3t.5.85q.2.85-.45 1.95l-1.15 1.7-.75 1.55q-.55.85-1.35.9-.7.05-1.8-1.15-1.25-1.45-1.55-2.55l-.3-1.25-.7-1.35q-.7-1.2-1-2.4l-.4-1.75-.3-.8-1.55.35q-.8-.1-1.4-.75-.6-.6-.7-1.4-.1-.95.35-1.75.45-.85 1.2-1.15l1.25.05-.1-.7-.45-1.8q-1.2-1.1-1.5-1.85M30.7 10.3l-.15.2q-.45 1.1-1.4 1.3-1.05.15-1.65-.7l-.25-.45q-.3-.7-.45-1.4-.15-.75-.05-1.65l.05-.7.65-1.05q.65-.65 1.5-.55.4.05.75.35l.3.7 1.1-.05 1.05.4.35.4.45.25 1.15.7.35.25.6-.65q1.35-1.3 3.25-.95l.9.1.75-.2.2-.2.2-.3q.5-.95 1.6-.85 1.05.15 1.4 1.15l.1 1.2-.35 1.1-.9.85-.95.4-.8.1-.05.05-.05.75-.1.45v.85l.25.55q.4 1.25-.55 2.1l-2.15.1-.65-.65-.4-1.2-.1-.75v-1l-1 .35-1.05-.2-.05.5q-.05.8.05 1.35l.1.65.1 1.1.3.85v.9l.05 1v.05q.35.5.35 1.25l-.3 1.75q-.3 1.6-.15 2.4l.35 1.25q.2.8 0 1.95l-.35 1.95-.05 1.35.25-.2q.55-.2.9.15l.4.95.35.5q.75 1.25.3 2.55l-.55.95.55.1 1.35.15 1.15-.4 1.9-.2q1.05.35 1.15 1.4.15 1.05-.75 1.7l-1.2.5-2.75.45-3.15-.45-2 .1-2.05.2H26.9q-1.05-.05-1.65-.5-.6-.4-.8-1.15-.2-.8.15-1.45.7-1.4 2.85-1.5l1.6.25q.9.35 1.05 1.15l1.7-.25-.4-1.35-.1-2.15-.05-1.25.2-2.6.4-1.6-.3-1.05q-.35-1.2-.1-3l.8-2.6q-.4-.65-.4-1.6l-.05-.6-.15-.8q-.1-.35-.05-.9l.05-.95-.15-.55-.05-1.4.2-1.6.1-.15-.2-.2-.65-.1zm29.05 24.35-1.1.05-1-.6q-.4-.4-.45-1.05-.05-.6.3-1.1l.75-.7q.6-.3 1.25-.25.65 0 1.1.45.45.4.55 1.25 0 .65-.4 1.2zm5.8 2.45-.3-.45v-.35q0-.45.3-.75.45-.35.8-.35.8.1 1.05.85.2.85-.55 1.25-.75.35-1.3-.2m-53.8-22.5q0 .75-.35 1.25-.6.85-1.6.85-1.05 0-1.6-.8-.5-.6-.5-2.05l.05-1.55q.1-1.2.55-1.7l.75-.7.6-1.3q.55-1.25 1.95-1.65l2.6.15 1.15.25L16 7q.8-.5 2.05-.75l2.35.15q.7.35 1.05 1.05l.1.2.1.1q.1-1.3 1.4-1.65 1.2-.35 2.1.55.85.7.95 2 .1 1-.35 1.8l-.6.9-.5.6-.75.5-.4.8-.3.8q-.5.85-1.35 1-.85.2-1.65-.4-.65-.55-.95-1.8l-.2-1.2-.05-.85-.7.05q-.35.1-.95.5l-3.9.2q-.15.65-1.25 1.9l-.35.45zm2.15 4.1 2.5.2.2.05.35-.15.45-.2q.2-.4.8-.65l1.45.1q.3.05.65.4.4.35.5 1.1l-.25 1.1q-.35.6-.9.8l-.2.1q-.3.65-1.15 1.05l-1.95.3-.85-.15h-.05l-.15.65-.6 1.5-.8 1.55-.05 1.25q.1 1.75.5 2.5l.45 1 .3 1.2-.05 1.65-.5 1.3.1.7q.5 1.65-.4 2.45-.45.45-1.15.35-.7-.05-1.1-.6l-.3-1.3h-.05l-.65-.4-.7-1.35-.3-.3-.4-.65-.5-.6-.4-.85-.2-.7q-.3-1.25.2-2 .5-.6 1.2-.6.6 0 1 .4l-.05-.25-.05-1.15-.25-1.15q-.35-1.65.3-2.85l.75-1.3.2-.6-.3-1q-.1-1.45 1.1-2.3l.6-.35zm9.95 12.15q-1.6.25-2.7-.95-1.05-1.1-.7-2.7.4-1.55 1.9-2.15 1.5-.5 2.8.4 1.35 1 1.25 2.55l-.1.6-.35.9q-.75 1.2-2.1 1.35M5.7 11.65q-1.3.15-2.1-.65l-.3-.4-.7.3-1.35-.05Q.65 10.6.3 10q-.35-.65-.25-1.3t.6-1.15Q1.15 7.1 1.8 7q1.15-.15 1.8.75l.05.1q.55-.6 1.2-.8l1.25.05q1.2.35 1.65 1.35.45 1.1-.2 2.1-.7.95-1.85 1.1m-5.55 3.1q-.25-1.2.75-1.85l2-.05q1 .6 1 1.75 0 1-.9 1.75l-.85.4q-.7.1-1.25-.55l-.4-.65zm3.3 14.4-.1.45-.1.1.1.6-.1.65-.05 1.75-.1.6-.05.2.1.25.2.3.4.8.05.7-.05.55q-.25.9-1.1 1.2l-.75.1-.9-.55-.15-.25-.2-.45q-.2-.85 0-1.45.35-.8.95-1.05l.1-.85.15-.3.15-2.45.1-.15q-.35-.2-.45-.6l-.05-.2.05-.2q.1-.55.55-.7l.9.1.3.45zM19.2 32.2q-.8.25-1.4-.25-.65-.45-.55-1.3.1-.5.5-.85t.9-.4q.5 0 .9.35l.55.8q.1.5-.2 1zm1 1.85.55-.05.2.1.1.1.05.45q-.1.45-.6.45t-.5-.45l-.05-.15.1-.3z"/><path d="m50 9.55.15.65.65 1.1q.25.9.1 1.65l-.4 1.25-.05.15v.2q.5.75.35 1.5l.65 1.25q.6 1.3.7 3.25l-.05 3.2.6.7.25.75.3.6q.25.8-.1 1.5l.25.65v.55l.45 1.25.15.6.05.1.15.55.25-1.2q.55-3.6 2.05-5.5-.05-.7.4-1.9l.3-.55-.2-.35-.15-.7-.05-2.05.2-.8v-.15l.4-1.35.55-.95q.3-.45.75-.75l.15-.1.05-.05.35-.45q-.3-.45-.3-1.05l-.05-.25.15-1.05.15-.35.05-.6.2-.75q.3-.8.55-1.1l.1-.1.2-1.25.4-2q.5-1.3 1.85-1.45 1.15-.2 1.95.5l.3-.15L66 4.5l.6.25.35.3q.75.65.85 1.85.1.95-.4 1.55l-1.25.8-.1.7-.2.45-.25.1-.3-.1q-.3-.3-.15-.6L65 9.3l-.2-.3-.4-.5-.95 2.65v.05l-.1.4v.75l-.25 1.05-.1.2-.1 1.85-.2 2.05-.6 2.35-.3 2.1-.5 2.1-.65 1.6q-.1.6-.05 1.85-.1 1.5-1.05 2.45l-.65.65-.55.7q-.2.4-.3 1.25l-.15 1.35q-.25 1.05-1.85 2.55-1.75 1.55-2.85 1.2-.95-.25-1.1-1.15-.15-.55.1-1l-.3-.25-.1-.25.05-.2h.05q-.6-.45-.95-1.55l-.35-.8-.85-1.8-.15-.5-.15-.5.15-.55q-.55-.65-.4-1.6l.2-.7v-.7l-.2-.45q-.35-.65.2-1.3.2-.35.6-.4l-.2-.6h-.35q-.75 0-1.3-.45-.6-.55-.7-1.35 0-.75.5-1.4l.05-.05q-.45-1.15-.45-1.95l.05-.55-.85-.9q-.4-.75-.25-1.55l.15-.5-.25-.3-.25-.45q-.45-.8-.2-1.85l.3-1.05.25-.4q-.1-.45.1-1.3l.05-.2-.4-.6-.1-.9q0-.35.15-.65l-.55-.85q-.2-.55.1-1.15.3-.55.85-.8l1.15.1q.6.25.8.8l.1 1.45.5.55q.6.95.25 1.85zm15.9 2.25q.65.65.2 1.35-.35.8-1.25.6l-.65-.4q-.4-.55-.1-1.2.35-.7 1.05-.6.4-.1.75.25M27.55 8.85q-.5-.7-.3-1.4l.35-.9.05-1q.15-.55.7-.8l1.1-.2h1.7l1.55.25q.7 0 1.35-.4l.8-.6 1.6-.2 2.55.35.9-.15.2-.05.25-.05 1.25-.05 1 .2q.85.35 1.15 1.2l.15.9.05.4-.1.4-.35.7-.55.5-.45.2-1.3.1-.2.05-1.4-.05-.9-.5h-.15q-.45.3-1.05.4l-.35.05-.15.1-.15.25L35.3 9.7l-.15.1.3.85.6 1.2q.25.6.15 1.55l-.25 1.65.1 2.05.2 1.55q.5.25.75.85l.2.75.05.35-.15 1.4-.05.3-.1.3-.15.35.2 2.6.05 2.2-.3 1.4q.25.55.1 1.3-.15.7-.7 1.25l-.1.1q-.1.55-.05 1l.15.85.55-.5 1.2-.25q1.3-.1 2.1.5l.4.2h.4q.9-.15 1.5.6.55.65.2 1.55-.4.95-1.35.85h-.75l-.35.25-2.3.3-.85-.15-.7-.25-.65-.15-.35-.2-.75.05-.5-.15-.2.15-1.4.45-.7.15h-.8l-.7-.15-.7-.05-.1.1q-.6.7-1.55.7l-1.15-.3q-.5-.35-.7-.9-.3-.9.2-1.65.55-.7 1.45-.85h.55l.3-.45q.85-.95 1.95-.7.55.1.9.55l.25.3h.05l.95-.1.75.15v-.45l-.5-1.4-.4-2.45v-3.15l.6-3.2-.1-.15-.2-.35-.05-.35q-.1-1.05.15-1.65l.6-1.45.05-.05-.1-.6-.05-2-.45-1.35-.4-1.4q-.05-.9.8-2.7l.5-1.1-.65-.45-.4-.5-.65-.3-.35-.25-.6-.8h-.65q0 1.2-1.15 1.65l.05 1.15-.35.45h-.55q-.3-.1-.4-.75l-.15-.85zM37.9 11.9q-.3-.55-.2-1.15.05-.65.5-1 .4-.4 1.05-.45l1.1.25q.95.7.7 1.8l-.45.9-.65.4-.05.3-.3.9-.85.25-.65-.6v-.85l.1-.35zm8.15 12.85q.25-1 1.3-1l.6.15q.55.25.7.9.2.9-.6 1.35l-.6.25v.3l-.45.55q-.45.2-.65-.3l-.1-.65.05-.05-.05-.1h.05V26l.05-.1q-.4-.5-.3-1.15m13.85 7 .1-.05q.6 0 .85.55t-.05 1q-.3.5-.95.4l-.35-.1-.2-.15q-.35-.35-.25-.75 0-.55.45-.8zM13.25 9.2l-.75-.05-.25.9q-.45 1.55-1.55 2.1l.35 2.1.1 1.3.1.05.55.7.15.2 1.25-.15.5.15.75.3q.6-.2 1.3 0l.1.05.25-.1h.35l1.2-.15q1.6.1 1.95 1.3l.1 1.15-.25 1.15-1 .85-1.35-.1-.6-.45-.6-.4-1.25.35-.5-.05-.45.25q.15.85-.3 1.7l-.95 1.05.45 1.6.05 1.55-.3.75.5.7q.35.65.25 1.35l.35.65.1 1.3-.05.65.3 3.4-.05 1.3q-.25.7-.85.85-1 .2-1.7-1.5l-.8-2.15-.2-.5-.4-.45-.35-.6-.2-.2q-.65-.5-.7-1.2l-.4-.45q-.6-1-.35-2l.25-.55.35-.55-.2-.35q-.2-.45-.3-1.5-.2-1.6.1-2.25l.15-.2-.25-.6-1.05-2.75-.15-.1q-1.3-.8-1.15-2.35v-.55l-.3-.6q-.3-.6-.2-1.3t.55-1.2l.25-.35L5 11.35q-.5-1.2-.45-2.45.1-1.4.85-2.35 1.4-1.7 3.8-1.6l1.5.1 1.1-.15 1.05.05 1.1.3.9-.3q.8-.4 2.55-.5l4.1.05q2.05.2 3.05.85l1.1 1.15q.35.8.15 1.5l-.15.45v.05q0 .8-.95 2.15l-.6.65-.6.4-.05.1-.8 1.4-.45.55q-.65.25-1.05-.5-.25-.45-.25-1.95l-.35-.4q-.5-.65-.5-1.45l.05-.15q-.7-.15-1.7 0l-.8.75-.55.3-1.1.3q-.65.1-1.35-.35l-.9-1zm-9.6 4.15v.9q-.2 1-1 1.3l-.35.1-.05.1-.65.45q-.5 0-.8-.4l-.1-.4q-.55-.3-.65-1-.25-.85.45-1.45l.55-.4.75-.3 1.1.2zM15.2 22.2q.15-.35.45-.55l.55-.25q1.05-.15 1.45.75.5.8-.2 1.6-.55.55-1.15.45l-.1.1q-.35.5-.9.5-.75 0-1-.65-.15-.45.05-.8.15-.4.65-.5h.05v-.2z"/></g></svg>