<svg xmlns="http://www.w3.org/2000/svg" xmlns:ffdec="https://www.free-decompiler.com/flash" ffdec:objectType="shape" width="77.4" height="44.6"><path fill="#999" fill-rule="evenodd" d="M56.9 1.9q-.8.1-1.3.65l-.35.35-.65-.05q-.7-.05-1.25.25l-.4.15-.35-.3q-.55-.65-1.3-.55l-.3-.5zm-7.85 0q-.85.5-1.6 1.95l-.95 2.3q-1.5 4.55.1 8.4l.7 1.35.8 1.15 1.5 1.8q2.35 2.2 5.45 2.8.75 1 2.05 1.3l2.4.3q4.1-.1 7.05-1.9Q68.4 20.1 70.1 18l1.05-1.4q2.45-3.8 1.15-9.1-.25-1.25-.7-2.05L70.35 3.7l-1.1-1.35-.45-.45h7.1v19.8q-.4-.45-1-.5l-.8.05q-1.45.35-2.55 1l-1.2 1-.4.55-.05.15-.5-.1-2.8.2q-1.6.4-2.3 1.55l-.35.4-.4.1-1.75.45-.65.45q-1.25.15-1.75.45-.6.4-.45.8.15.35.7.35h3.1l7.15-.5 4.75-.3h1.25v15.45H.85V28.3l.1.25.95.7q-.2.25 0 .6l.5.5q.5.2 1.35 0l8-1.4 1.45-.15 1.4-.15q.7-.35.7-1.1.1-.75-.6-1.2l-1.2-.25-4.1-.2-1.15.1-.2-.2-.9-.75-1-.5-.6-.15-1.05-.15-.7.05-.45.1-1.05-.6-1.45.05V1.9zm11 0-.55.55-.75.15-.5-.3-1.05-.4zm-59.2 26v-1.4l.1.05.15.85zM69.4 16.2l.1.65q-.15.7-.8.95-.7.25-1.25-.25-.65-.55-.3-1.3.25-.8 1.1-.8.8 0 1.15.75m-6.8.45.2.25.05.35-.15.5-.3.2-.55.05q-.55-.2-.55-.75l.2-.55.55-.2.05-.05.35.1zm.5 2.8.1-.3.2-.4.6-.5.25-.1.55-.05v-.05l.65.15.6.4.1.15.05.1.1.15.1.3.05.35-.05.55-.7.95-.35.15v.05l-.3.05v.05h-.5v-.05l-.95-.4-.35-.6-.1-.2zM51.7 7.25v.55q-.15.6-.85.7-.65.1-.95-.45-.25-.3-.15-.7l.3-.6q.3-.25.65-.25.35-.05.65.2zM4.85 19.5l-.2.6-.75.1q-.8.1-1.15.45l-.2.35.3.35q.65.4 2.2.5l5.1-.2 5.15-.5 5.85-.3 2.4-.4 2.5.05 1.65-.1 1.35-.85q.7-1.05-.15-2.35-.5-.95-1.45-1.6l.1-.25.25-.6q.15-.75-.4-1.55l-.3-.35-.5-.45-.7-.5-1.15-.25-1.05.05-1.2.4-.55.45q-1.2-1.35-2.85-1.95l-2.85-.2q-1.5.3-2.5 1.35-.8.85-1.2 2.2l-.2.4-.35.1q-1.5.1-2.7.9-1.3.95-1.5 2.35-1.15.3-2.15 1zm57.5 13.55-2.35-.2-.85-.15-.4-.35q-.95-1.05-2.35-1.45-1.35-.4-2.7 0l-1 .5-.15-.15q-1.15-.85-2.4-.6l-1.25.45q-.85.4-1.2.85-.35.5-.3 1.1l-1.4.45-.75.65q-.5.65.05 1.4.35.6 1.3.5l.85-.2h.2l1.65.05 1.15-.05 5.5-.35 6.15-.25.9-.15.5-.7q.1-.55-.25-.9-.25-.25-.9-.45m-7.05-15.2v.45l-.5-.15zm-3.05-2.3q-.15.75.1 1.3l-.9-.85z"/><path fill="#fff" fill-rule="evenodd" d="m51 1.9.3.5q.75-.1 1.3.55l.35.3.4-.15q.55-.3 1.25-.25l.65.05.35-.35q.5-.55 1.3-.65h.3l1.05.4.5.3.75-.15.55-.55q1-1.1 2.3-1.1.65 0 1.25.4l.35.25q0-.6.5-1 .65-.65 1.5-.4.5.1 1.2.6L68.8 1.9l.45.45 1.1 1.35 1.25 1.75q.45.8.7 2.05 1.3 5.3-1.15 9.1L70.1 18q-1.7 2.1-3.55 3.35-2.95 1.8-7.05 1.9l-2.4-.3q-1.3-.3-2.05-1.3-3.1-.6-5.45-2.8l-1.5-1.8-.8-1.15-.7-1.35q-1.6-3.85-.1-8.4l.95-2.3q.75-1.45 1.6-1.95l.65-.25 1.05.1zm24.9 19.8.3.4q.45.75.1 1.6.85.55.75 1.6l-.05.3.35.5q.15.45-.1.9l-.75.6-.6.2h-1.25l-4.75.3-7.15.5h-3.1q-.55 0-.7-.35-.15-.4.45-.8.5-.3 1.75-.45l.65-.45 1.75-.45.4-.1.35-.4q.7-1.15 2.3-1.55l2.8-.2.5.1.05-.15.4-.55 1.2-1q1.1-.65 2.55-1l.8-.05q.6.05 1 .5M.85 28.3v-.4l.25-.5-.15-.85-.1-.05-.75-.8-.1-.65.25-.65.35-.4.25-.15 1.45-.05 1.05.6.45-.1.7-.05 1.05.15.6.15 1 .5.9.75.2.2 1.15-.1 4.1.2 1.2.25q.7.45.6 1.2 0 .75-.7 1.1l-1.4.15-1.45.15-8 1.4q-.85.2-1.35 0l-.5-.5q-.2-.35 0-.6l-.95-.7zm62.25-8.85.05.75.1.2.35.6.95.4v.05h.5v-.05l.3-.05v-.05l.35-.15.7-.95.05-.55-.05-.35-.1-.3-.1-.15-.05-.1-.1-.15-.6-.4-.65-.15v.05l-.55.05-.25.1-.6.5-.2.4zm-.5-2.8-.15-.1-.35-.1-.05.05-.55.2-.2.55q0 .55.55.75l.55-.05.3-.2.15-.5-.05-.35zm6.8-.45q-.35-.75-1.15-.75-.85 0-1.1.8-.35.75.3 1.3.55.5 1.25.25.65-.25.8-.95zM51.7 7.25l-.35-.55q-.3-.25-.65-.2-.35 0-.65.25l-.3.6q-.1.4.15.7.3.55.95.45.7-.1.85-.7zm.55 8.3-.8.45.9.85q-.25-.55-.1-1.3m3.05 2.3-.5.3.5.15zm7.05 15.2q.65.2.9.45.35.35.25.9l-.5.7-.9.15-6.15.25-5.5.35-1.15.05-1.65-.05h-.2l-.85.2q-.95.1-1.3-.5-.55-.75-.05-1.4l.75-.65 1.4-.45q-.05-.6.3-1.1.35-.45 1.2-.85l1.25-.45q1.25-.25 2.4.6l.15.15 1-.5q1.35-.4 2.7 0 1.4.4 2.35 1.45l.4.35.85.15zM4.85 19.5l.8-.8q1-.7 2.15-1 .2-1.4 1.5-2.35 1.2-.8 2.7-.9l.35-.1.2-.4q.4-1.35 1.2-2.2 1-1.05 2.5-1.35l2.85.2q1.65.6 2.85 1.95l.55-.45 1.2-.4 1.05-.05 1.15.25.7.5.5.45.3.35q.55.8.4 1.55l-.25.6-.1.25q.95.65 1.45 1.6.85 1.3.15 2.35l-1.35.85-1.65.1-2.5-.05-2.4.4-5.85.3-5.15.5-5.1.2q-1.55-.1-2.2-.5l-.3-.35.2-.35q.35-.35 1.15-.45l.75-.1z"/><path fill="none" stroke="#000" stroke-linecap="round" stroke-linejoin="round" d="M56.9 1.9H51m6.2 0h-.3m.3 0h2.85m8.75 0h7.1v19.8m0 6.1v15.45H.85V26.5m0-2.65V1.9h48.2"/><path fill-rule="evenodd" d="M45.5 12.25q3.15-.15 5.45.7l1.85-1.45.95-.55q.8-.2 1.3.4.35.45.35 1.25l.3 4.65.05.65.5 1.35q.5 1.8.25 4.85l-.1 1.1-.75 2.75q-.75 1.8-2.65 3.15-1.9 1.4-4.1 1.75l-1.8.2-2.9.05-1.45-.3-.05.35-.35 1.95-.2.4-.2.75-.2.5.95.35q2.3 1 6.3 4l.8.75q.35.55.1 1.2-.2.7-.8.9l-1.5-.05q-.55.15-1.5-.5-.9-.65-2.65-1.55l-.2-.05-.1.4q-.25.85-1.05 1.1l-1.3.15q-5.85.45-8.8.1h-1.9l-1.25.65q-.75.45-1.3.4-.9 0-1.3-.75l-1.5.7q-.65.1-1.2-.35l-.55-.85-.1-.15-.05.05-1.2.2q-.7-.35-.5-1.45.25-.75.95-1.5 1.95-2 5.55-3.4l-.15-.35-.3-.9-2.05-6.95-.6-1.2L23 25.4q-2.4-3.95-3.5-6.85l-2.5-7.3-.4-2.9q-.05-2.05.45-3.05.55-.95 1.6-1.4l1.95-.05 1.2.1q.95.4 1.45 2.3l.1.25.45 1.1q.75 2.25 1 4.15l.45 2.75q.7-1.35 1.75-2.45l1.15-1.1q.5-.5 1.4-1 .8-.45 1.55-.75l1.2-.35 1.5-.2q3.55-.2 6 1l1.55.95.5-.55q.75-.6 1.45-.2l.6.7.9 1.75zm8.5 5.1h-.45l-.15.2-.15.2.1.1L54.4 20l.1.65-.3 1.6-.2.6.4-.2q.85-.4 1.3-1.15l.25-.7q.25-.9-.1-1.8-.4-.85-1.25-1.4zM50.55 23l-.9-.3v-.75l-.05-.05v-.15l-.05-.05-.4-.3-.25-.1q-.35-.05-.7.2l-.25.25V22l-.05.15.05.25v.35l-.9.3-1.55.5q-2.05.45-3.9-.45-.85-.45-1.3-.25-.5.3-.3.85l.1.4q-.15.7.35 2 .6 1.6 1.15 2.25.9 1.15 3.2 2 1.25.55 2.25.6l1.4-.05 1.05-.2 1-.45 1.35-.75q1.9-1.25 3.3-3.9l.25-.3.2-.65.35-.55-.1-.5-.2-.45q-.2-.15-.75 0l-2.35.45-.95-.05zM53 25.25l.45-.1-.2.45q-.6 1.2-2.15 2.35-1.85 1.3-3.45 1.3-1.2 0-3-.85l-1.45-.9-.9-1.4-.45-.7.55.1.7.1.1.25.15.65.1.3.2.35.35.4.35.05h.1l.15-.15.25-.45.25-.95v-.15l.05-.15.05-.1.85-.15 1.65-.6 1.7-.25.95.3.05 1.5.25.55.3.25q.3.25.6 0l.25-.3.3-.7v-.15l.1-.05.15-.6.05-.15zm-8.3-2.65.95-.65.35-.45.3-.6.2-.85-.65-.15-1.4-.6-.1.15-.9 1.35-.2.55-.1.65-.15.8h.15zm-2.8-.2.5.25-.05-.25-.35-.65-.05-.45.05-.5v-.3l.15-.55.9-1.45.3-.35-.3-.75-.05-.25q-.5.1-.95.4l-.6.55-.75 1.2q-.3.7-.2 1.35l.45.95zm10.7.55.4.05v-.2l.2-.6v-.4l-.2-.65-.2-.35-.05-.3-.3-.55-.15-.2-.4-.65-1 .65-.65.35-.1.05.1.75.3.7.8.8.4.3zM60.5 39l-.15.65-.05.1-.4.2-.6-.05-.4-.45-.05-.55.05-.15v-.1h-.45l-.35-.05-.4-.3-.1-.45.05-.15v-.15l.1-.15.65-.2v-.05l.55.05v-.3l.1-.15v-.4l.1-.2.35-.2.3-.05q.25 0 .55.3l.05.15v.1l.05.1v.6l1 .15.2.15.1.15.1.3-.15.35-.3.3-.5.1h-.4v.1l-.05.15zm6.9-7.15q1.05-1.05 2.5-.95 1.5.15 2.4 1.3l.55 1.15q.55 1.45.1 2.5l-.65.9-1.3 1.2-1.05.9-.5.55-.85.65-.9.15-.1-.1-.3-.15-.2-.2-.6-.35-2.6-1.8-1.15-.9-.35-.5-.25-.55-.1-.7q-.05-.95.6-1.85.65-.85 1.6-1.15l1.95.1.8.35zm-58.5 8.1q-.55-.35-.55-1.35-.1-2 1-3 .55-.55 1.65-1l1.1-.35 1.45.2q.45.15.8.45l.15-.4.05-.05-.7-.15q-1.25-.5-1.35-1.85t1.1-2.1q.8-.45 1.85-.35 1.5.1 2.1 1.05l.4.85q.5 1.7.4 3.95 0 1.75-.35 2.75-.5 1.05-1.1 1.3l-.35.15-1.75.45-.25.05-.25.05-1.25.05-2.9-.15-.65-.15-.55-.35zm-3.95-.05-.05-.2-.1-.2v-.05h-.35l-.65-.3-.1-.15-.05-.3v-.45l.15-.3.3-.2.55-.15h.2v-.25L5 36.7l.25-.2.5-.1.15.05.2.2.1.15.05.7h.25l.55.4.1.25.1.4-.05.35q-.15.3-.55.3H6.4l-.1.05-.05.05H6.2v.1l-.05.1v.1q-.2.55-.65.55l-.4-.1zm26.2-6.6-.45-.15.05 1.75v.55l.1.35v.25l1.4-.3 2.05-.15h.05L34 33.55zm7.65.4-.45 2.15.55.1z"/><path fill="#fff" fill-rule="evenodd" d="m52.6 22.95-.85-.25-.4-.3-.8-.8-.3-.7-.1-.75.1-.05.65-.35 1-.65.4.65.15.2.3.55.05.3.2.35.2.65v.4l-.2.6v.2zm-10.7-.55-.95-.8-.45-.95q-.1-.65.2-1.35l.75-1.2.6-.55q.45-.3.95-.4l.05.25.3.75-.3.35-.9 1.45-.15.55v.3l-.05.5.05.45.35.65.05.25zm2.8.2-1.55.2H43l.15-.8.1-.65.2-.55.9-1.35.1-.15 1.4.6.65.15-.2.85-.3.6-.35.45zm8.3 2.65-.6.05-.05.15-.15.6-.1.05v.15l-.3.7-.25.3q-.3.25-.6 0l-.3-.25-.25-.55-.05-1.5-.95-.3-1.7.25-1.65.6-.85.15-.05.1-.05.15v.15l-.25.95-.25.45-.15.15h-.1l-.35-.05-.35-.4-.2-.35-.1-.3-.15-.65-.1-.25-.7-.1-.55-.1.45.7.9 1.4 1.45.9q1.8.85 3 .85 1.6 0 3.45-1.3 1.55-1.15 2.15-2.35l.2-.45zM50.55 23l1.05.55.95.05 2.35-.45q.55-.15.75 0l.2.45.1.5-.35.55-.2.65-.25.3q-1.4 2.65-3.3 3.9l-1.35.75-1 .45-1.05.2-1.4.05q-1-.05-2.25-.6-2.3-.85-3.2-2-.55-.65-1.15-2.25-.5-1.3-.35-2l-.1-.4q-.2-.55.3-.85.45-.2 1.3.25 1.85.9 3.9.45l1.55-.5.9-.3v-.35l-.05-.25.05-.15v-.25l.25-.25q.35-.25.7-.2l.25.1.4.3.05.05v.15l.05.05v.75zM54 17.35l.6.25q.85.55 1.25 1.4.35.9.1 1.8l-.25.7q-.45.75-1.3 1.15l-.4.2.2-.6.3-1.6-.1-.65-1.05-2.15-.1-.1.15-.2.15-.2z"/></svg>