<svg xmlns="http://www.w3.org/2000/svg" xmlns:ffdec="https://www.free-decompiler.com/flash" ffdec:objectType="shape" width="70.6" height="40.4"><g fill-rule="evenodd"><path fill="#717171" d="M60.3 11.95q-.15-.3-.15-.6-.05-.35.3-.75.25-.25.6-.25L61 10.3q-.8-.55-.7-1.6.1-.6.65-1.3 1.1-1.7 2.55-3.35 1.05-1.25 1.85-1.35 1.1-.15 1.7.75.45.7.3 1.35.8-.1 1.3.5l.45 1.5.2 3.4q-.1 3.25-1.7 6.15-1.65 2.95-4.3 4.8l-7.4 4.4-1.55.65-1.2-.05-.55-.45q0-.3.4-.5l3.45-1.75q2.05-1.05 3.25-2L61.25 20l2.3-2.45q1.7-2.15 2.4-4.85t.3-5.35l-.1-1-.45.5-.45.5L63.95 9l-.55.8-.7.65-.85.2h-.1l.45.45.15.5-.3.85-.5.5q.1.3-.2.4t-.45-.15l-.1-.4-.2-.55zm-5.1-6.9-.65.7-1.1.7-1.05.95-1 .65-.6.05q-.45-.15-.2-.85.25-.8 1.2-1.6l1.75-1.05.6-.3.8-.25 2.95-1.2 1.7-.65.5-.05q.35.1.15.4l-.35.1-1.45.55-.45.1-2.25 1.35zm.95 13.2-.1-.65-.05-.55.25-1.35.45-1.4.75-1.6q.3-.4.8-.4.45-.1.75.3.35.35.35 1.1l.05.5-.2 1.5-.25.85-.05.6-.15.45-.3.65q-.45.7-1.15.7-.85 0-1.15-.7M67.1 21.9l-2.6 2.25q-2.8 2.35-6.25 3.55l-1.75.45-4.15.1q-.4 0-.4-.2-.05-.25.45-.25l1.35-.15 1.4-.6 1.35-.75 4.6-2.2 2-.8 1.55-.65 1.5-1.2 1.35-1.35q1.05-.85 1.65-.45-.4.8-2.05 2.25M53.05 10.35l-1.95 3.4-.8 2.1-.85 2.65q-.4 1.75-.5 3.75l-.25 1.7q-.25 1-1.15 1.15-.45.1-.95-.2l-.7-.75q-.3-.5-.4-2 0-1.6.15-2.35l.4-1.7q1.85-6.05 5-8.7L54 7.2q1.85-1.35 3-1.85l.8.05-.05.55-.45.35-1.9 1.15q-.95.8-2.35 2.9m.35 6.55q.65 0 1.25.5l.25.5.1.5-.15.75-1.05 3.25-.45 1.1q-.35.6-.85.8l-1.4-.15q-.65-.4-.8-1.2-.25-.9.25-2.35l.65-1.6 1.05-1.65q.45-.45 1.15-.45M2.35 34.5Q.6 33.15.15 31.05q-.2-.95-.15-2 0-.95.35-2.2l.6-1.45-.25-.75-.15-1.05q0-.75.25-1.2.3-.8 1-1.1l1.8-.1.75.25.55.4q1.55-.65 3.4-.55l1.9.5.2-.2.2-.2q.8-.7 1.55-.65l.05-.05q.8.1 1.25.6.5.5.5 1.3l-.1.7-.25.8-.15.4.7.9q.75 1.25.85 2.8.05 1.5-.5 2.9-1 2.4-3.35 3.9l.65 1.5.1 1.3q-.1.95-.95 1.3l-.75.8q-.95.75-2.1.4l-.95-.45-.5.2q-1.15.35-2.05-.3l-1.15-.05q-1-.35-1.15-1.3-.1-.7.15-1.6l.7-1.5.15-.15zm.35-3.75 2.4-.1q1.15-.65 1.45-1.9.25-1.4-.6-2.4t-2.25-1q-1.4.1-2.15 1.15-.5.7-.5 1.55-.05.9.4 1.6zm7.25 2.1q.9-.2.95-.75 0-.45-.45-.65H9.6l-.85.3-.3-.65q-.25-.35-.65-.35-.25 0-.4.15l-.15.3-.2.7-.75.05-.95.25q-.5.25-.5.8.1.7.8.8l1.15-.3q.3-.3.5-.35l.3-.05.4.05.45-.15zm-.7-7.3L9 25.9l-.25.65q-.25.8-.1 1.55l.45.95q.85 1.25 2.45 1.25 1.55-.1 2.35-1.4.85-1.3.1-2.7-.7-1.45-2.2-1.6-1.45-.25-2.55.95"/><path fill="#fff" d="M9.25 25.55q1.1-1.2 2.55-.95 1.5.15 2.2 1.6.75 1.4-.1 2.7-.8 1.3-2.35 1.4-1.6 0-2.45-1.25l-.45-.95q-.15-.75.1-1.55L9 25.9zm.7 7.3-1.5.15-.45.15-.4-.05-.3.05q-.2.05-.5.35l-1.15.3q-.7-.1-.8-.8 0-.55.5-.8l.95-.25.75-.05.2-.7.15-.3q.15-.15.4-.15.4 0 .65.35l.3.65.85-.3h.85q.45.2.45.65-.05.55-.95.75m-7.25-2.1-1.25-1.1q-.45-.7-.4-1.6 0-.85.5-1.55.75-1.05 2.15-1.15 1.4 0 2.25 1t.6 2.4q-.3 1.25-1.45 1.9z"/><path d="M42.75 17.55q.05 3.8-1.25 7.3-.95 2.55-2.35 4l-.2.2.05.05 1.05 1 .55.2q2.65.85 7.6 1.05 3.9.2 5.75-.75 1.2-.65 2.75-2.5 1.5-1.8 1.8-3.1.2-.9.05-3.2V20l-3.7 2.7-2.55 2.05-1.65 1.05-1.35 1-.6.4-1.35-.05-.6-.45-.15-.1-1.1-1.1-.45-.7-.15-.55q-.15-.35-.15-.9l.3-2.05.55-1.75.6-.75.7-.65.6-.8.2-.2q.2-.2.3 0 .2.2-.05.4-.35.5-.4 1l-.3 1.75-.05.65.25 1.8.15.4q5.65-8.6 10.55-13.5l.35-.3q.05-.45.6-1.1L62.9 3l.9-1.1q.65-.6 1.3-.55l1 .3.8.45 1.25.9.2.2h.2q.65.1 1 .55l.4.75.4.9.25.85-.05.7.05 1.25-.25 2.55-1.35 2.7-1.15 1.35-.6.55-.5.3-.25.25q-.3 0-.3-.3l.15-.4 1.3-2.4q.35-.95.35-2.55l-.1-1.9Q67.8 7 67.35 6.3l-.25-.35L64.65 9l-.45.45.5.2q.8.45.95 1.15.1.8-.7 1.8l-2.8 3.75.85-.05q2.7.25 4.15 2.8 1.2 2.15.8 5.05-.4 2.25-1.85 4.8l-2.3 3-3.25 2.3Q56.8 36.2 53.6 36.6q-1.95.25-5.1-.05l-4.45-.65 1.35 2.2.7 1.05H26.75l-.05-.05q-.45-.7-.35-1.95l.2-2.2.3-1.15q-3.95.4-6.65-.75-2.25-1.05-4.3-3.45-1.75-1.95-2.35-3.75-.3-.85-.45-3.15-2-2-3.75-4.55-1-1.6-1.15-2.55-.35-1.6.6-2.65l1.4-.9 4-1.6 1.15-.3q.7-1.3 1.7-2.45 3.4-3.95 8.35-5.1l4.2-.3 1.95.45.55-.3 3-1.7q1.3-.7 2-.75 1.55 0 2.25 1.4l.5 1.7 1.1 4.3.45 3.15q1.3 3.35 1.35 7M62.4 8.9q1.55-2.25 3.65-4.6l.1-.2-.2-.15-.8-.2-3.6 5.15.8.15zm-6.15 7.15-4.75 6.2 4.45-4q3.15-2.9 5.55-6.45l-1.25-.15q-2.35 2.35-4 4.4m-33.8 12.5 1.65.45-.05-.4-.25-1.5-.2-1.9-.05-.35-1.4 1.05-.8.9q-.3.75.05 1.2.3.35 1.05.55m4.35-5.25-1.45.65-.2.75.7 4.55.8.05q1.8-.05 3.6-.85l-1.1-2.05-.55-1.4-.65-1.65-.25-.4zm5.65 3.75q1.4-1.05 4-3.9l-.3-.35-1.85-2.7-.15-.2-1.1.55-.05.05-.35.3-.5-1.05-.7-.8q-.4-.25-.85 0-.4.15-.5.65-.1.3.15 1.1l.25.45.3.4.1.15-1.15.45.15.85.65 1.55.75 2 .25.6.2.45zm-14.9-5.65q-.35.8-.1 1.7t1 1.35l.6.3.2-.25 2.9-2.35q-.1-.9-.7-1.45-.9-.9-2.15-.65-1.15.15-1.75 1.35m20.4-3.7q-.45.15-1.95 1.1l.65 1 1.1 1.85 1.05-1.25.85-1.25q.2-.95-.4-1.4zm1.85-4.55q0-1.1-.6-2.1-.55-.95-1.5-1.5-.95-.5-2.1-.45t-2.05.6q-1 .7-1.3 1.55l-.2.6q-.3 1.35.05 2.5.4 1.3 1.5 2 .5.3.85.4l.4-.3.4-.25-1.15-.6q-.95-.85-.95-2.15l.1-.95q.3-.95 1.2-1.5 1.05-.7 2.4-.35 1.25.4 1.8 1.65.3.75.15 1.65l-.35.95.55-.05h.35q.4-.8.45-1.7"/><path fill="#fff" d="M39.8 13.15q-.05.9-.45 1.7H39l-.55.05.35-.95q.15-.9-.15-1.65-.55-1.25-1.8-1.65-1.35-.35-2.4.35-.9.55-1.2 1.5l-.1.95q0 1.3.95 2.15l1.15.6-.4.25-.4.3q-.35-.1-.85-.4-1.1-.7-1.5-2-.35-1.15-.05-2.5l.2-.6q.3-.85 1.3-1.55.9-.55 2.05-.6t2.1.45q.95.55 1.5 1.5.6 1 .6 2.1m-1.85 4.55 1.3.05q.6.45.4 1.4l-.85 1.25-1.05 1.25-1.1-1.85-.65-1q1.5-.95 1.95-1.1m-20.4 3.7q.6-1.2 1.75-1.35 1.25-.25 2.15.65.6.55.7 1.45l-2.9 2.35-.2.25-.6-.3q-.75-.45-1-1.35t.1-1.7m14.9 5.65-.7.55-.2-.45-.25-.6-.75-2L29.9 23l-.15-.85 1.15-.45-.1-.15-.3-.4-.25-.45q-.25-.8-.15-1.1.1-.5.5-.65.45-.25.85 0l.7.8.5 1.05.35-.3.05-.05 1.1-.55.15.2 1.85 2.7.3.35q-2.6 2.85-4 3.9M26.8 23.3l.9-.35.25.4.65 1.65.55 1.4 1.1 2.05q-1.8.8-3.6.85l-.8-.05-.7-4.55.2-.75zm-4.35 5.25q-.75-.2-1.05-.55-.35-.45-.05-1.2l.8-.9 1.4-1.05.05.35.2 1.9.25 1.5.05.4z"/></g></svg>