<svg xmlns="http://www.w3.org/2000/svg" xmlns:ffdec="https://www.free-decompiler.com/flash" ffdec:objectType="shape" width="75.9" height="40.75"><g fill-rule="evenodd"><path fill="#999" d="M22.3 0h21.25l1.3.05h2.85L61.3.1h3.5l1 .05.8.05h.9l1.5.05h.85l.55.05.4.05h.25l.45.05.95.05h1.3L74 .5l.25.05.15.1.1.1.1.05.05.1v.35l-.05.1-.05.1-.1.1-.05.05.05.05v.3l-.05.1v.05l.05.1v2.85l-.05.05v.95l.05.05v13.85l.05.1v7.8l-.05.1v.45l.05.1v3.25l-.05.1v3l-.05.1v3.25l-.05.1v.15h.55v-.05l.3.05.2.1.1.1.1.1.1.1.05.05.05.1v.1l.05.1.05.1v.35l-.05.1-.05.1-.05.05-.05.1-.05.1-.1.1-.15.1-.15.05-.15.1H74l-.05.05-.05.1-.1.05-.1.1h-.15l-.2-.05-.15-.1-.1-.1v-.1h-1.15l-3.55.05H12.2l-4.3-.05-2-.05H4.75l-.65-.05h-.5l-.75-.05-.75-.05-.25.05-.25.05-.25-.05-.15.05-.35-.1-.2-.05-.1-.1-.1-.1-.1-.1-.05-.1-.05-.1-.05-.05-.05-.1v-.3l-.05-.05v-24.3l.05-.1V8.6l.05-.1v-1l.05-.1v-.65l.05-.1V3.6l.05-.1v-.65l.05-.1V2.6l.05-.1.05-.1v-.1l.05-.1v-.1L.5 2.05l-.1-.1-.1-.1-.1-.1-.05-.1L.1 1.6l-.05-.1L0 1.4V.85l.05-.1.05-.1L.15.6.2.5.3.4.4.3.5.2.7.1l.35-.05h.5l13.1.05h2.55l1.2-.05h3.9zm8 2.25q-2.25-1.2-6-1.5l-2.05-.1-2.35.4q-1.7.4-2.5.9L15.35 3.7q-.1.05-.05.15l.15.1.35-.15 2.15-1.3 1.5-.35 2.15-.25 3.65.25.55.1q2.2.4 3.65.95l1.25.2.15-.05.1.05.55-.15.45-.35.75-.35 1.25-.6 1.95-.55 2.65-.05 2.25-.15.35-.2-.8-.65-.8-.15-3.75.05q-.7.15-2.1.75l-1 .5q-.55.25-1.1.75zm24.9 9.45h.3l-.15-1.05-.35-1.1q-.55-1.05-1.5-1.95l-.75-.45-1.35-.2q-1.65 0-2.8.55t-2.15 1.8q-.75.85-.65 1.6l.15.45.45.1.4-.4.4-.35.6-.5q.75-.65 1.5-1l.45-.2.9-.1 1.4.1.75.45q.8.6 1.2 1.3l.85.9zM50.15.5l-.5.15-.6.05-.45.15-.4.05-.8.25-1.25.25-.95.4-.1.05-.25-.25q-1-.75-2.35-.85l-.1.05.8.45 1.35.6.25.2v.05l-.1.15-.15.3q0 .4.35.5l.95-.3 1.25-.55.8-.3.9-.35.6-.15.4-.05.5-.2.95-.1.3-.1.15-.25-.35-.2zm7.45 7.65q.2-.1 0-.5-.25-.8-.7-1.3l-1.15-.95-1.35-.9-1.4-.55-1.75-.45q-2.1-.2-4.85 1.2l-.65.35q-.55.35-1.45 1.25-.5.5-.65 1.05l.15.6q.15.3.45.35.4 0 .95-.75.95-1.2 3.75-2.3l1.05-.3 2.95.45 1.15.45 1 .65.75.35 1.3 1.2q.25.25.45.1m.85 24.15q-.35-.2-.9.35l-2.4 2.45q-2.25 1.95-5.95 2.65l-9.2-.3q-.35 0-.35.15l.15.15 1.5.7 1.8.45 3.55.25L49.4 39l1.7-.4.5-.15q2.45-.85 4-2.2l2.65-2.65.25-.35q2.05-.05 3.8-1.25 1.25-.85 2.45-2.5l2.15-3.65.55-1.3.6-1.65q1.1-3.7-.2-7.25l-.15 4.05-.2 1.95-.95 2.55-2.5 4.4q-1.75 2.35-3.9 3.15l-1.65.6zm.1-21.25q-.25.3.05.7l.5.55q2.3 1.85 2.95 4l.4 2.4.05 1.25q-.05 2-1.5 4.5l-.8 1.2-2.1 1.75-2.4 1.5q-.35.25-.35.5 0 .4.65.4l1.5-.4q2.35-1 4-3.1t2.15-4.6q.35-1.9 0-4.25-.15-1.35-.65-2.4l-1.1-1.75-.55-.7q-.85-1.25-1.6-1.7-.9-.45-1.2.15m3.85-4.7 1.95 2.7 2.35 4.7.15.2.25-.2v-.35l-.75-3.15q-.4-1.45-1.6-3.35L63.7 5.4l-1.45-1.45-1.55-1.4-.65-.4q-1.5-.75-3.25-.65l.7.65.05.05.2.3.5.35 1.4.85 1.2 1.1zm-47.1 27.1q-.3.1-.2.5.05.65.5 1.25l.8.95 2.75 1.8 1.35.5 2.15.5q3.8.7 8.1.15l2.55-.65.85-.45.7-.4-.75-.1-3.25.5-3.2.3-1.85-.15q-4-.4-6-1.3l-2.45-1.4q-1.3-.9-1.65-1.6-.1-.45-.4-.4m-.4-18.25.15-.6q-.1-.5-.45-.35l-.35.5-.45.75-.7 1.55-.95 2.5q-.7 2.2-.45 4.5l.3 1.6 1.3 2.05q2.15 2.3 4.8 2.35l.15.25.1.5.3.7q.85 1.4 2.2 2.15 1.15.65 2.85.9h1.85q1.1-.2 1.65-.75.45-.45.75-.45l-.1-.1-2.65-.35-2.55-.45-.8-.35-.75-.5-1.4-1.25-.5-.55v-.15l-.05-.2-.8-.7-1-.45q-2.4-.95-3.35-3.3-.9-2.25-.15-5.85l.15-.9zm-.25 16.75-1.6-.55q-1.2-.35-1.75-.8l-.85-.9q-1.8-2.5-1.7-6.65.05-4.55 2.35-10.45.65-1.9 1.6-2.65-.45-.3-1.05.45-2 2.7-3.1 6.9l-.6 2.85q-.5 2.85-.3 5.15.25 3.35 2.05 5.05l1.35 1.05 1.75.75zm6.9-7-.6-.45-.75-.3-1.5-1-.45-.6-.15-.75q-.45-3.1.9-6.1l.65-1.25L21 12.2l.15-.35-.4-.25-.45.25Q17.75 13.9 16.5 17l-.35 1.15q-.35 1.4-.35 3.7-.1.75.05 1.3l.45.95 1.05 1.35 1.85 1 1.2.3.6-.05.2.4 2 2 .65.5.55.25 2.1-.1.4-.7-.1-.45-.4-.55-.65-.25-.8-.25-.45-.4-.4-.2-.9-.65-1.05-.85-.2-.3-.35-.15zm8.8-15.55-.55-.65-1.3-.8-.55-.25-.55-.15-.65.05h-1.4l-1.3.25q-.3.15-.9.6-.9.7-1.25 1.3-.2.5-.05.7.25.35.7 0l.75-.5.8-.35.75-.2.7.05 1.25.1.7.2.7.3.4.35 1.45.1q.55-.4.3-1.1m-2.1-2.5 2 .6.3.1.2-.15.05-.25-.4-.45q-.75-.55-2.8-1.2l-2.9-.6q-1.45-.05-3.05.6-3 1.25-5.3 4.15-.7.8-.85 1.6v.6l.5.35.6-.45.95-1.25Q18.7 9.1 20.15 8l1.35-.8 1.7-.6 1.25-.25 2.15.25zm17.9 28.25 1.35.05 2.6-.25 2.1-1.25 1-.9 1.2-1.75q.3-.65 0-.9l-.55-.05-.45.45q-1.2 1.3-2.35 2.1l-.85.55-1 .3q-2.95.6-5.2-.65l-.6-.25q-.4 0-.5.3l.2.65.9.7 1.45.7zm-.25-6.6-.7.2q-.5.1-.65.45-.15.25.15.55l.55.3 3.4.55h1.1l1-.4 2.15-1.3.55-.5.75-.9.5-.7q2.2-.6 3.25-1.5l1-1.15q.65-.9 1.1-2.35l.35-2.15v-1.2l-.2-.9-.9-2.05-.6-.85q-.65-.75-1.15-.65-.15 0-.25.15l-.05.3q.15 1.1.75 2.55l.4 1.35-.1 2.2-.2.85-.25.65-.5.95q-.5.7-1.5 1.3l-1.85.85q-.5.2-.7.4l-.2.25-.45.45q-.95 1.1-2.3 1.8l-1.45.55zm-3-23.35-1.35-.3q-.05-.25-.45-.25l-2.55-.25H37.3l-1.15.2q-2.1.55-3.2 1.3-.45.25-.55.5-.15.35 0 .7l.5.4.95-.25q1.95-1.1 3.3-1.4l3.65-.15 2.15.25.3-.35z"/><path fill="#fff" d="M62.4 6.35 60.85 4.8l-1.2-1.1-1.4-.85-.5-.35-.2-.3-.05-.05-.7-.65q1.75-.1 3.25.65l.65.4 1.55 1.4L63.7 5.4l1.05 1.5q1.2 1.9 1.6 3.35l.75 3.15v.35l-.25.2-.15-.2-2.35-4.7zm-3.85 4.7q.3-.6 1.2-.15.75.45 1.6 1.7l.55.7 1.1 1.75q.5 1.05.65 2.4.35 2.35 0 4.25-.5 2.5-2.15 4.6t-4 3.1l-1.5.4q-.65 0-.65-.4 0-.25.35-.5l2.4-1.5 2.1-1.75.8-1.2q1.45-2.5 1.5-4.5l-.05-1.25-.4-2.4q-.65-2.15-2.95-4l-.5-.55q-.3-.4-.05-.7m-.1 21.25.05.05 1.65-.6q2.15-.8 3.9-3.15l2.5-4.4.95-2.55.2-1.95.15-4.05q1.3 3.55.2 7.25l-.6 1.65-.55 1.3-2.15 3.65q-1.2 1.65-2.45 2.5-1.75 1.2-3.8 1.25l-.25.35-2.65 2.65q-1.55 1.35-4 2.2l-.5.15-1.7.4-2.75.15-3.55-.25-1.8-.45-1.5-.7-.15-.15q0-.15.35-.15l9.2.3q3.7-.7 5.95-2.65l2.4-2.45q.55-.55.9-.35M57.6 8.15q-.2.15-.45-.1l-1.3-1.2-.75-.35-1-.65-1.15-.45L50 4.95l-1.05.3q-2.8 1.1-3.75 2.3-.55.75-.95.75-.3-.05-.45-.35l-.15-.6q.15-.55.65-1.05.9-.9 1.45-1.25l.65-.35q2.75-1.4 4.85-1.2l1.75.45 1.4.55 1.35.9 1.15.95q.45.5.7 1.3.2.4 0 .5M50.15.5h1.2l.35.2-.15.25-.3.1-.95.1-.5.2-.4.05-.6.15-.9.35-.8.3-1.25.55-.95.3q-.35-.1-.35-.5l.15-.3.1-.15v-.05l-.25-.2-1.35-.6-.8-.45.1-.05q1.35.1 2.35.85l.25.25.1-.05.95-.4 1.25-.25.8-.25.4-.05.45-.15.6-.05zm5.05 11.2-.35-.05-.85-.9q-.4-.7-1.2-1.3L52.05 9l-1.4-.1-.9.1-.45.2q-.75.35-1.5 1l-.6.5-.4.35-.4.4-.45-.1-.15-.45q-.1-.75.65-1.6 1-1.25 2.15-1.8t2.8-.55l1.35.2.75.45q.95.9 1.5 1.95l.35 1.1.15 1.05zM31.6 2.25q.55-.5 1.1-.75l1-.5q1.4-.6 2.1-.75L39.55.2l.8.15.8.65-.35.2-2.25.15-2.65.05-1.95.55-1.25.6-.75.35-.45.35-.55.15-.1-.05-.15.05-1.25-.2Q28 2.65 25.8 2.25l-.55-.1-3.65-.25-2.15.25-1.5.35-2.15 1.3-.35.15-.15-.1q-.05-.1.05-.15l2.05-1.75q.8-.5 2.5-.9l2.35-.4 2.05.1q3.75.3 6 1.5l.45.25.3.25zM42.9 5.2l.35.4-.3.35-2.15-.25-3.65.15q-1.35.3-3.3 1.4l-.95.25-.5-.4q-.15-.35 0-.7.1-.25.55-.5 1.1-.75 3.2-1.3l1.15-.2h1.25l2.55.25q.4 0 .45.25zm3 23.35 3 .05 1.45-.55q1.35-.7 2.3-1.8l.45-.45.2-.25q.2-.2.7-.4l1.85-.85q1-.6 1.5-1.3l.5-.95.25-.65.2-.85.1-2.2L58 17q-.6-1.45-.75-2.55l.05-.3q.1-.15.25-.15.5-.1 1.15.65l.6.85.9 2.05.2.9v1.2l-.35 2.15q-.45 1.45-1.1 2.35l-1 1.15q-1.05.9-3.25 1.5l-.5.7-.75.9-.55.5-2.15 1.3-1 .4h-1.1l-3.4-.55-.55-.3q-.3-.3-.15-.55.15-.35.65-.45zm.25 6.6-.7-.2-1.45-.7-.9-.7-.2-.65q.1-.3.5-.3l.6.25q2.25 1.25 5.2.65l1-.3.85-.55q1.15-.8 2.35-2.1l.45-.45.55.05q.3.25 0 .9l-1.2 1.75-1 .9-2.1 1.25-2.6.25zM28.25 6.9l-1.65-.3-2.15-.25-1.25.25-1.7.6-1.35.8q-1.45 1.1-2.6 2.55l-.95 1.25-.6.45-.5-.35v-.6q.15-.8.85-1.6 2.3-2.9 5.3-4.15 1.6-.65 3.05-.6l2.9.6q2.05.65 2.8 1.2l.4.45-.05.25-.2.15-.3-.1zm2.1 2.5q.25.7-.3 1.1l-1.45-.1-.4-.35-.7-.3-.7-.2-1.25-.1-.7-.05-.75.2-.8.35-.75.5q-.45.35-.7 0-.15-.2.05-.7.35-.6 1.25-1.3.6-.45.9-.6l1.3-.25h1.4l.65-.05.55.15.55.25 1.3.8zm-8.8 15.55.05.05.35.15.2.3 1.05.85.9.65.4.2.45.4.8.25.65.25.4.55.1.45-.4.7-2.1.1-.55-.25-.65-.5-2-2-.2-.4-.6.05-1.2-.3-1.85-1-1.05-1.35-.45-.95q-.15-.55-.05-1.3 0-2.3.35-3.7L16.5 17q1.25-3.1 3.8-5.15l.45-.25.4.25-.15.35-1.35 2.3-.65 1.25q-1.35 3-.9 6.1l.15.75.45.6 1.5 1 .75.3zm-6.9 7-1.85.2-1.75-.75-1.35-1.05q-1.8-1.7-2.05-5.05-.2-2.3.3-5.15l.6-2.85q1.1-4.2 3.1-6.9.6-.75 1.05-.45-.95.75-1.6 2.65-2.3 5.9-2.35 10.45-.1 4.15 1.7 6.65l.85.9q.55.45 1.75.8zm.25-16.75-.9 3.05-.15.9q-.75 3.6.15 5.85.95 2.35 3.35 3.3l1 .45.8.7.05.2v.15l.5.55 1.4 1.25.75.5.8.35 2.55.45 2.65.35.1.1q-.3 0-.75.45-.55.55-1.65.75H23.7q-1.7-.25-2.85-.9-1.35-.75-2.2-2.15l-.3-.7-.1-.5-.15-.25q-2.65-.05-4.8-2.35L12 25.65l-.3-1.6q-.25-2.3.45-4.5l.95-2.5.7-1.55.45-.75.35-.5q.35-.15.45.35zm.4 18.25q.3-.05.4.4.35.7 1.65 1.6l2.45 1.4q2 .9 6 1.3l1.85.15 3.2-.3 3.25-.5.75.1-.7.4-.85.45-2.55.65q-4.3.55-8.1-.15l-2.15-.5-1.35-.5-2.75-1.8-.8-.95q-.45-.6-.5-1.25-.1-.4.2-.5"/><path d="M60.85 10.2q-.5.45-1 .5l-.8.05-1.4-.05-.45-.15-.65-.3-.65-.7-.3-.45q-.2-.55-.1-1.4l.05-.4-.8-.35-.6-.6-.1-.65q0-1.25 1.05-1.75l2.05.1.45.4.2-.05 1.55-.15q.2-.75.7-.95l.8-.15q.6 0 1.05.3.5.35.5.8l.95-.4 1.35-.1.95.05.75.35.35-.35.4-.15.65-.05 1.05.05q.55 0 1 .3l.55.9q.1.6-.2 1.05l-.05.45.8-.5.25-.45q.1-.3.35-.3l.35-.05.45-.15q.35-.1.35.2l-.1.2-.7.3-.05.7-.45.55q-.85.6-1.55.45-.4 0-.5-.35-.25-.15-.35-.7l-.05-.65-.05-.3-.25-.05-.85.05-.2.65.2.65v.9l-.15.8-.35.45-1.05 1q-1.15.85-2.4.55l-.8-.25-.5-.3-.45-.4-.2-.15-.5.5zm1.5 14.55h-.05l-.9 1-.35.25-.1.05.25.25 1 .1q.5-.25.5-.8v-.35zM56.6 26.5l-.9-.55q-.35-.5-.15-1.35.2-1.05.75-1.5.4-.35 1.1-.35.7-.05 1.25.25l.5.45h1.4q.05-.45.35-.75.65-.9 1.7-.75.95.15 1.45 1.05.7 1.25-.1 2.2l-.45.35q.35.95.1 1.95v.2h.05q.7.25 1.05.6l.4.55.9 1.65.05.1.5-.55q.65-.65.7-1.25l.1-.65-.55-1.05-.4-.35-1.3-1.2q-.65-.9-.15-1.7.4-.6 1.1-.5.3 0 .3.15l-.25.35-.45.15q-.25.2-.05.5l.45.35 1.15.65 1.05.75.7 1.1.25 1.15-.25 1.15q-.85 1.95-3.05 3.7l-.55.7q-.55.5-1.5.65l-1.6.05-.9-.05-.7-.2q-1-.4-1.1-1l-.15-.2-.2-1.2-.15-2v-.3l-.25-.05-.85-.4-.75-.75q-.5-.7-.5-1.1v-.6l.05-.15.55.25.25-.05.25-.2.15-.2.05-.05q-.2-.1-.45-.35l-.35-.5-.05-.15q-.3.05-.5.3t-.1.6zm4.15-18.7q.7-.35.6-1.1 0-1-.95-1.25l-.95.1-.05.8-.35.8-.1.25.25.3.75.3zm-13.9 18.7.15 2.2v.65q-.15 1.45-2.1 3.25.4.55.3 1.25-.1.75-.65 1.15-.7.55-2.35.5l-.7-.05-.15.2-1.05 1.25-1.55.15-.85-.15q-.9.75-2.45.4l-1.6-1h-.1l-1.15.3-1.3.15q-1.05 0-1.5-.35l-.7-.65-.4-.8q-.1-.7.45-1.35l-1.05-1.4-.5-1.05q-1.95.6-2.95 1.2-1.05.55-1.8 1.25l.75-.1 1.45-.1q.75.05 1.4.45.7.4.9 1.1.35 1.15-.6 2-.75.8-1.95.9l-2.3-.25q-1.05-.1-2.3-.7-.7-.35-.9-.7-.3-.4-.3-1.3 0-1.25.15-1.65l.6-1.1q1.2-1.5 3.4-2.6l4.15-1.5.55-.1.2-.5.15-.25.6-.7-1.55-.15q-2.3-.35-3.7-1.65l-1.25-1.3-.3-.4-.75-.2q-.85-.35-1.4-1.15t-.55-1.7l.6-3.2.7-1.45 1.95-3.15 1.15-1.2q.7-.45 1.6-.45l1.75.3q.9.4 1.25 1.15l.3 1.15.55-1.2.35-.65.4-.55-.5-.8q-.15-.35-.15-1.15 0-1.05.15-1.55l.8-1.7.35-.95.4-.9q.4-.5 1.1-.6.55-.1 1.1.35l.7.8.85 1.65.65.85 5.75-.2.3-.3 2.05-2.25q.6-.95 1.1-1.15.4-.2.85 0 .45.1.65.5l.3 1.05.45 1.5.35 1.45.05 1.1.1.7-.05.65.1.6.05.85v.2l.25 1.15.15.55v.1q.05-.75.4-1.25.4-.75 1.3-1.15.85-.4 1.8-.3.9 0 1.55.45l1.05 1.2 1.7 3.15.6 1.45.3 3.2q-.05.9-.65 1.7l-1.5 1.15-.8.2-.3.4-1.35 1.3q-1.55 1.3-3.85 1.65zh-.3l.15.25.15.65zm-1-11.25q0-.95-.4-1.5l.5-.55-.1-.5-.45-.35-1.1.05q-1.9.45-3.5 1.4l-.2-.5-.45-.25q-.3.05-.45.7 0 .8.15 1.1.35.65.85.65l.7-.1.05.45q.25.6.85.95l.85-.1h1.3l.85.1q.45-.5.55-1.55M57.9 8.8l.15-.5h-.85q-.55-.2-.8-.65l-.1-.25h-.05l-.4.7.15.75.55.45h.75zm-9.7 6.6-.25 1.75 1-.35 1-.1.65-.05q-.1-.15-.6-.35-.85-.35-1.3-.85l-.6-.7zm-17.35 1 .5.7.1-.05 2.2-.15.65.1.5-.45.45-1.25.15.1 1-.1.25-.85.35-.85q.25-.55-.15-.8-.35-.2-.7.15l-.35.6q-.35.05-.95-.35l-1.75-.8-1.5-.1-.55.5q-.2.4 0 .7l.15.2-.4.45-.2 1.05q0 .75.25 1.2m7.3 2.8.3-.25.15.1 1.6 1.4.45.25q.45.1.55-.45l-.2-.75-.55-.6-1-1.3-.2-.25-.1-.7-.25-.5-.15-.6q-.15-.45-.45-.5l-.25.15-.3.6-.25 1.3v.4l-.6.4-.45.45q-.8.75-1.1 1.35l-.1.55.4.45.65-.25.7-.35zM22 8.8l-.55.7-.95.9q-.5.5-1.35.6l-1.5-.05q-1.5-.2-2.35-.95h-.05l-2.05 1.3-1.15.45-.9.05q-1.45-.1-2.25-1.1-.4-.5-.55-1.45l-.05-.4-.25.1-.45.3-.45.5-.95.95-.45.4-.65.1q-.9.1-1.7-.4l-.55-.65-.2-.25q-.1-1.3.6-2.35L3.5 7l.4-.55.1-.65-.35-.1q-.1-.1-.05-.35l.65-.1.5.45-.1.9-.45 1.1-.2.75v.6l.3.25.45.15.65-.4.85-1.15q.8-.95 1.95-1.25l.6-.05.35-.55.7-.6 1.75-.9 1.8-.4.65-.1.95.1.1-.3q.15-.5.65-.75l.75-.15q.65 0 1.1.45l.4.8 1.1.05.9.2q.2-.3.5-.4l1.4.15.8.55q.35.4.3 1l-.4.95v.05l-.35-.25-.1.05-.65.45-.95.65-.05.1.05.25.2.4q.45.45 1.05.4zm6 6.6.15-.65-.65.7-1.4.85q-.5.2-.6.35l.65.05 1 .1.95.35q-.2-.9-.1-1.75M9.85 26.2l.7-.4.15-.35-.6-.25-.55-.55-.25.1-.2.5q-.1.55.35.8zm5.8-18.1q.25.55.9.65.55.15 1-.4l.25-.45-.2-.2-.8-.65-.5-.4-.5.35q-.4.5-.15 1.1m-.2 16.9.05.2-.15 1.45-.65 1.5-1.1.95-.6.35q.55 1.25.45 3.55l-.2 1.35q-.3.9-1.2 1.2l-1.4.2-4.2-.45q-.9-.25-1.3-.85l-.25-.5-.1-.9.15-.6h-.5l-.7-.15-.35-.2-.6-.55-.3-.8.05-.4.2-.65.15-.35 1-1.35q.2-.4-.05-.65l-.4.05-.35-.1q-.25-.2-.05-.4.15-.2.4-.3h.5l.65.1.2.4.15.65-.05.5-.1.35-.25.5-.4.55-.15.45.1.4.45.15 1.3-.35H6q.95-1.5 2.3-2.55l-.1-.3-.1-1.1h-.15q-.8 0-1.6-.7l-.45-.7.05-.75q.2-.9.7-1.3.6-.55 1.9-.45.8 0 1.25.4l.65-.35 1.45-.25h.2v-.2q.55-1.2 2.05-1.2l.9.25.4.6q.3.75.05 1.45l-.4-.25-.15-.05v.05l-.1.05-.35.65-.85.95-.15.15.2.25.8.35.6-.05z"/><path fill="#fff" d="m62.35 24.75.35.5v.35q0 .55-.5.8l-1-.1-.25-.25.1-.05.35-.25.9-1zm-5.6 2-.05-.05-.1-.15v-.05l-.05-.1q-.1-.35.1-.6t.5-.3l.05.15.35.5q.25.25.45.35l-.05.05-.15.2-.25.2-.25.05zm4-18.95-.8.2-.75-.3-.25-.3.1-.25.35-.8.05-.8.95-.1q.95.25.95 1.25.1.75-.6 1.1m-2.85 1-.6.5h-.75L56 8.85l-.15-.75.4-.7h.05l.1.25q.25.45.8.65h.85zm-12.05 6.45q-.1 1.05-.55 1.55l-.85-.1h-1.3l-.85.1q-.6-.35-.85-.95l-.05-.45-.7.1q-.5 0-.85-.65-.15-.3-.15-1.1.15-.65.45-.7l.45.25.2.5q1.6-.95 3.5-1.4l1.1-.05.45.35.1.5-.5.55q.4.55.4 1.5m-7.7 3.95-1.15.9-.7.35-.65.25-.4-.45.1-.55q.3-.6 1.1-1.35l.45-.45.6-.4v-.4l.25-1.3.3-.6.25-.15q.3.05.45.5l.15.6.25.5.1.7.2.25 1 1.3.55.6.2.75q-.1.55-.55.45l-.45-.25-1.6-1.4-.15-.1zm-7.3-2.8q-.25-.45-.25-1.2l.2-1.05.4-.45-.15-.2q-.2-.3 0-.7l.55-.5 1.5.1 1.75.8q.6.4.95.35l.35-.6q.35-.35.7-.15.4.25.15.8l-.35.85-.25.85-1 .1-.15-.1-.45 1.25-.5.45-.65-.1-2.2.15-.1.05zM22.6 6.75l.05.05q.55.7.05 1.45l-.7.55h-.2q-.6.05-1.05-.4l-.2-.4-.05-.25.05-.1.95-.65.65-.45.1-.05zM15.65 8.1q-.25-.6.15-1.1l.5-.35.5.4.8.65.2.2-.25.45q-.45.55-1 .4-.65-.1-.9-.65m-5.8 18.1-.4-.15q-.45-.25-.35-.8l.2-.5.25-.1.55.55.6.25-.15.35zm5.65-3.05.2.3q.25.4.15.85l-.4.7-.35.25-.6.05-.8-.35-.2-.25.15-.15.85-.95.35-.65.1-.05v-.05l.15.05z"/></g></svg>