<svg xmlns="http://www.w3.org/2000/svg" xmlns:ffdec="https://www.free-decompiler.com/flash" ffdec:objectType="shape" width="34.7" height="32.05"><g fill-rule="evenodd"><path d="m25.85 4.15.25.8.15.75v.85l-.05.8v.25l-.2.8-1.1 1.65-.8.7q-1.45.9-3.15.4-1.6-.7-2.3-2.3l-.1-.6v-.6l.05-1.1.15-1 .05-.2q.25-.75.65-1.25l.3-.3v-.1l1.45-1.1 1.85-.2 1 .2q1.25.35 1.8 1.55m4.3 3.7 1.3.45.65.4q.75.6.95 1.55.25.95-.05 1.8l-.75 1.35-.6.75q-.65.6-1.45.85l-.15.05-1.1.1h-.1q-1.5-.1-2.45-1.35-.9-1.05-.75-2.4l.2-1.05q.25-.8.75-1.3l.6-.55q.4-.3.95-.45l.8-.2zM7.55 19.3l.25-.55 1.35-2.25L11 14.45l.05-.05 1.85-1.2 1.35-.6q.9-.35 1.85-.55l5.1-.3q1.65.25 2.3.6 2.55 1.15 3.95 4.9l.6 1.65q.45 1.4.55 2.75v.3l-.1 1.95q-.35 1.8-1.35 3.15-1.15 1.5-2.75 2l-3.5-.1q-1.3-.5-2.1-1.45l-.6-.9-.5.95-1.5 1.25q-1.35.75-3.05.8l-1.7-.1-1.65-.55q-1.7-.8-2.5-2.25-1.15-2-.65-4.7l.75-2.4zM16.5 6.55v.3l-.05 1.05-.35 1.6-.3.65q-.75 1.15-2.15 1.65l-.35.1q-1.45.3-2.75-.4l-.2-.15-.55-.4-.3-.35-.65-1.1L8.1 8 8 7.35q-.1-.7.05-1.45.5-1.5.9-2 .7-1.05 1.65-1.3l1.9-.2q1.25.15 2 .65l.7.7q1.1 1.3 1.3 2.8m-7.65 5.8q.35 1 .2 2-.05 1.3-.95 2.35l-.85.75-.25.15-.75.3-.4.1L4 17.85q-1-.25-1.7-1l-.75-1Q1.05 14.7 1 13.8q-.15-1.25.35-2.05l.4-.55q.8-.95 2-1.25l2.4-.15.35.1q.65.2 1.1.65l.65.65.35.55z"/><path fill="#fff" d="M30.15 7.85h-1.2l-.8.2q-.55.15-.95.45l-.6.55q-.5.5-.75 1.3l-.2 1.05q-.15 1.35.75 2.4.95 1.25 2.45 1.35h.1l1.1-.1.15-.05q.8-.25 1.45-.85l.6-.75.75-1.35q.3-.85.05-1.8-.2-.95-.95-1.55l-.65-.4zm-4.3-3.7q-.55-1.2-1.8-1.55l-1-.2-1.85.2-1.45 1.1v.1l-.3.3q-.4.5-.65 1.25l-.05.2-.15 1-.05 1.1v.6l.1.6q.7 1.6 2.3 2.3 1.7.5 3.15-.4l.8-.7L26 8.4l.2-.8v-.25l.05-.8V5.7l-.15-.75zm-16 26.6q-2.15-.7-3.6-1.75-1.8-1.3-3.5-4.15-3.3-5.4-2.65-9.9.25-1.65 1.2-3.7 3.2-7.2 9.05-9.8Q14.4-.4 19.6.1q3.1.2 5.4 1.3 2.05.75 4.25 2.55 2.4 1.95 3.5 3.65 2.15 3.3 1.95 8.45-.1 3.1-1 5.65-1.1 3.1-3.45 5.55-2.4 2.45-5.45 3.6l-3.95.95-4.6.15-1.35-.3zM7.4 19.6 6.65 22q-.5 2.7.65 4.7.8 1.45 2.5 2.25l1.65.55 1.7.1q1.7-.05 3.05-.8l1.5-1.25.5-.95.6.9q.8.95 2.1 1.45l3.5.1q1.6-.5 2.75-2 1-1.35 1.35-3.15l.1-1.95v-.3q-.1-1.35-.55-2.75l-.6-1.65q-1.4-3.75-3.95-4.9-.65-.35-2.3-.6l-5.1.3q-.95.2-1.85.55l-1.35.6-1.85 1.2-.05.05-1.85 2.05-1.35 2.25-.25.55-.2-.05zm9.1-12.9.3-.15h-.3q-.2-1.5-1.3-2.8l-.7-.7q-.75-.5-2-.65l-1.9.2q-.95.25-1.65 1.3-.4.5-.9 2-.15.75-.05 1.45l.1.65.75 1.5.65 1.1.3.35.55.4.2.15q1.3.7 2.75.4l.35-.1q1.4-.5 2.15-1.65l.3-.65.35-1.6.05-1.05zm-7.65 5.65-.25-.6-.35-.55-.65-.65q-.45-.45-1.1-.65l-.35-.1-2.4.15q-1.2.3-2 1.25l-.4.55q-.5.8-.35 2.05.05.9.55 2.05l.75 1q.7.75 1.7 1l1.85.15.4-.1.75-.3.25-.15.85-.75q.9-1.05.95-2.35.15-1-.2-2"/></g></svg>