<svg xmlns="http://www.w3.org/2000/svg" xmlns:ffdec="https://www.free-decompiler.com/flash" ffdec:objectType="shape" width="68.6" height="42.35"><g fill-rule="evenodd"><path fill="#999" d="m0 20.5.1-.9q.05-.6.25-1l.6-1.05.25-.65.65-.05.1.25.1 1.75-.1.75.15 1.4.1.35.15.35.15.95.05.4-.3 1-.7 1.2-.3.55H1.1l.05-1.35-.2-.6-.35-.7-.2-.95zm21.2 10.45-.55 2.8.1-.05q1.35-.45 2.2.45l.45.9 2.9-.3 3.1-.15-.05-.05q-.35-.9.15-1.75.5-.9 1.4-1.3l.7-.35.55-.55q.75-.75 1.8-.75l.3-.05v-.25l-.45-1.25-.1-.6q-.05-.55.5-1 .6-.45 1.2-.3l1.1.8 1.1 1.65q.4 1.05.25 3.5l-.1.8-.5.7-.5.55h3l3.65.4 1.05.45 2.1-.05.85.2q-.45-10.95-5.3-17-1.5-1.85-3-2.4l-3.75-.35q-4.8.25-7.75 2.35-1.55 1.15-2.95 3.15-1.1 1.55-1.95 3.65-.65 1.7-1.5 6.15m46.95-.55.45 1.7q.1 1.05-.25 1.75l-.95 1.4-1.45 1.55-.7-1q-.15-.45.1-1.25.3-1.15.2-2l-.4-1.65-.4-1.65v-.95q.3-2.25.8-3.3l1.25-2.75.05-.75q-.1-.35.1-.5.4-.2.55.35l.4 1.25.1.75-.15.85-.4 2.7q-.1.6-.05 1.15zm-7.5-28 .05.45-.25 2.5v1.1q.05 1 1.05 2.2l1.6 1.95.6 1.2v1.1l-.1 1.1-.05 1.4q-.1.9-.95 2.3-.5-.35-.65-1.25l-.8-2.9-1.75-2.6Q58.2 9.4 58.15 8.1q0-.45.15-1.15l.45-1.85q.5-1.25 1.25-2.35l.25-.35q.2-.15.4 0M20.35.45q.6-.65 1.5-.4.7.2 1.25.85l.8 1.25q.25 1.05-.65 3l-.6.9-1 .15q-.4-.2-.3-1.25l-.25-1.4-.9-1.5q-.45-.95.15-1.6m34.85 17.3-.35 2.35q1.05-1.4 1.55-2.95.95-2.8 0-5.3-.5-1.2.05-1.65l1.1-.15.8.65 2 2.9 1.55 3.05q1.65 4.6-.5 9.2l-1.7 3.05q-1 1.85-1.3 3.15-.4 1.8.2 3.6l.45-.95 1.3-2.2q.65-.8 1.25-1.25.5-.35.7-.4.6-.15 1 .4l.15.9-.3.9q-.2 1.1.3 2.5l1.45 3.1.15.95.1 1.1-.15.95q-.3.7-1.2.7-.8 0-1-.75l-.15-.25-1.4.05-1.85.05-6 .05h-.55l-.3.05-.35.05h-4.5l-.2-.05-.15-.05h-.1l-.15-.1-.2-.1h-.85l-17.55-.45-5.35-.05-1.25.3-.8.6-.95.05-.15.05-.25.1-.35.05h-1.05L13 41.9h-1.8q-.4.35-.95.35-.4.05-.8-.25l-.1-.1H3.9q-.65.3-1.05 0l-.15-.05-.15-.05-.05-.1-.15-.1-.05-.1-.05-.15-.05-.1-.1-.1v-.1l.05-.1v-.4l.1-.1v-.1l.1-.1v-.1l.1-.1.05-.1.1-.15.05-.1.05-.1.05-.1.1-.1v-.1l.05-.1v-.3l.1-.1.05-.1v-.1l.05-.1v-.05l.05-.45-.35-2.1-.55-2.25-.15-1.05q-.05-1.7 1.4-3.3l.55-.35.55.1.1.55-.05 1.4.3.85.65 2q2.55 2.05 2.8 6.05l1.15.05v-.05q.65-1.75-.3-4.55l-.9-2.25-.65-2.25q-.45-2.6.95-7.55l.2-.75.45-2.05.3-2.2-.45.7q-1.7 3.05-2.45 6.05l-.95 2.6-.5-.4-.3-.65-.75-1.05q-.45-.65-.65-1.9-.45-1.3-.4-2.35.05-1.45.7-3.25L5.75 14q1-1.95 1.4-3.5v-.15l.05-.75-.05-1.85L6.6 5.9q-.4-.5-.3-.8.15-.4.75-.3.3.05.65.45L9.3 7.1l.5.9.35 1.4.15.65.05.55q.35 1.15.35 2.55.75 1.45 1 3.2l.05 3.45.05 1.25v.15l-.15.95q-.05 1.85.6 3.6.65 1.95 2.05 3.4l.2-.35q.75-2.1-.65-5.8l-.7-2.4q-.2-.85-.1-2.55.5-7.3 5.2-12.95.8-.9 1.35-.7.65.15.55 1.55-.15 1.75.7 3.35.8 1.6 2.25 2.55l1.95-2.5L26.5 7.1q1-2.3-.35-4.75l-.25-.8q.05-.65.55-.65l.55.2.15-.1.2-.1.35-.05.6-.05v.05h.1l.05-.15q.2-.5.8-.5.8-.1 1.65.9l1.25 1.55 1.5 2.75.2.6.3 2.05L35.6 6l.25-.65.3-1.35q.35-1.65 0-2.55-.3-.65 0-.95l.6-.1.45.3.2.3.05-.05.1-.1.1-.1.25-.1.35-.05h2.9v.05h2.3v-.1q-.1-.2.1-.35l.25-.2.4.15q4.85 3.65 7.15 6.3 3.3 4.05 3.8 8.35z"/><path d="M22.25 37.7q-3.7-1.6-5.3-3.4-2.9-3.15-2.9-9.35 0-5.4 2.15-10.2l-.2-.65V14l-.5-1.1-.4-1.6-.25-.5L14 7.65q-.55-1.9-.6-3.3l.2-1.2q.4-.75 1.2-.9l1.2.1q2.5.65 6.5 2.9l1.25.65q4.75-3 11.1-3.1 4.3-.1 7.6 1.4 1.6.7 3.25 1.95 1.2-.7 3.55-1.5L52.9 3.3l1.75-.7q1.2-.2 1.75.45.6.65.4 1.8l-.2.8L53 14.7l.25.6q.65 1.5 1 4.1.6 4.85-.7 9.2-1.45 4.7-4.85 7.5-5.25 4.3-15.85 3.9l-5.4-.6q-2.2-.45-5.2-1.7M41.1 18.85q-.2.05-.3.65 0 .6-.75 1.55-.7 1-.75 1.6-.1.65.35 1.15l.5.35q.35.1.5-.2l.05-.45-.1-.55q0-.3.3-.6.65-.9.7-1.7l-.05-1.3q-.1-.55-.45-.5m7.65 3q-.6-.8-1.15-.9l-.1-.5.15-.2-.1-.2q-.8.35-1.05.55-.6.45-.6 1.05-.05.35.2.85l.05.15-.05.05q-.45.45-.75.3l-.3-.2-.15-.45v-.45l.55-.8 1.2-1.35q.55-.8.6-1.85l-.1-1.1q-.15-.85-.65-1.15l-.15-.1-.35-.3q-.1-.25.25-.85-.2-.15-.65.2l-.2.7-.05.65.3.55.3.75-.4 1-.9.6Q42.2 20.4 41.5 22.9l-.3 1.5-.15 1.1q0 1.35 1.05 2.55 1.3 1.45 3.1 1.45 1.95.1 3.1-1.45l.6-1.05q.8-1.75.65-3.2l-.25-1.1zm-29.15 0-.55.85q-.25.6-.25 1.1-.15 1.45.65 3.2l.6 1.05q1.15 1.55 3.1 1.45 1.8 0 3.1-1.45 1.05-1.2 1.05-2.55l-.15-1.1-.3-1.5q-.7-2.5-3.15-4.05l-.9-.6q-.45-.55-.4-1l.3-.75.3-.55-.05-.65-.2-.7q-.45-.35-.65-.2l.25.85-.35.3-.15.1q-.5.3-.65 1.15l-.1 1.1q.05 1.05.6 1.85l1.2 1.35.55.8v.45l-.15.45-.3.2q-.3.15-.75-.3l-.05-.05.05-.15.2-.85q0-.6-.6-1.05l-1.05-.55-.1.2.15.2-.1.5q-.55.1-1.15.9m7.65-3q-.35-.05-.45.5l-.05 1.3q.05.8.7 1.7l.3.6-.1.55q-.05.3.05.45.15.3.5.2l.5-.35q.45-.5.35-1.15l-.75-1.6q-.75-.95-.75-1.55z"/><path fill="#fff" d="m48.75 21.85.55.85.25 1.1q.15 1.45-.65 3.2l-.6 1.05q-1.15 1.55-3.1 1.45-1.8 0-3.1-1.45-1.05-1.2-1.05-2.55l.15-1.1.3-1.5q.7-2.5 3.15-4.05l.9-.6.4-1-.3-.75-.3-.55.05-.65.2-.7q.45-.35.65-.2-.35.6-.25.85l.35.3.15.1q.5.3.65 1.15l.1 1.1q-.05 1.05-.6 1.85l-1.2 1.35-.55.8v.45l.15.45.3.2q.3.15.75-.3l.05-.05-.05-.15q-.25-.5-.2-.85 0-.6.6-1.05.25-.2 1.05-.55l.1.2-.15.2.1.5q.55.1 1.15.9m-7.65-3q.35-.05.45.5l.05 1.3q-.05.8-.7 1.7-.3.3-.3.6l.1.55-.05.45q-.15.3-.5.2l-.5-.35q-.45-.5-.35-1.15.05-.6.75-1.6.75-.95.75-1.55.1-.6.3-.65m-13.85 0 .3.65q0 .6.75 1.55l.75 1.6q.1.65-.35 1.15l-.5.35q-.35.1-.5-.2-.1-.15-.05-.45l.1-.55-.3-.6q-.65-.9-.7-1.7l.05-1.3q.1-.55.45-.5m-7.65 3q.6-.8 1.15-.9l.1-.5-.15-.2.1-.2 1.05.55q.6.45.6 1.05l-.2.85-.05.15.05.05q.45.45.75.3l.3-.2.15-.45v-.45l-.55-.8-1.2-1.35q-.55-.8-.6-1.85l.1-1.1q.15-.85.65-1.15l.15-.1.35-.3-.25-.85q.2-.15.65.2l.2.7.05.65-.3.55-.3.75q-.05.45.4 1l.9.6q2.45 1.55 3.15 4.05l.3 1.5.15 1.1q0 1.35-1.05 2.55-1.3 1.45-3.1 1.45-1.95.1-3.1-1.45l-.6-1.05q-.8-1.75-.65-3.2 0-.5.25-1.1z"/></g></svg>