<svg xmlns="http://www.w3.org/2000/svg" xmlns:ffdec="https://www.free-decompiler.com/flash" ffdec:objectType="shape" width="76.1" height="41.8"><path fill="#999" fill-rule="evenodd" d="M47.95 35q2-.3 4.5-2.15l2.7-2.45 1.35-2.65q1.4-3.5 1.35-6.6-.15-3.85-2.55-6.1-1.2-1.2-2.95-1.65l-3.3.15q-1.05.4-2.1 1.35-1.65 1.55-2.3 3.8-.65 2.3 0 4.45l.5 1.65q.25.95 0 1.6l-1.3 1.45-3.65 2.95q-1.1.9-1 1.65.25.9 1.5 1l1-.05h.95q.05.7.85 1.1l1.4.4zm3.95-16.2.5.8q.4.75.45 1.55l-.05.85q-.2 2.45-1.4 4.8l-.35.65-1.2 1.2-1.45 1.05q1.1-1.4 1.35-3.3.25-1.8-.3-3.55l-.4-1.9.15-.85q.2-.65.7-1.2l.8-.6q.3-.05.8.25zm17.95-1.2-.1-.1.15-.55q.8-2.2.8-3.95l-.1-1.25-.35-.75-.9-1.15q-1.25-1.15-2.9-.65-1.6.55-2 2.2l-.1.95q0 1.7.9 4.05l.35.85-.25.4q-.65 1.4-.35 2.3l.3.65.25.4q.55.85 1.6 1.1 1.5.3 2.6-.9.95-.95.7-2.1l-.05-.35zm-69.1.55V.5H75.6v40.8H.75V26.9q.7 1.5 1.95 2.4l.65.85 2 2.05q3.2 2.55 8.45 2.35l2.15-.45q1.2-.55 1.4-1.55.4-1.4-1-2.4-.7-.6-1.95-.85-.75-1.25-.95-2-.3-.95 0-2.25l.75-2.25q1.3-4.3-.65-7.15-.95-1.5-2.75-2.25-1.7-.75-3.55-.5-1.8.2-3.35 1.3-1.5 1-2.5 2.6zm7.75 7.5q.2.9.8 1.4l.3 1.15-.65-.4-1.05-1.05q-.75-.95-1-1.65-.35-.8-.25-2.25.1-1.65.35-2.45.3-.7.7-1 .6-.4 1.15 0 .4.35.3 1.25l-.55 2.5q-.4 1.55-.1 2.5"/><path fill="#fff" fill-rule="evenodd" d="m69.85 17.6.55 1.15.05.35q.25 1.15-.7 2.1-1.1 1.2-2.6.9-1.05-.25-1.6-1.1l-.25-.4-.3-.65q-.3-.9.35-2.3l.25-.4-.35-.85q-.9-2.35-.9-4.05l.1-.95q.4-1.65 2-2.2 1.65-.5 2.9.65l.9 1.15.35.75.1 1.25q0 1.75-.8 3.95l-.15.55zM51.9 18.8l-.4-.25q-.5-.3-.8-.25l-.8.6q-.5.55-.7 1.2l-.15.85.4 1.9q.55 1.75.3 3.55-.25 1.9-1.35 3.3l1.45-1.05 1.2-1.2.35-.65q1.2-2.35 1.4-4.8l.05-.85q-.05-.8-.45-1.55zM47.95 35l-3.05-.1-1.4-.4q-.8-.4-.85-1.1h-.95l-1 .05q-1.25-.1-1.5-1-.1-.75 1-1.65l3.65-2.95 1.3-1.45q.25-.65 0-1.6l-.5-1.65q-.65-2.15 0-4.45.65-2.25 2.3-3.8 1.05-.95 2.1-1.35l3.3-.15q1.75.45 2.95 1.65 2.4 2.25 2.55 6.1.05 3.1-1.35 6.6l-1.35 2.65-2.7 2.45q-2.5 1.85-4.5 2.15M.75 26.9Q0 25.35 0 22.45l.35-3.15.4-1.15.65-1.35q1-1.6 2.5-2.6 1.55-1.1 3.35-1.3 1.85-.25 3.55.5 1.8.75 2.75 2.25 1.95 2.85.65 7.15l-.75 2.25q-.3 1.3 0 2.25.2.75.95 2 1.25.25 1.95.85 1.4 1 1 2.4-.2 1-1.4 1.55l-2.15.45q-5.25.2-8.45-2.35l-2-2.05-.65-.85q-1.25-.9-1.95-2.4m7.75-1.25q-.3-.95.1-2.5l.55-2.5q.1-.9-.3-1.25-.55-.4-1.15 0-.4.3-.7 1-.25.8-.35 2.45-.1 1.45.25 2.25.25.7 1 1.65l1.05 1.05.65.4-.3-1.15q-.6-.5-.8-1.4"/><path fill="none" stroke="#8c5a5a" stroke-linecap="round" stroke-linejoin="round" d="M.75 18.15V.5H75.6v40.8H.75V26.9"/><path fill-rule="evenodd" d="m66.55 13.85-.25-1.45v-.35l.2-.6.3-.35q.4-.4.9-.4l.1-.05q.6 0 1 .4.4.3.5.9l-.25 1.9-.75 2.75-.5.55q-.5.1-.6-.4l-.5-2.15zm.2 6.15q-.4-.45-.3-1.1l.35-.65q.5-.5 1.25-.35.9.15 1 1.15.1.9-.8 1.35-.9.35-1.5-.4m8.7 8.75q.2 1.2-.15 2.85l-.25 1 .3.4q.3.55.4 1.75l-.25 3.9-.15 1.2-.45.95-.3.5H61.7v-.05l-.05-1.65q.15-1.35.95-2.55l.4-.55.1-.05q-.95-1-1.4-2.65-.25-.95-.35-2.7l-.65-.2-1.3-.5q-1.6-.9-1.6-3 0-1.7 1.25-3.3l.7-.85q1.25-1.15 2.55-1.5 1.7-.45 2.85.35.85.55 1.4 1.6l2.95-.3q.2-1.1 1-1.95l.4-.35q.95-.75 2.3-.4l.7.25.9.65q.8.95 1 2.1v1.2l-.35 1.15-.6.9zM43.65 17.1q.15 1.9-.4 3.9-1.2 4.85-4.85 7.8l-2.15 1.5 1.4.45.25.05h.1q3.25.1 5.6-1.1 2.95-1.35 4.05-3.95l.2-.5Q46.7 24 46.3 22.5q-.4-1.55.1-3.15.45-1.6 1.65-2.6Q49.3 15.7 51 15.6t2.95.85q2.35 1.7 2.35 6-.1 5.15-2.85 8.65-3.15 4-8.65 4.8-3.9.5-7.85-.8l.2.85q.3 1.2.75 2.2l.7 1.45q.35.85.3 1.7h-6.05l-.05-.35-.25.35h-9.5l-.15-.4q-.2-.75.1-2.25.7-3.15 1.45-5.3-3 1.2-5.9 1.2l-4.3-.45-3.9-.95q-1.4-.55-2.85-1.6-4.3-3.1-5.25-7.55-.65-3.25.65-6.1.75-1.75 2.05-2.65 2.15-1.5 5.05-.3 1.65.75 2.45 1.95 1.15 1.75.6 4.4l-1 2.5-.1.5q-.1 1.2.15 2 .45 1.35 2.2 2.65l.7.45.35.1q4.8 1.1 8.15.2l-1.95-1.2Q19.6 27.2 18.7 26t-1.65-3.5q-.6-2.15-.65-4.2l-.35-1.6q-.7-6 .45-11.95.3-1.4.65-2 .65-1.1 1.65-1.25.85-.15 2.25.65 2.05 1.3 3.7 2.8 3.15-1.1 7.8-.8 2.75.25 4.35.95l1.15-.4 4.6-1.2 2.05-.2q1.25.25 1.65 1.45.4 1.15-.5 3.15l-2.6 6.9zM26.5 23.65l-.65-.2-.9-.05-.8.15q-.35.3-.2.7l.2.35q1 1.3 1.8 1.5l.75.1 2.25-.1.55-.15q1-.3 2.35-1.45h.05l1.85.45.9.05h.85l2.2-.35q.8-.3.85-.85.1-.6-.5-.85l-.55-.05h-.7l-.45.15-.8.15-.95-.25-.3-.2-.5-.25-.45-.35q-.2-.15-.8-.35l-.4-.05h-.3l-.65.1-.65.4-.55.55q-1.05 1-2.85.9zm-5.25-5.2q-.1 1.65.8 2.7l.7-.25 3.5-.15 1.6.25.9.45q.65-.8.9-1.75l-.5-.1q-1.65-.25-3.3-1.65-1.35-1.1-2.3-2.9l-.1-.2-.35.2q-1.7 1.2-1.85 3.4m14.05 1.7.7 1.05.35.3 1.75-.3q.6 0 1.4.35l.75.35q1.05-.6 1.65-1.7l.25-.5q.5-1.25-.35-3.15l-.45-.8q-1.15-1.55-3.05-1.3h-.05l-.6.85q-1.5 2.25-2.7 3.2-.05.85.35 1.65"/><path fill="#fff" fill-rule="evenodd" d="M35.3 20.15q-.4-.8-.35-1.65 1.2-.95 2.7-3.2l.6-.85h.05q1.9-.25 3.05 1.3l.45.8q.85 1.9.35 3.15l-.25.5q-.6 1.1-1.65 1.7l-.75-.35q-.8-.35-1.4-.35l-1.75.3-.35-.3zm-14.05-1.7q.15-2.2 1.85-3.4l.35-.2.1.2q.95 1.8 2.3 2.9 1.65 1.4 3.3 1.65l.5.1q-.25.95-.9 1.75l-.9-.45-1.6-.25-3.5.15-.7.25q-.9-1.05-.8-2.7m5.25 5.2.65.05q1.8.1 2.85-.9l.55-.55.65-.4.65-.1h.3l.4.05q.6.2.8.35l.45.35.5.25.3.2.95.25.8-.15.45-.15h.7l.55.05q.6.25.5.85-.05.55-.85.85l-2.2.35h-.85l-.9-.05-1.85-.45h-.05q-1.35 1.15-2.35 1.45l-.55.15-2.25.1-.75-.1q-.8-.2-1.8-1.5l-.2-.35q-.15-.4.2-.7l.8-.15.9.05z"/></svg>