<svg xmlns="http://www.w3.org/2000/svg" xmlns:ffdec="https://www.free-decompiler.com/flash" ffdec:objectType="shape" width="70.55" height="35.05"><g fill-rule="evenodd"><path fill="#999" d="m66.45 9.4-.1.35-.75 1.2q-.5.55-1.2.6l-1.05-.15-.45 1.15-.95.6-1 .4-1.55.75-1.65 1.15-.6.3h-.05l-.1.1L55.8 17q-1.15 1.2-2.5 3.85l6.4-2 .7-.65q.6-.55 1.7-.45l.95.15q1 .4 1 1.5.1 1.05-.85 1.55l-1.1.35-1 .05L60 21l-.7.05-6.7 1.3-.15.3-.3.35q-.35.15-.6-.2l-.1-.45q-.25-.15-.2-.5l.2-.3q.1-1.5.7-4.2l.6-2.15q.5-1.45 2.55-4.2l1-1.25q.5-.5 1.7-1.3 1.1-.7 1.8-.8l1.4.2.45.25.1-1.1.1-.6q.2-.65.8-1Q63.2 5 63.9 5q.65 0 1.2.45.55.4.7 1.05l.15.75.5 1.45zm-21.8-2.25-.45.6-.45.05-.15-.25q-.1-.45.05-.85l.1-.4v-.5q.1-.65.45-1 .55-.45 1.05-.3.7.2.75.8l-.35.9-.5.45-.3.15zM33.05 2q.75-.85 1.75-.85 1.15 0 1.7.9.4.7.25 1.4.2-.25.55-.4l1.45-.1q.8.25 1.5 1.25l1.2 1.45.85 1.6.25.8q.3 1.05 0 3.1l-.2 1.05-.4.85-.8 1.05 4.25-.5 1.7.3q.9.35 1.3 1.05.35.65.2 1.5-.15.75-.65 1.35-.75.95-2.55 1.6-2.4.95-6.75 1.7l-2.1.15q-1.2-.1-1.9-.8-.45-.45-.8-1.25l-.25-.75q-.25-1.25 1.05-2.05.6-.4 1.45-.65l2.6-.95.15-.25.3-.35.2-.6.3-.55.2-.55.15-.9-.2-1.6-.45-1.4q-.4-.65-1.65-1.35l-.75-.5q-.6-.5-.75-1.25l-.1-.65-.35.75-.5.55q-1.1.75-2.2.2-1.15-.55-1.15-1.9 0-.45.3-1.25l.1-.25.3-.4zM49 27.5l2.3-.65 2.75-.1.2.05-.95-.75-.6-.75q-.2-.7.5-1.5.65-.65 2-1.2 2.35-1.05 4.55-1.2 2.6-.15 4.6.9l.95.7q.95.95.6 2.15-.3 1.25-1.75 1.9l-2.6.5-4.6-.1.6.65.05.1 2.25-.2h1.95l3.5.1 1.85-.15 1.8.15q1.1.25 1.5 1.05.25.55-.05 1.15l-.8.85-1.9.05-2.4-.65-3.15-.65-2.25-.2-1.95-.2-.1.45q-.2.85-1.2 1.5l-1.8.8-3 .75-3.05-.15q-.95-.25-1.6-.9-.7-.8-.7-1.65 0-.75.6-1.5l.55-.6q.35-.25 1.35-.7M44.55 23q2.05-.2 3.05.6.75.65.8 1.55 0 .95-.7 1.55l-.9.4-2.1.35L41.3 30l-1.25.7q-1.45.95-2.55 2.45l-.65.75q-.5.45-1.25.35-.75-.05-1.2-.6-.4-.55-.4-1.25 0-.75.45-1.25.6-.65 2.15-1.05 2.05-.65 3.9-1.8l.55-.35-.65.05q-1.4 0-2.3-.7-1.15-.85-.9-2.15.15-.75 1.25-1.75.7-.7 1.15-.95l3.25-.2q.6.2 1 .5l.3.2zM41.7 34.35l-1 .1-.75-.6q-.25-.45-.15-1l.55-.85 1.05-.45 1.45-1.3.7-.75.35-.3q.3-.1.45.15l-.15.4-1.15 1.7-.3.55-.15.7q-.1 1.25-.9 1.65m-22.3-9.5.3-.5q1.6-1.8 1.85-2.9l.15-1.35-.15-2.85q-.45-3.1-2.35-5.8l-.8-1.2q-.2-.65-.05-1.3.2-.7.7-1.1.5-.45 1.2-.5l1.25.2 1.05.9q2 2.35 2.7 5.55.65 3.1.05 6.25-.25 1.7-1.05 2.75l-.85.9q3.25-1.15 6.95-.95l1.3.15q.75.25 1.3.7l.8 1q.35.85.1 1.8t-.95 1.65q-1.1 1.1-3.35 1.65l-7.5.6-2.1-.45q-1.2-.75-.9-1.85.25-1 1.45-1.1-.4-.75.15-1.5l-.75-.05q-.6-.2-.5-.7m8.25-12.3q.35-.55.95-.65.7 0 1 .5.35.5.05 1.05l-.85.75-1.05.45-.25.35-.35.2-.4-.1.05-.45.55-1.45zM16.45 3.4q.7-.05 1.4.25 1.45.85 1.25 2.75-.1 1.25-1.15 2.95l-.75 1.1.15.05q.35.15.7.6l.55.65 1.2 2.4q.35.85.55 2.65l.05 1.05-.15.85-.15.3-.35.15q-.25 0-.35-.2-.1-.15-.05-.45l.1-.5-.2-.25-.2-.65-.3-.7-.25-.45-1.55-2.05-.65-.65-.8-.75q-.25-.35-.2-.8l-.35.05q-.95.1-1.65-.55l-.4-.4q-.75-.95-.75-1.8l.15-.95V7.3l.45-2.05q.3-1.25.75-1.7.4-.4.95-.45l1.1.15.45.2zm-2.9 15.3 1.5.25 1.4.55 1.45.45q.7.1.75.5.15.3-.3.55l-.65.15-2.85-.25-2.9-.2-.9.05-.7.05-.5.2q-1 .45-1.85-.5-.3-.4-.3-.95-.05-.6.25-1l.85-.6q.5-.15 1 0l.7.3h.8l.95.1.6.25zm2.05 12.25-.15.7-.3.7-.4.4q-1.45 1.1-3.3 1.4l-3.5-.3-1.05-.55q-.55-.45-.7-1.2-.1-.8.25-1.4.45-.8 2-1.45l.7-.25q-3 .55-5.8 1.65l-1.5.35q-1.1 0-1.55-.85-.55-.8-.05-1.75.45-.65 1.35-.85l1.65-.25L5 27.05h1.85l2.65-.4 3.05-.3 2.3-.15 1.35.2.45.5.05.6-1.05.6-1.75.25-.65.1h.05q.85.35.75 1.15.65-.1 1.1.3t.45 1.05m.05 2.4.05-.25.1-.2q.35-.4.85-.25t.6.7v.25l-.2.35-.95.15-.2-.1-.15-.15zm9.2-1.05q.4.65.25 1.4-.25.75-.85 1.05l-1.5.3q-1.8-.1-2.45-.9-.4-.55-.3-1.25.1-.75.65-1.1.4-.25 1.1-.35l1.7-.05q1 .25 1.4.9"/><path d="m61.7 12.8-.5-.45-.7.3-1.05.25-.35.15-.15.85-.05.7-.1.65-.15.2-.45-.2-.05-.25.05-.25-.15-1.05-.35-.9-.1-.7.4-.55.6-.35 1.2-.7-.4-.85q-.3-1.1-.05-2.25.55-2.35 2.6-3.55l1.6-.65 3.9.2q.95.5 1.55 1.7l-1.3 2.55-1.9-2.35-1.65 2.65-1.9-1.65 1.05 4.5 3.05-2.45 1.8 1.7L69.75 8q.25 1.85-.45 3.2-.55.95-1.5 1.55l-.3.8-.65 1.15-.6.2q-.45-.1-.45-.6v-.4l.1-.4h-2.05l-.85 1-.2.3q-.35.25-.55-.15l-.05-.3.05-.75.05-.5zM34.1 7.15q-1.9-.4-2.55-1.55-.35-.6-.4-1.3l1.5-1 1.3 1.6 2.15-2.5-1.95 1.1V1.25l-2.6.9.1-.35.4-.8q.5-.65 1.4-.9L35.1.05l.7.1q1.4.4 2.2 1.5.9 1.15.55 2.55l.15.05 1.35.95.45.5.1.95.5.95q.3.75-.15 1-.45.3-.9-.4l-.4-1.05q-.2-.5-.8-.65l-1.05-.15-.35-.05-.35.35.05.35v1q-.1.3-.45.2l-.5-.6-.4-.4zm12.7 3.7.05.2-.5.1q-.3 0-.45.15-.25.25-.15.6l.5.2.25-.1.3-.05.2-.2h.2v.05l.3.35.45.2.15-.1q.4-.3.25-.75l.05-.05.25-.4-.25-.4h-.5l-.1.05-.1-.3-.4-.25-.45.2zM11 20.8q2-2.35 4.1-3l2.45-.3q2.45.1 4.2 1.3 3.15-1.9 6.4-2.35l3.1.2.85-.5 2.75-.05-.4-.7-.25-1.1q-.1-.75.15-1.45t1.4-1.55q3.6-2.55 7.2-1.9l.45.1.25-.15q1.55-.85 3.35-.7 1.85.25 3 1.55l.95-.05q1.1 0 1.6.35l.5.35.4.5.15.35q.2.85 0 1.4-.3.8-1.5 1.4l-.55.2-.9.05-1.4-.35-2.7.25h-.15q-.7 1.4-2.4 2.1l-3.25.75-.85.1q-.95 1.1-2.3 1.55-1.8.5-3.05-.55l-.75-.65-.25-.1.4.35 1.1 1.2.45.85q.85.15 1.4.6.35-.85 1.4-1.65 1.2-1 2.2-1.25l1.95-.35.9.15.8.05q1.8-.7 4.4-.65 3.95.2 6.15 1.7l1.3 1.1 2.6.1q1.25.3 1.85.9l.5.6 1.4-.05 1.1.25.6.25.75.5q.65.55.85 1.45.25.9 0 1.75l-.15.45-.4.6q-.95 1.1-2.35 1.25l-1.55-.15-.85.85-1.35.8-.15.1-.1.6-.5 1.15-.25.35q-.55.6-1.75.8l-1.75-.2q-.95-.45-1.35-1.1l-.2-.45-.05-.4.05-.6q-1.55-.7-2.2-1.95-2 .25-3.2 0l-1.7-.4-2.4-.35q-1.25-.35-2.1-1.5l-.25-.35q-1.8 0-2.75-.5L38 26q-.45 1.2-1.45 1.95l-.8.5-1.35.6-1.05.15-3.55.25-.85-.05-.35-.15q-.1-.2.3-.5l.8-.4 2.05-.5q2.3-.5 3.35-1.4l.35-.4.2-.5q.3-.75.1-1.25l-.3-.35q-.6 1.25-1.9 2.1-1 .6-2.45.85l-7.3.35-1.55 1.8Q20.65 30.4 19 30.8l-1.1 1.25-.45.3-.95.45-1.5.35-2.15-.4-.65-.35q-1-.55-1.2-1.6-.25-.85.1-1.65l-.45-.45-.45-.45H10l-1 .05-1-.05-.65-.25-.7-.4q-.7-.6-.85-1.55-.15-.8.2-1.75.45-1.2 1.6-1.95l1.25-.55 1.55-.2zm29.95-.25 1.15-1.5q-1.45.45-2.55 1.6-.75.75-.75 1.35l.2.55.75.25.65.05q0-1.2.55-2.3M17.45.65q.15.05 1.1.6l1.2.9q1.5 1.4 1.8 3.35.2 1.6-.3 3l1.4.75.6.2q.9.5.6 1.3l-.15.4v.5l-.1.4.1.25-.2 1.25.05.2-.1.15-.2.05-.3-.45-.4-1.95-1.5-.55-.5-.25-.5-.1h-.2l-.2.1-.85.6-.8.7-1.6.95.15 1.4-.15.55h-.35l-.35-.2-.45-.45-.4-.75-.15-.2-1.8-.2q-2.65-.7-4.2-3.15l-.1-.2.65-2.7 2.4 2.55 2.1-2.25 1.1 2.95 1.85-1.3 1.75-3.5-2.3 1.95-1.05-3-2.9 2.2V3.4L8.4 5.45 8.5 5Q9.6 2.2 12.8.85zm1.1 25.05v-.05l.6-.45.55-.65q.25-.5-.2-.85-.4-.4-.95-.15-.25.1-.65.5l-.35.3-.6-.7-.4-.3q-.6-.35-1 .35-.35.6.1 1.1l.5.5.15.15q-.75.6-.85 1V27q.25.35.65.25l.65-.35.65-.4.5.3.7.1q.3-.2.2-.6z"/><path fill="#fff" d="m46.8 10.85.05-.5.45-.2.4.25.1.3.1-.05h.5l.25.4-.25.4-.05.05q.15.45-.25.75l-.15.1-.45-.2-.3-.35v-.05H47l-.2.2-.3.05-.25.1-.5-.2q-.1-.35.15-.6.15-.15.45-.15l.5-.1zM18.55 25.7l.25.6q.1.4-.2.6l-.7-.1-.5-.3-.65.4-.65.35q-.4.1-.65-.25v-.55q.1-.4.85-1l-.15-.15-.5-.5q-.45-.5-.1-1.1.4-.7 1-.35l.4.3.6.7.35-.3q.4-.4.65-.5.55-.25.95.15.45.35.2.85l-.55.65-.6.45z"/></g></svg>