<svg xmlns="http://www.w3.org/2000/svg" xmlns:ffdec="https://www.free-decompiler.com/flash" ffdec:objectType="shape" width="75.5" height="41.2"><g fill-rule="evenodd"><path fill="#999" d="M28.15 3.9h-.3l-3.2-.65-5.15-.5-2.15.5-1.1.4-1.4 1-2 2.05q-.35.1-.35-.3l.15-.5q1.1-1.75 4.35-4.4l.95-.7L19.2.35l5.2-.2 1.1.25q.95.3 2 1.45.95.95.85 1.75zM71.1 9.7q.35.35.1.6l-.55-.1Q69 9.15 66.5 9.05l-2.15.05-2.15.15-3.6.2q-6.4.6-12.95 5.85-1.3 1.1-2.1 1.3l-.9-.15q-.35-.4.05-1.1.55-1.05 1.75-2.1 5.1-4.7 11.75-5.9Q63 6.1 69.3 8.6q1.3.5 1.8 1.1m-8.8 10.75-6.15-.7-13.2-.75-.9-.15q-.45-.2-.45-.65 0-.6.7-.7l1.05.05h1.4l-.2-.4q-.15-.75.7-1.15l1.45-.25q3.35 0 9.1 1.05l5.85 1.05 4 .95.45.25q.35.1.5.4.15.4-.1.75v.05l.05.05.5-.15-.05-.3.1-.95-.2-.05-.75-.3q-1.8-1.1-4.05-1.65l-7.4-1.45-1.35-.5h-2.2l-.9-.05q-.45-.1-.75-.4l-.15-.45.2-.4q.25-.3.9-.4l1.05-.1.65-.15 1.15-.1q.4-.25 1-.35l1.7-.2q5.25-.6 7.75.1 1.8.5 3.4 1.7l.65.55q1.3-1.5 3.35-1.4 2.1.1 3.3 1.7 1.55 2 .8 5.65-.9 4.65-4.35 8.5-3.15 3.5-7.9 5.45l-5.85 1.85-2.1.45q-.75.15-.75-.3 0-.3.45-.4 7.1-2.5 11.15-5.85 5.5-4.5 6.65-10.4.3-1.9-.15-2.9l-.8-.95-1.25-.2q-1.3-.05-2.05-.55l.1.2q.5 1.05 0 1.85l-.15.25q.9-.25 1.55.4l.55.95.15 1.55-.35 1.65-.95.8-.25 1.1q-.65 1.3-1.85 1.05-.75-.15-1.2-.95-.35-.65-.35-1.55-.05-.95.25-1.55zm-22.15 2.1H38.9q-.7-.15-.85-.8-.1-.6.6-1l1.15-.3q1.85-.15 4.8.1l4.8.55 13.55 1.75q.65.1.75.4l-.1.5q.35.05.7.4l.4.8.2.75q.45 1.3.1 1.95l-.75.65-1-.05q-.5-.25-.75-.9-.2-.5-.1-1.2l.05-.65-.1-.6q-.1-.6.4-.9h-.2l-5-.45-2.45-.15-5-.15-5-.55zM5.65 26.4l.85-1.35q.7-.8 1.95-1.8 3.8-3.15 12.45-9.1l2.3-1.6q2.05-1.4 3.45-2.1l1.65-.2v-.15l-.25-2.6q0-.6.4-1l-.65-.85-.05.6q-.05.7-.85 1.3l-1.45.75q-1.95.9-5.8 3.4L12 16.8 9.9 18l-.7.05q-.5-.3-.05-1.2l1.65-1.8 3.25-2.85q1.9-1.5 5.55-3.5l5.65-3.3q1.2-.75 1.85-.5l.6.5q-.1-.4.1-.75.4-.7 1.6-.5 2.7.35 4.5 3.05 1.3 2.1 1.65 5.3.2 2.2-.1 4.4l2.65-1.75.2-.1q1.25-.9 2.7-1.7l.45.05-.15.35-2.05 2.05q-3.75 4.05-5.1 6.6-1.45 2.65-2 5.7-.4 2.15.1 3.3.75 1.9 3.1 2.5l1.25.35.45.3v-.45q.15-.8.95-1.3l1.6-.15 1 .3h.7q.65 0 1.15.3l.15.05.15-.15q.4-.7 1.3-.6.85.2 1 1l.05 1-.05.7-.7.75-1 .25-.35.05v.3q-.05.75-1.15 1.35-5.1 3.1-10.25 2.3-1.05-.2-1.65-.55l-.85-.65q-1.9-1.75-2.45-3.65-.35-1.05 0-1.85.2-.5.5-.55.6-.15.9.65l.25 1.2.6.8q1.85 1.7 4.8 1.8l-.15-.05q-.35-.05-.75-.3l-.35-.15q-.75-.35-1.55-1-1.05-.8-1.55-1.6-.45-.8-.6-1.75l-.15-1.8q-3.35 3.6-8.15 6.75l-.5.1q-.45-.2.15-.8 6.2-5.95 9.1-11.05 3.9-7.15 3-13.85l-.75-2.65-.15 1.6-.05.5v1L31 13.6q-.4 1.1-1.6 1-.5-.05-.9-.4-.4-.4-.5-.9l.05-.65q-1.95 2.2-5.1 4.55l-5.85 4.1-3.8 2.95-.2.2-.4.4q-2.1 2.15-4.4 3.5l-.85.55-.75.6-.9.25q-.45-.05-.75-.45-.25-.4-.15-.8t.55-.8q-.15-.5.2-1.3M58.1 26q.1.95-.95 1.4l-.85.25-.85.2q-.8.2-3.65 1.55-5.45 2.6-11.35 2.3-2.35-.1-3.65-.8-2-.95-2.3-2.8-.25-1.85 1.4-3.8.6-.8 1.35-1.05l1.8-.1L56.8 24.4l2.55.15q.55.1.7.35l-.05.55-.6.4zm-10.2 5.55q.35-.35.85-.45l.9.15q.5.2.75.9l.2 1.2q.1 1.2-.5 1.8t-1.35.5q-.75-.15-1.15-.8l-.25-1.25q0-1.5.55-2.05m-21.75-14.2-2.3 2.4q.25.55-.1 1.2l-.65.65-.2.2-.15 1q-.2.9-1.25 2.2l-2.55 2.85-5.05 5.2.25-.1.6-.2.5-.35q.7-.5 1.65-.4l1 .35.7.3.85.85q.6 1.15-.05 2.2l-1 .95-.75.4-.75.3-.45.35-.7.4-.55.55q-1.2 1.05-3.6 1.9l-1.5.4q-2.35.55-4.75 0-1.2-.25-1.85-.7L1.9 38.8q-.75-.95-1.2-2.1-.5-1.2-.7-2.35v-.5q.1-.25.35-.25l.45.55.4.5.65.95.65.9.9.6 1.1.6 1.3.6 3.45.15 2.55-.65-.1-.1q-.65-.55-.55-1.4.1-.9.75-1.25.25-.2.6-.3l.25-.1.15-.3.2-.5-.95.55-1.3.35-1.1.6-1.15.45-.8-.1-.4-.15.1.25q.3.55 0 1-.25.4-1.1.4L4.75 37q-.9-.35-1.75-1.6Q.1 31 1.4 24.7q.8-3.9 4.2-10.2 1.75-3.2 3.15-4.6.25-.25.45-.2l.25.45-.25.45q-1.9 2.55-3.05 6.25-.85 2.6-1.6 6.85-.35 1.55-.4 2.95 0 1.8.4 3.7l.35 1.25 1-1.05q8.25-6.25 19.6-14.35.5-.3.75-.2l.35.45q.5-.8 1.35-.8 1.1-.1 1.7.85l.3.95.05 1.05q-.15.6-.65.85l-.8.1q-1.35-.1-1.95-.9-.45-.65-.3-1.35zm-2.95 12.5-.25 1.1-1.1.85-1.35-.1-1.05-.85-.6-1.05q-.25-1.15.65-1.9.9-.7 2-.2l1 .85q.6.65.7 1.3"/><path d="m59.95 9.9 3.35.15 2.5.4q1.9.6 3.35 2.05 1.55 1.45 2.2 3.3.5 1.55.5 2.7-.1 2.05-1.5 4.5-2.75 4.75-8.25 8.1-4.1 2.45-10.75 4.5-3.95 1.2-6.75 1.45-3.75.35-6.6-.75l-2.05-1.2q-1.15-.9-2.1-3.3l-.35-.35q-.75-1.1-.75-2.6-.05-1.35.55-2.65.65-1.45 2.3-3.4 4.8-5.65 10.85-9 6.55-3.6 13.5-3.9m8.5 10.3q-1.9 2.75-5.7 5.55-5.5 3.8-13.1 6.5-3.95 1.35-6.6 1.65-2.4.4-4.5.05 1.45.8 3.2.95l4.9-.45q7.1-1.55 11.75-4 6.1-3.15 9.45-8.05l1.05-2.2.2-.95zM67 14.85q-.4-.65-1.6-1.2-1.25-.6-5-.95-3.8-.35-11 3-7.25 3.3-10.25 7.05-3 3.65-3.15 4.7-.1 1.05.1 1.65.2.55.85.95 1.55.9 4.5.65 7-.65 15.5-4.85 6.55-3.2 9.3-7.05 1.75-2.35.75-3.95M56.2 18.1h.95q.95.1 1.1 1.05t-.6 1.45l-.9.35-1.8.9-.5.35-.05.3v2.75l-.1.95-.9.65q-.6 0-.95-.5l-.3-.7-.35-.5-1.15-1.2-3.5 1.6-.7.45q-.65.25-1.15-.25-.5-.4-.4-1.1.05-.45.55-1.15l2.15-3-1.05-.85q-.35-.35-.25-.95t.55-.85l1.05-.15 1.2.15.7.05.4-.35 2.45-2.3.75-.45.85.15.3.95v1.95l1.3.3zM16.85 4.85Q18.3 3.7 19.7 3.1q1.05-.75 2.25-1.1l4-.2q2.05.3 3.6 1.5 1.35.95 2 1.95 1.05 1.7 1.25 4.55.45 5.5-2.25 11.3-1.95 4.4-6.25 9.8-2.6 3.2-4.75 5-2.9 2.45-5.9 3.1l-2.35.25q-1.45-.1-3.6-1.55l-.5-.1q-1.2-.5-2.05-1.7-.85-1.15-1.1-2.5-.3-1.6 0-4.1.8-7.45 3.9-13.6 3.35-6.65 8.9-10.85m8.65.05-2-.05q-1.35.25-4.7 2.1-3.35 1.8-7.35 8.65Q7.3 22.45 6.9 27.2t.1 5.7l1.05 1.3q.4.35 1.25.3 1.8-.15 4-2.05 5.5-4.45 10.1-12.7 3.55-6.4 3.7-11.1.05-2.95-1.6-3.75m4.25 3.7q-.05 3.25-1.65 7.75Q25.7 22.6 21 29.1q-2.55 3.4-4.5 5.1-1.8 1.7-3.7 2.55 1.6-.15 3.15-.9 1.65-.95 3.8-3.2 4.95-5.3 7.45-10 3.2-6.05 3.25-11.9l-.4-2.45-.35-.9zm-9.6 10.3q-.65.1-1.2-.4-.45-.45-.55-1.15 0-.65.3-1.25l.25-.65-.3-.8-.75-.1-.5.1-.25.15-1.2 1.2q-.65 1-1.2 2.65l-.95 3.4q-.2.55.15.7h.4l1.1-.7 1.2-.65q.75-.2 1.45.25.65.4.75 1.25 0 1-1.1 2-1.3 1.1-2.75 1.4v.6q-.25 1.2-1.5 1.55-1.25.25-1.95-.8-.65-1 0-2.05-.8-.55-1.15-1.45-.45-1.15-.05-3.05.6-3 2.5-5.7l1.55-1.9 1.4-1.3q.75-.45 1.5-.5l.2-.05.05-.25q.65-1.35 1.2-1.7 1.05-.55 2 .2.9.8.45 2l-.2.45q.85.85 1.05 1.6l.05 1.3-.05.85-.35 1.6q-.55 1.15-1.55 1.2"/></g></svg>