<svg xmlns="http://www.w3.org/2000/svg" xmlns:ffdec="https://www.free-decompiler.com/flash" ffdec:objectType="shape" width="76.35" height="40.8"><g fill-rule="evenodd"><path fill="#999" d="m39.45 32.65.3.1q.05.65.75 1.05l2.05.25 1-.55.5.05 1.6-.05.45-.05q.45.5 1.2.7l.75.15 1.35-.05q.75-.15 1.2-.6l.75-1.35v-.05l.25-.15.95-.85.9-1.4.25-.7.25-1L54 26.4l-.15-.85-.4-.85-.4-.65.35-.7q.4-.6 1.25-.95.5-.3.95-.25l1.3.8 1.25.85 1.4.4q1.75.2 2.9-.5 1.5-.85 1.65-2.4.15-.95-.55-1.9-.6-.85-1.7-1l-1.25-.2-1.1-.95q-1-.95-2.15-1Q56 16.1 54.5 17l-2.3 1.9q-.95.85-1.35 1.6l-.55-1.15-.1-.2q2.25-1.35 3.65-3.4 1.7-2.4 1.9-5.05.1-1.2-.2-3.6l-.4-1.9q-.5-1.35-2.15-3.1Q52.1 1 51.3.95l-1.3.3q-.85.45-1.4 1.15l-.7-.15-2.9.15q-1.35.2-2.15.55l-2.45 1.6q-.65-.3-1.3-.45-.85-.2-1.45 0h-.1q-.85.2-1.35 1.25l-.25.85q-.15.55-.05 1.25l.2 2.4.15.5.2.45.05.25.15.45.45.8-.15.75q-.25 2.25 1.4 4.05 1.3 1.45 3.5 2.2l-.05.2q-.4.3-.4.85l-.1.05-.35.75-.45 1.25-.2.45-.05.15-.9.3-1.2.55-.95.8-.9 1.05-.5 1.7-.2 1.15.4 1.15.5.75q1.1 1.6 2.95 2.2m33.5-7.95h2.1l.25.05h.1l.15.05.2.1.1.1.1.05.1.1.05.05.05.1.05.05.05.1v.05l.05.1v.05l.05.1v.4l-.05.05v.1l-.05.05v.1l-.05.1-.05.05-.05.1-.05.05.05.1.05.05v.1l.05.05v.65l-.05.05v2.2l-.05.05v5.3l-.05.1v.9l-.05.1v1.15l-.05.1V38l-.05.1v.15l-.05.1v.05l-.05.1v.15l-.05.05-.05.1v.05l-.1.1-.05.05v.1l-.05.1-.1.05-.05.1-.1.05-.2.1-.1.05h-.1l-.1.1-.1.05-.1.1-.15.05-.05.05h-.1l-.1.05h-.7l-.25-.05h-.15l-.7-.05h-.3l-.35-.05H60.3l-3.7.05h-2.1L42 39.9h-4.95l-2.65-.05h-1.05l-2.7-.05H16.7l-.9.05H14l-.95.05h-1.2l-1.95.05H6.95l-1.5-.05H4.1l-.35-.05q-.45.5-1.25.45-1.1-.1-1.45-1.1l-.1-1.1.15-10.25.15-1.5-.05-.05-.05-.1v-.15L1.1 26l.05-.1v-.15l.05-.1v-.05l.1-.1.05-.05.15-.1.3-.05h.25l.05-.05.75-.15h.35l1.35-.05h.55l.95-.05h1.7l.3-.05.45-.05h.6l.2-.05h.25l.5-.05h3.05l-.05-.6q0-3.2 1.8-5.85 1.9-2.8 5.05-3.55 1.9-.5 4 0 1.9-.4 3.3-1.8-.55-.75-2.05-.75l-4.45.25-4.45.35q-2.1.1-3.35-.75-.85-.65-1.25-1.8-.35-1.1-.1-2.2Q12 6 14 4.5q2.7-2.15 8.05-2.9l7.3-.5q4.15.2 8.05 1.65l.85-.1 1.15.1.75.1.55-.4q.75-.5 2.45-1.1l1.25-.4 3.35.15L49.5.15l2.55.05.95.4.6.75.7 1.2q1.9 1.6 2.65 3.75.65 1.9.65 4.45l-.15 1.65-.35 1.45-.05.2 1.25.35 1.35.65.75.6.75.9.15.35 1.75.05.4.15.85.35.7.7.5.85.15.6.1.7q.1 2.2-1.4 4l-.35.4zm-33.5-13.15-.1-1.5q-.2-.6-.6-.8h-.35l.1-2.3.95.55 1.05.25q.95-.1 1.2-1l.05-.8 1.05-.6.7-.15 2.45-.35 1.65.05 1 .25.7-.25.6-.7.05-.35.55-.4q1.95 2 2.1 5.6l-.1 1.65q-.3 1.9-1.65 3.45-1.3 1.4-3.2 2.25-1 .4-1.35.75-.45.55-.4 1.25.05.75.55 1.2.55.4 1.35.45v.1l.05.3.05 1.75.1.45v.55l.15.55.45.95-.45-.7q-.15-.2-.15-.55l-.35-1.5-.1-1.6-.7-.3q-.9-.55-1.05-1.6-.15-1 .55-1.8l1.35-.85 1.4-.75q.9-.6 1.65-2.25 1.05-2.2 1.2-3.95l-.85-.55-.55-1.05-.2-.65.05-.6q-.35-.7-.15-1.4l-.15-.2-.15.1-.1.45-.7 1.15-1.25.55-1-.1-1-.25-1.4-.05-1.15.1-.75.25-.1 1.05q-.35 1-1.75 1l-.95-.2-.15.1q.8.85.55 1.9zM48.6 24.7l.25.35q.75.6 1.55.2l.55.3.2.05v.15L51 27l-.15.7-.15.45-.3.6-.5.75-.6.6q-.35.4-.3.9l-.15.1-.4.2-.8-.05-.75-.2-.35-.1-.85.15-1.6.35-.1-.1-1.5.1v.05l-.15-.65q-.2-.45-.85-.75l-1.1-.45-1.2-.9-.3-.55v-.55l.15-.65.75-1.2.65-.65.4-.1.15-.1.85.2q.55 0 1-.55l.3-.65.3-1.1v.2l-.05 1.15-.25.6 2-.05h.5l.7-.05zm-4.6-4 .3-1.2.05-.4.45-1.05-.05-.6q.35.5.35 1.25l-.35 1.25zm13.6-1.15.45.55-.45-.35-.45-.25-.4-.15-.8-.2.55-.05.65.1zm-2.7 3.95-.4-.25.4.9.15.55h1.6zm4.05-2.7v.05l.3.1.1.05.45.15-.5-.1-.25-.1-.05-.05-.1-.05v-.05zm-27.25 4h3.35l.55-.8 1.7-1.45q.85-.55 1.85-.75l.35-.15.2-.5q.05-.5.25-.9l-.75-.35q-1.1-.6-2-1.85-1.05-1.35-1.55-3.2l-.15-1.5.2-1.3.05-.05-.45-.4q-1.3-1.3-1.2-3.15l.25-1.35.05-.35L20 6.3l-2.45.65q-1.4.65-2.25 1.65-.35.35-.3.65.05.35.55.55l2.9.4 3-.4q1.85-.2 3.95-.05 1.65.1 2.65.65 1.4.7 1.5 2.1.1 1.35-1.1 2.25-.8.7-2.35 1.05h-.05l1.6 1.7 1 1.65.35 1.2.25 1.55q.15 1.5-.25 2.9zm-10.9-4.95q-1 .4-1.65 1.3-.65.95-.75 2l.1 1.6v.05h6.35v-.65l-.6-2.3q-.35-1.3-1.1-1.85zm-11-4.6q-.7.1-1.25.35-.65.35-.85.9l.6 1q.1.65-.15 1.15l-.75.85-1.15.25q-.8-.15-1.3-.8-.5-.6-.6-1.45-.25-1.55.7-2.75l.6-.7q.95-.8 1.95-1.15l1-.2q2.8-.4 4.8 1.6l.5.6.4 1 .15.85-.25.8q-.35.35-.65.15-.25-.15-.25-.5l-.35-.9-.95-.7-.9-.35q-.7-.15-1.3 0"/><path fill="#fff" d="M39.45 32.65q-1.85-.6-2.95-2.2l-.5-.75-.4-1.15.2-1.15.5-1.7.9-1.05.95-.8 1.2-.55.9-.3.05-.15.2-.45.45-1.25.35-.75.1-.05q0-.55.4-.85l.05-.2q-2.2-.75-3.5-2.2-1.65-1.8-1.4-4.05l.15-.75-.45-.8-.15-.45-.05-.25-.2-.45-.15-.5-.2-2.4q-.1-.7.05-1.25l.25-.85q.5-1.05 1.35-1.25h.1q.6-.2 1.45 0 .65.15 1.3.45l2.45-1.6q.8-.35 2.15-.55l2.9-.15.7.15q.55-.7 1.4-1.15l1.3-.3Q52.1 1 53 2.1q1.65 1.75 2.15 3.1l.4 1.9q.3 2.4.2 3.6-.2 2.65-1.9 5.05-1.4 2.05-3.65 3.4l.1.2.55 1.15q.4-.75 1.35-1.6l2.3-1.9q1.5-.9 2.85-.75 1.15.05 2.15 1l1.1.95 1.25.2q1.1.15 1.7 1 .7.95.55 1.9-.15 1.55-1.65 2.4-1.15.7-2.9.5l-1.4-.4-1.25-.85-1.3-.8q-.45-.05-.95.25-.85.35-1.25.95l-.35.7.4.65.4.85.15.85-.05 1.75-.25 1-.25.7-.9 1.4-.95.85-.25.15v.05l-.75 1.35q-.45.45-1.2.6l-1.35.05-.75-.15q-.75-.2-1.2-.7l-.45.05-1.6.05-.5-.05-1 .55-2.05-.25q-.7-.4-.75-1.05zm9.15-7.95-.45-.95-.15-.55v-.55l-.1-.45-.05-1.75-.05-.3v-.1q-.8-.05-1.35-.45-.5-.45-.55-1.2-.05-.7.4-1.25.35-.35 1.35-.75 1.9-.85 3.2-2.25 1.35-1.55 1.65-3.45l.1-1.65q-.15-3.6-2.1-5.6l-.55.4-.05.35-.6.7-.7.25-1-.25-1.65-.05-2.45.35-.7.15-1.05.6-.05.8q-.25.9-1.2 1l-1.05-.25-.95-.55-.1 2.3h.35q.4.2.6.8l.1 1.5v.35l.35.9q1.1 2.45 3.3 3.35l.95.35q.55.4.7.95l.05.6-.45 1.05-.05.4-.3 1.2-.55 2.15-.3 1.1-.3.65q-.45.55-1 .55l-.85-.2-.15.1-.4.1-.65.65-.75 1.2-.15.65v.55l.3.55 1.2.9 1.1.45q.65.3.85.75l.15.65v-.05l1.5-.1.1.1 1.6-.35.85-.15.35.1.75.2.8.05.4-.2.15-.1q-.05-.5.3-.9l.6-.6.5-.75.3-.6.15-.45.15-.7.15-1.25v-.15l-.2-.05-.55-.3q-.8.4-1.55-.2zm9-5.15-.45-.35-.65-.1-.55.05.8.2.4.15.45.25.45.35zm1.35 1.25h-.05v.05l.1.05.05.05.25.1.5.1-.45-.15-.1-.05-.3-.1z"/><path d="M69.6 3.6h.85l.4.4.05.6-.55.65-1.55 1.3.75 1.7.25.9q0 .55-.4.75l-.7-.05-.6-.45-1.05-.85-.25-.1-.3.1q-.75.55-1.15 1l-.7.65-.8-.15q-.35-.35-.3-.85l.35-.85.85-1.75-1.05-.9-.6-.35-.4-.55q-.05-.35.3-.65.45-.4 1.3-.35l.75.1.65-.05.65-1.55.5-.4H67l.4.1.3.45.1.3.25.9zm-7.8 4.8q-.1.55-.7.65-.65 0-.8-.5l-.05-.75-.8-.05-.35-.45q-.05-.35.15-.6l.6-.25.6-.05.05-.3.05-.1q0-.5.6-.5.5 0 .6.55l-.05.4v.05l.6.15.4.5-.3.65-.55.2zM45.6 3q1.35-.2 3 .45l.2-.25L50.1 2l1.55.1.8.8q1.45 2.15 1.9 4.7.3 1.45.25 2.9l-.05.75-.05.45-.2 1-.5 1.6q-.9 2.1-2.8 3.15-.95.65-2.25 1l.7 2.6.45 1.65.4.05.35-.6q1.35-2.5 2.6-3.65 1.95-1.75 4.1-1.3l2.3 1.3 1 .7.85.05q1.15.1 1.65 1.1.5 1.05-.2 2-.75 1-2.6 1.1l-1.95-.3q-1.05-.45-2.1-1.65l-.5-.4-.55.05q-1.15.4-1.9 1.1l-.85 1-.4.5.8 1.25.2 1.35q-.1 1.7-.75 3.2l-.55.85-.9.95-.3.75q-.4.85-1.3 1.2l-1.8.05-1.3-.55-.6.05h-1.95l-.35.3-1.15.45q-.65 0-1.15-.35t-.7-1v-.1l-1.5-.85-1-.95-.5-.95q-.5-1.45-.15-2.7.35-1.5 1.35-2.3.55-.5 1.85-1.1l.85-.35h.05l.05-.15 1.35-3.1.3-.9v-.45l-.25-.1q-2.35-.7-3.75-2.7-1.25-1.6-1.4-3.65l-.15-.45-.25-.6q-.6-1.45-.3-3.95.2-1.35.75-1.8.6-.5 1.25-.25l.5.2.65.15.35.1 1.5-1.05q.9-.45 1.8-.75zm-2.5 8.35-.1-1-.55-.15-1-.55-.5-.7-.6.1q-.7.25-1.1.8-.85 1.25 0 2.45l1 .75 1.25.1q1.45-.35 1.6-1.8m3.45 2.05 1-.05.75-.55.2-.9-.3-1q-.3-.4-.7-.25-.2.05-.25.35l.05.45.2.55q-.4.25-.8 0l-.45-.35-.6.1-.35.55h-.35l-.2-.3.15-.5q.15-.4-.15-.45h-.25q-.35.2-.55.85l-.1.5q0 .65.7 1 .55.25 1.2 0l.4-.1zM53 9.2q-.05-.8-.7-1.4t-1.5-.6l-.45.05-.2.55q-.5 1.4-1.5 2.05.15.9 1 1.45 1.15.65 2.3 0 1.2-.75 1.05-2.1M15.05 19.25q.45-.85 1.45-1.85l1.4-1.1q1.65-1.05 4.3-.8 1.55.1 2.55.7L26 17.3q1.1 1.15 1.65 2.75.95 2.65.3 5.65-.8 4.05-3.7 5.4l-.7.25-1.15.55-9 4.35Q8 38.85 4.25 40.3q-2 .8-3.1.3l-.9-.9q-.35-.7-.2-1.35.15-.95 1.7-2.2 6.3-5.05 10.1-7.7 1.3-.9 2.45-1.5l-.1-.5-.2-2.75q.2-2.9 1.05-4.45"/><path fill="#fff" d="M53 9.2q.15 1.35-1.05 2.1-1.15.65-2.3 0-.85-.55-1-1.45 1-.65 1.5-2.05l.2-.55.45-.05q.85 0 1.5.6t.7 1.4m-6.45 4.2-.4-.1-.4.1q-.65.25-1.2 0-.7-.35-.7-1l.1-.5q.2-.65.55-.85h.25q.3.05.15.45l-.15.5.2.3h.35l.35-.55.6-.1.45.35q.4.25.8 0l-.2-.55-.05-.45q.05-.3.25-.35.4-.15.7.25l.3 1-.2.9-.75.55zm-3.45-2.05q-.15 1.45-1.6 1.8l-1.25-.1-1-.75q-.85-1.2 0-2.45.4-.55 1.1-.8l.6-.1.5.7 1 .55.55.15z"/></g></svg>