<svg xmlns="http://www.w3.org/2000/svg" xmlns:ffdec="https://www.free-decompiler.com/flash" ffdec:objectType="shape" width="71.5" height="41.65"><g fill-rule="evenodd"><path fill="#999" d="M71.15 27.1h.05l.15.05.1.15.05.1-.05.25-.1.2q-1.05 2.8-1.75 5.75l-.4 1.9q0 2.05-.4 4-.05.4-.5.45-1.1.2-1.35-.6l-.1.35-.5.5q-.9.2-1.25-.3-.65.15-1.15-.8-1.1-2.05-1.65-4.25l-.15-.45-.05-.35-.35-1.3-.1-.7q-.65-3.65-.35-7.5.25-3.35 2.05-5.95l-.05-.1-.45.05-.2.1-.1.1-.1.05-1.35 1.95q-.15.3-.55.25-1.35-.25-.95-1.6.5-1.6 2.25-1.95l.65-.1h.45v-.5l-.1-.1-.55-.35-.25-.15-2.2.65q-.25.05-.45-.2-1-1.2.5-2l1.1-.35q1.95-.05 2.85 1.35l.2-.1.55-.15.1-.35v-.45l-.15-.7q-.6-.6-.25-1.35.25-.45.75-.5 1.85.9 1.25 3l-.4.95.35.5.6-.1q2.3.4 2.2 2.65 0 .4-.4.55-.9.4-1.25-.55l-.4-.9-.75-.3-.05.15-.3.55q.75 1.15.35 2.8-.35 1.3-1.55.75-.5-.25-.5-.8l.25-.8.1-.55.1-.7-.05-.25h-.15l-.6 1.65-.4 1.25-.3 1.1-.15.55.3 5.3.15 1.1.1 1.1.5 1.85.15.8.55 1.6-.1-1.3.1-.9.05-.1.1-.1.1-.05h.15v-.05l.2.05.1.05q.95 1.75 1.4 3.7l.05.15q.2-2.7 1.2-5.25 1-2.5 2.9-4.4h.05zm-25.4-9.05q-.2 4.05-.05 8.1.2 4.05 1.05 8 .5 2.25.6 4.5.05.45-.35.75-1.2 1-2.05-.3-.45-.6-.55-1.4-.15-.7-.15-1.4-.6-3.85-.9-7.75V24.5q.25-3.6.75-7.1.35-2.9 1.3-5.6l-.65-.7-.3.2-.7.45q-.25 1.95-2.1 1.5l-.6-.5q-.65-1.45.8-2.4 1.15-.7 2.4-.8l.25-.85-.05-.05q-.4-.4-.95-.55-1.65.65-2.25-.8-.35-.8.4-1.35l.9-.35q2.3-.15 3.35 1.65l.1.2.5-.1-.1-1q-1.15-.85-.8-2.05.15-.6.8-.75h.2q2.2.6 2 2.8-.1.95-.55 1.55l.05.05.45-.3q.8-.5 1.65-.7 2.45-.2 2.85 1.95.1.5-.35.8-1 .8-2.1 0l-.4-.25-1.4-.1v.55l-.1.65q2.1 1.1 1.95 3.6-.05.5-.5.7-1.5.75-2-.8-.25-.75.1-1.5l-.15-.2-.1-.25-.05-.15-.2-.2-.55.2-.55.1q-.75 2.95-.9 6m5.6 3.35.15.05q.75 1.35.25 3-.25.95-.35 2-.2 4 .1 8.1.1 1.7.5 3.35.45 1.75-1.3 2.1-.6.1-.95-.4-.6-.85-.65-1.95-.15-4.05.1-8.1.3-3.9 1.75-7.45v-.3l.15-.25zM54 25.9l.2.05.4.9.05.45q0 3.9.75 7.8l.1.5.1-.35.1-.3.2-.4q.3-1.15 1.1-2.05l.5-.5.1-.05h.1v-.05l.25.1.1.05.15.15.05.25-.05.15-.05.1-.05.05-.4 2.4-.2 1.05-.05.5-.1.5q.55 2-1.1 3-.3.2-.6 0l-.35-.25q-1.05.7-1.9-.45-.4-.5-.35-1.2L53 36.25q-.25-4 .2-8.05.15-1.15.55-2.2l.1-.05zm-38.85-6.85.7.85q2.4 2.5 3.85 5.8 1.6 3.55 2.8 7.25 1 3 .95 6.05l-.3.8q-1 1.1-2.05 0-.55-.6-.5-1.4.1-3.2-.8-6.2l-2.15-5.85Q16 22.4 13.25 19.1l-.3-.4-.2.05-.1.05v.3q1.15.95.85 2.25-.15.55-.65.6-1.45.15-1.75-1.25l-.1-1.3.2-.75-.5-.4q-1.2.35-1.95 1.35l-.2.25q-.2 1.8-1.85 1.15-.35-.15-.4-.5-.15-2.2 1.95-3.1.9-.4 1.85-.5v-.1q-.5-.55-1.15-.9-1.15 0-2.15.45l-.55-.05q-1.1-.9.05-1.7.65-.5 1.45-.6 1.95-.1 3.1 1.1l.2-.15q-.6-1.5.05-3.2.5-1.2 1.6-1.5 1.55.45.75 1.75l-.45.5-.45.5-.3 1.55q.45.05.8.25.85-1.4 2.45-1.6 1.75.1 1.1 1.6l-.8.55-1.25.1-.35.2-.1.1.15.75 1.4-.35q2.05.3 1.55 2.05l-.45.35q-1.05.1-1.75-.8l-.85-.15-.1.25zm-6.05 3.2 1.9 1.3.45.55q2.45 2.7 4.3 5.9 1.6 2.8 2.75 5.8.7 1.9.5 3.8-.05.5-.55.65-1.45.4-1.7-1l-.15-1.4-.25-1-.1-1.05q-1.05-3.05-2.55-6-1.8-3.45-4.35-6.35L9.1 23l-.3-.45.05-.1.1-.15zM5.45 25.1q.5.45.35 1.25l-.5 2.2.75 1.6.15-.25q.5-1.3 1.6-2.25.5-.45 1.1-.5 1.7.15 1.15 1.7-.2.65-.95.9-1 .4-1.6 1.3l-.15.25.15.2 1.45-.5q1.9-.3 3 .95.3.35.2.8-.25 1.55-1.9 1.25l-1.9-.7h-.5v.1l-.05.3q.7.45 1.3 1l.75.65q1.5 1.25.1 2.55-.65.65-1.45.25-1.2-.65-1.1-1.9l-.75-1.3-.95.25q-.25.7-.1 1.5v1.15q.55 1.1.25 2.25-.15.55-.75.6-1.4.1-1.6-1.3l-.15-1-.05-.1q-.7-1.15-.15-2.4v-1.4q-.45.15-.9.45l-.2.05.1.9.15 1.25q.6 1.3.65 2.65.05.4-.35.6-1.35.75-1.9-.65-.6-1.6-.7-3.3-.1-3 1.25-5.55l.25-.1.3.1.1.05.15 1.1v.2l.35-.05.9-.05.1-.75.25-1.25-.05-.05q-2.05-.2-1.5-2.1.25-.7 1-.85l.25-.05q.5.2.95.5l.45-1.55.4-.5.15-.35q.1-.1.15-.1m19.55.5q1.85.9 2.65 2.9 1.5 3.75 1.9 7.8l-.2 1.45q-.45 1.2-1.7.8-.95-.3-.85-1.3V33.3q-.15-1.95-.95-3.7l-1.4-2.95q-.3-.5.15-.9.2-.15.4-.15"/><path d="M18.95 7.55q2.6-3.3 6.75-3.9l2.6-.2.25-.4q1.5-1.9 3.6-3L32.4 0q1.75.3 2.85 1.9l1.85 2.25q2.1 1.25 3.3 3.65 1.6 3.3 1.05 6.75 2.35.15 4.35 1.45l.75.3q3.15.7 6.2 0l1.25-.6q-2.05-2.5-1.05-5.45.65-1.9 2.65-2.4l.65-.05q3.1-.2 4.1 2.55.65 1.85 0 3.65-1.3 4-5.15 6l-2.1.8-8.05-.25-.7-.25.35.75 1.15 2.8q1.45 3.85 1.45 7.95l-.05 1.9 4-4.45q3.15-3.1 6.75-5.55 2.45-1.65 5.35-1.5 3.95.8 5.2 4.6 1.15 3.45-1.25 6.15-1.9 2.1-4.6.95-1.9-.8-1.5-2.8.35-1.6 2-1.8l.6-.2q.05-1.65-1.6-1.85-1.4-.15-2.7.55-5.6 3.05-9.95 7.65l-3.35 3.2q-.75 1.35-2 2.4-.45.4-1 .35-1.4-.15-1.9-1.05-2.9.95-6 1l-7.3.3q-1.7.15-2.95-.95-.85-.75-.65-1.9.25-1.35 1.1-2.5l5.15-7.05 1.05-1.6-2.75 2.75q-2.25 2-5 3.2l-3.25 1.2q-4.05 1.35-7.9-.35-4.05-1.85-4.65-6.1-.2-1.35.6-2.5 1.85-2.9 5.35-1.95 1.35.4 2 1.6 1.2 2.2.55 4.4.7.6 1.7.5l2.45-.4q2.65-.45 5-1.9l3.2-2.35.2-.6.2-.35q-2.15.2-4.35 0l-1-.2q-3.4-.65-5.7-3.6l-1.15-1.7q-.6-1-.75-2.05l-.2-.2q-2.5-2.2-3.1-5.45-.15-.85.45-1.45 1-.95 2.35-1.35l1.55-.45 1-.2zm13.4 9.1h-.15l-.3.2L30.65 18l-1.55.15-.25-.15q-1.25-.45-1.3.8l-.15.25q-.45.95-1.55 1.3l-.2-.05-.8.1q-.15.2-.15.45l.05.25.15.25.3.2q2.45.55 3.6-1.75l.75-.15q2.5.2 3.5-2.1l-.05-.3q-.1-.55-.65-.6M24.3 18.2l-.05-.85-3.5-.45q-.75-.25-1.15-.7l-.35.6q-.8 1.7.5 3 1.55 1.55 3.45.35 1.05-.7 1.1-1.95m8.65-8.95h-.05l-.05.3q-.5 2.8-2.3 4.75l.5.45 4-.1q.85-.75.9-1.85.2-3.1-3-3.55"/><path fill="#fff" d="M32.95 9.25q3.2.45 3 3.55-.05 1.1-.9 1.85l-4 .1-.5-.45q1.8-1.95 2.3-4.75l.05-.3zM24.3 18.2q-.05 1.25-1.1 1.95-1.9 1.2-3.45-.35-1.3-1.3-.5-3l.35-.6q.4.45 1.15.7l3.5.45zm8.05-1.55q.55.05.65.6l.05.3q-1 2.3-3.5 2.1l-.75.15q-1.15 2.3-3.6 1.75l-.3-.2-.15-.25-.05-.25q0-.25.15-.45l.8-.1.2.05q1.1-.35 1.55-1.3l.15-.25q.05-1.25 1.3-.8l.25.15 1.55-.15 1.25-1.15.3-.2z"/><path fill="#999" d="m48.6 15.95.2-.25.05-.05q.6-.5 1.35-.5l.45.1h.05q1 .25 1.35 1.05l.15.3.05 1.05q-.1.75-.5 1.15l-.25.2-.75.3-1 .1-.65-.25q-.55-.35-.85-1.15l-.05-.2-.05-.1q-.25-1 .45-1.75M48.3 30l-.15.45-.65.85-.35.25-.4.2q-1.1.4-2.05-.3l-.4-.35q-.65-.7-.7-1.45v-.15q0-.5.25-1.05l.3-.45.25-.3q.6-.6 1.55-.65H46q1.2.2 1.8.85l.05.05q.55.7.45 1.9zM31.15 4.9l.25.3q.5.55.35 1.6l-.05.05v.05q-.2 1.05-1.25 1.3l-.35.1-.85-.1q-.7-.2-1-1l-.05-.1-.05-.1q-.35-.95.1-1.6l.05-.1.55-.55.8-.3.2-.05h.05q.8.15 1.25.5m-16.9 17.85.1 1.25-.15.6-.25.4q-.4.45-1.2.55l-.35.05h-.2l-.95-.35-.35-.4-.35-.7-.1-.65q-.05-1.05 1-1.7.5-.3 1-.3 1.45.25 1.8 1.25M29.8 33.8v.3l-.1.5q-.15.7-.75 1.05l-.15.05-.45.1h-.7l-.4-.15q-.55-.3-.75-1.1l-.05-.2q-.15-1 .5-1.5l.15-.1q.2-.2.5-.3l.5-.1.7.2.1.05q.8.35.9 1.2"/><path fill="#fff" d="M49.1 19.15q-.75 1.15-1.25 2.45l-.25.2q-1.55.4-1.55-1.15-.05-1.2.85-2.05.5-.5 1.1-.8l-.45-.1q-1.05-.2-2 .3l-.6-.05q-1.25-1 .15-1.95.55-.4 1.2-.5 1.25-.1 2.3.45-.7.75-.45 1.75l.05.1.05.2q.3.8.85 1.15m-.3-3.45-.2-.2q-.75-.4-1.1-1.1-.35-.8.45-1.3l.45-.15q1.95.4 2.25 2.3l-.45-.1q-.75 0-1.35.5zm1.9-.45.1-.15q.85-1 2.05-1.2 1.95.2 1.35 1.9-.2.55-.8.65l-1.1-.25-.25.1q-.35-.8-1.35-1.05m1.5 1.35q2.25.4 2.15 2.65-.05.6-.65.75-1.15.25-1.7-.85l-.25-.35q.4-.4.5-1.15zm-.7 2.4q.35.7.2 1.7-.1.6-.7.7-1.3.25-1.35-1.05l.1-.95 1-.1zm-7.1 8.7-.45-.45-1.2-.55q-.65-.35-.45-1 .15-.8.95-.85 2.15.4 2.75 2.2l.4-.6q.7-.7 1.6-.9 1.75 0 1.25 1.55l-.3.5q1.9.35 1.4 2-.2.6-.8.7L48.3 30v-.15q.1-1.2-.45-1.9l-.05-.05q-.6-.65-1.8-.85h-.05q-.95.05-1.55.65m3.75 2.75q1.45.75.65 2.3-.2.35-.55.3-1.1-.15-1.05-1.35l-.05-.15.35-.25zm-1.4 1.3V34l-.35.5q-1.3.55-1.7-.75-.3-.95-.15-1.9l.15-.4q.95.7 2.05.3m-2.45-.65q-.95 1-1.3 2.5l-.3.3q-1.5.4-1.55-1.15 0-1.35 1.1-2.3.6-.55 1.35-.8.05.75.7 1.45m-.7-1.6q-.7-.15-1.45 0l-.3.1q-1.45 1.05-1.85-.55-.1-.45.25-.7.9-.75 2.05-.8 1 0 1.85.45l-.3.45q-.25.55-.25 1.05M28.3 5.3l-1-.75q-1.75.4-1.8-1.1 0-.7.7-.9l.25-.05q2.3 0 3.3 1.7l.15-.25q1-1.45 2.6-2.05 1.65.45.85 1.9-.25.5-.85.5l-.4-.05q-.55.25-.95.65-.45-.35-1.25-.5h-.05l-.2.05-.8.3zm3.1-.1.2-.05 1.1-.1q2.1.1 2.3 2l-.45.7q-1.1.5-1.95-.55-.3-.35-.8-.4h-.05q.15-1.05-.35-1.6m.3 1.65q.65.6.85 1.65.15.95-.4 1.7-.5.7-1.25.25-.9-.55-.55-1.6l-.25-.55.35-.1q1.05-.25 1.25-1.3zM29.25 8.2l-.35.5-.15.3-.2.6q.2 1.8-1.6 1.55-.5-.05-.6-.55-.25-1.2.55-2.2l1.35-1.2q.3.8 1 1M28.2 7.1l-.1-.05-.7.1q-1.15.4-2.15 1.25l-.55.1q-1.3-.45-.7-1.7.3-.6.95-.9 1-.45 2-.65l1.3.15q-.45.65-.1 1.6zM12.4 25.6l.35-.05q.8-.1 1.2-.55l.25-.4.15-.6-.1-1.25.3-.05q2.35.15 2.55 2.35l-.2.45q-1.1.85-2.05-.25h-.15l.5 1.35q.25 1.65-1.2 2-.45.1-.7-.25-.6-.8-.6-1.8l-.05-.65zm-1.95-2.1.1.65.35.7.35.4.95.35-.15.4v.55l.05.5q1.1 1.65-.4 2.75l-.65.05q-1.5-.65-1.2-2.35.15-1 .6-1.85l-.25.1-.15.25-.15.25-.15.1q-.25 1.75-1.9 1.2-.35-.1-.4-.5-.25-1.85 1.4-2.9.75-.45 1.6-.65m16.65 9.25q-.15-.7.05-1.4-.05-.65.35-1.15.25-.45.75-.45 1.45.5.9 2l-.2.65q.35-.35.75-.6.7-.4 1.5-.35 2 .05 1.85 1.75-.05.6-.65.8-.9.25-1.7-.35l-.9.15q-.1-.85-.9-1.2l-.1-.05-.7-.2-.5.1q-.3.1-.5.3m2.7 1.35q1.95.6 1.7 2.65-.1.7-.8.65-.95-.1-1.25-1.1l-.35-.55-.15-.1q.6-.35.75-1.05zm-1 1.6q.75 1.6-.55 2.75l-.45.05q-1.25-.65-.4-1.9l.2-.55.05-.25h.7zm-1.55-.05-1 1.8-.45.15q-1.2-.65-.6-1.85.45-.95 1.25-1.4l-.4-.15-2.1.1q-.3-.3-.1-.75.55-1 1.7-1.05.8-.05 1.4.35-.65.5-.5 1.5l.05.2q.2.8.75 1.1"/></g></svg>