<svg xmlns="http://www.w3.org/2000/svg" xmlns:ffdec="https://www.free-decompiler.com/flash" ffdec:objectType="shape" width="76.3" height="41.45"><g fill-rule="evenodd"><path fill="#999" d="m30.7 7.7.4-.2.75-2 .6-1.3 1.15-.75q.7-.1 1.95.65l3 2.2h.1q2.55.7 4.15 3.3.7 1 .9 2.05.65-2.55.15-4.85l-.3-.5-.55-.15h-1.45l-2.4-.2q-1.6-.4-2.5-1.6-1.05-1.25-.8-2.85.1-.8.55-1.5h8.35l.3.3q2.85 3.05 3 7.45.2 3.85-1.9 7.9l-1.55 2.5v.15l.05.65.15 1.15-.05 4.95.2-.55q.9-1.75 1.9-2.7 1.35-1.3 2.9-1.5l2.75.15q2.95.5 4.45 2.1.9.95.7 1.9l-.75.95-1.3.35-1.25-.3-1.2-.5-1.65-.4-1.25-.05q-.8.15-1.4 1l-.75 1.6-1.85 2.55q-1.2 1.1-2.5 1.25l-.4 1-1.3 2.25 1.35-1.35 1.5-1.25q1.1-.55 2-.35 1.05.3 1.6 1.45l.65 2.1.1.55.15 1.55q-.25 1-1.25 1.4-1.1.4-1.9-.35-.5-.45-.8-1.75L43.3 38.3q-1.45 1.1-2.95.95l-1.25-.3-1.25-.75q-.85-.9-.85-2.3-.05-.85.35-2.4-1.25-.4-2.35-1.55-1.05-1.1-1.4-2.45l-.4.25q-.55.3-1 .65l.1.2 1.2.95q1.8 1 2.2 1.75.45 1.1-.2 2l-.7.7-.9.55-1.3 1.05-1.65.7-1.85.05q-1.2-.25-1.55-1.5-.3-1.25.55-2.15.6-.6 1.95-.95-.85-.75-1.35-1.85l-1 .15q-1.95.35-3.15-.35-.75-.5-1.1-1.3-.4-.8-.25-1.75.35-1.75 2.1-2.6l1.8-.4 2.2.35q.6-1 1.75-1.75.75-.65 1.75-.95 1.25-.6 3.1-.75l.05-.05h-.5q-2.35.1-3.75-.75l-1.1-.85-1.25-1.35-.85-.25q-1.9-.75-2.8-1.65l-.4-.5q-.4-.8.1-1.8l1.15-1.5.5-.55.35-.3q.2-1.8 1.3-3.35.8-1.15 2-1.95m3.75 9.5q-.4-.85-1.25-1.2l-1.75-.05q-.85.35-1.3 1.2-.4.9-.15 1.75t1.1 1.35 1.75.3q1.15-.35 1.6-1.3.5-1.05 0-2.05m5.5-6.95Q39.25 9.3 38 9.2q-1.45-.15-2.35 1-.85 1.1-.45 2.5.4 1.35 1.8 1.75l.7.15h.3q1.65-.15 2.3-1.65l.2-1.4z"/><path fill="#fff" d="m39.95 10.25.55 1.3-.2 1.4q-.65 1.5-2.3 1.65h-.3l-.7-.15q-1.4-.4-1.8-1.75-.4-1.4.45-2.5.9-1.15 2.35-1 1.25.1 1.95 1.05m-5.5 6.95q.5 1 0 2.05-.45.95-1.6 1.3-.9.2-1.75-.3T30 18.9t.15-1.75q.45-.85 1.3-1.2l1.75.05q.85.35 1.25 1.2"/><path fill="#999" d="M5.55 38.75Q2 36.15 1.45 30.2q-.25-2.2.1-4.05.85-4.2 5.15-8.35l3.8-3.25 3.8-3.2q1.75-1.55 2.35-2.95.95-2.05-.1-3.7-.85-1.25-2.9-1.7l-3.1-.1q-1.35.4-2.5 1.7-.75.85-1.75 2.6l-3.15 5.4L.7 16.15l-.7.65v-6.2l2.55-5 2-3.5Q5.4.85 6.45 0H18.4q1.6 1.25 2.5 3.25.9 2.1.65 4.25-.4 3.4-3.65 6.75l-6.05 4.95q-3.65 3-4.9 5.95-1.6 3.8-.15 7.5.65 1.55 1.65 2.3.75.5 2.2.9l4.6.1q2.55-.7 3.55-2.8l.4-1.35-.15.05-.9.25q-.55-.1-.75-.8l.1-1.1.6-1.35q-.75-.7-1.6-.6-1.35.15-2 1.85l.85 1 .25 1.25q-.1.65-.6 1.2-.5.5-1.15.65-1.1.25-2.4-.65-1.15-.8-1.45-2.05-.35-1.3.25-2.85.55-1.5 1.75-2.7 1.25-1.15 2.75-1.65l3.25-.15q1.35.25 2.45 1.05l.2-.25q1.35-1.75 1.25-2.9l-.45-1.4-.7-1.45q-.65-1.6.1-3.5.55-1.55 2-2.9 1.2-1.2 2.25-.95.55.1.6.5l-.4.75q-1.35 1.45-1.8 3.2-.2.55-.05.95l.65.9q1.1 1.25 1.45 3.05.3 1.7-.25 3.3-.45 1.25-2.1 3.3l-.45.6.05.1q1.25 3.65-.45 7.1-1.7 3.35-5.4 4.65l-6 .4q-3.35-.45-5.4-1.9M59.6 13.2q1.3-1.45 3.3-1.85 1.7-.35 3.4.05 1.75.4 3.05 1.5 0-3.6-2.6-6.1-2.65-2.5-6.2-2.35-1.7.05-3.2.8-1.6.8-2.5 2.1-.55.8-1 2.1l-.7 2.2q-1.8 5.85-5 8.15-.5.45-1.1.5-.75.1-1-.5-.25-.5.35-1.4 1.6-2.5 2.3-4.5l1-4.25q.5-2.7 1.2-4.15 1.55-3 4.55-4.55Q56.7.3 58.05 0h5.65q3.75.75 6.5 3.7 3.45 3.5 3.6 8.55l-.25 3.3q-.3 1.3-.2 1.9l.45 1.3q1.6 3.4 1.6 7.25.05 3.85-1.5 7.3-.9 1.85-1.8 2.95-1.95 2.15-5.2 3.4-3.3 1.2-6.5 1.4l-1.8.1-1.85.3H50.1q.4-1.2 1.5-2.15 1.2-1.15 2.85-1.7l3.25-.75 3.3-.35q4.15-.35 6.3-1.9 2.75-2 3.5-5.75.55-3-.4-6.85-2.55 2.05-4.05 2.5-1.65.5-3.45-.05-1.75-.5-2.95-1.8-1.2-1.2-1.65-3-.45-1.7-.1-3.45.35-1.8 1.4-3m5.65 2.65-.95-.15q-.4.05-1.1.45l-.3.2-.3.65-.05.45.05.7q0 .45.15.8l.45.75.8.45.65.15.55-.15 1.35-.85 1.15-.95v-.1l.25-.25.05-.1-.1-.15-1.3-1.15-.65-.45z"/><path fill="#fff" d="M67.35 23.65q-.8.3-1.65 0-.8-.3-1.25-1.1t-.3-1.6q.15-.85.85-1.4l2.2.25.95-.15.75 1.3q.15.85-.3 1.6-.45.8-1.25 1.1m-5.1-1.85.2.45q.1.5-.15.8-.25.4-.75.25l-.6-.75-.25-.35-.05-.4h-.3l-1.2-.1-.9-.45q-.45-.45-.2-.9t1.1-.45l1.05-.05h.65l.3-.2v-.1q.25-.3.8-.5.5.2.6.65.15.5-.25.85v.1l-.2.25.05.3zm-5.15-4.75-.55-1q-.25-.8.15-1.7.4-.85 1.2-1.2l1.75-.05-.15.65q-.05.8.45 1.75l.95 1.3-.55.55q-.7.5-1.7.45-.95-.1-1.55-.75M9 22.4l.05-.1.75.6q1.7.95 3.45.9h.1l-.15.45q-.3.7-.95 1.05l-1.4.3q-.75-.1-1.3-.55-.55-.5-.7-1.25T9 22.4m9.95-6.1q.9.15 1.5 1 .6.8.5 1.7-.1.7-.6 1.3l-1.2.75-1.6-.1.15-1v-2.8l-.1-.7z"/><path d="M63.4 9.65q2.85.55 4.8 1.95 2.35 1.75 3 4.25V16h.1l1.1.45 1.25.7q.65.6.75 1.3.05.8-.8 2.05l-.45.65q-1 1.25-2.6 2.05l-.4.6.5 1.25q1.3-1.2 2.7-1.85 1.5-.7 2.95-.8v4.9l-1.15.2-2.4 1.8 1.2 2.05.5.6 1.1.55.75.4v6.15l-.65.1q-1.4.2-3.2-.65-1.3-.6-1.85-1.3-.85-.9-.6-2l.15-.85-.25-.7-.9-1.75-.15.05.2.65q.8 2.5-.6 4.15-1.4 1.6-3.9 1.35l-3.2-.95-.2 1.1q-.2.6-.9.85l-1.3-.25q-.5-.3-.9-1l-1.1-1.9-.2-.6q-.2-.6-.05-1.2l.05-.25-1.1-.8-.85-.95-.8 1.7-.95 1.4-.9 1.5-.85 1.5q-.7.5-1.95.6-2.5.2-3.75-.5-.9-.45-1.4-1.3-.55-.95-.35-1.85.4-1.55 2.15-2.1l3 .25q1.7-1.85 3.4-5.15l1.9-3.9.7-2.5.05-.1-.05-.1-.75-2.25L54.2 18q-.1-2.05.2-3.2l.5-1.25.15-.4-1.45-1.45-.9-.7-1.15-.2-1.55-.2-1.45.45q-2.05.65-3.6-.3-.8-.55-1.2-1.4-.4-.9-.2-1.8.25-1 1.3-1.85 2.35-1.75 5-1.05.85.15 2.15.95 2.05 1.25 4.1 3.4l1.1 1.25.05-.05.6-1.45q.45-.9 1.5-.9.85-.05 1.6.65l.75 1zm-6.3 7.4q.6.65 1.55.75 1 .05 1.7-.45l.55-.55-.95-1.3q-.5-.95-.45-1.75l.15-.65-1.75.05q-.8.35-1.2 1.2-.4.9-.15 1.7zm5.15 4.75-.1-.6-.05-.3.2-.25v-.1q.4-.35.25-.85-.1-.45-.6-.65-.55.2-.8.5v.1l-.3.2h-.65l-1.05.05q-.85 0-1.1.45t.2.9l.9.45 1.2.1h.3l.05.4.25.35.6.75q.5.15.75-.25.25-.3.15-.8zm5.1 1.85q.8-.3 1.25-1.1.45-.75.3-1.6l-.75-1.3-.95.15-2.2-.25q-.7.55-.85 1.4-.15.8.3 1.6t1.25 1.1q.85.3 1.65 0m-2.1 10.3-.5-1.55q-.25.7-.9 1.2zm1.45-7.6-2 .5 1.25 1.05.5.65.65-.15.3-.15zM12.9 9.65l1.7-.15.75-1q.75-.7 1.6-.65 1.05 0 1.5.9l.6 1.45.05.05L20.2 9q2.05-2.15 4.1-3.4 1.3-.8 2.15-.95 2.65-.7 5 1.05 1.05.85 1.3 1.85.2.9-.2 1.8l-1.2 1.4q-1.55.95-3.6.3l-1.45-.45-1.55.2-1.15.2-.9.7-1.45 1.45.15.4.5 1.25q.3 1.15.2 3.2l-.05 1.35-.75 2.25-.05.1.05.1.7 2.5 1.9 3.9q1.7 3.3 3.4 5.15l3-.25q1.75.55 2.15 2.1.2.9-.35 1.85-.5.85-1.4 1.3-1.25.7-3.75.5-1.25-.1-1.95-.6l-.85-1.5-.9-1.5-.95-1.4-.8-1.7-.85.95-1.1.8.05.25-.05 1.2-.2.6-1.1 1.9-.9 1q-.7.45-1.3.25-.7-.25-.9-.85-.25-.45-.2-1.1l-3.2.95q-2.5.25-3.9-1.35-1.4-1.65-.6-4.15l.2-.65-.15-.05-.9 1.75-.25.7.15.85q.25 1.1-.6 2-.55.7-1.85 1.3-1.8.85-3.2.65l-.65-.1V32.9l.75-.4 1.1-.55.5-.6 1.2-2.05-2.4-1.8L0 27.3v-4.9q1.45.1 2.95.8 1.4.65 2.7 1.85l.5-1.25-.4-.6q-1.6-.8-2.6-2.05l-.45-.65q-.85-1.25-.8-2.05.1-.7.75-1.3l1.25-.7L5 16h.1v-.15q.65-2.5 3-4.25 1.95-1.4 4.8-1.95m6.05 6.65-1.35.15.1.7v2.8l-.15 1 1.6.1 1.2-.75q.5-.6.6-1.3.1-.9-.5-1.7-.6-.85-1.5-1M9 22.4q-.3.65-.15 1.4t.7 1.25q.55.45 1.3.55l1.4-.3q.65-.35.95-1.05l.15-.45h-.1q-1.75.05-3.45-.9l-.75-.6zm2.05 11.55 1.4-.35q-.65-.5-.9-1.2-.45.85-.5 1.55m-1.45-7.6-.7 1.9.3.15.65.15.5-.65 1.25-1.05z"/><path fill="#999" d="M28.05 15.95q.35-.4 1.35-.7 1.85-.55 2.7-1.45.65-.75.9-2.15l.35-2.3q.15-.85.55-1.35.5-.7 1.3-.6.9.1 1.2 1.1l.1 1.75q-.15 1.95-.65 3.55-.65 1.9-1.95 3.05-.9.8-2.45 1.3l-1.75.25q-1.05-.1-1.55-.75-.7-.85-.1-1.7M40.85 9.3H41l.1.05.15.05.1.05.05.05.05.1.05.05.05.05v.05l.05.05v.05l.05.1v.25l-.05.1v.4l-.05.05v2.05l.05.05v.4l-.05.05v.2l-.05.05v.2l.05.05v.4l.05.05v.45l.05.1v.4l.05.05v.1l.05.05v.35l.05.1v.75l-.05.05v.2l-.05.05v.05l-.05.05v.1l-.05.1-.05.05v.05l-.05.05-.05.05-.05.05-.05.1-.15.15-.1.05-.05.05-.1.1-.1.05-.15.05-.15.05h-.65l-.1-.05h-.15l-.15-.1-.15-.05-.1-.05-.05-.05-.1-.05-.05-.05-.1-.1-.05-.05-.05-.05-.1-.1-.05-.1-.05-.05v-.05l-.05-.05-.05-.05V17l-.05-.1v-.1l-.05-.05v-.2l-.05-.05v-.15l-.05-.05-.05-.1v-.1l-.05-.05v-.1l-.05-.1V14.7l.05-.05v-.4l.05-.05v-.5l.05-.05V13l.05-.05v-.25l.05-.05.05-.05v-.1l.05-.1v-.1l.05-.05v-.05l.05-.05v-.2l.05-.05v-.1l.05-.1v-.05l.05-.05v-.05l.05-.05.05-.05v-.15l.05-.05.05-.05v-.1l.05-.1v-.05l.05-.05v-.05l.05-.05.05-.05v-.1l.05-.05.05-.05.05-.05.1-.05.05-.05.05-.1v-.05l.05-.05.1-.05v-.05l.1-.05.05-.1.05-.05.05-.05.1-.05.05-.05.05-.05v-.1l.1-.05.1-.1.1-.05.1-.05h.05l.1-.05z"/></g></svg>