<svg xmlns="http://www.w3.org/2000/svg" xmlns:ffdec="https://www.free-decompiler.com/flash" ffdec:objectType="shape" width="69.65" height="36.5"><g fill-rule="evenodd"><path fill="#717171" d="m66.85 7.6-.7.5q-.75.55-1.7.45-1.2 0-2.05-.95-.55-.6-.75-1.45-.15-.85.1-1.65.65-1.7 2.5-1.95l1.6.25q.8.35 1.25 1.05 1.05 1.55.15 3.15l-.4.5zm-11.2-4.05q.85-.6 1.75-.35 1 .25 1.3 1.2.25.65-.05 1.35t-.9 1l-1.35.15q-.7-.2-1.1-.8T55 4.75t.65-1.2m6 14.4q.85.05 1.6.55.7.5 1 1.3.3.75.15 1.6-.2.85-.8 1.4t-1.45.75l-1.6-.15-1.25-1.05q-.45-.7-.5-1.55l.2-1 .4-.75q.95-1.1 2.15-1.05zM41.7 8.35q.95.7 1.3 1.7.45 1.35 0 3.8l.7 1.6 1.2 1.6 1.05 1.75q.65 1.4-.05 2.85-.75 1.5-2.2 1.9-.9.2-2 0l-1.4.35-1.95.65q-.55.25-1.35.9l-2.9 2.3-2.45 1.7q-1.6.8-2.85.75l-.85.2-1.7.35-1.65.45-1.65-.05q-1.2-.4-1.7-1.55-.5-1.2.2-2.3.45-.7 1.6-1.35l.3-.2.6-.65q.9-1.2.95-2l-.1-1.3-.2-1-.2-.55-.6-.8-.75-.85-.85-.95q-.35-.6-.1-1.3.3-.65 1-.9.75-.2 1.65.25l1.5.85.8.4q2.3.35 4.35-1.6 1.35-1.35 2.6-4.3l.9-1.8q.7-.95 1.9-1.45 1.15-.5 2.4-.4l1.1.2zm27.6 21.6q.7 1.3.05 2.7-.55 1.35-2.05 1.7l-2.1-.2q-1-.5-1.45-1.55-.65-1.6.3-2.95.95-1.45 2.7-1.35t2.55 1.65M13.35 3.2q-1-.4-1-1.6.1-.9.9-1.4l1.1-.15q.55.15.95.55l.4 1.05-.35 1.05-.9.6zM.55 14q.15-.4.4-.65.65-.7 1.7-.55 1 .25 1.4 1.15.35.95-.1 1.65l-.9.85-1.25.1-1.05-.7q-.4-.55-.35-1.2zm7.65-.9q.8-.7 1.6-.85 1.7-.35 2.85 1 1.05 1.4.4 3-.75 1.6-2.5 1.75l-1.3-.2q-1.4-.65-1.7-2.05-.4-1.45.6-2.6zM4.6 27q-.1-.7.25-1.35l.35-.45v-.1l.5-.4q1.05-.9 2.5-.55 1.35.3 1.95 1.65.55 1.3-.1 2.6l-.7.95q-1.2 1.1-2.7.65l-.55-.3-.6-.55-.6-.8q-.35-.65-.3-1.35M2 36.2l-.95.15-.8-.45q-.3-.4-.25-.95.1-.55.45-.85.35-.35.9-.3.5 0 .85.35l.3.5q.35.95-.5 1.55"/><path d="M66.05 21.95 65 23.15l-2.05 1.3-1.65.4q-1.9.25-3.25-.55-1.1-.65-1.65-2-.55-1.2-.45-2.6.15-2.35 1.65-4 1.55-1.8 3.9-1.7l1.9.45q1.3.5 2.05 1.35l.65 1.05q.6.9.65 1.8l-.2 1.7zM60.7 17.1l-1.2.75q-.5.55-.6 1.25-.35 1.5 1 2.5l2.8.1 1.05-1.25q.6-1.55-.6-2.75-1.1-1-2.45-.6m-42.05 5.25Q17 21.35 16 19.7l-.8.45-.8.35q-.95.2-1.4-.7-.4-.85.2-1.55.2-.25.9-.6.45-.25.85-.4-.5-1.9-.15-3.75.3-1.3.9-2.25l-.6-1.4-.15-1.05q.15-1 1.1-1.25t1.6.45l.65 1.3q1.75-.5 4.15.3l1.9.6q1.05.25 1.85 0 1.15-.35 2.5-2.25l2.9-3.3-.1-.15q-1-1.25-1.05-1.65-.25-1.1.7-1.7t1.85 0l.7.8.4.65.65-.4Q37.05.95 39.7.9q2.75-.05 4.9 1.25 1.65.95 2.7 2.5l1.25-.6q.7-.55 1.35-.7 1.15-.1 1.55.9.2.4.05.9l-.5.8-.45.25-1 .65-1.05.55q.4 1.8-.1 3.55-.35 1.2-.25 1.65l.75 1.15 2.25 3 .65 1q.8-.45 1.75-.65h1.1q1.05.25 1.15 1.3l-.2.95-.65.6-1.1.25-.95.05h-.15v.25q.2 1.5-.6 3.45l-.2.55.2.25.7.65.75 1.2q.1.65-.4 1.05-.55.45-1.2.3-.35-.1-1.55-1.05l-1.6 1.4q-2.4 1.75-5.25 1.45l-2.05-.25q-1 .1-2.1.95l-1.6 1.45.85 1.5q.25 1.15-.3 1.85-.35.45-.9.55l-1.1-.1-.8-.7-.45-.9-.1-.15q-1.7.85-3.75 1.4l-7.05 1.05q-2.4.2-3.85 0-2.1-.25-3.45-1.3l-.2-.2-.5.1-.2.2-.4.3-.2.25q-.6.6-1.4.45t-1.15-.9q-.25-.8.15-1.45l2-1.65-.25-1.1-.55.1-1 .05q-.85-.1-1.2-.95-.3-.8.2-1.5.55-.65 1.8-.85l.8-.05q.25-1.55 1-2.85 1.05-1.85 2.8-2.7M56.35 13q-.45.75-1.25 1.15l-1.75.3q-.85-.05-1.6-.65-.7-.55-1-1.35-.55-1.65.5-2.95Q52.3 8.15 54 8.3t2.45 1.7q.7 1.5-.1 3M40.3 10.9l.1.3-.15 1.6-.6.85-.35.25q-1.15.9-2.5.3-1.35-.55-1.6-2t.8-2.4q1.05-1 2.45-.65 1.4.4 1.85 1.75m-2.75 15.35q2.35-1.6 5.15-1.1l2.2.2q1.3-.25 2.6-2 .7-1.05.75-1.9 0-1-.7-1.95l-2.15-2.6q-1.3-1.5-1.7-2.75-.35-1.15-.2-2.55l.35-1.9q.15-1.1-.15-1.8-.55-1.75-3-2.15-2.1-.4-4.1.65-1.15.6-2.35 1.9l-1.9 2.4q-2.35 3.2-4.5 4l-3.2-.1q-1.35-.75-2.75-1.25-1.45-.55-2.4.45-.85 1.6.05 3.15l2.3 2.15q1.65 1.25 1.95 2.35.35 1.3-.65 2.7l-2.2 1.95-1.2 1.05q-.3.4-.5 1.45-.4 1.85.15 2.7.8 1.15 3.25.95 7.9-.4 11.8-3.45l1.5-1.3q.95-.85 1.6-1.25m1.1-4.25q-.45-.45-.45-1.2.1-.9.9-1.3l1.55.15q.8.5.7 1.4-.1 1-1.05 1.35-1 .35-1.65-.4m10.5 13.25q-.95.35-1.6-.4-.7-.75-.25-1.65.45-.95 1.45-.85 1.05 0 1.3 1 .2.55-.05 1.1zm8-1.5q-1.1-.8-1.2-2.15-.05-.8.45-1.55.45-.75 1.2-1.1l1.65-.1q.85.15 1.4.75.6.6.7 1.5.15.85-.2 1.6L60 33.9l-1.6.3zM22.9 7.65q-.7-.4-1.05-1.2t-.2-1.6q.1-.8.7-1.4.55-.65 1.35-.85l1.6.05q.8.3 1.3.95l.3.4.2.55q.4 1.35-.5 2.5-.65.85-1.7 1-1.15.15-2-.4M25 19.1q.1-.75.7-1.2l1.9-.1q.95.5.85 1.65-.1 1.1-1.1 1.5-.95.35-1.7-.25-.75-.55-.65-1.6m5.65-1.95q.6-1.05 1.8-.9 1.15.1 1.7 1.15l.4 1.45.4 2.65q.1.95-.15 1.6l-.6 1q-1.1 1.4-4.05 2.8l-.8.35-.95.55-1.25.05q-.7-.15-1.1-.7-.4-.5-.4-1.2-.05-.7.35-1.25.45-.65 2.45-1.55l1.75-1.1.45-.5-.05-.8-.15-1.95q-.1-1.05.2-1.65M13 8.55q-.25 1.15-1.4 1.3-1.1.15-1.7-.75-.6-1 .05-1.9t1.8-.65q.7.2 1 .75.4.6.25 1.25m-7.1 14.6q-.65.3-1.1.9-.95 1.3-.45 2.8.6 1.6 2.2 1.9 1.7.35 2.8-.85v-.1q.9-1 .75-2.3-.15-1.25-1.2-2.05-1.05-.75-2.35-.5zm2.25-3.05 1.45.5q1.15.55 1.5.85.95.75 1.35 1.95.4 1.15.2 2.4l-.2.85-.7 1.95q-.95 1.55-2.7 2.2l-3.5.4-1.3-.3q-2.05-.75-2.6-2.9-.15-.6-.15-1.35.1-2.15 1-3.7.8-1.4 2.35-2.3 1.65-.9 3.3-.55"/></g></svg>