<svg xmlns="http://www.w3.org/2000/svg" xmlns:ffdec="https://www.free-decompiler.com/flash" ffdec:objectType="shape" width="78" height="37.15"><g fill-rule="evenodd"><path fill="#999" d="M73.4 5.5h.4l.25.05.15.1.1.05.05.1.05.05.05.1.05.05.05.1v.4l-.05.05-.05.1v.05l-.05.1-.1.05-.1.1-.1.05-.15.05-.15.05h-.4l-.9.05h-1.15l-.15-.05-.25-.05h-.7L70.1 7h-.15l-.2-.05h-.4l-.5-.05H64.6l-4.05-.05h-.95l-3.35-.05H56l-.4-.05h-.25l-.3-.05h-.3l-.4-.05h-.55l-.65-.05h-.95l-.1.05h-.15l-.05.05h-.1l-.15-.05-.05-.05v-.1l-.05-.05.05-.1v-.1l.05-.05.15-.1.15-.05h.2L52.3 6h.3l.25-.05h.2l.1-.05.1.05h1.1l.4-.05H55l-.1-.3q-.15-.75.6-1.4.7-.65 1.7-.8h1.1l.2-.5.4-.5.4-.3q.85-.4 1.15-.5l.7-.1.95.05 1.25.25q.8-1 2.1-1.35l.6-.1 1.7.25q.6.1.95.3l.45.35.95 1.25.15.65h.25q1.3 0 2.1.55 1.1.7.8 1.8m-29.15 8.8H46l1.4.05h.65l.55.05h.25l.3.05h2.65l2.05.05.75.05h.7l.4.05h.95l.35.05h.3l.25.05h.15l.15.05H58l.2.05h.15l.25.05h.05l.1.05h.45l1 .05h.5l.65.05h.3l.35.05h.35l.45.05h.55l.4.05h.55l.75.05h.75l.5.05.4.05h2.9l.5.05h.15l.15.05.2.05.1.05.1.1.05.05.05.1v.05l.05.1v.15l-.05.1-.05.05-.1.1-.2.05h-.15l-.15.05h-.15l-.5.05h-2.9l-.4.05h-.5l-.75.05h-.75l-.55.05h-.4l-.55.05h-.45l-.35.05-.35.05h-.3l-.65.05h-.5l-1 .05h-.45l-.1.05h-.05l-.25.05h-.15L58 17h-.15l-.15.05h-.15l-.25.05H57l-.35.05h-.95l-.4.05h-.7l-.75.05H51.8l-2.65.05h-.3l-.25.05h-.55l-.65.05h-3.45l-.1-.05h-.15l-.2-.05h-.1l-.3-.05h-.25l-.15-.05h-.1l-.1-.05h-.1l-.2-.05-.2-.1-.2-.05h-.2l-.15-.05h-.25l-.25-.05h-.45l-.75-.05H34.7l-.3-.05h-1.2l-.65-.05-.15-.05h-.2l-.65-.05h-4.8l-1.65-.05h-3.4l-.45-.05h-1.2l-.25-.05h-.95l-1-.05h-1.8l-.65-.05h-.25l-.6-.05h-.4l-.2-.05h-1.5l-.4.05H11l-.15-.05h-.45l-.15-.05h-.3l-.1-.05h-.1l-.2-.05-.15-.1-.15-.05-.15-.05-.15-.05-.15-.05v-.1h.15l.15-.05.25-.1.15-.05.15-.05.1-.05h.1l.1-.05h.3l.15-.05h.45l.15-.05h1.05l.4.05h1.5l.2-.05.4-.05h.6l.25-.05h.9l1.55-.05h1l.95-.05h.25l.7-.05h.95l.55-.05h7l.9.05h1.75l.95.05.35-.05h1.2l.3-.05h5.05l.75-.05h.45l.25-.05h.25l.15-.05h.2l.2-.05.2-.1.2-.05h.1l.1-.05h.1l.15-.05.25-.05h.3l.1-.05h.2l.15-.05h.4zm24.55 5.3h1.65l.25.05.2.05.2.1.1.05.1.1.1.05.1.1.05.05.05.1.05.05.05.1.05.1v.05l.05.1v.05l.05.1v.45l-.05.1v.05l-.05.1v.05l-.05.1-.05.05-.05.1-.05.05-.05.1-.1.1-.1.05-.1.1-.1.05-.2.1-.2.05h-3.05l-1.15-.05h-.3l-.35-.05h-.75l-.5-.05h-.95l-1.55-.05h-.8l-.6-.05h-1.25l-.65-.05h-.4l-.65-.05H48.3l-.85-.05h-.2l-.2-.05-.15-.05-.1-.05-.05-.05h-.1l-.1-.05-.2-.05-.15-.05-.15-.05-.15-.05-.15-.1-.15-.05-.1-.1-.15-.05-.15-.1-.1-.1-.05-.05.1-.1.15-.05.15-.1.1-.05.15-.1.15-.05.15-.1.1-.05.1-.05.15-.05.2-.05h.1l.15-.05.1-.05.05-.05h.1l.2-.05h.2l.85-.05h9.45l.65-.05h.4l.65-.05h1.25l.6-.05h.8l1.55-.05h.95l.5-.05h.75l.35-.05h.3l1.15-.05h1.15zm-23.6-11h2l.25.05h.2l.15.05h.15l.1.05.15.05.2.05.1.1.15.05.1.1.1.05.1.1.1.1.05.05.05.1.05.05.05.1.1.05.05.1.05.05.05.1V10l.05.1v.1l.05.05v.4l-.05.05v.1l-.05.1v.05l-.05.1-.05.05-.05.1-.05.05-.05.1-.05.05-.1.1-.05.1-.1.05-.05.1-.1.05-.1.1-.1.05-.15.1-.2.05-.1.05-.1.05h-.1l-.15.05-.15.05h-.2l-.25.05h-2l-1.25-.05h-2.5l-.85-.05-.3-.05h-.1l-.15-.05h-.15l-.15-.05h-.1l-.1-.05h-.1L39.4 12h-.3l-.25-.05h-.5l-.3-.05h-.25l-.2-.05h-.2l-.15-.05h-.15l-.1-.05h-.05l-.1-.05h-.2l-.1-.05h-.1l-.1-.05h-.1l-.15-.05h-.3l-.2-.05-.1-.05-.15-.05-1-.05h-.4l-.25-.05h-.25l-.5-.05h-.4l-.15-.05h-.3l-.15-.05h-.3l-.35-.05h-.35l-.45-.05h-.2l-.2-.05h-.6l-.55-.05h-.65l-.35-.05h-.65l-.4-.05h-.35l-.7-.05-1.05.05-.15.05-.15-.05h-.1l-.1-.05-.1-.05-.3-.05-.1-.05v-.15l.1-.1.3-.05h.1l.15-.05.1-.1.15-.05h1.15l.7-.05h.35l.4-.05.65-.05h.35l.65-.05h.55l.6-.05h.2l.2-.05h.45l.35-.05h.35l.3-.05h.15l.3-.05h.15l.4-.05h.5l.25-.05h.25l.4-.05 1-.05.15-.05h.1l.2-.05h.3l.15-.05h.1l.1-.05.1-.05h.1l.2-.05h.1l.05-.05h.1l.15-.05h.15l.2-.05h.2l.25-.05h.3l.5-.05h.25l.3-.05h.05l.1-.05h.1l.1-.05h.15l.15-.05h.15l.1-.05h.3l.85-.05h3.75zm31.75 26.35.3.05.2.1.15.05.1.1.05.1.05.05.05.1.05.05.05.1v.05l.05.1v.55l-.05.05-.05.1v.05l-.05.1-.05.1-.05.05-.1.1-.1.05-.15.1-.15.05h-.05l-.25.05H74.9l-.2-.05h-.1l-.25-.05H74l-.3-.05h-1.05l-.2-.05h-.15l-.2-.05h-2l-10.25-.05h-.2l-.1.05h-.15l-.15.05h-.15l-.25.05h-.15l-.2.05h-4.3l-.25-.05h-.75l-.25-.05H50.7l-.55-.05h-.4l-.55-.05h-.15l-.15-.05h-.6l-.15-.05-.15-.05-.15-.1-.2-.05-.45-.05-.2.05-.2-.05-.1-.05v-.15l.1-.1.4-.05h.45l.2-.05.15-.05.15-.1h.05l.1-.05.2-.05.2-.1.1.05.05.05H49l.25-.05h.25l.25-.05h.15l.25-.05h.15l.15-.05h.2l.25-.05h.25l.25-.05h.15l.15-.05h.15l.15-.05h.15l.15-.05h.15l.2-.05h.15l.3-.05h.15v-.1l.25-.4 1.1-1.05.3-.2.4-.2L58 33l.8.15.1.05.65-1 .85-.8.6-.3 1.35-.45 1.4-.1 2.5.25.65.25.2-.3q1.45-1.5 3.25-1.8l1.15-.05 2.1.15q1.15.25 2.05 1.05.95.85 1.15 1.95l.15.85.25.8-.4 1.25zM31.4 24.6H35l2.05.05h1.45l.4.05h.35l.2.05h.2l.15.05h.15l.1.05.05.05h.4l.7.05h.3l.3.05h.2l.2.05h.2l.15.05.2.05.1.05h.1l.1.05h.1l.1.05h.15l.05.05h.15l.25.05h.35l.2.05h.25l.25.05h.35l.55.05h.45l.3.05.2.05h.2l.2.05h.45l1.1.05h.35l.5.05h.4l.25.05h.15l.2.05.15.1.15.05.05.1.05.05.05.1.05.1v.45l-.05.05-.05.1-.05.05-.05.1-.15.1-.15.05-.2.05-.15.05h-.25l-.4.05h-.5l-.35.05h-1.1l-.45.05h-.2l-.2.05h-.2l-.3.05h-.45l-.55.05h-.35l-.25.05h-.25l-.2.05h-.35l-.25.05-.15.05h-.05l-.15.05h-.1l-.1.05h-.1l-.1.05h-.1l-.2.05-.15.05-.2.05H42l-.2.05h-.3l-.3.05h-.7l-.4.05h-.05l-.1.05h-.15l-.15.05h-.2l-.2.05h-.35l-.4.05-1.45.05h-6.4l-1.15-.05-.65-.05h-.7l-.3-.05h-.2l-.25-.05H27l-.35-.05h-.5l-.65-.05h-.4l-.8-.05h-.7l-3.3-.05h-.5l-.95-.05h-.5l-.6-.05H14.7l-.25-.05h-.15l-.1-.05h-.15l-.1-.05h-.1l-.3-.05h-.2l-.2-.05-.7-.05h-.35l-3.15-.05h-.3l-.45-.05h-.55l-.2-.05H7.3l-.2-.05h-.4l-.25-.05h-.3l-.2-.05H5.8l-.35-.05h-3.9L1 27.4H.7l-.15-.05-.25-.05-.2-.05H0V26l.1-.05.2-.05.25-.05H.7l.3-.05h.55l.45-.05h3.8l.15-.05h.2l.3-.05h.25l.4-.05.2-.05h.15l.2-.05h.55l.45-.05h.3l3.15-.05h.35l.7-.05h.2l.2-.05h.3l.1-.05h.1l.15-.05h.1l.15-.05h.25l1.3-.05h2.35l.5-.05h.95l.5-.05h3.3l.7-.05h.8l.4-.05h.65l.5-.05.35-.05h.4l.25-.05h.2l.3-.05h.7l.65-.05h1.9zM27.5 5.7l.25.05.2.05.25.05.2.05.2.1.1.05.05.1.1.05.05.1.05.1v.15l-.05.05-.05.1-.1.05-.05.1-.1.05-.2.1-.2.05-.25.1h-.2l-.25.05-.25.05H19.2l-1.9-.05h-1.8l-.25-.05h-.4l-.6-.05-.6-.05h-8.8L3.8 7.2 2.1 7h-.05L2 6.95l-.15-.05-.1-.1-.05-.05V6.7l-.05-.05q-.3-.3-.45-.8-.2-.75.15-1.45.35-.6 1.25-1l1.6-.55L6.8 2l2.6-.15Q10.2.5 13.05.1L17 .2q2.3.6 3.15 2.35.1.35.35.5l.6.1 2.15.4q1.2.5 1.35 1.65l1.3.1 1.25.25.15.15zM.05 9.5H1.1l.85.05H3l2.1.05h.7l.6.05H7l1.35.05h.25l.2.05.25.05.45.05h.2l.15.05H10l.15.05h.15l.1.05.25.05.2.05.15.05h.35l.25.05.2.05.1.05.05.1.05.05.05.1v.2l-.05.1-.05.1-.05.05-.1.1-.05.05h-.15l-.25.05H11l-.15.05-.2.05-.25.05h-.1l-.15.05H10l-.15.05H9.7l-.2.05-.45.05-.25.05-.2.05h-.25L7 11.7h-.6l-.6.05h-.7L3 11.8H1.95l-.85.05H0V9.5zm35.4 20.35h.85l.3.05h.15l.15.05.2.1.15.1.15.05.15.1.1.05.1.1.05.05.05.1.05.05.05.1.05.1.05.05.05.1v.05l.05.1v.05l.05.1.05.05v.1l.05.05v.4l-.05.1v.05l-.05.1-.05.05v.1l-.05.1v.05l-.05.1-.05.05-.05.1-.05.05-.05.1-.05.05-.1.1-.1.1-.1.05-.15.1-.15.05-.15.1-.15.05h-.05l-.1.05h-.15l-.3.05h-1.15l-.45-.05h-5.85l-.5-.05h-.25l-.15-.05-.25-.05-.2-.05-.15-.05-.1-.05h-.15l-.2-.05h-.25l-.25-.05h-.15l-.25-.05h-.2l-.55-.05h-5.1l-.2-.05h-.5l-.35-.05h-.25l-.45-.05h-.25l-.35-.05h-.6l-2.9-.05h-.6l-.45-.05H12l-.35-.05h-.3l-.2-.05h-.25l-.5-.05h-.2l-.15-.05H4.4l-.2-.05H2.3l-.2-.05h-.2l-.2-.05h-.15l-.1-.05H1.3l-.2-.05-.1-.05H.85l-.15-.05H.35L.1 32.1H0v-.8h.1l.25-.05H.7l.15-.05H1l.1-.05h.2l.15-.05h.1l.15-.05h.2l.2-.05h.2l1.9-.05h.2l.15-.05H7.5l.8.05h.8l.95-.05h.15l.2-.05h.5l.25-.05.2-.05h.3l.35-.05h1.25l.45-.05h.6l2.9-.05h.6l.35-.05h.25l.45-.05h.25l.35-.05h.5l.2-.05h5.65l.2-.05h.25l.15-.05h.25l.25-.05h.2l.15-.05.15-.05.25-.05.15-.1h.15l.15-.05h.25l.5-.05h5.85l.45-.05z"/><path d="M.9 19.45h1.95l.45.05h1l.75.05h.35l.75.05h.7l.45.05.3.05h.5l.6.05H9l.5.05h.4l.35.05h.25l.3.05h.4l.45.05H12l.45.05h.25l.5.05h.25l.15.05h.25l.15.05h.15l.4.05h.35l.45.05h.45l.35.05h.25l.25.05H17l.25.05.1.05h.2l.15.05h.15l.15.05.25.1.15.05.15.1.1.05.15.1.05.05.1.1.05.1.05.05.05.1.05.05.05.1.05.05v.1l.05.05v.5l-.05.05v.1l-.05.05-.05.1-.05.05-.05.1-.1.1-.1.05-.15.1-.15.05-.25.1-.2.05-.15.05-.1.05h-.15l-.15.05h-.2l-.3.05h-.15l-.25.05h-.25l-.25.05-.35.05h-.45l-.45.05h-.35l-.4.05H14l-.15.05h-.25l-.15.05h-.25l-.5.05h-.25l-.45.05h-.35l-.45.05h-.4l-.3.05h-.25l-.35.05h-.4l-.5.05h-.3l-.6.05h-.5l-.3.05h-.45l-.7.05-.75.05h-.35l-.75.05h-1l-.45.05H.6l-.15-.05h-.2l-.15-.05H0V19.6l.1-.05h.05l.1-.05h.2l.15-.05z"/><path d="M47.45 7.6q2.55.4 4.6 1.8l1.15.9.55-.25 1.35-.4 1.25.15q.65.3.75 1l.1 1.2-.05.75-.45 1.65-.75 1.9v1L67.7 15q2.35-.3 3.45.05 1.15.35 1.95 1.3.8 1 .85 2.2 0 1.2-.75 2.25-.65 1.05-1.7 1.6-2.2 1.1-4.6 0l-1.75-.85-2.05-.1-7.8.5-.6 1.45q-1.35 2.85-3.95 4.1-1.55.8-4.35 1-4.05.4-6.15-.7-1.15-.6-2.05-1.6l-.05-.05-2.55 1.15q-3.3 1.3-6.7 1.6l.15.35.5.15 2.95.3.55-.1.25-.25q.75-1.05 2.05-1.4 1.3-.3 2.45.35l1.1 1.1q.75 1.45-.15 2.95-.75 1.3-2.4 1.85l-3.1.45-2.9-.15-2.25-.6q-1.3-.6-2.25-1.6-1.2-1.15-1.3-2.25-.05-.6.2-1.25l-1.8-.25q-4.5-.85-6-3.45l-6.95.95-8.65.9-1.35.3v-5.1l.95-.05q7.7-.15 15.25.25l.05-.15q-.1-1.5.6-2.7l.75-.95-.65-.55-1.7-1.85q-1.85-1.9-4.45-2-2.75-.1-4.7 1.7l-1.85 2.1Q2.4 19.85 0 20.3V15l1.1-.95.9-1.15q2.2-2.7 6.9-3.4 2.05-.35 3.6 0 1.2.3 2.9 1.2 2.35 1.4 3 2.05.85.75 2.3 2.9l.3.45.85-.3q1.7-.3 3.85.65l3.65 1.6 4.75.5h.95q-.05-2.7 1.05-5l-.05-.15q-.3-1.35-.15-2.9l.4-1.8.3-.85q.2-.55.9-.95l1.35-.15q.35.1 1.15.65l1.2 1q1.45-.7 3.05-.95zm7.3 10.9q-.7-1.05-1.95-1.2-.45 1-1.45 1.65l-.6.3-1.55.4q-.3 1.2.3 2.25.75 1.15 1.9 1.45 1.35.3 2.45-.4Q55 22.3 55.3 20.9q.25-1.3-.55-2.4M43.4 23.95l.85.25 1.55.05 1.7-.45.45-.2.15-.4-.3-.25h-.45l-.45.05v-.1l.05-.55-.1-.65-.35-.2-.1.05h-.1l-.25.2-.15.55-.15.5-.8-.3-.95-.4q-.75 0-1 .7t.4 1.15m-4.6-7.35-.3.5-.4 1.45q0 1.85 1.7 2.8l1.6.35q.9-.05 1.6-.5 1.2-.8 1.4-2.1l-1.6-1.3-.45-.75V15.9l.05-.3-1.55-.15q-.9.15-1.55.7z"/><path fill="#fff" d="m38.8 16.6.5-.45q.65-.55 1.55-.7l1.55.15-.05.3v1.15l.45.75 1.6 1.3q-.2 1.3-1.4 2.1-.7.45-1.6.5l-1.6-.35q-1.7-.95-1.7-2.8l.4-1.45zm4.6 7.35q-.65-.45-.4-1.15t1-.7l.95.4.8.3.15-.5.15-.55.25-.2h.1l.1-.05.35.2.1.65-.05.55v.1l.45-.05h.45l.3.25-.15.4-.45.2-1.7.45-1.55-.05zm11.35-5.45q.8 1.1.55 2.4-.3 1.4-1.45 2.05-1.1.7-2.45.4-1.15-.3-1.9-1.45-.6-1.05-.3-2.25l1.55-.4.6-.3q1-.65 1.45-1.65 1.25.15 1.95 1.2"/></g></svg>