<svg xmlns="http://www.w3.org/2000/svg" xmlns:ffdec="https://www.free-decompiler.com/flash" ffdec:objectType="shape" width="76.15" height="39.45"><g fill-rule="evenodd"><path d="M2.55 1.75q4.2-.55 8.25.75 1.45.5 2 1.2.4.5.4 1.15.05.7-.4 1.05-.45.4-1.45.5L8.2 6.3l-3.1.25q-.65 9.25-.9 18.5 0 3-.5 4.7-.4 1.55-1.45 1.75-.6.15-1.25-.4l-.9-1.15-.1-.2V2.2z"/><path fill="#fff" d="m66.2 10.35.75-.2q.65 0 1.15.45.55.45.6 1.1.1.65-.3 1.2l-1.05.7-1.2-.15q-.6-.35-.85-.95-.2-.6.05-1.25t.85-.9m4.45 4.35.15.5.05.35q-.1.4-.5.4-.45-.1-.45-.5v-.3l-.1-.2-.4.25-.5.4-.6.1q-.45-.2-.35-.7.15-.45.65-.55h.55l.45-.1-.25-.7-.15-.5.2-.35h.45l.3.3.25.85.4-.2.4-.1.35.15-.05.35-.9.4zM56.75 26l-1.5 1.25-.1.05-.1-.1-1.3-.85-2.05-1.4q-.95-.6-1.8-.85-.2-1 .25-1.9.2-.45.9-1.2l.8-.7q.45-.4 1.1-.5v.15l.3 1.4.5 1.05 1.7 2.15.85.75.75.3zm-2.7 5.25-.5.3-.85.35q-.25-.4-.7-.55l-.75-.25.05-.3.7-1.8.3-.7.3.3.4.3 1.05 1.45q.2.55 0 .9m-7.25-1.3.45-2.7.1-.35.05-.05h1.4l1 .3 1.05.3-.4.7-1.1 2.35-1.55-.4zm-3.75-.8q.15-.5.9-1.05.8-.55 1.65-.85v.05l-.05 1.6-.15.35-.05.6-2.3.25q-.2-.5 0-.95"/><path fill="#767676" d="M66.9 8.9q.95-.8 2.3-1l-.05-.2-.35-.2q-1.3-.45-2-1.65l-.4-1.1-1.15.2-.7.85-.45.95-.1.65-.6 1.2-.7.75-.85.5q-1.15.35-1.9-.3l-.15-.35.2-.15 1.3-.5.8-.7.65-1.45v-.75q0-.75.95-2l.55-.65.7-.7.95-.15h.9v-.1l.85-1.2q.5-.35 1.15-.6L71.05 0q2.8.25 4 2.45l.45.95q1 2.6.45 4.8-.5 1.9-1.75 2.9v.1q.7 2.2-.8 4.1-.75.95-1.7 1.4l.1 1.3q-.1 1.05-.7 1.65-1 .9-2.5.35l-1-.7q-.7-.85-.35-1.95l.25-.6-.3-.1q-.85-.4-1.35-1.1l-1.15.35q-.85.05-1.55-.5-.75-.5-1-1.3-.2-.8.15-1.65t1.05-1.25q.65-.4 1.4-.35l.6.1.5-.9q.6-.85 1.05-1.15m3.75 5.8-.05-.15.9-.4.05-.35-.35-.15-.4.1-.4.2-.25-.85-.3-.3h-.45l-.2.35.15.5.25.7-.45.1h-.55q-.5.1-.65.55-.1.5.35.7l.6-.1.5-.4.4-.25.1.2v.3q0 .4.45.5.4 0 .5-.4l-.05-.35zm-4.45-4.35q-.6.25-.85.9t-.05 1.25q.25.6.85.95l1.2.15 1.05-.7q.4-.55.3-1.2-.05-.65-.6-1.1-.5-.45-1.15-.45zm-3.85 9.95-.65-.1-.55-.35q-.1-.3.2-.7l.45-.5.65-.3q1.05-.25 1.85 0 1.1.45 1.15 1.4 0 .9-.75 1.25l-1.5-.1zm-5.6-10.55L56.9 9q.35-.7 1.1-.6.75 0 1 .7v1.1l-.3 1-.6.8-.3.35-.3.25q-.45.2-.55-.25l-.1-.85zM55.4 13q3.2 2.6 3.85 6.05.25 1.15.15 2.55l.05.2.2.7.05.95-.3 1.3-.75.7q-.55 2.1-1.65 3.85-1.8 2.95-4.5 4.5-4.6 2.35-10.5.75l-1.85-.65-.3.65L38.6 36l-1.4 1.2-1.35.75q-.75.25-1.45 0l-1.25-.85-.3-.5-.3.05q0 .95-.75 1.5-.8.65-2.95.55l-7.75.25-1.8.2-.95.2-1 .1q-1.6 0-2.35-1.45-.3-.7-.2-1.45.15-.8.65-1.3.7-.65 2.05-.9l.35-.05.05-.95q.2-1 .9-1.75l1.2-1.1q.85-.6 1.8-.55l2.3-21.1-1.6.65-1.6 1.15-1.6 1.15q-1 .65-1.7.35-1.1-.45-.9-2.15.2-2.05 2.1-3.5 1.4-1.1 3.85-1.8 3.1-.85 6.65-1l3.2.3q1.45.3 2.55.95l.15.1q3.15 1.05 5.7 3.2l1.9 1.6 1.75-.4.65.1.1-.2q.85-1.8 1.45-2.3 1.15-1.1 2.4-.6l.95.8 1.6 1.65 1.95 3zm-1.35 18.25q.2-.35 0-.9L53 28.9l-.4-.3-.3-.3-.3.7-.7 1.8-.05.3.75.25q.45.15.7.55l.85-.35zm2.7-5.25.3-.4-.75-.3-.85-.75-1.7-2.15-.5-1.05-.3-1.4v-.15q-.65.1-1.1.5l-.8.7q-.7.75-.9 1.2-.45.9-.25 1.9.85.25 1.8.85l2.05 1.4 1.3.85.1.1.1-.05zm5.5 8H58.6v-.05l-.1-.05-.2-.05-.15-.05-.1-.1-.15-.05-.05-.1-.1-.05-.05-.1-.05-.1-.05-.05-.05-.1-.05-.05-.05-.1v-.05l-.05-.1v-.1l-.05-.05v-.9l.05-.05v-.1l.05-.1v-.05l.05-.1.05-.05.05-.1.05-.05.05-.1.05-.1.1-.05.05-.1.15-.05.1-.1.15-.05.2-.05.1-.05v-.05h3.65l.05-.55q.15-.7.85-.85.55-.2 1.2.25l.3.25 1.8 1.4.65.5.35.75v.15l-.35.6-.65.5-1.8 1.4-.3.25q-.65.45-1.2.25-.7-.15-.85-.85zm-19.2-4.85q-.2.45 0 .95l2.3-.25.05-.6.15-.35.05-1.6v-.05q-.85.3-1.65.85-.75.55-.9 1.05m3.75.8 1 .15 1.55.4 1.1-2.35.4-.7-1.05-.3-1-.3h-1.4l-.05.05-.1.35z"/><path d="m47.75 6.35.7 1.2q.75 2.05-.4 3.8l-.55.7-.05.1q1.95 2 1.85 4.45l-.15 1.15-.25 1.2q-.5 1.9-2.45 2.8l-1.75.45h-.5l-.4.4-1.35.8q-.8.55-1 1.25v1.15l-.15 1.6-.3.65-.6.95-.65.45-1 .4-.45.05-.3-.35.15-.2.65-.45q1.05-.7 1.2-1.95v-.3l-.2-.35-.2-1.3q0-1.5.3-2.15l.8-1 .9-.85-.55-.65-.5-.9-.1-1.45q.2-1.75.6-2.4l.9-1.1.65-.95h-.05l-1-.4q-.65-.35-1.45-1.25l-.55-.75-2.1.05q-1.1-.45-1.5-1.65l-.1-.5v-.5l.2-1.2.45-.7q.85-.95 2.15-.85l.8.2.4.25.4.15.1.05V6.4l.85-.75q.6-.45 1.4-.6v-.4q.05-.8.6-1.3 1.1-1.1 2.8-.5.9.4 1.2 1.25.35.7 0 1.6h-.05l-1.6.05q-.75.4-.85 1.35-.05.55.35 1.1.4.5.95.6l1.15-.2.75-.85q.2-.55-.05-1.15zM40.5 10.6q.3.4.85.55l.3-.7q.45-.65 1.45-1.1l.5-.15-.2-.5q-.35-.6-.85-.8l-1.05-.05.05.15q.15 1.15-.55 2l-.55.5zm-5.35-7.05.4.75q.2.65.05 1.35l-.5 1.1-.85 1.45q-.3.1-.45-.25-.15-.2-.15-.5L33.2 5.4l-.2-.45q-.35-1 .5-1.6l.85-.15q.5.05.8.35m-.55 7.4q3.2 2.6 3.85 6.05.3 1.5 0 3.5l.1.4v1.25l-.6.95q-.6 2.25-1.75 4.15-1.8 2.95-4.5 4.5-4.6 2.35-10.45.75l-1.8-.6q-.4 1.3-1.45 2.7-1.3 1.85-2.6 2.5l-1.7.65-3.8.95-3.85-.2q-1.35-.55-2-.75l-1.8-.7Q.8 36.15.7 34.45l.25-1.3H.4l3.3-30.3 9.25-.3Q17 3.6 20.1 6.2L22 7.8l1.8-.4.65.1.1-.2q.8-1.8 1.4-2.3 1.15-1.1 2.4-.55l.95.75 1.6 1.65 2 3zM33.25 29.2q.2-.35 0-.9l-1.05-1.45-.4-.3-.25-.3-.3.7-.7 1.8-.15 1.05.4.1h.9l1.05-.4zm-25 4.8.05.55q.15.7.85.85.55.2 1.2-.25l.3-.25 1.8-1.4.65-.5.35-.6v-.15l-.35-.75-.65-.5-1.8-1.4-.3-.25q-.65-.45-1.2-.25-.7.15-.85.85l-.05.55H4.6v.05l-.1.05-.2.05-.15.05-.1.1-.15.05-.05.1-.1.05-.05.1-.05.1-.05.05-.05.1-.05.05-.05.1v.05l-.05.1v.1l-.05.05v.9l.05.05v.1l.05.1V33l.05.1.05.05.05.1.05.05.05.1.05.1.1.05.05.1.15.05.1.1.15.05.2.05.1.05V34h3.65M36.5 23.25l.15-.25-.35-.4q-.35-.55-.55-1.6-.3-1.6-.2-2.6l-.25-.1q-1.05-.65-2.15-.7-1.15-.05-2.05.65l-.85.7q-.7.75-.9 1.2-.55 1.15-.05 2.65.55.1 1.3.5l1 .55.75.5.9.65.45.5.75-.3 1.5-1.25zm-.35 10.45L35 33.6q-.6-.35-.6-.95t.45-1.3l.8-1.1.3-.55q.3-.3.55-.2l.35.4q.4 1 .3 2.05-.1 1.4-1 1.75M24.4 29.05h.05l-.05-.25.2-1.6.15-.35.05-1.6v-.05l-1.65.85q-.7.55-.85 1.05-.2.45-.05 1l.65.75zm3.25.35h.4l1.6-3.3.45-.75-.8-.25-1.3-.3h-1.4l-.05.05-.1.35-.4 2.45-.1.35-.05.35v.6l.05.3.55.05z"/><path fill="#fff" d="m47.2 5.7.55.65.1.25q.25.6.05 1.15l-.75.85-1.15.2q-.55-.1-.95-.6-.4-.55-.35-1.1.1-.95.85-1.35l1.6-.05zm-6.7 4.9-.05-.1.55-.5q.7-.85.55-2l-.05-.15 1.05.05q.5.2.85.8l.2.5-.5.15q-1 .45-1.45 1.1l-.3.7q-.55-.15-.85-.55m-4 12.65-.55.7-1.5 1.25-.75.3-.45-.5-.9-.65-.75-.5-1-.55q-.75-.4-1.3-.5-.5-1.5.05-2.65.2-.45.9-1.2l.85-.7q.9-.7 2.05-.65 1.1.05 2.15.7l.25.1q-.1 1 .2 2.6.2 1.05.55 1.6l.35.4zM8.25 34H4.6v-.05l-.1-.05-.2-.05-.15-.05-.1-.1-.15-.05-.05-.1-.1-.05-.05-.1-.05-.1-.05-.05-.05-.1-.05-.05-.05-.1v-.05l-.05-.1v-.1l-.05-.05v-.9l.05-.05v-.1l.05-.1v-.05l.05-.1.05-.05.05-.1.05-.05.05-.1.05-.1.1-.05.05-.1.15-.05.1-.1.15-.05.2-.05.1-.05v-.05h3.65l.05-.55q.15-.7.85-.85.55-.2 1.2.25l.3.25 1.8 1.4.65.5.35.75v.15l-.35.6-.65.5-1.8 1.4-.3.25q-.65.45-1.2.25-.7-.15-.85-.85zm25-4.8-.5.3-1.05.4h-.9l-.4-.1.15-1.05.7-1.8.3-.7.25.3.4.3 1.05 1.45q.2.55 0 .9m-5.6.2-1.15-.1-.55-.05-.05-.3v-.6l.05-.35.1-.35.4-2.45.1-.35.05-.05H28l1.3.3.8.25-.45.75-1.6 3.3zm-3.25-.35-1.5-.2-.65-.75q-.15-.55.05-1 .15-.5.85-1.05l1.65-.85v.05l-.05 1.6-.15.35-.2 1.6.05.25z"/></g></svg>