<svg xmlns="http://www.w3.org/2000/svg" xmlns:ffdec="https://www.free-decompiler.com/flash" ffdec:objectType="shape" width="77.8" height="39.7"><g fill-rule="evenodd"><path fill="#717171" d="M17.4 6.85 14.75 4.5l-.6-.5-.85-.45q-1-.65-.9-1.8.1-1.2 1.15-1.6t2 .35l.75 1 1.55 2.7.85 1.75.1.7-.35.4-.55.1zm43 0-.5.3-.55-.1-.35-.4.1-.7.85-1.75 1.55-2.7.75-1q.95-.75 2-.35t1.15 1.6q.1 1.15-.9 1.8-.6.25-.85.45l-.6.5zm10.3 9.3-3.2-.1h-.55l-.2-.25q-.05-.2.05-.35l.4-.25 2.4-.85 2.7-.75.4-.05 1.4-.3 2.25-.4q1.05.25 1.35 1.2.35 1-.3 1.8-.45.6-1.35.85l-1.6.15-3.1-.55zm-7.85-2.05-1 .1q-.5-.3-.4-1 .15-.5.7-.9l1.05-.6 1.45-1.15 3.55-3.4 3.7-3.3q1.15-.95 2-1.25 1.35-.45 2.3.3.65.45.7 1.3.1.85-.35 1.55l-1.3 1.05-1.55.95-6.2 3.75-1.55.85-1.5.95zM20.5 18.25l1.6-1.05 1.75-.45 1.85-.15 2.75-.8 4.55-2 2.35-1.5.8-1 .9-.95q.7-.5 1.8-.7l2.05-.2 4.2-.65 4.15-.85 2.3.15q.8.35 1.1 1.3t-.1 1.7-1.4 1.2l-1.85.6q-7.2 1.75-18.1 6.35l-2.7 1 .3.2 1.35.1q4.75-.6 10.9-2.55l10.65-3.6.9-.25.65-.3q1.55-.7 2.45-.5 1.35.25 1.6 1.6.1.9-.35 1.55l.1.15 1.4 2.8.3.8.05.05.25.2.35.15q.8.3 1.15 1.05.35.65.1 1.5l-.2.6-1.55 1.05-.85.15-.55-.2-.85-.5-.3.05-8 2-8.1 1.4 7-.25 6.9-.85 3-.1q1 .35 1.5 1.45.45 1.15-.05 2.1-.55.95-2.25 1.75-1.6.8-2.8 1.35 1.85-.2 4 .05 1.65.2 2.5.65 1.4.85 1.4 2.1.05.7-.4 1.35l-1.1 1q-.9.5-2.9.7l-13.55.65-13.6-.3-4.85-.3-5.3-.4-2.95.2q-1.75 0-2.8-.9-.6-.5-.75-1.25-.25-.8.1-1.45.4-.75 1.75-1.35 2.4-1.05 4.95-1.3l1.85.1.35.15-.15-.95-.05-1.4q-.2-.5-.8-.85l-1.1-.65-.45-.4-1.15.15q-1.15-.15-1.55-1.25-.2-.55-.1-1.7l.45-3.05.5-1.75.65-1.4.25-.2q.05-.4.55-.7zm-13.4-2.1-.65.15-3.1.55-1.6-.15q-.9-.25-1.35-.85-.65-.8-.3-1.8.3-.95 1.35-1.2l2.25.4 1.4.3.4.05q1.1.2 2.7.75l2.4.85q.35.15.4.25l.05.35-.2.25h-.55zm7.85-2.05-1.6-.8-1.5-.95-1.55-.85-6.2-3.75-1.55-.95-1.3-1.05Q.8 5.05.9 4.2q.05-.85.7-1.3.95-.75 2.3-.3l2 1.25 3.7 3.3 3.55 3.4 1.45 1.15 1.05.6.7.9q.1.7-.4 1zm16.9 20.25-4.2-.15-.35.15 6.15.3z"/><path d="M28.5 10.4q2.25-.55 3.05-1.2l1.4-2 1.3-2q1-.9 2.95-1.2l3.65-.4 3.65-.45 1.35-.25 1.3.2q.7.35 1.45 1.85.3.65.65.9l.95.15h2.85l2.1.05q1.15.4 2.1 2.5L60 15.6q1.65 4.25 3 6.9.65 1.15.6 1.9-.1.7-1 1.7-2.45 2.65-5.9 7.05-1.35 1.7-1.8 2.75l-.45.95-.6.8q-.7.6-2.5.5L33.6 37.5h-5.15l-4.45.55q-1.8.2-2.4-.45l-.4-.95-.25-1.1q-.25-.65-.9-1.4l-4.8-5.25-1.8-1.8q-.9-1.1-1.1-2.2-.15-1 .35-3.1l.85-3.3q.35-1.5.9-2.25.8-1.05 2.9-1.8l6-2.4q3.4-1.2 5.15-1.65m8.25-2q-.5.3-1.05.95-1.3 2.05-2.2 2.9-.8.8-2.15 1.35l-2.45.9q-5.65 1.8-10.55 3.9l1.3.5.95.1.6.25 2.2.65.45.2.05.45-.35.1-.4-.05-.5.1-.45-.1-.4.05-.35-.05H17.4l-.55 2.45-.15 1q.15.7 1.3 1.75l3.25 3.3 2.95 3.55.85.8 1.55.25 23.3-.1 1.1-.2.65-.65 5.25-6.55-3.1.2-1.3-.05-1.55.3-1.65-.05-.45.05-.1-.25.1-.25q.2-.2.55-.2l9.25-2.5q-2.45-5.6-4.5-11.5l-20.4 7.35q-3.8 1.4-5.8 1.65l-.5-.05q-.25-.1-.2-.3l.25-.3q1.05-.7 4.15-1.8 2.9-1 7.85-3.35l10.7-5h-.85q-2.7-.2-3.45-1.9l-.5-.75-.75-.15-6.15.6zM45 19.7l.6-.6q1.65-1.25 3.45-.85.9.2 1.6.85.75.65.95 1.55l.1 1-.45 1.65q-.65 1.3-1.9 1.9l-2.7.1-.85-.45-.55-.5q-.6-.65-.8-2.1-.2-1.6.55-2.55m-21 8.95q-1.15-.45-1.7-1.5-.65-1.2-.25-2.5.25-.8 1.05-1.5 1-.9 2.3-1 1.4-.1 2.4.75l.4.4q.65.75.7 1.8.1 1.1-.4 1.95l-.65.85q-.75.75-1.85.95zm6.75-3.75.2-.45q.4-.6.8-.55l.4.2.1.4-.25.85v.35l.25.2 1.2.35 1-.25.7-.45.25-.55q.3-.55.8-.55l.65-.05q.6.2.8.8l.1.2.15.05 1.15-.2q.65-.2.85-.75l.05-.35-.05-.9V23q0-.6.6-.7l.65.35.45.35.35 1v1.1l-.45.95-.25.35q-.5.5-1.6.9l-.8.15v.45q0 1.1-.95 1.95l-1 .5-1.8-.15q-.55-.3-.9-.95-.3-.45-.3-.95h-.5l-.9-.1-.55-.3-.45-.3q-.65-.6-.75-1.55v-.45l-.05-.35z"/></g></svg>