<svg xmlns="http://www.w3.org/2000/svg" xmlns:ffdec="https://www.free-decompiler.com/flash" ffdec:objectType="shape" width="77.8" height="42.35"><path fill="#999" fill-rule="evenodd" d="M19.4.5h16.4L34.1 2l-2 1.55q-2.4 1.4-5.55.9-2.45-.3-5.25-2.15-1.4-.9-1.9-1.8m19.95 0H57.7q-.95 1.2-1.15 2.55-.15 1.05.3 2.85.35 1.8 1.15 2.85.95 1.25 2.95 1.95l6.2.2 2.4-.35q.9.25 1.75 1.45 1.9 2.75 1.8 6.45 0 2.9-1.3 6.65-1.2 3.4-2.95 5.5l-.75.45-2.35.9-1.2.1-.3-.4q-.55-.5-1.25-.55l-.95.05h-.9q-.6-.15-1.2-1-4.05-5.3-4.4-13.05l-.25-5.3q-.45-3.2-2.15-4.75-1-.95-2.35-1.2-1.45-.3-2.55.3-1.45.8-2.05 2.65-.45 1.4-.35 3.4.05 5.3 2.2 11.8l1.15 4.35q.35 2.65-.65 4.4-.4.75-.95.85l-.95-.2q-.9-.4-1.25-.75-.4-.4-.6-1.4-.7-2.85-.5-8.15l.35-8.1.05-2.9q-.15-1.65-.9-2.7-1-1.45-2.8-2-3.15-.95-5.75 1-1.6 1.25-2.85 3.9-2 4.45-2.85 12.35l-.8 4.45q-.9 2.55-2.6 3.65-1 .65-2.15.7-1.25.1-2.15-.5-.9-.65-.55-1.2.25-.4 1.4-.3l2.2-.45 1.8-1.45q1.25-1.6 1.7-4.25.55-3.15-.2-6.35-.7-3.2-2.55-5.8Q23.5 10 20.75 9.6l-.4-.05-1.1-.65q-1.6-.8-3.9-1.05-2.85-.25-5.1.5l-2.8 1.5q-3.8 2.75-5.15 7.4-.9 2.95-.3 6 .6 3.2 2.6 5.35 1.85 1.95 3.85 1.95l1.25-.3q.6-.4.65-.95.05-.75-.5-1.3l-1.15-.85q-1.4-1.05-2.2-2.6-.8-1.6-.85-3.3-.05-1.25.5-3.2 1.3-4.3 4.55-5.95 1.9-.95 4.85-.95 2.2.05 3.7.75l.65.55q2.15 1.75 3.35 3.7 1.3 2.15 1.65 4.65.35 2.55-.4 4.95-.4 1.3-1.15 1.6L22 27.4q-1.85-.05-3.35 1.25-1.55 1.3-1.7 3.15-.1 1.6.8 3.05.85 1.35 2.3 2.1 2.8 1.5 6.2.3 2.2-.75 3.9-2.45 1.7-1.75 2.45-4l.7-3.5 1-7q.75-3.95 2.1-6.7 1.15-2.05 2.45-2.35 1.05-.2 1.55.55.3.4.3 1.55L40.25 22q-.2 5.05.25 8.65.4 3.15 1.6 4.65 1.05 1.25 2.95 1.95 2.05.8 3.55.4 2.65-.65 3.95-3.95.7-1.7.75-3.6.05-1.75-.55-4.1l-1.2-4.05q-1.25-4.25-1.65-8.8-.1-2.2.3-3.2.5.05.8.85.5 1.35.5 4.7.2 10.05 4.65 16.35 2.05 2.8 4.3 3.3l.55.25 1.7.3q1.9.15 3.6-.05 1.95-.3 3.35-1.3 1.1-.75 2.1-2l1-1.5q1.1-1.5 1.95-3.6 2.25-5.3 2.1-9.75-.1-5.6-3.45-9.25-1.55-1.55-2.95-1.9l-3.4.2-3.4.4q-2.05-.2-2.7-1.75-.5-1.2.25-2.2l.7-.75.65-.75.3-1h14.5v41.35H16.35l.35-.65q.4-1.1-.1-2.45l-1.35-2.05q-1.7-2.1-3.55-2.65l-1.5-.3-5.15.35q-2 .55-3.35 1.8V.5h15.05q-.15 1.15.6 2.4.7 1.15 2.2 2.3l2.4 1.55 1.6.8q2.8 1.15 6 .7 3.15-.4 5.55-2.3l2.85-2.65 1.2-1.5q.35-.75.2-1.3M14.8 41.85H1.7V40.5l.9-.4 1.2-1.05q1.4-1.25 3.25-1.55l2-.05 2 .35 1.4.95q1.4 1.2 1.8 2l.4.85zm-5.95-17.5.2.45.9.95 1.8.25-.25.85.1 1.3q.1.8.6 1.1l1.15-.1q.5-.35.65-1l.1-1.2-.1-.8q-.15-.5-.6-.7l.3-.15 1.45-.8q1.4-1 1.7-2.75.3-1.7-.65-3.15l-.95-1.15-1.4-1.2q-1.8-1.15-3.7-.25l-.8.45q-1.75 1.25-2.1 2.9l-.1 1.25.05 1.15q.2 1.15 1.25 2.2zm57.75 5.5q.8-.25 1.05-.8l.1-.75V27q0-1.1-.35-1.45-.3-.35-.8-.4t-.85.3q-.3.25-.5 1l-.25 2q0 .9.4 1.25zM69.8 21q.2-.6 0-1.15.9-.55.9-1.45.1-1.1-.85-1.6l-.45-.3-.05-.65q0-.9-.55-1.55-.7-.7-1.5-.7l-.85.15q-.95.3-1.3 1.2l-.3-.15q-1.3-.3-2.15.8-.35.5-.35 1.15.05.65.4 1.15t1.35 1l-.25.25-.95.8q-.55.8-.05 1.55.65.85 1.5.4l.75-.5.3-.05.3.15 1.2.75 1.35.15q1.2-.15 1.55-1.4"/><path fill="#fff" fill-rule="evenodd" d="m35.8.5.05-.05h3.45l.05.05q.15.55-.2 1.3l-1.2 1.5-2.85 2.65q-2.4 1.9-5.55 2.3-3.2.45-6-.7l-1.6-.8-2.4-1.55q-1.5-1.15-2.2-2.3-.75-1.25-.6-2.4V.45h2.6l.05.05q.5.9 1.9 1.8 2.8 1.85 5.25 2.15 3.15.5 5.55-.9l2-1.55zm21.9 0 .05-.05h5.05V.5l-.3 1-.65.75-.7.75q-.75 1-.25 2.2.65 1.55 2.7 1.75l3.4-.4 3.4-.2q1.4.35 2.95 1.9 3.35 3.65 3.45 9.25.15 4.45-2.1 9.75-.85 2.1-1.95 3.6l-1 1.5q-1 1.25-2.1 2-1.4 1-3.35 1.3-1.7.2-3.6.05l-1.7-.3-.55-.25q-2.25-.5-4.3-3.3-4.45-6.3-4.65-16.35 0-3.35-.5-4.7-.3-.8-.8-.85-.4 1-.3 3.2.4 4.55 1.65 8.8l1.2 4.05q.6 2.35.55 4.1-.05 1.9-.75 3.6-1.3 3.3-3.95 3.95-1.5.4-3.55-.4-1.9-.7-2.95-1.95-1.2-1.5-1.6-4.65-.45-3.6-.25-8.65l.45-8.65q0-1.15-.3-1.55-.5-.75-1.55-.55-1.3.3-2.45 2.35-1.35 2.75-2.1 6.7l-1 7-.7 3.5q-.75 2.25-2.45 4-1.7 1.7-3.9 2.45-3.4 1.2-6.2-.3-1.45-.75-2.3-2.1-.9-1.45-.8-3.05.15-1.85 1.7-3.15 1.5-1.3 3.35-1.25l1.35-.05q.75-.3 1.15-1.6.75-2.4.4-4.95-.35-2.5-1.65-4.65-1.2-1.95-3.35-3.7l-.65-.55q-1.5-.7-3.7-.75-2.95 0-4.85.95-3.25 1.65-4.55 5.95-.55 1.95-.5 3.2.05 1.7.85 3.3.8 1.55 2.2 2.6l1.15.85q.55.55.5 1.3-.05.55-.65.95l-1.25.3q-2 0-3.85-1.95-2-2.15-2.6-5.35-.6-3.05.3-6 1.35-4.65 5.15-7.4l2.8-1.5q2.25-.75 5.1-.5 2.3.25 3.9 1.05l1.1.65.4.05q2.75.4 4.9 3.55 1.85 2.6 2.55 5.8.75 3.2.2 6.35-.45 2.65-1.7 4.25L24.9 31l-2.2.45q-1.15-.1-1.4.3-.35.55.55 1.2.9.6 2.15.5 1.15-.05 2.15-.7 1.7-1.1 2.6-3.65l.8-4.45q.85-7.9 2.85-12.35 1.25-2.65 2.85-3.9 2.6-1.95 5.75-1 1.8.55 2.8 2 .75 1.05.9 2.7l-.05 2.9-.35 8.1q-.2 5.3.5 8.15.2 1 .6 1.4.35.35 1.25.75l.95.2q.55-.1.95-.85 1-1.75.65-4.4L48.05 24q-2.15-6.5-2.2-11.8-.1-2 .35-3.4.6-1.85 2.05-2.65 1.1-.6 2.55-.3 1.35.25 2.35 1.2 1.7 1.55 2.15 4.75l.25 5.3q.35 7.75 4.4 13.05.6.85 1.2 1h.9l.95-.05q.7.05 1.25.55l.3.4 1.2-.1 2.35-.9.75-.45q1.75-2.1 2.95-5.5 1.3-3.75 1.3-6.65.1-3.7-1.8-6.45-.85-1.2-1.75-1.45l-2.4.35-6.2-.2q-2-.7-2.95-1.95-.8-1.05-1.15-2.85-.45-1.8-.3-2.85.2-1.35 1.15-2.55M16.35 41.85l-.15.15-.85.2-.55-.35-.15-.25-.4-.85q-.4-.8-1.8-2l-1.4-.95-2-.35-2 .05q-1.85.3-3.25 1.55L2.6 40.1l-.9.4-.65-.05Q0 40.15 0 38.8q0-.9.8-1.9l.9-1q1.35-1.25 3.35-1.8l5.15-.35 1.5.3q1.85.55 3.55 2.65l1.35 2.05q.5 1.35.1 2.45zM69.8 21q-.35 1.25-1.55 1.4l-1.35-.15-1.2-.75-.3-.15-.3.05-.75.5q-.85.45-1.5-.4-.5-.75.05-1.55l.95-.8.25-.25q-1-.5-1.35-1t-.4-1.15q0-.65.35-1.15.85-1.1 2.15-.8l.3.15q.35-.9 1.3-1.2l.85-.15q.8 0 1.5.7.55.65.55 1.55l.05.65.45.3q.95.5.85 1.6 0 .9-.9 1.45.2.55 0 1.15m-3.2 8.85-1.2-.15q-.4-.35-.4-1.25l.25-2q.2-.75.5-1 .35-.35.85-.3t.8.4q.35.35.35 1.45v1.3l-.1.75q-.25.55-1.05.8m-57.75-5.5-.4-.4Q7.4 22.9 7.2 21.75l-.05-1.15.1-1.25q.35-1.65 2.1-2.9l.8-.45q1.9-.9 3.7.25l1.4 1.2.95 1.15q.95 1.45.65 3.15-.3 1.75-1.7 2.75l-1.45.8-.3.15q.45.2.6.7l.1.8-.1 1.2q-.15.65-.65 1l-1.15.1q-.5-.3-.6-1.1l-.1-1.3.25-.85-1.8-.25-.9-.95z"/><path fill="none" stroke="#8c5a5a" stroke-linecap="round" stroke-linejoin="round" d="M19.4.5h16.4m3.55 0H57.7m5.1 0h14.5v41.35H16.35m-1.55 0H1.7V40.5m0-4.6V.5h15.05"/><path fill-rule="evenodd" d="M60.15 14.3q.25-.85 1.05-1l1.15.05 1.95.4 1.4-2.6q.6-1 1.25-1.25.6-.15 1.1.25.55.4.75 1.55l.4 2.8.05.35.7.1 1.8.3.9.3q.5.35.65.8.15.5-.1.95l-.45.45v.1l-.35.45-1.55 1.5.25.85.75 1.95.15.5q.15.8-.4 1.3-.6.55-1.4.2l-.45-.3-.45-.05h-.15l.3 4.1.15 4.2-.05.5-.45.65-.8.2-.8-.05-2-.05-1.85-.3-.75-.55q-.25-.45-.15-1.55l1.4-8.05-1.45.35-1.55-.15-.5-.3q-.75-.35-.75-1.25 0-.35.35-1.05l1.05-1.85.2-.5-.15-.35-1.2-2.1q-.25-.7-.15-1.25l.1-.35zM66 15.9l-1 .55h-1.5l.1.2.45.55.65 1q.25.6-.1 1.2l-.6.7-.5.75.15-.05 1.05-.3.85-.4q.5-.25.9-.25l1.15.4 1.15.65-.15-.15-.1-.25-.2-1.4.1-.5q.15-.2.4-.3l.5-.2.2-.15.05-.1.4-.4-.65-.1q-1.05 0-1.5-.75l-.15-.35-.3-.8-.15-.6v-.1l-.05-.05v-.15L67 13.8l-.5.95zm-.55 15.25h1.7l-.15-.9-.15-4.45-.1-.4-.2-2.65-.75 6.4-.1.45v.45l-.15.45zM22.5 8.75h7.9l14.25.05h9.15l1.5.05h.4l.4.15.25.1.15.05.1.05.2.15.15.1.2.15.1.1.1.1.05.15.1.1.05.1.15.15v.1l.1.2v.1l.05.1v.05l.05.1v1.2l-.05.1-.05.2v.1l-.1.15v.1l-.15.1-.05.15-.1.1-.05.15-.05.05-.05.05-.1.1-.2.15-.05.05-.1.05-.2.1-.25.15-.25.1-.4.15h-.2l-.15.05h-2.8l-.05.1-.1.2-.05.1-.05.15-.05.25-.05.1-.05.1-.05.1-.05.1-.05.2-.05.1-.05.1-.1.2-.05.15-.05.1-.05.2-.05.1-.05.2-.05.1-.05.1-.1.25-.05.15-.1.15-.05.15-.05.15-.05.15-.05.1-.05.2-.05.1-.05.1-.1.2-.05.1-.05.2-.05.15-.05.1-.05.2-.1.15-.05.2-.05.1-.05.15-.1.15-.05.15-.05.15-.05.15-.05.1-.05.2-.05.1-.1.2-.05.1-.05.1-.05.2-.1.2-.05.15-.05.15-.05.1-.05.2-.05.1-.1.2-.05.1-.05.15-.05.15-.05.15-.1.15v.15l-.05.1-.1.2-.05.1-.1.25-.05.1-.05.15-.05.15-.05.15-.1.15v.15l-.05.1-.1.2-.05.1-.05.2-.05.1-.05.15-.1.15-.05.15-.05.2-.05.15-.05.1-.1.2-.05.1-.05.2-.05.1-.05.15-.1.15-.05.15-.05.1-.05.2-.05.1-.05.2-.05.1-.05.1 4.3-.05h3.9l.45.05h.05l.15.05.25.05H56l.15.1.15.05.25.1.2.15.1.1h.05l.15.15.1.15.1.1.1.15.1.1.05.1.05.15.05.05.1.05v.15l.05.1.05.1v.25l.05.1v.45l.05.1-.05.15v.2l-.05.15v.25l-.05.1-.05.1v.15l-.05.1-.1.1-.1.15-.05.1-.05.2-.2.1-.1.15-.05.05-.1.05-.1.1-.2.15-.25.1-.2.1-.25.1-.2.05-.15.05H47.2l-14.25-.05h-9.2l-1.5-.05h-.4l-.35-.15-.3-.1-.15-.05-.1-.05-.15-.15-.2-.1-.2-.15-.1-.1-.05-.1-.05-.15-.15-.1-.05-.15-.1-.1v-.1l-.05-.05-.1-.15v-.1l-.05-.15-.05-.1v-1.2l.05-.1.05-.2v-.1l.1-.1.05-.05v-.1l.1-.1.05-.15.15-.1.05-.15.05-.1.05-.05.05-.05.2-.15.2-.1.15-.1.25-.15.3-.1.35-.15.4-.05h4.55l-.05-.05v-.1l-.05-.15-.1-.1-.05-.15v-.35l-.05-.1v-.25l-.05-.1v-1.05l-.05-.1v-9.1l.05-.15v-2.5H22.5l-1.25-.4-.65-.4-.05-.05-.15-.1-.05-.05-.05-.05-.05-.15-.1-.05-.1-.25-.1-.7-.25-.45v-.15l-.05-.1.05-.15v-.2l.05-.15v-.25l.05-.1.1-.1v-.15l.05-.1.05-.15.1-.1.1-.1.05-.2.15-.1.15-.15.1-.1.15-.1.15-.15.1-.05.15-.05.25-.15.2-.05.2-.05.2-.05h.45m22.15 5.55h-1.3l-4.65.05.05.15.05.15.1.2.05.2.05.1.05.1.1.2.05.1.05.2.05.1.05.15.05.15.05.15.05.1.1.2.05.1.05.2.1.15.05.2.05.15.05.1.05.2.05.1.1.2.05.1.05.1.05.2.05.1.05.15.1.15.05.15.05.15.1.15.1.2.05.1.05.1.05.2.05.1.05.15.1.15v.15l.1.2.05.1.05.1.05.2.05.1.1.2.05.1.1.25v.15l.05.1.1.2.05.1.05.1.05.2.05.1.1.2.05.1.05.15.05.15.05.15.05.2.05.1.1.25.05.1.05.15.1.15.05.15.05.1.05.2.05.1.05-.1.05-.2.05-.1.05-.15.1-.15.05-.15.05-.1.1-.25.05-.1.05-.2.05-.15.05-.15.05-.15.05-.1.1-.2.05-.1.05-.2.05-.1.05-.1.1-.2.05-.1v-.15l.1-.25.05-.1.1-.2.05-.1.05-.2.05-.1.05-.1.1-.2v-.15l.1-.15.05-.15.05-.1.05-.2.05-.1.05-.1.1-.2.1-.15.05-.15.05-.15.1-.15.05-.15.05-.1.05-.2.05-.1.05-.1.1-.2.05-.1.05-.2.05-.1.05-.15.05-.2.1-.15.05-.2.05-.1.1-.2.05-.1.05-.15.05-.15.05-.15.05-.1.05-.2.05-.1.1-.2.05-.1.05-.1.05-.2.1-.2.05-.15.05-.15.05-.05zm-12.8.1v.25l.1.1v2.3l.05.1v8.95l-.05.1v.55l-.1.1v.75l-.05.1v.15l-.05.1v.1l-.05.2v.1l-.05.15-.1.1v.05h7.55l-.1-.15-.05-.1-.05-.2-.05-.1-.05-.2-.05-.1-.05-.15-.1-.15-.05-.15-.05-.1-.05-.2-.05-.1-.1-.2-.05-.1-.05-.15-.05-.2-.05-.15L38 26l-.05-.15-.05-.1-.05-.2-.05-.1-.1-.2-.05-.1V25l-.1-.15-.05-.15-.05-.15-.05-.15-.05-.1-.1-.25-.05-.1-.1-.2-.05-.1v-.15l-.1-.15-.05-.15-.05-.15-.05-.15-.05-.1-.1-.2-.05-.1-.05-.2-.05-.1-.05-.15-.05-.15-.1-.2-.05-.2-.05-.1-.05-.1-.1-.2L36 21l-.05-.2-.05-.1-.05-.15-.05-.15-.05-.15-.1-.15-.05-.15-.05-.1-.05-.2-.1-.15-.05-.2-.05-.1-.05-.15-.05-.2-.05-.1-.1-.2-.05-.1-.05-.1-.05-.2-.05-.1-.05-.15-.05-.15-.05-.15-.1-.15-.05-.15-.1-.25-.05-.1-.05-.1-.05-.2-.05-.1-.05-.2-.05-.1-.05-.15-.1-.2-.05-.1-.05-.1-.05-.2-.05-.1-.05-.1-.05-.1-.05-.1-.05-.25-.05-.15-.05-.1-.1-.2v-.05h-1.55zM6.35 24.85q-.75-.75-1.2-1.8-.85-2.1-.35-4.4.55-2.3 2.25-3.85Q8.3 13.65 10 13.2l1.2-.25v-.05h1.2v.05l1.2.25q1.7.45 2.95 1.6 1.7 1.55 2.25 3.85.5 2.3-.3 4.4l-1.2 1.8-1.7 1.1-.05.75v.05l.1 1.1q.25 1.75 0 2.3l-.6.75q-.7.65-1.95.8l-.55.6-1.3.05-.45-.35-.2-.3q-1.25-.15-2-.8l-.65-.75q-.25-.55 0-2.3l.15-1.1v-.05l-.05-.75q-1.2-.6-1.7-1.1M9 22.5l.2.15v-1.1q.15-.6.65-1l.6-.15.55.1.25.2.1-.15.3-.2.2-.35.8-.2q.65 0 1 .3.7.5.7 1.65l-.05.8-.15.25.45-.3.5-.65.35-1.25-.15-1.1q-.6-1.95-2.4-2.7l-1.1-.25-1.1.25q-1.8.75-2.4 2.7l-.1 1.1q0 .65.35 1.25zm3.3.2.6-1.1-.2-.4h-.2l-.05.05-.3.35q-.05.35-.45.5l-.65-.05-.1-.15h-.45q-.2.4-.05.95l.05.1.25.05h1.4zm-1.85 4.25q-.15 1.05 0 1.6l1.1.05h.25l1.4-.05v-1.6l-.05-.15H10.5z"/></svg>