<svg xmlns="http://www.w3.org/2000/svg" xmlns:ffdec="https://www.free-decompiler.com/flash" ffdec:objectType="shape" width="73.1" height="41.5"><g fill-rule="evenodd"><path fill="#767676" d="m1.05 12.3.05-.95.3-.35h.5q.45.15.55.8l-.1 1.05-.2.9-.05.55.45.5.5 1q.1.7-.45 1l-.85.2q-.7-.1-.95-.35l-.5-.8-.25-1.15q0-.5.4-1.2zm3.9 2.1-.65-.3-.65-.9q-.45-1.05-.15-1.75l.35-.6.15-.35.85-1L5 8.95l-.15-.55-.25-.5q-.1-.4.4-.5l.1-.05q.95.55 1.15 1.85l.05.35-.1.35-.35.7-.2.3v.4l-.05.3.15.2.1.25.3.35.15.4.05.6q-.05.45-.5.8-.35.3-.9.2m-1.4 3.65q.5-1.15 1.5-1.8.85-.65 2-.8l2.35.35q1.1.55 1.75 1.55l.4.95q.4 1.35-.75 3.15l-.95 1.05q-.65.45-1.85.65l-3.95.3-1.2-.05-1.35-.1q-.85-.4-1.25-1.25l-.2-.35q-.2-.75.2-1.6l.25-.45q.3-.6.85-1l.7-.35.75-.25z"/><path fill="#fff" d="m29.4 13.1-.45-.55-.3-.8q-.2-.85.2-1.15l.75.05.55.5.8.9.7-.4 2.15-1.9 2.2-1.8 1.8-1.15q.6-.4 1.2-.55 1.2-.15 1.8.9.6 1.1-.25 2.05l-1.25.7q-3.4 1.35-4.95 2.65l-.95.9-1.05.75q-.7.4-1.35.4-.8 0-1.2-.6z"/><path d="M19.45 4.7q2-2.15 4.95-3.35Q27.2.2 30.35.1h.55L31 0h8.85l.5.65.9 1.6.4.9.3.65 2.2 2.4q1.15 1.55 2.35 4.5.8 1.9 1 3.35l1.05-.95 2.5-1.9q1.85-1.05 4.1-1.05 2.15-.05 4.15.85l2.65 1.75-1-4.7-3.8.25q-2.4.3-3.7-.6-1-.7-1.75-2.25-.55-1.4-.35-2.7.4-1.8 2.1-2.75h8.9q2.85 1.5 4.9 6.15 1.6 3.5 2.55 7.5.5 2.4.3 3.65-.15 1.1-1.05 2.9l-1.2 1.75q-.65.6-2.8.9l-6.7 1q-2.05.4-3.85.95l-.55.7q-.4.55-.8 1.65l-.1.35q2.85 4.6 3.85 9.8l.2-.35 1.1-2.25 1.25-2.2q2.1-3.15 5.05-3.8l3.2.3 1.05.25q1.3.5 2.65 1.7l1.7 1.8v6.4l-.1.05q-.9.7-2.05.6-1.9-.1-3.05-1.45l-1-1.65-.85-1.75-.5-.55q-.55-.2-1.15.3-1.05.7-1.95 1.85l-1.25 2.1-1.4 1.95q-.7.6-1.2.5-.35 0-.55-.3l-.7.4v.3H25.1l-.5-.9q-.2-.8.25-1.8l1-1.55 1.25-1.6.45-.4-2.45 1.05q-7.15 2.6-14.8 2.3l.3.65q.2.75-.2 1.45l-.85.8H8l-.2-.1q-.7-.45-.9-1.15L6.8 39l-.1-.8q-1.65-.35-2.8-1-1.25-.7-2.05-1.85-.85-1.25-.8-2.6.1-2.3 2.1-3.55.85-.5 1.8-.65L4.7 26.1v-.05l-.9-.1-.65-.4-.6-.6q-.25-.45-.35-1.45v-1.55q0-.4.15-.65.25-.35.6-.2l.3.45.3.95v.4l.4.95.7.25-.05-1.75-.05-1-.05-.55q.1-.4.5-.4.35-.1.55.3l.3.9.3 1.1.3.75.05.25.55-.15-.15-.75-.35-1.35-.2-.55.2-.55q.15-.35.45-.4.45-.15.8.2l.4.75.3.85V22l.1.35.25.4q.35.85-.05 1.85l-.4.55-.9.55-.5.15V26l.3.85.2.8.3 1.3 1.2.65 1.5 1q1.9 1.3 3.55 1.75 2.55.65 7.35-.45l1.55-.35-1.3-.45q-3.45-1.5-4.95-4.7-.5-1.1-.95-3.25-.5-1.1-.9-2.7l-.5-.95-1.05-1.4q-1.85-2.2-2.75-4.95-.6-1.65 0-2.55.35-.45 1.45-.9 2.4-.9 3.65-1h1.1q1.45-2.6 2.7-4m15.8 16.25 1.85.2.05.3.05.75v.45l-.55-.05q-.95 0-1.8.75l-.4.5-.75-.35-.1-.05q1.45-1.2 1.65-2.5M20.4 21l.55-.1.2.4.35.4q.85.7 1.8.75 1.1.1 2-.6l1.1-1.1.85-1.25.1-.15.65-.25q1-.45 1.05-1.35l-.3-2.35q-.1-.85-.45-1.2-.6-.6-1.35-.35-.75.15-.95 1.05-.1.55.15 1.65l-3.65 1.3-.85.4-2.7 1.9q-.35.15-.4.4l.05.45.35.25.7-.2zm13-1q-.05.9-1.1 1.85l-.95.55-.95.1-1-.15q-.7-.55-1.1-.55-.65 0-.75.65-.15.55.3 1l.9.6 2.5.3.85-.05.2-.05v.05l.45.65.55.45q1.15.7 2.45.7l.65-.1.7-.3.45-.25.5-.45.4-.55.4-1.05.05-.8.1-1.5-.05-.45-.05-.15 1.45-1.3.55-.85q.15-.6-.2-.95-.25-.3-.7-.3t-.85.3l-1.25 1.15-2.15.15q-.9-.55-1-.55l-.8.15q-.45.25-.55.7zm8.8-9.25-.2-.35-.2-.4q-.6-.85-1.65-1.25l-2.05-.1q-1 .25-1.75 1.1-.75.8-.85 1.85t.45 2.05q.45.85 1.3 1.35l1.9-.6.45-.05 1.95.05q.6-.65.8-1.6.25-1.05-.15-2.05"/><path fill="#fff" d="M42.2 10.75q.4 1 .15 2.05-.2.95-.8 1.6l-1.95-.05-.45.05-1.9.6q-.85-.5-1.3-1.35-.55-1-.45-2.05t.85-1.85q.75-.85 1.75-1.1l2.05.1q1.05.4 1.65 1.25l.2.4zM33.4 20v-1q.1-.45.55-.7l.8-.15q.1 0 1 .55l2.15-.15 1.25-1.15q.4-.3.85-.3t.7.3q.35.35.2.95l-.55.85-1.45 1.3.05.15.05.45-.1 1.5-.05.8-.4 1.05-.4.55-.5.45-.45.25-.7.3-.65.1q-1.3 0-2.45-.7l-.55-.45-.45-.65v-.05l-.2.05-.85.05-2.5-.3-.9-.6q-.45-.45-.3-1 .1-.65.75-.65.4 0 1.1.55l1 .15.95-.1.95-.55q1.05-.95 1.1-1.85m-13 1-.75.05-.7.2-.35-.25-.05-.45q.05-.25.4-.4l2.7-1.9.85-.4 3.65-1.3q-.25-1.1-.15-1.65.2-.9.95-1.05.75-.25 1.35.35.35.35.45 1.2l.3 2.35q-.05.9-1.05 1.35l-.65.25-.1.15-.85 1.25-1.1 1.1q-.9.7-2 .6-.95-.05-1.8-.75l-.35-.4-.2-.4zm14.85-.05q-.2 1.3-1.65 2.5l.1.05.75.35.4-.5q.85-.75 1.8-.75l.55.05v-.45l-.05-.75-.05-.3z"/></g></svg>