<svg xmlns="http://www.w3.org/2000/svg" xmlns:ffdec="https://www.free-decompiler.com/flash" ffdec:objectType="shape" width="77.65" height="37.55"><g fill-rule="evenodd"><path fill="#999" d="M74.25 0h1.5l.35.05.25.05.25.1.15.1.15.1.15.1.1.1.05.15.05.1.1.1.05.1.05.1.05.1v.1l.05.1.05.1v.6l-.05.1-.05.15v.1l-.05.1-.05.1-.05.1-.1.1-.05.1-.05.1-.1.1-.15.1-.15.1-.15.1-.25.1-.25.1h-2.7l-1.7-.05H26.6l-9 .05H4.9l-2.8-.05-.35-.05h-.1l-.25-.05-.3-.05-.2-.1-.2-.15-.1-.1-.1-.1-.1-.1-.1-.1-.1-.1v-.1l-.1-.1v-.1l-.05-.1v-.1L0 2.15V1.5l.05-.1.05-.1v-.1l.05-.1L.2 1 .3.9.35.8l.1-.1.1-.1.1-.1.2-.1.2-.1.15-.1.2-.05h.25l.1-.05.35-.05h72.15zm1.5 4.3h.4l.35.05.25.15.15.1.1.1.1.1.05.1.05.1.05.1v.1l.05.1v.4l-.05.1-.05.1-.05.15-.05.1-.05.1-.1.1-.15.1-.2.1-.15.05-.3.05h-.4l-12.9-.05H55.8l-7.85-.05h-2.1l-.25-.05h-2.75l-.3-.05h-1.6l-1.1-.05-3.3-.05h-3.2l-2 .05h-.55l-1.6-.05h-1.5l-2.6-.05-1.5-.05h-4.5l-.25-.05-.75-.05h-1.45L14.6 6.1l-4-.05H4.05l-.3.05h-1.7l-.2.05-.2-.1-.15-.1-.1-.1v-.1l-.05-.1v-.2l.05-.1v-.1l.1-.1.15-.1.2-.1.1-.05h.15l.2-.05h1.45l.3.05h6.55l4-.05 2.05-.05h1.45l.75-.05.25-.05h4.5l1.5-.05 2.6-.05h1.5l1.6-.05h.55l2 .05h3.2l3.3-.05 1.1-.05h1.6l.3-.05h2.75l.25-.05h2.1l7.85-.05h19.95zm-34.9 2.35h1.45l1.2.05 1.25.05.6.05h1.95l1.7.05.95.05h.55l.3.05.55.05h.45l.3.05.5.05h.4l2.4.05.95.05h.45l.5.05.35.05.65.05h.35l.3.05.5.05h.95l1 .05 1.45.05h3.85l.2.05.1.05.25.05.15.1.1.1.05.1v.45l-.05.1-.1.1-.15.1-.25.05-.1.05-.2.05h-3.85l-1.45.05-1 .05h-.95l-.5.05-.3.05h-.35l-.65.05-.35.05h-.5l-.45.05-.95.05H53l-.4.05-.5.05-.3.05h-.45l-.55.05-.3.05h-.55L49 9.6l-1.7.05h-1.95l-.6.05-1.25.05h-1.2l-.55.05h-.9l-.3-.05-.25-.05-.2-.1-.15-.1-.15-.1-.1-.1-.05-.1-.1-.1h-.1l-.1.05-.15.05-.25.05h-.1l-.15.05-.2.05h-5.3l-2.4-.05h-1.35l-.15.05h-.4l-.45.05-.3.05h-.25l-.55.05-.2.05h-.1l-.25.05-.1.05h-.15l-.25.05-.45.05-.75.05h-2.45l-.7-.05-.35-.1h-.35l-.35.05h-.1l-.2.35h.05l.25.05h.4l2.75.05 5.35.05h1.2l.35.05.65.05h1.1l.65.05.35.05h.45l.85.05.9.05.65.05h.35l.35.05.3.05H38l.05-.05.1-.1.1-.1.15-.1.25-.1.45-.05v-.05h.8l1.2.05.35.05h.95l1.55.05.85.05h1.15l1.2.05.7.05h.35l.35.05.3.05.3.05h.35l.3.05.2.05h.35l.25.05.6.05h.5l.75.05.55.05h6.5l.5.05.4.05.25.05h.25l.35.05.2.05h.5l.2.05.1.1.05.1.05.1v.2l-.1.1-.1.1-.05.1h-.15l-.4.05h-.3l-.35.05-.25.05h-.25l-.4.05-.5.05H53l-.55.05-.75.05h-.5l-.6.05-.25.05H50l-.2.05-.3.05h-.35l-.3.05-.3.05-.35.05h-.35l-.7.05-1.2.05H44.8l-.85.05-1.55.05h-.95l-.35.05-1.2.05h-.8l-.45-.1-.25-.1-.15-.1-.1-.1-.1-.1-.1-.1-.1-.1v-.05h-.3l-.3.05-.35.05h-.35l-.65.05-.9.05h-.85l-.45.05-.35.05h-.65l-1.1.05-.65.05-.35.05h-1.2l-5.35.05-2.75.05h-.4l-.25.05-.1.05h-.15l-.2.05-.2.05h-.25l.1.05.15.05h.3l.25.05 1.1.05 2.1.05H25l2 .05.55.05h.5l.35.05.5.05h1.15l.9.05.4.05h.5l.65.05 1.3.05.55.05h.25l.5.05h1.35l.85.05.15.1.15-.05.1-.05h1.75l6.05.05 2 .05h1.2l.35.05.25.05h.15l.25.05.3.05.15.1.2.05h.1l.15.05.2.05h.15l.15.05.1.05h.35l.9.05.55.05h.15l.15.05.2.05h1.7l1.6.05h7.65l1.25.05.9.05h7.1l.15.05.05.05h.15l.05.05.2.05.1.15.2.1-.1.1-.15.1-.05.05-.05.05h-.15l-.05.05-.15.05-.05.05h-5.7l-.9.05h-.65l-.9.05h-1.25l-.55.05h-7.1l-1.6.05h-6.5l-.8.05 1.25.05h4.2l4.2.05 2.3.05h1.25l1.3.05.55.05h.65l.75.05.95.05 1.55.05h2.9l.95.05 2.6.05.15.1.05.1v.05h2.4l.25.05.25.05.15.1.15.1.05.1.05.15.05.1.05.1v.3l-.05.1v.1l-.1.1-.05.1-.1.1-.15.1-.15.1h-.15l-.25.05-.35.05h-.5l-1.4-.05h-2.1l-5.4.05H66l-2.7-.05h-7.1l-1.25-.05h-.3l-.65-.05-.45-.05h-.85l-.6-.05-.4-.05-.7-.05h-.4l-9.85-.05-.4-.05h-1L39.2 18l-.1-.05h-.8l-.2-.1-.1-.1-.05-.1v-.15h-.7l-.65-.05-.2-.05-.25-.05-.2-.1-.2-.1-.1-.1-.1-.1-.05-.1v-.15l-.05-.1.05-.1v-.1l.05-.1.1-.1.1-.1.2-.1.2-.1.25-.05.2-.05h.65v-.05h.05l-.05-.05-.1-.1-.1-.1-.05-.1-.05-.1-.05-.1-.05-.1v-.5l.05-.1.05-.1.05-.1h-1.9l-.5.05-.25.05h-.55l-1.3.05-.65.05h-.5l-.4.05-.9.05H28.9l-.5.05-.35.05-.5.05H27l-2 .05-1.25.05h-2.1l-1.1.05-.25.05H20l-.2.1-.15.1-.25.1-.2.05-.1.05-.1.05h-.75l-.4-.05-.25-.1-.15-.1-.1-.1-.15-.1-.1-.1-.05-.1-.05-.15-.05-.1-.05-.1v-.3l-.05-.1.05-.1v-.3l.05-.1.05-.1.05-.1.05-.1.1-.15.15-.1.1-.05-.1-.05-.25-.1-.15-.1-.1-.1-.1-.1-.1-.1-.1-.1-.05-.1-.05-.1v-.1l-.05-.1-.05-.1v-.65l.05-.1.05-.1-.2.05-1.25.5-3.4 1.75-1.3 1-1.05 1.2-.1.1-.2.3q-.35.6-.35 1.15l.15.4.45.15q.95.1 1.45.55.7.6.55 1.45-.15.8-1.25 1.3l.1.5q.3.9 1.2 1.3l1.7.6.75.2v-.05l.15-.1.15-.15.2-.05.15-.05h.1l.15-.05.2-.05h.25l.5-.05h.25v-.05h1.95l.5.05.45.05h.9l.5.05 1 .05h.95l.35.05 3.3.05h2.8l1.65.05.15.05.15.05.15.1.1.1v.05l.3-.1.2-.1.15-.05.1-.05.1-.05.15-.05h.15l.2-.1.2-.05.15-.05h.15l.05-.05.25-.05h1.25v-.05h9.1l4.6.05h4.85l1.15.05.75.05h1l.95.05h2.7l2.25.05h.95l.85.05.55.05h.8l1.1.05.55.05.45.05h.4l.7.05.75.05h2.2l.45.05.1.05h.15l.1-.05.3.05.15.1.05.1v.1l-.05.1-.1.05-.1.05-.3.05h-2.95l-.75.05-.7.05h-.4l-.45.05-.55.05-1.1.05h-.8l-.55.05-.85.05h-.95l-2.25.05h-2.7l-.95.05h-1l-.75.05-.9.05-.1.1-.15.15-.2.05-.35.05-.2.1h-.25l-.2.05-.3.05H48.6l-.7.05-.2.05h-.3l-.15.05-.2.05-.2.05h-.25l-.65.05-.35.05h-.2l-.25.05h-1.3l-.45-.05h-.25l-.1-.05-.3-.05-.15-.15-.15-.1-.05-.1-.1-.1-.05-.1-.05-.1v-.1h-8.1l-1-.05h-.25l-.25-.05-.05-.05h-.15l-.25-.1-.15-.05-.15-.05h-.15l-.15-.05-.2-.1-.2-.1-.25-.1-.2-.05v.05l-.1.1-.15.1-.15.05-.15.05-1.65.05h-2.8l-3.3.05-.35.05h-.95l-.55.05q.05.5-.3.95l-1 .75-.25.15.1.25.1-.1.05-.1.1-.1.15-.1.2-.1.25-.1h2.7l.3.05.1.05h.45l2.45.05 1.3.05h.8l.8.05.85.05h.45l.25.05.55.05h.85l.75.05.55.05.3.05h.2l.2.05.1.05h.8l3.3.05.55.05h.25l.3.05 4.4.05h7.4l.2.1.05.05h2.65l.95-.05 1.1-.05h.8l1.1-.05 1.65-.05h.25l3 .05 3.2.05h4.4l2.4.05h.65l2.6-.05h.55l.55.05.15.05.1.1.1.1v.25l-.1.1-.1.1-.15.05-.55.05h-.55l-2.6-.05h-.65l-2.4.05h-4.4l-3.2.05-3 .05h-.25l-1.65-.05-1.1-.05h-.8l-1.1-.05-.95-.05h-2.65l-.05.1h-.2l-7.4.05-4.4.05h-.3l-.25.05-.55.05h-3.3l-.8.05-.1.05-.2.05h-.2l-.3.05-.55.05h-.75l-.85.05-.55.05h-.25l-.45.05-.85.05h-.8l-.8.05-1.3.05H23.5l-.45.05-.1.05-.3.05h-2.7l-.25-.1-.2-.1-.15-.1-.1-.1-.05-.1-.05-.05v.15l.45.65.5.95h.25v-.05h2.4l2.1.05h.85l1.1.05 2 .05.5.05h3.5l-.05-.05v-.2l-.05-.1.05-.15v-.1l.05-.1v-.1l.1-.1.1-.1.1-.1.15-.1.2-.05.2-.05h.25v-.05h1.2l.35.1.2.1.2.1.3.05.55.05h1.85l.65.05.45.05.55.05h2.65l.65.05.55.05h.75l.65.05h5.95l2.25-.05h1.55l2.3-.05 1.8-.05h8.05l2.55.05 1.45.05h3.6l.15-.05.8-.05h.7l.35.1.15.1.05.1.05.1.05.1v.2l-.1.1v.1l-.15.1h.25l.2.1.15.1v.1l.05.1v.1l-.05.1-.05.1-.05.05-.1.05-.15.05h-2.2l-.8-.05-.9-.05h-2.1l-.95.05-1.05.05-1.15.05h-5.45l-.6-.05-.3-.05-2.35-.05h-.1l-1.15-.05-1.25-.05h-3.4l-.65-.05h-.4l-.8.05h-2.2l-.1.05-.1.05h-.55l-.55.05-.2.05-.65.05h-3.8l-.45.05-.6.05h-.3l-.15.05-1.05.05H28.8l-2 .05-1.1.05h-.85l-2.1.05h-2.4l-.2-.05h-.1l-.15-.05-.5.25-.85-.05q-.65-.25-1.3-1.05-.65-.75-.75-1.3v-1.3l.2-.95-4-.3-1.4-.3-1.05-.35-1.05-.7q-1.85-1.3-2.15-2.45l-.1-1.2.05-.85q-1.5-.7-1.85-2.1Q5 18.05 5 17q0-1.1.25-1.8.2-.5.95-1.5 1.45-1.85 2.45-2.45L9.1 11l1.25-.95q1-.6 2.7-1.1l2.85-.85 1-.3 1.5-.1.1-.05.15-.05.05-.05h.4V7.5h.1l.3.05h.15l.05.05.3.05.25.1h.2l.15.05.3.05.35.05h.35l.15-.05.2-.05h3.9l.45.05.25.05h.15l.1.05.25.05h.1l.2.05.55.05h.25l.3.05.45.05.4.05H36l.8-.05h.85l.85.05h.2l.15.05.1.05h.25l.1.05v-.45l.05-.1v-.1l.05-.1.05-.1.05-.1.05-.1.1-.15.1-.1.1-.1.1-.1.25-.1.1-.05.1-.05.15-.05zm-3.3 13.05h5.7l.95.05.3.05h.2l.25.05.25.05h.2l.4.05 1.25.05 1.15.05h.65l1 .05.4.05h.35l2 .05.65.05H54l.75.05 1 .05h.45l.35.05.35.05h.45l.6.05 1.4.05.75.05h1.65l.85.1.2.1v.2l-.05.1-.1.05-.1.05-.8.05H60.1l-.75.05-1.4.05h-.6l-.45.05-.35.05h-.35l-.45.05-1 .05-.75.05h-.75l-.65.05-2 .05h-.35l-.4.05-1 .05h-.65l-1.15.05-1.25.05h-.4l-.2.05-.25.05h-.25l-.2.05-.3.05-.95.05h-5.7l-.35-.1-.25-.1-.15-.1-.1-.1-.1-.1-.05-.1-.1-.1v-.1l-.05-.1V21l-.05-.1.05-.1v-.2l.05-.1v-.1l.1-.1.05-.1.1-.1.1-.1.15-.1.25-.1.35-.05zm10.4 10.4.2.05.55.05h.55l.1.05.1.05h2.2l.8.05h.4l.65-.05h3.4l1.25-.05 1.15-.05h-1.8l-2.3-.05-1.55-.05zm-15.6 1.45h11.2l2.2.05.4.05h3.75l1.35-.05h.85l2.35.05h6.65l.6.05.65.05h2.4l.2.05h.4l.2-.05h5.1l1.3-.05h.6l2.05-.05h1.7l.25.05.2.05.2.1.1.1.1.15v.1l.1.1v.5l-.05.1-.05.1-.05.1-.1.1-.15.1-.15.1h-.15l-.25.05h-1.7l-2.05-.05h-1.9l-3.4-.05h-1.7l-.2-.05h-.4l-.2.05-.25.05h-2.8l-.6.05h-3.35l-1.2.05H49.9l-2.2-.05h-1.35l-.2.05h-.4l-2.2.05h-11.2l-.9-.05H28.7l-1.5-.05-1.1-.05h-1l-1.55-.05-2.9-.05h-1l-2.1-.05-1.25-.05h-.65l-2.3-.05-.8-.05H8.5l-5.75-.05-.35.05-.15.05H1.7l-.2-.05-.1-.15-.1-.1v-.3l.1-.1.1-.05.05-.05.15-.05.4-.05.1-.05.1-.05.15-.05h.3l5.75-.05 4.05-.05.8-.05h2.3l.65-.05 1.25-.05h2.1l1-.05 2.9-.05h1.55l1-.05 1.1-.05h1.5l2.75-.05h.9zM51.6 33.9h23.35l.4.05h.35l.15.05.2.05.25.15.2.1.1.1.15.1.1.1.05.1.05.1.1.1.05.1.05.1v.1l.05.1.05.1v.65l-.05.1-.05.1v.1l-.05.1-.05.1-.1.1-.05.1-.05.1-.1.1-.15.1-.1.1-.2.1-.25.15-.2.05-.15.05h-.35l-.4.05H51.6l-5.45-.05H31.6l-5.1-.05-4.95-.05H18l-5.75-.05-2.1-.05-1.2-.05H7.6l-1.85-.05-1.55-.05H3.05l-.55-.05-.25-.05L2 37l-.25-.1-.25-.1-.15-.1-.1-.1-.1-.1-.05-.1-.1-.1v-.15l-.05-.1-.05-.1v-.1l-.05-.1.05-.1v-.2l.05-.1.05-.1v-.1l.1-.1.1-.1.1-.1.1-.1.15-.15.25-.1.2-.05.1-.05h.15l.25-.05.55-.05H4.2l1.55-.05 1.85-.05h1.35l1.2-.05 2.1-.05 5.75-.05h3.55L26.5 34l5.1-.05h20zm19.65-3.7h2.1l.75-.05h-3.35z"/><path d="M7.95 14.75q.55-1.85 2.15-3.1.6-.4 1.9-1.1 1.6-.75 2.15-.9l.85-.2.15-.1.55-.35 1.25-.4 2.9-.35.95.1q.65.3.8.9.2.6-.15 1.15l-.95.9.15.1H23l.25.05.2.05 1.05.05h.35l.2.05.35.05h.2l2.55.05.3.05.15.1.1.1.1.15.1.1v.4l-.1.1-.1.1-.1.1-.15.1-.3.05-2.55.05-.2.05-.35.05h-.2l-.35.05-1.05.05h-.2l-.25.05-.35.05h-.2l.9 2.05.05.15q1.5-.8 3.65-1.25l2.7-.25q3.55-.1 6.2 1.65L35.9 15l.25-2.4.45-2.7q.35-1.45 1-2.45.9-1.5 2.2-1.9l1.5-.05q.75.2 1.2.75l.55 1.2h.05l.15.05.1.05h.2l.1.05 1.4.05h.45l.2.05.1.05h.15l.1.05.3.05.25.05h.1l.15.05.2.05h.9l.2.05.05.05.2.05.15.1.1.1.1.1v.1l-.05.1-.15.1-.1.15-.1.05-.15.05h-.05l-.2.05-.9.05h-.2l-.15.05-.1.05h-.25l-.3.05-.1.05h-.15l-.1.05-.2.05-.45.05h-1.4l-.1.05-.2.05h-.1l-.15.05-.1.05h-.3l-.4.05-.65.7-.4.55h.4l.45.05h.25l.15.05.25.05h.95l.45.05.25.05h.65l1.3.05.5.05h.5l.55.05.25.05h.1l1.55.05 1.9.05 1.2.05.2.05.2.1.1.1.05.1v.3l-.05.1-.05.1-.15.1-.15.1-.15.05h-1.2l-1.9.05-1.55.05h-.1l-.25.05-.55.05h-.5l-.5.05-1.3.05h-.65l-.25.05-.45.05h-2.6l-.45.05-.3.05-.35.05h-.05l-.25.65v.1l1.15.05.35.05h.2l.15.05.2.05.35.05h.1l.35.1.55.1v.05l-.05.05-.5.05-.35.05-.1.05-.35.05-.2.05h-.15l-.2.05-.35.05h-1.2l-.2.05-.2.95h.1l.15.05.35.05h1l.55.05.25.05h5.25l.7.05 1.2.05h.9l.2.05.2.05.95.05h.2l.1.05.45.05h1.4l.55.05.85.05h.5l.7.05.4.05h.05l.15.05.1.1.05.1v.1l-.05.1v.1l-.1.1h-.2l-.4.05-.7.05-.5.05h-.85l-.55.05-1.4.05h-.45l-.1.05-.2.05h-.95l-.2.05-.2.05h-.9l-1.2.05-.7.05h-5.25l-.25.05-.55.05h-.35l-.55.05h-.45l-.15.05-.15.05h-.3l-.2.7q.75 1.3.85 2.65v.45l1.2.5q1.1.5 1.8.4-.35-.85-.35-1.55.05-.95.7-1.35.3-.2.95-.25l.85.05.1.05h.3l.25.05.15.05h.55l.85.05.25.05h.3l.25.05.2.05.1.05h.25l.35.05.3.05h.25l.25.05.3.05h.15l.15.05.5.05h1.4l.3.05.25.05h.35l.2.05.45.05.65.05.1.1v.2l-.15.1h-.6l-.45.05-.2.05-.35.05h-.25l-.3.05-1.4.05H50l-.15.05-.15.05h-.3l-.25.05-.25.05h-.3l-.35.05-.25.05-.1.05h-.2l-.25.05-.3.05h-.25l-.85.05h-.15q.15 1.35-.35 2.65-.25.7-.7 1l-1.2.35-2.25.05q-.85-.15-2.8-1-1.2 1.3-3.25 1.15l-2.85-.75-.45.95.7.5 1.25.75q.7.6 1 1.3h.15l.3.05.2.1.1.1h.1L36 29l.15.05 1.45.05h.5l.25.05.3.05h.2l1.15.05 1.3.05.25.05 1 .1.05.1-.05.1-1 .1-.25.1H40l-1.15.05-.2.05h-.3l-.25.05-.5.05-1.45.05H36l-.25.1-.15.1-.15.05-.1.05h-.2l-.25.05-.45.05q-.45.45-1.15.3l-.75-.35-2.85-1.85-.75-.75q-.5-.7-.3-1.95l.55-1.85-.7-.2-3.7-.1h-.45q-.65.15-1.8.65l-.3.45-.6.7.05.05.1.1 1.55.05.5.1.1.1v.1l-.05.1-.15.05-.4.05-1.55.05-.1.15-.15.1-.25.05-.1.05h-.1l-.1.05h-.05l-.2.55-.05.15.65.05H22l.25.05.2.05h.2l.1.05 1.1.05h.25l.2.05.2.05.15.1h.1l.25.1.15.1.05.1.05.1v.1l-.05.1-.05.1-.1.1-.1.1-.3.05-.1.05-.1.05-.15.05h-.2l-.25.05-1.1.05-.1.05h-.2l-.2.05-.25.05h-.55l-.4 1.2q-.75 1-1.9.85l-.9-.45-.55-.95v-.4q-.35-.6-.4-1.4l.1-.95q.25-1.3.75-2.3H18l-1.9.25q-3.8.05-6-1.9-1.7-1.55-2.25-4.2h.1l1.3-.3.85-1q.3-.7.1-1.35-.25-.9-1.05-1.3l-1-.25zm6.75.75-.1.7q-.05.75.5 1.35.45.6 1.2.75.7.15 1.4-.25.7-.35 1-1.05.25-.7 0-1.45t-.9-1.15q-.6-.4-1.4-.25-.8.1-1.3.65zm1.65 5.65.55-.65.35-.6q0-.35-.4-.35l-.6.05-2.85.8-.95-.65-1-.25q-.35.1-.4.5v.4l-.8.4H9.6L9 21q-.2.2-.15.5t.25.4l.8.1.85-.05.7-.45.25-.2.6.3 1.35.35 1.6-.45.55-.1z"/><path fill="#fff" d="M7.95 14.75h.2l1 .25q.8.4 1.05 1.3.2.65-.1 1.35l-.85 1-1.3.3h-.1q-.65-.1-1.15-.5-.5-.5-.6-1.2-.15-.7.15-1.35.55-1.05 1.7-1.15m8.4 6.4-.55.25-.55.1-1.6.45-1.35-.35-.6-.3-.25.2-.7.45-.85.05-.8-.1q-.2-.1-.25-.4T9 21l.6-.2h.65l.8-.4V20q.05-.4.4-.5l1 .25.95.65 2.85-.8.6-.05q.4 0 .4.35l-.35.6zM14.7 15.5l.4-.7q.5-.55 1.3-.65.8-.15 1.4.25.65.4.9 1.15t0 1.45q-.3.7-1 1.05-.7.4-1.4.25-.75-.15-1.2-.75-.55-.6-.5-1.35z"/></g></svg>