<svg xmlns="http://www.w3.org/2000/svg" xmlns:ffdec="https://www.free-decompiler.com/flash" ffdec:objectType="shape" width="74.95" height="43.35"><g fill-rule="evenodd"><path fill="#999" d="M12.4 37.25 9.85 37q-1.95-.6-3.4-2.25-1.65-2-1.6-4.4l.2-1.3-1.65.3q-.15.8.3 2.95l.35 3.2q0 1.2-.45 1.7t-1.75.7l-1.55.4-.3.1v-3.2l1-.35-.25-2.6q-.25-1.65-.1-2.6l.15-1.4q.1-.5.6-.75l1.2-.15 2.4-.2.8-.1.25-.55q.75-1.25 1.85-2.15.3-2.05.95-4.8l-3.6.4-1.55-.35q-.8-.65-.25-2.35l.25-.65h-.2l-3.5.7v-2.1l1.7-.75.85-.25 1.05-.45.7-.4.7-.1h.05L6.6 10.6 3.3 7.55 0 4.95V.35L.25.3q.8-.05 1.6.55l1.35 1.2 2.65 2.6L9.1 7.6q1.65 1.55 1.6 2.75 0 .7-1.1 2.25-1.25 1.6-2.35 3.85l3-.1q1.05.25 1.3.55.4.6 0 1.95l-1.4 4.2q.95-.4 2-.45 1.9-.15 3.7.7l.05.05v-.05q-.85-3.6-1.85-5.9-.65-1.6-.15-2.3.65-.8 1.75-.35l1.55 1.05 1.6.95 1.05-2.6.4-1.45q-.05-.5-.8-1.35L17 8.45q-.8-.9-.95-1.45-.35-1.2.85-3 .9-1.35 1.95-2.55L20.5.1q1.1-.35 1.95.4.9.8.65 1.95-.15.8-1.3 1.85l-1.65 1.6-.35.5q-.1.45.4.95l2.9 3.95q.6 1 .6 1.6 0 .65-.6 1.65-.6 1.1-1.1 2.65l-.75 1.85q-.6 1.05-1.6 1.1-.55.05-1.4-.45l-1.4-.7.8 5.6.95 1.15.55.85.95-1.2 3.2-4.2.5-.9.35-.7q.4-.5 1.1-.4l1.1.3 1.1.45.5.1.65-.2.6-.55q.9-.8 2.05-1.1 1.05-.2 1.4.35.25.4 0 .95l-.6.8L30 22.35l-1.15.75-1.3-.3L26 22l-.5-.1-.35.3-1.4 1.75-3.7 4.25.7 1.45q.25 1 0 2.3L20 33.8l.05.1.55 1.05 1.1 1.85 1.2-.75q.85-.2 1.3.35l.45.7.5.6.45.6.35 1.2 1.45 1.9q.4.4.4.75l-.1.4-.3.2-.35-.1-2.1-1.4-.8-.85-.35-.75-.55-.6-.85.75-.9.6q-.85.25-1.4-.4l-.6-1.15-1-1.9-.75-1.2-2.5 1.05v.05l.15.85q.2 1.15.05 2.5-.2.85-.6 1.1l-.55.15h-.6l-3.35.9Q9.9 42.5 9 43l-1.05.35-.45-.3-.1-.55q.05-.25.35-.55.8-.8 1.3-1.05l.9-.4 2.9-.95.2-.1v-.1l-.4-2.1zm49.8-6.7-.15-.85q-.45-.9-1.4-1.35-.95-.5-1.9-.3l-.3.1-.15.5q-.05 1-.7 1.95.75.7 2.75 1l1-.05.5-.45zm-1.7 6.7h-.25l-.4 2.1v.1l.2.1 2.9.95.9.4 1.3 1.05.35.55-.1.55-.45.3q-.4.1-1.05-.35-.9-.5-1.35-.65l-3.35-.9h-.6l-.55-.15q-.4-.25-.6-1.1-.15-1.35.05-2.5l.15-.85v-.05l-2.5-1.05-.75 1.2-1 1.9-.6 1.15q-.55.65-1.4.4l-.9-.6-.85-.75-.55.6-.35.75-.8.85-2.1 1.4-.35.1-.3-.2-.1-.4q0-.35.4-.75l1.45-1.9.35-1.2.45-.6.5-.6.45-.7q.45-.55 1.3-.35.55.2 1.2.75l1.1-1.85.55-1.05.05-.1q-.55-.8-.75-1.85-.25-1.3 0-2.3l.7-1.45-3.7-4.25-1.4-1.75-.35-.3-.5.1-1.55.8-1.3.3q-.45-.05-1.15-.75l-2.05-2.05-.6-.8q-.25-.55 0-.95.35-.55 1.4-.35 1.15.3 2.05 1.1l.6.55.65.2.5-.1 1.1-.45 1.1-.3q.7-.1 1.1.4l.35.7.5.9q1.25 1.9 3.2 4.2l.95 1.2.55-.85.95-1.15.8-5.6-1.4.7-1.4.45q-1-.05-1.6-1.1-.35-.55-.75-1.85l-1.1-2.65q-.6-1-.6-1.65 0-.6.6-1.6l2.9-3.95q.5-.5.4-.95l-.35-.5-1.65-1.6q-1.15-1.05-1.3-1.85-.25-1.15.65-1.95.85-.75 1.95-.4.75.3 1.65 1.35L56 4q1.2 1.8.85 3l-.95 1.45-2.45 2.9q-.75.85-.8 1.35-.05.45.4 1.45l1.05 2.6q.8-.15 1.6-.95 1.15-.9 1.55-1.05 1.1-.45 1.75.35.5.7-.15 2.3-1 2.3-1.85 5.9v.05l.05-.05q1.8-.85 3.7-.7l2 .45-1.4-4.2q-.4-1.35 0-1.95.25-.3 1.3-.55l3 .1q-1.1-2.25-2.35-3.85-1.1-1.55-1.1-2.25-.05-1.2 1.6-2.75l3.25-2.95 2.65-2.6q.9-.9 1.35-1.2.8-.6 1.6-.55.8 0 1.4.65t.55 1.45q-.05 1-1.5 2.35l-3.5 2.8q-2.2 1.7-3.3 3.05l1.55 2.65h.05l.7.1.7.4 1.05.45.85.25 2.35 1.05 1.4.75v1.55l-1.9-.5-3.65-.7h-.2l.25.65q.55 1.7-.25 2.35l-1.55.35-3.6-.4.95 4.8q1.1.9 1.85 2.15l.25.55.8.1 2.4.2 1.2.15q.5.25.6.75l.15 1.4q.15.95-.1 2.6-.3 1.8-.25 2.6l2.25.7.8.55v2.3l-.25.1-2.1-.2-1.55-.4q-1.3-.2-1.75-.7t-.45-1.7q.1-1.8.35-3.2.45-2.15.3-2.95l-1.65-.3.2 1.3q.05 2.4-1.6 4.4Q65 36.4 63.05 37zm-49.8-6.7.35.55.5.45 1 .05q2-.3 2.75-1-.65-.95-.7-1.95l-.15-.5-.3-.1q-.95-.2-1.9.3-.95.45-1.4 1.35-.3.45-.15.85"/><path d="m24.75 12.15.25-.75-.1-.75-.15-3 .2-1.65.25-1.05q.3-.75 1.15-1L27.9 4l2.65.6.65.2q2.05-.85 4.3-.95V3.8h2v.05q2.3.15 4.3.95l.65-.2L45.1 4l1.55-.05q.85.25 1.15 1L48.05 6l.2 1.65-.15 3-.1.75.25.75q.55 1.85.3 3.8-.3 1.95-1.35 3.55-1.25 1.85-3.35 3l-1.2.55h.05l2.15 1.6q3.1 2.05 5.1 2.95 2.95 1.4 5.55 1.45.6-1.65 1.9-2.75 1.4-1.2 3-1.25 1.3 0 2.6.85 2.05 1.3 2.5 3.55.5 2.35-1.05 4.15-1.25 1.4-3.25 1.8-1.65.4-3.8.05l-3.05-.6Q49.9 33.7 47.1 31.8l-1.25-.95q1.2 3.6 2.05 8.45.35 2.25-.05 3.35H25.2q-.45-1.1-.1-3.35.85-4.85 2.05-8.45l-1.25.95q-2.8 1.9-7.25 3.05l-3.05.6q-2.15.35-3.8-.05-2-.4-3.25-1.8Q7 31.8 7.5 29.45q.45-2.25 2.5-3.55 1.3-.85 2.6-.85 1.6.05 3 1.25 1.3 1.1 1.9 2.75 2.6-.05 5.55-1.45l5.1-2.95 2.15-1.6h.05l-1.2-.55q-2.1-1.15-3.35-3-1.05-1.6-1.35-3.55-.25-1.95.3-3.8m15.5-2.25.55.45.95.25.35-.35-.05-.55-.25-.25-.1-.3 1.1.3.7.9v.45l-.3.25q-.85.6-2 .35l-.65-.25q-.75-.45-1.25-1.85-.2-.8-.1-1.2l.75-.8.5-.3.35-.8-.65-.65-.7.1q-1.5.6-1.8 2L37.6 8.7q.1 1.3.4 1.85l.4 1 .7.8.8.55.75.35.85.1 2.1-.2q.95-.4 1.5-1.2l.25-.5v-.65l-.15-1.1q-.3-.85-.95-1.35L43 7.5l-.65-.15-1.2.05q-.7.25-.95.8l-.1.95q0 .5.15.75m-7.8 6.75 1.4-.4.95-.4.9-.6.65-.65.65.65.9.6.95.4 1.4.4 2.9-.4 1.45-.55 1.2-.95.55-.65q.25-.6-.25-.75-.35-.15-.65.25l-.2.3-.35.1-.45.25-.5.2-2.7.15-2-.5q-1.05-.5-1.55-1.35l-.35-.6-.1-.1-.1-.2q-.35-.4-.8-.35-.45-.05-.8.35l-.1.2-.05.1-.4.6q-.5.85-1.55 1.35l-2 .5-2.7-.15-.5-.2-.45-.25-.35-.1-.2-.3q-.3-.4-.65-.25-.5.15-.25.75l.55.65 1.2.95q.55.35 1.45.55zm6.7 8.9-3.65-.3q-.8.05-1.65.4-2.2.8-3.3 3.2-.9 1.9-1 4.6 0 1.75.4 2.7.45 1.05 2 2.4l1.55 1.05q1.15.6 3 .75l3.25-.45q1.75-.7 2.4-2.15l.5-1.6q.4-1.6-.05-2.4l-.3.8-.45.8-.2.35-.9 1.05-1.4 1-2.1.15q-1.45-.05-2.6-.9l-.85-.75q-.8-.8-1-1.55l.05-1.1q.2-1.95.65-3.1.4-.95.95-1.4.3-.25 1.35-.55 1.25-.3 1.85 0l.75.7q.7 1.2.4 2.55-.2.85-.75 1.1l-.65-.05q-.35-.2-.3-.55l.25-.5.45-1.2-.45-.8q-.45-.3-.95-.25-.9.05-1.6 1.05t-.65 2.25q.05 1.3.85 2.2 1.1 1.25 2.8 1.15t2.75-1.3l.75-1.1q.95-1.7.65-3.8-.25-2.1-1.6-3.55zM32.45 9.9l.15-.75-.1-.95q-.25-.55-.95-.8l-1.2-.05q-.35 0-.65.15l-1.25.85q-.65.5-.95 1.35l-.15 1.1v.65l.25.5q.55.8 1.5 1.2l2.1.2.85-.1.75-.35.8-.55.7-.8.4-1q.3-.55.4-1.85l-.05-1.05q-.3-1.4-1.8-2l-.7-.1q-.45.1-.65.65-.05.45.35.8l.5.3.75.8-.1 1.2q-.5 1.4-1.25 1.85l-.65.25q-1.15.25-2-.35l-.3-.25v-.45q.2-.55.7-.9.55-.35 1.1-.3l-.1.3-.25.25q-.15.25-.05.55l.35.35q.35.15.95-.25z"/><path fill="#fff" d="M40.25 9.9q-.15-.25-.15-.75l.1-.95q.25-.55.95-.8l1.2-.05.65.15 1.25.85q.65.5.95 1.35l.15 1.1v.65l-.25.5q-.55.8-1.5 1.2l-2.1.2-.85-.1-.75-.35-.8-.55-.7-.8-.4-1q-.3-.55-.4-1.85l.05-1.05q.3-1.4 1.8-2l.7-.1.65.65-.35.8-.5.3-.75.8q-.1.4.1 1.2.5 1.4 1.25 1.85l.65.25q1.15.25 2-.35l.3-.25v-.45l-.7-.9-1.1-.3.1.3.25.25.05.55-.35.35-.95-.25zm-7.8 6.75-2.9-.4q-.9-.2-1.45-.55l-1.2-.95-.55-.65q-.25-.6.25-.75.35-.15.65.25l.2.3.35.1.45.25.5.2 2.7.15 2-.5q1.05-.5 1.55-1.35l.4-.6.05-.1.1-.2q.35-.4.8-.35.45-.05.8.35l.1.2.1.1.35.6q.5.85 1.55 1.35l2 .5 2.7-.15.5-.2.45-.25.35-.1.2-.3q.3-.4.65-.25.5.15.25.75l-.55.65-1.2.95-1.45.55-2.9.4-1.4-.4-.95-.4-.9-.6-.65-.65-.65.65-.9.6-.95.4zm6.7 8.9 1.2.9q1.35 1.45 1.6 3.55.3 2.1-.65 3.8l-.75 1.1q-1.05 1.2-2.75 1.3T35 35.05q-.8-.9-.85-2.2-.05-1.25.65-2.25t1.6-1.05q.5-.05.95.25l.45.8-.45 1.2-.25.5q-.05.35.3.55l.65.05q.55-.25.75-1.1.3-1.35-.4-2.55l-.75-.7q-.6-.3-1.85 0-1.05.3-1.35.55-.55.45-.95 1.4-.45 1.15-.65 3.1l-.05 1.1q.2.75 1 1.55l.85.75q1.15.85 2.6.9l2.1-.15 1.4-1 .9-1.05.2-.35.45-.8.3-.8q.45.8.05 2.4l-.5 1.6q-.65 1.45-2.4 2.15l-3.25.45q-1.85-.15-3-.75l-1.55-1.05q-1.55-1.35-2-2.4-.4-.95-.4-2.7.1-2.7 1-4.6 1.1-2.4 3.3-3.2.85-.35 1.65-.4zM32.45 9.9l-.55.45q-.6.4-.95.25l-.35-.35q-.1-.3.05-.55l.25-.25.1-.3q-.55-.05-1.1.3-.5.35-.7.9v.45l.3.25q.85.6 2 .35l.65-.25q.75-.45 1.25-1.85l.1-1.2-.75-.8-.5-.3q-.4-.35-.35-.8.2-.55.65-.65l.7.1q1.5.6 1.8 2l.05 1.05q-.1 1.3-.4 1.85l-.4 1-.7.8-.8.55-.75.35-.85.1-2.1-.2q-.95-.4-1.5-1.2l-.25-.5v-.65l.15-1.1q.3-.85.95-1.35l1.25-.85q.3-.15.65-.15l1.2.05q.7.25.95.8l.1.95z"/></g></svg>