<svg xmlns="http://www.w3.org/2000/svg" xmlns:ffdec="https://www.free-decompiler.com/flash" ffdec:objectType="shape" width="76.15" height="43.15"><g fill-rule="evenodd"><path d="m59.45 11.65.75-.75q1.5-1.2 2.7-1.4h1.7q1.6.1 2.25.65l.35.25.3-.15.65-1.25.3-1.55q.25-1.05 1.3-1.15.95-.2 1.3.6l-.05.75q-.2.4-.6.45l-.25 2-.25.85-.6.75-1.5.95q-.65.25-1.35 0l-.65-.15q-.4 0-.85.35l-.9.7-.5.9-.55.85q-.5.5-1.45.6-1.7.2-2.35-.95-.35-.55-.15-1.95.1-.85.4-1.35M61.3 22.3l1.75-.9.9-.2 1.35-.2q1.35-.05 2.75.75.8.45 1.15 1l.5.55.45-.15.95-.6.9-.5h.2l.3.2.25.35-.45.9-.1.1-2 1.45q-1.4.6-2.7-.35-.95-.65-1.25-.65-.35.05-.75.35l-.6.6-.6.9q-.7.55-1.95.55-.9-.05-1.35-.4-.7-.4-.8-1v-.75q.2-1.2 1.1-2m3.1 12.35-.95.2-.85.55q-1.3.95-2.4.75-.55-.1-1.05-.5l-.55-.75-.2-1.05q-.05-.6.15-1.2l.5-.75 1.1-.9q1.2-.65 3-.5 1.35.15 2.25.8 1.2.75 1.55 1.85l.25 1.4v1.1q1.2.25 2.25-.55l.75-.45q.45-.25.95.15.45.35.35.9l-.35.7-1.15.9-2.5.45-1.2-.2-.85-.55-.65-.75-.2-.8zm-54.1 0-.2.8-.2.8-.65.75-.85.55-1.2.2-2.5-.45-1.15-.9-.35-.7q-.1-.55.35-.9.5-.4.95-.15l.75.45q1.05.8 2.25.55v-1.1q-.1-.65.25-1.4.35-1.1 1.55-1.85.9-.65 2.25-.8 1.8-.15 3 .5l1.1.9.5.75.15 1.2-.2 1.05-.55.75-1.05.5q-1.1.2-2.4-.75l-.85-.55zm3.1-12.35q.9.8 1.1 2v.75q-.1.6-.8 1-.45.35-1.35.4-1.25 0-1.95-.55l-.6-.9-.6-.6q-.4-.3-.75-.35-.3 0-1.25.65-1.3.95-2.7.35L2.9 24l-.5-.5q-.45-.5-.45-.9l.25-.35q.25-.25.5-.2l.2.1.7.4q.5.4.95.6l.45.15.5-.55q.35-.55 1.15-1 1.4-.8 2.75-.75l1.35.2.9.2zm1.85-10.65q.3.5.4 1.35.2 1.4-.15 1.95-.65 1.15-2.35.95-.95-.1-1.45-.6l-.55-.85-.5-.9-.9-.7q-.45-.35-.85-.35l-.65.15q-.7.25-1.35 0-.6-.15-1.5-.95l-.6-.75-.25-.85-.25-2q-.4-.05-.6-.45-.2-.35-.05-.75.35-.8 1.3-.6 1.05.1 1.3 1.15L6.55 9l.65 1.25.3.15.35-.25q.65-.55 2.25-.65h1.7q1.2.2 2.7 1.4z"/><path fill="#999" d="M7.2 0h22.15l10.8.05 10.3.05 2.25.05 4.45.05 2.15.05 6.2.05 6.9.05.6.05.3.05.2.05.15.05.3.1.3.15.2.15.05.15.1.1.05.15.05.15.05.15v.7l.05.1v.15l.05.15v.3l.1.15.05.15.05.15.1.1.05.15.05.15.05.15v.45l-.05.15-.05.1-.05.15v.75l.05.15v10.95l.05.15v2.85l.05.15V31l.05.15v3.9l.05.1v3.15l.2.1.1.15.1.15.1.1.1.15.05.15.05.15.05.15v.55l-.05.15-.05.15-.05.15-.1.15-.1.15-.1.15-.1.15-.25.15-.3.1-.55.1h-.1l-.25.1-.4.05-.5-.1-.15-.05h-35l-7.4-.05h-3.3l-4.25-.05L20 41.2l-16.05-.05h-.9v.3L3 41.6v.3l-.05.15-.05.15-.05.15-.05.1-.15.15-.15.15-.2.15-.15.1-.1.05-.2.05-.3.05-.35-.05-.3-.1-.25-.15-.2-.15-.1-.15-.1-.15-.1-.1-.05-.15L.05 42v-.3L0 41.55V31.6l.05-.15V26l.05-.15v-1.3l.05-.15v-7.2l.05-.15v-5.9L.25 11v-.4l.05-.15v-.6l.05-.15V8.3L.3 8.15V7.4l.05-.15V4.7l.05-.15V3.8l.05-.15V3.1l.05-.15V2.8h.05L.5 2.75.45 2.6.4 2.45l-.05-.1L.3 2.2v-.15L.25 1.9l.05-.15v-.3l.05-.15.05-.15.05-.1.1-.15.1-.15L.8.6 1 .45 1.35.3 1.6.2l.1-.05.4-.05L3.25.05H7.2zm57.2 34.65.2.8.2.8.65.75.85.55 1.2.2 2.5-.45 1.15-.9.35-.7q.1-.55-.35-.9-.5-.4-.95-.15l-.75.45q-1.05.8-2.25.55v-1.1l-.25-1.4q-.35-1.1-1.55-1.85-.9-.65-2.25-.8-1.8-.15-3 .5l-1.1.9-.5.75q-.2.6-.15 1.2l.2 1.05.55.75q.5.4 1.05.5 1.1.2 2.4-.75l.85-.55zM61.3 22.3q-.9.8-1.1 2v.75q.1.6.8 1 .45.35 1.35.4 1.25 0 1.95-.55l.6-.9.6-.6q.4-.3.75-.35.3 0 1.25.65 1.3.95 2.7.35l2-1.45.1-.1.45-.9-.25-.35-.3-.2H72l-.9.5-.95.6-.45.15-.5-.55q-.35-.55-1.15-1-1.4-.8-2.75-.75l-1.35.2-.9.2zm-1.85-10.65q-.3.5-.4 1.35-.2 1.4.15 1.95.65 1.15 2.35.95.95-.1 1.45-.6l.55-.85.5-.9.9-.7q.45-.35.85-.35l.65.15q.7.25 1.35 0l1.5-.95.6-.75.25-.85.25-2q.4-.05.6-.45l.05-.75q-.35-.8-1.3-.6-1.05.1-1.3 1.15L68.15 9l-.65 1.25-.3.15-.35-.25q-.65-.55-2.25-.65h-1.7q-1.2.2-2.7 1.4zm-44.2 0-.75-.75Q13 9.7 11.8 9.5h-1.7q-1.6.1-2.25.65l-.35.25-.3-.15L6.55 9l-.3-1.55Q6 6.4 4.95 6.3q-.95-.2-1.3.6-.15.4.05.75.2.4.6.45l.25 2 .25.85.6.75q.9.8 1.5.95.65.25 1.35 0l.65-.15q.4 0 .85.35l.9.7.5.9.55.85q.5.5 1.45.6 1.7.2 2.35-.95.35-.55.15-1.95-.1-.85-.4-1.35M13.4 22.3l-1.75-.9-.9-.2L9.4 21q-1.35-.05-2.75.75-.8.45-1.15 1l-.5.55-.45-.15q-.45-.2-.95-.6l-.7-.4-.2-.1q-.25-.05-.5.2l-.25.35q0 .4.45.9l.5.5 1.6 1.05q1.4.6 2.7-.35.95-.65 1.25-.65.35.05.75.35l.6.6.6.9q.7.55 1.95.55.9-.05 1.35-.4.7-.4.8-1v-.75q-.2-1.2-1.1-2m-3.1 12.35.95.2.85.55q1.3.95 2.4.75l1.05-.5.55-.75.2-1.05-.15-1.2-.5-.75-1.1-.9q-1.2-.65-3-.5-1.35.15-2.25.8-1.2.75-1.55 1.85-.35.75-.25 1.4v1.1q-1.2.25-2.25-.55l-.75-.45q-.45-.25-.95.15-.45.35-.35.9l.35.7 1.15.9 2.5.45 1.2-.2.85-.55.65-.75.2-.8z"/><path d="M25.05 38.2q-3.7-1.6-5.3-3.4-2.9-3.15-2.9-9.35 0-5.4 2.15-10.2l-.2-.65v-.1l-.5-1.1-.4-1.6-.25-.5-.85-3.15q-.55-1.9-.6-3.3l.2-1.2q.4-.75 1.2-.9l1.2.1q2.5.65 6.5 2.9l1.25.65q4.75-3 11.1-3.1 4.3-.1 7.6 1.4 1.6.7 3.25 1.95 1.2-.7 3.55-1.5L55.7 3.8l1.75-.7q1.2-.2 1.75.45.6.65.4 1.8l-.2.8-3.6 9.05.25.6q.65 1.5 1 4.1.6 4.85-.7 9.2-1.45 4.7-4.85 7.5-5.25 4.3-15.85 3.9l-5.4-.6q-2.2-.45-5.2-1.7m25.7-14.45.8-1.55.45-1.7-.2-.95-.25-.55-5.55.7-6.2.85-.8.1q.05.75.65 1.65l1 1.35 1.1 1 3.3-.3 4.8.3zm-23.7 6.35 1.3-.4h.15q-.25.6-.35 1.4v.05h-.05l-2.3.1q.45-.75 1.25-1.15m5.7.15-2.05.4-.2-.95v-.35l1.35.05 1.05.25zm-9.5-6.5.9.9 4.8-.3 3.3.3 1.1-1 1-1.35q.6-.9.65-1.65l-.8-.1-6.2-.85-5.55-.7-.25.55-.2.95.45 1.7zm5.3-8.9q.2.5.85.6l1.05-.25.6-.3.65-.15q.75.1 1.2.9.55.9 1 .9.65 0 .65-.8.05-.4-.4-1.05-1-1.45-2.3-1.7l-1.8.1q-.8.2-1.2.55-.6.6-.3 1.2m5.15-3.25 1.3 1.7q.65.65 1.1.7.7.15 1.1-.7.25-.7-.25-1.35l-.85-.8q-.5-.5-.5-1t.55-.8l.45-.2q.25-.25-.05-.55L36 8.4q-1.35-.1-2.1 1.2l-.25.85q-.15.5.05 1.15m-3.45-3.7.05 1q0 1.2-1.4 1.65l-1 .5q-.35.6.35 1.1l1.25.05q1.15-.3 1.95-1.25.8-1 1-2.2.2-.9-.25-1.4-.4-.6-1.15-.4-.7.25-.8.95m-3.6 19.2q-2.05.8-3.05 2.05-1.3 1.75-.7 3.5l.65 1.05q.7.55 1.7.65l3.7-.05 3.7-.65 7.05-.35 7.05.35q1.8.1 2.45-.55l.55-1.2q.35-1.4-.25-2.5-.85-1.45-3.2-1.9l-7.9.2-.05-.5-.1-1.2q-.25-.75-.85-.8-.7-.05-1.05.9l-.05 1.5-.05.45-1.65-.6q-3.85-1.8-7.95-.35"/><path fill="#fff" d="m50.75 23.75-.9.9-4.8-.3-3.3.3-1.1-1-1-1.35q-.6-.9-.65-1.65l.8-.1 6.2-.85 5.55-.7.25.55.2.95-.45 1.7zm-24.1 3.35q4.1-1.45 7.95.35l1.65.6.05-.45.05-1.5q.35-.95 1.05-.9.6.05.85.8l.1 1.2.05.5 7.9-.2q2.35.45 3.2 1.9.6 1.1.25 2.5l-.55 1.2q-.65.65-2.45.55l-7.05-.35-7.05.35-3.7.65-3.7.05q-1-.1-1.7-.65l-.65-1.05q-.6-1.75.7-3.5 1-1.25 3.05-2.05m3.6-19.2q.1-.7.8-.95.75-.2 1.15.4.45.5.25 1.4-.2 1.2-1 2.2-.8.95-1.95 1.25l-1.25-.05q-.7-.5-.35-1.1l1-.5q1.4-.45 1.4-1.65zm3.45 3.7q-.2-.65-.05-1.15l.25-.85q.75-1.3 2.1-1.2l.55.2q.3.3.05.55l-.45.2q-.55.3-.55.8t.5 1l.85.8q.5.65.25 1.35-.4.85-1.1.7-.45-.05-1.1-.7zm-5.15 3.25q-.3-.6.3-1.2.4-.35 1.2-.55l1.8-.1q1.3.25 2.3 1.7.45.65.4 1.05 0 .8-.65.8-.45 0-1-.9-.45-.8-1.2-.9l-.65.15-.6.3-1.05.25q-.65-.1-.85-.6m-5.3 8.9-.8-1.55-.45-1.7.2-.95.25-.55 5.55.7 6.2.85.8.1q-.05.75-.65 1.65l-1 1.35-1.1 1-3.3-.3-4.8.3zm9.5 6.5.15-.6-1.05-.25-1.35-.05v.35l.2.95zm-5.7-.15q-.8.4-1.25 1.15l2.3-.1h.05v-.05q.1-.8.35-1.4h-.15z"/></g></svg>