<svg xmlns="http://www.w3.org/2000/svg" xmlns:ffdec="https://www.free-decompiler.com/flash" ffdec:objectType="shape" width="77.15" height="37.25"><g fill-rule="evenodd"><path fill="#999" d="M64.55 11.45Q64.2 11 63.8 10l-.65-1.5-.45-.65-.55-.2-.95-.2-.6-.3q.1-.35.8-.45l1.35-.3.9-.1.6.7 1.25 2.95.2.25.45-.05.8-.15.7.25.2.55 1.05 5.6.05.6-.4.4q-.3 0-.55-.6l-.8-3.5-.35-2-1.05.4-.5.2q-.5 0-.75-.45M67.5 21q.55 0 1.3.9l.7.35.55.45q.2.4-.2.75-.35.35-.8.3-.6-.05-1.45-.9.05.9-1.15 1.1l-1.75.1-.65.25-.8-.55-.2-1-2.5.15-.7.45-.75.05q-.5-.2-.6-1.05l-.25-2.05-2.1 3q-.8 1.05-1.45.75-.55-.2-.55-1.25l-.1-3.75q-.15-1.45-.65-2.5h-.5q-.4-.2-.4-.55l.2-.25-3.95 2.55q-.9.7-1.65.9l-.8-.05q-.4-.3-.25-.65.15-.25.5-.35 1.15-.5 2.95-1.9l2.85-2 1.5-.2.65.75.1.25.65-.2 2.15-.7q1.2-.55 1.65-.35l.7.95q.4 1.3.4 2.5l1.05-.15q.65.1.85.6l.1.65.6 1.05.5 1.35.1.15.85.45q.55.65.25 1.25l1.9-.05.25-1.05q.4-.55.9-.5M49.85 8.8q.4 1.2-.05 1.75-.45.5-1.05.25-.55-.25-.75-1.05l-.35-1.35-.45-.45h-.5q-3.1.6-4.45 1.15l-1.15.3q-.85-.15-1.2-1.15l-.35-.8-.45-.75q-1.15.4-2.55 1.95l-2.45 2.3-.75.15q-.35-.25-.15-.7l.5-.6 2.45-2.5q.8-.85 2.5-2.15.7-.6 1.25-.55l.85.6.85 1.8 4.55-1.1 1.45-.1q.9.15 1.55 1.15zm5.85 12.25 1.85-2.65q.55-.8.85-.95l.2-.05-.05-.4-.2-.9-.2-.65-3 .8q.8 2.25.55 4.8m4.25.35q.8-.5 1.7-.6l-.1-.25-.7-1.2-.35-.4-.5.05zm-9.3 6q.2-.5.85-.5.6.1.95.45l.65.75.15.15.2-.1 1.3-1.35q1-.85 1.5-1l.45.05q.25.15.15.6-.9.9-1.25 1.45l-.4.7-.7.8q-.75.85-1.15.9t-1-.45L51.5 29l-.4.7q-.6 1-1.6 2l-.55.15-.2-.3.05-.35.3-.8.35-.75.75-1.15.3-.65zm-17.7-16.9q.3.4.15.75-.1.6-.9.5l-.9-.6-1.05-1.6-1-1.9-.45.8-.45.75-.75.25h-2l-.95-.1-.35.1-.3.4-1.15 2.4-.45.7-.95.2q-.6-.15-.75-.7l.05-.8-1.6-.5-1.55-.8q-.2 1.45-.1 3.45.1 1.1-.35 1.5l-1.1.3q-1.35.1-1.8.65l-.4.75-1 1.9-.2.15-.1-.1q-.45-.5-.25-1.5l.35-1.55.1-.6.65-.6q1.15-.7 2.45-.7l.2-3.9q0-.4.15-.7.3-.65 1.2-.55.55.05 1.35.55l2.55 1.05.25-.55.25-.45L21.2 8l-.75-1.3q-.15-.15-.25-.15l-.4-.05-.55-.15-1.15-.25q-.25-.3-.15-.65.1-.5.7-1.1.45-.55.9-.75l.9-.2 2-.15-.55-1.5q-.4-1 .05-1.55l.7-.2q.45.05.65.4l.3.95.2.5L24 4l-.2.85q-.2.3-.75.3l-.8-.15q-.85-.2-2.2 0h.8l.65.45.3.65.7 1.1.15.3q.4-.25 1.15-.3l2.45.1h.65l.65-.8q.7-1.1 1.9-1.1.6 0 .9.3l.35.55.95 1.9.75 1.45zm-1.9 15.35-.35 1.9 2.25.25q2.05.3 2.75.7l.85.55.95.35.8.15q.45.2.45.7.1.55-.55.85l-1 .3-2.4.4-.5.15-.15.45 3.4-.65q1.6-.2 2.4 0l.65.6-.25.5q-2 2.8-3.85 3.7l-.85-.05q-.1-.3.35-.65l2.65-2.7-4.5.75H32.8q-.8-.2-.9-.9l.25-.7.35-.65.25-.7.35-.65.9-.25.95-.05-2.7-.6h-1.3l-.8.2q.3.5-.15 1.15-.55 1.05-2.7 1.85-2.1.8-2.75 1.8l3 .25-.2-.75.1-.65q.2-.3.55-.3l.65.25.7 1.2.25.75-.25.7-.75.25q-2.55.25-5-.6l-.7-.45q-.25-.4.05-.85l.6-.7 2.35-1.75 1.05-.45 1.05-.55-4.95.95h-.75l-.5-.5.2-.95q0-.3-.4-.85l-.45-.85-.05-.2-.3-.1-1.3.3-.05 1.45-.85.9-.7.3-.6-.25h-.6l-1.1-.05q.95.75.85 2.6-.1 1.2-.75 1.7-.8.6-1.95 0l-1.8-1-1.05 1.3-.65.55q-.55.2-.85 0l-.45-.7-.1-1.6q0-1.65-.6-3.25L6.45 33 4.4 35.1q-1.2 1.65-1.95 2l-.55.15-.4-.35q-.05-.35.5-.7l1-.95.8-1.1 2.1-2.35L6.95 30l.8-1.15.5-.45q.55-.15.9.3l.45.9q.7 2.4.7 4.75l.65-1q.5-.5 1.05-.5.45-.05 1.2.4l1.5.8q.6-.65.1-1.65l-1.05-1.45q-.75-.9-.55-1.5.25-.65 1-.65h.4q.1-.2.35-.3.55-.25 1.35 0 .85.3 1.6.95v-.85q-.15-.6 0-.9.3-.5.95-.6l1.2-.15 1.2-.4q.85-.2 1.15.3l.2.85.6 1.35q.45.85.4 1.4l2.7-.5 2.7-.5h.15q-.15-.25-.15-.7-.1-1.4.2-2.6-1.65.9-3.15 1.45l-.8.15q-.6-.1-.65-.5-.1-.4.5-.9l1.25-.6 1.25-.6 1-.65 1.25-.15q.8 0 1.05.3.35.35.15 1.2M14.6 7.15l.2 1.5-.5 1.1q-.9 1.4-2.45 2.15l.35 2.5q.1.65-.25 1.05l-1 .3-5.7.35 1.5 3.25.15.85-.65.7q-2 1.35-2.3 3.65L6.6 21.9q.5-.6.85-.75l1.25-.1 1.05.3 1.05.05.95.1q.2.25 0 .55l-.5.4-2.45-.15h-.65q-.35.05-.8.6l-3 3.4-.75.65-.9-.05q-.3-.25-.3-1.1 0-1.95.45-3.1l1.5-2.3.4-.8-.2-.8q-.3-.85-1-1.85l-.5-1.05q-.25-.6 0-1.05.3-.55 1.1-.65l1.3.05 5.2-.2-.45-2.4q-.1-.7.1-.95.15-.2 1.1-.55l1.1-.9.5-.75-.05-1.05L12.5 6q-.2-.85-.65-.9l-.5.1-.5.3-.85.1q-.5-.15-.55-.55-.2-.75.95-1.2.9-.4 2-.5l.8.15q.4.2.6 1z"/><path d="M71.1 7.7q0-.5.35-.95t.9-.55l1 .1q.55.2.8.65l.35 1.25.25 3.2q0 .65-.35.7l-.4-.25-2.1-2.4q-.8-1-.8-1.75M69 24.9q-.8-1.5-.65-3.65l.1-.65-1.15-.9q-.9-.65-.9-2l.2-.95q.25-.7.95-1.5l1-.9q.75-.45 1.7-.45l1 .15q.95.2 1.7.8.8.65 1 1.55l.05.4q1.15-.05 2 .4l1.15.95V25l-.65.7-.6.6.65 1.6q.3 1.25.1 3.35l-.25 1.2-.6 1.05-1.1 1.5q-1.75 1.75-4.5 1.3l-1.05-.25-.75.3-3.2.15-1.35-.3-1-.85-.4-.6-.3-.3q-1-.15-1.65.55l-.4.35-.5.05q-.25-.15-.15-.55l.35-.5.85-.9q.55-.35 1.6-.45l1 .05q.4.15 1.1.75l1.45.2.75-.05-.25-.4q-.9-1.55-.1-3.75.6-1.55 2.35-3.1l1.15-.8zm6-2 .05-1.7q-.2-.9-.85-1.5-1.5-1.35-3.3-.55-.8.4-1.3 1.15-.5.8-.5 1.65.1 1.35 1 2.2.95.9 2.25.8 1.3-.15 2.15-1.15l.25-.35zm-.55-7.8q-.55-.55-.4-1.25.1-.85.9-1.1t1.4.35.35 1.35q-.15.6-.7.85-.85.4-1.55-.2m-35.75 14-2.65-.7.3.75.65 1 .6 1.35q.85 2.45.5 3.6-.5 1.45-2.1 1.8-1.55.25-2.55-1-.45-.6-.65-1.6l-.25-1.8-.45-2.5-.45-2.55-.15-1.85-.1-.6h-.7l-2.35-.1L27 25l.4.45 1.75 2.2q.5 1.1.6 2.4.15 2.6-1.1 4.45l-1.1 1.05q-.7.4-1.5.4l-1.5-.55q-.65-.55-.9-1.3-.25-.8-.05-1.6.7-1.4.7-2.2l-.3-1.35-1.15-2.2-1.9 1.25q-2.15 1.4-3.65 1.75l-.8.15-.45 1.05L14.9 33l-1.15 1.15-2.15.45-4.4.15-2.8-.3q-.95-.4-1.45-1.35-.55-1-.35-1.95.25-1 1.1-1.7.9-.65 1.9-.5l1.9.65 1.95.25 1.9.1.9-.1.45-.4-.1-.05q-2.05-.65-3.05-1.7l-.85-1.3-1.3.2q-2.45.35-4.2-.65Q.75 24.7.15 21.75q-.5-2.6.95-5.15 1.25-2.1 4.85-4.55l.55-.6q.15-.45-.35-.95L5.1 8.85q-.5-1.25-.05-2.6.4-1.4 1.55-2.1 1.1-.75 2.55-.7 1.4.05 2.55.85 1.2.8 1.75 2.15.65 1.55.3 3.4-.35 1.7-1.45 3.15l-2.4 2.5-2.75 2.1-1.7 1.65q-.85 1.2-.1 2.25.65.8 2.4.9l.6.05q.35-1.5 1.3-3.3 2.6-4.6 7.75-7.7 2.7-1.6 5.05-2.05l4.2-.3q3.45.15 5.7 1.1l.6-2.1 1.1-2.25L35.1 4.5q.65-.5 1.65-.35l1.2.6 2 1.55q1.55-.25 3.7-.05 2.1.35 3.8 1.1l2.45 1.6 2.9-.45 1.3.15q.75.2.95.85l.05 1-.4 4.3-.55 2.75-.1.45.4-.05h2.35q1.15.15 2.5.85 1.25.75 1.85 1.65l.75.15.7.65.25 1q-.1 1.1-1.15 1.45l-.7.1-.4.35q-1.25 1-2.65.4L57 24l-1-.65q-1.15-.7-3.4-.75l-.15.3q-.95 1.9-2.5 3.4-1.65 1.55-3.45 2.25l-4.2.65zm.9-14.05q-1.6-.9-3.25-.05-1.65.9-1.8 2.7l-.05.7q.1 1.55 1.15 2.6l1.7.9 1.95-.05q.95-.35 1.6-1.15.7-.8.8-1.8V18l-.45-1.15-.55-.95q-.45-.5-1.1-.85m35.55 9.4-.3.15-.8.6-.45.65-.05.2q-.1.25.2.35l.45.15.55-.25 1.25-.8.15-.45-.15-.35q-.35-.4-.85-.25m-32.05 0q1.2.9 2.1.4t.9-1.8l-.2-.7q-.35-.35-.6-.15-.35.15-.25.65l-.15.8-.4.15-.35-.2-.2-.55-.8-.1-.5.65q-.65.15-1.1-.35l.45-.55q.3-.4.2-.65-.15-.35-.55-.15l-.45.45-.5 1q-.1.45.1.65l.55.45q.9.4 1.75 0m9.9-5.4-.35-.7q-.5 1.15-1.75 1.8l-1.85.55-2.1.15-.6-.1.25 1q.45.95 1.25 1.5 1.2.8 2.6.55t2.25-1.4q.5-.7.6-1.65.05-.9-.3-1.7"/><path fill="#fff" d="m75 22.9-.25.55-.25.35q-.85 1-2.15 1.15-1.3.1-2.25-.8-.9-.85-1-2.2 0-.85.5-1.65.5-.75 1.3-1.15 1.8-.8 3.3.55.65.6.85 1.5zm-22-3.85q.35.8.3 1.7-.1.95-.6 1.65-.85 1.15-2.25 1.4t-2.6-.55q-.8-.55-1.25-1.5l-.25-1 .6.1 2.1-.15 1.85-.55q1.25-.65 1.75-1.8zm-9.9 5.4q-.85.4-1.75 0L40.8 24q-.2-.2-.1-.65l.5-1 .45-.45q.4-.2.55.15.1.25-.2.65l-.45.55q.45.5 1.1.35l.5-.65.8.1.2.55.35.2.4-.15.15-.8q-.1-.5.25-.65.25-.2.6.15l.2.7q0 1.3-.9 1.8t-2.1-.4m32.05 0q.5-.15.85.25l.15.35-.15.45-1.25.8-.55.25-.45-.15q-.3-.1-.2-.35l.05-.2.45-.65.8-.6zm-35.55-9.4q.65.35 1.1.85l.55.95.45 1.15v.9q-.1 1-.8 1.8-.65.8-1.6 1.15l-1.95.05-1.7-.9q-1.05-1.05-1.15-2.6l.05-.7q.15-1.8 1.8-2.7 1.65-.85 3.25.05"/></g></svg>