<svg xmlns="http://www.w3.org/2000/svg" xmlns:ffdec="https://www.free-decompiler.com/flash" ffdec:objectType="shape" width="66.45" height="34.1"><g fill-rule="evenodd"><path fill="#999" d="m43.15 24.15.35-.65v-.7q0-1.2.95-1.75-.55-.8-.05-1.7.4-.55 1.5-.95 7.4-2.8 15.4-2.1l2.95.65q1.6.7 2.05 2.1.4 1.45-.4 2.7l-1.9 2q-2.8 1.85-7.65 2.5l-4.2.4v.3l-.15 1.5-.8 1-1.35 1.05q-1.5.8-4.25.7l-3.1-.2-1.5-.15-1.65-.05q-.95-.2-1.4-1.25-.35-1.05.35-1.85.55-.55 1.4-.7l1.55.05 1.3.15.8-.65.15-.1-.5-.9q-.2-.75.15-1.4m19.45 6q-1.3.7-4 .7l-1.65-.1-1.2-.35-.95-1q-.25-.8.25-1.35l.65-.4 1.1-.4 3.3-.05 2.35.1.55.2.5.75q.2.7-.1 1.2zM2.2 1.9q.75-.55 2.1-1.2L5.55.25 6.9.15q2.1.15 3.4 1.4 1.55 1.35 1.65 3.2.05 1.05-.4 2.5l-.65 1.2-.65.75.4.7q.2.6 0 1.1l-.55.75-1 .7-1.35-.2-.35.45q-.4.45-1.05.55L5.25 13l-.55-.8q-.45.5-1.15.5t-1.25-.55q-.45-.4-.55-.95l.15-.8Q.3 9.55.05 7.7V6.65Q.3 3.5 2.2 1.9m2.4 6.85q.5-.75.25-1.55Q4.7 6.35 3.9 6l-1.4-.1q-.75.2-1.1.85t-.15 1.4.8 1.1q.6.4 1.35.25.8-.15 1.2-.75m5.35-3.2q-.4-.45-1.1-.5l-1.15.3q-.55.35-.75.95-.2.65 0 1.2l.8.95 1.2.25q.6-.05 1.05-.55l.55-1.1q.1-.8-.6-1.5M13.2 21.9q.4-.4.9-.55l2.1-.35 1.3.15 1.1.4.5.75q.15.5-.1.85l-.75.75q-1.7.95-3.5.5-1-.25-1.45-.85-.65-.9-.1-1.65m-6.5 5q5.7-1.95 11.35-1.2l1.55.3 1.5.5q.85.4 1.05 1.15.3 1.1-.75 1.85-.7.5-2 .8-7.15 1.6-11.55.85-1.5-.3-2.25-.85-.5-.4-.7-1t.05-1.15q.3-.75 1.75-1.25"/><path fill="#fff" d="M9.95 5.55q.7.7.6 1.5L10 8.15q-.45.5-1.05.55l-1.2-.25-.8-.95q-.2-.55 0-1.2.2-.6.75-.95l1.15-.3q.7.05 1.1.5M4.6 8.75q-.4.6-1.2.75-.75.15-1.35-.25-.6-.35-.8-1.1t.15-1.4 1.1-.85l1.4.1q.8.35.95 1.2.25.8-.25 1.55"/><path d="m13.25 12.15-.45-.95q-.05-.6.2-1.1.3-.5 1.45-1.25l9-5.25q1.3-.7 2.85-1.75L28.65.4Q29.2.15 30.9.05 39.5-.2 47.75 1.7l.65.2.3.05q.7.25.9 1.5L51 11.3q.8 5.35 1.35 7.85.4 1.95-.05 2.85-.4.65-1.45 1.3-5.3 3.7-9.95 8.3l-1.4 1.2-.05.05-.35.6-.7.45-1.4.15h-.5l-1.55-.35q-8.25-2.65-14.05-2.15l-2.5-.3q-.65-.5-1.05-1.9l-3.45-14.1-.55-2.6v-.4zm20.8-.15 5.65-3.9q3.55-2.55 5.75-3.75l.35-.2-13.95-.7-1.85.2q-.65.2-2.1 1.2l-3 1.9-5.25 3.1q2.55-.05 6.5 1l6.45 1.55.7.1zM47 6q-6.3 4.45-11.65 9.35l-.5.45.2.95q1.05 6.2 2.8 12.7 4.85-4.5 10.4-8.5l.6-.65v-.9l-.65-4.75q-.8-5.45-1.1-8.7zm-1 5.85q.55.55.55 1.4t-.6 1.45q-.45.45-1.15.6l-1.25-.2q-.6-.3-.95-.95-.3-.6-.2-1.25t.6-1.15q.55-.5 1.2-.6 1.1-.1 1.8.7m-6.7 10.8.05-.7q.25-.85 1-1.15 1.2-.6 2.15.4l.5 1.05-.2 1.15q-.65 1.15-2.05.9l-1-.6q-.4-.45-.45-1.05m-8.9-16.7q.85-.5 1.6-.65 1.05-.15 1.7.4.45.55.45 1.3-.1 1.1-1.15 1.7-.85.5-2 .4-.75-.1-1.15-.4-.45-.35-.55-.95-.1-.65.25-1.1zm-11.65 9.1q.5-1 1.65-.9 1.1 0 1.45 1.1.4 1.05-.45 1.85-.4.4-1.05.4-.65.05-1.15-.3-.45-.35-.6-1-.1-.6.15-1.15m5.55 8.15q-.85-.55-.95-1.55-.1-1.05.65-1.7.55-.5 1.4-.5.8.05 1.35.55.55.55.6 1.3.05.8-.4 1.4t-1.25.75-1.4-.25m3.8-8.25q-5.55-1.45-11.4-1.9l4 14.7q6.9-.3 13.7 1.95l-2.8-12.35-.2-1.6zm1.2 11.65q-.05-.55.25-1.1.5-.8 1.5-.8.75 0 1.25.45t.55 1.15q0 .7-.4 1.2-.4.55-1.1.65l-1.25-.3q-.7-.4-.8-1.25"/><path fill="#999" d="M29.3 26.6q.1.85.8 1.25l1.25.3q.7-.1 1.1-.65.4-.5.4-1.2-.05-.7-.55-1.15t-1.25-.45q-1 0-1.5.8-.3.55-.25 1.1m-1.2-11.65 3.3.8.2 1.6 2.8 12.35q-6.8-2.25-13.7-1.95l-4-14.7q5.85.45 11.4 1.9m-3.8 8.25q.6.4 1.4.25t1.25-.75.4-1.4q-.05-.75-.6-1.3-.55-.5-1.35-.55-.85 0-1.4.5-.75.65-.65 1.7.1 1 .95 1.55m-5.55-8.15q-.25.55-.15 1.15.15.65.6 1 .5.35 1.15.3.65 0 1.05-.4.85-.8.45-1.85-.35-1.1-1.45-1.1-1.15-.1-1.65.9m11.65-9.1-.85.7q-.35.45-.25 1.1.1.6.55.95.4.3 1.15.4 1.15.1 2-.4 1.05-.6 1.15-1.7 0-.75-.45-1.3-.65-.55-1.7-.4-.75.15-1.6.65m8.9 16.7q.05.6.45 1.05l1 .6q1.4.25 2.05-.9l.2-1.15-.5-1.05q-.95-1-2.15-.4-.75.3-1 1.15zm6.7-10.8q-.7-.8-1.8-.7-.65.1-1.2.6-.5.5-.6 1.15t.2 1.25q.35.65.95.95l1.25.2q.7-.15 1.15-.6.6-.6.6-1.45t-.55-1.4M47 6l.1-.05q.3 3.25 1.1 8.7l.65 4.75v.9l-.6.65q-5.55 4-10.4 8.5-1.75-6.5-2.8-12.7l-.2-.95.5-.45Q40.7 10.45 47 6m-12.95 6-.75.5-.7-.1-6.45-1.55q-3.95-1.05-6.5-1l5.25-3.1 3-1.9q1.45-1 2.1-1.2l1.85-.2 13.95.7-.35.2q-2.2 1.2-5.75 3.75z"/></g></svg>