<svg xmlns="http://www.w3.org/2000/svg" xmlns:ffdec="https://www.free-decompiler.com/flash" ffdec:objectType="shape" width="74.45" height="40.5"><g fill-rule="evenodd"><path fill="#717171" d="m51.7 5.55-.1.1-.05.3-.05.15v.4l.05.15.05.25.1.2.15.1.2.2.05.1.2.1.6.1.45-.05.5-.35.2-.25.1-.2.05-.15.1-.45v-.2L54.25 6v-.15l-.3-.55-.55-.35-.5-.1-.55.1-.55.4zm-20.4 5.3q.8-.5.7-1.4 0-.7-.5-1.05l.1-.9q.1-1.1.4-1.6l.1-.1.2.1 1.2 1.55q.8.95 1.55 1.15 1 .2 1.75-.35l.05-.05 2.6-.2 1 .45q.65.3 1 .4l1.15-.15.85-.75.25-.6 1.75-1.8.35 1.65.1 1.35v.75q0 .75.5 1.35.5.55 1.3.65h.05l.25.4q.05.5-.4.95l-.8.65q-.75.85-.45 1.8.35 1 1.3 1.3l.05.5-.1.35-.35.1q-.85.25-1.35.7-.65.55-.65 1.3v.2l-.05.5-.15.6-.65 1-.65.3q-.75.3-1.15 1t-.15 1.5q.15.55.6.95.5.35 1.05.4h.75l.6.4.4 1.1.1.95-.6 1.15-1 .85q-1.05.9-1.25 1.7-.25 1.2.85 1.9l.45.25-.25.45q-.25.55 0 1.05l.3.4.55.3.45.1.55-.1 1.3-.8.2-.35.1-.45.05-1.5-.1-.3 1.2-1.15.1.05.35.05 1-.25.25-.25.35-.5.1-.4v-.4l-.05-.15-.15-.4-.2-.3-.25-.2-.2-.1-.05-1.05v-.3l.65-.5q.75-.8.5-1.9l-.1-.15-.1-.3-.7-.75q-.8-.5-1.6-.25l-.45-.4q.5-.9.65-2.1l.1.1.4.2q.7.25 1.3 0l.55-.35.3-.3.15-.4.15-.55-.1-.75-.25-.45-.1-.1.05-.2.1-1.15q-.1-1.7-.4-2.35l-.05-.15.15-.25.45-.75.15-.35.05-.05.35-.15.5-.45.2-.3.15-.4.1-.4-.05-.6-.1-.4-.2-.3-.55-.55-.45-.15-.3-.05-.7-.9-.85-.7v-.7l.3-.15.6-.45.3-.55.05-.2.05-.55-.05-.55-.05-.15-.2-.4-.35-.35-.25-.2-.55-.2-.45-.1-.05.05h-.25q-.9-1.75-2.55-2.05h-1.15l-1.3.35-1.3 1-1 1.1-.45.55-.5-.2-3.5-.2-1.15.3L35.1 3l-1.3-.95-.8-.4-1.15-.1-1.15.2q-.85.3-1.4 1.1-.5.65-.85 1.65l-.05.15-.5.15-.6.5-.2.35q-.3.5-.2 1.1l.2.6.25.35.35.35.35.15.05.4-.5.4q-1.7 1.75-1.3 4l.25.8-.1.05-.5.6-.3.55-.75.3-.65.9-.1.35-.05.35.15.75.25.4 1.05.7.2.05.2.45 1.4 1.65.2.15-.1.35.1.95.15.5.4.65-.7.6-.7-.05q-.5 0-.95.3l-.35.3-.1.15-.35.7-.05.75.15.5.15.3.5.5.1.1-.05.7-.4.1-.9.55-.55.65-.4.65-.25.7-.1.55.1.45q.15.6.85.95l1.1.1q.6-.15.95-.6l.25-.4.05-.1Q27 33 28 34.05l.2.2-.25.5-.05.3-.1.35.05.25q.1.65.5 1.05l.35.3q.85.55 1.55.5l.75-.2.45-.25.3-.45.25-.7-.1-.7-.25-.5-.05-.1.25-.4q.6-1.05-.05-2l-1.05-1.1-.25-.3.3-1.15-.2-1.4q-.1-.95.45-1.3l.55-.3.85-.85 1.05-1.05q.35-.9-.05-1.65l-1.1-1.35-.5-.4-.35-.4-.1-.15.3-.55.05-1.25q-.2-.7-.7-1.05l-1.3-.75q-.4-.4-.3-.85l1-.4q.95-.7.8-1.75 0-.5-.35-1.05l-.5-.8q-.25-.55-.05-.9zM0 0h74.45v40.5H0zm25.4 23.85q.6.1.9-.4t.1-1q-.25-.45-.85-.55l-.2.05-.65.45q-.25.45-.05.9.25.5.75.55M24.2 10.9l-.8-.05q-.6.15-.75.8-.1.55.2.9.5.6 1.15.35.7-.15.8-.9t-.6-1.1m13.3-9.6-.55-.2-.1.05q-.85.1-.95 1 0 .85.85 1.05.85.15 1.2-.65.3-.85-.45-1.25"/><path fill="#fff" d="m31.3 10.85-.95.6q-.2.35.05.9l.5.8q.35.55.35 1.05.15 1.05-.8 1.75l-1 .4q-.1.45.3.85l1.3.75q.5.35.7 1.05l-.05 1.25-.3.55.1.15.35.4.5.4 1.1 1.35q.4.75.05 1.65l-1.05 1.05-.85.85-.55.3q-.55.35-.45 1.3l.2 1.4-.3 1.15.25.3 1.05 1.1q.65.95.05 2l-.25.4.05.1.25.5.1.7-.25.7-.3.45-.45.25-.75.2q-.7.05-1.55-.5l-.35-.3q-.4-.4-.5-1.05l-.05-.25.1-.35.05-.3.25-.5-.2-.2q-1-1.05-1.55-2.1l-.05.1-.25.4q-.35.45-.95.6l-1.1-.1q-.7-.35-.85-.95l-.1-.45.1-.55.25-.7.4-.65.55-.65.9-.55.4-.1.05-.7-.1-.1-.5-.5-.15-.3-.15-.5.05-.75.35-.7.1-.15.35-.3q.45-.3.95-.3l.7.05.7-.6-.4-.65-.15-.5-.1-.95.1-.35-.2-.15-1.4-1.65-.2-.45-.2-.05-1.05-.7-.25-.4-.15-.75.05-.35.1-.35.65-.9.75-.3.3-.55.5-.6.1-.05-.25-.8q-.4-2.25 1.3-4l.5-.4-.05-.4-.35-.15-.35-.35-.25-.35-.2-.6q-.1-.6.2-1.1l.2-.35.6-.5.5-.15.05-.15q.35-1 .85-1.65.55-.8 1.4-1.1l1.15-.2 1.15.1.8.4 1.3.95 1.05 1.35 1.15-.3 3.5.2.5.2.45-.55 1-1.1 1.3-1 1.3-.35h1.15q1.65.3 2.55 2.05h.25l.05-.05.45.1.55.2.25.2.35.35.2.4.05.15.05.55-.05.55-.05.2-.3.55-.6.45-.3.15V8l.85.7.7.9.3.05.45.15.55.55.2.3.1.4.05.6-.1.4-.15.4-.2.3-.5.45-.35.15-.05.05-.15.35-.45.75-.15.25.05.15q.3.65.4 2.35l-.1 1.15-.05.2.1.1.25.45.1.75-.15.55-.15.4-.3.3-.55.35q-.6.25-1.3 0l-.4-.2-.1-.1q-.15 1.2-.65 2.1l.45.4q.8-.25 1.6.25l.7.75.1.3.1.15q.25 1.1-.5 1.9l-.65.5v.3l.05 1.05.2.1.25.2.2.3.15.4.05.15v.4l-.1.4-.35.5-.25.25-1 .25-.35-.05-.1-.05-1.2 1.15.1.3-.05 1.5-.1.45-.2.35-1.3.8-.55.1-.45-.1-.55-.3-.3-.4q-.25-.5 0-1.05l.25-.45-.45-.25q-1.1-.7-.85-1.9.2-.8 1.25-1.7l1-.85.6-1.15-.1-.95-.4-1.1-.6-.4h-.75q-.55-.05-1.05-.4-.45-.4-.6-.95-.25-.8.15-1.5t1.15-1l.65-.3.65-1 .15-.6.05-.5v-.2q0-.75.65-1.3.5-.45 1.35-.7l.35-.1.1-.35-.05-.5q-.95-.3-1.3-1.3-.3-.95.45-1.8l.8-.65q.45-.45.4-.95l-.25-.4h-.05q-.8-.1-1.3-.65-.5-.6-.5-1.35v-.75l-.1-1.35-.35-1.65-1.75 1.8-.25.6-.85.75-1.15.15q-.35-.1-1-.4l-1-.45-2.6.2-.05.05q-.75.55-1.75.35-.75-.2-1.55-1.15L32.3 5.9l-.2-.1-.1.1q-.3.5-.4 1.6l-.1.9q.5.35.5 1.05.1.9-.7 1.4m20.4-5.3.1-.2.55-.4.55-.1.5.1.55.35.3.55V6l.05.05v.2l-.1.45-.05.15-.1.2-.2.25-.5.35-.45.05-.6-.1-.2-.1-.05-.1-.2-.2-.15-.1-.1-.2-.05-.25-.05-.15v-.4l.05-.15.05-.3zM37.5 1.3q.75.4.45 1.25-.35.8-1.2.65-.85-.2-.85-1.05.1-.9.95-1l.1-.05zm-13.3 9.6q.7.35.6 1.1t-.8.9q-.65.25-1.15-.35-.3-.35-.2-.9.15-.65.75-.8zm1.2 12.95q-.5-.05-.75-.55-.2-.45.05-.9l.65-.45.2-.05q.6.1.85.55.2.5-.1 1t-.9.4"/><path d="m68.7 5.85.6.4.1.25.05.45-.05.25-.05.1-.3.3-.1.05-.35.1h-1l-1.4-.15-.25-.2-.15-.3-.05-.3.05-.2.05-.1q.2-.45.5-.5h.35l.45-.05.3-.1zm-5.05 4.4-.7-.05-2.45.05-1.8-.15-.7-.15q-.35-.15-.55-.6-.15-.4.05-.8-.3-1-.1-3.15l.05-.75.2-.75q.15-.25.45-.35h.4l.15-.05.35-.05 1.15.05.5.1.8.65.2.65v.6l1.15.1q1.1.25 1.55.8.75.8.65 2.25 0 .75-.3 1.1l-.45.3zm4.05 10.8q.05 2.05-.8 3.5-.7 1.3-1.95 2.1l.05.9.1.45.4.25q1.05.4 1.4 1.45l.2.8.1 1.05q-.1 1.05-1.45 2.25l.2.9-.45.8-1.6.3-.5-.05-.1.15-.75.85-1.05.15-.6-.15q-.6.55-1.65.3-.85-.25-1.15-.7h-.05l-.75.2-.95.15-1.05-.25-.45-.45-.25-.55q-.1-.5.3-.95l-.75-.95-.35-.75-2 .85q-.75.35-1.25.85l.5-.05 1-.1 1 .3.6.75q.25.85-.4 1.4-.55.55-1.4.65l-1.55-.2q-.75-.05-1.6-.5l-.6-.45-.2-.9.1-1.1.4-.8q.85-1.05 2.35-1.8.9-.45 2.85-1l.35-.1.3-.5 1.2-1.1.6-.5.1-.5.15-.6.35-.65-.85-.65q-.9-.75-1.35-1.85-.5-1.15-.35-2.3l.4-1.6.6-1.25.3-.35-.35-.6-.1-.75.1-1.1.55-1.15.25-.65.3-.65q.25-.3.7-.4l.8.2.45.6.6 1.1.45.6 3.95-.1q.1-.15.25-.2l1.4-1.55q.4-.7.75-.85h.55q.35.1.5.35l.2.75.3 1 .2 1.05.1.7.05.5-.05.45.05.4.1.6v.15zm-5.75-1.85-.1.25-.1.55.05.5.35.75.45.4.5.25 1.15-.05.75-.55.4-.8.05-.25q.1-.8-.5-1.45-.6-.6-1.35-.6l-.1.05q-.35-.05-.8.2l-.4.3-.2.2-.05.1zm-15.9 14.05q.4.6.25 1.35-.1.8-.65 1.25-.75.55-2.5.45h-.75l-.15.2q-.5 1.05-1.1 1.3l-1.6.2-.95-.2q-.95.8-2.55.45-1.25-.35-1.7-1.05h-.15l-1.15.3-1.4.15q-1.1 0-1.6-.35l-.75-.7-.4-.8q-.1-.8.45-1.45l-1.1-1.5-.55-1.1q-2 .65-3.1 1.25l-1.9 1.35.8-.15 1.5-.05q.8 0 1.55.4.7.45.95 1.2.35 1.25-.65 2.15-.8.8-2.1.95-1.4.25-2.45-.3-1.1-.05-2.4-.75l-.95-.7q-.3-.4-.3-1.3h-.25l-.5-.05-.1.15-.75.85-1.05.15-.6-.15q-.6.55-1.65.3-.85-.25-1.15-.7h-.05l-.75.2-.95.15-1.05-.25-.45-.45-.25-.55q-.1-.5.3-.95l-.75-.95-.35-.75q-1.3.45-2 .85-.75.35-1.25.85l.5-.05 1-.1 1 .3q.45.3.6.75.25.85-.4 1.4-.55.55-1.4.65l-1.55-.2q-.75-.05-1.6-.5l-.6-.45-.2-.9.1-1.1.4-.8q.85-1.05 2.35-1.8.9-.45 2.85-1l.35-.1.3-.5 1.2-1.1.6-.5.1-.5.15-.6.35-.65-.85-.65q-.9-.75-1.35-1.85-.5-1.15-.35-2.3l.4-1.6.6-1.25.3-.35-.35-.6-.1-.75.1-1.1.55-1.15.25-.65.3-.65q.25-.3.7-.4l.8.2.45.6.6 1.1.45.6 3.95-.1.25-.2 1.4-1.55q.4-.7.75-.85h.55q.35.1.5.35l.2.75.3 1 .2 1.05.1.7.05.5-.05.45.05.4.1.6v.15l.2 1.85q.05 2.05-.8 3.5-.7 1.3-1.95 2.1l.05.9.1.45.4.25q1.05.4 1.4 1.45l.2.8.05.35 1.4-.8q1.35-.7 4.25-1.5.1-1.45 1.05-2.6 1.3-1.4 2.6-1.45h.35v-.1l.2-.65-.95-.5-.55-.55-.3-.5-.1-.3-.05-.5.05-.4-.35-.2-.7-.65-.5-.6-.2-.3-.4-.9-.25-1.15-.05-.75q0-.8.4-1.6l.3-.35-.05-.05-.05-.55V12l.15-.7.3-.6.6-.65.65-.5.1-.05-.05-.5v-.9q0-.95.25-1.7v-.8l.2-1.7.4-1.1.35-.45.55-.35q.5-.2 1.2 0 .6-.05 1.15.4l.75.9.65 1.2.25.5.4.35.3.55L42 5.7l.3-.3 2-2.15.05-.15.9-1 .4-.35.75-.05.55.2.55.7.4 1.05.55 2.1.15 1.95.05.3-.1.55.25.2.3.4.75 1.25.55 1.95-.15 1.4-.45.7-.1.3.1.6.05.1.1 1.7-.15 1.2-.75 1.15-.8.65-.35.2-.15.1-.25.6-1 1.8-.9.75q.6-.05 1.15.3.8.45 1.45 1.65l.35.6.15.7.05 1.75-.05.65-.55 1.2q-.45 1.3-2.1 2.8m-3.25-15.5 1.8-.05.55-.15.25-.45q0-.4-.55-.5l-1.15-.05h-1.5l-2.1-.1v-.05l.05-.35q0-.4-.35-.75t-.8-.35q-.85.1-1.1.85l-.05.45v.1l-.35.05h-1.05l-1.9.05-1.25.1-.85.2q-.5.25-.5.8-.1.5.35.85l1.6.2 2.1-.3 4-.45zm.1-6.85q-.5.5-.55 1.05v.9l.1.3.4.65q.45.55 1.25.7.85.1 1.5-.35.7-.45.85-1.3l.05-.25-.2-1.2q-.35-.65-1.05-.95l-1.35-.15-.3.1zm2 12.85v.05l.1-.05zm-13.55-11.4.05.25q.1.7.5 1.1.4.5 1 .65l.65.1.7-.15.75-.5.5-1 .05-.4-.05-.5-.15-.55q-.6-1.2-1.95-1.1-.7 0-1.3.45l-.5.65-.2.8zM56 20.8l.25.35.25.2.55.3.3.05 1.05-.2q.6-.3.85-1l.05-.15.05-.4-.1-.7-.35-.5-.2-.2q-.8-.65-1.8-.3l-.35.2-.35.3-.25.4-.1.2v.2l-.05.6zM23.75 5.95l.25.2.1.05.15.1.25.35.05.5-.05.2-.25.3-.25.2-.25.1-.3.05h-.15l-.05.15-.15.35-.25.25-.8.15-.25-.05-.4-.45-.1-.3-.05-.05h-.15L20.7 8l-.4-.3-.1-.15-.05-.2V6.7l.1-.2q.15-.4.65-.5h.3v-.2l.05-.2.15-.35q.3-.45.9-.45l.35.05.25.15.2.2.25.4v.25zm-6.4 13.4v.5l.25.7.1.05q.3.6 1.15.7l.55.05.3-.1.4-.2.3-.25.45-.8.05-.15v-.35l-.35-.95-.25-.3-.65-.35-.55-.1-.05.05q-.55-.05-1.1.4l-.4.45zM16.2 4.2q1.05-.5 1.95.15l.35.25.35.75L19 6l.05.5-.15.75-.4.85-.25.25-1.7 1.2-1 .6-.35.05-.45-.1q-.8-.1-1.15-.8l-.25-.65-.9-.6q-.45-.4-.55-1.4v-.6l.15-.5q.5-.85 1.05-1.1l1.1-.05q.65.15 1.1.45zm-12 2.85q.7-.5 1.15-.6h.9q.6 0 .95.3l.45.35.05-.75q-.7-.15-1-.85-.25-.65.1-1.3l.4-.5 1.1-.25 1.1.3q.55.5.65 1.25l-.1 1.5-.35 2.15-.05.8-.7.65-.95.2H5l-1.3-.4q-.65-.5-.4-1.5.2-.65.9-1.35m9.9 11.8q-.55-.45-1.3-.55l-.1.05-.45.05-.95.6-.15.25q-.4.85-.15 1.6l.2.45.15.2q.6.7 1.6.6.9-.1 1.45-.85l.1-.2.05-.2.1-.7-.05-.35-.3-.7z"/><path fill="#fff" d="m61.95 19.2.1-.15.05-.1.2-.2.4-.3q.45-.25.8-.2l.1-.05q.75 0 1.35.6.6.65.5 1.45l-.05.25-.4.8-.75.55-1.15.05-.5-.25-.45-.4-.35-.75-.05-.5.1-.55zM42.9 10.9l.7-.5.3-.1 1.35.15q.7.3 1.05.95l.2 1.2-.05.25q-.15.85-.85 1.3-.65.45-1.5.35-.8-.15-1.25-.7l-.4-.65-.1-.3v-.9q.05-.55.55-1.05m-.1 6.85-2.8.1-4 .45-2.1.3-1.6-.2q-.45-.35-.35-.85 0-.55.5-.8l.85-.2 1.25-.1 1.9-.05h1.05l.35-.05v-.1l.05-.45q.25-.75 1.1-.85.45 0 .8.35t.35.75l-.05.35v.05l2.1.1h1.5l1.15.05q.55.1.55.5l-.25.45-.55.15zM56 20.8l-.2-.65.05-.6v-.2l.1-.2.25-.4.35-.3.35-.2q1-.35 1.8.3l.2.2.35.5.1.7-.05.4-.05.15q-.25.7-.85 1l-1.05.2-.3-.05-.55-.3-.25-.2zm-24.65-8.45.05-.2.2-.8.5-.65q.6-.45 1.3-.45 1.35-.1 1.95 1.1l.15.55.05.5-.05.4-.5 1-.75.5-.7.15-.65-.1q-.6-.15-1-.65-.4-.4-.5-1.1zm-14 7 .2-.65.4-.45q.55-.45 1.1-.4l.05-.05.55.1.65.35.25.3.35.95v.35l-.05.15-.45.8-.3.25-.4.2-.3.1-.55-.05q-.85-.1-1.15-.7l-.1-.05-.25-.7zm-3.25-.5.2.25.3.7.05.35-.1.7-.05.2-.1.2q-.55.75-1.45.85-1 .1-1.6-.6l-.15-.2-.2-.45q-.25-.75.15-1.6l.15-.25.95-.6.45-.05.1-.05q.75.1 1.3.55"/></g></svg>