<svg xmlns="http://www.w3.org/2000/svg" xmlns:ffdec="https://www.free-decompiler.com/flash" ffdec:objectType="shape" width="65.3" height="38.9"><g fill-rule="evenodd"><path fill="#999" d="m62.65 19.5.55.95q1.8 2.6 2.05 4.95.25 2.6-1.15 5-1.4 2.35-3.75 3.7-2.25 1.25-5 1.35-2.6.05-5.2-.8l-1.75-.75-1.3.65-1.4.65-.7.05q-.3-.3-.05-.55l.45-.45L46.6 33l.2-.25-.4-.3-6 4.85q-.35.25-.75.45l-.7.35q-.4.2-.55.5l-.25.1q-.2 0-.05-.3l.25-.15.6-1.1.75-1.2L44 30.5l-.4-.3-.1-.15h-.1l-.45.55-.1.25-.35.45-1.45 1.65-.5.4-.5.2-.15-.3.2-.4.4-1 .7-1.3 1.1-2.2-.5-1.05q-.75-2.1-.6-4.4.2-2.3 1.4-4.25 1.15-1.9 3.1-3.05 2.05-1.15 4.25-1.3l1.15-.15 1.15-.65q1.5-1 3.4-1.1t3.45.75 2.6 2.35q.85 1.4.9 2.65zM57.7 30.55q.4.25.85-.2l1.3-1.85 1.1-2.05.1-.05.9.55q.5.2.75 0 .4-.2.2-.75l-.55-.7-1.9-1.7-.5-.3q-.5-.25-1.05.25-.4.6-.1 1.1l.7.55.15.1q-1.25 2.3-2 4.15-.25.65.05.9m-1.75-7.5.15.1.3.45.25.55-.7.45-.6-.05zm-1.1 2.85.2.55V27l.25 1 .3.9.05.4.3.25.3-.35.15-1.85-.05-1.05V26q.9-.1 1.3-.6l.4-.9.05-.9-.45-.8q-.85-1.25-1.85-1.05-.65.1-.75.6v.25l-.2.1-1.55 2.95-.35.75q-.3.15-.3.5l-.25.3q-.2.6-.05 1.05.25.55.8.55.5-.05.85-.7zm-7-.75-.1.55q.15.3.6.2l.55-.55.75-1.05.3.2.85.25.1.05v.05l-.2.25q-.3.55-.2.9.1.65.65.65.45.15.8-.25l.5-.7.5-1.3.25-.85v-.4l.2-.45v-.35l-.1-1.1-.2-.5q-.1-.35-.7-.35l-.7.3-1.45 1.15-.7.8-.2.35-.35.6q-.3.15-.35.25l-.05.25zm3.75-2-.2.3-.8-.3-.2-.05.1-.1 1.3-1.05-.15.9zm-2.8-3.25 1.1.4h.45l.4.05.15-.3-.25-.5-.25-.3-.7-.5-.75-.4-.45-.3q-.7-.3-1.1.2l-.45.7q-.7.95-1.05 1.75l-1.3 2.6-.2.7q.1.7.7.85.65.2 1.05-.35l.75-1.6.45.2.65.4q.3.15.7-.2.3-.25.2-.7l-.4-.5-.8-.8.7-1.3.1-.15z"/><path fill="#fff" d="m48.8 19.9-.3-.05-.1.15-.7 1.3.8.8.4.5q.1.45-.2.7-.4.35-.7.2l-.65-.4-.45-.2-.75 1.6q-.4.55-1.05.35-.6-.15-.7-.85l.2-.7 1.3-2.6q.35-.8 1.05-1.75l.45-.7q.4-.5 1.1-.2l.45.3.75.4.7.5.25.3.25.5-.15.3-.4-.05h-.45zm2.8 3.25.05-.3.15-.9L50.5 23l-.1.1.2.05.8.3zm-3.75 2 .75-1.05.05-.25q.05-.1.35-.25l.35-.6.2-.35.7-.8 1.45-1.15.7-.3q.6 0 .7.35l.2.5.1 1.1v.35l-.2.45v.4l-.25.85-.5 1.3-.5.7q-.35.4-.8.25-.55 0-.65-.65-.1-.35.2-.9l.2-.25v-.05l-.1-.05-.85-.25-.3-.2-.75 1.05-.55.55q-.45.1-.6-.2zm7 .75L54 28.1q-.35.65-.85.7-.55 0-.8-.55-.15-.45.05-1.05l.25-.3q0-.35.3-.5l.35-.75 1.55-2.95.2-.1v-.25q.1-.5.75-.6 1-.2 1.85 1.05l.45.8-.05.9-.4.9q-.4.5-1.3.6v.3l.05 1.05-.15 1.85-.3.35-.3-.25-.05-.4-.3-.9-.25-1v-.55zm1.1-2.85-.6 1.5.6.05.7-.45-.25-.55-.3-.45zm1.75 7.5q-.3-.25-.05-.9.75-1.85 2-4.15l-.15-.1-.7-.55q-.3-.5.1-1.1.55-.5 1.05-.25l.5.3 1.9 1.7.55.7q.2.55-.2.75-.25.2-.75 0l-.9-.55-.1.05-1.1 2.05-1.3 1.85q-.45.45-.85.2"/><path d="M41.3 16q-.15 2.5-1.25 4.95-1.1 2.5-2.85 4.3-2.05 2.05-4.9 3.05v.15l2.5 7.3.95 3.15h-20.2l-.85-2q-.6-1.5-1.3-2.35-1.1-1.3-2.25-.95l-1.25.8-1.95 1.2-1.9.8q-1.55.3-3.15-.4-1.55-.7-2.3-2.15-.8-1.4-.5-3.1.25-1.7 1.4-2.8.8-.8 1.85-1.05 1.1-.25 1.95.25.9.45 1.5 1.85l.5 1.4q2.15-1 4.2-.8 2.35.25 3.9 1.8l1.4 1.95.85 2.05.35-.9 1.25-3.15q.6-1.4 1.75-3.3-2-1.05-3.5-2.85-1.7-2.1-2.45-4.65-.95-3-.55-6.1-.8-4.85-.2-9.75l.2-1.1.1-.4v-.35l.1-.7.05-.7q.1-.65.6-1.05.55-.45 1.2-.4.75 0 1.9.95L21 3.2l.3.3q1.3-.7 2.95-1.2l7.55-.35 1.3.45.15-.05q1.4-.55 2.65-1.3 1.4-.8 2.25-.95 1.45-.2 2.1.85.25.3.35 1.45l.2 4.7v4.4q.7 2.2.5 4.5m-13.25.95q-.6.25-.75 1.25l-.45 1.45-1.55.2q-.7-.6-1.1-.5-.6.15-.5.95.2 1.1 1.8 1.55l1.45.15q1.15-.05 1.9-1.15l.45-.7 1.05-.1 4-.75.5-.15.15-.45q-.05-.15-.4-.25l-4.3-.5h-.8l-.25-.6q-.6-.7-1.2-.4m-8.4 2.4 1.95-.25q1-.4 1.6-1.15l.75-1.85q.2-1.05-.2-2-.75-1.8-2.7-2.25-1.95-.5-3.35.85-1.45 1.25-1.3 3.15.1 2 1.8 2.95l.55.3zM34.3 11.9l-.55.55-.25.4-.2.25-.4.75-.25.35-.15.5q-.15.65 0 .95.25.75 1.2.85l1.5.05 1.1-.05.5-.1 1.5-.05q1-.1 1.3-.6l.25-.7q0-.55-.45-1-.35-.4-1-.4l-.85.1-1.35.1-.35.1-1.35.05.45-.85.25-.35q.2-.45-.15-.8z"/><path fill="#fff" d="m34.3 11.9.75.1q.35.35.15.8l-.25.35-.45.85 1.35-.05.35-.1 1.35-.1.85-.1q.65 0 1 .4.45.45.45 1l-.25.7q-.3.5-1.3.6l-1.5.05-.5.1-1.1.05-1.5-.05q-.95-.1-1.2-.85-.15-.3 0-.95l.15-.5.25-.35.4-.75.2-.25.25-.4zm-14.65 7.45-.9-.25-.55-.3q-1.7-.95-1.8-2.95-.15-1.9 1.3-3.15 1.4-1.35 3.35-.85 1.95.45 2.7 2.25.4.95.2 2l-.75 1.85q-.6.75-1.6 1.15zm8.4-2.4q.6-.3 1.2.4l.25.6h.8l4.3.5q.35.1.4.25l-.15.45-.5.15-4 .75-1.05.1-.45.7q-.75 1.1-1.9 1.15l-1.45-.15q-1.6-.45-1.8-1.55-.1-.8.5-.95.4-.1 1.1.5l1.55-.2.45-1.45q.15-1 .75-1.25"/></g></svg>