<svg xmlns="http://www.w3.org/2000/svg" xmlns:ffdec="https://www.free-decompiler.com/flash" ffdec:objectType="shape" width="77.6" height="43.1"><g fill-rule="evenodd"><path fill="#717171" d="m16.5.65.6.4 1.3-.1L19.9.8l.8-.2 1.95.05.3.1q.5.25.15.8l-.8.45-1.05.15-4.75.8q-4.2.8-6.6 2.35L6.75 7.6q-.75.75-1.9 2.6-1.15 1.9-1.55 3.2-.4 1.35-.6 3.8-.25 2.45-.8 3.45l-.45.45q-.5.05-.7-.65-.65-1.85-.45-5l.2-2.5Q.85 10.5 1.8 8.3h-.6l-.5-.45L.2 6.1l-.1-.65-.05-2.1Q.3 2.5 1.25 1.8 2 1.3 3.05 1L4.6.55l1.2-.3q.65-.1 1.3.3.65.35.9.95l.05.15 1.2-.55Q12.3-.2 14.4.05zm44.6 0 2.1-.6q2.1-.25 5.15 1.05l1.2.55.05-.15.9-.95q.65-.4 1.3-.3l1.2.3 1.55.45q1.05.3 1.8.8.95.7 1.2 1.55l-.05 2.1-.1.65-.5 1.75-.5.45h-.6q.95 2.2 1.3 4.65l.2 2.5q.2 3.15-.45 5-.2.7-.7.65l-.45-.45q-.55-1-.8-3.45-.2-2.45-.6-3.8-.4-1.3-1.55-3.2-1.15-1.85-1.9-2.6L67.7 5.3q-2.4-1.55-6.6-2.35l-4.75-.8L55.3 2l-.8-.45q-.35-.55.15-.8l.3-.1L56.9.6l.8.2 1.5.15 1.3.1zm-7.9 24.9-1.05-1.3-.95-.35-.6-.25h-.35l-.15-.1-.05-.15.1-.15.7-.2q.05-.15.45-.25l.25-.1-.8-.2-1.1-.1-.45-.2q-.3-.2-.1-.45l.3-.25 2.05-.6.45-.15.25-.7.65-.8.4-.35q-.1-1.5.35-2.3l.45-.65q.55-.85 1.1-1.15l.9-.4 3.15.25q1.6.85 1.85 2.55l.05.35 1.4 1q.95 1.05.95 2.35l-.05.85-.95 2.15-1.15 1.35-.75 1.65-.55.7q-1.4 1.4-3.3.8-1.65-.5-2.15-2-.7-.3-1.3-.85m7.9 16.9-.6-.4-1.3.1-1.5.15-.8.2-1.95-.05-.3-.1q-.5-.25-.15-.8l.8-.45 1.05-.15 4.75-.8q4.2-.8 6.6-2.35l3.15-2.3 1.9-2.6q1.15-1.9 1.55-3.2.4-1.35.6-3.8.25-2.45.8-3.45.2-.4.45-.45.5-.05.7.65.65 1.85.45 5l-.2 2.5q-.35 2.45-1.3 4.65h.6l.5.45.5 1.75.1.65.05 2.1q-.25.85-1.2 1.55-.75.5-1.8.8l-1.55.45-1.2.3q-.65.1-1.3-.3l-.9-.95-.05-.15-1.2.55q-3.05 1.3-5.15 1.05-.95-.05-2.1-.6m-44.6 0q-1.15.55-2.1.6-2.1.25-5.15-1.05l-1.2-.55-.05.15q-.25.6-.9.95-.65.4-1.3.3l-1.2-.3-1.55-.45q-1.05-.3-1.8-.8-.95-.7-1.2-1.55l.05-2.1.1-.65.5-1.75.5-.45h.6Q.85 32.6.5 30.15l-.2-2.5q-.2-3.15.45-5 .2-.7.7-.65l.45.45q.55 1 .8 3.45.2 2.45.6 3.8.4 1.3 1.55 3.2l1.9 2.6 3.15 2.3q2.4 1.55 6.6 2.35l4.75.8 1.05.15.8.45q.35.55-.15.8l-.3.1-1.95.05-.8-.2-1.5-.15-1.3-.1z"/><path d="M21.15 26.5q-2.8-.9-4.05-3-.7-1.25-.8-2.65l-.5-.55-.65-.8-.85-2.05-.25-1.45q.1-.9.9-1.3l.65-.25q2-.7 3.15-.75l.6-.05 1.15-.9q1.9-1.15 4.1-1.3l3.2.1 1.85-1.35q.45-.35.75-.4 1.05-.35 1.85.35.5.55.55 2.2v3.75l.2.65q1.45-.7 3.1-1.15l2.3-.4q4-.4 6.7 1.75l.35-.55 2.25-2.35q1.15-1.25 1.1-2.25l-.25-1-.4-1q-.15-1.25.85-2 .95-.8 2.2-.45 1.25.25 1.7 1.4l.15.7q.5 1.6 0 3.35-.35 1.7-1.55 3l-1.45 1.35-2.6 2.3-.1.1q.55 1.25.65 2.6.2 3.1-2.1 5.25l-1.25.95.05.45.45 2.55.3 1.5q0 .8-.6 1.5l-1.4.85-1.6-.3q-.8-.45-1.1-1.2-.2-.55-.05-1.7l.25-2.8-.5-.05h-.05v.4l.1 2.05q-.15 1.1-1.25 1.55l-2.05-.1q-.95-.45-1.15-1.6v-.7l.3-2.05.3-.6.05-.05-2.65-.9-.6-.15.5 2.7.2 3.45q-.1.75-.75 1.4-.65.6-1.45.7-.75.05-1.5-.4-.7-.5-.95-1.25-.15-.5-.05-1.25l.2-1.35.2-1.6.05-1.1.1-1.25-1.15-.1-.05.55q-.1.95.15 2.05l.25 1.65v.8l-.4 1.15q-.6 1.2-2.15 1.25-1.45.05-2.05-1.1-.35-.6-.35-1.6t.4-1.9l.55-1.25.4-1.25.05-.2q-2.5.05-4.5-.6m6.5-4.8q0-.25-.4-.35l-2.1.2-.1.05-.1-.3-.15-.25q-.2-.25-.55-.35l-.05.05q-.35 0-.5.25-.25.25-.15.55l.1.25v.25l-.6.15q-1 .1-1.35.45t-.2.85l.65.5q.4.05 1.05-.4.6-.35 1.85-.65l1.85-.6.5-.3zm-9-.85h.05l-.35.45q-.15.25-.15.5l.2.4.45.1 1.9-1.45.9-.65.3-.15-.1-.65-.05-.2-.55.1-3.7.35-.2.45q0 .4.45.65zm10.95-6q-.55-.6-1.35-.85l-1.6-.05q-.75.25-1.3.85-.6.65-.7 1.45-.15.8.2 1.55.3.8 1 1.25l.1.1q.3-.25.75-.4 1.15-.45 2.45-.35l.55.1.1-.15q.55-.9.5-1.8-.1-1-.7-1.7"/><path fill="#fff" d="M29.6 14.85q.6.7.7 1.7.05.9-.5 1.8l-.1.15-.55-.1q-1.3-.1-2.45.35-.45.15-.75.4l-.1-.1q-.7-.45-1-1.25-.35-.75-.2-1.55.1-.8.7-1.45.55-.6 1.3-.85l1.6.05q.8.25 1.35.85m-10.95 6-.85-.1q-.45-.25-.45-.65l.2-.45 3.7-.35.55-.1.05.2.1.65-.3.15-.9.65-1.9 1.45-.45-.1-.2-.4q0-.25.15-.5l.35-.45zm9 .85-.25.35-.5.3-1.85.6q-1.25.3-1.85.65-.65.45-1.05.4l-.65-.5q-.15-.5.2-.85t1.35-.45l.6-.15v-.25l-.1-.25q-.1-.3.15-.55.15-.25.5-.25l.05-.05q.35.1.55.35l.15.25.1.3.1-.05 2.1-.2q.4.1.4.35"/></g></svg>