<svg xmlns="http://www.w3.org/2000/svg" xmlns:ffdec="https://www.free-decompiler.com/flash" ffdec:objectType="shape" width="75.95" height="41.35"><g fill-rule="evenodd"><path fill="#999" d="M75.95 40.65v.7H.65V0h75.3v23.95l-1.9.2-.35-.45-.45-.85-.35-.45-.65-.2q-.35.05-.55.3l-.25.5-.2.55-.4.9-.1.85.1.6.25.45-.25.3-.45 1v.1-.9l-.15-1.45v-.15l-.05-.45-.05-.3.05-.35-.05-.4-.05-.6-.2-.8-.2-.8-.2-.55-.35-.3h-.45q-.25.1-.6.65l-1.1 1.2-.15.2-3.15.05-.35-.45-.45-.85-.35-.45q-.3-.25-.65-.2l-.55.3-.25.5-.2.55-.4.9-.1.85.1.6.25.45-.25.3-.45 1-.35 1.25q-.05.9.3 1.8.35.85 1.1 1.5l.6.45-.25.55-.1.5-.1.35-.45.4-.95.85-.2.4-.3.05q-1.55.5-2.25.85-1.2.6-1.85 1.4l-.35.6-.05.9q0 .45.15.7l.5.35 1.25.4 1.2.15q.7-.1 1.1-.5.5-.45.3-1.1l-.45-.6q-.4-.2-.8-.25l-.8.05-.35.1q.35-.4.95-.7.55-.35 1.6-.65l.25.6.6.75q-.3.35-.25.7l.2.45.4.35.8.2.75-.1.55-.15h.1l.85.55 1.35-.25.1.05v.25q0 .45.15.7l.5.35 1.25.4 1.2.15q.7-.1 1.1-.5.5-.45.3-1.1l-.45-.6-.8-.25-.8.05-.35.1q.15-.2.4-.35l1-.25.35-.45.8-.3.25.6.6.75q-.3.35-.25.7l.2.45.4.35.8.2.75-.1.55-.15h.1l.85.55 1.35-.25.45.1zM70 35.7l-.15.05.2-.65-.1-.85-.15-.6q-.3-.85-1.1-1.15l-.3-.2-.1-.35v-.7q.95-.65 1.5-1.65l.25-.5q0 .8.3 1.6.35.85 1.1 1.5l.6.45-.25.55-.1.5-.1.35-.45.4q-.6.3-.95.85zm-43.95.4q3 1.25 5.2 1.7l5.4.6q10.6.4 15.85-3.9 3.4-2.8 4.85-7.5 1.3-4.35.7-9.2-.35-2.6-1-4.1l-.25-.6 3.6-9.05.2-.8q.2-1.15-.4-1.8Q59.65.8 58.45 1l-1.75.7-.55.25-1.65.6-1.45.5-2.5 1-1.05.5Q47.85 3.3 46.25 2.6l-1.8-.65q-2.65-.8-5.8-.75l-2.8.2q-4.65.6-8.3 2.9l-1.25-.65-2.7-1.4-1.65-.75L19.8.75l-1.2-.1-.45.15-.35.25-.4.5-.2 1.2.35 2.35.25.95.85 3.15.25.5.4 1.6.5 1.1v.1l.05.1.15.55q-2.15 4.8-2.15 10.2 0 6.2 2.9 9.35 1.6 1.8 5.3 3.4M67 20l.1-.4.25-.35.5-.55q.25-.35.1-.7-.05-.3-.3-.45l-.85-.25q-.5 0-.75.35l-.2.15-.2-.05-.55-.15-.7.1q-.25.25-.25.65v.8l.3.4.85.7.8.35q.6.1.9-.6m5.65-1.65.15-.35.45-.45q.35-.55-.15-.95l-.45-.1q-.3 0-.45.2l-.15.1h-.3q-.6-.35-.75-.35-.15.05-.35.25-.4.3-.35.65l.35.4.45.3.4.45.65.2z"/><path fill="#fff" d="M75.95 23.95v16.7h-.05l-.45-.1-1.35.25-.85-.55h-.1l-.55.15-.75.1-.8-.2-.4-.35-.2-.45q-.05-.35.25-.7l-.6-.75-.25-.6-.8.3-.35.45-1 .25q-.25.15-.4.35l.35-.1.8-.05.8.25.45.6q.2.65-.3 1.1-.4.4-1.1.5l-1.2-.15-1.25-.4-.5-.35q-.15-.25-.15-.7v-.25l-.1-.05-1.35.25-.85-.55h-.1l-.55.15-.75.1-.8-.2-.4-.35-.2-.45q-.05-.35.25-.7l-.6-.75-.25-.6q-1.05.3-1.6.65-.6.3-.95.7l.35-.1.8-.05q.4.05.8.25l.45.6q.2.65-.3 1.1-.4.4-1.1.5l-1.2-.15-1.25-.4-.5-.35q-.15-.25-.15-.7l.05-.9.35-.6q.65-.8 1.85-1.4.7-.35 2.25-.85l.3-.05.2-.4.95-.85.45-.4.1-.35.1-.5.25-.55-.6-.45q-.75-.65-1.1-1.5-.35-.9-.3-1.8l.35-1.25.45-1 .25-.3-.25-.45-.1-.6.1-.85.4-.9.2-.55.25-.5.55-.3q.35-.05.65.2l.35.45.45.85.35.45 3.15-.05.15-.2 1.1-1.2q.35-.55.6-.65h.45l.35.3.2.55.2.8.2.8.05.6.05.4-.05.35.05.3.05.45v.15l.15 1.45v.9-.1l.45-1 .25-.3-.25-.45-.1-.6.1-.85.4-.9.2-.55.25-.5q.2-.25.55-.3l.65.2.35.45.45.85.35.45zm-3.3-5.6-.5.35-.65-.2-.4-.45-.45-.3-.35-.4q-.05-.35.35-.65.2-.2.35-.25.15 0 .75.35h.3l.15-.1q.15-.2.45-.2l.45.1q.5.4.15.95l-.45.45zM67 20q-.3.7-.9.6l-.8-.35-.85-.7-.3-.4v-.8q0-.4.25-.65l.7-.1.55.15.2.05.2-.15q.25-.35.75-.35l.85.25q.25.15.3.45.15.35-.1.7l-.5.55-.25.35zM26.05 36.1q-3.7-1.6-5.3-3.4-2.9-3.15-2.9-9.35 0-5.4 2.15-10.2l-.15-.55-.05-.1v-.1l-.5-1.1-.4-1.6-.25-.5-.85-3.15-.25-.95-.35-2.35.2-1.2.4-.5.35-.25.45-.15 1.2.1 2.15.75 1.65.75 2.7 1.4 1.25.65q3.65-2.3 8.3-2.9l2.8-.2q3.15-.05 5.8.75l1.8.65q1.6.7 3.25 1.95l1.05-.5 2.5-1 1.45-.5 1.65-.6.55-.25 1.75-.7q1.2-.2 1.75.45.6.65.4 1.8l-.2.8-3.6 9.05.25.6q.65 1.5 1 4.1.6 4.85-.7 9.2-1.45 4.7-4.85 7.5-5.25 4.3-15.85 3.9l-5.4-.6q-2.2-.45-5.2-1.7M70 35.7l.2-.4q.35-.55.95-.85l.45-.4.1-.35.1-.5.25-.55-.6-.45q-.75-.65-1.1-1.5-.3-.8-.3-1.6l-.25.5q-.55 1-1.5 1.65v.7l.1.35.3.2q.8.3 1.1 1.15l.15.6.1.85-.2.65z"/><path d="M55.1 11.15q.8.25 1.35.65.7.7.3 1.2-.25.4-1 .3l-2.7-.3-.65-.1-.7.1-2.05.55-2 .55-1.2.15-1.4.15q-1.2-.1-1.55-1.25-.4-1.15.55-2 .95-.8 2.05-.2l.55.25.6.05 2.3-.35 2.95-.05zm-28.05 9.3.8.25.75.35 5.1-.3 2.4-.85 1.8-.8.15-1.1q.25-.85 1.1-1t1.3.55l.3.9.15 1.05.65.45 1.1.7 2.4.35 2.5-.4q1.15-.2 1.45.35.4.6-.35 1.15-.35.3-1.25.4l-2.3.3q-3.05.3-4.5-.6-.95-.6-1.25-.6l-.95.3q-4.3 2.45-9.3 2.35l-2.4-.35q-1.2-.5-1.45-1.3-.3-.85.3-1.6.6-.7 1.5-.55m27.8-3.4q-.75-.4-.75-1.35 0-.85.7-1.3.5-.35 1.1-.25t1 .5.4 1.05l-.35 1.05q-.35.45-1 .55zm-.45 14.8q1.3-.35 2.05-1.1.55-.7.75-1.9l.3-4.2-.15-1.7-.2-2.1.05-.75q.1-.4.5-.5.45-.05.8.7l.3 1.45.55 4 .15 1.8q.2 2.5-.25 3.65-.7 1.8-2.9 2.75-1.25.6-3.95 1h-.9q-.5-.1-.7-.5-.25-.4.05-.85l.65-.65q.55-.35 1.45-.6zm-23.2 3.8q1.55.9 4.6 1l5.25-.15 1.05-.35.55-.8.3-1 .85-2.05.55-2.05q.3-1.25.75-1.9l.5-.35.65.4q.75 1.05.25 3.3l-1 4.3-.75 1.8q-.7 1.1-2.25 1.55l-2.8.35q-6 .3-9.65-1.1-1.75-.7-2.3-1.75l-.3-1.25-.15-1.25-.4-1.7q-.35-1.45-.15-3.95l.15-.75q.2-.45.6-.45l.65.45.15.85q.15 1.8 1.3 4.75.25.8.65 1.3zm4.7-27.7 1.15.55.85.85q.25.5.05 1.1l-.7.85-1.3.1-1.2-.5-2.1-1.5-.65-.7q-.6-.55-2-.75-2.2-.1-5.25 1.05l-.6.05-.2-.45q.05-.5.6-.85 2.5-2.15 4.9-2.35h2.4l1.05.25 1.15.65.75.75zm-13.3 7.7.05-.6.25-.45q.35-.55 1.1-.7l1.25.2q.55.4.75 1.1.15.7-.2 1.3-.35.55-1.05.75l-1.3-.15q-.85-.5-.85-1.45m10.6 11.3-1-.1h-1.3l-1.25-.2-.45-.35q-.2-.3-.05-.5.05-.25.45-.35l1.35-.1 1.95-.15 2.35-.8.85-.35.7-.2 1.65.05q-.75 1.3-1.7 1.75l-1.25.7-.75.3zM8.45 9.2l-.95.6q-.45.5-.35 1.05.4.05.75.4.4.25.3.75-.1.7-.9.7-.5 0-1.2-.4l-.4-.35-.2-.5q-.1-.85.05-1.45l.15-.55.55-1 .5-.65q1-1.1 2.4-.95l.95.25q1.4.65 2.1 1.95l.25.6.05.6q-.1 1.05-.5 1.55l-.65.65q-.4.4-.4.75v.55l-.3.7-.65.35q-.95.1-1.2-.8l-.05-.75.1-.8.1-.5.5-.5.65-.65.15-.45-.55-.7-.5-.35-.25-.1zm.1 7.7q.2-.6.65-.85l.85-.15q.85.1 1.1.85.25.85-.3 1.4-.3.35-.8.4l-.85-.15q-.9-.55-.65-1.5m13.3 14.95 1.45.5q.9.25 1.45.6l.65.65q.3.45.05.85l-.7.5h-.9q-2.7-.4-3.95-1Q17.7 33 17 31.2q-.45-1.15-.25-3.65l.15-1.8.55-4 .3-1.45q.35-.75.8-.7l.5.5.05.75-.2 2.1-.15 1.7.3 4.2q.2 1.2.75 1.9.75.75 2.05 1.1m14.55.05q.1-.45.6-.45.45 0 .65.45l.05.35-.05.45-.35.75-.7-.1-.15-.3-.1-.8z"/><path fill="#fff" d="M8.45 9.2h.5l.25.1.5.35.55.7-.15.45-.65.65-.5.5-.1.5-.1.8.05.75q.25.9 1.2.8l.65-.35.3-.7v-.55q0-.35.4-.75l.65-.65q.4-.5.5-1.55l-.05-.6-.25-.6q-.7-1.3-2.1-1.95l-.95-.25q-1.4-.15-2.4.95l-.5.65-.55 1-.15.55q-.15.6-.05 1.45l.2.5.4.35q.7.4 1.2.4.8 0 .9-.7.1-.5-.3-.75-.35-.35-.75-.4-.1-.55.35-1.05zM.4 15.4v-1.65l-.05-.1L.1 12.6l-.1-1 .35-1.3.25-.45-.1-.45q-.1-.9.5-1.75 1-1.5 2.75-1.5.75 0 1.45.35 1.3-1.15 3.5-1.35 2.4-.25 4.5.9l1.2.8.5.6.25.05q.6.15 1.1.5l1.05 1.15.65 1.3.1 1.1q.1 1.65-.2 2.7l-.3.7-.2.6-.55 1.2-.55 1.05-1 .9-1.3.75-1.85.3-.8-.15q-1.75 1.1-4.1.9l-1.3-.25-1.95.1q-1.2-.2-2.05-.95-.65-.45-.8-1.05l-.05-1.25zm8.15 1.5q-.25.95.65 1.5l.85.15q.5-.05.8-.4.55-.55.3-1.4-.25-.75-1.1-.85l-.85.15q-.45.25-.65.85m7.75 3.8q.55.7.4 1.65-.25.85-1.05 1.25-.8.45-1.7 0-1.15-.55-1.05-1.9.15-1.2 1.35-1.65 1.3-.35 2.05.65"/></g></svg>