<svg xmlns="http://www.w3.org/2000/svg" xmlns:ffdec="https://www.free-decompiler.com/flash" ffdec:objectType="shape" width="77.05" height="42.75"><g fill-rule="evenodd"><path d="M10.45 41.95q-.15-.8-.15-2V37.8l-.1-.95v-1l.1-2.1q-1.05-1.2-1.85-2.85-1.25-2.6-1.25-5.6h-.1l-.15.05-4.2.5L1 25.7V14.6l.4-.15 5.55-.4 1.9.4 1.1.45q2.5-4.45 6.45-7.8l1.95-1.6q3.6-2.8 7.65-4.3h50.3l.15.05v13.4L74.5 18.4q-.55 3.6-2.4 7.75-.85 1.95-2 3.6l-1.9 2.35q-2.45 2.4-6.2 3.7l-3.2.85-.95.2-3.6.35h-.6l.15.8v.05l.15 1.8.5.85.35 1.25H43.95l-.1-1.35q-.1-1.45.3-4.35l.1-.3.1-1.25-.1-.1-1.45-.95-1.15.85.75 4.45.1.2.8 1q.55.75.55 1.8h-11.6q-.25-.95-.1-2.1l.2-1.35-1.55.45-.3 1.85-.1.9.1.25h-9.15l.4-2.2v-.5l-2.2-.2.15 1v.55l.6.8.25.55z"/><path fill="#717171" d="M10.45 41.95H1v-2.6l-.15-.2-.1-.15-.2-.15-.1-.2-.05-.15-.1-.15-.05-.2L.2 38l-.1-.15v-.2l-.05-.15v-.35L0 37V3.4l.05-.15V2.9l.05-.15v-.2l.1-.15.05-.15.05-.2.1-.15.05-.15.1-.2.2-.15.1-.2.15-.15.2-.15.15-.2.25-.15.3-.15.35-.2.4-.1.2-.05h.65V0h.55l.6.05 23.7.05.6.05.2.05.35.15.4.15.3.15.2.2.2.15.2.15.05.05H26q-4.05 1.5-7.65 4.3L16.4 7.1q-3.95 3.35-6.45 7.8l-1.1-.45-1.9-.4-5.55.4-.4.15v11.1l1.75.15 4.2-.5.15-.05h.1q0 3 1.25 5.6.8 1.65 1.85 2.85l-.1 2.1v1l.1.95v2.15q0 1.2.15 2m66-30 .05.1.1.15.1.15.05.2.05.15.05.15.05.2.05.15v.5l.1.15V38.4l-.1.15v.35l-.05.15v.2l-.05.15-.05.15-.05.2-.1.15-.05.15-.15.2-.1.15-.1.15-.1.2-.2.15-.15.2-.25.15-.25.15-.3.2-.25.1-.15.05-.2.05-.25.05-.6.05H73l-.25.2-.25.15-.3.15-.25.15-.15.05-.2.05-.25.05-.6.05H57l-.65-.05-.2-.05-.4-.1-.35-.2-.3-.15-.25-.15-.05-.1-.35-1.25-.5-.85-.15-1.8V38l-.15-.8h.6l3.6-.35.95-.2 3.2-.85q3.75-1.3 6.2-3.7l1.9-2.35q1.15-1.65 2-3.6 1.85-4.15 2.4-7.75l1.95-3.75zm-32.5 30h-.1q0-1.05-.55-1.8l-.8-1-.1-.2-.75-4.45 1.15-.85 1.45.95.1.1-.1 1.25-.1.3q-.4 2.9-.3 4.35zm-11.7 0H30.5l-.1-.25.1-.9.3-1.85 1.55-.45-.2 1.35q-.15 1.15.1 2.1m-10.9 0h-.8l-.25-.55-.6-.8v-.55l-.15-1 2.2.2v.5z"/><path fill="#fff" d="M66.45 18.3q0-1.95 1-3.2 1.05-1.35 2.7-1.85 1.85-.55 3.6.5 1.85.95 2.4 2.8l.3 1.75q-.2 1.35-.6 2.15l-.45.85-1.35 1.1q-2.45 1.45-4.95.1-2.65-1.4-2.65-4.2M48.6 21.7q.3-1.25 1.4-1.05.75 0 2 .75l1.45.1q1.55 0 2.05-.4l1.95-1.35q1.05-.55 1.95.2l.75.7 1 1.65.75.95q.8.4 1.85 0 1.65-.2 2.25.5.45.45.45 1.15-.1 1.35-1.45 2.05-.85.55-2.6.75-1.95 0-3.2-.65-1.15-.5-1.95-1.65l-.2-.5q-1.75.7-3.3.7-2.6.25-4.35-1.55-1.25-1.1-.8-2.35m-5.1-11.55 1.15-.85q1.65-1 3.3-.8 1.65.1 3.1 1.55 2.15 2.05 1.35 5.05-.85 3.1-3.8 3.6-3 .75-5.1-1.55v-.2q-2.15-2.6-.8-5.35l.2-.55.6-.7z"/></g></svg>