<svg xmlns="http://www.w3.org/2000/svg" xmlns:ffdec="https://www.free-decompiler.com/flash" ffdec:objectType="shape" width="75.45" height="41.1"><path fill="#717171" fill-rule="evenodd" d="M.5.5h74.45v40H.5z"/><path fill="none" stroke="#999" stroke-linecap="round" stroke-linejoin="round" d="M.5.5h74.45v40H.5z"/><path fill-rule="evenodd" d="M19.7 8.45q.3-.85 1.55-2.7 2.55-3.5 4.3-4.95l1-.7H43.8l.2 1.85-.1.85.9 1.35 1.6 2.9q1.55 3.9-.2 9.5l-.25.8 6.6-5.15q.9-.8 1.6-1.1 1.35-.5 2.55 0l1.95 1.4 1.85 1.6 3.35 3.2q1.65 1.85 1.75 3.05l-.2 1.6-.45 1.55-.45 1.95-.05 1 .3.95q.8 2.8 0 5.15-.9 2.65-3.4 3.65l-2.55.25q-1.35-.25-2.3-1.15-1.6-1.55-1.45-4.05.15-2.2 1.65-3.45l.65-.65.3-1.05.55-3.25-.55-.55q-.95-.9-2.9-2.25l-.3-.1-.25.1q-1.95 1.15-4.8 4.25l-2.45 2.5 1.75 3.4 1.55 3.9 1.6 3.9.85 2.2-.05.9H46.4l-.05-.05-.05.05H29.4q-.15-.85 0-2l1.35-4.95-1.9 1.9-1.2 1.25q-1.2 1.2-2 1.45l-2.2.15-3.15.25h-4.25l-3.75-.35-1.05-.2-1.05-.05q-1.35-.1-2.4-1-1.1-.9-1.35-2.2-.25-.85-.1-2.05.1-1.3.4-1.9l.95-1.15q2.1-1.7 4.6-1.15 1.2.3 2.1 1.2t1.1 2.1q3.35.25 7.6-.05l.8-.1.7-.45 4.75-3.65.25-.15-1.95-.35-1.7-.7q-2.65-1.35-3.9-2.65l-.9-1.1Q20 21.55 19.4 20.25q-3.35-.75-6.2-2.9l-1.1-1q-.6-.75-.65-1.7-.1-.95.35-1.75.3-.6 1.65-1.5l3.1-1.8 3.1-.9z"/><path fill="#fff" fill-rule="evenodd" d="m58.1 8.4-.1.25-.05.2h-.05l-.05.25-.05.15-.1.15-.1.25-.15.1v.1l-.15.3-.35.1-.3-.2.05-.55v-.15l.1-.2v-.2l.05-.25h.05l.05-.25.1-.25.05-.25.1-.1.1-.35.1-.1.15-.4.1-.15.15-.3.15-.05.5-.1.35.3h.05l.1.3.1.1.15.4.7-.8h.05l.1-.1.1-.2.3-.25.15-.3.35-.15.4-.05.35.2.15.5-.05.35-.15.15-.25.25-.15.05-.05.15-.25.25-.2.15-.65.7-.15.1-.2.35h-.05l-.15.15-.55.2-.4-.25h-.05zm2.5 7.6.3.35.1.2.15.2.2.2.8 1.15.15.65-.25.6h-.55l-.45-.4-.15-.2-.15-.15-.15-.3-.3-.4-1.85-.8-.55-.3-1.4-.5q-.35-.25-.25-.65l.2-.65h.1q.35-.3 1-.3l.35.05 1 .25.25.15.3.05zm2.2 2.8.05-.15.1-.05.1-.1h.2v-.05l.3.15.1.15.05.15v.2l-.1.15-.3.2-.3-.1-.15-.1-.1-.35zm1.15 1.5.1.1v.05H64l-.05.05-.15-.1.05-.05v-.05zm-3.3 3.8.05 1.35.5-.85.15-.45.05-.3.2-.6-.05-1.55.05-.1q.1-.7.8-.8t.95.55l.15.6v1.1l-.15 1.1-.15.6-.5 1.35-.2.5q-.1-.1-.1.15l-.4.35-.2.3-.25.3-1.05.25q-.5 0-.95-.45l-.35-.6-.2-.65.05-.75.1-1.3h.9l.45-.05zm-1.4-.65.2-.7q.2-.7.65-.85h.3l.3.15.25.55-.2.5-.05.3h-.05l-.3.05h-.15l-.15.1h-.2zm.2-2.35h-.25l-1-.3-1.1-.5-.1-.15-.35-.3-.3-.4-.2-.45-.2-.35-.05-.25.05-.25q.1-.5.65-.6.65-.1.9.4l.3.55.7.75.2.1.2.3.25.1.85.2-.25.25-.15.3-.15.35-.05.15zM53.4 10.95l-.3.3h-.45l-.2-.4-.05-.05v-.3l.15-1.25v-.1l.05-.05-.35.25-.55.3-.6-.15-.2-.3-.05-.05V8.5l.1-.15V7.8l-.1-.2v-.2l-.05-.3V5.8l-.05-.15.05-.15q0-.25.15-.4l.25-.2h.6l.3.15.2.35h.05v1.4l.05.15-.05.7v.1l.35-.2.8-.15.3.15.15.45h-.05l-.1.65-.1.15v.3l-.2 1.25v.3zm-9.55-.15v.2q.5 2.9-.8 4.5-.5.65-1.15.75l-.9.2-.5.3.15.3.05.2v.5l-.05.1-.05.3-.05-.05-.1.2-.2.25-.45.25-.35.05h-.5l-.4-.1-.05.25-.1.3-.1.1-.05.1-.35.35-.6.25h-.4l-.5-.15-.35-.25-.05-.1-.1-.05v-.05l-.05-.1-.1-.15-.1.05.1.05.25.7.05.2-.1.55-.15.4-.45.5-.15.15-.45.15-1-.1-.3-.15-.7.85q-.85.95-2.4 1.35l-2.3.1-.45-.1v-.15l-.15-.65-.1-.15-.3-.85.15-.1.15-.25h.4l1.3-.35q1.15-.65 1.7-1.6.55-1 .35-2.5l-.05-.5q-.4-1.65-2.1-2.25-1.55-.55-3.05.3-1.55.9-1.95 2.55-.2.9 0 1.8.25.95 1.1 1.65l.95.6-.3.3-.15.1-.1.1-.2.3-.05.1v.1l-.05.1.05.15.15.2-.6-.25-1.05-.7-.75-.85-.7-1.1-.65-1.35-.4-1.45q-.25-1.4.2-3.9 1-5.05 3.55-8l1.25-1.1 1.4-.85.9-.45.1.15.1.4-.05.1.2.75v.5l.2.9v.15l-.1.05-1.1.4-.9.6-.2.2-.05.35v1.55l.05.15h-.05l-.15.3-.25.1-.4.1-.75.2-.25.25.15.3.3.1 1.1-.3.55-.05.3-.4-.05-.15.1-.3V7.7q.95.1 2.4-.55l.4-.25.1-.6-.15-.35.1-.05.55-.2.4-.25.35-.05 1.05-.5.3.45.15.15-.05.05h-.05l-.05.25-.1.1V6h-.05l-.1.15-.15.3v.15l-.15.1-.15.15-.05.4h-.05l.1.4.15.3v.1l.05.05-.05.05h.05l.05.25.2.2.2.1.35-.05.55-.2h.2l.3-.05v.25l.05.15.1.2.35.05.05.1.4.05.25-.05v.05l.25.2.6.2-.05.2q0 1.2.45 1.9.55.85 1.7 1.45.85.45 1.65.5 1.05.1 2.05-.5 1.05-.6 1.55-1.75zM26.5 23.5l-.45-.2-.05-.15h.05v-.05l.35-.3.1-.1.15-.1.05-.15.05.5zm3.05-21q1.35-.55 2.5-.75l.55-.05-.15.55-.1.1-.1.35v.05l-.2-.05v.05l-.4.1h-.15l-.6.1-.3.3-.15.1-.35.35-.2.25-.25.35-.1-.15V3.8l-.1-.35.05-.45-.05-.25.05-.2zm4.25-.85q1.65.05 3 .7l1.5.9 2 1.5 1.35 1.3-1.45-.25q-1.6.1-2.8 1.2l-.15.2-.35-1.6-.45-.35-.7.2-.5.3-.5.15-.1-.1-.3-.4-.3-.7-.35-.4-.2-.4-.15-.2v-.25l.05-.3.35-1.15zm14.3 16.9.05.05.4.15.15.05.05.1.05.05-.1.05-.15.55-.15 1.25.05.45v.25l.1.2-.25.3-.2.35-.2.55v.25l-.05.15h-.05l-.25.45-.2.2-.2.15-.3.1-.7-.1-.4-.2-.15-.1-.3-.45-.1-.6.05-.3v-.15l.05-.15h.05l.05-.15.2-.25.1-.1.3-.2.6-.25h.1l.4-.8zm1 2.4-.05-.05-.05-.35q-.1-.3.05-.5l.35-.3.1-.1h.05v.65zm1.45-1.5-.05-.3v-.1l-.1-.05-.05-.15v-.05l.05-.1v-.25h-.05l-.1-.55-.15-.25-.15-.1-.2-.3.2-.1 1.4-.6.35-.2-.05-.2.05-.1v-.15l.2-.6.1-.1.2-.3.3-.3.8-.2.7.15.6.6.1.25v.2l.05.2-.05.5-.05.25h-.05l-.15.25-.15.2.2.4.15.55q0 .6-.55.9l-1.05-.05-.15-.1-.15.05-2.05.65zM49.15 18h.25l.4.2v.2l-.15-.05h-.3zm-8.15.6q.2-.5.55-.7l.9-.1q.45.2.55.7l.05.5-.4 1.8-.5 1.45-.7.85q-.95.95-2.25 1.5-2 .9-4.15.6L34 24.9l-.7-.65q-.5-.55-.25-.9l.4-.25.95-.1 1.2.15v-.2l.15-.2.1-.1.05-.15.2-.2.2-.1.25-.2.4-.15h.35l.2.05.05-.35.8-.6h.55v-.1q.2-.8 1.05-1l.5.05zm14.4-5.3.2-.1.3-.05q.25 0 .35.25l.1.1.05.15-.15.6-.5.15-.35-.2-.15-.15v-.2l.1-.45zm-.95.1-.05.15-.1.2-.2.1H54l-.35-.15-.05-.1v-.1l-.05-.1.15-.3.15-.1.1-.05.15.05h.15l.1.1.05.1v.05zm3.15 19.45q-.45.2-.8-.25l-.1-.35q0-.25.15-.4l.1-.15.1-.05.15-.35.05-.25h.05l.05-.3.3-.6.15-.2.35-.25.6-.15.3.05.05-.05.35-.2.85-.05.3.05.45.2.15.05h.15l.25.1.4-.05.25.05.35.15.25.2.1.25H63l.1.65-.05.2.05.15v.7l-.05.3v.3l-.1.7h-.05l-.55.65-.25.1-.55-.15-.35-.45-.2-.4v-.8l-.2.2-.2.4-.1.3-.1.5-.3.5-.15.15-.1.3-.05.05-.3.2-.25-.05-.25-.2-.05-.15-.05-.25V34l-.1-.15.05-.4.2-.7.05-.6.05-.05.05-.1v-.55l.05-.1-.15.1-.5.45-.1.1-.1.05v.05l-.2.2h-.05l-.05.1zm-22.1-2.2.45-.25.1-.05v-.75l.2-.35v-.1q.25-.8 1-.95l.9.15.15.1h1.85l1.3-.25 1.15-.65.35-.45.1-.45.35-1.15q.4-.55 1.1-.5.7.1.95.7l.1.6-.1 1 .55.4.7.7q.55.7.55 1.7l-.1.5-.1.2q1.2.5 1.5 2.05.4 1.7-.7 2.95-.35.45-1.1.8l-.8.25-2 .3-1.15-.25-1.25-.6-1.05-.9-1.25-1.45-.2.1v.1l-.4 1.2-.3.65q-.75 1.35-2 2.3l-1.05.7-1.35.5-.8-.1-.65-.3-1.05-1q-.4-.7-.35-1.45l.15-.6.05-.05-.1-.3q-.1-.35.1-1.1l.15-.35.25-.45.15-.1-.4-.55-.1-.55v-.5l.25-.8q.45-.7 1.2-.6.85.1.95.9l.25-.1.05.15.5 1 .05.25h.05l-.05.6-.1.1h-.15l-.2.1h-.2l-.8.05h-.55l-.15.15-.1.15h-.05l.05.4.3.25h1.2l.3-.05.15.1.3-.05.3-.15.1-.2.1-.1.3-.25.1-.1.25-.1.1-.15.15-.15.1-.05.25-.25.05-.15.05-.1-.05-.3v-.1l-.05-.15-.05-.1-.1-.3-.15-.2-.4-.2v-.05l-.4-.1-.05-.35.15-.1zm7.7.3.05.1h.05l.1.2.05.2.1.15.1.3.05.35v.45l-.7.3-.15.15-.1.15-.15.2h-.2l.15.1.05.2.1.15.55.1h.1l.6.3.55.15.55-.2.5-.1q.35-.2.35-.7v-.65l-.1-.15q-.05-.6-.45-.85l-.6-.4-.35-.3-.05-.05-.15-.3v-.15l-.05-.05.25-.3q.45-.6.15-1.45l-.1.1-1.55 1.2-1.45.45v.05l.2.25.8.15zm1.45 2.15v-.05h-.05l-.05-.15V32l.3.05.2.3.1.25.1.25zm-3.6 5.05v.05l-.4.2-.25.05-.65.25h-.5l-.25-.1-.4-.3-.05-.1-.1-.3-.05-.25.05-.2v-.15l.15-.3.15-.15.3-.2.65-.3h.15l.15-.05h.35l.4.1.4.25.25.45v.5l-.1.3h-.05l-.1.2zm1.35 1.6h-.05l-.2.3-.2.15h-.15l-.65.4H41l-.1.05-.25.05-.4.15-.6-.15-.2-.2-.1-.2-.1-.3.05-.4v-.1l.2-.3.1-.1.55-.25h.25l.2-.05.25-.1h.3l.4-.05.35.05.35.2.1.2.05.15.05.25zM36.45 7.5l.2.6-.3.8-.3-.1h-.15l-.25.05h-.25l-.5-.1V8.7h.05v-.3l-.05-.1.05-.2v-.25h-.05l.45-.45.05-.1v-.15l.1-.1.1-.35.65-.35.1.75.1.05v.35m-2.5-.75.05.2h-.05l-.05.1-.05.2-.25.1-.1-.05-.35.05-.2-.35-.05-.2.1-.1v-.1l.1-.1.25-.3.05-.1.35.35zM13.2 32.15l.2.95v.25l.2.3v.15l.15.25.2.6.05.45v.3l-.05.55-.4.5v.05l-.3.45q-.2.25-.6.3l-.35.15-.8.1-.65-.2-.45-.15-.15-.1-.4-.15-.15-.25-.15-.1-.45-.25-.25-.3-.1-.25.1-.6q.2-.3.5-.25l.05-.05.5.3.25.2-.3-.3-.55-.85-.2-.55q-.1-.4.05-.75l.1-.05q.15-.45.7-.45l.1-.05q.6 0 .85.5l.25.35.2.05-.1-.15-.05-.25.05-.25q0-.3.25-.45l.1-.15q.5-.3 1-.25l.05.05q.25 0 .55.35m1.8 4.2.1-.7 1.1-.7 2.8-.7 2.7-.25.45.1.25.2.3.1.3.35-.25.4-.5.1-2.1.2-.6.15-1.95.55-.35.15 2.8.25.95-.15.8-.15q.5 0 .7.45.25.5-.1.85l-.55.3-.6.25-.55.1-3.45-.15-1.2-.35-.55-.35-.4-.4zm20.15-3.9v-.05l.45.2.05.1.1.05.05.15-.1.05-.05.1-.15.1-.15.15q-.15 0-.15.15v-.75l-.05-.1-.05-.15zM33.2 37l1.1.15.7-.3 1.2-.95-1.55.8zm-2.7-5.3-.35.45-.55.45-1.35 1.35-.2.25-.45.45q-.55.35-.55.6l-.05.1.05.1h.05l.05.2v.3l-.05.1v.1l-.05.05v.15l-.05.1-.05.2-.15.1-.05.1-.45.35-.4.15-.65-.15-.25-.15-.15-.25-.1-.1v-.35l-.4-.15-.15-.1-.1-.1-.15-.2-.05-.2h-.05l-.05-.25v-.2l.05-.35v-.1l.1-.2.3-.3.25-.2.55-.25h.6l.1.1 2.5-2.6.85-.65.7-.35q.5-.1.75.35.35.35.1.8z"/><path fill-rule="evenodd" d="M59.15 24.2h-.1q-.4-.2-.25-.5l.35-.25h.1l.6.1h.2l.15-.1h.15l.3-.05h.05l.2.05.2.2-.05.2-.4.25-.15.05-.45.05zm1-2.3-.65-.45-.05-.35-.05-.1.05-.15.15-.35.15-.3.25-.25.2-.1q.3-.1.55.15l.15.15.05.45.15.5-.3.55-.4.25h-.25M27.6 23.95l-.25.4-.75.05-.3-.15q-.1-.2.05-.45l.15-.3.25-.55-.05-.5-.05.15-.15.1-.1.1-.35.3v.05H26l.05.15-.05.25.1.1.05.2.05.1v.15l.05.1-.1.15-.15.05-.25-.15-.1-.35-.05-.35.05-.15-.15-.2-.1-.15-.05-.1-.15-.2-.05-.15.05-.1v-.1l.05-.1.2-.3.1-.1.15-.1.3-.3-.95-.6q-.85-.7-1.1-1.65-.2-.9 0-1.8.4-1.65 1.95-2.55 1.5-.85 3.05-.3 1.7.6 2.1 2.25l.05.5q.2 1.5-.35 2.5-.55.95-1.7 1.6l-1.3.35h-.4l-.15.25-.15.1.3.85.1.15.15.65zm.9-21-.15-.25q-.15-.45.15-.75.3-.4.7-.1.4.25.35.65l-.05.05-.05.2.05.25-.05.45.1.35v.35l.1.15.25-.35.2-.25.35-.35.15-.1.3-.3.6-.1h.15l.4-.1V2.7l.2.05V2.7l.1-.35.1-.1.15-.55.1-.3.4-.3.1-.05q.5 0 .6.5v.1l-.05.35-.35 1.15-.05.3v.25l.15.2.2.4.35.4.3.7.3.4.1.1.5-.15.5-.3.7-.2.45.35.35 1.6.15-.2q1.2-1.1 2.8-1.2l1.45.25q.75.3 1.3.95l.7 1.05q.4.8.4 1.55l-.15.95-.05.25-.25.6q-.5 1.15-1.55 1.75-1 .6-2.05.5-.8-.05-1.65-.5-1.15-.6-1.7-1.45-.45-.7-.45-1.9l.05-.2-.6-.2-.25-.2v-.05l-.25.05-.4-.05-.05-.1-.35-.05-.1-.2-.05-.15V8.4l-.3.05h-.2l-.55.2-.35.05-.2-.1-.2-.2-.05-.25h-.05l.05-.05-.05-.05v-.1l-.15-.3-.1-.4h.05l.05-.4.15-.15.15-.1v-.15l.15-.3.1-.15h.05v-.1l.1-.1.05-.25h.05L33 5.5l-.15-.15-.3-.45-1.05.5-.35.05-.4.25-.55.2-.1.05.15.35-.1.6-.4.25q-1.45.65-2.4.55v1.65l-.1.3.05.15-.3.4-.55.05-1.1.3-.3-.1-.15-.3.25-.25.75-.2.4-.1.25-.1.15-.3h.05l-.05-.15V7.5l.05-.35.2-.2.9-.6 1.1-.4.1-.05v-.15l-.2-.9v-.5l-.2-.75.05-.1-.1-.4zM48.55 21.7l-.1-.2v-.25l-.05-.45.15-1.25.15-.55.1-.05-.05-.05-.05-.1-.15-.05-.4-.15-.05-.05q-.15-.25.05-.5l.1-.15.15-.4.25-.2q.3-.15.35-.15l.35.1.05-.05.35.05.2.3.15.1.15.25.1.55h.05v.25l-.05.1v.05l.05.15.1.05v.1l.05.3h-.05l-.1.25v.35l-.05.25h-.05l-.1.2-.1.15-.25.25-.1-.05-.1-.15h-.05l.05-.25-.05-.15h-.05v-.65h-.05l-.1.1-.35.3q-.15.2-.05.5l.05.35.05.05-.1.75-.15.2-.3-.1zm.6-3.7.2.35h.3l.15.05v-.2l-.4-.2h-.25M34 31.5l-.05-.2.1-.3.1-.15.15-.1.25-.05.05-.1.2-.15.4-.1v-.05l.3.3v.05l-.15.35-.15.1.05.35.4.1v.05l.4.2.15.2.1.3.05.1.05.15v.1l.05.3-.05.1-.05.15-.25.25-.1.05-.15.15-.1.15-.25.1-.1.1-.3.25-.1.1-.1.2-.3.15-.3.05-.15-.1-.3.05h-1.2l-.3-.25-.05-.4h.05l.1-.15.15-.15h.55l.8-.05h.2l.2-.1h.15l.1-.1.05-.6h-.05l-.05-.25-.5-1zm8.6 2 .15-.2.1-.15L43 33l.7-.3v-.45l-.05-.35-.1-.3-.1-.15-.05-.2-.1-.2h-.05l-.05-.1v-.4l.05-.1.1-.1.3-.05v-.05l.45.25.05.1.05.05v.15l.15.3.05.05.35.3.6.4q.4.25.45.85v.2l-.1.35-.2.05-.2-.1-.05-.35-.1-.25-.1-.25-.2-.3-.3-.05v.9l.05.15h.05v.05l-.1.35h-.05v.05l-.2.15h-.15l-.2.1-.2.05-.1.05-.3.2h-.1l-.55-.1-.1-.15-.05-.2h.05zM33.95 6.75l-.2-.3-.35-.35-.05.1-.25.3-.1.1v.1l-.1.1.05.2.2.35.35-.05.1.05.25-.1.05-.2.05-.1H34zm2.5.75v-.35l-.1-.05-.1-.75-.65.35-.1.35-.1.1v.15l-.05.1-.45.45h.05v.25l-.05.2.05.1v.3h-.05v.05l.5.1h.25l.25-.05h.15l.3.1.3-.8zm-1.3 24.95h-.05l.05.15.05.1v.75q0-.15.15-.15l.15-.15.15-.1.05-.1.1-.05-.05-.15-.1-.05-.05-.1-.45-.2z"/></svg>