<svg xmlns="http://www.w3.org/2000/svg" xmlns:ffdec="https://www.free-decompiler.com/flash" ffdec:objectType="shape" width="76.6" height="42.25"><path fill="#999" fill-rule="evenodd" d="M.5 41.75V.5h75.6v41.25zm59.7-33-1.2-.2-.4-1.3-.6-.85-1-.95q-.6-.35-2.1-.45l-1.7.1-1.3.45-1 .5q-.85.65-1.4 1.9-.9 2.35-.15 4.15l-.9 1.65q-.45.05-.95.3-1.6.8-2.6 2l-.85 1.1-.55.95q-.4 1-.35 1.9.05 1.2.85 2.5l.6.85q.9 1.05 2.75 1.5l.1.05-.3.4q-1.95 2.65-1.95 5.95 0 3.85 2.5 5.4 1 .6 2.75.95l4.2.6 4.1-.55q1.2-.4 2-1.2 1.4-1.35 1.6-4.2l-.1-2.3-.2-.9 2-.55 1.8-1 .85-1.1q.65-1.15.75-2v-2l-.3-1.4.45-.95.65-.15q2.3-.6 3.2-2.45.8-1.55.35-3.15-.4-1.6-1.8-2.55l-1-.55-1.15-.4-1.4.2q-.4.1-.7.3l-1.5-1.15q-1.6-.95-4.05-1.4M49.25 22.3l.3.35-.25.25q-1.05-.3-1.55-.85l-.55-.75-.3-.7q-.05-.35.5-1l.45-.45.1.65q.3 1.3 1.3 2.5m11.6 3.7 1.5-.45-1.05.75-.2.15z"/><path fill-rule="evenodd" d="M60.2 8.75q2.45.45 4.05 1.4l1.5 1.15q.3-.2.7-.3l1.4-.2 1.15.4 1 .55q1.4.95 1.8 2.55.45 1.6-.35 3.15-.9 1.85-3.2 2.45l-.65.15-.45.95.3 1.4v2q-.1.85-.75 2l-.85 1.1-1.8 1-2 .55.2.9.1 2.3q-.2 2.85-1.6 4.2-.8.8-2 1.2l-4.1.55-4.2-.6q-1.75-.35-2.75-.95-2.5-1.55-2.5-5.4 0-3.3 1.95-5.95l.3-.4-.1-.05q-1.85-.45-2.75-1.5l-.6-.85q-.8-1.3-.85-2.5-.05-.9.35-1.9l.55-.95.85-1.1q1-1.2 2.6-2 .5-.25.95-.3l.9-1.65q-.75-1.8.15-4.15.55-1.25 1.4-1.9l1-.5 1.3-.45 1.7-.1q1.5.1 2.1.45l1 .95.6.85.4 1.3zm.4 8.1q-.5.7-.55 1.55l1.4.5q.15.05 1.1.6l.6.4.45.45.2-.15q.95-.55 1.9-.3l.2-.5-.8-.05-1.7-.3q-.85-.2-1.6-.8l-.55-.5-.4-.65-.15-.35zM49.25 22.3q-1-1.2-1.3-2.5l-.1-.65-.45.45q-.55.65-.5 1l.3.7.55.75q.5.55 1.55.85l.25-.25zm8.6-2.95-.2-.05-.1-.5.25-.7-.1-.4-.4-.2-.2.15-.4.45-.1.2-.5.45v.1q-1.6-.2-3.1 1.05l1.9.15q1.2.3 1.8.95l.85.8h.75q.4-.15.6-.5.45-.75-.25-1.45zm-2.55-3.1.15-.5-.55-.1-1.7-.6-2.6-1.5-.05-.05-.25.4.4.55.35 1.3.85.1.85.2.85.45.5.4.35.45zM60.85 26l.25.45.2-.15 1.05-.75z"/><path fill="#fff" fill-rule="evenodd" d="m60.6 16.85.1-.1.15.35.4.65.55.5q.75.6 1.6.8l1.7.3.8.05-.2.5q-.95-.25-1.9.3l-.2.15-.45-.45-.6-.4q-.95-.55-1.1-.6l-1.4-.5q.05-.85.55-1.55m-5.3-.6-.85 1.1-.35-.45-.5-.4-.85-.45-.85-.2-.85-.1-.35-1.3-.4-.55.25-.4.05.05 2.6 1.5 1.7.6.55.1zm2.55 3.1.8.5q.7.7.25 1.45-.2.35-.6.5h-.75l-.85-.8q-.6-.65-1.8-.95L53 19.9q1.5-1.25 3.1-1.05v-.1l.5-.45.1-.2.4-.45.2-.15.4.2.1.4-.25.7.1.5z"/><path fill="none" stroke="#5f645e" stroke-linecap="round" stroke-linejoin="round" stroke-opacity=".498" d="M.5 41.75V.5h75.6v41.25"/><path fill="#fff" fill-rule="evenodd" d="M.2 5.1V.25h10.75l.2.2.1-.2H21.8l.2.25q.25.4.1.95l-.5.8-.55.4-.05.1.4.55 1.8 2.85.7 1.2L26.45 6l-.3-.6q.45-.3 1 .25L30.25 4l3.6-2.15 2.5-1.6h4.2q-.2.65-1.3 1.15l-2.9 1.45-8.3 4.05.75 1.3 10.35-4.15q6.7-2.6 10.65-3.8h14.85q-.4.4-1.15.7l-3.6 1.2L44.2 6.6l-9.4 2.05-4.9 1.55-.15.05.55 1.45.8 2.55.65-.15 8.35-1.9 3.4-1.05q4.75-1.5 17-4.75l3.95-1.1 9.25-3.6q1.65-.65 2.65-.45V5.8l-1.9.6q-22.65 5.25-38.6 8.3l-4.4.9.85 5.5h.5l1.2-.05h1.4l1.9-.05h1.75l1-.05h.2l.3-.05h.25l.5-.05h.75l1-.05h.6l.8-.05h.6l.7-.05 1.1-.05h.95l.7-.05h.65l.45-.05h.6l.4-.05h1.2l.85-.05h.75l.5-.05h.25l.35-.05h.55l.7-.05h.75l.45-.05h.3l.4-.05h.25l.25-.05h.5l.45-.05h.3l.5-.05h.25l.25-.05.4-.05h.45l.55-.05h.6l.45-.05h.9l.35-.05h.2l.1-.05h.15l.2-.05h.35l.3-.05h.4l.45-.05h.45l.55-.05h.15l.3-.05h.35l.4-.05h.4l.35-.05h.35l.15-.05h.1l.35-.05h.35l.45-.05.2-.05h.3l.35-.05h4.55v5.4h-.05l-.5.05h-.1l-.1.05h-.1l-.15.05H75l-.5.05h-1.65l-.3-.05h-.3l-.45-.05h-.9l-1.25-.05h-.8l-1.5-.05h-1L66 24.5h-.55l-.35-.05-.75-.05h-1.2l-.3-.05h-.4l-.3-.05h-.35l-.5-.05h-.55l-.4-.05h-.75l-.3-.05h-.25l-.2-.05h-.1l-.25-.05h-.3L55.9 24h-1.65L52 23.95h-.7l-.25-.05h-.5l-.8-.05h-1.4l-1.15-.05h-.35l-.25-.05h-.15l-.1-.05-.45-.05h-.7l-1.95-.05h-.3l-.4-.05h-.25l-.2-.05h-.3l-.8-.05h-1.65l-.3-.05h-.3l-.45-.05h-.85l-2.15-.05h-2.9q.05 2.45-.3 4.85-.45 3.25-1.5 6.15l8.1.55q16.45 1 35.05 3.3 1.75.35 2.35.65l.25.15v2.8h-10.1l-.55-.1-14.1-2.7-14.25-2.25-4.6-.55L30 35.8l-.95 1.9 5.45 1 7.25 1.55q2.05.55 2.9 1.5h-6.7l-3.6-1.05-6-1.85-2.1 2.9H20.3l.05-.05h-.1l-.1.05H10.7v-.2l-.05-.05-.5.25h-8l.4-1.15 1.05-3 1.6 1.5q1.2.8 2.65 1.2l4.75-.2q2.4-.75 4-2.6 1-1.25 1.85-3.05l1.3-3.5.3-3q.15-1.8.65-2.85l1.15-1.9q.65-1.25.75-3.1 0-1.6-.65-2.6-.65-.95-2-1.3H18.9l-.1-.25 1.15-2.25.25-.5.3-.35q.8-.8.55-2.05-.25-1.2-1.4-1.6l-.8-.2-2.15-.1-1.75.3-.4.15q-1.4-1-3.4-1.55L3.9 7.45l-.15-.15L3.5 7l-.25-.2-.15-.4q-.25-.65-.85-1.05-.65-.45-1.3-.4zm0 18.3v-6.9q1.15-.3 2.3.3l.25.15-.1.95q.15 1.6 1.7 2.8l-.4.9q-.45.85-1.25 1.3-1.25.75-2.5.5M24.5 8.55l.55 1.15q1.3-.55 2.65-1.05l-.6-1.3zm1.65 6.7.05.2 3.1-.8-.9-4-2.8.8zm.55 5.95h2.9v-3.45L29.45 16l-1.3.3-1.85.5.1 4.3v.1zm-2.95 11.45-.4.9 2.5.25 1.6-3.4q1.4-3.45 1.9-7.1h-3.1q-.5 4.8-2.5 9.35M3 26.35l-.55-.6q-.15-.4.05-.75.25-.65 1.6-.85h1.65l.2-.8q.1-.65.45-.8h.5q.3.1.4.35l.15.9-.1.8 1.15.75.4.55q.2.4-.2.6l-.55.05-1.65-.4q-1-.15-1.7 0l-.9.25zm12.8-7.1.5.4.35.4-.05.1-.35 1.15-.25 1.75-.1 1.75h-.05q-.85.6-1.85.55-1 0-1.85-.6t-1.2-1.55q-.25-.65-.2-1.4 1.35-.35 2.15-1.05l.95-1.05.65-.9q.65.05 1.3.45M12.2 31.2q1.7-1 3.05-2.45l.05.45.15 2.15q-.1.85-.8 2.35l-1.05 1.7q-1 1.1-2.65 1.45L7.8 36.7q-1.35-.45-2.3-1.35l-1-1.5.15-1.25 2.65.05q2.7-.2 4.9-1.45m8.45 9.25.2.2.75-.9 1.95-2.4-1.95-.55-2 2.9zm2.1-4.35 1.4.4.9-1.35-2.3-.35-.65 1.15z"/><path fill="#999" fill-rule="evenodd" d="M2.15 41.75H.2V32l.2-.55-.2-.1V23.4q1.25.25 2.5-.5.8-.45 1.25-1.3l.4-.9q-1.55-1.2-1.7-2.8l.1-.95-.25-.15q-1.15-.6-2.3-.3V5.1l.75-.15q.65-.05 1.3.4.6.4.85 1.05l.15.4.25.2.25.3.15.15 7.25.35q2 .55 3.4 1.55l.4-.15 1.75-.3 2.15.1.8.2q1.15.4 1.4 1.6.25 1.25-.55 2.05l-.3.35-.25.5-1.15 2.25.1.25h1.05q1.35.35 2 1.3.65 1 .65 2.6-.1 1.85-.75 3.1l-1.15 1.9q-.5 1.05-.65 2.85l-.3 3-1.3 3.5q-.85 1.8-1.85 3.05-1.6 1.85-4 2.6l-4.75.2q-1.45-.4-2.65-1.2l-1.6-1.5-1.05 3zm13.65-22.5q-.65-.4-1.3-.45l-.65.9-.95 1.05q-.8.7-2.15 1.05-.05.75.2 1.4.35.95 1.2 1.55t1.85.6q1 .05 1.85-.55h.05l.1-1.75.25-1.75.35-1.15.05-.1-.35-.4zM3 26.35l.9.05.9-.25q.7-.15 1.7 0l1.65.4.55-.05q.4-.2.2-.6l-.4-.55-1.15-.75.1-.8-.15-.9q-.1-.25-.4-.35h-.5q-.35.15-.45.8l-.2.8H4.1q-1.35.2-1.6.85-.2.35-.05.75zm9.2 4.85q-2.2 1.25-4.9 1.45l-2.65-.05-.15 1.25 1 1.5q.95.9 2.3 1.35l3.15.15q1.65-.35 2.65-1.45l1.05-1.7q.7-1.5.8-2.35l-.15-2.15-.05-.45Q13.9 30.2 12.2 31.2"/></svg>