<svg xmlns="http://www.w3.org/2000/svg" xmlns:ffdec="https://www.free-decompiler.com/flash" ffdec:objectType="shape" width="72.85" height="36.55"><g fill-rule="evenodd"><path fill="#767676" d="m65.2 12.45-.05-.75.1-.75-.1-1.3q-.05-.4.35-.8.35-.35.85-.35.7 0 1.05.6.3.55 0 1.15l-.05.05-.55 2.15-.55 1.4-.15.6-.5.4q-.25 0-.35-.4v-.55l-.1-.55v-.3zm-3.45.6-.6-.9q-.15-.4.05-.8l.5-.55.75-.1.65.4q.3.35.3 1.2l.1 1.25.2.6-.25.65-.65.05-.3-.4zm4.6 3.65q.65.3 1.4 1l.05-.15.6-1.1.15-.35.1-.05.05-.2-.1-.1q-.35-.45-.35-1t.35-1q.35-.35.9-.45l1.05.2.6.85v.05l.3-.1.6.1q.9.4.8 1.4l-.25.75q-.3.4-.8.45l-.95-.1-.25-.15-.15.05-1.2 1.6-.2.25.7.15.95.2q.95.4 1.15 1.35.25.9-.4 1.7-.75.85-2.8 1.05l-6.1.05-1.65-.25q-.85-.2-1.35-.8-.75-1-.3-2.45.2-.65.65-1.15l1.35-1.45 1.2-.6q2.05-.7 3.9.25m-13.5-.9q.3-.3.6-.3.75 0 .9.7l-.05.4-.35.45-.25.15-.35-.05-.6-.35-.15-.45.05-.2zm2.3.95.05-.2q.1-.65.75-.65l.1-.05.55.2q.45.35.35.85-.05.55-.6.7-.5.2-.9-.2-.3-.2-.3-.65m3.05 1.45q-.6-.25-.6-.85V17q.15-.4.75-.6l.15-.05.6.3.3.6-.15.55-.25.25zm-9.95 10.75-.15-.05-1-.45q-.75-.65-.35-1.7.35-.85 1.3-1.3l1.4-.15V25l.1-.4.25-.35q.85-1 1.9-.95l.05-.05.95.1.5.15.45.25.95.95.15.85v.4l-.6 1.05-.85.65-.1-.4-.2-.7-.2-.55q-.25-.35-.75-.25-.45.15-.5.6-.15.3.05.85l.15.65v.05l-.45-.05-.25-.45-.1-.55-.35-.6-.4-.2-.3.3-.05.4-.05 1.95h-.3l-.3-.75v-.35l-.3-.8-.7-.1-.2.5.05.55.15.6zM17.65 9.6l-.2.5q-.3.95.1 1.45l.8.6 1 .25 1.55.45q1.3.35 2.1.9l.45.45-1 .45-1.1.15-3.1-.4-1.55-.55-.65-.5q-.6-.7-.7-1.2l-.05-.8q.1-1.25.4-1.85.25-.65 1.1-1.2l1.5-.8q1.7-.65 2.5-.6l.65.2.1.3-.15.25-.35.1-.65.15-1.7.8-.65.5zm-2.2 7.05-.55-.5-.45-.85-.05-.25.05-.25q0-.45.45-.65l.45.5.35.55.8.25.95.3.95.05 1.15-.15h1.2q.75.2.95.7l-.7.7-.5.3-.55.15-1.9.25-1.55-.45z"/><path d="m53.3 27.65.3.75.2.4-.1.55-.4.4q-.4.35-1 .5l-.3.1.6 1.85.8.25.9.4.3.25.3.55.15.55q0 .7-.8.8L53 34.95l-.3-.05q-.35.5-1.05.5l-.4-.1-1.45.95-1.7-.05q-.85-.5-.85-1.45l.2-.75.8-.8.65-.4 1.2-.4-.05-1 .05-.4v-.4h-.6l-.7-.15-.5-.45-.05-1.05-.05-.6-.15-.6-.05-.55.2-.5.7.1.3.8v.35l.3.75h.3l.05-1.95.05-.4.3-.3.4.2.35.6.1.55.25.45.15.25.1.4.4-.2-.2-.4v-.05l-.15-.65q-.2-.55-.05-.85.05-.45.5-.6.5-.1.75.25l.2.55.2.7zM30.45 1.75q1.5-.85 2.5-1.2l4.2-.55q5.6-.1 8.65 2l3.35-.1.95.1q1.1.35 1.25 1.55v.55l-.45 3.6-.1.35q.7 1.65 1 3.55.9 5.7-1.95 10.45-1.45 2.35-3.65 4-2.25 1.65-4.9 2.2h-.05l.6 1 .35.8.25 1.6q.2 1.5 0 2.5-.35 1.45-1.3 2.05t-2.1.2q-.7-.25-1.1-.8l-5.45.35-13.1-.35-7.95.2q-4.7.15-7.95-.15-1.85-.2-2.55-.9-.8-.75-.8-2 0-.5.15-1.1-.4-.85-.3-2.25.15-3.65 2.1-7.3 1.5-2.85 4.4-6.25 2.2-2.5 2.2-4.15-3.4-.4-4.7-1.75-1.25-1.3-1-3 .15-1.4 1.25-2.45 1.05-1 2.45-1.25l2.75.4q1.35.5 2.3 1.6 1.8 2 2.05 5.15.2 2-.35 3.5-.6 1.8-2.45 3.85L7.75 21.1l-1.6 2.3.85-.85q1.65-1.6 3.2-2.65 2.35-1.6 5.75-2.85 2-.75 3.85-1.15v-1.05q.25-2.35.95-3.9 1-2 2.65-2.9-.8-1.85-.95-2.9-.2-1.3.35-1.95.45-.7 1.9-.9l4.7-.25.5.05zm-.8 13.1q.3.65.85 1.1l1.95-.1 1.05.15.7.3.85-.85q.9-1.3.4-2.75-.3-1.05-1.3-1.7-1.05-.55-2.1-.4-1.45.25-2.2 1.55-.8 1.25-.2 2.7m6.5 3-.05.05.25.4.15 1.05-.15 1.1-.05 1.1v.1l.25.2.85-.05q.45-.25.55-.85l.05-.25 1.4-.2 2.2.15.2.05v.85q.15.4.65.5.55 0 .7-.4l.1-.6-.05-.6.25-1.05.2-.6v-.55q-.2-.45-.7-.25l-.6.55-.35.65-.1-.05-.65-.15.05-.65-.1-.5-.2-.55-.2-.3-.35-.1-.25.35-.35.8-.2.9H38.5l-.7.15-.25-.8q-.35-.75-1-.65-.25 0-.4.2m9.95-1.45.55.5h.45l.25-.05.1.05 1.65-.05.45.2.4-.3.25-.25.35-.45.15-.35.15-1.5q-.15-.75-.7-1.3l-1.3-.75-1.5.05q-.7.25-1.2.85t-.6 1.4l-.05.25q.1 1.05.6 1.7"/><path fill="#fff" d="M46.1 16.4q-.5-.65-.6-1.7l.05-.25q.1-.8.6-1.4t1.2-.85l1.5-.05 1.3.75q.55.55.7 1.3l-.15 1.5-.15.35-.35.45-.25.25-.4.3-.45-.2-1.65.05-.1-.05-.25.05h-.45zm-9.95 1.45q.15-.2.4-.2.65-.1 1 .65l.25.8.7-.15h1.15l.2-.9.35-.8.25-.35.35.1.2.3.2.55.1.5-.05.65.65.15.1.05.35-.65.6-.55q.5-.2.7.25v.55l-.2.6-.25 1.05.05.6-.1.6q-.15.4-.7.4-.5-.1-.65-.5v-.85l-.2-.05-2.2-.15-1.4.2-.05.25q-.1.6-.55.85l-.85.05-.25-.2v-.1l.05-1.1.15-1.1-.15-1.05-.25-.4zm-6.5-3q-.6-1.45.2-2.7.75-1.3 2.2-1.55 1.05-.15 2.1.4 1 .65 1.3 1.7.5 1.45-.4 2.75l-.85.85-.7-.3-1.05-.15-1.95.1q-.55-.45-.85-1.1"/></g></svg>