<svg xmlns="http://www.w3.org/2000/svg" xmlns:ffdec="https://www.free-decompiler.com/flash" ffdec:objectType="shape" width="75.8" height="42.15"><g fill-rule="evenodd"><path fill="#999" d="M61.5.45H69l.3.05h.45L70 .45h2.65V.4h.85l.3.05.2.05.2.1.1.1.15.1.05.05.1.1.05.1.05.1.05.1.05.1v.15l.15.05.05.1.05.1.1.1v.1l.05.05v.2l.05.1.05.1v.1l.05.05v.2l.05.1.05.1v.15l.05.1v.35l.05.1v.1l.05.1v.45l.05.1v1.1l.05.05v.95l.05.05v.95l.05.05v24.1l-.05.1v7.45l-.05.1.05.1v.25l-.05.1v.2l-.05.1v.05l-.05.1v.1l-.1.1v.1l-.05.05-.1.1-.1.1-.1.1-.15.1-.15.05-.05.05v.05l-.05.1-.05.05-.05.1-.05.1-.15.1-.15.1-.15.1-.25.05h-.15l-.25.05-.8.05h-.75l-.3.05h-.3l-14.6.05-13.55.05h-3.6l-12.85.05H2.65l-.3.05H2.1l-.25-.05-.2-.05-.25-.1-.1-.05-.1-.1-.1-.1-.1-.1-.05-.1-.1-.1v-.05l-.05-.1-.05-.1v-.1l-.05-.1v-.15l-.05-.05-.1-.1-.05-.1-.1-.1-.05-.1-.1-.1-.05-.05v-.1L.15 40l-.05-.1v-.15l-.05-.1v-.2l-.05-.1v-18.9l.05-.1V14.1L.1 14v-1.65l.05-.1v-.45l.05-.1V8.45l.05-.1v-1.9l.05-.1V5.8l.05-.1v-.8l.05-.1V3.65l.05-.1v-.2l.05-.1V3l.05-.1v-.4L.4 2.4l-.05-.05-.1-.1-.05-.1-.05-.1-.05-.1V1.6l.05-.1.05-.1.05-.05.1-.1.05-.1.15-.1.3-.05.25-.05h.25L1.6.9l.1-.05h.75l.2-.05h.1L3 .75 3.4.7h.65l1.2-.05h.5L6 .6l.4-.05h1.05L9.3.5h5l-2.85 2.55L9.5 5.2q-2.75 3.65-3.65 5.7-1.05 2.9-1.25 6.65Q4 23.5 5.75 27.4q2.6 6.1 13.5 10l5.3 1.95 2.85 1.1 2.65 1.4h15.8q1.2-.75 2.6-1.4l2.65-1 5.5-2.05q10.85-3.9 13.5-10 1.7-3.9 1.15-9.85Q71 13.8 70 10.9q-.9-2.05-3.65-5.7L64.5 3.1zm-26.55 0h6Q39.2 1.4 37.9 2.8 36.7 1.4 34.95.45m3.15 40.6h-.3q-1.05-.2-2.25-1.65l-.2-.2q-1.8-2-5.05-3.5-1.15-.5-5.9-2.25-7.95-2.8-9.85-7.25-1.25-2.85-.8-7.15.15-2.75.9-4.85.65-1.5 2.65-4.15 3.25-3.9 6-4.75l5.1-.45q3.9.3 6.05 1.15 2.2.85 3.5 2.3 1.4-1.45 3.5-2.3 2.15-.85 6.1-1.15l5.05.45q2.75.85 6 4.75 2 2.65 2.65 4.15.75 2.1.95 4.85.4 4.3-.85 7.15-1.95 4.45-9.8 7.25-4.8 1.75-5.95 2.25-3.25 1.5-5.1 3.5l-.15.2q-1.2 1.45-2.25 1.65m0-4.95q.8-.15 1.75-1.3 1.35-1.45 3.7-2.6l4.3-1.6 2-.8 1.65-.85q2.6-1.6 3.5-3.65.85-2.05.6-5.2-.15-1.95-.7-3.5-.45-1.1-1.9-3-2.4-2.85-4.35-3.45l-3.7-.35q-2.85.25-4.45.85-.55.2-1 .5-.9.5-1.55 1.15-.95-1.05-2.5-1.65l-.65-.2L31 9.8l-3.7.35q-1.95.6-4.35 3.45-1.45 1.9-1.9 3-.6 1.55-.7 3.5-.3 3.15.6 5.2.5 1.15 1.55 2.15 1.45 1.4 3.95 2.5l1.65.65 4.3 1.6q2.35 1.15 3.7 2.6.95 1.15 1.75 1.3h.25"/><path fill="#fff" d="M14.3.5 15 0h19.05l.9.45q1.75.95 2.95 2.35 1.3-1.4 3.05-2.35l.9-.45h19q.3.2.65.45l3 2.65 1.85 2.1Q69.1 8.85 70 10.9q1 2.9 1.25 6.65.55 5.95-1.15 9.85-2.65 6.1-13.5 10l-5.5 2.05-2.65 1q-1.4.65-2.6 1.4h-15.8l-2.65-1.4-2.85-1.1-5.3-1.95q-10.9-3.9-13.5-10Q4 23.5 4.6 17.55q.2-3.75 1.25-6.65.9-2.05 3.65-5.7l1.95-2.15zm23.8 40.55q1.05-.2 2.25-1.65l.15-.2q1.85-2 5.1-3.5 1.15-.5 5.95-2.25 7.85-2.8 9.8-7.25 1.25-2.85.85-7.15-.2-2.75-.95-4.85-.65-1.5-2.65-4.15-3.25-3.9-6-4.75l-5.05-.45q-3.95.3-6.1 1.15-2.1.85-3.5 2.3-1.3-1.45-3.5-2.3-2.15-.85-6.05-1.15l-5.1.45q-2.75.85-6 4.75-2 2.65-2.65 4.15-.75 2.1-.9 4.85-.45 4.3.8 7.15 1.9 4.45 9.85 7.25 4.75 1.75 5.9 2.25 3.25 1.5 5.05 3.5l.2.2q1.2 1.45 2.25 1.65h.3m0-4.95h-.25q-.8-.15-1.75-1.3-1.35-1.45-3.7-2.6l-4.3-1.6-1.65-.65q-2.5-1.1-3.95-2.5-1.05-1-1.55-2.15-.9-2.05-.6-5.2.1-1.95.7-3.5.45-1.1 1.9-3 2.4-2.85 4.35-3.45L31 9.8l3.8.65.65.2q1.55.6 2.5 1.65.65-.65 1.55-1.15.45-.3 1-.5 1.6-.6 4.45-.85l3.7.35q1.95.6 4.35 3.45 1.45 1.9 1.9 3 .55 1.55.7 3.5.25 3.15-.6 5.2-.9 2.05-3.5 3.65l-1.65.85-2 .8-4.3 1.6q-2.35 1.15-3.7 2.6-.95 1.15-1.75 1.3"/><path d="M67.05 20.1h-.85l-.65-.05-.1.5.3 1v.95q-.2.5-.8.65l-1 .05H62.6l-1.1-.15q-.6-.15-.75-.75l.1-.9.05-.95.1-.5h-.5l-1.45-.3q-.9-.55-.5-1.8.15-.55 1-1.75l1.9-2.4q.9-1.2 1.55-1.55 1.25-.7 2.1.15l1.5 2.7.45 1 .45 1.35.4.7q.3.55.05 1.2-.25.7-.9.85M65.6 24q.35.3.35.8l-.45.75-1.05.2-2.15.05-1.05-.15q-.45-.35-.45-.85 0-.55.5-.8l.8-.2 2.05-.1q1.15 0 1.45.3M43 8.6q.15.4-.2 1.4l-.55 2.6-.55 3.25q3.15-.4 6.15.75Q50.9 17.7 53 20t2.9 5.45q.85 3.1.15 6.15-.3 1.35-.95 1.9-.75.65-2.65.65-13.45-.1-24.1-.55l-4.1-.35q-1.65-.2-2.2-1.05-.4-.55-.3-2.15l.5-8.75v-8.75q0-1.4.35-1.95.35-.75 1.8-1.35 2.25-.9 7.3-1.75l4.9-.55 4.25.4q1.9.25 2.15 1.25m9.85 19.7-.5-2.45-.25-.65q-.75-1.85-2.15-3.15Q48.3 20.5 46 19.9t-4.45 0l-2.15.35-.2-.05h-.55l-.75-.05-1.1.05h-1.65l-1.7-.3-.6-.15q-.35-.15-.4-.45l.2-.5.45-.3 3.5-1.2 2.1-.45h.4l.3-.25.2-.35-1.2-.2-1.3.05-1.3.05-1.1-.05h-1.4l-.55-.05q-.65-.15-.45-.95.1-.55.75-.75l.4-.15.45-.3 1.35-.25 1.7-.35 2-.4 1-.05.2-2.4q-6.5.1-12.8 1.65-.9.3-1.2.65l-.2 1.1-.1 7.8-.05 4.05-.1 2.3-.1 1.45 27.15.9zm-25.05-.1-.5-1q-.2-.8.1-1.45l.1-.2q.25-.5.8-.8.6-.4 1.3-.35t1.25.5l.55.6.25.5q.35 1.35-.6 2.3l-.2.15q-.6.5-1.4.45-.8 0-1.4-.45zm-11.15-8.1h-.85l-.65-.05-.1.5.3 1v.95q-.2.5-.8.65l-1 .05H12.2l-1.1-.15q-.6-.15-.75-.75l.1-.9.05-.95.1-.5h-.5l-1.45-.3q-.9-.55-.5-1.8.15-.55 1-1.75l1.9-2.4q.9-1.2 1.55-1.55 1.25-.7 2.1.15l1.5 2.7.45 1 .45 1.35.4.7q.3.55.05 1.2-.25.7-.9.85M15.2 24q.35.3.35.8l-.45.75-1.05.2-2.15.05-1.05-.15q-.45-.35-.45-.85 0-.55.5-.8l.8-.2 2.05-.1z"/><path fill="#999" d="m25.7 28 .1-2.3.05-4.05.1-7.8.2-1.1q.3-.35 1.2-.65 6.3-1.55 12.8-1.65l-.2 2.4-1 .05-2 .4-1.7.35-1.35.25-.45.3-.4.15q-.65.2-.75.75-.2.8.45.95l.55.05h1.4l1.1.05 1.3-.05 1.3-.05 1.2.2-.2.35-.3.25h-.4l-2.1.45-3.5 1.2-.45.3-.2.5q.05.3.4.45l.6.15 1.7.3h1.65l1.1-.05.75.05h.55l.2.05 2.15-.35q2.15-.6 4.45 0t3.95 2.15q1.4 1.3 2.15 3.15l.25.65.5 2.45h-.05l-.15.1-.15.05-.05.05h-.1l-.15.05h-2.45l-.8-.05h-.65l-1.25-.05-1.6-.05H43.9l-1-.05H32.45l-.4-.05h-1q.95-.95.6-2.3l-.25-.5-.55-.6q-.55-.45-1.25-.5t-1.3.35q-.55.3-.8.8l-.1.2q-.3.65-.1 1.45l.5 1h-.45l-.4-.05-.3-.05h-.3l-.3-.05h-.25z"/><path fill="#fff" d="m25.7 28 .1.05h.25l.3.05h.3l.3.05.4.05h.45l.25.25q.6.45 1.4.45.8.05 1.4-.45l.2-.15h1l.4.05H42.9l1 .05h1.55l1.6.05 1.25.05h.65l.8.05h2.45l.15-.05h.1l.05-.05.15-.05.15-.1h.05l-.1 2.05-27.15-.9z"/></g></svg>