<svg xmlns="http://www.w3.org/2000/svg" xmlns:ffdec="https://www.free-decompiler.com/flash" ffdec:objectType="shape" width="77.35" height="43.55"><g fill-rule="evenodd"><path fill="#999" d="M15.4 41.1H3.05l-.2.05H2.3l-.2-.05h-.25v.05l-.05.1v.05l-.1.1-.05.1-.05.1-.1.1-.1.1h-.05V0h2.3v.05h7.5l5.9.05h7.25l2.6.05h2.4l1.6.05h13.8l1.8-.05h4L52.1.1h7.25l5.3-.05h7.5V0h2.9v.1h.05l.2.1.15.1.15.1.1.05.1.1.05.1.1.1v.1L76 .9l.05.1.05.1.05.1.05.1V2l-.05.1-.05.1v.1l-.05.1-.05.05-.05.1v.15l.05.05.05.1.05.1v.1l.05.1.05.1v.15l.05.1v.45l.05.1v.55l.05.1v1.35l.05.1v5.35l.05.1v2.55l.05.1v21.9l.05.1v2.85l.1.1v.1l.05.1v.6l-.05.1v.1l-.05.1-.05.1v.3l-.05.1v.25l-.05.1-.05.1-.05.05v.1l-.1.1-.05.1-.1.1-.1.1-.15.05-.2.1-.15.05-.3.05-.25-.05-.25-.05-.15-.1-.15-.05-.1-.1-.1-.1-.05-.1-.05-.1-.1-.1v-.05l-.05-.1h-.4l-.2-.05h-12.3l7.5-2.1 1.8-.7.45-.2.45-.1-.95-.05-1 .25-5.5.3-4.35.85.4-.4 3.75-3.25q4.5-3.75 6.85-6.45l.1-.35q-.5-.05-1.25.7l-1.5 1q-4.25 2.5-8.6 5.8L57.3 38l-1.8 1.75L54.05 41h-.35l6.35-8.65 10.5-14.85q.3-.4.1-.65-.2-.15-.65.2-2.05 2-5.65 6.5L55 35.15q-2.7 3.4-3.8 5.3l-.3.55h-2.25l.05-.05.4-1.35.1-1.1-.05-2.15.2-.05q.65-.1 1.1-.55l.1-.1q-.15.45-.15.85 0 1 .8 1.25.7.25 1.65-.8l2.5-3.9 2.35-3.65 2.45-3.6 13.7-24.4.1-.45q-.1-.45-.6-.25l-.5.55-7.9 12.3-8.1 12.15-4.35 6.4L65.7 4.35l-.25-.25h-.4l-.55.6-8.6 14.45q-.35-.85-1.2-1.35l-1.15-.4-.45-.05 3.1-8.5q.25-.75-.2-.75l-.35.3q-1.5 2.45-3.45 7.1l-.7 1.8h-.05l-1.2.1-1.15.15-1.5.2.1-.05 1.85-2.7q1.1-2.3.55-5-.4-2.15-1.7-3.7l.1-.65v-.4l.75-2.3q.3-.9.2-1.4l-.1-.3-.45-.5-.95-.25-.15.05-.6.2-2.25 1-.55.35-1 .75-.4-.15-.15-.05-.8-.2-1.75-.3h-4.2l-1.75.3-.8.2-.55.2-1-.75-.55-.35-2.25-1-.75-.25-.95.25q-.3.2-.45.5l-.1.3q-.1.5.2 1.4l.75 2.3v.4l.1.65q-1.3 1.55-1.7 3.7-.55 2.7.55 5 .75 1.55 1.95 2.75l-1.5-.2-1.15-.15-1.2-.1-.75-1.8q-1.95-4.65-3.45-7.1l-.35-.3q-.45 0-.2.75l3.1 8.5-.45.05q-.75.15-1.15.4-.85.5-1.2 1.35L11.9 4.7l-.55-.6h-.4q-.2.05-.25.25L23.9 32.1l-4.35-6.4-8.1-12.15-7.9-12.3-.5-.55q-.5-.2-.6.25-.1.15.1.45l13.7 24.4 2.45 3.6 2.35 3.65 2.5 3.9q.95 1.05 1.65.8.8-.25.8-1.25l-.15-.85.1.1q.45.45 1.1.55l.2.05-.05 2.15.1 1.1.4 1.35.05.05H25.5l-.3-.55q-1.1-1.9-3.8-5.3l-9.35-11.6q-3.6-4.5-5.65-6.5-.45-.35-.65-.2-.2.25.1.65l10.5 14.85q3.7 5.4 6.35 8.65h-.35l-1.45-1.25L19.1 38l-1.9-1.6q-4.35-3.3-8.6-5.8l-1.5-1q-.75-.75-1.25-.7-.1.15.1.35 2.35 2.7 6.85 6.45l3.75 3.25.4.4-4.35-.85-5.5-.3-1-.25-.95.05.45.1.45.2 1.8.7zm37.8-17.3-3.35 5.9L48.5 32l-.35-1.65 1.95-4.8.6-1.6zm-5.7-.1.85.1v.05l-1.25 2.2-.1-.3-.9-2.1-.05-.1zm-24.3.1 2.5.15.6 1.6 1.95 4.8L27.9 32l-1.35-2.3zm5.7-.1 1.45-.15q-.55 1-.95 2.2l-.1.3-1.25-2.25z"/><path fill="#fff" d="M61.05 41.1H61l-1.4.35-1.8-.05-.4-.05q-1.75 1.8-3.25 2.2-.8.1-1.1-.25-.15-.35 0-.75.2-.75 1-1.55l1.45-1.25L57.3 38l1.9-1.6q4.35-3.3 8.6-5.8l1.5-1q.75-.75 1.25-.7l-.1.35q-2.35 2.7-6.85 6.45l-3.75 3.25-.4.4 4.35-.85 5.5-.3 1-.25.95.05-.45.1-.45.2-1.8.7zM53.7 41l-.6.75-.8.8-1.05.05q-.55-.3-.45-1.05l.1-.55.3-.55q1.1-1.9 3.8-5.3l9.35-11.6q3.6-4.5 5.65-6.5.45-.35.65-.2.2.25-.1.65l-10.5 14.85zm-5.05 0-.1.15q-.55.7-1.45.55h-.6l-.95-.45-.7.05-5.7.4h-.85v-.05h-.2v.05h-.85l-5.7-.4-1.2-.2q-.35.5-1.05.6-.9.15-1.45-.55l-.1-.15-.05-.05-.4-1.35-.1-1.1.05-2.15-.2-.05q-.65-.1-1.1-.55l-.1-.1.15.85q0 1-.8 1.25-.7.25-1.65-.8l-2.5-3.9-2.35-3.65-2.45-3.6L2.55 1.4q-.2-.3-.1-.45.1-.45.6-.25l.5.55 7.9 12.3 8.1 12.15 4.35 6.4L10.7 4.35q.05-.2.25-.25h.4l.55.6 8.6 14.45q.35-.85 1.2-1.35.4-.25 1.15-.4l.45-.05-3.1-8.5q-.25-.75.2-.75l.35.3q1.5 2.45 3.45 7.1l.75 1.8 1.2.1 1.15.15 1.5.2q-1.2-1.2-1.95-2.75-1.1-2.3-.55-5 .4-2.15 1.7-3.7l-.1-.65v-.4l-.75-2.3q-.3-.9-.2-1.4l.1-.3q.15-.3.45-.5l.95-.25.75.25 2.25 1 .55.35 1 .75.55-.2.8-.2 1.75-.3h4.2l1.75.3.8.2.15.05.4.15 1-.75.55-.35 2.25-1 .6-.2.15-.05.95.25.45.5.1.3q.1.5-.2 1.4l-.75 2.3v.4l-.1.65q1.3 1.55 1.7 3.7.55 2.7-.55 5l-1.85 2.7-.1.05 1.5-.2 1.15-.15 1.2-.1h.05l.7-1.8q1.95-4.65 3.45-7.1l.35-.3q.45 0 .2.75l-3.1 8.5.45.05 1.15.4q.85.5 1.2 1.35L64.5 4.7l.55-.6h.4l.25.25L52.5 32.1l4.35-6.4 8.1-12.15 7.9-12.3.5-.55q.5-.2.6.25l-.1.45-13.7 24.4-2.45 3.6-2.35 3.65-2.5 3.9q-.95 1.05-1.65.8-.8-.25-.8-1.25 0-.4.15-.85l-.1.1q-.45.45-1.1.55l-.2.05.05 2.15-.1 1.1-.4 1.35zM25.5 41l.1.55q.1.75-.45 1.05l-1.05-.05-.8-.8-.6-.75q-2.65-3.25-6.35-8.65L5.85 17.5q-.3-.4-.1-.65.2-.15.65.2 2.05 2 5.65 6.5l9.35 11.6q2.7 3.4 3.8 5.3zm-3.15 0q.8.8 1 1.55v.75l-1.1.25q-1.5-.4-3.25-2.2l-.4.05-1.8.05-1.4-.35L7.85 39l-1.8-.7-.45-.2-.45-.1.95-.05 1 .25 5.5.3 4.35.85-.4-.4-3.75-3.25q-4.5-3.75-6.85-6.45-.2-.2-.1-.35.5-.05 1.25.7l1.5 1q4.25 2.5 8.6 5.8l1.9 1.6 1.8 1.75zM47.5 23.7l-1.45-.15.05.1.9 2.1.1.3 1.25-2.2v-.05zm5.7.1-2.5.15-.6 1.6-1.95 4.8.35 1.65 1.35-2.3zm-24.3-.1-.85.1 1.25 2.25.1-.3q.4-1.2.95-2.2zm-5.7.1 3.35 5.9L27.9 32l.35-1.65-1.95-4.8-.6-1.6z"/><path d="m59.5 6.3 1.95-1.35.65-.6.2-.05.2.05.65.6q1.1 1 1.95 1.35l1.7.4 2.05.35q.9.1 1.25.55l.2 1.1q-.15 1.55-1.55 4.25l-.7 1.3q-1.4 2.4-4 4.25-.7.5-1.15.45h-1.2q-.45.05-1.15-.45-2.6-1.85-4-4.25l-.7-1.3q-1.4-2.7-1.55-4.25l.2-1.1q.35-.45 1.25-.55l2.05-.35zm3 2.5v.05h-.3l-.15.1-.1.05-.1.1-.1.1-.05.1-.05.1v.05l-.1.1v.2l-.05.1v.95h-.25l-.85.05-.35.05-.2.1-.15.1-.1.05-.1.1-.1.1-.05.1-.05.1-.05.05v.1l-.05.1v.55l.05.1v.1l.05.05.05.1.05.1.1.1.1.1.1.1.15.05.2.1.35.05.85.05h.2l-.05.05v.8l.05.1v.1l.05.05v.1l.05.1.05.1.05.1.1.1.1.05.1.1.25.1.3.05h.25l.1-.05.15-.05.1-.1.15-.1.1-.1.05-.05.05-.1.05-.1v-.1l.05-.1v-.15l.05-.1v-.65l-.05-.1v-.1h.05l.1-.05.15-.05.15-.1.55-.05.25-.05h.1l.15-.05.1-.1.1-.1.1-.1.05-.1v-.1l.1-.05v-.55l-.05-.1-.05-.1-.05-.1-.05-.1-.05-.05-.15-.1-.15-.1-.15-.05-.25-.05h-.5l-.05-.05-.1-.05-.2-.1-.15-.05v-.7l-.05-.1v-.3l-.05-.05-.05-.1v-.1l-.05-.1-.05-.1-.05-.05-.05-.1-.1-.1-.1-.1-.2-.1zm-28 19.35V21.1l.05-.1v-3.95H30.2l-.35-.05-.2-.1-.1-.05-.1-.1-.1-.1v-.05l-.1-.1v-.05l-.05-.05v-.2l-.1-.05-.1-.1-.05-.1v-.1l-.05-.1-.05-.05v-.4l-.05-.1v-2.25l-.05-.1v-.25l-.05-.1v-.1l.05-.1v-.15l.05-.1v-.1l.05-.1v-.45l-.05-.1v-.45l.05-.1v-.05l.05-.1.05-.1.05-.1.05-.05.05-.1.05-.1.05-.1.1-.05.1-.1.1-.1.15-.05.1-.05h.75l.05-.05.25-.05h.25l.5-.05h.5l.5-.05.4-.05h1.75V5.6l.05-.1.05-.05v-.1l.05-.1.1-.1.1-.1.1-.05.15-.1.2-.05h.2V4.8l.2.05.1-.05.2-.05h.7l.25-.05h2.2l.3.05h.65l.2.05.1.05.2-.05v.05h.2l.2.05.15.1.1.05.1.1.1.1.05.1v.1l.05.05.05.1v3.85h1.75l.4.05.5.05h.5l.5.05h.25l.25.05.05.05h.75l.1.05.15.05.1.1.1.1.1.05.05.1.05.1.05.1.05.05.05.1.05.1.05.1v.05l.05.1v.45l-.05.1v.45l.05.1v.1l.05.1v.15l.05.1v.1l-.05.1v.25l-.05.1v2.25l-.05.1v.4l-.05.05-.05.1v.1l-.05.1-.1.1-.1.05v.2l-.05.05v.05l-.1.1v.05l-.1.1-.1.1-.1.05-.2.1-.35.05h-4.35V21l.05.1v6.25l.45-.05 2.3-.2h1.9l2.9.5q1.15.5 2.2 1.55l.45.5q.8.6 1.2 1.6l.15.5 1.5.15.85.25 1.1.7q.65.6.9 1.5l.05.25v.05q.2 1.1-.2 2.05l-.5.85-.45.55-.35.3q-2.45 2.05-6 1.9h-1.2q-.45.1-.8.35l-.6.55-.25.25h-.3l-.45-.45v-.35l.2-.5.1-.1q.55-1 1.65-1.5l4-1.15 1.2-.7.4-.4.25-.8q-.3-.3-1.15-.3l-.1.05-.7.05-.2.2-.05.1q-1.1 1.3-3.15 2.05l-1.7.5-.25.05-.6.1-1.65.15-4.35-.15-.95-.1-2.65-.6-1.45-.8-.05.05-1.35 1.35-1.45.75-3.5.5-3-.3-.5.15-1.75.2H24l-1.95-.4-.2-.15-.5-.35q-.6-.5-.7-.95-.15-.5-.05-1.1.15-1.05.8-1.75.45-.45.95-.6l.2-1.15.35-.85.35-.65.1-.3-.05-.05-.6-.45-.55-.7-.2-1.3.15-.85.55-.7 1.1-.9q.35-.2.8-.3l1.55-.05.95.15 1.25 1 .15.15 2.35.1 1.35.3 1.8 1.15.55.55v-1.2m5.65-3.95v-3.05l.05-.1V16.5l-.05-.1v-.25l.05-.1.05-.1v-.1l.05-.1.05-.05.05-.1v-.1l.05-.1.1-.1.1-.1.15-.05.2-.1.3-.05h1.25l1.7-.05h1.3v-2.1l-.05-.1v-.55l.05-.05v-.1l.05-.1v-.2h-.15l-.5.05-.5.05h-.5l-.4.05H41.3l-.25-.05h-.1l-.1-.05-.15-.05-.1-.1-.15-.1-.05-.1-.1-.1-.05-.05v-.1l-.1-.1v-.2l-.05-.05v-.15l-.1-.1-.05-.1-.05-.1-.05-.1v-.1l-.05-.05v-.3l-.05-.1V9.5l.05-.1V6.7h-.1l-.15.05h-2.6l-.1-.05h-.15v2.7l.05.1v.25l-.05.1v.3l-.05.05v.1l-.05.1-.05.1-.05.1-.1.1v.15l-.05.05v.2l-.1.1v.1l-.05.05-.1.1-.05.1-.15.1-.1.1-.15.05-.1.05h-.1l-.25.05h-2.25l-.4-.05h-.5l-.5-.05-.5-.05h-.15v.2l.05.1v.1l.05.05v.55l-.05.1v2.1h1.3l1.7.05h1.25l.3.05.2.1.15.05.1.1.1.1.05.1v.1l.05.1.05.05.05.1v.1l.05.1.05.1v.25l-.05.1v4.55l.05.1v8.3q1.55-1.05 3.55-1.65l.25-.05V24.2M10 6.3l1.95-1.35.65-.6.2-.05.2.05.65.6q1.1 1 1.95 1.35l1.7.4 2.05.35q.9.1 1.25.55l.2 1.1q-.15 1.55-1.55 4.25l-.7 1.3q-1.4 2.4-4 4.25-.7.5-1.15.45h-1.2q-.45.05-1.15-.45-2.6-1.85-4-4.25l-.7-1.3q-1.4-2.7-1.55-4.25L5 7.6q.35-.45 1.25-.55L8.3 6.7zm2.8 2.5v.05h-.3l-.15.1-.1.05-.1.1-.1.1-.05.1-.05.1v.05l-.1.1v.2l-.05.1v.95h-.25l-.85.05-.35.05-.2.1-.15.1-.1.05-.1.1-.1.1-.05.1-.05.1-.05.05v.1l-.05.1v.55l.05.1v.1l.05.05.05.1.05.1.1.1.1.1.1.1.15.05.2.1.35.05.85.05h.2l-.05.05v.8l.05.1v.1l.05.05v.1l.05.1.05.1.05.1.1.1.1.05.1.1.25.1.3.05h.25l.1-.05.15-.05.1-.1.15-.1.1-.1.05-.05.05-.1.05-.1v-.1l.05-.1v-.15l.05-.1v-.65l-.05-.1v-.1h.05l.1-.05.15-.05.15-.1.55-.05.25-.05h.1l.15-.05.1-.1.1-.1.1-.1.05-.1v-.1l.1-.05v-.55l-.05-.1-.05-.1-.05-.1-.05-.1-.05-.05-.15-.1-.15-.1-.15-.05-.25-.05h-.5l-.05-.05-.1-.05-.2-.1-.15-.05v-.7l-.05-.1v-.3l-.05-.05-.05-.1v-.1l-.05-.1-.05-.1-.05-.05-.05-.1-.1-.1-.1-.1-.2-.1z"/><path fill="#999" d="m42.45 27.3.2-.3.45-.55 1.2-1.2.5-.5.2-.45q.25-.7 1-.7l.1-.05q1.05.1 1.2 1.05.1 1-.85 1.35l-.35.1q-.4.1-.9.6l-.45.45zm-2.6 13.35-1.1.35-9.35.3-.25-.05-1.6.1q-1.45-.1-2.45-.7l-.15-.1-.85-1.05 1.75-.2.5-.15 3 .3 3.5-.5 1.45-.75 1.35-1.35.05-.05 1.45.8 2.65.6.95.1 4.35.15 1.65-.15.6-.1.25-.05v.05l-.6.6-.8.55-2.9.6H41l-.85.55zm-5.9-11.85-1.1-2-1.45-2-1.15-1.25-.5-.45q-.65-.65-.2-1.5t1.35-.65q.95.1 1.1 1.05l.05.5 2.45 5.65v1.2zm2.4-7.05h.05q.85-.15 1.45.55.55.8.15 1.55l-.9.9-.65.25h-.1v-3.25m0 5.1.5-.05.55.25.1-.8.35-1.1.35-.35.55-.5q.35-.25.7-.2l.1-.05.6.15v3.55l-.25.05q-2 .6-3.55 1.65v-2.6m10.3-6.35v-.2q0-.3.15-.45.15-.2.45-.2l.1-.05.6.35v.7l-.3.3-.55.05-.4-.35zM29 25.75l-.25.2-.4.05q-.25 0-.45-.2-.45-.35-.3-.9.2-.55.75-.55l.05-.05q.55.2.75.5.25.55-.15.95m8.6-5.45-.1-.25v-.25l.15-.35.45-.15v-.05q.45 0 .65.5.1.5-.35.75l-.35.1z"/><path fill="#fff" d="m62.5 8.8.3.05.2.1.1.1.1.1.05.1.05.05.05.1.05.1v.1l.05.1.05.05v.3l.05.1v.7l.15.05.2.1.1.05.05.05h.5l.25.05.15.05.15.1.15.1.05.05.05.1.05.1.05.1.05.1v.55l-.1.05v.1l-.05.1-.1.1-.1.1-.1.1-.15.05h-.1l-.25.05-.55.05-.15.1-.15.05-.1.05h-.05v.1l.05.1v.65l-.05.1v.15l-.05.1v.1l-.05.1-.05.1-.05.05-.1.1-.15.1-.1.1-.15.05-.1.05h-.25l-.3-.05-.25-.1-.1-.1-.1-.05-.1-.1-.05-.1-.05-.1-.05-.1v-.1l-.05-.05v-.1l-.05-.1v-.8l.05-.05h-.2l-.85-.05-.35-.05-.2-.1-.15-.05-.1-.1-.1-.1-.1-.1-.05-.1-.05-.1-.05-.05v-.1l-.05-.1v-.55l.05-.1v-.1l.05-.05.05-.1.05-.1.1-.1.1-.1.1-.05.15-.1.2-.1.35-.05.85-.05h.25v-.95l.05-.1v-.2l.1-.1V9.4l.05-.1.05-.1.1-.1.1-.1.1-.05.15-.1h.3zm-9.1 22.45 13.5-.05h.85l4.6.05h2.2l.35.05.3.05h1l.2.05.15.1.2.1.1.1.1.1.1.05.05.1.05.1.05.1.05.1v.1l.05.05v.1l.05.1v.35l-.05.1v.1l-.05.1v.1l-.05.05-.05.1-.05.1-.05.1-.1.1-.1.05-.1.1-.2.1-.15.1-.15.05h-.05v.05l-.1.1-.05.1-.1.1-.1.1-.1.05-.2.1-.05.05.05.4.2 3.1h.05l.1.1.1.1.05.1.05.05.1.1.05.1v.1l.05.1.05.1v.45l-.05.05-.05.1v.1l-.05.1-.05.1-.05.1-.05.05-.1.1-.15.1-.1.1-.2.1-.15.05h-.15l-.3.05h-.25l-1-.05H68.5l-1.55.05h-4.6l-9.15-.05h-3.25l-1.45-.05h-.05q.35-.25.8-.35h1.2q3.55.15 6-1.9l.35-.3.45-.55.5-.85q.4-.95.2-2.05v-.05l-.05-.25q-.25-.9-.9-1.5l-1.1-.7-.85-.25-1.5-.15zm-6.55 9.4h-7l.3-.15.85-.55h2.3l2.9-.6.8-.55.6-.6v-.05l1.7-.5q2.05-.75 3.15-2.05l.3.3.3-.35.35-.3.1-.05q.85 0 1.15.3l-.25.8-.4.4-1.2.7-4 1.15q-1.1.5-1.65 1.5l-.1.1zm-21.75 0h-5L10 40.6l-1.75-.05h-1.3l-.7-.05h-.7l-.6-.05-.7-.05H3.3l-.15.1h-.2l-.35-.05-.2-.1-.15-.1-.05-.05h-.1l-.1-.1-.05-.1-.05-.1-.05-.1v-.15l-.05-.1v-.1l.05-.1v-1.9l.05-.1v-1.1l.05-.05v-1.5l.05-.05v-.3l.05-.1h-.6l-.25-.05-.2-.05-.2-.1-.2-.1-.05-.1-.1-.05-.1-.1-.05-.1-.05-.1-.1-.1v-.05l-.05-.1v-.1l-.05-.1v-.2L0 32.8l.05-.1v-.2l.05-.1v-.05l.05-.1v-.1l.1-.1.05-.1.05-.1.1-.05.1-.1.05-.1.2-.1.2-.1.2-.05h.25l.95-.05 1.3-.05h1.15l.95-.05h1.3v-.05h5.7l10.5.05.05.05-.1.3-.35.65-.35.85-.2 1.15q-.5.15-.95.6-.65.7-.8 1.75-.1.6.05 1.1.1.45.7.95l.5.35.2.15 1.95.4h.1l.85 1.05zM12.8 8.8l.3.05.2.1.1.1.1.1.05.1.05.05.05.1.05.1v.1l.05.1.05.05v.3l.05.1v.7l.15.05.2.1.1.05.05.05h.5l.25.05.15.05.15.1.15.1.05.05.05.1.05.1.05.1.05.1v.55l-.1.05v.1l-.05.1-.1.1-.1.1-.1.1-.15.05h-.1l-.25.05-.55.05-.15.1-.15.05-.1.05h-.05v.1l.05.1v.65l-.05.1v.15l-.05.1v.1l-.05.1-.05.1-.05.05-.1.1-.15.1-.1.1-.15.05-.1.05h-.25l-.3-.05-.25-.1-.1-.1-.1-.05-.1-.1-.05-.1-.05-.1-.05-.1v-.1l-.05-.05v-.1l-.05-.1v-.8l.05-.05h-.2l-.85-.05-.35-.05-.2-.1-.15-.05-.1-.1-.1-.1-.1-.1-.05-.1-.05-.1-.05-.05v-.1l-.05-.1v-.55l.05-.1v-.1l.05-.05.05-.1.05-.1.1-.1.1-.1.1-.05.15-.1.2-.1.35-.05.85-.05h.25v-.95l.05-.1v-.2l.1-.1V9.4l.05-.1.05-.1.1-.1.1-.1.1-.05.15-.1h.3z"/></g></svg>