<svg xmlns="http://www.w3.org/2000/svg" xmlns:ffdec="https://www.free-decompiler.com/flash" ffdec:objectType="shape" width="66.1" height="40.65"><g fill-rule="evenodd"><path d="m59.3 26.7-1.3-.55q-2.55-.7-3.45-1.75-1.2-1.4-.85-3.3.4-1.7 1.7-3.05l1.3-.95q.5-.25 1.15-.35l-.05-.1q-.15-.65.4-1.2.55-.5 1.25-.25l.8.7.2.5.05.35.95.25q1.2.55 1.85 1.8.8 1.45.15 2.5l-.55.45-.55-.1-.25-.7-.75-1.05q-.6-.4-1.35-.45-1.85-.15-2.9 1.25-.55.9-.1 1.4l.85.4q2.3.4 3.45 1.2 1.4.95 2.3 3.15 1.05 2.75 0 4.45l-1.2 1.2-1.4 1q-.65.35-1.4.5v.45q.1.6-.15 1.05l-.6.55-.8.1-.8-.55q-.3-.5-.15-1.4v-.05q-1.45-.1-2.55-.7-1.55-.85-1.7-2.4-.1-.75.3-1.5.45-.7 1.2-.9t1.5.3q.75.4 1.05 1.15l.3.6q.25.2.7.2 1.05.05 2.4-1.1l.3-.4-.05-.55q-.5-1.55-1.25-2.15M46.45 3.45l.4-1.35.85-1.1Q48 .6 49 .3l.5-.2.65-.1q.95 0 1.7.45l1.45 1.3q.55.9.6 1.85l-.25 1.25-.25.5q-.7 1.45-1.8 1.9l-.75.2q-2.25.35-3.55-.95l-.1-.15-.4-.5-.45-.75-.05-.9zm-2.85 4.4.6.2q1 .55.7 1.25-.15.35-.9.65-1.1.5-1.8 1.5-.65 1.05-.75 2.2v1.1q1.65 1.45 2.75 3.4 1.2 2.15 1.7 5.1.35 2.05.5 5.45l.05 11.95H42.6q.2-7.95-.25-13.45-.3-3.35-1.3-5.7l-.1-.15-1.25-2.05-.05-.05-.2-.25-.25-.25-.4-.45-1.7-1.3-1.4-.6-1.4-.3-1.15-.1-.8-.05-.1-.05q-2.35.25-4.3 1.85-2.55 2.1-3.7 6.4l-.15.7-.6 3.35-.4 4.25-.1 1.25-.05 1.05-.05 2.45-.05 1.55v1.9H18.6q0-4.75.35-9.65.35-5.35 1.3-8.55 1-3.55 3-6.05-.9-.9-.8-3.3l.05-.2.3-2.2q.35-1.65 1-2.55.9-1.25 2.1-1.25.65-.05 1.15.45t.4 1.1l-.35.75-.5.75-.4 1.2q-.2 1.1.1 2.35l.05.15q1.45-.95 3.15-1.45l1.15-.3q.15-1.45.85-2.9.95-1.9 2.55-3.1.75-.6 1.45-.65l.75.15.5.6q.25.75-.85 1.8-1.6 1.6-1.6 3.2l.1.7.75.1q1.35.2 2.65.75.25-1.05.75-1.95 1-1.65 2.6-2.4l.6-.25zM19.35 11.9l-.8.75-2.3.45-1.55-.15-1-.4-.6-.45q-.6-.5-.75-1.3l-.1-1.2.2-1.9.25-.6.8-.85.7-.55q.2-.15.65-.25 2-.55 3.85.3 1.05.5 1.35 1.15l.45 1.45v.4l-.05.2-.4 1.9-.65.95zM50.6 5.45l.4-.15.8-.95.3-.95-.4-.75-.65-.65-1.75-.05-.85.55-.1.2q-.2.3-.25.85l.05.65.4.55.7.55.9.2zm-14.95 13.3.15.95q0 .75-.5 1.4l-1.3.75h-1l-.5-.2q-.75-.4-1.05-1.1v-.05l-.15-.85.2-1q.35-.7 1.1-1.05l1.5-.15.4.15.85.7zm-5.15 5.8q.4-.25.9-.4l2-.2h.2l.75.15 1 .45.25.2q1.4 1 1.7 2.65.3 1.2 0 2.35-.15.9-.7 1.45-.9.9-2.7.9-2.35.1-3.95-.95l-1.1-1.1-.25-.4-.1-.25q-.45-.85-.35-1.7l.35-1.15.85-1.15zm6.2-1.15-.15-.4-.05-.55.05-.3.1-.5q.2-.65.85-.95l.05-.05.3-.15.9-.1.7.15q.9.4 1.25 1.4.2.8-.2 1.55-.4.8-1.15 1.05l-1.2.05-.35-.15q-.8-.35-1.1-1.05M18.6 8.1l-.25-.45-.85-.45-2.2.2-.65.45q-.3.35-.4 1.2-.1.75.05 1.1l.6.55.95.35 1.65-.35q1.3-.8 1.15-2.25zm8.05 17q-.65-.3-1-1.2-.35-1.15.35-2 .6-.8 1.5-.7l.15-.05.55.05q.85.2 1.3 1.15.55 1.2-.25 2.15-.8 1.1-2.05.75zM8.3 26.7 7 26.15q-2.55-.7-3.45-1.75-1.2-1.4-.85-3.3.4-1.7 1.7-3.05l1.3-.95 1.15-.35-.05-.1q-.15-.65.4-1.2.55-.5 1.25-.25l.8.7.2.5.05.35.95.25q1.2.55 1.85 1.8.8 1.45.15 2.5l-.55.45-.55-.1-.25-.7q-.15-.65-.75-1.05T9 19.45q-1.85-.15-2.9 1.25-.55.9-.1 1.4l.85.4q2.3.4 3.45 1.2 1.4.95 2.3 3.15 1.05 2.75 0 4.45l-1.2 1.2-1.4 1-1.4.5v.45l-.15 1.05-.6.55-.8.1-.8-.55q-.3-.5-.15-1.4v-.05q-1.45-.1-2.55-.7-1.55-.85-1.7-2.4-.1-.75.3-1.5.45-.7 1.2-.9t1.5.3q.75.4 1.05 1.15l.3.6.7.2q1.05.05 2.4-1.1l.3-.4-.05-.55q-.5-1.55-1.25-2.15"/><path fill="#999" d="M60.3 6.75q-.35-1 .05-1.7l.45-.55.3-.25.35-.4 1.05-.2q.15-.75.55-1 .8-.35 1.25.35l.1.85.8.6.5.55.05.15.05.3.05.2V6l-.3.2-.6.1-.25-.4-.5-.45q-.3-.2-.55-.3l-.5-.05-.2-.05-.4.05-.75.5-.05.05-.05.25.2.3q.7.65 2.4 1.4l.95.85L66 9.5q.2.6-.05 1.2l-.75 1.05-.75.5-.5.15v.15l-.1.4q-.25.6-.7.8l-.8-.1q-.35-.2-.45-.6v-.5l-.55-.2q-1.25-.4-1.65-1.6l-.05-.55q.1-.6.75-.7.55-.1.95.4l.25.5.4.4.55.05.6-.05q.65-.15.95-.7l.05-.15L64 9.8l-.9-.85-.95-.5q-1.4-.65-1.85-1.7m-13.1-.4-.45.1-2 .7-1.1.65-.05.05-1.85.1-.6.25.3-.55L42.8 6l1.7-1.4 1.95-1.15-.15.75.05.9.45.75zM41.05 21.5l-.05.55v.55l.4 3.25.05 3.65.15 3.85q.4 3.35-.1 4.9l-.55 1.05q-.5.5-1.1.35l-.55-.4-.2-.05q-2.8-.3-7.4-.05l-7.4.25-1.45-.25v-.4l.05-1.55.05-2.45 3.85-3.65 1.7-1.7.1.25.25.4 1.1 1.1q1.6 1.05 3.95.95 1.8 0 2.7-.9.55-.55.7-1.45.3-1.15 0-2.35-.3-1.65-1.7-2.65l-.25-.2-1-.45-.75-.15h-.2l1.3-1.55q2.2-2.5 4.1-4.1l.4.45.25.25.2.25.05.05 1.25 2.05zM22.5 12.9l-.2-.1-.85-.3-.75-.15q-.55-.05-1.25-.5l-.1.05.05-.1.65-.95.4-1.9.05-.2.55.45 1.75 1.5zM48.35 2.7l.45-.05 1.3.2q.95.45.95 1.45 0 .7-.45 1.15l-.45.05-.9-.2-.7-.55-.4-.55-.05-.65q.05-.55.25-.85m3.2 8.9q1.6 0 2.35.9.95 1.25.2 3l-.7.95q-.65.45-1.45.35L50 16.3l-.6-.55-.45-.1-.55-.2-.5.05h-.45l-.8.2q-.9.2-1.2.45l-.65.1q-.15-.15-.05-.45.75-2 3.3-3.25l1.1-.3.45-.15.35-.05L50 12q.45-.4 1.55-.4M37.1 17l-.1.1-1.35 1.65-.3-.45-.85-.7 1.2-1.2zM33 21.85l-2.5 2.7-1.15.85-.85 1.15-2.2 2.2-3.2 3.7.4-4.25 3.15-3.1.55.15q1.25.35 2.05-.75.8-.95.25-2.15l1.95-1.85v.05q.3.7 1.05 1.1zm3.7 1.55q.3.7 1.1 1.05l.35.15 1.2-.05q.75-.25 1.15-1.05.4-.75.2-1.55-.35-1-1.25-1.4l-.7-.15-.9.1-.3.15-.05.05q-.65.3-.85.95l-.1.5-.05.3.05.55zm14.5-7.9 1.2.2.5-.2.15-.3.15-.6.1-.95-.55-.6q-.6-.3-1.05-.3l-.5.1-.15.05H51l-.1.1-.15.1-.3.7-.05.9q.15.5.8.8M29.25 2.45l-.4-.5q-.45-.45-.8-.5l-.9.05-1 .55-.15.55v.45l.2.45.45.55q.75.6 1.65.2.8-.3 1-1.3zM28.9.4q1.2.75 1.45 2.05.15 1.2-.45 2.05l.4 1.15q.35 1.25.3 2.15l-.2 1.35-.5.7-.55-.3-.15-.65-.45-1.8-1.3-1.15-.6-.45q-.7-.15-1.25-.65-.65-.45-.9-1.3-.15-.75.1-1.55.1-.6.3-.95l.6-.55q.7-.5 1.6-.5.9-.05 1.6.4M15.85 11.05l-.25-.85q-.05-.75.4-1.4.5-.65 1.25-.8l1.15.05.2.05.05.35q.15 1.45-1.15 2.25zm9.8 12.85-.8.65-.75.3.15-.7q1.15-4.3 3.7-6.4 1.95-1.6 4.3-1.85l.1.05.8.05-.4.4-4.55 4.8-.55-.05-.15.05q-.9-.1-1.5.7-.7.85-.35 2M4.15 9l.15-.35-.2-.5q-.55-.55-1.05-.6l-1.15-.1q-.7-.1-.9-.5L.9 6.2 1 5.15l.45-.75q.4-.6.75-.7l.8-.15h.25v-.9q.15-.3.5-.4l.15-.05.55.3.1.6-.05.5.8.15q.55.2.75.5l.2.75q-.1.65-.55.65l-.6-.35-1.2-.2-.7.05-.25.05-.4.55 1.6.25.55.25 1 .7.6 1.1v.7l.05.75q-.05.55-.9 1.3l-1.2.75-.65.05v.05l-.15.8q-.25.45-.75.35t-.65-.5L2 11.45l-.25-.1-1.3-.8q-.6-.7-.4-1.45.1-.6.6-.75l.75.2.5.6 1.05.45.8-.1z"/></g></svg>