<svg xmlns="http://www.w3.org/2000/svg" xmlns:ffdec="https://www.free-decompiler.com/flash" ffdec:objectType="shape" width="73.25" height="40.45"><g fill-rule="evenodd"><path fill="#999" d="M59.15 12.5q1.9-.05 3.5.65l.65-.2 2.95-.5h.5q.65 0 1.1.6.4.55.3 1.25l-.2.6-.8 2.2-.25.8q.75 2.3.45 4.35-.35 2.5-2.05 4.05-.9.8-2.3 1.4l-.2.1.2.45q.95 2.35 1.25 5.15l.1 2.55q.1 1.05-.15 1.65-.2.7-.9 1.1l-1.3.35h-1.8l-2-.25h-1.55l-.4-.1-.6.05-1.2-.15q-1.5-.5-2-2.6-.25-1.1-.1-2.1l-.05-.6-.4-.4q-.6-.3-.85-.3-.85 0-1.25.95V34l.4.2.6.65q.2.5 0 .9l-1.05.65q-1.55.25-2.45-1-.3-.45-.45-1.05-.3-1.2.15-2.35l.9-1.5 1.05-.9 1.65-.5 1.1-.15q2.05-.15 3.55 1.4l.65.9.5-2.5.2-.6-1.5-.45-2.25-1.2q-1.3-1.05-2-2.6-.75-1.6-.7-3.25.1-1.8.85-3.3l-.05-.1q-.15-.45-.15-.9l.05-.65.1-.5.45-1.3.4-1.1q.35-.6.8-.85l1.05-.15q.55.1.95.5l.5.5.35.25.2.15q1.6-.65 3.5-.7m.55 8.95-.3.2-.3.3q-.4.4-.9.25-.55-.15-.65-.7l-.05-.25q-.15-.45-.65-.15-.25.15-.25.65l.3.65.7.6.6.1q1.15-.1 1.4-.5 1.15 1.05 2.15.6.8-.35.8-1.2.1-.45-.3-.75l-.4-.1q-.25.05-.35.2l-.2.45-.35.05zm2.6-1.05.95.75 1.25.05.95-.7.35-1.05q0-1.4-1.25-1.8l-1.1-.05q-.6.15-1 .6-.8 1.05-.15 2.2m6.25-2.65q.2-.95.55-1.5.45-.7 1.3-.85l.5.05q.3.2.15.45l-.5.25-.6.55q-.35.55-.35 1.05l.35.8q.35.4.8.45 1.05.2 1.5-.8-.3-.35-.7-.2l-.45.3-.45-.05-.25-.4q-.15-.5.35-.8.3-.25.9-.25l.85.25q.5.3.65.95t-.1 1.2q-.55 1.1-1.9 1.25l-1.35-.2-1-.9q-.35-.55-.25-1.6M49.5 5.3l-.25.4q-.05.35.5.6l.75.1 1.1-.2.5-.3.15-.4q.25-.6-.05-1.05L51.8 4l-.4-.35-.4-.15-.65-.15-.95.1-.25.15-.75.05-.05-.55q.15-.45.55-.7l.85-.25q1.2-.2 1.9 0l.55.25 1.1 1.05.25.7.1 1.15-.05.55-.1.4-.6.85-.55.45-.65.25-.7.05q-1.45 0-2.05-.4l-.3-.3-.2-.3-.25-.8q0-.55.3-.95l.45-.6.25-.25.2-.1L50.65 4q.6.15.85.55l.1.6-.4.55-.65-.1q-.25-.25-.1-.6l-.65.1zm2.85 14.8q0 1.1 1 1.6l1.85-.15q.9-.6.75-1.7l-.65-1.15q-.55-.45-1.25-.4-.7.1-1.2.6-.5.55-.5 1.2M71 35.6l.25-.5-.3-.5-.6-.15-.2.1-.3.45q-.15.35-.55.25l-.45-.45q-.05-.35.5-.9l.4-.35.6-.05 1.1.1.3.15.4.45q.45.8.25 1.5-.15.65-.85 1.2l-.5.3-.5.15-1.7-.1-.45-.2-.85-.7q-.45-.6-.45-1.45-.05-.65.2-1.55.1-.45.35-.6.1-.45.5-.8l.8-.45 1.05-.35 1-.05 1.3.05.85.65.05.55-.3.3-.65-.15-.65-.1-2.1.25-.4.2-.2.35-.3.7q-.25.75.05 1.4l.2.25.45.25q.85.4 1.7-.2m-1.4-7-.05.4-.5.7-.75.4-.85.3-.75.2q-.45-.05-.45-.6l-.35-.35q-.3-.4-.2-1.2l.1-.5.25-.25q.25-.25.6-.25.5 0 .85.45l.85-.3q.4.05 1 .55zM28.75 4.3l-.9-.15-.95-.65-.55-.6v-.5q.2-.6.45-.75l1.05.05.45.05.25-.2q.45-.5 1.15-.25l.45.45.2.45-.2.55-.6.7-.35.3zM8.1 12.45l-.3.35-.1.3q-.15.7-1.1.5l-1-.85-.45-.7q-.15-.55.15-.95.3-.5.9-.4l.75.25q.25-.65.95-.65t.8.75l-.15.7zm9.85 13.45q-1.15 2.1-3.6 3.15l-.5.2.05.2.3 1.45q1.3-.1 2.6.45 1.5.65 1.9 1.75.25.6.15 1.55l-.2 1.3q-.3.8-1.35 1.55l-1.95.8-1.25.35-1.1.2q-.55-.1-.95-.4l-1.95.35-1.85.1-2-.2-.3-.15-.5.2-1-.05q-.5-.2-.75-.65l-.2-.8v-.1l-1.45-.55Q.9 35.9.35 34.8q-.4-.85-.35-1.55.1-.75.7-1.3 1.15-1.15 2.6-.5.65.35.95 1.05.25.7 0 1.35L5.5 34l.4-.7 1.55-2.7.6-1.05h.05q-2.75-.55-4.65-2.2-1.25-1.1-1.95-2.65-.65-1.65-.45-3.25l.1-.65Q.8 20.3.8 19.7v-.55l-.15-.7-.05-1.1.05-.55Q1 15.75 2.1 15.75l2.7.1.15.05.55-.4q3.05-1.95 6-2l.05-.05 2.15-1.4q.8-.5 1.4-.55.95-.1 1.45.5l.5 1.3.35.75.4 1.7v1.1q.5.9.8 2.65.75 3.9-.65 6.4m-1.6-8.35q-.35-1.15-1.5-1.4-1.15-.3-2 .55-.8.9-.5 2.05.3 1.1 1.55 1.45 1.2.25 2-.6.85-.95.45-2.05m-7 5.35-.25-.1-.05-.3-.35-.45q-.35-.2-.55 0-.35.3-.15.85.35.85 1.2 1 .8.15 1.45-.5l.4-.25.35.05q.55.2 1.15 0l.95-.6.3-.75q0-.5-.5-.6-.25 0-.75.35l-.7.3q-.45-.35-.7-.35-.3-.05-.65.7-.45.65-1.15.65m-5.8-1.3q.1.9.9 1.3.75.4 1.55 0 1.1-.6.9-1.8-.25-1.25-1.45-1.4-.6-.1-1.15.25t-.7.95q-.15.3-.05.7m18.65 9.6.65-.1.6-.35.4-.4.3-.6.05-.3-.2-.3-.9-.55h-.35l-.25.2-.1.35.65-.05.35.45-.1.55q-.3.45-1 .45-.85-.1-1.1-.7-.25-.55.15-1.4l.4-.65q.35-.35.9-.35l1 .2 1.25.75.5.6.05.85q-.25 1.75-1.8 2.55l-.5.25-.7.05-1.8-.2-.5-.3-.45-.65-.65-.8-.05-.65q0-.8.15-1.65l.15-.45.4-.6.3-.45.75-.7.4-.25 1.3-.05.7.2.15.5-.25.4-.6.1q-.9 0-1.35.45l-.65.85-.1.25q-.2 1.15.1 1.6l.4.5.4.3zm-7.5 3.4.05.6.7-.3q.6-.2.65-.6 0-.4-.6-.6l-.9-.1z"/><path fill="#fff" d="M62.3 20.4q-.65-1.15.15-2.2.4-.45 1-.6l1.1.05q1.25.4 1.25 1.8l-.35 1.05-.95.7-1.25-.05zm-2.6 1.05 1.25.4.35-.05.2-.45q.1-.15.35-.2l.4.1q.4.3.3.75 0 .85-.8 1.2-1 .45-2.15-.6-.25.4-1.4.5l-.6-.1-.7-.6-.3-.65q0-.5.25-.65.5-.3.65.15l.05.25q.1.55.65.7.5.15.9-.25l.3-.3zm-7.35-1.35q0-.65.5-1.2.5-.5 1.2-.6.7-.05 1.25.4l.65 1.15q.15 1.1-.75 1.7l-1.85.15q-1-.5-1-1.6m-48.8 1.5q-.1-.4.05-.7.15-.6.7-.95t1.15-.25q1.2.15 1.45 1.4.2 1.2-.9 1.8-.8.4-1.55 0-.8-.4-.9-1.3m5.8 1.3q.7 0 1.15-.65.35-.75.65-.7.25 0 .7.35l.7-.3q.5-.35.75-.35.5.1.5.6l-.3.75-.95.6q-.6.2-1.15 0l-.35-.05-.4.25q-.65.65-1.45.5-.85-.15-1.2-1-.2-.55.15-.85.2-.2.55 0l.35.45.05.3zm7-5.35q.4 1.1-.45 2.05-.8.85-2 .6-1.25-.35-1.55-1.45-.3-1.15.5-2.05.85-.85 2-.55 1.15.25 1.5 1.4"/><path d="M64.9 4.8q-.1-.25-.05-.85.1-.6.35-.9.35-.45.8-.2l.25.45-.25.4.55.15.5-.3.15-.6-.2-.85-.6-.25q-.7-.05-1.3.4-.65.5-.85 1.3l-.1.75.1.75.8.75.75.35.6.05 1-.05.85-.3.65-.45.45-.7q.55-1.2.5-1.85l-.3-1.1q-.1-.8.2-1.1l.55-.1.55.3q.3.35.4 1.2l-.1 1.85-.2.75q-.75 2.6-2.85 3.3l-1.35.15-1.65-.15-1.5-.8-1-1.05q-.25-.6-.25-1.6V3.4l.7-1.65.65-.75.7-.5 1.2-.45h.8q1.2.2 1.7.9.6.75.4 2.4-.05.95-.45 1.5l-.7.5-.95.25-1.05-.3zm-6.55 1.5q-.25-.25-.25-1.1v-.05l-.4-.05-.5-.15-.3-.45q0-.25.3-.45l.55-.2.4-.05q0-.9.45-1.2l.75.05.35 1h.15l.6.15.3.5-.1.6q-.25.35-.9.4l-.35 1.05zM32.2 4l8.05.4q2.95 1.05 4.95 3.65L46.45 8l2.6-.1 2.15.1q.6.3.9 1 .35.7.15 1.35l-.35.85-3.4 6.2-.4.65-.15 1.55q-.25 2.45-1.15 4.3-1.05 2.4-3.25 4.1-2.15 1.65-4.8 2.3l-1.4.3.05.4.5 3.35 2.25-2.15 2.5-2.75 2.75-2.5q.8-.65 1.75-1.05 2.1-.8 4.1.25 1.95.95 2.6 3.15.3.9.2 2 0 1.2-.5 2.05L52 34.6l-2.4.05q-1.35-.5-1.65-1.75-.2-.5-.15-1.35v-1.4q-1.7.9-4.35 4-2.6 2.95-4.4 3.8-1.4.7-2.5.35l-1.3.35-1.75-.05-4.35.3h-1.3l-1.1.15-1.1-.05h-.1l-1.7.05-.3-.1-.55.85q-1.1 1.05-2.45.45l-.95-.9q-.3-.65-.25-1.3.05-.45.45-1.25.75-1.5 2-3.3l.05-.05-3.9-.25q-2.45-.6-4.4-2.1-1.25-.9-1.7-1.9-.4-.8-.5-2.6-.2-2.35.55-3.5.45-.75 1.25-1.1L13 20.7l-.2-.8q-.05-.5.3-.9t.85-.5q.5-.05.95.25t.5.8l-.05.9-.3 1.2.35.1.1-1.5.25-1q.35-.6.95-.6.6-.1 1 .4.55.6.25 1.9l-.75 2.15.15.3q.5 1.05.25 2.1l-.5 1.25-.45 1.2q2.5 1.75 4.55 1.7l1.4-.15 3.7-.7.2-.3.2-.25q-3.1-1.8-4.9-4.5-2.65-3.85-1.95-8.15.35-2 1.45-3.85l-.1-.8q-.2-2.6.35-5.5l.3-.9q.6-1.15 1.85-1.15l1.05.15L29.1 4.7zm-2.8 15.35-.1-.4q.15-.95.95-1.25l.45-.3q.2-.4-.3-.6l-.7.05q-1.4.5-1.75 1.75-.2.6 0 1.25t.7 1 1.15.45q1.15.15 1.9-.3l.65.65q.6.4 1.8.5 1.65.1 2.35-.75.65-.65.55-2.15 0-.95-.55-1.15l-.6.05q-.35.2-.35.5l.15.85q-.1.55-.65.8l-1.05.05q-.65-.1-1-.4l-.35-.35-.05-.05-.25-.4-.45-.15-.7.4-1.45.2zm-.7-4.2q.4-1.3-.45-2.4l-1.1-.2-2.75-.45q-.45.35-.75.85-.4.55-.4 1.45-.05 1.15.65 1.95l2.45.25 1.05.3q.95-.55 1.3-1.75m9.1.4-.15.95q-.05 1 .7 1.85l.3.25.25-.05 2.9.25.55-.5q.9-1.1.6-2.35l-.1-.4-.55-.9h-.45l-2.8-.3-.25-.05-.1.05q-.65.5-.9 1.2M11.2 1.1l.85-.45.55-.05 1.55.3.4.25.15.2.3.1.55.6.15.45v.55l-.2.65v.4l-.15.35-.7.9-.55.45-1.45.5-.85.35-.25.15-.3.35-.25.2-.15.05h-.05q-.55.15-.9-.3l-.35-.35-.7-.3L7.4 6.4l-.95-.5-.3-.4v-.2l-.05-.05-.2-.8q-.1-1 .25-1.8l.15-.3.6-.55q1.05-.75 1.9-.7.5 0 1.3.5l.3.25zM11 5.75l1.15-.7 1-.45q.1-.05.35-.15l.25-.25.45-.55.15-.35V3l-.7-.8-.25-.05-1.05.05-.65.45-.15.1-.35.6-.4.45h-.35q-.45 0-.55-.45l-.05-.4-.75-.45-.1-.05h-.3l-.5.2q-.35.2-.45.3-.5.5-.4 1.2l.15.35.65.35.9.05.55.15.45.15.8.5.1.1zm-8.65-.1-.2-.85-.5-.05-.45-.3.05-.3-.05-.05.15-.25h.05l.1-.15.4-.15.05-.05.15.05V3.4l.2-.5.25-.45q.4-.4.9.1.35.35.25.85l.55.05q.4.15.4.65l-.45.6-.4.1h-.15v.1l-.25.95-.55.15z"/><path fill="#fff" d="M37.8 15.55q.25-.7.9-1.2l.1-.05.25.05 2.8.3h.45l.55.9.1.4q.3 1.25-.6 2.35l-.55.5-2.9-.25-.25.05-.3-.25q-.75-.85-.7-1.85zm-9.1-.4q-.35 1.2-1.3 1.75l-1.05-.3-2.45-.25q-.7-.8-.65-1.95 0-.9.4-1.45.3-.5.75-.85l2.75.45 1.1.2q.85 1.1.45 2.4m.7 4.2.35.25 1.45-.2.7-.4.45.15.25.4.05.05.35.35q.35.3 1 .4l1.05-.05q.55-.25.65-.8l-.15-.85q0-.3.35-.5l.6-.05q.55.2.55 1.15.1 1.5-.55 2.15-.7.85-2.35.75-1.2-.1-1.8-.5L31.7 21q-.75.45-1.9.3-.65-.1-1.15-.45t-.7-1 0-1.25q.35-1.25 1.75-1.75l.7-.05q.5.2.3.6l-.45.3q-.8.3-.95 1.25z"/></g></svg>