<svg xmlns="http://www.w3.org/2000/svg" xmlns:ffdec="https://www.free-decompiler.com/flash" ffdec:objectType="shape" width="77.5" height="43.45"><g fill-rule="evenodd"><path fill="#999" d="M32.4 4.45q.7 1.1.8 1.75.3 1.55-.85 3.05-.75 1-1.5 1.2l-.6.1-.35.45-.9.75-.2.15q-.65 1.3-1.95 2.2-2 1.35-4.35.8-1.25-.3-2.3-1.05l-1.4-1.25-.6-.3-1.15-.95q-.9-.9-1.15-1.8-.15-.4-.15-1.75l.1-1.55q.25-1.3 1.1-2.4 2-2.7 5.15-2.95l2.15.1.1.05 3.85.1.85.4q.8 0 1.75.75l.35.35.3.4.4.7zM55.95.8q1.25 1.15.65 2.85-.3.7-1 1.2-.65.45-1.45.45l-1.45-.45q-.7-.5-1-1.2l-.1-.35q-.15-.6 0-1.25.35-1.4 1.8-1.9 1.5-.4 2.55.65M44.1.05l.1-.05q1.15 0 1.9.9.85.9.6 2.05l-.65 1.35q-.7.7-1.45.75-1.35.25-2.3-.85-.9-1-.5-2.3.3-1.35 1.65-1.75zM71.25 11.5q1.3.1 2.1 1.05l.45.95q.4 1.1-.35 2.2-.7.95-1.95 1.05t-2.05-.9l-.3-.35q-.65-1.25-.2-2.45.35-.8.85-1.1l1.3-.4zm.65-8.95q.7-.7 1.75-.7.85.05 1.55.65t.8 1.4q.15.8-.3 1.6t-1.25 1.1l-1.65.05q-.85-.3-1.3-1t-.3-1.6q.1-.95.7-1.5M68.3 7.8q.15 1.05-.35 1.8t-1.55.9q-.9.05-1.75-.45l-.8-.85q-.75-1.3.25-2.55 1-1.15 2.45-.75 1.4.4 1.75 1.9m0 14.4q.45 2.3-.3 4.7-1.25 4.5-4.85 6.25-2.95 1.35-6.2.3-2.95-.95-5.2-3.5-.95-1-1.45-2.2-1-2.3-.2-5.6l.6-1.7-.45.25-1.4.3-.8-.05-.7-.2-.3.45L46 22.45q-1.4 1.3-3 1.9-1.85.65-3.55.05-.65-.2-1.4-.7-2.05-1.1-2.65-2.2-.55-1-.35-2.55.2-1.15.8-2.55 1.2-3.2 2.6-4.25l1.25-.65q2.1-.8 3.8-.45 2.1.4 3.1 2.1l.25.4.55-.3 2.35-.2 1.25.3q1.15.6 1.6 1.6.55 1.05.4 2.2l-.2.9.25-.2q1.15-.65 2.3-.95l1.3-.35 1.1-.6q1.1-.7 2.2-1.05l2.7-.05q1.35.3 2.45 1.15 1.2 1.1 2.15 2.95.85 1.8 1.05 3.25M52.1 7.75q.4.95 0 1.85l-.25.5-.35.4q-.65.65-1.65.75-.95.1-1.75-.55l-.75-1q-.25-.5-.25-1.3l.2-.75.35-.6q.6-.75 1.6-1 1.05-.15 1.85.4.75.55 1 1.3m8.3 15.8.1-.2.05-.15-.1-.1-.05-.15-.4.05-.3.15h-.1l-.05.1-.05.35.05.2.1.2.05.4.2-.05v-.05l.15-.2.1-.05.05-.1.1-.25zm-10.7 17.5q-.15-.35-.15-.9v-.45q.15-1.25 1.15-1.85 1-.65 2.15-.25l.95.55.3.3q.55.55.65 1.35.1.85-.3 1.5l-.7.85q-.9.6-1.75.55-1.05-.1-1.7-.75zm-8.1-5.65.9-.95q.65-.4 1.3-.35l.05-.05q1.35 0 2.2 1.2.7 1.2.15 2.5-.55 1.25-2 1.5h-.7q-1-.15-1.6-.85-.55-.7-.65-1.7l.05-.45zm31.05-.5-.2-.7-.05-.3.05-.35q.15-.85.75-1.45.7-.6 1.55-.6.7-.05 1.45.35l.9.85q.5.65.4 1.5-.05.75-.5 1.35l-1.2.85q-.7.25-1.45 0l-1.2-.75zm-4.45 7.6-.5-.5-.4-.55-.15-.35q-.3-1.25.4-2.3.8-1.05 2.1-1.05.7-.05 1.35.35l1 1.1.25 1.2-.15.8-.2.4q-.55.95-1.65 1.25-1.05.25-2.05-.35M42 5.15q.15 1.6-1.25 2.35-1.35.75-2.65-.25-.55-.4-.8-1.1-.2-.7-.05-1.4.2-.7.75-1.2t1.25-.6q1.05-.15 1.85.5t.9 1.7M13.7 6l-.25.25-.15.25q-1 1-2.3.9-1.35-.15-2.15-1.2-.55-.7-.55-1.75l.05-.6Q8.7 2.35 10 1.8l2.6.1q1.3.75 1.45 2.15Q14.2 5 13.7 6M1.5 4q.55-.6 1.4-.75.9-.15 1.6.25t1 1.25q.3.8.05 1.6-.4 1.3-1.8 1.55-1.35.25-2.25-.8-.55-.65-.55-1.55T1.5 4m3 18.9q-1.25-.95-1.95-2.05H2.5l-.9-.1-1.05-.35L0 20v-5.1q.45-.4 1-.65l1.6-.3.05-.1q1.25-1.7 2.7-2.35l3.5-.1q.85.4 1.35 1.2t.35 1.7q.8.45 1.2 1.35l.3 1.75q0 1.5-.55 3-.6 1.4-1.35 2.25-1 1.1-2.25 1.3l-2.3-.25zm-2.7 5.85Q.6 28.6.05 27.5L0 27.4v-1.85l.25-.45q.9-1.15 2.25-.9t1.75 1.45q.5 1.25-.3 2.25t-2.15.85m6.25 1.3q1.3.65 1.65 2.15.3 1.8-1.1 2.95-1.55 1.1-3.15.3-.75-.35-1.2-1.1-.5-.7-.5-1.55l.2-1.1q.4-.95 1.25-1.5zm-3.75 8.4q.9-.8 2-.75 1.2-.1 2 .8 1.15 1.15.75 2.7-.25 1.15-1.2 1.75-1 .65-2.05.45-1.25-.25-1.9-1.3-.9-1.4-.1-2.95l.4-.5z"/><path d="M48.8 31.7q-2.45-4.2-1.5-8.3.45-1.9 2.05-4.7 1.35-2.1 2.35-3 .95-.75 2.35-1.35-.15-.6.05-1.15.4-1.25 1.75-1.35t1.9 1.05v-.6l-.5-.55Q56.4 10.5 56.8 9l.25-.55 1.1-1.05q.85-.5 2-.5.95-.1 1.7.45l.45.35q.8.95.8 2.05l-.05.6-.15.65-.3.5-.65.7-.15.15v.2l-.05.7 1.35.35q2.8.9 4.75 2.9 3.4 3.5 3.4 8.3 0 4.75-3.2 8.35-2.55 2.9-5.95 3.55l-3.8.15q-3.05-.1-5-.95-2.65-1.2-4.5-4.2m15-13.5q-2.3-1-4.55-.95-2.85.15-4.65 1.95l-1.25 1.65-1.3 2.45q-.95 2.9.35 5.45 1.3 2.7 4.2 3.4l1.75.25h2.6q2.7-.3 4.6-2.45 1.8-1.9 2.15-4.8V23.6q-.25-1.35-2-3.85l-.65-.75q-.45-.45-1.25-.8m-5.65 4.95-.05-3.7.2-.95q.35-.85 1.25-.75t1.15.95l.05.9q-.1 1.2.1 3.6l.1 1.05.5-.2.6-.4q1-.7 1.55-.85 1.05-.35 1.7.25l.35.6-.05.45q-.2.7-1.3 1.5l-2.1 1.8-.3.4q-.55.75-1.35.8-.5.35-1.05.3-.6 0-1.1-.45-.45-.45-.5-1.1l.15-1.15zM9.95 35.9 7.55 33l-1.8-3.2q-.65-1.75-.65-4.25-.05-3.7 1.2-7l-.95-2.65q-.75-1.95-1-3.1-.25-1.1-.2-1.9 0-1.05.65-1.75.8-.9 2.95-1.1 2.7-.2 5.7.1l1.35.25L18 7q2.4-.95 4.6-1.1l1.9-.2v.05q4.3.3 7.65 1.8l1.65.85 1.35-.25q3-.3 5.7-.1 2.15.2 2.95 1.1.65.7.65 1.75l-.2 1.9-1 3.1-.95 2.65q1.25 3.3 1.2 7 0 2.5-.65 4.25-.5 1.2-1.8 3.2l-2.4 2.9L36.2 38l1.9 3.55.3.7H10.2l.3-.7L12.4 38z"/><path fill="#fff" d="m22.75 35.75-4.2 1.3q-2.7.55-4.15-.95-.75-.7-.95-1.9-.25-1.05 0-2.2.45-2 2.1-3.7l1.6-1.4q2.05-1.4 5.65-1.4v-.15q.15-.65.5-1.05.8-.7 1.7-.2.85.5.85 1.55l2.3.45 1.75.8 2.1 1.25q1.65 1.5 1.55 3.95-.1 2.4-1.85 3.8-2.4 1.8-5.95.25l-1.2-.45zm8.2-14.55q-.45 1.65.8 2.7 1 .95 2.35.6 1.35-.3 1.85-1.65.5-1.15-.25-2.45-.8-1.15-2.2-1.15l-.15.05-.55.05-.85.4q-.75.5-1 1.45m-.45 2.9q-1.05-1.5-.35-3.4l.3-.7.85-.9q.8-.6 1.35-.7l.85-.1q1.65-.1 2.65.65l.75.65q.6.75.65 1.8.1 1-.35 1.9-.75 1.45-2.2 2-1.4.6-2.95 0-.95-.4-1.55-1.2m4.1-9.65.65 1.05.05 1.15-.5.75-.85.3q-1.1 0-1.45-.95-.2-.55.05-1.25l.7-1.1q.2-.1.35-.25l.55-.05zm-18.15 5q1.05.8 1.2 2.15.15 1.3-.6 2.45-.55.75-1.5 1.15l-1.85.3q-.95-.1-1.7-.75-.8-.65-1.05-1.55-.3-.9-.05-1.8.05-.5.4-1 .5-.8 1.45-1.3.85-.45 1.85-.4l.75.15q.55.15 1.1.6m-.55-2.8q-.1.55-.6.9l-1.05.35q-.5 0-.95-.4-.45-.45-.55-1-.05-.45.25-1.25.2-.75.5-1.05.35-.35.95-.35.55 0 .9.4l.45 1.2zm12.2 13.4q-1.75-.65-2.95-.7H23.7q-2.85.2-4.05.7l-.05.05q-1.6.25-2.8 1.45-.7.6-.7 1.2-.1.8.7 1.1l.2.05h.75l1.1-.7 1-.45 1.4-.4q2.45-.65 5.05-.05l1.1.4 1 .55q.7.25 1.3-.3.55-.5.4-1.25l-.75-1.1zM12.25 23.6q.75 1.1 2.1.95.8-.05 1.4-.6t.7-1.3q.15-.8-.25-1.5-.35-.75-1.05-1.05l-1.5-.15q-.8.2-1.3.8-.5.55-.5 1.4-.05.8.4 1.45m0 3.4q.1-.95 1.05-1.15.95-.15 1.4.7.3.55.05 1.2-.35.8-1.1.85l-.9-.35q-.6-.5-.5-1.25m22.05-.85q.6.15.9.7l.15.5v.5l-.55.8-.55.3h-.5q-.9-.1-1.15-.9-.35-.85.25-1.5t1.45-.4"/><path d="M30.95 21.2q.25-.95 1-1.45l.85-.4.55-.05.15-.05q1.4 0 2.2 1.15.75 1.3.25 2.45-.5 1.35-1.85 1.65-1.35.35-2.35-.6-1.25-1.05-.8-2.7m-18.7 2.4q-.45-.65-.4-1.45 0-.85.5-1.4.5-.6 1.3-.8l1.5.15q.7.3 1.05 1.05.4.7.25 1.5-.1.75-.7 1.3t-1.4.6q-1.35.15-2.1-.95m15.85 6.45 1.25.55.75 1.1q.15.75-.4 1.25-.6.55-1.3.3l-1-.55-1.1-.4q-2.6-.6-5.05.05l-1.4.4-1 .45-1.1.7H17l-.2-.05q-.8-.3-.7-1.1 0-.6.7-1.2 1.2-1.2 2.8-1.45l.05-.05q1.2-.5 4.05-.7h1.45q1.2.05 2.95.7"/></g></svg>