<svg xmlns="http://www.w3.org/2000/svg" xmlns:ffdec="https://www.free-decompiler.com/flash" ffdec:objectType="shape" width="78.05" height="39.95"><g fill-rule="evenodd"><path fill="#767676" d="m77.45 16.75.5 1.3-.05 1.35-.4 1.35-.45 2.35q-.7 5.45-.7 10.55l.2 1.7.5 1.15q.35.7.3 1.15-.05 1-1.1 1.5l-1.8.5q-2.15.25-6.4.15-4.3-.1-6.4.1t-2.8-.35q-.8-.7-.7-1.95.05-.9.6-2.05l3.2-7.8q1.15-2.7 1.95-3.8l1.5-1.6q1.35-1.05 4.4-2.6l-1.4-8.2q-.2-1.3 0-1.9.3-.85 1.8-1.7l5.15-3 1.2-.5q.8-.15 1.2.4.45.6-.05 1.35l-1.05.95 1.05.95.35 1.4-.3 2.2.15 1.4q.15 1.1-.3 2.4zM48.6 9.95l.15-.75-.3-.65q-1-1.5-1.9-2-.6-.35-1.45-.5l-9.2.3q-1.8.4-2.35 1.25l-.5 1q-.5.6-1 .25-.4-.35-.1-1.1.75-2.25 1.6-2.8.5-.35 1.7-.65 3.4-.85 7.3-.85l3.45.3q1.9.5 3.05 1.6l1.45 1.8.55.95.1 1.3-.2 1.5-.2.65.15.1q.75.65.75 1.35l-.4 1.25q2.25.5 3.35 1.5 1.1 1.1 1.6 2.5l.5 1.95.2 2.65v1.45l-.3 1.2q-.8 2.5-2.3 4.85l-1.9 2.75-.8.9-1.15.1q-.45-.3-.35-.95 0-.45.35-1.05l1.95-2.85 1.75-3 .55-1.55.2-.75-.1-.75-.05-2.85q-.2-1.4-1.3-2.5L52.3 17l-.3.1-.65.1-.65.05-1.05.25-.65.25-.6.1-.8.15-.6.2-.55.3-1.1.7q-.95.65-1.5.65l-.9-.3-.6-.75q-.35-1.15.45-1.85.3-.3.9-.65 2.15-1.3 4.5-3.95l.5-.5-.15-.35q-.15-.5.05-1.55m-9.85 2.45-.55.7-1 2.3-.3.85q-.3.45-.7.4-.4-.1-.5-.5l.05-.75q.25-1.55.95-3.45l.25-.65.1-1.05q.2-.55 1.1-.95L40 8.9l1.85-.3 2.3-.7 2.3.15q1.2.7 1.1 2.05t-1.35 1.85l-1.35.25-5.1.05zm2.3 13.45q0-.3.25-.45.3-.25 1.05-.25H45l.85-.1.35-.4 1.65-2.8 1.6-2.7.65-.8q.95-.8 2.2-.3 1.15.6 1.15 1.85-.05.9-.9 2.1l-1.95 2.9-2 2.15q-1.3 1.2-2.4.95l-.9-.45-1.9-.6-1.9-.6q-.45-.2-.45-.5m-7.95-3.8 1.2-.35 1.7-.4 1.15-.55q1-.5 2.55-1.05l1.6-.25q.75 0 .75.5 0 .4-.45.6l-1.75 1-4.25 1.9q.2.9-.45 1.45l-.75.35-3.45 1.15v.05l-.05-.15-.8.1h-.05l-1.65 1.35-.5.65-.45.75-.85.5-4.5 1.6-.5.15-.85 1.05q-1.85 2.15-4.65 3.2-3.45 1.3-5.9-.25-1.1-.7-1.75-2-.6-1.2-.65-2.6-.05-2.55 1.7-5 3.05-4.4 11.2-6.9l3.65-1.45q1.35-.85 2.55-2.55 1.55-2.35 1.55-4.95 0-2.9-1.95-4.7-1.3-1.15-3.25-1.45l-3.6.3q1.2 2.5-.55 6.45-2.25 5-6.75 8.4-1.4 1-2.45 1.25l-2-.15q-1-.35-1.5-1.2-.75-1.3-.15-3.45 1.2-4.7 6.2-10.45-2.15.3-3.95 2.25-1.25 1.4-2.35 4-1.75 4.15-2.65 8.5-.35 1.8-1.3 1.9l-.45-.05-.95-.8q-1-1.5-.75-3.65.15-1.5 1-3.7l.7-1.85Q3 8.3 4.15 6.45 5.3 4.65 6.5 3.6q1.85-1.65 4.45-2.25L16 1.2l1.3.15 1.35-.25q4.55-1.2 7.9.4 2.2 1.05 3.6 3.25 1.35 2.1 1.6 4.6.4 4.95-3.2 9.1-1.05 1.2-2.25 2.05l-2.55 1.2-2.65.9q-5.5 1.85-8.15 4.65-1.6 1.7-1.75 3.4 0 1 .45 1.45.4.4 1.3.5 2.2.1 5.3-2.3l1.2-.9-.15-.6q-.05-1 1.2-1.7l2.1-.8 1-.45 1.4-.05 1.25.25.45.2.35-.15 1.65-1.2.35-.25.05-.2.3-.45.25-.95-.15-.25 1.1-.35zM13.9 12.1l1.65-3.3q.8-1.8.7-2.9Q12.8 9 10.6 13.3l-.55 1.25q-.45 1.15-.6 2.3l1.7-1.4 1.7-1.9z"/><path d="M41.75 22.9q-4.2 1.9-10.3 5.25v.05l-.1.1-.25.25-.2.15-1.85 1.05-.4.2-.2.55-.1 1.05-.3.95q-.35.4-1.2.6l-4 1.45-1.85.25q-.75-.1-1.65-1.2-2.25-2.5-2.95-4.2-.8-2.15.35-3.55l1.6-1.1 2.2-1.1q1.3-.75 2.05-.85l1.95.15.55.2.1-.05 3.25-1.55-.05-.05 9.4-4.4.25-.2 1.4-.7.25-.05h.05l.05-.05.05-.05 2-2.1 2.75-2.5 1.2-1.4q.4-1-.1-2.8l-4.9-.2-4.45.7-.85.25q-.45.35-.6 1-1.45 3.7-2.05 5.85l-.65 1.65q-.7.9-1.55.5-.5-.2-.7-1v-1.25l.25-5.05q.05-3.2.4-5.05.2-1.15.6-1.55.3-.35 1.55-.8Q39.4.3 43.05.05L45.3.1q.85.15 2.2.75 2.3 1.1 4.85 2.55.85.5 1.1.95.6.8.3 2.55l-.95 5.4 3.65.85q1.75.45 2.25 1.3.3.4.4 1.4l.45 5.45-.2 2.3-.8 2.1q-1.7 3.25-6.2 8.6l-1.3 1.1-1.7-.05q-1.8-.45-4.8-1.65l-4.75-1.75-1.1-.5q-.65-.5-.65-1 0-1 1.05-1.25l1.8.05 6.15.45 1.2-.15.55-.7L51.2 25q1.8-2.9 1.75-4.55-1.45-1.2-2.55-1.25l-1.75.55-3.4 1.6-2.3.9zM33.5 6.15q.45-.45 1.7-.75l3.2-.65 4.1-.65 4 .4q1.25.35 1.7 1.1l.45 1.55q.3 3.2-.5 4.5l-1.65 1.7-4.75 3.95.15.1.45.8.85 1.35 4.45-2.3q1.3-.7 2.2-.8 1.5-.25 4.35 1.3.9.5 1.25 1.05.5.65.35 1.95-.2 1.9-1.25 3.85l-2.2 3.5-1.85 2.7q-.75 1.05-1.35 1.25l-1.05.1-1.05.05 2.85.75q3.25-3.55 5.7-7.65l.9-1.85.15-1.6q0-2.75-.4-5.15l-.15-.55-.7-.4-4.5-.95-.45-.1-.1-.1-.5-.65-.1-.75v-.05l.25-1.7.05-.1.95-4.5-.1-.8-.45-.35q-2.1-1.3-4.6-2.4l-1.5-.5-2.05.1q-4.75.6-9.3 2.2l-.45 2.95.5-.95q.25-.65.45-.95m7.05 14.35 1.1-.4-.8-1.35-.2-.4-.7.35-9.55 4.6-.35.15-2.5 1.4-1.15.65-.65.3h-.2l-.45.1-1-.15-1-.15-.95.3-2.8 1.5q1.55 4.5 2.75 3.85l2.9-.75q.55-.1.65-.4l.1-.6q.05-.8.45-1.35.3-.45 1.1-.85l1.45-.75 2.4-1.25v.05zM21.9 28q.4-.85 1.3-.95.95-.05 1.25.8.45.85-.35 1.5l-.8.35-.85-.15q-.85-.5-.55-1.55"/></g></svg>