<svg xmlns="http://www.w3.org/2000/svg" xmlns:ffdec="https://www.free-decompiler.com/flash" ffdec:objectType="shape" width="69.1" height="39.65"><g fill-rule="evenodd"><path fill="#999" d="m60.4 26.9.5.35.15.6-.45.35-.6-.05-3.9-1.5-.55-.15h-.3l-.3-.15-.05-.05-.15-.1-.5-1-.65-1.85q-.7-1.45-2.2-2.75l-2.95-2.1-3.6-2.2-1.3-.3-4.95-.35-4.6.6-1.55.3q-.7.2-2.75 1.25l-.9.25-.6-.25-.4-.25-1.05-.6-.65-.3-1.1-.6-.05-.05-.1-.05-.65-.2-.55-.15-3.1.1q-2.9.45-4.55 1.15-3.1 1.3-6.3 5.45l-.6.9-.6 1.1q-.45.45-1.7.55-3.3.4-4.7 1.8-.55.45-.8.3-.35-.3.1-.85 1.5-2 3.85-2.65v-.3l.05-.05V23l.05-.05v-.45l.05-.05v-.25l.05-.1v-.8l.05-.05v-.3l.05-.05v-.4l.05-.05v-.25l.05-.05v-.2l.05-.1v-.05l.05-.05.1-.05.05-.05.1-.05h.15l.15.05.1.05.1.05v.05l.1.1v.05l.05.05v.25l.05.05v.5l.05.05v.3l.05.05v.2l.05-.05v-.2l.05-.05v-.8l.05-.05v-.35l.05-.05v-.35l.05-.05v-.3l.05-.05v-.75l.05-.05v-.65l.05-.05v-.25l.05-.05v-.45l.05-.05v-.4l.05-.1v-.15l.05-.05v-.05l.05-.05.05-.05.1-.05.05-.05h.15l.15.05.1.05.1.1v.05l.05.05v.35l.05.05v.3l.05.05v.4l.05.1v.2l.05.05v.5l.05.05v.85l.05.05v.35l.05.05v.4l.05.05v.15l.05.05v.55q1.1-1.45 2.3-2.55l-.05-.05V18l-.05-.05v-.15l-.05-.05v-.4l.05-.05v-.4l.05-.05v-.35l.05-.05V15.4l.05-.05v-.25l.05-.05v-.8l.05-.05v-.25l.05-.05v-.35l.05-.05v-.25l.05-.05v-.25l.05-.05v-.6l.05-.05v-.1l.05-.05v-.25l.05-.1v-.9l.05-.05v-.75l.05-.05v-.3l.05-.05V9.5l.05-.05.05-.05v-.05l.05-.05v-.05l.05-.05v-.05l.1-.05.05-.05h.1l.15.05.05.05.05.05.05.05.05.05.05.05v.1l.05.05v.25l.05.1v.3l.05.05v.6l.05.05v.95l.05.05v.3l.05.05v.35l.05.05v.5l.05.05v.2l.05.05v.1l.05.1v.35L13 14v.4l.05.05v.75l.05.05v.05l.05-.05v-.05l.05-.05v-.1l.05-.05v-.05l.05-.05v-.2l.05-.05v-.3l.05-.05v-.05l.05-.05v-.15l.05-.05v-.25l.05-.05v-.35l.05-.05v-.7l-.05-.05-.05-.05v-.05l-.05-.05v-.2l.05-.05v-.05l.05-.05v-.25l.05-.05v-.05l.1-.1.1-.1h.3l.1.1.05.05.05.05v.3l.05.05v1.1l.05.05v.3l.05.05v.35l.05.05v.15l.05.05v.15l.05.05v.2l.05.1v.15l.05.05v.1l.05.05v.05l.05.05v.15l.05.05v.2l1.2-.5 4.55-1 1.65-.1v-.1l.05-.05v-.15l.05-.05v-.6l.05-.05v-.6l.05-.05v-.3l.05-.05v-.05l.05-.1v-.05l.05-.05V10.2l.05-.05v-.3l.05-.05v-.35l.05-.05v-.25l.05-.05v-.55l.05-.05v-.8l.05-.05V6.6l.05-.05V6.2l.05-.05v-.2l.05-.05v-.45l.05-.05v-.1l.1-.1h.2l.05.1v.05l.05.05v.3l.05.05v.3l.05.05v.3l.05.05v.9l.05.05v1.1l.05.05v.05l.05.05v.65l.05.05v.4l.05.1v.25l.05.05v1.5l.05.05v.05l.05.05v.05l.05.05v.25l.05.05v.55l.05.1v.45l.05.05v.35l.05.05v.1l.05.05v.15h.1l.05.05.05-.3Q25 12 26.5 8.6l1.05-2 .9-1.1q2.9-3.2 6.9-3.95L37.1.8l3.4-.75L42.2 0q3.15.1 6 1.55.45.2.9.5l.4-.6 1.55-.15.65.35 1.65.2.1.05 1.3-1q.9-.55 1.65-.6h1.45L59.4.25l1.55.05Q63.1.6 65.2 3q1.8 2.05 2.05 4.15.3 2.7-1.8 5.2L64.1 13.6l.65 1.3.05.1.7-.05.8-.95.7-1.35.75-.8.3-.35.15.1q1 .75.9 1.95l-.05.5q-.15 1-.65 1.85-.75 1.3-1.75 1.6l-.95.2.05.2.45 2 .65 3.4.15 1.3v.1q.3.05.6.35.5.45.5 1.25l-.25 1.4q-.4 1.65-1.25 2.2l-2.6.15-1.4-.95-.35-1.05-.2-.3-.15-.25-1.2-.85-.15-.1v-.05l-.1-.2-.05-.05v-.1l-.1-.1v-.1l-.1-.2v-.1l-.05-.05v-.2l-.05-.2v-.3l-.1-.1v-.1l-.25-.35-.05-.4v-.05l.1-.9-.3-1q-.35-.45-.9-.45l-.55.1-.45.25-.3.45-.1.25-.15.7-.05.5-.2.75q-.15.15-.15-.1l-.35-.35-.1-.5-.15-.45-.3-.65-.45-1.4-.5-.9-.1-.2v-.25l.35-1.15.6-1.45-.8.15-1.7.1q-1.75-.2-3-2-.6-.95-1.1-2.25l-.5-1.45q-.2-.85-.1-2.1l-.05-.9-.3-.9q-.2-1.1.55-2.2.55-.75 1.25-1.05l-.15-.3-.5-.8-.85-.2-1.25-.45-1.8-.35Q42.15 2 40.2 2.4l-1 .25q-1.3.45-2.65 1.3l-1.2.85q-2.05 1.75-3.1 4.3t-.8 5.2v.85l.65-.2-.1-.65q-.15-2.75 1.2-5.45l.5-.85.7-.85q1.5-1.55 3-2.6l.65-.1v.35l-.3.25q-1 .7-1.65 1.95l-.8 1.95-.3 1q-.55 1.95-.3 4.05l.05.4 5.25-.5 2.85.15v-.4l.05-.05v-.2l.05-.05v-.1l.05-.05v-.4l.05-.05v-.3l.05-.05v-.15l.05-.05v-.3l.05-.05v-.65l.05-.05v-.4l.05-.05v-.4l.05-.05V9.7l.05-.05V9.4l.05-.05v-.3L43.5 9v-.35l.05-.05v-.45l.05-.05.05-.05.05-.05.15-.05L44 8l.1.1v.05l.05.05v.6l.05.05V9l.05.05v.4l.05.05v.35l.05.05v.5l.05.05v.45l.05.05v.2l.05.05v.85l.05.05v.25l.05.05v.15l.05.05v.35l.05.05v.25l.05.05v.15l.05.05v.35l.05.05v.45l.65.2v-.2l.05-.05v-.25l.05-.05v-.4l.05-.05v-.35l.05-.05v-.4l.05-.05v-.3l.05-.05v-.45l.05-.05v-.9l.05-.05.05-.05.05-.05.1-.05h.3l.05.1.1.05v.05l.05.05v.65l.05.05v.55l.05.1v.35l.05.05v.35l.05.05v.3l.05.05v.35l.05.05v.35l.05.05v.2l.05.05v.2l.05.05v.2l.05.05v.35l.1.05 3.05 2.2q3.15 2.2 4.25 3.9v.15l1.2 3.35.25.45.55.25.8.05.3-.05h.1v-.1l.05-.05v-.5l.05-.05v-.15l.05-.05v-.25l.05-.05v-.15l.1-.2v-.3l.3-.9.2-.25h.1l.05.05v.3l.05.05v.05l.05.05v.15l.05.05v.5l.05.05v.25l.05.05v.55l.05.05v.1l.05.05v.45l.05.05v.15l.05.05v.05l.05.05v.2l.05.05v.2l.3.15.05.15.6.3v.05zm-4.1-16.3.45-.7.25-.8-1.1-.25q-1.4-.35-2.05-1.1L53.3 7l-.15-.25h-.05l-.45.3q-.85.65-1.05 1.55-.25.95.35 1.8l1 .75 1.05.4.95-.05.4-.1zm8.75-1.4v-.4l-.2-1.1-.2-.35-.65-.7-1.05 1-1.25.8-1 .35-.8.2q.1 1.3 1.35 1.85l1.45.25.95-.15.8-.55q.55-.6.6-1.2M52.4 12.55q-.8-.8-1.2-1.85h-.05l.55 1.6.55 1.4q.5 1.1 1.4 1.45l1.5.15 1.45-.15.05-.15q-1.25-.35-2.9-1.4zm10.05 18.6-.7-.4-.95-.45-2.95-1.1-2.3-.45-.35.05-.8-.2-2.2.05q.3-2.15-.9-4.1L50 22.8l-2-2-1.75-1-2.95-1.2-3.4-.45q-2.95-.2-4.4 0-1.5.25-3.15.85-1.95.75-2.65 1.2l-1 .35-.4.2-.05.05-.1-.05-.7-.1-.9-.55q-1.75-1.15-3.9-1.3l-2.7.1-.5.05q-2.7.35-5.1 2.2-1.95 1.5-3.75 4.15-.55.8-.75 1.5l-2.6.35-.9.25q-.9.25-1.6.6l-.8.25q-1.1.65-1.65 2.4l-.3.9q-.35.55-.85.4-.3-.05-.5-.5L.6 30.7q.2-1.65 1.35-2.95 1.1-1.35 2.7-1.75l4.3-.75.9-1.55 1.45-2.3q3-3.9 8.8-4.7l2.1-.1q3.4.1 6.1 2.15l.2.15.5-.3q1.6-.8 2.5-1.1l2.1-.45 1.75-.35 4.45-.55q2.45-.1 4.4.75l2.95 1.6q2 1.2 2.55 1.7l.05.05.6.3q1.9 1.15 3.5 4.9L54.2 27q4.25.55 6.6 1.85 1.7.95 1.95 2.25zm-12.8-1 .1.4.6.4.7-.05.2-.1h.45l1.8-.1 2.45.4 1.65.1 1.1.25q.55 0 .8-.3l.8.25 1.25.3 1.35 1.05.75 1.1q.4.9.1 1.95-.25 1-1.05 1.7-1.5 1.25-3.75 1.35l-4.35-.3-4.25.15-1.65.55-3.85.35q-2.85-.85-4.35-.85l-1.25-.1q-.75-.2-.75-.85 0-.4.45-.75l.85-.25q1.95-.3 3.85 0l2.2.3 2.05-.5 1.5-.6 1.9-.35 4.15-.1 2.5.3-.7-.45-1.65-.4-4.3-.15-3.8.6-15.95.65-.35-.05-2.4 1.15q-2.95 1.3-6.6 1.3l-6.75-.6q-1.5-.25-2.25-.7l-.2.05-2.8.3-5.25-.3-1.15-.15-1.15-.45-1.35-.7q-1.05-.6-1.2-1.3-.4-1.1.85-1.85l2.15-.45q1.05 0 1.55.35l.45.7q.1.45-.2.7l3.55.25 3-.05h.2q.35-.95 1.3-.8.6.05 1.55.9l1.3.4 6.45.5q3.6-.15 6.3-1.55l1.65-.85 1.85-.1q.45.15.75.55l.1.1 4-.15 9.15-.85q-.15-.35 0-.75.2-.6.65-.9.65-.5 2.1-.6zm10.6 4.5-.2.9.8-.5-.6-.55zM27.7 13.75l.1.05v-.25z"/><path fill="#fff" d="m60.55 26.55-.05.25-.1.1-.25.05v-.05l-.6-.3-.05-.15-.15-.35V26l-.15-.3.05-.2v-.3l-.05-.1-.05-.35.05-.15v-.3l-.05-.3.05-.05-.25-.85-.15-.35h-.3l-.2.25-.3.9v.3l-.1.2-.1.15v.25l-.15.2.05.25.05.15v.1l-.15.25-.3.05-.8-.05-.55-.25-.25-.45-1.2-3.35v-.15l-.05-.25-.15-.15-.1-.2v-.35l-.15-.2.1-.45q-.2-.25.1-.45l.35.2.05.25.05.05.1.2.5.9.45 1.4.3.65.15.45.1.5.35.35q0 .25.15.1l.2-.75.05-.5.15-.7.1-.25.3-.45.45-.25.55-.1q.55 0 .9.45l.3 1-.1.9v.05l.05.4.25.35v.1l.1.1v.3l.05.2v.2l.05.05v.1l.1.2v.1l.1.1v.1l.05.05.1.2zm4.5-17.35q-.05.6-.6 1.2l-.8.55-.95.15-1.45-.25Q60 10.3 59.9 9l.8-.2 1-.35 1.25-.8 1.05-1 .65.7.2.35.2 1.1zm-8.75 1.4-.95.8-.4.1-.95.05-1.05-.4-1-.75q-.6-.85-.35-1.8.2-.9 1.05-1.55l.45-.3h.05l.15.25.55.75q.65.75 2.05 1.1l1.1.25-.25.8zM28.25 20.8l.05-.05.4-.2 1-.35q.7-.45 2.65-1.2 1.65-.6 3.15-.85 1.45-.2 4.4 0l3.4.45 2.95 1.2 1.75 1 2 2 1.3 1.75q1.2 1.95.9 4.1l2.2-.05.8.2.35-.05 2.3.45 2.95 1.1.95.45.7.4.9.55.2.3-.1.1h-.1l-1.8-.4-1.25-.3-.8-.25q-.25.3-.8.3l-1.1-.25-1.65-.1-2.45-.4-1.8.1h-.45l-.2.1-.7.05-.6-.4-.1-.4-.1-1.2q.1-1.65-.7-2.8l-.9-1.15-1.3-1.35-2.25-1.3q-.9-.45-1.55-.65l-3.3-.5-2.05-.05q-3.75.05-7.55 2.6l-1.05.6-1.15-.15q-.5-.3-.4-.95v-.15l-.35-.55q-.15-.5.35-1.1.25-.3.9-.65M4.75 28q.7-.35 1.6-.6l.9-.25 2.6-.35q.2-.7.75-1.5 1.8-2.65 3.75-4.15 2.4-1.85 5.1-2.2l.5-.05 1.9-.05 1.9.15q1.15.25 1.6 1l.2.8-.35.65-.7.2h-2.6l-2.55.25q-2.35.5-4.45 2.4-1.7 1.65-3.1 3.9l-.1.3-.65.55-.25.1-.55-.05-.35-.05-1.1-.1-1.55.2-1.6.55q-.75.35-.95.45l-1 .9-.55.3q-.35.1-.6-.15-.3-.35 0-.95l.55-1 .5-.5z"/><path d="m26.25 20.65 1.95 1.45q.5-.35 1.05-.6 5.15-2.6 9.85-2.4l2.9.3 1.2.25 2.05 1 1.55.65q1.9 1 3.4 3.2l.85 1.45q.85 1.85.3 3.9l-.05.25q2.7-.25 4.4-.05 2.7.25 4.45 1.55l1.2 1.2q.8 1.2.5 2.6-.3 1.45-1.6 2.1l-2.4.35-1.95-.2-1.65-.45-3.65-.35-1.55.2-.85.55-.8.65-4.45-.2-4.2-.25q.75-1.25 2.35-1.5l2.85.05 1.25.05.95-.5.85-.75q1.15-.9 3.95-1l2.3.1 2.8.6 2.9.05q-.9-1.15-3-1.6l-3.8-.3H50.1l-1.35.25q-1.5.85-4 1.1l-4.35.25q-6.45.1-9.1-.2l-.85-.1-1 .75-1.25.65-1.15.45-3.25.65q-3.45.2-7.6-.8l-1.55-.45-1.6-1-.15-.1q-2.45.95-4.9 1l-1.6-.1L5.05 35q-.65-.15-1.2-.5-1.1-.8-1.35-2.1-.15-1.35.7-2.45.6-.65 1.75-1.2 2.5-1.2 5.95-1.15.25-1.65.9-2.7l.75-.95q1.75-2 3.6-3.1 2.25-1.25 4.6-1.35l3.4.5zm-8.9 8.3-.9.15-.6.35-.4.4q-.4.35-.6 1.1l.15.1 1.5 1.05.2.25.15.15q.4.35.8 1.55l.05.3 1.5-.5 1.1-1.2q.4-.85.1-1.55l-.2-.55-.25-.4-.35-.4-.55-.45q-.7-.45-1.7-.35m9.1.7-.3-.5-.9.5-.4.3-.8.5-.2.15-.3.1-1 .4-.35.25q.5 1.15 1.65 1.8l.85.3q1.1.15 1.95-.7l.45-.7-.05-1.3zm-12.95-1.5v-.2l-.1-.4-.05-.1v-.7l.05-.1-.05-.25v-.2l-.05-.15.05-.1.1-.05v-.15l-.2-.1-.2.1-.1.2-.2.15-.2.3-.1.15-.1.2-.2.3-.15.35-.1.4v.3l-.05.1v.1l-.05.25.05.35.1.25.45.35.45.05.6-.5.1-.2v-.55zM24.75 26l.05-.35h-.05l-.85-.15-.45-.1h-.25l-.2-.1h-1.05l-.1 1-.8.1q-.6.25-.85.8l-.1.35.25.45q.7.55 1.45.45v.25l.1 1.4.7-.3.3-.15.65-.25 1.3-.7.8-.3-.35-.5q-.5-.7-.55-1.2zm.4-2.2q0-.55-.4-.95t-.9-.4q-.9.1-1.3.8l-.35.7.55.1.65.1.15.1h.25l.6.15h.2l.15.1.25.1zm-5.75-1.3-.55-.45-.55-.25-.4-.05-.3.35-.25.15-.25.25-.3.2-1.35.7v.05l-.4.2q-.35.8.15 1.6l.15.25q1 1 2.15.85l.45-.1 1.2-.8.3-.35.2-.4.1-.35q.2-.8-.1-1.5zm16.95 6.45-.4-.45-.15-.25-.2-.25h-.4q-.15 0-.15.15l-.05.15.05.45V29l.05.15-.05.4v.2l-.05.15v.25l-.05.15-.05.3v.65l.5.55 1-.05.3-.4.05-.2.05-.25-.05-.1v-.25l-.05-.35-.05-.15v-.15l-.05-.2v-.15l-.05-.1-.1-.3zm9.8-2.55.1.15.15.1.05.1.25.05v.05h.35v-.05l.6-.35.05-.1.1-.4-.05-.1-.05-.15v-.1l-.1-.1v-.2l-.3-.7-.2-.2-.05-.15-.2-.15-.4-.45-.3-.1-.2-.15-.05.1.05.15.05.1v.1l-.05.1.1.15v.1l.15.65-.05.2v.45L46 26l.05.2v.1z"/><path fill="#fff" d="m46.15 26.4-.1-.1v-.1L46 26l.15-.5v-.45l.05-.2-.15-.65v-.1l-.1-.15.05-.1v-.1l-.05-.1-.05-.15.05-.1.2.15.3.1.4.45.2.15.05.15.2.2.3.7v.2l.1.1v.1l.05.15.05.1-.1.4-.05.1-.6.35v.05h-.35v-.05l-.25-.05-.05-.1-.15-.1zm-9.8 2.55.1.2.1.3.05.1v.15l.05.2v.15l.05.15.05.35v.25l.05.1-.05.25-.05.2-.3.4-1 .05-.5-.55v-.65l.05-.3.05-.15v-.25l.05-.15v-.2l.05-.4-.05-.15v-.25L35 28.3l.05-.15q0-.15.15-.15h.4l.2.25.15.25zM19.4 22.5l.25.35q.3.7.1 1.5l-.1.35-.2.4-.3.35-1.2.8-.45.1q-1.15.15-2.15-.85l-.15-.25q-.5-.8-.15-1.6l.4-.2v-.05l1.35-.7.3-.2.25-.25.25-.15.3-.35.4.05.55.25zm5.75 1.3-.15.8-.25-.1-.15-.1h-.2l-.6-.15h-.25l-.15-.1-.65-.1-.55-.1.35-.7q.4-.7 1.3-.8.5 0 .9.4t.4.95m-.4 2.2v.7q.05.5.55 1.2l.35.5-.8.3-1.3.7-.65.25-.3.15-.7.3-.1-1.4v-.25q-.75.1-1.45-.45l-.25-.45.1-.35q.25-.55.85-.8l.8-.1.1-1H23l.2.1h.25l.45.1.85.15h.05zM13.5 28.15l.05.15v.55l-.1.2-.6.5-.45-.05-.45-.35-.1-.25-.05-.35.05-.25v-.1l.05-.1v-.3l.1-.4.15-.35.2-.3.1-.2.1-.15.2-.3.2-.15.1-.2.2-.1.2.1v.15l-.1.05-.05.1.05.15v.2l.05.25-.05.1v.7l.05.1.1.4zm12.95 1.5.6 1.1.05 1.3-.45.7q-.85.85-1.95.7l-.85-.3q-1.15-.65-1.65-1.8l.35-.25 1-.4.3-.1.2-.15.8-.5.4-.3.9-.5zm-9.1-.7q1-.1 1.7.35l.55.45.35.4.25.4.2.55q.3.7-.1 1.55l-1.1 1.2-1.5.5-.05-.3q-.4-1.2-.8-1.55l-.15-.15-.2-.25-1.5-1.05-.15-.1q.2-.75.6-1.1l.4-.4.6-.35z"/></g></svg>