<svg xmlns="http://www.w3.org/2000/svg" xmlns:ffdec="https://www.free-decompiler.com/flash" ffdec:objectType="shape" width="75.45" height="41.5"><g fill-rule="evenodd"><path fill="#999" d="m44.95 17.5-1.05.1.05.2-.05.35q-.05.35.25 1.05 0 .55-.55.85L42.5 20l-.6-.55-4.8-7.3q-.25-.45 0-.95l.35-.4-2-3.2-4.3-7.1-.35-.5h6.8l.3.5 1.3 2.25 1.25 2.15q.5 0 .8.35l.55.65 1.1 1.6.5 1.05q.45 1.1 2.3 3.25l3.1 4.1.75 1.6q.15 1.15-.95 1.4-.65.15-1.45-.3-.7-.4-1.65-1.6l-.2-.3q0 .6-.35.8M11.95 1q-1.05 1.7-3.1 6.7H8.6l-.15-.15q-.15-.15 0-.5l1.05-3.8.9-2.75.15-.5h2.05l-.35.5zM4.3 13.2l-.1-1q0-.6.15-1v-.35l.25-.9.2-.4.65-.25q.35 0 .55.3l.25.35.7-.05.6.05.45-.6.3-.15h.5l.35.2.1.3.1.7v.7l.2.5-.35 1.45-.55.7.25.5.35-.05q1.25-.15 1.95.8.3-.15.25-.75l.2-.8.65-.1.6.35-.05.3-.3.1q.2.65-.25 1.35l-.65.55h-.85l-.7-.5q-.45 0-.65.35l-.3.3v.05l9.65.5 7.45 1.45q3.8.85 5.5 1.45l3.1 1.15 2.95.9 3.65 1.25q3.15 1.1 4.8 1.2l4.45-.05 3.7.55 5.85.1 6.6-.7L70 23q1.85-.6 3.2-.7l1.35.1q.8.3.8.85l-.5.75v.2l.05.05v.1l.1.05v.3l.05.1v.35l.05.05v.25l.05.1v.5l.05.05v.45l.05.05v5.9l.1.05v5.3l.05.1v.75l.05.05v2.75H0v-.6l.1-.1v-2.3l.05-.1v-4.5l.05-.05v-.75l.05-.05V28.1l.05-.05V25.4l.05-.05V24.1l.1-.05v-1.4l.05-.05v-1.55l.05-.1v-1l.05-.05v-.15l.05-.05v-.05l.05-.1v-.35l.1-.05V19l.05-.05v-.05l.25-.35q.8-.8 2.45-1.3l.9-.25-.1-.15q-.1-.5.2-1.4l.3-.85.35-.5q-.6-.35-.9-.9m46.85 4.35q-1-.05-1.65-1l-.9-1.65-.85-1.15-1.3-1.75Q41.9 5.7 40.2 2.05V1.7l.7.05q.85.6 2.15 2.1l4.4 5.05 4.7 5.95q.7 1.2.45 1.8l-.5.7zM34.9 12.8q-.4-1-.35-1.4h.35l.85.8 1.1 1.95.45.5.65 1 .35.55.45.45 1.05 1.55.4.9q0 .6-.45.8l-.7.05-.6-.4-.25-.35-1.4-2.55-.5-.6-.35-1.1q-.2-.05-.2-.45l-.6-1.3zM7.55 6.6V6l.35-2.55.3-1 .25-.15.15.2-.65 4.15-.1.25-.3.05z"/><path d="M61.85 29.3q-.05 2.5-.95 4.25-.65 1.45-2.05 2.8l-.05.1.45 1.2.15-.2q.45-.65.95-.7.65-.05.95.4l.15.5.1.9-.15 2.95h-6.1l-.4-.75q-.15-.65.3-1.3.45-.6 1.25-.6l-.2-.35-.45.3q-1.6.9-3.7 1.25l-.95.2.25 1.2v.05H27.7l-1.1-2.4-1.25-2.05q-.8-1.3-1.1-2.2L21.7 36.1l-1.1.45q-.75 0-1.05-.4t-.2-1.6l-.25-2.1-.3-2.45q-.05-.8.4-1 .4-.1.7.25l.3.75.8 3.8 2.8-1.55q1.15-.9 1.8-.65l.95.85 2.95 4.5q.75-2.4 2.25-4.35 1.6-2.15 3.9-3.5L35.6 28v-.05l-.1-.05-1.45-.55q-1.2-.65-2.1-2.2l-.4-1.2V22.1l.3-1.2 1.1-2.5q.5-.85 2.15-1.5l1.7-.55q1.4-.2 2.45.35l.95.7 1.4-1.1-1.6-2.45-1.65.35-.75-.05q-.4-.25-.3-.8l.45-.75.4-.4-1.75.2-1.15-.25q-.7-.3-.45-1.05.05-.3.6-.65l.95-.6q-.95-.15-1.9-.65l-.5-.5q-.2-.4.2-.75.25-.25.85-.4l.45-.1.05-.05 1-.3 1.4-.15.4.05.1-.4 1.05-1.7.2-.3.15-.35L40 4l.15-.35.6-.9.95-.1q.45.15.5.7l-.05.5-.3 1.1.3-.35.25-.35q.45-.45 1.1-.15t.5 1l-.25.6-.6 1.25-.5 1.4.1-.15.85-1.15.4-.35.4-.1.1-.05.6.3.2.65-.15.45-.5.9-.8 2.1-.3.65 2.4 3.85 1.65-.2 1.75-.15q2-.05 3.95.75 1.7-1.55 4.05-1.6 2.65-.2 4.8 1.45 1.3.85 2.1 2.2.75 1.35.8 2.85 0 1.8-1.05 3.25-1 1.35-2.5 1.8.35 1.7.35 3.5m-9.15-.2q-.4-.25-1.15-.25l-.1-.4-.25-.5q-.2-.55-.6-.75-.75-.3-1.2.5-.3.45-.2 1.35l.1.25-.65.5q-1.1 1.2-1.1 2.9l.05.55q.15.65.8 1.3l1.3.85 1.4.35 1.6-.35.85-.5q1.05-.8 1.2-2.15l-.35-1.85-.5-.8-.4-.35zm7.7-3.05q.6-1.95-.45-3.35l-.75.15h-2.45l-1.05-.1q-.85-.2-1.6-.85l-.25-.25-.75.5-.45.65q-.7 1.3-.45 2.6.3 1.35 1.25 2.25v-.05q.3-.45 1.25-.75l.8-.25 1.2-.15 1.25-.05 1.05.15q.7.15.95.4zm-19.45 2.9 1.2.15-.05.35q-.2.55.05 1.15l.05.2.55.45h.45l.3-.15 1.15-1.1.15-.3 1.65.45q.45.05.75-.4.2-.4-.1-.8l-.65-.5-.45-.35-.25-.2.3-.6.1-.15.35-.5.15-.5q.2-1.15-.9-1.65l-.9-.1-.8.45-.45.7-.4 1-.1-.05q-.8-.5-1.25-.5l-.75.05-.75.55q-.3.55-.3.95l.15.7zm11.35 1.4q.7.35 1 1 .35.7.2 1.4t-.75 1.2q-.6.55-1.3.5-.7.05-1.25-.4-.7-.4-.85-1.1-.4-1.3.65-2.3 1-.9 2.3-.3m8.4 5.1q.4-1.15 1.05-1.55l.9-.2q1.05-.15 1.55.3l.4.85-.25.9-.75.45-.9-.2-.3-.25-1.2.1-.5.1q-.15-.15 0-.5m-7.25 5.25.4-.3q.35-.1.4.15v.25l-.15.1.1.6h-1.1z"/><path fill="#fff" d="m40.95 28.95-.75-.7-.15-.7q0-.4.3-.95l.75-.55.75-.05q.45 0 1.25.5l.1.05.4-1 .45-.7.8-.45.9.1q1.1.5.9 1.65l-.15.5-.35.5-.1.15-.3.6.25.2.45.35.65.5q.3.4.1.8-.3.45-.75.4l-1.65-.45-.15.3-1.15 1.1-.3.15h-.45l-.55-.45-.05-.2q-.25-.6-.05-1.15l.05-.35zm19.45-2.9-.45.9q-.25-.25-.95-.4l-1.05-.15-1.25.05-1.2.15-.8.25q-.95.3-1.25.75v.05q-.95-.9-1.25-2.25-.25-1.3.45-2.6l.45-.65.75-.5.25.25q.75.65 1.6.85l1.05.1h2.45l.75-.15q1.05 1.4.45 3.35m-7.7 3.05.8.65.4.35.5.8.35 1.85q-.15 1.35-1.2 2.15l-.85.5-1.6.35-1.4-.35-1.3-.85q-.65-.65-.8-1.3l-.05-.55q0-1.7 1.1-2.9l.65-.5-.1-.25q-.1-.9.2-1.35.45-.8 1.2-.5.4.2.6.75l.25.5.1.4q.75 0 1.15.25m-.4 1.25q-1.3-.6-2.3.3-1.05 1-.65 2.3.15.7.85 1.1.55.45 1.25.4.7.05 1.3-.5.6-.5.75-1.2t-.2-1.4q-.3-.65-1-1"/></g></svg>