<svg xmlns="http://www.w3.org/2000/svg" xmlns:ffdec="https://www.free-decompiler.com/flash" ffdec:objectType="shape" width="76.8" height="41.8"><g fill-rule="evenodd"><path fill="#767676" d="M75.25 14.7V17l-.05.05v.85l.05.05v1.65l.05.05v1.5l.05.05v5.2h.05v10.75l-.05.05v.95l-.05.05v.5l.1.05.05.05.05.05.15.15v.05l.05.05v.05l.05.05v.1h.05v.45l-.05.05v.05l-.05.05v.1l-.05.05-.2.2-.1.05-.1.05-.05.05h-.05l-.1.05h-.15l-.05.05h-.2l-.15.05h-.05l-.15-.05h-.2l-.05-.05h-.45l-.15-.05-.15-.05h-.25l-.15.05h-.5l-.2.05H72l-.25-.05h-1.6l-.2.05H67.2l-1.1.05h-4.4l-1 .05h-3.75l-1.3.05H25.6l-.6-.05h-1.3l-.45-.05h-.9l-.4-.05h-.75l-.45-.05h-6.7l-.35-.05h-1.3l-.2-.05h-.65l-.55-.05H9.6l-.7.05h-.6l-.25.05H6.9l-.25.05H4.9l-.15-.05H2.1l-.15-.05h-.1l-.15-.05-.05-.05-.1-.1-.1-.05L1.4 40l-.05-.05-.05-.05-.05-.05-.05-.05-.05-.05-.05-.05v-.05l-.05-.05v-.05H1v-.1l-.05-.05v-.05L.9 39.3v-.15l-.05-.05v-.6l-.05-.05v-10.5l.05-.05v-3.45L.8 24.4v-.9l-.05-.05v-1.8l.05-.05v-3.95l-.05-.05v-14l.05-.05V3.1l.05-.05V2.5l.05-.05V2.1l.05-.05V1.9L1 1.85V1.7l.05-.05v-.2L1 1.4v-.1l-.05-.05V1L.9.95.95.9V.7L1 .65V.6l.05-.05V.5L1.1.45V.4l.05-.05L1.2.3l.05-.05.1-.05.05-.05.1-.05h.2l.15-.05h64.4V0h5.1l1.2.05h.3l.1.05h1.65l.15.05h.1l.1.05h.1l.1.05.1.05.1.05.05.05.05.05.05.05.05.05V.6l.05.05.05.05v.05l.05.05v.4l-.05.05v.05l-.05.05-.05.05v.05h-.05l-.05.05v.05l-.1.05-.05.05-.1.05-.05.05h.05v.05l.05.05v.05l.05.05V2l.05.05v.5l-.05.05v.9l-.05.05v9.4q-2.7.25-5.45-.1l-.8.1-.4-.8-.65-.95 2.6-4.6 2.5-5.15Q73.45.5 72.6.2l-.15.05q-.7.2-1 .75L70 2.6q-2.2 1.9-3.95 4.25l-1.8 2.4-1.1.05-.65.1-.3-.8q-1.1-2.7-2.55-5.15L58.05.9 57.2.1q-.7.4-.55 1.4l.45 2.55v.4l.1.25.05.65.25 1.25.8 4.25.1.4q-.7.6-1.15 1.35l-1.2-.35-3.1-.45-4.95-.9q-.85-.05-1.05.7l.05.25q1.05 1.4 2.8 2l5.35 2.25.8.35q-.05 1.7 1.1 3.15l.4.45q-.3.15-.45.4l-3.7 4.4q-.6.7-.45 1.5.05.35.4.4.9.15 1.5-.55 1.45-1.6 3.5-2.55L59.3 23q.5-.4.6-1 2.5 1.25 5.3.7l1.15-.45.4-.25.1.05 1.7 1.1q1.05.65 2.25 1.1 1.35.5 2.25 1.55t2.1 1.2l.05-.65-.95-1.45-3.6-4.45-.4-.55-.9-1.35.2-.8.15-.9 2.55-1.2 1.35-.45zm-13.35.45 1.25-.6q.6.5 1.55.45l.2.75v.45q-.05.85-.6 1.45l-.7.1q-1.4-.35-2.4-1.3v-.15l.05-.4.05-.4z"/><path fill="#fff" d="m75.25 12.95.25-.05q1.25-.15 1.3.95l-.2.35-1.35.5-1.65.5-1.35.45-2.55 1.2-.15.9-.2.8.9 1.35.4.55 3.6 4.45.95 1.45-.05.65q-1.2-.15-2.1-1.2t-2.25-1.55q-1.2-.45-2.25-1.1l-1.7-1.1-.1-.05-.4.25-1.15.45q-2.8.55-5.3-.7-.1.6-.6 1l-1.05.65q-2.05.95-3.5 2.55-.6.7-1.5.55-.35-.05-.4-.4-.15-.8.45-1.5l3.7-4.4q.15-.25.45-.4l-.4-.45q-1.15-1.45-1.1-3.15l-.8-.35-5.35-2.25q-1.75-.6-2.8-2l-.05-.25q.2-.75 1.05-.7l4.95.9 3.1.45 1.2.35q.45-.75 1.15-1.35l-.1-.4-.8-4.25-.25-1.25-.05-.65-.1-.25v-.4l-.45-2.55Q56.5.5 57.2.1l.85.8 1.6 2.55Q61.1 5.9 62.2 8.6l.3.8.65-.1 1.1-.05 1.8-2.4Q67.8 4.5 70 2.6L71.45 1q.3-.55 1-.75L72.6.2q.85.3.45 1.25l-2.5 5.15-2.6 4.6.65.95.4.8.8-.1q2.75.35 5.45.1m-13.35 2.2-.6.35-.05.4-.05.4v.15q1 .95 2.4 1.3l.7-.1q.55-.6.6-1.45v-.45l-.2-.75q-.95.05-1.55-.45z"/><path d="m31.45 3.35 5.7.25 5.7 1.1q2.85.75 5.15 2.65 1.45 1.25 2.4 2.9l.65.9 1.4 2.65.2.45.75.65.7.6q2.4 1.8 3.35 4.6l.45 1.6q1.85.35 3.05 2l.95-.2v-1.2l-.75.05q-1.45-.5-.95-1.85l-.35-.25q-2.7-1.1-2.7-4.05 0-1.65 1.15-2.85.7-.7 1.55-.9l.35-.45q1.05-1 2.45-1.1 3.1.05 4.9 2.55.95 1.35.7 3l-.75 2.15-1.3 1.3-.1.1-.15.6-.7.7-.9.5-.05 1.75q.95.2 1.8.8 1.7 1.15 2 3.15.3 2.1-.65 4.05-.65 1.35-1.7 2.2l.4 1.2-.25.8q-1.05 1.15-2.3.25l-.25.2q-1.25.95-1.8-.4-.15-.4-.05-.8l-.7-.05q-1.2 1.75-3.25 2.8-.4 1.9-1.75 3.3l-.35.35h-40.5l-1.8-1.15q-1.85 1.4-4.35 1.55l-1.4-.25q-2-.9-2.7-2.95-.25-.7-.2-1.45l.2-2.5-2.3.8h-.65Q-.2 34.9.05 32.9q.25-1.65 1.65-2.6.8-.55 1.75-.65 2.75-.05 4.1 2.25 1.05 1.75.45 3.8l-.4 2 .05.1v.05l.05.15.1.2.1.15.15.1.1.05.2.1v.05q1.55-.05 2.9-.65-1.35-2.05-1.85-4.45-.35-1.75-.4-3.5l-.15-3-.05-2.25q.1-2 .5-3.95.6-2.9 2.15-5.4l2.5-3.55q2.8-3.7 6.95-5.8 5-2.5 10.55-2.75m-1.5 17.85q-1.5.05-2.05 1.4-.6 1.5.55 2.55 1.2 1.15 2.65.3 1-.55 1.05-1.75.1-2.2-2.2-2.5m16.55-1.5h-.25q-2 .35-2.3 2.3-.2 1.4.9 2.3l3.15.1q1.15-.8 1.05-2.2-.2-2.25-2.55-2.5m-10.45 8.4q1.7.25 2.75-1 .65.5 1.7.55 1.85.1 2.55-1.55.4-.95-.4-1.3h-.2l-.3.3-.05.2-.05.1-.05.1-.05.05q-.45.45-1.1.4l-.8-.35-.55-.35q-.95-.45-1.35.4l-.3.3q-1.1 1.3-2.2.2l-.15-.2q-.5-.5-.8.1-.25.35-.1.75l.55.85zM12.3 9.55l-.55.55-.2.1-.05.15-.6.65q-1.65.8-3.45.5l-.75-.25q-1.1-.05-1.85-1.05-.35-.45-.2-1.05.5-2.05 2.65-2.75l2.45-.05.35-.45-.8-.35q-.6-.4-.55-1.15.1-1.55 1.7-1.75 1.05-.05 1.45.6.6.5.7 1.45l.1.8v.75q.25 1.35-.15 2.5zM4.65 7l-.05.05q-.8-.05-.8-.8l-.5-.1-.2-.25q0-.7.85-.75l.05-.2-.05-.35q0-.25.3-.35h.05l.05-.05h.1q.7.15.65.85v.05l.25-.05q.95.1.45.8l-.35.2L5 6.2z"/><path fill="#fff" d="m36.05 28.1-.9-.45-.55-.85q-.15-.4.1-.75.3-.6.8-.1l.15.2q1.1 1.1 2.2-.2l.3-.3q.4-.85 1.35-.4l.55.35.8.35q.65.05 1.1-.4l.05-.05.05-.1.05-.1.05-.2.3-.3h.2q.8.35.4 1.3-.7 1.65-2.55 1.55-1.05-.05-1.7-.55-1.05 1.25-2.75 1m10.45-8.4q2.35.25 2.55 2.5.1 1.4-1.05 2.2l-3.15-.1q-1.1-.9-.9-2.3.3-1.95 2.3-2.3zm-16.55 1.5q2.3.3 2.2 2.5-.05 1.2-1.05 1.75-1.45.85-2.65-.3-1.15-1.05-.55-2.55.55-1.35 2.05-1.4"/></g></svg>