<svg xmlns="http://www.w3.org/2000/svg" xmlns:ffdec="https://www.free-decompiler.com/flash" ffdec:objectType="shape" width="76.25" height="43.1"><g fill-rule="evenodd"><path fill="#767676" d="m21.75 2 .15.65v.3l.1.3.4 1.8.1 1.05q-.1.65-.6.8l-.85-.15-.6-.6-.5-1.25-.55-1-.45-.6-.3-.6V2q.1-.5.5-.85L20.1.8q.6-.1 1.05.35l.25.3zM40 1.1l.35.2.1.15.15.35v.15l.05.2-.05.1V3l.05.25v.25l.05.1-.1.35-.2.25q-.35.3-.85 0l-.15-.15-.15-.35v-.2l-.05-.15-.1-.2-.15-.15-.1-.15-.05-.1-.15-.4-.05-.5.05-.1V1.6l.1-.2.3-.25zM26.6 3.7l-.45.1-.45-.1-.2-.05-.4-.35-.1-.15-.1-.1-.1-.2v-.1l-.05-.1v-.7l.2-.4.2-.25.3-.2.8-.2.4.15.55.3.15.2.2.5v.55l-.1.3-.15.25v.1l-.1.1zm14.9 1.9.1-.5-.1-.4.05-.4.1-1.85.1-.5-.05-.35.1-.65Q42.15.1 43.05.1t1.3.8l.05.25-.05.75-.85 2.75-.4 1.45-.15.75-.25.6-.25.45-.45.25q-.3 0-.45-.2-.3-.3-.2-.8l.15-.85zm8.8-1.75-.5.15v.05h-.5V4l-.6-.15-.35-.3-.45-.6-.05-.15-.05-.55.05-.5.05-.2.3-.45.35-.3.1-.05.15-.1.75-.15.9.25.45.35.2.3.2.6v.4l-.05.3-.25.55zm4.4 6-1.35.9q-.7.4-1.15.25-.5-.3-.3-.95l.6-.9 2.8-2.7 6.1-5.15 1-.65 1.5.15q.75.5.65 1.35 0 .7-.6 1.2l-1.1.85-4.6 2.95-1.1.75-1.5 1.15zm7.45-.35-.35.15-.75.1-.55-.05q-.65-.15-.9-.85-.25-.65.25-1.2l.4-.3 1.8-.7 2.1-.5q1-.1 1.5.75.55.9-.15 1.65l-.3.3-.4.3-1.1.1-.5.05-.7.2zm1.05 2.2.1-.35.1-.2.5-.45.3-.15.15-.05h.35v-.05q.75.1 1.2.55l.05.15.25.45v.15l.05.25-.05.25v.15l-.35.65-.5.35-.15.05-.3.05v.05h-.45v-.05l-.9-.4-.15-.2-.05-.2-.1-.15-.05-.1-.05-.4zm5.35 8.65L68 19.9l-.1-.25-.2.1-.8.3-.05.05h-.3l-.05-.05h-.15l-.05.05h-1.25l-.3.05-.35-.1-.35-.2-.1-.15q-.25-.55.05-1l.6-.4.55-.15.45-.1 1.1-.35.8.05.6.45.1.15.4-.3.35-.2.5-.2.8-.25.8.15q.45.3.6.85l.05.3-.1.4-.2.4-.2.15q-.5.25-.7.4l-.3.2-.9.2v.05h-.45v-.05zm7.2-3.65.2.3.1.3.05.25q.15.7-.55 1.2l-1.2.6-.1.05h-.7l-.25.05-.6-.15-.4-.25-.35-.5-.05-.3q-.2-.9.6-1.35l.25-.15.4-.15 1.15-.3.45-.05.35.05.25.1zM62.4 27.55l-5.6 4.2q-1.15.8-2.9 1.8-1.35.75-2 .6l-.75-.5q-.35-.4-.35-.85l.25-1.3q.15-.9-.2-1.55l-.4-.75-.3-.75q-.05-.55.7-1.6l1.65-2.5.7-1.7q1.85-4.75 2.15-7.15.1-1.1.35-1.55l.6-.55.75-.05q.5.2.65.9l-.1 1.15-.25 2.65-.65 2.5-.1.45.3.3q1.55.9 2.45 2.45l1.65-1.7.7-.55 1.2-.15q.85.15 1.4.85.6.75.55 1.6l-.25 1.15-.95 1.45zm5.95-4.7 1.45-.4 1.5-.25.6.05 1.6-.1 1.25.4q1.05.5 1.35 1.1.35.9-.2 1.55-.55.7-1.5.6-.4-.05-1.45-.65l-4.7-1.55-.3-.15-.05-.3zm1.2 5.8-.95.2-.9-.35-.35-.35-.1-.2-.1-.3-.05-.7.05-.25.1-.3.2-.25q.7-.8 1.65-.55.7.1 1.05.75l.2.3.05.15.05.55-.05.3-.1.15-.15.35-.15.2zM61.2 21.2l-1.05 1.15-.45.2h-.8l-.55-.4-.2-.2-.15-.35-.05-.3.2-1.05 1.2-2.6q.25-.3.65-.3l.1-.05q.75 0 1 .7l.1.2.25.2.3.45.2.6-.1.8-.2.3zM48.55 10.05l.25.25.2.45.3 1.1q0 .6-.7.9-.65.15-1.1-.3l-.25-.25-.15-.35-.8-.9-1-.8-.4-.85.05-.65.2-.4q.45-.55 1.15-.55l.8.2.3.2.25.3.45.5.2.5.15.2zm-5.15 10.3q-.95.8-1.7 1.1l-1.1.4-.05.3-.3 1.2-.2.5-.25.3-.15.35q-.25.65-1.25 1.1l-1.65.3-.35 1-.8 1.35-.45.45-1.05.45-.6.05-1.4.45-.75 1.15q-.85 1.05-1.85 1.3l-1.8.2-1-.1-1.35 1.3q-1.15.75-2.45.65l-1.1-.3-.7-.85q-1.35-2.3-1.85-4.65-.8 0-1.25-.7t-.2-1.45l.35-.5-.05-.5.35-.8L21 21.9 35.6 7.7l1.3-.3q.4.05 1.1.55 3.1 2.4 4.45 5.85l.65 1.5 1.15 1.75q.65 1.1.3 1.95-.2.6-1.15 1.35m25.3 15.3.3-.05.1-.05.45-.05.95.25.2.2.15.2.15.35-.1.65-.5.45-.45.25-.5.2-.25.2-.15.1 1.75.95q1.35.6 1.65 1.35.3.7-.15 1.35-.4.65-1.2.65l-1.15-.4-1.3-.75-9.8-6.25q-.7-.4-.55-.9.15-.45.95-.35 1.2.1 2.85.85l1.05.4q-.15-.8.45-1.25.5-.5 1.35-.35l.45.2.5.2 1.8.9.8.8zm-18-3.1q.1.8-.55 2.3l-.65 1.3-1.1.85-1.7.85-1.2.5-2.45 1.6-1.3.5q-.6-.05-1.3-.85-.4-.6-.45-1-.1-.75.6-1.85l2.6-3.85 2.3-4.05q.45-1.05.75-1.25.7-.6 1.45-.2.6.2.95 1l.6 1.25.85 1.45q.5.85.6 1.45m3.8 8.9-.3.15-.1.15-.95.55-.05.05h-.5l-.1-.05q-.6-.05-1.05-.45l-.55-.95q-.1-.6.25-1.1l.65-.65.5-.2.75-.15 1.2.2.6.45.25.25.25.65-.1.4-.15.2zm-31-29.25-.15 2.65q-.2.9-.75 1.1l-.15.1-.05.2q-.1.75-.6 1.1l-.8.35h-1.25q-.75-.3-.95-.7-.4-.55-.3-1.15 0-.55.3-1.45l.7-2.4.25-.55.6-.55.45-.2h.95l.8.1.4.25.5.65-.25-1.5-.05-1.8.1-.85.4-.7q.3-.3.85-.3l.7.15q.5.3.55.85l.1 1.05v.95l.05.45.2.7v1.8q-.15.85-.95 1-.75.25-1.3-.4-.25-.3-.35-.9M13.15 4.7q.4-.05.8.25l.5.7-.15.9-.65.55h-.85l.1.15.75.7q.75.8 1.2 2.45l.1.45-.2.45-.45.2-.6-.25L12.45 10 10.9 8.9l-1-1-1.95-2-.85-.8q-.35-.5-.2-1.15.1-.6.6-.95.45-.35 1.05-.3.65.05 1.05.4l2.35 3v-.2l.1-.4q.05-.3.4-.55zm-9.1 2.7-1.2-.8-.4-.35-.95-.7-.75-.8Q.45 4.2.7 3.6q.25-.55.8-.8l1.25.05.5.4 2.95 3 1.3 1.8.15.35-.15.5-.45.15-.45-.25-1.15-.75zm5.5 9.55.25-.05.05-.05h.3v-.05l.7.2.55.25.45.35.15.15.1.25.05.2v.15l.05.15v.15l-.25.65q-.3.3-.6.3h-.3l-.2-.1H10v-.05l-.25-.05-.4-.25-.35-.5-.1-.25-.05-.2v-.15l.05-.3.15-.3.25-.3zm8 2.85q.65.1.65.45.05.35-.6.5l-14.6 3-2.3-.1q-.5-.3-.65-.95-.2-.65.15-1.15.45-.55 1.3-.75l1.55-.05 2.85-.25 2.85-.3 1.9.05 3.45-.35zm-.25 8.1-.4.65-.7.85-2.45 2.25L9.6 34.7l-.15.1.5.1q0 .6-.4 1.25l-.6.75q-1.7 1.9-3.6 3.45l-1.05.75-1.25.1q-1-.4-.9-1.65l.1-.5q.15-.4.45-.7.45-.45 1.25-.9l1.35-.75q1.7-1.2 2.85-1.65l-.55-.2q-.55-.25-.75-.9t.1-1.15l1.35-1.1 1.75-1.1 3-2.5q1.9-1.45 3.5-1.7l.75.05q.6.3.35.9zm2.1 6.1h.35q.4.1.6.45t0 .7l-3.4 5.1q-.65.75-1.55.4-.9-.45-.9-1.35t.8-1.4l.5-.6.2-.3.65-.65.4-.5q1.05-1.25 1.75-1.65zm1.9 3.85-.05-.25-.05-.65.1-.3.2-.3v-.1l.15-.15q.55-.35.95-.3v-.05q.7.1 1.05.5l.4.7.05.2.15.15.25.45.05.4-.05.2-.1.2-.25.35-1.15.25v-.05l-.8-.2-.3-.2-.3-.3-.05-.15-.15-.2zm12-4.3.1-.4.35-.45.3-.25 1.4.1.45.2.1-.95q.2-.7.95-.7l.05-.05q.5 0 .75.35l.25.4.35 1.75-.1.55-.15.4-.35.45-.4.3-1.2.25-.1.1-.8.15-.1.1h-.5l-.05-.05q-.9-.2-1.15-.8-.15-.35-.15-.85zm5.6 8.1q-.15 0-.35.2l-.8.15q-.8-.05-1.35-.8l-.2-.2-.2-.35-.1-.75.1-.75.2-.6.35-.35.65-.45.7-.1 1.35.3.3.3.55.75.3 1.1-.25.9-.7.55zM25.45 38.4l.25-.3.6-.55.8-.25.1-.05q.7 0 1.1.35l.25.25.25.45.15.85-.1.9-.5.7-.35.2-.3.25-1.2.2-1.15-.8-.1-.25-.05-.25-.05-.15-.05-.45.1-.7z"/><path d="m28.7 4.5-.2-.35-.2-.95-.2-.4q-.15-.35-.15-.8l.1-.65.2-.3Q28.8.5 29.5.6t1.05.75l.1.3.1.5.05 1.15-.05.2.05.4-.35 2.55-.3.25q-.6.1-.7-.55v-.2l-.15-.25-.3-.4zm24.8 1-1.4 2-.25.3-.35-.05-.15-.35.1-.25.25-1.35.65-3.3.6-1.55q.25-.45.65-.7l.55-.25 1 .2.55.9q.15.7-.45 1.65l-1.05 1.8-.35.55zm9.3 8.4 1.85-1.6 3.1-2.25L70.2 8.2l1.05-.7q.95-.35 1.65.3.75.6.5 1.55l-.75 1.15-1.2.7-4.4 2.35q-2.5 1.3-4 1.35l-.35-.05-.2-.45zm7.25-10.75 1 .1q.6.3.85.95l.1.5-.1.4-.15.25-.1.4-.1.25-.6.6-.95.2-.05-.05q-.6-.15-1.15-.75l-.2-.25-.1-.9.05-.3.3-.55.05-.15.15-.2.7-.45zM19.1 31.6l-.75-1.45q-2.85 4.1-5.45 5.75l-1.6.85q-2.45.9-4.95-.45-1.2-.75-1.7-1.75-.55-.9-.6-2.7-.1-.5.05-.95.15-.55.9-1.15.75-.7 3.15-2.35l6.75-4.1-.05-.6q0-.65 1.3-1.8l2.1-1.7h-.05q-.65-.05-1.55-.75l-3.7-3-1.4-1.2L5.7 10.5l-.95-.8q-.7-.95 0-1.9.6-.95 1.75-.7.55.1 1.15.65l1.2 1 6.75 6.2v-.05L17 9.05l.3-.85q.35-.5 1.35-.9.7-.3 1.4-.45l.55-.35.15-.45q.2-1.4.95-1.9.45-.3 1.55-.3l2.05-.05.7.1q.55.25.65 1.45l.5 5.2v.05l1.75-1.8 1.9-1.6 1.85-1.75 1.1-1.3 1.4-.95 2.3.15q.85.35 2 1.2l2.8 2.7.2-.2 2.3-2.2 1.05-.75 1.25.05.45.55 2.75 4.55.3.65-.05 1-.05 1.95v.45l.05.9.05 1.05.25-.3 1.05-1.2.1-.05-.2-.75-.6-1.95q-.3-.8-.2-1.25.15-.45.6-.7.45-.3.9-.3.65 0 1.85.55l1.3.6.05-.15.45-.65 1.25-.75.8.05-.3-.8-.05-.65.65-.75 1.65-1.25.25-.25.1-.3q.05-.45.7-.65l1-.05 1.4-.15 1.35-.1q.8 0 1.2.4t.5 1.3l.45 3.45-.15 1.1-.75.45-.85.05-3 .45-2.35.45-.3-.1-.2.35-.25.3.05.05 1.15.95.8 1.35 2.6 4.3 3.95 6.5q.5.95.35 1.5-.1.6-1.15 1.1l-1.65.95q-1.3.7-2.3 1.4l5.45-.4 2.1-.05 1.8.15q1.45.1 2 .6.6.6.5 1.35t-.75 1.15l-2.15.15-1.9-.35-4.95-.9-2.45-.2-1.45-.2-1.55 1-5.55 3.7 1.6.55.85.1q1.35.1 3.65 1.2l1 .5q.35.15.6.4.75.85.15 1.8-.5.9-1.6.7l-.85-.3-1.4-.7-1.35-.8-1.4-1.4-.65-.4-.4-.45-.85-.65-.1-.05-1 .65-6.85 4.2-2.05 1.1H38.7l.05-.15q.25-.7 1.2-1.3l.2-.1-.4-1.15-.25-.7-.95-2-.1-.05h-.1l-2.3.45-.55.2 1 1.95 1.6 2.85h-3l-2.45-4.3-1.05-2.1q-.75.4-1.4.75l.1.85.2 3.4-.25 1.05-.65.35h-2.85l-.3-.05-2.85-1.2-1.2-.65-.95-.75-2.65-1.8-.5-.6q-.2-.35.15-1.15l1.2-2.1.5-.6zM63.25 8.55h.4l.35-.1 1.25-.15-.2-2.1-.15-.85h-.7l-.25.1-2.05.2.1.2.2.2.2.3v.2l.2.45.15.35.1.45.1.15.15.3.1.15zm-3.35-1.7-.45.4.4.65.45.55.15.4.2.2h.25l1.2-.25-.15-.15-.2-.45-.25-.8-.15-.2-.15-.8v-.15l-.2-.2V6zm8.45 7.25.65-.25 1.1-.65q.35-.25.75-.25l.1-.05.45.1.3.15.25.3.25.65-.3.8-.7.45-.05.05-.55.05-.05.05-.95.05-1 .1h-.25l-.75-.15-.5.1-.25-.25q-.1-.15.1-.35l.3-.15zm-1.7 5.5-.1-.75q0-.4.35-.65l.4-.25 1.45-1.1.6-.55.5-.3.2-.25.65-.2q.4.1.65.35l.85 1.15.35.45.45.3q.4.4.2.85l-.3.4-.65.7-.5.8-.85.45h-1l-.45.05-1.5.15-.6-.05-.45-.4-.1-.75zm1.55-.75-.05.1.15.45.55-.1 1.7-.1.2-.3.45-.5.05-.1-.05-.05-.1-.25-.15-.15-.35-.5-.4-.4-.1-.05-.05.05-.35.35-.1.1-.2.15-.7.65-.1.2-.25.25zm-6.05 4.75q.85.1.95.95.1.8-.75 1.1h-.4l-.6-.4q-.25-.3-.2-.7t.35-.65q.3-.3.65-.3m-8.95 9.2 9.9-6.5 1.55-.85-2.55-4.15-2.5 2.65-.7.2-.7-.75-.5-.5-1.35-1.55-.2-.4q-.05-.25.35-1l.35-1.65 1.1-3.3.15-.2-.1-.15-.8-.6-2.65-1.25.1 1.45-.55 1.5-.65 2.05L52 21.6l-1.5 3.7-.45.95-.2.25 1.95 4.1.2.9-.25.7-.35 1.1-.3.85zm1.6-26.75.65.3.25.3.15.4q.15.85-.65 1.3-.75.45-1.4-.2-.7-.6-.25-1.45.35-.8 1.25-.65m-7.55 2.4L46.1 6.7l-.45.4-.95.95 1.55 1.85.6.5 1 .1H48l.05-.05h.4zm.85 3.4.35.3.7.75-.25-1-.05-.35v-.15l-.4.05-.15.05h-.45zm1 4.4-.8-.7-2.15-2.4 2.35 4.9.45-.65q0-.2.35-.55l.4-.55zm-.2 2.95q.3 1.1.1 1.75l-.55.9-.6.55.15.2.65.7 2.25-5.9-.4.3-.3.25-1.1.7-.3.25zm-3 6.65-.8 1.25-1.15 1.7-3.25 4.8-1.2 1.65.15.15.1.85.15.65 1.15 3.25 1.15-.65q2.8-1.45 7.4-4.35l.4-1.2.7-2.1.1-.35-.1-.35q-.55-1.55-2.6-4.6l-.25-.5-.4-.55-.75-.9-.75 1.2zm-4.1-1.2L46.45 20q-1.9-5.05-4.75-9.25l-1.05-1.4-1.1-1.1q-2.15-2-3.4-2.55l-3.5 3.55-.95.85-3.25 3.1-3.2 3.15L18 23.1l1.6 3.3.2.35 1.25 2.4q1.75 3.35 3.6 5.75l.15.15.45.15 1.5-.2 1.95-.8q2.6-1.4 7.4-5.1zm15.9-4.1.6.75.9.9 1.6-1.7.5-.45-2.5-4.15-.75 1.85q.15.15-.1.6l-.1.7-.2.95-.05.25zm14.1 13.6.45 3.6-.1 1.1q-.35.6-1.55.6l-2.05.15-.95.4-1-.1-.3-.5-.25-.5-.5-.45-3.3-2.3-.55-.55.05-.75.4-.65 1-1.3.85-.75 1.35.1 2.4.25.8-.1 1.4.15q1.3.2 1.65.8zm-22.55-3.3.1-.05q.45 0 .7.45l.1.4-.05.25q-.25.6-.8.5-.6 0-.75-.6-.1-.6.35-.85zm16.55 3-.75-.1-.15-.05-.9 1-.05.25.1.2 2.6 1.75.05.05.15-1.1.05-.15.1-.8.1-.3.05-.25.1-.2v-.25zm4.35.7-.85-.15-.9-.15h-.1l-.4.9-.1.45v.75l-.15 1v.45h.2l2.65-.25-.05-.45-.05-.2zM34.6 10.75l-.2-1.3.25-.55.35-.55q.8-.95 2.05-.55.45.2.75.5l.55.5.3.75-.1.6-.25.7-.3.3q-.55.5-1.45.65l-.6-.05-.6-.2q-.5-.25-.75-.8m-9.05-.45-.6-3.95-.1-.25-.25-.05-1.45.05-.35 1.6-.25.4 1.1.05q.3 0 .45.15l.15.5-.05 1.95v.95l.1.45v.4l.1.75v.05l1.65-1.4zM22 15.45l1.2-1.05-.05-4 .1-1.2-1.75-.05-.4-.05-.05-.05-.5.15-1.1.6-.2.6-1.2 5.15 2.1 1.35.25.2zM9.6 4.55q-.3-.45.05-.95.2-.35.8-.5l.95-.05h2.65L14.1 3q.45 0 .75.3l.15.8-.1.3v.95l.05 1.8v.45q.1.65-.6.85l-.95-.15-1.65-.5-.15-.1-.7-.2-.5-.5-.25-1.4-.2-.55-.15-.3zm1.85.25.5 1.3.3.2 1.25.35.2-1.55.05-.25zm-.65 15.9-3.15-1.45-.55-.35-.6-.55-.25-.75.15-.5.7-.9-.3.05-1.15-.1L4.9 16q-.55-.15-.85-.7-.15-.2-.15-.6l.05-.45.1-.25.2-.3q.6-.5 1.2-.45l.6.15 1.25.65.55.2.65.45.6-.55q.55-.35.95-.3.65 0 .8.55l.1.4.15.5 1.6 3 .6 1.2.1.3v.25l-.4.8-.85.15-.85-.25zm-.95-4.9-.35.25-.3.3-.3.35-.1.15-.15.1-.45.45 1.15.55.15.05.25-.5.5-.55.25-.2zm.7 2.7.25.2.35.1.65.05-.1-.05-.4-.6-.15-.15-.15-.2-.1-.25-.55.8v.05zm1.5 5.55L10 25.15l-.75.25-2 1.05-.7.2q-.8.1-1.3-.55-.55-.55-.35-1.35.25-.8 1-1.05l.7-.15.65-.05.45-.1.55-.05 1.5-.2 1.8.15.45.1.25.3zm6.8-9.65.2-.15.15-.05.3.05.35.3V15l-.2.3-.2.1-.4-.05-.25-.15q-.3-.45.05-.8m-3.7 11.8-2.2 1.45-5.3 3.7-.5.55q-.3.6.4 1.4l.8.6q.7.35 1.8 0 .85-.25 1.65-.85l2.6-2.6 2.25-3.05.2-.25L16 25.5zm2.2 7.6.5-.3q.35-.1.5.15v.45l-.35.4-1.5 2.15-1.3 1.65q-1.3 1.45-2.5 3.2-.95 1.4-1.8 1.55t-1.4-.45q-.55-.55-.4-1.45.15-.45.6-.95l.9-.8 1.15-1.2.8-.6zm5.75 3.7-1.05-1.3-.7-1-.05.05q-.55.9-.6 1.25l1.75 1.05 1.3.95v-.05l.1-.6zm17.5-7.4 1.15-1.95L39.5 30v.05l-.1 2.35zm-3.05 3.55-.05-2.05-3.5 2.6.8 1.85.15-.05 1.05-.4.55-.15 1.3-.25zM25.2 38h-.1l-.15.45-.25.5.5.15 1.6.9 1.8.15v-2.9q-1.9.75-3.4.75"/></g></svg>