<svg xmlns="http://www.w3.org/2000/svg" xmlns:ffdec="https://www.free-decompiler.com/flash" ffdec:objectType="shape" width="29.55" height="29.7"><g fill-rule="evenodd"><path fill="#999" d="M24.05 4q-.05.55-.9 1.3l-1.5.9-1.35 1.05-.85.35q-.3-.2-.1-.7l.8-1.2 1-1.95q.8-1.2 1.75-1.05.5.05.85.45.35.35.3.85m-1.5 18.95q.9.3 1.2.55l.6.6 1.35.65q.65.45.65 1.35.05.9-.5 1.45-.75.9-2.8 1.35l-7.2.75-11.75-.5Q2 28.9 1.15 28.3q-.7-.5-1-1.3-.3-.85 0-1.5.35-.6 1.55-1.15 2.3-1 8.15-1.55l5.1-.3 4.7.15zm-7.2-16.7-.05.35-.1.35-.2.15q-.45.1-.65-.35v-.7l-.2-.7-.45-3.1.05-1.1q.05-.45.4-.75.4-.35.85-.35l.05-.05q.5 0 .9.4l.45.9v.4l-.45 1.65-.2 1.6zm-5.2.35q.1.55-.15.7l-.55-.15L7.4 5.8l-.85-.45q-.35-.35-.4-.9-.05-.5.3-.9.3-.35.85-.4.5-.05.9.25l.5.6.65 1.1z"/><path d="m7.9 26.1-1.05-.3-.8 1q-.75.75-1.1.65l-.6-.35q-.35-.35-.45-1.45-.05-.95.05-1.45l.05-.1q-1.35-1.2-1.85-2.75l-.3-1.3-.65-.15-.85-.35Q-.1 19 .2 18.25q.2-.5.95-1l1.05-.3h.1q.35-.9 1.05-1.9Q5.4 12.1 8.95 11q3.5-1.1 7.05.1l.15.05q.05-.6.65-1.3l.75-.45.8-.1 1.4.5 4.2-.15q1.25.25 2.3.85.25-.3.55-.4l.95.05 1.3.8.1.75-.05.75-.2.4-.1.15.35.65q.6 1.45.35 3.2-.2 1.75-1.1 3.5L27 22.3l-.7.65-.75.45q-.95.6-1.7.85l-1.4.25-.35.1-.05.45-.35.9q-.35.4-.8.3-.3 0-.65-.35l-.35-.45-.15.05-.65.3-2.05.45h-.3v.2l-.4.85q-.3.45-.9.35l-.75-.45-.4-.9-.1-.15q-3.75.6-6.3-.05m19.55-11.25-.15.05q-.4 0-.7.35-.35.35-.2.8l.1.55.9.6.6-.1q.85-.35.7-1.3-.2-.9-1.25-.95m-8.65-.2q.2-.95-.8-1.35-.35-.15-.8 0l-.6.5q-.25.4-.15.85.05.45.45.7.7.65 1.55 0zm1 .95-.25.3-.05.55.1.65.4.65.5.25.8.15.95-.25.85.75.5.05h.95l.4-.1.55-.6.2-.45.1-.05.05-.5-.15-.55-.1-.35-.45-.1-.35.35-.1.5-.25.45-.6.05-.45-.15-.1-.35-.25-.4q-.15-.2-.45-.2l-.4.2-.75.35-.45.05-.35-.3-.15-.25.2-.35-.05-.45-.3-.35z"/><path fill="#fff" d="m19.8 15.6.55-.45.3.35.05.45-.2.35.15.25.35.3.45-.05.75-.35.4-.2q.3 0 .45.2l.25.4.1.35.45.15.6-.05.25-.45.1-.5.35-.35.45.1.1.35.15.55-.05.5-.1.05-.2.45-.55.6-.4.1h-.95l-.5-.05-.85-.75-.95.25-.8-.15-.5-.25-.4-.65-.1-.65.05-.55zm-1-.95-.35.7q-.85.65-1.55 0-.4-.25-.45-.7-.1-.45.15-.85l.6-.5q.45-.15.8 0 1 .4.8 1.35m8.65.2q1.05.05 1.25.95.15.95-.7 1.3l-.6.1-.9-.6-.1-.55q-.15-.45.2-.8.3-.35.7-.35z"/></g></svg>