<svg xmlns="http://www.w3.org/2000/svg" xmlns:ffdec="https://www.free-decompiler.com/flash" ffdec:objectType="shape" width="72.45" height="39.7"><g fill-rule="evenodd"><path fill="#999" d="M40.4 14.7q-.05-.2.25-.75l.25-.5.7-1 .8-.85.65-.8 1.65-2.35q.95-1.35 1.8-2.2l.6-.6.8-1.1.95-.05q.45.2.45.75l-.35.8-.05.15-1.4 2.55-1.55 3.05-.05.3v.45l-.1.4-.15.85-.35 2.1h.35l3.55-.05 5.35.35.7.25q.45.15.45.6 0 .6-.9.8l-1.8.2-.85.45-4.85 2.45-.8.5.2.35 2.3 2.6 2.9 3.5 1.1 1.25.6.55q.25.3.1.65l-.6.35-.65-.2-1.1-.3-2.1-.65-4.85-2.3 1.35 7.85-.05.75q-.15.2-.5.2-.3-.05-.5-.25l-.3-.5-4.45-7.15-.25-.7q0-.5.35-.7l.75-.1.7.65q.1-.3.35-.4l1-.3-.45-.3q-.55-.4-.4-1.05.15-.6.7-.75h.2l-.3-1.4q0-.65.15-.95l.4-.4q0-.25.15-.45l.6-.55-.25-.65q-.05-.4.25-.8-.75-.15-.9-.85-.15-.4.05-.7L43 17.5l-.1-.2h-.2l-.7-.45q-.2-.3-.1-.85l.15-.4-.35-.5q-.05-.25.05-.55l-.35.25-.55.15zm2.15-7.1-.05-.45v-.3l-.15-.7-.05-.8-.05-1 .2-2.35q0-1.15.15-1.45.25-.55.95-.55.65 0 1 .6.25.45.15 1.2l-.45 2.25-.8 2.3-.65 1.25zm16.5 20.9-.95-.3-2.25-1L54.1 26q-.25-.15-.2-.4l.4-.1.75.05 3.65.4 1 .4q.75.45.45 1.3-.25.85-1.1.85M46.6 30.8l.2-.15.4.3L50 34.8l.7 1.45q.4.95.3 1.45l-.45.75q-.4.3-.8.3-1-.1-1.3-1.05l-.1-.35-.15-.3-.85-2.3-.75-3.55zM36.9 9.25 36 7.2l-.8-1.3-.2-.55-.5-.65q-.45-.7-.1-1.4l.55-.6.9-.05.65.6.2.85.25.9.4 1.8.05.3-.05.25.1.15v.3l.25 1.5-.15.3-.45-.05z"/><path d="m15.25 8.25-.35.55-.55.6q-1.1 1-3 .8Q9.8 10 9 9.15q-.5-.65-.75-1.75l.05-1.9.2-.7.4-.95q.7-1.05 1.45-1.55 1.1-.65 2.55-.25 1 .15 1.7.7.8.55 1.05 1.55l.1 1.1-.1 1.15-.25 1.15zm-4.6-1.15.6.55 1.65.1q.65-.35.95-1.65l-.05-1.15q-.25-.6-1.4-.95l-.55-.05-.45.4q-.7.75-.85 1.85-.1.6.1.9m-4.4.05-2-.05q-.8-.3-.8-1-.1-.8.65-1.05l1.3-.2 1.1.05q.35 0 .7.3.5.35.35 1-.1.65-.6.8zM47.65 14.2l-.15-.55-.6-.05q-1.95-.25-2.85-2.15l-.35-1.15-.15-.65q-.4-2.05 1.1-3.8 1.25-1.55 3.5-2.05l1.05-.1q.8 0 1.55.4l1.6-1q.95-.45 2-.6l2.9-.05 1.05.1.05-.2q.45-.9 1.4-1.35.95-.5 1.95-.45l1.1.15 1 .15.85.35 1 .65.5.6q.75 1.15.9 1.85.35 1.25-.05 2.5-.4 1.2-1.25 2l.05.25q.65-.55 1.25-.7l1.25-.05q1.45.15 2.5.75.9.45 1.4 1.2.35.65.25 1.45t-.6 1.35-1.3.65l-1.45-.2-1.2-.9-1-.45q1.45 1.55 2.2 3.65.55 1.45.6 2.8l.9 1.15q.8 1.3 1.1 2.9.65 2.5 0 4.45-.35 1.05-1.2 1.85-.85.85-1.9.95l-1.35-.05-1.4-.1-.9.25q-.25.2-.55.75-.65 1.25-.25 1.9.3.45.1.55l-.25.1q-.65-.05-1.15-.6-.55-.5-.65-1.2-.15-1.35.85-2.5l.9-.8q.9-.55 2.5-.3l1.25.05 1.1-.3q1.2-.7 1.1-2.8-.05-1.4-.7-3l-.6 1.4q-1.7 2.75-4.95 3.2l-1.8-.1-1.75-.8-2.15-1.6q-.85-.95-1.35-2.8l-.2-1.4-1.6-.2q-.95.5-1.8 1.1 1.15.05 2.2.75 1.05.75 1.4 1.8.45 1.1.15 2.35-.25 1.15-1.1 2l-1.05.75q-.9.45-1.85.5-2.2.15-3.7-.8l-1.35-1.2q-1.05-1.15-1.3-2.2-.25-.75 0-2.05.2-1.2.55-2 .8-1.85 3.15-3.05-1.65-1.3-2.45-3.3m10.45-1q.75.6 1.8.6t1.75-.65q.75-.65.8-1.7.1-1.1-.45-1.9-.6-.75-1.6-.95l-1.55.15-.2 1.5-.7 1.5-.55.5zM44 16.8q.45 1.85.25 5.25-.1 2.45-.65 4.2-.8 2.25-2.65 4.15l-.2.2.15.15q1 1.35 2.25 4.85l.85 2.6.35 1.45v.05H13.5l.2-.85q-.35-1.15-1.2-1.5-1.25-.5-2.9.55l-1.2.9-1.25.85-.1.05h-4.2l-.75-.45Q1 38.45.45 37.2q-.6-1.3-.4-2.65.15-1 .6-1.65.55-.75 1.45-1.15l1.8-.1q.9.25 1.55 1 .65.8.7 1.7l1.8.25 1.1-.45 2.1-.2 1.75.3q1.25.45 2.05 1.35 1.4-3.1 3.7-5-1.75-1.35-2.5-2.65-.9-1.65-1.1-4.45-.1-1.75.05-3.35l-.5-.95-1.05-2.1-.35-1.25-.1-2.05q.2-1.1.95-1.75l1.1-.4 1.5-.35 2.6-.3h.55l1.45-1.15q3.25-2.3 7.15-2.8 3.9-.45 7.3.75v-.05q1.4-.75 3.65-1.2l1.25-.05q1.05.25 1.3 1.55l.15 2.15.3 2.6v.15q1.2 1.8 1.65 3.85m-13 6.8-.85-.05-.3-.6-.55-.5-1.05.1q-.55.3-.45.95l.05.45h-.05l-1.1.35-.75.45q-1 .55-1.3 1.05l-.15.6q.1.9.85 1.2.8.4 1.5-.3l.45-.5.45-.25q1.5-.65 3.2-.8l.65-.1 1.1-.4.45-.3-.05-.65-1.45-.6zm-6.65-1.85-.15-1.2-3.85.45-2.25.05-.65-.15-.2.65q-.05 1.3.85 2.25v.1q.9.9 2.2 1.05 1.35.15 2.4-.6 1.05-.65 1.5-1.95zM57.8 15.8l.5-.15.05-.6-.3-.3-.65-.45-.85-.4-.1-.45-.2-.5-.55-.55-.8.05q-.2.15-.3.75l-.05.35.1.45-.25.4-.4 1.2.2.6.4.5q.35.15.6-.2l.3-.5.3-.6.7.05zm-22.9 5.75.8.25 2.05.15q.9-.1 2.05-.95l1-1.1q.85-1.3.2-2.8l-.3-.7-.45.15-5.05 1.65-2.2.7v.1q.15.8.6 1.55zM49.45 11.1q-.65.4-1.05 1.15-.3.7-.15 1.5.2.8.85 1.35t1.45.6q.75.05 1.5-.45l.95-1.2.1-1.3h-.55l-.95-.1q-1.4-.4-1.55-1.8z"/><path fill="#fff" d="m58.1 13.2-.7-.95.55-.5.7-1.5.2-1.5 1.55-.15q1 .2 1.6.95.55.8.45 1.9-.05 1.05-.8 1.7-.7.65-1.75.65t-1.8-.6m-8.65-2.1.6-.25q.15 1.4 1.55 1.8l.95.1h.55l-.1 1.3-.95 1.2q-.75.5-1.5.45-.8-.05-1.45-.6t-.85-1.35q-.15-.8.15-1.5.4-.75 1.05-1.15M34.9 21.55l-1.3-1q-.45-.75-.6-1.55v-.1l2.2-.7 5.05-1.65.45-.15.3.7q.65 1.5-.2 2.8l-1 1.1q-1.15.85-2.05.95l-2.05-.15zm22.9-5.75-1.3-.35-.7-.05-.3.6-.3.5q-.25.35-.6.2l-.4-.5-.2-.6.4-1.2.25-.4-.1-.45.05-.35q.1-.6.3-.75l.8-.05.55.55.2.5.1.45.85.4.65.45.3.3-.05.6zm-33.45 5.95-.15.65q-.45 1.3-1.5 1.95-1.05.75-2.4.6-1.3-.15-2.2-1.05v-.1q-.9-.95-.85-2.25l.2-.65.65.15 2.25-.05 3.85-.45zM31 23.6l.65.1 1.45.6.05.65-.45.3-1.1.4-.65.1q-1.7.15-3.2.8l-.45.25-.45.5q-.7.7-1.5.3-.75-.3-.85-1.2l.15-.6q.3-.5 1.3-1.05l.75-.45 1.1-.35h.05l-.05-.45q-.1-.65.45-.95l1.05-.1.55.5.3.6z"/></g></svg>