<svg xmlns="http://www.w3.org/2000/svg" xmlns:ffdec="https://www.free-decompiler.com/flash" ffdec:objectType="shape" width="73.9" height="43.3"><g fill-rule="evenodd"><path fill="#999" d="M35.2.6q-.15.95-1.1 1.75-.6.55-1.8 1l-4.35 1.3-1.65.25h-1.9q-4.45-.1-6.45-1.25l-.05-.05h-.45q-1.3-.05-2.2 3.2-.95 3.25-.5 10.05.4 6.8 2.7 10.9 2.25 4.1 4.05 6.35t3.7 3.55q1.85 1.3 2.35 2.55.35.9 0 1.85-.4.95-1.25 1.2-.85.2-2.4-.4-2.1-.9-3.9-2l-.1.05-.1.1-.15.05-.15.05h-.05l-.1.05h-.25l-.3.05h-3.2l-3.95-.05h-.3l-.9-.05h-1.9l-.8-.05h-1.9L4.25 41h-.5l-.25-.05h-.2l-.15-.05h-.1L3 40.85h-.1l-.1.05-.05.1-.1.05-.15.05-.1.05-.05.05H2.2l-.1.05h-.5l-.15-.05H1.4l-.15-.05-.15-.05-.1-.05-.1-.1-.1-.05-.05-.05-.05-.1-.1-.05-.05-.05-.05-.1-.05-.05-.05-.05v-.05l-.05-.05-.1-.1-.05-.05-.05-.05-.05-.1L.05 40v-.15L0 39.8v-.35l.05-.05v-.1l.05-.1.05-.05.05-.05V27.9l.05-.05V9.6l.05-.05V7l.05-.05V5.6l.05-.05v-1.3l.05-.05v-.4l.05-.1v-.4l.05-.05v-.3l.05-.1V2.8l-.05-.1-.1-.1-.05-.1v-.05L.35 2.4.3 2.3v-.05L.25 2.2v-.15L.2 2v-.75l.05-.05v-.15L.3 1 .35.95V.9L.4.8V.75L.45.7.5.6.55.55.6.5.7.4.8.3.9.2 1 .15 1.1.1l.15-.1h7.8l.25.05h.45l.45.05h.3l.25.05h.15l.25.05h.45l.2.05h.15l.25.05h.2l.15.05h.35l.2.05h.15l.15.05h.2l.15.05h.15l.2.05h.35l.1.05h.15l.1.05h.1l.15.05h.2l.1.05.1.05.65-.2q1.65-.35 2.85.45l2.45.05 3.45-.05L28.2.4l1.35-.4h5.7zm3.5 0V0h5.65l1.35.4 3.35.65 3.45.05 2.45-.05q1.2-.8 2.85-.45l.65.2.1-.05.1-.05h.2L59 .65h.1l.1-.05h.15l.1-.05h.35L60 .5h.15l.15-.05h.2l.15-.05h.15l.2-.05h.35L61.5.3h.2l.25-.05h.15l.2-.05h.45L63 .15h.15L63.4.1h.3l.45-.05h.45l.25-.05h7.8l.15.1.1.05.1.05.1.1.1.1.1.1.05.05.05.05.05.1.05.05V.8l.05.1v.05l.05.05.05.05v.15l.05.05V2l-.05.05v.15l-.05.05v.05l-.05.1-.05.05v.05l-.05.1-.1.1-.05.1v.05l.05.1v.3l.05.05v.4l.05.1v.4l.05.05v1.3l.05.05v1.35l.05.05v2.55l.05.05v18.25l.05.05v11.2l.05.05.05.05.05.1v.1l.05.05v.35l-.05.05V40l-.05.05-.05.1-.05.05-.05.05-.1.1-.05.05v.05l-.05.05-.05.05-.05.1-.05.05-.1.05-.05.1-.05.05-.1.05-.1.1-.1.05-.15.05-.15.05h-.05l-.15.05h-.5l-.1-.05h-.15l-.05-.05-.1-.05-.15-.05-.1-.05-.05-.1-.1-.05h-.1l-.05.05h-.1l-.15.05h-.2l-.25.05h-.5l-1.6.05h-1.9l-.8.05h-1.9l-.9.05h-.3l-3.95.05h-3.2l-.3-.05h-.25l-.1-.05h-.05l-.15-.05-.15-.05-.1-.1-.1-.05-3.9 2q-1.55.6-2.4.4-.85-.25-1.25-1.2-.35-.95 0-1.85.5-1.25 2.35-2.55 1.9-1.3 3.7-3.55t4.05-6.35q2.3-4.1 2.7-10.9.45-6.8-.5-10.05-.9-3.25-2.2-3.2H56l-.05.05q-2 1.15-6.45 1.25h-1.9l-1.65-.25q-2.1-.4-4.35-1.3-1.2-.45-1.8-1-.95-.8-1.1-1.75M28.2 12.05l-2.75.05-2.6-.15q-1.75-.35-3.05-1.25.6 3.65 2.45 9.1l1.15 3.25q.8 2.5 2.2 5l1.2 1.85 3 3.3q2.1 2.05 6.9 4.1l.85-.35-.25-2.5.2-.75.25-.45.55-.5 2.05-1.5v-.2q0-.5.35-2.1l.25-.3h.1l.1-.1q.45.1.55.65l.15.95.2.45.2 1.15-.2 1.1-1.8 1.4.2 1.15q1.9-1.05 3.05-2.2l3-3.3 1.25-1.85q1.4-2.5 2.15-5l1.15-3.25q1.85-5.45 2.45-9.1-1.3.9-3 1.25l-2.65.15H46.2q-.45 1.05-.85 3.4l-.3 1.7-.4 1.25q-.3.7-1 .85l-1.1-.15-1.9-.3.95 5.65.05 1-.4.4q-.25 0-.35-.4l-.2-.45-.2-.2-.6-1.55-.25-.4-.75-2.15-.05-.5-.35-.5-.55-2.5q0-.45.3-.75l.45-.3 1.2-.05.15.05.6.1 1.75.3.2-5.05q-3-.85-5.95-2.75-4.3 2.75-8.45 3.25M19.25 5.6q3.2.9 4.75 1 5.7.7 10.4-2.85l.55-.4.35-.3q.6-.45 1.3-.45.75-.1 1.4.45l.4.3q.25.15.5.4Q43.65 7.3 49.35 6.6q1.5-.1 4.7-1l.9-.05.65-.15q.9.25 1.05 1.75 1.25 8.8-1.45 16.9l-1.45 3.45q-2.7 4.9-5.4 7.35l-3.5 3.05-2.5 1.55-2.25 1.35q-1.8 1-2.55 1.1l-.95.05-.85-.05q-.75-.1-2.55-1.1l-2.25-1.35-2.5-1.55-3.5-3.05q-2.7-2.45-5.4-7.35l-1.45-3.45q-2.7-8.1-1.4-16.9.1-1.5 1-1.75l.65.15z"/><path d="M67 5.15q.3-.95 1.35-1.3 1-.25 1.9.25l.8.9q.3.7-.3 1.6l-.75.75-1.05.15h-.4l1 .85.6.15.55.3q.4.4.2 1l-.65.8-1.2.2-.7-.6-.95-1.15-.15-.1-.45.7-.4.75-.25.4-1.3.05-.8-.45q-.35-.35-.35-.75 0-.6.65-1.05l1-.75-.1-.05-.1-.05-.65-.05q-1.05-.2-1.5-.8-.35-.45-.25-1.15.05-.65.45-1.2L64 4l.95.05q.75.1 1.05.45.3.3.45 1.1l.4.35.05.05zM59.95 9.9l-.45-.45-.1-.7V8.6h-.3l-.85-.05q-.5-.2-.4-.7 0-.45.45-.65l.9-.1h.35l.1-.85.8-.1.1.35.15.55q.65 0 1.1.5l.15.5-.6.5-.5.1-.15.8q-.25.55-.75.45m-34.1 15.35q-1.9-1.95-2.3-5.05-.3-1.95.2-4.7l-.65-1.1q-.45-.95-1-3.5l-.05-.65q0-.9.85-1.4l.95-.25 2.5-.1.75.1q1.35-1.35 3.2-2.3 2.85-1.4 6.05-1.5h.5q3.2.1 6.05 1.5 1.85.95 3.2 2.3l.75-.1 2.5.1.95.25q.85.5.85 1.4l-.05.65-1 3.5-.65 1.1q.5 2.75.2 4.7-.4 3.1-2.3 5.05l-.6.55 2.05 1.9 1.35 1.8q1.15 2.1 1.1 4.4 0 2.1-1.15 3.45-1.1 1.4-3.2 1.8l-.65.1.55 1.65-.2 1.2h-20q-.25-.55-.2-1.2l.55-1.65-.65-.1q-2.1-.4-3.2-1.8-1.15-1.35-1.15-3.45-.05-2.3 1.1-4.4l1.35-1.8 2.05-1.9zm14.65-1.8q.4 1 1.3 1.55.95.55 2 .35Q45 25.1 45.65 24q.5-.85.4-1.9H46q-2.5 1.35-5.65.7zm2.9 8.45.95 2.2.6.1.9-.1.3-.75q.05-1-1-2.8l-.45-.7zm-10.7-8.45.15-.65q-3.15.65-5.65-.7h-.05q-.1 1.05.4 1.9.65 1.1 1.85 1.35 1.05.2 2-.35.9-.55 1.3-1.55m-2.9 8.45-1.3-2.05-.45.7q-1.05 1.8-1 2.8 0 .5.3.75l.9.1.6-.1z"/><path fill="#fff" d="m40.5 23.45-.15-.65q3.15.65 5.65-.7h.05q.1 1.05-.4 1.9-.65 1.1-1.85 1.35-1.05.2-2-.35-.9-.55-1.3-1.55m-7.8 0q-.4 1-1.3 1.55-.95.55-2 .35-1.2-.25-1.85-1.35-.5-.85-.4-1.9h.05q2.5 1.35 5.65.7z"/></g></svg>