<svg xmlns="http://www.w3.org/2000/svg" xmlns:ffdec="https://www.free-decompiler.com/flash" ffdec:objectType="shape" width="67.9" height="36.6"><g fill-rule="evenodd"><path fill="#999" d="m62.15 3.4.65-.75.7-.6 1.2-.2q.65.1 1.1.55.95.95.45 2.35l-1.1 1.45-.9.9-1.6 1.1-1.1-.05-.9-.6q-.75-1-.25-2.15.35-.8 1.75-2M41.9 18.5l1.4-.75 1.6-.75q2.2-1.15 3.7-1.2l.95-.1.55-.3q.85-.6 1.7 0 .85.5.7 1.55l-.45.9q-.65.85-1.8 1.2l-2.2.25-1.25.4-3.95 1.8q-1.1.55-2 .5-1.2-.1-1.6-1.1-.2-.5 0-1 .2-.55.65-.75l1.15-.15zm-18.75-10 3.65.6 3.6.95q1.8.45 2.65.85 1.4.6 2.05 1.6l.8 1.1 2.1.1 6.3-1.7q3.5-1.05 6.1-2.35 2-1 2.85-.3.5.4.5 1.15l-.45 1.25q-.6.7-2.3 1.4-8 3-12.15 4-3.75.95-5.35-.6-.95-1.4-1.65-1.9-.55-.45-2.25-.75l-3.75-.95-3.75-.9-4.2-.55-2.8-.75q-1.05-.3-1.35-.75-.35-.45-.2-1.1.2-.65.7-1 .85-.65 2.35-.35l2.3.65zm30.25 4.2q1-.25 1.55.7.55 1-.2 1.75-.7.8-1.7.35-1-.4-.85-1.55.05-.45.4-.8.3-.35.8-.45M12.95 24.65l2.2.05q5.95 1.15 12.5 1h3.4q1.9.15 3.1 1l1.35.7h1.05l9.85-1.5q4.2-.95 5.9-2.85l1.15-1.2q.7-.6 1.4-.45.55.1.85.7l.25.75q2.05-.55 4.15.3 1.45.6 1.7 1.55.2.85-.55 1.95-1 1.45-2.7 2.7-4.9 3.8-10.85 5.4l-4.1.85q-18.7 3-36.7-2.85-3.3-1.15-3.9-2.9-.35-1.1.25-2.3.5-1.15 1.55-1.85 1.2-.8 4.55-1.55L11.3 24q.5.15.8.6l.15.4q.3-.3.7-.35M33.6 31l-1.8-1.15q-1.1-.55-3.35-.55-9.75-.1-14.9-1.6-1.1-.35-1.55-.85l-.65.45-.6.35.2.45.7.25 2.95.45 2.9.6 5.7.6 3.35.05 3.3.4q1.35.3 1.6 1.1v.9l7.8-.5 8.6-1.35 2.95-.7q1.95-.7 5.55-3.5-.35-.2-.45-.65l-1.45-.25q-2.9 2.65-7.8 4l-4.5.9-4.55.7zm-5.15-9.9-3.7.5-2.2.05q-1.2-.1-2.05-.7-.7-.5-.75-1.15-.05-.5.35-.9.35-.4.85-.4H21l.95-.2 4.2.1 3.5-.75 1.8-.05q.6.05 1.25.4 1.25.6 1.65 1.5.35 1-.1 1.8-.5.9-1.4 1.05-1.1.25-2-.5l-1.05-.7zM9.65 4.5Q9.6 5.55 8.2 6.55l-1.65.95L5 7.85q-.65-.05-1.15-.65-.45-.55-.35-1.25.05-.55.6-1.25.85-1.2 1.75-1.75 1.25-.7 2.4-.3l1 .7q.45.55.4 1.15m4.75 10.8-1 .8-1 .75-1.1.6q-1.1.3-2.05-.45-.9-.8-.65-1.95.25-1.1 1.85-2 1.3-.7 2.1-.75 1.35-.1 1.95.8.4.5.35 1.1-.05.65-.45 1.1"/><path d="m67.75 2.6.1.6v1.25l-.75 1.5-.8.7q-.9.65-1.95.9l-.15.15-.65.5-.45.4-.6.7-.85.4q-.4-.05-.95-.8-.75-1.15-1.65-1.75l-.85-.5-.7-.65-.35-.5-.1-.85q-.1-.8.1-1.35l.5-.9q.6-.95 1.4-1.35l1.9-.15q.35.1.95.5l.2.15.3-.25q1.1-.8 2.65-.55 1.2.1 1.9.7l.45.5zM63 6.35l1.15-.6.9-.55.6-.5q.45-.45.35-1l-.2-.6-.5-.3-1.5.1-.55.65-.55.6-.65.1H62l-.15-.05-.25-.1q-.4-.25-.45-.65l-.45-.25-.45-.1-.35.25-.35.4-.3.7.55.6 1.35.95.75.85.3.15h.05zM12.55 10.9l.3-3.5q-.1-1.4.35-2.1.4-.5 1.4-.9 2.7-.95 7.35-1.8l7.45-1.5L34.2.05l3.9.15q5.05.8 9.15 3.45l2.2 1.15 2.05.25q1.45.4 3.2 2.45 1.05 1.25 1.15 2 .15.85-.55 2.3l-.2.35.3.1.5.3.75.6.9 1.3.25.5.1.45-.1.5q-.25.55-.9.7L54 17l-.65-.05L53 18.7l-.2.45.25.15.85-.3 1.15.2q1.75.75 2.25 2.85.35 1.7-.5 3.65-.85 1.85-2.4 3.1-1.3 1.05-3.3 1.75l-3.6.95-9.45 2.05L34 34q-2.5-.35-3.35-2.1l-9.2-.85-9.1-1.5q-1.7-.4-2.1-1.3-.25-.5 0-2.1l.2-3.1q.15-1.35.8-2.05-.45-.1-.7-.5t-.1-1.1q-1.3.05-2.05-.65l-.55-.6L7.2 17q-.3-.85 0-1.7l.25-.6.6-1 1.5-1.3 1.05-.65.8-.35 1.1-.2zm39.8-1.05Q51.2 8.4 50.25 8.3l-.8.05h-.85q-.55-.05-1.75-.8-2.65-1.85-5.9-2.85-5.1-1.55-11.8-.7-3.95.55-11.65 2.65l-1.3.7-.2.5v2.5l7.9.75 7.85 1.2q1.25.25 1.9.9.8.85.8 3.15 1.7.75 4.1.4l4.05-1.2 5.15-1.95q2-.75 2.8-1.3 1.55-1.1 1.8-2.45m-2.15 6.6-6.55 2.7-4.2 1.25h.05l2.75.25q.6-.2 1.45-.95l1.35-1.05 2.8-.15.9.35 1-.2q1-.5 1.15-1.1.2-.45.05-1.45zm3.05-1.75-.1.15v.05l.15-.05 1.6-.2-.7-1zm-21.7 11.05q-1.15.7-3.45 1.1l-7.95-.35q-4.05-1-7.05-3.45v.25l.1 3.35 12.1 1.7 4.8.35 2.35.15 1 .7q.4.5.3 1.05l3.35.2 11.25-2.55q2.5-.6 3.7-1.45 1.05-.75 2.05-2.6.65-1.15.3-1.8l-.7-.6-.25-.15-.45.9q-1.15 1.85-3.6 2.95-2 .8-4.65 1.05-6.55.6-12.45-1.4zm4.6-3.7-2.1 1.25.75.05 7.2.85q4.1 0 7.05-1.4 1.35-.65 1.8-1.55l.1-.25-.4.2q-1.85.7-3.55-.05-.75-.35-1.05-.25-.25.05-.65.45l-1.15 1-1.2.75-1.9.2q-2.2-.1-3.1-.85-.6-.6-.95-.7l-.3.05zM32.7 19.9q-1.35-.55-1.75-1.4l-.15-.35-7.6.55-3.4.6.55.4 1.5.95 1.45-.05 1.4-.45 3.55-.1 1 .75 1 .75 1.65.2q.75-.15 1.9-.95l.5-.35zM22.3 15l-6.05-.6-.15.15-1.5 1.9q-.9 1.1-1.2 1.9Q17 17.2 24 16.4l5.15-.55zM10.75 2.6l.1.6v1.25l-.75 1.5-.8.7q-.9.65-1.95.9l-.15.15-.65.5q-.25.15-.45.4l-.6.7q-.45.45-.85.4l-.95-.8q-.75-1.15-1.65-1.75l-.85-.5L.5 6l-.35-.5-.1-.85q-.1-.8.1-1.35l.5-.9q.6-.95 1.4-1.35L3.95.9q.35.1.95.5l.2.15.3-.25Q6.5.5 8.05.75q1.2.1 1.9.7l.45.5zM6 6.35q.1-.1 1.15-.6l.9-.55.6-.5q.45-.45.35-1l-.2-.6-.5-.3-1.5.1-.55.65-.55.6-.65.1H5l-.15-.05-.25-.1q-.4-.25-.45-.65L3.7 3.2l-.45-.1-.35.25-.35.4-.3.7.55.6L4.15 6l.75.85.3.15h.05q.3-.4.75-.65m6.65 6.7-.1-.2-2 1.2q-1 .7-1.25 1.4-.15.25-.05.6l.1.25.45.35.95.25.75.25 2.55-3.25q-1.05-.35-1.4-.85M27.9 22.9l-.9-.55-1.55.05L24 23l-2.75.15q-1.45-.35-2.45-1.35l-1.35-1.2-.75-.2-.45-.4-2 .5-.05.6.6.6q3 1.7 4.35 2.15l2 .5q5.35 1.1 8.9-.35z"/></g></svg>