<svg xmlns="http://www.w3.org/2000/svg" xmlns:ffdec="https://www.free-decompiler.com/flash" ffdec:objectType="shape" width="77.55" height="39.3"><g fill-rule="evenodd"><path fill="#767676" d="m65.75 20.25.1-.05q-.25-.65-.15-1.3 0-.85.25-1.4.45-1.15 1.9-2.05l.75-.35 1.5-.1q.45.05 1.25.45l.8.4.65.7.65 1.05.1.65v.95l1.15.85 1.1 1.75.9 2.4.1.05.7.9-.05 1.05q-.3.7-.95.85l-.1.2q-.2.85-.6 1.5-1.05 1.7-3.75 2.8l-.85.3.05 1.6v1.65l.2 1.2q.05.9-.6 1.65-.65.8-1.6.9l-.8.05-.9.1q-1.6.15-3.35-.6-1.25 1.25-2.95.8-1.7-.5-2.2-2.2-.3-1.15.3-2.5.5-1.1 1.45-2.15l1.95-2 .9-.7q-.7-.95-1.05-2.1-.45-1.6-.1-3.05.25-1 .75-1.7l1.25-1.6.55-.4q-.65.65-.65 1.6-.05.85.55 1.6.55.75 1.4.95l1.7-.25q.8-.4 1.2-1.2.35-.8.1-1.7t-.95-1.4-1.65-.4zM33.1 11.4q.4-.7 1.9-1.4 5.95-2.6 18.1-6l4.25-1.15.8.05-.05.65-.55.35L47 8.45q-6.4 2.75-10.25 5.1l-1.9.75q-1.05.1-1.75-.95-.6-.95 0-1.95m28.95-.45.1 4.2-.05 1q-.1.6-.65.75l-.85-.2q-1.3-.85-1.5-2.85V12.2l.15-1.7-2.7 1.2q-4.5 1.8-10.7 4.8-2.05 1-2.6 1.35l-.65.3q-.5.1-.65-.25-.15-.25.05-.65l.55-.45q5.2-3.1 10.6-5.5l3.45-1.5q1.95-.95 3.25-1.9t2-.7q.55.25.7.8l-.1.75-.3.75zM55 17.5q.15.35-.3.65-.95.85-4.3 2.95-2.7 1.65-5.75 3.75l-4.55 3-2.2 1.65-1.85 1.2q-1.05.25-1.75-.7-.7-.85-.15-1.9.3-.55 1.5-1.25l2-1.1 7.7-4.2q4.3-2.25 8.7-4.2.8-.35.95.15m17.85 5.95q-.85.15-1.35.55l-.65.75-.3.6q-.25.6-.15 1.25.1.85.7 1.5.55.7 1.4.9l1.65-.05L75.5 28l.45-.95-.4-.05q-1-.3-1.6-1.4-.55-1-.5-1.9l.05-.25zm-47.05 6.3-.55.6-.75.65-1.85 1-1.5.55-1.6.05q-1-.25-1.5-1.15-.5-.85-.25-1.95l.3-.75.45-.6q1.3-1.55 2.95-2.2 2-.8 3.55.25 1.75-2 5.3-3.75l3.1-1.6 2.95-1.75 2-1.25q1.3-.5 2.3 0 .95.45 1.1 1.5.15.95-.55 1.75l-1.7 1.05q-2.5 1.05-7.3 3.45l-3.35 1.7-2.2 1.25-.55.35z"/><path fill="#fff" d="m65.05 20.8.15-.2.55-.35 1-.25q.95-.1 1.65.4t.95 1.4-.1 1.7q-.4.8-1.2 1.2l-1.7.25q-.85-.2-1.4-.95-.6-.75-.55-1.6 0-.95.65-1.6m7.8 2.65h.65l-.05.25q-.05.9.5 1.9.6 1.1 1.6 1.4l.4.05-.45.95-1.35.95-1.65.05q-.85-.2-1.4-.9-.6-.65-.7-1.5-.1-.65.15-1.25l.3-.6.65-.75q.5-.4 1.35-.55"/><path d="M60.5 20.35q-1-.05-1.95-1.5-1.05-1.6-1.95-3.65l-.3-.85-.4.2q-5.2 3.35-13.25 7.3Q33.5 26.2 29 28.45l-.3.15-.2.5q-.4 1-.45 1.55l-.05.95q-.3.7-1.55 1l-5.8 1.9-1.75.2-1-.8-.15-.2-.45.4q-1.3 1.15-2.9 1.5l-3.3-.2q-1.7-.55-2.65-1.9Q7.2 31.8 7.3 29q.1-2.1.95-3.75 1.1-2 4.05-3.85 3.7-2.35 7.55-3.6l3.6-1.3q2.05-1.05 2.65-2.7.4-.95.3-2.35-.1-1.8-1-3.35-.85-1.65-2.35-2.65t-3.3-1.2q-1.85-.2-3.45.6 1.4 2.1 1.75 4.65t-.45 4.95q-1.4 4.15-4.85 5.4l-3.65.1q-2-.55-2.95-2.15-1.05-1.8-.7-4.6.65-5.05 4.2-8.65-2.75-1.5-5.8-.25l-1.3.55-1.35.05-.95-.85q-.3-.6-.2-1.3.2-1.2 1.6-1.95 1-.55 2.55-.65 4.15-.5 7 .95l.85.4.85.15.85-.3Q16.8-.1 20.2.3q4.2.55 6.75 3.5 1.1 1.15 1.9 2.85 1.25 2.5 1.35 5.1.1 2.85-1.25 5-1.5 2.35-4.4 3.6l-3.5 1.25q-2.35.65-3.45 1.2-1.2.55-3.8 2.35-1.85 1.3-2.4 2.35-.5 1.05-.3 2.7.1 1.2.55 1.7.55.65 1.55.65.9.05 1.7-.45l1.1-.75-.05-.05-1.05-2.5-.35-1.2q-.1-.65.1-1.05.15-.2 1.2-.85l1.3-.85q2.45-1.8 4.9-2.8l1.3-.3 1.5.9.3.3 2.25-1.55q12.4-7.5 18.9-10.8 3.8-1.85 7.55-3.75Q61.35 3.2 65.1 2l1.45-.25q.85.1 1.2.7.35.7-.5 2.05-3.35 5.45-4.2 12.1l-.55 2.45q-.75 1.4-2 1.3m-3.45-8.7q.9-.3 1.75.45.55.55.9 1.65 1.05-4.3 3.3-8Q52.05 10.9 41.75 16.3l.5 1.05.6 1.1 13.75-6.5q.15-.2.45-.3m-21.35 7.8-5.15 2.75q-1.3.65-2.5 1.2l-2.1 1.35-.7.25-.15.05h-.05l-.6-.05q-.45-.1-1-.65-3.05 1.45-5.35 3.25l1 2.25h.05l.3.6.65 1L24.85 30l.6-.3.2-.45.4-1.5v-.1q.05-.55.35-1.05.5-.6 1.8-1.2l13.05-6.15-.75-2-.05-.3zm-20.95-8.9-.2-1-.45-1.5-.8-1.25-.9 1.1-.45.45-.3.45q-1 1.3-2 4.4l-.2.65-.2 2.25v.2l.2.2.95.45 1.5-.3q1.2-.65 1.85-1.75l.4-.8q.85-2 .6-3.55M21.2 27.6l.1-.45.35-.4.55-.35.9-.05.55.2.65.85q.1.6-.2 1.1l-.8.65-1.05.05-.8-.6q-.3-.5-.25-1"/></g></svg>