<svg xmlns="http://www.w3.org/2000/svg" xmlns:ffdec="https://www.free-decompiler.com/flash" ffdec:objectType="shape" width="63.2" height="39.65"><g fill-rule="evenodd"><path fill="#999" d="M29.15 14.05q-.75 2.1-.55 4.2l.3 1.45.85 1.15q1 1.1 2.25 1.75 1.55.85 3.15 1l1.6-.05 1.4-.15 2.05-.8q1.95-1 2.85-2.25L44 18l.25-1.1L44 15q-.85-2.5-3.15-4.45l-1.1-.7-1-.2-1.55-.15-1.4.25-2.55.9-1.95.65-.75.2-.4.5zm-1.8 7.15q-.6-1.05-.7-2.8-.1-1.1.05-2 .2-1.35.95-2.95 1.5-3.3 4.25-4.8 1.05-.6 2.9-1.05l2.95-.4q3.5.2 6.15 3.95 2.5 3.4 2 6.65l-.55 2.05q-.85 1.95-2 3.05l-1.5 1q-2.25 1.3-4.7 1.7-2.6.4-4.85-.45-1.95-.8-3.65-2.4zM50.6 38.05q-.5.65-.95.45-.5-.1-.4-.8l.5-.85 5.2-6.1-.1-.05q-.2-.5-.1-1.2l.25-.65q.1-.15.25-.15h.15l-.05-.6.4-.4q.3-.1.55.15l.1.15v-.8q0-.35.2-.55l.35-.1.3.2.15.6v.5l.3-.35q.45-.45.7-.4.25 0 .4.25l.05.5v.1l.45.2q.3.3.1.55-.1.35-.45.35l-.8-.15-.2.2.7.1.3.5-.3.5-.6.1h-.45l.05.05q.4.4 0 .75l-.95.3-.3.05-.45.05-1.5 2.05-.6.9-1.9 2.15zM52.15 24q.1-.3.3-.3l.25.2v.35l-.3 1.3.65-.25q.5-.2.75.25l.05.45-.1.2-.6.35.15.2-.05.4-.65.4-.35.2-.3.05-.2.15-.1.3.15-.1.9-.2.4.5-.25.55-.4.2-.35.35-.35.05-.35.15-.3.1-.1.2-1.45 4.25-.3 1.1-.2 1-.5.8-1.45.05q-.7-.5-.55-1.35 0-.4.3-.9l2.85-6.1-.35-.5-.25-.25-.05-.4.1-.35.35-.25h.2l-.1-.3-.15-.35q-.1-.25.15-.5.15-.2.45-.2l.6.5-.1-.55-.2-.6q-.1-.4.2-.6l.6.05.25.5zM16.95 5.1l-.3-.15-.2-.35-.15-.4.05-.3.25-.45q.25-.3.7-.3l.65.2.35.6-.15.7-.5.45zM15.8 6.3q-.35.45-.9.35-.5-.1-.75-.55l-.1-.85.35-2.95q.2-1.3.65-2 .25-.35.45-.15l.05.15.45 4.6q.1 1-.2 1.4m-3.25-4.25-.1-.55.3-.65Q13.1.6 13.4.6l.55.15q.65.3.45 1.15-.2.7-.85.7-.75.1-1-.55m.9 3.85-.1.75-.6 1.25-.3.4q-.3.3-1 .4l-1.1-.05-.25-.1-.5-.2-.7-.7q-.55-.5-.75-1.6Q8 5.3 8.2 4.2l.1-.45.15-.3.45-.55.9-.7q.45-.35.9-.15l1 .35.5.4.6.75.5 1.15zm-1.65-.5-.3-1.05-.4-.5-.9-.4-.55 1 .05.65q.1.95.35 1.35.45.85 1.25.5.65-.65.5-1.55m-7.4 5.4q-.6-.35-.9-1l-.45-.75Q2.75 8 2.9 6.55l.1-.7.45-.5.3-.2.2-.35q.2-.4.85-.5l.95.05q.6.1.85.3l.6.55.35.4.6 1.5.1.5.05 1.05-.45 1.2-.6.7-1.05.6L4.85 11zm5.7 6.85-.6.3-.7-.05q-.35-.25-.25-.75l.4-.7q1.4-2 3.3-3.45l-1.15.35-5.65 2.35-1.2.1q-.45-.35-.3-.9.05-.4.5-.85.65-.8 2.25-1.8l4.45-2.9q1.7-1 3.5-1.75l.95-.15q.7.1.6.65l-.65.65q-4.55 2.15-8.5 5.1 4.35-1.9 6.85-2.4l.65-.05q.35 0 .5.35l-.15.65-.6.45q-1.5.9-3.75 3.25 2.95-1.4 5.35-.25.7.4.7.8l-1.55-.05-1.75-.05q-1.8.15-3.2 1.1M.15 7.2 0 6.55l.2-.4L.6 6q.3-.05.5.25l.25.55.25.4.2.25.55 1 1.25 3.4q.2.55-.15.95-.4.5-.9.3-.45-.2-.75-.95L.75 9.75l-.6-2.1zm6.6.35-.35-.8-.8-.8-.9.05-.25.15-.1.25-.05 1.15q.1.95.5 1.4.7.7 1.35.3l.3-.25q.4-.4.4-.95z"/><path d="M25.2 5.85q1.3-.8 3.75-1.35 3.15-.75 6.45-.75h.15q1.65-1.4 3.9-2.95 1.6-1.05 2.5-.75.5.1 1.4 1.15 3.7 4.9 5.5 9.55l1.1 2.8q1.25 4.05.4 9.2-.65 3.85-2.25 5.95l-2.3 2.2q1.5 2.85 2.2 5.6l6.25-9.35-.3-.6-.15-.75V25l.2-.75.45-.35h.5q-.05-.35.05-.65l.45-1 .45-.2.3.1V22l.05-.75q.05-.35.45-.55l.75.05.35.35.3.45.1-.1.45-.4.55.15q.15.2-.1.7l-.45.85 1.3.1.55.2.2.35-.1.4-.45.3-1.45.35.5.25q.55.45.3.95t-1.1.6l-.6.1-.05.4.25.1.45.5-.1.35-.65.4-.3.1-.3.2-.85.2-.7-.05-3.6 6.15-1 1.8 6.65-5.25-.05-.2.05-1.45.25-.7q.25-.35.65-.25t.55.4l.1.45.1-1.2.15-.5q.15-.35.65-.45.35 0 .6.25l.1-.35q.45-.6 1.05-.35.35.2.5.8l.15-.1.35-.15.3.2.1.4-.45.65-.85.85.85.7.15.45q0 .4-.4.8l-.35.05.05.05q.2.5-.1.85l-1.15.15h-.6l.15.15q.35.45 0 .8l-.65.15-.65-.15-.85-.1-.35-.1-6.2 6.1-.2.2h-2.15l-.2-.25-.3.15-.95-.1-.15.2h-23q-.35-1 .6-2.95l1.2-2.95.45-.85-1.2-.6q-2.2-1.2-3.7-2.95-1.65-1.75-2.45-3.75-.7-1.85-.9-4.2-.45-1.9-.7-5.4l-.25-2.75-.15-2.85V8.45q0-.55.15-1.1.3-.95 1.35-1.2h1.15l3.55.75zM43.25 16.2l-.15-.9q-.15-.65-.7-1.2l-.9-.65-1.4-.5-1.6.05-.25.05-.75 1.9q-.75 1.4-2.15 2.7l.3.7.3.35.45.4q1.05 1.05 2.65 1.15 1.55.1 2.8-.8l.35-.35.45-.65.45-.85zm-1.2 6.15q.85-.35 1.8-1.1L45 20.2q1.6-1.9 1.25-4.55-.4-2.5-2.25-4.2-.95-.95-1.95-1.3l-2.1-.4H39l-.2.9-.1.65q1.65-.15 2.75.45l1.55.75q1.1.65 1.45 1.3.3.6.3 1.95l-.1.85-.1.35-.1.7q-.5 2.15-2.3 3.15-1.75 1.05-3.9.8l-2.3-.55-.8-.4-.85-.95-.55-.75-.85.55.9 1.2 1.45 1.15 1.55.75 2.3.2zm-1.1-4.05q-.9.85-2.3.5-1.35-.4-1.6-1.7-.35-1.3.7-2.25.7-.55 1.55-.55 1.7 0 2.35 1.45.3.75.05 1.55zM20.9 20.65q-.3 1.65 0 2.6.5 1.6 2.2 2.1l1.05.25 1.7-.05 1.35-.7q1.65-1.1 2.1-2.5l.2-1.25q-1.35.3-2.8 0-1.8-.4-3.05-1.6-.75-.65-1-1.4l-.45.25q-.6.45-.85.9zm13 4.45-.75-.4-.5-.5q-.35-.25-.75 0-.4.2-.45.55l-.25.75-.5.5-1.1.35-.5-.1q-.25 0-.45.3-.15.5.4.9l1.15.4.9-.15q1-.35 1.3-1 1.05.7 1.45.8l.85.15 1.8-.2 1.45-1.05.4-.45.15-.85-.1-.3-.2-.05-1.8.4-1.45.3zM20.4 39.35l-.1.3h-1.95l-.55-1.3-1.75-6.25-2.25-8.7q-1.8 1.2-2.45 1.85-1.65 1.6-2.8 4.25-.8 1.75-1.65 4.85-.55 1.7-.6 2.9l.05 1.8-.05.6H2q-.15-.6-.15-1.35.05-3.85 2.9-9.65L6 26.4q1.55-2.45 3.95-4.3 1.75-1.2 3.3-1.55v-.2q.1-.5.55-.4l.4.45h.85q.85 0 1.05.55.2.45-.15.9l-.75.65-.25.15 3.6 10.75 1.15 2.9.35 1.15q.55 1.35.35 1.9"/><path fill="#fff" d="m42.05 22.35-2.95.45-2.3-.2-1.55-.75-1.45-1.15-.9-1.2.85-.55.55.75.85.95.8.4 2.3.55q2.15.25 3.9-.8 1.8-1 2.3-3.15l.1-.7.1-.35.1-.85q0-1.35-.3-1.95-.35-.65-1.45-1.3l-1.55-.75q-1.1-.6-2.75-.45l.1-.65.2-.9h.95l2.1.4q1 .35 1.95 1.3 1.85 1.7 2.25 4.2.35 2.65-1.25 4.55l-1.15 1.05q-.95.75-1.8 1.1m1.2-6.15-.15 1.4-.45.85-.45.65-.35.35q-1.25.9-2.8.8-1.6-.1-2.65-1.15l-.45-.4-.3-.35-.3-.7q1.4-1.3 2.15-2.7l.75-1.9.25-.05 1.6-.05 1.4.5.9.65q.55.55.7 1.2zm-2.3 2.1.75-1q.25-.8-.05-1.55Q41 14.3 39.3 14.3q-.85 0-1.55.55-1.05.95-.7 2.25.25 1.3 1.6 1.7 1.4.35 2.3-.5m-7.05 6.8 1.05.35 1.45-.3 1.8-.4.2.05.1.3-.15.85-.4.45-1.45 1.05-1.8.2-.85-.15q-.4-.1-1.45-.8-.3.65-1.3 1l-.9.15-1.15-.4q-.55-.4-.4-.9.2-.3.45-.3l.5.1 1.1-.35.5-.5.25-.75q.05-.35.45-.55.4-.25.75 0l.5.5zm-13-4.45.45-1.4q.25-.45.85-.9l.45-.25q.25.75 1 1.4 1.25 1.2 3.05 1.6 1.45.3 2.8 0l-.2 1.25q-.45 1.4-2.1 2.5l-1.35.7-1.7.05-1.05-.25q-1.7-.5-2.2-2.1-.3-.95 0-2.6"/></g></svg>