<svg xmlns="http://www.w3.org/2000/svg" xmlns:ffdec="https://www.free-decompiler.com/flash" ffdec:objectType="shape" width="78.5" height="39.7"><g fill-rule="evenodd"><path fill="#999" d="m53.8 36.5-2.55-.4-2.5.2q-3.3.15-5.45-2.3-.7-.8-.15-1.2.3-.2 1.05.2 1.95 1.2 4.3.7-2.15-2.8-1.55-7.35.7-4.5 3.4-7 1.05-.95 2.4-1.5l-1.2-1.45q-.8-1.4-.6-3.85l.15-1.05q-.85-.9-.9-1.8-.25-.25-.15-.6.1-.5.5-.6.45-.15 1.15.35l.4.3.8-1q.7-.65 1.55-1.15v-.8l.2-.3v-.1q0-.4.4-.6l.7.1.5.9q.7-.2 1.15 0l.55.55.1.8-.5.8-.85.6q-1.25.85-1.75 2.05l-.3.95h.05l.95.15q.45.3.45.8 0 .55-.4.8l-1 .3.1.3 1 1.25 1.3 1 1.1 1.05.1-.5q.5-2.3 2.1-4.2 1.55-1.9 3.7-2.95l.55-.2-.25-.9q-.1-.6.15-.9l1.15-.05q.4.25.6 1l.05.35h.05l3.7.45 2.85.95q2.2 1.1 3.25 3.15 1.15 2.25.4 4.45-.35 1.25-1.2 2.3l-.9 1.05.65 1.9q.8 3.45-.5 6.1l-.95 1.85-.65 1.6-.9.7-1.2.35-2.4 1-2.45 1.1-3.95.7zm12.05-22.35q2.25-.2 3.6.5 1.55.75 3.05 3.2l.6.95.4-.8.35-1.5q0-1.7-1.8-2.8-1.05-.65-3.25-1.15l-2.2-.2q-1.1.2-2.15 1l-1.4 1.35q1.25-.45 2.8-.55m.45 4.2.7.25.4.3.75.35q.5.3.4.85-.2.65-.7.7l-.75-.2-.45-.2q-.7-.3-.95-.6-.5-.5-.2-1.05.2-.4.8-.4m-5 1.8.35.65q1.05 1.4 1.35 3.15.35 1.75-.15 3.4l-.05.4.25.3q1.95 1.45 5.65 2.3l.8.1.6-.4q1.2-1.05 1.7-2.65.45-1.6.05-3.2l-.4-1.2-1.05.15h-2.15q-.7 0-.8-.35-.25-.5.7-.95l1.7-.7.55-.25-1.35-2.2q-.6-.8-1.3-1.05l-1.15-.15-2.75.45q-1.4.5-2.25 1.5-.3.4-.3.7m.9-17.4-.25.95-.4 1.35-.15 2.4q0 .85-.35 1.05t-.9-.2q-.7-.5-1.25-1.65L58 4.7l-.3-.75q-.05-.8 1-1.1l1.6-.25 1-.3q.65-.1.9.45M60.65 6.5l.05-.65.1-.3.3-1.45-2.3.2 1.65 2.05zM46.6 14.4l-1.1-.3-.95-.2q-.25-.25-.05-1.05l.35-.9.4-.8.35-.3.35-.6.55-.05.4.6.7 2.45.05 1-.25.35q-.25.15-.8-.2m-.65-2.8q-.15 0-.25.2l-.3.55v.3l-.15.35-.45.75h1.65l-.15-.65-.15-.4-.1-.65zm5.1 12.65-.55 1.95q-.5 2.1.2 4.05l.35.8 1 1.05.8.3 1.2-.45 2-1.15 1.2-.8.7-.7.7-.75-.25-.55-.75-1.85-.35-1.4.1-3.15-1.25-.9h-.65q-1.3 0-2.3.7-.75.55-1.4 1.5zm9.85 6.65-.25.2q-1.2 1.25-3 2.25l3.45.05 3.35-.55q-1.9-.55-3.3-1.8-.15-.15-.25-.15m-43.95-8.2q.55 2.8-.3 5.65-.8 2.85-2.7 5-1.65 1.95-3.75 2.55-2.5.7-4.3-.85-1.7-1.4-1.5-4.05.1-1.7 1.35-4.25 1.9-3.6 4.35-5.5-.65-.15-1.2-.65l-1.55-2.15-.5-1-1.1.1q-1.3.25-2 1.1l-.9.95-.95.1-.75-.6q-.45-.95.5-2.2 1.65-2.1 4.3-2.6-.1-.75-.05-1.5.1-2.2 1.25-4.1l1.1-1.4L8 6.85l-.25-.7q0-.5.55-.7t.9.25l.3.45.75-.5q1.15-.65 2.35-1v-.7q.1-.55.65-.65.45.1.55.35l.15.25.15.5.3-.05q1 0 1.4.35l.35.7-.2.7q-.3.4-1.5.75l-1.1.4.1.3.25.8-.45.5q-.4.15-.65-.2l-.35-.7v-.1q-.9.55-1.55 1.4-1.5 1.95-1.3 4.25l.2 1q1 .25 2 .8 1.95 1.1 4 3.25l.55.5.8.1V19l.1-.65q.25-.5.75-.5.55 0 .8.5l.05.9v.1q1.45.25 2.85.95l1.05.6.95-1.25q.45-.45.8-.4.6 0 .5.65l-.3.5-.8 1.3 1.5 1.5q1.05 1.3 1.65 2.85.35-.2.85-.45 1.7-2.85 4.45-4.45l1-.5.6-2.4q.3-2.2-.65-3.15l-.15.1-.85.15-.6-.55v-.35l.05-.45q-.65-.5-.65-1.15 0-.45.35-.8l.8-.4 1.75.3.5.25.05-.3q.2-.6.75-.5l.55.15.25.55-.2 1 .9 1.1q1.05 1.65.65 4.95l-.1.6 1.2.1q1.65.25 2.95 1.3 1.4 1.05 1.9 2.5.7 2.15-.2 4.6-.95 2.55-3 4.15-1.35 1.15-4.05 2.25-3.05 1.3-5.15 1.35l3.7 1.05q.7.25.85.55.2.4-.1.8l-.75.6-3.05.45q-3.45-.2-4.6-2.2-.45-1.15-.95-1.6l-1.65 1.25-2.45-.05q-.7-.45-.7-1.4 0-1 .7-1.45l1.4-.75.75-1.35q.8-3.45-1.35-6.25t-5.65-2.95M33.15 3q.2.15.2.45l.4 1.6.25 1.8-.25.7-.6.1-2.2-.15-.45-.15q-.3-.2-.05-.55l.35-.55 1-2.25.2-.55.25-.75h.45zm-1.3 3.1-.3.45-.15.15-.1.15 1.6-.15-.05-.8-.1-.5-.15-.4-.5.75-.2.2zm-13.2 9-.65-.9-1.3-2.1q-.6-.6-.55-.95.05-.45.8-.75l2.7-1.1 2-.75 2.8-.9 1.9-.15.85.2q.4.25.4.7t-.55.9l-4.45 3.65-1.9 1.15q-.6.3-1 .85l-.45.5zM12.2 20l-.4-.3v.5zm7.25-6.2 5.2-4.55q-3.2.75-6.45 2.15.85 1.1 1.25 2.4M11.7 30.55l.45-.65.3-.45.1-.4.45-.8.1-.45.2-.5.2-1.05-.1-2.95q-.6.05-1.2.5-1.3.9-2.75 2.8l-.8 1.25-1 2.55-.2.85.2.8.3.35 1 .3.95-.45.65-.5zm5.55 1.6.5-1 1.1-1.1.8-.45.85-.1.5.5q.15.35-.1.7l-.65.5-1.25.7-1.35.35zm20.9-8.95-.9-.05-1.05.05-.25.05-.7 1.2-1.05 1.35-1.6 1.2-2.35 1-.4 1.1q-.65 2.25-.45 4.25l3.45-.6 2.5-1.1 3.25-2.15q1.4-1.5 1.65-3.45l-.1-1.2q-.2-.6-1.1-1.25z"/><path d="m70.6 2.2.7-.2.35-.2q.35-.15.6.2l.2.8-.2.8-1.55 4-.35 1.35v.7l-.35.75-.8.25-.75-.75-1.4-2.25-1.5-2q-.15-.4 0-.75l.45-.5.9-.55.9-.2 1.65-.9.7-.3zM14.7 39.7q-2.25.1-3.55-.65-1.25-.7-1.9-2.25-.6-1.4-.5-3l.05-.45-.65.1q0 2.5-.85 4.25-.95 1.95-2.4 2-.75.05-1.35-.55-.65-.6-.6-1.35l.25-1.15.5-1.05q.55-1.2.45-3.15l-.35-2.9q-1.2-.35-2.15-1.15Q.3 27.3.05 25.75q-.45-2.85 2.2-5.15l1.55-1.05.9-2.1q1.4-2.55 3.6-4.6l-.45-.3q-1.45-.8-2.75-.6v.75l-.05.25.05.35-.05.6q0 .45-.4.55-.3.05-.6-.45l-.75-1.25-.2.1-1.05.25q-.6-.1-.85-.75-.3-.65-.1-1.25.4-.95 1.8-1.7 2.55-1.3 4.85-.8v-.05l.5-.7q.25-.45.6-.75l.9-.1q.4.2.4.85l-.25 1.1-.2.4 1.7 1.3.95-.45-.1-.55.2-.8q.1-.45.45-.6.25-.15.55.15l.35.55.3.7 1.2.05q.85.2.95 1t-1.35 1.7l-.3.2-.35.6-.55.35 1.15 2.1.65-.15.6-.1q.9 0 1.1.6l-.05.75-.55.6-1.2.45q.15 1.25-.2 2.4l-.5 1.7.25 1.05.3.8.25-.05.8-.05.6.25q.3.2.25.55 0 .55-.65.75l-1 .15q0 1.65-.95 3.75l-1.05 2.4v.05l.2.05.5.2q.4.25.25.75-.1.45-.6.55L13 33l-.2 1q-.2.95.35 1.4l1.2.25 3.65-.5q-1.35-1.05-1.85-2.75-.55-1.7-.1-3.35t1.75-2.85l1.1-.8v-.05l.05-.55-.1-.35q-.1-.3.1-.6.15-.3.45-.35.45-.1 1.05.6l.4.5q1.75-.45 3.25.3l.35-.3q.55-.35 1-.25.35.05.55.45v.75l-.45.45-.1.1.4.75q.55 1.15.5 2.5-.05 1.85-1.4 4.85l1.55.45.15-.65.1-1.1q.1-.65.65-.75.45 0 .65.5l.1.85.05.55.3.45.1.1.6-.15q.95-.25 1.75-.7l-1.15-1-2.2-2.5q-.95-1.5-1.1-3.1l.05-1.65.15-1.25q.3-1.7 1.45-3.05l-.1-.35-.15-.8v-.6q.1-.35.45-.55l.75-.1.65.5.25.25.9-.6q.7-.45 1.3-.45.85-.1 1.15.6l-.05 1.05-.65.8q-1.2 1.3-1.65 2.1l-.55 1.2.6-.05q.7 0 1.1.4.55.45.2 1.05-.2.3-1.1.5l-.85.3q.25.95 1.05 1.85l.1.1q.25-.5.45-.65l.95-.05q.45.25.45.8l-.25.7-.25.45.85.6.55-1.6.4-1.15-.2-.1q-.4-.3-.3-.85.1-.45.6-.65h.6l.35-.65q1-1.55 2.65-2.55l.1-1.2.2-.6.7-.1.6.5.45.45 1-.3 6.95-.65 1.35-.2-.3-.25-1.85-1.1q-1.3-.3-2.3.3l-1.05.7q-.95.5-1.9-.2-.9-.65-.8-1.8.15-1.05 1.1-1.8l-.15-.65q-.1-.65.5-1.05l1.1-.1.8.8 1.4-.3 1.95.25.05-.15.4-.9q.4-.7.95-.55l.5.45-.1.7-.3.55-.05.45.45.2q.8.35 1.25.8l.7.8q2.2-2.55 5.05-3.95l1.45-.65-.25-.55-.15-.5-.75-.9q-.35-.55.05-1.05.35-.5.95-.35l1 .6.5.3.55-.4 1.2-.4.35-.05.2-.6q.35-.85.7-1.1.25-.25.65-.2l.5.4-.05.8L64 10.2q.45.25.7.8l.2 1.3v.3l.75.15 1.85.25q.6-.05 1.8-.7l1.6-.8-.15-.75q-.1-.75.2-1.1l.7-.2q.35 0 .6.25l.6 1.05 1.2-.45q1.4-.55 2.35-.5 1.45.1 1.95 1.2.3.6.05 1.35l-.85 1.2q-.85.65-2.65 1.05-2 .55-2.7 1l.75.75.55-.35 1.05.15q.5.5.25 1l-.4.45-.2.15 1.3 1.9q.95-.25 1.55.35.75.55.65 1.55-.05.8-.65 1.45l-.45.6.05 1.4q.1 2.9-.45 5.1-.55 2.05-1.75 3.8-1.45 2-3.55 3.2l-.3.2-.65 1.2q-.45.45-1.15.4t-.95-.6v-.05l-1.55.1q-2.45-.05-4.5-1.55-2.1-1.5-2.75-3.8l-1.3 1.25v1.55l-.25.8q-.3.3-.8 0l-.6-.65-.4-.65-1.75.45-3.4.25-.3.7-.95 2.25q-.65.7-1.7.55t-1.55-.95q-.75-1.25.25-3.35l.6-1.2q-.65-.95-.85-2.2l-.1 1.35q-.3 1.7-1.4 2.9Q43 37.7 40.4 38.1l-3.3-.2q-1.75-.65-2.35-2.2L32 37.65q-1.65.9-3.15 1.05l-3.35-.35-3.3-.35-3 .8zM69.05 7.6l1.3-3.3-.6.3q-.6.45-2.4 1zM63.3 17.65l.75-.95-2-.05-.05.05q-.55 1.4.2 2.85zm7.65 2.8Q69.7 18.8 68.35 18l-1.25 1.5q-.9 1-1.75 2.65l.35.15 2.6.65v-.8l-.15-.6q-.05-.35.25-.6t.65-.15l.5.45 1.1 1.55 1.45-.55zM42.75 3.6l.5-.4.8-.35 1.2.05q.3.2.4.55l-.05.65-.7.95-.1.45-.4.9q-.25.45-.55 1.45l-.5 1.95q-.35.65-1.25.35l-1.05-.8-1-.85-1.1-.55-.65-.15q-.6-.25-.6-.95 0-.65.6-.9l.6-.15 3.15-1.7zm-2 2.8 1.3 1 .2-.45.15-.5.7-1.45-.6.4-.75.3zM57.9 25.6l.35.5.85-.15h.25l.2-.6.7-1.85-.45-.5q-.65-.7-1.05-1.7-.4-.9-.5-2.1V18l-.45.25q-.9.5-1.6 1.1l.15.5.45.5.3.55-.15.6q-.25.3-.6.3l-.65-.3-.5-.5-.3-.2-.75 1-.05.5 1.75 1.25.35-.15.8-.15.75-.1.35.4-.1.45-.2.45-.1.45-.1.35zm-6.3.1q-1.15 2-1.55 4.2 1.2-1.1 2.7-1.9l1.2-.55zM46 30q.15-1.75 1.55-5.05-3.65-.15-6.95 1.2 1.15.1 2.2.65l1.3-.55.95-.1q.55.2.55.7l-.3.7-.6.45-.1.2 1.05 1.7.35 1.25zm26-.15.45-2.2V26.3l-.2.05q-2.45.85-4.95.55l-.05.1-.35.65-.6.15q-.4-.05-.6-.3-.2-.3-.15-1l-1.85-.7-.4.9 3 1.35 1.55.9.75-.5q.35-.25.6-.25.35 0 .55.3l.1.65-.55.85-.1.5.45.8.6 1.1zm-9.1 2.1q.35 1.1 1.1 1.65 1.05.75 3.25.45h.15l-.3-.55-1.05-1.45Q65.5 31.6 64.2 31l-1.6-.6zM20.8 12.7l.5-2.25.2-.35.05-.45q.1-.8.95-.9.75-.1 1.15.65l.25.55.65 1 .45.85 1.75 2.45.65 1.1.55.85q.2.7-.5 1.05l-1 .1-1.95.2-2.05.5-.65.1-.65.35q-.6.2-1.1-.2-.5-.45-.25-1.05l.25-.4.05-.5.15-.35.15-.7.1-1zm2.45-.3-.65-.9-.8 4.5 1.75-.35 1.75-.35zm12.5 3.85.1-.75q.25-.45.55-.45.4-.1.95.65l1.4 1.55.85.7q.4.6.25 1l-.65.65-1.9.95-.95.2q-.55 0-.8-.45l-.1-.65.2-.7zm1.5 2 .95-.45-.35-.35-.6-.45v-.05h-.05v1.15zM9.25 6q-1.1.15-2 .75L6.2 7.1q-.7-.15-.7-1.4l-.25-4.3.1-.9q.3-.6.75-.45l.55.5.85.8 2.65 2.3q1 .9.75 1.55l-.7.65zm-2.3-1.25.7-.2.7-.25q-.05-.4-.5-.85l-.25-.3-.9-.85.1.5.1.8zM7.4 25.5q1.5-.85 2.2-2.1l.05-.2-.15-.25q-.75-.7-1.85-.6l-.55.1L7 23.7l.15 1.95zm4.1-6.3q.3-1.5-.85-3.45Q9.3 17.1 8.5 18.5q1.55.05 3 .7m9.75 13.5.35-.35.6-1.4q.6-1.7.1-2.55-.8-.2-1.6.4-1 .85-.95 1.8v.1l.3-.15.55-.15q.4 0 .55.3.25.3.1.65l-.7.7.4.45zm-10.7-4.65q-1.4.95-2.75 1.4l.25 2.05 1.1.15q.45-1.55 1.4-3.6m27.7 3.35-.4.25-.05.35q-.1.95.05 1.6l.3.65 1.1.2.65-.15-.4-.6q-.1-.45.05-.8.4-.55 1.45-.35l.95.25v-.3q.15-.9-.4-1.6-.6-.75-1.5-.6-.4.1-.9.5z"/></g></svg>