<svg xmlns="http://www.w3.org/2000/svg" xmlns:ffdec="https://www.free-decompiler.com/flash" ffdec:objectType="shape" width="75.75" height="44.8"><g fill-rule="evenodd"><path fill="#999" d="m17.25 3.95.55-.35q1.5-.95 4.3-2.2 1.95-.8 3-.5l.6.5.15.65-.85.65q-2.1.75-3.95 1.95L18.9 3.9l-1.2-.1zM22.7 5.4l2.15-1.55q4.5-2.75 9.05-2.3l.5.05.15-.05q6.4-.8 12.05.8 3.95 1.15 7 3.35l-1.45.5-2.5 1q-2.5-1.3-5.5-2l-.6-.1q-2.65-.8-5.8-.75l-2.8.2-1.55.1-.5.05q-3.45.5-6.55 2.6l-.95-.5zm32.55-.3L52.8 3.9l-1.6-.95q-.8-.7-.65-1.6.1-.7.8-1.05L52.7 0q.7.05 2.5 1.05l3 1.75q1.7 1.05 2.8 1.95 3.5 3 5.15 8.15 1.2 3.7 1.4 9.55.1 7.1-1.65 11.75-2.3 6.25-7.4 8.9l-1.55.5q-.95 0-1.35-.75-.3-.75.25-1.5.35-.4 1.25-1 4.05-2.85 5.65-6.65.8-1.95 1.15-4.5.7-4.3.4-9-.55-7.7-4.4-11.75l-.65-.65.25-.6.2-.8q.2-1.15-.4-1.8-.55-.65-1.75-.45l-1.75.7zm3.05 5.15q1.25 1.7 2.05 3.55 2.1 4.5 2 10.05-.1 5.05-2.1 10.15-1 2.6-2.2 3.95L55.1 40.4q-3.4 2.35-6.1 2.95l-3.15-.15q-.85-.55-.85-1.1-.1-.95 1.85-1.55 2.95-.8 5.25-2.15 1.95-1.1 3.1-2.45l1.85-3.1q2.6-6.05 1.85-11.95-.45-3.8-2.15-6.8zm-39.35 5.5q-1.75 3.05-2.45 6L16 25.2q-.55 6.85 1.6 10.5 1.7 3 5 4.25l3.15 1q1.8.65 2.65 1.7-1.25 1.2-4.4 1.1-2.75-.1-4.3-.85-1.2-.6-2.9-2.2-2.4-2.3-3.3-4.05-.8-1.5-1.3-4.55-1-7.2 1-13.15 1.3-3.85 4.2-7.9l.35 1.3.25.5.4 1.6.5 1.1v.1zm-2.3-7.5-.25.25q-3.7 4-5.1 9.05l-.75 3.55q-.6 3.9-.5 6.55.15 2.8 1.4 7.45.6 2.3 1.35 3.2l1.6 1.6q.95 1.15.45 2.1-.4.85-1.5.85-.8 0-1.65-.6-2.85-1.8-4.1-7.05-2.3-9.45 0-17.55 1.3-4.4 3.85-8 2.3-3.35 5.45-5.45l-.4.5-.2 1.2zm-13.5-4.3 1.65-1.7L7.3.7l1.45.15q.75.5.6 1.3-.05.55-.85 1.25L6.15 4.95l-.45.5L4.15 7.3l-1.5 3.05q-.85 1.7-1.5 2.25l-.6.15q-.2-.05-.35-.7l-.2-1.2.15-.55 1-2.75.9-2.05zm15.05-1.5q-.15.6-1.35 1.05-5.6 2.2-8.1 5.55-1.65 2.3-3.05 7.45Q4 23.25 3.9 27.45q-.1 6.25 2.55 10.7l1.2 2.4q.1.7-.2 1.35-.3.7-.95.9-1.2.3-2.5-1.4Q.25 36.15.15 28.5q-.05-5.55 2.2-13.4Q3.85 9.7 6 6.95 8.35 4 13 2q1.6-.75 3-.95l1.5.15q.85.4.7 1.25M62.7 44.5q-.75-.7-.4-1.85.2-.65 1.05-1.7 2.8-3.65 4.05-7 1-2.75 1.65-7.95l.6-6.25q.1-3.45-.7-6.1-.9-3.05-3.3-6-1.75-2.2-4.85-4.95-1.55-1.2-.9-2.2.6-.9 2.25 0 4.3 2.3 7.2 6.4 2.85 4.15 3.5 8.95.35 2.4.15 5.45l-.6 5.4q-.7 5.1-1.5 7.55-1.3 3.95-4.9 8.9l-1.4 1.4zm10.65-30.65-.25-.75-.25-1.8-.4-1.35-.95-2.5-1.15-1.75-1.15-1.35-1.1-1.15q-.5-.95.1-1.8.7-.85 1.65-.7.8.1 1.8 1.3 2.9 3.5 3.75 8.05l.15.9-.05 1.3-.15 1.45q-.2.9-.6 1.2l-.65.25q-.35 0-.55-.3zM69.5 43.8q-.45-.05-.75-.4-.25-.4-.2-.85l.35-.7 2.95-4.7.9-2.45 2.05-5.45.4 1.15.45 1.2.1 1.1q.1 5.05-3.1 8.95l-.85.95-1.4.95z"/><path d="m21.05 4.65 1.65.75 2.7 1.4.95.5.3.15q3.65-2.3 8.3-2.9l2.8-.2q3.15-.05 5.8.75l1.8.65q1.6.7 3.25 1.95l1.05-.5 2.5-1 1.45-.5 1.65-.6.55-.25 1.75-.7q1.2-.2 1.75.45.6.65.4 1.8l-.2.8-.25.6-.95 2.45-1.55 3.85-.85 2.15.25.6q.65 1.5 1 4.1.6 4.85-.7 9.2-1.45 4.7-4.85 7.5-5.25 4.3-15.85 3.9l-5.4-.6q-2.2-.45-5.2-1.7-3.7-1.6-5.3-3.4-2.9-3.15-2.9-9.35 0-5.4 2.15-10.2l-.15-.55-.05-.1v-.1l-.5-1.1-.4-1.6-.25-.5-.35-1.3-.5-1.85-.25-.95-.35-2.35.2-1.2.4-.5.35-.25.45-.15 1.2.1z"/><path fill="#fff" d="m47.9 9.3 1.15-.1 3 .35q1.65.65 2.55 2.4.75 1.45.85 3.4.1 1.7-.55 3.05l-1.45 2.1q-1.05 1.25-2 1.6l-2.6.2q-2.1-.1-3.15-.7-1.6-.9-2.4-3.15-.65-1.85-.4-3.45.05-.6.4-1.45.65-1.6 1.75-2.7Q46.3 9.6 47.9 9.3m4.4 8 .35-.75.15-1-.05-.5-.45-1.4-.6-.95q-.5-.7-1.9-.8-1.75-.1-2.65.7l-.55.75-.5 1.4-.1.5-.2.55.1.4.75 2q.45.55 1.25.75l1.55.2h.85l.85-.5.55-.5zM25.65 33.1l-1.4-1.05q-.55-.95-.1-2.65.6-1.8 2.05-3.35 1.4-1.45 3.25-2.3 2.45-1.2 5.85-1.35v-.25l.3-2q.2-.85.55-1.2t.85-.35.85.3q.5.4.7 1.3l.2 1.9v.35l1.7.2 3.5.85q3.5.95 4.85 2.55 1.55 1.85 1.05 4.15-.5 2.35-2.55 3.35l-2.75.6-2.9-.15q-5.05-.4-9.75-.25-4.4.2-6.25-.65m20.65-4.55q-.3-.6-1.4-1L43.1 27l-.1.6q-.3.7-1.15.95l-1.55.1-1.25-.2q-.65-.25-.95-.85-.25-.45 0-1.6l.1-.3-5.85.65Q29 27.4 27.85 30l3 .1V30q.25-.65 1.15-1.1l2.05-.2q.75.2 1.05.6l.2.9 9.25.25 1.15-.15.65-.75q.2-.55-.05-1M21.75 20.7l.1-.75.15-.8.7-1.3Q23 17.3 24 17l1.1-.3q1.25-.1 2.05.5l1.2 1.25.4.6.1.75.05.85h-.25l-2.5.15L25 21l-.35.05-2.9.6z"/><path d="m66.6 10.1.65.25.3.45.15.55-.2.65-.85 1-1.1.8-1.05.8-.85.45-.55.5-1.55.1q-.75-.3-.95-1.2l-.2-.5-.75 1.2-.65.5-.55-.05-.3-.45q-.05-.4.2-.85l1.05-1.95.35-.8.15-.55q.25-.55.7-.7l1 .1.55.6.45 1.1 1.85-1.3q1.2-.8 2.15-.7M61 21.75l.75-.45.45-.5q.5-.4 1.1-.25.6.1.95.65l.25 1.1-.05 1.05 3.55.2 1.15.35q1 .65.7 1.7-.2.95-1.4 1.2l-1.95.05-3.3-.1-1.4-.15q-.6-.25-.75-.9-.25-.6.15-1.15l.05-.4-1.5.85-.7.2q-.6-.1-.7-.7-.05-.55.8-1.3zm-.35 9q.9.15 1.2 1.3l-.15 2.05v.35q.1.25.65.25l1.85.3q1.3.45 1.7.85l.6 1.1-.1.85q-.3.5-1.25.6l-2.2-.1-2.25-.3-1.3-.3-1.1-.8q-.35-.6-.2-1.25l.2-.6.2-.9.15-.4-1.2.25-.95-.1q-.45-.25-.45-.7 0-.5.4-.8l.85-.3.55-.4.6-.25 1.1-.5zM33.6 2.2l.95.35L36.2 4l.6.9.3 1.05.1 1.5q-.1.9-.65 1.3l-1.85.1-.8-1.05-.6-1.25-.45-.45-.6-.05q-.5.15-.4.85l.2.95q.15 1.3-1.05 2-1.15.7-2.2-.15l-.7-.75-.45-.9-.05-.75q-.05-.75.6-2.45l.3-.8q.8-1.35 2.2-1.8zm-19.95 7.85-.9-1.55q-.4 1.35-.95 1.7l-1.55.05-.55-.5L7.8 7.4q-.5-.5-.65-1.05-.35-1.05.5-1.75.85-.65 1.85-.15l.9.85.4.65q.25-.9.95-1.2.85-.4 1.5.15l.6.75 1.55 3.3q.45.85.2 1.35-.15.45-.7.55-.45.05-.9-.3zM5.25 17q.7-.2 1.5.4l1.3 1 .2.05.1-.1.25-1.25q.15-.65.8-.95.65-.25 1.3 0l2.75 2.3 1.1 1.05q.5.8.1 1.45-.5.65-1.45.45-.35-.1-1.4-.8l-.95-.75-.3.9q-.15.7-.6 1.05-.5.4-1.1.4L8 21.8l-3.05-2.25-.5-.6q-.35-.6-.1-1.15.25-.65.9-.8m9.35 14.15q.35 1.05-.25 1.75l-1.1.65-3.1 1.1-.75.3-.75.5-1.7-.05q-.85-.6-.7-1.55.15-1.25 1.7-1.95l2.55-.9-1-1.65q-.2-.95.65-1.35l.9-.2 3.95-.75q.65.1.8.7.15.7-.4 1l-1.2.25q-.85 0-1.15.3l1.2 1.1z"/></g></svg>