<svg xmlns="http://www.w3.org/2000/svg" xmlns:ffdec="https://www.free-decompiler.com/flash" ffdec:objectType="shape" width="75.8" height="42.15"><g fill-rule="evenodd"><path fill="#999" d="M61.5.45H69l.3.05h.45L70 .45h2.65V.4h.85l.3.05.2.05.2.1.1.1.15.1.05.05.1.1.05.1.05.1.05.1.05.1v.15l.15.05.05.1.05.1.1.1v.1l.05.05v.2l.05.1.05.1v.1l.05.05v.2l.05.1.05.1v.15l.05.1v.35l.05.1v.1l.05.1v.45l.05.1v1.1l.05.05v.95l.05.05v.95l.05.05v24.1l-.05.1v7.45l-.05.1.05.1v.25l-.05.1v.2l-.05.1v.05l-.05.1v.1l-.1.1v.1l-.05.05-.1.1-.1.1-.1.1-.15.1-.15.05-.05.05v.05l-.05.1-.05.05-.05.1-.05.1-.15.1-.15.1-.15.1-.25.05h-.15l-.25.05-.8.05h-.75l-.3.05h-.3l-14.6.05-13.55.05h-3.6l-12.85.05H2.65l-.3.05H2.1l-.25-.05-.2-.05-.25-.1-.1-.05-.1-.1-.1-.1-.1-.1-.05-.1-.1-.1v-.05l-.05-.1-.05-.1v-.1l-.05-.1v-.15l-.05-.05-.1-.1-.05-.1-.1-.1-.05-.1-.1-.1-.05-.05v-.1L.15 40l-.05-.1v-.15l-.05-.1v-.2l-.05-.1v-18.9l.05-.1V14.1L.1 14v-1.65l.05-.1v-.45l.05-.1V8.45l.05-.1v-1.9l.05-.1V5.8l.05-.1v-.8l.05-.1V3.65l.05-.1v-.2l.05-.1V3l.05-.1v-.4L.4 2.4l-.05-.05-.1-.1-.05-.1-.05-.1-.05-.1V1.6l.05-.1.05-.1.05-.05.1-.1.05-.1.15-.1.3-.05.25-.05h.25L1.6.9l.1-.05h.75l.2-.05h.1L3 .75 3.4.7h.65l1.2-.05h.5L6 .6l.4-.05h1.05L9.3.5h5l-2.85 2.55L9.5 5.2q-2.75 3.65-3.65 5.7-1.05 2.9-1.25 6.65Q4 23.5 5.75 27.4q2.6 6.1 13.5 10l5.3 1.95 2.85 1.1 2.65 1.4h15.8q1.2-.75 2.6-1.4l2.65-1 5.5-2.05q10.85-3.9 13.5-10 1.7-3.9 1.15-9.85Q71 13.8 70 10.9q-.9-2.05-3.65-5.7L64.5 3.1zm-26.55 0h6Q39.2 1.4 37.9 2.8 36.7 1.4 34.95.45m3.15 40.6h-.3q-1.05-.2-2.25-1.65l-.2-.2q-1.8-2-5.05-3.5-1.15-.5-5.9-2.25-7.95-2.8-9.85-7.25-1.25-2.85-.8-7.15.15-2.75.9-4.85.65-1.5 2.65-4.15 3.25-3.9 6-4.75l5.1-.45q3.9.3 6.05 1.15 2.2.85 3.5 2.3 1.4-1.45 3.5-2.3 2.15-.85 6.1-1.15l5.05.45q2.75.85 6 4.75 2 2.65 2.65 4.15.75 2.1.95 4.85.4 4.3-.85 7.15-1.95 4.45-9.8 7.25-4.8 1.75-5.95 2.25-3.25 1.5-5.1 3.5l-.15.2q-1.2 1.45-2.25 1.65m0-4.95q.8-.15 1.75-1.3 1.35-1.45 3.7-2.6l4.3-1.6q5.75-2.05 7.15-5.3.85-2.05.6-5.2-.15-1.95-.7-3.5-.45-1.1-1.9-3-2.4-2.85-4.35-3.45l-3.7-.35q-2.85.25-4.45.85-1.5.6-2.55 1.65-.95-1.05-2.5-1.65-1.6-.6-4.45-.85l-3.7.35q-1.95.6-4.35 3.45-1.45 1.9-1.9 3-.6 1.55-.7 3.5-.3 3.15.6 5.2 1.4 3.25 7.15 5.3l4.3 1.6q2.35 1.15 3.7 2.6.95 1.15 1.75 1.3h.25"/><path d="M14.3.5 15 0h19.05l.9.45q1.75.95 2.95 2.35 1.3-1.4 3.05-2.35l.9-.45h19q.3.2.65.45l3 2.65 1.85 2.1Q69.1 8.85 70 10.9q1 2.9 1.25 6.65.55 5.95-1.15 9.85-2.65 6.1-13.5 10l-5.5 2.05-2.65 1q-1.4.65-2.6 1.4h-15.8l-2.65-1.4-2.85-1.1-5.3-1.95q-10.9-3.9-13.5-10Q4 23.5 4.6 17.55q.2-3.75 1.25-6.65.9-2.05 3.65-5.7l1.95-2.15zm23.8 40.55q1.05-.2 2.25-1.65l.15-.2q1.85-2 5.1-3.5 1.15-.5 5.95-2.25 7.85-2.8 9.8-7.25 1.25-2.85.85-7.15-.2-2.75-.95-4.85-.65-1.5-2.65-4.15-3.25-3.9-6-4.75l-5.05-.45q-3.95.3-6.1 1.15-2.1.85-3.5 2.3-1.3-1.45-3.5-2.3-2.15-.85-6.05-1.15l-5.1.45q-2.75.85-6 4.75-2 2.65-2.65 4.15-.75 2.1-.9 4.85-.45 4.3.8 7.15 1.9 4.45 9.85 7.25 4.75 1.75 5.9 2.25 3.25 1.5 5.05 3.5l.2.2q1.2 1.45 2.25 1.65h.3m0-4.95h-.25q-.8-.15-1.75-1.3-1.35-1.45-3.7-2.6l-4.3-1.6q-5.75-2.05-7.15-5.3-.9-2.05-.6-5.2.1-1.95.7-3.5.45-1.1 1.9-3 2.4-2.85 4.35-3.45L31 9.8q2.85.25 4.45.85 1.55.6 2.5 1.65 1.05-1.05 2.55-1.65 1.6-.6 4.45-.85l3.7.35q1.95.6 4.35 3.45 1.45 1.9 1.9 3 .55 1.55.7 3.5.25 3.15-.6 5.2-1.4 3.25-7.15 5.3l-4.3 1.6q-2.35 1.15-3.7 2.6-.95 1.15-1.75 1.3"/><path d="M42.05 14.55q.5-1.15 1.75-1.25t1.85 1q.6 1.15-.15 2.15-.4.55-1.15.75l-1.4-.2q-.65-.35-.9-1.05-.25-.75 0-1.4m-4.9 11 .6-.55 2.1-.1.2.15q.35 0 .65.3l.4.4.35.5.05.45v1.35l-.1.05-.95 1.25-1.15.55-.6.2q-.45.2-1 .65l-.25.25-.35.45h-.45l-.4-.3-.85-.9-1.6-.7-.55-.3-.5-.45-.4-.5-.1-.9.1-.75.35-.7.65-.7q.5-.45 1.75-.55l.95.1 1 .9zm-6.7-10.7q.45-.6 1.25-.75l1.35.2.75.85q.25.6.15 1.15-.25 1.3-1.5 1.55l-1.15-.1-.85-.75q-.75-.95 0-2.15m10.15 3.8-.95.9q-.65.25-1.25 0l-.55-.15-.5.2-1.35.25-1.05-.6q-.55-.65-.15-1.8l.3-.45.45-.05.15.4v.55q0 .45.45.65l.75-.1.45-.5.5-.3q.25 0 .65.35t.65.3q.45-.15.45-.9t.4-.9q.4-.1.65.35l.1.75zM37.15 29.7l.4-.35.55-.35 1.6-.7.4-.45q.3-.35.2-.9l-.1-.4-.35-.25-.65-.25-.6-.05q-.35.1-.55.7l-.8.8-.5-.15-.25-.5.05-.15-.4-.4q-.45-.45-1.05-.35-.6 0-1.05.45l-.3.4-.15.35.15.65.35.35 1.4.6.8.55.7.6z"/><path fill="#999" d="m37.15 29.7-.15.2-.7-.6-.8-.55-1.4-.6-.35-.35-.15-.65.15-.35.3-.4q.45-.45 1.05-.45.6-.1 1.05.35l.4.4-.05.15.25.5.5.15.8-.8q.2-.6.55-.7l.6.05.65.25.35.25.1.4q.1.55-.2.9l-.4.45-1.6.7-.55.35z"/><path fill="#fff" d="M47.75 14.7q.05 3-1.15 5.15-1 1.9-2.85 3.1l.1 1.25.1.7.6.35q1.5.6 2.05 2.2l.3 1.1.1 1.55q-.1 1.5-2.1 3.3.4.55.25 1.3-.05.75-.6 1.15-.7.55-2.4.5l-.7-.05-.15.2q-.5 1-1.05 1.25l-1.55.15-.9-.15q-.9.75-2.45.4-1.2-.35-1.6-1h-.15l-1.1.3-1.3.15q-1.1 0-1.55-.35l-.7-.65-.4-.8q-.1-.7.45-1.35l-1.1-1.4-.35-.7-.15-.4q-1.9.6-2.95 1.2l-1.8 1.3.75-.15 1.45-.05q.75 0 1.45.4.7.45.9 1.1.35 1.2-.6 2.05-.75.8-2 .9l-2.3-.25q-1.1-.05-2.35-.7l-.9-.7q-.3-.45-.3-1.3 0-1.25.15-1.65.15-.45.65-1.1 1.2-1.55 3.4-2.65l4.15-1.5.45-.1.1-.05.4-.7q.75-1.05 1.75-1.6l.9-.75.15-.7.25-.9.45-1-1.2-.9q-1.3-1.15-2-2.75-.7-1.65-.5-3.3.05-.95.6-2.35.5-1.3.9-1.85l.4-.55-.5-.85q-.15-.3-.15-1.15 0-1.05.15-1.55l.8-1.75.35-.9.45-.95q.35-.5 1.05-.6.6-.1 1.15.35l.7.85.85 1.6.65.85 5.8-.15.3-.3 2.05-2.25q.65-1 1.15-1.2.4-.2.85 0 .45.1.65.5.25.3.3 1.05l.45 1.5.35 1.5.05 1.1.1.7-.05.65.1.6.1.85v.2zm-7.15 3.95.15-1.05-.1-.75q-.25-.45-.65-.35-.4.15-.4.9t-.45.9q-.25.05-.65-.3t-.65-.35l-.5.3-.45.5-.75.1q-.45-.2-.45-.65v-.55l-.15-.4-.45.05-.3.45q-.4 1.15.15 1.8l1.05.6 1.35-.25.5-.2.55.15q.6.25 1.25 0zm-10.15-3.8q-.75 1.2 0 2.15l.85.75 1.15.1q1.25-.25 1.5-1.55.1-.55-.15-1.15l-.75-.85-1.35-.2q-.8.15-1.25.75m6.7 10.7-.1.15-1-.9-.95-.1q-1.25.1-1.75.55l-.65.7-.35.7-.1.75.1.9.4.5.5.45.55.3 1.6.7.85.9.4.3h.45l.35-.45.25-.25q.55-.45 1-.65l.6-.2 1.15-.55.95-1.25.1-.05V26.7l-.05-.45-.35-.5-.4-.4q-.3-.3-.65-.3l-.2-.15-2.1.1zm4.9-11q-.25.65 0 1.4.25.7.9 1.05l1.4.2q.75-.2 1.15-.75.75-1 .15-2.15-.6-1.1-1.85-1t-1.75 1.25"/></g></svg>