<svg xmlns="http://www.w3.org/2000/svg" xmlns:ffdec="https://www.free-decompiler.com/flash" ffdec:objectType="shape" width="76.55" height="38.35"><g fill-rule="evenodd"><path fill="#999" d="m73.25 6.35.1.8-.05.65-.15.8-.35.65-.4.9.05.35.55 1.15.25 1q0 .55-.55.8l-1-.1-.45-.6-.85-1.3q-.25-.6-.05-1.6l.15-.7.5-.8.6-.6.2-.15q.2-.2 0-.75-.1-.65.25-1.15l.75.2zM57 10.45l-.95-.85L55 8.15l-.15-.1-.3.15-2.65 2.6-.7.65-.1-1.6-.05-.8-.35-1.8-.1-.55.7-.6q.8-.5 2.45-1.45l.8-.55.9-.15 1 .85.45.65 1.2 1.8q.6-.5 1.65-.95l2.05-1.05q1-.6 1.35-.6.5-.1.9.3l.3.2.4.85.6 2-.35.45-.55.1-.55-.45-.4-.65-.25-.2-.7.4-1.35.65L59 9.6l-.9.7zm10.95.3.45 1.3q.3.85 0 1.3-.4.55-1.1.15-.45-.2-.8-.8-.4-.85-.3-1.8t.65-1.65l.7-1.15-.15-.65.05-.3.45.1q1 .75.6 2.05l-.3.7zm-39.15 3.4q-.6-1.35-.6-3.25-.05-2.1.55-3.95l-.5-1.3q-.5-1.6-.45-2.5.1-1.15.85-1.7l.95-.25.55-.05h.3l2.3.3.8-.4Q35.1.3 37.5.1l1.45-.1.7.1q2.35.2 4 .95l.75.4 2.3-.3h1.25q1.3.35 1.45 2 .05.9-.5 2.5l-.45 1.3q.5 1.85.45 3.95 0 1.9-.5 3.25-.85 1.85-2.65 3.2l4.35.85 1.05.1 1.15-.45q1.45-.55 3.55.05l.85.4.85-.05h1.65l.55.1q.55.15 1.05.6.4.45.45 1v.95q-.25 1-1.15 1.35l-.65.15-.1.65q-.5 1.65-2.4 2.35l-3.45-.1q-2.05-.65-2.75-2-1.4-.85-3.95-1.7l-2.9-1.1 1.05 4.2.35 2.8.55-.2 2.7-.25q1.75.3 2.7 1.85.9 1.45.75 3.25l-.05 1.25q.1.7.55 1.05l1.05.15 1.45-.55q.95-.45 1.45-.55 1.1-.15 1.85.35.95.6.8 1.7-.15.95-1.7 1.75-2.2 1.05-4 1.05-2.65 0-4-1.8-.5-.7-.75-1.7l-.15-2.2-.1-1.35q-.4-.6-1.45-.4l-1.4.55v2q0 1.1-.5 2.05-.6 1.05-1.65 1.2l-1.35-.05-2.1-.05-5.25.05-1.85-.35q-1-.35-1.45-1.2l-.2-1.65q0-3.45.65-5.35l.4-3.4q.3-1.9 1.05-4.2l-2.95 1.1q-2.55.85-3.9 1.7-.75 1.35-2.8 2l-3.45.1q-1.85-.7-2.45-2.35l-.05-.65-.6-.15q-.9-.35-1.15-1.35l-.05-.95q.1-.55.5-1 .45-.45 1-.6l.55-.1h1.7l.85.05.8-.4q2.1-.6 3.55-.05l1.15.45 1-.1 4.45-.85q-1.8-1.35-2.65-3.2m16.95-1.7.3-.35q1.3-1.55.55-3.35-.45-1.3-1.85-1.7l-.3.05-1.65.45q-1.25.95-2.55 1.85l-.05.05q-.3 1 .2 1.95l.95 1.1q.95.65 2.2.75 1.25 0 2.2-.8m13.2 1.5-.05.65-.65.45-.7.2-1 .8-.4.5-.95.2-.55-.25-1.4-1.1-.95.95q-.15.65-.65.8l-1.05-.05q-.45-.25-.8-.9l.2-.3.5-.95.3-.95.2.25.3.2 1-.9.55-.4 1 .05 1.5 1.25h.45l1.15-.35.75-.25.65-.15q.5 0 .6.25M35 17.2l.1.85.7.75.5.25q.65.15 1.2-.3l.5-.5q.6.45 1.6.55 1.25.1 1.85-.6.45-.55.35-1.35l-.4-1.3-1-1.65-1.1-.7q-.4-.3-.85-.35l-.05-.15-.05-.6q-.1-.3-.65-.4l-.2.05q-.35 0-.45.5l.1.4-.1.35-.1.05-.7.5-.5.55q-.5.85-.65 1.95zm-20.65-12 2.1-1.45q.75-.35 1-.35.65 0 1.15.8l.8 1.15q.15.2.25-.1.85-1.45 1.95-2.45l.85-.65 1.05.1.55.65.35.85.25.3 1.1 2 .7.85-.05.05-.15.85-.2.85-.15 2.6-1.35.1q-.55-.35-.9-1.4l-.9-2.75q-.3-.8-.45-1.6l-1.6 2.05-.8.8q-.6.25-1.05-.25l-.25-.3-.2-.35-.9-1.05-.3-.5-.1-.25-1.95.85q-.85.35-1.2 0-.35-.3-.1-.75zm6.15 10.9-.5.25-.7-.05-.6-.75-.45-.8-.45-.6-.05-.35-.2-.6q.1-.3.45-.3.3 0 .55.25l.8.95.25.2.35-.1q.95-.75 1.35-.95.55-.4 1-.45l1.05.3 1.25.75 1.05-.8.4-.1v.6l.4 1.05.4.85-.3.25-1.25.9-.9.05-.75-.5-1.25-1.05-.3-.15q-.15 0-.35.2zm9.45-5.3-.05.9.15.9.5.7q.8.8 1.65.95l1.15-.05q1.05-.15 1.7-1.1.45-.6.5-1.3l-.85.05-1.75-.55-1.25-.9-.7-.2-.7-.2zM5.7 6.7l-.2-.85q0-.5.35-.7l.7.1.4.55.35.85.15 1-.25 1-.6.8-.75.8q-.85.8-.7 2.4.2 1.65-.7 1.5l-.65-.2-.8-.6q-.25-.5-.15-1.15l.15-.75q.15-1.25.75-2.25l.8-.95.75-.6.45-.45zM9.75 11l-.1.35-.1.6.15.3-.05.9-.15.35q-.35.65-1.1.35l-.7-.75-.3-.6v-.3l.2-1.25.4-.85 1.15-2.15V7.4q0-.35.35-.45l.1-.05q.55.05.75.75L10.5 9l-.05.6-.1.45z"/><path fill="#fff" d="M45.75 12.45q-.95.8-2.2.8-1.25-.1-2.2-.75l-.95-1.1q-.5-.95-.2-1.95l.05-.05q1.3-.9 2.55-1.85l1.65-.45.3-.05q1.4.4 1.85 1.7.75 1.8-.55 3.35zM35 17.2l.1-1.15q.15-1.1.65-1.95l.5-.55.7-.5.1-.05.1-.35-.1-.4q.1-.5.45-.5l.2-.05q.55.1.65.4l.05.6.05.15q.45.05.85.35l1.1.7 1 1.65.4 1.3q.1.8-.35 1.35-.6.7-1.85.6-1-.1-1.6-.55l-.5.5q-.55.45-1.2.3l-.5-.25-.7-.75zm-5.05-6.4.35-.8.7.2.7.2 1.25.9 1.75.55.85-.05q-.05.7-.5 1.3-.65.95-1.7 1.1l-1.15.05q-.85-.15-1.65-.95l-.5-.7-.15-.9z"/><path d="m64.8 17.5-.25.2-.1.15-.25.8q-.1.55.05.8.25.4.75.3.5-.15.5-.65l-.05-.55.1-.6.25-.35q.1-.25-.2-.35h-.4zM76 21.2q.05 1.15-.4 2.15l-1.05 1.6-1.3 1.5.5.95q.95 2.3 1 4.25.1 1.35-.45 2.2l-.3.45-.2.6-1 1.55H62.4L61.5 35l-.6-.55-1.6-2.15-.3-.35-.65.05q-.3.1-.5.55l-.45.9-.55.95q-.45.45-.95.45l-1.2-.3-.55-.2-.25-.2q-.2-.2-.3 0l-.45.3q-.4 0-.4-.35l.05-.45q.3-.8.75-.95.4-.15.8 0l.75.4.6.05.15-.35q.4-1.85 1.5-2.6.65-.4 1.45-.5l1.3.15 1.15 1 .1-.4q.6-1.8 1.85-3.2.75-.85 1.7-1.35l-.4-.35-1-1.25q-.65-1.05-.75-2.4v-1.2l-1.15-.35q-1.15-.55-1.3-1.75v-.65l.15-.7q.25-1 1.35-1.8.9-.65 2-.9 1.55-.3 3.2.45l1.2-.45q2-.45 3.3.05l2.65-.15 1.25.85q1.05 1.1.8 2.45.35.4.35 1-.05.7-.45 1.05l-.4.25-.95.25-1.4-.2q-1-.25-1.5-.75l-.25.75.15 1 .5-.05q1.15.05 2.15 1l.35.4.7-.45zm-4 3.05q0-.5-.4-.9l-.85-.55-.35-.1v-.15l-.05-.25-.2-.35q-.25-.25-.55-.2l-.45.4-.05.45-.5.15q-.75.35-.95 1.05-.25.8.3 1.35l1.35.05.5-.5.4-.1.2.15.35.3.85-.05q.4-.25.4-.75m.15-6.4-.05-.7-.25-.4-.1-.2q-.25-.4-.75-.3-.3.3-.25.5l.1.3-.05.35v.5q.15.55.8.45.3 0 .45-.25zm-8.25 4.1.65.55.15-.1.75-.4 1.3-.5.85-.05h.05l.15-1.4-.35-.75-.15.15-1.15.8-1.6.55-1.1-.1q.05.7.45 1.25m-63.65-.5q-.05-.45.3-.9l.1-.05.1-.5q.6-1.8 1.85-3.1 1.3-1.3 3.05-1.9l3.6-.25 1.3.4 1-.3 1.55-.3.95-.15q1.1-.1 1.95.35.95.55 1.4 1.45.55 1.25-.1 2.45l-1.05 1.05-1.35.25-.2.05.15 1.45q.1 2.2-.7 3.9l-.6 1.1 1.7.85q1.05.5 1.75 1.1 1 .9 1.5 2.1l.05-.05Q20.8 29.1 22.7 30l.7.55.45.7q.7 1.4.7 3.15.7 0 1.4-.9.95-1.15 1.65-1.45.55-.25.6.1l-.35.25-.4.45L26.7 34l-1.45 1.65q-.55.4-1.05.4h-.15l-.85-.3q-.5-.3-.75-1.1l-.35-1.25-.65-.75q-.55-.2-1.3.3-.7.45-1.25 1.05l-.7 2.05H1.45l-.2-.6q-.2-.65-.1-1.6l.1-1.6q.2-1.1 1.05-2.4l1.5-1.7-1.3-1L1 25.4l-.5-1.6q.45.6 1.4.7.85.1 1.55-.45.85-.75.7-1.85-.05-.6-.45-1.1l-.15-.15-1.35.95-1.05.3-.85-.6zm4.7 4.75q.35.45.85.45.45 0 .85-.4l.15-.15H7l.95.05q.7-.15.6-1.05-.1-.55-.8-1.05l-.95-.3-.15-.35-.05-.2-.3-.25-.4.2-.3.7v.1q-.65.25-.8.75l-.05.75zm6.8-3.75q.75-.5 1-1.3l-1.85-.05-.15-.1-1.25-.3-.35-.2-1.1-.85-.1.65q0 1 .55 1.65l.25.3h.45l1.25.05 1.25.2zm-.55-4.5-.45-.5-.3-.25-.55-.2-.45.1-.15.3.1.75v.4l.4.6.65.2.75-.5q.25-.5 0-.9"/><path fill="#fff" d="m64.8 17.5.4-.25h.4q.3.1.2.35l-.25.35-.1.6.05.55q0 .5-.5.65-.5.1-.75-.3-.15-.25-.05-.8l.25-.8.1-.15zm11.3 2.3.05.5-.15.9-.55.8-.7.45-.35-.4q-1-.95-2.15-1l-.5.05-.15-1 .25-.75q.5.5 1.5.75l1.4.2.95-.25zm-12.2 2.15q-.4-.55-.45-1.25l1.1.1 1.6-.55 1.15-.8.15-.15.35.75-.15 1.4h-.05l-.85.05-1.3.5-.75.4-.15.1zm8.25-4.1-.1.25q-.15.25-.45.25-.65.1-.8-.45v-.5l.05-.35-.1-.3q-.05-.2.25-.5.5-.1.75.3l.1.2.25.4zm-.15 6.4q0 .5-.4.75l-.85.05-.35-.3-.2-.15-.4.1-.5.5-1.35-.05q-.55-.55-.3-1.35.2-.7.95-1.05l.5-.15.05-.45.45-.4q.3-.05.55.2l.2.35.05.25v.15l.35.1.85.55q.4.4.4.9M.5 23.8l-.05-.05L0 22.5l.25-1.05.05.15.85.6 1.05-.3 1.35-.95.15.15q.4.5.45 1.1.15 1.1-.7 1.85-.7.55-1.55.45-.95-.1-1.4-.7m10.7-5.85q.25.4 0 .9l-.75.5-.65-.2-.4-.6v-.4l-.1-.75.15-.3.45-.1.55.2.3.25zm.55 4.5-.05.05-1.25-.2-1.25-.05h-.45l-.25-.3q-.55-.65-.55-1.65l.1-.65 1.1.85.35.2 1.25.3.15.1 1.85.05q-.25.8-1 1.3m-6.8 3.75-.2-.75.05-.75q.15-.5.8-.75v-.1l.3-.7.4-.2.3.25.05.2.15.35.95.3q.7.5.8 1.05.1.9-.6 1.05L7 26.1h-.2l-.15.15q-.4.4-.85.4-.5 0-.85-.45"/></g></svg>