<svg xmlns="http://www.w3.org/2000/svg" xmlns:ffdec="https://www.free-decompiler.com/flash" ffdec:objectType="shape" width="74.15" height="38.6"><g fill-rule="evenodd"><path fill="#767676" d="M67.4 9.5q0-.8.7-1.25.75-.4 1.5 0 .7.45.7 1.25v.3l.05.9.05 1.3-.1 1.1-.6 1.45-.1.3-.65.1-.3-.55-.2-.5q-.7-1.4-.75-2.15v-.35l-.2-.75zm.75 7.7q0-.55.5-.9l.55-.2h.15q.8 0 1.05.75.35.65-.25 1.25-.55.55-1.3.2-.8-.25-.7-1.1m-4.7 13.4q-1.05-1.15-1.2-2.55-.1-1.2.65-3l.4-.75-.5-.9q-.15-.5-.05-1.95l.15-.65q.25-.8.75-1.2l.75-.55q1.25-.65 2.1-.6l.75.1.75.2q1 .45 1.55 1.95l.2.65 1.2.4q1.05.45 1.75 1.4 1.65 1.95 1.4 4.35l-.45 1.8q-.95 2.35-2.8 3.25l.45 1.6.35 1.75.15 1.35q-.1.75-.55 1.3l-.05.05h-9.8q-.4-.75-.2-1.85l.1-1q.2-1.2 1-2.2l.75-.95.6-.75.6-.5zM42.85 7.2l-3.3-1.3q-3.8-1.55-8-1.2T23.9 7.2q-1 .65-2.8 2.05-3.2 2.45-4.9 4.2l-2.1 2.4L3.2 29.1q-.6.7-1 .3-.2-.25.1-.75l8.95-14.9 1.85-2.8 3.2-3.5 2.55-2.35q3.7-3.1 8.5-4.35L36.9.4q4.35.85 6.9 3.15 1 .9 1.25 1.8l.05.75.15-.1q.4-.25 1.15.3l1.2 1.1 3.7 3.9 5.75 6.8 1.65 2.2.95 2.4q.55 2.3-.3 4.25-.95 2.25-3.15 2.7l-2.45-.05q-1.9-.35-3.05-1.3-1.35-1.05-1.05-2.3.2-.7 1-1.05l1.4.1.8.6.95.05 1.05-.35q.55-.5.15-1.55-.3-.95-1.5-2.55-4-5.55-8.3-13.55l-.35-.9q-.2.3-.6.45zM65.7 22.9q-1.45.15-1.9 1.65-.35 1.45.8 2.35.5.4 1.25.45.7.05 1.25-.3 1.35-.75 1.1-2.25-.1-.85-.85-1.45-.7-.6-1.65-.45m6.55 6.45q.9-.25 1.45-1.1.5-.8.35-1.7-.15-.85-.9-1.45-.8-.6-1.7-.55t-1.55.75q-.7.7-.7 1.6 0 1.7 1.5 2.35zM24.5 12.6l.6-.5.4-.45q.35-.35.6-.35.4.1.4.55l-.3.65-.05.15v.3q-.05.6-.5 1.2l-7.4 12.25q-4.9 8.1-6.6 12l-.1.2h-5.4l.45-1 3.6-6.15q4.05-6.65 9.45-13.15L21 16.8zm-8.65 25.45q.5-2.1 2.2-5.4 6-11.7 13.05-17.75.25-.2.55-.25t.35.2l-.1.45q-8.3 12.95-10.95 22.75l-.1.55H15.7z"/><path fill="#fff" d="m72.25 29.35-1.55-.1q-1.5-.65-1.5-2.35 0-.9.7-1.6.65-.7 1.55-.75t1.7.55q.75.6.9 1.45.15.9-.35 1.7-.55.85-1.45 1.1M65.7 22.9q.95-.15 1.65.45.75.6.85 1.45.25 1.5-1.1 2.25-.55.35-1.25.3-.75-.05-1.25-.45-1.15-.9-.8-2.35.45-1.5 1.9-1.65"/><path d="M38.65 7.9q-2.75.55-5.75 2.9-1.85 1.55-4.6 4.65l-5.5 6.65-2.75 4.65q-2.6 4.4-3.6 6.75l-1.3 3.3-.75 1.8h-3.85l-.2-.25q-.35-.45.1-1.5l1.5-3.05-.55-.3-.4-.35-.7-.25-1.4-.15-.65-.2q-2.1 3.25-3.3 5.75l-.15.3H0q.1-1.05.95-2.4Q8.1 24.3 17.1 13.8q2.35-2.8 4.25-4.5 2.15-1.85 7.4-5.05l3.4-1.8q4.15-1.8 8.5-.7 4.3 1.05 7.15 4.3l2.8.15q1.2.55 1.95 1.85.6 1.2.75 2.6v1.45l-.35 1.35-.1.25.8 2.45.05.35 1.1 1.8q.75.75 2.65 1.35 2.05.55 2.75 1.15.6.45.75 1.05.2.5 0 1.6l-.65 4.15q-.3 1.75-1 2.2l-.9.35-1 .2-1.4.4-1.4.15q-.7-.1-1.9-.9l-1.95-1.35-1.05-1q-.25-.55-.15-1.75.1-1.1.55-1.55.55-.45 1.35-.2.65.35.75 1.1l.15.7.4.35 1.5.9.75.35.85-.2.8-.3.5-3.1-2.4-.85q-2.4-1.15-3.2-2.05l-.35-.55-.25-.2-.3-.5-1.5-2.1-.25-.25-.55-.8-2.45-.1q-1.75-.4-2.75-1.65-.75-1-.95-2.1-.15-.5-.15-1.5.2-1.65 1.3-2.7-1.75-1.3-4.7-.7m10 3.55-1.4.55q-.85.05-1.5-.4l-.3-.25.1.7q.25.6.95.85l1.3.2 1.45-.4q.7-.45.85-1.2.05-.6-.45-1.5l-.2-.3q-.05 1-.8 1.75m-28.3 7.05 1.2-1.7-.4-.35-.25-.25-.35-.1-2.2 2.45-1.3 1.65.2.2.8.45.6.4zm4.85-6.55q-1.85 1.4-3.7 3.2l.2.15.35.85zm-7.45 10.3-.5-.4-1.05-.55-2.7 3.6h.1l2.2.45.45.15 1.7-3.05zm-2.5 4.2-1.7-.2-1.05.1-3.45 4.95h.1q1.6.3 2.25.7l1.05.7h.05l3.2-6.25z"/></g></svg>