<svg xmlns="http://www.w3.org/2000/svg" xmlns:ffdec="https://www.free-decompiler.com/flash" ffdec:objectType="shape" width="73.05" height="37.35"><g fill-rule="evenodd"><path fill="#999" d="M53.35 10.9h5.45V8.95l-.05-.1V7.3l.05-.15v-.3l.05-.1.05-.1.05-.1.05-.1.1-.1.1-.1.1-.1.15-.1.2-.1H60V5.9l.4.05.2.1.15.1.95.6q.7.5 2.15 1.25l3.25 2.75 3.1 2.9.75.65.6.4q1.3.8 1.45 1.55.2.85-.7 2.2l-4.65 6.65-5.7 6.1q-1.15 1.05-1.85.75l-.5-.4h-.1l-.2-.1-.15-.1-.1-.1-.1-.1-.05-.15-.1-.1-.05-.1-.05-.1v-.3l-.05-.1v-1.25l.05-.1V27.7h-5.3v-5.1l-.05-.1V10.9M51.5 27.7h-1.05v-4.2l-.05-.1v-1.15l-.05-.1v-.4l-.05-.1v-.95l-.05-.1v-.2l-.05-.1v-2.1l-.05-.1v-.8l-.05-.1v-1.85l-.05-.1v-.45l.05-.1v-.8l-.05-.1v-2.5l.05-.1v-.35l1 .05h.45v11.95l-.05.1v4.75m-2.85 0h-1.3v-4.3l-.05-.1-.05-.1v-.15l-.05-.1-.05-.1-.05-.1-.1-.1v-.1l-.05-.1-.05-.1-.05-.1-.05-.1-.1.05-.05.1-.05.1-.05.1V10.75l.7.05h1.3l.45.05v.05l.05.15v.2l.05.1v2.35l-.05.1v.95l.05.1v.3l-.05.1v.65L49 16v2.05l-.05.1v1.55l-.05.1v.75l-.05.1v.6l-.05.1v.3l-.05.1v.75l-.05.1v.7l-.05.1v4.3m-27-20.75Q22.8 5 24.5 4.3h-.8l-.35-.05-.6-.05h-.45l-.45-.05-.6-.05h-.65l-.6-.05L18.85 4l-.8-.05h-.95l-1.15-.05-.85-.05h-1.35l-.8-.05-.4-.05h-.45l-.65-.05-.55-.05h-.4l-.25-.05-.3-.05H7.9l-.5-.05-.65-.05L4.4 3.4H2.45l-.15-.05-.15-.05-.2-.05-.2-.1-.25.05-.15-.1L1.3 3v-.2l.1-.1.35-.1.2-.1.2-.1h.15l.15-.05L4.4 2.3h2.35l.65-.05.5-.05h2.05l.3-.05.25-.05h.4l.55-.05.65-.05h.45l.4-.05.8-.05 1.35-.05h.85l1.15-.05.95-.05h.8L20 1.7l.6-.05h.65l.6-.05.45-.05h.45l.6-.05.35-.05h.95l.6-.05h1.55v-.05h3.25l.5.05.65.05h.55l.45.05.4.05h.25l.3.05.25.05h.2l.15.05.1.05.3.05.25.1.25.1.1.1.15.1.1.1.05.1.05.15.05.1.05.1v.3l-.05.1-.05.1-.05.1-.1.1-.1.1-.1.1-.2.1-.2.1-.2.1h-.1l-.2.05-.1.05-.15.05h-.2l-.25.05-.3.05h-.25l-.4.05-.45.05h-.55l-.65.05-.5.05H28.3l1 .6q1.2.85 1.95 2.25.85 1.65.75 4.2 0 1.9-.65 3-.6 1.05-1.7 1.55l-2.35.3q.8.4 1.4 1.25l.5.6 1 .35.8.35 1.25-1.8.6-.55.5-.7.6-1.75.5-.9.5-.85q.35-.9.2-2.2l-.7-3.25-.95-.2q-.5-.4-.5-.95-.1-1.15 1.25-1.6 1.2-.45 3.4.45l1.6.75q1.4.8 2.35 2.2.9 1.45 1.05 3.05l-.2 3.05-.05 2.9v2.9q-.05 2.95-.85 4.9l-.05.35q-.65 2.65-2.35 4.65-1.75 2.15-4.2 2.85l-2.9.5-3.4.2-3.35-.5q-3.35-1.1-4.8-4.25-.85-1.85-1-5.35-.3-5.3.5-10.55.55-3.5 1.65-5.25M58.7 27.7v-.1h-2l-1.6.05zM15 10.25q.6-.4 1.65-.3l1.25.25.8 1q.85 1.85 0 5.2l-1.1 4.7q-.5 2.7-.55 4.7l-.15 2.15q-.15 1.1-.9 1.75l-1 .45-.95-.2q-.8-.55-.8-2.15-.05-1.5.35-4.45l.35-4.45v-.6l-.8-1.65q-.5-1.25-.15-2.7.25-1.05 1.05-2.55.6-.95.95-1.15m5.35 20.95h.8l.4.05.25.1.2.1.15.1.1.15.05.1.05.1.05.1v.1l.05.1v.3l-.05.1v.1l-.05.1-.1.1-.05.1-.1.1-.15.15-.2.1-.2.05-.1.05h-1.4l-.3-.05-1.3-.05h-2.3l-.9-.05-.25-.05h-.35l-.4-.05-.4-.05-.25-.05h-.55l-.8-.05-3.1-.05H8.5l-.2-.05-.05-.05H8.1l-.15-.05-.25-.05-.25-.1-.05-.1v-.05l-.25-.05-.05-.1-.05-.1.1-.1.1-.1.15-.05.1-.1.2-.05.1-.05.15-.05h.15l.15-.05.05-.05h.2l.65-.05 3.1-.05.8-.05h.55l.25-.05.4-.05h.4l.35-.05.25-.05h.9l2.3-.05 1.3-.05h.6zm4.7 3h3.1l.2.05.2.05.15.05h.1l.15.05.2.05.2.1.15.1.15.1.15.15.1.1.1.1.05.1.05.1v.1l.05.1v.3l-.05.1v.1l-.1.1-.05.1-.05.1-.15.15-.15.1-.15.1-.15.1-.15.05-.05.05h-.15l-.15.05-.1.05-.15.05h-.2l-.2.05-.3.05h-2.8l-2.2-.05-3.4-.05H16.5l-.6-.05-2.65-.05-1.45-.05H10l-.4-.05-.85-.05h-.7l-.8-.05-.35-.05h-.4l-.8-.05-.75-.05H4.4L3 36.5l-.3-.05H1.6l-.3-.1-.2-.1-.3-.1-.15-.1-.05-.1-.1-.1v-.4l.1-.1.05-.15.15-.1.3-.1.2-.1.3-.05 1.1-.05.3-.05h1.4l.55-.05.75-.05h.8l.4-.05.35-.05h.8l.7-.05.85-.05h.4l1.05-.05h.75l1.45-.05h2.65l.6-.05 2.95-.05 3.4-.05zm-1.2-7.8q.5 1.5 2 2.25l.05-.1.7-1.5-.5.1-1-.15-.55-.55z"/><path fill="#fff" d="M53.4 27.7v.8l.05.1v.9l-.05.1v.2l-.05.1-.05.15-.05.1-.05.1-.15.1-.1.1-.15.05-.1.05-.25.05-.35-.1-.2-.1-.15-.1-.05-.1-.1-.1-.05-.1v-.1l-.05-.1v-.1l-.05-.1v-1.15l.05-.1v-5.4l.05-.1v-13l.05-.1v-.1l.05-.1v-.1l.1-.1.1-.1.1-.1v-.1l.05-.1.1-.1.1-.1.05-.05h.15l.25.05.1.1.1.1.05.1.1.1.1.1.1.15.05.1.05.1v.2l.05.1v12.6l.05.1v5.1m-2.95 0v.75l.05.1v.9l-.05.15v.2l-.05.1-.05.1-.05.1-.1.1-.1.1-.1.1-.2.05-.25.05-.35-.05-.15-.1-.15-.1-.05-.1-.1-.1-.05-.15-.05-.1v-6.4l.05-.1v-.7l.05-.1v-.75l.05-.1v-.3l.05-.1v-.6l.05-.1v-.75l.05-.1v-1.55l.05-.1V16l.05-.1v-.65l.05-.1v-.3l-.05-.1v-.95l.05-.1v-2.35l-.05-.1v-.2L49 10.9v-.1l-.05-.1-.05-.1v-.3l.05-.1v-.4l-.05-.1.05-.1v-.1l.05-.1.1-.15.1-.1.15-.05h.2v-.05l.3.1.15.1.1.1v.1l.1.1v.6l-.05.1v.45l-.05.1v.4l-.05.1v2.5l.05.1v.8l-.05.1v.45l.05.1v1.85l.05.1v.8l.05.1v2.1l.05.1v.2l.05.1v.95l.05.1v.4l.05.1v1.15l.05.1v4.2m-3.1 0v.1l-.05.15v.2l-.05.1v.3l-.05.1v.2l-.1.1-.1.1-.05.1h-.15l-.25-.05-.1-.1-.1-.1v-.2l-.05-.1v-.25l-.05-.1v-.9l-.05-.1V23.5l.05-.1v-.2l.05-.1V23l.05-.1.1-.1.05-.1.05-.1v-.1l.05-.1.05-.1.05-.1.1-.05.05.1.05.1.05.1.05.1v.1l.1.1.05.1.05.1.05.1v.15l.05.1.05.1v4.3"/><path d="m16.3 30.75.5-.2q1.15-.95 1.3-2.5l-.05-1.8q-.4-3.25-.2-7.3l.6-7.35q.25-2.8.1-4.15-.65-.3-1.35.7-1.2 1.9-1.7 5.75-.35 2.75-.55 6.1v3.8l.1 2.65.25 2.1.8 1.8h-.2zm4.7-3.7v.5l.7 1.5q.55 1.25 2.15 2.5 1.75 1.5 3.25 2l2.85.35-1.3-.85-.95-.4-.9-.85-1.85-2.45-.75-1.95q-.8-2.8-1.05-4.65-.3-2.6.3-4.65.35-1.45 1.3-2.75l.35-.5v-.35q-.05-2.95 1.25-4.65.6-.7 1.4-1.05l1.65.1q.2.65-.1 1.55l-.6 1.6q-.4 1.1-.35 2.6.1 1.05.7 1.5l1.9.05q1.1-.55 1.9-1.7.7-1.1.85-2.45.3-2.2-.85-4.95-1.1-2.75-2.95-3.2l-1.45-.05-2.5.35q-1.2.35-2.4 1.6l-2.1 2.05v1.1l-.65 7.7q-.3 4.5-.05 7.7zm7.25-7.6q-1-.3-1.7-.9l-.5 1.85q-.15 1.15.1 2.85.25 2.2.6 3.55.55 1.95 1.55 3.25.55.75 1.45 1.35 1.3.95 3.5 1.5l.85.1 1.8-.45 2.45-.7q1.3-.45 2.15-1.15 1.35-1.05 2.6-3.7 3.7-8.05 2.35-14.95-.5-2.8-2-4.9-1.6-2.4-3.95-3.25-1.35-.5-4-.65l-1.45-.1 1 1.4 1 1.75.6 1.85q.65 3.25-.05 5.8-.85 3.1-3.25 4.65l-2.2.95zM42.3 8.15l.05.2-.35-.6zM0 6.85l10.45-.45 4.45-.2q.6-.65 1.35-1.05 1.15-.7 2.4-.65 1.2.05 1.95.75l2.45-2.65q.75-.75 1.45-1l1.5-.35 3.65-.3 1.15.15.8-.4q4.85-1.55 9.45.4 4.2 1.85 6.3 5.8l.4.8q1.5 3.15 1.5 7.85Q49.2 21 47.35 26l-1.65 3.75q-1.2 2.35-2.5 3.45l-2.8 1.55q-4.55 1.95-9.45 2.45-2.25.3-3.95-.05-2.95-.6-6-3.4l-1.5-1.6q-.95 1-2.15 1.15-1.55.15-2.9-1.1-.8-.75-1.25-1.85l-2.75-.05L0 30v-3.7l12.35.35q-.8-7.45.4-14.9l.5-2.15L0 9.95z"/></g></svg>