<svg xmlns="http://www.w3.org/2000/svg" xmlns:ffdec="https://www.free-decompiler.com/flash" ffdec:objectType="shape" width="75.2" height="40.9"><g fill-rule="evenodd"><path fill="#999" d="M0 0h75.2v40.9H0z"/><path d="m58.15 11.35-.55-.7q-1.35-1.05-3.2-.8-2.15.2-2.75 1.8-.15.4-.15 1.2l-.05 1.25q-.2.8-1 1.4-.75.55-1.6.55-.85-.05-1.6-.6T46.2 14.1q-.3-.85-.2-1.95.15-2.45 1.6-4.35 1.45-2 3.75-2.75l3.7-.4 1.9.35q.8.3 1.8.95l1.5 1.3q1.6 1.85 1.45 4.25-.1 1.8-1.15 3.15l.35.1q2.6 1 4.35 4.1 1.35 2.3 1.65 4.9.35 2.65-.45 5.1-.85 2.5-2.8 4.25-2.05 1.85-4.55 2.2-1.6.25-3.1 0-3.25-.55-4.95-2.25-.9-.95-1.55-2.45-1.2-2.7-.15-4.6.85-1.5 2.5-1.65 1.75-.1 2.65 1.4.4.7.3 1.5-.1.85-.6 1.4.6 1.2 2 1.7l2.75-.05q1.25-.45 2.15-1.6.8-1.15 1.05-2.55.35-2.7-1.2-5.25-.85-1.6-2.3-2.6l-1.9-.95q-.8-.3-.9-.75-.1-.35.2-.85l.6-.65q1.2-1.2 1.5-2.8zm-16.35 4.6.8.15q1.25.35 1.35 1.65l-.25 1.1-.85.75-1.7.2-2.05-.05-1.45.15q-1.05-.2-1.45-1.1-.4-.85 0-1.7t1.3-1.05l.8-.1zm0 4.85q1-.15 1.7.55v.1q.65.7.4 1.6-.15.95-1.05 1.3l-.45.15-3.05.1-.6-.1h-.65q-.65-.05-1.15-.55-.4-.5-.4-1.15t.5-1.25l.35-.3 1.7-.3 2.05-.05zm-7.75 11.4q0 1.5-.45 2.25-.4.8-1.4 1.1-.95.25-1.7-.25-1.15-.75-1.05-3.3V14.65L28.4 14l-.65-.8-.65-1.05-.15-1.2q.05-.35.45-.95l.5-.85 1.95-2.55.5-.5.1-.2q.65-.65 1.4-.45.85.3.95 1.95l.25 2.7q1.25 14.3 1 22.1m-10.6-13.8.15.85.7-.15q.5 0 .9.35l.55.8-.1.95-.7.7-.9.25v.2l.1 1.45q-.35 1-1.35 1.1-1.05.1-1.5-.85l-.3-1.2-.7.1-.55-.1q-.7-.2-1-.5l-.2-.65-.05-.25q.05-.6.7-1.05l.45-.3.65-.25h.2l-.05-.65.05-.75q.35-1.1 1.5-1.1.5-.05.9.3zM14.7 34.75l-1.55.85q-1.05.1-1.7-.5-.95-.9-1.05-2.75l.1-3.5q.4-7.1.4-13.65l-.35-.15-.9-.6L8.5 13.2q-.5-.85-.3-1.65l.3-.65.55-1q1.3-2.35 2-3.2l.6-.6q.7-1 1.75-.85.9.25 1.25 1.2l.3 1.8q.55 10.05.25 19.5v3.6l.05 1.8q-.1 1-.55 1.6"/></g></svg>