<svg xmlns="http://www.w3.org/2000/svg" xmlns:ffdec="https://www.free-decompiler.com/flash" ffdec:objectType="shape" width="71.75" height="40.85"><g fill-rule="evenodd"><path fill="#999" d="M59.35 10.8q-.1 1.95-.7 2.9l-.85.85 1.9 7.65.1.95-.05.55-.45.35-.55-.1-.35-.75-.6-1.55-1.4-5.15-.05-.2-.5 5.6-.45 2.2-.3 1q-.1.6-.45.6-.3 0-.4-.4l.05-.65-.15-.95.1-1.55v-.55L54 20.15l-.5-2.6-.2-2.6-.65-.9q-.4-.7-.65-1.75-.5-1.65-.65-2.9l-2.75.25-1.05-.1-1-.3-.75.1-1.85-.25-.6-.2-1.25-.15q-.15-.15.1-.3l.35-.05.55-.3q.35-.2.8-.3l1.05-.35 1.95-.5 2.25-.05 1.45.05.7.1.05-.35.05-.15-.55-.5L50.2 5l-.75-1.5q-.35-.55-.4-1.15l-.1-.4-.15-.4-.4-.75-.3-.8h2.85l.6.75.4.5L53.1 3l.1-.85.2-.6.35-1.55H56l.15.45.4 2.7.25-.3 1.05-1.3L59 0h1.95L59.7 2.5q-.7 1.3-1.25 3l-.05.15.75-.4 4.15-1.7 2.55-.8q1.85-.6 4.6-1.95l.6-.15q.45 0 .45.35l-.4.5-8.3 5-3.45 2.15-.05.05zm6.9 12.45.05-.2.35-.05.25.2.8.6.35.7.2 1.15-.25.75-.3.5q-.3.35-.8.35l-.8-.2-.45-.6q-.05-.35.2-.85l.4-.9.05-.85zm-15.75-8.9-.95 2.15-1.3 3.1-.5 1.05-.3.4-.45.1q-.3-.05-.4-.3-.15-.2-.05-.8l.7-1.95 1-2.3.7-1.45.55-1.5.3-.85q.15-.45.6-.6l.55-.05q.5.2.6.5.2.45-.2 1.05-.5.55-.65.9zm-40.1 7.3L8.45 20l-.2-.25-.35-.15-1-.9-.6-.45-.55-.55-.2-.3-.3-.15q-.8-.35-.7-1.2t.9-1.05q.8-.25 1.35.4l.45.85.55.75.55.55L10 19.7l.8.9.5.8q.2.4-.2.6-.25 0-.7-.35m-7.05 3.9q-.5-.4-.4-1t.65-.85l1.4.05 1.25.5 2.25 1.3.15.25-.15.15-.8.2-3.3-.2q-.7-.1-1.05-.4m9.65 1-1-.8q-.35 0-.55-.2l-.3-.35-.4-.2-.3-.3.1-.3.35-.1 1.3.25.7.05q.1 0 .4.15l1.25.35 2.15.65-1.3-1.5-.55-1.05-.4-.55-.55-1.2-.1-.4-.1-.25.1-.25.25.05.9.6.55.45.5.45 1.15.9 1 .75 1.05 1 .35.55h.15q.7.15 1.9.95 2.2 1.65 2.9 3.45.4.95.6 3.05l.15.85.3.75q.15.5-.1 1.1l-.05.25.05.25.3.45.35.85.1.6.15.5.75 1.45.4.7.1.35h-1.65l-.1-.1-1.75-1.9-.65-.95-.2.15-.55.7-.55.6-.85 1.25-.1.25h-.9l.15-.45.15-.4.4-.85v-.4l.15-.8v-.35l-.55.3-.8.75-.85.7-.3.3-.35.15-.5.35-.75.25-.55.45h-.9l.05-.25q.05-.1.25-.2l.35-.3.4-.55.2-.35.3-.25 1.2-1.35.35-.3.25-.25 1.15-.55.95-.75.45-.5.75-1.6q.7-2.25-.75-4.25-.85-1.2-2.1-1.9l-1.55-.6h-.15l-.3-.1-.4-.05-2.7-.2zm1.2 11.1L11.05 39l-.15.1-.35-.1-.1-.4.5-.3.45-.4.35-.3h.3z"/><path d="m18.95 37.05-2.1.5-2.65.1-2.15-.05h-.3L1.3 37 0 36.85V29.1l.7-.25 5.4-1.4 3-.65 3.9-.25h1.3l2.7.2.4.05.3.1h.15l1.55.6q1.25.7 2.1 1.9 1.45 2 .75 4.25l-.75 1.6-.45.5-.95.75zm-1.15-6.4q.85.1 1.2-.6l.2-.75-.4-.65q-.5-.5-1.05-.3l-.3.1q-.75.35-.65 1.25.2.85 1 .95m-4.2 1.1q-.4 1.1.3 2.05.4.6 1.15.8l1.45-.05q.7-.25 1.05-.9.4-.7.3-1.4l-.65-1.3q-.55-.5-1.25-.6-.75-.1-1.4.3-.7.4-.95 1.1m7.6.4q.05-.45-.25-.85v-.05l-.75-.45q-.95-.15-1.4.65t.15 1.5q.6.65 1.5.3l.4-.3.35-.7zm-2.9 4.2q.65 0 1-.55.35-.65-.05-1.2-.45-.65-1.15-.4l-.3.15h-.05l-.35.4q-.2.4-.05.9.2.45.7.6l.1.05z"/><path fill="#fff" d="M30.8 22.45q.95.2 1.1 1.05.2.95-.65 1.35L30 25.3l-4.6.8-.95.05q-.4-.15-.5-.65-.1-.4.25-.75l.5-.3 4.9-1.8zm-17.2 9.3q.25-.7.95-1.1.65-.4 1.4-.3.7.1 1.25.6l.65 1.3q.1.7-.3 1.4-.35.65-1.05.9l-1.45.05q-.75-.2-1.15-.8-.7-.95-.3-2.05m4.2-1.1q-.8-.1-1-.95-.1-.9.65-1.25l.3-.1q.55-.2 1.05.3l.4.65-.2.75q-.35.7-1.2.6m3.4 1.5v.1l-.35.7-.4.3q-.9.35-1.5-.3-.6-.7-.15-1.5t1.4-.65l.75.45v.05q.3.4.25.85m-2.9 4.2-.15-.05-.1-.05q-.5-.15-.7-.6-.15-.5.05-.9l.35-.4h.05q.45 0 .75.45.4.55.05 1.2z"/><path d="M70.95 9.25q.1 1.3-.4 2.4l.7.95.2 1.3-.25 1.3-.35.55q-.7.8-1.25.95l-.8.1-1.05-.15-.7-.45-.45-.5q-.45-.6-.4-1.3l-.85-.05.1.3q1.05 2.65-.15 5.2l-1.25 1.45-1.3.4-1.25-.05-.05.3-.5 1.5-.4.85-.95.85-2.05.6-.7.05q-.5.1-.7.95l-.1 1.25-.15.3-.3.05-.2-.35-.15-1.15-.05-.95q.1-.4.55-1.2l.6-.7 1.8-.7q.65-.2.7-.6v-.5l-.2-1.25q0-.4.15-.8-.75-.8-1.25-1.95-.65-1.55-.5-3.05.15-1 .65-2.2.75-1.85 1.6-2.9 1.15-1.3 2.6-1.65.15-1.05.7-1.85l1.05-1.1.95-.6 2-.3.65.05.55-.55q.45-.3 1.2-.4.95-.05 1.75.55.8.55.95 1.45.15.95-.45 1.9l-.45.6zM67.35 13q.95-.4 1.05-1.5 0-1-.85-1.6-.9-.5-1.85 0-.65.4-.85 1.25-.15.75.45 1.45.45.45.9.5zM63.6 7.85l-.55.2-.2.65.05.4.3.4.45.15q.6.1.95-.5.25-.5-.05-.9-.2-.45-.8-.45zm2.65.4.35-.35.2-.95-.05-.55.15-.55-.05-.15-.3-.15-.2.15-.15.4-.3.35-.05.5-.15-.85-.25-.2v.05h-.1l-.15.1v.6l.05.2.1.15-.1.55.15.55q.15.25.5.25l.25-.05zM44.5 11.1q.8 1 1.9 3.45 2 5.1 1.7 8.55l-.15 1.25.95-2q.35-1.15.25-3.15-.05-2-.8-4.35-1.45-3.55-1.7-5.4-.2-1.55.25-2.9.55-1.45 1.7-2.15 1.05-.6 2.35-.4t2.25 1q1.85 1.5 2.35 4.25.55 2.45 0 6.6-.5 3.05-1.3 5.35-2.35 6.7-9.8 12.8l-.9.7.75 3.05.35 3.1h-17.6l1.35-2.95q.2-.5-.85-1.45l-4.8-1.6q.75-1.9.2-3.7-.55-1.85-1.65-3l-1.75-1.6-.85-.45-.45-2.8-.95-.85q-1.15-1.3-2.35-4.6l-.3-.85-.25-.9q-.05-1.05.9-1.75l1.25-.55 1.35-.45 3.15-.3 1-.95q5.35-4.45 7.9-4.9l3.7-.5 1.75-2.1q.7-.8 1.35-1.25.8-.55 1.55-.4.6.15 1.55 1.2L42.05 7q1.35 1.8 2.3 3.95zm-14 21.95 1-.4-.5-.85-.2-.45-.4-.4-.25-.4-.4-.55-.15-.35-.3-.3-.1-.25-.4-.5-.2-.55-.15-.35-.5.75q-.85 1.6-.15 3.15l1.15 1.2zm.65-7.55q-1 .6-1.7 1.2l.25.5.2.5.1.05.4 1.05.5.65 1 1.6.15.45.3.55L34.7 30l-1.05-1.25-.8-1.55-.55-.8-.1-.3-.1-.05-.55-.75zm4.8 3.25 2.1-1.65-.25-.9-.4-2.8v-.15l-2.15.45v-.05l-.3-.8q-.4-.4-.75-.4t-.55.25l-.25.55.05.35.15.6.05.05-.85.4 2.5 4.75zM25.2 21.4l-1.45.8-.75.2-.3.25q-.3.2-.3.35-.1.35.25.45l.5.1.95-.25 1.6-.2 1.15-.15-.5.7-.8 1.15-.3.5-.1.3-.25.3q-.15.35 0 .65.1.3.5.3l.45-.15.45-.35.95-1.05.65-.6.45-.45.45-.3.85-.75 1.1-1q.3-.65 0-1.2l-.35-.65q-.3-.4-.85-.4h-.35l-.6.1-1.4.4-.9.4-.55.35zm15.35 1.7-1.65.05-.15.05.05.35q.2 1.8.5 2.6l.05.1.6-.35 1.8-1.3.3-.15.1-.3-.3-.3zm-3.35-3.8-.5-.9q-.25-.5-.05-1.35l.5-1.3.4-.6q.4-.4 1.15-.4L40 15l.5.15.25.35q.3.75-.35 1.55l-.45.3-.65.1q-.4 0-.45-.25l.1-.2.25-.1h.55q.45-.2.35-.65-.1-.4-.55-.5l-.75-.05q-1 .3-1.3 1.05-.25.6.15 1.5l.45.65 1.35.35q1.25.25 2.05-.65.75-.75.85-2.05l-.1-1.35-.25-.65-.55-.7-.9-.45-2.45-.5q-1.7.1-2.6 1.55l-.55 1.2-.4 1.25-.1 1q0 .65.15.9l.95 1.65q.65.85 2.5 1.25l1.25.1 1.05-.3.75-.25q.4-.25.6-1l.05-.3q-.05-.15-.45-.15l-.95.25-.65.15-.7-.1-1.4-.55zM48.55 7.75q-.35-.15-.75 0l-.55.5q-.35.75.25 1.25l1.2.05.3-.3.2-.45q.05-.45-.3-.8zm2.4 2.2q-.55-.45-1.15-.45-.65.05-1.15.65-.4.5-.5 1.2-.15.4-.05.95l.5.9 1 .85 1.25.1q.6-.2.85-.95l.2-1.25-.25-1.15zm-1.2-3.65q-.85.65-.45 1.55l.6.6.85.15q.45-.1.7-.5l.25-.85-.3-.75q-.35-.35-.8-.4l-.45.05zm2.3 2.65q-.4.4-.3.85.1.5.55.75l.25.15h.6l.6-.45.15-.8-.15-.4-.85-.45q-.5 0-.85.35"/><path fill="#fff" d="m66.25 8.25-.1.05-.25.05q-.35 0-.5-.25l-.15-.55.1-.55-.1-.15-.05-.2v-.6l.15-.1h.1V5.9l.25.2.15.85.05-.5.3-.35.15-.4.2-.15.3.15.05.15-.15.55.05.55-.2.95zm-2.65-.4.15-.05q.6 0 .8.45.3.4.05.9-.35.6-.95.5l-.45-.15-.3-.4-.05-.4.2-.65zM67.35 13l-1.15.1q-.45-.05-.9-.5-.6-.7-.45-1.45.2-.85.85-1.25.95-.5 1.85 0 .85.6.85 1.6-.1 1.1-1.05 1.5m-15.3-4.05q.35-.35.85-.35l.85.45.15.4-.15.8-.6.45h-.6l-.25-.15q-.45-.25-.55-.75-.1-.45.3-.85m-2.3-2.65.4-.15.45-.05q.45.05.8.4l.3.75-.25.85q-.25.4-.7.5l-.85-.15-.6-.6q-.4-.9.45-1.55m1.2 3.65.7.85.25 1.15-.2 1.25q-.25.75-.85.95l-1.25-.1-1-.85-.5-.9q-.1-.55.05-.95.1-.7.5-1.2.5-.6 1.15-.65.6 0 1.15.45m-2.4-2.2.35.25q.35.35.3.8l-.2.45-.3.3-1.2-.05q-.6-.5-.25-1.25l.55-.5q.4-.15.75 0M37.2 19.3l.4.25 1.4.55.7.1.65-.15.95-.25q.4 0 .45.15l-.05.3q-.2.75-.6 1l-.75.25-1.05.3-1.25-.1q-1.85-.4-2.5-1.25l-.95-1.65q-.15-.25-.15-.9l.1-1 .4-1.25.55-1.2q.9-1.45 2.6-1.55l2.45.5.9.45.55.7.25.65.1 1.35q-.1 1.3-.85 2.05-.8.9-2.05.65l-1.35-.35-.45-.65q-.4-.9-.15-1.5.3-.75 1.3-1.05l.75.05q.45.1.55.5.1.45-.35.65h-.55l-.25.1-.1.2q.05.25.45.25l.65-.1.45-.3q.65-.8.35-1.55l-.25-.35L40 15l-1.3-.25q-.75 0-1.15.4l-.4.6-.5 1.3q-.2.85.05 1.35zm3.35 3.8 1.3.75.3.3-.1.3-.3.15-1.8 1.3-.6.35-.05-.1q-.3-.8-.5-2.6l-.05-.35.15-.05zM25.2 21.4l.55-.2.55-.35.9-.4 1.4-.4.6-.1h.35q.55 0 .85.4l.35.65q.3.55 0 1.2l-1.1 1-.85.75-.45.3-.45.45-.65.6-.95 1.05-.45.35-.45.15q-.4 0-.5-.3-.15-.3 0-.65l.25-.3.1-.3.3-.5.8-1.15.5-.7-1.15.15-1.6.2-.95.25-.5-.1q-.35-.1-.25-.45 0-.15.3-.35l.3-.25.75-.2zm10.75 7.35-.65.65-2.5-4.75.85-.4-.05-.05-.15-.6-.05-.35.25-.55q.2-.25.55-.25t.75.4l.3.8v.05l2.15-.45v.15l.4 2.8.25.9zm-4.8-3.25.4-.2.55.75.1.05.1.3.55.8.8 1.55L34.7 30l-2.35 2.05-.3-.55-.15-.45-1-1.6-.5-.65-.4-1.05-.1-.05-.2-.5-.25-.5q.7-.6 1.7-1.2m-.65 7.55-1.55-.25-1.15-1.2q-.7-1.55.15-3.15l.5-.75.15.35.2.55.4.5.1.25.3.3.15.35.4.55.25.4.4.4.2.45.5.85z"/></g></svg>