<svg xmlns="http://www.w3.org/2000/svg" xmlns:ffdec="https://www.free-decompiler.com/flash" ffdec:objectType="shape" width="75.7" height="42.1"><path fill="#999" fill-rule="evenodd" d="M47.05.75h28.6v41.2h-30.8l.4-.1q1.55-.5 2.05-1.05l.75-1.25.4-.55.3-.85.15-.95-.3-1.3.75-.35q1.5-.75 2.15-1.65.7-.9 1.05-2.5.45-1.65.35-2.7-.15-1.1-.8-2.15-.7-1.3-1.55-2l1.1-1.75q.9-1.9.95-4l-.1-1.95-.85-5.5q-.35-1.3-.95-2.1l-.75-.75-.1-.35L49 3.8q-.6-2.05-1.95-3.05m-5.25 41.2h-3.4l1.2-.1 1.2-.15zm-9.15 0H.05V.75H42.2l-.4.25q-1.35.95-2.45 2.85l-2.3-.1-.6.15q-.95-1.15-1.9-1.75-1.35-.85-2.65-.85l-1.3.2q-1.2.25-1.95.7-2.45 1.35-3.35 4.9-.6 2.25-.35 4.7.1.8.3 1.2l-.35.4q-2.2 2.65-1.95 6.1.2 2.7 1.85 4.7l-.8 1.35-.1.45-2.6 1.15q-2.4 1.25-3.75 2.9-1.85 2.3-2 5.25-.2 3.4 2 5.05 1.25.95 4.25 1.25 2.75.3 4.1.05 1.25-.3 2.1-.85 1.25.75 3.35 1zm4.4-4.9-1.7-.45 3.15.15zm-.3-4.7-.2.2v.1l-.2.2-.05-.05.25-.45.2-.15.15-.05v.05l-.1.05zm-5.1 4.75-.4-.2 1.25.1zm-18.1 2.35-.05.35.1.65.2.5.45.2.65-.15.3-.6-.15-.55-.4-.95-.3-.45q-.25-.2-.65 0-.25.2-.25.65zm-1.15-2.6.45.6.75-.1.2-.5-.05-1.45.05-.15q.1-.45-.5-.55l-.25.1-.2.35-.35.8-.1.45zm2.25-4.5.4-.05.3-.35v-.3l.3-.9q0-.25-.4-.35l-.85.75-.2.55v.15zm2.95-3.7 1.15-1 .25-.35q.1-.45-.45-.55l-.8.2q-.6.25-1 .65-.3.2-.35.55 0 .35.4.6l.4.1zm21.3-3.05.4-.3-.2.8-.55-.15-.15-.1zm-6-.55q.65-1.65.4-2.8l-.2-.65 2.45-2.55-.3 2.4v.15q-.45 1.55-.5 3.25 0 1.5.35 2.35.5 1.25 1.65 2-.7.25-1.35.65-2 1.15-2.3 3.35l-.15.5-.45.2q.15-.95-.4-1.65-.5-.7-1.45-.9-.95-.15-1.8.25 2.55-2.75 4.05-6.55m-11.45-1.4.2.65-1.1.25-.4.25q-.25.3-.15.65l.15.45.7.15.65-.35.7-.3.7-.45q.2-.35-.05-.55l-.05-.8-.5-1.8-.2-.5-.5-.35q-.45 0-.55.5-.15.3-.05.75l.3 1.05zm-.75-5.7-.1.7v.85q.25.45.7.35.45 0 .55-.5V19l-.05-.5-.1-.4.1-.25-.15-.55q.3-.35 0-.65-.25.1-.55.5l-.3.5zm3-4.4q.45-.55.25-.95l.05-.35-.1-.35-.15-.7q-.15-.2-.45-.3l-.1.05-.45.25-.1.5v.4l.25.5-.9 2-.1.45.3.4q.2.05.5-.25l.2-.5zm-.85-5.85v.55l-.1.5.15.85q0 .35.25.45l.45-.25.15-.55.15-.4.05-.75-.05-.65q-.25-.35-.5-.3-.45.1-.55.55m2.3-2.8.1-.4-.05-.7q-.15-.35-.55-.35l-.1.05q-.4 0-.5.4v.35l-.15.2q-.2.35 0 .85l.15.35q.1.25.3.15l.2-.15zm2.45-3.25q0-.45-.4-.55l-.75.15q-.65.4-.95 1.15l.05.55.55.05 1.1-.65zm9.15 7.95 2.6-.55-2.15 4.55q-4 2.9-6.2 6.05v.05l-1-1.65q1.35-2.3 1.6-4.95.2-2.25.85-2.95.65-.65 1.9-.85zm.35-6.5.4.1.6-.25q.25-.35 0-.7-.15-.35-.6-.45l-.45-.1-.5-.3-.1.05q-.45.1-.35.55l.65.6zm2.65-.35.3-.25q.3-.2.2-.6l-.45-.5-.05.05q-.35.1-.7.4l-.3.4-.05.3.1.45.35.2.4-.15zm10.6 37.9.15-.05.15.1h.15l.1-.15.1-.1v-.8l-.05-.25-.1-.1-.2-.25-.75-.05-.25.35-.1.75v.2l.1.2q0 .2.15.2l.3.05zm.5-4.95-.05.3-.15.15-.35.7.05.65.1.7.55.15.2-.2.15-1 .15-.4.15-.1.6-.5.2-.25.2-.45.4-.35.15-.5-.2-.1-.75.45-.4.1-.5.35zm3.75-3.05.05-.9-.1-.55q-.15-.3-.45-.25-.4 0-.5.35l-.05.65-.25 1.3q0 .45.35.6.45.15.75-.35zm-.75-5.15q-.2.2-.1.6l.15.65-.05.35q-.1.35.05.6l.4.35.35-.05.3-.2.1-.35-.2-1-.3-.7-.2-.3zm-1.9-2.95.4.4.55.95.2.25q.25.25.45 0l.25-.6-.3-1.2-.15-.3-.05-.05q.25-.6.1-1.15l-.35-.4-.4.25-.45.5-.2.6zm1.8-6.35-.2.15-.1.25-.1.7v.25l-.1.25-.1.4.6.4.35-.05.25-.25.1-.35-.15-1.3-.05-.2-.35-.3zm-.35-4.4-.15.4-.15.85.2 1.1.15.35.7.1q.6-.7.3-1.45l-.3-.7-.05-.4-.4-.4zM50.8 4l.3-.6-.25-1.1-.2-.4q-.15-.15-.4-.15l-.15.05q-.5 0-.4.45l.2.95q0 .45.15.65.25.45.75.15m2.75 7.8-.1-.95-.2-.45-.55-.5q-.2.05-.4.25l-.1.45.1.25.15.75.05.75q.1.45.45.45l.55-.35zm-2.8-4.15.2.05.05.15.15.3.15.15.1.35.25.3.45.1.35-.15.1-.2.05-.35-.1-.3-.3-.6-.55-.4-.1-.75-.15-.55-.1-.25q-.05-.15-.3-.15-.2 0-.3.2v.25l-.2.65-.05.5q0 .5.3.7"/><path fill="#fff" fill-rule="evenodd" d="M42.2.75q.8-.55 1.85-.7l2.35.3.65.4q1.35 1 1.95 3.05l.85 4.35.1.35.75.75q.6.8.95 2.1l.85 5.5.1 1.95q-.05 2.1-.95 4l-1.1 1.75q.85.7 1.55 2 .65 1.05.8 2.15.1 1.05-.35 2.7-.35 1.6-1.05 2.5-.65.9-2.15 1.65l-.75.35.3 1.3-.15.95-.3.85-.4.55-.75 1.25q-.5.55-2.05 1.05l-.4.1-1.75.1-1.05-.05-.25-.05-1-.25-1.2.15-1.2.1h-5.75l-1.3-.15q-2.1-.25-3.35-1-.85.55-2.1.85-1.35.25-4.1-.05-3-.3-4.25-1.25-2.2-1.65-2-5.05.15-2.95 2-5.25 1.35-1.65 3.75-2.9L23.9 26l.1-.45.8-1.35q-1.65-2-1.85-4.7-.25-3.45 1.95-6.1l.35-.4q-.2-.4-.3-1.2-.25-2.45.35-4.7.9-3.55 3.35-4.9.75-.45 1.95-.7l1.3-.2q1.3 0 2.65.85.95.6 1.9 1.75l.6-.15 2.3.1q1.1-1.9 2.45-2.85zm8.55 6.9q-.3-.2-.3-.7l.05-.5.2-.65v-.25q.1-.2.3-.2.25 0 .3.15l.1.25.15.55.1.75.55.4.3.6.1.3-.05.35-.1.2-.35.15-.45-.1-.25-.3-.1-.35-.15-.15-.15-.3-.05-.15zm2.8 4.15-.05.65-.55.35q-.35 0-.45-.45l-.05-.75-.15-.75-.1-.25.1-.45q.2-.2.4-.25l.55.5.2.45zM50.8 4q-.5.3-.75-.15-.15-.2-.15-.65l-.2-.95q-.1-.45.4-.45l.15-.05q.25 0 .4.15l.2.4.25 1.1zm2.6 9.8.3-.15.4.4.05.4.3.7q.3.75-.3 1.45l-.7-.1-.15-.35-.2-1.1.15-.85zm.35 4.4.15-.05.35.3.05.2.15 1.3-.1.35-.25.25-.35.05-.6-.4.1-.4.1-.25v-.25l.1-.7.1-.25zm-1.8 6.35.05-.75.2-.6.45-.5.4-.25.35.4q.15.55-.1 1.15l.05.05.15.3.3 1.2-.25.6q-.2.25-.45 0l-.2-.25-.55-.95zm1.9 2.95.5-.05.2.3.3.7.2 1-.1.35-.3.2-.35.05-.4-.35q-.15-.25-.05-.6l.05-.35-.15-.65q-.1-.4.1-.6m.75 5.15-.2.85q-.3.5-.75.35-.35-.15-.35-.6l.25-1.3.05-.65q.1-.35.5-.35.3-.05.45.25l.1.55zm-3.75 3.05.5-.3.5-.35.4-.1.75-.45.2.1-.15.5-.4.35-.2.45-.2.25-.6.5-.15.1-.15.4-.15 1-.2.2-.55-.15-.1-.7-.05-.65.35-.7.15-.15zm-.5 4.95-.25.1-.3-.05q-.15 0-.15-.2l-.1-.2v-.2l.1-.75.25-.35.75.05.2.25.1.1.05.25v.8l-.1.1-.1.15h-.15l-.15-.1zm-10.6-37.9-.2.3-.4.15-.35-.2-.1-.45.05-.3.3-.4q.35-.3.7-.4l.05-.05.45.5q.1.4-.2.6zm-2.65.35-.35-.5-.65-.6q-.1-.45.35-.55l.1-.05.5.3.45.1q.45.1.6.45.25.35 0 .7l-.6.25zm-.35 6.5-2.4-.3q-1.25.2-1.9.85-.65.7-.85 2.95-.25 2.65-1.6 4.95l1 1.65v-.05q2.2-3.15 6.2-6.05l2.15-4.55zM27.6 1.65l-.4.7-1.1.65-.55-.05-.05-.55q.3-.75.95-1.15l.75-.15q.4.1.4.55M25.15 4.9l-.6.75-.2.15q-.2.1-.3-.15l-.15-.35q-.2-.5 0-.85l.15-.2V3.9q.1-.4.5-.4l.1-.05q.4 0 .55.35l.05.7zm-2.3 2.8q.1-.45.55-.55.25-.05.5.3l.05.65-.05.75-.15.4-.15.55-.45.25q-.25-.1-.25-.45l-.15-.85.1-.5zm.85 5.85-.8 1.15-.2.5q-.3.3-.5.25l-.3-.4.1-.45.9-2-.25-.5v-.4l.1-.5.45-.25.1-.05q.3.1.45.3l.15.7.1.35-.05.35q.2.4-.25.95m-3 4.4.1-.3.3-.5q.3-.4.55-.5.3.3 0 .65l.15.55-.1.25.1.4.05.5v.35q-.1.5-.55.5-.45.1-.7-.35v-.85zm.75 5.7-.15-.4-.3-1.05q-.1-.45.05-.75.1-.5.55-.5l.5.35.2.5.5 1.8.05.8q.25.2.05.55l-.7.45-.7.3-.65.35-.7-.15-.15-.45q-.1-.35.15-.65l.4-.25 1.1-.25zm11.45 1.4q-1.5 3.8-4.05 6.55.85-.4 1.8-.25.95.2 1.45.9.55.7.4 1.65l.45-.2.15-.5q.3-2.2 2.3-3.35.65-.4 1.35-.65-1.15-.75-1.65-2-.35-.85-.35-2.35.05-1.7.5-3.25v-.15l.3-2.4-2.45 2.55.2.65q.25 1.15-.4 2.8m6 .55-.5.25.15.1.55.15.2-.8zm-21.3 3.05-.4.2-.4-.1q-.4-.25-.4-.6.05-.35.35-.55.4-.4 1-.65l.8-.2q.55.1.45.55l-.25.35zm-2.95 3.7-.45-.5v-.15l.2-.55.85-.75q.4.1.4.35l-.3.9v.3l-.3.35zm-2.25 4.5v-.45l.1-.45.35-.8.2-.35.25-.1q.6.1.5.55l-.05.15.05 1.45-.2.5-.75.1zm1.15 2.6-.1-.35q0-.45.25-.65.4-.2.65 0l.3.45.4.95.15.55-.3.6-.65.15-.45-.2-.2-.5-.1-.65zm18.1-2.35.85-.1-1.25-.1zm5.1-4.75.05-.1.1-.05v-.05l-.15.05-.2.15-.25.45.05.05.2-.2v-.1zm.3 4.7 1.45-.3-3.15-.15z"/><path ffdec:has-small-stroke="true" ffdec:original-stroke-width=".1" fill="none" stroke="#fff" stroke-linecap="round" stroke-linejoin="round" d="M47.05.75h28.6v41.2h-30.8m-3.05 0H.05V.75H42.2"/><path fill-rule="evenodd" d="M47.6 14.9q.05 3-1.15 5.15-1 1.9-2.85 3.1l.1 1.25.1.7.6.35q1.5.6 2.05 2.2l.3 1.1.1 1.55q-.1 1.5-2.1 3.3.4.55.25 1.3-.05.75-.6 1.15-.7.55-2.4.5l-.7-.05-.15.2-1.05 1.25-1.55.15-.9-.15q-.9.75-2.45.4-1.2-.35-1.6-1h-.15l-1.1.3-1.3.15-1.55-.35-.7-.65-.4-.8q-.1-.7.45-1.35l-1.1-1.4-.35-.7-.15-.4q-1.9.6-2.95 1.2l-1.8 1.3.75-.15 1.45-.05 1.45.4q.7.45.9 1.1.35 1.2-.6 2.05-.75.8-2 .9l-2.3-.25q-1.1-.05-2.35-.7l-.9-.7q-.3-.45-.3-1.3 0-1.25.15-1.65l.65-1.1q1.2-1.55 3.4-2.65 1.35-.65 4.15-1.5l.45-.1.1-.05.4-.7q.75-1.05 1.75-1.6l.9-.75.15-.7.25-.9.45-1-1.2-.9q-1.3-1.15-2-2.75-.7-1.65-.5-3.3.05-.95.6-2.35.5-1.3.9-1.85l.4-.55-.5-.85q-.15-.3-.15-1.15 0-1.05.15-1.55l.8-1.75.35-.9.45-.95q.35-.5 1.05-.6.6-.1 1.15.35l.7.85.85 1.6.65.85 5.8-.15.3-.3 2.05-2.25q.65-1 1.15-1.2.4-.2.85 0l.65.5q.25.3.3 1.05l.45 1.5.35 1.5.05 1.1.1.7-.05.65.1.6.1.85v.2zm-17.3-.05q-.2.55 0 1.15.2.65.7 1t1.15.3q.6 0 1.1-.4l.6-1q.15-.6-.05-1.15l-.5-.7q-.6-.5-1.25-.45-1.3 0-1.75 1.25m14.15 4.75.45-.6q.1-.5-.45-.6l-.85.15-.65.55q-.5.5-1.3.75l-1 .05-.65-.3-.5-.15-.3-.4-.25-.45q-.35-.45-.9-.2l-.5.4-1.75 1.05q-.9.3-1.85 0-1-.3-1.55-1.05l-.35-.45-.5-.1q-.35.15-.25.6l.4.6.5.55.9.8 1.7.5 1.6-.1q.85-.15 1.35-.75l.35-.2.3.2q.4.5 1.2.75l.95.25.9-.05q1.4-.15 2.4-1.15zm-1.8-4.25q.1 1 1 1.5l1.15.15 1.05-.55q.4-.45.45-1.1T46 14.2l-.95-.75q-.6-.2-1.2 0l-.9.75q-.35.55-.3 1.15"/><path fill="#fff" fill-rule="evenodd" d="M42.65 15.35q-.05-.6.3-1.15l.9-.75q.6-.2 1.2 0l.95.75q.35.5.3 1.15t-.45 1.1L44.8 17l-1.15-.15q-.9-.5-1-1.5m1.8 4.25-.6.65q-1 1-2.4 1.15l-.9.05-.95-.25q-.8-.25-1.2-.75l-.3-.2-.35.2q-.5.6-1.35.75l-1.6.1-1.7-.5-.9-.8-.5-.55-.4-.6q-.1-.45.25-.6l.5.1.35.45q.55.75 1.55 1.05.95.3 1.85 0l1.75-1.05.5-.4q.55-.25.9.2l.25.45.3.4.5.15.65.3 1-.05q.8-.25 1.3-.75l.65-.55.85-.15q.55.1.45.6zM30.3 14.85q.45-1.25 1.75-1.25.65-.05 1.25.45l.5.7q.2.55.05 1.15l-.6 1q-.5.4-1.1.4-.65.05-1.15-.3t-.7-1q-.2-.6 0-1.15"/></svg>