<svg xmlns="http://www.w3.org/2000/svg" xmlns:ffdec="https://www.free-decompiler.com/flash" ffdec:objectType="shape" width="76.45" height="42.95"><g fill-rule="evenodd"><path fill="#999" d="m25.65 5.05-2.15.7-.55.1-.4.2-.75.2-.75.1-.25-.1.15-.2 10.6-5.8 1.1-.25.85.6q.15.6-.15 1.05l-.9.55zM23.1.7l.9.1q.55.2.45.7l-.8.75q-1.95.8-3.5 2.1l-.65.4-.7-.15q-.3-.2-.1-.7l.05-.15.15-1.3v-.9q.1-.6.55-.7l.1.15.25.1.2.3zM11.25.7l.65-.45q.45 0 .65.3l.2.7-.15.55-.05 1.45-.45.45-.45-.25-.4-.65-.2-.7q-.25-.55-.15-.95.1-.3.35-.45M7.7 4.1 5.4 2.5l-.7-.55Q4.4 1.4 4.65.9 4.9.3 5.5.3 6.1.25 7 .95l.4.35.65-.1q.35-.5.9-.5l.55.15.25-.05.25.15v.35l-.05.3-.05.35q-.1 1 .15 1.95l.05.75-.55.45-.75-.05zm5.95 30.8 3.95-7q.75-1.3 1.25-1.65l.1-.05q2.55-4.2 6.2-7.75 5.2-5.05 11.7-7.85l.45-.1q.35 0 .25.3l-.25.25-2.15 1.1-2.3 1.5-1.4 1.3-4.65 4.6q-2.45 2.7-4 5.2l-.65 1.15.45.05.65.25.25-.45.6-.95.8-1.15q1.25-1.75 4.7-5.2l2.15-2.15q.25-.25.45-.15.35.15-.05.55l-1.9 2.35-1.85 2.7-1.25 2.05q-1 1.5-1.4 2.65l-.35.95 1.25.75.25.15q.45-.35 1.35-.65l4.3-.65 3.4-.25.65-1q1.95-2.3 3.75-3.35 2.55-1.4 4.85-.75 1.2.4 2.45 1.4l1.45 1.35.25-.05.15-.05 3.65-.4 1.6.15 1.85.4 1.2.55 1.15.85 2.75-1.9q3.5-2 7.15-1.8 4.05.35 6.65 3l.15.15.15.05.1.1.1.15.05.1.05.1.05.1.05.1.05.1.05.1.05.1v1.35l.05.1v.5l.05.1v2.2l-.05.1v.9l.05.1v1.05l-.05.1v1.25l.05.1v4.45l-.05.1v.1l-.05.1v.1l-.05.1-.1.1-.05.1-.05.1-.15.1-.05.05v.4l-.05.1-.05.1-.05.1-.05.1-.05.1-.1.1-.05.1-.15.1-.1.1-.2.1-.15.1h-.1l-.35.05-1.1.05H65.3l-1.5-.05h-8.65l-7.75-.05h-1.45L44.9 41l-1.1-.05h-1l-.9-.05-3.65-.05-7.35-.05H14l-.4.6-.7 1.25q-.4.4-1.05.3-.6-.05-.9-.5-.35-.45-.25-1 2-.05 3.15-1.85 1-1.75.35-3.8zM27 6.75l.7-.15.75-.3L29.8 6l.95-.1.6.05q.4.25.4.75l-.35.75-.55.35-.45.4-1.5 1.2-.45.5-.65.25-.4-.15-.6-.15-2.2-.7-1.2-.25q-.35-.15-.35-.45-.1-.4.35-.5l.65-.2 1.35-.5 1-.25zM1.35 8.15q0-.35.2-.55l.25-.2-.1-.6q-.55-.25-.55-.85 0-.55.5-.95l1-.5Q2 3.95 1.5 2.9l-.25-.7q-.1-.4.15-.7t.65-.3l.6.35.15.3q.3.75 1.25 1.7L5.5 5.1l1 1.35.3.95q-.1.65-.55.9l-1.6.35-.55.1-.3.15-.55.2-.9.15q-.55 0-.85-.4zm.15 6.15q-.25-.3.05-.7l.6-.35L6.5 11.4l1.3.05q.4.55-.35 1.3l-4.5 4.75q-.55.45-.85.45-.35-.05-.55-.4l-.1-.7.6-.95-.4-.3-.2-.5.5-.8.25-.15zm3.3 17-1.05 1.35-1.35 1.5-.15.1-.2.25-.45.4q-.2.05-.4-.25l-.1-.5.55-1.6L2.7 31.1q-1.05.5-2-.3-.9-.75-.6-1.9l.3-.85.1-1.8.2-1.65q.2-.7.1-1.05L.6 23q-.15-.55.3-1.1l.6-.45-.1-.7q.1-.55 1.2-1l2.15-.4 1.7.25-.7 2.75v1.35l-.6 3.9q-.4 2.4-.35 3.55z"/><path fill="#fff" d="M10.7 41.45h-.1l-1.3-.3q-.65-.45-.65-1.1 0-.8.75-1.15l1.3-.3 1.05-.85.25-1.35-.1-.8q-.05-.45.15-.75t.6-.3l.7.1.3.25.55.9q.65 2.05-.35 3.8-1.15 1.8-3.15 1.85M6.45 19.6l.2-.9.25-.55q.15-.15.3-.15v-.05q.2-.3.5-.2l.35.6.15 1.3-.05 1.45-.15.75v.75l-.15 1.05-.05 2.05-.45 3.9L7 31.2l-.3.55-.15.3q-.35.4-.85.35-.5 0-.75-.45-.15-.2-.15-.65v-.15q-.05-1.15.35-3.55l.6-3.9v-1.35z"/><path d="m52.05 10.65.2-.3v-.1l.35-.25.1-.05 1.05.35.25.15q.55.25.7.55.3.65-.1 1.15-.4.55-1.1.35-.45-.15-1.15-1.15zm5.15 4.8q-.7.1-1-.4l-.15-.45-.15-.2-.3-.6-.05-.25v-.25l.05-.15q.25-.3.7-.4.45 0 .7.25l.4.5.2.4.25.45q.15.5-.15.8zM42.9 6.6h.05l1 .15q.65.35.55 1-.1.7-.65.95l-.9.15-.95-.1-.65-.15-.85-.2q-.5-.35-.45-.85 0-.6.6-.75l.75-.05.7-.2zm7.3 2.25q.1.6-.45.95l-1.1.05h-.05l-.4-.05q-.9-.2-1.2-.5-.55-.55-.25-1.2.15-.2.45-.35h.95l.55-.05.25.05.5.2q.65.25.75.9M37.15 8l.2.75-.4.75q-.45.4-1.45.7l-1.65.5-.9-.2q-.4-.4-.2-1l.7-.85Q35 7.2 36.5 7.6zM27.1 15.15l-1.25.4-.6-.5-.05-.85q.15-.55.95-1.35l1-1q1.1-1.1 1.9-1.05.6 0 1.05.6.35.55.15 1.15l-1.15 1.2zm-7.75 5.9q-.35-.25-.35-.7-.1-.6.65-1.55l1.3-1.45q1.15-1.15 2-.95.85.15.95 1.05.05.8-.75 1.5l-.05.05-.25.25-1.6 1.65-.75.5q-.35.1-.7-.2zm-2.7-9.1q.7-2.45-.15-3.55-.5-.6-1.3-.7t-1.4.35q-.75.6-1.15 2.35-1.05 4.45-2.05 11.4L8.9 33.3l-.15.6.7.15.3.05h.05q3.85-11.2 6.85-22.15m3.25-3.9q.45 1.35.15 3.15l-.85 3.15-3.15 9.45q-1.25 3.6-2.85 6.9l-.85 3.45-.1.45.15.15q.55.55.75 1.95.1 1.45-.5 2.3-.55.95-1.9 1.2l-2.3-.1-1.65-.4q-1.5-.4-2.1-1l-.7-1q-.35-.6-.4-1.1-.05-.65.35-1.65l.5-.85q.35-.4.9-.65l.15-.05.05-.5.8-5.5Q8.2 15.45 9.1 11.1q.7-3.5 2-5 .95-1 2.3-1.45l2.65-.1q1.35.3 2.4 1.25t1.45 2.25M7.8 35.5h-.3l-.15.05H7.2q-.6.15-.8.9v.5q.25.55 1 .55l1-.05.65.15.85.15.7-.2q.45-.35.25-.95l-.2-.5-.95-.25-.5-.05-.05-.1z"/><path fill="#999" d="M60 16.45q.2-.35.55-.55v-.2q0-.35.25-.7.3-.45.9-.55l1.05.15.6.9q.15.5-.1.95v.1l.05-.05.3-.05.1-.05.8.35.35.8-.25.8q-.3.4-.7.45l-.75-.1-.55.45-.15.1L62 20.5l-1.2 1-1.75.15-.55.25h-1.35q-1-.1-1.4-.55L55.5 21q-.4-.75-.15-1.25.15-.35.45-.4.45 0 .55.25.2.35-.2.55l.6.4.7-.05q-.45-.65-.45-1.35.1-1.5 1.55-2l1.3-.15zm-43.35-4.5q-3 10.95-6.85 22.15h-.05l-.3-.05-.7-.15.15-.6 1.7-11.5q1-6.95 2.05-11.4.4-1.75 1.15-2.35.6-.45 1.4-.35t1.3.7q.85 1.1.15 3.55M7.8 35.5l1.35.2.05.1.5.05.95.25.2.5q.2.6-.25.95l-.7.2-.85-.15-.65-.15-1 .05q-.75 0-1-.55v-.5q.2-.75.8-.9h.15l.15-.05h.3"/></g></svg>