<svg xmlns="http://www.w3.org/2000/svg" xmlns:ffdec="https://www.free-decompiler.com/flash" ffdec:objectType="shape" width="66.25" height="37.85"><g fill-rule="evenodd"><path d="m45.4 9.75-1.6.85q-1.4.85-2.25.35-.75-.5-.6-1.5.05-.55.55-1.6l1.65-3.15q.65-1.45 1.45-2.1.75-.6 2.3-.9L52 .35 54.05 0q1 .05 3 1.1l3.9 2.65 2 1.95q1.2 1.4 1.95 2l1.3 1.55q.25.95-.6 2.3-2.4 4.1-4.3 8.15l-.85 1.45q-.5.7-1.2.9l-1.9-.05-4-.65h-1.2q-.7.1-1.5.95l-9.45 8q.6 2.05-.7 4.15-1 1.45-3.25 2.85-1.35.65-2.1.5-.75-.2-1.6-1.1l-2.75-2.6q-1.4-1.45-1.3-2.45.1-.5.85-1.45 2.2-2.55 4-3.2l2.15-.7 1.45-1.3q4.55-5.05 9.55-9.85 1-1 1.7-1.2l1.8-.15 3.5.15 1.05-.15.45-.85.45-1-2.75-2.7Q53 8.4 52.45 8.2q-1.1-.7-2.45-.5l-.45.1h-.1q-.75.2-2.05.85zm13.45.15.35.3q.65.7.55 1.4l-.25.95-.55.75-.5 1.1-.65 1.05q-.65.8-1.65 1.05l-1.05.15-3-.15-1.1.05-.8.25-1 .8q-3.9 3.65-8.05 8.1l-1.5 1.65-1.8 1.55-.45.25-1.7.55q-1.45.55-2.35 1.6l-.6.8 3.05 2.8q2.05-1.05 2.5-2.1l.5-1.95q.25-.75 1.5-2.1l9.6-9.6 1.3-1 2.1-.05 4.15.6.7-.05.45-.55 4.15-7.9q-1.6-2.05-3.45-3.6-1.9-1.6-4.05-2.85-.95-.5-1.5-.55l-.2.05-.8.1-2.95.8-1.45.3q-1.05.15-1.7.6-.65.4-.8 1.05l-.05.55q.6-.15 1.5-.8t1.35-.8l2.25-.1q2.55.2 3.75.9l1.7 1.55 1.55 1.7zm-22.3 21.05.2.1q.85.3.75 1.35-.05.9-.9 1.2-.9.35-1.55-.35-.55-.7-.25-1.5.2-.55.8-.8l.8-.05.1.05zM17.8 9.05l-2.9 1.55q-1.4.85-2.25.35-.8-.5-.65-1.5.05-.55.6-1.6l1.6-3.15q.7-1.45 1.45-2.1.8-.6 2.3-.9l5.1-1.35 2.1-.35q1 .05 2.95 1.1l3.95 2.65L34 5.7l2 2q1.15 1.05 1.3 1.55.2.95-.65 2.3-2.4 4.1-4.25 8.15l-.9 1.45q-.45.7-1.2.9L28.45 22l-4.05-.65h-1.2q-.65.1-1.5.95l-9.4 8q.6 2.05-.7 4.15-1.05 1.45-3.3 2.85-1.35.65-2.05.5L4.6 36.7l-2.75-2.6Q.5 32.65.6 31.65q.05-.5.85-1.45 2.15-2.55 4-3.2l2.15-.7L9.05 25q4.55-5.05 9.55-9.85.95-1 1.65-1.2l1.85-.15 3.45.15 1.05-.15.5-.85.45-1-2.75-2.7q-.75-.85-1.25-1.05-.75-.4-1.5-.5l-1.55.1q-.7.2-2 .85zM28.35 5q-.95-.7-2-1.25l-1.5-.55-1 .15-.4.1-4.05 1-.6.15q-.65.15-1.05.45-.7.4-.85 1.1l-.05.5q.65-.15 1.5-.8.9-.65 1.4-.8l.3-.05 1.9-.05 1.9.25q1.2.2 1.85.65l1.75 1.55.65.75.85.95q1.15.9 1.3 1.1.55.55.6 1.15v.25q.05.45-.3.95l-.5.75-.5 1.1-.7 1.05-.8.75-1.45.45h-.4l-1.35-.05-1.7-.1-1.85.3-1.05.8L15 22.75 12.9 25l-2.2 2.35-.9.95-.85.6-2.2.8q-1.9.75-2.9 2.4l3 2.8q2.1-1.05 2.5-2.1l.55-1.95.35-.7.65-.85.5-.55 9.6-9.6q.65-.7 1.3-1l2.05-.05 4.2.6.65-.05.2-.1.25-.35.05-.1 4.1-7.9Q31.45 7.15 28.35 5M6.15 33.25q-.6-.7-.3-1.5.25-.55.85-.8l1.15.1q.85.3.75 1.35-.05.9-.9 1.2-.95.35-1.55-.35"/><path fill="#767676" d="m50 7.7-.4.3-2.4 1.65-.4.15h-.55l-.85-.05 2-1.1q1.3-.65 2.05-.85h.1zm6.15 8.8 1.05.2h.5l.4-.4 2.15-4.35q.55-1.2 0-1.75-.45-.5-1.4-.3l-.95-.8-1.55-1.7-1.7-1.55q-1.2-.7-3.75-.9l-2.25.1q-.45.15-1.35.8t-1.5.8l.05-.55 2.4-1.15 1.55-.8 2.95-.8.8-.1 1.1.6 2.2 1.1q1.3.8 1.55 1.75l.9-.1q1.85 1.55 3.45 3.6l-4.15 7.9-.45.55-.7.05-4.15-.6-2.1.05-1.3 1-9.6 9.6q-1.25 1.35-1.5 2.1l-.5 1.95q-.45 1.05-2.5 2.1l-3.05-2.8.6-.8.8-.3 2.25-.1-.8.05q-.6.25-.8.8-.3.8.25 1.5.65.7 1.55.35.85-.3.9-1.2.1-1.05-.75-1.35l-.2-.1.85-1.8.45-.25 1.8-1.55 1.5-1.65 1.2-.85 1.95-1.15.55-.6 4-4.35 1.35-1.65.8-.55 1.1-.05 3 .15zm-34.1-8.8-.3.05-2 .7L18.7 9l-.9.05.7-.4q1.3-.65 2-.85zm1.4-4.25.05.05q.65-.1 1.3.35l.7.6q.45.4.85.5l.95.05h1.05q3.1 2.15 5.45 5.2l-4.1 7.9-.05.1-.1.05-.15.3-.2.1-.65.05-4.2-.6-2.05.05q-.65.3-1.3 1l-9.6 9.6-.5.55.15-.6 1.05-2.4.8-1.3 2.1-2.25.4-.25 1.3-1 1.7-1.7 1.85-1.55q.8-.6 1.3-.8l1.35-.1 1.35.15.6-.9 1.35.05h.4l1.45-.45.8-.75.7-1.05.5-1.1.5-.75q.35-.5.3-.95v-.25l.1-.3-.2-.45-.65-1L29 8.4l-.9-.25-.65-.75-1.75-1.55q-.65-.45-1.85-.65l-1.9-.25-1.9.05-.3.05q-.5.15-1.4.8-.85.65-1.5.8l.05-.5.65-.4.5-.4.75-.75.6-.15zM7.2 7.2l1.9-1.1.05-.7H8l-.6.35q-.3.1-.35.25l-.1.3q-.1.65-.75.75-.65.2-1-.45l-.1-.65q0-.55.4-1l.7-.65.9-.45.9-.2 1.5.05q.9.3 1.1.85.35.6.25 1.35l-.05.65q-.2.7-.8 1.25l-1.2.8q-1.3.6-1.6 1.1l.85.05h.1l.15-.05 1.05-.3 1.15.2q.6.3.7.95.1.75-.6 1h-.9l-.5-.1h-.1l-1.1-.1-1.6.1-.8.1q-.45-.05-.65-.65l.1-.8.35-.9.3-.55q.5-.8.95-1.1zm-5.45-.35L2 7.1l.6-.6q.5-.35 1-.3.7.1.75.65l-.25.8-.6.5-.2.2.5.65q.3.55.2.9-.15.5-.8.6-.55 0-.85-.4l-.25-.4-.6.8q-.5.4-.8.4l-.45-.3q-.2-.3-.15-.6.05-.5.5-1.05l.5-.65-.1-.1-.6-.3q-.35-.2-.4-.65t.2-.7q.25-.3.65-.3.45-.05.7.3zM9.8 28.3l.35.45.1 1.4-.35.7-.55 1.95q-.4 1.05-2.5 2.1l-3-2.8q1-1.65 2.9-2.4l2.2-.8zm-3.65 4.95q.6.7 1.55.35.85-.3.9-1.2.1-1.05-.75-1.35l-1.15-.1q-.6.25-.85.8-.3.8.3 1.5"/></g></svg>