<svg xmlns="http://www.w3.org/2000/svg" xmlns:ffdec="https://www.free-decompiler.com/flash" ffdec:objectType="shape" width="76" height="42.3"><g fill-rule="evenodd"><path fill="#999" d="m18.3 21.4-6.65.7q-5.6 1-8.25 1.95l-1.55.5-1.15.05-.5-.15-.1-.85q.45-1.7.45-4.65l-.05-6.7L0 4.4q-.1-1.25.3-1.9t1.9-1.1L9 .95l4.55.65 3.95.05 10-.35 7.45-.8L42.4 0l7.85.5 8.35.7 6.45.15 2.8-.3 2.75-.1 3.9.55q.75.1 1.1.4.4.4.4 1.65l-.4 13.1q-.1 1.35.05 2.4.2.9 0 1.3l-1.2.8q-5.5 1.55-10.9.8l-6.5-1q-3.1-.2-7.45.8l-7.35 1.75q-7.3 1.35-14.65-.25l-4.65-1.15zm41.3 5.9-.6-.55-.1-.85.05-.7.2-.4.35-.45.4-.35.65-.3 1.4-.05.15-.25q.8-.8 1.35-.95l.8-.15 1 .2.65.55q.85 1 .35 2.15l-1 1.05-1.05.95-.15.35.05.25-.25.4q-.4.4-.8.35l-.45-.2-.4-.3-.95-.15zm1-1.3 1.5.3.6.1.2.05.2-.15q.6-.9 1.35-1.35l.5-.5q.1-.4-.4-.6l-.75.15-.45.6-.2.5-.3.35-.6.05-.65-.15-.75.2q-.3.2-.25.45m-43.55-.75 2.55.15.75.7.2.65v.65l-.25.6-.45.8-.3.3-.35.25-1.2.55-.65.15q-.4.2-.85.65l-.4.45q-.6.4-1.2-.2-.4-.4-.4-1.2l-1.05-.7-.75-.7q-.15-.3-.15-.95.1-1.1.4-1.5l.65-.65.6-.45.9-.1.85.05.55.25.25.25zm.6 1.5-.55.55q-.4.35-.85 0l-.45-.45-.45-.35q-.3-.05-.65.2-.4.45-.2.8.1.15.65.35.6.2 1.1 1.25l1.4-.85q.9-.55 1.25-1.1l.05-.3-.2-.2z"/><path d="m54.05 28.65-1.3 2.15.65 1q.4-.65 1.3-.9l2.05-.35.05-.05 1.5.7.15-.15.7-.4 1.2-.2q1.4 0 2.35.6.85.65 1.25 1.55l.15.75.05.1 1.2.35.55.3q.85.55 1.05 1.85.1.9-.15 1.65l-.5 1.1-1.15 1.05-.45.25-.75-.25-.1-.4.5-.9q.55-.8.15-1.7l-.55-.5h-.2l-.05.05-.55.65-.95.6-.65.3-.8.1-.15.45-.95 1.5q-.65.65-1.55.7l-.95-.05q.15.8-.2 1.65l-.05.1h-25l-.05-.05q-.35-.8-.25-1.65.1-.7.8-1.9l1.8-2.6q-2.15-.65-3.85-1.7-2-1.2-3.35-3.05-1.35-1.9-1.7-4.1-.15-1.15.1-3.55l-1.7-1.85-2.15-2.7-.5-.85q-.45-.95-.15-1.95.3-1.05 1.3-1.45l1-.25 3.2-.6 2.55-.2.45.1.1-.15q1.9-2 3.65-3.15 3.6-2.45 8.1-2.9 2.1-.2 4.1.05l.3-.35q2.1-2.1 6.35-2 2.2 0 3.85.6 3.05 1.2 4.25 4.3l.5 2.15q.35 2.95-.6 5.35-1.15 2.75-3.4 4.15l-.5.3q-.5 3.25-2.05 6.35m-5.7-18.25-.85.7q-.3.4-.5 1.35-.15.6-.15 1.15-.05 1.7 1.7 3.95.65.85 1.25 1.15l1.65.35h1.4q1.45-.2 2.75-1.6l.7-.95q.5-.95.4-2.8l-.1-1.2q-.4-1.8-2.25-2.45v.5l-.15.5-.05.5L53.8 13l.45.1q.45.15.75.45l.25.3q.35.5 0 1.15-.4.55-1.1.4l-.8-.3-.05.1-.3.95-.15.4-.15.4q-.35.35-.6 0l-.15-.35.1-1.3-.05-.55-.9-.3-.6-.15-.25.85-.15.5-.45.1q-.35-.05-.55-.55l-.05-.55.05-.65.05-.4-.4-.15-.45-.05-.4-.3-.05-.25q.1-.55.6-.8L49 12l.45.05.15-.9.05-.35.1-.3v-.2l.1-.35q-.85.15-1.5.45m3.6-.65h-.3l-.15.55-.15.3-.4 1.8 1.3.3v-.35l.2-1.55.2-1zm-8.7 17.7-.65 1.1-1.25.6-.55.15-1.2.1q-.35.15-.55.6t-.05.8q.25.55 1.25.85l2.85-.3q1.35-.65 2.05-1.9l.25-.25.25.05 2 .15q.85-.2 1.85-.9l.9-1.1q.3-.8-.2-1.3-.4-.5-1.1-.2l-.8.6-.55.3-.65.15-.5-.15-.9-.6-.6-.55-1.25.05q-.65.35-.65 1.05zm12.6 5.6.55-.2-.05-.05-.3-.1q-.7-.05-1.4.35l-.35.3.25.55q.5-.55 1.3-.85m.45 5.25.05.1.35.1.55.15q.8 0 1.1-.65l.2-.45-1.1-.9-.65-1.2-.4-.05q-.4-.05-1.05.35l.2.55zM31.7 27.15l.9.7.25.15.3-.35 1.45-1.1 3.1-1.65.75-.3.8-.15.75-.05.05-1.15q-.15-1.7-1.45-2.85l-.85-.6q-1.25-.65-2.7-.55-1.5.1-2.65.9-1.15.85-1.65 2.2-.55 1.45-.2 2.8l.5 1.25zm-25.1 4.6q.65-.4 1.15-.5l1.25-.1q1.8 0 2.75.6 1.05.65 1.4 1.9h.15l1.4.4q1.1.45 1.35 1.2l.1.05.2.4.3.95.05.95-.35 1.05-.5.6q-.35.15-.6-.2l-.3-.6-.1-.7-.1-.6-.35-.4-.65-.2-.45.1h-.5l-.15.3-.2.4.2.3q.9 1.2.85 2.35 0 1.6-1.2 2.1l-.65.15q-.35 0-.5-.3-.15-.25.05-1.05.3-1-.3-1.6l-.45-.3q-1.35.65-2.8.35-1.05-.2-1.85-.85l-.6.25-.4.2-.25.35-.3.25-.25.6.05.45v.3l.45.35q.2.3.05.55-.2.3-.5.2l-.35-.2-.65-.25L2.8 41l-.1-.3-.1-.5-.05-.85.15-.75.4-.85.1-.05.2-.45.35-.45.45-.4.35-.15-.05-.45-1 .15-.7.25q-.3.15-.75.85l-.35.75-.25.55-.45.05q-.8-.3-.7-1.05l.1-.7.3-.9.55-.95.45-.5.7-.3.55-.3 1.55-.45.5-.1q.45-.7 1.6-1.4"/><path fill="#fff" d="m51.95 9.75.7.05-.2 1-.2 1.55v.35l-1.3-.3.4-1.8.15-.3.15-.55zm-3.6.65q.65-.3 1.5-.45l-.1.35v.2l-.1.3-.05.35-.15.9L49 12l-.55.05q-.5.25-.6.8l.05.25.4.3.45.05.4.15-.05.4-.05.65.05.55q.2.5.55.55l.45-.1.15-.5.25-.85.6.15.9.3.05.55-.1 1.3.15.35q.25.35.6 0l.15-.4.15-.4.3-.95.05-.1.8.3q.7.15 1.1-.4.35-.65 0-1.15l-.25-.3q-.3-.3-.75-.45l-.45-.1.35-1.45.05-.5.15-.5v-.5q1.85.65 2.25 2.45l.1 1.2q.1 1.85-.4 2.8l-.7.95q-1.3 1.4-2.75 1.6h-1.4l-1.65-.35q-.6-.3-1.25-1.15-1.75-2.25-1.7-3.95 0-.55.15-1.15.2-.95.5-1.35zm-5.1 17.05-.05-.7q0-.7.65-1.05l1.25-.05.6.55.9.6.5.15.65-.15.55-.3.8-.6q.7-.3 1.1.2.5.5.2 1.3l-.9 1.1q-1 .7-1.85.9l-2-.15-.25-.05-.25.25q-.7 1.25-2.05 1.9l-2.85.3q-1-.3-1.25-.85-.15-.35.05-.8t.55-.6l1.2-.1.55-.15 1.25-.6zm-11.55-.3-.65-.75-.5-1.25q-.35-1.35.2-2.8.5-1.35 1.65-2.2 1.15-.8 2.65-.9 1.45-.1 2.7.55l.85.6q1.3 1.15 1.45 2.85L40 24.4l-.75.05-.8.15-.75.3-3.1 1.65-1.45 1.1-.3.35-.25-.15z"/></g></svg>