<svg xmlns="http://www.w3.org/2000/svg" xmlns:ffdec="https://www.free-decompiler.com/flash" ffdec:objectType="shape" width="33.65" height="31.25"><g fill-rule="evenodd"><path d="M7.8 3.85q-1.1-.2-1.15-.8-.1-.55.75-1.1Q9.55.6 12.2.15l5.05.15q2.55.6 4.65 2.1 2.15 1.55 3.5 3.7.8 1.2 1.4 2.9l2.1-.55-.3-.45q-.2-.45-.05-.9.1-.5.5-.7l.95-.05.95.35 1.9.5q.8.4.8 1.3l-.05.45V9q.05.55-.55 1.25l-.9 1.1-.55.95q-.5.6-.95.45-.55-.1-.65-.7-.1-.35.1-1.05l.15-.5-2.65 1.1q.95 4.2.45 7.85-.4 2.45-1.4 4.3-2.45 4.45-8.8 6.7-3.8 1.35-6.25.4l-.95-.65q-.4-.45-.25-.95t1.05-.9q.7-.3 1.75-.65l-1.6-9.5-3.85 1.6q.25.45.15 1.05l-.7 1.4-.5 1.15-.9.75q-.45.15-1-.25l-.25-.35-.25.3-.8.75-1.05.1q-.65-.3-.55-1.1 0-.45.3-1.25l.45-1q-.65-.2-.95-.9l-.15-.6-1.2-.8Q-.2 18.3.1 17.6q.3-.6 1.05-.75h1.2l-.05-.55q.15-.95 1-1.1l1.7.3 1.25.85.1.1 3.7-1.55.75-.25-.75-3.05L8.4 4v-.1zm9 22.6q3.05-1.25 4.65-2.95 2.3-2.5 2.45-6.35.1-1.85-.35-3.9L14.3 17.1l.25 1.3.7 4.3q.4 2.35.9 4zm3.5-19.9q-2.8-2.9-8.2-2.8l-1.7.15 2.05 6.65.95 3.1L20.45 11l2.15-.7q-1.1-2.55-2.3-3.75"/><path fill="#fff" d="M20.3 6.55q1.2 1.2 2.3 3.75l-2.15.7-7.05 2.65-.95-3.1L10.4 3.9l1.7-.15q5.4-.1 8.2 2.8m-3.5 19.9-.65.25q-.5-1.65-.9-4l-.7-4.3-.25-1.3 9.25-3.85q.45 2.05.35 3.9-.15 3.85-2.45 6.35-1.6 1.7-4.65 2.95"/></g></svg>