<svg xmlns="http://www.w3.org/2000/svg" xmlns:ffdec="https://www.free-decompiler.com/flash" ffdec:objectType="shape" width="76.5" height="39.4"><g fill-rule="evenodd"><path fill="#717171" d="m65.2 14.65 5.2-.4q0-1.1 1.1-1.7l1.15-.15 1 .4q.6.65.5 2.1-.1 1.9-1.05 2.5-.45.3-1.25.4h-1.4l-2.5.15-4.8.35-2.05-.1q-.6-.25-.85-.85-.3-.55-.1-1.1.15-.45.75-1.15l1.15-2q1.05-1.9 3.45-4.85l3.65-4.8-5.2.6-.5.1q-.15.15-.15.5 0 .75-.45 1.2-.65.55-1.35.2-.65-.2-.85-1.4l-.25-1.3q-.2-1.35.3-1.85.45-.45 1.5-.65L71.55 0l1.65.2q.95.35 1.15.95.25.7-.65 1.95l-5.1 6.35q-2 2.55-3.4 5.2m8.65 7.5h.8l.25.05h.15l.1.05h.15l.15.05.15.05.1.05.1.05.05.1.1.05.05.05.1.05v.05l.1.1.05.1.1.1v.05l.05.05v.1l.05.1v.05l.05.05v.35l-.05.05v.05l-.05.05v.1l-.05.05v.1l-.05.05-.05.05-.05.05-.05.05-.05.05v.05l-.1.1-.05.05-.1.05-.05.05-.1.05-.1.05-.15.05v.1l.05.05v.05l.05.05v3.55l-.05.05v.9l.05.05v.75l-.05.05v1.35l.05.05v3.75l-.05.1v.7l-.05.1V37l-.05.05v.25l-.05.1v.05l-.05.05v.1l-.05.05V38l-.05.05v.15l-.05.05v.45l-.05.05v.1l-.05.05-.05.05v.1l-.15.15-.1.05-.05.05-.1.05h-.05l-.1.05h-.3l-.15-.05-.1-.05-.1-.05-.05-.05-.1-.05v-.05h-.5l-.25-.05h-2.8l-.4-.05h-.65l-.2.05H66L64.75 39h-.6l-.35.05h-.4l-.2.05h-.35l-.25.05h-1.75l-.65.05h-1l-.7.05h-4.25l-2.6.05H35.4l-2.6-.05h-3.35l-3-.05h-1.9l-3.05.05h-3.7l-2.9-.05H7.25l-2.55-.05H1.05l-.2-.05h-.1l-.15-.05L.5 39l-.2-.05-.1-.05-.05-.1-.1-.05L0 38.7V22.55l.1-.05.1-.05h.4l.1.05.15.05.1.05.1.1h.75l.1-.05h.2l.35-.05h.35l.5.05H6l.55-.05H12l.5-.05h.85l.35-.05h.95l1.1-.05h7.45l.9.05h9.15l10.9-.05h2.7l1.8-.05h4.7l2.65-.05h3.1l.6-.05h12.45l.1-.05h.3l.25-.05h1.05zM0 19.4l.2.05.15.05H.5l.1.05h.1l.15.1H2.2l.45.05h11.3l3.8-.05h35.4l.5.05h12.2l2.25.05h.55l2.5.05h4.4l.15.05.15.05.1.05.05.1.1.05.1.05.05.05.05.05.05.05.05.05v.05l.05.1v.05l.05.05v.15l-.05.05v.1l-.05.05-.05.05v.05l-.1.05-.05.05-.05.05-.05.1-.1.05-.1.05-.1.05-.1.05h-.15l-.15.05h-2.9l-.15.05h-6.5l-1.2.05h-.5l-4.25-.05h-3l-1.45.05h-.75l-.35.05h-.4l-.25.05H13.95l-5.9-.05H3l-.35.05H.7l-.05.05H.6l-.1.05H.35l-.15.05H0zm50.6-4.75 5.2-.4q0-1.1 1.1-1.7l1.15-.15 1 .4q.6.65.5 2.1-.1 1.9-1.05 2.5-.45.3-1.25.4h-1.4l-2.5.15-4.8.35-2.05-.1q-.6-.25-.85-.85-.3-.55-.1-1.1l.75-1.15 1.15-2q1.05-1.9 3.45-4.85l3.65-4.8-5.2.6-.5.1q-.15.15-.15.5 0 .75-.45 1.2-.65.55-1.35.2-.65-.2-.85-1.4l-.25-1.3q-.2-1.35.3-1.85.45-.45 1.5-.65 4.7-.9 9.35-.85l1.65.2q.95.35 1.15.95.25.7-.65 1.95L54 9.45q-2 2.55-3.4 5.2m-14.7 0 5.2-.4q0-1.1 1.1-1.7l1.15-.15 1 .4q.6.65.5 2.1-.1 1.9-1.05 2.5l-1.25.4h-1.4l-2.5.15-4.8.35-2.05-.1q-.6-.25-.85-.85-.3-.55-.1-1.1l.75-1.15 1.15-2q1.05-1.9 3.45-4.85l3.65-4.8-5.2.6-.5.1q-.15.15-.15.5 0 .75-.45 1.2-.65.55-1.35.2-.65-.2-.85-1.4l-.25-1.3q-.2-1.35.3-1.85.45-.45 1.5-.65 4.7-.9 9.35-.85l1.65.2q.95.35 1.15.95.25.7-.65 1.95l-5.1 6.35q-2 2.55-3.4 5.2m-14.8 0 5.2-.4q0-1.1 1.1-1.7l1.15-.15 1 .4q.6.65.5 2.1-.1 1.9-1.05 2.5l-1.25.4h-1.4l-2.5.15-4.8.35-2.05-.1q-.6-.25-.85-.85-.3-.55-.1-1.1l.75-1.15 1.15-2Q19 11.2 21.4 8.25l3.65-4.8-5.2.6-.5.1q-.15.15-.15.5l-.45 1.2q-.65.55-1.35.2-.65-.2-.85-1.4l-.25-1.3q-.2-1.35.3-1.85.45-.45 1.5-.65 4.7-.9 9.35-.85l1.65.2q.95.35 1.15.95.25.7-.65 1.95l-5.1 6.35q-2 2.55-3.4 5.2m-14.7 0 5.2-.4q0-1.1 1.1-1.7l1.15-.15 1 .4q.6.65.5 2.1-.1 1.9-1.05 2.5l-1.25.4h-1.4l-2.5.15-4.8.35-2.05-.1q-.6-.25-.85-.85-.3-.55-.1-1.1.15-.45.75-1.15l1.15-2Q4.3 11.2 6.7 8.25l3.65-4.8-5.2.6-.5.1q-.15.15-.15.5 0 .75-.45 1.2-.65.55-1.35.2-.65-.2-.85-1.4l-.25-1.3Q1.4 2 1.9 1.5q.45-.45 1.5-.65L12.75 0l1.65.2q.95.35 1.15.95.25.7-.65 1.95L9.8 9.45q-2 2.55-3.4 5.2"/><path d="M18.05 31.4 16 30.65l-.8.1-4.25-.2q-1.8-.3-2.45-.9-.7-.6-.7-1.55-.05-.75.5-1.85l.85-1.3q.55-.7 2.05-1.75v-.7q.4-4.05 1.25-5.75.6-1.35 2.2-3.2l2.35-2.3-.05-1.45.15-1q.3-2 1.05-2.95 1.15-1.5 2.75-1.35.7.15 1.45.55l3.1 2.4.55.5 2.1.4q6.25-3.9 11.95-3.95l5.6.7q3 .55 5 1.4 2.8 1.3 6.3 4.7 2.85 2.95 3.9 5.2l.15.3.35.5q.75 1.25.65 2.85-.05 1.2-.55 2.3l-.15.4q-.95 2.45-3.45 3.85l-2.15 1q-1.7 1.1-2.3 2.05-.3.5-.2.8.05.4.6.6.9.5 2.9.8.8.2 1.35 0l1-.6 1.8-1.55 1.05-1.05q.6-.6 1.1-.95 1.35-.95 2.95-.8 1.8.25 2.6 1.6.9 1.5.3 3.5-.85 2.45-3.5 3.9-2.05 1.1-5.15 1.35l-5.45-.3-2.65-.8q-1.2-.55-2.3-1.75-1.25-1.15-1.5-2.4l-.1-.6-1.6.4-2.8.1-1.25-.1q-1.15-.3-1.9-1.3l-4.85.55-2.1 1.25-3.5 1.95-2.65 1-4.25.8-2.45-.15q-1.4-.45-2-1.4-.6-.85-.35-2l.4-.85zm8.1-11.3-.7-.55.1-.15q.55-.85.3-1.3l-.3-.35-.2.45-.95.95q-1.05.6-2.05.6l-.1.4q0 .55.4.7l.2.1v.4l.05.45-.15.8q-.15.6-.15 1.15v.65l-.05.1v.15l-.35 1.6-.05.65.05.25q-.1.5.35.85l1.2.15q.65-.4.4-1.1L24 26.6v-.2l.6.05q.8.05 1.5-.55.65-.5.9-1.4.3-.75.2-1.65L27 21.8l-.5-1.3zM23 10.25l-.3.1-.85 1.4-.2.45-.35 1.4-.1.5-.05.7-.05.3.5.55.2-1.95q.2-1.2 1-2.4l1.1-1.15zm.95 14.2q-.25-.4-.2-.95l.2-.95.1-.85.1-.45q.3-.4.65-.15l.2.3.25.7.2.9q.2.95-.05 1.35l-.7.4zm-6.6 4.7 1.25-.05.15-.5.5-1.75.1-.55v-1.9l-.05-.8-.05-.05v.05l-.1 1.55-.7 1.85-.9 1.4-.8.65z"/><path fill="#fff" d="m23 10.25.9-.1-1.1 1.15q-.8 1.2-1 2.4l-.2 1.95-.5-.55.05-.3.05-.7.1-.5.35-1.4.2-.45.85-1.4zm3.15 9.85.35.4.5 1.3.2 1.05q.1.9-.2 1.65-.25.9-.9 1.4-.7.6-1.5.55l-.6-.05v.2l.15.45q.25.7-.4 1.1l-1.2-.15q-.45-.35-.35-.85l-.05-.25.05-.65.35-1.6v-.15l.05-.1v-.65q0-.55.15-1.15l.15-.8-.05-.45v-.4l-.2-.1q-.4-.15-.4-.7l.1-.4q1 0 2.05-.6l.95-.95.2-.45.3.35q.25.45-.3 1.3l-.1.15zm-2.2 4.35.75.3.7-.4q.25-.4.05-1.35l-.2-.9-.25-.7-.2-.3q-.35-.25-.65.15l-.1.45-.1.85-.2.95q-.05.55.2.95m-6.6 4.7-.6-.1.8-.65.9-1.4.7-1.85.1-1.55v-.05l.05.05.05.8v1.9l-.1.55-.5 1.75-.15.5z"/></g></svg>