<svg xmlns="http://www.w3.org/2000/svg" xmlns:ffdec="https://www.free-decompiler.com/flash" ffdec:objectType="shape" width="76.65" height="44.15"><g fill-rule="evenodd"><path fill="#717171" d="M.35 3.2q-.15-.8.6-1.55.5-.45 1.1-.55l1.15.2q.6.45.7 1.3 0 .75-.55 1.4L3 4.4l-.4.6-.85.85Q1 6.15.7 5.65L.55 4.9v-.8zM5.2 14.35q-.35 2.25-1.25 4.35l-.6 1.6q-.2.75-.2 2.95 0 2.7-.7 7.9-.15 1.4-.6 2.25Q0 31.6.3 27.65l.1-2.6-.3-2q-.2-1.2.05-2l.3-.75.15-.75-.35-1.3q-.55-1.75 1.25-4.8l3.15-5.2.8-1.15.4-1.9q.3-2.1 2.1-3.5.7-.5 1.15-.25.65.4.05 1.45l-.8 1.4-.55 1.45-.1 1.05-.2 1L6.7 9l-.9 1.15q-.3.55-.4 1.8l-.1.95zm5-5.35.1-1.15q.3-1.5 1.05-2.25l.95-.85.7-1.4q.6-1.4 1.85-1.6h.55l.15-.4Q15.9.55 16.6.2l1.5-.1 1.2.75q.5.55.5 1.45 0 .8-.6 1.45l-1.35.75q-.75.1-1.4-.3l-.65.75-1.85 1.7q-1.05.7-1.2 1.4l.1 1.35v.8l-.2.55-1.15 1.65-1.3 1.6-.3 1.1.05.95q.05.9-.3 1.65l-.55.75-.45.4q.2.45-.1 1.05l-.65.95q-.35.65-.45 1.9V23l-.2 1.8L6.9 26q-.2.7 0 1.15l.5 1q.15.7-.5 1.4l-.65.6-.05.2q.85.95.65 1.65l-.15.5.3.55.45.9.35 1.35-.05.7v.75l.25.55.55.85L9.6 39.2l.95 1.15q.3.65.2 1.4t-.6 1.25q-.45.5-1.2.7l-1.4-.05q-.65-.25-1.05-.85-.45-.65-.5-1.35v-.75l-.5-.75q-.8-1-.85-1.7l.05-1.2-.3-.85-.25-.85.15-1.4.3-.7.2-.4.15-.65.6-2-.05-.05q-.35-.15-.65-.85-.35-.9-.2-1.3l.4-.8.05-1.45V24.5l.1-2.5q-.6-.3-.9-1t-.1-1.35q.25-.65 1.15-1.3.35-.3.8-.55l-.05-.4q-.05-.7.3-1.4l.25-.4q.35-.6 1-.9l.8-.35.7-.95q.75-1.4.9-3zm2.9 5.55q.2-.45.55-.95l.75-1.25.9-1.8.95-1.75q.8-1.1 3.3-3l2.75-1.95q3.5-2.5 5.65-2.8l.9.1.3.6-.2.75-1.25.8-3.45 1.45q-1.15.45-1.8.85l-1.7 1.6-1.9 2.05q-1.35 1.45-1.75 2.3l-.8 2-1.6 4.1-.65 1.35-.8 2.05v.4l-.1 1.6q0 1.2-.4 1.85l-.9 1.15q-.25.45-.35 1.45-.1 1.9.2 3.6.25 1.25.1 1.75v.05q.4.05.8.35l1 1.65.25 1 .05.5.35 1.05.55 1.3 1 1.9.95.3q.45.3.55.8l.1.25.3.1q.5.1.75.35.35.4.05.9-.25.4-.8.4-.75-.35-1.15-.4h-.65q-.55 0-.9-.45l-.35-.65-3.5-4.25-.55-.45q-.35-.4-.55-1.45l-.4-1.25q-.05-.7.3-1.2-.45-.4-.65-1.4-.35-1.9-.15-6.4.05-1.5.35-2.5.2-.85.6-1.35l.8-1.15.15-.75.1-.75q.1-.5.55-1.25l.7-1.2q.3-1.4.55-2.05zm4.35 7.35q-.7 2.4-.75 3.7-.1.9.25 3.35.6 3.6 1.45 5.45.9 1.9 2.55 3.4 1.6 1.45 3.65 2.15l3.35 1q2.05.75 2.75 2.1l.15.5-.55.5-1.3-.15-1.25-.65q-1.1-.6-4.35-1.5-2.8-.75-4.15-1.8-1.25-1-2.35-3.1l-1.8-3.55-.8-1.55q-.3-.9-.3-2.35.05-1.4.8-5 1.15-5.1 2.2-8 1.55-4.3 3.9-7.1 2.45-2.9 5.8-4.5 1-.55 3.55-1.45 2.5-.8 3.85-.9l2.35-.3 1.35-.7 1.4-.35.95.2 1.2-.3L43.9.85q1.55.2 2.3.7l1.3 1.15q.85.7 3.55 1.8 2.4 1 3.35 2.1.55.6.6 1.25.1.8-.55 1.2-.7.45-1.6-.25l-1.3-1.2-1-.45-1.05-.4q-.65-.25-1.5-.85l-1.4-1.05-1.3-.55-1.05.2-3.3.15-1.05-.4-.65.15-.6.15-.6-.3-.55-.4-1.1-.05-2.45.3-4.3.8-1.4.5q-1.5.95-3.45 3.35l-3.55 4.35-1.8 2.45q-.55 1.1-1.15 3.3zM62.9 40l.15.65q.25 1.25-.7 2.1t-2.15.45l-.75-.2-.65.2-.7-.15-.35-.65q-.05-.4.2-.7.3-.3.65-.3-.1-1 .5-1.65.55-.7 1.5-.8l.75-.05q.65-.2.85-1.05l.3-1.4q.25-.75.6-1.3l.4-.9-.05-.75.05-.85-.3-1.55q-.1-.7.3-1.35.35-.7 1.05-.95.3-.15.65-.15l.3-3.25q.35-3.15.3-5.25l-.3-1.1-.85-.45q-.65-.3-1-.9-.4-.6-.35-1.3l-.05-1.2-.7-.75q-.75-.75-.65-1.75l.05-1.15-.5-.9-1.3-1.6-.85-1.45-.35-1q-.25-.5-.9-.8l-1.15-.45-2.25-1.3Q53.2 3.1 52.4 2.8l-1.25-.5q-.65-.35-.75-.9.6-.45 2.1-.35l1.95.25 2.15.8q2.2 1 2.95 1.9l.85 1.25.95 1.15q.45.4 2.15 1.1 1.35.6 1.75 1.4l.5 1.15.85.8q.45.5.7 1.45l.35 1.6.6 1.95q.25 1.25-.35 2l.55 3.4.3 3.15-.5 3.8q-.2 1.4-.75 2l.1.7q-.05.8-.5 1.35l-.7.85-.4 1.05-.85 1.15-.3 1-.65 1.3-1.05 1.85zm11.65-23.35q.6 1.2.7 3.85.1 2.55-.45 3.7.8 1.15.45 2.85-.2 1-1.2 2.7l-.3.7-.1.8q-.1.75-1.05 1.95-1.05 1.15-1.15 1.9-.05.55.25 1.6t.2 1.6l-.45 1.3-.1 1.35-.1 1.3q-.2.85-1 1.4l-1.7.45q-.85-.1-1.5-.85-.65-.7-.7-1.6 0-1.05 1.2-2.75l1.5-1.95q.85-1.15 1.15-2.2.35-1.15.2-2.55l-.15-1.25.3-.95-.05-1.05-.25-2.05q-.2-1.35.15-2.1l.55-1.05.15-1.15-.05-4.15.4-1.8.05-1.8-.5-1.55-.5-1.6q-.05-1.1-.3-1.55l-.5-.75-.65-.7-.75-1.25-.75-1.35q-.65-1-1.75-1.45l-2.25-.8q-1.35-.7-1.3-1.8.05-.55.5-.95T63.8.6q1-.15 2.15.55 1.15.65 3 2.6l1.4 1.45 1.1 1.4.35 1.6.2 1.6.5 1.6.55 1.6.5 1.9zm1.2-11q-.45.55-1.2.45-.75-.15-1.05-.8l-.35-.65-.4-.4q-.55-.5-.5-1.25 0-.7.65-1.1l1.3-.05.9.85.85 1.4q.3.95-.2 1.55m-18.95 6q.9.15 1.45 1.25l.8 1.8 1.65 1.9q.65.85 1.3 3l1.1 2.15q.55 1.35.25 2.3L63 25.2l.15 1.2q.1 1.05-1.05 3.05l-.5 1.85-.7 1-.8 1q-.75 1.15-.5 2.35l.05 1.35-.65.85-1 .55q-.9.5-1.65 1.6l-1 1.45-2.05 1.5-2.4.85-2.3.25q-.6-.15-.9-.7-.35-.6-.1-1.1.25-.45 1.1-.75l2.6-.8q1.5-.5 2.15-1.4l.95-1.45q.3-.2 1.1-.5l1.05-.6q-.15-.7 1.1-2.25 1.1-1.4 1.6-3.2.45-1.8.15-3.55-.3-1.2-.2-1.85l.2-.95-.1-1.2q-.1-.75.2-1.45l.1-.65-.45-.7q-1.55-1.6-1.3-3.95.2-1 0-1.45l-.55-.7q-1-1.15-1-2.7l.1-.4zM73.85 40.5v-.95q-.1-1 .3-1.65.55-.95 1.45-.7.5.05.9.75l.1 1.2-.25.8-.35.45-.45 1.25q-.15.75-.75 1.05l-1.05-.15q-.45-.45-.3-1.05z"/><path fill="#fff" d="m5.4 11.95.85-1.2Q8 8.95 10.1 9h.1l-.15 1.4q-.15 1.6-.9 3l-.7.95-.8.35q-.65.3-1 .9l-.15-.05-1-.65-.3-.55.1-1.45zm7.45-1.75.65 1.15q.4 1.3-.3 2.9l-.1.25v.05l-.15.3q-.25.65-.55 2.05l-.7 1.2q-.45.75-.55 1.25l-.1.75-.15.75-.8 1.15q-.4.5-.6 1.35L7.45 23v-.25q.1-1.25.45-1.9l.65-.95q.3-.6.1-1.05l.45-.4.1.5.55-.35.3-.55-.3-.3-.1-.05q.35-.75.3-1.65l-.05-.95.3-1.1 1.3-1.6 1.15-1.65zm1.85 7.45V18q-.1 1.55-.55 2.35l-.9 1.1v-.4l.8-2.05zm-9.35.7.55-.8.2-.15.05.4q-.45.25-.8.55"/><path d="M66.75 12.45 66 12.4l-.4.25-.45.1-.4.35-.55.95-.3.5-.35.05-.25-.25-.05-.35.05-.55-.1-.3.25-1.15.5-.65L65 10.1l.25-.15q.8-.6 1.85-.45 1.2.15 1.85 1.15l.3.55.4 1.2.1.45q.2.95-.15 1.55l-.35.5-.5.5 1.1.95.6 1 .1 1.3-.1.95-.25.6q-.75 1.4-2.25 2l-1.05.3-1.2-.15-1.3-.4q-.9-.4-1.25-1.2l-.2-.5v-.65l.2-.95.6-.8.6-.05.25.35.1.6.05.35.35.3.35.35q.6.5 1.5.35l.6-.25.25-.4.35-.85q.1-.45-.15-.85l-.3-.45q-.45-.5-1.25-.75l-.4-.1q-.6-.1-.8-.65-.25-.6.3-1.15.1-.1.95-.45l.65-.55.1-.15-.1-.3-.1-.6zM26.05 39.4q-3.7-1.6-5.3-3.4-2.9-3.15-2.9-9.35 0-5.4 2.15-10.2l-.15-.55-.05-.1v-.1l-.5-1.1-.4-1.6-.25-.5-.85-3.15-.25-.95-.35-2.35.2-1.2.4-.5.35-.25.45-.15 1.2.1 2.15.75 1.65.75 2.7 1.4 1.25.65q3.65-2.3 8.3-2.9l2.8-.2q3.15-.05 5.8.75l1.8.65q1.6.7 3.25 1.95l1.05-.5 2.5-1 1.45-.5 1.65-.6.55-.25 1.75-.7q1.2-.2 1.75.45.6.65.4 1.8l-.2.8-3.6 9.05.25.6q.65 1.5 1 4.1.6 4.85-.7 9.2-1.45 4.7-4.85 7.5-5.25 4.3-15.85 3.9l-5.4-.6q-2.2-.45-5.2-1.7m16.6-19.8q-.1 1.35.25 2.35l.85 1.65 1.05 1.3q.75.7 2.65 1.4l1.8.45q1.6.15 3.35-.7 2.75-1.35 3.45-3.6l.3-1.9-.1-1.95q-.35-1.85-1.9-3.55l-1.2-1.1q-.7-.4-1.75-.65-3.45-.9-5.75.65-2.65 1.65-3 5.65m6-1.9q.55-.5 1.4-.5.8.05 1.35.55l.6 1.05q.15.65-.1 1.25-.5 1.3-1.95 1.3-.65 0-1.15-.4l-.75-.95q-.2-.6-.05-1.25t.65-1.05m6.4 12.15.55-.9q.3-.6.2-1-.1-.45-.75-.25l-.75.45-1.5.55.05.1.15.4.2 1.2v.35l.2.7.05.7v.05l1.1-1.4zm-6.9 6.8q2.25-1.5 3.75-2.85l.1-.55.1-.4v-.55l-.1-1.1-.05-.8-.4-1.45-5.15.5.75 4.15v1.15l.25 1.65.1.65zm-8-10-.9-1.1-.75-.5v3.05l.35 2.05.1 3.9.15 3.2.15 2.15 2.85-.25 3.8-1.2.05-1.85-.2-2.9-.3-2.5-.15-1.25-.05-.1q-3.3-.45-5.1-2.7m-16 .25 2.6.4 2.2-.15 1.4-.85 1.4-1.1 1.55-2.3.8-2.35.1-2.15-.35-1.85q-.5-1.35-1.6-2.25-1.15-.95-2.55-1.2-2.75-.6-5.4 1.2-2.2 1.55-3.5 4.4-.65 1.65-.7 2.8-.1 1.6.65 2.75l1.4 1.4zm2.9-1.65-2.3-.1q-1.85-.45-2.8-2.2-.9-1.7-.25-3.5.2-.65.9-1.75 1.3-1.75 2.6-2.5 1.7-1.1 3.45-.8l1.2.4 1.45.85.6 1q.8 1.85.15 3.95-.65 1.85-2.2 3.3l-1.1.85zm8.5 1.4Q33.65 29 30.1 29.4l-.75 2.1-.4 1.55-.15 1.75v1.25l.15.8V38l2 .6 6.25.8.3-1.3.2-2.55-.1-9-.15-1.55q-.55.1-1 .55zm-25.6-14.2-.6-.05H9.2l-.4.25-.45.1-.2.15-.2.2-.55.95-.3.5-.35.05-.25-.25-.05-.35.05-.55-.1-.3.25-1.15.5-.65h.05l.65-.85.2-.25.15-.15q.9-.75 2.1-.6 1.05.15 1.7.95l.15.2.3.55.5 1.65.05.1q.15.9-.2 1.45l-.35.5v.05l-.45.4-.05.05.2.1.4.35.15.15q.7.65.95 1.35l.1 1.3-.1.95-.25.6q-.75 1.4-2.25 2l-1.05.3-1.2-.15-1.3-.4q-.9-.4-1.25-1.2l-.2-.5v-.65l.2-.95.6-.8.6-.05.25.35.1.6.05.35.2.2.15.1.4.4q.55.45 1.45.3l.6-.25.25-.4.35-.85-.05-.6-.1-.25-.3-.45-.5-.4q-.3-.2-.75-.35l-.4-.1q-.6-.1-.8-.65l-.05-.2v-.05q-.05-.5.35-.9l.75-.35.05-.05h.05l.1-.05.65-.55.1-.15-.1-.3v-.4l-.1-.2zM23.8 34.8q1.6 1.55 3.7 2.6l1.25-7.95-5-.6-.3.9q-.35.9-.35 1.3l-.05.55-.1.35v.65l-.1.4.1.4.05.5zm-3.15-7.1q-.6-.2-.75.25l-.15.3v.3l.05.2.05.05.05.4.15.35.4.8.85 1.2.1-.55.05-.65.55-1.9-.6-.3z"/><path fill="#fff" d="m66.75 12.45.3.15.1.6.1.3-.1.15-.65.55q-.85.35-.95.45-.55.55-.3 1.15.2.55.8.65l.4.1q.8.25 1.25.75l.3.45q.25.4.15.85l-.35.85-.25.4-.6.25q-.9.15-1.5-.35l-.35-.35-.35-.3-.05-.35-.1-.6-.25-.35-.6.05-.6.8-.2.95v.65l.2.5q.35.8 1.25 1.2l1.3.4 1.2.15 1.05-.3q1.5-.6 2.25-2l.25-.6.1-.95-.1-1.3-.6-1-1.1-.95.5-.5.35-.5q.35-.6.15-1.55l-.1-.45-.4-1.2-.3-.55q-.65-1-1.85-1.15-1.05-.15-1.85.45l-.25.15-1.05 1.25-.5.65-.25 1.15.1.3-.05.55.05.35.25.25.35-.05.3-.5.55-.95.4-.35.45-.1.4-.25zM64.9 16.9l-.35-.85q-.05-.55.15-.95l.8-.95.5-1q-.05-.15-.3-.15-.5.05-.85.95l-.4 1.25q-.3.35-.8.35t-.8-.35q-.45-.5-.25-1.3l.35-1.5q.45-1.4.9-2.1l1.2-1.3q1.1-.75 2-.5h.05q.9 0 1.65.5l1 .9.6.75.8 1.75.15 1-.1 1-.45.9-.15.35.4.75.1 1.45-.2 1.45q-.4 1.7-1.8 2.85-1.4 1.2-3.15 1.35l-1.4-.15-1.25-.8Q61.9 21 62.4 19q.25-1.2 1.25-1.6.9-.25 1.5.5l.5 1.05.55.95.6-1.15v-.55l-.7-.5zm-22.25 2.7q.35-4 3-5.65 2.3-1.55 5.75-.65 1.05.25 1.75.65l1.2 1.1q1.55 1.7 1.9 3.55l.1 1.95-.3 1.9q-.7 2.25-3.45 3.6-1.75.85-3.35.7l-1.8-.45q-1.9-.7-2.65-1.4l-1.05-1.3-.85-1.65q-.35-1-.25-2.35m12.4 10.25-.5.95-1.1 1.4v-.05l-.05-.7-.2-.7v-.35l-.2-1.2-.15-.4-.05-.1 1.5-.55.75-.45q.65-.2.75.25.1.4-.2 1zm-6.4-12.15q-.5.4-.65 1.05t.05 1.25l.75.95q.5.4 1.15.4 1.45 0 1.95-1.3.25-.6.1-1.25l-.6-1.05q-.55-.5-1.35-.55-.85 0-1.4.5m-.5 18.95-.65.4-.1-.65-.25-1.65V33.6l-.75-4.15 5.15-.5.4 1.45.05.8.1 1.1v.55l-.1.4-.1.55q-1.5 1.35-3.75 2.85m-8-10q1.8 2.25 5.1 2.7l.05.1.15 1.25.3 2.5.2 2.9-.05 1.85-3.8 1.2-2.85.25-.15-2.15-.15-3.2-.1-3.9-.35-2.05v-3.05l.75.5zm-16 .25-2-1.25-1.4-1.4Q20 23.1 20.1 21.5q.05-1.15.7-2.8 1.3-2.85 3.5-4.4 2.65-1.8 5.4-1.2 1.4.25 2.55 1.2 1.1.9 1.6 2.25l.35 1.85-.1 2.15-.8 2.35-1.55 2.3-1.4 1.1-1.4.85-2.2.15zm2.9-1.65 1.7-.5 1.1-.85q1.55-1.45 2.2-3.3.65-2.1-.15-3.95l-.6-1-1.45-.85-1.2-.4q-1.75-.3-3.45.8-1.3.75-2.6 2.5-.7 1.1-.9 1.75-.65 1.8.25 3.5.95 1.75 2.8 2.2zm8.5 1.4.9-1.1q.45-.45 1-.55l.15 1.55.1 9-.2 2.55-.3 1.3-6.25-.8-2-.6v-1.15l-.15-.8V34.8l.15-1.75.4-1.55.75-2.1q3.55-.4 5.45-2.75m-25.6-14.2.3.15.1.2v.4l.1.3-.1.15-.65.55-.1.05h-.05l-.05.05-.75.35q-.4.4-.35.9v.05l.05.2q.2.55.8.65l.4.1q.45.15.75.35l.5.4.3.45.1.25.05.6-.35.85-.25.4-.6.25q-.9.15-1.45-.3l-.4-.4-.15-.1-.2-.2-.05-.35-.1-.6-.25-.35-.6.05-.6.8-.2.95v.65l.2.5q.35.8 1.25 1.2l1.3.4 1.2.15 1.05-.3q1.5-.6 2.25-2l.25-.6.1-.95-.1-1.3q-.25-.7-.95-1.35l-.15-.15-.4-.35-.2-.1.05-.05.45-.4v-.05l.35-.5q.35-.55.2-1.45l-.05-.1-.5-1.65-.3-.55-.15-.2q-.65-.8-1.7-.95-1.2-.15-2.1.6l-.15.15-.2.25-.65.85h-.05l-.5.65-.25 1.15.1.3-.05.55.05.35.25.25.35-.05.3-.5.55-.95.2-.2.2-.15.45-.1.4-.25h.15zm-4.3.45.1-.35.05-.3q.4-1.8 1.25-2.55.35-.35.95-.6l.65-.25 1.65-.05 1.3.35 1 .85.65.8.2.5q.8 1 .6 2.4-.15 1.05-.8 1.8l.8.95.35 1.3.05 1.2q-.1 1.7-.95 2.7-.9 1.05-2.35 1.3-1.2.25-2.75 0l-.7-.15-.6-.35-.75-.6-.45-.9q-.4-1.1-.25-1.7L6 18.4l.6-.65q.45-.35 1.1-.35l.65.15-.2-.2-.35-.45-.3-.85.05-.3L7 15.6q-1.05-.35-1.2-1.4l-.15-.9v-.4m4.4 6.85.8-.25.1-1.4-.35.05-.2.85-.45.45zm10.6 7.95.75.45.6.3-.55 1.9-.05.65-.1.55-.85-1.2-.4-.8-.15-.35-.05-.4-.05-.05-.05-.2v-.3l.15-.3q.15-.45.75-.25m3.15 7.1-.8-.9-.05-.5-.1-.4.1-.4v-.65l.1-.35.05-.55q0-.4.35-1.3l.3-.9 5 .6-1.25 7.95q-2.1-1.05-3.7-2.6"/></g></svg>