<svg xmlns="http://www.w3.org/2000/svg" xmlns:ffdec="https://www.free-decompiler.com/flash" ffdec:objectType="shape" width="70.05" height="38.45"><g fill-rule="evenodd"><path fill="#999" d="m49.3 16.95-.95.2-.85-.5-.75-1.1q-.6-1.4.15-2.85.6-1.15 2.1-2.05l.65-.45.15-.75q-.05-.8-.55-1.5l-1.1-1.25q-.7-.75-.85-1.35-.3-1.15.55-2.15.6-.7 1.95-1.25l.5-.1q.4.1.45.3.2.35-.5.8-1 .65-1 1.25 2.6 1.75 3.1 3.85l.2 1.6q0 1.6-.65 2.3l-1.1.75-1.1.7q-.45.35-.45.8l.15.85.15.85zm-4.85-14.6.2.65v.85L43.95 5Q42.9 6 41.7 6.4l-.2.8-.1.35.15.3q.2.35 0 .55-.2.25-.55.15l-.45-.4-.45-.9-.2-1.4.15-.65q.2-.6 1-1.1l1.25-.9.15-.25-.5-1.25q-.25-.65-.1-1.35l.3-.35.2.1q.85.4 1.4 1.15l.4.55zM12.05 32.5q-1.8-.45-2.65-1.4l-.4-.65q-2.5.25-4.5 0l-1.6-.5q-.8-.45-.95-1.25-.15-1 .75-1.65.45-.35 1.75-.8 2.65-.7 6.25-1.05 6.6-.8 10.95-.05.8.1 1.2.5l.1.15h.1l1.15.45 1.5.05q1.9.1 2.75 1.05.65.75.65 1.85l-.1.8 3.9.2.95.2q.65-.45 1.85-.6l.35-.05H34.9q-1.05-.1-1.7-.75.15-1.2 1.9-2 1.85-.85 5.85-1.75l.85-.2-4.3.85-1.75.3q-1.05-.1-1.45-.85-.4-.9.3-1.7l1.5-.85 2.05-.5 6.95-1.15 6.4-.05 1.8.15q1.05.3 1.4 1.05.4.65.2 1.25l2.15.05q1.75.1 2.4.65l.65.9v1.1l-.65 1.25q-1.3 1.65-3.65 2.8l-4.4 1.65-1.95.55.25.05 2.15.1 2.15.1 3 .65 3 .8q1.5.3 1.8 1.05.2.45 0 .95l-.65.8q-.7.45-1.95.35l-2.45-.5-5.9-1.95-2.5-.7-1.3-.55-1.1.9Q44.1 35.6 41.2 35.8l-7.6-.55-.25-.1-1.25.3-10.7.35q-1.65-.2-2.5-.75l-.9-1-.2-.7L13 34.6l-5.6 2.1q-2.6.6-3.85 1.1l-2 .5Q.45 38.2.1 37.15t.45-1.85q.5-.45 1.6-.65l6.25-.95 3.6-.35 2.35-.4zM63 31.8l-1.1-.1-1.95.05-1.45-.25q-.6 0-.7-.25V31l.25-.2.6-.1 1.95-.4 4.7-1 .7-.1.85-.5 1.85-.15 1 .75q.7 1-.1 2.05-.75.95-1.9.85l-1.2-.2-2.25-.25zm.1-7.2q.1-.5.5-.95.3-.25.8-.35 1.4-.3 2.1.55.45.7.2 1.35-.25.75-1 .9l-1.3-.1-1-.4q-.4-.4-.3-1M18.5 10.9q-.05.45.35.85l.75.55q.95.6 1.25 1.45l.1 1.4-.2 1.05q-.25.65-1.3 1.4l-1.15.55q-.85.1-1.1-.6-.2-.55.55-1.4.75-.95.5-1.5l-.55-.55-1.1-1.15-.45-1q-.15-.75.1-1.5.55-1.8 2.25-2.55l1.1-.6.5-.75.15-.55-.15-.75q-.4-1.1-1.25-1.8l-.85-.8q-.15-.4.05-.8.25-.4.65-.45l.95.2.9.45.75.9q.9 1.4.95 2.6.15 1.15-.5 2.3l-.95 1.1-1.1.55q-.6.4-.85.7zm-2.25 10.95 1.15.1q.65.25.85.75.3.95-.7 1.55l-1.8.15-.95-.15-.95-.5q-.25-.3-.2-.75.05-.4.35-.65.3-.2.7-.3zM12.65 13l.55.5.3.75q.3.95.05 1.5l-.75 1.05q-.8.9-.9 1.45l-.1 1.3-.2.35-.55.1q-.95-.05-1.35-1.4-.25-1.15.35-2.15l1.4-1.7-.7-.95-.55-.45q-.55-.55-.75-1.35-.2-.85.1-1.55l.9-1.25.6-.45.5-.25 1.15-.05.4.45q.15.35-.05.55-.15.2-.8.4-.65.25-1 .8l-.2.6.35.6.6.45zM4.9 23l.15-.05q.8.2.8.85l-.05.25-.2.4-.3.2h-.45q-.3-.05-.5-.3l-.15-.55q0-.6.7-.8m8.75 14.15q-.15-1.1.8-1.65l1-.15q.55.1.95.55.4.5.35 1.05 0 .55-.45 1t-1 .5l-1.1-.35q-.45-.4-.55-.95"/><path d="M34.7 10.85q.3.45 1.3.75l2.6.5q1.55.3 2.5.7 1.35.55 2.55 1.7 1.95 1.9 1.75 4.05l-.35 1.15q3.45 1.15 5.3 3.2.9 1 1.15 1.95.55 2.25-1.85 4.55-3.35 3.1-10.4 3.75-4 .35-7.95.05h-.2l-5.3-.25q-2.45-.4-4.15-1.5-2.05-1.25-2.65-3.4-.45-1.6.25-3.3.6-1.6 1.95-2.8 1.3-1.1 3.45-2-.8-1.5-.3-3.05.6-2 2.95-2.9l.55-.2q-.1-.6-.05-1.3.15-2.2 1.6-4.15l1.5-1.5 1.6-1.15q.65-.35 1.2-.4.75-.4 1.4-.35.65.1 1.1.65.4.55.2 1.1l-.4.65-.1.15-.6.6-.5.4-.3.9q-.2.95.2 1.45"/></g></svg>