<svg xmlns="http://www.w3.org/2000/svg" xmlns:ffdec="https://www.free-decompiler.com/flash" ffdec:objectType="shape" width="75.7" height="42.05"><path fill="#999" fill-rule="evenodd" d="M.05.2h75.6v41.2H.05z"/><path ffdec:has-small-stroke="true" ffdec:original-stroke-width=".1" fill="none" stroke="#999" stroke-linecap="round" stroke-linejoin="round" d="M.05.2h75.6v41.2H.05z"/><path fill-rule="evenodd" d="M51.15 22.65h1.65q0-.25.15-.4.1-.15.45-.25l.45.4.15.6.05.6-.05.65-.15.6-.45.4-.45-.25-.15-.45h-1.65v-.05H51l.6.55.15.1h.1q.45 0 .65.35v.3l-.15.4-.9.5v-.05l-.45-.2-.05-.2h-.15q-.35-.1-.8-.6l-.5-.45v1.25l.05.15v.35l-.05.1-.05.1v.15h.25l.8.2q.45.3.1.75-.2.35-1 .35l-.85-.05-.95.05q-.8 0-.95-.35-.35-.45.05-.75l.8-.2h.3v-.15l-.05-.1-.1-.1v-.35l.1-.15V25.2l-.55.45-.8.6h-.1l-.05.2-.45.2v.05l-.3-.1-.65-.4-.1-.4v-.3q.15-.35.6-.35h.15l.1-.1.65-.55h-.2v.05H44.6l-.1.45-.5.25-.45-.4-.1-.6V23l.1-.6.45-.4.5.25.1.4h1.65v.1h.2l-.65-.55-.1-.1h-.15q-.45 0-.6-.35v-.3l.1-.4.4-.3.55-.2v.05l.45.15.05.25h.1l.8.6.55.45v-1.3l-.1-.1v-.35l.1-.1.05-.1v-.15h-.3l-.8-.2q-.4-.3-.05-.75.15-.35.95-.35l.95.05.85-.05q.8 0 1 .35.35.45-.1.75l-.8.2h-.25v.15l.05.1.05.1v.35l-.05.1v1.3l.5-.45q.45-.5.8-.6h.15l.05-.25.45-.15v-.05l.5.2.4.3.15.4v.3l-.65.35h-.1l-.15.1zl-.15.1h.15zm-22.95 0h1.65q0-.25.15-.4l.45-.25.45.4.15.6.05.6-.05.65-.15.6-.45.4L30 25l-.15-.45H28.2v-.05h-.15l.6.55.15.1h.1q.45 0 .65.35v.3l-.15.4-.9.5v-.05l-.45-.2-.05-.2h-.15q-.35-.1-.8-.6l-.5-.45v1.25l.05.15v.35l-.05.1-.05.1v.15h.25l.8.2q.45.3.1.75-.2.35-1 .35l-.85-.05-.95.05q-.8 0-.95-.35-.35-.45.05-.75l.8-.2h.3v-.15l-.05-.1-.1-.1v-.35l.1-.15V25.2l-.55.45-.8.6h-.1l-.05.2-.45.2v.05l-.55-.25-.4-.25-.1-.4v-.3q.15-.35.6-.35h.15l.1-.1.65-.55h-.2v.05h-1.65l-.1.45-.5.25-.45-.4-.1-.6V23l.1-.6q.1-.3.45-.4l.5.25.1.4h1.65v.1h.2l-.65-.55-.1-.1h-.15q-.45 0-.6-.35v-.3l.1-.4.4-.3.55-.2v.05l.45.15.05.25h.1l.8.6.55.45v-1.3l-.1-.1v-.35l.1-.1.05-.1v-.15h-.3l-.8-.2q-.4-.3-.05-.75.15-.35.95-.35l.95.05.85-.05q.8 0 1 .35.35.45-.1.75l-.8.2h-.25v.15l.05.1.05.1v.35l-.05.1v1.3l.5-.45q.45-.5.8-.6H28l.05-.25.45-.15v-.05l.5.2.4.3.15.4v.3q-.2.35-.65.35h-.1l-.15.1zl-.15.1h.15z"/><path fill="#fff" fill-rule="evenodd" d="m73.5 3.55.05.15.1.15-.1.7-.15.2-.2.1-.7-.1-.2-.45q-.1-.45.15-.7.35-.4.85-.15zm-.8 9.15q-.75.9-2 .45-1.1-.5-1-1.8.05-.5.45-.95.35-.45.9-.55l1.05.1.8.65q.3.5.25 1.1t-.45 1m-5.25-8.5q.5-.45.85-.25.25.15.15.55l-.25.5-.55.9.35.2.55.55-.1.5-.45.25-.5-.15-.55-.2-.1.1-.45.85q-.45.25-.85-.25-.3-.35-.1-.9l.1-.25-.45-.25-.6-.65q-.15-.55.4-.95l1.05-.05.65.55zm-8.85 6.4q.65-1.4 2.25-1.25.65.05 1.2.55.55.45.7 1.15.15.65-.1 1.3l-.85 1.05-2.6-.1q-.55-.5-.75-1.25-.2-.8.15-1.45m8.25 7.3-.2-.4v-.2l.1-.2q.15-.25.55-.25l.35.25.1.35-.15.4-.55.1zm-6.2-.1q-.15-.4.15-.65.25-.35.6-.25.25.05.6.4l.4.45.5-.2.45-.1.35.2-.1.4-.3.3-.3.2.3.4.45.9q.1.6-.4.85-.45.2-.95-.3l-.65-.75-.4.35-.6.1q-.6-.25-.3-.95l.7-.7-.05-.05zm1.75 6.85-.25-.15-.1-.15-.05-.15.05-.1.05-.15.1-.15.1-.1h.25v-.05q.45 0 .45.4v.25l-.1.2-.15.1-.2.1zm8.7 1.85q-.4-.45-.15-.85l.4-.4.25-.1h.1l.05-.05.65.35.1.15.1.2-.05.45-.2.35-.65.25zM25.45 37.35q-3.7-1.6-5.3-3.4-2.9-3.15-2.9-9.35 0-5.4 2.15-10.2l-.2-.65v-.1l-.5-1.1-.4-1.6-.25-.5-.85-3.15q-.55-1.9-.6-3.3l.2-1.2q.4-.75 1.2-.9l1.2.1q2.5.65 6.5 2.9l1.25.65q4.75-3 11.1-3.1 4.3-.1 7.6 1.4l.05.05q1.6.65 3.2 1.9 1.2-.7 3.55-1.5l3.65-1.35 1.75-.7q1.2-.2 1.75.45.6.65.4 1.8l-.2.8-3.6 9.05.25.6q.65 1.5 1 4.1.6 4.85-.7 9.2-1.45 4.7-4.85 7.5-2.5 2.05-6.2 3.05l-9.65.85-5.4-.6q-2.2-.45-5.2-1.7M50.4 3.5l-.3-.15-.25-.6.2-.6q.25-.25.6-.25l.05-.05.65.35.1.2.05.55-.4.5-.35.15zm.75 19.15.45-.45.15-.1h.1l.65-.35v-.3l-.15-.4-.4-.3-.5-.2v.05l-.45.15-.05.25h-.15q-.35.1-.8.6l-.5.45v-1.3l.05-.1v-.35l-.05-.1-.05-.1v-.15h.25l.8-.2q.45-.3.1-.75-.2-.35-1-.35l-.85.05-.95-.05q-.8 0-.95.35-.35.45.05.75l.8.2h.3v.15l-.05.1-.1.1v.35l.1.1v1.3l-.55-.45-.8-.6h-.1l-.05-.25-.45-.15v-.05l-.55.2-.4.3-.1.4v.3q.15.35.6.35h.15l.1.1.65.55h-.2v-.1H44.6l-.1-.4L44 22l-.45.4-.1.6v1.25l.1.6.45.4.5-.25.1-.45h1.65v-.05h.2l-.65.55-.1.1h-.15q-.45 0-.6.35v.3l.1.4.65.4.3.1v-.05l.45-.2.05-.2h.1l.8-.6.55-.45v1.25l-.1.15v.35l.1.1.05.1v.15h-.3l-.8.2q-.4.3-.05.75.15.35.95.35l.95-.05.85.05q.8 0 1-.35.35-.45-.1-.75l-.8-.2h-.25v-.15l.05-.1.05-.1v-.35l-.05-.15V25.2l.5.45q.45.5.8.6h.15l.05.2.45.2v.05l.9-.5.15-.4v-.3q-.2-.35-.65-.35h-.1l-.15-.1-.6-.55h.15v.05h1.65l.15.45.45.25.45-.4.15-.6.05-.65L54 23l-.15-.6-.45-.4q-.35.1-.45.25-.15.15-.15.4h-1.65v.1H51zm8.85 9q-.6-.15-1.05-.65-.4-.5-.5-1.1-.25-1.35.85-2.1t2.25-.2q.7.35 1.05 1.15.3.8.05 1.55-.3.8-1.1 1.2zM57.15 34l.65.1.2.55-.4.4-.3.05-.3-.15-.15-.45.1-.35zm1.95 6.75q-.5.85-1.4 1.05l-1.25-.05q-.8-.25-1.25-1t-.25-1.55q.15-.8.85-1.35.65-.55 1.5-.5.8.05 1.45.7.6.6.65 1.4.1.7-.3 1.3m14.05-3.2q-.35.9-1.25.9-.9.1-1.25-.85l-.05-.4q-.1-.5.2-.85l.4-.35.85-.15q.7.1 1 .65.3.4.1 1.05M64 34.25q.05-.3.65-.85L64 32.25q-.2-.45.05-.75.25-.35.7-.25l.7.25.65.45.25-.35.75-.6q.55 0 .65.55l-.3.7-.5.65q.6.8.55 1.4-.1.75-.55 1l-1.1.05-.45-.6-.2.2-.85.1q-.4-.35-.35-.8M28.95.9l.25.65q.15.85-.45 1.55t-1.55.6q-1.05-.1-1.5-1.1-.5-1 .2-1.85.6-.75 1.6-.75.95.1 1.45.9m-.75 21.75.45-.45.15-.1h.1q.45 0 .65-.35v-.3l-.15-.4-.4-.3-.5-.2v.05l-.45.15L28 21h-.15q-.35.1-.8.6l-.5.45v-1.3l.05-.1v-.35l-.05-.1-.05-.1v-.15h.25l.8-.2q.45-.3.1-.75-.2-.35-1-.35l-.85.05-.95-.05q-.8 0-.95.35-.35.45.05.75l.8.2h.3v.15l-.05.1-.1.1v.35l.1.1v1.3l-.55-.45-.8-.6h-.1l-.05-.25-.45-.15v-.05l-.55.2-.4.3-.1.4v.3q.15.35.6.35h.15l.1.1.65.55h-.2v-.1h-1.65l-.1-.4-.5-.25q-.35.1-.45.4l-.1.6v1.25l.1.6.45.4.5-.25.1-.45h1.65v-.05h.2l-.65.55-.1.1h-.15q-.45 0-.6.35v.3l.1.4.4.25.55.25v-.05l.45-.2.05-.2h.1l.8-.6.55-.45v1.25l-.1.15v.35l.1.1.05.1v.15h-.3l-.8.2q-.4.3-.05.75.15.35.95.35l.95-.05.85.05q.8 0 1-.35.35-.45-.1-.75l-.8-.2h-.25v-.15l.05-.1.05-.1v-.35l-.05-.15V25.2l.5.45q.45.5.8.6H28l.05.2.45.2v.05l.9-.5.15-.4v-.3q-.2-.35-.65-.35h-.1l-.15-.1-.6-.55h.15v.05h1.65L30 25l.45.25.45-.4.15-.6.05-.65-.05-.6-.15-.6-.45-.4-.45.25q-.15.15-.15.4H28.2v.1h-.15zm-16.6-16 .05.1.15-.1h.7l.45.45-.25.6-.6.35-.15.1.05.25.2.6-.15.6-.6.15-.55-.35-.2-.5q-.45.2-.75.35l-.65.1q-.5-.1-.65-.55t.2-.8l.75-.4.8-.3-.2-.85q-.15-.5.05-.85l.85-.05zm-4.3-2.6-.45-.1-.35-.3-.1-.25v-.25q.1-.65.8-.65l.55.25.2.5q0 .7-.65.8M5.65 14.3q-1.25.35-2.1-.6-.45-.45-.55-1.35 0-.75.55-1.35t1.3-.7q.75-.05 1.45.4.65.5.8 1.25t-.3 1.45zm-.05 3 .5.65.2.4 1-.15q.35.25.2.6l-.45.45-.3.25.1.2.2.45.05.45q0 .5-.45.7t-.9-.25l-.35-.6-.1.05-.7.4-.8-.1q-.45-.35-.2-.9.15-.45.65-.7l.8-.3-.15-.55q-.2-.55.05-.85.3-.4.65-.2m8.7.95q-.4 0-.4-.45l.2-.6.15-.15-.15-.35q-.2-.55-.1-.85l.4-.35.5.05.35.35.1.15.3-.4.15-.05q.3.1.35.3l-.1.3-.3.55.35.65.05.75-.4.6-.6-.05-.45-.45-.05-.1zm-2.2 8.35q.1-.5.35-.75.3-.45.85-.65l1.1-.05q1.25.35 1.35 1.6.1 1.3-1.05 1.8l-1.1.15q-.55-.05-.95-.45l-.5-.85zm.95 6.45.5-.4.6.05.15.5-.25.55-.6 1 .25.2.65.25q.45.45.1.8-.3.4-.9.2l-.8-.35-.45.55-.6.25-.5-.35q-.2-.3-.1-.65.05-.3.4-.75l-.1-.1-.55-.65q-.1-.35.15-.7.25-.3.6-.35.65-.1 1.1.4zM8.8 27l.55.15.35.5-.05.35-.05.2-.2.2-.7.1-.5-.45v-.35l.1-.35q.15-.25.5-.35m-4.7 7.65-.15-.2-.05-.4.2-.3.35-.1v-.05l.35.2.2.35q0 .35-.4.55l-.15.1-.15-.05zM2.9 39.9q0-1.45 1.3-2 .95-.45 1.9 0 .65.25 1 .9.4.65.3 1.35-.15 1-1.05 1.55l-1.85.25-1.1-.8q-.45-.55-.5-1.25m17.15-1.3.1.3-.05.25-.3.3-.4.05-.35-.25-.1-.25v-.1q0-.3.15-.45l.45-.1v-.05l.3.1z"/></svg>