<svg xmlns="http://www.w3.org/2000/svg" xmlns:ffdec="https://www.free-decompiler.com/flash" ffdec:objectType="shape" width="75.7" height="41.65"><path fill="#999" fill-rule="evenodd" d="M.05.05h75.6v41.2H.05z"/><path ffdec:has-small-stroke="true" ffdec:original-stroke-width=".1" fill="none" stroke="#fff" stroke-linecap="round" stroke-linejoin="round" d="M.05.05h75.6v41.2H.05z"/><path fill-rule="evenodd" d="m65.15 9.7 4.8 1.85.6.2 1.6.5 1 .55q.4.45.3 1.75-.2 2.15-.05 6.45v1.4l.35 1.15q.2.65 0 1.05l-.85.8-.2.15-.65.5-.15.1-.85.7-.85.85-1.55 1.4-1 .8-1 1.45q-.5.3-1.5 0L58 29.05q-2.1-.65-2.95-1.45l-.25-.1q-.65-.2-.9-1-.25-.55-.25-1.35l-.25-2.4-.65-5.5q-.2-.95 0-1.4l1.1-.95 1.5-1.25 3.8-2.8L60.5 10l.35-.15.45-.4.1-.05q.45-.6 1.15-.45l.65.2zm1.05 3-4.1-1.05-.6-.15-4.15 3.45-.95.8-.25.25 1.7.8 3.65 1.05 1.05.35 1.15.55.4-.15.15-.15 2.4-1.6.9-.6 2.8-1.85.25-.2-.75-.3-.65-.25zm5.3 9.25-.05-.45q-.25-2.75-.25-6.45l-.65.45-1.95 1.35L67.05 18l-.65.45-.4.3-.3.15-.65.55v.4l.25 2.35.2 3.45-.05.75-.05.5-.4.4-.15-.25-1.3-6-.2-.85v-.05l-.45-.1-.35-.1-2.8-.95-.65-.25-2-.95-1.25-.55-.2-.05.05.4.45 3.7.1.7.35 3.65v.3l1.45.45 7 2.15.35.05.5-.35.7-.7.5-.45 2.35-2.05 1.05-.95.25-.2q.5-.4.95-.45zm-44.25 18.6v1.1H23q0-4.75.35-9.65.35-5.35 1.3-8.55 1-3.55 3-6.05-.9-.9-.8-3.3.3-3.5 1.35-4.95.9-1.25 2.1-1.25.65-.05 1.15.45t.4 1.1l-.35.75-.5.75-.4 1.2q-.2 1.1.1 2.35l.05.15q1.45-.95 3.15-1.45l1.15-.3q.15-1.45.85-2.9.95-1.9 2.55-3.1.75-.6 1.45-.65l.75.15.5.6q.25.75-.85 1.8-1.6 1.6-1.6 3.2l.1.7.75.1q1.35.2 2.65.75.25-1.05.75-1.95 1.15-1.95 3.2-2.65l2.45.1q1 .55.7 1.25-.15.35-.9.65-1.1.5-1.8 1.5-.65 1.05-.75 2.2v1.1q1.65 1.45 2.75 3.4 1.2 2.15 1.7 5.1.35 2.05.5 5.45l.05 11.95H47v-.1l.05-1.05v-2.7q.05-5.5-.3-9.6-.5-5.5-2.9-8.2-2.45-2.7-5.15-2.9l-1.95-.15-.1-.05q-2.35.25-4.3 1.85-2.55 2.1-3.7 6.4-.95 3.3-1.25 9.55l-.1 3.05v1.4zm-14.5-11.9h.05l.7-.2 6.65-2.9q.2-4.2.85-8.8l.05-.1-2.5 1.05L14 19.6h-.05l-.1.05.05.1.05.3-.15 1.1-.25 2.65-.05 2.15-.05.7-.15.8-.6.45-.25-3.1-.3-3.65q-.1-.7.05-1.05l-.1-.05-2.35-1-.7-.35-.5-.25-1-.6-.35-.2q-.45-.25-.3-.55.15-.35.65-.1l2.15.75.15.05.1.05.55.15 1.4.35.5.15.6.2.05-.05q.2-.15.65-.2l.7-.15.55-.2 3.25-1.2 3-1.1q-2.35-1.2-4.45-2.9l-.5-.45-.3-.25-.45-.25-.75.1q-3 1.15-7.85 4l-.75.45.5 4.2.05 1.35.1 2.4.1.6.55.45 1.55.75.8.4.75.4 1.35 1q.5.5.85.6M3.9 15.9q-.15-.45.05-.85.2-.55 1.15-1.05 6.2-3.4 8.45-4.3 1.65-.75 2.6-.4l1.45 1.05Q20.35 13 22.95 15l.6.7.05.6-.15 1.1q-.55 3.15-.85 8.35l-.35 1.45-1.5.95q-5.1 2-6.4 2.8-1.1.6-1.65.6-.65-.05-1.55-.75-2.6-1.9-5.7-3.2-.7-.2-.95-.6-.25-.3-.25-1.05l-.35-7.5v-1.9l.05-.5z"/><path fill="#999" fill-rule="evenodd" d="m47.05 40.5-.1.05h-.3l-.3.05-.4.05H27.7l-.4-.1h-.05l.05-1.4v-1.4l.1-3.05q.3-6.25 1.25-9.55 1.15-4.3 3.7-6.4 1.95-1.6 4.3-1.85l.1.05 1.95.15q2.7.2 5.15 2.9 2.4 2.7 2.9 8.2.35 4.1.3 9.6v2.7M41.1 24.4q.3.7 1.1 1.05l1.55.1q.75-.25 1.15-1.05.4-.75.2-1.55-.35-1-1.25-1.4l-1.9.1q-.7.35-.9 1l-.15.8zm-.9 4.1.45-.45.15-.1h.1l.65-.35v-.3l-.15-.4-.4-.3-.5-.2v.05l-.45.15-.05.25h-.15q-.35.1-.8.6l-.5.45v-1.3l.05-.1v-.35l-.05-.1-.05-.1v-.15h.25l.8-.2q.45-.3.1-.75-.2-.35-1-.35l-.85.05-.95-.05q-.8 0-.95.35-.35.45.05.75l.8.2h.3v.15l-.05.1-.1.1v.35l.1.1v1.3l-.55-.45-.8-.6h-.1l-.05-.25-.45-.15v-.05l-.55.2-.4.3-.1.4v.3l.6.35h.15l.1.1.65.55h-.2v-.1h-1.65l-.1-.4-.5-.25q-.35.1-.45.4l-.1.6v1.25l.1.6q.1.3.45.4l.5-.25.1-.45h1.65v-.05h.2q-.55.3-.65.55l-.1.1h-.15q-.45 0-.6.35v.3l.1.4.4.25.55.25v-.05l.45-.2.05-.2h.1l.8-.6.55-.45v1.25l-.1.15v.35l.1.1.05.1v.15h-.3l-.8.2q-.4.3-.05.75.15.35.95.35l.95-.05.85.05q.8 0 1-.35.35-.45-.1-.75l-.8-.2h-.25V33l.05-.1.05-.1v-.35l-.05-.15v-1.25l.5.45q.45.5.8.6H40l.05.2q.2.25.45.2v.05l.9-.5.15-.4v-.3q-.2-.35-.65-.35h-.1l-.15-.1q-.1-.25-.6-.55h.15v.05h1.65l.15.45.45.25.45-.4.15-.6.05-.65-.05-.6-.15-.6-.45-.4-.45.25q-.15.15-.15.4H40.2v.1h-.15zm-4.5-7.85.15.9q.3.7 1.05 1.1l1.5.2 1.3-.75q.5-.65.5-1.4.05-.8-.45-1.4-.5-.65-1.25-.85l-1.5.15q-.75.35-1.1 1.05zm-4.1 5.6q1.25.35 2.05-.75.8-.95.25-2.15-.6-1.2-1.85-1.2l-.15.05q-.9-.1-1.5.7-.7.85-.35 2 .45 1.2 1.55 1.35"/><path fill="#fff" fill-rule="evenodd" d="m72.2 9.15.3-.05.1-.05q.4.1.7.4.35.55 0 1-.35.5-.95.35-.65-.1-.65-.75-.05-.6.5-.9M69.85 2.7l.25.9.15-.05.45-.15.45.2.15.45-.45.45-.4.25h-.05l.1.55.15 1.2q-.2.7-.8.8-.45 0-.75-.4l-.3-.8-.15-.8-.3-.05-.25-.1v.1q0 .6-.65.8-.6.15-1-.3-.35-.5 0-1.05l.25-.3.35-.1.15-.05q.35 0 .65.3l.25-.5.45-.2-.05-1q0-.65.2-.85.3-.3.65-.15.25.15.5.85m-12.5 12.25 4.15-3.45.6.15 4.1 1.05.35.85q.15 1-.55 1.65l-.95.5q-1.1.45-2.7.7l-1.3.1-1.2-.1-1.9-.5-.55-.55zm11.85-1.3.65.25.05.05.45.45-2.8 1.85-.05-.1q-.4-.55-.3-1.15.15-.9 1.05-1.25zm-2.55 3.2-2.4 1.6-.15.15-.4.15-1.15-.55v-.05q.3-.4 1.7-.85L65 17l1.25-.35zm-8.25-9.2q-.2-.25.05-.7l.45-.6.1-.1-.4-.4q-.45-.7-.35-1.05.2-.5.85-.5.35.05.85.4l.3-.4.4-.45.55-.05q.5.25.2.85l-.55.7v.05l.1.1.85.9q.2.65-.3.95l-1.05.15-.5-.3-.1.1-.65.6q-.55.2-.8-.25m12.15 7.85q-.05.6-.7 1.05l-1.25.3zm-3.5 2.5-.05.05-.55.65-1 .85-.4.3v-.4l.65-.55.3-.15.4-.3zm-1.55 7.65.2-.4.65-.6.75-.65 1.8.1.5.85.05.1-2.35 2.05-.5.45q-.55-.1-.9-.65l-.25-.5zm5.25-1.75-.4-.2q-.45-.3-.35-.95t.6-.8l.35-.05.1-.05.45.1.2 1.5q-.45.05-.95.45M59.1 18.75l.65.25 2.8.95.35.1.45.1v.05l.2.85-.35.1-.2.4q-.3.9-1.6 1h-2.05q-.3 0-.45.15l-.25.4-.25 1.7v.6l-.35 1-1.45-.45v-.3L56.25 22l-.1-.7q.55-.9 1.3-1.55.85-.8 1.65-1M53 3.95q.15-.75.9-.85t1 .65l.05.6-.65.65-.85-.1-.4-.5zm-.6 4.2.65-.1q.65 0 1.2.45t.65 1.1q.15.65-.2 1.25l-.95.9q-.6.25-1.3 0-.65-.2-1-.75-.35-.5-.3-1.25.05-.7.5-1.15zm-4.7-5.5q.25.5-.25 1.1l-.15.3 1.25 1.15.35.55q.2.4-.15.55l-.55-.05-.45-.4-1.15-.75-.85 1.15-.6.15q-.55-.1-.55-.8.05-.4.45-.9l.2-.25-.5-.45q-.3-.5.05-.9.35-.45.85-.35l.55.3.05-.1q.3-.5.7-.55.5-.2.75.25M41.1 24.4l-.2-.95.15-.8q.2-.65.9-1l1.9-.1q.9.4 1.25 1.4.2.8-.2 1.55-.4.8-1.15 1.05l-1.55-.1q-.8-.35-1.1-1.05m11.15-3.05-1.25.2q-.75-.3-1-.8-.45-.95.15-1.7.65-.8 1.65-.55t1.15 1.3q.15.95-.7 1.55M54.7 34.8l-.55.25-.55-.15q-.35-.35-.35-.9l.35-.9.35-.45-.45-.55q-.3-.5-.1-.85.25-.3.6-.3l.65.2.15.1.15-.45q.4-.6.9-.45.35.1.35.5l-.1.6-.15.7.35.4q.6.85.3 1.4-.25.65-1.1.45l-.45-.2zm3.75 3.15q-.45-.15-.65-.7-.1-.55.2-.9.35-.4.75-.35l.05-.05q.65 0 .9.65.3.55-.15 1.1-.5.5-1.1.25M40.2 28.5h1.65q0-.25.15-.4l.45-.25.45.4.15.6.05.6-.05.65-.15.6-.45.4-.45-.25-.15-.45H40.2v-.05h-.15q.5.3.6.55l.15.1h.1q.45 0 .65.35v.3l-.15.4-.9.5v-.05q-.25.05-.45-.2l-.05-.2h-.15q-.35-.1-.8-.6l-.5-.45v1.25l.05.15v.35l-.05.1-.05.1v.15h.25l.8.2q.45.3.1.75-.2.35-1 .35l-.85-.05-.95.05q-.8 0-.95-.35-.35-.45.05-.75l.8-.2h.3V33l-.05-.1-.1-.1v-.35l.1-.15v-1.25l-.55.45-.8.6h-.1l-.05.2-.45.2v.05l-.55-.25-.4-.25-.1-.4v-.3q.15-.35.6-.35h.15l.1-.1q.1-.25.65-.55h-.2v.05h-1.65l-.1.45-.5.25q-.35-.1-.45-.4l-.1-.6v-1.25l.1-.6q.1-.3.45-.4l.5.25.1.4h1.65v.1h.2l-.65-.55-.1-.1h-.15l-.6-.35v-.3l.1-.4.4-.3.55-.2v.05l.45.15.05.25h.1l.8.6.55.45v-1.3l-.1-.1v-.35l.1-.1.05-.1v-.15h-.3l-.8-.2q-.4-.3-.05-.75.15-.35.95-.35l.95.05.85-.05q.8 0 1 .35.35.45-.1.75l-.8.2h-.25v.15l.05.1.05.1v.35l-.05.1v1.3l.5-.45q.45-.5.8-.6H40l.05-.25.45-.15v-.05l.5.2.4.3.15.4v.3l-.65.35h-.1l-.15.1zl-.15.1h.15zm31 .55q.7.1.95.55l.1.25q.15.65-.4 1l-.65.2-.5-.1q-.5-.35-.5-.9l.3-.7q.25-.25.6-.25zM72.25 36h-.1l-.25-.1-.05-.1-.05-.05.05-.05.1-.25h.2v-.05l.15.05.05.05.05.3-.1.15zm-5 .1-.35.8-.4.4-.45-.1q-.3-.3-.3-.75l.25-.8.1-.15-.2-.05-.45-.25v-.45l.25-.3q.3-.2.9 0l.25-.55.35-.45h.45l.3.3-.05.6-.2.65.65.1q.55.2.35.65l-.35.25-.45-.05-.55-.1zM30.8 4.85q.2-.45.65-.65l.9-.05.65.65.1.9-.2.45q-.5.6-1.1.5-.7-.1-.95-.7l-.1-.45zm-9 1.6-.15-.65q0-.45.2-.6l.45.05.2.45.25.55.85-.2h.55q.4.1.4.35l-.15.5-.45.25-.7.4.1.3.1.8-.55.55q-.45.1-.55-.35l-.1-.55-.2-.35-.7.25q-.7.2-.95-.4-.15-.45.3-.9.25-.2.85-.4zm3.6 6.3q.45.8-.25 1.35l-1.1.1q-.75-.3-.55-1.25.3-.8 1-.7l.05-.05q.6 0 .85.55m-6.85 4.95-.1.9-.85 2.25-.4.9-.35.6-.7.75q-.75.65-1.85.75l-.75-.05.25-2.65.15-1.1-.05-.3.1-.15zm-5.05 8.25.1.45-.1 1.3-.75.95q-.35-.1-.85-.6l-1.35-1q0-.35.15-.75l.15-.5q.4-.95 1.2-1.05l.4.05.25 3.1.6-.45.15-.8zm-4.5.3-1.55-.75-.55-.45-.1-.6-.1-2.4-.05-1.35.1-.65.5-1.5.3-.7 1 .6.5.25.7.35-.3 2.55-.25 2.65-.1 1.6zm7.25-13.8.5.45.05.5-.1.35-.05.75-.65.8-1.8 1.5-1.35 1.1-.45.6-.5-.15-1.4-.35-.55-.15-.1-.05-.15-.05L7.55 17q.1-.6.55-.9l1.4-.65 4-2.35q1-.6 1.6-.7zm1.95 4.45-3.25 1.2.35-.5.45-.2.25-.3q.5-.5.9-.55l.95.1zm13.4 9.35q-1.1-.15-1.55-1.35-.35-1.15.35-2 .6-.8 1.5-.7l.15-.05q1.25 0 1.85 1.2.55 1.2-.25 2.15-.8 1.1-2.05.75m4.1-5.6.2-1q.35-.7 1.1-1.05l1.5-.15q.75.2 1.25.85.5.6.45 1.4 0 .75-.5 1.4l-1.3.75-1.5-.2q-.75-.4-1.05-1.1zM14.95 3.55q1.2.15 1.35 1.4.1 1.2-1 1.65-1.15.45-1.9-.55l-.3-.85q0-1.05.85-1.5zM5.5 3.9q.25 0 .6.45l.5 1 .15-.1q.55-.2.9 0 .5.2.45.65 0 .45-.7.75l-.3.15.15 1.2L7 9.05q-.4.55-.9.35-.35-.1-.55-.65V7.4l-.85-.05q-.55-.25-.35-.8.05-.5.65-.7l.3-.1-.15-.45-.2-.85q.1-.65.55-.55m16.85 25.6-.05.3-.75.5q-.5 0-.8-.4l-.1-.35q-.1-.4.15-.65.25-.35.65-.35l.05-.05q.45.1.7.4zM12.4 37l-.15.55-.65.3q-.45 0-.7-.35l-.1-.15-.05-.15q-.1-.4.15-.7l.6-.35.1-.05.65.35.1.2zm6.25-3.3-.35.5.4.75q.2.65-.15 1.05l-.5.3-.6-.15-.4-.4-.3.25-.75-.05q-.3-.2-.3-.65l.45-.85.1-.05-.3-.5-.25-.75q.1-.5.7-.6l.85.3.2.2.35-.4.45-.35.6.05q.4.2.2.7zM5.4 32.95l-.35-.45-.1-.4q0-.5.3-.8.25-.45.75-.35l.1-.05q.8 0 1.05.8t-.45 1.25q-.65.45-1.3 0m0 4.55-.15.6q-.25.35-.55.3-.35 0-.5-.25L4 37.6l-.65.1q-.35 0-.6-.35-.2-.5.3-.8.25-.2.8-.25v-.05l.1-.9.15-.5q.35-.35.7 0l.15.5.05.75 1-.15q.35.1.4.35.15.4-.45.65l-.65.1z"/></svg>