<svg xmlns="http://www.w3.org/2000/svg" xmlns:ffdec="https://www.free-decompiler.com/flash" ffdec:objectType="shape" width="73.65" height="39.45"><g fill-rule="evenodd"><path fill="#999" d="m58.5 4.25-.05.05-1.1.2-.9.4-.3-.05-.25-.35q0-.45.4-.75l1.6-1.05q.4-.25 1.1-.35l1.7-.15.35.1.75.25q.55.4.7.9.25.75-.35 1.25-.6.55-1.3.2l-.45-.25-.5-.15-1.3-.25zm-28.95 9.1-.15.1v1l-.05.25 1.6-.35q1.2-.1 1.65.4l3.85-.4 5.75.7h.05l.75-.25q4.95-1.65 9.95-1.15l3.75-.95-.5-.8h-.05q-.85.15-1.4-.55-.55-.65-.2-1.45.2-.5.75-.85l1.05-.45 1.5-.5 1.8-.05 1 .2 1.3.45.65.65.05.15 1.05.25.8.8h.05l.15.2.35.25 1.1.15 1.05-.2.9-.05.8.1.6.55.05.55-.3.35-1.05.7-.8.25-.5.1-1.3.05-.75-.05-.8-.25-.7-.35-.2-.25-.7.15-.4.1-1.25.6-.6.2h-.3l-1 1.3q2.95-.05 5.95.9 1.35.4 2.4 1.1 1.2.85 1.6 2 .3.55.2 1.35 0 1.25-.9 1.4-.55.15-1.15-.45l-.8-1.1q-.85-.95-3.35-1.55l-3.8-.55-.1.2-.1.2-.3.3q-.1.1-.25.15l-.1.1-.2.1-1 .2-.35-.05q-.25-.05-.75-.45l-.3-.4-.05-.3v-.05l-1.25.05-1.15.75-2.1.75q.35 1.5 0 2.9-.35 1.5-1.35 2.45l-.6.6q-.3.5.15 2.1.9 2.7.3 5.6-.65 2.9-2.55 4.95l-1.05.9-1.35.25-.9-.7q-.35-.6-.2-1.15l.45-.8.65-.7q1.2-1.25 1.7-3t.1-3.45q-.65-2-.7-3-.15-1.8 1.15-3.2l1.2-1.2q.6-.75.6-2.1l-3.35.15-2.25-.1q-1.7-.1-2.6-.6h-.05l-.5.1q-.6.75-1.8 1.15l-2.35.4q-2.5.3-5.1 1.15l1.2 1 .8 1.15q.3.7.2 1.65l-.2 1.35q-.45 1.35-1.7 2.25l-2.45 1.4q-2.35.95-7.45 2.05l-3.15.65-3 .55-1.9.1-4.4-.05L6.3 34q-1.35-.75-1.2-1.95.15-.85 1.15-1.4l1.85-.25q1.45 0 1.85.9l3.9-.1 2.55-.45 2.55-.5q6-1.2 8.75-2.45 1-.4 1.4-.9.5-.5.35-1l-.45-.55-1.9-.7q-1.25-.35-1.8-.85-.6-.6-.6-1.55.1-.9.8-1.45.4-.35.95-.5l2.65-.85q-1-.3-1.5-.75l-.8-.95h-1.65v-.05q-.4 0-.7-.3l-.2-.2-1.35.1h-2.2l-5.85.65-5.85.7-3.95.05-1.6-.2q-1.2-.45-1.2-1.7 0-.55.4-1t.95-.5l1.2.2 1.3.1 4.5-.35 4.5-.55 9.55.25 1.65.25.85.1-.75-.75-.1-.2-.05-.25q-.15-1.15.6-2.15.5-.6 1.15-.8l.35-.05.1-.05.7.1.7.6q.25.4.15.9l-.25.45zm42.75-.3.2.05.3.2.25.3q.25.25.15.65l-.05.2-.45.8-.35.2-.95.25v.05h-.8l-.05-.05-.65-.15q-.55-.15-.85-.7-.25-.5-.1-1.05l.15-.3.25-.25.4-.2.4-.1.9-.05.2.1h.6zM54.7 1.15l.1-.15.2-.4.2-.15.1-.1q.15-.05.25-.15l.6-.15V0l.7.2.2.15.15.2.05.15v.1l.05.1v.2l-.05.15-.35.5-1.2.55-.45.65-.15.15-.1.05-.15.05-.2-.05L54.6 3l-.15-.2.05-.4V2l.05-.1.1-.5.05-.1zM51.05 3.6l1.4-.1q.95.15 1.5.6l.95 1.05.25.65.05 1.45q-.35 1.1-1.45 1.1-1.1.1-1.55-1.05l-.3-.4-.45.1q-.9 0-1.4-.65-.5-.6-.35-1.45.25-.65.75-1.05zM39.9 20.95l.45-.15.5-.1.15-.05.1-.15.2-.1.4-.05q.35 0 .95.3l.45.3.25.3.1.25.05.3-.05.3-.15.4-.1.05-.25.25-.45.25-1.05.1-1.3-.15-.4-.2-.15-.15-.1-.15-.15-.5v-.25l.15-.35.15-.25zm14.85-1.85q.25-.05.5.15l.3.4-.1.55-.15.2-.2.05-.6-.05q-.45-.25-.35-.75.1-.45.6-.55m3.8 14.55q-2.05-.25-3.5-1.05l-1.6-1.15-.8-1q-.55-1.05-.15-2.15.4-1.15 1.45-1.55l1.55-.05q.9.45.75 1.3-.15.65-.8.95.95.95 2.25 1.25l2.55.4 2.65.05 3.5-.15 2.1-.6.6-.4.2-.85-.05-.95q.1-1.25.9-1.4.8-.2 1.4.7.65.9.7 2.1.05 1.15-.55 2.1-.95 1.4-3.45 2.05l-6.5.55zM28.9 8.1v.15l-.1.1-.2.5-.25.2-.4-.15-.25-.45V8.2l-.15-.5-.3-.7-.4-.6-.05-.6q.1-.45.35-.65.25-.25.75-.25v-.05l.65.15.35.45.15.3v.2l.1.2V7l-.15.8zm-3.1 2.05-.4-.05-1.5-.25h-1l-.5.15-.45.05-.05-.05-.9-.6q-.35-.5-.2-1.05.15-.7.8-1l.8-.2.05-.05.95.15 1 .35.5.25 1.05.85.4.5.25.4.1.65-.5.05zm-6.5-.9q-.15.05-.4-.2l-.2-.25-.05-.6.45-.5.7.05.45.55.05.2-.1.2-.05.2-.55.35-.05.05h-.2zm-3.3 1.9-.4-.1-.4-.3-.25-.35-.05-.4.2-.65q.3-.35.85-.45l.95-.05 1.1.05.65.4q.35.35.3.75l-.15.35-.4.45-.3.15-.4.1v.05zm-3.3 2.4q-.6-.1-.85-.6-.25-.65.1-1 .25-.4.95-.5l1.1-.1 1.5.1 3.85.7 2.65.7 1.5.25 1.4.35.3.2V14l-.35.1-4.4-.2-4.7-.35-2.1-.1zm-3.65-4.1h-.3V9.4l-.35-.2-.1-.15v-.2l.05-.4.2-.15.85.1.05.15.05.35-.05.2-.1.15-.3.15zm26.4 22.2-.7 1q-.85 1.8-.8 2.95l.1.4.25.4q.85.75.95 1.2.1.55-.25.95-.3.4-.8.55l-1.65-.2q-.7-.35-1.25-1.15l-.35-.75-.05-.6.1-2.2.3-1.15.3-.55.75-1.1.65-.6q.7-.5 1.1-.6.65-.15 1.15.25.55.5.2 1.2m-13.7 4.55q-.5-.35-.6-.9-.05-.45.25-.75.35-.35.75-.35l1.15.25.45.55-.15.65-.45.35-.5.25z"/><path d="m41.35 17.05-2.75.55q-3.5.1-6.4-1.95l-.4-.3-.6.45q-1.05.7-2.05.7l-1.65-.45q-.9-.4-1.25-.8l-.25-.4.3-.05.35-.15.65-.5.2-.4.1-.35.05-.35v-.8l.05-.1.4-.2.2-.2.4-.5.1-.2v-.15l.05-.35 1.1-.3.05-.75q.25-2.45 1.7-4.05.9-1.05 2.2-1.65 1.05-.5 2.4-.65 2.5-.45 4.25.05l1.8.75.45.25q1.55-1.3 3.7-1.7l2.4-.15 1.9.2-.05.5.1.4.4.7.25.25.35.25.45.15 1.05.1q.05.45.45.8l.35.3.45.25.4.1h.2l1 .1.05-.05h.1l.75 1.5.4 1.3.85-.3 2.95-.35 2.2.25q1.2.3 1.8 1.25l.4.65.4.55 1.5.25 1.85-.1q.6 0 .65.35l-.2.35q-.8.75-2.9.85l-1.2-.05-1.4-.8-1.4-.95-1.65-.15q-1.9 0-3.05.7l-.85.65-.2.15q-.6 1.3-1.85 1.8l-1.35.35-3.8.55-3.55.1v.05l-.05.5q-.15.85-1.05 1.35-.75.4-1.8.4l-.75-.05-.65-.2-.9-.35zm20.3-.5H59.9l-.95-.05-.8.05-.2-.3q-.05-.2.05-.3.4-.9 1.55-1.35l2.1-.4 2.6-.1 2.45.35.4.15.35.1q2.35.7 4.45 2.8 1.95 2.05 1.75 3.8-.15 1.05-.9 1.95L71.2 24.8q.55 2.4-.4 4.7l-1 1.35-1.3.4q-4.95.9-10.25.25l-2.2-.5q-1.2-.4-1.8-1.35l-.15-.25-.55-.85q-.2-.65-.05-1.35.3-2 1.75-3.7l1.25-1.15q1.45-1 3.95-1.75.65-.75 1.65-1.2 1.4-.65 2.95-.5l1.05.2.65-.25-1.65-1.45-1.5-.6-.6-.15-.85-.1zm5.05 6.7-.05.2-.1.25v.15l.15.5.2.2v.1l.05.45v.9l.05.5.1.35.3.4.45-.1.5-.65.15-.7.05-1.25-.15-1.1q-.15-.35-.7-.55l-.65.1zm-8.75 1.05-.1.15v.15l-.05.5.05.35v.2l.1.5.1.3.25.4.35.15H59l.2-.25.2-.4.05-.35.05-.85.1-.15.35-.35q.45-.5.35-1.1l-.05-.25-.2-.3-.35-.2-.45-.05-.4.15-.25.2-.4.55-.25.45zm-15.6-10.75.1-.5v-.2l-1.15-1.1.15-.2.1-.15.3-.3.4-.6-.1-.25-.3-.05-.1.05-.2.15-.4.4-.5.35v.05l-.5-.25-.1-.15-.3-.25-.3-.15-.3-.2v.05h-.05q-.25 0-.25.2l.05.35.1.05.05.15.65.7.1.15-.2.15-.35.4-.25.3-.05.2.05.5.1.15.35.1.35-.05.3-.4.15-.25.15-.15.1-.2.2.3.4.4.1.15.2.2.35.15.35-.05.1-.1zm-6.7-5.35.7.5.2.8.1.35.3.3.4.05.35-.6.1-.7.05-.35.2-.25 1.5-1.05.1-.2v-.5l-.05-.15v-.05l-.1-.1-.5-.2h-.15l-.2.1-.3.2q-.5.2-1.05.7l-.25.15-.25-.1-1.05-.65-.45-.2-.65.1-.25.25q-.3.5.1 1l.4.3.4.1.05.05zm5.75 31.1h-5.35q-2.15 0-2.9-.7-.7-.6-.85-1.55-.15-.8-.05-1.8.4-4.1 2.2-7.4 1.1-2.1 2.35-3.1 1.75-1.4 3.65-1.1 1.05.2 1.95.95.35-.65 1-1.15l1.55-.9 1.65-.8q.45-.2.6-.55l.1-.65v-.7q.1-.75.75-1l1.3.05q.7.4 1 1.55.55 2.4-.95 3.65-1 .55-1.45.85-.4.15-.6.5l-.25.5q-.05.5.6 1.95l.45 1.8.2 1.75q.05 2.45-1.95 5.3l-1 1.05q-.6.75-1.6 1.05zm19.55-13.75v.05q-.3 0-.45.3v.1l-.1.1v.1l-.1.15v.25l-.05.25-.1.2v.4l-.05.2.05.15v.15l.1.1.2.45.15.25.2.25.3.15h.35l.3-.15.2-.15.15-.25.05-.15v-.15l-.1-.45-.05-.15-.25-.2-.25-.35V27l-.1-.25v-.2l-.05-.25-.05-.1.1-.2v-.1l-.1-.1zm4.35 1.2v.4l-.05.2v.2l-.1.3v.1l-.1.5.15.4.45.3h.45l.3-.2.2-.3.05-.25v-.5l-.1-.35v-.25l-.1-.3v-.15l-.05-.1-.05-.5-.05-.1-.1-.1-.1-.15-.15-.15-.2-.05q-.25 0-.4.15l-.05.1-.1.1v.4l.05.1v.1zm-22.25 10 .1-.4.05-.5v-.3l.1-.25v-.35l.15-.55-.15-.75-.05-.15-.2-.15-.25.1-.1.2-.1.3-.05.35-.15.5-.05.25-.15.4-.1.25-.25.4-.45.45-.3.4q-.15.45.05.8l.15.15q.3.3.6.2l.25-.05.3-.15.2-.3.15-.15.25-.45zm-.3-5.3v-.3l.15-.5.2-1.9v-.3l-.15-.7q-.3-.7-.95-.6l-.15.05q-.3 0-.45.2l-.25.4-.05.3.25.9.05.3.15 2.35-.05.4.2.4q.1.35.35.25l.35-.35.15-.2.1-.25zm-9.35-19.6.1-.2.75-.75.1-.2-.2-.5-.1-.1-.2-.05-.3.05-.3.3-.3.4-.1.05-.3-.5q-.3-.4-.6-.4V10l-.35.1-.2.35q-.05.25.25.65l.1.15v.15l.1.1.25.25-.4.55-.25.2-.1.15v.1l-.2.25v.1l.1.15h.2l.15-.1q0-.15.15-.15l.2-.2.1-.15.65-.35.5.3.15.2.55.5.3-.05.1-.15-.15-.3-.15-.15-.05-.15-.2-.15zm-10.75 3.1.45.25.15.45-.4.3-2.45.3-7.7.7-3.6.5-2.85.35-1 .25-3-.15q-1.6-.4-2-1.25Q0 16.2 0 15.15l.1-1.45.35-.75.45-.8.75-.65q1.95-1.35 3.95-1.35l1.25.2 2.85.1 2.75.6 4.4 1.05q3.75.95 5.4 2.35zm-5.1 6.5q.15-.5.8-1.05 2.35-2 5.3-2.4l4.35-.25 2.7-.05 1.4.15 1.55.35 1.35.4 1.25.55.4.4q.15.55-.6.75l-.8.1-.25.1-1.25.05-3.85.3-2.95.65-1.3.6 1.85.6q1.3.5 2 1.3l.7 1.1.3 1.25q-.05 1.1-1.2 1.8l-1.9.7-2.45.95-2.75.7-1.9.65-2.4.7-1.15.3-8.75.5q-3.5-.3-5.15-1.85-1-1-1.3-2.45-.3-1.4.1-2.85l.7-1.6q.5-1.1 1.15-1.8 1.35-1.7 3.9-2.4l4.6-.2 2.2.55q.8.3 2.2 1.05l1.15.45zm18.65 16.2.3.3.15.1h.1l.05.05q.5.1.75-.3l.1-.2.05-.2-.1-.4-.2-.45-.3-.5v-.3l-.3-.7-.25-1.3v-.05l-.05-.1-.2-.1-.05.05-.2.25-.2 1.15-.1.35-.05.55.1.35v.25l.05.25zm.3-8.55.05 1.3.1.25v.45q.1.55.35.9l.3.25.5-.1.2-.45-.05-.5.1-2.55.4-.7v-.8q-.25-.55-.85-.55l-.1.05q-.3-.05-.6.25l-.25.65-.1.4v.85zM6.7 27v.3l-.1.35-.05.45.05.9.1.6q.2.35.5.35l.6-.2q.35-.4.05-1.2L7.4 27.4l-.1-.6-.35-.1zm-2.2 2.4.7.3.25-.15q.3-.1.3-.75l-.1-.7.05-.4-.1-.4.15-.4q-.1-.3-.35-.3-.35.05-.55.45l-.25.6-.25.95q0 .65.15.8m3.6-7.15-.25.2-.2.25-.15.6v.2l-.05.6.05.5.05.25.05 1.2.2.5.05.1q.15.2.45.2l.15-.1.1-.1.25-1v-.3l.2-.6.05-.4.15-.25.05-.25.1-.9-.15-.45q-.3-.3-.75-.3zm-3.05 1.7.15-.25.1-.3.15-.15v-.2l-.1-.5-.2-.15-.5-.15q-.2 0-.65.45l-.1.2v.1l-.05.15-.1.2-.1.3v.2l-.1.3v1.05l.05.2.05.45.05.15.2.2.5.1.2-.15.15-.3.1-.75.05-.2v-.4zm-3.6-9.05.25.2.45.25.3-.35v-.4l.1-.85.1-.35-.15-.5-.45-.2-.1.05q-.3 0-.4.25H1.5l-.15.35v.7zm2.1-1.7v.55L3.5 14l.1.95q0 .35.25.5l.5-.1.45-1.6v-.7q-.15-.3-.6-.3-.55 0-.65.45"/><path fill="#fff" d="M57.95 24.3v-.2l.25-.45.4-.55.25-.2.4-.15.45.05.35.2.2.3.05.25q.1.6-.35 1.1l-.35.35-.1.15-.05.85-.05.35-.2.4-.2.25h-.35l-.35-.15-.25-.4-.1-.3-.1-.5v-.2l-.05-.35.05-.5v-.15zm8.75-1.05.35-.25.65-.1q.55.2.7.55l.15 1.1-.05 1.25-.15.7-.5.65-.45.1-.3-.4-.1-.35-.05-.5v-.9l-.05-.45v-.1l-.2-.2-.15-.5v-.15l.1-.25zm-23.95 8.2-.1.45-.1.25-.15.2-.35.35q-.25.1-.35-.25l-.2-.4.05-.4-.15-2.35-.05-.3-.25-.9.05-.3.25-.4q.15-.2.45-.2l.15-.05q.65-.1.95.6l.15.7v.3l-.2 1.9-.15.5zm.3 5.3V37l-.25.45-.15.15-.2.3-.3.15-.25.05q-.3.1-.6-.2l-.15-.15q-.2-.35-.05-.8l.3-.4.45-.45.25-.4.1-.25.15-.4.05-.25.15-.5.05-.35.1-.3.1-.2.25-.1.2.15.05.15.15.75-.15.55v.35l-.1.25v.3l-.05.5zm22.25-10-.05-.1v-.1l-.05-.1v-.4l.1-.1.05-.1q.15-.15.4-.15l.2.05.15.15.1.15.1.1.05.1.05.5.05.1V27l.1.3v.25l.1.35v.5l-.05.25-.2.3-.3.2h-.45l-.45-.3-.15-.4.1-.5v-.1l.1-.3v-.2l.05-.2zm-4.35-1.2.35.25.1.1v.1l-.1.2.05.1.05.25v.2l.1.25v.15l.25.35.25.2.05.15.1.45v.15l-.05.15-.15.25-.2.15-.3.15h-.35l-.3-.15-.2-.25-.15-.25-.2-.45-.1-.1v-.15l-.05-.15.05-.2v-.4l.1-.2.05-.25v-.25l.1-.15v-.1l.1-.1v-.1q.15-.3.45-.3zM3.55 13.2q.1-.45.65-.45.45 0 .6.3v.7l-.45 1.6-.5.1q-.25-.15-.25-.5L3.5 14l.05-.25zm-2.1 1.7-.1-.85v-.7L1.5 13h.05q.1-.25.4-.25l.1-.05.45.2.15.5-.1.35-.1.85v.4l-.3.35-.45-.25zm3.6 9.05-.15.55v.4l-.05.2-.1.75-.15.3-.2.15-.5-.1-.2-.2-.05-.15-.05-.45-.05-.2v-1.05l.1-.3v-.2l.1-.3.1-.2.05-.15v-.1l.1-.2q.45-.45.65-.45l.5.15.2.15.1.5v.2l-.15.15-.1.3zm3.05-1.7.35-.05q.45 0 .75.3l.15.45-.1.9-.05.25-.15.25-.05.4-.2.6v.3l-.25 1-.1.1-.15.1q-.3 0-.45-.2l-.05-.1-.2-.5-.05-1.2-.05-.25-.05-.5.05-.6v-.2l.15-.6.2-.25zM4.5 29.4q-.15-.15-.15-.8l.25-.95.25-.6q.2-.4.55-.45.25 0 .35.3l-.15.4.1.4-.05.4.1.7q0 .65-.3.75l-.25.15zM6.7 27l.25-.3.35.1.1.6.45 1.15q.3.8-.05 1.2l-.6.2q-.3 0-.5-.35l-.1-.6-.05-.9.05-.45.1-.35zm29.8 2.1.05-.3v-.85l.1-.4.25-.65q.3-.3.6-.25l.1-.05q.6 0 .85.55v.8l-.4.7-.1 2.55.05.5-.2.45-.5.1L37 32q-.25-.35-.35-.9v-.45l-.1-.25zm-.3 8.55-.35-.95-.05-.25v-.25l-.1-.35.05-.55.1-.35.2-1.15.2-.25.05-.05.2.1.05.1v.05l.25 1.3.3.7v.3l.3.5.2.45.1.4-.05.2-.1.2q-.25.4-.75.3l-.05-.05h-.1l-.15-.1z"/></g></svg>