<svg xmlns="http://www.w3.org/2000/svg" xmlns:ffdec="https://www.free-decompiler.com/flash" ffdec:objectType="shape" width="73.5" height="40.8"><g fill-rule="evenodd"><path fill="#999" d="M73.5 16.35q.1 3-1.1 5.15-1.05 1.9-2.9 3.1l.1 1.3.15.7.55.35q1.55.6 2.1 2.15l.25 1.15.15 1.6q-.15 1.5-2.1 3.3.35.55.25 1.3l-.65 1.15q-.7.55-2.35.5l-.75-.05-.15.2q-.5 1-1.05 1.25l-1.55.15-.9-.15q-.9.75-2.45.45-1.2-.35-1.65-1.05h-.15l-1.1.3-1.35.15q-1.05 0-1.55-.35l-.7-.65-.35-.8q-.15-.7.4-1.35l-1.05-1.45-.55-1.05q-1.9.6-2.95 1.2l-1.8 1.3.75-.15 1.45-.1q.75.05 1.45.45.7.45.9 1.1.35 1.2-.6 2.1-.75.75-2 .9l-2.35-.25q-1.05-.1-2.3-.75-.7-.35-.9-.7-.3-.4-.3-1.35l.1-1.6.65-1.15q1.2-1.55 3.45-2.65 1.35-.65 4.15-1.5l.6-.15.35-.7q.75-1.05 1.8-1.6l.9-.8.1-.65.3-.95q.2-.65.45-.95l-1.2-.9q-1.35-1.2-2.05-2.8-.65-1.65-.5-3.35.1-.95.6-2.35l.9-1.85.45-.55-.5-.85q-.15-.35-.15-1.15 0-1.05.15-1.6l.8-1.7.35-.95.4-.95q.4-.5 1.1-.6.6-.1 1.15.35l.7.85L60.3 8l.65.85 5.85-.15.3-.35 2.05-2.25q.65-1 1.15-1.2.4-.2.85 0l.7.5.3 1.1.4 1.5.35 1.5.1 1.05.1.75-.05.65.1.6.05.85v.25zm-51-.6q.1 3-1.1 5.15-1.05 1.9-2.9 3.1l.1 1.3q0 .5.15.7l.55.35q1.55.6 2.1 2.15l.25 1.15.15 1.6q-.15 1.5-2.1 3.3.35.55.25 1.3L19.3 37q-.7.55-2.35.5l-.75-.05-.15.2q-.5 1-1.05 1.25l-1.55.15-.9-.15q-.9.75-2.45.45Q8.9 39 8.45 38.3H8.3l-1.1.3-1.35.15-1.55-.35-.7-.65-.35-.8q-.15-.7.4-1.35L2.6 34.15l-.55-1.05-2.05.75V30.5l1.75-.55.6-.15.35-.7q.75-1.05 1.8-1.6l.9-.8.1-.65.3-.95.45-.95-1.2-.9Q3.7 22.05 3 20.45q-.65-1.65-.5-3.35l.6-2.35q.5-1.3.9-1.85l.45-.55-.5-.85q-.15-.35-.15-1.15 0-1.05.15-1.6l.8-1.7.35-.95.4-.95q.4-.5 1.1-.6.6-.1 1.15.35l.7.85.85 1.65.65.85 5.85-.15.3-.35 2.05-2.25q.65-1 1.15-1.2.4-.2.85 0l.7.5.3 1.1.4 1.5.35 1.5.1 1.05.1.75-.05.65.1.6.05.85v.25zM.95 35.8q.7.45.9 1.1.35 1.2-.6 2.1L0 39.75v-4.3q.5.1.95.35"/><path d="M49.75 13.6q.1 3.5-1.35 5.95-1.2 2.15-3.35 3.5l.05 1.5q0 .6.15.8t.65.4q1.8.75 2.45 2.65l.3 1.3.1 1.85q-.15 1.75-2.45 3.75.45.7.3 1.55-.1.85-.8 1.3-.8.65-2.75.45l-.85-.05-.15.25q-.6 1.1-1.25 1.4l-1.8.15-1.05-.25q-1.05.85-2.85.4-1.4-.45-1.9-1.25h-.15l-1.3.3-1.55.15q-1.25-.05-1.8-.45l-.8-.85q-.4-.5-.45-.9-.1-.85.55-1.6l-1.25-1.65-.6-1.3q-2.25.65-3.45 1.3l-2.1 1.45.85-.15 1.7-.05q.9.1 1.7.55.8.55 1 1.35.4 1.4-.7 2.4-.9.85-2.35.95-1.55.25-2.7-.4-1.25-.15-2.7-.9l-1.05-.85q-.35-.5-.35-1.55l.2-1.9q.2-.55.75-1.3 1.4-1.75 4-2.95 1.55-.7 4.9-1.6l.65-.15.45-.8q.85-1.2 2.05-1.8l1.05-.85.15-.8.3-1.05.6-1.15-1.4-1.1q-1.55-1.4-2.35-3.25-.8-2-.55-3.9.1-1.1.7-2.75.6-1.5 1.05-2.1l.55-.65-.6-.95q-.15-.45-.15-1.4 0-1.25.15-1.8l.95-2 .45-1.1q.2-.65.5-1.05.45-.55 1.25-.65.7-.1 1.35.4.4.35.8 1.05l.95 1.95.75 1q3.3-.7 6.8.05l.35-.35 2.45-2.6Q45.55.4 46.1.15l1 .05q.55.15.8.6l.35 1.3.45 1.75.4 1.75.1 1.25.1.85-.05.75.1.7.1 1-.05.25q.35 1.45.35 3.2M43.7 9.15l-2.3-.45-2.95-.25-1.95.2q-3.05.4-4.5 1.25-1.9 1.15-2.55 3.4-.35 1.65.2 2.8l1 1.25q1.65 1.3 5.5 1.45l2.3.05q3.05-.05 5.75-1.05l1.5-.7 1.3-1.8.25-1.4q0-1.2-.5-2.15-.85-1.9-3.05-2.6"/><path fill="#fff" d="M69.9 15.3q.75.25.75 1.05t-.7 1.1l-1.05.1-.85-.05-1.35-.4q-.35-.3-.4-.8 0-.5.35-.85.4-.4 1.15-.4l1.3.1zm-2.25 6.45q-.15.4-.75.4l-.9-.25q-.65-.3-1.45-.3l-.9-.15-.3.2-1.5.65-.75.2q-.5 0-.7-.35-.15-.25.05-.65l.45-.5 1.25-.85.45-.2v-.8l.1-.45q.15-.45.6-.6l.85.1.5.95-.05.6.45.15.85.45 1.25.4.45.4zM43.7 9.15q2.2.7 3.05 2.6.5.95.5 2.15L47 15.3l-1.3 1.8-1.5.7q-2.7 1-5.75 1.05l-2.3-.05q-3.85-.15-5.5-1.45l-1-1.25q-.55-1.15-.2-2.8.65-2.25 2.55-3.4 1.45-.85 4.5-1.25l1.95-.2 2.95.25zm14.6 8.7-1.25.05q-.4-.05-.7-.45l-.25-.8q0-.95.9-1.35l1.75-.15.95.05q.85.25 1 1.05.2.9-.55 1.3zm-39.15-3.5.35-.6.7-.55 1.15-.1q.6.15 1 .55l.5 1.1q.05.6-.3 1.1-.65 1.15-2 .9-1.35-.35-1.45-1.7zm-9.3-.3q.55.35.75.95.25.6.05 1.15-.15.55-.65.95t-1.1.4q-.55.05-1.1-.3-.5-.35-.7-.9t-.05-1.15.6-1zm4.15 7.4-.2.5-.45.55-.85.05q-.5-.25-.3-.95l.6-.9.75-.7.35-.7.05-1.15q.05-.5.7-.6l.55.05.4.6.2.8.1.7.5.6.3.45.45.45q.25.5-.2.85l-.6.05-.55-.35-1.05-1.1h-.05l-.15.05z"/></g></svg>