<svg xmlns="http://www.w3.org/2000/svg" xmlns:ffdec="https://www.free-decompiler.com/flash" ffdec:objectType="shape" width="66.2" height="37.65"><g fill-rule="evenodd"><path d="M4.35 14.4q.2.6-.1.95-.2.45-.85.45-.35 0-.95-.4L2 15l-.45-.15q-.6-.2-.7-.75-.2-.7.4-.95l.6-.2.3-.05 1.05-.85.75-.4q.45-.15.85 0 .5.25.45.7l-.6.75-.95.6zM3.6 33.05l-.1.4-.4.45-.95.05-.7-.7-.2-.35-.25-.2-.3-.3-.35-.75-.25-.8q-.35-1.35.45-3l.3-.5.85-.8q.7-.4 1.1-.35.55 0 .8.5t0 1l-.4.5-.2.45q-.35.9-.4 1.7l.2 1.45.55.6z"/><path fill="#fff" d="M57.45 8.5q-.75-.7-.85-1.75t.55-1.9q.45-.6 1.2-.9l1.5-.15q.8.15 1.35.75.6.6.75 1.4l.05.6-.15-.05q-1.7-.15-2.95.85l-.95.95-.25.4zm-7 3.15q.25-1.1 1.3-1.7l1.45-.2q.75.05 1.25.55l.6.7q-1.05-.1-1.9.75-.85.75-1.1 2.35v.4q-.8-.25-1.3-1.05-.5-.9-.3-1.8m5.95 2.1q.95-.45.85-1.6l-.1-.6q-.1-.35.15-.7.25-.4.85-.25l.55.3.65.15.6-.1.45-.8q.25-.6.65-.45.35.1.35.8l-.1.55-.4.55.3.65.45 1.75q0 1.05-.65 1.65-.75.65-1.95.3-.85-.35-1.65-1.2l-.1-.1-1.05.05q-.45-.1-.35-.5zm2-1.15-.2.85.5.4.85.6.65.1q.45-.25.25-.9l-.35-.85-.25-.45-.9.05-.55-.1zm-41.3-1.05q-.9-.2-1.65-.95-.65-.7-.9-1.6-.3-1.45.6-2.8.95-1.25 2.45-1.35 1.65-.15 2.7 1.05 1.15 1.2.9 2.8-.15 1.45-1.4 2.35-1.3.8-2.7.5"/><path fill="#717171" d="m57.45 8.5.25.2.25-.4.95-.95q1.25-1 2.95-.85l.15.05-.05-.6q-.15-.8-.75-1.4-.55-.6-1.35-.75l-1.5.15q-.75.3-1.2.9-.65.85-.55 1.9t.85 1.75m8.05-.25q.8 2.05.2 4.3-.4 1.55-1.25 2.75l.8 1.05.95 1.65v13.05q-.85-.05-1.6-.7-.65-.5-1.2-1.75l-1.05-2.1-1.8-4.55-1.25-2.55-.25.2q-.7.7-2.4 1.4l-3.7 1.2-.7.25-2.2.35q-1.3 0-2-.85-.8-.95-.3-2-.7.15-1.15-.55-.4-.6.05-1.3.55-.65 1.2-.4.35.05.85.45l.6.55.3-.05L51 19l1.35.35 3.25-.65.2-.05-.4-.1q-1.2-.35-2.45-1.25-2.2-1.55-3.1-3.45l-.3-.2-.8-.5-1.25-.75-.4-.4q-.45-.45-.6-1.1t.15-1.2l.85-.8 1.85-.85.55-.1.4-.1q.65-1.25 1.8-2.45l1.8-1.55q1.15-.65 2.7-.9l1.35-1.9q.6-.8 1.1-.95.8-.3 1.65.3l1.1 1.35q1.15 1.85 1.9 3.7 1.2 1.4 1.8 2.8m-7.1 4.35v-.3l.55.1.9-.05.25.45.35.85q.2.65-.25.9l-.65-.1-.85-.6-.5-.4zm-2 1.15-.5.45q-.1.4.35.5l1.05-.05.1.1q.8.85 1.65 1.2 1.2.35 1.95-.3.65-.6.65-1.65l-.45-1.75-.3-.65.4-.55.1-.55q0-.7-.35-.8-.4-.15-.65.45l-.45.8-.6.1-.65-.15-.55-.3q-.6-.15-.85.25-.25.35-.15.7l.1.6q.1 1.15-.85 1.6m-5.95-2.1q-.2.9.3 1.8.5.8 1.3 1.05v-.4q.25-1.6 1.1-2.35.85-.85 1.9-.75l-.6-.7q-.5-.5-1.25-.55l-1.45.2q-1.05.6-1.3 1.7M44.5 28.4q-.55.35-.65.45l-.8.75-.25.15-.1-.2.05-.3.35-1.35.45-1.05.4-.45.25-.15q.75-.55 1.15-.6l1.25.2q.4.4.35.95l-.55.75-.6.25-.4.2-.45.15zm-5.85 1.8q-.25-1.7-1.9-2.7-1.5-.9-3.3-.6-1.3.2-3.5 1.4-2.7 1.4-4.55 2.6l-.2.1-.15-.1.05-.15q1-1.1 3.65-3.05 2.3-1.6 3.6-2.15 2.1-1 4.1-.75 1.65.2 3.05 1.35 1.3 1.15 1.85 2.75l.45 1.7.1.45 1.5.15 1.35.25.65.8q.15.5-.1 1l-.9.8-1.3.3-2.25.4-1.5.6q-2.15.7-4.3.65-2.35-.05-4.2-1.05l-1.05-.75q-.45-.5-.4-1.15t.7-1.1l1.05-.4.1-.1q.5-.25 1.15-.35l1.55-.15 4.8-.05z"/><path d="M6.7 6.35q1.5-1.5 4.2-2.4 1.7-.6 3.2-.75l.6-.65 1.2-1.35q.95-.75 1.7-.45l.8.6q1.2 1.2 3.2 4.35l1.35 2.2.55.85.85 2q.75 3-1.1 6.7l-1.7 2.45-.05.1q2.3 1.95 3.45 4.35l.2.35.3-1.15.85-1.6 1.45-1.7q1.05-.9 2.5-1.2l2.8.2q1.35-1.75 2.4-1.8.9 0 1.45.6.6.6.45 1.5l-.75 1.4-1.25 1.7q-.95 1.3-1.65 1.45-1 .25-1.85-.6l-.6-.55-.85.15q-2 1.05-2.65 3.9-.4 1.55-.7 4.75l-.05 1.8q-.2 1.25-.75 1.9-.6.6-1.65.95l-3.4.5-1.9-.15-.45.35q-.65.55-1.45.55-.95 0-1.4-.7-.25-.35-.2-.8l-.35-.1q-.55.6-1.65.85-1.85.45-2.95-.55-.55-.55-.65-1.35-.1-.85.3-1.5l.6-.75.25-.7.05-.15-.3.05q-.9.2-2 .95l-1.95 1.3q-1.25.7-2.7.7-1.45.05-2.6-.7L1.6 34q-2.8-2.55-.7-6.85l1.05-1.05q.65-.45 1.45-.5t1.4.3q.75.5.95 1.4t-.25 1.65l-.9.9-1 .85q-.05.45.5.65l.85-.05q.9-.2 2.75-1.2 1.7-.95 2.75-1.15.8-.15 1.75 0 1.05-3.65 2.35-6.15v-.05l-1.3.2q-2.9.2-5.3-1.2-2.5-1.45-3.5-4.1l-.1-.3-.8-.65-1.65-1.65-.85-.5q-1.4-1.15 2.55-2.9l.6-.2q.55-3.1 2.5-5.1M21.6 9.4q.15-1-.3-1.95-.5-.95-1.35-1.45-.85-.55-1.9-.5-1.1.05-1.9.65-.8.55-1.2 1.55-.4.95-.2 1.95t.95 1.75q.75.8 1.75 1l1.95-.2q1-.4 1.6-1.2l.3-.55.15-.35zm-3.25-3.1.1-.05q1.35 0 2.2 1.1.8 1.15.4 2.45-.3.95-1.3 1.55l-2 .25q-.85-.25-1.45-1-.55-.7-.55-1.65l.05-.4q.15-1 .85-1.6.8-.65 1.7-.65M5.2 15.35q-1.05 1.25-.45 2.85.6 1.55 2.25 1.9 1.65.25 2.75-.95 1.1-1.25.6-2.85-.3-1.05-1.3-1.7l-1.1-.4-1.5.2q-.8.3-1.25.95m12.55.4.2-.5q-.05-.35-.3-.55l-1.2-.2q-.8.15-1.5.5l-.1-.2q-.2-.45-.85-.45l-.1.05q-.5 0-.75.4l-.1.55.2.6.2.2-.8 1.15-.2.8q0 .45.45.65.4.1.7-.3l.45-.65q.95-1.75 3.05-1.9zM6.15 18.9q-.55-.3-.65-1-.1-.65.45-1.1.35-.3.85-.25.45 0 .8.3l.4.8-.2.85-.75.5zm10.35 8.4-.4-2.5-.65 3.1q.55-.45 1.05-.6"/><path fill="#fff" d="m21.6 9.4-.15.7-.15.35-.3.55q-.6.8-1.6 1.2l-1.95.2q-1-.2-1.75-1-.75-.75-.95-1.75t.2-1.95q.4-1 1.2-1.55.8-.6 1.9-.65 1.05-.05 1.9.5.85.5 1.35 1.45.45.95.3 1.95m-3.25-3.1q-.9 0-1.7.65-.7.6-.85 1.6l-.05.4q0 .95.55 1.65.6.75 1.45 1l2-.25q1-.6 1.3-1.55.4-1.3-.4-2.45-.85-1.1-2.2-1.1zm-.6 9.45-.65.15q-2.1.15-3.05 1.9l-.45.65q-.3.4-.7.3-.45-.2-.45-.65l.2-.8.8-1.15-.2-.2-.2-.6.1-.55q.25-.4.75-.4l.1-.05q.65 0 .85.45l.1.2q.7-.35 1.5-.5l1.2.2q.25.2.3.55zm-12.55-.4q.45-.65 1.25-.95l1.5-.2 1.1.4q1 .65 1.3 1.7.5 1.6-.6 2.85-1.1 1.2-2.75.95-1.65-.35-2.25-1.9-.6-1.6.45-2.85m.95 3.55.9.1.75-.5.2-.85-.4-.8q-.35-.3-.8-.3-.5-.05-.85.25-.55.45-.45 1.1.1.7.65 1"/></g></svg>