<svg xmlns="http://www.w3.org/2000/svg" xmlns:ffdec="https://www.free-decompiler.com/flash" ffdec:objectType="shape" width="62.2" height="40.75"><g fill-rule="evenodd"><path fill="#767676" d="M59.4 1.5q.1-.5.55-.8.4-.35.9-.3.5 0 .9.4l.45.85-.15.95-.3 1-1.1 2.4-.45.6-.75.1-.25-.75-.05-2.55.2-1.1zm1.05 7.4-.1.4-.3.4q-.55.55-1.35.35-.8-.25-.95-.95-.35-.95.45-1.5.75-.6 1.6-.15.8.55.65 1.45m-3.6 8.45h-.15v.1q.05.6-.8 1.55l-4.6 3.05-2.7 1.5-.6-.05q-.3-.25-.2-.65.15-.35.45-.6l1.9-1.95-4.75 3.15-.4.3-2.4 2.35-.85.6q-.65.2-.9-.3-.25-.4.3-1.15l8.6-11.1.7-.7.2-.2q.55-.4 1.3-.35l.5.1-.05-.05-.05-.15h.3l.15.4.85 1.1.05.35-.35 1.25-1 .75-.4.4q.45.4.35 1.15v.05l1.35-1.15 1.2-.7.2-.05.1.2q.5.65 1.45.75zm-1.65-3.2q.25-.55.8-.7l-.75.6zM9.05 4.9l.05-.2-.2-.1-.15-.15-.3.1-.25.3-.15.25.05.1v.4l.4.05.2-.15.2-.15.15-.25zm-1.4-1.55L9 3.15q.75.15 1.2.7.4.55.4 1.3t-.4 1.3l-.35.4.05.25q.1.75-.25 1.3-.6.95-1.8.85L6.9 8.9l-.15.05-.95.35q-1.25.25-2.05-.65L3.25 8q-.35-.75-.1-1.7.45-1.65 1.9-2.1l1.45.05.25.1.35-.5zm-1.7 2.7q-.55-.1-.75.5-.1.35.1.95l.75-.1.2-.05q0-.5.25-.9-.3-.35-.55-.4m2.8 19.6q-.65-.1-1.45-.9l-.3-.3-.4-.15q-1.35-.45-1.45-1.85l-.4-.8q-.2-.7.1-1.4.35-.7 1-.95l1.65.15q.6.3.85 1.05l.15.05.55.4.6.7.75 1.3.15.4q.3.85-.3 1.65-.55.75-1.5.65"/><path fill="#fff" d="m56 13.45.45-.25q.9-.45 1.65-.45 1.15 0 1.75.85.65.8.4 1.9l-.55 1-.55.4-.5.25-.45.1-1.3.1h-.05l-.25-.05q-.95-.1-1.45-.75l-.1-.2q-.3-.5-.3-1.1 0-.55.45-1.1l.05-.1z"/><path d="m49.45 14.85.1-.2-.75-1.1-.55-1.1-.2-1.15.2-2.1q.3-1.05 1.15-1.75.35-.3.85-.45l.9-.4 1.2-.05 1.2.1 1.15.65.85.65 1.15 1.7q.4.8.45 1.7l2.25-.05.8.2.75.5q.95.95 1.15 1.9.25 1.35-.7 2.85-1.05 1.6-2.65 1.9l-1.05.05h-1.85l-.55.55q-1.2 1.05-2.85.7-1.5-.3-2.55-1.6l-.45-.6q-.7-1.3 0-2.9m7.15.4.1.35h.6l1.1-.1q.55-.2.8-.9l.1-.35q-.05-.3-.6-.3l-.9.1-.6.25-.65.7zm-3.7-2.6 1.15.1.25.05-.15-1.15-.45-1.2-1.1-.8-.75.1-.35.3-.1.4q-.05.7.45 1.5l.65.7zm-36.7-5.4q1.6-1.85 3.1-2.8 2.2-1.4 5.25-1.75l3 .05 2-1.65q1.3-.95 1.9-1.05l1.3.15 1 .85.5 1.35.95 4.1q3.1 2.5 4.65 6.65.65 1.65.8 3.15.2 2.15-.4 4.05l2.1 2.65 1.9 3.95q2 5.25 2.2 8.85.1 2.55-1.1 3.7-1.15 1.05-2.65.65-1.15-.35-1.55-1.25l-1.3-.15-2.2.1-.9-.45-.8.15-.7-.1-.7-.1-1 .2-.9-.1q-.25.8-1.45 1.1l-1.85.1H27.9l-1.25-.5-.7.05-.7.05-.75-.2q-.15 0-.75.35-1 .65-2.2.3l-1.05-.55-.3.5-1.25.95-1.5.05q-.8-.2-1.3-.8l-.45-.7q-.25-.6-.15-1.3.05-1.35.85-2.95h-.1l-5.55-.25q-1.25-.15-2.1-.6L7.7 34l-1.5-.2-.7-.25q-1.1-.35-1.75-.85L2.6 31.3l-.55-1.1q-1.05-2.35.1-4.35l.4-.5-.2-.45q-.65-2.25.35-4.85.15-.5.45-.9l.05-.05-1.05-2.55q-.9.3-1.65-.45l-.4-.7q-.35-1.15.55-1.8.6-.45 1.4-.35l.15.05.6-.95q.65-.65 1.5-.4t1.1 1.1q.2.65-.1 1.35l-.45.75.5 2.35.85-.25.9.1-.1.05-.5.9q-.45 1.25.05 2.15.4.8 1.2 1 .05.7.5 1.2.45.55 1.1.75l1.3-.05.35-.15q.05 1.45-.25 2.5l-.5 1.15.15.4.1.1.9 1.25q.4.4 1.6 1.05l3.05.95 1.6-.05q-1.4-.65-2.6-1.95-1.8-2-2.55-5.2-.3-1.5-.2-2.75l-.4-.4-.15-.2-.65-.6-.5-.65-.6-.9-.5-.85q-.6-1.1-.7-1.8-.15-1.05.35-1.85.55-.75 2.1-1.35l1.95-.7.5-.2q.95-2.05 2.5-3.9M27.9 24.6l.75-.2.1-.05-.3-.35-.5-.95-.15-.6-.15-1.6.15-.7.3-.85.05-.05-.9.1-.6.85-.25.9-.75.5-.1.1-.15-.15-.2-.4q-.2-.3-.55-.4-.35-.15-.65 0l-.45.5v.7l.45.55.25.2-.2.15-.7.55-.25.75q.05.45.35.7.6.7 1.45.15l.55-.65 1.05-1.05.3.7q.45.6 1.1.6m-9.7.15.65-.3.65-.45q.65-.6.85-1.85.15-.9-.1-1.8-.35-.95-1.05-1.45l-.35-.2-2.95 1.65-1.4.35h-.1l-.3.7q-.2.8.1 1.7.35.9 1.1 1.25l1.8.45zM30.3 11l-.85-.2-3.75 2.9-.3.25-.1.75.15 1.05q.25 1.1 1.4 1.95l.55.35.8.25.45.05.45-.8.4-.5q.7-.8 1.8-1.15l1.8-.15q.45-1.15.05-2.35l-.55-1q-.75-.95-2.3-1.4"/><path fill="#fff" d="M30.3 11q1.55.45 2.3 1.4l.55 1q.4 1.2-.05 2.35l-1.8.15q-1.1.35-1.8 1.15l-.4.5-.45.8-.45-.05-.8-.25-.55-.35q-1.15-.85-1.4-1.95l-.15-1.05.1-.75.3-.25 3.75-2.9zM18.2 24.75l-1.1.05-1.8-.45q-.75-.35-1.1-1.25-.3-.9-.1-1.7l.3-.7h.1l1.4-.35 2.95-1.65.35.2q.7.5 1.05 1.45.25.9.1 1.8-.2 1.25-.85 1.85l-.65.45zm9.7-.15q-.65 0-1.1-.6l-.3-.7-1.05 1.05-.55.65q-.85.55-1.45-.15-.3-.25-.35-.7l.25-.75.7-.55.2-.15-.25-.2-.45-.55v-.7l.45-.5q.3-.15.65 0 .35.1.55.4l.2.4.15.15.1-.1.75-.5.25-.9.6-.85.9-.1-.05.05-.3.85-.15.7.15 1.6.15.6.5.95.3.35-.1.05z"/></g></svg>