<svg xmlns="http://www.w3.org/2000/svg" xmlns:ffdec="https://www.free-decompiler.com/flash" ffdec:objectType="shape" width="78.65" height="38.85"><g fill-rule="evenodd"><path fill="#767676" d="M76.5 7.9q.65.55.7 1.15l-.05.65.4.8q1.2 1.7 1.1 4.2 0 1.65-.5 3.1l-.9 1.55-1.35 1.2.1.2.75 1.6q.65 1.85-.15 3.85l.2 1.25.1 7-.15 1.75q-.4 1.45-1.7 2.15l-2.1.5-3.2-.15q-2.75-.2-3.95-.85l-1.3-.9-1 .1-1.85-.35q-3.15-.85-5.05-2.15-2.15-1.4-3.1-3.4l-.75-.45-.75-.65-1.3-1.4q-.5-.7-.6-1.4-1-.05-1.85-.75-1.05-.75-1.45-2.05l-.2-1.2.15-3.05q.2-1.1 1.15-1.9.85-.8 2-1.05 2.25-.35 4.35 1.05 1.5-1.4 2.95-2l1.7-.3.1-.35.45-1.15-.3-.2-.45-.45-.4-.6-.2-1.3q.15-1.6 1.7-2.1 1.45-.55 2.65.55l.4.55.2-.1 2.45-.3 1.6.2.45-.9Q68.5 8.3 70 7.45q1.55-.85 3.35-.75 1.8.15 3.15 1.2m-29.35 7.3.4-.75.75-1 .55-.55.6-.4q.9-.5 1.65.35.65.8.15 1.75l-.8.85-.75.8-1.05.55-1.15 1.05q-.7.8-1.2 1.05l-1.05.55q-.35.1-.6-.25-.2-.35.05-.6l.2-.25.05-.3.9-1.2zm9.35.1q-.05.8-.65 1.35-.65.6-1.45.55t-1.4-.65q-.6-.65-.55-1.4 0-1.25 1.05-1.8l2.1.1q1 .65.9 1.85m-4.3 17.95-.25.45-.5.35-1.05.05-.6-.4q-.3.35-.8.55l-1.55-.15-.9-.95-.5-.75-.6-1.4-.1-.4-.15-.2-.25-.55-.25-.8q-.05-.4.3-.85.45-.35.9-.3.6.05 1.35.9l.7.75.25.3 1.55 1.65.2.25.25-.2q.85-.45 1.6.15.75.65.4 1.55M27.55 8.7q.6.3.9 1.25l.3 1.5.2.85-.1.95-.35.55q-.3.1-.7-.3-.95-.95-1.65-2.25-.6-1.1-.3-1.9.2-.45.7-.65.55-.2 1 0m-.8 13.65.65.8.6 1.25.05.75q.05 1.2-.6 2.25-.65 1.1-1.75 1.6l-1.35.3-.35-.05-.1.4.6-.1q.45.05.8.55l.3 1v.05q.6.4.85 1.1.3.75.15 1.5t-.75 1.3q-.55.55-1.3.65l-.1.05h-.5l-.1-.05q-.85-.1-1.4-.6l-1.65.35-.25.05-.25.3q-.85 1.6-2.5 2.4-1.7.75-3.5.3l-1-.55q-.4-.45-.25-.85L9.9 37q-3.2-.15-4.9 0l-1.55.1q-.9-.05-1.45-.4-.9-.55-1.25-1.85l-.1-2.25Q1 22.3.8 18.85q-.2-2 .2-3.05l-.25-.2q-1-.75-.65-2.05.25-1 1.35-1.5 1.25-.6 3-.35l.65.1.8.4q.8-2.05 2.8-4.1-.75-1.25-.1-2.55.6-1.25 1.95-1.5l.8-.05q1.1.15 1.7.9l.6 1q2.3.05 3.85 1.35.75.6 1.75 2.1l1.05 1.95.05.2h.3q.95.05 1.65.55l.5.4v.1q.55.65.7 1.5v-.15q.25-1.1 1.4-1.35 1.1-.15 1.7.8l.25.5.8 2 .6 1.7.15.75.1 1.15-.05.5-.65.55-.8-.25-.3-.4-.1-.05-.65-.8-.2-.3-.1-.3-.1-.2-.15-.3-.2-.25-.25-.45-.85-1.3-.25-.35-.05-.1-.3-.75-.35 1.15-.25.4.4.6.4.25.6.75.65.6.5.85.4.4.5.9q.2.65-.3.9l-.5-.05-1.5-.8L24 21q1.7.3 2.75 1.35M3.9 7.9q.1-.55.55-.9t1-.35l1 .4q.45.4.5.9.1.5-.2 1.05-.3.5-.8.65-.55.2-1.1 0l-.8-.7Q3.8 8.5 3.9 7.9m26.85 24.6q.5.85 0 1.7-.25.5-.8.75l-1.15.1q-.55-.15-.95-.6-.35-.5-.35-1.1 0-.55.35-1.05.4-.5.95-.6l1.1.1q.55.2.85.7"/><path d="m69.75 23.35-1.3 1.35-.8.6q.55 1.05.75 2.2.25 1.8-.4 3.35-.45 1.15-1.25 1.75-.8.7-2.15.9l-2.75-.15q-.7 1.2-1.4 1.65l-1 .55-2.35.55q-1.4 0-2.1-.9l-.65-1-.45-.95-.4-.05-.45.5q-.4.25-.6-.2l.05-.4.2-.45.25-.45.5-.3q1.1-.35 2 .4l.7.6 1.3.25 1.25-.5.4-.3.3-.45-.05-.05q-.9-.95-1.3-1.75-.8-1.9.05-4.15.75-1.8 2.65-3.3l.35-.2-.2-.95q-.05-1.45.6-2.65l.1-.1-.25-.5q-.5-1.3.1-2.55l.7-1q.6-.65 1.2-.8l.95-.1.9.1q1.45.4 2.05 2.1l.1.35q.35.1.7.3l1.05.8.25.3.05-.05 1.85.05.65.35.55.45.45.7q.3.55.3 1.45l-.15.75-.25.55q-.85 1.05-2 1.35h-.75l-.05-.1h-.1l.45-.65-.05-.95q-.45-.95-1.5-.8-.45.1-.8.45l-.2.35.3.05.35.3.25.5.25.45v.6zm-3.6-1.55-.2-.25.3-.6.05-.15-.15-.3-.3-.1v.05h-.1l-.15.05-.35.35-.05.15-.3-.05-1.1.1q-.6.4-.6.85-.1.55.45.9.5.25 1 0-.1.6.45.85l1-.15q.35-.3.35-.8zm-.8-4.3-.85-.7q-.6-.2-1.1 0-.5.25-.8.8l-.15.7.35-.05.9.2.5.25q.5.35.6.9l.4-.4q.35-.45.35-1.05zM45.1 2.6l.4.45L47.05 3q.75.05 1.35.6.6.5.6 1.35l-.05.55-.65 2.85-.2.7-.55 2.85-1.05 2.4-.5.75q1.25 1.1 2 2.6.8 1.35 1.4 3.75.6 2.15.6 3.55l-.05 1.2.55.95.25.35.1 1.3-.05.6-.3.7q-.7 1.25-1.65 1.55l-.85.1q-.85-.05-1.55-.55L46 30.7l-3.2.85-7.8.55-4.85-.55q-1.35-.35-2.35-.95l-.1.2q-.45 1.35-1.8 1.7-1.25.45-2.4-.4l-.25-.3-.55-.75q-.3-.45-.3-1.55l.05-1.2.1-.65q.25-.65.8-1.2l.7-.55.35-.1q-.25-1.35-.1-2.9.4-3 2.5-6.1 1.2-1.75 2.75-2.9l.25-.15q-1.25-2.5-.8-5.6L29.25 7l-.5-.8-.35-1.25q-.25-.9-.2-1.55.15-1.25 1.4-1.65l.6-.1 2.7.2.05-.05q3.3-2.35 7.4-1.6 1.3.25 2.45.8 1.55.75 2.3 1.6m-5.95 10.5.7.4q.45.1.75-.3l.15-.85-.45-.5-.2-.25q-.4-.5-.35-1.2l.1-.4.1-.15-.1-.15h-.35l-.4.2q-.35.25-.45.85l-.05.2-.85.1-.1-.25.1-.6-.2-.45-.4-.2q-.25-.05-.45.15l-.25.4.1.8-.05.2-.7.1-.5.2q-.25.15-.15.5l1 .6h1.6l.5.1.55-.1zM34 7q-.75-.9-1.85-.9-.8 0-1.45.55t-.85 1.3q-.15.8.2 1.55l.65.85 1.4-.4h1.15l.6.2.2-.25q.5-.6.45-1.45 0-.85-.5-1.45m11.5 1.2q.25-1.15-.5-2.05-.8-1-2-.9-.75.05-1.4.55-.6.5-.8 1.2-.2.75.05 1.5l.2.35.75-.3 2.05.1 1.05.7zM15.2 21.65q-.1 1.45-1.1 2.7l-.15.2 1.4 1.6.6.9.3 1.65-.1 1.3-1.05 1.65.2.2q.25.2.45.2H17l.35-.2.1-.2.3-.45.65-1.55q.5-.55 1.15-.5l.3.05.15.25-.4.3-.3.45-.15.5v1l-.2 1.05-.75 1.45-.9.5-.8.25-.65.05q-2.05-.15-3.2-1.7l-.25.1q-1.45.3-2.9-.6-1.2-.65-2.15-2.05l-.55-.95q-.15-.55-.05-2.3l.15-.8q.15-.55.65-1.15l.15-.15-.5-.45q-1.15-1.1-1.3-2.65l-.45-.15q-.8-.05-1.5-.65l-.3-.4q-.65-.7-.4-2.25l.15-.7.1-.25q.85-1.3 2.3-1.45.5 0 1.3.35l.55.25.45.45q.65-.5 1.55-.7l1.25-.05.25-.35.65-.55q.35-.25.65-.35l.45-.1.75-.05.7.1q.7.25 1.15.8.7.8.7 1.85l-.35 1.5-.45.65-.35.35zM13.7 18q-.9.2-1.2.95-.35.85.2 1.5.5.65 1.3.65.85-.1 1.25-.8.45-.7.05-1.4-.4-1-1.6-.9m-1.65 5.5.5-.05.45-.05.45-.4.1-.6q-.15-.5-.5-.7l-.95-.2-.05-.15-.1-.2-.55-.25-.1.05q-.25 0-.35.2-.15.15-.15.45l.05.3.1.1-.1.1-.6.8q-.2.6.15.95.4.5.9.25zm-5.95-2q.1 1.15 1.15 1.55l.3-.75.85-.9q.55-.55 1.2-.5l.1.05q-.15-.6-.7-1-.9-.7-2-.2-1.05.6-.9 1.75"/><path fill="#fff" d="m69.9 23.25-.1.05-.05.05-.8.2v-.6l-.25-.45-.25-.5-.35-.3-.3-.05.2-.35q.35-.35.8-.45 1.05-.15 1.5.8l.05.95zm-4.55-5.75.2.65q0 .6-.35 1.05l-.4.4q-.1-.55-.6-.9l-.5-.25-.9-.2-.35.05.15-.7q.3-.55.8-.8.5-.2 1.1 0zm.8 4.3.3.9q0 .5-.35.8l-1 .15q-.55-.25-.45-.85-.5.25-1 0-.55-.35-.45-.9 0-.45.6-.85l1.1-.1.3.05.05-.15.35-.35.15-.05h.1v-.05l.3.1.15.3-.05.15-.3.6zM45.5 8.2l-.6 1.15-1.05-.7-2.05-.1-.75.3-.2-.35q-.25-.75-.05-1.5.2-.7.8-1.2.65-.5 1.4-.55 1.2-.1 2 .9.75.9.5 2.05M34 7q.5.6.5 1.45.05.85-.45 1.45l-.2.25-.6-.2H32.1l-1.4.4-.65-.85q-.35-.75-.2-1.55.2-.75.85-1.3t1.45-.55q1.1 0 1.85.9m5.15 6.1-.35-.6-.55.1-.5-.1h-1.6l-1-.6q-.1-.35.15-.5l.5-.2.7-.1.05-.2-.1-.8.25-.4q.2-.2.45-.15l.4.2.2.45-.1.6.1.25.85-.1.05-.2q.1-.6.45-.85l.4-.2h.35l.1.15-.1.15-.1.4q-.05.7.35 1.2l.2.25.45.5-.15.85q-.3.4-.75.3zM6.1 21.5q-.15-1.15.9-1.75 1.1-.5 2 .2.55.4.7 1l-.1-.05q-.65-.05-1.2.5l-.85.9-.3.75q-1.05-.4-1.15-1.55m5.95 2-.75.6q-.5.25-.9-.25-.35-.35-.15-.95l.6-.8.1-.1-.1-.1-.05-.3q0-.3.15-.45.1-.2.35-.2l.1-.05.55.25.1.2.05.15.95.2q.35.2.5.7l-.1.6-.45.4-.45.05zM13.7 18q1.2-.1 1.6.9.4.7-.05 1.4-.4.7-1.25.8-.8 0-1.3-.65-.55-.65-.2-1.5.3-.75 1.2-.95"/><path fill="#767676" d="M62.05 22.25q.65 1.25.15 2.3-.45.8-1.45 1.15l-1.9.25-2.15-.2q-.95-.1-1.5-.55-.7-.65-.55-1.6.25-.95 1.15-1.3-.35-.95.1-1.75.4-.8 1.35-1.1l.7-.1.75.05q.65.05 1.55.75l.85.7zm9.35 9.55-.9.35-1.25.1-2.05-.15q-1.25-.35-1.9-1.3l-1.65.05q-.95-.2-1.45-.7-.35-.45-.45-1.05-.1-.8.3-1.5.45-.75 1.15-1.1 1.3-.5 2.3.2.2-.25.55-.5 1.35-1 2.8-.95l.8.05 2.1.6q1.05.45 1.6 1.45.4.9.15 1.9L73 30.6zm-9.65 5.1q-.55.95-1.65 1.05l-1.25-.25h-.95l-1.35.1-.65.25-1.45-.15q-.8-.45-1-1.1-.2-.75.2-1.6l1.2-1.1.85-.3 1.75.1 1.1.05.05-.1q1-1 2.55-1.4l.6-.15.65.05q1.25.15 2.1.95.8.6.85 1.5 0 1.1-.9 1.4l-1.4-.1-.75.1q-.2.1-.55.7M18.1 23.75l.15.2.25.1q1.05.2 1.5.75.45.7.15 1.35l-.9 1.05q-.95.7-1.75.8l-.75.05-1.4-.2-1-.85q-.4-.65-.35-1.3l.05-.4q.1-.65.45-1.1l.75-.65 2.6-.05zm-3 13.85-1 .2q-.55-.05-.85-.4l-.5-1.3-.8-1q-.35-.3-.85-.3-.4 0-.9.3l-.85.55-1.3.15-.6-.2-.15.05q-.5.1-.95-.3l-.45-.85v-.55l.15-1.7L6 31.7l-.1-.35-.3-.3q-1.2-.85-1.15-2.25.1-.75.55-1.2 1-1.1 2.3-.5.7.25 1.3 1.05l1.05 1.65.15.85.7-.1q1.8-.05 3.65 1.2l.6.5.5.75.65 1.55.3 1.05-.25 1.15z"/></g></svg>