<svg xmlns="http://www.w3.org/2000/svg" xmlns:ffdec="https://www.free-decompiler.com/flash" ffdec:objectType="shape" width="75.45" height="39.6"><g fill-rule="evenodd"><path fill="#999" d="m73.6 7.2 1.35 2.8q.6 1.9.45 4-.1 1.95-.7 3.55-1.15 2.75-4.35 4.8-4.9 3.35-12.2 3.75-6.75.5-12.3-1.65-2.25-.85-3.75-2l-.2.05-1.7.55-1.85.8q-1.25.4-1.85-.45-.4-.55-.15-1.35l.65-1.2 2.1-3.05q-.2-1.1-.25-2.6 0-2.9.7-4.8.65-1.65 2.1-3.35Q46.25 1.5 52.7.3l5.85-.3 6.4.4q3.5.65 5.75 2.7 1.35 1.3 2.9 4.1M66 4.6q-3.4-1.05-6.8-1l-3.25.15H53.6Q49.05 4 44.7 9q-1.15 1.3-1.6 2.3-.75 1.7-.65 3.6l.1 1.35.1.55.1.3q.3 1.05 1.15 1.9 1.25 1.35 3.95 2.25 4.35 1.55 9.1 1.4 4.7-.2 9-1.95 4.3-1.8 5.45-4.65.8-2.2-.05-4.8-.5-1.7-2.25-4.25-.65-1-1.25-1.5-.55-.4-1.85-.9"/><path d="m56.05 4.35.6.05q.6-.8 1.8-1.3l2-.25.7.25q1.05.6 1.35 1.25l.05.05q.5.75.4 1.8-.05.85-.7 1.65l-.4.35-.65.4q.1 2.1-1.6 3.6l.15.2.9 1.4v-.1q.15-.25.65-.55 1.3-.75 2.45-.5.65.1 1.15.6.5.45.55 1.1.75-.65.5-1.5l.05-.25.25-.05q.55.25.55.85l-.25 1q-.45.8-1.15 1-.8.35-1.4-.3l-.4-.45h-.7q-.25.1-.25.15l-.05.3q-.05 1.05-.75 2.25l-.65.95-.55.45-.65.75-1.15.85-1.1.65-1.8.4H55l-1.7-.4-1.55-.9-.4-.45-1.1-1.9v-1.3l.15-.8q.2-.7.7-1.35.7-1.2 1.35-1.75l.45-.4-1.15-1.3-.4-.85-.05-.45h-.1l-1.3-.4q-.6-.4-.85-1l-.15-.95L49 6l.3-.65.6-.8q1.05-1.15 2.6-.9l1.25.45.65.4.05.1zm-1.3 6.45q-.2 0-.2.35 0 .45.15.65l.45.25 1.3-.1.35-.1.5.2 1.05.05.8-.7.05-.75q-.2-.45-.6-.25-.25.05-.45.45-.3.4-.55.25l-.25-.25-.2-.3q-.3-.3-.6.1l-.15.35q-.15.35-.65.35-.5.1-.7-.25zm4.85-2.15-.05-.3.5-.25q.45-.35.3-.85-.2-.45-.85-.45l-.7.3-.05-.1-.6-.5q-.65-.2-.95.45-.15.4.1.8l.1.1-.6.4-.1.2q0 .4.35.55h.7l.5-.15.6.65q.35.35.6.2l.2-.4-.05-.55zm-7.3.15.8.4-.05.1v.35l-.15.35.1.35q.1.15.3.15l.2-.1.65-.5.15.1.65.15.55-.35-.2-.7-.3-.25v-.2l.5-.5q.3-.45-.1-.85l-.9-.1-.45.55-.2.4-.2-.2-.55-.45q-.65-.2-.9.35-.4.45.1.95M49 14.25l-.55.35-.85.35-.6.6q-.6.1-.9-.3l-.3-.5-.6-.3-.6-.35-.25-.65.05-.7q.25-.6.9-.85t1.25 0l.05.05q.25-.5.9-.7.95-.25 1.6.4.6.4.5 1.1l-.3.95zm-45.85 3.5q1.5-5 5-8.3l-.2-1.15-.05-.7-.15-.7-.2-1.35v-.7l-.05-.4q.1-.6.35-1 .25-.5.8-.65l.8-.05 2.5.45 1.65.7 1.65.8.55.45.15-.1 6.25-.5q4.65.55 7.55 3.2 1.4 1.35 2.35 3.15l2.5.25 3.35.85q1.4.4 1.75 1.05.25.55.05 1.25l-.45.85-.8.65-1.7 1.2-1.5 1.4-1.1.55-.25.05q.05 3-.75 5.8-.7 2.55-2.1 4.6l6.85-2 3.15-.8v-.2q-.15-1 .1-1.8.3-.95 1.05-1.35 1.25-.7 2.35.2 1 .75 1.1 2.1l-.1.6 1.6.45q1.3.55 2.15 1.95.8 1.4.65 2.7-.25 1.95-2.45 3-1.35.65-3.85.9l-24.3 3.2-.45.7-.65.55L0 37.45V27.3q1.05-.7 2.2-1.3.35-.2.75-.3-.95-3.7.2-7.95m9.05 3.4-.2 1.4q-.1 1.5 1 2.45l1.05.6q1.65.55 3.15-.3l.8-.3 1.1 1.25q.9.55 2.8.35l.85-.2.55-.5.85-1q.35-.55.25-1.25l-.25-.4-.75-.05-.75.6-.8.55q-.55.25-1.2 0l-.95-.8-.65-1.15-1.1-.05-.6.6-.8.5q-1.35.6-2.15 0-.55-.45-.75-1.55l-.05-.6.1-.65q-.1-.45-.6-.45-.35-.05-.65.3zm-2.75-6.1q-.5.8-.35 1.8.2 1.05 1 1.55.8.55 1.8.4 1.05-.15 1.6-.9l.3-.4.15-.45-.3-.2-.5-.5-.95-1.3-.45-.85-.1-.25h-.5q-.45.05-.8.25zm20.7 3.45-.25-.2-.8.5q-1.9 1-2.95 1.05H26v.85q.15.75.7 1.3.5.5 1.3.65l1.45-.15 1.1-1 .35-1.4q-.05-.95-.75-1.6"/><path fill="#fff" d="M52.3 8.8q-.5-.5-.1-.95.25-.55.9-.35l.55.45.2.2.2-.4.45-.55.9.1q.4.4.1.85l-.5.5v.2l.3.25.2.7-.55.35-.65-.15-.15-.1-.65.5-.2.1q-.2 0-.3-.15l-.1-.35.15-.35V9.3l.05-.1zm7.3-.15v.1l.05.55-.2.4q-.25.15-.6-.2l-.6-.65-.5.15h-.7q-.35-.15-.35-.55l.1-.2.6-.4-.1-.1q-.25-.4-.1-.8.3-.65.95-.45l.6.5.05.1.7-.3q.65 0 .85.45.15.5-.3.85l-.5.25zm-4.85 2.15.3.3q.2.35.7.25.5 0 .65-.35l.15-.35q.3-.4.6-.1l.2.3.25.25q.25.15.55-.25.2-.4.45-.45.4-.2.6.25l-.05.75-.8.7-1.05-.05-.5-.2-.35.1-1.3.1-.45-.25q-.15-.2-.15-.65 0-.35.2-.35m-24.6 7.7q.7.65.75 1.6l-.35 1.4-1.1 1-1.45.15q-.8-.15-1.3-.65-.55-.55-.7-1.3v-.85h.15q1.05-.05 2.95-1.05l.8-.5zm-20.7-3.45.9-.85q.35-.2.8-.25h.5l.1.25.45.85.95 1.3.5.5.3.2-.15.45-.3.4q-.55.75-1.6.9-1 .15-1.8-.4-.8-.5-1-1.55-.15-1 .35-1.8m2.75 6.1.25-.65q.3-.35.65-.3.5 0 .6.45l-.1.65.05.6q.2 1.1.75 1.55.8.6 2.15 0l.8-.5.6-.6 1.1.05.65 1.15.95.8q.65.25 1.2 0l.8-.55.75-.6.75.05.25.4q.1.7-.25 1.25l-.85 1-.55.5-.85.2q-1.9.2-2.8-.35L18 25l-.8.3q-1.5.85-3.15.3L13 25q-1.1-.95-1-2.45z"/></g></svg>