<svg xmlns="http://www.w3.org/2000/svg" xmlns:ffdec="https://www.free-decompiler.com/flash" ffdec:objectType="shape" width="66.65" height="41.55"><g fill-rule="evenodd"><path fill="#999" d="m66.15 3.65.1.1v.45l-.2.2-.3.2-.35-.1-.3-.3V4l.05-.35.2-.2.35-.05v-.05l.4.2zm-9.1-.1.75 1.15-.05.85-.25.55q-.45.4-1.1.2l-.3-.15-.25-.45v-.15l-.25.2h-.45l-.3-.3v-.2q-.5.45-.15 1.1.35.7 1.1.5l.8-.3.75.1q.4.25.45.65.2.95-1.05 1.6l-1.95.25q-.5-.1-1.05-.5l-.45-.4-.2.1-.75.2-.55-.35q-.15-.25-.05-.7l.45-.65.2-.15-.05-.85V5.7l-.25-.05-.75-.35-.2-.5q-.05-.3.15-.5.25-.3.8-.4l1.05-.05.8-.65q1.65-.85 3.1.35m-6.1 15.4.2-.95q.6-1.1 1.8-.95l.6.15.75-.05.85.35.2.1.15-.45.5-1.05.6-.7 1.15-.05q.65.35.55 1l-.2.8q-.65 1.75-.45 5.1l.1 1.2.2.8.15.45.05.05v.05l.4 1.15.1.8q-.25.55-.9.45l-.65-.25q-.8.35-1.55-.25l-.35-.2-.4.05q-.8.1-1.4-.35l-1.05-.95-.65-.85-.7-1.55-.1-1.75zM56.1 5.1l-.05-.05-.05.1zM44.95 9.9q.05-.65.5-1.15.4-.55 1.05-.65l1.25.15.9.85q.3.5.2 1.2l-.5 1.1-1.05.55-1.2-.1q-1.25-.6-1.15-1.95m-.65 3.5q.1 3.5-1.3 6-1.2 2.2-3.35 3.6l.1 1.5q0 .6.15.8l.65.4q1.8.7 2.45 2.55l.3 1.3.15 1.85q-.15 1.75-2.45 3.85.45.65.3 1.5-.1.85-.75 1.35-.8.65-2.75.55l-.85-.05-.15.25q-.6 1.15-1.25 1.45l-1.8.2-1.05-.2q-1.05.9-2.85.5-1.4-.4-1.9-1.2h-.15l-1.3.35-1.55.2q-1.25 0-1.8-.4l-.8-.8q-.4-.5-.45-.9-.15-.85.5-1.6l-1.25-1.65-.6-1.25q-2.25.7-3.45 1.4l-2.1 1.5.85-.15 1.7-.1q.9.05 1.7.5.8.5 1.05 1.3.4 1.4-.7 2.4-.9.9-2.35 1.05l-2.7-.3q-1.25-.1-2.7-.85l-1.05-.8q-.35-.5-.35-1.55 0-1.45.15-1.9l.75-1.3q1.4-1.8 4-3.1 1.55-.75 4.85-1.75l.65-.15q.15-.45.45-.85.85-1.2 2.05-1.85l1.05-.9.15-.8.3-1.05.55-1.15L24 22.1q-1.55-1.35-2.35-3.2-.8-1.95-.6-3.9.1-1.1.7-2.75l1.05-2.15.5-.65-.6-.95q-.15-.4-.15-1.35 0-1.25.15-1.85l.95-2 .4-1.1q.2-.7.5-1.1Q25 .55 25.8.4q.7-.1 1.35.4l.8 1 1 1.9.75 1 6.8-.2.35-.35Q38 3.2 39.25 1.5 40 .35 40.55.1q.5-.2 1 0l.8.6.35 1.25.5 1.75.4 1.75.1 1.25.1.85-.05.75.1.7.1 1v.25q.35 1.4.35 3.15m2.6 18.35q-.5-.4-.5-1.05 0-.8.65-1.2l1.45.05q.7.45.6 1.35-.15.85-1 1.1-.65.15-1.2-.25m12.1 3.4q.2.65 1.3.45l1.45-.2q.5.15.6.85.05.5-.3 1.05l-1.4.85-1.7-.15q-.9-.35-1.45-1.2h-1l-.5-.15-.2-.25q-.35-.55-.05-1 .2-.3.8-.5l.45-.05.05-.35v-.05l-.7-.5-.1-.35.2-.6q.15-.2.7-.3l1.15-.05.25.1 1.65-.25 1.2.25q.7.4.7.95l.05.75-.15.45q-.3.45-.8.2l-.4-.45-.8-.4-.2-.2-.7.5zM19.45 3.3q-.75-.45-.5-1.3.2-.8 1.1-.8l.05-.05.85.4q.35.4.25.9l-.1.4-.4.45q-.6.4-1.25 0M18.4 23.35l-.4.15-.25.95q-.2.9-.7 1.15l-.75-.05-.6-.5q-.25-.5-.25-1.55l-.25-4.05-.2-.5-.55-.6q-.35-.4-.75-.55l-.85-.15q-.45-.2-.6-.7-.2-.5-.05-.95l.35-.55.7-.25 1-.1q1.05.05 2.1.95l.15.1 1.65-.05q.9.3 1.3.85l.3 1.5.1 2.3q.1 1-.2 1.55zM11.95 5.7l.15-.3-.05-.05-.85.05q-.2.5-.7.4-.3-.05-.6-.3h-.05l-.75-.05q-.8-.4-.65-1.35.15-.8.9-1.2.7-.35 1.55-.35h.65l1.05.3q.85.3 1.35 1.05l.3.55.2-.1.85-.35.5-.05q.25.1.35.3.25.5-.05.85l-.75.35-.8.4-.1.05-.55 1.4.05.05.35.65.05.5-.55.45-.45-.1-.5-.35-.8.35-1 .1-1 .05q-.8-.25-1.1-.9-.4-.75.1-1.4.6-.65 1.3-.35l.5.35.2.2q.45-.3.9-1.2m-9.2 7.05-.05-.5q.2-.9.9-1.2l1.45.05q.9.55.8 1.5t-1 1.35q-.95.35-1.6-.3zm1.55 23.7-.7-.2q-.4-.3-.25-.7l.4-.45.6-.3.4-.75q.1-.45-.2-.75-.35-.35-1.25-.35l-.55.25q-.1.1-.05.35l.05.35-.15.8-.65.45q-.85.15-1.5-.5-.45-.5-.45-1.3t.4-1.4q.75-1.1 2.5-1.3 1.3-.15 2.3.4l.45.25.5-.2.4-.2.1-.05q.4 0 .5.25v.5l-.35.3-.4.25.25.5.25-.1 1.2-.05q.6.15.6.8.05.7-.7 1.2l-1.4.25-.7 1q-.7.75-1.6.7"/><path d="M66.45 9.75q.25.5.15 1.65l-.25 1.7-.55 1.05-1 1.05-.75.05q-.4-.15-.5-.5t.25-.85l.4-.85q.05-.55-.95-1.55-.6-.7-.65-1.2-.15-.85.3-1.3.35-.4 1.05-.5l1.5.2q.75.35 1 1.05m-18.4 16.5-.35-.4-.45-.25-.95-.9-1-.55q-.85-.9-1.4-1.1-.2.25-.25.7l-.1.7-.35 1-.3.65-.85.25-.7-.55-.15-.5.1-1.2.2-1.1.15-1.95-.05-.6q0-.5.4-.95.35-.4.9-.5.55-.05 1.35.35l1.15.85.8.5.15-1.85q.4-3.45 1.35-4.9.5-.85 1.4-1.6.75-.8 1.7-1.4 1.9-1.15 4.2-1.1 2.3 0 4.1 1.25l1.35 1.3q.55.8.75 2l.15 2.2-.15 1.45q-.25.8-1 1-.9.2-1.95-1.1l-.6-.65-.2 1.8q-.1 1.15-.75 1.55-.7.45-1.65-.2L53.8 19.2q-.85-.85-1.5-.9-.6 1.4-.8 4v1.1q.15.95 1.15 1.6l.4.25-.1-.6q-.15-.75.45-1.35.65-.65 1.4-.3l.9.7.8.95.5.85q1.2-.4 1.7-1.45l.55-1.7q.25-1 .85-1.4l1.2-.15q.7.15 1.1.65.7.85.8 2.4l-.1 2.25.75 1.35.75 1.45q.1.9-.75 2.15-.75 1-1.5.85-.4-.05-.65-.5-.2-.4-.1-.8l.15-.7-.3-.5-.55.4q-1.8 1.35-4.95 1.15l-.5-.05-.1.8-.45 1.05q-.35.4-1.4.6l-1.25.15q-.7-.1-1.05-.65-.45-.85.6-1.8l.55-.45.15-.8-.25-.2-2.4-2zm-29.1-8.5q-.45-.9-2.3-1l-.75.15q-.2.15-.3.85-.25 1-1.1 1.3L12.8 19l-1.05-.7-1.25-.2-1.2-.2q-.9-.55-.8-1.6.05-.85.65-1.7 1.1-1.75 3.15-2.75 1.9-1 4.15-1.15 2.3-.25 4 .55 1.65.8 2.7 2.6l.1-.25.5-.95q.3-.3.8-.3l.9.25 1.45 1.1 1.1.7.9.9q.4.6.1 1.35-.35.75-1.05.85-.8.2-1.75-.65l-.45-.4-1.45 3.15-.1.2-.2 1.25q-.3 1.7-.95 3l.15.2.25.8.45 2.6.05.7-.45.4-.65-.05-.35-.5-.25-.55-.6-.75-.3-.55-1.55.9q-1.35.6-3.3.55l-.3.65-.55.8q-.45.45-.9.3-.5-.15-.7-1.05-.1-.5-.05-1l-1.6-.55q-1.55-.75-2.2-2.1Q9.8 24 9.9 23q.1-1.15.95-1.85.4-.35 1-.4l1 .25.65.55.6.5 1.25.1-.05-.5.05-1.4q.15-.45.6-.75.45-.25.95-.2t1.3.65l.5.45.25-1q.3-1.05 0-1.65m-12.65.3.4.6q.1.45-.2.65l-.7.05-.7-.25q-.75-.05-1.4.65l-1.2 1.1q-.95.5-1.5-.15-.55-.55-.3-1.35.2-.55.9-1.1 1.6-1.2 3.6-.7zm-1.9 8.7q.15-.7.55-1.25l.45-.65.2-.65 1.15-1.6q.35-.35.6-.45.5-.1.65.25.15.2-.25.85-.4.7-.2 2.5.2 1.6-.4 2.4-.6.7-1.4.6-.9-.1-1.2-.8-.25-.5-.15-1.2"/></g></svg>