<svg xmlns="http://www.w3.org/2000/svg" xmlns:ffdec="https://www.free-decompiler.com/flash" ffdec:objectType="shape" width="67.85" height="33.55"><g fill-rule="evenodd"><path fill="#999" d="M65.15 6.5q-.65.2-1-.35-.4-.55-.2-1.65v-.85l-.25-.55q0-.65.7-.75.55-.05 1 .45.4.55.5 1.95l-.1 1zm-2.3-1.3.2.75q.25.75-.25 1.3-.55.7-1.25.35-.45-.2-.7-.8l-.05-1.05-.1-1.05-.45-.6q-.55-.7-.4-1.35l.4-.65q.3-.25.65-.2l.8.6.5.85.55 1zm-.35 15.85.35-.05.15-.05.75.35.35.7-.2.75-.7.45-.8-.15q-.4-.2-.5-.6-.15-.35.05-.8.15-.4.55-.6m-11.05-2.4-.5-.45-.6.95q-.5.4-1.1.45l-1.1-.25q-.5-.35-.7-.9-.15-.35-.15-1.15l.1-1.8.55-3.8.35-1.8q.3-.8 1.25-1.05.75-.3 1.65.25l.3-.5.2-.55.25-.3V7.7q.35-.4.9-.45h.35l.1-.4q.4-.6.95-.45l.85.75.6 1.8.1.35.8 2.05q.4 1.65-.45 2.3l-1.55.25.25 1.65.3 1.6q.1.95-.35 1.6l-.95.7q-.6.2-1.15 0t-1.25-.8m5.2 7.85.4-.55q.15-.3-.15-.7l-.5-.7-.6-.7q-.7-1.1-.1-2.1.3-.5.85-.7l1.1.05q.65.3 1.05 1.4l.7 1.9q.3.95.05 1.4l-.5.45-.55.35-1.3 1.45-.75.7h-.55l-.3-.4.15-.55zm7.5-.55-.75-.55q-.25-.4-.15-.85.15-.85 1.15-.95l.6.1q.7.3.6 1.3-.2.85-.9 1zm.35 1.65q1.5-.25 2.5.75 1.15 1.05.75 2.45l-.7 1.2Q66 33.2 64.3 33.35l-1.55-.25q-1.25-.7-1.05-2.4.1-1.15.9-2 .8-.9 1.9-1.1M27 3.8l.9-.55 1.6-.2q.95.2 1.15 1 .25.75-.45 1.3l-.9.4-1.35.35q-.85 0-1.2-.85-.3-.7.25-1.45m5.6 1.95-.55-.4q-.45-.55-.2-1.2.3-.6 1-.7l1.2.3 1.1 1q.35.8-.25 1.4t-1.35.3zm-7.5-.65q.7.65.25 1.65l-.9 1.15-1.05.6-1-.25q-.45-.35-.5-.9-.1-.7.7-1.65.65-.6 1.15-.8.8-.25 1.35.2m-13.45 10q-.45-.2-.6-.7-.2-.5 0-1 .15-.4.65-.85l.8-.85.4-.8.55-.6.85.1q.45.25.35.75l-.25.7-.2.65 1.5-.2q.85.15 1.1.95l.05.2.6-.1.85.15.55.7q.25.75-.55 1.65-1.15 1.35-2.8 2.3l-1.9.8q-1 .25-1.75-.25-1.05-.55-.7-1.55.1-.6 1-1.2l.65-.6zm25.4-2.8.2.95q-.05.55-.45.9l-.55.35q-.65.15-1.1-.55l-.25-.7-.1-.55q-.1-.45.3-.85l.85-.3q.75 0 1.1.75m-1.9 5.2q.2-.65.75-.8.55-.25 1.1.2.7.55.4 1.75l-.4.8-.85.25q-.5 0-.75-.4-.2-.25-.3-1.2zm-5.55 5.4.95.45.05.05.1-.25.65-1.25q.5-1.15 1.2-1.3l1.35.25 1.05.25 1 .4q.35.2.5.55.2.35 0 .65l-.5.35-1.7.1-.45-.1q-.25.05-.4.4-.6 1-.95 2.1v.05l.2.75.1.5h1.35l1.15.2q.6.35.75.85.1.55-.4 1.6v1.1l.1.7-.45.45-.45-.4-.55-1.7-1.75.2-.45.9q-.55.9-2.15 1.9l-1.4.75-1.25.15h-1.3l-2.3-.25q-.55-.25-1-1l-.5-1.4q-.1-.7.4-1.35.6-.6 1.35-.4l1.1.6h.8l1.05-.15 1.05-.35q.7-.35 1.5-1.65l.25-.45-1.05-.05-1.9-.25-.25 1.05q-.35.65-1.05.75t-1.3-.35l-.9-.75q-.4.3-.8 1.25-.5.65-1.25.65-.85 0-1.1-.75l-.15-.7v-1.3l.1-.9.25-.6.55-.9 1.15-.8q1.1-.7 2.1-.95l3.2-.15zM14.1 4.7q-.65-.35-.65-1-.1-.5.35-.85.3-.3.75-.3.8-.1 1.05.65.35.75-.25 1.25-.5.5-1.25.25m-3.75-.55-.55-.2-.55-.6q-.2-.4-.1-.95.1-.5.45-.85.4-.3.9-.3.55-.05.9.25l.55.75-.05 1-.6.7zM7.85 5.3Q7.7 6.25 7 7.1q-.8 1-2.2 1.3l-2.55-.2Q1.6 8 1.1 7.5.3 6.55.4 5.1.5 4 .85 3.4q.45-.7 1.45-1.25 1.5-.85 3-.6 1.8.35 2.4 1.8.4.95.15 1.95M.05 22.4l-.05-1 .2-1q.25-.55.7-.7.5-.15.85.2l.55 1.4.5.7.4.65q0 .55-.5.9l-1 .2Q.4 23.6.05 22.4M4 17.7l-.05.5.35.55.3.9-.1.45q-.2.35-.7.25l-.7-.45q-.8-1-.5-2.2l.15-.45v-.45l.15-.45.4-.3.55.15.25.55zm6.75 15.15-.7-.65q-.25-.55 0-1.25.25-.55.85-.95.35-.35.75-.4h.9l.8.3q.55.3.55 1.1l-.2.8-.15.65q-.3.75-1.25.85-.75.05-1.55-.45"/><path d="M42.6 7.6q1.05-3.1 4.95-5.85Q49.35.55 50.5.2l2.85-.1q1.4.3 2.5 1.15 1.2.95 2.4 3 1.15 1.8 1.2 3.1.1 1.2-.6 1.7-.75.55-2 0l-1.9-.85-.8-.05h-.1l-.35.75-.5 1.35q-.5.8-1.15.85l-1.6-.85-.7-.35-.05.05q-.15 1.1.1 2.35.2 1-.05 1.4l-.8.5-1 .15.15.6q.25.8 1.25 2.1l.9 1 1.2.7.05.05-.4-1.65q-.2-.95 0-1.45.2-.45.75-.55.5-.15 1 0 .65.2 1.6 1.15.35.35.6.3l.4-.3.6-1.45q.5-1.3 1.45-1.25.9 0 1.55 1.6l.6 2.15.4 1.3q.15 1.1-.4 2.1-.5.95-1.95 2-3.3 2.4-6.2 2.4l-1.05-.05-2.1 1.4-.4.45.05.5 1.15 2.65q.45.75.05 1.15-.2.4-.6.2l-.5-.4-3.2-4.4q-.25-.8.3-1.35.2-.2.65-.45l1.3-1.05-1.15-.95-.3.1-2.8.35-2.8.3-.4.15-.25.4-.15.55-.45 1.6-.1.75-.25.65q-.15.35-.55.25l-.5-.4-.3-1.05-.05-1.15.15-.75.1-1.55.25-.7.1-.7.5-.55.15-.15q.45-.3 1.2-.5l2.2-.35 1.9-.2-.45-.8q-.6-1.25-1.2-3.55l-.25-1.15-.2-.05-.95-.5-.9-.7q-1.35-.5-1.9-1l-.4-.45-.6-.45q-.95-.75-.8-1.65l.3-.65 3.25-5.8.5-.55.55.1.35.55-.25 1.2L39 8.5l-.05.4.25.3 1.2.65 1.2.6.2.15.4-1.25zM18.2 15q-.35-.6-.75-.55l-.5.25q-.8.5-1.35.5-.8.1-1.3-.4-.35-.3-.7-1.6l-.25-.4-.6-.2-1.25.05-1.35-.1Q9 12.15 9 10.7q0-1 .95-2.05 1.15-1.1 2.85-1.7 1.85-.65 3.7-.5 1.95.15 3.5 1.15.8.5 1.4 1.25l.7 1.45.2.85 1.1-.8q.9-.55 1.3-.55.7 0 1.5.8l.85 1.1.65 1.1.35.55.5.4q.25.5-.25.8l-.95.1-.9-.2-.85-.75-.15-.15-.05.15-.05-.25q-.55-.5-.8-1l-1.1.7-.15.1-1.2 1.2-.1 1.45v.15l1.2.05q1.5.1 1.8.85v1.3q-.2 1.05-.05 2.25l.1.8-.4.6q-.5.25-1.1-.35-1-1.15-.85-2.75l-.2.05-.25.15-.85.2-1.85-.15-.7.55q-1.9 1.35-3.55 1.55l-.55.1-.7.95 1.45 1.75.15.65-.5.35-.65-.25-2.15-1.2q-1.15-.45-1.3-.85-.4-.65.5-1.9-1.55-.55-2.4-1.2-1.45-1.35-1.3-3.15 0-.95.6-1.55.4-.35 1-.4t1.1.25l1.15 1.1 1.5.8q1.2.5 1.85.4.5-.05 1.2-.5 1.3-.75 1.95-1.5"/></g></svg>