<svg xmlns="http://www.w3.org/2000/svg" xmlns:ffdec="https://www.free-decompiler.com/flash" ffdec:objectType="shape" width="75.4" height="42.55"><g fill-rule="evenodd"><path fill="#999" d="m73.55 1.9.45-.05V1.8l.45.1.3.15.2.15.1.15.1.15.05.1.1.1.05.15.05.15v.3l-.05.15v.1l.05.15V4l-.05.15V6.4l.05.15v29.7l-.05.15v1.35l-.05.15v.6l-.05.15v.75l-.05.15v.3l-.05.15v.95l-.05.15v.15l-.1.15-.05.15-.1.15-.1.15-.2.15-.2.15-.2.1-.2.05-.35.05h-.05L73 42.3h-7.65l-9.95.05H39l-10.4-.05H8.5l-2.35-.05-.35-.05-.8-.05-1.3-.05-.65-.05-.1.05-.2.15-.3.15-.25.1-.4.05-.55-.1-.35-.15-.2-.15L.55 42l-.15-.15-.1-.15-.1-.15-.05-.15-.05-.15-.05-.15v-.15L0 40.8V29.85l.05-.15v-7.05l.05-.15v-9.6l.05-.15V9.9l.05-.15V9.6l.05-.15v-.9L.3 8.4V5.25l.05-.15V3.3l.05-.15v-.3l.05-.15v-.3l.05-.15.05-.15v-.15L.6 1.8l.1-.15.15-.15.15-.15.2-.15.25-.1h.35v-.05l.45.1.15.1-.1.35q-.25 1.05.5 1.95l.75.7.85.75 1.4 1.3 2.55 2.6.65.4.55.1.15-.5-.9-1.85L6.05 1.4 6 1.3h6.7l6.6.05h.2l-.05.25q-.05.5.35 1.5l.85 1.85 1.5 3.35.5 1 .45.55q.45.15.65-.4v-.8L23 2.7l-.3-1.3h1.25l9.25.05 4.65.05H49l.85.05 1.55.05 1.65.05-.25 1.05-.75 5.95v.8q.2.55.65.4l.45-.55.5-1 1.65-3.6.7-1.6.35-1.45h4l6.4.05 1.45.05 1.15.05.2.05L67 7.05q-.8 1.35-.9 1.85 0 .4.15.5l.55-.1.65-.4L70 6.3l2.1-1.9.15-.15.75-.7q.6-.7.55-1.5zm-12.4 4.75q-.4.4-.65 1.2l-.3 1.4-1.05 3.85-1 2.8v.7q.1.25.4.25l.45-.15.35-.65.55-.6.65-.85 2.3-3.9 1-1.45q.5-.95.35-1.65-.15-1.05-1.25-1.4-1-.35-1.8.45M52.1 34.4q-.35.7-.3 1.05l.2.5.45.2.7-.55q6.45-9.05 13.3-17.15l1.45-1.65 1.15-1 .9-1.2q.7-1.45-.1-2.7-.4-.6-1.1-.85L67.4 11q-.95.35-1.85 1.95l-6.75 10.7q-4.55 6.9-6.7 10.75m17.85-11.35q.4-1.1-.55-1.9-.95-.75-2.05-.25-.65.35-1.4 1.5l-1.75 2.75q-.4.5-.25.8t.6.3l.7-.2 2.6-1.2q1.8-.85 2.1-1.8M51.3 24.4l.45-.4.25-.45 1.8-4.3 2.2-3.7q1.05-1.8.9-2.75-.1-.7-.6-1.15-.55-.5-1.2-.6l-1.25.2q-.65.35-.95.95-.2.55-.3 1.7l-.45 2.3-.7 2.35L51 20.3l-.75 4.05V25q.1.2.35.2l.4-.15zm7.75 13.45 1.8-1.55 2.9-1.9 2.35-2.05 1.15-.95q.5-.5.55-1.3t-.35-1.4q-.4-.65-1.15-.85-.75-.25-1.45 0-1 .35-1.95 1.8l-2.95 4.1-2.8 3.85q-.45.75-.15 1.1l.9.05zm5.7-.7-1.1 1.05-.55.35q-.35.25-.35.55v.1q.05.4.35.45l.6-.2.55-.05 1-.2 3.4-.9 2.05-.9 1.3-.65.6-.7.15-.5q.25-.8-.1-1.45l-.05-.1q-.3-.6-1-.9l-1.45-.05q-.3.1-.9.5L65.8 36.2zm-53.7 0L10 36.2l-3.45-2.65-.9-.5-1.45.05-.6.4-.45.6q-.35.65-.1 1.45.1.6.55 1.05l.2.15q.5.4 1.3.65l2.05.9 3.4.9 1 .2.55.05.6.2.35-.45v-.1l-.35-.55-.55-.35zm5.7.7 1.15.9.9-.05q.3-.35-.15-1.1l-2.8-3.85-2.95-4.1q-.95-1.45-1.95-1.8-.7-.25-1.45 0-.75.2-1.15.85-.4.6-.35 1.4t.55 1.3l1.15.95 2.35 2.05 2.9 1.9zm-10.9-14.8q.3.95 2.1 1.8l2.6 1.2.7.2q.45 0 .6-.3t-.25-.8L9.85 22.4l-1.4-1.5q-1.1-.5-2.05.25-.95.8-.55 1.9M23.7 34.4q-2.15-3.85-6.7-10.75-4.75-7.2-6.75-10.7-.9-1.6-1.85-1.95l-1.35.05q-.7.25-1.1.85-.8 1.25-.1 2.7l.9 1.2 1.15 1 1.45 1.65q6.85 8.1 13.3 17.15l.7.55.45-.2.2-.5q.05-.35-.3-1.05M14.65 6.65q-.8-.8-1.8-.45-1.1.35-1.25 1.4-.15.7.35 1.65l1 1.45 2.3 3.9.65.85.55.6.35.65.45.15.4-.25v-.7l-1-2.8-1.05-3.85-.3-1.4zM24.5 24.4l.3.65.4.15.35-.2v-.65l-.75-4.05-.45-1.75-.7-2.35q-.3-1.05-.45-2.3l-.3-1.7-.95-.95-1.25-.2q-.65.1-1.2.6-.5.45-.6 1.15-.15.95.9 2.75l2.2 3.7 1.8 4.3.25.45z"/><path d="M2.4 1.25Q2.65.45 3.55.1q1.1-.35 1.9.4l.55.8.05.1L8.8 7.05l.9 1.85-.15.5L9 9.3l-.65-.4L5.8 6.3 4.4 5l-.85-.75-.75-.7q-.75-.9-.5-1.95zm17.1.1q.15-.8 1-1.1.85-.4 1.65.25l.55.9.3 1.3.75 5.95v.8q-.2.55-.65.4l-.45-.55-.5-1-1.5-3.35-.85-1.85q-.4-1-.35-1.5zm33.55.3q.2-.8.6-1.15.8-.65 1.65-.25.95.35 1.05 1.35v.05L56 3.1l-.7 1.6-1.65 3.6-.5 1-.45.55q-.45.15-.65-.4v-.8l.75-5.95zm16.5.2.2-.45.6-.9q.8-.75 1.9-.4 1.1.4 1.25 1.5l.05.3v.15q.05.8-.55 1.5l-.75.7-.15.15L70 6.3l-2.55 2.6-.65.4-.55.1q-.15-.1-.15-.5.1-.5.9-1.85zm-4.8 35.3 1.05-.95 3.45-2.65q.6-.4.9-.5l1.45.05q.7.3 1 .9l.05.1q.35.65.1 1.45l-.15.5-.6.7-1.3.65-2.05.9-3.4.9-1 .2-.55.05-.6.2q-.3-.05-.35-.45v-.1q0-.3.35-.55l.55-.35zm-5.7.7-1.15.9-.9-.05q-.3-.35.15-1.1l2.8-3.85 2.95-4.1q.95-1.45 1.95-1.8.7-.25 1.45 0 .75.2 1.15.85.4.6.35 1.4t-.55 1.3l-1.15.95-2.35 2.05-2.9 1.9zM51.3 24.4l-.3.65-.4.15q-.25 0-.35-.2v-.65L51 20.3l.45-1.75.7-2.35.45-2.3q.1-1.15.3-1.7.3-.6.95-.95l1.25-.2q.65.1 1.2.6.5.45.6 1.15.15.95-.9 2.75l-2.2 3.7-1.8 4.3-.25.45zm18.65-1.35q-.3.95-2.1 1.8l-2.6 1.2-.7.2q-.45 0-.6-.3t.25-.8l1.75-2.75q.75-1.15 1.4-1.5 1.1-.5 2.05.25.95.8.55 1.9M52.1 34.4q2.15-3.85 6.7-10.75l6.75-10.7q.9-1.6 1.85-1.95l1.35.05q.7.25 1.1.85.8 1.25.1 2.7l-.9 1.2-1.15 1-1.45 1.65q-6.85 8.1-13.3 17.15l-.7.55-.45-.2-.2-.5q-.05-.35.3-1.05m9.05-27.75q.8-.8 1.8-.45 1.1.35 1.25 1.4.15.7-.35 1.65l-1 1.45-2.3 3.9-.65.85-.55.6-.35.65-.45.15q-.3 0-.4-.25v-.7l1-2.8 1.05-3.85.3-1.4q.25-.8.65-1.2M24.5 24.4l-.45-.4-.25-.45-1.8-4.3-2.2-3.7q-1.05-1.8-.9-2.75.1-.7.6-1.15.55-.5 1.2-.6l1.25.2.95.95.3 1.7q.15 1.25.45 2.3l.7 2.35.45 1.75.75 4.05V25l-.35.2-.4-.15zM14.65 6.65l.65 1.2.3 1.4 1.05 3.85 1 2.8v.7l-.4.25-.45-.15-.35-.65-.55-.6-.65-.85-2.3-3.9-1-1.45q-.5-.95-.35-1.65.15-1.05 1.25-1.4 1-.35 1.8.45M23.7 34.4q.35.7.3 1.05l-.2.5-.45.2-.7-.55q-6.45-9.05-13.3-17.15L7.9 16.8l-1.15-1-.9-1.2q-.7-1.45.1-2.7.4-.6 1.1-.85L8.4 11q.95.35 1.85 1.95 2 3.5 6.75 10.7 4.55 6.9 6.7 10.75M5.85 23.05q-.4-1.1.55-1.9.95-.75 2.05-.25l1.4 1.5 1.75 2.75q.4.5.25.8t-.6.3l-.7-.2-2.6-1.2q-1.8-.85-2.1-1.8m10.9 14.8-1.8-1.55-2.9-1.9-2.35-2.05-1.15-.95q-.5-.5-.55-1.3t.35-1.4q.4-.65 1.15-.85.75-.25 1.45 0 1 .35 1.95 1.8l2.95 4.1 2.8 3.85q.45.75.15 1.1l-.9.05zm-5.7-.7 1.1 1.05.55.35.35.55v.1l-.35.45-.6-.2-.55-.05-1-.2-3.4-.9-2.05-.9q-.8-.25-1.3-.65l-.2-.15q-.45-.45-.55-1.05-.25-.8.1-1.45l.45-.6.6-.4 1.45-.05.9.5L10 36.2z"/><path d="M21.6 24.35q-1.9.1-2.75-.4-.75-.4-1.2-1.2-.35-.85-.3-1.7.15-.85.7-1.6t1.35-1.05l1.75-.4q2.25-.15 4.5 0l1.9.3-.45-.8q-.6-1.25-.6-2.8l-.05-.35q-.05-.8.3-2.35l.1-.3q-1.5-2.05-2-4.65-.15-.7 0-1.15.25-1 1.15-1.25l.85-.05 4.65.25.25.05q1.3-.8 3.3-1.25l2.5-.4h.85v.05l2.45.35q2 .45 3.3 1.25l.25-.05 4.65-.25.85.05q.9.25 1.15 1.25v1.15q-.5 2.6-1.95 4.65l.05.3q.35 1.55.3 2.35l-.05.35q0 1.55-.6 2.8l-.45.8 1.9-.3q2.25-.15 4.5 0l1.75.4q.8.3 1.35 1.05t.7 1.6q.05.85-.3 1.7l-1.2 1.2q-.9.5-2.9.4l-5.1-.45-3.75-.4.9 3.45.05.2q-1.35.15-2.7.65-2.3.9-3.9 2.75l-1.45 2.1-.2-.15.15-.7.1-1.2.25-1.1.5-1.9q.65-2.4.5-3.65l-.25-.9q-.4-.6-1.45-.75l-.6-.1-1.15.05q-.95.2-1.45.9l-.35.8-.3 1.05q-.15.65-.15 2.1l-.05 3.95-2.1-.25q-2.95-.1-5.6.85l-.25.15.05-.6.1-2.55.1-.05q2.1-.65 3.45-.45l.25-1.2q.35-1.85.85-3.45l-3.75.4-2.5.25-1.05-.35q-.9-.1-1.5.35zm-4.25 3.6.4-.7 1.2-1.3q.8-.6 2.1-.9h.05l-.1.2q-.65 1.55-.5 3.1l.3 2 .8 2.9h-2.4l-.1-.1-.7-.45-.25-.2v-1.85l-.05-1.3-.45-1.2zm16.9-18.4q-.35.2-.45.7l-.15.8q0 .7.15.95l.3.4.8.65.9.25q-.2 1.05.25 1.85.5.95 1.45 1.1 1.3.3 2.45-1.05.75-.85.75-1.8v-.15l.55-.35q1.05-.65 1.1-1.6l-.05-1-.1-.5q-.1-.3-.35-.3-.35 0-.55.5l-.4 1.05q-.3.65-.9.65l-.6-.3-.3-.25-.25-.35q-.4-.4-.85-.15l-.2.1-.4.7-.6.35-.55.2q-.45 0-1.05-.6l-.3-.4.05-.45V9.8l-.25-.3zm12.2-2.45-.4.5q-1.2 1.35-2.7 1.65l.2.45q.55.9 1.7.9 1.1 0 1.65-.9.35-.6.25-1.35-.15-.75-.65-1.2zM32.7 9.4l-1.15-.35q-.85-.35-1.25-.85-.2-.25-.25-.7-.6.15-.95.65-.45.5-.5 1.15-.1 1.1.85 1.8t2 .2q.9-.35 1.15-1.25z"/><path fill="#fff" d="m46.25 27.15 2-.05 1.05.15.55-.25 1.8-.9.85-.5q.55-.3.95-.25.85.05 1.15.85l-.05 1.45-.1.65-.2.45-.3 1-.15.6.8 1.35q.65 1.15.9 2.45.2 1.15-.1 3.35l-.3 1.4.15.2 1.35 1.75.4.8H18.5q-1.1-.75-1.9-1.8l-.7-1.05q-1.55-2.85-1.4-8.5 0-1.45.5-2.05.45-.6 1.3-.6l1.05.3.3.2.45 1.2.05 1.3v1.85l.15 1.7q.25 1.75.9 2.85.7 1.25 1.8 1.95v-1.25q.05-1.35.4-2.1l.6-1.15-.05-.05-.25-.8-.1-.4-.8-2.9-.3-2q-.15-1.55.5-3.1l.1-.2.5-.7.2-.2q.6-.45 1.5-.35l1.05.35.4.25.7.8.3 1.05.2 2.4-.1 2.55-.05.6.25-.15q2.65-.95 5.6-.85l2.1.25.05-3.95q0-1.45.15-2.1l.3-1.05.35-.8q.5-.7 1.45-.9l1.15-.05.6.1q1.05.15 1.45.75l.25.9q.15 1.25-.5 3.65l-.5 1.9-.25 1.1-.1 1.2-.15.7.2.15 1.45-2.1q1.6-1.85 3.9-2.75 1.35-.5 2.7-.65m.2-20.05.05.05q.5.45.65 1.2.1.75-.25 1.35-.55.9-1.65.9-1.15 0-1.7-.9l-.2-.45q1.5-.3 2.7-1.65zm-12.2 2.45.45-.05.25.3v.75l-.05.45.3.4q.6.6 1.05.6l.55-.2.6-.35.4-.7.2-.1q.45-.25.85.15l.25.35.3.25.6.3q.6 0 .9-.65l.4-1.05q.2-.5.55-.5.25 0 .35.3l.1.5.05 1q-.05.95-1.1 1.6l-.55.35v.15q0 .95-.75 1.8-1.15 1.35-2.45 1.05-.95-.15-1.45-1.1-.45-.8-.25-1.85l-.9-.25-.8-.65-.3-.4q-.15-.25-.15-.95l.15-.8q.1-.5.45-.7M32.7 9.4l-.1.65q-.25.9-1.15 1.25-1.05.5-2-.2t-.85-1.8q.05-.65.5-1.15.35-.5.95-.65.05.45.25.7.4.5 1.25.85z"/></g></svg>