<svg xmlns="http://www.w3.org/2000/svg" xmlns:ffdec="https://www.free-decompiler.com/flash" ffdec:objectType="shape" width="75" height="32.45"><g fill-rule="evenodd"><path fill="#999" d="M23.85 23q-.9-.15-1.3-1t-.05-1.65q.4-.85 2.05-1.55l6.5-3.25q4.05-2.1 6.55-3.15l1.4-.45h-1.5l-.9-.05H23.4l-1.35-.05h-10.6L9.5 11.8h-.75l-.35-.05H3.45l-.2-.05h-.3l-.3-.05h-.3l-.15-.05h-.65v-.05h-.1l-.25-.05-.05-.05h-.1L1 11.4H.85l-.1-.05-.1-.1-.1-.05-.05-.05-.1-.05-.05-.05-.1-.05-.05-.1-.1-.1v-.05l-.05-.05v-.05l-.05-.1v-.4l.05-.05V10l.05-.1.05-.05.15-.15.1-.05.05-.1.05-.05.1-.05.1-.05.15-.05.1-.05.1-.05.15-.05h.25l.2-.05h.9l.25-.05h.45l.2-.05h.85L8.45 9H9l.5-.05h5.3l7.5-.05h1.35l1.65-.05h1.35l2.5.05h4.9l2.55-.05h9.45l4.25-.05h4.95l8.2-.05h9.95l.2.05.15.05.1.1.1.05.1.05.1.05.05.05.1.05.05.1.05.05.05.05.05.05.05.05v.05l.05.1.05.05v.05l.05.05v.05l.05.05v.15l.05.05v.1l.05.05v.25l-.05.05v.15l-.05.05v.1l-.05.05v.1l-.05.05v.05l-.05.05-.05.05v.05l-.05.1-.15.15-.05.05-.1.05-.05.1-.1.05-.1.05-.1.05-.1.05-.15.05-.2.05-.05.05h-4.3L68.3 12H55.25l-5.15-.05h-6.45l.05.1q.5.95-.35 1.8l-.95.55-2.7 1.2-1.5.55-.15.05-9.4 5 .1 1.8.05 2.75-.05.85 5.1.65.9.1-.4-.6-.2-1.45q0-.95.15-1.95l.25-.65.05-.05q-.7-.15-1.1-.8-.6-1 .1-1.95.25-.35 1.25-.9l6.25-3.35q2.6-1.5 4.4-1.95l1.3-.1q.7.2 1 .7.25.55-.1 1.05l-.65.55-9.65 5.75q.75.5.65 1.45l-.05.6.1 1.7-.2 1.4-.55.8q10.7.65 17.5-2.5l-.55-.4-.5.45q-.7.6-1.55.45h-.55l-.4.25-.9.3q-.25.15-.55.25l-1.7.05q-.85-.4-1-1.35-.1-.4.1-1.4l.2-.85.05-.2-1.4.05q-.55-.25-.7-.9-.1-.6.35-1.05l.65-.45 1-.75L51.7 17q.5-.3.8-.35 1.05-.45 1.85.3.6.45.6 1.3 0 .7-.4 1.35l-.65.6-.15.1.1.2.25.5.1.1.1-.15q.35-.4 1.15-.6L58 19.8l1.95.55.8.5q.55.4 1.15 1.4l.35.65q.35.75.3 1.5.1.8-.35 1.8-.6 1.35-3.65 2.8-3.1 1.4-8.55 2.45-7.15 1.5-17.5.8l-11.45-1.5q-2.45.05-6.1-.95-2.3-.6-3.25-1.3-1.15-.9-1.65-2.4-.4-1.45.3-2.85 1-1.95 4-2.8l2.35-.1.9.8q.3.5.2 1l.25.15q.05-1.3.5-1.85.5-.65 1.35-.65.9.1 1.35.75l.35 1q.3 1.3.2 2-.1.95-.75 1.45l4 .9.15-2.75.1-.35z"/><path d="m73.7 2.3-.5-.05-.3.35-.05.3v.75l.15.5.55.2h.6q.4.1.65.45l.2.7q-.05.6-.75 1L73 6.75l-.4-.05-.35-.15q-.55-.3-.95-.8l-.25-.25-.15-.35-.25-.4-.1-.65-.1-1.15.15-.8.1-.35.75-.9.8-.55q.75-.3 1.45 0 .4.1.65.35l.45.7.05.55q-.2.65-.75.45zm-4.75-1.2q.45 1-.25 2.05l-.4.6-.3.65h1q.55 0 .9.3.45.3.45.95 0 .55-.5.9l-.95.25-2.2.05-1.1-.25q-.35-.25-.35-.65l.1-.8L66 3.6l.9-1.35V2.1l-1.6.9q-.6.1-.8-.7-.2-.65.15-1.1L65 .85Q66.1-.1 67.4 0l.6.15.35.25zm-6.4.45-.55.6q1.15 0 2.05.75l.45.6.15.9-.1.9-.4.65-1.35 1-.5.1-.35-.05-.35.05-.6-.15-1.1-.75-.3-.5-.2-.75-.05-.4.15-1.3.35-1.05.1-.05.1-.25q.4-.65.9-1l.45-.3.95-.05.4.3zm0 2.7h-.05V4.2l-.3-.05h-.45l-.35.05.05.15.1.2.45.15h.15l.1-.05.35-.25zM58.8.85l.4.75.1.65-1.5 3.35q-.4 1.15-1.15 1.15-.45.05-.7-.35-.3-.35-.3-.85 0-.45.55-1.65l.6-1.5-.6-.05-.65.05q-.65 0-.9-.55-.35-.5.1-1.05.2-.2.75-.3l2.7.1zm-6.35 5.5-.4-1.2-.4-2.4v-1.4q.2-.8.85-.95.7-.05 1.2.6l.45 1.35.3 1.75.15 1.3-.35.95q-.35.4-.9.4t-.9-.4m-4.4-2.3q-.2-.25-.1-.6l.3-.55.2-.15.25-.3.05-.25-.25-.05q-.5.15-.8.4l-.25.3h-.4l-.3-.5-.05-.6.45-.65q.2-.3.45-.35l.75-.2.35-.05.8.05.55.25.4.5.1.55-.25 1.1.95.9.2.35q.15.5-.2 1l-.45.55-.6.55q-.6.45-1.15.5l-.95.05-1.1-.1-.6-.55q-.25-.45.1-.8.25-.45.75-.35l.4.1.6.05.35-.05.25-.15.5-.35-.1-.1-.5-.2zM45.9 2.4l.1.5.1 1.6q-.15.9-.7 1.4l-.7.65-.95.35-2.3-.3-.6-.45q-.4-.25-.55-.7l-.1-.4-.1-.95.1-1.2q.35-1.55 2.2-2.15l.9-.2q1.3-.25 2.15.95zm-3.15.8-.1.2-.1.35.05.3.2.35 1 .15.45-.25.1-.25.05-.8-.2-.35-.5-.1-.65.15zm-5.4-1.35-.95.05v.5l1.45.15.5.1q.5.15 1 1l.3.85-.1.4-.5 1-.3.35-.75.5-1.65.2-.65-.1-.7-.35-.4-.55q-.15-.4.05-.7l.5-.45.7-.05.45.2h.65l.5-.45-1-.15-1.05.1-.6-.5-.2-.7.05-2.15.55-.5h.45l.95-.05 1.2.05q.55 0 .75.3l.05.35-.2.3-.55.15zm-3.6 3.95q0 .95-.95 1.2l-.8-.05-.6-.55-.2-1.2v-3q0-1.05.3-1.4.3-.4.85-.4.6.05.85.45l.3 1.05v1.55l.05 1.25zm-6.25-3 .15-.35q-.05-.2-.3-.2-.2 0-.35.15l-.8.65-.3.25-1-.05q-.55-.35-.25-1l.25-.55q.4-.5 1-.9l.75-.4.75-.05 1.15.15q.3.1.45.3l.3.4q.4 1 .1 1.9-.3.95-1.2 1.45l-.3.25 1.4-.1q.85.2 1.05.75.2.35.05.8l-.5.65-1.6.1-.45-.2h-.6l-1.1.2h-.35q-.5 0-.75-.5-.15-.5.1-1l.55-.9.2-.35.65-.7zm-9.15-.3.1-.4.4-.55L20 .5l.45-.3L21.6.1l1.2.25.35.3q.7.6 1 1.45l.1 1.25-.05 1.5-.75 1.05Q22.25 7 21.3 7l-1-.15-.65-.2-.45-.45-.35-.45-.25-.55-.3-.45-.05-.5zm2.2 2.1.35.25q.7.2 1.4-.5l.2-.25.05-.4-.1-.85-.25-.45-.4-.3-.55.05-.5.45-.2.15v.35l-.1.6.1.5zm-7.1-2.85.05 2 .1.35.05.9.35.15q.7.45.3 1.2-.3.55-1.3.75l-1.3.15q-1.15.1-1.7-.4T9.6 5.6q.2-.75.9-.9h.2l-.05-.35v-1.2l-.25.05q-.4.1-.7-.3-.25-.4-.1-.8l.4-.6.7-.65q.4-.55.85-.65l.9.15q.7.2.9.9zm3.5 2.75q.65.25.7.85.25.75-.45 1.3l-1.35.1q-.75-.35-.65-1.15 0-.7.55-1zM2.8 3.65l-.1-.5-.15-.45q-.2-.55-.05-1.2l.1-.35.45-.35.55.05.25.2.75 1 .2.55.75 1.25.4-.7.95-1.6.35-.35L8 .8l.2-.05q.4 0 .6.3.25.25.15.6l-.35.8-.1.35-.2.4-.25.85L7.3 5.5l-.25.85-.6.65-.45.2h-.45l-.1-.05-.1.05h-.4l-.1-.1-.45-.2-.55-.65zM18.7 14.45q4-2.85 10-3.95l8.6-.65 7.2.65q6 1.1 10 3.95 2.15 1.55 2.45 3.2l.3.95-.1 3.15q0 2.3-.3 2.95-.8 2-4.5 2.9L43.5 29l-5.9.35q-.85-.15-1.55 0l-6.15-.4-9.3-1.45q-3.45-.8-4.25-2.8-.3-.65-.3-2.95l-.1-3.15.3-.95q.3-1.65 2.45-3.2m6.95 8.8q-4.2-.35-6.5-1.45v.05q.1 1 .45 1.45.4.5 4.65 1.65 4.25 1.1 12.35 1.1 8.05 0 12.35-1.1 4.25-1.15 4.65-1.65l.45-1.45v-.05q-2.3 1.1-6.5 1.45l-12.95.4zm7.45-9.65-4.65.8q-5.85 1.25-8.55 3.75 2.35 1.4 7.55 2l4.25.55 5.6.2 4.9-.25 3.55-.5q5.2-.6 7.55-2-2.7-2.5-8.55-3.75l-4.65-.8-3.45-.25zm4.65.9q.35.1.3 1l1.1-.15H40l.4.4.1 1.2q.15.7-.15.95l-1 .15-1.15-.1q.45 1.1.1 1.4l-1.55.5q-.95-.1-1.5-.65-.2-.35.15-1.3l-1 .1h-1.25q-.65-.45-.15-1.35-.2-.85.75-.9l1.6-.15h.5v-.1q.1-.6.4-.8.2-.4.75-.25z"/></g></svg>