<svg xmlns="http://www.w3.org/2000/svg" xmlns:ffdec="https://www.free-decompiler.com/flash" ffdec:objectType="shape" width="75.5" height="44.45"><g fill-rule="evenodd"><path d="m29.45 36.2-2.85-.1q-1.35-.4-1.8-1.55-.35-1.05.45-2.75 2.15-4.65 7-9.6l4.2-4.2 4.2-4.2-10.65.75q.1 2.55-.4 3.7-.45.9-1.25 1.4l-1.75.3q-.8-.2-1.35-1.05-.5-.7-.6-1.65l-.05-1.75-.1-1.8-.35-2q-.1-1.2.35-1.85l.65-.55q.4-.25 1-.35l1.15-.05.2-.05h2.2l4.6-.5 1.65-.2 1.4.1q4.85-.5 7.8.05 1.75.35 2.6 1 1.35.95 1.35 2.4-.05 1.2-1.55 2.8L40.7 22l-3.85 3.5q-2.25 2.25-3.95 4.9 5.5-.9 11.15-.2-.05-.9.45-1.7.55-.85 1.4-1.15l1.75.05q.9.3 1.45 1.05.6.9.6 3.15l-.2 1.9q-.2 1-.85 1.55-.8.7-3.2.7l-2.55-.15-1.75.2-6 .35-2.6-.25z"/><path fill="#717171" d="M3.5 0h.35L4 .05h.25l.1.05h.05l.05.05.15.05.15.05.15.05.15.05.1.1.1.05.1.05.15.05.05.1.1.05.1.05.05.05.05.1.1.05.05.05.05.05.05.1.05.05.1.1.05.1.05.05.05.05v.05l.05.1.05.05.05.05v.05l.05.1.05.05v.05l.05.05v.1l.05.05v.05l.05.1v.1l.05.05v.1l.05.05v.05l.05-.05.15-.05.15-.1.15-.05.1-.05h.1l.05-.05h.15l.15-.05h.1l.15-.05h59.15l.05-.05.1-.05.1-.1.1-.05.1-.05.1-.05.15-.1.15-.05.15-.05.1-.05h.1l.05-.05h.1l.1-.05h.2l.15-.05h.75l.15.05h.3l.1-.1.15-.05.15-.05.15-.05.15-.05.05-.05h.1l.05-.05h.25l.15-.05h.75l.15.05h.25l.05.05h.1l.05.05.15.05.15.05.15.05.15.05.1.1.1.05.1.05.1.05.1.1.1.05.05.05.1.05.05.1.1.05.05.05.05.05.05.1.1.1.05.05.05.1.05.05.05.05v.05l.05.1.05.05.05.05v.1l.05.05v.05l.05.05.05.1v.1l.05.05.05.1v.1l.05.05v.15l.05.05v.2l.05.05V40l-.05.1v.25l-.05.05v.25l-.05.1v.1l-.05.05v.1l-.05.05v.1l-.05.1-.05.05v.05l-.05.05v.1l-.05.05-.05.05v.05l-.05.1-.05.05-.05.05-.05.05-.05.1v.05l-.1.05-.05.05-.05.1-.05.05-.05.05-.05.05-.1.1-.05.05-.1.05-.05.05-.1.1-.1.05-.1.05-.1.05-.1.1-.15.05-.15.05-.15.1h-.1l-.1.05h-.05l-.1.05h-.15l-.15.05h-.15l-.35.05H4.9l-.15.05H4l-.15-.05h-.1l-.1-.05h-.1l-.1-.05H3.4l-.15-.05-.15-.05-.15-.05-.15-.1-.1-.05-.1-.05-.1-.05-.1-.1-.1-.05-.05-.05-.1-.05-.05-.1-.1-.05-.1-.1-.1-.1-.05-.05-.05-.05-.05-.05-.05-.1-.05-.05-.05-.05v-.05l-.1-.05-.05-.05-.1-.05-.05-.1-.1-.05-.1-.1-.1-.1-.05-.05-.05-.05-.05-.05-.05-.1-.05-.05-.05-.05V41l-.05-.1-.05-.05-.05-.05-.05-.05v-.1l-.05-.05v-.05L.3 40.5l-.05-.1v-.05L.2 40.3v-.15l-.05-.05v-.05l-.05-.1v-.15l-.05-.1v-.25L0 39.4V3.1l.05-.05v-.2L.1 2.8v-.25l.05-.05v-.1l.05-.05v-.1l.05-.1.05-.05v-.05L.35 2v-.1l.05-.05.05-.05.05-.05v-.1l.05-.05.05-.05.05-.05.05-.1.05-.05V1.3l.1-.1.1-.1.05-.05.05-.1L1.1.9l.1-.05.05-.05.1-.1.1-.05L1.5.6l.15-.05.1-.1.1-.05.1-.05L2.1.3l.15-.1h.1L2.4.15h.1L2.55.1h.1l.1-.05h.2L3.1 0zm25.95 36.2 3.1-.3 2.6.25 6-.35 1.75-.2 2.55.15q2.4 0 3.2-.7.65-.55.85-1.55l.2-1.9q0-2.25-.6-3.15-.55-.75-1.45-1.05l-1.75-.05q-.85.3-1.4 1.15-.5.8-.45 1.7-5.65-.7-11.15.2 1.7-2.65 3.95-4.9L40.7 22l6.85-7.5q1.5-1.6 1.55-2.8 0-1.45-1.35-2.4-.85-.65-2.6-1-2.95-.55-7.8-.05l-1.4-.1-1.65.2-4.6.5h-2.2l-.2.05-1.15.05q-.6.1-1 .35l-.65.55q-.45.65-.35 1.85l.35 2 .1 1.8.05 1.75q.1.95.6 1.65.55.85 1.35 1.05l1.75-.3q.8-.5 1.25-1.4.5-1.15.4-3.7l10.65-.75-4.2 4.2-4.2 4.2q-4.85 4.95-7 9.6-.8 1.7-.45 2.75.45 1.15 1.8 1.55z"/><path fill="#fff" d="M6.75 33.5q.5-.45 1.25-.5t1.3.35l.85 1.05q.3.7.1 1.35-.15.7-.7 1.15-.6.45-1.3.5t-1.3-.35q-.65-.4-.9-1.05T6 34.65q.2-.75.75-1.15m1.15-4.35v.1l.3.8-.3.8v.1q-.45.45-1 .45t-1-.45q-.35-.35-.35-.9 0-.5.35-.9.4-.4 1-.4.5-.05 1 .4m11.95-6.95-.35.4-1.1.05q-.6-.25-.6-.9-.05-.4.25-.8.35-.35.8-.35.4 0 .7.25l.4.65zm36.25 2.45.65.45q.7.75.15 1.65-.45.9-1.4.75-.95-.1-1.3-1-.25-.9.45-1.6.45-.3.95-.3zM35.55 4.3 33 4.05l-.85.45q-2.05.75-3.9.8l-1.9.15q-1.05.1-1.75.5-.9.5-2.3 2.1L20.75 9.3l-1.15 1.6-.8 1.75-.5.95.3.45.2.6.1.8q0 1.35-1.15 2.25l-1.75.6q-.5 2.1-.85 4.5l.2 2.25.25.25.3.7q.2.65-.15 1.3l.6 2.1 1.5 3 .4 1 .6-.5.4-.4.7-.55q.75-.8 1.2-1.1l1.1-.4.4-.15 1.95-1.45 1.25-1.25 1.4-1.05.7-.3.3-.3q1.15-1.05 1.9-1.35l.7-.2 1.6-.95.85-.65 1-.65 1.05-.2.5.1.45-.3 3.8-2.95 2.85-1.65 3.35-2.8 3.25-3 1.7-1.15.2-.3.4-.55-1-1.2q-3.8-3.5-9.25-3.75h-3.05zm20.5 10.75-.75-1.95-1.05.5-3.35 2-1.05.55-.9.85q-2.6 2.7-3.8 3.5l-3.35 2-2.6 2.05-7.65 5.25q-1.7 1-2.45 1.6L27.35 33l-.2.55-.55.8-1.15.75-1.25.55-1.1.9-1.1.85-.1.05.15.15.3.1q4.25 1.75 6.4 2l2.8.3 1.9.45 1.85.45 1.8.15 2.2-.3 5.85-.6q1.5 0 2.15-.4l1.2-.9q.45-.35 1.35-.6l1.45-.5q1.65-.75 3.15-3.65l.15-.3-.35-.8q-.4-1.15.1-2.25t1.55-1.65l1.05-.3.65-2.1q.3-1.35.2-4.15-.1-3.2-.7-4.95zM66.4 16.9l-.1-.15v-.05l-.05-.05v-.15l.4-.35v.05h.2l.1.1.1.15v.1l.05.05-.05.1v.05l-.1.15q-.3.2-.55 0m-1.95-5.5-1-.05-.8-.65q-.25-.4-.2-.95.1-.6.45-.95.4-.35.95-.4l.95.25q.6.4.7 1.1.1.65-.35 1.15zM32.9 0l2.35.25 2.4.25L40.3.2q2.85-.3 5.65.5 1.35.4 2.6 1l.7.3 3.3 1.95 1.35 1.1.45.8v.1l.85.45.4-.35q.5-.4.8-.5.8-.45 1.75-.3h.05q.25-.6.85-1.05.5-.35.95-.4l1.3.2.45.1q.55.3.6.95.4.75.05 1.65l-.5.75-1 .6-.15.05-.3.4-.35.85-.7.75.05.05 2.15 3.65 1.3 2.5q.3 1.05.1 2.7l-.4 2.75v3.55q-.05 1.5-.7 3.8l-.75 2.45q.35 1.3-.4 2.55l-.2.3-.9.75-.7 1.4L57 39.5q-2.35 2.65-6.2 3.55l-4.4.55-10.85.8q-5.85.25-10-1.1-2.35-.7-4.25-1.95l-2.1-1.5-.05.05q-1.9 1.6-3.6 1.05-1.1-.35-1.5-1.55-.45-1.25.2-2.2l.85-.85-2.25-2.55q-1.05-1.6-1.45-3.75l-.1-.5Q9.4 21.7 12 15.7l1.2-2.45 2.45-4.75 1.7-2.5 3.45-2.85q1.95-1.7 4.5-2.1L27.15.9h1.05l.8-.15z"/></g></svg>