<svg xmlns="http://www.w3.org/2000/svg" xmlns:ffdec="https://www.free-decompiler.com/flash" ffdec:objectType="shape" width="64.55" height="37.35"><g fill-rule="evenodd"><path fill="#717171" d="M56.55 5.95q-.7.25-1.15-.4-.35-.5-.1-1.25l.5-.95.4-1.1.8-.75.65-.25 1.15.25q.5.4.6 1 .15.6-.2 1.1l-.5.6-.6.5-.75.75-.55.4zm6.4 4.7H60.8l-.8-.15q-.6-.35-.6-.95.1-.65.6-.95l.3-.1.45-.3.95-.5.35-.1.9-.2.35.05q.9.15 1.15 1 .25.9-.3 1.55l-.55.4zM50.65 3.4q.1.45-.2.85l-.65.5q-.6.15-1.2-.45l-1.1-1.6q-.55-.8-.15-1.75Q47.8 0 48.8 0q.7 0 1.3.6.55.65.5 1.3l-.05 1.15zm-33.4 14.4-1.15-.15-.85-.3-.9-.05-.5.25-1.15.25q-1.4-.15-1.75-1.6-.25-.85.25-1.65.5-.75 1.35-.9l.55-.05 1.45.1.85.35.75.4 1.65 1.3.3 1.05-.15.4-.25.45zM2.8 16.4q.45-.15.95 0 .5.2.7.6.6.9-.25 1.75-.7.6-1.55.2-.85-.45-.75-1.3 0-.9.9-1.25m9.55 4.45-.9.55-.45.6-.1.35q-.2.85-1.05 1.5l-.35.25-.5.1-.85-.15-.3-.15q-.5-.3-.65-.9-.15-.55.1-1.2l.65-1.05q.5-.5 1.1-.65l1.1-.25.3-.1.3-.15q.55-.3 1.1-.25.55.1.75.35.3.5-.05.95zM.65 30q.45-.55 1.4-.9l3-1.1 3.8-.65h6.85q1.85.1 3.7.8l1.75 1.15q.7.8.7 1.95 0 1.1-.7 1.9-.75.8-2.7 1.3-4.15 1.05-8.5 1.05l-.3.35Q8.75 37 7.4 37.3l-1.8.05H4.3l-1.5-.4-.95-.3q-1.2-.55-1.5-1.9-.15-.8.15-1.35-.35-.5-.45-1.1-.25-1.35.6-2.3m23.6 1.65 1-.15h.55l.5-.1 1.2-.1q.9.2 1.3.65.6.65.5 1.4l-.1.6-.15.4-.35.5q-.4.4-1.25.6l-3.35.1-.65-.3q-.95-.6-.85-1.7-.05-.35.2-.9.35-.7 1.45-1M20.6 35.1q.5.75 0 1.5-.6.65-1.45.4l-.6-.45q-.25-.4-.2-.75-.1-.9.85-1.2 1-.25 1.4.5"/><path d="M47.75 5.55q3.9-.5 6.65.85 2.5 1.2 4.05 3.9L59.6 13l2.75 1.15.95.55q.9.7.9 1.95 0 1-.65 2.1l-.65.95-2.55 2.9-.8.6q-.95 2.15-2.8 3.85-2.35 2.1-5.35 2.8l-3.95.25v.25l-.05 1.8q-.35 1.25-1.55 1.65-1.15.5-2.2-.25-1.1-.75-1.1-1.95v-.65l.25-2.3-1.4-.9.15 1.05.4 2.25q-.05.85-.7 1.55l-1.45.9q-.85.15-1.7-.3-.8-.4-1.15-1.2-.25-.5-.35-1.5l.05-3.15v-3l-.1.1-1.6 2 1 2.4.15 1.45L36 32q-.4 1.45-1.8 1.85-1.45.4-2.55-.6t-.7-2.5l.1-.5-.05-.55-.1-.4-.8.25v1.8q-.25 1.3-1.4 1.85l-2.3-.05q-1.05-.6-1.3-1.8l-.05-.7.25-1.05.05-.15q-2.25-.7-4.2-2.65-1.3-1.25-2-2.65l-.3.2-.65.7.15 2.05q.2 3.05-.95 4.4-.85.95-2.25 1.35l-2.6.4-3.7.3H6.5q-1.35-.15-2.15-.95-.9-.9-.8-2.15.05-.9.75-1.7l1.55-1.1 2.4-.35q.55-.95 1.35-1.4.35-.25 1.15-.45 2.2-.6 3.3-.5l.4.1-.2-2.05-.25-1.7q0-1.35 1.35-2.35 1.15-.8 2.7-.8l.75.05.25-.75-.15-.6q-.75-3.7-3-5.05-.9-.55-2.1-.8l-1.6-.2-2.35.3-2.2-.1q-.95-.35-1.5-1.4-.5-.95-.35-2 .3-2.15 2.45-3.2 1.7-.8 4.1-.55 4.7.6 7.85 4.75 1.45 1.85 2.25 4.15 2.35-2.25 5.75-3.6Q31.25 8 34.35 7.9l4.65.5q.05-1.3.25-2.3.25-1.1.7-1.7.65-.9 1.45-1.05l1.55.25 1.35.9L46 5.9zm-.9 18.25.35.45.6.5.45.55.55.4.6.2.35-.35.05-.55q-.15-1-.8-2l-.45-.6-.55-.65.2-.25q.7-.95.5-1.7-.15-.75-.9-.9-.65-.15-1.2.45l-.3.7-.1.4-.6-.3-2.45-.7-.9-.05q-.95.25-1.2 1.15-.15.95.5 1.55.45.4 2.1.6l2.45.65zm-7.75-9.45-.05.65.1 1.2.45.85q.85 1.2 2.2 1.55l1.25.15.95-.15q.95-.3 1.6-1.25.65-.85.7-1.9.2-1.5-.55-2.5-.35-.5-.9-.85l-.35.1-2.35.65-1.45-.05-.8-.1h-.05l-.1.1-.35.65zm14.45 3.5-.95.35q-.85.4-1.3 1.2-.6 1-.6 2.25l.05.7.3.8q1.25 2.1 3.55 2.1 1.1 0 2.05-.6t1.4-1.6l.15-.5.05-.85-1.3-.8-.45-.35-.45-.45q-1.25-1.25-1.35-2.15v-.2zm-35.2 3.55v-.2h-.45q-.25 0-.35.15v.3l.05.2.8-.2zm-5.25 7q.75.2 1.3 0l.05-.3h-.95l-.85.15z"/><path fill="#fff" d="m53.55 17.85 1.15-.1v.2q.1.9 1.35 2.15l.45.45.45.35 1.3.8-.05.85-.15.5q-.45 1-1.4 1.6t-2.05.6q-2.3 0-3.55-2.1l-.3-.8-.05-.7q0-1.25.6-2.25.45-.8 1.3-1.2zm-14.45-3.5.3-.9.35-.65.1-.1h.05l.8.1 1.45.05 2.35-.65.35-.1q.55.35.9.85.75 1 .55 2.5-.05 1.05-.7 1.9-.65.95-1.6 1.25l-.95.15-1.25-.15q-1.35-.35-2.2-1.55l-.45-.85-.1-1.2zm7.75 9.45-.75-.45-2.45-.65q-1.65-.2-2.1-.6-.65-.6-.5-1.55.25-.9 1.2-1.15l.9.05 2.45.7.6.3.1-.4.3-.7q.55-.6 1.2-.45.75.15.9.9.2.75-.5 1.7l-.2.25.55.65.45.6q.65 1 .8 2l-.05.55-.35.35-.6-.2-.55-.4-.45-.55-.6-.5z"/></g></svg>