<svg xmlns="http://www.w3.org/2000/svg" xmlns:ffdec="https://www.free-decompiler.com/flash" ffdec:objectType="shape" width="77.2" height="43.55"><path fill-rule="evenodd" d="M1 1h75.2v40.9H1z"/><path fill="none" stroke="#717171" stroke-linecap="round" stroke-linejoin="round" stroke-width="2" d="M1 1h75.2v40.9H1z"/><path fill="#999" fill-rule="evenodd" d="M26.15 16.65q-7.3 2.85-13.9.5-4.05-1.4-6.55-4.5Q2.95 9 3.3 4.7q.15-1.85.9-3.8h5.1l-.05.05Q8.1 2.85 8.1 4.8q0 3.05 2.25 5.15 1.85 1.8 4.9 2.5 3.85.95 8.05-.1 4.15-1.1 7.6-3.85l4.2-3.85L31.5.9h13.55l-3.3 3.2 4.45 4.55Q48.9 11 51.55 12q2.75.95 6.1.9 4.35-.1 7.3-2.2 1.6-1.15 2.7-2.95 1.1-1.95 1.1-3.95 0-1.55-.65-2.9h5.25q.3 1.5.2 3.1-.2 2.55-1.55 5.3-1.95 3.85-4.85 5.9-1.95 1.3-4.5 2-3.95 1.15-7.85.8-4.05-.35-7.45-2.15-2.25-1.25-4.7-3.5L38.8 8.5v.1l-.65-.65-.15-.1q-5.15 6.25-11.85 8.8M27.9 42.2q-6.2 2.5-11.8.45-3.45-1.2-5.65-4-2.3-3.2-1.95-7 .1-2.25 1.25-4.75 1.65-3.4 4.2-5.2 1.65-1.1 3.8-1.75 3.35-.95 6.7-.65 3.4.25 6.25 1.9 2 1.15 4.05 3L38 27.7v-.05l.55.55h.1q4.45-5.6 10.15-7.75Q55 18 60.65 20.1q3.5 1.15 5.55 3.95 2.35 3.2 2.05 6.95-.15 2.3-1.3 4.7-1.65 3.4-4.15 5.2-1.6 1.2-3.75 1.75-3.4 1.05-6.75.75-3.45-.3-6.3-1.9-1.95-1.1-4-3.1l-3.3-3.35-.55-.5-.15-.15q-4.4 5.55-10.1 7.8m26.8-3.3q3.75-.05 6.25-1.95 1.4-1 2.3-2.65.9-1.7.9-3.45 0-2.65-1.85-4.45-1.65-1.6-4.2-2.25-3.3-.8-6.9.15-3.5.9-6.45 3.35l-3.5 3.45 3.75 4q2.3 2.1 4.55 3 2.35.85 5.15.8M22 23.75q-3.7.1-6.2 1.9-1.4 1.1-2.3 2.65-.9 1.65-.9 3.45 0 2.65 1.85 4.55 1.6 1.55 4.15 2.2 3.3.85 6.85-.1 3.6-1 6.5-3.35l3.6-3.45-3.8-4q-2.35-2.1-4.55-3-2.45-.9-5.2-.85"/><path fill="#fff" fill-rule="evenodd" d="M56.05 7.25q.35 3.4-.4 6.15-1 3.35-3.45 5.9-2.35 2.5-5 3.65l.15 1.4q0 1.3-.85 2.35-.95 1.05-2.4 1.2-1.5.15-2.75-.85l-.15-.1-.3.4q-.35.6-1.45 1l-.8.25-.65.1h-.05l-.65-.1-.8-.25q-1.1-.4-1.45-1l-.3-.4-.15.1q-1.25 1-2.75.85-1.45-.15-2.4-1.2-.85-1.05-.85-2.35-.05-.75.15-1.4-2.65-1.15-5-3.65-2.45-2.55-3.45-5.9-.75-2.75-.4-6.15.35-3.7 1.7-6.35h32.8q1.3 2.65 1.65 6.35m-5.3 8.95q1.5-1.05 2.05-2.6.55-1.7-.3-3.2-.8-1.3-2.2-1.9-2.45-.9-4.55.35-2.15 1.25-2.35 3.7-.1.95.3 1.7l.55.85q.8 1.15 2.25 1.7l2.85.1zm-25.55 0 1.4.7 2.85-.1q1.45-.55 2.25-1.7l.55-.85q.4-.75.3-1.7-.2-2.45-2.35-3.7-2.1-1.25-4.55-.35-1.4.6-2.2 1.9-.85 1.5-.3 3.2.55 1.55 2.05 2.6"/></svg>