<svg xmlns="http://www.w3.org/2000/svg" xmlns:ffdec="https://www.free-decompiler.com/flash" ffdec:objectType="shape" width="76.85" height="43.4"><path fill="#999" fill-rule="evenodd" d="M17.2 1.55h59.15V42.9H.75V1.55h14l.55.55.45.55L16.7 4l.65 1.1.2.25Q15.65 7 15.4 9.5q-.05.6.05 1.1l-.1.8-.45-.4-1.2-.85-2.25-1.25-1-.4-1.8-1.05-1.85-1-.95-.35-1.2-.75Q3.8 5 3.1 5q-.1.2.1.5l.45.3q.55.35 1.45 1.25l.85.45 2.1 1.55 4.55 3.4 1.2.8 1.4-.2.1-.05.05.45-.05.65q-.1 1.6.2 2.6l.1.25v.15q-.7.2-1.8 1l-5.95 3.65-6 3.85-.45.4q-.1.4.2.55l.5-.15.7-.25 4.6-1.65 4.45-2 2.25-.8-2 1.95-5.9 6.2.25.1L16.8 22.5q-1.05 1.3-2.65 4.15L9 34.2l-5.3 7.4q-.35.6.05.75l.4-.2q8.75-9.35 12.5-14.5l1.85-2.15 1-.8-2.5 9.45-.3 1.65-.25 1.2-.1.3.2.2.15-.2 1-2.15.6-1.6q.9-3.1 2.05-5.35l.95-1.9.7-1.65.2-.35 1.15.15.35 12.75.05 1.9.3 2.55q0 .5.35.4l.2-.3.95-7.7.85-9.3.85 2.9.35 1.15 1.05 4L29.8 37q.1.4.3.45.1-1.5-.2-4.5l-1.35-8.75v-.05l4.5 5.65q3 4.05 4.75 5.95l3.35 3.85q.35.5.6.25-.7-1.85-3.05-5.65L37 31.5l-4.7-7.2-1.3-1.85q1.3-.85 2.35-1.9l7.05 5.8 4.1 3.6 3.25 2.6q.65.4.8-.1l-.3-.5-1.95-2.4q-1.8-2.35-5.35-5.85l-5.25-5.4 4.25-.15 3.25-.2 1.15-.05 3.15.25.45-.05q-.1-.2-.6-.2l-.6-.1.9-.35.2-.3-.2-.25q-.9-.45-3.45-.65l-2.95-.5-2.95-.45-1.35-.1-.25-.1.55-1.65 16.5-2.85 3.1-.35 2.95-.7.25-.2q0-.15-.35-.25l-18.25.1-4.25.2-.05-.05 10.4-4.7.2-.25q0-.2-.4-.2L37.1 6.95q4-2.7 8.45-4.55l.2-.15v-.3h-.25q-3.85.95-8.85 2.6l-2.2.65-2.75-1.7q-3.5-1.45-7.95-.8-1.8.2-3.3.85l-.6-.5-.75-.45-.8-.35z"/><path fill="#fff" fill-rule="evenodd" d="M14.75 1.55v-.1q-.4-.2-.45-.55-.15-.35.1-.7l.85-.15.75.5 1 .85.2.15 1.1.7.8.35.75.45.6.5q1.5-.65 3.3-.85 4.45-.65 7.95.8l2.75 1.7 2.2-.65q5-1.65 8.85-2.6h.25v.3l-.2.15Q41.1 4.25 37.1 6.95L47.35 4.2q.4 0 .4.2l-.2.25-10.4 4.7.05.05 4.25-.2 18.25-.1q.35.1.35.25l-.25.2-2.95.7-3.1.35-16.5 2.85-.55 1.65.25.1 1.35.1 2.95.45 2.95.5q2.55.2 3.45.65l.2.25-.2.3-.9.35.6.1q.5 0 .6.2l-.45.05-3.15-.25-1.15.05-3.25.2-4.25.15 5.25 5.4q3.55 3.5 5.35 5.85l1.95 2.4.3.5q-.15.5-.8.1l-3.25-2.6-4.1-3.6-7.05-5.8Q32.3 21.6 31 22.45l1.3 1.85 4.7 7.2 1.7 2.7q2.35 3.8 3.05 5.65-.25.25-.6-.25l-3.35-3.85q-1.75-1.9-4.75-5.95l-4.5-5.65v.05l1.35 8.75q.3 3 .2 4.5-.2-.05-.3-.45l-1.15-4.2-1.05-4-.35-1.15-.85-2.9-.85 9.3-.95 7.7-.2.3q-.35.1-.35-.4l-.3-2.55-.05-1.9-.35-12.75-1.15-.15-.2.35-.7 1.65-.95 1.9q-1.15 2.25-2.05 5.35l-.6 1.6-1 2.15-.15.2-.2-.2.1-.3.25-1.2.3-1.65 2.5-9.45-1 .8-1.85 2.15q-3.75 5.15-12.5 14.5l-.4.2q-.4-.15-.05-.75L9 34.2l5.15-7.55q1.6-2.85 2.65-4.15L6.45 29.95l-.25-.1 5.9-6.2 2-1.95-2.25.8-4.45 2-4.6 1.65-.7.25-.5.15q-.3-.15-.2-.55l.45-.4 6-3.85 5.95-3.65q1.1-.8 1.8-1v-.15l-.1-.25q-.3-1-.2-2.6l.05-.65-.05-.45-.1.05-1.4.2-1.2-.8-4.55-3.4-2.1-1.55-.85-.45q-.9-.9-1.45-1.25l-.45-.3Q3 5.2 3.1 5q.7 0 1.55.35l1.2.75.95.35 1.85 1 1.8 1.05 1 .4 2.25 1.25 1.2.85.45.4.1-.8q-.1-.5-.05-1.1.25-2.5 2.15-4.15l-.2-.25L16.7 4l-.95-1.35-.45-.55z"/><path fill="none" stroke="#5f645e" stroke-linecap="round" stroke-linejoin="round" stroke-opacity=".498" d="M17.2 1.55h59.15V42.9H.75V1.55h14"/><path fill-rule="evenodd" d="m34.75 8.9.45-.05q2-.15 3.75.95 1.1.8 1.65 1.7.85 1.5.35 3.25-.45 1.7-1.95 2.7l-2.25 1.1L36 19l-.45.35-.7.8q-.2.35-.25.8.65 1.15 2.4 2.15 2.7 1.55 5.7 2.25l-.1-.2q-.7-.75-1.15-1.85-.45-1.15-.35-2.9l.1-1.3q.35-2.25.65-3 .65-1.4 1.85-2.5l.35-.3q.7-.8 1.7-1.4l.1-.5.5-.8.6-.75q.75-1 2-2.25l.45-.4 1.4-.1 1 .95L53.15 10l1.25.15q4 .95 6.25 4.3l.65 1 2.1.65.55.25q.5.3.75.95.15.7-.15 1.25l-3 3.6q-.9 2.85-3.35 4.8-2.85 2.35-6.5 2.45l-1.45-.05h-.05l.5 1.25 1.25 1.5q1.5 1.25 2.85.9.1-1.95 1.7-2.75l3.2.1q.5.3.8.75l.3.9q.3 1.65-.85 2.95Q59 36.2 57.3 36.6l-2.35.2 2.2 1.6 2.6 1.7.8 1.3.05 1.3H46.95l-1.3-1.65q-.4-.85-.9-2.65l-.65-3.25-.4-2.75q-.1-1.4.2-4.3l.05-.2-6.05.2q-3.65-.55-6-2.45l-1.6-1.35q-1.45-1.5-2.15-3.25l-.3-.9q-.75-2.65.05-4.85l.8-1.8.15-.2q.4-.85 1.1-1.6l.25-.25 1.2-1.1q1.55-1.2 3.35-1.45M19.5 15.5l-.8 1.4 1.25 1.35q1.15 1.7 1.7 3.95l.25 1.6q.25 3.4-2 5.55-1.1 1.05-2.6 1.5l-3.05.05q-1.1-.3-1.9-.9l-.1.45q.05.75.95 1.75l.5.4.55-.1 4.1-.3q.65.2.95.5.4.5.2.95l-.35.4-.5-.05-.45-.4-.45-.1q-.65.05-1.55.4l-1.5.65-2.6-.1-.9-.7-.7-.75-.55-.7-.3-.8q-.35-1.4-.05-2.6.25-1.1 1-1.9l-.1-.6v-1.65q.25-1.4 2.2-3.9l.45-.65-.35.05L9.3 20q-1.75-.6-2.85-1.85H6.4l-1.1.65-1 .1-1.35-.1q-1.9-.45-2.7-2.7L0 14.8l.1-.7.3-.9q.55-1.35 1.9-1.9l2.7-.2.05.05.35-.9q.85-1.7 2.35-2.8-.35-.7-.3-1.35l.1-.65q.1-.6.35-1.05.45-1 1.55-1.55 1-.55 2.15-.45 1 0 2 .5l.55.35q1.25.9 1.1 2.25L15 5.3l-1.1-.5q-1.15-.25-2.15.45-.6.45-.9 1.05-.3.65-.25 1.2l.1.95.15.35q.65 1.4 2.25 1.5 1.6.15 2.5-1.15 1-1.25.35-2.65l1.45.9.7.55q1.15 1 1.6 2 .35.75.35 2.15 0 2-.55 3.4m35.45 6.85q-.25.55-.2 1.15l.5.1.7.45.95.75.5.85q.8-.15 1.35-.7.85-1 .6-2.05l-.9.05-.8-.1-1-.25-1.65-.3zm-1.9 3.6.05-.25v-.55l-.2-.75-.15-.7v-.1l.25-.7.05-.6-.05-.4-.3-.25-.1.05q-.35 0-.75.5l-.35.45-.05.2-.3.1-1.35.35q-.4.15-.5.55 0 .45.45.55l.55-.1h1.15l.15.25.3.3.25.6.3.5q.3.3.6 0m-5.2-9.65q-.95 0-1.75.65L45.4 18l-.1.35.05.05.8.3.7.3.95.65.95 1.05.25.65.1.15.05-.05 1.05-.9.4-1q.25-1.3-.55-2.25-.8-1.05-2.1-1.05zM73.7 39.1v.4l-.05.05v.1l-.05.05v.05l-.05.05-.05.1-.05.05V40l-.05.1-.1.05-.1.05-.1.1-.15.05-.15.05H72l-.1-.05h-.25l-.1-.05h-.05l-.15-.05h-.2l-.2-.05h-.5l-.25-.05h-.5l-.1-.05-.15-.05-.1-.05h-.45l-.2-.05h-.15l-.1-.05h-.15l-.2-.05h-.3l-.15-.05h-.6l-.65-.05-.2-.05-.05-.05h-.1l-.15-.05-.1-.05-.05-.1-.05-.05v-.2l.05-.05.05-.05.05-.1.1-.05h.1l.1-.05.1-.05h.15l.65-.05h.6l.15-.05h.3l.2-.05h.15l.1-.05h.15l.2-.05h.45l.1-.05.15-.05.1-.05h.05l-1.8-1.15q-.35-.35-.25-.5t.35-.15l.8.15 1.65.35-.4-1.7-.15-.8q0-.25.15-.35t.5.25l1.15 1.8v-.05l.05-.1.05-.15.05-.1v-.45l.05-.2v-.15l.05-.1v-.15l.05-.2v-.3l.05-.15v-.6l.05-.65v-.15l.05-.1.05-.1v-.1l.05-.1.1-.05.05-.05.05-.05h.2l.05.05.1.05.05.1.05.15v.1l.05.05.05.2.05.65v.6l.05.15v.3l.05.2v.15l.05.1v.15l.05.2v.45l.05.1.05.15.05.1v.5l.05.25v.5l.05.2v.2l.05.15v.05l.05.1v.25l.05.1v.5m-9-4.3.2-.1h.05l.05-.05q.35 0 .45.6l.05.25.55.15.25.45q.1.55-.6.75l-.2.05-.1.5-.2.25-.45.15-.4-.15-.2-.6.1-.25-.15-.05-.6-.2-.15-.45q-.05-.25.15-.45t.45-.15h.5zM7.2 15.45l.4.35-.05-.15.2-1.45.15-.5.25-.4 1-.85.4-.1-1.3-.1q-.65.15-1.05.7-.45.55-.45 1.2 0 .7.45 1.3m8.35-3.2-1.05-.15-.25.1-.6-.4-.65-.2q-.35 0-.55.35l.05.3.2.4.3.35.4.25v.5q.1.55.5.9l.9.3.9-.3q.4-.3.5-.8.15-.5-.05-.9z"/><path fill="#fff" fill-rule="evenodd" d="m15.25 5.5.35.4.3.55.05.05q.65 1.4-.35 2.65-.9 1.3-2.5 1.15-1.6-.1-2.25-1.5l-.15-.35-.1-.95q-.05-.55.25-1.2.3-.6.9-1.05 1-.7 2.15-.45l1.1.5zm32.6 10.8.1-.05q1.3 0 2.1 1.05.8.95.55 2.25l-.4 1-1.05.9-.05.05-.1-.15-.25-.65-.95-1.05-.95-.65-.7-.3-.8-.3-.05-.05.1-.35.7-1.05q.8-.65 1.75-.65m5.2 9.65q-.3.3-.6 0l-.3-.5-.25-.6-.3-.3-.15-.25H50.3l-.55.1q-.45-.1-.45-.55.1-.4.5-.55l1.35-.35.3-.1.05-.2.35-.45q.4-.5.75-.5l.1-.05.3.25.05.4-.05.6-.25.7v.1l.15.7.2.75v.55zm1.9-3.6.05-.05 1.65.3 1 .25.8.1.9-.05q.25 1.05-.6 2.05-.55.55-1.35.7l-.5-.85-.95-.75-.7-.45-.5-.1q-.05-.6.2-1.15m-39.4-10.1.6.7q.2.4.05.9-.1.5-.5.8l-.9.3-.9-.3q-.4-.35-.5-.9v-.5L13 13l-.3-.35-.2-.4-.05-.3q.2-.35.55-.35l.65.2.6.4.25-.1zm-8.35 3.2q-.45-.6-.45-1.3 0-.65.45-1.2.4-.55 1.05-.7l1.3.1-.4.1-1 .85-.25.4-.15.5-.2 1.45.05.15z"/><path fill="#999" fill-rule="evenodd" d="m28.15 21.05-1.4.85-.55.15-.6-.15-1.45-.85q-3-2.25-4.65-5.55.55-1.4.55-3.4 0-1.4-.35-2.15-.45-1-1.6-2l-.7-.55q0-.75.3-1.1.55-.6 1.45-.3l1.45.7q1.45.5 3.55-.55l1.4-.6h1.2l1.4.6q2.1 1.05 3.55.55l1.45-.7q.9-.3 1.45.3.45.5.25 1.95l-.1.65q-1.8.25-3.35 1.45l-1.2 1.1-.25.25q-.7.75-1.1 1.6l-.15.2-.8 1.8q-.8 2.2-.05 4.85zM24.5 9.55l-.85 2.6-.1.45-.95 3.1.45.7.4.4.3-1 .4-1.35.25-.6.6-1.65.7-2.2.5-.95-.05-.05-.9.35zm-3.15 3.85.4-1.1.9-2 .25-.55-.65.05-2.1-.15q.4 2 1.2 3.75"/></svg>