<svg xmlns="http://www.w3.org/2000/svg" xmlns:ffdec="https://www.free-decompiler.com/flash" ffdec:objectType="shape" width="46.75" height="36.75"><g fill-rule="evenodd"><path fill="#999" d="M25.65 29.35q-.25-1.8-.35-4.1l.15-5.1.1-5.05-.15-2.9-.25-1.35-.5-1.1q-.2-.55 0-1l-.55-.3q-.25-.3-.2-.65.15-.7.9-.95l1.4-.15 6.7.65 6.7 1.15 1.65.5q.85.65.95 1.95l-.15 2.2q-.25 1.6-.25 4.5l-.1 4.5-.7 5.25q-.2 1.65-.9 2.1-.5.35-1.8.35l-5.65.8q-2.05.45-3 .8l-1.2.55-1.25.05q-.8-.25-1.15-1.05-.3-.55-.4-1.65M4.7 11.45q.35-1.6 1-2.2.8-.75 2.65-.95l9.95-1.55q3.15-.55 4.8.05.55.2.6.45.15.4-.3.7l-.8.25-.3.15q.4.15.6.4.65.7.65 2.45l-.3 5.35L23 20.1l-.2 4q.05 2.15.55 6.4.15 2.3-.95 3.1-.95.75-2.5.25L17.5 33l-2.3-.4-2.65-1.05-2.7-.4q-.8-.2-1.4-.6l-.65.15q-.95.05-1.55-.5-.75-.75-.85-2.45-.5-3.9-.8-11.75-.1-3.05.1-4.55"/><path d="M42.15 7.85 33.8 6l-6.25-1.45h-1.9l.4 4.15.25 3.5v3.6q-.25 6.5.1 15.3 7.4-2.4 15.25-3.45l1.3-14.7.1-3.95-.15-.65q-.25-.4-.75-.5M25.3.15l10.05 2.9q4.15.55 7.25 1.8L45.05 6q1.2.45 1.5 1.2.4.7-.05 1.45v1l-.75 9.55q-.7 6.4-.8 9.5l-.25 1.75q-.5 1.05-3.05 1.25-1.75.1-6.05 1.15-6.75 1.75-9.4 2.95l-1.6.5q-.65.7-2.25.35-3.05-.45-8.95-2.1l-10.15-2.7q-1.8-.5-2.2-1.45-.25-.5-.1-2.3L.5 24.2q-.45-2.65-.25-7.45L.05 9.3q-.15-1.55.2-2.1.25-.6 1.5-1.2Q8.45 3.2 21.9.15L23.25.1zm9.9 16.65 1.3-.9q.85-.5 1.1-.95.4-.55.3-1.2-.05-.6-.45-1.1-.65-.55-1.7-.75-2.15-.2-2.9 1.1l-.15.55.3.65q.35.55.3 1.2-.05.7-.5 1.2-.95 1.05-2.35.65-1.25-.35-1.65-1.7-.2-.75-.05-1.6.25-1.55 1.2-2.9.9-1.35 2.25-2.05 1.25-.55 3-.55 2.15 0 3.75 1.05 1.8 1.3 1.95 3.25l-.05 1.5-.45 1.7q-.9 1.7-2.6 2.35-1.3.5-1.6.85l-.25.9-.1 1.2-.1.65-.3.15-.3-.15-.5-.5q-.55-1.25-.4-2.3l.3-1.3zm.3 6.4q1.3.25 1.6 1.4.25.65 0 1.3l-.8 1.05q-.55.35-1.2.3-.7-.05-1.25-.5-.45-.4-.6-1.1-.1-.7.15-1.25.25-.6.9-.95.6-.3 1.2-.25m-13.15-5.7.25-4.45-.35-5.15-.3-3.05h-.2l-7.9 1.35-5.1 1.2L7 8l-2.35.95-.75.5-.05.8.1 8.2.1 3.1.45 3.25.25 3.3 9.9 3.05 4.05 1 3.55.6zm-9.1-.15q.35-.4 1.45-1l1.3-1.1q.45-.5.4-1.15t-.6-1.15q-.75-.45-1.95-.55-2.5-.05-3.4 1.3l-.15.55.4.65q.35.45.3 1.15-.1.75-.6 1.25-1.1 1.15-2.7.85-1.5-.3-1.9-1.6-.3-.75-.1-1.6.3-1.55 1.35-3 1.05-1.4 2.65-2.2 1.45-.7 3.55-.8 2.45-.15 4.3.75 2.15 1.2 2.3 3.1l-.05 1.5-.55 1.75q-1 1.75-2.95 2.55-1.6.6-1.9 1-.2.25-.3.95L14 21.7q.1.45-.15.7l-.35.1-.35-.05-.55-.55q-.7-1.15-.5-2.2l.4-1.3q.2-.55.75-1.05m.35 6.35q1.45.15 1.85 1.25.25.65 0 1.35l-.95 1.05-1.4.45q-.8 0-1.45-.4-.55-.4-.75-1.05-.1-.7.2-1.35.35-.55 1.05-.95.7-.35 1.45-.35"/></g></svg>