<svg xmlns="http://www.w3.org/2000/svg" xmlns:ffdec="https://www.free-decompiler.com/flash" ffdec:objectType="shape" width="77.65" height="44.2"><path fill="#999" fill-rule="evenodd" d="M63.9 1.25h13.25V16.4l-2.3 1.2q-3.45 2.25-7.2 3.9l.05-1.05.2-1.05q.3-1.35-.45-1.95-.7-.55-1.6-.2-.65.15-1.5.85l-6.85 5.3 7.85-11.7q.65-.95.4-1.5-.2-.45-.9-.55l-1.1.15-1.6.5.35-1.25.75-3.05zM77.15 23v19.3H2.05V8.6l1.65 3 2.55 3.6 5.1 6.9 1.35 1.5q1.1.65 1.9.3 1-.4 1.4-2.25l.4-2q.25-1.15.75-1.9 1.5 3.65 3.7 7.55h-.05l-1.55.2-7.95 2.1-2.25.55L8 28.3q-.6.15-.9.5-.3.4-.3 1.45l-.05 2.5-.25 1.85-.8 1.15-1 .95-.75.85-.8.75-.65.55q-.35.45-.2.8.15.55.9.45l.95-.45L8 36.7l1-1q.5-.75.5-2.2l.1-2.35 10.35-2.85q.95-.25 1.5-.7l.6-1 .85-.15.15-.7-.75-2.5-3.9-8.85q-.3-.85-.75-1.15l-1.1-.2q-.6.1-1.05.55-.5.5-1.15 2.05-.5 1.55-1.1 2.1-3.4-5.9-6.95-13Q5.05 2.1 3.6 1.6l-1.55-.1v-.25h59.1l-.05.45-1.1 8.85v.5q-.35.25-.35.8.05.55.45.75.5.3 1.3 0l1.35-.3q-1.35 1.85-3.45 5.85l-2.5 4.7-.45.8-.3.4q-.2.3.05.5l.1.1-.05.05-.05.7.4.55 1.2-.15q4.55-2 6.65-3.6l-.15 1.45-.4 1.45q0 .65.4 1.2l1.05.7 1.45-.05 1.45-.55q.65-.25 3.3-1 2.7-.8 5.7-2.4"/><path fill="#fff" fill-rule="evenodd" d="M77.15 16.4V23q-3 1.6-5.7 2.4-2.65.75-3.3 1l-1.45.55-1.45.05-1.05-.7q-.4-.55-.4-1.2l.4-1.45.15-1.45q-2.1 1.6-6.65 3.6l-1.2.15-.4-.55.05-.7.05-.05-.1-.1q-.25-.2-.05-.5l.3-.4.45-.8 2.5-4.7q2.1-4 3.45-5.85l-1.35.3q-.8.3-1.3 0-.4-.2-.45-.75 0-.55.35-.8v-.5l1.1-8.85.05-.45.1-.25q.35-1 1.35-1l.85.25q.4.3.45.75v.25L63.25 6l-.75 3.05-.35 1.25 1.6-.5 1.1-.15q.7.1.9.55.25.55-.4 1.5L57.5 23.4l6.85-5.3q.85-.7 1.5-.85.9-.35 1.6.2.75.6.45 1.95l-.2 1.05-.05 1.05q3.75-1.65 7.2-3.9zM2.05 8.6 1.1 6.95Q.05 5.15 0 4.2q0-1.45 1.15-2.25l.9-.45 1.55.1q1.45.5 2.7 3.15 3.55 7.1 6.95 13 .6-.55 1.1-2.1.65-1.55 1.15-2.05.45-.45 1.05-.55l1.1.2q.45.3.75 1.15l3.9 8.85.75 2.5-.15.7-.85.15-.6 1q-.55.45-1.5.7L9.6 31.15l-.1 2.35q0 1.45-.5 2.2l-1 1-3.85 2.95-.95.45q-.75.1-.9-.45-.15-.35.2-.8l.65-.55.8-.75.75-.85 1-.95.8-1.15.25-1.85.05-2.5q0-1.05.3-1.45.3-.35.9-.5l1.05-.15 2.25-.55 7.95-2.1 1.55-.2h.05q-2.2-3.9-3.7-7.55-.5.75-.75 1.9l-.4 2q-.4 1.85-1.4 2.25-.8.35-1.9-.3l-1.35-1.5-5.1-6.9-2.55-3.6z"/><path fill="none" stroke="#5f645e" stroke-linecap="round" stroke-linejoin="round" stroke-opacity=".498" d="M63.9 1.25h13.25m0 41.05H2.05V8.6m0-7.1v-.25h59.1"/><path fill-rule="evenodd" d="M27.2 30.85q-.65-1.15-.85-3.75l-2 .15-.75.05v.25l-.55.95q-.45.4-1 .4-.55.05-1.1-.3-.5-.35-.7-.9l-.2-.95V23.6q-.05-.45.45-1.2l.25-.25.55-.25.5-.1q.75 0 1.35.55.55.6.6 1.25v.2l2.45.15-.35-11.9v-.6l-.15-.65q-.15-.95.4-2l1.15-1.6 1.25-1.55 1.35-1.3q.9-.6 1.8-.4.85.2 1.95 1.5l1.3 1.75.3.6 3.25.05h2.1l3.25-.05.3-.6 1.3-1.75q1.1-1.3 1.95-1.5.9-.2 1.8.4l1.35 1.3 1.25 1.55 1.15 1.6q.55 1.05.4 2l-.15.65v.6l-.35 11.9 2.45-.15v-.2q.05-.65.6-1.25.6-.55 1.35-.55l.5.1.55.25.25.25q.5.75.45 1.2v3.15l-.2.95-.7.9-1.1.3q-.55 0-1-.4l-.55-.95v-.25l-.75-.05-2-.15q-.2 2.6-.85 3.75l-.6.9 1.45-.45 3.2-.75 2.5-.7 2.5-.35q1.65.05 3.95 1.25 1.4.75 1.9 1.5.5.85.5 2 0 1.1-.45 2.1-.8 1.5-2.75 2.1l-3.4.2q-3.75-.3-5.3-2.3l-.5-.5-.85-.1-4.55.4.75 1.55.5 1.9.5 1.9q-.05 1-.8 1.85-.75.8-1.75.85l-2.35-.4-1.6.05-1.55.2-3.25.05h-.7l-3.25-.05-1.55-.2-1.6-.05-2.35.4q-1-.05-1.75-.85-.75-.85-.8-1.85 0-.4.5-1.9l.5-1.9.75-1.55-4.55-.4-.85.1-.5.5q-1.55 2-5.3 2.3l-3.4-.2q-1.95-.6-2.75-2.1-.45-1-.45-2.1 0-1.15.5-2 .5-.75 1.9-1.5 2.3-1.2 3.95-1.25l2.5.35 2.5.7 3.2.75 1.45.45zm11.3-2.3.5-.1q1.9.9 3.15 1.05l.65-.15q.35-.35-.15-1-.5-.6-1.1-.85l-1.35-.65-.35-.25v-.1l-.25-1.65-.15-.4-.7-.1q-.3.15-.5.6l-.2.45-.1 1v.15l-.4.3-.95.45-1.95.9-.45.35q-.2.3-.05.55.05.25.5.25l.6-.2 1.65-.3zm-2.75-5-.15-1.25h-.05l-.55.05h-6.05l-.1.3q-.3 1.55.65 2.85l.2.25 1.5-.25 1.75-.05.9.05.7.05.4.1q.75-.95.8-2.1m14.6-1.15-.2-.4-1.95.05h-3.05l-.75.05h-.35l-.15.05-.3 1q-.15 1.05.35 2.05.5.95 1.45 1.45l2.05.35q1.05-.1 1.85-.8t1.1-1.75-.05-2.05"/><path fill="#fff" fill-rule="evenodd" d="M50.35 22.4q.35 1 .05 2.05t-1.1 1.75-1.85.8l-2.05-.35q-.95-.5-1.45-1.45-.5-1-.35-2.05l.3-1 .15-.05h.35l.75-.05h3.05l1.95-.05zm-14.6 1.15q-.05 1.15-.8 2.1l-.4-.1-.7-.05-.9-.05-1.75.05-1.5.25-.2-.25q-.95-1.3-.65-2.85l.1-.3H35l.55-.05h.05zm2.75 5-1.6.3-1.65.3-.6.2q-.45 0-.5-.25-.15-.25.05-.55l.45-.35 1.95-.9.95-.45.4-.3v-.15l.1-1 .2-.45q.2-.45.5-.6l.7.1.15.4.25 1.65v.1l.35.25 1.35.65q.6.25 1.1.85.5.65.15 1l-.65.15q-1.25-.15-3.15-1.05z"/></svg>