<svg xmlns="http://www.w3.org/2000/svg" xmlns:ffdec="https://www.free-decompiler.com/flash" ffdec:objectType="shape" width="75.9" height="42.65"><g fill-rule="evenodd"><path fill="#999" d="M28.45 41.8H17.8l-4.35-.05h-3.7l-1-.05h-4.6l-.3-.05h-.5q-.45 1-1.5 1-1.15.1-1.65-1l-.2-1.5.1-23.65.5-11.7.15-2.1.2-1.1q.3-.65.8-.65.45-.05.75.3l.1-.05.1-.05.1-.05.05-.05h.4V1l45.5.05h3.75l-.5.35-.9.9-1.35 1.2-1.35 1.05-.2.3Q44.5 3.4 41.6 3q-2.45-.3-5.85-.05-3.95.35-6.55 1.55L25.1 7l-1.1.8-.7.8-.75-.55-4.4-3.1-1.7-1.55-.5-.3-.3-.25h-.4q-.2.15.05.65l.5.75 2.15 2.5 3.45 3.85.25.3-.2.3-.3.65h-.45l-2.75-.35-1.6-.1h-.8l-.45-.1q-.3 0-.35.2l.15.25.65.4.55.3.85.35.25.15 3.25 1.15-.3 1.8-.1 1.35-1.75.55-.8.3-.3.15-.3.05q-.3.2 0 .4l.45.15.5-.05.5.15h1.15l.4.1-.05 3.65.05 1.9-.1.05-5 2.1-.8.3-.35.3q-.15.5.4.7l.9-.05 5.4-1.2v.05l-7.5 5.05-1.95 1.4-.25.4q0 .3.3.3h.5q1.75-.45 4-1.65 4.3-2.2 6.1-3l1.15 1.95 2.05 2.4-.05.1-.3.55q-.15.3-.15.55l-.3.45L23 36.7l-.4.75-.5.6-.3.75.05.3.35.1q.2-.1.35-.25l3.35-3.25.65-.45 1.1.65 2.4 1.1-1.5 4.45zM53.6 1.05h8.9l.6.05h.55l.9.05h3.35l1.15.05h1.55l.5.05h.65l.2.05h.2l.15.05h.3l.15.05h.2l.05.05h.15l.1.05h.05l.05.05V1l.05-.05v-.1l.05-.05.05-.1V.65l.05-.05V.55L73.6.5l.05-.05.1-.1.1-.05.05-.05.1-.05.1-.1h.1l.05-.05h.35V0l.2.05h.1l.15.05.1.05.1.05.1.05.1.05.05.05.05.05.05.05.05.05.05.1v.05l.05.05v.05l.05.05.05.05V1l.05.05v.6l-.05.1V2.8l.05.05v31.2l-.05.1v1.9l-.05.05v1.2l-.05.05v1.05l-.05.05V39l-.05.05v.4l-.05.05v.2l-.05.05v.15l-.05.05v.2l-.05.05v.05l.05.05v.35l-.05.05v.15l-.05.05v.05l-.05.05v.05l-.05.05v.1l-.05.05-.05.05-.05.05v.05l-.05.05-.1.05-.05.05-.1.05-.05.05-.1.05-.15.1h-.15l-.05.05h-1.1l-.65-.05h-3.35l-.1-.05h-.1L69 41.7h-6.65l-2.4-.05H57.8l-9 .05h-3.9l-.75.05h-6.4l-6.45.05h-1.5l1.15-1.4.35-.6 1.3-1.7.1-.1 4.75.95 1.6.15 2-.45q3.6-1.05 6-2.45l.65.35 4.35 2.85.4.1.35-.25-.15-.3-1.4-1.7-.7-.95-.4-.5-1-1.1.3-.25.95-.95 2.8 1.95 4.45 3.05 1.95 1.2q.2-.4-.15-.95L58.8 38q-3.5-3.3-6.55-7l.7-1.1 1.65-3 .4-1 5.25.05h1.05q.15-.1-.1-.35l-1.35-.45-1-.2-1.15-.3-2.15-.5.1-.5 2.5-.25 9.65-.7.3-.1-.35-.35-3.1-.4-4.65-.5-3.95-.3q.25-2.8 0-6.15v-.1l.6-.2 8.45-2.4.3-.3q.1-.25-.2-.35l-.4-.15-1.25.15-3.95.1-3.85.25h-.1l-.2-.75.15-.1.6-.4.55-.45.35-.35.5-.3.25-.15.3-.3.5-.35.35-.4-.15-.35-.35-.1-.05.05-.3.05-1.6.6-.35.15-.95.15-.75.3-1.6-1.7-1.35-1.1-.65-.35.45-.9.15-.4 1.65-2.35.45-1.1zM38.9 33.9l-.55-.1q-2.35-.45-4.8-1.45l-1.45-.7-1.95-1.55q-2.9-2.8-3.7-4.2-.9-1.6-1.5-4l-.9-3.9-.2-2.1q.25-1.7.75-2.7l.4-.65h.95l1.25-.6q3.6-2.3 6.8-2.55l3.55-.1q.25.5.8.85.55.4 1.2.4l.95-.1.9-.2 2.5-.3h1.2l1.35.35 3.3 1.05.9.7 1.15 1.3.2 1.45q.1 3.45-.5 6.65l-.45 2.15-1 2.4-.75 1.6q-1 1.7-2.6 3.15-1.85 1.85-3.75 2.9l-.75-.05-.85.2v-.2l.05-.25-.05-.25-.15-.35-.3-1.85 1.4-1.1.15-.85-.15-.9-.15-.35-.1-.75q-.1-.45-.45-.5l-.05.05h-.1l-.2.25L41 28.4v.15l-1.6 1.15-.45.4-.2.35-.15.6.25 2.75zm3.8-14.8.85.1q.55-.1.8-.65l.3-1 .25-1.3q.3-1.9.65-2.7l.35-1.15q.05-.6-.35-1.1-.45-.45-1-.55-.6-.05-1.1.3l-.45.5q.4.75.2 1.3l-.45.6-.15 3.65-1.4-.25-.45-.05-.1-.05-.95.05-.35.2-.25.6.45 1.95.25.4.05.4.6 1.65.2.35.45 1.2.15.15.15.35.3.3.3-.3-.05-.8-.75-4.4zm-13.55-4.3-2.45 3.55-.1.2.05.35v1.15l3.8-4.8L32 13.4h-.2l-1.25.15H30zm-.8 7.8-.55.75-.25.2q.15.6.55 1.05l.75.75.3.45 1.35-2.5q2-3.3 6.3-9.7l1.4-2.1.3-.4-1.35.3-2.65 1.3z"/><path d="m38.9 33.9-.05-.1-.25-2.75.15-.6.2-.35.45-.4 1.6-1.15v-.15l.25-1.65.2-.25h.1l.05-.05q.35.05.45.5l.1.75.15.35.15.9-.15.85-1.4 1.1.3 1.85.15.35.05.25-.05.25v.2l-1.3.15zm3.8-14.8-1.5-.25.75 4.4.05.8-.3.3-.3-.3-.15-.35-.15-.15-.45-1.2-.2-.35-.6-1.65-.05-.4-.25-.4-.45-1.95.25-.6.35-.2.95-.05.1.05.45.05 1.4.25.15-3.65.45-.6q.2-.55-.2-1.3l.45-.5q.5-.35 1.1-.3.55.1 1 .55.4.5.35 1.1l-.35 1.15q-.35.8-.65 2.7l-.25 1.3-.3 1q-.25.55-.8.65z"/><path fill="#fff" d="m52.5 1.05.7-.25.3.1.1.15v.25l-.45 1.1-1.65 2.35-.15.4-.45.9.65.35 1.35 1.1 1.6 1.7.75-.3.95-.15.35-.15 1.6-.6.3-.05.05-.05.35.1.15.35-.35.4-.5.35-.3.3-.25.15-.5.3-.35.35-.55.45-.6.4-.15.1.2.75h.1l3.85-.25 3.95-.1 1.25-.15.4.15q.3.1.2.35l-.3.3-8.45 2.4-.6.2v.1q.25 3.35 0 6.15l3.95.3 4.65.5 3.1.4.35.35-.3.1-9.65.7-2.5.25-.1.5 2.15.5 1.15.3 1 .2 1.35.45q.25.25.1.35h-1.05L55 25.9l-.4 1-1.65 3-.7 1.1q3.05 3.7 6.55 7l.65.75q.35.55.15.95l-1.95-1.2-4.45-3.05-2.8-1.95-.95.95-.3.25 1 1.1.4.5.7.95 1.4 1.7.15.3-.35.25-.4-.1-4.35-2.85-.65-.35q-2.4 1.4-6 2.45l-2 .45-1.6-.15L32.7 38l-.1.1-1.3 1.7-.35.6-1.15 1.4-.1.15-.4.5h-.5l-.35-.3v-.35l.1-.35 1.5-4.45-2.4-1.1-1.1-.65-.65.45-3.35 3.25q-.15.15-.35.25l-.35-.1-.05-.3.3-.75.5-.6.4-.75.95-1.35.3-.45q0-.25.15-.55l.3-.55.05-.1-2.05-2.4-1.15-1.95q-1.8.8-6.1 3-2.25 1.2-4 1.65h-.5q-.3 0-.3-.3l.25-.4 1.95-1.4 7.5-5.05v-.05l-5.4 1.2-.9.05q-.55-.2-.4-.7l.35-.3.8-.3 5-2.1.1-.05-.05-1.9.05-3.65-.4-.1h-1.15l-.5-.15-.5.05-.45-.15q-.3-.2 0-.4l.3-.05.3-.15.8-.3 1.75-.55.1-1.35.3-1.8-3.25-1.15-.25-.15-.85-.35-.55-.3-.65-.4-.15-.25q.05-.2.35-.2l.45.1h.8l1.6.1 2.75.35h.45l.3-.65.2-.3-.25-.3-3.45-3.85-2.15-2.5-.5-.75q-.25-.5-.05-.65h.4l.3.25.5.3 1.7 1.55 4.4 3.1.75.55.7-.8 1.1-.8 4.1-2.5q2.6-1.2 6.55-1.55 3.4-.25 5.85.05 2.9.4 6.6 1.85l.2-.3 1.35-1.05 1.35-1.2.9-.9zM41.35 33.8l.85-.2.75.05q1.9-1.05 3.75-2.9 1.6-1.45 2.6-3.15l.75-1.6 1-2.4.45-2.15q.6-3.2.5-6.65l-.2-1.45-1.15-1.3-.9-.7-3.3-1.05-1.35-.35h-1.2l-2.5.3-.9.2-.95.1q-.65 0-1.2-.4-.55-.35-.8-.85L34 9.4q-3.2.25-6.8 2.55l-1.25.6H25l-.4.65q-.5 1-.75 2.7l.2 2.1.9 3.9q.6 2.4 1.5 4 .8 1.4 3.7 4.2l1.95 1.55 1.45.7q2.45 1 4.8 1.45l.55.1 1.15.05z"/><path d="m24.5 8.5 3.7.8q4.45.55 8.15-2.25l.4-.3.3-.25q.45-.35 1-.35.6-.05 1.1.35l.3.25.4.3q3.7 2.8 8.15 2.25l3.7-.8.7-.05.5-.1q.7.2.8 1.35 1 6.9-1.1 13.2l-1.15 2.7q-2.1 3.85-4.2 5.75l-2.75 2.4-1.95 1.2L40.8 36l-2 .85-.75.05-.65-.05q-.6-.05-2-.85l-1.75-1.05-1.95-1.2-2.75-2.4q-2.1-1.9-4.2-5.75l-1.15-2.7q-2.1-6.3-1.1-13.2.1-1.15.8-1.35l.5.1zm7 5.05-2.15.05-2.05-.15q-1.35-.25-2.35-.95.45 2.85 1.9 7.1l.9 2.55q.6 1.95 1.7 3.9l.95 1.45 2.35 2.55q1.65 1.6 5.4 3.2l.65-.25-.2-1.95.15-.6.2-.35.45-.4 1.6-1.15v-.15l.25-1.65.2-.25h.1l.05-.05q.35.05.45.5l.1.75.15.35.15.9-.15.85-1.4 1.1.15.9 2.4-1.75 2.35-2.55.95-1.45q1.1-1.95 1.7-3.9l.9-2.55q1.45-4.25 1.9-7.1-1 .7-2.35.95l-2.05.15h-1.3q-.35.8-.65 2.65l-.25 1.3-.3 1q-.25.55-.8.65l-.85-.1-1.5-.25.75 4.4.05.8-.3.3-.3-.3-.15-.35-.15-.15-.45-1.2-.2-.35-.6-1.65-.05-.4-.25-.4-.45-1.95.25-.6.35-.2.95-.05.1.05.45.05 1.4.25.15-3.95Q40.4 12.5 38.1 11q-3.35 2.15-6.6 2.55"/></g></svg>