<svg xmlns="http://www.w3.org/2000/svg" xmlns:ffdec="https://www.free-decompiler.com/flash" ffdec:objectType="shape" width="30.3" height="34.25"><g fill-rule="evenodd"><path d="M1.75 23Q1.2 18.05.2 13.15q-.3-1.6-.1-2.4.3-.85 1.9-2Q8.4 4 13.85.9 15.4.1 16.2 0q1.55-.05 4 1.75l6.65 5.6 1.8 1.6 1.3 1.55q.35.8.35 2.2l-.5 6.15-.75 6.2q-.2 1.7-.65 2.35-.55.8-2.45 1.65-4.4 2-8.85 4.45-1.6.9-2.45.75-.85-.05-2.3-1.1L4.05 27q-1.2-.9-1.65-1.55-.45-.8-.65-2.45m23.4-12.5L17.5 5q-.5-.4-.9-.45-.4 0-.8.3-5.7 3.2-10.55 7l-.45.45-.1.65.1.4 1.7 10.1 7.45 5.85.75.4.75-.25 8.35-4.1.95-.7.2-.75q.95-6.1 1.15-11.6l-.1-.9zm-2.95 3.35.5.35v.6l-.3.3-.9.75-2.7 1.75q-1.2.8-2.25 1.75l-.4.3v.3l-.2.6v.55l-.2.5V23l-.1 1.15.1.9-.2 1.45-.3.55q-.25.3-.65.2l-.45-.45-.05-.6-.15-.45-.05-1.25-.1-.7.05-1.35-.1-.55-.25-1.7-.75-.55-3.65-3-1.25-1.3-.55-.6q-.15-.5.2-.75l.2-.05.5.05.6.45 1.95.95q.55.2 1.5.85l2.15 1.5h.4l.3-.1L17.9 16l3.45-1.85q.5-.3.85-.3m1.45 3.1q.9-.05 1.35.75.4.6.05 1.1-.3.65-1.05.65-.85.05-1.3-.7-.3-.7 0-1.2.35-.55.95-.6m-1 7.8q-.4-.3-.45-.75v-.4l.1-.3q.25-.55.9-.6.6 0 1.1.45.4.55.2 1.1-.15.65-.8.8-.55.1-1.05-.3m-5.25-13.6q-.1 1.25-1.3 1.65-.7.3-1.6 0-.85-.3-1.25-1-.4-.6-.3-1.25.1-.7.5-1.15.45-.45 1.2-.6l1.4.2q.7.3 1.05.9t.3 1.25m-8.8 8-.2.25-.8.3-.85-.15q-1-.5-.75-1.45.15-.95 1.25-1l.85.25.35.3.2.35q.25.65-.05 1.15m10.8 1.2q.3.75-.15 1.25-.55.65-1.4.35-.8-.35-.85-1.1-.1-.35.1-.7l.55-.4q.8-.4 1.5.2zm-2.15 6.5-.3-.4-.1-.4q0-.4.25-.7.3-.35.7-.35.9-.05 1.15.7.3.7-.35 1.15t-1.35 0m-3.7-1.1q0 .5-.4.85l-.9.4-1-.25q-.45-.25-.6-.8-.15-.45 0-.9.15-.5.65-.75l1.5.15q.75.45.75 1.3"/><path fill="#fff" d="M13.55 25.75q0-.85-.75-1.3l-1.5-.15q-.5.25-.65.75-.15.45 0 .9.15.55.6.8l1 .25.9-.4q.4-.35.4-.85m3.7 1.1q.7.45 1.35 0t.35-1.15q-.25-.75-1.15-.7-.4 0-.7.35-.25.3-.25.7l.1.4zm2.15-6.5-.25-.4q-.7-.6-1.5-.2l-.55.4q-.2.35-.1.7.05.75.85 1.1.85.3 1.4-.35.45-.5.15-1.25m-10.8-1.2q.3-.5.05-1.15l-.2-.35-.35-.3-.85-.25q-1.1.05-1.25 1-.25.95.75 1.45l.85.15.8-.3zm8.8-8q.05-.65-.3-1.25T16.05 9l-1.4-.2q-.75.15-1.2.6-.4.45-.5 1.15-.1.65.3 1.25.4.7 1.25 1 .9.3 1.6 0 1.2-.4 1.3-1.65m5.25 13.6q.5.4 1.05.3.65-.15.8-.8.2-.55-.2-1.1-.5-.45-1.1-.45-.65.05-.9.6l-.1.3v.4q.05.45.45.75m1-7.8q-.6.05-.95.6-.3.5 0 1.2.45.75 1.3.7.75 0 1.05-.65.35-.5-.05-1.1-.45-.8-1.35-.75m-1.45-3.1q-.35 0-.85.3L17.9 16l-2.8 1.65-.3.1h-.4l-2.15-1.5q-.95-.65-1.5-.85l-1.95-.95-.6-.45-.5-.05-.2.05q-.35.25-.2.75l.55.6 1.25 1.3 3.65 3 .75.55.25 1.7.1.55-.05 1.35.1.7.05 1.25.15.45.05.6.45.45q.4.1.65-.2l.3-.55.2-1.45-.1-.9.1-1.15v-1.4l.2-.5v-.55l.2-.6v-.3l.4-.3q1.05-.95 2.25-1.75l2.7-1.75.9-.75.3-.3v-.6zm2.95-3.35.85.9.1.9q-.2 5.5-1.15 11.6l-.2.75-.95.7-8.35 4.1-.75.25-.75-.4-7.45-5.85-1.7-10.1-.1-.4.1-.65.45-.45q4.85-3.8 10.55-7 .4-.3.8-.3.4.05.9.45z"/></g></svg>