<svg xmlns="http://www.w3.org/2000/svg" xmlns:ffdec="https://www.free-decompiler.com/flash" ffdec:objectType="shape" width="74.7" height="42"><g fill-rule="evenodd"><path fill="#999" d="m42.4 6.85-2.25-.05q-1.15-.3-1.8-1.15-.9-1.05-.7-2.6.25-1.45 1.25-2.5l.7-.55h8.25q1.2 1.1 1.75 3.3.45 2.2-.15 3.65-.65 1.4-2.1 2.25-1.5 1.05-3.6 1.4l-3.15.15q-3-.15-5-1.05l-2.25-1.25q-1.4-.85-2.3-1.2-1.9-.75-4.4-.6l-4.5.6q-.9.15-1-.3-.25-.5.75-.95 6.45-2.35 10.6-.95l2.15 1 2.2 1.05q3.9 1.5 7.85.05 1.8-.75 2.1-1.85.2-.7-.25-2.05Q46.2 2.3 45.7 2q-.45-.4-1.4-.4-2.6-.2-3.65 1.4-.25.35-.15.6l.55.35.75.15q.2-.75.85-1.25.7-.55 1.4-.35.75.15 1 1.05.35.85 0 1.6-.75 1.4-2.65 1.7m-26.65-3.9v.55q-.3 1.25-1.4 2.1T12 6.4q-1.25-.1-1.9-.85-.85-.95-.45-2.4.25-1 1.4-2.15l1.2-1h10l.25.3q.75 1.05.75 1.9.05 1.35-1.2 2.45l-2.4 1.4q-5.05 2.3-15.4 6.15-1.8.6-2.7.6-.85-.1-.75-.6l.5-.4q8.5-3.3 15.8-7.15 2.2-1.15 3.05-1.85l.35-.5-.15-.5Q19.6.75 17.85.85q-1.7.05-3.3.9-1.55.85-2.5 2.2.6.15 1.4-.3l1.35-.8zM.6 9.35l-.4.1-.15-.35.25-.35L.7 8l1.7-1.95L4.55 3.6l1.9-2.45L7.4 0h1.85l.05.05q.5.65.2 1.35l-.75.85-7.1 6.4zm55.55 2.1h4l.9.05h.4l.25.05h.1l.15.05h.1l.2.05h.1l.15.05.1.05h.1l.1.05h.1l.1.05h.1l.2.05.2.1.2.05.1.1.1.05.1.1.1.05.05.1.05.1.05.05.05.1v.05l.05.1v.55l-.05.05v.1l-.05.05-.05.1-.05.05-.05.1-.1.1-.05.05-.1.1-.1.05-.15.1-.2.05-.15.05-.15.05H63l-.1.05h-.1l-.1.05h-.1l-.1.05h-.15l-.1.05h-.2l-.1.05-.15.05h-.1l-.25.05h-.4l-.9.05h-4l-.85-.05h-.75l-.45-.05h-.45l-.25-.05-.25-.05h-.3l-.15-.05h-.2l-.1-.05h-.1l-.15-.05h-.25l-.4-.05h-.55l-.4-.05h-.2l-.15-.05h-.4l-.6-.05h-.4l-1.1-.05h-.25l-.6-.05h-.65l-.35-.05h-.2l-.3-.05h-.3L44.6 14h-.2l-.1-.05h-.2l-.15-.05-.3-.05h-.2l-.25-.05h-.15l-.1-.05h-.5l-.8-.05-.85.05-.1.05h-.6l-.25-.05-.1-.05-.1-.1-.1-.05v-.1l-.05-.05v-.35l.05-.05.1-.1.05-.05.1-.1.15-.05h.15l.2-.05.15-.05.15-.05h1.05l.8-.05h.5l.1-.05h.15l.25-.05.2-.05h.3l.15-.05h.2l.1-.05h.2l.45-.05h.3l.3-.05h.2l.35-.05h.65l.6-.05h.25l1.1-.05h.4l.6-.05h.4l.15-.05h.2l.4-.05h.55l.4-.05h.25l.15-.05h.1l.1-.05.2-.05h.15l.3-.05h.25l.25-.05h.45l.45-.05h1.6zm7.25 7h2.55l.65.05h.3l.35.05h.1l.1.05h.1l.1.05.15.05.2.05.2.1.15.05.15.1.2.05.15.1.1.1.15.05.1.1.1.05.05.1.05.05.05.1.05.05.05.1.05.1V20l.05.1v.05l.05.1v.45l-.05.1v.05l-.05.1V21l-.05.1-.05.05-.05.1-.05.1-.05.05-.05.1-.1.05-.1.1-.15.05-.1.1-.15.05-.2.1-.15.05-.15.1-.2.1-.2.05-.15.05-.1.05h-.1l-.1.05h-.1l-.35.05h-.3l-.65.05H63.4l-.35-.05h-.3l-.3-.05h-.15l-.1-.05h-.15l-.5-.05h-.75l-.6-.05h-.25l-.3-.05h-.15l-.1-.05h-.1l-.15-.05h-.5l-.7-.05-.6-.05h-1.3L55 21.95h-.25l-.15-.05h-.15l-.25-.05h-.3l-.45-.05h-.3l-.35-.05h-.2l-.25-.05h-.45l-.55-.05H51l-.4-.05h-.25l-.25-.05h-.3l-.25-.05h-.1l-.25-.05h-.15l-.15-.05h-1.35l-.45-.05h-.25l-.4-.05-.35-.05h-.25l-.2-.05h-.55l-.75-.05h-.2l-.25-.05h-.15l-.3-.05h-1.1L42.2 21l-.15-.05-.15-.05-.05-.1-.1-.05-.05-.1v-.3l.05-.1v-.05l.1-.1.1-.05.1-.05.05-.05h.1l.15-.05h1.1l.3-.05.15-.05h.25l.2-.05h.75l.55-.05h.2l.25-.05h.35l.4-.05h.25l.45-.05h1.35l.15-.05h.15l.25-.05h.1l.25-.05h.3l.25-.05h.25l.4-.05h.35l.55-.05h.45l.25-.05h.2l.35-.05h.3l.45-.05.3-.05h.25l.15-.05h.15l.25-.05h1.05l1.3-.05h.6l.7-.05h.5l.15-.05h.1l.1-.05h.15l.3-.05h.25l.6-.05h.75l.5-.05h.15l.1-.05h.15l.3-.05h.65zm-7.7 4.85h1.8l.1.05.2.05.15.05.15.1.1.1.1.05.05.1.05.05.05.1.05.05.05.1v.05l.05.1v.3l-.05.1v.05l-.05.1-.05.05-.05.1-.05.1-.05.05-.1.1-.1.05-.15.1-.15.05-.2.05-.1.05h-2.2l-.25-.05h-.15l-.1-.05-.15-.05-.1-.05h-.25l-.2-.05h-.15l-.2-.05h-.15l-.25-.05h-.25l-.35-.05-.25-.05-.35-.05-.15-.05h-.15l-.25-.05h-1.1l-.25-.05h-.15l-.45-.05h-.95l-.15-.05-.2-.05-.15-.05-.35-.1-.05-.05-.05-.1.05-.05.05-.1.35-.1.15-.05.2-.05.15-.05h.95l.45-.05h.15l.25-.05h1.1l.25-.05H52l.15-.05.35-.05.25-.05h.35l.25-.05h.25l.15-.05h.2l.15-.05.2-.05.3-.05.1-.05h.1l.1-.05h.15l.25-.05zm1.45 3h4.05l.25.05h.15l.15.05h.2l.1.05h.1l.05.05.15.05.2.1.15.05.1.1.15.05.1.1.1.05.05.1.05.05.1.1.05.1v.05l.05.1.05.05v.1l.05.05v.65l-.05.05v.1l-.05.05v.1l-.05.05-.05.1-.05.1-.05.05-.05.1-.1.05-.1.1-.1.05-.1.1-.15.05-.15.1-.15.05-.05.05h-.1l-.05.05h-.1l-.1.05h-.2l-.15.05h-.15l-.25.05h-4.7l-.35-.05h-.45l-.45-.05h-.35l-.3-.05h-.1l-.1-.05h-.1l-.2-.05h-.15l-.15-.05h-.15l-.1-.05-.25-.05h-.15l-.35-.05h-.35l-.4-.05h-.3l-.25-.05h-.25l-.2-.05h-.25l-.25-.05h-.25l-.3-.05h-.35l-.6-.05h-.7l-.3-.05h-.35l-.2-.05h-.3l-.4-.05h-.3l-.35-.05h-.55l-.7-.05h-.35l-.2-.05-.25-.05h-.85l-.95-.05h-.6l-.2-.05h-.7l-.15-.05h-.15l-.2-.05-.1-.1-.05-.05-.05-.1v-.2l.05-.1.05-.1.1-.05h.05l.15-.05.15-.05.1-.05.1-.05.05-.05h.15l.25-.05h.2l.2-.05h.6l.95-.05h.85l.25-.05h.2l.35-.05h.7l.55-.05.35-.05h.3l.4-.05h.3l.2-.05h.35l.3-.05h.7l.6-.05H50l.3-.05h.25l.25-.05h.25l.2-.05h.25l.25-.05h.3l.4-.05h.35l.35-.05h.15l.25-.05h.1l.15-.05h.15l.15-.05h.2l.1-.05.1-.05h.1l.3-.05h.35l.45-.05h.45l.35-.05zM.6 32.75l1.05.75 7.1 6.35.75.85q.3.7-.15 1.3h-2.1l-.8-1-1.9-2.45-2.15-2.5L.7 34.1l-.4-.7-.25-.35q-.1-.3.15-.35zm15.15 6.45-.95.05-1.35-.8q-.8-.45-1.4-.3.95 1.4 2.5 2.25 1.6.85 3.3.9 1.75.05 2.5-.95l.15-.55-.35-.5-3.05-1.8q-7.3-3.85-15.8-7.15l-.5-.4q-.1-.55.75-.65l2.7.65q10.35 3.8 15.4 6.1 1.8.85 2.4 1.45 1.25 1.05 1.2 2.4 0 .85-.75 1.9l-.15.2h-10.2l-1.1-.9Q9.9 40 9.65 38.95q-.4-1.4.45-2.4.65-.7 1.9-.8t2.35.75 1.4 2.1zM42.4 35q1.9.3 2.65 1.7.35.75 0 1.6-.25.9-1 1.1-.7.15-1.4-.4-.65-.45-.85-1.25l-.75.15q-.45.1-.55.35-.1.3.15.65 1.05 1.55 3.65 1.4.95 0 1.4-.45.5-.3.85-1.25.45-1.3.25-2.05-.3-1.1-2.1-1.8-3.95-1.5-7.85.05-.75.25-2.2 1l-2.15 1.05q-4.15 1.35-10.6-1-1-.45-.75-.95.1-.45 1-.3l4.5.65q2.5.1 4.4-.6l2.3-1.2 2.25-1.25q2-.9 5-1.1l3.15.15q2.1.35 3.6 1.45 1.45.85 2.1 2.2.6 1.5.15 3.7-.6 2.3-1.95 3.4h-7.9l-.85-.7q-1-1-1.25-2.5-.2-1.5.7-2.6.65-.85 1.8-1.15z"/><path d="m74.3 16 .05.35q.35 2.05-.05 4.55l-.25 1.25q1 2.4.45 5.6-.6 4.15-3.1 6.7-1.6 1.7-4.45 3-3.45 1.45-6.55 1.25l-1.3-.2h-.8q-2.2 0-4.1-1l-.3-.15-3.3.3q-2.1-.25-3.4-1.35l-.85-.8-1.05-.5q-.9-.25-2.05.65L41.4 36.8q-1.4.45-2.4-.4-.55-.35-.55-.75l.15-.5.4-.15.6.3 1.45-.15 1.05-1.2q.9-1.15 2.1-1.7 1.35-.65 2.65-.35l2 1 1.8.85q-.55-1.5-.45-3.3.15-2.25 1.35-4.2.95-1.55 2.4-2.7l-.8-1.25-1.85-.55q-1.65-.7-2.75-2.05-1.05-1.3-1.25-2.8-.2-1 0-2.45.3-1.65.8-2.5.5-.95 1.55-1.7 1.5-1.25 3.2-1.55 1.85-.35 3.4.65.7-.65 1.4-1.05l1.2-.6.15-1.15q.25-.9 1.1-1.85.9-1.05 2-1.6 1.55-.75 4.1-.55l2.3.25q3.05.65 4.7 3.25 1.05 1.7 1.2 3.6.2 1.7-.35 3.3l-.35.8zm-20.35 2.7.45.25 1.65.25 1.25.1-.5.55-.8 1q-.45.85 0 1.3l1.15.05 1.2-.95 1.15-1.1.8-.6q.35-.4.3-1l-.45-.9-.1-.1-.75-.55-1.5.2-1.65.15-1.65.3q-.4.2-.55.4-.2.4 0 .65m11.3 3.45.55.3q.35 0 .55-.2l.1-.3-.2-.5-1.35-1.25-.55-.15-.65-.05-.05-.3-.05-.5q-.1-.7-.85-.85-.7-.1-1.05.5-.3.5-.1 1.2l.05.25-1.15.35q-.85.3-.85 1.15 0 .6.6 1.05.55.25 1.25 0l.4-.35.15-.25.45-.2 1.65-.25.5.1.3.15zm3.45-3.4.95-.8.8-.9q.9-1.4.4-2.9l-.75-.05-2.55-.4-1.35-.55-.85-.65-.7-.7-.4.2-.95 1-.3.5q-.25.55-.35 1.85 0 1.2.15 1.55.1.45.5.9l1.05 1.05q.85.45 2.25.35zM12.4 10.7q7.55-1.75 14.1-2l4.75.3q2.2.55 4.15 1.85t3.2 3.2q1.3 1.85 1.75 4.1.5 2.35.1 4.4-.2 1.35-1.2 3.5-.75 1.75-1.7 2.95L35 31.2q-2.3 1.45-5.15 1.95l-9.5-.4-15.65-3.4-3.6-.95V13.75q6.45-2 11.3-3.05m15.95 16-.1.85q0 1.3.95 2.05.7.55 1.5.65l1.55-.3 1.1-1.1q.25-.8.1-1.5l-.15-.55-.3-.7q-.5-.5-.85-.65-.5-.3-1.3-.3l-1.05.1-.7.5q-.6.55-.75.95m-6.3-10.3q-.6.2-1.45.7-1.9 1.35-2.25 3.2l-.15 1.45.1 1.15.4 1.05q1.25 2.05 3.6 2.6t4.35-.65q1.05-.6 1.7-1.55l.7-1.55q.55-1.95-.5-3.85-1-1.7-3-2.45l-1.7-.25zm10.55 7.5.85.25q1.7.25 2.65-.4l.7-.65q.9-1.3.65-2.65l-.15-.7q-.4-.9-.8-1.25-.6-.6-1.6-.75l-2.3.1-.5.35-.8.8-.3.55q-.75 1.6 0 2.9l1 1.05zm-.8-11.4-.6-.4-1.3-.3-.6.05-.95.5q-.55.55-.8 1.4-.2.8 0 1.55l.1.4.25.4 1.05.85.7.15 1.6-.1 1.25-.9.35-.7.15-.65-.15-.85-.75-1.15z"/><path fill="#fff" d="m68.7 18.75-2.1.45q-1.4.1-2.25-.35L63.3 17.8q-.4-.45-.5-.9-.15-.35-.15-1.55.1-1.3.35-1.85l.3-.5.95-1 .4-.2.7.7.85.65 1.35.55 2.55.4.75.05q.5 1.5-.4 2.9l-.8.9zm-3.45 3.4-.3-.1-.3-.15-.5-.1-1.65.25-.45.2-.15.25-.4.35q-.7.25-1.25 0-.6-.45-.6-1.05 0-.85.85-1.15l1.15-.35-.05-.25q-.2-.7.1-1.2.35-.6 1.05-.5.75.15.85.85l.05.5.05.3.65.05.55.15 1.35 1.25.2.5-.1.3q-.2.2-.55.2zm-11.3-3.45q-.2-.25 0-.65.15-.2.55-.4l1.65-.3 1.65-.15 1.5-.2.75.55.1.1.45.9q.05.6-.3 1l-.8.6-1.15 1.1-1.2.95-1.15-.05q-.45-.45 0-1.3l.8-1 .5-.55-1.25-.1-1.65-.25zM31.8 12.5l.3.25.75 1.15.15.85-.15.65-.35.7-1.25.9-1.6.1-.7-.15-1.05-.85-.25-.4-.1-.4q-.2-.75 0-1.55.25-.85.8-1.4l.95-.5.6-.05 1.3.3zm.8 11.4-.6-.4-1-1.05q-.75-1.3 0-2.9l.3-.55.8-.8.5-.35 2.3-.1q1 .15 1.6.75.4.35.8 1.25l.15.7q.25 1.35-.65 2.65l-.7.65q-.95.65-2.65.4zm-10.55-7.5 1.8-.15 1.7.25q2 .75 3 2.45 1.05 1.9.5 3.85l-.7 1.55q-.65.95-1.7 1.55-2 1.2-4.35.65t-3.6-2.6l-.4-1.05-.1-1.15.15-1.45q.35-1.85 2.25-3.2.85-.5 1.45-.7m6.3 10.3q.15-.4.75-.95l.7-.5 1.05-.1q.8 0 1.3.3.35.15.85.65l.3.7.15.55q.15.7-.1 1.5l-1.1 1.1-1.55.3q-.8-.1-1.5-.65-.95-.75-.95-2.05z"/></g></svg>