<svg xmlns="http://www.w3.org/2000/svg" xmlns:ffdec="https://www.free-decompiler.com/flash" ffdec:objectType="shape" width="76.6" height="41.45"><path fill="#717171" fill-rule="evenodd" d="m21.9 16.2.05-.15-.25-.15q-6.8-3-14.75-5L1.9 9.5 0 8.8V0h18.7l10.85 8 .4-.2H30l.2-.1.25-.15L31.7 7l.5-.3.1-.05-.4-2.55-.15-1.3-.6-2.8h14.3l-.65 2.8-.15 1.3-.35 2.55.1.05.45.3 1.25.55.25.15.25.1h.05L47 8l10.85-8H76.6v8.8l-1.95.7-5 1.4q-8 2-14.75 5l-.3.15.2.4q.1-.15.25-.15l21.55-1.85v14L58 26.8l-2.95-.55-.25-.15-.2.4.3.15 1.6.7 20.1 9.15v4.95H56.9L47 34.6l-.4.2-.95.45-.8.3-.5.35h-.05v5.55h-12V35.9h-.05l-.55-.35-.75-.3-.95-.45-.45-.2-9.9 6.85H0V36.5l20.1-9.15 1.6-.7q.1-.05.25-.15l-.15-.4-.25.15-3 .55L0 28.45v-14l21.55 1.85.25.15z"/><path ffdec:has-small-stroke="true" ffdec:original-stroke-width=".05" fill="none" stroke="#999" stroke-linejoin="miter-clip" stroke-miterlimit="3" d="M21.9 16.2 1.1 14.3"/><path fill-rule="evenodd" d="M49 21.15q.45.5.55.95l.2.55q.15 1.2-.9 1.75t-1.9-.3l-.45-.55-1-1.65-.6.6-.75.6-.65.6q-.65.4-1.2-.15-.55-.45-.45-1.2l.8-1.4L44 19.5l-.85-1.3-.25-.55-.15-.7-.45-1.45q.1-.75.7-1.05l1.2.05.65.75 1.25 1.95.9-1.1.5-.6 1.65-.1q.85.6.5 1.55l-.35.65-.95 1.25-.65.65-.1.1.8 1zm-9.8 5.45 1.05.7q1.5.6 2.35 0l.95-1 1.1-.75q.75-.1 1.1.55.45.75-.25 1.85-1.15 2.2-3.2 2.5h-1.5l-1.05-.05-.85-.4-1.45-.95-.85.95-2.55.55q-1.3.1-2.45-.55t-1.8-1.75q-.45-.85-.4-1.55 0-.9.75-1.35.9-.5 1.45.25.3.35.45 1.25.3.75 1.1 1l1.55.1q1.6-.3 1.85-1.4l.15-.65q.25-.55.8-.65t1 .3l.05.05zM28.6 15.85q.6.25 1.5 1.15l.25-.4.75-1.15q.45-.65 1-.85 1.05-.4 1.9.35.8.9.4 1.9L33.5 18l-1.15 1v.05l.55.35.6.9.65 1.1q.6 1 0 2-.65 1-1.8.85l-1.05-.55-.55-.65-.4-.95-.25-.35-.5.45-.95 1.15-.9.9q-1.1.8-1.85.5-.5-.2-.65-.7-.15-.55.1-1l2.75-3.4-.95-1.15q-.5-.7-.4-1.5v-.45l-.15-.4q-.25-.5.2-.85l.9-.05.4.35z"/></svg>