<svg xmlns="http://www.w3.org/2000/svg" xmlns:ffdec="https://www.free-decompiler.com/flash" ffdec:objectType="shape" width="75.5" height="43.25"><g fill-rule="evenodd"><path fill="#999" d="M13.3 34.8v.8l.2.5q.95.25 2.3-.35l.4-.15 1.3-1.55.2-.5q.35-.6 1-.7.85 0 .95.65l-.15.75v.05l-.15.45V36l.25 1.45.6 1.2.35 1.05.85.45 1.2.25 1.2.3q.55.35.65.95.05.8-.85 1.25l-1.55.3h-1.1l-1.2-.5-1-.7-.35-.3-.35-.25-.6.4-2.8.25-10.4-.65q-2.3-.1-2.95-1.1-.4-.65-.4-1.9l-.7-14.1q-.4-9.6-.05-13.85.5-5.05.45-6.3 0-1.95.55-2.6.5-.55 1.8-.85l6.7-.4.6.1.7-.35 1.1-.05q.8.25.95 1 .15.85-.35 1.35l-1 .55-.75.35q-.6.25-.75.4L9.7 4.8l-.2.45-.05.6.7-.7.95-.6.85-.4.8-.2 1.35.2q.4.4.05.9-.2.2-.8.4-1.15.45-1.65 1.05l-1.45 1.75q-.3.5-.4 1.35l.05 1.45-.15 1.2-.3.35-.5-.05Q8.4 12.3 8 11.7l-.35-.75-.2-.8V9.8l-.4.25-.6 1-.7 1.8q-.45 1.85.65 4.3l.5 1q.9 1.4 2.5 2l.1-.6.65-2.95q.45-1.1 1-1.65l1.65-1.2q.7-.35.95-.35.7 0 .8.5l-.25.75-.65.45q-1.2.75-1.4 1.9l-.1 1.15v2q0 .8.15 1.1l.65.8 1.15 1.5 1.25 1.25q.7.85.4 1.55l-.65.55-.2.1-.1.25v.15l-.1.6.2 1.15 1.5 2.6.5.85-.05.95q-.3.6-1.35.7h-1.6l-.5.2zm53.8-26q.3-.7.2-2.2l-.35-1.4-1.15-1.05q-1.15-.8-2.65-1.1l-2.1-.4q-1.05-.2-1-.95.05-.7 1.3-.8L64.2.85l2.75.9.4.2q.25-.5.8-.9.75-.55 1.7-.7l3.65.4q1.65.45 1.9 1.2l-.05 1.2-.45 1.25q-.15.55-.05 2.25.2 2.35-.05 3.8l-.2 1.95.3 1.9.3 3.95.2 6.1q0 2.65-.65 3.7 1.55 5.5-.7 10.95.5.15.75.7t.05 1.05q-.3 1.05-1.55 1.4l-2.15.2-8.3-.1-.35.1-1.6.25-.2.15q-.55.45-1.15.3-.6-.05-.95-.7l-.15-.5-.75.4-1.25-.15-1.3-.35-.45-.2q-1 .7-1.8.85l-.9-.05-.45-.55q-.05-.45.15-.75.25-.25.9-.45 1.4-.55 2.25-1.85l.2-.6-.1-.6q-.05-.45.2-.85.3-.4.75-.5l1.25.35 2.1 1.3 1.05 1.3 3.8-.1q1.25-.6 1.5-1.5.2-.6-.1-1.2-.25-.65-.85-.9l-.85-.25-.75 1.1-.4.55-.6.45q-.5.45-1.1.35t-.85-.6q-.25-.4 0-1.05l.5-.55 1.45-1.8q.05-.5.4-.8l.1-.05.1-.35.05-.85-.05-.85-.05-.35-.3-.45q-.35-.45-.35-.85.1-.7.6-.6l.8.65.5.35.3.4.05.6.35.8.1.65 2.2-1.45q1-.85 1.2-1.7.1-.65-.35-1.7-1.1-2.85-2.75-4.2l-.3-.05q-.5-.1-.85-.35-.5-.4-.15-.8h.05v-.55q.1-.45.45-.65l1.05.05 1.05.4.3-.05.7-.45 1.2-.85q1.3-1.15 1.1-3.55L69.3 15l-.5-.85-.75-1.4-.2-.25-.05.5-.15 1.4q-.25 1.05-.85 1.65l-.3.3-.15.2q-.45.7-1.25 1l-.6.05-.5-.35q-.1-.25.2-1l.25-.5v-.55l.25-.85.2-.45.15-.65q.15-2-.85-3.65l-.45-.75-.55-1.2-.45-1.35h.2l.55.05 1.4.4.55.45.05-.05 1.45 1.8.05.1zM8.3 29.15q1.35 1.25 2.9 1.4h.35l.05-.35.15-.55V28.3l.05-.3q.1-1 .55-1.75l-1.25-1.4-.7-.85-.65-1-.05-.05-.55-.05-.25.25q-.55.7-.9 1.7L7.65 26l-.05 1.6.15.8z"/><path d="M50.1 36.55q-.65 2.55-4.2 3.8-4.7 1.7-10.85-.15-1.6-.45-2.4-1.2-.55-.55-1-1.9l-2.15.15q-3.8-.3-5.25-2.1-.55-.75-.95-1.9L15.6 15q-.55-1.3-.45-1.9.15-.7 1.05-1.7 1.8-2.05 3.1-3.15 2.65-2.15 6.1-2.85.4-1.55 1.9-2.65 1.1-.85 3.2-1.3l2.15-.2q1.15.1 2.9.9l1.15.55 1.35 1.35q.6-1 1.4-1.5l.9-.5q1.25-.5 2.4-.5 1.3 0 2.3.65l1.1 1.05.8 1.05q3.1-.25 6.6 1.05l1.35.75q.4.55.4 1.8l.3 20.45.15 1.8-.3 1.75q-.4 1.05-1.6 2-1.2 1-2.85 1.55l-.75.25zm-2.7-26.1q.55 1.05.75 3.35l1.9 18.65.95-.5 1.05-.95q.45-.7.45-2.45L52.4 9.4q0-.75-.3-1.1l-.6-.35q-3.25-1.2-6.4-.35-.4.05-.6.25 2.05.95 2.9 2.6M40.4 7l1.8.25q.15-.75.65-1.35.5-.55 1.3-.9-.7-.8-1.45-.85l-1.05.15-1.15.45-.85 1.1q-.35.65-.4 1.15zm3.85 10.8.9.9.6 1.15.1.15-.75-5.9q-.1-1.3-.55-1.95-.6-.9-2.25-1.3-2.85-.7-5.85-.05-3 .6-5.3 2.45l-.5.55q-.2.4-.1 1.3.65 4.75 1.6 9.45l-.05-1q.05-1.75.8-3.25.75-1.6 2.1-2.45l2.45-1.3 1.55-.2 1.55.1 2.4.4zm-2.55 8.15.6-.6.55-1 .45-1.85q.1-1.05-.5-1.8l-.55-.6-.5-.45-.5-.1-1.85-.2h-1.35l-.7.2-.55.35-.35.4q-.8 1.1-.95 1.75l-.1.45q-.15.85.1 1.7l.4.95.6.55q.9.6 1.45.8l1.95.2q1-.15 1.8-.75m3.95-.45-.5 1q-1.2 2.25-3.95 3.1l-5.05-.3q-2.25-.85-3.25-2.55l-.5-1.05 1.75 7.05.55 2.7.25.85.5.35q2.5 1.15 5.1 1.3 2.85.15 5.05-1 .95-.5 1.4-1.15.5-.65.6-1.6l.05-.1v-.3q.05-1.55-.45-4.05l-1-6.5zm-6.5-4.3.35 1 .75-.6.55-.3.6.1q.45.3.15 1l-.65.9-.65 1.2q-.6.7-1.4.35l-.1-.05q-.55-.1-.7-.7l-.05-.55-.15-1.1-.2-.9q-.1-.55.2-.85.3-.5.8-.25.3.1.5.75M33 5.85q1.1.45 1.4.9l.2.8 2.3-.45v-.3l-.6-1.15-.95-.85-1.05-.4-1.05-.3-.85-.25-1 .1-1.6.45q-.75.3-1.1.7 2.2 0 4.3.75m-3.1 24.2q-1.7-7.4-2.9-15.15-.3-1.85.1-2.65.3-.6 1.45-1.45l3.2-2.1-1.5-.2-4.7.2q-3.3.85-6.4 4.3l-.45.7q-.1.45.25 1.1l2.35 5.4 4.5 10.6q.95 2.45 2.2 3l1.3.2 1.4-.05h.1z"/><path fill="#999" d="M47.4 10.45q-.85-1.65-2.9-2.6.2-.2.6-.25 3.15-.85 6.4.35l.6.35q.3.35.3 1.1l.1 19.15q0 1.75-.45 2.45l-1.05.95-.95.5-1.9-18.65q-.2-2.3-.75-3.35m-3.15 7.35-1.3-.95-2.4-.4-1.55-.1-1.55.2-2.45 1.3q-1.35.85-2.1 2.45-.75 1.5-.8 3.25l.05 1q-.95-4.7-1.6-9.45-.1-.9.1-1.3l.5-.55q2.3-1.85 5.3-2.45 3-.65 5.85.05 1.65.4 2.25 1.3.45.65.55 1.95l.75 5.9-.1-.15-.6-1.15zm1.4 7.7.55-2.25 1 6.5q.5 2.5.45 4.05v.3l-.05.1q-.1.95-.6 1.6-.45.65-1.4 1.15-2.2 1.15-5.05 1-2.6-.15-5.1-1.3l-.5-.35-.25-.85-.55-2.7-1.75-7.05.5 1.05q1 1.7 3.25 2.55l5.05.3q2.75-.85 3.95-3.1zM29.9 30.05l.9 3.9h-.1l-1.4.05-1.3-.2q-1.25-.55-2.2-3l-4.5-10.6-2.35-5.4q-.35-.65-.25-1.1l.45-.7q3.1-3.45 6.4-4.3l4.7-.2 1.5.2-3.2 2.1q-1.15.85-1.45 1.45-.4.8-.1 2.65 1.2 7.75 2.9 15.15"/></g></svg>