<svg xmlns="http://www.w3.org/2000/svg" xmlns:ffdec="https://www.free-decompiler.com/flash" ffdec:objectType="shape" width="52.6" height="36.65"><g fill-rule="evenodd"><path fill="#717171" d="m50.4 15.75-.15-.35-.05-.4q.1-1.05 1.05-1.15l.8.2q.4.25.5.65l-.05.85-.55.6-.85.05zm-7.25 1.75.6.05.6-.15h.05l-1.6-.3-.75-.3h-.5l.1-.15.85-.1 1-.1.95.05.85-.1q.75-.6 2.25-.85l1.6-.05 1.5.85q.9.7 1.25 1.45.9 1.8-.25 3.45-1.1 1.6-3.1 1.75-1.8.15-3.4-.95l-.95-.7q-.95-.65-3.4-1.55l-4.6-1.55q-.2-.25-.1-.5.1-.15.6-.15l2.7-.05 1.75-.15 1.05.15zM45.1 5.45l-.05-.25.05-.2q.1-.45.6-.65l.25-.05q.45.1.65.35l.2.7-.1.3-.2.25-.7.2-.6-.4zm-1.65 8.1-3.55 1.4-.75.25h-.45l-.35.25.05-.2q.05-.05.2-.15l.15-.25.35-.35 4.3-3.1.45-.4.4-.65 1.6-1.3 1-.7 1.25-.2q.7.1 1.15.6.5.45.6 1.15t-.25 1.3l-.8.8-1.05.75-1.3.4-1.25.1-.8.05zm-4.75 6.9.15-.1.1-.05.15-.05.25.05.3.15q.25.25.15.45l-.05.2-.1.2-.6.15q-.35-.1-.45-.4l-.05-.15.05-.2zM41 11.4v-.2l.05-.3.25-.3.35-.15.5.15q.35.35.2.8l-.5.45h-.3l-.2-.05-.15-.15zm.6 11.85.65.5.15.5q.05.45-.25.75t-.75.3l-.6-.2-.45-.25q-.4-.4-.25-1l.1-.25q.25-.4.75-.4zM.15 32q-.45-1.15.7-2.4.7-.65 2.3-1.25 2.7-.95 6.05-1.6l3.9-.6q11.8-1.6 17.85-1.3l4.15.45q2.65.55 7.4 2.65l2.3 1.3q1.15 1.15.8 2.4-.35 1.35-2.7 2.05-8.3 2.7-15.25 2.95-2.7.1-8.1-.2l-8.75-.7q-4.85-.65-8.45-2.05Q.6 33.1.15 32"/><path d="m50.85 20.4-.75.45L48.75 22l-.8.15-1.3.05q-1.2-.1-1.65-.55l-.45-.85-.35-.85-.05-.2-.05-.05q-.65-.75-.25-1.6.2-.55 1.15-1.05l1.35-.9.3-.35.95-.2.9.35 1.55 1.55.95 1.15.25.9zm-2.7-11.7.35.65-.15.65-.25.3.05.55-.55.65-.9.25-.65.25q-.4.1-.75-.35-.25-.4-.15-.85l.15-.7.1-.65q.25-.55.75-.75l1.05-.2zM1.4 22.8q-.05-2.85 1.15-5.45l1.1-1.8q.15-1.5.7-3.5l.65-1.5q.45-.85 1.25-1l1.75.3q1.5.65 2.6 1.65l.45-.05q2.4-.1 3.6.45.65.25 1.55 1.1 2.2-3.05 4.55-4.3Q23 7.45 26.3 7.35q3.15 0 5.6 1.2 2.35 1.15 3.85 3.05l.35-.2q1.25-2.95.6-5.5l-.6-1-.9-.45-1.75.05-.65.85-.5.95q-.5.75-1.5.9t-1.75-.4-1.1-1.5q-.3-.9-.05-1.8.45-1.75 2.25-2.8 1.55-.85 3.5-.7 1.9.15 3.5 1.1 1.25.8 1.95 1.9 1.6 2.2 1.05 5.85-.35 2.3-1.5 3.8l-1.5 1.4q1.2 3.05.15 6-.55 1.65-1.75 3-1.25 1.3-2.85 1.95l-1.7.5v.15l.35.35.55.05q1 0 1.95.55.9.55 1.2 1.55.25.85-.05 1.7t-1.05 1.3q-1.4.85-3.2.05-1.25-.6-2.6-2.2-1.05-1.2-1.35-2.25l-1.65 1.9Q22.9 30.6 20.4 29.9l-1.55-.7-1.2-.9-.5-1.1-.15.7q-.2 1.2 0 1.7l.4.5q.55.8.5 1.8t-.7 1.75q-.65.7-1.65.9l-1.8-.25q-.9-.5-1.25-1.25-.3-.65-.3-2.15l.05-.85.15-.55-3.3-.15-2.05-.5-.25.1-3.55.45-1.45-.25-1.2-.8q-.4-.55-.3-1.2l.3-1.2q.15-.85.85-2.15zm11.9-.8.25-.4-.35-.2-.4-.2-.95-.35v.05l-.4-.1-.15.05q-.5-.05-.9.3-.4.4-.15.9l.1.2q.8.55 1.25.45v.55l.1.5.15.4.45.65.45.4q.45.25.75-.25l-.05-.8-.25-1.3v-.5zm-.7-2.8-.25.6.2.1 1.05.3.55.3.05-.15.55-.85-1.7-1.35zm-6.5-4.35-.25.45q-.7 1-.65 1.95l.4 1.25q.6 1.2 1.6 1.55l1.9.15 1.25-.55-.05-.4q-.1-1.45.75-3.85l.2-.4q-.7-.95-1.75-1.2l-1-.05-1.1.15q-.6.25-1.3.95m6.35-1.1.1.35q.15.45.65.35l.6-.4v-.3l-.1-.15-.35-.4-.85-.35-.05.05h-.05q-.15 0-.15.25v.15l.15.15.1.25zm1.5 2.65-.35.6.45.45 1.2.95.4.25.1-.15.85-.75.2-.9-.45-.75q-.4-.35-1-.35l-.9.15zm9.75 5.85q-.35 0-.75.4l-2.1 2.1-.5.45 1.2.5H22l.3-.2.9-1.1.35-.7.2-1.25.05-.2zm-20.05 5q.1.4.6.4l.55-.45.05-.2-.05-.25-.25-.65-.35-.35-.4-.2-.1.2.05.2-.05.2.05.15-.05.15-.1.5zm5.75.45.7-.9.15-1.45q-.15-.75-.65-1.25-.55-.5-1.35-.6t-1.45.3l-.05.05.7.65.25.35.65 1.15.15 1.05-.05.35-.15.4-.2.35zm-6.9-6.55-.1.3v.4l.25.5.75.1q.45-.2.35-.65l-.2-.45-.1-.3-.1-.05-.05-.35v-.25l-.25-.05q-.15 0-.15.15v.15l-.15.15-.05.15z"/><path fill="#fff" d="m13.95 16.4.5-.5.9-.15q.6 0 1 .35l.45.75-.2.9-.85.75-.1.15-.4-.25-1.2-.95-.45-.45zm-1.5-2.65.05-.05-.1-.25-.15-.15v-.15q0-.25.15-.25h.05l.05-.05.85.35.35.4.1.15v.3l-.6.4q-.5.1-.65-.35zm-6.35 1.1q.7-.7 1.3-.95l1.1-.15 1 .05q1.05.25 1.75 1.2l-.2.4q-.85 2.4-.75 3.85l.05.4-1.25.55-1.9-.15q-1-.35-1.6-1.55l-.4-1.25q-.05-.95.65-1.95zm6.5 4.35.45-1.05 1.7 1.35-.55.85-.05.15-.55-.3-1.05-.3-.2-.1zm.7 2.8-.1.35v.5l.25 1.3.05.8q-.3.5-.75.25l-.45-.4-.45-.65-.15-.4-.1-.5v-.55q-.45.1-1.25-.45l-.1-.2q-.25-.5.15-.9.4-.35.9-.3l.15-.05.4.1v-.05l.95.35.4.2.35.2zm-10.8-.85.2-.2.05-.15.15-.15v-.15q0-.15.15-.15l.25.05v.25l.05.35.1.05.1.3.2.45q.1.45-.35.65l-.75-.1-.25-.5v-.4zm6.9 6.55-1.3.45.2-.35.15-.4.05-.35L8.35 26l-.65-1.15-.25-.35-.7-.65.05-.05q.65-.4 1.45-.3t1.35.6q.5.5.65 1.25l-.15 1.45zm-5.75-.45-.05-.3.1-.5.05-.15-.05-.15.05-.2-.05-.2.1-.2.4.2.35.35.25.65.05.25-.05.2-.55.45q-.5 0-.6-.4"/></g></svg>