<svg xmlns="http://www.w3.org/2000/svg" xmlns:ffdec="https://www.free-decompiler.com/flash" ffdec:objectType="shape" width="75.45" height="39.6"><g fill-rule="evenodd"><path fill="#999" d="m73.6 7.2 1.35 2.8q.6 1.9.45 4-.1 1.95-.7 3.55-1.15 2.75-4.35 4.8-4.9 3.35-12.2 3.75-6.75.5-12.3-1.65-2.25-.85-3.75-2l-.2.05-1.7.55-1.85.8q-1.25.4-1.85-.45-.4-.55-.15-1.35l.65-1.2 2.1-3.05q-.2-1.1-.25-2.6 0-2.9.7-4.8.65-1.65 2.1-3.35Q46.25 1.5 52.7.3l5.85-.3 6.4.4q3.5.65 5.75 2.7 1.35 1.3 2.9 4.1M66 4.6q-3.4-1.05-6.8-1l-3.25.15H53.6Q49.05 4 44.7 9q-1.15 1.3-1.6 2.3-.75 1.7-.65 3.6l.1 1.35.1.55.1.3q.3 1.05 1.15 1.9 1.25 1.35 3.95 2.25 4.35 1.55 9.1 1.4 4.7-.2 9-1.95 4.3-1.8 5.45-4.65.8-2.2-.05-4.8-.5-1.7-2.25-4.25-.65-1-1.25-1.5-.55-.4-1.85-.9"/><path d="M52.5 11.4q-.75.65-.6 1.4.15.6.9.9l1.35.3q1.85.35 2.75 1.55l.2.15.2-.15q.4-.55 1.1-.9.55-.3 1.75-.65l.9-.45q1.2-.75 1.45-1.65v-.6q-.05-.6-.55-1t-1.15-.4q-1.3-.1-1.9 1.25l-.2.5-.9.6q-.55.1-1-.35l-.65-.8-.95-.45q-1.45-.25-2.7.75m2.55 5.7q-.6-.55-2.2-.9-1.7-.35-2.3-.85-1.25-.9-1.25-3.05l.15-1.2q.2-.5.7-1.1l1-1q1.4-1.15 3.8-.95 1.25 0 2 .55l.55.25q.2 0 .4-.2 1.45-.95 3-.9 1.65.1 2.75 1.35.8 1 .8 2.35t-.8 2.35q-.9 1.25-3.4 2.15-1.95.75-2.4 1.5-.45 1-.9 1.05l-.55-.15-.8-.65zm-51.9.65q1.5-5 5-8.3l-.2-1.15-.05-.7-.15-.7-.2-1.35v-.7l-.05-.4q.1-.6.35-1 .25-.5.8-.65l.8-.05 2.5.45 1.65.7 1.65.8.55.45.15-.1 6.25-.5q4.65.55 7.55 3.2 1.4 1.35 2.35 3.15l2.5.25 3.35.85q1.4.4 1.75 1.05.25.55.05 1.25l-.45.85-.8.65-1.7 1.2-1.5 1.4-1.1.55-.25.05q.05 3-.75 5.8-.7 2.55-2.1 4.6l6.85-2 3.15-.8v-.2q-.15-1 .1-1.8.3-.95 1.05-1.35 1.25-.7 2.35.2 1 .75 1.1 2.1l-.1.6 1.6.45q1.3.55 2.15 1.95.8 1.4.65 2.7-.25 1.95-2.45 3-1.35.65-3.85.9l-24.3 3.2-.45.7-.65.55L0 37.45V27.3q1.05-.7 2.2-1.3.35-.2.75-.3-.95-3.7.2-7.95m9.05 3.4-.2 1.4q-.1 1.5 1 2.45l1.05.6q1.65.55 3.15-.3l.8-.3 1.1 1.25q.9.55 2.8.35l.85-.2.55-.5.85-1q.35-.55.25-1.25l-.25-.4-.75-.05-.75.6-.8.55q-.55.25-1.2 0l-.95-.8-.65-1.15-1.1-.05-.6.6-.8.5q-1.35.6-2.15 0-.55-.45-.75-1.55l-.05-.6.1-.65q-.1-.45-.6-.45-.35-.05-.65.3zm-2.75-6.1q-.5.8-.35 1.8l.3.85.25-.05 1.45.2q.25.05 1.7.65l.7-.6.3-.4-.5-.55-.55-1.05q-.1-.6.15-1.6-.85-.5-1.75-.35-1.05.15-1.7 1.1m20.7 3.45q-.6-.6-1.35-.7l-.2.25-.25.25-.35.55-1.05 1.1-.75.35-.25.1.05.3.4.95q1.7-.05 2.6.95l.05.05.4-.15 1.1-1 .35-1.4q-.05-.95-.75-1.6"/><path fill="#fff" d="M30.15 18.5q.7.65.75 1.6l-.35 1.4-1.1 1-.4.15-.05-.05q-.9-1-2.6-.95l-.4-.95-.05-.3.25-.1.75-.35 1.05-1.1.35-.55.25-.25.2-.25q.75.1 1.35.7m-20.7-3.45q.65-.95 1.7-1.1.9-.15 1.75.35-.25 1-.15 1.6l.55 1.05.5.55-.3.4-.7.6q-1.45-.6-1.7-.65l-1.45-.2-.25.05-.3-.85q-.15-1 .35-1.8m2.75 6.1.25-.65q.3-.35.65-.3.5 0 .6.45l-.1.65.05.6q.2 1.1.75 1.55.8.6 2.15 0l.8-.5.6-.6 1.1.05.65 1.15.95.8q.65.25 1.2 0l.8-.55.75-.6.75.05.25.4q.1.7-.25 1.25l-.85 1-.55.5-.85.2q-1.9.2-2.8-.35L18 25l-.8.3q-1.5.85-3.15.3L13 25q-1.1-.95-1-2.45z"/></g></svg>