<svg xmlns="http://www.w3.org/2000/svg" xmlns:ffdec="https://www.free-decompiler.com/flash" ffdec:objectType="shape" width="69.3" height="39.75"><g fill-rule="evenodd"><path fill="#999" d="M62.75 3.95q-1.2.1-2.1.65l-.15-.2q-.5-.55-1.7-.75l-1.55-.1q-.5.1-.85.3-2.1 1-2.55 2.2-.25.55-.25 1.8 0 1.05.45 1.7l1.25.95 1.55.8.8.35.4.8q.25.55.7.75.5.25.95 0l.35-.3.3-.3.9-.7.2-.1 1.55-.35 1.15-.45.95-.65 1.1-.8.35-.65q.45-1 .2-2.2l-.5-1.4-.8-.65q-1.25-.8-2.7-.7m.55 24.15 1.15-.1 1.45.05q1.35.2 1.7.55.6.55.45 1.25-.1.75-.75 1.1l-1.95.05-7-1.4-3.25-.7-.45-.15q-.2-.2-.1-.4l3.2-.25 1.05.1 1.5-.1 2-.05zm-25.05-8.4-.15-1.8-.15-.5-.15-1.5v-.5q.05-.45.5-.75.4-.35.85-.3.5.05.85.4l.35.85q-.2 1 0 3L40.3 20l.05.65-.1.6-.1.65.05.55-.25.4-.45.05-.35-.35-.55-1.6zm7.2-7.8-.35.4-.2.45-2 6q-.3.9-.75 1.25l-.35.15-.25-.3q-.3-.55-.2-1.85l.6-6.65-.1-.6.1-1.45.3-1.05q.3-.55.9-.9l1.25-.2q.65.1 1.15.6.45.5.55 1.2v1zm1.3-5.9-.15-.8V2.95q0-1 .25-1.4Q47.3.7 48.2.9q.95.15 1.1 1.1l-.15 1.25-.4 1.2-.9 1.65q-.2.6-.5.6-.5.05-.6-.7M68 21.7q-.35.5-1.05.6l-1.2-.15q-.55-.35-.75-1t.05-1.2q.3-.6.9-.85l1.25-.05.85.7q.65 1-.05 1.95m-16.85 4.8q-.2-.35.3-.75l1-.6 1.75-.55.8-.2q.9-.2 2.85-1.15l1.45-.75.75-.45 1.35-.25q.7.05 1.25.5l.75 1.15q.25.7.05 1.35l-.75 1.15q-.55.5-1.25.55l-1.95-.1-2.45-.05-1.2.15-4.05.25q-.55 0-.65-.25M63 18.95l-.15.05-.2.1q-1.4.8-3.8 1.65l-13.2 4.95-2.15.75-1.1-.25q-.55-.35-.65-.9-.15-.65.5-1.3.35-.35.85-.6l-.15-.6q-.05-.7.55-2.1l3.1-6.65 1.15-2.75.6-2.05 1-2.75q.25-1 .8-1.95 1.05-1.9 2.9-3.05Q54.8.4 57 .1l4.25.25q3.3.8 5.5 3 2.4 2.4 2.55 5.6.05 1.2-.3 3.1l-.85 3q-.7 1.45-2.1 2.5-1.35 1-3.05 1.4M22.55 6q-.1.75-.6.7-.3 0-.5-.6l-.9-1.65-.4-1.2Q19.9 2.45 20 2q.15-.95 1.1-1.1.9-.2 1.35.65l.25 1.4V5.2zM6.3 18.95q-1.7-.4-3.05-1.4-1.4-1.05-2.1-2.5-.45-.9-.85-3-.35-1.9-.3-3.1.15-3.2 2.55-5.6 2.2-2.2 5.5-3L12.3.1q2.2.3 3.95 1.4 1.85 1.15 2.9 3.05l.8 1.95 1 2.75.6 2.05 1.15 2.75 3.1 6.65q.6 1.4.55 2.1l-.15.6.85.6q.65.65.5 1.3l-.65.9-1.1.25-2.15-.75-13.2-4.95q-2.4-.85-3.8-1.65l-.2-.1zm17.55-7.05q-.45-.55-.65-1.95v-1q.1-.7.55-1.2.5-.5 1.15-.6l1.25.2.9.9.3 1.05.1 1.45-.1.6.6 6.65q.1 1.3-.2 1.85l-.25.3-.35-.15q-.45-.35-.75-1.25l-2-6-.2-.45zm-5.55 2.6-.15.15.35.55.65.95zm12.75 5.2-.35 1.25-.55 1.6-.35.35-.45-.05-.25-.4.05-.55-.1-.65-.1-.6L29 20l-.05-1.4q.2-2 0-3 0-.45.35-.85.35-.35.85-.4.45-.05.85.3.45.3.5.75v.5l-.15 1.5-.15.5zm-26.8-8.3.9.95-.05.1q-.3.65-.05 1.3.2.65.9 1l1.3.1.55-.25.5.4.9.2 1.15-.3.5-.55.55.15q1.1 0 1.65-.85.5-.9 0-1.8v-.05l1.15-1.45.6-1.95.15-1.4q-.05-1.25-1.05-2.5-.75-.85-1.35-1.2-1.45-.95-3.5-.85-1.7.15-3.35 1.2l-.95.7-.9 1.3-.55.95q-.75 1.7.05 3.35zM1.3 21.7q-.7-.95-.05-1.95l.85-.7 1.25.05q.6.25.9.85.25.55.05 1.2l-.75 1-1.2.15q-.7-.1-1.05-.6m16.85 4.8-.65.25-4.05-.25-1.2-.15-2.45.05-1.95.1-1.25-.55q-.55-.5-.75-1.15t.05-1.35q.2-.7.75-1.15t1.25-.5l1.35.25.75.45 1.45.75q1.95.95 2.85 1.15l.8.2 1.75.55 1 .6q.5.4.3.75M6 28.1l1-.05 2 .05 1.5.1 1.05-.1 3.2.25-.1.4-.45.15-3.25.7-7 1.4L2 30.95q-.65-.35-.75-1.1-.15-.7.45-1.25.35-.35 1.7-.55L4.85 28z"/><path fill="#fff" d="m59.75 10.55-.6-.9-1.2-.6-1.35-.8-.35-.25q-.35-.5 0-1.15l.95-.7.85-.3.9.3.5.35.2.55.65.45.5-.15.4-.2.7-.65q.5-.5 1.1-.4l1.2.3.35.15.25.4.15 1-.35.45-1.5.95-2.1.75q-.9.2-1.25.45M10.6 8.75q.1-.5.55-.85t.95-.3q.55.05.95.4.4.4.45.9.05.55-.25 1t-.8.6l-1-.05q-.5-.25-.75-.7-.25-.5-.1-1m-2.85 1.5-.4.85q-.6.6-1.4.45-.75-.1-1.2-.85-.45-1.1.35-1.8.35-.35.85-.45l.95.15q1.05.5.85 1.65"/><path d="M62.75 3.95q1.45-.1 2.7.7l.8.65.5 1.4q.25 1.2-.2 2.2l-.35.65-1.1.8-.95.65-1.15.45-1.55.35-.2.1-.9.7-.3.3-.35.3q-.45.25-.95 0-.45-.2-.7-.75l-.4-.8-.8-.35-1.55-.8-1.25-.95q-.45-.65-.45-1.7 0-1.25.25-1.8.45-1.2 2.55-2.2.35-.2.85-.3l1.55.1q1.2.2 1.7.75l.15.2q.9-.55 2.1-.65m-3 6.6q.35-.25 1.25-.45l2.1-.75 1.5-.95.35-.45-.15-1-.25-.4-.35-.15-1.2-.3q-.6-.1-1.1.4l-.7.65-.4.2-.5.15-.65-.45-.2-.55-.5-.35-.9-.3-.85.3-.95.7q-.35.65 0 1.15l.35.25 1.35.8 1.2.6zM10.6 8.75q-.15.5.1 1 .25.45.75.7l1 .05q.5-.15.8-.6t.25-1q-.05-.5-.45-.9-.4-.35-.95-.4-.5-.05-.95.3t-.55.85M4.25 11.4l-.9-1.45Q2.55 8.3 3.3 6.6l.55-.95.9-1.3.95-.7q1.65-1.05 3.35-1.2 2.05-.1 3.5.85.6.35 1.35 1.2 1 1.25 1.05 2.5l-.15 1.4-.6 1.95-1.15 1.45v.05q.5.9 0 1.8-.55.85-1.65.85l-.55-.15-.5.55-1.15.3-.9-.2-.5-.4-.55.25-1.3-.1q-.7-.35-.9-1-.25-.65.05-1.3l.05-.1zm3.5-1.15q.2-1.15-.85-1.65l-.95-.15q-.5.1-.85.45-.8.7-.35 1.8.45.75 1.2.85.8.15 1.4-.45zM44.15 8.2l-.25.4-.9.1q-.45-.25-.45-.75v-.3l.2-.3q.3-.3.55-.25h.05l.05-.05.5.2.2.25.15.4zm13.8 14q.85 1.45 1.15 3.05.25 1.4-.15 4.15l-.35 1.75.2.2 1.65 2.2q1 1.6.35 2.55-.5.75-2.2.85l-3.5.2-.5.05-.55.35q-.75.5-2.45 1.2-3.75 1.4-6.75.8Q41.6 39 38.9 36.2l-.55-.55-1.4.9q-5.3 2.85-12.1 1.75-2.9-.45-4.8-1.6-2.5 0-4.8-1-2.75-1.2-4.45-3.4L9.95 31Q8 27.5 8.2 20.45q0-1.8.6-2.55.6-.7 1.65-.75 1 0 1.65.65.45.55.6 1.45l.05 1.65q-.1 2.65.15 4.4.35 2.2 1.15 3.55.85 1.55 2.25 2.4l-.05-1.55q.1-1.65.5-2.6l.75-1.45-.05-.05-.3-1q-.8-2.4-1.1-4.1l-.4-2.45q-.2-1.95.65-3.85.35-.9.95-1.35.75-.6 1.85-.45.95.05 1.8.75l.9.95.35 1.35q.4 3.1.15 6.1l-.1.75.35-.15q3.3-1.2 6.95-1.05l2.35.3-.05-.25h.05l.75-4.9.3-1.55-.1-.05-.7-.5-.7-.7q-.25-.5-.15-1.55l.3-1 .25-.25q.95-.9 2.2-.55l1.45.6.2.1.6-.1 2.05.4q1.25.4 1.65 1.25l.15.3.8-1.25q.6-.9 1.25-.8l.95.7 1.4 1.85.3.75.5.9.8 1.7.1-.35v-.65l.2-1.35v-.9l-.1-.6.1-.4-.1-.35-.05-.85q0-.4.15-.7.25-.8 1.1-.7l.05-.05.85.45q.4.4.3.9l-.3.8-.2.9-.35.7-.1.5-.45 1.5-.1.8-.1.45 3-.1 1.3.2.7-.35q1.3-.5 2.2-1.1l1.05-.65 1.2-.3q1.05.1 1.4 1.1l-.05 1.8-.1.75-.25.6-.4 1.2-.2.75zm-13.7-4.85h.05Q43.25 15.1 42 13.3l-.85 1.35q-.5.8-.65 1.45v.45l.3.3 2.15 1.1q.6-.35 1.3-.6m-6.4 2.85-.45 1.3-.3 1.45.55.35 1.75-2.55 1.35-1.3-.7-.4L38.7 18zm12.5 5.9.1-.6-.1-1.25 1.8-.45.7-.45q.25-.5-.05-.9t-.85-.4l-.9.3-1 .35-.05-.3-.4-1.5-.7-.6-.7.1q-.2-.05-.35.15l-.15.5.45 1.65.05.4q-1.1.3-1.7.75l-.3.5.35.3.5-.05 1.4-.2.2.75.05.75.4.55.7.05.3-.1zm.45-11.6q-.5.5-1.2.25-.65-.25-.65-1t.7-1l.3-.05.1-.05q.5 0 .8.4l.25.75zm-8.55 15.1.6.4q-.3.65-.2 1.6l.15.95q.1.7.4 1l.9.5 1.2-.15.15-.4-.35-.4-.55-.35q-.15-.15-.15-.6l.1-1.1q.9-.5 1-1v-.55l-.05-.35-.1-.3-.6-.55-1.3-.5-.3-.55-.05-.25-.05-1.25.1-.05.1-.2.1-.15q0-.05.25-.15.35-.15.25-.55l-.45-.45-.15.05q-.9.3-1.2 1.2l-.1.3-.4.85-.2.9.05.6q0 .6.4 1.1zm9 6.45q.95-1.2.25-2.55-.65-1.35-2.2-1.25-.75.05-1.35.55-.65.55-.8 1.3-.15.8.2 1.55.4.7 1.1 1.05l1.5.15z"/><path fill="#fff" d="M44.25 17.35q-.7.25-1.3.6l-2.15-1.1-.3-.3v-.45q.15-.65.65-1.45L42 13.3q1.25 1.8 2.3 4.05zm6.1 8.75-.25.3-.3.1-.7-.05-.4-.55-.05-.75-.2-.75-1.4.2-.5.05-.35-.3.3-.5q.6-.45 1.7-.75l-.05-.4-.45-1.65.15-.5q.15-.2.35-.15l.7-.1.7.6.4 1.5.05.3 1-.35.9-.3q.55 0 .85.4t.05.9l-.7.45-1.8.45.1 1.25zm.9 9.95-1.3.8-1.5-.15q-.7-.35-1.1-1.05-.35-.75-.2-1.55.15-.75.8-1.3.6-.5 1.35-.55 1.55-.1 2.2 1.25.7 1.35-.25 2.55m-9-6.45-.45-.4q-.4-.5-.4-1.1l-.05-.6.2-.9.4-.85.1-.3q.3-.9 1.2-1.2l.15-.05.45.45q.1.4-.25.55-.25.1-.25.15l-.1.15-.1.2-.1.05.05 1.25.05.25.3.55 1.3.5.6.55.1.3.05.35v.55q-.1.5-1 1l-.1 1.1q0 .45.15.6l.55.35.35.4-.15.4-1.2.15-.9-.5q-.3-.3-.4-1l-.15-.95q-.1-.95.2-1.6z"/></g></svg>