<svg xmlns="http://www.w3.org/2000/svg" xmlns:ffdec="https://www.free-decompiler.com/flash" ffdec:objectType="shape" width="76.4" height="41.1"><g fill-rule="evenodd"><path fill="#999" d="M29.3 14.95Q27.75 16.7 26.9 17q-.8-2.05 1.05-4.35 2.2-2.55 6.65-3.7 4.2-1.05 7.1 0 4.2 1.45 6.1 6.4 1.4 3.6 1.2 9.1V25l1.1-1.05q.9-.75 2.7-1l2.5-.05 1.2.6.6.4.3.4-.35-1.7q-.25-1.4-.15-2.6l-.45-.05-1.05-.3-.8-.3q-.8-.35-1-1.2-.15-.95.5-1.5l.8-.55 2.7-1.1 1.65-.45q1.05-1.1 2.5-1.85 2.1-1.05 4.95-1.2l3.3.35 2.3-1.8q.75-.55 1.3-.55t.8.5q.25.2.35.9l1.1 6.9q.65 1.9.5 3.95-.3 3.45-2.8 5.75-.9.85-2.5 1.55l.55 1.15 1.15 3.95.55 2.55.35 1.1.1 1q-.15 1-.7 1.6-.75.95-2.05.65l-.4-.15-.7.1q-.85-.1-1.5-.5l-.55-.4-.1.05q-1.4.9-2.6.35l-.4.15-1.55-.05-1.1-.15q-.85-.3-1.35-1-.55-.75-.45-1.55l.2-1.1.75-2.3-.55.45-2.05 1.15-2.4.75-2.1.85-2.6.25q-1.4-.1-2.2-.8-1.35-1.25-.9-2.95.35-1.6 2.1-2.3 1.55-.65 3.2 0l1.45.5 1.1-.1q1.7-.35 3.35-1.35l2.1-1.35q-1.75-.8-2.85-2.25l-.45-.65.05.8-.2 1.1-.5 1.45-.7.65-.8.5-2.1.15q-1.1-.3-1.8-1.1l-.4-.75-.05-.8.4-1.5q.4-.7 1.25-.9l1.65.15.55.6q.15.3-.1.8l-.35.4-.75-.15q-.45-.2-.75 0-.2.5-.1.6l.35.4.55.3.8-.2.75-.4.25-.7.1-.75-.25-.95-.4-.65-.55-.3-1.5-.3q-.8-.1-1.45.45-.7.55-1.3 1.8l-1 1.85-3.4 2.5-1.15.6-.15.15-1.75 1.1Q40.8 35.25 39 35.9q-2.65.9-4.9.6-2.95-.35-5.3-2.6h-.15l-1.1-.3q-1.5-.65-2.3-2.3l-.35-.8-.4-.65-.15-1-.2-.5-.15-.75q-.1-1.1.2-2.1l.15-.5.7-.55.8.05q.8.35.8 1.4L26.6 27l.35 1.05.05.6.35.65q2.55 3.3 4.7 4.4 2.85 1.35 5.8.55 1.1-.2 2.8-1.1 3.25-1.55 4.5-3.25 2-2.55 1.85-8.5-.1-2.75-.5-4.05-1-3.5-3.5-4.8l-3.2-1.6-2.65-.1q-2 .1-3.85.9-1.9.85-4 3.2m38.5 8.75-.15.05-.9-.55-.6-.2q-.35 0-.55.25l-.2.5-.75.75-1.9-.15q-.25.3-.2.75l.35.7.7.45.1.3.25.55.5.55.3.2.65.25.25.05q1.35.35 2.45-.45l.8-.8.25-.4.15-.6v-.85l-.05-.4.4-.6.15-.8v-.3l-.3-.45-1.05 1.05zm-9.95-.5q.35.9 1.2 1.4l.4.15.05-.05q.8-.5 2.05-.75h.9L63 22.9q.25-.8-.05-1.55-.6-1.75-2.45-1.85-.8-.1-1.55.4-.7.45-1.05 1.2-.45 1-.05 2.1m16.55-3.35q0-1.45-1.1-2.4l-.45-.3-1.4-.4-.05.05q-1.15 0-1.95.85-.65.6-.8 1.55-.2 1.05.2 1.9.55 1.05 1.6 1.4.9-.45 2.4-.55l.6.05.8-1.15zM40.75 32q-1.15.75-1.9 1l-2.35.25q-4.65 0-6.75-1.95-1.4-1.2-2.1-3.65t-.4-5.05 1.5-4.8q2-3.5 5.3-5.05 1.35-.65 2.75-.8 2.9-.25 5.65 1.8 1.15.9 1.9 1.95 1.65 2.25 1.85 5.4.25 2.45-.7 5.7l-.85 1.95-1.35 1.35zm-7-1.9 1.55.35 1.8.1q1.75-.15 3.95-2.1l1.6-1.5q.65-.9 1.1-3.2.4-2.4.25-3.4l-.5-1.6-.95-1.7-1.6-1.15Q38.5 14.6 37 14.85q-.65.1-1.65.55-2.05.9-3.05 1.8-2 1.75-2.4 5.1-.5 4.35 1.95 6.65.9.8 1.9 1.15m3.95-14.45 1.5.3q2.65.85 3.65 3.8.75 2.55-.2 5.4l-.7 1.55-1.7 1.8-1.65 1.05-2.85.25q-1.45-.25-2.6-1.15-.8-.6-1.65-1.95l-.75-1.65q-.3-1.15-.2-2.3.25-1.8.7-2.9l.65-1.25q.9-1.3 1.85-1.95 1.3-.95 2.6-1zm29.25 9.55 1.05.15-.05.2-.1.25-.15.1-.15.25-.5.4q-.4.2-.7 0l-.3-.25-.5-.2-.1-.4v-.05l.35-.55z"/><path fill="#fff" d="m74.4 19.85-.15 1-.8 1.15-.6-.05q-1.5.1-2.4.55-1.05-.35-1.6-1.4-.4-.85-.2-1.9.15-.95.8-1.55.8-.85 1.95-.85l.05-.05 1.4.4.45.3q1.1.95 1.1 2.4M57.85 23.2q-.4-1.1.05-2.1.35-.75 1.05-1.2.75-.5 1.55-.4 1.85.1 2.45 1.85.3.75.05 1.55l-.55 1.05h-.9q-1.25.25-2.05.75l-.05.05-.4-.15q-.85-.5-1.2-1.4m9.95.5.65-.15 1.05-1.05.3.45v.3l-.15.8-.4.6.05.4v.85l-.15.6-.25.4-.8.8q-1.1.8-2.45.45l-.25-.05-.65-.25-.3-.2-.5-.55-.25-.55-.1-.3-.7-.45-.35-.7q-.05-.45.2-.75l1.9.15.75-.75.2-.5q.2-.25.55-.25l.6.2.9.55zm-.85 1.5-1.15-.1-.35.55v.05l.1.4.5.2.3.25q.3.2.7 0l.5-.4.15-.25.15-.1.1-.25.05-.2zM32.1 24l-.45-.35q-.6-.6-.25-1.35l.35-.45q.3-.3.65-.35l.9.2q.85.4.6 1.3l-.35.65-.6.35q-.5.2-.85 0m-4.6-5.4.35 1q.2 1.05-.45 2.3l-.65 1.05q-1 1.05-2.35 1.5l-2.75-.1-.85-.45q-.95-.65-1.35-2.05l2.2-.65q3.1-1.2 4.55-4.2.75.55 1.3 1.6m9.15 4.05-.75.35-.65-.1q-.7-.3-.85-1.05-.2-.75.2-1.35.65-.6 1.5-.45.95.3 1.1 1.15v.45zm3.25 2q-.75.65-1.7.3-1-.45-.85-1.4.1-1.05 1.05-1.35t1.55.45l.35 1zm-26.85-.3-.45.95q-1 1.7-3.05 2-1.9.3-3.45-1.1-.75-.7-1.05-1.75l-.1-.75q-.15-1.65.85-2.9l.1.15 2.1 1.1q2.75 1.1 4.55 1.15h.8zm7 1.25.7.3q.55.35.45.8-.05.5-.85.7l-2.3.6-3.85 1.55q-1.2.25-1.65-.75l-.2-.3q-.15-.75.55-1.45.3-.25 1.35-.65l.9-.25.5-.05.05-.55.35-.9q.4-.4.95-.35.55.1.8.55l.25.75zm17.35.3q0 1-.9 1.7-.85.7-1.9.3l-.85-.55q-.8-.8-.55-1.9.25-1.15 1.25-1.5l2 .15q.95.6.95 1.8"/><path d="m32.4 21.5.4-1.15q1.4-2.65 4.05-3.15 1.35-.2 2.65.35 1.25.6 1.9 1.75.75 1.35.65 3.55-.15 2.2-.7 3.75l-.75 1.65-.15.15q-1.55 3.5-2.65 4.75-1.1 1.35-2.6 2.25-1.6 1.25-3.25 1.8l-5 .35-1.65-.4.05.2q.3 1.1.05 1.95H4.95v-.75l3.25-7.6-1.35-.7q-2.15-1.05-3.5-2.6-1.85-2.25-2.1-5.5l-.1-.85-.95-3.85q-.35-2.3-.15-5.4l.6-5.3q.1-1.5.65-2.3.5-.6 1.3-.8.95-.1 2.35.6l2.15 1 .75.4 2.5-1.7q2.35-1.2 5.35-1.5 4.15-.4 7.45 1l2.05-2Q26.8 0 27.85 0q1.1 0 1.65.7.7.75.8 2.5l.9 7q.4 4.05.1 7l-.35 1.8q-1 5.95-5.4 9.65l-2.05 1.5.75.55 1.15.95q1.8 1.15 4.05.6 2.2-1.1 2.9-2.45.4-.75.4-1.75l-.45-2.5-.2-1.55q.35.2.85 0l.6-.35.35-.65q.25-.9-.6-1.3zm5 4.4q0-1.2-.95-1.8l-2-.15q-1 .35-1.25 1.5-.25 1.1.55 1.9l.85.55q1.05.4 1.9-.3.9-.7.9-1.7m-17.35-.3h-2l-.25-.75q-.25-.45-.8-.55-.55-.05-.95.35l-.35.9-.05.55-.5.05-.9.25q-1.05.4-1.35.65-.7.7-.55 1.45l.2.3q.45 1 1.65.75L18.05 28l2.3-.6q.8-.2.85-.7.1-.45-.45-.8zm-7-1.25.3-1.15h-.8q-1.8-.05-4.55-1.15l-2.1-1.1-.1-.15q-1 1.25-.85 2.9l.1.75q.3 1.05 1.05 1.75 1.55 1.4 3.45 1.1 2.05-.3 3.05-2zm26.85.3.4-1-.35-1q-.6-.75-1.55-.45t-1.05 1.35q-.15.95.85 1.4.95.35 1.7-.3m-3.25-2 .55-1v-.45q-.15-.85-1.1-1.15-.85-.15-1.5.45-.4.6-.2 1.35.15.75.85 1.05l.65.1zM27.5 18.6q-.55-1.05-1.3-1.6-1.45 3-4.55 4.2l-2.2.65q.4 1.4 1.35 2.05l.85.45 2.75.1q1.35-.45 2.35-1.5l.65-1.05q.65-1.25.45-2.3z"/></g></svg>