<svg xmlns="http://www.w3.org/2000/svg" xmlns:ffdec="https://www.free-decompiler.com/flash" ffdec:objectType="shape" width="74.05" height="42.2"><g fill-rule="evenodd"><path fill="#999" d="M59.9 8.85q.6.2.85.45l.5.6.35.9q.15 1.1-.8 1.95-.7.7-2 .95l-2.2.05-1.4-.15-1.4-.6-.95-.65-1.5-.65q-1-.4-1.4-1.35-.45-1.05.1-1.9.7-.95 1.75-.7l.8.4.8.35 1.6-.25q1.55-.4 3.1 0zm1.4 15.05q.5-.25.95-.55l1.25-.5q1.2-.4 2.4-1.15 1.25-.8 1.65-.9l1.7.1.8.65q.35.5.2 1.25l-.5 1.1q-.65.85-2.65 1.9l-1.2.55-1.8.55-2.1.9q-1.5.4-2.15-.5l-.4-.85q-.2-1.35.55-1.95zM0 30.55h6.5q.35-.85 1.3-1.3 1.15-.55 2.55-.4.85.05 1.9.45l.3-.3 2.05-1.5 1.25-.65 1.7.05q1.85.3 2.55 1l.5.35.55-.05 4.2.3q1.3.55 1.8 1.45l.2.6h9.85q1.55-1.1 2.75-1.2l2.4.3q1.25.25 1.8.9H52l.4-.4q1.4-1.15 3-1.3 1.55-.1 2.65.65l.15-.1q.6-.55 1.1-.65l1.95-.2 2.55.25.9.3.6-.15 3.85.2.95.7.4.7h3.55V42.2H0zM11.6 20.4q-.55-.4-.65-1-.15-.65.25-1.15.2-.35.9-.75l1.2-.6 3-.8 1.05-.3 2-1.25q1.35-.7 2.2-.2.5.35.65.85.45.95-.2 1.75l-.75.65q-1.65 1.2-2.8 1.65l-1.9.5-1.95.45-1.5.4zm19.75-1.7q.5-.65 1.15-.95.8-.35 1.45 0l.95.8.7.7q.8.95.25 2.2-.5 1.05-1.7 1.55-1.15.35-2.1 0-1.1-.4-1.4-1.45-.5-1.4.7-2.85M8.4 9.55l1.8.5.65.85q.2.6.05 1.15-.25.5-.15.7l.2.35q.35.45.25 1.05l-.45 1q-.7.75-2 .85-2.05.15-3.4-1.25Q3.9 13.4 4 11.4q.1-1.05.5-1.5.65-.75 1.9-.65z"/><path d="M12.05 14.45q-.35.7-.35 1.75l.05-.1q2.05-1.95 4.45-2.55l2.45-.45 2.35-.6 1.9-.8 1 .1.7.7q.15.45-.2 1.3l-1.25 3.05-.95 1.55-1.25.95-3.3 1.55q-2.65 1-4.2.6l-.65-.25.55.95 1.6 1.7q2.15 2.15 2.75 4.6.7 2.65-.4 4.85l-.2.85q-.55 1.15-1.8 1.3-1.05.15-1.75-.55-.75-.65-.65-1.65l.25-.95.55-1 .4-.45.45-1.2v-.85L14.4 28l-.55-.85-1.5-1.5-1.55-1.5q-1.5-1.6-2.15-5l-.3-1.95-2.3-.2q-1.5-.45-2.45-1.25-1.15-.95-1.55-2.3-.15-.55-.15-2.4l.05-2.1q.15-.8.65-1.75.35-.6.8-.85l1.8-.15 1.1.85q.55.45 1.55.8l1.3.25 1.3.35 1.3.8.2-.3q1.3-1.8.95-4.4-.35-1.8-.1-2.4t.95-.9q.65-.25 1.25 0 1.35.55 1.45 2.95.25 4.8-2 7.45L13.15 13zm50.2-6.9 1.05 1.2 1 1.2q.7 1 1 2.9.25 1.75-.15 3.05-.6 1.5-2.3 2.85l-2 1.35q-1.6.9-1.9 1.45-.6 1-.05 2.5l.4-.8q.65-1.15 2.35-1.7l3.3-.75 1.55-.35 1.7-.1 1.1-.05q.7.1.95.55l.15.75-.15 1.7-.75 1.65-1.15 1.1-1.25.95-1.2.6-1.6.65-2.25.35v.05l.45.75.9 1.25.2.3h.15l.65.25q.7.5.6 1.3 0 .8-.75 1.2l-1.1.25-1.55-.25-.7-.65-.7-.95-.45-1.5q-2.15-2.4-3.1-3.95-1.2-2.2-1.3-3.8-.25-2.2 1.05-3.8l1.7-1.4 1.95-1.1 1.6-1.6.45-1.45-1.45.9-1.85.85-2.1.25q-3-.1-5.5-1.6-1.75-1-2.25-2.4l-.3-.95-.45-1.45-.2-1.8q0-.55.15-1 .25-.5.75-.65l.9.2.85.55 2.7.45 2.85-.35 2.15.25q-.45-2.2.2-4.3.55-1.8 1.7-2.3L61.7.1q.8.25 1 .95.15.55-.15 1.2l-.6 1.2q-.95 2.1.3 4.1M60.3 10.6l-1.05-1.5-1.35-.5-2.65.15q-2.35.4-4.55-.05.45 1.3.85 1.75.75 1 2.65 1.55l2.25.55 1.7-.05 1.35-.6 1.2-.6.15-.1zm.25 15.65.25.1q3.25.35 6.25-1.95 1.3-1 1.3-1.95l-5.1 1q-1.05.2-1.5.6-.55.45-1.2 1.8-.15.25 0 .4M38.4 18.6l.1.6.65-.1q2.15-.3 3.75-1.6l.3-.35-.15-.35q-.4-.75-1.25-1.1l-1.65-.15q-.95.2-1.8 1.05l-.6.65zM32.15 11l.95-1.4q.85-1 2.1-1.5l2.5-.4 1.45.45q.95.7 1.05 2.2v2.55l2.85.4 1.5 1.05q1.7 1.75 1.2 3.4-.3.95-1.55 1.9l-.25.2q1 .25 2 .8 1.5.75 2.05 1.7l.55 1.3.45 2.05q.15 1.85-.75 3.6-.95 1.75-2.6 2.55l-2.2.75q-1.45.4-2.15.85l-.55.55-.15.7-.45.9q-.35.4-.85.45-1.15.25-1.8-.75-.35-.55-.25-1.4.2-1.7 2-2.75.95-.6 3.25-1.25 1.6-.4 2.15-.85 1.55-1.15 1.4-3.05l-.3-1.2-.75-1.4q-.35-.4-1.55-.95l-.9-.4q.5 1.1.55 2.3 0 1.15-.55 2.2T41 28.1l-1.8.5q-1.5.2-2.1-.45l-.5 1.05-.4 1.1q-.7 1.35-2.6 1.95-2.3.65-4.45-.65-1.05-.6-1.4-1.5-.2-.6-.1-1.9l.1-1.75-.05-.2-.3-.05q-2.55.3-3.8-.55-.85-.55-1.25-1.65-.4-1-.2-2.1.3-1.95 2.25-3.45l1.1-.55-.45-1.45L25 15l.1-1.2.5-.85.65-.7q1-.85 3-1.25l1.2-.05 1.4.4.1.05zm4 4.15.65-.75.6-.8q.5-.95.2-3.2-.9-.15-1.6.3-.65.3-1.25 1.1-.55.7-.8 1.35l.35.85q.15.6-.05 1.05l-.15.2 1.75.45zM30 17.4l.75-.55.65-.6.15-.15q-.35-.85-.4-1.95l-.3-.25-1.15-.1-1 .25q-.7.2-.95.55-.15.3-.15 1l.05.7q.15.7.9 1.3l.85.55zm-13.35-1.35q-2.7.75-4.25 3.3 2.2.5 5.6-.85 1.6-.65 2.35-1.3 1.2-.95 1.35-2.25l-2.5.6zm11.75 6.6q-.15-.45-.15-1.35l.1-.7-.45-.05-1.5-.15q-.55.1-1.1.85-1 1.1-.5 1.85.35.55 1.2.55 1.1.1 1.95-.35l.6-.25zm2.6-1 .75.6 1.75.15q.9-.2 1.4-.9l.45-.85q.35-.9.1-1.5l-.75-.65-2.55.1-.75.8-.55 1.1q-.25.65.15 1.15m1.6 3.8-1.75-.4-.25.25-.3 1.05-.3 1.5q-.1 1.1.2 1.45.35.45 1.35.45l1.6-.25q.5-.25.8-1.05.55-1.05.7-2.55l.05-.55zm5.55-3.9-.4 1-.35.75-.65.7-.15.2.5.55 1.3 1.35q1 .35 1.65-.65.5-.8.15-1.85L39.15 22l-.6-.5-.25-.1-.05-.05zm-28.5-10.1.6-.6q-.6-.3-1.65-.45l-1.75-.35q-1.2-.2-1.85-.7l-.3-.05-.1.2v1.9q-.1.75.1 1.25.1.4.55.85l1.4.8 1.05.15.7-.15h.05q.3-1.65 1.2-2.85"/></g></svg>