<svg xmlns="http://www.w3.org/2000/svg" xmlns:ffdec="https://www.free-decompiler.com/flash" ffdec:objectType="shape" width="63.55" height="41.55"><g fill-rule="evenodd"><path fill="#999" d="M63.55 15q.1 2.75-1 4.7-.95 1.7-2.6 2.8l.05 1.2.1.65.55.3q1.4.55 1.9 2l.25 1 .1 1.45q-.1 1.4-1.9 3.05.35.5.2 1.15-.05.7-.55 1.05-.65.55-2.2.45l-.65-.05-.1.2q-.5.9-1 1.15l-1.4.15-.85-.15q-.8.7-2.2.4-1.1-.3-1.5-.95h-.1l-1.05.25-1.2.2q-1 0-1.4-.35l-.65-.6-.35-.7q-.1-.7.4-1.25l-1-1.3-.45-1q-1.8.55-2.7 1.1l-1.65 1.2.65-.15 1.35-.05q.7 0 1.3.35.65.4.85 1.05.3 1.1-.55 1.9-.7.7-1.85.8l-2.1-.25q-1-.05-2.15-.65l-.8-.65q-.3-.35-.3-1.2 0-1.15.15-1.5l.55-1q1.1-1.4 3.15-2.45 1.2-.6 3.8-1.35l.5-.15.4-.65q.65-.95 1.6-1.45l.8-.7.15-.65.2-.8.45-.9-1.1-.85q-1.2-1.05-1.85-2.5-.65-1.55-.45-3.05.05-.85.55-2.15l.8-1.7.4-.5-.45-.75q-.15-.3-.15-1.05 0-1 .15-1.45l.7-1.6.35-.85q.15-.55.4-.85.35-.45.95-.55.55-.1 1.05.3l.65.8.8 1.5.55.75L57.45 8l.3-.25 1.85-2.1q.6-.9 1.05-1.1.35-.15.75 0l.65.45.25 1 .4 1.4.35 1.35.05 1 .1.65-.05.6.05.55.1.75v.2zm-37 0q.1 2.75-1 4.7-.95 1.7-2.6 2.8l.05 1.2.1.65.55.3q1.4.55 1.9 2l.25 1 .1 1.45q-.1 1.4-1.9 3.05.35.5.2 1.15-.05.7-.55 1.05-.65.55-2.2.45l-.65-.05-.1.2-1 1.15-1.4.15-.85-.15q-.8.7-2.2.4-1.1-.3-1.5-.95h-.1l-1.05.25-1.2.2q-1 0-1.4-.35l-.65-.6-.35-.7q-.1-.7.4-1.25l-1-1.3-.45-1q-1.8.55-2.7 1.1-1 .5-1.65 1.2l.65-.15 1.35-.05q.7 0 1.3.35.65.4.85 1.05.3 1.1-.55 1.9-.7.7-1.85.8l-2.1-.25q-1-.05-2.15-.65l-.8-.65q-.3-.35-.3-1.2 0-1.15.15-1.5l.55-1q1.1-1.4 3.15-2.45 1.2-.6 3.8-1.35l.5-.15.4-.65q.65-.95 1.6-1.45.7-.45.8-.7l.15-.65.2-.8.45-.9-1.1-.85q-1.2-1.05-1.85-2.5-.65-1.55-.45-3.05.05-.85.55-2.15.45-1.2.8-1.7l.4-.5-.45-.75q-.15-.3-.15-1.05 0-1 .15-1.45l.7-1.6.35-.85q.15-.55.4-.85.35-.45.95-.55.55-.1 1.05.3l.65.8.8 1.5.55.75L20.45 8l.3-.25 1.85-2.1 1.05-1.1q.35-.15.75 0 .45.1.65.45l.25 1 .4 1.4.35 1.35.05 1 .1.65-.05.6.05.55.1.75v.2z"/><path d="M47.4 13.4q.1 3.5-1.3 6-1.2 2.2-3.35 3.6l.1.7h.1q1.9.15 4.15-1.65 1.75-1.35 2.1-2.8l.2-2.8q-.9-.6-1-1.35-.05-.65.45-1.25.25-.3.7-.5V12.2l.05-1.1q0-1.1.3-1.55.4-.7 1.3-.8.9 0 1.35.65.45.55.45 2v.2q.7.05 1.25.45.85.6 1.2 1.9l.3 2.25-.05 2.25-.8 2.65q-1.05 2.7-2.85 4.55-2 2.1-4.7 2.55l-1.2.1.25 1.25.15 1.85q-.15 1.75-2.45 3.85.45.65.3 1.5-.1.85-.75 1.35-.8.65-2.75.55l-.85-.05-.15.25q-.6 1.15-1.25 1.45l-1.8.2-1.05-.2q-1.05.9-2.85.5-1.4-.4-1.9-1.2h-.15l-1.3.35-1.55.2q-1.25 0-1.8-.4l-.8-.8q-.4-.5-.45-.9-.15-.85.5-1.6l-1.25-1.65-.6-1.25q-2.25.7-3.45 1.4-1.25.65-2.1 1.5l.85-.15 1.7-.1 1.7.5q.8.5 1.05 1.3.4 1.4-.7 2.4-.9.9-2.35 1.05l-2.7-.3q-1.25-.1-2.7-.85l-1.05-.8q-.35-.5-.35-1.55 0-1.45.15-1.9.2-.55.75-1.3 1.4-1.8 4-3.1Q20 30.9 23.3 29.9l.65-.15q.15-.45.45-.85.85-1.2 2.05-1.85l1.05-.9.15-.8.3-1.05.55-1.15-1.4-1.05q-1.55-1.35-2.35-3.2-.8-1.95-.6-3.9.1-1.1.7-2.75l1.05-2.15.5-.65-.6-.95q-.15-.4-.15-1.35 0-1.25.15-1.85l.95-2 .4-1.1q.2-.7.5-1.1.45-.55 1.25-.7.7-.1 1.35.4l.8 1 1 1.9.75 1 6.8-.2.35-.35 2.4-2.65Q43.1.35 43.65.1q.5-.2 1 0l.8.6q.25.35.35 1.25l.5 1.75.4 1.75.1 1.25.1.85-.05.75.1.7.1 1v.25q.35 1.4.35 3.15m-3.65 2.05.45-1.05v-1h-.1l-.4.05h-1.45l-1.3-.05-1.85-.05h-.75q-.1.8.05 1.3.3 1.2 1.7 1.65l.65.15 1.8-.25zm-15.9 0 1.2.75 1.8.25.65-.15q1.4-.45 1.7-1.65.2-.55.05-1.4l-1.15-.05-.35-.05-.9-.05-1.05-.05-.65-.05-.3-.05-.85-.05-.3-.05-.1-.05q-.35.75-.2 1.6zm6.75 1.25-2.45 1.45-.8.65q-.45.55-.15 1 .25.4.75.4l.85-.25 2.55-1.15.45-.15.45.15 2.55 1.15.85.25.75-.4q.3-.45-.15-1l-.8-.65L37 16.7l-.65-.5-.55-.1-.55.1q-.25.1-.65.5"/><path fill="#fff" d="m43.75 15.45-1.2.75-1.8.25-.65-.15q-1.4-.45-1.7-1.65-.15-.5-.05-1.3h.75l1.85.05 1.3.05h1.45l.4-.05h.1v1zM34.6 16.7q.4-.4.65-.5l.55-.1.55.1.65.5 2.45 1.45.8.65q.45.55.15 1l-.75.4-.85-.25-2.55-1.15-.45-.15-.45.15-2.55 1.15-.85.25q-.5 0-.75-.4-.3-.45.15-1l.8-.65zm-6.75-1.25-.45-1.05q-.15-.85.2-1.6l.1.05.3.05.85.05.3.05.65.05 1.05.05.9.05.35.05 1.15.05q.15.85-.05 1.4-.3 1.2-1.7 1.65l-.65.15-1.8-.25z"/></g></svg>