<svg xmlns="http://www.w3.org/2000/svg" xmlns:ffdec="https://www.free-decompiler.com/flash" ffdec:objectType="shape" width="75.65" height="40.25"><g fill-rule="evenodd"><path d="M32.35 16.45q-.1-.3.25-1l.45-.75q.7-1.3 1.55-2.25l.3-.25q.4-.2.5.3v.6l-.6 1.2q-.45.7-.55 1.15l1.05.5q.8.3 1.1.55.6.5.45 1.05l-.5.7-1.8 1.5-.25.3.05.3.7 1.8.15 1.45q-.25.85-1 1-.7.25-1.35-.3-.4-.35-.7-1.25l-.25-1.15-.05-.15v-.35l-.1-.3-.2-1.6q.1-.45.35-.65l.2-.15 2.1-.95-.8-.55q-.95-.45-1.05-.75"/><path fill="#999" d="m45.85 20.75-.75.55-.6.4 1.55.75.15.1.25.5-.15 1.2-.05.2v.3l-.05.1-.2.85-.5.95q-.5.4-1 .2-.6-.1-.75-.75-.15-.35.1-1.05l.5-1.35.05-.25-.2-.2-1.35-1.15-.35-.55q-.1-.4.35-.75.2-.2.8-.45l.8-.35-.4-.85-.45-.9v-.45q.05-.4.35-.25l.25.2 1.15 1.7.35.55zM60.5 9.25l.95.25.8-.45 1.45-.45 1.6-.4q.95.1 1.65 1.1.4.5.8 1.85.8 3.2.65 6.15l-.05 1.05q.4 1.85.3 3.5-.35 3.85-3.05 5.75-.9.65-2.6 1.1 1.4 1.45 2.6 3.6 1.45 2.85 2.2 5.45l.05.2.05-.3q-.05-.8-.5-1.8l-.7-1.75q-.8-2.2-.2-4 .6-2.2 2.55-2.95l1.55-.3q1.45 0 2.4.55.55.25 1.3 1 .9.9 1.2 1.9.4 1.3-.15 2.25-.5.9-1.5 1.25l-1.95-.3q-1.15-.65-1.4-2.35h-.55q-.2 1 .25 2.7l.65 2.7q.2 1.3-.4 2.65l-.6 1H60.7l-.15-.2-.15.2h-4.95l-.2-.8.05-1 .15-3.6v-.15q-1.25.9-2.4 1.3l-1.55.35-2.35-.1q-2.25-.3-3.25-.8-1.1-.4-1.95-1.15-.9-.75-1.3-1.55-.5-.95-.4-2.05t.8-1.9q.65-.8 1.75-1.1l2.05.1q1.9.75 2.55 3.35 1.55.75 3.25.35 1.05-.3 2.35-1.25l1.05-.75v-.1l-.6-.15q-2.75-.65-4.1-1.45-2.8-1.65-3.8-4.7-.85-2.4-.3-4.75-.05-1.65.2-3.9l.2-3.2q.2-.9.95-1.2l1.1-.15q2 .1 3.8.7l1.6-.85q2.75-1 5.4-.45"/><path d="M15.55 4.15q3.05-.65 6.25.55.95.4 1.9.95 2.1-.7 4.45-.8L29.4 5q.9.35 1.1 1.45l.25 3.7.25 4.55q.6 2.75-.35 5.55-1.2 3.55-4.45 5.45-1.55.95-4.8 1.7l-.65.2v.1l1.2.85q1.5 1.15 2.75 1.5 1.95.45 3.75-.45.8-3 3-3.9l2.4-.1q1.25.35 2.05 1.3.8.9.9 2.2t-.45 2.4q-.45.95-1.5 1.8-1 .85-2.3 1.35-1.15.55-3.8.9l-2.7.15-1.85-.45q-1.3-.45-2.75-1.5v.2l.15 4.2.05 1.15-.25.95h-5.75L15.5 40l-.2.25H4.65l-.7-1.2q-.7-1.55-.5-3.1l.8-3.1q.5-2 .25-3.15h-.6q-.3 1.95-1.65 2.7-1 .6-2.25.35v-6.8l.95-.65q1.1-.65 2.8-.65l1.8.35q2.3.9 3 3.45.7 2.1-.25 4.65l-.8 2.05q-.55 1.2-.6 2.1l.05.35.05-.2q.9-3.05 2.6-6.35 1.4-2.55 3-4.2-1.95-.55-3-1.3-3.15-2.2-3.55-6.7-.15-1.95.35-4.1l-.1-1.2q-.15-3.45.8-7.2.45-1.55.9-2.15.85-1.15 1.95-1.25l1.85.45 1.7.5.9.55zm-1.9 10.3-.3.5q-.3.55-.4 1.45l.05.45q.1.95.65 1.75l1.45 1.1q2 .75 3.55-.65.7-.65.95-1.6t0-1.85q-.2-.9-.95-1.55T17 13.2l-1.85.2q-.95.35-1.5 1.05m8.55 5.15-.7-.05q-.35-.25-.15-.7l.15-.3v-.3l-.45-.05q-.65.3-.9 1.15l-.05.7.05.4v.6q.05.45.4.95.7.95 1.8.85l.65-.25.5-.6.25-1.1 1.2-.25.65-.8.05-1-.55-.55q-.5-.1-.6.35l.05.65-.5.3-.55-.25-.65-.3q-.15.05-.35.25zm3.5-1.6 1.3 1.05 1.65.2q.8-.15 1.45-.75.6-.6.8-1.4.25-.8-.05-1.6-.25-.8-.9-1.35-1.45-1.2-3.1-.35-.7.35-1.2 1.05-.45.75-.45 1.55l.2 1z"/><path fill="#fff" d="M65.3 20.65q-.4.9-1.3 1.45t-1.9.55q-1-.05-1.8-.6-.9-.6-1.25-1.55-.25-.5-.25-1.3 0-.85.45-1.7.45-.8 1.25-1.25 1.75-1 3.4 0 .95.55 1.4 1.5.7 1.55 0 2.9m-11.25-1.2.1.75-.05.4q-.25 1.65-1.75 2.3-1.45.65-2.85-.25-1.35-.95-1.35-2.55.1-1.6 1.35-2.45t2.75-.3q1.5.6 1.8 2.1m3.25 3.7q.75.4.9 1.15.2.9-.45 1.35l-1.1.35-1.1-.25q-.85-.5-.7-1.45.1-.8.85-1.2v-.05l.1-.55.4-.4.65.2.2.8zM25.7 18l-.3-.6-.2-1q0-.8.45-1.55.5-.7 1.2-1.05 1.65-.85 3.1.35.65.55.9 1.35.3.8.05 1.6-.2.8-.8 1.4-.65.6-1.45.75l-1.65-.2zm-3.5 1.6.3-.3q.2-.2.35-.25l.65.3.55.25.5-.3-.05-.65q.1-.45.6-.35l.55.55-.05 1-.65.8-1.2.25-.25 1.1-.5.6-.65.25q-1.1.1-1.8-.85-.35-.5-.4-.95v-.6l-.05-.4.05-.7q.25-.85.9-1.15l.45.05v.3l-.15.3q-.2.45.15.7zm-8.55-5.15q.55-.7 1.5-1.05l1.85-.2q.9.2 1.65.85t.95 1.55q.25.9 0 1.85t-.95 1.6q-1.55 1.4-3.55.65l-1.45-1.1q-.55-.8-.65-1.75l-.05-.45q.1-.9.4-1.45z"/><path fill="#999" d="m55.1 2.5-.2-1.2q.1-.55.55-.95.5-.4 1.05-.35.6.1.95.55.4.45.35 1.05l-.25.95-.2 1.4-.25 1.35q-.1.7-.6.6-.35-.05-.45-.6zm.55 5.05.15-.6q.3-.4.7-.35l.1-.05q.65 0 .9.6.25.55-.2 1.1-.5.45-1.05.2-.6-.25-.6-.9"/></g></svg>