<svg xmlns="http://www.w3.org/2000/svg" xmlns:ffdec="https://www.free-decompiler.com/flash" ffdec:objectType="shape" width="76.35" height="41.95"><g fill-rule="evenodd"><path fill="#999" d="M1.05 25.45v-.05l.05-.35V17.8l.05-.3V17l.1-.3v-.45l.05-.2V11.8l.05-.3v-.65l.05-.3V9.9l.05-.3v-.8l.05-.15V8.2l.05-.35.05-.3h.05l-.35-1.6Q.9 3.6 1.2 1.4L1.5 0h74.2l.6 3.9v2.85q-.1 1.45-.5 1.9l-.1.15-.05 3.8.1 6.65.1 2.65.1 4.9v1.45l-.05-.05-.95-1.1-1.1-.5-.75-.2-1.2-.05q-2.05 0-3.75 1.15l-.25.2-.65-.4-1.15-.25-.55-.1-.45-.5q-.95-1.25-2.95-1.5l-2.7.15q-1.5.4-3.65 2.05l-.4.3-.95-.6q-1.15-.55-2.45-.3h-.5l-.5-.25q-.45-.4-.9-.5l-1.8-.05-1.45-.05-1.25.35-9.95.35q-3.25-.15-5.55 0l-.95-.2-2.55.4-.1.05-.25-.15q-1.3-.6-1.6-.65l-2-.15-1.3.1q-.7.1-1.8.7l-1.2.65-.75.55-3.05-.25-.3.05-.35-.75q-.55-.8-1.85-1.4-2.1-.85-3.85-.3l-.9.35-1.1.75-.1.1H6l-.1-.1-.1-.05-.2-.1-.3-.05-.05-.05-.1-.05L5 25.8l-.2-.05-.15-.05H4.5l-.1-.05-.2-.05-.2-.05h-.35l-.25-.05H2.25l-.1-.05L2 25.4h-.1l-.3-.05v.05h-.4l-.1.05zM76.1 38.9v.55l.05.3v1.1l-.05.3v.35l-.05.15v.3H.7v-.3l-.05-.15v-.85l.1.1.1.05.1.1.2.1.2.05h.25l.15.05h.2l.45.05h2l1.65.05h4.15l1.05-.05h1.05l.35-.05h.3l2.1-.05H31.1l2.85.05H67.9l.45-.05h6.6l.3-.05.15-.1.1-.1.1-.05.05-.1.05-.05.05-.1v-.05l.05-.1.05-.1v-.2l.05-.05v-.1l.05-.05v-.25l.05-.1v-.15l.05-.05v-.35zM29.9 17.2l.1.35q.2.7.85 1.25l.55.4 3.1.25.9-.5q.65-.6.7-1.45.1-.85-.25-1.65l-.3-.45-.3-.3q-1.35-1.05-2.15-1.25l-.9-.1-1.4.2-.75.65q-.8 1.05-.3 2.25zm14.25-2.5-.55.35-.4.1q-.35.05-.85.45l-.25.3q-.55.7-.2 1.6.3.8 1.15 1.2l.6.25.85.1h1.05q.9-.2 1.5-1.15l.3-.95v-.45q-.25-1.45-1.4-1.9l-.85-.15-.1.05z"/><path fill="#fff" d="m75.95 28.25.05.1.05.05.05.1v.1l.05.05v.05l.05.05v9.35l-.05.1v.4l-.05.05v.25l-.05.05v.35l-.05.05v.15l-.05.1v.25l-.05.05v.1l-.05.05v.2l-.05.1-.05.1v.05l-.05.1-.05.05-.05.1-.1.05-.1.1-.15.1-.3.05h-6.6l-.45.05H33.95l-2.85-.05H15.05l-2.1.05h-.3l-.35.05h-1.05l-1.05.05H6.05l-1.65-.05h-2l-.45-.05h-.2l-.15-.05h-.25l-.2-.05-.2-.1-.1-.1-.1-.05-.1-.1-.1-.05-.05-.1-.05-.05-.05-.1-.05-.1v-.05l-.05-.1v-.05l-.05-.1v-.2l-.05-.1V35.5l-.05-.05v-.5L.1 34.9v-4.3l-.05-.1v-3.2L0 27.2v-.5l.05-.1v-.15l.05-.1.05-.05v-.1l.05-.05.05-.1.05-.1.1-.05.05-.1.1-.05.1-.1.1-.05.15-.1.15-.05h.05l.1-.05h.4v-.05l.3.05H2l.15.05.1.05H3.4l.25.05H4l.2.05.2.05.1.05h.15l.15.05.2.05.15.05.1.05.05.05.3.05.2.1.1.05.1.1h.1l.1-.1 1.1-.75.9-.35q1.75-.55 3.85.3 1.3.6 1.85 1.4l.35.75.3-.05 3.05.25.75-.55 1.2-.65q1.1-.6 1.8-.7l1.3-.1 2 .15q.3.05 1.6.65l.25.15.1-.05 2.55-.4.95.2q2.3-.15 5.55 0l9.95-.35 1.25-.35 1.45.05 1.8.05q.45.1.9.5l.5.25h.5q1.3-.25 2.45.3l.95.6.4-.3q2.15-1.65 3.65-2.05l2.7-.15q2 .25 2.95 1.5l.45.5.55.1 1.15.25.65.4.25-.2q1.7-1.15 3.75-1.15l1.2.05.75.2 1.1.5.95 1.1zM44.15 14.7l.85-.2.1-.05.85.15q1.15.45 1.4 1.9v.45l-.3.95q-.6.95-1.5 1.15H44.5l-.85-.1-.6-.25q-.85-.4-1.15-1.2-.35-.9.2-1.6l.25-.3q.5-.4.85-.45l.4-.1zM29.9 17.2l-.15-.35q-.5-1.2.3-2.25l.75-.65 1.4-.2.9.1q.8.2 2.15 1.25l.3.3.3.45q.35.8.25 1.65-.05.85-.7 1.45l-.9.5-3.1-.25-.55-.4q-.65-.55-.85-1.25z"/><path d="m21.25 31.6 1.2-.7q1.4-.65 4.4-1.55l.6-.15.4-.8q.8-1.05 1.9-1.65l.95-.85.1-.7.3-.95q.2-.75.5-1.05l-1.3-.95q-1.4-1.25-2.1-2.9-.75-1.8-.55-3.55l.6-2.5 1-1.95.45-.6-.55-.85Q29 9.55 29 8.65q0-1.1.15-1.65L30 5.15l.35-1 .45-1 1.15-.6q.65-.1 1.25.35l.7.9.9 1.75.7.9 6.15-.2.35-.3 2.15-2.4q.7-1.05 1.2-1.3.45-.15.9 0 .5.15.75.55l.3 1.15.45 1.6.35 1.55.1 1.15.1.8-.05.65.1.65.1.9v.25l.3 2.85q.1 3.15-1.15 5.45-1.1 2-3.05 3.25l.1 1.35.1.75.6.35q1.65.65 2.25 2.35l.25 1.15.15 1.7q-.1 1.2-1.35 2.6l-.9.9q.4.6.3 1.35t-.7 1.25q-.7.55-2.5.5l-.75-.05-.15.2q-.55 1.05-1.15 1.35l-1.6.15-1-.15q-.95.8-2.55.45-1.3-.4-1.75-1.1h-.15l-1.15.3-1.4.2q-1.15 0-1.65-.35l-.3-.2-.45-.55-.4-.8v-.4q0-.4.25-.75l.2-.3-.85-1.1-.25-.4-.55-1.15q-2.05.65-3.15 1.25v.05q-1.15.55-1.9 1.35l.75-.15 1.55-.1q.85.05 1.55.45l.15.1q.6.4.8 1.1v.05l.05.95-.3.7-.4.45q-.8.85-2.1.95l-2.45-.25q-1.15-.1-2.45-.75l-.45-.25-.5-.5q-.35-.45-.35-1.4 0-1.3.15-1.75.2-.5.7-1.15l.5-.55zm-5.65 3.2v.5l-.25 1.2-.05.15q-.6 1.25-1.95 1.25l-1.75-.1H7.55l-1.75-.1-.6-.5q-.4-.4-.4-.9v-.05q-.05-.7.35-1.35l.9-1.1q1.35-1.15 2.45-1.6l3.9-.4 1.1.35.4.25.55.45.15.15-.35.15q-.3.2-.35.55v.05q-.25.65.4 1.1l1.25-.05zm31.25-17.95.15-.8h-.05l-.2.05-.35.05h-.15l-.7-.05-.7-.05h-.05l-.85.45-1.2.55.5.75q.55.5 1.35.55L46 18q.6-.4.85-1.15M53.9 34.3q.5.15.95-.25.5-.4.25-1.1l-.4-.45q.7-.85 2.05-1.45l1.2-.45q2.05-.6 4.7 0 1.7.35 2.8 1 1.35.7 1.5 1.7v.1l-.35 1.05-.95.7-1.35.25q-.9.1-2.25.55l-2.3.65-1.9.3-2.15-.25-1.2-.8-.4-.65zm2.85 0-.1.3.05.2v.05l.2.15.25.05q.15-.05.25-.15l.1-.1v-.1l.05-.15-.1-.2q-.1-.25-.35-.25v.05l-.25.05zm-.3.35-.05-.3-.3-.2v.05l-.2.05-.2.1-.05.2.05.25.35.2.35-.15zm4.2-.9.2-.25.1-.6-.45-.8-1.1-.15q-.7.35-.7 1.05l.2.65.6.45.25.05q.6 0 .9-.4M34.4 17.15l.2-.45-.35-.1-1.95-.9h-.65l-.35-.05-.3-.05-.35-.05-.15-.05h-.05l-.1.65q.05.75.45 1.3.45.55 1.2.75l1.4-.1zM14.05 15.5q1.15-.8 2.5-.65 1.7 0 3.7 1.45l1.25.9 1.25 1.95.4.8v.9l-.35.75-.7-.15-.65-.5h-.5l-.8-.2-1.05.15-2.15.45-.95-.05-1.35-.25q-.6-.2-1.2-1.1l-.5-.8-.2-1.4q.05-.95.35-1.35v.05l.1.35q.2.65.8.65.55.05.95-.5.25-.45 0-.95t-.8-.5zm1.55 3.15-.2.2v.1l.05.25.1.05.2.05h.1l.05-.05.15-.3-.05-.05-.15-.2-.15-.05zm-1.35.05.3.2h.15l.2-.2.05-.15-.05-.2-.2-.15-.15-.05h-.1l-.1.1-.1.05-.05.2zm2.9-1.75q-.25.65.3 1.1.65.35 1.15 0 .55-.35.35-1.05-.15-.7-.9-.7l-.1.05q-.4 0-.65.3zM11.6 35.4v.05l-.2.05-.15.1-.05.15.05.25.3.25.25-.1.1-.1.1-.2v-.1l-.05-.05v-.05l-.05-.1zm1.65.7h.15l.3-.3-.05-.4-.15-.2-.25-.1v.05l-.4.15-.1.3v.1l.1.2.1.1zm-4.5-.7q.45.55 1.15.4.7-.05.95-.8.25-.45 0-.95-.15-.5-.65-.75-.8-.35-1.4.25-.65.65-.3 1.4z"/><path fill="#fff" d="m15.95 34.3-.35.5h-.05l-1.25.05q-.65-.45-.4-1.1v-.05q.05-.35.35-.55l.35-.15.25-.05.05-.05q.75 0 1 .75zm40.5.35-.05.2-.35.15-.35-.2-.05-.25.05-.2.2-.1.2-.05v-.05l.3.2zm.3-.35.1-.1.25-.05v-.05q.25 0 .35.25l.1.2-.05.15v.1l-.1.1q-.1.1-.25.15L56.9 35l-.2-.15v-.05l-.05-.2zm-2.05-1.8.4.45q.25.7-.25 1.1-.45.4-.95.25l-.15-.05q-.6-.25-.6-.95l.1-.35q.15-.6.9-.6l.05-.05zm5.95 1.25q-.3.4-.9.4l-.25-.05-.6-.45-.2-.65q0-.7.7-1.05l1.1.15.45.8-.1.6zM13.1 16.4q0-.3.3-.65.3-.3.65-.25h.1q.55 0 .8.5t0 .95q-.4.55-.95.5-.6 0-.8-.65l-.1-.35zm4.05.55.15-.3q.25-.3.65-.3l.1-.05q.75 0 .9.7.2.7-.35 1.05-.5.35-1.15 0-.55-.45-.3-1.1m-2.9 1.75-.05-.2.05-.2.1-.05.1-.1h.1l.15.05.2.15.05.2-.05.15-.2.2h-.15zm1.35-.05h.1l.15.05.15.2.05.05-.15.3-.05.05h-.1l-.2-.05-.1-.05-.05-.25v-.1zM13.25 36.1l-.3-.1-.1-.1-.1-.2v-.1l.1-.3.4-.15v-.05l.25.1.15.2.05.4-.3.3zm-1.65-.7.3.15.05.1v.05l.05.05v.1l-.1.2-.1.1-.25.1-.3-.25-.05-.25.05-.15.15-.1.2-.05zm-2.85 0-.25-.45q-.35-.75.3-1.4.6-.6 1.4-.25.5.25.65.75.25.5 0 .95-.25.75-.95.8-.7.15-1.15-.4"/><path fill="#999" d="m46.65 33.3.2.1q1.05.6 1.25 1.6.25 1.15-.65 2.2-.7.8-2 1.3-2.5 1.05-8.05 1.35l-3.1.05-4.95-.7-1.15-.15q-1.8 1.15-3.65 1.6l-1.2.15-1.85-.3-1.55-.5q-.85-.45-1.05-1.15l-.05-.3.45.25q1.3.65 2.45.75l2.45.25q1.3-.1 2.1-.95l.4-.45.3-.7-.05-.95v-.05q-.2-.7-.8-1.1l-.15-.1q-.7-.4-1.55-.45l-1.55.1-.75.15q.75-.8 1.9-1.35l.4-.05 2.8.6.75-.3.85 1.1-.2.3q-.25.35-.25.75v.4l.4.8.45.55.3.2q.5.35 1.65.35l1.4-.2 1.15-.3h.15q.45.7 1.75 1.1 1.6.35 2.55-.45l1 .15 1.6-.15q.6-.3 1.15-1.35l.15-.2.75.05q1.8.05 2.5-.5.6-.5.7-1.25t-.3-1.35zm-27.3-.1-.95.15-2 .65-.4.25-.05.05-.05-.65q-.25-.75-1-.75l-.05.05-.25.05-.15-.15-.55-.45.1-.25.35-.3q1.35-.75 3-.75l3.05.3.75.15.1.05zm-4 3.3-.05.85-.8.95-1.25.5-2.85.3-4.45-.1q-.8-.15-1.25-.75l-.35-.9q0-.6.4-1l.05-.05q0 .5.4.9l.6.5 1.75.1h4.05l1.75.1q1.35 0 1.95-1.25zm39.15-.65 1.2.8 2.15.25 1.9-.3 2.3-.65q1.35-.45 2.25-.55l1.35-.25.95-.7.35-1.05q.5.4.6 1.05.2.7-.2 1.45l-1.3 1-1.6.4-2.3.4-3 .35-2.7-.3-1.05-.3q-.95-.5-.95-1.5z"/></g></svg>