<svg xmlns="http://www.w3.org/2000/svg" xmlns:ffdec="https://www.free-decompiler.com/flash" ffdec:objectType="shape" width="71.4" height="41.3"><g fill-rule="evenodd"><path fill="#999" d="M70.05 3.8q-.75-.15-.85-1-.1-.8.65-1.15l.35-.05.1-.05.75.35.35.7-.25.8-.7.4zM59.7 6.45l.4-.15q.55-.15 1.05.25.35.25.5.75l-.15.9-.65.55-.9.05-.65-.6q-.25-.45-.2-.9.2-.6.6-.85m3.15 2.9q.3-1.1 1.35-1.7 1.05-.65 2.2-.4 1.1.2 1.9 1.15.8.9.85 2.05l-.25 1.45q-.5.95-1.65 1.45L65 13.5q-1.4-.3-1.85-1l-.4-1.4q-.1-1.05.1-1.75M56.6 36.6l-1.9 1.2-.2.35-1.75 1.75-1 .5-1.75.1-1.75-.5q-.95-.55-1.3-1.25-.8-1.35.2-2.85l.2-.2-.65-.8-.65-1.35q-.2-.75-.1-1.95.2-2.9.85-4.2.35-.7.85-1.2l-.25-.15q-.85-.6-1.2-1.5-.15-.45-.15-1.45l.2-1.55.85-1.95.25-1.55q.4-2.35 3.1-3.95l.2-.1v-.3l.6-1.35q1.15-1.85 2.5-2.25l.9-.15q.95 0 1.65.55 1.1.85 1.25 2.2l.05 1.25.95 1.2.25.45h.9q2.1.25 3.05 1.8l.45 1q.45 1 .5 1.8l.25.5q.35.85.25 1.75-.1.95-.7 1.5l-1.15.75q-.8 1.25-2 1.95l.35.3.65.95q.75 1.4.75 2.15l-.1.75q-.4 1.75-1.9 2.95-1 .75-2.05.75-.5 1.3-1.45 2.1M47.35 2.45l-.8.05q-.65-.25-.75-1 0-.7.65-1.05l.3-.05.15-.05q.4 0 .8.4.35.4.25.9-.1.65-.6.8m10.9 18.6.25.7h.1l.15.05h.15l.2-.1q.15-.1.45-.25l-.6-.5-.55-.25zm-.95 6.1.2.35.1-.25zm-2.75-2.4q.65.15 1.55 1.05v-.2l.05-.3q-.35-.25-.6-.35l-.7-.45zm13.9 3.2q.25.65 0 1.35-.3.7-.95 1l-1.35.05q-.75-.2-1.1-.85t-.15-1.4q.2-.7.8-1.1l1.6-.15q.85.25 1.15 1.1m-4.6 7.55.1-.75q.25-.75.9-1.1l1.45-.15q.7.15 1.1.9.6.9-.05 1.9-.6 1-1.7.9t-1.6-1.05zM24 15.45l-1.4 1.3-.7.8-1.3.8-2.65.8-2.75-.35q-1.55-.75-2.15-2.25-.4-.85-.45-1.95l-.35-.15q-1-.45-1.45-1.05-.65-.8-.5-1.7.15-.75 1.1-1.7 1.6-1.55 2.8-1.4 1.1.15 1.7 1.25l.4-.25 1.4-.7q1-.5 1.55-.6h.15l.8-1.75.1-.1-.2-1q-.05-.9.4-2.1l.5-.9.8-.7 1-1Q23.85-.1 25.7 0l1.5.3q1 .45 1.85 1.45 1.4 1.6 1.55 3.15.15 1-.3 2.2-.55 1.5-1.65 2.55v.9l-.2.7q-.6 1.65-2.75 2.3l-.7.2zM3.2 2.25l-.35-.15-.15-.25-.05-.2q-.1-.25.1-.45.2-.3.5-.2V.95l.45.2.15.2.05.1q.1.4-.25.65l-.2.15zM1.6 11.3l-.85-.05-.6-.55q-.2-.4-.1-.85.05-.45.4-.7.3-.3.8-.3.45 0 .75.3.45.45.3 1.25-.1.65-.7.9m7.55 4.85q-.45.7-1.3.7-.85.1-1.35-.65-.35-.45-.3-1.1t.5-1.05 1.1-.4q.65-.05 1.1.35t.5 1.05zM6.5 21.2q0-.15.15-.4.25-.3.65-.4l.75.1.5.5.1.75-.45.6-1.25.05-.45-.55zm12 3.5q1.55-.45 3.25.5 1.45.85 2.15 2.4l.25.55 1.3-.15q.85 0 1.5.35l1.1.9.6.85.85 2q.2 1.3-.45 2.6l-.6.85-1 .8-1.4 1.05-2.4-.1-.85-.3.1.2q.2.8-.3 1.75l-.9.95-1.3.25-1.4-.25q-.95-.55-.8-1.55.1-1.05 1.1-1.4l.8-.2.55-.4 1.1-.15-.9-1.1-.25-.2-1.1.15-2.1-.3-.95-.4-1.35.35-1.95-.4-1.25-.9-1.55-1.4-.7-.9v-.05H9.6l-1-.05-.85-.4q-.95-.45-1.25-1.15l-.25-.75q-.35-1.75.8-3.1l1.2-.95.75-.4.8-.1 1 .1.85.25.7.85.55-.3 1.25-.45 1.5-.05 1.15.25.75.35zm-3 13.4q.55.4.7 1 .1.7-.3 1.2-.45.5-1.45.7l-1.55.25-1.7-.05-.9-.3q-1.5-.6-1.95-1.4-.55-1 .1-2.65Q9 35.8 9.85 35q.65-.6 1.3-.65h.2l1 .15q1.45.2 2 .65 1.1.85.9 2.5l.05.3zm-9.65-6.4q.25.85-.3 1.45-.35.4-.9.45l-.95-.25q-.75-.5-.6-1.35.1-.85.9-1.2.9-.25 1.45.3z"/><path d="M64.35 12.1q-1 0-1.7-.6-.6-.5-.75-1.4-.1-.85.3-1.55.9-1.55 2.75-1.4.95.1 1.5.65T67 9.25l-.35 1.55-.95 1zm-2.75 9.3.05.3q.9.5 1.95 2.45l.45 1.05.1.95-.1 1.7q-.25 1.15-1.4 2.2L60.4 31.4l-1.3.35-1.65-.15-1.2-.45q-.85-.45-1.65-1.75l-.75-1.35q-.55-1.55.2-3.05l.45-.7q-1.15-1.35-1-3.15l.05-.9.15-.6.45-.7.6-.7.9-.55.85-.3 2.15.45 1.3.45q.55.35.95 1l.6 1.05zm4.8-2.2q.45-.9 1.4-.8l.65.15q.9.5.8 1.5T68.2 21.3q-.9.35-1.6-.45-.6-.75-.2-1.65M53.95 3l.55-.25 1.75-.7q1.2-.2 1.75.45.6.65.4 1.8l-.2.8-3.6 9.05.25.6.35.9h-.3q-.85.2-1.85.9-1.65 1.15-2.4 2.65-1 1.75-.4 3.5-.8.8-1.1 2.8-.2 1.7.1 2.75.3 1.15 1.7 3.05l1.25 1.3.55.35-2.45 2.6q-5.25 4.3-15.85 3.9l-5.4-.6q-2.2-.45-5.2-1.7l-.75-.3.2-.1q1.55-.8 1.75-1.95l.1-.95.2-1.4q.05-.7-.4-1.7-.45-1.2-1.15-1.75-1.05-.8-3.35-.7l-1.4.2-.75-.75q-.8-.5-1.5-.45l-.9.3q-.25-1.5-.25-3.2 0-4.3 1.4-8.25l1.7.3q1.9 0 3.2-.65 1.55-.8 2.15-2.35.2-.75.45-1l.75-.5q1.25-.65 1.95-1.95.7-1.35.5-2.75L27 5.05l-.25-.5q3.1-1.6 6.9-2.1l2.8-.2q3.15-.05 5.8.75l1.8.65q1.6.7 3.25 1.95l1.05-.5 2.5-1 1.45-.5zM51.4 27.6l1.35.1q.8.6.45 1.5-.35.95-1.3.85t-1.2-1q-.15-.95.7-1.45m11.5 7.75q-.1 1-.9 1.5l-1.35.3q-.95-.1-1.55-.7-.65-.75-.4-1.65.25-.65.75-1l.8-.5q1.05-.35 1.9.35.85.65.75 1.7m-26.95-13.9.15 2.15-1.15.65-3.15 2.25-.65.65-.25.9q.05.5.4.8.55.5 1.4.2l.6-.25 2.75-1.5q.65-.35 1.4-.55l.8.25 1.4.25 1.2.55 1.95.8.55.15.85-.4.35-.6-.2-.95-.4-.55-.55-.3q-.85-.3-1.55-.85l-.8-.55-.9-.3-.95-.3-.05-.35-.55-1.75-.4-1.7q-.45-1-1.4-.85-.65.25-.8.9-.15.4-.05 1.25m-21.35-9.4q-.4-.3-1.65-.85l-2.3-1.3-1.25-.8-.9-.8-1.65-1.1L6 6.25q-.8-.5-1.05-1.05-.25-.6-.1-1.25.1-.7.6-1.1L7 2.25l4.4-.5 8.25-.5 1.65.05q.95.15 1.4.85.5.8.1 2.2l-.4 1.15.15.75Q22.7 7.3 22.4 8l-.85.95-.1.1-.2 1.5q-.5 1.75-2.05 2.35l-1.55.35-1.65-.2zM25.1 6q.75.15 1.1.65.45.6.35 1.2-.1.75-.8 1.25l-1.4.15q-.6-.2-.9-.75-.3-.6-.2-1.2.15-.6.7-1zm.05 16.2q1.15.75 2.85.6l1.05-.15 1.75-.95 1-.8q.95-.85 1.2-2.15.3-1.3-.15-2.5l-.6-.95-.9-.6q-2.3-.95-4.6-.4-1.35.3-2.35 1.15-1.1.95-1.4 2.2l-.1 1.1.05.85q.2.75 1.3 1.85zm-13.5 4.15q.35.25.5.75L12 28.25q-.55.95-1.55.8-1.05-.15-1.3-1.25-.2-1.1.75-1.6 1-.55 1.75.15m5.8 3.75q1.3-.1 2.3.55l1.4 1.35q.8 1 1.05 1.75l.15 1.4v.7l-.3.85q-.9 1.65-2.3 2.5-1.55.95-3.3.7l-1-.25q-1.45-.4-2.5-1.3t-1.35-2.1q-.85-.1-1.5-.65-1.15-1-.9-2.55.25-1.45 1.6-2.2.75-.4 1.65-.3.85.05 1.45.6l.1.1q1.6-1.15 3.45-1.15"/><path fill="#fff" d="M35.95 21.45q-.1-.85.05-1.25.15-.65.8-.9.95-.15 1.4.85l.4 1.7.55 1.75.05.35.95.3.9.3.8.55q.7.55 1.55.85l.55.3.4.55.2.95-.35.6-.85.4-.55-.15-1.95-.8-1.2-.55-1.4-.25-.8-.25q-.75.2-1.4.55l-2.75 1.5-.6.25q-.85.3-1.4-.2-.35-.3-.4-.8l.25-.9.65-.65 3.15-2.25 1.15-.65zm-10.8.75-.9-.75q-1.1-1.1-1.3-1.85l-.05-.85.1-1.1q.3-1.25 1.4-2.2 1-.85 2.35-1.15 2.3-.55 4.6.4l.9.6.6.95q.45 1.2.15 2.5-.25 1.3-1.2 2.15l-1 .8-1.75.95-1.05.15q-1.7.15-2.85-.6"/></g></svg>