<svg xmlns="http://www.w3.org/2000/svg" xmlns:ffdec="https://www.free-decompiler.com/flash" ffdec:objectType="shape" width="75.2" height="43.35"><g fill-rule="evenodd"><path d="M10.55.5h16.1l-.4.35-.2.85q-.1.6.45 1.15.55.45 1.15.4l.65-.2.3-.2.3-.1 1.65-.2h1.35l1.35-.05.35-.15q.25-.2-.05-.5L33 1.5l-1-.35-.85-.3-.5-.15-1.6-.2h16.8l-1.6.2-.5.15-.85.3-1 .35-.55.35q-.3.3-.05.5.15.15.35.15l1.35.05h1.35l1.65.2.3.1.3.2.65.2q.6.05 1.15-.4.55-.55.45-1.15l-.2-.85-.4-.35h16.1l-.3.35-.45.8-.35.5-.6 1.3-.1.3-.15 1.1.05.25.2.25H63l.55-.4 1.15-1q.2-.2.35-.2h.4q.8.1 1.4-.45.55-.5.65-1.3l-.05-.45-.1-.4-.3-.55-.1-.1h8.25v40.9H0V.5h7.95l-.1.1-.3.55-.1.4L7.4 2q.1.8.65 1.3.6.55 1.4.45h.4l.35.2 1.15 1 .55.4h.35l.2-.25.05-.25-.15-1.1-.1-.3-.6-1.3-.35-.5-.45-.8zm5.75 4.85.4-.05.2-.1 1.2-.9.85-.35.85.05.55.05 1.1-.2q.6-.25.85-.65l.25-1.05q-.05-.6-.4-.95l-.5-.4L20.4.7q-.55.05-1.15.5l-.5.35-1.2 1.25-.15.25-.75.9q-.3.3-.35.55l-.2.5zm20.8 9.85.2 2.15v1.9l.05-.05.1-.65.35-3.35.3-4.05.6-4.85 1.2-1q.5-.7.5-1.5l-.25-1.2-.2-.75-.15-.3L38.7.7 37.65.6h-.35l-1.1.1q-.7.25-1.1.85-.25.4-.35 1.05l-.25 1.2q0 .8.5 1.5t1.2 1l.6 4.85zm21.5-9.85.2-.35-.2-.5-.35-.55-.75-.9-.15-.25-1.2-1.25-.5-.35q-.6-.45-1.15-.5l-1.25.1-.5.4q-.35.35-.4.95t.25 1.05l.85.65 1.1.2.55-.05.85-.05.85.35 1.2.9.2.1zm13.3 8.75.55-.6.05-.2-.15-.45-.6-.3-.1-.05q-.45 0-.65.4-.25.4 0 .8l.4.35zm-.1-10.8q-.45-.95-1.45-.85t-1.25 1q-.35 1.05.55 1.65L71.4 5l.5-.8zm-5.95 4.4 1.2.3q.8.25 1.65.95l.55.6q.8.8 1.75.4 1-.35 1.1-1.45 0-1.1-.95-1.55l-.6-.2-.65-.35-1.55-.3-1.1-.1-1.3.2q-1.15.2-1.85.55l-.65.3q-.2.1 0 .3l.3.1zM59.8 2.4q0 .6.55.85l.9-.05.45-.8q.1-.55-.35-.8l-.6-.2q-.5 0-.7.3-.25.25-.25.7m-.6 3.65q-.35.3-1.2 1.75l-1.95 2.8q-2.65 3.6-6.5 10-2.65 4.35-3.25 6.85-.15.4.1.45l.35-.15 1.5-2.25q1.1-2.05 3.7-5.35 4.5-5.7 7-8.3l1.6-1.4.85-.5.8-.6.1-.1.35.3.4.45.85 1.35.05.65-.05 1.95q.05.55.5 1 .4.45.95.5.6.05 1.05-.3l.65-.9q.15-.5-.1-1.15l-.5-1-.25-.4-1.6-1.85-1.45-1.05-.45-.25.15-.7q0-.95-.55-1.55-.6-.65-1.55-.7-.9-.1-1.55.45M70.7 17.8q-.4.05-.65.35-.3.35-.3.7l.05.2q.1.55.7.75.55.1 1-.35l.15-.85q-.2-.85-.9-.75zm-6.55.6q-.2 1.05.75 1.55l1.7-.05q.9-.6.65-1.6-.15-1-1.2-1.25-.7-.15-1.25.25t-.65 1.1M47.75 32q-.6.2-.65.65l2.5-.7q5.2-1.5 7.85-1.85l3.65-.7.5-.1.4.25.6.45-.3.35-2.2 4.25-.25.6q-.15 1.05.65 1.6l1.65.15q.9-.4.9-1.4l-.1-1.15.15-.75-.05-.55.45-2.85h.2q1 .05 1.8-.5l.9 1.05 2.05 2.8.2.45 1.05 1.6q.75.85 1.35.9.5.1.9-.25.4-.3.4-.85l-.35-1L70.85 33l-.75-.55-1.05-.8-1-.85-.65-.4-1-.95-.3-.3.45-.9v-.1l.4-.1.7.05.65-.05 1.4.15 3.3.7q.85.1 1.35-.6.45-.7.15-1.5-.35-.75-1.2-.85l-1.85.05-.8.15-1.45.55-2.5.65-.2-.95-.2-.45.2-.25.95-.75.95-.6q.55-.35 1.75-.85l.4-.2.3-.25q.35-.45.35-1.05.05-.65-.3-1.05l-.95-.6-1.1.15-1.1.9-.35.3-.25.35-.85.85-.55 1-.4 1.1-1.3-.4-.25-.7-.25-.5-1.2-1.75-1-1.1-.35-.3-1.2-.05q-.7.35-.6 1 .05.6.85 1.3l2.15 1.95.35.45-.65.5q-.5.5-.75 1.15l-.65-.5-.35-.2-.45-.35-.85-.35-.8-.5-.45-.4-.45-.1-.75.05q-.15.05-.55.35l-.1.25q-.4.65 0 1.3.3.65 1.1.65l1.05-.15.95.15 1.35.4.15.1q-2.2.6-5.4 1.85l-3.15 1.2q-2.3.8-4.05 1.7m8.7-24.05.6-.1.5-.3q.1-.35-.15-.5l-.45-.35-1.35-.35-1.2.2q-1.6.5-2 1.35-.2.45-.05.95l.6.8 1.85-.1.75-.9zm-5 4.75.15.1h.15l.25-.15v-.4l-.4-.1-.1.05-.05.1-.05.05v.2l.05.05zm-8.1-6.4 1 .85 1.25.45q.75-.1 1.1-.65l.25-.6.1-.35-.15-.55-.3-.5-1.55-1-.4-.15-1.2-.1-.55.15-1.45.15q-.35.1-.5.3-.2.45.15.7l.85.2.5.2.5.35zm7.1-.55.4-.25.1-.25v-.1L50.9 5v-.15l-.25-.3-.35-.1V4.4q-.45.1-.55.5l-.05.4.1.2.15.15.2.15zm-8.7.6q-.35-.6-1.05-.4t-.7.85q-.1.65.6.95.65.25 1.1-.3l.15-.4.05-.2-.05-.25zm11.65 19.7q-.2-.4-.6-.3v-.05q-.4 0-.6.45-.15.4.1.75l.3.2.65-.15.25-.35zm3.35 6.6-.2-.05h-.3l-.35.4-.05.25q0 .45.4.55l.7-.15.15-.25v-.2l-.15-.35-.1-.15zm-5.95 4.3q-.35-.55-.95-.25-.6.25-.5.9l.05.2.45.4.25.1.3-.05q.5-.15.6-.8l-.05-.2zm16.5 0q.55-.1.7-.5l.05-.2v-.35l-.05-.2-.35-.4-.55-.15q-.65.15-.75.8v.3q.2.8.95.7m-43.2 0-.15.3-.05.2q.1.65.6.8l.3.05.25-.1.45-.4.05-.2q.1-.65-.5-.9-.6-.3-.95.25m-2.6-10.9-.1.55.25.35.65.15.3-.2q.25-.35.1-.75l-.6-.45v.05q-.4-.1-.6.3M7.6 36.95q.75.1.95-.7v-.3q-.1-.65-.75-.8l-.55.15-.35.4-.05.2v.35l.05.2zm10.55-4.3-.1.05-.1.15-.15.35v.2l.15.25.7.15q.4-.1.4-.55L19 33l-.35-.4h-.3zm9-.65q-1.75-.9-4.05-1.7l-3.15-1.2q-3.2-1.25-5.4-1.85l.15-.1 1.35-.4.95-.15 1.05.15q.8 0 1.1-.65.4-.65 0-1.3l-.1-.25-.55-.35-.75-.05-.45.1-.45.4-.8.5-.85.35-.45.35-.35.2-.65.5L13 25.4l-.65-.5.35-.45 2.15-1.95q.8-.7.85-1.3.1-.65-.6-1l-1.2.05-.35.3-1 1.1-1.2 1.75-.25.5-.25.7q-.7.05-1.3.4l-.4-1.1-.55-1-.85-.85-.25-.35-.35-.3-1.1-.9-1.1-.15-.95.6q-.35.4-.3 1.05 0 .6.35 1.05l.3.25.4.2 1.75.85.95.6.95.75.2.25-.2.45-.2.95-2.5-.65-1.45-.55-.8-.15-1.85-.05q-.85.1-1.2.85-.3.8.15 1.5.5.7 1.35.6l3.3-.7 1.4-.15.65.05.7-.05.4.1v.1l.45.9-.3.3-1 .95-.65.4-1 .85-1.05.8-.75.55-1.15 1.45q-.35.55-.35 1 0 .55.4.85l.9.25q.6-.05 1.35-.9l1.05-1.6.2-.45 2.05-2.8.9-1.05q.8.55 1.8.5h.2l.45 2.85-.05.55.15.75-.1 1.15q0 1 .9 1.4l1.65-.15q.8-.55.65-1.6l-.25-.6-2.2-4.25-.3-.35.6-.45.4-.25.5.1 3.65.7q2.65.35 7.85 1.85l2.5.7q-.05-.45-.65-.65M4.2 17.8l-.05.05q-.7-.1-.9.75-.1.45.15.85.45.45 1 .35.6-.2.7-.75l.05-.2-.3-.7q-.25-.3-.65-.35m6.55.6q-.1-.7-.65-1.1t-1.25-.25q-1.05.25-1.2 1.25-.25 1 .65 1.6l1.7.05q.95-.5.75-1.55M3 14.1l.5-.05.4-.35q.25-.4 0-.8-.2-.4-.65-.4l-.1.05q-.25-.05-.6.3l-.15.45.05.2q.05.4.55.6m.1-10.8q-.2.4-.1.9l.5.8 1.75.1q.9-.6.55-1.65-.25-.9-1.25-1T3.1 3.3m5.95 4.4 2.1-.25.3-.1q.2-.2 0-.3l-.65-.3q-.7-.35-1.85-.55L7.65 6l-1.1.1L5 6.4q-.3.2-.65.35l-.6.2Q2.8 7.4 2.8 8.5q.1 1.1 1.1 1.45.95.4 1.75-.4l.55-.6q.85-.7 1.65-.95zm6.05-5.3-.25-.7q-.2-.3-.7-.3-.35 0-.6.2-.45.25-.35.8 0 .55.45.8l.9.05q.55-.25.55-.85m.6 3.65q-.65-.55-1.55-.45-.95.05-1.55.7-.55.6-.55 1.55l.15.7-.45.25-1.45 1.05-1.6 1.85-.25.4-.5 1q-.25.65-.1 1.15.1.55.65.9.45.35 1.05.3.55-.05.95-.5.45-.45.5-1L10.95 12l.05-.65q.2-.7.85-1.35l.4-.45.35-.3.1.1.8.6.85.5 1.6 1.4q2.5 2.6 7 8.3 2.6 3.3 3.7 5.35l1.5 2.25.35.15q.25-.05.1-.45-.6-2.5-3.25-6.85-3.85-6.4-6.5-10L16.9 7.8zm7.75 6.65v-.1l.05-.05v-.2l-.05-.05-.05-.1-.1-.05-.4.1v.4l.25.15h.15zm-5-4.75.9.7.75.9 1.85.1.6-.8q.15-.5-.05-.95-.4-.85-2-1.35l-1.2-.2q-.55 0-1.35.35-.4.25-.45.35-.25.15-.15.5l.5.3zm6-2.2.3.05.2-.15.15-.15.1-.2-.05-.4q-.1-.4-.55-.5v.05l-.35.1-.25.3V5l-.05.15v.1l.1.25q.05.15.4.25m8.7.6-.1.25-.05.25.05.2.15.4q.45.55 1.1.3.7-.3.6-.95 0-.65-.7-.85t-1.05.4m-1.6-.05.4-.55.5-.35.5-.2.85-.2q.35-.25.15-.7l-.5-.3L32 3.85l-.55-.15-1.2.1-.4.15q-1.05.45-1.55 1l-.3.5-.15.55.1.35.25.6q.35.55 1.1.65l1.25-.45z"/><path fill="#fff" d="M7.95.5q.65-.6 1.5-.5.65.05 1.1.5l.3.35.45.8.35.5.6 1.3.1.3.15 1.1-.05.25-.2.25h-.35l-.55-.4-1.15-1-.35-.2h-.4q-.8.1-1.4-.45Q7.5 2.8 7.4 2l.05-.45.1-.4.3-.55zm18.7 0L27 .3l.5-.1.65.1.9.2 1.6.2.5.15.85.3 1 .35.55.35q.3.3.05.5l-.35.15-1.35.05h-1.35l-1.65.2-.3.1-.3.2-.65.2q-.6.05-1.15-.4-.55-.55-.45-1.15l.2-.85zm19.2 0 .9-.2.65-.1.5.1.35.2.4.35.2.85q.1.6-.45 1.15-.55.45-1.15.4l-.65-.2-.3-.2-.3-.1-1.65-.2H43l-1.35-.05q-.2 0-.35-.15-.25-.2.05-.5l.55-.35 1-.35.85-.3.5-.15zm18.5 0q.45-.45 1.1-.5.85-.1 1.5.5l.1.1.3.55.1.4.05.45q-.1.8-.65 1.3-.6.55-1.4.45h-.4q-.15 0-.35.2l-1.15 1-.55.4h-.35l-.2-.25-.05-.25.15-1.1.1-.3.6-1.3.35-.5.45-.8zM37.1 15.2l-.3-4.05-.6-4.85q-.7-.3-1.2-1t-.5-1.5l.25-1.2q.1-.65.35-1.05.4-.6 1.1-.85l1.1-.1h.35l1.05.1 1.1.85.15.3.2.75.25 1.2q0 .8-.5 1.5l-1.2 1-.6 4.85-.3 4.05-.35 3.35-.1.65-.05.05v-1.9zM16.3 5.35 16.1 5l.2-.5q.05-.25.35-.55l.75-.9.15-.25 1.2-1.25.5-.35q.6-.45 1.15-.5l1.25.1.5.4q.35.35.4.95L22.3 3.2q-.25.4-.85.65l-1.1.2L19.8 4l-.85-.05-.85.35-1.2.9-.2.1zm51 31.6q-.75.1-.95-.7v-.3q.1-.65.75-.8l.55.15.35.4.05.2v.35l-.05.2q-.15.4-.7.5m-16.5 0 .15.3.05.2q-.1.65-.6.8l-.3.05-.25-.1-.45-.4-.05-.2q-.1-.65.5-.9.6-.3.95.25m5.95-4.3.1.05.1.15.15.35v.2l-.15.25-.7.15q-.4-.1-.4-.55l.05-.25.35-.4h.3zm-3.35-6.6.1.55-.25.35-.65.15-.3-.2q-.25-.35-.1-.75.2-.45.6-.45v.05q.4-.1.6.3M41.75 6.35l.1.25.05.25-.05.2-.15.4q-.45.55-1.1.3-.7-.3-.6-.95 0-.65.7-.85t1.05.4m8.7-.6-.3.05-.2-.15-.15-.15-.1-.2.05-.4q.1-.4.55-.5v.05l.35.1.25.3V5l.05.15v.1l-.1.25zm-7.1.55-.4-.55-.5-.35-.5-.2-.85-.2q-.35-.25-.15-.7.15-.2.5-.3l1.45-.15.55-.15 1.2.1.4.15 1.55 1 .3.5.15.55-.1.35-.25.6q-.35.55-1.1.65l-1.25-.45zm8.1 6.4v-.1l-.05-.05v-.2l.05-.05.05-.1.1-.05.4.1v.4l-.25.15h-.15zm5-4.75-.9.7-.75.9-1.85.1-.6-.8q-.15-.5.05-.95.4-.85 2-1.35l1.2-.2 1.35.35.45.35q.25.15.15.5l-.5.3zM47.75 32q1.75-.9 4.05-1.7l3.15-1.2q3.2-1.25 5.4-1.85l-.15-.1-1.35-.4-.95-.15-1.05.15q-.8 0-1.1-.65-.4-.65 0-1.3l.1-.25q.4-.3.55-.35l.75-.05.45.1.45.4.8.5.85.35.45.35.35.2.65.5q.25-.65.75-1.15l.65-.5-.35-.45-2.15-1.95q-.8-.7-.85-1.3-.1-.65.6-1l1.2.05.35.3 1 1.1 1.2 1.75.25.5.25.7 1.3.4.4-1.1.55-1 .85-.85.25-.35.35-.3 1.1-.9 1.1-.15.95.6q.35.4.3 1.05 0 .6-.35 1.05l-.3.25-.4.2q-1.2.5-1.75.85l-.95.6-.95.75-.2.25.2.45.2.95 2.5-.65 1.45-.55.8-.15 1.85-.05q.85.1 1.2.85.3.8-.15 1.5-.5.7-1.35.6l-3.3-.7-1.4-.15-.65.05-.7-.05-.4.1v.1l-.45.9.3.3 1 .95.65.4 1 .85 1.05.8.75.55L72 34.45l.35 1q0 .55-.4.85-.4.35-.9.25-.6-.05-1.35-.9l-1.05-1.6-.2-.45-2.05-2.8-.9-1.05q-.8.55-1.8.5h-.2l-.45 2.85.05.55-.15.75.1 1.15q0 1-.9 1.4l-1.65-.15q-.8-.55-.65-1.6l.25-.6 2.2-4.25.3-.35-.6-.45-.4-.25-.5.1-3.65.7q-2.65.35-7.85 1.85l-2.5.7q.05-.45.65-.65m16.4-13.6q.1-.7.65-1.1t1.25-.25q1.05.25 1.2 1.25.25 1-.65 1.6l-1.7.05q-.95-.5-.75-1.55m6.55-.6.05.05q.7-.1.9.75l-.15.85q-.45.45-1 .35-.6-.2-.7-.75l-.05-.2q0-.35.3-.7.25-.3.65-.35M59.2 6.05q.65-.55 1.55-.45.95.05 1.55.7.55.6.55 1.55l-.15.7.45.25 1.45 1.05 1.6 1.85.25.4.5 1q.25.65.1 1.15l-.65.9q-.45.35-1.05.3-.55-.05-.95-.5-.45-.45-.5-1l.05-1.95-.05-.65-.85-1.35-.4-.45-.35-.3-.1.1-.8.6-.85.5-1.6 1.4q-2.5 2.6-7 8.3-2.6 3.3-3.7 5.35l-1.5 2.25-.35.15q-.25-.05-.1-.45.6-2.5 3.25-6.85 3.85-6.4 6.5-10L58 7.8q.85-1.45 1.2-1.75m.6-3.65q0-.45.25-.7.2-.3.7-.3l.6.2q.45.25.35.8l-.45.8-.9.05Q59.8 3 59.8 2.4m6.05 5.3-2.1-.25-.3-.1q-.2-.2 0-.3l.65-.3q.7-.35 1.85-.55l1.3-.2 1.1.1 1.55.3.65.35.6.2q.95.45.95 1.55Q72 9.6 71 9.95q-.95.4-1.75-.4l-.55-.6q-.85-.7-1.65-.95zm5.95-4.4.1.9-.5.8-1.75.1q-.9-.6-.55-1.65.25-.9 1.25-1t1.45.85m.1 10.8-.5-.05-.4-.35q-.25-.4 0-.8.2-.4.65-.4l.1.05.6.3.15.45-.05.2zM58.6 5.35l-.4-.05-.2-.1-1.2-.9-.85-.35-.85.05-.55.05-1.1-.2-.85-.65q-.3-.45-.25-1.05t.4-.95l.5-.4L54.5.7q.55.05 1.15.5l.5.35 1.2 1.25.15.25.75.9.35.55.2.5zm-27.05.95-1 .85-1.25.45q-.75-.1-1.1-.65l-.25-.6-.1-.35.15-.55.3-.5q.5-.55 1.55-1l.4-.15 1.2-.1.55.15 1.45.15.5.3q.2.45-.15.7l-.85.2-.5.2-.5.35zm1.6.05q.35-.6 1.05-.4t.7.85q.1.65-.6.95-.65.25-1.1-.3l-.15-.4-.05-.2.05-.25zm-8.7-.6q-.35-.1-.4-.25l-.1-.25v-.1L24 5v-.15l.25-.3.35-.1V4.4q.45.1.55.5l.05.4-.1.2-.15.15-.2.15zm-6 2.2-.6-.1-.5-.3q-.1-.35.15-.5.05-.1.45-.35.8-.35 1.35-.35l1.2.2q1.6.5 2 1.35.2.45.05.95l-.6.8-1.85-.1-.75-.9zm5 4.75-.15.1h-.15l-.25-.15v-.4l.4-.1.1.05.05.1.05.05v.2l-.05.05zM15.7 6.05l1.2 1.75 1.95 2.8q2.65 3.6 6.5 10 2.65 4.35 3.25 6.85.15.4-.1.45l-.35-.15-1.5-2.25q-1.1-2.05-3.7-5.35-4.5-5.7-7-8.3l-1.6-1.4-.85-.5-.8-.6-.1-.1-.35.3-.4.45q-.65.65-.85 1.35l-.05.65.05 1.95q-.05.55-.5 1-.4.45-.95.5-.6.05-1.05-.3-.55-.35-.65-.9-.15-.5.1-1.15l.5-1 .25-.4 1.6-1.85 1.45-1.05.45-.25-.15-.7q0-.95.55-1.55.6-.65 1.55-.7.9-.1 1.55.45m-.6-3.65q0 .6-.55.85l-.9-.05q-.45-.25-.45-.8-.1-.55.35-.8.25-.2.6-.2.5 0 .7.3zM9.05 7.7l-1.2.3q-.8.25-1.65.95l-.55.6q-.8.8-1.75.4-1-.35-1.1-1.45 0-1.1.95-1.55l.6-.2Q4.7 6.6 5 6.4l1.55-.3 1.1-.1 1.3.2q1.15.2 1.85.55l.65.3q.2.1 0 .3l-.3.1zM3.1 3.3q.45-.95 1.45-.85t1.25 1q.35 1.05-.55 1.65L3.5 5 3 4.2q-.1-.5.1-.9M3 14.1q-.5-.2-.55-.6l-.05-.2.15-.45q.35-.35.6-.3l.1-.05q.45 0 .65.4.25.4 0 .8l-.4.35zm7.75 4.3q.2 1.05-.75 1.55l-1.7-.05q-.9-.6-.65-1.6.15-1 1.2-1.25.7-.15 1.25.25t.65 1.1m-6.55-.6q.4.05.65.35l.3.7-.05.2q-.1.55-.7.75-.55.1-1-.35-.25-.4-.15-.85.2-.85.9-.75zM27.15 32q.6.2.65.65l-2.5-.7q-5.2-1.5-7.85-1.85l-3.65-.7-.5-.1-.4.25-.6.45.3.35 2.2 4.25.25.6q.15 1.05-.65 1.6l-1.65.15q-.9-.4-.9-1.4l.1-1.15-.15-.75.05-.55-.45-2.85h-.2q-1 .05-1.8-.5l-.9 1.05-2.05 2.8-.2.45-1.05 1.6q-.75.85-1.35.9l-.9-.25q-.4-.3-.4-.85 0-.45.35-1L4.05 33l.75-.55 1.05-.8 1-.85.65-.4 1-.95.3-.3-.45-.9v-.1l-.4-.1-.7.05-.65-.05-1.4.15-3.3.7q-.85.1-1.35-.6-.45-.7-.15-1.5.35-.75 1.2-.85l1.85.05.8.15 1.45.55 2.5.65.2-.95.2-.45-.2-.25-.95-.75-.95-.6-1.75-.85-.4-.2-.3-.25Q3.7 22.6 3.7 22q-.05-.65.3-1.05l.95-.6 1.1.15 1.1.9.35.3.25.35.85.85.55 1 .4 1.1q.6-.35 1.3-.4l.25-.7.25-.5 1.2-1.75 1-1.1.35-.3 1.2-.05q.7.35.6 1-.05.6-.85 1.3l-2.15 1.95-.35.45.65.5.75 1.15.65-.5.35-.2.45-.35.85-.35.8-.5.45-.4.45-.1.75.05.55.35.1.25q.4.65 0 1.3-.3.65-1.1.65L17 26.6l-.95.15-1.35.4-.15.1q2.2.6 5.4 1.85l3.15 1.2q2.3.8 4.05 1.7m-9 .65.2-.05h.3l.35.4.05.25q0 .45-.4.55l-.7-.15-.15-.25v-.2l.15-.35.1-.15zM7.6 36.95l-.7-.5-.05-.2v-.35l.05-.2.35-.4.55-.15q.65.15.75.8v.3q-.2.8-.95.7m13.9-10.9q.2-.4.6-.3v-.05l.6.45q.15.4-.1.75l-.3.2-.65-.15-.25-.35zm2.6 10.9q.35-.55.95-.25.6.25.5.9l-.05.2-.45.4-.25.1-.3-.05q-.5-.15-.6-.8l.05-.2zM46.5 20.1l.3.6.2 1.15-.1 1.55-.95 1.3-.5.4q-.75.55-1.8.55l-1.85-.35q-1.45-.45-1.9-1.3l-.2-.55q-.35-1.05-.2-2.05l3-.85 1.8-1.15.55-.9.45.2zm-18.2 0q.55-1 1.2-1.4l.45-.2.55.9 1.8 1.15q1.35.6 3 .85.15 1-.2 2.05l-.2.55q-.45.85-1.9 1.3l-1.85.35q-1.05 0-1.8-.55l-.5-.4-.95-1.3-.1-1.55.2-1.15z"/><path fill="#999" d="m33.9 8.5 3.15-.5v-.05h.7V8l3.15.5 1.5.5.55-1.15q.5-1 .95-1.35 1.1-.95 2.25-.2.55.35 1.15 1.55L49 12l.4 1.55q.65 2.7.6 4.5-.05 1.6-.65 2.85 2.6-2.55 4.05-3.8l1.4-1.45 1.15-2q1.2-2 3.3-2.4l2.05.1q1.05.35 1.7 1.15.65.85.75 2 .05 1.1-.45 2.1-.6 1.3-1.95 1.85l-1.2.25-1.2.35-1.25.9L44.65 31.4l-1.2.95.25.3q1.7 2.2 2.75 5.1l.85 2.85.25 1.4q-.2 1.05-1.25 1.3-1 .25-1.65-.65l-.1-.2-.65-.1h-.35q-.85 0-1.5-.55l-.4-.4-.15.05-.75.3-.9.8-1.75.35-.6-.1h-.05l-.75.1q-1 .15-1.75-.35l-.9-.8-.75-.3-.15-.05-.4.4q-.65.55-1.5.55h-.35l-.65.1-.1.2q-.65.9-1.65.65-1.05-.25-1.25-1.3-.05-.5.25-1.4l.85-2.85q1.05-2.9 2.75-5.1l.25-.3-1.2-.95L17.1 19.95l-1.25-.9-1.2-.35-1.2-.25q-1.35-.55-1.95-1.85-.5-1-.45-2.1.1-1.15.75-2 .65-.8 1.7-1.15l2.05-.1q2.1.4 3.3 2.4l1.15 2 1.4 1.45 4.05 3.8q-.6-1.25-.65-2.85-.05-1.8.6-4.5l.4-1.55q.4-1.45 1.7-4.15.6-1.2 1.15-1.55 1.15-.75 2.25.2l.95 1.35L32.4 9zm12.6 11.6-1.2-1.4-.45-.2-.55.9-1.8 1.15-3 .85q-.15 1 .2 2.05l.2.55q.45.85 1.9 1.3l1.85.35q1.05 0 1.8-.55l.5-.4.95-1.3.1-1.55-.2-1.15zm-18.2 0-.3.6-.2 1.15.1 1.55.95 1.3.5.4q.75.55 1.8.55L33 25.3q1.45-.45 1.9-1.3l.2-.55q.35-1.05.2-2.05-1.65-.25-3-.85l-1.8-1.15-.55-.9-.45.2q-.65.4-1.2 1.4"/></g></svg>