<svg xmlns="http://www.w3.org/2000/svg" xmlns:ffdec="https://www.free-decompiler.com/flash" ffdec:objectType="shape" width="76.8" height="43.85"><path fill="#999" fill-rule="evenodd" d="m9.8.95-.1.35.15.6-.2.65-1.4 4.6-1.15 4.4-.65 2.8-1.4-1q-1.15-.85-1.8-.45-.45.3-.55 1.15l-.85 3.25q-1.05 3-1.15 4l-.3 1.25q-.35.75-.05.9l.55-.1q.6-.55 1.1-2.05l2.05-6.55 2 1.55q.6.5 1 .45.65-.05.85-1.25.5-3 1.5-6.05l1.85-5.5 4 5.6 4.3 5.45-4.25-.1q-1.65.1-2.05.9-.4.75.25 2.15l4.65 9.25-10 3.8q-4.9 1.9-6.9 2.85-.8.35-.6.85.2.45.95.15l7.85-2.45-.65 3.2-.1 1.8-.35.65-2.8 3.7-.25.4H.05V.95zm-1.85 41.2 1.55-2.2.35-.6.7-.85.05-.85V35.7l.2-2.95.05-.75 8.45-2.65h.05l1.5 2.7.4 1.2-.5 1-3.95 5.65q-.9 1.2-.8 2.05l.05.2zm11.15 0 .15-.25 4.35-6.05q.95-1.2 1.1-2.1.15-1.2-1-3.15l-7.45-13.1 5.35.25q1.1.1 1.5-.35.6-.55-.05-2.1-2.95-6.7-5.7-14.15l-.1-.2h16.1l-.4.2-.45.05q-.25.1-.4.45l-.2.55-.35.65-.5 3.35L31 8h-.05L27 1.9l-.55-.75-.45-.1-.35.25.15.8.15.4.35.6.95 1.8.25.55 2 2.9.25.45-4.4 2.85-.8.75q-.2.45-.05.8-.1.7.55 1.9l1.3 2.2L28 20.2l.4.75q.9 1 2 .6l.45-.2.35.95q.55 1.6 1.4 1.75.55.1 1.05-.35.5-.4.6-1 .1-.75-.45-2.35l-2.1-5.45q-.65-1.8-.75-2.5-.1-.35.05-.6.15-.15.55-.25l3.75-1q1-.2 1.35-.7l.4-1 .6-1.1 3.95-5.8.3-.85-.05-.15h33.8v2.5l-.05-.05q-.55-.5-1.35-.4l.35-.4.5-.35.3-.45q.1-.35-.15-.5l-.65.1q-1.9.85-5.05 3.2l-9.95 7.45-4.55-5.65q-.9-1.1-1.65-1.15-.7-.1-1.95.85l-13.4 10.65q-.65.65-.5 1.05.2.7 1.4.2 2.75-1.25 6.6-4.2l6.35-4.7.85-.3q.45.05.8.6 2.7 3.3 3.7 5.15.75 1.2 1.25 1.45.8.45 2.5-.3l5.4-2.35-1.4 2.8-2.4 5.05-.65 1.05-1.35.4-4.45.6q-1.1.2-1.55.5-.65.5-1.05 2.1-.7 2.7-2.4 6.95l-2.6 6.9q-.3.9-.25 1.35.1.9.75 1.1zM40.4.95l-.55.55-.05.05q-.45-.35-1.1-.3l-.65.05-.8-.2-.75.15-.8-.25-.5.05-.2-.1zm35.25 4.4v.5l-.45-.05v-.05zm0 3.8v15.5l-.15-.05-.55.05q-1.2.45-3.05 1.6L68.95 28q-.9.4-1.15.85-.2.25-.3.85l-1 5.6-1.2 5.25-.2 1.3.05.3h-2.5l.05-.6-.4-1.2-2.75-7.05-.65-2.05-1-3.45-.65-1.7-.1-.55.3-.05 4.1-.45q1.35-.2 1.75-.55l.9-1.45 4.15-10.55 5.95-2.65zm0 16.05v16.95h-8.9l.2-.8.75-4.45 1.25-6.75.35-1 .8-.65q2.5-1.65 5.35-3.15zm-14.9 16.95h-11.1l.6-.4.6-1.2L55.7 27.3l.1.4.45 1.7.7 2.75q1.9 5.75 3.3 9.15zM28.1 13.75l.2-.25.1.35h-.05l-.15.05z"/><path fill="#fff" fill-rule="evenodd" d="m5.3 42.15.25-.4 2.8-3.7.35-.65.1-1.8.65-3.2-7.85 2.45q-.75.3-.95-.15-.2-.5.6-.85 2-.95 6.9-2.85l10-3.8-4.65-9.25q-.65-1.4-.25-2.15.4-.8 2.05-.9l4.25.1-4.3-5.45-4-5.6-1.85 5.5q-1 3.05-1.5 6.05-.2 1.2-.85 1.25-.4.05-1-.45l-2-1.55L2 21.3q-.5 1.5-1.1 2.05l-.55.1q-.3-.15.05-.9l.3-1.25q.1-1 1.15-4l.85-3.25q.1-.85.55-1.15.65-.4 1.8.45l1.4 1 .65-2.8 1.15-4.4 1.4-4.6.2-.65-.15-.6.1-.35.5-.6 1.1-.2 4-.15 1.55.4.3.55.1.2q2.75 7.45 5.7 14.15.65 1.55.05 2.1-.4.45-1.5.35l-5.35-.25 7.45 13.1q1.15 1.95 1 3.15-.15.9-1.1 2.1l-4.35 6.05-.15.25-1.2.95-1.2-.15q-.5-.3-.65-.8l-.05-.2q-.1-.85.8-2.05l3.95-5.65.5-1-.4-1.2-1.5-2.7h-.05L10.85 32l-.05.75-.2 2.95v1.95l-.05.85-.7.85-.35.6-1.55 2.2-.4.55-1.3 1.15q-.4.1-.8-.2t-.4-.75q-.05-.3.25-.75M41.85.95l.05.15-.3.85-3.95 5.8-.6 1.1-.4 1q-.35.5-1.35.7l-3.75 1q-.4.1-.55.25-.15.25-.05.6.1.7.75 2.5l2.1 5.45q.55 1.6.45 2.35-.1.6-.6 1-.5.45-1.05.35-.85-.15-1.4-1.75l-.35-.95-.45.2q-1.1.4-2-.6l-.4-.75-1.65-2.9-1.3-2.2q-.65-1.2-.55-1.9-.15-.35.05-.8l.8-.75 4.4-2.85-.25-.45-2-2.9-.25-.55-.95-1.8-.35-.6-.15-.4-.15-.8.35-.25.45.1.55.75L30.95 8H31l.05-1.8.5-3.35.35-.65.2-.55q.15-.35.4-.45l.45-.05.4-.2.1-.1q.7-.4 1.35 0l.2.1.2.1.5-.05.8.25.75-.15.8.2.65-.05q.65-.05 1.1.3l.05-.05.55-.55.45-.3h.65zm33.8 2.5q.5.55.35 1.25l-.35.65-.45.4v.05l.45.05q.65.2 1 .85.5 1.05-.5 2l-.5.45-1.35.7-5.95 2.65-4.15 10.55-.9 1.45q-.4.35-1.75.55l-4.1.45-.3.05.1.55.65 1.7 1 3.45.65 2.05 2.75 7.05.4 1.2-.05.6-.5.55q-.65.35-1.2-.3l-.2-.25-.5-.85q-1.4-3.4-3.3-9.15l-.7-2.75-.45-1.7-.1-.4-4.85 13.25-.6 1.2-.6.4h-.6q-.65-.2-.75-1.1-.05-.45.25-1.35l2.6-6.9q1.7-4.25 2.4-6.95.4-1.6 1.05-2.1.45-.3 1.55-.5l4.45-.6 1.35-.4.65-1.05 2.4-5.05 1.4-2.8L61 15.7q-1.7.75-2.5.3-.5-.25-1.25-1.45-1-1.85-3.7-5.15-.35-.55-.8-.6l-.85.3-6.35 4.7q-3.85 2.95-6.6 4.2-1.2.5-1.4-.2-.15-.4.5-1.05L51.45 6.1q1.25-.95 1.95-.85.75.05 1.65 1.15l4.55 5.65 9.95-7.45q3.15-2.35 5.05-3.2l.65-.1q.25.15.15.5l-.3.45-.5.35-.35.4q.8-.1 1.35.4zm0 21.2.1.05.05.25-.15.25-.2.15q-2.85 1.5-5.35 3.15l-.8.65-.35 1-1.25 6.75-.75 4.45-.2.8-.05.1-.75.5q-.6 0-.8-.6l-.05-.3.2-1.3 1.2-5.25 1-5.6q.1-.6.3-.85.25-.45 1.15-.85l2.95-1.75q1.85-1.15 3.05-1.6l.55-.05zM28.1 13.75l.1.15.15-.05h.05l-.1-.35z"/><path ffdec:has-small-stroke="true" ffdec:original-stroke-width=".1" fill="none" stroke="#fff" stroke-linecap="round" stroke-linejoin="round" d="M9.8.95H.05v41.2H5.3M33.35.95h-16.1m23.15 0H35m6.85 0h33.8v2.5m0 1.9v.5m0 3.3v15.5m0 .55v16.95h-8.9m-1.6 0h-2.5m-1.9 0H19.1m-3.05 0h-8.1"/><path fill-rule="evenodd" d="M27.25 41.9v.65H23q0-4.75.35-9.65.35-5.35 1.3-8.55 1-3.55 3-6.05-.9-.9-.8-3.3.3-3.5 1.35-4.95.9-1.25 2.1-1.25.65-.05 1.15.45t.4 1.1l-.35.75-.5.75-.4 1.2q-.2 1.1.1 2.35l.05.15q1.45-.95 3.15-1.45l1.15-.3q.15-1.45.85-2.9.95-1.9 2.55-3.1.75-.6 1.45-.65l.75.15.5.6q.25.75-.85 1.8-1.6 1.6-1.6 3.2l.1.7.75.1q1.35.2 2.65.75.25-1.05.75-1.95 1.15-1.95 3.2-2.65l2.45.1q1 .55.7 1.25-.15.35-.9.65-1.1.5-1.8 1.5-.65 1.05-.75 2.2v1.1q1.65 1.45 2.75 3.4 1.2 2.15 1.7 5.1.35 2.05.5 5.45l.05 11.95H47v-.1l.05-2.6q.05-6.2-.3-10.75-.5-5.5-2.9-8.2-2.45-2.7-5.15-2.9l-1.95-.15-.1-.05q-2.35.25-4.3 1.85-2.55 2.1-3.7 6.4-.95 3.3-1.25 9.55l-.1 4.45zM41.1 25.3l-.2-.95.15-.8q.2-.65.9-1l1.9-.1q.9.4 1.25 1.4.2.8-.2 1.55-.4.8-1.15 1.05l-1.55-.1q-.8-.35-1.1-1.05m-9.5 1.85q-1.1-.15-1.55-1.35-.35-1.15.35-2 .6-.8 1.5-.7l.15-.05q1.25 0 1.85 1.2.55 1.2-.25 2.15-.8 1.1-2.05.75m4.1-5.6.2-1q.35-.7 1.1-1.05l1.5-.15q.75.2 1.25.85.5.6.45 1.4 0 .75-.5 1.4l-1.3.75-1.5-.2q-.75-.4-1.05-1.1zm-.35 18-.95-.1-.1-.15q-.15-.2-.15-.95.25-2.45 1.25-4.55l.1-.4-.3-.25-1.8-1.1-.7-.7q-.15-.5.55-1.35L38 24.85q.25-.35.5-.4l.7.05q.4.2.45.55l-.05.75-.7 2.7v.95l1.15 1.25q.9.9.85 1.7l-.35.85-2.1 2.8-2.55 2.9-.35.45zm3.75-7.65-1.05-.95-.8-.6Q37 30 37.1 29.2l.05-1.2L35 30.7l1.3.8 1.15.9.3.85-.35.95q-.35.6-.35.95l2-2.4.2-.45z"/><path fill="#999" fill-rule="evenodd" d="m47 42.45-1.8.05-9.35-.25-8.6-.35.05-1.85.1-4.45q.3-6.25 1.25-9.55 1.15-4.3 3.7-6.4 1.95-1.6 4.3-1.85l.1.05 1.95.15q2.7.2 5.15 2.9 2.4 2.7 2.9 8.2.35 4.55.3 10.75zm-11.65-2.9.2-.15.35-.45 2.55-2.9 2.1-2.8.35-.85q.05-.8-.85-1.7l-1.15-1.25v-.95l.7-2.7.05-.75q-.05-.35-.45-.55l-.7-.05q-.25.05-.5.4L33.25 30q-.7.85-.55 1.35l.7.7 1.8 1.1.3.25-.1.4q-1 2.1-1.25 4.55 0 .75.15.95l.1.15zm.35-18 .15.9q.3.7 1.05 1.1l1.5.2 1.3-.75q.5-.65.5-1.4.05-.8-.45-1.4-.5-.65-1.25-.85l-1.5.15q-.75.35-1.1 1.05zm-4.1 5.6q1.25.35 2.05-.75.8-.95.25-2.15-.6-1.2-1.85-1.2l-.15.05q-.9-.1-1.5.7-.7.85-.35 2 .45 1.2 1.55 1.35m9.5-1.85q.3.7 1.1 1.05l1.55.1q.75-.25 1.15-1.05.4-.75.2-1.55-.35-1-1.25-1.4l-1.9.1q-.7.35-.9 1l-.15.8z"/><path fill="#fff" fill-rule="evenodd" d="m39.1 31.9.15.4-.2.45-2 2.4q0-.35.35-.95l.35-.95-.3-.85-1.15-.9-1.3-.8 2.15-2.7-.05 1.2q-.1.8.15 1.15l.8.6z"/></svg>