<svg xmlns="http://www.w3.org/2000/svg" xmlns:ffdec="https://www.free-decompiler.com/flash" ffdec:objectType="shape" width="78" height="44.5"><g fill-rule="evenodd"><path fill="#999" d="m3.2.4 1.05 1.15 1 1.05q-.2-.65.1-1.05.25-.55.85-.45l1 .75 1.9 2.9 3.45 5.95.8-2.2.4-1.3q.35-.75 1-.95l.4-.05-.1-.5-.1-2.95q-.35-.15-.35-.6-.05-.3.2-.65l.9-.5q.5 0 .8.3l.3.8-.1 3.85 1.4-.8q.95-.55 1.85-.9l1.75-.5q.9-.45 1.25-.4.65 0 .85.65l.05.65q0 1.05.35 2.55l.4 1.65.4 3.45v.9l-.15.3q-.2.2-.4 0l-.25-.4-.35-.85L22.3 5.6l-1.85.55-1.6.8-1.3.8 3.4 3.45 3.5 3.3 3.3 3.5q.7.9.8 1.5.25 1.3-.75 2.05-1 .85-2.2.25-.8-.4-1.85-2.3-1.15-2-3.9-4.6l-4.3-4.3-2.1 3.75-.7.6-.2.05-1.25-.15-1.2-1.4-1.5-1.75-1.65-1.65-2.7-3.2-3.2-2.8q-.8-.7-1-1.5-.15-.6.1-1.2L.9.4Q2-.35 3.2.4m69.6.95 2.1-.15 2.05.2q.85.4 1 1.25.25.85-.35 1.6l-1.25.95-2.2 1.55-5.5 3.25q-3.9 2.05-5.55 3.2l-.95.6-.6.5-.7.5-.8.15q-.45-.1-.85-1l-.85-2.85-.55-2.35q-5 4.15-9 8.7-1.1 1.2-1.8 1.35-.8.25-1.55-.3-.7-.5-.8-1.35-.1-1.2 1.6-2.8l3.5-2.8.3-.25.1-.85L51.2 5.4l.3-1.1.2-1.5.3-.8.6-.55.65.05.4.5-.1.75-.35.75-.45 1.55-.3.85-1.2 4.45 1.9-1.7L54.8 7.1l2.35-1.95q1.05-1.05 1.65-1.1.65-.05 1.25.6l.7 1.25 1.05 3.8 2-2.05q2.95-3.05 6.3-5.7l1.05-.55.75.05zm-21.65 22.7q-.7.1-.8-.2-.15-.4.45-.65 1.9-1.05 6.35-3.1l6.35-3.2q1.3-.75 2-.45.55.3.85 1.25l.9 2.85 7.55-5.1q.95-.65 1.5-.55.45.05.75.4l.3.8q-.05.8-1.35 1.65l-6.25 4.05-1.85 1.4-1.4.95q-.6 0-1-.7l-.4-1.2-1-3.25q-8.5 3.7-12.95 5.05M47.8 28.4q.4-.2.9.3 1.35 1.25 3.15 3.8l3.45 4.85 2.25-4.4.7-.95q.4-.2.95.15l.7.7 7.4 9.4q.65.85.6 1.3-.1.85-.9.95-.85.1-1.8-1.35l-2.3-3.25-4.2-5.6q-1.2 2.35-2.3 5-.45.9-.85 1-.55.15-.95-.4l-.5-1q-.55-1.3-2-3.25l-4.2-5.9q-.35-.45-.35-.7-.1-.5.25-.65M25.5 25l-6 1.2q-.45.1-.6.3-.2.3 0 .85l.75 3.05q.45 1.6-.25 2.15l-1.25.35q-1.05.15-2.7.85-6.5 2.6-12.25 6.7-1.4.95-2.15.75l-.8-.75Q0 39.9.25 39.4q.2-.5 1.15-1 5.15-2.95 7.8-4.3 4.4-2.2 8.15-3.4-.65-1.95-.65-3.75-.1-1.3.55-1.7l1.2-.25 3.45-.6 3.45-.55q1.05 0 .95.6-.05.35-.8.55"/><path d="m46.25 33.15-2.65 1.5.2.05 1.95.6q3.7.9 8.1-1.15 3.3-1.5 5.2-3.7 2.35-2.55 2.7-5.7-2.4.2-4.4-2.45-1.35-2-1.4-4 0-2.45 1.6-3.8 1.35-1.1 3.45-1.2 1.95 0 3.15 1 .75.6 1.5 2.15 2.6 5.75.2 12.35-1.2 3.1-3 4.95l-2.05 1.7q-4.25 3.15-8.5 4.05l-4.7.35-3.2-.65.5 3.1.05.5h-17.1v-1.25q.2-1.2 1.1-2.75l.3-.5-1.25.5q-3.9 1.5-7.2 1.45-4.05 0-7-2.15l-2.55-2.5q-1.55-1.8-2.2-3.1-.75-1.3-1.45-3.95-.55-2.7-.3-4.5.35-2.55 1.95-4l2-1.05q1.2-.35 2.25 0 1.2.35 2.05 1.55.8 1.1 1 2.45.2 1.6-.55 3.15t-2.15 2.2l-.45.35.05.55Q14 30.5 15.25 32l1.85 1.85q2.3 1.7 7 1.4l5.1-.55q-3.5-1.3-5.2-3.9-1.55-2.45-1.55-7.65l.1-1.85q-.85-2.9-.6-6.35.15-2.35.95-4 .8-1.5 1.8-1.6l1.6.3 1.55.2.15.05q2.25-2.05 5.15-3.1 2.75-1 5.6-1 3 0 5.5 1.15 2.1.9 3.8 2.6l1.9-.4 1-.35q1.1-.15 1.75.65.5.5.65 1.35.4 1.5.3 4.15 0 2.85-.35 4.2l-.8 2.25-.05.2q-.2 2.25-.9 4.65-1.05 3.25-2.9 5.1zm.9-10.8q1.15-.5 2.2-1.5l1.15-1.55.4-1.35q.3-1.8-.4-3.6-.8-1.8-2.45-2.6l-1.35-.4-1.25-.15-.85.05-1 .2q-1.6.45-2.6 1.6l-1.05 1.6-.5 1.1-.2 1.55q0 .85.15 1.5.25 1.05.9 1.95l.35.4.15.15q1.75 1.65 4.25 1.5h.35l.15-.05.4-.05.5-.1zm-14.2 4.8h.15l.05.25q.7 1.8 2.55 2.7l1 .35 2.65-.25 1.85-.65.9-.6 1.85-1.7.8-.9.5-.6v-.05l.55-.55.1-.5-.55-.2-1.25.45-1.25.4-1.35-.05-1.75-.3-1-.4-.15-.3q-.45-.85-1.15-1.05l-.7.05-.5.2-1 1.1q-.5.35-1.3.35-1.7.1-3.3-.95l-.85-.85-.35-.55-.6-.1-.35.4.1.8.05.4.25.3.1.35q.25.55 1 1.15l1.45.9zm1.35-6.25 1.2-1.8.1-.3.4-1.5v-1.55l-.3-1.1-.85-1.6q-.8-1.15-2.35-1.6l-.35-.1-1-.15-1.75.15-1.4.4-.15.1q-.5.2-.9.5l-.75.7-.3.35-.3.35-.45.6q-.95 1.8-.9 3.6l.2 1.35.45.95.4-.25 1.95-.2.85.05.9.15 1 .25.95.2q.5.15.95.45.75.35 1.35.85l.6-.45.15-.15.15-.1z"/><path fill="#fff" d="m47.15 22.35-.7.25-.5.1-.4.05-.15.05h-.35l-.15-.3-1.5-3.45-.45.15-.4.3-1.75 1.8-.15-.15-.35-.4.5-.6 2.2-2-.5-1.05q-.4-.8-.35-1.3l.3-.55q.25-.3.55-.25l.55.15.7.05 1.45.2-.55-1.6-.85-2.5.3-.05.85-.05.6 1.8.65 1.45.45 1.1q.1.85-.45 1.15l-.7.1-1.65-.15 1.7 3.4.95 1.75zm-14.2 4.8-1.5-.4-1.45-.9q-.75-.6-1-1.15l-.1-.35-.25-.3-.05-.4-.1-.8.35-.4.6.1.35.55.85.85q1.6 1.05 3.3.95.8 0 1.3-.35l1-1.1.5-.2.7-.05q.7.2 1.15 1.05l.15.3 1 .4 1.75.3 1.35.05 1.25-.4 1.25-.45.55.2-.1.5-.55.55v.05l-.5.6-.8.9-1.85 1.7-.9.6-1.85.65-2.65.25-1-.35q-1.85-.9-2.55-2.7l-.05-.25zm-.8-15.8q.5 2.15.9 3.15l.35 1.15q.1.8-.5 1-.35.2-1 0l-1.5-.35-1.15-.15.4 1.55.1.9h.1l2.75-.5h.6q.3.1.5.9l.6 1.9-.15.15-.15.1-.15.15q-.75-1.2-1-2.3l-2.55.7.1.2.2.45-.6-.1-1-.25-.55-.1-.05-.2-.15-.6-.35-1.9-.45-1.65-.15-.15-1.35-1.3-.35-.35.3-.35.3-.35v.05l.9 1 .45.45.3-.15.1-.05.7-.05 3 .45-.5-2.3-.05-1.05.05-.2z"/><path fill="#999" d="m45.45 11.2 1.25.15 1.35.4q1.65.8 2.45 2.6.7 1.8.4 3.6l-.4 1.35-1.15 1.55q-1.05 1-2.2 1.5L47 21.8l-.95-1.75-1.7-3.4 1.65.15.7-.1q.55-.3.45-1.15l-.45-1.1-.65-1.45zm-.4 11.6q-2.5.15-4.25-1.5l1.75-1.8.4-.3.45-.15 1.5 3.45zm-4.75-2.05q-.65-.9-.9-1.95-.15-.65-.15-1.5l.2-1.55.5-1.1 1.05-1.6q1-1.15 2.6-1.6l1-.2-.3.05.85 2.5.55 1.6-1.45-.2-.7-.05L43 15q-.3-.05-.55.25l-.3.55q-.05.5.35 1.3l.5 1.05-2.2 2zm-8.15-9.4.35.1q1.55.45 2.35 1.6l.85 1.6.3 1.1v1.55l-.4 1.5-.1.3-1.2 1.8-.6-1.9q-.2-.8-.5-.9h-.6l-2.75.5h-.1l-.1-.9-.4-1.55 1.15.15 1.5.35q.65.2 1 0 .6-.2.5-1l-.35-1.15q-.4-1-.9-3.15m1.7 9.95-.6.45q-.6-.5-1.35-.85-.45-.3-.95-.45l-.95-.2.6.1-.2-.45-.1-.2 2.55-.7q.25 1.1 1 2.3M29 20l-.9-.15-.85-.05-1.95.2-.4.25-.45-.95-.2-1.35q-.05-1.8.9-3.6l.45-.6.35.35 1.35 1.3.15.15.45 1.65.35 1.9.15.6.05.2zm-2.8-6.95.75-.7q.4-.3.9-.5l.15-.1 1.4-.4 1.75-.15-.05.2.05 1.05.5 2.3-3-.45-.7.05-.1.05-.3.15-.45-.45-.9-1z"/></g></svg>