<svg xmlns="http://www.w3.org/2000/svg" xmlns:ffdec="https://www.free-decompiler.com/flash" ffdec:objectType="shape" width="75.55" height="44.05"><g fill-rule="evenodd"><path d="M11.65 1.25H22.5q-4 2.45-7.9 5.65l-2.05 1.65L12 4.1l-.05-.9v-.35l-.1-.6v-.6zm13.05 0h12.25l-.1.05-5.9 2.4-.25.15-.85-2-.3-.4-.8.1-.2.65v.5q-.05 1 .45 2.95l.35 2.85.15.65.45.75q.55.55 1.2.4.75-.2.9-.85l.05-.4-.15-.95-.15-.55-.05-.5-.75-2.3.15-.1.5-.2 2.65-.8 2.75-1 .8-.2.1-.05.1.05.8.2 2.75 1 2.65.8.5.2.15.1-.75 2.3-.05.5-.15.55-.15.95.05.4q.15.65.9.85.65.15 1.2-.4l.45-.75.15-.65.35-2.85q.5-1.95.45-2.95v-.5l-.2-.65-.8-.1-.3.4-.85 2-.25-.15-5.9-2.4-.1-.05H51.2l10.4 8.4q-4.15 1.95-7.55 4.65-1.05.85-1 1.55 0 .7.7 1.15l1.3.55q1.95.7 3.6 1.95l-1.4 2.6-11.55-2.7q-.95-.1-.95.4l.5.45Q51.2 22.75 57 24.9l.9.3 8.65 2.85-2.65 5.9q-.5.95-.3 1.6l1.3 1.15q5 2.5 9.5 5.65l.15.1H65.9l.1-.6-.35-.75-2.4-2.45-.4-.35-.05-.15-.15-.35-1.35-2.05-1.4-2.05-2.65-4.35-1.35-1.85-.85-1.15-.4-.35-.5.05q-.2.2 0 .6.25.75.85 1.7l1.05 1.55 1.75 3.6 2.95 4.6-1.6 1.25-2.9 2.25q-.6.5-.7.85H53l.1-.1.2-.5.5-1.65.35-1.6-.05-.95-.7-.55-.35-.4-1.35-1.55-.7-.7-1.15-.8-.55-.05q-.3.2-.1.55l.3.35q1.6 1.35 2.9 3.15l.1.25-.05.2q-.6 1.3-1.1 3.1-.2.85 0 1.2v.05h-26.8v-.05q.2-.35 0-1.2l-1.1-3.1-.05-.2.1-.25q1.3-1.8 2.9-3.15l.3-.35q.2-.35-.1-.55l-.55.05-1.15.8-.7.7-1.35 1.55-.35.4-.7.55q-.15.3-.05.95l.35 1.6.5 1.65.2.5.1.1h-2.55l-.7-.85-2.9-2.25-1.6-1.25 2.95-4.6 1.75-3.6 1.05-1.55.85-1.7q.2-.4 0-.6l-.5-.05-.4.35L20 27.5l-1.35 1.85L16 33.7l-1.4 2.05-1.35 2.05-.15.35-.05.15-.4.35-2.4 2.45q-.25.25-.35.75l.1.6H1.35l.15-.1Q6 39.2 11 36.7q1.15-.7 1.3-1.15.2-.65-.3-1.6l-2.65-5.9L18 25.2l.9-.3 11.75-4.65.5-.45q0-.5-.95-.4l-11.55 2.7-1.4-2.6q1.65-1.25 3.6-1.95l1.3-.55q.7-.45.7-1.15.05-.7-1-1.55-3.4-2.7-7.55-4.65zm28.7 0h10.85l-.2.4v.6l-.1.6v.35l-.05.9-.55 4.45L61.3 6.9q-3.9-3.2-7.9-5.65m11.9 0h5q-.3.35-.45 1.2L69 9.05l.05.45q.15.3.8.75l2.1 1.75-3.35 6.55-2.55-.7-1.45-.35-.95.05q-.35.25-.25 1.2l.05 2.2q-.05 1.45.05 2.65l-3.5-.85 1.25-2.15q.75-1.1.6-1.7-.1-.6-1-1.1-1.65-1.15-4-2.3 2.7-2.05 5.9-3.6l1.45-.9q.8-.8.3-1.6h-.05l.3-1.25.1-1.1.15-.9.05-.45.2-1.3.05-1 .15-.35.05-.7.1-.4zm6.15 0h4.1V5l-.05.15-2.8 5.45q-1-1.05-2.25-1.85l.7-3.35.2-1.35.15-1.1q.25-1.2.1-1.5zm4.1 7.9v9.55l-.7.2q-.6.25-1.35.9l-.35.2-.45-.05-3.05-1.05.45-.55 1-1.85.9-1.25.65-1.3.75-1.5.05-.1 1-1.8zm0 12.1v11.6l-.05-.05-1.85.25-6.45.95-.6.1 2.9-5.75q.5-1 .4-1.55-.15-.75-1.2-1.35-1.45-.85-3.9-1.5v-.65l.05-3.95q2.45.4 6.7 2.05l1 .4.8.3 1.2-.45zm0 13.15v5.2l-8.4-4.8.4-.05 5.7-.35 1.45.05zM64.3 42.45h-5.45l1.65-1.5 1.85-1.45.15-.1.7 1.15.5.9.1.05.4.75zm-47.25 0H11.6l.1-.2.4-.75.1-.05.5-.9.7-1.15.15.1 1.85 1.45zM.2 39.65v-5.3l.15.05.85.05 1.45-.05 5.7.35.4.05zm0-6.8V21.2l1.15.45 1.2.45.8-.3 1-.4q4.25-1.65 6.7-2.05l.05 3.95v.65q-2.45.65-3.9 1.5-1.05.6-1.2 1.35-.1.55.4 1.55l2.9 5.75-.6-.1-6.45-.95L.4 32.8zm0-14.2v-9.7l1.25 1.6 1 1.8.05.1.75 1.5.65 1.3.9 1.25 1 1.85.45.55-3.05 1.05-.45.05-.35-.2-1.35-.9zm0-13.9v-3.5h4.25l-.15.2q-.15.3.1 1.5l.15 1.1.2 1.35.7 3.35q-1.25.8-2.25 1.85L.4 5.15zm5.4-3.5h5q-.3.2-.3.7l.1.4.05.7.15.35.05 1 .2 1.3.05.45.15.9.1 1.1.3 1.25h-.05q-.5.8.3 1.6l1.45.9q3.2 1.55 5.9 3.6l-4 2.3q-.9.5-1 1.1-.15.6.6 1.7l1.25 2.15-3.5.85.05-2.65.05-2.2q.1-.95-.25-1.2l-.95-.05-1.45.35-2.55.7L3.95 12l2.1-1.75.8-.75.05-.45-.85-6.6z"/><path fill="#fff" d="m10.6 1.25.35-.15.6.1.1.05.2.4v.6l.1.6v.35l.05.9.55 4.45L14.6 6.9q3.9-3.2 7.9-5.65l1.7-1 .6-.25.55.35q.1.3-.4.7l-.25.2-10.4 8.4q4.15 1.95 7.55 4.65 1.05.85 1 1.55 0 .7-.7 1.15l-1.3.55q-1.95.7-3.6 1.95l1.4 2.6 11.55-2.7q.95-.1.95.4l-.5.45L18.9 24.9l-.9.3-8.65 2.85 2.65 5.9q.5.95.3 1.6-.15.45-1.3 1.15-5 2.5-9.5 5.65l-.15.1-1.2.65-.15.05V39.8l.2-.15 8.55-4.85-.4-.05-5.7-.35-1.45.05-.85-.05-.15-.05-.2-.05v-1.4l.2-.05.2-.05 1.85.25L8.7 34l.6.1-2.9-5.75q-.5-1-.4-1.55.15-.75 1.2-1.35 1.45-.85 3.9-1.5v-.65l-.05-3.95q-2.45.4-6.7 2.05l-1 .4-.8.3-1.2-.45L.2 21.2l-.15-.1H0v-2.5l.2.05.85.25 1.35.9.35.2.45-.05 3.05-1.05-.45-.55-1-1.85-.9-1.25-.65-1.3-.75-1.5-.05-.1-1-1.8L.2 8.95l-.15-.2-.05-.1v-4.1l.2.2.2.4 2.8 5.45q1-1.05 2.25-1.85l-.7-3.35-.2-1.35-.15-1.1q-.25-1.2-.1-1.5l.15-.2.95-.15.2.15.45 1.2.85 6.6-.05.45-.8.75L3.95 12l3.35 6.55 2.55-.7 1.45-.35.95.05q.35.25.25 1.2l-.05 2.2-.05 2.65 3.5-.85-1.25-2.15q-.75-1.1-.6-1.7.1-.6 1-1.1l4-2.3q-2.7-2.05-5.9-3.6L11.7 11q-.8-.8-.3-1.6h.05l-.3-1.25-.1-1.1-.15-.9-.05-.45-.2-1.3-.05-1-.15-.35-.05-.7-.1-.4q0-.5.3-.7m26.35 0L37.6 1l.15-.05.2.05.2-.05.8.3.1.05 5.9 2.4.25.15.85-2 .3-.4.8.1.2.65v.5q.05 1-.45 2.95l-.35 2.85-.15.65-.45.75q-.55.55-1.2.4-.75-.2-.9-.85l-.05-.4.15-.95.15-.55.05-.5.75-2.3-.15-.1-.5-.2-2.65-.8-2.75-1-.8-.2-.1-.05-.1.05-.8.2-2.75 1-2.65.8-.5.2-.15.1.75 2.3.05.5.15.55.15.95-.05.4q-.15.65-.9.85-.65.15-1.2-.4l-.45-.75-.15-.65L29 5.65q-.5-1.95-.45-2.95v-.5l.2-.65.8-.1.3.4.85 2 .25-.15 5.9-2.4zm14.25 0-.25-.2q-.5-.4-.4-.7.05-.35.55-.35l.6.25 1.7 1q4 2.45 7.9 5.65l2.05 1.65.55-4.45.05-.9v-.35l.1-.6v-.6l.2-.4.1-.05.6-.1.35.15.3.7-.1.4-.05.7-.15.35-.05 1-.2 1.3-.05.45-.15.9-.1 1.1-.3 1.25h.05q.5.8-.3 1.6l-1.45.9q-3.2 1.55-5.9 3.6 2.35 1.15 4 2.3.9.5 1 1.1.15.6-.6 1.7L60 22.75l3.5.85q-.1-1.2-.05-2.65l-.05-2.2q-.1-.95.25-1.2l.95-.05 1.45.35 2.55.7L71.95 12l-2.1-1.75q-.65-.45-.8-.75L69 9.05l.85-6.6q.15-.85.45-1.2l.2-.15.95.15.15.2q.15.3-.1 1.5l-.15 1.1-.2 1.35-.7 3.35q1.25.8 2.25 1.85l2.8-5.45.05-.15v4.15l-1.1 1.4-1 1.8-.05.1-.75 1.5-.65 1.3-.9 1.25-1 1.85-.45.55 3.05 1.05.45.05.35-.2q.75-.65 1.35-.9l.7-.2v2.55l-1 .4-1.2.45-.8-.3-1-.4q-4.25-1.65-6.7-2.05l-.05 3.95v.65q2.45.65 3.9 1.5 1.05.6 1.2 1.35.1.55-.4 1.55l-2.9 5.75.6-.1 6.45-.95 1.85-.25.05.05v1.55l-.85.05-1.45-.05-5.7.35-.4.05 8.4 4.8v3.45l-1-.6-.15-.1q-4.5-3.15-9.5-5.65l-1.3-1.15q-.2-.65.3-1.6l2.65-5.9-8.65-2.85-.9-.3q-5.8-2.15-11.75-4.65l-.5-.45q0-.5.95-.4l11.55 2.7 1.4-2.6q-1.65-1.25-3.6-1.95l-1.3-.55q-.7-.45-.7-1.15-.05-.7 1-1.55 3.4-2.7 7.55-4.65zm14.7 41.2-.3.3-.95.05-.35-.35-.1-.2-.4-.75-.1-.05-.5-.9-.7-1.15-.15.1-1.85 1.45-1.65 1.5-.05.05-.85 1-1.05.55q-.65.1-1.15-.4-.55-.55-.2-1.2.1-.35.7-.85l2.9-2.25 1.6-1.25-2.95-4.6-1.75-3.6L55 28.35q-.6-.95-.85-1.7-.2-.4 0-.6l.5-.05.4.35.85 1.15 1.35 1.85 2.65 4.35 1.4 2.05 1.35 2.05.15.35.05.15.4.35 2.4 2.45.35.75zm-12.9 0-.2.2-.65.2q-.5.1-.8-.4v-.05q-.2-.35 0-1.2.5-1.8 1.1-3.1l.05-.2-.1-.25q-1.3-1.8-2.9-3.15l-.3-.35q-.2-.35.1-.55l.55.05 1.15.8.7.7 1.35 1.55.35.4.7.55.05.95-.35 1.6-.5 1.65-.2.5zm-28.45 0q-.3.5-.8.4l-.65-.2-.2-.2-.1-.1-.2-.5-.5-1.65-.35-1.6q-.1-.65.05-.95l.7-.55.35-.4 1.35-1.55.7-.7 1.15-.8.55-.05q.3.2.1.55l-.3.35q-1.6 1.35-2.9 3.15l-.1.25.05.2 1.1 3.1q.2.85 0 1.2zm-4.2 0q.35.65-.2 1.2-.5.5-1.15.4-.55-.05-1.05-.55l-.85-1-.05-.05-1.65-1.5-1.85-1.45-.15-.1-.7 1.15-.5.9-.1.05-.4.75-.1.2-.35.35-.95-.05-.3-.3-.1-.6q.1-.5.35-.75l2.4-2.45.4-.35.05-.15.15-.35 1.35-2.05L16 33.7l2.65-4.35L20 27.5l.85-1.15.4-.35.5.05q.2.2 0 .6l-.85 1.7-1.05 1.55-1.75 3.6-2.95 4.6 1.6 1.25 2.9 2.25z"/><path d="M54.4 20.05q1.15 1.85.5 3.8-.55 2.05-2.45 2.95-1.05.55-2.3.55l-1.5-.15-1.05-.35q-.8-.45-1.7-1.85l-.45-.85q-.3-.65-.2-1.45.15-2.2 1.65-3.55l.15-.15q1.7-1.45 3.95-1.15 2.25.35 3.4 2.2m-29.25 7.3-1.5-.15-1.05-.35q-.8-.45-1.7-1.85l-.45-.85q-.3-.65-.2-1.45.15-2.2 1.65-3.55l.15-.15q1.7-1.45 3.95-1.15 2.25.35 3.4 2.2t.5 3.8q-.55 2.05-2.45 2.95-1.05.55-2.3.55"/><path fill="#fff" d="m21.9 19.15-.05-.05q-.5-.75-.3-1.5l.3-1.2q1.3-3.7 4.6-6.5Q29.2 7.55 33.4 6l.9.1q.45.45-.45 1.1l-1.25 1q-1.2 1.1-1.9 2.15-.6.85-1.05 1.8l-.9 2.6 2.5.2q.9.1 1.4.45.7.45.85 1.45v.5l-.6 2-2.4 4.7-.75 1.75-2.25 5.35-.3.75-.45.95-.55.4-.65-.1q-.4-.25-.5-.95l-.05-.5q-.15-.4-.15-1.05l.3-3.3q1.25 0 2.3-.55 1.9-.9 2.45-2.95.65-1.95-.5-3.8t-3.4-2.2q-2.25-.3-3.95 1.15z"/><path fill="#999" d="M25.6 38.4q-3.7-1.6-5.3-3.4-2.9-3.15-2.9-9.35 0-5.4 2.15-10.2l-.2-.65v-.1l-.5-1.1-.4-1.6-.25-.5-.85-3.15q-.55-1.9-.6-3.3l.2-1.2q.4-.75 1.2-.9l1.2.1q2.5.65 6.5 2.9l1.25.65q4.75-3 11.1-3.1 4.3-.1 7.6 1.4 1.6.7 3.25 1.95 1.2-.7 3.55-1.5L56.25 4 58 3.3q1.2-.2 1.75.45.6.65.4 1.8l-.2.8-3.6 9.05.25.6q.65 1.5 1 4.1.6 4.85-.7 9.2-1.45 4.7-4.85 7.5-5.25 4.3-15.85 3.9l-5.4-.6q-2.2-.45-5.2-1.7m28.8-18.35q-1.15-1.85-3.4-2.2-2.25-.3-3.95 1.15l-.15.15q-1.5 1.35-1.65 3.55-.1.8.2 1.45l.45.85q.9 1.4 1.7 1.85l1.05.35 1.5.15q1.25 0 2.3-.55 1.9-.9 2.45-2.95.65-1.95-.5-3.8m-29.25 7.3-.3 3.3q0 .65.15 1.05l.05.5q.1.7.5.95l.65.1.55-.4.45-.95.3-.75 2.25-5.35.75-1.75 2.4-4.7.6-2v-.5q-.15-1-.85-1.45-.5-.35-1.4-.45l-2.5-.2.9-2.6q.45-.95 1.05-1.8.7-1.05 1.9-2.15l1.25-1q.9-.65.45-1.1l-.9-.1q-4.2 1.55-6.95 3.9-3.3 2.8-4.6 6.5l-.3 1.2q-.2.75.3 1.5l.05.05q-1.5 1.35-1.65 3.55-.1.8.2 1.45l.45.85q.9 1.4 1.7 1.85l1.05.35z"/></g></svg>