<svg xmlns="http://www.w3.org/2000/svg" xmlns:ffdec="https://www.free-decompiler.com/flash" ffdec:objectType="shape" width="76.85" height="37.4"><g fill-rule="evenodd"><path fill="#999" d="M65.6 14.65h8.65l.2.05h.1l.25-.05h1l.2.05.2.05.15.1.1.05.1.1.05.05.05.1.05.05.05.1v.05l.05.1.05.1v.3l-.05.05v.1l-.05.05-.05.1v.1l-.05.05-.05.1-.1.05-.1.1-.1.05-.1.05-.05.05H76l-.2.05h-1l-.25-.05h-.1l-.2.05h-14.5l-2.5-.05h-3.3l-2.15-.05H27.05l-3.95-.05h-3.55l-10-.05h-2.7L5.3 16.5h-.8l-.75-.05H2.3l-1.15-.05h-.3l-.25-.05-.2-.1-.15-.1-.1-.05L.1 16l-.05-.05v-.15L0 15.7l.05-.05v-.2l.05-.05.05-.1.1-.05.15-.1.2-.05.25-.05.3-.05H2.3l1.45-.05h.75l.8-.05h1.55l2.7-.05h10l3.55-.05h3.95l3.2-.05H51.8l2.15-.05h3.3l2.5-.05zm-.75 2.15H75.7l.2.05.15.05.2.1.1.05.1.1.05.05.05.1.05.05.05.1v.05l.05.1v.45l-.05.1-.05.05v.1l-.05.05-.1.1-.05.1-.15.05-.1.1-.15.05h-.15V21l.05.1v.2l-.05.1v.7l.05.1v1.6l-.05.1v8.45l.05.05v2.45l.05.05.05.05.05.1.1.05.05.1v.05l.05.1.05.05v.2l.05.05v.3l-.05.1v.15l-.05.1-.05.05v.1l-.05.05-.1.1-.05.05-.05.1-.1.05-.1.1-.15.1-.15.05-.2.05-.25.05h-.15l-.25-.05h-.15l-.15-.05h-.1l-.15-.05h-.15l-.15-.05-.1-.05h-.1l-.1-.05h-2.9l-.3-.05H57.1l-2.35.05h-2.7l-3.75.05h-3.1l-4.75.05-6.75.05h-3.85l-10.3-.05-1.7-.05h-6.2l-4.6.05h-.7l-1.5-.05H3.8l-.4-.05h-.25l-.2-.05h-.1v.05l-.05.1-.05.1-.1.05-.1.1-.15.05-.15.1-.35.05-.3-.05-.15-.1-.15-.05-.1-.1-.1-.05-.05-.1-.05-.1-.05-.05-.05-.1v-.05l-.05-.1v-.2l-.05-.1v-.7l-.05-.1V28.8l.05-.1v-2.05l.05-.1V23l.05-.1v-2.4l.05-.1v-1.6l.05-.1v-.2l.05-.1V18l.05-.05v-.35l.05-.05v-.1l.05-.05.1-.1.1-.05.05-.1.1-.05.15-.1.35-.05h.05l.15.05h.3l.25.05h2.3l.15-.05.05-.05.2-.05h.2l.1-.05h.1l.2-.05.35-.05.65-.05h.7l.4-.05h10l.15.05.2.1.1.05.1.1.05.05h2l.95-.05 1.3-.05h.25l.4-.05h.3l1.15-.05h.9l1.5-.05H29l.8.05h.4l.45.05h.7l.3.05h.25l.25.05.35.05h.15l.2.05H33l.15.05h1.7l2.05-.05h10.65l2.2-.05h3.6l1.95-.05 1.4-.05h.2l.2-.05h1.6l.65-.05h5.5m-12.6-6.1-.8.5-.95.3-1.2.95-.4.4q-.3.2-.5 0-.15-.15-.05-.55.3-1.35 1.15-2.45l1-.95 1.35-.1q.5.2.7.85.1.6-.3 1.05m8.9 16.55q1.45-.8 1.3-1.75-.05-.55-.75-1.15-1.15-.95-2.8-1.45l1.15 1.3q.6 1.3-.4 2.6l-2.2 1.7-2.85 1.3-2.45.85q5.15-1.05 9-3.4M57.6 25.2l-.05-.05.05.1zm-8.4 2.5q2.2-.5 3.55-1.4-2-1.1-4.8-1.65l.4.3.45.8-.1.9-.1.05-.15.3-.65.65-1.15.5zm-5.45 1.1.3-.1-.2.05zM24 13.35q-.45.25-.8-.35l-.15-.35-.35-.2-1.05-.45-1-.55q-.5-.6-.35-1.2.1-.65.7-1l1.15-.1q1.35.25 1.9 1.4l.25.85-.15.7.1.65zM14.8 2l-.05.6V3l1-.1.75.05-.05.15L16 4.3l-.25-.05h-1.1l.05.9-.05.95-.55.25-.5.15-.2.1-.25-.3-.1-.1v-.15l.2-1.7V4.2l-1.65-.05h-.1l-.1-.2-.05-.6.35-.05 1.65-.15V1.9l.75-.4h.05l.15.25zm-.5 23.1q-2.25.9-3.15 1.95-.9 1-.35 1.7.25.3.95.5l3 .65-.4-.55q-.5-.8-.05-1.9.3-.85 1.3-1.55 1.25-.95 3.75-1.8 3.75-1.2 10.1-2.5h.1q-8.7.9-15.25 3.5m14.9-.6 4.75-.55-.45-.05-.25-.15.05-.05q-5.85.7-11.25 3.05H22l-.1.6v.35l1.95.65-.15-.15-.2-.65q0-.65.3-.95l.55-.35.6-.25 2.1-.9.75-.2zm4.1-2.9.05.35 5.9-.25-.05-.25.1-.35-6.35.2z"/><path d="m16.5 2.95.1-.45.2-.4-1.65-.05L14.8 2l-.5-.25-.15-.25h-.05l-.75.4q-.4.15-.65.25l-1.1.25-.45-.05.05.1.15.9.05.6.1.2.05.2.5.8.4.45.6.6.1.1.25.3.2-.1.5-.15.55-.25.25-.3L16 4.3l.45-1.2zM9.45 1.1q.1-.45.75-.45l1.55.15L13 .4q.5-.35.95-.4.45 0 .7.25l.35.1q.8.3 2.3 0l.9-.05.4.45.05.4-.1.9-.8 2.65-.4.75-.9 1.3-.65.65-.35.45-1.35.6-.7-.15-.15-.15-.4-.15-.8-.6q-1-.55-1.3-1l-.4-.6q-.65-.7-.75-1.15v-.5l-.15-.45-.05-.55-.2-.5v-.7l.15-.5.15-.15zM5.9 2.45q.2-.4.6-.3.4 0 .6.45l.15.8v.25l.55.15q.5.3.4.85 0 .5-.55.75l-.5.1-.1.65q-.15.4-.65.4t-.7-.35-.1-1.1h-.05l-.3-.05-.45-.3q-.1-.35.1-.5l.35-.3.5-.15v-.6q0-.5.15-.75M40.25 8.95q.1.65.6 1.15t1.15.6l1.3-.15.95-.85q.35-.5.3-1.2 0-.7-.4-1.25-.7-.8-1.55-.85-.95-.1-1.65.55-.85.8-.7 2M26.4 14.5q-.5-1.35-.5-3l.1-1.45-.05-.1-.3-.65-.45-.65-.55-1.05q-.35-.9-.15-1.55.25-.5.6-.7l.85-.25 3.75-.5q1.7-1.1 4.05-1.55l3-.3 2.2.3 1.2.3 1.3-1q1.1-.55 1.65-.6 1-.2 1.5.7l.15.55.35 1.9.1 1.55 1.15 2.1q.45 1.2.45 2.95 0 1.65-.5 3-.55 1.45-1.7 2.6-1.45 1.45-3.25 2.2.7 1.5 1.35 4.75l.25 1.35q.1 1.4-1.15 2.15l-1.8.95-.9.3-4.4.1q-2.4-.3-3.55-1.15l-.2-.2q-1.3-.75-1.2-2.15l.25-1.35.05-.05-.05-.1-.35-.65-.75-1.15q-.65-.65-1.55-.5l-.65.2-.2.25v.25q.1 1.15-.75 1.85-.85.75-1.9.5-1.15-.35-1.45-1.4-.15-.4-.15-1.25l.2-.9q.1-.4.6-.9l.8-.95q1.1-.95 2.6-1.1 1.3-.15 2.4.35.8.4 1.2.75l.55.55.35.6.4-1.1q-1.8-.75-3.25-2.2-1.15-1.15-1.7-2.6m8.2-3.05q-.3.35-.4 1.15 0 .85.15 1.1l.5.55q.95.7 1.95.2.65-.25.95-.7l.35.2 1.5.15q.75-.35 1-1.1v-1.25l-.25-.7q-.3-.4-.65-.35-.55 0-.55.45l.45.6q.1.6-.4.9l-.95-.05-.2-.15-.1-.2q-.2-.3-.55-.15l-.25.45-.6.8q-.5.25-.95 0-.35-.2-.4-.6-.1-.4.1-.75l.2-.55-.45-.25q-.2 0-.45.25m-5.95-.65q-.2.6.05 1.25.2.65.7 1.05 1.15.9 2.45.2l.85-.95q.3-.65.2-1.3-.1-.7-.7-1.25-.55-.5-1.3-.6-.75-.05-1.4.45-.6.45-.85 1.15"/><path fill="#fff" d="M40.25 8.95q-.15-1.2.7-2 .7-.65 1.65-.55.85.05 1.55.85.4.55.4 1.25.05.7-.3 1.2l-.95.85-1.3.15q-.65-.1-1.15-.6t-.6-1.15m-11.6 1.85q.25-.7.85-1.15.65-.5 1.4-.45.75.1 1.3.6.6.55.7 1.25.1.65-.2 1.3l-.85.95q-1.3.7-2.45-.2-.5-.4-.7-1.05-.25-.65-.05-1.25m5.95.65q.25-.25.45-.25l.45.25-.2.55q-.2.35-.1.75.05.4.4.6.45.25.95 0l.6-.8.25-.45q.35-.15.55.15l.1.2.2.15.95.05q.5-.3.4-.9l-.45-.6q0-.45.55-.45.35-.05.65.35l.25.7V13q-.25.75-1 1.1l-1.5-.15-.35-.2q-.3.45-.95.7-1 .5-1.95-.2l-.5-.55q-.15-.25-.15-1.1.1-.8.4-1.15"/></g></svg>