<svg xmlns="http://www.w3.org/2000/svg" xmlns:ffdec="https://www.free-decompiler.com/flash" ffdec:objectType="shape" width="75.55" height="41.6"><g fill-rule="evenodd"><path fill="#999" d="M63.55 20.7q-.7-2.15-.4-3.4v-.2l-.05-.85.15-.6v-.45l.6-2.8.15-.5.35-.4q.5-.55 1.05-.55.6-.05 1.4.75l.4.35q1.05-.45 2.4-.5l1.95.25 1.2-1.3.5-.35.7-.25q.95.1 1.35.8l.25.5v10.5q-.9 1.4-2.35 2.1l-.85.45-.15 1.5q-.2 1.2.05 2l.5 1.4.55.35.25.15.2-.9-.05-1.05q0-2 1.2-3.7l.65-.65v7.5l-.75.9-.15.15.05.8-.3 1.15-.1.4-1 .95q-.75.6-1.35.65h-.3l-1.35.3-1.8-.05h-.1l-.9.15-1.15-.1-.7-.25q-.45-.1-1.2-.7l-.55-.45-.3-.5-.45-1.25.15-1.1q.2-.8.55-1.2.35-.6 1.15-.85l.6-2.8q.35-1.2 1.4-2.95l-1.5-.75L64 21.9zm-59.8-9.25 1.95.25 1.2-1.3.5-.35.7-.25q.95.1 1.35.8l.25.5.75 2.35.25 1.8v.65l.2 1.35q.15 2-.85 3.75-.95 1.85-2.7 2.7-.45.25-.85.45l-.15 1.5q-.2 1.2.05 2l.5 1.4.55.35.25.15.2-.9-.05-1.05q0-2 1.2-3.7l.7-.7q.5-.3 1.35-.3 1.35-.1 1.9.4.65-.95 1.9-.75.75.15 1.25 1 .4.7.3 1.6-.3 1.45-1.8 2-1.55.45-2.75-.55-.6-.4-.75-.35-.3.05-.45.45-.6 1.55-.65 2.35L9.9 30.2l-.95 1.45-.15.15.05.8-.3 1.15-.1.4-1 .95-1.35.65h-.3l-1.35.3-1.8-.05h-.1l-.9.15-1.15-.1-.5-.15v-9.65L1.15 24 0 23.45v-12.5q.4.15.9.65l.45.35q1.05-.45 2.4-.5"/><path d="M26.75 23.85q-2.05-2.45-2.4-5.4l-.05-1.85v-1.15q.1-1.45.35-2.75l.7-3.15.2-1.65.5-2 1.65-4.15.95-1.75h4.95l.45 1.25.45 1.5q2.6-.9 5.85-.8l3.8.6 1.1.4L47.85.8l1.2-.8h3.35l.45.75.2 1.5.2 1.2q.65 2.45.8 6.9l-.25 3.35v2.2q-.2 3.8-2 6.9-1.65 2.85-4.1 4.2l-.1.05.75.25q1 .4 1.9 1.15 2.8 1.9 3.25 3.55l.15 1.7-.15 1.75-.95 1.8-1.75 1.55-3 1.25-.4.15.2 1.2.05.2h-22.6l.2-.7-.75-.1-1.6-.5-1.9-1.55-1.1-1.45q-.95-1.75-.05-4.45l.5-1.4 1.15-1.7q.9-1.1 2.2-1.95 1.8-1.15 4.65-2l.3-.05zm22.5 10.25.15-.5q-.05-.75-.95-1.6-1.7-1.8-4.15-2.9l-.2-.05.45 1.1.7 2.65.75.05.7.2.55.2.6.2.7.4.55.4zM28.3 30.5q-2.45 1.55-2.95 3.9l.25-.2 1.4-.7.6-.15h.5l1.75-3.55z"/><path d="m59.55 19.95-.35.3-.25.15-.35-.05H58l-.35.2-1.05.8q-.2.6-.2 2.55l.35.35.9.25.3.1.3.05.65-.2.65-.5q.4-.45.15-1.1l-.65.1-.35.65-.45.3H58q-.95-.1-1.05-1v-.6l.4-.75q.4-.5 1.2-.65l.2-.05.65-.05.9.1.8.5.15.1.3.3.15.45.1 1.2-.05.7-.35.9q-.7 1.05-1.8 1.7l-.9.25-1.95-.2-.8-.2-.45-.35-.6-.6-.85-1.35.15-.45.05-.45.05-1.25v-.1l.2-1.15.8-1.05.7-.65.5-.2 1.9-.25q.9.1 1.15.65zm-27.45-7.4q-.2-.65-.05-1.3.35-.95 1.25-.85l.75.45.6.55 1.35.65 3.6.45q1.25-.2 2.25-.8 1.5-.7 2.2-1.55l.75-.95.95-.8q.65-.2 1.35 0 .65.25 1.05.85.75 1.25.05 2.6l-.2.35-1.2 1.2q-1.65 1.5-3.15 2.05l-.5.2-1.8.4-2.5.55-2.15-.4-.65-.25-.8-.3-1.1-.65-1.2-1.05-.7-1.1zm-13.9.6q.15-.55.45-.75l.7-.2q1.85 0 2.95 1.4l.45.75.15 1.2-.1 2-.3.8-.8 1.45-.7.65-.8.55-1.9.3-1.15-.05-1.2-.9q-.8-.65-.9-1.05v-.5l-.05-.25.4-1.65.1-.45.1-.1.55-.85q.8-.75 2.15-.6l.9.15.75.65.35.9v.45l-.5.4q-.6.4-1-.15l-.15-.25-.25-.05-.65.05-.5.5-.1.4-.05.3.2.15q.55.4 1.4.4.75 0 1.25-.55l.2-.25.25-.65.05-.1.35-1.35q.15-1-.65-1.35l-.85-.25q-.55-.05-.8-.3-.4-.4-.3-.85m16.95 22.7q-.05-.6.75-.8l1.1.1-.6-.9-.3-1 .3-.4.45-.1.45.45 1.35 2.5q.1.45-.2.75-.2.3-.75.3l-.75-.2q-.1.35.4 1.5.35 1-.25 1.35l-.85-.1-.5-.75-.35-2.05z"/><path fill="#999" d="m56.5 19 .5-.45.6-.35q1.75-.8 2.7-.95l3.3.2 1.05.25.6.15q.35.25.2.6l-.45.3-.55-.05q-1.7-.25-4.35 1l-.55.25v-.55q-.25-.55-1.15-.65zm2.45 1.4-.4.5q-.8.15-1.2.65l-.4.75v.6q.1.9 1.05 1h.25l.45-.3.35-.65.65-.1q.25.65-.15 1.1l-.65.5-.65.2-.3-.05-.3-.1-.9-.25-.35-.35q0-1.95.2-2.55l1.05-.8.35-.2h.6zm-.2.45.5-.4.45-.2 2.25-.5.6.15q.25.3.15.55l-.3.45-.6.25-.55.35-.15-.1-.8-.5-.9-.1zm-43.7-2.05-.55-.15-.5-.05-.85.2h-.35l-.2-.2.1-.2q.3-.45.75-.75v-.1q.25-.3 1.25-.6l.7-.05-.4 1.65zm.55-2.45-.35-.05-2.2.45-2.35 1.15-1.85 1.4q-.25.3-.4 0v-.1q.15-.65.5-1.15l1.35-1.2.7-.8 1.9-1.45q2.15-1.55 3.85-1.6l1.45.15q-.1.45.3.85.25.25.8.3l.85.25q.8.35.65 1.35l-.35 1.35-.05.1-.25.65-.2.25q-.5.55-1.25.55-.85 0-1.4-.4l-.2-.15.05-.3.1-.4.5-.5.65-.05.25.05.15.25q.4.55 1 .15l.5-.4v-.45l-.35-.9-.75-.65-.9-.15q-1.35-.15-2.15.6z"/><path fill="#fff" d="M48 12.2q1.8.3 2.85 1.9 1.1 2 .2 4-1.15 2.15-3.3 2.3-1.25.2-2.5-.45-1.1-.6-1.75-1.85l-.3-.75-.1-.9q-.05-.45.05-.8l.5-.2q1.5-.55 3.15-2.05zm-11.95 3.75-.15 1.95q-.4 1.1-1.25 1.85-.95.75-2.1.9-1.25.15-2.3-.35t-1.7-1.5q-.65-1.05-.65-2.2 0-1.2.65-2.2.65-1.05 1.7-1.5l.85-.3 1-.05.15.3.7 1.1 1.2 1.05 1.1.65zm1.55 7.7-2.3.7-.7.05-1.3-.3-.95-.4-.75-.55q-.6-.55-.65-1.05l.3-.35.4-.05.4.3 1.05.3 1.4.05.8-.25 1.95-.95.75-.85.4-.65q.2-.2.4-.25.4-.45 1.05-.45 1.1 0 1.55 1.15l.35.9.3.25.35.4.45.15 2.2.25 1-.1.6-.25.5.3q.2.25.05.6l-.3.25-1.2.45-2.5.4-.85-.05-1-.2-.75-.3-1.25-.85zm-5.05 17.5-.35-.6-.1-.7q0-1.3.15-1.95l.3-1.35q-.1-1.5.05-2.3l.1-.8v-.95q0-.45.35-.8l1.3-.25.95.05-.05-.3q0-.85.7-1.15l1.15-.25 1.3.2q.75.35.75 1l-.1.45q.9.05 1.45.35.55.25.7.75l-.05.8-.2 6.55q-.15 1.3-.55 1.65l-.05.05H33.1l-.1-.05zm2.6-5.3.25.65.35 2.05.5.75.85.1q.6-.35.25-1.35-.5-1.15-.4-1.5l.75.2q.55 0 .75-.3.3-.3.2-.75l-1.35-2.5-.45-.45-.45.1-.3.4.3 1 .6.9-1.1-.1q-.8.2-.75.8"/></g></svg>