<svg xmlns="http://www.w3.org/2000/svg" xmlns:ffdec="https://www.free-decompiler.com/flash" ffdec:objectType="shape" width="75.95" height="32.45"><g fill-rule="evenodd"><path fill="#999" d="M67.25 13.15q2.85-1.5 5.8-1.35 1.6.1 2.9.65V26.1h-.35v.4l.05.05v.3l.05.1v2.9l-.05.1v.1l-.05.05v.1l-.05.05v.1l-.05.1v.2l.05.05v.25l-.05.05v.15l-.05.05-.05.05v.1l-.05.05-.05.05v.05l-.1.1-.05.05-.1.05-.1.1-.1.05-.15.05-.15.05h-1.2l-.2-.05h-.25l-2.75.05h-.9l-6.05-.05H46.95l-3-.05h-5.8l-.5.05h-.3l-.45.05h-1.5l-2.8.05h-1.95l-2.1-.05H25l-1.8-.05H20l-.35-.05h-.45l-.55-.05h-.8l-1 .3q-1.15.1-1.75-.95l-.4-1.4q-.1-1.8.1-3.05.1-.9.5-1.35l.1-.1q.3-.3.75-.5 1.65-.95 3.95-2.2h.05l1.1-.8 3.85-2.05q1.1-.6 1.7-.65l1.9.3.25-.05q2-.3 2.35-3.1.95-1.5 2.2-2.8h.05q1.7-2.35 3.95-4.4 4.25-3.8 9.55-5.9l.35-.05.2.2-.2.2-1.75.8q-.9.45-1.85 1.15l-1.15 1-3.8 3.45q-2 2-3.25 3.9l-.5.85.35.05.55.2.2-.35.45-.7.65-.9q1.05-1.3 3.85-3.9l1.75-1.6q.2-.2.35-.1.3.1-.05.4l-1.55 1.75-1.5 2.05-1 1.55q-.8 1.1-1.15 1.95l-.25.75 1 .55.2.1 1.1-.45 3.5-.5 2.75-.2.55-.75q1.55-1.75 3.05-2.5 2.05-1.05 3.95-.6.95.3 1.95 1.05L57 13.5l.2-.05.15-.05 2.95-.3 1.3.1 1.5.3 1 .45.9.6zM29.65 7.9q4.45-3.6 9.6-6.4l.2-.1.15.15-.15.2Q34 5.6 29.3 10.1l.1-.35.15-.2.15-.5zm-2.3 4.1-1.15 1.15-.05.05-.4.6-.3.3-.65.6-2.3 2.2-.25.25-2.15 2.55-1.1 1.1-.1.1-.15.2-.4.3-.3-.2-.1-.4q.05-.6.45-1.2l.85-1.1q-.85.4-1.6-.2-.75-.55-.5-1.45l.25-.6.05-1.4.2-1.2.05-.8-.15-.4q-.1-.45.25-.85l.5-.35q-.2-.25-.1-.5.1-.45 1-.75l1.75-.3 1.6.25.8.35 1.2-1.1v.05l.05.25q0 .6.3 1.1l.15.15-.4.4.45.4.15.15.5-.45.35.15.2.05.7.35zm1.05-5.55.35-.25 2.05-1.35 1.05-.65q.6-.35.8-.25l-.2.35-.85.6-2.5 1.95-.65-.4zm-6.45 5.35.05.25h-.05l-.7.55v.4l.35.25.5-.15.15-.1.05.15.35.1q.35 0 .2-.25l-.05-.25v-.15l-.05-.05.1-.1.35-.1.25-.3-.25-.3-.15.05-.5.1h-.05l-.15-.25-.15-.15-.2.1zm13.4 7.85q1.3.3 2.05-.8t.15-2.2q-.4-.8-1.2-.95l-.4.05-1.45.1-.6.1q-.6.1-.7.4l.15.7.55.9v.15q.25 1.3 1.45 1.55M4.1 12.85l1.75.25q.8.15 1.4.6.7.7.55 1.35l-.15.6.1.55v1.05l-.3 1.05q-.2.95-.25 2.9l.05.85.3.55.85 2 1.1 5.05-.05 1.45-.9 1-1.4.35-2.8-.25-1.85.05q-1 0-1.7-.6Q.15 31 .15 29.3L0 18.9l.45-3.05.05-.3-.25-.75q-.1-.8.4-1.3.5-.55 1.55-.55l.9.15zm19.5 9.55-.15-.3q-.05-.15-.25-.15l-.15.05-.2.2-.1.5h-.15l-.45.15q-.45.3-.3.7l.3.3.4.05.3-.15.05.1.15.2.35.1.3-.3.05-.15-.05-.15.05-.2.3-.15.35-.25-.05-.35-.4-.1-.3.05zm2.55-.4q-.2.35-.3 1.15-.1.75.15 1.35.5 1.15 1.75 1.3l1.2-.1.9-.65q.75-.8.85-1.5.2-.85-.3-1.65l-.1-.35-.5-1.05q-.3-.65-.75-.7-.35-.05-1 .5l-1.1.7-.2.35zm6.6-1.2.55-.2.35-.25.05-.45q-.15-.55-.8-.45l-.55.15-.1-.35-.25-.3q-.2-.05-.35.2l-.05.4v.5l-.65.3-.1.35q.1.5.65.5h.15l.15.3q.15.2.45.2l.4-.25z"/><path d="m61.55 4.7-.4-.1-.25-.25-.1-.45.05-.15q.15-.25.55-.25v-.05q.55.1.7.55l.05.2-.05.2-.25.25zm2.7 1.5-.15.3-.25.2-.25.1-.3-.1-.25-.2-.1-.35.2-.5q.15-.15.45-.15v-.05l.3.1.1.1.15.1.1.3zM55.5.95l.05.3-.2.4-.4.2-.6-.05-.15-.1-.35-.1-.4-.2-.15-.25.05-.5.3-.2h.7l.35.1h.1q.55.05.7.4M51.2.3q.25.25.1.65v.15l-.25.25-1.05.2-.85-.25q-.25-.15-.25-.5l.3-.5.5-.2.45-.1h.3l.35.05zM58 1.7l.05-.05q.25 0 .4.15l.25.3.15.4-.1.25-.2.3-.55.05q-.3-.05-.5-.3l-.15-.55.2-.4q.15-.15.45-.15M45.95.2h.2l.15-.05.6-.05q.4 0 .55.25l.15.5v.1l-.25.65-.7.4-.45.15-.45.25q-.7.15-.95-.45l-.1-.45-.05-.35q.1-.35.45-.6l.3-.1q.2-.2.55-.25m-2.8 1.65q.55.15.75.65t-.15.9l-.7.5-.35.15-.35.3-.7.4-.35.1-.15.05q-.5.1-.8-.3L40 3.95q-.1-.45.05-.7l.4-.45.75-.45q.5-.3.8-.35zM32.05 9.2q.65-.55 1.1-.65.5-.1 1 .25.45.3.5.75.05.85-1.05 1.75l-.25.25-.15.1-.95 1.2q-.7.7-1.4.4l-.15-.1-.4-.15q-.5-.25-.5-.75 0-.35.45-.85l.2-.15zm4.75-3.9.95-.7q.75-.15 1.1.3.5.45.2 1.05l-.2.3-.7.85-1.3.95-.65.3-.85-.15q-.4-.3-.3-.7-.15-.45.3-.75v-.1l.25-.25.55-.55.2-.05z"/><path fill="#fff" d="m29.3 10.1-.35 1.05-.4.8-.8.15-.4-.1-.35-.2-.7-.35-.2-.05-.35-.15-.7-.5-.15-.15q-.3-.5-.3-1.1l-.05-.25V9.2l.05-.3q.1-.6.55-1.15l.35-.4.2-.4.3-.3.65-.35.65-.05.65.05.45.15h.05l.65.4.15.15.4.9.05 1.15-.15.5-.15.2zm-7.35 1.7.05-.2.2-.1.15.15.15.25h.05l.5-.1.15-.05.25.3-.25.3-.35.1-.1.1.05.05v.15l.05.25q.15.25-.2.25l-.35-.1-.05-.15-.15.1-.5.15-.35-.25v-.4l.7-.55H22zm13.4 7.85q-1.2-.25-1.45-1.55v-.15l-.55-.9-.15-.7q.1-.3.7-.4l.6-.1 1.45-.1.4-.05q.8.15 1.2.95.6 1.1-.15 2.2t-2.05.8m-2.6 1.15-.1.65-.4.25q-.3 0-.45-.2l-.15-.3h-.15q-.55 0-.65-.5l.1-.35.65-.3v-.5l.05-.4q.15-.25.35-.2l.25.3.1.35.55-.15q.65-.1.8.45l-.05.45-.35.25zm-6.6 1.2.6-.65.2-.35 1.1-.7q.65-.55 1-.5.45.05.75.7l.5 1.05.1.35q.5.8.3 1.65-.1.7-.85 1.5l-.9.65-1.2.1q-1.25-.15-1.75-1.3-.25-.6-.15-1.35.1-.8.3-1.15m-2.55.4.05.15.3-.05.4.1.05.35-.35.25-.3.15-.05.2.05.15-.05.15-.3.3-.35-.1-.15-.2-.05-.1-.3.15-.4-.05-.3-.3q-.15-.4.3-.7l.45-.15h.15l.1-.5.2-.2.15-.05q.2 0 .25.15z"/><path d="m65.15 8.55.1-.15q-.3-.3-.25-.75l.2-.5.3-.2.8-.05.3.25.2.5.25.1h.05l.2.05.4.3h.1l.85-.1.5.3q.4.4.15.95l-.35.45-.55.15h-.1l-.1.2q-.25.5-.8.65l-.05.05v.05l.2.7.95-.8.15-.05.45.2.2.35h.1l.6-.7.25-.25.2.05.1.1-.1.1v.15l-.35.45-.1.1h-.05l-.05.1-.1.05-.4.5h-.45l-.25-.3-1.4 1.25-.15.1-1.1.35q-.75-.1-1.25-.5-.5-.5-.5-1.25.1-.65.75-1.15l.2-.15-.3-.65.15-.8V8.7zm-39.3.8q-.3 0-.45-.25-.15-.3 0-.55l.5-.3.45-.25.3-.5.35-.55q.3-.3.65 0 .4.3.2.65l.6-.25.6.2-.05.8-.7.45.2.7q0 .45-.35.6l-.4.05-.45-.05q-.25.05-.75.45l-.75.2q-.4-.15-.3-.7zM20 15.45v1.2l4.1-2.8q1.1-.95 1.85-1.2 1.7-.65 3.3.5 1.2.9 1.35 2.5.15 1.55-1.15 2.5l-1.4.35q-.75 0-1.35-.45l-11.05 6 .2.7 2.05 7.35H8.65l-.05-.25q-.55-4.2-.65-7.35-2.6-.85-3.9-3l-.7-2.1q-.35-2 0-3.75l-.1-.7-.4-4.15q0-1.05.25-1.45.25-.45.75-.6l.95-.05.7.45 1.05.8.5-.35Q8.7 8.35 11.6 8.05l2.35.1H14l.8-.75.85-.4 1 .25q.45.25.6.9l.6 2.55L19 12.4l.25.45-.15-.05-1.2-.2-.05.35-.1.5-.45.9-.25.3-.75.7q.3.9 1.25 1.15l1.65-.15zm15 .85q.35-.2.75.2l.25.15q.25.1.7-.35.4 0 .45.3l-.1.5-.3.4.2.4.2.35-.25.35-.5.05-.5-.1-.25.4q-.3.5-.75.4l-.2-.55v-.35l-.45-.15q-.25-.2-.2-.45.1-.25.35-.35.25 0 .3-.15l.05-.25.05-.45zm-19.95 1.55-.75.6q-.5.65-1.25.85-.65.15-.75.35-.2.35.15.6l.6.2q.85 0 1.95-1.05l.3-.15h.3q1.4.25 1.9-.35l.25-.6q0-.5-.5-.5-.15 0-.35.15-.6.25-1.15 0zm-4.3 1.1q.75-.1 1.25-.75t.6-1.4l-.05-.65q-.7-.15-1.65-.7l-.75-.6-.15-.4-.55.15q-.75.3-1.15.95-.35.7-.2 1.5.1.75.65 1.35.8.8 2 .55M3.85 31q-.05-.65.35-1.2t1.05-.7l1.25.1q.6.3.85.9l.3 2H4.2zm24.6-6.6q-.2 0-.3.2l-.6.45-.75-.15q-.2-.3 0-.75l.4-.75.05-.2-.25-.15q-.2-.05-.2-.3-.05-.2.05-.35.3-.3.75-.2l.4-.7q.25-.25.6-.15.4.2.4.85h.65l.45.45-.3.5-.45.35.3.65-.3.65q-.4.15-.7-.25z"/><path fill="#fff" d="m19.25 12.85.85 1q.25.7-.05 1.4l-.05.2-.8.9-1.65.15q-.95-.25-1.25-1.15l.75-.7.25-.3.45-.9.1-.5.05-.35 1.2.2zm-8.5 6.1q-1.2.25-2-.55-.55-.6-.65-1.35-.15-.8.2-1.5.4-.65 1.15-.95l.55-.15.15.4.75.6q.95.55 1.65.7l.05.65q-.1.75-.6 1.4t-1.25.75m4.3-1.1.7.1q.55.25 1.15 0 .2-.15.35-.15.5 0 .5.5l-.25.6q-.5.6-1.9.35h-.3l-.3.15q-1.1 1.05-1.95 1.05l-.6-.2q-.35-.25-.15-.6.1-.2.75-.35.75-.2 1.25-.85z"/><path fill="#999" d="m67.45 4-.05-.35v-.3l-.15-.3v-.3q.15-.5.7-.6l.5.25.2.55-.1.3-.05.35-.25.9-.3.3-.25-.15zm0 2.4L67.3 6l.05-.1q0-.3.35-.4.3-.05.55.2l.1.35-.1.3-.1.1-.2.1z"/></g></svg>