<svg xmlns="http://www.w3.org/2000/svg" xmlns:ffdec="https://www.free-decompiler.com/flash" ffdec:objectType="shape" width="76.45" height="36.5"><g fill-rule="evenodd"><path fill="#999" d="M61.7 17.5q3.5-2 7.15-1.8 4.05.35 6.65 3l.15.15.15.05.1.1.1.15.05.1.05.1.05.1.05.1.05.1.05.1.05.1v1.35l.05.1v.5l.05.1v2.2l-.05.1v.9l.05.1v1.05l-.05.1v1.25l.05.1v4.45l-.05.1v.1l-.05.1v.1l-.05.1-.1.1-.05.1-.05.1-.15.1-.05.05v.4l-.05.1-.05.1-.05.1-.05.1-.05.1-.1.1-.05.1-.15.1-.1.1-.2.1-.15.1h-.1l-.35.05-1.1.05H65.3l-1.5-.05h-8.65l-7.75-.05h-1.45l-1.05-.05-1.1-.05h-1l-.9-.05-3.65-.05-7.35-.05H14l-.4.6-.7 1.25q-.4.4-1.05.3-.6-.05-.9-.5-.4-.5-.2-1.2l-.05-.15q-.2-.45.25-1.45l6.65-11.75q.75-1.3 1.25-1.65l.1-.05q2.55-4.2 6.2-7.75 5.2-5.05 11.7-7.85l.45-.1q.35 0 .25.3l-.25.25-2.15 1.1-2.3 1.5-1.4 1.3-4.65 4.6q-2.45 2.7-4 5.2l-.65 1.15.45.05.65.25.25-.45.6-.95.8-1.15q1.25-1.75 4.7-5.2l2.15-2.15q.25-.25.45-.15.35.15-.05.55l-1.9 2.35-1.85 2.7-1.25 2.05q-1 1.5-1.4 2.65l-.35.95 1.25.75.25.15q.45-.35 1.35-.65l4.3-.65 3.4-.25.65-1q1.95-2.3 3.75-3.35 2.55-1.4 4.85-.75 1.2.4 2.45 1.4l1.45 1.35.25-.05.15-.05 3.65-.4 1.6.15 1.85.4 1.2.55 1.15.85zm-61 .65q.2-.7.1-1.05l-.2-.55q-.15-.55.3-1.1l.6-.45-.1-.7q.1-.55 1.2-1l2.15-.4 2 .35.95.5 2.8-2.65 3.85-2.85q1.55-1.2 2.55-1.8l1.3-.85q.7-.45.95-.3l-.25.45-1.05.8-4.8 4.2-2.5 2.7-1.2 1.4.5.5.2.25q7.7-7.95 17.2-13.6l.3-.1.15.15-.15.3Q18.6 9.15 11.2 17.5l-.05.1-.45.75-.4.4-.8.85-2.8 2.9-.35.35-2.6 3.35-1.35 1.5-.15.1-.2.25-.45.4q-.2.05-.4-.25l-.1-.5.55-1.6 1.05-1.45q-1.05.5-2-.3-.9-.75-.6-1.9l.3-.85.1-1.8z"/><path d="M54.45 4.95V4.9l.3.1.25.2v.25l-.05.3-.15.2-.45.1-.2-.1L54 5.8l-.1-.15v-.4l.25-.25zm-7.2-3.65.05.35-.2.55-.55.25-.7-.05-.2-.1-.45-.15-.45-.3-.2-.3q-.1-.35.05-.65l.4-.25.85-.05.45.15h.1q.7.1.85.55m3.1.95.05-.05.5.2.3.4.15.55-.1.35-.25.35-.7.1-.6-.4q-.25-.35-.2-.75l.25-.55zM41.95.4q.35.35.15.9v.15l-.3.35-1.3.3q-.7 0-1.05-.35-.3-.2-.3-.65.1-.45.35-.65l.65-.3.5-.1h.1l.3-.05.4.1zm-7.2.3q.3-.35.75-.4l.45.05L36 .3l1.05.15.5.8q.1.5-.3.9l-.85.5-.8.3-.65.15-.7-.45q-.15-.25-.15-.85l.2-.5.3-.3zM28.85 4q.7-.8 1.7-1.25.9-.45 1.55-.25t.9.85-.2 1.2l-.85.65-1.9.7-.9.1-.75-.4q-.25-.4-.05-.85zm-5.4 3.9.8-.85 1.2-.9q.9-.2 1.35.4.6.6.25 1.35l-.25.4-.9 1.15-1.55 1.25-.8.45-1.05-.2q-.5-.4-.4-1.05l.7-1 .4-.4zm-5 4.35 1.3-.85q.65-.15 1.25.3.55.4.6 1.05.1 1.1-1.3 2.3l-1.4 1.15-.55 1.05-.85.3-1.2-.25q-.65-.35-.65-1 0-.45.55-1.1l.25-.25q.85-1.5 2-2.7M9.7 27.05q-.6.1-1.1-.4-.45-.45-.45-1.15-.15-.45 0-.95l.5-.8.5-.55 3.1-4.3.7-.65q.95-.65 1.85 0 .95.6.7 1.7l-.5 1-.7.9-1.3 1.5-2.05 2.95q-.6.7-1.25.75m-2.5 5-1.05 2.1-.65.85-.95.5-.85.1q-.45 0-1.05-.4l-.5-.6Q2 34.3 2 33.65l.05-.4q.05-.45.7-1.2l.9-1.7.9-1.35q.95-1.05 2.2-.75 1 .25 1.3 1.1.35.9-.15 1.7z"/><path fill="#999" d="m56.7 8.2-.05-.1.05-.1.15-.2.1-.1h.15q.2 0 .35.15l.1.15v.1l-.05.25-.2.2-.55-.15-.05-.1zm4.7 2 .5.8.15 1.5q-.2.8-1.15 1.15l-1.7.05-1.15-.75-.2-.65q-.1-.6.1-1.25.25-.6.75-.95.7-.4 1.75-.25.65.1.95.35"/></g></svg>