<svg xmlns="http://www.w3.org/2000/svg" xmlns:ffdec="https://www.free-decompiler.com/flash" ffdec:objectType="shape" width="76.6" height="42.2"><path fill="#999" fill-rule="evenodd" d="M.5.5h75.6v41.2H.5zm8.65 22q-1-1.4-1.15-2.05-.15-.6-.15-1.25 0-1.4.5-2.35.4-.75 1.45-1.6l.4-.3q.35-.2 1.1 0 1.3.2 1.9.65l1.05 1.2.55.95.3 1.4-.35 1.85-.75 2.05-.45.5-.3.45-.95.1-1.85-.35-.4-.15-.4-.4zm10.75-.8.1-.35 3.1.4 1.8.1 1.4.2h.6l.45.1.2-.1v-.25l-2.6-.95-2.9-1.15-1.75-.9-.15-1.85Q24 19.2 26.85 20l.4-.05q.25-.2-.2-.65l-7.8-6.65-3.8-2.75-.3-.2 3 .55 1.35.5 1.35.4H21q.15-.15-.05-.15l-1.9-1.65-1.3-1.05q-1.45-.9-4.2-1.3l-2.25-.1q-4.95.2-8.8 5.05-.9 1.05-1.2 2-.25.8-.25 2.5.1 2.5.45 3.7l.3.7q.2 1.7.9 3.1.25.6 1.4 2.2l1.8 2q1.7 1.45 4.15 1.65l3.15-.35 11.3-.95q.45 0 .35-.25l-.2-.1-2.5-.25-2.5-.15-3.1-.3q2.35-2.1 3.35-5.75m16.4 2.5-1.4-.6q-.9-.7-1.25-2.05l-.35-2.4q-.2-1.1-.7-1.4-.7-.4-1.4.3-.5.55-.65 1.4-.5 1.9-.25 3.7.3 2 1.4 3.35 1.5 1.8 3.95 2.35l4.6-.25 2.1-.85Q45.1 26 45.8 21.9q.3-2.05-.1-3.1-.65-1.8-2.15-2.1-.8-.15-1.55.3t-.85 1.2l.05 1.2q.35 2.35-.8 3.7-.7.85-1.85 1.1-1.1.3-2.25 0m18.55-1.5q.2 2.25 2.15 3.95l.45.4-3.1.15-3.65.2-.3.05-.1.3 8.95.95 1.85.15 2.9-.15 1-.35 1.3-.45q2.55-1.05 4.1-3.15.9-1.05 1.7-3.05l.7-2.45q.2-1.35.05-2.95l-.3-1.75q.3-2.5-1.75-5.45l-1.75-2.05Q66.8 5 63.75 4.85q-3.15-.1-5.5 1.65l-2.1 1.95-2.05 2.05-.3.45q-.1.4.2.45.2.1.5-.2 2.3-2.2 4.05-2.95 1.2-.55 2.45-.65l-.95.35q-1.95.8-3.25 2.35l-.55.7-.7.6q-1.45 1.35-3.95 4.45l-3.95 4.45q-.45.55-.25.8l.45.1.35-.3 6.3-5.45v1.8l-1.9 1.45-.6.55-.7.9-.3.15-.05.3q.1.2.45-.15l1.25-.5q.85-.2 2.1-1h.05l.05.45zm7.35.55-.6-.05-.75-.4-.65-.65-.2-.8-.65-1.55-.2-.4-.1-.6q-.1-1.25.1-2.3 1.2-.95 1.65-1.9v-.5l-.35-.1h-.15l.05-.1q.85-1.2 2.1-1.35l1.65.1q1.55.4 2.2 1.1l.45.75q.8 1.55.95 3l.05.9-.2.65-.6 1.4-1.55 1.8-.8.6q-.85.5-2.4.4"/><path fill="#fff" fill-rule="evenodd" d="M62.2 23.25q1.55.1 2.4-.4l.8-.6 1.55-1.8.6-1.4.2-.65-.05-.9q-.15-1.45-.95-3l-.45-.75q-.65-.7-2.2-1.1l-1.65-.1q-1.25.15-2.1 1.35l-.05.1h.15l.35.1v.5q-.45.95-1.65 1.9-.2 1.05-.1 2.3l.1.6.2.4.65 1.55.2.8.65.65.75.4zm-7.35-.55v-3.1l-.05-.45h-.05q-1.25.8-2.1 1l-1.25.5q-.35.35-.45.15l.05-.3.3-.15.7-.9.6-.55 1.9-1.45v-1.8l-6.3 5.45-.35.3-.45-.1q-.2-.25.25-.8l3.95-4.45q2.5-3.1 3.95-4.45l.7-.6.55-.7q1.3-1.55 3.25-2.35L61 7.6q-1.25.1-2.45.65Q56.8 9 54.5 11.2q-.3.3-.5.2-.3-.05-.2-.45l.3-.45 2.05-2.05 2.1-1.95q2.35-1.75 5.5-1.65 3.05.15 5.3 2.2L70.8 9.1q2.05 2.95 1.75 5.45l.3 1.75q.15 1.6-.05 2.95l-.7 2.45q-.8 2-1.7 3.05-1.55 2.1-4.1 3.15l-1.3.45-1 .35-2.9.15-1.85-.15-8.95-.95.1-.3.3-.05 3.65-.2 3.1-.15-.45-.4q-1.95-1.7-2.15-3.95M36.3 24.2q1.15.3 2.25 0 1.15-.25 1.85-1.1 1.15-1.35.8-3.7l-.05-1.2q.1-.75.85-1.2t1.55-.3q1.5.3 2.15 2.1.4 1.05.1 3.1-.7 4.1-3.45 5.85l-2.1.85-4.6.25q-2.45-.55-3.95-2.35-1.1-1.35-1.4-3.35-.25-1.8.25-3.7.15-.85.65-1.4.7-.7 1.4-.3.5.3.7 1.4l.35 2.4Q34 22.9 34.9 23.6zm-16.4-2.5q-1 3.65-3.35 5.75l3.1.3 2.5.15 2.5.25.2.1q.1.25-.35.25l-11.3.95-3.15.35q-2.45-.2-4.15-1.65l-1.8-2q-1.15-1.6-1.4-2.2-.7-1.4-.9-3.1l-.3-.7q-.35-1.2-.45-3.7 0-1.7.25-2.5.3-.95 1.2-2Q6.35 7.1 11.3 6.9l2.25.1q2.75.4 4.2 1.3l1.3 1.05 1.9 1.65q.2 0 .05.15h-.15l-1.35-.4-1.35-.5-3-.55.3.2 3.8 2.75 7.8 6.65q.45.45.2.65l-.4.05q-2.85-.8-6.7-3.05l.15 1.85 1.75.9 2.9 1.15 2.6.95v.25l-.2.1-.45-.1h-.6l-1.4-.2-1.8-.1-3.1-.4zm-10.75.8.5.7.4.4.4.15 1.85.35.95-.1.3-.45.45-.5.75-2.05.35-1.85-.3-1.4-.55-.95-1.05-1.2q-.6-.45-1.9-.65-.75-.2-1.1 0l-.4.3q-1.05.85-1.45 1.6-.5.95-.5 2.35 0 .65.15 1.25.15.65 1.15 2.05"/><path fill="none" stroke="#5f645e" stroke-linecap="round" stroke-linejoin="round" stroke-opacity=".498" d="M.5.5h75.6v41.2H.5z"/><path fill-rule="evenodd" d="m62.65 14.2-.1-.3-.7-.8q-.35-.3-.95-.3l-.05-.05-.6.15-.4.25-.25.3-.25.4-.1.35-.1.45.15.65.45.6.25.2.55.2.25.05q.75.1 1.35-.5l.2-.25.1-.05.2-.65zm3.65-.85.25-.6.05-.5-.15-.6-.4-.55-.35-.3-1.5-.15-.8.5q-.3.3-.45.95v.5l.1.45.35.5.35.3.75.3.4.05.7-.2.3-.2zm-27-5 1.05.05.4-.3 2.65-1.65q.8-.4 1.25-.45.7-.1 1.2.4l.35 1.1-.05 5.9.4 2.05q.15 1.9-.15 3.25-.3 1.7-1.35 2.95L43.1 23.3l1.85-.25 3.2-.4 1.9-.25 1.45-.4 3.3-.45 1.95-.1-.15-.6-.2-2.1-.2-1.6q-.15-2.45 1.1-4.5 1.2-2.1 3.4-3.1L62.25 9q2-.3 4.15.5 2.65 1.05 4.2 3.4 1.55 2.4 1.3 5.25l-.75 3-.85 1.9-1.15 1.3-1.55 1.25-.05.05q-.85.75-2.4 1.1l-2.6.4-2.05.05-7.85-.25-1.7-.2-1.15-.25-3.55-.4-.3-.05-4.35.15h-.2l.2.85.15.6.15.3h-.05l2.1 8.05q1.1-1.45 2.05-1.9.7-.4 2.05-.5l1.95.05q.65.2 1.45.7l1.4.9 1.7.7 1.25.1 1.1-.45q1.15-.65 1.2-1.6l-.2-1.25q-.05-.8.6-1.5.65-.55 1.55-.4 1.05.15 1.5 1.25.4.9.25 2.05-.25 2.35-2.1 3.8l-2.3 1.25-1.4.45-1.75-.15-1.5-.35-2.8-1.95q-.65-.65-1.05-.8l-1.1-.2-1.35.1q-.5.15-1.1.7l-.9 1 .25 1.8-.3 1.15H28.95q-.05-.8.35-1.9.65-1.95 1.65-4.15l1.1-2.7 1.7-3.85.8-1.8h-.6l-4.35.15-.3.05-3.5.65-1.15.35-1.65.3-7.8.75-2.1.1-2.65-.25Q8.9 28.4 8 27.7l-.05-.05-1.6-1.15-1.25-1.2q-.45-.55-.95-1.85-.8-1.85-.95-2.95-.45-2.8.95-5.3 1.4-2.45 3.95-3.7 2.1-.95 4.1-.75l1.65.45q2.25.85 3.6 2.9 1.35 1.95 1.35 4.4l-.1 1.6-.05 2.1-.1.6h1.95l3.3.25 1.5.3 1.9.1 3.2.2 2.25.15-.7-.4-1.55-1.25q-1-1.35-1.15-3.35-.05-1.4.4-3.5l.2-.75-.1-1.05-.15-3.95.1-1.2q.3-.8.65-1.05.45-.45 1.2-.35.25.05 1.5.8l1.45 1 .25.25q2.1-.75 4.55-.65m30.15 5.15-.65-.2h-.4l-.45.15-.4.25-.15.15-.1.15-.15.45-.05.6.1.3.15.3.1.15.25.2.9.35.6-.15.65-.5.15-.3.1-.5v-.4l-.05-.1v-.15l-.1-.1-.05-.1zm-5.5 2.5-.8.45-.6.65q-1.15 1.75-.35 3.35l1.25 1.35q1.25.95 2.55.75l.8-.2 1.5-1.1q.65-.85.5-1.75 0-2-1.8-3.1-1.45-.9-3.05-.4m-51.8 0 .05.7.25.6.1.05.2.25q.65.55 1.45.4l.25-.05.5-.25.25-.2.4-.65.05-.2.05-.45-.1-.45-.15-.35-.25-.35-.3-.3-.4-.2-.6-.1-.05.05q-.65 0-1 .35-.45.3-.6.85zm-1.2 1.85q-1.6-.4-3 .6-1.7 1.2-1.6 3.2-.05.9.65 1.7.55.55 1.55 1l.8.15q1.3.15 2.5-.9L13 22.2q.7-1.65-.55-3.35l-.65-.6zm-5.6-2.1-.45.55v.1l-.1.1v.15l-.05.1v.4l.15.5.2.3.3.25.35.2.6.1.45-.15.45-.25.2-.2.1-.15.15-.3.05-.3-.05-.6-.05-.15-.15-.3-.1-.15-.15-.15-.45-.2-.45-.15-.4.05-.35.1zm3.1-.35.45.4.3.2.7.15.4-.1.75-.35.3-.3.2-.3.1-.25.1-.45-.05-.5-.5-.9-.3-.2-.55-.25q-.75-.2-1.45.25l-.35.3-.35.6-.1.6.05.5zm23 .9q-.3.75.2 1.5.3.5.9.7t1.15 0l.9-.75.25-1.1q-.05-.6-.55-1.05-.45-.4-1.05-.5-.55-.05-1.1.3-.5.35-.7.9m12.8-1.5q-.65-.7-1.7-.45-1 .25-1.25 1.2-.35 1 .35 1.75.55.65 1.3.65 1 0 1.5-.8.55-.75.2-1.7zm-6 3.25q-.2 0-.65.45-.5.5-.95.35l-.45-.25-.05-.5v-.35l-.2.05q-.5.5-.25 1.2l.4.55q.9.8 1.65.25l.35-.2.6.15 1.7-.1q.85-.45.85-1.55l-.3-.6-.45-.05-.3.3-.05.45-.45.55-.65-.05q-.45-.65-.8-.65"/><path fill="#fff" fill-rule="evenodd" d="m66.3 13.35-.4.45-.3.2-.7.2-.4-.05-.75-.3-.35-.3-.35-.5-.1-.45v-.5q.15-.65.45-.95l.8-.5 1.5.15.35.3.4.55.15.6-.05.5zm-3.65.85v.7l-.2.65-.1.05-.2.25q-.6.6-1.35.5l-.25-.05-.55-.2-.25-.2-.45-.6-.15-.65.1-.45.1-.35.25-.4.25-.3.4-.25.6-.15.05.05q.6 0 .95.3l.7.8zm1.3 1.8q1.6-.5 3.05.4 1.8 1.1 1.8 3.1.15.9-.5 1.75l-1.5 1.1-.8.2q-1.3.2-2.55-.75l-1.25-1.35q-.8-1.6.35-3.35l.6-.65zm5.5-2.5.45.55.05.1.1.1v.15l.05.1v.4l-.1.5-.15.3-.65.5-.6.15-.9-.35-.25-.2-.1-.15-.15-.3-.1-.3.05-.6.15-.45.1-.15.15-.15.4-.25.45-.15h.4zm-31.2 4.55q.35 0 .8.65l.65.05.45-.55.05-.45.3-.3.45.05.3.6q0 1.1-.85 1.55l-1.7.1-.6-.15-.35.2q-.75.55-1.65-.25l-.4-.55q-.25-.7.25-1.2l.2-.05v.35l.05.5.45.25q.45.15.95-.35.45-.45.65-.45m6-3.25.4.65q.35.95-.2 1.7-.5.8-1.5.8-.75 0-1.3-.65-.7-.75-.35-1.75.25-.95 1.25-1.2 1.05-.25 1.7.45m-12.8 1.5q.2-.55.7-.9.55-.35 1.1-.3.6.1 1.05.5.5.45.55 1.05l-.25 1.1-.9.75q-.55.2-1.15 0t-.9-.7q-.5-.75-.2-1.5m-23-.9-.3-.6-.05-.5.1-.6.35-.6.35-.3q.7-.45 1.45-.25l.55.25.3.2.5.9.05.5-.1.45-.1.25-.2.3-.3.3-.75.35-.4.1-.7-.15-.3-.2zm-3.1.35.25-.15.35-.1.4-.05.45.15.45.2.15.15.1.15.15.3.05.15.05.6-.05.3-.15.3-.1.15-.2.2-.45.25-.45.15-.6-.1-.35-.2-.3-.25-.2-.3-.15-.5v-.4l.05-.1v-.15l.1-.1v-.1zm5.6 2.1.85.4.65.6q1.25 1.7.55 3.35l-1.15 1.4q-1.2 1.05-2.5.9l-.8-.15q-1-.45-1.55-1-.7-.8-.65-1.7-.1-2 1.6-3.2 1.4-1 3-.6m1.2-1.85.1-.3q.15-.55.6-.85.35-.35 1-.35l.05-.05.6.1.4.2.3.3.25.35.15.35.1.45-.05.45-.05.2-.4.65-.25.2-.5.25-.25.05q-.8.15-1.45-.4l-.2-.25-.1-.05-.25-.6z"/></svg>