<svg xmlns="http://www.w3.org/2000/svg" xmlns:ffdec="https://www.free-decompiler.com/flash" ffdec:objectType="shape" width="76.95" height="35.75"><g fill-rule="evenodd"><path fill="#767676" d="m70.6 10.05.6.05.85.05H74l2.4.1.55.5-.1.55-.8.65H71l-.85-.05-1.3-.5.15 1.05q.75 6.7.7 9.6 0 .9.15 1.3l.65.85q1.75 1.65 3.35 1.7l1.65-.05q1.05.1 1.25.7t-.35 1.15l-1.15.5q-2 .35-3.95-.5t-3.1-2.55q-.4-.5-.65-1.4l-.25-1.6-.65-11.45.2-1.5v-.3q0-.75.45-1.25.55-.5 1.2-.7 1.65-.6 3.35-.7L75 6.3l.75.1.35.6q-.05.45-.75.55l-2.25.15q-1.9.15-4.3 1.2 1.1 1 1.8 1.15m4.4 6.1h.75l.35.25-.1.35-.65.5q.75.55.8 1.25l-.1.85.1 1.05.05 2.85q0 1.15-.55 1.6l-.9.3-.95-.25-1.85-.8-.6-.4q-.5-.4-.65-1.05l-.3-2.8-.05-1.65v-.75l-.1-.9q.05-.25.45-.45l.65-.1 1.65.15 1 .15zM48.95 29.7l1.2-.2q3.9-.7 6.75-2l1.5-1q.65-.85.3-1.65-.45-.85-1.9-.95-1.65-.2-5 .1l-1.7.3-1.1.65 2.1.25 2.15-.15 4.4.3q-.05.45-.8.75-1.85.85-5 1.7l-4.25.95-6.6.5-8.05.15-3.65-.1-7.3-.9-3.15-.95q.65-.95 2.2-1.4l2.6-.6q.65-.2.7-.6 0-.35-.4-.55l-.75-.05q-2.95.35-4.75 1.75-.6.55-.85 1.05-.25.75.1 1.25.3.4 1.05.6 4.3 1.35 10.35 1.6l4.45.05 8.1-.1zm3.5-8.7 2.45.3 4 .85q1.6.35 2.65.85 1.65.75 1.7 2.05l-.2 1.1q-.6 1.25-1.8 2.05l-2.45 1.3-2.75 1-3.25.5-7 1.25-7.05 1-14.8-.8-2.2-.3q-2.15-.35-5.25-1.45l-.9-.35-.9-.55-1.35-.5q-.8-.5-.8-2.05 0-.8.2-1.15.25-.55.85-.95 1.3-.85 3.8-1.5 3.75-.9 10.45-1.65l2.5-.3 11.05-.95q6.05-.25 11.05.25M15.55 3.25l.55.5.3.45.1.45.05.75-.2.85-.45 1.15-.2.25-1 1-1.2.9-.1.15q.15.45-.1.85l-.4.3-1.1-.05-.35-.4-.3-.35-1.4-.2L8.4 9.4q-.45-.15-.65-.3l-.4-.45-.4-.7-.1-.6q0-1.05.55-1.9.55-.75 1.35-1.2l1.2-.45.7.05 1.1.3.25-.4q.85-.75 1.7-.9 1.05-.15 1.85.4m-2.3 4.4.7-.7.55-.65.25-.5.2-.9-.25-.35-.85-.05-.4.15-.75.9-.2.25-.8.1-.75-.25-1 .2q-.75.35-1.05 1v.6l.45.3 1.5.45 1 .05.6.3zM4.4 33.1l-.3.5-.85 1-.85.9-.5.25q-.35-.05-.35-.55l.25-.6.25-.35-.55.35-1.1-.15Q.1 34.2 0 33.4v-.35l.45-1.15.6-.7L2.3 30l.15-.15.2-.45.9-.8L6.4 26l1.2-1.2 2.35-2.15q.75-.55 1.2-.5.4.05.65.4l.15.8-.35.6-2.75 5.2-.4.9-.15.65-.3.45-.65.15-1.8.05-.25.45-.8 1.3z"/><path fill="#fff" d="m48.95 29.7-7.3.75-8.1.1-4.45-.05q-6.05-.25-10.35-1.6-.75-.2-1.05-.6-.35-.5-.1-1.25.25-.5.85-1.05 1.8-1.4 4.75-1.75l.75.05q.4.2.4.55-.05.4-.7.6l-2.6.6q-1.55.45-2.2 1.4l3.15.95 7.3.9 3.65.1 8.05-.15 6.6-.5 4.25-.95q3.15-.85 5-1.7.75-.3.8-.75l-4.4-.3-2.15.15-2.1-.25 1.1-.65 1.7-.3q3.35-.3 5-.1 1.45.1 1.9.95.35.8-.3 1.65l-1.5 1q-2.85 1.3-6.75 2z"/><path d="m36.2 5.5 2.3-.3 3.75.15h.05l.95-.65 2.05-1.8q1.15-.9 2-.75l1.1.75q1.7 1.75 3.55 5.2l.45.9.35 1.1.2.55v.05l1.3-.9q1.4-.7 2.35-.6l1.15.35.35.2 3.5-3.9 4.7-4.75 1.3-1 1.15-.05.95.55.5 1q.1.6-.15 1.1l-.9 1.05L64.8 7.5l-5.1 3.4-.5.35.2.45.2.55v.95l-.4 1.35-1.6 1.6-1.65 1q.7 2.65.45 4.85-.35 2.8-2.15 4.45-1.6 1.4-5.4 2.2l-6.85 1-10.35-.1-6.8-1.2q-3.75-1.15-5.2-3.05-1-1.3-1.15-3-.1-1.2.35-3.15.6-2.1 1.1-3.1l.9-1.35-.05-.05q-1.15-1.5-1.9-3.35-.3-.8-.25-1.15.05-.65.7-1.2.45-.4 1.25-.65 2.3-.9 7.15-1.5l2.3-.25h1.7q1.85-.6 4.45-1.05m-7.45 16.85q-.4-.3-.65-.35-.4-.05-.7.3-.3.3-.25.7.15.75 1.05 1.2l1.85.45 1.55.1q1.75.05 3.3-.85 1.6-.85 2.55-2.35.55.7 1.95 1l4.9.15q2.75-.55 5.3-2.7.8-.55.6-1.1l-.4-.45-.6-.05-1.1.6q-1.65 1.25-3.75 1.7-2.05.45-4.1.05-1.35-.3-1.8-1.05l-.5-.85q-.3-.4-.85-.2-.3.1-.65.65l-.3.95q-.35.8-1.4 1.55l-1.1.7-3.65.2zm13.05-5.8.85.65.9-.4.4-.25.4-.1.4-.2.55-.05.65-.2 1.95-.25h.55l.45-1.65.05-.6q.1-1.75-1.7-2.75-1.5-.8-3.3-.4l-.95.3q-1.3.55-1.7 1.9l-.15.6-.05 1.8q.15 1 .7 1.6m14.1-4.9q-.8.4-1.2.75l-.4.4.1.25.25-.2.85-.6.35-.3.15-.1.25-.3zm.2 2.8.95-1.15q-.1 0-.5.3l-.5.35-.15.15-.8.5.2.5zm-26.95 1.5q.45-.35.5-.75.1-.55-.3-.85l-.9-.15-.5.4-1.05 1.15-.35-.25-.55-.25-.45-.3q-.7-.4-1.45 0t-.75 1.25q-.05.55.35 1l.9.55.6.05.1.05-1.35 1.75-.05.5.15.5.6.45.7-.15.35-.35.55-.75.3-.3.25-.5.25-.3 1.65 1.05.5.2.5.05.45.1q.5 0 .6-.5.15-.4-.2-.7l-.6-.4-.55-.65-.95-.85-.05-.05z"/><path fill="#fff" d="M41.8 16.55q-.55-.6-.7-1.6l.05-1.8.15-.6q.4-1.35 1.7-1.9l.95-.3q1.8-.4 3.3.4 1.8 1 1.7 2.75l-.05.6-.45 1.65h-.55l-1.95.25-.65.2-.55.05-.4.2-.4.1-.4.25-.9.4zm-13.05 5.8 1.25.35 3.65-.2 1.1-.7q1.05-.75 1.4-1.55l.3-.95q.35-.55.65-.65.55-.2.85.2l.5.85q.45.75 1.8 1.05 2.05.4 4.1-.05 2.1-.45 3.75-1.7l1.1-.6.6.05.4.45q.2.55-.6 1.1-2.55 2.15-5.3 2.7l-4.9-.15q-1.4-.3-1.95-1-.95 1.5-2.55 2.35-1.55.9-3.3.85l-1.55-.1-1.85-.45q-.9-.45-1.05-1.2-.05-.4.25-.7.3-.35.7-.3.25.05.65.35m.4-6.4-.75 1 .05.05.95.85.55.65.6.4q.35.3.2.7-.1.5-.6.5l-.45-.1-.5-.05-.5-.2-1.65-1.05-.25.3-.25.5-.3.3-.55.75-.35.35-.7.15-.6-.45-.15-.5.05-.5 1.35-1.75-.1-.05-.6-.05-.9-.55q-.4-.45-.35-1 0-.85.75-1.25t1.45 0l.45.3.55.25.35.25 1.05-1.15.5-.4.9.15q.4.3.3.85-.05.4-.5.75"/></g></svg>