<svg xmlns="http://www.w3.org/2000/svg" xmlns:ffdec="https://www.free-decompiler.com/flash" ffdec:objectType="shape" width="75.75" height="37.75"><g fill-rule="evenodd"><path fill="#999" d="M0 19.5q-.1-.7.25-1.15.4-.55 1.25-.65h1.45l1.4.1 2.85.15h2.25l.75.4q.35.25.35.75v.3l1-.1v-.35l.3-.45.8-.45 1.3-.25q.8 0 1 .6.15.45-.15.75l-.15.15 1 .05q-.3-.3 0-.65l.05-.05q.1-.45.35-.55.25-.15.55-.15l1.8-.15.75.1h.65l.25.35-.05.4-.65.35-.55.15-.1.3-.4.65-.7.9-.6.6-1.55.05-2.7-.1-.45.05h-.05l-.25.6-.4.45-.05.55-.4 1.65h.75l.75.1 1.3.5.55.3q.4-.35.8-.4.75-.15 1.25.4l.4.85q.35.7 1.25 1.35l1.55 1.15.85.65 1 .2q.15.05.3.2h.7l.55.45.1.7-.4.6-.7.2h-.05l-.15.45-.25.9.1.35.3.2 1.85.45-.3-.3q-.25-.35-.1-.85.2-.4.85-.7l2.95-.25q.75.1.8.5l-.15.45-.5.3-1.7.7-1.05.35.45.1 3.2-.6.45-.25.05-.75q-.2-1.25.5-1.85.5-.4 1.35-.4l1.5.2 3.3.25 7.3-.1.2-.15 1.35-.35-4.25.1-8.9-.8q-4.35-.6-6.2-1.7l-.25-.2-.15.1-.7.2-.35-.1-.45.1q-1.05.05-2.2-.65l-1.7-1.6-.35-.55q-.25-.45-.15-1.05l.05-.6.8-1.4.85-1.1q.8-.9 1.9-.6.9.15 1.25 1l.15.95q.75.05 1.25.8.55.7.5 1.5l.25.8q.05.75-.3 1.3h.1l2 .15 12.3.45 8.1-.5q4.4-.85 7.45-3.05l2.9-2.65 1.9-1.95H60l-.2-.05h-.15l-.15-.05-.15-.05-.1-.1-.15-.05-.1-.05-.05-.05-.05-.1-.05-.05v-.1l-.05-.1.05-.05v-.15l.05-.05v-.05l.05-.05.1-.05-.05-.1v-.1h-.05l-.15-.05-.15-.05-.1-.05h-.1l-.15-.05-.15-.05-.05-.05-.1-.1-.05-.05-.05-.05v-.05l-.05-.1v-.3l.05-.05v-.1l.05-.05.05-.05.05-.1.05-.05.15-.05.1-.05.15-.05.15-.05.1-.05h.05l.15-.05h.1l.15-.05h1.4l.85-.05h1.05l2.3-.05H66l.45.05h.25l.2.05h3.65l.1-.05h.05l.15-.05h.2l.2-.05h.15l.15-.05.1-.05h.1l.2-.05h1.4l.15.05h.15l.15.05.15.05.1.1.1.05.05.05.1.1.05.05v.05l.05.05.05.1v.05l.05.05v.15l.05.05v.3l-.05.1v.05l-.05.05V18l.1-.05H75l.1.05.15.05.1.1.1.05.05.05.05.1.05.05.05.05.05.05v.1l.05.05v.55l-.05.1v.05l-.05.05-.05.05v.1l-.05.05-.1.05-.05.1-.1.05-.1.05-.15.05H75l-.2.05h-.05l-.2-.05h-.15l.05.2-.05.55.4.75v1.95l.25 5.15-.15 6.75q-.1 1.45-.6 1.9-.45.45-1.3.45l-1.5-.25-5.55-.15-5.65.5-4.7-.25-4.7-.45-1.2-.05-2.2.55-3.95.25-11.45-.2h-3.85l-1.45-.05-.35-.15H25.3l-4.25-.7-1 .15-17.2-.05q-1.25 0-1.75-.35-.75-.45-.85-1.6-.2-1.15.55-1.75l.15-.1-.1-.25-.2-1.8.1-2.2-.25-1.65.25-2.85.05-.1-.25-2.4-.1-1.45zm61.8 1.55.25.5-.05.2-.25.25-.35.05-.35.15-.25-.15.05-.3.15-.3.1-.3.15-.15.15-.05zm1.15-1.25h-1.9l-.15-.05h-.2l-.1-.05h-.1l-.65 3.25 2.2.1.4-.95-.1-.2q-.2-.55.4-1.4l.4-.7zm1.2 1.85-.15.3q.35.55 0 1.35l-.1.35.3.25 1.55.45-.2-.25q-.15-.6.5-1l1.1-.4 1.25-.55 1.3-.1q.45.2.45.6l-.4.45-1.2.8-1.25.55 2.1.1.85-.2.2-.45.05-.75-.5-1.25-.05-.2q-2.9-.15-5.8-.05M42.7 11.05q.15.4-.1.8l-.35.3-.4.25-.75.35-2.65.6-1.35.15-.95-.1q-.55-.2-.65-.75-.15-.6.2-1.05.65-.7 1.55-.95l1.1-.25.75-.25 1.65-.25 1.3.5zm11 18.35q2.85-.4 3.75-1.6l.6-1.15.5-1-.85 1q-1.85 2-5.6 3zm12.5-3.5-1.8-.2h-2.1l-1.05.35-.3.85.7-.75q.45-.35.85-.3.5.1.6.55l-.15.85-.35.3-.8.65q-.55.25-.95 0-.25-.15-.25-.5v-.15l-.25.4.05.05q.25.3 1.15.6l2.3.4-.25-.15-.3-.3-.05-.4q0-.5.4-.9l.8-.65.55-.25q.45-.1.7.25v.75l-.25.3-.3.75-.45.4-.4.25h1.55l.45-2.6.05-.5zM22.7 2.5q-.75.3-1.05.7-.5.5-.6 1.3t.3 1.45 1.1.95l1.45.1q.75-.2 1.25-.8t.55-1.35q0-.75-.45-1.4l-1.1-.9zM15.65 10Q14.1 8.3 14.3 6.25l-.2-.35q-.5-.85-.4-2.6l.25-.85q.35-.6 1.2-.4l1.05.35 1.95-1.2 4.1-.25.65.25L24.2.15q1-.4 1.55.35L26 1.6l-.05 2.15-.1.85.05 1.15-.2 2.05q-.45 1.55-2.15 2.85l.8.55.45.4.65.9.35.6.45.85.05.95q-.25 1-1.1 1.55l-1.4.25v.2l-.15.55-.5.85q-.6.6-1.3.6-.8 0-1.35-.55t-.85-2.1l-.05-.5-.3-1.35-.15-1.2-2.25 1.2q-1.1.55-2.2.7-1.25.25-2.3-.3l-.6-.25-.45.1q-1 .2-1.7-.3-.8-.5-.9-1.4-.1-.55.15-1.35l.4-.85q.45-.6 1.15-.85l.8-.15.3-.7q.3-.45.85-.6l1 .15q.55.4.65 1.2l-.15 1.3-.3.75-.2.25-.05.6.8.3q1.2-.05 3.2-1.15l.55-.3q-1.3-.5-2.25-1.55m1.45-5.35q-1-.35-1.75.2-.55.4-.8 1.05-.2.7 0 1.35.25.65.85 1l1.3.3q.7-.1 1.2-.65.5-.5.55-1.2.1-.65-.3-1.25zm2.4 3.95q-.3.5-.7.35l-.4-.25-.35.05q-.2.1-.25.3-.1.35.2.75.5.5 1.2.4.7-.2.95-.8.3.05.9.4l.8-.25.5-.55q.2-.5-.25-.6l-.45.15-.5.15-.45-.3-.45-.35q-.2-.05-.45.15zM13.2 23l1.35.15.85.1q.6.1.65.55l-.3.75-.8.3-1.3.2q-.75-.1-1.05-.65-.25-.45 0-.85.15-.35.6-.55m-2.6 2.8q-.6.6-1.6.5l-1 .1-.35.5q-.8 1.3-2.35 1.4l-.05.3v.3l.2.9 2.55.35-.1-.1q-.2-.25 0-.65l.4-.5 1.95-1.85.8-.5q.65-.1.75.45l-.35.65-2.1 2.1q-.35.35-.7.5l-.05.05 2.1.55.35.15.2-.45 1.45-.8.8-.95.05-.5v-.85l-.05-.4-.35-.25-1.9-.9-.45-.2-.05-.05z"/><path fill="#fff" d="m22.7 2.5 1.45.05 1.1.9q.45.65.45 1.4-.05.75-.55 1.35T23.9 7l-1.45-.1q-.7-.3-1.1-.95t-.3-1.45.6-1.3q.3-.4 1.05-.7m-3.2 6.1.3-.4q.25-.2.45-.15l.45.35.45.3.5-.15.45-.15q.45.1.25.6l-.5.55-.8.25q-.6-.35-.9-.4-.25.6-.95.8-.7.1-1.2-.4-.3-.4-.2-.75.05-.2.25-.3l.35-.05.4.25q.4.15.7-.35m-2.4-3.95 1.05.8q.4.6.3 1.25-.05.7-.55 1.2-.5.55-1.2.65l-1.3-.3q-.6-.35-.85-1-.2-.65 0-1.35.25-.65.8-1.05.75-.55 1.75-.2"/><path d="M50.05 10.7q4.85 1.4 7.5 4 1.6 1.6 2.35 3.6l.25.7 1.85.2q.95.1 1.15.6l.05.7-.15 1.05q-.1.95-.5 1.25l-.9.3-1.05.1h-.3q-.5 2-2.3 4.3-.95 1.3-1.85 1.8-.8.45-2.6.75l-13.8 1.5-5.8.15-3.7-.1-.95-.05.25.35.25 1.5-.2 1.25-.55.25-.55.1-2.65.1h-.7l-.4-.1h-.55l-.8-.1-.3-.05-1.25-.35-.45-.5.05-.6.2-1.2q.1-.75.45-1.05l.4-.2q-1.95-.5-3.8-1.75-1.6-1.05-2.15-2.1l-.5-1.4H16l-.65.05-1.55-.1-1-.2-.45-.1-.2-.1-.4-.05-.5-.25-.4-.15-.25-.45v-.4l.1-.25v-.4l.3-.5.1-.45.4-.65.4-.15.6-.15.65-.15.8-.05h.85l.75.1h.6l.45.2q1.4-3.55 5.5-6.6 3.95-2.85 8.1-3.65-.4-.4-.4-1.05 0-.6.35-1.1.6-.85 2.05-1.05l2.3.1q-.3-1.75.8-2.55.65-.45 1.6-.2.85.2 1.55.8l.95 1.1v-.05l.45-.25 1.95-.25q.8.2 1.25.55l.7.75.15.55-.1.8-.15.45q2.9-.15 6.4.85M70.4 24.6l-.35.15-.55.2h-.6l-.55.1-.95-.1-.9-.1-.65.15-1.15-.1q-.8-.2-1-.5l-.1-1v-1.05q0-.65.35-1 .3-.3 1.2-.5l2.15-.1 1.55-.05.65.05.7.3.25.3.25.5.1.8-.15 1.45zM34.1 12.85q-.45.8-2.2 1.1-5.6 1.25-9.5 5.2l-.4.45 1.75 1 .4-.6.35-.6.6-.05.15.45-.7 1.25q1.35.75 2.1 1.4l.45.55v.65l-.45 2.05.35.15.6.5q.3.5-.1.75l-.45.1-.8-.25-.2.45-.35 1.1 1.55.25 11.85.55 7.15-.6 7.1-.85 1.95-.45q.95-.45 1.7-1.65.95-1.4 1.45-3.25.4-1.45.2-2.4-.2-.9-1-2.1-1.9-2.7-4.75-3.9-1.15-.55-3.55-1.15-3.5-.9-5.3-.65l-1.65.2h-.25l-3.2.35-.55-.05q-.4-.1-.4-.4-.1-.3.55-.75 1.3-.75 2.7-1.1l.05-.05.55-.4.25-.3.1-.25.2-.55q0-.4-.5-.6l-.8.05-.45.2q-.3.25-.5.85l-.1.3-.5.85-.95.2q-.5-.15-.65-.65l-.05-.7.05-.4.1-.25.05-.05q-.4-1.15-1.55-1.55-.2.5.25 1.6.5 1.1.25 1.6-.4.85-1.85.65l-1.05-.25-1.05-.05q.65.1.95.8.35.7.05 1.25m9 8.95-1.3-.6-2.05-.75-1.25-.75q-.5-.65-.25-1.5.25-1 1.15-1.45l-.2-.8.05-.35q.1-.6.65-.7.55-.15.95.25.3.35.3 1.05l-.05.25.9.3.75.9q.15.45-.1.7l-.65.1-.35-.45-.55-.2q-.85 0-1.3.4-.2.35-.1.5l.3.05 2.6.5 1.1.3q1.15.5 1.75 1.45l.3.65.05.7q0 1.55-.9 2.3l-1.05.6.1.25q.2.5.05 1l-.55.65-.8.2q-.45-.05-.75-.45-.3-.35-.3-.75l.1-.4h-.65q-1.4 0-2.4-1-1.05-.95-1.2-2.3l.05-.75q.25-.65.9-.8.75-.1 1.15.45l.15.7-.15.45q-.05.4.55.9l.55.4 1.25-.05.75-.2 1-.65q.2-.45-.55-1.1m18.6.05.05-1.25-1.1-.1h-.15V22zm4.45 7.8-.5.15-1.85.1-3.05-.6-.5-.3-.45-.4q-.15-.25-.05-.85.2-1.25.6-1.9l.25-.35.25-.2.55-.1h3.45l1.2.15.35.15.3.35.2.5v.75l-.4 1.85zm-.65-2.45-.05-.3-.45-.2-.35-.25-.45-.05h-2.65l-.3.5-.15.75 3.55.65q.5.1.65-.15l.1-.25zm3.95-4.9q-.15-.2-.5-.2h-3l-.7.15q2 1.35 4.15.35l.1-.05zM65 23.45q.85.65 1.9.55l2.2-.4.3-.15.1-.2-2.2.2-1.4-.1q-.5-.1-.9-.45zm-45.25-.15q-.2 1.1-.1 1.6.25 1 1.45 1.8 1.35 1 3.65 1.6v-.5l.1-.65.15-.45-.5-.2-.1-.25q-.25-.35.15-.75.25-.25.7-.25h.05l.3-1.6q-.55-.2-1.2-.75l-.65-.45h-.05l-.4.45q-.55.2-.7-.3-.1-.35.2-.8l-1.5-.8-.25-.15q-.95 1.25-1.3 2.45M16 18.05l-.05 1-.15.6-.85.35-4.1.05-.8-.15-.4-.8.15-.9.3-.7q.25-.25.95-.35l3.8-.2q.75 0 1 .3.25.35.15.8m-1.05 0-.75-.2h-.95l-2.05.2q-.25.1-.25.15l-.1.15-.1.6 3.55-.05.65-.25zm.6 4.4h-.45l-.3-.1-.45-.05-1.75.15.2.1.7.3 1.6.3h1l.15-.6zm-3.6.65-.05.35-.05.3.1.05 1.3.45.8.1 1.4.2.5-.1L16 24h-.05l-1.75-.35-1.2-.35q-.5-.2-.55-.55l-.35-.15zm.1 4.5q-.15-.2-.6-.3l-1.9-.05-2.1.15-.8.25.45.35.2.1.4.1 3.7.05.75-.15h.05zm1.45 2.15q-.15.5-.9.8-1.95.8-4.7.45l-1.1-.25-.55-.15h-.4l-.8-.3q-.35-.35-.4-.8l.1-.85.15-1.4.15-.35.6-.75q.35-.3 1.1-.4l1.2.05 2.4-.2q1.35-.1 2.3.45l.15.15.7.95.1 1.4v.4l-.1.35zm-6.8-.45.3.3.6.05 3.8-.5.65-.25.05-.05-1.25.05-3.05-.05-.45-.05-.9-.25v.35zm16.25 3.35-.15.6 5.5.35.25-.15.1-.25-.35.05-3.5-.15q-1.15-.1-1.8-.55zm5.35-.2-.45-.6q-2.4-.2-3.95 0-.5 0-.7.25l.55.2 1.15.2 3.3.05h.2z"/></g></svg>