<svg xmlns="http://www.w3.org/2000/svg" xmlns:ffdec="https://www.free-decompiler.com/flash" ffdec:objectType="shape" width="75.2" height="39.1"><g fill-rule="evenodd"><path fill="#999" d="M0 20.5h.8l.35-.3q.8-.65 2.7-.95l2.35-.2 2.55.3 1 .25 1.45.2 1.85.2.2.05q1.35-.2 1.95 0l.35.2.15.25h36.6l.15-.2.8-.45q3.6-1.35 5.8-1.15l2.85.6 2.85.5 2.1-.15 2.45-.2.85-.2.75.15 2.65-.05q1.15 0 1.45.55l.05.6h.15v18.6H0zm34.9 12.9.2.1.95-.05 1.35-.9.15-.2-.05-.4-.4-.2-.15.05-.3.15-1.1.8-.55.4zm31.9-4.95-.45.35q-.1.3.3.5l.55.1 1.35-.05q.55 0 .85-.4l.1-.45-.2-.4-.65-.15zm-4.65 3.85q-.1-.55-.7-.55l-.9.35-1.35.85q-.65.5-1 1.05.85.25 2.4-.45l.85-.4.5-.35z"/><path fill="#fff" d="m62.15 32.3-.2.5-.5.35-.85.4q-1.55.7-2.4.45.35-.55 1-1.05l1.35-.85.9-.35q.6 0 .7.55m4.65-3.85 1.85-.5.65.15.2.4-.1.45q-.3.4-.85.4l-1.35.05-.55-.1q-.4-.2-.3-.5zM34.9 33.4l.1-.25.55-.4 1.1-.8.3-.15.15-.05.4.2.05.4-.15.2-1.35.9-.95.05z"/><path d="M16.6 23.75Q14.25 21.6 13.5 18q-.6-3.15.2-5.5l.5-1.3-.65-1.25-.35-1.1q-.6-1.45-.05-2.25.45-.55 1.3-.55l1.4.4 1.5.75.5.4 1.25-.7q2.2-1.05 2.9-1.25l1.15-.25.2-.15.75-.45 1.7-.55 3.85-.45 1.25.15q.9.35 1.1 1.15.3.8-.2 1.55l-1.25 1.2L31.7 8.9q2 2.1 2.65 4.55l.05.2q2.05-1.1 4.9-1.65l3.6-.4q4.8-.1 8.35 2.25l-.05-1q-.05-1.35.3-3.25.35-2.45.65-3.6.45-1.95 1.3-3.3 1.2-2 2.95-2.55l2-.05q1.05.25 1.65 1 .5.6.7 1.75.1 1.1-.25 1.85l-1.6 2q-1.85 1.95-2.65 4.6l-.7 3.5-.6 3.1q1 1.7 1.15 3.55V22l1.6.7q1.45.65 2.4.5-.5-1.1-.5-2.05.1-1.25 1-1.8.4-.25 1.25-.35l1.1.1q1 .4 1.35 1.8.7 2.3-.15 4.55-.35.95-.95 1.35l-1.6.45-3.05.05L54.8 26q-1.6 1.7-4.35 1.5-1.55-.1-3.85-.95l-.55 1.25.9.65 1.7 1.05q1.05.9 1.4 1.9.25.75 0 1.35l-.65.75q-.7.75-1.7.5l-1-.45q-2-1.1-3.85-2.5l-1-.95q-.65-1-.4-2.65.2-1.3.75-2.5l-.95-.25-2.55-.25-3 .15-2.45.85-.4.6-1.5 2-.5 1.2-.05.2.8 1.3q.5 1.5-.35 2.75-1 1.35-2.5 1.1-.7-.1-1.25-.6l-.7-1.25-.05-.55q-.45-.8-.5-1.85l.15-1.3q.3-1.75.95-3.1l-.2.05-1.4.25-1.6 1.75q-1.15.85-3.2 1.6-3.9 1.35-7.25.85l-.9-.15q.1 1.25-.15 2.35-.2 1-.9 1.85l-1.15.85-.95.4-1 .05-.95-.05Q6.2 35.5 4.8 34L4 32.8l-.2-.8-.05-2.15q.1-1.05.45-1.85l1.3-1.7.65-.75.25-.2q-.2-.75-.1-1.5.25-1.45 1.5-2.1l1.95-.2L10 21l.6-.6q.6-.35 1.25-.35.8.1 1.15.55l.5 1.1q.2.8 0 1.3-.2.6-.95 1.1l.35 1.3.05.65.55.4q1.25.4 3.2.05l3.3-.8q-2-.65-3.4-1.95m47.8 8.8q.3.7-.2 1.4l-1.2.85-4.5.3-1.15-.5q-.55-.45-.6-1-.05-.65.7-1.25.5-.35 1.4-.55l2.45-.5q1.45-.1 2.45.55zm-6.1.9.2.1 1.95.3 1.65-.3 1-.5q-.35-.4-1.05-.5-2-.35-3.5.35l-.25.2q-.15.2 0 .35m12.75-6.1.85.55q.45.6-.1 1.45-.95 1.4-3.35 1.4l-1.85-.35q-.95-.45-1.25-1.3-.1-.45.05-.95t.55-.7L67 27.2zm-.3 1.25-.8-.25L67 28.1l-.6.1q-.3.35.05.7.2.25.65.35l1.35.3 1.85-.5zm-63.5 1.8q.5-.35 1.2-.2h.4q.25-.15 0-.4l-.5-.5H8.3v-.2l-.2-.75q-.2-.3-.65-.3l-.1.05q-.4-.1-.6.4-.2.25-.1.7l-.4.2q-.75.6-.85 1.5-.1.85.45 1.55l.6.4.45.1v.15l.1.25.45.35h.25l.2-.1.15-.15.05-.4v-.1l.6-.45q.2-.5-.15-.75l-.65-.05-.65.1q-.55-.1-.55-.65 0-.45.55-.75M16 15.6l1.4.25.35.05.2.3-.2.2q-.65.4-1.35 0l-.55-.2-.3.25v.4l.6.5.7.2.1.35.35.25.2.1.3-.1.35-.3.05-.5.2-.15q.55-.35.65-.95.2-.9-.7-1.35l-.95-.15-1-.15q.05-.55.8-.75l1.1.1h.55q.3-.25 0-.65l-.6-.25-.4-.05v-.4l-.1-.3-.35-.15-.1.05q-.35 0-.55.35v.4l-.45.1q-.4.15-.7.45-.3.35-.3 1.25 0 .35.15.55zm10.7 2.05.3-.9-.25-.45-.45-.1-.4.4-.65.5h-.75l-.4-.35-.15-.95-.2-.2-.4-.4-.6.05q-.45.3-.45 1l.2.9-.15.45q-.15.65-.8.9l-1.2-.1-.3-.15q-.35 0-.35.45-.15.9.95 1.3l1.7-.2.85-.6.45-.8 1.3.25 1.2-.35zm2.65-3.5q.5-.5.4-1.2l-.2-.65q-.3-.35-1.05-.35l-1.55-.15-.9-.25.7-.55.3-.05.05-.05.75.15.45.15q.25-.15.05-.45l-.9-.4h-.05l-.1-.25q-.1-.3-.45-.3v.05q-.25 0-.4.15l-.05.15v.2l-.75.2q-.55.45-.45 1.1.1.7.7 1l.85.15 1.65.1.3.1-.2.3-1.7.15-.4-.1q-.4 0-.4.55l.45.5.75.15h.5v.05l.05.45.1.15.65.3q.4 0 .6-.3v-.6l-.15-.2zM38.8 31.1q1.5.5 1.65 1.55.05.65-.5 1.2-.9 1-3.2 1-1.35.1-2.3-.45l-.85-.85q-.3-.6-.1-1.15.25-.85 1.65-1.35 1.85-.45 3.65.05m-1.2 1.15-1.05.05q-1.45.2-1.95.8.8.55 2.35.35l1.15-.15.95-.65z"/><path fill="#fff" d="m29.35 14.15-.4.25.15.2v.6q-.2.3-.6.3l-.65-.3-.1-.15-.05-.45v-.05h-.5l-.75-.15-.45-.5q0-.55.4-.55l.4.1 1.7-.15.2-.3-.3-.1-1.65-.1-.85-.15q-.6-.3-.7-1-.1-.65.45-1.1l.75-.2v-.2l.05-.15q.15-.15.4-.15V9.8q.35 0 .45.3l.1.25h.05l.9.4q.2.3-.05.45l-.45-.15-.75-.15-.05.05-.3.05-.7.55.9.25 1.55.15q.75 0 1.05.35l.2.65q.1.7-.4 1.2m-2.65 3.5-.55.65-1.2.35-1.3-.25-.45.8-.85.6-1.7.2q-1.1-.4-.95-1.3 0-.45.35-.45l.3.15 1.2.1q.65-.25.8-.9l.15-.45-.2-.9q0-.7.45-1l.6-.05.4.4.2.2.15.95.4.35h.75l.65-.5.4-.4.45.1.25.45zM16 15.6l-.55-.3q-.15-.2-.15-.55 0-.9.3-1.25.3-.3.7-.45l.45-.1v-.4q.2-.35.55-.35l.1-.05.35.15.1.3v.4l.4.05.6.25q.3.4 0 .65h-.55l-1.1-.1q-.75.2-.8.75l1 .15.95.15q.9.45.7 1.35-.1.6-.65.95l-.2.15-.05.5-.35.3-.3.1-.2-.1-.35-.25-.1-.35-.7-.2-.6-.5v-.4l.3-.25.55.2q.7.4 1.35 0l.2-.2-.2-.3-.35-.05zM7.25 30.4q-.55.3-.55.75 0 .55.55.65l.65-.1.65.05q.35.25.15.75l-.6.45v.1l-.05.4-.15.15-.2.1h-.25L7 33.35l-.1-.25v-.15l-.45-.1-.6-.4q-.55-.7-.45-1.55.1-.9.85-1.5l.4-.2q-.1-.45.1-.7.2-.5.6-.4l.1-.05q.45 0 .65.3l.2.75v.2h.05l.5.5q.25.25 0 .4h-.4q-.7-.15-1.2.2"/></g></svg>