<svg xmlns="http://www.w3.org/2000/svg" xmlns:ffdec="https://www.free-decompiler.com/flash" ffdec:objectType="shape" width="71.5" height="40.4"><g fill-rule="evenodd"><path fill="#767676" d="M65.4 10.95q-.4.4-1 .5l-1.1-.25q-.45-.35-.65-.9-.15-.6.05-1.1.25-.55.75-.8l1.1-.2q.55.1.95.6l.35 1.05q0 .65-.45 1.1m4.85 12.45q0 .7-.45 1.2-.55.65-1.5.55-1.1-.2-1.4-1.1-.25-.65.05-1.25.2-.55.9-.9l1.6.15q.7.5.8 1.35M54.65 4.95q-.85-.5-.85-1.5 0-.95.85-1.45l1.2-.2q.6.1 1 .55.4.5.4 1.15 0 .6-.4 1.1-.4.45-1.05.55zM48 17.9l.05.45.15 2.05-.2 1.25-.15.8q-.4.85-1.45.95-.75 0-1.2-.5-.35-.35-.45-.9l.15-1.55.1-.3.15-1.3.1-.4.1-1.05q.25-.85 1.2-.85l.1-.05q.95.1 1.2.85zm9.2 3.65q-.5.75-1.5 1.1l-1.8-.1q-.75-.3-1.2-1-.5-.7-.45-1.5l.05-.65q.2-.8.85-1.35.65-.6 1.45-.7l1.25.15q1.25.45 1.65 1.7.4 1.3-.3 2.35m-1.65 9.55q.5 0 .75.45.3.45.05.95t-.8.5q-.55.1-.8-.45l-.2-.45q.1-.5.3-.7.3-.3.65-.25zM43.1 28.45l-.9-.2-.7-.05-.9-.6q-.3-.5-.15-1.05.1-.5.65-.85.5-.3 1.05-.25.15-.65.85-.9t1.2.3q.3.3.4 1.15l-.25 1.6q-.45.95-1.25.85m1.8 5 .1-.05.8.3.4.65.05.15.5.3q.35-.5.85-.5.5-.1.85.35l.5.8.55 1.4.05 1.35q-.15.75-.85 1.1l-1.35-.15-.45-.55v.05q-.4.8-1.35.95-1.1.1-1.6-.9l-.35-1.3-.2-.9.05-.5.45-1.4-.05-.1.05-.25q.2-.8 1-.8m-9.8-25.3-.85.15q-.6.1-.95-.4h-.35l-.35.25-1.3.05q-.6-.35-.6-1.1l.25-.8q.5-.8 1.7-.8l.65.1.1-.2q.2-.4.95-.7l1.05-.1q.55.2.85 1l.05-.05.8-.3q.95-.1 1.5.65l.25.8-.3.8q-.35.45-.8.45h-.9l-.5.05-.35-.05-.4.15zm-15.65-4.1q.25.5.1 1.05l-.6.9q-.45.35-1.05.3-.6 0-1-.4-.4-.35-.5-.95-.05-.6.2-1.1.7-1.05 1.9-.7.7.25.95.9m-2.1 10.3q-.1-.5.1-.95l.7-.7 1-.05q.5.1.8.5.4.4.4 1.05 0 .85-.75 1.25l-1.45.05-.5-.45zm4.6 4.6.25-.45.1-.35q.15-.5.7-.65.6-.1.9.3l.3.4 1.05 2.75.05.45q0 1.45-.3 1.95l-1 .75-1.2-.15q-.85-.45-.95-1.5V22l-.1-.45.05-2.05zm-20.2 2.3q-.1-.85.75-1.2.8-.3 1.4.3.6.65.15 1.45l-.75.55-.9-.1-.5-.55zm11.6-.7q.7-.55 1.65-.45t1.5.75.5 1.6-.7 1.55q-.6.55-1.5.55-.85 0-1.5-.5-.9-.85-.75-2 .1-.95.8-1.5M8.35 35l-.2-.4q-.2-.65.1-1.05.4-.85 1.4-.65.9.3 1 1.15.1 1.05-.8 1.35l-.8.05zm18.9-6.1q-.95-.65-.75-2.4l.25-.9q.3-.45.7-.6.8-.15 1.15.55l.25.5.35.3q.5.35.55 1.05.1.65-.3 1.15-.35.5-1.05.65zm-4.15 9.9-1.4-.05-.7-.9-.1-1.2q0-.4.15-.7.2-.45.75-.6l.9.1.5.45.35.45v-.55q0-.75.25-1.2.25-.5.9-.6l1 .3.5.85.55 1.7.05 1.4-.65.8-1 .25q-1.05 0-1.5-1z"/><path d="M49.4 2.9q.7 1.1.05 2l-.85.65-1.05.05q-1.15-.35-1.25-1.55t1.05-1.7l1.1-.05zm5.25 7.5-.2.25q.65.1 1.15.5l.5-.4q.25-.4-.1-.75l-.75-.05zm-2.7.65.25.15.5-.35-.35-1q-.1-.45-.4-.55l-.55.05-.4.05q-.3 0-.3.25l.1.25.25.35zm-.6 2.1.05-.7-.45-.15-1.25-.95v-.1l-.1-.05q.15-.15-.05-.15l-.15-.15-.15-.2-.3-.8q-.1-.7.3-1.15l.3-.35.55-.4.95-.25h1.4l.4.15.3.3.55.8q.45-.55 1.05-.7l1.05-.05 1.3.4q.5.35.8 1.4l.05 1.7q-.25.7-.95 1.05l-.7.2-.4 1.2-1.15 1-1.5.15q-.8-.2-1.35-.75-.5-.6-.55-1.45m10.7 11.65h.05l.65-.2.4-.15.2-.25.05-.15-.1-.35-.35-.4-.55-.1-.55.05q-.55.1-.6.4l.1.3.1.55zm-4.45 3.05-.25-.9-.35-.2q-1.3-.8-1.8-2.45-.5-1.5.2-2.4l.35-.45.35-.3q.4-.3 1.2-.3l1.4.2 1.35.7.2.2.3-.35q.6-.5 2-.5l1.2.2q.9.4 1.5 1.55l.25.55.1.7-.05.6-.25.6-1.55 1.55-.65.25v.3l-.45.75-.3.25-.5.2-1.3.6-1.75-.2q-.85-.4-1.2-1.15m2.5-11.9q.55-.4 1.25-.35.75 0 1.3.4t.75 1.1l.05 1.3q-.4 1.5-1.95 1.65-.7.05-1.3-.3-.65-.35-.9-1-.4-.7-.15-1.55.25-.75.95-1.25m5.8-2.25.3.1.5-.55-.3-.35-.3-.5-.9-.35q-.4-.05-.9.35l-.15.15.1.2.75.6zm2.5-1.25.6.05.3-.55.05-.2.05-.35-.05-.4-.3-.35-.75-.15q-.35.55-.25 1.3l.05.5h.05v.15zm-7.75-6.3q-.35-.45-.25-1.4 0-.45.15-.65l.55-.4q.85-.45 1.55-.3.95.15 1.25.95l.1.75-.1 1q-.45.85-1.65.85-1.2-.1-1.6-.8M68.4 2.2l-.85-.25-.3-.45-.1-.4q0-.4.35-.75.25-.25.75-.35.4 0 .75.3l.35.75-.25.75zm.05 15.45-.85-.15-.8-.5-.35-.3-.25-.65-.2-.45h-.15l-1-.35-1.1-.45-.3-.25-.85-1q-.25-.4-.25-.8v-.4l.1-.3.55-.75.7-.45q1.3-.65 2.3-.4l.1.05.3-.65.25-.3.3-.45q.3-.45.95-.6.55-.15 1.1 0l.9.25q.45.15.6.4l.6.7.35.95v1.05l.05.5q0 .75-.55 1.4.5.8.3 2l-.2.6-.55.65q-.5.45-.95.55zm-39.2-8.9.1-.05-.05-.25-.95-5.35q.1-.55.45-.85l.85-.15 2.75.95h.3l.15-.25.75-1.1.15-.5q.25-.35.7-.35L34.5.8q.55.1.85.45l.75 1 .55.55.2.1.25-.1.35-.2.85-.85.55-.45q.45-.2.7 0l.2.2q.4.35.3 1.1l-.35 1.25-.3 1.55-.15.65-.1.6-.35.8-.1.45 2.1.9 1.45-.5 2.15-.7 1.5-.2q.55.1.95.5.45.45.5 1l-.2 1.35-.3 1.15-.3.95-.65 1.4 2.4.55q.5.2.65.45l.2.9-.1 4.4-.25 3.2-.45 1-1.35.25-.9.15.1.4.1 2.45.1 1.05.05.35.1.2 1.35.1q1.6.1 2.6.75 1.35.9 1.25 2.3-.05.8-.55 1.45l.65 3.35.05 1.45q-.25.9-1.05.9-.65-.05-.95-.85l-.15-1.35-.25-2.25-.35.1-1.25.3h-.3L47.55 38l-.35.65q-.4.2-.75-.45l-.25-.8.1-1.15-.15-1.35-.45-.25-.8-.65.35 1.9q.2 1.25-.1 2-.5 1.35-2.4 1.65l-1.5.05-1.55-.1-2.9.15-7 .65-2.5-.2q-1.15-.4-1.75-1.75-.4-1.05-.4-2.5l.1-1.65-1.2 1.35v.1l.25 1.25v1.6l-.1.5-.45.1q-.25-.1-.25-.4-.35-.1-.45-.8l-.4-1.65-2.3.05.05 2.45-.15 1q-.25.55-.95.65-.65 0-1.05-.55-.3-.4-.2-1.3 0-1.45.3-2.95l.15-.5-.15-.15q-.65-.9-.55-1.95.1-1.2 1.05-2.1.95-.85 2.15-1l1.55-.25 1.55-.4v-.35l-.15-1.2-.15-.4-.05-2 .05-.2-1.35.1-1.1-.2-.5-.7-.15-.9-.2-4.05q-.1-2.2.35-3.2l.35-.5.75-.4 1.4-.4-.3-.3-.35-.45q-.5-.7-.7-2.1-.1-1.45.5-2.05.35-.35 1-.55l1.15-.1 2.65.35.35.1zM46.2 18.8q-.05 2.05-.95 3.8l1.45-.15.3-6.2-.05-.4q-.1-.2-.55-.35l-.6-.15q.5 1.9.4 3.45m-2.55-2.6-.8-.55-.35 1-1 1.4-1.2 1.15-2.15.95-.15.05.4.65q.7.95 1.9 1.25l2.45-.25q1.1-.5 1.7-1.8.4-1 .15-2.05-.2-1.05-.95-1.8M53 26.55l-.95.75-1.2-.05Q50.3 27 50 26.4q-.3-.55-.15-1.15.1-.6.65-1 .5-.45 1.15-.4.6.05 1.1.5.45.45.5 1.05zm6.2-2.15h.1v-.15q-.2-.8-.6-1.05l-.5-.15h-.95q.1 1 .55 1.6l.4.45.5-.45zm-18.1 2.2.7.8.6.2 2.05.75.05-1.95q0-.9.15-1.55h-1.1zm21.8 9.35-.65-.5q-.4-.4-.45-.95t.25-1l.8-.65 1.3-.2q.85.15 1.3 1.1.35.95-.2 1.75-.5.85-1.5.75zM36.2 7.3l1.05.2.7-3.25.05-.5h-.05l-.5.5-.9.7-.6-.15-1.65-1.55-.15.35-.15.6-.45.85-1.25.15-1.35-.3.65 1.7.2 1.05zM23.4 4.7l.95-.6 1.1.05q1.15.5 1.05 1.7T25.25 7.4l-1.05-.05q-.55-.2-.85-.65-.65-.9.05-2m-6.25 8.25q-.05.85-.55 1.45-.55.55-1.35.75l-1.5-.15q-.7-.3-1.15-1-.35-.55-.4-1.2l-.7-.2q-.7-.35-.95-1.05-.15-.55.05-1.7.3-1.05.8-1.4.35-.3 1.3-.4l1.05.05q.6.15 1.05.7l.55-.8.3-.3.4-.15h1.4l.95.25.55.4.3.35q.4.45.3 1.15l-.3.8-.15.2-.15.15q-.2 0-.05.15l-.1.05v.1l-1.25.95-.45.15zm5.35 4.35q-.1 1 .15 2.8l.25 2.85 1.45-.15h.15q-1.35-2.7-.65-6.55l-.65.2-.45.25zm9.65 4.65.8-1.2-1.35-.1q-1.65-.35-2.55-1.1-1.15-.85-1.55-2.25l-.1-.45-.45.55q-.65.8-.7 1.95-.1 1.05.45 1.95t1.6 1.35l2 .3q1.05-.2 1.85-1m-19-17q-.4.7-1.6.8-1.2 0-1.65-.85-.2-.4-.1-1l.1-.75q.3-.8 1.25-.95l1.55.3.55.4.15.65q.1.95-.25 1.4m.7 5.25-.6-.45-.75.05q-.35.35-.1.75l.5.4q.5-.4 1.15-.5zm2.7.65.9-.8.25-.35.1-.25-.3-.25-.4-.05-.55-.05q-.3.1-.4.55l-.35 1 .5.35zM2.4 3q-.4-.05-.7-.4t-.25-.75.35-.75q.35-.3.75-.3.5.1.75.35l.35.75-.1.4-.3.45zm.65 13.45-1.1-.1L1 15.8l-.55-.65-.2-.6q-.2-1.2.3-2Q0 11.9 0 11.15l.05-.5V9.6q.1-.7.35-.95l.6-.7q.15-.25.6-.4l.9-.25q.55-.15 1.1 0 .65.15.95.6l.3.45.25.3.3.65.1-.05q1-.25 2.3.4.4.15.7.45l.55.75.1.3v.4l-.25.8-.85 1-.3.25-1.1.45-1 .35H5.5l-.2.45-.25.65-.35.3-.8.5zm.05-5.2h.25v-.15h.05l.05-.5q.1-.75-.25-1.3l-.75.15-.3.35-.05.4.05.35.05.2.3.55zm2.5 1.25.9-.35.75-.6.1-.2-.15-.15q-.5-.4-.9-.35l-.9.35-.3.5-.3.35.5.55zm7.6 16.15q-.35.75-1.2 1.15l-1.75.2-1.3-.6-.5-.2-.3-.25-.45-.75v-.3l-.65-.25q-.9-.5-1.55-1.55l-.25-.6-.05-.6.1-.7.25-.55q.6-1.15 1.5-1.55l1.2-.2q1.4 0 2 .5l.3.35.2-.2 1.35-.7 1.4-.2q.8 0 1.2.3l.35.3.35.45q.7.9.2 2.4-.5 1.65-1.8 2.45l-.35.2zm-2.5-11.9q.7.5.95 1.25.25.85-.15 1.55l-.9 1-1.3.3q-1.55-.15-1.95-1.65-.2-.65.05-1.3.2-.7.75-1.1t1.3-.4q.7-.05 1.25.35m6.1 12.6q-.3-.55-.25-1.15t.5-1.05q.5-.45 1.1-.5.65-.05 1.15.4l.65 1-.15 1.15-.85.85-1.2.05zm-5.2-4.15.5.25.5.45.4-.45q.45-.6.55-1.6h-.95l-.5.15q-.4.25-.6 1.05v.15zm-2.85.4.6-.3.1-.55.1-.3q-.05-.3-.6-.4L8.4 24l-.55.1-.35.4q-.2.2-.1.35l.05.15.2.25.4.15.65.2zM4.9 35.75l-.85.3q-1 .1-1.5-.75-.55-.8-.2-1.75.45-.95 1.3-1.1l1.3.2.8.65q.3.45.25 1l-.45.95zm22.1-10-.95-.85-.05.5v.9l-.05.4.05.45q.25.85.15 1.75l1.25-.3.45-.25 1.2-1.3Q28 26.6 27 25.75"/><path fill="#fff" d="M43.65 16.2q.75.75.95 1.8.25 1.05-.15 2.05-.6 1.3-1.7 1.8l-2.45.25q-1.2-.3-1.9-1.25l-.4-.65.15-.05 2.15-.95 1.2-1.15 1-1.4.35-1zm-11.5 5.75q-.8.8-1.85 1l-2-.3q-1.05-.45-1.6-1.35t-.45-1.95q.05-1.15.7-1.95l.45-.55.1.45q.4 1.4 1.55 2.25.9.75 2.55 1.1l1.35.1z"/></g></svg>