<svg xmlns="http://www.w3.org/2000/svg" xmlns:ffdec="https://www.free-decompiler.com/flash" ffdec:objectType="shape" width="76.2" height="41.85"><g fill-rule="evenodd"><path fill="#999" d="M74.2 27.6h.1l.2.05h.2l.15.05.15.05.1.05.1.1.1.05.05.05.05.1.05.05.05.05.05.05v.1l.05.05.05.05v.05l.05.1v.6l.05.05.05.05v.1l.05.05.05.05v.05l.05.1v.05l.05.05v.15l.05.05v.25l.05.05v.7l.05.1V32l-.05.05v.35l.05.1v6.75l.05.05v.6l-.05.05v.7l-.05.05v.2l-.05.05V41l-.05.1v.05l-.05.05-.05.05-.05.1-.05.05v.05l-.1.05-.05.1-.1.05-.1.05-.15.1h-.15l-.05.05h-.5l-.15-.05-.15-.05-.1-.1-.1-.05-.1-.05-.05-.05-.05-.1-.05-.05H49.8l-4.05.05H35.7l-5.7.05H4.45l-.35-.05H2.55l-.2-.05-.15-.05-.15-.05-.1-.05H1.6l-.1-.05-.15-.05-.15-.05-.1-.05-.1-.05-.1-.1-.05-.05-.1-.05-.05-.05-.05-.1-.05-.05v-.05l-.05-.05-.05-.1v-.05l-.05-.05v-.05l-.05-.1V40l-.05-.1v-1.2l.05-.05V37.6l.05-.1v-1.1l.05-.1v-.85l.05-.1v-.7l.05-.05v-2.2l.05-.05v-.45l.05-.05v-.35l.05-.05v-.8l.05-.1v-.5L.85 30v-.25H.7l-.15-.05-.15-.05-.05-.1-.1-.05-.05-.05-.05-.05-.05-.1v-.05l-.05-.05V29L0 28.95l.05-.05v-.2l.05-.05v-.15l.05-.05.05-.1.05-.05.1-.05.05-.05.15-.1H.7l.15-.05.15.05h.05l.25-.05.15.05h.1l.2-.05h.3L2.2 28h.2l.2-.05h.75l.6-.05h.45l.65-.05H32.6l.65.05h21.5l1.5-.05h1.35l8.7-.05H73l.55-.05.15-.05.15-.05h.35z"/><path d="m29.2 6.3-.1.35q-.1.35-.3.15l-.1-.25-.05-.35.1-1.2.1-.45V4.3l.05-.2.15-.35.05-.75.1-.45.25-1.65.25-.6.55-.25.1-.05.7.45q.25.4 0 .8l-.1.2-.05.3-.15.3-.1.35q-.05.55-.45.9l-.1.7-.2.65-.05.25-.45 1.15zm36.7 28.95-1.85.3-1.1-.05-.85.95-.7.35-1.9.3q-1.7-.1-2.55-.95-.6-.5-.8-1.2-.35-1.3.25-2.5.4-.8 1.1-1.15l-.15-.35-.05-1.8.25-1.35.45-.8q.85-1.35 2.55-2.05 1.45-.65 3.3-.65 2.1 0 3.5.95l1.4-1.35-1.1-.1-.3-.4.2-.35.35-.2 1.9-.65.7-.1.6.05.15.05.3.2.1.1.25.6-.25.85-.15 1-.55 1.35-.55.35q-.5 0-.6-.65l.05-.9.1-.3-.6.5-.9.95.25.3.55.9h.05l.65.1.75.25.8.4q1 .75 1.2 2.05l.05.75q0 .9-.35 1.5l-.5.65-1 1-2.15.25-.85-.2zM50.1 14l.05.4-.2.6-.05.9-.2.3v.4l-.6 5.05h-.35l-.1-1.2-.1-1.2-.3-1.4v-.75l-.1-.35v-.45l-.2-.45v-.45l-.1-.35-.05-.55q-.1-.5.1-.9.4-.75 1.25-.6.8.25.95 1m-3.5 8.45-.35-1.95-.1-.3-.35-.05q-.8.1-1.5-.4-.6-.4-.7-1.25 0-.9.85-1.35l1.65-.1q1.15.35 1.45 1.55l.1 1.05q.15 1.75-.25 2.85l-.45.45q-.35-.15-.35-.5m-7.2.95q-.05-.65.55-1.25.5-.45 1.3-.6l1.5-.2q.85.1 1.25.75.25.45 0 .7h-1.4l-.35.15-.15.5q-.2 1.2-1.4 1.2-.5 0-.95-.4-.35-.35-.35-.85m13.4 4.25.2 1.45q-.15 2.15-1.55 3.75-1.5 1.65-3.55 1.9l-2.55-.05-1.6-.25-.9-.45-.65.15q-.55.25-.5.65 1.05.85 3.9.85.25.25-.15.5l-.45.2-1.95.2-1.95-.3q-1-.4-1.4-1.3-.25-.75.05-1.45.25-.75.95-1.25l.45-.3q-.55-1-.6-2.25-.1-2.05 1.05-3.7.4-.95 1.45-1.6l.7-.4.85-.3 4.65.1 1.15.15.6.35q.8.7 1.1 1.4l.3.75v.1zm-1.1-4.85-.7-.25-.35.05-.25-.2.65-.95q1.1-.5 1.6-.4l.65.3.35.45.2.45q.1.5-.2.85-.15.5-.7.5-.5.05-1-.5zm13.05 4.3-.3-.25q-.25 0-.35.15l-.25.4-.25.45q-.25.1-.35-.2l-.3-.3-.45-.05-.3.35.05.25 1.1.65.15 1.1.15.2.05.1q.15.3.45.15.3-.2.2-.5l-.15-.35.05-.6.1-.35v-.05l.35-.65zm2.8 5.3.35-.5q.15-.35-.25-.75v-.1l-.4-.35v-.05l.35-.7q0-.7-.65-.7-.55.1-.75.55l-.6-.45q-.6-.1-.75.5l.2.55.45.6-.15.35-.05.05-.05.25-.25.3-.05.2.05.2q.1.2.4.2l.45-.3.35-.4.25.25q.65.55 1.1.3m-5.65-2.6q-.4.05-.65.5l-.4.5-.45-.3q-.55 0-.45.5l.05.35.35.3.05.05-.5.95.3.5.6-.1.25-.35.35-.3.15-.15.05.1.2.2q.35.45.65.4.35-.2.3-.55l-.25-.6-.4-.4.05-.05.4-.85q.15-.3-.1-.55zM27.2 16.65l.55-1.85.25-.85.25-.65 1.2-5.65L31.1 1.5h6.05q.55-.75 1.4-.6.9.25.9 1.25l-.4 1-.7 1.95-.25.85-.6 2-1 2.65-.95 1.7-.65 1.45-.6.75-.15-.05-.1-1 .25-.9.5-2.15-1.95 4.95-.15.7 2.55-.25 1.1.1q.75.25 1.05 1.1l.2 1.45-.1.7-.3 1.95q-.8 3.5-2.1 11.7L33.6 41h-6.65q-.4.3-.95.25l-.55-.25h-1.4l1-1.75.15-.85 2.45-8.3q1-3.05 2.55-5.6.25-.4.45-.2l-.05.35-.15.55-.8 3.8 1.75-4.95.9-2.25-1.3-.05h-.3l-.45-.05H30l-.1-.05h-.25l-.1.05h-.25l-.3.05h-.2l-.2.05h-.1l-.3-.05h-.1l-.1-.05-.15-.05-.15-.05-.1-.05-.1-.05-.1-.05-.05.05-.3.85-.35.65-.1.35-.25.25q-.4.1-.4-.5l.2-1.75.35-1.45-.05-.05.05-.1v-.35l.05-.05-.05-.1.05-.05v-.05l.05-.05V19l.05-.05v-.05l.05-.1-.05-.1.05-.05.05-.1v-.15l.05-.1v-.1l.05-.05-.05-.1.05-.05.05-.05v-.15h.05l.05-.25zm-6.15 4.3.15.05.15-.15.3-.3.3-.4q.3-.25.55-.2.45 0 .45.45l-.25.7q.55.15.4.6l-.65 1.15-.05.15.35-.05.25.45q-.2 1-.9 1.6l1.2 6.15.35-.45.6-.45q.5-.25.7.2.15.25-.1.6l-.65 1.7 1 .1.35.55-.15.7-.75.55H23.6l-3.25-.3-1.25-.2v-.25l1.75-.35-.7-.75q-.75-.95-.15-1.65.4-.45 1.05-.2h.05l-.15-1-.25-4.55-.15-.05-.3-.1-.4-.3-.2-.3-.15-.45.15-.5.15-.05v-.05q-.75-.2-.75-.9l.25-.5.1-.05-.15-.25-.2-.5v-.25l.05-.2.5-.5.65.1.3.2.2.2zm-4.75 3.3-.55.7.35.4.5.9.6 1.4.2 1.45q-.15 2.15-1.55 3.75-1.5 1.65-3.55 1.9l-2.55-.05-1.6-.25-.9-.45-.65.15q-.55.25-.5.65 1.05.85 3.9.85.25.25-.15.5-.15.2-.45.2l-1.95.2-1.95-.3q-1.05-.4-1.4-1.3-.25-.75.05-1.45.25-.75.95-1.25l.45-.3q-.55-1-.6-2.25-.1-2.55 1.65-4.45l-.85-1q-.45-.8-.55-1.85l-.05-.8q-1.3-.75-1.9-2L3 18.85 2.95 18l.15-.95q.35-1.65 1.75-2.65 1.1-.7 2-.7 1.45-.05 2.7 1l.5.45.4-.1q1.25-.25 2.4 0 .65-.85 2.15-1.1 1.95-.2 3.3.8 1.15.95 1.35 2.2.2 1.35-.8 2.8l-.7.75-.45.35q-.05 1.7-1.4 3.4m.65-2.15q.55-.75.45-1.5-.05-.65-.6-1.2-.55-.45-1.25-.6-.65-.05-1.3.35-.6.5-.8 1.1-.2.7.1 1.4.3.65.95.95l1.3.2q.75-.2 1.15-.7m-4.6.85q-.6-.25-.7.3l-.95.1q0-.5-.4-.5-.35 0-.55.4l.05.65q.35.75 1.4.6.65 0 .9-.35l.7.25q.85 0 1.2-.4l.25-.4v-.5l-.6-.15-.35.3-.65-.1zm-4.25-.2 1.3.05 1.05-.7q1-1.15.25-2.45-.3-.6-.95-.9l-1.3-.2q-.7.15-1.2.7-.55.5-.6 1.25T7 21.9z"/><path fill="#fff" d="m61.9 29.8.55.15q.25.25.1.55l-.4.85-.05.05.4.4.25.6q.05.35-.3.55-.3.05-.65-.4l-.2-.2-.05-.1-.15.15-.35.3-.25.35-.6.1-.3-.5.5-.95-.05-.05-.35-.3-.05-.35q-.1-.5.45-.5l.45.3.4-.5q.25-.45.65-.5m5.65 2.6q-.45.25-1.1-.3l-.25-.25-.35.4-.45.3q-.3 0-.4-.2l-.05-.2.05-.2.25-.3.05-.25.05-.05.15-.35-.45-.6-.2-.55q.15-.6.75-.5l.6.45q.2-.45.75-.55.65 0 .65.7l-.35.7v.05l.4.35v.1q.4.4.25.75zm-2.8-5.3-.05.5-.35.65v.05l-.1.35-.05.6.15.35q.1.3-.2.5-.3.15-.45-.15l-.05-.1-.15-.2-.15-1.1-1.1-.65-.05-.25.3-.35.45.05.3.3q.1.3.35.2l.25-.45.25-.4q.1-.15.35-.15zM8.1 22.75 7 21.9q-.4-.65-.35-1.4t.6-1.25q.5-.55 1.2-.7l1.3.2q.65.3.95.9.75 1.3-.25 2.45l-1.05.7zm4.25.2.3.2.65.1.35-.3.6.15v.5L14 24q-.35.4-1.2.4l-.7-.25q-.25.35-.9.35-1.05.15-1.4-.6l-.05-.65q.2-.4.55-.4.4 0 .4.5l.95-.1q.1-.55.7-.3m4.6-.85q-.4.5-1.15.7l-1.3-.2q-.65-.3-.95-.95-.3-.7-.1-1.4.2-.6.8-1.1.65-.4 1.3-.35.7.15 1.25.6.55.55.6 1.2.1.75-.45 1.5"/></g></svg>