<svg xmlns="http://www.w3.org/2000/svg" xmlns:ffdec="https://www.free-decompiler.com/flash" ffdec:objectType="shape" width="75.45" height="39.6"><g fill-rule="evenodd"><path fill="#999" d="m73.6 7.2 1.35 2.8q.6 1.9.45 4-.1 1.95-.7 3.55-1.15 2.75-4.35 4.8-4.9 3.35-12.2 3.75-6.75.5-12.3-1.65-2.25-.85-3.75-2l-.2.05-1.7.55-1.85.8q-1.25.4-1.85-.45-.4-.55-.15-1.35l.65-1.2 2.1-3.05q-.2-1.1-.25-2.6 0-2.9.7-4.8.65-1.65 2.1-3.35Q46.25 1.5 52.7.3l5.85-.3 6.4.4q3.5.65 5.75 2.7 1.35 1.3 2.9 4.1M66 4.6q-3.4-1.05-6.8-1l-3.25.15H53.6Q49.05 4 44.7 9q-1.15 1.3-1.6 2.3-.75 1.7-.65 3.6l.1 1.35.1.55.1.3q.3 1.05 1.15 1.9 1.25 1.35 3.95 2.25 4.35 1.55 9.1 1.4 4.7-.2 9-1.95 4.3-1.8 5.45-4.65.8-2.2-.05-4.8-.5-1.7-2.25-4.25-.65-1-1.25-1.5-.55-.4-1.85-.9"/><path d="M54.2 9.15q0-1.75.85-2.6.45-.5 1.6-.85 2.5-.5 3.8.9 1.05 1.05.65 2.65l-.1.4h.1q1 .3 1.75 1.05 1.2 1.15.8 2.5-.1.85-.8 1.45-.75.55-1.65.7l-2.5-.25q.1.75.5 1.35l.95 1.3q.25.55.1 1.25-.2.65-.75 1.1-.55.4-1.25.4-.75 0-1.3-.4-.9-.65-1.2-2.15l-.05-2.25h-.05l-2.55.85q-1.6.25-2.6-.4-1.45-.95-1.25-2.8.2-1.65 1.7-2.7 1.4-.9 3.15-.9h.1zm-51.05 8.6q1.5-5 5-8.3l-.2-1.15-.05-.7-.15-.7-.2-1.35v-.7l-.05-.4q.1-.6.35-1 .25-.5.8-.65l.8-.05 2.5.45 1.65.7 1.65.8.55.45.15-.1 6.25-.5q4.65.55 7.55 3.2 1.4 1.35 2.35 3.15l2.5.25 3.35.85q1.4.4 1.75 1.05.25.55.05 1.25l-.45.85-.8.65-1.7 1.2-1.5 1.4-1.1.55-.25.05q.05 3-.75 5.8-.7 2.55-2.1 4.6l6.85-2 3.15-.8v-.2q-.15-1 .1-1.8.3-.95 1.05-1.35 1.25-.7 2.35.2 1 .75 1.1 2.1l-.1.6 1.6.45q1.3.55 2.15 1.95.8 1.4.65 2.7-.25 1.95-2.45 3-1.35.65-3.85.9l-24.3 3.2-.45.7-.65.55L0 37.45V27.3q1.05-.7 2.2-1.3.35-.2.75-.3-.95-3.7.2-7.95m9.05 3.4-.2 1.4q-.1 1.5 1 2.45l1.05.6q1.65.55 3.15-.3l.8-.3 1.1 1.25q.9.55 2.8.35l.85-.2.55-.5.85-1q.35-.55.25-1.25l-.25-.4-.75-.05-.75.6-.8.55q-.55.25-1.2 0l-.95-.8-.65-1.15-1.1-.05-.6.6-.8.5q-1.35.6-2.15 0-.55-.45-.75-1.55l-.05-.6.1-.65q-.1-.45-.6-.45-.35-.05-.65.3zm-2.75-6.1q-.5.8-.35 1.8.2 1.05 1 1.55.8.55 1.8.4 1.05-.15 1.6-.9.6-.8.5-1.8-.15-1.05-.9-1.65-.9-.65-1.95-.5t-1.7 1.1m19.1 2.7q-.75-.05-1.4.4-.7.4-1 1.1-.3.65-.15 1.45.15.75.7 1.3.5.5 1.3.65l1.45-.15 1.1-1 .35-1.4q-.05-.95-.75-1.6-.7-.7-1.6-.75"/><path fill="#fff" d="M28.55 17.75q.9.05 1.6.75.7.65.75 1.6l-.35 1.4-1.1 1-1.45.15q-.8-.15-1.3-.65-.55-.55-.7-1.3-.15-.8.15-1.45.3-.7 1-1.1.65-.45 1.4-.4m-19.1-2.7q.65-.95 1.7-1.1t1.95.5q.75.6.9 1.65.1 1-.5 1.8-.55.75-1.6.9-1 .15-1.8-.4-.8-.5-1-1.55-.15-1 .35-1.8m2.75 6.1.25-.65q.3-.35.65-.3.5 0 .6.45l-.1.65.05.6q.2 1.1.75 1.55.8.6 2.15 0l.8-.5.6-.6 1.1.05.65 1.15.95.8q.65.25 1.2 0l.8-.55.75-.6.75.05.25.4q.1.7-.25 1.25l-.85 1-.55.5-.85.2q-1.9.2-2.8-.35L18 25l-.8.3q-1.5.85-3.15.3L13 25q-1.1-.95-1-2.45z"/></g></svg>