<svg xmlns="http://www.w3.org/2000/svg" xmlns:ffdec="https://www.free-decompiler.com/flash" ffdec:objectType="shape" width="75.6" height="41.45"><g fill-rule="evenodd"><path fill="#999" d="M36.9.25h25.15L43.45 8.1 45 3.15 38.8 8.1zm27.85 0H75.6v41.2H49.7l-4.75-11.6 8.3 3.05-6.7-7.8 24.9-2-23.8-5.75 12.15-4.8H49.15zM48.1 41.45H16.3L34 29.35l2.45 8.6 2.6-9.9zm-33.95 0H0V.25h17.1l9.65 14.8-9.6-3.15 8.4 7.05h-20l20.6 5.45-10.75 3H26zM19.7.25h15.25l-1 9.8L29.8 3.2v5.5z"/><path fill="#fff" d="M34.95.25h1.95l1.9 7.85L45 3.15 43.45 8.1 62.05.25l.6-.25h2.4l-.3.25-15.6 12.3H59.8l-12.15 4.8 23.8 5.75-24.9 2 6.7 7.8-8.3-3.05 4.75 11.6h-1.6l-9.05-13.4-2.6 9.9-2.45-8.6-17.7 12.1h-2.15L26 27.4H15.4l10.75-3-20.6-5.45h20l-8.4-7.05 9.6 3.15L17.1.25 16.9 0h2.5l.3.25L29.8 8.7V3.2l4.15 6.85z"/><path d="m29.1 19.3-2.15-.9-2.2-1.05q-1-.9-1.4-2-.6-1.2-.45-2.4.05-2.6 2.45-3.85.5-.35 1.15-.7l.9-.85q.65-.65 2.05-.9 2.05-.3 3.85.6 2.35 1.2 4.1 4.55l.95 2.25q1.2-2.3 1.95-3.25 1.5-2.1 3.75-3 .95-.4 2.1-.45L48 7.6q.8.35 1.55 1.3.75.75.85 1.65l.1.45.4.25q.7.25 1 1.05l.35 1.65L52 16l-1.2 1.2-1.65.3-1.5-.15-1.6.35q-1.35.45-2.3 1.1-.25.05-.35.3 2.35 0 4.1.75 3.35 1.3 4.7 4.4l.55 2.55-.75 2.45-1.65 1.25-1.05 2.05-1.95 1.25-2.25.15-1.4-.95-.9-1.7q-1.65-3.8-4.7-6.45-.15.3.05 1.2l.15.9.65.9.6.9q.55 1.2-.3 2.35-1 1-2.25.35-1.45-.7-1.55-2.05l-.1-.9q-.05-.75.05-1.3 0-1.15.15-1.3l.35-1q-2.55 1.75-3.85 4.3-1.15 3.7-3.9 4.5l-1.6.35q-.8-.1-2.05-.85t-1.55-1.9l-.2-.4-.6-.5q-.9-.5-1.25-1.45-.4-.8-.2-1.8-.05-1.9 1.7-3.45 1.05-1 3.3-2.2 2.6-1.3 4.55-1.2l.55-.05zM9.85 8.6q-.65-.25-.55-.9l.1-.3v-.05l.15-1.3.05-.85q.1-.55.35-.8.45-.35.9-.2.5.15.65.65v.65l-.15 1.15.75-.05.1-1.05.2-1q.25-.5.85-.5.55 0 .8.5l.1.65-.1 1.5.1.05.15.15.15.05.25.55-.15.7-.5.45.05.35-.25 1.3q-.3.45-.95.45-.6 0-.9-.5-.4-.5-.2-1.55v-.05h-.85zM5.8 4.95h.1l.05.05.1.05.1.05.05.05.1.05.05.05.05.05.05.1.05.05v.05l.05.05v.1l.05.1V6l.05.1v.45h.6l.2-.05h.1l.15.05h.1l.1.05.1.05.05.05.1.05.05.05.05.1.1.1v.1l.05.05v.45l-.05.05v.1l-.05.05-.05.05v.1L8.2 8l-.05.05-.1.05-.05.05-.05.05-.15.1-.1.05-.15.05h-.2l-.2.05h-.5l.05.05v.7l-.05.05v.1l-.05.05v.05l-.05.1-.05.05v.05l-.1.05-.05.05-.05.05-.1.1-.1.05-.15.05-.1.05h-.5l-.1-.05-.15-.05L5 9.9l-.1-.1-.05-.05-.05-.05-.1-.05V9.6l-.05-.05-.05-.1V9.4l-.05-.05v-.1L4.5 9.2v-.7l.05-.05h-.5l-.2-.05h-.2l-.15-.05-.1-.05-.15-.1-.05-.05-.05-.05-.1-.05L3 8l-.05-.05v-.1L2.9 7.8l-.05-.05v-.1L2.8 7.6v-.45l.05-.05V7l.1-.1.05-.1.05-.05.1-.05.05-.05.1-.05.1-.05h.1l.15-.05h.1l.2.05h.6V6.1L4.6 6v-.25l.05-.1v-.1l.05-.05v-.05l.05-.05.05-.1.05-.05.05-.05.1-.05.05-.05.1-.05.1-.05.05-.05h.5"/></g></svg>