<svg xmlns="http://www.w3.org/2000/svg" xmlns:ffdec="https://www.free-decompiler.com/flash" ffdec:objectType="shape" width="75.2" height="42"><g fill-rule="evenodd"><path fill="#fff" d="m64.2 14.55-.25.15q-.8.45-1.85.7-4.55 1.35-9.4.15-4.35-1.05-7.9-3.8-1.95-.8-3.65-2.05-1.3-.9-2.15-1.8-1-1.3-1.7-2.85-1-2.45-.95-5.05H64.2z"/><path fill="#717171" d="M64.2 14.55v.05l1.3-.75q1.05-.5 3.6-3.8 2.5-3.3 2.85-4.75l.55-2.45.6-1.85q.35-.85 1.15-.7.7.15.9 1.2.15 1.05-.2 2.3l-.9 2.7q.4.25.5.95l-.1.9V22.7l-.05.05v9.3l-.05.05v2.7l-.05.1v1.45l-.05.05v1.1l-.05.1v.6l-.05.1v.1l.05.05.05.1.05.05.05.05.05.05.05.1v.05l.05.05v.05l.05.1v.05l.05.05v.75l-.05.05v.1l-.05.05v.05l-.05.1v.05l-.05.05-.05.05-.05.1-.15.15-.1.1-.1.05-.05.05-.1.05-.15.1h-.15l-.05.05h-.1l-.25.05h-2.45l-1.3.05-.4.3q-.8.65-1.85.5-1-.1-1.55-.75l-.85.15-.5-.05v.2H10.5l-.1.05-.15.05-.15.05H10l-.1.05h-.15l-.3.05-.3-.05h-.6l-1.3-.05H6.3l-1.35-.05h-.4l-.25-.05h-.15l-.2-.05h-.3l-.25-.05h-.1l-.15-.05H2.7l-.2-.05h-.15l-.1-.05h-.1l-.1-.05h-.1l-.15-.05h-.05l-.1-.05h-.1l-.15-.05h-.05l-.15-.05h-.1L.95 41l-.1-.05-.15-.1-.05-.05-.05-.05-.1-.05-.05-.1-.1-.1-.05-.05v-.15l-.05-.05v-.1L.2 40.1v-.05l-.05-.1v-.05l-.05-.05v-.05l-.05-.1v-.4L0 39.2v-.55l.05-.05v-.3L0 38.2V27.6l.05-.05v-.65l.05-.05v-3.1l.05-.05V13.4l.05-.05v-8.9l.05-.1V3.7l.05-.1v-.5l.05-.05v-.4L.3 2.6v-.55L.35 2v-.15L.4 1.8v-.05l.05-.1v-.1L.5 1.5l.05-.1.05-.05V1.3l.05-.05.05-.1V1.1l.05-.05.05-.1.1-.1L.95.8 1 .7l.1-.05.05-.05.1-.05.15-.1h.1L1.55.4h.1l.1-.05h.45l.1.05h.15l.25.05h.15L3 .5l.1.05h.05L3.3.6h1.45l.55.05h.55l.7.05H7.9l.35.05h2.1V0h26q-.05 2.6.95 5.05Q38 6.6 39 7.9q.85.9 2.15 1.8 1.7 1.25 3.65 2.05 3.55 2.75 7.9 3.8 4.85 1.2 9.4-.15 1.05-.25 1.85-.7z"/><path d="m34.6 7.85 2.5-.3h.6l2.5.3.55.05 1.2-.7 4.1-2.4q1.25-.65 1.85-.8l.75-.2.95-1.25 1.75-2.2.3-.35h2.15l.35.9q.35 1.25.4 3.2l.05 3.15q0 1.5.15 2.6l.15 1.35q0 .8-.55 1.25l-1.3.25-1.05-.3v.1l.45.8.6 1.3.35.9.05.55v.15l.1.65-.5.7-.65.15-1.2.15-.9.05.05.15 1.5 2.85.5.95.55 1.85q.5 3 .35 5.75l-.25 1.3-1 1.4-1.1.65-.7-.35-.6-.6-.85-.65v.2l-.2.85v.4q-.1.75-.8.9l-.75-.1-.75-.2h-.2l-.95.1.1.05q2.35.9 3.35 1l2.8-.3q1.1-.25 1.7-.7l.85-1.2.6-1.75.6-1.7.4-.75-.05-1.6-.4-1.25-.6-1-.2-.25-.6-.3q-.4-.2-.3-.6l.4-.35.6.05.6.1.5.4 1.4 1.4.75 1.25.1.2.25-2.05-.35-1.35-.4-.8-.85-.9-.6-.5q-.35-.4-.25-.75.25-.45.95-.3l.85.55.55.35 1.1.95.9 1.2.25.55.35 1.35.15 1.4.2.05.35.1.15-.5.1-1.5-.1-1.5-.25-.75-.1-.8.05-.2q.25-.25.6 0 .5.35 1.2 1.35l.25.4.35 1.05q.2.5.2 1.55l.05.55-.25 1.4-.15.8q.55 1.15.6 2.75l-.25 2.35q-.3 1.2-1.15 2.25-1.7 2.45-4.6 3.8-2.8 1.4-5.85 1.15l-3.5-.75-2.15-.75.15.35 1.25 2.6H27.1l1.15-2.6.2-.35-2.15.75-3.55.75q-3 .25-5.85-1.15-2.85-1.35-4.55-3.8-.85-1.05-1.15-2.25-.25-.9-.25-2.35.05-1.6.6-2.75l-.2-.8-.2-1.4.05-.55q0-1.05.15-1.55l.25-.5.1-.55.3-.4 1.2-1.35q.35-.25.55 0l.1.2-.1.8-.3.75-.05 1.5.05 1.5.2.5.35-.1.2-.05q0-.95.15-1.4L14.7 23l.25-.55.9-1.2 1.05-.95.6-.35.85-.55q.7-.15.9.3.15.35-.2.75l-.6.5-.85.9-.4.8q-.3.5-.35 1.35-.1 1.1.25 2.05l.1-.2.7-1.25q.35-.55 1.4-1.4l.55-.4.6-.1.55-.05.45.35q.1.4-.3.6l-.6.3-.25.25-.35.55-.2.45-.45 1.25-.05 1.6.4.75.65 1.7.6 1.75.85 1.2q.6.45 1.7.7l2.75.3q1.05-.1 3.4-1l.05-.05-.9-.1h-.2l-.75.2-.75.1q-.7-.15-.8-.9l-.05-.4-.15-.85v-.2l-.9.65-.55.6-.7.35q-.5 0-1.15-.65-.75-.8-.95-1.4l-.25-1.3q-.2-2.75.35-5.75l.5-1.85.55-.95 1.5-2.85v-.15l-.85-.05-1.25-.15-.6-.15q-.4-.25-.5-.7-.1-.35.1-.65v-.15l.05-.55.35-.9.6-1.3.45-.9-1.05.3-1.3-.25q-.55-.45-.55-1.25l.1-1.35.2-2.6.05-3.15q.05-1.95.4-3.2L21 0h2.15l.25.35 1.75 2.2 1 1.25.75.2q.6.15 1.85.8l4.1 2.4 1.2.7zM48.8 18.9v-.65l-.15-.6-.2-.55q-.4-.75-1.2-1.2l-1.65-.4q-.8.05-1.45.5l-.05 1.6-.1.65-.35.6-.35.35-1.5-.2-.1-.55q-.3-.3-.6-.1l-.1.5-.05 1.05.5.45.7.15.95-.05h.3l.15.2q.6.6 1.5.85l1.7-.1q.8-.25 1.4-.95.55-.7.65-1.55m-22 3.6q-.15.25-.15.45l-.15.25-.1.75-.1 1.05q0 .55.15 1.1.3 1.2.75 1.8l.7.85.95.8q1.55 1.15 3.8 1.45l1.2.45 1.6.25 2 .05 4.3-.4.85-.35q2.05-.35 3.55-1.45l.9-.8.7-.85.8-1.8.1-1.1-.1-1.05-.05-.75-.2-.25-.1-.45-.45-.1-.45.4-.7.65q-1.1.65-2.85 1l-1.2.05q-2.25 0-3.85-1.7l-.45-.4-.4-.35-.35-.05-.35.05-.4.35-.5.4q-1.6 1.7-3.85 1.7l-1.15-.05q-1.8-.35-2.9-1l-.7-.65-.45-.4q-.2-.1-.4.1m19.4 3.1.6-.45-.05.35-.3.9-1.1 1.2.4-1.75zm-2.35 2.9-.65.3-.4-.45-.35-.6-.75-1.3.8.05.1.05.75 1.15.55.8zm-17.7-9.6q.1.85.7 1.55l1.4.95 1.7.1q.85-.25 1.45-.85l.1-.1 1.55-.05.7-.35.35-.5.25-.65.1-.45-.15-.45-.35-.05-.3.2-.55.85-.15.25-.35.1-.5.1-.75-.7-.35-.6-.15-.65-.05-1.6q-.65-.45-1.45-.5-.8 0-1.65.4-.8.45-1.2 1.2l-.2.55-.15.6zm14 8 .15-.3.15-.05.25.25v.35l-.25 1v.65l-.25.35-.45.05q-.55-.2-.45-.7l.35-.65.2-.5zm-3 1.9v-.55l.35-1.7.1-.2q.2-.1.3.1l.15.65v.5l.05.65v.65l-.5.35q-.4 0-.45-.45m-2.1.25-.1-.3-.2-1.25-.05-.4q.1-.4.4-.3.2-.1.3.1l.3 1.2.1.15.1.35-.05.35-.4.35zm-6.3-3.45.5.25.35 1.75-1.05-1.2-.3-.9-.05-.35zm2.35 2.9h-.05l.6-.8.7-1.15.1-.05.85-.05-.8 1.3-.35.6-.4.45z"/><path fill="#fff" d="M48.8 18.9q-.1.85-.65 1.55-.6.7-1.4.95l-1.7.1q-.9-.25-1.5-.85l-.15-.2h-.3l-.95.05-.7-.15-.5-.45.05-1.05.1-.5q.3-.2.6.1l.1.55 1.5.2.35-.35.35-.6.1-.65.05-1.6q.65-.45 1.45-.5l1.65.4q.8.45 1.2 1.2l.2.55.15.6zm-22 3.6q.2-.2.4-.1l.45.4.7.65q1.1.65 2.9 1l1.15.05q2.25 0 3.85-1.7l.5-.4.4-.35.35-.05.35.05.4.35.45.4q1.6 1.7 3.85 1.7l1.2-.05q1.75-.35 2.85-1l.7-.65.45-.4.45.1.1.45.2.25.05.75.1 1.05-.1 1.1-.8 1.8-.7.85-.9.8q-1.5 1.1-3.55 1.45l-.85.35-4.3.4-2-.05-1.6-.25-1.2-.45q-2.25-.3-3.8-1.45l-.95-.8-.7-.85q-.45-.6-.75-1.8-.15-.55-.15-1.1l.1-1.05.1-.75.15-.25q0-.2.15-.45m17.05 6h.05l-.55-.8-.75-1.15-.1-.05-.8-.05.75 1.3.35.6.4.45zm2.35-2.9-.45.25-.4 1.75 1.1-1.2.3-.9.05-.35zm-20.05-6.7v-.65l.15-.6.2-.55q.4-.75 1.2-1.2.85-.4 1.65-.4.8.05 1.45.5l.05 1.6.15.65.35.6.75.7.5-.1.35-.1.15-.25.55-.85.3-.2.35.05.15.45-.1.45-.25.65-.35.5-.7.35-1.55.05-.1.1q-.6.6-1.45.85l-1.7-.1-1.4-.95q-.6-.7-.7-1.55m8.9 10.15.4.25.4-.35.05-.35-.1-.35-.1-.15-.3-1.2q-.1-.2-.3-.1-.3-.1-.4.3l.05.4.2 1.25zm2.1-.25q.05.45.45.45l.5-.35v-.65l-.05-.65v-.5l-.15-.65q-.1-.2-.3-.1l-.1.2-.35 1.7zm3-1.9-.3.45-.2.5-.35.65q-.1.5.45.7l.45-.05.25-.35v-.65l.25-1v-.35l-.25-.25-.15.05zm-9.05 1.6.65.3.4-.45.35-.6.8-1.3-.85.05-.1.05-.7 1.15-.6.8zm-2.35-2.9-.55-.45.05.35.3.9 1.05 1.2-.35-1.75z"/></g></svg>