<svg xmlns="http://www.w3.org/2000/svg" xmlns:ffdec="https://www.free-decompiler.com/flash" ffdec:objectType="shape" width="78" height="41.95"><g fill-rule="evenodd"><path fill="#999" d="M16.55 9.2q-2.45 3.2-4.85 10.05l-.85 2.65q-1.1 4.15-.5 8.6.6 4.4 2.8 8.1l2.05 2.75.65.6h-4.8Q8.3 38.4 7.2 33.3q-1.2-5.8.3-11.5l.8-2.6q1.3-3.9 2.5-6.75 1.25-2.8 2.2-4.3 2.35-3.55 6.55-6.45L22.3 0h8.05q-9.65 3.85-13.8 9.2M10.5 3.7Q7.9 6.2 6.6 8.8q-.95 1.95-2.1 6.25-1.1 4.75-1.3 6.45-.4 3.85.45 10.15.6 4.3 1.4 6.95l1.3 3.35H2.8q-1.4-3.5-2.1-8.4Q.2 30.05.05 26v-3.45l.9-5.15 1-4.35q.9-3.75 1.4-4.95Q4.75 4.65 8 1.45L9.6 0h5.25Q12 2.2 10.5 3.7m50.45 37.6 3.9-3.95 2.35-2.95q.95-1.6 1.95-5.2l.95-4.25q.6-4.25-.4-10.65-.75-5.2-2.15-7.95-1.6-3.3-5.25-6.35h4.25l2.4 2.95q2.35 3.65 3.45 10.2 1.1 7.35.35 12.8-.9 6.85-4.5 11.85l-3.7 4.15H60.2zm9.55-.8 1.25-3.05Q73.9 31.2 75.2 23.6l.4-3.5q.05-1.75-.55-5.35l-.75-3.95Q72.85 4.85 69.25 0h3.05q3.3 5.1 4.65 11.15l.5 2.7q.55 3.5.55 5.75-.05 3.35-1.3 9-1.6 7.1-2.95 10.5l-1.25 2.85h-2.75zm-22.1 1.45q5.55-1.8 9.95-5.35l2.85-2.75q1-1.3 2-3.65 2.05-5.1 1.6-9.9-.35-3.15-1.9-6.6-2.3-5.05-6.5-8.75Q52.5 1.5 47.85 0h7.75l1.75 1.25q1.1.9 3 3.1l3.3 4.25q2.55 3.85 3.55 8.2 1.1 4.55.35 8.9-.65 3.35-2.25 6.8l-1.75 3.25-2.5 2.5-3.15 2.65-1.55 1.05zM25.7 9.25q-.95.85-2.35 2.75-2.9 4.05-4.1 7.4-1.65 4.3-1.2 8.3l.7 3.7q.5 2.1.95 3.05 1.3 2.95 4.8 5.25 2.1 1.35 4.55 2.25h-7.7q-3.3-2.3-4.85-5.4-.75-1.45-1.3-3.9-1.5-6.1-.5-10.75.85-4 4.1-9.15 3.75-5.8 7.6-8 4.1-2.4 8.8-1.85 3.65.35 5.1 2.65l.15.9q-.25.45-.85.25l-.85-.5q-1.35-.85-3.6-.75-5.75.25-9.45 3.8"/><path d="M27.55 38.2q-3.7-1.6-5.3-3.4-2.9-3.15-2.9-9.35 0-5.4 2.15-10.2l-.2-.65v-.1l-.5-1.1-.4-1.6-.25-.5-.85-3.15q-.55-1.9-.6-3.3l.2-1.2q.4-.75 1.2-.9l1.2.1q2.5.65 6.5 2.9l1.25.65q4.75-3 11.1-3.1 4.3-.1 7.6 1.4 1.6.7 3.25 1.95 1.2-.7 3.55-1.5l1.05-.35v.25l-.05.85-.3 3.4.05.4q.2.55 1.05.65l1.3.15.5.15.6.05 1.25.25-1.7 4.25.25.6q.65 1.5 1 4.1.6 4.85-.7 9.2-1.45 4.7-4.85 7.5-5.25 4.3-15.85 3.9l-5.4-.6q-2.2-.45-5.2-1.7M49.5 26.75l-5.3 1.55.65.5 3.6 4.15 1.8-4.05.75-2.05.3-.8-.15.05zm5.2 4.55.2-.2-.3-.35-2.15-2.65-2.85 6.55q3.25-1.4 5.1-3.35m-1.9-5.6h-.1l.7.7 2.55 3.15.1-.25q.4-1.25-.2-2.35Q55 25.5 52.8 25.7m-3.85-2.5 2.6.4 2.25-.45 1.25-.95.85-.85.85-2.15q.4-1.7 0-3.1-.45-1.55-1.75-2.7-1-.95-2.75-1.65l-1.1-.4-1.65-.15-2.65.2q-1 .25-1.9 1.25-1.25 1.25-1.9 3.2-.8 2.75.05 5.35.25.9.65 1.4.9 1.15 2.35 1.15.05-.55-.3-1.35l-.6-1.3q-.5-1.2-.25-2.4.15-1.15.9-2.25l1-1.2q.95-.7 2.6-.7t2.8.8q1.45 1.05 1.45 2.5l-.35 1.55-.95 1.25-1.1.3q-.85.1-1.3-.35-.45-.3-.45-1.15l.4-1.2.25-.25q.2-.05.5.25l.35.45q.5.2.7-.35.2-.3 0-.8-.4-1.05-1.45-1.45l-2 .1q-1.3.7-1.55 2.45-.25 1.4.35 2.65.65 1.35 1.85 1.9m-1.2 11.85L44 30.9q-1.3 2.3-2.05 4.85l-.4 1q3.3-.4 6.45-1.5zM27 11.6q-.35.6.2 1.05l1.05.15.4-.35 2.6-2.15L34 8.35l.75-.55.65-.75q.25-.7-.35-.85l-.55.1q-.55.2-1.8 1.05l-5.2 3.7zm8.45-.3.75-.45 1.75-1.5 1.85-1.4.35-.45-.25-.5-.6-.1q-.35.05-1.15.6l-2.9 2.15-.5.5q-.25.4 0 .8.25.45.7.35M29.3 22.05l.25.6.9.1q.4-.2.6-.75l.1-1.05-.2-.85-.85-1.5q-.3-.3-1.1-.6-1.9-.8-3.5-.45l-1.05.3q-2.4 1-3 2.75-.3.8-.3 2.05-.1 1.35.2 2.15l.55.85.75.6 2.15.55 2.4-.55q1.2-.75 1.2-2.05l-.1-.85q-.2-1.1-.6-1.6-.65-.85-1.55-.7-.4.05-.9.4l-.4.4q-.1.45.35.65l.7.35.15 1.05-.65.5-.85-.1-.85-.6-.1-.7q0-1.2.3-1.65l.5-.55q1.15-.9 2.3-.75l1.05.2.75.2.35.4zm10.5-7.2.5-.65.3-.55q0-.4-.45-.4l-.6.15q-.85.5-1.7 1.95l-.95 1.4-.1-.1L35 15l-.8-.75q-.8-.35-1.3.25-.6.5-.25 1.3l.5.65 2.05 1.7.45.3-.35.4-1.65 2.4q-.75.85-.75 1.35-.1.45.4.75.5.25.9 0l.65-.9 2-3.05 2.4 2.05 1.3.8.7.05.15-.4-.2-.45-1.15-1.65-1.5-1.55-.55-.6zM29.25 35.8l.75.2q-1.6-2.15-2.6-4.45l-1.7 2.9.1.05zm-5.85-4.5q-.15 1.45 1.4 2.6l2-4.25.15-.3-1.65-.1q-.75.15-1.3.75-.55.55-.6 1.3m15.5 5.65h.65l-.1-.15-4.75-4.9-2.45 4.4-.1.15zm-5.7-6.9-4.25-.2.15.35q.9 2.35 2.15 4.05l2.7-4.25zM35.9 29l.05.8h-.15l.25.7 1.05 1.25 3.15 2.95q1.1-2.9 2.7-5.75l.25-.4-4.3.75-.05-.45q-.1-.75-.4-1.1-.4-.55-1.05-.55t-1.05.5q-.35.5-.45 1.3"/><path fill="#fff" d="M48.95 23.2q-1.2-.55-1.85-1.9-.6-1.25-.35-2.65.25-1.75 1.55-2.45l2-.1q1.05.4 1.45 1.45.2.5 0 .8-.2.55-.7.35l-.35-.45q-.3-.3-.5-.25l-.25.25-.4 1.2q0 .85.45 1.15.45.45 1.3.35l1.1-.3.95-1.25.35-1.55q0-1.45-1.45-2.5-1.15-.8-2.8-.8t-2.6.7l-1 1.2q-.75 1.1-.9 2.25-.25 1.2.25 2.4l.6 1.3q.35.8.3 1.35-1.45 0-2.35-1.15-.4-.5-.65-1.4-.85-2.6-.05-5.35.65-1.95 1.9-3.2.9-1 1.9-1.25l2.65-.2 1.65.15 1.1.4q1.75.7 2.75 1.65 1.3 1.15 1.75 2.7.4 1.4 0 3.1l-.85 2.15-.85.85-1.25.95-2.25.45zm3.85 2.5q2.2-.2 3.05 1.25.6 1.1.2 2.35l-.1.25-2.55-3.15-.7-.7zm1.9 5.6q-1.85 1.95-5.1 3.35l2.85-6.55 2.15 2.65.3.35zm-5.2-4.55 1.65-.65.15-.05-.3.8-.75 2.05-1.8 4.05-3.6-4.15-.65-.5zm-1.75 8.3.25.2q-3.15 1.1-6.45 1.5l.4-1Q42.7 33.2 44 30.9zm-18.45-13-.45-1.2-.35-.4-.75-.2-1.05-.2q-1.15-.15-2.3.75l-.5.55q-.3.45-.3 1.65l.1.7.85.6.85.1.65-.5-.15-1.05-.7-.35q-.45-.2-.35-.65l.4-.4q.5-.35.9-.4.9-.15 1.55.7.4.5.6 1.6l.1.85q0 1.3-1.2 2.05l-2.4.55-2.15-.55-.75-.6-.55-.85q-.3-.8-.2-2.15 0-1.25.3-2.05.6-1.75 3-2.75l1.05-.3q1.6-.35 3.5.45.8.3 1.1.6l.85 1.5.2.85-.1 1.05q-.2.55-.6.75l-.9-.1zM35.9 29q.1-.8.45-1.3.4-.5 1.05-.5t1.05.55q.3.35.4 1.1l.05.45 4.3-.75-.25.4q-1.6 2.85-2.7 5.75l-3.15-2.95-1.05-1.25-.25-.7h.15zm-2.7 1.05.75-.05-2.7 4.25Q30 32.55 29.1 30.2l-.15-.35zm5.7 6.9-6.75-.5.1-.15 2.45-4.4 4.75 4.9.1.15zM23.4 31.3q.05-.75.6-1.3.55-.6 1.3-.75l1.65.1-.15.3-2 4.25q-1.55-1.15-1.4-2.6m5.85 4.5-3.45-1.3-.1-.05 1.7-2.9q1 2.3 2.6 4.45z"/><path fill="#999" d="M35.45 11.3q-.45.1-.7-.35-.25-.4 0-.8l.5-.5 2.9-2.15q.8-.55 1.15-.6l.6.1.25.5-.35.45-1.85 1.4-1.75 1.5zm-8.45.3.5-.55 5.2-3.7q1.25-.85 1.8-1.05l.55-.1q.6.15.35.85l-.65.75-.75.55-2.75 1.95-2.6 2.15-.4.35-1.05-.15q-.55-.45-.2-1.05m12.8 3.25-1.8 2.8.55.6 1.5 1.55 1.15 1.65.2.45-.15.4-.7-.05-1.3-.8-2.4-2.05-2 3.05-.65.9q-.4.25-.9 0-.5-.3-.4-.75 0-.5.75-1.35l1.65-2.4.35-.4-.45-.3-2.05-1.7-.5-.65q-.35-.8.25-1.3.5-.6 1.3-.25l.8.75 1.8 1.65.1.1.95-1.4q.85-1.45 1.7-1.95l.6-.15q.45 0 .45.4l-.3.55z"/></g></svg>