<svg xmlns="http://www.w3.org/2000/svg" xmlns:ffdec="https://www.free-decompiler.com/flash" ffdec:objectType="shape" width="75.3" height="42.65"><g fill-rule="evenodd"><path fill="#999" d="M16 .75h.2l.1.05h.15l.15.05.1.05.1.05.1.1.05.05.05.05.15.15.05.1.05.05v.05l.05.05.05.05v.05l.05.1.05.05 1.65-.25H72V1.4l.05-.1v-.15l.05-.05v-.05l.05-.1V.9l.05-.05V.8l.1-.1.05-.1.05-.05.05-.05.1-.05.05-.05.05-.05.1-.1.1-.05.15-.05.15-.05.15-.05h.35V0l.25.05h.1l.15.05.15.05.1.05.1.05.1.1.1.05.2.2.05.1.1.1v.05l.05.05.05.05v.15l.05.05v.1l.05.05v.15l.05.05v.3l-.05.05V2l-.05.1v1.2l.05.05v.85l.05.05V39.2l-.05.05v1.05l-.05.05v.25l-.05.05v1.1l-.05.05v.1l-.05.1v.05l-.05.05v.05l-.05.05v.05l-.05.1-.05.05-.05.05v.05l-.1.05-.05.05v.05h-34.2l-.1-.05v-.05l-.1-.1-.05-.1v-.05l-.05-.05-.05-.05v-.05l-.05-.05V42l-.05-.05v-.15l-.05-.05v-.15l-.05-.05v-.05l-.1-.1-.05-.1-.1-.05-.05-.05-.05-.05-.05-.05v-.05l-.1-.1-.1-.1-.05-.05-.05-.05v-.1l-.05-.05v-.05l-.05-.05-.05-.05v-.05l-.05-.1-.05-.05v-.05l-.05-.05-.05-.05v-.05l-.1-.1v-.05l-.05-.05-.05-.05-.05-.05v-.05l-.05-.1-.05-.05-.05-.05v-.05l-.05-.05v-.05l-.05-.1v-.05l-.05-.05-.05-.05v-.05L38.2 39l-.05-.1-.15-.15v-.05l-.05-.05-.05-.1v-.1l-.05-.05-.05-.05v-.05l-.05-.1-.1-.1v-.05l-.1-.1-.05-.1-.05-.05v-.05l-.05-.05-.05-.05v-.05l-.05-.1-.1-.1v-.05l-.05-.05-.05-.05v-.1l-.05-.05v-.05L37 37l-.05-.05-.05-.05v-.1l-.05-.05v-.05l-.05-.05-.05-.05v-.1l-.05-.05v-.05l-.05-.05v-.05l-.05-.05-.05-.1v-.05l-.05-.05V36l-.05-.05v-.05l-.05-.1v-.05l-.05-.05-.05-.05-.05-.05-.05-.05v-.1l-.05-.05v-.05l-.05-.05v-.05l-.05-.05v-.1l-.1-.05V35l-.05-.05-.05-.05v-.05l-.05-.1-.05-.05-.05-.05v-.05l-.1-.1-.05-.1-.05-.05v-.05l-.05-.05v-.05l-.05-.05v-.1l-.05-.05v-.05l-.1-.1-.05-.05-.05-.1v-.05l-.05-.05-.05-.05-.05-.05v-.05l-.05-.1-.05-.05v-.1l-.1-.1-.05-.1-.05-.05v-.05l-.05-.05v-.05l-.05-.05-.05-.1v-.05l-.1-.05v-.05l-.1-.1v-.1l-.05-.05-.05-.05-.05-.05v-.05l-.05-.1-.05-.05-.1-.1v-.05l-.05-.05-.05-.1v-.05l-.05-.05v-.05l-.1-.1-.05-.1-.05-.05v-.05l-.05-.05-.05-.05-.05-.05v-.1l-.05-.05v-.05l-.05-.05v-.05l-.05-.05v-.1l-.05-.05-.05-.05v-.05l-.05-.05v-.05l-.05-.1-.05-.05-.1-.1-.05-.05-.05-.05-.05-.1-.1-.1v-.05l-.05-.05v-.05l-.05-.1-.05-.05v-.05l-.05-.05-.05-.05v-.15l-.05-.05v-.05l-.05-.05V29l-.05-.05v-.1l-.05-.05-.05-.05v-.05l-.05-.05-.05-.05-.05-.1-.05-.05v-.05l-.05-.05-.05-.05-.05-.05v-.1l-.05-.05v-.05L31.8 28v-.05l-.05-.05v-.1l-.05-.05v-.05l-.1-.1-.05-.1v-.1l-.05-.05-.05-.05v-.05l-.05-.1-.05-.05v-.05L31.3 27l-.05-.05v-.05l-.05-.1-.1-.1v-.05l-.05-.05v-.05l-.05-.1v-.05l-.05-.05-.05-.05-.05-.05-.05-.05-.05-.1v-.05L30.7 26l-.05-.05v-.05l-.05-.05v-.1l-.05-.05v-.05l-.05-.05v-.05l-.05-.05-.05-.1-.1-.05v-.05l-.1-.1-.05-.05-.05-.1V25l-.05-.05v-.05l-.05-.05-.05-.05v-.1l-.05-.05-.05-.05v-.05l-.05-.05-.05-.05v-.1l-.05-.05-.05-.05-.05-.05-.05-.05v-.05l-.05-.1-.1-.1v-.05l-.05-.05v-.05l-.05-.1-.05-.05v-.05l-.1-.1-.05-.1-.05-.05-.1-.1-.05-.05v-.05l-.05-.1-.05-.05v-.05l-.05-.05-.05-.05v-.05l-.05-.1-.05-.05-.1-.1-.05-.05-.05-.05-.05-.1v-.05l-.05-.05-.05-.05v-.05l-.05-.05v-.1l-.05-.05v-.05l-.05-.05v-.05l-.05-.05-.05-.1-.05-.05-.05-.05-.05-.05-.1-.1-.05-.1-.05-.05-.05-.05-.05-.05v-.05L27.5 21v-.1l-.05-.05v-.05l-.05-.05v-.05l-.05-.05-.05-.1-.1-.1-.05-.05-.05-.05-.05-.05v-.1l-.05-.05-.05-.05v-.05L26.9 20v-.05l-.05-.1-.1-.1-.05-.05v-.05l-.05-.05-.05-.1-.1-.1-.05-.05-.05-.05v-.05l-.05-.1v-.05l-.05-.05V19l-.05-.05v-.1l-.05-.05-.05-.05v-.05l-.1-.05v-.05l-.05-.1-.05-.05-.05-.05-.05-.05-.1-.1-.05-.1v-.05l-.05-.05-.05-.05-.05-.05v-.05l-.05-.1-.05-.05-.05-.05-.05-.05-.1-.1-.05-.1-.1-.1v-.05l-.1-.1-.05-.1v-.05L24.9 17l-.05-.05v-.05l-.05-.05v-.1l-.05-.05-.05-.05-.15-.15-.05-.1-.05-.05-.05-.05-.05-.05v-.05l-.05-.05v-.1l-.05-.05-.05-.05-.05-.05-.05-.05v-.05l-.05-.1-.1-.1v-.05l-.1-.1-.05-.1v-.05l-.05-.05-.15-.15-.05-.1-.05-.05-.05-.05-.05-.05v-.05l-.05-.05-.05-.1v-.05l-.05-.05-.05-.05-.05-.05v-.1L23 14.2l-.05-.05v-.05l-.05-.1-.05-.05v-.05l-.05-.05-.1-.1-.05-.1-.05-.05v-.05l-.05-.05-.05-.05-.05-.05v-.1l-.05-.05v-.05l-.05-.05v-.05l-.05-.05-.05-.1-.05-.05v-.05l-.05-.05-.05-.05v-.05l-.05-.1-.05-.05v-.05l-.15-.15-.05-.1-.1-.1-.05-.05v-.05L21.6 12l-.05-.1-.05-.05v-.05l-.05-.05-.05-.05v-.05l-.05-.1-.05-.05-.05-.05-.05-.05v-.05l-.05-.05-.05-.1-.05-.05-.05-.05-.05-.05-.05-.05-.05-.05-.05-.1-.1-.1v-.05l-.1-.05v-.05l-.05-.1-.05-.05v-.05l-.05-.05-.05-.05v-.1l-.05-.05v-.05l-.05-.05-.05-.05v-.05l-.1-.1V9.8l-.05-.05-.05-.05-.1-.1-.05-.1v-.05l-.1-.05-.05-.05-.05-.05-.05-.05-.05-.1-.15-.15v-.05l-.05-.05-.05-.1v-.05l-.05-.05v-.05l-.05-.05-.05-.05v-.1l-.05-.05-.05-.05-.05-.05-.05-.05-.05-.05-.05-.1-.05-.05V8l-.1-.1-.05-.05-.05-.1V7.7l-.05-.05-.05-.05-.05-.05-.05-.05v-.1l-.05-.05-.05-.05-.05-.05-.05-.05-.05-.05v-.1L18.1 7l-.15-.15-.1-.05v-.1l-.1-.05V6.6l-.05-.05V6.5l-.05-.05-.05-.1V6.3l-.05-.05-.05-.05v-.05l-.05-.05-.05-.1-.1-.1-.05-.05-.05-.05-.05-.1-.1-.1v-.05l-.1-.1v-.1l-.05-.05-.1-.1v-.05l-.1-.05V5l-.05-.05-.05-.05-.05-.05-.05-.05-.05-.05-.05-.1-.05-.05v-.05l-.05-.05-.05-.05V4.4l-.05-.1-.1-.1v-.05l-.1-.1-.05-.1-.05-.05v-.05l-.05-.05v-.05l-.05-.05-.05-.1-.1-.1v-.05l-.05-.05-.05-.05v-.1l-.05-.05-.05-.05V3.1l-.05-.05-.05-.05-.05-.1v-.05l-.05-.05-.05-.05v-.1l-.05-.1-.05-.05v-.1l-.05-.05V2.2L15 2.15V2.1l-.05-.05v-.4l.05-.1V1.5l.05-.05v-.1l.05-.05.05-.1.05-.05V1.1l.1-.05.05-.05.05-.05.1-.1.15-.05h.1l.1-.05zM41.95 35.6l.05.1h-.25q-.85 0-1.15.25-.35.2-.5.7l-.2.65q-.05.85.6 1.5.6.6 1.5.6h.05l.3.15 1-.05.8-.65q.7-1.05-.25-2.25l-.05-.05-.4-1.65-.15-.75-.9-3.05-.15-.5.45-.25 1.15-.75.8-.4.4-.7q0-.75-.9-.75l-1.25.2-1.6.25-.7.35q-.6.3-.6.95l.1.4zm3.1-26.45.35 1.1-1.6.25-1.1.3-.1-.7v-.2q.1-.15.3-.15zM40.4 10l.25.9.6 3.95q0 .95.4 1.25l.65.2.9-.05q1.15-.45 1.05-1.6 0-.5-.35-.9-.35-.45-.85-.55l-.15-1 .45-.2 2.3-.6.05.3.55 2.35q.2.7.7.7H47l.7.2 1.05-.8.4-.75q.15-.55-.25-1.05l-.9-.55h-.8l-.05-.45-.2-1.65-.3-1.15.05-.6-.05-.6q-.25-.45-.8-.55l-.95.1q-1.8.35-3.65 1.05l-.75.4q-.4.3-.4.7zm20.7.75.1.25q-.3.05-.55.25l-.55.6-.2.9q-.1.7.05 1.05l.5.75q.75.5 1.5.35l.95-.55.2-.05.2-.25q.2-.45 0-1.65l-.4-2.25-.05-.6.2-.15.55-.55.6-.4.5-.45q.35-.6-.2-1.05-.2-.2-1.35-.35h-.9l-.5.15-.65.2q-.65.4-.4 1.2l.15.45.1.85.15.7z"/><path fill="#fff" d="M61.1 10.75v-.6l-.15-.7-.1-.85-.15-.45q-.25-.8.4-1.2l.65-.2.5-.15h.9q1.15.15 1.35.35.55.45.2 1.05l-.5.45-.6.4-.55.55-.2.15.05.6.4 2.25q.2 1.2 0 1.65l-.2.25-.2.05-.95.55q-.75.15-1.5-.35l-.5-.75q-.15-.35-.05-1.05l.2-.9.55-.6q.25-.2.55-.25zM40.4 10l-.3-.95q0-.4.4-.7l.75-.4q1.85-.7 3.65-1.05l.95-.1q.55.1.8.55l.05.6-.05.6.3 1.15.2 1.65.05.45h.8l.9.55q.4.5.25 1.05l-.4.75-1.05.8-.7-.2h-.05q-.5 0-.7-.7l-.55-2.35-.05-.3-2.3.6-.45.2.15 1q.5.1.85.55.35.4.35.9.1 1.15-1.05 1.6l-.9.05-.65-.2q-.4-.3-.4-1.25l-.6-3.95zm4.65-.85-2.15.6q-.2 0-.3.15v.2l.1.7 1.1-.3 1.6-.25zm-3.1 26.45-1.85-5.7-.1-.4q0-.65.6-.95l.7-.35 1.6-.25 1.25-.2q.9 0 .9.75l-.4.7-.8.4-1.15.75-.45.25.15.5.9 3.05.15.75.4 1.65.05.05q.95 1.2.25 2.25l-.8.65-1 .05-.3-.15H42q-.9 0-1.5-.6-.65-.65-.6-1.5l.2-.65q.15-.5.5-.7.3-.25 1.15-.25H42z"/><path d="m69.55 21.1.45 1.1.1.3.3.35q.5.5.5 1.3-.05.7-.65 1.3l-1.25.5-1.75-.2q-1.05-.65-.8-1.9.3-1.2 1.45-1.6l-.3-.55q-.45-1.1-.85-3.5v-.3l-.5-.55q-.15-.6.4-1l1.1-.2.9-.2q.45-.15.9 0 .55.1.55.65l-.5.9-.95 1.3-.1.1.55 1.2zm-55-5.3q.3-1.1.75-2.05v-.85q0-3.2.15-4.25.2-1.4.65-2.1.8-1.05 1.85-1l.95.25L22 7.15q2.1-.9 4.45-.95 4.05 0 7.1 2.35l1.9 1.9 1.65-.1 1 .1q.75.15 1.2.7.5.5.5 1.3l-.25.95-1.25 3.4-.35.65v.75q0 5.45-4.05 10-1.65 1.8-3.4 2.55l-1.2.35.15.4 1.95.35q1.55.2 4 0 7.55-.7 12.1-3.65 2.8-1.85 4.45-4.55 1.65-2.8 1.7-5.75l-1.45.55-1.7.25-.55-.1q-.95-.3-1.2-.7l-.25-.75-2.25 2.4-3.6 3.65-2.95 2.85-.6.4q-.5 0-.5-.65 0-.35.35-.8 1-1.65 2.9-4l4.55-5.7-.15-.15q-.6-.55-.6-1.5 0-.9.55-1.6.8-1.15 2.85-1.6l1.5-.2.05-.1.1-.2.25-.35.55-.65q.5-.55 1-.5l.15-.05q.55 0 .95.4l.45.9-.1.85q1.25.4 2.05 1.35.85 1.05 1.15 3.1.55 4.2-1.35 8.4-1.8 4.05-5.25 6.8-3.25 2.65-7.65 3.9-4.1 1.15-8.6 1l-3.3-.45q1.1 2.1 2.15 3.3l1.35 2 .65.8 1.45 1.9H25.4l-.4-.15-1.25-.65.2.5.05.3h-4.95l-.3-.85-.7-2.85-.1-2.25v-.5l.05-1.1v-.5l.05-.2-2.7 2.3q-3.8 2.6-8.5 2.15l-2.5-.65q-.9-.45-1.9-1.5Q.6 34.75.15 31.95q-.5-2.8.65-5.2 1.05-2.25 2.85-3l2.1-.4q1.75 0 2.8.8Q9.9 25.2 9.9 27q0 1.55-1 3.05-1.55 2.45-3.85 2.5.7 1.45 2.5 1.9 1.3.3 3.2-.05 4.8-1.05 7.75-5.2l-1.9-1.8q-3.15-3.65-2.55-9.45.1-.9.4-1.5zm35.7-.8-.35.15-.1.35-.15.3.8-.25.2-.05zM62 31.15l-3.4-.35-.2.8.3.05 2.05.35 1.1.2zm-7 1.8h.3l.15-.25.95-3.3q.1-.6.35-.85.5-.5 1.3-.4l1.4.3h1.4l1.95-.1 1.15.15.65.6.1.9-.45.95-.15.8q-.35 2.65-1.55 5.35l-.55.75-.6.65-1.75-.05q-.75-.35-.9-1.05-.2-.9.6-1.8l.55-.45 1.2.05.4-1.5-1.15-.2-1.65-.2-.85.1-.05.05-.45 1.4-.55.95-1.1.75q-.8.5-1.65.25-.95-.3-1.1-1.1v-.85q.15-.85.65-1.4.6-.65 1.4-.5M36.1 19.9q-.55-1-1.45-1.3l-1.4 1.3q-1.25 1-2.5 1.4l.05.5q.25 1.4 1.45 1.95l2.45.15q1.25-.55 1.65-1.9.25-.85-.05-1.65zm-14.45 5.65q-.15.3.05.65l.6.45 2.5.1 1.85-.85.35.15 2.3.5 1-.2.45-.45.25-.5-.45-.4-.6-.05q-.85 0-1.55-.6l-.7-.6-1.3.05q-.3.1-.65.3l-1.3.85-1.4.35-.75-.1q-.5 0-.65.35m2.05-3 .25-1.15q-1.25-.3-2.3-.8-2.3-.95-3.3-1.95l-.2-.2-.1.05-.75 1.1-.15.55q-.3 1.5.55 2.75.3-.25.85-.4l1.55-.3 2.1.1 1 .15.45.2z"/><path fill="#fff" d="m23.7 22.55-.05.1-.45-.2-1-.15-2.1-.1-1.55.3q-.55.15-.85.4-.85-1.25-.55-2.75l.15-.55.75-1.1.1-.05.2.2q1 1 3.3 1.95 1.05.5 2.3.8zm-2.05 3q.15-.35.65-.35l.75.1 1.4-.35 1.3-.85q.35-.2.65-.3l1.3-.05.7.6q.7.6 1.55.6l.6.05.45.4-.25.5-.45.45-1 .2-2.3-.5-.35-.15-1.85.85-2.5-.1-.6-.45q-.2-.35-.05-.65M36.1 19.9l.2.45q.3.8.05 1.65-.4 1.35-1.65 1.9l-2.45-.15q-1.2-.55-1.45-1.95l-.05-.5q1.25-.4 2.5-1.4l1.4-1.3q.9.3 1.45 1.3"/></g></svg>