<svg xmlns="http://www.w3.org/2000/svg" xmlns:ffdec="https://www.free-decompiler.com/flash" ffdec:objectType="shape" width="27.05" height="28.15"><g fill-rule="evenodd"><path d="m23.15 18.2.1-.15q.85-.65 2.05-.3 1.15.3 1.55 1.3.55 1.35-.55 3.35-2.4 4.05-7.5 5.3-4.2 1.05-9.3-.4-6-1.8-8.2-5.85-1.1-2-1.25-4.95-.4-5.6 2.7-10.4 1.85-2.95 4.4-4.35Q8.9.75 11.75.3L16.5.2q2.15.4 4 1.85 1.75 1.45 2.75 3.45 1.95 4.15.35 8.65-.6 1.75-1.65 3.15l-1.85 1.75q-1.75 1.2-3.95 1.4-2.2.25-4.25-.5-2.5-.85-3.55-2.65-.85-1.4-.75-3.35 0-1.85.8-3.4Q9.65 8.1 12.2 7.4q2.75-.65 4.75 1.05Q18.25 9.6 18.2 11q0 .7-.5 1.3-.55.6-1.25.65L15 12.6l-1.4-.1q-.55.2-.7.7-.4.8.35 1.55.6.5 1.55.6 1.65.1 2.9-1.2 1.05-1.05 1.4-2.8.4-2.1-.5-3.85-1.1-1.9-3.05-2.3l-3 .25q-2.15.5-3.2 1.15Q7.5 7.85 6.2 11.1q-.95 2.65-.95 4.35-.1 2.45 1.25 4.2 1.5 1.95 5.05 2.8l5.5.45q3.1-.5 4.6-2.75l.75-1.1z"/><path fill="#fff" d="M21.95 17.3q.5.15.9.55l.3.35-.75.85-.75 1.1q-1.5 2.25-4.6 2.75l-5.5-.45Q8 21.6 6.5 19.65q-1.35-1.75-1.25-4.2 0-1.7.95-4.35 1.3-3.25 3.15-4.5 1.05-.65 3.2-1.15l3-.25q1.95.4 3.05 2.3.9 1.75.5 3.85-.35 1.75-1.4 2.8-1.25 1.3-2.9 1.2-.95-.1-1.55-.6-.75-.75-.35-1.55.15-.5.7-.7l1.4.1 1.45.35q.7-.05 1.25-.65.5-.6.5-1.3.05-1.4-1.25-2.55-2-1.7-4.75-1.05-2.55.7-3.8 3.15-.8 1.55-.8 3.4-.1 1.95.75 3.35 1.05 1.8 3.55 2.65 2.05.75 4.25.5 2.2-.2 3.95-1.4z"/></g></svg>