<svg xmlns="http://www.w3.org/2000/svg" xmlns:ffdec="https://www.free-decompiler.com/flash" ffdec:objectType="shape" width="71" height="44.1"><g fill-rule="evenodd"><path fill="#999" d="m41.05 12.65 1.4 2.1.7 1.35q.3.9-.25 1.45l-.8.6-.75.85-1.65 1.2-.65.3-.5.2.3-.25.25-.2h.05l.55-.05.65-1.1.2-.45v-.4l.15-.45q0-.45-.4-.7l-.75.15-.2.3-.4.85h-.55l-.95-.1q-.35.05-.6.4t-.2.75l.5.75.5.45.65.15-3.05.65-3.9.25-2.2-.35q-.75-.4-1.1-1.55-.25-.8-.25-1.95l-.35-8.45.3.2.6-.05.25-.55.15-.6.15-.9v-.2l.5-.25.2-.2.25-.1.35-.4-.3-.5-.55-.1-.85-.1V5.3l-.05-.7-.2-.25q-.25-.15-.55 0-.15.1-.2.45l-.55.65-1.25-.15q-.45.1-.6.55-.1.55.25.8l.4.2-.2.3q-.15.4 0 .75.2.35.6.35l.4-.1.15.3.55.75-4.4-1.6-1.75-1.05q-.85-.85-.8-1.85.1-1.15 1.25-1.8.9-.5 2.25-.6 3.65-.35 8.3 1l.95-.1.4.15-.1.1-.45.55-.4.75.1.45.35.2.4-.15.6-.15.55-.3.1-.05v.05l.1.7.25.6.75.15.45-.65.05-.15.2.45 1 1.25 1.45 2.15q-.25.2-.35.55l-.25.4-.25.2q-.2.1-.3.6l.15.5.5.15.25-.05h.15l.95-.15v1.45l.2.65q.25.35.55.2.6-.3.6-1.15m15.25 21.7 2.3-1.65q1.5-1.05 2.25-1.1.8 0 1.4.6l.25.3 1.35.2 1 .9.8.55q.5.45.7 1.45l.2 1.55q-.15 1.4-2.2 3.25l-.9.8-1.25.95-2.5.55q-1.8.2-3 0l-1.15-.1-1.05.2-1.5-.35-1.1-.3.65-.15.6-.3.5-.45.1-.6-.35-.45-.95.05-1.45.45-.1-.45-.35-.85-.3-.4-.75-.1q-.45.1-.65.45l-.15 1.45-.75.15-.7.4-.4.7-.9.1-1.85.45-4.1.15-4.1-.2h-1.05v-.05l.45-.9-.15-1.05-.3-.9q-.35-.6-1.05-.4t-.8.85l.05.15-.4.6-.4 1 .1.6-5.25-.15h-.2l.3-.4.05-.4v-.6l-.15-.2-.05-.15q-.2-.3-.6-.3l-.7.1-.8.4-.05-.05-.15-1q-.1-.6-.55-.75-.35-.05-.6.2l-.35.6q-.45 1.05-.5 1.85l.05.7-.65-.1-1.7-.45-.9.5-1.15.35-3.35.6-1.75.05-1.2-.15-1.95-.75q-.65-.05-1-.5L9 41.6l-.45-.55q-.25-.5-.2-1.3l.1-.5-.05.05q-.45.7-1.25.7-.75 0-1.3-.55l-.3-.5-.2-1.25.05-1.2.05-.35.55-1.5.3-.4.5-.5.7-.2.05-.05q.5 0 .95.45l.3 1-.05.4v.25q.3-.65.95-.95l-.2-.3q-.6-1.1-.35-1.75.2-.6.9-.8l1.35.05q.7.25 2.1 1.65l1.35 1.05-.1.1-.35.3-.4.45-.25.6.25.6.5.25.85-.2L16.4 36l.15 1.15.1.65q.1.2.4.2t.4-.2l.05-.05.2-.45.25-1.05.6.25q2.4 1 4 1.3l3.5.25 10.7.3q5.3.2 8.45-.15h.5l2.9-.4 2.8-.6.6-.2.15.1.75.15-.3 1.2-.05.45.3.4.5.05.45-.4.55-1.05.1.15.85 1.05q.6.5 1.1.2l.3-.5-.15-1.3-.45-1.15h.1l1.55-.35.6-.45q.15-.45-.4-.8l-.75-.1-.45-.2zM33.6 42.5h-.1l.05-.1zm-7.75-.15h-.25l.2-.1zM32.9 16.5q-.1-.2.35-.45l.45-.35q.15-.35-.05-.55L33 15l-.75-.05-.2-.45-.25-.45q-.25-.35-.65-.15l-.5.5-.4.6-.7.05-.55.25q-.3.2-.3.5 0 .5.9.85-.3.6-.3 1.3l.2.7 1.1.1.8-.85 1.2.4.4-.05.3-.45q.35-.75-.1-1.05zm2.6-9.05-.95.4-.75-.6-.5-.25-.45-.15-.5.2-.2.45.1.5v.05q0 .35.35.8l-.2.25-.2.25-.4.55-.1.5.2.4q.25.2.65 0l.55-.25.3-.05.2.55.45.75.85.15.35-.65.1-.25h.7l.55-.25.2-.55-.25-.65-.05-.1-.05-.05V9.4l-.2-.45-.1-.1.5-.4q.25-.25.15-.6l-.35-.45zm9.4 30.95-.7.05-1 .1-.05.05-1 .05q-.45.3-.55.8l-1 .55-.5.4q-.15.25-.05.55l.35.4.65.05 1.5-.4.9.3.95.2.85-.3q.45-.45.1-.9l.25-1.05q-.15-.6-.7-.85m13.95.75.75.4-.3.45q-.3.75.1 1.1l.5.15.55-.15.4-.4.65-.4.65-.4q.45-.45.2-1.1l-.35-.45q0-.65-.6-.9l-1.2-.15-1.15.05q-.8.2-.8.8-.05.55.6 1m-27.55 1.1.35-.55.25-.8.05-.3q-.1-.25-.55-.25-.4 0-1.5.55-.05-.45-.65-.55-.55-.1-.8.35-.3.45-.05 1.05l.6.85.65.55.95-.2zM12.6 39q-.25.15-.35.5l.05.15.1.45.2.25q.15.6.75.85l.15.3v.05l.4.2.1-.05.8.05 1.65-.2.75-.25.25-.6-.3-.65q-.45-.4-1.35-.3l.35-1.2-.35-.5-.65-.05-.45.45-.6.75q-1-.55-1.5-.2m-.7-2.5-.3-.55-.55-.65-.45-.15q-.5-.1-.7.45-.25.45.2.8l-.7.55q-.35.35-.25.8 0 .45.45.7l1.4-.2.7-.4q.35-.25.35-.7z"/><path fill="#fff" d="M38.85 9.3q.2-.25.55-.4l.75-.15.65.35q.25.45.1.85l-.1.25.1.05q.25.2.15 1v1.4q0 .85-.6 1.15-.3.15-.55-.2l-.2-.65V11.5l-.95.15h-.15l-.25.05-.5-.15-.15-.5q.1-.5.3-.6l.25-.2.25-.4q.1-.35.35-.55m-.3 11.4-.25.1-.65-.15-.5-.45-.5-.75q-.05-.4.2-.75t.6-.4l.95.1h.55l.4-.85.2-.3.75-.15q.4.25.4.7l-.15.45v.4l-.2.45-.65 1.1-.55.05h-.05l-.25.2zM27.45 9.4l-.2-.2-.55-.75-.15-.3-.4.1q-.4 0-.6-.35-.15-.35 0-.75l.2-.3-.4-.2q-.35-.25-.25-.8.15-.45.6-.55l1.25.15.55-.65q.05-.35.2-.45.3-.15.55 0l.2.25.05.7v.35l.85.1.55.1.3.5-.35.4-.25.1-.2.2-.5.25v.2l-.15.9-.15.6-.25.55-.6.05zm6-6.05.45-.4q.6-.15.95.25l.1.1.2-.05.15-.05q.4 0 .65.45l.2.8v.3l.05.7-.05.15-.45.65-.75-.15-.25-.6-.1-.7v-.05l-.1.05-.55.3-.6.15-.4.15-.35-.2-.1-.45.4-.75.45-.55zM52 37l-.3-.55q-.1-.45.4-.85l.95-.4.55-.1.15-.2.15-.35q.35-.6 1.05-.4l.5.3.6-.05.25-.05.45.1.45.2.75.1q.55.35.4.8l-.6.45-1.55.35h-.1l.45 1.15.15 1.3-.3.5q-.5.3-1.1-.2l-.85-1.05-.1-.15-.55 1.05-.45.4-.5-.05-.3-.4.05-.45.3-1.2-.75-.15zm-.1 5.15-1.15.45h-.7l-.3.15h-.65l-.45.15-.5.15-.85-.2q-.45-.3-.45-.8l.4-.7.7-.4.75-.15.15-1.45q.2-.35.65-.45l.75.1.3.4.35.85.1.45 1.45-.45.95-.05.35.45-.1.6-.5.45-.6.3zm-17.05.4-1.1.05-.15-.1-.05-.1-.05.1h-.05l-.65.2q-.3-.05-.45-.25l-.1-.6.4-1 .4-.6-.05-.15q.1-.65.8-.85t1.05.4l.3.9.15 1.05-.45.9zm-7.95-.25-.15.1q-.3.2-.5.2l-.4-.25-.05-.1-.2.1-.35.15-.4.15q-.45.1-.65-.2l-.65.3q-.45 0-.7-.35l-.05-.1-.05-.7q.05-.8.5-1.85l.35-.6q.25-.25.6-.2.45.15.55.75l.15 1 .05.05.8-.4.7-.1q.4 0 .6.3l.05.15.15.2v.6l-.05.4zm-12.05-7.75.25-.35q.5-.5 1.2-.35.5.1.7.45h.1q.35 0 .55.3l.15.2q.25.05.35.45l-.2 1-.25 1.05-.2.45-.05.05q-.1.2-.4.2t-.4-.2l-.1-.65L16.4 36l-1.05.65-.85.2-.5-.25-.25-.6.25-.6.4-.45.35-.3zm44 4.6q-.65-.45-.6-1 0-.6.8-.8l1.15-.05 1.2.15q.6.25.6.9l.35.45q.25.65-.2 1.1l-.65.4-.65.4-.4.4-.55.15-.5-.15q-.4-.35-.1-1.1l.3-.45zM44.9 38.4q.55.25.7.85l-.25 1.05q.35.45-.1.9l-.85.3-.95-.2-.9-.3-1.5.4-.65-.05-.35-.4q-.1-.3.05-.55l.5-.4 1-.55q.1-.5.55-.8l1-.05.05-.05 1-.1zM35.5 7.45l.95-.05.35.45q.1.35-.15.6l-.5.4.1.1.2.45v.05l.05.05.05.1.25.65-.2.55-.55.25h-.7l-.1.25-.35.65-.85-.15-.45-.75-.2-.55-.3.05-.55.25q-.4.2-.65 0l-.2-.4.1-.5.4-.55.2-.25.2-.25q-.35-.45-.35-.8V8l-.1-.5.2-.45.5-.2.45.15.5.25.75.6zm-2.6 9.05.3.25q.45.3.1 1.05l-.3.45-.4.05-1.2-.4-.8.85-1.1-.1-.2-.7q0-.7.3-1.3-.9-.35-.9-.85 0-.3.3-.5l.55-.25.7-.05.4-.6.5-.5q.4-.2.65.15l.25.45.2.45.75.05.65.15q.2.2.05.55l-.45.35q-.45.25-.35.45m-21 20 .15.65q0 .45-.35.7l-.7.4-1.4.2q-.45-.25-.45-.7-.1-.45.25-.8l.7-.55q-.45-.35-.2-.8.2-.55.7-.45l.45.15.55.65zm.7 2.5q.5-.35 1.5.2l.6-.75.45-.45.65.05.35.5-.35 1.2q.9-.1 1.35.3l.3.65-.25.6-.75.25-1.65.2-.8-.05-.1.05-.4-.2v-.05l-.15-.3q-.6-.25-.75-.85l-.2-.25-.1-.45-.05-.15q.1-.35.35-.5m18.7 1.25-.7.7-.95.2-.65-.55-.6-.85q-.25-.6.05-1.05.25-.45.8-.35.6.1.65.55 1.1-.55 1.5-.55.45 0 .55.25l-.05.3-.25.8z"/><path d="m64.3 10.8.65-.3h.1l.65.3.2.4.25.45.2.9.1.1.6.1.85.05.8.05q.85.15.9.8.15.7-.65.95l-.7.25-.8.45.4 2.05q.15.5-.05.8l-.65.3-.3.1q-.55 0-1.1-.6l-.75-1-.75 1q-.55.6-1.1.6l-.3-.1q-.45-.05-.65-.3-.2-.3-.05-.8l.4-2.05-.8-.45-.7-.25q-.8-.25-.65-.95.05-.65.9-.8l.8-.05.85-.05.6-.1.1-.1.2-.9.25-.45zM6.8 12l-.9.35-1.15.85-.45.8-.3.7v.95l-.05.9q-.2.5-.85.6-.6.1-.95-.4-.25-.25-.35-.7-.45-1.7.75-3.85.65-1.05 1.45-1.65l.95-.5q1-.5 2-.5 1.9-.05 3.55 1.6l.7.95q.3.7.3 1.95l-.15 1.5-.35.8q-1.05 1.9-2.9 2.2l-1.85-.25Q5.3 17.85 4.9 17q-.7-1.4.25-2.9l.4-.45q.6-.6 1.6-.5.6 0 1 .4.5.4.3 1.05l-.4.4-.55-.05-.35-.2q-.3 0-.4.4-.15.45 0 .85.65.25 1.35 0 .65-.25 1-.85t.2-1.3q-.1-.7-.6-1.15-.3-.25-1.2-.6z"/><path d="M37.2 1.15q1.45.8 3.05 3.05l2.85 4.6 1.3 2.25 1.35 1.7.55.9q1.4-.75 3.2-1.4l1.6-.3q.95.15 1.35 1l.2 1.25-.5 3.6-.85 4.85q.75 3.25.25 6.45l-1.15 3.55 1.45-.95 6.75-4.8 1.3-1.3.65-1.7q.55-1.6 1.9-2.65 1.4-1.05 3-.85 1.65.2 3 1.65.9.95 1.75 2.95.95 2.65.75 4.75-.25 2.7-2.05 4.25l-.75.55.25 4.85-.05 1.3q-.15 1.6-1.25 2.6-1.3 1.1-2.75.65l-1.25-.75-.2-.2q-1-.75-1.6-2.25-.4-1.05-.65-2.7L60 31.1v-.05q-2.9 2.05-7 4.55-1.7 1.1-2.95 1.55l-1.6.45-.8.25q-1.25.9-3.35 1.4l-2.65.5-3.9.35-3.55.15h-.1l-3.05-.1q-2.2-.3-5.55-1.5l-.45-.15-1.55-.65-.95-.25-1.6-.45L18 35.6q-4.1-2.5-7-4.55v.05l-.65 6.95-.65 2.7q-.6 1.5-1.6 2.25l-.2.2-1.25.75q-1.45.45-2.75-.65-1.1-1-1.25-2.6l-.05-1.3q0-2.9.25-4.85L2.1 34Q.3 32.45.05 29.75q-.2-2.1.75-4.75.85-2 1.75-2.95 1.35-1.45 3-1.65 1.6-.2 3 .85 1.35 1.05 1.9 2.65l.65 1.7q.35.65 1.3 1.3 2.55 1.95 6.75 4.8l1.5.95-.35-.9q-.55-1.65-.55-3.3 0-2.35 1.05-4.55.8-1.8 2.2-3.15-.25-.75-.1-2.1l.85-8.35q-2.4-1.35-4.65-3l-1.3-1.35q-.8-1.5.85-3.95.85-1.2 1.4-1.5.9-.5 2.65-.5l11.05.4q2.25.2 3.45.75m-5.85 19.1q4.55.85 7.3-.55 1.8-.9 4-3.5l.35-.65-.2-.8-.4-1.5-.75-1.25-4.4-6.1-1.15-1.3q-.85-.6-3-.7l-9.5-.3-1.3.1q-.7.25-.85.85 1.65 1.15 3.8 2.2 1.55.8 1.95 1.4.4.75.2 2.45-.45 3.55-.7 8.35zm9.2 8.15.15.15.25-.05 1.7-.1 1.45.3h-.15l2.1.35h.15q1.2-.9 1.5-2.4l.05-1-.15-.95q-.3-1.35-1.35-2.15l-.8-.45-.95-.15q-1.6-.1-2.5.55l-.55.4q-1.2 1.1-1.5 2.1l-.1 1.3.1 1.1zm23.85 7.3-.05-.8-1.25-.75.1.65.25 1.45.7 2zm-40.15-8.65q0 .8.15 1.2l.6.85q1.05 1.05 2.45 1.2t2.7-.65l.55-.45q.65-.55 1-1.75l.15-1.25q0-.9-.4-1.65l-2.1-.55-.8-.2-1-.3-1.05-.4q-.95.35-1.5 1.05-.45.55-.6 1.2-.15.55-.15 1.7M6.6 35.7l.25 2.55.7-2 .25-1.45.1-.65-1.25.75zm29-3 .05-.05.05.05q1.25 1.05 2.35.8l1-.5.7-.5q.75-.85.2-2.05l-.4-.5h-.05L39 31.1l-.8.5-1.6-.2-.3-.25-.15-.3-.35-.25-.05-.1-.1.05-.1-.05-.05.1-.35.25-.15.35-.3.2q-.75.5-1.6.2-.45-.15-.8-.5l-.5-1.15h-.05l-.4.5q-.55 1.2.2 2.05l.7.5q.55.4 1 .5 1.1.25 2.35-.8"/><path fill="#fff" d="m40.55 28.4-.6-1-.1-1.1.1-1.3q.3-1 1.5-2.1l.55-.4q.9-.65 2.5-.55l.95.15.8.45q1.05.8 1.35 2.15l.15.95-.05 1q-.3 1.5-1.5 2.4h-.15l-2.1-.35h.15l-1.45-.3-1.7.1-.25.05zm-16.3-1.35q0-1.15.15-1.7.15-.65.6-1.2.55-.7 1.5-1.05l1.05.4 1 .3.8.2 2.1.55q.4.75.4 1.65l-.15 1.25q-.35 1.2-1 1.75l-.55.45q-1.3.8-2.7.65T25 29.1l-.6-.85q-.15-.4-.15-1.2M35.6 32.7q-1.25 1.05-2.35.8-.45-.1-1-.5l-.7-.5q-.75-.85-.2-2.05l.4-.5h.05l.5 1.15q.35.35.8.5.85.3 1.6-.2l.3-.2.15-.35.35-.25.05-.1.1.05.1-.05.05.1.35.25.15.3.3.25 1.6.2.8-.5.5-1.15h.05l.4.5q.55 1.2-.2 2.05l-.7.5-1 .5q-1.1.25-2.35-.8l-.05-.05z"/></g></svg>