<svg xmlns="http://www.w3.org/2000/svg" xmlns:ffdec="https://www.free-decompiler.com/flash" ffdec:objectType="shape" width="76.15" height="41.3"><g fill-rule="evenodd"><path fill="#767676" d="M16.55 25.6h4.15l1 .05h.85l4 .05h4.65l4.2.05h2.4l2.55.05h1.8l1.3.05h2.05l3.4.05h2.2l2.7.05h5.75l1.15.05h.7l.85.05h.6l.9.05q.15-.4.55-.7l1.1-.6q2-.8 3.1-.9h1.4l-.25-.6q-.8-1.9-.7-2.6 0-.55.3-.85l.35-.3 1.1-.55-.45-1.65-.3-1.4-.45-1.6-.1-.45-.5-1.3q-.25-.6.3-1.15.55-.45 1.2-.2l.75.8.9 3.2.35 3.1.75-.05.6.2.5.7.25 1.05.1.95q.5.1.8.4.55.65.1 1.25l-.7.55q.75.25 1.15.95.3.7.1 1.45l-.8.95v.4l-.05.05v.1l-.05.05-.05.1-.1.05-.1.1-.15.05-.1.05-.05.05v.05l.05.1v3.25l.05.05v1.9l.05.05v.4l.05.05v1.5l.05.05v3.05l.05.1v.35l-.05.1v1.05h.2l.15.05.15.1.1.05v1.3H.2V25.6h.55l-.05-.45-.05-1.45-.25-2.25L0 19.2q-.1-1.35.3-2.05 0-.9.8-1.2l1-.1h.1l1.25-.05.7.2.3-1.2.1-.2-.65-.5q-.5-.5-.55-1.15t.35-1.2T4.75 11l1.25.15.7.55.2-.15 1.2-.1q.6.15.95.65t.25 1.15q-.05.65-.5 1.05l-.85.45h-1l-.05.05-.85 2.35 1.45 1.2.9 1.25 1.5 2.95.2.25.45.05q1.3-.1 2.3.7.95.75 1.3 2.05zm56.8-4.5-.15-.6-.2-.65-.5.1.05.1.45 1 .15.35.25-.1zm-2.55-.25.55 1.25.2.55.55-.6-.65-1.65zM48.6 18.1l-.4-.15q-.5-.1-.8.15l-.7.8q-.9 1.05-2.3.8-1.35-.25-1.9-1.5-.5-1.25.15-2.4l.55-.7q1.25-1.4 2.55-1.8l2.05-.1.25-.55L49.8 9.8l.15-.2-.15-.15-.5-.6q-.25-.35-.35-.85-.25-1.1.4-2 .65-.95 1.75-1.1 1.15-.15 2 .55l.5.6.2.25h.9q.8.15 1.3.7.5.6.6 1.4l-.35 1.45q-.4.65-1.2.95l-1.5.05-.4-.15-2.5 3-.25.3q.8.5 1.05 1.35l.15.8v1.05q-.15.9-.9 1.3-.9.45-1.6 0zm.9 16.05Q34.55 35.3 19.6 34q.15-.7-.65-1.1l-1.35-.25-3.9.15q-2 .3-2.4 1.35-.2.55.05 1.2.25.6.8 1 .65.5 2.35.8l12.4 1.25q5.3.2 12.55 0 11.35-.3 17.65-1.65 1.5-.3 2.3-.8 1.3-.8 1.2-2 0-1.15-1.3-1.9-.8-.45-2.35-.55l-4.95.25q-3 .3-3.7 1.7z"/><path fill="#fff" d="m49.5 34.15-1.2-.7q.7-1.4 3.7-1.7l4.95-.25q1.55.1 2.35.55 1.3.75 1.3 1.9.1 1.2-1.2 2-.8.5-2.3.8-6.3 1.35-17.65 1.65-7.25.2-12.55 0l-12.4-1.25q-1.7-.3-2.35-.8-.55-.4-.8-1-.25-.65-.05-1.2.4-1.05 2.4-1.35l3.9-.15 1.35.25q.8.4.65 1.1 14.95 1.3 29.9.15"/><path d="M17.35 26.9 16.1 26q-.65-1.05-.15-2.25.4-.95 1.6-1.65l1.25-.8.65-.95 1.6-2.65q2.3-3.35 5.95-5.4 3.65-2.1 7.7-2.4 4.45-.25 7.7 1.6 1.75 1 3 2.6l1.25 2.3.45.25.2.15q1.85-.85 4.05-.75 1.8.1 3.3.85l.95-1.15 2.5-2.7.25-.25-.2-.3-.25-.5-.2-.6-.05-.5q0-.8.5-1.55.45-.7 1.2-1.05l1.55-.25q.85.1 1.5.6l.65.75.45 1.35.4.05q1.05.25 1.65 1.05l.35.65.2.6q.35 1.5-.75 2.6-1.05 1.15-2.55.9-1.15-.2-1.8-.95l-1.2.9-1.65 1.35-1.2 1.05.5 1.15q.6 1.75.05 3.65-.45 1.45-1.7 3.25l-1.35 1.6q1.15.65 1.55 1.55l.35 1.4h.05l.2.15q.65.1.95.4.45.4.45 1.1-.05.7-.5 1.15-.7.7-2.25 1l-5.25.8-.45.05-1.15.15-5.1.25H43l-1.4.05h-4q-8.45.05-13.2-.25l-.9-.05-6.45-.65q-2.75-.5-3.1-2.1-.35-1.45 1.15-2.7.95-.75 1.9-.75-.05-1.05.4-1.95l.7-1zm47.25-4.65 4.3 9.6.45 1.25.25.2 1.05 1.45 1 1.5q.3-2.1 1.75-3.55.65-.65 1.2-.6l.75.45.1.2v.8l-.2.5-.3.95.05 1.05.15 1.35.15.65.15.3v2.95H69.6l-.1-.2-.1-.3-.35.2-.3.3h-15.1l-.1-.2q-.15-.7.25-1.3.4-.45 1.4-.75l1.7-.1.85.5.3.3 1.2-.85.65-.25.75-.15 3.95.15q.5.15 1 .55l.05-.05q.55-.45 1.5-.65l1.15-.2q-.5-1.45-.7-2.85l-1.3-.2q-.75-.4-1.25-1.25l-.7-1.6q-1.45-3.15-1.85-4.85-.4-1.5-.4-4.05-.1-1 .2-1.6.5-.95 1.3-.75.6.1 1 1.1M7.55 34.05l-.3 1.85q1.25.25 2.1 1.3l.35.3.35.1 2.4.4q.9.25 1.45.8.7.7.6 1.5l-.4.75-.4.25h-.8l-.25-.05-2.5-.1-.2.15h-8.2l.1-.55-.05-.05q-.75-.3-1.1-1.15l-.25-.7-.25-.35v-5.3q1-.15 1.7.3l.35.25L3.4 34.9l1.2-3.6.3-.9 1-2.35-1.7-.65-1-1.2v-.85l.35-1.45 1.8-4 .4-.45.65-.05.25.6-.1 1.1-.25.85-.8 2.7v.4l.45.3.1.05.55-2.05 1.8-4.4.3-.4.5.05.25.4.1.3-.05.6-.4 2.2v.4l-.7 3.15-.05.2.7.05.9-3.5.55-1.65.45-.6.7-.05.3.55.1 1.1-.65 3.75-.5 1.85q-.55 1-1.4 1.2l-1.2-.05z"/><path fill="#767676" d="M25.65 5.1q-.45-.75-.35-2.15l.1-.5.3-.6L26.8.4l.55-.3.55.25V.8l-.25.45q-.55.8-.7 1.6v.75l.6.55.95.65q.8.8 1 2.25V8l-.2 1.35-.75 1.15-1.3.15q-.5-.2-.7-.75-.15-.5.05-1.05l.2-.45q.45-.9.25-1.6l-.65-.9zm7.85-1.3.7-.9.7-.6.5-.55.5-.75-.1-.6q0-.4.4-.4l.4.55q.2.85-.1 2.15l-.25.85-.75 1.3q-.3.9.2 1.65l.4.5q.45.75-.05 1.4-.45.7-1.3.55l-.95-.55-.6-1-.25-.85-.05-1.1.1-.65zm9.15 2.05q.85-1.4 1.4-1.8l.55-.4.5-.4q.45-.5.35-1.1l-.3-.95q-.2-.65.25-.95.45-.35.95.2l.45.95.15.9q.1.9-.4 1.85l-1.3 1.8q-.4.6-.45 1.05-.15.6.15 1.15l.35.4q.4.55.3 1.2-.1.7-.65 1l-1.25.15-1-.75q-.7-.95-.5-2.7l.1-.85zM21.05 8.9q-.6 1-.85 2.15-.1.9.1 1.25l.85 1.2q.25.7-.1 1.3-.45.6-1.1.6l-.9-.2-.8-.65-.55-.8-.5-1.15.05-.95.55-1.75q.3-.8.55-1.15l.85-.85 1.1-1 .55-.8v-.45l-.25-.85-.3-.6q-.1-.4.05-.6l.7-.15.5.5q.6.85.65 1.85.1 1.05-.4 1.95z"/></g></svg>