<svg xmlns="http://www.w3.org/2000/svg" xmlns:ffdec="https://www.free-decompiler.com/flash" ffdec:objectType="shape" width="74.7" height="41.55"><g fill-rule="evenodd"><path fill="#999" d="m68.15 19.45-.45.25.7 1.05q.25.65.05 1.35l-.75 1.05q-.8.5-1.85.25l-.9-.3-.5.75q-.6.5-1.45.5t-1.45-.5l-.6-.75-.15.1-1.3.25q-.7-.1-1.25-.7-.5-.55-.65-1.3-.2-.75.05-1.5l.15-.45-.4-.35-1.3-1.55-.4-.85q-.6-1.7-.35-3.95.25-2.15 1.4-3.35.95-1.05 3.35-1.6l2.55-.3q1.5.05 3.15 1.2 1.2.8 2.5 2.3l.9 1.2.4 1.5.25 1.05.15 1.8q-.15 1.7-1.85 2.85M65.9 17.9q1.25-.1 1.7-.75.35-.45.25-1.55l-.35-1.1q-.45-.5-1.55-.5l-1.3.25q-1.05.6-1.05 1.7 0 1.25 1.05 1.7zM48.85 4.35l.05-.4.35-.3q.4-.3.65-.3l.1-.05.7.15q.35.2.35.55l-.5.85-.9.35q-.6 0-.75-.5zm8 12.4q.5 1.35 1.95 1.45.95.1 1.6-.65.75-.9.2-2.05-.55-1-1.7-1.25H58q-.75.25-1.15 1-.35.75 0 1.5M0 30.45h12.8v-.25l.4-.6.75-.2.5.1.55.65.1.3H52l.65-.7.85-.5q.85-.35 1.2 0 .35.3.25.85l-.15.35h1.6l.35-.45.9-.05.5.5H74.7v10.1H0zM24.55 4.7q-.5-.3-.4-.9l.05-.35q.25-.45.8-.55.95.1 1.35.45l.4.75q.1.55-.35.9l-1 .2-.45-.3zM21.2 23.75l-.2-.5q-.1-.45.25-.8.25-.2.85-.3h1.1l.65.2.45.7q.1.45-.3.75l-1.4.3q-1.1 0-1.4-.35m-14.85-4.3Q4.65 18.3 4.5 16.6l.15-1.8.25-1.05.4-1.5.9-1.2q1.3-1.5 2.5-2.3 1.65-1.15 3.15-1.2l2.55.3q2.4.55 3.35 1.6 1.15 1.2 1.4 3.35.25 2.25-.35 3.95l-.4.85-1.3 1.55-.4.35.15.45q.25.75.05 1.5-.15.75-.65 1.3-.55.6-1.25.7l-1.3-.25-.15-.1-.6.75q-.6.5-1.45.5t-1.45-.5l-.5-.75-.9.3-1.85-.25q-.55-.35-.75-1.05t.05-1.35q.2-.65.7-1.05zm11.3-2.7q.35-.75 0-1.5-.4-.75-1.15-1h-.9q-1.15.25-1.7 1.25-.55 1.15.2 2.05.65.75 1.6.65 1.45-.1 1.95-1.45M8.6 17.9l1.25-.25q1.05-.45 1.05-1.7 0-1.1-1.05-1.7L8.55 14q-1.1 0-1.55.5-.25.3-.35 1.1-.1 1.1.25 1.55.45.65 1.7.75m14.1 7.05 1.15-.25q.6.1.7.7.1.65-.45.9l-.55.1-1 .3q-.7.1-.95-.3-.3-.3-.1-.75.15-.35.55-.5z"/><path fill="#fff" d="m65.9 17.9-1.25-.25q-1.05-.45-1.05-1.7 0-1.1 1.05-1.7l1.3-.25q1.1 0 1.55.5l.35 1.1q.1 1.1-.25 1.55-.45.65-1.7.75m-9.05-1.15q-.35-.75 0-1.5.4-.75 1.15-1h.9q1.15.25 1.7 1.25.55 1.15-.2 2.05-.65.75-1.6.65-1.45-.1-1.95-1.45M8.6 17.9q-1.25-.1-1.7-.75-.35-.45-.25-1.55.1-.8.35-1.1.45-.5 1.55-.5l1.3.25q1.05.6 1.05 1.7 0 1.25-1.05 1.7zm9.05-1.15q-.5 1.35-1.95 1.45-.95.1-1.6-.65-.75-.9-.2-2.05.55-1 1.7-1.25h.9q.75.25 1.15 1 .35.75 0 1.5"/><path d="M47.85 19.4q-1.2 2.2-3.35 3.6l.1 1.5q0 .6.15.8l.65.4q1.8.7 2.45 2.55l.3 1.3.15 1.85q-.15 1.75-2.45 3.85.45.65.3 1.5-.1.85-.75 1.35-.8.65-2.75.55l-.85-.05-.15.25q-.6 1.15-1.25 1.45l-1.8.2-1.05-.2q-1.05.9-2.85.5-1.4-.4-1.9-1.2h-.15l-1.3.35-1.55.2q-1.25 0-1.8-.4l-.8-.8q-.4-.5-.45-.9-.15-.85.5-1.6L26 34.8l-.6-1.25q-2.25.7-3.45 1.4-1.25.65-2.1 1.5l.85-.15 1.7-.1 1.7.5q.8.5 1.05 1.3.4 1.4-.7 2.4-.9.9-2.35 1.05l-2.7-.3q-1.25-.1-2.7-.85l-1.05-.8q-.35-.5-.35-1.55 0-1.45.15-1.9.2-.55.75-1.3 1.25-1.6 3.45-2.8l-.05-.05-.1-.4q-.1-.8.65-1.15t1.3.2l.35.45.1-.05V29.8q0-.4.3-.65l.35-.15h.2q.4-.1.7.3l.2.8v.25l1.4-.45.65-.15q.15-.45.45-.85.85-1.2 2.05-1.85l1.05-.9.15-.8.3-1.05.55-1.15-1.15-.85-.85.3-1.1-.1q-.15-.2-.15-.75v-.8q0-.55.15-.85l-.4-.7h-.3q-.85 0-1.25-.4-.3-.4-.25-.9 0-.45.45-.8l.55-.25L25.9 15q.1-1.1.7-2.75l1.05-2.15.5-.65-.6-.95q-.15-.4-.15-1.35 0-1.25.15-1.85l.95-2 .4-1.1q.2-.7.5-1.1.45-.55 1.25-.7.7-.1 1.35.4l.8 1 1 1.9.75 1 4.3-.45-.05-.65q0-1 .4-1.3l.65-.1q.35.1.5.4l.1.55.15.55.1.1-.05-.65q-.1-.75.25-1.15.2-.25.5-.35l.6.1q.4.3.3.9l-.2.95-.05.3 2.05-2.4Q44.85.35 45.4.1q.5-.2 1 0l.8.6q.25.35.35 1.25l.5 1.75.4 1.75.1 1.25.1.85-.05.75.05.3.7.05q.85.2 1.05.6.35.55-.2 1.1l-.5.25-.55.15-.2.1.15.95.5.1q.95.3 1.1 1 .1.65-.4 1.05-.45.45-1.05.35h-.1q-.1 2.9-1.3 5.1m-16.4-.05.65.8 1.2.6 1.35.25 1.65-.6.1-.05q.25.95 1.6 1.5l1.55.3q.95-.05 1.7-.65t.95-1.5l-.05-.55q-.15-.15-.7 0l-1.45.6-.65.1-.5-.2-.5-.25-.3-.65-.1-.65-.25-.4q-.55-.6-1.45 0l-1.25.9q-1.25.45-2.25-.65l-.6-.6-.55.1q-.25.2-.35.5-.1.4.2 1.1m14.6-5.5q.15-.8-.15-1.5l-1.5.05-3.65-.1q-.4.75-.2 1.85l.55-.15q2.4-.45 4.15-.05l.7.25zm3.6 8.5q-.7-.3-.7-1.15l.15-.45.35-.25.4-.1.8.25q.45.15.65.4l.2.7-.35.6-.75.2zM48.05 24q-.45-.25-.6-.7-.15-.6.35-.85l.2-.05.1-.05.9.5.4.4q.15.35-.1.6-.15.3-.6.3zM53 35.2l-1.5.75-.9.05q-.4-.05-.6-.6-.15-.45.2-.8.15-.2.65-.4l.9-.35 1.05-.15.55.05q.45.2.25.8zm2.2 0 .45.55-.1.7q-.2.3-1.2.65l-.65.2q-.4 0-.8-.3l-.3-.5.05-.4.7-.7.95-.25zM34.55 15.75q.6-.5.85-1.6l.15-1.5q-.15-.75-.8-1.35t-1.45-.7l-1.75.25q-.85.35-1.4 1.1-.5.75-.5 1.6 0 .95.5 1.6.65.8 2.05 1.05t2.35-.45m-9.65-3.5-.9.3-.55.3-.7-.1-.45-.45q-.15-.35 0-.7l.5-.45.85-.05h.7q.4 0 .6.3.45.45-.05.85M9 36.65q-.5-.15-.65-.65-.1-.6.4-.85l1.1.05 1 .3.25.45-.05.6-.5.15-.6.05z"/><path fill="#fff" d="m46.05 13.85-.1.35-.7-.25q-1.75-.4-4.15.05l-.55.15q-.2-1.1.2-1.85l3.65.1 1.5-.05q.3.7.15 1.5m-14.6 5.5q-.3-.7-.2-1.1.1-.3.35-.5l.55-.1.6.6q1 1.1 2.25.65l1.25-.9q.9-.6 1.45 0l.25.4.1.65.3.65.5.25.5.2.65-.1 1.45-.6q.55-.15.7 0l.05.55q-.2.9-.95 1.5t-1.7.65l-1.55-.3q-1.35-.55-1.6-1.5l-.1.05-1.65.6-1.35-.25-1.2-.6zm3.1-3.6q-.95.7-2.35.45t-2.05-1.05q-.5-.65-.5-1.6 0-.85.5-1.6.55-.75 1.4-1.1l1.75-.25q.8.1 1.45.7t.8 1.35l-.15 1.5q-.25 1.1-.85 1.6"/></g></svg>