<svg xmlns="http://www.w3.org/2000/svg" xmlns:ffdec="https://www.free-decompiler.com/flash" ffdec:objectType="shape" width="77.8" height="43.1"><path fill="#999" fill-rule="evenodd" d="M20.25 1.7H21l-.15.6zm9.15 0h3.4l-.15.05q-1.5.9-1.5 2.4-.05.85.5 1.65.55.7 1.4 1l1.2.05q1.55-.25 2.05-1.7.6-1.4-.4-2.65l-1.1-.8h42.5v40.9H2.1V28.7q.65.45 2.2.9.35 1.95 1.6 3.6 1.2 1.6 2.95 2.6 1.95 1 3.75.95 1.6-.05 3.55-1.05 4.15-2.2 5.95-6.5.65-1.55.9-3.15 2.65-1.55 4.3-4.7 1.9-3.5 1.3-6.8l-.7-2.6-.35-.85q1.1-1.8 1.15-3.95V7.1l.05-.05q1.1-.6 1.45-1.55.35-.8.2-1.8-.2-1.2-.75-1.75zM2.1 13.9v-2.55l.2 1.05.25.95zM15.7 2.35v1.1q-.2 1.65-.6 2.25-.35.55-.8.6-.6.05-1.1-.8-.3-.65-.5-2.15V2.4q.1-.55.55-.9t.95-.35q.55 0 .95.35zm21.95 5.9 1.45.1 1.15-.8q.4-.6.35-1.4t-.55-1.3q-.5-.45-1.2-.6-.75-.05-1.45.35t-.9 1.1q-.25.7.1 1.5.35.75 1.05 1.05M19.65 4q.4-.45 1.1-.5.65-.05 1.1.35.5.4.55 1.1.05.65-.35 1.1l-.95.75-.8.4-1.1.35q-.35-.05-.55-.3l-.25-.65q0-.25.5-1.15zm-11.8.4q.8.05 1.35.8l.55 1.5.1.8-.2.75-1.2.1q-1.1-.35-1.7-1-.8-.85-.55-1.85.15-.5.65-.85.5-.3 1-.25m8.5 21.15-.45.65-1.1.5-1.15.25-1.1-.2q-.65-.35-.75-1.15-.1-.7.5-1.3.4-.3 1.35-.5l1.5-.15q.95.1 1.2.85.2.4 0 1.05"/><path fill="#fff" fill-rule="evenodd" d="M2.1 11.35 1.75 9.5 1.1 4.1q0-1.7.55-2.6Q2.2.65 3.3.4l1.95.2.65.3.75-.05 1.2.05.95-.05 4.15-.3 1.45.3L15.7.3l2.7.1 1.8 1.25.05.05.6.6.15-.6.1-.3q.65-1.25 2-1.4l1.6.35.85.2.35.25 2.2.05 1 .6.3.25.25.25q.55.55.75 1.75.15 1-.2 1.8-.35.95-1.45 1.55l-.05.05v.05q-.05 2.15-1.15 3.95l.35.85.7 2.6q.6 3.3-1.3 6.8-1.65 3.15-4.3 4.7-.25 1.6-.9 3.15-1.8 4.3-5.95 6.5-1.95 1-3.55 1.05-1.8.05-3.75-.95-1.75-1-2.95-2.6-1.25-1.65-1.6-3.6-1.55-.45-2.2-.9l-.1-.1Q.75 27.7.75 26.5l.1-1-.5-1.2q-.55-1.15-.2-2.45l.7-1.75.25-1.85q.1-2.3.5-3.4l.5-.95.45-.55-.25-.95zM32.8 1.7l.9-.15.1-.05 1 .2 1.1.8q1 1.25.4 2.65-.5 1.45-2.05 1.7l-1.2-.05q-.85-.3-1.4-1-.55-.8-.5-1.65 0-1.5 1.5-2.4zm-17.1.65-.55-.85q-.4-.35-.95-.35-.5 0-.95.35t-.55.9v.95q.2 1.5.5 2.15.5.85 1.1.8.45-.05.8-.6.4-.6.6-2.25zm21.95 5.9q-.7-.3-1.05-1.05-.35-.8-.1-1.5.2-.7.9-1.1t1.45-.35q.7.15 1.2.6.5.5.55 1.3t-.35 1.4l-1.15.8zm-21.3 17.3q.2-.65 0-1.05-.25-.75-1.2-.85l-1.5.15q-.95.2-1.35.5-.6.6-.5 1.3.1.8.75 1.15l1.1.2 1.15-.25 1.1-.5zM7.85 4.4q-.5-.05-1 .25-.5.35-.65.85-.25 1 .55 1.85.6.65 1.7 1l1.2-.1.2-.75-.1-.8-.55-1.5q-.55-.75-1.35-.8m11.8-.4-.75 1.45q-.5.9-.5 1.15l.25.65q.2.25.55.3l1.1-.35.8-.4.95-.75q.4-.45.35-1.1-.05-.7-.55-1.1-.45-.4-1.1-.35-.7.05-1.1.5"/><path fill="none" stroke="#8c5a5a" stroke-linecap="round" stroke-linejoin="round" d="M20.25 1.7H21m8.4 0h3.4m2 0h42.5v40.9H2.1V28.7m0-14.8v-2.55"/><path fill-rule="evenodd" d="M31.85 35.5q-2.7-1.45-4.35-4.5-1.45-2.65-1.75-6-.35-3.25.2-6.15-1.2-1.9-1.85-4.1-.7-2.15.05-3.25.55-.95 2.15-1.4l3.35-.85 1.95-.3.45-.35q2.5-1.95 5.4-2.7 4.55-1.15 10.3.6l1.8-.65L53 4.8l2.6-.25q1.1.25 1.5 1.25.25.6.15 1.8l-.45 5.7-.45 2.65q.75 2.55.85 5.35.15 6.35-3.25 10.5l-.55.65q3.7-1.05 6.95-3.4 1.45-1.1 1.8-1.95.35-.8.25-2.35l-.05-.2-.5-2.1-.15-1.85-.05-.75q-.1-2.5.6-4.5l-.8-3.05q-.25-1.2.05-2.75.25-1.55 1.25-2.25t2.35-.6q1.35.05 1.5 1.1l.2 2.5 2.45-.4q1.4.1 2.45.85 1.8 1.25 2.55 4 1 3.6-.1 7.8Q73 26.8 70 30.1l-3.6 3.15q-4.15 3.1-9.2 4.55-5.1 1.45-7.35 1.3l-1.55-.2q-.2 1.65.15 2.85l-.3-.05.25 1.05H32.6l1.1-4.05.75-2.2zm-.65-7.6 1.05.1 1.25-.1 1.3-.9q.85-.85 1.1-2.1t-.15-2.35l-.3-.7q-.75-1.25-2.2-1.55-1.4-.3-2.7.3-1.9.95-2.2 2.85v1.9q.3 1.1 1.8 2.05.45.35 1.05.5m9.85-.1.05-.1 1.25.1 2.55-.05 2-.15v.15q-.1 1.3-.95 2.45-.8 1.15-2.05 1.65l-2.5.1-1.2-.9-.45-.5-.2-.3q1.1-1.2 1.5-2.45m-5.9 1.65q-.25.4-.15.8l.6.85 1 .2.9-.05.4-.05q.2.95.65 1.5l.9.9.95.65q1.95.9 4.2 0l1.25-.7 1.45-1.25.7-.9.8-1.65.55-2.25.05-.55.5-.25q1.3-.7 1.95-1.9l.15-.55-.3-.35-.5-.05-.9.5-1.25.5-1.1.3q-2.4.6-4.8-.1l-1.25-.4-1.3-.1q-.7.1-1.2.65l-.3.8-.05.15v.65l-.35.9q-.7 1.25-2.15 1.55l-.8-.1-.4.1zm9.55-9.6q.2 1.2.95 2.1l1.1-.65q1.15-.6 3.55-.7l2.85.05.15-.5q.35-1.9-.55-3.35-1-1.6-2.75-1.9-1.5-.3-3 .55l-.85.6-.65.7q-.95 1.45-.8 3.1m-26.1-6.2q-.45-1.6-1.3-2.2l-1.55-.85q-1.25-.6-3.05.35l-.65.5-.45.5q-1.9 2.5-1.4 5.7l.5 1.45.6.75v-.55l-.15-.75q-.15-.6.05-1.4l.15-.55q.1-.5.35-.75.55-.7 1.7-.5l.8.3.15.25.85-.5h.5l.9.15.8 1.05.25.65-.1 1.25-.25.85-.15.25-.3.6.1.05q1-1.05 1.6-3.6.4-1.3.25-2.25zM9.85 22.8q-.8-.35-1.85-1.9l-.8-1.5-.25-1.55q-.35-4.3 1.45-7.25 1.05-1.65 2.65-2.65 1.7-1.05 3.55-1 2.2.1 4 1.5 1.6 1.3 2.55 3.45l.5 1.6q.35 2.15-.8 4.85-.6 1.4-1.4 2.25l-1.4 1.25-.5.45.2 2.5-.3 2-.5.75q-.35.3-.9.45l-.8.2-.2.3q-.55.65-1.2.65h-.3q-.9-.15-1.1-1.05V28l-.25-.1q-1.45-.5-1.7-1.5-.15-.45 0-1.2l.2-1.25v-.85zm5.05-2.6h.25l.8-1.35.2-.6.05-.35-.1-.4-.15-.35-.15-.35q-.25-.25-.55 0v.1l-.5.65-.55.3-.5-.25-.1-.3-.2-.2-.2-.35q-.45 0-.6.4-.15.3-.05.75l.15.45.25.3.3.8.2.4.25.35.05.1zm-2.05 3.65.2 1.3 2.25.25.15-2.3-2.55.15z"/><path fill="#fff" fill-rule="evenodd" d="M44.7 19.85q-.15-1.65.8-3.1l.65-.7.85-.6q1.5-.85 3-.55 1.75.3 2.75 1.9.9 1.45.55 3.35l-.15.5-2.85-.05q-2.4.1-3.55.7l-1.1.65q-.75-.9-.95-2.1m-9.55 9.6.2-.2.4-.1.8.1q1.45-.3 2.15-1.55l.35-.9v-.65l.05-.15.3-.8q.5-.55 1.2-.65l1.3.1 1.25.4q2.4.7 4.8.1l1.1-.3 1.25-.5.9-.5.5.05.3.35-.15.55q-.65 1.2-1.95 1.9l-.5.25-.05.55-.55 2.25-.8 1.65-.7.9-1.45 1.25-1.25.7q-2.25.9-4.2 0l-.95-.65-.9-.9q-.45-.55-.65-1.5l-.4.05-.9.05-1-.2-.6-.85q-.1-.4.15-.8m5.9-1.65q-.4 1.25-1.5 2.45l.2.3.45.5 1.2.9 2.5-.1q1.25-.5 2.05-1.65.85-1.15.95-2.45v-.15l-2 .15-2.55.05-1.25-.1zm-9.85.1q-.6-.15-1.05-.5-1.5-.95-1.8-2.05v-1.9q.3-1.9 2.2-2.85 1.3-.6 2.7-.3 1.45.3 2.2 1.55l.3.7q.4 1.1.15 2.35T34.8 27l-1.3.9-1.25.1z"/></svg>