<svg xmlns="http://www.w3.org/2000/svg" xmlns:ffdec="https://www.free-decompiler.com/flash" ffdec:objectType="shape" width="78.2" height="39.35"><g fill-rule="evenodd"><path fill="#767676" d="M69.35 4.45 70.9 3.1q1-.65 1.9-.5 1.25.2 1.65 1.25.45 1.2-.3 2.1-.3.35-1.75 1.2L70.8 8.3l-4.7 3.25-4.65 3.3-1.9 1.4-1.4.55-.4.05q-.35-.2-.25-.6.15-.35.45-.6l6.6-6.25L65.7 8q1.15-1.25 3.65-3.55M64.2 6.4l.65.3q.75.6.3 1.5-.25.7-1.2 1.05l-.5.6-.7.45-1.45 1.3-2.15 1.95-1.2 1.25-.55.15-.1-.3.15-.35 1.8-2.6 1.1-1.2 1.95-2.7q.65-1.1 1.05-1.3zM69 17.35l.3-.35.45-.3 1.2-.95 1.4-.65 1.3-.2.65.2q1 .4 1.1 1.55.1.9-.45 1.5-.75.9-2.05.65l-.75-.2-3.6.2-.65.2q-.35 0-.35-.3l.3-.45.6-.4zm.8-5.1q-.25-1.05.65-1.55.95-.5 1.65.35l.25.85-.3.8q-.3.35-.8.45l-.85-.2q-.45-.25-.6-.7M57.45 23.5q-.15-.45.2-1.5.5-2.15.95-3.15.3-.65.65-.8l1 .1.15.3.05-.15L61.5 17q.6-.55 2-.95l1.65-.2q.7.05 1.25.8.5.75.25 1.5l-.1.6.15.75.05.85v.3l.15-.15.75.1q.2.3.05.7l-.4.65-4.45 5.25-.4.5.25.2.35-.25 1.3-1.1 1.1-1.2 1.05-1 1.3-1 .9-.55q.25 0 .45.3v.55l-.55.5-.35.45-.45.35-3.9 4.1.05.05 1.35-1.2.7-.45 1.65-1.2.55-.45.55-.3.65-.15.45.25.1.45q.95-.15 1.4.65.55.9-.15 1.55l-.65.5-1.35.85-1.8.85-.95.2-1.15.55.2.2q.4.55 0 1.15t-1.1.5q-.7-.15-1.15-1l-.65-1.4-1.35-1.6q-.75-.95-.45-1.75l-.05-.15q-.5.15-.95-.25l-.65-.9L58 24.4q-.45-.55-.55-.9m-2.05 6q.25 0 .45.3.55.45 1.85.9l.9.65 2.3.75 2.25.9 2.25.95 2.5.9q1.4.75 1.6 1.95.25.95-.45 1.7-.65.75-1.6.75-.9-.05-2.2-1.05l-3.15-2.7q-1.85-1.6-3.35-2.4l-1.15-.65-1.7-1.55-.6-.35-.35-.6q0-.45.45-.45m1.9 3.4q.8.15 2.15 1.3l.4.45q.45.6.25 1.4-.25.7-1 .95-.55.3-1.3 0l-1.15-.75q-.9-.8-1.1-1.9l-.1-.05-.2-.4-1.45-1.8-.15-.4q0-.25.45-.25.5 0 1.4.6l1.3.75zm-46.75-9.5-.5-.4-5.6 1.95-.9.4-.8.5q-.65.25-1.35 0t-1-.9 0-1.35q.25-.7.9-1l1.25-.2 4.1-.45 1.8-.35.7-.1-.05-.75q.05-.55.4-.9l.35-.35.8-.6.25-.55q.6-.8 1.15-.9.1-.45.5-.6l.75-.25 2.75-.45.5.05q.65.15 1 .55.25-.45.75-.45l.55.2.35-.05-.9-.3-1.4-.55-.75-.45L15 14.8l-4.5-1.05-1.35-.05-.9.3q-.8.2-1.5-.3-.75-.45-.95-1.2-.2-.8.25-1.55.4-.7 1.2-.95l1.15-.1 1.2.2q2.25.45 2.9.8l2.25 1.55.7.55 1.15.65 1 .85.45.35-.5-.65q-.5-.65-1.05-1.95l-2.25-4.9-.4-.55q-.6-1.2.25-2.2t2.15-.5l.9.7q.35.5.35 1.1l-.15 1q-.05.7.5 2.35l.75 2.8.15.7.7 1.85.3.7.1.65q.3.05.45.25.25.35-.05.5l-.4.05.35.45q.55.85.5 1.4l-.3.8-.7 1 .45.1.3.5-.15.6-.65.3-3 .65-.7.1-.45.2-.75-.05-1.15.15-.6.1-1.2.4zm3.6-2.95h.35v-.05l1.1-1.5-.7.1-1.55 1.5zm-6 12.9 1.1-.9q3.35-1.35 4.85-2.25l2.85-1.95q1.55-1.05 3.55-1.85l.65-.05q.45.2.15.7l-.55.55-6.8 5.05-2.6 2.4q-1.05.85-1.8.9-1 0-1.5-.85-.5-.9.1-1.75m13.05-8.7q.25.4-.5.9L16.95 28l-3.25 1.75q-4.8 2.5-9.2 6-.95.75-1.5.9-1.4.25-2.15-.85-.7-1.25.15-2.3.4-.55 1.7-1.1l8.95-4.05 2.9-1.45 2.9-1.45q1.65-.75 3.05-1 .5-.1.7.2m3.2 5.7-.3.55-.5.6.3.15.2.45.1.2.65-.1H26l.7.25.3.15h.2q.95-.1 1.5.65.6.7.45 1.55-.15 1.15-1.4 2.05l-.8.5-1.3.3-1.75.25-.85-.1-.65-.3-1.55-1.4-.25-.55-1.9 2.4q-.8 1-1.4 1.25-1.2.45-2.1-.45-.85-.95-.45-2.1.3-.75 1.45-1.65 2.55-2.2 4.25-3.25l2.45-1.7.9-.5q.25 0 .45.25z"/><path d="m11 .55.45.7.3.85 1.1-.2 1.05.25q.55.4.4.95l-.8.75-1 .8.15.75.1.95-.1.45-.5.35q-.35.1-.85-.2l-1.35-1.2-.6.6-.7.65q-.4.25-.8 0-.45-.2-.45-.7-.05-.15.2-.75l.55-1.05-.05-.05-.9-.7q-.3-.4-.1-.75l.3-.5q.25-.25.8-.25H9l.3-1L10 .5zM4.6 5.8l-.05-.2-.25-.1q-.45-.2-.35-.65 0-.4.25-.55.15-.15.45-.15l.05-.3.15-.35.2-.1q.15-.15.4-.15l.05-.05q.35.1.5.35l.05.55v.15l.35.15.2.55-.3.5-.4.1-.05.2-.6.4q-.45 0-.65-.35"/><path d="M26.9 35.45q-3.7-1.6-5.3-3.4-2.2-2.35-2.7-6.45l-7.7 2.25-2.1-.15q-.4-.3-.5-1.35l-.65-5.2v-.05l.05-.9-.7.1-3.65.8-1 .25Q1.3 21.45.8 20.3l-.15-1.1.3-.65q-.8-.3-.95-1.15-.15-.95.65-1.5l1.75-.3 2.95.1 2.25.2.2.05 1.15.05.2-.05 4.3-.55 4.3-.1h2.05l1.05-2.8-.2-.65v-.1l-.5-1.1-.4-1.6-.25-.5-.85-3.15q-.55-1.9-.6-3.3l.2-1.2q.4-.75 1.2-.9l1.2.1q2.5.65 6.5 2.9l1.25.65q4.75-3 11.1-3.1 4.3-.1 7.6 1.4 1.6.7 3.25 1.95 1.2-.7 3.55-1.5l3.65-1.35 1.75-.7q1.2-.2 1.75.45.6.65.4 1.8l-.2.8-3.6 9.05.25.6q.6 1.4 1 3.85l3.35-1.6 2.85-1.5q1-.65 1.5-.65.75-.05 1.45.8l.65 1.65q2 6.45 4.55 11.2.95 1.95.5 2.85l-.05.1.1.1.45.7.95.95 1.7 1.4.65.6q.85 1.05.55 2.35l-.35.75-.7.9-1.05.45-.4.7-1.15.25q-.55-.2-1-.8L72.8 37l-1.6-3.45-.55-1.85q-3.15 1.7-6.05 3.7-1.15.85-1.85.8-.75 0-1.85-.8-2.9-2.2-4.05-3.6l-.75-.95q-1.2 1.7-2.75 3-5.25 4.3-15.85 3.9l-5.4-.6q-2.2-.45-5.2-1.7m37.45-16.9q.5.25.7.8.25.55.1 1.05l-.65.9-1.05.25q-1.05-.1-1.4-1.1t.5-1.75q.85-.65 1.8-.15M60.1 11.9q-.25-.6 0-1.3t.85-1l1.3-.2 1.1.7q.5.65.4 1.6-.15.8-.7 1.6-.85 1.1-2.35 1.75l-.9-.05q-.15-.25.15-.75.65-.95.55-1.45zm-20.25 1.95q-.3.5-.5 1.65v1.2q.3.75 1.2.95h1.6l2.55-.15q0 .5.35.95l.4.45.95.35 2.4.15.7-.1.55-.2.9-.6.65-1.05.25-.4 1.2-.1q1.4 0 1.9-.6.35-.45.2-1.05-.15-.65-.7-.8l-.95-.1-11.95.55.1-1.1q-.3-.7-.8-.7-.65 0-1 .7m-3.8 8.2-2.2 1q-3.05 1.1-7.5 0-.9-.15-1.65-.6-.7-.45-1.35-1.7-.3-.6-.7-.65-.45-.05-.65.5-.15.25-.05.85l.35 1.3q.55 1.3 1.95 2.1 1.1.7 2.75 1.05l1.3.25.35.95.95 1.25-.2.45q-.5 1.3.05 2.55l.65 1.05q1.1 1.35 2.65 1.8 1.65.55 3.25 0l1.35-.6.95-.7.7-1.05 2-.2q4.75-.7 7.85-4.2l.6-1.05q.1-.5-.15-.9l1.3-.2q3.6-.7 5.75-3.65.55-.75.5-1.35l-.3-.6-.65-.2q-.25.1-.7.65-.95 1.3-2.85 2l-1.45.4-3.5.1-2.55-.3-2.7-.75-1.25-.55-.9-.6-1.05-.15-.35.1q-.5-.1-1 .25l-.9 1zm19.9 13.15q-.45-.7.15-1.3.55-.55 1.35-.2.5.3.55.7.15.6-.25 1-.45.45-1 .35t-.8-.55m2.25-8.85-.4 1.2.4.5q1.8 2.5 4.2 4.1l.45.2.65-.2 6.35-3.8q-2.75-5.95-4.4-11.8-3.1 1.4-6.4 2.4.2 3.85-.85 7.4m-20.3-2.2.8-.5 1.3.7 1.65.6 2.9.65 2.1.05-.3.25q-2 1.95-4.55 2.55l-.2-.4-.2-.25-.25-.15-.2-.3q-.4-.45-1.4-.55l-1.65-.05-.6.15-.5-.4q-.8-.5-1.3-.65l-.75-.1h-.55q1.9-.55 3.7-1.6m-.25-10.3q-.35-.7-1-.7-.5 0-.8.7-.1.4.1 1.1L24 14.4l-.95.1q-.55.15-.7.8-.15.6.2 1.05.5.6 1.9.6l1.2.1.25.4.65 1.05.9.6.55.2.7.1 2.4-.15.95-.35.4-.45.35-.95 2.55.15h1.6q.9-.2 1.2-.95v-1.2zM18.15 11l.05.8.3.55.55.75q.4.6.25.95t-.6.35l-.65-.15q-1.4-.55-2.05-1.05-1-.85-1.15-1.95-.15-1.3 1-1.9l1.6.2q.7.55.7 1.45m.55 11.7q0-2.7.55-5.25l-2.3.25-6.25 1 .75 5.95 7.25-1.85zm-.75 5-.15.65-.5.4q-.75.45-1.85 1.75l-.8.7-1.05.2-.95-.55q-.35-.4-.3-1t.4-1q.25-.2 1.05-.55l3.05-.85.6-.1q.45.1.5.35m.5 3.5.15.7-.35.65-.7.25q-.4 0-.65-.25-.65-.5-.2-1.35.2-.3.6-.4l.7.05z"/><path fill="#fff" d="m36.05 22.05.65-.4.9-1q.5-.35 1-.25l.35-.1 1.05.15.9.6 1.25.55 2.7.75 2.55.3 3.5-.1 1.45-.4q1.9-.7 2.85-2 .45-.55.7-.65l.65.2.3.6q.05.6-.5 1.35-2.15 2.95-5.75 3.65l-1.3.2q.25.4.15.9l-.6 1.05q-3.1 3.5-7.85 4.2l-2 .2-.7 1.05-.95.7-1.35.6q-1.6.55-3.25 0-1.55-.45-2.65-1.8l-.65-1.05q-.55-1.25-.05-2.55l.2-.45-.95-1.25-.35-.95-1.3-.25q-1.65-.35-2.75-1.05-1.4-.8-1.95-2.1l-.35-1.3q-.1-.6.05-.85.2-.55.65-.5.4.05.7.65.65 1.25 1.35 1.7.75.45 1.65.6 4.45 1.1 7.5 0zm3.8-8.2q.35-.7 1-.7.5 0 .8.7l-.1 1.1 11.95-.55.95.1q.55.15.7.8.15.6-.2 1.05-.5.6-1.9.6l-1.2.1-.25.4-.65 1.05-.9.6-.55.2-.7.1-2.4-.15-.95-.35-.4-.45q-.35-.45-.35-.95l-2.55.15h-1.6q-.9-.2-1.2-.95v-1.2q.2-1.15.5-1.65m-1.95 10.3q-1.8 1.05-3.7 1.6h.55l.75.1q.5.15 1.3.65l.5.4.6-.15 1.65.05q1 .1 1.4.55l.2.3.25.15.2.25.2.4q2.55-.6 4.55-2.55l.3-.25-2.1-.05-2.9-.65-1.65-.6-1.3-.7zm-.25-10.3.5 1.65v1.2q-.3.75-1.2.95h-1.6l-2.55-.15-.35.95-.4.45-.95.35-2.4.15-.7-.1-.55-.2-.9-.6-.65-1.05-.25-.4-1.2-.1q-1.4 0-1.9-.6-.35-.45-.2-1.05.15-.65.7-.8l.95-.1 11.95.55q-.2-.7-.1-1.1.3-.7.8-.7.65 0 1 .7"/></g></svg>