<svg xmlns="http://www.w3.org/2000/svg" xmlns:ffdec="https://www.free-decompiler.com/flash" ffdec:objectType="shape" width="74.8" height="37.95"><g fill-rule="evenodd"><path fill="#999" d="M62.3 16.4q-.4.4-.55 1.05-.1.65.15 1.2.6 1.35 1.95 1.25 1.4-.1 1.9-1.4.25-.65-.05-1.35-.25-.7-.85-1.05-.55-.35-1.3-.3-.75.1-1.25.6m-5.4-4.1q.5-.4 1.15-.6l.1-.3q.2-.55.7-.85l1.7.1.4.6q2.35.1 4.15 1.45l1.2 1.15.3-.1q.8-.3 1.55.2.7.55.6 1.5-.15.85-.95 1.35l.2 1.15-.35 3.3-.5 4.5-.05.7.05-.1 1.7-1.75 1.35-1.05q.85-.4 1.75-.55l2.85.15V33.3l-1.95.05q-1.5-.25-2.1-1.2l-.35-.4-.45.2-.9.4-.35.65-1.15 3.2q-.55 1.45-1.3 1.75h-9.2l-.1-.4v-2.3L57.3 33l.8-4.85q.5-2.85 1.2-4.8-1.6-.4-2.8-1.85-1.05-1.45-1.45-3.25-.3-1.7.15-3.3.45-1.65 1.7-2.65M43.4 34.4l1.7-4.75.25-1.65-.45-1.5q-.35-1.05-.45-2.55l-.2-2.65-.85-4.75q-.6-3.05-.7-4.8-.25-4.6 1.95-8.1Q46 1.6 47.7.8q1.7-.75 4.35-.4 4.05.5 5.35 2.7 1.2 1.85.5 4.45-.65 2.35-2.6 4-2 1.65-4.35 1.65.2 8.5-.4 12.7-.95 7.1-4.2 11.85l-.15.2h-3.3l-.2-.75q-.1-.8.7-2.8m15.95-13.85h.15q.3.1.6-.2l.2-.3-.1-1.05v-.35l.25-.3.25-.5q.15-.6-.45-.9-.5-.3-1 .15l-.15.35-.35.45-.45.2-1.05.15h-.05l-.25.4.4.55.45.1.25-.1.3.1.3.1.05.2.05.15.05.45q.2.35.55.35m-.05-4.9q.65-.65.4-1.55-.25-.85-1.15-1.1-.9-.15-1.5.5-.35.45-.35 1.1.05.65.45 1.05.45.4 1.1.4.6 0 1.05-.4M19.1 12.3q1.25 1 1.7 2.65.45 1.6.15 3.3-.4 1.8-1.45 3.25-1.2 1.45-2.8 1.85.7 1.95 1.2 4.8l.8 4.85.35 2.25v2.3l-.05.4H9.8q-.8-.3-1.35-1.75L7.3 33l-.35-.65-.9-.4-.45-.2-.35.4q-.6.95-2.1 1.2L.7 33.2 0 33v-9.3q1.75-1.1 4.05-.7l1.75.55 1.35 1.05 1.7 1.75.05.1-.05-.7-.5-4.5q-.4-2.45-.35-3.3l.2-1.15q-.8-.5-.95-1.35-.1-.95.6-1.5.75-.5 1.55-.2l.3.1q.45-.65 1.2-1.15 1.8-1.35 4.15-1.45l.4-.6 1.7-.1.7.85.1.3zm-6.25 4.55-.55-.35-1.05.1q-.55.2-.8.65-.25.5-.15 1.05t.5.9l.4.25q.15-.45.55-.75.5-.45 1.3-.6h.35l-.1-.7zM16 20.2l.25-.4.45-.5h1.1l.65-.3q.3-.25.1-.65l-.25-.25-.6-.45-.45-.1-.35-.05-.05-.05-.9-.7-.3.1-.3.15q-.2.2-.1.75l.2.5-.3.3-.55.9q-.2.6.2 1l.65.15zm.6-6.45q-.55.9.15 1.8l.85.45.95-.15.7-.7.1-.95-.6-.85q-.35-.3-.85-.3-.8-.1-1.3.7"/><path d="m15.55 7.55-1.4-1.15L12.3 5l-.95 1.85Q10.7 8.15 10 8.4l-1.4-.1-1.2-.8q-.9-.7-1.1-1.2-.3-.85.1-1.7l1-1.45 1.3-1.5Q9.35.8 9.9.45q.8-.55 1.65-.35.45.1.9.5l.75.8 1.7 1.5 1.3 1 1.5-1.65q.6-.7 1.05-.75.65 0 1.15.6l.9 1.4.85 1.45.35.7q.2.45-.15.7L21 6.3l-.95-1-.95-1.05-1.4 1.9-.5.9q-.75.85-1.65.5M27.05 21.3q-2.55-1.6-3.5-4.85l-.25-.6q-.5-1.45-.6-3.65l-1.05-.75-.3-.5-.3-.35-.2-.75-.05-.35.25-1.05.35-.6.85-.65.85-.3q.35-1.65 1-2.7 1.8-2.9 5.75-3.85Q32.8-.3 36.9.4l1.25.3.4-.35q.75-.5 1.65-.25l1.4.95.35.55q.7 1.35 1.2 4l.2.3q2.25 3.5 3.2 9.05l.3 2.1.85-.15 1.35.3 1.75 1.05 1.45 1.85 1.05 1.7q.7 1.35.4 2.9l-.4.95-.85.8q-1.3.8-2.65.45-1.5-.4-1.9-1.85V23.9q.1-1.15.6-1.55l.35-.4-.1-.35-.55-.85q-.45-.4-1.05-.45.3 6-1.05 11.9l-.25 1-.1 1.05-.55 2.1-.6 1.6h-5.2l-.05-.05v.05h-12.8Q26 37 25.8 35.8q-.7-3.4 1.15-6.45.4-.75.95-1.35l-1.1.3-2.05.35q-1.25 0-2-.55-.75-.5-1.15-1.4-.35-.9-.15-1.8.25-.9.95-1.55t1.65-.8q1.15-.25 2.15.35.95.5 1.3 1.7l1.35-.3 2.75-1.75q-2.65 0-4.55-1.25m4.15-1.65.7-.5.3.55.3.5q.35-.3 1.05-.45l.4-.2-.2-.25-.05-.2-.1-.2-.05-.35.3-.45q.25-.15.5 0l.45.6.15.5 1.15-.4.4-.1-.4-1.55.75-.15q.8-.3.6-1-.2-.5-1-.7l-3.3-.75-.1-.25-.9-1.15-.4-.3-.85.3-.15.45q-.05.65.2 1.55l.15.45-.25.55-.45 2q-.1.55.05.95.3.6.75.55m-2.6-5.2-.15-.5-1.35.35-1.3.05q-1.1 0-1.8-.55l-.2-.15-.25.55q-.3.8-.1 1.6l.15.45.55.8q.5.5 1.1.7l.4-.65q1-1.15 2.45-1.15l.45.05.05-.15.1-.65zm5.95-2.3 1.2 1.1.3-.1 2.55-.1.05.05.55-.55q1-1.05.65-2.5-.25-1.3-1.5-2l-.3.65q-.35.65-1.5 1.6l-2.2 1.35z"/><path fill="#fff" d="m34.55 12.15-.2-.5 2.2-1.35q1.15-.95 1.5-1.6l.3-.65q1.25.7 1.5 2 .35 1.45-.65 2.5l-.55.55-.05-.05-2.55.1-.3.1zm-5.95 2.3.1.75-.1.65-.05.15-.45-.05q-1.45 0-2.45 1.15l-.4.65q-.6-.2-1.1-.7l-.55-.8-.15-.45q-.2-.8.1-1.6l.25-.55.2.15q.7.55 1.8.55l1.3-.05 1.35-.35zm2.6 5.2q-.45.05-.75-.55-.15-.4-.05-.95l.45-2 .25-.55-.15-.45q-.25-.9-.2-1.55l.15-.45.85-.3.4.3.9 1.15.1.25 3.3.75q.8.2 1 .7.2.7-.6 1l-.75.15.4 1.55-.4.1-1.15.4-.15-.5-.45-.6q-.25-.15-.5 0l-.3.45.05.35.1.2.05.2.2.25-.4.2q-.7.15-1.05.45l-.3-.5-.3-.55z"/></g></svg>