<svg xmlns="http://www.w3.org/2000/svg" xmlns:ffdec="https://www.free-decompiler.com/flash" ffdec:objectType="shape" width="75.45" height="40.7"><g fill-rule="evenodd"><path d="m44.6 39.8-.25.15-.2.15.2.5.05.1H26.55l-.1-.15-.25-.45-1.1.35-.8.25H12.95l-1.5-.9-.45-.5q-.6-.8-.6-1.85v-.05q.05-1.1.8-1.7.65-.5 1.5-.45.9.1 1.5.65l.65.75.7.75.1.05q.65.45 2.15.55l5-.55 2.9-.85.4-2.25.15-1.05.1-.3L25 34.2l-1.65 1.05q-2.4 1.2-4.15.5-1.65-.6-2.05-2.25-.5-1.65.65-2.95.65-.7 1.6-1.1l2.5-.05q.8.3 1.65 1.35l.3.25.4-.1 3.35-2.6q.7-1.7 1.55-2.95l-.5-.05q-2.2-.25-3.75-.9-2.2-.9-3.65-2.85l-.35-.5Q19 19.1 18.45 17.3l-.3-1.25-.6-3.1V10.1q0-.9.3-1.4.35-.65 1.15-.75.85-.05 2.1 1l.2.15q1.5-2.8 5.05-4.55Q30.1 2.8 33.8 3.1l.3-.45.25-.4.7-1Q35.7.45 36.4.3q.9-.15 1.7.5l1.25 1.3.1.15L41.9 5.9l1.4 3.2.8 2.15q.55 2.2.05 4.3l-.75 2.05q3-2.05 5.1-3.15-.75-4.05.95-6.4.8-1.05 2.05-1.65 1.25-.55 2.55-.5 1.3.1 2.45.9t1.7 2q.65 1.4.45 3.3-.1 1.95-.95 3.2-.7 1.1-2.1 1.9l-2.7 1.3q-1.15.55-8.55 4.75-4 2.25-7.1 3.3v.1q.15 1.85.65 3.5 3.8-1.6 6.8-.4 1.65.6 2.45 1.9 1.1 1.75.4 4.05l-.7 1.75Q46 38.9 44.6 39.8M40.2 8.1l-2 .05q.05.8-.3 1.9-.5 1.65-1.55 2.55v.05q.5 1.15 1.8 1.7 1.6.55 3-.3 1.4-1 1.5-2.6.1-1.65-1.25-2.75-.5-.45-1.2-.6m16.35 5.65q.45-1.2-.45-2.15-.9-.9-2.15-.6-1.25.35-1.5 1.55-.15.65.1 1.3t.8 1 1.25.35l1.25-.45zm.75-2.55.45-.55q.15-.3-.15-.7l-.2-.15q-.5-.3-.95.15l-.2.55.05.15q0 .25.15.3.35.4.85.25m-5.7-1.5q-.55 0-.85.45l-.2.6q.1.75.7.9.6.25 1.1-.25.45-.45.2-1.1-.25-.6-.95-.6m3.15.1.45-.6q.1-.4-.2-.75-.25-.3-.75-.4l-.05.05q-.5 0-.8.45-.25.4 0 .9l.75.5h.4zm-9.9 25.85q.4-.85.2-1.8-.25-1-1-1.45-.7-.4-2.05-.3-1.4.15-2.95.9 1.05 2.05 3 4.45l.5.65.9-.65q1-.85 1.4-1.8M29 18.55q.95.7 2.45.5l1.1-.2 1.25-1.3.3.05 2.25-.25q1.2-.5 1.3-1.75l-.2-.5q-.2-.05-.5.2l-.3.5-.7.25q-.7.2-1.1 0l-.65-.3q-.4-.25-.85-.15l-.1.05-.5.3-.3.85q-.4.8-1.25.95l-1.6.05h-.55q-.35.1-.35.4 0 .25.3.35m-2.15-.6q.7-1.25.3-2.45h-.45l-1.95-.3-.6-.25-.55-.35q-.7-.5-.85-1.1-1.35.55-1.8 2-.4 1.65.6 2.9 1.15 1.3 2.75 1.15 1.75-.15 2.55-1.6"/><path fill="#fff" d="m54.75 9.8-.2.15h-.4l-.75-.5q-.25-.5 0-.9.3-.45.8-.45l.05-.05q.5.1.75.4.3.35.2.75zm-3.15-.1q.7 0 .95.6.25.65-.2 1.1-.5.5-1.1.25-.6-.15-.7-.9l.2-.6q.3-.45.85-.45m5.7 1.5q-.5.15-.85-.25-.15-.05-.15-.3l-.05-.15.2-.55q.45-.45.95-.15l.2.15q.3.4.15.7zm-.75 2.55-.7 1-1.25.45q-.7 0-1.25-.35t-.8-1-.1-1.3q.25-1.2 1.5-1.55 1.25-.3 2.15.6.9.95.45 2.15M40.2 8.1q.7.15 1.2.6 1.35 1.1 1.25 2.75-.1 1.6-1.5 2.6-1.4.85-3 .3-1.3-.55-1.8-1.7v-.05q1.05-.9 1.55-2.55.35-1.1.3-1.9zm-13.35 9.85q-.8 1.45-2.55 1.6-1.6.15-2.75-1.15-1-1.25-.6-2.9.45-1.45 1.8-2 .15.6.85 1.1l.55.35.6.25 1.95.3h.45q.4 1.2-.3 2.45m2.15.6q-.3-.1-.3-.35 0-.3.35-.4h.55l1.6-.05q.85-.15 1.25-.95l.3-.85.5-.3.1-.05q.45-.1.85.15l.65.3q.4.2 1.1 0l.7-.25.3-.5q.3-.25.5-.2l.2.5q-.1 1.25-1.3 1.75l-2.25.25-.3-.05-1.25 1.3-1.1.2q-1.5.2-2.45-.5"/><path fill="#999" d="m11.45 39.8-6-.05h-.9l-.85-.05H2.65l-.1.1-.2.05-.1.05-.1.05h-.5l-.15-.05-.2-.1-.1-.05-.1-.1-.1-.05-.1-.1-.05-.1-.05-.05-.05-.1v-.05l-.05-.1v-.05l-.05-.1v-.05l-.05-.05v-.4l.05-.1v-2.2L.6 36.1v-3.2l-.05-.05v-13.3l.05-.05v-4.35l.05-.1v-2.8l.05-.05V8.9l.05-.05V8l.05-.1V6.05l.05-.1V3.8l.05-.1V1.95H.8L.65 1.9l-.1-.05-.15-.1-.1-.1-.1-.05-.05-.1-.05-.05-.05-.1v-.2L0 1.05.05 1V.75L.1.65.15.6.2.5.3.45l.1-.1L.5.3h.05l.1-.05h.65l.15.05h.3l.2-.05h.2l.3-.05H3.5L5.3.15h21.4L28.25.1h1.85l.6-.05h33.05L64 .1h.15l.45-.05h.9L68.05 0h5.7l.25.05.15.05.2.05.15.1.1.1.05.05.05.1.05.05.05.1.05.05.05.1v.05l.05.1v.4l-.05.05v1.25l.05.05v2.1l.05.1v1.15l.05.05v3.3l.05.05v.95l.05.05v1.25l.05.1v1.85l.05.1v3.4l.05.05v2.05l.05.05v2.05l.05.05v3.95l.05.1v9.95l-.05.05V36l.05.1v1l-.05.05v.9l-.05.05v.15l-.05.1-.05.05v.1l-.05.05-.05.1-.1.05-.05.1-.05.1-.05.05-.05.1-.1.05-.1.1-.1.05-.15.1-.05.05-.1.05-.1.1-.1.1-.15.05-.15.05-.25.05H73l-3.5.05h-2.2l-.95-.05h-.25l-.45.05h-.7l-5.15-.05H44.6q1.4-.9 2.25-2.35l.7-1.75q.7-2.3-.4-4.05-.8-1.3-2.45-1.9-3-1.2-6.8.4-.5-1.65-.65-3.5v-.1q3.1-1.05 7.1-3.3 7.4-4.2 8.55-4.75l2.7-1.3q1.4-.8 2.1-1.9.85-1.25.95-3.2.2-1.9-.45-3.3-.55-1.2-1.7-2t-2.45-.9q-1.3-.05-2.55.5-1.25.6-2.05 1.65-1.7 2.35-.95 6.4-2.1 1.1-5.1 3.15l.75-2.05q.5-2.1-.05-4.3l-.8-2.15-1.4-3.2-2.45-3.65-.1-.15L38.1.8q-.8-.65-1.7-.5-.7.15-1.35.95l-.7 1-.25.4-.3.45q-3.7-.3-7.45 1.45Q22.8 6.3 21.3 9.1l-.2-.15q-1.25-1.05-2.1-1-.8.1-1.15.75-.3.5-.3 1.4v2.85l.6 3.1.3 1.25q.55 1.8 2.45 3.75l.35.5q1.45 1.95 3.65 2.85 1.55.65 3.75.9l.5.05q-.85 1.25-1.55 2.95l-3.35 2.6-.4.1-.3-.25q-.85-1.05-1.65-1.35l-2.5.05q-.95.4-1.6 1.1-1.15 1.3-.65 2.95.4 1.65 2.05 2.25 1.75.7 4.15-.5L25 34.2l1.35-1.2-.1.3-.15 1.05-.4 2.25-2.9.85-5 .55q-1.5-.1-2.15-.55l-.1-.05-.7-.75-.65-.75q-.6-.55-1.5-.65-.85-.05-1.5.45-.75.6-.8 1.7v.05q0 1.05.6 1.85zm33.4-4.15q-.4.95-1.4 1.8l-.9.65-.5-.65q-1.95-2.4-3-4.45 1.55-.75 2.95-.9 1.35-.1 2.05.3.75.45 1 1.45.2.95-.2 1.8"/><path fill="#fff" d="M46.75 17.55q.7 2.9 4.55 4.75l1.75.65q1.4.35 3.65 0 3.4-.65 5.85-2.7 2.75-2.35 3.25-5.6.55-3-.95-6.6Q64.15 6.2 63 5.3l-1.15-.7-.9-.95q.9-.45 2.65.65l1.8 1.35q.8.8 1.5 2.7 1.15 3.2.95 6.4-.35 3.55-2.35 5.95l-2.55 2.35q-3.2 2.25-6.7 2.75-3.85.55-7.1-1.2-1.2-.7-2.1-1.55-1.25-1.1-2-2.3-1.45-2.3-1.3-5.7.15-5 3.75-8.45 1.75-1.6 4.05-2.35 2.35-.8 4.7-.45 2.35.4 4.3 1.9t2.85 3.65q.9 2.25.45 4.7t-2.15 4.1q-1.25 1.3-3 1.95-2 .85-4.1.65-2.25-.2-3.75-1.55-.85-.8-1.15-1.7-.2-.8 0-1.95.4-1.65 1.55-2.8 1.25-1.25 2.8-1.25.75 0 1.3.4.65.4.65 1.05t-1.15 1.5q-1.15.9-1.2 1.55-.05.45.25.85l.7.55 1.85.05q1.85-.4 3.2-1.8 1.4-1.4 1.5-3.15.05-1.3-.6-2.55Q59.9 8.75 58.8 8q-2.1-1.45-5.05-1.1-3.5.4-5.5 3.1-1.4 1.9-1.65 5.05-.15 1.45.15 2.5M52.25 2l.9.25.1.3-.15.2-.65.2q-3.25.45-5.85 2.8-2.35 2.1-3.6 5.45l-1.35 3.6q-1.65-2.05-.95-4.65.4-1.3 1.8-3.05l2.55-2.6q3.05-2.4 7.2-2.5m-34.6 21.25-.65.2q-.5.25-.9.6-.4.6-.25 1.05h.5q-.15-.4.2-.7.2-.25.65-.35l.95.05q.55.25.6.75l-.3 1-.6.7-1.2.35-1.25-.05q-.7-.2-1.05-.55l-.2-.4-.1-.45v-.8q.05-.55.45-1.45l.45-.65.65-.45 1.2-.6.4-.1 1.05.05.85.3.65.35q1.1.6 1.45 1.55l.15 1.2-.05.95q-.2.85-1 1.55-1.55 1.55-3.6 1l-.45-.2-.15-.4q0-.15.3-.35l.45-.1q.85-.05 1.75-.65l.65-.5.5-.85v-.6l-.15-.35q-.55-.8-1.35-1z"/></g></svg>