<svg xmlns="http://www.w3.org/2000/svg" xmlns:ffdec="https://www.free-decompiler.com/flash" ffdec:objectType="shape" width="76.2" height="38.35"><g fill-rule="evenodd"><path fill="#999" d="M62.35 11q-.3.95-.95.9-.55 0-.85-.9-.25-.8-.25-2.5V6.2q-.1-1.6.5-2.3.65-.75 1.6-.5.95.2 1.2 1.15l-.05 1.55-.25 1.3zm-10.8-.1-.05 1.3q-.3.85-.95.7-.45-.05-.75-.8l-2.3-5.05q-.15-1.05.45-1.75.7-.85 1.7-.45.8.3 1.15 1.3l.75 3.1zm-.8 4.5q-.25-.55 0-1.05.3-.45.9-.55.6 0 .85.55.3.45.05 1l-.65.55-.8-.1zm9.05-.4-.1-.65q.05-.4.35-.7t.7-.3l.1-.05q.4 0 .75.3l.45.7q.1 1-.85 1.35l-.8-.1zm16.4 10.8v12.55H1.1V26.9l-.4-.25q-.8-.55-.7-1.5L.35 24l.4-1.2v-1l.05-.95.2-.35-.05-.05-.75-.9-.05-.6.15-.9q.2-.5.8-.75l1.15-.25 2.15.45q1.15.5 1.6 1.55l.25.4.35.35.4.8.15.5.15-.05 2.25-.2 2.35.2q1.05.3 2.8 1.75l.75.5 1.05.05 1.8.35 1 .4 1.45-.25 3.05-.3q1.9.1 3 .55 1.2.5 2.1 1.65l.05.05h12.9l1.2-.65 4.15-.25q1.1.25 1.6.9h8.1l.9-.85q.85-.45 1.55-.6l2.05.15 2.15.3q.75.35.95 1h.9l.25-.4q.55-.7 1.4-1l3.4-.15q1.5.3 2 .95l.3.6z"/><path d="m63.4 25.95-5.75 4.85-3.35 2.35q-2 1.15-3.8 1.45-1.2.2-2 0-1.15-.35-1.6-1.2-.65-.95-.45-2.55.2-2 1.9-4.35-1-.8-1.35-1.7-.45-.95-.2-2.1l.4-1-3.2-1.2-.4.35q-1 1.1-1.95 1.3l-1.85-.25q-1.85-.5-2.35-1.35-.45-.7-.35-1.85l.05-.65-4.4-1.45q-.9.5-1.95.7l-3.75-.3-.4 1q-.75 1.9-2.1 2.3l-2.75-.25-9.65-2.95q-1.45-.4-1.95-1.1-.65-.9-.15-2.85l.25-1.05-.4-.1-1.8-.7q-.95-.6-1.1-1.5-.1-.5.1-1.4l.65-4.65q.2-1.7.75-2.25.55-.5 2.05-.6l9.9.65q1.5.3 2.05.7 1.1.85.8 1.9l-.55.95 2.05.1q2.8.1 3.6 1.3.55.85.3 2.05L28 10.7l5.7 1.9.1-.1q1.35-1.15 2.4-1.25 1-.05 2.25.55.95.45 1.35 1.05.5.75.35 2.1l4.5 1.75q1.3-1 3.3-.95 1.25 0 1.9.6.5.5.65 1.25l.1 1.55 3.25 1.65q4.75-4.2 8.95-6.2 2.1-.95 3.45-.95 2.2.1 2.95 1.75.35.85-.2 2.45l-1.05 2.45-1.75 2.35-1.1 1.45zm-9.2-15.8-.1-2.6-.2-1-.25-.75-.25-1.25-.15-2.8q.15-.7.75-1.25.65-.5 1.35-.5.75-.05 1.4.45.6.5.8 1.25l.05 1.1-.1 1.2-.55 2.65q-.3 1.2-.3 3.05.1 1.25-.35 1.75-.4.55-1.1.4-.65-.1-.9-.7zm-6 7.85-.45-.05.5.2zm6.55-1.6q-.75-.35-.9-1.15-.15-.55.15-1.15.25-.55.8-.8l1.15-.1q.65.1 1 .6.35.45.35 1.1 0 .6-.4 1.1-.4.45-1 .6zM67.9 29.8q1.1.25 1.45.6.45.45.35 1.2l-.55 1.15q-.75.7-2.45.9l-5.15-.3q-1.3-.4-1.45-1.25-.2-1.05 1.3-1.8 2.35-1.05 6.5-.5m-16.85-6.4.15-.1-1.8-.75-.1.8q.05.5.6 1l.15.1zm12.8 7.85-.3.1-.95.05-.05.15 1.4.15 1.4-.1-1.2-.25zm-24.4-12 2.3.45-2.35-.85zM11.5 6.95q.4-1.65 1.1-2.35h-1.4v1.3L11 7.6q-.2.25-.1.5l.3.25zm4.25.4q-.95.1-1.5.95-.5.8-.15 1.75.25.75.9 1.1l1.1.2 1.1-.45q.95-.9.55-2.15-.2-.65-.75-1.05t-1.25-.35"/><path fill="#fff" d="M15.75 7.35q.7-.05 1.25.35t.75 1.05q.4 1.25-.55 2.15l-1.1.45-1.1-.2q-.65-.35-.9-1.1-.35-.95.15-1.75.55-.85 1.5-.95"/></g></svg>