<svg xmlns="http://www.w3.org/2000/svg" xmlns:ffdec="https://www.free-decompiler.com/flash" ffdec:objectType="shape" width="76.2" height="42.4"><g fill-rule="evenodd"><path fill="#999" d="M5.7 9.7q1.05-2.1 2.25-3.8Q9.8 3.2 12.55.55l.6-.55h7.95Q17 1.45 13.7 5.25l-.6-.05-.85.05q-1.35.3-1.7 1.25l-.05.15-.5.65-.5 1-.05.75.05 1.6.3.4q-1.7 3.2-3.25 7.55-2.85 7.9-2.4 12.9.15 1.45.85 4.5.8 2.7 1.55 3.95L8.6 42.4H3.45q-1.35-2.1-2.2-5.05Q-.45 31.8.2 26.8l.85-4.15Q2.65 16.3 4.8 11.6l.8.15v.75q.1.5.5.75l.95.1q.65-.25.75-1.1l-.05-.5.7-.35q.35-.35.15-.95-.2-.45-.7-.6l-.4-.1V9.7q-.1-.7-.35-.85L7 8.75l-.05-.05q-.25-.25-.55 0l-.1.3h-.05l-.3.7zm9.95 1.8q1.05-1.4 2.25-2.65 5.55-5.6 12.65-6.65 2.85-.4 6.55-.05 7.1.55 11.15 3.35 4.4 3.05 6.1 8.65 1.5 5 .3 10.65-.6 3-2.05 5.85-3.05 5.85-9 8.65-2.1 1-4.95 1.6-5.15 1.1-9.3 0-2.95-.7-5.35-2.35-2.2-1.6-3.45-3.4-3.1-4.3-2.45-10.1.7-5.25 4.25-9.55 2.15-2.6 4.95-4.35 2.95-1.85 6.15-2.4l6.55.4q3.35.95 5.65 3.2 1.75 1.75 2.45 3.7.95 2.85-.2 6.55-1.75 6.15-6.4 8.65-2.3 1.3-5.95 1.55-3.7.2-6.2-.95-3.25-1.45-4.4-4.35-1.35-3.6 1.15-7.8 2-3.5 5.3-4.9 1.75-.75 3.6-.7 1.95 0 3.5.85l.8.75.1.55-.25.45q-.3.25-1.1 0-2.95-.75-5.8 1.1-2.4 1.65-3.55 4.8-.75 2-.15 3.45.6 1.55 2.35 2.2l3.2.55q3.45.2 5.55-.95 3.1-1.6 4.55-6.05.9-2.5.3-4.35-.35-1.2-1.4-2.25-2.25-2.3-5.8-2.55-3-.2-6.2 1.25-2.05 1.05-3.65 2.4-3.75 3.4-4.8 8.15-.5 1.85-.35 3.5.15 2 1.25 3.9Q24.6 33.7 26.3 35q3.35 2.5 7.85 2.6 4.3.15 8.25-1.9 4-2.1 6.3-5.7 2.35-3.6 2.7-8.05.4-4.45-1.35-8.4-.85-2-2-3.2-1.45-1.6-3.7-2.55-2.9-1.2-7.95-1.5-2.85-.2-4.65.05-6.15.75-10.95 5.7-4.05 4.2-6.05 10.85-1.8 6.05-.15 10.15 1.6 3.7 7.3 7.35l3.4 2h-7.45l-3.05-2.35q-2.6-2.3-3.8-4.9-2.7-5.6-.25-13.8 1.15-3.7 2.9-6.75l.55-.05.9-.1.65-.6-.1-.8zM72.2 29.75q1-5.7-.15-11.45-1.2-5.85-4.4-10.6-2.3-3.4-5.3-5.75Q60.8.8 59.2 0h6.6l.35.35q4.75 4.55 7.4 10.8 2.6 6.2 2.65 12.8.1 4.7-1.3 9.35l-1.55 4.35-2.05 4.1-.4.65h-4.05q4.1-5.6 5.35-12.65m-22.1 11.3q4.25-2.95 7.7-9.7l2.15-5.1q.9-3.05 1.05-6.4.35-8.4-4-12.95-1.5-1.6-4.1-3.1Q48.35 1.2 42.1 0h11.75q3 1.55 4.9 3.35 2.75 2.65 4.3 6.5 1.5 3.65 1.6 7.7.2 7.15-3.7 15.2-3 6.05-7 9.65h-6.2z"/><path d="M13.7 5.25h.3l.95.2.6.5.35.4.25.3q.7.8.75 1.75.1 1-.55 1.85l-.95.9.2.3.05.05v1.55l.1.8-.65.6-.9.1-.55.05-1.65-.2q-.6-.1-.9-.45-.25-.4-.15-.85 0-.5.15-.95l-.75-.4-.3-.45-.25-.25-.3-.4-.05-1.6.05-.75.5-1 .5-.65.05-.15q.35-.95 1.7-1.25l.85-.05zM4.8 11.6h-.05q-.5-.35-.5-.9.05-.6.55-.9l.9-.1h.25l.3-.7h.05l.1-.3q.3-.25.55 0l.05.05.15.1q.25.15.35.85v.05l.4.1q.5.15.7.6.2.6-.15.95l-.7.35.05.5q-.1.85-.75 1.1l-.95-.1q-.4-.25-.5-.75v-.75zm10-2.45.15-.85-.05-.4-.45-.7-.25-.2-.45-.05h-.8l-.6.3q-.9.7-1.1 2.2v.5l.45.35.55.25.05.05q-.15-1.45.15-2.1l.4-.45.8-.1.6.2.1.5.25.55-.1.55-.35.85zm-1.15 1.7.05-.4-.05-.4.2-.75-.2-.65q-.4-.15-.6.35v.75l.05 1.2.6.1zm-1.15 1.4.05.3.3.1h.9l.2-.05.05-.2v-.1h-.15zM50 13.8q.1 4.05-1.55 6.95-1.35 2.55-3.85 4.15l.1 1.75.2.95.75.45q2.05.8 2.8 2.95l.35 1.5.2 2.15q-.2 2.05-2.85 4.45.5.75.35 1.75l-.3 1H24q.05-.7.6-1.35l-1.45-1.9-.7-1.45q-2.6.8-4 1.6Q17 39.5 16 40.5l1-.15 1.95-.15q1.05.05 2 .6L22 41.85H10.75q0-1.35.15-1.8l.9-1.5q1.6-2.1 4.6-3.6 1.8-.9 5.65-2.05l.75-.15.5-1q1-1.4 2.4-2.15 1.05-.65 1.2-1.05l.2-.9.35-1.25q.25-.9.6-1.3l-1.6-1.25q-1.8-1.55-2.75-3.7-.9-2.25-.65-4.5.1-1.3.8-3.2l1.2-2.5.6-.75-.7-1.1-.2-1.55.2-2.15 1.1-2.3.45-1.3h4.8l.9 1.75.85 1.15 7.9-.25.4-.4L43.5.8h4.7l.5 1.75.45 2q0 .95.15 1.45l.1 1-.05.9.1.8.1 1.15v.3q.45 1.6.45 3.65m-12.4 1.8.45-.2q.45-.45.5-1.15 0-.65-.4-1.15-.4-.45-1.3-.65l-1.75.15q-.9.4-1.45 1.55-.65 1.5-.1 2.95.55 1.5 2.15 2l1.6.15 1.4-.1q.7-.2 1.2-.6l1-.9q.7-.75.95-2 .5-2.1-.55-4.15-.6-1.1-1.4-1.7-1.65-1.2-3.9-.95-1.9.25-3.4 1.4-1.6 1.2-2.25 2.95l-.6 2.2q-.25.85-.2 1.55l.3 1.35.7 1.6q1 1.85 2.95 2.7 1.9.85 4.05.45.7-.2.8-.35l.3-.65-.25-.7q-.4-.4-1.55-.4-1.75-.15-3-1.2-1.35-.95-1.75-2.7l-.1-.75.2-1.35q.7-2.4 2.55-3.4.95-.55 2.1-.45 1.15.05 2 .7.7.55 1 1.45.3.85.1 1.7-.35 1.35-1.5 1.9l-1.15.25-1.1-.15q-.5-.25-.7-.85-.2-.55 0-1.05.15-.5.6-.65t.8.2l.25.6z"/><path fill="#999" d="m37.6 15.6-.45-.4-.25-.6q-.35-.35-.8-.2t-.6.65q-.2.5 0 1.05.2.6.7.85l1.1.15 1.15-.25q1.15-.55 1.5-1.9.2-.85-.1-1.7-.3-.9-1-1.45-.85-.65-2-.7-1.15-.1-2.1.45-1.85 1-2.55 3.4L32 16.3l.1.75q.4 1.75 1.75 2.7 1.25 1.05 3 1.2 1.15 0 1.55.4l.25.7-.3.65q-.1.15-.8.35-2.15.4-4.05-.45-1.95-.85-2.95-2.7l-.7-1.6-.3-1.35q-.05-.7.2-1.55l.6-2.2q.65-1.75 2.25-2.95 1.5-1.15 3.4-1.4 2.25-.25 3.9.95.8.6 1.4 1.7 1.05 2.05.55 4.15-.25 1.25-.95 2l-1 .9q-.5.4-1.2.6l-1.4.1-1.6-.15q-1.6-.5-2.15-2-.55-1.45.1-2.95.55-1.15 1.45-1.55l1.75-.15q.9.2 1.3.65.4.5.4 1.15-.05.7-.5 1.15z"/></g></svg>