<svg xmlns="http://www.w3.org/2000/svg" xmlns:ffdec="https://www.free-decompiler.com/flash" ffdec:objectType="shape" width="76.6" height="41.85"><path fill="#999" fill-rule="evenodd" d="M76.1 41.35H.5V.5h75.6z"/><path fill="none" stroke="#5f645e" stroke-linecap="round" stroke-linejoin="round" stroke-opacity=".498" d="M76.1 41.35V.5H.5v40.85"/><path fill="#fff" fill-rule="evenodd" d="m6 6.8-.9-.75-.25-.8.3-.6h.1l.15-.15q.2-.2.95-.3l2.45-.4.35-.75.6-1.3.3-.45-.05-.1.4-.55q.4-.4.75-.35.3 0 .65.35l.4.55-.05.1.3.45.6 1.3.35.75 2.45.4.95.3.15.15h.1l.3.6-.25.8-.9.75-1.3 1.05-.2.25.05.35.8 2.4.1 1.2q-.05.7-.6.95L14 12.95l-.8-.7-2.1-1.95L9 12.25l-.8.7-1.05.05q-.55-.25-.6-.95-.1-.55.1-1.2l.8-2.4.05-.35-.2-.25zm54.2 0-.9-.75-.25-.8.3-.6h.1l.15-.15.95-.3L63 3.8l.35-.75.6-1.3.3-.45-.05-.1.4-.55q.4-.4.75-.35.3 0 .65.35l.4.55-.05.1.3.45.6 1.3.35.75 2.45.4q.75.1.95.3l.15.15h.1l.3.6-.25.8-.9.75-1.3 1.05-.2.25.05.35.8 2.4.1 1.2q-.05.7-.6.95l-1.05-.05-.8-.7-2.1-1.95-2.1 1.95-.8.7-1.05.05q-.55-.25-.6-.95-.1-.55.1-1.2l.8-2.4.05-.35-.2-.25zm0 15-.9-.75-.25-.8.3-.6h.1l.15-.15.95-.3 2.45-.4.35-.75.6-1.3.3-.45-.05-.1.4-.55q.4-.4.75-.35.3 0 .65.35l.4.55-.05.1.3.45.6 1.3.35.75 2.45.4q.75.1.95.3l.15.15h.1l.3.6-.25.8-.9.75-1.3 1.05-.2.25.05.35.8 2.4.1 1.2q-.05.7-.6.95l-1.05-.05-.8-.7-2.1-1.95-2.1 1.95-.8.7-1.05.05q-.55-.25-.6-.95-.1-.55.1-1.2l.8-2.4.05-.35-.2-.25zm-8.45 5.85 1.35.05h.6l.2.05h.3l.2.05h.25l.1.05q1.25.2 2.1.8.8.6 1.2 1.5.4.95.2 1.9-.25.85-.95 1.5l-.55.4-.4.3-.05.05-.15.1-.05.05-.15.05-.1.05h-.05l-.7.05h-.25l-1 .05h-.2l-.3.05h-6.3l-.6.05h-1.6l-.9-.05H41.8l-.55-.05H38.9l-3 .05h-1.5l-.25-.05h-.35l-.1.05h-.75l-.3-.05h-.4l-.35.05h-.55l-3.95.05h-3.9l-2.15-.05h-.3l-.15-.05-.15-.1-.1-.05-.1-.05-.1-.05-.15-.05-.1-.1-.15-.05-.1-.05-.05-.05-.1-.05-.1-.1-.1-.05-.1-.05-.05-.05-.05-.1-.1-.05-.05-.05-.05-.05-.05-.05v-.1l-.05-.05-.05-.05-.05-.05-.05-.1-.1-.1V33l-.05-.05-.05-.1v-.05l-.05-.05v-.05l-.05-.05v-.15l-.05-.05-.05-.05-.05-.1v-.05l-.05-.05-.05-.05v-.2l-.05-.05v-.35l.05-.1v-.65l.05-.05v-.2l.05-.05v-.05l.05-.05v-.15l.05-.05v-.05l.05-.1V30l.05-.05.05-.05.05-.05.05-.1v-.05l.05-.05.05-.05.05-.1.05-.05.05-.05.05-.05.05-.05.05-.1.05-.05.05-.05.1-.1.05-.1.05-.05.05-.05v-.05l.1-.1.05-.05.05-.05.1-.05.05-.05.1-.1.05-.05.05-.05.1-.05.05-.1.1-.05.05-.05.1-.05.15-.05.1-.05h.1l.05-.05.15-.05h.1l.2-.05h3.4l.25-.05H27l.25-.05h.6l.45-.05h.6l.7-.05h.05l-.7-2.1-.95-2.55-.45-.95-.7-2-1.4-3-.55-1.75-.65-.05h-1.1l-.2-.05-.2-.05h-.1l-.15-.05h-.05l-.2-.05h-.3l-.15-.05-.15-.05-.15-.1h-.05l-.2-.05H21l-.05-.05-.15-.05h-.1l-.1-.05h-.05l-.15-.05-.15-.05-.1-.05-.15-.05-.1-.05-.15-.05-.1-.05-.1-.1-.1-.05-.05-.05-.1-.05-.05-.1-.1-.05v-.05l-.1-.05v-.05l-.05-.1-.05-.05v-.05l-.05-.05-.05-.05v-.1l-.05-.05v-.05l-.05-.05v-.15l-.05-.05v-.95l-.05-.1v-.3l-.05-.05.05-.05v-.35l.05-.1v-.05l.05-.05v-.05l.05-.1v-.05l.05-.05.05-.05v-.05l.05-.1v-.05l.05-.05.05-.05.05-.1.1-.1V10l.05-.05.05-.1.1-.1.05-.05.05-.05.05-.1.2-.2V9.3l.05-.05V9.1l.05-.05.05-.05.05-.05.05-.05.05-.1.05-.05.1-.05.1-.05.1-.1.1-.05.1-.05.1-.05.15-.05.15-.1.15-.05.1-.05h.1l.1-.05h.2l.15-.05.15-.05h.45l.1.05h.35L23 8h.4l.85-.05h.25l1.05-.05H45.3l.7.05h1.4l2.9.05h4.6l.55-.05L56 8l.55.35 1.05.95.7 1 .15 1.15-.15 1.05-.3.6-.4.55-.55.5-1.05.6-.05.05h-.1l-.05.05h-.1l-.2.05h-.7l-.8.05h-.05l-.4-.05h-.15l-.2.05h-.1L53 15h-.35l-.3.05h-.45V18zm-7.3-13.5h1.4l-.05.05-.05.1-.05.15v.1l-.1.2v.1l-.05.1v.15l-.05.1v.15h-.15v.6l.1.2v.45l-.05.1v8.95l.05.1v2.3l.05.1v.3h-4l-4.95.05v-.1l.05-.15.05-.15.05-.15.1-.2.05-.15.05-.15v-.05l.1-.15.05-.15.05-.2.1-.15.05-.15.1-.25.05-.15.1-.2.05-.15.1-.2.05-.15.05-.15.1-.2.05-.15.1-.2.05-.15.05-.1.1-.25.05-.1.05-.15.1-.3.05-.15.1-.2.05-.15.1-.2.05-.15.05-.1.1-.25.05-.1.1-.25.05-.1.05-.15.1-.2.05-.15.05-.15.1-.2.05-.25.05-.25.05-.1.1-.25.05-.1.1-.15.05-.2.05-.15.1-.15.05-.2.05-.15.1-.2.05-.15.05-.15.1-.2.1-.2.1-.2.05-.15.05-.2.1-.15.05-.15.05-.2.1-.15.05-.15.05-.2.1-.15.05-.2.05-.15.1-.15.05-.2.1-.2.1-.2.05-.15.05-.15.05-.05.05-.15.05-.1v-.05l.1-.2.05-.15.05-.1.1-.25.05-.05h.7l1.35-.05zM22.3 8.6h-.45l-.2.05-.2.05-.2.05-.2.15H21l-.15.05-.1.05-.15.15-.15.1-.1.1-.15.15-.15.1-.05.2-.1.1-.1.1-.05.15-.05.1v.15l-.1.1-.05.1v.25l-.05.15v.2l-.05.15.05.1v.15l.25.45.1.7.05.15.05.1.1.05.05.15.1.1.15.1.05.05.65.4 1.25.4h3.05l.1.25.05.1.05.15.1.2.05.15.05.1.05.1.05.15.05.15.1.2.1.2.05.2.1.15.05.15.05.2.1.15.05.2.05.15.1.15.05.2.05.15.1.15.05.2.05.15.1.2.1.2.1.2.05.15.05.15.1.2.05.15.05.2.1.15.05.15.05.2.1.15.05.1.1.25.05.1.05.25.05.25.1.2.05.15.05.15.1.2.05.15.05.1.1.25.05.1.1.25.05.1.05.15.1.2.05.15.1.2.05.15.1.3.05.15.05.1.1.25.05.1.05.15.1.2.05.15.1.2.05.15.05.15.1.2.05.15.1.2.05.15.1.25.05.15.1.15.05.2.05.15.1.15.05.1v.1l.05.15.1.2.05.15.05.15.1.15-.05.1h-9l-.1.05h-.3l-.35.15-.3.1-.25.15-.15.1-.2.1-.15.15h-.05l-.05.05-.05.05-.05.1-.05.15-.15.1-.05.15-.1.1v.1l-.05.05-.1.1v.1l-.05.2-.05.1v1.2l.05.1.05.15v.1l.1.15.05.05v.1l.1.1.05.15.15.1.05.15.05.1.1.1.2.15.2.1.15.15.1.05.15.05.3.1.35.15h.4l1.5.05h9.2l14.25.05h8.35l.15-.05.2-.05.25-.1.2-.1.25-.1.2-.15.05-.05.05-.05.1-.05.05-.05.1-.15.2-.1.05-.2.05-.1.1-.15.1-.1.05-.1v-.15l.05-.1.05-.1v-.25l.05-.15v-.2l.05-.15-.05-.1v-.45l-.05-.1v-.25l-.05-.1-.05-.1v-.15l-.1-.05-.05-.05-.05-.15-.05-.1-.1-.1-.1-.15-.1-.1-.1-.15-.15-.15h-.05l-.1-.1-.2-.15-.25-.1h-.05l-.1-.05-.15-.1h-.05l-.25-.05-.15-.05-.5-.05h-3.9v-2.5l.05-.15v-9.1l-.05-.15v-1l-.1-.1v-.25l-.05-.1v-.35l-.05-.15-.05-.1-.05-.15v-.1l-.1-.05h4.55l.25-.05h.15l.4-.15.25-.1.25-.15.2-.1h.05l.1-.1.2-.15.1-.1.1-.1.05-.15.1-.1.05-.15.15-.1v-.1l.1-.15v-.1l.05-.2.05-.1v-1.2l-.05-.1v-.05l-.05-.1v-.1l-.1-.2v-.1l-.15-.15-.05-.1-.1-.1-.05-.15-.1-.1-.1-.1-.2-.15-.15-.1-.1-.05-.1-.1-.1-.05-.15-.05-.25-.1-.4-.15h-.4l-1-.05h-9.65L30.2 8.6h-7.9m21.95 15.1.05-7.25.05-1.1-1.85-.05q-1.05 2.25-2.25 5.5l-2.5 6.65h2.8l.3-.05h.25l.3-.05h2.75zM60.2 36.9l-.9-.75-.25-.8.3-.6h.1l.15-.15.95-.3 2.45-.4.35-.75.6-1.3.3-.45-.05-.1.4-.55q.4-.4.75-.35.3 0 .65.35l.4.55-.05.1.3.45.6 1.3.35.75 2.45.4q.75.1.95.3l.15.15h.1l.3.6-.25.8-.9.75-1.3 1.05-.2.25.05.35.8 2.4.1.4h-3.5l-1.05-.95-1 .95h-3.55l.1-.4.8-2.4.05-.35-.2-.25zM36.5 14.2v.05h.4l-.05.1-.1.15-.05.15-.1.3-.05.1-.05.25h-.05l-.05.1-.1.25-.05.1-.05.15-.1.2-.05.15-.05.15-.1.2-.05.15-.1.2-.05.15-.05.15-.1.2-.05.2-.1.2-.05.15-.05.15-.1.2-.05.15-.1.2-.05.15-.05.15-.1.2-.05.15-.1.2-.05.15-.05.15-.1.2-.1.2-.05.2-.05.15-.05.1-.05.05-.05.2-.05.15-.1.2-.05.15-.05.15-.1.2-.1-.2-.05-.15-.05-.15-.1-.2-.05-.15-.05-.2-.1-.15-.05-.15-.05-.2-.05-.1-.05-.1-.1-.2-.05-.15-.05-.15-.1-.2-.05-.15-.1-.2-.05-.15-.05-.15-.1-.2-.05-.15-.1-.2-.05-.15-.05-.15-.1-.2-.05-.2-.1-.2-.05-.15-.05-.15-.1-.2-.05-.15-.1-.2-.05-.15-.05-.15-.1-.2-.05-.15-.05-.1-.05-.2-.05-.05-.05-.1-.1-.25-.05-.1-.1-.3-.05-.15-.1-.15-.05-.1h.95v-.05h4.85m-2.85 4.65 1.45-3.5h-.35l-2.25.1zM6 21.8l-.9-.75-.25-.8.3-.6h.1l.15-.15q.2-.2.95-.3l2.45-.4.35-.75.6-1.3.3-.45-.05-.1.4-.55q.4-.4.75-.35.3 0 .65.35l.4.55-.05.1.3.45.6 1.3.35.75 2.45.4.95.3.15.15h.1l.3.6-.25.8-.9.75-1.3 1.05-.2.25.05.35.8 2.4.1 1.2q-.05.7-.6.95L14 27.95l-.8-.7-2.1-1.95L9 27.25l-.8.7-1.05.05q-.55-.25-.6-.95-.1-.55.1-1.2l.8-2.4.05-.35-.2-.25zm0 15.1-.9-.75-.25-.8.3-.6h.1l.15-.15q.2-.2.95-.3l2.45-.4.35-.75.6-1.3.3-.45-.05-.1.4-.55q.4-.4.75-.35.3 0 .65.35l.4.55-.05.1.3.45.6 1.3.35.75 2.45.4.95.3.15.15h.1l.3.6-.25.8-.9.75-1.3 1.05-.2.25.05.35.8 2.4.1.4h-3.5l-1.05-.95-1 .95H6.55l.1-.4.8-2.4.05-.35-.2-.25z"/><path fill-rule="evenodd" d="M22.3 8.6h7.9l14.25.05h9.65l1 .05h.4l.4.15.25.1.15.05.1.05.1.1.1.05.15.1.2.15.1.1.1.1.05.15.1.1.05.1.15.15v.1l.1.2v.1l.05.1v.05l.05.1V12l-.05.1-.05.2v.1l-.1.15v.1l-.15.1-.05.15-.1.1-.05.15-.1.1-.1.1-.2.15-.1.1h-.05l-.2.1-.25.15-.25.1-.4.15h-.15l-.25.05h-4.55l.1.05v.1l.05.15.05.1.05.15v.35l.05.1v.25l.1.1v1l.05.15v9.1l-.05.15v2.5h3.9l.5.05.15.05.25.05h.05l.15.1.1.05h.05l.25.1.2.15.1.1h.05l.15.15.1.15.1.1.1.15.1.1.05.1.05.15.05.05.1.05v.15l.05.1.05.1v.25l.05.1v.45l.05.1-.05.15v.2l-.05.15v.25l-.05.1-.05.1v.15l-.05.1-.1.1-.1.15-.05.1-.05.2-.2.1-.1.15-.05.05-.1.05-.05.05-.05.05-.2.15-.25.1-.2.1-.25.1-.2.05-.15.05H47L32.75 34h-9.2l-1.5-.05h-.4l-.35-.15-.3-.1-.15-.05-.1-.05-.15-.15-.2-.1-.2-.15-.1-.1-.05-.1-.05-.15-.15-.1-.05-.15-.1-.1v-.1l-.05-.05-.1-.15v-.1l-.05-.15-.05-.1v-1.2l.05-.1.05-.2v-.1l.1-.1.05-.05V30l.1-.1.05-.15.15-.1.05-.15.05-.1.05-.05.05-.05h.05l.15-.15.2-.1.15-.1.25-.15.3-.1.35-.15h.3l.1-.05h9l.05-.1-.1-.15-.05-.15-.05-.15-.1-.2-.05-.15v-.1l-.05-.1-.1-.15-.05-.15-.05-.2-.1-.15-.05-.15-.1-.25-.05-.15-.1-.2-.05-.15-.1-.2-.05-.15-.05-.15-.1-.2-.05-.15-.1-.2-.05-.15-.05-.1-.1-.25-.05-.1-.05-.15-.1-.3-.05-.15-.1-.2-.05-.15-.1-.2-.05-.15-.05-.1-.1-.25-.05-.1-.1-.25-.05-.1-.05-.15-.1-.2-.05-.15-.05-.15-.1-.2-.05-.25-.05-.25-.05-.1-.1-.25-.05-.1-.1-.15-.05-.2-.05-.15-.1-.15-.05-.2-.05-.15-.1-.2-.05-.15-.05-.15-.1-.2-.1-.2-.1-.2-.05-.15-.05-.2-.1-.15-.05-.15-.05-.2-.1-.15-.05-.15-.05-.2-.1-.15-.05-.2-.05-.15-.1-.15-.05-.2-.1-.2-.1-.2-.05-.15-.05-.15-.05-.1-.05-.1-.05-.15-.1-.2-.05-.15-.05-.1-.1-.25H22.3l-1.25-.4-.65-.4-.05-.05-.15-.1-.1-.1-.05-.15-.1-.05-.05-.1-.05-.15-.1-.7-.25-.45v-.15l-.05-.1.05-.15V11l.05-.15v-.25l.05-.1.1-.1v-.15l.05-.1.05-.15.1-.1.1-.1.05-.2.15-.1.15-.15.1-.1.15-.1.15-.15.1-.05.15-.05h.05l.2-.15.2-.05.2-.05.2-.05h.45m22.15 5.55h-.1L43 14.2h-.7l-.05.05-.1.25-.05.1-.05.15-.1.2V15l-.05.1-.05.15-.05.05-.05.15-.05.15-.1.2-.1.2-.05.2-.1.15-.05.15-.05.2-.1.15-.05.2-.05.15-.1.15-.05.2-.05.15-.1.15-.05.2-.05.15-.1.2-.1.2-.1.2-.05.15-.05.15-.1.2-.05.15-.05.2-.1.15-.05.15-.05.2-.1.15-.05.1-.1.25-.05.1-.05.25-.05.25-.1.2-.05.15-.05.15-.1.2-.05.15-.05.1-.1.25-.05.1-.1.25-.05.1-.05.15-.1.2-.05.15-.1.2-.05.15-.1.3-.05.15-.05.1-.1.25-.05.1-.05.15-.1.2-.05.15-.1.2-.05.15-.05.15-.1.2-.05.15-.1.2-.05.15-.1.25-.05.15-.1.15-.05.2-.05.15-.1.15v.05l-.05.15-.05.15-.1.2-.05.15-.05.15-.05.15v.1l4.95-.05h4v-.3l-.05-.1v-2.3l-.05-.1V16.7l.05-.1v-.45l-.1-.2v-.6h.15v-.15l.05-.1v-.15l.05-.1v-.1l.1-.2v-.1l.05-.15.05-.1.05-.05h-1.4m-7.95.05h-4.85v.05h-.95l.05.1.1.15.05.15.1.3.05.1.1.25.05.1.05.05.05.2.05.1.05.15.1.2.05.15.05.15.1.2.05.15.1.2.05.15.05.15.1.2.05.2.1.2.05.15.05.15.1.2.05.15.1.2.05.15.05.15.1.2.05.15.1.2.05.15.05.15.1.2.05.1.05.1.05.2.05.15.1.15.05.2.05.15.1.2.05.15.05.15.1.2.1-.2.05-.15.05-.15.1-.2.05-.15.05-.2.05-.05.05-.1.05-.15.05-.2.1-.2.1-.2.05-.15.05-.15.1-.2.05-.15.1-.2.05-.15.05-.15.1-.2.05-.15.1-.2.05-.15.05-.15.1-.2.05-.2.1-.2.05-.15.05-.15.1-.2.05-.15.1-.2.05-.15.05-.15.1-.2.05-.15.05-.1.1-.25.05-.1h.05l.05-.25.05-.1.1-.3.05-.15.1-.15.05-.1h-.4z"/></svg>