<svg xmlns="http://www.w3.org/2000/svg" xmlns:ffdec="https://www.free-decompiler.com/flash" ffdec:objectType="shape" width="73.05" height="41.35"><g fill-rule="evenodd"><path fill="#999" d="M20.75 1.65q4.3-.1 6.7 1.45 1.55 1 2.9 3.1.35-.2.8-.35 1.65-.6 3.5-.85Q38.3 2.65 43.8.85l2.1-.6 5.4-.2 1.6.15q1.85.25 5.7 1.7l1.2.55q1.65.8 2.75 2.1Q63.75 6 63.9 7.7l-.05 1.8-.25 1.45q-.35 1.1-1.35 2.1l-1.25.8-1.2.2-2.15-.35q-1.5-.65-2-2.35-.45-1.5.2-3.1l.3-1.15q0-.6-.65-1.25-.95-.9-3-1.2l-2.05-.2-3.1-.1q-2 .1-4.95.95l-.3.1.2.05 2.85.75q5.75 2 9.55 6.8l1.85 2.7q1.7 2.9 2.25 4.5 1.05 2.75.85 5.7l.6-1.25.35-3.15q.15-2.6 1.15-4.85 1.1-2.45 2.95-3.95l.95-.65 1.3-.4 2.3-.55q1.8-.5 2.6-1.15l1.2-1.7v7.05q-2.1.95-5.15 1.15l-1.05.2q-.35.2-.6.55-1.25 1.6-1.85 5.15l-.2 1.05q-.4 2.3-1 3.25l-1.6 1.8-.8.7-2.45 1.35Q57.1 32.55 54.6 34l1.05.45 3 .5 2.6.05q2.15-.35 4.5-2.7l.4-.55.1-.6-.5-3q-.45-1.9-.15-3 .25-1.05 1.05-1.8t1.8-1l2.05.1q1.05.3 1.75 1.1l.8 1.4v5.5L72.5 32l-.7 1.35-.8 1.15q-2.05 2.65-4.4 4.05-2.75 1.7-5.65 1.7L58 40l-1.9-.35-3.55-1.55-2.2-1.65-1.1-1.05-.65-.1q-2.85-.45-4.9-2.85l-.7-.9q-.2 1.75.3 3.3l.7 2.4q.1 1-.5 1.85-.55.9-1.5 1.25l-1.9.05q-1.05-.25-1.65-1.05-.5-.65-.85-1.95l-.5-2.6q-.35-2.9.8-6.1.9-2.45 2.5-4.6v-.05l-.6-1.9-1.4-3.9-1.25-2.5-.05-.15-.15.85-.25.45-1.15 1.8-1.2 1.3q-.8.55-1.7.35-.45-.1-.75-.35l-.5.2-1.45-.15L29 21.1l-1.9 2q-.95.8-2.6 1.6l-1.6.65-1.8.45-1.9.2-2.75 1.55q-2.35 1.5-3.2 2.3l-1.7 1.9-.95 1.1 2.3-.2 1.55-1.05q1-.85 1.55-1.1l3.35.15q.75.5 1.15 1.3.4.85.3 1.7-.2 1.7-2.25 3.2l-1.85 1.1-1.8.45-4.6.4q-2.65-.25-4.05-2-.9-1.25-.9-2.95.05-1.5 1.05-2.9.55-.8 2.05-2.1l1.4-1.1 1.85-1.1L15 25.1l-.3-.15q-1.65-.85-2.8-2.25l-1.85-.05-1.25-.2q-1.7-.2-2.25-.75-.85-.85-.45-1.95l.4-.8 2.7-3.85.05-.8q.25-2.85 1.95-5.95l-.45-2.3V4.5l-.15-.85q-.1-.6.25-1.2.3-.55.9-.8l.9-.15 1.35.05 2.3.45 1.1.3 1.6-.5zm-1.95 21.6q.9-.2 1.6-.85.65-.7.85-1.6.25-.9-.1-1.8-.3-.95-1-1.5l-.85-.5-.1.15-.75.85q-1.1 1.1-2.3 1.45l-1.35.15-.05.3q-.05.95.45 1.75.45.85 1.3 1.3zM24 7.9q-1-1.45-2.75-1.55-1.8 0-2.75 1.45l-.15.25.35.55 1.45 2.6.45 1.7q1.75.35 2.95-.95l.15-.2.65-1.05q.45-1.5-.35-2.8"/><path fill="#fff" d="M24 7.9q.8 1.3.35 2.8l-.65 1.05-.15.2q-1.2 1.3-2.95.95l-.45-1.7-1.45-2.6-.35-.55.15-.25q.95-1.45 2.75-1.45Q23 6.45 24 7.9m-5.2 15.35-2.3-.3q-.85-.45-1.3-1.3-.5-.8-.45-1.75l.05-.3 1.35-.15q1.2-.35 2.3-1.45l.75-.85.1-.15.85.5q.7.55 1 1.5.35.9.1 1.8-.2.9-.85 1.6-.7.65-1.6.85"/><path d="M35 12.25h1l1.25.15q.2-.75.75-1.55l1.05-1.25q1.2-1.05 3-.9 1.65.25 2.7 1.6l.9 2.05q.5 1.85.2 2.85-.3 1.05-1.15 1.75l-.15.15q.8.15 1.5.8.85.8 1.5 2.35 1.15 2.75.7 4.85l-.45 1.45-.55 1.3q-1.4 3.2-4.75 4.5l-1.35.35-.8.05.05.05.9 1.65.25.8q.7-.9 1.35-1.3 1.95-1.25 4.7-.55l.85.05.7-.55q.85-1.25.85-4.2 0-.55.3-.6.3-.1.45.45l.45 2.4v1.25l-.3.95q-.75 1.65-1.8 2.2l-2.05.45q-1.4.1-2.05.5-.65.5-1.25 1.8l-1.1 1.95q-.4.45-.95.6l-.7.05-.75-.15-.2.05-1.7.05-1.1-.55q-1.05.6-2.6.7H31.4l-1.75.15h-.9l-.1.05q-.4.35-1 .35l-1.1-.3q-1.05-.7-.95-1.9l.5-2.9.8-2.15.7-1.15-.55-.2-.45-.2-.25-.15-1.45-.45-1.4-1.05q-1.45-1.25-2-2.25l-.45-1.15q-.75-2.45-.7-4.45.1-2.45 1.25-4.3l.1-.1-.65-1.2-.05-.9q.1-2.35 2.05-4.1l1.5-.9 2-.2.8.15q1 .2 1.55.7l.15.15.2.25.35.6.05.05 1.15-.45.05.35v.3l.15.85v.05l.15.55v.9l.25.55.3.2 1.85-.1-.4.7v.05l-.1.45-.5 1.3-.2.4h.2l.1-.15.65-.75 1.5-2.3.15-.35-.3-.4-.5-.15-.35-.05-1.2.05.1-.85v-.1l.1-1.45v-.1l.05-.4 1.75-.1zm2.45 8.45.05.1.05.05.05.1.1.15.5.3.2.05.5.05.1-.05.15-.05.15-.1.45-.4.1-.15.15-.55-.15-.65-.2-.25-.3-.25-.25-.15H39l-.15-.05-.5.05-.25.05q-.1.1-.25.15l-.15.15-.1.15-.1.1-.05.2-.05.1-.05.15v.45zm-2.55-.65.1.8q.3 1.4 1.55 2.15 1.25.8 2.7.45l1.75-1q.75-.75.95-1.75l-.05-1.45q-.4-1.75-1.95-2.5-1.65-.75-3.2.05t-1.8 2.6zm3.3 2.7q-.95-.1-1.6-.75-.7-.65-.8-1.6-.15-1 .4-1.85.6-.9 1.5-1.15l.8-.15q1.65 0 2.35 1.35.85 1.35.1 2.75l-1.15 1.1zm4.1 4.6-.85 1.1-1.3.9-.55.3 2.25-.25q1.6-.65 2.2-2.15l.35-1.75v-1.2l-.45-1.1q-.35 2.2-1.65 4.15m-15.9-4.6.35.4q.95.95 2.25.65 1.35-.35 1.75-1.55.5-1.25-.35-2.35-.8-1.05-2.15-.95l-.7.15q-1.35.6-1.5 2v.6zm1.15-2.55.25-.1.5-.1.5.1.55.3.1.15v.1l.1.1.05.1.1.3v.45l-.05.15v.1l-.25.45-.15.15-.2.15-.6.2-.45-.05-.2-.05-.45-.3-.25-.3-.1-.2-.1-.45.05-.4.1-.2v-.1l.05-.1.15-.2.2-.15zm5.55 8.3.4-.3.25-.15.2.05h.3l.2.05h.25l.15.05h.5l.55-.55.1-.15v-.35l-.1-.15-.1-.1-.05-.15-.1-.2v-.35l-.05-.35-.15-.6-.45-.95-.3-.35h-.05l-.1-.4-.15-.55-.1-.6q-.05-.15-.25-.15l-.3.1-.1.55-.2 1.05h-.05l-.5.55-.2.25-.2.6-.3 1.55-.05.9.1.25q.05.3.4.45zM7.9 2.25l.8-.45q.5-.15.8.25.25.25.15 1.1l-.25 1.7Q8.6 8.6 5.95 10.7l-.75.5-.35.1-.3-.1-.8-.5Q1.1 8.6.35 4.85l-.3-1.7q-.1-.85.15-1.1.3-.4.8-.25l.8.45q.8.3 1.95-.35l.45-.2-.05.35h.05L3.6 4.6l-.05.25-.05.1v.55l.1.3.45.15h.35l.2.1h.25l.25.1-.3.55-.05.2-.35.55-.1.35v.35l.1.25h.4l.3-.3.2-.4 1.25-2.05-.2-.5-.75-.2-.45-.1h-.2L4.8 4.8l.65-1.15.35-.85.35-.55.1-.2zM34.65 26.3l.05.2-.55.05-.4.2-.15.1-.05.1q-.05-.55.05-.8l.1-.3v-.25l.15-.25.3-.15.15.15.1.25.15.2v.3zm-7 3.55q-2.25-1.5-3.05-3.8l-.4-1.45v.5q.1 2.75 1.7 4.2 1.25 1.15 2.9 1.2z"/><path fill="#fff" d="m27.35 11.5-.5-.85-.1-.4q-.05-.35.5-.8l.45-.35q.25-.25.6-.4l-.65-1.2q-.1-.35.15-.45h.35l.25.25 1.3 1 .3.6-.55.85-.55.35 1 1.3v-.05q1-1.1 2.5-.8l.35-1.25.45-1.05q.35-.6.95-.6l.7.15 1.1.25q0-1 .45-2.45l.2-.45.4-.1.3.3-.05 2.35-.05 1.4-.2.25-.35.15-1.55.05-.35 2.05.25.65h-.4l-1.75.1-.05.4v.1l-.1 1.45v.1l-.1.85 1.2-.05.35.05.5.15.3.4-.15.35-1.5 2.3-.65.75-.1.15h-.2l.2-.4.5-1.3.1-.45v-.05l.4-.7-1.85.1-.3-.2-.25-.55v-.9l-.15-.55v-.05l-.15-.85v-.3l-.05-.35-1.15.45-.05-.05-.35-.6-.2-.25-.15-.15q-.55-.5-1.55-.7m7.55 8.55.05-.65q.25-1.8 1.8-2.6t3.2-.05q1.55.75 1.95 2.5l.05 1.45q-.2 1-.95 1.75l-1.75 1q-1.45.35-2.7-.45-1.25-.75-1.55-2.15zm2.55.65-.1-.3v-.45l.05-.15.05-.1.05-.2.1-.1.1-.15.15-.15q.15-.05.25-.15l.25-.05.5-.05.15.05h.1l.25.15.3.25.2.25.15.65-.15.55-.1.15-.45.4-.15.1-.15.05-.1.05-.5-.05-.2-.05-.5-.3-.1-.15-.05-.1-.05-.05zm.75 2.05 1.6-.3 1.15-1.1q.75-1.4-.1-2.75-.7-1.35-2.35-1.35l-.8.15q-.9.25-1.5 1.15-.55.85-.4 1.85.1.95.8 1.6.65.65 1.6.75m-11.8 0-.35-1.05v-.6q.15-1.4 1.5-2l.7-.15q1.35-.1 2.15.95.85 1.1.35 2.35-.4 1.2-1.75 1.55-1.3.3-2.25-.65zm1.15-2.55-.1.1-.2.15-.15.2-.05.1v.1l-.1.2-.05.4.1.45.1.2.25.3.45.3.2.05.45.05.6-.2.2-.15.15-.15.25-.45v-.1l.05-.15v-.45l-.1-.3-.05-.1-.1-.1v-.1l-.1-.15-.55-.3-.5-.1-.5.1zm5.55 8.3h-.45q-.35-.15-.4-.45l-.1-.25.05-.9.3-1.55.2-.6.2-.25.5-.55h.05l.2-1.05.1-.55.3-.1q.2 0 .25.15l.1.6.15.55.1.4h.05l.3.35.45.95.15.6.05.35v.35l.1.2.05.15.1.1.1.15v.35l-.1.15-.55.55h-.5l-.15-.05h-.25l-.2-.05h-.3l-.2-.05-.25.15zm1.55-2.2-.1-.2v-.3l-.15-.2-.1-.25-.15-.15-.3.15-.15.25v.25l-.1.3q-.1.25-.05.8l.05-.1.15-.1.4-.2.55-.05z"/></g></svg>