<svg xmlns="http://www.w3.org/2000/svg" xmlns:ffdec="https://www.free-decompiler.com/flash" ffdec:objectType="shape" width="64.6" height="36.85"><g fill-rule="evenodd"><path fill="#999" d="M36.9 25q1.65.6.35 1.8-3.95 3.6-8.95 5.2-4.4 1.4-9 .75l-2.25-.45q-2.8-.8-2.05-3.6.4-1.4 1.8-1.65l3.1.15q5.05 1.45 10.05.15l4.65-1.55 1.5-.6z"/><path d="M39.55.45Q43.45.4 47 1.7l1.15.5.2-.15.55-.3q1.25-1.2 3-1.7l.3-.05q1.45.35 2.05 1.85l.2.8.45 1.5.25 1.55q1.2 4.35-.05 8.8l-.55 1.8q-.8 4.55-4.45 7.7l-3.05 2 .25.4q1 1.8 1.55 3.65l.75-1.15q1.9-2.8 5.2-3.15 1.55.1 2.9.9l.9.6q2.65-2.2 5.2-.2l.55.8q.85 2.7-1.45 4.4-2.9 2.1-6 .4l-1.05-.9-1.2-1.05q-1.6.75-2.6 2.5-.8 1.45-1.95 2.4H31.65q-.45-1.1.05-2.5 1.15-3.4 3.15-6.4l-2.15-.55q-3.1-.95-5.2-3.35l-.15-.2-.8 2.25q-.4 1.85-1.75 3.4-1.4 1.6-3.45 2.25l-1.45.4q1.35 2 2.1 4.25.35.95.05 1.7H9.7q-.8-.65-1.3-1.65-.7-1.15-1.75-1.65l-.8.7-.7.6q-2.1 1.15-4-.25-1.55-1.15-1-2.95l.4-.55q1.7-1.35 3.45.15l.6-.4q.9-.55 1.95-.6 2.2.2 3.5 2.1l.5.75q.35-1.2 1-2.4l.2-.3-2.05-1.35q-2.45-2.1-3-5.15l-.35-1.2q-.85-2.95-.05-5.85l.2-1.05.3-1 .1-.55q.4-1 1.4-1.2h.2q1.15.35 2 1.15l.35.2.15.1.75-.35q2.4-.85 5-.8l1.95.3q1.9.45 3.45 1.6.7-.55 1.6-.9l-.2-1.95q-.1-4.4 1.2-8.55.05-.6.35-1.1.8-1.3 2.2-1.4 2.4.55 4.2 1.95 2.3-1.7 5.15-2.4zm-8.5 11.4q-3.35.95-2.7 4.25.2 1.25 1.1 1.9l1.5-.25 2.4-.15h.7l.35-.45q1.2-1.9-.05-3.75-1.15-1.75-3.3-1.55m12.65 9.7q.85-.3 1.1-1.15-.1-.05-.05-.25l-.1-.4-.05-.1-.25-.15-.3-.05q-2.3.6-4-.75l-.2-.3-.45-.45-.2-.2-.4-.15-.85-.15q-1.35.35-1.75 1.75l-.3.7-.4.2-.05.05-1.75.3h-.65q-.25.05-.45.3l-.05.05q.45 1.45 2.25 1.55 2 .15 3.5-1.5l1 .3q2 1.2 4.4.4m1.6-10.45q-3.35 1-2.65 4.3.4 1.8 2.15 2.3 2.5.8 3.9-1.4 1.25-1.95-.1-3.75-1.2-1.65-3.3-1.45M18.75 24.65l-.3.1-.15.05-.05.1-.1.1-.05.05-.15.55-.45.7-.35.2-.1.05-.3-.05-.25-.1-.05-.05-.1-.1-.05-.1V26l-.05-.2v-.1l-.05-.05-.1-.1-.1-.1-.2-.05-.15.05h-.1l-.1.05-.3.7.15 1 .1.1q1.95 1.5 3.5-.3.75 1 2 .6 1.8-.55.9-1.9l-.2-.05h-.2l-.05.05-.35.3-.15.2-.35.15h-.3l-.25-.2-.35-.3-.15-.5-.35-.55-.15-.05zm-4.8-5.85q-1.9.1-2.7 1.8-.85 1.85.6 3.3 1.85 1.9 4 .35.95-.7 1.05-1.85.3-3.15-2.95-3.6m9.75-.35q-2.25.15-2.85 2.3-.35 1.35.6 2.45 1.7 2 3.95.55.95-.65 1.1-1.8l.05-.4q0-1.85-1.3-2.6z"/><path fill="#fff" d="M45.3 11.1q2.1-.2 3.3 1.45 1.35 1.8.1 3.75-1.4 2.2-3.9 1.4-1.75-.5-2.15-2.3-.7-3.3 2.65-4.3m-1.6 10.45q-2.4.8-4.4-.4l-1-.3q-1.5 1.65-3.5 1.5-1.8-.1-2.25-1.55l.05-.05q.2-.25.45-.3h.65l1.75-.3.05-.05.4-.2.3-.7q.4-1.4 1.75-1.75l.85.15.4.15.2.2.45.45.2.3q1.7 1.35 4 .75l.3.05.25.15.05.1.1.4q-.05.2.05.25-.25.85-1.1 1.15m-12.65-9.7q2.15-.2 3.3 1.55 1.25 1.85.05 3.75l-.35.45h-.7l-2.4.15-1.5.25q-.9-.65-1.1-1.9-.65-3.3 2.7-4.25m-7.35 6.6 1.55.5q1.3.75 1.3 2.6l-.05.4q-.15 1.15-1.1 1.8-2.25 1.45-3.95-.55-.95-1.1-.6-2.45.6-2.15 2.85-2.3m-9.75.35q3.25.45 2.95 3.6-.1 1.15-1.05 1.85-2.15 1.55-4-.35-1.45-1.45-.6-3.3.8-1.7 2.7-1.8m4.8 5.85.2.1.15.05.35.55.15.5.35.3.25.2h.3l.35-.15.15-.2.35-.3.05-.05h.2l.2.05q.9 1.35-.9 1.9-1.25.4-2-.6-1.55 1.8-3.5.3l-.1-.1-.15-1 .3-.7.1-.05h.1l.15-.05.2.05.1.1.1.1.05.05v.1l.05.2v.15l.05.1.1.1.05.05.25.1.3.05.1-.05.35-.2.45-.7.15-.55.05-.05.1-.1.05-.1.15-.05z"/></g></svg>