<svg xmlns="http://www.w3.org/2000/svg" xmlns:ffdec="https://www.free-decompiler.com/flash" ffdec:objectType="shape" width="73.3" height="38.35"><g fill-rule="evenodd"><path fill="#999" d="m38.55 21.3-1.9-.25L34.8 21q-2 .2-3.7 1.25l-.35.05-.15-.35.3-.5q2.3-2.3 5.25-2.75l1.95-.05L41 19l.1-.35.2-.35q.25-.35.65-.3.35.05.6.4l.45.8.9 3 .1.25q.35.8 0 1.35l-.55.35h-.75l-1.9-.2-.8.1q-.35-.1-.55-.55-.25-.35-.2-.75l.1-.65.2-.2.1-.05zm-3.2 12.2 1.9.25 1.9.05q2-.15 3.65-1.25l.4-.05.1.35-.3.55q-2.25 2.3-5.25 2.7l-1.95.1-2.85-.35-.15.35-.2.3-.6.35-.65-.45-.45-.8-.8-2.55-.05-.4-.15-.3q-.35-.75 0-1.35.2-.25.6-.3h.7l1.95.15.8-.05.55.5.2.8-.15.6-.2.25-.05.05zM10.15 9.25l.75-1.5v-.2l.05-2.5q0-.75.15-1.45l.8-1.15 2.05-.05 2.2.8q3.4-1.25 6-1.3 3.5 0 5.95 1.55l1.05.85.4.45.1-.05 2.1-.35q.85.1 1.3.85.35.65.2 1.55l-1.5 3.2.1 1.7q.15 3.7-1.35 6.65-1.8 3.4-4.85 4.6l-1.7.5-.45.1q3.1 2.35 4.65 4.45.9 1.25 1.1 2.15.35 1.3-.2 2.35-.45 1-1.9 1.55l-2.5.35L23 34.3l-1.3-.15 1.1 2.1.7 1.4.1.7H9l-.1-.2-.15-1.8.1-2.55.35-1.8.65-1.8q1.2-2.9 1.8-3.85 1.4-2.4 3.2-3.55l-.55-.25q-1.8-.9-3.9-2.7-3.85-3.3-6-6.65l-.35 1.05v.3L3.7 15.8l-.2.35-.15.45-.25-.15-.1-.3-.2-.4-.05-.35v-.85l-.05-.75.05-.75.1-.6v-.2l.35-1.3-.4-.9-.05-.2-.7 2.05q-.35 1.4-.6 5.85l-.25.45q-.25 0-.35-.45-.8-4.1-.85-6.3l.25-3.3.9-3.65.9-1.7Q2.4 1.65 3.5.85T5.95 0Q7.7-.1 8.8 1.15q1.05 1.3.4 3.3-.35 1.1-1.8 2.95-.55.65-.6 1.1l.2.9q.8 2.1 2.15 3.9.1-1.85 1-4.05m11.7 19.4.5.75q.45.45 1.85.55l-2.55-3.1-.7-1-.3 1.85q.7.25 1.2.95"/><path d="M63.15 9.25q.9 2.2 1 4.05 1.35-1.8 2.15-3.9l.2-.9-.6-1.1q-1.45-1.85-1.8-2.95-.65-2 .4-3.3Q65.6-.1 67.35 0q1.35.05 2.45.85t1.45 1.95l.9 1.7.9 3.65.25 3.3q-.05 2.2-.85 6.3l-.35.45q-.25-.05-.25-.45-.25-4.45-.6-5.85l-.7-2.05-.05.2-.4.9.35 1.3v.2l.1.6.05.75-.05.75v.85l-.05.35-.2.4-.1.3-.25.15q-.15-.05-.15-.45l-.2-.35-.35-1.25v-.3l-.35-1.05q-2.15 3.35-6 6.65l-3.9 2.7-.55.25q1.8 1.15 3.2 3.55l1.8 3.85.65 1.8.35 1.8.1 2.55-.15 1.8-.05.2h-14.6q-.05-.35.05-.7l.7-1.4 1.1-2.1-1.3.15-1.65.05-2.5-.35q-1.45-.55-1.9-1.55-.55-1.05-.2-2.35.2-.9 1.1-2.15 1.55-2.1 4.65-4.45l-.45-.1-1.7-.5q-3.05-1.2-4.85-4.6-1.5-2.95-1.35-6.65l.1-1.7-1.5-3.2q-.15-.9.2-1.55.45-.75 1.3-.85l2.1.35.1.05.4-.45 1.05-.85q2.45-1.55 5.95-1.55 2.6.05 6 1.3l2.2-.8 2.05.05q.5.35.8 1.15l.15 1.45.05 2.5v.2zm-12.1 8.25.25.05.25-.1.55-.35.25-.2.45-.25.95-.65.25-.05.35-.2.2-.15h.15l.1.05.15.1.65.1.15.05H56l.25.1h.25l.4.15.7-.15.25-.3-.15-.4-.15-.2-.4-.25-.85-.3h-.2l-.1-.15-.5-.05-.15-.05-.25-.15-.2-.15-.2-.35v-.15l-.1-.6-.05-.15-.3-.4-.1-.15-.2-.2-.2-.1-.25.05-.2.3.05.2-.1.4v.5l-.05.15-.05.4v.3l-.05.2.05.05-.15.1-2 1.75-.2.25-.1.25-.05.2v.05l.05.3zm-.5-4.25q.2-.95-.1-1.75L49 11.05l-.95-.55-.8-1.15h-.05l-.9.25q-.85.35-1.4 1.15t-.55 1.75.5 1.75l.75.8.35-.1 2.55-.45h.95l.45.1zM60.8 8.1l-1-.2-.15.45q-.75 1.5-2.55 2.35.05 1.3 1.15 2.05l1.05-.25.4.05 1.1-.1.75.05.3-.35q.85-1 .5-2.3-.45-1.3-1.55-1.75m-9.35 20.55q.5-.7 1.2-.95l-.3-1.85-.7 1-2.55 3.1q1.4-.1 1.85-.55zm-11.2 2q.9.6.55 1.6-.3 1-1.4.9l-.75-.2h-.05l-.3.35-.05.2v.1l-.2.45-.3.25-.85.25-.8-.2-.2-.2-.2-.1-.25-.4v-.1l-.05-.2v-.15l.05-.4.25-.35-8-.05-.3-.1-.1-.35q-.1-.35.35-.45h.05l.8-.45 1.85-.45.75-.45.1-.15-.1-.2-.35-.35-.3-.15-.3-.1L30 29l-.25-.45.05-.25q.1-.45.55-.45l.1-.05h.1l.6-.15.6-.2 1-.15q.8-.25 1-.5l.25-1-.05-.5-.2-.4L32 22.5v-.4l.05-.1.15-.2h.05v-.05q.2-.25.7-.25l.65.35.85.2q.65.15 2.35-.75l.55-.35.2-.25.25-.25.1-.2.2-.55q0-.35.15-.4l.1-.3-.05-.15.05-.15v-.2l.1-.25.05-.5.1-.25.1-.6v-.35l.2-.25.55-.1q.25.3.1.55l-.05.25.15.5-.1.45.1.4.2 3.35-.1.95v.5l.05.05v.35l.05.05q.55-.25 1.05-.55.55-.4 1.05-.45.65-.1 1 .35l.25.6v1.95l.2 1.1q0 .8-1.05 1.85zM39 29l-.1.4v.4l-.05.25H39l.15-.15.1-.25.2-.25.2-.15.15-.3.2-.2 1.25-1.85.05-.15v-.15l.1-.3-.05-.15-.05-1-.05.05-1 .45-.4.15-.05.15-.1.25-.35 1.2v.3zm-4.3 1.65q-.15-.75.5-1.25l1.4-.05q.1-1.45.55-2.6l.15-.55.4-1.3.55-.4.15-.1v-.05l.05-.1V24l.05-.05v-.2l.1-.05v-.3l.05-.05v-.9l.05-.05v-.45l-.3.4-.7.7-.95.4-.5.1-.85.05-.5-.05h-.35l.15.3.35.55.45.9.2.7.05.8-.05.55-.45.75-.25.2-.4.15-1.25.35-.65.1.1.05.25.25.15.25.1.55-.1.35-1.05.8-.25.05-.1.05h.2l.15-.05h.55l.7-.05h.25l.1-.05h1.15z"/><path fill="#999" d="m41.25 25.2.05-.05.05 1 .05.15-.1.3v.15l-.05.15L40 28.75l-.2.2-.15.3-.2.15-.2.25-.1.25-.15.15h-.15l.05-.25v-.4l.1-.4z"/><path fill="#fff" d="M60.8 8.1q1.1.45 1.55 1.75.35 1.3-.5 2.3l-.3.35-.75-.05-1.1.1-.4-.05-1.05.25q-1.1-.75-1.15-2.05 1.8-.85 2.55-2.35l.15-.45zm-10.25 5.15-.65 1.35-.45-.1h-.95l-2.55.45-.35.1-.75-.8q-.5-.8-.5-1.75t.55-1.75 1.4-1.15l.9-.25h.05l.8 1.15.95.55 1.45.45q.3.8.1 1.75m.5 4.25-.35-.15-.05-.3V17l.05-.2.1-.25.2-.25 2-1.75.15-.1-.05-.05.05-.2v-.3l.05-.4.05-.15v-.5l.1-.4-.05-.2.2-.3.25-.05.2.1.2.2.1.15.3.4.05.15.1.6v.15l.2.35.2.15.25.15.15.05.5.05.1.15h.2l.85.3.4.25.15.2.15.4-.25.3-.7.15-.4-.15h-.25l-.25-.1h-.25l-.15-.05-.65-.1-.15-.1-.1-.05h-.15l-.2.15-.35.2-.25.05-.95.65-.45.25-.25.2-.55.35-.25.1zm-9.8 7.7L39 29l.35-1.3v-.3l.35-1.2.1-.25.05-.15.4-.15zM26.35 7.75q.9.3 1.45 1.05.9 1.2.4 2.65-.4 1.4-1.85 1.9t-2.65-.4q-1.15-.75-1.25-2.35l.1-.7q.25-1.05 1.05-1.65.8-.65 1.9-.65zm-5 6.85-.45.2-.05.15v.25l-.25.6-.25.45-.35.55-.25.15-.15.15-.7.45-.85.05-.45-.15-.55-.2-.2-.15-.1-.1-.2-.25-.15-.25-.05-.2-.15-.3v-.3l.1-.6v-.15l-.3-.05-.3-.1-.35-.45-.1-.25-.05-.35v-.65l.05-.25v-.2l.1-.15.25-.25.6-.4.65.1.2.3.05.15-.05.2-.1.25-.15.2-.15.15-.05.1v.3l.6.15.35-.2.4-.3.2-.15.4-.2.3.1H19l.25.25.1.15.05.05.25.3.25.05h.55l.3-.1.15-.45-.05-.35-.1-.2.2-.55.3-.1.2.1.3.2.2.35.05.4-.05.6-.05.2-.2.35zM34.7 30.65l.2.45h-1.15l-.1.05h-.25l-.7.05h-.55l-.15.05h-.2l.1-.05.25-.05 1.05-.8.1-.35-.1-.55-.15-.25-.25-.25-.1-.05.65-.1 1.25-.35.4-.15.25-.2.45-.75.05-.55-.05-.8-.2-.7-.45-.9-.35-.55-.15-.3h.35l.5.05.85-.05.5-.1.95-.4.7-.7.3-.4v.45l-.05.05v.9l-.05.05v.3l-.1.05v.2l-.05.05v.25l-.05.1v.05l-.15.1-.55.4-.4 1.3-.15.55q-.45 1.15-.55 2.6l-1.4.05q-.65.5-.5 1.25M11.35 7.9l1.15-.7.55-.05.15-.05q1.55 0 2.35 1.4t-.05 2.7q-.4.7-1.15 1.05l-1.6.2q-.95-.15-1.6-.9-.6-.65-.6-1.7l.15-.95q.25-.65.65-1m7.8 6.8-.3-.25h-.05l-.7.15-.45.25-.1.05-.05.15v.25q-.1.2-.05.3l.1.2v.15l.15.15.7.25h.25l.15-.15.35-.2.3-.35.1-.25.2-.5z"/></g></svg>