<svg xmlns="http://www.w3.org/2000/svg" xmlns:ffdec="https://www.free-decompiler.com/flash" ffdec:objectType="shape" width="71.3" height="39.5"><g fill-rule="evenodd"><path fill="#999" d="m60.6 25.7.05-.35.05-.3-.4-.25-.65-.85-.2-.4q-.15-.35-.15-.8l.05-.35q.3-1.2.8-1.8.75-.9 1.7-.85l.1-.05q.95.1 1.35.35l.85.75v.05l.25-.1 1-.15v-.2q.3-1.2.75-1.8.55-.85 1.6-1h.8l.65.15.7.5.9 1q.6 1 .15 2.1l-.35.6-.1.2.65 1.5q.35 1.55-.15 3.3l-.35.9Q70 29.2 68.8 29.9q.6 1.8.2 4.15l-.3 1.25-.5.95q-1.35 2.25-3.6 3l-2.35.2q-1.25-.15-2.15-.9-.7-.5-1.05-1.25l-.8-.25-.6-.15-.5.1q-1.05.45-1.25.9l-.2.6q-.2.4-.5.35-.4 0-.3-.4l.05-.9.25-.45.7-.9 1.2-.65.65-.25.8-.05q0-.5.15-.95.65-1.8 2.95-2.7l1.3-.55.75-.75-.5-.25q-1.1-.5-1.8-1.45l-.25-.35-.15-.1-.15-.35v-.15l-.05-.1.05.05.1-.15.6-.3.6-.2.65-.1.4.05v-.05q.15-.65-.15-1.1-.45-.7-1.25-.7v.05h-.3l-.1.05-.15.05q-.25.2-.55.35l-.05.1zm-7.5 1.4 1.95-1.75.35-.45.7-1.25q.1-.2.25-.1l.15.2-.1.15-.1.6-.9 2.3-.6 1.1-.3.4-1.4 1.05-.5.15q-.35 0-.75-.3-.3-.7-.15-1l.8-.7zm-4.2 6 .6.45.8.05 1.3-.75q4.4-3.25 6.3-7.45l1.1-2.55.2 1.6-.4 1.9-1.4 3.55-1.35 2.55-2.55 3.15q-1.65 1.35-3.65 1.5l-1.35-.2q-.7-.25-1.2-1.05-.75-1.15-.25-2.1.25-.55.8-.75zm17.55-4.65.5.1.4-.1.05-.6-.15-.25-1.3-.55-.05-.25-.15-.25v-.3L65.6 26l-.1-.15q-.1-.3-.45-.2-.15 0-.35.2l-.1.2.05.25.15.5v.25l.1.2-.15.2-.35.8-.1.45.05.2q0 .4.4.3l.15-.35.75-.75zm-.05-3.05.1.1.5-.35.6-.25.35-.1 1.15-.15.45.05.65.15.05-.4v-.25l-.05-.4-.25-.5-.05-.05-.05.05-.3.3-.95.15h-.45L68 23.7l-.35-.05-.8-.3-.3-.3-.15.2-.25.6-.05.5q0 .6.3 1.05M31.35 1.45l.2.2-.3.2-3.05.55q-2.05.65-3.6 2.25t-2.3 3.7q-.4 1.3-.05 2l.6.95.05 1-.65.75L20.4 13q-.85-.45-1.2-1.55-.25-.75-.15-1.95.25-2.85 2.1-5.05Q22.8 2.5 25.5 1.6l1.3-.35zm-10.1.45h.2l.05.15-.5.35-.4.55-.35.3-.5.65q-.6.75-1.1 2.55l-.5 2.5-.1.5q-.15.5-.7.65-.6.1-.9-.35L16.2 9q-.15-1.05.4-2.4.45-.95.85-1.55l.45-.6 1-1.05q1.45-1.35 2.35-1.5m-10 2.6-.1-.3-.05-.15-.05-.1-.1-.1-.15-.2-.2-.15-.1-.15-.25-.1-.35-.05-.85.15-.55.4-.05.15-.1.15-.05.1-.1.4v.35l.05.1v.15l.05.15.1.2.25.3.05.05.45-.55.8-.3.75.15.3.25.05.05.05-.1v.2l.05.25-.25 1.35-1.25 1.6q.7.9.85 2v2.4l-.2.6q-.8 2-2.35 2.55l-1.05.15h-.4q-.9.6-1.85.6l-1.05.1-.4.4-.1.55.4 1q.45 1.1-.05 2.1-.4.6-.8.7l-.45-.1q-.15-.15.05-.6.5-.9.35-1.45l-.25-.45-.35-.75-.25-1.05q0-.9.4-1.45.6-.75 1.35-.95l.4-.1-.35-.85-.2-.7.05-1 .3-1.75q.15-.85.65-1.55l-.55-.4-.35-.45-1.6-.25Q.65 7.6.15 6.25q-.4-1.35.3-2.45.7-1.15 2.05-1.4 1.05-.2 2 .35V2.7q1-.75 2.25-.8l.05-.15.35-.65Q8 0 9.3 0q1.25 0 2 .85.8.85.7 2.05-.1.95-.75 1.6m-7.8 1.55-.05.35.05.35.1.25.2.25.35.3.45-.5q.8-.6 1.45-.45l.1.05v-.3l-.05-.4v-.1l-.1-.2-.1-.15-.1-.05V5.4l-.25-.15-.05-.1-.2-.1-.5-.05-.3.05q-.45.1-.8.5zm3.2 1.6-.2.2-.1.45.3.35h.4l.25-.3.2-.4.1-.05.05-.15.9.1.25-.05.15-.3-.2-.3-.4-.15-.2-.1-.15-.1-.2-.25v-.2l-.1-.2-.35-.35q-.3 0-.35.2v1.1l.05.05z"/><path fill="#fff" d="m60.8 27.55-.2-.2-.2-.4-.05-.4.05-.35.05-.1.1-.3.05-.1.05-.05.05-.1q.3-.15.55-.35l.15-.05.1-.05h.3v-.05q.8 0 1.25.7.3.45.15 1.1v.05l-.4-.05-.65.1-.6.2-.6.3-.1.15zm5.6-2.15q-.3-.45-.3-1.05l.05-.5.25-.6.15-.2.3.3.8.3.35.05.15.05h.45l.95-.15.3-.3.05-.05.05.05.25.5.05.4v.25l-.05.4-.65-.15-.45-.05-1.15.15-.35.1-.6.25-.5.35zm.05 3.05-.8-.35-.75.75-.15.35q-.4.1-.4-.3l-.05-.2.1-.45.35-.8.15-.2-.1-.2v-.25l-.15-.5-.05-.25.1-.2q.2-.2.35-.2.35-.1.45.2l.1.15.15.25v.3l.15.25.05.25 1.3.55.15.25-.05.6-.4.1zM11.1 5.35l-.05.1L11 5.4l-.3-.25L9.95 5l-.8.3-.45.55-.05-.05-.25-.3-.1-.2-.05-.15V5l-.05-.1v-.35l.1-.4.05-.1.1-.15.05-.15.55-.4.85-.15.35.05.25.1.1.15.2.15.15.2.1.1.05.1.05.15.1.3v.35l-.05.1-.05.25zm-4.45 2.3.4-.45L7 7.15v-1.1q.05-.2.35-.2l.35.35.1.2v.2l.2.25.15.1.2.1.4.15.2.3-.15.3-.25.05-.9-.1-.05.15-.1.05-.2.4-.25.3h-.4l-.3-.35.1-.45zm-3.2-1.6.2-.5q.35-.4.8-.5l.3-.05.5.05.2.1.05.1.25.15v.05l.1.05.1.15.1.2v.1l.05.4v.3L6 6.6q-.65-.15-1.45.45l-.45.5-.35-.3-.2-.25-.1-.25-.05-.35z"/><path d="M66.45 7.05q-.2-.35.1-.75l.55-.6.5-.85.1-.85-.15-1.15-.3-1.05.05-.4.35-.3.4.15.65.9.15.25.2 1.55-.05.85-.15.6-.8 1.05-.15.25.15.2.15.45q.1.65-.45.75L67.2 8l-.35-.4zM67 3l.15.95-.2.9-.15.35-.55.7-.6.65.1.05.1.3q.55.3.45.95l-.45.65-.8-.05-.45-.8-.2-.55q-.3-.7-.05-1.1l1-1.15.2-.3.25-.65-.15-.9-.5-.85-.5-.7V1L65 .75l.4.1.45.2Q66.8 1.65 67 3m-2.25-.6.2.8.05.7q-.05 1.05-1.15 1.85l-.35.3.1.1v.25l.1.55.2.45-.05.8-.1.2-.3.25-1.25.25h-.9l-.9-.3-.25-.45-.05-.2.05-.3.15-.25.15-.4.05-.35.1-.2.1-.4-.55-.4-.6-.7q-.65-.95-.3-2.1.4-1.55 2-1.95l1.1-.1 1.3.45.7.6zM57.3 5.95q-.15.5-.7.5l-.65-.55v-.3l-.5-.05q-.7-.3-.45-.85.05-.35.5-.45l.5-.05.1-.45q.1-.3.6-.4l.05-.05q.25 0 .55.3l.1.65-.05.1h.3q.5.1.5.65.1.4-.4.7l-.4.05zM36.55 25.4q-1.15-.9-2.4-2.6l-.1-.25-.45.35q-1.75 1.35-2.6 4.15l.4-.3q1.8-1.05 3.65-.9 2.2.25 3.15 2 .6 1 .6 3.35 1.7-.25 2.75.8.7.75.55 1.85-.15 1-1.1 1.55l-1.95.3-2.05-.1-1.35.15q-1-.15-1.45-1-.45-.75-.25-1.8l.2-1.3-.05-.7-.1-.2-.25-.05q-1.1 0-2.75 1.2l-2.1 1.5-.15.15q-1.3 1.85-3.05 2.4l-2.35.3-1.6-.05-.5.7-.25.4-.2.55q-.45 1.25-1.95 1.35-1.45 0-2-1.25-.2-.5-.2-2.45t.15-3.2q-.4-1-.4-2.2.05-1.75 1.7-4.8l.4-3.4.05-1.6-.55-2.8q-.35-1.55-.95-2.15l-1.15-.75q-1.2-.55-2.3-.35-1 .3-2.15 1.4-2.3 2.45-2.25 5.15l.25 1.25q.4.7 1.05.75l.85-.35q.45-.35.4-.85l-.6-1.35q-.65-1.45.1-2.65.8-1.35 2.3-1.35.75 0 1.45.45 1 .55 1.5 1.65.55 1.15.45 2.35-.15 2.1-1.95 4.2-.95 1.1-1.85 1.6-1.65.95-4 .4-1.45-.4-2.55-1.3-1.2-1-1.55-2.3l-.35-1.7-.05-1.9q.25-4.6 4.5-8.2.7-.55 1.25-.85 1.25-.75 3.8-.65l1.35.15q.85.25 2.15 1.15 2.25 1.6 2.95 2.8l.8 2.3.75 3.4v.5q3.05-2.65 6.05-3.35l2.1-.3.5-.05q-.15-3.4-1.45-6.4-.5-1.4-1.3-2-1.1-1-2.2-.4-.5.2-.85.75-.25.2-.25.45l.2.5q.3.8.1 1.7t-.9 1.45q-.65.55-1.6.65-.9.1-1.65-.35-1.7-.85-1.7-2.85 0-.75.4-1.75.65-1.9 1.7-3.15 2.05-2.35 5.3-2.2 3.2.15 5 2.8l1.25 2.75.5 1.8.25 1.05q1.2-2.8 3.75-4.3.15-.6.65-1.4l1.05-1.6L40.15 3q.6-.5 1.25-.55.65 0 1.4.5l1.1 1 .5.55.45.55q1.8.1 4.05 1.2 2.5 1.15 4.2 2.9l1.5 1.9 2 .15 1.4.45q.7.4.7 1.2l-.3 1.05-.95 2.3-.45 1.15-1.4 2.2q-.45 1.4-1.7 3.05l-2.6 2.6.3.3 1.9 2.45.75 1.35q.5 1.2.3 2.5-.1 1.2-.85 2.25-1.55 2.15-4.25 2-1.45-.1-2.2-.95-1.15-1-.65-2.6.45-1.4 1.85-2l.7-.4-1.3-2-.95-.8-3.45.45-2.85-.5q-2.7-.8-4.05-1.85m11.9-8.45-.15.5h.05l1.3.55.3.25.45.25.5.4.5.5.55.75.3.5.65-.4q1-.75 1.15-1.9.15-1.2-.55-2.2l-.45-.45-1.25.7-1.15.3-.7.1-.6-.05-.75-.15zm-8.2 3.9.3.2.75.2.8.05h.9l1-.35.5-.2h.05l.45.1.15.05.4.2 1.05.3.35.05.35.15 1.3.3h.3l.4-.15.05-.5-.45-.35-.25-.25-2.45-1.1-.25-.15-.1-.1v-.75q-.1-.65-.65-.55-.3 0-.75.55l-.3.45-.05.1h-.05q-1.15.85-2.65.6l-.45-.15-.85-.5-.2-.2-.15-.4-.1-.4-.3-.2-.35.05q-.35.45-.2 1.15l.55 1.05.15.15zm2.85-5.6q.8-1.6-.15-3.2-.95-1.55-2.8-1.65-1.75-.1-2.85 1.45-.65.95-.6 2.05l.55.05q2.35.2 3.55.95l.85.6.7.75z"/><path fill="#fff" d="m43.1 15.25-.75 1-.7-.75-.85-.6q-1.2-.75-3.55-.95l-.55-.05q-.05-1.1.6-2.05 1.1-1.55 2.85-1.45 1.85.1 2.8 1.65.95 1.6.15 3.2m-2.85 5.6-.75-.6-.15-.15-.55-1.05q-.15-.7.2-1.15l.35-.05.3.2.1.4.15.4.2.2.85.5.45.15q1.5.25 2.65-.6h.05l.05-.1.3-.45q.45-.55.75-.55.55-.1.65.55v.75l.1.1.25.15 2.45 1.1.25.25.45.35-.05.5-.4.15h-.3l-1.3-.3-.35-.15-.35-.05-1.05-.3-.4-.2-.15-.05-.45-.1h-.05l-.5.2-1 .35h-.9l-.8-.05-.75-.2zm8.2-3.9.15-.35.75.15.6.05.7-.1 1.15-.3 1.25-.7.45.45q.7 1 .55 2.2-.15 1.15-1.15 1.9l-.65.4-.3-.5-.55-.75-.5-.5-.5-.4-.45-.25-.3-.25-1.3-.55h-.05z"/></g></svg>