<svg xmlns="http://www.w3.org/2000/svg" xmlns:ffdec="https://www.free-decompiler.com/flash" ffdec:objectType="shape" width="32.7" height="32.85"><g fill-rule="evenodd"><path d="M18.4 10.7q-.9-.85-.75-2.05.1-.7.6-1.2.5-.55 1.15-.7l1.4.1 1.05.85q.4.55.4 1.3-.05.75-.45 1.3-.5.75-1.55.9t-1.85-.5m4.7 16q1.7-.9 2.75-2l1.25-1.5q1.2-2.1 1.55-5l.35-3.05q-.05-2.2-1-4.35-1.05-3.25-3.5-5.35l-2.45-1.5-2.1-.6-1.95-.2-2.15.4q-1.3.55-2.2 1.8-.85 1.25-1 2.7-.3 2.85 1.55 5.45.85 1.2 1.65 1.7l1.9.85q1.35.5 1.95 1.15l.9 1.3.35 2.05q.3 3.45-1.45 6.3l-1.2 1.65q2.65-.55 4.8-1.8m3.5-23.9q1.85 1.4 3.65 4.3l1.6 3.25q1.9 5.3-.55 12.15l-1.7 3.55q-2.75 4.1-8.75 5.85-4.35 1.25-8.15.85-3.8-.45-7.25-3.4t-4.3-5.2Q.3 21.85.1 20q-.4-3.85.55-7.4 1-3.8 2.5-5.65t3.45-3.5Q8.5 1.8 10.8 1q2.25-.8 4.85-1Q22.6-.25 26.6 2.8M13.5 20.7q-1.3-.6-2.4.35-1.05 1-.65 2.35.5 1.4 1.95 1.55.75.05 1.45-.45.65-.45.85-1.2.25-.75-.15-1.5-.35-.75-1.05-1.1"/><path fill="#fff" d="M23.1 26.7q-2.15 1.25-4.8 1.8l1.2-1.65q1.75-2.85 1.45-6.3l-.35-2.05-.9-1.3q-.6-.65-1.95-1.15l-1.9-.85q-.8-.5-1.65-1.7-1.85-2.6-1.55-5.45.15-1.45 1-2.7.9-1.25 2.2-1.8l2.15-.4 1.95.2 2.1.6 2.45 1.5q2.45 2.1 3.5 5.35.95 2.15 1 4.35l-.35 3.05q-.35 2.9-1.55 5l-1.25 1.5q-1.05 1.1-2.75 2m-4.7-16q.8.65 1.85.5t1.55-.9q.4-.55.45-1.3 0-.75-.4-1.3l-1.05-.85-1.4-.1q-.65.15-1.15.7-.5.5-.6 1.2-.15 1.2.75 2.05m-4.9 10q.7.35 1.05 1.1.4.75.15 1.5-.2.75-.85 1.2-.7.5-1.45.45-1.45-.15-1.95-1.55-.4-1.35.65-2.35 1.1-.95 2.4-.35"/></g></svg>