<svg xmlns="http://www.w3.org/2000/svg" xmlns:ffdec="https://www.free-decompiler.com/flash" ffdec:objectType="shape" width="76.3" height="43.05"><g fill-rule="evenodd"><path fill="#999" d="M75.25 22.55q.3 2.9-.7 5.25l.45.25 1.3 1-1.1 6.7-12.05.05-.35-.4-.2-.5L47.2 31l-2.35-.9q-1.35-.85-1.25-2.2 0-.85.65-1.7.7-.9 1.6-1.15l1.1-.15.05-.4q.15-.85.9-1.3l1.5.05q.5.3.6.95l-.15 1.25-.05.1q.8.2 2 .75l4.15 1.85q-.65-1.5-.85-3.2-.2-1.9.1-3.9h-.15l-.6-.5-.8-1-1-.95-.5-.45-.2-.6.2-.8q.3-.45 1.25-.6l2.25-.3 1.6.05q.8-1.15 1.9-1.9 2.15-1.55 5.2-1.55 2 0 4 .8l.1.05.4-.25 1.1-.35 1.15-.4 1.7-.05.5.05.4.5.15.7-.1.25-.05.45-.25.9-.2.4-.1.5-.3.75q2 2.4 2.4 5.8"/><path d="m3 12.45-.2-1.15-.05-.7-.15-.7-.2-1.35v-.7l-.05-.4q.1-.6.35-1 .25-.5.8-.65l.8-.05 2.5.45 1.65.7 1.65.8.55.45.15-.1 6.25-.5q4.65.55 7.55 3.2 1.4 1.35 2.35 3.15l2.5.25 3.35.85q1.4.4 1.75 1.05.25.55.05 1.25l-.45.85-.8.65-1.7 1.2-1.5 1.4-1.1.55-.25.05q.05 3-.75 5.8-.7 2.55-2.1 4.6l5.5-1.6-.3-1.2h-.2l-.65-.05-.55-.25q-.95-.7-1.1-1.45v-.55l.2-1.05.25-.45.6-.75.55-.4 1.05-.3q.9-.15 1.85.45l.4.35.1-.05 1.05-.55 1.8-.55.05-.1.3-.55.7-.8.65-.5q.3-.2.7-.3l1.25-.15.8.05q.55.05 1.25.55l.75.7.25.95.05.6-.55 1.5-.3.5-.15.15.05.2q.3.85.25 1.7l.05.6v.75q.9.6 1.6 1.7.8 1.4.65 2.7-.25 1.95-2.45 3l-.5.2.15.6q.25 1-.15 2l1.55-.2 1.75-1.05q.55-.45.55-.95l-.1-.75.25-.6.5-.45.35-.1.7-.2q.5 0 .5.35t-.4.45l-.55.2.45 1.25q.2.65 0 1.05l-.3.6-1.6 1.9-1.3.65-2.3.45-1.5-.3-.65-.25-.05-.05-.9.3-1.35.15q-.75-.1-1.1-.65l-.15-.35-.1.25-.35.6-.65.5-.6.2-1.25-.25-1-.8-.2-.4-.2-.45q-.35-1-.2-1.8l.05-.3-17.5 2.3-.45.7-.65.55L0 41.05V16.2q1.25-2.1 3-3.75m20.4 8.3q-.75-.05-1.4.4-.7.4-1 1.1-.3.65-.15 1.45.15.75.7 1.3.5.5 1.3.65l1.45-.15 1.1-1 .35-1.4q-.05-.95-.75-1.6-.7-.7-1.6-.75m9.55 8.15.6.45-.3.55q-.2.55-.05.75.35.35.75-.1l.4-.65.3.35.35.3q.4.1.6-.25.2-.6-.35-1.15l-.2-.15.25-.3.3-.3v-.55q-.15-.3-.5-.3l-.4.1-.35.4-.2.3-.65-.45-.45-.05q-.25.1-.35.3-.1.25.25.75m4.75 2.75-.35-.05h-.05v-.15l-.15-.3-.05-.6-.3-.35-.05.05-.25.2-.05.25v.6l-.05.05-.7.75-.15.25v.4l.3.2h.25l.5-.35.35-.3.05-.05.4.1.1.1.3.15.25-.05.1-.4zm.35-4.3.45.75-.45.45-.35.5q-.1.4.2.55l.4-.05.5-.35.35-.25.15.3q.4.5.85.15l.15-.75-.25-.35.15-.15.45-.45v-.65q-.3-.4-.75-.2l-.7.5-.3-.3-.35-.25h-.4q-.15.1-.15.5zm-31-3.2-.2 1.4q-.1 1.5 1 2.45l1.05.6q1.65.55 3.15-.3l.8-.3 1.1 1.25 2.8.35.85-.2.55-.5.85-1q.35-.55.25-1.25l-.25-.4-.75-.05-.75.6-.8.55q-.55.25-1.2 0l-.95-.8-.65-1.15-1.1-.05-.6.6-.8.5q-1.35.6-2.15 0Q8.7 26 8.5 24.9l-.05-.6.1-.65q-.1-.45-.6-.45-.35-.05-.65.3zm-2.75-6.1q-.5.8-.35 1.8.2 1.05 1 1.55.8.55 1.8.4 1.05-.15 1.6-.9.6-.8.5-1.8-.15-1.05-.9-1.65-.9-.65-1.95-.5t-1.7 1.1"/><path fill="#fff" d="M67.9 19.8q-.1-.35.05-.6l.25-.5q.25-.35.75-.5l.9.05q1.05.35.95 1.45l-.3.85-.8.5-.9-.1-.7-.55zM64.7 26l-.2.25-.4.4-.95.55-.8.35-.9-.05q-1-.2-1.3-.75l-.15-.5q.05-.3.25-.4h.55l.5.25q.7.25 1.65-.3.85-.55 1.4-1.5.25-.5.5-.55.3-.05.7.25l1.15.3h1.2l1-.65.5-.5q.3-.25.7-.15l.4.4.05.65-.75.95q-.75.75-1.45.95l-.9.05-2.45-.5zm-7.75-1.15q-.7-.6-.6-1.5.1-1.15 1.15-1.55 1.05-.45 1.85.3.85.65.65 1.8-.25 1-1.25 1.35-1.05.35-1.8-.4m-33.55-4.1q.9.05 1.6.75.7.65.75 1.6l-.35 1.4-1.1 1-1.45.15q-.8-.15-1.3-.65-.55-.55-.7-1.3-.15-.8.15-1.45.3-.7 1-1.1.65-.45 1.4-.4m-19.1-2.7q.65-.95 1.7-1.1t1.95.5q.75.6.9 1.65.1 1-.5 1.8-.55.75-1.6.9-1 .15-1.8-.4-.8-.5-1-1.55-.15-1 .35-1.8m2.75 6.1.25-.65q.3-.35.65-.3.5 0 .6.45l-.1.65.05.6q.2 1.1.75 1.55.8.6 2.15 0l.8-.5.6-.6 1.1.05.65 1.15.95.8q.65.25 1.2 0l.8-.55.75-.6.75.05.25.4q.1.7-.25 1.25l-.85 1-.55.5-.85.2-2.8-.35-1.1-1.25-.8.3q-1.5.85-3.15.3L7.85 28q-1.1-.95-1-2.45zm31 3.2L38 27.3q0-.4.15-.5h.4l.35.25.3.3.7-.5q.45-.2.75.2v.65l-.45.45-.15.15.25.35-.15.75q-.45.35-.85-.15l-.15-.3-.35.25-.5.35-.4.05q-.3-.15-.2-.55l.35-.5.45-.45zm-.35 4.3.45.5-.1.4-.25.05-.3-.15-.1-.1-.4-.1-.05.05-.35.3-.5.35h-.25l-.3-.2v-.4l.15-.25.7-.75.05-.05v-.6l.05-.25.25-.2.05-.05.3.35.05.6.15.3v.15h.05zm-4.75-2.75q-.35-.5-.25-.75.1-.2.35-.3l.45.05.65.45.2-.3.35-.4.4-.1q.35 0 .5.3v.55l-.3.3-.25.3.2.15q.55.55.35 1.15-.2.35-.6.25l-.35-.3-.3-.35-.4.65q-.4.45-.75.1-.15-.2.05-.75l.3-.55z"/><path fill="#999" d="m45.6 13.05 3.1-.5Q51 12 52.25 11.1q1.25-.85 2-2.05 1.05-1.65 1-3.35-.15-2-1.7-3l-1-.65q-.6-.45-.6-1Q51.95.2 53 0q.7-.05 1.55.5 1.3.8 2.05 2.3.7 1.4.7 3 .05 3-2.2 5.7l-.65.7.05.7.3 1.2q0 .85-.4 1.15l-.85.25-2.4-.9-.5-.25q-5.15 1.75-11.55.25-1.65-.35-2.7-1-2.4-1.35-3.35-4.55-.3-1.3-.25-1.95.05-.85.5-2 1.35-3.5 3.8-4.15.6-.25.75.15.2.35-.35.8-1.75 1.45-2.45 3.7-.4 1.2-.25 2.3.3 2.35 2.8 3.8 1.8 1 4.75 1.25zm.7-3.55-.4.45-.85.6-1-.15q-.45-.35-.45-.9 0-.35.35-.95l.35-.95-.8-.4q-.5-.25-.5-.85-.1-.6.4-.9l.8-.25.95-.05.2-.05.15-.25.6-1.35q.1-.4.35-.6.55-.45 1.05 0l.3.5.7 1.35.75.1q.45.05.65.25.5.35.3 1l-.65.85-.3.25q-.2.25 0 .65l.45 1.75-.45.8-.95.1-.5-.3-1-.7-.3-.1zM75 40.45q-.35 1.1-1.05 1.55-.5.35-1.55.35l-3.3.15-3.3-.35-.9-.3-.1.05q-.5.4-1.15.45l-1.1-.2-.85.6q-.95.25-1.5-.35-.45-.4-.55-1v-.7l-.15-.5v-.7q-.15-2.4.75-4.45l.05-.35.15-.2.05-.55q.3-.85.85-1.35.25-.85.8-1.3.4-.35.9-.4.55-.05.95.25.4.35.7 1.5l.55 1.7.15.15.15-.1 1.5-1.1q1.25-.65 3.5-.55 2.6.1 3.7.9 1.45 1.1 1.55 3.2.05 1.7-.8 3.6M39.15 8.65q-.2-.25-.15-.85l-.95-.2q-.6-.45-.25-1.15.25-.45 1-.55l.35.05V5.4l.55-.35.55.3.1.55v.2l.65.15q.55.25.45.8-.15.45-.8.55l-.2.05v.05q.1.65-.15.95-.15.3-.6.3-.4 0-.55-.3m-8.25 14.1q-.3-.55 0-.9.25-.45.75-.45.4-.05.75.25.4.25.45.65.4.3.4.9l-.15.25-1.2-.15zm4.3.25q-.25.1-.35-.15l-.15-.4-.1-.75.05-.4-.35-.7q-.3-.75.3-1.35.55-.55 1.35-.2.75.4.6 1.2l-.2.7-.8 1.7z"/></g></svg>