<svg xmlns="http://www.w3.org/2000/svg" xmlns:ffdec="https://www.free-decompiler.com/flash" ffdec:objectType="shape" width="70.85" height="38.15"><g fill-rule="evenodd"><path fill="#999" d="m53.75 7.65 2.75-.15h1.25l2.75.15q2.2.25 3.6.9l4.2-1.15q1.4-.15 1.95.3.75.6.55 1.7l-.7 1.8-1.5 3 .7 1.55.55 3.05.25 3.35-.6 2.7q-.5 1.45-1.2 2.4l-2.15 1.95-3.45 2 .35.5q1.7 2.45 2 4.5v.6H49.2v-.6q.35-2.05 2-4.5l.35-.5q-1.85-.85-3.45-2L46 27.25q-.75-.95-1.25-2.4-.45-1.35-.6-2.7-.05-1.1.25-3.35l.55-3.05.15-.25-.4-.35-.65-1.35-.75-1.7-.25-.95q-.3-1.15-.25-1.75.1-1.05.85-1.5l1.4-.15 3.05.35 2.1.4q1.35-.6 3.55-.85M58 25l.45.65 1.85.05 2.5.45.85-.8.3-.6.25-1.6-.2-1.05-.75.5q-1.45.85-3.5 1.45l-1.65.35-.35.05zm-5.65.15.4-.65q-2-.35-4.85-1.75L46.7 22l-.3.8v.6q0 1.3.5 2l.3.35.55-.05 4.25-.05zm-41.4-17.5 2.75-.15h1.25l2.75.15q2.2.25 3.6.9l4.2-1.15 1.95.3q.75.6.55 1.7l-.7 1.8-1.5 3 .7 1.55.55 3.05.25 3.35-.6 2.7q-.5 1.45-1.2 2.4l-2.15 1.95q-1.6 1.15-3.45 2l.35.5q1.7 2.45 2 4.5v.6H6.4v-.6q.35-2.05 2-4.5l.35-.5-3.45-2-2.1-1.95q-.75-.95-1.25-2.4-.45-1.35-.6-2.7-.05-1.1.25-3.35l.55-3.05.15-.25-.4-.35-.65-1.35-.75-1.7-.25-.95Q-.05 10 0 9.4q.1-1.05.85-1.5l1.4-.15 3.05.35 2.1.4q1.35-.6 3.55-.85m1.2 17.5.4-.65q-2-.35-4.85-1.75L6.5 22l-.3.8v.6q0 1.3.5 2l.3.35.55-.05 4.25-.05zM17.8 25l.45.65 1.85.05 2.5.45.85-.8.3-.6.25-1.6-.2-1.05-.75.5q-1.45.85-3.5 1.45l-1.65.35-.35.05z"/><path fill="#fff" d="m52.35 25.15-.35.5-4.25.05-.55.05-.3-.35q-.5-.7-.5-2v-.6l.3-.8 1.2.75q2.85 1.4 4.85 1.75zM58 25l-.25-.55.35-.05 1.65-.35q2.05-.6 3.5-1.45l.75-.5.2 1.05-.25 1.6-.3.6-.85.8-2.5-.45-1.85-.05zm-40.2 0-.25-.55.35-.05 1.65-.35q2.05-.6 3.5-1.45l.75-.5.2 1.05-.25 1.6-.3.6-.85.8-2.5-.45-1.85-.05zm-5.65.15-.35.5-4.25.05-.55.05-.3-.35q-.5-.7-.5-2v-.6l.3-.8 1.2.75q2.85 1.4 4.85 1.75z"/><path d="m30.85.35 3.55-.2H36l3.55.2q2.9.35 4.7 1.15L49.7.05q1.8-.2 2.5.35 1 .8.75 2.25L52 4.95l-1.9 3.9.85 2 .75 3.95q.4 2.9.3 4.35l-.75 3.5q-.65 1.85-1.6 3.1L46.9 28.3l-4.45 2.6.45.65q2.15 3.15 2.55 5.8l.05.8H24.9l.05-.8q.4-2.65 2.55-5.8l.45-.65q-2.35-1.1-4.45-2.6-1.9-1.45-2.75-2.55-.95-1.25-1.6-3.1-.6-1.75-.75-3.5-.1-1.45.3-4.35l.75-3.95.15-.3-.5-.45-.85-1.8-.95-2.2-.35-1.2q-.4-1.5-.3-2.3.1-1.35 1.1-1.9l1.8-.2 3.95.45 2.7.5Q28 .7 30.85.35m1.5 13.85q.65-1.15 1.85-1l.6.2.75.95.15.45-1.2.7-1.2.55-.65-.5q-.4-.3-.4-.75zm-1.25 8.85.5-.85q-2.6-.45-6.3-2.3l-1.55-.95L23.4 20l-.05.75q0 1.7.65 2.6l.4.45.75-.05 5.45-.1zm7.3-.2.6.8 2.4.1 3.2.6 1.1-1.05.4-.8q.35-.9.35-2.05l-.3-1.35-.95.6q-1.9 1.15-4.55 1.9l-2.1.45-.45.1zm-2.15-5.9.2-.15.2.15q.6.85 1.75.85 1.05 0 1.75-.8l.25-.65q0-.5-.35-.5l-.6.15-.45.15q-.25 0-.55-.3l-.3-.6 1.9-1.85.45-.55q.2-.4-.15-.6-.3-.15-.7.15l-1.9 1.1q-.55-1.35-1.4-2-1.05-.9-2.35-.8-1.2 0-2.45 1l-.85.8q-.6.8-.7 2.35 0 1.1.3 1.75.65 1.5 2.25 1.65l1.05-.05 1.1-.3z"/><path fill="#fff" d="m36.25 16.95-1.55.95-1.1.3-1.05.05q-1.6-.15-2.25-1.65-.3-.65-.3-1.75.1-1.55.7-2.35l.85-.8q1.25-1 2.45-1 1.3-.1 2.35.8.85.65 1.4 2l1.9-1.1q.4-.3.7-.15.35.2.15.6l-.45.55-1.9 1.85.3.6q.3.3.55.3l.45-.15.6-.15q.35 0 .35.5l-.25.65q-.7.8-1.75.8-1.15 0-1.75-.85l-.2-.15zm2.15 5.9-.3-.7.45-.1 2.1-.45q2.65-.75 4.55-1.9l.95-.6.3 1.35q0 1.15-.35 2.05l-.4.8-1.1 1.05-3.2-.6-2.4-.1zm-7.3.2-.5.6-5.45.1-.75.05-.4-.45q-.65-.9-.65-2.6l.05-.75.35-1.05 1.55.95q3.7 1.85 6.3 2.3zm1.25-8.85-.1.6q0 .45.4.75l.65.5 1.2-.55 1.2-.7-.15-.45-.75-.95-.6-.2q-1.2-.15-1.85 1"/></g></svg>