<svg xmlns="http://www.w3.org/2000/svg" xmlns:ffdec="https://www.free-decompiler.com/flash" ffdec:objectType="shape" width="76.25" height="41.95"><g fill-rule="evenodd"><path fill="#999" d="m63.5 32.85-2.65-2.8-1.35-1.25-1.2-1.4q-.95-1.5-.6-2.8l-.45-.3q-.6-.45-.5-1.4l1.2-7.35.2-.65v-.8l.2-.7.35-.7.35-.45q.65-.5 1.5 0l1.2 1.1 5.3 7.15q.7-1.35 1.45-1.6.75-.2 1.55.4l1.1 1.25 3.75 5.3q1.1 1.5 1.3 2.5l-.2 3.1q-.35 2.15.15 6.5.35 1.95-.6 2.55T73 40l-4.95-3.25q-2.7-1.95-4.55-3.9m-62.45-3.8q-.6-.5-.55-1.15l.15-.5v-.2l.1-.45.2-1.85.1-.6-.2-.05Q.1 24.1 0 23.2l.45-1.35.95-1.4.65-.7q.45-.35.9-.2.6.15.6.9v.4l.05 1.35-.1.4.1.6v.4l.3-.4.15-.2.1-.05 2.05-2.3 1.5-2.05q.7-.9 1.3-.9.6-.05 1.05.55l.4.75q4-5.1 6.7-8.05l.9-.8 1.2-.1q.7.35.8 1.65l.35 2.75.45 5.25-.1 2.4q0 .65-.35.8-.4.25-.7-.15l-1.8 2.45-2.15 2.6-5.95 6.95q-3.45 3.8-6.6 6.35-1.25 1.05-2.05.8-1-.3-1.1-1.65L.4 38.2l.25-2.95.15-4.1q0-1.3.35-2z"/><path fill="#fff" d="m26.6 22.5-1.4.35q-.65.05-1.25-.4-.6-.4-.85-1.05-.5-1.25.25-2.65.4-.85 1.2-1.05l1.2-.05 1.35.2q.5.2.8.75.5.7.5 1.55 0 .9-.55 1.5z"/><path d="M1 40.65q.25-.8 1.4-2.05L36.3.55q.8-.8 1.3-.4l.15.65.05.05.1.1.9.95.45.65L44 7.25q6.25 5.85 15.1 15.55l14.65 16.05q1 1 1.2 1.7l.1.3h-4.1l-.35-.35v.25l-.05.1H.95zM40.55 7l-.1-.15-.45-.5-1.35-.85-.85-1.2-.65-1.3-.45-.7-10 12.95 5-3.5q.45-.35.95-.3.7 0 .9.6l.5.35.7.75.35.55h.1l.15-.3.1-.5.15-.45.3-.8.05-.6.4-1.2q.4-.85 1.2-.6l.25.1h.05l.85.5 1.65 1.45q1.9 1.6 2.75 2.05l.55-1.35.55-1.1-3.65-3.95zm-17.9 14.7.05.05 3.3-.25q1.75 0 2.9.55l.35-.4q.5-.55.5-1.7l-.1-.8h-.45l-3.7-.05h-1.15l-1.3.15-.35.05q-.35.85-.25 1.7zm12.9 5.95q-.35.5-1.25.85-2.1.95-4.6.85-2.35-.1-4.65-1.1-.75-.25-1.1-.7-.5-.7-.15-1.2l.7-.95q0-.5-.5-.5-.4-.05-.75.2-.9.5-1.3 1.5t-.15 2q.4 1.25 1.7 2.1.95.7 2.55 1.05l5.9.4q3.2-.4 5.4-2.15 1.05 1 3.6 1.3l5.65-.3q3.05-.8 4.7-3 .6-.7.65-1.3.1-.9-.6-1.2-.6-.35-1.35.2l-1.05 1.05q-1.3 1.45-3.7 1.8l-4.2-.15q-1.45-.3-1.9-.85l-.8-1.2q-.4-.4-1.05-.4-.6.05-1 .45zM51 19.45q0-.95-.35-1.55l-1.3.35-3.45.1-1.45.25-.25.05-.15.75q-.2 1.4.45 2.15l1.45-.25 1.9-.3 1.95-.15.75.05h.1z"/><path fill="#fff" d="m51 19.45-.35 1.45h-.1l-.75-.05-1.95.15-1.9.3-1.45.25q-.65-.75-.45-2.15l.15-.75.25-.05 1.45-.25 3.45-.1 1.3-.35q.35.6.35 1.55m-15.45 8.2.75-1.25q.4-.4 1-.45.65 0 1.05.4l.8 1.2q.45.55 1.9.85l4.2.15q2.4-.35 3.7-1.8L50 25.7q.75-.55 1.35-.2.7.3.6 1.2-.05.6-.65 1.3-1.65 2.2-4.7 3l-5.65.3q-2.55-.3-3.6-1.3-2.2 1.75-5.4 2.15l-5.9-.4q-1.6-.35-2.55-1.05-1.3-.85-1.7-2.1-.25-1 .15-2t1.3-1.5q.35-.25.75-.2.5 0 .5.5l-.7.95q-.35.5.15 1.2.35.45 1.1.7 2.3 1 4.65 1.1 2.5.1 4.6-.85.9-.35 1.25-.85m-12.9-5.95-.2-.7q-.1-.85.25-1.7l.35-.05 1.3-.15h1.15l3.7.05h.45l.1.8q0 1.15-.5 1.7l-.35.4q-1.15-.55-2.9-.55l-3.3.25z"/></g></svg>