<svg xmlns="http://www.w3.org/2000/svg" xmlns:ffdec="https://www.free-decompiler.com/flash" ffdec:objectType="shape" width="68.4" height="39.85"><g fill-rule="evenodd"><path fill="#999" d="m59 15.2-.4-.3-.15-.25q-.05-.2.2-.65l.25-.3.2-.35 2-2.95.4-.35q.5-.35 1.15-.35.9.1 1.3.9.3.5.1 1.2l-.8.85-.5.25-.3.25-.35.15-.3.35-.95.65-1.45.8zm1 4.9q-.5-.1-.65-.3l-.1-.35.2-.3.6-.2.6-.25 1.45-.4 2.1-.55 1.1-.55 1.4-.15.75.25q.95.5.95 1.55 0 1.1-.9 1.65l-1.55.25-1.6-.4-1-.05h-1l-.8-.1h-.75zm1 4.2.6.35 1 .35 1.2.45.85.95q.2.65-.15 1.45l-.95.7-.8.05q-1.1-.15-1.45-1.25l-.25-.3-.4-.25-.4-.5-.35-.55-.6-.4q-.45-.35-.4-.85l.2-.4q.2-.2.45-.15l.05-.05.65.2zM8.5 10.8l-2 .1Q5 10.75 4 10.2l-1.05-.9Q2.2 8.35 2.3 6v-.1l-1.1-.55Q0 4.45 0 2.95 0 2.2.4 1.5.8.75 1.6.35T3.25 0q1.25.1 2 1l.35.45 2.1-.4q1.65 0 2.6.75.8.6 1.25 1.85l.4 1.15q.3 1.4-.4 3-.95 2.5-3.05 3m7.2 4.4-.4-.1-1.45-.8-.95-.65-.3-.35-.35-.15-.3-.25-.5-.25q-.55-.25-.8-.85-.2-.7.1-1.2.4-.8 1.3-.9.65 0 1.15.35l.4.35 2 2.95.2.35.25.3.2.65-.15.25zM4.65 11.45q.6.45.75 1.2l-.25 1.05-.85.75q-1 .35-1.75-.25-.8-.65-.65-1.6.2-1 1.05-1.3zM13.7 24.3l.75-.2.65-.2.05.05.45.15.2.4q.05.5-.4.85l-.6.4-.35.55-.4.5-.4.25-.25.3q-.35 1.1-1.45 1.25l-.8-.05-.95-.7q-.35-.8-.15-1.45.2-.6.85-.95l1.2-.45 1-.35zm1-4.2-.8.1h-.75l-.8.1h-1l-1 .05-1.6.4-1.55-.25q-.9-.55-.9-1.65 0-1.05.95-1.55l.75-.25 1.4.15 1.1.55 2.1.55 1.45.4.6.25.6.2.2.3-.1.35z"/><path d="m31.6 21.75.25.1-.05.4-.05.75q-.1 1.4.05 2.1l.4.95q1 1.95 2.95 2.8l4.2.25q2.2-.75 3-2.85l.4-1.5.25-1.1.1-1.45 2.4-1.25 1.1-.95.7-1.4.25-.65.05-.55-.15-.5h-.35l-.3.3-1.15.9-.95.6-1.45.6-1.25.25-1.35-.4-1.05-.5-1.1-.95-1.05-.2q-.55.1-.95.45l-.1.15h-.05l-.75.65q-1.1.85-2.45.7-1-.15-2-.8-.5-.3-.7-.55-.5-.5-.5-1.45-.1-.8-.4-.95-.4-.3-.7.1l-.2.6-.15 1.5q0 1.05.35 1.8l.55.75.9.6zM20.5 32.1q-2.95-3.65-3.35-9.05-.35-5.25 2.2-11l-.55-.7q-.95-1.45-.95-2.9 0-.75.25-1.25l.7-.8.5-.4-.35-.45-.65-.75q-.45-.4-1.2-.4l-1.25.3q-.7.3-1.15.9l-.8 1.25-.85 1.3q-.65.7-1.6 1.05l-1.95.15q-.95-.2-1.7-.85-.8-.65-1.1-1.6-.5-1.5.5-2.1l1.2-.1.95.8q.6.7.9.7.45 0 .8-.95.9-2.6 3.7-3.85Q16.1.75 17.6.65q1.55-.05 2.8.6 1.1.6 2.25 1.9l.6-.5 1.1-.6 1.65.1 1.8 1.15.1.1 1.1-.5 2.45-.95q1.8-.65 6.3-.95 4.5-.35 8.85 1.65 4.35 1.95 6.45 3.95t3.45 6.05q1.5 4.45.95 9.25-.5 4.85-2.95 8.85l-.2.35-2.05 2.55-3 2.1q-3.9 2.15-8.65 2.7l-9.15-.4q-6.15-1.2-9.55-4.45zm15-10.35 1.6-.85.25.2q.3.25 1.45.7l1.85.55-.25 1.7-1.05-.2q-.6-.05-1.55.4l-.35.15q-.75-.75-2.1-.75l-1.05.05L34 22h.05l.75-.05zm-9.6-7.35q-.7-1.35-2.35-1.45-1.6-.15-2.6 1.1l-.3.35-.4 1.55q0 .8.4 1.55.45.75 1.15 1.1.7.4 1.55.4t1.5-.4q1.5-.85 1.5-2.7 0-.8-.45-1.5m27.9-.6q-1.45-.9-2.95 0-1.45.85-1.45 2.5t1.45 2.5l2.95.05q1.45-.85 1.45-2.55t-1.45-2.5"/><path fill="#999" d="m54.3 31.1 1.2.55q1.15.7 1.35 1.85.3 1.2-.7 2.35l-2.05 1.4q-1.7.85-4.25 1.35-12.65 2.85-28.2-.75-2.6-.6-3.15-1.95-.3-.7-.05-1.6.25-.85.85-1.45l1.2-.75 1.4 1.5q3.4 3.25 9.55 4.45l9.15.4q4.75-.55 8.65-2.7l3-2.1z"/><path fill="#fff" d="m31.6 21.75-1.3-.7-.9-.6-.55-.75q-.35-.75-.35-1.8l.15-1.5.2-.6q.3-.4.7-.1.3.15.4.95 0 .95.5 1.45.2.25.7.55 1 .65 2 .8 1.35.15 2.45-.7l.75-.65h.05l.1-.15q.4-.35.95-.45l1.05.2 1.1.95 1.05.5 1.35.4 1.25-.25 1.45-.6.95-.6 1.15-.9.3-.3h.35l.15.5-.05.55-.25.65-.7 1.4-1.1.95-2.4 1.25-.1 1.45-.25 1.1-.4 1.5q-.8 2.1-3 2.85l-4.2-.25q-1.95-.85-2.95-2.8l-.4-.95q-.15-.7-.05-2.1l.05-.75.05-.4zm22.2-7.95q1.45.8 1.45 2.5t-1.45 2.55l-2.95-.05q-1.45-.85-1.45-2.5t1.45-2.5q1.5-.9 2.95 0m-27.9.6q.45.7.45 1.5 0 1.85-1.5 2.7-.65.4-1.5.4t-1.55-.4q-.7-.35-1.15-1.1-.4-.75-.4-1.55l.4-1.55.3-.35q1-1.25 2.6-1.1 1.65.1 2.35 1.45m9.6 7.35-.7.2-.75.05H34l.3 1.7 1.05-.05q1.35 0 2.1.75l.35-.15q.95-.45 1.55-.4l1.05.2.25-1.7-1.85-.55q-1.15-.45-1.45-.7l-.25-.2z"/></g></svg>