<svg xmlns="http://www.w3.org/2000/svg" xmlns:ffdec="https://www.free-decompiler.com/flash" ffdec:objectType="shape" width="77" height="43.05"><g fill-rule="evenodd"><path fill="#999" d="m19.65 14.85-1.1-.4-3-1.95Q9.35 8.05 6.3 5.1L3.5 2.6 2 1.4Q1.5.55 1.7 0h2.75l.35.35 1.5 1.4.15-.05.3-.05.45-.05h.65l3.05-.05 5.6-.05h.65l3.1-.05h5.2V1.4h2.4l.25.05.2.05.2.1.05.05.6-.85Q29.6.2 30 0h1.05l.15.1q.45.3.5.8h-.05l-.5.45-.2.2-.25.05q-.35.05-.75.4L28.9 3q-.45.45-.55.85-.15.5.05.95l.65.5q1.3.8 3.1 2.8l1.8 1.95q.65.65 1.15.6l.65-.65.05-1-.15-.65-.1-.45-.05-.1-.2-.85L35.2 5l.2.05 1.4.45.95-.15.45-1.15.5-1.2.55-.9q.25-.65-.1-1l-.5-.2.3-.9h1.6l-.05.2-.15 1.15v.25-.05l.2-.05.25-.05.35-.05H52.6l1.5.05.35.05.2.1.05.05V1.6l.2-.3.4-.5.45-.4.7.1.25.3-.45.1q-.55.25-.9 1L53.4 7.05l-.2.25-.3-.05-1.4-.6-1.35-.45q-.85 0-1.2.65l-.1 1-.2 1.6-.7 3q-.6 2.35-.4 3.6 0 .6.4.8.45.25.85-.25l.1-.15.05-.05 3.45-4.05q.2-.2.35-.2l.3.35q.4.55 1.05.65.9 0 1.95-1.25l4.7-5.1 3.55-3.75q.7-.8.7-1.35l-.15-.6.5-.4q.45-.25.95 0 .55.2.65.7l.05.45.15-.05.15-.05h.1l.2-.05.35-.05.4-.05h.3l.2-.05.3-.05h.45l.25-.05.3-.05h1.65v-.05h1.7l.55.05.35.05.25.1.15.1.1.1.1.1.05.1.05.15.05.1.05.1v.95l.05.1v.6l.05.1v.35l.05.1v3.55l.05.1v4.9l.05.1v19.2l-.05.1v2.9l.05.15v.7l-.05.1v1.05l-.05.1v2.95l-.05.1-.05.1-.05.1-.1.1-.1.1-.15.1-.15.1-.25.05-.35-.1-.15-.1-.2.05H72.7l-6.6-.05-5.75-.05H58.7l-2.65-.05-4.15-.05h-2.5l-6.5-.05h-1.65l-4-.05h-.35l-.2-.05-.2-.05h-.05l-.15.65q-.4.7-.95.6-.5-.15-.65-.65l-.2-.9q-.25-1.25-.9-2.3l-.35-.9h1.15l1.15.1 1.25.2q.8 0 1.1-.5l.15-.95-.2-1-.05-.7-.35-1.5-.15-.8-.1-2-.1-.9q-.25-.35-.7-.15l-.15.1-.4.05-.2.25-.8 1.55q-.95 2.1-1.35 3.4l-2.3-.55q-.8-.2-1.15 0-.35.15-.65.8l-2.5 6.6q-.25.8-.15 1.15l.05.15-.25.2-1.2.1q-.7-.45-.5-1.45l.1-.2H20.8l-2.15.05-2.5.05h-.55l-.6.05-1.95.05H11.3l-.8.05-1.95.05h-.8l-1.05.05-.95.05-1.35.05H1.05l-.25-.1-.2-.1-.15-.1-.1-.1L.3 41l-.1-.1-.05-.1-.05-.1v-.15l-.05-.1v-.1l-.05-.1.05-.1v-.2l.05-.1v-.1l.05-.1.05-.15.1-.1.1-.1.1-.1.2-.1.1-.05.1-.05.15-.05h.3v-.1l.05-.1V37.4l-.05-.1v-4.2L1.3 33v-.2l.05-.1v-.75l-.05-.1v-.3l.05-.1v-.25l-.05-.1v-2.2l.05-.1v-3.05l-.05-.1v-8.9l.05-.1v-.95l.05-.1v-.45l-.95-.55q-.55-.55-.4-1.4l.1-.25.45.8q.5.4 1.65.5l6.4 1.2L15 16.7l5.65.7 1.2-.1q.5-.3.8-1.45.25-.75.65-1.35l.15-.25.5-.1q2.55 1.35 4.75 2.15l.5.15q.3 0 .45-.2.3-.3 0-.65l-.45-.35-.3-.35-5.85-3.8-.9-.4-.95.15-.5.85-.85 2.3-.15.45zm30.8-3.8h-.05l.05-.1zm-11.65 2.8q-.45.3-.45 1.25-.05 1.8.95 3.85.65 1.25 1.45 1.65l1.3.15q.7-.1 1.2-.6l.6-1.2q.1-.7-.15-1.35l-.75-1.25-.45-1-.65-.9q-.4-.4-1.8-.7z"/><path fill="#fff" d="m31.7.9.35-.25.9-.1.55.55q.15.45-.1.85l-.55.6L31.35 4l2.25 1.5.05-.3v-.1l-.8-.2q-.45-.2-.55-.8-.05-.6.3-.95.2-.25.9-.45l2.65-.1h.55l.9-1.35.5-.45.4.1h.15l.5.2q.35.35.1 1l-.55.9-.5 1.2-.45 1.15-.95.15-1.4-.45-.2-.05.1 1.95.2.85.05.1.1.45.15.65-.05 1-.65.65q-.5.05-1.15-.6l-1.8-1.95q-1.8-2-3.1-2.8l-.65-.5q-.2-.45-.05-.95.1-.4.55-.85l1.05-1q.4-.35.75-.4l.25-.05.2-.2.5-.45zm25-.1.8.25q.5.5.1 1.75l-1.35 3.7q-.85 2-.95 2.55v.05l6.9-7.55Q63.15.5 63.9.5l.8.4.15.2.15.6q0 .55-.7 1.35L60.75 6.8l-4.7 5.1Q55 13.15 54.1 13.15q-.65-.1-1.05-.65l-.3-.35q-.15 0-.35.2l-3.45 4.05-.05.05-.1.15q-.4.5-.85.25-.4-.2-.4-.8-.2-1.25.4-3.6l.7-3 .2-1.6.1-1q.35-.65 1.2-.65l1.35.45 1.4.6.3.05.2-.25 1.95-5.15q.35-.75.9-1zM33.25 37.1l-1.15-.35q-.3-.4-.25-.75l-.1-.05h-.4l-.2.25q-1.15 2.65-1.75 5-.45 1.5-1.05 1.75-.45.25-.95 0l-.6-.55-.05-.15q-.1-.35.15-1.15l2.5-6.6q.3-.65.65-.8.35-.2 1.15 0l2.3.55q.4-1.3 1.35-3.4l.8-1.55.2-.25.4-.05.15-.1q.45-.2.7.15l.1.9.1 2 .15.8.35 1.5.05.7.2 1-.15.95q-.3.5-1.1.5l-1.25-.2-1.15-.1zM.15 12.95.1 12.7q-.05-.7.4-1.15.7-.75 2.6-.45L19.65 15v-.15l.05-.4.15-.45.85-2.3.5-.85.95-.15.9.4 5.85 3.8.3.35.45.35q.3.35 0 .65-.15.2-.45.2l-.5-.15q-2.2-.8-4.75-2.15l-.35-.2-.15.3-.15.25q-.4.6-.65 1.35-.3 1.15-.8 1.45l-1.2.1-5.65-.7-6.35-1.25-6.4-1.2q-1.15-.1-1.65-.5zm50.3-2-.05.1h.05l.5-.65.85-.8-1-.35zm-11.65 2.9 1.25-.1q1.4.3 1.8.7l.65.9.45 1 .75 1.25q.25.65.15 1.35l-.6 1.2q-.5.5-1.2.6l-1.3-.15q-.8-.4-1.45-1.65-1-2.05-.95-3.85 0-.95.45-1.25m-16.25-.4-.15.2-.1.25.2-.2.25-.2zm13.4 21.5-.15-1.15v-.65l-.05-.45-.65 2.3z"/><path d="M40.7 28.5q-3.15-2.3-5.35-1.55-.75.25-1.7.9l-6.55 5.1-2 1.65-2.3 1.65-.2.1-.85.85-1 .65-2.4.35-1.75-.15q-.85-.2-1.85-1.1-1-1-1.25-1.95v-.3l-1.45-.3q-1.85-.7-2.35-2.3-.25-.8-.05-2.9l.1-.6q.2-.55.95-1.1 1.1-.9 2.5-1.35l.6-.1v-.85q0-.4.15-.7.65-2.2 2.55-3.15l4-.4 1.15.15q.75.3 1.55 1.1l.6.7.3.8.65.6q5.2-4.15 11.2-6.3l.65-.2-.8-2.15-.55-1.15q-.3-.75 0-1.25.3-.65 1.45-.75l.9.05.8.05.45-1.25.5-1.05 1-.6q.6 0 .95.45l.6.9 2 4.15.7 1.65.3 1.15q1.85-.2 3.9 1.35 2.55 1.75 4.25 4.45l2.45-2.55q5.15-4.5 14.65-5.95 2.5-.3 3.75-.05 2.15.45 2.95 2.15.3.8 0 1.2t-1.25.4h-.1q.5.9.7 2.25.6 3.8-.4 10.8l-.35 2.7q-.2 1.4-.05 2.1l.5 1.8q.15 1.25-.65 2.2-.9 1-2.1.9l-1.05-.25-.8.7-2.55.2-2.35-.4-.7-.4H49.75q-.9 1.2-2.1 1.15-.8-.05-1.45-.7-.6-.65-.8-1.5-.25-1.35.4-3.35l1.3-3.45-.55-.55q-2.9-2.75-5.85-4.7m3-18.65q-.45-.9-.45-1.6v-1.1l.1-.65.65-.7.9-.15q1.15.2 1.25 1.2.1.8-.6 1.3l-.8.7-.2.85-.2.4-.4.05zm-1.35 9.05q.4-.25.75-.35l-.15-.35-2.35-4.5q0 .75-.85 1.15l-1.45.1q.45 1.4 1.2 2.65l1.05 2v.2zM30.1 10.05l-.3.4q-.55.9-1.6.9-1.1 0-1.65-.95-.35-.6-.15-1.35.15-.75.7-1.2 1.05-1 2.65-.65 1.2.2 2.5 1.25 1.15.95 1.2 1.75l-.15.55q-.35.35-1.2-.2-.75-.4-1.5-.55z"/></g></svg>