<svg xmlns="http://www.w3.org/2000/svg" xmlns:ffdec="https://www.free-decompiler.com/flash" ffdec:objectType="shape" width="76.3" height="42.65"><g fill-rule="evenodd"><path fill="#999" d="m1.05 5.2.2-1.75V2.6q.1-.8.75-1.3T3.45.9l.8.2.6-.4.75.1q.65.3.85 1.2l.05 1.5-.1 1.95.05.7-.2.65q-.4 1.1-.9 1.6-1.15 1.2-2.75.8Q1.2 8.85.95 7.7l-.1-1.5.05-.5zM55.15.25q.75-.2 1.5.3.7.45.95 1.2.2.75-.1 1.55l-.9 1.25q-1 .85-3.3.95l-3.8.05h-3.85L43.1 5.5q-1.5-.15-2.35-.9-1.35-1-1.1-2.65.1-.75.65-1.3.55-.6 1.3-.65l1.45.35 1.4.65 3.2.45 3.25-.3 1.65-.1 1.55-.4zm12 4.65.3-.15q.45-.3 1.25-.5l.65-.1q.85.1 1.35.75t.35 1.5q-.25 1.35-1.55 1.65l-.55.15-.25.3q-.75 1-1.95.75L64.7 8.4q-1.1-.65-1.35-1.45-.2-.5 0-1.3.25-.75.85-1.2l1.45-.15q.25.1.7.45zm.25 17.05q-.8.9-1.65 1.15l-1.2.25q-1.15.2-1.95 0-1-.15-1.65-.95-.45-.6-.55-1.55l.2-1.65.25-1.15q.5-2 1-2.75.95-1.45 2.35-1.65h1.25l1.65.1q1.1.35 1.5 1.35l.3 1.35.15 2.3-.25 1.65q-.2.9-.6 1.05l-.5.2zm3.2 7q-.1.8-.55 1.25l-.4.35-.5.35.35.25.6.1.7.3q.5.5.4 1.25-.05.6-.7 1.15l-1.05.45-2 .65q-1.3.35-3.2 0l-.95-.25q-.7-.4-.6-1.1h-.05q-.35.3-.8.25l-.8-.35-.5-.8-.75-1.6q-.4-.8-.35-1.3 0-.4.3-.75.35-.3.75-.3l.7.15 1.75.6.7.5.3-.5.45-.55-.05-.9-1.05-.25-1.65-.2q-.4-.2-.55-.75-.15-.5.05-.95l.55-.7.8-.75q.7-.5 1.5-.75l1.8-.2 2.05.15q1.35.2 2.7 1.3l.6.75.05.9-.7.8q.25.75.1 1.45m-1.7-.15.15-.45q0-.6-.6-1.5l-.2-.35.1-.45-.45-.2-1.65-.15.05.2-.4.65q-.25.4-.25 1.05l.1.75.6.5.65.4.35.15.55-.05.7-.3zm-25.7 3.75q-2.2.35-3.7-.45-2.1-1.2-2.35-4-.2-1.9.65-4.75.85-2.9 1.75-4.5.75-1.4 2.75-3.8l2.4-2.65q1.5-1.5 2.45-2.05 2.2-1.25 5.35-.65 1.25.3 1.8.8 1 .9 1.2 3.05.35 4.25-1.2 8.35-1.5 4.1-4.55 7.1-1.85 1.85-3.7 2.7zm6.5-18.65q-.4.2-.5.35v.7q.05.8-.4 2.05-1.2 3.25-2.85 5.25-2.1 2.6-4.9 3.45v.1q.4.95 1.9 1.05 1.65.05 3.25-1.1 1.2-.8 2.45-2.55 1.5-2.2 2.1-4.15l.5-2.4q.3-1.45-.1-2.2l-.55-.65zm-.35 21.45 1.2-.55.65-.65q.5-.45 1.35-.45 1.75-.2 2.8.85.6.55.8 1.3.2.8-.15 1.45l-.7.9q-1.45 1.35-4.85 2.5l-2.25.6-2.1-.2q-1.15-.45-1.3-1.55-.2-1 .7-2 .55-.6 1.75-1.25zm22.3-6.15q.15-.5.45-.85.25-.45.55-.4l.4.4-.1.65-.25 1.2.05.5q0 .75-.8.85-.55 0-.8-.45-.2-.35-.05-.9l.3-.45zm-8.3 1.8.1-.2-.5.15.3.35zM34.9 9.3 31 8.7l-1.1-.3-1.1-.55-1.65-1.35q-.8-.9-.8-1.95.15-1.65 1.9-2.35l3.15-.15q3.55.55 6.3 2.55l.85.85q.6.85.35 1.75-.15.85-.95 1.45-1 .75-3.05.65M11.95 5.45q-.25.6-.2.75l3.85-.15 1.25-.7 1.3-1.2 1.8-2.2q.7-.85 1.4-1l1.05.25.6.9q.15.7-.55 1.85-1.6 2.45-4.4 4.5-2.15 1.6-5.45 3.15-1.85.95-2.95.6-.95-.25-1.35-1.1l-.25-.4q-.4-.85-.25-2l.45-1.5Q9.1 5 9.8 4.2l1.05-.85 1-1.05.65-.45.65-.55 1.05-.1 1 .15.75.15.5.5q.25.55-.45.95l-.4.15-.6.5-1.9.85-.65.2L12 5zm9.5 18.1q.6.1.8.3l.25.55.05.05-.05-.25.15-2.15q-.45-.15-1.2.3l-1.25.45q-.45-.05-.75-.45-.35-.4-.35-.9-.05-.7.6-1.75.85-1.4 1.7-1.85l1.75-.55 1.7-.25 2.9.8 1.05.5q1.1.65 1.35 2.2.2 1-.3 2.6.4.2.5.7l-.05.9-1.25 1.35-2.85 1.6-1.35.35q-.85.1-1.35-.4l-.1-.1-.55.85q-.9.55-1.9-.45l-1.35-1.6-1-1.1q-.15-.8.9-1.3.95-.5 1.95-.4M26 24q.65.2 1.75-.5l.65-.6q.2-.4 0-.95l-.35-.9-.35-.65-.4-.2-.9-.35q.1.95-.8 1.5l-.3.25q-.15.15-.15.45l.1 1.1q.3.65.75.85m-9.9-4.8q.15.8-.55 2.3l-.85 1.65-.8 1.05-1.8 1.85q-.85.7-1.85.9-1.05.25-2-.3-1-.5-1.1-1.65-.05-.55.2-1.25.65-1.8 2.8-3.95l1.55-1.4q.85-.6 1.65-.8l1.75.2q.85.4 1 1.4M.75 14.45q.4-.9 1.5-1.05l1.85.25q.65.15 1.2.55.85.7 1.35 1.95l.45 1.45q.15 1.2-1 3.6l-.85 1.6q-1.3 2.45-2.6 4l-.95.75-.6-.05-.4-.45.1-.6.35-.85.05-.35-.15-.2Q0 24.1.4 22.15q.6-2 .7-3.05.15-.95-.2-2.1-.45-1.9-.15-2.55m1.8 26.2q-.7-.8-.35-1.95.15-.7.95-1.8l.55-.85q1.45-2 2.4-2.6 1.5-1 4-.9 1.95 0 2.95.5 1.05.5 1.95 1.55 2.2 2.25 3.1 5.4l.05.65q-.2.65-.85.45l-.5-.4-.6.55-1.25.15-1.3-.3-1.3-.05-5.35.2-1.4-.1q-.45-.05-.85-.4-.4.35-1 .35-.75.05-1.2-.45m8.15-4.35-1.75.05-.75.4.15-.05.95.1q.5.15.6.7v.25l2.35-.1q-.9-1.1-1.55-1.35m19.4 2.85q-1.1.85-2.2 1.2l-2.5-.15-1.1-.9-.45-.95q-.2-1.1.75-2.3l1.75-1.8 1.2-1.2 1-.6.95-.65 1.15-.55 2.4-.25q.7.2 1.1.9.45.7.35 1.45l-.4 1.2-1.3 2.15-1.45 1.5z"/><path d="m9.45 11.8 1.15-.05q4.45-.95 8.65-4.8 2.65-2.5 3.45-4.7l.6-1.4Q23.9.1 24.6.4q.6.25.6.95l-.25 1.2Q23.5 6.2 20.2 9.1q-2.8 2.5-7 4.2-3.15 1.3-5 .65-1.1-.35-1.9-1.2T5.2 10.8q-.65-2.2.5-4.45.5-.95 2.15-2.8l3-2.75q.3-.25.65-.3.4-.1.6.25.25.4-.5 1.05-3.5 2.95-4.3 6.25-.35 1.4.15 2.25l1.05 1zm54.2 8.7q3.6-.85 6.15 0l-.05-.1-.35-3.2-.15-2.65.05-.75q.1-.55.65-.9.5-.3 1.05-.25.5.1.9.55l.05.05Q73 12.55 74 11.8l.3-.35.85-.25.1-.05q.7.1.95.65.25.65-.15 1.15l-.4.35-3.3 2.05-.05.05-.05 1.5-.1 1.95-.1 1.25.1.8-.1.8v.1q1.45 1.2 2.15 3.15.8 2.25.55 4.8-.15 1.95-.85 3.3l-1.2 1.75q-1.5 1.6-3.65 2.4t-4.3.55l-1.95-.4-1.15-.35.05.3-.1.45.1.65.1.8-.1.65-.1.6q-.2.2-.4.2-.25 0-.35-.25l-.2-.5-.1-.4-.15-.25-.1-.95-2.7.1v1.65l-.05 1.05q-.35.75-1.15.55l-.55-.45-.1-.65.2-.55.05-1 .1-.8-.4-.3-.55-.6-.7-.6-.8-1-.15-.15-1 .4-1.2-.25-.8-.95q-.25-.65-.05-1.25l.35-.65q.5-.65 1.4-.9l.85-.15 1.8-.8 1.9-.55q-.15-1.3.15-2.75.25-1.1.65-2 .75-1.4 3.1-3.55l1.4-1.05q.5-.3 1.6-.6m6.9-16.9.65.3q.65.5.75 1.8l-.05.75-.35.9-.8 1.1-1.35.95-.7.3-.9.8-.35.3q-.2.25-.55.3-.8.1-1.05-.55l-.25-.4-.4-.15-.3-.25-.5-.3q-.85-.3-1.45-.9-.9-.75-1.1-1.55-.15-.75.15-1.45l.8-1.3q.8-.8 1.35-1l1.3-.2q.95.1 1.4.5l.35.35.45-.45 1.7-.25.75.1zm-2.5 4.7.8-.4.85-.6.4-.5.25-.9-.1-.55L70 5.1q-.5-.3-.8-.35l-.75.05-.35.2-.15.35-.05.2v.05l-.5.55q-.5.15-.85-.25l-.15-.45-.35-.4-.2-.3-.35-.05-.95.2-.4.4-.4.55-.15.5.3.55.5.35 1 .4 1.25.85.45.4.1.1zM70 23.85q-.75-.45-1.55-.6l-3.55-.4-1.55.3-.9.55q-1.7 1.4-2.25 2.95l.25.05.6.2 1.2.2q.5.1 1.5.55l.55.25.4.45-.1.55-1.55 4.65-.2.5.75.35q2.15.75 4.3.05 1.95-.6 3.15-2.2l-.2-.15-.4-.3-.65-.3-.4-.35-.2-.3.05-.5.75-1.9.35-.75.05-.25.15-.25.85-1.7h.05q-.55-1.05-1.45-1.65m-2 1.2q.55.2.85.5.35.4.35 1.05.1 1.1-.6 1.7-.75.75-1.7.5l-.9-.55-.45-.65v-.85q.2-1.1.7-1.5.65-.55 1.75-.2m-9.15-20.2q.35-.35.85-.35.45-.1.75.4l.05.65.3.15q.5.25.5.9 0 .6-.55.85l-.35.15-.4.9-1.1-.05q-.3-.25-.35-.9l-.15-.05q-.7-.1-.95-.5l-.1-.65.25-.65.85-.25h.1zM21 30.2l-2.15-.75q-1.95-.95-3-3.15-.95-2-.8-4.3.1-1.85.85-3.65.55-1.25 1.35-2.2 2.15-2.55 5.6-2.95 3.25-.4 6.15 1.4l.3-1.25 1.65-4.95.3-.55q.55-.8 1.65-.55 1 .35 1 1.4l-.1.75.15.05.95.6.9.35.55.3.4-.2 2.05-.8 1.65-.05.4.7.15.55 1.05-1.05q1.45-1.25 4.55-2.6T52.05 6q2.3.05 3.15.7.8.65 1.7 2.4.55 1.15.85 3.2.75 6.85-2.5 12.95-3.3 6-9.55 9.05-2.85 1.4-5.3 1.45-3.1.1-5.05-1.85-1.1-1.05-1.65-2.7l-1.65.5q-1.8.45-2.65.8-.15 1.15-1.3 1.4-.85.15-1.8-.7l-1.05-1.4-.75-1.1-.05-.1zM51.45 8.55q-1.9-.3-4.8 1.55-2.9 1.8-4.85 3.95-1.2 1.45-1.9 2.6-1.95 3.3-2.7 6.5-.6 2.7-.45 5.45.1 1.55.6 2.35.85 1.3 2.8 1.5 1.2.05 3.2-.7 4.4-1.75 7.5-5.6t3.85-8.55l.25-2.5q.1-2.4-.4-3.95l-.8-1.7q-.45-.6-2.3-.9M40.5 24.05l.1-.25.3.05.1.25-.1.6q.8.2 1.9-.6 2.25-1.55 3.75-3.85 1.55-2.35 2.05-5.05v-.3l-.2-.3-.3-.25q-.2-.3-.05-.65l.5-.5q.45-.2 1 0 .55.25.8.7.45.65.35 2.05-.2 3-2.15 5.65-1.7 2.35-4.55 4.05l-1.45.55-1.15-.1q-.35-.05-.65-.3-.55-.45-.25-1.75m19.35 4.75v.75l.25.9q.7 1.6 1.8 2.8l.35.35v-.05l.7-3.75.3-.75-1.05-.4-2.15-.5-.1-.05zm.1 7.3-1.4-1.55-.85-1.25-1.2.25q-.6.15-1.6.85l-.05.1 1.85 1.75.3.35 3.45-.1h.05zm11.95-5.45.2-1.3q.1-1.65-.25-2.75l-.15.6-.6 1.7q-.15.1-.15.25l-.4 1 1.3.7zm-41-14.5q1.3 1.65 1.45 4.15.25 3.2-1.05 5.45l-1.45 1.9-2.35 2.05.9 1 .35.2.7-.1L33.3 29v-2.5q.45-5.5 3.3-10l-.85-.6-.1-1-.05-2.1v-.4l-1.05-.5-1.3-1.05-.1-.05q-1.3 2.5-2.25 5.1l-.05.2zm6.8-1.3 2.35-2.8-.15-.3-.3-.3-.4.05-1.65.7-.15.1-.05.45-.05 2.05.1.3.1.1zm-13 12.9 1.95-.55 1.45-.9.65-.9q.95-1.75.95-3.35l-.55-2.6-.55-1.15-.9-.8q-1.75-1.1-3.7-1.1-2.15.1-3.55 1.4-1.6 1.45-1.95 4.1l-.05.65 1.6-.45 1.75-.35h.5q.35.1.4.3v.65l.05.6.85 3.9.05.55zm2.65-7.7q.65.55.75 1.1l.05.75q-.2 1.25-1.05 1.55l-1.05-.1-.9-.7-.15-.8q0-.9.3-1.4.5-.75 1.2-.7.35 0 .85.3M12.1 4.2l.25.2h.3l1.1-.45 2.4-1.9 1-.95q.55-.15 1 .35.4.55-.05 1l-.25.25-.3.4q-.65.95-2.3 2l-1.15.65-1 .2h-.9l-.7-.5-.1-.7.2-.45zm6.8 20.25.8 1.35 1.25.9 1.9.85v-.05l-1.05-4.6-2.55.65-.5.2-.05.1zM2.5 36.4l-.6 1q-.45.55-1 .45-.8-.1-.9-1l.25-1.4q1.45-3.6 4.8-5.55 1-.5 1.8-.75l4.6-.15q2.3.5 4.2 2 3.5 2.8 4.6 7.95.4 1.85 0 3.05l-.35.5q-.4.15-.7-.25l-.3-.7q-.6-3.1-1.6-5-1.35-2.6-3.45-3.85L12.4 32l-1.85-.45q-2.45-.35-4.8 1.15-2 1.3-3.25 3.7m4.4 2.25-.1.25h-.5l.15-.75q.45-1.5 1.85-2l1.2-.25 1.1.1.65.35q.95.55 1.35 1.1l1 1.5.3 1.3-.05 1.35q-.25.8-.9 1-.9.2-1.3-.55-.15-.35-.15-1.05l-.1-1.05-.4-.75-.6-.6q-.5-.45-1.2-.6l-1.35.2z"/></g></svg>