<svg xmlns="http://www.w3.org/2000/svg" xmlns:ffdec="https://www.free-decompiler.com/flash" ffdec:objectType="shape" width="77.5" height="42.25"><g fill-rule="evenodd"><path fill="#999" d="m3.75 7.15-.7-2.05-.25-1.3q-.1-.55.15-1.35l.25-.7.7-1.2q.6-.6 1.25-.55.5 0 .85.4t.3.85L5.75 2.5l-.4.5-.55 1.1q-.2.7.1 2.2l-.05 1.05-.2.8-.55 1-.3.25-.25.05-.2-.25.05-.3.35-1.15zM66 41.35h-.45l-1.65-.05h-.65l-.5-.05h-3.4l-.25.45-.95.15-.85-.5-.15-.15-.6-.55Q55.4 39.4 54.9 38l-.3-1.35q-.65-3.95 1.5-7.4l1.55-2.3q.55-.75 1-.8.45 0 .7.35.2.35.05.8l-.2.55v.6l.15.85.25-1.1.75-1.85 1.4-4.15.35-1.35.05-1.55-.2-2.05-.2-1-.1-.2-.6-1.15-.1-.15-.3-.8q-.25-.7-.15-1.8l.3-1.3q.4-.95 1.6-2.25v1.55l-.1 1.15q.05 1.25 1 2.45l1.85 1.9q2.5 2.7 3.4 6.15l.1.45.05-.45.15-1.65q-.05-.95-.65-2.75l-1.1-3.45q-.5-1.9-.15-3.6l.35-.95q.5-1.4 2.1-3.9l.6-.6q.3-.15.6 0l.5.4-.15 1.3q-.15.75 0 1.5.25 1.3 1.2 2.85l1.65 2.65q2.6 4.55 2.6 10v2.65q.15 1.5.7 3.1l.4 1.85-.3.8q-.5.4-1.1 0l-.35-.3v.75l.05.1v1l-.3-4.4-.2-2-.25-.95-.85-2.85-.1-.65-.15-.8-.75-1.7-1-1.4-.4-.45-.25-.15-.15-.2q-.45-.2-.6.2l.05.3.2.7q-.1.25.1.75.8 2.15.15 4.6l-1.4 3.4q-1.05 2.2-1.4 3.35-.35 1.2-.55 3.05-.1 1.4.05 2.65l-1.15-1.3-.4-1.2-.5-1.9q-.2-1.05-.1-2.5l.1-1.9V28l.15-.85q.1-1.45-.8-2.55-.25-.25-.4-.15l-.05.4-.05 1.1-.9 2.55q-.75 1.75-.95 2.5-1 3.35.15 6.5.7 1.95 1.9 3.1zm7.75-34.2v.6l.35 1.15.05.3-.2.25-.25-.05-.3-.25-.55-1-.2-.8-.05-1.05q.3-1.5.1-2.2L72.15 3l-.4-.5-.55-1.25q-.05-.45.3-.85t.85-.4Q73-.05 73.6.55l.7 1.2.25.7.15 1.35-.25 1.3zm2.1 26.8v.25zm.1 1.65v.5zm-.05 4.5v.05l.05.05v.4l-.05.05v.15l-.05.05-.05.05v.05l-.05.05-.05.1-.05.05-.05.05-.05.05-.1.05-.1.05-.1.05-.15.05h-3.4l.2-.2 1.65.05 1.3-.25q.7-.25 1-.85zm-6.2 1.35h-.3l.15-.15zM60.1 18.6l.4.65q.35.75.35 1.8l-.05.65-.35.8-.6.9-.35.75-.25.4-.1.2-.2.1-.2-.25-.35-.55-.15-.65v-.55l.5-1.15q.35-1.05-.15-1.9l-.4-.65q-.45-.85-.2-1.5l.15-.4.1-.45.35-.55h.25l.05.75v.25l.2.35zm.95 18.35-.4-.85.05-1.2-.1-.45v-.65l-.1-.35.05-1.1.15-.45.05-.3q.1-.55-.55-.65l-.05.05h-.05l-.25.2-.25.45-.25.85-.05.25-.25.45-.25.7-.25 2 .05.5.1.35.3.75q.5 1.05 1.1 1.5.95.8 2.2.45l-.1-.6-.4-.75zM27.25 11.1l-.75-.1-1.1-.6q-.85-.65-.95-1.7l.05-1.15V6.9l.1-.4L24 6q-.55-.75-.35-1.35l.4-.75.65-.55 1.25-.05.95.9.1.2.5-.1 1.2.05 1.15.55q.9.7 1.1 1.3l.15.85-.15 1.9q-.45 1.15-1.7 1.75zM1.65 34.8v-.85l.05-.05v-1.35l.05-.1v-.75l-.35.3q-.6.4-1.1 0l-.3-.8.4-1.85q.55-1.6.7-3.1V23.6q0-5.45 2.6-10l1.65-2.65Q6.3 9.4 6.55 8.1V6.6q-.25-1-.15-1.3l.5-.4q.3-.15.6 0l.6.6Q9.7 8 10.2 9.4l.35.95q.35 1.7-.15 3.6L9.3 17.4q-.6 1.8-.65 2.75l.15 1.65.05.45.1-.45q.9-3.45 3.4-6.15l1.85-1.9q.95-1.2 1-2.45l-.1-1.15V8.6q1.2 1.3 1.6 2.25l.3 1.3q.1 1.1-.15 1.8l-.3.8-.1.15-.6 1.15-.1.2-.2 1-.2 2.05.05 1.55.35 1.35 1.4 4.15.75 1.85.25 1.1.15-.85v-.6l-.2-.55q-.15-.45.05-.8.25-.35.7-.35.45.05 1 .8l1.55 2.3q2.15 3.45 1.5 7.4L22.6 38q-.5 1.4-1.65 2.65l-.6.55-.15.15-.85.5q-.55.2-.95-.15l-.25-.45H14.7q.8-.55 1.3-1.65l.3-1.05q.25-1.05.05-2.8l-.2-1.3-.35-1.1-1.15-2.45-.3-.35-.75-1.9-.65-1.2-.4-.6-.25-.65q-.15-.05-.35.15l-.15.35-.15 1.1.15.9.3 1.25v3.65Q12 35 11.55 36q-.45 1.1-1.3 1.65L9.4 36l-2.1-3.1q-2.35-4-1.9-8.45l-.05-.35q-.15-.2-.45-.1l-.35.35-.3.85-.2.25q-.9 2.45-1.1 3.4l-.25 1.5-.1 2.45zM6 41.45h-.4l.2-.2zm-3.3 0h-.3l-.15-.05-.1-.05-.1-.05-.1-.05-.05-.05-.05-.05-.05-.05-.05-.1-.05-.05v-.05l-.05-.05-.05-.05v-.15l-.05-.05v-.05zM17.4 18.6l1-1 .2-.35V17l.05-.75h.25l.35.55.1.45.15.4q.25.65-.2 1.5l-.4.65q-.5.85-.15 1.9l.5 1.15v.55l-.15.65-.35.55-.2.25-.2-.1-.1-.2-.25-.4-.35-.75-.6-.9-.35-.8-.05-.65q0-1.05.35-1.8zM9.2 28l-.35-.35-.1-.3-.15-.3-.2-.65.1-.3-.25-.15-.2.25-.25.45-.15.5.05.45-.05.35.1.85 1.4 4.65.65 1.25.35.45.35.15q.15-.05.25-.15l.5-.75.15-.55.05-.6q0-1.2-.5-2.45l-1.3-2.25z"/><path fill="#fff" d="m66 41.35-1-.75q-1.2-1.15-1.9-3.1-1.15-3.15-.15-6.5.2-.75.95-2.5l.9-2.55.05-1.1.05-.4q.15-.1.4.15.9 1.1.8 2.55l-.15.85v.2l-.1 1.9q-.1 1.45.1 2.5l.5 1.9.4 1.2L68 37q-.15-1.25-.05-2.65.2-1.85.55-3.05.35-1.15 1.4-3.35l1.4-3.4q.65-2.45-.15-4.6-.2-.5-.1-.75l-.2-.7-.05-.3q.15-.4.6-.2l.15.2.25.15.4.45 1 1.4.75 1.7.15.8.1.65.85 2.85.25.95.2 2 .3 4.4.05.4v.25l.05.85.05.55v.7l.05 2.9-.1.9-.05.1q-.3.6-1 .85l-1.3.25-1.65-.05-.2.2-.25.2-1.4.05-.35-.25-.15-.15-.15.15-.9.35q-1.3.2-2.5-.45m-4.95-4.4.75 1.15.4.75.1.6q-1.25.35-2.2-.45-.6-.45-1.1-1.5l-.3-.75-.1-.35-.05-.5.25-2 .25-.7.25-.45.05-.25.25-.85.25-.45.25-.2h.05l.05-.05q.65.1.55.65l-.05.3-.15.45-.05 1.1.1.35v.65l.1.45-.05 1.2zm-46.35 4.3-1.1.45-1.15-.1-.15-.1-.15.05q-.95.7-1.9.7l-1-.3-.75-.05q-.65.5-1.45.25l-1-.65-.05-.05-.2-.2-.2.2-.15.15q-.55.45-1.4.35-.65-.05-1.35-.5l-1.15-.9L1.2 40l-.2-.9.05-1.7.55-2.45.05-.15.95-2 .1-2.45.25-1.5q.2-.95 1.1-3.4l.2-.25.3-.85.35-.35q.3-.1.45.1l.05.35q-.45 4.45 1.9 8.45L9.4 36l.85 1.65q.85-.55 1.3-1.65.45-1 .55-2.4v-3.65l-.3-1.25-.15-.9.15-1.1.15-.35q.2-.2.35-.15l.25.65.4.6.65 1.2.75 1.9.3.35 1.15 2.45.35 1.1.2 1.3q.2 1.75-.05 2.8L16 39.6q-.5 1.1-1.3 1.65M9.2 28l.45.55 1.3 2.25q.5 1.25.5 2.45l-.05.6-.15.55-.5.75q-.1.1-.25.15l-.35-.15-.35-.45-.65-1.25-1.4-4.65-.1-.85.05-.35-.05-.45.15-.5.25-.45.2-.25.25.15-.1.3.2.65.15.3.1.3z"/><path d="m30 7.25.8-.15.8-.75q1.05-1.25 2.6-1.95t3.15-.65q2.4.2 3.25 1.8l.45 2.1v.15l.8-.1 1.1.2.8.35.4.25.3.55.1 1.4-.05.95-.05.7.05.25q1.4.4 2.75 1.25 2.15 1.3 3.5 3.35 1.35 2 1.75 4.5.45 2.45-.1 4.85-.95 4.05-4.05 6.85-3.05 2.65-7.2 3.45-3.7.6-7.4-.55-1.7-.55-3-1.5-2.05-1.35-3.6-4.05l-1.2-2.9q-.35-1.6-.1-3.5.35-3.3 2-6.15 1.7-2.95 4.4-4.6 1.4-.9 2.75-1.25l.1-1.7q0-.95.3-1.5l1.05-.8 1.3-.2h.35l-.1-.6-.35-.35q-.6-.45-1.95-.25-1.3.25-2.05.95l-1.3 1.25q-.7.5-2.2.4l-.65-.05-.65-.25-.65-.6q-.3-.5-.25-.95.2-.65.75-.55l.5.3.75.05zm11.1 9.8q.05-.55-.45-.95-.45-.25-1.05 0l-.95.65q-1.5 1.5-2.45 4.5l-.35 1.1-.05 1.15.1 2.05-.5-1.65-.05-1 .35-2.85v-.3l-.5.05q-.4.35-.7 1.2-.65 1.55-.8 2.45-.35 1.65.15 3.25.5 1.7 1.65 2.9l.8.65.6.3-.1-.25-.1-.7.1-1 .2-.85.05-.1v-.05l.1-.1.05-.2.4-.65h.05v-.05l.1-.1h.05v-.05l.15.15v.1l.1.1v.55l-.1.15.05.15v.4l.05.05v.3l.05.2v.3l.1.05.05.1.15.2.2.15v.1l.05.05.1-.1.55-.85.2-.4.2-1.35v-.55l-.3-.8-.05-.3-.15-.15q-.05-.1.05-.25l.2-.1q.35-.05.65.35l.35.65.2.25.4.95.25 1.05-.1 1.15-.7 1.7.3-.1.2-.05q.45-.2 1.15-.95l.55-.65q1.1-1.5 1.05-3.45-.1-1.9-1.35-3.35l-.7-.7-.75-1q-.5-.75-.55-1.4-.15-.85.25-1.45zm2.55 4.9.65.35.25-.45.2-.8-.1-.35-.3-.8-.25-.2-.4-.6-.4-.65-.05-.25-.05-.1v-.15q-.05-.7.35-1.45l.05-.25-.2-.2-.2.2-.6.3-.55.6-.25.55-.05.3-.15 1.4.25.5.75 1.05.85.7z"/><path fill="#fff" d="M29.5 9.25q-.55.6-1.55.7l-1.3-.3q-.65-.4-.75-1.1L26 7.5l.15-.9q.3-.8 1.15-1.05l1.6.05q.95.3 1.1 1.05v.6h-.05l-.75-.05-.5-.3q-.55-.1-.75.55-.05.45.25.95l.65.6zm14.15 12.7-.2-.3-.85-.7-.75-1.05-.25-.5.15-1.4.05-.3.25-.55.55-.6.6-.3.2-.2.2.2-.05.25q-.4.75-.35 1.45v.15l.05.1.05.25.4.65.4.6.25.2.3.8.1.35-.2.8-.25.45zm-2.55-4.9-.45.65q-.4.6-.25 1.45.05.65.55 1.4l.75 1 .7.7q1.25 1.45 1.35 3.35.05 1.95-1.05 3.45l-.55.65q-.7.75-1.15.95l-.2.05-.3.1.7-1.7.1-1.15-.25-1.05-.4-.95-.2-.25-.35-.65q-.3-.4-.65-.35l-.2.1q-.1.15-.05.25l.15.15.05.3.3.8v.55l-.2 1.35-.2.4-.55.85-.1.1-.05-.05v-.1l-.2-.15-.15-.2-.05-.1-.1-.05v-.3l-.05-.2v-.3l-.05-.05v-.4l-.05-.15.1-.15v-.55l-.1-.1v-.1l-.15-.15v.05h-.05l-.1.1v.05h-.05l-.4.65-.05.2-.1.1v.05l-.05.1-.2.85-.1 1 .1.7.1.25-.6-.3-.8-.65q-1.15-1.2-1.65-2.9-.5-1.6-.15-3.25.15-.9.8-2.45.3-.85.7-1.2l.5-.05v.3l-.35 2.85.05 1 .5 1.65-.1-2.05.05-1.15.35-1.1q.95-3 2.45-4.5l.95-.65q.6-.25 1.05 0 .5.4.45.95"/></g></svg>