<svg xmlns="http://www.w3.org/2000/svg" xmlns:ffdec="https://www.free-decompiler.com/flash" ffdec:objectType="shape" width="77.75" height="41.85"><g fill-rule="evenodd"><path fill="#717171" d="m66.85 4.8 1.05.2.65.2q.35.25.35.55.05.45-.45.65l-.85.1-1.35-.05-1.05.05-.9.2q-1 0-1.25-.7-.2-.3 0-.9l.4-.9 1.35-2.05-1.1.05-.5-.2q-.4-.35-.35-.8L63 .6l.45-.3 2.2-.3 1.45.1.6.1q.35.2.55.5.25.4.05.9l-.5.65-1.5 1.45-.25.3-.45.8zm-10.2 4.25H56q-.5-.1-.6-.6-.15-.4.15-.9l.4-.4.15-.4.9-1.35 1-1.35-1.9-.15-.8-.1-.35-.5.1-.55q.25-.3 1.05-.4l3.7-.3h.85q.45.1.7.4l.15.4q.1.5-.25.85l-.55.3q-.55.3-1.65 1.5l-.45.55-.2.3-.45.55h2.2l1.55.05q.45.25.55.8.1.6-.35.95l-.95.25-1.05-.1h-1.65zm-3.15-3.9.6.15q.45.25.55.8t-.35.9l-.65.35-.85.9-.65 1 1.55-.05.65.05q.95.3.85 1.2 0 .9-1 1.1l-.75-.05-2.85.25-.5.1-.9-.65q-.25-.6.15-1.1l.25-.25 1.4-2.1.25-.3-.9-.05-1.2-.05q-.45-.15-.55-.75 0-.5.35-.85l1.5-.4.7-.2zm-6.85 9.05q.75 0 1.15.3.55.5.3 1.1-.25.55-1.25.65l-.95.05h-.65l-.55.1q-.5.1-.95-.3-.4-.35-.4-.9l.1-.4v-.1l.4-.65 1-1.15.3-.3h-.65l-.8-.05-.5-.4-.15-.5.2-.65q.1-.15.55-.4l2-.2h.75l.5.1.45-.05q.45 0 .7.35.25.4.1.8l-.15.3-1.7 2.35zm29 13.55h.25l.15.05h.05l.1.05h.1l.15.05.15.1.1.05.1.05.05.05.1.05.05.05.1.05.05.1.05.05.15.15.05.05v.05l.05.05.05.1v.05l.05.05V29l.05.05v.05l.05.05v.1l.05.05v.15l.05.05v.75l-.05.05v.2l-.05.05-.05.05v.1l-.05.05v.05l-.05.1-.05.05V31l-.05.05-.05.05-.05.05v.05l-.1.1v.05l-.05.05-.1.05-.05.05-.1.05-.05.05-.1.1-.1.05-.1.05-.15.05-.05.05h-.15l-.1.05h-.05l-.15.05h-.5v.1l.05.05v.1l.05.05v.25l.05.05v.5l-.05.05v.05l.15.05.15.05.15.05.1.05.1.05.1.05.1.05.1.1.05.05.05.05.1.05.05.05.05.05.05.05.05.1.15.15v.05l.05.05.05.05v.1l.05.05v.05l.05.05v.05l.05.05.05.05v.05l.05.1v.05l.05.05v.15l.05.05v.95l-.05.05v.1l-.05.05v.05l-.05.05v.1l-.05.05v.05l-.05.05v.05l-.05.05v.05l-.05.1-.05.05v.05l-.05.05-.1.1-.05.05-.05.1-.15.15-.05.05-.1.05-.05.05-.1.1-.05.05-.1.05-.1.05-.05.05.05.05.05.05v.05l.05.1v.05l.05.05.05.05v.1l.05.05v.2l.05.05v.15l.05.1v.5l-.05.05v.15l-.05.05v.15l-.05.05v.1l-.05.05v.05l-.05.1v.05l-.05.05-.05.05v.05l-.05.05v.05l-.05.1-.05.05-.05.05-.05.05-.05.05-.05.05-.05.05-.05.1-.1.05-.05.05-.1.05-.05.05-.1.05-.05.05-.15.05-.1.1-.15.05-.1.05h-.15l-.05.05h-.2l-.1.05h-.25l-.3.05h-.1l-.3-.05H73l-.35-.05h-.1l-.55.05h-2.45l-.8.05H65.2l-.7.05h-9.6l-10.25.05H5.45l-.3-.05H4.7l-.15-.05H4.3l-.25-.05h-.3l-.45-.05h-.5l-.1-.05h-.2l-.1-.05-.15-.05H2.2l-.15-.05-.15-.05-.05-.05h-.1l-.05-.05-.15-.05-.15-.05-.1-.05-.1-.05-.1-.05L1 41l-.1-.05-.05-.1-.05-.05-.05-.05-.1-.05-.05-.05-.05-.05-.05-.05v-.05l-.1-.1v-.05l-.05-.05v-.05L.3 40.2l-.05-.05v-.05L.2 40v-.1l-.05-.05v-.1L.1 39.7v-.4l-.05-.1.05-.05v-.4l.05-.05v-.1l.05-.05v-.1l.05-.1v-.05l.05-.05.05-.05v-.05l.05-.05v-.05l.1-.1v-.05l.05-.05.05-.05.05-.05.1-.05.05-.05.05-.1-.25-.25-.05-.05-.05-.05v-.1l-.05-.05L.4 37l-.05-.05v-.05l-.05-.05-.05-.05v-.15L.2 36.6v-.05l-.05-.05v-.1l-.05-.1v-.15l-.05-.05v-.85l.05-.05v-.25l.05-.05v-.05l.05-.05v-.15l.05-.05v-.05l.05-.05.05-.05v-.05l.05-.05v-.1l.05-.05H.5l-.05-.05-.05-.05-.05-.05L.3 34v-.05l-.05-.05-.05-.1v-.05l-.05-.05v-.05L.1 33.6v-.1l-.05-.1v-.2L0 33.15v-.6l.05-.05v-.2l.05-.05v-.15l.05-.05V32l.05-.05v-.05l.05-.05v-.1l.05-.05.05-.05.05-.05v-.05l.1-.05v-.05l.1-.1.05-.05-.05-.05-.05-.05-.05-.05-.05-.1L.4 31v-.05l-.05-.05-.05-.05v-.05l-.05-.05v-.1L.2 30.6v-.05l-.05-.05v-.1l-.05-.05v-.4l-.05-.1.05-.05v-.4l.05-.05v-.1l.05-.05v-.05l.05-.05V29l.05-.05v-.05l.05-.05.05-.05v-.05l.05-.05.05-.1.05-.05.05-.05.05-.05.1-.05.05-.05.05-.05.1-.1.1-.05.1-.05.1-.05.15-.05.1-.05.15-.05h.1l.1-.05h.2l.25-.05h12.95l.65.05h10.6l8 .05h2.45l2.55.05h1.55l6.65.05h5.35l5.35-.05h6.25l2.8-.05h6.4l1.1-.05h.15l.1-.05h.05l.15-.05z"/><path d="M62.45 14.1q2.85 1.1 4.4 3.15 1.2 1.55 1.75 4.2.35 1.75.35 3.5.9 4.55.9 9.35 0 1.35-.3 1.95-.45.8-1.45.95-.75.2-1.9-.4l-1.75-1.05-.8-.3-1.25.75q-2.65 1.45-5.45 1.35l-4.4-.95q-2.8-.95-4.45-2.3l-.55-.45.5 3.85.05 2.1q-.2.9-.95 1.55l-.95.5h-1.3l-1.45-.2-1.7.2H39.7l-1.2-.8-.7.8h-3.5q-.65-.55-.95-1.3-.4-1.25.25-3.25 1.85-6.35 5.95-10.8-1.85-.7-3.4-2.45-1.95-2.3-2.35-5.7l-.2-.55q-.05-.15-.5-.35-1-.5-1.6-1.55t-.6-2.2q0-2.4 2.05-3.9 1.2-.85 2.4-.85 1 0 1.9.5 1.1.6 1.75 1.8.6 1.15.5 2.4l-.45 1.7-.45 1.7q-.4 2.2 1.1 4.1 1.3 1.65 3.45 2.25.9-.6 1.85-1l.65-1.8q.95-2.3 2.2-3.65 1.3-1.45 3.4-2.45 2.65-1.2 5.55-1.3l4.3.5.5.15zm-4.4 19.6 1.15-.05-.05-.2.25-1.45.05-.75.15-5.1-.15-.05-1.15-.05.2.45.15.55-.15 3.15-.5 2.35-.45 1.05zm.7-19.25-.65.15.6 1.1.15 1.05-.05 2.65-.05.35-.15.55.95.05.1-1.65.15-2.1.05-.7-.05-1.35.05-.1zm-4.7 11.8-.05-.9-.15-.8q.25-.15.6-.35l.35-.25.4-.3q.2-.25 0-.45l-.75-.25-.8-.1h-.1q-.1-.65-.45-.75l-.5.05-.35.4-.2 1.1-.6 1.5q-.35 1.05-.15 1.65l.65.7.9.1.85-.45zm-28.5.3q.5 1.65.3 3.3-.2 1.8-1.2 3.2L23.4 34.4l.55 1.1 1.2 2.95.25 1.05q.15 1.4-.85 2.35h-11.5l-.15-.3h-.55q-1-.1-1.4-.4l-.6-.7-.45-.65q-.2-.5-.1-1.6l-.15-1.05q-.25-.55-.8-.65l-1 .3-.95-.1-.6-.45q-.45-.45-.5-.9l-.05-.8.1-.75q.15-.35.6-.35.5.1.55.45l.05.75.15.45.5.15L8 35l1.1-.55.7-.05.75.35.75.85.5 1.1.15.95q.1.6.35.85l.4.35.1.1.05-.4q.15-.75 1.15-2.5l.3-.45-.75-.45q-1.4-.9-1.9-2.25-.2-.55-.25-1.25l-2.25.1q-1.45-.3-2.25-1.5-.85-1.2-.55-2.65.2-.75.9-1.65l.7-.7q1.3-1.05 2.7-.9l.9.2q.9.25 1.45.7.6-.8 1.45-1.45 1.65-1.3 3.7-1.55l-.05-.35.2-1.45.25-.55q.7-1.3 1.9-1.8l1.95-.2q1.05.2 1.8.85 1.6 1.45 1.3 3.55-.15 1-.75 1.8l-.05.1-.5-.35q-1.3-.65-2.55.3-.55.4-.8 1.1-.25.65-.1 1.3.2.9.95 1.5.8.55 1.7.45t1.55-.85zM15.1 28.8q-.95.25-1.3 1.15-.4 1.2.4 2 .9.9 2 .4 1.05-.4 1.15-1.6 0-.9-.65-1.55-.8-.6-1.6-.4m8.05 1.85q0-.6-.55-.6-.4-.05-.9.35l-.3.2-.2-.3-.25-.2-.3-.15-.5.1-.25.4.25.65.15.25-.7.45-.4.4q-.2.35.05.6.2.3.55.2l.55-.35 1.15-.9.7-.25.6-.3z"/><path fill="#fff" d="m54.05 26.25-.35.9-.85.45-.9-.1-.65-.7q-.2-.6.15-1.65l.6-1.5.2-1.1.35-.4.5-.05q.35.1.45.75h.1l.8.1.75.25q.2.2 0 .45l-.4.3-.35.25q-.35.2-.6.35l.15.8zm4.7-11.8h1.1l-.05.1.05 1.35-.05.7-.15 2.1-.1 1.65-.95-.05.15-.55.05-.35.05-2.65-.15-1.05-.6-1.1zm-.7 19.25-.5-.1.45-1.05.5-2.35.15-3.15-.15-.55-.2-.45 1.15.05.15.05-.15 5.1-.05.75-.25 1.45.05.2zM24.7 24.2q.8.65.9 1.85l-.05.5-.6 1.1q-.65.75-1.55.85t-1.7-.45q-.75-.6-.95-1.5-.15-.65.1-1.3.25-.7.8-1.1 1.25-.95 2.55-.3zm-1.55 6.45-.35.55-.6.3-.7.25-1.15.9-.55.35q-.35.1-.55-.2-.25-.25-.05-.6l.4-.4.7-.45-.15-.25-.25-.65.25-.4.5-.1.3.15.25.2.2.3.3-.2q.5-.4.9-.35.55 0 .55.6M15.1 28.8q.8-.2 1.6.4.65.65.65 1.55-.1 1.2-1.15 1.6-1.1.5-2-.4-.8-.8-.4-2 .35-.9 1.3-1.15"/></g></svg>