<svg xmlns="http://www.w3.org/2000/svg" xmlns:ffdec="https://www.free-decompiler.com/flash" ffdec:objectType="shape" width="76.55" height="42.15"><g fill-rule="evenodd"><path fill="#767676" d="m28.4.85.5.05q.45.05.8.4l.35.75-.25.85-.7.5-.9-.1-.6-.6-.2-.6-.6-.65-.55-.75.05-.4.35-.3.55.15zM66.5.5l7.75.35 1.35.45q.85.55.95 1.6l-.15 1.3-.55 4.05-.05 1.4.2.9v.85q-.2.65-1.05.95l-1.45.05q-2.45-.4-4.05-1.55-1.95-1.3-2.7-3.35l-.2-.45-.7-.4q-1.5-.45-2.4-1.15-1.85-1.6-1.6-3.9l.4-1.15Q62.6-.1 63.3 0l.45.3.15.4.45.05zm-5.55 10.8.75.2 1.95.05h1.5q.45.1.4.45l-.4.3-.8.25-2.7.85-.7.25q-.5.1-.9-.3-.4-.35-.4-.85t.4-.85.9-.35m4.6 8.35-.2.25-1.4.3-1.95.2-1.8-.15q-.55-.4-.5-1.1.1-.7.7-.95.5-.2 1.2 0l1.25.45 1.25.3 1.15.2q.35.25.3.5M57.1 4.6q.25-.3.55-.4l.35.05.15.3-.25.45q-.65.55-1.45 2.05l-.35.75-.3.85q-.25.5-.9.65l-1.1-.2-.45-.65q-.15-.4 0-.8.2-.5 1.55-1.3zM27.8 24.8q-2.55-9.45 2.45-20.95l.8-1.3q.7-.65 1.4-.4l1.25 1.1q.9 1.1 2.4 1.7l2.85 1 3.85.8 2.05-.05L47 8.25l.35.25 2.35 1.15.3.1 1.4.55 1.45.45 2.9.1 1.75-.1q.7.25.8 1.2l-.25 1.5Q55 25.6 47.15 31.5l-2 1.25-2.5.75-5.35 1.1-1.95-.25q-.8-.1-1.7-1.05-1.45-1.3-3.55-4.1l-1.5-2.15zM50.85 7.05q-.3.55-.95.55t-.9-.5q-.3-.5-.1-1.2l.55-1.1.8-2 .2-.55.5-.3q.4 0 .5.55l-.1.75Q51 4.75 51 5.85zm-9.65-5.4.6-.65.25-.35.35-.3q.5-.1.7.45l-.1.85-.4.8-.25 1.5q-.1.95-.65 1.3l-.95.15-.8-.6q-.25-.4-.15-.95.1-.5.45-.85l.5-.5zm.3 7.1q-2.9-.05-6.4-1.2L33.7 7l-1.25-.95-.7 1.65-.75 2.85-.45 2.3-.05.1-.35 2.5-.05 1 .05 1.65.05 1.45.1.8.15.95.05.15q.1.95.45 1.75.2.75.55 1.5l.15.3 1 1.9.45.75.1.15 2 2.3 1.2 1.2 1.65-.2q5.3-.6 9.25-4 3.5-3.05 6.1-8.85l.7-1.5.55-1.55.25-.8.15-.55-2.35-.25-.25-.1-.4-.15-1.05-.4-1.15-.45-1.05-.5-2.35-1.45-.2-.2-.75-.55-1.3-1.2zM56.65 24.8l1.45.6.95.7 1.4.75q.55.2.4.6-.1.25-.55.25-2.3 0-4.4-.9-.5-.2-.65-.4l-.25-.65q-.05-.4.2-.65.45-.5 1.45-.3m2.5 7.7.15.25.2-.3.7-.8.3-.5.45-.45.25-.35.25-.15.2-.2.55.05v.1l.1.05-.1.45-.15.35-.2.3-.15.3-.2.3-.95 1.75-.2.75.05.05 2.4 3q.65 1 .3 1.45-.5.65-1.45 0l-1.2-1.05-.7 1.45-.85 1.3q-.7.55-2.65.55l-8.8.35-2.4-.1q-1.4-.35-2-1.25-.85-1.2-.15-2.25l.85-.7 1-.55 1.4-.95q.8-.65 1.35-.9.95-.5 3.1-.6v-.05l-.25-1.45-.15-1.1q.1-.75.7-.65l.65.75.85 1.7.35.6.35-.1 1.45-.7.2-.1.25-2.25q.1-.65.35-.85.25-.15.5 0 .3.1.4 1l.3 1.4v.05l.4-.15q1.6-.4 2.2.2M25.7 17.4q.65.4.45 1.2-.25.85-1.65 1.05l-2.7-.05-.55-.05-.45.05-.1-.2.1-.25.45-.25 1.05-.75q.45-.3 1.55-.7zm-9.95 20 3.1-4.2-.35-.35-.45-.6q-.1-.35.3-.45l.6.25.5.25.9-1.8.45-2.15-.05-1.3-.55-.9-.85-.95q-1-.95-2.7-.85-1.25.05-2.75.85l-1.8 1.1q.9 3.65.75 5.65-.1 1.4-.7 2.2-.55.8-1.1.4-.3-.25-.05-1.2l-.15-2.4-.65-2.8q-.55.65-.95 1.45Q8.6 30.9 8 33.2q-.45 1.5-1 1.85l-1.15.05q-.65-.25-.8-.85-.15-.45.15-1.45 1.15-4.05 2.6-6l1.5-1.65-.2-.55h-.3l-.4.05-.55.35q-.25.1-.4-.15v-.35l.4-.45.25-.4.45-.4-1.05-2.2-.4.9-.9 1.9.15.25.15.3.1.05v.5l-.3.2-.4-.15-.3-.25-.55.8-.5.7.1.05.2.5.1.45v.35l-.3.2-.35-.1-.3-.2-.15-.15-.1-.2-2 1.75-.55.25q-.4.1-.5-.2-.15-.35.4-.8L2.05 27l1.25-1.9q1.65-2.65 2.4-5.15l.35-1.25-1.15-1.5-.95-.8-1.1-.15-1.15-.15q-.6-.25-.75-.95-.2-.65.15-1.2.6-.8 1.7-.8l.4-.55q.5-.3.85.15l.25.65q.95.3 1.8.95l-.45-1.95-.9-2.55q-.7-1.35-1.8-2l-1.15-.6q-.65-.5-.6-1.1.1-.7.95-.9l1.35.3q1.45.7 2.55 2.25l.25-.15q.4-.3.55-.25l.1-.05q.5 0 .65.4.15.3-.1.55l-.45.45-.3.25.75 1.95.75 3.3.7-.05h.5l.35.25.15.45-.2.35-.4.2-.95.3L8.35 17l.5.75q1.45 2.6 2.35 5.35l.1.4q1.45-1.05 3-1.55l4.6-.1.1-.4.3-.5q.2-.15.5.15l.1.5-.1.6.1.05q2 1 2.9 2.85l.65-.25.05-.05.7.45-.15.7-.2.3-.4.3-.15.1q.45 2.15-.6 4.8-.75 1.7-2.8 4.45l-1.65 1.7q-.75.65-1.95 1.1l-.8-.05q-.25-.2-.15-.65zM28.1 28q.4.1.6.55l-.05.85-.8.7-2.05.9-.45.05-.3-.3.25-.45 1.3-1.5.65-.6z"/><path d="M67.95 30.1q.55-1 1.6-.95L69.3 22l.05-.55q.2-.4.5-.3l.3.3 1.05 4.45.85 3 .2.55 2.05-.05q.85.1 1.25.55.25.3.15.7l-.45.45q.75.7.75 1.8l-.35 2-.5 1.8-.15.95.15 1q.15.7-.2 1.4l-1 1.05-2.45.3q-5.1-.3-10.1 0l-2-.05q-1.15-.15-1.75-.9-.5-.55-.5-1.35-.05-.8.4-1.4.4-.5 1.35-1.25l.3-.35-1.5-1.75-.15-.4.35-.25 1.25.2 1.1.4.4-.8v-.3l.25-.5v-.4l.6-.9.25-.2h.1v-.05l.3.25.1.4.05 2.2 3.95-1.1-.25-.45-1.35-2.15q-1.4-2.35-1.85-3.5l-.05-.3q.15-.25.6-.15.6.25 1.05.75l.5.7 1.1.95 1.8 1.6zm-19.6-6.65-.3-.15-.6.3.05.1q.6 1.2.45 1.9-.2 1.1-1.25 1.25-1 .15-1.6-.75-.4-.7-.05-1.5l.05-.15-1.55.25-5.95-.55q-2.2-.65-3.35-1.45-1.75-1.2-2.15-2.9l-.1-.35h-.05q-1.35-.1-2.05-.55-1.1-.75-1-1.85.1-.85.75-1.25l1.45-.15.9.7.35.55.7-1.1h.05l-.85-1.5q-1.9-2.85-4.9-4.2.7 2.5-1.05 4.6-1.7 1.85-4.35 1.95-2.35.15-4.55-1.45-1.25-1-1.75-2.05-.5-1.2-.25-2.7.25-1.8 1.4-3.4 1.1-1.5 2.75-2.4 3.3-1.8 7.2-.9 3.5.8 6.4 3.6 3.15 3.1 3.95 6.75 2 .1 3.6 1.55l1.35 1.3q1.35 1.05 3.45.85l.4-1.5q.2-.6.55-1.1l-.2-.35q-.4-.9.05-1.65.55-.8 1.45-.75l.55.15.6.4.65-.25 2.25-.25 2.5.3q.85.35 1.6 1l.3-.15 1 .05q.45.15.8.6l.3.95q0 .8-.5 1.3l.2.55q.6 1.65-.05 3.45-.6 1.75-2.15 2.75-1.9 1.25-5 .9zm9.35-6.1-.45-.65-1-.05q-.5.3-.5.95t.65.9q.6.25 1.05-.25.35-.35.25-.9m-7.6.25q.35-.5.1-1.1-.25-.5-.9-.6l-.15.05q-.35.05-.65.35-.25.35-.2.7 0 .7.7.95.65.2 1.1-.35m5 .65-.55.5-.2.25q-.3.1-.45-.3l-.35-.45-.45.1-.35.3-.6.2q-.4-.1-.45-.35l-.1-.8q-.6.15-.7.9l.1.5.4.4.85.3 1.05-.35q.3.55.85.55.6.1.95-.45l.25-.65v-.35q0-.3-.25-.3M5.35 29.7l1.25-.5L8 27.85l-.05-.25q.2-.25-.1-.45l-.1-.4q.1-.6.5-.6l.4.15.35.25.4.2h.05q1.4-.95 2.5-1.3l-.35-.75-1.3-1.3q-.95-.75-1.75-1l-2-.05v.25l-.1 1.85-.1.55-.35.4q-.5.05-.7-.55-.3-.5-.3-1.1l-.1-.5-.15-.3-1.3.65-1.7 1.25q-.9.9-1.35.7l-.4-.6.1-.85q.55-1.5 2.2-2.85-.1-.5.1-.9l.1-.6.15-.5.4-.25.35.2.75.8q.9-.55 1.75-.8l1.6-.35.05-.2L8 16.9l.15-.65q.3-.35.6-.3.3.15.4.65L9 17.85l-.05 1q1.15.1 2.2.6 1.6.7 2.7 2l.5-.25.8-.4.85-.25q.6 0 .65.45l-.3.65L15 23.2l.2.4.5 1.3 1.95.05.45-.95.3-.8q.3-.5.75-.25.25.2.15.9-.1.9.05 1.65.85.4 1.7 1.25l1.5 1.6.75-.2q.9-.2 1.3 0l.4.4q.15.5-.25.8-.3.35-1.2.7.75 1.55.75 3.3 1.4-.9 3.1-.95l.05-.1Q29 31 30.8 30.5l-.05-.25.25-.85.05-.55q.1-.2.3-.25l.35.05.35.6.4 1 .2-.05q2.35-.15 4.75 1.1l2.05 1.45.45.45.4-.35q.45-.3 1-.45l.8.05.2.5-.25.5-1.05 1.2.15.35q.7 1.25.7 2.6 0 1.55-.9 2.5-.5.6-.95.35-.4-.15-.4-.7l.1-.8q.2-1.2-.85-2.7Q38 35 37 34.4l-.2.65-.5.95q-.4.4-.8.25l-.35-.45v-.55l.15-1.3v-.1l-1.75-.3-1.45.15 1.65 1.7.9 1.65h.4l1.5.2.25.4-.2.35-.75.4-.75.2v.05q.25 1.55-.35 2.5l-1 .8-1.25-.05q-.55-.35-.8-1.25l-.4-1.6q-.25-.95-1.05-1.65-.75-.7-1.75-.95l-.2-.05q-.85 1.05-1.5 2.45v.1l.1.7.1.4-.1.45-.35.6q-.5.5-1.15.25l-.3-.2q-.6.9-1.6 1l-1.8-.25-2.2-.35L4.4 41l-2.95-.25Q.4 40.2.3 39t.8-1.9q-.95-1.55-.05-3l-.75-.5-.05-.95 1-.8zm10.05 3.8 2.5.3q.4.15 1.9 1.4l1.05.8q0-2.15-.45-3.6-.3-1.15-.95-2l-.7.85-.65.4q-.55 0-.55-.6-.05-.3.25-.8l.5-.75.1-.2-.5-.35q-.75-.45-1.7-.6l-.05 1.05-.5 3.1-.35 1zm-6.15-3 1.5 2.35.5.5q.9-1.55 1.1-3.05l.05-1.6q-1.85.5-3.3 1.6z"/><path fill="#fff" d="M55.1 18.25q.25 0 .25.3v.35l-.25.65q-.35.55-.95.45-.55 0-.85-.55l-1.05.35-.85-.3-.4-.4-.1-.5q.1-.75.7-.9l.1.8q.05.25.45.35l.6-.2.35-.3.45-.1.35.45q.15.4.45.3l.2-.25zm-5-.65q-.45.55-1.1.35-.7-.25-.7-.95-.05-.35.2-.7.3-.3.65-.35l.15-.05q.65.1.9.6.25.6-.1 1.1m7.6-.25q.1.55-.25.9-.45.5-1.05.25-.65-.25-.65-.9t.5-.95l1 .05z"/></g></svg>