<svg xmlns="http://www.w3.org/2000/svg" xmlns:ffdec="https://www.free-decompiler.com/flash" ffdec:objectType="shape" width="76.6" height="42.2"><path fill="#999" fill-rule="evenodd" d="M16.4 41.7H.5V.5h75.6v41.2H49.3l-1.1-7.3-1.05-4.05 4.4.45 6 .55 3.4-.45q.9-.5 1.4-1.45.45-1 .35-2-.15-1-.8-1.85-.65-.9-1.6-1.25l-2.05-.45q-2.65-.2-5.25 0l-2.25.35.55-.95q.7-1.45.7-3.3l.05-.4-.35-2.75-.1-.35q1.75-2.4 2.3-5.45.2-.8 0-1.35-.25-1.15-1.35-1.45l-1-.1-5.45.3-.3.05q-1.5-.9-3.85-1.45l-2.9-.4V6.6h-1l-2.9.45Q32.8 7.6 31.3 8.5l-.3-.05-5.45-.3-1 .1q-1.1.3-1.35 1.45-.2.55 0 1.35.55 3.05 2.3 5.45l-.1.35q-.4 1.8-.35 2.75l.05.4q0 1.85.7 3.3l.55.95-2.25-.35q-2.6-.2-5.25 0l-2.05.45q-.95.35-1.6 1.25-.65.85-.8 1.85-.1 1 .35 2 .5.95 1.4 1.45l3.4.45 6-.55 4.4-.45q-.6 1.9-1.05 4.05l-.25 1.4q-1.6-.2-4.05.55l-2.9 1.15q-1.3.55-2 .5l.1-.05 1.25-.55q1.1-.6 1.55-1.55.55-1.1.1-2.2-.45-1.05-1.7-1.4l-2.3-.1q-1.5.35-2.45 1.1-.65.5-1.4 1.5-.45.65-.8 1.6-.35 1.25.1 2.6.4 1.3 1.45 2.2zm11.45 0H22.7l1.7-.75q2.15-.9 3.6-.75z"/><path fill-rule="evenodd" d="M49.3 41.7v.1H27.85v-.1l.15-1.5q-1.45-.15-3.6.75l-1.7.75-.15.05-.1.05h-5.9l-.15-.1-.8-.55q-1.05-.9-1.45-2.2-.45-1.35-.1-2.6.35-.95.8-1.6.75-1 1.4-1.5.95-.75 2.45-1.1l2.3.1q1.25.35 1.7 1.4.45 1.1-.1 2.2-.45.95-1.55 1.55l-1.25.55-.1.05q.7.05 2-.5l2.9-1.15q2.45-.75 4.05-.55l.25-1.4q.45-2.15 1.05-4.05l-4.4.45-6 .55-3.4-.45q-.9-.5-1.4-1.45-.45-1-.35-2 .15-1 .8-1.85.65-.9 1.6-1.25l2.05-.45q2.65-.2 5.25 0l2.25.35-.55-.95q-.7-1.45-.7-3.3l-.05-.4q-.05-.95.35-2.75l.1-.35q-1.75-2.4-2.3-5.45-.2-.8 0-1.35.25-1.15 1.35-1.45l1-.1 5.45.3.3.05q1.5-.9 3.85-1.45l2.9-.45h1v.05l2.9.4q2.35.55 3.85 1.45l.3-.05 5.45-.3 1 .1q1.1.3 1.35 1.45.2.55 0 1.35-.55 3.05-2.3 5.45l.1.35.35 2.75-.05.4q0 1.85-.7 3.3l-.55.95L53 23.9q2.6-.2 5.25 0l2.05.45q.95.35 1.6 1.25.65.85.8 1.85.1 1-.35 2-.5.95-1.4 1.45l-3.4.45-6-.55-4.4-.45 1.05 4.05z"/><path fill="none" stroke="#999" stroke-linecap="round" stroke-linejoin="round" d="M16.4 41.7H.5V.5h75.6v41.2H49.3m-21.45 0H22.7"/><path fill-rule="evenodd" d="M39 9.85h-.1l-.7-.5q-.2-.35-.25-.9h-.3l-.85.05-.4-.1-.05-.05q-.45-.25-.55-.85-.1-.65.35-1.1l.25-.15.4-.1.3-.05.85.1v-.05l.15-.7q.25-.65.8-.75h.1v.05l.2-.05h.25q.55.1.85.75l.1.7v.05l.9-.1.3.05q.35 0 .6.25.45.45.35 1.1t-.55.9l-.4.1-.9-.05h-.3l-.25.9-.7.5h-.1l-.15.05z"/><path fill="#fff" fill-rule="evenodd" d="M68.4 18.55q-.15-.8-.5-1.05l-.85-.1-1.1.1-.5.35-.75.75-.75.25q-.4-.1-.65-.5l-.1-.5-.4-.65-.65-.15q-.6.05-1.25.7-.6.5-.7.9-.3.65.1 1.1l.4.25 1 .45 1 .3.5.5.2.15.15-.15.55-.4q1.15-.45 1.95-.5l.75-.1 1.05-.65.35-.4zm-5.1 5.2q-.45.05-.8-.3l-.55-.65q-.3-.3-1-.55l-1.05-.4-1.1-.8-.6-.75-.1-.9.2-1.4.6-1.05q1.1-1.45 2.6-1.8l1.6.05 1.3.9.25.2.25-.1q.6-.5 2-.5 1.7.1 2.4.9l.55 1.2.15.8q0 1.25-1 2.25-.85.85-2.05 1.1l-1.55.2q-1 .1-1.4.7zM39 9.85l.2.05.15-.05h.1l.7-.5.25-.9h.3l.9.05.4-.1q.45-.25.55-.9t-.35-1.1q-.25-.25-.6-.25l-.3-.05-.9.1v-.05l-.1-.7q-.3-.65-.85-.75h-.25l-.2.05V4.7h-.1q-.55.1-.8.75l-.15.7v.05l-.85-.1-.3.05-.4.1-.25.15q-.45.45-.35 1.1.1.6.55.85l.05.05.4.1.85-.05h.3q.05.55.25.9l.7.5zm-1.55.8-4.55.65-1.75.15q-.75-.25-.85-1.05l.2-1.15q.7-2 1.65-3.1t2.65-1.9q1.5-.65 3.15-.9l1-.1h.4l1 .1 3.15.9q1.7.8 2.65 1.9t1.65 3.1l.2 1.15q-.1.8-.85 1.05l-1.75-.15-4.55-.65-1.9-.1zm12.75 5.8q.5 1.35-.65 2.4-.6.55-1.45.5-.9-.05-1.45-.6-.6-.6-.65-1.55 0-.9.55-1.55.5-.5.9-.6l1.65.1q.85.4 1.1 1.3M36.5 21q.35 0 .95-.4l.7-.55.7-.6.9.1.6.75q.35.5.85.65l1.05-.15.45-.55.2-.65-.05-1.05q0-.65.5-.8t.9.45q.65.85.35 2.2l-.6 1.55q-.8 1.1-2.4 1.2L40.4 23q-.8-.2-1.45-.95-1.45 1.1-2.3 1.15l-1-.1-.7-.25-.85-.65q-.55-.6-.6-1.2v-.7q.2-1.4.9-2.05.5-.4 1-.35l.45.3.05.5-.35.4-.35.65v.6q.1.3.65.5zm-4.8-4.1q.1.65-.2 1.3l-.9.95-1.2.25q-.65-.05-1.15-.55-.55-.45-.7-1.1t.1-1.3q.3-.65.85-1l1.3-.3q.7.05 1.2.5.55.55.7 1.25m-18.6 6.85-.7-.9q-.4-.6-1.4-.7l-1.55-.2q-1.2-.25-2.05-1.1-1-1-1-2.25l.15-.8q.2-.8.55-1.2.7-.8 2.4-.9 1.4 0 2 .5l.25.1.25-.2q.5-.65 1.3-.9l1.6-.05q1.5.35 2.6 1.8l.6 1.05.2 1.4-.1.9-.6.75-1.1.8-1.05.4-1 .55-.55.65zM8 18.55l.2.65.35.4 1.05.65.75.1 1.95.5.55.4.15.15.2-.15.5-.5 1-.3 1-.45.4-.25q.4-.45.1-1.1l-.7-.9q-.65-.65-1.25-.7-.35-.1-.65.15l-.4.65-.1.5-.65.5-.75-.25-.75-.75-.5-.35-1.1-.1-.85.1q-.35.25-.5 1.05"/></svg>