<svg xmlns="http://www.w3.org/2000/svg" xmlns:ffdec="https://www.free-decompiler.com/flash" ffdec:objectType="shape" width="77.1" height="42.75"><g fill-rule="evenodd"><path fill="#999" d="M8.65 25.85q3.1 1.5 5.35 2.05l4.15-.15.15-.5.5-.7.05-.15.35-.45.35-.85 1.25-1.8.15-.15.35-.65.75-.9.5-.75.55-.45.1-.05.25-.75q.4-.55 1-.65-.55 2.7 2 5.55.65.8 1.45 1.25l.25.15q-1.55 1.05-2.8 3.3l-.35.85-.3.15-1.15.2-2.25.75q-3.6 1.25-5.1 2.15-2.8 1.65-3.5 4.15-.25 1-.25 2.35 0 1.1.3 1.75l.05.1-.4.1-1.65.05-6.8-.25q-1.55.1-2.2-.45-.9-.8-.35-3.2.65-3.3.65-9.2l-.1-2.6-.45-2.05q-.15-.9.2-1.5-.45-1.8-.15-3.7l-.6-.5-.3-.9.05-.15-.05-.1v-1.15l-.2-.4-.1-1.55-.3-2.6V9.7q.1-3.05.55-4.5.15-.65.45-.95l.45-1.8q.4-1.1.85-1.55.6-.6 1.55-.6.75.05 1.35.65 1.6-.8 2.85-.8L9.3.3l1.35.15L13.6.9l1.6.4q.35-.25 1.1-.4l4.65-.3 3.2.05 1.7.2 1.1.15q.6-.3.95 0l.25.45-.1.1-.25.8-.55.45q-.4.35-1.05 1.5-1.2 2.4-1.25 3.9-.05 1 .35 2.7l.55 2.05-.25.35q-.35.5-1.15.5-.75-.1-1.05-.65l-.4-.7-.95-.55q-2.25-.7-4.05-.4l-1.65.75-.35.2q-.85.65-1.8.85h-1.15l-.9-.1-.45-.15q-.55-.25-.45-.8l.2-.3v-.1l.5-.3 1-.55 1.25-1.25.8-1.45.65-1.3.05-1.1-.15-1.15q-.4-.75-1.7-1.15l-2.35-.45-3.1-.3q-1.7.1-2.95.95l-.5.4q-.75 1.3-.7 2.85.05 1.7.95 3.05l1.55 2.05q.85 1.4.5 2.45l-1.2 1.6Q4.5 18 4.5 20.25q0 1.05.3 1.95l.6 1.2.7.85q.85.85 2.55 1.6M37.55.65l2.15-.1 1.45-.4L42.6.2l.65.7q.2.5 0 .95l-.65.9-.85.75-.75.85-1.8.3-2.65-.1q-1.25 0-1.7-.5l-.4-.6-.25-.65-.55-.9q-.3-.55-.2-.95.2-.7.95-.6l.15-.05.3.05.5-.05.65.2.55.3zm26 16.65q-.45.05-1.35.65-.85.55-1.35.5-.4 0-.85-.35l-1.4-1.85q-.85-1.2-1.75-1.45l-1.6.05q-.55.1-.75.3-.25.25-.25.85 0 1.3 1.3 3.3l3.4 4.55 1.65-.35 1.65-.25Q63.55 23 65.6 22l.75-.5.2-.85-.35-1.2-.7-.9-.4-.6-.7-.4zM67 15.65l1.45 1.7q.85 1.3 1.05 2.35.2 1.25-.25 2.75l-.7 1.35-1.3.8q-3.4 1.6-5.2 1.9l-2 .3-1.15.25q-.7.1-1.15-.35l-.3-.6-.25-.7-.7-.85-2.9-3.5q-1.75-2.4-1.95-4.4-.15-1.25.35-2.4.5-1.2 1.55-1.75l2.25-.5 2.05.2q1.3.4 2.65 2.2.4.6.8.6l.5-.2q1.2-.6 2.65-.35t2.55 1.2m-4.3-8.6.4.55q1.05.95 2.45 1.35h.55l.55-.4 1.3-.85q.3-.15.4-.5v-.45q-.3-1-1.3-1.35h-.25l-.1.2-.1 1.25q-.2.9-.85.8L65 7.1l-.5-.8q-.55-.5-1.95-.3 0 .75.15 1.05m4.45 4L66.3 11l-.65-.45-.75-.05-1.1-.4-1.55-.75-1.1-1.2-.25-.9V6.1q0-.65.15-.9.2-.55 1-.8l1.25-.1 1.7.2q.15-.6.8-.9l1.25-.25.85.1 1.45 1 .5.5.3.7.2.9.05 1.15-.2.8-.75.65-.7.65q-.65.4-.75.5l-.4.4zm-.7 14.8q1.7-.75 2.55-1.6l.7-.85.6-1.2.3-1.95q0-2.25-1.55-4.05l-1.2-1.6q-.35-1.05.5-2.45l1.55-2.05q.9-1.35.95-3.05.05-1.55-.7-2.85l-.5-.4q-1.25-.85-2.95-.95l-3.1.3-2.35.45q-1.3.4-1.7 1.15-.15.35-.15 1.15l.05 1.1.65 1.3.8 1.45L62.15 11l1 .55q.4.1.5.3v.1l.2.3q.1.55-.45.8l-.45.15-.9.1H60.9q-.95-.2-1.8-.85l-.35-.2-1.65-.75-4.05.4-.95.55-.4.7q-.3.55-1.05.65l-.5-.05v-.65l.15-3.95-.05-2.35-.35-1.7L49 2 48.45.95l.8-.1 1.7-.2 3.2-.05 4.65.3q.75.15 1.1.4l1.6-.4 2.95-.45L65.8.3 67 .15q1.25 0 2.85.8.6-.6 1.35-.65.95 0 1.55.6l.1-.25Q73.25.05 74 0q.8-.05 1.3.45l.5.85.3.95.8 1.45q.3.85.1 2.7l-.55 3.15-.6 1.65-.4 2.3.05 3.35.2 3.35.55 17.95q.1 2.1-.65 2.95-.5.55-1.25.65-.8.1-1.4-.35h-.05l-1.75.15-6.8.25-1.65-.05q-.8-.15-1.2-.6-.9.95-2.45.6l-1.35-.3-1.45.1-1.3-.15-2.45.4-2.4.3q-2.15.25-2.85-.4-.5-.4-.55-1.15-.05-.7.4-1.2l.5-.6-.15-.95q-.25-.7-.15-1l.05-.1q-.15-.4.1-.9l.65-.85.45-.85.2-.65.45-.8.2-1.25-.05-.95-.45-1.6-.6-.75-1.15-1.55q-.35-.6-.4-1.1l.8-.6q1.15-1.1 2.15-4l.35-1.5V19l.6-.05 1 .65.25.75.1.05.55.45.5.75.75.9.35.65.15.15 1.25 1.8.35.85.35.45.05.15.5.7.15.5 4.15.15q2.25-.55 5.35-2.05M8.1 15.65q1.1-.95 2.55-1.2t2.65.35l.5.2q.4 0 .8-.6 1.35-1.8 2.65-2.2l2.05-.2q1.45.1 2.25.5 1.05.55 1.55 1.75.5 1.15.35 2.4-.2 2-1.95 4.4l-2.9 3.5-.7.85-.25.7-.3.6q-.45.45-1.15.35l-1.15-.25-2-.3q-1.8-.3-5.2-1.9-.9-.4-1.3-.8t-.7-1.35q-.45-1.5-.25-2.75.2-1.05 1.05-2.35zm-.15-4.6-.45-.35-.4-.4-.75-.5-.7-.65Q5 8.75 4.9 8.5l-.2-.8.05-1.15.2-.9.3-.7.5-.5 1.45-1 .85-.1 1.25.25q.65.3.8.9l1.7-.2 1.25.1q.8.25 1 .8l.15.9v1.15l-.25.9q-.35.7-1.1 1.2l-1.55.75-1.1.4-.75.05-.65.45zm4.45-4L12.55 6q-1.4-.2-1.95.3l-.5.8-.75.55q-.65.1-.85-.8L8.4 5.6l-.1-.2h-.25q-1 .35-1.3 1.35v.45q.1.35.4.5l1.3.85.55.4h.55q1.4-.4 2.45-1.35zm-.85 10.25-.85.25-.7.4-.4.6-.7.9q-.35.6-.35 1.2l.2.85.75.5q2.05 1 3.35 1.25l1.65.25 1.65.35 3.4-4.55q1.3-2 1.3-3.3l-.25-.85q-.2-.2-.75-.3l-1.6-.05q-.9.25-1.75 1.45l-1.4 1.85-.85.35q-.5.05-1.35-.5-.9-.6-1.35-.65"/><path d="M49 14.6q.1 3.5-1.3 6-1.2 2.2-3.35 3.6l.1 1.5q0 .6.15.8l.65.4q1.8.7 2.45 2.55l.3 1.3.15 1.85q-.15 1.75-2.45 3.85.45.65.3 1.5-.1.85-.75 1.35-.8.65-2.75.55l-.85-.05-.15.25q-.6 1.15-1.25 1.45l-1.8.2-1.05-.2q-1.05.9-2.85.5-1.4-.4-1.9-1.2h-.15l-1.3.35-1.55.2q-1.25 0-1.8-.4l-.8-.8q-.4-.5-.45-.9-.15-.85.5-1.6L25.85 36l-.6-1.25q-2.25.7-3.45 1.4l-2.1 1.5.85-.15 1.7-.1q.9.05 1.7.5.8.5 1.05 1.3.4 1.4-.7 2.4-.9.9-2.35 1.05l-2.7-.3q-1.25-.1-2.7-.85l-1.05-.8q-.35-.5-.35-1.55 0-1.45.15-1.9l.75-1.3q1.4-1.8 4-3.1 1.55-.75 4.85-1.75l.65-.15q.15-.45.45-.85.85-1.2 2.05-1.85l1.05-.9.15-.8.3-1.05.55-1.15-1.4-1.05q-1.55-1.35-2.35-3.2-.8-1.95-.6-3.9.1-1.1.7-2.75l1.05-2.15.5-.65-.6-.95q-.15-.4-.15-1.35 0-1.25.15-1.85l.95-2 .4-1.1q.2-.7.5-1.1.45-.55 1.25-.7.7-.1 1.35.4l.8 1 1 1.9.75 1 6.8-.2.35-.35q1.15-.95 2.4-2.65.75-1.15 1.3-1.4.5-.2 1 0l.8.6.35 1.25.5 1.75.4 1.75.1 1.25.1.85-.05.75.1.7.1 1v.25q.35 1.4.35 3.15m-3.65-1.4h-1l-.3.05h-.15l-4.2.05-.35.1-.25.15-.15.15-.05.15-.1.15-.05.15v.4l.1.15.05.15.1.15.2.15.15.1.1.05.25.05 4.2.05.15.05.3.05h1l.4-.1.25-.15.15-.15.15-.15.1-.15.05-.15v-.15l.05-.1-.05-.15v-.15l-.05-.15-.05-.15-.1-.15-.15-.15-.15-.15-.2-.1h-.4zm-14.4 4.45q-.45 1.25.85 2.55 1.15 1.15 2.65 1.3 1.65.15 2.8-.9l.15-.15.15.15q1.15 1.05 2.8.9 1.5-.15 2.65-1.3 1.3-1.3.85-2.55-.3-.7-.85-.65-.35 0-.95.7-.8.9-1.45 1.1-1.05.3-1.6-.4l-.5-.85q-.4-.4-1-.35h-.2q-.6-.05-1 .35l-.5.85q-.55.7-1.6.4-.65-.2-1.45-1.1-.6-.7-.95-.7-.55-.05-.85.65m6.75 16.3.15-.35.3-.15 1.15-.15 1.15-.15q1.4-.3 2-1.8l.3-1.55q0-1-.35-1.6-.6-1.15-2.15-1.15-1.15.05-2.35.85l-.1.1-.65.5-1.05-1.1q-.8-.55-1.65-.5-.7 0-1.4.45L32 28.45q-.75 1.15-.45 2.45T33 32.95l1.75.6.55.05.4.4.6.5.85.05zM29.45 13.2v.05h-.4l-.2.1-.15.15-.15.15-.1.15-.05.15-.05.15v.15l-.05.15.05.1v.15l.05.15.1.15.15.15.15.15.25.15.4.1h1l.3-.05.15-.05 4.2-.05.25-.05.1-.05.15-.1.2-.15.1-.15.05-.15.1-.15v-.4L36 14l-.1-.15-.05-.15-.15-.15-.25-.15-.35-.1-4.2-.05h-.15l-.3-.05h-1"/><path fill="#fff" d="M45.35 13.2v.05h.4l.2.1.15.15.15.15.1.15.05.15.05.15v.15l.05.15-.05.1v.15l-.05.15-.1.15-.15.15-.15.15-.25.15-.4.1h-1l-.3-.05-.15-.05-4.2-.05-.25-.05-.1-.05-.15-.1L39 15l-.1-.15-.05-.15-.1-.15v-.4l.05-.15.1-.15.05-.15.15-.15.25-.15.35-.1 4.2-.05h.15l.3-.05h1m-14.4 4.45q.3-.7.85-.65.35 0 .95.7.8.9 1.45 1.1 1.05.3 1.6-.4l.5-.85q.4-.4 1-.35h.2q.6-.05 1 .35l.5.85q.55.7 1.6.4.65-.2 1.45-1.1.6-.7.95-.7.55-.05.85.65.45 1.25-.85 2.55-1.15 1.15-2.65 1.3-1.65.15-2.8-.9l-.15-.15-.15.15q-1.15 1.05-2.8.9-1.5-.15-2.65-1.3-1.3-1.3-.85-2.55m-1.5-4.45h1l.3.05h.15l4.2.05.35.1.25.15.15.15.05.15.1.15.05.15v.4l-.1.15-.05.15-.1.15-.2.15-.15.1-.1.05-.25.05-4.2.05-.15.05-.3.05h-1l-.4-.1-.25-.15-.15-.15-.15-.15-.1-.15-.05-.15v-.15l-.05-.1.05-.15v-.15l.05-.15.05-.15.1-.15.15-.15.15-.15.2-.1h.4z"/><path fill="#999" d="m37.7 33.95-.55.6-.85-.05-.6-.5-.4-.4-.55-.05-1.75-.6q-1.15-.75-1.45-2.05t.45-2.45l1.05-1.1q.7-.45 1.4-.45.85-.05 1.65.5l1.05 1.1.65-.5.1-.1q1.2-.8 2.35-.85 1.55 0 2.15 1.15.35.6.35 1.6l-.3 1.55q-.6 1.5-2 1.8l-1.15.15-1.15.15-.3.15z"/></g></svg>