<svg xmlns="http://www.w3.org/2000/svg" xmlns:ffdec="https://www.free-decompiler.com/flash" ffdec:objectType="shape" width="75.6" height="41.35"><g fill-rule="evenodd"><path d="m70.95 6.1.5.7q.7.6 1.55.25l.8-.7.15-1.05-.6-.9q-.45-.35-1-.3t-1 .45q-.4.4-.45.95zm-19.3-3.9q.15.6.65.95l1.15.35q.65-.05 1.1-.5l.5-1.05q.05-.65-.3-1.15l-1-.65-1.15.1q-.8.4-.95 1.2zM67.6 19l.45.05.55.05h.45l.4.1 1.25.05q.7-.15 1-.7l.25-.45.1-.35q.1-.5-.15-.95-.45-1.2-1.7-1.3h-.65l-1.5.3q-.6.2-1.3.8l-.8 1-.3.5.05.6.45.4.3.1zM25.4 37.9q3 1.25 5.2 1.7l5.4.6q10.6.4 15.85-3.9 2.75-2.25 4.25-5.75l-.15-.1q-.9-.65-.8-2.05.1-1.45 1.1-2.45l1.2-.65q.3-2.75-.05-5.7-.35-2.6-1-4.1l-.25-.6 3.6-9.05.2-.8q.2-1.15-.4-1.8-.55-.6-1.65-.45-.05 1.05-.8 1.95l-.95.9-.5.25-.55.15-.95-.05-1.1-.35q-.45-.2-.8-.75l-2.35.95-1.05.5Q47.2 5.1 45.6 4.4l-1.8-.65Q41.15 2.95 38 3l-2.8.2q-3.4.45-6.25 1.8l-.2.55-1.4 1.4q-.9.55-1.85.5l-.95-.15-.6-.25-.85-.85q-.35-.5-.35-1.2l.2-1-1.65-.7-2.15-.75-1.2-.1-.45.15-.35.25-.4.5-.2 1.2.35 2.35.25.95L18 11l.25.5.4 1.6.5 1.1v.1l.05.1.15.55q-2.15 4.8-2.15 10.2l.05 1.45-.25-.05q-.85 0-1.7.6-.8.65-1 1.5l-.05.55q-.05.8.45 1.65l1.25 1.05.85.2h.55l.75-.2.25-.15.05.1h.05l.8.1.15.1q1 .25 1.65 1.05.7.9.7 1.8l-.2.9q1.5 1.1 3.85 2.1m46.15-15.35q-.05.45.2 1.05l.85.7q.6.2 1.15 0l.85-.7q.3-.55.2-1.1t-.6-.95q-.45-.4-1.05-.4-.55 0-1 .4-.5.4-.6 1m-7.45.2q-.5.55-.45 1.35.05.85.55 1.35t1.35.55l1.35-.45q.55-.5.65-1.3.05-.8-.35-1.4-.55-.8-1.55-.8t-1.55.7m-5.6-6.9q.1 1.35 1.1 2.05l.75.35 2.15.2q1.25-.3 1.65-1.2l.3-.65.1-.55q.15-.8-.15-1.55-.3-.8-.95-1.3-.7-.5-1.55-.55-.9-.05-1.6.4l-.6.45-.5.5q-.6.85-.7 1.85m-7.7 3 .6.85.25 1.3q0 1.7-.55 2.4l-.45.55-1.95 1.35-1.5.05q-1.6-.3-2.65-1.35l-.85-1.15q-.6-1.25 0-2.7.65-1.3 1.95-1.95 1.1-.55 2.65-.55l1.5.35zm6.85 9.25q-.05.55.25 1.1l.85.75q1.25.6 2.15-.3l.6-.95q.2-.65-.05-1.15-.2-.65-.85-1-.6-.4-1.25-.3t-1.15.65q-.5.5-.55 1.2m.85 4.7.2.5-.05.3-.5 1.3q-.4.8-.45 1.2-.15 1.05.65 1.7.75.75 1.8.4 1.15-.3 1.6-1.75.3-.9.15-2.2l-.3-1.1-.85-1.3-.95-.6q-.85-.2-1.25.25-.45.5-.05 1.3m-33-31.2-.8.75q-.3.5-.25 1 0 1.15 1.15 1.7 1.15.4 2.05-.4.5-.45.55-1.15.1-.75-.3-1.3l-1.1-.75zm43.55 34.25-.1-.6-.3-.75q-.4-.65-1.3-.9l-1.55-.2-.5.05q-1.25.35-1.55 1.55l-.1.95.05.45q.1.65.55 1.1l.75.55.55.25.6.05 1.35-.1q1.1-.4 1.45-1.6zm-45.2-15.5q1.05-1.45 3.2-1.9l1.1-.05q2 .1 3.1 1.75 1.15 1.65.5 3.55-.65 1.85-2.55 2.5l-1.75.25-1.3-.05q-1.3-.25-2.15-1.25-.85-1.05-.95-2.3-.1-1.4.8-2.5M11.4 9.05l-.25-.25-.5-.2-2.4-.45h-.7Q6.45 8.4 6.1 9.4q-.4 1.05.35 1.9.65.85 1.8.65l1.2-.25h.95l.7.2.55.45.85.05.55-.55q.15-.35-.1-.75l-.2-.3-.1-.3q-.15-.65-.6-1zm-3.3 25.3q.25.55.8.8l1.15.05.9-.7.25-1.1-.55-1q-.5-.45-1.05-.45-.6 0-1.1.4-.45.45-.55 1t.15 1m7.75-15.6-.15-1.05q-.4-1.15-1.5-1.55L12.6 16l-.7.1q-.65.2-1.1.85-.4.5-.65 1.3l-.1.6q-.05.7.35 1.35.35.65 1.05.9l1.6.2.9-.05q1-.2 1.6-1.25l.15-.45zM5.8 24.7q-.5.6-.45 1.4 0 .85.5 1.4t1.3.65l1.45-.25q.6-.4.85-1.2t-.05-1.45Q9 24.4 8.2 24.1l-1.3-.05q-.7.15-1.1.65m7.5 10.35-.6.4-.2.25-.3.3-.35.45-.4.6-.35 1.15.05.25q.15 1.1 1.25 1.35t1.7-.7l.3-.6.7-2 .25-.55.55-.75q.2-.45-.1-.8-.25-.45-.85-.25zm3.4.45q-.35.45-.25 1.05t.5 1 1.05.4l1.05-.35.55-.95q.1-.6-.2-1.1-.5-.9-1.55-.8-.8.2-1.15.75M0 0h75.6v41.35H0z"/><path fill="#999" d="M51.65 2.2v-.75q.15-.8.95-1.2l1.15-.1 1 .65q.35.5.3 1.15L54.55 3q-.45.45-1.1.5l-1.15-.35q-.5-.35-.65-.95m19.3 3.9-.05-.6q.05-.55.45-.95.45-.4 1-.45t1 .3l.6.9-.15 1.05-.8.7q-.85.35-1.55-.25zM58.5 15.85q.1-1 .7-1.85l.5-.5.6-.45q.7-.45 1.6-.4.85.05 1.55.55.65.5.95 1.3.3.75.15 1.55l-.1.55-.3.65q-.4.9-1.65 1.2l-2.15-.2-.75-.35q-1-.7-1.1-2.05m5.6 6.9q.55-.7 1.55-.7t1.55.8q.4.6.35 1.4-.1.8-.65 1.3l-1.35.45q-.85-.05-1.35-.55t-.55-1.35q-.05-.8.45-1.35m7.45-.2q.1-.6.6-1 .45-.4 1-.4.6 0 1.05.4.5.4.6.95t-.2 1.1l-.85.7q-.55.2-1.15 0l-.85-.7q-.25-.6-.2-1.05M25.4 37.9q-2.35-1-3.85-2.1l.2-.9q0-.9-.7-1.8-.65-.8-1.65-1.05l-.15-.1-.8-.1h-.05l-.05-.1-.25.15-.75.2h-.55l-.85-.2-1.25-1.05q-.5-.85-.45-1.65l.05-.55q.2-.85 1-1.5.85-.6 1.7-.6l.25.05-.05-1.45q0-5.4 2.15-10.2l-.15-.55-.05-.1v-.1l-.5-1.1-.4-1.6L18 11l-.85-3.15-.25-.95-.35-2.35.2-1.2.4-.5.35-.25.45-.15 1.2.1 2.15.75 1.65.7-.2 1q0 .7.35 1.2l.85.85.6.25.95.15q.95.05 1.85-.5l1.4-1.4.2-.55q2.85-1.35 6.25-1.8L38 3q3.15-.05 5.8.75l1.8.65q1.6.7 3.25 1.95l1.05-.5 2.35-.95q.35.55.8.75l1.1.35.95.05.55-.15.5-.25.95-.9q.75-.9.8-1.95 1.1-.15 1.65.45.6.65.4 1.8l-.2.8-3.6 9.05.25.6q.65 1.5 1 4.1.35 2.95.05 5.7l-1.2.65q-1 1-1.1 2.45-.1 1.4.8 2.05l.15.1q-1.5 3.5-4.25 5.75Q46.6 40.6 36 40.2l-5.4-.6q-2.2-.45-5.2-1.7M46.6 9.1l-3.55-1.25Q39.9 7 37.8 6.9q-6.2-.35-11.9 3.45-2.1 1.4-3.45 3-1.05 1.35-1.85 3-1.75 3.3-1.9 6.35-.05 2.75 1.35 5.3 1.35 2.55 3.7 4.05l2.2 1.1q-.3.7-.25 1.3l.5 1.75.25.55q.5.75 1.35 1l.85.1q1.2 0 1.75-.45l.6-.6q.75-.9.9-1.6l.15-.75 1.4.15q-.15.65-.15 1.4v.6q.15 1.4 1.6 2.1l2.75-.1.45-.3q.85-.55 1.2-1.8l.15-1.65 1.3-.05.05.45.25 1q.4 1.25 1.55 1.8l2.35-.1.65-.5.5-.75.25-.5.3-.9.1-1.3v-.5l2.15-1.05q4.35-2.5 5.4-6.4.5-1.75.35-4.15-.1-2.1-.55-3.75-.75-2.9-2.75-5.35-2-2.4-4.75-3.7m11.05 19q.05-.7.55-1.2.5-.55 1.15-.65t1.25.3q.65.35.85 1 .25.5.05 1.15l-.6.95q-.9.9-2.15.3l-.85-.75q-.3-.55-.25-1.1m11.4 7.75-.1.8q-.35 1.2-1.45 1.6l-1.35.1-.6-.05-.55-.25-.75-.55q-.45-.45-.55-1.1l-.05-.45.1-.95q.3-1.2 1.55-1.55l.5-.05 1.55.2q.9.25 1.3.9l.3.75zM25.5 1.6l1.3-.15 1.1.75q.4.55.3 1.3-.05.7-.55 1.15-.9.8-2.05.4-1.15-.55-1.15-1.7-.05-.5.25-1zM5.8 24.7q.4-.5 1.1-.65l1.3.05q.8.3 1.2 1.15.3.65.05 1.45t-.85 1.2l-1.45.25q-.8-.1-1.3-.65t-.5-1.4q-.05-.8.45-1.4m10.05-5.95-.15.8-.15.45q-.6 1.05-1.6 1.25l-.9.05-1.6-.2q-.7-.25-1.05-.9-.4-.65-.35-1.35l.1-.6q.25-.8.65-1.3.45-.65 1.1-.85l.7-.1 1.6.15q1.1.4 1.5 1.55zM8.1 34.35q-.25-.45-.15-1t.55-1q.5-.4 1.1-.4.55 0 1.05.45l.55 1-.25 1.1-.9.7-1.15-.05q-.55-.25-.8-.8m8.6 1.15q.35-.55 1.15-.75 1.05-.1 1.55.8.3.5.2 1.1l-.55.95-1.05.35q-.65 0-1.05-.4t-.5-1 .25-1.05"/><path fill="#fff" d="m67.6 19-1.15.2-.3-.1-.45-.4-.05-.6.3-.5.8-1q.7-.6 1.3-.8l1.5-.3h.65q1.25.1 1.7 1.3.25.45.15.95l-.1.35-.25.45q-.3.55-1 .7l-1.25-.05-.4-.1h-.45l-.55-.05zm-21-9.9q2.75 1.3 4.75 3.7 2 2.45 2.75 5.35.45 1.65.55 3.75.15 2.4-.35 4.15-1.05 3.9-5.4 6.4l-2.15 1.05v.5l-.1 1.3-.3.9-.25.5-.5.75-.65.5-2.35.1q-1.15-.55-1.55-1.8l-.25-1-.05-.45-1.3.05-.15 1.65q-.35 1.25-1.2 1.8l-.45.3-2.75.1q-1.45-.7-1.6-2.1V36q0-.75.15-1.4l-1.4-.15-.15.75q-.15.7-.9 1.6l-.6.6q-.55.45-1.75.45l-.85-.1q-.85-.25-1.35-1l-.25-.55-.5-1.75q-.05-.6.25-1.3l-2.2-1.1q-2.35-1.5-3.7-4.05-1.4-2.55-1.35-5.3.15-3.05 1.9-6.35.8-1.65 1.85-3 1.35-1.6 3.45-3 5.7-3.8 11.9-3.45 2.1.1 5.25.95zm4.2 9.75-1-.85-1.5-.35q-1.55 0-2.65.55-1.3.65-1.95 1.95-.6 1.45 0 2.7l.85 1.15q1.05 1.05 2.65 1.35l1.5-.05 1.95-1.35.45-.55q.55-.7.55-2.4l-.25-1.3zm7.7 13.95q-.4-.8.05-1.3.4-.45 1.25-.25l.95.6.85 1.3.3 1.1q.15 1.3-.15 2.2-.45 1.45-1.6 1.75-1.05.35-1.8-.4-.8-.65-.65-1.7.05-.4.45-1.2l.5-1.3.05-.3zM23.85 20.35q-.9 1.1-.8 2.5.1 1.25.95 2.3.85 1 2.15 1.25l1.3.05 1.75-.25q1.9-.65 2.55-2.5.65-1.9-.5-3.55-1.1-1.65-3.1-1.75l-1.1.05q-2.15.45-3.2 1.9M11.4 9.05l.65.45q.45.35.6 1l.1.3.2.3q.25.4.1.75l-.55.55-.85-.05-.55-.45-.7-.2h-.95l-1.2.25q-1.15.2-1.8-.65-.75-.85-.35-1.9.35-1 1.45-1.25h.7l2.4.45.5.2zm1.9 26 1.65-.9q.6-.2.85.25.3.35.1.8l-.55.75-.25.55-.7 2-.3.6q-.6.95-1.7.7t-1.25-1.35l-.05-.25.35-1.15.4-.6.35-.45.3-.3.2-.25z"/></g></svg>