<svg xmlns="http://www.w3.org/2000/svg" xmlns:ffdec="https://www.free-decompiler.com/flash" ffdec:objectType="shape" width="32.4" height="34.25"><g fill-rule="evenodd"><path d="M6 27.4Q3.55 25.7 1.95 23t-1.9-5.65q-.3-3 .7-5.95T3.8 6.25q1.7-1.8 5.1-3.75 2.65-1.45 4.6-1.95 5-1.4 10.5.75 3.1 1.2 4.9 3.15 2 2.2 3 6.4.9 4.2.1 7.6-.45 1.85-1.45 3.75-1.65 3.35-3.75 5.05l.05.3v2.05q-.25 1.3-1.6 2.35l-.9.55-1.3.25-1.3-.1q-.75-.15-1.3-.55l-.7.95-1.15.9-1.95.3q-2.35 0-3.35-.55l-1.25-.95-.15-.2-1 .5-1.5.1-.95-.05q-.8-.2-1.5-.9l-1-1.5-.15-.5-.05-.65q.05-1.05.5-2zm6.05-6.35.05-.15-.2-.1-1.6-1.25q-2.55-2.3-3.75-4.25l-1.8 1.15-.5.55q-.5.7-.8 2.1l-.05 1.2q.1 1.15.9 2.1.75.95 1.85 1.35l1.7.35q1.5 0 2.65-.85 1.15-.75 1.55-2.2M22.7 23.8l2.05.35 1.25-.5q1.35-.7 2.15-1.9.85-1.45.55-2.8l-.65-1.6-.5-.65-.55-.5-.8-.5-1.1-.25q-1.05 1.9-2.65 3.65-1.1 1.2-2.1 1.7l-.45.2.1.7q.4.85 1.15 1.3z"/><path fill="#fff" d="m22.7 23.8-1.55-.8q-.75-.45-1.15-1.3l-.1-.7.45-.2q1-.5 2.1-1.7 1.6-1.75 2.65-3.65l1.1.25.8.5.55.5.5.65.65 1.6q.3 1.35-.55 2.8-.8 1.2-2.15 1.9l-1.25.5zm-10.65-2.75q-.4 1.45-1.55 2.2-1.15.85-2.65.85l-1.7-.35q-1.1-.4-1.85-1.35-.8-.95-.9-2.1l.05-1.2q.3-1.4.8-2.1l.5-.55 1.8-1.15q1.2 1.95 3.75 4.25l1.6 1.25.2.1z"/></g></svg>