<svg xmlns="http://www.w3.org/2000/svg" xmlns:ffdec="https://www.free-decompiler.com/flash" ffdec:objectType="shape" width="75.75" height="41.4"><g fill-rule="evenodd"><path fill="#767676" d="m59.6 19.95.95-.15q.15-.4.45-.65.4-.4 1.1-.5 1.1-.2 1.8.35.5.45.7 1.2l.1 1.1-.35.8q.5-.35 1.1-.55l.7-.15h.1q-1.4-2.45-1.05-4.75.1-.6.35-.85.15-.5.7-.55l.15-.05h.2l.2-.1v-.05L67 15l-1.35-.85q-.25.5-1 .6l-.85-.15-.85-.65q-.35-.6-.15-1.4.15-.55.45-.85l.55-.3.15-.65.35-.65.35-.3 1-.1q.45.1.75.4l.45.65q.4.9.2 1.55l-.05.2.15.2 1.05 1.05.05-.3v-.05l-.35-.55q-.05-.4.3-.8l.5-.3q.1-.4.5-.85l.35-.4 1.25-1.05.8-.35.9.15.2.6h.05l.2.25.05-.05-.3-1.7-.2-.1q-.65-.15-1.15-1.1l-.25-.7.1-.85q.2-.5.7-.7l.4-.2.7.2q.4.05.7.25l.55-.3.95.1.55.3V7.9l-.95.3-.1 1.6.15-.1h.05l.35-.25.1-.1.4-.25v29.5l-.85 1.1q-1 .65-2.1.25-1.1-.3-1.45-1.5-1.1-.25-1.7-1.15-.55-.95-.4-2l.1-.65-.15-.8q-.15-.6.1-1.2l-4.7-.15-4-.65q-.85-.4-1.2-1t-.15-1.75l.1-.7q.3-1.05.75-1.9l.7-1q.55-.45 1.05-.3.45.15.65.5h.05l.15.05v-.05l-.05-.35-1.1-1.35h-.35q-.8.25-1.9-.45l-.75-.6q-.4-.45-.45-1.05-.05-.65.25-1.2l.45-.5zm6.3-13.2.2.2.7.15.7.15q.65.25.95 1.3l.05.75-.25.3-.35-.05-.25-.65q-.15-.55-.65-.65l-.75-.05q-.9 0-1.45-.7t-.2-1.55l.25-.65-.05-.35.25-.4.55-.05q.4.2.5.9.1.45-.15.9zm-5.85 5.8q-.35-.45-.3-.95 0-.6.6-.7l.25.85q.95.3 1.2 1.4.2 1.05-.65 1.7l-.5.6q-.15.35.25.85l.85.65q-.2.45-.7.25l-.6-.55-.6-1.2q-.2-.7.2-1.25l.5-.8zm-42.15 2.4.8.25.45.5q.3.55.25 1.2-.05.6-.45 1.05l-.75.6q-1.1.7-1.9.45h-.35l-1.4 1.7v.05l.4-.05H15l.65-.5q.5-.15 1.05.3l.55.75.3-.4.5-.45q.85-.75 1.65-1.1l2-.05.75.55q.3.45.15.95l-.45.65-.1.25-.8 1.9-.2.7q-.35.8-1.1 1.45l-.7.4q-.6.25-1.3 0l-1.05.75q-1.1.5-4 .65l-.65.05-1.5 1.35-.8.4q-.55.25-.8.5l-.95 1.05L2.9 38l-1.5 1.45-1.4.4v-13.1l.7-1.9-.7-.25v-3.9l.15-.2.1-.1-.25-.3v-6.9l.25.5.1-.2H.4l.1-.2.05-.2.05-.15q.1-.5.55-.7l.9-.2q.55-.45 1.15-.75l.95-.3q.5-.05.85.3l.1.1.35.25h.05l.15.1-.1-1.6q-.6.05-1.1-.45-.25-.3-.35-.8-.15-.55 0-1.05.25-.65 1.05-.95l.95-.1.55.3q.3-.2.7-.25l.7-.2.4.2.7.7.1.85-.25.7q-.5.95-1.15 1.1l-.2.1-.3 1.7.05.05.2-.25h.05l.2-.6.9-.15q.4.1.8.35l1.25 1.05.35.4q.6.7.6 1.25t-.4 1.1q-.5.75-2.15 1.8l.05.3 1.15-.05 1.2.3q.6.25.75.85l.1.2.05.25.1.25.1.05.1.25.9-1.9q-.7-.3-.9-1.2-.1-.5.1-1.1.2-.75.7-1.2.7-.55 1.8-.35.7.1 1.1.5l.45.65zm-6.25-9.4q.5-.65.4-1.3l-.1-.85q0-.65.5-.55.4 0 .5.65l.15.8-.35 1.1-.95 1.05q-.55.55-.5.8l.15.4q.1.3-.15.3l-.2-.05q-.65-.6-.3-1.4zm5.8 7.65q-.3.05-.4-.4-.1-.5.1-1l.7-.7.85-.35.45-.8V9.3q.1-.35.5-.45.4 0 .6.3l.05.5q0 .8-.4 1.45-.45.7-1.25.85-.6.1-.7.25-.15.15-.15.55zM6.3 1.3Q6.1.75 6.25.45q.2-.55.7-.45l.75.75.25.75-.35 1.55-1 1.15q.25.45.15 1l.15.2-.15.2-.5-.1L6 5.05q-.3-.9-.2-1.45l.5-.85q.4-.5.25-.9zm-6.05 10-.25.6V10l.2.45q.1.45.05.85"/><path d="m31.8 2.9 4.35-.5 2 .05 1.5-.05 4.35.5q1.65.45 3.2 1.35l1.8-.3 3.65.25 1.5.4q.8.45.9 1.3v1l-.5 3.25-.4 1.3 1.25 2.9q1.1 3.65-.3 6.25h.1q6.4 1.8 11.65 6.9Q71.4 32 74.6 38.55q.55.95.7 1.8v1.05H.55L.5 40.35q.15-.85.65-1.8Q4.35 32 8.9 27.5q5.25-5.1 11.7-6.9h.1q-1.4-2.6-.35-6.25.45-1.45 1.25-2.9l-.4-1.3-.45-3.25v-1q.1-.85.85-1.3l1.5-.4 3.7-.25 1.8.3q1.55-.9 3.2-1.35m11.6 6.25q-.25.4-.1.8.15.45.55.6.35.2 1.1 0l1.05-.4q1-.15 1.75.35l.65.5.7.25.5-.3.15-.55-.6-.8-1.45-1.05-2.8-.1q-1.2.2-1.5.7M25.45 31l.8-.7.7-.3 1.65-.4h1l1.6.4 3.5 2.1-2.35 1.8-2.45 1.4q-1.5.75-3.2.55l-.95-.25q-.65-.4-1.25-1.6-.3-.8-.2-1.15l.2-.45zm11.4-16.8.9-.6.9.6 1.3.65.45.2v.55l-.05.45-1-.25q-.75 0-1.4.3l-.85-.65-1.65.05-.05.05v-.65l.15-.05zM32.1 9.15q-.3-.5-1.5-.7l-2.8.1q-.55.25-1.45 1.05-.55.45-.6.8l.15.55q.2.25.5.3l.7-.25.65-.5q.75-.5 1.75-.35l1.05.4q.75.2 1.1 0l.55-.6q.15-.4-.1-.8m16.55 24.4-.85.7-.7.35-1.65.4h-1l-1.6-.4-3.45-2.2 2.35-1.7q1.55-1.05 2.4-1.4 1.55-.75 3.25-.55l.95.25q.65.4 1.25 1.55l.15 1.15-.15.4zm-10.9-4.25-.65.4q-2.55-2.25-4.75-3-3.4-1.25-6.5-.05-3.35 1.35-4.4 4.4-.5 1.65-.15 3.3.35 1.7 1.55 2.95 1.3 1.35 3.35 1.75 1.9.45 3.75-.05 2.75-.75 6.4-3.7l.65-.4q2.5 2.25 4.75 3 3.35 1.25 6.5.05 3.35-1.4 4.4-4.4.45-1.65.1-3.3-.35-1.8-1.5-2.95-1.3-1.35-3.35-1.85-1.9-.4-3.8.05-2.7.85-6.35 3.8M29.9 14.55q1.7 1.15 3.85.8l-.05.75q-.1.55.05.95l.4.8.1.1-.35 1.4v.7l.2.85.15.4.4.45 1.35.95 2.2.15q1-.35 1.8-1.55l.3-.6.2-.85v-.65l.6-.4.55-.45.35-.6.45-1.15v-.95l.05-.2q1.65.05 3.1-.9l.45-.35.6-.75.05-.5-.1-.35-.3-.2-1.2.6-.9.3-2-.05-1.5-.55-1.65-1.1-.5-.45-.25-.2-.2-.15h-.7l-.2.15q-.1.05-.25.2l-.5.45-1.65 1.1-1.5.55-2 .05-.9-.3-1.2-.6q-.2 0-.3.2l-.1.35.05.5.6.75z"/><path fill="#fff" d="M43.4 9.15q.3-.5 1.5-.7l2.8.1 1.45 1.05.6.8-.15.55-.5.3-.7-.25-.65-.5Q47 10 46 10.15l-1.05.4q-.75.2-1.1 0-.4-.15-.55-.6-.15-.4.1-.8m-13.5 5.4-.45-.35-.6-.75-.05-.5.1-.35q.1-.2.3-.2l1.2.6.9.3 2-.05 1.5-.55 1.65-1.1.5-.45q.15-.15.25-.2l.2-.15h.7l.2.15.25.2.5.45 1.65 1.1 1.5.55 2 .05.9-.3 1.2-.6.3.2.1.35-.05.5-.6.75-.45.35q-1.45.95-3.1.9l-.05.2v.95L42 17.75l-.35.6-.55.45-.6.4v.65l-.2.85-.3.6q-.8 1.2-1.8 1.55L36 22.7l-1.35-.95-.4-.45-.15-.4-.2-.85v-.7l.35-1.4-.1-.1-.4-.8q-.15-.4-.05-.95l.05-.75q-2.15.35-3.85-.8m7.85 14.75q3.65-2.95 6.35-3.8 1.9-.45 3.8-.05 2.05.5 3.35 1.85 1.15 1.15 1.5 2.95.35 1.65-.1 3.3-1.05 3-4.4 4.4-3.15 1.2-6.5-.05-2.25-.75-4.75-3l-.65.4q-3.65 2.95-6.4 3.7-1.85.5-3.75.05-2.05-.4-3.35-1.75-1.2-1.25-1.55-2.95-.35-1.65.15-3.3 1.05-3.05 4.4-4.4 3.1-1.2 6.5.05 2.2.75 4.75 3zm10.9 4.25.95-1.45.15-.4-.15-1.15Q49 29.4 48.35 29l-.95-.25q-1.7-.2-3.25.55-.85.35-2.4 1.4l-2.35 1.7 3.45 2.2 1.6.4h1l1.65-.4.7-.35zM32.1 9.15q.25.4.1.8l-.55.6q-.35.2-1.1 0l-1.05-.4q-1-.15-1.75.35l-.65.5-.7.25q-.3-.05-.5-.3l-.15-.55q.05-.35.6-.8.9-.8 1.45-1.05l2.8-.1q1.2.2 1.5.7m4.75 5.05-1.3.65-.15.05v.65l.05-.05 1.65-.05.85.65q.65-.3 1.4-.3l1 .25.05-.45v-.55l-.45-.2-1.3-.65-.9-.6zM25.45 31l-.95 1.4-.2.45q-.1.35.2 1.15.6 1.2 1.25 1.6l.95.25q1.7.2 3.2-.55l2.45-1.4 2.35-1.8-3.5-2.1-1.6-.4h-1l-1.65.4-.7.3z"/></g></svg>