<svg xmlns="http://www.w3.org/2000/svg" xmlns:ffdec="https://www.free-decompiler.com/flash" ffdec:objectType="shape" width="76.15" height="40"><g fill-rule="evenodd"><path d="m48.15 29.5-.4.55q-1.1 1.1-2.55.6l-.15-.05 1.1 3.5.25.55.85.1 1.6.25q.8.4 1.2 1.3.45.85.25 1.7t-.95 1.45-1.6.55l-1.1-.15-1.05-.3-1.6-.25q-.9-.2-1.3-.7-.5-.55-.6-2l-.65-3.8-.25-1-.95.15-3.55.3h-.3q-2.3 1.85-5.45 2.45l-.15.05-.3 1.85q-.1 1.45-.6 2l-1.3.7-1.6.25-1.05.3-1.1.15q-.85.05-1.6-.55T22.3 38t.25-1.7q.4-.9 1.2-1.3l1.6-.25.85-.1h.05l-1.8-.55-1.45-.55-1.45-.35q-1.7-.1-2.8 1.25L18 35.7l-.85 1.15q-.5.5-1.3.6l-1.4-.25q-.65-.35-1-1-.3-.7-.25-1.45.2-1.2 1.75-2.5 1.9-1.5 4.05-2.15 2.4-.65 4.45-.05l2.8 1.05 1.05.25.25-.75-.15.05q-1.45.5-2.55-.6l-.35-.45q-.6-.95-.15-2.1.25-.7.75-1.1t1.25-.55l-.45-1.7-.35-1.05q-.15-.7-.05-1.6l.25-1.1q.45-.85 1.4-1.5 1.1-.7 2.4-.85l1.2-.2.15-.05q-1.3-.9-2-2.05-1.2-1.9-1.05-4.3l-1.05-.5q-1.2-.8-1.5-1.45l-.25-1q.05-.6.45-.95l.5-.35.75-.35q1.65-.9 4.1-1.45 1.7-1.35 3.55-1.6l.4-.05.7-.05 3.25.05.6.1.2-.1.65-.3 1-.3.85-.05.15-.05 1-.1q.5.05.85.4l.3.4.1.45-.05.85-.25 1.15-.3 1.55.75 2.55q.6 3.1-.9 5.45-.7 1.15-2 2.05l.15.05 1.2.2q1.3.15 2.4.85.95.65 1.4 1.5l.25 1.1-.05 1.6-.35 1.05q-.3.8-.45 1.7.85.15 1.4.65l.6 1q.4 1.05-.1 2m-4.55-7.85-1.8-.85 1.1 3.05zm-14.6 0 .7 2.2 1.1-3.05z"/><path fill="#717171" d="M24.5 29.6H13.25l-.85-.05h-1.8l-1-.05H8.2l-.5-.05H3.1l-.95.05-.15.05h-.05l-.05.05h-.7l-.15-.05-.15-.05-.15-.1-.05-.05-.1-.05-.1-.1-.05-.05-.05-.05-.05-.05-.05-.1-.05-.05-.05-.05v-.05l-.05-.1-.05-.05v-.2l-.05-.05v-.25L0 28.1v-.05l.05-.1v-.25l.05-.05v-.2l.05-.05.05-.05v-.05l.05-.1.1-.1.05-.05.05-.1.05-.05.1-.05.05-.05H.7l-.05-.05-.05-.1v-.15l-.05-.1v-.15l-.05-.1V23.3l.05-.1v-1.3l.05-.05V4.25l.05-.05v-.7l.05-.05v-.5l.05-.1v-.3L.8 2.5v-.15l.05-.05v-.2l.05-.05L.95 2v-.05l.05-.1V1.7l.05-.1v-.1l.05-.1v-.1l.05-.05.05-.1.05-.05.05-.05.05-.05V.9l.1-.05L1.5.8l.05-.05.05-.1.1-.05.05-.05.1-.05L2 .4l.15-.05.1-.05h.1l.1-.05h.35L2.95.2h.25l.35-.05H5.5L7.55.1H13l4.55-.05H52.2L54.25 0H70.6l.9.05h.5l.25.05h.2l.2.05h.25l.1.05h.1l.1.05h.3l.2.05h.15l.25.05h.15l.1.05h.15l.2.05h.15l.1.05.15.05.15.1.1.05.05.05.1.05.05.05.05.05.05.05.1.1v.05l.05.05.05.05.05.1.05.05v.05l.05.05v.1l.05.05v.05l.05.05v.1l.05.05v.7l-.05.05v.05l-.05.05v.2l.05.05v.35l.05.05v.3l-.05.1v1.6l.05.05v1.1l-.05.05v1.8l.05.1V23.2l-.05.05v1.25l-.05.1v.8l-.05.05V26l-.05.1v.3l-.05.05v.45l-.05.05v.35l-.05.05v.7l-.05.05v.1l-.05.1v.05l-.05.05v.05l-.05.1v.05l-.05.05-.05.05-.05.1-.05.05-.05.05-.05.05-.1.1-.1.05-.1.05-.15.05-.1.05-.1.05-.05.05-.1.05-.1.05-.15.05-.1.05-.1.05h-.25l-.25.05H71.7l-1.65-.05h-.25l-.45.05h-.55l-.55-.05h-3L64 29.55h-1.9L59 29.5H48.15q.5-.95.1-2l-.6-1q-.55-.5-1.4-.65.15-.9.45-1.7l.35-1.05.05-1.6-.25-1.1q-.45-.85-1.4-1.5-1.1-.7-2.4-.85l-1.2-.2-.15-.05q1.3-.9 2-2.05 1.5-2.35.9-5.45l-.75-2.55.3-1.55.25-1.15.05-.85-.1-.45-.3-.4q-.35-.35-.85-.4l-1 .1-.15.05-.85.05-1 .3-.65.3-.2.1-.6-.1-3.25-.05-.7.05-.4.05q-1.85.25-3.55 1.6-2.45.55-4.1 1.45L26 7.2l-.5.35q-.4.35-.45.95l.25 1q.3.65 1.5 1.45l1.05.5q-.15 2.4 1.05 4.3.7 1.15 2 2.05l-.15.05-1.2.2q-1.3.15-2.4.85-.95.65-1.4 1.5l-.25 1.1q-.1.9.05 1.6l.35 1.05.45 1.7q-.75.15-1.25.55t-.75 1.1q-.45 1.15.15 2.1m19.1-7.95-.7 2.2-1.1-3.05zm-14.6 0 1.8-.85-1.1 3.05z"/><path fill="#fff" d="m29.9 13.4.25.15.85.5 1.05.1q.85.05 2.05-.65l.55-.35.45-.55.15-.25q.1-.45.65-.6l.3-.05.3.05q.55.15.7.6l.1.25.45.55.55.35q1.2.7 2.05.65l1.05-.1.85-.5.4-.25.45-.05.4.6-.15.45-.65.7-1.15.7-2.75.1-1.75-.8-.85-.7-.85.7-1.75.8-2.75-.1-1.15-.7-.65-.7q-.15-.1-.15-.45l.4-.6.15-.05zm-.5-1.6-.4-.7q-.35-.8-.1-1.55.25-.8.95-1.3t1.5-.45q.75.05 1.3.45l.85 1.1q.45 1.2-.2 2.25l-.5-.1-2.2-.05-1 .2zm10.05.2q-1.1-1.2-.55-2.65.2-.65.85-1.1.55-.4 1.3-.45.8-.05 1.5.45t.95 1.3q.25.75-.1 1.55-.3.8-1 1.25l-1.55.3q-.85-.1-1.4-.65"/><path d="m29.45 13.2-.2-.2q-.2-.3-.1-.75l.25-.45.2-.15 1-.2 2.2.05.5.1q.5.15.7.55v.65l-.45.5-.95.15-1.65-.05H29.9zM36.95 28.85l.25 1.2.15.6.3 1.05.15.65-.05.2q-.15.2-.4 0l-.45-.5-.2-.65-.65-1.1-.4-.95-.15-.85q.1-.5.5-.55.35-.15.65.25z"/><path fill="#717171" d="m33.6 27.7 1.05-.4-.3-.65-.1-1v-.8q0-.55.45-.85.5-.35 1-.2l.75.7q.25.5.05.95l-.3.6q-.15.25-.15.85l-.05.15.75.25.5.25.65.05h1.25q.5.2.85.65t.3.95q0 .7-.5 1.2l-.35.2.25.1q.6.4.6 1.1 0 .75-.6 1.15l-.05.05.45.35q.4.45.45 1.05.15.65-.15 1.15l-.9.75-1.15-.05q-.65-.3-1.2-1.3l-.3-.4-.45.25q-.95.45-1.8-.25l-.3-.3-.35-.65-.15-.75-.8.05q-.85-.1-1.45-.85-.45-.7-.3-1.5.1-.55.9-1.65l.4-.45q.35-.35 1.05-.75m3.35 1.15-.3-.65q-.3-.4-.65-.25-.4.05-.5.55l.15.85.4.95.65 1.1.2.65.45.5q.25.2.4 0l.05-.2-.15-.65-.3-1.05-.15-.6z"/></g></svg>