<svg xmlns="http://www.w3.org/2000/svg" xmlns:ffdec="https://www.free-decompiler.com/flash" ffdec:objectType="shape" width="69.85" height="38"><g fill-rule="evenodd"><path fill="#999" d="m54.6 15.6-4 .65q-7.85 1.05-14.75 4.1-7.3 3.2-12.7 8.35l-.75.55q-.6.1-.8-.25-.3-.45.4-1.15 5.45-5.9 11.85-11.15l1.2-.95q4.9-4.8 10-9.1 2.05-1.75 3.65-2.8-1.7.65-3.8 2.05-3.3 2.2-8.35 6.15l-2 1.25q5.1-5.8 8.05-8.3 4.25-3.6 8-4.35l.9-.15.3-.1 1.5-.25 2.4-.1 1.4.25q3.3.95 4.55 2.7l.9 1.75.6 1.85.1 1.4q-.15 2-1.1 3.6l-.85 1.1q-.8.8-2.9 1.7l-1.85.6zm4.7 6.7-.5-.4-.4-.55q-.25-.6.45-1.1.55-.55 1-.4.5.05.9.75.5-.45 1.05-.35.75 0 .9.6.15.5-.2.95l-.75.65-.4.3-.05.55-.35.45-.55.1-.65-.7zm-3.25-12.05 1.25-1.8q0-.35-.35-.45l-.6-.05-1.6.4q-2 .75-5.6 3.05l-3.35 2.2q3.65-1.3 5.7-1.6l1.4-.2 2.05-.75zM39.7 2.85l.1-.2q.25-.5.7-.65l.95-.15.65.2.25.75-.35.75-.9 1.55-.45.4-.35-.1-1.25-.55-.55-.35q-.6-.5-.25-1.2l.3-.4h.9zm17.25 26.1q-1.7 2.65-5.55 3.55l-1.15.2-1.4.3-5.25.8-7.25.15-7.25.6v-.2l.2-.15q3.65-1.7 10.15-2.5l-1.4-.1q-4.6-.25-12.5 1.65-4.75 1.1-6.85 2.55-.75.4-1.15.4l-3.15 1.75-.55.05q-.1-.2.05-.45l.35-.3.6-.7q.9-.9 2.3-1.7.3-.4 1.1-.8l14-8.2q8.35-4.9 14.55-6.6l6.6-.3q3.15 1.05 4.2 4.15.55 1.45.35 3-.15 1.6-1 2.85m-3.3-3.65q-.15-1.3-1.35-2.05-1.05-.55-2.45-.4l-1.35.25q-3.6.95-6.95 2.2l1.85-.1q.65.05 1.75.45l.7.45q.35.4.05.9l-.65.75-1.2.65 1.75.15 3.5.1q1.9-.15 3.25-1.2l.9-1.1zM.7 33.3q-.3.3-.45.25-.45-.15-.1-.8Q2.4 28 3.85 26l3.5-4.1Q12 17.25 19.1 12.3l-1.05.45q-2.15 1.1-5.65 3.45l-2.15 1.65q-.4.45-.65.2-.15-.25.15-.55l1.75-1.85q3.55-3.35 6.25-5.1 3.9-2.35 7.6-2.5l3.15.45q1.65.7 2.3 2.05.7 1.3.25 2.5l.05 1.5q-.1 1.7-1.1 2.95-1.25 1.6-4.7 3.05-4.9 1.9-10.25 3.15-3.2.75-4.25 1.2-1.3.55-4.2 2.5-3.4 2.5-4.55 4zm16.75-14.35 2.1-.7 1.5-.55 1.3-.7 2.55-1 .9-.4.6-.75v-.65l-.45-.35-.6.15-6.9 4.2zM12.4 9.2l-.35.75-1.05-.1-1.05-.6-.85-.8q-.35-.9.35-1.4l1.5-.15q.1-.8.7-1.2l1.4.05q.55.45.45 1.3l-.6 1.3z"/><path d="m60.4 29.9.55.7.45-.5.95-.05q.5.25.5.8 0 .6-.85 1.35l-.1.1.4.6.25.55-.2.5q-.25.25-.8-.2l-.55-.6-1.05.95-.65.45q-.5.1-.7-.2t.1-.95l.55-.85.4-.5-.35-.25q-.65-.75-.25-1.45.2-.35.6-.5zm8.7-.8-.35 1.2-.15.1.45.25q.5.4.65 1.05l.1.05.05 1.4-.35.7q-.85 1.2-1.75 1.45l-.55.1-.6-.15q-.85-.3-1.5-1.1l-.15-.25-.1-.6.2-.6q.2-.2.35-.2.5-.15.9.45l.3.6.65.15.4-.1.5-.7.1-.55-.5-.5-.55-.55-.4.1q-.5-.1-.6-.55t.25-.8l.7-.45q.45-.35.3-.7-.05-.35-.55-.35l-.65.25q-.6.5-.75 1.3l-.35.5q-.25.05-.4-.45-.2-.8-.05-1.2l.4-.75q.85-.95 1.9-1.15 1.45-.2 1.9.9zM41.3 10.6l1.7.15q2 .3 3.1-.55l1.05-1.35 1.3-2.3 1.5-2.2q1.5-1.75 3.65-2.55l4.4-.2q1.5.4 2.7 1.6 1.15 1.15 1.6 2.7.45 1.5.1 3.15l-.45 1.4L61 12.6l-1.1 1.35-1.75 1q-2 .8-4.2.6-2.2-.25-4.05-1.4-.9 1.35-2.4 1.55l-.8.05q-1 .2-2.15 0-1.75-.35-3.4-1.5-.4-.3-.65-.25l-.3.4-.6 1.05q-.45.55-1.05.4-.55-.15-.65-.85l.15-1.15q.45-1.35 1.15-2.1.9-1.05 2.1-1.15m16.75-.9.3.55q.25.4.8.65l.5.15q.5-.1.6-.6.1-.45-.35-.8l-.35-.8-.25-.25.15-.2.35-.4.35-.6.1-.5-.1-.65q-.35-.4-.8-.35-.5 0-.6.55l-.1.4-.2.3-.45.5-.55.5-.55.2-.95.2-2.3-.05-.6-.5-.4-.1-.3.3-.05.25.65.85.45.4.1.05-.05.1-.05.8.1 1.15.2.2.9-.05.35-.5.35-.95.1-.3.55-.05zm-24.8 17.7q.35-1.75 1.75-3.05 1.25-1.15 2.75-1.45.9-.45 1.9-.5l2 .05q1.1-.05 1.8-.45l.8-.55.7-.65q1.65-1.55 3.95-2.05l4.5.2q1.05.4 1.95 1.05.65.55 1.6 2.25 1.05 2.15.9 3.7-.15 2.1-1.8 3.65-1.2 1.15-3.5 2.15l-3.15.75-2.25-.35q-1.6-.2-4-1.35l-.15-.05h-.15q-1.45.15-2.7-.75-1.2-.85-1.75-2.2l-.3-.35h-.45l-1.05.9-1.05 1.25q-.9 1.1-1.6 1.25H32.8q-1.15-.25-1.75-1.05-.75-1-.1-1.95l.5-.35.6.1.3.4.3.25.55-.25q-.05-.3.05-.6m15.25-1.8.55.55-.1.15-.15 1.25.25.6q.25.35.6.25l.45-.45.65-1.2 1.85-.05.05.25.25.65.65.55.75-.2.3-1.05-.15-.75-.3-.4.55-.7.15-.35q.15-.5-.15-.8-.35-.35-.8-.25l-.75.65-.8.65-1.55.15-.5-.05-.3-.1-.7-.35-.15-.15-.1-.25-.2-.3-.45.05q-.15.1-.15.5l.05.35-.1.2zM23.9 8.75q1.3-.55 2.65-.35 1.3.2 2.45 1 1.1.85 1.75 2.05 1.3 2.45.5 5.25-.5 1.7-1.6 2.75l-.1.15-.65.75q-.7.75-2.25 1.25l-1.05.2-1.4.1-2.7-.5-.55-.35-1.75 1.5q-1.1.65-2.4.8L14.25 23l-2.55-1.5-2.35 2.1-.55.3q-.4-.05-.5-.65-.05-.5.25-1.3.8-2.1 1.5-2.95 1.2-1.5 2.85-1.45l1.55.45.65.25q.6-.15.9-.45l.45-.75.2-.95q.3-1.3 1.05-2.3l2-2.3 2.25-2q.8-.45 1.55-.55zM23.6 15l-.5-.35-.65-.05-.55.4-.2.5q.1.6.65.85l.8.25.05.35.3 1.15.1.25.45.1.35-.5.2-.8.1-.5 1.5-.05 1.15-.5.1-.05.3.35q0 .25.3.55l.3.25h.55l.3-.45-.25-.8-.3-.6-.1-.15.05-.05.7-1.6v-.35l-.05-.2-.45-.2q-.4.1-.4.5l-.45.65-1.05.65-.85.3-1.75.2z"/><path fill="#fff" d="m58.05 9.7-2.1.45-.55.05-.1.3-.35.95-.35.5-.9.05-.2-.2-.1-1.15.05-.8.05-.1-.1-.05-.45-.4-.65-.85.05-.25.3-.3.4.1.6.5 2.3.05.95-.2.55-.2.55-.5.45-.5.2-.3.1-.4q.1-.55.6-.55.45-.05.8.35l.1.65-.1.5-.35.6-.35.4-.15.2.25.25.35.8q.45.35.35.8-.1.5-.6.6l-.5-.15q-.55-.25-.8-.65zM48.5 25.6l-.3-.6.1-.2-.05-.35q0-.4.15-.5l.45-.05.2.3.1.25.15.15.7.35.3.1.5.05 1.55-.15.8-.65.75-.65q.45-.1.8.25.3.3.15.8l-.15.35-.55.7.3.4.15.75-.3 1.05-.75.2-.65-.55-.25-.65-.05-.25-1.85.05-.65 1.2-.45.45q-.35.1-.6-.25l-.25-.6.15-1.25.1-.15zM23.6 15l.7.1 1.75-.2.85-.3 1.05-.65.45-.65q0-.4.4-.5l.45.2.05.2v.35l-.7 1.6-.05.05.1.15.3.6.25.8-.3.45h-.55l-.3-.25q-.3-.3-.3-.55l-.3-.35-.1.05-1.15.5-1.5.05-.1.5-.2.8-.35.5-.45-.1-.1-.25-.3-1.15-.05-.35-.8-.25q-.55-.25-.65-.85l.2-.5.55-.4.65.05z"/></g></svg>