<svg xmlns="http://www.w3.org/2000/svg" xmlns:ffdec="https://www.free-decompiler.com/flash" ffdec:objectType="shape" width="69.45" height="44"><g fill-rule="evenodd"><path d="m15.7 14.65-.2-.45-.4-1.6-.25-.5L14 8.95 13.75 8l-.35-2.35.2-1.2.4-.5.35-.25.45-.15 1.2.1 2.15.75 1.65.75 2.7 1.4 1.25.65q3.65-2.3 8.3-2.9l2.8-.2q3.15-.05 5.8.75l1.8.65q1.6.7 3.25 1.95l1.05-.5 2.5-1 1.45-.5 1.65-.6.55-.25 1.75-.7q1.2-.2 1.75.45.6.65.4 1.8l-.2.8-2.7 6.85L53 16l.25.6q.65 1.5 1 4.1v.1q.6 4.8-.7 9.1l-1.5 3.55q-1.35 2.3-3.35 3.95l-1.4 1.05q-5.2 3.2-14.45 2.85l-5.4-.6q-2.2-.45-5.2-1.7l-4-2.2-1.3-1.2q-2.9-3.15-2.9-9.35 0-5.4 2.15-10.2l-.15-.55-.05-.1v-.1z"/><path fill="#999" d="M28.3 4.15q-.95-.3-1.35-1.25-.35-.85.15-1.8.55-.9 1.5-.75.65.15 1.15 1l.55 1.3q0 .85-.5 1.3-.65.55-1.5.2M23.4.35l1.2 1.7q.95 1.45.8 2.3-.15.75-.85 1.15l-1.45.1q-.85-.3-1.85-1.7-.8-1.1-.85-1.8-.15-1.2.95-1.8zM41.9.4q.9.1 1.2.8.35.65.2 1.45-.15.7-.7 1.15-.55.55-1.25.3-.65-.15-.95-.8-.25-.55-.15-1.25.2-.8.55-1.15.4-.5 1.1-.5m19.6 6.95.75.1.45-1.5.9-1.9q.45-.65.8-.8l.75-.05q.5.1.75.3.4.35.5 1.1l-.2 1.25-.45 2.05h.1q.65.05 1.1.7.4.55.3 1.3-.15 1.05-1.1 1.35l-.85.15-.05.45q-.2 1.8-.8 2.4-.8.8-1.85.45-1.1-.35-1.25-1.45l.05-1.15.15-.85.1-.45-.7-.15-1.6-.35q-.95-.35-1.1-1.2-.05-.4.5-1.65l1-2.55q.25-.5.6-.7l.75-.1q.4.1.65.45.25.3.15.95l-.2.95zm-1.45 10q.3-.25 1.1-.35l4.65-.6 1.95.05.8.6.15.9q-.05.5-.7.85l-1.15.3-3.75.7.05.65q2.7-.8 5.05.75l.75.7q.6.7.5 2.25-.1 1.7-.55 2.4-.55.8-1.6 1.25l-2.05.35q-1.6.1-2.45-.4-1.4-.85-1.15-2.15.15-.6.75-.95l1.15-.2.8.3 1.25-.05.35-.3-.35-.4-2.65-.05-1.15.2-1.1-.2q-.65-.45-.75-1.35L59.8 21l-.4-1.9q-.1-1.25.65-1.75M53.9 13.8l.4.6q2.25 3.75 2.25 8l-.1 1.95-.35 2.4-.25.75-.6 2.6q-1.1 3.4-3.9 6.15-1.9 1.8-3.6 2.1l-.45.1 1.4-1.05q2-1.65 3.35-3.95l1.5-3.55q1.3-4.3.7-9.1v-.1q-.35-2.6-1-4.1L53 16zm-35.65 23-.75-.3q-2.15-.9-3.7-3.3-1.25-1.95-1.75-4.65-.4-1.75-.35-3.25.05-1.55 1-4.95 1.2-4.2 3-5.7l.3.65v.1l.05.1.15.55q-2.15 4.8-2.15 10.2 0 6.2 2.9 9.35zM48.45.85q1.05.1 1.55 1 .45 1.05-.15 1.85L48.6 4.75l-.95.9-1.05.65q-.85.1-1.35-.35-.55-.45-.55-1.3 0-.5.45-1.15.5-.9 1.05-1.45Q47.35.8 48.45.85M54.5 42.9q-.3.9-1.25 1.05-.9.15-1.55-.5-.4-.45-.65-1.25l-.7-3.05q-.2-.9.05-1.4.25-.65.95-.85l1.25.2q.5.35.75 1.05.8 1.55 1.1 2.85.35 1.15.05 1.9m7.05-10.2 1.3.05q1.15.15 2 .65 1.05.6 1.45 1.5l.25 1.25q.2 2.15-.95 3.35l-.9.65q-1.85 1.05-3.8.65-2.45-.4-3.85-2.6-1.4-2.3-.45-4.75l.5-1.05q1.25-2.1 3.05-2.85l2.05-.3q1.1.05 1.95.65.7.4.6.9 0 .6-.75.8l-1.2.1q-1.45.15-2.2 1.25l.45-.05zm-13.9 6.9q.6.5.8 1.75.2.85-.05 1.4l-.85.7-1.15-.05q-1.1-.45-1.3-1.8-.15-.85.25-1.55.45-.6 1.05-.75.8-.1 1.25.3m14.75-2 .55-.1.5-.3.15-.7-.1-.45-.5-.3-.6-.15-.75.1q-1.1.3-1.5.8l.75.85.6.2.4.15zM9.65 11.35q.5.35.7.65.5.8 0 1.6-.55.8-1.45.65l-.75-.2-.6-.25-.8-.3-1.95-.4-1.6-.35q-.55-.3-.8-.9-.3-.65-.1-1.2.2-.6.75-.95l1.2-.3 1.15.3.6.1.45.2.6-1.25.7-1.35.45-.85Q7.35 6.5 7 6.1q-.3-.3-.3-.9.05-.5.35-.95.45-.6 1.65-1.1l2.8-.1q.75.45.85 1.15l.25.8-.35 1.2-.65.65-2.4 4.25zm-2.9 8.3-1.55 1.9h1.6q.95-.1 1.55.25.9.55.8 1.55 0 .95-.95 1.45l-1.05.2L6 24.95l-1.65.15-1.65.15q-.95 0-1.45-.45-.55-.4-.55-1.35 0-.55.35-1.45.7-1.7 2.05-3.1-.45-.05-.85.45l-.75.6q-.6.25-1.1-.45l-.35-.65q-.15-.6.25-1.35.3-.5.95-.95 1.4-1 3.25-1.1l.85.1q.5.15.85.45.65.5.95 1.25.3.8.05 1.55zM5 31q-.6 0-1.05-.5-.4-.5-.35-1.1.1-.7.7-1.15.45-.3 1.2-.5l3.05.25q1.45.6 2 1.75l.3 1.4-.1 1.55q-.25.8-.85 1.25l-.35.35v.4q.2 1.3-.3 2.2-.65 1.05-1.95 1.55l-2.75.45q-1.45-.1-2.65-.85-1.05-.6-1.5-1.5-.5-1.25.25-2.05.4-.4 1-.45.65-.05 1.1.3l.85.95q.45.45 1.15.45l1.15-.35q-.7-.5-.95-1.25-.25-.95.4-1.5.3-.3.95-.5l1.05-.4.15-.2-.15-.3q-.55-.5-1.35-.4zm10.15 5.75.8.7.15 1.05-.45.85-.8.9-1.55 1.8-.55.65q-.7.7-1.7.7-1-.1-1.5-.95-.55-.8-.15-1.75.1-.3.95-1.25l2.2-1.9q.55-.45 1.2-.75zm3.5 6.8q-.85-.1-1.3-.7-.4-.65-.25-1.4l.45-.95.6-.85.65-.95q.6-.6 1.5-.35.85.25 1 1.15l-.15 1.35-.8 1.8q-.8.9-1.7.9M40.95 24.1l.6.4 1.2.2q1.8 0 2.65-.55l.6-.45.6-.65q.4-.7.25-1.45l-.4-1.4-.25-.5-.45-.7-.35-.25-.25-.35-2.55-.2-.7.1q-1 .25-1.5.95l-.7 1.3-.1.95.1.6q.3 1.2 1.25 2M47 15.95q.95.65 1.95 2l.75 1.35.45 2.45-.05 2.2q-.35 1.2-1.85 2.5l-1.7 1.1q-1.4.65-3.85.65-1.95-.1-3.05-.7l-1.4-1.25q-1.2-1.35-1.7-2.95-.55-1.75-.2-3.35.15-.95.9-2.2.85-1.45 1.95-2.1 1.35-.9 3.7-.9 2.4.1 4.1 1.2m-17.8 15.6 1.8-1.2q.8-.55 1.3-.75l.05-.5.2-1.25.35-1.05q.45-.85 1.25-.8.8-.05 1.25.8l.35 1.05.2 1.25.05.5q.5.2 1.3.75l1.8 1.2 1.7.9.9.7.75 1.05q.35.75-.15 1.3-.45.45-1.1.35l-1.1-.3-5.05-2.3-.9-.45-.9.45-5.05 2.3-1.1.3q-.65.1-1.1-.35-.5-.55-.15-1.3.2-.5.75-1.05.7-.6.9-.7zm-1.85-7.45q.95-.8 1.25-2l.1-.6-.1-.95-.7-1.3q-.5-.7-1.5-.95l-.7-.1-2.55.2-.25.35-.35.25-.45.7-.25.5q-.35.75-.4 1.4-.15.75.25 1.45l.6.65.6.45q.85.55 2.65.55l1.2-.2zm-6.05-8.15q1.7-1.1 4.1-1.2 2.35 0 3.7.9 1.1.65 1.95 2.1.75 1.25.9 2.2.35 1.6-.2 3.35-.5 1.6-1.7 2.95l-1.4 1.25q-1.1.6-3.05.7-2.45 0-3.85-.65-.75-.35-1.7-1.1-1.5-1.3-1.85-2.5-.15-.75-.05-2.2.1-1.5.45-2.45l.75-1.35q1-1.35 1.95-2"/><path fill="#fff" d="M40.95 24.1q-.95-.8-1.25-2l-.1-.6.1-.95.7-1.3q.5-.7 1.5-.95l.7-.1 2.55.2.25.35.35.25.45.7.25.5.4 1.4q.15.75-.25 1.45l-.6.65-.6.45q-.85.55-2.65.55l-1.2-.2zm-13.6 0-.6.4-1.2.2q-1.8 0-2.65-.55l-.6-.45-.6-.65q-.4-.7-.25-1.45.05-.65.4-1.4l.25-.5.45-.7.35-.25.25-.35 2.55-.2.7.1q1 .25 1.5.95l.7 1.3.1.95-.1.6q-.3 1.2-1.25 2"/></g></svg>