<svg xmlns="http://www.w3.org/2000/svg" xmlns:ffdec="https://www.free-decompiler.com/flash" ffdec:objectType="shape" width="66.75" height="43.35"><g fill-rule="evenodd"><path fill="#999" d="M42.8 41.15v-.2H30.95l-.55-.05h-.55l-.35-.05h-.4l-.35-.05-.2-.05h-.2l-.1-.05H28l-.25-.05h-.15l-.35-.05h-.2l-.2-.05h-.15l-.15-.05h-.45l-.4-.05h-.25l-.35-.05h-.3l-.3-.05h-.25L24 40.3h-.25l-.2-.05h-.05l-.25-.05-.2-.05h-.55l-.45-.05h-.3l-1.2-.05h-.25l-.2-.05h-.25l-.75-.05h-.45l-.1-.05h-.2l-.1-.05-.15-.05-.05-.05-.05-.1v-.05l-.05-.1.05-.1.15-.05h.2l.1-.05h.45l.65-.05h.25l.2-.05h.25l1.2-.05h.3l.35-.05h.55l.2-.05h.2l.05-.05h.2l.2-.05.25-.05H24l.25-.05h.3l.3-.05h.25l.4-.05h.45l.1-.05h.15l.15-.05h.2l.35-.05h.15l.15-.05h.25l.1-.05h.2l.2-.05h.3l.35-.05h.35l.55-.05h.55l.8-.05h1.35v-.15l-1.25-.05h-1.2l-.35-.05h-.45l-.4-.05h-.4l-.4-.05h-.25l-.25-.05H27l-.3-.05h-.4l-.45-.05h-.2l-.3-.05h-.2l-.25-.05-.2-.05h-.1l-.1-.05h-.25l-.3-.05h-.25l-.3-.05h-.8l-.75-.05h-.5l-.3-.05h-.25l-.3-.05h-.4l-.5-.05h-1.05l-1.35-.05h-.4l-.15-.05h-.15l-.2-.05h-.1l-.2-.05-.2-.05h-1.35l-.2-.05-.1-.1-.05-.05-.05-.1v-.15l.05-.05.15-.05h1.55l.15-.05.05-.05h.2l.15-.05h.15l.35-.05h1.3l1.05-.05h.5l.4-.05h.3l.2-.05h.25l.5-.05h.75l.8-.05h.3l.2-.05h.25l.25-.05h.1l.1-.05h.2l.15-.05.2-.05h.3l.2-.05h.45l.35-.05h.25l.25-.05h.25l.25-.05h.35l.35-.05-.35-.05h-.45l-1-.05H24.8l-.35-.05h-.3l-1-.05h-1.2l-.45-.05h-.15l-2.9-.05h-.2l-.2-.05-.15-.05-.1-.05-.2-.05h-.1l-.45-.05-.05-.1-.1-.05v-.1l.05-.05.4-.05.05-.05.2-.05.05-.05.1-.05h.2l.2-.05h2.9l.15-.05h.4l1.15-.05h1l.3-.05h.35l1.05-.05h.95l.4-.05h.6l.65-.05h.6l-.45-.05h-.85L26.9 34h-.4l-.35-.05-.5-.05h-.3l-.2-.05-.15-.05-.3-.05-.15-.05-.05-.05h-1.3l-.85-.05h-.45l-.35-.05h-.35l-.5-.05h-1.4l-.5-.05h-.5l-.4-.05h-.6l-1.95-.05-.6-.05h-.4l-.2-.05h-.2l-.3-.05h-.6l-.7-.05-.15-.05-.2-.05-.05-.1-.05-.05v-.2l.15-.05.1-.05.7-.05h.6l.25-.05h.2l.15-.05h.4l.55-.05h1.95l.55-.05h.4l.5-.05h.45l1.4-.05h.5l.3-.05h.35l.45-.05h.8l.2-.05h.3l.05-.05.3-.05.15-.05h.1l.1-.05.2-.1.2-.05.15-.05.15-.05h.3l.45-.05h.35l.4-.05h.4l.8-.05.45-.05h.55l1.8-.05h2.1l.05-.05h.2l.1-.05h.25l.35-.05h.6l.7-.05h.25l.15-.05h.2l.35-.05h.4l.1-.05h.1l.1-.05h.35l.45-.05h.65l.5-.05h1.15l-.05-.2h-1.15l-.6-.05h-.65l-.45-.05h-.35l-.1-.05h-.1l-.2-.05h-.4l-.35-.05h-.2l-.15-.05h-.25l-.8-.05h-.6l-.35-.05h-.25l-.1-.05h-.2l-.15-.05h-2.1l-1.8-.05h-.55l-.5-.05-.85-.05h-.4l-.4-.05h-.35l-.5-.05h-.3l-.2-.05-.15-.05-.3-.05-.2-.1-.2-.05h-.1l-.15-.05-.3-.05-.15-.05h-.3l-.2-.05h-.8l-.45-.05h-.35l-.4-.05h-.5l-1.4-.05h-.45l-.55-.05h-.4l-.6-.05h-1.95l-.55-.05h-.4l-.25-.05h-.2l-.25-.05h-.6l-.7-.05-.2-.05-.15-.05-.1-.1v-.1l-.05-.05v-.1l.15-.05.15-.05.65-.05h.6l.25-.05h.2l.2-.05h.4l.5-.05 1.95-.05h.6l.4-.05h.5l.4-.05h1.4l.5-.05h.35l.35-.05h.45l.75-.05h1.3l.05-.05.15-.05.2-.05.15-.05.15-.05h.3l.45-.05.35-.05h.4l.35-.05h.85l.45-.05h-.6l-.65-.05h-.6l-.5-.05H23l-1.05-.05h-.35l-.3-.05h-1l-1.25-.05h-.4l-.15-.05h-2.9l-.2-.05h-.2l-.2-.05-.05-.05-.25-.05-.1-.05-.4-.05-.1-.05-.05-.1v-.05l.05-.1.35-.05h.1l.2-.05.1-.05.05-.05.2-.05h.2l2.9-.05h.15l.35-.05h1.2l1-.05h.3l.3-.05h1.05l.95-.05h.45l.35-.05-.45-.05h-.35l-.25-.05H23l-.25-.05h-.25l-.45-.05h-.45l-.2-.05h-.3l-.2-.05-.25-.05h-.2l-.1-.05h-.1L20 25.6h-.25l-.3-.05h-.3l-.8-.05h-.75l-.55-.05h-.25l-.25-.05h-.3l-.4-.05h-.5l-1.1-.05h-1.3l-.4-.05h-.15l-.15-.05h-.2l-.15-.05-.15-.05H10.2l-.15-.05L9.9 25v-.1l-.1-.05.05-.1-.05-.05.05-.1.15-.05h1.35l.2-.05.1-.05h.1l.2-.05h.15l.15-.05h.4l1.25-.05h1.05l.5-.05h.4l.3-.05h.25l.2-.05h.5l.75-.05h.8l.3-.05h.25l.2-.05h.25l.1-.05h.1l.15-.05.2-.05h.2l.3-.05h.2l.4-.05h.4l.25-.05h.25l.25-.05h.25l.3-.05h.4l.4-.05h.45l.35-.05h1.2l1.15-.05-.1-.15H25.5l-.8-.05h-.55l-.55-.05h-.35l-.45-.05h-.3l-.2-.05h-.2l-.15-.05h-.25l-.2-.05h-.15l-.35-.05h-.2l-.25-.05h-.15l-.1-.05h-.45l-.4-.05h-.25l-.4-.05h-.3l-.25-.05H18l-.25-.05-.3-.05h-.2l-.05-.05H17l-.2-.05h-.55l-.45-.05h-.3l-1.2-.05h-.25l-.25-.05h-.25l-.7-.05h-.45l-.1-.05h-.2l-.2-.05-.1-.1-.05-.1v-.05l-.05-.1.05-.05.05-.05.1-.05h.2l.1-.05h.45l.65-.05h.25l.2-.05H14l1.15-.05h.3l.4-.05h.55l.2-.05.15-.05h.05l.2-.05h.25l.25-.05h.25l.2-.05h.3l.35-.05h.25l.4-.05h.45l.05-.05h.15l.2-.05h.2l.35-.05h.15l-.25-.05-.15-.05-.3-.05-.2-.1-.2-.05h-.1l-.15-.05-.3-.05-.15-.05h-.3l-.2-.05h-.8l-.45-.05h-.35l-.4-.05H16l-1.4-.05h-.45l-.5-.05h-.4l-.65-.05h-1.95l-.55-.05h-.4l-.2-.05h-.2l-.3-.05h-.6L7.7 20l-.2-.05-.15-.05-.1-.1v-.1l-.05-.05.05-.1.1-.05.15-.05.7-.05h.6l.2-.05h.2l.2-.05h.4l.5-.05 1.95-.05h.6l.4-.05h.5l.4-.05h1.4l.5-.05h.35l.35-.05h.45l.75-.05h1.3l.05-.05.15-.05.2-.05.15-.05.2-.05h.3l.4-.05.35-.05h.4l.4-.05h.85l.4-.05h-.6l-.65-.05h-.6l-.5-.05h-.95l-1.05-.05h-.35l-.3-.05h-1l-1.25-.05h-.4l-.15-.05h-2.9l-.2-.05H12l-.2-.05-.05-.05-.2-.05-.15-.05-.4-.05-.05-.05-.1-.1v-.05l.05-.1.35-.05h.1l.2-.05.1-.05.05-.05.2-.05h.2l2.9-.05h.15l.35-.05h1.2l1-.05h.3l.35-.05h1.05l.9-.05h.45l.35-.05-.4-.05h-.35l-.3-.05h-.25l-.25-.05h-.25l-.45-.05h-.45l-.2-.05h-.3l-.2-.05-.25-.05h-.2l-.1-.05h-.1l-.25-.05h-.25l-.3-.05h-.3l-.8-.05h-.75l-.5-.05h-.25l-.3-.05h-.3l-.4-.05h-.5l-1.05-.05H9.8l-.45-.05H9.2l-.15-.05h-.2l-.15-.05-.15-.05H7l-.15-.05L6.7 16v-.1l-.1-.05.05-.1-.05-.05.1-.1.1-.05h1.35l.2-.05.15-.05h.1l.15-.05h.15l.15-.05h.4l1.25-.05h1.05l.5-.05h.4l.3-.05h.25l.2-.05h.5l.75-.05h.8l.3-.05H16l.2-.05h.25l.1-.05h.1l.2-.05.15-.05h.2l.3-.05h.2l.45-.05h.4l.2-.05H19l.25-.05h.25l.3-.05h.4l.4-.05h.45l.35-.05h1.2l1.15-.05-.1-.15H22.3l-.8-.05h-.55l-.55-.05h-.35l-.45-.05h-.3l-.2-.05h-.2l-.1-.05h-.25L18.3 14h-.15l-.35-.05h-.2l-.2-.05h-.15l-.15-.05h-.45l-.4-.05H16l-.4-.05h-.3l-.25-.05h-.25l-.25-.05-.3-.05h-.2l-.05-.05h-.2l-.2-.05h-.55l-.45-.05h-.3l-1.2-.05h-.25l-.2-.05h-.25l-.75-.05H9.2l-.1-.05h-.2l-.15-.05-.15-.1-.05-.1v-.05l-.05-.1.05-.05.05-.05.1-.05h.2l.1-.05h.45l.65-.05h.25l.2-.05h.25l1.2-.05h.3l.35-.05h.55l.2-.05.2-.05h.05l.15-.05h.25l.25-.05h.25l.2-.05h.3l.35-.05h.25l.4-.05h.45l.05-.05h.15l.2-.05h.2l.35-.05h.15l-.25-.05-.15-.05-.25-.05-.25-.1-.15-.05h-.1l-.2-.05-.3-.05-.15-.05h-.3l-.2-.05h-.8l-.45-.05h-.35l-.4-.05h-.5l-1.4-.05h-.45l-.5-.05h-.4l-.65-.05H7.45l-.55-.05h-.4l-.2-.05h-.2l-.3-.05h-.6L4.5 11l-.15-.05-.2-.05-.05-.1-.05-.1-.05-.05.05-.1.1-.05.15-.05.7-.05h.6l.2-.05H6l.2-.05h.4l.55-.05 1.9-.05h.6l.4-.05h.5l.45-.05h1.4l.45-.05h.35l.35-.05H14l.75-.05h1.3l.05-.05.15-.05.2-.05.15-.05.2-.05h.3l.4-.05.35-.05h.4l.4-.05h.85l.4-.05h-.6l-.65-.05h-.6l-.45-.05h-.95l-1.1-.05h-.35l-.3-.05h-1l-1.2-.05h-.4l-.2-.05H9.2L9 9.15h-.2l-.2-.05-.05-.05-.2-.05-.15-.05-.4-.05-.05-.05-.1-.1.05-.05v-.1l.4-.05h.1l.15-.05.1-.05.05-.05.2-.05h.2l2.9-.05h.15l.35-.05h1.2l1-.05h.3l.35-.05h1.05l.9-.05h.45l.35-.05-.4-.05h-.35l-.3-.05h-.25l-.25-.05h-.25l-.4-.05h-.45L15 7.8h-.3l-.2-.05-.2-.05h-.2l-.15-.05h-.1l-.25-.05h-.25l-.3-.05h-.3l-.8-.05h-.75l-.5-.05h-.25l-.3-.05h-.3l-.4-.05h-.5L7.9 7.3H6.6l-.45-.05H6l-.15-.05h-.2l-.1-.05-.2-.05H3.8l-.15-.05-.1-.05-.05-.1-.1-.05.05-.1-.05-.05.1-.1.1-.05h1.35l.2-.05.15-.05h.1l.15-.05h.15l.15-.05h.4l1.3-.05H8.6l.45-.05h.4l.3-.05H10l.25-.05h.5l.7-.05h.8l.3-.05h.25L13 6h.25l.1-.05h.1l.2-.05.15-.05h.2l.3-.05h.2l.45-.05h.4l.2-.05h.25l.25-.05h.25l.35-.05h.4l.35-.05h.45l.35-.05h1.2l1.2-.05-.15-.15H19.1l-.8-.05h-.55l-.55-.05h-.35l-.45-.05h-.3l-.2-.05h-.2l-.1-.05h-.25L15.1 5h-.15l-.35-.05h-.2l-.2-.05h-.15l-.15-.05h-.45l-.4-.05h-.25l-.35-.05h-.3l-.3-.05h-.25l-.25-.05-.25-.05h-.2l-.1-.05h-.2l-.2-.05h-.55l-.45-.05h-.3L7.9 4.4h-.25l-.2-.05H7.2l-.75-.05H6l-.1-.05h-.2l-.15-.05-.15-.1-.05-.1v-.05l-.05-.1.05-.05.05-.05.1-.05h.2l.1-.05h.45l.65-.05h.25l.2-.05h.25l1.2-.05h.3l.35-.05H10l.2-.05.2-.05h.05l.15-.05h.25l.25-.05h.25l.25-.05h.3l.3-.05h.25l.4-.05h.45l.1-.05h.15L13.7 3h.2l.35-.05h.15l.15-.05h.25l.1-.05h.2l.2-.05.25-.05h.4l.35-.05h.55l.55-.05h11.85l-.2-.2q-.5-.8.7-1.25-.1-.9.35-1.1l.95.05.9.6.1.05 2.8-.1 3.2.05 9.55-.5q8.1-.5 13.3.2l3.15.45 2.7.3v42.15h-22.8l-.6-1.4q-.5-.35-.55-.8"/><path d="M16.05 20.55q-.05-.95.35-2.75l.1-.35q-1.75-2.4-2.3-5.45-.2-.8 0-1.35.25-1.15 1.35-1.45l1-.1 5.45.3.3.05q1.5-.9 3.85-1.45l2.9-.45h1v.05l2.9.4q2.35.55 3.85 1.45l.3-.05 5.45-.3 1 .1q1.1.3 1.35 1.45.2.55 0 1.35-.55 3.05-2.3 5.45l.1.35.35 2.75-.05.4q0 1.85-.7 3.3l-.55.95 2.25-.35q2.6-.2 5.25 0l.3.05v-.05l.2-.75q-.75-.15-.95-.65-.15-.35-.05-1.15l.15-1.25-.1-4.05-.15-4.85q-.25-.85-.15-1.25.15-.7 1.05-.8l1.35.3q1.8.95 3.55 4l.55 1.15.7 2 .6 2.2.1 3.05-.35 1.35v1.7l-.05 1 .05.75-.05.9.3 2.15v.5l-.4.8q-.35.35-.85.3-.45 0-.75-.35-.35-.4-.35-.85l.25-1 .45-3v-.65l.2-1.4v-.4l-.8-.15-.75-.05.25 1.25q.1.9-.25 1.55l.4 1.2q.1 1-.35 2-.5.95-1.4 1.45l-3.4.45-6-.55-4.4-.45 1.05 4.05 1.1 7.3v.1H18.85v-.1l.15-1.5q-1.45-.15-3.6.75l-1.7.75-.15.05-.1.05h-5.9l-.15-.1-.8-.55q-1.05-.9-1.45-2.2-.45-1.35-.1-2.6.35-.95.8-1.6.75-1 1.4-1.5.95-.75 2.45-1.1l2.3.1q1.25.35 1.7 1.4.45 1.1-.1 2.2-.45.95-1.55 1.55l-1.25.55-.1.05q.7.05 2-.5l2.9-1.15q2.45-.75 4.05-.55l.25-1.4q.45-2.15 1.05-4.05l-4.4.45-6 .55-3.4-.45q-.9-.5-1.4-1.45-.45-1-.35-2 .15-1 .8-1.85.65-.9 1.6-1.25l2.05-.45q2.65-.2 5.25 0l2.25.35-.55-.95q-.7-1.45-.7-3.3zM51.5 14.2l-.3-.5-.8-.75.25 1.9v.7l.15.85.15.8.2 4.55 2.9.05v-1.55l-1.3-4.2-.95-1.5zm7.7 9.25q.2.55-.05 1l-.65.7q-.9.35-1.55-.3t-.3-1.5q.45-.9 1.3-.8.9 0 1.25.9m-25.1.2q.5.5 1.25.55.7.1 1.3-.3l.85-1q.3-.65.1-1.35l-.15-.4q-.15.05-.35.15l-.85.35-.95.15-1.85.15q-.1.95.65 1.7m-9.4 0q.75-.75.65-1.7l-1.85-.15-.95-.15-.85-.35-.35-.15-.15.4q-.2.7.1 1.35.25.65.85 1l1.3.3q.75-.05 1.25-.55m4.3.7q-.65-.25-1.1.2l-.5.6-.7.4-.6.15-.7-.2-.65-.1q-.25.1-.35.4-.1.35.05.55.2.4.85.7 1.5.45 2.75-.45l.25-.05.25.15q.45.65 1.5.9l1.75.1q1.05-.2 1.35-.9l.1-.35-.1-.4q-.35-.4-.8-.5l-.7.1-1.5-.2zm-21.35-7.8q1.45 0 2.4 1.05l.65 1.4.2.7-.1.65-.4 1.1-1.15 1.1-.65.4-.45.2-.5.35-.8.4-.35.35-.05.1-.4.9-.75.6q-.35.05-1-.5l-1.35-1.1-1.6-.95q-.95-.65-1.2-1.4L0 20.8v-.65q.05-.4.45-1.2.65-1.15 1.35-1.65 1.05-.75 2.45-.65l.85.2q.6.3.65.35l.05.05q.8-.6 1.85-.7m-2.05 6.1.7-.65 1.9-1.35q.55-.35.55-.85l-.25-.65-.35-.4-.5-.05L7 19l-.75.7-.45.15h-.15l-.75-.25-.8-.35q-.65-.05-1.25.55l-.5.85-.1.55.7.55L4.9 23.1l.3.2z"/><path fill="#fff" d="m51.5 14.2.3.35.95 1.5 1.3 4.2v1.55l-2.9-.05-.2-4.55-.15-.8-.15-.85v-.7l-.25-1.9.8.75zm-17.4 9.45q-.75-.75-.65-1.7l1.85-.15.95-.15.85-.35q.2-.1.35-.15l.15.4q.2.7-.1 1.35l-.85 1q-.6.4-1.3.3-.75-.05-1.25-.55m-5.1.7 1.15 1.1 1.5.2.7-.1q.45.1.8.5l.1.4-.1.35q-.3.7-1.35.9l-1.75-.1q-1.05-.25-1.5-.9l-.25-.15-.25.05q-1.25.9-2.75.45-.65-.3-.85-.7-.15-.2-.05-.55.1-.3.35-.4l.65.1.7.2.6-.15.7-.4.5-.6q.45-.45 1.1-.2m-4.3-.7q-.5.5-1.25.55l-1.3-.3q-.6-.35-.85-1-.3-.65-.1-1.35l.15-.4.35.15.85.35.95.15 1.85.15q.1.95-.65 1.7"/><path fill="#999" d="m5.6 22.65-.4.65-.3-.2-1.95-1.35-.7-.55.1-.55.5-.85q.6-.6 1.25-.55l.8.35.75.25h.15l.45-.15L7 19l.65-.3.5.05.35.4.25.65q0 .5-.55.85L6.3 22z"/></g></svg>