<svg xmlns="http://www.w3.org/2000/svg" xmlns:ffdec="https://www.free-decompiler.com/flash" ffdec:objectType="shape" width="77" height="44.8"><g fill-rule="evenodd"><path fill="#fff" d="m4.95 1.65.15-.2Q6.4-.05 7.6 0q.95 0 1.45.85l.25.65-.15 1.05-.7.9-.95.75Q6.15 5.25 4.8 7 3.7 8.5 3.35 9.35l-1.3 4.1-.25.6-.45.25H1.2l-.6-.6q-.75-1.65-.6-3.3.15-1.75 1.55-4.15l1.35-2.1zm9.55-.25 2.25-.75.85.1q.2.2 0 .55v.05l-.45.5L12.5 5.5l-2.45 2.2q-1.35 1.6-2.2 4.2Q4.95 20.1 6 32.25q.3 3.35.9 5.2l1.05 2.5.9 2.5q.3 1.4-.4 2-.6.55-1.45.2-.65-.2-1.25-.9l-1.1-1.4-1-1.9q-1.6-3.75-1.9-10.8-.3-6.9.35-11.1Q3 12.45 6 8.2q1.9-2.75 4.7-4.75 1.8-1.25 3.8-2.05m7.25-.1 1.4-.6.9-.1q.65.1.65.6v.05q0 .45-.7.85-1.25.75-2.35 1.6-2.5 1.7-4.35 3.6l-.7.7q-3.4 3.7-4.7 8.1-.75 2.85-.85 7.6-.15 4.35.1 7 .3 3.85 1.5 6.8.85 1.85 1.65 2.85l1.25 1.55.3.65q.2.65-.1 1.25-.4.85-1.55.85-.8 0-1.8-.65l-1.6-1.55Q9.8 41.1 8.95 39q-1.3-3.35-1.6-5.95l-.25-3.9Q7 21.7 8.25 16.95q1.65-6.6 5.9-10.55 1.75-1.65 5.95-4.15.85-.55 1.65-.95m8.3-.05 2.85-.5q.9-.1.9.45v.05l-.4.45-2.3.95q-2.7 1-4.8 2.25-2.7 1.55-4.45 3.55-2.6 2.9-4 7.05l-.45 1.45q-1.05 4.2-.9 9.65.1 4.1 1.15 7.15 1.35 3.85 4.15 5.8l1.7 1.1q.9.65 1.3 1.4l.2.5q.15.6-.2 1.05-.6.8-2.1.25-1.4-.45-2.65-1.3-1.35-.9-2.55-2.25-2.1-2.35-3.2-5.5-1.75-5.05-.8-12.6.35-3.2 1.2-6.35l.85-2.8q.7-1.5 1.65-2.85l.15-.2q2.55-3.65 6.05-5.9 1.9-1.2 4.05-2.05zm13.15 0V1.2q0-.55.9-.45l2.85.5 2.6.8q2.15.85 4.05 2.05 3.5 2.25 6.05 5.9l.15.2 1.65 2.85.85 2.8q.85 3.15 1.2 6.35.95 7.55-.8 12.6-1.1 3.15-3.2 5.5l-2.55 2.25q-1.25.85-2.65 1.3-1.5.55-2.1-.25-.35-.45-.2-1.05l.2-.5q.4-.75 1.3-1.4l1.7-1.1q2.8-1.95 4.15-5.8 1.05-3.05 1.15-7.15.15-5.45-.9-9.65l-.45-1.45q-1.4-4.15-4-7.05-1.75-2-4.45-3.55-2.1-1.25-4.8-2.25l-2.3-.95q-.35-.2-.4-.45m9.1 0V1.2q0-.5.65-.6l.9.1 1.4.6q.8.4 1.65.95 4.2 2.5 5.95 4.15 4.25 3.95 5.9 10.55Q70 21.7 69.9 29.15l-.25 3.9q-.3 2.6-1.6 5.95-.85 2.1-1.85 3.45L64.6 44q-1 .65-1.8.65-1.15 0-1.55-.85-.3-.6-.1-1.25l.3-.65 1.25-1.55 1.65-2.85q1.2-2.95 1.5-6.8.25-2.65.1-7-.1-4.75-.85-7.6-1.3-4.4-4.7-8.1l-.7-.7-4.35-3.6q-1.1-.85-2.35-1.6-.7-.4-.7-.85m7.1.1V1.3q-.2-.35 0-.55l.85-.1 2.25.75q2 .8 3.8 2.05 2.8 2 4.7 4.75 3 4.25 3.9 10.35.65 4.2.35 11.1-.3 7.05-1.9 10.8l-1 1.9-1.1 1.4-1.25.9q-.85.35-1.45-.2-.7-.6-.4-2 .2-1 .9-2.5l1.05-2.5q.6-1.85.9-5.2 1.05-12.15-1.85-20.35-.85-2.6-2.2-4.2L64.5 5.5l-4.65-3.65zm8.3.15.25-.65Q68.45 0 69.4 0q1.2-.05 2.5 1.45l.15.2 2.05 2.5 1.35 2.1q1.4 2.4 1.55 4.15.15 1.65-.6 3.3l-.6.6h-.15l-.45-.25-.25-.6-1.3-4.1Q73.3 8.5 72.2 7q-1.35-1.75-2.7-2.8l-.95-.75-.7-.9q-.25-.5-.15-1.05M49.75 5.2Q51.7 6.3 53.4 8q2.35 2.35 3.8 5.45.95 2.1 1.5 4.35 1 4 .7 8.55-.35 6.15-3 10-1.55 2.3-3.85 3.65-1.95 1.2-4.05 1.4h-.95q-1.55-.1-2.35-.6-1.2-.85-1.05-2.05.15-1.25 1.65-1.9l2.45-.8q2.75-1.1 4.15-4.1 1.15-2.25 1.4-5.8.5-5.65-1.1-10.15-2-5.45-6.35-7.9-1.85-1.05-4.65-1.7l-3.2-.65-3.2.65q-2.8.65-4.65 1.7-4.35 2.45-6.35 7.9-1.6 4.5-1.1 10.15.25 3.55 1.4 5.8 1.4 3 4.15 4.1l2.45.8q1.5.65 1.65 1.9.15 1.2-1.05 2.05-.8.5-2.35.6h-.95q-2.1-.2-4.05-1.4-2.3-1.35-3.85-3.65-2.65-3.85-3-10-.3-4.55.7-8.55.55-2.25 1.5-4.35 1.45-3.1 3.8-5.45 1.7-1.7 3.65-2.8.85-.5 1.75-.85 3.1-1.3 8.05-1.6v.05l1.65-.1h.75l.5.05q4.95.3 8.05 1.6z"/><path fill="#999" d="M1.55 6.25v-.4l.05-.1V5.2l.05-.05V4.8l.05-.05v-.3l.05-.1V4.1l.05-.05v-.2h-.05L1.6 3.8h-.1l-.2-.05-.15-.1L1 3.6l-.1-.1-.1-.05-.05-.1-.05-.1V3.2l-.05-.1v-.15L.6 2.9l.05-.1v-.25L.7 2.5l.05-.1.05-.05.05-.1.05-.05.1-.1.2-.05.15-.05.05-.05h.1l.1-.05.15-.05h.3V1.8l.05-.1.05-.05.05-.1.05-.05.1-.1.1-.05.1-.05.1-.05h.3V1.2l.2.05.15.05.15.05.1.1.1.05.05.1.05.05v.05h.2l.4-.05h.6L2.9 4.15zM9.3 1.5h.75l.85-.05h.7l1.65-.05h1.25q-2 .8-3.8 2.05-2.8 2-4.7 4.75-3 4.25-3.9 10.35-.65 4.2-.35 11.1.3 7.05 1.9 10.8l1 1.9h-2l-.1-.05-.2-.05-.15-.05-.15-.1-.1-.05-.05-.1-.1-.1-.1-.05-.05-.1-.05-.05-.05-.1-.05-.05-.05-.1v-.05l-.05-.1v-.15l-.05-.1v-.25l-.05-.05v-.1l-.05-.05v-.1l-.05-.1v-.3L1.15 40v-4.85l.05-.05v-6.75l.05-.1V20.8l.05-.05v-6.4l.05-.05.45-.25.25-.6 1.3-4.1Q3.7 8.5 4.8 7q1.35-1.75 2.7-2.8l.95-.75.7-.9zm8.3-.15h1.85l1.35-.05h.95q-.8.4-1.65.95-4.2 2.5-5.95 4.15-4.25 3.95-5.9 10.55Q7 21.7 7.1 29.15l.25 3.9q.3 2.6 1.6 5.95.85 2.1 1.85 3.45H8.85l-.9-2.5-1.05-2.5q-.6-1.85-.9-5.2Q4.95 20.1 7.85 11.9q.85-2.6 2.2-4.2l2.45-2.2 4.65-3.65zm7.1-.1h5.35l-2.6.8Q25.3 2.9 23.4 4.1l-1.75-.4q1.1-.85 2.35-1.6.7-.4.7-.85m9.1 0h9.4q.05.25.4.45l2.3.95q2.7 1 4.8 2.25l-.95.3L48 4.35q-3.1-1.3-8.05-1.6l-.5-.05h-.75l-1.65.1v-.05q-4.95.3-8.05 1.6-.9.35-1.75.85l-.95-.3q2.1-1.25 4.8-2.25l2.3-.95zm13.15 0h5.35q0 .45.7.85 1.25.75 2.35 1.6l-1.75.4q-1.9-1.2-4.05-2.05zm8.3.05h.95l1.35.05h1.85l.45.5L64.5 5.5l2.45 2.2q1.35 1.6 2.2 4.2 2.9 8.2 1.85 20.35-.3 3.35-.9 5.2l-1.05 2.5q-.7 1.5-.9 2.5H66.2q1-1.35 1.85-3.45 1.3-3.35 1.6-5.95l.25-3.9q.1-7.45-1.15-12.2-1.65-6.6-5.9-10.55-1.75-1.65-5.95-4.15-.85-.55-1.65-.95m7.25.1h1.25l1.65.05h.7l.85.05h.75q-.1.55.15 1.05l.7.9.95.75q1.35 1.05 2.7 2.8 1.1 1.5 1.45 2.35l1.3 4.1.25.6.45.25.05.05v6.4l.05.05v7.45l.05.1v6.75l.05.05V40l-.05.05v.3l-.05.1v.1l-.05.05v.1l-.05.05V41l-.05.1v.15l-.05.1v.05l-.05.1-.05.05-.05.1-.05.05-.05.1-.1.05-.1.1-.05.1-.1.05-.15.1-.15.05-.2.05-.1.05h-2l1-1.9q1.6-3.75 1.9-10.8.3-6.9-.35-11.1Q74 12.45 71 8.2q-1.9-2.75-4.7-4.75-1.8-1.25-3.8-2.05m9.55.25h.6l.4.05h.2v-.05l.05-.05.05-.1.1-.05.1-.1.15-.05.15-.05.2-.05v.05h.3l.1.05.1.05.1.05.1.1.05.05.05.1.05.05.05.1v.05h.3l.15.05.1.05h.1l.05.05.15.05.2.05.1.1.05.05.05.1.05.05.05.1.05.05v.25l.05.1-.05.05v.15l-.05.1v.05l-.05.1-.05.1-.1.05-.1.1-.15.05-.15.1-.2.05h-.1l-.15.05h-.05v.2l.05.05v.25l.05.1v.3l.05.05v.35l.05.05v.55l.05.1v.4l-1.35-2.1zm-10.9 40.9h-4.2l2.55-2.25q2.1-2.35 3.2-5.5 1.75-5.05.8-12.6-.35-3.2-1.2-6.35l-.85-2.8-1.65-2.85-.15-.2.05-2.65V7.3l.7.7q3.4 3.7 4.7 8.1.75 2.85.85 7.6.15 4.35-.1 7-.3 3.85-1.5 6.8l-1.65 2.85-1.25 1.55zm-9.15 0H25l-.2-.5q-.4-.75-1.3-1.4l-1.7-1.1q-2.8-1.95-4.15-5.8-1.05-3.05-1.15-7.15-.15-5.45.9-9.65l.45-1.45.45 2.3q-1 4-.7 8.55.35 6.15 3 10 1.55 2.3 3.85 3.65 1.95 1.2 4.05 1.4l.15.55.05.15h4.25L33 42h11l.05.1h4.25l.05-.15.15-.55q2.1-.2 4.05-1.4 2.3-1.35 3.85-3.65 2.65-3.85 3-10 .3-4.55-.7-8.55l.45-2.3.45 1.45q1.05 4.2.9 9.65-.1 4.1-1.15 7.15-1.35 3.85-4.15 5.8l-1.7 1.1q-.9.65-1.3 1.4zm-31.95 0h-4.2l-.3-.65-1.25-1.55q-.8-1-1.65-2.85-1.2-2.95-1.5-6.8-.25-2.65-.1-7 .1-4.75.85-7.6 1.3-4.4 4.7-8.1l.7-.7v.05l.05 2.65-.15.2q-.95 1.35-1.65 2.85l-.85 2.8q-.85 3.15-1.2 6.35-.95 7.55.8 12.6 1.1 3.15 3.2 5.5 1.2 1.35 2.55 2.25"/><path d="M18 16.45 17.75 15l-.3-2.85q-.15-2-.15-4.8.1-1.7.3-2.25l.35-.75q.45-.65 1.15-.9l2 .1 3.65.9 2.5.75 1.9.8 2.4-.85 2.25-.7L37 3.7l2.05-.1h.9l1.45.1 3.25.75 2.2.7 2.4.85q.75-.45 1.9-.8l2.55-.75 3.6-.9 2-.1q.75.25 1.2 1l.3.65.3 2.25q0 5.15-.45 7.65l-.15.8-.5-.75q-1.55-1.95-3-2.85-2.95-1.85-7.15-1.05-1.3.2-2.3.8-.7.3-1.7 1.35-1.45 1.4-2.1 3.05-1.35 3.2.65 6.35 1.9 2.95 5.35 3.7l2.85.4 3.85-.4q1.95-.6 3.2-1.7l.5-.45-.4 2.85q-.8 5.6-2.85 8.15-2.1 2.65-6.1 3.75l-.5.15-.1.05.05.45.05.6-.1 1.3-.45.55H48.5l-.15-.1H33l-.05.1H28.7l-.05-.15q-.15-.35-.15-.85 0-.3.15-.7l.15-.5.3-.55-1.5-.35q-1.9-.5-3.35-1.35-1.65-1-2.75-2.4l-.05-.05q-2-2.6-2.8-8.1-.35-2-.4-3.6l1 1.2q1.25 1.1 3.2 1.7l3.85.4 2.85-.4q3.45-.75 5.35-3.7 2-3.15.65-6.35-.65-1.65-2.1-3.05-1-1.05-1.7-1.35-1-.6-2.3-.8-4.2-.8-7.15 1.05-1.45.9-3 2.85zm19.45 15 1.8-1.55 1.8 1.55q1.45 1 2.05 1.2l1.3.2q2.25 0 3.75-1.5 1-1.1.8-2.15-.1-.5-.4-.6-.45-.2-1.15.3l-1.75.9-2 .05q-.85-.25-2-1.35l-.9-1.05q-.2-.45-.1-1.75l-.05-.95-.55-.8-.1-.05-.6-.2h-.2l-.7.25q-.45.3-.55.8l-.05.95-.1 1.75-.9 1.05q-1.15 1.1-2 1.35l-2-.05q-.95-.3-1.75-.9-.7-.5-1.15-.3-.3.1-.4.6-.2 1.05.8 2.15 1.5 1.5 3.75 1.5l1.3-.2zm13-14.55q1-2.25 3.2-3 2.2-.85 4.3.4l1 .85L60.3 17l.35.95.25 2q0 1.35-.6 2.45l-.1.2q-1.85 2.55-4.95 2.35-3.2-.15-4.75-2.95l-.4-1-.1-.85q-.15-1.85.45-3.25m-22 0q.6 1.4.45 3.25l-.1.85-.4 1q-1.55 2.8-4.75 2.95-3.2.2-5.05-2.55l-.35-.8q-.25-.75-.25-1.65l.25-2 .05-.1q.35-1.4 1.65-2.7l1-.85q2.1-1.25 4.3-.4 2.2.75 3.2 3"/><path fill="#fff" d="m60.5 15.8.6 1.05q.4 1.15.4 3.05.2 1-.1 1.75-.35 1.45-1.25 2.6l-.5.45q-1.25 1.1-3.2 1.7l-3.85.4-2.85-.4q-3.45-.75-5.35-3.7-2-3.15-.65-6.35.65-1.65 2.1-3.05 1-1.05 1.7-1.35 1-.6 2.3-.8 4.2-.8 7.15 1.05 1.45.9 3 2.85zm-42.25 7.7q-.55-.85-.75-1.85-.3-.75-.1-1.75 0-1.9.4-3.05l.2-.4.9-1.4q1.55-1.95 3-2.85 2.95-1.85 7.15-1.05 1.3.2 2.3.8.7.3 1.7 1.35 1.45 1.4 2.1 3.05 1.35 3.2-.65 6.35-1.9 2.95-5.35 3.7l-2.85.4-3.85-.4q-1.95-.6-3.2-1.7zm32.2-6.6q-.6 1.4-.45 3.25l.1.85.4 1q1.55 2.8 4.75 2.95 3.1.2 4.95-2.35l.1-.2q.6-1.1.6-2.45l-.25-2-.35-.95-1.35-1.85-1-.85q-2.1-1.25-4.3-.4-2.2.75-3.2 3m-13 14.55-2.05 1.2-1.3.2q-2.25 0-3.75-1.5-1-1.1-.8-2.15.1-.5.4-.6.45-.2 1.15.3.8.6 1.75.9l2 .05q.85-.25 2-1.35l.9-1.05.1-1.75.05-.95q.1-.5.55-.8l.7-.25h.2l.6.2.1.05.55.8.05.95q-.1 1.3.1 1.75l.9 1.05q1.15 1.1 2 1.35l2-.05 1.75-.9q.7-.5 1.15-.3.3.1.4.6.2 1.05-.8 2.15-1.5 1.5-3.75 1.5l-1.3-.2q-.6-.2-2.05-1.2l-1.8-1.55zm-9-14.55q-1-2.25-3.2-3-2.2-.85-4.3.4l-1 .85q-1.3 1.3-1.65 2.7l-.05.1-.25 2q0 .9.25 1.65l.35.8q1.85 2.75 5.05 2.55 3.2-.15 4.75-2.95l.4-1 .1-.85q.15-1.85-.45-3.25"/></g></svg>