<svg xmlns="http://www.w3.org/2000/svg" xmlns:ffdec="https://www.free-decompiler.com/flash" ffdec:objectType="shape" width="78.2" height="43.5"><g fill-rule="evenodd"><path d="M73.45 35.8v.15l-2.1 2.2H68.1l-.55-.05h-47.1v.05H17l-9.9.05-.95-1.45-.55-.65V15.65l-.05-.05v-1.25l-.05-.05v-2.1l-.05-.05v-4.7l.6-.5.95-.8.45-.5h53.5l.7-.05h1.5L65 5.55h1.5l3.65-.05h1.3l1.6 1.6.25.25V24.8l.05.05v.35l.05.05v4.5l.05.05v6"/><path fill="#999" d="M35.9.9h34.45l.2.05h.25l.9.05h.95l.75.05h1.9l.05-.05h.4l.1-.1H76l.05-.05h.65l.15.05.15.05.1.05.1.1.05.05.1.05.05.05.05.05.05.05.05.1v.05l.05.05.05.05v.1l.05.1v.1l.05.05v.1l.05.1v.35l.05.05v2.2l.05.05v1.75l.05.1v.9l-.05.1v.85l.05.05v1.55l.05.05v5.15l.05.05v.3l.05.05v.95l.05.05V40l.05.05v.35l-.05.05v.35l.05.1v.25l-.05.1v.25l-.05.1v.05l-.05.05v.1l-.05.1v.05l-.05.05-.05.05v.05l-.05.05-.05.1-.1.1-.05.05-.1.1-.1.1-.1.05-.1.05-.1.05-.15.05-.1.05h-.05l-.05.1-.1.05-.1.05-.1.05-.15.05-.1.05h-.05l-.1.05H76l-.05.05h-1.1l-.2.05h-.1l-.1.05H63.3l-.85.05H4.65l-.3.05h-2v-.05H2.1l-.15-.05-.15-.05-.15-.05-.1-.1-.1-.05-.1-.1-.1-.05-.05-.05-.05-.1-.1-.1L1 42.7v-.05l-.05-.05v-.1l-.05-.05v-.05l-.05-.05v-.05l-.05-.05-.05-.05-.05-.05-.1-.1V42l-.1-.05-.05-.05-.05-.05v-.05l-.05-.1-.05-.05-.05-.05v-.05L.2 41.5v-.05l-.05-.1v-.1L.1 41.2v-.1L.05 41v-.55L0 40.4v-.45l.05-.05-.05-.05v-.8l.05-.1v-.2L0 38.7v-.8l.05-.05v-15.5l.05-.05v-1.95l.05-.1V9l.05-.05v-5.4L.15 3.5v-.95L.2 2.5v-.25l.05-.05v-.05L.3 2.1v-.05L.35 2v-.1l.05-.05.05-.05.05-.05V1.7l.05-.05.05-.1.05-.05.1-.05.05-.05.05-.05.1-.05.05-.1.1-.05.1-.1.1-.05.15-.1.1-.05h.15L1.8.8h.25L2.1.75 2.15.7 2.2.65l.05-.1.1-.1.1-.05.05-.05.1-.05.1-.1.1-.05.15-.05.1-.05h.15L3.3 0h.55l.1.05h.15l.1.05.15.05.1.05.1.1.1.05.1.05.05.05.1.05.05.05.05.1.1.1V.8l.05.05.05.05V1h15.3l2.6-.05h12.8zm37.55 34.9v-6l-.05-.05v-4.5l-.05-.05v-.35l-.05-.05V7.35l-.25-.25-1.6-1.6h-1.3l-3.65.05H65l-1.85.05h-1.5l-.7.05H7.45l-.45.5-.95.8-.6.5v4.7l.05.05v2.1l.05.05v1.25l.05.05V36.1l.55.65.95 1.45 9.9-.05h3.45v-.05h47.1l.55.05h3.25l2.1-2.2z"/><path fill="#fff" d="M32.75 9.45h7.9l4.05.05h.45l1.1.05h.4l.4.15.25.1.15.05.1.05.2.15.15.1.2.15.1.1.1.1.05.15.1.1.05.1.15.15v.1l.1.2v.1l.05.1v.05l.05.1v1.2l-.05.1-.05.2v.1l-.1.15v.1l-.15.1-.05.15-.1.1-.05.15-.1.1-.1.1-.2.15-.05.05-.1.05-.2.1-.25.15-.25.1-.4.15h-.15l-.25.05h-1.1v.05H42.1v.3l.1.1v2.3l.05.1v8.95l-.05.1v.55l-.1.1v1.7H46l.5.05.15.05.25.05h.05l.15.1.15.05.25.1.2.15.1.1h.05l.15.15.1.15.1.1.1.15.1.1.05.1.05.15.05.05.1.05v.15l.05.1.05.1v.25l.05.1v.45l.05.1-.05.15v.2l-.05.15v.25l-.05.1-.05.1v.15l-.05.1-.1.1-.1.15-.05.1-.05.2-.2.1-.1.15-.05.05-.1.05-.1.1-.2.15-.25.1-.2.1-.25.1-.2.05-.15.05H35.15v-.05H34l-1.5-.05h-.4l-.35-.15-.3-.1-.15-.05-.1-.05-.15-.15-.2-.1-.2-.15-.1-.1-.05-.1-.05-.15-.15-.1-.05-.15-.1-.1v-.1l-.05-.05-.1-.15v-.1l-.05-.15-.05-.1v-1.2l.05-.1.05-.2v-.1l.1-.1.05-.05v-.1l.1-.1.05-.15.15-.1.05-.15.05-.1.05-.05.05-.05.2-.15.2-.1.15-.1.25-.15.3-.1.35-.15.4-.05h2.65v-.05h1.5V29l-.05-.1v-2.3l-.05-.1v-8.95l.05-.1v-.55l.05-.1v-.75l.05-.1v-.85h-3.95l-1.25-.4-.65-.4-.05-.05-.15-.1-.1-.1-.05-.15-.1-.05-.1-.25-.35-1.15v-.15l-.05-.1.05-.15v-.2l.05-.15v-.25l.05-.1.1-.1v-.15l.05-.1.05-.15.1-.1.1-.1.05-.2.15-.1.15-.15.1-.1.15-.1.15-.15.1-.05.15-.05.25-.15.2-.05.2-.05.2-.05h.45"/><path fill="#999" d="m60.3 25.85 2.85-.05 1.4.2q.65.35.55 1.15-.05.8-.75 1.05l-.85.05-6.05-.2h-.6q-.25-.05-.35-.25l-.15-.1-.1-.5.1-.3.15-.35q.5-1.25 1.85-2.25 1.1-.7 2.75-1.25.9-.25 1.3-.65l.2-.5-.15-.4-.85-.9-.95-.2-1.1.15q-.4.2-.45.3v.45l-.2.9-.7.55q-1 .35-1.65-.45-.6-.6-.45-1.55.2-.8.75-1.5l.6-.5q1.1-.9 3.3-.9l1.1.1q.95.2 1.7.95.8.7 1.1 1.65.5 1.2.15 2.25-.35 1.1-1.65 1.85l-2.35.95zm-5.95-.45.3.75-.3.55-.6.05-.65-.5-.8-.55v-.05l-.5.65q-.45.5-1 .4-.65-.1-.85-.7-.25-.5.15-1l.4-.35.4-.25.15-.15-.4-.4q-.25-.3-.25-.75.05-.55.5-.8.55-.25 1.05 0l.45.35.3.35.6-.5q.35-.3.6-.3.4-.2.7 0 .4.2.4.55.05.45-.5.95l-.4.3-.3.15-.05.05.45.95zm-32.05.45 2.85-.05 1.4.2q.65.35.55 1.15-.05.8-.75 1.05l-.85.05-6.05-.2h-.6q-.25-.05-.35-.25l-.15-.1-.1-.5.1-.3.15-.35q.5-1.25 1.85-2.25 1.1-.7 2.75-1.25.9-.25 1.3-.65l.2-.5-.15-.4-.85-.9-.95-.2-1.1.15q-.4.2-.45.3v.45l-.2.9-.7.55q-1 .35-1.65-.45-.6-.6-.45-1.55.2-.8.75-1.5l.6-.5q1.1-.9 3.3-.9l1.1.1q.95.2 1.7.95.8.7 1.1 1.65.5 1.2.15 2.25-.35 1.1-1.65 1.85l-2.35.95zm-5.95-.45.3.75-.3.55-.6.05-.65-.5-.8-.55v-.05l-.5.65q-.45.5-1 .4-.65-.1-.85-.7-.25-.5.15-1l.4-.35.4-.25.15-.15-.4-.4-.25-.75q.05-.55.5-.8.55-.25 1.05 0l.45.35.3.35.6-.5q.35-.3.6-.3.4-.2.7 0 .4.2.4.55.05.45-.5.95l-.4.3-.3.15-.05.05.45.95z"/></g></svg>