<svg xmlns="http://www.w3.org/2000/svg" xmlns:ffdec="https://www.free-decompiler.com/flash" ffdec:objectType="shape" width="75.75" height="37.75"><g fill-rule="evenodd"><path fill="#999" d="m74.35 10.95.3-.65q-.9-.35-1.45-1-.65-.65-.6-1.25l-.2.05q-.7.2-1.05.75-.35.6-.15 1.35.15.75.7 1.1.6.4 1.3.3zm-37.4 8.15.25-1.45q-.25-.95-.2-2.55l.05-1.55q.2-.95.7-1.35.85-.8 2.65-.65l1.8.15q1.5-.9 3.3-1.25l4.2.1q.8.15 1.5.55l1.25-.55 1.75.1.15.1.15.05.5.35.5.85.5 3.1q1.3 2.7 1.2 4.35l-.35 3.3q-.35 1.7-3 4.3 4.35-1.7 6.15-3.6l.2-.3.75-3.3V18.4l-.45-1.35-1.1-1.2q-1.65-.95-2.3-1.85-1-1.25-1.2-3.3-.2-1.75.45-2.9.6-1.2 2.2-1.95l2.45-.3q1.35.1 2.4.75.95.7 2.05 2.6l1.45 2.65q.9 2.4.55 5.6-.45 3.35-2.2 6.35-1.85 3-4.6 4.95-2.7 2-6.05 2.8l-4.1.1q.65 1.6 1.6 2.75l2 2.3 1.35 1.35h-12.4q-.45-1.35-.75-2.85l-.3-1.45q-2.4-.7-3.65-.7L37 32.8l-.8-.05-.75.15-2.45.65-1 .3q-.7.4-1.1.2-.2-.1-.25-.4l.1-.55.8-.65q3.4-1.75 7.3-2.05h1.75l-.25-.1q-1.6-.65-4.15-.4h-.15l-.1-.25.15-.25.3-.25.85-.25 2.6-.35 1.55.05-.05-.75Q39.05 26 38.1 24.4q-1.25-2.2-1.15-5.3M75.2 4.4l.55-.2v23q-.75.7-1.85.95v.2l-.65 1.15-.9 1.05q-.7.8-1.9.8l-2.1-.45-.95-.55-1.4-1.7q-.05-.25.05-.45l.4-.05.3.2q.8.55 1.75.75l.5.05 1.2-.45.35-.3.15-.35-.15-.35q-.9-.45-1.45-1.25l-.7-1.3q-1.1-2.6-.55-5.3.35-1.95 1.35-3.5-.4-.75-.55-1.7-.35-1.85.4-3.7.65-1.9 2.15-3.05l.95-.6 1-.25L73.1 7q.4-1.85 2.1-2.6m-4.3 9 .25.7.25.45q.55.45 1.25.3 1.05-.15 1.2-1.05l-.05-.5-.05-.15.1-.15v-.05l.3-.15.05-.15.05-.15-.1-.1-.35-.3-.25.1-.3.25q-.3-.25-.7-.35l-.75.2q-.8.5-.9 1.1m-29.05 5q-.65.5-.85 1.2l-.15.8-.05.85.25 1.2.25.4 1.3 1 1.7.1q1.3-.3 2-1.4l.5-1.15-.75-.3q-1.35-.55-3-1.85L42 18.3zm8.8 2.8.4.7q.9 1 2.2 1 1.35 0 2.2-1l.1-.1q.9-1 .75-2.2-.15-1.25-1.15-1.95-.35-.25-.7-.35l-.05.2q-.05.5-.5 1.1-.6 1.15-1.35 1.7l-1.65.8zM32.1 7.25h-.3v1.1q-.25.75-1.05 1-.7.25-1.35-.3l-.35-.35-.85-.45-1.55-1.1-.75-.65q-.4-.4-.4-.9 0-.65.7-1.2l1.25-.8.85-.7q.35-.3.95-.55.65-.3 1.25-.25.7 0 1.05.6l.2 1.15v.4h1l1.15.05h.55l.4.05h.55l.2.05h.3l.05.05h.1l.05.05h.25l.35.05h.2l.1.05h.05l.1.05.2.05h.3l.3.05h.25l.1.05h.05l.1.05.1.05h.15l.15.05h1l.05.05.1.05.15.05.1.05.05.05.1.1.05.1.05.05v.1l.05.05v.3l-.05.05v.15l-.05.05-.05.05-.1.1-.1.05-.1.1-.1.05-.15.05h-1.1l-.05.05h-.15l-1.1.2h-.1l-.05.05h-.15l-.05.05h-.05l-.15.05h-.55l-.1.05h-.15v.05h-.15l-.1.05-.25.05h-.95l-.4.05h-.15l-1.2.05z"/><path d="M42.2 5.15h-.8l-1.2-.05h-.15l-.4-.05h-.95L38.45 5l-.1-.05h-.15V4.9h-.15l-.1-.05h-.55l-.15-.05h-.05l-.05-.05H37l-.05-.05h-.1l-1.1-.2h-.15l-.05-.05h-1.1l-.15-.05-.1-.05-.1-.1-.1-.05-.1-.1-.05-.05L33.8 4v-.15l-.05-.05v-.3l.05-.05v-.1l.05-.05.05-.1.1-.1.05-.05.1-.05.15-.05.1-.05.05-.05h1l.15-.05h.15l.1-.05.1-.05H36l.1-.05h.25l.3-.05h.3l.2-.05.1-.05h.05l.1-.05h.2l.35-.05h.25l.05-.05h.1l.05-.05h.3l.2-.05h.55l.4-.05h.55l1.15-.05h1v-.4l.2-1.15Q43.1 0 43.8 0l1.25.25.95.55.85.7 1.25.8q.7.55.7 1.2 0 .5-.4.9l-.75.65-1.55 1.1-.85.45-.35.35q-.65.55-1.35.3-.8-.25-1.05-1v-1.1zM39.8 19.1q.1 3.1-1.2 5.3-.9 1.6-3.25 3.45L35 32.1q.55.6 4.35.05l.6.2q.25.25.1.6l-.25.2-.4.2-3.75.85h.1l2.55.3 3.4-.1 1.7-.3q.75-.2.95 0 .25.25.05.7l-.6.45-1.9.9-3.45.65-4.45-.1-.35 1.05h-12.4l1.35-1.35 2.05-2.3 1.6-2.75-4.1-.1q-3.35-.8-6.1-2.8-2.75-1.95-4.6-4.95-1.75-3-2.15-6.35-.35-3.2.5-5.6.55-1.2 1.45-2.65 1.15-1.9 2.1-2.6 1-.65 2.4-.75l2.4.3q1.65.75 2.25 1.95.6 1.15.4 2.9-.15 2.05-1.2 3.3-.6.9-2.25 1.85l-1.15 1.2q-.35.75-.4 1.35v1.45q.2 1.9.7 3.3l.25.3q1.8 1.9 6.1 3.6-2.6-2.6-2.95-4.3-.35-1.75-.4-3.3-.1-1.65 1.2-4.35l.5-3.1q.3-.6.55-.85l.5-.35.1-.05.15-.1 1.75-.1 1.3.55 1.5-.55 4.2-.1q1.8.35 3.3 1.25l1.8-.15q1.8-.15 2.6.65.55.4.75 1.35l.05 1.55-.2 2.55zM2.45 10.95q.45.5 1.15.65l1.3-.3q.55-.35.7-1.1.2-.75-.15-1.35Q5.1 8.3 4.4 8.1l-.2-.05q.05.6-.6 1.25-.55.65-1.45 1zM34.9 18.4l-.15-.1-1.1.95q-1.65 1.3-3 1.85l-.7.3.45 1.15q.75 1.1 2 1.4l1.7-.1 1.3-1 .25-.4.3-1.2-.05-.85-.2-.8zm-8.85 2.8-.25-.1-1.65-.8q-.7-.55-1.35-1.7l-.5-1.1v-.2l-.7.35q-1 .7-1.15 1.95-.15 1.2.7 2.2l.1.1q.9 1 2.25 1 1.3 0 2.15-1zM0 11.4V4.25l.85-.1.75.25q1.7.75 2.1 2.6l-.05.05 1 .25.95.6q1.5 1.15 2.15 3.05.75 1.85.4 3.7l-.55 1.7q1 1.55 1.35 3.5.55 2.7-.55 5.3l-.7 1.3-1.45 1.25-.15.35.15.35.35.3 1.2.45.5-.05 1.75-.75.3-.2.4.05.05.45-1.4 1.7-.95.55-2.1.45q-1.2 0-1.9-.8l-.9-1.05q-.55-.6-.65-1.15v-.2Q1.7 27.9.95 27.1L0 25.85V21.4l.35-.65.45-.6L0 20v-7.05l.2-.45.6-.65-.05-.1Q.4 11.5 0 11.4m5.9 2q-.1-.6-.9-1.1l-.75-.2q-.4.1-.7.35l-.3-.25-.25-.1q-.2-.05-.35.3l-.1.1.05.15.05.15.3.15V13l.1.15-.05.15-.05.5q.15.9 1.2 1.05.7.15 1.25-.3l.25-.45z"/><path fill="#fff" d="m26.05 21.2-.4.7q-.85 1-2.15 1-1.35 0-2.25-1l-.1-.1q-.85-1-.7-2.2.15-1.25 1.15-1.95l.7-.35v.2l.5 1.1q.65 1.15 1.35 1.7l1.65.8zm8.85-2.8.8 1.2.2.8.05.85-.3 1.2-.25.4-1.3 1-1.7.1q-1.25-.3-2-1.4l-.45-1.15.7-.3q1.35-.55 3-1.85l1.1-.95zM2.45 10.95l-.3-.65q.9-.35 1.45-1 .65-.65.6-1.25l.2.05q.7.2 1.05.75.35.6.15 1.35-.15.75-.7 1.1l-1.3.3q-.7-.15-1.15-.65m-2.45 2V11.4q.4.1.75.35l.05.1-.6.65zm5.9.45-.25.7-.25.45q-.55.45-1.25.3-1.05-.15-1.2-1.05l.05-.5.05-.15-.1-.15v-.05l-.3-.15-.05-.15-.05-.15.1-.1q.15-.35.35-.3l.25.1.3.25q.3-.25.7-.35l.75.2q.8.5.9 1.1"/></g></svg>