<svg xmlns="http://www.w3.org/2000/svg" xmlns:ffdec="https://www.free-decompiler.com/flash" ffdec:objectType="shape" width="69.95" height="36"><g fill-rule="evenodd"><path fill="#999" d="m62.3 25.35-.85.1q-.4.25-.5.7-.15.9.65 1.6.6.5 1.45.6 1.15.05 2.2-.9 1.7-1.6 1.45-3.75-.15-1.05-.8-1.9-.7-.85-1.7-1.2-1.5-.5-3.75.35-2.55.8-3.9 2.25-1.15 1.35-1.55 3.4-.4 1.75-.05 2.7.25.75 1.05 1.75l1.25 1.35q.7.5 1.65.8l5.9 1-1.7 1.35-1.7.35q-4.25.4-6.6-1.05-1.05-.65-2.2-1.9l-1.1-1.3q-.45-.9-.45-2.2-.15-1.6.05-3 .45-4 3.45-6.6 1.05-.85 2.55-1.6 4.75-2.5 8.35-1.2 2.75 1.05 3.9 3.7l.5 1.8q.25 1.9-.3 3.7Q69 28.1 67.7 29.5q-1.6 1.65-3.55 2.1-2.2.5-4-.55l-1.35-1.1-1-1.35q-.25-.75-.15-1.95.2-1.6.65-2.5.6-1 1.8-1.5l2.4-.3q1.55.2 2.1 1.3.35.75.05 1.5l-.7.75q-.5.25-.95 0zm-51-16.6-.85.1q-.4.25-.5.7-.15.9.65 1.6.6.5 1.45.6 1.15.05 2.2-.9 1.7-1.6 1.45-3.75-.15-1.05-.8-1.9-.7-.85-1.7-1.2-1.5-.5-3.75.35-2.55.8-3.9 2.25Q4.4 7.95 4 10q-.4 1.75-.05 2.7.25.75 1.05 1.75l1.25 1.35q.7.5 1.65.8l5.9 1-1.7 1.35-1.7.35q-4.25.4-6.6-1.05-1.05-.65-2.2-1.9l-1.1-1.3q-.45-.9-.45-2.2-.15-1.6.05-3 .45-4 3.45-6.6Q4.6 2.4 6.1 1.65q4.75-2.5 8.35-1.2 2.75 1.05 3.9 3.7l.5 1.8q.25 1.9-.3 3.7Q18 11.5 16.7 12.9q-1.6 1.65-3.55 2.1-2.2.5-4-.55l-1.35-1.1-1-1.35q-.25-.75-.15-1.95.2-1.6.65-2.5.6-1 1.8-1.5 1.15-.5 2.4-.3 1.55.2 2.1 1.3.35.75.05 1.5l-.7.75q-.5.25-.95 0z"/><path d="M58.7 5.3q.7.1.85.65.25.6-.3 1l-1.05.1q-.55-.35-.4-1 .1-.6.7-.7zm-6.15 2.2q.3-.65.95-1l1.35-.3q.75.1 1.3.65l.65 1.2q.1.7-.2 1.4-.3.65-.95 1-1.4.75-2.65-.4-.5-.5-.6-1.2-.15-.7.15-1.35M38.2 2.85Q40.3 3.9 42 6.5l1.7-1.55q1.7-1.5 2.75-1.75 1.65-.4 2.9.75l.25.25.3.2q1.05.75 1.1 1.9.05 1.7-2.15 3.7l-4 3.5.05.3q.7 3.8-.15 7.45l-.85 3.05-1.5 4.1.3.65q.2.65 0 1.3t-.8 1.05-1.3.4l-.7-.15-.75.55q-2.2 1.7-4.95 2.1-2.85.4-5.15-.9-1.2-.65-2.1-1.7l-1.25-.3q-1.25-.6-1.15-1.95 0-.4.15-.75l-1.5 1.1-1.9 1.1q-1.35.3-2.1-.45-1.05-1.15.35-3.3 1.05-1.5 3.35-3.45l.9-.7-.25-2.25q-.25-2.55-.2-4.35.15-3.35 1.3-6.15 1.7-4.4 5-6.6.2-.7.8-1.3.75-.85 1.75-.95 1.05-.15 2 .5l.3.2q2-.1 3.7.75m-7.25 25.1q1 1.45 2.4 1.4l1.1-.25q1.75-.6 2.6-1.65l.75-1.25q1.9-4.1 2.05-8.3l.05-.5-4.85 3.65-1.35 1-3.9 3.1q.45 1.85 1.15 2.8M37.3 9.4l-1-1.1-2-.15-1.9.45q-.9.5-1.6 1.75-.9 1.4-1.5 3.55-.45 1.85-.35 4.4l8.9-8.05zM21.15 22.55l-.3.9q-.35.35-.8.4-.6.1-1.05-.35-.4-.4-.4-1.05.1-.75.55-1 .4-.35.95-.25.5.05.85.5z"/></g></svg>