<svg xmlns="http://www.w3.org/2000/svg" xmlns:ffdec="https://www.free-decompiler.com/flash" ffdec:objectType="shape" width="76.3" height="40.65"><g fill-rule="evenodd"><path fill="#999" d="M69.95 16.8q-1.1-.2-2.6-1.1-1.1-.65-1.5-1.35l-.2-.45-.55.1q-1.55.15-2.6-1.05l-.3-.4q-.15-.25-.15-.9 0-1.05.3-1.45l.25-.25q.75-.85 1.5-1.05l.4-.05 1.35.1.65.25q.6-.95 1.5-1.55l.35-.2-.05-.9q0-1.25.35-1.8l.4-.45.9-.65 1-.15 1.15.2q.6.4.95 1.3l.2.45.05.55-.15 1.15-.1.35.75.7q.8 1 1.05 2.55l-.15 2.55.65.95.7 8.15.2.75q.25 1-.75 1.65l-1.9.05q-.55-.25-1.6-1.4-1-1.2-1.25-1.95l-.15-.9q-.2-2-.1-3.7zm-.8-4.15-.05-.15-1 .2-.4-.1v-.05l-.3-.05-.55-.3-.35-.25v-.05l-.1.05-.1.2-.15.2-.15.7.05.3.15.45.2.3.7.4.6.1.6-.2.35-.15.4-.6.15-.3v-.4zm1.5-3.5v.1l.05 1.2-.05.55-.1.4-.15.3.75.3v.05h.45V12l.4-.1.5-.35.25-.4.1-.2.05-.25-.05-.7-.15-.3-.1-.15-.75-.5-.5-.1V9l-.45.05zm-23 23.95q-1.55-.75-2.25-2.35l-.45-1.65-.75-.1q-1.5-.45-2.05-1.4-.45-.8-.35-1.85l.05-.9.45-1.05.9-.95q.5-.5 1.05-.7L45 22q1-.1 1.8.35l.9.75 1.1-.7q1.55-.7 3.15-.45l.4-.6q.95-1.15 1.95-1.6 1.4-.6 2.45 0 .6.35.9 1 .35.65.25 1.35-.1.75-.75 1.65l-.75 1.3.45 1.3q.7 2.8-1.1 5.1l-.15.2.05.05 1.85 3.05.9 2.5.1.85q-.05.6-.6 1.05-.5.45-1.1.35h-.55l-.5.25-1.65-.1q-.05-.15-.3-.15-.1-.05-.3.15l-.95.1-.45-.1-.45.2-1.45.1-.45-.3-.3.05-.95-.2-.7-.75q-.15-.45-.15-1.35l.1-1.5q.1-1.05.75-2.5zm-1.2-4.5.45.4.5.1v.05h.45v-.05l.4-.1.55-.35.35-.55.1-.65-.2-.05-1.05-.35-.65-.5-.45-.55-.55.35-.15.25-.15.4-.05.5.05.5.1.25zm8.75-3.45-.2-.25-.2-.25-.35-.25-.5-.1-.9 1.55-.6.55-.25.15.1.25q.7.9 1.7.65l.45-.15.7-.6.05-.1.1-.35.05-.35-.05-.5zM22.25 21l.3-.05.45-1.1.4-.45.7-.5 1.05-.05.55.05.4.15.5.3q.8.65.8 1.6l-.15.7-.4.85-.5.6.1.3.3 1.4.15 1.45q.1 1.95-1.05 3.65l-.15.25.75 2.85q.45 1.75.05 2.9-.35 1.2-1.55 2.05-.85.65-2.1.95l-.1.1q-.75.7-2.05.7l-1-.2-1-.6-1-1q-.45-.7-.55-1.8-.05-.8.2-1.95l.25-1.05q.25-.85.75-1.6l.9-2q-1.15-1.4-1.2-3-1.3 0-2-.65l-.8-.95-.15-.3q-.15-.45-.05-1.05l.05-.6q.1-.5.7-1.2l.3-.35.45-.35q.4-.25 1-.35h.7l.75.2.4.3.45.25.4.5.05.1q1-.8 1.95-1.05m2.65 5.05h.45V26l.6-.25.2-.15v-.1l.1-.1.15-.25v-.1l.05-.35-.05-.3-.15-.4q-.35-.55-1.15-.65v.05h-.05l-.1.2-.55.75-.6.35v.3l.05.1.05.15.05.1.95.65zM8.35 3.8q1.15-.7 2.45-.4l.2-.35q.5-.45 1.15-.7l1-.15.1-.05q.9.1 1.55.8l.2.5.05.3-.1 1.1-.2.35-.5.65-.75.55v.05l.1 1.75-.2.9-.55.8-1.55 1.35-2 .4-.55-.05-.05.1-.4 1q-1.1 2.35-2.8 2.95l-1.5.3-.8.05q-.8-.05-1.6-.7L.5 13.95l-.3-.6-.15-1.25.35-1.7q.8-2 3.25-2.85l2-.2.1.05v-.15l.05-.1-.3-.1-.5-.3-.45-.4-.4-.6-.15-.4q-.15-.6.1-1.25l.05-.25.65-.65.35-.25 1-.05.95.25.4.3.5.6zm13.4 22.55v-.9l-.95.15-.5-.05q-.5-.15-.7-.5l-.05.05q-.25.4-.25.85.05.5.35.8.3.35.8.4l.85-.2.3-.3zM8.75 8.2q.9-.15 1-1.1v-.25L9.5 6.8l-.35-.15-.3-.3-.45-.55-.4.1q-.55.35-.6.8-.2.55.25 1.1.5.5 1.1.4m2.65-.05.65.45.8-.05q.9-.45.65-1.35-.1-.45-.55-.75l-.15-.05h-.05l-.4.3-.45.2-.4.1-.2.05q-.3.6.1 1.1"/><path fill="#fff" d="m70.65 9.15.25-.1.45-.05v-.05l.5.1.75.5.1.15.15.3.05.7-.05.25-.1.2-.25.4-.5.35-.4.1v.05h-.45V12l-.75-.3.15-.3.1-.4.05-.55-.05-1.2v-.1m-1.5 3.5.05.3v.4l-.15.3-.4.6-.35.15-.6.2-.6-.1-.7-.4-.2-.3-.15-.45-.05-.3.15-.7.15-.2.1-.2.1-.05v.05l.35.25.55.3.3.05v.05l.4.1 1-.2zM55.2 25.15l.1.25.05.5-.05.35-.1.35-.05.1-.7.6-.45.15q-1 .25-1.7-.65l-.1-.25.25-.15.6-.55.9-1.55.5.1.35.25.2.25zm-8.75 3.45-.3-.35-.1-.25-.05-.5.05-.5.15-.4.15-.25.55-.35.45.55.65.5 1.05.35.2.05-.1.65-.35.55-.55.35-.4.1v.05h-.45v-.05l-.5-.1zM24.9 26.05V26l-.95-.65-.05-.1-.05-.15-.05-.1v-.3l.6-.35.55-.75.1-.2h.05v-.05q.8.1 1.15.65l.15.4.05.3-.05.35v.1l-.15.25-.1.1v.1l-.2.15-.6.25v.05zM11.4 8.15q-.4-.5-.1-1.1l.2-.05.4-.1.45-.2.4-.3h.05l.15.05q.45.3.55.75.25.9-.65 1.35l-.8.05zm-2.65.05q-.6.1-1.1-.4-.45-.55-.25-1.1.05-.45.6-.8l.4-.1.45.55.3.3.35.15.25.05v.25q-.1.95-1 1.1m13 18.15-.15.3-.3.3-.85.2q-.5-.05-.8-.4-.3-.3-.35-.8 0-.45.25-.85l.05-.05q.2.35.7.5l.5.05.95-.15v.9"/><path d="M59.05 31.05q-1.1-.6-2.2-2.15-.8-1.05-1.05-2.05l-.1-1.45q-.1-1.95.25-3.2l-.3-.25-.5-.75q-.55-1.1-.55-2-.05-1.05.65-1.95l.55-.4q.9-.7 1.65-.85h.6q.95.1 1.35.35l.55.55.4.55.2.45 1.7-.4 1.85-.25h.1q.75-1.5 2.5-2.4l.95-.4.95-.1 1.5.2q1 .4 1.6 1.95.6 1.45.2 2.65l-.3.65-1.1 1.05-.35.25.55 1.95q.25 2.15-.55 4.2l-1 1.8q1.55 1.6 2.85 5.2l.9 3-.1 1.45-.7.75-1 .2q-1.05-.1-1.65-1.15l-1.05.85q-.75.2-1.3-.2-.1.6-.6 1.05t-1.15.45q-.6 0-1.15-.45-.5-.45-.6-1.05h-.7q-.4 1.05-1.6 1.15l-1-.35-.6-.85-.1-1.05q.05-1.25.45-3.55l.55-2.85zm4.8-7.3.6.45 1.35.1.25-.1.35-.2.65-.95.1-.55-.15-.65-.15-.3-.15-.2q-.45-.55-1.05-.65l-.1.35-.3.7-.25.3-.25.45-1 .85-.1.05v.05zm-35 2.35q-1.4-.7-2.3-1.4l-1.05-1q-1.85-1.95-2.3-3.75l-.6-3.15q-.45-2.3.65-4.85l-2-2.55-.65-.9q-.3-.85.4-1.65.5-.55 1.45-1l1.6-.65 5.4-1.15 1.05-.15.2-.1 2.4-.6q2.35-.3 4.7-.05l3.6-2.2Q42.9-.1 43.6 0q.75.15 1.15.85l.2 1.1.85 4.15.4 2.15.1.15.65 1.1q1.4 2.8.75 7l-.75 3.2-.75 2-1.1 1.7-1.85 2-1.45 1.05q.25 2.25 1.25 8.05l.6 4.55v.15H33.8l-.15-.4-1.15-.1-.35-.1-.4.1-.45.4-.05.1h-8.1l-.2-.5-1.15-3.55-1.5-3.4-1.5 1-1.8.3q-1.4-.25-1.95-1.75-.4-1.4.4-2.7.6-1.05 2-1.85 1-.5 1.55-.6l2.05.05q.85.15 1.4.45 1.15.65 2.15 2.85 1.65 3.65 2.55 7.7.35-3.1.65-4.55.5-3.1 1.5-6.3zm1.35-13.15q-.5-.7-1.35-.8l-.9-.05h-.45l-.3.1-.55.25q-.55.35-.75.85l-.15.3-.05.35-.05 1q0 .55.3 1l.1.15h.35l1.2.2 1.25.55.65-.4.45-.35.55-.9.15-1.3-.05-.3zm34.7 13.5.05-.1-.05-.1.05-.05-.05-.15-.25-.35-.3-.1-1-.15-.85.1-.1-.45-.1-.2-.55-.3-.05.05h-.05l-.35.35q-.25.25-.15.55l.05.1-.75.05-.3.2-.8.4q-.4.4-.3.75l.05.15.1.2.55.15.55-.25.45-.35q.35-.35.6-.35l.1-.05q1.1-.4 1.7-.25l.4.15.5.1.6.05zm-7.05-1.4.55.05.5-.1.45-.4.2-.3.05-.1-.6-.3-.8-.85-.3-.4-.15-.25-.1.05-.3.2-.3.35-.15.4v.6l.1.35.25.35.15.1zm-12.95-9.1q-.8-.05-2.05.55l-2.1.7-2-.3-2-.6q-1.65-.25-3.15.55l-1.1.75-1.5.7-1.25.3-1.4-.15-1.4-.35h-.6l-.4.4.35.55q1.45 1.3 3.55 1.55 2.05.15 3.75-.85l.95-.55q.6-.35 1.05-.45l1.55.2 1.5.5 3.1-.2 2.75-1.5.9-1.2-.1-.45zm-4.05-2.55.4.8.35.3.6.35.25-.15.25-.05.35-.15 1.1-.25.4-.1.6-.05h.05l.15-.25q.45-.7.2-1.7l-.2-.45-.25-.4-.25-.3-.75-.5-1-.1-1.1.2-.55.4-.35.35q-.45.5-.35 1.5zm-24.8 3.95q.8 1.05 1.1 2l.2 1.05.2 1.75q-.05 1-.65 2.15-1.1 2.15-3.1 3.2-1.45.75-3.45.9h-1v2.65l-.2 1.3q-.6 2.8-1.75 4.5l-1.9 2.2q-1.15 1.15-2 1.2-.95 0-1.4-.7l-.3-.7-.7-.15q-.55-.35-.8-1.2l-.05-1.4-.2-5.6.1-1.8.55-1.1Q2 25.65 4 24.4h.05l-.1-.25q-.2-.7-.1-1.7l.05-.35-1.65.1-.7-.25q-.5-.25-.75-1l-.15-1.3q.1-1.75.7-2.5l.75-.65 1.25-.7 1.55-.15q1.25.1 2.35.8 1.25-.8 2.8-1.05-.4-1.1.4-2.15l.35-.4.7-.5.65-.1 1.5.15q.55.15 1.4.9.8.7.35 2.15l.05.8-.05.35zM14 19.3l.5.3.2.05.6-.05.6-.3.2-.4.1-.3.05-.45-.05-.2-.1-.2-.2-.3-.65-.4h-.45l-.35 1.1-.3.55-.35.35zm1 1.85-.65-.05-.7.05-.2-.4-.25-.15-.4-.1q-.3.1-.45.3l-.1.4.05.2-.55.15-.4.2-.4.3-.4.25-.45.5q-.35.25-.4.6-.1.5.1.75.25.3.65.3.35 0 .7-.35l.3-.55.3-.35 1-.75.4-.15.2-.1 1.25-.15h.75l.45.1q.5-.1.3-.5-.1-.2-.55-.3zM7.8 19.4l-.25.35-.05.2-.05.35v.45l.15.4.15.2.5.35.35.15 1-.2.4-.3.25-.55.05-.4v-.2l-.85-.25-1-.45-.25-.35-.1.05z"/><path fill="#fff" d="m63.85 23.75-.2-.3v-.05l.1-.05 1-.85.25-.45.25-.3.3-.7.1-.35q.6.1 1.05.65l.15.2.15.3.15.65-.1.55-.65.95-.35.2-.25.1-1.35-.1zm-23-10.35-.1-.55q-.1-1 .35-1.5l.35-.35.55-.4 1.1-.2 1 .1.75.5.25.3.25.4.2.45q.25 1-.2 1.7l-.15.25h-.05l-.6.05-.4.1-1.1.25-.35.15-.25.05-.25.15-.6-.35-.35-.3zm4.05 2.55.4.15.1.45-.9 1.2-2.75 1.5-3.1.2-1.5-.5-1.55-.2q-.45.1-1.05.45l-.95.55q-1.7 1-3.75.85-2.1-.25-3.55-1.55l-.35-.55.4-.4h.6l1.4.35 1.4.15 1.25-.3 1.5-.7 1.1-.75q1.5-.8 3.15-.55l2 .6 2 .3 2.1-.7q1.25-.6 2.05-.55m12.95 9.1-.45-.25-.15-.1-.25-.35-.1-.35v-.6l.15-.4.3-.35.3-.2.1-.05.15.25.3.4.8.85.6.3-.05.1-.2.3-.45.4-.5.1zm7.05 1.4-.25.15-.6-.05-.5-.1-.4-.15q-.6-.15-1.7.25l-.1.05q-.25 0-.6.35l-.45.35-.55.25-.55-.15-.1-.2-.05-.15q-.1-.35.3-.75l.8-.4.3-.2.75-.05-.05-.1q-.1-.3.15-.55l.35-.35h.05l.05-.05.55.3.1.2.1.45.85-.1 1 .15.3.1.25.35.05.15-.05.05.05.1zm-34.7-13.5.4.65.05.3-.15 1.3-.55.9-.45.35-.65.4-1.25-.55-1.2-.2h-.35l-.1-.15q-.3-.45-.3-1l.05-1 .05-.35.15-.3q.2-.5.75-.85l.55-.25.3-.1h.45l.9.05q.85.1 1.35.8M7.8 19.4l.3-.2.1-.05.25.35 1 .45.85.25v.2l-.05.4-.25.55-.4.3-1 .2-.35-.15-.5-.35-.15-.2-.15-.4v-.45l.05-.35.05-.2zm7.2 1.75.55.2q.45.1.55.3.2.4-.3.5l-.45-.1h-.75l-1.25.15-.2.1-.4.15-1 .75-.3.35-.3.55q-.35.35-.7.35-.4 0-.65-.3-.2-.25-.1-.75.05-.35.4-.6l.45-.5.4-.25.4-.3.4-.2.55-.15-.05-.2.1-.4q.15-.2.45-.3l.4.1.25.15.2.4.7-.05zm-1-1.85-.2-.25.35-.35.3-.55.35-1.1h.45l.65.4.2.3.1.2.05.2-.05.45-.1.3-.2.4-.6.3-.6.05-.2-.05z"/></g></svg>