<svg xmlns="http://www.w3.org/2000/svg" xmlns:ffdec="https://www.free-decompiler.com/flash" ffdec:objectType="shape" width="76.75" height="43.5"><g fill-rule="evenodd"><path fill="#999" d="m6.7 31.9.35 1.5q0 1.05-.6 1.4l-1.1-.1-.5-.8-.85-.2-1.05-.05-.65.15-.65-.05q-.4-.15-.5-.75v-.65L1 32.2l-.1-.75v-.75q.1-.45.5-.6l.15-.05-.05-.8.15-8.45-.1-3.05-.1-2.9-.15-1.3q.05-.45.4-.8l-.75-.95q-.2-.55.15-1.15l.3-.35-.65-.7Q.4 9.05.45 8.55q.1-.65.7-.75.45-.05 1.2.6l2.05 1.75 4.35 3.4 1.1.7-1-.9-6.9-7.4Q.7 4.6.85 3.7q.1-.65.7-1l.8-.25Q2.2 1.5 2.8.9 3.45.25 4.3.6q.45.15 1.05.85l.55.65.2-.1q.85-.3 1.6.3l1.2 1.15 8.9 10.85.1.15q-1.25-2.7-2.3-4.25l-2.25-3.4-.6-1.2-.7-1-1.35-1.65-.35-.6q0-.45.25-.6l.55.1.1-.2.8-.5q.6-.05 1.15.5l.75 1.05 1.4 2.2 1.15 2.75 1.25 1.9 3.95 7.7.1.55.5.7.45.45.2.6.05.55-.05.3.85 1.45.1.45 1.9 1.3q.55.45.65.85l-.15.75-.6.45q-.6.1-1.45-.45l-1.4-1.05-.65-.5-1.25-.65-3.4-1.75.55 1.15.65.8.65 1.1-.3.45-.8.05-.5-.35-5.15-.15-1.5.5q-1.4.6-1.95 1.1l-.8 1q-.85 1.2-1.35 2.35-.55 1.55-.35 2.65M38.6 2.6l.25.3h.35l1.15-.2 1.4-.1.45.1.2-.2q.25-.2.9-.3l3.75-.15 1.05.15.1.05h.9l2.75-.05 2.7-.3 2.65.3.65.35.3-.25 1.55-.9.8-.3 1.4-.25h.8q.85.15 1.3 1.1l.05.1 3.15-.5 3.1.4 1.9-.1h.65l.65.15.65-.05 1.55-.25.85.55q.3.4.1.95l-.4.9-.3.45L75 6l.3 1.15.1 2.25-.15 1.8-.3 3.05.15 1.2q0 .7-.35 1.05l-.8.3-.8-.2q-.7-.45-.85-1.5l.05-1.7.3-2.4.15-2.25q-.05-1.25-.6-2.1-.45-.75-1.3-1.25-2.5-1.55-6.35-.85l-1.85.6q-1.05.5-2.65 2.1l-2 2.4.15.4q.2.95-.7 1.4l-1.55-.1-.75-.75q-.5-.5-.9-.55l-.65.1-2.3 1q-1.15.65-1.9 1.95l-.25.4-.45.05-.35-.3-.05-.45.15-.9.1-.5.45-.6 1.45-1.45.85-.5q.8-.4 1.45-.65l-.9-.35-.35-.05-.3.1-1.4.8-.55.4-1.1-.15-.35-.45h-.1v.35l-.05 1.75-.1.55.2.7.2.9-.25 1.4q-.35.55-1 .45t-.9-.7l-.6-3.05-.25-.45-.4-.95-.1.75-.25.95-.8 2.05-.4.6-.6.4q-.45.1-.8-.35-.25-.25-.2-.7l-.9-.1q-.9-.35-1.45-1.35l-.8-1.95L36.35 5q-.6-1.2-.65-1.95 0-1.3 1-1.55l.85.15.45.45q.4.05.6.5m33.55 19.45-.2-.75-.85-1.45q-.4-.5-1.25-.85-1.5-.55-3 0l-.9.35-.25.1-.5.6-.7.55-.45.2-.35-.15-.05-.4.25-.4.2-.9.15-.25-.05-.7q.1-.45.6-.8l.05-.5.1-1.4-.15-1-.5-.95q-.75-.75-1.9-.55l-1.85.8-1.1.95-.65 1.05-.8.95-.25.15-.65.3-.85-.15q-.5-.15-1.05 0l-.3.2-.25.4L54 18.5l-.2.95.2.55.1.3-.1.4-.4.1-.5-.55-.25-.35-.3-1.05-.05-.45.2-.65.8-1.95.55-.5.7-.45.7-.15.7-.05.5-.05.7-1.4q.45-.6 1.45-1.3l1.6-1q1.15-.55 2.6-.55 2.05.1 3.15 1.4.8.95.9 2.55l-.1 2.15q2.25-.4 4.05.5l.95.55 1.25 1.25.55.95.35 1.85v1.05q-.15 2.55-1.5 4.25-.95 1.05-2.2 1.55l-.7-.05q-.2-.3.05-.65l.55-.4.65-.8.85-1.7.3-1.75zm-8.3 3.45q.55.4.55 1.1 0 .65-.5 1.15-.55.55-2.1.85l-2.15.35-6.8.95-4.45.3-.65-.05q-.35-.1-.4-.4-.05-.35.4-.7.5-.35 1.8-.8l2-.55 4.9-.95 4.85-1.15 1.25-.4q.8-.1 1.3.3m-6.2-19.65-.2.7.15.55q1.3-2.2 3.55-3.65l-1.1.4-.65.35-.25.15q-.75.5-.95.7zM54.5 7.7l.45-.05-.1-.25v-.45l.35-1.3.4-.7h-.1L53.95 5q-.85.2-1.3.75l-.15.2.4.2q.55.2.8.5l.45.75.15.35zM43.2 6.5v.4l.25-.15zm7.15 9.4q.75-.35 1.3.15.65.4.65 1.15 0 .6-.55 1.4l-3.05 5.2-1.25 2-1.55 2.35q-.2.2-.45.2-.45 0-.45-.5l.1-.7q.6-1.85 1.35-3.6l2.65-5.95q.65-1.45 1.25-1.7m.5 17.7q.05-.3.6-.4l7.25-.55 3.55.05 3.6-.05 1.75.25q.65.4.65 1.1.1.8-.5 1.2-.6.5-1.95.4l-9.2-.65-5.1-.85q-.7-.1-.65-.5m15.6 7.6-.9.1-.9-.05-.7-.3-.5-.25-.3-.45-.4-.45q-.25-.25-.15-.5.15-.35.55-.25l.6.25 1.85.2 1.75-.55 1.3-.7.65-.7.7-1.45v-1.15l.1-.15v-.2l.1-.35q.15-.2.45-.3l1.15-.85.4-.7.15-.35-.05-.95-.15-.5-.35-.8-.2-.35q-.1-.4.25-.65l.55-.15.4.1.25.35.45.45q.3.3.2.6l.2.3.05.4.15 1.55-.25.7-.6 1.15-.4.4-.4.4h.05l.6.7.4.75.25.8.05.95-.05.9-.15.5-.75 1.75-1.25 1.35q-.9.5-1.8.4l-.6-.15-.35-.2q-.25-.45.15-.7l.35-.1.45-.25.4-.15q.6-.15 1-.65l.45-1.05.3-1.1.05-.45-.15-.75-.2-.4-.55 1.05-.75.95q-.95 1.15-2.9 1.75zM4.35 23.3l.65-1 .5-.45q-.55.05-1-.3-.35-.25-.45-.2-.25.05-.25.5v2.5zm.75 5.2q.4-1.05 1.5-2.5l1.55-1.65q.75-.6 2-1.15 1.2-.5 1.8-.65h.15l-3.3.3-1.5.6q-.85.6-1.4 2.15l-.6 1.85q-.2.65-.25 1.25zm14.4-.25 2.05.05 2.85.15q1.15.15 2.35.7 1.5.75 2.05 1.65.25.6-.05.8l-.6-.05-.4-.45-.75-.35-1.85-.45q-1.4-.15-3.25-.05l-2.7.2q-1.95.4-3.6 1.7l-.85.95q-.35.7-.15 1.25l.65 1.15q.15.45-.1.9t-.7.6l-.5.05-.35.65-1.45.45-1.95.15q-1.1 0-1.7.3l-.85.55q-.6.45-1.05 1.05.15.6.6 1.05l.35.4q.2.2.05.45-.1.25-.4.25l-.5-.1q-.65-.2-1.2-.75-.5-.5-.6-1.2-.05-1 .95-2.1 1.25-1.45 2.45-1.8l3.1-.55 1.1-.1-.05-.15q-.5-1.25-.2-2.6t1.25-2.3q.6-.55 1.55-1.05.85-.6 1.55-.85zM14.8 40q.35-.8 1.4-1.25l1.85-.45 3.5-1.1 11.4-2.85h.35l.2.3-.3.35q-.85.55-3.15 1.3-1.6.55-3.35 1.35-6 2.6-8.95 4.05l-1.4.5q-.9 0-1.35-.7-.45-.6-.2-1.5m21.65-2.9-3.9 4.85-.95.95-.95.55q-.9.2-1.35-.6-.45-.75.05-1.55l.65-.65 3.8-2.95 1.9-1.35.6-.2q.3-.1.5.3z"/><path d="M13.55 2.35q-.1-.75.15-1l.85-.1.75.55q1.1 1.25 2.2 3.3l1.85 3.6L23 15.15l3.45 5.65 2.9 4.25q1.85 2.2 4 3.05 3.25 1.3 6.25-.35 1.45-.8 2.3-2.2.9-1.45.95-3.1T41.6 17.9q-3.35-7.6-8.45-14.5-.95-1.25-.85-2.1.05-.5.5-.9t1-.4q1.05.05 2.1 1.65 3.1 4.7 5.9 10.05l2.15 4.35q1.3 3.1 1.6 4.7.55 2.9-.35 4.9-.8 2-3.25 4.1-1.8 1.55-3.45 2.05l-2.8.3-3.35-.65q-2.95-1.1-5.25-3.85-1.45-1.65-3.65-5.45-4.35-7.55-8.65-16.5-1-2.05-1.25-3.3m42 9.55-.6.05q-1.4.45-2.25 1.9-.6 1.1-.9 3.25l-.35 2.15-.15.4-.55-.05-.3-.5q-.25-.6-.25-1.55l.15-1.25.3-1.75.55-1.65q.45-1 .85-1.45l1.6-1.3q1.4-.85 2.5-.7.5.1 1.4.6l.2.15q1.55-2.75 4.35-4.35t5.5-1.25q3.25.35 4.75 2.85.8 1.3.8 2.95 0 1.6-.7 3l-.35.6.15.1 1.5.8.85.65 1.05 1.6.35.85-.05 1.5-.7 1.5q-.2.2-.4.2l-.5-.25q-.45-.45-.65-1.35l-.1-.65-.2-.4-.55-.75q-.9-1.2-2.65-1.35-1.55-.15-2.9.7l-.85.2q-.3-.05-.3-.5l.15-.55q.35-.65 1.3-1.3.8-.55 1.65-.85l.45-.05.25-1.2q.5-2.2.15-3.25-.4-1.05-1.55-1.7-1.05-.5-2.25-.45-1.75 0-3.7 1.2L61 9.9l-1.6 1.8-.75 1.15q-.65.65-1.25.25l-.15-.1-.4-.2q-.75-.85-1.3-.9m3.05 19.15-1.5-.65q-2.55-1.5-2.95-3.55l-.1-1.35.15-1.7q.35-1.35 1.65-2.5l.35-.25-.45-.5q-.45-.5-.45-1.3l.2-1.4.3-.75.35-.5q.7-.8 1.35-.9l.8-.05 1.05.05q.95.15 1.55.85l.5.8.1.35.15 1.2 1.2.25q1.85.5 2.85 1.75l1-.25q.95-.1 1.7.5.8.65 1 1.5l.25 1-.05.6-.5 1.35-.85.95-1.1.65-.75.15-.2.05-.05.05-.55 1.15-1 .95q-2.15 1.45-4.65 1.6zm3.8-2.85q.45.2.75-.2l.2-.65v-.4h.05q.9-.1 1.25-.35l.4-.5-.1-.6q-.2-.3-.6-.3l-.7.1-.6.1-.15-.65-.15-.4q-.2-.3-.55-.1-.25.2-.25.65l.05.8-.5.2q-.5.2-.75.45-.3.5-.05.85l.6.25.6-.15h.15v.35q0 .4.35.55M51.85 5.35q.2-.55.75-1 .6-.45 1.4-.5t1.45.3l.95 1q.3.65.15 1.35-.2.75-.75 1.2-.4.35-1.05.5-1.35.25-2.3-.6-.45-.4-.65-1.05-.15-.65.05-1.2m1.05.4.1.4.45.5h.95l.6-.2.2-.3.05-.2-.1-.1q-.65-.65-1.35-.5l-.5.2-.25.05q-.15 0-.15.15M45.35 10l1.4 3.8.75-5.35.4-1.25q.3-.6.6-.65.45-.15.75.4l.2.9v4.45l-.15 1.4-.7 3.75q-.2 1.05-.65 1.4l-.85.25q-.5 0-.8-.35-.25-.2-.45-.8-1.25-3.4-2.3-7.35l-.8-3.2q-.45-1.8-.3-2.8l.1-.3q.2-.2.45 0l.25.45.45 1.1zm4.6 17.5-.3-.5-.05-1-.35-1.15-.2-1.15q0-.45.3-.7l.6-.2.6-.15.85-.05q.45 0 .65.35.3.4-.15 1.45l-.5 1.9-.35 1.2-.45.7zm8.55-7.15q-.35-.2-.55.2l-.1.5v.85q-.7.3-.8.35l-.7.6-.05.5.3.3.55-.05.7-.15.1.5q.35.65.9.4l.4-.65-.05-.6.3-.1.9-.25.55-.65-.2-.55-.55-.3-1.15.15-.1-.4q-.1-.6-.45-.65m-1.15 15.3.15.4.1.55.2.45.05.5.25.5v.25l.2.4.3.85.1 1.1-.1.95q-.25.55-.9.45l-.5-.2q-.2.3-.75.4-.45 0-.9-.35l-.75.2q-.4 0-.7-.4l-1.6.05q-.45.55-1 .2l-.15.2-1.3.15q-.7-.45-.45-1.2l.3-.55 1.95-2.75.45-.5 1-.05.85.55.3-.65 1.25-2.25.3-.45.15-.1h.45l.4.5v.05zm-13.35.6-4.5 1.1-.1.35-.8 1.65q-.7.8-1.6.65-1-.2-1.15-1.1v-.75l-.85-.4q-.85-.7-.75-1.8.05-.8.55-1.45.55-.65 1.3-.85l.9-.1 1.4.25q.75.35 1.05.95l3.05-.4 3.45-.05.1-1.25q.5-.8 1.75-1l1 .1.5.5q.4.4.45.9l-.35 1.05-.35.35q.7.75.5 1.65-.15 1-1.1 1.45-1 .55-1.7 0l-.8-1.05-.7-.75-.05-.15zm25.5-3.55q.6 1.05 0 1.65-.35.5-1.2.4l-1.45-.3q-.8-.25-1.25-.65-.6-.6-.45-1.3.15-.65.85-.9l1.3-.2q.85 0 1.4.35.55.4.8.95m-4.15 2.6.65.15.55.6q.4.75.25 1.45-.25.85-.9 1.2-1.05.5-2.35-.35-.85-.55-.95-1.15v-1q.3-1.1 1-1.3l.9.1zM31.2 18.8q.15-.65.7-1.2l1.05-.8 1.25-.15q1.15.1 1.65.5l1 1.15.25.6.05.5-.05.75-.15.5-.2.5-.75.8-.8.6-1.35.15-1.3-.25-.9-.85-.35-.5q-.25-.65-.15-1.7zm7.5.9.5-.5q.5-.35 1.15-.25t1.05.55.35 1.1q0 .65-.4 1.1t-1.1.5q-.65.1-1.1-.3-.5-.35-.6-1-.15-.65.15-1.2m-6.9 6.6q-.65-.5-.55-1.3.15-1 1.1-1.25 1-.25 1.55.55.35.4.3 1-.05.55-.45.9-.35.4-.95.4-.6.05-1-.3m8.05-.7-.35.65q-.6.75-1.65.75-.7-.05-1.25-.65-.55-.55-.55-1.25 0-.75.5-1.3.55-.55 1.25-.65.7-.05 1.35.4.6.5.75 1.2zm-29.5-9.45v-.25l-1.4.15q-1.1-.1-1.4-.5-.45-.45-.3-1.15.05-.35.45-1.15.15-.35.45-.55l1.05-.1.3.1q0-.6.35-1.05l.75-.6.55-.15q.95-.1 1.55.3.8.4.9 1.25 0 .65-.4 1.3l-1.05 1.2.3 1.7.15 1.7v.55h.1l.6.55.4.65q.1.5-.2.8-.25.4-.75.4-.4 0-.85-.4l-.8.55-1.05-.05q-.5-.25-.5-.85-.1-.6.45-.85l.8-.55.1-.65-.25-1.35zm-4.1-8.6-.4-.5q-.3-.7-.25-1.05 0-.25.15-.55.4-.9.95-1.2l1.1-.1 1.15.55.5.5q1 1.05 1.1 2l-.05 1.1L10 10l-.25.5-.4.45-.45-.2-.3-1.3.1-.35-.25-.8-1.35-.35q-.45-.05-.85-.4M5.6 26.2l-.7-.65-.2-.25-.45-.3-1.35-1.1-.6-.55-.7-.5q-.75-.6-.6-1.55.1-.95 1-1.35l1.7.15.9 1.1.55.6.95 1.35.65 1.1.35 1.05.4.65q.2.4 0 .7l-.95.1zm13.15 7.45-.8-.55q-.4-.4-.3-.9.2-.7 1.25-1l3.25-.2 3.25.15-1.65-2.05-1.85-2.2-3.2-4.45q-.25-.5-.05-.7l.85.1L24.65 27q2.35 2.35 3.55 4 .75 1.1.5 1.7-.3.65-1.65.85l-5.7.35zM8.6 27.8q1.1-1.2 2.5-1.7 1.5-.6 3.65-.5l1.85.3 1.25.95.3.8q0 .6-.45.65l-.85-.35q-.7-.4-2.35-.4l-1.2.1q-.55.1-1.3.5l-1.15.65q-.9.65-1.45 1.8-.7 1.3-.4 2.1l.4.7.3.75q.2.7-.35 1.15l-.45.3-.65.25H7.4q-1.1.05-3.2.85l-.8.35-.8.75-.8.6q-.45.2-.95 0-.5-.15-.7-.6-.3-.6.05-1.3.4-.65.95-1l1.05-.7q1.05-.5 2.35-.75l1.4-.15h.75q-.4-1-.3-2 .15-1.1.8-2.25.6-1.05 1.4-1.85m.35 9.95-.05-.45q0-.5.45-.65h.7l.65-.15.8-.05.65-.05 1.8-.1 2.25.05 1 .2.25.65-.35.6-2.8 1.45-1.05.7-.95.25-.55-.25zm14.15.75-.55.55-1.05.25-1-.45-.7-.9q-.2-.65.2-1.05.25-.25.75-.25l.75.05.8.15.55.5q.45.65.25 1.15"/><path fill="#fff" d="M62.4 28.2q-.35-.15-.35-.55v-.35h-.15l-.6.15-.6-.25q-.25-.35.05-.85.25-.25.75-.45l.5-.2-.05-.8q0-.45.25-.65.35-.2.55.1l.15.4.15.65.6-.1.7-.1q.4 0 .6.3l.1.6-.4.5q-.35.25-1.25.35h-.05v.4l-.2.65q-.3.4-.75.2m-3.9-7.85q.35.05.45.65l.1.4 1.15-.15.55.3.2.55-.55.65-.9.25-.3.1.05.6-.4.65q-.55.25-.9-.4l-.1-.5-.7.15-.55.05-.3-.3.05-.5.7-.6q.1-.05.8-.35v-.85l.1-.5q.2-.4.55-.2"/></g></svg>