<svg xmlns="http://www.w3.org/2000/svg" xmlns:ffdec="https://www.free-decompiler.com/flash" ffdec:objectType="shape" width="76.3" height="41.2"><g fill-rule="evenodd"><path fill="#999" d="M7 .8 8.75 0H26.8l1 .45q4.55 2.2 7.15 5.8l1.7 2.95 1.05 2.15 1.05-2.15q.75-1.55 1.7-2.95 2.6-3.6 7.15-5.8l1-.45h18.05l1.75.8-.75-.8h8.2v.65l-.15.4.1.1q.45.4.5.95.05.75-.45 1.35v4.1l-.6.15-3.55-.35q-1.6-.5-4.35-2Q64.4 3.8 63 3.3q-3.75-1.35-8.15-.75-4.1.55-7.9 2.7l-3.2 2.25Q41 9.9 38.7 14.15l.15 1.65q-.1.8-.65.7l-.5-.45-.5.45q-.55.1-.65-.7-.1-.65.15-1.65-2.3-4.25-5.05-6.65-1.55-1.3-3.2-2.25-3.8-2.15-7.9-2.7-4.4-.6-8.15.75-1.4.5-4.35 2.05-2.75 1.5-4.35 2l-3.4.4v-3.9L0 3l.1-.7.45-.4-.25-.2V0h7.45zm38.5 16.8-2.1-.1q4.6 2.85 6.85 7.6l1.3 2.85q3.7 7.5 13.8 11.05 2.9 1.05 4.6.35-.85-.7-.7-1.8.05-1.05 1.1-1.65l2.2-.05q1.85.65 2.55 2.35.6 1.5.1 3H57.25q-2.9-1.75-4.9-3.65-3.5-3.25-4.85-7.25l-.75-2.65-.7-2.65q-1.2-3.55-4.15-6.1-1.15-.95-.8-1.65l.3-.3.05-.05q.65-.85 1.8-1.25l2.25-.2q1.85.25 3.95 1.9l2.35 2.35 2.85 3.95q4.25 5.6 11.15 7.3l3.35.15q.95-.2 1.2-.75l-.05-.7-.5-.4q-.05.65-.65 1.1l-1.3.35q-.65-.15-1.05-.75-.45-.55-.45-1.25 0-1.4 1.35-2.2 1.15-.65 2.65-.4 1.2.25 2.15 1 .95.8 1.3 1.95.3 1-.05 2.15-.35 1.1-1.1 1.9-1.5 1.5-3.95 1.75l-4.3-.55q-4-1.15-7.5-3.85-3.35-2.6-5.6-6.25l-2.4-3.8q-1.5-2.1-3.4-2.8m19.3 1.7q-.65.6-1.55.75l-1.7-.15-1.35-1.15q-.5-.8-.45-1.7-.4.2-.55.7t.05.9q.3.65 1.3 1.25 1.85 1.05 3.4 1.05 2.1 0 3.05-1.55.85-1.35.25-3.65-.55-2-1.4-3.05-1.05-1.35-2.9-2.1-2.85-1.15-6.45-.75-2.85.4-6.35 1.75-6.55 2.5-9.5 6.1-.4.65-.8.5-.55-.2-.3-1.1.95-3.5 4.85-6.85 4.3-3.7 9.5-5.1 5.5-1.5 10.7.1 3.2 1 5.1 2.9 1.65 1.65 2.65 4.2 1.5 3.85.8 7.3-.4 1.85-1.55 3.35-1.2 1.6-2.85 2.35-2.2 1-5.05.65-4.5-.35-7.2-2.95-1.45-1.4-2.05-3.3-.65-2-.05-3.85.5-1.55 1.75-2.65 1.3-1.15 2.85-1.4l3.15.3q1.6.65 2.6 1.95.95 1.25 1 2.6.1 1.55-.95 2.6m-54.2 0q-1.05-1.05-.95-2.6.05-1.35 1-2.6 1-1.3 2.6-1.95l3.15-.3q1.55.25 2.85 1.4 1.25 1.1 1.75 2.65.6 1.85-.05 3.85-.6 1.9-2.05 3.3-2.7 2.6-7.2 2.95-2.85.35-5.05-.65Q5 24.6 3.8 23q-1.15-1.5-1.55-3.35-.7-3.45.8-7.3 1-2.55 2.65-4.2 1.9-1.9 5.1-2.9 5.2-1.6 10.7-.1 5.2 1.4 9.5 5.1 3.9 3.35 4.85 6.85.25.9-.3 1.1-.4.15-.8-.5-2.95-3.6-9.5-6.1-3.5-1.35-6.35-1.75-3.6-.4-6.45.75-1.85.75-2.9 2.1-.85 1.05-1.4 3.05-.6 2.3.25 3.65.95 1.55 3.05 1.55 1.55 0 3.4-1.05l1.3-1.25q.2-.4.05-.9l-.55-.7q.05.9-.45 1.7l-1.35 1.15-1.7.15q-.9-.15-1.55-.75m19.3-1.7q-1.9.7-3.4 2.8l-2.4 3.8q-2.25 3.65-5.6 6.25-3.5 2.7-7.5 3.85l-4.3.55q-2.45-.25-3.95-1.75-.75-.8-1.1-1.9-.35-1.15-.05-2.15.35-1.15 1.3-1.95.95-.75 2.15-1 1.5-.25 2.65.4 1.35.8 1.35 2.2l-.45 1.25-1.05.75q-.7.1-1.3-.35t-.65-1.1l-.5.4q-.2.35-.05.7.25.55 1.2.75l3.35-.15q6.9-1.7 11.15-7.3l2.85-3.95q1.05-1.3 2.35-2.35 2.1-1.65 3.95-1.9l2.25.2q1.15.4 1.8 1.25l.05.05.3.3q.35.7-.8 1.65-2.95 2.55-4.15 6.1l-.7 2.65-.75 2.65q-1.35 4-4.85 7.25-2 1.9-4.9 3.65H.3v-3q.7-1.7 2.55-2.35l2.2.05q1.05.6 1.1 1.65.15 1.1-.7 1.8 1.7.7 4.6-.35 10.1-3.55 13.8-11.05l1.3-2.85q2.25-4.75 6.85-7.6z"/><path d="M57.95 15.45q.45 1.5-.6 2.9l-.45.2-.1-.45q.15-.8-.45-1.75l-.55-.6-1.25-.9q-2.5-1.85-2.4-5.55 0-.9.15-1.35.2-.7.7-1.35.85-1.3 1.7-1.85.7-.45 1.4-.75l2.5-.7q2.15-.25 4.05.95 1.8 1.25 2.65 3.25.75 1.75.55 3.35l-.2 1.05q-.4 1-1.65 1.7l-2.25.5q-2.2 0-3.55-1.1-.75-.6-1.1-1.5t-.15-1.8 1-1.5q.85-.65 1.75-.45 1.25.25 1.5 1.4.15.5-.1 1.05l-.75.7 1.4.2.55-.3.15-.45q0-2.2-1.9-3.35l-1.35-.45-1.75.3q-1.8.8-2.15 1.95l-.2.95q-.1 1.15.1 1.7.25.85 1.05 1.65l1 1.1zM28.9 15.3q-.8-1.9-.65-3.75l.25-1.35-1.05-1.75L27 7.4l-.35-1.3q-.1-.95.65-1.6.7-.65 2.45-.65l2.75-.05 1.15.05.8-.35 2.65-.7.7-.05.5.05 2.65.7.8.35 1.15-.05 2.75.05q1.75 0 2.45.65.75.65.65 1.6l-.35 1.3-.45 1.05-1.05 1.75.25 1.35q.15 1.85-.65 3.75-1.25 3-3.45 4.2l4.05 1.7q2.85 1.15 5.2 1.35.75-2.05 2.75-2.7l1.95-.2q1.05.15 1.85.75 1.75 1.3 1.6 3.5-.25 2.15-2.15 3.3-1.05.65-2.45.85l.5.05q2.05.3 3.75 1.25 1.8 1.1 2.65 2.75t.35 3q-.4.95-1.45 1.45-1 .5-2.1.4-1.5-.15-2.95-1.35l-.7 1.75q-.85 2.15-1.9 2.5l-1.15.25-1.05.4q-1.1.4-2.1-.3l-1.55-1.85-.3-.4-.25.4q-1 1.5-2.65 2.4l-.95.45h-5.75l-1.8-1.3q-.95-1-1.25-2.4-.25-1.5.4-2.7l.45-.6-2-.35q-.8-.35-1.85-1.4v-.05l-.1.1-2.5 2.9q-1.6 1.8-2.35 2.95L25.7 40.2q-1 .7-2.1.3l-1.05-.4-1.15-.25q-1.05-.35-1.9-2.5l-.7-1.85q-.15-.65.05-1.5.15-1.3.85-2.1.5-.65 1.4-.95l1.65-.05q1.75.4 2.35 2.25l5.5-4.8v-.2q.1-2.15 1.2-4.8-3.7 2.55-6.9 3.8l-3.9.95q-2.3.1-3.9-.9-1.9-1.15-2.15-3.3-.15-2.2 1.6-3.5.8-.6 1.85-.75l1.95.2q2 .65 2.75 2.7 2.35-.2 5.2-1.35l4.05-1.7q-2.2-1.2-3.45-4.2m13.15-1 .85.05q1.45 0 2.15-.6l.5-.65q.6-.8.65-1.4v-1.05l-.1-.9-.4-.75-1.6-1.4q-1.05-.55-2.1-.35l-.9.35q-1.65.9-1.9 2.7-.15.55 0 1l.25.75q.9 1.9 2.6 2.25m-.7 19.55-1.75.35-.5 1.2q-.3.6-.25.95.05.25.45.55.85.65 1.95.7 1.1 0 2-.55.9-.6 1.65-1.9l.25-.45-1.85-2.2-.1-.1v.05q-1.05 1.05-1.85 1.4m3.45-5.5 2.9 2.5q1.2-1.1 2.8-1.85 1.7-.8 3.45-.95l-3.45-.9q-3.2-1.25-6.9-3.8 1.1 2.65 1.2 4.8zM34.75 16.4q.15.4.7.4.35-.05.75-.45l.9-.95.1-.05.5.35 2 1.05.55.05q.3-.2.2-.55l-.3-.55-.75-1-.4-.3-.25-.3-.25-.25.05-.55v-.2q.15-.6-.25-1t-1-.25l-.35.2-.25.4-.1.8.05.35-.4.35L35 15.5q-.45.55-.25.9m-1.3-2.1q1.7-.35 2.6-2.25l.25-.75v-1q-.25-1.8-1.9-2.7l-.9-.35q-1.05-.2-2.1.35-.85.4-1.6 1.4l-.4.75-.1.9v1.05q.05.6.65 1.4l.5.65q.7.6 2.15.6zm-15.3 1.15q.2-.6.7-1.25l1-1.1 1.05-1.65.1-1.7-.2-.95q-.35-1.15-2.15-1.95l-1.75-.3q-.75.1-1.35.45-1.9 1.15-1.9 3.35l.15.45q.1.2.55.3l1.4-.2-.75-.7q-.25-.55-.1-1.05.25-1.15 1.5-1.4.9-.2 1.75.45.8.6 1 1.5T19 11.5 17.9 13q-1.35 1.1-3.55 1.1-1.45-.1-2.25-.5-1.25-.7-1.65-1.7l-.2-1.05q-.2-1.6.55-3.35.85-2 2.65-3.25 1.9-1.2 4.05-.95.9.1 2.5.7l1.4.75q.85.55 1.7 1.85l.7 1.35.15 1.35q.1 3.7-2.4 5.55l-1.25.9-.55.6q-.6.95-.45 1.75l-.1.45q-.2.15-.45-.2-1.05-1.4-.6-2.9"/><path fill="#fff" d="M42.05 14.3q-1.7-.35-2.6-2.25l-.25-.75q-.15-.45 0-1 .25-1.8 1.9-2.7l.9-.35q1.05-.2 2.1.35L45.7 9l.4.75.1.9v1.05q-.05.6-.65 1.4l-.5.65q-.7.6-2.15.6zm-8.6 0-.85.05q-1.45 0-2.15-.6l-.5-.65q-.6-.8-.65-1.4v-1.05l.1-.9.4-.75q.75-1 1.6-1.4 1.05-.55 2.1-.35l.9.35q1.65.9 1.9 2.7v1l-.25.75q-.9 1.9-2.6 2.25m1.3 2.1q-.2-.35.25-.9l1.25-1.55.4-.35-.05-.35.1-.8.25-.4.35-.2q.6-.15 1 .25t.25 1v.2l-.05.55.25.25.25.3.4.3.75 1 .3.55q.1.35-.2.55l-.55-.05-2-1.05-.5-.35-.1.05-.9.95q-.4.4-.75.45-.55 0-.7-.4"/></g></svg>