<svg xmlns="http://www.w3.org/2000/svg" xmlns:ffdec="https://www.free-decompiler.com/flash" ffdec:objectType="shape" width="76.65" height="43.65"><g fill-rule="evenodd"><path fill="#999" d="M1.2 5.95V4.8l.05-.1V4l.05-.1v-.45l.05-.1v-.1l.05-.1v-1.1l.05-.15.05-.1v-.1l.1-.1.1-.1.1-.1.15-.1.15-.05.15-.05.25-.05h6.9l-.05.05-.15.55-.1.4-.05.5-.65 3.4-.05.7-.2.7.05.45-.25.8v.65q-.35.5-.25.8.1.7.9.8l1.3-.2 2.55-.8 1.9-.75q-.35 1.15-.75 3.65l-.8 4.95-1.3-1.55-.35-.5-.15-.05-.45-.15q-.5 0-.8.7l-.2.65-.3.55-1.05 3.1Q4.5 12.75 3 7.95 2.6 6.7 2.15 6.3q-.4-.35-.95-.35m10.1-4.8h.2l.7.05-.45.65v.05q-.05-.55-.45-.75m2.4.1h1.45l.6.05.35.05h.85l.5.05.25.05.85.05h.9l.8.05.8.05v-.1l.25-.35.25.1.1.2-.05.25h.05l.15.1.1.1.05.1.05.1.05.1v.2l-.05.1-.05.1-.1.1-.1.05.2.65.25.7.05 1.45-.15 1v.15l-.3.35-.35-.05-.3-.1-.25-.3-.2-.15-.55 1.45-1.05 1.25q-.9 1.05-1.4 2.3-.45 1.15-.45 2l.3 1.85q.9 3.7 1.45 8.3l.15 1.35-1.45-1.65-1.55-2.1-1.8-1.9-.1-.1v-.15L15.7 9.4l.15-1.2.05-.3q0-.6-.55-.85l-1 .1-4 1.35zm5.15 25.35-.9 2.05-.55 1.15q-.4.95-.45 1.6l.1 1.15-.5.4q-.8.65-2.4 1.2L9.3 35.8l.2-1.7q.1-2.25.35-3.3l.2-.95q0-.6-.5-.7-.35-.05-.8.4l-.7.6-6 6.15-.75.85-.15.45.5.05 1.4-1.2q2.5-2.65 5.35-5.05 0 2.7-.65 5.15-.2 1 .2 1.3l.8.05.7-.4q.45-.25 1.65-.6 3.4-1 6.2-2.5l.55-.3.2.2.55.6v.05h.4l1.85 1 .55.55-.05.55.1.1 1.05.1.25.15 2.05 1.4.85.55 1.15.3 7.25.05.1-.05 1.2-.1 1.1.15 2.5.2.55.05 3.5.1 2.25-.3q3.05-.6 4.9-1.7l1.65-1q.7-.45 1.3-.6l.05-.15.55-.5 1.2-.45.25-.2.7-.5.5-.65.3-.45q.7-1.2.8-1.95L57.3 30l-.15-1.65.2-1 .15-.4.05-.1q.45.05.9-.45l.55-1.25.2-.55.4-.65L61.95 20l.2-.55 1.4-1.95.9 1.3 1.65 2.05 1.6 1.85q.8.9 1.35.85.8 0 1.35-1.45l5.3-13.3v9.3l-.55.05-.45.55-3.2 7-3.3 6.95-2-1-1.35-.25q-.4.1-.8.8l-1.65 2.55-5.5 2.45-1.25.6-.05-.15v-.95l.1-.2-.1-.4-.4-.1-.35.15q-.3 0-.45.25l-6.55 3.8-.6.55q-.1.2-.05.45l-4.6.4q-2.35.25-4 0l-1.55-.3H27.6l-.7-.05-.2.05-.15.05-.15.05-.15.05h-.2l-1.5.05h-1.5l-1.2.05H16.3l-3.75.05h-4l-4.2-.05h-.3l-.55-.05-.6-.05h-.25l-.2-.05-.3-.05-.2-.1-.1-.15-.05-.1-.15-.05-.15-.1-.15-.1-.1-.1-.05-.1-.1-.1-.05-.1V40L1 39.9v-.7l-.05-.1v-3.3l.05-.1v-.85l-.05-.1v-.3l.05-.1V29.8l-.05-.1v-2.6L1 27v-.4l.05-.1v-6.8l.05-.1v-3.15l.3.65.9 1.3 2.45 2.95 2.1 2.55.55.35.2.2q.7.6 1.3.2l.65-1.05 1.3-4.6q2.9 2.45 5.7 5.5zm38.65-3.3-.55-3.1q-.25-1.9.15-3.3l-.25.1h-.55l-.4-.4q-.2-.4.25-1.3l.9-1.8.3-.75.1-.95.2-.85-.2-.95V8.95l.45-.6.75-.9.15-.1.15.05 1.55.75.8.45.85-.15.25-.5 1.85-6 .25-.5h4.75l-1.15 9.1-.1.25-.3 1.6-.55 2.8-3.45-3.45-.7-.4q-.4-.1-.65.35l-.35.7-.5 1.55-.2.65-2.7 6.05zm-.95-13.75v.2l-.05 1.35-.05 1.45q-.25 1-1.15 1.5l-.6.3-.5.45-.1.15-.15-.1.1-.3q0-.4.35-1.8l.05-2-.3-2-.15-1.5.45-3.15.8-1.1.15.2-.05.15-.2.35q-.2.4-.1 1l.3 1.75.35 1.15.5 1.05.15.25-.05.1.05.4zm.4-2.2-.8-2.75-.2-1.15V3.3l.3-1.15.45-.75q.45-.35.8 0l.05.05h.05V1.4h4.95l1.15.05-.8 1.6-.35.75-.3 1-.3.75-.1.55-.35.95-2.6-1.5-.65.05-.25.35-.5.5-.4.65zm15.2-5.85.25.05.25.05-.3.3-.3.5zm3.15.35.1.05.1.1.05.1.05.1.05.1v.1l-.25-.45zm.4 17.3V30.8l-.05.1v3.4l-.05.1v3.2l-.05.1-.05.1v1.05l-.05.1v.25q.35.2.45.95.1.7-.15 1l-1.05.3h-2.9l1.75-7.6.25-.8v-.8l-.4-.45-1.05-1.55-.45-.55-.45-.15 1.45-3.5zm-4.5 22.3H60.35q2.15-4.15 5.15-8.25.45.05.95.4l.9.55 1.95.1.65-1.05.95-2.3.45.65.95 1.3.1.25-.15.25-.05.7-.25 1.05v.7l-.2.7-.3 1.6-.3 1.4q-.3 1.25-.05 1.85zm-12.95 0h-.05l-8.9-.3.4-.25.75-.6 3.9-2.6.25 1.2.05.3q.15.4.65.3l.75-.35q.65-.45 3.4-1.75l1.85-.95zM1.1 11.8v-.25l.05-.15v-.75l.55 1.3zm25.2-.5.2-1.25.55-1.4 1.1-1.85.35-1.15-.05-.5-.9-3.65q-.1-.55.05-.7l.4-.15.4.15.05.05q.3-.65 1.2-.8L30.8.2l.6-.1.8.4q1.7 1.25 2.4 3.4l.4 2.05.6-.25q1-.4 1.6-1.65l.35-1.2.15-1.1.1-.55q.2-.3.45-.2l.3.5q.2-.3.6-.35l.3.1.25-.5.95-.05.7.75q1 1.45 1 3.3l-.2 2L43.3 5.6l.55-.85 1.2-2.85.1-.1.05-.25q.2-.85.7-1.2l.65-.25q.35 0 .5.3l.05.45.8.05.25.6-.3.6-.6.8q-.35.45-.4.85-.05.5.35 1.4l.45 1.05.85 1.3.55 1.3q.5 1.65.3 5.1l-.25 1.65.3-.4 1.15-1.95.95-3.75.2-1.55.05-.5.2-1 .25-.25.2.25q.35 1.35.35 2.85v.25l.25.9q.75 2.25.6 4.4l-.5 2.4q-.55 1.55-1.7 3.2-1.5 2.1-1.75 3.15-.35 1.6.75 4.55l.45-1.85.15-1.1.05-.2q-.2-.55 0-.75.4-.25.85.4l.9 1.35q.4.9.5 2.9v.8l-.15 2.05-.8 2.3-.55 1.05-1.5 1.55q-2.1 1.55-5.35 2.15l-5.8.15q-.95 0-1.4-.35l-.55-.7v-.05l-1.25.45-1.9.15-4.45-.15q-2.15-.25-3.75-.95-1.3-.15-2.4-.95l-.9-.9-.15-.3q-.3-.55-.4-1.8v-.05q-.1-2.05.25-2.85.25-.6.95-1.45l1.05-1.4q1.05-1.75.3-4.4-.35-1.25-1.85-4.15-1.25-2.55-1.35-4.25-.05-1.8 1.25-5.1l1.1-3.25-.4-1.25-.1-1.05.05-1 .35-.8.5-.7.55-.25q.25.1.05.4l-.3.35v.3l-.1.2v.25l.15.4.3.45.3.8.4.5.35.85q.55 2.05.1 4.05l-.55 2.35q.4 1.5.95 2.45-.3-1.5 0-3.45m9.25-7.7.05-.15-.7-1-.1-.25-.3-.45V1.4l.3-.2.65.1.45.45-.1-.3q-.2-.25-.1-.5.15-.25.45-.15l.35.35.25.55v1.05l-.4 1-.4.4-.35-.2zm16.1-2.55.05.2.5-.15.4.1.5.2.2.65v-.5l.2-.45.5.15.2.5-.05 1.3-.3.8-.2.35h-.05v.35l-.25.45q-.3.05-.4-.3v-.6l-.75-1.5-.05.05-.3.7-.25.85-.05.1q-.4 1.6-.35 2.25l-.05.85q-.1.5-.55.6-.5 0-.8-.7l-.2-.35q-.75-1.4-.85-2.45-.25-1.7.75-2.8l.4-.3q.35-.1.45.2.2-.55.55-.7l.45-.05q.25 0 .3.2M66.6 18.3l.1.1v.05zm-37.8-2.2.05.15.5-.05q.6.1 1.1.55T31 17.8l.05.75.45.75 1 1.35.8 1.2q.3.7.3 2.15 1.5-1.35 3.65-1.45 3.1-.25 5.2 2l.9.95.55.4v-.1q-.1-2.8.85-4.3l.9-1.1 2.4-2.6-.2-.15-.25.1q-.45.25-.65-.2-.1-.2.1-.65l.85-2v-.8l-.85 1.75-.85 1.25q-.75.65-1.45.45l-.7-.5-.2-.65.1-1.05 1.15-2.15.5-1.4-.1-1.95-.3-1.45-.2-.65.1-.65-.4-.85-1.6 1.85-.7.55-1.05.45-.1.2q-.55 1.25-1.25 1.8-.9.65-1.9.5l-.7-.3q-.35-.25-.35-.6l.2-.6 1.2-1.6.05-.05-.1.05q-.5.35-1.4.7l-1.1.25q-.95 0-1.3-.85-.25-.6 0-1.05l-.45-.1-.2-.25-.15 1.3-.75 1.25q-.6.55-1.3.55l-.5.65q-.15.25-.15.55l-.55 2.75-.3.9q-.6.9-1.65.45l-.05-.05zm27.15 10.4-.1 2-.25.7.35 1.25q.55 1.35-.2 2.65-.7 1.3-2.15 1.6-.4.15-.45-.15l.05-.35.65-1.2.45-1.25-.15-2.2q0-.7.4-1.35.4-.95 1.4-1.7M21.7 28.4l-.7 2.2-.15.9.25.9.05.9-.3.5-.95-.05-.75-.8-.4-.45-.25-.85.1-1.35q.1-.3.7-1.25l1-1.45.5-1.2q.2-.75-.1-1.3l-.25-.5q-.1-.4.15-.55l.6.1.4.45.25.6.15 1.1v.9zm-1.25-14.25.1.75-.25.7q-.75-.35-1.2-1.1-.45-.7-.5-1.55 0-1.7 1.3-2.9l.5-.5.3-1.25q.1-.1.25.15.5 1.4-.15 2.75l-.5 1.1q-.15.65.15 1.85M39.6 30.5l.75-.55.2-.65-.4.3-.25.2-.75.95zm-5.1-.35.65.5q1.15-2.8 3.75-4.45l-2-.05q-1.1.3-1.65 1.15l-.6 1.3-.25.95q-.1.35.1.6M31.35 36h2.5q-.6-.85-.05-2.1-1.15-.3-2-1.25l-.7-1.15-.55.35-.65.4.05.6q.45 1.15.3 1.75-.2.8-1.1 1.15z"/><path fill="#fff" d="M9.4 1.15q.25-.45.75-.35.4 0 .6.3h.35l.2.05q.4.2.45.75v-.05l.45-.65.3-.45.7-.55q.6-.2.7.35l-.15.5-.05.2-3.35 7.25 4-1.35 1-.1q.55.25.55.85l-.05.3-.15 1.2-1.45 9.65v.15l.1.1 1.8 1.9 1.55 2.1 1.45 1.65.65.85q.65.8.15 1.15l-.65-.1-.45-.25-2.3-2.1q-2.8-3.05-5.7-5.5l-1.3 4.6-.65 1.05q-.6.4-1.3-.2l-.2-.2-.55-.35-2.1-2.55L2.3 18.4l-.9-1.3-.3-.65-.55-1.2-.2-.65.2-.8.2-.2-.3-.9q0-.75.55-.9h.1l.6.15-.55-1.3-.85-2.2q-.6-1.4 0-2.15.35-.35.9-.35t.95.35q.45.4.85 1.65 1.5 4.8 5.2 12.6l1.05-3.1.3-.55.2-.65q.3-.7.8-.7l.45.15.15.05.35.5 1.3 1.55.8-4.95q.4-2.5.75-3.65l-1.9.75-2.55.8-1.3.2q-.8-.1-.9-.8-.1-.3.25-.8V8.7l.25-.8-.05-.45.2-.7.05-.7.65-3.4.05-.5.1-.4.15-.55zm7.65 31.4.2-.15.9-.1.35.55-.15.7-.5.55-.55.3q-2.8 1.5-6.2 2.5-1.2.35-1.65.6l-.7.4-.8-.05q-.4-.3-.2-1.3.65-2.45.65-5.15-2.85 2.4-5.35 5.05l-1.4 1.2-.5-.05.15-.45.75-.85 6-6.15.7-.6q.45-.45.8-.4.5.1.5.7l-.2.95q-.25 1.05-.35 3.3l-.2 1.7 4.85-1.65q1.6-.55 2.4-1.2zm40.45-5.6-.15.1-.65.05-.45-.5.15-.75 1.1-2.55 1.1-2.65 2.7-6.05.2-.65.5-1.55.35-.7q.25-.45.65-.35l.7.4 3.45 3.45.55-2.8.3-1.6.1-.25 1.15-9.1.25-.7.6-.2.6.25.3.55.15-.25q.4-.65.85-.35.25.2.15.7v.05l-.1.9.3-.5.3-.3q.55-.45 1.35-.45.8.05 1.3.7l.1.1.25.45.2 1.15-.1.95.35.75.05.55.3.05q.4.3.05.95l-.8 2-5.3 13.3q-.55 1.45-1.35 1.45-.55.05-1.35-.85l-1.6-1.85-1.65-2.05-.9-1.3-1.4 1.95-.2.55-2.35 3.95-.4.65-.2.55-.55 1.25q-.45.5-.9.45zm-.05-18-.3.3-.4.3h-.2l-.2-.15-.05-.4.05-.1.15-.8.45-.75.15-.25.4-.65.5-.5.25-.35.65-.05 2.6 1.5.35-.95.1-.55.3-.75.3-1 .35-.75.8-1.6.45-.9.3-.2.25.25V1l-.2.45-.25.5-1.85 6-.25.5-.85.15-.8-.45-1.55-.75-.15-.05-.15.1-.75.9zM75.7 18.1l.1.05v.75l-.1.25-2.8 6.9-1.45 3.5.45.15.45.55 1.05 1.55.4.45v.8l-.25.8-1.75 7.6q-.2.2-.4.2l-.2-.2-.1-.1q-.25-.6.05-1.85l.3-1.4.3-1.6.2-.7v-.7l.25-1.05.05-.7.15-.25-.1-.25-.95-1.3-.45-.65-.95 2.3-.65 1.05-1.95-.1-.9-.55q-.5-.35-.95-.4-3 4.1-5.15 8.25l-.45.9-.7 1-1.15.1q-.65-.5.05-1.8l.15-.2 3.05-5-1.85.95q-2.75 1.3-3.4 1.75l-.75.35q-.5.1-.65-.3l-.05-.3-.25-1.2-3.9 2.6-.75.6-.4.25-.65.45-.65.2q-.45 0-.7-.3l-.1-.3q-.05-.25.05-.45l.6-.55 6.55-3.8q.15-.25.45-.25l.35-.15.4.1.1.4-.1.2v.95l.05.15 1.25-.6 5.5-2.45 1.65-2.55q.4-.7.8-.8l1.35.25 2 1 3.3-6.95 3.2-7 .45-.55zm-9.1.2.1.15v-.05z"/><path d="m60.2 16.95 1.25 2.75.9 2.85.05 1-.75 1.05-2.85 2.9-1.15.9-1.95-.05-2.15-.25-.65.05-.65-.05q-.45-.15-1.15-1.2l-2.45-3.55q-.7-.9-.6-1.45.05-.35.65-1.1l2.55-3.5q.65-.75 1.05-.85h.95l1-.2 1.9-.2h2.5l1.15.25zM48.3 15q.05 3-1.15 5.15-1 1.9-2.85 3.1l.1 1.25.1.7.6.35q1.5.6 2.05 2.2l.3 1.1.1 1.55q-.1 1.5-2.1 3.3.4.55.25 1.3-.05.75-.6 1.15-.7.55-2.4.5l-.7-.05-.15.2-1.05 1.25-1.55.15-.9-.15q-.9.75-2.45.4-1.2-.35-1.6-1h-.15l-1.1.3-1.3.15-1.55-.35-.7-.65-.4-.8q-.1-.7.45-1.35l-1.1-1.4-.35-.7-.15-.4q-1.9.6-2.95 1.2l-1.8 1.3.75-.15 1.45-.05 1.45.4q.7.45.9 1.1.35 1.2-.6 2.05-.75.8-2 .9l-2.3-.25q-1.1-.05-2.35-.7l-.9-.7q-.3-.45-.3-1.3 0-1.25.15-1.65l.65-1.1q1.2-1.55 3.4-2.65 1.35-.65 4.15-1.5l.45-.1.1-.05.4-.7q.75-1.05 1.75-1.6l.9-.75.15-.7.25-.9.45-1-1.2-.9q-1.3-1.15-2-2.75-.7-1.65-.5-3.3.05-.95.6-2.35.5-1.3.9-1.85l.4-.55-.5-.85q-.15-.3-.15-1.15 0-1.05.15-1.55l.8-1.75.35-.9.45-.95q.35-.5 1.05-.6.6-.1 1.15.35l.7.85.85 1.6.65.85 5.8-.15.3-.3 2.05-2.25q.65-1 1.15-1.2.4-.2.85 0l.65.5q.25.3.3 1.05l.45 1.5.35 1.5.05 1.1.1.7-.05.65.1.6.1.85v.2zm-5.55 4q.85 1 2.05.65 1.3-.35 1.45-1.65.15-1.1-.7-1.8l-.35.35-.9.65-1.5.65-.45.2q.05.55.4.95m11.7-.9-1.4.1q-.4.45-1.05 1.45l-1.05 1.45q-.5.4-.5.8-.05.3.4.85l2.2 3.2 1.6.15 2.05.4-.25-.4-1.5-3.05-1.05-.1-1.45-.15-.65.05q-.35 0-.5-.3-.25-.45.25-.75l.85-.15 1.55.15.85.1.55-.4.65-.7.15-.25q.75-1.05 1.3-1.3l-.05.4-.8 1.25-.75 1.2.1.1.45 1.05.8 2.65.2.35.2-.2 2.35-2.5.45-.7-.05-.5-.95-2-1.05-2.2q-1.8-.15-3.9-.05m-23.75-.6q-.1.55.05.95.25.6.8.95l1.2.35 1.15-.45q.5-.4.65-.95-.85-.2-1.45-.85l-.5-.6-.5-.9q-.65.15-1 .6zm-10.6 2.15.65 1.1.65.7 1 .2 2.7.05-1.3-2.65-.7-1.4-2.15-.15-.2-.05-2.4-.05-.45.85-.7 1-2.35 3.35-.3.4 2 2.05.55.7.35.35.45.15 3.65-.05.6-.2.35-.35 1.75-2.15.3-.35-2.9-.05h-.1l-.25.35-.5.5-.8.75-.55.45-.2.3-.3.1-.25.25q-.3.2-.4-.25l.2-.5.4-.5q.95-1.45 1.65-2.15l-.15-.45-.35-.8-.4-.75-.2-.4-.55-1.15v-.45l.2-.2.4.3zm6.3 4L26 24.7l-1.95 2.6-.75.85-1.6.45-4.05.2-1.5-.35-.8-.75-2.7-3.25q-.6-.8-.6-1.4l.55-1.25 1.9-2.65 1.8-2.75q.5-.95 1-1.15l1.35-.1 2.35.05 1.4.3 1.65.3q.5.3.75 1.1l1.05 2.55.75 2.05.15.85-.1.6-.2.25z"/><path fill="#fff" d="m59.35 9.3.5-.05.35.6.2.75.4-.15q.5-.2.75.2.25.3-.15.7l-.7.35-.05.05.15.7v.6l-.45.35q-.25 0-.4-.25l-.25-.45-.15-.5v-.1h-.05q-.4.2-.75 0-.5-.2-.3-.65L59 11l.35-.15-.15-.7q-.1-.65.15-.85M42.75 19q-.35-.4-.4-.95l.45-.2 1.5-.65.9-.65.35-.35q.85.7.7 1.8-.15 1.3-1.45 1.65-1.2.35-2.05-.65M56 20.8l-1.1-.8-.55-.9q-.15-.45.1-1 2.1-.1 3.9.05l1.05 2.2-.3.2-1.25.35H56.6l.8-1.25.05-.4q-.55.25-1.3 1.3zm6.35 6.25-.35.65-.1.35.1.1.8.95q.2.3 0 .55-.15.3-.5.3l-.5-.2-.55-.7-.55.9-.45-.05-.3-.35.25-.65.35-.45h-.05l-.35-.2-.1-.35q0-.2.15-.3l.3-.05h.65l.7-1.1q.4-.1.55.15zm-11.7 5.7.05.35-.15.3-.35.05-.6-.4-.2-.5-.05-.3-.4.2-.75-.15-.25-.5.2-.5q.2-.2.6-.3l.3-.05v-.05l-.05-.8q.1-.5.6-.4.3.05.4.65l.1.4.25-.05.7-.15q.6 0 .5.45l-.4.45-.8.45.1.35zM30.7 17.5l.4-.9q.35-.45 1-.6l.5.9.5.6q.6.65 1.45.85-.15.55-.65.95l-1.15.45-1.2-.35q-.55-.35-.8-.95-.15-.4-.05-.95m-6.9 1.55-.35.15-1.35.15q-.85 0-1.2-.65l-.35.5-.45.45-.6-1.15-.4-.3-.2.2v.45l.55 1.15.2.4.4.75q-.5 1.4-2.3 1.8l-.85.15-.9.15q-.6-.05-.95-.4l-.2-.25 2.35-3.35.7-1 .45-.85 2.4.05.2.05 2.15.15zm5.15 3.75-.2.75-.05.45-.15.4.5.15.45.25q.25.25.1.5l-.3.2-.4-.1-.35-.15-.25.05-.15.05-.2.4-.55.4q-.15 0-.35-.2-.25-.35-.1-.75l.15-.2q-.4-.35-.05-.8.2-.2.35-.2h.25l.35-.95q.1-.45.35-.55h.4zm-9.6-18.6.3-.05q.35 0 .4.25l-.1.35-.35.45.4.4.05.75-.3.35q-.35.15-.6-.2l-.25-.3-.3.3-.4.1-.35-.1q-.2-.25-.1-.5l.25-.4.2-.2-.5-.5-.2-.4.1-.3q.1-.2.3-.2l.15-.1.85.65q.3-.3.45-.35m-8.55 24-.05-.25-.5.2q-.45.15-.75-.35-.05-.4.2-.75.25-.25.75-.25h.2l-.15-.45-.05-.75q.15-.3.45-.3.35 0 .55.4l.15.7.05.25.25-.05.8.1.2.4-.35.25-.75.35.05.45-.05.8q-.2.45-.6.35-.35-.1-.35-.45z"/></g></svg>