<svg xmlns="http://www.w3.org/2000/svg" xmlns:ffdec="https://www.free-decompiler.com/flash" ffdec:objectType="shape" width="77.7" height="43.55"><g fill-rule="evenodd"><path d="m60.2 40.55-.3 1.1q-.35.55-.95.3-.4-.15-.5-1.1l-.35-6.4-.05-6.05q.1-2.95.7-4.55l.5-.75.85-.05q.45.3.1 1.2-.4 1.65-.4 4.5l.05 3.95.1 3.25.2 2.3zm-7.55-7.85q.35.1.55.75l.3 1.6v.7l.2 1 .1 1.55.95-1.55q.35-.6.7-.55l.45.25.1.45-.35.95q-.75 1.3-1 2.8l-.3 1.1q-.4.7-.9.6-.45 0-.65-.35h-.3q-.35-.05-.6-.3-.3-.4 0-1.3l.2-.6.05-.65-.1-2.65-.1-.5-.05-1v-.9l-.15-.5q-.1-.4.15-.7.35-.35.75-.2m9.8 8.6-.1.1-.05.1q-.25.35-.6.25-.35-.05-.35-.55l-.1-.1q-.35-.45-.35-1.35-.1-1.95.55-5.25.1-.6.45-.55l.3.45.2 3.45.05.55.65-.95.35-.4.45-.05q.3.2.2.45l-.15.5-.8 1.4-.4.9q0 .8-.3 1.05M8 36l.7.05.35.35.2-.45.5-1.95.1-.95v-3.5q-.25-2-.15-2.95.1-.65.3-.9.55-.45 1.1 0 .25.2.35 1.1l.05 1.25.05 3.6-.35 3.2-.35 1.4-.1.2-.5.95q-.35.45-.7.3l.05.95.2 1.6.35-.7.7-1 .55-.65h.5l.3.35-.2.85-.8 1.7q-.3.95-.75 1.1h-.6l-.05.1-.7.4q-.5-.1-.6-1l-.25-2.25-.1-1.55-.35-.8q-.1-.6.2-.8m11.3 1.15-.6-.75q-.25-.75-.25-2.3-.1-2.45.75-3.45l.45-.35.5.1.05.65q-.35 1.9.05 4.1l.05 1.3-.35.6z"/><path fill="#999" d="M1.3 17.35q-.8-.6-.65-1.1-.45-1.05 0-2.3l.1-.2.1-2.05.45-1.2.2-.35-.45-.2q-.75-.4-1-1.35L.1 6.85l.15-.9L.1 5.2q-.25-1.05.35-2.05t1.6-1.3l1.35-.2 1.3-.2 1.25.2.65.4.75-.1 1.05.1 1.05.05 1.3-.5 2.65-.25 2.2.3 1.1.6h.55q.35-1.15 2-1.45l2.6-.3L23.1.25h1.25l.3.15.8-.4.95.3q.45.35.55.9.3.9-.25 2.05Q25.95 4.9 24.4 6l-2.1 1-2.3.65-.05.3L19.5 9q-1.6 2.75-4.45 3.65l-4.4.3-.3.85-.3.95q-.5 1.2-1.75 2-.7.55-2.4 1.25l-.8.3H2.95L2 17.8l-.25-.2zm75.85-.5.45.85-.2.85q-.4.55-1.3.55l-1.3-.15-.25.1q-3.1 1.35-6.8-.4-2.2-1.05-3.55-2.8-.95-1.3-1.25-2.65-1.45-.4-2.75-1.5-2.1-1.8-2.5-4.55l-1.7.2-1.35-.1-1.15-.3-.95-.45-.7-.75-.55-.65q-.45-.6-.35-1.95.1-.75.35-1.2.55-.9 1.5-.75l.6.15L55.45 1l8.65.25 3.25.25 2.5.4q1.5.2 2.5 0l1.4-.3 1.3.25q.7.55.7 1.5l-.2 1.7q-.25 1.55.2 5.75l.05.35.25 1.65-.05.75.85.15q.85.45.85 1.5zM59.35 19.1l1.15-.25q.9-.15 1.6.45t.6 1.55v.5l.35.3q.5.35.55 1.05 0 .65-.4 1.05-.7.8-1.8.6v.05l-.2.7q-.3.6-1.05.6-.65.05-1.15-.5-.3-.3-.45-.85h-.65q-1.05-.15-1.3-1.1l.05-.7q.1-.35.55-.7l-.5-.75q-.2-.65.2-1.3.45-.65 1.1-.75zM48.55 7.65l.4-.1q1-.2 1.4.4.35.45.05 1.2l-.8 1.2-.05.05.5.4q.6.5.75 1.25.1.85-.6 1.25l-1.05.1-.25-.05-.65-.15v.25q0 1.05-.8 1.3h-.75q-.65-.2-.75-.4l-.2-.65v-.35l-.4.1q-.95.2-1.5-.3l-.4-.65q-.15-.4.05-.75l.8-.7.55-.35-.4-.65q-.35-.85-.35-1.55 0-.95.75-1.25.4-.2 1.05 0 .55.15 1 .45l.5.6q.5-.45 1.15-.65M22.65 29.5l.35.85q.1.65-.3 1.1l-.6.35q-.75.3-1.55 0l-.55.7-.85.25-1.4-.3q-.55-.55-.45-1.35v-.15q-1.4-.1-1.9-.8-.35-.45-.3-1.05.05-.65.45-1.1.7-.75 1.75-.8-.2-1.05 0-1.6.15-.65.6-1.15.5-.5 1.1-.55l.55.05.2 1.5q.3 1.15.95 2.1l-.15-.1-.95-.05q-1 .25-1 1.2-.1.8.7 1.25l1.05.15.75-.65.15-1v-.15l.85.85zm1-11.3v-.25q0-1.05.75-2h-.25l-1.1-.15q-.45-.2-.6-.75T22.5 14q.35-.95 1.6-1.15l1.4.1-.15-.85q-.2-1.7.45-2.3.35-.35.85-.35.5-.05.85.2l.1.05.65 1.05.2 1.65.7-.35 1.65-.2q1.1.2 1.1 1.15 0 .85-1.2 1.45l-1.65.6-.15.05.95.95q-.15.8.4 1.55v.25q-.1 1-.55 1.35l-1.75-.1-.9-1.15-.35.55-.65.55-.25.1-.05-.35q-.1-.8-.4-1.15l-1.45-.05zm22.65-7.05q.1.7.5 1.05.5.5 1.15.35l.9-.55.25-.65-.1-.5v-.65q-.15-.85-1-.95-.8-.15-1.35.5-.45.6-.35 1.4M56.6 32.5l-.85.05h-.2l-.2 1.6q-.35 1.05-1.25 1.2-.95.05-1.75-.95l-.4.25q-1.05.55-1.9 0-.5-.35-.6-1.1-.05-.75.55-1.45l.1-.1-.8-.55q-.4-.45-.4-1.2l.1-.65q.25-.85 1.25-1.05H51q.1-1.2.35-1.7.35-.65 1-1 .6-.3 1.3-.25.45 0 .8.3l.55.55q.6 1.1.35 2.15.65 0 1.05.35l.75.75.45.75-.05 1.2zm4.15-9.05q.9-.55.8-1.4l-.3-.85q-.65-.9-1.75-.65t-1.2 1.4q-.1 1 .75 1.5.75.45 1.7 0m6.25 9.9-.1.8-.2.6-.45.45q-.25.25-.8.35l-1.2-.35-.55.6q-.8.55-1.5.55-.9 0-1.3-.7-.2-.4-.1-1.55-.65-.15-.95-.9-.25-.8.2-1.35l.2-.35.05-.45q.1-1.2 1.15-1.8l2.15.15.3.2.45-.25 1.4-.25.7.15.45.65q.45 1.35-.55 2.15.75.55.65 1.3M54.75 30.1l-.45-.65q-.9-.9-2.05-.3-.5.3-.75.85t-.15 1.05q.25 1.3 1.55 1.45 1.3.1 1.8-1.05.3-.65.05-1.35m-15.5 3.45q-1 .4-1.55-.3-.3-.35-.2-.95l.3-1.2-.05-.5q-.1-1.35.1-1.8.4-.65 1.1-.75.8-.1 1.25.45.35-1 1.95-1.1.65 0 1.05.35t.4 1.15l-.2.85.5.8q.3 1.1-.35 1.55l-.85.25h-.2v.8q-.1.55-.55.9l-1 .2q-.4-.05-.9-.55l-.3-.25zM27.7 13.4q-.6-.45-1.35 0-.55.35-.8 1.1-.25.8 0 1.35.3.85 1.05.75l.8-.3.55-.4q.3-.4.2-1.15 0-.95-.45-1.35m35.05 20.05q.7.7 1.65.2.9-.5.75-1.5T64 30.95h-.6q-.45.1-.8.45l-.35.8q-.1.8.5 1.25m-20.7-3.35-.5-.6-1.2-.05q-.6.25-.85.85t0 1.15q.25.65.95.65.45.05 1.05-.45l.55-.7q.25-.4 0-.85m-29.7-9.25.4.45q.3.5.1 1.25v.15l.5.3.25.65-.15.75-.35.65.1.65-.25.85q-.4.6-.95.5-.5 0-.95-.35l-.1-.1-.45.25-.9.1-1.05-.3q-.3-.35-.2-.9l.05-.3-.5-.35q-.25-.35-.25-1 0-1.05.3-1.4.4-.4.95-.4l.65.05q.3-1.05 1-1.5l1.15-.2zm-2.95 4 .8.5.9-.1.6-.7q.15-.5-.05-.95-.35-.75-1.2-.75-.8 0-1.15.75-.3.65.1 1.25m-3.3 12.6-.9-.2-.65-.65q-.15-.3-.05-.8l.2-.65q.25-.45 1.1-.75l.25-.15V34q-.1-.85.15-1.35.4-.9 1.4-1 .95-.1 1.55.75l.15.2h.2l1-.05q.6.2.85.5.35.6.1 1.15l-.8.8q.35.25.45 1.15.1.75-.15 1.15l-.55.4-.6.3-.7.05-.45.4q-.25.3-.85.4l-1.25-.25q-.6-.45-.45-1.15m.75-2.2v.35l.3.65.6.4q.85.25 1.35-.45.55-.65.1-1.45-.55-.7-1.35-.55t-1 1.05"/><path d="M27.5 9.65v-.5q0-1.25.15-1.85l.95-2 .4-1.1q.2-.7.5-1.1.45-.55 1.25-.7.7-.1 1.35.4l.8 1 1 1.9.75 1 6.8-.2.35-.35q1.15-.95 2.4-2.65.75-1.15 1.3-1.4.5-.2 1 0l.8.6.35 1.25.5 1.75.4 1.75v.2q-.65.2-1.15.65l-.5-.6q-.45-.3-1-.45-.65-.2-1.05 0-.75.3-.75 1.25 0 .7.35 1.55l.4.65-.55.35-.8.7q-.2.35-.05.75l.4.65q.55.5 1.5.3l.4-.1v.35l.2.65q.1.2.75.4h.75q.8-.25.8-1.3v-.25l.65.15.25.05.1 2q.1 3.5-1.3 6-1.2 2.2-3.35 3.6l.1 1.5q0 .6.15.8l.65.4q1.8.7 2.45 2.55l.3 1.3.15 1.85q-.15 1.75-2.45 3.85.45.65.3 1.5-.1.85-.75 1.35-.8.65-2.75.55l-.85-.05-.15.25q-.6 1.15-1.25 1.45l-1.8.2-1.05-.2q-1.05.9-2.85.5-1.4-.4-1.9-1.2h-.15l-1.3.35-1.55.2q-1.25 0-1.8-.4l-.8-.8q-.4-.5-.45-.9-.15-.85.5-1.6L26.1 36.8l-.6-1.25q-2.25.7-3.45 1.4l-2.1 1.5.85-.15 1.7-.1q.9.05 1.7.5.8.5 1.05 1.3.4 1.4-.7 2.4-.9.9-2.35 1.05l-2.7-.3q-1.25-.1-2.7-.85l-1.05-.8q-.35-.5-.35-1.55 0-1.45.15-1.9l.75-1.3q1.4-1.8 4-3.1 1.55-.75 4.85-1.75l.65-.15q.15-.45.45-.85l.05-.05-1.05-.2-1.15-.4q-.75-.3-1.45-.75l-.55-.45-.85-.85-.55-.65q-.65-.95-.95-2.1l-.2-1.5q-.1-1.4.4-2.75.35-1.1 1.05-1.7 0-.75.15-1.15.1-.5.45-.9l.95-.2q.5.15.75.65l.05.65.05.2.05.05.1-.4.1-.2.25-.6 1.45.05q.3.35.4 1.15l.05.35-.25 1.4-.05.1.1 1.2v1.5l.2 1.3q.2.5 1.1 1.1l.85.5.1-.05 1.05-.9.55-.75h.05l-.55-.45q-1.55-1.35-2.35-3.2l-.55-1.85.65-.55.35-.55.9 1.15 1.75.1q.45-.35.55-1.35v-.25l.05.05q.5.55 1.3.65t1.45-.3.85-1.2-.15-1.5q-.35-.65-1.05-.95l-1.4-.1q-.75.25-1.15.95l-.3.85-.95-.95.15-.05 1.65-.6q1.2-.6 1.2-1.45 0-.95-1.1-1.15l-1.65.2-.7.35-.2-1.65-.65-1.05zm9.55 10.05-.35.5-.8.5-.95.05q-1.3 0-1.75-.4l-.45-.5q-.25-.25-.55-.2l-.4.25-.2.5.4.95q.9 1 2.45 1.45l.9.15 1-.2 1.05-.65.25-.2q.15-.05.45.25.6.6 2 .6l.9-.05q1.2-.25 1.85-1.3l.2-.6-.45-.7-.8-.1-1.3.65-1.55-.15-.6-.35-.4-.5-.45-.15q-.3 0-.45.2m4.7-4.2q-.2.7.15 1.4t1.05 1l1.45.1 1.1-.85q.4-.65.3-1.4-.1-.8-.65-1.3-.8-.75-2-.4-1.1.35-1.4 1.45m-2.5 18.05.5-.1.3.25q.5.5.9.55l1-.2q.45-.35.55-.9v-.8h.2l.85-.25q.65-.45.35-1.55l-.5-.8.2-.85q0-.8-.4-1.15t-1.05-.35q-1.6.1-1.95 1.1-.45-.55-1.25-.45-.7.1-1.1.75-.2.45-.1 1.8l.05.5-.3 1.2q-.1.6.2.95.55.7 1.55.3"/><path fill="#fff" d="m29.85 16.05.3-.85q.4-.7 1.15-.95l1.4.1q.7.3 1.05.95.35.7.15 1.5t-.85 1.2-1.45.3-1.3-.65l-.05-.05q-.55-.75-.4-1.55m16.45-4.9q-.1-.8.35-1.4.55-.65 1.35-.5.85.1 1 .95v.65l.1.5-.25.65-.9.55q-.65.15-1.15-.35-.4-.35-.5-1.05m-4.55 4.35q.3-1.1 1.4-1.45 1.2-.35 2 .4.55.5.65 1.3.1.75-.3 1.4l-1.1.85-1.45-.1q-.7-.3-1.05-1t-.15-1.4m-4.7 4.2q.15-.2.45-.2l.45.15.4.5.6.35 1.55.15 1.3-.65.8.1.45.7-.2.6q-.65 1.05-1.85 1.3l-.9.05q-1.4 0-2-.6-.3-.3-.45-.25l-.25.2-1.05.65-1 .2-.9-.15q-1.55-.45-2.45-1.45l-.4-.95.2-.5.4-.25q.3-.05.55.2l.45.5q.45.4 1.75.4l.95-.05.8-.5zm23.7 3.75q-.95.45-1.7 0-.85-.5-.75-1.5.1-1.15 1.2-1.4t1.75.65l.3.85q.1.85-.8 1.4m-6 6.65q.25.7-.05 1.35-.5 1.15-1.8 1.05-1.3-.15-1.55-1.45-.1-.5.15-1.05t.75-.85q1.15-.6 2.05.3zm-12.7 0q.25.45 0 .85l-.55.7q-.6.5-1.05.45-.7 0-.95-.65-.25-.55 0-1.15t.85-.85l1.2.05zm20.7 3.35q-.6-.45-.5-1.25l.35-.8q.35-.35.8-.45h.6q1 .2 1.15 1.2t-.75 1.5q-.95.5-1.65-.2M27.7 13.4q.45.4.45 1.35.1.75-.2 1.15l-.55.4-.8.3q-.75.1-1.05-.75-.25-.55 0-1.35.25-.75.8-1.1.75-.45 1.35 0M9.4 24.85q-.4-.6-.1-1.25.35-.75 1.15-.75.85 0 1.2.75.2.45.05.95l-.6.7-.9.1zm11.85 3.35v.15l-.15 1-.75.65-1.05-.15q-.8-.45-.7-1.25 0-.95 1-1.2l.95.05.15.1zm-14.4 7.05q.2-.9 1-1.05t1.35.55q.45.8-.1 1.45-.5.7-1.35.45l-.6-.4-.3-.65z"/></g></svg>