<svg xmlns="http://www.w3.org/2000/svg" xmlns:ffdec="https://www.free-decompiler.com/flash" ffdec:objectType="shape" width="78.5" height="44.9"><g fill-rule="evenodd"><path fill="#fff" d="M16 20.2q1.2.6 2.15 1.55 1.8 1.8 2.45 4.35t-.15 4.9q-1.1 3.35-4.3 5.05l-2.3.9-2.7.65Q8 38 5.6 36.35q-2.7-1.85-2.85-4.8-.1-.8.2-2.5l.8-2.9.8-1.6-.55-1-.95-3-.2-.85-.05-.9q.15-3.7 2.7-6.55l.25-.35-.05-.35-.05-.55q0-.35.25-.45l.6.05q.6.3.7 1l-.35 1.3-.8 1.15Q5.2 15.3 5 17.8v.9q.15.7.65 1.65l.5.85.6.65.55-.45-.2-.4-.45-.9-.25-.7.45-3.45.2-.75.9-.95.95-.45 1.2-.3 1.05-.65L11 12l-.1-.9-.05-.45.15-.25.3-.05.5.5.45 1q.6 1.1.3 1.75l-.55.6-1 .6-1.15.4q-.65.3-.8.8l-.05.8-.15 1.25.3.85.7 1.05.75-.25-.1-1.05.1-.8q.15-.6.65-1l.3-.25 1.75-.55.35-.3.5-.9-.05-.2q.1-.3.35-.2l.2.3.15.35.1.5-.25.45-1.2 1-.45.35v1.2l.25.3.25.6q1.3.1 2.5.7"/><path fill="#767676" d="M21.85 12.3q-.5.8-.9 2.8-.35 2.35-.35 4.1 0 1.65.25 2.75.25 1.05.85 2.3.9 1.85 1.8 2.95 1.95 2.3 4.9 2.9l2.65.25 2.65.4q1.95.55 2.5 1.95.45 1.15-.25 2.45l-1.5 2.05-2.05 2.4-2.1 1.85-2.8.65q-6.05.6-9.25-.05l-1.75-.35-2.5.15-9.05.5q-2.65 0-3.5-.9-.6-.6-.75-1.65l-.1-1.95q0-1.2-.3-3.55L0 30.75l.15-4.55-.1-6.1q-.1-3.7.3-6.05l.85-4q.45-2.35.35-4-.2-1.5.05-2.2.45-1.3 2.05-1.65l2.7-.05q8.3.6 16.25-.05l2.15-.35 1.65-.35 1 .35q.65.35 1 .4l1.4-.05q.95.1.95.8l-.5.7-.9.4q-.4.3-1.25 1.7-.6 1.05-2.15 2.4l-2.15 2zM51.95.4l.8 1.35q.45 1.4 0 2.3-.5 1-1.55 1.15l-.95.25-.15.35V7l-.05 4.5-.05.6v.05q-.15 3.35-.8 5.75-.2.65-.55.6l-.4-.55-.45-2-.3-3.75-.5-5.8-.5.3-.85.15-1.2-.3L44 6.3l-1.1-.15q-1.05-.3-1.5-1.3-.4-1 .05-1.95.5-.95 1.5-1.2l1.4-.1 1 .1.5.15.45.25.1.1 1.2-.9 1.35-.35.75-.6Q50.2 0 50.85 0t1.1.4m5.2 1.45q.5-.8 1.4-.8 1-.1 1.55.65.65.75.45 2.1l-.5 2.15-.3 1.4-.8 1.05-1.8.1-1.85-.25-.7 5.6q-.65 6.05-1.7 9.25l-.55.6-.3.15-.35-.25-.2-1.45.05-.15-.05-.15.3-3.1.15-2.55q.25-4 .65-7.2l.1-1.65V6l.25-.5.25-.8q.5-.55 1.5-.45l1.6.15q.05-1 .55-1.95l.05-.1zm5.3 13.85q-.75.3-1.95-.3l-1.95-.65q-.5 1.7-1.25 5.3-.9 3.25-2.35 4.9l-.45.35-.45-.05q-.15-.1-.15-.55.15-4.7 1.35-9.3l.45-2.2.15-1.3q.15-.8.55-1.2.7-.7 1.9-.4l1.85.9 2.2-6.9q.5-1.55 1.15-2.15.8-.65 1.9-.5l.75.25q.65-.75 1.5-.4l.6.65.1.9-.65 1.3-.65 1-.4 1.05-1.55 3.55-1.35 3.65q-.55 1.8-1.3 2.1m10.3-14.25.95-.5.85.15.85.45 1.1.6.8.9q.2.6-.2 1.7L75.2 8.9l-1.4 2.45-3.9 6.4q-1.15 1.8-1.95 2.25l-1.5.35q-.85-.05-1.3-.6-.5-.6-.4-1.65l.5-1.6 4.2-10.65 1.65-3 .85-1zM60.25 31.2l-1.05.15q-.85-.25-1.05-1.25-.15-.7.05-1.7l.9-4.95.7-1.7.25-.65q.3-.3.6-.15l.45.5-.1.4-.05 5.4.1.65v.55l.45-.5q-.15-.5-.15-1.25l-.05-5.05q.1-1.1.6-2.1l.4-.55.75.05.45.55.25.9.1.6.3 1.85 1-.1q.55.2.75.65l.05-.3q.15-1 1.15-1.35.9-.25 1.95.35l.65.15.3-.35 2.7-4.25 3.65-4.8q.55-.65 1.05-.6.45.15.55.65l-.15.9-1 2.4q.4.15.5.65v1l-1.15 2.75-1.9 2.8-2.15 2.3-.45.45-2.25-.1-.95-.35-3.55 7-.75 1.3-1.3.95q-1.05.25-1.8-.6-.7-.8-.35-1.85l.5-1 1.7-2.6h-.2l-.45.55-1 .8-.35.05zm4.05-4.4v.05l.15-.2-.15-.05zm1.7-2.55v.1l.05-.05zm11.95 2.95q.65.6.5 1.5l-.7 1.3-1.05 1.25-1.85 1.95-.5.85q-.65.85-1.75.75-1-.1-1.65-.95l-.5-.65-2 2.55-2.05 2.45q-.75.65-1.3.4-.6-.2-.5-1.05l.5-1.1 3.5-5.8.4-1q.35-.65 1.05-.9l1.4-.1q.45.15.95.55l.4-.8 2.05-4.25.3-.6.8-.7.5-.05q.5 0 .7.6v.85l.25.15q.7.55.3 1.75l-.3.7zm-10.55 12 .3-.25 1.3-1.6.2-.6q.2-.5.8-.75l.2-.05.1-.1 1.45-.15 1.35.7.4.15.25-.1 1.15-.9 1.05-.65q.7-.2 1.15.15.55.35.5 1l.2.35q.45.8-.05 1.65l-.55.55q.65.55.65 1.55 0 1.5-1.6 2.7l-1.45.85-1.7.1-1.05-.4-1.2-.25-.9-.25q-.35.05-.95.45l-.95.3q-1.1.15-1.8-.8l-.05-.05-3.75-.05-1.1-.15q-.5-.1-.7-.4.05-.35.4-.6l.7-.3 1.85-.45 2.45-.1.3-.4.3-.3zM16 20.2q-1.2-.6-2.5-.7l-.25-.6-.25-.3v-1.2l.45-.35 1.2-1 .25-.45-.1-.5-.15-.35-.2-.3q-.25-.1-.35.2l.05.2-.5.9-.35.3-1.75.55-.3.25q-.5.4-.65 1l-.1.8.1 1.05-.75.25-.7-1.05-.3-.85L9 16.8l.05-.8q.15-.5.8-.8l1.15-.4 1-.6.55-.6q.3-.65-.3-1.75l-.45-1-.5-.5-.3.05-.15.25.05.45.1.9.15.85-1.05.65-1.2.3-.95.45-.9.95-.2.75-.45 3.45.25.7.45.9.2.4-.55.45-.6-.65-.5-.85q-.5-.95-.65-1.65v-.9q.2-2.5 1.05-3.75l.8-1.15.35-1.3q-.1-.7-.7-1l-.6-.05q-.25.1-.25.45l.05.55.05.35-.25.35Q2.95 15.1 2.8 18.8l.05.9.2.85.95 3 .55 1-.8 1.6-.8 2.9q-.3 1.7-.2 2.5.15 2.95 2.85 4.8Q8 38 11.15 37.6l2.7-.65 2.3-.9q3.2-1.7 4.3-5.05.8-2.35.15-4.9t-2.45-4.35Q17.2 20.8 16 20.2"/><path d="m17.8 23-.2-.75q-.7-3.2.05-6.4l.05-.05q-.3-.7-.45-1.6L16.6 11q-.3-1.5.1-2.15.3-.6 1.25-1l1-.4 3.4-.55h.4l1.8-1.7q1.8-1.55 3.65-2.3 2.05-.8 4.7-.9l5 .35.3-.8.85-.7L40.1.7q1.4 0 1.95.45l.45.5 1.75 2.5.4.2q2 1.05 3.85 3.35 1.5 1.7 2.25 3.55 1.45 3.35.65 8.5L51 21.7q1.2.45 2.45 1.3.85.55 2.3 1.85l1.35-1.65.45-.7L59 20.35l1.75-2.1.6-.8q.55-.4 1.2-.3h.1l.6-.95 2.5-3.5.9-1.3q1.1-1.2 3.2-1.1l1.05.25q.6.3 1.2 1.25l.5.85q.5 1.2-.35 2.3l-.9.85-5.7 4.2 2.25 3.45q.7 1.35.45 2.1l-.7.85-3 3.15-2.1 2.45.65.95q2.15 3.2 3.2 7.3.4 1.75.05 2.7-.45 1.5-2.1 1.85l-1.95-.35h-.05l-3.15.45q-16.3.1-25.5-.5-1.8-.1-2.6-.8-.65-.65-.75-1.95l.15-1.05-.3.05-5.8.6-4.05-.5-4.9-.65q-2.9-.65-4.35-2.1-1.1-1.1-1.8-3L9 33.55q-.95-.8-1.35-1.9l-.4-2.15q-.2-1.7.95-4.05l.9-1.3q.45-.35.7-.2.4.2.3.85l-.3 1.8-.2 1.05.3 1.35.35.9.15-.15.3-.2-.1-.9.1-1.95.1-.8.3-.7.35-.6.7-.9 1.3-1.1.65-.35q.45-.2.7.2.25.35-.15.95l-.6.9-.55 1.05-.4 1.15-.05 1.4.25 1h.2l.1-1.1.25-.7q.15-.4.45-.7l.35-.4.4-.2.85-.7.65-.1.35.45-.35.6-.4 1-.1.05-.2 1.05V30l.75.9.7 1.35.75 1.3 1.75 1.1 5.15.4 4.6-.45 3.55-.95.6-1.1h-.65q-3.7.1-6.9-.95-3.55-1.2-5.75-3.65l-1.8-2.75q.8.25 1.4-.3l.6-.7q.25-.3.75-.55l.1.5.75.8q1.05.55 2.1-.25.9-.6 1.15-1.85l.1-.6.9-.1 1.25-.85.2-.8q.1-1.45-.85-2.55-.5-.65-1.15-.8-.9-.2-1.25.55-.15.45.15 1.25l.25.8-2.5.55-2.7 1.05q-1.1.45-1.65 1zm46.95 2.15.15-.3-.1-.25-1.65-2.65-.85-1.3q-2.25 2.8-4.1 5.85l-.25.45 2.6 2.7zm-22-2.7.3.3q.45.1.6-.3l-.05-.65q-.3-1.15-1.6-1.65l-2.35-.4-4.5.7q-1.25.45-3.25 1.5l-.6.4-.15-.15-.6-.4-.45-.25h-.35l-.35.3-.05.3-.05 1.1-.7.25q-2.1.85-3.55 2.75-.95 1.35-.65 2.4l.5.75.85.2q.5-.1.8-.75l.25-.5.2.2 1.3.85 1.05.1.45-.65-.2-.8-.45-.75v-.7l-.05-.6 1-.3 1.4-.3.6-.25.65-.6.65-.75q1.8-1.1 3.2-1.55l.15.5.6.6.55.95q.3.65.75.75.75.15 1.25-.65l.5-1.4.3-1.05v-.05l.75.05q.95.1 1.3.5m-14.6-7.35q-.65 2.05 0 3.4l1.15 1.3q.8.5 1.65.3l1.45-.75 1.55-1 .55.3.7.25.6-.1 1.3-.5.8-.5 1.15-1.3.3-.95v-.25q.95-.5 2-.95 1.3-.6 1.65-1.2.3-.65.05-1.35-.35-.75-1.1-.9-.65-.1-1.7.35l-1.45.7q-4.45 2.35-8.05 5l-.85-.85-.45-1.1-.45-.4q-.35-.15-.55 0zm27.35 7.2.25-1.55v-.1l.1-1.1q-1.15-.65-1.15-1.9-.1-.7.4-1.25.35-.6 1.1-.75 1.1-.3 2 .65.8.9.45 2.1l-.3.8-.35 1.4-.8 1.45-.8 1-.35.4-.45-.25-.1-.5zm8.95 9.25q0-.35.25-.6.55-.7 2.3-1.2l1.6-.25q1.2.2 1.5 1.2.4 1.05-.5 1.85l-1.95.1-1.05-.7H66l-.6.1q-.85.1-.95-.5"/><path fill="#fff" d="M18.6 25.2h-.05q-.8-.25-.95-1.05-.15-.6.2-1.15l.4-.65q.55-.55 1.65-1l2.7-1.05 2.5-.55-.25-.8q-.3-.8-.15-1.25.35-.75 1.25-.55.65.15 1.15.8.95 1.1.85 2.55l-.2.8-1.25.85-.9.1-.1.6q-.25 1.25-1.15 1.85-1.05.8-2.1.25l-.75-.8-.1-.5q-.5.25-.75.55l-.6.7q-.6.55-1.4.3m9.55-10.1.3-.5q.2-.15.55 0l.45.4.45 1.1.85.85q3.6-2.65 8.05-5l1.45-.7q1.05-.45 1.7-.35.75.15 1.1.9.25.7-.05 1.35-.35.6-1.65 1.2-1.05.45-2 .95v.25l-.3.95-1.15 1.3-.8.5-1.3.5-.6.1-.7-.25-.55-.3-1.55 1-1.45.75q-.85.2-1.65-.3l-1.15-1.3q-.65-1.35 0-3.4m14.6 7.35q-.35-.4-1.3-.5l-.75-.05v.05L40.4 23l-.5 1.4q-.5.8-1.25.65-.45-.1-.75-.75l-.55-.95-.6-.6-.15-.5q-1.4.45-3.2 1.55l-.65.75-.65.6-.6.25-1.4.3-1 .3.05.6v.7l.45.75.2.8-.45.65-1.05-.1-1.3-.85-.2-.2-.25.5q-.3.65-.8.75l-.85-.2-.5-.75q-.3-1.05.65-2.4 1.45-1.9 3.55-2.75l.7-.25.05-1.1.05-.3.35-.3h.35l.45.25.6.4.15.15.6-.4q2-1.05 3.25-1.5l4.5-.7 2.35.4q1.3.5 1.6 1.65l.05.65q-.15.4-.6.3z"/></g></svg>