<svg xmlns="http://www.w3.org/2000/svg" xmlns:ffdec="https://www.free-decompiler.com/flash" ffdec:objectType="shape" width="77.2" height="43.7"><path fill="#717171" fill-rule="evenodd" d="M1 1h75.2v40.9H1z"/><path fill="none" stroke="#717171" stroke-linecap="round" stroke-linejoin="round" stroke-width="2" d="M1 1h75.2v40.9H1z"/><path fill="#fff" fill-rule="evenodd" d="M62.5 28.2q-1.2-.85-2.05-3l-.6-2.65q-.8-.05-1.5-.5-1-.7-1.25-1.85-.3-1.35.7-2.85.85-1.3 1.8-1.65l2.15.15q.85.4 1.4 1.2 1-.6 2.1-.8l1.2-.05q.25-.85.8-1.6.7-.9 1.7-1.35l.5-.15.75-.05 1.35.2 1.05.85.35.6q.55 1.1.15 2.25-.25 1-1.2 1.95l-1 .8.45 1.35q.45 2.05-.25 3.95-.6 1.45-1.75 2.7l-.3.3.35.55 1.25 3.65.5 1.25.7 2.6.55 1.8.1 1.95-.2 1.4-.95 1.3q-.7.55-1.5.5l-2.35-.45-.9-.55-.85.75-1.4.25q-.7-.05-1.25-.55l-.55-.7-.55.15q-1.15.2-1.65-.85-.25-.45-.2-1.3v-1.4q-.1-.6-.4-.7l-.5-.05-.55.2q-1.2.5-2.05-.35l-.4-.6-.35-1.1q-.35-1.65 1-3.35l.8-.6.6.2.15.65-.25.4-.65 2.1-.05.5q0 .35.3.35l.35-.05.35-.2 1.5-.25 1.15.05.75.65.9 1.4.25-1.8.55-2.4.9-4.35q-1.2-.25-2-.85m-1.85-7.3q-.15.3-.15 1 0 .8.25 1.3.45.8 1.25.95.9.2 1.5-.35.8-.65.7-2l-.15-.9q-.5-1.15-1.75-1.15-.5 0-1 .35zM68 26.65l.15-.4.2-.5q.15-.4-.2-1.5-.45-1.05-1-1.3-.75-.3-1.3.25l-.05.1q-.2.1-.3.25-.25.3-.35 1.45l-.2 1q.05.55.6 1 .85.5 1.6 0l.1-.05h.35zm-1.65-6.9.65 1.1.85.85q.7.4 1.4 0 .65-.35.75-1.1l-.4-1.5q-.25-.65-.7-1l-1.85-.1-.6.75q-.2.5-.1 1m-46.15-3.9L19.65 18l-1 1.7-1.7 1.85q-1 .7-2.8 1.25l-.45.2.15.4q.55 2.4 2.05 5.45l.65 1.4.6 1.7.95 2q.5 1.2.45 2.15l-.1 1-.45 1q-.45.4-1.1.2l-.9-.7q-.85-.95-1.45-3.25l-1.7-6.05-.15 3.5q-.2 4 .05 5.95l.15 2.3q-.1 1.45-.7 2.15-.9 1.05-2.3.9-.95-.1-1.5-.7l-.7.2q-1.4.25-2.3-.75-1.05-1.05-.85-4.05.35-3.85 1.05-7.1-.65 1.25-.95 2.2l-.55 1.7q-.35.95-.9 1.5-.7.7-1.35.55-.5-.05-.85-.6-.6-.75-.35-2 .1-.75.8-1.95l2.8-4.7 3.85-5.25.1-.15-1.85-1.65-.95-1.55q-1-2.35.4-5.6l.65-1.25-.05-.15q-.15-.85.5-2.65l.9-2.3L9 4.65l.45-.55q.4-.35 1.1-.25.9.1 1.15.85l.05.6v2.8q2.45-.5 4.65.55l.55.3.05-.05 2.15-1.65q.65-.5 1.4-.15.65.2.85 1.05l-.15 1.4-.15 1.25-.35 2.2-.45 2.2-.05.25zM14.3 19l.1-1.55q-.1-1.05-.7-1.3l-1.5.1-1.05 1.1-.8 1.05-.55 1.05q-.15.5.1 1 .2.45.65.7l1 .1q.55-.1.85-.5l1.2-.1.5-.65zm-6.75-7.05-.3.6-.15.9v.35q.1 1.15 1.05 1.8.95.7 2 .3 1.1-.3 1.9-1.65l.2-.45q.4-.85 0-1.8-.35-.9-1.2-1.3l-1.25-.25q-1.15.1-1.85.95zm11.25 2.5.05-.2q.35-1.05-.35-2-.65-.85-1.8-.95l-.1.05q-.75 0-1.3.45t-.8 1.2l-.1 1.05.1.85.25 1q.4.95 1.45 1.05 1.35.25 2.05-1.05z"/><path fill="#717171" fill-rule="evenodd" d="M66.35 19.75q-.1-.5.1-1l.6-.75 1.85.1q.45.35.7 1l.4 1.5q-.1.75-.75 1.1-.7.4-1.4 0l-.85-.85zm1.65 6.9-.4.3h-.35l-.1.05q-.75.5-1.6 0-.55-.45-.6-1l.2-1q.1-1.15.35-1.45.1-.15.3-.25l.05-.1q.55-.55 1.3-.25.55.25 1 1.3.35 1.1.2 1.5l-.2.5zm-7.35-5.75.65-.8q.5-.35 1-.35 1.25 0 1.75 1.15l.15.9q.1 1.35-.7 2-.6.55-1.5.35-.8-.15-1.25-.95-.25-.5-.25-1.3 0-.7.15-1M18.8 14.45l-.55 1.45q-.7 1.3-2.05 1.05-1.05-.1-1.45-1.05l-.25-1-.1-.85.1-1.05q.25-.75.8-1.2t1.3-.45l.1-.05q1.15.1 1.8.95.7.95.35 2zm-11.25-2.5.4-.55q.7-.85 1.85-.95l1.25.25q.85.4 1.2 1.3.4.95 0 1.8l-.2.45q-.8 1.35-1.9 1.65-1.05.4-2-.3-.95-.65-1.05-1.8v-.35l.15-.9zM14.3 19l-.2 1-.5.65-1.2.1q-.3.4-.85.5l-1-.1q-.45-.25-.65-.7-.25-.5-.1-1l.55-1.05.8-1.05 1.05-1.1 1.5-.1q.6.25.7 1.3z"/><path fill-rule="evenodd" d="M39.15 38q-5.4-1-9-3.2l.75 2.15 1.15 2.45q.55 1.5.05 2.65-.3.8-1.1 1.3-.8.45-1.7.35l-1.6-.4-2.15-.1q-2.65.1-3.85-1.15-.6.7-1.55.85l-1.75-.25-.05-.05q-.8.55-1.9.45-1.7-.15-2.4-1.8-.35-.9-.15-2.45.75-4.15 5.45-9.05l.3-.3-3.7 1q-2.75 1.05-4.9 3.2l-.7.8-.3.95q-.6 2.3-2.4 3.15l-2 .25q-1.15-.2-1.75-.95-.75-.95-.65-2.55.15-1.45.9-2.55.7-1.05 2.55-2.4 3.7-2.75 6.85-3.8 4.5-1.6 10-.75l-.2-1.85q-.25-3.7 1.2-7.3.7-1.7 1.7-3.15l.25-1.15 3.45-10.5L30.4.8h4.9l1.2 1.75.85 1.65.9 1.4 5.55-.5q2.85.2 4.6.9 1.4.6 2.75 1.7l.4-.1 4.15-1.1 3.05-.35q.8.1 1.4.6.65.55.75 1.3.1.5-.2 1.6l-1.2 6.2q-.75 3.7-1.8 5.9-.1 3.75-2.1 7.4t-5.5 6.3q-3.25 2.45-6.05 2.8zm-3.3-22.1-.25-.9-.45-.85q-1.1-1.35-2.8-1.65-1.7-.25-3.1.7l-1.1.85-.95 1.25q-.3.65-.4 2.15l.05.75q.15 2 2 3.1 1.8 1.05 3.75.3 1.9-.7 2.85-2.5l.45-1.15zm4.55-7.45q.45-.55.2-.85-.15-.25-.5-.15l-.55.3-1.05.8q-1.1.7-1.3 1.35-.25.8.45 1.4l1.45.05q.8-.45.6-1.35l-.05-.45.2-.35zm8.45 21.15-.8-1.4-1.55 2.3-.4.5-.2.2-.1.55 2.45.15.7-1q.15-.7-.1-1.3m2.05.55q-.2.4 0 .85l.6.6q.4.2.85 0L53 31l.05-1-.5-.9-.05-.6-.3-.6-.6-.05q-.25.15-.15.55l.05.6-.15.4zm5.2-13.1q0-.95-.65-1.7l-.4-.45-.3-.55q-.15-.35-.45-.4-.4-.1-.55.25-.15.3.05 1l-.05.6-.1.75q-.1 1.1.45 1.6.55.55 1.2.2.7-.3.8-1.3m-10 9-1.6-1.35-.35.8-1.7 4.45V30l.6.25 1.1.6.15-.15.5-.3.3-.3 1.05-1.25.2-.35q.4-.65.95-1.15zm-3.55-2.15-1.25-.4v-.05q.2-.85-.05-1.35-.35-.75-1.05-.85t-1.2.5q-.35.4-.4 1.2l-1.35.05v.05q-.05 1.9.15 3.7l.2 1.6.05.4h.5l2.25.5.25.1.05-.25.2-.35L42.95 24zm1.25-10.1q-.2.4-.25 1.35l-.6 1.2q-.15.5.05 1 .25.55.75.6.8.25 1.25-.6.35-.6.1-1.4l-.3-1v-.85q-.1-.6-.55-.6-.25 0-.45.3m2.2 5.65q-.15.5-.15 1.5v.25q1.05.1 2.55.85l.8.45 1.35 1.1.75.75.65 1 .1.1q1.1-.35 1.8-1.1l.8-1.1.35-.75.3-1.25-.4-.15-1.2-.8-1.7-1.7-.4-.5-.5-.95-.35-1.05q-1.4-.1-2.65.6-1.65 1-2.1 2.75m-12.2-4.2q.95 1.25.45 2.8-.5 1.5-2 2-1.45.45-2.8-.45-1.35-1-1.25-2.55 0-.95.55-1.75t1.4-1.15L32 14q.95.25 1.55.9zM30.15 29.8l.65.15-.05-.7-.1-.35v-.8l-.35-1.95-.2-.55v-.1l-.25.25q-.9 1-.9 2.15.1 1.45 1.2 1.9m1.55-5.45-.2.15.15 1.35.05.3.05.5.4 1.75.15.3.05.3.25.65 2.75-.55.05-.45.1-5.45-2 .35zm-5.35-1.3-.15-.5.05-.4-.1-.75-.15-.45-.45.05-.45.6-.15.55-.45 1.2q-.3.8-.1 1.3.25.6.9.7.6.1 1.05-.45.55-.7 0-1.85"/><path fill="#fff" fill-rule="evenodd" d="M46 19.45q.45-1.75 2.1-2.75 1.25-.7 2.65-.6l.35 1.05.5.95.4.5 1.7 1.7 1.2.8.4.15-.3 1.25-.35.75-.8 1.1q-.7.75-1.8 1.1l-.1-.1-.65-1-.75-.75-1.35-1.1-.8-.45q-1.5-.75-2.55-.85v-.25q0-1 .15-1.5m-2.2-5.65q.2-.3.45-.3.45 0 .55.6v.85l.3 1q.25.8-.1 1.4-.45.85-1.25.6-.5-.05-.75-.6-.2-.5-.05-1l.6-1.2q.05-.95.25-1.35m-1.25 10.1.4.1-2.05 4.75-.2.35-.05.25-.25-.1-2.25-.5h-.5l-.05-.4-.2-1.6q-.2-1.8-.15-3.7V23l1.35-.05q.05-.8.4-1.2.5-.6 1.2-.5t1.05.85q.25.5.05 1.35v.05zm3.55 2.15 1.2 1.3q-.55.5-.95 1.15l-.2.35-1.05 1.25-.3.3-.5.3-.15.15-1.1-.6-.6-.25v-.05l1.7-4.45.35-.8zm10-9q-.1 1-.8 1.3-.65.35-1.2-.2-.55-.5-.45-1.6l.1-.75.05-.6q-.2-.7-.05-1 .15-.35.55-.25.3.05.45.4l.3.55.4.45q.65.75.65 1.7m-5.2 13.1.45-.75.15-.4-.05-.6q-.1-.4.15-.55l.6.05.3.6.05.6.5.9-.05 1-.65.6q-.45.2-.85 0l-.6-.6q-.2-.45 0-.85m-2.05-.55q.25.6.1 1.3l-.7 1-2.45-.15.1-.55.2-.2.4-.5 1.55-2.3zM40.4 8.45l-.55.75-.2.35.05.45q.2.9-.6 1.35l-1.45-.05q-.7-.6-.45-1.4.2-.65 1.3-1.35l1.05-.8.55-.3q.35-.1.5.15.25.3-.2.85m-4.55 7.45.05 2.05-.45 1.15q-.95 1.8-2.85 2.5-1.95.75-3.75-.3-1.85-1.1-2-3.1l-.05-.75q.1-1.5.4-2.15l.95-1.25 1.1-.85q1.4-.95 3.1-.7 1.7.3 2.8 1.65l.45.85zm-2.05-.65-.25-.35q-.6-.65-1.55-.9l-1.85.15q-.85.35-1.4 1.15t-.55 1.75q-.1 1.55 1.25 2.55 1.35.9 2.8.45 1.5-.5 2-2 .5-1.55-.45-2.8m-7.45 7.8q.55 1.15 0 1.85-.45.55-1.05.45-.65-.1-.9-.7-.2-.5.1-1.3l.45-1.2.15-.55.45-.6.45-.05.15.45.1.75-.05.4zm5.35 1.3 1.8-.8 2-.35-.1 5.45-.05.45-2.75.55-.25-.65-.05-.3-.15-.3-.4-1.75-.05-.5-.05-.3-.15-1.35zm-1.55 5.45q-1.1-.45-1.2-1.9 0-1.15.9-2.15l.25-.25v.1l.2.55.35 1.95v.8l.1.35.05.7z"/></svg>