<svg xmlns="http://www.w3.org/2000/svg" xmlns:ffdec="https://www.free-decompiler.com/flash" ffdec:objectType="shape" width="74.2" height="41.25"><g fill-rule="evenodd"><path fill="#717171" d="M1.95 41.2h-.6l-.05-.05h-.1l-.15-.05-.1-.05L.9 41l-.1-.05-.05-.05-.05-.05-.05-.05H.6l-.15-.2-.05-.05-.05-.05v-.05L.3 40.4v-.05l-.05-.05-.05-.05v-.15l-.05-.05v-.1L.1 39.9v-.25l-.05-.1v-.75L0 38.75v-.15l.05-.05v-1.1H.1v-7.5l.05-.05v-7H.2v-1.1H.15v-.05l.05-.05v-1.75l-.05-.05v-.05H.2v-1.1H.15v-7L.1 11.7V4.2H.05V3.1L0 3.05V2.9l.05-.05V2.1L.1 2v-.25l.05-.05v-.1l.05-.05V1.4l.05-.05.05-.05v-.05l.05-.05v-.05L.4 1.1l.05-.05L.6.9h.05L.7.8.75.75.8.7.9.65.95.6l.1-.05L1.2.5h.1l.05-.05h.6l.1.05.05-.05.1-.05.1-.05.15-.1h.15L2.65.2h.2L3 .15h.25L3.4.1h.8L5.25.05h5.3l.3.05h2l2 .05h7.85l.15.05h1.7l.15.05h.35l.1.1h.1l.1.05h.15l1-.4h21.2l1 .4h.15l.1-.05h.1l.1-.1h.35l.15-.05h1.7l.15-.05h7.85l2-.05h2l.3-.05h5.3L70 .1h.8l.15.05h.25l.15.05h.2l.05.05h.15l.15.1.1.05.1.05.05.05.1-.05h.6l.05.05h.1l.15.05.1.05.05.05.1.05.05.05.05.05.05.1h.05l.15.15.05.05.05.05v.05l.05.05v.05l.05.05.05.05v.15l.05.05v.1l.05.05V2l.05.1v.75l.05.05v.15l-.05.05v1.1h-.05v7.5l-.05.05v7H74v1.1h.05v.05l-.05.05v1.75l.05.05v.05H74v1.1h.05v7l.05.05v7.5h.05v1.1l.05.05v.15l-.05.05v.75l-.05.1v.25l-.05.05v.1l-.05.05v.15l-.05.05-.05.05v.05l-.05.05v.05l-.05.05-.05.05-.15.2h-.05l-.05.05-.05.05-.05.05-.1.05-.05.05-.1.05-.15.05h-.1l-.05.05h-.6l-.1-.05-.05.05-.1.05H2.2l-.1-.05-.05-.05zm16.6-13L19.6 31q1.3 2.7 2.55 4.1 1.1 1.15 3.8 2.65 1.1.7 1.75.85l1.8.35 1.05.35h1.3l2.65.25h5.2l2.65-.25h1.3l1.05-.35 1.8-.35q.65-.15 1.75-.85 2.7-1.5 3.8-2.65 1.25-1.4 2.55-4.1l1.05-2.8q.85-3.25.95-6.4v-1.95h.05q-.15-3.1-1-6.4l-1.05-2.8q-1.3-2.7-2.55-4.1-1.1-1.15-3.8-2.65-1.1-.65-1.75-.85l-1.8-.35-1.05-.35h-1.3L39.7 2.1h-5.2l-2.65.25h-1.3l-1.05.35-1.8.35q-.65.2-1.75.85-2.7 1.5-3.8 2.65-1.25 1.4-2.55 4.1l-1.05 2.8q-.85 3.3-.95 6.4h.05l-.05.45.05 1.5h-.05q.1 3.15.95 6.4"/><path d="m42 15.55-1.15.75-2 .6-.2.05v1.2l1-.1.75-.1.7-.25.85-.05 1.7-.6q1.3-.3 2.25.3 1.1.75.9 2-.25 1.4-1.8 1.75h-.7l-.7-.1-4.15.1-.65.1.05.65-.05.2.05.35 2.6-.1 2.55.25q1.35.35 2.15 1.45.6.95.7 2.6l.05 2.8q2.1-.6 3.15.5.6.55.65 1.4.05.8-.4 1.45-.65.7-1.9.95l-2.1.45-1.35.3q-.7.05-1.35-.45-.6-.5-.75-1.2v-1.1l.1-1-.35-3.65-.15-.4-.5-.05-4.55.7-1.2.15q-1.6-.1-2-1.7-.15-.6.1-1.7l.05-.55.05-.75-.05-.95q0-2.5.3-5.05l.1-.55-.95-.6q-1.65-1.2-2.05-3.2l.05-2.35q.2-1.3.45-1.85.35-.75.8-1.25 1.3-1.5 3.25-2.05 2-.6 3.9.05.7.2 1.4.55l1.3 1.25q1.65 2.05 1.4 4.6-.3 2.7-2.3 4.2m-13.1 15.9q1.95.8 3.6.7 2.15-.2 3.25-1.6L36.8 29q.65-1 1.55-1.15.65-.1 1.25.45.55.45.65 1.15.05.75-.4 1.7-.9 1.9-2.5 3.2-1.7 1.4-3.7 1.85-1.95.45-4.3-.05-3.15-.6-5.4-2.65-2.4-2.3-2.7-5.3-.05-1.2.05-2.45l.5-2.45q.35-1.05 1.35-2.4 1.35-2 3.05-3.35 2.15-1.55 4.25-1.6 1.85-.1 2.95 1 .5.6.4 1.2l-.65.7-1.05.2q-3.05.5-4.9 3.05-1.8 2.55-1.4 5.55.1 1.3.75 2.2.75 1 2.35 1.6"/></g></svg>