<svg xmlns="http://www.w3.org/2000/svg" xmlns:ffdec="https://www.free-decompiler.com/flash" ffdec:objectType="shape" width="66.75" height="38.75"><g fill-rule="evenodd"><path fill="#999" d="m66.25 17.05-.95.4-.95-.25q-.45-.25-.6-.8-.2-.5-.05-1t.6-.8 1-.25q.5.05.95.4.4.35.45.85.15.85-.45 1.45m-10-9.65q.5-.4 1.2-.4t1.3.35q.95.55 1.65 2 .85 1.95.65 4.15t-1.45 3.85q1.4.4 2.35.9l.65-.2h.8q1.35.2 1.85.7l.35.45.1.2.25.4.2.6q.35 1.3-.7 2.15l-.3.25.2 1.55q.05 1.85-.65 3.45-.7 1.65-2.15 2.8t-3.15 1.45q-1.8.25-3.5-.45-1.75-.7-2.7-2.15l-.7-1.4L52 28q-.9-.15-1.6-1l-.4-.7q-.3-.8-.1-1.55l.5-.95.35-.4q.55-.45 1.2-.6l.65-.05.2-.55q-1.05-1.05-1.2-2.7-.15-1.45.4-3 .45-1.25 1.45-2.65l1.85-2.4.4-.7-.15-.9q-.35-1.65.7-2.45m4.25 16.1-.55-1.05-.9-.35-1.35-.35q.1.65-.6 2.45-.6 1.6.1 2.45.65 1 1.95.55 1.05-.4 1.4-1.55.3-1-.05-2.15m-6.4 11.15q-.95.15-1.5-.75-.35-.75.05-1.5.4-.7 1.3-.7.55 0 1 .4.45.45.5 1 0 .55-.4 1.05-.4.45-.95.5M7.35.85Q8.4.25 9.3.1q1.85-.15 3.2 1.65l.4.7.1.5q.2 1.95-.9 3.1l-1 .8-.65.4-1.1.4q-1.4.45-1.95 1.4l-.5.45-.35-.05-.15-.1-.65-.5-.15-.2L3.3 7.5l-1.2-.75q-.65-.55-.9-1.5-.2-.75-.1-1.8l.15-.65Q1.6 1.7 2.7.65l.45-.3.7-.25 1.4-.05Q6.2.2 6.75.6l.45.4zm9.05 27.7 1.5 3.2L19.3 35q.4.8.75 1.1l.55.6-.15.9-.85.9q-.9.5-2.25-.35-1.6-1.15-3-3.9L13.25 32l-1.3-2.1q-1.9-2.35-4.2-2.35l-2.1 2.05-1.35 1.15-2.95-.15Q-.1 29.65 0 28q.15-1.85 2.45-3.5 1.25-.9 2.35-1.3 2.45-.9 5.1-.05 2.45.75 4.4 2.7 1.35 1.35 2.1 2.7"/><path d="M30.3 1.5q2.15.45 4.05 1.6.6-.3 1.55-.45l2.75-.1q1.15 0 1.95.4 1.2.7 1.2 1.9l-.1 1-.4 1.9-.65 3.05q.8 2.5.5 5.1-.25 2.15-1.35 4.65-.95 2.2-2.15 3.8l1.45-.3q2-.6 3-2.1.95-1.4 1.15-4.95.35-5.55 1.9-8.75 1-2.1 2.7-3.6 1.75-1.6 3.85-2.05 1.5-.3 3.6-.05 2.85.45 4.65 1.7 2 1.45 2.6 3.45l1.05 2.6q.35 1.35.3 2.4-.15 1.45-1.15 2.15-1 .75-2.2.3-1.25-.4-1.5-1.65l-.2-1.95-.5-.85q-.4-.4-.85-.25t-.7.8l-.35 1.15q-.3.8-1.15 1.15l-1.7.1q-1.75-.55-2-2.55-.7.1-1.05.85-.25.55-.35 1.4-.6 4.7-1.35 6.9-1.15 3.75-3.55 6-2.15 2.05-5.3 2.85l-5.7.25.8 3.35.55 1.75.6 2.1q.05.8-.45 1.45l-.9.75h-2.3q-.5-.2-.85-.6-.4.4-1 .6h-1.6l-.45-.2-.15.2H22.4l-.75-.55h-.1l-.25.55h-4.4l-.4-1.05q-.1-.75.3-2.05 1.35-4.55 3.2-8-5.15-.75-8.65 1.35-.4.2-.45.5l.2.7q1.25 2.05.55 4.2-.75 2.3-3 2.95l-2.15.1q-1.1-.25-1.9-1-1.25-1.2-1.45-3.3Q3 31.9 3.4 30.6q.55-2 2.2-3.7 2.8-2.9 6.85-3.75l3.05-.3-.55-.85q-1.35-2.35-1.65-5-1.65-2.35-2.75-4.8-.55-1.1-.6-1.8-.15-1.05.35-1.85.45-.55 1.4-1 2-.95 4.5-1.15 2.35-3 6.15-4.35 4-1.5 7.95-.55m26.5 16.2q3.6 1 4.9 2.2 1.95 1.8 2.05 4.5 0 2.7-2 4.55-.95.8-1.9 1.05-.8.2-2.1 0l-1.55-.4q-1.05-.45-1.75-1.45-.65-1-.75-2.15-.15-2.5 1.8-4.05l-1.9-1.55q-1.05-1.55-.05-3.65.6-1.25 2.45-2.9l1-1.25.35-.9.45-.05q.3.05.45.25l.35 1 .05 1.7q-.1.7-.75 1.6zm-22.4.6 1.75.25 1-.15 1.25-.9.75-1.45.1-.95-.1-.75q-.2-.65-.8-1.35-.6-.5-1.3-.75l-.6.25-1.2 1.05L34 14.9l-1.55 1q.05.65.35 1.1l.4.4zm-11.2 2-.2-.35-.4-.2-.4.3-.1.35v.55q-.1.3.1.8l.35.75.65.6.5.35q.75.5 2.1.6l2.2-.25.6-.2.4-.25.7-.5.1.15q.7.6 1.35.8l1 .05.95-.1 1.05-.3q.8-.3 1.35-.8l.8-1.35.15-.4v-.4l-.15-.35-.65-.05-.55.4q-.65.6-2 .85l-1.05-.1-.6-.7q-.45-.7-1.35-.85t-1.5.45q-.4.35-.5.75l-.45.35-.65.3-1.05.15-.95-.2-.9-.35q-.7-.35-.9-.85m2.55-3.55.1-.2-1.85.05-3.6-.5-.8-.25-.55-.1v.55q.15.9.8 1.55l.25.2.45-.2.95-.15 1.4.05h1l.95.15.15.1zm32.45 10.6-.6-.05q-.3.2-.3.5l.05.35v.4q.1.8.7.85.6.2.9-.5v-.7l-.25-.35zm-2.8.4q-.2.75-.05 1.1l.1.2q.5.4.95.2l.4-.45.15-.65v-.35q-.1-.55-.65-.65t-.8.4zm-1.2-3.1.3.9q.35.65.75.8l.75-.1.4-.65-.15-.75-.3-.65q-.35-.6-1.05-.45-.7.2-.7.9m4.1 1.25.35-1.05.05-.3q.1-.55-.45-.9l-.95-.05-.5.45q-.15.3-.15.95 0 .8.4 1.1l.65.2z"/><path fill="#fff" d="m58.3 25.9-.6.4-.65-.2q-.4-.3-.4-1.1 0-.65.15-.95l.5-.45.95.05q.55.35.45.9l-.05.3zm-4.1-1.25q0-.7.7-.9.7-.15 1.05.45l.3.65.15.75-.4.65-.75.1q-.4-.15-.75-.8zm1.2 3.1.1-.2q.25-.5.8-.4t.65.65v.35l-.15.65-.4.45q-.45.2-.95-.2l-.1-.2q-.15-.35.05-1.1m2.8-.4.5.5.25.35v.7q-.3.7-.9.5-.6-.05-.7-.85v-.4l-.05-.35q0-.3.3-.5zm-32.45-10.6L25 18l-.15-.1-.95-.15h-1l-1.4-.05-.95.15-.45.2-.25-.2q-.65-.65-.8-1.55v-.55l.55.1.8.25 3.6.5 1.85-.05zM23.2 20.3q.2.5.9.85l.9.35.95.2 1.05-.15.65-.3.45-.35q.1-.4.5-.75.6-.6 1.5-.45t1.35.85l.6.7 1.05.1q1.35-.25 2-.85l.55-.4.65.05.15.35v.4l-.15.4-.8 1.35q-.55.5-1.35.8l-1.05.3-.95.1-1-.05q-.65-.2-1.35-.8l-.1-.15-.7.5-.4.25-.6.2-2.2.25q-1.35-.1-2.1-.6l-.5-.35-.65-.6-.35-.75q-.2-.5-.1-.8v-.55l.1-.35.4-.3.4.2zm11.2-2-1.2-.9-.4-.4q-.3-.45-.35-1.1l1.55-1 1.25-1.35 1.2-1.05.6-.25q.7.25 1.3.75.6.7.8 1.35l.1.75-.1.95-.75 1.45-1.25.9-1 .15z"/></g></svg>