<svg xmlns="http://www.w3.org/2000/svg" xmlns:ffdec="https://www.free-decompiler.com/flash" ffdec:objectType="shape" width="77.3" height="40.6"><g fill-rule="evenodd"><path fill="#767676" d="M67.2 15.45q.05 2.2-.85 3.8-.75 1.4-2.1 2.3l.05.9.1.55.45.25.05.05 1.7-2.5 1.85-2 .5-.1.2.4-.25.45q-1.6 2.25-2.8 4.75l.25.6.2.8q1.25-1.6 2.8-2.95l1.65-1.3q1.15-.7 2-.7l.4.25-.25.45-1.65 1q-.7.5-1.6 1.55-1.35 1.6-2.35 3.4l.05-.05.45-.55 1.15-1.05q1.5-1.4 2.55-1.65l.35.05.1.15v.15q-.25 0-.6.3-1.15 1-2.15 2.1-1.3 1.4-1.9 2.6l-.25.55-.3.35-.3.55 1.2-1.1q1.1-.8 2.75-1.6l.9-.45 1.8-.55.4.05-.3.35-2.15 1.45-2.15 1.8-.65.7 1.15.4.55.3h.15l.75-.05h.15l.1-.85q-.05-.65.05-.95.2-.7.7-.55.25 0 .4.35l.2.7.45-.85q.55-.85 1.05-1.4l.35-.25.35.1-.1.5q-.85 1.5-1.35 3.15h.15l.85.05h.35l.15-.05h.6l.2.05.1.05h.2l.1.05.2.05.2.05.1.1.1.05.1.1.1.05.05.1.05.05.05.1.05.1.05.05.05.1v.05l.05.1v.6l-.05.1v.05l-.05.1-.05.05-.05.1-.05.05-.05.1-.05.1.05.1v.45l-.05.1v.15l-.05.05v.1l-.05.05-.05.1-.05.05-.05.1-.05.1-.05.05v.75l.05.05v.15l-.05.1v.05l.05.1v.6l-.05.1v.05l-.05.1v.05l-.05.1-.05.1-.05.05-.05.1-.05.05-.05.1-.1.05-.1.1-.1.05-.1.1-.2.1-.1.05h-.1l-.1.05h-.15l-.25.05h-.2l-.1.05h-.1l-.1.05h-.15l-.3.05h-.4l-6.35.05H53.6l-5.6.05h-2.9l-2.9.05H31.7l-20.3.05H9.6l-.95-.05H8.1l-.4-.05H6.55l-.3-.05h-.2L4.6 39.3h-.7l-.3-.05h-.2l-.2-.05-.25-.1-.15-.05-.1-.1-.1-.1-.1-.05-.1-.1-.05-.05-.05-.1-.1-.05-.05-.1-.05-.05v-.1l-.05-.05-.05-.1V38l-.05-.05v-.4l-.05-.05.05-.1v-.3L2 37v-.05l.05-.1v-.05l.05-.1.05-.1.05-.05.05-.1.1-.05.05-.1.05-.05.05-.05h-.05l-.1-.1-.1-.05-.1-.1-.05-.1-.05-.05-.05-.1-.05-.05-.05-.1-.05-.05v-.1l-.05-.05V35l-.05-.05.05-.1v-.3l.05-.05v-.1l.05-.1v-.05l.05-.05-.05-.05-.05-.05-.05-.1-.05-.05v-.25l-.05-.1.05-.05v-.15l.05-.1.05-.05.05-.1.05-.05.15-.1.1-.1.15-.05h.1l.15-.05h.3l.2-.5.95-2.1.6-.8.3-.1.1.55-.55 1.7-.25.95v.3H8.1l.8.05h.25q-.5-1.4-1.5-2.4l-1.4-1.4-.45-.7-.55-1-.65-.8-.3-.9v-.35l.4-.1.35.2 2.1 2.2 1.25 1.15 1.15 1.2q.7.9 1.05 1.95l.25.7-.05-.8q0-1.2-.7-3.4l-1.25-3.15-1.1-1.6-.6-.75-.4-.7-.3-.55q.1-.3.45-.2l.45.35 1.25 1.3 1.7 2.2.35.55 1.25 2.75.85 2.8.05 1.55h6.5l1.45-.05h1.4l1.5-.05H35.2l-.05-.1-.25-1.35-.4-1.4.1-.95.15-1 .05-.45q.1-.3.35-.3.25-.1.35.25l.05.55.5 2.1.55 2.1v.5h.2l.05-.75-.05-.85.1-1.6.65-4.55.2-.75.65-1.7.3-.6.4-.25.25.35-.05.5-.3 1.5-.1.85-.2 3.8.05 2.2 2.55-4.85q.45-.75 1.65-2.05l.55-.35q.45 0 .45.4l-.35.65-.45.75-.6.75-.5.85-1.75 4.4-.2.75-.05.3.95-.25.7-.95q.85-1.15 1.6-1.8l.35-.3q.3-.1.4.15l-.15.55q-.85 1-1.4 2.3l1.1.1.55-.4q.8-.4 1.6-.5l-.05-.4.1-1.25.5-.8.35-.4-.25-.4-.6-.6-.15-.15-.15-.15-.2-.2-.65-.45-.3-.2-.1-.3v-.1l.2-.05 1 .3h.2l.45.2 1.45 1.3.85-.5-.1-.1-1.3-1-1.1-1.2h.25l1 .45 2.4 1.3 1.5-.55-.4-.6q-1.95-2.85-2.55-4.35l-.1-.35.2-.2.3.3.35.35.4.3 1.15 1.1 2.15 2.6.05-.05.5-.6-1.2-2.95-.95-2.15q-.15-.45 0-.65l1.75 2.1 1.2 2 .4.8.25-.3.15-.55.15-.65.35-.75-.9-.65q-.95-.85-1.5-2.05-.5-1.2-.35-2.45.05-.7.45-1.75.35-.95.65-1.35l.3-.4-.35-.65-.1-.85.1-1.15.6-1.3.25-.65.35-.7q.25-.4.75-.45.45-.05.85.25l.55.65.6 1.15.5.65 4.3-.1.2-.25L64 7.9l.85-.9q.3-.15.6 0 .35.1.5.4.2.2.2.75l.35 1.1.25 1.15.05.8.1 1.45.1.65v.15zm-3.55.85 1.05.1q.55-.15.95-.55.85-.95.25-2.05l-.8-.75-1.05-.2q-1.35.25-1.5 1.5-.1.6.2 1.15.3.6.9.8M37.05 5.6q1.65-1.45 3.95-2l4.5-.1q1.3.3 2 .75L49 5.6q1.7 2.2 2.5 4.55.55 1.3.4 2.4l-.35.55q-.4.15-.7-.5-.8-2.05-1.4-2.95l-2-2.05-1.25-.8-1.4-.4q-2.55-.3-4.3.65.65.1.75.9.1.6-.45 1.05l-.95.7-1.65 1.2-.5.45-.9.05-.7-.65-.2-.5L35.25 9l-.6-1.9.15-.7.55-.4q.4-.2.95 0l.35.1zm16.75 9.8q.15 1.15 1.25 1.55 1.15.35 1.9-.45.85-.85.5-1.9-.4-1.15-1.6-1.25-1.2-.15-1.8.95-.3.55-.25 1.1m5.45 1.55-.2-.1v-.25l-.2-.35-.4-.05q-.45.15-.45.65-.1.8.65 1.15.7.35 1.3-.2l.15-.1.2.2.5.2h.7l.75-.6.3-.65-.25-.65-.65.05-.2.5q-.15.45-.65.2l-.6-.45q-.2 0-.45.2zm-9.3 12.15-.55.35.5.45h.35l.65.15-.8-1z"/><path fill="#fff" d="M63.65 16.3q-.6-.2-.9-.8-.3-.55-.2-1.15.15-1.25 1.5-1.5l1.05.2.8.75q.6 1.1-.25 2.05-.4.4-.95.55zm-4.4.65.5-.25q.25-.2.45-.2l.6.45q.5.25.65-.2l.2-.5.65-.05.25.65-.3.65-.75.6h-.7l-.5-.2-.2-.2-.15.1q-.6.55-1.3.2-.75-.35-.65-1.15 0-.5.45-.65l.4.05.2.35v.25zM53.8 15.4q-.05-.55.25-1.1.6-1.1 1.8-.95 1.2.1 1.6 1.25.35 1.05-.5 1.9-.75.8-1.9.45-1.1-.4-1.25-1.55m-34.3-3.95q.5.5.55 1.2.1.75-.3 1.3-.6.95-1.85.85-1.15-.15-1.65-1.25-.4-1.05.35-2 .6-.7 1.45-.7.95 0 1.45.6"/><path d="M34.55 12.55q.05 3.25-1.25 5.6-1.15 2.1-3.2 3.4l.1 1.35q0 .6.15.75l.65.4.1.05 2.55-3.65q1.65-2.25 2.8-2.95.35-.35.75-.15l.25.6-.3.65q-2.4 3.3-4.25 7.05l.4.8.3 1.2q1.85-2.35 4.2-4.35 1.3-1.15 2.5-1.9 1.75-1.05 2.95-1l.65.35-.35.65-2.5 1.45-2.4 2.3q-2.1 2.35-3.55 5l.1-.05.65-.8 1.75-1.55q2.2-2.05 3.75-2.45l.6.05.15.25v.2q-.4 0-.95.45l-3.2 3.1q-2 2.05-2.85 3.85l-.35.8-.5.45-.4.85 1.8-1.6q1.6-1.2 4.1-2.4l1.35-.65 2.7-.8q.45-.2.6.1.15.25-.4.55-1.25.55-3.25 2.1l-3.25 2.65-2.05 2.25-.5.65.3.15.45.4 1.95-1.55q.3-.2 1.75-.85 1.75-1 2.1-1.1l1.55-.45.5-.2.55.05q.35.2.05.45l-.15.15-1.65.95-3.2 2.35-.45.5q1.15-.15 1.7 0l1.65.55.95.7.25.35H26.3l-.05-.1h-.2v.1H3.35l-.05-.45q.1-.95.75-1.35l1.15-.4.15-.05q-.85-.15-1.8-.65l-1-.75q-.35-.5-.35-1.45 0-1.35.2-1.8l.7-1.2.55-.6-.4-.55-.85-.85-.3-.3-.15-.15-.35-.3-1-.7-.45-.3L0 28.3l.05-.15.3-.05q.55.05 1.5.5h.25l.7.25 2.2 1.9L6.25 30l-.1-.1-1.95-1.5q-1.2-.9-1.7-1.8.05-.15.4 0l1.5.7q2.15 1 3.55 1.9l2.3-.8-.6-.9q-2.9-4.2-3.85-6.4l-.1-.5q0-.3.25-.3l.45.4.55.55.65.45 1.7 1.65 3.25 3.8.05-.1.8-.85-1.85-4.35-1.4-3.15q-.25-.7 0-1 1.5 1.6 2.6 3.15l1.8 2.95.6 1.1.4-.4.15-.8.3-.95q.2-.75.5-1.1l-1.35-1q-1.45-1.25-2.2-3-.8-1.8-.6-3.6.1-1.05.7-2.55l1-2 .45-.6-.55-.95-.2-1.25.2-1.7.9-1.9.35-1 .5-1.05Q16.1.5 16.9.4q.65-.1 1.25.4l.8.95.95 1.7.75.95q3.1-.7 6.45-.15l.35-.35 2.25-2.45q.75-1.1 1.3-1.3.45-.25.95 0 .5.1.7.55.3.3.35 1.15l.5 1.6.4 1.65.05 1.2.1.75-.05.75.1.65.15.9v.25zM50.9 36.7l.65 1.9v-.05l.2-.2.1-.55 1.4-2.2.55-.45.3-.3.5-.65.45-.35q.2-.05.35.15l.2.3-.2.4-.35.35-1.35 3.15-.4 1.9v.5h-3.5l-.1-.35q-.1-.25.1-.7l.2-.7.05-1-.15-1.05-.3-.75-.1-.45q0-.3.25-.35l.6.5zm9.1.5-.3.5-.5.25-.45.75-.6 1.45-.2.45h-2.3q0-.6.6-1.3 1.55-2 2.8-2.35l.55-.05zM15.55 13.55l1 .3 1.3-.4.9-1.05q.55-1.45-.7-2.5-1.15-.95-2.6-.2l-.9 1.05q-.3.65-.15 1.3l.35.85zm6.15-2.1h-.3q-.7.15-.85 1.3-.2 1.3.35 1.85.45.45 1.25.35l1.15-.55 1.05.55 1.05-.25.5-.6.25-1.35q-.1-.8-.8-1.15-.25 0-.25.35l.1.45-.4 1.35q-.45.15-.75-.45l-.6-.75q-.5-.15-.65.25l-.1.55-.7.45-.3-.05-.25-.4q-.1-.65.2-1.15zm6.4.05q.2.8 1 1.35l1.6.35q.85-.1 1.45-.85.65-.7.5-1.55-.05-.9-.75-1.5t-1.55-.6q-.4-.05-1.05.25-.7.3-1.05 1.05-.4.8-.15 1.5M8.6 32.65l-.85.5.8.7h.5l1 .2-1.25-1.5z"/><path fill="#fff" d="M28.1 11.5q-.25-.7.15-1.5.35-.75 1.05-1.05.65-.3 1.05-.25.85 0 1.55.6t.75 1.5q.15.85-.5 1.55-.6.75-1.45.85l-1.6-.35q-.8-.55-1-1.35m-6.4-.05-.05.75q-.3.5-.2 1.15l.25.4.3.05.7-.45.1-.55q.15-.4.65-.25l.6.75q.3.6.75.45l.4-1.35-.1-.45q0-.35.25-.35.7.35.8 1.15l-.25 1.35-.5.6-1.05.25-1.05-.55-1.15.55q-.8.1-1.25-.35-.55-.55-.35-1.85.15-1.15.85-1.3zm-6.15 2.1-.8-.65-.35-.85q-.15-.65.15-1.3l.9-1.05q1.45-.75 2.6.2 1.25 1.05.7 2.5l-.9 1.05-1.3.4z"/></g></svg>