<svg xmlns="http://www.w3.org/2000/svg" xmlns:ffdec="https://www.free-decompiler.com/flash" ffdec:objectType="shape" width="77.75" height="44.45"><g fill-rule="evenodd"><path fill="#999" d="M34.2.1q3.1.6 2.95 3.65-.1 2.3-2.25 3.3-2.8 1.25-5.15.1-1.5.9-3.25.65-1.4-.25-2.05-1.6l-3.35.45q-1.4-.15-1.65-1.45-.15-.85.05-1.7l.55-.5.1-.1.15-.05h.1l.25.2v.2l-.25.2.15.85.15.55.95.5.8-.35q2.35-1.2 3.7.6l.5.2 1.05-.3-.35-.8q-.85-2.65 1.85-3.2l1.1.2.5.35.35.05.45-.05q.15-.85.85-1.4.8-.6 1.75-.55M7.1.05q4.55-.4 6.25 3.7.95 2.15.3 4.45l-.95 2.25 2.9-.4q3-.4 5.85-1.4l.55-.1q3.05.5 2.5 3.45-.25 1.35-1.55 1.8-1.9.7-3.55-.4-2.5-.4-5.1-.1l-6.75.4-1.4-.05-.85-.05-.35.35L2 16.8l-1.4.05q-.6-.55-.6-1.4Q.05 14 1.15 12.9l.5-.4q-.05-.35.2-.8l.25-.3L.65 9.35Q-.5 7.1.6 4.9q.6-1.65 2-2.8Q4.6.45 7.1.05M55.85 36l1.95-2.25v-.5l.6-.15q3.3 0 5.55 2.25V35q.3-3.5-.05-6.95l-.1-.95v-1.25q-.1-.85-.05-1.7l.1-1-3.7-.6q-1.5-.45-2.7-1.55-2.1-1.85-2.2-4.2-1.9-.85-4-1.25-2.2 3-5.55 1.4l-.8-.9q-1.1-3.4 2.15-5 1.25-.65 2.6-.8 3 .15 5.65 1.35l-.05-.65.3-2.3q.2-1 1.15-1.1l.5.15.2.15 1.75.85 1.05.05 1.3-.8 2.05-.6.3-.3.3-.35.15-.3q.65-1.1 1.55-1.95l.55-.2q2.25 1 3.6 3.15 1.6 1.25 2.35 3.4l.1-1.7v-.8q-3.6-.9-3.25-4.4.15-1.3 1.35-1.85l1.05-.2q3.7.05 4.7 3.65l.3 2.1q-.05 2.45-.95 4.75-1 2.65-2.6 4.85-.45 1.7-1.7 3.2l-.4.35-.75.55.7 1.65q1.85 4.05 2.5 8.4.95-2.85.5-5.85l-.45-2.65q-.5-3.05 1-5.75.65-1.15 1.9-1.4 1.65.6.5 2.05l-.4.7q-.1 3.5.9 6.95.4 1.45.4 3t-.5 3l-.45 1.95-.55 1.35q-.9 2.75-2.75 4.6l-.15.85q-.5 2.85-3.45 3.3-2 .3-3.6-.7l-.35-.3-1.2-.05q-1.05-.2-1.35-1.25l-.15-.7q-1.8-1.8-4-2.95l-.25.05-.15.05-.4.45-.25.35-.05.1-.45 4.6-.25.5q-1.85 1.6-4.1.15l-2.4-1.55q-.95-.6-.8-1.7.3-2.6 3.05-2.35h.45q.1-.65.35-1.25l.1.05.45.05.25-.05.25-.2zm-4.9-2.45Q50 35.6 47.2 36.1q-2.7.45-3.85-1.9-.3-.65-.1-1.4.45-1.4 1.55-2.45.9-.9 2.05-1.35-.6-.95-.5-2.3t1.05-2.4q.1-1.35 1.2-2.3l.3-.25q-.85-.65-.05-2l.6-.6.8-.2q2.55.3 2.3 2.5l.6.3q.4-.55 1.15-.6 2.9.05 2.15 2.65-.35 1.2-1.15 1.4.25 1.55-.55 3-1.3 2.3-3.35 2.6v.6l-.1.95-.35.4zm3.8-7.55q.9-1.45-.4-2.05-.3.75-1.45 1.2l-.4.15q0 .75 1.1 1.1.75.25 1.15-.4M51 25.65l.25-.5-.75-.5q-.55-.5-.5-1.05-.8 0-1.05.85-.45 1.45 1.1 1.65.6.05.95-.45m10.6-8.85.05-1.1q-2.6 0-4.25-1.95-.25.15-.5.4-1.5 1.7-.2 3.5 1.35 2 3.55.95 1.15-.55 1.35-1.8m9.5-3.25q.25-2.75-2.25-3.4l-.05.1q-.6 3-2.95 4.35l.2.25q1.75 1.95 3.95.5 1-.6 1.1-1.8M11.05 8.9l.1-.2q-1.95-.25-2.5-2.3l-.1-.75-.8.4Q6.6 6.9 6.9 8.3q.45 2.2 2.8 1.8 1.05-.2 1.35-1.2m8.65 26.15q-.65 1.4-2.1 2.05-2.75 1.2-5.3.4l-.75 1.55-.8.95q-2.7 2-6 .7-3.6-1.35-4.35-5V34q.4-2.65 2.6-3.9v-.35q-.15-.5-.05-1 .15-1 .8-1.75.5-.8 1.3-1.4l1.3-1.35v-.1L6.4 24l.1-.2.05-.2v-.05l-.05-.1-.05-.2-.05-.1-.45-.4-.75-.55-.6-.05-.4-.05q-.85.15-1.4.75l-.9.65h-.3l-.35-.1-.2-.15-.2-.25-.15-.3v-.2l.1-.35.1-.35v-.1l.1-.05h.1l.25.15.05.05v.35l.15.1h.15q.8-1.05 2-1.55l1.55-.3q1.5.2 2.5 1.25.35.35.35.85.6 1.95-1 3.35-1.05.95-1.6 2.25l.6 1.05 2 .3q.3-.75.75-1.35-.45-.65-.5-1.45-.15-3.65 3.35-4.35 3.25-.2 4 2.65 1.7.35 2.85 1.55l1.05-.3q3.55-.15 3.5 3.2-.05 2.8-2.75 3.65zm0-1.1q.25-.85.1-1.45l-.8.2-2.95-.1v1q.5 1.95 2.5 1.45.9-.25 1.15-1.1m-6.8-7.4-.6.1q-1.45.5-1.4 2 .05 2.15 2.3 2l.5-.1-.25-.45q-.7-1.4-.05-2.95l.2-.4zM28.4 37.2q2.65-.2 3.2 2.05.2.7-.4 1.1.35 2.2-2.05 2.8l-5.55.95q-.55.05-.95-.3-2.2-2.15-.1-4.3 2.45-2.45 5.85-2.3"/><path fill="#fff" d="M71.1 13.55q-.1 1.2-1.1 1.8-2.2 1.45-3.95-.5l-.2-.25q2.35-1.35 2.95-4.35l.05-.1q2.5.65 2.25 3.4m-9.5 3.25q-.2 1.25-1.35 1.8-2.2 1.05-3.55-.95-1.3-1.8.2-3.5.25-.25.5-.4 1.65 1.95 4.25 1.95zM51 25.65q-.35.5-.95.45-1.55-.2-1.1-1.65.25-.85 1.05-.85-.05.55.5 1.05l.75.5zm3.75.35q-.4.65-1.15.4-1.1-.35-1.1-1.1l.4-.15q1.15-.45 1.45-1.2 1.3.6.4 2.05M11.05 8.9q-.3 1-1.35 1.2-2.35.4-2.8-1.8-.3-1.4.85-2.25l.8-.4.1.75q.55 2.05 2.5 2.3zm1.85 17.65.7.2-.2.4q-.65 1.55.05 2.95l.25.45-.5.1q-2.25.15-2.3-2-.05-1.5 1.4-2zm6.8 7.4q-.25.85-1.15 1.1-2 .5-2.5-1.45v-1l2.95.1.8-.2q.15.6-.1 1.45"/><path d="m54 36.9-.1-.05-.05-.1v-.1l-.15-1.05-.55.05-1.7.05-.5-.55v-2.4l.35-.4.15-.15 1.7.05.55.05.15-1.15.05-.1.1-.05.1-.05.45-.05.25.05.25.2q1.2 1.1 2.25 2.5v.6L55.85 36l-.8.75-.25.2-.25.05-.45-.05zm1.05-3.75v.05h.05zm0 1.6.05-.05h-.05z"/><path fill="#fff" d="M36.3 25.95q-2.55.35-4.85 1.7l-.3.05-.6-.2-.1-.05v-.2l-.05-.1q.6-1.05 1.8-1.5l.55-.2q1.2-.9 2.5-1.55l.15-1.2q.3-.75 1.05-.85l.45.15.15.1q.55.75.55 1.6 1.5.3 2.85 1.05l.75.4.35.2 1.15.55.1.05.05.1.05.1v.25l-.05.1v.1q-.8.5-1.75.35l-.5-.2-4-.9zm7.85-10.25q3.5.5 3.3 3.95-.15 1.8-1.8 2.55-2.4 1.15-4.1-.85-1.45-1.7-.4-3.7.95-1.85 3-1.95M27.8 17.65q3.4.45 3.15 3.8-.1 1.45-1.35 2.25-2.35 1.4-4.2-.65-1.5-1.6-.5-3.55.95-1.8 2.9-1.85"/><path d="m70.8 28.65.85 1.1.1.1.15.1.3.35.05.45.35 1.35q.2 1.35 0 2.65l-.05.45q-1.25 4.45-6.05 5.1-2.3.35-4.35-.95-3.7-2.35-2.8-6.65 1-4.6 5.8-5.4l.8-.1-.1-.6q-.25-1.65 1.25-2.05 1.65.65 1.2 2.55v.1q1.4.3 2.5 1.45M37.65 7.3q2.65-.1 4.8.8l3.7-3.35q.35-.35.85-.35 2.25.75 2.9 3.3t.9 5.15q.3 2.8-.3 5.35.6 2.75-.05 5.7-1.15 5.2-5.1 8.85L43.9 33.9l1.5 4.25q.6 2.35.55 4.7l-.05.7H28l-.3-.7v-1.2q.2-1.25.75-2.4l2.05-3.9.25-.4q-1.35-.5-2.65-1.2-4.85-2.65-6.3-7.95-.75-2.7-.4-5.35-1.35-.35-2.45-1.7-.7-.8-1.15-1.8l-.2-.45-.1-.1q-.3-.3-.25-.75.35-1.85 2.3-2.6 3.1-1.2 6.3-1.6 1.25-1.25 2.85-2.2 1.7-1 3.65-1.35zm6.5 8.4q-2.05.1-3 1.95-1.05 2 .4 3.7 1.7 2 4.1.85 1.65-.75 1.8-2.55.2-3.45-3.3-3.95M36.3 25.95l.3-.1 4 .9.5.2q.95.15 1.75-.35v-.1l.05-.1v-.25l-.05-.1-.05-.1-.1-.05-1.15-.55-.35-.2-.75-.4Q39.1 24 37.6 23.7q0-.85-.55-1.6l-.15-.1-.45-.15q-.75.1-1.05.85l-.15 1.2q-1.3.65-2.5 1.55l-.55.2q-1.2.45-1.8 1.5l.05.1v.2l.1.05.6.2.3-.05q2.3-1.35 4.85-1.7m29.35 3.1q-1.05.35-2 .95l-.7.45q-.85 1.1-1.05 2.5-.1 1.25.25 2.5.85 1.5 2.55 2.1l1.25.4q2.55.05 4.1-1.95l.15-.25.1-.35.15-.25.05-.1v-.2l.05-.15.05-.1.05-.9v-1.25q-.75-1.95-2.6-2.8v.05q.2 3-.35 5.8-1.45.5-2.65-.95l-1.3-1.35q-.85-.75-.8-1.85l.1-.05.05-.1.15-.1q1.25.15 2.2 1.25l.65.55v-3.75l-.2-.1h-.25M27.8 17.65q-1.95.05-2.9 1.85-1 1.95.5 3.55 1.85 2.05 4.2.65 1.25-.8 1.35-2.25.25-3.35-3.15-3.8"/></g></svg>