<svg xmlns="http://www.w3.org/2000/svg" xmlns:ffdec="https://www.free-decompiler.com/flash" ffdec:objectType="shape" width="58.55" height="40.35"><g fill-rule="evenodd"><path fill="#999" d="m15 31-1.25-.8-1.75-.9-1.7-.95-1.1-.75-1.45-1.15-1-1.6L5.3 22.2 5 21.05l1.3 1.7L9 25.5l2.1 1.4 4.85 2.6 1.05.4 3.7 1.1 2.4.2q.35 0 .2.4l-.45.3-1.7.2-4.3-.45Q15.7 31.4 15 31m19.4-6.5-.75-.45-1.55-.1q1.45.6 2.75 2.25l.7 1.15.9-1.8-1-.5zm.95 9.05-.8 1.2-.6.95 1.2-.05 1.25-.5q-.55-.75-.95-1.8zM47.2 40.3l-.05.05h-7.2l3.3-.5 2.6-.95 1.25-1.2v-1.2l-.2-1.15q-.1-.85.3-.95.55-.2.8.7.9 2.4.4 3.65zM42.85 7.05l.05-.25-1-.4zM45.9.95 42.2 0h7.05l.05.05q2.65 2.05 4.05 3.55 2.1 2.1 3.15 4.25.3.75-.15.8l-.45-.4q-1.8-3.2-7.25-6.1zm.95 7.6-1.5-.7q.9 2.8.3 5.9-.4 2.2-1.75 2.5l-1.05-.15q-.55-.3-.75-.8-.25-.6 0-1.7l.15-1.75q-.2-1.2-2.2-2.35-6.15-3.35-11.75-3-3.15.2-5.85 1.65-2.85 1.55-4.4 4.1-.95 1.65-1.5 3.55-.35.9-.3 1.6t.65 1.8l.6 1.2 1.9.6q-1.75-.8-1.85-2.95-.15-1.65 1-3.4 1.5-2.45 4.35-3.8 2.65-1.3 5.75-1.35 5.6-.1 10.05 3.45.9.8 1.3 1.7.5 1.05-.05 1.8-.8.95-2.2.55-.5-.15-2.1-1.2-3.8-2.65-7.55-2.45-2.1.15-3.85 1.3-1.8 1.2-2.5 3.05 2.35 1.3 7.95 1.85 5.55.55 7.95 1.95 1.85 1.05 2.45 2.55.9 1.95-.35 3.35 2.7 3.1 2.8 5.3.05 2.8-2.6 4.85-2 1.5-5.25 2l-4.25.45 1.7.35h-8.9l-.8-.35-2.3-1.15q-3.75-.9-7.85-2.5Q8.9 35 7.15 33.9 4.2 32.05 1.3 28.65q-1-1.2-1.2-2.05-.15-.6 0-1.2.2-.6.7-.9 1.35-.8 3.4 1.35 5.55 5.75 11.6 7.5 3.75 1.15 10.3.95 2.8-.1 4.2-.8 1.05-.5 1.65-1.35.7-.95.65-2-.1-1.65-1.7-2.75-1-.7-3.1-1.2l-4.6-.7-4.55-.8q-5.45-1.4-7.4-5.1l-.6-1.45-.45-.5q-.8-.9-1.55-2.7L8.1 12.8q-.05-.85.25-2.55L8.7 8.6q.4-2 .9-2.9.45-.9 1.45-1.95l1-1.1L15.3.05l.05-.05h3L17.1 1l-3.55 3.2q-1.75 1.95-2.45 4l-.55 2.1v.25Q11 8.9 11.85 7.6q1.45-2.05 4.9-4.1 4.3-2.5 7.6-3.3l.95-.2h8.4q4.45.7 9.7 2.8 9.1 3.5 11.4 8.95.3.7.25 1.35-.05.75-.65 1-.9.4-2.1-1.15-2-2.55-5.45-4.4"/><path d="m41 36.6 1.8-1.5.4-.6.15-1.15q.1-.8.75-.8.4 0 .6.55l.1.85.2 1.25-.25 1.05q-.65 1.55-2.35 2.5-1.15.7-3.3 1.15l-2.7.45h-3.55l-2.35-.15-1.95-.2-1.15-.7-1.6-1.4 4-.3 6.65.05 3.2-.65zm-5.65-25 1.3 1.15q1 .8 1 1.4l-.35.6-.7.25q-.65.05-1.35-.45l-1.15-.9q-.5-.35-1.7-.75l-2.2-.6-3.55-.1-2.2.2q-1.2.3-2.35 1.1-1.85 1.35-2.45 3.45.9 1 2.35 1.55l1.4.75-2.4.2q-1.5.2-2.3-.35l-.85-.9q-.5-.7-.55-1.4-.05-.75.4-1.95.5-1.3.9-1.9 1.45-2.35 4.6-3.2l5.75-.4 1.7.2 1.85.6q2 .8 2.85 1.45m13.05 5.3q-.3 1.05-1.65 1.25l-2.2.1-1.7.35-1.7.2 3.15 1.55.95.6q.75.65.65 1.6l-.35 1.4-.95 2.15q1.95-.95 3.1-1.95l1-.85q.6-.45 1.15-.5.65-.1 1.2.3l1.1 1.35 1.4 1-.95-2.7-.6-1.55q-.15-1.25 1.05-2.8.9-1.2 1-1.9l-.7.15-.65.3-1.25-.05-1.1-.8-1.3-2.4-.5-.65q-.3 1.7-.2 2.5zm-6.35-6.15.65.75-.05 1.15-.8.85q-1.05.45-1.75-.3-.75-.75-.35-1.7.35-1 1.45-1l.3.05zM7.1 30.8q3.8-.3 12.3 1.25l12.25.75q2.2-.3 2.85-1.4.6-.95.1-2.2-.5-1.15-1.55-1.9-1.9-1.4-6.45-2.1l-8.35-1.25q-2.95-.5-4.2-1.25-2.65-1.65-2.9-5.2-.2-2.75 1.45-5.95 1.75-3.3 4.7-5.7 3.05-2.4 6.65-3.35 6.9-1.75 15.9 1.7 2.4.95 3.4 2l.55 1q.15.6-.25.95L41.9 8.1Q33.7 4.6 27 5.6q-3.9.55-7.1 2.75-3.4 2.35-4.8 5.75-.7 1.75-.65 3.4.15 1.4.9 2.2.75.7 2.75 1l8.2 1.25 4.05.75q2.2.5 3.75 1.45 1.9 1.05 3 2.8 1.2 1.8 1.1 3.8-.25 2.35-1.9 3.7-1.9 1.65-6.2 1.85-12.15.45-23-5.5M50.9 2.75q1.25.2 1.4 1.35t-.9 1.7q-1.1.5-1.95-.35-.75-.9-.15-1.95.4-.75 1.3-.85l.05.05zM47.8 7.5q1.3.3 2.2 1.3l1.4 2.15 1.4 2.1L55.55 12l2.45.15q.55.5.55 1.45l-.3 1.6q-1.1 3.4-2.05 4.9-.4.6-.45.95l.15.8 1.15 3 .85 3.1q.3 2-.95 2.65-1 .5-2.55-.45-2.35-1.4-4.75-3.3L43.25 31q-1.1.7-1.8.6-1.05-.15-1.35-1.45-.2-.9.15-2.1.55-2.5 1.9-5-2.55-1.6-5.45-2.75-1.75-.65-1.95-1.55-.25-.8.5-1.55.6-.6 1.45-.9 2.75-1.15 8.7-1.65l.35-5.2q.1-1.25.55-1.6.55-.55 1.5-.35"/></g></svg>