<svg xmlns="http://www.w3.org/2000/svg" xmlns:ffdec="https://www.free-decompiler.com/flash" ffdec:objectType="shape" width="75.5" height="40.1"><g fill-rule="evenodd"><path fill="#999" d="m70.7 9.3-7-.1H46.95l-19.1-.05L2 9.1l-2-.05V7.4h2l25.85-.05h19.1l16.75-.1 7-.05h4.75v2.1zM25.35 6.1H0V0h75.45v6.05h-50.1zm-12.2 5.75H1.4l-.6-.05-.3-.2q-.15-.1-.25-.15l-.05-.2-.1-.15v-.3l.1-.2.05-.15.25-.2.3-.15.6-.1h11.75l6.1.05 5.15.05 3.9.1 3.4.05h32l1.6.05.45.15.3.15.1.2.05.1-.05.2-.1.15-.3.2-.45.1-1.6.05H39.25l-7.55.05-3.4.05-3.9.1H13.15zm31.9.4.35.05q.5.1.7.7.1.7-.45 1l-1.05-.05q-.55-.35-.35-1 .2-.6.8-.7m-4.65 5.8 4.1.55.1.2-.6.1-6 .6v.45q-.1 1-.85 1.65l2.85.45 1.5.1 1.95.35 1.9.3q.35.1.3.2l-3.45.3-2.95.25-3.15.5-3.15-.05-.8-.35q-.65-.45-.55-1.15 0-.75.65-1.15l.75-.2-.05-.65.3-.5-.65-.05-.7-.45q-.3-.35-.3-.8 0-1.05 1.05-1.3h.75l.45-.2 1.05-.4h.1l-.75-.75q-.35-.6-.25-1.2.25-.95 1.15-1.3.95-.35 1.7.35.7.55.55 1.6l-.4.85 2.55-.6 1.5-.35.6-.05.4.05v.25l-.7.55-1.9.9-1.55.5-.1.15.95-.05 1 .1zm21.95 10.2H74.1l.6.05.3.2.25.15.05.2.1.15v.3l-.1.2-.05.15-.25.2-.3.15-.6.1H62.35l-6.1-.05L51.1 30l-3.9-.1-3.4-.05h-32l-1.6-.05-.45-.15-.3-.15-.1-.2-.05-.1.05-.2.1-.15.3-.2.45-.1 1.6-.05h24.45l7.55-.05 3.4-.05 3.9-.1h11.25zm-20.8-3.1.45-.25h.65q.6.2.9.6.25.45.15 1.05l-.55.85-1 .2-.9-.55q-.3-.45-.2-1 .05-.55.5-.9m8.6 8.85H75.5v6.1H.05v-6.05h50.1zM4.8 30.8l7 .1h16.75l19.1.05L73.5 31l2 .05v1.65h-2l-25.85.05h-19.1l-16.75.1-7 .05H.05v-2.1z"/><path d="M66.5 19.6q.7.45.65.85l-.3.45-.35.2-2.55.9-4.35 1.05-3.65.9-3.65 1-1.65-.1q-.5-.25-.6-.9 0-.65.45-1.05l.3-.2.05-.05.25-.2.6-.65 1.35-1.35L51 17.8l-.05-.05-.1-.15-.05-.05-.15-.1q-.55-.4-.45-1.2.15-.7.85-1l1.1.1 10.3 2.75q2.4.7 4.05 1.5M48.35 17h.25l.1.05.15.05.1.05.05.05.05.1.05.05.05.05.05.05v.05l.05.1v.1l.05.05V18l-.05.05v.15l-.05.05v.05l-.05.05-.05.05-.05.1-.05.05-.05.05-.1.05-.15.05-.1.05-.2.05h-.05l-.2-.05H48l-.4-.05h-.3l-.15-.05h-.2l-.15-.05h-.45l-.15-.05h-.05l-.2-.05h-.45l-.15-.05h-.1l-.1-.05h-.25l-.15-.05h-.2l-.1-.05h-.5l-.1-.05h-.15l-.1-.05h-.3l-.15-.05-.05-.05h-.05l-.1-.05-.05-.05-.05-.05v-.15l.05-.05.05-.05.15-.05.05-.05h.05l.1-.05h.1l.1-.05h.45l.15-.05h.35l.1-.05h.35l.15-.05h.1l.1-.05h.25l.2-.05h.25l.2-.05h.2l.35-.05h.1l.15-.05h.35l.15-.05h.15L48 17h.35m1.75 2.55.2.05h.1l.1.05.15.05.1.05.1.05.05.1.05.05.05.05.05.05v.05l.05.1.05.05v.05l.05.05v.15l.05.05v.3l-.05.05v.05l-.05.05v.15l-.05.05-.05.05v.05l-.05.1-.05.05-.1.05-.05.05-.1.05-.1.1h-.1l-.05.05h-.05l-.1.05h-.45l-.2-.05h-.05l-.1-.05h-.85l-.15-.05h-.15l-.1-.05H48l-.15-.05h-.2l-.2-.05h-.2l-.45-.05h-.45l-.3-.05h-.7l-.25-.05h-.2l-.15-.05h-.2l-.15-.05h-.5l-.2-.05h-.4l-.15-.05h-.2l-.15-.05h-.25l-.2-.05h-.3L41.9 21l-.1-.05-.05-.05h-.15l-.1-.05-.05-.05v-.1l-.05-.05.05-.05v-.05l.1-.05h.05l.15-.05.05-.05.1-.05.15-.05h.5l.1-.05h.15l.15-.05h.35l.25-.05h.15l.2-.05h.65l.1-.05h.1l.15-.05h.45l.35-.05h.35l.3-.05h.9l.05-.05h.15l.2-.05H48l.15-.05h.1l.1-.05H49l.2-.05h.3l.1-.05h.5zm5.05-.3.25.3.15.35 5 .05-6.25-1.45zm-34.3-14.3 1.6-.2q.3-1.1 1.3-2 1.1-.95 2.75-1.2l2.3.15.9.6q1.9 1.3 2.25 2.95.2.7.05 2.2l-.45 1.65-.1.2.6 1.9q.25 1.75-.2 4.25v.15l.5.85 2.55-1.95.5-.45.7-.7.45-.35.5.1v.5l-.3.4-.8 1.15L35 16.7l-.45.7-.2.3-.35.8.4-.1 1.6-.15.6-.1.15-.1.7-.15.2.05.2.05-.15.3-.2.15-.6.35-.1.1-2.7 1.55-.1.05.45 3.4.45.25 3.9 2.15v.1l.45.15.25.15.05.25-.35.2-4.9-1.05-.05.15Q33.7 30 31.4 31.9q-1.15 1-2.95 1.55-4.75 1.75-7.95.15l-.15-.1-.15.05q-1.4.3-2.8-.4-1.4-.6-2.25-1.85-.65-.8-1.1-.85-.55-.05-1.15.85l-1.55 1.35q-1 .6-1.95.3l-.75-.3h-.7l-1 .7q-.65.5-1.1.2-.45-.35-.05-1.2.45-1.05 1.4-1.6l2.15-.15.65.1.55-.4 1.25-1.55q.8-.65 1.9-.8t2 .35l1.3 1.05-.3-1.2q-.45-2.05.25-4 .25-.85.75-1.6-2.3-.8-3.55-2.5-1.4-1.7-1.6-4.3l-1.2-.4q-1.8-.9-2.25-2.9l-.1-.6q-.1-.95.1-1.55l.4-.95q.55-.75 1.05-1.15 1.7-1.35 3.55-.95.75.1 1.35.45 2.3-2.05 5.4-2.75m1.65 15.6q.3-.75 0-1.45l-.45-.55-.75-.2h-.1l-.05-.25-.3-.45-.35-.2q-.2-.05-.45.2-.15.2-.15.5l.2.55-.25.5v.95l.25.5.6.45q.85.4 1.45-.2zm2.85-9.75-2.2.25q-1.05.5-1.65 1.6-.55 1.05-.35 2.2.25 1.2 1.1 2 .75.75 2.05 1 1.15.1 2.1-.55l1.3-1.4q.45-.85.4-1.8l-.4-1.5q-.8-1.4-2.35-1.8M40.9 15q-.65 1.35-2.45 1.85l-2.05-.1q1-1.05 2.1-1.8l.15-.35.3-1q.25-.65.95-.65.65-.1 1.05.5.4.7-.05 1.55m-.8 8.1.7.6q.25.5.1 1.05-.2.6-.7.8l-1.05.05q-.55-.2-.8-.7l-.35-.7q-.25-.35-.85-.55l-1-.35-.2-.25.25-.25q2.05-.9 3.9.3m-25.25-4.7.2.05h.3l1.45.15-.7 1.05q-.3.45-.1.65l.4.1.4-.3.65-.7.55-.5.55-.45.2-.55v-.3l-.25-.55-.75-.2q-.4.05-.75.25l-1.55.55-.4.3-.1.15-.15.05q-.1.2.05.25"/><path fill="#fff" d="m55.15 19.25-.85-.75 6.25 1.45-5-.05-.15-.35zm-29.8-8.45q1.55.4 2.35 1.8l.4 1.5q.05.95-.4 1.8l-1.3 1.4q-.95.65-2.1.55-1.3-.25-2.05-1-.85-.8-1.1-2-.2-1.15.35-2.2.6-1.1 1.65-1.6zm-2.85 9.75-.35.35q-.6.6-1.45.2l-.6-.45-.25-.5v-.95l.25-.5-.2-.55q0-.3.15-.5.25-.25.45-.2l.35.2.3.45.05.25h.1l.75.2.45.55q.3.7 0 1.45m-7.65-2.15q-.15-.05-.05-.25l.15-.05.1-.15.4-.3L17 17.1q.35-.2.75-.25l.75.2.25.55v.3l-.2.55-.55.45-.55.5-.65.7-.4.3-.4-.1q-.2-.2.1-.65l.7-1.05-1.45-.15h-.3z"/></g></svg>