<svg xmlns="http://www.w3.org/2000/svg" xmlns:ffdec="https://www.free-decompiler.com/flash" ffdec:objectType="shape" width="76.75" height="43.4"><g fill-rule="evenodd"><path fill="#999" d="m29.7 24.35-.05-.55-3.65.45-6.6 1.1-16.25 3.1-2.5-.2Q0 27.9 0 27.1q-.1-.55.35-.95v-.05l-.1-1.55.4-2.95-.4-2.75.1-1.55v-.05q-.45-.4-.35-.95 0-.8.65-1.15l2.5-.2 16.25 3.1 6.6 1.1 3.65.45.05-.55.15-.5-12.9-5.45Q8.9 9.25 1.25 4.85l-.85-.7q-.45-.65-.15-1.3l.85-.7.35-.85Q1.9.85 2.55.8l1 .15 1.05.3 1.65-.1 6.8.1.85.05.2-.45q.55-.75 1.45-.6l1.1.45 1.15.9 8.75 7.25 6.35 5.7.65-.45q-1-1.3-1.65-2.7-1.3-1.85-2.65-4.25L26.8 3.1q-.65-1.1-.65-1.55 0-.85.85-1.35l1.7.1.5.5.25-.05 1 .15.25-.15 1.55-.3.4-.1L33 .3l.35-.05.95.05q.9.2 1.2 1.35l.1 1.8.2 1.2.4 2 1.15 4.05.65 1.95v.05l.3-.05h.15l.3.05v-.05l.65-1.95 1.15-4.05.4-2 .15-1.2q0-1.4.15-1.8.3-1.15 1.2-1.35l.95-.05.35.05.35.05.4.1 1.55.3.25.15 1-.15.25.05.5-.5 1.7-.1q.85.5.85 1.35l-.65 1.55-2.45 4.05-2.65 4.25-1.65 2.7.65.45 6.35-5.7 8.75-7.25L60.1.7l1.1-.45q.9-.15 1.45.6l.2.45.8-.05 6.85-.1 1.65.1 1.05-.3 1-.15q.65.05 1.1.5l.35.85.8.7q.35.65-.1 1.3l-.85.7q-7.65 4.4-15.7 8.25l-12.9 5.45.15.5.05.55 3.65-.45 6.6-1.1 16.25-3.1 2.5.2q.65.35.65 1.15.1.55-.35.95v.05q.2.35.05 1.55l-.35 2.75.35 2.95q.15 1.2-.05 1.55v.05q.45.4.35.95 0 .8-.65 1.15l-2.5.2-16.25-3.1-6.6-1.1-3.65-.45-.05.55-.15.5 12.9 5.45q8.05 3.85 15.7 8.25l.85.7q.45.65.1 1.3l-.8.7-.35.85q-.45.45-1.1.5l-1-.15-1.05-.3-1.65.1-6.85-.1-.8-.05-.2.45q-.55.75-1.45.6l-1.1-.45-1.15-.9-8.75-7.25-6.35-5.7-.65.45q1 1.3 1.65 2.7l2.65 4.25 2.45 4.05.65 1.55q0 .85-.85 1.35l-1.7-.1-.5-.5-.25.05-1-.15-.25.15-1.55.3-.4.1-.35.05-.35.05-.95-.05q-.9-.2-1.2-1.35-.15-.4-.15-1.8l-.15-1.2-.4-2-1.15-4.05-.65-1.95v-.05l-.3.05h-.15l-.3-.05v.05l-.65 1.95-1.15 4.05-.4 2-.2 1.2-.1 1.8q-.3 1.15-1.2 1.35l-.95.05-.35-.05-.35-.05-.4-.1-1.55-.3-.25-.15-1 .15-.25-.05-.5.5-1.7.1q-.85-.5-.85-1.35 0-.45.65-1.55l2.45-4.05q1.35-2.4 2.65-4.25.65-1.4 1.65-2.7l-.65-.45-6.35 5.7-8.75 7.25-1.15.9-1.1.45q-.9.15-1.45-.6l-.2-.45-.85.05-6.8.1-1.65-.1-1.05.3-1 .15q-.65-.05-1.1-.5l-.35-.85-.85-.7q-.3-.65.15-1.3l.85-.7q7.65-4.4 15.7-8.25l12.9-5.45z"/><path d="m27.4 20.5-.6-1.35-.15-.45-4.2-5.55-1.95-2.65-1.85 1.65-1.25.25q-1.05 0-1.7-.4-1.15-.6-1.5-2.05-.3-1.3.35-2.5.8-1.8 2.65-2.4 1.9-.6 3.45.55l1.05 1.05 4.65 6.45v-.2l.1-.25-1.1-1.95-.9-2.55-.3-1.9v-1q.1-.6.65-1l1.05-.3.4.1.1-.05q.55-.05 1.55.35l.9.4 2 .65q.75-.65 1.45-.9.7-.35 1.85-.55l1.05-.1 1.05-.15.2-.05h2.15l2.3.3q1.15.2 1.85.55.75.25 1.45.9l2-.65.9-.4L48.6 4l.1.05.4-.1 1.05.3q.55.4.65 1v1l-.3 1.9-.9 2.55-1.1 1.95.1.25v.2l4.65-6.45L54.3 5.6q1.55-1.15 3.45-.55 1.85.6 2.65 2.4.65 1.2.35 2.5-.35 1.45-1.5 2.05-.65.4-1.7.4l-1.25-.25q-.8-.3-1.85-1.65l-1.95 2.65-4.2 5.55-.15.45-.6 1.35q-1.1 1.9-3.15 3.2l-.05.1-.9 1-.6.65.65 3.5 2.5-2.2 1.4-.75 1.35-.2 1.35.2q.65.2 1.15.8 1.6 1.65 1.15 4.2-.45 2.2-2.4 3.7l-1.5.95-2.05 1.15q.9 1.65 1 2.3.2 1.6-.85 2.25-.5.35-1.55.35-1.15 0-1.7-.6l-.4-.55-.25-.65-.85-1.65-.4-.95-1.55.8-1.45.2-.15 1.1-.05 2.05-.3.55-.85.55h-1l-.7-.15-.85-.7-.2-.45v-.55l-.1-.85.05-.8-.05-.8v-.4l-1.6.8-2.5.5-2.25-.1-1.55-.75L24.7 37l-1.2-1.75-1-1.95-1.3-1.65-.4-.3-.5-.05q-.5.1-.85.3-.7.4-1.1 1.65l-.65 1.9q-.8 1.4-2.35 1.4l-1.35-.4q-.65-.45-.95-1.1l-.2-1.35.2-1.4.8-1.55q.9-1.4 2.25-2.4 1.55-1.1 3.05-1.25 2.1-.15 3.65 1.1l.9.85q1.65 1.8 2.7 4.05l.7 1.4.95.9 1 .55 1.3.05 1.7-.35q-.95-1.65-.8-4.7.2-2.95.85-5.5l-.6-.65-.9-1-.05-.1q-2.05-1.3-3.15-3.2m16.65-6.1-.6-.2-1.15 1.2q-1.6 1.3-3 1.85-.1.9.05 1.35l.5.9.4.45.65.35.65.25.55.05 1.8-.2q1.3-.5 1.8-2.15l.15-1.4-.1-.7-.2-.5q-.55-.85-1.5-1.25m4.2 17.35.25-.3.45-.75.15-.9-.15-.4-.1-.15-.15-.05-.45.05-.95.65-.4.25-.15.25-.35.3-1.35 1.55-.2.3-1.4 1.8v.1l.4-.15.9-.45.7-.25.4-.2 1.6-1zm-19-13.05.45 1.05.85 1 1.1.35 1 .15q1.05 0 2.05-1.2l.6-1.15v-.3l.15-.75.05-.25-1.7-.65L32 15.5l-.6-.65-.35.2-.55.3-.9.95-.3.6-.1.95z"/><path fill="#fff" d="M44.05 14.4q.95.4 1.5 1.25l.2.5.1.7-.15 1.4q-.5 1.65-1.8 2.15l-1.8.2-.55-.05-.65-.25-.65-.35-.4-.45-.5-.9q-.15-.45-.05-1.35 1.4-.55 3-1.85l1.15-1.2zm-14.8 4.3-.05-.85.1-.95.3-.6.9-.95.55-.3.35-.2.6.65 1.8 1.45 1.7.65-.05.25-.15.75v.3l-.6 1.15q-1 1.2-2.05 1.2l-1-.15-1.1-.35-.85-1z"/></g></svg>