<svg xmlns="http://www.w3.org/2000/svg" xmlns:ffdec="https://www.free-decompiler.com/flash" ffdec:objectType="shape" width="76.25" height="40.8"><g fill-rule="evenodd"><path fill="#999" d="m76 26.9-.05-.1-.1-.15-.15-.15-.25-.15-.25-.15-.5-.1v.05H63.2l-1.75.05-2.15.05-1.9.05-1.4.05-3.9.05 1.8-1.35q1.1-1.4 1.2-3.65.1-3.3-2.05-6.05l.1-.6.05-.75-.25-.75q-.4-.95-1.2-1.9l-.95-.9-.75-.3-1.8-.4-1.65.05-.95.55-.8-.25-1-.25-.35-.6-.45-.55-.45-.65q-.6-.8-1.9-.7-1.4 0-3.8 1.2L35 9.75l-.4.45q-2.55.6-4.95 1.8-1.55.75-3.5 2.05-4.8 3.25-7.1 6.95-1.45 2.55-.85 4.3l.55 1h-1.7l-.3.05-.15.05H5.95l-.45.05-1.15.05-1.95.05-.4.05-.3.05-.15.05h-.2l-.25.05-.15.05H.9V0H76zM19.65 12.7l.85-1.05.4-.55.15-.2q.75-1.05.7-2.05-.1-1-1-1.6-.85-.65-1.85-.55-1.2.1-2.1.9l-.05.05-1.6-.25q-2.1.1-3.15 1.3-.6.65-.75 1.55-.15.95.3 1.7t1.6 1.25q1.45.7 3.15.85.4.3.9.3.75-.05 1.4-.65z"/><path fill="#fff" d="M.9 26.8h.05l.15-.05.25-.05h.2l.15-.05.3-.05.4-.05 1.95-.05 1.15-.05.45-.05H16.6l.15-.05.3-.05h1.7l-.55-1q-.6-1.75.85-4.3 2.3-3.7 7.1-6.95 1.95-1.3 3.5-2.05 2.4-1.2 4.95-1.8l.4-.45 1.9-1.2q2.4-1.2 3.8-1.2 1.3-.1 1.9.7l.45.65.45.55.35.6 1 .25.8.25.95-.55 1.65-.05 1.8.4.75.3.95.9q.8.95 1.2 1.9l.25.75-.05.75-.1.6q2.15 2.75 2.05 6.05-.1 2.25-1.2 3.65l-1.8 1.35 3.9-.05 1.4-.05 1.9-.05 2.15-.05 1.75-.05h11.5v-.05l.5.1.25.15.25.15.15.15.1.15.05.1.05.05.05.1.1.15.05.15v.6l-.05.15-.05.1-.05.15-.1.15v12.3H.9V28.6l-.35-.1-.2-.15-.15-.15-.1-.1-.05-.15v-.15L0 27.65l.05-.15v-.15l.1-.15.15-.15.15-.1.2-.1zm18.75-14.1-1.05 1q-.65.6-1.4.65-.5 0-.9-.3-1.7-.15-3.15-.85-1.15-.5-1.6-1.25t-.3-1.7q.15-.9.75-1.55 1.05-1.2 3.15-1.3l1.6.25.05-.05q.9-.8 2.1-.9 1-.1 1.85.55.9.6 1 1.6.05 1-.7 2.05l-.15.2-.4.55z"/><path d="M50.6 7.5q1.6-.1 2.3.35.8.45 1.35 2.55L56 15.8q1.15 3.25 1.3 5.45.1 2.1-.65 3.2-.45.7-1.85 1.6l-1.85 1.05-3.05 2.6-.5.45q-.55.4-1.95.6l-6.5.9-4.4.4-4.65-.55q-9.65-1.6-14.5-2.9-1.15-.3-1.5-.75-.6-.65-.2-2.55l1-4.3q.65-2.65 1.5-3.5l2.65-1.55 4.3-2.55q2.8-1.85 4.25-2.55l1.45-.9.7-1q.65-.85 2.55-1.65l5.05-2.2Q41 4.25 42 4.65q.75.25 1.7 1.5 1 1.25 1.7 1.5l1.7.1zm-16.8 6.15-3.35 3.55 2-1.05 1.35-.75q4.3-2.35 7.8-4.15l1.35-.6-.4-.45-.65-.95q-.55-.65-1-.75l-.15-.05q-.45 0-.95.25l-3.05 1.35v.05l-1 1.45zm18-.15-.9-2.4-4.95.2-2.3.3-1.25.35q-.7.25-1.55.85L30.4 19.05l-4.2 2.5-.7.4h-.05L23.8 23.3l-1.45 1.55-.5.45-.65.45-.3.35q4.4 1.4 11.55 2.5l4.85.45 4.1-.2q4.7-.4 6.85-1.4 2.15-.95 5-3.8l.45-.45.25-.4.1-.2-.05-1.35q-.3-2.3-1.25-5.15zm-10.5 9.2.8-.2.25-.9q.1-.7.5-1.05.45-.45 1.05-.2.45.25.55.8v.95l-.35 1.5q-.5 1-1.6 1.3l-2.1.2q-1.15-.1-1.85-.65-1-.75-.8-2.45 0-.7.45-1.1l.55-.2q.35.05.5.3l.1.8q.05.5.75.8zm9.9.05q-1.25-.15-1.5-1.45-.15-1.1.85-1.8.5-.3 1.1-.25t1 .45l.55 1-.15 1.1-.75.8zM28.7 16.5l2.4-2.45-.2.05q-1.4.65-4.15 2.45L22.55 19l-1.7 1.05-.5.95-.15.35q-.45 1.3-.65 2.9l4.8-3q.05-.45.6-1zm-.35 7.6q-.8-.7-.55-1.7.1-.6.6-1 .5-.45 1.1-.45.6-.05 1.15.35l.7.9-.05 1.2-.7.9-1.15.3q-.65-.1-1.1-.5M18.7 11.95q-1.05 1.25-1.7 1.3l-.9-.15-1.35-.45-1.3-.55q-1.1-.7-1.1-1.9-.1-1.35 1.15-1.85.65-.3 1.4 0 .75.25 1.25.85.75-1.25 1.5-1.7l2.15.1q.45.4.55 1.1.1.6-.2 1.2z"/><path fill="#999" d="M40.9 8.5q.45.1 1 .75l.65.95.4.45-1.35.6q-3.5 1.8-7.8 4.15l-1.35.75-2 1.05 3.35-3.55.2-.15 3.9-2.65.95-.75.95-.9q.55-.55 1.05-.7zM30.4 19.05l1.55-.35 3.8-1.65q2.8-1.45 5.35-2.5l3.3-1.2 4.2-.4 3 .4.2.15.95 2.6q.95 2.85 1.25 5.15l.05 1.35-.2.3-.15.3-.45.45q-2.85 2.85-5 3.8-2.15 1-6.85 1.4l-4.1.2-4.85-.45q-7.15-1.1-11.55-2.5l.3-.35.65-.45.5-.45 1.45-1.55 1.65-1.35h.05l.7-.4zm20.8 3.7 1.1-.15.75-.8.15-1.1-.55-1q-.4-.4-1-.45t-1.1.25q-1 .7-.85 1.8.25 1.3 1.5 1.45m-9.9-.05-1.2-.1q-.7-.3-.75-.8l-.1-.8q-.15-.25-.5-.3l-.55.2q-.45.4-.45 1.1-.2 1.7.8 2.45.7.55 1.85.65l2.1-.2q1.1-.3 1.6-1.3l.35-1.5v-.95q-.1-.55-.55-.8-.6-.25-1.05.2-.4.35-.5 1.05l-.25.9zM20.35 21l6.9-4.15q.75-.45 1.25-.4l.2.05-3.75 3.75q-.55.55-.6 1l-4.8 3q.2-1.6.65-2.9zm8 3.1q.45.4 1.1.5l1.15-.3.7-.9.05-1.2-.7-.9q-.55-.4-1.15-.35-.6 0-1.1.45-.5.4-.6 1-.25 1 .55 1.7"/></g></svg>