<svg xmlns="http://www.w3.org/2000/svg" xmlns:ffdec="https://www.free-decompiler.com/flash" ffdec:objectType="shape" width="63.85" height="40.8"><g fill-rule="evenodd"><path fill="#fff" d="M42.05 4.15h.45l.1.1.25.15.25.1.3.35h.05l.2.35v.05l.1.05.05.15v.1l.05.3-.05.15v.1l-.1.15-.1.2-.2.2-.2.1h-.8l-.2-.1-.1-.1-.05-.1-.2-.3L41.8 6v-.1l-.05-.1-.05-.25-.05-.15V5l-.05-.15-.05-.1-.1-.15-.1-.1v-.15l.05-.1q.15-.25.4-.15v-.05zm.6 12.75.25-.4q.45-.55 1.05-.2.65.3.4 1v.2q.1.4-.3.75v.05l.15.2.35 1.35-.1 2.05-.7-.05-1.65-4.1-.05-.1zm-2.7 1.95.4-.05.45-.25.5-.3.35.75 1.1 2.7h-2.8l-.1-1.75.05-1.1zm-2.1-.55.8.3.15 3.3-.3.05-1.95-.05-1.7.25-.05-.5-.05-2.2.4-.1 1.15-.8q.5-.3.95-.25zm8.85.5-.1-.8.1-.35.3-.2h.1l.1-.05.3.1.35.6.05.4-.05.15.15.7v.2l.1.35.05.05.2.7-.05.4-.1.3-.2.4-.3.2-.5.1-.9-.7-.05-.35-.05-.15.05-.15.15-.5.1-.15v-.2l.1-.1.05-.15v-.7h.05zM43 25.85l-.7 1.05-1.55 1.6-.1-.55-.15-.85-.2-.65-.1-.7-.15-2.8 3.3.3h.05l.35.9.05.1zm-4 3.95-1.5.65-1.8.4-.05-.35-.45-3.4-.25-3.75L38.8 23l.25 6.8zM37.45 8.9v.2l.15.2.1.45V10l.05.15-.05.1v.2l-.1.15-.1.3q-.4.4-.9.4-.55 0-.9-.5l-.05-.05-.15-.5v-.2l.05-.1-.05-.05.05-.2.15-.5.05-.05-.05-.1.05-.4.05-.05h.05l-.05-.35V8.1l-.1-.7v-.35l.05-.35.25-.2.05-.05q.25 0 .35.25l.05.05.25.8.25.45.1.15zm-10.9-3-.4.4-.4.55v.3l-.05.35.1.3.05.5-.3.8q-.35.6-1 .7-.65.15-1.2-.3-.45-.3-.55-.9-.15-.5.1-1.1.25-.55.75-.75l.3-.1.2-.1.25-.15.95-.65.3-.3.15-.05.15-.15.15-.05.25-.25.4.1v.45zm-7.1 15.45v-.1l-.05-.05.35-1.75.05-.05.1-1.65.05-.05.2-.55q.2-.2.45-.2t.4.25l.1.2.15.55.05.25-.05.2.05 2 .05.4.1.55-.05.1-.1.3-.2.15-.65.3-.7-.25-.2-.25zm4.7 1.8q-.1-1 .3-2 .45-1.6 1.65-1.95l1.6.05 1 .4-.25 2.6-.25 1.3v.1q-.8.15-1.85.55l-1.9.8q-.3-.95-.3-1.85m8.8-3.2 1-.3-.05.75-.05 1.95-3.1.75-1.3.35h-.05l.2-3.45q1.6.45 3.35-.05m-20 7.7-.25.4-.15.1-.15.15q-.6.5-1.3.5t-1.3-.45l-.45-.45-.2-.4-.1-.3-.05-.75q.1-.65.45-1.1l.8-.6 1.8.05.6.5.2.2.15.4.05.05q.2.65.05 1.35zm-3.7 2.1 1-.05.15.2-.05.3-.75.3-.9.2-.8.3-1.1.45-.45.2-.65.25q-.5-.2-.3-.65l.45-.4.65-.2.45-.25.4-.2-.1-.35.15-.5.2-.15.2-.05h.1l.05-.05.45.2.15.2.05.4-.05.05zm-7-2.75.15-.1.1-.15q1-.9 2.25-.4l.45.3.2.1q.5.6.6 1.4l-.05.35v.2q-.25.95-1.1 1.4-.85.4-1.8 0-.85-.4-1.1-1.35l-.1-.55.05-.05v-.35l.05-.1q0-.2.15-.35zm28.3 3.8-1.05-.25v-.2l-.15-.8-.05-1q-.1-2.2.05-4 .2-.1.45-.25l1.4-.35 2.65-.45-.25 6.8.05.75zm-3.45-1.65-1.1-1-.85-1.35-.15-.3.35-.3q.85-.55 2.6-1.05l-.05.5-.35 3.85z"/><path fill="#717171" d="m49.05 21.8-.65 1.7q-1.3 3-2.7 4.5-.7.8-2.3 1.9h.15l2.2-.2 1.3-.3 2.15-1.35 1.55-.85L54 25l1.8-1.75.6-1.2-.15-.85-.05-.1-.35-.25-.8-.7q-.25-.55-.2-1.05.1-.55.5-.95.45-.4 1-.45t1 .3q.5.35.7.85l.15 1.05.85-.4 2.15-.05q1.1.35 1.75 1.15.7.85.85 1.95.15 1.15-.35 2.1l-.9 1.2q-1.8 2-5.1 3.95l-1.3.75-2.2.9-.65.25-1.75.7-2.15.7-1.7.4-3.55.6.05.15.6 2.15q.15 1.25-.35 2.2-.4.75-1.2 1.1l-1.6.25-.9-.25-1.05-.05h-.55q-.2.05-.5.35-.6.55-1.45.6-.9.05-1.55-.4-.7.4-1.5.4t-1.45-.45l-2.7.1-.6-.35h-.8l-1.15-.5-.2-.05-.9.95q-.8.55-1.75.5t-1.7-.65q-.75-.65-.95-1.55l-.05-1.2q.15-1.65.75-3.05.5-1.3 1.75-3.3l.5-.8.35-.5Q22.5 27.8 21.3 26.3q-2.15-2.65-2.7-6.35-.5-3.15.35-6.9L17.6 10.6l-1.2-1.9q-.65-1.15-.65-2.1 0-.85.5-1.65.45-.75 1.25-1.1l2.25-.4 5.7.4q.7-.5 1.45-.85 2.95-1.35 8.5-1.45 3.2-.1 5.1.6l.65.3 2.45-1.3 1.3-.5 1.85-.6Q48-.1 48.95.6q1 .75 1.1 2l-.15 1.3-.9 3.5-.4 2.05v.05q1 2.15 1.15 4.45v1.95q-.1 4-.7 5.9m-16.1-1.85q-1.75.5-3.35.05l-.2 3.45h.05l1.3-.35 3.1-.75.05-1.95.05-.75zm-8.8 3.2q0 .9.3 1.85l1.9-.8q1.05-.4 1.85-.55v-.1l.25-1.3.25-2.6-1-.4-1.6-.05q-1.2.35-1.65 1.95-.4 1-.3 2m-4.7-1.8.1.35.2.25.7.25.65-.3.2-.15.1-.3.05-.1-.1-.55-.05-.4-.05-2 .05-.2-.05-.25-.15-.55-.1-.2q-.15-.25-.4-.25t-.45.2l-.2.55-.05.05-.1 1.65-.05.05-.35 1.75.05.05zm7.1-15.45.2-.4v-.45l-.4-.1-.25.25-.15.05-.15.15-.15.05-.3.3-.95.65-.25.15-.2.1-.3.1q-.5.2-.75.75-.25.6-.1 1.1.1.6.55.9.55.45 1.2.3.65-.1 1-.7l.3-.8-.05-.5-.1-.3.05-.35v-.3l.4-.55zm10.9 3-.4-.75-.1-.15-.25-.45-.25-.8-.05-.05q-.1-.25-.35-.25L36 6.5l-.25.2-.05.35v.35l.1.7v.15l.05.35h-.05l-.05.05-.05.4.05.1-.05.05-.15.5-.05.2.05.05-.05.1v.2l.15.5.05.05q.35.5.9.5.5 0 .9-.4l.1-.3.1-.15v-.2l.05-.1-.05-.15v-.25l-.1-.45-.15-.2zM39 29.8h.05L38.8 23l-3.85.35.25 3.75.45 3.4.05.35 1.8-.4zm4-3.95.8-1.6-.05-.1-.35-.9h-.05l-3.3-.3.15 2.8.1.7.2.65.15.85.1.55 1.55-1.6zm3.7-7.05v.1h-.05v.7l-.05.15-.1.1v.2l-.1.15-.15.5-.05.15.05.15.05.35.9.7.5-.1.3-.2.2-.4.1-.3.05-.4-.2-.7-.05-.05-.1-.35v-.2l-.15-.7.05-.15-.05-.4-.35-.6-.3-.1-.1.05H47l-.3.2-.1.35zm-8.85-.5h-.6q-.45-.05-.95.25l-1.15.8-.4.1.05 2.2.05.5 1.7-.25 1.95.05.3-.05-.15-3.3zm2.1.55h-.05l-.05 1.1.1 1.75h2.8l-1.1-2.7-.35-.75-.5.3-.45.25zm2.7-1.95-.6.75.05.1 1.65 4.1.7.05.1-2.05-.35-1.35-.15-.2v-.05q.4-.35.3-.75v-.2q.25-.7-.4-1-.6-.35-1.05.2zm-.6-12.75-.25-.1v.05q-.25-.1-.4.15l-.05.1v.15l.1.1.1.15.05.1.05.15v.4l.05.15.05.25.05.1V6l.05.15.2.3.05.1.1.1.2.1h.8l.2-.1.2-.2.1-.2.1-.15V6l.05-.15-.05-.3v-.1l-.05-.15-.1-.05V5.2l-.2-.35h-.05l-.3-.35-.25-.1-.25-.15-.1-.1zM3.2 32.95Q1.45 31.7 1 29.65q-.35-1.25-.1-2.4l-.3-.45-.25-.3-.3-.85Q-.2 24.9.4 24.3l.3-.25.6-.25 1.25-.35.55-.05.05-.05h.3q1.2-1.1 2.7-1.6l3.85.15.85-.4.35-.25.35-.15.55-.05q.55 0 .9.35l.3.75.05.05.05.7-.05.5v.25l-.05.15-.1.15v.3l-.05.4-.2.7.45 1.45q.3 1.85-.55 3.55-.8 1.65-2.4 2.75l-.25.2.05.2.75 1.45.15.55.1 1.05-.1.85-.4 1q-.9 1.35-2.6 1.2-.7-.05-1.3-.55l-.25-.2q-.7 1.05-2 .95-1.5-.1-2-1.4-.3-.95.05-2.25.4-1.6 1.45-2.65zm23.9-3.8.45.35.35-3.85.05-.5q-1.75.5-2.6 1.05l-.35.3.15.3.85 1.35zm3.45 1.65 3.1.25-.05-.75.25-6.8-2.65.45-1.4.35q-.25.15-.45.25-.15 1.8-.05 4l.05 1 .15.8v.2zM2.25 27l-.15.35q-.15.15-.15.35l-.05.1v.35l-.05.05.1.55q.25.95 1.1 1.35.95.4 1.8 0 .85-.45 1.1-1.4v-.2l.05-.35q-.1-.8-.6-1.4l-.2-.1-.45-.3q-1.25-.5-2.25.4l-.1.15zm7 2.75-.7.2.05-.05-.05-.4-.15-.2-.45-.2-.05.05h-.1l-.2.05-.2.15-.15.5.1.35-.4.2-.45.25-.65.2-.45.4q-.2.45.3.65l.65-.25.45-.2L7.9 31l.8-.3.9-.2.75-.3.05-.3-.15-.2zm3.7-2.1.15-.35q.15-.7-.05-1.35L13 25.9l-.15-.4-.2-.2-.6-.5-1.8-.05-.8.6q-.35.45-.45 1.1l.05.75.1.3.2.4.45.45q.6.45 1.3.45t1.3-.5l.15-.15.15-.1z"/><path d="m50.65 9.85.75 1.65.3 1.55q0 1.8-.95 3.35t-2.5 2.35l-1.35.5-4.4.2q-2.45-.5-3.4-2.6l-.2-.6h-1.25l-.8.05-2.35.2-.15.75q-.8 3.35-2.25 4.55-.8.65-3 1.25l-1.9.3-1.65-.2q-1.45-.25-2.3-.7-1.4-.75-2.05-2.4-.5-1.05-.75-2.4l-3.05 1.5-.45 1.15q-.45.55-1.1.6l-1.2-.3q-.55-.35-.75-1l-.1-.55q-.1-1.25.5-1.95l.9-.75.7-.4q1.3-.65 2.8-1.2l1.9-.4h.1q.4-.6 1.1-1.15.9-.7 2.7-1.25l3.65-.85 3.1-.15q1.7.25 2.65 1.45l.6 1.35.95-.35 1.05-.15 1.05-.25.5-.25.35-.1v-.5q.1-1.5 1-2.35.9-.9 3.15-1.1L45 8.55l3.9.3q1.4.35 1.75 1m-19.75 8.5q-.7.1-.9.8v.25l.2.65q.55.65 1.2.3l.35-.15q.5-.5.25-1.25-.35-.7-1.1-.6m-4.4-3.95-.65-.65-1.6-.2-.25.1q-.8.25-1.15 1.05l-.05.05-.35.45-.3.75-.05.35.1.6.55.85q.5.5 1.4.5l.7-.1.45-.15.6-.55.3-.3.2-.35.2-.6.05-.05q.25-1.05-.15-1.75m22.8.25-.1-.05-.15-.1-.55-.15v.05l-.4.05-.45.25-.25.3-.1.15-.1.35v.45l.05.1v.1l.35.5.35.25.55.15.55-.15.2-.1.15-.1.15-.2.15-.2.1-.4h.05v-.35l-.05-.15v-.1l-.35-.55zm-8.1-.2h.35l1-.05 1-.8.1-.1.15-.3.1-.1.25-.55.05-.8-.2-.55-.15-.3-.25-.35q-.3-.35-1.1-.55l-.4-.05q-.8 0-1.3.65l-.15.15-.3.35-.3.35-.1.05-.2.65-.05.3.05.3.15.45.15.4.15.15.45.4z"/><path fill="#fff" d="m41.2 14.45-.55-.3-.45-.4-.15-.15-.15-.4-.15-.45-.05-.3.05-.3.2-.65.1-.05.3-.35.3-.35.15-.15q.5-.65 1.3-.65l.4.05q.8.2 1.1.55l.25.35.15.3.2.55-.05.8-.25.55-.1.1-.15.3-.1.1-1 .8-1 .05zm8.1.2.15.1.35.55v.1l.05.15v.35h-.05l-.1.4-.15.2-.15.2-.15.1-.2.1-.55.15-.55-.15-.35-.25-.35-.5v-.1l-.05-.1v-.45l.1-.35.1-.15.25-.3.45-.25.4-.05v-.05l.55.15.15.1zm-22.8-.25q.4.7.15 1.75l-.05.05-.2.6-.2.35-.3.3-.6.55-.45.15-.7.1q-.9 0-1.4-.5l-.55-.85-.1-.6.05-.35.3-.75.35-.45.05-.05q.35-.8 1.15-1.05l.25-.1 1.6.2zm4.4 3.95q.75-.1 1.1.6.25.75-.25 1.25l-.35.15q-.65.35-1.2-.3l-.2-.65v-.25q.2-.7.9-.8"/></g></svg>