<svg xmlns="http://www.w3.org/2000/svg" xmlns:ffdec="https://www.free-decompiler.com/flash" ffdec:objectType="shape" width="68.6" height="36.1"><g fill-rule="evenodd"><path fill="#717171" d="m63.25 18.9.55-.35.1-.05.6-.6q.3-.3.5-.35l.5.1.35.4q.25.5-.35 1l-.15.3-.3.4q-.45.45-1.05.2l-.2.15-.2.25-.5.45-1.1.8-.35.15-.9.7q-.35.3-.95.2l-.5-.25-.1-.2q-.25-.6.25-1.1l.2-.2 2.85-1.65zM67 21.4l.3.85-.15.5q-.4.85-1.7 1.7l-2.7 1.25-1.15.2q-1.15-.15-1.3-1.3-.05-.5.25-.95t.75-.6l.5-.15.6-.4.8-.5 2.35-1.95.6-.35q.45 0 .55.25.25.25.1.6l.1.4v.2zM37.7 8.9q-.4.95-1.4 1.25l-.9.3-.8.5-.9.15-.25-.15-.5-.35-.4-.6-.8-.85q-.15-.4 0-.9l.4-1q.5-.5 1.15-.5.7 0 1.2.45l.05.05.2-.2q.55-.4 1.4-.5l.8.15q.6.25.8.95zm9.95 6.65-.25.15-.2.2-.8.5-.25.1-.25-.1-.25-.35q-.05-.2.2-.5l1.65-1.25.5-.5q.55-.55 1.8-1.55l.45-.35.8.05q.4.35.25.85l-.2.3-.2.2-.85.45zm-14.5 7.25.15-.65q.2-.45.9-.9l1-.8.2-.35.5-.55 1.85-1.35.7-.4q.65-.1.95.4.3.55 0 1.05l-.4.45-1.4 2.5-1 1.25-.5.7q-.65.85-1.75.5-.95-.25-1.15-1.35zm17-8.1.1-.2q.6-.55 1.25-.8.95-.2 1.45.3.4.5.4 1.05l-.3.9-.55.6v.1L49.95 19l-.7.5q-.85.35-1.5-.3t-.5-1.5l.2-.5zM31.35.15 32.5 0l.9.2q.95.5.85 1.6 0 .9-.85 1.65l-1.75.7-.2.05-.15.15-.65.55-.1.2q-.45.7-1.2.4l-.65-.45-1.45-1.25L27 3l.05-.9q.1-.9.45-1.4l.85-.55.7-.05.65.15.3.2.4.45q.5-.6.95-.75M34.4 17.1l.75-.65 1-.15q.6.2.45.8l-.45.55-3.45 2.75-.6.35-.55-.2q-.3-.25-.25-.55.05-.4.7-.85z"/><path d="m58.5 17.3 2.5-1.5 1.7-.4 1.5.35 1.1.35 1.35.65.7.8q1.5 2.3 1.2 5.05l-.35 1.25-.65 1q-1.2 1.55-2.45 2.05l-2.4.45-2.15-.3-1.05-.65-1.35-1.2q-.95-1.15-1.25-2.7t.15-3l.5-1.1zm4.85 3.2q-.5.2-.75.45l-.3.5q-.1.35.1.5l1 .05 1-.1q.3.2.2.65l-.4.65-.15.15v.05l-.05.2-.35.45-.5.1q-.25 0-.45-.2v-.05q-.9.05-1.45-.5l-.35-.5q-.75-1.3.2-2.6l.85-.65v-.35l.15-.3q.25-.3.7-.3.65 0 .8.6l.05.15q.6.25.5.65-.05.3-.8.4M66 22.6l.25-.6v-.9l-.1-.65-.55-1-.7-.7-.45-.3q-.2-.2-.35-.25h-.35q-1.7.3-3.05 1.35v.1q-.35.25-.55.8l-.1 1q0 1.35.65 2.05l.5.45.6.4 1.05.15 1.5-.35 1.1-.9.3-.35zm-20.8-2.95q-1.6-1.4-1.7-3.7-.15-1.9.95-4l.85-1.15q.65-.7 1.9-1.15 2.7-1.05 4.8.2 1.2.7 2.3 2.75l.45 1.2.1 1.1q0 2.15-.55 3.2l-.9 1.1-.8.7q-1.4.95-3.5 1.05-2.4 0-3.9-1.3m1.35-3.45q.15.55.6.9l.35.4.25.15q-.35-.25-.35-.75l.1-.5-.45-.6q-.15-.35-.05-.8.15-1.25 1.3-1.8l1.1-.25q.4-.3.7-.25l.1-.05q.75.1.75.75l-.05.2q.3.45-.05.85t-.85.25l-.6-.15q-.2-.05-.45.15l-.25.4.7.4q.35.35.3.7l-.15.45v.05l-.1.25-.5.8-.45.15.6.2.55-.1q.95-.15 1.45-.6l.35-.3.5-.45.15-.6q.2-1.25-.05-1.8l-.35-.45-.8-1.25-1.05-.55-1.05-.05-.25.1-1.1.7-.45.95-.2.35-.15.4q-.25 1.1-.1 1.75M29.7 20.05l.15-1.6.35-1 .85-1.2q1.3-1.4 3.1-1.85l3.65.2q1.9.75 2.45 2.6l.2 1.3q.15 2.2-.65 3.85-1.15 2.15-3.4 2.75-2.2.7-4.35-.4-1.7-.85-2.2-2.4-.25-.85-.15-2.25m2.6.95.15.35.8 1 .25.25.45.1.55.2.65.15 1.4-.4q.85-.55 1.2-1.1l.5-1.5.05-.7-.2-.6-.1-.4-.5-.75-1.2-.65q-.7-.25-1.35 0l-.6.15-.55.05-.45.2-.7.9-.2.4q-.3.7-.2 1.85zm-4.1 9.4q-4.15 4-10.25 5.3-3.75.8-6.35.05-3.8-1.1-7.1-5.65-1.3-1.7-2-3.45t-.8-4.1l.05-4.25.05-.4-.4-1-.9-2.95L.05 9.7V7.65q.15-1.15.9-1.8.55-.45 1.9-.75l5.9-.2 1.05.2q1.5-.95 3.15-1.55 4.85-1.9 9.2-.85 2.35.6 4.25 2.05 1.95 1.5 2.85 3.6l.7 1.8-9.5 9.05 8.85 9.95zM9.8 16.1l.1 1.35.45 1.1Q11 19.5 12.2 20l2.3.35q1.15-.2 2.1-1 1-.8 1.35-1.95l.2-1.4-.35-1.45q-.85-2.05-2.75-2.5-1.75-.45-3.55.85-1.35.9-1.6 2.1zm27.3 4.35-.45.9-.05.1v.2l-.2.65-.7.3-.7-.35-.1-.25-.05-.15-.6-.05-.7-.2q-.7-.45-.6-1.4.05-.6.6-1.4 1.05-1.45 2.35-1.25.45 0 .65.3.3.3.15.7l-.6.45-.8.2q-.65.25-.75.95.35.25.75 0l.65-.4.75.1z"/><path fill="#fff" d="m9.8 16.1.1-1.1q.25-1.2 1.6-2.1 1.8-1.3 3.55-.85 1.9.45 2.75 2.5l.35 1.45-.2 1.4q-.35 1.15-1.35 1.95-.95.8-2.1 1L12.2 20q-1.2-.5-1.85-1.45l-.45-1.1z"/></g></svg>