<svg xmlns="http://www.w3.org/2000/svg" xmlns:ffdec="https://www.free-decompiler.com/flash" ffdec:objectType="shape" width="77.55" height="43"><g fill-rule="evenodd"><path d="M26.9 39.2q-3.7-1.6-5.3-3.4-2.9-3.15-2.9-9.35 0-5.4 2.15-10.2l-.15-.55-.05-.1v-.1l-.5-1.1-.4-1.6-.25-.5-.85-3.15-.25-.95-.35-2.35.2-1.2.4-.5.35-.25.45-.15 1.2.1 2.15.75 1.65.75 2.7 1.4 1.25.65q3.65-2.3 8.3-2.9l2.8-.2q3.15-.05 5.8.75l1.8.65q1.6.7 3.25 1.95l1.05-.5 2.5-1 1.45-.5 1.65-.6.55-.25 1.75-.7q1.2-.2 1.75.45.6.65.4 1.8l-.2.8-3.6 9.05.25.6q.65 1.5 1 4.1.6 4.85-.7 9.2-1.45 4.7-4.85 7.5-5.25 4.3-15.85 3.9l-5.4-.6q-2.2-.45-5.2-1.7"/><path fill="#fff" d="M64.6 6.65q-.9-.25-1-1.25-.1-.9.75-1.4.9-.45 1.6.2l.45.95q.1.6-.3 1.05-.6.8-1.5.45m11.2 19.8-1.85.05q-.95-.6-.7-1.7.15-1.05 1.25-1.25 1.1-.25 1.7.7.35.5.2 1.2-.1.6-.6 1M52.6 20q-.6 1.8-2.15 2.85-1.4 1-3.4 1.15-2.35.1-3.9-1.05l-1.35-1.4-.8-1.35q-.25-.75-.15-1.85.1-1.5.45-2.4.55-1.6 2-2.7 1.4-1.1 3.15-1.25 1.7-.15 3.3.7 1.6.8 2.4 2.3l.55 1.3.15 1.3q.1 1.35-.25 2.4m-2.4-.3q.85-1.8-.1-3.4-.85-1.65-2.85-1.9-1.9-.15-3.15 1.35l-.4.65q-.25.55-.35 1.4-.1.9.1 1.5.5 1.75 2.25 2.25l2.6-.1q1.3-.55 1.9-1.75m-9.25 10.55.55.35 1.85.1q1-.25 1.55-.75l.95-1.6q.7-1.15 2-1.75 1.35-.6 2.7-.4l1.3.2q.95-.05 1.55-1 .4-.8.25-1.8l-.4-1.75q-.2-1.05.3-1.7.3-.35.8-.45t.85.2l.1.65-.3.9.8.65.45.9v.05q.3 1 0 2.1-.4 1.75-1.7 2.85-1.45 1.2-3.25 1.05l-1.7-.1q-.8.25-1.35 1.25l-.9 1.6q-1 1.4-3.8 1.75-2.85.35-4.45-.85l-.85-.85q-.6-.5-1.1-.65l-1.9.2q-.55.25-1.65 1-1.6 1.1-3 1.15-1.7 0-3.65-1.55l-.65-.5.05.9.15 1.2v.6l-.45 1-.95.55-1.1-.2q-.5-.25-.7-.8-.3-.6 0-1.95l.65-3.15.1-2 .1-1.75-.45-.4-1.55-.25q-.85.1-1.15-.35l-.15-.3q-.2-.7.8-1.2l1.7-.3 1.65.3q1.65.7 2.05 2.4l.2 1.2q.05.7.25 1.15.35.7 1.55 1.45 1.05.65 1.75.6l1.05-.4 1-.6q1.55-1.1 3.3-1.25l2.15.25.1-.05q.65-.55.7-1.05l.1-.7q0-.45.4-.6.35-.15.7.2l.3.6.2 1.5-.3 1.25-.15.35.15.15zM30.4 15.65q1.2.6 1.75 1.75.55 1.2.3 2.45-.15 1.3-1.1 2.25-.8.9-2.2 1.15l-2.55-.15-1.05-.5q-.9-.6-1.3-1.7-.3-1.15-.1-2.2.3-1.7 1.7-2.6l.8-.4q2.15-.8 3.75-.05m-.9 4.2q.2-.55 0-1.1l-.7-.8-1.05-.2-.95.55q-.35.4-.35 1t.35 1l.95.5 1.05-.15.4-.3zM4.6 26.4q.45.4.55 1.05.1.7-.2 1.2l-.9.75-1.2.05-.9-.7-.35-1.15q.05-.6.5-1.1.45-.45 1.05-.55.85-.1 1.45.45"/><path d="m69.6 17.55-.15.2-1.25 1.15-1.6.3-1.2-.4-1.6-1q-.9-.8-1.25-2.05-.25-1.25.2-2.3l.9-1.3 2.8-3.6 1.6-1.5q1.05-.75 2.05-.75 1.55-.05 2.45 1.25.95 1.15.85 2.65-.05.95-.75 2.35l-.6 1.1-.95 1.65zm-2.85-10.7q-.85.85-2 .7-1.1-.05-1.8-1.1-.4-.75-.25-1.7.2-.95.9-1.45t1.65-.4 1.5.75q.6.65.6 1.6-.05.95-.6 1.6m-2.15-.2q.9.35 1.5-.45.4-.45.3-1.05l-.45-.95q-.7-.65-1.6-.2-.85.5-.75 1.4.1 1 1 1.25m1.9 10.05q.45.15 1.2-.4l1.15-1.35-.4-.2q-1.65-.85-2.5-1.9l-.55 1.05-.4.6-.15.75q0 .6.25.8l.7.35zm4.15-7.6-.1-.15-.7-.3-.6.2-.55.45-.95.95-1.05 1.35.75.75 1.95 1.25.25.05v-.05l1.25-2.9-.05-.95zm-2 14.8-.45.3-.3.3q-.35.35-.7 0t-.15-.7l.25-.35.25-.7.25-.45q.45-.55.8-.6l.6.05.45.5q.15.5-.2 1zm-4.35.55-.45-.35q-.35-.25-.35-.7-.05-.45.2-.8t.7-.4l.8.15.45.5.55.85.25.45q.15.35-.15.7-.25.35-.7.25zm3.85 3.45-.7-.6-.65-.95q-.15-.45.05-.8t.6-.35l.8.1 1.25.7.4.4q.25.6.1 1.05-.25.65-.8.7-.45.15-1.05-.25m-2.75.9q-.5.5-1.1.35-.7-.25-.85-.9-.1-.7.4-1.2l.4-.25q.35-.85 1.2-.65l.1.05.4.05.35.45v.15l.05.45-.55 1zm6.45-2.4-.25-.75-.05-.45q0-.85.5-1.65.5-.75 1.3-1.15l1.75-.15q.9.15 1.55.75t.85 1.5-.15 1.7q-.3.85-1.05 1.35-.75.55-1.65.6-.85.05-1.65-.45-.75-.5-1.15-1.3m3.95.05q.5-.4.6-1 .15-.7-.2-1.2-.6-.95-1.7-.7-1.1.2-1.25 1.25-.25 1.1.7 1.7zM50.2 19.7q-.6 1.2-1.9 1.75l-2.6.1q-1.75-.5-2.25-2.25-.2-.6-.1-1.5.1-.85.35-1.4l.4-.65q1.25-1.5 3.15-1.35 2 .25 2.85 1.9.95 1.6.1 3.4m-1.75-3.25q-.95-.85-2.05-.45-.65.2-1.1.8-.4.55-.35 1.25 0 .7.45 1.25.5.55 1.15.7l1.3-.15 1-.9q.3-.6.2-1.3t-.6-1.2m6.85 4.1.5.2q.2.75 0 1.35l-.8-.65zm.95 2.45.6 1.2q.3 1.1 0 2.3-.4 1.9-1.75 3.1-1.45 1.3-3.3 1.15l-1.75-.1q-.85.25-1.4 1.35l-.9 1.75q-1.05 1.55-3.9 1.95-2.95.35-4.55-.95l-.9-.95-1.1-.7-1.95.2-1.7 1.1q-1.65 1.2-3.1 1.25-1.75 0-3.75-1.65l-.3-.25v-.15l-.15-1.2-.05-.9.65.5q1.95 1.55 3.65 1.55 1.4-.05 3-1.15 1.1-.75 1.65-1l1.9-.2q.5.15 1.1.65l.85.85q1.6 1.2 4.45.85 2.8-.35 3.8-1.75l.9-1.6q.55-1 1.35-1.25l1.7.1q1.8.15 3.25-1.05 1.3-1.1 1.7-2.85.3-1.1 0-2.1zm-32.2 4.65-.55-.8-1.6-.25q-1.15.1-1.35-.7-.15-.55.45-1 .3.45 1.15.35l1.55.25.45.4zm16.75.45q.3 1.05.15 2.15l-.45-.4-.15-.15.15-.35zm31.45 3.55.5 1.1.45 1.85q.1 1.2-.55 2.3-.7 1.05-1.8 1.5l-1.5.3-4.55.55-2.2-.05q-1.25-.25-1.95-.95-1.15-1.05-.9-2.6.15-1.45 1.3-2.45 1-.9 3.4-1.5l1.8-.5 2.9-.6 1.7.1q1 .25 1.4.95M62.75 35l-.25.3q-.3.4-.3.75l.25.7.55.3.75.1h1.3l1.7-.25-.15-2.35-.35-.95-.1-.2h-.05l-2.45.95-.5.25zm8-1.05-.2-.5q-.25-.45-1.15-.55l-1.8.1.15.45.25.85q.3 1.2.2 2.25l1.15-.3.65-.15.65-.45.4-.8-.25-.7zM29.5 19.85l-.3.5-.4.3-1.05.15-.95-.5q-.35-.4-.35-1t.35-1l.95-.55 1.05.2.7.8q.2.55 0 1.1m-13.9-6.6.6.7q.7 1 .7 2.3-.05 1.25-.8 2.2l-1.15 1-3.65 2.75-1.95 1.05-2.15.15q-1.55-.35-2.1-1.8-.6-1.35-.1-2.75.4-1.3 2.2-3l1.3-1.35 2.2-1.95.55-.35 1-.4 1.7.1q.45.2.95.7zm-7.65-6.1q-.45 0-.65-.6-.25-.4-.15-.8l.2-1.2.4-.55.6-.05q.3.05.45.35l.15.45v1.3l-.3.6zm3.8-.8q.55.55.15 1.2-.2.35-.7.5h-.9L9.2 7.9q-.4-.2-.4-.75l.1-.3q.15-.2.45-.3l1.2-.45q.7-.15 1.2.25M8.5 9.65l-.05.9q-.1.55-.55.7-.55.2-.9-.35-.15-.2-.15-1.1l.1-1.15q0-.35.15-.65.3-.35.65-.3l.55.4.1.45zm-2.4-1.6-.85.1-.55-.05q-.45-.05-.6-.55-.15-.4.1-.8.3-.45 1.25-.45l.65.15.4.25.35.6-.2.3zm8.05 6.9-.2-.2-.6-.45-1.3.1q-.8.45-1.5 1l.4.3.6.65 1.35 1.8.85-.8.45-.5.35-.7q.15-.6-.05-.85zM10.5 17.3l-.8-.7-.2-.15h-.05L7.5 19l-.2.9v.45l.15.35.55.5h.65l.7-.3 1.1-.65 1.35-1.05zm-4.85 7.8q1.3.9 1.2 2.55 0 1.5-1.4 2.45l-2.85.15-1.2-1q-.55-.8-.5-1.75-.1-1.6 1.4-2.55.75-.5 1.7-.45t1.65.6M4.6 26.4q-.6-.55-1.45-.45-.6.1-1.05.55-.45.5-.5 1.1l.35 1.15.9.7 1.2-.05.9-.75q.3-.5.2-1.2-.1-.65-.55-1.05m8.85-2.8q.4-.05.65.2l.3.6.05.7.05.4-.1.55q-.15.45-.7.55-.45.1-.85-.3l-.2-.6.05-.15v-.75l.35-.75zm3.6 2.5q.45.65-.1 1.2-.45.5-1.15.5l-.8-.05-.8-.35-.2-.45.1-.3q.15-.5 1.05-.8l1-.2q.6 0 .9.45m-2.35 4.35q-.65.65-1.35 0l-.45-1-.05-.35.1-.75.2-.5.45-.35.6.1.5.7.35 1.1q.1.6-.35 1.05m-3.15-3.95.8.1h.35q.6.2.45.8-.2.55-.8.45-.4.5-1.1.5l-.6-.1q-.55-.2-.45-.75-.05-.3.25-.6.15-.15.55-.25zm-.25 7.6h-.05l-.1.2q-.6.9-.5 3.3l1.7.25h1.3l.75-.1.55-.3.25-.7-.3-.75-.65-.7-.5-.25zm6.4 2.9q-.05.8-.5 1.45l-.45.5q-.7.7-1.95.95l-2.2.05-4.55-.55-1.5-.3-.2-.05q-.95-.5-1.6-1.45-.4-.7-.5-1.45l-.05-.85q.05-.65.45-1.85.2-.7.5-1.1.4-.7 1.4-.95l1.7-.1 2.9.6 1.8.5q2.4.6 3.4 1.5 1.15 1 1.3 2.45zM6.9 34.1l-.05.05-.25.7-.25.7q-.05.35.4.8l.65.45.65.15 1.15.3q-.1-1.2.35-2.7l.1-.4.15-.45-1.8-.1q-.85.1-1.1.5"/><path fill="#717171" d="M28.85.05 28.9 0q1.15 0 2 .85L31 1q1 1.1.6 2.5-.3 1.4-1.7 1.95-1.35.5-2.55-.3-1.15-.8-1.25-2.3l.05-.4Q26.3.9 27.85.2zm25.9.45 1.3.65.75 1.25q.15.7-.1 1.45L55.8 5q-.7.45-1.55.4t-1.45-.55q-.65-.5-.85-1.3-.2-.85.15-1.6T53.2.8zm17.9 12.05.5.15q1.5.6 1.8 2.1.4 1.5-.6 2.7-1 1.25-2.5 1.15-1 0-1.8-.65l-.45-.45 1.5-2.25.95-1.65zm-5.2-.2-.05-.6q.05-.75.7-1.55.9-1.2 1.85-1.25l.7.15.2.65.05.95-1.25 2.9v.05l-.25-.05zm-19 4.1q.5.5.6 1.2t-.2 1.3l-1 .9-1.3.15q-.65-.15-1.15-.7-.45-.55-.45-1.25-.05-.7.35-1.25.45-.6 1.1-.8 1.1-.4 2.05.45m12.6.7q.7 0 1.3.5t.65 1.2q.1.7-.35 1.35t-1.15.8q-1.15.35-1.95-.65-.85-.9-.25-2.1.5-1.1 1.75-1.1m5.55 17.4.15 2.35-1.7.25h-1.3l-.75-.1-.55-.3-.25-.7q0-.35.3-.75l.25-.3.3-.05 2.05-.2zm-11.75 7.3-.35-.5q-.3-.6-.3-1.3.05-.85.5-1.55t1.15-1.05q1.65-.75 3.1.35 1.4 1.15 1 2.9t-2.2 2.2l-1.6-.1q-.8-.3-1.3-.95M68 34.3l.05-.05 1.35-.35 1.35.05.05.2.25.7-.4.8-.65.45-.65.15-1.15.3q.1-1.05-.2-2.25M11.25 12.2q-.4-.75-.4-1.5 0-1.35 1.1-2.3 1.1-.9 2.5-.65 1.45.35 2.05 1.5.65 1.25.2 2.5-.35 1-1.1 1.5l-.7-.65q-.5-.5-.95-.7l-1.7-.1zm-6.95 5-1 .3-1.05-.05q-1-.2-1.6-1-.65-.8-.65-1.8 0-.9.55-1.7.55-.7 1.45-1l.7-.15.65.05q1.3.15 2 1.25.65.95.4 2.25-.3 1.2-1.45 1.85m7.25-.85 1.25-1.15 1.2-.3.15.05.35.35q.2.25.05.85l-.35.7-.45.5-.85.8zm-4.25 4 .45-.8 1.15-.85 1.6-1.4 1.3 1.9-1.35 1.05-1.1.65-.7.3H8l-.55-.5zm9.9 18.1q.45-.65.5-1.45.35-.45.9-.75l2.65.05q.75.5 1.05 1.25.4.8.15 1.6-.35 1.55-1.75 2-1.4.5-2.55-.5-1.05-.85-.95-2.2m-12.95-2.3q.1.75.5 1.45.65.95 1.6 1.45 0 1.5-1.35 2.3l-2.95.1Q.55 40.6.55 38.9l.05-.55.2-.55.4-.75q1-1.15 2.5-1zm5.3-1.6q-.45 1.5-.35 2.7l-1.15-.3-.65-.15-.65-.45q-.45-.45-.4-.8l.25-.7.25-.7.05-.05.8-.1q1.15 0 1.85.55"/></g></svg>