<svg xmlns="http://www.w3.org/2000/svg" xmlns:ffdec="https://www.free-decompiler.com/flash" ffdec:objectType="shape" width="72" height="41.9"><g fill-rule="evenodd"><path fill="#999" d="M1.85 15.95q.45-1.15 2.8-2l1.65-.55-.8-.55q-.55-.55-.5-1.25 0-.9.8-1.6.4-.4 1.6-1.05 4.55-2.4 10.75-5.3 5.5-2.45 7.75-3.2l1.3.05.25.55-.2.6-.95.75-11 6.3q-3.7 2.1-6 3.65 16.85-5.9 26.8-8.25h.65q.3.2.2.6-.1.55-.95 1.05L32.4 7.6l-12.05 5.35 4.45-1.25q5.75-1.4 15.65-3l3.2-.35q.9-.1.95.45l-.45.8-2.35 1.1q-9.9 3.5-19.4 6.1h.15l5 .25 1.9.15.95.2q.55.25.6.75 0 .5-.4.8l-.85.35-3.7.35-5.75.5-5.8.5-1.4-.1q-.85-.15-1.2-.75l-.2-.45h-.15q-1.2-.1-1.75-1-.35-.6-.1-1.4l.1-.25-3.95 1.6q-1.5.65-2.2.6-1-.1-1.6-1.05-.55-.95-.2-1.9M14.65.35l.45.05.95.55q.4.55.25 1.1-.1.5-.8 1.2l-2.6 2.6-.6.45q-1.25.7-2.25-.2-.45-.4-.6-1-.15-.65.1-1.2l1.05-1.1 1.25-1 1.3-.95q.75-.5 1.5-.5m20.9 21.15.45-1.15q.5-1.05 2-1.9 1.15-.75 2.3-.95l2.4.3 1.75 1.1.6.7.55.95q.75 1.7.05 3.9-.65 1.9-2.05 3.25-.95.85-1.75 1.1l-1.95.1q-2.15-.1-3.1-.75l-.8-.7-.6-.7-.55-1.25-.1-.9q-.1-1.45.3-2.2zm3.9.7q.75-.5 1.6-.25.9.35 1.15 1.2.25.9-.35 1.65-.8.85-1.8.55-1.15-.25-1.3-1.35-.25-1.1.7-1.8m-1.75 3.7.4.35q.85.55 1.95.55l1.15-.2 1.6-1.25.95-1.85.2-1-.4-1.1-.25-.35-1.15-.6-.8-.25q-.55-.05-1.1.25l-1.4.75-1.15.75-.35.3-.2.15-.15.15q-.3.7-.3 1.5l.05.45.25.5.3.4zM1.4 20.15l.7.05.1-.3q.75-1.25 2.95-.95 1.6.2 4.5 1.25l4.45 1.35 2.2.3 2.3.6 2.1.5 2.05.55q1.2.45 3.4 1.95.75.5.55.95-.15.35-.9.35l-4.4-.5-4.4-.7-3.25-.3-2.5-.4.95.65 4.1 2.2q3.25 1.45 4.25 2 1.25.65 4.55 2.85 2.8 1.9 4.65 2.7 1.4.6 1.15 1.35-.2.7-1.4.6-2.45-.2-5.55-1.6l-5.3-2.6q-5.7-2.25-8.35-3.8l-2.8-1.8-.25-.15 4 3.6 3.35 2.85 3.35 2.9 1.85 1.95.35.65q.1.5-.25.65l-.8-.15Q11.5 36 5 30.6l5.4 11.3H7.2q-1.6-2.55-3.25-5.85L2.2 32.5l1.55 7.6.35 1.8H2.85l-.6-1.2-1.3-3.95L0 33.8V20.65l.15.1q.45-.5 1.25-.6"/><path d="M0 4.85v-2.4l.6-.3.8-.85Q1.95.75 2.8.6l1.5.25Q4.8.1 5.9 0l1.8.35q2.4.9 4 2.5l1.5.55 1.6.45 2.1.8.85.6q.5.45.6 1.15l-.25 1.3-1 1.05-3.15 1.9-.95 2.2-1.2 1.7 2-.25 7.8-.95 1.45-.15 2.3-.2 1.4-.15q.8 0 1.25.4.5.35.55 1.05.05.6-.3 1.15-.55.9-1.9 1.2.25 1.1-.6 2.65-1.35 2.8-3.6 3.55l-2.5.35-3.2-.1-2.35-.6-2.95-.2-5.5.2-2.5.25H1.9l-.7 1.65L0 26.65V15l.45-.2-.45-.45v-3.6l1.2-.3 1.05-.85.25-.35-.7-.9-.45-1.25-.15-.8.2-.9.05-.15-.3-.15zM35.05 33.1l-3.45-.75-3.5-.8q-1.45-.4-1.8-1.1-.5-1.05.5-2.75 2.8-5.1 4.8-10.65.55-1.45 1.3-1.75l1.3.05 1.35.55q-.1-1.55.8-2.15l.2-.05-1.4-1.65-.45.25-1.45.4q-1.35-.1-1.75-1.35-.45-1.3.6-2.15l.6-.35 1.7-1.1 1.1-.6.1-.05q.85-.75 1.75-.8 1.4-.1 1.95.95.5 1.05-.25 1.9l-.45.4-.4.6 1.65 2.75.5.75 4.35.5-.15-.6q-.1-1.7.75-3.4l-.1-.05q-1.55-.3-2.15-.75-1.25-1-1.15-2.95 0-1.4.75-2.6.7-1.1 2.4-1.9 1.5-.65 3.15-.6 1.7.05 3.05.85l1.15.8.65.55.85-.3q3.05-1 5.7.1 1.55.65 3.2 2.2l.1.1.15-.1q2.1-1.45 4.65-.9 2.55.65 3.65 2.95 1.15 2.25.2 4.7-.95 2.5-3.55 3.15l-1.4.2-.4 1.75-1.05 2.95q-1.7 3.25-5.75 4.45l-1.4.3v.1q1.35 3.65 1.5 7.25.1 2.25-.45 3.55-.85 1.9-2.65 3-1.5.9-3.8 1.45l-5 .45-1.25.1-4.55-.5q-1.4-.35-2.35-.9-.7-.45-1.45-1.2l-.1-.1q-1.5 0-2.5.65l-.15.25.15.25q1.55 1.65 3.8 2.1l2.6.4h-6.75l-.15-.05q-1.75-.8-2.2-1.9-.7-1.6.65-3.05.85-.95 2.65-1.55-.25-.95.05-1.95zm21.5-20.4q-.3-.85-1-1.3-.85-.65-1.7-.6l-.4.4q-1.15 1.15-2.35 1.4-.35.75-.25 1.6t.65 1.5l1.4.95 1.65.05 1.45-.9.75-1.45q.15-.9-.2-1.65m8.2 5.6.65-.8q.4-.7.3-1.5t-.6-1.35v-.1q-.85-.85-2.1-.8-1.2.1-1.95 1.05-.7 1.1-.3 2.3.4 1.25 1.7 1.65 1.3.35 2.3-.45M47.8 17l-5.7-.45.6 1.65q.1.75-.3 1.05l-.95.05-.75-.6-1.75-2.15-.3.1q-.2.15-.3.65Q38 18.45 37 18.9q-1.05.5-2.1 0l-.4-.05-.2.3q-1.7 4.65-4.3 9.5l1.2.3 4.1.8 3.85 1.1.15-.75.65-1.8q.3-.9.75-1.2l.9-.15 2.25.25 1 .1.55.15.8-.05q1.9-4.95 1.6-10.4m11 2.05-.2-.7q-.25-.35-.55-.4l-.1.05-.3.1-.65.8-1.2.25-.8.25q-.5.3-.25.7.15.25.95.25l1.5.2 1 .5 1.05.25.95-.55q.35-.5 0-1.05-.25-.4-1.4-.65m-16.7 11.7 2.3-.8q.6-.25.85-.65h-.15l-1.6-.05-1-.1h-.3l-.05.1-.4 1.65zM4.05 12.15l.05.65q.1.75.55 1.3.55.9 1.6 1.25l2.05-.15.8-.55 1-1.45q.25-.95-.05-1.75l-.2-.45-.9.05h-1.7l-2.3-.35-.45-.2-.25.45-.15.4z"/><path fill="#fff" d="M0 10.75v-5.9l1.15.25.3.15-.05.15-.2.9.15.8.45 1.25.7.9-.25.35-1.05.85zm64.75 7.55q-1 .8-2.3.45-1.3-.4-1.7-1.65-.4-1.2.3-2.3.75-.95 1.95-1.05 1.25-.05 2.1.8v.1q.5.55.6 1.35t-.3 1.5zm-8.2-5.6q.35.75.2 1.65L56 15.8l-1.45.9-1.65-.05-1.4-.95q-.55-.65-.65-1.5t.25-1.6q1.2-.25 2.35-1.4l.4-.4q.85-.05 1.7.6.7.45 1 1.3m2.25 6.35q1.15.25 1.4.65.35.55 0 1.05l-.95.55-1.05-.25-1-.5-1.5-.2q-.8 0-.95-.25-.25-.4.25-.7l.8-.25 1.2-.25.65-.8.3-.1.1-.05q.3.05.55.4zm-54.75-6.9.05-.8.15-.4.25-.45.45.2 2.3.35h1.7l.9-.05.2.45q.3.8.05 1.75l-1 1.45-.8.55-2.05.15Q5.2 15 4.65 14.1q-.45-.55-.55-1.3z"/></g></svg>