<svg xmlns="http://www.w3.org/2000/svg" xmlns:ffdec="https://www.free-decompiler.com/flash" ffdec:objectType="shape" width="78.9" height="43.55"><g fill-rule="evenodd"><path fill="#999" d="m27.85 3.4-1.05.15-.95-.45q-.4-.4-.55-.95-.1-.55.1-1.05.35-.8 1-1l1.35.05q.7.25.95.9.3.65.05 1.35t-.9 1M47.4 28.1q.05-1.4.35-2.2l.55-.9q.75-.65 1.6-.25.8.35 1.1 1.65l.15.75.45-.5.7-.25 5.35-.9 2.15-.55 1.45-.6 1.55-.05q1 .35 1.1 1.35.15 1-.65 1.65-.85.6-2.7.4H58l-3.65.4-1 .3-1 .15-.9-.25-.2-.2v.2l.1 2.75-.15.9.05.85-.25 1.55v.15l8.1 1.4 15.85 2.75q1.75.45 1.85 1.4.1.65-.7 1.15-.5.3-1.4.4l-6.8-.8-16.2-3.6-4.25-1-.05.15q-.5.9-1.5 1.05-1 .1-1.65-.7l-.5-1.4-4.25-1.1-1.15-.3v.05q0 .75-.55 1.3l.3.2q1.4.7 4.4 1.5l9.35 2.45q1.25.25 2.15.65 1.55.8 2.5 2.05-1 .9-3.45.6-5.7-.8-9.75-3.55l-1.55-1-1.65-.85-3.35-1.4-.9.2q-.95-.1-1.35-1l-.05-.1-.2-.1-.5-.45.25-.2.4-.05.3-.7 1.05-.85q.2-.15.35-.2-.2-.3-.1-.6.15-.6.95-.5l.55.1v-.55q.15-.55.55-.75.05-.5.4-.9l1.25-.9q.4-.2.75-.25-.15-.5.15-1l.6-.6.35-.2-.4-.55q-.2-.45 0-.85l.7-.85q.4-.3.75-.5l-.1-.65.65-1.3-.1-.05q-.4-.15-.6-.7l.1-.75.3-.7-.05-.15-.1-.5-.4-.55q-.3-.8 0-1.65L43 15l.65-.85q.5-.4 1.15-.25l.8.8.05.05.2.15q.5.3.55.8l-.35 1.35-.85 1.75-.15.4-.05.25 1.55-1.65 3.4-3.5 4.85-5.9q3.25-4.15 4.85-5.95 1.2-1.2 1.95-1.45l1.25-.05.95.7q.35.65-.05 1.6l-.95 1.3-10.85 11.5-5.45 5.2q.25.1.5.35.7.7.25 1.55l-.7.8-.45.35.3.5-.05.7q-.3.5-1.45.65l.45.1.4.35.05.45q-.1.55-1.1.95l-1.95.7-.15.05q.2.45 0 .9l-.4.4-.05.15q0 .9-.5 1.45l-.45.4 2.15.55.3.1.05-.4.75-1.6q.5-.8.9-1.05.6-.45 1.4-.2l.6.3zm-8.1-14.55.15-4.15.4-4.05.05-1.45-.1-1.4q.1-.4.7-.8.45-.25 1.05-.35l2.2-.5 1.6.05q1.05.45.95 1.5L45.65 4l-.85 2.4-1.35 3.85-.6 1.85.15.35v1l-.5 1.45-.2 1.3-.45 1.2-.4.25-.35-.25q-.5-.65-.55-1.75-.65-.15-.95-.75-.3-.5-.3-1.35m24.5.3-.8-.45q-.4-.6.35-1.6l1.25-1.4q4-4 8.25-7.3L74.4 2q.7-.55 1.35-.6 1.1-.1 1.7.95.6.95 0 1.95l-1 1-5 3.65-4.95 3.65q-1.6 1.4-2.7 1.25m3.05-6.7-.9.6-.7-.15-.4-.6q-.05-.55.5-1.2.85-1.15 2.2-2.1 1.1-.7 1.8-.4l.6.6q.2.45 0 .85l-.65.75-1.5 1.1zm5.75 7.4q.35 0 .35.4l-.15.35-.3.3-.3.6-1.35 1.25-1.85.45h-.7l-.55.15q-.4 0-.7-.35t-.2-.75q.1-.5.9-1l1.1-.7q1.5-.9 2.4-.75l.9.1zm1.45 9.3-1.35-.1q-.8-.2-1-.75-.25-.6.25-1.2l1-.8q.75-.4 1.5-.55l1.5.2q.9.55.8 1.6T75.7 23.7zm-23.6-14.6q-.35-.2-.2-.75l.35-.75.15-.85q.15-.85 1.3-2.2l.7-.9q.65-.85 1.3-1.15.45-.15.9 0t.6.55q.2.5-.45 1.5l-1.25 1.75L51.35 9zm-1.6 3.4-.2.6-.95 1-1.75-.15q-.8-.55-.8-1.6 0-.95.65-1.7.45-.45 1.05-.6l1.15.1q.55.25.8.95zM52.4 24.2l-.5.3q-.8.2-1.25-.55-.35-.75.1-1.35l.55-.55.7-.35h.7l.8.55q.3.4.1.95l-.45.55zM77 35.4l-2-.05-2-.5-2.9-.6-7.45-1.35-9.25-1.65q-.7-.1-.95-.35-.5-.4-.25-.9.25-.4 1.1-.3l13.45.8 3.05.15 6.75 1.05q1.95.45 2.25 1.35.3.85-.35 1.6-.5.6-1.45.75m-5.6-6.1-1.4.05-3.75-.3-.55-.25q-.15-.3.2-.5.25-.15.55-.15l3.8-.25 1.05-.1 1.25-.45.95-.05 1.65-.3 1.7.05q.95.4.95 1.25 0 .8-.85 1.2l-1.55.2-3.35-.5zM36.65 11.9l-.55.25-.6-.25q-.35-.3-.55-1.1-.55-2.9.55-5.45l.5-.8.9-.2q.5.1.75.45l.3 1.25L38 7.9q0 1.95-.45 3.9l-.3.45-.3-.1zM33.2 5.15q.35-.35.7-.4l.45.05q.45.2.65.75l-.05.5-.4.6-.7.15-.6-.35Q33 6.2 33 5.8q-.05-.4.2-.65m-3.25-2.2.9.65q.3.4.4 1.45l.15 1.35.15 2.45-.15.6q-.15.35-.5.25l-.4-.45-.75-.9q-.85-1.1-1.15-4V3.5q.1-.5.55-.65zM10.9 29.75l-2.3.15-7.2.5q-.55-.05-1-.5-.4-.4-.4-.95l.35-1.05q.4-.45.95-.55l2.1-.1 4.7-.15-2.55-.75-1.2-.2-1.45-.45-1.1-.3q-.7-.3-.75-.85l.2-.65q.25-.25.6-.35l1.35.05 7.15 2.55 1.35.35.55.3.45.4q.3.45-.15.85l.1.45q0 .5-.6.9zm2.35 3.05q-.65.95-2.35 1.05-1.25.2-1.85-.4-.35-.35-.4-.9 0-.5.35-.9.3-.35 1.25-.65l2.35-.35.85-.05.5.4.05.7-.5.65zm-1.8 9.1q-.75.55-1.55.35l-.7-.4q-.3-.3-.2-.75l-.2.6q-.15.85-1 1.2l-1.6.05q-.65-.25-1-.85-.4-.6-.3-1.25l.55-1.25 1.1-1.65q1-1.5 1.7-2.05l.7-.4.7-.05.7.1.85.6.5.5.25.55v.05l.4-.35q1.55-1.35 3.05-2.2 1.05-.65 1.75-.55t1.05.8l.1.65.35-.15 1.05.3.45.45.55-.35q.8-.15 1.3.4l.25.3h.15l.7.4.1.1.75.3.25.3q.65.4.55 1.25l-.3.75-.45.7-.35 1.05-.2.8-.75.65q-.6.15-1-.25l-.05-.05-1.05-.25-.7-.8q-.2-.55-.1-1.1l.35-.85-.35.25-1.9 1.45-1.5 1.35-.55.5-.6.35q-.5.2-1 0l-.75-.65q-.25-.45-.15-.95l.1-.65.5-.6.7-.5 1.65-1.35 1.2-.9q-.3-.45-.25-.95l.05-.25-1.5 1-1.1.75-.9.85-1.5 1.35-.1.1q-.15.75-.75 1.2m-8.9-3.95-.1-.3q-.3-.55-.15-1.2l.55-1L4.4 34.2q.5-.5.75-.65.55-.35 1.1-.3.7-.15 1.1.3l.35.6.1 1.05-.55 1.1-1.35 1.9-.2.35-.3.5-1.4 1.6-.45.25q-.75.35-1.35-.35-.5-.65-.15-1.4l.3-.5zm33.6 4.2-1.05-.75-.15.3-.7.65q-.95.3-1.8-.3L31 40.8l-1.45-1.55q-.6-1.1.1-2.05l.9-.65.4-.05v-.05l.35-.6q.3-.5 1-.6.65 0 1.05.5l.35.8q.2.95-.15 1.55l-.25.4.05.1 1.05 1 .5.6q.1-.55.55-1.05.75-.7 1.75-.45.6.1 1.05.6.45.45.4 1.05 0 1.25-1.5 1.7zM27 42.2l-.45.85q-.5.4-1.1 0l-.25-.2-.45.05q-.5 0-.7-.6-.15-.45.05-1l.4-1.15.55-.65.6-.5h.05q.05-.7.5-1.15l.65-.35q1.15-.2 1.6.85l.1.65.35.55.35 1.05q.05.5-.3.9-.35.45-.85.5l-1-.2zM14.7 28.6l-.2-.55q-.45-1.7-.2-2.85l.3-1.35.25-.35L16 21.45q1.45-2.3 3.95-5.25l4.35-5 .55-.8 2.5-.3 2.45.1q.65.15 1.9 1l1 .8.45.8-.25-.2-.35-.2-1.2-.85.35.9q.4 1.2.2 2.5-.25 1.6-1.55 3.3-1 1.3-2 1.75l-1.95.2-.45-.1-.05-.1q-.15-.6.25-1.4L27.7 17l1.25-.8.85-1q-.35-.7-1.1-.9-.7-.2-1.45 0-1.75.55-3.25 2.55l-.2.25-.45.2q-1.35.4-2.3 1.25-1.45 1.05-2.6 3.05l-1.25 2.9h-.1q-.1.25-.05.45l-.2.4-.45 1.7.05 2.6.15 1.1.25.35-1.75-1.8zm5.1 4.45q-.85-1.15-1.1-2.15-.35-.85-.35-1.65 0-1.45.55-3.05l1.4-2.75q.65-1.3 1.4-2l1.25-1.05q.2.8.75 1.5.7 1 1.95 1.5l1.95.5q2.5.15 4.6-1.55 1.8-1.4 3-4l.55-1.6.15-1.7.05-.6q.85.45 1.75 1.9l.75 1.3q.55 1.25.45 2.75-.05 1.45-.75 2.65l-1.7 2L34.9 27l-1.45 2q-1.5 2.05-3 3l-.25.2q-1.8 1.45-4 2l-4.35-.15q-.9-.3-2.05-1m16.15-18.8-.05-.65.7.6h-.1l-.15.05h-.4M20.3 9.3l.2.15.7.8.05.8-.35.45-4.15 4.8-.65.85-.6.5q-1.7 1.6-2.8 2.95L11.55 22q-.65.7-1.5.75l-.2.05.3-1.2.9-1.55 1.25-1.85 1.9-2.65 3.5-3.95z"/><path d="M18.3 7.5 9.1 1.05h4.7l4.2 2.8L21.15 6l1.45-.05q1.15.1 2 .75.8.65.95 1.55l1.25-.3 1.8-.35 1.5.05.5.15.75.35L34 9.8l.7.7.75.15Q39.6 12 41.8 15.7q2 3.4 1.45 7.15l-.2.75q-.5 2.95-2.9 6.2-2.8 3.75-6.6 6.25l-3 1.8q-2.05.95-3.5 1.1l-2.7-.35q-4.15-.95-7.8-3.1-1.7-.9-2.65-2.05-1.75-1.85-2.45-5.35l-.25-1.85-2.05-.3q-1.15-.7-1.45-2.2-.2-1 .05-1.95L5.9 20.4l-4.65-3.65v-4l7.8 6.05q3.2-5.55 7.85-10.1zm44.25 15.75q-2.45.4-4.4-.4-.85 1.15-2.65 1.3-1.9.1-2.6-1.1l-.25-1.2q-.1-1.15.6-2 .6-.7 1.35-.8-.35-1.25-.15-3l.25-1.35q.3-1.1 1.1-2-.3-.7-.15-1.85.15-.75.65-1.25.65-.8 2.15-.8l1.35.4q.6.4.9 1.2 1.6-.05 3.2.7 1.7.8 2.9 2.25l.85 1.35q.45 1 .4 2.3l.55.35q1.8 1.1 2.85 2.45l.8 1.3.65 1.4q.45 1.15.45 3.15 0 2.7-.45 4.2-.7 2.35-2.35 3.45l-1.95.8-1.6.2-.5 1.05-1.05 1.15-1.1.75-3.3.3L59.4 37l-.9-.85-.85-1.25-.2-1.35-.1-1.4-.25-.6q-.45-.45-1-.35-.6.1-.9.55l-.2.15-.3-.2.05-.4.45-1.05q.25-.3.85-.5l1.7-.2q.8.2 1.3 1.05l.6 1.55q.2 1.15.5 1.6.35.35.75.55 1.35.7 2.65-.25l.6-.7-.85-.9q-.8-1.05-1.05-2.35-.5-2.45.8-5.1.7-1.3.7-2zm-3.5-11.9q-.45.6-.2 1.25.15.7.9.95.8.25 1.4-.35t.35-1.4q-.15-.6-.75-.85l-1.1-.05zm2.6 6.45.05.5.25.6.65.15.35-.55.1-1.2-.1-.4.05-.1.4-.65q.2-.35.95-.75.55-.35.4-.85l-.25-.3h-.45l-.65.4q-.5.2-1.25 1.2l-.1.2-.95-.2-.5.2-.5.25q-.1.25.1.45l.45.15.2.25.6.45h.05zM48.8 7.1l1.9.65q.8.2 1 .65l-.1.85-1.15 3.4-.1.75-.25 1q-.25.3-.85.4l-2.85.35-1 .05-1.35-.25q-.4-.35-.35-.85l.2-.75-.2-1.35-.3-1.6-.05-.6.1-.6q.3-.7 1.25-1.35.95-.6 1.75-.8l1.05-.2zm-.6 2.2-.8-.05-.85.25-1.3.6-.25.2v.3l.5 2q.9-1.15 2.2-2.2l1.15-.9zm-.4 3.65.5-.15.35-.85.4-1.15.2-.55q-1.7 1.15-3.05 2.7zM44.1 37.9l-1.9-1.55Q40.55 35 40.5 33.9q0-.5.3-1.3l.7-1.6.55-1.65.3-1q.25-.5 1.4-1.15l.7-.5.35-.75 1.45-4.75q.2-.8.55-1.25.4-.35 1.25-.45l1.8-.15q1.1 0 1.5.45l.3 1 .65 7.5.35 3.25.25 1.45q0 .9-.45 1.4l-.9.55-1.5 1.1-1.4 1.2-1.95 1.15-1.3.25q-.55-.1-1.3-.75m4.8-3.75 1.05-.9.4-.35v-.6Q50 31.2 50 29.2l-.2-3.1-.15-1.15-.05-1.15-.2-1.25q0-.6-.2-.7-.4-.15-.5.45l-1.55 4.95.4.6-.15 1-.1 1.35-.05 1.5.05.8.1.5.05 2.05-.05.7zm9.3-13.75q.5-.4.5-1.1.1-.5-.25-.9l-.85-.55-1.05.15q-.45.25-.65.8-.15.55.05 1.05.3.65.9.8.7.25 1.35-.25m-12.9 8.7-.55.4-.3.6-1 2.55q-.3.6-.2.95l.35.4 1 .85.85.5.75.65.1.1.15-1.25-.2-1.5-.15-.85q.1-2.45-.15-3.65zM33.15 12.8l-.45-.8-1-.8q-1.25-.85-1.9-1l-2.45-.1-2.5.3-.55.8-4.35 5q-2.5 2.95-3.95 5.25l-1.15 2.05-.25.35-.3 1.35q-.25 1.15.2 2.85l.2.55q.4 1.55 1.05 2.45t1.8 1.65l-.7-1.6-.25-.35-.15-1.1-.05-2.6.45-1.7.2-.4.15-.45 1.25-2.9q1.15-2 2.6-3.05.95-.85 2.3-1.25l.45-.2.2-.25q1.5-2 3.25-2.55.75-.2 1.45 0 .75.2 1.1.9l-.85 1-1.25.8-1.55 1.6q-.4.8-.25 1.4l.05.1q.2.6 1.25.9l2.15-.2q1.05-.4 1.8-1.3 1.35-1.35 1.95-3.8.4-1.75.05-2.9m2.8 1.65-.05.6-.15 1.7-.55 1.6q-1.2 2.6-3 4-2.1 1.7-4.6 1.55l-1.95-.5q-1.25-.5-1.95-1.5-.55-.7-.75-1.5l-1.25 1.05q-.75.7-1.4 2l-1.4 2.75q-.55 1.6-.55 3.05 0 .8.35 1.65.25 1 1.1 2.15l.55.7.55.45 1.45.6 2 .75 2.1.3q1.5 0 3.65-1.25 6.65-3.65 9.2-9.15 1.1-2.15 1.1-4.35.1-2.45-1.1-4.25-.65-1.05-2.45-2.5l-.25-.15v-.05.05l-.7-.6.05.65v.2m3.15 6.75-.05.15.05-.5zM20.3 9.3l-2.6 2.3-3.5 3.95-1.9 2.65-1.25 1.85-.9 1.55-.3 1.2-.1.45-.15-.1.1.5.45.1q1.3-.05 2.2-1.05l.85-1.25q1.15-2.1 2.9-4.3l.65-.85 4.15-4.8.35-.45 1.8-2.35q-.3-.55-1.3-.2-.7.3-1.45.8m-15 20.4 1.35-.6q.9-.15 1.45.25l.6.95.7 1.6 1.15.05q.75 0 1.1.4.3.3.4 1l.8 2.35.55 2.35.05.15v.05q.3.45.1 1.3L13 41.7l-.45 1.05q-.35.4-.9.4-.55.05-.95-.3l-.2-.2-4.3.15-3.7-.15q-1.1-.1-1.45-.6L.75 41 .7 37.95v-1.4l-.2-.95-.05-.8.1-1.1q.15-.65.6-.95l.5-.25.2-.6q.3-.45.95-.8zm1.9 3.15-.6-1-2.3 1.4-.25.2L2.9 34.6l-.3.3.05.45.2 1.6-.15 1.6.1 1.7.05.05.1-.15.8-1 .25-.6 1.4-2.25.65-.9.65-.8.85-1zm3.9 3.25-.8-1.95H9l-.25.05-1 1.35-.65 1.05-1.9 4.2h2.2l1.8-.1 1.55-.05.2-.3.4-.95.15-.2-.05-.2v-1.15l.05-.6zm29.2 4.5.15 1.05q.1.7-.15 1-.35.45-1.35.45h-4l-1.75-.25q-1.05-.5-1-1.35l.05-.55.05-1-.1-1 .5-.8.85-.55 3.1-1.45 1.25-.45q.85-.2 1.2 0l.75.75.3.5.05.45.2 1.2.1 1.15zm-2.25-2.5-.75.2-2.3 1.15-.3.2q-.15.25-.05.8l3.55.05.15-1.1q.1-.7-.3-1.3"/><path fill="#fff" d="m61.65 17.8-.15-.2h-.05l-.6-.45-.2-.25-.45-.15q-.2-.2-.1-.45l.5-.25.5-.2.95.2.1-.2q.75-1 1.25-1.2l.65-.4h.45l.25.3q.15.5-.4.85-.75.4-.95.75l-.4.65-.05.1.1.4-.1 1.2-.35.55-.65-.15-.25-.6zm-2.6-6.45.6-.45 1.1.05q.6.25.75.85.25.8-.35 1.4t-1.4.35q-.75-.25-.9-.95-.25-.65.2-1.25m-.85 9.05q-.65.5-1.35.25-.6-.15-.9-.8-.2-.5-.05-1.05.2-.55.65-.8l1.05-.15.85.55q.35.4.25.9 0 .7-.5 1.1"/></g></svg>