<svg xmlns="http://www.w3.org/2000/svg" xmlns:ffdec="https://www.free-decompiler.com/flash" ffdec:objectType="shape" width="75.65" height="40.25"><g fill-rule="evenodd"><path fill="#767676" d="M63.55 40.15q2.65-.6 6.4.1H63.1zm-9.4-8.1-.05.1.8-.35h-.55zm-2-1.1.35.65-.05-.15q-.4-.8.1-1.6.4-.45 1-.35l-.15-.25-.6-.9-.35-.25-.4 1.3q-.15.8.1 1.55m2.9-4.85-.8.1-1.1.95 1 1.2.3 1.05 1-.2.9.2.3.4.05-.35-.3-1.2-.9-1.75zm.3-4.7-.15.3.75.55.95-.9.1-.05-.4-.65-.65-.4-.2-.05zm-4.05-3-.25.15-.15.3-.55.55-.75.1q-1 .15-1.5-.3-.25-.3-.35-.8 0-.6.2-.85.25-.55.7-.3l.15-.6q0-.5.6-.75l1.2.1q.7.2 1.05.7.35.55.3 1-.1.55-.65.7m5.1 16.3q-2.25 1.15-4.2.45-1.6-.45-2.5-2.1-.9-1.55-.8-3.3l.2-1.3-1.1.4-1.3-.25q-.7-.5-.6-1.1.05-.5.8-1l-.3-.3q-.5-.15-.55-.55-.15-.6.4-.75l.85-.25h1l.6.1.6.65q.2.45 0 .9l-.25.55.1.45.05.3q.5-1.45 1.5-2.8-.45-.1-.75-.45-.45-.45-.45-1.05h-.35q-1.3.1-2.4.85-1.95 1.2-3.2 3.9-1.4 2.85-.15 4.55l.85 1.15.05.7-.4.5-.8-.2q-2.05-1.3-2.35-3.65-.15-.8.1-2.4.8-3.8 3.15-6.2 2.9-2.75 6.4-2.55l1.3.15q.9-1.2.8-2.8 0-1.5-.95-3.2L51 13l-1-.6-1.05.3q-1.3.5-1.75 1.9l-.3.45-.5-.1-.1-.55q0-1.1 1.2-2.2l.45-.4-.2-.1-2.3.2q-2.15.25-2.95 1.1l-.5.5q-.35.25-.6 0-.3-.3.05-1l1.2-1.6q1-1.05 3.5-1.55l1.6-.3 2.5.4q1.35.5 2.2 1.1h.05l1.95.25 2.7.05.45-.35-.45-.6-1.8-.4q-2-.3-3.35-1-1.75-.95-2.3-2.55-.2-.55-.25-1.25l-.3-.6q-.2-.9.25-1.75.5-.95 1.35-1.3l2.35-.1.3.05 1.05.25q.5.25.75.6v.05l.45-.1 1.55.15.25.15.1-.25q.3-.65 1.1-.65l1.3.4.95 1 .5.7.6.35.55.7q.25.4 0 .8-.25.35-1.2.45l-3.6-.1-1-.5q-.45-.4-.45-1.15l.3-.85h-.45l-.65-.05-.25.05v.85h-.05l-.25.2q-.6.35-1-.15l-.45-.85-.65-.15q-.9-.15-1.25.35-.15.25-.15.8 0 .8.3 1.35.55 1.1 2.35 1.45l1.65.3 1.95.3q.95.3 1.7 1.15l.9-.05h.1q-.45-.55-.1-1.05l.1-.1q.25-.35.8-.5l1.15.05h.5l1.35.1.75.15.15.25q.4.05.5.25.2.4 0 .8v.05l-.2.65-.6 1-.9.95-.85.2q-.9 0-1.35-.55l-.35-.55-1.3.15q.05.85-.3 1.5L58.7 13l-1.95.4-1.85-.15-.25-.05.6.95.55 2.45.1 2.2.55.35 1.05.95.3.55.3-.2.75-.5-.2-.5-.05-.35.05-.15V18l-.3.05q-.85-.05-1.15-.95-.2-.75.1-1.55.25-.65.6-.95.45-.3.9-.3 1.4-.25 2.8 1.4l.6.95q.1.75-.25 1.1-.3.3-1.05.4l-.95-.05-.5-.1.1.4.65.95.05.1 1.35.05 1.2.4q1.1.55 1.9 2 .55.95 1.15 3.05l.35.7q.55.8 1.4.4 1.1-.75 1.3-1.4l-.15-1.25-.65-1.35-.3-.3v-.05l-.55-.6q-.05-.25.2-.45l.45-.15.55.15.3-.15.25-1.3-.05-.35-.3.2-.25.05q-.3.3-.65-.2l-.25-.4-.05-.1-.1-.55q0-1.1.75-2.1.75-1.15 1.95-1.45.75-.25 1.1 0 .65.2.55.85l-.2.55.05.6.45 1 .35 1.2-.3 1.1q-.3.4-.9.4l-1.05-.25-.1-.05.05.3-.1.8-.5.75 1.15 1.7.35 1.4q-.05.9-1.15 2.1l-.4.45.05.15q.05.5.65 1.35l.3.4.5-.65q.45-.4.95-.45 1.35-.2 1.9 1 .4.7.3 2.35v1.3q-.3.7-1.1.9l-1.5-.15-1.95-.8q-.9-.45-1.2-1.1-.4-.9.35-1.65.3-.3.6-.35l-1.1-1.4-1.4.05-1.2-.35q-.85-.45-1.4-1.7l-.85-2-.95-1.25q-.75-.55-1.45-.3l-.6.4-.65.5.7.4q3.4 1.95 4.8 5.05 1.6 3.45.1 6.65 5.35-.4 8.7 1.65l1.35 1.25h.35v1.6h-.1v.2h-3.5l.2-.2q-2.4-1.55-5.75-1.55l-4.55.45-1.4.6-3.55.7h-5.5q-3.6-.35-6.5-2.95l-.35-.5q-.15-.7.7-.85.4-.05 1.25.4l2 .85.05-.2q.15-.55.7-.8.45-.3 1.1-.25l2.15.7 3.5.15 3.3-.6q1.75-.7 2.55-2.1.9-1.65.05-3.7-.65-1.7-2.45-2.85.95 1.95-.1 4.15-1 1.9-3.05 3m-37.75 0q-2.1-1.1-3.05-3-1.05-2.2-.15-4.15Q13.7 28.7 13 30.4q-.85 2.05.1 3.7.8 1.4 2.55 2.1l3.3.6 3.45-.15 2.2-.7 1.1.25q.55.25.65.8l.1.2q.9-.4 2-.85.85-.45 1.2-.4.85.15.75.85l-.4.5q-2.85 2.6-6.4 2.95h-5.55l-3.55-.7-1.4-.6-4.6-.45q-3.35 0-5.7 1.55l.25.2H0V38.1l1.1-.9q3.35-2.05 8.7-1.65-1.55-3.2.05-6.65 1.4-3.1 4.8-5.05.4-.25.75-.4l-.65-.5-.65-.4q-.65-.25-1.45.3l-.9 1.25-.85 2q-.55 1.25-1.4 1.7l-1.25.35-1.4-.05-1.1 1.4.65.35q.7.75.35 1.65-.3.65-1.2 1.1l-1.95.8-1.55.15q-.8-.2-1.1-.9v-1.3Q.9 29.7 1.25 29q.55-1.2 1.9-1 .55.05 1 .45l.45.65.3-.4.7-1.35.05-.15-.45-.45q-1.05-1.2-1.15-2.1l.4-1.4q.45-1 1.15-1.7l-.2-.2-.3-.55L5 20l.05-.3-.15.05-1 .25q-.6 0-.95-.4-.3-.4-.3-1.1l.4-1.2.4-1 .05-.6-.15-.55q-.15-.65.55-.85.35-.25 1.1 0 1.2.3 1.95 1.45.7 1 .7 2.1l-.05.55-.05.1-.25.4q-.35.5-.65.2l-.25-.05-.3-.2-.1.35q0 1.1.25 1.3l.3.15.55-.15.5.15.2.45-.55.6v.05l-.3.3-.7 1.35q-.3.85-.1 1.25.15.65 1.25 1.4.85.4 1.4-.4l.4-.7q.6-2.1 1.15-3.05.8-1.45 1.9-2l1.2-.4 1.35-.05.05-.1.6-.95.15-.4-.5.1-1 .05q-.7-.1-1-.4-.4-.35-.25-1.1l.6-.95q1.4-1.65 2.8-1.4.45 0 .85.3l.6.95.15 1.55q-.3.9-1.15.95l-.35-.05v.95l.1.15-.1.35-.15.5.7.5.35.2.3-.55 1-.95.55-.35.15-2.2.55-2.45.6-.95-.25.05-1.9.15-1.95-.4q-.6-.35-1-1.1-.4-.65-.35-1.5l-1.25-.15-.35.55q-.45.55-1.35.55l-.85-.2-.95-.95-.6-1q-.25-.4-.15-.65V8.5q-.2-.4 0-.8l.45-.25.2-.25.75-.15 1.3-.1h.5l1.15-.05q.55.15.8.5l.15.1q.35.5-.15 1.05h.15l.9.05q.7-.85 1.7-1.15l1.95-.3 1.65-.3q1.75-.35 2.3-1.45l.3-1.35-.1-.8q-.35-.5-1.3-.35l-.6.15-.5.85q-.35.5-.95.15l-.25-.2h-.05V3l-.25-.05-.7.05h-.4l.3.85q0 .75-.5 1.15l-.95.5-3.6.1q-1-.1-1.25-.45-.2-.4 0-.8l.55-.7.65-.35.45-.7q.45-.7 1-1l1.25-.4q.8 0 1.1.65l.15.25.25-.15 1.5-.15.5.1v-.05q.25-.35.75-.6l1-.25.3-.05 2.4.1q.85.35 1.35 1.3.4.85.25 1.75l-.35.6-.2 1.25Q24.8 7.55 23 8.5q-1.35.7-3.35 1l-1.75.4q-.55.3-.5.6.05.25.5.35l2.7-.05 1.95-.25h.05q.85-.6 2.2-1.1l2.5-.4 1.55.3q2.5.5 3.55 1.55l1.15 1.6q.35.7.05 1-.25.25-.6 0l-.5-.5q-.75-.85-2.9-1.1l-2.3-.2-.2.1.4.4q1.25 1.1 1.25 2.2l-.15.55-.45.1q-.2-.05-.3-.45-.45-1.4-1.8-1.9L25 12.4l-.95.6-.8 1.1q-.9 1.7-.9 3.2-.15 1.6.8 2.8l1.25-.15q3.55-.2 6.4 2.55 2.4 2.4 3.2 6.2l.1 2.4q-.3 2.35-2.35 3.65l-.8.2q-.3-.1-.45-.5-.05-.3.05-.7l.85-1.15q1.3-1.7-.1-4.55-1.3-2.7-3.25-3.9-1.1-.75-2.35-.85h-.35l-.45 1.05q-.3.35-.8.45 1.05 1.35 1.55 2.8l.05-.3.05-.45-.25-.55q-.15-.45 0-.9l.6-.65.65-.1h.95l.85.25q.55.15.45.75l-.55.55-.3.3q.7.5.75 1 .15.6-.6 1.1l-1.25.25-1.1-.4.15 1.3q.15 1.75-.75 3.3-.95 1.65-2.5 2.1-1.95.7-4.2-.45m5.1-16.3q-.55-.15-.65-.7-.1-.45.3-1 .35-.5 1-.7l1.25-.1q.6.25.6.75l.1.6q.5-.25.75.3l.2.85-.4.8q-.45.45-1.45.3l-.8-.1q-.5-.15-.55-.55l-.1-.3q-.05-.15-.25-.15m-4.1 3-.35-1.2-.25.05-.6.4-.45.65.15.05.9.9.8-.55zm.3 4.7-.4.4-.9 1.75q-.35.6-.35 1.2l.1.35.3-.4.9-.2 1 .2.3-1.05q.35-.8.95-1.2l-1.1-.95zm.95 5.95-.2-.25h-.55l.8.35zm-9.4 8.1.45.1h-6.9q3.8-.7 6.45-.1m11.4-9.2.05-1.55-.35-1.3-.4.25-.6.9-.1.25q.6-.1.95.35.5.8.15 1.6l-.05.15z"/><path d="M69.55 24.4q-.85 1.75-2.45 2.6l.1.2-.15.85-.7.95-1.35.25-.4-.05-.1.2q-.8.95-1.95.55-.8-.3-1.1-1l-.25.05-1.1-.15-.7-.75q-.25-.55-.15-1.1l.2-.5q-1.7-1.2-2.45-2.9-.9-2.05-.05-4 .35-.8 1.05-1.5 1.75-1.9 4.3-2.25l2.55.15q1 .2 2.25.95 1.4 1.05 2.2 2.3 1.4 2.6.25 5.15m-2.6.85q.9 0 1.35-.85l.15-1.05q-.1-.6-.55-.95-.95-.85-2-.15-.5.3-.65.85-.2.55 0 1.05l.65.85zm-17.25-13q.05 3.8-1.4 6.55-1.35 2.35-3.65 3.9l.1 1.55q0 .7.15.95l.7.4q1.95.75 2.7 2.75l.3 1.4.2 2q-.2 1.9-2.7 4.2.5.7.3 1.65-.05.9-.8 1.45-.85.7-2.95.55l-.95-.05-.15.3-.2.4H26.1l-.2-.25-.5-1q-.2-.9.55-1.75L24.6 35.5l-.65-1.35q-2.45.7-3.8 1.45t-2.25 1.65l.9-.15 1.85-.1q.95.05 1.9.55.85.55 1.05 1.4.25.7.1 1.3H13.2q-.25-.5-.25-1.35 0-1.6.2-2.1l.8-1.4q1.5-1.95 4.3-3.35 1.7-.85 5.3-1.85l.7-.2q.15-.5.45-.9.95-1.35 2.25-2.05l1.1-.95.2-.85.3-1.15.6-1.3-1.5-1.1Q26 20.25 25.1 18.25q-.85-2.15-.6-4.3.1-1.15.7-2.95l1.15-2.35.55-.7-.65-1-.2-1.45.2-2 1.05-2.2.4-1.2.05-.1h4.4L33 1.75l.85 1.05 7.4-.2.35-.4L43.75 0H48l.5 1.75.4 1.85q0 .95.15 1.4l.1.95-.05.75.1.75.05 1.1v.3q.45 1.55.45 3.4m-11.65 5.2q-.65-.75-1.1-.7l-.45.4-.95.25-.85-.55-.35-.5q-.2-.2-.5 0l-.35.5q-.2.4.05.95.25.5.65.8l2.1.25.85-.05.85.15 1.7-.15 1.3-1.15q.25-.45.1-.8-.05-.4-.4-.5-.4-.2-.7 0-.25.1-.65.85-.6.75-1.3.25m3.55-4.75q-.45.85-.25 1.9.25.95 1 1.5.75.6 1.8.5 1-.05 1.65-.75.65-.65.8-1.7.05-1.05-.55-1.8t-1.6-.95l-1.8.25q-.8.45-1.05 1.05m19.8 10.1q0-.95-.9-1.4-1-.4-1.7.3-.75.75-.45 1.65l.1.05q.2.5.7.8l1.05.2.9-.6q.35-.45.3-1M8.1 25.25l1-.25.7-.85q.2-.5 0-1.05l-.7-.85q-1-.7-2 .15-.4.35-.55.95-.05.6.2 1.05.4.85 1.35.85M28.45 13q-.55.65-.5 1.65.05.95.65 1.55.65.65 1.55.7.95.05 1.65-.45.65-.55.85-1.45.15-.95-.25-1.7-.65-1.05-1.9-1.15-1.25-.15-2.05.85m-23 11.4q-1.15-2.55.25-5.15.8-1.25 2.2-2.3 1.3-.75 2.25-.95l2.55-.15q2.6.35 4.35 2.25l1.05 1.5q.85 1.95-.1 4-.7 1.7-2.4 2.9l.15.5q.15.55-.1 1.1l-.75.75-1.1.15-.25-.05q-.3.7-1.1 1-1.15.4-1.9-.55l-.15-.2-.35.05L8.7 29q-.6-.45-.75-.95l-.1-.85.05-.2q-1.6-.85-2.45-2.6m30 1.55Q33 26.2 32.05 27l-.85.9-.7 1q-.4.8-.55 2.7l.15.9.35.85 1.15 1.25-.2.45q-.1.6.2 1.2.3.55.9.8l1.25.05.6-.3.8.95 1.9-.15.65-.85.25.15 1.15.05.85-.7q.3-.45.2-1.1l-.3-.75 1-1.1q1.4-2.05.6-4.15-.75-2.2-2.95-2.95zm-21.8-3.15q-.1.55.3 1l.9.6 1.05-.2.65-.8.15-.05q.3-.9-.45-1.65-.75-.7-1.7-.3-.9.45-.9 1.4m17.9 9.95.05-.8.3-.5q.3-.4.9-.5l1.05.2.7.85q.15.55-.1 1.05l-.7.8-1.1.05q-.85-.2-1.1-1.15m6.7 1.2q-.75-.2-1.05-.9-.3-.75.05-1.35.5-.9 1.5-.8.95.15 1.25 1 .45.85-.25 1.55-.65.7-1.5.5"/><path fill="#fff" d="M66.95 25.25 65.9 25l-.65-.85q-.2-.5 0-1.05.15-.55.65-.85 1.05-.7 2 .15.45.35.55.95l-.15 1.05q-.45.85-1.35.85M41.6 12.7q.25-.6 1.05-1.05l1.8-.25q1 .2 1.6.95t.55 1.8q-.15 1.05-.8 1.7-.65.7-1.65.75-1.05.1-1.8-.5-.75-.55-1-1.5-.2-1.05.25-1.9m-3.55 4.75q.7.5 1.3-.25.4-.75.65-.85.3-.2.7 0 .35.1.4.5.15.35-.1.8l-1.3 1.15-1.7.15-.85-.15-.85.05-2.1-.25q-.4-.3-.65-.8-.25-.55-.05-.95l.35-.5q.3-.2.5 0l.35.5.85.55.95-.25.45-.4q.45-.05 1.1.7M61.4 22.8q.05.55-.3 1l-.9.6-1.05-.2q-.5-.3-.7-.8l-.1-.05q-.3-.9.45-1.65.7-.7 1.7-.3.9.45.9 1.4M28.45 13q.8-1 2.05-.85 1.25.1 1.9 1.15.4.75.25 1.7-.2.9-.85 1.45-.7.5-1.65.45-.9-.05-1.55-.7-.6-.6-.65-1.55-.05-1 .5-1.65M8.1 25.25q-.95 0-1.35-.85-.25-.45-.2-1.05.15-.6.55-.95 1-.85 2-.15l.7.85q.2.55 0 1.05l-.7.85zm5.55-2.45q0-.95.9-1.4.95-.4 1.7.3.75.75.45 1.65l-.15.05-.65.8-1.05.2-.9-.6q-.4-.45-.3-1m21.8 3.15 3.05.25q2.2.75 2.95 2.95.8 2.1-.6 4.15l-1 1.1.3.75q.1.65-.2 1.1l-.85.7-1.15-.05-.25-.15-.65.85-1.9.15-.8-.95-.6.3-1.25-.05q-.6-.25-.9-.8-.3-.6-.2-1.2l.2-.45-1.15-1.25-.35-.85-.15-.9q.15-1.9.55-2.7l.7-1 .85-.9q.95-.8 3.4-1.05m2.8 8q.85.2 1.5-.5.7-.7.25-1.55-.3-.85-1.25-1-1-.1-1.5.8-.35.6-.05 1.35.3.7 1.05.9m-6.7-1.2q.25.95 1.1 1.15l1.1-.05.7-.8q.25-.5.1-1.05l-.7-.85-1.05-.2q-.6.1-.9.5l-.3.5z"/></g></svg>