<svg xmlns="http://www.w3.org/2000/svg" xmlns:ffdec="https://www.free-decompiler.com/flash" ffdec:objectType="shape" width="69.5" height="38.75"><g fill-rule="evenodd"><path fill="#999" d="M51.7 4.9q1.05.3 1.05 1.05l-.3.65q-.6.65-2.05.55-1.55 0-2.1.5l-.25.1q-.2-.1-.1-.35.25-1.35 1.3-2.05 1.1-.8 2.45-.45m-8.65-2.75-.9.65q-1.1.7-1.35 1.95l-.15.3-.35-.3q-.4-.8-.45-1.35-.05-.65.35-1.75.35-1.05 1-1.45l.95-.2q.5.05.85.4t.35.9zM30.8 4.45l-.15-.25q-.35-.75-.9-1-1.35-.45-1.8-.95-.3-.35-.3-.8 0-.5.3-.85.35-.4.9-.45.6-.05 1 .25l.8 1q1 1.65.75 2.6l-.2.4zM20.7 8.1l-.7-.15-.6.25q-.5.2-1 0l-.75-.6q-.25-.4-.2-.95 0-.55.35-.9.55-.8 1.65-.7.9 0 1.75.7l.65.8.25 1.4-.05.35q-.2.3-.45.1l-.3-.35zm10.25 9.25q0 1.3-1.1 2.4-.6.65-1.35.95l-1.85.2q-1.15-.25-1.6-1.2-.2-.45-.05-1 .1-.55.55-.8l.75-.2.8-.25q-.5-.45-.6-1.15-.1-.75.25-1.3t1.05-.75q.65-.25 1.3 0l.3.15v-.05l.05-.45q.15-.85 1.05-1.1l1.55.25q.9.45 1.05 1.25.2.95-1 2.05l-1.15.65z"/><path fill="#fff" d="M65.95 18q.65.55.8 1.4.15.9-.25 1.65-.45.7-1.3 1t-1.65 0q-.6-.2-1.1-.8-.55-.55-.7-1.3-.15-.95.55-1.75.65-.7 1.65-.8 1.25-.1 2 .6m-8.75 3.3-1.4.8-1.6-.2q-.75-.4-1.15-1.15-.4-.85-.2-1.65.2-.75.6-1.15.75-.75 2.2-.65.65 0 1.3.4l.7.9q.3.7.15 1.5-.1.7-.6 1.2M42.3 35.4l.4.05.25.1.1.1h.1l.25-.05.4.05.2.1.15.1.1.15.1.1.05.1.05.1.05.1.05.1v.6l-.05.1-.05.1-.05.1-.05.15-.1.1-.1.1-.15.1-.2.1-.4.05-.35-.05-.15.15-.2.05-.1.05H42l-.1-.05-1.05-.05H38.8l-.95-.05L35.3 38l-8.7-.05h-.55l-.25-.05-.1-.05h-.3l-.45-.05-.25-.05h-.3l-.25-.05-.25-.05-.15-.1-.1-.15-.1-.1-.15-.1-.1-.1-.05-.1-.1-.1v-.4l.05-.1.05-.1.1-.1.1-.1.15-.1h.05l.2-.05.05-.05h.25l.25-.05h.3l.25-.05.45-.05h.3l.1-.05.25-.05h.55l8.7-.05 2.55-.05h.95l2.05-.05 1.05-.05h.4zM3.55 18q.75-.7 2-.6 1 .1 1.65.8.7.8.55 1.75-.15.75-.7 1.3l-1.1.8q-.8.3-1.65 0t-1.3-1q-.4-.75-.25-1.65.15-.85.8-1.4m8.75 3.3q-.5-.5-.6-1.2-.15-.8.15-1.5.25-.6.7-.9.65-.4 1.3-.4 1.45-.1 2.2.65.4.4.6 1.15.2.8-.2 1.65L15.3 21.9l-1.6.2z"/><path d="M63 28q-.9-.2-1.6-.8v.1q-.1.6-1 1.4l-.85.6-1.15-.05q-.55-.2-.9-.7l-.5-1.1-1.65.2-1.15-.3-.7-.65q-.4-.7-.4-1.5 0-.9.5-1.55l.25-.3q-1.2-.5-1.75-.95-2.25-1.7-2.55-5.8-.1-1.25.15-2.05.1-.6.7-1.6 1.35-2 3.8-3.15 2.25-1.05 4.9-1.15l2.15.1q2.15.35 3.95 1.6t2.9 3.15q.85 1.55 1.25 3.6.35 1.95-.05 3.3-.35 1.05-1.25 2.15l-1.8 1.6q.4.7.3 1.55t-.65 1.4q-.5.6-1.35.85zm2.95-10q-.75-.7-2-.6-1 .1-1.65.8-.7.8-.55 1.75.15.75.7 1.3.5.6 1.1.8.8.3 1.65 0t1.3-1q.4-.75.25-1.65-.15-.85-.8-1.4m-8.75 3.3q.5-.5.6-1.2.15-.8-.15-1.5l-.7-.9q-.65-.4-1.3-.4-1.45-.1-2.2.65-.4.4-.6 1.15-.2.8.2 1.65.4.75 1.15 1.15l1.6.2zM6.5 28l-1.55-.05q-.85-.25-1.35-.85-.55-.55-.65-1.4t.3-1.55q-.9-.5-1.8-1.6T.2 20.4q-.4-1.35-.05-3.3.4-2.05 1.25-3.6 1.1-1.9 2.9-3.15t3.95-1.6l2.15-.1q2.65.1 4.9 1.15 2.45 1.15 3.8 3.15l.7 1.6q.25.8.15 2.05-.3 4.1-2.55 5.8-.55.45-1.75.95l.25.3q.5.65.5 1.55 0 .8-.4 1.5l-.7.65-1.15.3-1.65-.2-.5 1.1q-.35.5-.9.7l-1.15.05-.85-.6q-.9-.8-1-1.4v-.1q-.7.6-1.6.8m5.8-6.7 1.4.8 1.6-.2 1.15-1.15q.4-.85.2-1.65-.2-.75-.6-1.15-.75-.75-2.2-.65-.65 0-1.3.4-.45.3-.7.9-.3.7-.15 1.5.1.7.6 1.2M3.55 18q-.65.55-.8 1.4-.15.9.25 1.65.45.7 1.3 1t1.65 0l1.1-.8q.55-.55.7-1.3.15-.95-.55-1.75-.65-.7-1.65-.8-1.25-.1-2 .6M20.45 29.1q.35-5.35 1.3-8.55 1-3.55 3-6.05-.9-.9-.8-3.3.3-3.5 1.35-4.95Q26.2 5 27.4 5q.65-.05 1.15.45t.4 1.1l-.35.75-.5.75-.4 1.2q-.2 1.1.1 2.35l.05.15Q29.3 10.8 31 10.3l1.15-.3q.15-1.45.85-2.9.95-1.9 2.55-3.1.75-.6 1.45-.65l.75.15.5.6q.25.75-.85 1.8-1.6 1.6-1.6 3.2l.1.7.75.1q1.35.2 2.65.75.25-1.05.75-1.95 1.15-1.95 3.2-2.65l2.45.1q1 .55.7 1.25-.15.35-.9.65-1.1.5-1.8 1.5-.65 1.05-.75 2.2v1.1q1.65 1.45 2.75 3.4 1.2 2.15 1.7 5.1.35 2.05.5 5.45l.05 11.95H44.1q.2-7.95-.25-13.45-.5-5.5-2.9-8.2-2.45-2.7-5.15-2.9l-1.95-.15-.1-.05q-2.35.25-4.3 1.85-2.55 2.1-3.7 6.4-.95 3.3-1.25 9.55l-.15 6.95H20.1q0-4.75.35-9.65m17.75-7.6-.2-.95.15-.8q.2-.65.9-1l1.9-.1q.9.4 1.25 1.4.2.8-.2 1.55-.4.8-1.15 1.05l-1.55-.1q-.8-.35-1.1-1.05m-1.1 1.35q1.4 1 1.7 2.65.3 1.2 0 2.35-.15.9-.7 1.45-.9.9-2.7.9-2.35.1-3.95-.95-.85-.6-1.35-1.5-.55-1-.45-1.95.15-1.25 1.2-2.3.85-.85 2.05-1.25l2.2-.2q1.15.15 2 .8m-8.4.5q-1.1-.15-1.55-1.35-.35-1.15.35-2 .6-.8 1.5-.7l.15-.05q1.25 0 1.85 1.2.55 1.2-.25 2.15-.8 1.1-2.05.75m4.1-5.6.2-1q.35-.7 1.1-1.05l1.5-.15q.75.2 1.25.85.5.6.45 1.4 0 .75-.5 1.4l-1.3.75-1.5-.2q-.75-.4-1.05-1.1z"/></g></svg>