<svg xmlns="http://www.w3.org/2000/svg" xmlns:ffdec="https://www.free-decompiler.com/flash" ffdec:objectType="shape" width="75.85" height="42.15"><g fill-rule="evenodd"><path fill="#999" d="m22.6 6.9.3-1-.1-1q-.25-2.6-.2-3.9l.15-1H53.1l.15 1-.2 3.9-.15 1 .35 1q.7 2.4.35 4.95-.35 2.5-1.75 4.6-1.6 2.4-4.35 3.9l-1.55.7H46q.85.75 2.8 2.1 4 2.65 6.65 3.85 3.8 1.8 7.25 1.85.75-2.1 2.45-3.55 1.8-1.55 3.9-1.6 1.7 0 3.4 1.05 2.65 1.7 3.25 4.65.65 3.05-1.4 5.4-1.65 1.8-4.2 2.35-2.2.5-4.95.05l-4-.75q-5.75-1.5-9.4-4L50.1 31.2q1.55 4.7 2.65 10.95H23.1q1.1-6.25 2.65-10.95l-1.65 1.25q-3.65 2.5-9.45 4l-3.95.75q-2.8.45-4.95-.05-2.6-.55-4.25-2.35-2-2.35-1.35-5.4.55-2.95 3.25-4.65 1.7-1.05 3.4-1.05 2.1.05 3.9 1.6 1.7 1.45 2.45 3.55 3.4-.05 7.25-1.85 2.65-1.2 6.65-3.85l2.8-2.1h.05l-1.55-.7q-2.75-1.5-4.35-3.9-1.4-2.1-1.75-4.6-.35-2.55.35-4.95"/><path d="m26.1 11.15.25-.75-.1-.75-.15-3L26.3 5l.25-1.05q.3-.75 1.15-1l1.55.05 2.65.6.65.2q2.05-.85 4.3-.95V2.8h2v.05q2.3.15 4.3.95l.65-.2 2.65-.6L48 2.95q.85.25 1.15 1L49.4 5l.2 1.65-.15 3-.1.75.25.75q.55 1.85.3 3.8-.3 1.95-1.35 3.55-1.25 1.85-3.35 3l-1.2.55h.05l2.15 1.6q3.1 2.05 5.1 2.95 2.95 1.4 5.55 1.45.6-1.65 1.9-2.75 1.4-1.2 3-1.25 1.3 0 2.6.85 2.05 1.3 2.5 3.55.5 2.35-1.05 4.15-1.25 1.4-3.25 1.8-1.65.4-3.8.05l-3.05-.6q-4.45-1.15-7.25-3.05l-1.25-.95q1.2 3.6 2.05 8.45.35 2.25-.05 3.35H26.55q-.45-1.1-.1-3.35.85-4.85 2.05-8.45l-1.25.95q-2.8 1.9-7.25 3.05l-3.05.6q-2.15.35-3.8-.05-2-.4-3.25-1.8-1.55-1.8-1.05-4.15.45-2.25 2.5-3.55 1.3-.85 2.6-.85 1.6.05 3 1.25 1.3 1.1 1.9 2.75 2.6-.05 5.55-1.45l5.1-2.95 2.15-1.6h.05l-1.2-.55q-2.1-1.15-3.35-3-1.05-1.6-1.35-3.55-.25-1.95.3-3.8m2.25 3.2-.25 1.3q-.05.9.5 1.75.5.85 1.35 1.3l.85.3.95.05q1.45 0 2.25-.5l.75-.65q1.15-1.3 1.1-2.85l-.65-.15q-2.1-.5-3.35-1.7-.7-.6-.9-1.3l-.05-.2q-.95.2-1.65 1-.55.65-.9 1.65M40.3 24.6q-1.25-.7-3.65-.3l-1.65.4q-2.2.8-3.3 3.2-.9 1.9-1 4.6 0 1.75.4 2.7.45 1.05 2 2.4l1.55 1.05q1.15.6 3 .75l3.25-.45q1.75-.7 2.4-2.15l.5-1.6q.4-1.6-.05-2.4l-.3.8-.45.8-.2.35-.9 1.05-1.4 1-2.1.15q-1.45-.05-2.6-.9l-.85-.75-1-1.55.05-1.1q.2-1.95.65-3.1.4-.95.95-1.4.3-.25 1.35-.55 1.25-.3 1.85 0l.75.7q.7 1.2.4 2.55-.2.85-.75 1.1l-.65-.05q-.35-.2-.3-.55l.25-.5.45-1.2q-.05-.45-.45-.8-.45-.3-.95-.25-.9.05-1.6 1.05t-.65 2.25q.05 1.3.85 2.2 1.1 1.25 2.8 1.15t2.75-1.3l.75-1.1q.95-1.7.65-3.8-.25-2.1-1.6-3.55-.65-.65-1.2-.9m-.1-5.8-.75-.35v-.15l-.25-.75-.15-.6-.35-.45h-.35l-.25.3-.05.3-.35.7-.1.35v.15l-.7.25-.2.05-.45.3-.2.2-.3.15-.25.25v.1l-.1.15-.1.2v.15l.15.1.15.05.2-.15h.25l.7-.25h.3l.3-.05 1-.35.15-.05.3.1.75.2.2.1H40l.7.25.35.05.2-.25h.05l-.05-.3-.2-.15-.4-.2-.1-.15-.2-.05zm6.75-6.15q-.8-.55-1.7-.7-.25.85-1.6 1.65-1.5 1-2.95 1.35-.2.85.05 1.7l.4.8 1.1.9q1.35.75 2.7.7 1.25 0 2.2-.85 1-.75 1.3-2l.05-.65q.1-1.7-1.55-2.9"/><path fill="#fff" d="M46.95 12.65q1.65 1.2 1.55 2.9l-.05.65q-.3 1.25-1.3 2-.95.85-2.2.85-1.35.05-2.7-.7l-1.1-.9-.4-.8q-.25-.85-.05-1.7 1.45-.35 2.95-1.35 1.35-.8 1.6-1.65.9.15 1.7.7M40.2 18.8l.15.2.2.05.1.15.4.2.2.15.05.3h-.05l-.2.25-.35-.05-.7-.25h-.25l-.2-.1-.75-.2-.3-.1-.15.05-1 .35-.3.05h-.3l-.7.25h-.25l-.2.15-.15-.05-.15-.1v-.15l.1-.2.1-.15v-.1l.25-.25.3-.15.2-.2.45-.3.2-.05.7-.25v-.15l.1-.35.35-.7.05-.3.25-.3h.35l.35.45.15.6.25.75v.15zm.1 5.8q.55.25 1.2.9 1.35 1.45 1.6 3.55.3 2.1-.65 3.8l-.75 1.1q-1.05 1.2-2.75 1.3t-2.8-1.15q-.8-.9-.85-2.2-.05-1.25.65-2.25t1.6-1.05q.5-.05.95.25.4.35.45.8l-.45 1.2-.25.5q-.05.35.3.55l.65.05q.55-.25.75-1.1.3-1.35-.4-2.55l-.75-.7q-.6-.3-1.85 0-1.05.3-1.35.55-.55.45-.95 1.4-.45 1.15-.65 3.1l-.05 1.1 1 1.55.85.75q1.15.85 2.6.9l2.1-.15 1.4-1 .9-1.05.2-.35.45-.8.3-.8q.45.8.05 2.4l-.5 1.6q-.65 1.45-2.4 2.15l-3.25.45q-1.85-.15-3-.75L33.1 37.6q-1.55-1.35-2-2.4-.4-.95-.4-2.7.1-2.7 1-4.6 1.1-2.4 3.3-3.2l1.65-.4q2.4-.4 3.65.3M28.35 14.35q.35-1 .9-1.65.7-.8 1.65-1l.05.2q.2.7.9 1.3 1.25 1.2 3.35 1.7l.65.15q.05 1.55-1.1 2.85l-.75.65q-.8.5-2.25.5L30.8 19l-.85-.3q-.85-.45-1.35-1.3-.55-.85-.5-1.75z"/></g></svg>