<svg xmlns="http://www.w3.org/2000/svg" xmlns:ffdec="https://www.free-decompiler.com/flash" ffdec:objectType="shape" width="75.6" height="41.4"><g fill-rule="evenodd"><path d="M25.4 37.9q3 1.25 5.2 1.7l5.4.6q10.6.4 15.85-3.9 3.4-2.8 4.85-7.5 1.3-4.35.7-9.2-.35-2.6-1-4.1l-.25-.6 3.6-9.05.2-.8q.2-1.15-.4-1.8Q59 2.6 57.8 2.8l-1.75.7-.55.25-1.65.6-1.45.5-2.5 1-1.05.5Q47.2 5.1 45.6 4.4l-1.8-.65Q41.15 2.95 38 3l-2.8.2q-4.65.6-8.3 2.9l-1.25-.65-2.7-1.4-1.65-.75-2.15-.75-1.2-.1-.45.15-.35.25-.4.5-.2 1.2.35 2.35.25.95L18 11l.25.5.4 1.6.5 1.1v.1l.05.1.15.55q-2.15 4.8-2.15 10.2 0 6.2 2.9 9.35 1.6 1.8 5.3 3.4M0 0h75.6v41.35H0z"/><path fill="#999" d="M25.4 37.9q-3.7-1.6-5.3-3.4-2.9-3.15-2.9-9.35 0-5.4 2.15-10.2l-.15-.55-.05-.1v-.1l-.5-1.1-.4-1.6L18 11l-.85-3.15-.25-.95-.35-2.35.2-1.2.4-.5.35-.25.45-.15 1.2.1 2.15.75 1.65.75 2.7 1.4 1.25.65q3.65-2.3 8.3-2.9L38 3q3.15-.05 5.8.75l1.8.65q1.6.7 3.25 1.95l1.05-.5 2.5-1 1.45-.5 1.65-.6.55-.25 1.75-.7q1.2-.2 1.75.45.6.65.4 1.8l-.2.8-3.6 9.05.25.6q.65 1.5 1 4.1.6 4.85-.7 9.2-1.45 4.7-4.85 7.5Q46.6 40.6 36 40.2l-5.4-.6q-2.2-.45-5.2-1.7"/><path fill="#fff" d="M46.4 6.15q.1-.55.55-.9.45-.4 1-.45l1 .3.7.8q.2.5.05 1.1l-.6.9-1 .3q-.6.05-1.05-.3-.9-.65-.65-1.75M51.25 20v-.15q.2-.6.7-.95l1.2-.3q.65.05 1.1.5.65.65.55 1.5-.05.6-.5 1.1t-1.05.55l-1.2-.25q-.55-.35-.8-.9l-.1-.4zm-11.8-5.55.75-.7 1.2-.15q.7.2 1.05.7.4.5.3 1.2-.05.7-.5 1.1-.45.45-1.15.5l-1.15-.35q-.5-.4-.65-1.05-.15-.7.15-1.25m17.75 16.2q.45.6.2 1.5l-.35.6q-.45.5-1.15.55-.65.1-1.2-.3-.5-.4-.65-1.1t.2-1.25q.5-.8 1.45-.8 1 0 1.5.8m-7.95-2.6q-.05-.4.2-.75.25-.4.65-.5.6-.2 1.2.2.8.65.4 1.55-.45.95-1.45.7-1-.2-1-1.2M38.65 39.3q.1-.55.6-.95.45-.4 1-.45l1.05.3.7.9q.2.55 0 1.1l-.65.9-.95.3-1-.3q-1-.6-.75-1.8M33.9 4.85q1.1.15 1.35 1.2.25.9-.3 1.5-.55.7-1.4.6-.95 0-1.4-.95-.4-.9.15-1.7.55-.75 1.6-.65m-14-1.15q.15-1 1.2-1.25 1-.25 1.65.6l.3 1q0 .55-.35.95-.8.95-1.9.45l-.75-.7q-.25-.55-.15-1.05m4.95 11.95q-.85-.5-.5-1.5.3-.6.95-.7h.15q.85 0 1.1.75.35.75-.35 1.35zm-4.65 3.6q.55.4.75 1.1.2.75-.15 1.35-.6 1.1-1.85.95-.55-.05-1-.45-.5-.4-.6-.95-.15-.55.05-1.1t.7-.9q1.1-.75 2.1 0m1.3 15.65q-.2.4-.75.55l-.95.05-.8-.6q-.3-.45-.25-1.05.1-.6.5-.95t1-.4q.6 0 1 .35.45.35.5 1 .1.6-.25 1.05m7.3-1.8q.6.1 1 .55.35.4.35 1.05 0 1.2-1.05 1.55-1.1.4-1.85-.5-.7-.9-.15-1.85t1.7-.8"/><path d="m51.15 20.7-.15.45-1.1 1.15-1.6.2q-.85-.15-1.4-.75-.5-.55-.6-1.35-.05-.8.3-1.45t1.05-1 1.45-.25q.7.1 1.3.6.55.55.75 1.25l.1.45zM32.5 31.95q-.75-.4-1.1-1.3-.15-.45-.15-1.35 0-.75.15-1.35l.9-1.5.9-1.05q1.3-1.05 3.15-1.4l.1-1 .05-1q.15-.55.7-.85l1.1-.15q.6.2 1.05 1l.35 1.4.05.6.45.1q2 .55 3.05 2.2 1.15 1.9.3 3.7l-.5.85-.45.5-.7-.05q-.35-.15-.4-.5l.05-.8q.1-.75-.3-1.45-.6-1.05-1.9-1.45l-2.45.05q-1.35.35-2.15 1.35-.3.5-.25.85l.45.75q.2.45.05.95l-.55.8zm-6.7-9.1q-1.4-.3-1.8-1.75-.35-.85.05-1.65.45-1 1.65-1.45l2.25.1q.6.35.9 1 .35.7.25 1.5-.05.8-.55 1.4l-1.25.85q-.8.25-1.5 0"/></g></svg>