<svg xmlns="http://www.w3.org/2000/svg" xmlns:ffdec="https://www.free-decompiler.com/flash" ffdec:objectType="shape" width="77" height="42.75"><g fill-rule="evenodd"><path d="M25.35 39.5q-3.7-1.6-5.3-3.4-2.9-3.15-2.9-9.35 0-5.4 2.15-10.2l-.15-.55-.05-.1v-.1l-.5-1.1-.4-1.6-.25-.5-.85-3.15-.25-.95-.35-2.35.2-1.2.4-.5.35-.25.45-.15 1.2.1 2.15.75 1.65.75 2.7 1.4 1.25.65q3.65-2.3 8.3-2.9l2.8-.2q3.15-.05 5.8.75l1.8.65q1.6.7 3.25 1.95l1.05-.5 2.5-1 1.45-.5 1.65-.6.55-.25 1.75-.7q1.2-.2 1.75.45.6.65.4 1.8l-.2.8-3.6 9.05.25.6q.65 1.5 1 4.1.6 4.85-.7 9.2-1.45 4.7-4.85 7.5-5.25 4.3-15.85 3.9l-5.4-.6q-2.2-.45-5.2-1.7"/><path fill="#fff" d="M50.65 13.75q1.4.3 2.45 1.35 1.05 1 1.55 2.4.85 2.35.25 5.65l-.75 2.25q-1.3 2.4-4.7 3.3l-4.35.1-2-1.15q-2.7-1.95-3.35-4.45-.75-2.7.8-5.25 1.35-2.3 4-3.6 1.05-.55 1.85-.65l2.2-.1zm-5.2 8.95q.4.65 1.2.95l1.5.1q.7-.2 1.25-.8.55-.65.6-1.4.1-.75-.35-1.45-.4-.7-1.1-1.05l-1.5-.15-1.35.7q-.55.6-.65 1.5t.4 1.6M42.6 37.5q-.2.65-.9 1l-1.3.15-.75-.3-.8-.1-1.6-.85q-.65 1.1-1.7 1.6l-2.35.15q-1.55-.6-1.9-2.6-.2-1.45.4-3.3.65-1.95 1.6-2.95.5-.5 1-.75.8-.55 1.6-.7-.25-1.15 0-1.65.3-.65 1.1-.85.7-.1 1.3.5l.25.45-.05 1.55.45.15 1.2.65 1.2 1.1q.85 1 1.2 2.7l.2 2.95zM24.65 21.05q.2-.45.7-.8.65-.45 1.45-.4.85.05 1.45.55t.8 1.3q.15.8-.15 1.5l-1.05 1.1q-.75.4-1.55.25-.75-.1-1.3-.75-.55-.6-.65-1.35-.1-.8.3-1.4m2.4-3q-1.6-.1-2.7.6-1.35.8-1.7 2.45-.4 1.2.1 2.5t1.55 1.9q.95.6 2.15.55 1.15 0 2.1-.6 1.65-1 2.05-2.85.35-1.95-.9-3.35-.75-.85-1.7-1.05zm-7.6 6.5q-.35-2.2.05-3.65.5-1.9 2.3-3.75l1.75-1.55q1.4-.95 3.1-1.2l3.35.15q3.4.95 4.95 4.2.55 1.25.6 2.15.3 2.75-1.9 5.3-1.55 1.8-4.7 3.25-1.7.7-2.65.75-1.35.05-3.15-.75l-2-1.25q-1.25-1.1-1.7-3.65"/><path d="M45.45 22.7q-.5-.7-.4-1.6t.65-1.5l1.35-.7 1.5.15q.7.35 1.1 1.05.45.7.35 1.45-.05.75-.6 1.4-.55.6-1.25.8l-1.5-.1q-.8-.3-1.2-.95m-20.8-1.65q-.4.6-.3 1.4.1.75.65 1.35.55.65 1.3.75.8.15 1.55-.25l1.05-1.1q.3-.7.15-1.5-.2-.8-.8-1.3t-1.45-.55q-.8-.05-1.45.4-.5.35-.7.8m2.4-3 .95.15q.95.2 1.7 1.05 1.25 1.4.9 3.35-.4 1.85-2.05 2.85-.95.6-2.1.6-1.2.05-2.15-.55-1.05-.6-1.55-1.9t-.1-2.5q.35-1.65 1.7-2.45 1.1-.7 2.7-.6"/><path fill="#717171" d="M6.6.6q2-.9 3.55-.45 1.25.25 1.55 1.2.2.6-.1 1.25l-1-.25q-1.65-.25-3.45.5-2.5 1.15-3 3.25L4 7.15v.65Q2.35 8.9 1.8 11q-.25 1-.15 2.6l.1.95q.2 1.1.95 1.9l-.3 1.05q-.9 2.5-.95 4.35-.1 2.5 1.05 4.2l.75 1.05.45 1h-.05l-.85.4q-1.15.9-1.65 2.05-.4.95-.6 2.65l.05 1.55q.2 1.15.95 2.5l.5.75q.9 1.25 2.95 1.85l1.55.25L7.6 40l.05.1q.7.8 1.75 1l2 .05.75-.1.65-.2 1.75-1 .2-.15 1.4 1.2.7.4.95.4 2.15.45L21 42.1l.05.3v.35H4.2l-1.75-.65-.25-.15-.95.3-.7-.15q-.7-.35-.45-1.1l.2-.45-.3-.3V7.75l.3-.7L0 6.7V2.25l.2-.35Q.9.95 2.05.95q1.3 0 1.8 1.1l.1.25.05.05Q5.1 1.25 6.6.6m36.3.45h.05q-.25.6-.15 1.3l.05.2-.6-.35q-.4-.4-.15-.8zm7.85-.4 3.65-.4q1.65.2 2.7 1.05l-.75-.05-2.5.2-1.55.75-1.05.65L50.3 2l-1.25-.75-.15-.05zm9.1.5 2.4-.35q1.35.1 2.2.85l.45.3.5-.05q2.7-1 4.75-.6l1.65.6q.2.1.45.25l.1-.15 1-.6 1.1.15.85.85q.5.85.45 1.65l-.2.85q.7 1.15.85 3 .15 3.7-1.95 6.35 1.6 2.5 1.05 5.35l-.1 1.4.45 1.15q1.95 3.85.55 7.95L75 32.8l-.4.55.6.7q.5.7.65 1.65.35 1.85-.35 3.75-.7 1.8-2.1 3.1l-.25.2h-8.9l-1.2-.55-.5-.15-.65.25-.85.45h-6.2q1.2-.5 2.1-1.3L58 40.5l.75-.8 1.35-.6 1.05.8q1.4.85 3.7 1.1l1.65.1q1.9 0 3.35-.95 1.55-1.15 1.85-2.9.15-1.1-.55-3.3l-.3-.9.25-.15q1.85-1.05 2.55-3.15l.5-2.65q.15-2.35-1.35-4.2l-.75-.75.15-.4q.6-1.55-.15-4.05l-1-2.2-.7-.75.65-.5q1.95-1.7 2.25-4.35l-.05-1.15-.3-1.05-.8-1.45q-.9-1.25-2.6-1.7l-.05-.05q-2.8-1.4-5.25-.7-.95.25-1.6.65v.05l-.25-.25-.85-1.3q-.9-1-2.3-1.35zm6.8 5.25.75.35.75.5q.7.7.75 1.25v.4l.1.45q.05.65-.65 1.65l-.35.45-.65.5-.55.25-.5.05-1.05-.05-.5-.15-.45-.25-1.1-.95q-.55-.75-.55-1.35v-.6l.1-.45.5-.9.55-.6.5-.45.65-.2L66 6.25zm-2.4 2.65.15.45.15.35.4.2.9.25.9-.2.35-.4.35-.95q-.1-.55-.75-.75l-1.1-.1-.55-.05-.3.2-.35.45q-.15.25-.15.55M62 15.35q.8-1.3 1.6-1.55.65-.25 1.55 0 1.1.25 1.6.95.35.6.25 1.5-.25 1.9-1.75 3.1l-.2.25v.2l1.25 4.4.4 1.55q.85.1 1.6.9.75.75.8 1.65l-.05.65-.15.6-.25.4-.45.55-.25.45-.45.35-.35.35q-.45.4-1.4.3l-.9-.15-1.1-.75-.25-.5-.45.15-1.05.35q-.6 0-1.1-.45-.45-.5-.5-1.1l-.1-1.2.05-.7q.45-1.6 1.7-2.05l-.7-1.8q-.8-1.6-.9-2.55v-.3l-.4-.1q-.5-.15-.85-.45-.55-.5-.55-1.35 0-.7.35-1.5.4-1.1 1-1.45l1.6-.1.05.05zm1.2 1.35-.3.8-.25.25-.5.1-.2-.15-.25-.15-.1-.1q-.8-.45-1.4.25-.55.55-.3 1.4l1.3-.1h.05l.45-.05q.55.1.8.65l.15.7q.1 1.1.65 2.6l.9 2.55q.3 1-.25 1.45l-.45.25-.55.2q-.5.35-.7 1.5l.05.25.25.05.9-.45.45-.15.1-.05q.4-.15.7.25l.1.2.2.1 1.1.3.6-.85.1-.3-.3-.35-.45-.2q-.5-.2-.6-.6L65.4 27l-.45-.9q-.95-2.8-1.65-5.8l-.2-.55-.3-.7q-.15-.5.2-.95l.75-.5q1-.55 1.25-1.75v-.3l-.25-.25q-.55-.25-1.1.3-.25.3-.45 1.1m.15 19.8.4.55q.15.4-.1.65l-.8.15-1.85-.7-.5.4-1 .55-.65.05-.4-.15-.3-.3.15-.55.35-.5.75-.55.1-.1-.1-.05-.5-.45q-.3-.4-.15-.9l.7-.5q.35 0 .85.3l.65.4 1.05-1 .3-.4q.4-.4 1.05-.4l.65.25.35.6-.05.7-.4.5-.35.3-.75.4-.15.15zM7.05 12.45l1.8-1.05-.35-1.7v-.2q-.15-1.1.15-2.25l.15-.3.2-.3q.45-.5 1.2-.6t1.3.45l.3.35.25.5.1 1.6v1.4l.05.3.15.35.15 1.15.4 1.4.3 1.2 1.55 8.65v1q-.25.7-.95.8-.7.05-1.7-.85l-2-1.85-1.2-1.2-.7-.9Q6.3 17.75 6 14.35q-.1-.55.05-.95zm5.2 5.45-1.6-4.55q-.45.25-.95.45l-.65.4-.6.5q.35 1.5.95 2.3l.45.65.35.65.85 1.15 2 2.1zM7.5 21.8q.3.35.1.8l-.45.65-.4.4.45.75.35.55v.6l-1.05.1-.95-1-.4.25-.8.3-.7-.5q-.2-.45.05-.85l.45-.5.4-.35-.05-.05-.75-.95q-.15-.75.55-1.1.65-.3 1.1.35l.3.55.15.25.5-.3zm2.45 10.15.25-.1h.75l.55.1h.45l.75.45q.25.4.1.85l-.35.55-1.2 4-.2.35-.15.2-.4.65-1.55.1-1.45-.75q-2.05-.65-2.85-1.3l-1.35-1.1q-.5-.65-.1-1.3l1.05-1.45 1.05-1.5L7 29.4l.55-.6q.5-.3.95-.25l.75.6.05.6-.05 2.4zm-.1 4.35.5-1.5.15-.75-1.25.4-.5.1H8.7l-.1.75-.2.6 1.45.8zM5.7 34.85l1.6.6-.1-.45-.05-1.85v-.35z"/></g></svg>