<svg xmlns="http://www.w3.org/2000/svg" xmlns:ffdec="https://www.free-decompiler.com/flash" ffdec:objectType="shape" width="75.9" height="41.7"><g fill-rule="evenodd"><path fill="#999" d="M21.05 1q-.25-.5-.2-1h5.25l1.75 1.7Q33.05 6.9 41 16.25q1.8 2 2.4 3.35.25.5-.1.65-.2.1-.5-.2L29.95 8.95l-7.2-6.2Q21.35 1.7 21.05 1m45.8 6.35-.45.5-.7.05q-.45-.25-.25-.8l.45-.75.8-1.45.25-.55q.3-.5 1-.4.6 0 1 .5l.25.15.15-.05L71.9 1.9l.95-.8Q73.5.75 74 .8q.75.1 1.05.7.4.55.15 1.2l-.95 1.15-3.2 2.7-.95.95-1.1.05-.9-.7-.6-.6zm6.1 3.65 1.5-.05q1.1.15 1.35 1.25.35 1-.45 1.8-.45.45-1.2.6l-1.35.15-2.7.15-.8-.15q-.6-.2-1.25-1.45l-.4-.95-.65.35-.65.45q-.5.1-.7-.2-.2-.25.1-.75.2-.2.65-.45l.95-.75.75-.65q.6-.15 1.1.35l.65 1 .2.2.25-.05q.75-.45 2.65-.85M59.2 13.3l.1-.7v-1.9q-1.4-.5-1.9-1-.7-.65-.9-1.6t.2-1.8T57.9 5q.85-.5 1.8-.4l1.55.5q1 .4 1.65 1l.95 1.15.75 1.3q.35 1 .15 3.1l-.45 1.95q-.55 1.5-1.85 2.4-.85.6-1.7.65-1 .1-1.7-.55-.8-.8-.45-1.7zm-46-10.2q-.35-.85.25-1.5.6-.75 1.8-.45.7.15 1.7.95l22.6 16.3 2.1 1.65q.4.3.25.55l-.65.1-1.85-.85q-6-2.8-12.8-7.1-4-2.55-9.75-6.6l-.05.45-.9.15L8.65 5l-6.3-2.45-1.8-1.2Q.1.7.15 0H6.7l3.95 2.05L13.6 3.7zm-1.1 38.3q-.5-.9.2-1.9.4-.5 1.55-1.3L20 34.5l3.6-2 9.05-4.45 5.15-2.75q3.05-1.5 5.45-2.05.35-.1.45.15l-.2.25q-3.9 2.7-13.95 8.5-9 5.2-13.7 8.75l-1.15.8h-2.3zm17.2-.6q.15-.7 1.15-1.7l8.1-8.55 1.75-1.8 2.25-2.85 2.4-2.75.6-.35q.45-.1.6.25l-.2.65L42 29.95l-3.9 6.1q-2.3 3.3-4.5 5.65h-4.3zm5.85-19.95q-.05.45-.7.45l-6.9-.45-3.7-1q.15.55-.15.95-.25.4-1.15.7l-3.25.5H16l-6.45.25q-2.45.1-3.7.7l-1.5.9-1.55.75q-1.4.35-2.35-.5L0 23.55V19.2q.45-2.25.05-4.05l-.05-.2v-3.1l.05-.05-.05-.05v-4.5l.15-.05 2.65.25L6.3 8.7Q19 13.4 25.2 16q5.55 2.25 9.45 4.3.5.2.5.55m3.4 2.35-8.95 3.35-3.55 1.55-4.55 1.55q-2.85.9-6.85 2.6l-6 2.4q-2.25.95-3.45.45-1.1-.4-1.45-1.65-.3-1.15.5-2.15.45-.5 1.55-.9-.5-.25-.7-.7-.2-.7.3-1.4.4-.5 1.15-.9L10 25.8l2.95-1.45 3-1.35q3.6-1.4 6.4-.75l.4.25-.1.35q-.55 1-2.2 2.25l-2.65 1.95q12.65-3.4 20.6-4.85l.8.15q.15.25-.1.5zm-33.5-5.65 3.9-.5L12.4 17l3.45.25L4.9 13.6q.45 1.85.15 3.95"/><path d="M62.9 11.65q.8 4.2-1.25 7.5-.85 1.4-2.2 2.55 1.75 2.9 2.15 5.65.6 3.85-1.1 6.75-1.35 2.35-4.05 3.85-4.25 2.3-8.15 1.2l-.35-.1h-.25q-3.6.1-6.6-.75l-.95-.15q-.4.1-.9.6l-1.4 1-1.65.05-1.1-1.05-1.2-1.6q-1.3 1.55-3.2 2.55l-.4.1-.35-.2-.1-.5.45-.8 2.75-3.15 1.15-.8q.8-.15 1.5.9l1.25 1.35 1-.95.95-1.05q.95-.75 3.65-.3l.2.05-.25-.8q-.35-1.55-.1-3.9.05-1.15.45-2.3.45-1.25 1.45-2.45l-.35-.05-.95-.05-.95.05q-.05 1.5-.75 2.8-1.05 2-3.25 3.2-2.05 1.1-4.55 1.25l-4.65-.3-4.55-1.1q-7.65-1.95-12-2.15l-1.6-.2-.75 1.95q-1.55 4.75-1.2 8.6l.1 1.9v.4h-7.7Q.9 40.6.9 39.3l.25-11.35-.6.1-.15-.15v-.95L.1 26q-.1-.95.95-2.75l2.6-4.1q-.6-.75-1.05-1.65-.95-1.95-1-4.35-.05-4.4 2.6-8.55 1.55-2.4 3.4-3.45Q8.85.45 11.15 0H18q1.2.5 2.3 1.35 1.55 1.1 2.55 2.35l.6-.1 1.7-.45 1.8-.05q.8.35 1.15 1.15.35.9-.15 1.65l-.55.7q-.35.45-.75 1.55L25.4 10.7l-1.45 2.1v.05q-.15-1.6-1.5-2.7l-.5-.3-.7.7q-1.95 1.55-5 1.45h-.15l-.15.35-.2.75q-.15 1.05.3 2.05t1.3 1.65q1.7 1.35 3.65.8l-.55.55q-1.65 1.55-3.8 2.5L29.9 19.4l5.45-.25 1.3.1h1l2.85.05 2.2.2-.85-2.15-1.55.1-1.55-.4-1.15-.6q-.65-.4-1.2-1.45-1.1-2-.8-4.15.4-2.3 2.05-3.7l1.15-.8q1.9-1.15 2.9-1.3l2.1.15.8.3q1.75-1.55 4.05-2.25 1.75-.55 3.6-.55l.4-.65Q53.7.6 55.45.3l.85-.15.45-.15H59l.55.3 1.85 1.65.85 1.05q.6.9.6 2.15 0 1.15-.6 2.15l-.15.3-1.2-1-1.15-.6-1.15-.35q-2.5-.55-4.85 1.3-.75.65-1 1.25-.2.4-.3 1.3-.1 1.35.05 2 .35 1.4 1.55 2.5.5.5 1.1.8l1.15.35 3.45-.25q1.75-.65 2.65-2.15zM51.95 17.5q-.15 1.05.45 1.75.7.85 1.7.45l.6-.55.3-.35.35-.15q.8-.3.95-1.1t-.45-1.4q-.35-.35-1.2-.55l-.8-.05-.05-.2-.2-.3-.75-.4-.05.05q-.35 0-.6.25t-.2.6v.3q.05.35.4.5-.35.45-.45 1.15m-2.9-.6.5-.25.15-.55-.8-.8.25-.45.7-1.2Q50 13 49.6 12.4q-.3-.5-.9-.65l-1.15.15-.4.25-.4.6-.2.45-.1.55q-.65-.4-1.05-.35-1 .1-1.2 1.15l.15.85.65.55.6.15-.1.25-.1 1 .05.5.15.25q.3.45.8.3l1-.6v-.1l.75-1 .05-.05h.1zm23.65 21v.4l-.05.05v.1l-.05.05v.05l-.05.05-.05.1-.05.05v.05l-.05.1-.1.05-.1.05-.1.1-.15.05-.15.05H71l-.1-.05h-.25l-.1-.05h-.05l-.15-.05h-.2l-.2-.05h-.5l-.25-.05h-.5l-.1-.05-.15-.05-.1-.05h-.45l-.2-.05h-.15l-.1-.05h-.15l-.2-.05h-.3l-.15-.05h-.6l-.65-.05-.2-.05-.05-.05h-.1l-.15-.05-.1-.05-.05-.1-.05-.05V38l.05-.05.05-.05.05-.1.1-.05h.1l.1-.05.1-.05h.15l.65-.05h.6l.15-.05h.3l.2-.05h.15l.1-.05h.15l.2-.05h.45l.1-.05.15-.05.1-.05h.05l-1.8-1.15q-.35-.35-.25-.5t.35-.15l.8.15 1.65.35-.4-1.7-.15-.8q0-.25.15-.35t.5.25l1.15 1.8v-.05l.05-.1.05-.15.05-.1v-.45l.05-.2v-.15l.05-.1v-.15l.05-.2v-.3l.05-.15v-.6l.05-.65v-.15l.05-.1.05-.1v-.1l.05-.1.1-.05.05-.05.05-.05h.2l.05.05.1.05.05.1.05.15v.1l.05.05.05.2.05.65v.6l.05.15v.3l.05.2v.15l.05.1v.15l.05.2v.45l.05.1.05.15.05.1v.5l.05.25v.5l.05.2v.2l.05.15v.05l.05.1v.25l.05.1v.5m-9-4.3.2-.1h.05l.05-.05q.35 0 .45.6l.05.25.55.15.25.45q.1.55-.6.75l-.2.05-.1.5-.2.25-.45.15-.4-.15-.2-.6.1-.25-.15-.05-.6-.2-.15-.45q-.05-.25.15-.45t.45-.15h.5zM12.7 17h.75l.5-.05.25.15.3.1h.4l.2-.3-.25-.45-.75-.5.05-.3v-.35l.2-.6-.25-.6-.65-.2-.55.35-.15.25-.1.4-.1.45-2.2-.45-.5.05-.8.2q-.8.25-.7 1.1v.25q.1.55.5.8.3.2.75.2l.8-.05.35-.1.35-.15h.45l.35-.1h.4zm.3-5.4.15-.3-1.35-.7Q10 9.2 9.85 7.1v-.35H9.8l-1.35.1q-1.15.2-2 1.05t-1.1 2l-.1.65v.8q.15 1.3 1.35 2.15 1 .7 2.4.8l.95-.05q1.6-.2 2.75-2z"/><path fill="#fff" d="M23.95 12.85v.4l-.15 1.45q-.2 1-.95 1.8-.7.75-1.7 1.05l-.15.05q-1.95.55-3.65-.8-.85-.65-1.3-1.65t-.3-2.05l.2-.75.15-.35h.15q3.05.1 5-1.45l.7-.7.5.3q1.35 1.1 1.5 2.7M62.1 7.6q.6.75.8 1.75.3 1.2 0 2.3l-.5 1.1q-.9 1.5-2.65 2.15l-3.45.25-1.15-.35q-.6-.3-1.1-.8-1.2-1.1-1.55-2.5-.15-.65-.05-2 .1-.9.3-1.3.25-.6 1-1.25 2.35-1.85 4.85-1.3l1.15.35 1.15.6zm-13.05 9.3-.75-.25h-.1l-.05.05-.75 1v.1l-1 .6q-.5.15-.8-.3l-.15-.25-.05-.5.1-1 .1-.25-.6-.15-.65-.55-.15-.85q.2-1.05 1.2-1.15.4-.05 1.05.35l.1-.55.2-.45.4-.6.4-.25 1.15-.15q.6.15.9.65.4.6.25 1.25l-.7 1.2-.25.45.8.8-.15.55zm2.9.6q.1-.7.45-1.15-.35-.15-.4-.5v-.3q-.05-.35.2-.6t.6-.25l.05-.05.75.4.2.3.05.2.8.05q.85.2 1.2.55.6.6.45 1.4t-.95 1.1l-.35.15-.3.35-.6.55q-1 .4-1.7-.45-.6-.7-.45-1.75M13 11.6l-.3.65q-1.15 1.8-2.75 2L9 14.3q-1.4-.1-2.4-.8-1.2-.85-1.35-2.15v-.8l.1-.65q.25-1.15 1.1-2t2-1.05l1.35-.1h.05v.35q.15 2.1 1.95 3.5l1.35.7zm-.3 5.4-.4.1h-.4l-.35.1h-.45l-.35.15-.35.1-.8.05q-.45 0-.75-.2-.4-.25-.5-.8v-.25q-.1-.85.7-1.1l.8-.2.5-.05 2.2.45.1-.45.1-.4.15-.25.55-.35.65.2.25.6-.2.6v.35l-.05.3.75.5.25.45-.2.3h-.4l-.3-.1-.25-.15-.5.05z"/></g></svg>