<svg xmlns="http://www.w3.org/2000/svg" xmlns:ffdec="https://www.free-decompiler.com/flash" ffdec:objectType="shape" width="28.5" height="20"><g fill-rule="evenodd"><path d="m7.45 15.5-.3-.05q-2.05-.45-3.2-1.6-.85-.8-1.35-2-.65-1.45-.8-2.7l-.75-1.4-.65-1.5L0 4.8q.1-1.1 1.1-1.5l.95-.15h1.8l1.55-1.1q1.15-.6 2.45-.7l.8.05.8-.65.3-.2.7-.45 1.25.05q.65.25.95.85l.25.9.1.3.75.45.35.15q1.15-.15 2.45 0Q19 3.2 21 4.75q1.8 1.35 2.85 3.2l.4-.1q1.05-.35 2.55 0l.7.25q.7.35.9 1.1.25.8-.1 1.4l-.6.7q-.5.4-1.35.4l-1.5-.15h-.05q0 1-.4 1.9l-.65 1 .05.7v.35l-.05.3v.75l-.05.75-.15.4-.05.3-.35.55-1.25.35-1.15-.2q-.4-.25-.5-.75-.15-.45.1-.9l.2-.3v-.15l.05-.35-.75.05v.2l.15.75-.05.35-.05.3-.05.45-.2.2-.6.4-1.1.15-.85-.3q-.6-.45-.35-1.25l.1-.4v-.3l-.1-.65-.55-.15.05.45q.15 1.1-.7 1.7l-.25.2-.7.3q-1.15.25-1.85-.35l-.45-.8q-.1-.55.15-.9l.3-.35v-.1l.15-1 .1-.5-.35-.3-.5.3-.05.05.05.45v.1l.15 1.45-.1.6-.3.55-.6.45-1.1.1-.6.05q-.65-.05-.95-.65-.25-.5 0-1.05l.15-.3.1-.9z"/><path fill="#717171" d="m7.45 15.5 1.45.1-.1.9-.15.3q-.25.55 0 1.05.3.6.95.65l.6-.05 1.1-.1.6-.45.3-.55.1-.6-.15-1.45v-.1h.75l-.15 1v.1l-.3.35q-.25.35-.15.9l.45.8q.7.6 1.85.35l.7-.3.25-.2q.85-.6.7-1.7l-.05-.45.55.15.1.65v.3l-.1.4q-.25.8.35 1.25l.85.3 1.1-.15.6-.4.2-.2.05-.45.05-.3.05-.35-.15-.75v-.2l.75-.05-.05.35v.15l-.2.3q-.25.45-.1.9.1.5.5.75l1.15.2 1.25-.35.35-.55.05-.3.15-.4.05-.75v-.75l.05-.3v-.35l1.55.3q1.9.45 2.2 1.7.15.55-.2 1.15l-.85.85q-.8.5-2.3.65l-8.45.2-8.05-.2-1.7-.4q-.95-.35-1.2-1.2-.25-1.05.75-1.9.7-.6 1.9-.8"/><path fill="#fff" d="M6.6 9.6q.1.95-.65 1.6-.5.5-1.25.6l-1.4-.35q-.6-.4-.85-1.15-.2-.7.05-1.4.25-.65.95-1.05.7-.35 1.4-.25t1.25.7q.5.6.5 1.3m2.05 2.9q-.15.25-.5.35l-.5-.25q-.2-.25 0-.85l.4-1.15-.05-.15-.05-.35.15-.4q.3-.35.6-.3l.1-.05q.35 0 .6.35l.2.25.4.1.35.15.7.25.65.25.1.6-.35.4-.6.05-.65-.1-.75-.05H9.1zm5.4-4.65q-.5.7-1.25.95l-.9.05q-.65-.1-1.15-.65-.45-.5-.55-1.15-.05-.65.25-1.3.35-.6.95-.85l1.3-.15q.7.15 1.15.65l.5 1.2q.05.7-.3 1.25"/></g></svg>