<svg xmlns="http://www.w3.org/2000/svg" xmlns:ffdec="https://www.free-decompiler.com/flash" ffdec:objectType="shape" width="75.95" height="40.1"><g fill-rule="evenodd"><path fill="#767676" d="m62.25 9.95-.75-.2q-.8-.25-1.4-.7l-.6-.55-1.9-.25q-1-.5-1.15-1.65-.05-.65.25-1.4.25-.75.85-1.05l1.4-.05.35-.65q.65-.9 1.6-1.3l.25-.1.2-.5.25-.4.75-.8q.55-.35 1-.3l.1-.05 1.5.3.75.55.6.75.15.95-.05.65-.25.65.05.1h.05l3 .5 1.25.35.85.6q1.65 1.3 1.95 3l.05 1.25q.4.75.3 2.1-.1 1.2-.4 1.7l-1 .9q-.65.45-1 .35l-.4.55-.15 1.25.2.45-.2.25q-.35-.1-.6-.65-.5-1.25.25-2.4l.15-.35.15-.2.15-.35.45-.65.3-.55-.2.05q-1.5.65-3.1 0-1.15-.55-2.6-2.05L65 9.3v-.05q-1.15.9-2.75.7m3-4.4.3-.4q.3-.75-.2-1.3-.3-.4-.75-.45l-.15.6-.55 1.1-.5.45.45.25q.8.35 1.4-.25m.8 18.85-1.15-.25-1.3-.05-1.7.35-.55.1-.45-.3q-.1-.3.35-.65 1.6-1.3 3.85-1.8.95-.2 1.45 0 1 .4.8 1.5l-.45.8zm-12.9-7.1L53 14.75l-.15-.65-.6-1.8q-.35-1.15.4-1.75.35-.3.85-.3.45 0 .8.3.5.4.7 1.4l.25 2.25-.1.5-.1 2.45q-.1 1.2-.55 1.85l-.6.4q-.4 0-.6-.55l-.1-.8v-.4zm6.2-10.55.3.6q.35.5.95.4l.85-.6.15-.4-.5.05-.8-.1-.15-.1-.7-.3zM46.25 5.7l-.45.9-.45.65q-.8.95-2.2 1.2-1.25.15-2.7-.55l-.55-.35q-1.2-.9-1.45-2.3v-.1l-.65-.4q-1.2-1.05-.85-2.3l.4-.8q.75-1 1.95-.9.6.1 1.15.55l.35-.25 1.65-.4q1.2 0 2.1.5.35-.4 1-.6l1.8-.1q.95.25 1.4 1.1.6 1.05 0 2.35l-.8.95q-.6.4-1.4.4l.05-.35q.15-.8-.45-1.3L45 4.8l-1.05.55q.45.85 1.45.75zm-5.7.45q.85-.1 1.1-.75-1.1-.15-1.6-.6l-.55-1.05-.4.7q-.15.5.05.9.4.9 1.4.8M25.9 7.55l-.5.85q-.6.9-1.8 1.6-1.85.95-3.7.5-1.45-.35-2.2-1.35l-.9.25-1.35.1-2.1-.15q-1.65-.45-2.45-2-.7-1.45-.25-2.9l-1.4.1-.7.25q-1.3.4-2.3-.45L5.95 4l-.15-.45-.25-.3-.05-.75V2q0-.2.15-.35h.45q.25.1.3.35v.55l.25.3.55.35.5-.15.45-.2.5-.3.75-.4.6-.05 1.6.05.45.2q.6-.6 1.5-1L14.4 1l1.1-.1q1.55 0 2.8.65.55.3.95.7l1.05-.45 1.95-.3.35-.45.5-.5Q23.7.2 24.45.1l1.4.1.9.3.6.5q.6.6.6 1.6 0 .85-.6 1.7l-1.05 1q-.25-.2-.55-.25l-.1.2q-.5 1.2-1.2 1.8v.05l.5.4zm-3.65.25-1.3-.25-.2-.15q-.7-.1-1.1-.5l-.4.7q-.1.5.15 1l.75.65 1 .05.85-.55zM10.8 10.4l.2.6q.25.75.15 1.6l-.35.65-.45-.05-.4-.35-.5-.6-.5-.45q-.45-.45-.2-1.2.25-.7.95-.7.7-.05 1.1.5M5.05 30.35q1 .35 1.5-.5L6.8 29l-.35-.75q-.2-.3-.55-.4l-.15 1q-.25.8-.95 1.35v.05zm-4.5 1.6L.2 31.3 0 29.45l.15-1.3.3-.55.9-1.1q.8-.75 1.8-.95l.35-.85.65-.7.75-.55 1.3-.25 1.55.35.75.6.35.45.4 1.15v.6q0 1.5-1.2 2.45v.7l-.05 1q-.25 1.7-1.6 2.95.6.5.95 1.4.3.9.2 1.8l-.1.3-.35.9-.4.6-.45.3-.95.4-1.05-.25-.75.1q-1.3.2-2.05-.8-.5-.65-.7-1.7l.05-2.55q.1-.6.6-1zm.55-1.7q-.45.7-.1 1.35.55 1.05 1.6.8.45-.05.8-.45l.35-.9v-.2l-.45.1-1.4-.2-.7-.65z"/><path fill="#fff" d="M65.25 5.55q-.6.6-1.4.25l-.45-.25.5-.45.55-1.1.15-.6q.45.05.75.45.5.55.2 1.3zm-5.9 1.2.1-.45.7.3.15.1.8.1.5-.05-.15.4-.85.6q-.6.1-.95-.4zm-12.8-1.5-.3.45-.85.4q-1 .1-1.45-.75L45 4.8l1.15-1.2q.6.5.45 1.3zm-6 .9q-1 .1-1.4-.8-.2-.4-.05-.9l.4-.7.55 1.05q.5.45 1.6.6-.25.65-1.1.75M26.3 5.3l.35.5q.35.75-.3 1.4l-.45.35-.95-.05-.5-.4v-.05q.7-.6 1.2-1.8l.1-.2q.3.05.55.25m-4.05 2.5-.25.95-.85.55-1-.05-.75-.65q-.25-.5-.15-1l.4-.7q.4.4 1.1.5l.2.15zM5.05 30.35l-.25-.1v-.05q.7-.55.95-1.35l.15-1q.35.1.55.4l.35.75-.25.85q-.5.85-1.5.5m-3.95-.1.1-.15.7.65 1.4.2.45-.1v.2l-.35.9q-.35.4-.8.45-1.05.25-1.6-.8-.35-.65.1-1.35"/><path d="m18.6 15.15.2.4q.75 2.05-.35 4l.1-.05 1.15-.8.15-.15v-.2l-.15-.75q0-.55.35-1L21 16l1.05.1.8.7q.4.6.3 1.3 0 .65-.4 1.3l-.45.7-2.25 1.25-1.3.35.05.15.5 1.2q1.9-1.75 4.05-3l2-.85q-.05-1.6.4-3.15l-.55-.5-.8-.9-.5-.4q-.5-.5-.6-1.3-.05-.75.35-1.35.4-.55 1.15-1 1.3-.65 3.5-1.2l1.35-.35 1.15-.25 2.6-1.35q2.85-1.05 5.05-.75l3.2.85 1.25.5 2-1.35.8-.45 1.7.05q.9.4 1.2 1.25l.25.95.3 2 .35 3v.45l.75 2.7.05 3.4 1.25.5.85-.7 2-1.4h.05v-.35l-.95-.55q-.65-.5-.85-1.25l-.2-1.1.05-.7q.2-1.45.75-2.1.3-.35.9-.7l.7-.35.95-.05 1.3.4.85.95 1.1-.15h.5q.65-2.15 2.25-3.75.9-1 1.85-1.2l1.15-.05 1.1.05V7.5l.25-.95.3-.7L67 5l.05-.05.05-.1.05-.05q.65-1.2 1.5-1.5l1.7-.1.75.05.75-.3q.05-.4.4-.9.25-.35.5-.2l.15.3q.15 1-.45 2l-.55.7-1.55.45-1.1.1-.5.7-.4.75.05 1.6v.3l.2.25q.75.95.8 2.15.15 2.35-1.8 4.15-.8.8-3 1.95l-.7.4q-.25 1.65-1.35 2.75-1.05 1.15-2.25 1.45l-.15.2-.45.7-.3.75-.2.8-.4.8-.35.6 1.5 2.2q3.95 6.55 3.9 11.1v.4H11.4l-.2-1.6.2-2-.6.15-.95.1L8.8 36l-1.65-.3q-.4-.1-.9-.7l-.4-.65q-.2-.5.25-.7l.7.1q1.55.6 3.5-.3l1.05-.7.55-.85.45-1.1.35-1.05-.75-.65-.95-1.25q-.65-1.25-.4-2.85l.1-.4-.95.8q-.55.65-.55 1l.15.55q.1.7-.3 1.25l-1.1.65q-.8.15-1.45-.4t-.65-1.4l.25-1.2.25-.55.5-.75.6-.6 2-1.35q.7-.3 1.4-.65l.15-.05-.7-.5q-.8-.8-1.05-1.85H9.2l-.35.05h-.8Q6.6 19.35 6.2 18l-.1-.8.15-.8q.3-1.1 1.45-1.6l1.25-.3.3-.05 1.1.3.3-.3 1.4-1.15q.45-.3.95-.45-.1-.4-.05-.8.05-.65.5-1.1.5-.5 1.25-.65l1.6.2q.85.35 1.15 1.1.3.65.05 1.5l-.15.45.05.05-.15-.05h-.7l-.25 1.25-.35 1.15-.15.25-.2.25.05.05q.4.4 1 .5l1.1-.25.7-.9zm38.25 3.65.25-.25-.65-.45-.3-.3-.35-.5-.2-.55q-.75.25-.85 1.05-.1.75.6 1.2l.8.15q.45-.05.7-.35m-9.6-1.25.15-.8-.1.05-.25.05H45l-1.4-.05h-.55l-.4-.05h-.85v.3q0 .9.5 1.55.9 1.05 2.2 1.05t2.2-1.05l.35-.55zm10.2 4.1q-1.35-.55-2.1-1.4l-.55.9-.1.3-.15.25-.1.35L56 23.2q.65-.9 1.6-1.35l.2-.1zm4.1-2.3q.1-.5-.2-1l-.1-.15-.45.3q-.85.55-1.8.55l-.45-.05-.3-.05-.05.2q-.05.55.3 1l1.2.7q.7.1 1.3-.45.45-.4.55-1.05m11.8 11.05.05 1q-.05.8-.65 1.45L71.5 33.9l-.15.15.5 1.35.2.95.1.2.05-.05 1.3-1 1.4-.7.55-.1.45.25v.55l-.45.3-1 .5-.35.65-.2.3q-.2.3-.3.95l-.15.7q-.4.8-.9.95l-1.05-.15-.3-.3-.75.2q-.75.05-1.3-.3l-.75.6-1.35.15-1.2-.7q-.45-.6-.6-1.35t.05-1.75q.2-1.2.5-1.7l.65-.85-.3-.3q-1.2-1.3-1.2-3l-.2-.1q-1-.6-1.1-1.65v-.55l.15-1.15q.15-.85.8-1.35t1.45-.5l.75.05.5.1q.7.2 1.15.95l1.9.2v-.05l.3-.35q.9-.8 2.15-.65 1.2.15 1.85 1.2l.2.3.35 1.4q0 .7-.5 1.3l-.5.4-.45.25-.4.15zM13.9 17.75l-.1-.25-.4.1-.75-.05-.7-.1-.55-.35h-.15l-.4.5q-.2.5-.1 1.05.15.55.55.9l2 .1.6-.85q.2-.55 0-1.05m25.9 1.55h-.7v-.1l-.2-.95q-.25-.55-.75-.55-.55-.05-.95.5-.25.45-.25 1.1v.05l-1.25-.05-.85.05-.3.2-.45.15-.2.15q-.5.7-.1 1.45.45.8 1.25.7l.85-.3 1.95-.4 2.95-.15.35-.1q.5 0 .6-.5.1-.45-.3-.7L41 19.7l-.4-.25zm-6.05-2.4H30.7l-.65-.05h-1.4L28.7 18q.4 1.3 1.75 1.7l.05.05q.6-.75 2-1.35.75-.25 1.15-.35zM65.9 29.6q-.2 1.1.75 1.5t1.55-.4l.2-.3-.25-.1-1-.45-.35-.35-.35-.55v-.1q-.4.25-.55.75m6.45-.05-.3-.35-.2.1-.35.2-.4.35-.45.3-.65.3.15.45.8.55.95-.15.6-.75q.1-.55-.15-1"/><path fill="#fff" d="M17.4 13.6q.85.25 1.1 1.15l.1.4-.15.7-.7.9-1.1.25q-.6-.1-1-.5l-.05-.05.2-.25.15-.25.35-1.15.25-1.25h.7zm29.85 3.95-.2.5-.35.55q-.9 1.05-2.2 1.05t-2.2-1.05q-.5-.65-.5-1.55v-.3h.85l.4.05h.55l1.4.05h2.05l.25-.05.1-.05zm9.6 1.25q-.25.3-.7.35l-.8-.15q-.7-.45-.6-1.2.1-.8.85-1.05l.2.55.35.5.3.3.65.45zm4.7.55q-.1.65-.55 1.05-.6.55-1.3.45l-1.2-.7q-.35-.45-.3-1l.05-.2.3.05.45.05q.95 0 1.8-.55l.45-.3.1.15q.3.5.2 1m10.8 10.2q.25.45.15 1l-.6.75-.95.15-.8-.55-.15-.45.65-.3.45-.3.4-.35.35-.2.2-.1zm-6.45.05q.15-.5.55-.75v.1l.35.55.35.35 1 .45.25.1-.2.3q-.6.8-1.55.4t-.75-1.5M33.75 16.9l-.1 1.15q-.4.1-1.15.35-1.4.6-2 1.35l-.05-.05q-1.35-.4-1.75-1.7l-.05-1.15h1.4l.65.05h3.05m6.05 2.4.8.15.4.25.45.15q.4.25.3.7-.1.5-.6.5l-.35.1-2.95.15-1.95.4-.85.3q-.8.1-1.25-.7-.4-.75.1-1.45l.2-.15.45-.15.3-.2.85-.05 1.25.05v-.05q0-.65.25-1.1.4-.55.95-.5.5 0 .75.55l.2.95v.1zm-25.9-1.55q.2.5 0 1.05l-.6.85-2-.1q-.4-.35-.55-.9-.1-.55.1-1.05l.4-.5h.15l.55.35.7.1.75.05.4-.1z"/></g></svg>