<svg xmlns="http://www.w3.org/2000/svg" xmlns:ffdec="https://www.free-decompiler.com/flash" ffdec:objectType="shape" width="65.9" height="37.2"><g fill-rule="evenodd"><path fill="#999" d="M65.9 13.2q.1 2.55-.9 4.45-.95 1.65-2.5 2.7l.05 1.05.1.65.5.25q1.35.55 1.85 1.9l.2.95.1 1.4q-.1 1.3-1.8 2.85.3.5.2 1.15l-.55 1q-.6.5-2.05.4l-.65-.05-.1.15-.95 1.1-1.3.15-.8-.15q-.75.7-2.1.35l-1.4-.85h-.1l-1 .25-1.15.15-1.35-.3-.55-.6-.35-.65q-.1-.65.35-1.2l-.9-1.2-.45-.95q-1.65.55-2.55 1.05l-1.6 1.1.65-.15h1.25q.7 0 1.25.35l.85.95q.25 1.05-.55 1.8-.7.65-1.75.75l-2-.2-2-.65-.8-.6q-.25-.35-.25-1.15l.1-1.4.6-.95q1.05-1.35 2.95-2.3 1.15-.55 3.6-1.3l.5-.1.3-.65q.65-.9 1.55-1.4l.75-.65.1-.6.25-.75q.15-.6.4-.9l-1.05-.75q-1.15-1-1.7-2.4-.6-1.45-.45-2.9l.5-2 .8-1.6.35-.5-.45-.7-.1-1 .1-1.35.7-1.5.3-.8.35-.8q.35-.45.95-.55l1 .3.6.75.75 1.4.55.75 5.05-.15.25-.25 1.8-2q.5-.8.95-1.05h.75q.4.15.6.45l.25.95.35 1.3.3 1.3.05.95.1.6-.05.55.1.55.05.7v.2zm-40.8 0q.1 2.55-.9 4.45-.95 1.65-2.5 2.7l.05 1.05.1.65.5.25q1.35.55 1.85 1.9l.2.95.1 1.4q-.1 1.3-1.8 2.85.3.5.2 1.15-.1.6-.55 1-.6.5-2.05.4l-.65-.05-.1.15-.95 1.1-1.3.15-.8-.15q-.75.7-2.1.35-1-.25-1.4-.85h-.1l-1 .25-1.15.15q-.95 0-1.35-.3l-.55-.6-.35-.65q-.1-.65.35-1.2l-.9-1.2-.45-.95q-1.65.55-2.55 1.05l-1.6 1.1.65-.15h1.25q.7 0 1.25.35l.85.95q.25 1.05-.55 1.8-.7.65-1.75.75l-2-.2-2-.65-.8-.6Q0 32.2 0 31.4L.1 30l.6-.95q1.05-1.35 2.95-2.3l3.6-1.3.5-.1.3-.65q.65-.9 1.55-1.4l.75-.65.1-.6.25-.75q.15-.6.4-.9l-1.05-.75q-1.15-1-1.7-2.4-.6-1.45-.45-2.9l.5-2 .8-1.6.35-.5-.45-.7-.1-1 .1-1.35.7-1.5.3-.8.35-.8q.35-.45.95-.55.5-.05 1 .3l.6.75.75 1.4.55.75 5.05-.15.25-.25 1.8-2q.5-.8.95-1.05h.75q.4.15.6.45l.25.95.35 1.3.3 1.3.05.95.1.6-.05.55.1.55.05.7v.2z"/><path d="M47.6 12q.05 3.15-1.2 5.35l-.3.55 1.45-.1 1.4.15q1.6.35 2.45 1.8.85 1.4.25 3-.35 1.15-1.3 1.7-.95.65-2.05.35-1.15-.35-1.55-1.5l-.1-.25-.25.05q-.45.1-1 .55h-.05q.7.65 1.05 1.65l.3 1.15.1 1.65q-.1 1.5-1.95 3.3l.35.65.2.5q.15.6-.45 1.7l-.65.85-1 .5-.7.25h-.7l-3-.55-.65-.3-.45-.4-.2-.2h-1q-1.75 1.5-4.95 1.6l-1.15-.1h-.2l-1.65-.35-.7-.7-.4-.8q-.15-.75.45-1.45l-1.1-1.45-.55-1.15q-2 .65-3.1 1.25T21.4 32.6l.75-.1 1.5-.1q.8.05 1.55.45.7.45.9 1.15.4 1.25-.6 2.15-.8.8-2.1.95-1.4.25-2.4-.3-1.15-.05-2.45-.75-.7-.35-.9-.7-.35-.45-.35-1.4 0-1.3.15-1.7l.65-1.15q1.25-1.6 3.6-2.8 1.4-.65 4.35-1.55l.55-.15.4-.75 1.3-1.3q-.55-.3-.85-.6-.5-.55-.8-.45l-.2 1.2q-.55 1.35-2.2 1.5-.95.1-1.9-.4-.9-.5-1.1-1.5v-1.15q.5-2.6 2.8-4 1.2-.55 2.8-.9l1.1-.1-.6-1.25q-.75-1.7-.55-3.45l.6-2.45.95-1.95.45-.55-.55-.85-.1-1.25.1-1.65L29.1 3l.4-1 .4-1q.4-.5 1.15-.6.6-.1 1.2.35l.7.9.9 1.7.7.9 6.05-.2.3-.3 2.15-2.4q.7-1 1.2-1.25.4-.15.85 0 .5.15.75.55l.3 1.1.45 1.6.35 1.55.1 1.1.1.8-.05.65.1.6.05.9v.25q.35 1.25.35 2.8m-17.85.75q-.1.4-.05.8l1.6-.2 2.15.4.05-.55-.3-1.05q-.7-1.1-1.95-.85t-1.5 1.45m11.5 3.7q-.45-.5-1.9-.8l-1.2-.4v-.5l-.3-1.25q-.2-.6-.6-.6l-.4.2-.2.35-.35 1.05-.15.65v.1l-.4.1-1.1.4-.95.5q-.5.4-.25 1 .3.5 1.15.3l1.2-.45 1.55.25 1.9.7L41.2 18l.3-.75zm3.05-2.85q.5-1.25-.4-2.25-.95-1-2.2-.6-.6.2-1 .7t-.45 1.1q-.15 1.45 1.1 2.1t2.4-.3zm.35-4.75.8.05.55-.55q.3-.65-.25-1.4-.5-.65-1.35-1l-1.65-.1Q41 6.15 40.2 7.8l-.4.95q-.3.8-.25 1.25 1.05-1.6 3.05-2.1h.9l.6.5z"/><path fill="#fff" d="m44.65 8.85-.55-.45-.6-.5h-.9q-2 .5-3.05 2.1-.05-.45.25-1.25l.4-.95q.8-1.65 2.55-1.95l1.65.1q.85.35 1.35 1 .55.75.25 1.4l-.55.55zm-.35 4.75-.55.75q-1.15.95-2.4.3t-1.1-2.1q.05-.6.45-1.1t1-.7q1.25-.4 2.2.6.9 1 .4 2.25m-3.05 2.85.25.8-.3.75-1.95.05-1.9-.7-1.55-.25-1.2.45q-.85.2-1.15-.3-.25-.6.25-1l.95-.5 1.1-.4.4-.1v-.1l.15-.65.35-1.05.2-.35.4-.2q.4 0 .6.6l.3 1.25v.5l1.2.4q1.45.3 1.9.8m-11.5-3.7q.25-1.2 1.5-1.45t1.95.85l.3 1.05-.05.55-2.15-.4-1.6.2q-.05-.4.05-.8"/></g></svg>