<svg xmlns="http://www.w3.org/2000/svg" xmlns:ffdec="https://www.free-decompiler.com/flash" ffdec:objectType="shape" width="71.25" height="43.85"><g fill-rule="evenodd"><path fill="#999" d="m23.95 13.95-2-.35-2.05.1-.95-.05-1.2.1-1.2-.05-.5-.15-.55-.05-.85-.3h-.45l-.25-.3q0-.25.3-.25h.4l.65-.1h1.55l1.45-.05 1.9-.25 1.25-.35 2.15-.05q1.35.2 2.15.95l4.2-.95L32 11q2.4-1.2 4.35-3l1.45-1.55.85-1.45 1.05-1.3q.15-.15.25-.15.2 0 .25.15.85.7.7 1.9-.05.85-.7 1.95-2.2 3.65-7.1 5.8l-1.4.5-1.7.25-3.45.2-.2.95-.3.4.7.2 1 .8.35.55 1.15-.05 2.9-.6 1.35-.4 1.35-.8 1.35-.7.7-.05q.5.2.4.95-.1.8-1.15 1.75l-1.95 1.15-2.1.6-3.4.4-.25.55-.65.65-1.15.8-.85.25-3.4-.1-1.1-.15-1.1-.35-.75-.15-1.5-.45-.1.2-.95 1.15q-1.7 1.3-3.2.75-.65-.2-1.55-1.1-.4-.25-.15-.5l.5.05 2.95-.05q1.05-.4 2.5-1.75.2.5 0 1.2h.95l1.9-.25 3.25-.3 1.35-.2 1-.75q-.4-.25-.4-.7 0-.25.15-.45l-.95-1.2h-.4l-.15-.2q-2.55.8-5.1-.1l1.25-.3 2.45-.35.75-.2.55-.45-.1-.65zM16.8 30.3l.75.05 1.7.1h1l1.25-.75.95-1.05.3-.25-.35-.6-.55-.5-2.25-.55-.4-.15-.35-.2-.05-.35.15-.15 1.4-.1.9.1.65-.2 1.45-.15.9-.05 1.25-.4.3-.4.4-1.05v-.4l.45-.4q.4 0 .45.3l.45.55v.1l.55-.05h2.55q1.15-.2 3.25-1.4l.7-.2q.45 0 .65.3.35.3.15.85l-.55.75-.6.5-1.6.8q-2.55.85-4.55.4l-.7-.2-.45.9-.2.25-.8.45-2.1.5.05.1.1 1.55.2-.05 3.05.15h.7l.5-.15 1.5.15q.8.35.7 1.2l-.4.75-.5.45-1.25.35-1.55.05-.85-.05-.65-.1.1.1.4.7.05 1.25-.3 1-.75 1.25-.2.25-.35.3-.1.1.15.5-.2.5q-.45.55-1.6.75H20.5l-.55-.15-.35-.25-.4-.2-.75-.55-.4-.15-.1-.05-.4.15.2.4.05.6.2 1.15-.3 1.2-.3.6-1.1 1-.45.25-.85.2-.3.05-.6.65-1.15.2-1.1-.2-.8-.45-.95-.75-.55-1.05v-.65l-.3-1.05-.85-1.45-.55-1.3q-.1-.6.15-.7l.45.05.3.4 1.15 1.55.8 1.4.4.45 1.05.65.35.35.45.35.7.15.35.1.5-.5.65-.35.45-.55.2-.45.15-.25-.05-.3.05-.45q-.05-.3.05-.4l-.7.2-.85.15q-1.35 0-2.75-.75l-1-.7-.55-.75-1.8-2.45-.3-.7.05-.8.2-.5q.25-.15.7.2l.6.6.35.45 1.35 1.85.5.5.65.3 1.2.4.65.1.7-.1.7-.2.8-.15 1.8-1.3q.2-.2.35-.15l.15 1.3.15.1 1.15.1 1.8-.05.6.1.6-.45.25-.4.6-.85.35-1.1-.15-.5q-.4-1.1-.45-1.75l-.45-.4-.65.7q-.95.85-1.8 1.05l-2.2.1-1.1-.25-.4-.3-1-.3-1.05-.55-.6-.5-.8-.85q-.7.55-1.5.7l-1.05-.1-.7-.15-.5-.25-.45-.4-.2-.25-.55-.85-.9-1.25-.05-.4-.1-.15-.05-.3q.1-.2.3-.1l.3.2 1.05 1.25.45.4.5.1 1.85.15.55-.2 1-.5.3-.9.5-1.75.2.45.45 1.6-.3 1.45-.15.25-.2.25.45.4.9.45z"/><path d="M36.75 18.45q-.35.2-.75.45l-.6.4.4.5.65 1.1.1 1-.1 1.75q-.25 1-.9 1.5l-.8.45-1.7.65-1.35.35-.2.05.05.05.4 1.1q.3 1.5-.4 2.85-.7 1.3-2 2-1.25.65-2.75.65h-.2l.3.5.25 1.05Q27.3 37 25.6 38.3l-.65.45q-1.45.9-2.55 1.1l-2.6-.35-.1.65-.2.9-.65 1.1-.3.35-.35.3q-.8.65-1.85.9l-1.3.1q-.7-.15-.95-.8-.15-.6.25-1.1l.95-.55.45-.1.7-.4.2-.15v-.05l.3-.35.05-.05.25-.95v-1.4l.05-.4-.3-.8v-.45q.2-.35.75-.15l1.05.6.4.05.95.4 1.2.45q1 .05 2.1-.65l.7-.55q.7-.6.7-1.6l-.15-1.3.05-.75v-.2l-1.4-1.05-.5-.3-.55-.55-.25-.35q-.1-.35.2-.35l.15-.05 1.45.55.95.3.4.05.5.2.25-.05.55.15.3.1.5.05q.75-.05 1.6-.5l.65-.45.25-.35.35-1.05-.3-1-.35-.7-.8-.55-.35-.15-.3-.1-.35-.25-1.05-.4-.8-.45q-.35-.3-.3-.65l.3-.15.4.1.7.05.35.1 2.2.1h.3l.4-.05.7-.1q1.1-.55 2.4-1l.75-.55V21.8l-.35-.55-1.05-.95-.5-.5h-.4l-1.3-.05-1.25-.25-1.05-.1-.6-.1-.8.05q-.35-.2-.2-.5.1-.3.45-.4l.15.05.1-.05.6-.2 3.7-.3.8-.05.75-.15.95-.3.5-.25 1.6-1.15.55-1-.05-.65-.2-.4-.2-.15-1.4-.4-.45-.05-2.55.55-1.4.25-2.8-.05-2.3-.15-.3-.1q-.1-.2.1-.3l.3-.1 5.35-1 3.25-1.15 1.8-1.35q2.1-1.3 2.9-2.25 1.4-1.85.6-3.45-.4-.7-.9-.75l-.85.15-2.7 1.35Q29.4 8 22.95 8l-7.1-.65-7.1-.45-1 .25q-.4.35-.4 1.25l-.05 3.2q-.05 1.9-.45 3.15-.4 1.2-1.6 2.95-1.25 1.8-2.7 2.8-1.3.8-2.55.9v-2.3q1.55-.95 2.7-2.5 1.5-2.1 1.7-4.55v-2.1l-.05-2.1Q4.55 5.25 6 4.1q1.05-.7 3.1-.8l7.1.45 7.1.6q5.05-.1 9.45-2.25l3.2-1.6q1.9-.8 3.5-.3 1.4.4 2.3 1.8.85 1.3.8 2.85-.05 2.8-2.6 5.25l-2.3 1.7.4.2.45.45.35.9.15 1.85.3-.25.9-.2h.55l.95-.15.55-.05q1.05-1.25 2.3-2.15.7-1.85 2.75-5.8 1-1.95 1.7-2.5.6-.55 1.4-.75l1.45.2L53.3 5.1l1.65 2.6 1.1 1.8q2.9.35 5.4 1.85 1.85 1 3.3 2.55.75-.4 1.7-.35l.85.15.6.75.7 1.45.4 1.15.25.75q.25.9-.2 1.45l-.05.1.15-.05.85.05q.5.3.75 1.25l.15.8.15.85.1.65v.05q.2 1.3-.1 1.9l-.55.6-.2.1.6 3.45.15 1.4q-.2 1.15-1.25 1.65l-.95.1-1.05-.25-1.4-.35h-.05q-3.05 4.4-8.95 6.05l-6.9.4.05.75.25.95.05 2.15-.35 1h-5.75l.15-.3q.2-.4.05-1.3l-.1-.7-.1-.4v-.5l-.2-.45-.05-.55-.6-1.3-.05-.3-.35-.95-.25-.35-.1-.25-.7-.1.1.05.35 1.05.25 1.95.1 2.35-.25.95-.65.4H42q.05.4.25.7H35.7l.3-.65.35-2.5.3-2.55-1.15 2.1q-.25.1-.35-.2v-.45l1.25-2.7.5-.7v-.25q.2-1.2.7-2.35l.6-1.9-1.15.2-.65.45-.45.65q-.9 1.6-1.75 5.3l-.9 3.95-.35.85-.55.55.2.2h-6.35q-.15-.7.1-1.5.4-1.25 1.3-2.7 2.5-3.8 5.5-6.2l.45-1.25.55-.9q.85-1.15 2.25-1.6l.95-.15 1.85.15.25.05-.45-.5-.05-.05-.15-.6q-.45.1-.85-.3l-.3-.65-.1-.5-.25-1.2.05-.8.05-.5.35-.65q.2-.2.4-.25l.15-.15.35-.25.15-.8-.55-.3q-.3-.2-.3-.8L37.9 20q.1-1.4.3-2.1l.3-1.25-.05.1zM68.6 24.2h.65l-.6-3.05H63.5l-6.1 1.45.05.1.15.1h.5l4.7.3 1.7.4zm-20.3-.05L53 23l.95-.65.65-.25.65-.45.55-.25.55-.4q.4-.45 1.35-1.15l1.25-.8.25.15v.3l-.55.3-.55.6-1.1.95-.25.3-.3.2L58 21.2l5.5-1.85 3.5-.85q-.35-1.55-1.15-2.65l-1.3.2-2.75.95-3.3 1.1-4.2 1.75L47.35 22l-6.95 2.25-1.15.35.35 1.45v.15zm1.5 8.35.75-.6q.9-.65 1.75-.55 1 0 1.6.75l.4.7.55.35q.65.15.75-.75l-.4-1.05-.75-.9-.3-.2.05-.55-.05-.75q-.25-.65-1.05-.65-.45 0-.75.35l-.3.8v.25q-1.8-.15-2.9.4-.75.35-.9.85-.3.7.25 1.35.6.45 1.3.2m6.7-4.8v.65l1.55.2q1 .35 1.6.75l.85.85.9 1.25.05.15q.85-.15 1.35-.6l.8-.75.65-1.3.05-.3-1.3-.8-2.25-2-1.45-1.65-.9.5-1 .9-.55.95zm-6.6-12.25-3.1.05-2.05.3-1.1.05-2.35.45-.65.25-.2.5-.05.6-.25 1.8 2.2.3h2.4l1.15.1.9-.2.35.1 11.15-3.3 3.05-.95-5.9-.1-1.75.35-2.05.45-2.8.5-2.7.05.05-.25.6-.05.55-.3.6-.1.55-.25.9-.25.7-.1z"/><path fill="#fff" d="M68.6 15.9q.6.15.65.45l-.25.7zm2.3 5.5.2.35q.25.55.05 1.15l-.1-.65zM44.75 42.85h-2.5q-.2-.3-.25-.7h.35l.65-.4.25-.95-.1-2.35-.25-1.95-.35-1.05-.1-.05.7.1.1.25.25.35.35.95.05.3.6 1.3.05.55.2.45v.5l.1.4.1.7q.15.9-.05 1.3zm-9.05 0h-3.1l-.2-.2.55-.55.35-.85.9-3.95q.85-3.7 1.75-5.3l.45-.65.65-.45 1.15-.2-.6 1.9q-.5 1.15-.7 2.35v.25l-.5.7-1.25 2.7v.45q.1.3.35.2l1.15-2.1-.3 2.55-.35 2.5zm1.65-14.3.85-.45.75.1.05.05.45.5-.25-.05zm.3-1.9-1.05-.15q-.85-.35-.75-1.1l.6-.75.9-.5-.05.8.25 1.2zm.3-6.2q-.9-.5-1.15-1.5l-.05-.5 1.7-1.7.05-.1-.3 1.25q-.2.7-.3 2.1zm10.35 3.7-8.7 2.05v-.15l-.35-1.45 1.15-.35L47.35 22l6.95-2.15 4.2-1.75 3.3-1.1 2.75-.95 1.3-.2q.8 1.1 1.15 2.65l-3.5.85L58 21.2l-1.55.65.3-.2.25-.3 1.1-.95.55-.6.55-.3v-.3l-.25-.15-1.25.8q-.95.7-1.35 1.15l-.55.4-.55.25-.65.45-.65.25L53 23zm20.3.05-4.1-.7-1.7-.4-4.7-.3h-.5l-.15-.1-.05-.1 6.1-1.45h5.15l.6 3.05zm-18.7-8.75h.2l-.7.1-.9.25-.55.25-.6.1-.55.3-.6.05-.05.25 2.7-.05 2.8-.5 2.05-.45 1.75-.35 5.9.1-3.05.95-11.15 3.3-.35-.1-.9.2-1.15-.1h-2.4l-2.2-.3.25-1.8.05-.6.2-.5.65-.25 2.35-.45 1.1-.05 2.05-.3zm6.6 12.25.35-1.2.55-.95 1-.9.9-.5 1.45 1.65 2.25 2 1.3.8-.05.3-.65 1.3-.8.75q-.5.45-1.35.6l-.05-.15-.9-1.25-.85-.85q-.6-.4-1.6-.75l-1.55-.2zm-6.7 4.8q-.7.25-1.3-.2-.55-.65-.25-1.35.15-.5.9-.85 1.1-.55 2.9-.4v-.25l.3-.8q.3-.35.75-.35.8 0 1.05.65l.05.75-.05.55.3.2.75.9.4 1.05q-.1.9-.75.75l-.55-.35-.4-.7q-.6-.75-1.6-.75-.85-.1-1.75.55z"/></g></svg>