<svg xmlns="http://www.w3.org/2000/svg" xmlns:ffdec="https://www.free-decompiler.com/flash" ffdec:objectType="shape" width="51.2" height="42.8"><g fill-rule="evenodd"><path fill="#999" d="M42.6 15.4q-.95 1.7-2.6 3.35-2.1 2.15-4.85 3.5l1.2.8q6.7 4.7 9.7 7.65 1.65 1.65 2.1 2.95.4 1.05.4 2.5.1 1.4-.3 2.1-.45.9-1.5 1.2l-2-.05q-1.85-.75-2.3-3.1l-.35-1.7-.95-1.2-4.7-4q1.4 5.2 3.1 10.1.75 2.1.45 3.25h-6.25l-.85.05-.8-.05-1.8-.35-.75-.35-.4-.05h-.2l-.1.75h-6.5l-.1-.75h-.2l-.4.05-.75.35-1.8.35-.8.05-.85-.05H11.2q-.3-1.15.45-3.25l3.15-10.1q-3.05 2.3-4.75 4l-.95 1.2-.35 1.7q-.45 2.35-2.3 3.1l-2 .05q-1.05-.3-1.5-1.2-.4-.7-.3-2.1 0-1.45.4-2.5.45-1.3 2.1-2.95 3-2.95 9.7-7.65l1.2-.8q-2.75-1.35-4.85-3.5-1.65-1.65-2.6-3.35L7.95 14l-.65-1.85-.2.05-1.3.2q-2.65 0-4.55-1.8Q.45 9.8.2 9.1q-.4-.9-.05-1.8l.8-1.15Q3.2 3.6 6 1.2L7.3.3 8.85.1l1.45.7.1.05h31.2v-.4l.75-.35 1.55.2 1.3.9q2.8 2.4 5.05 4.95.7.8.8 1.15.35.9-.05 1.8l-1.05 1.5q-1.9 1.8-4.55 1.8l-1.3-.2-.15-.05zm-12.1-.5q.6 1.25 1.8 1.95 1.15.75 2.55.85 1.45 0 2.5-.75l.65-.5.8-.9.55-1.2q-1.85 1-4.05 1.1-2.75.1-5.05-1.25h-.05zm-9.4 0 .3-.7h-.05q-2.3 1.35-5.05 1.25-2.2-.1-4.05-1.1l.55 1.2.8.9.65.5q1.05.75 2.5.75 1.4-.1 2.55-.85 1.2-.7 1.8-1.95"/><path fill="#fff" d="m30.5 14.9-.3-.7h.05q2.3 1.35 5.05 1.25 2.2-.1 4.05-1.1l-.55 1.2-.8.9-.65.5q-1.05.75-2.5.75-1.4-.1-2.55-.85-1.2-.7-1.8-1.95m-9.4 0q-.6 1.25-1.8 1.95-1.15.75-2.55.85-1.45 0-2.5-.75l-.65-.5-.8-.9-.55-1.2q1.85 1 4.05 1.1 2.75.1 5.05-1.25h.05z"/><path d="M26.05 27.45q0-2.05.4-3.2.45-1.35 1.5-2.4t2.4-1.5l2.8-.25q1.5.25 2.65 1.05 2.65 1.85 3.25 5.95.4 2.8-.25 5.6l-.4 1.3 2.5.6 2.15-.25.75-.7.7-.75q.75-.6 1.8-.45 1.1.1 1.65.9.4.65.6 1.85l.05 2q-.2 1.6-1.45 2.95-1.1 1.25-2.75 1.9-2.35 1-6.6.7l-2.55-.35q-1.7-.4-3.15-1.3l-1.95-1.2q-2.55-2.05-3.45-5.55-.4-1.5-.5-3.1-.25-1.9-.15-3.8m-1.1 0q.1 1.9-.15 3.8l-.5 3.1q-.9 3.5-3.45 5.55l-1.95 1.2q-1.45.9-3.15 1.3l-2.55.35q-4.25.3-6.6-.7-1.65-.65-2.75-1.9Q2.6 38.8 2.4 37.2q-.15-.85.05-2 .2-1.2.6-1.85.55-.8 1.65-.9 1.05-.15 1.8.45l.7.75.75.7 2.15.25 2.5-.6-.4-1.3q-.65-2.8-.25-5.6.6-4.1 3.25-5.95 1.15-.8 2.65-1.05l2.8.25q1.35.45 2.4 1.5t1.5 2.4q.4 1.15.4 3.2"/><path fill="#fff" d="m25.6 21.85.2.05h.1l.15.05.15.05.1.05.05.05.1.1.1.05.05.05.05.05.1.1.05.1v.05h.05v.05l.05.05.25.35.05.05.05.05.05.1.05.05v.05l.05.05.05.05v.05l.05.1v.05l.05.05v.05l.05.05v.15l.05.05v.1l.05.05v.6h.85l.15.05h.1l.15.05.15.05.15.05.1.05.1.1.1.05.1.05.05.05.1.05.05.05.05.1.05.05.05.05.1.1.05.05.05.1v.05l.05.05.05.05V26l.05.05v.1l.05.05.05.05v.1l.05.05v.2l.05.05v.75l-.05.1v.15l-.05.05v.15l-.05.05v.05l-.05.05v.05l-.05.05-.05.1v.05l-.05.05-.05.05-.05.05v.05l-.1.1v.05l-.1.05-.05.05-.05.05-.05.05-.1.1-.1.05-.1.05-.05.05-.1.05-.15.05-.15.1h-.15l-.05.05h-.1l-.15.05h-.9V32l-.05.05v2.25l-.05.05v.5l-.05.05v.2l-.05.05v.1l-.05.1-.05.05v.05l-.05.05-.05.05v.05l-.05.1-.05.05-.1.1-.05.05-.05.05-.05.1-.1.05-.05.05-.1.05-.1.05-.1.05-.15.1h-.1l-.1.05h-.05l-.1.05h-.8l-.1-.05H25l-.1-.05h-.1l-.15-.1-.1-.05-.1-.05-.1-.05-.05-.05-.1-.05-.05-.1-.05-.05-.05-.05-.1-.1-.05-.05-.05-.1v-.05l-.05-.05-.05-.05v-.05l-.05-.05-.05-.1v-.1l-.05-.05v-.2l-.05-.05v-.5l-.05-.05v-2.25l-.05-.05v-2.65h-.9l-.15-.05h-.1l-.05-.05h-.15l-.15-.1-.15-.05-.1-.05-.05-.05-.1-.05-.1-.05-.1-.1-.05-.05-.05-.05-.05-.05-.1-.05v-.05l-.1-.1v-.05l-.05-.05-.05-.05-.05-.05v-.05l-.05-.1-.05-.05V28l-.05-.05v-.05l-.05-.05v-.15l-.05-.05v-.15l-.05-.1v-.75l.05-.05v-.2l.05-.05v-.1l.05-.05.05-.05v-.1l.05-.05v-.05l.05-.05.05-.05v-.05l.05-.1.05-.05.1-.1.05-.05.05-.05.05-.1.05-.05.1-.05.05-.05.1-.05.1-.05.1-.1.1-.05.15-.05.15-.05.15-.05h.1l.15-.05h.85v-.6l.05-.05V24l.05-.05v-.15l.05-.05v-.05l.05-.05v-.05l.05-.1v-.05l.05-.05.05-.05v-.05l.05-.05.05-.1.05-.05.05-.05.25-.35.05-.05v-.05h.05v-.05l.05-.1.1-.1.05-.05.05-.05.1-.05.1-.1.05-.05.1-.05.15-.05.15-.05h.1l.2-.05v.05h.1zm-1.4.95v-.05l-.1.15h.05zm2.7 0 .05.1H27l-.1-.15z"/></g></svg>