<svg xmlns="http://www.w3.org/2000/svg" xmlns:ffdec="https://www.free-decompiler.com/flash" ffdec:objectType="shape" width="75.7" height="43.8"><g fill-rule="evenodd"><path fill="#999" d="M30.95 42q-.2.9-1.3 1.15l-1.85.05q-3.15-.45-6-1.4-2.05-.6-3.5-1.45-3.9-2.35-5.7-7.2-1-2.6-1.15-5.35-.15-1.6.05-3.8.3-3.65.8-5.85 1.65-7.05 6.95-11.8 5.4-4.8 12.5-5.4l2.25.1q.4.1.45.3.15.35-.2.6l-.65.2q-8.5 1.35-13 6.05-1.3 1.35-2.65 3.4-1.25 1.8-1.85 3.45l-.95 3.65q-.9 4.8-.7 8.2.25 4.5 2.45 7.75 1.65 2.4 4.05 3.65 2.1 1.15 6.55 2.05 2.65.5 3.45 1.65M14.6 43.6l-1.15.05-1.5-1.15q-4.75-5.25-6.8-11.35-1.5-4.7-1-8.8.3-2.2 1.4-5.3Q7.2 12.4 9.4 9.15q2.7-4 6.25-6.15 1.5-.85 4.15-2l2.05-.85 1.2.05q.35.4-.05.9l-.8.6q-5.35 2.55-7.85 5.15-1.85 1.95-3.3 4.9Q10 13.8 8.8 17.3 7.6 21 7.4 23q-.3 2.9.8 7.2 1.25 4.25 3.05 6.75l1.95 2.5q1.15 1.45 1.55 2.65.4 1-.15 1.5M13.55 1l-3.6 2.7Q7.8 5.3 6.6 6.7 5.5 7.95 4.65 9.5.35 16.85.55 24.7q.15 8.5 5.2 14.75l.8 1.2q.35.8 0 1.4-.6.85-1.7.5-.75-.25-1.5-1.1l-1.75-2.3L0 36.3V12.05q1.7-3.5 4.3-6.35 3.75-4 8.5-5.6 1.1-.35 1.1.3zm30.4 41q.8-1.15 3.45-1.65 4.45-.9 6.55-2.05 2.4-1.25 4.05-3.65 2.2-3.25 2.45-7.75.2-3.4-.7-8.2l-.95-3.65q-.6-1.65-1.85-3.45-1.35-2.05-2.65-3.4-4.5-4.7-13-6.05l-.65-.2q-.35-.25-.2-.6.05-.2.45-.3l2.25-.1q7.1.6 12.5 5.4 5.3 4.75 6.95 11.8.5 2.2.8 5.85l.05 3.8q-.15 2.75-1.15 5.35-1.8 4.85-5.7 7.2-1.45.85-3.5 1.45-2.85.95-6 1.4l-1.85-.05q-1.1-.25-1.3-1.15m16.35 1.6q-.55-.5-.15-1.5.4-1.2 1.55-2.65l1.95-2.5q1.8-2.5 3.05-6.75 1.1-4.3.8-7.2-.2-2-1.4-5.7l-2.25-5.55q-1.45-2.95-3.3-4.9-2.5-2.6-7.85-5.15l-.8-.6q-.4-.5-.05-.9l1.2-.05L55.1 1q2.65 1.15 4.15 2 3.55 2.15 6.25 6.15 2.2 3.25 3.85 7.9 1.1 3.1 1.4 5.3.5 4.1-1 8.8-2.05 6.1-6.8 11.35l-1.5 1.15zM61.35 1q-.4-.3-.35-.6 0-.65 1.1-.3 4.75 1.6 8.5 5.6 3.25 3.55 5.1 8.2v20.55q-.95 2.45-2.4 4.7l-1.75 2.3q-.75.85-1.5 1.1-1.1.35-1.7-.5-.35-.6 0-1.4l.8-1.2q5.05-6.25 5.2-14.75.2-7.85-4.1-15.2L68.3 6.7q-1.2-1.4-3.35-3zm-27 38.4q-.45.85-2.1.3l-2.8-.9-2.95-1.1-2.2-1.15-2.75-1.7q-1.05-.95-2.2-2.6l-1.7-2.65q-1.4-2.8-1.3-6.3.05-3.2 1.35-6.5 2.55-6.55 8.2-10.75 1.1-.8 2.55-1.55 2.55-1.3 5.2-1.4l2.95-.2.85.1.85-.1 2.95.2q2.65.1 5.2 1.4L49 6.05q5.65 4.2 8.2 10.75 1.3 3.3 1.35 6.5.1 3.5-1.3 6.3l-1.7 2.65-2.2 2.6-2.75 1.7-2.2 1.15-2.95 1.1-2.8.9q-1.65.55-2.1-.3-.45-.9.95-1.85 1.85-1.15 3.55-1.65l2.2-.7 1.7-.95 2.25-1.65 1.95-2.4q1.5-2.2 1.95-4.1.35-1.45.25-3.25-.25-6.1-4-11.05-3.75-4.9-9.55-6.85l-.4-.1-2-.2-1.95-.3-1.95.3-2 .2-.4.1q-5.8 1.95-9.55 6.85-3.75 4.95-4 11.05-.1 1.8.25 3.25.45 1.9 1.95 4.1l1.95 2.4 2.25 1.65 1.7.95 2.2.7q1.7.5 3.55 1.65 1.4.95.95 1.85"/><path d="M70.05 2.9q1.45-.25 2.45 1.2l.3.6-.1 1.2-.2.25L71.35 8l-.1.15-.65 1.05-.7.75-1.55.2-.2-.05-1.5 1.9-.9.7-1.65.95-1.6-.2-2.3 1.45-1 .75-.3.25h-.35l-.2-.35.2-.4q.25-.4 1.35-1.25l1.6-1.6-.1-.4v-.75l.2-.85.9-1.1.35-.4.9-.7.95-.55-.25-.4q-.3-.9.45-1.65.5-.55 1.5-1l.95-.45.95-.35h.35q.85-.7 1.4-.8M68.8 22.85l-.45-.05-.35.15q-.45 0-.35-.35-.1-.25.15-.35l.45-.15.5-.3.6-.2 2.75-.85.9-.3 2-.2q.45.05.7.35v1.55q-.3.3-.8.45l-1.1.1h-1.1l-1.4-.05zM30.3 6.65q1.65-.75 3.35-1.15l3.25-.3h.3l3.25.3q1.7.4 3.35 1.15l1.25.65.25-.9.25-1.3q.35-1.05 1.3-1.35l1.95.1 1.1.9q2.05 2.4 3.15 5.4l.8 3.1h.2q1.4 0 2.35 1.3.6.95.8 2.65.25 2.15.1 4.15 2.9 0 5.4 1.7 2.55 1.7 3.65 4.35 1.3 3.35-.15 5.9-.65 1.15-2 2.25-1.8 1.45-3.75 2.1l-3.95.5-8.55-.75-2.05-.35.8 2q.45 1.5.3 2.4l-.1.4H27.25l-.15-.4q-.15-.9.3-2.4l.8-2-2.05.35-8.55.75-3.95-.5Q11.7 37 9.9 35.55q-1.35-1.1-2-2.25-1.45-2.55-.15-5.9 1.1-2.65 3.65-4.35 2.5-1.7 5.4-1.7-.15-2 .1-4.15.2-1.7.8-2.65.95-1.3 2.35-1.3h.2q.25-1.55.8-3.1 1.1-3 3.15-5.4.7-.7 1.1-.9l1.95-.1q.95.3 1.3 1.35l.25 1.3.25.9zM42.65 27.6l.55.95 1 .85 1.2.5 2.1.3q2.05-.1 3.25-1.6 1.3-1.55.85-3.5-.3-1.2-1.3-2.15v.2l-.4 1.6-1.1 1.15-1.9 1.15-1.55.35-2.75.05zm8.95 2q-1.4 1.4-3.5 2.35l5.95.7q4.5.3 6.55-1.45l.65-.85q.2-.6-.3-1.4-1.15-1.95-3.4-2.5l-1.6-.2-1.55-.2-.6-.15-.25.7q-.7 1.65-1.95 3m-19.45-2 .05-.15-2.75-.05-1.55-.35L26 25.9q-.8-.5-1.1-1.15l-.4-1.6v-.2q-1 .95-1.3 2.15-.45 1.95.85 3.5 1.2 1.5 3.25 1.6l2.1-.3 1.2-.5 1-.85zm4.15 3.55q.55-.3 1.1-.35l1.1.35.6.55.2.4q.35.7 1.05.85.75.15 1.3-.3.55-.35.65-1.2l-.25-.9-.7-.7-1.05-.6-.95-.3-.55-.1-.25-.05v-.75l-.15-.95-.4-.45q-.25-.25-.6-.2-.35-.05-.6.2l-.4.45q-.15.3-.15.95v.75l-.25.05-.55.1-.95.3-1.05.6-.7.7-.25.9q.1.85.65 1.2.55.45 1.3.3.7-.15 1.05-.85l.2-.4q.15-.35.6-.55M1.95 4.2q.2-.65 1.2-1.35l.7-.4 1.3-.1q.8 0 1.35.35.65.3 1.15 1.1l.05.05q.4 0 .95.4l.7.65.3.55.25.85v.6l.55.35.95 1.3.75 1.65.1 1-.05.9-.3.65.35.45.75.75.15.35 1.3 1.85.15.25v.3l-.4.1-.3-.2-.8-.6-.5-.65-.45-.55-1-1-.25-.2-.9.25-1.25-.15-.85-.65-1.2-1.2-.9-1.3-.1-.15-1.15.15-1.15-.45-.55-.75-.4-1.05.05-.85-.1-.15-.55-.9-.1-.95zM.1 25.85 0 25.8v-3.85q.6-.6 1.45-.4l.75.25.75.6.6.7.1.15 1.35-.4.35-.15 2.75-.75 1.25-.4.6-.15.7.05.5-.1.5.05-.2.5-.6.4-.6.25-1.5.8-2.2.65-.85.3-1.75.8-.2 1.7-.1.05-.3.75-.4.65-1.2.95-1.3.1L0 29v-2.9zm22.4 3.75q-1.25-1.35-1.95-3l-.25-.7-.6.15-1.55.2-1.6.2q-2.25.55-3.4 2.5-.5.8-.3 1.4.15.5.65.85 2.05 1.75 6.55 1.45l5.95-.7q-2.1-.95-3.5-2.35"/><path fill="#fff" d="m42.65 27.6-.05-.15 2.75-.05 1.55-.35 1.9-1.15 1.1-1.15.4-1.6v-.2q1 .95 1.3 2.15.45 1.95-.85 3.5-1.2 1.5-3.25 1.6l-2.1-.3-1.2-.5-1-.85zm-6.35 3.55q-.45.2-.6.55l-.2.4q-.35.7-1.05.85-.75.15-1.3-.3-.55-.35-.65-1.2l.25-.9.7-.7 1.05-.6.95-.3.55-.1.25-.05v-.75q0-.65.15-.95l.4-.45q.25-.25.6-.2.35-.05.6.2l.4.45.15.95v.75l.25.05.55.1.95.3 1.05.6.7.7.25.9q-.1.85-.65 1.2-.55.45-1.3.3-.7-.15-1.05-.85l-.2-.4-.6-.55-1.1-.35q-.55.05-1.1.35m-4.15-3.55-.55.95-1 .85-1.2.5-2.1.3q-2.05-.1-3.25-1.6-1.3-1.55-.85-3.5.3-1.2 1.3-2.15v.2l.4 1.6q.3.65 1.1 1.15l1.9 1.15 1.55.35 2.75.05z"/></g></svg>