<svg xmlns="http://www.w3.org/2000/svg" xmlns:ffdec="https://www.free-decompiler.com/flash" ffdec:objectType="shape" width="75.6" height="41.35"><g fill-rule="evenodd"><path fill="#999" d="M25.4 37.9q3 1.25 5.2 1.7l5.4.6q10.6.4 15.85-3.9 3.4-2.8 4.85-7.5 1.3-4.35.7-9.2-.35-2.6-1-4.1l-.25-.6 3.6-9.05.2-.8q.2-1.15-.4-1.8Q59 2.6 57.8 2.8l-1.75.7-.55.25-1.65.6-1.45.5-2.5 1-1.05.5Q47.2 5.1 45.6 4.4l-1.8-.65Q41.15 2.95 38 3l-2.8.2q-4.65.6-8.3 2.9l-1.25-.65-2.7-1.4-1.65-.75-2.15-.75-1.2-.1-.45.15-.35.25-.4.5-.2 1.2.35 2.35.25.95L18 11l.25.5.4 1.6.5 1.1v.1l.05.1.15.55q-2.15 4.8-2.15 10.2 0 6.2 2.9 9.35 1.6 1.8 5.3 3.4M0 0h75.6v41.35H0z"/><path fill="#fff" d="M25.4 37.9q-3.7-1.6-5.3-3.4-2.9-3.15-2.9-9.35 0-5.4 2.15-10.2l-.15-.55-.05-.1v-.1l-.5-1.1-.4-1.6L18 11l-.85-3.15-.25-.95-.35-2.35.2-1.2.4-.5.35-.25.45-.15 1.2.1 2.15.75 1.65.75 2.7 1.4 1.25.65q3.65-2.3 8.3-2.9L38 3q3.15-.05 5.8.75l1.8.65q1.6.7 3.25 1.95l1.05-.5 2.5-1 1.45-.5 1.65-.6.55-.25 1.75-.7q1.2-.2 1.75.45.6.65.4 1.8l-.2.8-3.6 9.05.25.6q.65 1.5 1 4.1.6 4.85-.7 9.2-1.45 4.7-4.85 7.5Q46.6 40.6 36 40.2l-5.4-.6q-2.2-.45-5.2-1.7"/><path d="m51.5 24.45 1.05-.9.9-.85.25-1.4.15-.85-.05-.8-.2-1.2-.3-1.2q-.35-.7-1.3-1.55-1.65-1.45-2.85-1.55l-2.25.15h-1.1q-.6.15-1.45 1.2-.8 1.1-.8 1.85.05.6.5 1.4L45 20q.6.55 1.55.7l1.55-.1q.9-.4.8-1.2l-.3-.65q-.35-.3-.7-.25-.2.35-.65.5l-.75-.1q-.85-.4-.65-1.4.15-.8 1-1.2l1.6-.25q1.3.15 2.3 1.1 1 1 1.2 2.3l-.1 1.4-.8 1.35-1.95 1.35-2.35.2-1.4-.5-1.65-.85q-1.15-.8-1.85-2.1-.75-1.25-.8-2.7-.1-3.05 2.15-5.1.8-.7 1.7-1l1.9-.1 2.65-.15q2.9.2 5.45 3.3l1.05 1.5.75 2.6.2 2.35-.3 1.75-.5 1.3-1.15 1.3q-2.35 2.1-4.65 2.35l-1.15-.1q-.7-.25-.7-.9.05-.35.45-.85l1.3-.7zm-8.05.65 1.85 1.85q1.8 2.45 1.35 5.5-.2 1.3-.75 2.05-.65 1-1.75 1.15-1 .1-2.35-.75-1.7-1-2.2-1.1l-1.25-.15q-1.95.1-3.5.85l-2.55 1.55q-1.55.9-2.75 1.05l-1.45-.15q-.8-.35-1.35-1.4-.55-1.15-.45-2.45.1-1.35 1.25-3.35.6-1.15 1.25-1.85l.3 1.4.15.65.5.65.1.25.35.25.35-.2.5-1.05.1-.55.4-1.6.2-1.45v-.45q1.4-.5 2.9-.5l.05-.35.1-1.3.15-.65.1-.3.05-.3.15-.3.15-.15v-.05l.2-.3.1-.15.45-.25.5-.2q.65-.1 1.05.25.45.3.55.95v.4l-.15 1.45 2.05-.15V25l.2 1.15q-.15.45.15 1.4l.1.75.2.75q.3.5 1 .4l.75-.75.15-.85.45-1.15.25-1.5zm-19.85-.65 1.3.7 1.3.7.45.85q0 .65-.7.9l-1.15.1q-2.3-.25-4.65-2.35L19 24.05l-.5-1.3q-.3-1.1-.3-1.75l.2-2.35q.3-1.65.75-2.6l1.05-1.5q2.55-3.1 5.45-3.3l2.65.15 1.9.1q.9.3 1.7 1 2.25 2.05 2.15 5.1-.05 1.45-.8 2.7-.7 1.3-1.85 2.1l-1.65.85-1.4.5-2.35-.2q-1.15-.45-1.95-1.35l-.8-1.35q-.2-.55-.1-1.4.2-1.3 1.2-2.3 1-.95 2.3-1.1l1.6.25q.85.4 1 1.2.2 1-.65 1.4l-.75.1-.65-.5q-.35-.05-.7.25-.3.25-.3.65-.1.8.8 1.2l1.55.1q.95-.15 1.55-.7l.95-1.25.5-1.4q0-.75-.8-1.85-.85-1.05-1.45-1.2h-1.1l-2.25-.15q-1.2.1-2.85 1.55-.95.85-1.3 1.55l-.3 1.2-.2 1.2-.05.8.15.85.25 1.4.9.85z"/><path fill="#fff" d="m67.6 28.25-2-.3q-1.35-.6-2.45-3.05l-.25-.3-.35-.15-.6-.05-.85.3-.85.05-.4-.55q-.15-.5.2-1 .3-.5.85-.7l2.2-.15.65.1q1 .1 1.45.35l.95 1.35q.6.95 1.25 1.05.4-1.45 1.5-2.5.65-.55 1.2-.75l1.3-.2q1.55 0 2.4.7.55.45.7 1.2.2.75-.15 1.35-.35.65-1.1.9l-1.35-.1-.6-.15-.35.25-.85 1.05-.95.9zm.25-21.85q.55-.25 1.3-.35 1.4-.15 2.55.35 1.4.7 1.55 2 .15 1.45-1.1 2.1-1.2.7-2.4-.2-.45.65-.6 1.9l-.05 1.45q-.15 1.45-1.35 2.5-1.2 1-2.7.9-1.45-.1-3.85-1.7-.45.15-1.25 1.05-.7.8-1.4.6-.75-.25-.65-1.2l.6-1.3q.8-1.1 1.35-1.45L62 12.7q.75.1 2.05.7l1.1.4.15-2.4q.15-1.95 1.05-3.5.7-1.1 1.5-1.5m-27.7 17.5.2-.7q.45-1.05 1.4-1.05l.2-.05q1 .1 1.55.9.3.55.2 1.25l-.25.85-.05.1-.25 1.5-.45 1.15-.15.85-.75.75q-.7.1-1-.4l-.2-.75-.1-.75q-.3-.95-.15-1.4l-.2-1.15zm-11.35 4-.15-.55-.15-.35q-.15-.3-.15-1v-.6q0-.6.5-1.1.55-.45 1.1-.45l.1-.05q1.25.2 1.55 1.15l.15.65v.65l-.2 1.45-.4 1.6-.1.55-.5 1.05-.35.2-.35-.25-.1-.25-.5-.65-.15-.65zm35.5 5.9.8-.3 2.4-.45 1.55.15q.7.2 1.65 1.25l.95 1.15.4 1.35v1q-.2.65-.8 1l-1.3.2q-.9-.15-1.4-1.1l-.25-.75-.4-.6-1-.15-1.15.1-1.1.05q-1.55-.05-2.65-1.2-1.1-1.2-.95-2.75l-.05-.3-.3-.05q-.55.1-.95-.35-.35-.55-.15-1 .3-.6 1.15-.6.95-.05 1.8.55.8.65 1.05 1.6l.15.75zM7.65 6.4q.8.4 1.5 1.5.9 1.55 1.05 3.5 0 1.9.15 2.4l1.1-.4q1.3-.6 2.05-.7 1.2-.15 2.15.35.55.35 1.35 1.45l.6 1.3q.1.95-.65 1.2-.7.2-1.4-.6l-1.25-1.05q-2.4 1.6-3.85 1.7-1.5.1-2.7-.9-1.2-1.05-1.35-2.5l-.05-1.45q-.15-1.25-.6-1.9-1.2.9-2.4.2-1.25-.65-1.1-2.1.15-1.3 1.55-2 1.15-.5 2.55-.35zm.25 21.85-1.55-.4-.95-.9-.85-1.05-.35-.25-.6.15-1.35.1q-.75-.25-1.1-.9-.35-.6-.15-1.35.15-.75.7-1.2.85-.7 2.4-.7l1.3.2 1.2.75q1.1 1.05 1.5 2.5l1.25-1.05q.5-1 .95-1.35.45-.25 1.45-.35l.65-.1 2.2.15.85.7q.35.5.2 1l-.4.55-.85-.05q-.65-.3-.85-.3l-.6.05-.35.15-.25.3q-1.1 2.45-2.45 3.05zm3.3 5.55.55-.45.15-.75q.25-.95 1.05-1.6.85-.6 1.8-.55.85 0 1.15.6.2.45-.15 1-.4.45-.95.35l-.3.05-.05.3q.15 1.55-.95 2.75-1.1 1.15-2.65 1.2l-1.1-.05-1.15-.1-1 .15-.4.6-.25.75q-.5.95-1.4 1.1l-1.3-.2q-.6-.35-.8-1v-1l.4-1.35.95-1.15q.95-1.05 1.65-1.25L8 33.05q1.6 0 2.4.45z"/></g></svg>