<svg xmlns="http://www.w3.org/2000/svg" xmlns:ffdec="https://www.free-decompiler.com/flash" ffdec:objectType="shape" width="75.9" height="40.35"><g fill-rule="evenodd"><path fill="#999" d="M63.6 13.35q-2 1.35-3.1 1.2t-1.75-1.15q-.55-1-.3-2.1.25-1.05 1.3-2.1l.95-.85-.1-.55-.6-1q-.35-.75.15-1.05.4-.2 1.1.3L62.6 7.4l1.9-.25.55-2.45.25-.5.2-.7.45-.65.4-.2.45.45.2 1.45-.1.55v.75l-.05 1.1.05.65.95.45.5.3 2-1.4q.4-.4.75-.45l.45.05.25.35-.15.5-1.8 2.4.55.9.4.9.9.15 1.4-.05 2.25.35.45.45q.2.4-.1.6l-.35.15-1.7.25-.75.05-1.15.3-.5.1v.4l-.2 1.5-.1.45.45.45.15.3 1.7 1.9.2.55-.3.4q-.25.2-.55 0l-.4-.25-.55-.3-.5-.2-.55-.5-.85-.55-.55.45q-1.3.9-2.45.85-1.45 0-2.25-1.1-.4-.55-.4-1.25 0-.75.4-1.25l.6-.55.5-.7q.25-.6-.15-1.15-.35-.6-1.05-.45-.4.05-.8.4M59.2 24.4h3.25l.8.05h.25l.1.05h.15l.15.05h.1l.1.05.15.05.2.1.15.05.1.1.1.05.05.1.05.05.05.1.05.05.05.1.05.05v.1l.05.1v.5l-.05.1v.1l-.05.05v.1l-.05.05-.05.1-.05.05-.1.1-.05.05-.15.1-.1.1-.15.05-.15.05-.1.05H64l-.1.05h-.15l-.15.05h-.1l-.25.05H58.6l-.35-.05H58l-.15-.05h-.15l-.45-.05h-.8l-.25-.05h-.15l-.15-.05h-.15l-.1-.05h-.1l-.2-.05-.55-.05h-.35l-.35-.05h-.2l-.1-.05h-.2l-.1-.05h-.1l-.2-.05h-.55l-1-.05h-.25l-.2-.05h-.1l-.2-.05h-.1l-.1-.05h-.2l-.15-.05h-.3l-.3-.05h-.65l-.15-.05-.15-.05-.15-.05-.05-.1-.05-.1-.05-.05v-.25l.05-.05v-.1l.1-.05.1-.1.1-.05.1-.05h.15l.65-.05h.3l.3-.05h.15l.2-.05h.1l.1-.05h.2l.1-.05h.2l.25-.05h1l.55-.05h.2l.1-.05h.1l.2-.05h.1l.2-.05h.35l.35-.05h.55l.2-.05h.1l.1-.05.15-.05h.15l.15-.05h.25l.8-.05h.45l.15-.05H58l.25-.05h.95zm-36.95 2.35q-.8-.3-2.75-1.8l-2.25-1.85q-1.2-1.15-1.7-2.3-.5-1.05-.6-3.05-.4-5.6 1.2-8.75l1.1-1.65-.15-.6-.2-.5-.4-3.05q-.1-.8.05-1.15.3-.65.9-.5l.65.65.85 1.4.2.5.65 1 .5-.3q1.35-.75 2.75-1.05l.2-.45.6-2.05.2-.45.15-.5q.15-.25.45-.3l.45.15.3.5.9 2.9v.05q1.8.2 3.9 1.15l.3.15.5-.65 3.65-3.6q.55-.45.85-.4.4.1.4.5l-.15.55-.85 1.6-1.2 2.7-.4.95q1.25 1 2.2 2.3l7-1.25.7.15.45.4-.45.55-4.25 2.1-1.85 1.55q.65 2.4.35 4.75l2.15.45 1.6.35.4.1.4.45-.1.6-.6.25-1.6.35-3.15.7-1.6 2.45-.55.65 1.05 2.45.45.85.05.6.2.65-.3.25-.6-.3-.4-.1-.45-.25-1.8-1.3-.95-.95-.75.25-3.6 1.05q-3.05.9-5.05.1m37.3-6.85.25.05h.25l.1.05h.1l.15.05h.1l.05.05.15.05.2.05.15.1.15.1.1.05.1.1.1.05.05.1.05.05.05.1.05.05.05.1.05.1v.05l.05.1v.55l-.05.05v.1l-.05.05v.1l-.05.05-.05.1-.05.05-.1.1-.05.05-.1.1-.15.1-.1.05-.15.1-.15.05-.15.05-.1.05h-.05l-.1.05h-.15l-.1.05h-.1l-.25.05h-2.7l-.5-.05h-.25l-.2-.05h-.2l-.15-.05h-.25l-.2-.05h-.15l-.1-.05h-.2l-.2-.05h-.15l-.15-.05h-.15l-.15-.05h-.3l-.25-.05h-.2L53 22.6h-.4l-.4-.05h-.4l-.35-.05-.3-.05h-.3l-.35-.05h-.4l-.3-.05h-.25l-.2-.05H49l-.8-.05h-.55l-.85-.05h-.3l-.2-.05h-.25l-.5-.05h-.6l-.15-.05-.2-.05-.15-.05-.1-.1-.05-.05-.05-.1v-.3l.05-.1v-.05l.1-.1.1-.05.1-.05.05-.05.15-.05h.15l.6-.05h.5l.1-.05h.35l.3-.05h.85l.55-.05h.8l.35-.05h.2l.25-.05h.3l.4-.05h.35l.3-.05h.3l.35-.05h.4l.4-.05h.4l.35-.05h.2l.25-.05h.3l.15-.05h.15l.15-.05.15-.05h.2l.2-.05h.1l.15-.05h.2l.25-.05h.2v-.15l-.4-.05h-.5l-.35-.05h-.45l-.1-.05h-.05l-.6-.05h-.25l-.25-.05h-.2l-.45-.05h-.35l-.25-.05h-.2l-.15-.05-.1-.05H51l-.3-.05h-.3l-.2-.05H50l-.05-.05h-.35l-.45-.05h-.6l-.25-.05h-.2l-.15-.05h-.1l-.15-.05h-.15l-.05-.05h-.4l-.05.05h-.4l-.2.05-.2-.05-.05-.1-.05-.05v-.1l-.05-.1.05-.05v-.1l.05-.05.05-.1.15-.05h.15l.1-.05.1-.05.05-.05h.15l.2-.05h.35l.05-.05h.15l.15-.05h.1l.15-.05.2-.05h.05l.2-.05h.3l.2-.05.2.05h.4l.3-.05H50l.2-.05h.2l.3-.05h.3l.35-.05h.1l.15-.05h.2l.25-.05h.35l.45-.05h.2l.25-.05h.25l.55-.05h.1l.1-.05h.25l.55-.05h1.1v-.05h2.15l.25.05h.2l.15.05h.1l.05.05h.1l.2.05.15.05.1.05h.1l.1.05h.1l.2.05.15.05.05.05.15.05.15.05.15.1.05.1.1.05.1.1v.05l.05.1.05.05v.25l-.05.1-.05.05-.05.1-.1.05-.05.1-.1.05-.15.1-.1.05h-.05l-.2.05-.1.05-.1.05-.1.05h-.1l-.1.05h-.1l-.15.05-.15.05-.15.05h-.1l-.05.05h-.1l-.15.05h-.2l-.25.05zm-1.85.05v-.05h-.1v.05zM56.4 35q-.35.4-.9.4t-.85-.4q-.35-.35-.25-.95.05-.55.45-.85l.9-.45 1.45-.95.65-.2.45.4-.35.6-.6.65zm5.5-3.7-.3 1.9v.25l-.1.55-.15.65-.1.85-.4 1.2-1.1.65-.85-.25q-.55-.45-.55-1.05-.05-.6.45-1.1l.35-.55.2-.2.55-1.2.15-.45.2-.35.3-.9q.25-.55.8-.65.65 0 .55.65m3.1 4.85q-.35.7-1.1.55-.75-.1-1-.8V35l.2-.9q0-1.3.25-1.85l.25-.4.45-.05.2.25.85 2.85q.15.8-.1 1.25"/><path d="m57.1 20.1.25-.5q-1.55.05-3.05-.75-2.05-1.05-2.8-3.3-.6-2.2.45-4.2l-.15-.15q-.5-.3-.8 0l-.2.4-.6 2.25-.25 1.2-.4 1.1-.75 1.1q-.45.45-1.2.45-.75.05-1.35-.3-1.2-.8-1.3-2.3-.1-1.65 1.1-2.25l.6-.1.35.45-.3.5q-.35.4-.35.95t.3.95q.25.35.55.35.55 0 .75-.7l.25-1.4q.1-2.3.35-3.1Q49 9 50.3 8.3l.9-.35 1-.2q1.35-.1 2.3.8.8-.5 1.75-.85l5-.3q3.2.5 5.25 2.35 2.35 2.1 2.5 5.05.05 1.5-.6 2.85l-.2.4q1.05.95 1.6 2.3.5 1.2.45 2.4l.55.45q.75.7 1.05 1.7.35 1.3-.15 2.75-.55 1.6-1.85 2.45-1.4 1-3 .7l-1.8-.55-.75-.4-.55-.5h-.1q-1.55.1-2.95-.5l-.05.05-.3.4-1.05.65-1.65.4-1.25-.15q-1.2-.3-1.95-1.2-.6-.7-.8-2.05l.1-1.4.2-.75.4-.9.55-.7q.65-.65 1.4-.8l.25-.05q.05-1.15.55-2.25m.55 5.55 1.6.2q.85-.25 1.35-.9t.45-1.5q-.1-.9-.65-1.5-.5-.6-1.4-.7-.85-.1-1.55.35-.7.4-.95 1.25-.3.8 0 1.6.4.85 1.15 1.2m6.1-1.5.2.95 1.35-.3 1.7-.15 2.25.2v-.1q.15-.85-.1-1.6l-.1-.2-.35.25-.8.35-.85.3-.5.2-.85.1-.9-.05-1.05-.15zm2-3.8-1.1.1q-1.15.35-2.1-.3l-.65-.35-.65-.15q-.35 0-.6.3t-.15.65l.55.7.85.3.35.1v.05l.1.35v.3l.15.35.35.2.35-.15.1-.35-.05-.05.3-.55.05-.15.2-.05.95-.2.95-.45.3-.3zM20.8 31.9l-1.4-.1q-.15 2.05.9 3.1l.8.6q1.25.8 2.3.85h.2l.1-.25q.1-1.05.6-1.95.6-.95 1.5-1.3l1.95-.1q.65.15 1.1.55 1.1.8 1.1 2.3-.05 1.35-.95 2.45-1.15 1.5-3.05 1.8l-2.3.05-1.8-.3q-1.1-.3-2.65-1.5L18.05 37l-.15-.25v1.75l.15 1 .05.85H5.05v-.6l-.7-.95-.35-1-.85-1.25-1.2-.75-.8-.25q-.65-.3-.95-1-.3-.65-.1-1.3.25-.7.85-1.05.65-.4 1.3-.25l1 .4.65.45.75.7 1.3 1.65.25.55q1.15-2.45 3.35-4.75l.5-.5Q8.4 30.2 7 29.55q-1.65-.75-2.85-2.1-1.25-1.4-1.75-3.1-.25-1.1-.25-2.75.1-1.75.35-2.6.9-3 3.9-4.65l1.05-.6.7-.9.1-1.3q.1-.7.6-1.3Q9.3 9.7 10 9.5l1.4.05.3.15.25-.75Q12.9 6.7 14.2 4.8l.45-.5.05-.15q.15-.4.65-.65l.95-.15q1.05.15 1.95 1.05l1.2 1.9.3.5h.1q4.8-.5 9.5 2.2l.9.6 1.95-.9 1.25-.35q.95-.1 1.5.65.4.6.5 1.8.35 4.4-.6 8.55l-.2 1.4q-.55 3.2-2.35 5.75l-2.35 2.6q-3.8 3.05-9.15 2.8m13.1-11.5v-.05l-.35.2-2.55.7-.85.05H28.4l-.7-.05.15.95.4-.05h1.7l1.8.25 1.25.4.25.25.35-.55.25-.5.1-.85zm-10.8 2.4-.6-.15-.25.05-.95.05-.85.25-.4.45-.25.75.15.7.2.25q.3.4.85.5l.95-.1.65-.4 1.1-.15.85.05.8.15.5.1.5-.1.2-.45-.25-.4-.2-.45-.25-.2-.9-.35-.25-.15-.1-.05v-.25l.2-.35q.3-.5.1-.95-.3-.4-.7-.35-.45.1-.55.55l-.1.45.05.1-.1.5zm-7.3-5.6q-.7 1.05-.65 2.3l2.15-.05 2.8.6.65.25.25.2.6.2.35.2.1.1.5-.95.05-.15q-1.7-.15-3.55-1.2l-1-.55-1.85-1.5zm-5.85 8.9q-1.9-3.2-1.1-7.65l-1.3.45q-1.3.85-1.3 3.1 0 1.65.6 2.7.65 1.2 2.15 2.15 1.45 1.05 3.1 1.85l.05-.05q-1.35-1.15-2.2-2.55"/><path fill="#fff" d="m65.75 20.35.25.35-.3.3-.95.45-.95.2-.2.05-.05.15-.3.55.05.05-.1.35-.35.15-.35-.2-.15-.35v-.3l-.1-.35v-.05l-.35-.1-.85-.3-.55-.7q-.1-.35.15-.65t.6-.3l.65.15.65.35q.95.65 2.1.3zm-2 3.8v-.2l1.05.15.9.05.85-.1.5-.2.85-.3.8-.35.35-.25.1.2q.25.75.1 1.6v.1l-2.25-.2-1.7.15-1.35.3zm-6.1 1.5q-.75-.35-1.15-1.2-.3-.8 0-1.6.25-.85.95-1.25.7-.45 1.55-.35.9.1 1.4.7.55.6.65 1.5.05.85-.45 1.5t-1.35.9zM15.8 17.2l.4-.55 1.85 1.5 1 .55q1.85 1.05 3.55 1.2l-.05.15-.5.95-.1-.1-.35-.2-.6-.2-.25-.2-.65-.25-2.8-.6-2.15.05q-.05-1.25.65-2.3m7.3 5.6.4.05.1-.5-.05-.1.1-.45q.1-.45.55-.55.4-.05.7.35.2.45-.1.95l-.2.35v.25l.1.05.25.15.9.35.25.2.2.45.25.4-.2.45-.5.1-.5-.1-.8-.15-.85-.05-1.1.15-.65.4-.95.1q-.55-.1-.85-.5l-.2-.25-.15-.7.25-.75.4-.45.85-.25.95-.05.25-.05zm10.8-2.4.05.75-.1.85-.25.5-.35.55-.25-.25-1.25-.4-1.8-.25h-1.7l-.4.05-.15-.95.7.05h1.75l.85-.05 2.55-.7.35-.2z"/></g></svg>