<svg xmlns="http://www.w3.org/2000/svg" xmlns:ffdec="https://www.free-decompiler.com/flash" ffdec:objectType="shape" width="76.35" height="44.2"><g fill-rule="evenodd"><path fill="#999" d="m8.75 1.55 1.4-.85Q10.9.35 11.8.2q3.8-.65 5.9.7 1.55 1.05 2.75 3.55L21 6.2q.15 1.4-.75 3-1.55 2.45-4.35 3.2v.05q-.05.85-.75 1.7l-.8.6-.9.1q-1-.2-1.45-.7l-.25-.55-.25.45-1 .6-1.9-.1q-1.05-.55-1.15-1.5v-.3H7.1l-1.6-.3q-.6-.3-.7-1.05-.15-.75.15-1.4.35-.8 1.3-1.4l-.3-.7Q5.7 7 5.8 5.55q.2-1.6.75-2.4.4-.6 1.25-1.1zm47.75.1 4.1-.2q2.3.45 3.65 1.85l1.15 1.4q1 1.45 1.25 2.4.5 1.3.25 2.85l-.15.9.9.55.85 1q.3.7-.05 1.45l-.9 1.15q-.95.75-1.75.75l-.7-.05.05.15q.3 1.05.2 1.65-.25.75-.85 1.05l-1.3.1q-.7-.2-1.15-1l-.3-.95-.45.2v.05q.15 1-.35 1.8-.45.7-1.25.85-.85.15-1.55-.4-.6-.5-.9-1.35l-.1-.75-1.85-.55q-1.6-.55-2.55-1.3-1.55-1.2-2.95-4.65l-.65-2.05q-.15-1.35.4-2.7.65-1.9 2.3-3.4 1.65-1.45 3.1-1l.8.3zm15.95 15.1q1.25-.7 2.25-.6.6.1 1 .6.45.5.35 1.05l-.35.95-.05 1q.3 4.2-.15 8.3v.75l.25.6q.25.6.05 1.3l-.1.25q.15.6-.3 1.1-.65.7-1.5.4l-.65-.4-1.1-.55q-.95-.7-1.8-2.4-1.3-2.45-1.7-4.5-.45-2.7.6-4.7l1.05-1.4q.9-1.05 2.15-1.75M65.55 24q1.25 1.95 1.5 3.55.25 1.65-.35 3.3l-.05.25 1.2 1.15.9 1.35q.35.85-.05 1.6-.3.8-1.25.9-.85.15-1.65-.5l-.7-.55.3.95q.1.7-.2 1.3l-.95.85q-.75.3-1.75-.35l-1.25-1.15q-.1.8-.7 1.3-.65.55-1.4.4l-.9-.55q-.3-.35-.5-1.25l-.15-.7-.9-.25q-.8-.3-1.55-.95l-1.6-1.45-1.15-1.65q-.25-.65-.35-1.7-.15-3.15 1.3-5.55 1.7-2.75 4.55-3.3l2.8-.15 1.65.15q1.7.45 3.2 3M51.8 16.55q.8.25 2.1 1.25l.65.6.15 1.05q0 1.2-.45 1.6-.6.55-1.35.2l-1-.9q-.3-.65-.15-1.1l.05-.5-.35-.5-.6-.6q-.35-.25-.4-.5-.1-.5.5-.7zm-.6 9.75-1.05.1q-.55-.1-.85-.6-.35-.55-.15-1.1l.55-1.2-.45-1.2q-.45-.65-.25-1t.65-.35l.7.25q.85.55 1.35 1.55t.5 2.05l-.25.85zM50 37.5l2.7-.25.8.15.75.45q1.7 1.25 2.15 2.75l.05.45-.05.6-.15.6q-.4 1-1.4 1.15l-.9-.15-.65-.65-1.8.8-1.9.05-.85-.45q-.85-.6-1.15-1.45-.3-1 .25-2.05.45-.9 1.35-1.55.35-.25.8-.45m18.6 5.35-.45-.6-.15-.6q-.05-.7.2-1.55l.25-.65.7-.8.95-.75 1.9-.8 1.1-.25h.9l.85.1.65.2q1 .5.85 1.6-.15 1.05-1.25 1.3.1 1.55-.45 2.2-.6.85-1.65.7l-.5-.1-.6.3q-.75.5-1.7.4-.9-.1-1.6-.7M25 11.05q.85 0 1.2.5.5.7-.15 1.35-.55.55-1.35.35h-.5l-.3.45q-.4 1.4-1.1 1.8l-1.35.1q-.75-.25-1-.9-.4-.95.2-1.8.4-.7 1.4-1.25 1.35-.75 2.95-.6M7.7 24.65q-.35-1.25 0-3.1.2-1.1.5-1.8.65-1.25 2.75-2.75 1-.7 1.55-.95l1.85-.3q2.7-.1 4.65.95 2.45 1.25 2.95 3.65L22 22.1l-.2 1.6q-.55 2.45-2.6 3.8l-.1.1.2.75q.1.9-.3 1.8-.5 1.35-1.45 1.55l-1.2-.1q-.75-.25-1.2-.65l-.75.85q-1.2.95-2.55.35-1.3-.55-1.6-1.85l-.6.05q-1.05.1-1.7-.5-1.15-.9-.75-2.7.15-.9.75-1.4l.15-.1zm17.8 2.4.05.35.45.25q.35.15.5.6l-.05.8q-.45.9-1.4.7-.85-.15-1.35-.95l-.35-.8q0-.45.15-.85.3-.75 1.25-1.7l.5-.45q.55-.55.9-.6l.5.2.2.45-.5.5q-.75.55-.85 1.5m-19.35-5.9-.45 1-1.2 2.35-.8 1.05-1 .7q-.85.3-1.65-.3-.75-.45-1-1.4l-.05-.7q.05-.6.7-1.45l.75-1.2.35-1.1-.55-1.55-.8-1.65-.4-1.4q0-1.1 1-1.6l1.85-.1q1.1.45 2.2 2.4l1.05 2 .15 1.25zm-5.8 15q-.2-1.9.4-2.85l.9-.85q1.8-1.1 4.1-.7 1.9.35 3.7 1.9 1.75 1.5 2.5 3.65.75 2.3-.1 4.35L10.8 43.1q-.75.65-1.65.4l-.45-.15h-.5l-5.05.15-1.65-.25q-.6-.3-.9-1.05-.3-.7-.2-1.45l.15-1.05z"/><path d="M48.9 16.05q.1 3.5-1.3 6-1.2 2.2-3.35 3.6l.1 1.5q0 .6.15.8l.65.4q1.8.7 2.45 2.55l.3 1.3.15 1.85q-.15 1.75-2.45 3.85.45.65.3 1.5-.1.85-.75 1.35-.8.65-2.75.55l-.85-.05-.15.25q-.6 1.15-1.25 1.45l-1.8.2-1.05-.2q-1.05.9-2.85.5-1.4-.4-1.9-1.2h-.15l-1.3.35-1.55.2q-1.25 0-1.8-.4l-.8-.8q-.4-.5-.45-.9-.15-.85.5-1.6l-1.25-1.65-.6-1.25q-2.25.7-3.45 1.4l-2.1 1.5.85-.15 1.7-.1q.9.05 1.7.5.8.5 1.05 1.3.4 1.4-.7 2.4-.9.9-2.35 1.05l-2.7-.3q-1.25-.1-2.7-.85l-1.05-.8q-.35-.5-.35-1.55 0-1.45.15-1.9l.75-1.3q1.4-1.8 4-3.1 1.55-.75 4.85-1.75l.65-.15q.15-.45.45-.85.85-1.2 2.05-1.85l1.05-.9.15-.8.3-1.05.55-1.15-1.4-1.05q-1.55-1.35-2.35-3.2-.8-1.95-.6-3.9.1-1.1.7-2.75l1.05-2.15.5-.65-.6-.95q-.15-.4-.15-1.35 0-1.25.15-1.85l.95-2 .4-1.1q.2-.7.5-1.1.45-.55 1.25-.7.7-.1 1.35.4l.8 1 1 1.9.75 1 6.8-.2.35-.35q1.15-.95 2.4-2.65.75-1.15 1.3-1.4.5-.2 1 0l.8.6.35 1.25.5 1.75.4 1.75.1 1.25.1.85-.05.75.1.7.1 1v.25q.35 1.4.35 3.15M36.8 19.2l-.1 1-.6 1.05-1.3 2.2q-.65 1-.55 1.55l.5.55.75.05.75-.7 1.65-1.95.35-.35.25.4.6 1.25 1.05 1.1 1.4.15q.35-.3.35-.9l-.35-.95-1.4-2.8q-.5-.95-1-1.15l-.1-.45-.25-1.8-.1-.6q-.15-.3-.5-.35l-.6.15q-.25.25-.35.7zm8.3-.45.75-.1.7-.3q1.45-.8 1.35-2.6l-.15-1.15-.3-1.1-.55-.75-.65-.45-1.45-.15-1.35.05q-1.1.25-1.8 1.15l-.3.45-.15.5q-.25.95-.1 1.9.25 1 .9 1.65 1.05 1 3.1.9M34.7 14.9q-.25-1.15-1-1.7-.7-.5-1.7-.5l-1.85.25q-1.65.85-1.65 2.95-.05.65.25 1.3.4.65 1.3 1l2.05.35q1.15-.1 1.85-.8 1.1-1.15.75-2.85"/><path fill="#fff" d="M61.1 7.3q.5-.65 1.2-.8l1.1-.05q1.1.3 1.5 1 .3.5.2 1.1l-.1.8q-.45 1.15-2.05 1.25-1.4 0-2-1-.75-1.15.15-2.3m10.55 21.3.15-.8.85-1.5q.75-1.05 1.45-1.05.55-.05.95.5.35.55.1 1.1.6.3.8 1 .25.65 0 1.25-.2.6-.8 1l-1.2.35q-.85.1-1.55-.45-.65-.5-.75-1.4M54.8 11q.4-.3 1.1-.3 1.15-.1 1.65.55.45.5.35 1.75l-.15.95-.8.7-1.2.25q-.7-.05-1.25-.6-.5-.55-.5-1.25l.1-.7q.2-.95.7-1.35m-9.7 7.75q-2.05.1-3.1-.9-.65-.65-.9-1.65-.15-.95.1-1.9l.15-.5.3-.45q.7-.9 1.8-1.15l1.35-.05 1.45.15.65.45.55.75.3 1.1.15 1.15q.1 1.8-1.35 2.6l-.7.3zm-8.3.45.45-1.85q.1-.45.35-.7l.6-.15q.35.05.5.35l.1.6.25 1.8.1.45q.5.2 1 1.15l1.4 2.8.35.95q0 .6-.35.9l-1.4-.15-1.05-1.1-.6-1.25-.25-.4-.35.35-1.65 1.95-.75.7-.75-.05-.5-.55q-.1-.55.55-1.55l1.3-2.2.6-1.05zm23.95 10.95q0-.9.7-1.5T63 28.2q.95.1 1.3.75.35.5.25 1.2l-.5 1.1-.8.6-1.45-.2q-.75-.25-.95-.85zm-2.55.1.6.45.25.6q.15.95-.3 1.7-.6.75-1.45.85l-1.1-.3q-.5-.35-.7-.9-.45-1.2.55-2.1.9-.85 2.15-.3M71.45 42.8l-.7-.7q-.25-.55-.2-1.05.1-.5.5-.9.4-.35.9-.45.9-.15 1.5.6t.25 1.65q-.4.85-1.3 1zM34.7 14.9q.35 1.7-.75 2.85-.7.7-1.85.8l-2.05-.35q-.9-.35-1.3-1-.3-.65-.25-1.3 0-2.1 1.65-2.95L32 12.7q1 0 1.7.5.75.55 1 1.7M17.85 9.3l-.55 1.05-1.05.6L15 10.9q-.9-.35-1.4-1.4-.3-.7-.25-1.1.15-.8.85-1.2l1.4-.4q1.15 0 1.75.6.75.75.5 1.9M10 4.35l.8.65.25.8v.85q-.15.75-.9 1.15l-1.5.05q-1-.25-1.2-1l-.05-1 .2-.75q.2-.45.75-.7.5-.3.85-.25zM.85 22.2q.1-.7.55-1.1.4-.35 1-.4t1.05.25l.6.9q.2.55 0 1.05-.5 1.2-1.8 1.05l-1-.55q-.4-.55-.4-1.2m9.5-.6 1.7.2.65.7.2.8-.25 1.35-1.15.85-1.45-.05-.8-.6q-.35-.5-.35-1.2.05-.65.45-1.25t1-.8m7.7 4.8-.9-.25-.7-.6-.2-1.25.25-1q.3-.4.85-.55l1.45-.1q.8.15 1.2.85.3.75 0 1.45l-.95 1.1zm-14.8 13q-.95 0-1.45-.85-.5-.8 0-1.65.55-.9 1.45-.8.85.1 1.3.75.35.45.35 1.05-.05.6-.4 1-.5.6-1.25.5m2.45 2.35q0-.95.55-1.45.75-.75 2-.4 1.05.25 1.35 1.15l-.05 1.15-.75.9-1.15.5-1.15-.25q-.8-.45-.8-1.6"/><path fill="#999" d="M70.85 1.6q.9-.2 1.45.55l.2.2h.5l1-.15q.8.1 1.3.8.35.55.35 2.2l.05 2 .2 1.35.35 1.15q.1 1.2-.95 1.85l-2.05.05-.95-.8-1-1.05-1.65-2.15q-.95-1.85-.25-4.25l.5-1.05z"/></g></svg>