<svg xmlns="http://www.w3.org/2000/svg" xmlns:ffdec="https://www.free-decompiler.com/flash" ffdec:objectType="shape" width="52.6" height="36.85"><g fill-rule="evenodd"><path fill="#999" d="m39.7 9-.65.65-1-.2q-.6-.3-.85-.95l-.15-.5-.1-.85.25-.95.2-.65.55-.55 1.6-.9.6-.35q.25-.3.05-.95l-.25-.6-.1-.35q-.1-.45.35-.55.4-.15.7.15l.4.65.2.55.2 1-.1.35-.55 1.1-1 .6-.55.4-.25.3v.8l.25.3q.65.6.2 1.5m-8.2-2.05.35-.6-.25-.5-.75-.7-.65-.75-.15-.9q.1-.9.5-1.55.65-1 2.35-1.85l.3-.1q.5 0 .5.55l-.4.7-.6.5-.6 1.35-.05.3.2.2q1.4.75 1.7 1.8l.05 1-.05.75-.25.75-.8.85-.75.1-.65-.35q-.3-.3-.3-.75zM38.2 24l4.5.5q1.85.45 5.6 2.15 2.15 1.05 2.55 2.2.4 1.3-.5 2.5-.6.85-2.05 1.65-2.75 1.6-6.6 2.45l-7.1 1.05-5.5.35-1.35-.05H24.4l-8.9-.5q-3.4-.4-6.15-1.6l-.3-.15-3.15-.95q-2.3-1-2.35-2.7-.05-1.4 1.65-2.75 2.3-1.8 5.7-2.7 2.5-.7 6.4-1 10.45-.95 20.9-.45m4.1 8.5q3.55-.9 5.9-2.6-2.95-1.65-6.35-2.25l-7.5-.5-8.6.2 2 .3 6.3 1.4 1.8.35 3.6-.35 1.8-.3q1.1 0 1.6.7.6 1-.25 2.05-.5.7-1.75 1.25l-.35.15zM25.8 6.9l.8.75q.35.4.25 1t-.55.8l-1.1.05-.95-.75q-.65-1-.4-2.4.3-1.2 1.2-2.2l.5-.8q.1-.65-.8-1.55-.35-.35-.2-.6t.55-.15q.6.2.8.35.8.55 1 1.6.2 1-.3 1.8l-.7 1q-.4.6-.1 1.1"/><path d="m18.15 15.85.1 1 .35.8q.15.5-.1 1.1l-.75.8-2.15-.15q-.95-.6-1.2-1.85l-.1-1.2.05-3q.15-1 1.15-1.85l-.05-.1-.4-.65-1.25.7q-1.4.45-2.3-.35-.55-.55-.55-1.35.05-.7.5-1.25l1.1-.7h.25q.05-1.4.5-2.05.6-1 1.95-1.1 1.3-.1 2.05.8.8.9.3 2.45l-.4 1.05q-.2.55-.05 1l.2.45.8-.15 2.3.25 1.15.75q1.5 1.45 1.65 3.05l-.2.85q-.4.55-1.2.15l-.8-.55-1.3-.75-.75-.2-.45.1-.35.2-.05.35z"/><path d="M40.4 12.55h1.25q.2-.6.7-1.05l1.8-.9 2.4-.45 2.4.4 1.7 1.3q1.4 1.3 1.7 2.15l.25 1.8q.1 1.55-.45 2.7-.65 1.3-1.9 1.6l.05.15q.4 1.65.25 3.15-.15 3.5-1.85 6.3-1.95 3-4.95 4.25l-2.8.8-6.5-.35q-1.5-.45-2.7-1.25-8.45 1.1-16.1-.35-4.45-.9-5.9-3.15Q8.7 28 8.9 25.3l.1-.8-.7-.85-.85-1.25q-1.3-2.35-.75-4.85l-.1-.6v-.05l-1.25-.6-.5.5q-1.2 1-2.55.95-1.6-.1-2.15-1.45-.55-1.5.75-2.75.55-.5 1.25-.65l-.1-1.65q0-.75.15-1.05l.55-.75 1-.75 1.35-.15 1.45.2q.7.3 1.2 1.55l.15 1.05-.1.85-.2.8-.1.5.85.8.35.4.4-.25 1-.25q1.75-.6 3.45-.05l.6.25.35.05q1.55-1.4 3.4-2.4 2.3-1.3 4.4-1.55l4.75.15 2.85.35h.05l3.75-.3q2.4.45 3.3 2.05l.15.3zm0 16.45.1-.05.25.15q1.15.5 2.3 1.35l.55.3q.55 0 .65-.55.15-.4-.2-.9l-.65-.65L42 27.5l-.05-.8-.35-1.25-.25-.95-.55-.75-.9.1-.2.55.05.6-.15 1.85v.4q-.3.15-.6.45l-1.9 2.1-.3.75q.1.45.65.55.4 0 .85-.35l.6-.65zm8.1-5.05.5-.55.05-.7-.6-.85-.15-.15.45-.4.9-1.25q.05-.45-.3-.8-.35-.4-.8-.35-.45 0-1.2.65l-.55.5-.5-.5-.85-.65q-.7-.2-.95.35-.1.4.15.7l.4.55.45.8-1.45 1.65q-.4.6-.45 1 0 .65.6.75l.65-.2 1.9-1.45.45.6q.7.6 1.3.3M35.8 25.9q.7.25 1.15-.4.4-.6.05-1.3l-1.1-.95-.15-.05.55-.7.85-1.55q.2-1.15-.7-1.5-.55-.2-1.2.25l-.8 1-.8 1.25-.75-.45-.95-.25-.45.15-.15.4.35.65 1.05.9q-.95 1.6-1.05 2.45-.1.65.3.9l.8-.15 1.3-1.3.35-.45.4.35z"/><path fill="#fff" d="m35.8 25.9-.95-.75-.4-.35-.35.45-1.3 1.3-.8.15q-.4-.25-.3-.9.1-.85 1.05-2.45l-1.05-.9-.35-.65.15-.4.45-.15.95.25.75.45.8-1.25.8-1q.65-.45 1.2-.25.9.35.7 1.5l-.85 1.55-.55.7.15.05 1.1.95q.35.7-.05 1.3-.45.65-1.15.4m12.7-1.95q-.6.3-1.3-.3l-.45-.6-1.9 1.45-.65.2q-.6-.1-.6-.75.05-.4.45-1l1.45-1.65-.45-.8-.4-.55q-.25-.3-.15-.7.25-.55.95-.35l.85.65.5.5.55-.5q.75-.65 1.2-.65.45-.05.8.35.35.35.3.8l-.9 1.25-.45.4.15.15.6.85-.05.7zM40.4 29l-1.5 1.1-.6.65q-.45.35-.85.35-.55-.1-.65-.55l.3-.75 1.9-2.1q.3-.3.6-.45v-.4l.15-1.85-.05-.6.2-.55.9-.1.55.75.25.95.35 1.25.05.8 1.4 1.15.65.65q.35.5.2.9-.1.55-.65.55l-.55-.3q-1.15-.85-2.3-1.35l-.25-.15z"/></g></svg>