<svg xmlns="http://www.w3.org/2000/svg" xmlns:ffdec="https://www.free-decompiler.com/flash" ffdec:objectType="shape" width="75.6" height="41.35"><g fill-rule="evenodd"><path fill="#999" d="M25.4 37.9q3 1.25 5.2 1.7l5.4.6q10.6.4 15.85-3.9 3.4-2.8 4.85-7.5 1.3-4.35.7-9.2-.35-2.6-1-4.1l-.25-.6 3.6-9.05.2-.8q.2-1.15-.4-1.8Q59 2.6 57.8 2.8l-1.75.7-.55.25-1.65.6-1.45.5-2.5 1-1.05.5Q47.2 5.1 45.6 4.4l-1.8-.65Q41.15 2.95 38 3l-2.8.2q-4.65.6-8.3 2.9l-1.25-.65-2.7-1.4-1.65-.75-2.15-.75-1.2-.1-.45.15-.35.25-.4.5-.2 1.2.35 2.35.25.95L18 11l.25.5.4 1.6.5 1.1v.1l.05.1.15.55q-2.15 4.8-2.15 10.2 0 6.2 2.9 9.35 1.6 1.8 5.3 3.4M0 0h75.6v41.35H0z"/><path fill="#fff" d="M25.4 37.9q-3.7-1.6-5.3-3.4-2.9-3.15-2.9-9.35 0-5.4 2.15-10.2l-.15-.55-.05-.1v-.1l-.5-1.1-.4-1.6L18 11l-.85-3.15-.25-.95-.35-2.35.2-1.2.4-.5.35-.25.45-.15 1.2.1 2.15.75 1.65.75 2.7 1.4 1.25.65q3.65-2.3 8.3-2.9L38 3q3.15-.05 5.8.75l1.8.65q1.6.7 3.25 1.95l1.05-.5 2.5-1 1.45-.5 1.65-.6.55-.25 1.75-.7q1.2-.2 1.75.45.6.65.4 1.8l-.2.8-3.6 9.05.25.6q.65 1.5 1 4.1.6 4.85-.7 9.2-1.45 4.7-4.85 7.5Q46.6 40.6 36 40.2l-5.4-.6q-2.2-.45-5.2-1.7"/><path d="M51.35 13.15q1.5-.75 2.85-1.35 4.5-1.95 6.05-2.85l1.3-.65q.85-.15 1.35.4l.3 1.15.15 2.6q0 1.55-.55 2l-1.15.35q-3.45.4-9.1 1.9-2.15.55-3.35 1.05l.2.4.8 1.9q.4.9.25 1.4-.25.85-1.15.75l-.15-.05-.95-.8-1.4-1.75-.4.65-.2.35-.65.75-.15.15-.35.3-1.1.05q-.35-.2-.35-.85l.1-.4.2-.5.85-1.95-.7-.1q-1.75-.35-2.9-1.15l-.95-.85-.55-.95q-.1-.7.35-1l.9-.1.85.4.4.2 2.2.55.4.05-.05-.6v-.8l-.15-.6-.1-.5.25-.7q.25-.4.6-.45.95-.3 1.65.75l.55 1.65.05.2.1.3.15.6.5-.25zm-6.8 16.55-1.15-.4q-3.4-1.2-7.55-.55L34.8 29q-1 .25-2.4.85-1.45.65-1.95 1.05-1 .9-1.5.85-.7-.1-.8-.85l.4-.95q2.5-3.45 6.35-4.45l.25-.05v-.35l.2-1.65.1-1.05q.35-.8 1.2-.9t1.35.6q.4.5.5 1.6l.15.95.05.35 2.05-.05 3.05.6.95.25.75.25q.95.45 1.2 1.25.3.8-.1 1.6-.5.75-1.4.85zm18.9-9.2-.65-.2-.65-.2-.65.05-.7-.15-.3-.2-.05-.35q.05-.45.45-.85l.5-.4q2.1-1.25 3.85-1l1.1.35 1.45.75q1.35.9 1.75 2 .35 1-.05 1.9-.4.95-1.45 1.2h-.8l-1.45-.45-.8-.85-.55-.9-.15-.4zm-4.15 7-.15-.3.1-.25q.95-1.2 2.5-.85l1.1.35.9.35.95.45 1.15.9.6.45.45.7.45 1.55q.1.95-.25 1.55-.6 1-1.75 1.1-1.05.1-1.9-.75-.75-.8-.65-1.95v-.65l-.3-.35-.4-.25-1.3-1.15-.85-.45zM31.05 14.35l-.2 1.45-.45 1-1.2 1.25-.25.25.95 1.1q.45.9.3 1.95l-.45 1.5-.55 1-.95.6-.95.4-1.1.1-1.2-.1q-.6-.2-1.1-.7-.95-.85-1-1.6l.1-.9-.15.05-1.15.25q-.95 0-1.35-.9-.4-.85.25-1.6.3-.4 1-.6l1.2-.3q1.5-.35 4.2-2.2l.8-.65.95-1.35q.35-.75.6-.95.55-.3 1.1 0 .55.35.6.95"/><path fill="#999" d="m49.15 22.15-.75.55-1.4.15v.85q.05 1.25.5 2.9l.35 1.05.4 1.85.1.9q0 1.2-1 1.8l-1.6.1q-.85-.25-1.15-1.1-.2-.5-.1-1.4l.05-.1.65.05q.9-.1 1.4-.85.4-.8.1-1.6-.25-.8-1.2-1.25l-.75-.25.25-2.7.05-1.3.35-.3.15-.15.65-.75.2-.35.4-.65 1.4 1.75zM43.7 20.6q-.65-.2-1.05-.6l-.7-.85-.45-.55-.2-.5-.15-1.2q1.15.8 2.9 1.15l.7.1-.85 1.95zm-1.55-6 .1-.1q.95-.85 1.9-1.2l.4-.1.15.6v.8l.05.6-.4-.05zm5.35-.65.2.15V14q.2-.85.85-1.3.65-.4 1.5-.3.8.15 1.3.75L48.3 14.8l-.5.25-.15-.6-.1-.3zm-7.85 7.6q-.7-.45-.7-1.4.2-1.35 1.35-1.5l1.05.15.75.75q.25.5.1 1.05l-.55.9q-.4.35-1 .35-.6.05-1-.3"/></g></svg>