<svg xmlns="http://www.w3.org/2000/svg" xmlns:ffdec="https://www.free-decompiler.com/flash" ffdec:objectType="shape" width="75.65" height="41.2"><g fill-rule="evenodd"><path fill="#999" d="M36.4 0h14.8L39.45 8.45zm18.15 0h21.1v41.2h-38.6l6.8-7.95.4-11.95zM30 41.2h-7.45L29 35.75zm-12.55 0H.05V0h32.2L30.1 9.25 17.8 2.8l6.8 13.1-15.45 9.25 12.65 4z"/><path fill="#fff" d="M32.25 0h4.15l3.05 8.45L51.2 0h3.35l-10.3 21.3-.4 11.95-6.8 7.95H30l-1-5.45-6.45 5.45h-5.1l4.35-12.05-12.65-4L24.6 15.9 17.8 2.8l12.3 6.45z"/><path d="m65.8 23.1-1.05 3.65q-1.05 2.65-2.3 3.9-1.5 1.6-4.75 2.6l-2.25.6.35 3.5-.05 2.45-.45 1.4H33.45q-.25-.6-.15-1.4.1-.85.85-2.15l.1-.35.55-1.05q1.95-3.55 5.3-6.15l1.1-.8q-1.7-2.25-2.7-5.65-.6-2.2-.65-3.3-.05-1.85.5-3.8l.55-1.65-1.55-.15q-1.95-.2-3.1-.85-1.6-1-1.95-3.05-.3-1.9.75-3.6.65-1.2 1.85-1.9 1.55-1.05 4.15-.95l2.55.45 2.6 1.2 1.35.8L47.3 8.5l.15.15 3.7-.3q.1-1.3.5-1.95l.9-1.05q1.95-1.65 4.55-1.4 2.7.35 4.2 2.3l.85 1.25q1.35 2.35 1.5 4.05.15 1.3-.2 2.4 1.75 2.1 2.3 4.5l.25 1.5-.85.05q-1.15.45-1.05 1.6.1 1.2 1.25 1.45zm-6.65-1.65-.35.6-.05.4-.1 4.3v.5q.15.9.85 1.2l.3.2q.95.3 1.75-.4.55-.5.9-1.55.25-.9.1-1.7l.15-2.15q0-.95-.35-1.5l-.95-.7-.05-.7-.1-.35-.2-.4q-.2-.35-.7-.35-.45 0-.7.4-.15.2-.15.75l.25.8zM57.65 16q0 .85.8 1.1h.05l.15.15q.4.35.95.3l1.3-.55 1.1-.2 1-.4q.45-.45.3-1-.15-.45-.8-.55l-1.05.05H60.2q.15-.8.55-1.55.4-.6.3-1 0-.3-.45-.5-.35-.15-.65.15l-.3.5-1.25 2q-.75.95-.75 1.5M40.7 33h1.15l-.1.2-.1.4v.4l.45.55.7-.1q.3-.2.4-.8l.25-1.05.05-.2-.05-.55-.1-.35-.1-.25q-.3-.5-1.05-.5-.45 0-1.15.35-.95.3-1 .95-.1.7.65.95m8.8-3.15-.15-.05-.2-.1-.75-.15-.25-.1h-1.3l-1.4.15q-.7.25-.85.4l-.4.85-.05 1.2-.1.2-.05.45-.15.55v1q.15.65.85.75l.7-.25q.4-.35.5-1.2l.25-2 .85-.2.65-.05 1.05-.2.75-.3.3-.5zm-2.6-5.05.05-.7-.4-.55q-.4-.1-.55.3l-.2.25-.3.9-.25.55q-.4.75-.45 1.35-.2.75.15 1.1l.2.2.65.4 3.65.15.6-.05q.75-.15.85-.95t-.65-1.1l-.8-.2-.95-.1-1.55.05zm-4.5-.25q.15.4.6.4l.35-.05q.4-.1.5-.6l-.15-.6q-.25-.35-.65-.35l-.1.05q-.25 0-.5.25l-.2.5zm9.9-9.4-2.5.05-.15.4-.5 1.4-.75 1.3-1.2 1.1-.2.15h-.15q-1.2-.15-1.75 0-.9.35-.9 1.3 0 1 .9 1.25.9.35 1.55-.4l.4-.45.25-.05 1.2 1 .05.05.15-.15q1.05-.85 3.65-1.65l.9-.2.75.05.95.05.15-1.5q0-1.1-.6-2.1-.7-1.05-1.65-1.4zM5.2 9.75q3.75-.95 9.05-.95l5.25.4q2.5.5 5.25 1.7 4.05 1.75 6.65 4.05 3.25 2.85 4.45 6.3.8 2.1.95 5 .15 2.3-.15 3.95-.85 3.8-4.15 6.15-3.15 2.25-7.2 2.1-2.95-.1-5.05-1.35-2.5-1.45-3.4-4-.55-1.6-.45-5.45 0-3.6-1.2-5.3-1.55-2.2-6.1-3.2l-7.45.25-1.65.85V11.7q2.3-1.25 5.2-1.95"/><path fill="#fff" d="m66 19.95.3.05.85.75q.4.85-.05 1.55-.45.8-1.3.8l-.45-.05q-1.15-.25-1.25-1.45-.1-1.15 1.05-1.6zm2.85-1.45q-.65.35-1.3-.2-.55-.55-.3-1.3.35-.75 1.1-.75l.9.4q.45.65.15 1.25zm-.35 1 1.25-.95.4-.4.3-.6.3-.45.6-.65 1.5-.7q1.2-.15 1.8.9.5 1.15-.35 2l-.55.4q-.9.55-1.8.7l-1.4.15-.6.4-.55.25-.55.3h-.65q-.2 0-.3-.15l-.05-.35q.05-.45.65-.85M57.65 16q0-.55.75-1.5l1.25-2 .3-.5q.3-.3.65-.15.45.2.45.5.1.4-.3 1-.4.75-.55 1.55h1.25l1.05-.05q.65.1.8.55.15.55-.3 1l-1 .4-1.1.2-1.3.55q-.55.05-.95-.3l-.15-.15h-.05q-.8-.25-.8-1.1m1.5 5.45.6-.65-.25-.8q0-.55.15-.75.25-.4.7-.4.5 0 .7.35l.2.4.1.35.05.7.95.7q.35.55.35 1.5L62.55 25q.15.8-.1 1.7-.35 1.05-.9 1.55-.8.7-1.75.4l-.3-.2q-.7-.3-.85-1.2v-.5l.1-4.3.05-.4zm9.85 3.4-.8-.25q-.65-.65-.25-1.4.45-.8 1.3-.5.9.25.8 1.2-.15.85-1.05.95m-16.7-9.7.55.2q.95.35 1.65 1.4.6 1 .6 2.1l-.15 1.5-.95-.05-.75-.05-.9.2q-2.6.8-3.65 1.65l-.15.15-.05-.05-1.2-1-.25.05-.4.45q-.65.75-1.55.4-.9-.25-.9-1.25 0-.95.9-1.3.55-.15 1.75 0H47l.2-.15 1.2-1.1.75-1.3.5-1.4.15-.4zm-9.9 9.4-.15-.4.2-.5q.25-.25.5-.25l.1-.05q.4 0 .65.35l.15.6q-.1.5-.5.6l-.35.05q-.45 0-.6-.4m4.5.25.05 1.6 1.55-.05.95.1.8.2q.75.3.65 1.1t-.85.95l-.6.05-3.65-.15-.65-.4-.2-.2q-.35-.35-.15-1.1.05-.6.45-1.35l.25-.55.3-.9.2-.25q.15-.4.55-.3l.4.55zm2.6 5.05.25.45-.3.5-.75.3-1.05.2-.65.05-.85.2-.25 2q-.1.85-.5 1.2l-.7.25q-.7-.1-.85-.75v-1l.15-.55.05-.45.1-.2.05-1.2.4-.85q.15-.15.85-.4l1.4-.15h1.3l.25.1.75.15.2.1zM40.7 33q-.75-.25-.65-.95.05-.65 1-.95.7-.35 1.15-.35.75 0 1.05.5l.1.25.1.35.05.55-.05.2-.25 1.05q-.1.6-.4.8l-.7.1-.45-.55v-.4l.1-.4.1-.2zm26-3.1q-.8 0-1.2-.65-.4-.7-.05-1.4.45-.7 1.2-.7.7 0 1.1.55.4.5.25 1.15-.25 1.05-1.3 1.05"/></g></svg>