<svg xmlns="http://www.w3.org/2000/svg" xmlns:ffdec="https://www.free-decompiler.com/flash" ffdec:objectType="shape" width="76.85" height="43.4"><path fill="#999" fill-rule="evenodd" d="M45.75 1.65h4.05q-.3 1-.35 2.6l-.45 6.8-.2 2.25-1.1-3.85q-1.45-4.8-1.9-7.6zm5.8 0H64.9L63.4 3.1l-9.05 9.35-.55.65.2-.95 1.3-4.65 1.25-3.2.3-1.1.05-.5.15-.4q-.1-.35-.35-.1l-.3.3-4.3 9.25-.15-2.05zm14 0h10.8v41.2H.75V24.4l.3.55 1 .75 1.65.05h.45l-.45 8.1q-.2 3.25.15 4.8l.35.85.8.25.5-.45.5-2.2q.3-3.6.9-7.25l.65-4.1.65-.05.75.1 1.75-.25q.9-.45 1-1.55.1-1.05-.8-1.65-.5-.35-1.35-.45l-1.45.05.05-.3V20.4q-.25-1.05-1.25-1.35-1-.35-1.75.4-.7.65-.8 2.35l-.75-.05-1.45.1q-.65.2-1.05.75l-.35.65V1.65h44.2v.45l1.65 10.65.2 1.2-4.8-6-4.2-5.5-.55-.55q-.5-.2-.7.15-.15.2.1.8l2.85 4.8.75 1.45 2.7 5.7 1.85 3.4q-4.7-2.85-10.05-5.6l-1.35-.8-1.95-1.25-.65.1q-.15.35.5.55l1.5 1.05 1.45 1.2 1.85 1.25 2.35 1.85 2.65 1.75 2.3 1.7.8.6-13.7-.7-4.65-.5-1.7-.35-1.7-.05q-.55.1-.5.5Q33.1 23.8 45 24.35q1.6.1 2.25-.4l.6-1q.1-.65-.2-1.15l-.05-.05.3.05.2 1.15q.3.8 1 1.1l1.05-.1.7-.8q.2-.45-.15-1.65l-.15-.55q.95-.05 1.45-.85.35-.65.35-1.8l.35-.5.2.15 1.9-.1.4-.35q.15.4.45.6l.6.25q.05.45.4.85.65.65 1.55.55l1.55-.65 14.1-9.1 1.75-1.4q.55-.55.15-.85l-.55.1q-3.75 2.05-6.75 3.35l-5.25 2.15-3.2 1.4 2.5-2.65 4.15-4.3 3.8-3.85q-.9.4-2.4 1.7l-6.8 5.6-3.75 2.95 5.25-7.85 2.6-4.2z"/><path fill="#fff" fill-rule="evenodd" d="M44.95 1.65v-.1l.4-.35.4.45.05.2q.45 2.8 1.9 7.6l1.1 3.85.2-2.25.45-6.8q.05-1.6.35-2.6l.3-.95q.45-.85 1-.65.45.15.45 1.05v.55l.4 8.05.15 2.05 4.3-9.25.3-.3q.25-.25.35.1l-.15.4-.05.5-.3 1.1-1.25 3.2-1.3 4.65-.2.95.55-.65L63.4 3.1l1.5-1.45.05-.05.4-.1.2.15-.2.5-2.6 4.2-5.25 7.85 3.75-2.95 6.8-5.6q1.5-1.3 2.4-1.7l-3.8 3.85-4.15 4.3-2.5 2.65 3.2-1.4 5.25-2.15q3-1.3 6.75-3.35l.55-.1q.4.3-.15.85L73.85 10l-14.1 9.1-1.55.65q-.9.1-1.55-.55-.35-.4-.4-.85l-.6-.25q-.3-.2-.45-.6l-.4.35-1.9.1-.2-.15-.35.5q0 1.15-.35 1.8-.5.8-1.45.85l.15.55q.35 1.2.15 1.65l-.7.8-1.05.1q-.7-.3-1-1.1l-.2-1.15-.3-.05.05.05q.3.5.2 1.15l-.6 1q-.65.5-2.25.4-11.9-.55-23.05-4.85-.05-.4.5-.5l1.7.05 1.7.35 4.65.5 13.7.7-.8-.6-2.3-1.7-2.65-1.75-2.35-1.85-1.85-1.25-1.45-1.2-1.5-1.05q-.65-.2-.5-.55l.65-.1 1.95 1.25 1.35.8q5.35 2.75 10.05 5.6l-1.85-3.4-2.7-5.7-.75-1.45-2.85-4.8q-.25-.6-.1-.8.2-.35.7-.15l.55.55 4.2 5.5 4.8 6-.2-1.2L44.95 2.1zM.75 24.4l-.1-.65.1-.5.35-.65q.4-.55 1.05-.75l1.45-.1.75.05q.1-1.7.8-2.35.75-.75 1.75-.4 1 .3 1.25 1.35v1.25l-.05.3 1.45-.05q.85.1 1.35.45.9.6.8 1.65-.1 1.1-1 1.55l-1.75.25-.75-.1-.65.05-.65 4.1Q6.3 33.5 6 37.1l-.5 2.2-.5.45-.8-.25-.35-.85q-.35-1.55-.15-4.8l.45-8.1H3.7l-1.65-.05-1-.75z"/><path fill="none" stroke="#fff" stroke-linecap="round" stroke-linejoin="round" stroke-opacity=".498" d="M45.75 1.65h4.05m1.75 0H64.9m.65 0h10.8v41.2H.75V24.4m0-1.15V1.65h44.2"/><path fill-rule="evenodd" d="M45.1 20.25q1.55-1.65 3.3-2.7l.4-.95 1.05-1.8.55-1 .7-.85q.45-.4 1.1-.55l1.25.15q.35.1.95.5l1.3 1.05 1.2 1.25.1.15 1.6.25q3.15.6 6.1 2.35 2.1 1.25 3.1 2.75l.45.8 3.4.85q1.1.45 1.45.85.7.8.4 1.75l-.45.9Q70.9 29.2 69 31.2l-.8 2.6q-1.85 4.7-5.9 7-3.75 2.15-8.45 1.7l-.45.7-.3.2H5.85q-.15-.95.3-2.3.5-1.35 2-3.95 2.15-3.7 3.85-5.85 2.05-2.75 4.3-4.5l-1.4-1.1q-2.65-2.35-3.6-5.45-.85-2.85-.35-6 .5-3 2.15-5.7 2.85-4.65 7.1-5.8l5.75-.35 4.95.55q2.7.6 4.45 1.9l.3.25.6.05 4.7 1.15q.85.25 1.35.75.65.75.4 1.7l-.8 1.35-1.15 1.4-1.25 1.05-.1.05.05 1.1q0 3.5-1.7 6.75-1.65 3.25-4.5 5.4l-1.6 1.1 5.35.15q.65-1.6 1.3-2.4 1.25-1.45 2.75-1.5l1.6.25q1.05-1.7 2.45-3.2m-9.2.75-1.3-.25-4.4-1.35-.15.15-.3.85q2.9 1.15 4.25 2.6l.45.75.4-.35.7-1.05.2-.5zm-16.6-3.55-.05.55.9.1 2 .15 4 .9.3-1.05.05-.25-.85-.35-5.35-1.95q-.6.6-.85 1.1zM50 32.05l.45.25.75.55.9.85.3.4q-.15.8.25 1.45.45.7 1.25.85l1-.1.65-.5q.4-.5.45-1.15t-.35-1.15l-1.3-1.25.1-.15.35-.5.35-1.05q0-.65-.45-.95-.4-.4-1-.25-.65.1-1.25 1l-.25.55h-.95l-.65.1-.55.15q-.25.15-.25.45zm13.35 2.25q1.25-.5 1.85-1.85l.1-.15-.55-.55q-.3-.45-.5-1.25-.6-1.9-.35-2.9l-.45-.2-2.65-.05-.8.35q-.45.25-.75.6l-.65.8q-.4.65-.5 1.45-.1 2 1.75 3.2.8.55 1.7.7zM53.1 25.35l.05-.9q-.1-1.6-.55-2.2l-.5-.5-.7-.45-.9-.3-.95-.1-.45.85-1.3 1.35q-.95.7-1.65.8-.2 1.25-.05 1.85.2.9 1.05 1.65.8.65 1.75.8 1.55.25 2.75-.6l1.15-1.4zm-27 13.4q3.25-2.4 7.1-3.5 3.7-1.05 7.35-.75l-.25-.95-.8-.05-9.75-1.2-1.2-.25-2.05-.6-2.1-.7.7 6.6.25 2z"/><path fill="#fff" fill-rule="evenodd" d="m53.1 25.35-.3.85-1.15 1.4q-1.2.85-2.75.6-.95-.15-1.75-.8-.85-.75-1.05-1.65-.15-.6.05-1.85.7-.1 1.65-.8l1.3-1.35.45-.85.95.1.9.3.7.45.5.5q.45.6.55 2.2zm10.25 8.95-1.8.15q-.9-.15-1.7-.7-1.85-1.2-1.75-3.2.1-.8.5-1.45l.65-.8q.3-.35.75-.6l.8-.35 2.65.05.45.2q-.25 1 .35 2.9.2.8.5 1.25l.55.55-.1.15q-.6 1.35-1.85 1.85M50 32.05l-.2-.45q0-.3.25-.45l.55-.15.65-.1h.95l.25-.55q.6-.9 1.25-1 .6-.15 1 .25.45.3.45.95l-.35 1.05-.35.5-.1.15 1.3 1.25q.4.5.35 1.15t-.45 1.15l-.65.5-1 .1q-.8-.15-1.25-.85-.4-.65-.25-1.45l-.3-.4-.9-.85-.75-.55zm-30.7-14.6.15-.8q.25-.5.85-1.1l5.35 1.95.85.35-.05.25-.3 1.05-4-.9-2-.15-.9-.1zM35.9 21l-.15.85-.2.5-.7 1.05-.4.35L34 23q-1.35-1.45-4.25-2.6l.3-.85.15-.15 4.4 1.35z"/><path fill-rule="evenodd" d="M6.4 37.45q-1.15.7-2.45.75-1.35.1-2.35-.65Q-.15 36.25 0 34q.15-2.45 2.25-3.75.95-.6 2.1-.7l2.2.35.85.3.65-.1q2-.5 4.65-1.65l4.55-2.05 1.35-.05q.7.45.05 1.5L17.4 29.2q-3.25 2.9-7.3 4.95l-1.4.9-.75.95q-.6.9-1.55 1.45"/></svg>