<svg xmlns="http://www.w3.org/2000/svg" xmlns:ffdec="https://www.free-decompiler.com/flash" ffdec:objectType="shape" width="76.85" height="41.5"><path fill="#717171" fill-rule="evenodd" d="m1.9 38.55.25.05q2.95.75 7.15.15l2.3-.7 2-1.75.45-.5.8-.3q1.95-.85 3.55-2.4l.1.5q1.05 3.2 4.35 4.85 2.95 1.45 6.55 1.05l2.1-.55 1.5-.8h2.05q3.05.25 5.6-1.45l1.8-1.65 1.9-.25.4-.15 4.2 1.45 3.9.85q2.65.3 4.2 0 1.75-.3 3.65-1.15 7.5-3.3 9.85-9.2.7-1.7 1.15-4.8l.3-4.65q-.2-1.95-1.4-5.65l-1.5-3.6q-.95-1.45-3.1-3.25-2.45-1.85-4.45-2.45-1.15-.6-2.5-.95L55.25.9q-6.6.1-11.05 2.55-2.6 1.45-4.45 3.65-1.95 2.3-2.65 5v.15h-.9l-.6.05-.7.35-.6.4-.75.85-.35.65-.2.75-.15.75q-2.1-1.35-3.7-1.9-2.9-.95-6-.45-3.1.55-5.5 2.4L15.3 18l-1.9 1h-.25q-5.05.25-8.4 3.15L2.8 23.8l-.9.75v-2.1l-.7.2q-.75 0-.95-.5l-.1-.2L0 21.2l.25-.8.45-.7.4-.3.8-.55V.5h74.45V41H1.9zm0-11.45.2.05q.55.2 1.45 0 1.15-.2 3.2-1.2T9.9 24.7l3.6-.1-.3.4-1.2 2.2q-1.2 1.65-3.3 1.75l-2.25-.2Q4.6 28.8 2.7 30.7l-.8.7zm0 8.35.2.05 1.3-.25q.85-.45 1.25-.6l2.3.2 1.65.65-.9.35q-2.8 1-5.55.4l-.25-.05zM43.05 14.6l-.15-.4q1.85-2.15 4.25-3.7 3.45-2.2 7.2-2.6l4.25.15q1.35.25 2.4.8 1.35.8 2.35 2.5 1.15 2 1.45 4.35.25 2.4-.45 4.6L62.8 24l-1.3 2.55-2.05 1.7q-3.45 2.3-5.65 2.6-2.8.35-6.75-1.5l-.45-.65q-.7-.7-1.5-.65l-1-.2q-.3 0-.55.15l-.2-.05h-.1q-.65-.65-1.8-.75.45-1.7.25-2.7-.35-1.65-1.7-1.95-.8-.2-1.55.35-.7.4-1.05 1.15l-2.15-.9-.2-.1.4-.1q1.35-.45 1.85-1.5l.35-1.1q.6-.35.8-1.1l.15-.8q.2-.2.6-.25.65.2 1.35 0 .8-.15 1.3-.7.85-.5 1.2-1.35.3-.75 0-1.55M28.6 31.25l-1.85.3q-1.05-.15-1.9-.65l-.9-.75-.2-.45-.3-.85-.05-.05h.45q.65.15 1.95 1 1.45.9 2.95 1.45z"/><path fill="#fff" fill-rule="evenodd" d="m1.9 24.55.9-.75 1.95-1.65q3.35-2.9 8.4-3.15h.25l1.9-1 2.35-1.9q2.4-1.85 5.5-2.4 3.1-.5 6 .45 1.6.55 3.7 1.9l.15-.75.2-.75.35-.65.75-.85.6-.4.7-.35.6-.05h.9v-.15q.7-2.7 2.65-5 1.85-2.2 4.45-3.65Q48.65 1 55.25.9l3.8.35q1.35.35 2.5.95 2 .6 4.45 2.45 2.15 1.8 3.1 3.25l1.5 3.6q1.2 3.7 1.4 5.65l-.3 4.65q-.45 3.1-1.15 4.8-2.35 5.9-9.85 9.2-1.9.85-3.65 1.15-1.55.3-4.2 0l-3.9-.85-4.2-1.45-.4.15-1.9.25-1.8 1.65q-2.55 1.7-5.6 1.45H33l-1.5.8-2.1.55q-3.6.4-6.55-1.05-3.3-1.65-4.35-4.85l-.1-.5q-1.6 1.55-3.55 2.4l-.8.3-.45.5-2 1.75-2.3.7q-4.2.6-7.15-.15l-.25-.05-1.2-.75-.25-.8q0-.5.3-.7l1.15-.1.25.05q2.75.6 5.55-.4l.9-.35-1.65-.65-2.3-.2q-.4.15-1.25.6l-1.3.25-.2-.05q-.75-.25-1-1.2-.15-.8.3-1.75l.7-1.1.8-.7q1.9-1.9 3.75-1.95l2.25.2q2.1-.1 3.3-1.75l1.2-2.2.3-.4-3.6.1q-1.1.25-3.15 1.25t-3.2 1.2q-.9.2-1.45 0l-.2-.05q-.65-.3-.8-.9-.15-.75.5-1.4zm41.15-9.95q.3.8 0 1.55-.35.85-1.2 1.35-.5.55-1.3.7-.7.2-1.35 0-.4.05-.6.25l-.15.8q-.2.75-.8 1.1l-.35 1.1q-.5 1.05-1.85 1.5l-.4.1.2.1 2.15.9q.35-.75 1.05-1.15.75-.55 1.55-.35 1.35.3 1.7 1.95.2 1-.25 2.7 1.15.1 1.8.75h.1l.2.05q.25-.15.55-.15l1 .2q.8-.05 1.5.65l.45.65q3.95 1.85 6.75 1.5 2.2-.3 5.65-2.6l2.05-1.7L62.8 24l1.55-3.7q.7-2.2.45-4.6-.3-2.35-1.45-4.35-1-1.7-2.35-2.5-1.05-.55-2.4-.8l-4.25-.15q-3.75.4-7.2 2.6-2.4 1.55-4.25 3.7zM28.6 31.25h.15q-1.5-.55-2.95-1.45-1.3-.85-1.95-1h-.45l.05.05.3.85.2.45.9.75q.85.5 1.9.65z"/><path fill="none" stroke="#ddd" stroke-linecap="round" stroke-linejoin="round" d="M1.9 38.55V41h74.45V.5H1.9v18.35m0 3.6v2.1m0 6.85v-4.3m0 9.1v-.75"/><path fill-rule="evenodd" d="m49.5 17.3.15.6q.4-.45 1-.6l1.35.05 1 .95.25 1.35q-.1.7-.65 1.2l-.6.4 1.1.6.3.1-.05.35v1.4l.6 1.3.85.95q.6.45 1.4.6l2.65-.35q1.3-.6 2.05-1.75L61.95 22q.6-2.1.5-3.75.45-1.25.45-2.7l-.25-1.9-.8-1.5-1.3-1.35q-2.25-1.7-4.9-1.45-3.05.25-4.95 2.6-1.9 2.5-1.2 5.35M53.15 4l4.35.45q2.1.45 3.35 1.05 3.5 1.7 5.75 6.4 1.3 2.75 1.55 5 .2 2.05-.3 4.65-.6 2.9-2.1 5.25-1.8 2.85-4.8 4.65t-6.4 2.1q-3.35.35-6.65-.8-1.8-.6-3.45-1.6-.45.3-1.1.4h-.9l-1.1-.25h-.05q-.65 1.8-1.5 2.8-1.8 2-4.45 1.75l-2.4-.25q-.85.05-2.05.65l-1.95.95q-2.6 1-4.95-.4-2.4-1.35-2.9-4.05-.15-.9.1-1.5.4-.85 1.15-.7.5.1 1.15 1.05 1.55 2 3.7 1.85l.8-.2q1.05-1.05 2.55-1.6 1.75-.65 3.5-.4l2.35-.05q.75-.45.95-2.15l.15-1.15-.15.15q-2.2 2.15-5.2 2.3-3.15.15-5.5-1.65l-1-.8q-.65-.45-1.15-.65-1.95-.65-4 1.3l-1.45 1.7-1.45 1.65q-1.95 1.95-4.8 2.35-2.9.45-5.3-.85-1.25-.65-1.6-1.5-.25-.55 0-1.1.2-.6.7-.8t1.8.35q1.45.6 2.95.45 1.6-.2 2.55-1.25l1.3-2.2q1.9-3.55 5.65-4.8 3.9-1.3 7.35.75l1.8 1.1q1.1.6 1.95.5l1.05-.35q-1.65-.25-3.05-1.1L28 22l-2.05-1.35-3.6-.2-2.55 1.35q-1.7 1.1-2.55 1.4L13 23.1q-1-.35-1.35-1.1-.2-.45-.05-.9t.6-.6l.75.05.8.25q1.25.3 3.05-1.1l2.95-2.25q1.7-1.2 3.25-1.55 3.75-.85 7.7 2.1l1.55 1.15q.95.55 1.8.6t1.8-.5l-.35-.7q-.15-.55.05-1.65l.25-1 .6-.85.5-.4 1.3-.4.9.1.9-1.9q2.05-3.6 5.55-5.9 3.6-2.4 7.6-2.55m7.3 14.5q-.45.85-1.4 1l-1.35-.2q-.65-.35-.9-1t0-1.35q.2-.75.8-1.1.55-.35 1.25-.3t1.2.5.6 1.15q.15.75-.2 1.3"/><path fill="#fff" fill-rule="evenodd" d="M49.5 17.3q-.7-2.85 1.2-5.35 1.9-2.35 4.95-2.6 2.65-.25 4.9 1.45l1.3 1.35.8 1.5.25 1.9q0 1.45-.45 2.7.1 1.65-.5 3.75l-1.05 2.45q-.75 1.15-2.05 1.75l-2.65.35q-.8-.15-1.4-.6l-.85-.95-.6-1.3v-1.4l.05-.35-.3-.1-1.1-.6.6-.4q.55-.5.65-1.2L53 18.3l-1-.95-1.35-.05q-.6.15-1 .6zm10.95 1.2q.35-.55.2-1.3-.1-.7-.6-1.15t-1.2-.5-1.25.3q-.6.35-.8 1.1-.25.7 0 1.35t.9 1l1.35.2q.95-.15 1.4-1"/></svg>