<svg xmlns="http://www.w3.org/2000/svg" xmlns:ffdec="https://www.free-decompiler.com/flash" ffdec:objectType="shape" width="71.2" height="38.6"><g fill-rule="evenodd"><path fill="#999" d="m47.15 24.6.2-.55-.2-.45-.25-.45q-.05-.5.6-1.05l2.45-1.65q2.5-1.3 3.6-2.15 2-1.65 2-3.55l-.15-1.15q-1.2-1.5-1.9-3.65-.55-1.8-.4-3.55.15-1.95 1.2-3.25 1.15-1.45 4-2.5 1.85-.7 3.25-.65 1.1 0 2.45.5 3.65 1.25 5.4 3.95 1.2 1.85 1.4 4.2.2 2.25-.55 4.4-1.55 4.15-5.85 6.65l-3.25 1.55-3.75 2.4q-3.6 1.7-8.8 1.95l.4.15 2.05.6 10.15.55q1.95 0 2.9-.5l1.35-1.05 1.35-1.05 1.75-.3q.95.15 1.65.75.65.6.9 1.5.25.95-.05 1.8-.75 2.05-3.85 2.65l-7.8-.4q-6.5-1.25-10.05-2.5l-1.5-.65-.7-.55q-.3-.5 0-.85l.4-.3-.15-.15q-.3-.25-.25-.7m-23.1 0-.25.7-.15.15q.3.05.4.3.3.35 0 .85l-.7.55-1.5.65q-3.55 1.25-10.05 2.5l-7.8.4Q.9 30.1.15 28.05q-.3-.85-.05-1.8.25-.9.9-1.5.7-.6 1.65-.75.95-.1 1.75.3l1.35 1.05L7.1 26.4q.95.5 2.9.5l10.15-.55 2.05-.6.4-.15q-5.2-.25-8.8-1.95-2.05-1-3.75-2.4L6.8 19.7Q2.5 17.2.95 13.05.2 10.9.4 8.65q.2-2.35 1.4-4.2Q3.55 1.75 7.2.5 8.55 0 9.65 0q1.4-.05 3.25.65 2.85 1.05 4 2.5 1.05 1.3 1.2 3.25.15 1.75-.4 3.55-.7 2.15-1.9 3.65-.15.6-.15 1.15 0 1.9 2 3.55l3.6 2.15 2.45 1.65q.65.55.6 1.05l-.25.45-.2.45z"/><path d="m63.8 13.8-1.9.1q-.85-.2-1.5-.9-.6-.7-.75-1.55l-.05-.05-.8-.05-1.35-.35q-1.2-.45-2.2-1.9l-.6-1.25-.1-.95-.05-1q.15-1.25.95-2.05l.55-.5.75-.5.9-.2q1.5-.15 2.9.55.9.45 1.5 1.3l.6-.9q.3-.3.75-.45.95-.45 2.05-.35t1.95.75l.5.45 1.45 1.65q.4.85.4 2.2l-.25 1.7q-.4 1.15-1.5 1.85-1.15.65-2.35.65h-.05v.05q-.6 1.3-1.8 1.7m-2.95-5.45q.35-.25.7-.35l-.1-.5-.55-1.35-.65-1q-.45-.45-1.2-.6l-.85-.2q-1.05 0-1.75.95-.6.9-.35 2 .2 1 1 1.75 1.05.9 2.25 1.05h.3l.15-.4q.35-.85 1.05-1.35M65.6 9.6l.15.4.75-.25.8-.6.25-1.2-.1-1.1-.4-.7-.55-.6-1.2-.65q-.8-.2-1.3.25-.45.3-.75 1.15l-.05.2.15 1.15v.15l.85.3q.9.45 1.4 1.5M54.2 25.2l1.1-.25.65-.35q.4-.4.3-1.05l-.1-1.15.1-1.25q.3-1.5.8-2.3.6-.85 1.65-1.2l2.15-.2 1.1.4q.7.55 1.1 1.9l.15 1.2q-.15 1.1-1.25 1.8-.85.5-2.15.6-.1 1.35-.8 2.35-.7 1.1-1.95 1.4l-1.3.1-2.25-.4-.85-.25-.65-.35-.45-.7-.05-.4q.05-.2.45-.2zM25.75 37.6v1H21.5q0-4.75.35-9.65.35-5.35 1.3-8.55 1-3.55 3-6.05-.9-.9-.8-3.3.3-3.5 1.35-4.95.9-1.25 2.1-1.25.65-.05 1.15.45t.4 1.1l-.35.75-.5.75-.4 1.2q-.2 1.1.1 2.35l.05.15q1.45-.95 3.15-1.45l1.15-.3q.15-1.45.85-2.9.95-1.9 2.55-3.1.75-.6 1.45-.65l.75.15.5.6q.25.75-.85 1.8-1.6 1.6-1.6 3.2l.1.7.75.1q1.35.2 2.65.75.25-1.05.75-1.95 1.15-1.95 3.2-2.65l2.45.1q1 .55.7 1.25l-.9.65q-1.1.5-1.8 1.5-.65 1.05-.75 2.2v1.1q1.65 1.45 2.75 3.4 1.2 2.15 1.7 5.1.35 2.05.5 5.45l.05 11.95H45.5l.05-1.8q.1-6.8-.3-11.65-.5-5.5-2.9-8.2-2.45-2.7-5.15-2.9l-1.95-.15-.1-.05q-2.35.25-4.3 1.85-2.55 2.1-3.7 6.4-.95 3.3-1.25 9.55zM48.9 15.9l.1-.75q.15-.65.45-1.15.55-.85 1.15-1.15l1.15-.25 1.55.2.8.6.45.65q.25.55.15 1.1 0 .95-.45 1.45l-.6.45-1 .55-.15.15.05.25.45.75q.25.55-.05 1.75l-.5 1.1-.55.5-.55.45-.75-.1q-.3-.35-.15-.7l.35-.4.45-.4-.1-1.1-.4-.6-1.05-1.1-.4-.7-.2-.75zm-9.3 5.45-.2-.95q0-.4.15-.8.2-.65.9-1l1.9-.1q.9.4 1.25 1.4.2.8-.2 1.55-.4.8-1.15 1.05l-1.55-.1q-.8-.35-1.1-1.05M52.2 33l-.45.35-.35-.3q-.3-.45-.05-1.1l.3-.55.8-.9q.5-.4.75-.5.5-.35.9-.4l.95-.15.9-.05.95.3 1.95.35.3-.05.15-.3q.3-1.35 1.65-1.75t2.3.55q.45.4.75 1.25.4 1.35-.3 2.55-.6 1.1-1.95 1.6l-2.45.1-1.7-.25-1.15-.55-1.4-1.15-.4-.4-.65-.05q-.95.2-1.8 1.4M38.5 22.7q1.4 1 1.7 2.65.3 1.2 0 2.35-.15.9-.7 1.45-.9.9-2.7.9-2.35.1-3.95-.95-.85-.6-1.35-1.5-.55-1-.45-1.95.15-1.25 1.2-2.3.85-.85 2.05-1.25l2.2-.2q1.15.15 2 .8m-16.2-6.8-.2.8-.2.75-.4.7-1.05 1.1-.4.6-.1 1.1.45.4.35.4-.15.7-.75.1-.55-.45-.55-.5-.5-1.1q-.3-1.2-.05-1.75l.45-.75.05-.25-.15-.15-1-.55-.6-.45q-.45-.5-.45-1.45-.1-.55.15-1.1l.45-.65.8-.6 1.55-.2 1.15.25L21.75 14l.45 1.15zm11.9 1.7.2-1q.35-.7 1.1-1.05l1.5-.15q.75.2 1.25.85.5.6.45 1.4 0 .75-.5 1.4-.55.6-1.3.75l-1.5-.2q-.75-.4-1.05-1.1zm-4.1 5.6q-1.1-.15-1.55-1.35-.35-1.15.35-2 .6-.8 1.5-.7l.15-.05q1.25 0 1.85 1.2.55 1.2-.25 2.15-.8 1.1-2.05.75M7.4 13.8q-1.2-.4-1.8-1.7v-.05h-.05q-1.2 0-2.35-.65-1.1-.7-1.5-1.85l-.25-1.7q0-1.35.4-2.2Q2.1 5.1 3.3 4l.5-.45q.85-.65 1.95-.75t2.05.35q.45.15.75.45l.6.9q.6-.85 1.5-1.3 1.4-.7 2.9-.55l.9.2.75.5.55.5q.8.8.95 2.05l-.05 1-.1.95-.6 1.25q-1 1.45-2.2 1.9l-1.35.35-.8.05-.05.05q-.15.85-.75 1.55l-1.5.9zm2.95-5.45q.7.5 1.05 1.35l.15.4h.3q1.2-.15 2.25-1.05.8-.75 1-1.75.25-1.1-.35-2-.7-.95-1.75-.95l-.85.2q-.75.15-1.2.6l-.65 1-.55 1.35-.1.5q.35.1.7.35M5.6 9.6Q6.1 8.55 7 8.1l.85-.3v-.15q0-.75.15-1.15l-.05-.2q-.3-.85-.75-1.15-.5-.45-1.3-.25-.6.15-1.2.65l-.55.6-.4.7q-.2.45-.1 1.1 0 .85.25 1.2t.8.6l.75.25zM17 25.2l2.25-.3.45.2-.05.4-.45.7-.65.35-.85.25-2.25.4-1.3-.1q-1.25-.3-1.95-1.4-.7-1-.8-2.35-1.3-.1-2.15-.6-1.1-.7-1.25-1.8l.15-1.2q.4-1.35 1.1-1.9l1.1-.4 2.15.2q1.05.35 1.65 1.2.5.8.8 2.3l.1 1.25-.1 1.15q-.1.65.3 1.05l.65.35zm2 7.8q-.85-1.2-1.8-1.4l-.65.05-.4.4-1.4 1.15-1.15.55-1.7.25-2.45-.1q-1.35-.5-1.95-1.6-.7-1.2-.3-2.55.3-.85.75-1.25.95-.95 2.3-.55t1.65 1.75l.15.3.3.05 1.95-.35.95-.3.9.05.95.15q.4.05.9.4l.75.5.8.9.3.55q.25.65-.05 1.1l-.35.3z"/><path fill="#999" d="m45.55 36.8-.2.15q-.9.6-3.15.6-6-.05-11.9.3-2.45.2-3.65 0l-.9-.25.15-5.95q.3-6.25 1.25-9.55 1.15-4.3 3.7-6.4 1.95-1.6 4.3-1.85l.1.05 1.95.15q2.7.2 5.15 2.9 2.4 2.7 2.9 8.2.4 4.85.3 11.65M39.6 21.35q.3.7 1.1 1.05l1.55.1q.75-.25 1.15-1.05.4-.75.2-1.55-.35-1-1.25-1.4l-1.9.1q-.7.35-.9 1-.15.4-.15.8zm-1.1 1.35q-.85-.65-2-.8l-2.2.2q-1.2.4-2.05 1.25-1.05 1.05-1.2 2.3-.1.95.45 1.95.5.9 1.35 1.5 1.6 1.05 3.95.95 1.8 0 2.7-.9.55-.55.7-1.45.3-1.15 0-2.35-.3-1.65-1.7-2.65m-8.4.5q1.25.35 2.05-.75.8-.95.25-2.15-.6-1.2-1.85-1.2l-.15.05q-.9-.1-1.5.7-.7.85-.35 2 .45 1.2 1.55 1.35m4.1-5.6.15.9q.3.7 1.05 1.1l1.5.2q.75-.15 1.3-.75.5-.65.5-1.4.05-.8-.45-1.4-.5-.65-1.25-.85l-1.5.15q-.75.35-1.1 1.05z"/><path fill="#fff" d="M65.6 9.6q-.5-1.05-1.4-1.5l-.85-.3v-.15L63.2 6.5l.05-.2q.3-.85.75-1.15.5-.45 1.3-.25l1.2.65.55.6.4.7.1 1.1-.25 1.2-.8.6-.75.25zm-4.75-1.25q-.7.5-1.05 1.35l-.15.4h-.3q-1.2-.15-2.25-1.05-.8-.75-1-1.75-.25-1.1.35-2 .7-.95 1.75-.95l.85.2q.75.15 1.2.6l.65 1 .55 1.35.1.5q-.35.1-.7.35M5.6 9.6l-.15.4-.75-.25q-.55-.25-.8-.6t-.25-1.2q-.1-.65.1-1.1l.4-.7.55-.6q.6-.5 1.2-.65.8-.2 1.3.25.45.3.75 1.15l.05.2q-.15.4-.15 1.15v.15L7 8.1q-.9.45-1.4 1.5m4.75-1.25Q10 8.1 9.65 8l.1-.5.55-1.35.65-1q.45-.45 1.2-.6l.85-.2q1.05 0 1.75.95.6.9.35 2-.2 1-1 1.75-1.05.9-2.25 1.05h-.3l-.15-.4q-.35-.85-1.05-1.35"/></g></svg>