<svg xmlns="http://www.w3.org/2000/svg" xmlns:ffdec="https://www.free-decompiler.com/flash" ffdec:objectType="shape" width="50.4" height="39.4"><g fill-rule="evenodd"><path fill="#ccc" d="M34.95 11.1q-.8.1-1.3-.5-.5-.55-.4-1.4.15-.6 1-1.45L40 2.3q.9-.6 1.4-.6.85 0 1.15.65.4.7 0 1.35l-.6.65L36.9 9.8q-1.15 1.25-1.95 1.3m1.75 2.45q-.3-.55.05-1.15l.75-1 2.75-2.25q.9-.55 1.35-.55l.9.5q.4.45.3.95-.1.55-.95 1.4L40 13.1q-1 .9-1.65 1.05h-.95zm-5.4-2.8q-.25.9-1.85 2.2-1.85 1.55-5.05 5.15l-9.7 11q-1 1.2-1.85 1.3l-1-.3q-.45-.3-.6-.8-.3-.9.55-2.25l1.7-2.2 9.3-11.05q2.7-3.05 4.5-4.55 1.15-.95 2.05-1 .9 0 1.5.8.65.8.45 1.7"/><path fill="#999" d="m35.1 33.1-3.5 2.95q-2.3 1.4-3.45 2.15-1.5.95-2.2 1.1H23.7q-1.5-.15-5.5.05l-5.5-.25q-1.1-.2-1.7-.6-.95-.6-.95-1.55-.05-.95 1.2-2.1l2.95-2.25 14.65-9.8q1.8-1.15 2.8-1.35l1.25-.3 1.1-.9q1.4-1.4 2.65-1.25.7.05 1.15.6h.15l3.55-3.75q.1-.1.35-.25l-.3-.65-.15-.75q-.05-.5.3-.9t.9-.5h.3l.05-.05.5-.25.2-.5q.6-.8 1.6-.55l.7.45.55-.45.9.1.55.65.05.45.7.15 1.05.4q.6.3.65.85.1.55-.45 1l-1.05.45-1.4.3.05.15.15.35.15.25.1.1.45.55q.8.1 1.1.7.4.6.2 1.25-.25.7-.9.85l-.5.1q-.05.45-.5.75l-.9.3-.7.1-.6.55-1.1-.05-.3.25-1.05 1q1.1 1 1.1 1.9 0 .7-.65 1.45l-1.25 1.05-1.5 1.05-.9 4-.85 2.1-.8 1-.6.85-.65.4-.7.35-1.2.8-.45.3-.1.05-.9.25-.9-.25q-.3-.35 0-.85 0-.35.3-.75l.7-.55 1.55-.95.7-.45 1.2-1.55 1.05-2.8zm6.25-12.2 3.1-2.6-.45-.1-.65-.3-2.9 3.05.5.4zM21.2 12.7q.3.55-.05 1.2l-.8.95-4.4 4.65-7.3 8.95q.8.15 1.1.95.25.75-.25 1.4-.5.55-1.8.85L4.45 32.7l-1.05.45q-.75 0-1.05-.6l-.25-.75.05-.6.35-1.1.1-.5.15-.4.05-.55.3-1.1.3-.7Q4 26 5 26.35l.45.35 4.95-5.55 3.2-3.4-.2-.2q-.2-.35-.1-1.3l.1-1.1q.25-.75 1-.75l.35.1.15-.65q.25-.8 1.15-.8l.25.05.3-.9q.3-.35.75-.35l.8.2.15.15.2-.8q.35-.75 1.15-.5l.7.7.1.65q.5 0 .75.45M2.65 10.45q-.25-.5-.1-1.45h-.1L.8 8.75q-.95-.6-.8-1.6.1-1 1.05-1.45l1.65-.1.2-1.2q.25-.5.8-.75.6-.2 1.1 0 .6.3.85 1.1l.15.95q1.55-.1 2 .45.65.75.1 1.65-.4.65-1.4 1l-.75.15-.2.75q-.35 1.1-1.1 1.4-.45.2-1 0t-.8-.65m15 24.6-.5.2 3.75.05v-.6l-.15-.3-1.15.55-.85.3z"/><path d="M29.7 6.2q.6.1 1.7.8.1-.3.75-.9l-.05-.2q-.15-.55.1-1.45.1-.4.35-.65v-.25q.1-.8.9-1h.2q.1-.45.5-.65l.65-.2.1-.15q.35-.4.9-.4l.1-.15q.35-.5 1.05-.6.6 0 1.1.5l.4.95.25.9.2.05.85.15q.55.1.75.45.4.6-.3 1.3l-.75.5.05.5q0 .6-.5.95l-.1.05-.05.2-.15.45 2.3-1.7v-1.4l.25-.65q.3-.45.9-.45l.35.05v-.05q.1-.75.3-1.05.35-.4.8-.45l.1-.5Q44.15.3 45.05.5l.4.15.15-.25q.55-.55 1.3-.3.7.25.8 1l-.05.85v.25l.05.1 1.05.2q.55.1.9.35.45.3.45.9l-.5.85-.45.15.1.85-.55.8-1.4.25-.35-.05.05.3.65.1q.6.35.5.9l-.1.3 1.05.35.65.9q0 .65-.6 1-.35.3-1.1.4H48l.1.25q.15.7-.5 1.15v.3q-.1.7-.65 1l-1.25.15-1.35-.3q-.6-.3-.85-.85l-.3.25-1.5 1.4-1.2.95q.65 1.05.55 1.7t-.75 1.2l-.15 1.4-.95 2.8q-2 4.6-5.05 7.85-1.6 1.85-3.35 2.8-2.1 1.2-4.2.9l-1.25-.25-1.25.05-1.35.8q-3.15 2.3-7 1.65-1.15-.2-1.65-.75-.65-.2-1.55-.85l-3.05-2.3Q7.85 30.9 7.75 29.9q-.1-1.05 1.1-2.55l3.2-4q3.75-4.7 6.25-7.3l3.95-3.8 3.95-3.9q2.1-2.3 3.5-2.15m8.65 6.45 2.4-1.8.75-.5-.05-.55q0-1.3.5-1.75.35-.3.8-.3l.4.05v-.05l.05-.15-.1-.05-.4-.3-.8.6-3.4 3.2-.75.8-.15.15.75.7zm-3.15-3q.25-.35 1.85-1.2l.9-.55-.85.05-1.9-.35-.4.55-.85.75 1.15.9zm-.5 12.1Q29.5 25.8 19.45 32.2l-1.3.85q1.05-.1 2.6-1.05 2.1-1.25 3.05-1.4l2 .15 2 .1q1.65-.25 3.3-2 3.85-3.75 5.8-8.75zM15.3 10.8l-9 9.95.3.35.45.65q.25.55.15 1.05l-.6.85-.95.2-1.4.05-1.3.3-1.15.7-1.15-.15q-.5-.3-.6-.95-.1-.4.2-1.2l.5-1.05.25-.8.25-1.85.05-.95.2-.9q.45-.95 1.55-.85 1.1.2 1.25 1.2l.1.45L11 11.1l3.35-3.4-.5-1.05-.2-1.05q0-.65.35-1.05.4-.45.95-.45.45 0 .8.3-.15-.8 0-1.2.25-.65.95-.75l.75.1.05-.55q.2-.55.7-.7l1 .15q.35.25.75 1.2l.1.2.6-.2 1 .15q.45.25.45.9l.15.05 1.1.6q.45.65.25 1.2-.15.65-.8.9l-1.05.1.05.65-.5.9.2.65q-.05.5-.45.8l-1 .25-2.25.25h-1.4l-.9.6-.1.1zm15.05.1q-.55-.35-.85-.3l-.75.45-5.6 5.65q-3.4 3.35-5.35 5.8l-2.4 3.15-2.6 3.05-.2.5.4-.55Q20.85 20 27.95 13.1z"/></g></svg>