<svg xmlns="http://www.w3.org/2000/svg" xmlns:ffdec="https://www.free-decompiler.com/flash" ffdec:objectType="shape" width="75.75" height="44.8"><g fill-rule="evenodd"><path d="m53.6 5.7 1.65-.6.55-.25 1.75-.7q1.2-.2 1.75.45.6.65.4 1.8l-.2.8-.25.6-.95 2.45-1.55 3.85-.85 2.15.25.6q.65 1.5 1 4.1.6 4.85-.7 9.2-1.45 4.7-4.85 7.5-5.25 4.3-15.85 3.9l-5.4-.6q-2.2-.45-5.2-1.7-3.7-1.6-5.3-3.4-2.9-3.15-2.9-9.35 0-5.4 2.15-10.2l-.15-.55-.05-.1v-.1l-.5-1.1-.4-1.6-.25-.5-.35-1.3-.5-1.85-.25-.95-.35-2.35.2-1.2.4-.5.35-.25.45-.15 1.2.1 2.15.75 1.65.75 2.7 1.4.95.5.3.15q3.65-2.3 8.3-2.9l2.8-.2q3.15-.05 5.8.75l1.8.65q1.6.7 3.25 1.95l1.05-.5 2.5-1z"/><path fill="#999" d="M18.2 2.45q-.15.6-1.35 1.05-5.6 2.2-8.1 5.55-1.65 2.3-3.05 7.45Q4 23.25 3.9 27.45q-.1 6.25 2.55 10.7l1.2 2.4q.1.7-.2 1.35-.3.7-.95.9-1.2.3-2.5-1.4Q.25 36.15.15 28.5q-.05-5.55 2.2-13.4Q3.85 9.7 6 6.95 8.35 4 13 2q1.6-.75 3-.95l1.5.15q.85.4.7 1.25m4.5 2.95 2.15-1.55q4.5-2.75 9.05-2.3l.5.05.15-.05q6.4-.8 12.05.8 3.95 1.15 7 3.35l-1.45.5-2.5 1q-2.5-1.3-5.5-2l-.6-.1q-2.65-.8-5.8-.75l-2.8.2-1.55.1-.5.05q-3.45.5-6.55 2.6l-.95-.5zm32.55-.3L52.8 3.9l-1.6-.95q-.8-.7-.65-1.6.1-.7.8-1.05L52.7 0q.7.05 2.5 1.05l3 1.75q1.7 1.05 2.8 1.95 3.5 3 5.15 8.15 1.2 3.7 1.4 9.55.1 7.1-1.65 11.75-2.3 6.25-7.4 8.9l-1.55.5q-.95 0-1.35-.75-.3-.75.25-1.5.35-.4 1.25-1 4.05-2.85 5.65-6.65.8-1.95 1.15-4.5.7-4.3.4-9-.55-7.7-4.4-11.75l-.65-.65.25-.6.2-.8q.2-1.15-.4-1.8-.55-.65-1.75-.45l-1.75.7zm3.05 5.15q1.25 1.7 2.05 3.55 2.1 4.5 2 10.05-.1 5.05-2.1 10.15-1 2.6-2.2 3.95L55.1 40.4q-3.4 2.35-6.1 2.95l-3.15-.15q-.85-.55-.85-1.1-.1-.95 1.85-1.55 2.95-.8 5.25-2.15 1.95-1.1 3.1-2.45l1.85-3.1q2.6-6.05 1.85-11.95-.45-3.8-2.15-6.8zm-39.35 5.5q-1.75 3.05-2.45 6L16 25.2q-.55 6.85 1.6 10.5 1.7 3 5 4.25l3.15 1q1.8.65 2.65 1.7-1.25 1.2-4.4 1.1-2.75-.1-4.3-.85-1.2-.6-2.9-2.2-2.4-2.3-3.3-4.05-.8-1.5-1.3-4.55-1-7.2 1-13.15 1.3-3.85 4.2-7.9l.35 1.3.25.5.4 1.6.5 1.1v.1zm-2.3-7.5-.25.25q-3.7 4-5.1 9.05l-.75 3.55q-.6 3.9-.5 6.55.15 2.8 1.4 7.45.6 2.3 1.35 3.2l1.6 1.6q.95 1.15.45 2.1-.4.85-1.5.85-.8 0-1.65-.6-2.85-1.8-4.1-7.05-2.3-9.45 0-17.55 1.3-4.4 3.85-8 2.3-3.35 5.45-5.45l-.4.5-.2 1.2zm.6-4.3.55-.35q1.5-.95 4.3-2.2 1.95-.8 3-.5l.6.5.15.65-.85.65q-2.1.75-3.95 1.95L18.9 3.9l-1.2-.1zm-14.1 0 1.65-1.7L7.3.7l1.45.15q.75.5.6 1.3-.05.55-.85 1.25L6.15 4.95l-.45.5L4.15 7.3l-1.5 3.05q-.85 1.7-1.5 2.25l-.6.15q-.2-.05-.35-.7l-.2-1.2.15-.55 1-2.75.9-2.05zm70.2 9.9-.25-.75-.25-1.8-.4-1.35-.95-2.5-1.15-1.75-1.15-1.35-1.1-1.15q-.5-.95.1-1.8.7-.85 1.65-.7.8.1 1.8 1.3 2.9 3.5 3.75 8.05l.15.9-.05 1.3-.15 1.45q-.2.9-.6 1.2l-.65.25q-.35 0-.55-.3zM62.7 44.5q-.75-.7-.4-1.85.2-.65 1.05-1.7 2.8-3.65 4.05-7 1-2.75 1.65-7.95l.6-6.25q.1-3.45-.7-6.1-.9-3.05-3.3-6-1.75-2.2-4.85-4.95-1.55-1.2-.9-2.2.6-.9 2.25 0 4.3 2.3 7.2 6.4 2.85 4.15 3.5 8.95.35 2.4.15 5.45l-.6 5.4q-.7 5.1-1.5 7.55-1.3 3.95-4.9 8.9l-1.4 1.4zm6.8-.7q-.45-.05-.75-.4-.25-.4-.2-.85l.35-.7 2.95-4.7.9-2.45 2.05-5.45.4 1.15.45 1.2.1 1.1q.1 5.05-3.1 8.95l-.85.95-1.4.95z"/><path fill="#fff" d="M45.85 15.3q-1.15.2-1.65.8-.4.4-.4 1.2-.15 1.5.65 2.55.9 1.25 2.35 1.15l1.05-.2q1.3-.3 1.7-.9l.45-1.25q.05-1.05-.45-1.95-.6-.95-1.5-1.3zm3.85-2.15q1.25.65 2.45 2.6l.5 1 .1 2.2.05 1.2-.45 1.05L51 22.75l-2.1.85-1.65.3-1.6-.2-1.6-.55q-1.75-1-2.6-3.7l-1.6.05q-1.7-.45-2.3-2.35l-.1-1.05q.15-.95 1.1-1.65.5-.5 1.1-.45.45.1.75.55l.2.95.35-.9q.75-2.65 3.55-4.1 1.4-.8 2.85-.85l2.05.2 1.2.45 1.05.65.8.45q.45.45.55 1.4l.05.45-2.4-1.25-1.1-.4q-1.55-.35-3.35.85h.3l2.1.35zm11.55 10.5-.35.15h-.6l-.4-.45q-.2-.55.15-1.25.55-1.15 1.85-1.45l1.25.15.5.8.1.8q-.1.75-.65 1.15t-1.25.2zM13.2 37q-1.25-1.1-1.35-3 0-1.75 1-3.15l.45-.9.1-1.45q.05-1.2 1.3-2.65 1.8-2.05 3.9-2.6l2.35-.15q1.2.25 2.1 1l.5.3.75-.1q2.15-.65 3.85.8l.3.25 1-.5 3.6-.3 2.1.45 1.15.75.7.7.2.4.2-.4.7-.7 1.15-.75 2.1-.45 3.6.3 1 .5.3-.25q1.7-1.45 3.85-.8l.75.1.5-.3q.9-.75 2.1-1l2.35.15q2.1.55 3.9 2.6 1.25 1.45 1.3 2.65l.1 1.45.45.9q1 1.4 1 3.15-.1 1.9-1.35 3-.8.75-2 .9-.15.95-1.35 1.6-1.65.9-3.35.45l-.8-.15-.8.1q-1.65.3-3.15-.65-1.4-.95-1.8-2.65l-.25-.9-.75-.15-2.15-.15h-5.2l-2-.15-.4-.2-.4.2-2 .15h-5.2l-2.15.15-.75.15-.25.9q-.4 1.7-1.8 2.65-1.5.95-3.15.65l-.8-.1-.8.15q-1.7.45-3.35-.45-1.2-.65-1.35-1.6-1.2-.15-2-.9m55.5-6.1q-.8.45-2.15-.25l-2-.9-.75-.05-.6-.35q-.15-.2-.15-.75.1-.8.65-1.15l1.1-.15 1.6.1q1.85.1 2.55.75.7.6.6 1.45 0 .95-.85 1.3m-5.2 7.7q.85.85.3 2-.6 1.1-1.8.9-.75-.05-1.2-.7-.75-1.05.05-2.1.35-.45.9-.6l1.1.05zm-17.3-1.5.05.3v.25l-.25.45-.35.15q-.6.1-.85-.4l-.05-.3.1-.5q.2-.25.45-.3.65-.2.9.35m-4.45-8.15-.05-1-.85.15q.5 1.65.6 4v.1l.85-.05-.05-.4zM58.15 20q.15.95-.5 1.45l-1.55.15q-.8-.45-.7-1.35l.2-.55.65-.6.85-.1q.8.15 1.05 1m-33.1-6.85 1.1-.35 2.1-.35h.3q-1.8-1.2-3.35-.85l-1.1.4q-1 .4-2.4 1.25l.05-.45q.1-.95.55-1.4l.8-.45 1.05-.65 1.2-.45 2.05-.2q1.45.05 2.85.85 2.8 1.45 3.55 4.1.1.6.35.9l.2-.95q.3-.45.75-.55.6-.05 1.1.45.95.7 1.1 1.65l-.1 1.05q-.6 1.9-2.3 2.35l-1.6-.05q-.85 2.7-2.6 3.7l-1.6.55-1.6.2-1.65-.3q-1.5-.4-2.1-.85-.75-.55-1.35-1.55l-.45-1.05.05-1.2q-.1-1.5.1-2.2l.5-1q1.2-1.95 2.45-2.6m3.85 2.15-2.2.1q-.9.35-1.5 1.3-.5.9-.45 1.95.1.85.45 1.25.4.6 1.7.9l1.05.2q1.45.1 2.35-1.15.8-1.05.65-2.55 0-.8-.4-1.2-.5-.6-1.65-.8M16.25 20q.25-.85 1.05-1l.85.1.65.6.2.55q.1.9-.7 1.35l-1.55-.15q-.65-.5-.5-1.45m-3.1 3.65-.6.1-1.25-.2q-.55-.4-.65-1.15l.1-.8q.2-.55.5-.8l1.25-.15q1.3.3 1.85 1.45.35.7.15 1.25l-.4.45h-.6zM5.7 30.9q-.85-.35-.85-1.3-.1-.85.6-1.45.7-.65 2.55-.75l1.6-.1 1.1.15q.55.35.65 1.15l-.15.75-.6.35-.75.05-2 .9q-1.35.7-2.15.25m5.2 7.7.65-.45 1.1-.05q.55.15.9.6.8 1.05.05 2.1-.45.65-1.2.7-1.2.2-1.8-.9-.55-1.15.3-2m25.7-6.3-.05.45q.4.1.65.3.25-.2.65-.3l-.05-.45q-.05-1.65.05-2.75l-.65-.25-.65.25zm-3.95-3.35-.5 2.8-.05.4.85.05v-.1q.1-2.35.6-4l-.85-.15zM28.2 37.1q.25-.55.9-.35l.45.3.1.5-.05.3q-.25.5-.85.4l-.35-.15-.25-.45v-.25z"/></g></svg>