<svg xmlns="http://www.w3.org/2000/svg" xmlns:ffdec="https://www.free-decompiler.com/flash" ffdec:objectType="shape" width="77.85" height="44.05"><g fill-rule="evenodd"><path fill="#999" d="m46.8 28.8-1.1 3.35-1.65 3.6-.75 1.1q-3.2 4.35-7 6-1.05.55-1.85.4-.35 0-.5-.25-.3-.3 0-.75l.65-.5q2.8-1.6 4.65-3.4l2.2-2.6.9-1.35.7-1.45q1.4-3.45 1.8-5.75l.45-4.45.2-3.4-.3-2.85q-.45-3.2-1.25-5.2-1-2.75-2.85-4.5l-1-.85q-1.85-1.35-3.65-2.2l-1.6-.95q-.8-.9-.3-1.7.4-.6 1.25-.6l1.4.4q1.45.7 2.75 1.55l3.4 2.95.8.8.55.8q2 3.2 2.8 8.45l.25 1.5q.3 2.9-.15 7.15zM8.15.8q1.6-.9 2.6-.8.55 0 1 .35.5.45.45.95-.05.55-1 1.2L8.9 3.9l-.9.5Q5.6 5.75 3.9 8l-.95.95q-.75.3-1.25-.3-.4-.45-.3-1.1l.35-1.15q1-1.8 2.75-3.3Q6.2 1.8 8.15.8m49.8 42.6q-.15-.35.1-.7l.55-.5 3.3-2.9 1.9-2.3 1.55-2.15.8-1.8q1.6-4 2.6-8.45l.45-2.25Q70.6 14 68.3 4.4l-.35-2.05q-.1-.75.15-1.15.4-.65 1-.5.6.2.8 1.15 2.6 9 1.75 18.35l-.45 3.05q-.95 5.25-2.95 10.25l-.7 1.55q-.9 1.7-2.9 4l-2.5 2.6q-1.45 1.3-2.95 1.9l-.65.15q-.45 0-.6-.3m2.7-15.2L60.2 30l-1.1 2.9-1.8 3.55-.65.9q-2.5 3.25-5.9 5.6-1.05.65-1.6.35-.7-.45-.3-1.1l.75-.6 1-.85q4.15-3.65 5.55-6.2l.8-1.75.95-2.25q1.25-3.4 1.55-9.65l.05-3.7-.05-2.25.05-1.1-.1-1.05-1.55-7.05-.75-2.2-.45-1.2q0-.5.4-.85l.85-.25q.75.15 1.25 1.1l.55 1.45q1.25 4.15 1.9 8.05l.2 1-.05 6.15q-.15 4.85-1.1 9.2M46 1.8q-.25-.7.15-1.35.55-.65 1.25-.4l.8.65 1.25 1.5.65 1 1.55 2.65q1.05 2.2 1.9 6.3l.2 1L54 15.7l.15 6.35-.55 4.6-.3 1.45q-.95 4.7-3.8 8.7t-7 6.45l-.9.4q-.7 0-.85-.45-.2-.3.1-.8.25-.35.6-.55 3.25-2.6 5.4-5.2 2.5-3.15 3.5-6.5l.55-2.2.6-3.55q.45-3.75-.1-9.7l-.15-1.4-1-4.2-1.5-3.35-1.85-2.7q-.8-.9-.9-1.25M10.9 29.7l.7 1.2.85.8 1 1.2 1.5 1.5.8.65.35 1q-.1.55-.75.85l-1.2.05q-1.65-.15-3.05-1.4L9.8 34.2l-1-.9q-.65-.65-1.2-2.05l-.5-1.45-.3-1.65-.35-3.2.2-1.3q.4-2.85 1.55-4.85.85-1.5 2.7-3.35l1-.95 2.45-1.5 1.45-.7 2.5-.6q5.95-.9 9.8.9 1.8.9 3.2 2.3l.8 1q1.45 1.85 2.15 3.8.75 2.05.6 4.2l-.5 3.45-1.3 4.7q-1.05 2.6-2.55 4.1l-2.25 1.65q2.6-.95 4.25-2.9 1.25-1.5 2.65-4.9l1.35-4.35.2-1.25.15-3-.3-2.05q-.75-2.9-1.95-4.45l-.9-1q-1.4-1.4-2.9-2.25-1.75-.95-5.1-1.6l-5.95-.45q-1.3.2-3.95 1.3l-1.4.7-1.4.95q-4.55 3.35-6.45 7.6-1 2.3-1.2 4.5-.15 1.3.05 2.45l.7 2.15 1.3 3 .5.85L9.3 35l1.6 1.35 1.65 1.3q.5.5.5.95.05.65-.75.95-.55.2-1.35 0Q8.9 39.1 7.2 37.5 5.65 36.1 4.6 34l-1.7-3.75Q2.2 28.4 2 27l-.05-1.3q.15-6.45 4-11.1l1.1-1.3q1.45-1.65 2.6-2.6l2.65-1.95q.9-.55 2.1-.95 2.9-1.3 4.85-1.6 2.9-.45 7.8.8l3.45 1.05 2.65 1.4 1.05.7 1.3 1.2 1.2 1.25q3.35 3.9 3 10.4-.3 4.55-2.4 9.25-2.15 4.85-5.3 6.95-1.3.8-3.45 1.6 4.75-1.4 7.55-4.9 1.3-1.6 2.7-4.65l1.5-3.9q1.25-4.05.85-8.3l-.6-3-.9-2.05q-1.4-3.05-2.9-4.15l-1.65-.9Q31.5 7.1 29.15 6.3L26 5.6h-2.3l-3.85.1-2.25.5-3.5.45q-1.05.25-2.6 1.2l-3.85 2.5-1.2 1.2Q5.2 12.9 4.25 14.4l-.9 1.6-1.05 1.55-.75.55-.95-.2-.55-.85q-.15-.75.35-2Q1.5 12.3 3.45 9.9L4.5 8.75l3.15-2.4.7-.45 3.2-1.85q1.85-.75 3.5-.9l2.05-.2 1.75-.4 1.55-.15h4.2l2.5.1q1.25.15 2.95.75 2.4.85 6.9 3.25l1.7.95q1.35 1.05 2.6 3.2 2.3 3.8 2.6 7.9l.05 2.6-.15 3.1q-.45 3.35-2.4 7.8l-1.05 2.3q-3.25 6.1-9.5 8.5-3.8 1.4-7.3.9l-4.25-.9q-2.25-.55-3-1.25l-.5-.8q-.1-.65.25-.85l.15-.05-.35-.45q-.25-.4-.15-.9.1-.55.5-.75l.8-.1.85.2 1.15.15-.15-.25q-.3-.55-.1-1 .3-.8 1.65-1.1l3.25-.3q2-.15 3.1-.75 1.7-.9 2.75-3.05l1.25-3.95.65-3.75q.15-2-.65-3.7l-.7-1.15-1.65-2q-1.05-1.05-3-1.6l-1.9-.4-3.15.05-1.95.25-2.4 1-2.05 1.3-1.05 1.15-1.15 1.45q-.45.75-.8 1.65-.65 1.5-.7 3l.1 1.9q.2 1.85.6 2.9m59.2 13.75-.75.05q-.5-.1-.5-.55-.05-.25.45-.75l2.65-2.5q1.9-1.9 3.45-4.6l1.1-1.95 1.3-1.8q.15 1-.05 1.85l-1.1 2.85-2.25 3.55-1.2 1.3-2.1 1.85zm.8-5.25.1.05-.15.15v.05l-.05.15-.1.05v.1l-.05.05v.15h-.05v-.2l.05-.1.15-.2v-.05l.05-.05v-.1h.05zm-69.05-.85.1-.3-.05-.3-.4-1.4q0-.95.7-1.2l.55-.1q.65.1 1.05.7l1.95 2.8.55.65.45.65q.25.8-.2 1.4-.4.65-1.25.65l-1.1-.05-.55-.2-.9-.6-.4-.55-.55-1q-.15-.65.05-1.15"/><path d="m25.85 13.65.6.3 1.85.9q1.55.95 2.5 2.35l.5-.05.75.1 1.65-.1q.8.15 1.05.85l.1 1.1-.4 2.7-.05.25.6.95.3.75q.35.9.35 2.05v.3l.35 1.3.3 3.15-.15 1.85q-.35 2.35-2.4 4.8l-1.95 1.7-2.5.9-1.55.55-4.15.3-3.8-.7q-1.05-.4-1.85-.95v2.4l-.05 1.5q-.2.55-.8.85l-1.1.15-.9-.65q-.35-.55-.3-1.1l-.75 1.25q-.65.65-1.35.65-.85 0-1.2-.75l-1.15.05-.9-.7q-.65.7-1.55.55l-.75-.25-.5-.05q-.6.6-1.45.45-.95-.1-1.3-1-.35-.75.05-1.65l.9-1.4 2.85-2.8q-1.5-.2-2.7-1-2-1.3-2.65-3.7l-.2-2.55.1-2.25q.2-2 1.2-4.05l.8-1.25q.85-1.05 2.8-2.2.25-1.5 1.55-3l.7-.75.95-.75 1-.35 1.75-.3.7.15.95-2.6q.7-1.5 1.45-1.8l1.65.15q.55.25 1.45.95l3.15 1.55.45.25zm2.3 11.75-.1.1-.1.15-.05.85.1.25.1.05.1.1.2.15.2.1h.05v.05h.3l.05-.05.7-.55.05-.15.1-.2.05-.45-.05-.1.05-.15-.05-1-.05-.1-.15-.9v-.25l-.2-.45-.3-.1-.15-.2-.1.1v.15l-.15.15-.1.4-.05 1-.2.6-.25.25zm0-8.55v-.1l-.1-.3-.6-.35v-.05l-.3-.1-.2.2v.15l.1.15.05.4.1.15.15.5-.05.1v.25l-.15.55-.05.65.05.1.05.2q.3.4.75.4.5 0 .75-.35l.1-.2.05-.15v-.1l.1-.3v-.4l-.05-.15-.05-.25v-.1l-.1-.1-.1-.25-.1-.15zM10.4 30.75q-.6-1.1-.9-2.45-.55-2.15-.25-4.35l-.55-.25-.7-.5-.1-.1-.1.05q-.9.45-1.45 1.75-1.1 2.55-.9 5.1.2 1.8 1.15 2.65l1 .55 1.75.3 1.65-.3 1.05-.25zm19.35-3-.15-.1-.4.05-3.95.55-1.8.15-.15.15q-.4.4-.2 1.05.15.55.75.8l.9.15 1.55.3 1.5-.05.45-.1.5-.05.5-.2q.35-.45-.05-.75l-.75-.15-1.1-.2-.15-.05.15-.1 2.15-.55.2-.15.2-.35zm-15.1 1.45-.95.1q-.75.35-.75 1.2.1.9.95 1.05l.8.05 2.35.3 3.4.8q2.25.5 4.55 1.35.45-.35.1-.9l-.7-.65-1.4-.85-1.75-.7.05-.95-.25-.6-.45-.1-.5.1-.3.4-.35.5-.35-.2-.95-.3zm5.2-1.45.25-.45-1.05-.7q-.9-.75-2.1-2.85l-.55-1.1h-.5l-.2.1-.2.5q-.1.7.3 1.3l.2.35.05.3.7 1.15-.25-.05-1.2-.4-.05.05h-.55q-.35 0-.45.3l.1.4.5.5.8.55 1.7.8 1.3.2.55-.4h.05zm-3.6-10 .1-.15.3-.25.45-.5.25-.2q.15-.05.25-.15l.3-.2-.15-.2h-.3q-.3 0-.35.2h-.7l-.7.15-.9.35-.25.25-.5.85-.05.2q-.15.5.1.95l.25.2q.1.15.25.15h.05l.05.05h.3l.05-.05.45-.2.4-.55.05-.3zm14.8 15.7q-1.65 2.05-4.6 3.05l-4.35.65 1.45.2 2.8-.1 1.2-.35 1.6-.5 1.25-.55.7-.6q1.95-2.1 2-4.45l-.6.2z"/><path fill="#fff" d="m28.15 16.85.4.4.1.15.1.25.1.1v.1l.05.25.05.15v.4l-.1.3v.1l-.05.15-.1.2q-.25.35-.75.35-.45 0-.75-.4l-.05-.2-.05-.1.05-.65.15-.55v-.25l.05-.1-.15-.5-.1-.15-.05-.4-.1-.15v-.15l.2-.2.3.1v.05l.6.35.1.3zm0 8.55v-.2l.25-.25.2-.6.05-1 .1-.4.15-.15v-.15l.1-.1.15.2.3.1.2.45v.25l.15.9.05.1.05 1-.05.15.05.1-.05.45-.1.2-.05.15-.7.55-.05.05h-.3v-.05h-.05l-.2-.1-.2-.15-.1-.1-.1-.05-.1-.25.05-.85.1-.15zm-11.9-7.65-.3.6-.05.3-.4.55-.45.2-.05.05h-.3l-.05-.05h-.05q-.15 0-.25-.15l-.25-.2q-.25-.45-.1-.95l.05-.2.5-.85.25-.25.9-.35.7-.15h.7q.05-.2.35-.2h.3l.15.2-.3.2q-.1.1-.25.15l-.25.2-.45.5-.3.25zm3.6 10-.6.55h-.05l-.55.4-1.3-.2-1.7-.8-.8-.55-.5-.5-.1-.4q.1-.3.45-.3h.55l.05-.05 1.2.4.25.05-.7-1.15-.05-.3-.2-.35q-.4-.6-.3-1.3l.2-.5.2-.1h.5l.55 1.1q1.2 2.1 2.1 2.85l1.05.7zm-5.2 1.45 3.5.6.95.3.35.2.35-.5.3-.4.5-.1.45.1.25.6-.05.95 1.75.7 1.4.85.7.65q.35.55-.1.9-2.3-.85-4.55-1.35l-3.4-.8-2.35-.3-.8-.05q-.85-.15-.95-1.05 0-.85.75-1.2zm15.1-1.45.15.4-.2.35-.2.15-2.15.55-.15.1.15.05 1.1.2.75.15q.4.3.05.75l-.5.2-.5.05-.45.1-1.5.05-1.55-.3-.9-.15q-.6-.25-.75-.8-.2-.65.2-1.05l.15-.15 1.8-.15 3.95-.55.4-.05zM20.05 6.2l-.05.85-.25 1.25-.55.25q-.4-.1-.45-.45v-.2l-.1-.2q-.3-.45-.4-1.5l-.3-2.35q-.2-1.1.15-1.65l.25-.3.35-.2 1.4.1q.65.5.65 1.3l-.05.35-.5 1.85q-.15.4-.15.9m35.6 7.9q-.5.1-.7-.2-.15-.25.1-.6l.5-.3 1.75-.8 2.35-1.05 1.65-.85 2.35-.5 3.65-.9 3.6-1.05 2.25-.05q.85.4.95 1.3.1.95-.65 1.5l-1.2.5-1.5.35L63.4 13l-3.75.65zm8.5 4.95q.9.4 1.05 1.35.1 1.05-.65 1.65-.6.5-2.1.5l-7.25-.5-2.05-.3-1.5.1-1.85-.15q-1.7-.15-5.4.1-3.6.2-5.45 0l-.65-.2q-.3-.2-.15-.55l.5-.25 9.1-1.2 2.05-.1 1.85-.1 1.45-.3h1.1l1.1.1 2.15-.05 4.75-.35zm-26.55-4.6-5.35 1.5q-.7.25-.9-.15-.2-.35.35-.9l3.2-1.8 2.3-1.1q4.45-2.05 5.65-2.55l3.2-1.55 1.9-.05q.95.4 1.1 1.4.15.95-.6 1.65-.4.35-1.2.6zM57.75 35.7q.45.8.15 1.5-.25.8-1.1 1.05-.95.3-2.55-.6l-1.55-.8-2.25-1.3-7.65-4.2-2.05-.7q-.95-.35-2.35-1.2-.5-.3-.45-.6 0-.45.5-.35l.65.2 1.85.65 2.3.55 1.35.05q2 .2 5.25 1.7l3.05 1.5 2.4 1.2 1.35.5q.75.35 1.1.85M37.4 37.75l-.2-.45q-.1-.55.5-.65l.4.05 2 .65 2.55 1.4 2.15 1.6.55.65q.5.9-.1 1.8-.6.85-1.65.75l-1.35-.75-1.15-1.05-.95-.75-1.05-1.2-.85-.75-.45-.65zm-11.1-24.5q-.4-.1-.4-.65-.05-.65.35-1.85L27.7 7l1.45-2.75.5-.75q.65-.75 1.7-.5 1.05.35 1.15 1.4 0 .65-.6 1.65l-4.25 6.2-.8.75q-.3.3-.55.25M7.95 6.2l-.45-.6q-.5-.9 0-1.75Q7.95 3 9 3q1 0 1.5.9l.35 1.5.55 1.55 1.5 4.95.15 1.1-.1.5-.55.15-.55-.65-1.35-2.65L9.3 8.2z"/></g></svg>