<svg xmlns="http://www.w3.org/2000/svg" xmlns:ffdec="https://www.free-decompiler.com/flash" ffdec:objectType="shape" width="63.15" height="39.65"><g fill-rule="evenodd"><path fill="#999" d="m59.75 15.75-.3-.3-.65-.4-1.05-.8-.2-1 .1-.6q.15-.3.45-.45l.4-.25q.45-.15 1 .2l.2.1.15-.1q.45-.55 1-.6l1.05.15.45.4.5.75.2.4.1.5-.25.4q-.3.35-.85.5l-.55.2-.6.45-.05.2-.25.3zm-43.4 2.7q-.55 1.2-2.25 2.8.95.45 1.4 1.5.45 1 .25 2.1-.2 1.3-1.25 2.7.55.2.9.65l.35.55q1 1.9.8 3l-.3 1.5-.25.65-.75.8-1.05.8-.35.2-.15.1.35.15v-.05l.55-.4q.55-.35 1.05-.3.65.05 1.5 1.2l.5 1.05q.1.65-.4 1.05l-1.1.25-.2-.05-.8-.35-1.05-.65-.4.6q-.55.55-1.85.75l-8.2.6-1.7-.3q-.55-.45-.85-1.75-.4-1.9-.35-2.85l.3-2.4.1-3-.1-5.15q-.1-2.1-.5-3.4L.2 19.55l.05-.7-.15-.35-.05-1q.3-1 1.4-1.4L3 15.95q.9-.95 2.25-1.25L7 14.5q.1-1.6.5-2.85.7-1.85 2.1-2.7.7-.45 2.9-.9.3-1.25 2.25-2.65 1.8-1.4 3.05-1.35l.7.15.35-.4q1-1 2.2-1.35l.6-.15.7-.65 1.05-.4 1.4.2.6.4.1.1.1-.15q.5-.6 1.3-.8L28 .9l1.15-.3 1.55.25.1-.1.85-.3.9-.05.85.05 1 .45 1.1-.4 3.1.15.85.6.85.45 1.35.2 1.25.3q.5.3.75 1.05h.15q.75.05 1.3.55l.15.15 1.35-.3.85.15.95.3q.45.2.9.75l.5.75q.5.65.6 1.6.7.2 1.3.9l.65 1.1v.75l-.05.3-.05 1.25.1.1q.9.9 1.05 1.6l-.1.95-.65.65h-.8l-1.05-.1-.85-.6-.2-1.25q.05-.75.25-1.15l-.15-.15-.45.15-1.9-.1-1-.6-.9-1.25-.2-.35v-.6l.1-.5h-1.95l-1.1-.35h-.55l-1.7-.45q-.8-.5-.9-1.25l-1.1-.2q-.55-.25-.85-.9l-.15-.55-.35.7-1.1.85-.55.15-1.35.55q-1.25.25-3.1-.75l-.65-.4-.3-.3-.55.7-.65.55-1.35.7-.65.2-1.25-.1-.6-.2-.25.35q-.5.45-1.15.5h-.55l-.1.05-.85.6-.65.6v.3l-.1.7-.25.65q-.35.7-1.25 1.4v.7q-.05 2-1.55 3.45l-.95.75-.45.3zM46.9 1.6l.1.35-.05.25-.45.5-.5-.05-.3-.15-.15-.35q-.1-.25.05-.55l.3-.3.3-.05.05-.05.45.15zm13 21.3q-.5.65-1.55 1.15l-1.85.8-2.75 1.55q-1.75 1.1-2.9 1.35-1.85.45-3.05-.5L46.35 26l-1.45-.25q-1.35-.2-1.8-.85-.35-.65-.2-1.45.1-.6.5-1.35 1-2.1 1.95-2.9.7-.6 1.55-.8l1.65.2 1.3.9 1.65.2 1.25-.65 1.2-.7q1.6-.95 2.35-.95.95 0 1.5.5l2 1.7q.65.65.65 1.6 0 1-.55 1.7m-2.35 8.5.45-.05q.65-.25 1.25 0l.55.4q.2.35.05.8-.15.65-.7 1.05l-1.8.8-.75.15-.7-.45-.45-1-.3-1.45q0-.35.3-.5l.85-.1.85.1zM37.2 9h-.85l-.65-.55-.2-.5q0-.65.35-1l.5-.35 1 .1q.75.4.65 1.25 0 .8-.8 1.05M21.25 20.6q-.25.65-1 .65-.7 0-.9-.75-.05-.45.15-.8l.7-.4.1-.05q.4 0 .75.35l.25.75zM15.4 2.25q-.25-1.1.65-1.85.5-.4 1.15-.4.65-.05 1.15.3l.75 1-.05 1.2-.75.95q-.55.4-1.15.35-1.45-.2-1.75-1.55M11 5.15l-1.15.1q-.55-.3-.55-1t.65-.95l.7-.05.6.35.15.25.05.35-.05.4zM5.15 13q-.05.65-.6 1.15-.55.45-1.25.5-.65 0-1.2-.45-.55-.5-.65-1.15t.25-1.25q.4-.6 1-.8l1.3.05q.65.3.95.85.3.5.2 1.1m30.2 14.45-.65-.3-.7-.2q-.9-.4-1.15-1.25-.25-1.05.6-1.55l1.4-.2.5.05q-.05-.3.25-.5l.6-.1 1.45.3q.5.4.4 1.2l-.45 1.25-.8 1.25-.75.5zm.95-3v.05l.1-.05z"/><path d="m46.75 8.55-.6-.45-.55-.55q-.35-.35-1.25-.85l-.6-.7q-.2-.6.5-1.1l2.5.2q1.05.5 1.5 1.25.6 1.05-.05 1.85-.6.7-1.45.35m5.6 2.5.7 1.4.15.9-.35.75q-.3.4-.7.45-1 .2-1.45-.7l-.3-1.1-.75-1.55q-.4-.7-.2-1.1.35-.55 1.25-.25t1.65 1.2m0 17.85-.6 1.15q-.65.85-1.65.4l-1.3-1.1q-.9-.9-3.55-1.5-2.6-.65-3.5-1.6-1.5-1.6-.9-4.25.4-1.7 1.65-3.1 1.25-1.35 2.9-1.9l3.5-.2q1.8.35 3.15 1.5l.3.15.35-.2q.65-.85 1.2-1.2 1.6-1.15 3.6-.4 1.75.6 2.9 2.3l.7 1.4q.35 1.55-.65 3l-2.3 2.2-2.05 1.35-2.3 1q-1.1.5-1.45 1m6.1-8.8q-.7-.75-1.7-1-.45-.15-.95 0l-.6.5q-.85.85-1.35 1.6l-.55.8q-.55.45-1.1.3l-1.5-.9-1.85-1.3q-1.5-.55-3 .35-1.35.8-1.85 2.5l-.05.7q.1.65 1.4.95l3.8 1.05q1.35.55 2.1 1.75l.65-.5q.3-.35 1.5-.95l2-1.2q2.15-1.35 3-2.5.6-.9.4-1.5zM40.55 2.7q.3.6-.05 1.25-.3.6-1.05.7l-2.95-.5-.9-.3q-.55-.35-.55-.8 0-.55.5-.8l.95-.35q2.1-.5 3.2 0zM31.1 4.1l-1.4.3-2 .3-.8.15q-.5 0-.75-.3-.45-.5.1-1.25.75-1 2.6-1.45l1.3-.2q.75 0 1.25.5.35.4.25 1.05-.05.6-.55.9M17.5 9.95q-.5-.3-.4-1 .05-.35.45-.95.4-.65 1.85-1.95.9-.65 1.3-.7.6-.1 1.1.4.4.5.25 1.15T21.1 8l-1.3.8-1 .95q-.7.6-1.3.2M9.15 21.5q.5.5.35 1.35l-.6 1.3L7.75 26l-.55.7-1.1-.1q-.4-.4-.3-1l.25-1 1.2-2.4q.3-.65.65-.8zm1.25-3.45q-.45-.6.05-1.6t1.9-2.8l.95-.8q.65-.25 1.2.3.45.55.3 1.3l-.65 1.05-1.4 1.75-1.05.95-.7.15q-.4-.05-.6-.3M3 34.95q-.3-.4-.2-1 0-.75.35-1.8l.35-1.1.55-1.1q.45-.45 1.15-.3t.85.85l-.05.95-.7 2.4-.2.95q-.3.6-1 .7-.7 0-1.1-.55"/></g></svg>