<svg xmlns="http://www.w3.org/2000/svg" xmlns:ffdec="https://www.free-decompiler.com/flash" ffdec:objectType="shape" width="75.7" height="39.5"><g fill-rule="evenodd"><path fill="#999" d="M75.1 7.85q-1.15 0-1.5-.6-.2-.25-.2-1.1l.2-2.35.05-1.9v-.8q.05-.45.35-.65l1.1-.3h.6V7.8zm-5.85-.95q-.6-.4-.4-1.05l.1-.4L69.2 3H69v-.05l-.35-.1-.6-.35-.35-.35q-.25-.35 0-.75l.15-.2q.05-.2.25-.25l.2-.05.2-.1.45-.35.55-.35q.45-.2.8 0l.3.15.2.35v.15l-.05.2V1l.3 2.95q.45.1.85.35l.55.75v.55l-.2.75-.4.3-.7.45-.65.05zm4.5 9q-.6-.4-.4-1.05l.1-.4.25-2.45h-.2v-.05l-.35-.1-.6-.35-.35-.35q-.25-.35 0-.75l.15-.2q.05-.2.25-.25l.2-.05.2-.1.45-.35q.4-.3.55-.35.45-.2.8 0l.3.15.2.35v.15l-.05.2V10l.3 2.95.15.05v3.1h-.05l-.65.05zM61.8 4.9l.65.25.5.55.15.95q-.1.55-.75.95l-1.25.25q-1.15 0-1.5-.6-.2-.25-.2-1.1l.2-2.35.05-1.9v-.8q.05-.45.35-.65.25-.2 1.1-.3L62.25.1l2.4.05.85.15.4.4.05.05.3.95-.15 2.7q.6.15.9.75l.3 1.15-.05.35-.15.25-.55.45-.55.2-1.15.1q-.65-.15-.85-.7l-.1-.55.05-1.2.05-.35.05-.8H64l-.75.2-1.35.05zm.1-2.65v.55l.15.05H63l.15-.05.1-.05h.1l.1-.05.65.1.05-.3.15-.6-2.2.15-.15.05zm4.4 11.65.65.25.5.55.15.95q-.1.55-.75.95l-1.25.25q-1.15 0-1.5-.6-.2-.25-.2-1.1l.2-2.35.05-1.9v-.8q.05-.45.35-.65.25-.2 1.1-.3l1.15-.05 2.4.05.85.15.4.4.05.05q.3.25.3.95l-.15 2.7q.6.15.9.75l.3 1.15-.05.35-.15.25-.55.45-.55.2-1.15.1q-.65-.15-.85-.7l-.1-.55.05-1.2.05-.35.05-.8h-.05l-.75.2-1.35.05zm.1-2.65v.55l.15.05h.95l.15-.05.1-.05h.1l.1-.05.65.1.05-.3.15-.6-2.2.15-.15.05zm-6.65 4.65q-.6-.4-.4-1.05l.1-.4.25-2.45h-.2v-.05l-.35-.1-.6-.35-.35-.35q-.25-.35 0-.75l.15-.2q.05-.2.25-.25l.2-.05.2-.1.45-.35q.4-.3.55-.35.45-.2.8 0l.3.15.2.35v.15l-.05.2V10l.3 2.95.85.35.55.75v.55l-.2.75-.4.3-.7.45-.65.05zm2.05 7 .65.25.5.55.15.95q-.1.55-.75.95l-1.25.25q-1.15 0-1.5-.6-.2-.25-.2-1.1l.2-2.35.05-1.9v-.8q.05-.45.35-.65.25-.2 1.1-.3l1.15-.05 2.4.05.85.15.4.4.05.05.3.95-.15 2.7q.6.15.9.75l.3 1.15-.05.35-.15.25-.55.45-.55.2-1.15.1q-.65-.15-.85-.7l-.1-.55.05-1.2.05-.35.05-.8H64l-.75.2-1.35.05zm.1-2.65v.55l.15.05H63l.15-.05.1-.05h.1l.1-.05.65.1.05-.3.15-.6-2.2.15-.15.05zm7.35 4.65q-.6-.4-.4-1.05l.1-.4.25-2.45H69v-.05l-.35-.1-.6-.35-.35-.35q-.25-.35 0-.75l.15-.2q.05-.2.25-.25l.2-.05.2-.1.45-.35.55-.35q.45-.2.8 0l.3.15.2.35v.15l-.05.2V19l.3 2.95q.45.1.85.35l.55.75v.55l-.2.75-.4.3-.7.45-.65.05zm5.85.95q-1.15 0-1.5-.6-.2-.25-.2-1.1l.2-2.35.05-1.9v-.8q.05-.45.35-.65l1.1-.3h.6v7.65zM55.25 6.9q-.6-.4-.4-1.05l.1-.4L55.2 3H55v-.05l-.35-.1-.6-.35-.35-.35q-.25-.35 0-.75l.15-.2q.05-.2.25-.25l.2-.05.2-.1.45-.35.55-.35q.45-.2.8 0l.3.15.2.35v.15l-.05.2V1l.3 2.95q.45.1.85.35l.55.75v.55l-.2.75-.4.3-.7.45-.65.05zm-7.45-2 .65.25.5.55.15.95q-.1.55-.75.95l-1.25.25q-1.15 0-1.5-.6-.2-.25-.2-1.1l.2-2.35.05-1.9v-.8L46 .45q.25-.2 1.1-.3L48.25.1l2.4.05.85.15.4.4.05.05q.3.25.3.95l-.15 2.7q.6.15.9.75l.3 1.15-.05.35-.15.25-.55.45-.55.2-1.15.1q-.65-.15-.85-.7l-.1-.55.05-1.2.05-.35.05-.8H50l-.75.2-1.35.05zm4.5 9 .65.25.5.55.15.95q-.1.55-.75.95l-1.25.25q-1.15 0-1.5-.6-.2-.25-.2-1.1l.2-2.35.05-1.9v-.8q.05-.45.35-.65l1.1-.3 1.15-.05 2.4.05.85.15.4.4.05.05q.3.25.3.95l-.15 2.7q.6.15.9.75l.3 1.15-.05.35-.15.25-.55.45-.55.2-1.15.1q-.65-.15-.85-.7l-.1-.55.05-1.2.05-.35.05-.8h-.05l-.75.2-1.35.05zM47.9 2.25v.55l.15.05H49l.15-.05.1-.05h.1l.1-.05.65.1.05-.3.15-.6-2.2.15-.15.05zM41.25 6.9q-.6-.4-.4-1.05l.1-.4L41.2 3H41v-.05l-.35-.1-.6-.35-.35-.35q-.25-.35 0-.75l.15-.2q.05-.2.25-.25l.2-.05.2-.1.45-.35.55-.35q.45-.2.8 0l.3.15.2.35v.15l-.05.2V1l.3 2.95.85.35.55.75v.55l-.2.75-.4.3-.7.45-.65.05zm-2.95 7 .65.25.5.55.15.95q-.1.55-.75.95l-1.25.25q-1.15 0-1.5-.6-.2-.25-.2-1.1l.2-2.35.05-1.9v-.8q.05-.45.35-.65l1.1-.3 1.15-.05 2.4.05.85.15.4.4.05.05q.3.25.3.95l-.15 2.7q.6.15.9.75l.3 1.15-.05.35-.15.25-.55.45-.55.2-1.15.1q-.65-.15-.85-.7l-.1-.55.05-1.2.05-.35.05-.8h-.05l-.75.2-1.35.05zm7.45 2q-.6-.4-.4-1.05l.1-.4.25-2.45h-.2v-.05l-.35-.1-.6-.35-.35-.35q-.25-.35 0-.75l.15-.2q.05-.2.25-.25l.2-.05.2-.1.45-.35.55-.35q.45-.2.8 0l.3.15.2.35v.15l-.05.2V10l.3 2.95.85.35.55.75v.55l-.2.75-.4.3-.7.45-.65.05zm2.05 7 .65.25.5.55.15.95q-.1.55-.75.95l-1.25.25q-1.15 0-1.5-.6-.2-.25-.2-1.1l.2-2.35.05-1.9v-.8l.35-.65q.25-.2 1.1-.3l1.15-.05 2.4.05.85.15.4.4.05.05q.3.25.3.95l-.15 2.7q.6.15.9.75l.3 1.15-.05.35-.15.25-.55.45-.55.2-1.15.1q-.65-.15-.85-.7l-.1-.55.05-1.2.05-.35.05-.8H50l-.75.2-1.35.05zm-6.55 2q-.6-.4-.4-1.05l.1-.4.25-2.45H41v-.05l-.35-.1-.6-.35-.35-.35q-.25-.35 0-.75l.15-.2q.05-.2.25-.25l.2-.05.2-.1.45-.35.55-.35q.45-.2.8 0l.3.15.2.35v.15l-.05.2V19l.3 2.95.85.35.55.75v.55l-.2.75-.4.3-.7.45-.65.05zm6.65-4.65v.55l.15.05H49l.15-.05.1-.05h.1l.1-.05.65.1.05-.3.15-.6-2.2.15-.15.05zm4.5-9v.55l.15.05h.95l.15-.05.1-.05h.1l.1-.05.65.1.05-.3.15-.6-2.2.15-.15.05zm2.85 13.65q-.6-.4-.4-1.05l.1-.4.25-2.45H55v-.05l-.35-.1-.6-.35-.35-.35q-.25-.35 0-.75l.15-.2q.05-.2.25-.25l.2-.05.2-.1.45-.35.55-.35q.45-.2.8 0l.3.15.2.35v.15l-.05.2V19l.3 2.95q.45.1.85.35l.55.75v.55l-.2.75-.4.3-.7.45-.65.05zm4.5 9q-.6-.4-.4-1.05l.1-.4.25-2.45h-.2v-.05l-.35-.1-.6-.35-.35-.35q-.25-.35 0-.75l.15-.2q.05-.2.25-.25l.2-.05.2-.1.45-.35q.4-.3.55-.35.45-.2.8 0l.3.15.2.35v.15l-.05.2V28l.3 2.95.85.35.55.75v.55l-.2.75-.4.3-.7.45-.65.05zm-7.45-2 .65.25.5.55.15.95q-.1.55-.75.95l-1.25.25q-1.15 0-1.5-.6-.2-.25-.2-1.1l.2-2.35.05-1.9v-.8q.05-.45.35-.65l1.1-.3 1.15-.05 2.4.05.85.15.4.4.05.05q.3.25.3.95l-.15 2.7q.6.15.9.75l.3 1.15-.05.35-.15.25-.55.45-.55.2-1.15.1q-.65-.15-.85-.7l-.1-.55.05-1.2.05-.35.05-.8h-.05l-.75.2-1.35.05zm.1-2.65v.55l.15.05h.95l.15-.05.1-.05h.1l.1-.05.65.1.05-.3.15-.6-2.2.15-.15.05zm-6.65 4.65q-.6-.4-.4-1.05l.1-.4.25-2.45h-.2v-.05l-.35-.1-.6-.35-.35-.35q-.25-.35 0-.75l.15-.2q.05-.2.25-.25l.2-.05.2-.1.45-.35.55-.35q.45-.2.8 0l.3.15.2.35v.15l-.05.2V28l.3 2.95.85.35.55.75v.55l-.2.75-.4.3-.7.45-.65.05zm-7.45-2 .65.25.5.55.15.95q-.1.55-.75.95l-1.25.25q-1.15 0-1.5-.6-.2-.25-.2-1.1l.2-2.35.05-1.9v-.8q.05-.45.35-.65l1.1-.3 1.15-.05 2.4.05.85.15.4.4.05.05q.3.25.3.95l-.15 2.7q.6.15.9.75l.3 1.15-.05.35-.15.25-.55.45-.55.2-1.15.1q-.65-.15-.85-.7l-.1-.55.05-1.2.05-.35.05-.8h-.05l-.75.2-1.35.05zm35.45 2q-.6-.4-.4-1.05l.1-.4.25-2.45h-.2v-.05l-.35-.1-.6-.35-.35-.35q-.25-.35 0-.75l.15-.2q.05-.2.25-.25l.2-.05.2-.1.45-.35q.4-.3.55-.35.45-.2.8 0l.3.15.2.35v.15l-.05.2V28l.3 2.95.15.05v3.1h-.05l-.65.05zm-7.45-2 .65.25.5.55.15.95q-.1.55-.75.95l-1.25.25q-1.15 0-1.5-.6-.2-.25-.2-1.1l.2-2.35.05-1.9v-.8q.05-.45.35-.65.25-.2 1.1-.3l1.15-.05 2.4.05.85.15.4.4.05.05q.3.25.3.95l-.15 2.7q.6.15.9.75l.3 1.15-.05.35-.15.25-.55.45-.55.2-1.15.1q-.65-.15-.85-.7l-.1-.55.05-1.2.05-.35.05-.8h-.05l-.75.2-1.35.05zm.1-2.65v.55l.15.05h.95l.15-.05.1-.05h.1l.1-.05.65.1.05-.3.15-.6-2.2.15-.15.05zM33.8 4.9l.65.25.5.55.15.95q-.1.55-.75.95l-1.25.25q-1.15 0-1.5-.6-.2-.25-.2-1.1l.2-2.35.05-1.9v-.8q.05-.45.35-.65l1.1-.3L34.25.1l2.4.05.85.15.4.4.05.05q.3.25.3.95l-.15 2.7q.6.15.9.75l.3 1.15-.05.35-.15.25-.55.45-.55.2-1.15.1q-.65-.15-.85-.7l-.1-.55.05-1.2.05-.35.05-.8H36l-.75.2-1.35.05zm.1-2.65v.55l.15.05H35l.15-.05.1-.05h.1l.1-.05.65.1.05-.3.15-.6-2.2.15-.15.05zM31.75 15.9q-.6-.4-.4-1.05l.1-.4.25-2.45h-.2v-.05l-.35-.1-.6-.35-.35-.35q-.25-.35 0-.75l.15-.2q.05-.2.25-.25l.2-.05.2-.1.45-.35.55-.35q.45-.2.8 0l.3.15.2.35v.15l-.05.2V10l.3 2.95q.45.1.85.35l.55.75v.55l-.2.75-.4.3-.7.45-.65.05zm-4.5-9q-.6-.4-.4-1.05l.1-.4L27.2 3H27v-.05l-.35-.1-.6-.35-.35-.35q-.25-.35 0-.75l.15-.2q.05-.2.25-.25l.2-.05.2-.1.45-.35.55-.35q.45-.2.8 0l.3.15.2.35v.15l-.05.2V1l.3 2.95q.45.1.85.35l.55.75v.55l-.2.75-.4.3-.7.45-.65.05zm-7.45-2 .65.25.5.55.15.95q-.1.55-.75.95l-1.25.25q-1.15 0-1.5-.6-.2-.25-.2-1.1l.2-2.35.05-1.9v-.8q.05-.45.35-.65.25-.2 1.1-.3L20.25.1l2.4.05.85.15.4.4.05.05.3.95-.15 2.7q.6.15.9.75l.3 1.15-.05.35-.15.25-.55.45-.55.2-1.15.1q-.65-.15-.85-.7l-.1-.55.05-1.2.05-.35.05-.8H22l-.75.2-1.35.05zm.1-2.65v.55l.15.05H21l.15-.05.1-.05h.1l.1-.05.65.1.05-.3.15-.6-2.2.15-.15.05zm4.4 11.65.65.25.5.55.15.95q-.1.55-.75.95l-1.25.25q-1.15 0-1.5-.6-.2-.25-.2-1.1l.2-2.35.05-1.9v-.8l.35-.65q.25-.2 1.1-.3l1.15-.05 2.4.05.85.15.4.4.05.05q.3.25.3.95l-.15 2.7q.6.15.9.75l.3 1.15-.05.35-.15.25-.55.45-.55.2-1.15.1q-.65-.15-.85-.7l-.1-.55.05-1.2.05-.35.05-.8h-.05l-.75.2-1.35.05zm.1-2.65v.55l.15.05h.95l.15-.05.1-.05h.1l.1-.05.65.1.05-.3.15-.6-2.2.15-.15.05zm2.85 13.65q-.6-.4-.4-1.05l.1-.4.25-2.45H27v-.05l-.35-.1-.6-.35-.35-.35q-.25-.35 0-.75l.15-.2q.05-.2.25-.25l.2-.05.2-.1.45-.35.55-.35q.45-.2.8 0l.3.15.2.35v.15l-.05.2V19l.3 2.95q.45.1.85.35l.55.75v.55l-.2.75-.4.3-.7.45-.65.05zm-7.45-2 .65.25.5.55.15.95q-.1.55-.75.95l-1.25.25q-1.15 0-1.5-.6-.2-.25-.2-1.1l.2-2.35.05-1.9v-.8q.05-.45.35-.65.25-.2 1.1-.3l1.15-.05 2.4.05.85.15.4.4.05.05.3.95-.15 2.7q.6.15.9.75l.3 1.15-.05.35-.15.25-.55.45-.55.2-1.15.1q-.65-.15-.85-.7l-.1-.55.05-1.2.05-.35.05-.8H22l-.75.2-1.35.05zm.1-2.65v.55l.15.05H21l.15-.05.1-.05h.1l.1-.05.65.1.05-.3.15-.6-2.2.15-.15.05zm18.5-9v.55l.15.05h.95l.15-.05.1-.05h.1l.1-.05.65.1.05-.3.15-.6-2.2.15-.15.05zM33.8 22.9l.65.25.5.55.15.95q-.1.55-.75.95l-1.25.25q-1.15 0-1.5-.6-.2-.25-.2-1.1l.2-2.35.05-1.9v-.8q.05-.45.35-.65l1.1-.3 1.15-.05 2.4.05.85.15.4.4.05.05q.3.25.3.95l-.15 2.7q.6.15.9.75l.3 1.15-.05.35-.15.25-.55.45-.55.2-1.15.1q-.65-.15-.85-.7l-.1-.55.05-1.2.05-.35.05-.8H36l-.75.2-1.35.05zm.1-2.65v.55l.15.05H35l.15-.05.1-.05h.1l.1-.05.65.1.05-.3.15-.6-2.2.15-.15.05zM13.25 6.9q-.6-.4-.4-1.05l.1-.4L13.2 3H13v-.05l-.35-.1-.6-.35-.35-.35q-.25-.35 0-.75l.15-.2q.05-.2.25-.25l.2-.05.2-.1.45-.35.55-.35q.45-.2.8 0l.3.15.2.35v.15l-.05.2V1l.3 2.95q.45.1.85.35l.55.75v.55l-.2.75-.4.3-.7.45-.65.05zm-7.45-2 .65.25.5.55.15.95q-.1.55-.75.95l-1.25.25q-1.15 0-1.5-.6-.2-.25-.2-1.1l.2-2.35.05-1.9v-.8Q3.7.65 4 .45q.25-.2 1.1-.3L6.25.1l2.4.05.85.15.4.4.05.05q.3.25.3.95l-.15 2.7q.6.15.9.75.3.45.3 1.15l-.05.35-.15.25-.55.45-.55.2-1.15.1Q8.2 7.5 8 6.95l-.1-.55.05-1.2.05-.35.05-.8H8l-.75.2-1.35.05zm4.5 9 .65.25.5.55.15.95q-.1.55-.75.95l-1.25.25q-1.15 0-1.5-.6-.2-.25-.2-1.1l.2-2.35.05-1.9v-.8q.05-.45.35-.65l1.1-.3 1.15-.05 2.4.05.85.15.4.4.05.05.3.95-.15 2.7q.6.15.9.75l.3 1.15-.05.35-.15.25-.55.45-.55.2-1.15.1q-.65-.15-.85-.7l-.1-.55.05-1.2.05-.35.05-.8h-.05l-.75.2-1.35.05zm7.45 2q-.6-.4-.4-1.05l.1-.4.25-2.45h-.2v-.05l-.35-.1-.6-.35-.35-.35q-.25-.35 0-.75l.15-.2q.05-.2.25-.25l.2-.05.2-.1.45-.35q.4-.3.55-.35.45-.2.8 0l.3.15.2.35v.15l-.05.2V10l.3 2.95.85.35.55.75v.55l-.2.75-.4.3-.7.45-.65.05zM5.9 2.25v.55l.15.05H7l.15-.05.1-.05h.1l.1-.05.65.1.05-.3.15-.6-2.2.15-.15.05zM3.75 15.9q-.6-.4-.4-1.05l.1-.4L3.7 12h-.2v-.05l-.35-.1-.6-.35-.35-.35q-.25-.35 0-.75l.15-.2q.05-.2.25-.25l.2-.05.2-.1.45-.35q.4-.3.55-.35.45-.2.8 0l.3.15.2.35v.15l-.05.2V10l.3 2.95.85.35.55.75v.55l-.2.75-.4.3-.7.45-.65.05zm6.65-4.65v.55l.15.05h.95l.15-.05.1-.05h.1l.1-.05.65.1.05-.3.15-.6-2.2.15-.15.05zm-8.9 2.9.3 1.15-.05.35-.15.25-.55.45-.15.05v-2.85zm4.3 8.75.65.25.5.55.15.95q-.1.55-.75.95l-1.25.25q-1.15 0-1.5-.6-.2-.25-.2-1.1l.2-2.35.05-1.9v-.8q.05-.45.35-.65.25-.2 1.1-.3l1.15-.05 2.4.05.85.15.4.4.05.05q.3.25.3.95l-.15 2.7q.6.15.9.75.3.45.3 1.15l-.05.35-.15.25-.55.45-.55.2-1.15.1q-.65-.15-.85-.7l-.1-.55.05-1.2.05-.35.05-.8H8l-.75.2-1.35.05zm.1-2.65v.55l.15.05H7l.15-.05.1-.05h.1l.1-.05.65.1.05-.3.15-.6-2.2.15-.15.05zm7.35 4.65q-.6-.4-.4-1.05l.1-.4.25-2.45H13v-.05l-.35-.1-.6-.35-.35-.35q-.25-.35 0-.75l.15-.2q.05-.2.25-.25l.2-.05.2-.1.45-.35.55-.35q.45-.2.8 0l.3.15.2.35v.15l-.05.2V19l.3 2.95q.45.1.85.35l.55.75v.55l-.2.75-.4.3-.7.45-.65.05zm4.5 9q-.6-.4-.4-1.05l.1-.4.25-2.45h-.2v-.05l-.35-.1-.6-.35-.35-.35q-.25-.35 0-.75l.15-.2q.05-.2.25-.25l.2-.05.2-.1.45-.35q.4-.3.55-.35.45-.2.8 0l.3.15.2.35v.15l-.05.2V28l.3 2.95.85.35.55.75v.55l-.2.75-.4.3-.7.45-.65.05zm-7.45-2 .65.25.5.55.15.95q-.1.55-.75.95l-1.25.25q-1.15 0-1.5-.6-.2-.25-.2-1.1l.2-2.35.05-1.9v-.8q.05-.45.35-.65l1.1-.3 1.15-.05 2.4.05.85.15.4.4.05.05.3.95-.15 2.7q.6.15.9.75l.3 1.15-.05.35-.15.25-.55.45-.55.2-1.15.1q-.65-.15-.85-.7l-.1-.55.05-1.2.05-.35.05-.8h-.05l-.75.2-1.35.05zm.1-2.65v.55l.15.05h.95l.15-.05.1-.05h.1l.1-.05.65.1.05-.3.15-.6-2.2.15-.15.05zM3.75 33.9q-.6-.4-.4-1.05l.1-.4L3.7 30h-.2v-.05l-.35-.1-.6-.35-.35-.35q-.25-.35 0-.75l.15-.2q.05-.2.25-.25l.2-.05.2-.1.45-.35q.4-.3.55-.35.45-.2.8 0l.3.15.2.35v.15l-.05.2V28l.3 2.95.85.35.55.75v.55l-.2.75-.4.3-.7.45-.65.05zM1.5 32.15l.3 1.15-.05.35-.15.25-.55.45-.15.05v-2.85zm30.25 1.75q-.6-.4-.4-1.05l.1-.4.25-2.45h-.2v-.05l-.35-.1-.6-.35-.35-.35q-.25-.35 0-.75l.15-.2q.05-.2.25-.25l.2-.05.2-.1.45-.35.55-.35q.45-.2.8 0l.3.15.2.35v.15l-.05.2V28l.3 2.95q.45.1.85.35l.55.75v.55l-.2.75-.4.3-.7.45-.65.05zm6.65-4.65v.55l.15.05h.95l.15-.05.1-.05h.1l.1-.05.65.1.05-.3.15-.6-2.2.15-.15.05zM24.3 31.9l.65.25.5.55.15.95q-.1.55-.75.95l-1.25.25q-1.15 0-1.5-.6-.2-.25-.2-1.1l.2-2.35.05-1.9v-.8l.35-.65q.25-.2 1.1-.3l1.15-.05 2.4.05.85.15.4.4.05.05q.3.25.3.95l-.15 2.7q.6.15.9.75l.3 1.15-.05.35-.15.25-.55.45-.55.2-1.15.1q-.65-.15-.85-.7l-.1-.55.05-1.2.05-.35.05-.8h-.05l-.75.2-1.35.05zm.1-2.65v.55l.15.05h.95l.15-.05.1-.05h.1l.1-.05.65.1.05-.3.15-.6-2.2.15-.15.05z"/><path d="m59.75 8.2-3.2-.15-.25.1-.75-.05-.45-.2-.45-.7q-.15-.4-.15-1.35l.05-.95-.3-3.2V1q.15-.6.7-.75L55.6.2l2.45.05.85.25q.4.25.4.75l-.05.95q.9 0 1.8.5 1 .6 1.3 1.4.45 1 .2 2.2l-.2.7q-.4.65-1.15.9zM71.1 23.75q-.6 2.1-2.6 4.1l-2.8 2.2.35.25 1.1.5 1.9.3h.15l.05-.25q-.1-.95.05-1.45.25-1.15 1.4-1.55l1-.15q1.75.1 2.4 1.3.45.8.15 1.9l-.95 1.75-.45.5-.7.45q-1.6.8-3.25.8l-1.55-.2-.9-.2.3 1.4q.3 1.65-.1 2.3-.6.85-1.5.75l-.45-.1h-.05q-.9 0-1.5-.75-.3 1.05-1.4 1.2-1.15.1-1.6-.95-.4.4-.8.4l-.45.1-.25.4q-.45.75-1.4.75-.6-.05-.95-.4l-.55-.05q-.65-.15-1-.75l-.2-.5-.4-.6-.15-1q0-1.35.3-2.65l-1.1.25-2.05.35-2.7-.35q-1.05-.25-1.75-.8-1.55-1.2-1.45-2.95.05-.85.55-1.6t1.3-1.1l1.5-.15q.85.15 1.35.65.55.55.7 1.35.15.85-.25 1.5 1.85.15 3.4-.5l.9-.3-.7-.45-1.55-1.2-.35-.4-1.75-2.05q-1.4-2.25-1.5-4.8l.1-2.75q-.35-1.2-.4-2.2l.2-3.1V11.3l.35-2.05q.2-1.25.8-1.8.75-.7 1.7-.25l.8.6 2.9 2.8q.55-.4 1.05-.65L58 9.3l2-.1 3.15.3 1.35-3.25.75-1.15q.65-.55 1.25-.4.85.1 1.5 1.65l2.3 6.25.4 1.45.3 2 .5 2.7.05 1.25q.05 2.3-.45 3.75m-3.95-.15q1.1-.45 1.8-1.5.3-.4.1-.65l-.2-.1h-.05l-.2.05-.4.15-1.6.85-2.95.5-1.9-.75-.7-.45q-.3-.45-.95-.45-.45.05-1.05.45l-.9.8-1.7.9-1 .25-1.75-.2-.9-.2-.45-.35q-.35-.35-.75-.15-.2.2-.1.5l.25.45.65.9q.35.3.85.45.95.5 2 .55l1.15-.05q0 .4.15.8l.2.5.25.45q.7 1 1.2 1.25l1.45.4 1.2.1.8-.15 1.25-.55 1.15-1.45.8-2.45v-.1l1.85-.55zm-4-5.95-.1.85.05 1q.25 1 1.25 1.5l.1.05 3.95-.95.2-.6-.05-1.2-.2-.85q-.5-1.3-1.7-1.6l-.8-.1-1.25.2-.8.75zm-5.7-15.4h-1.1l.05.55.5.05h.5zM60.6 5l-.2-.35-.4-.3q-.4-.3-.75-.3l-.95.1q-.6 0-.85-.5V3.6l-.7.05-.3.1-.05 1.2h.05l.35-.05 1 .15L60.35 5l.25.05zm-8.2 1.55h-.35V6.5l-.3-.1-.2-.2-.2-.3-.05-.35V5.1l-.95-.2-.25-.2-.15-.3-.05-.3.05-.3.1-.2.4-.35.45-.1V3.1l.45.05.05-.35.25-.45.5-.15.4.2.3.45.1.35.35.05.55.45.1.15.1.2-.05.35-.25.3-.2.15-.25.1-.15.05v.85L53 6.2l-.35.25-.25.05zm4-.6 3.4.1.7-.25h-2.55l-1.55-.25v.4M40.1 14.4l.35-.3 1.8-1.65q1.2-.8 2.5-.65 1.05 0 1.65.65.8.85.25 1.7l-.7.5-.85-.05-.65-.25q-.75-.25-1.75.65l-1.4 1.35q-1.15.65-2.35 0l-.7-.3q-.35 0-.65.4l-.55.5-.7-.05q-.15-.2-.05-.5l.3-.45.9-1.15q.7-.6 1.35-.6l.75.15zm3 6q-.75.75-1.6 1.1l-2 .1q-.6-.15-1.4-.85l-.7-.45q-.45-.15-1.5.25l-.9.7-.7.45-.4-.45.1-.6.6-.8 2-1.4 2.45.05.55.3.55.15.95-.55.8-.7.8-.55.8-.15 1.4.1q.85.15 1.15.8.35.5.1 1.25-.25.65-.95.8l-.8.05h-.75zm18.95 3.95.8.15-.1.4-.35.85-.1-.05-.2-.15-.2-.05-.25-.1-.65-.15v.05l-.75.25-.05.05-.15-.1-.75-.2-.75.1-.2.1-.25-.55.8-.4 1.3-.95.45.2zM51.4 19.5l.15.5.35.6h.95l.25.05 2 .7.25.15.4-.3.4-.4.55-.9.15-.6q.25-1.55-.7-2.45-.7-.7-1.7-.7l-1.1.25-.8.45q-.85.65-1.1 1.35l-.1.9zm-11.15 5.95q.95-.9 2.05-1.3l1.4-.2q.55.1 1.15.65l.6.7q.45.95-.35 1.65-.75.7-1.65.15-.45-.35-.7-.3-1.45 1.45-2.65 1.75l-2.3-.25q-1.05-.5-1.7-1.65l-.7-.95-1.15.05-1.1.4-.7.05-.25-.35.05-.45q.1-.25.65-.6l.8-.45 1.55-.5 1.6.2.9.8.9.9q.4.3.65.25zm-19.2 12.2q-.45 1-1.55.9-.7-.05-1.1-.55l-.8.5-2.1.15h-1.7l-8.8.4-1.65-.2q-.95-.45-.95-1.45l.3-1.1q.9-2.1 2.25-3.9l1-1.15-.2.05q-1.4.75-2.25 2l-.25.3-.95 1.6-.35.65-.2.15-1.1.4-.15-.05q-.3 0-.4-.3L0 35.5l.15-.65v-.1l.05-.3.1-.2.25-.35-.35-.55-.1-1 .45-.85q1-1.45 3-2.55 1.15-.6 3.65-1.4l1.55-.3L8 26.6q-1.2-1.05-1.85-2.85l-.4-1.4q-.85-3.95.45-7.7.7-2 1.9-3.45.3-3.7 1.85-8.15.3-.9.7-1.3.85-.7 1.95-.35.6.2 1.8.95l3.35 2.3 4.8-.15 2.45.45 1.9.8q1.95 1.15 3.4 2.6l1.55-.15 2.3-.25 1.5.3q.65.4.75 1.45l-.2 1.65-1.2 4.8-.5 1.1-1.25 2.5-.6 2.55-.8 2.2q-1.65 3.5-5.3 5.3l-1.25.5-2.1.3h-.85l.05.5.35 1.2.35.7q.8 1.6 2.6 2.4 1.75.7 3.6.45h.25l-.05-.3-.2-.05q-1.25-.2-1.65-.6-.4-.35-.7-1.2-.4-1.1-.35-1.95t.75-1.8l.6-.7.85-.6.75-.2 1.95-.1q1.1.15 1.8.8l.55.65.55 1.2-.25 1.65-.3.7-.05.1.2 1.1h.05l.35.05.45.25q1 .7 1.25 1.4.2.55.05 1l-.3.7-.6.75-.9.35-.7-.2-.55-.3-.3.1-.9-.05-.7.05h-.1l-1.2.35-4.15-.15-2.15-.8-1.95-1.55-.25-.3-.05.4zm-1.5-22.2-.3-1.15-.7-1-.8-.65q-.35-.25-1.15-.45l-1.65.05q-1 .25-2.3 1.65l-.6.9-.2.95q0 1.5.65 2.55l2.45.35.65.2q.9.35 1.4.8 1.65-.7 2.4-2.35l.2-.75zM16.4 25.5l.5.6q.45.5 1.1.8l1 .25 2.15.15q1.25-.15 2.15-.9l.85-1.15q.25-.6.15-1.6l-.1-.7-.4-.6-.4-.4-1-.6v-.15l.05-.4v-.3l-.15-.3-.2-.3-.2-.15-.6-.2v.05l-.35.05-.7.55-.15.6-2 .15q-.9.35-1.55 1.3-.5.8-.5 1.95l.05.6zm14.45-7.55q-.15-.9-.65-1.45l-.2-.05q-.95-.15-2.45.5-1.5.8-2.35.85h-.8q-.4.8-.25 1.75.1 1 .7 1.75l.4.4.65.35 1.75.35q1.05-.1 1.7-.6l.55-.65q1.25-1.6.95-3.2m-9.05 7.1-.25.15-1 .2-1.05-.15-.6-.3-.3-.2-.3-.4-.1-.25-.05-.35.05-.35.05-.2.45-.5.25-.2.25-.1.55-.05 1.2.1.5.1.55.5.25.45.05.45-.1.6zm2.05 3.6.1.75q.2.45.55.5l.75-.1.35-.35.05-.5-.15-.65-.5-.55q-.2-.3-.6-.45h-.45q-.15.15-.15.4zm5.7-3.4.05-.35-.05-.3-.25-.35-.15-.1-.1-.1-.1-.05-.35-.05h-.35l-.4-.05v.05h-.4l-.3.1-.15.1-.45.2-.25.25-.15.2q-.1.3.15.45l.35.15.4-.05v.05h.3v.05l.2.05.25.25.7.2V26h.3v-.05l.35-.1.25-.25.1-.2z"/><path fill="#fff" d="m63.15 17.65.65-.95.8-.75 1.25-.2.8.1q1.2.3 1.7 1.6l.2.85.05 1.2-.2.6-3.95.95-.1-.05q-1-.5-1.25-1.5l-.05-1zm4 5.95-.45.2-1.85.55v.1l-.8 2.45-1.15 1.45-1.25.55-.8.15-1.2-.1-1.45-.4q-.5-.25-1.2-1.25l-.25-.45-.2-.5q-.15-.4-.15-.8l-1.15.05q-1.05-.05-2-.55-.5-.15-.85-.45l-.65-.9-.25-.45q-.1-.3.1-.5.4-.2.75.15l.45.35.9.2 1.75.2 1-.25 1.7-.9.9-.8q.6-.4 1.05-.45.65 0 .95.45l.7.45 1.9.75 2.95-.5 1.6-.85.4-.15.2-.05h.05l.2.1q.2.25-.1.65-.7 1.05-1.8 1.5M60.6 5v.05L60.35 5l-2.55.05-1-.15-.35.05h-.05l.05-1.2.3-.1.7-.05v.05q.25.5.85.5l.95-.1q.35 0 .75.3l.4.3zm-3.15-2.75-.05.6h-.5l-.5-.05-.05-.55zm-1.05 3.7v-.4l1.55.25h2.55l-.7.25zm-5 13.55-.05-.4.1-.9q.25-.7 1.1-1.35l.8-.45 1.1-.25q1 0 1.7.7.95.9.7 2.45l-.15.6-.55.9-.4.4-.4.3-.25-.15-2-.7-.25-.05h-.95l-.35-.6zm10.65 4.85-1.4-.55-.45-.2-1.3.95-.8.4.25.55.2-.1.75-.1.75.2.15.1.05-.05.75-.25v-.05l.65.15.25.1.2.05.2.15.1.05.35-.85.1-.4zm-31.2-6.4q.3 1.6-.95 3.2l-.55.65q-.65.5-1.7.6l-1.75-.35-.65-.35-.4-.4q-.6-.75-.7-1.75-.15-.95.25-1.75h.8q.85-.05 2.35-.85 1.5-.65 2.45-.5l.2.05q.5.55.65 1.45M16.4 25.5l-.3-.7-.05-.6q0-1.15.5-1.95.65-.95 1.55-1.3l2-.15.15-.6.7-.55.35-.05v-.05l.6.2.2.15.2.3.15.3v.3l-.05.4v.15l1 .6.4.4.4.6.1.7q.1 1-.15 1.6l-.85 1.15q-.9.75-2.15.9L19 27.15l-1-.25q-.65-.3-1.1-.8zm3.15-10.05.05 1.1-.2.75q-.75 1.65-2.4 2.35-.5-.45-1.4-.8l-.65-.2-2.45-.35q-.65-1.05-.65-2.55l.2-.95.6-.9q1.3-1.4 2.3-1.65l1.65-.05q.8.2 1.15.45l.8.65.7 1zm2.25 9.6.4-.5.1-.6-.05-.45-.25-.45-.55-.5-.5-.1-1.2-.1-.55.05-.25.1-.25.2-.45.5-.05.2-.05.35.05.35.1.25.3.4.3.2.6.3 1.05.15 1-.2zm7.75.2-.05.15-.1.2-.25.25-.35.1V26h-.3v-.05l-.7-.2-.25-.25-.2-.05v-.05h-.3v-.05l-.4.05-.35-.15q-.25-.15-.15-.45l.15-.2.25-.25.45-.2.15-.1.3-.1h.4v-.05l.4.05h.35l.35.05.1.05.1.1.15.1.25.35.05.3zm-5.7 3.4-.05-.95q0-.25.15-.4h.45q.4.15.6.45l.5.55.15.65-.05.5-.35.35-.75.1q-.35-.05-.55-.5z"/></g></svg>