<svg xmlns="http://www.w3.org/2000/svg" xmlns:ffdec="https://www.free-decompiler.com/flash" ffdec:objectType="shape" width="76.9" height="38.65"><g fill-rule="evenodd"><path fill="#999" d="m55.1 4.2 1.05.75.1.15.4-.1.1-.05.8.05.3.05.45.2.45.35.1.15.2.4.1.3-.05 1.05-.1.2q-.25.75-1 1l-1.15.1-.4.55-.45.5-1 .65.15.25.4.95.05.9-.15 1.45q-.35 1.2-1.85 1.8l-1.4.3-.7 1.1-.55.35-2.1.6h-.15l-.9.4-.2.2-.35.6-.25.7-.5.55-.65-.15-.4-.6q-.1-.65.5-1.75.6-.95 1.4-1.35l1.4-.3.4-.05.8-.6.25-.45-.25-.2q-.7-.55-1.05-1.75l-.1-.5.05-.5.2-.9.4-.7 1.1-1.05.25-.15q-.7-.95-.6-2.25 0-.9.45-1.65L50.4 5l-.05-.35.15-.8q.1-.7.65-1.1l.4-.3.5-.25 1.6.2.5.3.4.7.2.65zM13.5 20.15l-1-.8-.4-.75-1.15.25-1.7-.25q-.85-.4-1.15-1.25-.15-.6.05-1.4l.3-.75.2-.3.65-.75q1.1-.95 2.75-.6l.5.15.75-1.2q1.35-1.7 2.85-1.8v-.05l.05-.75.1-.4.5-.8.45-.3.8-.25.05-.05 1.1.15.45.3.35.3.4.6.15.55v.25l-.15.65-.35.55q.7.6 1.2 1.7.55 1.25.4 2.55-.15 1.25-.75 2.15l.75.45q.6.55 1.1 1.85l.2.6.2.85-.1 1.45q-.35 1.45-1.05 2.2l-.15.15.05.15.3.35.4.35 1.05.45 1.75-.25.45-.2q.35-.1.35.2l-.55.8-.8.5h-.35l-1.15.35-.65-.1q-1.65 0-2.65-1.35l-.25-.35q-.9 0-2.05-.75l-.85-.6-.6-.9-.35-.75-.15-.7q-.05-1 .05-1.75l-1.4-.2z"/><path d="m70.25 4.65-.35.25-.3.3-.3.2-.3.25-.35.15-.25.2q-.4.1-.5-.3l.05-.3.2-.65.85-1.6.85-1.2q.4-.4.7-.5l.55-.1h.9q1.1.3 1.1 1.35l-.1.5-.2.4-.75.5-.45.05q-.8.1-1.35.5m-5.3 12.8.1-1.5q.15-.8.65-1.65.9-1.8 2.3-2.75l-.25-1.2q-.1-2 1.35-3.35l.55-.4.95-.25 2.15.3q.65.25 1.15 1l.4 1.2q.1 1.25-.4 2.3l.75.5q.85.7 1.5 1.7l.55 1.15.05 1.25.15 1.65q.15 3.05-1.85 4.85-.9.75-2.05 1.1l.45.95q.9 1.9.85 3.4L74 29l-.15 1.1q-.2.9-.8 1.65l-.1.15q-.55.9-2.2 1.8l-1.35.55-1.45.05-2-.45-.7-.45-.2-.1q-.75-.05-1.2.5l-.4.6-.6.45q-.55 0-.65-.6-.1-.55.25-.95l.8-.95.35-.3q.75-.55 1.55-.65l2.15.45q1.35.2 2.8-.8l-1.75-.15q-1.65-.3-2.95-1.3-1.5-1.15-2.25-3.25-.6-1.75-.3-3.6.3-1.9 1.7-3.15l.65-.55zm-33.6 6.3q-2 0-3.85-.85-1.8-.75-3.25-2.2l-.95-1.15-.55-.75-1.05.25-3 .65-1.2.2-.95-.55q-.35-.5-.3-1.05t.65-1.35l2.95-4.6 1.4-2.45.4-1.35-2-1.95q-.9-1-.95-1.75 0-.6.4-1.05.3-.5.95-.8l.95-.3.2-.05.4-.1 2.15-.65 2.05-.45 1.2-.2.15-.05 1.4-.25q1.7-.75 3.75-.9l2.95.15 2.6.95 1.45.75L40.65 3q2.95 3.05 3.1 6.45l-.05 2.15-.3 2.25.85-.1 1.8.05 1.25.25q1.65.4 2.15 1.2l.3 1.25-.05.95q-.2.9-1.15 1.65l-.9.7 1 1.75 1.15-.95 2.65-2.3q2.15-2.1 4.8-4.25l.5-.6-.1-.8V10.9q-.1-1.3.1-2.25.25-1.35 1.05-2 .85-.7 2.4-.8l1.6.3q1.1.6 1.35 2.1l-.15 2.6-.55 2.6q-.45 1.4-1.25 2.25l-9.85 8L50 25.9q-.05 1.9-1.3 3.55-1.2 1.5-3 2.2l-3.7.65-1.65-.1-1 .95q-.15.15-.15.25l.1.15 1.25 1.5.9 1.05q.25.5.1 1.1l-.6.95q-.8.55-1.8.3l-1.7-.75-2.3-1.2q-1.7-.95-1.95-1.85-.2-.8.15-1.65l.85-1.35 2-2.3.2-.15-.5-1.65q-.25-1.4-.05-3.25-3.55 3.85-7.6 7l-2.3 1.5q-1.45.7-2.7.55-.65-.05-1.55-.5l-.9-.8q-.3-.65-.25-1.3.05-1 .75-1.85.7-.8 1.65-1.25L27 27.5l.7.05.3-.2 3.7-3.1.7-.6zm41.5-2.85.85.1.15-.05 1.1-.85.1-.2.1-.15.2-.45.05-.35.05-.85-.25-.7-.45-.5-.45-.25-.3-.1q-.6-.15-1.15 0-.65.15-1 .6l-.4.55-.15.35-.05.5.05.65.55.95.55.55zm-4.15-5.75.05.05h-.15l-.35-.1H68l-.45-.1-.2-.1h-.25l-.2.05-.15.1-.15.15v.4l.05.15.2.2.95.3.2.2.25.15.05.1.6.45.6.1q.5 0 .8-.35l.15-.4v-.1l.05-.45-.05-.35-.15-.15-.1-.2-.1-.15-.4-.9-.05-.25-.2-.25-.2-.15-.75.1-.1.2v.2l-.05.1v.1l.2.6.1.1zM45.9 17l-.9-.3.6.55zm10.15 20.85-1.8.25-2.55-.05-2.55.1q-1.2.55-1.9.5-1-.1-1.4-1l-.05-.15h-.55l-.05-.05-.7-.15-.6-.25-.65-.55q-.7-.75-.45-1.65l.6-.95q.8-.8 1.4-.8l1.45.1.85.25.6-.65q1.25-1.25 2.65-1.75 1.6-.65 3.15-.35l.9.3.3-.8.6-1.15q.65-.8 1.8-1.1 1.1-.3 2.15 0l1.65.95q1.25 1.3.8 3.2-.3 1.6-1.75 2.9l-1.7 1.2-.45.25-.8.75zm-22.8-19.3.4-.3.35-.4.9-.6 1.15-.55 1-.55q.4-.4.25-1.05-.1-.55-.65-.8t-1.1 0l-1 .6-1.45 1.4-.6-.5-.85.1q-.65.5-.45 1.15l.55.65.1.1-.25.35q-.2.2-.3.55l-.15.7-.15.3.05.4.35.25.25-.05.25-.25.25-.35zm-3.3.15-.1-.7-.5-1.05-.5-.6q-.9.65-2.05.8l-1.35-.1-.3-.05-.05.05-.25.55-.05.4.05 1.45q.15.7.8 1.1.45.35 1.25.55l.4.05.65-.05q1.05-.3 1.7-1.25l.2-.45zM31.6 8.2l-.1.05-.05.8-.25 2-.35 2.3q.65.5 1.8.65l.9.05 1.2-.35 1.15-.8q.55-.8.55-1.65.05-.75-.4-1.7l-.45-.8q-.55-.9-1.8-1L33 7.7l-.7.2zM4.95 17.6l.65.2.75.5.5.55.3.45.15.4q0 .55-.55.65l-1.65-.2-.4.35q-.7.35-1.3 0l-.3-.2-.3-.35-.2-.95.1-.45.15-.25.35-.4.5-.25zm3.75 2.9 1.25-.2 2.05.25q.75.3 1.5.85 1.1.75 1.85 1.85 1.35 2 .95 4.3-.2 1.4-.85 2.5.85 1.75 1.25 3.7l.1 1.05q-.15 1.5-1.7 2.4-.9.5-2.95.8h-2.8L8 37.6h-.65l-.95-.2q-1-.4-1.35-1.55-.25-.95-.1-2.15l.2-.65.3-.5.25-.25.05-.3-.95-1.05-.75-1.25v-.05l-.75.4-1.8-.15q-.85-.4-1.2-1.3L0 26.9v-.55l.2-.55q.55-1.35 1.95-1.85l1.4-.3.75-.05h.05q1-1.7 3.2-2.65l1.1-.4zm5.6 6.15v-.2l.1.05.1.05.3.3.35.25h.15l.25-.2v-.1l.05-.1v-.05l-.15-.3-.1-.15-.05-.05v-.1l-.1-.1-.15-.35-.2-.2v-.1l-.1-.1-.1-.15-.55-.5-.25-.05v.05h-.3l-.2.1-.2.15-.1.55.1.3v.15l.05.1v.15l.05.25v.25l.05.6.05.1v.15l.05.2v.1l.3.3v.1l.15.2.25.05v-.05l.1-.05.05-.1.05-.2v-.2l.05-.2V27l-.05-.2z"/><path fill="#fff" d="m68.7 15.15-.05-.2-.1-.1-.2-.6v-.1l.05-.1v-.2l.1-.2.75-.1.2.15.2.25.05.25.4.9.1.15.1.2.15.15.05.35-.05.45v.1l-.15.4q-.3.35-.8.35l-.6-.1-.6-.45-.05-.1-.25-.15-.2-.2-.95-.3-.2-.2-.05-.15v-.4l.15-.15.15-.1.2-.05h.25l.2.1.45.1h.25l.35.1h.15zm4.15 5.75-.45-.2-.55-.55-.55-.95-.05-.65.05-.5.15-.35.4-.55q.35-.45 1-.6.55-.15 1.15 0l.3.1.45.25.45.5.25.7-.05.85-.05.35-.2.45-.1.15-.1.2-1.1.85-.15.05zM31.6 8.2l.7-.3.7-.2.8.05q1.25.1 1.8 1l.45.8q.45.95.4 1.7 0 .85-.55 1.65l-1.15.8-1.2.35-.9-.05q-1.15-.15-1.8-.65l.35-2.3.25-2 .05-.8zm-1.65 10.5-.1.7-.2.45q-.65.95-1.7 1.25l-.65.05-.4-.05q-.8-.2-1.25-.55-.65-.4-.8-1.1L24.8 18l.05-.4.25-.55.05-.05.3.05 1.35.1q1.15-.15 2.05-.8l.5.6.5 1.05zm3.3-.15-1.1 1.15-.25.35-.25.25-.25.05-.35-.25-.05-.4.15-.3.15-.7q.1-.35.3-.55l.25-.35-.1-.1-.55-.65q-.2-.65.45-1.15l.85-.1.6.5 1.45-1.4 1-.6q.55-.25 1.1 0t.65.8q.15.65-.25 1.05l-1 .55-1.15.55-.9.6-.35.4zm-18.95 8.1v.15l.05.2v.55l-.05.2v.2l-.05.2-.05.1-.1.05v.05l-.25-.05-.15-.2V28l-.3-.3v-.1l-.05-.2v-.15l-.05-.1-.05-.6v-.25l-.05-.25v-.15l-.05-.1v-.15l-.1-.3.1-.55.2-.15.2-.1h.3v-.05l.25.05.55.5.1.15.1.1v.1l.2.2.15.35.1.1v.1l.05.05.1.15.15.3v.05l-.05.1v.1l-.25.2h-.15l-.35-.25-.3-.3-.1-.05-.1-.05z"/><path fill="#999" d="M29.55 34.6q-4.75-.55-6.8-1.45-2.45-1-5.7-3.6l-1.25-1.1-1.25-1.9-2.15-3.95q-.8-1.9-.55-2.2l.4-.25q.35.05.5.65l.8 1.9 1.9 2.75 1.95 2.2q.7.85 2.85 2.15 2.05 1.25 3.35 1.5l3.45.55 3.95.4h2.85l1.2-.2 6.25-1.75q3.35-1.15 5.85-2.55l4.05-2.9q2.7-2.55 4.65-5.45l1.7-2.65.6-1.1q.95-1.9 1.8-5.95l.2-.85.1-.5q.25-.85.85-1.2l1.05-.2q1 .05 1.55.45.7.65.8 2.2l-.5 4.5-.4 1.7q-.5 2.15-1.75 4.8l-1.6 3.1-2.4 3.1-1.45 1.55-2.1 1.75q-4.45 3.75-7.6 4.85l-1.35.45q-6.85 1.95-12.7 1.5l-1.8-.2-3.2-.45q-1.3-.25-2.05-.85l.55-.3.6.1 1.45.15 5.55.1 2.6-.1 1.7-.3 5.35-1.15q2.9-.9 5-2.2l.45-.3-2.55 1-1.1.35-5.55 1.5-4.35.55-1.15-.05zm13.3-6.25h-.45q-.25-.25.25-.6.4-.3 1.5-.85l1.25-1 1.05-.8q3.95-3.3 5.5-5.3l.85-.9q.7-.45 1.2 0 .45.45.2 1.05l-.6.9-2.55 2.8-1.65 1.15q-4.05 2.85-6.55 3.55"/></g></svg>