<svg xmlns="http://www.w3.org/2000/svg" xmlns:ffdec="https://www.free-decompiler.com/flash" ffdec:objectType="shape" width="59.1" height="25.55"><g fill-rule="evenodd"><path fill="#999" d="M54.15 9.8q-.4-.85-1.95-1.25l-4.55-.5-1.8-.1q-1.45-.3-1.8-1.85t.85-2.5q.9-.75 2.65-.75 2.65-.05 5.95.95l2.25.95q2.1 1.35 2.75 3.9.6 2.4-.25 4.9-1.1 3.55-4.25 5.5-1.8 1.2-3.2.7-.8-.25-.95-1-.15-.85.7-1.5l1.5-.9q1-.75 1.6-2.2l.6-2.65zM40.7 2.9h2.25l.25.05.15.05.2.05.1.1.1.1.1.05.05.1.05.1.05.05.05.1.05.1v.15l.05.05v.35l-.05.1v.15l-.05.05-.05.1-.05.1-.05.05-.05.1-.1.1-.1.05-.1.1-.2.1-.15.05h-2.8l-.25-.05h-.25l-.15-.05-.3-.05H38.3l-.6-.05h-2.25l-.3-.05h-.2l-.15-.05h-.1L34.5 5h-.25l-.2-.05-.4-.05h-.35l-.5-.05h-.7l-.35-.05h-.35l-.75-.05h-1l-.45-.05h-.25l-.4-.05-.7-.05h-.35l-.4-.05h-.4l-.95-.05h-1.5l-.2-.05-.1-.1-.2-.1-.05-.05v-.1l.05-.05.15-.1.15-.1.05-.05h.75l.9-.05h.95l.4-.05.4-.05h.35l.7-.05h.4l.25-.05h.45l1-.05h.75l.35-.05h.35l.7-.05.5-.05h.35l.4-.05h.2l.25-.05h.2l.1-.05h.15l.2-.05h.3l1.75-.05h.5l.6-.05h1.15l.3-.05h.15l.25-.05h.55zm-1.05 2.7h1.55l.25.05h.3l.15.05.2.1.15.05.1.1.1.1.1.05.05.1.05.1.05.05.05.1.05.1v.05l.05.1v.05l.05.1v.5l-.05.05v.1l-.05.1v.05l-.05.1-.05.1-.05.05-.05.1-.05.1-.1.05-.1.1-.1.05-.15.1-.2.1-.15.05h-.3l-.25.05h-1.55l-1.25-.05h-.5l-.6-.05H37l-.1-.05h-.75l-.5-.05-.45-.05h-.3l-.25-.05h-.25l-.2-.05h-.4l-.55-.05h-.5l-.25-.05h-.35l-.6-.05h-.6l-.3-.05-.5-.05h-.85l-.8-.05h-.75l-.7-.05h-.35l-.8-.05h-.95l-.25-.05h-.5l-.55-.05-.45-.05h-.3l-.35-.05h-.6l-.55-.05h-.45l-.4-.05h-.75l-.2-.05h-.15l-.25-.05-.8-.05h-.85l-.25-.05-.15-.05-.1-.05v-.1l-.05-.1.05-.05.05-.1.1-.05h.1l.25-.05.85-.05h.8l.25-.05h.15l.2-.05h.75l.4-.05h.45l.55-.05h.6l.35-.05.3-.05h.45l.55-.05h.5l.25-.05h.95l.8-.05h.35l.7-.05h.75l.8-.05.85-.05h.5l.3-.05h.6l.6-.05h.35l.25-.05h.5l.55-.05h.4l.2-.05.25-.05h.25l.3-.05h.45l.5-.05h.75l.1-.05h.3l.6-.05h1.75zM51.1 24.15 49.8 24l-1.05-.25-.85-.6-.3-.55-.4-.95q-.5-1.6-.45-2.5.1-.7.5-.9l.6.05.5.35.5.45.1.25.85.95v.1l.95.05.9.1.8.5q.65.75.4 1.75-.4 1.25-1.75 1.35m-8.35-4.95h.35l.25.05h.05l.15.1.2.05.1.1.15.05.05.1.05.1.05.05.05.1.05.1.05.05v.6l-.05.05-.05.1-.05.1-.05.05-.05.1-.1.05-.15.1-.1.1-.1.05h-.1l-.1.05h-.05l-.25.05h-.35l-.35-.05h-.25l-.1-.05h-.1l-.3-.05h-.35l-.3-.05h-.65l-1-.05h-.2l-.15-.05-.4-.05h-.4l-.25-.05h-.2l-.1-.05h-.45l-.4-.05h-.2l-.55-.05h-.2l-1-.05-.4-.05H33.4l-.15-.05h-.15l-.15-.05h-.2l-.2-.05-.15-.05-.1-.1-.05-.05-.05-.1.05-.05v-.1l.05-.1.1-.05h.05l.1-.05h.2l.2-.05h.15l.15-.05.15-.05h1.05l.4-.05h1l.2-.05h.55l.2-.05h.4l.45-.05h.1l.2-.05.25-.05h.4l.4-.05h.15l.2-.05h1l.65-.05h.3l.35-.05h.3l.1-.05.1-.05h.6zm1.3 3h.1l.3.05.15.1.15.1.05.05.1.1.05.05.05.1.05.1v.05l.05.1v.3l-.05.1v.1l-.05.05v.1l-.05.1-.05.05-.1.1-.1.1-.1.05-.15.05-.1.05h-.55l-.1-.05h-.2l-.2-.05h-.35l-.6-.05h-.2l-.15-.05-.55-.05h-.2l-.3-.05h-.45l-.55-.05h-.3l-.2-.05h-.2l-.45-.05h-.5l-.35-.05-.2-.05h-.15l-.2-.05h-.5l-.1-.05h-.05l-.1-.05h-.1l-.25-.05-.05-.1.05-.1.3-.05.1-.1.1-.1.1-.05.2-.05.3-.05h.2l.15-.05h.2l.35-.05.5-.05h.45l.2-.05h.2l.3-.05h.55l.45-.05h.3l.2-.05H42l.15-.05.2-.05h.6l.35-.05h.2l.2-.05h.35zm-25.4-9.6h1.05l.15.05.25.1.2.1.1.05.15.1.05.1.05.05.05.1.05.05.05.1.05.1.05.05v.1l.05.1v.4l-.05.05v.1l-.05.1-.05.05v.1l-.05.1-.05.05-.05.1-.1.05-.1.1-.1.1-.2.05-.2.1-.15.05-.1.05h-1.3l-.65-.05-1.1-.05h-.5l-.8-.05h-.6l-.4-.05h-.3l-.45-.05h-.25L12.9 15h-.25l-.15-.05h-.35l-.55-.05-.4-.05h-.25l-.4-.05h-.8l-.35-.05h-.2l-.4-.05h-.4l-.35-.05h-.3l-.7-.05-.35-.05h-.5l-.35-.05h-.4l-.3-.05H4.8l-.25-.05H4.2l-.35-.05h-.4l-.35-.05-.2-.05h-.25l-.35-.05h-.75l-.3-.05h-.1L.9 14.1.65 14l-.05-.1.1-.05.2-.05.25-.05h.1l.3-.05.75-.05h.35l.25-.05h.2l.35-.05h.4l.35-.05h.35l.25-.05h.35l.3-.05h.4l.35-.05.5-.05h.35l.7-.05h.3l.35-.05h.4l.4-.05h.2l.35-.05h.8l.4-.05.25-.05h.4l.55-.05h.35l.15-.05h.25l.45-.05h.25l.45-.05h.3l.4-.05.6-.05h.8l.5-.05h1.1l.65-.05zm1.05 2.95.25.05.15.05.2.05.1.1.15.1.1.05.05.1.05.05.05.1.05.1.05.05v.1l.05.1v.05l.05.1v.4l-.05.1v.05l-.05.1v.1l-.1.05v.1l-.05.05-.1.1-.05.1-.1.05-.1.1-.15.1-.15.05h-.05l-.1.05h-.5l-.25-.05H19l-.4-.05h-.25l-.1-.05-.1-.05H18l-.25-.05h-.2l-.1-.05h-.25l-.45-.05h-.6l-.4-.05h-.45l-.7-.05-.45-.05h-.5l-.7-.05h-.55l-.4-.05h-.45l-.5-.05h-.3l-.35-.05h-.6l-.5-.05h-.7l-.35-.05-.45-.05h-.4L7 17.3h-.15l-.25-.05h-.25l-.5-.05h-.3l-.25-.05h-.15l-.7-.05-.45-.05-.1-.1v-.15l.1-.1.45-.05h.7l.15-.05h.25l.3-.05h.5l.25-.05.25-.05H7l.4-.05h.4l.45-.05h.35l.7-.05h.5l.6-.05h.35l.3-.05h.5l.45-.05.4-.05h.55l.7-.05h.5l.45-.05h.7l.45-.05h.4l.6-.05h.45l.25-.05.1-.05h.2l.25-.05h.15l.1-.05h.1l.25-.05h.4l.2-.05h.5zm8 .8.55.4.4.65q.3.5.4 1.35.15 1.75-1.2 3.1.8.3 1.1.6.75.75.5 1.65-.15.95-1.15 1.3-.9.4-1.7-.25l-.4-.3-1.05-.45-1-.45q-.3-.2-.45-.6l-.1-.6q0-.45.5-.95l.9-.6q1.05-.7 1.6-1.7l.25-1q0-.65-.35-.95l-.4-.3q-.2-.35-.05-.8.3-.4.65-.4.3-.05 1 .3"/><path d="M56.35 14.6q-.6 1.8-1.9 3.15-2 2.1-4.7 2.25l-2.3-.25-2.05-.65-1.25-.65.2.2.75.9q.35.75.65.9l.6.15 2.15.3q1 .6.9 1.75-.1 1.2-1.1 1.7l-1.65.35-1.9-.1q-1.15-.25-1.6-1l-.4-1-.3-1-.55-1.2q-.55-1.05-1-2.85l-.05-.35-1.4-.05q-2.55-.05-6.1 1.4L30.4 19.8l-3 1q-3.65.9-6.2-.4l-.9-.55-.8.45q-1.1.7-1.75.8l-1.55-.15q-1.8-.5-3.25-1.75l-1.6.75-1.35-.1q-.65-.3-1-.9t-.25-1.3.6-1.2q.3-.3 1.6-.9L13 14.8q1.35-.2 2 .65l.55.8 1.05.7.9.4.95.3q-1.05-1.85-.7-4.2l.05-.1-1.3-.25q-.8-.2-2.35-1.15-1.5-.95-2.4-1.15-1.5-.35-3.85.5l-3.7 1.35q-2.35.45-3.7-.75l-.5-.8q-.1-.6.45-.7.3 0 .65.25l1.8.5q.65-.05 2.1-1.05 2.6-1.85 5.5-2.15 3.1-.4 5.8 1l1.55.75 1.35.15.3-.45q2.65-3.3 7.7-3.9 3.85-.45 8.8.85l3.35 1.1q-.7-1.2-.55-2.75.2-1.5 1.1-2.6T42.2.45q1.35-.55 2.8-.4l1.2.25 1.3 1.05q.6.6.75 1.3l-.05 1.6v.05l.35-.05q2.6 0 4 .75l.4.2q.2-1.05 1.05-1.65.8-.65 1.85-.55t1.75.85l.5.85.25 1.65-.4 1.15-.4.65-.5.65-.25.3-.1.55h-.3l-.05.15q-.35 1.05-1.25 1.35l-.5.15-.3.1-.1.4q-.15 1.1.55 1.95.6.7 1.6.85m-4.6.65-.45.05-.45-.1-.1-.35q-.05-.2-.35-.25l-.4.1-.15.4q-.1.9.75 1.25l.75.15.85-.1.35-.2.5.45.55.05.6-.15.45-.25.35-.5v-.55q-.15-.4-.4-.2l-.3.2-.65.2-.2-.55v-.1l-.2-.35-.4-.1q-.25.05-.55.35zM47.4 13.8l2.3.05q1.2-.55 1.5-1.75l.15-.95-.2-.1-.7-.45-.4-.45-.15-.85.05-.35q-.6-.35-1.3-.35-1.35-.1-2.2 1.05-.6.8-.55 1.7-.1 1.25.9 2.05z"/><path fill="#fff" d="M56.7 9.65h.4q1.05.25 1.6 1.1.55.8.35 1.8-.15 1-.9 1.6l-1.75.45h-.05q-1-.15-1.6-.85-.7-.85-.55-1.95l.1-.4.3-.1.5-.15q.9-.3 1.25-1.35l.05-.15zm-9.3 4.15-.6-.4q-1-.8-.9-2.05-.05-.9.55-1.7.85-1.15 2.2-1.05.7 0 1.3.35l-.05.35.15.85.4.45.7.45.2.1-.15.95q-.3 1.2-1.5 1.75zm4.35 1.45.55-.55q.3-.3.55-.35l.4.1.2.35v.1l.2.55.65-.2.3-.2q.25-.2.4.2v.55l-.35.5-.45.25-.6.15-.55-.05-.5-.45-.35.2-.85.1-.75-.15q-.85-.35-.75-1.25l.15-.4.4-.1q.3.05.35.25l.1.35.45.1z"/></g></svg>