<svg xmlns="http://www.w3.org/2000/svg" xmlns:ffdec="https://www.free-decompiler.com/flash" ffdec:objectType="shape" width="75.6" height="41.85"><g fill-rule="evenodd"><path fill="#999" d="M0 0h75.6v41.35H0z"/><path d="M64.65 37.35q-2-1.3-2.3-4.45-.35-2.35.5-5.3.2-1.05.75-2.65l1.5-4.6q.35-1.1.95-1.35.9-.25 1.55.65.4.45.7 1.65l1 4.15.9 4.15.25 4.15L70 35.8q-.7 1.55-2.25 2-1.6.5-3.1-.45m-39 3.85H21.9q0-4.5.35-9.1.35-5.35 1.3-8.55.45-1.65 1.15-3l-.15-.25q-.9-1.65-1.05-3.6v-2.45q.05-1.2.4-2.6l.35-1.25q1.4-4.65 4.2-6.45.7-.4 1.1-.3.35-.25.75 0l.3.6-.1.65q-.3 1.95-.05 3.6l.25 1.2.25.75.15.9.35 1.35.3.95 1.2-.4q.2-2.15.65-3.5l.9-2.35q1.15-2.55 3.15-4.4.3-.4.7-.55l1.2.05q.7.4.45 1.05l-.25.55-.1.55-.4 3.7.15 2.2.35 3.1.2.05q.3-1.55 1.4-3.85l.85-1.55q.7-1.1 2.55-2.95l.7-.65 1.05-.85 1.3.1q.5.45.4 1.4l-.5 2.35q-.4 2-.55 4.85l-.25 4.85-.1.7.7 1.15q1.2 2.15 1.7 5.1.35 2.05.5 5.45l.05 11.4H45.9l.05-4.9-.15-6.3-.1-1.25-.05-.45-.2-1.8q-.65-4.15-2.3-6.35-2.1-2.75-4.95-2.95l-2.6-.15-.05-.05-.25.05q-2.2.3-4.05 1.8-2.55 2.1-3.7 6.4-.95 3.3-1.25 9.55l-.15 6.4zM44.7 8.65l-.8 1.25-.95 2.05q-.5 1.1-.65 1.95l-.1.55v.05l.2.05 1.35.55.2.2 1.25 1 .1.1.15.15-.3-1.95q-.2-3.35.4-6.85zM40 24.5l-.2-.95.15-.8q.2-.65.9-1l1.9-.1.25.15q.7.4 1 1.25.2.8-.2 1.55l-.1.2-1.05.85-.1.05-1.45-.15q-.8-.35-1.1-1.05m25.05 4.6v.45l-.15 2.55q.1 1.2.8 2.25.45.7 1 .75l.1.05-.05-.15-.65-1.7-.3-1.3-.5-2.75-.1-1.3zM35.7 11l-.1.3q-.15.5-.15 1.15V13l1.8.15.8.1-.4-3.7v-.1q-.15-1.6.05-2.95l-.3.4-.65 1.15-.7 1.8q-.25.6-.35 1.15m-7.9 5.05 1.55-1.1-.55-1.8-.25-1.2-.3-1.65L28.2 9l.15-1.8.05-.2-.8 1.2q-.55.95-.8 1.9l-.5 2.85-.1.45.05 2.25.45 1.65.2-.3zm2.7 10.3-1.15-.65-.4-.7q-.35-1.15.35-2 .6-.8 1.5-.7l.15-.05.5.05q.7.15 1.2.85l.15.3q.55 1.2-.25 2.15-.6.8-1.45.85zm4.1-5.6.2-1q.35-.7 1.1-1.05l1.5-.15 1.25.85.45 1v.4q0 .75-.5 1.4-.55.6-1.3.75l-1.5-.2q-.75-.4-1.05-1.1l-.05-.2zm4.3 5.1q1.4 1 1.7 2.65.3 1.2 0 2.35-.15.9-.7 1.45-.9.9-2.7.9-2.35.1-3.95-.95-.85-.6-1.35-1.5-.55-1-.45-1.95.15-1.25 1.2-2.3.85-.85 2.05-1.25l2.2-.2q1.15.15 2 .8M7.35 37.35q-2-1.3-2.3-4.45-.35-2.35.5-5.3.2-1.05.75-2.65l1.5-4.6q.35-1.1.95-1.35.9-.25 1.55.65.4.45.7 1.65l1 4.15.9 4.15.25 4.15-.45 2.05q-.7 1.55-2.25 2-1.6.5-3.1-.45m.4-8.25v.45L7.6 32.1q.1 1.2.8 2.25.45.7 1 .75l.1.05-.05-.15-.65-1.7-.3-1.3-.5-2.75-.1-1.3z"/><path fill="#fff" d="m54 13.9-.25.6-.65.25q-.5 0-.8-.55l-.35-.95-.7-3-.1-.8q.2-.5.6-.5t.65.7zm-6.75 27.3-.9.25H44.2l-2.95-.05-12.85.45q-1.85.1-2.6-.5l-.15-.15h.5l.15-6.4q.3-6.25 1.25-9.55 1.15-4.3 3.7-6.4 1.85-1.5 4.05-1.8l.25-.05.05.05 2.6.15q2.85.2 4.95 2.95 1.65 2.2 2.3 6.35l.2 1.8.05.45.1 1.25.15 6.3-.05 4.9zm-4.3-29.25.95-.35.35-.05.2-.95V9.3l.25-.65.85-.9q-.6 3.5-.4 6.85l.3 1.95-.15-.15-.1-.1-1.25-1 .1-2.15-.35.1-1.1.6-.3.05q.15-.85.65-1.95m22.1 17.15.15-1.15.1 1.3.5 2.75.3 1.3.65 1.7.05.15-.1-.05q-.55-.05-1-.75-.7-1.05-.8-2.25l.15-2.55zM40 24.5q.3.7 1.1 1.05l1.45.15.1-.05 1.05-.85.1-.2q.4-.75.2-1.55-.3-.85-1-1.25l-.25-.15-1.9.1q-.7.35-.9 1l-.15.8zM32.35 2.75l.7.4.1.05.65-.65.55-.1q.35.1.4.35.15.4-.35 1l-.4.65.15.4q0 .5-.6.6h-.2L31.9 6.7l-.75.1q-.2-.2-.1-.45l.2-.4 1.05-1.5-.3-.3q-.35-.35-.35-.75.1-.65.7-.65m3.1 9.7q0-.65.15-1.15l.1-.3 1.35-1.15.2-.15.15-2.8.3-.4q-.2 1.35-.05 2.95v.1l.4 3.7-.8-.1-.05-.85v-.75l-1.45.8zM18.15 7.3l.05-3.15q.1-.55.3-.7.35-.3.65 0l.3.75.15 2.3v.7l.1.35 1.2-.2.65.1q.2.15.2.45l-.2.45-.85.5-.9.3.25 3.1q.1.7-.15 1.05-.25.45-.75.35-.55-.1-.65-.6v-.6l-.1-2.6V9.6l-.2.05-1.2.1-.45-.55q-.1-.4.1-.65.3-.4 1-.55l.55-.1zm9.45.9.8-1.2-.05.2L28.2 9l.05 1.3.3 1.65.25 1.2.55 1.8-1.55 1.1-.1-.4-.1-1-.1.1q-.65.85-1.25.9l-.05-2.25.1-.45.45-.45.5-.6-.05-.45zm7 12.55.1.7.05.2q.3.7 1.05 1.1l1.5.2q.75-.15 1.3-.75.5-.65.5-1.4v-.4l-.45-1-1.25-.85-1.5.15q-.75.35-1.1 1.05zm-4.1 5.6.6.1q.85-.05 1.45-.85.8-.95.25-2.15l-.15-.3q-.5-.7-1.2-.85l-.5-.05-.15.05q-.9-.1-1.5.7-.7.85-.35 2l.4.7zm8.4-.5q-.85-.65-2-.8l-2.2.2q-1.2.4-2.05 1.25-1.05 1.05-1.2 2.3-.1.95.45 1.95.5.9 1.35 1.5 1.6 1.05 3.95.95 1.8 0 2.7-.9.55-.55.7-1.45.3-1.15 0-2.35-.3-1.65-1.7-2.65M7.75 29.1l.15-1.15.1 1.3.5 2.75.3 1.3.65 1.7.05.15-.1-.05q-.55-.05-1-.75-.7-1.05-.8-2.25l.15-2.55z"/><path fill="#fff" d="m55.95 6.85.05.05.2.05.15.1v.15l.05.1v.1l-.05.1-.05.1-.05.1-.1.1-.1.1L56 8l-.1.1-.05.1-.05.1-.1.1-.1.1-.1.1-.1.15-.05.1-.05.1-.05.1-.1.1-.15.1-.1.1-.05.1-.05.1-.1.1-.15.1-.1.1-.1.1-.1.1-.05.1-.05.1-.1.15-.1.1-.05.1-.1.1-.05.1-.05.1-.1.1v.1l-.1.1-.05.1-.1.1-.1.1-.1.1-.1.1-.1.1-.1.15-.05.1v.1l-.05.1-.05.1-.05.1-.1.1-.1.1-.05.1-.05.1-.05.1-.05.1-.05.1-.05.1-.05.1-.05.15-.1.1v.1l-.1.1-.1.1-.05.1v.1l-.1.1-.1.1-.05.1-.05.1-.1.1-.05.1-.1.1-.05.1-.05.1-.05.15-.05.1-.1.1-.15.1v.1l-.1.1-.1.1-.2.1-.3.05h-.05l-.3-.05-.15-.1-.1-.1-.1-.1v-.1l-.05-.1v-.1l-.05-.1.05-.15v-.1l.05-.1.1-.1v-.1l.1-.1.1-.1.1-.1.05-.1.05-.1.05-.1.1-.1v-.1l.1-.1.1-.1.1-.1.05-.15.1-.1.1-.1v-.1l.1-.1.05-.1.1-.1.15-.1.05-.1.05-.1.05-.1.1-.1.15-.1.1-.1.1-.1.1-.15.1-.1.05-.1v-.1l.05-.1.1-.1.05-.1.15-.1.1-.1.05-.1.15-.1.1-.1.1-.1.05-.1.05-.1.1-.15.1-.1.05-.1.1-.1.1-.1.1-.1.1-.1.15-.1.05-.1.05-.1.1-.1.1-.1.1-.1.15-.1v-.1l.05-.1.1-.15.1-.1.2-.1v-.1l.1-.1.05-.1.1-.1.1-.1.1-.1.2-.1.05-.1.05-.1.1-.1.1-.1.05-.1.1-.15.1-.1.1-.05h.15z"/></g></svg>