<svg xmlns="http://www.w3.org/2000/svg" xmlns:ffdec="https://www.free-decompiler.com/flash" ffdec:objectType="shape" width="71.8" height="42.95"><g fill-rule="evenodd"><path fill="#999" d="M11 17.5q.1 1.35-1 2l-.5.25 1.2.8 1.65.7 1.55.1 1.5-.1q2 0 2.75 1.15-.15 1-1.45 1.55-1.8.9-3.9.85-2.15-.05-3.95-1-1.95-1.05-3.5-3.1-.9-1.05-1.45-2.1l-1.8-4.8Q.5 9.5.35 7.2q0-.5.3-.45l.2.2L2.7 10.5l2.35 4.25q-1.4-3.3-2.25-6l-.9-2.9-1-2.45L.1.9Q-.15.1.4 0l.65.5 3.6 6.35 1.4 2.25 1.4 2 2.85 4.65q.65 1.2.7 1.75m33.25 4.05-.55.35-.5.15-.45-.15-.4-.75.35-.7.95-.4.5-.1.5.25.2.55zM57 27.35l.1.25q.2.4 0 .85l-.65.7-1.7-.15q-.95-.45-.85-1.35.05-.4.45-.75l.75-.6.9-.75 1.1-.1q.4.15.4.75l-.3.8zm-4.45 13-.5.4-.6.15-.7.05-.45-.05h-3.2l-.55-.05q-.8-.3-.85-1l-.9.6-1.9.6-2.05.15-4.4.35-4.45.05q-1.95-.1-2.65-1.1-.5-.7-.2-1.6.25-.9 1.05-1.2l1.2-.15 1.15.1 1.55-.25V37q.1-.65.55-1.1l.5-.5.2-.95-.2-1.85v-.15l-.8-.45q-.85-.65-.95-1.75l.1-.8.35-.65.8-1.1L37 25q.75-.95 1.35-1l.9.15.6.25q.55.45.55.95.1.7-.5.95l-.45.2q-.35.15-.6.7.75.75.65 1.9l.75-.2 1.65-.25q1.45-.05 3.65 1.65l1.95 2.15h.35l2.45.1q-.45-.25-.6-.75-.15-.55.15-.95.6-.85 1.8-.45 1.7.4 2.2 2.05l.3 1.45.15 1.3-.3 1.15q-.6.85-2.25.85l-3.9-.4-.85 1.5h.3l.95.1 1.25.15.45.2 1.35.35.85.2.4.45zM26.2 12.85q-.45.4-1.3.2-.65-.2-2.2-1.2L18.6 9.1q-4.55-2.3-6.65-3.8L8.85 3l-.2-.2q-.05-.15.2-.25l.35-.05 3.7 1.05 5.2 1.85q2.9 1.05 4.55 2.15Q25 9 26.15 11.15q.55 1.15.05 1.7M2.45.7q.15-.3.6-.2l.55.35Q8.3 4.6 13.05 7l2.85 1.55 2.6 2.05 3.35 3.3.9 1.6q.25 1.05-.4 1.7-.6.45-1.45.3-.65-.15-1.35-.65l-1.7-1.2-8.3-7-1.5-1.4Q4.1 3.4 2.65 1.55 2.2 1 2.45.7M29.8 34.6q.25-.75 1-1.15l.95-.2 1.55.25.8.75q.45.75 0 1.55-.45.7-1.7 1l-1.75-.1q-.55-.25-.8-.9-.25-.6-.05-1.2"/><path fill="#fff" d="M31.5 13.45q.9.8.9 2.1v.3l-.2.95-.6.9-.75.65-.4.25-.55.2q-1.1.25-2.25-.35-1.6-.8-1.7-2.75 0-1.9 1.65-2.8l1.15-.4q.65 1.1 1.85 1.15zM55.6 15q0-.75.45-1.55.55-.85 1.5-1.35l1.9-.3q1 .15 1.8.85t1.05 1.7l-.05 1.7q-.25.9-.85 1.5l-.75.6-.5-.45q-1.2-.8-2.75-.95l-1 .15-.25.15-.05-.1q-.55-.95-.5-1.95m-4.4-3.65q.3 1.55-.65 2.8l-1 .85-.45-.8q-1-1.05-3.45-1.05l-.75.05-.15-1.4q.1-1.35 1.1-2.2.95-.9 2.3-.8 1.1 0 2 .75.8.65 1.05 1.8m.3 4.45-.4.4q-.3.3-.25.5.1.45.65.2.55-.3.65-.3l.5.1.3.45v.3l.5.35.45.15.35-.25-.1-.4q-.15-.5.15-.9l.85-.05.25.75v.6l-.05.8-1.1.85q-1.45.25-2.25-.9l-.05-.15q-1.35.35-2-.25-.35-.35-.45-.85l.05-.55.2-.75q.25-.55.9-.7l.6.05q.35.15.25.55m-29.7 2.45q-.8.85-1.95.95-1.1.15-2.1-.5-1.3-.95-1.3-2.55l.05-.75.85-.15.9-.4.75-.5.8-.85.3-.45.7.2q1.2.55 1.7 1.85.25.8.1 1.65-.2.9-.8 1.5m.8.75.95-.15H24v-.15l.05-.15v-.25l.15-.6.2-.25h.4l.3.1.15.25.05.95v.15l.7.1q.45.1.7.5v.45l-.3.3-.7-.05q-1.2-.35-2.1.35l-.75.45q-.55.25-1.05-.25-.35-.5-.1-1.1.35-.5.9-.65"/><path d="m29.9 18.8-.4.5q-1.3 1.7-3.25 2.8l-1.8.7-1.7.2-2.05-.1q-.75-.15-1.45-.5-.8.65-1.9 1.1-1.8.75-4.35.65l-2.15-.35L9 22.7l-2.1-2.2q-.65-.9-.95-1.85l-.2-2.35.3-2.15q.7-2.45 2.65-3.9l.15-1.05q-.1-.7-.45-.8l-.7.1-2.5.5q-1.5-.1-2.25-1-.5-.5-.65-1.3l-.1-1.5q.1-.85.45-1.6.45-1 1.4-2.05L5.7.3l.95-.3q.7.1.6.65l-.6.75Q5.6 2.25 4.6 4.7q-.3.7-.05 1.15.3.6 1.2.4l1.2-.6q1.25-.6 2.6-.4.9.2 1.45.65.8.6 1.2 1.85l.2 1.1h1.05q.05-1.3.65-2.5.75-1.3 2-2.05.8-.55 1.5-.6h1.3l1.4.25q1.35.5 1.8 1.8h1.3q1.15.05 2.2.45.75-.65 1.8-.9l1.3-.15 1.4.1q1 .15 1.75.75 1.45 1.05 1.75 2.7.35 1.75-.65 3.1l-.6.75-.55.7-.3.2-.9.2q-1.2-.05-1.85-1.15l-1.15.4q-1.65.9-1.65 2.8.1 1.95 1.7 2.75 1.15.6 2.25.35m2.5-3.25.55-.45q2.3-1.7 5.3-1.3 2.3.35 4.85 2.35l-.05-.4q-.1-2.1.35-3.55.45-1.5 1.55-2.95l-.05-.2V8.1q.2-1.25 1.95-3.95l1.4-2.25q.7-1.3 1.5-1.65 1-.4 1.85.25.8.7 1.3 2.8l.2.4 2.25-.05 2.85.75q1.9.65 3.35 1.45l.2-.2 1.15-1.6q.6-1.1 1.15-1.55.95-.75 1.85-.3.8.3 1.1 1.75.35 1.4.35 4.3l-.05 2.3q-.15 2.95-.95 4.6l-.35 1.8q-1 4-3.7 6.35l-.85.7q2.6 0 4.65.7 3.3 1.1 4.85 3.75 1.55 2.45.35 4.45-.75 1.2-3.15 2.1l-3.35 1-2.7.8q-2 .8-3.35 2.65L57.7 40.8q-.7.55-1.45.55-.4.3-.9.4-1 .25-1.75-.5-.8-.75-.75-2.7l-.7-.05-3.6-.7-1.05 1.65q.75.4.75 1.2l-.15.5-.5.25q-.95.2-1.55 0-.85-.15-1.2-.9-.25-.65 0-1.2l.6-1.1 1.15-1.6q.4-.7.9-.75l.75.1 2.05.5 2.35.4.25.1q.15-1.95.4-3l.5-1.7.3-1.25.05-.2h-.05l-1.05-.35-.85-.25-1.2 2.7-.75 1.1-2.25-.15-2.7-1.5q-1-.55-3.1-1.35l-2.35-.9q-1.25-.5-1.6-1.15-.35-.7.15-2 .8-2.2 2.2-3.85l-1-.4-.25-.1-3.1 2.6q-1 1-1.85 2.15l-.3.4q-1 1.35-1.7 2.8l.3.1L35.55 32q.9.4 1.05.8l.15.6-.05.85-.3.65-1.55 2.95q-.55 1.05-1.45.95l-.75-.25L30.8 38l-.2-.05.1 1.1.4 2q-.15 1.25-1.35 1.75-1.25.4-2.2-.45-.5-.45-.9-1.8-.85-3.85 1.2-8.85 1.05-2.5 2.65-4.7-.3-.7-.3-1.9l-.1-2.95q-.1-1.3.05-2.35l.3-1.2.4-.25.75-.65.6-.9.2-.95zm31.9-7.8v.1zM51.5 15.8q.1-.4-.25-.55l-.6-.05q-.65.15-.9.7l-.2.75-.05.55q.1.5.45.85.65.6 2 .25l.05.15q.8 1.15 2.25.9l1.1-.85.05-.8v-.6l-.25-.75-.85.05q-.3.4-.15.9l.1.4-.35.25-.45-.15-.5-.35v-.3l-.3-.45-.5-.1q-.1 0-.65.3-.55.25-.65-.2-.05-.2.25-.5zm-.3-4.45q-.25-1.15-1.05-1.8-.9-.75-2-.75-1.35-.1-2.3.8-1 .85-1.1 2.2l.15 1.4.75-.05q2.45 0 3.45 1.05l.45.8 1-.85q.95-1.25.65-2.8M55.6 15q-.05 1 .5 1.95l.05.1.25-.15 1-.15q1.55.15 2.75.95l.5.45.75-.6q.6-.6.85-1.5l.05-1.7q-.25-1-1.05-1.7t-1.8-.85l-1.9.3q-.95.5-1.5 1.35-.45.8-.45 1.55m-11.2 5.65-.25-.4q-1.75.55-3.25 1.4l.55.6q1.35-1.2 2.95-1.6m9.85 6.65L53 28.8l.2.1 1.5.7.5-1.2q.75-1.65 1.55-2.7l-.7.05-.9.65zm9.45 1.65-3.1-.7-2.2-.65q-1.3 3.45-1.65 7.05 1.25-1.1 2.6-1.75.85-.35 3-1l4.2-1.2q-.65-1.15-2.85-1.75M22.6 19q-.55.15-.9.65-.25.6.1 1.1.5.5 1.05.25l.75-.45q.9-.7 2.1-.35l.7.05.3-.3v-.45q-.25-.4-.7-.5l-.7-.1v-.15l-.05-.95-.15-.25-.3-.1h-.4l-.2.25-.15.6v.25l-.05.15v.15h-.45zm-.8-.75q.6-.6.8-1.5.15-.85-.1-1.65-.5-1.3-1.7-1.85l-.7-.2-.3.45-.8.85-.75.5-.9.4-.85.15-.05.75q0 1.6 1.3 2.55 1 .65 2.1.5 1.15-.1 1.95-.95M24.55 25q.1-.85.8-1.25l1.45.1q.6.35.95 1.35l.7 2q.25.7 0 1.15-.35.45-.9.25l-.85-.5-1.45-1.45q-.7-1-.7-1.65M40 19l.3-.1-.7-.4q-1.1-.65-1.85-.7-.95-.15-2.05.6-.8.45-1.15 1.2-.3.65-.2 1.55l.25 1.45q2.45-2.2 5.4-3.6M22 35.05l2.25.45.35.2q.2.2 0 .65l-.55.4-1.3.25-3.9.5-1.4.35-.55.35-1.3.2q-.7-.1-1.15-.6t-.55-1.15q-.1-.7.25-1.3l1-.85 1.25-.15.8.3 2.8.4zm1.35-2.95-4.2-.8q-1.2-.25-1.45-1.5-.25-1.2.85-1.95l2.15.1.6.6 1.4.9.6.2 1.9.95.7.8q.2.7-.3.95h-.9l-.75-.05zm7.55 2.8-.15.9 1.75.4h.4l.25-.3 1.05-2.05q-1.35-.7-2.55-1.55-.45 1.25-.75 2.6"/></g></svg>