<svg xmlns="http://www.w3.org/2000/svg" xmlns:ffdec="https://www.free-decompiler.com/flash" ffdec:objectType="shape" width="77.35" height="43.2"><path fill="#999" fill-rule="evenodd" d="M76.2.5v40.55H.6V.5z"/><path fill="none" stroke="#5f645e" stroke-linecap="round" stroke-linejoin="round" stroke-opacity=".498" d="M76.2.5v40.55H.6V.5"/><path fill-rule="evenodd" d="m10.1 3.75-.3 1.5v.15l.35.65.65 1.3.35 1.15.05-.05.25-.3L13 6.65l1.5-1.5.2-.4.2-.2-.1-.2Q13.75 2.25 12.5.5h1.75l2.1 3.55 5.4-.55 1.15-.05.4.05.15.05.25.75.25 1.05.05.2.2.65.25 1.35.05.95.4-.05.4.15.85.5 2.8 2.05.7.45.95.6 1 .6 2.9 1.45-1.35-3.35-.3-.8-.2-.55-.15-.4-.15-.9V8q.05-1.05 1.4-2.9l2.7-4.6h2.05l-.05.1-3.2 5.7q-.75 1.2-.6 1.8l.55 1.1.75 1.65 2.05 5.1q.6 1.4-.2 1.9l-1.25.15-1.2-.5-10.9-7-.5-.3-1.7 1.55-.55.5-1.35 1.3-.8 1.1-.05.1-.15.15h-.05l-.5.65-.85.7H16.6q-1.8-.35-5.05-1.75l-1.05-.6-4.15 2.35-.9.65-2.1 1.6-1.3.95-.9-.1-.6-.6-.15-.85.45-.75.35-.25q.15-.05.35-.15l1.75-1 1-.4.3-.15 1.95-1 3.4-1.9.1-.55.2-.5.05-.5q.1-.85.35-1.55l.05-.05-.5-.75-.35-.9-.55-1-.15-.2-.2-.25-.1-.05q-.15-.05-.55.25l-.7.3-.55.2q-.55.15-1.15.45l-2.2.95-1.75.8-.8.2-.5-.3-.1-.6q.1-.4 1-.85L4.8 6.1l1.3-.55 1.5-.6.45-.2q.6-.3 1-.3h.1l.05-1.1.35-2.15V.5l.1-.1q.2-.4.65-.25.55.1.45.7V1l-.15.25-.2.65zM58.25 35.2l1.6 4.15q.45 1.1.15 1.6l-.85.65q-.6.2-1.2 0-.8-.3-1.25-1.75-2.1-6.45-4.45-11.9Q51.4 26 52.1 25q.3-.55 1.5-1.1l6.6-3.65-5.3-4.55-.65-.35-.45.1q-4.2 1.2-7.85 2.7l-1.35.45-1.4-.3q-.35-.3-.55-1.05l-2.6-10.9q-.25-1.05.1-1.6l.8-.8.95-1.45 1.2-2h1.75L42.8 4l-.4.8q-.05.4.2 1.2l.4 1.25.2-.15 2.3-1.35q2-1.05 2.3-1.2L49.3 4l1.45-.65.75-.35h.05v-.05l.6-2.45h1.65l-.55 2.35q-.2.4 0 .6l.55.4.45.25q.85.4 1.7.95l.95.6.95.8.4.65-.3.45-.35.9-.5 1.6-.45 1.2-.85 1.85 1 .75q2.6 2.55 5.8 4.9l.7.6.85-.45.5-.25 1.5-.6.2-.1.5-.25.3-.75.05-.15.45-2.55.05-.35.2-1.55q.1-.8.3-1.1.25-.35.8-.6.7-.35 1.55-.75l4.05-1.7.25-.1 1.1-.1q.6.25.6.95-.05.7-1.15 1.3h-.05l-1.2.5-2.1.85q-1.05.45-1.75.85l-.45.3-.2.6-.15.9.2.05 1 .45.3.15 2.75 1.65 3.4 1.95q.45.65 0 1.25-.55.65-1.2.3l-.7-.45-.75-.5-1.75-1.15-2.6-1.75-.1-.05-.75-.7-.7 2.9.15.1.3.35 1.4 2.25 3.15 6.5.15.45.2.6.05 2.85v3.15l.05.4 1.45 1.7.65.9.4.65.3.55q.1.4-.2.65l-.7.15-.7-.8-1.4-1.95-.4-.5-.3-.4-.55.55-.25.3-1.1.75-1.2.85-.45.55-.4.25-1.35 1.25v.25l-.1.9q-.25.55-.65.4-.45-.05-.55-1v-.15l-.25-.4.2-.55-.1-4.25.25-1.25.55-.8 1-1.2 2.05-1.95 1.85-2.1q-.95-3.15-2.6-6L68.05 20l-.15-.25-.15-.3-.25.1-1.7.65-1.7.65-.6.2-.75.5-.65.4-6.6 3.4q-.5.3-.6.5-.15.25.05.85l1.3 3.3.3.7.95 2.7zm-4.8-30.1q-.55-.4-1.2-.65l-.3-.25-8.85 3.35 2.1 7.8.1.3.7-.2 3.55-1.1 3.9-1.25.3-.1 1.2-.15.3-.9.15-.4 1.55-4.2-.95-.7-.95-.6zM52.2 18.95l-.55-.5-.8.65-.35.3-.4.3-1.25 1.1-.4.25-.7.75h.1l1.25-.35.65-.15 1.8-.55.65-.2 1.4-.4-.3-.25-.35-.2-.55-.6zm-5 1.55 4.3-3.6.8-.4.55.05.2.4-.15.5.25.5 1.7 1.6.4.25.45.15.45.45-.15.55q-.25.3-1.1.4l-2.5.7-2.5.75-3.1.8-1.3.35q-.95 0-1.1-.6-.05-.35.35-.7l1.25-1.1zM21.35 36.15l-.75-.35q-.55-.4-1-.35-.3.1-.65.4-4.25 3.6-6.35 6.15l-1.5 1.05-1.1-.25q-.5-.35-.5-.85 0-.45.65-1.15l6.95-6.5q1-.9 1.75-1l2.15.3 1.1.45 1.05.4 4.15-5.65q2.8-3.85 4.45-5.35l.35-.25v-.1q.15-.45.6-.8l1.05-.2q.65.1 1 .45l.4.75q1.15 2.6 2.7 4.75l4.15-3.2h.05q.1-.15.25-.2l1.15-.15q.65.25 1.1 1.25 1.05 2.1 3.9 6.05l5.3 7.25 1.55 1.7.65.6q.3.5-.15.7L55 42q-1.45-.55-3.15-2.65L50.5 37.7l-.65-.9-4.3-5.65-1.1-1.5-.4-.55-1-1.5-.45-.65-.25-.4-1.65 1.15q-1.35 1.1-2 2.1l-.7.9q-.55.25-1.05 0l-.65-.65-1.5-2.25-.8-1.1-.5-.9-.3-.6-.05-.1-.15-.3-.6.75-1.75 2.25-.1.2-.8 1.15-4.65 7.1-.45.5.6.95 1.1 1.9.35.8.25.35.2.4.05.15v.1l-.05.3-.5.5-.85-.1-.55-.75-.25-.9-.65-1.7-.45-1.1-.05-.5h-.2l-1.35-.45zM72.8 30.8v-1.15l-2.7 2.7-1.85 1.8-.5.65-.25 1v.4l.05 1.15.05.9.05.25.05.65 1.35-.95.15-.15.45-.45.8-.55 2.4-1.55-.05-.9v-3.8M23.05 6.1l-.4-1.6h-.5l-1.75.05-4 .55-.05.05-.35.3-.85.45-.85.75-2.4 2.6-.3 1.05-.1.6v.7l-.1.4v.05l.6.15.25.15 1.3.65 1.45.55 1.4.45.35.1.3.1.6-.45q.2-.35 1.5-1.25l.7-.5 1.5-1.3q1.4-1.15 2.4-1.7l.05-.05zm.75 12.95L23 16.9l-.55-1.3-4.6 5.75-1.5 2.15.85.8.45.6 1.3 1.45.45-.1h.15l1.3-.4.25-.05 2.45-.9 1.85-.65.4-.1-.7-1.9v-.05l-.5-1.2-.75-1.75zm-.4 13.15-.75.2-.7-.3-1-1L18.9 29l-2.3-2.1-1.6-1.95q-.95-.95-.95-1.4t.6-1.05l6.95-8.7.6-.6.9-.1.55.8.35 1.45.2.3.55 1.15.5 1.25 1.55 3.8.75 1.7.2.9-.05.35-.2.5-3.4 5.75-.1.1zm15.75-14.5.4-.25.8.1.25.6-.15.35-.15 1.05q-.45 2.15-.05 4.55v.5q-.1.45-.75.5-.5 0-1.05-.55l-2.5-2.25q-.7-.55-.65-.95l.4-.5zm-.45 3.05.2-1.25-1.55 1.6-.05.2.1.15.3.2.75.65.25.2v-1.75m-29.9-.8.3.65.4 1.1 1.45 5.2.95 2.3.75 2.1q.6.6.15 1.2-.35.65-1.1.5l-3.65-.9-.4-.05q-.2 0-.35.15l-.9.55-.05.05-.55.3-.3.1-.35-.15v-.1L5 32.8q-.3-.45-.1-1.35l.95-4.75q.4-2.85 1.3-6.05l.3-.7q.25-.3.7-.3zm11.4 7.1-.3.1.15.2.35.35.95.85 1.55 1.5.1-.1.9-1.35.3-.3 1.5-3.35-2.7.85-.7.2zM8.9 25.8l-.05-.1-.6-1.9-.8 4.15-.6 3.15.45-.3.3-.25.6-.2h.45l2.2.35.2.05-1.45-3zM4 37.15l-2 .35-.9.2q-.9-.1-1.05-.85l.05-.7.45-.5.75-.2h.8l1.15-.2q.85-.15 2.5 0l.8.15.3.65.4.85.85 1.75.25.6.35.5.35.9.3.45v.5l-.4.05-.35-.25-.95-1.05-.5-.6-.85-1.45-.3-.5-.2-.4-.2-.2-.35-.1z"/><path fill="#fff" fill-rule="evenodd" d="m21.75 3.5 4.1-3h1l-.3.4-3.25 2.6-.4-.05zm2.2 1.85L29.6.9q.6-.45 1-.3.35.15.35.6l.75-.4.75-.15q.6.1.4.7L32.3 2q-3.6 3.15-7 6.6l-.4-.15-.4.05-.05-.95-.25-1.35-.2-.65zm5 5.8.9-.85.45-.3 1.75-1.55.3-.2.15.9.15.4.2.55.3.8L32 12.4l-.4.4-1-.6-.95-.6zm-7.25 1.1-2.15 2.4.8-1.1zM1.2 16.9q-.05-.5.35-1.3l1.65-2.8 1.3-2 .6-1.1 1.95-2.95.55-.2.7-.3q.4-.3.55-.25l.1.05.2.25.15.2-4.7 8.7-.3.15-1 .4-1.75 1q-.2.1-.35.15m4.7-9.7-.35.65-.25.25-2.55 3.95-.8 1.3-.3.25q-.3 0-.4-.2v-.45l.3-.35.25-.7.1-.05q.15-.9.75-1.55l.4-.8.25-.55.4-.8zM4.8 6.1l.15-2 .45-2.25.35-.9q.4-.6.85-.3l.4.65-.15.75-.5 2.45-.25 1.05zm2.8-1.15.3-1.5.7-2L9.2.6l.45-.2-.1.1v.7L9.2 3.35l-.05 1.1h-.1q-.4 0-1 .3zM10.75 1q.15.6-.25 1.5l-.4 1.25.3-1.85.2-.65zm43.5 3.1 2.8-3.5V.5h2.2v.1q.2.55-.75 1.5l-2.55 2.95q-.85-.55-1.7-.95m2.65 1.55Q59.6 2.7 62.3.5h4.55v1q-.25.7-1.6 1.65L60 7.35l-2.9 2.7.5-1.6.35-.9.3-.45-.4-.65zm7.25 13.25 1.65-2.65L67 14.6l.4-.25.3-.45-.05.35-.45 2.55-.05.15-.3.75-.5.25-.2.1-1.5.6zm6.4-9 3.7-4.85 1.2-1.2q.6-.5 1.15-.3l.55.5.05.8-.8 1.3-1.55 1.95-.25.1zm4.85.35q.65 0 1.05.55.55.75.25 1.6l-.7 1.15-2.25 3L71 14.9l2.6-3.6.55-.55 1.2-.5zm-2.65 7.7-1.2 1.6-1.1 1.5-1.4-2.25-.3-.35v-.05l1.4-2.2zM74 31.45l.05.6-.05.35zm-.55 4.9-.35.2-.45.1-.3.15.25-.3.55-.55zm-3.95-14-.7.9-.15.65-.85 1.2-6.35 7.4-3.05 2.6-.15.1-.75-1.8.35-.65 7.3-9.8 1.1-1 .35-.15 1.3-2.05.15.25zM56.55 30.7l-.3-.7 4.9-6.75.95-1.3.65-.4.75-.5.6-.2 1.7-.65-3.05 3.8-6 6.55zm15.5-19.1-2.35 2.7-.2-.05.15-.9.2-.6.45-.3q.7-.4 1.75-.85M45.2 15.35 53.45 5.1l1.6.95L51.8 9.8q-2.55 2.9-5.8 5.65l-.7.2zM56 6.65l.95.7-1.55 4.2-.15.15-1.5 1.3-.3.1-3.9 1.25 1.1-1.45zM50.5 19.4l.35-.3.8-.65.55.5-.35 1.2-.3.6-1.8.55q-.05-.25.05-.6l.35-.75zm0 18.3-.35.45-2.9 3.65-.75.65-.9-.15q-.45-.3-.2-.7l.3-.45 2.25-2.55.7-.65.55-.6.45-.25.2-.3zm-4.95-6.55L39.65 39l-1.85 2.3-1.2 1.25-1.65.65q-1.15 0-1.7-.7-.65-.7-.4-1.45.15-.55 1.25-1.6l1.2-1.35q3.55-4.1 8.25-7.85l.9-.6zm-2.5-3.55-3.65 3.75-1.85 1.8q-3.5 3.55-7.25 7.9-1.15 1.25-2.1 1.2-.5-.05-.75-.45l-.25-.4v-.35q.05-.35.55-.85 6.55-6.45 13.85-12.45l1-.8zm-19.4 9.55-.9.5-4.3 3.25q-.95.75-1.8 1.1l-.7.1q-.3-.15-.2-.5t.65-.8l4.95-4.65.95.55zM34 26.7l-.7.4-1.25.8-.45.35-.8.45q-.4.4-.8.4l-.25.05.8-1.15.1-.2 1.75-2.25.6-.75.15.3.05.1.3.6zm36.1 5.65 2.15-1.4.55-.15v2.75l-.15.05-4.4 2.4-.45.15-.3.05v-.4l.25-1 .5-.65zm2.7 2.25.05.9-2.4 1.55-.8.55-.45.45-1.2.4-.35.05-.05-.25-.05-.9.4-.3.65-.2.45-.25.3-.1 2.55-1.4.35-.3.45-.2zM22.15 4.5l-2.25 2-6.35 6.5-1.3-.65-.25-.15 7.55-6.9.85-.75zM15 13.55q.2-.4.7-.9l6.95-6.25.4-.3.75 2.85-.05.05q-1 .55-2.4 1.7l-1.5 1.3-.7.5q-1.3.9-1.5 1.25l-.6.45-.3-.1-.35-.1zm8 3.35.8 2.15-1.9 3.2-2.05 3.35-.45.65-.45.1-1.3-1.45-.45-.6 3.1-4.35zm1.6 4.1.5 1.2v.05l-1.55 2.65-2.45.9zm13.1.65.1-.1.2-.25.55-.45.15-.1V22l-.25.3zm-17.65 5.7.15-.3L22.3 26l.7-.2-.8 1.45-.85 1.3-.95-.85zm-12.6.6.2-.5.45-.6.3-.55.5-.5.7 1.95-.45.65-.9 1.95H8.2l-.6.2-.3.25-.45.3zM6 37.8l-1 .85-1.65 1.6-1.15.9q-.4.1-.7-.25-.35-.3-.3-.7.05-.35.45-.85L4 37.15l1.25-.05.35.1.2.2z"/></svg>