<svg xmlns="http://www.w3.org/2000/svg" xmlns:ffdec="https://www.free-decompiler.com/flash" ffdec:objectType="shape" width="76.2" height="42.4"><g fill-rule="evenodd"><path fill="#999" d="M6.55 18.6q-2.85 7.9-2.4 12.9.15 1.45.85 4.5.8 2.7 1.55 3.95L8.6 42.4H3.45q-1.35-2.1-2.2-5.05Q-.45 31.8.2 26.8l.85-4.15Q2.65 16.3 4.8 11.6l.05.05.05-.05.2-.7.25-.6.15-.3.5-1q1.55-2.65 2.05-3.25 1.85-2.6 4.5-5.2l.6-.55h7.95q-3.45 1.25-6.35 4.15l-.1.1-.7 1.1-2.6 3.35-2.45 4.15-.1.25zM50.1 41.05q4.25-2.95 7.7-9.7l2.15-5.1q.9-3.05 1.05-6.4.35-8.4-4-12.95-1.5-1.6-4.1-3.1Q48.35 1.2 42.1 0h11.75q3 1.55 4.9 3.35 2.75 2.65 4.3 6.5 1.5 3.65 1.6 7.7.2 7.15-3.7 15.2-3 6.05-7 9.65h-6.2zm22.1-11.3q1-5.7-.15-11.45-1.2-5.85-4.4-10.6-2.3-3.4-5.3-5.75Q60.8.8 59.2 0h6.6l.35.35q4.75 4.55 7.4 10.8 2.6 6.2 2.65 12.8.1 4.7-1.3 9.35l-1.55 4.35-2.05 4.1-.4.65h-4.05q4.1-5.6 5.35-12.65M45.1 11q1.05.5 1.35 1.2l.05 1.05q1.1 1.35 1.6 2.8.95 2.85-.2 6.55-1.2 4.3-3.85 6.8l1.3.3.75.65q.2.6-.3.85.8.8.5 1.75L48.7 30q2.35-3.6 2.7-8.05.4-4.45-1.35-8.4-.85-2-2-3.2-1.45-1.6-3.7-2.55-2.9-1.2-7.95-1.5-2.85-.2-4.65.05-6.15.75-10.95 5.7-4.05 4.2-6.05 10.85-1.8 6.05-.15 10.15 1.6 3.7 7.3 7.35l3.4 2h-7.45l-3.05-2.35q-2.6-2.3-3.8-4.9-2.7-5.6-.25-13.8.8-2.6 1.9-4.9l.1-.3.45-.9q1.1-2 2.45-3.65v-.1q1.05-1.4 2.25-2.65 5.55-5.6 12.65-6.65 2.85-.4 6.55-.05 7.1.55 11.15 3.35 4.4 3.05 6.1 8.65 1.5 5 .3 10.65-.6 3-2.05 5.85-3.05 5.85-9 8.65-2.1 1-4.95 1.6-5.15 1.1-9.3 0-2.95-.7-5.35-2.35-2.2-1.6-3.45-3.4-3.1-4.3-2.45-10.1.7-5.25 4.25-9.55 2.15-2.6 4.95-4.35 2.95-1.85 6.15-2.4l6.55.4q1.75.5 3.25 1.35zm-1.45 5.35-4.4.3-.1.05q-.3.25-1.1 0l-.15-.05H35q-1.4.25-2.75 1.15-2.4 1.65-3.55 4.8-.75 2-.15 3.45.6 1.55 2.35 2.2l3.2.55q3.45.2 5.55-.95 3.1-1.6 4.55-6.05.9-2.5.3-4.35L44 16.3zm-.6 18.1-10.65.1-1.75-.2q-1.05-.35-1.1-1.25v-.7l-.2-.55q-3.25-1.45-4.4-4.35-1.35-3.6 1.15-7.8 1.4-2.5 3.5-3.9l-.6-.65-1.55 1.15q-3.75 3.4-4.8 8.15-.5 1.85-.35 3.5.15 2 1.25 3.9Q24.6 33.7 26.3 35q3.35 2.5 7.85 2.6 4.3.15 8.25-1.9l2.3-1.4z"/><path d="m64.75 8.1.1-1.4.3-1.05q.6-1.15 1.9-1.7 1.05-.45 2.55-.55l.8.05.7.25.7.6.35.65.4 1.1v.65l-.25.7-.5.2q-.3 0-.5-.2l-.3-.65-.3-.9-.2-.4q-.3-.3-.8-.3l-1.55.3Q67 5.85 66.7 6.6l-.25 1.1q0 .5.15.65l.5.25.8.05q.6 0 .95-.35l.1-.55q-.05-.3-.3-.45l-.3-.2q-.45-.3-.15-.7t.8-.2l.65.35.5.45q.5.65.25 1.65-.25 1.05-1.2 1.45l-1.5.25-1.5-.2-.9-.7-.45-.7zm-.35 8.65q1.15-.75 2.5-.75.7 0 1.2.3.6.5.35 1.1-.25.5-1.5.6-1.2.2-1.75.65-.35.35-.4.85-.1.5.2.85.45.65 1.7.45l.45-.25q.15-.4-.45-.6-.55-.1-.7-.35-.3-.35.15-.7.3-.3.75-.2 1.4.1 1.8 1.35l-.05 1.15-.7.9-1.25.35-2.4-.15q-1.5-.65-1.4-2.75 0-1.2.55-1.95.35-.5.95-.85m-6.5-5.05-.4-.8-.65-.1-.65.1q-.4.2-.25.55l.25.35q.15.35-.1.6l-.6.2-.65-.6-.15-.8.1-1.1q.25-.55.85-.8l1.2-.25 1.45.2 1.15.9.4 1.25v.9l-.3.8-1.35 1.7q-.95.7-2.05.7l-2.1-.55-.7-.4-.6-.8-.85-1.7-.05-1.6q0-1.1 1.05-2.25.8-.85 1.6-1l.75.05q.4.3.35.65l-.75.8-.7 1-.4 1.15q-.05.6.4 1.45l.5.7q.6.65 1.45.5.85-.1 1.3-.85zM44.65 8.35h1.45l.3.05.25.05.25.1.15.1.15.1.1.1.05.05.25.1.15.1.15.1.1.1.05.1.1.15.05.1.1.1v.1l.05.1.05.1v.2l.05.1v.2l.05.1v.1l-.05.1v.35l.05.1v.4l-.05.1.05.1v.1l-.05.1v.1l.05.1v.1l-.05.1v6.4l.05.1v.75l.05.1v.2l.05.1v3.1l.05.1v5.9l.05.1v3.5l-.05.1v.85l-.05.1v.4l-.05.1-.05.1v.4l-.05.15v.1l-.05.1-.05.1-.05.1-.05.1-.1.1-.05.1-.1.1-.1.1-.15.1-.2.1-.15.1h-.15l-.3.05-.35-.05h-.2l-.1.05-.1.05h-1.9l-.65-.05-.65-.05h-6.05l-2.2-.05-1.2-.05H33l-.45-.05-.5-.05h-.8L30.9 36l-.3-.05-.4-.05h-.35l-.3-.05-.25-.05h-.1l-.2-.05-.25-.05-.1-.05-.25-.05-.25-.05-.25-.1-.15-.1-.15-.1-.1-.1-.1-.1-.1-.15-.1-.1-.05-.1-.05-.1v-.1l-.05-.1-.05-.1-.05-.1v-.3l-.05-.1v-.3l-.05-.1v-12l.05-.1v-1.65l.05-.1v-3.4l.05-.1V14.3l.05-.15V12.3l.05-.1v-.5l.05-.1v-.1l.05-.1v-.55l.05-.1v-.3l.05-.1v-.3l.05-.1.05-.1v-.1l.05-.1.05-.1.1-.15.05-.05.05-.05.05-.05.05-.1.1-.1.1-.1.1-.1.2-.1.2-.1.25-.1h4.7V8.4l.1-.55.15-.45.3-1.1q.3-.55 1.3-.65l1.35-.1q2.8-.1 3.85.05l1.05.3q.5.35.6.9l-.25.85-.1.85.85-.05.4-.05h1.6zm0 3.45-1.3-.05h-.3l-.4-.05-.9-.05H30.3l.05.1v.2l.05.1v2.15l.05.1v1.55H32l1.95.05H37l4-.05h4.4V11.8zM30.5 17.5v2.1l.05.1v1.65l.05.1v7H32l6.65-.05h6.55v-5.1l.05-.1v-2.6l.05-.1v-.7l.05-.1v-.1l.05-.15v-1.9L41 17.5H30.5m9.7 4.7-.35-.7q-.2-.25-.6-.35l-.7-.25-1.95.05q-.75.25-1.15.8l-.7 1-.6.15q-.4-.05-.6-.3l-.25-.5-.05-.55.35-.65.45-.5q.3-.35.9-.7.7-.45 1-.55l1.2-.15 1.85.1q1.3.35 2.1 1.15l.5.6.25.65.15 1.2-.2 1.15-.1.6-.65 1.1-1.05.85-1.1.15h-1.7q-.95-.15-1.5-.85l-.4-.75v-.55l.1-.65.2-1 .45-.55.6-.45.75-.15q1.2.1 1.6.8.25.4.15.85-.25.6-.65.45l-.45-.5-.55-.15q-.3.05-.45.3t-.05.6l.15.35.35.3 1.15.15.7-.1.35-.3.3-.45.1-.65zm14.25 4.1q0 .75.5 1.45l1.2.95.7.25q.4.2.45.55.1.55-.5.75l-.95.05q-1.65-.25-2.8-1.55-.65-.75-.65-1.45v-1.65q.05-.55.45-1.55.75-1.3 1.8-1.95 1.1-.55 2.95-.45l.95.15 1 .55 1.1 1.05.3 1.15q.1 1.2-.2 1.9l-.7.95-.65.55-2.35-.05q-1.15-.75-1.15-2.15.1-.9.6-1.35l1.4-.1.3.45-.25.45-.2.05q-.3.15-.2.45l.25.4.4.2.55-.25q.55-.55.5-1 0-.5-.8-1.1l-.6-.3-1.1-.05q-1.1.2-1.55.65-.45.35-.6 1-.15.45-.15 1M30.6 30.2v3l.3-.05h.35l.8-.05.5-.05H33l.55-.05 1.2-.05h7.3l.95-.05.65-.05h1.4v-.05h.15v-2.5l-2.2-.05-4.35-.05H30.6m36.1 3.7.65-.1.65.05.1.5q-.05.45-.5.7l-.5.2-.9.05q-.6-.2-.9-.95-.2-.55-.1-1.35 0-.6.15-.9.1-.35.7-.75.75-.5 1.95-.65.6-.15 1.2 0 .4.1 1 .7l.45.6.15.7q.2 1.85-.2 2.85-.45 1.5-1.9 2.2-1.25.75-2.85.5-.85-.1-1.4-.5-.55-.45-.85-1.15-1.1-2.15-.9-4.4l.25-1.15Q63.6 29 66.2 28.3q1.3-.35 2.4 0l.85.65q-.35.45-1.7.8-1.15.2-1.9.55-.95.55-1.3 1.4-.15.3-.15 1l.05 1.05.55 1.5.9 1 1.6-.25 1.05-.95.2-.75v-.95q-.1-.95-.65-1.05l-.75.1q-.75.35-.85.65-.05.4.2.85M38.1 8.55l1.95-.05-.05-.45-2.5.15-1.25.15v.2zm-19.2 2q-.75-.1-1.15.25-.6.35-.6 1 0 .8.75 1.15l2.65-.05.6-.35.45-.55.45-1.05.15-1.1q0-.6-.45-1l-.95-.4q-.65-.2-.9-.5-.3-.3-.2-.85.2-.45.55-.6l.75-.1q.8.15 1.65.65Q24 7.85 24.2 9l.05.95-.25 2q-.45 1.7-2.1 2.85l-.55.35q-1.3.6-2.45.6-1.4 0-2.35-.8l-.55-.5q-.55-.8-.7-1.7v-1l.15-.85q.15-.55.55-.95l.75-.7q.8-.55 2.05-.45l1 .2q.7.3.95 1.2.15.85-.25 1.5-.4.6-.85.6l-.65-.15-.45-.4q-.2-.3.05-.55l.35-.2q.35-.2.15-.4zm.25 18.2L18 28.7q-.45 0-.7-.2-.3-.1-.7-.6l-.3-.35-.25-.65-.2-1.25.15-.9.35-1.1q.5-1.15 2.2-1.9l.65-.2.65-.05 1.1.1.65.15.4.45q.1.45-.35.7l-.75.15h-.85q-.35.05-.85.35-.4.15-.7.45-.7.65-.7 1.9v.4q.1.6.35.7l.4.05.95-.05 1-.25.25-.45-.1-.45-.6-.05q-.4-.1-.5.15l-.7-.1-.15-.35-.1-.45q.1-.55.75-.75l1.1-.2.95-.05q.5.15.9.7l.3.45.15.7-.05 1-.1.6-.35.4-.6.55zM6.1 8.8q.4.4.7.45l.8-.15 1.15-.5.35-.35.15-.35.2-.7.05-.5-.1-.55-.45-.8-.65-.2-.7-.1-.8-.35q-.35-.25-.35-.6-.1-.25.2-.45.35-.25.85-.35 1.4-.1 2.15.4l1 .95.4 1.15.15 1.35-.15 1.15-.3.85-.5.7-.65.5-2.15.85q-1.05.15-1.95-.3l-.75-.6-.4-.45L4 9.2l-.25-.65q-.05-.5.45-1.4l.65-.8q.3-.2.8-.3l.8-.15q.85.1 1.4.8l.2.6-.4.3-.4-.25-.8.05q-.5.2-.85.75zm.95 13.6h.7l.85-.55.35-.65.2-.6q.1-.8-.35-1.3-.4-.55-1.1-.8l-1-.3-.4-.35q-.15-.25.05-.55.05-.25.4-.4.65-.45 1.5-.3.8.15 1.45.6l.7.6.35.6.35.7.15.95-.05 1.15q-.1 1.05-.8 1.95-.65.9-1.65 1.3l-.85.2-.85-.05q-1.15-.25-1.75-.85-.8-.65-.9-1.7l.15-1.7.35-.6q.5-.5 1.05-.7L6.8 19l.65.1.4.3.4.5q.3.55-.1.95l-.45.2-.4-.25-.15-.25-.75-.05-.35.25-.05.5.15.65q.2.3.9.5m3.3 11-1.05-.8-.6-.15-.5.1-1.15.4q-1.25.65-2.1 2.15l-.2.5q-.15.45 0 .85l.25 1-.65.55-.85-.2q-.55-.3-.7-.8l.1-1.15.05-.7.3-.8q1.4-2.65 3.55-3.6.9-.35 1.5-.35 1.8-.15 3.2 1.35.7.7.85 1.45l.05.75-.05 1.95q-.15.95-.95 1.6-.75.6-1.8.85-1 .2-1.7 0-1.05-.25-1.7-1.05-.4-.6-.4-1.1-.1-.5.25-1.35l.4-.65.6-.4q.9-.4 1.75 0l.55.5-.05.35-.35.15-.25-.15h-.35q-.55.1-.65.4-.3.55.45 1 .9.5 1.85 0l.45-.4.15-.75q.1-.95-.25-1.5"/><path fill="#fff" d="m40.2 22.2-.1 1.05-.1.65-.3.45-.35.3-.7.1-1.15-.15-.35-.3-.15-.35q-.1-.35.05-.6t.45-.3l.55.15.45.5q.4.15.65-.45.1-.45-.15-.85-.4-.7-1.6-.8l-.75.15-.6.45-.45.55-.2 1-.1.65v.55l.4.75q.55.7 1.5.85h1.7l1.1-.15 1.05-.85.65-1.1.1-.6.2-1.15-.15-1.2-.25-.65-.5-.6q-.8-.8-2.1-1.15l-1.85-.1-1.2.15q-.3.1-1 .55-.6.35-.9.7l-.45.5-.35.65.05.55.25.5q.2.25.6.3l.6-.15.7-1q.4-.55 1.15-.8l1.95-.05.7.25q.4.1.6.35zm-9.7-4.7H41l4.4.05v1.9l-.05.15v.1l-.05.1v.7l-.05.1v2.6l-.05.1v5.1h-6.55l-6.65.05h-1.4v-7l-.05-.1V19.7l-.05-.1v-2.1"/></g></svg>