<svg xmlns="http://www.w3.org/2000/svg" xmlns:ffdec="https://www.free-decompiler.com/flash" ffdec:objectType="shape" width="69.8" height="43.65"><g fill-rule="evenodd"><path fill="#999" d="M67.05 30.5q-1.45 2.7-3.65 4.25-1.2.85-3.05 1.55-3.5 1.45-6.7 1-3.75-.55-7.15-3.7l-.55-.6h-.05v1.1q.15 2 1.25 3.75 1.05 1.75 2.75 2.75 2 1.15 3.8.85 1.55-.25 4.2-2.2 2.15-1.5 3.8-1.8 1.95-.35 3.3.55l.7-1.15.1-.2q.2-.65 0-1.05l.05-.35q-.1-.25.15-.5l.35-.1.3.15.2.35.25.25.1.6.35 1.4-.1.35-.65 1.55-.45.5.15.45.6-.45.4-.15.6-.4.2-.3.05-.65.55-.8q.15-.05.35.15l.35.5.1.9-.05.4-.2.4-.1.3-.5.85-.8.85-1.85 1.05-.25.5-.15.25H44.2l-.35-.35q-1.9-2.25-2.5-4.9-1.5 2.1-2.75 4.45l-.45.8H32.9l-.25-.85q-.1-.55.1-1.2L31 43.2l-.5.45h-6.25v-.05l-.85.05H3.65q-.45-1.15.3-2.35l.5-.8.35-.95.8-1.3.25-.25.55-.85q1.1-1.35 2.95-2.85 5.15-4.2 10.9-6.85l-.4.05q-1.4.2-2.65-.7-1.6-1.15-1.7-3.3 0-2 1.4-3.5l.6-.55.7-.3-.7-1.35-1.2-1.6-2.95-3.35-.6-.45-1.1-.05-1.6-.4Q9.3 11.5 8.9 10.8 8 9.15 9 7.65q.75-1.15 2.2-1.4 1.3-.2 2.55.45l1.85 1.55 2.55 3.05.9-.8q.9-.55 2.05-.45l.5.05-.25-5.7q-.1-2.35.75-3.45 1-1.15 2.45-.9Q26 .2 26.7 1.65q.45.95.25 2.8l-.65 10.5-.25 3.05 1.6-.1q1.45.35 2.05 1.5.4.85.25 1.95-.15 1.15-1.05 2.15l-1.8 1.35q8.05-2.4 16.15-1.75.6-5.35 4-9.15h.05l-.9-1.75q-1-1.9-.9-3 .25-1.55 1.55-2.1l2.35-.3q5.6.3 11.1 2.8 1.75.85 2.65 1.65l.3.1q1.35.7 2.6 2 1.7 1.85 2.6 4.55 1.3 4.15-.15 9-.3-1-1.3-1.4-1.45 1.45-3.55 1.95l-.4.1q-.2 1.25.4 2.05l.5.5.5.35 1.25.25.55-.05zm-30.3-10.9q.4-.8 1.35-1.05.9-.2 1.7.35.8.65.7 1.7-.05.7-.7 1.35l-1.4.45q-.85-.05-1.35-.6-.9-.9-.3-2.2m16.15 8.95-.2-.45q-.3-.3-.7-.25-.6.15-.7.95 0 .55.35 1.15l.15.45.2.3q1 1.2 2.55 1.3h.85l.85.05.85-.1.35-.15.55 1.45.45.55.65.4.75.25.6-.05.85-.05.5-.3.35-.25.35-.35q.2-.3.05-.7L62 32.3l-.35-.05-.3-.1-1 .05.15-.9.2-.95-.1-.35-.55-.85-.15-.1q-.35-.55-1.05-.65l-1.2.15-1.45.85-.4.05-1.6-.05q-.9-.15-1.3-.85m1.65-2.4q1.45-.1 2.35-1.2l-.8-.9q-1.05-1.45-1.3-3.55v-1.1l-.65-.05q-1.15 0-1.8.35-.35.15-.6.4-.75.7-1.1 1.85-.25 1.1.15 2.1l.3.6.4.45q1.3 1.2 3.05 1.05M32.35 8.7l.2.35q.5.65.5 1.35.1.8-.45 1.35l-.25.35q-.6.5-1.45.6h-.7q-1.5-.1-2.3-.9-.7-.7-.7-1.7l.2-1.05.45-1.4.6-.7.8-.55 2 .15q.95.65 1.05 1.75zm-12.6-4.55q.3.8.1 1.55-.25.8-.95 1.25l-1.5.35q-.8-.05-1.35-.7-.6-.6-.65-1.4t.45-1.45q.5-.7 1.3-.9l1.55.2q.75.4 1.05 1.1m2.8 22.25-.45-.5-.05.05-1 1.1zm2.4-.85.3-.15h-.3zM2.75 9.8l.35.6.1.55-.45 1-.9.55q-.55.1-1.05-.2t-.7-.85q-.2-.5 0-1.05t.65-.85T1.8 9.3q.6.1.95.5m11.1 9.4-.6-.05-1.3.2q-1.3.3-1.9.65l-1.35.9-1.35.15q-.75-.15-1.25-.65t-.65-1.2q-.15-.75.1-1.4.3-.85 1.1-1.4.7-.5 1.65-.75 2.35-.6 4.2.45l1.1.75.35.4.55.75v.75q-.2.45-.65.45"/><path fill="#fff" d="m68.5 26.9.15.8v.4q0 .9-.65 1.65l-.95.75-.6.15-.55.05-1.25-.25-.5-.35-.5-.5q-.6-.8-.4-2.05l.4-.1q2.1-.5 3.55-1.95 1 .4 1.3 1.4m-13.95-.75q-1.75.15-3.05-1.05l-.4-.45-.3-.6q-.4-1-.15-2.1.35-1.15 1.1-1.85.25-.25.6-.4.65-.35 1.8-.35l.65.05v1.1q.25 2.1 1.3 3.55l.8.9q-.9 1.1-2.35 1.2m-1.65 2.4q.4.7 1.3.85l1.6.05.4-.05 1.45-.85 1.2-.15q.7.1 1.05.65l.15.1.55.85.1.35-.2.95-.15.9 1-.05.3.1.35.05.55.45q.15.4-.05.7l-.35.35-.35.25-.5.3-.85.05-.6.05-.75-.25-.65-.4-.45-.55-.55-1.45-.35.15-.85.1-.85-.05h-.85Q53 31.9 52 30.7l-.2-.3-.15-.45q-.35-.6-.35-1.15.1-.8.7-.95.4-.05.7.25z"/><path d="m63.65 6.5 1.05.3q1.6.65 2.7.35l1.1-.4q.65-.2 1.05.2.35.3.2 1.15l-.35 1.75q-1.1 3.8-4.7 6l-1.05.5-.4.1-.45-.1q-.5-.15-1.1-.5-3.6-2.2-4.65-6l-.4-1.75q-.15-.85.2-1.15.4-.4 1.1-.2l1.1.4q1.1.3 2.65-.35l1.05-.3zm-2.45 6.8 2 2 2.35-2.3q1.6-1.75 2.15-4.05l-1.55.1-1.7-.15-.55-.15-.4-.1-.25-.05-.05-.05-.65.2-.6.15-1.2.1-.45.05-1.6-.1q.3 1.2.9 2.25l.95 1.4.35.4zM18.55 37.1q-3.05-.55-4.85-2.6-1.1-1.25-1.6-2.8l-.9.6q-1.4 1-2.25 1.2-1.75.55-3.4-.6-1.5-1.05-1.6-3-.05-1.35.9-2.85Q5.55 26 7 24.9l1.15-.8q1.6-.9 4.35-1.35l.45-.05.65-1.2q1.1-1.7 2.65-2.65l.35.85 1.05 1.7 1.8 1.25 2.15.2.65.6q.75.75 1.9.5 1.7-.7 3.1-1.75l1.85-1.45q1.1 1.75 1.55 4.25l.3 2.85-.05 1.4q1.85.85 3.55 2.45 1.75 1.6 3.9 4.65 2.1 3.1 2.35 5.05.2 1 0 1.9H23.05q-.25-1.1.1-2.45l.55-1.7.6-1.7.2-.85h-.1q-2.95 1.1-5.85.5m7.2-26.2q1.05.35 2.35 1.25l.6-1.8q1.25-2.55 3.8-3.8 1.05-.55 2.05-.65 1.3-.2 2.55.55 1.3.6 1.9 1.8 1.05 1.85.45 4.15-.65 2.05-2.35 3.55l-.9.8-1.3.6-2.1.6-.05 2.45-.1.7q-.95-.25-2.05-.85l-3.7-.4-.5-.7.25-1.6.05-2.95-.15-1.05-.4-1.2-.3-.7-.05-.25zm-6.3-2.5q-.3 1.1-1.65 1.2-1.2 0-1.65-1.2-.2-.5 0-1.1.15-.55.6-.9 1.05-.8 2.1 0l.6.9q.2.6 0 1.1m2.4 8.5-.1-.4-.2-.3-.25-.8-.3-1.3-.05-.5-.5-1.45q-.3-1-.2-1.55t.6-.95q.45-.4 1-.45l1.1.3.65.9.1 1.25-.1 1.05.05.85.1.8-.15 1-.15 1q.25.4.15.8l-.3.8-.2.3-.65.05-.25-.4zm-5.15 0-.35-.15-.15-.15h-.15l-.6-.15-.55-.35-1.25-.25q-1-.3-1.2-1.45-.1-1.1.85-1.65l1.85.05.3.25.25.4.65.65v.1l.65.85.1.3.2.25.35.6.3.55-.15.55h-.6zm4.5 17.4.25-.15.35-.45.5-1.45.2-.45.3-.3.6-.45L25.3 30l.8-.85-.25-.55-.7-.3q-.5 0-1.3.5l-1.35.6-.2.1-.15-.15-.4-.2Q21.6 29 21.5 29l-.75.05-.4.3-.15.5.3.5.2.45.2.3-.05.3-.2 1-.15.9.2.7zm-2.8-3.4q.15-.85-.1-1.55-.35-1-1.15-1.45l-2.85-.1q-1.45.85-1.45 2.45 0 1.45 1.25 2.3 1.2.9 2.6.3 1.4-.5 1.7-1.95"/><path fill="#999" d="m63.25 8.6.25.05.4.1.55.15 1.7.15 1.55-.1q-.55 2.3-2.15 4.05l-2.35 2.3-2-2 .2-.6.3-.85.2-.35.45-1 .5-1.35zm-2.7 4-.95-1.4.3-.65.7-1.2.15-.35 1.2-.1z"/><path fill="#fff" d="m63.25 8.6-.4.55-.5 1.35-.45 1-.2.35-.3.85-.2.6-.3-.3-.35-.4 1.4-3.7.6-.15.65-.2zm-3.65 2.6q-.6-1.05-.9-2.25l1.6.1.45-.05-.15.35-.7 1.2zM18.4 30.9q-.3 1.45-1.7 1.95-1.4.6-2.6-.3-1.25-.85-1.25-2.3 0-1.6 1.45-2.45l2.85.1q.8.45 1.15 1.45.25.7.1 1.55m2.8 3.4-.5-.3-.2-.7.15-.9.2-1 .05-.3-.2-.3-.2-.45-.3-.5.15-.5.4-.3.75-.05q.1 0 .25.15l.4.2.15.15.2-.1 1.35-.6q.8-.5 1.3-.5l.7.3.25.55-.8.85-1.9 1.05-.6.45-.3.3-.2.45-.5 1.45-.35.45z"/></g></svg>