<svg xmlns="http://www.w3.org/2000/svg" xmlns:ffdec="https://www.free-decompiler.com/flash" ffdec:objectType="shape" width="69.7" height="42"><g fill-rule="evenodd"><path fill="#999" d="M28.15 17.35q-.35.9-1.45 1.8l-1.15.75q-1.1.4-3.1 0l-1.3-.25-1.25-.6-.9-.8q-.45-.6-.55-1.65l-.65.1-.95-.15-1.2-.4-.5-.25-1.05.05-1.15-.05-.5-.15-.2-.55.4-.4.45-.05 2.15-.5 1.7-.6.5-.05-.1-.15-1.1-1.55-.7-1.5-.5-.5-.15-.4q-.2-.45 0-.65.05-.2.4-.2l.45.15.8.4 2.7 2.15.95.65q.65-.65 1.35-1-.35-2.05-.35-4.85l.1-1.35q.25-.75.9-1l1.4.15 1.15.1q-.4-1.45-.4-2.85l.05-.65q.3-.55.75-.55.6-.1.85.4l.25.95.35 2.45.2.9q.2 1-.2 1.45l-1.1.3-1.2.05.85 4.5q.6.25 1.25.65l.9-.8 3.7-2.8.35-.15q.4 0 .4.5l-.25.6-1.4 2.2-.35.3-.3.45-1.35 1.7.35.8 1.05.25h.85l.85.1.6.2.35-.05.5.25v.4l-.4.25-.45.15-.4.2-.65.15h-1l-1 .25-.35.25zM65.1 26.2q-3.4 3.6-7.3 6.55l-3.55 2.9-.7.8-.8.65-.95.4-.35.05-.15-.35.2-.4 1.55-1.65q4.75-4.6 8.35-8.9h-.15l-1.7.1q-.75-.1-2.05-.9l-1-.7-.75-1.1q-.9-1.5-1.05-2.35l-.05-.3-.85.3-2.3.1-1-.4q-.95-.45-1.3-1-.65-.8-.25-1.6.55-.7 1.5-.6l1.2.3h1.1l.45-.1.25-.2.45-.25q.7-.4 1.25-.4l.3-.6q1.3-2.05 2.65-2.7l.85-.2q.55.1.7.55l-.15.65-.2.4.35.55v1l-.45 2.85-.35 1-.65.2.55.8 1.35.9 1.8.55q.95.35 1.15 1.1l2.45-3.4q1.2-1.75 2.2-2.25l.6-.1q.3.1.3.75.05 1.95-1.05 3.85zM41.6 10q.2-1.05 1.25-2l.55-.45.9-.15.5.2q.45.3.45.85l-.15.9-.05.55.65.4q1.25.35 1.4 1.45L47 12.8l-.75.75-.7.2-2.3-.25q-.75-.45-1.35-1.85l-.3-.65q-.15-.45 0-1m-21 31.15q-5-.55-7.9-2.45-.5-.35-.3-.7l.45-.1h1.4l8.5-.3q-3.7-.3-6.9-1.85l-.25-.2.15-.35.45-.05q8.05.3 15.75-2.45l2.15-.9.15-.25 1.85-1.9L40 25.9q1.9-1.9 2.55-2.25 1.7-1.05 4.75-.95 3.6.1 5.1 2 1.3 1.6 1 4.85l-.4 2.5q-1.05 3.85-5.2 6.3-2.8 1.7-7.9 2.8l-7.35.85-1.9-.4-.5-.4q-4.7.45-9.55-.05m22.1-8.55q1.7-.8 2.6-1.7 1.25-1.25 1.2-2.8-1.25 0-2.5 1.15l-1.95 2.1q-1.55 1.65-3.7 2.4l-.2.1-2.05 1.25-.4.2q3.8-1.1 7-2.7"/><path d="M65.3 14.8v-1.3l1.3-.6.05-.55-.4-.45-1.1.15q-1.25.75-1.25 2.65 0 .65.25 1 .45.55.95.15.3-.2.2-1.05m-4.6-2.25.45.2.5.65.3.3.1.25.2.8.2.4.4.15.35-.35.15-.65-.1-.5-.45-1.15-.75-.95-.65-.4-.75.05q-.3.25-.3.6 0 .45.35.6m5-1.55q.15-.35-.1-.7-.15-.35-.6-.35l-.7.2-.65.3-.6.1-.3.3q-.15.5.3.8.35.3.85.2l1.3-.3zm-8.6 6.6-1.7 1.35q-1.3.65-2.8.75l-1.65.05-.6.75-.3.25q-.85 1.1-2.3 1.2-2.25.15-3.25-.85l-1.15-1.45q-.2-.4-.15-1.65t.3-1.65l.3-.5.9-.8q-.2-.8-.25-1.8v-1.1l.05-.5-.15-.05Q42.7 11.1 42 9.55q-.65-1.55-.15-3.1.3-1.8 1.5-2.85 1.55-1.15 3.95-.75 1.15.15 2.05.65.9.45 1.25 1.2l.15.25.4-.05 4.2-.25q1.5.3 2.6 1.05l1.2-.25q4.1-.25 7.1 2.95 2.65 2.65 3.3 7.05.5 3.8-.85 6.5-1.45 2.9-4.05 3.65l-.7.15-1.4 1.35-.8.55-1.2 1.1-4.7 4.15-1.4 1.05-.35.3-.15-.1v-.2l.65-.85.55-1 .7-.65.4-.75.65-.95L58 28.5l1.1-1.6 1.05-1.5q-.75-.4-1.2-1.05l-.8-1.8q-.35-.85-.4-1.65-.15-1.1.35-3.2l.3-.95.8-1.35h.05l-.15-.55-.1-.25q-.55 1.6-1.9 3m-5.15 1.25.25-.25-.2-.5-.25-.4q-.3-.4-.5-1.4l-.1-.55v-.35l-.6-.25q-.55 0-.75.35l-.25.2q-.2.25-.3.95l-.2 1.9.2.45.4.15.2-.2.45-.8.1-.4.3-.45.05.05.35 1.05q.35.45.85.45m1.4-6.75-.2 1.2-.55.5-.2.5.15.35.45.15.55.1.15.3.25.5.2.05.2.55.7.05.1-.7q-.05-.8.75-2.95.3-.9.2-1.35-.15-.5-.65-.75l-.95-.1q-.7.25-1.15 1.6m-2.2 1.65.75-.55-.1-.5-.25-2.35.2-1.5.15-.35-.95-.6-2.6.1q-1.2.6-1.55 2.1l-.05.65q0 .9.25 1.45.5 1.3 1.7 1.7zm-26.7-.25q1.5.35 3.65 1.8 4.65 3.1 6.75 6.9l1.45 3.45L37.9 29l3.05-2.7q1.8-1.55 3.4-2 2.9-.75 5.15 1.25 1 .95 1.5 2.3t.3 2.75q-.6 3.6-5.1 5.65l-3.75 1.25-3.85 1.05-1.8.55q-1 .2-1.8 0-1-.35-1.8-1.55l-1.1-2.2q-2.25-5.65-5.15-11l-1.9-1.9-1.05-.8-1.75.25q-.75.3-2.6 1.7l-2.9 3.25q-4.7 5.35-7.4 7.55L5.9 36.65l-1.2 1.4-1.9 3.25H0V7.55l1.8 2.7 2.5 3.35q2.25 3.35 3.55 6.3l1.9-1.3q2.3-1.5 4-2.25l1.2-.45.2-.15 2.55-1.1q4.45-1.6 6.75-1.15"/><path fill="#fff" d="m51.15 13.75-2.45.15q-1.2-.4-1.7-1.7-.25-.55-.25-1.45l.05-.65q.35-1.5 1.55-2.1l2.6-.1.95.6-.15.35-.2 1.5.25 2.35.1.5zm2.2-1.65q.45-1.35 1.15-1.6l.95.1q.5.25.65.75.1.45-.2 1.35-.8 2.15-.75 2.95l-.1.7-.7-.05-.2-.55-.2-.05-.25-.5-.15-.3-.55-.1-.45-.15-.15-.35.2-.5.55-.5zm-1.4 6.75q-.5 0-.85-.45l-.35-1.05-.05-.05-.3.45-.1.4-.45.8-.2.2-.4-.15-.2-.45.2-1.9q.1-.7.3-.95l.25-.2q.2-.35.75-.35l.6.25v.35l.1.55q.2 1 .5 1.4l.25.4.2.5z"/><path fill="#999" d="m65.7 11-.5.55-1.3.3q-.5.1-.85-.2-.45-.3-.3-.8l.3-.3.6-.1.65-.3.7-.2q.45 0 .6.35.25.35.1.7m-5 1.55q-.35-.15-.35-.6 0-.35.3-.6l.75-.05.65.4.75.95.45 1.15.1.5-.15.65-.35.35-.4-.15-.2-.4-.2-.8-.1-.25-.3-.3-.5-.65zm4.6 2.25q.1.85-.2 1.05-.5.4-.95-.15-.25-.35-.25-1 0-1.9 1.25-2.65l1.1-.15.4.45-.05.55-1.3.6z"/></g></svg>