<svg xmlns="http://www.w3.org/2000/svg" xmlns:ffdec="https://www.free-decompiler.com/flash" ffdec:objectType="shape" width="76.25" height="38.1"><g fill-rule="evenodd"><path fill="#999" d="m52.75 5.2.05-.7.5-1.3.1-.45q.2-.45.85-.35l.95.3.6.2.25.45q.15.65-.4 1.2l-.9.95-.65.95-.95.55-.55-.15-.3-.45.15-.6zm-7.35 10-.7-.4-.5-.65v-.95l.2-1.9.2-.6q.2-.3.85-.4l.95.1.8.1q.4.25.4.75l-.25.9-.9 2.1-.4.65q-.3.4-.65.3M19.05 8.1h-.85l-.75-.6-.55-1.05-.4-.9q-.05-.55.45-1l1.05-.4q.85-.2 1.35 0l.5.5v.65l-.25.4.05.65v1q-.15.6-.6.75"/><path d="m14.9 20.2-.1-.15q-.15-.45.05-1.1l.6-1 1.05-1.55q.55-.95 1.1-1.35l.85-.4q.5 0 1 .5l.75.9 2.3 1.75.9.7q.35.45.35 1l-.2.7-.15.65-.05.7-.1.3-.15.5v.35l.05.25q0 .6-.5 1-.55.5-1.95.7h-1.05l-.8-.55L17 22.5l-.05-.05-1.7-1.65zm9.65-1.9-.5-1.55q-.85-2.6-.9-3.6-.05-.9.35-2.7l.2-.6h-.05q-.5-.3-.75-.9-.4-.9 0-2.3L23.6 5l.3-.4.5-.05.2.4-.05.55q-.05.75.35 1.55 1.15-1.7 3.15-2.8l1.3-.55q0-.8.4-1.6.5-.9 1.4-1.65.55-.45.9-.45l.5.2.15.45-.45.6q-.4.45-.1 1.35l.15.45.15-.05 4.2.35.45.15.15-.35q.55-1.2 1.15-1.75.4-.3.6-.3.45 0 .45.4l-.3.5q-.3.5.25 1.45.45 1.05.3 1.75l.9 1.05q1.6 2.05 2 4.65l.2 2.6.05 5.9v2l-.05.55v.95l-.1 1.25q1.4-.2 2.75.5l.6.45v.4q-.15.4-.9.4l-.25.05-1.25.3-1.15.95-.15.1-.15.7q.75.15 1.45.45h.05l1 .1.8.35 1.1.95.6.8.85.5.8-.2.95-.35h.45l.3.25-.15.35-.45.2-.8.25-.65.35-.75.6-1.15-.2-.3-.15-1.25-.85q-.45-.45-.9-.65l-.85-.1-2.45-.2-.3.05-1.05.15q-1.8.3-2.45 1l-.35.4-.2.6-.05.1q-.3.8-1.05 1l-.5.05-.35-.15-.5-.25-.25-.3q-.45-.65-.3-1.55l.05-.1v-.1l.15-.3.3-.55-.5-.05-.6.05-.2-.1-.8-.15-1.6.25-.85.3-.1.05-.1.1-.1.05-.1.1-.1.1-.2.05-.15.1-.05.05-.1.1-.05.05-.1.1-.1.05-.1.1-.1.1-.15.05-.15.1-.2.05-.05.1-.1.05-.05.1-.1.1-.15.05-.1.1-.1.05-.05.1-.1.05-.05.1-.1.05-.1.1-.1.1-.15.05-.15.1-.05.05-.1.1-.1.05-.15.1v.05l-.15.05-.15.05h-.4l-.15-.05-.15-.1-.1-.1-.1-.05-.1-.1-.05-.05-.05-.1-.05-.05-.05-.1-.15-.1-.05-.05-.1-.1v-.05l-.15-.1-.1-.05-.1-.05-.15-.05-.1-.1-.1-.1-.1-.05-.1-.1-.1-.05h-.05l-.15-.05-.15-.1-.1-.05-.05-.1-.05-.1-.05-.05v-.3l.05-.1.1-.05.05-.1.1-.05.2-.05h.1l.2.05.1.1.1.1.1.05.15.1.15.05.1.1.1.05.1.1.15.05h.5l.05-.05.1-.1.15-.05.15-.1.15-.05.1-.1.1-.05.05-.1.1-.1.1-.05.15-.1h.05l-.05-.65.1-.35v-.1l.25-.5-.15-.45-.1-.05-.6-.35-1.5-.25h-1.1l-.55.05-.25-.4.3-.55.15-.2.8-.65 2.35-.85.25-.05-.25-2.6-.3-1.9zm21.55 2 .1-.5 1-2.3.8-1.4q.65-.95 1.1-1.1l.8-.1 2.15.05.6.15q.65.3.8.75l-.15 1-.2.45-.75 1.6-.2.7v.55l-.6.65-2.4 1.1-1.25.3-.55-.1-.35-.3-.5-.55-.35-.55zm2.35-.25v.4l.1.2.2-.05 1.25-.55.3-.25.05-.35q0-.5.4-1.25l.05-.1.55-1.35-.25-.05-1 .05-.25.2q-.45.4-.95 1.5l-.35.85zm2.8 7.25h.7q.95 0 1.45.55-.15.4-.85.5l-1.4.1-.2.05-1.05-.15-.6-.25-.45-.5q-.15-.25-.05-.95l.15-.4.25-.25 1.1-.7.95-.3.5-.1.65-.05 3.2.3.85.3.55.4q.55.8-.05 1.55l-.3.3-.65.15-1-.25v-.4l.25-.2.55-.3-1.05-.15-1.35-.2h-.9q-1.35.1-2.1.65v.1zm-22.1-14.1q.95-.5 1.05-1.55l-.35-1.2q-.35-.55-.95-.75t-1.25 0q-.6.2-1 .75-.35.5-.25 1.2.05.7.45 1.15.4.5 1.1.6zM39.7 7.75l-1.1.05q-.6.2-.85.7t-.15 1.1.5.95q.4.4 1 .4.6.05 1.05-.3l.6-.9-.05-1.1q-.3-.65-1-.9m-8.6-.9q.1.85.6 1.35.9 1 2.15.5.55-.2.95-.7l.35-1.1q.1-1.3-1.1-1.9l-.75-.2-.5-.05q-.7.15-1.2.85l-.1.05-.2.4-.1.1v.15zm-9.5 13.2-.15-.1-2.95-2.35q-.75.8-1.3 1.75l.1.15.05.05.2.2.4.4.5.4.15.1.2.15 1.55 1.2.35.2.45-.1.6-.4v-.6l.05-.3v-.35zm10.7-4.75.4.45 1.5.85 1.7-.05 1.45-1q.6-.7.7-1.55.35-1.9-1.25-3.05-.7-.5-1.6-.6l-1.7.35q-.75.35-1.25 1.15-.45.8-.5 1.65l.1.8zM20.75 31.05l-.6.4-.6.35-1.05.15h-1.4l-.85-.15-1.2-.55-.6-.6q-.3-.8.15-1.7l.35-.5.3-.25q.9-.6 1.65-.75l1.3-.1 1.25.1.9.5.35.25q.65.65.4 1.55l-.1.7zm-1.45-1.9-.15-.05q-1.85-.25-2.95.7l.2.15.25.15h.05l.3.05 1.3.1 1.2-.3.05-.05.4-.4-.55-.3z"/><path fill="#fff" d="M33.5 31.55h-.55l-2.75.35-.8.15-.85.4-2.1.95-.8.25v-.05l.15-.1.1-.05.1-.1.05-.05.15-.1.15-.05.1-.1.1-.1.1-.05.05-.1.1-.05.05-.1.1-.05.1-.1.15-.05.1-.1.05-.1.1-.05.05-.1.2-.05.15-.1.15-.05.1-.1.1-.1.1-.05.1-.1.05-.05.1-.1.05-.05.15-.1.2-.05.1-.1.1-.1.1-.05.1-.1.1-.05.85-.3 1.6-.25.8.15.2.1.6-.05.5.05-.3.55-.15.3v.1zM51.1 16.7l-.2.35-1 1.05-1.05 1.45-.4.5.1-.75.35-.85q.5-1.1.95-1.5l.25-.2zm2.3 9.65-.7.45-1.45.5-.85-.2V27q.75-.55 2.1-.65zM31.1 6.85l.1-.55v-.15l.1-.1.2-.4.1-.05q.5-.7 1.2-.85l.5.05.75.2q1.2.6 1.1 1.9L34.8 8q-.4.5-.95.7-1.25.5-2.15-.5-.5-.5-.6-1.35m8.6.9q.7.25 1 .9l.05 1.1-.6.9q-.45.35-1.05.3-.6 0-1-.4-.4-.35-.5-.95t.15-1.1.85-.7zM29.15 13.2l-1.2.2q-.7-.1-1.1-.6-.4-.45-.45-1.15-.1-.7.25-1.2.4-.55 1-.75.65-.2 1.25 0t.95.75l.35 1.2q-.1 1.05-1.05 1.55m-11.6 6.55-.2-.2-.05-.05-.1-.15q.55-.95 1.3-1.75l2.95 2.35.15.1-.4-.05-2.85-.55-.25.1zM32.3 15.3l-.45-1-.1-.8q.05-.85.5-1.65.5-.8 1.25-1.15l1.7-.35q.9.1 1.6.6 1.6 1.15 1.25 3.05-.1.85-.7 1.55l-1.45 1-1.7.05-1.5-.85zM16.7 30.1h-.05l-.25-.15-.2-.15q1.1-.95 2.95-.7l.15.05-.7.65z"/><path fill="#999" d="m53.1 17.3.1-.05 1.15-.15-.15-1.1q-.1-1.45.4-3.35l.2-.3.1-.55.4-.3q.3 0 .45.25l.15.55.25 3.3.1.35.45-2.1.4-1.5.4-1 1.5-3.4q.4-.55.7-.35.25.1.15.75l-.9 3.6q-.15 1.05-.15 2.2l.05 1.35-.05.65.1 1 1-2.5q.15-.45.4-.6l.65.05.05.7v.55l-.1 1.45-.1 1 1.75-.45 2.9-.95 2.85-.2q.95.2 2.05.95l1.9 1.4 2.45 1.4q.7.3.95.6l.35.7v.05l.1.1v.05l.05.1v.15l.05.05v.4l.05.1v.15l-.05.1v8.35l-.05.05v.8l-.05.1v.9l-.05.1v.3l-.05.1v.45l-.05.1v.3l-.05.05v.25l-.05.1v.35l-.05.1v.15l-.05.1v.15l-.05.05v.1l-.05.1.05.05.05.05.05.1.05.05.05.1.05.05.05.1.05.1.05.05v.15l.05.1v.4l-.05.05v.1l-.05.05-.05.1v.05l-.05.1-.05.1-.05.05-.05.1-.05.05-.1.1-.1.05-.1.1-.15.05-.15.1h-.05l-.1.05h-.1l-.25.05h-.4l-2.4-.05h-.35L67.25 38h-46.5L14 37.95H8.95l-.9.05h-.9l-.75.05h-.75l-3.15.05h-.85l-.1-.05-.2-.05-.15-.1-.15-.05-.1-.1-.1-.05-.1-.1-.05-.05-.1-.1-.05-.05v-.1l-.05-.1-.05-.05v-.1L.4 37v-.25l-.05-.1v-1.7l.05-.05v-.35l.05-.05v-.1l.05-.05v-.1l.05-.1V33l.05-.1v-1.05l.05-.1v-.1l.05-.05v-.1l.05-.05v-.5l.05-.05v-.1l.05-.05v-.85l.05-.1v-.25l.05-.05v-.15l.05-.1v-.45l.05-.1V28l.05-.1v-1.6l-.05-.1v-.25L1 25.9v-.95l.05-.1v-1l.05-.05v-.4l.05-.1V23l.05-.1v-.15l.05-.05v-.25q-.5-.15-.85-.5-.4-.45-.4-1.1-.05-.65.35-1.1.45-.5 1.55-.8l1.65-.5q-.25-1 0-1.45.3-.75.95-.6.35.1.55.8l.3.9 1-.1q-.15-.75 0-1.9l.25-3.25.1-.35q.2-.3.45-.3.3 0 .35.2l.2.35q.3 1.05.4 3.15l.05 1.25.2.6 1-1.75.55-.05q.25.2.15.7l-.45 1.9 3.5 1.15 1.6.5h.2l.35.6 1.7 1.65.05.05 1.85 1.6.8.55h1.05q1.4-.2 1.95-.7.5-.4.5-1l-.05-.25v-.35l.15-.5.1-.3.05-.7.15-.65.2-.7q0-.55-.35-1l-.9-.7q.85-.15 2 .45l.05.05.65 2.75.3 1.9.25 2.6-.25.05-2.35.85-.8.65-.15.2-.3.55.25.4.55-.05h.55l-.35.3q1.15 0 2.1.7l.9.7-.1.35.05.65h-.05l-.15.1-.1.05-.1.1-.05.1-.1.05-.1.1-.15.05-.15.1-.15.05-.1.1-.05.05h-.5l-.15-.05-.1-.1-.1-.05-.1-.1-.15-.05-.15-.1-.1-.05-.1-.1-.1-.1-.2-.05h-.1l-.2.05-.1.05-.05.1-.1.05-.05.1v.3l.05.05.05.1.05.1.1.05.15.1.15.05h.05l.1.05.1.1.1.05.1.1.1.1.15.05.1.05.1.05.15.1v.05l.1.1.05.05.15.1.05.1.05.05.05.1.05.05.1.1.1.05.1.1.15.1.15.05h.4l.15-.05.15-.05.8-.25 2.1-.95.85-.4.8-.15 2.75-.35h.55q-.15.9.3 1.55l.25.3.5.25.35.15.5-.05q.75-.2 1.05-1l.05-.1.1.7 1.6-1.1 1.65-1q.85-.2 2.05 0l3.8.95.9.2 1.15.2.75-.6.65-.35.8-.25.45-.2.15-.35-.3-.25h-.45l-.95.35-.8.2-.85-.5-.6-.8-1.1-.95-.8-.35-1-.1q.05-.5.45-1.15l.45-.9.3-.45.25-.05q.75 0 .9-.4v-.4l-.6-.45q-1.35-.7-2.75-.5l.1-1.25v-.95l.05-.55v-2h.35l.95.3.05.05.8.25 1.1.3.05.4.35.55.5.55.35.3.55.1 1.25-.3 2.4-1.1.6-.65v-.55l.2-.7zm-4.65 2.75.4-.5 1.05-1.45 1-1.05.2-.35.25.05-.55 1.35-.05.1q-.4.75-.4 1.25l-.05.35-.3.25-1.25.55-.2.05-.1-.2zm4.95 6.3 1.35.2 1.05.15-.55.3-.25.2v.4l1 .25.65-.15.3-.3q.6-.75.05-1.55l-.55-.4-.85-.3-3.2-.3-.65.05-.5.1-.95.3-1.1.7-.25.25-.15.4q-.1.7.05.95l.45.5.6.25 1.05.15.2-.05 1.4-.1q.7-.1.85-.5-.5-.55-1.45-.55h-.7l1.45-.5zm-35.85-6.6.55-.2.25-.1 2.85.55.4.05.2.4v.35l-.05.3v.6l-.6.4-.45.1-.35-.2-1.55-1.2-.2-.15-.15-.1-.5-.4zm3.2 11.3.25-.6.1-.7q.25-.9-.4-1.55l-.35-.25-.9-.5-1.25-.1-1.3.1q-.75.15-1.65.75l-.3.25-.35.5q-.45.9-.15 1.7l.6.6 1.2.55.85.15h1.4l1.05-.15.6-.35zm-4.05-.95 1.9-.3.7-.65.1.05.55.3-.4.4-.05.05-1.2.3-1.3-.1z"/></g></svg>