<svg xmlns="http://www.w3.org/2000/svg" xmlns:ffdec="https://www.free-decompiler.com/flash" ffdec:objectType="shape" width="73.1" height="43.8"><g fill-rule="evenodd"><path fill="#999" d="M36.4 42.3q-.65.5-1.6.4-1.3-.15-1.75-1.25H31.8l-.7.05h-1.6l-2.75.05-1.05.05h-1.5l-1.25.05h-2.1l-1-.05h-.65l-.15-.05H14.6l-.3-.05H3.55l-.4-.05-.1-.05H2.2l-.2-.05h-.4v-.05h-.55l-.15-.05-.15-.05-.1-.05-.1-.05-.1-.05-.1-.05-.05-.1-.1-.1-.05-.05-.05-.05v-.1l-.05-.05v-.05L0 40.45v-.7l.05-.05v-.05l.05-.1v-4.4l.05-.1V20l.05-.05V15.9l-.05-.05v-7.5L.2 8.3V3.35l.05-.05v-.45L.3 2.8v-.15l.05-.05v-.2l-.1-.1-.05-.05v-.1L.15 2.1v-.05L.1 2v-.1l-.05-.1v-.15L0 1.6v-.3l.05-.05v-.2L.1 1V.9L.15.8.2.75V.7L.25.65V.6L.3.55l.05-.1L.4.4.45.35.55.3.6.25.65.2l.1-.1L.9.05h38.3l.4.05h.5l.2.05h.1l.1.05h.35L41 .05h2.8q-.75.15-1.65.85-2.3 1.85-2.8 4.9l-.1 2.25q.1 2.2.55 3.45l.85 1.8.75 1.3h-.5l-.85.1-.75.35-1.4 1.25q-1.1 1.35-1.1 3.05 0 1.8 1.35 2.9l.75.45q1.1.55 2.1.55-.05 1.95.5 4 .5 1.7 1.1 2.95l.5.95q-1.1.2-2.2.85-2.25 1.25-3.6 3.65-1.3 2.4-1.25 5 0 1 .3 1.6zM44.75.05h.2L44.9.1zm-13 12.65 1.1-.75.45-1.25-.2-1.1q-.4-.7-1.35-.95L30.6 8.5q-1.1.15-1.6 1.25-.4 1 .25 1.95l.55.6.8.45zm5.5-1.7-1.05-.15-1.3.1-.4.25q-.7.5-1.05 1.3t-.25 1.6l.1.45q.2.5.75 1.05.5.45.95.55l.5.1q1.4.1 2.2-.5t1.05-1.55l.05-1.4-.55-1.05z"/><path fill="#fff" d="m43.8.05.35-.05.6.05.15.05.35.15.65.8q.3.8-.35 1.7l-1 1.5q-.3.6-.5 1.95L44 7.95q.05 1.6 1.2 3.45l2.25 2.95 1.05 1.5q.25.65-.05 1.4-.25.75-.85 1.15v.05l-.05.05-.9 1.6q-.9 1.5-.75 3.55.1 1.45.85 3.55l.55 1.25.8 1.35q.5 1.2-.25 2.35l-.65.65q.15.65-.4 1.35l-.8.6-1 .4q-1.8.75-2.8 2.1-1.1 1.5-1.1 3.3l.05 1q-.05.85-.7 1.5-.6.65-1.45.75-.8.1-1.6-.35-.75-.45-1-1.15l-.05-.05q-.3-.6-.3-1.6-.05-2.6 1.25-5 1.35-2.4 3.6-3.65 1.1-.65 2.2-.85l-.5-.95q-.6-1.25-1.1-2.95-.55-2.05-.5-4-1 0-2.1-.55l-.75-.45q-1.35-1.1-1.35-2.9 0-1.7 1.1-3.05l1.4-1.25.75-.35.85-.1h.5l-.75-1.3-.85-1.8q-.45-1.25-.55-3.45l.1-2.25q.5-3.05 2.8-4.9.9-.7 1.65-.85M37.25 11l1 .75.55 1.05-.05 1.4q-.25.95-1.05 1.55t-2.2.5l-.5-.1q-.45-.1-.95-.55-.55-.55-.75-1.05l-.1-.45q-.1-.8.25-1.6t1.05-1.3l.4-.25 1.3-.1zm-5.5 1.7-1.15.05-.8-.45-.55-.6q-.65-.95-.25-1.95.5-1.1 1.6-1.25l1.15.15q.95.25 1.35.95l.2 1.1-.45 1.25z"/><path d="M8.85 27.25q-1.8-2.2-2.5-4.9-.5-1.65-.5-3.45l.2-2.1-.7-.6-1.7-2.25-1.1-1.35q-.35-.75-.1-1.6t.95-1.3l2-.8 1.3-.45 1.9-.35 2.1-.1 1.35-1q2.3-1.55 4.6-2.05l4.2-.15 2 .3.2-.15q1.65-.8 4.65-1.55l1.35-.2q.8-.1 1.5.45.7.5.8 1.35l-.1 1q-.3 1.7-.45 5.15l-.05.4q.7 1.35 1.05 3.2l.35 2.95 1.05.3q1.9.85 2.65 3.05.7 1.7.5 4.05-.25 4.35-2.55 7.35l-1.6 1.75-2.5 1.95q-1.85.95-4.1.45l.6 3.9.1 1H11.75v-.6l.2-2.8q-.75 1.2-1.15 2.15l-.5 1.25H5.95q-.3-.7-.15-1.4t.95-1.8l3.05-4 2.7-3.15.55-.5q-2.45-1.25-4.2-3.4m.75-10.3q-1.15.6-1.6 1.7L7.8 20l.1 1 .25.5q.9 1.35 2.4 1.6 1.65.35 2.75-.8l.1-.2q1.05-1.05.9-2.55-.1-1.4-1.25-2.4-.35-.3-.85-.45l-1.15-.1-.75.05zm5.6 9.2.15-.05q1.75-1.6 4.2-2.15l.95-.1.95.05.75.15.65-.6q.45-.75.05-1.45l-.9-.75-1.15-.2-.6.05-.1-.9q-.45-.9-1.35-.75-.95.15-1.1 1.1l.05.7.1.35h-.15q-1.6.6-3 2.75l-.2.4-.1.7q0 .3.15.45zm7.65-8.1.75 1.15.6.65q.65.5 1.55.6l1.3-.1.05-.15.35-.6.75-1.1.6-.45.4-.25.4-.1v-.1l.1-.55q.05-.85-.6-1.9l-.35-.5q-1-1.15-2.7-1.05-1.15.1-1.85.6-.75.6-1.05 1.4-.35.75-.35 1.7zm5.4 9.9q-1.7 1.75-3.8 2.75l.1.3 1.25.7 1.2.25 1.55-.95 1.55-1.65q.95-1.25 1.2-2.95l-1.4-.45z"/><path fill="#fff" d="m22.85 18.05-.05-.75q0-.95.35-1.7.3-.8 1.05-1.4.7-.5 1.85-.6 1.7-.1 2.7 1.05l.35.5q.65 1.05.6 1.9l-.1.55v.1l-.4.1-.4.25-.6.45-.75 1.1-.35.6-.05.15-1.3.1q-.9-.1-1.55-.6l-.6-.65zm-7.65 8.1-.65-.25q-.15-.15-.15-.45l.1-.7.2-.4q1.4-2.15 3-2.75h.15l-.1-.35-.05-.7q.15-.95 1.1-1.1.9-.15 1.35.75l.1.9.6-.05 1.15.2.9.75q.4.7-.05 1.45l-.65.6-.75-.15-.95-.05-.95.1q-2.45.55-4.2 2.15zm-5.6-9.2.7-.3.75-.05 1.15.1q.5.15.85.45 1.15 1 1.25 2.4.15 1.5-.9 2.55l-.1.2q-1.1 1.15-2.75.8-1.5-.25-2.4-1.6L7.9 21l-.1-1 .2-1.35q.45-1.1 1.6-1.7M62.4 10.5l-.45.2-3.05 1-2.4.75-8.75 2.8-1.15-.05q-.35-.35-.05-.8l1.35-.75 1.1-.55q3.2-1.1 7.45-2.2l4.85-1.1zm-1.7 1.95 3.25-.9.95.7-3.7 1-5.25 1.55-.7.25-5.85 1.8-.85-.45-.65-.3.25-.3.8-.35 6.55-1.65 1.15-.3zm9.7 7.6-.35 1.45-5.85 5.7-.15.05-2.6 2.4q-2.95 2.65-4.3 4.3l-.45.45-.05-.5-.05-.35v-.65l-.05-.25v-.2l1-.95 1.8-1.65.95-.8 1.65-1.35.4-.35.65-.55 1.95-1.65 3.7-3.35 1.7-1.7zm-9.05-.9.35-.1h.2L62 19l.55.1q.85.3.95 1.25l-.1.8-.55.65-1.6.05q-.8-.45-.75-1.35 0-.9.85-1.35m-6.2 0-.4-.45q-.5-.75-.1-1.6.3-.65 1-.9l1.3.15.65.65.2.9-.3.85-.7.6-.45.1-.3-.1-.3-.1zm3.3.65.05-.1.3-.25.35.1v.4l-.55-.15zm.7.85-.1.35h.05l.4.45q.1.35-.2.5l-.6-.2-.75-.3v-.2l.15-.05.7-.35.25-.2z"/><path fill="#999" d="m58.9 11.7.4.1.65.2q.4.15.75.45l-4.05 1.05-1.15.3q.25-.65.85-1.2l.15-.15zm2.3 1.55.2.6v.65l.8.55 1.15 1.1.15-.1 1.35.05.85.25q.7.45 1.05 1.3l-.5.25-.9.35-.2.1-.1.2.2.2h.8l.9-.2-.1 1.2-.15.6-.7.95-1.45.85-1.15.1-.55.55-1.35.95-1.95.55q.5 1 .6 1.7l.05.9.95.25.8.55-1.65 1.35-.6.15-.35.65-1.8 1.65-.5.2-.45.2-.1-.2q-.15-.15-.3-.15l-.15.2-.1.35-2.6.1q-2.05-.35-3.15-1.95-.65-.9-.75-2.15-.15-1.15.2-2.25.65-2.05 2.6-3.7.75-.7 1.55-1l-.2-.55q-.25-1 0-2 .3-1.8 1.7-3l-.05-.55.7-.25zm.15 5.9q-.85.45-.85 1.35-.05.9.75 1.35l1.6-.05.55-.65.1-.8q-.1-.95-.95-1.25L62 19l-.1.05h-.2zM63 26.8q.05-.9.35-1.3.35-.4.95-.45l.65.1zm-6.65-7.35.45-.1.7-.6.3-.85-.2-.9-.65-.65-1.3-.15q-.7.25-1 .9-.4.85.1 1.6l.4.45-.2-.05-.5.15q-.15.25-.05.5l.05.15.3.25 1.7.95.1.05-.05.35.05 1.45.1 1.4.1 2.4-.05.5.3.5.15-.05v-.25q-.05-.1.05-.25l.1-.35v-.65l.25-.8.1-.45.3-3.5.75.3.6.2q.3-.15.2-.5l-.4-.45h-.05l.1-.35.4-.2.05-.45-.25-.1-.1.05h-.1v-.4l-.35-.1-.3.25-.05.1-1.55-.15-.2-.1zm7.85 7.75-.1.7-.35.75-.75.8-.85.2h-.7l2.6-2.4z"/><path d="M63.95 11.55 62.4 10.5l-1.1-.7-.1-.05-1.65-.85-.65-.15-.6.1-1.45.45Q53.8 10.45 49 13.1l-1.1.55-1.35.75-.95.5 2.3 1.2.65.3.85.45 1.8.8.8.4.5.3.05.25-.2.25-.35-.1-.6.05-.6-.15-4.3-1.5-1.5-.65.1 1.4q.85 6.3 2.3 12.6l.3.75q.15.2.65.4l5.8 2.8 1 .35-.05-.2.35-1.35.15-.3.15-.5.15-.15.05-.2.1-.35.15-.2q.15 0 .3.15l.1.2v.05l-.05.5v.2l.05.25v.65l.05.35.05.5v.25l4.65-1.45 4.8-1.45.7-.35.4-.5q1-2.1 1.65-4.55l1.15-4.85.35-1.45.4-1.65.15-.7-.25.05-1.9.35-1.85.45-.9.2h-.8l-.2-.2.1-.2.2-.1.9-.35.5-.25.85-.35.6-.15 1.65-.6.5-.2-.4-.3-4.2-3.15-.85-.65zm-20.75 2.6.9-.7 2.75-1.35q5.1-2.65 7.75-3.7l3.25-1.25 1.45-.35 1.05.2q1.15.35 2 .85l1.85 1.4 3.35 2.55 2.75 1.65q1.5 1.05 2.25 2.15l.5 1.15-.15 2-1.7 6.65q-1.05 3.75-2.25 6.4l-.7 1q-.2.25-.95.5l-10.65 3.3-1.4.25-1.35-.4-4.15-1.95-2.85-1.3q-.75-.35-.95-.65l-.5-1.15-1.05-5q-.55-2.8-1.15-7.4l-.35-3.3q-.05-1.1.3-1.55m13.15 5.3.35.1.2.1 1.55.15h.15l.55.15h.1l.1-.05.25.1-.05.45-.4.2h-.1l-.25.2-.7.35-.15.05v.2l-.3 3.5-.1.45-.25.8v.65l-.1.35q-.1.15-.05.25v.25l-.15.05-.3-.5.05-.5-.1-2.4-.1-1.4-.05-1.45.05-.35-.1-.05-1.7-.95-.3-.25-.05-.15q-.1-.25.05-.5l.5-.15.2.05.6.1.3.1z"/></g></svg>