<svg xmlns="http://www.w3.org/2000/svg" xmlns:ffdec="https://www.free-decompiler.com/flash" ffdec:objectType="shape" width="75.1" height="39.95"><g fill-rule="evenodd"><path fill="#999" d="M62.55 15.65q-.5 1.6-2.05 2.25l-3.05-.15-1.6-1.1q-1.05-.7-1.85-.6-.7.1-1.7 1l-2.05 2.05-.65.6q-.5.3-.85 0-.4-.3-.05-1.1.7-2.3 1.4-3.3l.75-.85q.8-.85 1.45-1.2 1.35-.8 3.15-.55 1.2.15 3 1 .75-1.2 2.1-1.1 1.4.1 1.95 1.4.35.8.05 1.65m11.15 2.3 1.4 1.4V25q-3.1-.15-5.1-2.55-.55-.8-1.1-.9-.4-.05-1.05.35l-1.9 1.5L64 24.8q-1.05.55-2.2.6l-1.3.9-3.05-.15-1.6-1.1q-1.05-.7-1.85-.6-.3.05-.7.25h.35q1 .05 2.2 1.2l1.1 1.05 1 .65.65-.1q.75-.05 1.4.35.6.4.85 1.1l.15.65.9-.1.85-.95q1.35-2.1 2.9-3.2 2-1.35 4.15-1.15 2.25.2 3.9 2.15l1.4 1.4v5.65q-3.1-.15-5.1-2.55-.55-.8-1.1-.9-.4-.05-1.05.35l-1.9 1.5L64 33.2l-4.75.25q-2.05-.65-3.75-2.4l-.35-.3-.35-.4-.25-.1q-.4-.05-.85.3-2.4 1.7-3.5 2.65-.7.55-1.1.4-.75-.25-.3-1.5.9-2.7 3.3-4.25l-.2.05-1.65.2-.85.15-.75-.2q-.15-.2-.15-.5 0-.45.3-.8l.5-1.5-.2-.05q-.75-.25-.3-1.5 1.15-3.35 4.5-4.95 1.8-.8 3.25-.4.8.25 2.15 1.5.9.8 1.65 1.15h.2l.95.25.4-.15.85-.95q1.35-2.1 2.9-3.2 2-1.35 4.15-1.15 2.25.2 3.9 2.15m-68.9.3Q4 14.1 5.75 9.7l.3-.7q-.1-3.15.95-6.45l.75-1.5q.55-.8 1.35-1l1.35.05 1.45.2q1.95.45 3.45 1.5l1.7-.45q3.55-.65 7.1.7 1.4.55 2.65 1.35l1.7-.4 2.6-.15q1.55.3 2 1.45l.15 1.1-.4 6.35.15.75.1.2.15.95q.35 2.6-.25 5.15l-.15 1.35.15.75.4 2.75 6.2-.65q-.15-1.45.55-2.8.8-1.4 2.1-1.95l2.9-.15q1.6.5 2.25 1.8.65 1.05.55 3-.15 1.95-.75 3.1l-.75 1.15.95 1.15q.65 1.05.55 3-.15 1.95-.75 3.1-.8 1.65-2.35 2.1l-2.7.05-4.6.15-13.7.9-3.6.2.05.65.15 1.5H3.5l1-1.05-.15.05q-.9.25-1.5.65l-.5.35H0v-5l1.75-.7q.4-1.05 1.4-2.3L4.5 30.5l-.15.05q-.9.25-1.5.65L1.2 32.3l-1.2.25V26.6q2.3-1 4.6-1.55-.2-2.65.55-5.35zM50.25 36.5l-.85.15-.75-.2q-.15-.2-.15-.5 0-.45.3-.85l.6-.5q1.25-.75 2.8-1.25.9-.3 1.45-.25 1 .05 2.2 1.2l1.3 1.2.55.45.9-.05q.75-.05 1.4.35.6.4.85 1.1.25.65 0 1.4l-.85 1.1-.15.1h-3.5l-.6-.35-.6-.45q-.8-.8-1.25-1.8l-.4-.75-.75-.45-.85.15zm-12.7-8.2-5 .35q-.5 1.45-1.35 2.55L30 32.5l9.6-1.1q-.15-1.45.55-2.8l.3-.45z"/><path d="M61.45 19.8q-.5 1.6-2 2.25l-3-.15-1.55-1.1q-1-.7-1.8-.6-.65.1-1.65 1l-2 2.05-.6.6q-.5.3-.85 0-.4-.3-.05-1.1.7-2.3 1.35-3.3l.75-.85 1.4-1.2q1.3-.8 3.05-.55 1.2.15 2.95 1 .7-1.2 2.05-1.1t1.9 1.4q.3.8.05 1.65m10.8 2.3 1.5 1.45 1.35.2V29l-1.3.15q-3.15-.1-5.15-2.55-.5-.8-1.05-.9l-1 .35q-.55.35-1.85 1.5l-1.9 1.4q-2.15 1.1-4.65.25-2.15-.7-3.9-2.7l-.65-.5q-.4-.05-.85.3-2.3 1.7-3.4 2.65-.65.55-1.05.4-.75-.25-.3-1.5 1.1-3.35 4.4-4.95 1.75-.8 3.15-.4.75.25 2.1 1.5 1.25 1.15 2.15 1.35l.95-.1.8-.95q1.35-2.1 2.85-3.2 1.95-1.35 4.05-1.15 2.15.2 3.75 2.15m-67 .3q-.8-4.15.9-8.55l.3-.7Q6.35 10 7.4 6.7l.7-1.5q.55-.8 1.35-1l1.3.05 1.4.2q1.9.45 3.35 1.5l1.65-.45q3.45-.65 6.9.7 1.4.55 2.6 1.35l1.65-.4L30.85 7q1.5.3 1.95 1.45l.1 1.1-.35 6.35.15.75q.75 3.55-.2 6.95-.55 1.95-1.55 3.35l-1.2 1.3 9.35-1.1q-.15-1.45.55-2.8.75-1.4 2.05-1.95l2.8-.15q1.55.5 2.2 1.8.6 1.05.5 3t-.7 3.1q-.8 1.65-2.3 2.1l-2.6.05-4.5.15-13.3.9-3.5.2.05.65.1 1.9.2 1.95q.1 1.05-.35 1.9H2.25l-.1-.3q-.15-1.5 1.5-3.55l1.3-1.45-.15.05q-.85.25-1.45.65l-1.6 1.1-1.35.25v-5.9q4.05-1.9 8.3-2.1-2.7-2.4-3.45-6.3m44.2 9.85-.8.15q-.45.1-.75-.2l-.15-.5q0-.45.3-.85l.6-.5q1.2-.75 2.7-1.25l1.4-.25q1 .05 2.15 1.2l1.25 1.2.55.45.9-.05 1.35.35q.6.4.8 1.1.25.65 0 1.4l-.8 1.1-3.35.2-.8-.45-.55-.45q-.8-.8-1.25-1.8l-.4-.75q-.25-.45-.7-.45l-.85.15zm-34.25-9 1.1-.4q1.85-.9 2.4-2.4l.05-.1q-1.3-.35-2.1-1.05l-1.05-1.35q-.45-.65-.55-1.45 0-.5.15-1.05l.2-.7-2.25.25q-1.45.55-2.4 1.9-1.25 1.75-.55 3.5l.85 1.15 1.85 1.4zm9.2-.9.7.4q1.15.55 2.45.4 1.35-.15 2.25-.95 1.1-.9 1.35-2.4.2-1.4-.6-2.7l-.45-.6-.8-.75q-.75-.55-2.15-.65h-.25l-.05.1q-.6 3.45-3.55 4.95l-.25.15q.4 1.35 1.35 2.05"/><path fill="#fff" d="M24.4 22.35q-.95-.7-1.35-2.05l.25-.15q2.95-1.5 3.55-4.95l.05-.1h.25q1.4.1 2.15.65l.8.75.45.6q.8 1.3.6 2.7-.25 1.5-1.35 2.4-.9.8-2.25.95-1.3.15-2.45-.4zm-9.2.9-2.3-.3-1.85-1.4-.85-1.15q-.7-1.75.55-3.5.95-1.35 2.4-1.9l2.25-.25-.2.7q-.15.55-.15 1.05.1.8.55 1.45l1.05 1.35q.8.7 2.1 1.05l-.05.1q-.55 1.5-2.4 2.4z"/></g></svg>