<svg xmlns="http://www.w3.org/2000/svg" xmlns:ffdec="https://www.free-decompiler.com/flash" ffdec:objectType="shape" width="72.25" height="40.3"><g fill-rule="evenodd"><path fill="#999" d="m72 6.7.25 2.7-.05.45q-.3 1.5-.95 2.7l-.7 1.05q-.6.5-1.2.45-.65-.1-.95-.75-.25-.65.2-1.2l.4-.4 1.2-1.8.25-.85.25-1.6V6.6l-.05-.5.05-.4q.15-.2.4-.3l.45.2.3.6zm-4.8-3-.05-.25.05-.4-.1-.25v-.45q.1-.3.35-.3l.1-.05.5.4.4.55.4 1.3.35 2.6v.4l-.25 1.05-.65 1.1q-.45.4-1.1.2-.65-.15-.75-.8-.1-.4.1-1.1l.4-1.1.15-1.25.05-.35-.05-.45.1-.65zm-7.8 4.9q0-1.4.4-2 .2-.35.75-.75t1.2-.4q.7.05 1.2.65.5.55.65 1.3l.1 2.85.2 2 1.05 7.95.5 5.2q0 1-.3 1.35l-.6.35-.7-.15q-.55-.3-.65-1.55l-.3-2.6q-.2-2.3-.6-3.45l-.8-1.9-.7-2.05-.95-3.25q-.45-1.7-.45-3.55m6.8 9.9.45-.05.35.1.5.3.3.45.15.5v.3l.05.1v.1l-.1.3-.15.3-.45.35-.5.1-.4-.1-.4-.2-.65-.6-.05-.15v-.1l-.05-.1v-.35l.05-.35v-.1l.2-.3zM54.1 2.15l-.35.6-.4.8-.35.6-.3.95-.05.6v1.45l.3.8.25.5q.35.9-.35 1.55-.65.7-1.55.15-.4-.25-.65-.85-.3-.55-.25-1.15-.2-1.35.15-2.25l.15-.3v-.35q.05-.75.85-1.75l.75-.85.9-.6.5-.2q.35 0 .4.3m-5.45 7.6.15.6.3.85.55.85.4.45.3.9q-.1.75-.6 1.05l-1.2.2-.6-.35-.45-.4q-.45-.5-.65-1.65l-.25-1.6q-.05-1.15.15-2.2l.25-.8.4-.95.4-.6.15-.45.5-.4q.35-.1.5.25.15.25-.1.95-.15.35-.15 1l-.05.75zm11.65 12q-.4 0-.45.15l-.05.2-.15.85-.2.45q-.35.45-1.05.35l-.05-.05-.55-.25q-.35-.35-.6-1.45-.1-.85.05-1.2l.6-.85q.75-.75 1.25-.85l.35-.05.25-.15.45-.05.1-.05q.7 0 1.15.5.5.5.35 1.15t-.8 1.05zm-7.3 8.1.85-.35 1.8-1.65 1.5-1.8q.6-1 1.15-1.25l1.3.05q.6.45.6 1.15l-.2.9q-1 2.45-2.95 4.1-2.1 1.7-4.65 1.85l-3.6-.25-2.65-.7-2.7-.55-2.2.1q-.95.1-1.25-.35-.3-.35.1-.95.35-.35.9-.5l2.25-.5 1.85-.1 2.15.45 3.8.45zm11.8 1.65-.25.1q-.75.3-1.3-.25L63 31.1l-.1-.2-.05-.2v-.55l.15-.3.45-.6.85-.4.75-.25.45.05q.65.25.75.95v.2l-.05.2zm-27.75-6.2-.1-.45-.3-.95q-.2-.7-.1-2.25l.1-.75.15-.7.25-2.05.9-3.45.2-1.6q.2-1 .8-1.35l1.15-.1q.6.25.75.85.15.4-.1 1.3l-1.35 4.75q-.3 1-.3 1.6l-.05.95-.35.7-.1.65q-.1 1.3-.6 2.5l-.4.55q-.4.1-.55-.2m-17.9 9.9-2.35-.85-1-.8q-.45-.75.2-1.15l.85-.1 3.55.8 2.2.6q3.5.75 7.2-.45l1.8-.25q.5.05.75.5.3.7-.4 1.3-.65.65-2.1 1-4 1.05-8.05.15zm18.75.1-.2.5-.1.15-.75.4v.05h-.15l-.05.15-.25.3-.5.4-.3.1-1.05.1-.1-.05-1-.8-.05-.3q-.1-.55.15-1.1l.05-.2.25-.3.6-.5 1.15-.6.45-.1h.05l.05-.05.25.05h.35l.4.2.2.15.1.15.1.25.1.05.25.45z"/><path d="M60.1 4.8q-1.1-.2-1.9 1.1-.45.95-.2 2.35l.5 2.35.15 1.15L59 13l.9 2.7h.65l1.15.3q.6.3 1.05 1.35l.85 2.45-.4-3.45-1.15-8.65-.5-1.8q-.55-1-1.45-1.1M7.9 21.7q-1.4-1.65-1.8-3.5l-.2-1.85v-1.6q0-.95.45-2.35l.4-1.45-.2-.35-.35-.7-.45-1.3q-.35-1.2-.5-3-.25-1.25.1-1.85.4-.9 1.55-1.2l2.05-.05 2.65.3q1.8-1.45 4.05-2.2 4.1-1.3 8 .15l2.05.9 1.15.55 1.55-.3 1.9-.25q1.3 0 1.7.8.35.55.1 1.65l-.7 2.95.75 2.6q.55 3.5-.55 7.6l-.7 2-.8 1.4q-1.55 2.25-4.2 3.8l-2.5 1.25-1.7.65.15.2 1 .7q3.4 1.5 6.95 1.5l2.2-.25q0-.55.5-1.2l.75-.95-.1-.85-.45-9.1.4-3.8.25-1.7.6-1.4 1-1.15q.7-.6 1.35-.85l1.7-.15 1.9.3q1.05.45 1.8 1.4.8 1 1 2.35l-.05 2.7q-.65 4.95-2.4 9.55l-.7 1.35.55.35.55.65.3-.15q1.4-.8 2.6-.95l1.5.05q2.95.1 5.9 1.45l.4.15.45-.25.75-.95 1.75-2.5.6-.55-.3-2.1v-1.3q.05-1.1.4-1.5l1.15-.7q.65-.3 1.25-.45l-1.4-3.7-.3-1.8-.4-1.4q-.35-1.35-.15-3.2.15-1.15.4-1.65.25-.55.85-1.2.75-.7 1.2-.95 1.45-.8 2.9-.6 1.55.2 2.7 1.35.95.9 1.5 2.55l.5 2.95.95 6.9.35-.05 1.2-.05.5.3.55.45q.35.45.5 1.25l.35 2.05-.15 2.25-1 .9-1.05.5-.35.2.3 2.7.1.55.5.55q.6.6.7 1.6.05.95-.4 1.8-.75 1.35-2.7 2.35l-1.25.35-.95-.15q-1.7-.5-2.05-2l.05-1.3q0-.65.35-1.2l.25-.45-.05-.35-.4-1.2-.15.3q-.95 2.6-2.75 4.65l-1.55 1.4q-1 .7-2.7 1.3l-5.95.15-3.25-1.4q-2.3-.65-4.2.4l-.9.5-.5.15.15.75q.15.9-.35 2.1l-.8 1.1-1.3.75-2.1.3q-1.5 0-2.6-.8-.95-.7-1.3-1.8l-.55.2q-3.45 1.25-7.05 1.05-3.25-.2-6.05-1.65v.9l.2 1.2-.15 1.2q-.35.8-1.2 1-.85.1-1.35-.4h-.15l-1.4.1-5.4-.55-2.6-.35H2.8q-1.55-.05-2.6-.55l-.2-.1v-6l.35-.7q1.1-1.75 4.05-4.7l.5-.5h-.1l-2.25.3-1.1.65-1.15.4H0v-4.1q.65-.55 1.5-.8l.95-.25 4.2-.55 1.95.25zm59.1-.95.25-.15.05-.35-.4-2.5-.1-.35-.45-.2.4 3.65zm-3.6 6.2 1.05-.2-.65-5.4-.4.75-.95.4-.15.05zm-6-6.5.25 1.35.3.65 1.15.4-.05-.25-.05-.8.05-.25.65-.8 1.4-.65-.65-1.7-.7.05-2.4.75v.6l.1.3zm-.1 7.9q.75-1 1.2-2.45l.2-.35-.75-.25-1.3-.3h-.05l-1.25 1.8.35.75.4.6.35.25.7.2zm-3.6 2.85 1.55-.7.8-.65-.85-.55-.25-.25-.6-.95q-1.5 1.6-3.15 1.6v.95l.45 1.1zm-5.85-.45q1.1.6 1.8.8l-.1-.45.15-1v-.3l.2-.5-.5-.15q-1.75-.75-3.55-1l-.45 1.55v.4zm-4.7-.75h1.25l-.05-.75.25-1.3-1 .05q-1 .15-2.05.9v.1l.05.35.05.15v.25l.05.25-.05.35zm20.85.1.05.15.25-.05 1.35-1-.45-.2-1.05.4-.1.15q-.1.15-.05.55m-25.55-9.15.85-3.65.45-2.75.2-1.95q-.15-1.15-.7-1.75-.8-.8-1.75-.45-.6.15-1 .95l-.35 1.25q-.55 3.3-.1 9.9v2.15l1.8-.1zm-23.6-5.6.6-.85.15-.4q.15-1.05-.05-1.9-.35-1.1-1.2-1.45l-1.6-.2-.55.05-.7.25-.8.45-.6.95q-.55 1.2-.35 2.1.15.85.95 1.45.75.5 1.7.6h.55l1.35-.5zm2.45-.65q-.6 0-.7.55l-.25.75v.6l.05.3.25.65.25.35 1 .7 1.65.2.5-.05.4-.1.95-.4.6-.55.2-.25 1.05.35h.95l.65-.15 1.35-.8.3-.55.1-.45-.05-.25v-.5l-.2-.8-.25-.6q-.4-.75-1.2-.9l-.1.05q-.3 0-.5.35-.15.25-.05.6l.15.5.2 1.1-1.4-.05-1-.3h-.4q-.3-.05-.65.2l-.45.6-.5.6-.4.15q-.95.35-1.65-.25L18 16.2l.05-.35-.1-.8q-.2-.45-.65-.35M29 8.3l-.9.05-.35.1Q26.4 9 26 10.4q-.25.85-.05 1.5.2.9 1.3 1.45l2 .3.75-.1.75-.55.35-.35.4-.9q.25-1.15-.4-2.15l-.1-.25-.5-.55-.5-.35zM18.95 29.75l-.2.4 1.1.35zM17.9 33.5v.3l.75.35v-.3l.2-.9.05-.1v-.15l.15-.35v-.2l.05-.05-.8-.35zm3.2 1.35 1.3.25-.05-.1v-.4l-.1-.2.05-1.6-.85-.15-1.15-.2-.55 1.05v.2l-.05.35-.1.35-.05.1zm13.15.65q.2.6 1.35.55 1.1-.05 1.3-.65l-.15-1-.05-.15h-1.45l-.15.05zm-9.15-2.4-1.2-.1-.05.1-.05 1 .1.2-.05.25.1.7L27 35.1v-.05l-.05-.05v-.15l-.05-.3v-.3l-.05-.2v-.15l-.05-.05.05-.4zm4.9.7-1.95-.15V34l-.05.1-.05.65.05.15 3-1.05z"/><path fill="#fff" d="m29 8.3 1 .15.5.35.5.55.1.25q.65 1 .4 2.15l-.4.9-.35.35-.75.55-.75.1-2-.3q-1.1-.55-1.3-1.45-.2-.65.05-1.5.4-1.4 1.75-1.95l.35-.1zm-11.7 6.4q.45-.1.65.35l.1.8-.05.35.15.15q.7.6 1.65.25l.4-.15.5-.6.45-.6q.35-.25.65-.2h.4l1 .3 1.4.05-.2-1.1-.15-.5q-.1-.35.05-.6.2-.35.5-.35l.1-.05q.8.15 1.2.9l.25.6.2.8v.5l.05.25-.1.45-.3.55-1.35.8-.65.15h-.95l-1.05-.35-.2.25-.6.55-.95.4-.4.1-.5.05-1.65-.2-1-.7-.25-.35-.25-.65-.05-.3V16l.25-.75q.1-.55.7-.55m-2.45.65-.55.55-1.35.5h-.55q-.95-.1-1.7-.6-.8-.6-.95-1.45-.2-.9.35-2.1l.6-.95.8-.45.7-.25.55-.05 1.6.2q.85.35 1.2 1.45.2.85.05 1.9l-.15.4z"/></g></svg>