<svg xmlns="http://www.w3.org/2000/svg" xmlns:ffdec="https://www.free-decompiler.com/flash" ffdec:objectType="shape" width="76.55" height="36.3"><g fill-rule="evenodd"><path fill="#999" d="M49.9 5.25q.85-.4 1.85-.45 1.4-.1 2.2.6.45.35.6 1l.1.9.05-.1.05-.05.15-.05.1-.05.1-.1.1-.05.1-.05.15-.05h.15l.2-.05h.35l.35-.05h.7l.1-.05h.1l.25-.05h.45l.35-.05h.8l1.4-.05h4.95l.5-.05h2.5V6.4h4.75l1.2.05h.4l.15.05h.1l.2.1.1.05.1.05.1.05.05.05.1.05.05.1.1.05.05.05.05.05.05.05.05.1v.05l.05.05.05.05.05.05v.05l.05.1v.05l.05.05v.15l.05.1v.45l-.05.05v.1l-.05.1v.05l-.05.05v.05l-.05.05-.05.05v.15l.05.05.05.05v.1l.05.05v.05l.05.05v.05l.05.05v.15l.05.05v.7l-.05.05v.15l-.05.05v.05l-.05.05v.05l-.05.05v.1l-.05.05-.05.05-.05.05v.05l-.1.05-.05.1-.05.05-.05.05-.1.05-.05.05-.1.05-.1.1v.25l.05.05V27.2l.05.05v4.15l.05.1v2.25l.05.05v.3l.05.05v.8l-.05.05v.1l-.05.05v.15l-.05.05-.05.05v.05l-.05.05v.05l-.05.1-.05.05-.05.05-.05.05-.1.1-.1.1-.1.05-.05.05-.15.05-.15.05-.15.05h-.1v.05h-.45v-.05h-.1l-.15-.05-.15-.05-.1-.05h-.35l-.4.05h-2.1l-1.6-.05h-8.95l-4.55-.05h-1.55l-2-.05h-3l-1-.05h-1.4l-2.75-.05h-9.4l-1.1.05h-1.85l-.9.05h-.75l-1.25.05H26.8l-1.1.05H10.95l-1.35.1-.3-.1H4.4l-.35-.05h-.2l-.2-.05h-.2v.05h-.1l-.05.05h-.2l-.25.05-.3-.05H2.4l-.1-.05-.1-.05-.15-.05-.1-.05-.1-.05-.1-.05-.05-.05-.1-.1-.05-.05-.05-.05-.15-.15-.05-.1-.05-.05v-.05l-.1-.1v-.05l-.05-.1v-.05l-.05-.05v-.1L1 34.7v-2.35L.7 31.3q-.15-.85.3-2.2v-.35l.05-.05v-2.75l.05-.05v-.8q-.75-.9-.8-1.95l.1-1.6.35-1.8.4-1.15v-4.9l.05-.05v-.25l.05-.05v-.2H1v-.05l-.15-.05L.7 13l-.05-.05-.1-.05-.1-.1-.05-.1-.05-.05-.05-.05v-.1l-.05-.05v-.5l.05-.05v-.1l.05-.05.05-.1-.05-.1-.1-.1-.05-.05v-.05l-.05-.05-.05-.1v-.1l-.05-.05V11L0 10.95v-.6l.05-.05v-.05l.05-.1v-.1L.15 10l.05-.05V9.9l.05-.1.05-.05.05-.05.1-.1.1-.1.05-.05-.05-.05-.05-.05-.05-.1L.4 9.2l-.05-.05L.3 9.1v-.05L.25 9v-.1L.2 8.85V8.1l.05-.05L.3 8v-.05l.05-.1V7.8l.05-.05.15-.15.1-.1.05-.05.1-.05.1-.05.1-.05h.05l.1-.05H6l.3.05h.35l.15.05h.35l.4.05h.8l.2.05h.1l.15.05h1.65l.3.05h.15l.1.05h.15l.15.05.15.05.1.05.05.05.05.05.1.1V8l.05.05.05.05v.05l.05.05v.1l.05.05v.3l-.05.05v.05l-.05.05v.05l-.05.05V9l-.05.05-.05.05-.05.05-.1.05-.05.05-.15.1h-.1l-.1.05-.25.05h-.3l-.15.05h-.25l.05.05.05.05.1.1.05.1v.05l.05.05.05.05V10l.05.05v.15l.05.05v.05l.05.05v.55l-.05.05v.1l-.05.05v.1l-.05.05v.05l-.05.05v.05l-.05.05-.05.1.05.1v.05l.05.05v.15l.05.1v.4l-.05.05v.15l-.05.1v.05l-.05.05v.05l-.05.05-.05.05v.1l-.05.05-.05.05-.05.05-.1.05-.05.05-.1.1-.05.05-.1.05-.15.05-.1.05h-.1l-.1.05H9v.05h-.85v-.05l-.8.9q-2 1.75-2.8 4.1v4l.15.1 2.15 1.3 1.6.75 3-.2 1.1-.25h-.2l-2.25-.05q-1.9-.2-2.55-1-.7-.95-.1-3.2l.75-1.85q.55-.8 1.8-1.6l2.3-1.6 1.1-1q.3-.6.25-2l.1-1.6 1.75-.35 2.3-.65-.25.8-.3 1.65-.15.7-.1.55-.15.4-.15.5q-.1.5.6.5l.45-.45.25-.65.25-.95.3-.7.35-.45.4-.65 1-2.05.35-.2.1-.1L22.3 9.9l1.1 1 .5.6.75.35-.6.95q-.5.45-1.8.9-1.25.4-1.75.85-.55.5-.8 1.5l-.3 1.8-.85 2.9q-.45 1.2-1.15 1.7-.75.6-1.65.45h-.85l-.5.5-1.2.75.6-.15 2.3-.25q1.4.3 1.65 1.45l-.1.95.85.75 1.1.35q1.6.45 3.9 2.45 2.5 2.2 3.75 2.75l1.15.7h.05l1.25.05h.95l.8.05q.45-.45 1.4-.8l5.05-1.85 2.8-1-1 .15-1 .1-1.3-.3h-.05l-1.25.65-2.9 1.5-1.65.1q-.8-.2-1.3-.7-.75-.15-1.95-1.05l-2.15-1.6-.75-.5q-.65.8-1.6.7-.95 0-1.65-.85-.7-.9-.25-3.4l1.05-4.9q.3-1.5.75-2.1.55-.9 2.3-1.8l5-2.35q1.7-.7 2.6-.7 1.05 0 2.95.9l3.55 1.8-1.25.45-7.9 3.2q-.75.5-.95 1.05l-.05.7.45.55.85.1q1.35-.2 3.6-1.2l5.7-2.1 4.05-1.1.35 1.25 2.05 4.7q.4 1 .9 1.65v.35q.4.5.4 1.25v.45l1.6-.7q-.4-.8-.1-1.7t1.1-1.3l2.35-.15q.65.1 2.7.75l-.1-.05-.7-.4-1.2-.2-.7-.4-.75.1q-1.05.15-2.05-.75l-1.2-1.85-.3-.75q-.6-.65-.45-1.4.05-.75 1.1-1.9l2.45-2.6.8-.75q.75-.55 2.15-.55l2.2.15 3.25-.05.9.1 1.95-.05 1.4.05-4.5 1.35-.85.3-1.1.65-.6.5-.2.85.05.35.4.15 1-.05 1.15-.45 1.1-.2 1.15-.25 1.1-.35 2.6-.7.8-.25.1.25 1.05 3.15.35 1.25.5 1 .3 1.2q.1.75-.35 1.2-.5.5-1.2.35-.6-.05-1-.65l-.7.2-2.4 1.3q-1.55.75-2.65.4l-.85-.35-.75-.15h-.7l-.75.3-1.15.15.75.25q2.5.75 4.1.7l2.45-.35q.7-.55 1.45-.8l2.05-.35 2.6-1.05 2-1.2.9-.95v-1l-.7-.35q-.55-.45-.85-1.65l-1.7-5.2-.05-.25h-.15l-.1-.05h-.15l-.25-.05h-.7l-.55-.05h-.35l-.1-.05h-.15l-.1-.05h-.25v-.05h-.2l-.1-.05h-.15l-.1-.05h-.15l-.3-.05h-.1l-.15-.05H65v-.05l-.1-.05-.15-.05-.1-.05-.05-.05-.1-.1-.05-.1-.05-.05v-.05l-.05-.05V9.8h-2.1l-1.6-.05h-1.6l-.6-.05h-.8l-.25-.05h-.05l-.15-.05h-.25l-.7-.05h-.15l-.1.05h-.85L55 9.55l-.15-.05-.15-.05-.1-.1-.05-.05-.1-.05-.05-.05-.05-.05-.05-.05-.05-.1-.05-.05V8.9l-.05-.05V8.8l-.05-.05v-.2l-.05-.05q-.45.55-1.2.7l-1.25.25-1.15.7Q49 11.1 45.5 11.3q-3.25.1-4.65-.6-.95-.6-1.5-.8l-1.3-.1-.7.05q-.8-.1-1-1-.15-.75.35-1.4.6-1 1.85-1.4l.4-.1.8.2 1.05.15.5.25 1.3.45 1.25.4 1.35.7 1.5.1 1.1-1.15.7-.6zm-25 3.65v-.2l.05-.05.05-.05v-.05l.05-.1.05-.05v-.05l.05-.05.1-.05.05-.05.05-.1h-.4l-.15-.05-.1-.05-.1-.05-.05-.1-.05-.05-.05-.05-.05-.05-.05-.05V7.5l-.05-.05v-.4l.05-.05v-.05l.05-.1V6.8l.05-.05.05-.05.05-.05.1-.05.1-.1h.05l.1-.05h.25l.25-.05.2-.05h2.2l.1-.05h.15l.05-.05h.25l.7-.05h3.45l.15.05h.2l.25.05h.15l.1.05h.1l.15.05.1.05.1.05.15.05.1.05.05.05.1.05.05.1.05.05.1.05.1.05.1.05.05.05.05.1.05.05v.1l-.05.05-.05.05-.05.1-.1.05-.1.05-.1.05-.05.05-.05.05-.1.1-.05.05-.1.05-.15.05-.05.05-.15.05h-.1l-.15.05-.05.05.05.1v.05l.05.05.05.05.05.05v.05l.05.1v.05l.05.05v.1l.05.05v.6l-.05.05v.05l-.05.1v.1l-.05.05-.05.05v.05l-.05.1-.05.05-.05.05-.05.05-.05.05-.05.05-.05.1-.1.05-.1.05-.1.05-.15.05-.1.05h-.05l-.05.05v.05l-.05.05v.05l-.05.05-.05.05-.05.05-.05.1-.05.05-.1.05-.05.05-.1.05-.1.1-.1.05-.1.05-.1.05h-.15l-.1.05-.15.05-.1.05-.35.05H28l-.2-.05-.25-.05H26.3l-.15-.05-.15-.05-.1-.05-.1-.05-.05-.05v-.05l-.1-.6-.3-1.1zM57.65 30q0-.8-.9-1l-1.45.1-2 .45q-.8.25-.9.35-.4.25-.55.8-.1.55.15.95l.8.6.95-.1.55-.3q.3-.2.95-.3l1.25-.4q1.15-.4 1.15-1.15m.55 2.9-.4.25h.5z"/><path fill="#fff" d="M13.75 10.45h-.3l-.2.05-.6-.25-.1-.65.55-.65.6-.35 5-1.8.3-.4q.1-.8.9-1 .75-.15 1.15.45.6-.3 1.1.2L23.6 7.7l1.2 1.1.1.1.45.75.3 1.1.1.6-.05.05q-.15.4-.65.4l-.4.05-.75-.35-.5-.6-1.1-1-1.55-1.55-.1.1-.35.2-1 2.05-.4.65-.35.45-.3.7-.25.95-.25.65-.45.45q-.7 0-.6-.5l.15-.5.15-.4.1-.55.15-.7.3-1.65.25-.8-2.3.65zm26.35 4.8q2.8-1.05 3.9-1.35h.1l.05-.25.25-.55q.2-.25.5-.3l.6.15.4.45.3.45q.7.25.8.95v.75l.25.85.6 1.9.5 2.45.15.85.25 1.95-.2 1.55-.65-.6q-.5-.65-.9-1.65l-2.05-4.7-.35-1.25-4.05 1.1-5.7 2.1q-2.25 1-3.6 1.2l-.85-.1-.45-.55.05-.7q.2-.55.95-1.05l7.9-3.2zm24.6-3.1 1.9-.5 1.9-.05.4.4-.05.65-.4.45-1.65.95-.8.25-2.6.7-1.1.35-1.15.25-1.1.2-1.15.45-1 .05-.4-.15-.05-.35.2-.85.6-.5 1.1-.65.85-.3zm-25.75-6.2-.2-.1-.45-.4-.4-.1q-.4-.25-.15-.7.2-.35.7-.35l.8.1 1.25.2 2.5.5q1.9.4 2.8.75l.35.1.4-.2q1.6-1.2 3.5-2.1l1.15-.4q.3 0 .35.15l-.1.25-1.4 1.4-.15.2-1.4 1.2-.7.6-1.1 1.15-1.5-.1-1.35-.7L42.6 7l-1.3-.45-.5-.25-1.05-.15zM57.65 30q0 .75-1.15 1.15l-1.25.4q-.65.1-.95.3l-.55.3-.95.1-.8-.6q-.25-.4-.15-.95.15-.55.55-.8.1-.1.9-.35l2-.45 1.45-.1q.9.2.9 1"/><path d="m54.7 21.15 1.9 1.15 5.3-.25q5.05-1.35 8.05-2-1-3.8-2.65-7.5l-1.2.35-1.25.2-2.05.6-4.45 1.45-.3.85-.15.85-.3 1.2v.1l-.05.35-.25.05-.05-.15v-.3l-.05-.05-.25-2.95q-.1-.95.35-1.3l.45-.2 1.25-.4 5.8-1.85-3.55-.25-5.6-.3H53.8q-.7.25-1.35 1-1.15 1.15-1.95 2.45l-.9 1.25-.25.25 1 4.95 1.55-.4.7-.1q.75-.05 1.4.35l.55.5.05.05zM30.05 8.35q1.2-.7 2.05-1.05l.55-1.45.8-1.7 1.6-1.2q1.95-1 2.8-1.15l3.45-.15 4.05.7.9.15.7-.45q.75-.6 1.85-1.3 1.45-.9 2.6-.7 1.05.15 2 1.1 1.6 1.6 2.9 5.65l.15.4 10.1.5q1.65.2 2.15.6.75.5 1.45 2 1.25 2.9 3.4 9.55.35 1.25.2 1.75-.35 1.25-2.6 1.85l-6 1.7-6.05 1.4q-1.4.3-2.2 0-.5-.1-1.1-.55l-1.05-.7-2.15-1.2-.35-.35h-.05l-.65-.1h-.6l.25.9q.55 1.5.45 2.05-.15 1.05-1.25 1.75l-2.05.85q-5.25 1.55-15.65 5.35l-2.8.5q-.8-.15-2.1-1.05l-9-6.05q-1.15-.75-1.55-1.45-.4-.6-.4-1.55l-2.95.95-2.75.65-2.45-.5-3.45-1.1q-1.7-.55-2.05-1.3-.3-.6 0-1.95l.8-3.6q.4-2.15 1.15-3.1.75-1.05 3.25-2.2l.7-.4.3-1.2q0-2.4.75-3.6.75-1.15 3.15-2.05 3.8-1.5 7.8-2.5L23.2 3q.6.35 1.25 1.35l3.2 5 .1.15zm6.4-.5 3.2 1.5q.9.45 1.5.5l1.75-.35 2.7-.5q1.45-.1 2.1.5.4.4.75 1.75v.05l1.65-2.1q.95-1.25 1.8-1.65l1.85-.35q-.6-1.65-1.4-2.85l-.8-.8q-.7-.25-1.55.4l-1.65 1.3q-1 .75-1.85.8l-2.3-.45-2.7-.45-2.45-.05q-1 .15-1.9.6l-.9.75-.45 1v.1zm2.5 5.75-4.05-1.95q-.7-.4-1.15-.35-.55 0-1.4.55L29 13.4l-3.55 1.3q-1.3.45-1.9 1.05t-1 2.1Q21.5 21 20.9 24.5l8.6 5.8.95.5 1.1-.15 7.9-2.8q4.75-1.75 7.9-2.65l.6-.35v-.6l-2.8-11q-.7-.1-1.95.45-1.3.6-1.95.6-.95.05-2.3-.7m14.2 14.95 1.9-.6 1.2-.25q.7 0 1.1.35l1.6 1.35q1.2.95 1.65 2.3.3.85.1 1.4-.3.65-1 .95l-1.35.4q-1.35.3-2.5.75l-1.6.35-.75-.2-2.4-.9-.95-.55q-.4-.45-.3-1.05l.3-.75.1-.8.3-1.05.3-.6.6-.45zm-.6 3.55 1.15.4.6.1.7-.15 2.75-.8q.15-.35-.25-.65l-.65-.45-.35-.2h-.35l-3.25 1-.35.2zm-29.05-21 1.8-.65-2.8-4.15-.2.45-.9 1.35-.3.35-.2.3-.15.15-1.45 2.7-.45.55q-.25.1-.45-.2-.2-.25-.1-.5L19.55 9l.85-2.35-5.3 1.7q-1.45.55-1.85 1.1-.5.6-.5 2 0 2.25-.6 3.1L10.3 15.8q-1.5.65-2 1.15-.65.7-.95 2.2L6.8 21.6l3.2 1.1 1.25.3 1.75-.4 3.15-.95 1.3-.25 1.5-5.5q.55-1.9 1.3-2.8.9-1.1 3.25-2m7.4 11 .3 3.75.15 1.1L31.3 28l-.55.7-.55-.1q-.5-.25-.65-.8l-.1-2.7-.15-1.25-.1-1.4-.05-2-1.05-.7-.45-.65q-.3-.35-1.2-.8l-.5-.25-.15-.5q.1-.5.65-.4l.8.25 1.05.2 1.05.2.6.35.7-.35q2.75-1 2.9-1.05l1.5-.45.8-.35 1.3-.4h.75q.5.2.4.6l-.25.4-1.05.75-5.75 2.95-.4.2.1.8z"/></g></svg>