<svg xmlns="http://www.w3.org/2000/svg" xmlns:ffdec="https://www.free-decompiler.com/flash" ffdec:objectType="shape" width="77.1" height="42.65"><g fill-rule="evenodd"><path fill="#999" d="m23.1 2.95-.05-.5q0-.65.7-.95L25 1.35l1.25.15 1.55-.1 1.5-.1q.9.1 1.3.7.25.45.15 1.5l-.3 1-.3.35-.2.35-1.2 1.75q-.8 1-1.55 1-.5 0-.9-.3l-2.8-1.9-.85-.6q-.4-.5-.25-.9l.3-.3h.55l.95.05 1.85.1.05.45.95 2.35q.3.6.65.65.45 0 .55-.55l-.15-.8-1.05-2.1-.15-.35.1-.25.6-.65.6-.7V1.7l-.35-.25-.5.35-.95 1.3-.2.3-.55-.1-2.25-.35zM36.2 5.8l-.6.35q-.75.35-1.4 0-.75-.3-.9-1.1l-.1-.35-.4-.5q-.6-.65-.15-1.45l.65-.6 1.75-1.3q.55-.25 1.1 0Q36.9 0 38 0q1.15 0 1.7.95h.05l1.05.55q.95.75.9 1.5-.05.6-.7 1.15l-.8.8q-.85.85-1.4.8-.65-.05-.9-.6-1.15.3-1.7.65M8.5 1.65l.7.35.45.9-.5 1.1q-.35.75-.55 2.4l-1 3.8v.05l-.05-.1-.1-.65L5.9 5.6q-.05-.5.3-.95.3-.6.75-1.05l.15-.3.25-.3.6-.75.45-.3zm-1.7 8.8-.4-.2h-.75l-1.45.3-1.85-.05-.95-.15q-.5-.25-.6-.8l.05-.8-.15-1.2.05-1.7L.9 4.2V3L.85 2l.45-.9.85-.3q2.7-.4 5.45.5l-.15.1-1.1 1.9-.6.8-.5.6L5 5q-.15.3.15 1.05l1.4 3.5zm61.8-8.8.1.3.45.3.6.75.25.3.15.3.75 1.05q.35.45.3.95l-1.55 3.9-.1.65-.05.1v-.05l-1-3.8q-.2-1.65-.55-2.4l-.5-1.1q0-.45.45-.9zm1.7 8.8.25-.9 1.4-3.5L72.1 5l-.25-.3-.5-.6-.6-.8-1.1-1.9-.15-.1q2.75-.9 5.45-.5l.85.3.45.9-.05 1v1.2l.15 1.65.05 1.7-.15 1.2.05.8q-.1.55-.6.8l-.95.15-1.85.05-1.45-.3h-.75zm-15.9-6.5.3.3q.15.4-.25.9l-.85.6-2.8 1.9-.9.3q-.75 0-1.55-1l-1.2-1.75-.2-.35-.3-.35-.3-1q-.1-1.05.15-1.5.4-.6 1.3-.7l1.5.1 1.55.1 1.25-.15 1.25.15q.7.3.7.95l-.05.5h-.3l-2.25.35-.55.1-.2-.3-.95-1.3-.5-.35-.35.25v.45l.6.7.6.65.1.25-.15.35L49 6.2l-.15.8q.1.55.55.55l.65-.65.95-2.35.05-.45L52.9 4l.95-.05zm7.9-.8.6.35 1.15 1 1.3.8 1.25.75q.3.45 0 1.6L65.25 12l-.15 1.1.1.8-.3-.35-1-1.45-.95-1.45-.75-1.15.1-.55V7.8l.15-2.7zm2 11.65h-1.55q-.75 0-2.6.65l-1.35.1-.65-.7-2.3-2.45-1.2-1.65q-1-1.4-1.15-2.3-.15-.6.05-1.05.15-.35.8-.8l2.45-1.85q.65-.45 1.1-.45.5.1.9.65l.75.9 1.1-1.4.4-.85.25-.3.1 1.95-.2 4.4.05.65.4.4q.7.75 1.4 2l1.05 1.8zm4.95-2.25.4.15q1.7.8 3.2 1.7l.65.65-.2 1.25-1.7 3.7-.8.8-.25.1v-.2l-.05-.8.15-2 .2-1.35-.65-1.8zm.05 7.85-.05-.05q-2.2-1.1-2.95-2.25-.55-.75-.35-1.35v-.5l1.45-2.65q.45-.9.95-1.1l1.25 3.6.15.8-.1.55-.25 2.1zM62.05 17l.9.45 2.4 1.6q1.6.95 2.4 1.6l.65.65q.3.45.2 1.3l-.7 3.15-.85 3.1-.2 1.1-.05.1-.05-.1-4.6-5-.35-.3.05-1.8zm3.7 13.85-.95-.05q-.4.05-1.4.7l-1.45.45-1.3-.85-2.6-1.7-1.3-.75q-.35-.35-.45-1.65-.1-3.05.15-6.15.1-1.05.65-1.15l.4.8 2.95-3L61 17l.1.7.1 6.25v.5l-3.8-.15q-.4 0-.4.2l.25.3h.35l1 .25 1 .05 1.45.15.25.05.05.15.2.1zm4-.65q-.55-.45-.65-.9-.15-.55.25-1.55.95-2.45 2.15-4.5.5-1 1.15-1.2l1.7.2 1.5.45q.9.35 1.1 1.05.15.45-.2 1.75-.45 1.6-.15 4.05l.5 4.1-.15 3.05q-.2 1.9-.1 3l-.1 1.7q-.45.85-2 1.05l-2.35.05-2.3-.15-3.05.05-3.05.05-2.65-.25h-2.6l-1.3.15q-.7 0-1.1-.35l-.1-.05-.2.1q-1 .5-1.85-.25l-1.85-2.3-.45-.7q-.4-.9.2-1.75l.45-.45.25-.45.85-1.15.5-.6.25-.55.2-.15.3-.8q.5-1.35 1.25-1.5l1.3.25 4.85 2.2 1.15-.95 1.1-.4.05.2.95 2.7.75 1.95.1.4-.1.2-2.45 3.5-.2.35.15.5.55.1.65-.75.9-1.25.55-.95.65-.8.05-.05 1.5.4 4.3 1.05 1.75.75.8.05q.35-.15.35-.45l-.25-.55-.5-.25-5.2-1.3-2.45-.45-.1-.25-1-2.65-1-2.5h.05q.4.05 1.2.45l1.55.7.25.15 1.35-2.6.4.05q.3 0 .45.2l.65.15 3.25 1.25.5.15q.3 0 .45-.2.3-.4-.05-.7l-.3-.25-1.4-.5-.3-.2-1.3-.3-1.65-.4zM47.2 42.35l-.8-.05-1 .05-1.45.15-1.55.15q-.95-.1-1.3-.7l-.2-1.3.2-1.2q.25-.55 1-.9l1.3-.3.8-.1.7-.15.5-.65.75-.1q1.25.2 2.5.85l.55.4.2.3q.7.4 1 1.1.25.85-.25 1.45l-.15.15-.15.45q-.35.6-1 .6l-.9-.2zM15.8 3.3l.25.3.4.85q.4.85 1.1 1.4l.75-.9q.4-.55.9-.65.45 0 1.1.45l2.45 1.85.8.8q.2.45.05 1.05-.15.9-1.15 2.3l-1.2 1.65q-1.65 1.55-2.3 2.45l-.65.7-1.35-.1-2.6-.65H12.8l.2-.3 1.05-1.8 1.4-2 .4-.4.05-.65-.2-4.4zm-3.9 10.6.1-.8-.15-1.1-1.35-4.35q-.3-1.15 0-1.6.15-.25 1.25-.75l1.3-.8 1.15-1q.3-.25.6-.35-.15 1-.15 1.95l.15 2.7v1.15l.1.55-.75 1.15-.95 1.45-1 1.45zm-5.35 7-.25-.1-.8-.8-1.7-3.7q-.35-.9-.2-1.25l.65-.65q1.5-.9 3.2-1.7l.4-.15-.95 2.2-.65 1.8.2 1.35.15 2-.05.8zm2.2-8.4q.5.2.95 1.1l1.45 2.65v.5q.2.6-.35 1.35-.75 1.15-2.95 2.25l-.05.05-.1-.85-.25-2.1-.1-.55.15-.8zm3.8 20 1.1.4 1.15.95 4.85-2.2 1.3-.25q.75.15 1.25 1.5l1.35 3.5.1.3.4.35.3.75q0 .5-1 1.4l-1.95 1.85-.65.95q-.4.35-1.1.35l-1.3-.15h-2.6l-2.65.25-3.05-.05L7 42.35l-2.3.15-2.35-.05q-1.55-.2-2-1.05l-.1-1.7q.1-1.1-.1-3L0 33.65l.5-4.1Q.8 27.1.35 25.5l-.2-1.75q.2-.7 1.1-1.05l1.5-.45 1.7-.2q.65.2 1.15 1.2l2.15 4.5q.4 1 .25 1.55l-.65.9-.7.2-1.65.4-1.3.3-.3.2-1.4.5-.3.25q-.35.3-.05.7l.45.2.5-.15 3.25-1.25.65-.15q.15-.2.45-.2l.4-.05 1.35 2.6.25-.15 1.55-.7q.8-.4 1.2-.45h.05l-1 2.5-1 2.65-.1.25-2.45.45L2 39.6q-.4.1-.5.25l-.25.55.35.45.8-.05q1.15-.55 1.75-.75L8.45 39l1.5-.4.05.05.65.8.55.95.9 1.25.65.75.55-.1.15-.5-.2-.35-2.45-3.5-.1-.2.1-.4.75-1.95.95-2.7zm-2.25-2.45-.05-.1-.2-1.1-.85-3.1q-.6-1.95-.7-3.15-.1-.85.2-1.3.25-.4.65-.65l2.4-1.6 2.4-1.6.9-.45.2 5.85.05 1.8-.35.3-4.6 5zM16.1 17l.55.5 2.95 3 .4-.8q.55.1.65 1.15.25 3.1.15 6.15-.1 1.3-.45 1.65l-1.3.75q-1.6.75-2.6 1.7l-1.3.85q-.6.1-1.45-.45-1-.65-1.4-.7l-.95.05 4.2-5.3.2-.1.05-.15.25-.05 1.45-.15 1-.05 1-.25h.35l.25-.3q0-.2-.4-.2l-3.8.15v-.5q-.1-3.6.1-6.25zm13.8 25.35h-.75l-.9.2q-.65 0-1-.6l-.15-.45-.15-.15q-.5-.6-.25-1.45.3-.7 1-1.1l.2-.3.55-.4q1.25-.65 2.5-.85l.75.1.5.65.7.15.8.1 1.3.3q.75.35 1 .9l.2 1.2-.2 1.3q-.35.6-1.3.7l-1.55-.15-1.45-.15-1-.05z"/><path fill="#fff" d="m22.7 3.95-.1-.05-.25-.45q-.05-.25.2-.45l.55-.05h.3l2.25.35.55.1.2-.3.95-1.3.5-.35.35.25v.45l-.6.7-.6.65-.1.25.15.35 1.05 2.1.15.8q-.1.55-.55.55-.35-.05-.65-.65l-.95-2.35-.05-.45L24.2 4l-.95-.05zM7.6 1.3l.6-.05.3.4-.1.3-.45.3-.6.75-.25.3-.15.3q-.45.45-.75 1.05-.35.45-.3.95l1.55 3.9.1.65.05.1.1.25-.05.35-.5.05-.25-.15-.1-.3-.25-.9-1.4-3.5Q4.85 5.3 5 5l.25-.3.5-.6.6-.8 1.1-1.9zm61 .35.3-.4.6.05.15.1 1.1 1.9.6.8.5.6.25.3-.15 1.05-1.4 3.5-.25.9-.1.3-.25.15-.5-.05-.05-.35.1-.25.05-.1.1-.65 1.55-3.9q.05-.5-.3-.95l-.75-1.05-.15-.3-.25-.3-.6-.75-.45-.3zm-14.2 2.3h-.55L52.9 4l-1.85.1-.05.45-.95 2.35-.65.65q-.45 0-.55-.55l.15-.8 1.05-2.1.15-.35-.1-.25-.6-.65-.6-.7V1.7l.35-.25.5.35.95 1.3.2.3.55-.1 2.25-.35h.3l.55.05.2.45-.25.45zm7.9-.8.15 1.95-.15 2.7v1.15l-.1.55.75 1.15.95 1.45 1 1.45.3.35.1.1q.2.35.05.75-.2.45-.6.35l-.45-.3-.2-.3-1.05-1.8q-.7-1.25-1.4-2l-.4-.4-.05-.65.2-4.4-.1-1.95v-.1l.1-.55q.1-.35.45-.25.35 0 .45.75m6.95 9.4.95 2.2.65 1.8-.2 1.35-.15 2 .05.8v.5q-.1.4-.55.5-.5 0-.65-.4l-.05-.9.1-.85.25-2.1.1-.55-.15-.8-1.25-3.6-.2-.7q0-.35.25-.4l.45.35zM62.05 17l-.2 5.85-.05 1.8.35.3 4.6 5 .05.1q.45.45.4.85l-.3.45-.55.05-.5-.45-.1-.1-4.2-5.3-.2-.1-.05-.15-.25-.05-1.45-.15-1-.05-1-.25h-.35l-.25-.3q0-.2.4-.2l3.8.15v-.5l-.1-6.25-.1-.7v-.3l.5-.45q.4 0 .55.4zm7.7 13.2.7.2 1.65.4 1.3.3.3.2 1.4.5.3.25q.35.3.05.7-.15.2-.45.2l-.5-.15-3.25-1.25-.65-.15q-.15-.2-.45-.2l-.4-.05-1.05-.45-.1-.25q-.1-.2.15-.3l.4-.05zm-4.4 2.25 1 2.5 1 2.65.1.25 2.45.45 5.2 1.3.5.25.25.55q0 .3-.35.45l-.8-.05-1.75-.75-4.3-1.05-1.5-.4-.05.05-.65.8-.55.95-.9 1.25-.65.75-.55-.1-.15-.5.2-.35 2.45-3.5.1-.2-.1-.4-.75-1.95-.95-2.7-.05-.2-.05-.25.3-.35.5.4zM12.8 14.8l-.45.3-.6-.35q-.15-.4.05-.75l.1-.1.3-.35 1-1.45.95-1.45.75-1.15-.1-.55V7.8l-.15-2.7q0-.95.15-1.95.1-.75.45-.75l.45.25.1.55v.1l-.1 1.95.2 4.4-.05.65-.4.4-1.4 2L13 14.5zm-4.95-2.25.4-.8q.2-.45.45-.35l.25.4-.2.7-1.25 3.6-.15.8.1.55.25 2.1.1.85v.35l-.05.55q-.15.4-.65.4-.45-.1-.55-.5v-.5l.05-.8-.15-2-.2-1.35.65-1.8zm-.5 17.65.6-.1.4.05q.25.1.15.3l-.1.25-1.05.45-.4.05q-.3 0-.45.2l-.65.15L2.6 32.8l-.5.15-.45-.2q-.3-.4.05-.7l.3-.25 1.4-.5.3-.2 1.3-.3 1.65-.4zm4.4 2.25.05-.15.5-.4.3.35-.05.25-.05.2-.95 2.7-.75 1.95-.1.4.1.2 2.45 3.5.2.35-.15.5-.55.1-.65-.75-.9-1.25-.55-.95-.65-.8-.05-.05-1.5.4-4.3 1.05q-.6.2-1.75.75l-.8.05-.35-.45.25-.55q.1-.15.5-.25l5.2-1.3 2.45-.45.1-.25 1-2.65zM15.05 17v-.35q.15-.4.55-.4l.5.45v.3l-.1.7q-.2 2.65-.1 6.25v.5l3.8-.15q.4 0 .4.2l-.25.3h-.35l-1 .25-1 .05-1.45.15-.25.05-.05.15-.2.1-4.2 5.3-.1.1-.5.45-.55-.05-.3-.45q-.05-.4.4-.85l.05-.1 4.6-5 .35-.3-.05-1.8z"/><path fill="#999" d="M54.75 22.75v1.95l-.35 2-.1.7-1.2.5h-.05l-.35.15-1.85.55-1.5.2.15-1.05-.15-3.05v-.4l.2-.2.1-.1.1-.05 4.2-3.3.8-.35-.05.5zm-11.5 3.05-.55-1.85-.55-1.05-.1-.75.15-.3.25-.45.2.2 1 .45 3 1.6.95.4.1.05.15.05.25.8.25 1.3.25 1.8.25.55.05.15h-.2l-4.4-1.8-.75-.45zM47 16h.25l.05-.05.45.05q.65.05 1.45.55 1.95 1.3 3.6 2l1.05.55.6.3-.25.15-.65.5q-1 .5-2.4 1.45l-2 1.35-.35.15h-.4l-.3-.05L46 21.6l-1.35-.8-1.2-.75-.2-.1.35-.7.85-.95.95-.9.1-.1.15-.35.25-.35q.5-.5 1.05-.6zM22.45 26.25l.05-1.05.05-2.45.05-1.95v-.65l.2-.65.65-.4 1.05-.55q1.65-.7 3.6-2 .85-.5 1.5-.55l-.15.9-.5 3.25-.15.8-.1 1.4-.1.25q-.25.05-.55.25L23.3 25.9l-.8.6zM30.35 16q.4.15.85.55l.7.85.95.9.85.95.85 1.65.6 1.05-.45.1-1.55.3-2.75.35-.1-.1-.2-.1v-2.2l.05-3.5.15-.8zm-3.9 12.6-1.85-.55-1.15-.5-.5-.35-.15-.15 1.55-.7.6-.25q.4 0 .45-.2l1.35-.45.85-.45 1.6-.8.4-.2.15-.05 1.1-.1.95-.2.8-.05 2.3-.4-.2.4-.65 2.2-.3.7-.75.45-4.4 1.8h-.55z"/><path d="M26.5 38.2q-3.7-1.6-5.3-3.4-2.9-3.15-2.9-9.35 0-5.4 2.15-10.2l-.2-.65v-.1l-.5-1.1-.4-1.6-.25-.5-.85-3.15q-.55-1.9-.6-3.3l.2-1.2q.4-.75 1.2-.9l1.2.1q2.5.65 6.5 2.9L28 6.4q4.75-3 11.1-3.1 4.3-.1 7.6 1.4 1.6.7 3.25 1.95 1.2-.7 3.55-1.5l3.65-1.35 1.75-.7q1.2-.2 1.75.45.6.65.4 1.8l-.2.8-3.6 9.05.25.6q.65 1.5 1 4.1.6 4.85-.7 9.2-1.45 4.7-4.85 7.5-5.25 4.3-15.85 3.9l-5.4-.6q-2.2-.45-5.2-1.7M47 16h-.05q-.55.1-1.05.6l-.25.35-.15.35-.1.1-.95.9-.85.95-.35.7.2.1 1.2.75 1.35.8 2.1 1.35.3.05h.4l.35-.15 2-1.35q1.4-.95 2.4-1.45l.65-.5.25-.15-.6-.3-1.05-.55q-1.65-.7-3.6-2-.8-.5-1.45-.55l-.45-.05-.05.05zm-3.75 9.8.3.7.75.45 4.4 1.8h.2l-.05-.15-.25-.55-.25-1.8-.25-1.3-.25-.8-.15-.05-.1-.05-.95-.4-3-1.6-1-.45-.2-.2-.25.45-.15.3.1.75.55 1.05zm11.5-3.05-.05-1.95.05-.5-.8.35-4.2 3.3-.1.05-.1.1-.2.2v.4l.15 3.05-.15 1.05 1.5-.2 1.85-.55.35-.15h.05l1.2-.5.1-.7.35-2zm-28.3 5.85 1.6.15h.55l4.4-1.8.75-.45.3-.7.65-2.2.2-.4-2.3.4-.8.05-.95.2-1.1.1-.15.05-.4.2-1.6.8-.85.45-1.35.45q-.05.2-.45.2l-.6.25-1.55.7.15.15.5.35 1.15.5zm3.9-12.6h-.05l-.15.8-.05 3.5v2.2l.2.1.1.1 2.75-.35 1.55-.3.45-.1-.6-1.05-.85-1.65-.85-.95-.95-.9-.7-.85q-.45-.4-.85-.55m-7.9 10.25.05.25.8-.6 4.75-3.05q.3-.2.55-.25l.1-.25.1-1.4.15-.8.5-3.25.15-.9q-.65.05-1.5.55-1.95 1.3-3.6 2l-1.05.55-.65.4-.2.65v.65l-.05 1.95-.05 2.45z"/></g></svg>