<svg xmlns="http://www.w3.org/2000/svg" xmlns:ffdec="https://www.free-decompiler.com/flash" ffdec:objectType="shape" width="64.2" height="40.9"><g fill-rule="evenodd"><path fill="#999" d="M21.25 8.2q1.2 4.4 1.6 10.95l2.7-1.75q4.3-2.1 10.2-1.95 4.2.2 7.05 1.4 1.55.65 3.45 1.85l2.15 1.45q1.25-4.7 3.85-8.05l1.35-1.6q3.3-3.5 5.7-4.65 1.2-.55 1.95-.45.35.05.6.25l.2.55-.55.5q-2 1.1-3.35 2.3-2.7 2.45-4.1 5.65-1.15 2.55-1.8 7.2-.2 1.65-.75 2.25l-.55.45-.55.7q-.6.5-1.25.35l-.4-.15-.05.05-.8.8q-.55.2-1.1 0l-.9-.6-.85-.75-1.45-.9-1.35-.65-3.05-1.3-.7-.2-1.3-.35-.65.1q-.4 0-.55-.3.7-.4 1.6-.5l1.5-.05.8-.05.8.1 4.3 1.1-1.05-.6q-3.35-1.65-5.9-2-1.65-.25-4.2-.05l-4.25.65q-1.7.5-3.45 1.45-1.65.9-3.2 2-.15 1.9-.95 2.7-.95 1-2.45.75-1.4-.35-1.9-1.7-.25-.7-.15-2.25.55-7.45-1.5-16.05-.85-3.5-1.8-5.35L13.4 0h4.35q2.2 3.5 3.5 8.2M13.3 6.85 13 6l-.25-1.35v-.6q.1-.35.45-.35l.35.25.45.6.3 1 .5 1.15 1.15 4.85.45 2.55.35 1.95.2 2.55q0 1.2-.35 1.7-.45.55-1.15.55-.75-.1-1.1-.65l-.3-1v-1.15l-.25-1.95v-1.25l-.1-3.35-.2-3.5z"/><path d="m61.55 6.95-.75.65-.95.1q-1.55 0-2.05.7-.25.35-.35 1.35l-.2 1.55q-.35.85-1.05 1.35l-1.1.35-.75.2.1.85.1 1-.05.65q-.1.35-.4.35-.45.15-.8-.35l-.05-.05v.75q-.1.7-.55.9-.65.15-1-.45l-.45-1.05-.1-.2-.3-.25-.2-.1-.95-.3q-.65-.2-.75-.4-.35-.4.15-.8.3-.25.9-.35l.35-.1-.5-.55q-.1-.6.5-.95.25-.25 1.05-.35l1.2.05q.65-.45 1.55-.55l.65-.15.25-1q0-1.75 1.3-2.85 1.3-1.25 3-.95l.5.05.2-.1-.45-.15-.4-.25q-.3-.4-.3-.7-.05-.45.5-.9l.5-.25.6-.05 1.25-.4 1.2-.75q.65-.2 1 .2.4.35.2.95l-.25.45-.8 2.35-.05.55-.2.7-.65.3-.4-.5-.2-.6zM45.95 32.3 45.2 31l-.15-.6q-1.1.3-2.4 0l-.75-.2-1.05-.95-.7-1.15-.05-.95.25-1.4.25-.8.35-.55q1.05-1.3 2.6-1.6 1.65-.3 2.95.65l.2.15.15-.1q1.8-1.3 2.9-1.55l1.55-.2.05-.65.2-.7q.25-.6.85-1.1l.9-.6 1.1-.2 1.2.05.85.2 1.05.8q1 1.1 1.15 1.9v.65q0 1.25-.6 1.9l-.85.65q.8 1.25 1 2.7.3 2.25-.85 4.05l-1.75 1.95-.85.65 1.5 2.55.5.9q1.1 2.35 1.25 3.45H45.8l.15-1.95.15-.95.35-1.6.75-1.5.6-.8q-1.1-.75-1.85-1.8m6.5-1.3h.05l.3-.05.3.05.65-.15.6-.05.55-.15.25-.1.3.05.35-.15.15-.4-.55-.6-.9-.05h-.85l-.5-.1-.15-.2-.15-.45q-.25-.3-.65-.4l-.5.25-.2.65.1.55-.4.55-.6.8q-.4.45-.45.85-.1.6.4.75l.45-.05.4-.35zm-2.55-3-.55-.8q-.45-.35-1-.35-.6-.05-1.05.3-.95.7-.6 1.85l.35-.2 1.85-.55 1.05-.05zm6.8-3-.2-.3h-1.3l-1.55-.5-.45.45q-.45.6-.45 1.3.05.7.55 1.3l1.15.7q1.25.25 2.05-.8t.2-2.15m-44.25-8.15h.9q.15-.85.7-1.6.7-.9 1.65-1.3.9-.45 2.25-.35 1.5.15 2.45 1.1l.5.8q.75 1.5.1 3.25l-.7 1.15.25.35q1.1 1.5 1.25 3.3l.9.15q1.15.2 1.9.65 1 .6 1.3 1.5l.15.7q.35 2.35-.75 3.8l-1.05.95-.95.5-1 .2-2.35-.2-1.05-.45-1.75 1.15-.9.45.3.95.4 2.1.5 3-.05 1.25H.25l-.05-.1q-.4-.95-.05-2.3l1-2.1q2.5-4.3 4.9-6.25-.6-1.3-.7-2.75-.4-3.65 1.5-6.45 2.15-3.05 5.6-3.45M17 29.45q1.55.5 2.6-.6l-1.1-1.2q-.55-1.2-.3-2.75l.05-.15-.5-.05q-.7.05-1.3.45-.65.4-.9 1.05-.4 1 0 1.95.5 1 1.45 1.3m-3.75-.25-.3-1.2.5-.55.6-1.3.2-.45-.2-.45q-.25-.25-.5-.2l-.55.25-1.1.9-.4.45-1.35-.05-1 .05q-.6.3-.6.75 0 .4.3.6.45.4 1.3.3l1.4-.05.25 1.15.35.75.6.25q.65-.1.65-.65zm-2.4-9.4q-.5.55-.6 1.25.65.05 1.4.5 1 .6 1.45 1.6l.15.65.55-.2 1.1-1q.35-.7.25-1.5t-.6-1.35q-.7-.85-1.9-.85-1.05 0-1.8.9"/><path fill="#fff" d="M56.7 25q.6 1.1-.2 2.15t-2.05.8l-1.15-.7q-.5-.6-.55-1.3 0-.7.45-1.3l.45-.45 1.55.5h1.3zm-6.8 3 .05.2-1.05.05-1.85.55-.35.2q-.35-1.15.6-1.85.45-.35 1.05-.3.55 0 1 .35zm2.55 3-1.05 1.25-.4.35-.45.05q-.5-.15-.4-.75.05-.4.45-.85l.6-.8.4-.55-.1-.55.2-.65.5-.25q.4.1.65.4l.15.45.15.2.5.1h.85l.9.05.55.6-.15.4-.35.15-.3-.05-.25.1-.55.15-.6.05-.65.15-.3-.05-.3.05zm-41.6-11.2q.75-.9 1.8-.9 1.2 0 1.9.85.5.55.6 1.35t-.25 1.5l-1.1 1-.55.2-.15-.65q-.45-1-1.45-1.6-.75-.45-1.4-.5.1-.7.6-1.25m2.4 9.4.15.55q0 .55-.65.65l-.6-.25-.35-.75-.25-1.15-1.4.05q-.85.1-1.3-.3-.3-.2-.3-.6 0-.45.6-.75l1-.05 1.35.05.4-.45 1.1-.9.55-.25q.25-.05.5.2l.2.45-.2.45-.6 1.3-.5.55zm3.75.25q-.95-.3-1.45-1.3-.4-.95 0-1.95.25-.65.9-1.05.6-.4 1.3-.45l.5.05-.05.15q-.25 1.55.3 2.75l1.1 1.2q-1.05 1.1-2.6.6"/></g></svg>