<svg xmlns="http://www.w3.org/2000/svg" xmlns:ffdec="https://www.free-decompiler.com/flash" ffdec:objectType="shape" width="75.1" height="50"><g fill-rule="evenodd"><path fill="#999" d="m56.1 0 .1.05.05.1.2.15.5.65.15.3.2.2v.05h-.1l-.1-.1-.05-.15L56.9 1l-.8-.9zm2.45 10.6-.15-.3-.6-.75-.3-.4q-.25-.6.05-1.05l.9-.5.05-.05.7.3.3.35.2.4.35 1 .2.4.35.95.3.65.2.3.2.6-.05.3-.15.15q-.3.1-.45-.15l-.15-.35-.55-.35-.2-.3-.9-.95zm7.4 2.95-.5.55-.75-.05-.15-.3-.1-.35.1-.4 2.5-4.75.65-.65.7-.15.7.35q.6.6.15 1.4l-.2.3-2.7 3.35zM62.9 14.8l-.05-.35-.1-.2-.25-.7-.15-.75-.15-.35-.1-.75-.2-.5-.2-.75-.15-.65-.2-1.15v-1.2l.55-.65.8-.2q1 .1 1.15 1.05l.05.6-.1 5.05-.15 1.4-.15.4q-.4.2-.6-.3m7.1-2.6.5-.8.6-.65.15-.2.85-.8.55-.15.1-.05q.6 0 1 .4.4.6.25 1.05l-.15.35-.35.4-.7.55-.9.45-1.1.4-1.5.75-.35.05-.15-.4.1-.3.2-.15.1-.15.35-.3.3-.25zm-9.95 14.3.45-.8q.2-.2.45-.2.35.1.4.3v.4l-.8 7.2-.7.95-1.35.1q-.65-.3-.8-1.1l.2-1.2zM38 15.55l.05.05v.05l.05.05v.05l.05.05v.05l.05.05v.05l.05.05v.6l-.05.05v.05l-.05.05v.1l-.05.05v.05l-.05.05v.05l-.05.05-.05.05-.05.05-.05.05-.05.05-.05.05-.05.05-.1.05-.05.05-.1.1-.1.05-.1.05-.1.05h-.1l-.05.05h-.1l-.05.05h-.15l-.15.05-.15.05h-.05l-.1.05h-.2l-.2.05h-.3l-.25.05h-4.25l.1.05.15.05.1.05.1.1.05.05.05.05.1.05.2.2.05.05v.05l.05.05v.05l.05.05V19l.05.1v.15l.05.05v.3l-.05.05v.2l-.05.05v.05L32 20v.05l-.05.05v.05l-.05.05-.2.2-.1.05-.05.05-.05.05-.1.1-.1.05-.15.05-.1.05-.2.05-.1.05h-.15l-.1.05h-.15l-.05.05h-.15l-.15.05h-.2l-.45.05h-2.4l-.45.7h1.8l.6.05h.2l.2.05h.2l.1.05h.15l.05.05h.1l.15.05.1.05.15.05.15.05.05.05.1.05.1.05.05.05.1.05.05.05.1.05.05.1.2.2v.05l.05.05.05.05v.05l.05.05v.05l.05.05v.1l.05.1v.4l-.05.05V24l-.05.05-.05.1v.05l-.05.05v.05l-.05.05-.05.05v.05l-.1.05-.05.05-.05.05-.05.05-.05.05-.1.05-.05.05-.1.1-.1.05-.05.05-.1.05-.15.05h-.1l-.05.05h-.05l-.15.05-.1.05h-.15l-.05.05h-.1l-.2.05h-.2l-.8.05h-3.1l-.05.4H26l.1.05h.15l.05.05.15.05.15.05.1.05.15.05.1.05.1.05.1.05.05.05.1.05.05.05.05.05.05.05.05.05.05.05v.1l.05.05.05.05v.05l.05.05v.05l.05.05v.1l.05.05v.15l.05.05v.5l-.05.05v.15l-.05.05v.15l-.05.05v.05l-.05.05v.05l-.05.05-.05.05-.05.05-.05.05v.05l-.05.05-.1.05-.05.05-.05.1-.1.05-.05.05-.1.05h-.05q.35.75.2 1.4l-.6.85-1.05.15-1-.55-.7-.6-1.15-1.05h-1.25l-.25-.05h-.55l-.35-.05h-.65l-.2-.05h-.6l-.35-.05h-.35l-.3-.05h-.45l-.35-.05h-.2l-.15-.05h-.45l-.05-.05h-.15v-.05h-.25l-.25-.05h-.25v-.05h-.25l-.25-.05h-.8l-.35-.05h-.1l-.1-.05h-.3l-.25-.05h-.5l-.4-.05h-.3l-.05-.05h-.5l-.3-.05h-.05l-.2-.05h-.15l-.15-.05h-.1l-.3-.05h-.25l-.5-.05H8.2l-.15-.05-.1-.05h-.2l-.3-.05h-.4L6.8 28h-.1l-.15-.05h-.7l-.15-.05-.05-.05H5.6l-.05-.05h-.3l-.1-.1v-.2l.05-.05h.05l.05-.05h.25l.1-.05.1-.05h.1l.2-.05h.65l.1-.05h.25l.2-.05h.3l.35-.05.15-.05h.3L8.7 27h.85l.25-.05h.2l.1-.05h.1l.15-.05h.25l.15-.05h.3l.3-.05h.35l.15-.05h.45l.3-.05h.2l.25-.05h.4l.1-.05h.35l.7-.05h.4l.1-.05h.25l.1-.05h.15l.1-.05h.25l.1-.05h.15l.2-.05h.35l.2-.05h.6l.2-.05h.1l.2-.05h.55l.35-.05h.75l.25-.05h.75l.15-.05h.8v-.65h-.7l-.75-.05h-.7l-.1-.05h-.8l-.55-.05h-.1l-.25-.05h-.6l-.55-.05h-.5V25h-.35l-.05-.05h-.35v-.05h-.2l-.3-.05h-.45l-.1-.05h-.45l-.4-.05h-.8l-.2-.05h-.15l-.3-.05h-.6l-.15-.05h-.15l-.15-.05h-.5l-.3-.05h-.75l-.15-.05h-.45l-.4-.05H7.2l-.45-.05h-.1l-.15-.05h-.45l-.5-.05H4.9l-.1-.05h-.5l-.4-.05h-.4l-.25-.05-.3-.05h-.7L2 24h-.3l-.05-.05h-.1l-.25-.05-.1-.05H1l-.2-.05-.1-.05v-.05l-.05-.05v-.1l.1-.1.15-.05.1-.05.05-.05.1-.05.1-.05h.4l.05.05h.1l.15-.05h.3l.4-.05h.6l.1-.05h.15l.15-.05h.8l.3-.05h.3l.25-.05h.9l.15-.05h.4l.1-.05h.35l.75-.05h.8l.3-.05h.4l.15-.05h1l.3-.05h.3l.15-.05h.2l.25-.05h.45l.1-.05h.45l.3-.05h.8l.25-.05h.4l.25-.05h.3l.1-.05h.2l.05-.05h.4l.1-.05h.25l.2-.05h.95l.25-.05h.1l.25-.05h.65l.55-.05h.55l.3-.05h.95l.9-.05h.65l.35-.65.15-.2h-2l-.3-.05h-.65l-.95-.05h-.95l-.25-.05h-.2l-.15-.05h-.2l-.4-.05h-.25l-.05-.05h-.35l-.1-.05h-.55l-.55-.05h-.35l-.15-.05h-.15l-.1-.05-.25-.05-.2-.05h-.15l-.05-.05h-.3l-.3-.05h-.05L13 20.3h-.1l-.15-.05h-.1l-.2-.05h-.25l-.1-.05h-.5l-.2-.05H9.15l-.1-.05L8.2 20h-.3l-.25-.05H7.2v-.05h-.7l-.3-.05h-.4l-.2-.05h-.15l-.25-.05H3.8l-.15-.05-.15-.05-.15-.05h-.1l-.05-.05-.25-.05-.05-.05v-.1l.05-.05.25-.05h.1l.1-.05h.1l.1-.05h.05l.1-.05h.15l1.3-.05h.25L5.7 19h.4l.2-.05h.75l.15-.05h.6l.05-.05h.2l.3-.05h.7l.1-.05h2.95l.2-.05h.25l.1-.05h.1l.15-.05h.15l.05-.05h.15l.15-.05h.35l.05-.05h.1l.1-.05h.15l.1-.05h.2l.15-.05h.1l.1-.05h.5l.35-.05h.55l.25-.05h.25l.1-.05h.3l.25-.05h.25l.2-.05h.25l.25-.05h1.05l.9-.05h.65l.3-.05h-.45l-1.25-.05h-1.1l-.25-.05h-.55l-.55-.05H15.7l-.15-.05H14.4l-.65-.05h-.2l-.2-.05-.15-.05h-.4l-.4-.05h-.2l-.15-.05h-.65l-.2-.05h-.35l-.25-.05h-.25l-.1-.05H9.6l-.25-.05H9.1l-.1-.05h-.4l-.3-.05h-.5l-.1-.05h-.05L7.4 17h-.2l-.45-.05H6.4l-1.35-.05h-1.4l-.25-.05h-.15l-.15-.05h-.25l-.2-.05h-.6l-.3-.05h-.5l-.15-.05H.95L.8 16.6l-.05-.05-.15-.05H.4l-.1-.1v-.2l.05-.05H.4l.1-.05h.2l.1-.05.15-.05.1-.05h.2l.25-.05h.55l.25-.05h.6l.2-.05h.15l.15-.05h.4l.35-.05h2.4l.2-.05h.45l.1-.05h.4l.1-.05h.3l.35-.05h.15l.4-.05h.2l.15-.05h.45l.35-.05h.3l.15-.05h.45l.2-.05h.35l.3-.05h.35l.15-.05h.4l.25-.05h.3l.1-.05h.3l.15-.05h.5l.7-.05h.8l.45-.05h1.5l.3-.05h.5l1.05-.05h1l-.5-.05h-1.05l-.25-.05-.25-.05h-.55l-.2-.05h-.6l-.15-.05h-.35l-.35-.05h-.4l-.5-.05h-.65l-.25-.05h-.5l-.15-.05h-.2l-.2-.05h-.05l-.05-.05-.15-.05h-.05l-.15-.05-.05-.05-.25-.05h-.3l-.05-.1-.05-.05v-.05l.05-.05h.05l.05-.05h.3l.2-.05.1-.05.15-.05.15-.05.1-.05h.05l.15-.05h.3l.2-.05h.45l.2-.05h.6l.6-.05h.65l.35-.05h.15l.1-.05h.5l.3-.05h.45l.15-.05h.3l.25-.05h1.35l.4-.05h.15l.2-.05h.25l.1-.05h.3l.15-.05h.15l.1-.05h.25l.1-.05H23l.25-.05h.35l.1-.05h.3l.2-.05h.55l.3-.05h.4l.2-.05h.25l.25-.05H27l.25-.05h.7l.6-.05h.4l.25-.05H31q3.9-1.55 8.65-.85 2.05.25 3.45.9l1.7 1.1.05-.05h.35l1.15-.05h.6l.15-.05h.35l.3-.05h.2l.1-.05h.15l.1-.05h1.25l.4-.05h.75l.25-.05h.95l.15-.05h.1l.05-.05h.2l.1-.05h.2l.1-.05h.3l.2-.05h.15l.1-.05h.05l.2-.05h.45l.2-.05h1l.55-.05h2.3v-.05h.25l.25.05h.3l.1.05.15.05.15.05.1.05.1.05.1.05.05.05.05.1.05.05.05.05.05.05.1.1v.05l.05.05v.05l.05.05v.05l.05.05v.55l-.05.05v.1l-.05.05-.05.05v.05l-.05.1v.05l-.05.05-.05.05-.05.05-.05.05-.05.05-.1.05-.1.05-.05.05-.15.05-.15.05.1.05.1.05.05.05.1.1.1.05.05.05v.1l.05.05.05.05v.05l.05.05v.05l.05.05v.1l.05.05v.65l-.05.05v.1l-.05.05-.05.05v.05l-.05.05v.1l-.05.05-.05.05-.05.05-.05.05-.05.05-.1.05-.1.05-.05.05-.15.05-.15.05-.15.05-.05.05h-.1l-.05.05h-.2v.05h-2.2l-1-.05h-.1l.05.3.15.45h.55l.05.05h.05l.15.05.1.05.15.05.05.05.1.05.05.05.1.05.05.05V19l.05.1.05.05v.05l.05.05v.1l.05.05v.2l-.05.05v.1l-.05.1v.05l-.05.05-.05.05v.05l-.05.05-.1.05-.05.05-.1.05-.05.05-.15.05-.1.05-.2.05q.45 1.55.35 2.7h.1l.05.05h.15l.15.05.05.05.1.1.1.05.1.05.05.05.1.05.05.05v.05l.05.05.05.05v.05l.05.05v.1l.05.05v.2l-.05.05v.15l-.05.05-.05.05v.05l-.05.05-.05.05-.05.05-.1.05-.05.1-.1.05-.1.05-.1.05-.1.05h-.1l-.1.05-.15.05-.1.05h-.2l-.05.05h-.15l-.3.05h-.1l-.05.05-2.85 3.6.05.6q0 .7-.7 1.8-2.05 2.9-5.65 4.55-2.85 1.3-7.15 1.8l-5.8.35-4.6.2-1 1.45-.05.1 4.85-.3q1.8.2 2.2 1.15.4.9-.3 1.6-.5.5-1.8.6-2.8.3-4.15.75-2.25.8-3.45 2.25l1.15.45q.55.35.7.95.15.8-.55 1.35-.7.45-1.5.4-1.75 0-2.7-1.45l-.1-.25h-3.2l-1.25-.05h-1.9l-1.15-.05h-1.85l-.55-.05h-1l-.5-.05H10l-.05-.05H9.5l-.2-.05h-.8L8.1 47h-.55l-.75-.05H6l-.45-.05h-.7l-.6-.05h-.4l-.25-.05h-.45l-.25-.05h-.15l-.5-.05H1.8l-.05-.05h-.1l-.1-.1h-.3l-.05.05-.1.05H.9l-.1-.1v-.25l.1-.05.1-.05h.1l.1-.05h.1l.15-.1.1-.05h.15l.05-.05h.15l.1-.05h.75l.15-.05H3l.25-.05h.5l.25-.05h1l.4-.05h.65l.5-.05h1l.25-.05h.3l.5-.05h.2q-1-.75-.95-1.7 0-.55.4-.9.4-.4.9-.35l1.15.55 1.1.25 2.95.2 1.75-.4 4.25-1.4 4-1.3.5-.1-.1-.1q-.3-.6.05-1.35l.35-.4.75-1.2-.05-.35q0-.65.75-1.05l.15-.05.2-.6.15-.4.65-.7.95-.15q1.1.25 1.2 1.35v.05l7.2-.7 5.55-.9 2.1-.75-.25-.25q-.4-.65-.05-1.35.3-.55 1.5-1.1 3.9-1.8 6.35-5.15h-.05l-.15-.05-.15-.05h-.2l-.1-.05h-.1l-.05-.05h-.15L51.2 25h-.1v-.05h-.2l-.1-.05h-.05l-.05-.05h-.05l-.05-.05h-.1l-.3-.05h-.1l-.15-.05h-.35l-.05-.05h-.25l-.7-.05-.1-.05-.1-.05-.1-.05-.05-.05-.05-.1-.05-.05h-.05l-.15-.25.2-.35.85-.4 4.7-1.05-.15-.5-.35-1.5h-.35v-.05h-.25l-.15-.05h-.7l-.25-.05h-.3l-.25-.05H49.9l-.1-.05h-.3l-.1-.05H49l-.2-.05-.1-.05-.05-.05-.05-.05-.05-.05v-.25l.2-.2.1-.05H49l.25-.05h.4l.1-.05h.15L50 19h1.05l.25-.05h.45l.25-.05h.6l.15-.05H53l-.1-1.2h-.1l-.2-.05h-.05l-.1-.05h-.05l-.1-.05h-.25l-.05-.05h-.1l-.25-.05h-.1l-.1-.05h-.2l-.1-.05h-.2l-.1-.05h-.35l-.1-.05h-.2l-.3-.05h-.2l-.15-.05h-.1l-.2-.05h-.15L49 17h-.65l-.15-.05h-.45l-.2-.05h-.8l-.35-.05h-.5l-.25.15-1.2-.15-.2-.1-.1-.05h-.05l-.2-.05-.15-.05-.1.05h-.25l-.1-.05-.05-.05v-.2l.05-.1.05-.05.1-.05h.05l-.1-.1q-.7-.5-1.75-.9l-.15.05h-.1l-.05.05h-.05l-.05.05h-.15l-.1.05h-.35v.05h-.45v.05h-.5l-.45.05h-.55l-.4.05zm8.5.2h.25l.45-.05h.65l.15-.05h.45l.2-.05h.6l.1-.05h.2l.15-.05h.05l.15-.05h.4l.1-.05h.2l.15-.05h.35l.15-.05h.15l.05-.05h.1l.05-.05h.2l.1-.05h.25l.15-.05h.1l.15-.05h.05l.2-.05h.05l.2-.05h-.35l-.1-.05h-.2l-.05-.05h-.15l-.1-.05h-.4l-.45-.05h-.4l-.35-.05h-.7l-.25-.05H48.2v-.05h-.15l-.15-.05h-.45l-.25-.05h-.1l-.2-.05h-1.2l.1.15.5 1.15zm-35.25 22.6h.4l.1.05h.05l.1.05.15.05.1.05.1.05.1.05.1.05.05.05.1.05.05.05.1.1.05.1.05.05v.05l.05.05v.05l.05.05.05.05v.1l.05.05v.45L13 40v.05l-.05.05v.05l-.05.05-.05.05v.05l-.05.05-.05.05-.05.05-.05.05-.05.1-.05.05-.1.05-.05.05-.1.05-.15.05-.05.05-.15.05-.1.05h-.1l-.3.05v.05H10.3l-.5-.05-.4.35-1.15.05-.65-.5h-.1l-.3-.05h-.15l-.3-.05h-.2l-.2-.05-.15-.05h-.8l-.1-.05h-.65l-.15-.05h-.2l-.5-.05H2.75l-1.05-.05h-.3l-.2-.05h-.15l-.1-.05-.15-.05-.1-.05-.1-.05-.1-.05-.1-.05-.05-.05-.1-.05v-.05L.2 40l-.05-.05v-.45l.05-.05v-.05l.05-.05.05-.05.05-.05.05-.05.1-.05.1-.05.1-.05.15-.1h.1l.1-.05h.3l.15-.05h1.7l.3-.05h.8l.15-.05h.15l.2-.05h.5l.25-.05h.65l.1-.05h.2l.2-.05h.35l.05-.05h.15l.05-.25.9-1.9h-.1l-.2-.05h-.7l-.35-.05h-.1l-.05-.05h-.3l-.15-.05-.3-.05H5l-.45-.05H4.4L4.25 36h-.3l-.4-.05h-.4L3 35.9h-.25l-.15-.05-.1-.05-.05-.1-.1-.05-.15-.15v-.05l-.05-.05v-.5l.05-.05v-.05l.05-.05.15-.15.05-.05.05-.05.1-.05.1-.05.1-.05h.05l.05-.05h.15l.15-.05h.35l.4-.05h.3l.2-.05h.3L5 34.1h.95l.25-.05h.2l.15-.05h.2l.1-.05H7l.2-.05H8l.25-.05h.3L9 33.8h1.3l1.3-1.2 1.2-.7q2.45-1.4 4.45-1.85h1.3q.75.2.85.9.05.6-.9 1.25l-2.15 1.1q-2.95 1.5-5.1 4.55l-.3.5zm10.9 6.2-1.95.7h1.65z"/><path d="M71.7 24.1q.3.8.4 2.45l.1 1.55-.1 1.45q-.3 1.6-1.8 2.4-1.15.7-3 .8h-.85L64.6 34.3q-2 1-3.55-.05l-.85-.65q-.55-.3-1 0l-.3.35-.25.75-.05.75q-.05.55-.5.95l-.7-.3q-.25-.25-.25-.85l-.1-.75v-.7l.3-.65.5-.7q.8-.85 2.4-.95l1.2.2.6.5.65.4 1.1-.2q.3-.15.55-.35-1-.6-1.7-1.8-.8-1.45-.9-3.5-.1-.9.1-1.55l.5-1.35q.9-1.7 1.85-2.6l.7-.5-.1-.25q-.4-1.05-.3-2.5 0-.9.15-1.35l.5-.9.45-.65-.2-.2-.25-.3-.4-.85-.05-.95.2-.95.3-.45.5-.5 1.25-.5h.65l1.05.05.4.2.7.55.55.9.4 1.15 1.5.35q1.3.55 1.95 1.65l.4.8q.65 1.7.5 3.15-.15 1.8-1.25 2.95-.95 1-2.4 1.35zm-2.1-6.15.1-.2-.05-.55-.1-.2-.5-.4-.3-.4-.25-.25-.1-.15-.05-.1v-.1l-.1-.1-.2-.3q-.05-.15-.3-.15t-.35.15l-.2.3v.55l.05.05.35.85h-.55l-.2-.1-.2-.05h-.2l-.1-.05-.3.1-.2.1-.05.15v.05l-.05.05q-.15.25 0 .5l.8.3.2.05.7.35v.05l.4.15.5.05.1-.05h.6l.25-.1.2-.25.1-.15zm2.05.8v.05l-.25.2-.05.15.05.4.3.3 1.35.65.3.1v.05l.75.25v-.05l.2-.1.05-.55-.1-.1v-.05l.1-.2.05-.25-.1-.4-.1-.1v-.05l.1-.25q0-.25-.35-.25l-.5.05-.85-.1-.55.1zM49.2 25.6l-.5 1.4-1.8 2.75-.25.3-.3.45 3.5-1.95Q51.2 27.6 53 25.5l1.55-2.25.25-.7-.2-.75q-.75-1.9-.95-2.9-.15-.9.05-2.15.45-2.25 1.85-3.35.9-.65 2.05-.75 1.2-.05 2.15.5 1.4.75 2 2.45.5 1.4.4 3.2-.05 1.85-.75 3.65-1 2.7-3.25 5.05-1.8 1.95-4.75 3.7l-.1.05-1.05.8-1.45.85q-4.9 2.5-8.3 3.2l-5.85.65-2.5.1-5.7-.5h-.05l-.7.85-1.1 1.35.85-.2 1.4-.3 4.05-.45q2.85 0 4.8.65 1.25.5 1.7 1.1.4.55.35 1.35 0 .75-.4 1.35-.7 1-2.25 1.75-1.2.55-4.55 1.3l-1.65.35q1.25.75 1.7 1.45.85 1.1.3 2.15-.55 1.1-1.95.9l-1.45-.5-1.7-.4-1.35-.6q-.85-.5-1.3-.65l-1.55-.5q-.5-.25-.75-.8t-.15-1.05q.25-.7.9-1.15.1-.1 1.3-.6l3.25-1 3.9-.75 1.55-.3-4.7.35-4.5 1.1-4.2.9-.15.05-1.1.65q-3.6 1.85-7.3.75-1.1-.35-1.85-.85-3.15 1.1-5.1 1.1l-2.4-.4q-.65-.25-1.4-.85L0 43.6V28.65h.9l.85.15.8.35.6.45 1.75 2.05.35.6q.6-.75 1.7-1.45 2.2-1.35 4.35-2.05l2.05-.55q5.95-1.4 10.45-1.25l.15.05v-.2q0-2.35.4-3.65.3-.95.75-1.75l.55-1.05-1.65-.5q-1.1-.4-1.5-.95-.3-.45-.25-1 .05-.6.4-1 .45-.35 1-.6l4.45-2.05q3.05-1.3 4.3-1.6l3.4-.45 1.8-.05 3.5.2q2.9.6 5.15 2.35l.75.7.75 1.05q1 1.55 1.4 3l.35 2.3-.1 2.1zm-10.35-3.8q.4-.75.35-1.65l-.7-.35-2.95-1.9-.8-.85q-.8.2-1.4.7-.85.8-1.1 1.85l-.1.9.05.75q.25 1.3 1.6 1.9l2.55.25.85-.2.75-.45zm7.75 3.9.55-.45q.05-.4-.65-.7l-1.15-.35-1.2-.15-1.15-.1v-.05l-.1-.2v-.3l-.05-.15v-.15l-.1-.2-.15-.15-.35-.3q-.3-.15-.65 0-.25.05-.45.45l-.05.05-.05.15v.1l-.15.3v.15l-.05.1-.05.05v.1l-6.15.9q-.5.1-.75.35-.35.25-.3.75 0 .5.35.75l1.8-.05 6.55-.85 2.55.05 1 .15zm2.35-5.6-.2-.35-.3-.35-.15-.15q-.45.5-1.5.85l-2.5.65v.35q-.1.8.1 1.3l.25.35 1.15 1 .7.15 1-.1 1.1-.75.5-1.3.05-.55zM10.4 36.4q2-2.2 3.15-3.1l1.8-1.25 2.9-1.55-3.5.8-1.6.55-.95.55-2 1.45-2.4 1.9-1.45.25q-.85-.05-1.35-.55l-.35-.55-.1.05-1.05.3-.5 1.3-.55 1.9q-.3 1.3.4 1.75l1.75-.1q1.75-.7 4.65-2.2z"/><path fill="#fff" d="m71.65 18.75.4-.15.55-.1.85.1.5-.05q.35 0 .35.25l-.1.25v.05l.1.1.1.4-.05.25-.1.2v.05l.1.1-.05.55-.2.1v.05l-.75-.25v-.05l-.3-.1-1.35-.65-.3-.3-.05-.4.05-.15.25-.2zm-2.05-.8v.15l-.1.15-.2.25-.25.1h-.6l-.1.05-.5-.05-.4-.15v-.05l-.7-.35-.2-.05-.8-.3q-.15-.25 0-.5l.05-.05v-.05l.05-.15.2-.1.3-.1.1.05h.2l.2.05.2.1h.55l-.35-.85-.05-.05v-.55l.2-.3q.1-.15.35-.15t.3.15l.2.3.1.1v.1l.05.1.1.15.25.25.3.4.5.4.1.2.05.55zM48.95 20.1l.2 1.1-.05.55-.5 1.3-1.1.75-1 .1-.7-.15-1.15-1-.25-.35q-.2-.5-.1-1.3v-.35l2.5-.65q1.05-.35 1.5-.85l.15.15.3.35zm-2.35 5.6-.75.25-1-.15-2.55-.05-6.55.85-1.8.05q-.35-.25-.35-.75-.05-.5.3-.75.25-.25.75-.35l6.15-.9v-.1l.05-.05.05-.1v-.15l.15-.3v-.1l.05-.15.05-.05q.2-.4.45-.45.35-.15.65 0l.35.3.15.15.1.2v.15l.05.15v.3l.1.2v.05l1.15.1 1.2.15 1.15.35q.7.3.65.7zm-7.75-3.9-.9.95-.75.45-.85.2-2.55-.25q-1.35-.6-1.6-1.9l-.05-.75.1-.9q.25-1.05 1.1-1.85.6-.5 1.4-.7l.8.85 2.95 1.9.7.35q.05.9-.35 1.65"/></g></svg>