<svg xmlns="http://www.w3.org/2000/svg" xmlns:ffdec="https://www.free-decompiler.com/flash" ffdec:objectType="shape" width="69.15" height="40.55"><g fill-rule="evenodd"><path d="m67.9 4.5.85 1 .3 1.1q.4 2.6-.9 4.85l-.75 1-1.15.75q-1.75.9-3.05.9l-1.55-.35q-1.9-.55-2.7-1.6-1.2-1.4-.95-3.9l.15-1 .3-.7q1.25-2.3 3.1-3.05-.2-.4-.05-.75.25-.6 1-.9l1.65-.25 1.8.3q.45.25.7.65t.05.85v.1zm-2.05.95-.65-.35-.75-.1-1.4-.1q-.95.05-1.6.65-.55.55-.9 1.6-.3.85-.3 1.25 0 .6.45 1.65l.3.6.75.4.9.4 1.7.1.9-.4.85-.65.5-.85.25-.55.3-1.55-.1-.65-.5-.85zm-2.35.75q.15-.2.45-.25t.5.15l.2.7.15 2.15-.1.75-.2.3q-.35.75-1.05.55l-.7-.6-.8-.95q-.4-.55-.25-.9.2-.4.75-.25l.75.4h.05l.15-1.55z"/><path fill="#fff" d="M45.7 9.55q-1-.75-.75-1.95.1-.65.6-1.1T46.7 6t1.25.3.8.95q.5 1.35-.65 2.3-.5.4-1.2.4-.65 0-1.2-.4m-3.4-.5q.65-.15.95.5l.15.9.3.6.55.35q1 .55 1.85.55l.8-.05q.5 0 .65.4l-.15.65q-.2.3-.6.45l-1.2.5-1.75-.15-1.55-.65-.35-.3-1.3.6q-1.7.55-3.95-.05-.8-.25-.9-.65-.1-.6.55-.85l1.1-.05 2.15-.1q1.2-.25 1.75-1.25l.35-.85q.25-.45.6-.55m-7.35.8q-.65-.6-.75-1.6 0-.95.6-1.65.9-1 2.2-.65l1.2.7q.5.55.55 1.2L38.5 9.2l-.95.95-1.35.25q-.7-.1-1.25-.55"/><path fill="#999" d="M22.45 28.35q-.2-.45.75-1.05 2.5-1.3 3.6-4.05.8-2-.15-3.15-1.25-1.45-4.3-.15l-4.75 2.1q-2.8 1.15-4.95 1.5-2.75.4-5.2-.45-2.7-.9-3.95-3-.95-1.65-1.15-4.5-.1-3.15.95-5.3 1.5-3.1 6.2-5.1l.9-.5q2.15-1 5.4-1.95Q26.65-.45 35.1.05l1.1.1q3.45.1 6.7 1.05 2.35.65 3.9 1.6l2.35-.4 1.5-.05q.85.15 1.2.8t.1 1.45l-.75 1.3-.45.75-.7 1L50.1 10q-.2 2.15-.75 3.35-.7 1.4-2.5 2.45-4.2 2.5-11.1 1.6l-3.3-.85q-1.95-.8-3.35-2.4l-.5-.6-4.75-1.1q-5.1-.65-10 1.35-2.35.95-4 2.55-.5.5-.7 1.1-.2.7.2 1.15.25.25.85.35 2.75.6 7.1-1.25l3.4-1.35q2-.7 3.55-.8 1.95-.1 3.6.7 1.8.9 2.4 2.55.55 1.4.1 3.3-.55 2.55-2.5 4.4-1.95 1.9-4.45 2.15-.75.1-.95-.3m12.5-18.5q.55.45 1.25.55l1.35-.25.95-.95.25-1.35q-.05-.65-.55-1.2l-1.2-.7q-1.3-.35-2.2.65-.6.7-.6 1.65.1 1 .75 1.6m7.35-.8q-.35.1-.6.55l-.35.85q-.55 1-1.75 1.25l-2.15.1-1.1.05q-.65.25-.55.85.1.4.9.65 2.25.6 3.95.05l1.3-.6.35.3 1.55.65 1.75.15 1.2-.5q.4-.15.6-.45l.15-.65q-.15-.4-.65-.4l-.8.05q-.85 0-1.85-.55l-.55-.35-.3-.6-.15-.9q-.3-.65-.95-.5m3.4.5q.55.4 1.2.4.7 0 1.2-.4 1.15-.95.65-2.3-.2-.6-.8-.95T46.7 6t-1.15.5-.6 1.1q-.25 1.2.75 1.95M0 35.35q-.05-1.9 3.1-3 3.45-1.1 8.15-1.45l8.35-.25 7.9-.35 7.95-.25q10.8-.2 26.65 1.7 2.25.2 3.45.9.8.5 1.25 1.35t.25 1.7q-.4 1.6-3.15 2.4-4.7 1.45-10.6 2l-10.85.45-33-1.55-5.9-.85q-1.5-.3-2.3-.8-1.2-.8-1.25-2"/><path d="M57.7 22.45q.85 1.45 1.15 3.05.25 1.4-.15 4.15l-.35 1.75.2.2 1.65 2.2q1 1.6.35 2.55-.5.75-2.2.85l-3.5.2-.5.05-.55.35q-.75.5-2.45 1.2-3.75 1.4-6.75.8-3.25-.55-5.95-3.35l-.55-.55-1.4.9q-5.3 2.85-12.1 1.75-2.9-.45-4.8-1.6-2.5 0-4.8-1-2.75-1.2-4.45-3.4l-.85-1.3q-1.95-3.5-1.75-10.55 0-1.8.6-2.55.6-.7 1.65-.75 1 0 1.65.65.45.55.6 1.45l.05 1.65q-.1 2.65.15 4.4.35 2.2 1.15 3.55.85 1.55 2.25 2.4L16 29.95q.1-1.65.5-2.6l.75-1.45-.05-.05-.3-1q-.8-2.4-1.1-4.1l-.4-2.45q-.2-1.95.65-3.85.35-.9.95-1.35.75-.6 1.85-.45.95.05 1.8.75l.9.95.35 1.35q.4 3.1.15 6.1l-.1.75.35-.15q3.3-1.2 6.95-1.05l2.6.3.05-4.9.2-2.65.35-1.25.45-1q.6-.9 1.8-1.15l2.15.05q1.3.2 1.8.95.25.3.35 1.15l.05.9-1.3 5.95-.3 1.35-.15 1.55-.2.85.25.15q.75-1.4 1.8-2.6 2-2.25 4.85-3.4 2.9-1.1 5.85-.85l1.3.2.7-.35q1.3-.5 2.2-1.1l1.05-.65 1.2-.3q1.05.1 1.4 1.1l-.05 1.8-.1.75-.25.6-.4 1.2-.2.75zm-7.6 3.9.1-.6-.1-1.25 1.8-.45.7-.45q.25-.5-.05-.9t-.85-.4l-.9.3-1 .35-.05-.3-.4-1.5-.7-.6-.7.1q-.2-.05-.35.15l-.15.5.45 1.65.05.4q-1.1.3-1.7.75l-.3.5.35.3.5-.05 1.4-.2.2.75.05.75.4.55.7.05.3-.1zm-6.55 7.2 1.1-1.45.65-.75.15-.25h.05l.8-.1 1.4-.15q.95-.2.85-.95-.05-.65-.9-.85l-1.3-.1-1.1-.15-.15.05-.05-.05-.6-.45-.3-.45-1.5-.8-.5.1q-.25.2-.05.65l.45.6.35.85.35.95-.2.4-.5 1.15-.45.6q-.25.75.2 1.2.35.35.7.25zm7.65-2.25-.3.5-.25.65-.5-.4q-.55-.45-1.05-.45-.75 0-.85.65-.05.4.3.75l.75.45.7.45-.55 1.25-.15.5q.1.6.65.7.45.15.85-.35l.4-1.25 1.15.9.65.15.3-.3-.05-.5-.6-.65-1.05-1.05.4-1.5q.3-.55.05-.8l-.5-.05z"/><path fill="#fff" d="m51.2 31.3.35-.35.5.05q.25.25-.05.8l-.4 1.5 1.05 1.05.6.65.05.5-.3.3-.65-.15-1.15-.9-.4 1.25q-.4.5-.85.35-.55-.1-.65-.7l.15-.5.55-1.25-.7-.45-.75-.45q-.35-.35-.3-.75.1-.65.85-.65.5 0 1.05.45l.5.4.25-.65zm-7.65 2.25-.55.3q-.35.1-.7-.25-.45-.45-.2-1.2l.45-.6.5-1.15.2-.4-.35-.95-.35-.85-.45-.6q-.2-.45.05-.65l.5-.1 1.5.8.3.45.6.45.05.05.15-.05 1.1.15 1.3.1q.85.2.9.85.1.75-.85.95l-1.4.15-.8.1h-.05l-.15.25-.65.75z"/></g></svg>