<svg xmlns="http://www.w3.org/2000/svg" xmlns:ffdec="https://www.free-decompiler.com/flash" ffdec:objectType="shape" width="68.1" height="40"><g fill-rule="evenodd"><path fill="#999" d="m51.45 25.8-.6-.15 2.5 2.1 1.3.95 1.3.8 2.7 1.05.9.15.7-.25.6-.3.6-.6q1.35-1.7 3.35-1.45.95.1 1.8.65.8.6 1.2 1.45.5 1.15.15 2.55-.3 1.25-1.25 2.2-1.75 1.65-4.75 1.75-2.9.05-5.8-1.3l-3.1-1.95-.9-.75q1 1.95 2.35 4l.65 1.3q.35 1.1-.1 2h-15.4q-.35-.9-.45-2.25l-.1-2.25-1.95-1.25q-1.5-1.15-2.3-2.85-.8-1.75-.6-3.55.1-1.15 1-3.05l.7-1.2L38 21.45l1.5-1.1q1.7-1.2 3.15-1.65l.7-.15-.05-.2q-.8-2-.8-4.8 0-1 .15-1.5l.45-1.25 1.15-2.35q1-1.6 2.5-2.7Q48.7 3 51.25.8q.35-.35.75-.5.95-.35 1.9.6l1.2 1.75.8 1 .3.5 2.25 1.05q1.9.9 3.1 2.4 1.25 1.5 2.05 3.35.85 1.8 1.1 3.2l.05.5 2.1 2.6.55.9.1.95q-.15.75-.95 1.4l-1.6.75-2.35.7-1.3 1.6-1.05 1.05q-2.2 1.65-6.2 1.45zm.05-15.25q-1.2.95-1.2 2.5-.1 1.5 1.15 2.5 1.2 1 2.7.7 1.15-.25 1.8-1.05.7-.8.8-1.9.1-1.65-1.15-2.7-.8-.75-2.05-.75-1.1 0-2.05.7m6.9 12.4q.9.65 2.05.5 1.15-.25 1.75-1.15.85-1.25.25-2.55-.6-1.35-2-1.6-1.55-.15-2.45.9-.95 1.05-.55 2.5l.35.75zM35.95 3.3l-1.9-.25L32.2 3q-2 .2-3.7 1.25l-.35.05-.15-.35.3-.5q2.3-2.3 5.25-2.75L35.5.65l2.9.35.1-.35.2-.35q.25-.35.65-.3.35.05.6.4l.45.8.9 3 .1.25q.35.8 0 1.35l-.55.35h-.75l-1.9-.2-.8.1q-.35-.1-.55-.55-.25-.35-.2-.75l.1-.65.2-.2.1-.05zm-3.2 13.9 1.9.25 1.9.05q2-.15 3.65-1.25l.4-.05.1.35-.3.55q-2.25 2.3-5.25 2.7l-1.95.1-2.85-.35-.15.35-.2.3-.6.35-.65-.45-.45-.8-.8-2.55-.05-.4-.15-.3q-.35-.75 0-1.35.2-.25.6-.3h.7l1.95.15.8-.05.55.5.2.8-.15.6-.2.25-.05.05zm19.1.65v-.2l-.2-.55q-.25-.25-.6-.15l-.1.05-.25.3-.15.3-.1.35-.15.7.15.8.7.75.9.4.7.1h.05l-.1.35-.05.8.05.2.5.85q.25.2.85.4l.6.2 1.1-.15.2-.15.1-.35q-.05-.3-.45-.5l-.65-.15-.5-.35.1-.75.4-.3.1-.1.1-.2v-.85l-.05-.2-.1-.25-.15-.15-1.05-.15-.8.15-.4-.1-.55-.3-.25-.35v-.25zM39.05 28.3q.05.7.65 1.2.55-3.05 1.75-6.05-1.4 1.35-2.2 3.45-.3.9-.2 1.4"/><path fill="#fff" d="m58.4 22.95-.6-.65-.35-.75q-.4-1.45.55-2.5.9-1.05 2.45-.9 1.4.25 2 1.6.6 1.3-.25 2.55-.6.9-1.75 1.15-1.15.15-2.05-.5m-6.9-12.4q.95-.7 2.05-.7 1.25 0 2.05.75 1.25 1.05 1.15 2.7-.1 1.1-.8 1.9-.65.8-1.8 1.05-1.5.3-2.7-.7-1.25-1-1.15-2.5 0-1.55 1.2-2.5m.35 7.3-.05.2v.25l.25.35.55.3.4.1.8-.15 1.05.15.15.15.1.25.05.2v.85l-.1.2-.1.1-.4.3-.1.75.5.35.65.15q.4.2.45.5l-.1.35-.2.15-1.1.15-.6-.2q-.6-.2-.85-.4l-.5-.85-.05-.2.05-.8.1-.35h-.05l-.7-.1-.9-.4-.7-.75-.15-.8.15-.7.1-.35.15-.3.25-.3.1-.05q.35-.1.6.15l.2.55zM15.95 10l.1-.05q1.6 0 2.4 1.4.6 1.15.25 2.2h-.1l-.5.2q-.8.3-1.15.55l-.75.6-.35.45-.05.1q-1.15-.1-1.8-.95.9-1.85.85-4.2.5-.3 1.1-.3M13.1 20.1l.1-.2-.05-.1.05-.1v-.2l-.05-.1-.15-.2v-.1l-.35-.45-.05-.15-.2-.2-.05-.2-.2-.35v-.15l-.05-.25q0-.3.25-.4h.5l.4.3 1.3.8.15-.05 1.05-.1.25-.05h.2l.5-.1.65.05q.4.1.5.3v.45l-.4.25-.15-.05-2 .75-.3.15-.2.1-.1.3-.1.1v.2l-.1.3-.15.25-.05.1-.05.2-.2.4v.25L14 22v.1l-.05.25-.2.1v.05q-.3 0-.45-.2l-.2-1 .05-.25-.05-.45-.05-.15v-.1l.05-.05zM7 22.8l-.45-.3-.3-.3q-.55-.6-.65-1.45-.15-.85.25-1.6l.25.1L8 19.2l2.2-.95q.65.5.85 1.3l.1.4L11 20l-.55.5-.3.45-.45 1.15-.1.2-.1.65-.85.2z"/><path d="m34.7 4.7 1.4.45q2.1.85 3.55.45l1.45-.55q.9-.25 1.45.25.45.4.25 1.55l-.5 2.3q-1.4 5.1-6.2 8l-1.4.7-.55.1-.6-.1-1.45-.7q-4.8-2.9-6.2-8l-.5-2.3q-.2-1.15.25-1.55.55-.5 1.45-.25l1.45.55Q30 6 32.1 5.15l1.4-.45zm-3.3 9.05 2.7 2.7 3.1-3.05q2.15-2.35 2.9-5.4l-2.1.1-2.25-.2-.75-.15-.5-.15-.35-.1-.05-.05-.9.3-.75.15-1.6.15-.65.05-2.1-.1q.4 1.6 1.2 3l1.25 1.85.45.55zM16.65 25.8l-2.6.25q-4 .2-6.2-1.45L6.8 23.55l-1.3-1.6-2.35-.7-1.6-.75q-.8-.65-.95-1.4l.1-.95.55-.9 2.1-2.6.05-.5q.25-1.4 1.1-3.2.8-1.85 2.05-3.35 1.2-1.5 3.1-2.4 1.85-.9 2.25-1.05l.3-.5.8-1L14.2.9q.95-.95 1.9-.6l.75.5q2.55 2.2 4.5 4.95 1.5 1.1 2.5 2.7L25 10.8l.45 1.25.15 1.5q0 2.8-.8 4.8l-.05.2.7.15q1.45.45 3.15 1.65.95.6 1.5 1.1l2.05 2.15.7 1.2q.9 1.9 1 3.05.2 1.8-.6 3.55-.8 1.7-2.3 2.85L29 35.5l-.1 2.25-.45 2.25h-15.4q-.45-.9-.1-2l.65-1.3 2.35-4-.9.75-3.1 1.95q-2.9 1.35-5.8 1.3-3-.1-4.75-1.75-.95-.95-1.25-2.2-.35-1.4.15-2.55.4-.85 1.2-1.45.85-.55 1.8-.65 2-.25 3.35 1.45l.6.6.6.3.7.25.9-.15 2.7-1.05 1.3-.8 1.3-.95 2.5-2.1zM7 22.8l1.65.35.85-.2.1-.65.1-.2.45-1.15.3-.45.55-.5.15-.05-.1-.4q-.2-.8-.85-1.3L8 19.2l-1.9.05-.25-.1q-.4.75-.25 1.6.1.85.65 1.45l.3.3zm6.1-2.7v.2l-.05.05v.1l.05.15.05.45-.05.25.2 1q.15.2.45.2v-.05l.2-.1.05-.25V22l.05-.15v-.25l.2-.4.05-.2.05-.1.15-.25.1-.3v-.2l.1-.1.1-.3.2-.1.3-.15 2-.75.15.05.4-.25v-.45q-.1-.2-.5-.3l-.65-.05-.5.1H16l-.25.05-1.05.1-.15.05-1.3-.8-.4-.3h-.5q-.25.1-.25.4l.05.25v.15l.2.35.05.2.2.2.05.15.35.45v.1l.15.2.05.1v.2l-.05.1.05.1zM15.95 10q-.6 0-1.1.3.05 2.35-.85 4.2.65.85 1.8.95l.05-.1.35-.45.75-.6q.35-.25 1.15-.55l.5-.2h.1q.35-1.05-.25-2.2-.8-1.4-2.4-1.4zm13.1 18.3q.1-.5-.2-1.4-.8-2.1-2.2-3.45 1.2 3 1.75 6.05.6-.5.65-1.2"/><path fill="#999" d="m34.15 7.5.35.1.5.15.75.15 2.25.2 2.1-.1q-.75 3.05-2.9 5.4l-3.1 3.05-2.7-2.7.3-.8.4-1.1.25-.5.6-1.3.7-1.8zm-3.6 5.35L29.3 11l.4-.9.9-1.6.25-.45 1.6-.15-.85 2.1-.1.35z"/></g></svg>