<svg xmlns="http://www.w3.org/2000/svg" xmlns:ffdec="https://www.free-decompiler.com/flash" ffdec:objectType="shape" width="68.45" height="39.6"><g fill-rule="evenodd"><path fill="#999" d="M66.15 24.4 65 23.85h-.6l-.6.05-1 .1-1.15.55-.35-.15.1-.45.95-1.1 1.3-1.05q.55-.35 1.5-.55 1.5-.3 2.4.3.55.3.8.9.25.65 0 1.2-.25.6-.95.8zM44.85 11l-1.15.6-.9.5-.45.15-.25-.25v-.4l.4-.45q2.15-1.75 3-4.45l.15-.7v-.9l-.3-1.1-.3-.35q-.35-.5-.3-1.15 0-.65.4-1.1L46.2.85q.65-.05 1.15.35l.7 1 .25.8v1l-.45 2.85q-.5 1.25-2.1 3.2zM58.1 22.05q.85 1.45 1.15 3.05.25 1.4-.15 4.15L58.75 31l.2.2 1.65 2.2q1 1.6.35 2.55-.5.75-2.2.85l-3.5.2-.5.05-.55.35q-.75.5-2.45 1.2Q48 40 45 39.4q-3.25-.55-5.95-3.35l-.55-.55-1.4.9q-5.3 2.85-12.1 1.75-2.9-.45-4.8-1.6-2.5 0-4.8-1-2.75-1.2-4.45-3.4l-.85-1.3q-1.95-3.5-1.75-10.55 0-1.8.6-2.55.6-.7 1.65-.75 1 0 1.65.65.45.55.6 1.45l.05 1.65q-.1 2.65.15 4.4.35 2.2 1.15 3.55.85 1.55 2.25 2.4l-.05-1.55q.1-1.65.5-2.6l.75-1.45-.05-.05-.3-1q-.8-2.4-1.1-4.1l-.4-2.45q-.2-1.95.65-3.85.35-.9.95-1.35.75-.6 1.85-.45.95.05 1.8.75l.9.95.35 1.35q.4 3.1.15 6.1l-.1.75.35-.15q3.3-1.2 6.95-1.05l2.6.3.05-4.9.2-2.65.35-1.25.45-1q.6-.9 1.8-1.15l2.15.05q1.3.2 1.8.95.25.3.35 1.15l.05.9-1.3 5.95-.3 1.35-.15 1.55-.2.85.25.15q.75-1.4 1.8-2.6 2-2.25 4.85-3.4 2.9-1.1 5.85-.85l1.3.2.7-.35q1.3-.5 2.2-1.1l1.05-.65 1.2-.3q1.05.1 1.4 1.1l-.05 1.8-.1.75-.25.6-.4 1.2-.2.75zm-13.45 10-.7-.4q-.25-.4.05-1.05l.15-.3q.15-.2.55-.3l.65-.25.35-.5q.1-.5-.3-.8l-.55-.2-.8-.25-.4-.15q-.15-.15-.15-.45l-.05-.5-.05-.4.3-.35.75-.55.2-.15.05-.4-.4-.25-.5.1q-.65.25-1.05.65l-.35.6-.1.55-.05 1 .25.9.7.6-.45.5-.15.35-.15.45-.05.8.05.6.25.55.85.75.65.35 1.25.15.5-.2.3-.55-.3-.6zm6.95-1.15-.3.5-.25.65-.5-.4q-.55-.45-1.05-.45-.75 0-.85.65-.05.4.3.75l.75.45.7.45-.55 1.25-.15.5q.1.6.65.7.45.15.85-.35l.4-1.25 1.15.9.65.15.3-.3-.05-.5-.6-.65L52 32.9l.4-1.5q.3-.55.05-.8l-.5-.05zm-1.1-4.95.1-.6-.1-1.25 1.8-.45.7-.45q.25-.5-.05-.9t-.85-.4l-.9.3-1 .35-.05-.3-.4-1.5-.7-.6-.7.1q-.2-.05-.35.15l-.15.5.45 1.65.05.4q-1.1.3-1.7.75l-.3.5.35.3.5-.05 1.4-.2.2.75.05.75.4.55.7.05.3-.1zM25.65 13.8q.7.8 1.1 3.05l.1.95-.45 1.7-.3.35q-.3.15-.5-.3l-.1-.65-.45-1.25-.75-1.2-.35-.6-.45-.25q-.7-.4-.8-1.1-.15-.7.45-1.25.5-.45 1.35-.25.75.25 1.15.8M11.6 6.9l.3.8v.5l-.2.2-.25-.1-.1-.15-.3-.2-.95-.45-1.55-.65-1.25-.4-.55-.1-1.05.05q-.9 0-1.45-.7-.5-.8-.2-1.6.3-.85 1.2-1.1H6.4l1.55.35q1.05.35 2.1 1.6l.4.4.45.3.3.45zM2.85 18.5l-.15.55q-.15.65-.8.9l-1.25-.1q-.5-.3-.6-.9-.15-.6.1-1.15.45-1.1 1.7-1.5l2.3-.2q1.25.15 2 1l.3.65q0 .5-.4.6l-.8-.4L3.5 18z"/><path fill="#fff" d="m50.5 25.95-.25.3-.3.1-.7-.05-.4-.55-.05-.75-.2-.75-1.4.2-.5.05-.35-.3.3-.5q.6-.45 1.7-.75l-.05-.4-.45-1.65.15-.5q.15-.2.35-.15l.7-.1.7.6.4 1.5.05.3 1-.35.9-.3q.55 0 .85.4t.05.9l-.7.45-1.8.45.1 1.25zm1.1 4.95.35-.35.5.05q.25.25-.05.8l-.4 1.5 1.05 1.05.6.65.05.5-.3.3-.65-.15-1.15-.9-.4 1.25q-.4.5-.85.35-.55-.1-.65-.7l.15-.5.55-1.25-.7-.45-.75-.45q-.35-.35-.3-.75.1-.65.85-.65.5 0 1.05.45l.5.4.25-.65zm-6.95 1.15 1.3.3.3.6-.3.55-.5.2-1.25-.15-.65-.35-.85-.75-.25-.55-.05-.6.05-.8.15-.45.15-.35.45-.5-.7-.6-.25-.9.05-1 .1-.55.35-.6q.4-.4 1.05-.65l.5-.1.4.25-.05.4-.2.15-.75.55-.3.35.05.4.05.5q0 .3.15.45l.4.15.8.25.55.2q.4.3.3.8l-.35.5-.65.25q-.4.1-.55.3l-.15.3q-.3.65-.05 1.05z"/><path d="M65 4.4q1.25.65 1.4 2 .25 1.35-.8 2.25-.5.5-2.45 1.05l-4.55 1.5-2.3 1-2.05 1.6-2.75 2.6q-1.65 1.4-3.2 1.9l-.55-.1q-.05-.25.25-.45 1.55-1.1 3.2-3.25l2.8-3.7 1.5-1.75q3.75-4.1 6.8-4.85zm-3.1 12.35.25-.35-.05-.65q-.05-.5.3-1 .35-.45.9-.55l.65.1.25.45.1.55q.95-.1 1.2.5l-.05 1-.2.45-.45.15-1.25.15-.9.05-.55-.1q-.4-.25-.2-.75M54.95 4.5l-.75.7-.6.8-.6 1.05-.35.7-.2.55q-.5-.2-.6-1.15-.3-2.65.9-4.15.5-.5.85-.6.9-.25 1.45.55.45.75-.1 1.55M19.6 16.8q-2-.2-3.55-1.3-1.7-1.2-2.05-2.95-.65-2.85 2.4-6Q20.8 2.15 28.6.6 34-.5 38.5.35q5.35 1 8.9 4.3 1.75 1.75 2.25 3.3.75 2.25-.25 4.7-.95 2.25-2.95 3.85-1.7 1.35-4.2 2.35l-4.65 1.5q-6.1 1.85-8.65 4.25-1.7 1.7-1.75 3.3 0 1.05-.55.9-.8-1.5-.05-3.3.5-1.25 2-2.7 3.4-3.2 9.3-5.3l3.7-1.35q2.05-.85 3.35-1.9 1.35-1.05 1.4-2.15.05-.9-.75-1.65-.65-.65-1.65-1-3.6-1.25-8.45.85-1.6.7-3.85 2.1l-3.75 2.2q-4.6 2.5-8.3 2.2m5.7-10.45q-1.45-.1-2.25.85-.6-.35-1.35-.45l-1.45.15q-.7.3-1.1 1.1-.35.75-.35 1.6l.25.8.7.4 1.65.55q.45.1.7.35l.25.3v.35q.1.35.4.35l.5-.3.1-.15.1-.15q.35-.45 1.25-.75l1.45-.6q1.05-.75 1.2-2.15l-.25-1.25q-.5-.9-1.8-1M14.1 4.8l-.75.05-.4-.25-.8-.45q-.4-.45-.3-1.1 0-.55.35-.85l.55-.2.85.25.35.15q.2-.35.8-.35l.8.25q.4.25.3.7l-.2.45-.8.75-.4.2zm-8.5 7.85q-.85-.2-1-.75-.15-.4.15-.95.2-.65.55-.9.55-.55 2-.55.45-.95 1.5-.95.6-.1 1.1.4.5.45.35 1.1L9.4 11.1q-.7.7-.55 1.25l.05.3-.15.2H8.5l-.35-.4zm.5 12.75q-1.05-.75-1.15-2-.05-1.2.65-2.25.65-.9 2.15-1.65 2.3-1.1 4.25-1.05 2.15 0 4.9 1.25l2.35 1.4q3.1 2.35 4 6.4l.05.6-.4.4q-.4.05-.7-.45l-1.45-2.15-.85-1-.8-.35q-3.7-1.4-7.4 0l-2.75 1.1zm7.85 2.65q.85-1.15 2.8-.65 1.95.4 3.25 1.85l.25.7-.5.3-.6-.1-2.7.1-1.2.4q-1 0-1.5-.9-.4-.9.2-1.7m-9.1 4.25-.3.05-.45.3-.85.15q-.8-.1-1-.4l-.15-.55.1-.75q.15-.4.55-.55l.3-.1.1-.35q.1-.85.45-1.1.25-.2.65-.2.7-.1 1.2.4.5.65.1 1.2l-.2.35.35.3.3.15.15.5-.2.5-.4.1h-.7"/><path fill="#fff" d="M25.3 6.35q1.3.1 1.8 1l.25 1.25q-.15 1.4-1.2 2.15l-1.45.6q-.9.3-1.25.75l-.1.15-.1.15-.5.3q-.3 0-.4-.35V12l-.25-.3q-.25-.25-.7-.35l-1.65-.55-.7-.4-.25-.8q0-.85.35-1.6.4-.8 1.1-1.1l1.45-.15q.75.1 1.35.45.8-.95 2.25-.85"/></g></svg>