<svg xmlns="http://www.w3.org/2000/svg" xmlns:ffdec="https://www.free-decompiler.com/flash" ffdec:objectType="shape" width="70.8" height="38"><g fill-rule="evenodd"><path fill="#999" d="m59.05 32.7-1.8-2.5-1.85-2.8-1.6-1.6-1.65-1.6q-.65-.65-.55-1.25.05-.45.55-.75l1-.15 1.65 1.1 5.85 5.65q.85-1.6 1.45-2.1.5-.45 1.15-.55l1.2.2.95.95 5 7.65q.6.9.3 1.55-.4.55-1.15.35-.55-.15-1.1-.75-1.65-1.7-4.45-5.5l-.55.95-.4 1q-.55 1.3-1.45 1.5-.75.15-1.45-.3zM62.6 7.3 64.45 5l2.5-2.95Q68 .8 68.95.95l.7.45.2.8-.45 1.1-5.05 7.1q-.95 1.15-1.65 1.25-.95.05-1.8-1.1L59.6 8.7l-5.4 5.35q-.5.4-.8.35-.4-.05-.5-.65l.25-.8 1.15-2.15 2.25-3.15L58 5.8l1-.85q.75-.35 1.5 0l1.1 1.1zM11.75 32.7l-1.1 1.05q-.7.45-1.45.3-.9-.2-1.45-1.5l-.4-1-.55-.95-4.45 5.5-1.1.75q-.75.2-1.15-.35-.3-.65.3-1.55l5-7.65q.55-.75.95-.95l1.2-.2q.65.1 1.15.55.6.5 1.45 2.1L16 23.15q1.1-.95 1.65-1.1l1 .15q.5.3.55.75.1.6-.55 1.25L17 25.8l-1.6 1.6-1.85 2.8zM8.2 7.3l1-1.25q.55-.85 1.1-1.1.75-.35 1.5 0l1 .85 1.45 1.85 2.25 3.15 1.15 2.15.25.8q-.1.6-.5.65l-.8-.35-5.4-5.35-1.3 1.85q-.85 1.15-1.8 1.1-.7-.1-1.65-1.25L1.4 3.3Q1 2.6.95 2.2t.2-.8l.7-.45q.95-.15 2 1.1L6.35 5z"/><path d="m41.3 6 .6-1.3L44 1.15q.5-.75 1-1L46.25 0h2.4l1 .15L50.8.3q.7.1 1.05.5.6.75 0 2.05l-.55.95-.4 1-.4 1.3-.75.35Q48.5 6.8 46.1 7.9l-2.05.95-.6.5-1.65.05q-.9-.55-.8-1.5l.2-1zm6.4-1.45.55-.3.2-.45.6-1.25-2.6-.1-.85 1.7-.85 1.7 1.25-.6zm-10.15 12.5.35-.7.6-.65 1.25-1 .9-.55q.6-.55.65-1.25-.05-.85.05-1.25.15-.65.6-1 .45-.3 2.25-.55l2.15-.6q1.25-.25 2.1.35.65.65.6 1.55l-.15.6.3 3.35q0 4.8-1.7 7.95-1 1.9-2.6 3.15-1.15.9-2.4 1.35l.05 3.7-.2 2.6q-.35 1.5-1.55 2l-1.5.3h-.05l-.55.7q-1 1-2.7.9l-.7-.1q-.8-.25-1.5-1.05l-.5-.75-.05-.15-1.9-.55q-1.25-.65-1.6-1.65l-.2-1.55.3-3.3.15-.85-.15-.05q-3-.85-5-2.3-2.5-1.75-3.45-4.2-.45-1.15-.65-3.1-.4-5.25 1.75-9.9 1-2.35 2.45-3.8 1.45-1.5 3.9-2.7Q32.8-.05 36.3 0l2.2.2 1.75.3 1.1.35.9.45q.7.6.45 1.5l-1.15 1.45-1.35 1.6-1.7 2.25-.1.4.15.3.85 1.2.45 1.05q.4.65.05 1.5l-.4.75-2.55 3.25-.15.15.05.95.1.7.55-1.2zm5.1 4.95q1.15-1.2 1.6-3.1.55-2.05.3-4.75v-.1L44.1 14q-.5 2.15-1.5 2.7l-.75.3-.6.25-.2.05q-.85.3-1.4 1.1l-.2.4-.4 1.05-.75 1.35-.5.45-.3.25-.75.15-.7-.45-.5-.75-1.1-1.8-.1-.15q-.5-.95-.65-1.75-.1-.75.1-1.25l.15-.4.5-.8L36.5 12l-.2-.45-.95-1.35q-.5-.8-.65-1.5-.15-.85.45-1.5l.5-.4.45-.65.9-1.05-2.2-.25-.6-.05q-1.25.35-2.65 1.05-2 1.1-2.85 1.95-1.15 1.15-1.9 3-1.4 3.2-1.15 6.7.1 1.55.5 2.35.85 1.8 3.2 2.7l.55.2 2.2.85 1.3 1 .1.05.45.4.1.15 1.8.1 2.3.2q.25-.65 1-1.2l.5-.3.75-.45 1.3-.75zm-8.55 8.85.05.4.45.15 3.75.15-.2-2.65v-.1l-.05-.4h-2l-1.55.1-.25 1.55z"/><path fill="#999" d="m36.95 16.55.4.4.15.15.05-.05-.05.1-.55 1.2-.1-.7-.05-.95zm4.3.7.9 1.15.5 1.3.05 1.75-.05.55-.95.8-1.3.75-.75.45.55-1.25.35-1.75q.1-.75-.15-1.15l-.35-.5-.35-.55h-.25l.2-.4q.55-.8 1.4-1.1zm-7.75 7.4-.1-.05-1.3-1-2.2-.85-.55-.2-.1-.5q-.05-.7.2-1.6.55-2.55 2-3.55.7-.5 1.8-.85l.55-.15q-.2.5-.1 1.25.15.8.65 1.75h-.1l-.75.4-.6.75q-.55 1.05-.4 2.25.1 1 1 2.35m.6 6.2.2-.8.25-1.55 1.55-.1h2l.05.4v.1l.2 2.65-3.75-.15-.45-.15z"/></g></svg>