<svg xmlns="http://www.w3.org/2000/svg" xmlns:ffdec="https://www.free-decompiler.com/flash" ffdec:objectType="shape" width="75.45" height="42.7"><g fill-rule="evenodd"><path fill="#999" d="m8.8 20-.5 2.1 1.75.95q1.15.65 1.15 1.55 0 .65-.95 1.4-1.25.85-1.4 1.05l-.25.6q-.05.4.4 1.15.45.7.4 1.15l2.1-.1q1.35-.1 1.95.55l.35.65.05.05.1.1.05.1.05.15v.1l.05.1v.1l.05.1.05.1.1.1.1.1.1.1.1.1.1.1.05.1.05.1.05.1.05.1.05.15v.1l.05.1.05.1v.1l.05.1v.1l.05.1v.6l-.05.1v.1l-.05.15v.1l-.05.1-.05.1-.1.1-.05.1-.05.1-.1.1-.05.1-.1.1-.1.1-.1.1-.1.1-.05.1-.1.1.1.15.2.1.15.1.15.1.25.1.3.05h.2l.1-.05.1-.1.1-.1.15-.1.1-.1.15-.15.05-.1.05-.1.05-.1.1-.1.1-.1.15-.1.1-.05.1-.05.15-.05h.7l.2.1.2.1.25.1.2.1.2.1.2.1.1.1.15.1.25.1.2.1h.05l.35.1.25.1.1.1.1.1.1.1.1.1.05.1v.1l.05.1.05.1v.1l.05.1.05.1v.35l.05.1v.4l.8.05.15-.1.2-.1.2-.05.25-.05.4-.05h.15l.4.1.2.1.2.1.1.1.15.1.1.1.1.1.1.1.1.1.1.1.1.1.1.15.15.1.1.1.05.1.05.1.1.1v.1l.05.1.05.1.05.1v.4l-.05.1-.05.15-.05.1v.1l-.1.1-.05.1-.05.1-.1.1-.15.1-.15.1-.25.1-.4.05H2.3l-.4-.05-.25-.1-.2-.1-.1-.1-.1-.1-.1-.1-.05-.1-.05-.1-.05-.1-.05-.1-.05-.15v-.15l-.1-.05-.2-.1-.1-.1-.1-.15-.1-.1-.05-.1-.1-.1v-.1l-.05-.1-.05-.1v-.3l-.05-.1V31.7l.05-.1v-4.25l.05-.1v-.7l.05-.1V5.6l.05-.1v-.75l.05-.1v-.7l.05-.1V3.6l.05-.1v-.45l-.1-.1-.05-.1-.05-.1-.05-.1-.05-.1v-.6l.05-.1.05-.1V1.6l.05-.1.05-.1.1-.1.1-.1.1-.1L.7 1 .9.9l.15-.05.1-.05h.3V.75h1.7L4.5.8l.9.05H6L7.7.9l1.45.05h3.05l.6.05.3.05h.3l.2.05h.05l.95-.55q.7-.2 1.1.25.3.4.05 1l-.75.8-.95.6q-.5.4-.6.85l.75 1.15q.55.65.55 1.15.05.7-.7 1.25l-1.3.75q-.8.5-.9 1.1-.05.35.25 1.15.3.75.2 1.15 1.35.25 1.95 1.5.55 1.05.3 2.5-.25 1.05-.85 1.5-.45.3-1.55.4L10.2 18l-.45.2-.05-.1.05-1.1q.1-.7-.25-1.05-.25-.3-1.05-.3-.9 0-1.2.3-.4.35-.3 1L7 18.1l-.15.8q-.05.45.15.7.25.35.95.45zM30.95 1.85q0 .55-.75 1l-1.25.45-1.1.55q-.75.3-1.2-.15l-.4-.7L25 1.95q-.85-.6-.7-1.3l.4-.5.7-.1.85.55h.6l2.3.05L30.3.9q.65.35.65.95m22.1 1.25-1.25.45-.6-.15-.65.05-.65.2-1.7-.2q-.85-.35-1.4-1.15-.4-.6-.35-1.1.15-.65.85-.9l1.3-.15 4.1.05 1.4.3q.45.3.5.9.1.65-.3 1.05zm11.35 15-.05-.05-.05-.1v-.1l-.1-.1-.05-.1-.15-.15-.1-.1-.1-.1-.1-.1-.1-.1-.1-.1-.05-.1-.05-.1-.1-.1-.1-.1-.1-.1-.1-.1-.1-.1-.05-.1-.05-.1-.1-.15-.05-.1-.1-.1v-.1l-.15-.1-.05-.1-.05-.1v-.1l-.1-.1-.05-.1-.1-.1-.1-.1-.1-.1-.05-.1-.05-.1v-.1l-.05-.15v-.1l-.05-.1.05-.1v-.2l.05-.1v-.3l.1-.1v-.1l.1-.1.05-.1.1-.1v-.15l.1-.1.05-.1.05-.1v-.1l.05-.1.05-.1.05-.1.1-.1.05-.1.05-.1.05-.1.05-.1.05-.1.05-.1v-.65l.05-.1.05-.1.1-.1.05-.1.05-.1.05-.1.1-.1.1-.1.2-.1.15-.1h.1l.15-.1.2-.1.1-.05.15-.05.25-.05.15-.05-.05-.1-.05-.1-.1-.1-.15-.1-.1-.1-.1-.1-.1-.1-.2-.15-.1-.05-.05-.05-.25-.05-.25-.1-.15-.05-.25-.1-.2-.1-.2-.1-.25-.1-.25-.1-.2-.1-.1-.1-.15-.1-.15-.1-.25-.1-.2-.1-.15-.15-.1-.1-.05-.1-.05-.1-.05-.1-.05-.1v-.2l-.05-.1.05-.1v-.3l.05-.1.05-.1v-.25l.05-.1.05-.1v-.1l.1-.1.1-.1.1-.1.05-.1.1-.1v-.1l.05-.1.05-.1.05-.1.05-.1V3.7l-.1-.1-.05-.1-.05-.1v-.1l-.05-.1V3l-.05-.1v-.2l-.05-.1-.05-.1-.05-.1-.05-.1-.05-.15v-.2l-.05-.1v-.1l.05-.1v-.3l.1-.1.05-.1.1-.1.1-.1.15-.1.2-.1h.2l.35.05.2.1.05-.05.2-.1H63V.7h.35l2 .05H66l1 .05 2.25.05h1.7l.8.05.55.05h.5l.3.05h.05l.1-.05.15-.1.2-.05.1-.05h.3l.45.05.25.1.15.1.15.1.1.1.05.1.1.1.05.1.05.1.05.15.05.1V3.8l-.05.1v.8l-.05.1v.45l.05.1V7.8l.05.1v26.95l-.05.1v1.25l-.05.1v1.85l-.05.15v1l-.05.1v.65l-.05.1-.05.1-.05.1v.3l-.05.1-.05.1v.1l-.1.1v.1l-.1.1-.05.1-.1.15-.15.1-.15.05-.1.05v.1l-.1.1-.05.15-.1.1-.1.1-.1.1-.15.1-.2.1-.2.05-.1.05-.35.05h-.15l-6.2-.05-6.35-.05H47.85l-.1.05-.4.05-.4-.05-.2-.05-.25-.15-.1-.1-.1-.1-.1-.1-.1-.1-.1-.1-.05-.1v-.1l-.05-.1-.05-.1v-.5l.05-.1v-.15l.05-.1v-.1l.1-.1.05-.1.1-.1.1-.1.1-.1.1-.1.25-.1.2-.1h.25l.3-.05.1-.05.2-.05.15-.05.1-.05.15-.05h.25l.4-.05.05-.05h.15l.25-.05.15-.05.25-.05.5-.05.25-.1.2-.05.15-.05.25-.05h.15l.6.05.4.05.2.1.15.1h.05l.1.05.65-.05.05-.1v-.1l.05-.1.05-.1v-.6l.05-.1v-.1l.05-.1v-.1l.05-.1.05-.15.1-.1.05-.1.05-.1.15-.1.05-.1.05-.1.1-.1.1-.1.1-.1.15-.1.15-.1.15-.1.25-.1.2-.1.15-.15.2-.1.15-.1.15-.05.15-.05h.65l.4.05.2.1.15.1.2.1.15.1.1.1.1-.05v-.5l-.1-.1v-.15l-.1-.1v-.1l-.05-.1-.05-.1v-.4l-.05-.1-.05-.1v-.2l-.05-.1v-.45l.05-.1v-.2l.05-.1.05-.1v-.2l.05-.1.05-.1.05-.1.05-.1.1-.1.1-.1.15-.15.1-.1.1-.1.15-.1.2-.1.2-.1.25-.1.2-.05.1-.05.25-.05h.4l.15-.05.25-.05.05-.15.05-.1.05-.1.05-.1.05-.1.05-.1v-.7l.05-.1v-.35l.05-.1v-.3l.05-.1v-.1l.05-.1v-.6l.05-.1.05-.15v-.5l-.2-.1-.1-.1-.1-.1-.1-.1-.05-.1-.1-.1v-.1l-.1-.1-.05-.1-.05-.15-.1-.1-.05-.1-.05-.1-.05-.1v-.1l-.05-.1-.05-.1-.1-.1-.15-.1-.1-.1-.1-.1-.05-.1-.05-.1-.1-.1-.05-.1-.05-.15-.05-.1v-.2l-.05-.1v-.4l.05-.1v-.1l.05-.1v-.1l.05-.1v-.45l-.05-.1v-.2l.05-.1v-.2l.05-.1v-.1l.1-.1v-.1l.05-.1.05-.1.1-.1.05-.15.1-.1.1-.1.05-.1.05-.1.05-.1.1-.1.05-.1.1-.1.05-.1.05-.1.1-.1.05-.1.15-.1.1-.1.1-.15.1-.1.05-.1.1-.1.1-.1.15-.1.2-.1.15-.1.25-.1.35-.05h1.4l.7.15.25.05.3.25 1 .3 1.45-.05q.95-.1 1.15-.55l.1-.95.15-1.2q.1-.75-.4-1.05l-1.1-.2-.9-.1-.85.05q-.75.35-.75 1.1v.85l-.05.1zm-.3-11.65.3.35q.35.4.75.35l.4-.2.45-.5.3-.5-.05-.5L66.1 5l-.4-.3-1.25-.25q-.55.05-1 .7l-.25.5q-.1.3.15.55zm-3.35 5.75-.95-.35-.95-.55-.2-.6q-.1-.85.2-1.25.35-.4 1.15-.5h.8l.65.45.1.95-.05 1.1q-.2.7-.75.75m-1.3 4.55.3-.2H60l.1-.05q.85 0 1 .85L61 18l-.55.45-.7.05-.5-.45q-.2-.3-.1-.7zm-.5 11.1.95.15q.6.35.5 1.05 0 .6-.35 1.2-.45.8-1.1.95-.4.1-.75-.2l-.45-.65-.05-.95.15-.55q.2-.55.55-.75zm6.55 3.6v-.6q0-.65-.5-1.15l-.5-.2-.25.1q-1 .35-1.6.85l-.2.2-.05.65-.25.8q-.1.65.45.9l.8.1 1-.05.95-.2q.5-.35.3-.9zM16.45 10l-.2.9-.8.5-1 .05-.9-.2-.7-.6q-.25-.65.4-1.6.55-.85 1.05-.9l.9.2.75.1q.45.25.5.7zM5.75 6.9l.5.85.6.35.95.65q.85.3 1.5-.5l.25-.6-.25-.5-.35-1.3q-.2-.8-.75-1l-1 .05q-.55.15-1.05.55-.45.35-.55.7zm4.8 13.15v-.45l.25-.55q.25-.2.55-.25l1.15.15.85.65-.05.85-.3.8-.1.55q-.15.7-.9.7l-.9-.2-.65-.4q-.3-.25-.35-.7-.05-.4.2-.75zM6.65 33.5l-.3 1.05q-.15.5.3.95.3.35.9.45.45.1.95-.25l.4-.5.3-.45.35-.8q.1-.5-.2-.85-.35-.35-1-.25l-.95.1q-.65.2-.75.55m2.5 7.4 1.5.25q1.3.1 1.75-.55l.35-.85q.3-1.35-.05-1.95l-1.2-.7-.75-.1-.65.35-1.6 1.85q-.4.6-.25 1 .15.5.9.7"/><path fill="#fff" d="m9.75 18.2.15.45q.25.75-.55 1.15l-.55.2-.85.05q-.7-.1-.95-.45-.2-.25-.15-.7l.15-.8-.05-1.15q-.1-.65.3-1 .3-.3 1.2-.3.8 0 1.05.3.35.35.25 1.05l-.05 1.1zm54.1 1.1-.15-.05q-.25-.15-.25-.5t.3-.5l.5-.15h.15l.5-.05.05-.1v-.85q0-.75.75-1.1l.85-.05.9.1 1.1.2q.5.3.4 1.05l-.15 1.2-.1.95q-.2.45-1.15.55l-1.45.05-1-.3-.3-.25-.25-.05zm.25-12.85-.75-.25q-.25-.25-.15-.55l.25-.5q.45-.65 1-.7l1.25.25.4.3.15.45.05.5-.3.5-.45.5-.4.2q-.4.05-.75-.35zm1.4 25 .15.5q.2.55-.3.9l-.95.2-1 .05-.8-.1q-.55-.25-.45-.9l.25-.8.05-.65.2-.2q.6-.5 1.6-.85l.25-.1.5.2q.5.5.5 1.15zM5.75 6.9l-.15-.75q.1-.35.55-.7.5-.4 1.05-.55l1-.05q.55.2.75 1l.35 1.3.25.5-.25.6q-.65.8-1.5.5l-.95-.65-.6-.35zm3.4 34q-.75-.2-.9-.7-.15-.4.25-1l1.6-1.85.65-.35.75.1 1.2.7q.35.6.05 1.95l-.35.85q-.45.65-1.75.55zm-2.5-7.4q.1-.35.75-.55l.95-.1q.65-.1 1 .25.3.35.2.85l-.35.8-.3.45-.4.5q-.5.35-.95.25-.6-.1-.9-.45-.45-.45-.3-.95z"/><path d="M41.9 24.3q-.9-.35-1.05-1.25-.25-.85.35-1.6.5-.6 1.6-.85 2.85-.7 5.3.95 1.15.75.95 1.6-.15.65-.8.9l-1.2.2-3.5.2z"/><path d="M46.9 4.95 48.4 6q1.2-.7 3.55-1.5l3.65-1.35 1.75-.7q1.2-.2 1.75.45.6.65.4 1.8l-.2.8-3.6 9.05.25.6q.65 1.5 1 4.1.6 4.85-.7 9.2-1.1 3.55-3.3 6.05l-.6-.55q-.65-.4-1.3-.25l-1.15.75q-.6.6-.7 1.1-.25.7.1 1.3l.25.4q-5.1 2.95-14 2.6l-5.4-.6q-2.2-.45-5.2-1.7-3.7-1.6-5.3-3.4-1.9-2.05-2.55-5.4l.95.15 1-.3.75-.3q1.1-.5 1.75-1.6l.4-.9.05-1.7-.1-.8q-.15-.65-.6-1l-.45-.35-.4-.5q-.4-.4-1.15-.4l-1.25.15-.7-.05-.35.05q.5-3.45 1.9-6.6l-.2-.65v-.1l-.5-1.1-.4-1.6-.25-.5-.85-3.15q-.55-1.9-.6-3.3l.2-1.2q.4-.75 1.2-.9l1.2.1 2.05.7-.4.45-.6.9-.6 1.15q-.2.85.4 1.1l1.1-.2.75-.7.3-.4.65-.5q.4-.45.4-.9l.95.5-.3.35-.35.75-.75.95q-.45.6-.5 1.05-.1.45.25.8l.75.2.8-.6.6-.75.35-.35q.15-.15.6-.25.7-.35.75-1l.55.3q4.75-3 11.1-3.1l3.9.3-.6 1q-.25.8-.1 1.5.2.95 1.05 1.6.8.65 1.8.85l1.8-.05q1-.35 1.35-1.1.4-.75.15-1.65zm1.6 11.85q-.8-.65-2.2-.8-1.45-.15-2.45.4-1.2.65-1.5 1.9l-.05.95q0 .95.15 1.4l.55.85q.7.8 1.25.95l.75.2h1.45q1.25-.15 2.1-1.1.85-.9 1-2.2l.05-.2-.35.1.9-.5.95-.8.95-.75.95-.55q.5-.4.35-.9t-.8-.6q-.6-.05-1.7.45l-1.85.95zm4.45 15.7.6-.5.75-.9.75-1.35.3-.85.3-1.25q.2-1.45-.3-2.05l-1.1-.7-1.3-.15-1.65.05q-.85.15-1.4.85l-.35.6q-.65 1.3-.75 2.1l-.05.9.1 1.25.9 1.45.8.6 1.35.2zm-2.15-9.35.6-.6.5-.65q.35-.45 1.2-1.05l1.25-1q.7-.7.35-1.35-.3-.45-.95-.35-.35.05-.95.45L50 20.3l-.9.7q-.6.9 0 1.75.7.85 1.7.4m-12.8 3-.5-.95q-.35-.45-1-.5-.6 0-1 .4l-.8 1.1-.9.4-.9.15-2.65-.4-.65-.2-.35-.5-.7-1.35-.35-.5q-.45-.25-.85.25-.25.3-.25.9-.05.7.2 1.6.45 1.35 1.35 1.9L30 29l3.2.45q1.85-.1 3.05-.95 1.6 1.15 3.75 1.05 1.6-.15 2.75-.85l1.15-1.15.05-.8q-.15-.45-.5-.65l-.85-.05-.9.3q-1.4.6-2.55.4-.7-.15-1.15-.6m.15-21.9-.5-.2-.6.1-.4.4-.1.25q-.15.35.05.8l.55.55q.9.35 1.4-.5l.05-.75zm5.3 29.05q.45.75 1.3.85.75.1 1.4-.65.5-.75.25-1.55-.15-.65-.8-1.05-.75-.35-1.45 0-.75.45-.85 1.2v.7zm-19.4-13.45.1.2.95-.15 1.1.1 2.6.2q.85.1 1.45.45l.25-.35.3-.75.15-1.25q-.15-1.6-1.6-2.3l-2.3-.3-1.15.1q-.7.25-1.25.85-.65.75-.75 1.8v.75zm.65 7.1q-.7-.3-1.3.5-.3.4-.5 1.45l-.25 1.3-1.25-.3q-.55.1-.9.55t-.2.95q.15.6.75.85l1.2.35-.1.35q-.2 1.15.1 1.65.35.6 1 .6.7.1 1.1-.5l.45-1.55v-.05l.7.15q1.05.2 1.4-.3.4-.55-.2-1.15l-1.15-.55-.55-.15.3-1.9.1-1.25q-.1-.75-.7-1"/><path fill="#fff" d="m48.5 16.8-.6.5-.15.25q-.2.5.05 1 .25.55.75.7l.35.05.35-.05.35-.1-.05.2q-.15 1.3-1 2.2-.85.95-2.1 1.1H45l-.75-.2q-.55-.15-1.25-.95l-.55-.85q-.15-.45-.15-1.4l.05-.95q.3-1.25 1.5-1.9 1-.55 2.45-.4 1.4.15 2.2.8M38 26.15q.45.45 1.15.6 1.15.2 2.55-.4l.9-.3.85.05q.35.2.5.65l-.05.8-1.15 1.15q-1.15.7-2.75.85-2.15.1-3.75-1.05-1.2.85-3.05.95L30 29l-1.35-.55q-.9-.55-1.35-1.9-.25-.9-.2-1.6 0-.6.25-.9.4-.5.85-.25l.35.5.7 1.35.35.5.65.2 2.65.4.9-.15.9-.4.8-1.1q.4-.4 1-.4.65.05 1 .5zm-13.95-6.3-.15-.65v-.75q.1-1.05.75-1.8.55-.6 1.25-.85l1.15-.1 2.3.3q1.45.7 1.6 2.3l-.15 1.25-.3.75-.25.35q-.6-.35-1.45-.45l-2.6-.2-1.1-.1-.95.15z"/><path fill="#999" d="m52.95 34.5.25.45q.2.65 0 1.3l-.75 1.1q-1.2.75-2.4.2l-.5-.3-.25-.4q-.35-.6-.1-1.3.1-.5.7-1.1l1.15-.75q.65-.15 1.3.25zM17.1 28.75l-.6-.45-.35-.55-.15-.55-.4-2.2.1-1.85.2-1q.35-.75 1.1-.95l.35-.05.7.05 1.25-.15q.75 0 1.15.4l.4.5.45.35q.45.35.6 1l.1.8-.05 1.7-.4.9q-.65 1.1-1.75 1.6l-.75.3-1 .3zM20.75 2.9q.15-.15.35-.2.85-.35 1.4.5l.25.6q0 .45-.4.9l-.65.5-.3.4-.75.7-1.1.2q-.6-.25-.4-1.1l.6-1.15.6-.9zm2.95 1.4q.35-.45 1.1-.3.95.2 1.05 1.1l.05.35q-.05.65-.75 1-.45.1-.6.25l-.35.35-.6.75-.8.6-.75-.2q-.35-.35-.25-.8.05-.45.5-1.05l.75-.95.35-.75zm17.75-1.35.25-.3q.7-.45 1.7-.35 1.2.05 2.2.85 1 .75 1.3 1.8v.15q.25.9-.15 1.65-.35.75-1.35 1.1l-1.8.05q-1-.2-1.8-.85-.85-.65-1.05-1.6-.15-.7.1-1.5zm7.8 16.3-.35.05-.35-.05q-.5-.15-.75-.7-.25-.5-.05-1l.15-.25.6-.5.5-.25 1.85-.95q1.1-.5 1.7-.45.65.1.8.6t-.35.9l-.95.55-.95.75-.95.8zm1.55 3.9q-1 .45-1.7-.4-.6-.85 0-1.75l.9-.7 2.8-1.7q.6-.4.95-.45.65-.1.95.35.35.65-.35 1.35l-1.25 1q-.85.6-1.2 1.05l-.5.65zm2.15 9.35-1.05.25-1.35-.2-.8-.6-.9-1.45-.1-1.25.05-.9q.1-.8.75-2.1l.35-.6q.55-.7 1.4-.85l1.65-.05 1.3.15 1.1.7q.5.6.3 2.05l-.3 1.25-.3.85-.75 1.35-.75.9zm-9.5.8-.15-.5v-.7q.1-.75.85-1.2.7-.35 1.45 0 .65.4.8 1.05.25.8-.25 1.55-.65.75-1.4.65-.85-.1-1.3-.85m-5.3-29.05.45.65-.05.75q-.5.85-1.4.5l-.55-.55q-.2-.45-.05-.8l.1-.25.4-.4.6-.1zM24.7 26.95q.6.25.7 1l-.1 1.25-.3 1.9.55.15 1.15.55q.6.6.2 1.15-.35.5-1.4.3l-.7-.15v.05l-.45 1.55q-.4.6-1.1.5-.65 0-1-.6-.3-.5-.1-1.65l.1-.35-1.2-.35q-.6-.25-.75-.85-.15-.5.2-.95t.9-.55l1.25.3.25-1.3q.2-1.05.5-1.45.6-.8 1.3-.5"/></g></svg>