<svg xmlns="http://www.w3.org/2000/svg" xmlns:ffdec="https://www.free-decompiler.com/flash" ffdec:objectType="shape" width="75.6" height="41.35"><g fill-rule="evenodd"><path fill="#fff" d="M25.4 37.9q-3.7-1.6-5.3-3.4-2.9-3.15-2.9-9.35 0-5.4 2.15-10.2l-.15-.55-.05-.1v-.1l-.5-1.1-.4-1.6L18 11l-.85-3.15-.25-.95-.35-2.35.2-1.2.4-.5.35-.25.45-.15 1.2.1 2.15.75 1.65.75 2.7 1.4 1.25.65q3.65-2.3 8.3-2.9L38 3q3.15-.05 5.8.75l1.8.65q1.6.7 3.25 1.95l1.05-.5 2.5-1 1.45-.5 1.65-.6.55-.25 1.75-.7q1.2-.2 1.75.45.6.65.4 1.8l-.2.8-3.6 9.05.25.6q.65 1.5 1 4.1.6 4.85-.7 9.2-1.45 4.7-4.85 7.5Q46.6 40.6 36 40.2l-5.4-.6q-2.2-.45-5.2-1.7"/><path d="M25.4 37.9q3 1.25 5.2 1.7l5.4.6q10.6.4 15.85-3.9 3.4-2.8 4.85-7.5 1.3-4.35.7-9.2-.35-2.6-1-4.1l-.25-.6 3.6-9.05.2-.8q.2-1.15-.4-1.8Q59 2.6 57.8 2.8l-1.75.7-.55.25-1.65.6-1.45.5-2.5 1-1.05.5Q47.2 5.1 45.6 4.4l-1.8-.65Q41.15 2.95 38 3l-2.8.2q-4.65.6-8.3 2.9l-1.25-.65-2.7-1.4-1.65-.75-2.15-.75-1.2-.1-.45.15-.35.25-.4.5-.2 1.2.35 2.35.25.95L18 11l.25.5.4 1.6.5 1.1v.1l.05.1.15.55q-2.15 4.8-2.15 10.2 0 6.2 2.9 9.35 1.6 1.8 5.3 3.4M0 0h75.6v41.35H0z"/><path fill="#999" d="m66.35 12.1-.1-.3q-.15-.3 0-.7.15-.5.75-.5l.05-.05q.6 0 .85.6.25.55-.2 1l-1.05.15zm-.9 9.7.35-.1h.15q.4-.05.75.25l.35.7-.2.75-.65.45q-.9.2-1.25-.7-.15-.35 0-.75zM39.25 5.3q-.5-.2-.8-.7-.3-.55-.2-1.05.05-.5.4-.9.35-.35.85-.45l1 .1.75.65q.55 1-.2 1.85-.7.85-1.8.5M55.7 16.95q-.4-.8 0-1.65.15-.35.45-.55.6-.5 1.3-.35.75.15 1.1.75.5.85.1 1.75-.55.9-1.45.9-1.05 0-1.5-.85M54.85 29l-.55-.55-.2-.6q-.15-.75-.15-1.45 0-1.05.25-1.75.15-.5.45-.85l.55-.6 1.05-.7 1.95.05.6.3.35.4.55.9.15.9v1.3l-.4 1.05-.7 1.2-.6.5-.55.4-.65.15-1.2-.05zm-7.25-.75q.25-.85 1.1-.85.85-.1 1.2.75.35.8-.25 1.4l-.4.3-.55.1q-.35-.05-.65-.3l-.35-.35-.2-.65zM34 6.65l-1.55.55-1.8.05-.85-.1q-.75-.15-1.15-.8-.4-.75-.15-1.8l.5-1q.65-.8 2.45-1.7l.7-.3.8-.1 1.95.1q1.45.2 2 1l.25.7q.15.75-.1 1.3l-.85.9zM6.1 18.75q-.55-.25-.7-.8v-.05q-.45-.7-.3-1.55.15-1.4 1.5-1.8l1.8.15q.85.5 1.1 1.4l.05 1q-.25 1.1-1.15 1.55l-1.85.2zm-2.7 2.7q-.2-.55.15-.95.3-.4.9-.3.55.15.7.7.1.65-.35.95l-.45.2q-.55 0-.75-.35zm14.05 4.3-1.55.15q-.7-.25-1.1-1.2-.15-.65.1-1.65.5-1.2 1.35-1.4l1.25-.05q.8.1 1.1.35.4.35.5 1.25l-.3 1.55q-.4.65-1.35 1m4.5 7.25q.7.25 1.15.95.5.65.4 1.4-.05.75-.6 1.35t-1.3.7q-1.1.1-1.8-.6-.55-.5-.75-1.4-.1-.75.2-1.4.35-.75 1-1l.8-.1zm-12.1-6.05.35-.05.1-.05q.45 0 .8.35.4.3.45.75l-.25.85-.75.5-.85-.2q-.45-.25-.55-.65-.15-.45.05-.9zM31 36l-.7.3-2-.2-.85-.3-1.8-1.3-.35-.5-.15-.85q0-1.7.3-2.3.45-.9 1.9-1.65l1.4-.5 1.1-.05q1.2 0 1.85.45.9.6 1.15 1.7.2.85 0 2.1-.25 1.75-1.2 2.6z"/><path d="M51.85 21.35q-.6.6-1.6.85l-3-.25q-.95-.45-1.3-1.1-.35-.75-.3-1.55l.45-1.55q.45-.75 1.25-1.15.8-.45 1.7-.45l1.8.4q.9.5 1.35 1.3.5.85.4 1.85t-.75 1.65m-9 4 1.05.4 1.05.75q.4.55.15 1.15-.15.7-.8.85l-1.05.05-1.05-.3-2.8-.5-1.3-.1-.7.05-.85-.25-.55.05-.85.05-1 .25-1.35.15-1.8-.1-.65-.1-.4.05q-.4.1-.7-.3-.3-.35-.1-.85l.6-.6.75-.5 4.35-1.3-.05-.7q.2-1.15 1-1.4.75-.25 1.4.4l.85 1.3.3.75h.05zm-13.45-8.6q.95.7 1.15 1.6l.1.95-.05 1.2q-.3 1.15-1.55 1.95l-.9.5-1.35.1-1.35-.1q-1.4-.3-2.15-1.65l-.35-.75-.05-.25-.75-.25q-.5-.3-.7-.8t-.05-1.05.55-.9l1.1-.6 2.8-1.1 1.95-.5.8-.1.85.45.15.9z"/></g></svg>