<svg xmlns="http://www.w3.org/2000/svg" xmlns:ffdec="https://www.free-decompiler.com/flash" ffdec:objectType="shape" width="75.8" height="42.1"><g fill-rule="evenodd"><path d="M25.65 37.75q-3.7-1.6-5.3-3.4-2.9-3.15-2.9-9.35 0-5.4 2.15-10.2l-.2-.65v-.1l-.5-1.1-.4-1.6-.25-.5-.85-3.15q-.55-1.9-.6-3.3l.2-1.2q.4-.75 1.2-.9l1.2.1q2.5.65 6.5 2.9l1.25.65q4.75-3 11.1-3.1 4.3-.1 7.6 1.4 1.6.7 3.25 1.95 1.2-.7 3.55-1.5l3.65-1.35 1.75-.7q1.2-.2 1.75.45.6.65.4 1.8l-.2.8-3.6 9.05.25.6q.65 1.5 1 4.1.6 4.85-.7 9.2-1.45 4.7-4.85 7.5-5.25 4.3-15.85 3.9l-5.4-.6q-2.2-.45-5.2-1.7"/><path fill="#fff" d="m13.2.35.25-.2.75.05.3-.15.9.15.6.7.25 1.2.35 1.5.1.6.15.5v1.05L17 7.3V11l-.15.65-.2.2.2.5q.25.8-.45 1.4-.55.55-1.45.35l-.85-.3-.3-.1-.65-.4-2.4-1.2-.95-.65-.9-.45v-.3q.05-.15.35-.15l1.4-.1 4.65.7-.4-1.25-1.75-8.25L13 .8zm.8 14.4.65-.1q.9 0 1.25.85t-.25 1.5l-.7.5-.5.2.15.1.35.5-.35.85-.2.15.95.75q.35.7-.2 1.35l-.55.5q-1.85 1.25-3.7 2.05l-1.2.55-1.35.5-1.15.35-.45.2q-.35-.1-.1-.45l.4-.35.5-.45 5.3-4.45.3-.25.35-.15-.8-.15-.85-.15-.4-.1-1.4-.1-2.65-.65h-.15l-.55-.15-.5-.15q-.1-.2.05-.3l.3-.2 1.4-.6 3.55-1.25.7-.4.65-.15q.7-.25 1.15-.35m-.1 10 .4-.45q.65-.25 1.1.2.45.55.1 1.15l-.5.55-3.9 4.5-.35.4 1.45-.65.8-.25.4-.15.6-.15.45-.15.7.4q.25.3.15.75l.35.55-.25.95-1.25 2.4.25-.15.35-.25 2-1.1q.6-.4 1.05-.45l.25-.05.4.15.4.3.1.45-.1.05-.3.35-1.25.7-2.35 1.3q-.9.25-1.35.45l-.7.15h-.3q-.2-.15-.1-.5.3-2.25 1.25-4.35L9.9 32.9l-1 .3-.5-.1-.1-.35-.2-.2 5.7-7.75zm28.1.5q-.5-.6-.4-1.45l.2-.6q-1.4-.3-1.9-1.75-.15-.5-.15-1.2l.2-1.25q.25-.5.8-.8.5-.35 1-.25t.8.55q.3.4.25.95l.05.45.45.05 1.3.05 1.85-.1 6.35-.35.6.05.25.5-.7.55-.9.3.85.75q.45.8.25 1.6l-.4.8q-.55.65-1.3.95l-.75.2h-5.2l-.95.05h-.45l-.85-.05zm.25 1.5q2.75.15 4.15 1.1 1.25.8 1.1 1.75-.05.6-.7 1.05l-1.2.55-9.2.5 3.5-.75q2.4-.45 3.8-1.1-8.45-.95-17 .95l-.85.05-.6-.5q-.15-.6.9-.95 6.3-2.25 12.8-2.6l.9-.05h2.4M24 25.05h-.05l-1.3-.95q-.35-.4-.4-.8-.2-.8.25-1.6.25-.35.85-.75l-.9-.3q-.6-.2-.7-.55t.25-.5l.6-.05 6.35.35 1.85.1 1.3-.05.45-.05.05-.45q-.05-.55.25-.95l.8-.55 1 .25.8.8.2 1.25-.15 1.2q-.5 1.45-1.9 1.75l.2.6q.1.7-.25 1.25H31.4L28.55 25H25.4v.05h-.45l-.15.1z"/><path d="M42 25.25h1.25l.85.05h.45l.95-.05h5.6l.25.05.2.1.1.1.05.1.05.1.05.05v.5l-.1.05v.1l-.1.1-.1.1-.1.05-.1.05h-.2l-1.25.05h-1l-3.35-.05h-2.25l-1 .05h-2.4l-.9.05H37.1l-.65.05h-.9l-2 .05H31.4l-2.85.05H25.4l-.25-.05-.3-.05-.2-.1-.1-.05-.1-.1-.05-.1-.1-.1v-.1l-.05-.05v-.2l-.4-.1q-.35-.1-.3-.4-.1-.45.4-.45l.05-.05.8.1.15-.1h.45V25h3.15l2.85.05h2.15l2 .05.9.05h.65l2.75.05 1.1.05z"/><path fill="#999" d="m17.3 34.8.25.15.45.7v.05l.1.1.05.1v.2l.1.05v.3l.05.1v.25l.05.1v.1l.05.1v.5l-.05.1v.1l-.05.1v.05l.15-.05.15-.05h.1l.25-.1.2-.05.15-.1h.1l.3-.05.2-.1h.1l.15-.05h.1l.15-.05.25-.05.2-.05.1-.05.15-.05h.15l.2-.05h.25l.05-.05.1-.05h.5l.2.1.15.05.15.1.1.1.05.1.1.1.05.05.1.1.05.1v.1l.1.1.05.1.05.05.05.1.05.1.05.1.05.1.05.05.05.1.05.1.05.1.05.1.05.1.1.05.05.1v.1l.1.1.05.1v.05l.05.1.05.1.1.1.05.1.05.1.1.05.05.1v.1l.05.1.05.1V41l-.05.1-.05.05v.1l-.05.1-.05.1-.05.1-.05.05-.1.1-.15.1-.1.1-.2.1-.15.05-.3.05-.25-.05-5.6-.05H2.9l-1.65.05L.9 42l-.2-.1-.15-.1-.15-.1-.1-.1-.05-.05-.1-.1v-.1l-.1-.1v-.1L0 41.1v-.55l.05-.1v-.1l.05-.1.05-.1.05-.05.05-.1.1-.1.1-.1.1-.1H.6v-33l.05-.1V5.25l.05-.1v-1.9l.05-.1V2.6l.05-.1v-.15l.05-.1v-.1l-.05-.1L.75 2v-.1L.7 1.8v-.55l.05-.1v-.1L.8 1 .85.9l.1-.1L1 .7l.1-.1.15-.1.15-.05.2-.1h6.8V.3h2.9l1.1.05h.8L13 .8l.15.85L14.9 9.9l.4 1.25-4.65-.7-1.4.1q-.3 0-.35.15v.3l.9.45.95.65 2.4 1.2.65.4.3.1v.15l-.1.8q-.45.1-1.15.35l-.65.15-.7.4-3.55 1.25-1.4.6-.3.2q-.15.1-.05.3l.5.15.55.15h.15l2.65.65 1.4.1.4.1.85.15.05.1.1.45-5.3 4.45-.5.45-.4.35q-.25.35.1.45l.45-.2L8.35 25l1.35-.5 2.7-.3h.75l.75.55-.1.05-5.7 7.75.2.2.1.35.5.1 1-.3 3.85-1.05q-.95 2.1-1.25 4.35-.1.35.1.5h.3l.7-.15q.45-.2 1.35-.45zm44.4-20.85v-.15l.3-.1.65-.4 2.4-1.2.95-.65.9-.45v-.3q-.05-.15-.35-.15l-1.4-.1-4.65.7.4-1.25 1.75-8.25.15-.85-.2-.45h.8L64.5.3h2.9v.05h6.8l.2.1.15.05.15.1.1.1.05.1.1.1.05.1.05.05v.1l.05.1v.55l-.05.1V2l-.05.05-.05.1v.1l.05.1v.15l.05.1v.55l.05.1v1.9l.05.1V6.6l.05.1v33h.05l.1.1.1.1.1.1.05.1.05.05.05.1.05.1v.1l.05.1v.55l-.05.05v.1l-.1.1v.1l-.1.1-.05.05-.1.1-.15.1-.15.1-.2.1-.35.05L72.9 42H58.1l-5.6.05-.25.05-.3-.05-.15-.05-.2-.1-.1-.1-.15-.1-.1-.1-.05-.05-.05-.1-.05-.1-.05-.1v-.1L51 41.1l-.05-.1v-.45l.05-.1.05-.1v-.1l.05-.1.1-.05.05-.1.05-.1.1-.1.05-.1.05-.1v-.05l.05-.1.1-.1v-.1l.05-.1.1-.05.05-.1.05-.1.05-.1.05-.1.05-.1.05-.05.05-.1.05-.1.05-.1.05-.1.05-.05.05-.1.1-.1v-.1l.05-.1.1-.1.05-.05.1-.1.05-.1.1-.1.15-.1.15-.05.2-.1h.5l.1.05.05.05h.25l.2.05h.15l.15.05.1.05.2.05.25.05.15.05h.1l.15.05h.1l.2.1.3.05h.1l.15.1.2.05.25.1h.1l.15.05.15.05v-.05l-.05-.1v-.1l-.05-.1v-.5l.05-.1v-.1l.05-.1v-.25l.05-.1v-.3l.1-.05v-.2l.05-.1.1-.1v-.05l.45-.7.25-.15 2.35 1.3 1.35.45.7.15h.3l.1-.5q-.3-2.25-1.25-4.35l3.85 1.05 1 .3.5-.1.1-.35.2-.2L62 24.8l-.1-.05q.25-.45.75-.55h.75l2.7.3 1.35.5 1.15.35.45.2q.35-.1.1-.45l-.4-.35-.5-.45-5.3-4.45.1-.45.05-.1 1.25-.25 1.4-.1 2.65-.65h.15l.55-.15.5-.15-.05-.3-.3-.2-1.4-.6-3.55-1.25-.7-.4-.65-.15-1.15-.35q-.2-.35-.1-.8m-21.2-1.9q-.6 0-.7-.2-.15-.35.05-.55l.4-.35.75-.35 2.95-1.05 3-.65 1.8-.2q.5.1.85.45l.4.9q.1 1.2-1.05 1.55l-1.45.05zm12.3 14.9.45-.1 2.35-.25.85.2.85.3.65.65.15.45q.1.55-.35 1l-.95.35-.95-.35-.7-.4q-1.15-.55-2.7-.55h-1.1l-.4-.1q-.2-.1-.1-.35l.3-.3.45-.1.3-.15.5-.15zm-1.1 3.4 2.1.1.6.15.8.3.65.35.55.7-.05 1-.65.7-1.75-.15-1.35-.8-.25-.05-.8-.35-1.6-.4-.6-.25q-.3-.2-.15-.55l.3-.2 1.3-.5zM26.1 12.6l1.45-.95-.6-.25-.9-.5q-.4-.5-.35-1.1.1-.65.6-.95l1.35-.2L29 9.2l1.05.6 2.15-1.55q1.3-.9 2.95-1.8.15-.15.4-.15l.25.2v.35Q35.2 7 34.4 8l-2.25 2.2-.55.5 2.15 1.2 1.5 1.25.4.45-.05.5-.5.1-.45-.2-1.25-.3-1.7-.45-2.1-.8-1.65 1.45-.55.6-.65.7-.75.5q-.85.3-1.35-.4-.65-.65-.2-1.4.2-.5 1.65-1.3m-7.2 12.85 1.05-.1 1.25 1.05.45-.1.05-.05.6.2.3.25.05.45-.45.5.65 1 .05 1.2q-.25.6-.9.7-.6.1-1.1-.4l-.4-.9-.05-.15-.25.2-.15.2-.2.25-.4.8q-.6.7-1.5.35t-.8-1.3v-.35l.5-.7.7-.45 1.05-.7.25-.1-.35-.6-.4-.6q-.2-.45 0-.65"/></g></svg>