<svg xmlns="http://www.w3.org/2000/svg" xmlns:ffdec="https://www.free-decompiler.com/flash" ffdec:objectType="shape" width="54.65" height="39.7"><g fill-rule="evenodd"><path fill="#717171" d="m30.4 13.1-.1-.55-.15-.45-.05-.35.15-2.7.6-1.1.6-.5h.45l.1-.05q.5.1.65.4l.05 1-.2.8-.2 1.4.05.25v.35l.45 1.25.25.45.2.25.3.15h.35l1 .2.1.1.15-.5.3-.6.25-.1.2-.05q.55.1.65.4l.1.25.45.7.25.2.5.45.1.15 1 .45.5.4.25.3.2.7q.1.55-.35.9l-.65.35-.75.05-.5-.2-.5-.3-1.2-1.15-.9-2.05-.05-.1-.2.25-.2.3-.25.15-.5.1-.15.1-.4.1-1.15-.05-.85-.65q-.75-.6-.9-1.45M9.15 37.4q-2.1-.65-4.3-2.1Q1.95 33.35.9 31v-.05Q0 30 0 28.4q.05-1.8 1.45-3.35l.7-.7q1.25-1.05 3.6-1.6l1.2-.3 1.3-.15q.75 0 1.25.5.5.55.3 1.35-.15.75-.8 1.15l-.1.05-.05.1-1 1.15-.85.7.05.1.5 1.5.1.3.2.3 1.5 1.55.25.45.1.3 2.75 1.05 5 1.2 3.7.7 1.9.3 1.7-.25q12.9-.15 21.2-4.4 2.45-1.3 3.05-2.8-1.9 0-3-.95-.6-.5-.85-1.3-.2-.85.15-1.55.55-.9 1.9-1.25 1.85-.55 3.7 0 1.9.55 2.9 2.1 1 1.45.8 3.4-.15 1.9-1.25 3.4-1.75 2.5-5.8 4.3-8.65 3.85-20.5 3.35l-.9.3-4.55.25L17 39l-4.1-.75z"/><path d="m44 10.5-1.7.9-.5-.15-.25-.55.15-.75.2-.45.3-.35.75-1.05.65-.55 1.3-.8 1.7-.05q.9.3 1.2 1.2.15.75-.2 1.4-.3.65-1.1.8l-1.3.2-.65.2zm-4.35-5.95v.95l-.2.7-.4.75-1.05.9h-.4q-.25-.1-.25-.4v-.5l-.3-1.15q-.25-.75-.15-1.2.1-.5.45-.8.4-.35.9-.35t.9.35zm-30.5 13.9q-.1-3.25 2.65-5.9 2.5-2.25 6.1-2.8.25-3.95 4.15-6.85Q25.15.75 29.9.05l1.45.1.5.1q.6.2.95.7L33.15 2l-.45 1.45q-.65 1.85.2 3.7v.05l.05.1-.15.7-.55 1.4-.05.05q-.3.3-.5.9l-.25.8-.15.9q-.15.65.15 1.15.3.55.9.7h1.1l.85-.5.55-.35.4-.15.45-.25.35.05q-.15.35-.15.75 0 1.25.95 1.95 1 .75 2.15.25l.95-.8.6-1 .95-.2.3.1v.1q.2.65.7 1l.75.4.25.2.35-.05h.1l.7-.15.7-.55.65-.35.5 1.25q.7 2.6-.85 4.65l-.1.15q1.55.5 2.7 1.65 1.8 1.95 1.6 4.5-.2 1.95-1.8 3.7-1.35 1.4-3.45 2.5-6.95 3.75-19.2 4L15.85 36q-5.25-1.2-8.2-4.35Q6.4 30.15 6 28.9q-.65-2 .2-4.3.7-1.7 2.2-3.1l1.2-.9q-.45-.9-.45-2.15M11 28.3l.35.5.95.9q1.45 1.15 3.9 1.85l1.6.4q5.4 1.05 13.55.25l3.5-.5 4.2-.95q3.1-1 5.25-2.6 1.8-1.5 1.4-2.85-.35-.85-1.7-1.45l-1.5-.5-.3-.1q-3.65 1.95-7.15 1.35l-1.3-.35-.3-.25.05-.2.1-.1.3-.15 1.55-.3 1.1-.45 1.7-.6.3-.3q.7-.5 2.25-1.45l.1-.05 1.8-1.8.4-.75.15-.7-.5.05-1.05-.35-.25-.2-.2.2-1 .85-.65.3-1.75.35-.75-.15h-.05l-.65-.25-1.1-1-.4-.7-.1-.55h-.05l-.4.2-2.15.3-.3-.05q-1.2-.25-1.85-.9l-.2-.25-.35-.5-.4-.75-.05-.15-.1-1.4.2-1.65.5-1.05h.05l-.95-2q-.55-1.8-.35-3.45l.1-.5-2.15 1.2q-2.15 1.45-3.1 3.3-.5 1.1-.4 1.95l.55 1.65q.05.7-.3 1.35t-1.05.9l-1.3.35-1.35.05q-1.6.15-2.95.9-1.4.8-2.25 2.05-.55.85-.45 1.5l.1.5 1.2.8q.8.4 1.9.65l3.75.55 1.7.05 2-.2h.55l.3.25.05.1q0 .4-.6.6l-.15.1-.8.35-.4.1-1.55.3-4.35.25h-3l-1.35-.3-1.6 1.75q-.9.95-1 1.8-.1.9.5 1.9"/><path fill="#717171" d="M28.4 4.05q-.2 1.65.35 3.45l.95 2h-.05l-.5 1.05-.2 1.65.1 1.4.05.15.4.75.35.5.2.25q.65.65 1.85.9l.3.05 2.15-.3.4-.2h.05l.1.55.4.7 1.1 1 .65.25h.05l.75.15L39.6 18l.65-.3 1-.85.2-.2.25.2 1.05.35.5-.05-.15.7-.4.75-1.8 1.8-.1.05q-1.55.95-2.25 1.45l-.3.3-1.7.6-1.1.45-1.55.3-.3.15-.1.1-.05.2.3.25 1.3.35q3.5.6 7.15-1.35l.3.1 1.5.5q1.35.6 1.7 1.45.4 1.35-1.4 2.85-2.15 1.6-5.25 2.6l-4.2.95-3.5.5q-8.15.8-13.55-.25l-1.6-.4q-2.45-.7-3.9-1.85l-.95-.9-.35-.5v-.25l.1-.75q.3-1.55 1.3-2.6.85-.95 2.05-1.55h3l4.35-.25 1.55-.3.4-.1.8-.35.15-.1q.6-.2.6-.6l-.05-.1-.3-.25h-.55l-2 .2-1.7-.05-3.75-.55q-1.1-.25-1.9-.65l-.2-.75q-.1-.7.15-1.35l.15.15 1.05.5 1.15-.15.7-.65.1-.6q0-1.05-.95-1.4.8-.35 2-.6l2.9-.3.3.05.55-.6q.65-.5 1.75-.7l-.25-.6q-.45-1.3-.5-2.2l.15-1.35.45-1.9q.25-.7 1.05-1.8.85-1 1.45-1.35.7-.4 1.35-.4m9.35 21.4-1.9.4-2 .25-6.5.95-1.55.25-.05.1q.95.7 1.15.95l.1.1.55.05 2.1-.1 5.9-1.2q3.9-1 5.85-1.25l1-.05.05-.1.1-.5-.55-.1zm-19.7 3.15h.35l.25-.3.1-.15V28q-.1-.55-.6-.55v.05q-.25 0-.4.15l-.1.15-.05.3.05.25zm4.2-1.55q-.35.25-.4.6-.15.65.45 1.25.55.45 1.05.45.6.05 1.05-.4.55-.55.3-1.3t-1-.9l-.9.1zM19.65 18q-.05.3.2.6.2.25.5.3.85.1 1-.6v-.6l-.2-.25q-.2-.3-.65-.3t-.7.3q-.15.25-.15.55"/><path fill="#fff" d="M17.2 15.8q.95.35.95 1.4l-.1.6-.7.65-1.15.15-1.05-.5-.15-.15-.15-.35.15-.7.5-.7q.65-.75 1.7-.4m2.45 2.2q0-.3.15-.55.25-.3.7-.3t.65.3l.2.25v.6q-.15.7-1 .6-.3-.05-.5-.3-.25-.3-.2-.6m2.6 9.05.55-.2.9-.1q.75.15 1 .9t-.3 1.3q-.45.45-1.05.4-.5 0-1.05-.45-.6-.6-.45-1.25.05-.35.4-.6m-4.2 1.55-.4-.25-.05-.25.05-.3.1-.15q.15-.15.4-.15v-.05q.5 0 .6.55v.15l-.1.15-.25.3z"/></g></svg>