<svg xmlns="http://www.w3.org/2000/svg" xmlns:ffdec="https://www.free-decompiler.com/flash" ffdec:objectType="shape" width="77.4" height="39.8"><g fill-rule="evenodd"><path fill="#999" d="M63.4 9.35q.65-1 1.6-1 .45.05.85.4l.4.8v.8l-.1 1.4-.4 1.2-1.2.65q-.65 0-1.25-.5-.4-.5-.5-1.25-.15-1.4.6-2.5m-2.05 6.9-.35.4-.45.2-2.45.65-.65.25-.4.25-.4.2 1.7-.1q1.8-.3 3.35-1.3.7-.5 1.1-.65.75-.25 1.2.2.5.5.1 1.25l-.9.95-.8.5-.75.25-2.8.65-1 .1h-3.3l-1.15-.2q-.7-.25-.7-.9-.05-.35.25-.65.25-.3.65-.3l.75.05 1.15.15q-.5-.2-.85-.7-.45-.65-.2-1.5t1.1-1.2l4.5-.35q.6 0 .9.25l.5.7zm8.8 6.1q.4-.35 1-.25.55.15.8.65l.15.85-.4.7-1.6.05q-.5-.4-.5-1.05.1-.7.55-.95m-14-11.5q-.55 0-.85-.4l-.35-1.15-.15-.35-.05-.35-.2-.4-.2-1.2-.15-.35-.05-.5-.35-1.25q-.1-.7.4-1.1.5-.5 1.1-.45.65-.05 1.2.55.3.5.3 1.65l-.1 4.5-.15.5zm-4.85.6-.85-.55q-1.1-.35-1.55-.7-.5-.35-.6-1.1-.05-.7.4-1.15.45-.5 1.15-.45.75.05 1.15.55l.45.75.75.9.7.85q.35.55.15.85-.2.4-.9.3zm-32 11.2q.1 1.05-.4 2.05l-.6.95q.7.15 1.05.55l.45.7q.95 2.05 1.45 4.05.3 1.35 0 2.05l.25.3 1.35.15L25.4 33l2.55-.05 1.25.15 1.3-.85q2.95-2.6 5.9-2.7l.05-1.75.2-.9q.3-.85 1.8-1.4 3.8-1.4 7.95-1.5 1.45 0 2.05.5.7.6.8 2l-.05 2-.05.7 2.9-.3q4.15.5 6.15 1.5 1.3.6 1.6 1.45l-.05 1.4-.45 1.45-.2 2 .25-.5.2-.65.45-.7.5-.5q.75-.6 1.7-.45l.65.15.55.05.65.3.6.75.2.95-.55 1.25-.5.75-.6.3-.3.05-.15.2q-.55.8-1.2 1-1.3.45-2.2-.55-.55-.65-.5-1.4l-.65.75-.95.2-.8-.5-2 .45-2.2-.05-4.3.25-4.35.45-3.25-.35-1.45-.65-2.25-.2-15.95.25-7.45-.25q-4.65-.25-7.5-.15l-2.25-.15q-1.3-.25-1.7-1.3-.25-.6-.1-1.4l.35-1.4q.7-2.5.45-6.2l-.6-6.35-.15-7.45q-.15-4.4-1.1-7.2l-.6-2q-.2-1.15.4-1.95.9-1.1 3.35-.8l.1.05.1-.4q.25-.55.85-.8l1.1-.1.95.6q.4.45.45 1L7.1 3.1l.7 1 .75 1.95q.85 2.85.7 4.1-.1 1.25-.95 2.95l-1.4 2.8q.7-1.1 2.9-.8l.6.1.4-3.35.15-.6.2-.7q.25-.4.75-.35.25-.2.9-.45l1.05-.3 1.05.15q.45.35.5.85l-.35.9-.85.35-1.25.2v.35l-.35 3.4 1.05.3q1.95.55 2.95 1.45l1.7 2.35q.95 1.9 1 2.9M47.2 33.4l.15-.2q-.35-.25-.55-.8l-.2.15-1.3.9zM68 38.45q-.75 0-1.3-.7l-.65-1.4-.75-2.05-.3-.55q-.35-1.05.4-1.8l.8-.55.95-.45L69 29.8l2.05-.15q.6.25 1 1.2l2.55-1.2 1.2-.35.75.15q.45.2.45.6.05.4-.3.75l-.7.5-1.25.6-1.85 1.15-.1.1.15.45 2.25-.75.95-.2q.65 0 .95.45.45.45.2.95l-.3.45-.45.35-.55.3-1.2.45-.4.15-.2.2.1.25q.3 1.4-.35 2.05-.4.4-.95.35h-.2l-.1.05-1.95.25q-1.3-.65-2-.6zm-3.7-7.65q-.5.65-1.35.4-.85-.35-.75-1.2.1-.9.95-1.05.9-.2 1.25.6l.15.45-.05.4zM17.25 4.2l.55.05.3.15.4.6-.1.75q-.35.8-1.25.6l-.6-.45q-.25-.35-.2-.7 0-.35.25-.65zM10.5 1.7l-.25.1-.8-.2q-.5-.35-.35-.95l.45-.5.95-.05q.4.2.45.55l-.1.7z"/><path d="M21.05 6.1q1.75-1.45 3.55-2.2 3.15-1.4 6.8-.85l2.3.55q.7-.5 1.75-1.1l1.6-.8q1.2-.6 1.8-.7 1.15-.2 1.85.5.5.55.5 1.9l-.15 2.05L40.7 9l.05.1q1.4 2 1.95 3.9 1.1 4-1.2 8.95-1.3 2.9-3.35 4.95l-2 1.7h.05q2.65 1.05 4.3 1.15l3.25-.2q3.8-.5 5.85-1.3 3.25-1.3 4.4-3.9l.25-.6-.3-.5-.45-.05q-1.3-.1-1.8-.6-.3-.3-.65-1.3Q50 18.35 50 16.6q.1-1 .35-1.4.25-.5.95-1.05 3.25-2.5 7.2-2.55l-.05-.75q0-1.55.25-2.3l.6-1.15q1.35-2 3.25-2.65l2.1-.2q1.15.15 1.95.75l.45.5.25.6.5.55q.35.55.35 1.9L68 10.8l-.3.7q-.75 1.55-2.05 2.5l.1.45.3 2.55-.1 2q-.45 1.5-2.45 2.65l-.65.35q-.05.9-.55 1.5l-.85.7q-1.25.7-2.4.9-1.55 3.45-3.2 5-1.5 1.45-4.55 2.75l-2.45.9-2.6.4q-4.6.6-7.05.05l-2.15-.7.3 1.3q.4 2-.05 2.95l-.65.85h-2.9l-.2-.15-.15.15H21.55l-2.2-3.65-1.3-1.55q-.85-.55-2.45-.45-1.3 0-2.1.5l-1.05.95-1 1q-.85.6-1.9.6-1.05-.05-1.75-.75-.9-.9-.75-2.35.25-1.3 1.15-2.3 1.8-1.95 5.6-2.3 1.15-.15 2.3 0l1.8.55 2.95 1.65 1.1 1.45q.9 1.5 1.45 3.15l.65-1.45.35-1 .4-1.8.15-.9q-1.15-.3-2.2-.75-1.7-.8-3.45-2.4l-2.5-2.9q-1.15-1.85-1.45-4l-2.8-.3-1.1-.7q-.55-.55-.45-1.35.05-.75 1-1.9l1.2-1.45 3.8-4.15 1-.75q1.25-1.7 3.05-3.2m41.9 5.9.95.2.3-.35.85-1.35q.35-.85.2-1.6L64.7 8l-.3-.2-.8.1q-.85.4-1.35 1.25-.5.9-.4 1.85l.2.85zm-7.05 7.45.9-.4 3.65-.15.3.1 1.65-.75.4-.35.1-.75-.15-1.1-.6.45-.9.3-1.3.65-1.15.25h-1.1l-2.7-.05-.6-.2-.1-.25.2-.3 3.45-.55 1.6-.45 1.35-.75.2-.15-2.4-.1q-3.25.15-5.8 2.1.1.6.65 1.35l.85 1.2 1.2.1zM35 21.95l1.05-.3.05.15.2.5-.05.95-.45 1.3q-.35.65-1.05.65l-.75-.1-.8-.15-.45-.5q.85-1.05 1-2.35zm-4.4 1.2q-.95.95-2.25 1.1l-.6.1q-.45.25-.35.7l.6.7 3 .1 1.05.9q.7.5 1.2.6l1.85.05.65-.15.4-.25 1.25-1.2.35-1.05.25-1.4-.1-1 .05-.6-.2-.8.15-.1 1-.75 1.05-1.3q.3-.55.1-.9-.15-.3-.5-.3-.3 0-.55.25l-.2.25-.45.4q-.9.6-1.95.9l-1.4.15-.9-.45-.95-.45q-.9-.3-1.7.4-.7.75-.45 1.7l.3.65.05.25-.1.4zm-2.1-3.45q-.1-1.15-.75-1.95-.85-.85-1.85-1l-.95-.05-1.05.05q-.5.2-1.05.55-.95.65-1.25 1.35l-.25.6-.4 1.55q-.15.85.15 1.6l.6.9q.6.7 1.2.95l1.9.15q.65-1.65 2.05-2.5.7-.45 1.4-.5l.05-.3zm4.6-7.6-.25 1.35q-.15 1.95 1.55 3.15.75.5 1.9.65h.4l.35-.55.95-.95q.7-.55 1.55-.55h.35l.3-1.2q.15-.85-.15-1.75Q39.5 10.6 37.7 10l-.7-.15q-1.85-.3-3.3 1.3z"/><path fill="#fff" d="m33.1 12.1.6-.95q1.45-1.6 3.3-1.3l.7.15q1.8.6 2.35 2.25.3.9.15 1.75l-.3 1.2h-.35q-.85 0-1.55.55l-.95.95-.35.55h-.4q-1.15-.15-1.9-.65-1.7-1.2-1.55-3.15zm-4.6 7.6-.2 1.4-.05.3q-.7.05-1.4.5-1.4.85-2.05 2.5l-1.9-.15q-.6-.25-1.2-.95l-.6-.9q-.3-.75-.15-1.6l.4-1.55.25-.6q.3-.7 1.25-1.35.55-.35 1.05-.55l1.05-.05.95.05q1 .15 1.85 1 .65.8.75 1.95m2.1 3.45.65-1.1.1-.4-.05-.25-.3-.65q-.25-.95.45-1.7.8-.7 1.7-.4l.95.45.9.45 1.4-.15q1.05-.3 1.95-.9l.45-.4.2-.25q.25-.25.55-.25.35 0 .5.3.2.35-.1.9l-1.05 1.3-1 .75-.15.1.2.8-.05.6.1 1-.25 1.4-.35 1.05-1.25 1.2-.4.25-.65.15-1.85-.05q-.5-.1-1.2-.6l-1.05-.9-3-.1-.6-.7q-.1-.45.35-.7l.6-.1q1.3-.15 2.25-1.1m4.4-1.2-1.25.15q-.15 1.3-1 2.35l.45.5.8.15.75.1q.7 0 1.05-.65l.45-1.3.05-.95-.2-.5-.05-.15z"/></g></svg>