<svg xmlns="http://www.w3.org/2000/svg" xmlns:ffdec="https://www.free-decompiler.com/flash" ffdec:objectType="shape" width="71.65" height="39.1"><g fill-rule="evenodd"><path fill="#767676" d="M61.05 6q.85.3 1.5.85 1.1.95 1.7 2.15 1.4.75 2.35 2.1l.45.55q.85.85.85 1.95l-.25.75q-.65.75-1.75.65l-.6.1-1.3.3-1.85 2.95-1 1.05-1.65 1.15-.4.25q.9.4 1.6 1.3l.45.6q1.6 2.15 2.5 4.7l.75 1.9q2.25-1.1 4.65-1.8 1.65.4 1.85 2.1l.2.65q.8 1.75.4 3.55l-.6.75-1.6 1.15q-.5.4-1.15.2-1.45-.4-1.3-1.85.15-1.1 1.15-1.65l.6-.3-.1-.15v-.1l-.05-.2v-.05l-.1-.1-.05-.2-.05-.2q-1.5.4-2.9.95l-.25 1.6q-.25.55-.85.7l-1.2-.05-.55.95-.3.55.2.95q.1 1.15-.45 1.8H56.1q-.65.25-1.4 0l-.55-.25-.45-.3-.7.4q-1.45.15-1.8-1.1-.3-.8-.05-1.6l1-2.8-.6-.55q-.35-.7-.15-1.45-1.95-.2-3.5-1.35l-.2-.45q-.2-1.6.85-2.95 1.35-1.8 3.2-3.05l.3-.2 1.5-1.15-.15-.25q-1.6.45-3.35-.55L48.8 20q-.9-1.1-.95-2.5-.1-1.4 1.05-2.45l.05-.05-.05-.6q-.15-2.8 1.2-5.15.7-1.2 1.75-2.1l.05-.45.5-2.2q.05-.65.5-1.1.45-.4 1-.45.7.05 1.15.6l.2.3.8 1.3q2.6-.1 5 .85m-.2 5.1q-1.75.1-2.1 1.85-.15.7.1 1.25h.05q1.6.15 2.5 1.3l.85-.45q.8-.6.8-1.65-.05-2.05-2.2-2.3m6.85 10.55q-.75-.2-.6-.85-.5-.25-.55-.85-.05-.85.4-1.6l.05-.05.35-.25.15-.05.1-.05h.1l1.05.2.25.25.05.95.15-.05.45.05.2.1q1.2.3.7 1.5-.25.55-.75.65-.8.3-1.5 0h-.05zm.1-1.55.25.1.15-.2v-.1l.05-.05v-.05h.05l.05-.2v-.05l.1-.4-.05-.45h-.05l-.95.15-.05.1-.15.4.1.4.35.4zm1.45.75.55-.2.05-.05.05-.05.05-.05.05-.05.05-.15v-.05l-.05-.2h-.05l-.4-.15v-.05h-.05l-.5-.05-.1.1-.35.45-.05.15.1.4zm-15.6-10.9q.15-1-.5-1.45l-1.2.7q-.6.25-.95-.25-.3.7.1 1.35.65 1.1 1.8.6.65-.25.75-.95m-7.9-.45-.25.15-.05.1v.55h.6l.15-.15-.1-.45.05-.25zm1.4-1.7-.25.15-.1.05-.15.45.05.3.05-.05.35-.05.3.1.2-.45.05-.3-.15-.1-.15-.1zM47 7.15l.65.1.2.1.25.25q.25.35.1.75l-.05.6-.2.3v.8l-.75.55h-.35l-.05.05v.05l-.1.05-.1.15q-.95.6-1.8 0l-.3-.35q-.3-1.45 1.1-1.9h.4V8.3l.2-.6.4-.4v-.05l.15-.05zm9.3 9.05-.6-.95.15-.85.05-.5q.25-1-.55-1.35-.5.05-.55.45l-.35 1.55-.15.35-1.5 1.3-.1.05-.1.05-.1.1v.1l-.05.05v.05l.05.05v.1l.05.05h.4l.1-.05.2-.05 1.45-.35h.05l.55.9q.5.75 1.3.55l.05-.4zm-2.7 10 .3-2.05q-1.75 1.6-3.15 3.6l-.05.2 2.65.55zm6.3.6.7 3.15.65 2.6.05.35.6-.9q-.4-2.05-1.15-4l-1.2-2.6zM7.25 21.35q.85.4 1.2 1.35l.4 1.7v.05l-.05.05h-.05v.05l-.35-.1-.1-.2q-.95-.75-1.5-1.9-.4-.8.45-1m2.1 3.25q1.15.4.4 1.3l-.5.1q-.9-.3-.4-1.1.15-.3.5-.3M5.4 22.7q.85.2 1.45 1l.25.45q.9.95 1.2 2.15l-.1.15q-.65.35-1-.35l-.2-.35-.05.05-.75.2.2.55v.15l.05.3.05.15v.1h-.05v.1l-.15.15h-.05q-.95-.25-1.2-1.25l-.2-.9q-.35-.8-.3-1.65t.85-1m.8 1.85-.15-.15q-.2-.25-.35-.2l.2.85.5-.2h.05zm-5-.25q.95.3 1.15 1.35v.1q.2-.2.6-.25l-.35-1.15q-.05-.4.3-.65.2-.15.45-.15.95.35 1.1 1.45l.3 1 .35 1.5-.1.15-.35.25-.95-.9-.15-.2-.75.15.25 2-.15.15q-.7-.05-1.05-.75l-.2-.3Q.55 26.75.4 25.1q0-.5.45-.7z"/><path d="m20 4.35.55-.05.1-.4.55-1.4q.3-1.2 1.5-1.35 1.65.55 2.85 1.85l1.05 1.35q1.9 2.35 3.3 5.1l.6 1.95q1.4 2.65 1.1 5.65-.25 2.4-1.2 4.65l2.15-.75.5-.2.95-.5 1.35-.7q1.45-.8 2.85-1.5l2-1.25.25-.15.9-.3.45.05 2.5-1.25.15-.05q1.4.3.8 1.55-.25.45-.8.6l-1.15.3-.05 1.2-.05.25-.05.2q-.2 1-1.1 1.55-1.65 1.15-3.55 1.8l-2.05.9-1.7.65-2.25 1.1-3.55 1.5 1.4 2.9.75.8 1.05 1.2q1.1 1.3 1.6 2.85.55 1.95.5 4l-.05.65H18l.15-.55q-1.9-.2-3.6-1.25-1.45-.95-1.25-2.65.15-1.25.7-2.35.6-1.35 1.6-2.5t2.15-1.95l-1.5-.35-1.4-.4q-2.15-.95-3.5-2.8-1-.85-1.7-2.05-1.05-1.9-1-4.05L8.7 17l-.35-.5-1.6-2.2q-.9-1.2-.9-2.65l.25-.85q.7-1.4 2.4-1.75l3.6-.7h.2q.5-.65 1.15-1.15 1.65-1.4 3.6-2.1 1.35-.65 2.95-.75m3.7 7.85h-.15q-1 .9-2.3.5h-.05l-.95-.25q-.35.1-.65.3l-.4.45-.1 1v.2l-.55.8q-.5.65-1.35.8-.45.05-.75.25-.4.25-.1.75.65.8 1.5.65-.05.55.2 1.1.7 2.15 2.85 2.5 2.05.35 3.3-1.2l.45-1q.5-2.1-.4-3.95l-.2-.45-.4-.4.4-.4q.7-.75.2-1.25zm-3 2.15.05-.15.15.05h.05l.2.15.8.3.5.15.9 1.35v.05l.05.15.05.1.05.1v.7l-.6-.05-.6.2-.15.1-.1.1-.1.1v.05l-.05.05q-.75-.05-1.35.4l-.35.4-.15-.25-.15-.45-.6-1q.9-.85 1.25-2.1zm5.6-6.15-.05-.35-1-.2q-2.5.15-4.1 1.9l.45.65.1-.1q1.9-1.5 4.35-1.5l.25.05zM9.2 6.9l-.55.55-.2.1-.05.15-.6.65q-1.65.8-3.45.5L3.6 8.6q-1.1-.05-1.85-1.05-.35-.45-.2-1.05.5-2.05 2.65-2.75l2.45-.05.35-.45-.8-.35q-.6-.4-.55-1.15Q5.75.2 7.35 0 8.4-.05 8.8.6q.6.5.7 1.45l.1.8v.75q.25 1.35-.15 2.5zM1.55 4.35l-.05.05q-.8-.05-.8-.8l-.5-.1-.2-.25q0-.7.85-.75l.05-.2-.05-.35q0-.25.3-.35h.05l.05-.05h.1q.7.15.65.85v.05l.25-.05q.95.1.45.8l-.35.2-.45.15zm9.8 13.25.3.1.05-.25q1.05-2.35 3.55-3.1L15 13.6q-1.05.2-1.95.8l-.75.65-.65.6-.35.65q-.3.4-.25 1.15zm7.85 16.05.4-2.55-.45.1h-.05q-1.1 1.3-1.6 2.95l1.6.15z"/><path fill="#fff" d="M26.3 8.2v.45l-.25-.05q-2.45 0-4.35 1.5l-.1.1-.45-.65q1.6-1.75 4.1-1.9l1 .2zm-5.6 6.15-.15.5q-.35 1.25-1.25 2.1l.6 1 .15.45.15.25.35-.4q.6-.45 1.35-.4l.05-.05v-.05l.1-.1.1-.1.15-.1.6-.2.6.05v-.7l-.05-.1-.05-.1-.05-.15v-.05l-.9-1.35-.5-.15-.8-.3-.2-.15h-.05l-.15-.05zm3-2.15.55.4q.5.5-.2 1.25l-.4.4.4.4.2.45q.9 1.85.4 3.95l-.45 1q-1.25 1.55-3.3 1.2-2.15-.35-2.85-2.5-.25-.55-.2-1.1-.85.15-1.5-.65-.3-.5.1-.75.3-.2.75-.25.85-.15 1.35-.8l.55-.8v-.2l.1-1 .4-.45q.3-.2.65-.3l.95.25h.05q1.3.4 2.3-.5zm-12.35 5.4-.3-.15q-.05-.75.25-1.15l.35-.65.65-.6.75-.65q.9-.6 1.95-.8l.25.75q-2.5.75-3.55 3.1l-.05.25z"/></g></svg>