<svg xmlns="http://www.w3.org/2000/svg" xmlns:ffdec="https://www.free-decompiler.com/flash" ffdec:objectType="shape" width="74.8" height="42.9"><g fill-rule="evenodd"><path d="M37.5 19.45q.35 2.55-.05 4.8l-.5 1.8Q35.5 30.55 31.8 34q-1.4 1.35-2.8 2.1l.05.1.85 2.05.25.6.25 1.45v.65H14q0-.95.4-2.15l.05-.05q.6-1.55 1.4-2.7l-2.1-1.25-1.95-1.7-1.45-1.5q-1.15-1.4-1.7-3.75-.35-1.7-.45-4.15l.05-1.1-.75-.7q-2-1.7-2.6-3.15-.45-1-.35-2.05.1-1.15.8-1.85l1.2-.9 6.2-3.5 1.15-.4q2.1-2.05 4.55-3l3.65-.9 2.3-.3q1.75-.05 3.75.75l.8-.45 1.5-.8q1.6-.8 2.45-.95 1.45-.4 2.5.25 1.15.7 1.3 1.9l-.05 2.8q0 3.65-.35 4.8l-.05.15-.8-.55-.9-.4q-1.45-.4-3 0-1.55.45-2.5 1.5l-.55.7q-.45.8-.75 1.85-.35 2.1.9 3.95l.95.95.2-.1.55-.2.7-.05.95-.05h2.1l1.55.3q1.25-1 1.75-2.45zM18.85 18.2l-1.5-.15-.25.45q-.85 1.4-1.9 2.15l-1.3.75-.9.4.1 1.25.25.75.6.95q1.6 1.75 3.95 1.3 1.35-.4 2.15-1.2.95-.95 1.25-2.3.25-1.4-.35-2.65-.8-1.35-2.1-1.7m2.5 10.55 2.05-.05 6.15.35 1.65.4q.75.05 1.35-.45.65-.5.75-1.25T33 26.4q-.45-.7-1.1-.9l-.9-.2-2.3.05-2.15.3-.05-.65h-.05l-.05-.15-.3-.4-.45-.35-.6-.15V24l-.5.05-.2.05-.3.2-.25.25-.15.2-.05.15-.1.2v.1l-.05.5.05.3h.05v.1l-1.25.3-2.85 1.05-.45.3-.2.5.4.4.7.2z"/><path fill="#fff" d="M50.6 1.15h.2q.7 0 .85.5l.25-.15.45-.1v-.05q.3 0 .65.25l.2.15.05.45h-.05l-.2.3-.5.25-.8.25-.2.15-.2.1-.45.15-.3.15-.3.1h-.2l-.15.05-.25.05q2.55 1.45 3.8 4.05.75 1.45.8 2.9v.95l-.2.85-.7.15-1.45.45q-1.3.55-1.95 1.9-.4.9-.35 1.9-1.7 1.1-2.55 2.25-1.2 1.5-1.35 3.3l.1 2.4v2.35l-.3 1.1q-.35.95-1 1.35l-.9.4q-.6.2-.9.35l-.35.25-.1.15-.3.8-.45 1.1-.3 1.25-.15 1.25.1.75q.35 1.4 1.25 2.95l.6 1.2-.05.65-.45.45-.95-.15-.2-.1-.8-.7-.7-.9-.45-.65-.5-1.05q-.55-1.5-.4-3 .1-1.2.75-2.9l.95-1.6.05-.05V30l.1-.1v-.1l.05-.1.1-.1.65-.55.15-.1.25-.1.85-.55.85-.4q.3-.25.4-1l-.1-1.65-.15-1.7q-.15-2.6 1.15-4.9 1.2-2.25 3.55-3.6l1.85-.95q1.05-.6 1.5-1.35.8-1.25.3-2.9-.3-1.15-1.4-2.6Q49 5.6 47.9 5.1l-1.1-.7q-.35-.6.1-1.35L48 2.2l1.8-.8zm1.9 13.75-.75.65-.1.1zm10.65 9.2-.75 1.55-.1-.05-1.3-.1-.9.05-2 .55-.25.1-.7-.6q-.95-1.1-.95-2.5l.1-.65.9-.9q.9-1.05 1.25-2.2l.05-.15.7-.15q1.9-.25 3.2 1.4l.65 1.5.1.55zm-15.95.1q0-1.85 1.05-2.9.9-.85 2-.85l.35 1 .2.4.45.4.95.65.65.2.45.1-.1 1.55-.2.8q-.25.8-.95 1.4-.65.55-1.5.65l-1.65-.25q-.8-.4-1.25-1.1-.45-.75-.45-1.55zm9.45 3.9 1.25.85 1.1-.4.95-.55 1.05-.05q.65.25.55.85l-.3.55-.4 1.15q-.8 1.35-2.15 2.15l-.45.3q-1.25.6-3.75.4l-.85-.1-.9-.3-.6-.55-.95-1.4-.65.3q-.35 0-.7-.35L48.6 29.9l-.35-.5.15-.45q.25-.25.55-.2l.65.35.5.15.35.05.65-.4q.5-.45 1.25-.5.7-.05 1.25.35.45.35.65.3l.35-.25q.75-.95 1.3-.95zm1.65 2.1-.75.25-1-.25-.95-.65-.6.6-.65.5-.8-.15-.7-.45-.25-.1-.3.1-.3.25.1.2.65.55q.7.45 1.5.6L56 31.6l.7-.2.6-.35 1.3-.95zM36.25 14.3q.95.8 1.3 2.1.4 1.55-.05 3.05l-.1.3q-.5 1.45-1.75 2.45l-1.55-.3H32l-.95.05-.7.05-.55.2-.2.1-.95-.95q-1.25-1.85-.9-3.95.3-1.05.75-1.85l.55-.7q.95-1.05 2.5-1.5 1.55-.4 3 0l.9.4zm-14.9 14.45-1.45.1-.7-.2-.4-.4.2-.5.45-.3 2.85-1.05 1.25-.3V26h-.05l-.05-.3.05-.5v-.1l.1-.2.05-.15.15-.2.25-.25.3-.2.2-.05.5-.05v-.05l.6.15.45.35.3.4.05.15h.05l.05.65 2.15-.3 2.3-.05.9.2q.65.2 1.1.9.4.6.3 1.35T32.55 29q-.6.5-1.35.45l-1.65-.4-6.15-.35zm-2.5-10.55q1.3.35 2.1 1.7.6 1.25.35 2.65-.3 1.35-1.25 2.3-.8.8-2.15 1.2-2.35.45-3.95-1.3l-.6-.95-.25-.75-.1-1.25.9-.4 1.3-.75q1.05-.75 1.9-2.15l.25-.45z"/><path fill="#717171" d="m41.55 41.05-.5.45q-.65.35-1.25 0l-.3-.2h-.05l-.05.05-.1.05-.1.05-.1.05H39l-.05.05h-.25l-.1.05h-.1l-.2.05H22.1l-.8.05h-4.2l-.7.05H7.25L7 41.7H5.7l-.15.05h-.2l-.25.05h-.25l-.2.05h-.3L3.2 41.8h-.65l-.2.05h-.1l-.2-.05H1.8l-.2-.05h-.15l-.1-.05-.15-.05-.05-.05-.1-.05h-.1L.9 41.5l-.05-.05-.05-.05-.05-.05-.1-.1v-.05l-.05-.05-.1-.1V41l-.05-.05v-.05l-.05-.05v-.05l-.05-.05v-.15l-.05-.05V40l-.05-.05v-.05l-.05-.05v-.2l-.05-.05v-.1l-.05-.05v-.7l-.05-.05v-1.8l.05-.05v-10.6l-.05-.05v-2.05l.05-.05v-2.6H.05v-.95l.05-.05v-1.3l-.05-.05v-3.1L.1 16v-.65l.05-.05v-1.8l-.05-.05V11l.05-.05v-.45l.05-.05V9.5h.05V8l.05-.05v-.9L.35 7v-.45L.4 6.5v-.2l.05-.05L.4 6.2v-.1l-.05-.05V5.9L.3 5.85v-.4l-.1-.1v-.1L.15 5.2v-.1L.1 5.05V3.9l-.05-.05v-1.4L0 2.4l.05-.05v-.3L.1 2v-.15l.05-.05v-.05H.2V1.7l.05-.05.05-.05v-.05l.05-.05.05-.05.05-.05.1-.1H.6l.1-.05.1-.05.1-.05.1-.05h.35v-.05l.1.05.05-.05h.1L1.7 1l.1-.05h.15L2.1.9h3.7l.15.05H9.8l.3.05h.25l.05.05h19.35l.1.05H30l.1.05h.1l.2.05h3.85l.2-.05h.3l1.8.05h1.2l.2.05h1.1l.55-.05H42l.15-.05h1.15l.15.05h1.35l.2-.05.15.05h.2l.1.05.1.05.05.05.1.05.3.3.2-.25L47.25.7 48 .35 49.35 0l.9.15q.5.3.4.8l-.05.2-.8.25-1.8.8-1.1.85q-.45.75-.1 1.35l1.1.7q1.1.5 2.45 2.15 1.1 1.45 1.4 2.6.5 1.65-.3 2.9-.45.75-1.5 1.35l-1.85.95q-2.35 1.35-3.55 3.6-1.3 2.3-1.15 4.9l.15 1.7.1 1.65q-.1.75-.4 1l-.85.4-.85.55-.25.1-.15.1-.65.55-.1.1-.05.1v.1l-.1.1v.1l-.05.05-.95 1.6q-.65 1.7-.75 2.9-.15 1.5.4 3l.5 1.05.45.65.7.9.8.7zm12.7-30.15.2-.55q.55-1 1.6-1.25h1.05q.65.1 1.15.45.8.6.85 1.5.15 1.1-.55 1.9-.7.75-1.75.85h-.5l-.5.25-1.7.4-1.5.4-.1.05-.85.75-.15.3-.1.35.5-.25 3.9-.6 2.5.05 1.35.3.15-.55 1.6-2.4.75-.85q.45-.45 1.35-.95l.45-.25.2-.45Q64.5 9.5 65.3 9q.85-.5 1.7-.4.9.1 1.6.8.7.65.8 1.55t-.35 1.75l-1.3 1.15-1.8.1q-.9-.3-1.45-1l-1.35.6-1.2 1.1-1.2 1.6.8.45q1.5 1 2.35 2.55l.75 1.7.85 2.9.1 1.75q0 3.7-1.55 5.85l-2.2 2-1.95 1.35.05.15q1.45 2.95 1.75 4.35.4 1.8-.4 2.75-.5.55-1.3.65-.8.05-1.35-.45l-.45-.2-.3.1-2.9.65-2.45-.1q-.75-.25-1.25-.95-.5-.65-.6-1.4l.15-1.6.5-1.6-1.05.8-1.6.95q-1.55.75-2.7.65-1.6-.2-2.7-1.8-.75-1.25-.5-2.25-.8-.45-1.05-1.4-.2-.9.1-1.85.35-1.1 1.05-1.6.65-.45 1.45-.45t1.45.4q1.4 1 1.25 2.7-.15 1.65-1.6 2.55.1.4.8.8l.7.3.7-.15 1.45-.5q1.8-.7 2.45-1.4l.25-.2-.9-.45-1.9-1.2-1.1-1.25q-1.3-1.65-1.7-3.2-.45-1.4-.25-4.4l.3-1.75q.3-1.2 1.4-2.75.95-1.35 2.05-2.3l-.1-.5q-.05-1 .35-1.9.65-1.35 1.95-1.9l1.45-.45.7-.15.45-.1-.25-.75zm16.3 2.35q.45-.75.2-1.65l-.7-1.5L68.4 8l-1.25-.9-.65-.5-.85-.35q-.65-.2-1.3-.7-1-.7-1.05-1.6l.25-1.1q.7-1.25 3.25-2.3 1.15-.4 1.65 0l.25.4h.1l.15.05h.3l.2.05h.4l.05.05h.25l.1.05h1.4l.2.05h.1l.4-.05h.55l.15-.05h.35l.1.05h.1l.1.05.1.05.05.05.1.05.1.1h.05l.05.05v.05l.05.05.05.05v.05l.05.05v.05l.05.05v.1l.05.05v.1l.05.05v.05l.05.05v.05l.05.05.05.05v.05h.05v.1l.05.05v.1l.05.05V3l-.05.05v.3l.05.05v.8l-.05.05v.2l.05.05v3.1l-.05.05v2.3l-.05.05v1.6l-.05.05v3.3l.05.05v1.65h-.05v2.05l.05.05v2.75l-.05.05v.15l-.05.05v2.1l.05.05v1.05l.05.05v1.55l.05.05v.95l.05.05v.35l-.05.05v.25l.05.05v6.35l.05.05v.4h-.05v.55l.05.05v.7h-.05v.05l.05.05v1.25l-.05.05v.05l.05.05V40l-.05.05v.15l-.05.05-.05.05v.05l-.05.05v.05l-.05.05-.05.05v.05l-.05.05-.1.05h-.05l-.05.05-.1.05-.1.05-.05.05h-.15l-.2.05-.15-.05h-.15l-.05.05h-.35l-.1-.05h-.35l-.05.05h-.35L72 41h-.2l-.75.05h-.7l-.1.05h-.4l-.2.05h-.4l-.8.9q-.5.45-1.15.35-.4-.05-.7-.45l-.3-.75q0-.4.3-.95l.4-.9q.2-.85-.2-1.75l-.95-1.5-.7-1.1q-.25-.55-.15-1.45l.25-1.25.6-.95 2.9-3.35.85-1.25.05-.75q-.05-1.45-1.35-3.3L67.05 21q-.7-1-.85-1.9-.3-1.55.65-2.85l1.4-1.3 1.6-1.05zm2.15-2.55-.05-.05.05.3zm-9.55 13.4v-1.6l-.1-.55-.65-1.5q-1.3-1.65-3.2-1.4l-.7.15-.05.15q-.35 1.15-1.25 2.2l-.9.9-.1.65q0 1.4.95 2.5l.7.6.25-.1 2-.55.9-.05 1.3.1.1.05zm-15.95.1v.5q0 .8.45 1.55.45.7 1.25 1.1l1.65.25q.85-.1 1.5-.65.7-.6.95-1.4l.2-.8.1-1.55-.45-.1-.65-.2-.95-.65-.45-.4-.2-.4-.35-1q-1.1 0-2 .85-1.05 1.05-1.05 2.9m11.1 6 .3-.1-1.3.95-.6.35-.7.2-1.75.05q-.8-.15-1.5-.6l-.65-.55-.1-.2.3-.25.3-.1.25.1.7.45.8.15.65-.5.6-.6.95.65 1 .25zm-1.65-2.1-.75-.25q-.55 0-1.3.95l-.35.25q-.2.05-.65-.3-.55-.4-1.25-.35-.75.05-1.25.5l-.65.4-.35-.05-.5-.15-.65-.35q-.3-.05-.55.2l-.15.45.35.5 1.25 1.05q.35.35.7.35l.65-.3.95 1.4.6.55.9.3.85.1q2.5.2 3.75-.4l.45-.3q1.35-.8 2.15-2.15l.4-1.15.3-.55q.1-.6-.55-.85l-1.05.05-.95.55-1.1.4zm-20.4-13.8.05-.15q.35-1.15.35-4.8l.05-2.8q-.15-1.2-1.3-1.9-1.05-.65-2.5-.25-.85.15-2.45.95l-1.5.8-.8.45q-2-.8-3.75-.75l-2.3.3-3.65.9q-2.45.95-4.55 3l-1.15.4-6.2 3.5-1.2.9q-.7.7-.8 1.85-.1 1.05.35 2.05.6 1.45 2.6 3.15l.75.7-.05 1.1q.1 2.45.45 4.15.55 2.35 1.7 3.75l1.45 1.5 1.95 1.7 2.1 1.25q-.8 1.15-1.4 2.7l-.05.05Q14 40 14 40.95h16.4v-.65l-.25-1.45-.25-.6-.85-2.05-.05-.1q1.4-.75 2.8-2.1 3.7-3.45 5.15-7.95l.5-1.8q.4-2.25.05-4.8.45-1.5.05-3.05-.35-1.3-1.3-2.1"/><path fill="#fff" d="m20.7 14.2-.05.3.05.1v.3l.6.4.3.15.15.2.1.2.15.2.1.2v.15l.05.15v.4l-.1.2-.35.4-.45.1-.35-.05-.25-.15-.4-.6-.1-.1-.1-.2-.1-.65h-.05l-.05-.3.05-.35-.05-.2.05-.55.05-.25.05-.15.1-.15.45.05zM15 11.75h.15l.2.05.05.25v.1l-.1.05-.3 1.3-.05.65-.05.35.1.3.05.4-.05.05-.05.4-.05.05-.2.3-.45.2-.95-.2-.15-.1-.2-.45v-.2l-.05-.15.05-.15v-.2q.1-.4.35-.55l.15-.35.1-.1.2-.4.2-.45.15-.15.15-.25.55-.45zm-4.35 8 .15-.3v-.25l.15-.15.2.2.05.3.1.3.05.45.05.9-.05.55.15.5v.4l.3.55.1.25.05.6-.05.8q-.15.75-.9.9-.65.25-1.2-.2-.6-.5-.5-1.2l.3-.8.05-.2.7-1.1.05-.1.1-.25.05-.4.05-1.5z"/></g></svg>