<svg xmlns="http://www.w3.org/2000/svg" xmlns:ffdec="https://www.free-decompiler.com/flash" ffdec:objectType="shape" width="78.55" height="43.3"><g fill-rule="evenodd"><path fill="#999" d="M1.05 42q.25-.55 1.2-1.4L6.7 37l4.25-3.8 1.2-1v-1.1l-.05-.1v-.45l.05-.1V28.1l.05-.1v-2l.05-.1v-6.4l.05-.1V19l.05-.1v-1.95l.05-.1v-.65l.05-.1v-1.45l-.05-.1V13.3l-.05-.1V9.95l-.1-.05-.2-.1-.2-.1-.25-.1-.1-.1-.15-.1-.1-.1-.1-.1-.1-.1-.15-.1-.2-.1-.15-.1-.2-.1-.2-.15-.2-.1-.15-.1-.1-.1-.15-.1-.2-.1-.15-.1-.15-.1-.15-.1-.1-.1-.15-.1-.1-.1H8.5l-.2-.1-.25-.1-.15-.1-.1-.1-.2-.1-.2-.1-.1-.1-.2-.1-.15-.1-.1-.1-.2-.1-.2-.1-.15-.1-.2-.1-.25-.15-.2-.1-.1-.1-.2-.1-.15-.1-.15-.1-.25-.1-.1-.05-.35-.1-.25-.1-.1-.1-.1-.1-.15-.1-.15-.1-.1-.1-.1-.1-.1-.1-.1-.1-.15-.1H3l-.3-.1-.2-.1-.2-.1-.2-.1-.15-.1-.1-.1-.1-.1-.1-.1-.1-.1-.1-.1-.1-.1-.15-.1-.1-.1-.3-.05-.15-.1-.1-.1-.1-.1-.1-.1-.05-.1-.1-.15-.1-.1-.05-.1-.05-.1v-.4l.05-.1.05-.1.1-.1.1-.1.15-.1.15-.1h.3V.8h.05l.3.05.2.1.1.1.2.1.25.1.15.1.15.1.15.1.1.1.2.1.1.1.1.1.1.1.25.1.35.15.15.05.2.05.2.1.2.1.15.1.2.15.25.1.2.1.1.1.2.1.2.05.25.05.2.05.15.1.15.1.1.1.1.1.15.15.25.1.15.1.15.1.25.1.15.1.15.1.1.1.15.1.25.1.15.1.25.05.25.1.1.1.15.1.2.1.1.1.25.1.15.1.15.1.15.1.2.15.1.1.2.1.15.1.2.1.2.1.2.1.2.1.2.1.1.1.1.1.1.1.25.1.1.1.2.1.4.05h4.4l1.95.05 1.55.05h7.5l.35-.05.25.05.2.05.15.1 1.1-1.05.85-.6 2.2-1.6 2.4-2.2 1.35-.7q.6 0 .9.55.3.4 0 1.05L36.6 4.8l-3.65 2.9-1.15.7v1.35l.05.1v.5l.05.1v1.05l.05.1v.75l.05.1v5.65l.05.1v.95l.05.1v.6l.05.1v12l-.05.1v1.15l-.05.1.15.1.05.1.1.1.1.1.05.1.1.1.1.1.1.1.1.1.1.1.15.1.1.1.1.15.1.1.1.1v.1l.15.1.15.1.05.1.1.1.05.1.05.1.15.1.05.1.1.1.1.1.1.1.1.15.1.1.1.1.1.1.1.1.1.1.05.1.1.1.05.1.15.1.05.1.1.1.1.1.1.1.05.1.05.1.1.15.1.1.1.1.05.1.05.1.05.1.1.1.1.1.1.1.05.1.1.1.1.1.05.1.05.1.1.1.1.15.05.1.1.1.1.1.05.1.05.1.1.1.1.1.1.1.1.1.05.1.1.1.05.1.05.1.05.1.05.1.05.15v.5l-.05.1-.05.1-.05.1-.05.1-.05.1-.05.1-.05.1-.1.1-.15.1-.2.15-.2.1-.45.05-.55.05h-17.1l-.3.05-.55.05h-6.15L4 42.85l-.35-.05-.2-.05-.25-.1q-.4.2-.65.35l-1.35.1q-.45-.35-.15-1.1M64.1 31.65h.2v-.6l-.05-.1v-.3l.05-.1v-2.4l.05-.1V26.1l.05-.1v-6.4l.05-.1v-.45l.05-.1V17l.05-.1v-.7l.05-.1v-1.45l-.05-.1V13.2l-.05-.1v-3H59l-1.55-.05-.3-.05h-6.1l-1.1.05-.35.05-.25-.05-.15-.05h-.05L49 9.9l-.15-.1-.1-.1-.1-.1-.05-.05-.15-.1v.25l.05.1v.9l.05.1v.65l.05.1v2.85l.05.15v3.5l.05.1v.9l.05.1V31.4l1.1-.1.65.05.05-.05 1.35-.3 1.35.2.85.25 1.9.05 1.1-.35 1.4-.6q.85-.3 1.4 0l.6.5.65.45.55.1h.1zM77.5 42q.3.75-.15 1.1L76 43l-.65-.35-.25.1-.2.05-.35.05-8.35.05h-6.15l-.55-.05-.3-.05H42.1l-.55-.05-.45-.05-.2-.1-.2-.15-.15-.1-.1-.1-.05-.1-.05-.1-.05-.1-.05-.1-.05-.1-.05-.1-.05-.1v-.5l.05-.15.05-.1.05-.1.05-.1.05-.1.1-.1.05-.1.1-.1.1-.1.1-.1.1-.1.05-.1.05-.1.1-.1.1-.1.05-.1.1-.15.1-.1.05-.1.05-.1.1-.1.1-.1.05-.1.1-.1.1-.1.1-.1.05-.1.05-.1.05-.1.1-.1.1-.1.1-.15.05-.1.05-.1.1-.1.1-.1.1-.1.05-.1.15-.1.05-.1.1-.1.05-.1.1-.1.1-.1.1-.1.1-.1.1-.1.1-.15.1-.1.1-.1.1-.1.05-.1.15-.1.05-.1.05-.1.1-.1.05-.1.15-.1.15-.1v-.1l.1-.1.1-.1.1-.15.1-.1.15-.1.1-.1.1-.1.1-.1.1-.1.1-.1.05-.1.1-.1.1-.1.05-.1.15-.1-.05-.1v-1.15l-.05-.1v-12l.05-.1v-.6l.05-.1v-.95l.05-.1v-5.65l.05-.1v-.75l.05-.1v-1.05l.05-.1v-.5l.05-.1V8.4l-1.15-.7-3.65-2.9-1.75-1.6q-.3-.65 0-1.05.3-.55.9-.55.55 0 1.35.7l2.4 2.2 2.2 1.6.85.6L49 7.75l.15-.1.2-.05.25-.05.35.05h7.5L59 7.55l1.95-.05h4.4l.4-.05.2-.1.1-.1.25-.1.1-.1.1-.1.1-.1.2-.1.2-.1.2-.1.2-.1.2-.1.15-.1.2-.1.1-.1.2-.15.15-.1.15-.1.15-.1.25-.1.1-.1.2-.1.15-.1.1-.1.25-.1.25-.05.15-.1.25-.1.15-.1.1-.1.15-.1.15-.1.25-.1.15-.1.15-.1.25-.1.15-.15.1-.1.1-.1.15-.1.15-.1.2-.05.25-.05.2-.05.2-.1.1-.1.2-.1.25-.1.2-.15.15-.1.2-.1.2-.1.2-.05.15-.05q.2-.1.35-.15l.25-.1.1-.1.1-.1.1-.1.2-.1.1-.1.15-.1.15-.1.15-.1.25-.1.2-.1.1-.1.2-.1.3-.05h.05v.05h.3l.15.1.15.1.1.1.1.1.05.1.05.1v.4l-.05.1-.05.1-.1.1-.1.15-.05.1-.1.1-.1.1-.1.1-.15.1-.3.05-.1.1-.15.1-.1.1-.1.1-.1.1-.1.1-.1.1-.1.1-.15.1-.2.1-.2.1-.2.1-.3.1h-.05l-.15.1-.1.1-.1.1-.1.1-.1.1-.15.1-.15.1-.1.1-.1.1-.25.1-.35.1-.1.05-.25.1-.15.1-.15.1-.2.1-.1.1-.2.1-.25.15-.2.1-.15.1-.2.1-.2.1-.1.1-.15.1-.2.1-.1.1-.2.1-.2.1-.1.1-.15.1-.25.1-.2.1H70l-.1.1-.15.1-.1.1-.15.1-.15.1-.15.1-.2.1-.15.1-.1.1-.15.1-.2.1-.2.15-.2.1-.15.1-.2.1-.15.1-.1.1-.1.1-.1.1-.15.1-.1.1-.25.1-.2.1-.2.1-.1.05v3.25l-.05.1v1.25l-.05.1v1.45l.05.1v.65l.05.1v1.95l.05.1v.4l.05.1v6.4l.05.1v2l.05.1v2.35l.05.1V31l-.05.1v1.1l1.2 1 4.25 3.8 4.45 3.6zM14.45 31.65l2.3-.05h.1l.55-.1.65-.45.6-.5q.55-.3 1.4 0l1.4.6 1.1.35 1.9-.05.85-.25 1.35-.2 1.35.3.05.05.65-.05 1.1.1V19.15l.05-.1v-.9l.05-.1v-3.5l.05-.15v-2.85l.05-.1v-.65l.05-.1v-.9l.05-.1v-.25l-.15.1-.05.05-.1.1-.1.1-.15.1-.15.1h-.05l-.15.05-.25.05-.35-.05-1.1-.05h-6.1l-.3.05-1.55.05h-5.5v3l-.05.1v1.35l-.05.1v1.45l.05.1v.7l.05.1v1.95l.05.1v.45l.05.1V26l.05.1v1.95l.05.1v2.4l.05.1v.3l-.05.1v.6z"/><path d="m39.55 0 .35.05h.15l.2.1.25.1.15.1.2.1.1.1.15.1.1.1.05.1.05.1.1.1.05.1.05.15v.1l.1.1.05.1v.2l.05.1v.3l.05.1v20.75l.05.1V33.5l.05.1v6.1l-.05.1v2.55l-.05.1v.35H37.3v-.3l-.05-.1v-2.6l-.05-.1v-6.15l.05-.15V23.1l.05-.1V2.25l.05-.1v-.3l.05-.1.05-.15v-.2l.1-.1v-.1l.1-.1.05-.1.05-.1.1-.1.1-.1.1-.1.1-.1.15-.1.15-.1.2-.1.2-.1.15-.05h.55zm7.1 17.25q.15-1.5.6-2.7v-.2l.15-.9.15-.6.05-.65.15-.75.25-1.05.5-1.5.6-1.55.45-1.05q.2-.4.75-.55l.85-.05.95 1.1 1.8 2.15.25.25L60 9l.75-.9 1-1.65.75-.9q.65-.5 1.25-.45.7.05 1.05.55l.3.9.25.9.6 1.65-.05 1.6-.25 1.15-.6.8.4.55.65 1.8.35 2.3q0 1.65-.9 3.4-.8 1.55-2.3 2.8l-1.3 1 .4.95.15.9.05.65.8.7q1 .5 1.6 1.45l.3.75.55.05q2.75.65 4 1.2 2.1 1 3.15 2.45l.55 1.05-.1 1.65-.4 1.3-1.05.8q-1.25.7-2.4.85-1 .6-2.3.4-1.2-.05-1.95-.8-.85-.75-.4-1.95.35-.7 1.05-1.2.8-.4 1.55-.5h1.45l.7.05Q69 34.6 68 34.05l-2.85-.95-.65 1.1-1.25 1.45q.5.65.3 1.35l-.45.8-.75.7-1.6.45-1.3-.05-1.15-.25-.1.05q-.5.65-1.75 1.1-1.55.45-2.35-.25l-.9.2-1.6-.05q-.5-.2-.9-1.15l-.15-.2-.7.1q-1.7.15-2.3-.35-.5-.4-.5-1.1-.1-.7.4-1.3-1.8-1.65-1.8-3.15 0-.55.35-1.6l.4-1.15q.7-1.55 2.3-2.25l.6-.4.2-.7.25-1.25Q48 24.1 47.2 22.25q-1-2.05-.55-5m11.6 7.7.65.15.3-.65q.1-.55-.25-.95l-.45-.6-.4-.75v-.35l-.3-1.3-.2-.4-.7.05-.4.45-.3 1-.8.45q-.9.9-1.45 1.85-.3.5-.1.8t.55.2l.6-.2 1.5-.8.45-.25zm-9.95-8.6q-.05.2.4.8l.35.7.9.6.2.1q-.55.85-.6 1.25 0 .35.15.45l.6-.1 1.2-1 .7.3.8.25q.55.1.8-.25.45-.45.05-1.15l-1-.8h-.05l.15-.2 1.15-1.1q.25-.55-.25-1.1-.55-.45-1.1-.2-.35.15-.6.6l-.45.75-.3.55-1.4-.55-1.3-.3zm12.05-1.55q-.1.3.2.9l.3.75-1.25 1.05-.45.6q-.25.45.1.7h.65l.6-.35.8-.35h.1l.05.2q.3.9.7 1.15l1.35-.05q.6-.6.15-1.35l-.5-.55-.15-.25.7-.45.6-.5q.35-.5.1-.95-.15-.45-.7-.65-.65-.1-1.7.75l-.15.15-.4-.65-.45-.45q-.45-.2-.65.3m-27.4 1.5q.1 2.95-1.1 5.1-1 1.9-2.85 3.1l.1 1.25.1.7.55.35q1.55.6 2.1 2.15l.25 1.1.15 1.6q-.15 1.5-2.1 3.3.4.55.25 1.25-.1.75-.65 1.15-.65.55-2.35.5l-.7-.05-.15.2-1.05 1.25-1.55.15-.9-.15q-.9.75-2.4.4-1.2-.35-1.65-1h-.1l-1.1.3-1.35.15-1.55-.35-.65-.65-.4-.8q-.1-.7.45-1.35l-1.1-1.4-.5-1.05q-1.9.6-2.95 1.15-1.05.6-1.8 1.3l.75-.1 1.45-.1 1.45.4q.65.45.9 1.15.35 1.15-.6 2-.8.8-2 .9l-2.3-.25q-1.1-.05-2.3-.7l-.9-.7q-.3-.4-.3-1.3l.1-1.65.65-1.1q1.2-1.55 3.4-2.65l4.15-1.5.55-.1.4-.75q.7-1 1.75-1.55l.9-.8.1-.65.25-.9.5-1-1.2-.9q-1.35-1.15-2-2.7-.7-1.7-.5-3.35.05-.95.6-2.35l.85-1.85.45-.55-.5-.8q-.15-.35-.15-1.15 0-1.05.15-1.6l.8-1.7.35-.9.4-.95q.4-.5 1.1-.6.6-.1 1.15.35l.65.85.85 1.6.65.85 5.8-.15.3-.3 2.05-2.25 1.1-1.2q.45-.2.85 0 .5.1.7.5l.3 1.05.45 1.5.3 1.5.1 1.05.1.75-.05.65.1.6.05.85v.2zM17.6 13.5q-.8 0-1.45.55-.65.5-.85 1.3t.2 1.55q.35.75 1.1 1.1l1.55.15 1.3-.85q.5-.65.5-1.5-.05-.85-.55-1.45-.75-.85-1.8-.85m2.9 7.2-.6-.7-.4-.5q-.45-.25-.75.25l-.2.8q0 .7.25 1.15l1.1 1 .5.25.6.05.85-.15.65-.4.6-.5q.75.65 1.85.75l.65-.05q.6-.1 1.4-.7l.75-.95q.25-.6-.05-1.15-.4-.65-1-.4l-.45.35-.4.5q-.4.4-1 .4-.6-.1-.85-.65l-.15-.4q-.1-.2-.6-.3-.4-.05-.7.4l-.2.85-.55.4-.65.15zm6.9-5.15q.05.85.65 1.55t1.45.75q1 .1 1.8-.65.7-.7.7-1.75 0-.85-.55-1.5-.6-.7-1.4-.8-1.15-.15-1.85.55-.8.8-.8 1.85"/><path fill="#fff" d="M60.35 14.8q.2-.5.65-.3l.45.45.4.65.15-.15q1.05-.85 1.7-.75.55.2.7.65.25.45-.1.95l-.6.5-.7.45.15.25.5.55q.45.75-.15 1.35l-1.35.05q-.4-.25-.7-1.15l-.05-.2h-.1l-.8.35-.6.35h-.65q-.35-.25-.1-.7l.45-.6 1.25-1.05-.3-.75q-.3-.6-.2-.9M48.3 16.35l.4-.4 1.3.3 1.4.55.3-.55.45-.75q.25-.45.6-.6.55-.25 1.1.2.5.55.25 1.1l-1.15 1.1-.15.2h.05l1 .8q.4.7-.05 1.15-.25.35-.8.25l-.8-.25-.7-.3-1.2 1-.6.1q-.15-.1-.15-.45.05-.4.6-1.25l-.2-.1-.9-.6-.35-.7q-.45-.6-.4-.8m9.95 8.6-1.3-1.3-.45.25-1.5.8-.6.2q-.35.1-.55-.2t.1-.8q.55-.95 1.45-1.85l.8-.45.3-1 .4-.45.7-.05.2.4.3 1.3v.35l.4.75.45.6q.35.4.25.95l-.3.65zm-30.85-9.4q0-1.05.8-1.85.7-.7 1.85-.55.8.1 1.4.8.55.65.55 1.5 0 1.05-.7 1.75-.8.75-1.8.65-.85-.05-1.45-.75t-.65-1.55m-6.9 5.15.65.45.65-.15.55-.4.2-.85q.3-.45.7-.4.5.1.6.3l.15.4q.25.55.85.65.6 0 1-.4l.4-.5.45-.35q.6-.25 1 .4.3.55.05 1.15l-.75.95q-.8.6-1.4.7l-.65.05q-1.1-.1-1.85-.75l-.6.5-.65.4L21 23l-.6-.05-.5-.25-1.1-1q-.25-.45-.25-1.15l.2-.8q.3-.5.75-.25l.4.5zm-2.9-7.2q1.05 0 1.8.85.5.6.55 1.45 0 .85-.5 1.5l-1.3.85L16.6 18q-.75-.35-1.1-1.1-.4-.75-.2-1.55t.85-1.3q.65-.55 1.45-.55"/></g></svg>