<svg xmlns="http://www.w3.org/2000/svg" xmlns:ffdec="https://www.free-decompiler.com/flash" ffdec:objectType="shape" width="75.6" height="42.45"><g fill-rule="evenodd"><path fill="#fff" d="m39.4 41.35-1.5.05-.4-.05-.65-.15-.2.15q-1 .7-2.65.35l-.9-.35-1-.85h-.15l-1.3.35-1.55.2q-1.25 0-1.8-.4l-.8-.8q-.4-.5-.45-.9-.15-.85.5-1.6L25.3 35.7l-.6-1.25q-2.25.7-3.45 1.4l-2.1 1.5.85-.15 1.7-.1q.9.05 1.7.5.8.5 1.05 1.3.4 1.4-.7 2.4l-.05.05q-.9.85-2.3 1l-2.7-.3-2.4-.7-.3-.15-1.05-.8q-.35-.5-.35-1.55 0-1.45.15-1.9l.75-1.3q1.4-1.8 4-3.1 1.55-.75 4.85-1.75l.65-.15q.15-.45.45-.85.85-1.2 2.05-1.85l1.05-.9.15-.8.3-1.05.55-1.15-1.4-1.05q-1.55-1.35-2.35-3.2-.8-1.95-.6-3.9.1-1.1.7-2.75L26.95 11l.5-.65-.6-.95q-.15-.4-.15-1.35 0-1.25.15-1.85l.95-2 .4-1.1q.2-.7.5-1.1.45-.55 1.25-.7.7-.1 1.35.4l.8 1 1 1.9.75 1 6.8-.2.35-.35q1.15-.95 2.4-2.65.75-1.15 1.3-1.4.5-.2 1 0l.8.6.35 1.25.5 1.75.4 1.75.1 1.25.1.85-.05.75.1.7.1 1v.25q.35 1.4.35 3.15.1 3.5-1.3 6-1.2 2.2-3.35 3.6l.1 1.5q0 .6.15.8l.65.4q1.8.7 2.45 2.55l.3 1.3.15 1.85q-.15 1.75-2.45 3.85.45.65.3 1.5-.1.85-.75 1.35-.8.65-2.75.55l-.85-.05-.15.25q-.6 1.15-1.25 1.45z"/><path d="M16.3 41.35H0V0h75.6v41.35H39.4l.3-.15q.65-.3 1.25-1.45l.15-.25.85.05q1.95.1 2.75-.55.65-.5.75-1.35.15-.85-.3-1.5 2.3-2.1 2.45-3.85l-.15-1.85-.3-1.3q-.65-1.85-2.45-2.55l-.65-.4q-.15-.2-.15-.8l-.1-1.5q2.15-1.4 3.35-3.6 1.4-2.5 1.3-6 0-1.75-.35-3.15v-.25l-.1-1-.1-.7.05-.75-.1-.85-.1-1.25-.4-1.75-.5-1.75-.35-1.25-.8-.6q-.5-.2-1 0-.55.25-1.3 1.4-1.25 1.7-2.4 2.65l-.35.35-6.8.2-.75-1-1-1.9-.8-1q-.65-.5-1.35-.4-.8.15-1.25.7-.3.4-.5 1.1l-.4 1.1-.95 2q-.15.6-.15 1.85 0 .95.15 1.35l.6.95-.5.65-1.05 2.15q-.6 1.65-.7 2.75-.2 1.95.6 3.9.8 1.85 2.35 3.2l1.4 1.05L29 25.2l-.3 1.05-.15.8-1.05.9q-1.2.65-2.05 1.85-.3.4-.45.85l-.65.15q-3.3 1-4.85 1.75-2.6 1.3-4 3.1l-.75 1.3q-.15.45-.15 1.9 0 1.05.35 1.55l1.05.8zm21.2 0h-.85l.2-.15zm-4.4 0h-9.4l.05-.05q1.1-1 .7-2.4-.25-.8-1.05-1.3-.8-.45-1.7-.5l-1.7.1-.85.15 2.1-1.5q1.2-.7 3.45-1.4l.6 1.25 1.25 1.65q-.65.75-.5 1.6.05.4.45.9l.8.8q.55.4 1.8.4l1.55-.2 1.3-.35h.15z"/><path fill="#999" d="m59 24.05.15-.75q.35-.7 1.15-.8.7-.1 1.2.4.6.55.45 1.4-.15.75-.95 1.1l-1.35-.2q-.55-.4-.65-1.15m.45-14.35.3.55.05.55-.4 1.05-.9.6q-.55.2-1.15 0-.55-.2-.85-.7-.35-.45-.3-1.05 0-.6.35-1.05t.95-.6l1.1.05q.4.15.85.6m-17.6 4.25-.65-.6q-.35-.75.3-1.4l.55-.25.6.05q.85.35.75 1.2l-.1.45q-.75-.05-1.45.55m3.65.85q.4-1.15 1.3-1.5l1-.15q.55.1.9.5.5.55.4 1.5 0 1.3-.7 1.95-.8.8-1.8.45-.8-.2-1.1-.85.25-.55.15-1.3zm-2.05 3.3-.35 1q-.5.6-1.45.6l-1.5-.5q-.65-.35-.95-.8-.5-.8.05-1.9.55-.85 1.45-1.15l.35-.05v.85q.25 1.25 1.5 1.75zm-3.8-10.3-.1-.35q-.05-.45.25-.85.25-.35.7-.45l.85.1.55.6q.2.35.05.85l-.55.65-1 .15zm7.1 1.85.2.55-.1.45-.8.45-.75-.5-.05-.55q.1-.6.75-.7l.1-.05q.45.1.65.35m-7.75 11q.55-.35.95-.45l1.65.15q.8.35 1.2 1.05l.05.05.9-.75 1.8-.1q.65.3.8 1.05l-.1 1-.55.95-1.4 1.1q-.85.25-1.5-.25l-.1.1q-1 1.4-2.8 1.5l-1.85-.45-.8-.8q-.25-.5-.15-1.3l.05-.25h-.1l-.45-.2-.3-.2.1-.05.75-.45.5.15.75.4.95.35q.65.2.95 0 .5-.35.1-1.05l-.8-.8zM52.4 24q.2.4.05.85l-.5.7-.85.1q-.5-.15-.7-.5t-.15-.8q.05-.4.35-.65.3-.3.7-.3l.1-.05q.75.1 1 .65m-.95 14.6q-.25-.35-.2-.75.15-.45.55-.7.4-.15.75 0l.5.55q.2.8-.45 1.1-.6.35-1.15-.2m-5.6-9q-.4.6-1.2.85l-1.6-.15q-.8-.4-1.05-1.2-.15-.6.05-1.4.3-.8.7-1.25.75-.6 2-.3.95.25 1.3.95.25.5.15 1.35zm-.5 4.2q.9.3 1.25 1.05.55 1.2-.3 2.35-.85 1-2.2 1-1.05 0-1.55-.7l-.25-.5h-.45q-1 0-1.7-.65-.65-.65-.75-1.65t.4-1.75q.5-.8 1.45-1.1l1.85-.05q.95.35 1.3 1.1l.15.75zm-7.7-28.75q.6.8.65 1.4 0 .8-.65 1.45l-1.35.9-3.1.15q-.7-.4-.95-1.3-.2-.9.2-1.6.35-.55 1.05-1 1.45-1.1 2.5-1 .85.15 1.65 1m-7.35 8.5q.3-.55.8-.95.7-.5 1.5-.6.85-.05 1.6.4.75.5 1 1.3l.1 1.1q-.15.9-.9 1.5l-.3.2.05.25q.15.65-.4 1.2-.5.5-1.2.3-.4-.1-.6-.35l.9-1q.35-.65.2-1.45-.2-.8-.75-1.35-.55-.5-1.35-.55zm6.5-2.7q-.15.45-.7.55h-.45q-.45-.2-.55-.6-.15-.45.1-.85.3-.3.6-.35.5-.05.85.35.3.4.15.9m-8.3-8.2q1.1-.25 1.8.65.7.85.35 1.95-.3.9-1.35 1.45l-1.85-.15q-.5-.45-.6-1.15-.15-.7.05-1.35l.65-.9q.55-.45.95-.5m-1.2 5.7.4-.6q.8-.45 1.3.25.35.55 0 1.05l-.65.45q-.4.1-.75-.2l-.25-.35-.05-.25zm.45 6 .2.65q.1.7-.5 1.2-.2.2-.8.4l-.65.15q-.75 0-1.15-.65-.35-.55-.25-1.3l.2-.65q.4-.95 1.5-.75.95.1 1.45.95m-.9 5.25 1.05.9q.35.7.2 1.35l-.25.45-.7.6-1.1.35-1.2-.75q-.4-.6-.3-1.35.1-1.35 1.05-1.7zm3 2.95q-.35-.45-.35-.95l.1-.75q.45-.85 1.45-.85.95.1 1.3 1 .2.5 0 1l-.6.8q-1.05.6-1.9-.25m3.95 1.4.1.45-.3.8-.8.35-.75-.25-.45-.75.05-.3.2-.55q.15-.25.5-.35l1 .05zM16.4 10.8h.1q.45-.05.7.35.25.45.05.85l-.4.4-.3.1-.3-.1-.35-.2-.2-.3v-.35l.2-.55zm4.1 12.55q-.45.7-1.35.7t-1.35-.7q-.5-.85 0-1.75.5-.85 1.55-.75.95.15 1.25.95.4.8-.1 1.55m-6.2 15.4-.6-.55q-.6-1.05.35-2.2.75-.85 1.75-.9.8 0 1.25.45.65.65.35 1.65l-1.05 1.35q-.6.5-1.2.5zm6.15-7.4q1.15-.4 2.05.4.9.9.5 2-.2.8-.95 1.35-.7.6-1.5.8l.35.2q.35.35.4.85l-.1.7-.7.7-.95.05-.75-.6q-.25-.4-.2-.9.1-.5.5-.85l.3-.2-.9-.55q-.5-.5-.5-1.15-.05-1 1.45-2.2zm-10.15-.6V31l-.05.3-.15.2-.45.1-.2-.1-.15-.15-.1-.15v-.4l.25-.25.3-.05v-.05l.3.1zm30.8-2.1-.25.85-.7.55-.85-.05-.65-.65-.1-.3-.55.85-1.45 1-1.65.15q-.9-.2-1.55-.75l-.25-.25-.1.05-1.15.05q-.55-.2-.9-.7-.35-.55-.3-1.1.1-.6.5-1.05.45-.4 1.05-.5h.4q.3-.85 1.2-1.4 1-.7 2.15-.6 1.4.15 2.25 1.15.75.95.7 2 .25-.3.5-.35l1.1.1q.5.35.6.95m-8.3 5.2.55-.5 1.1-.1q.5.15.7.5.5.65.15 1.35-.25.75-1.1.85-.7.1-1.3-.5-.3-.35-.3-.9zm4.25 3.05q-.5 0-.8-.4-.3-.35-.3-.85 0-.7.6-1.05t1.2 0l.45.4.15.65-.35.9q-.35.35-.95.35m-11.3-6.55q-.05-.65.45-1.65l.65-.85q.4-.3 1.4-.4 1.1 0 1.55.45l.45 1 .05.4q1.15.4 1.65 1.6.7 1.55-.2 2.95-1 1.5-2.9 1.6l-2.05-.3-.4.15-.9-.05q-.5-.25-.65-.7-.15-.4.05-.9.25-.45.65-.65-.05-.7.25-1.35l.3-.45zm4.95 8.25q-.3 1.1-1.8 1.5l-2.05-.1q-1.15-.55-1.05-1.65 0-1.15 1.6-1.85l1.35-.4 1.15.15q.45.3.75 1.25zm9.25 1.85-.9.6L38 41l-.8-.75q-.25-.5-.15-1.05t.6-.9l1.05-.3q.35 0 .85.3l.5.5q.5.8-.1 1.65"/><path d="m43.3 13.4.85.15q.95.35 1.35 1.25l.15.6q.1.75-.15 1.3l-.7.8q-.6.55-1.35.6l-.9-.2q-1.25-.5-1.5-1.75v-.85q.1-.8.8-1.35.7-.6 1.45-.55m-7 9.45-1.2.65-.85.4q-.7 0-.7-.7l.15-.6 1.15-1.9.7-.75.4-.15.05-1.3q.2-.9 1-1 .4 0 .85.35l.5.8.2.55.15 1.1.3.35.6.75.8.8q.4.7-.1 1.05-.3.2-.95 0l-.95-.35-.75-.4-.5-.15-.75.45zm-4.35-4.95-.15.05-1.45.3q-1.6-.25-2-1.8-.2-.75.15-1.5.3-.7.95-1.1l.85-.3h.65q.8.05 1.35.55.55.55.75 1.35.15.8-.2 1.45z"/></g></svg>