<svg xmlns="http://www.w3.org/2000/svg" xmlns:ffdec="https://www.free-decompiler.com/flash" ffdec:objectType="shape" width="77.2" height="42.9"><g fill-rule="evenodd"><path fill="#999" d="m6.1 8.8-.35-1.15-.6-1.05-.7-1.05L3.7 4.3l-.8-.7-.35-.95L2.4 1.4q.1-.6.65-1.05.5-.4 1.1-.35l.8.2L8.4.7l1.4.5q.45.4.7 1.15l.3 1.95.05.85.2.55.15 1.75-.3.95-.6.7-.65.2H8.9l-1.3.3q-.95.1-1.5-.8m36.3 1.9-.7 1.45-1 1q-.35.2-.7 0-.4-.25-.4-.85l.25-.95.35-1.6.2-1.6.1-2-.1-.45-.1-.45L38.85 7l-3.5 3.4-.65.4q-.65.2-1-.45-.2-.5.2-1.25l.35-.55h-.95q-1.3-.25-1.9-1.3-.7-1.1-.15-2.2l.35-.55q.45-.65 1.3-1l1.55-.2q1.35.1 2 1.3l.25 1.25 1.55-2.1.65-1.2.25-.5q.4-.65 1.1-.8.55-.05.95.25.05-.55.45-.85.35-.35.9-.3l.95.3.7.55.4.15.75.7.35.6 1.4 2.9.1.45.2.45.05.2.05-1.7-.25-.95q-.05-.45.15-.8l-.2-.15q-.5-.4-.6-.95t.2-1.1l.9-.75.45-.05 2.4.3 1.5.3q.45.3.7 1.05l.25.25.25.75.4 1.1L54 5.1l.1.95.45 1.65-.25 1.05-.85 1.1-.8 1.3-.25.35-1 .9-1.85.55q-.75.15-1.4.45l-1.5.55q-.95.2-1.5-.3l-.75-1.1-.6-.55-.65-1.1-.05-.6-.3-1.1-.05-.55-.1.4-.05.85zm21.8-6.65q-.45-.5-.5-1.2t.35-1.25q.35-.55 1.05-.75.65-.25 1.25 0 .65.25 1 .85.4.55.3 1.25L67.1 4.1q-.5.5-1.2.6-1.05.1-1.7-.65m9.95-2.8q.65-.15 1.05.4.35.45.25 1.15l-.2.85L75 4.9q-.4.75-1.5.45l-1.35-1q-.7-.8-.6-1.4.05-.4.65-.9.6-.6 1.1-.65h.45zm-2.55 5.8q-.65-.35-1.2-.35l-.95-.05q-.5-.2-.4-.9.1-.5.5-.95.55-.45.9-.5.65 0 .75.55.75-.05 2.15.7 1.25.6 1.35 1.35v.25l.25.45q.7 1.5.5 3.05l-.6 2.6q-.35.55-.95.65h-.65l-1.3.4-1.3.55-.95.25q-.85.1-1.3-.75-.35-.85.25-1.5l.8-.6 1.2-1.1q.75-.7 1.9-1.1l.35-.2.05-.35-.25-1.6v-.15zM65.15 8.6l-.2-.65-.3-.65q-.15-.55.1-1.05.25-.6.75-.8l1.05-.05.85.6.35 1.15.05.6.3-.15 1.05-.65 1.2-.1 1 .6q.4.5.35 1.15t-.5 1.1l-.75.5-1.75.65-1.45-.2-.1.1-1.65 1.8-2.45 2.2-2.1 1.25-.7.1-1.4.15q-.7-.15-.7-.9l.1-.3-1.1.5-.45.15-.35.7-.6.5-.2.2.1.35q.2.3.95.2l1-.25 1.35-.1q.4.05 1 .45l.8.9.15.95-.05.85q-.25 1.05-1.25 1.15-1 .15-1.5-.75l-.25-.35-.4-.05-4 .45-1.2.55-1.2.25q-.85-.1-1.65-1.2l-.45-.85-.1-1.3.4-1.6.6-1 .7-.9q.45-.45 1.15-.8.7-.45 1.15-.55l2.55-.1.95.3h.95l1.35-.95 1.05-.15q.7.3.45.9l-.2.35.9-.25L62 12.4l.75-.85-.85-.05q-.95-.25-1.5-.95t-.45-1.7q.05-.95.7-1.6.55-.55 1.25-.7.9-.2 1.75.3T64.8 8.2l.15 1.05zM63.8 18.8q.3-.65 1.7-1.3l1.45-.7q2-.85 3-.75.75 0 1.2.5l.45 1 .65 1.45.65.9.35 1.05q0 .7-.6.85l-1-.3-.9.6-1.15.2-1.3.15-1.85.3-.85.15q-.55.05-1.05-.3t-.6-.85v-.95l-.25-.8q-.15-.6.1-1.2m9.95 10.75-.9.35-5.6.4q-1.15-.1-1.8-.4l-1.25-1q-.55-.7-.55-1.45-.05-.55.2-1.25l.35-.85q.6-.95 2.4-1.35l1.7-.35 1.35-.05 2.25.4 1.7.3 1.15.35q.9.5 1 1.55.15.95-.4 1.8l-.75.8zm-31.5-26 .35 1.4.25 1.4.05.6.1-.25q.55-.9 1.65-.9l.4.05-.4-.4-.75-.95-.65-.8-.75-.3-.3-.2zm4.85 3.8-.7.2V8.8l-.1 1.05-.1.5 1.05-2.85.1-.45zm-5.8 11.7-.55-.45q-.65-.85-.6-1.8v-.4l.1-.45q.4-1.4 1.9-1.75 1.4-.4 2.5.6 1.1 1.1.85 2.45-.25 1.45-1.6 2.05-1.35.55-2.6-.25m.6 2.65.65-.1 1.45-.65q1.3-.5 2.05-.4l.8.45-.05.9.95 2.1.2 1.05.1.9q-.05.75-.75 1.25-.5.3-1.4.4l-1.4.2-1.4.3-1.15-.45q-.5-.4-.5-1.1v-.75l-.4-2.25v-.95q.15-.75.85-.9m12.45 5.8q0-.75.15-1.1.2-.65.7-.85l.6-.15.95-.35 2.05-.3.4.1q.25.25.05.85l1.3 1.5.4.35.3.6q.25 1.1-.5 1.7l-.9.5-2.25.85-2 .3-.45-.15v.5l-.05.4.5-.1 2.25-.55 2.3-.85 2.05-.1q.5.3.55.95l-.35 1.05q-.2.25-1.35.75l-2.85 1.35-2.35.5-1.9.65-1.9.65-1.9.55-2.25 1.15q-1.5.6-2.35-.2-.55-.5-.5-1.3.1-.85.7-1.3t2.1-.95q1.05-.6 1.7-2.4l1.05-2.85.3-.55-.05-.75-.6-2.85q-.2-.55 0-.95.25-.45.85-.55l1.05-.05 2.35-.8q1.55-.6 2.45-.35.3.1.5.35t.05.45l-.4.3-4.4 1.6q-.05.55.4 1.75l1 2.95.05.65.35.1q-.2-.45-.1-.95l.1-.55zm.9 13.2-4.75.7-1.65-.2q-.4-.3-.45-.85-.1-.55.25-.95.25-.25.95-.55l1.3-.5q3.5-1.3 5.35-1.55l1.4-.25 1.7-.5.95.05q.55.3.55.75 1.3 1 1.65 1.75.3.55.2 1.2-.05.65-.5 1l-.9.4-1.1.25q-1.45.1-2.15-1.35zm-15.7-16.2.05.35 1.1 4.7 1.95-.3 1.95-.35.8.1 1.4-.35 1.4-.1q.5.2.7.8.2.55 0 1.1-.3.95-1.4 1.75l-1.65 1.25-2.45 1.05-2.5.8-2.15.6q-1.35.1-1.95-.8l-.3-.45-.9-.15q-.9-.1-1.25-.95-.15-.4-.15-1.2l.1-4 .5-2.6.3-.75.9-.55 1.25-.7q.75-.4 1.25-.55l1 .05q.65.35.3.9zm3.1 17.95-1.6-.35q-.85-.5-1.05-1.3t.2-1.65q.45-.8 1.25-1.1 1.35-.5 2.35.5 1 .9.65 2.3-.4 1.35-1.8 1.6m33.1-8.1.15 1.5v3.2l.1.95q-.05 1.15-1.35 1.6l-2.25.2-4.85-.2-1.6-.25q-.75-.25-1.15-.95-.45-.7-.25-1.4l.1-.2q-.05-.95.2-2.05l.6-2.5q.25-1.35.6-1.65.25-.25 1.2-.35L70 32.1q2.25-.05 4.95.7l.75.45q.3.5-.05.9zm-56.1-32.9.9-.05 1.35-.1 1.3.1 1 .35 1.1.25q1.05.3 1.2 1.4.15 1.05-.7 1.7l-2.4 1.35-1.8.95-.6.35q-.95.5-1.9-.45-.5-.45-1.1-1.75l-.35-.9q-.4-.75-.5-1.35-.1-.85.35-1.35.45-.55 1.15-.45l.5.05zM22.8 12.6l.5.35 1.3 1.2.5.7q.35.65.15 1.25-.2.75-.75.95l-.4.25-.25.35q-.4.7-2 1.45l-.65.2-1.15.05q-.95-.1-1.7-.65-.85-.6-1-1.5l-.05-1q.1-.65.35-1.2l.85-1.05.8-.75q.85-.85 1.55-.95l1.35.15zm5.45 10.2.05-.7-.15-.65-.8-2.5-.3-1.15q.05-.75 1.2-1.5t3.15-1.7q1.9-.9 2.95-1.1 1.25-.2 1.8.4l.3.8 1.25 5 .1 1.2q-.2.8-.85.7l-.55-.15-.7.1-1.4.7-1.4.8-1.05.5-.8.55-.05 1.2-.5 1.7-.05.5.25.2.7.85q.6 1.15-.2 2.2l-.95.6-1.15-.05-.75-.35-.65-.2-1.05-1q-.3-.65-.05-1.45l.3-.75.15-.55.45-1.2.45-1.25.25-.75.2-.25zm-13.3 8.55h-1.9q-1.1-.1-1.65-.8-.3-.3-.75-1.6l-.2-1.25q0-.75.35-1.15l.5-.4 2.2-1.35 1.4-.6.8-.55q.75-.5 1.55-.35.5.15.8.4l.1-.4q.15-.65.65-1.15.65-.5 1.7-.6h1.05q.65.15 1.4.75l1.6 1.4.75 1 .15.9-.05 1.6-.1.75.05 1.9-.2 1.9q-.2 1.2-.6 1.65-.5.75-1.4.65-.9 0-1.4-.75l-.35-.75-.45-1.7-.3-.75-.8-.1q-.6-.05-.9-.5l-.05.1-.3.75-.65.45h-.45l-.5.2zM12.9 1.7l.35-.05.2-.25q.4-.6 1.2-.3.8.25.7 1.05l-.1 1.5-.3 1.8-.45 2-.25.6q-.4.65-1.1.5-.75-.1-.9-.8l-.05-.65-.25-1.95-.05-1.2q.1-1.3.45-1.8.3-.4.55-.45M7.2 21.05 5.75 23.1l-1.9 1.75-1.15.7-1.35-.15q-.35-.25-.4-.75v-.15l-.5-.65.15-1.05 1.05-2 .35-1 .3-.6.15-.55.3-.7.2-.45.45-1.5.25-.7.55-.3q.35 0 .55.25l.25.5.8-1.1-.6-.6-.75.25q-.65.1-1.05-.4-.55-.6-.35-1.7.2-.95.7-1.35l1.2-.15.75.75.2-.15q.55-.3 1.5-.3l1.6-.1h1.85l.4-.05.45-.2.85.05.7.6q.3.5.4 1.75l.3 3 .2 1v1.05l-.25 1.85-.85.7-2.15 1.15-1 .6q-1.1.35-1.85-.55-.5-.6-.4-1.3zM.65 8.8l.3-.5q.7-.7 1.55-.2.85.4.55 1.45-.35.95-1.35.85l-.75-.35L.6 9.3zm8 8.8q.3 0 .45.3l.05.05.05-.35.35-1.5L8 17.3q-.9.8-1.8.75-.8-.1-1.15-.8v-.05l-.5 1.75-.95 3.4.4-.4 2.15-2.1 1.6-1.7q.6-.6.9-.55M6.5 34.75q0-.8.7-1.35.5-.3.85-.3l.9.1q.8.25 1.2.8.5-.7 1.3-1.2l.6-.3.75-.05q.75.1 1.2.35l.55.75.35.75v.55l-.2 1-.35.55-.4.4-.35.25-.2.45-.75.8.15 1.1q-.15 1.3-1.4 1.8l-1.15.2-3.55.1-2.35-.2-.85-.35-.1-.05-.4.35-1.05.25q-.55-.05-.9-.55t-.3-1.05l.05-1 .05-.3q-.3-.95-.15-2.2.3-1.6 1.15-2.3.95-.7 2-.2 1.1.65.85 1.8l.05.2.2.05q1.05.1 1.8.75l.55.45.55.05 1.7-.2-.1-.25q-.55.35-1.15.3-.6 0-1.1-.4-.3-.25-.65-1.1zm8.7 1.9q0-.55.45-.9.5-.4 1-.3.65.15 1.2.95.75 1.2.9 2.6.1 1.35-.65 1.95l-1.65-.05q-.45-.4-.65-1.4l-.2-1.55zm10.9 2.8-.25 1.25q-.15.9-1.1 1.35-.9.4-2.2-.25l-.3-.1-.4.15-1.3.15q-.7-.2-.95-.95l-.1-1.15-.45-1.95-.25-.55q-.25-.9.5-1.5.35-.3 1.6-.65l1.75-.4q1-.2 1.75 0 .6.2.95.65l.15.45.2 1.25.1.05.2 1.45zM6.95 32.1l-.55-.75q-.25-.55.05-1.2.35-.65.85-.95l1.1-.25 1.1.8.45.65q.25.5.1 1.1l-.7.9-1.2.25q-.65-.1-1.2-.55M.9 28.55q-.05-.5.3-.95.3-.45.75-.55l.5-.15.25-.35.5-.4.65-.15q.95 0 1.3.85l.15.45.45.65.5.9-.25.65-.65.3-.2.7-.35.55-.4.45-.85.55-.95.1L2 32l-.75-.65Q1 30.6 1.1 29.8v-.45l-.15-.25zM36.75 38.8q.35.55.35 1.3l-.3.85q-.25.45-.75.45-.6 0-.7-.5l-.1-.3-.2-.05-1.65.2-1.1.25-3.1 1.05-.95.15q-1-.1-1.35-1.1-.3-.95.5-1.7l1.55-.65.8-.3 1.45-.4 2.45-.3 1.75.1q.9.25 1.35.95"/><path d="m5.95 9.35 4.85-.8-.05-.45v-.7l-.15-.55V6.1l-.15-.75-.35-3.6q-.1-.55.1-.8.25-.45.75-.15l.3.5.05 1.25.1.8-.05.55.1.5v.75l.1.35.05.5q-.1 1.25.05 2.25v.15l1.4-.25.4-.15.15-.35.85-5.2q.1-1.3.7-1.75l.9-.15q.55.1.8.5t.15 1.4l-1.05 7.1-.35 1q-.3.4-1.85.5l-2.55.35-2.55.35-2 .15-.75.2-.75-.05q-.6-.2-1.1-1.3-.7-1.55-1.85-2.7L.6 6.3.45 5.2l.1-.15-.05-.1-.5-1.1q0-.7.55-1.05.6-.35 1.15 0L2.55 4 4.3 6.85l.3.6.4.5.4.95.15.45zM41 38.2l-1.85.7h-.5l-.15 1.5-.35.7-.55.45q-.3.05-.65-.2l-.2-.25q-.05-.15.15-.35l.25-.35q.3-.35.2-1.15l-.2-.75-.7-.3-3.4-1.55-2.15.8-2.8 1.2-.7.45q-.55.5-.8 1.1l-.35.8q-.35.6-1.05.45l-.55-.4-.15-.75q.05-.7.65-1.3 1.2-1.35 4.4-2.65l1.75-.55-.95-.8q-.5-.7-.4-2.5.45-5.2.25-7.3-.1-1.3.05-1.8.4-.85 1.9-1.55l2.65-1.25 2.4-1.25 3.3-1.15q1.15-.4 4.45-2l.1-.05q.05-.6.4-1.35 1.15-2.45 3.6-3.8 2.35-1.3 5.15-1.2 2.2 0 3.55 1.2l.75-1.6.45-.55.95.15.55.9.35 1.35 1.25-1.1L63.4 8.8 63 7.45V6.4q.1-.95.85-1.7t1.75-.9l1.55.15.35-.55.75-.95q.9-1 1.65-1.35l.7-.15q.5.1.4.5l-.15.45-.1.55-.2.35.1.05 1 .65.4.15 1.05.8 1.65.9.3.2.25.5-.05.55q-.15.3-.6.2L74 6.5l-1.2-.6-1.05-.6-.5-.35-.6-.2-1.2-.6-.3.45-.45.55.15.3.25.5 1.75-.1q1.2.2 1.8 1.05.55.75.55 1.75-.05.95-.55 1.75-1.05 1.5-3.1 1.85l-1.25.25.15.3.6 1.45 1.85-.2 2.2-.2.9-.2h1.05q.6.15.75.8.15.55-.25 1.05-.25.3-.8.45l-2.7.3-2.75.2-1.2.1q-.5-.05-.7-.7l-.05-.35-.15-.65-.25-1.2-3.45 3.2q-.7.7-.75.95l-.1 1.05q0 2.4-1.6 4.25l-.2.25.9 1.45q.3-1.45 1.3-2.25.55-.45 1.65-.8 4.95-1.75 9.4-1.1 1.15.2 1.65.55l.8.95.55 1.35.1 1.4q.1 1.7-.35 3.15-.45 1.6-1.7 2.7-1.4 1.1-3.3 1.25l-3.6.1-3.75.1-.55.05-1.1 1.35q-.4.5-.45.8 0 .35.3.95.85 1.7 2.2 3.45l.95 1.5q.3 1.1-.4 1.65l-1.35.25-17.5.7-1.75-.25q-.4-.3-.8-1.4l-.85-2.7-.25-1zM54.8 1.45q-.4.85-.45 1.35-.15.9.5 1.5.5.5 1.55.75l2.1.05.9-.4q1.55-.9 1.7-2.4l.05-1.15q.2-.75.7-.85l.5.15.3.4v.6l-.05 1.6q-.3 2.05-2.1 3.25l-.75.4-1.15.5-.95.05-1.1-.05-.95-.25L54 6.3l-.95-.95-.2-.5-.2-.75-.05-1.2.25-1.25.7-.9.75-.15.55.45zm-8.5 9.45q-.45-.05-.7-.6l-.2-.95q-.2-1.2-1.05-2.1-.75 5.3-4.85 9-1 .9-1.6.45-.45-.3-.35-1l.4-1.05q.85-1.9.55-5.25-2.3 2.5-5.75 3.15h-1q-.6-.15-.75-.65t.3-.95l.8-.7 1.2-1.5q1.95-3.15 2.9-6.45l.35-.8q.45-.4.8-.2.4.25.2 1.1-.8 3.9-3.25 7.55 2.8-1.55 3.8-3.05.55-1 1.05-1.15l.8.15.55.6.25 1.65-.05 3.65q1.9-2.55 1.9-5.6 0-.95.25-1.25.55-.7 1.75-.2 1.45.65 2 2.05.45-1.45.2-3.05l-.1-1.15v-.1l-.05-.1v-.3l-.05-.3.05-.15-.05-.1q0-.35.25-.6L47.5.8l.45.35.55.65.1.9.1.4q.7 3.2-1.2 6.9-.55 1-1.2.9m15.45 4.35 4.3-4q1.15-1.05 1.6-1.15.55-.15 1.7 0 .75-.05 1.35-.55.6-.55.7-1.3 0-.35-.35-.55l-.65-.1q-.15 0-1.2.55l-1.15.2q-.4 0-.5-.45l-.1-.55-.15-.5q-.5-1-1.2-1-.65-.1-.85.6-.3.55.05 1.05l.5.9q.15.55-.2 1.15l-.8.85-2.9 2.7-.8.6-.85.05-.35.5-1.3 1.35q1.45-.1 2.5.35zm2.55 13.7.5 1.15h3.1l2.15-.05.1-.4.3-1.9.1-.65.05-1.45-.4-1.2-.3-.7-.5-.65-4.05.75q-1.5.4-1.95 1.05-.2.2-.45.85l-.25.6zm9.6.05q.55-.55.8-1.6.35-1.3.2-2.85l-.4-1-1.45-.4-1.9-.1.35.45.1.45.3.75.1 1.15-.05 1.35-.2 1.05v.65l-.2.55-.05.5q1.7-.2 2.4-.95M48.55 17.75l.85 3.8 3.2-.85 4-.9 1.4-.25q.65.1 1.25 1.15l.6.95q.85-1.7.75-3.8v-.25l-1.05-.4-.4-.1-2.4.2h-.7l-.6-.35-.1-.3q0-.35.35-.6l.6-.35 1.6-.9.9-.75.8-.75q-.35-.25-.15-.95l.05-1-.6.9-.65.8-1.25.05-1.15-.4-1.8-.1q-2.05.1-3.4.8-1.8.95-2.25 2.55l-.2.7zm-2.65 1.8-2.05.8-2 .95-1.85.55.05.6q.05.95.4 2.1l.35.9.25 1.2.3.5.25.2.35.05 1.8-.3h.9l.95-.3 1.25-.25.85-.25zm9.25 11.6 2.85-.9 1.4-.35 1.95-.65h.1l-3.4-5.75-.35.15-3.35 1.45-.3.2v.4l.5 2.75.3.8zm-4.6-5.25.7 2q.2 1.25-.45 2.85l-1.25 2.8-.85 1.9q-.45.55-1.5.9l-1.65.55.25.85.1.35 2.9-.7 6.45-2.2 4.1-.85q.1-.5.65-1.15l1.7-2.1.3-.5-.7.25q-3 .75-5.8 1.8l-1.1.1q-.35-.15-.6-1.05l-.9-4.05q-.35-1.3-.35-2.3l.1-.55.5-.45q2.1-1.2 4.1-2h.1l-.2-.15-1.25-.05-6.1 1.05zm8.15 10.4.6.5q.15.5-.15.8-.35.35-.75.2-.45-.1-.55-.55L57.8 37l.1-.25.5-.4zm-12 4.1 15.45-.55-2.3-3.8-.4-.8-3.95.95-8.7 3.15-.4.25zm-8.4-5.15 1.95-.4 2.7-.75 2.7-.75.5-.3.35-.65.9-1.85q.6-1.2.6-2.25v-.5h-.1l-1.85.35-1.05.25-1.25.1-1.55.15-.9.15q-.55 0-.8-.45l-.1-.35-.2-.45-1-3.55q-.25-.8-.2-1.4v-.4l-2 .95-2.75 1.4q-.4.2-.5.35l-.1.6q.3 3.2-.1 6.7-.1.4.05.65l.5.3 3.25 1.7zM21.85 8.7l-.15.15.5.3.8.5 1.15.85 1.15 1.3.8 1.55.15.35.3-.35Q29 10.65 29.5 8.2V7.1q-.3-1.25-1.75-1.45-1.05-.15-2.35.4l-1.8.9zm5.55 26.4q-.35.55-1.6.55l-3.4.15q-1.65.1-2.25-.55-.4-.4-.5-1.25l-.05-1.45-2.55.25q1.15 1.2 2.5 3.95l.75 1.75.45 1.75.05 1.1-.55.6q-.45.2-.85 0-.5-.2-.7-.85l-.25-1.1q-.15-1.15-1.05-3.05l-.75-1.6-.15-.3-.3.85-.4.6.45 1.3q.35 2.05-.75 3.3-.4.4-.75.4l-.45-.1-.2-.25-.75.05-.55-.05-.2-.45.35-.3.45-.1.35-.35.6-1.05-.4-1.5q-.75-.1-.9-.75-.1-.75.55-1.05l.5-.2.35-.45.25-.65-.4-1.15v-.1l-3.15.3-.05.9-.15.5-.5 1.4-.65.75-.75.65-1.95.5-.75-.05-.75-.2-.7-.3-.45-.45-.6-.95-.05-.9q.1-1.1.3-1.45l.35-.45.3-.3-.25-.05q-.85-.25-1.5.3l-.85.65-.8.05-.55-.55q-.25-.55.1-1.2.3-.5 1-.85 1.1-.6 2.15-.45l.5-1.75q.55-1.35 1.5-1.95l.7-.35 1.5-.25-.1-1.15q-.1-.95.1-1.35.35-.55 1.05-.9l6.05-3.65q-1-.95-1.15-2.65-.15-1.8 1.05-3.75l2.5-3 .5-.45.45-.7q1.85-2.25 4.05-3.85 2.65-2.05 4.75-1.8l1.55.45q.9.35 1.45.8 1.2 1 1.2 3 0 1.35-.8 3.15l-1 2-2.6 3-2.95 3 3.1 2.75.95.9q.25.55-.05 1.8-.85 3.7-.85 7.35l.1 2.25q.1.8-.2 1.3m-7.5-18.35q.8-.5 1.35-.5.85-.05 1.8 1l1.45-1.7.95-1-1-1.65-.7-.85-1.05-.65-2.2-1.1h-.1q-1.75 1.95-2.75 3.5-.7 1.2-.8 1.95-.15 1.25.55 1.95l.35.35zm.5 13.05q1.15 0 1.5.35.45.45.35 1.4l-.05 1.5 2.5-.1.5-.15.05-.35q-.1-1.55.2-3.9l.5-3.9-.05-.65-.55-.55q-2-1.45-3.8-3.75l-.3-.25-.4.1-2.05 1.2q0 2.45.15 3l.2.75.3 4.1.3 1.15v.15zM8.45 7.95Q8.1 7.7 8.2 7.3q0-.35.25-.5.15-.2.5-.2L9 6.55q.45 0 .6.35l.15.7-.15.25-.45.25zm.2 9.8q-.35.05-.9.6l-1.1.75-.85.5-.8.3-.55-.1-.55-.4.15-.6.15-.4v-.2l.25-1.5.05-1-1.25.95-.8.6-.7.4-.75.15-.7-.25-.25-.8.5-.65.7-.2 1.05-.7 1.05-.8.75-.95.55-.45q.3-.15.65 0l.45.45.05.9.05.85-.05.85-.1.3v1.1l-.15.6q2.3-1.35 3.5-3l.4-.5.6-.05.4.4.05.7-.55 3.25Q9.2 21.3 7 23.7l-1.4 1.45q-2.1 1.8-3.8 2.55h-.65q-.35-.25-.05-.65l.55-.4q1.2-.7 3.05-2.75l2.4-2.85q1.2-1.7 1.55-3.3m5.1 7.65q.5.6.1 1.25t-1.2.5q-.75-.2-.75-1-.1-.45.25-.8t.8-.35q.5 0 .8.4m-2.45 5 7-.4-.05-.6-.05-.5-.1-.45.05-.95-.1-.45v-.8l-.15-1.6-.15-1.25v-2.05l-3.7 2.3-3.05 1.8zm-2.05 2.8q-.45-.3-.55-1.4l-.3-3.65h-.2q-.75 0-1.2.55-.35.3-.75 1.1-.2.7-.1 1.05l.25.65.1.3 1.1.1.35.2q.2.2.05.4l-.35.15-.95.4-.45.25-.3.4q-.7.8-.55 1.45.15.6.9 1l1.5.2q.8-.15 1.25-.85l.3-.55.2-.5q.3-.7.2-1.1zm25.5-2 .15-.2.45-.25.8.2.35.6-.15.7-.6.4-.7-.1-.4-.6q-.1-.4.1-.75"/></g></svg>