<svg xmlns="http://www.w3.org/2000/svg" xmlns:ffdec="https://www.free-decompiler.com/flash" ffdec:objectType="shape" width="75.4" height="41.75"><g fill-rule="evenodd"><path fill="#717171" d="M75.2 8.9Q72.75 4.65 65.9.85L64.25 0H75.4v9.25zM12.3 36.85l-1.55-1.1-1.35-1.7q-1.4-1.6-2.25-3.2L6.4 29.2q-1.8-4.45-1.75-8.5 0-3.9 1.75-8.2l.75-1.65Q8 9.25 9.4 7.65l1.35-1.7 1.55-1.1q4.6-3.1 9.4-4.85h32.2q4.75 1.75 9.35 4.85l1.5 1.1 1.4 1.7q1.4 1.6 2.25 3.2l.75 1.65q1.75 4.3 1.75 8.2.05 4.05-1.75 8.5l-.75 1.65q-.85 1.6-2.25 3.2l-1.4 1.7-1.5 1.1q-4.65 3.15-9.5 4.9H21.8q-4.85-1.75-9.5-4.9m.3-7.9q1.65 2.85 6.25 5.35 6.45 3.4 12.75 4.15l5.95.65 6.4-.65q6.25-.75 12.75-4.15 4.6-2.5 6.25-5.35.85-1.35 1.6-4l.5-1.85.2-2.1v-.3l-.2-2.05-.5-1.9q-.75-2.65-1.6-3.95-1.65-2.85-6.25-5.4Q50.2 4 43.95 3.25l-6.4-.55-5.95.55Q25.3 4 18.85 7.4q-4.6 2.55-6.25 5.4-.85 1.3-1.6 3.95l-.5 1.9-.2 2.05v.3l.2 2.1.5 1.85q.75 2.65 1.6 4m20.85 6.1q-5.9-.6-11.4-4.3l-.9-.7-.9-1q-.85-1-1.35-2l-.45-1q-1.15-2.75-1.1-5.25 0-2.4 1.1-5.05l.45-1.05q.5-.95 1.35-1.95l.9-1.05.9-.65q5.5-3.7 11.4-4.3 4.3-.5 8.65 0 5.85.6 11.35 4.3l.95.65.85 1.05 1.4 1.95.45 1.05q1.1 2.65 1.1 5.05 0 2.5-1.1 5.25l-.45 1-1.4 2-.85 1-.95.7q-5.5 3.7-11.35 4.3-4.4.7-8.65 0m-11.2-9.2q1 1.8 3.85 3.3 4 2.1 7.85 2.6l3.7.4 3.95-.4q3.85-.5 7.85-2.6 2.8-1.5 3.85-3.3l.95-2.45.3-1.15.15-1.25v-.2l-.15-1.3-.3-1.15-.95-2.45q-1.05-1.75-3.85-3.3-4-2.1-7.85-2.55l-3.95-.35-3.7.35q-3.85.45-7.85 2.55-2.85 1.55-3.85 3.3-.5.85-1 2.45l-.3 1.15-.1 1.3v.2l.1 1.25.3 1.15zm43.65 15q6.85-3.75 9.3-7.95l.2-.3v9.15H64.15zM9.65.85Q2.85 4.65.4 8.9l-.4.65V0h11.35zM.4 32.9q2.45 4.2 9.25 7.95l1.8.9H0v-9.5z"/><path d="M8.6 39.15 6.85 37.9 5.25 36q-1.6-1.85-2.55-3.7l-.9-1.9Q.4 26.9 0 23.65V18.2q.4-3.3 1.8-6.9l.9-1.9q.95-1.85 2.55-3.7l1.6-1.9L8.6 2.5 11.65.6h19.8l-.8.1q-7.15.85-14.55 4.75-5.3 2.9-7.2 6.15-.95 1.5-1.8 4.55l-.6 2.15-.2 2.4v.3l.2 2.4.6 2.15q.85 3.05 1.8 4.55 1.9 3.25 7.2 6.15 7.4 3.9 14.55 4.75l3.85.45H12.3zM66.9 2.5l1.75 1.3 1.6 1.9q1.6 1.85 2.55 3.7l.9 1.9q1.25 3.05 1.7 5.9v7.3q-.45 2.85-1.7 5.9l-.9 1.9q-.95 1.85-2.55 3.7l-1.6 1.9-1.75 1.25-3.7 2.3H40.9l3.95-.45q7.15-.85 14.6-4.75 5.25-2.9 7.15-6.15.95-1.5 1.85-4.55L69 23.4l.25-2.4v-.3L69 18.3l-.55-2.15q-.9-3.05-1.85-4.55-1.9-3.25-7.15-6.15Q52 1.55 44.85.7L44.1.6h19.8zM32.7 37.35q-6.85-.7-13.25-5l-1.1-.8-1-1.2-1.6-2.3-.55-1.2q-1.3-3.2-1.25-6.1 0-2.8 1.25-5.9l.55-1.2 1.6-2.3 1-1.2 1.1-.8q6.4-4.3 13.25-5 5.05-.6 10.1 0 6.85.7 13.25 5l1.1.8 1 1.2q1 1.15 1.6 2.3l.55 1.2q1.25 3.1 1.25 5.9.05 2.9-1.25 6.1l-.55 1.2q-.6 1.15-1.6 2.3l-1 1.2-1.1.8q-6.4 4.3-13.25 5-5.15.85-10.1 0m-13.05-10.7q1.2 2.05 4.5 3.85 4.65 2.45 9.15 3l4.3.45 4.6-.45q4.5-.55 9.15-3 3.3-1.8 4.5-3.85L57 23.8l.35-1.35.15-1.5v-.2l-.15-1.5L57 17.9q-.55-1.9-1.15-2.85-1.2-2.05-4.5-3.85-4.65-2.45-9.15-3l-4.6-.4-4.3.4q-4.5.55-9.15 3-3.3 1.8-4.5 3.85-.6.95-1.15 2.85l-.35 1.35q-.15.7-.15 1.5v.2l.15 1.5.35 1.35q.55 1.9 1.15 2.85"/><path d="m40.7 20.65 2.4-.1q1.45-.2 2.75-1.05t2.05-2.1q.55-.85.25-1.4-.2-.4-.9-.6l-2-.05-.95.3-.9.45q-3.8 1.7-7.3 1.05l-1.7-.35-1.7-.35-3.2.25q-1.5.45-2.25 1.35-.6.65-.5 1.35l.6.95 1.3.95 1.25.05 1.25-.25 4.5-.3.6.1 2.85-.1zM32.9 24l.65-1.25-.45.05-2.75.5-2.7-.2-1.6-1.15-1.1-1.5q-.4-.95-.2-2.05.25-1 .9-1.8 1.25-1.5 3.55-2.05l4.3-.15 1.4.35 1.4.35 4.1-.1 1.75-.55 1.75-.6 3.6-.25q.9.25 1.6.85.7.7.85 1.55.2 1.3-.8 2.8-1.15 1.6-2.95 2.55-1.75 1-3.7 1.05l-1.35-.05.1.15.8 2.05q.25 1.45.05 2.85-.25 1.75-1.25 2.5-.4.35-1.1.55l-3.65.3-1.55-.5-1.15-.85q-.65-.65-.95-1.3-.35-.95-.1-2.4zm1.8 1.9 2.45 3.4 2.4-3.4-2.4-2.95z"/></g></svg>