<svg xmlns="http://www.w3.org/2000/svg" xmlns:ffdec="https://www.free-decompiler.com/flash" ffdec:objectType="shape" width="75.9" height="41.15"><g fill-rule="evenodd"><path fill="#999" d="m64.2 9.7.3-.05h2.65l.35.1.15.1h.2L68 10l.25.45-.1.6-.5.3-.05.05-.95.25-.75.1-1.55-.05-.2-.05-.25-.1q-.45-.2-.45-.7l.1-.45.1-.25.3-.3q.1-.15.25-.15m-3.7.95.2-.05.15.05.15.1.1.35v.15l-.1.15-.15.1-.4-.05-.25-.35V11q0-.1.15-.25zM64.45 21q-4.65 1.7-8 .5L55 20.75l-.15.25.05.3.6.9.8.65.85.25 1.5.3 1.5-.05.5-.05.5.05.45.1.25.3q.1.25-.3.35l-.5.05-.4.2-.7.15-2.45.25-.8-.1-2.45-.4q-1.05-.4-1.65-1.7-.5-1.2-.3-2.2.25-1.1 1.05-1.75l.3-.25v-.5q.1-1.35.75-2.15.4-.5 1.2-1 2.5-1.6 5.25-1.55 1.55 0 2.55.6l.4.25.1-.1q1.1-.85 2.4-1 1.45-.15 2.45.55l1.1.95.55.75 1.1.05q.65.15 1.1.65.5.5.6 1.15l-.05 1.25q-.15.75-.75 1.2l-.9.45-2.7-.05-.3-.15-.45.2q-1.3.6-2.4.5-.4.3-1.2.6m3.4-3.5q.3.2.5-.2.1-.25-.2-.75v-.05l.35-.45-.15-.4q-.3-.15-.6 0l-.25.25-.6-.3h-.2l-.05.1v.4l.25.45-.7.85-.15.3.2.25.15-.1 1-.75.05.05zm-.75 3.75 1.15-.2.1-.05q1.35-.1 2.45.35l.8.45.15.35q.25.4-.05.85l-.35.35-.9.4h-.2l-.55.15-.4.05-2.4-.05-.15-.1-1.15-.6q-.3-.3-.2-.75l.4-.7.45-.25zm-2.5 4.05v-.65q.25-.7 1.05-.6.4.05.65.35l.2.7q-.1.75-.85.85l-.6-.1-.3-.3zM44.95 8.65l3.15-.3q1.8.35 2.85 1.55l.25-.1 1.3.05.5.2.85.6.1.15.2.2.25 1q0 .65-.4 1.3l-.45.45-1 .4-.75.15h-.45l-1.2 1.5.05.6-.1 1.15-.25.55-.5.5-1.25.8-1.15.1-.85-.1-.95-.55q-1-.75-.85-1.95l.15-.4-.85-.75-.95.35-2.9.65-3.4.25q-2-.15-3.05-1.45-.7-.85-.8-2-.05-1.15.4-2.2.85-1.9 3.2-2.95 3.05-1.45 6.1-.35l1.25.6.55.55q.4-.35.95-.55M59.7 30.8l.3.3-.3.2-.4.5-.05.4v.2l.25.2h.4l.25-.1.55-.4.2-.1.35-.3.1-.05v.05l.45.3h.55l.3-.2.05-.1-.05-.05v-.1l-.4-.55.1-.05.6-.7.05-.1V30q-.15-.5-.65-.5l-.35.1-.3.15-.25.25-.15.15-.8-.45h-.25l-.35.1-.2.2-.1.25zM45.3 13.2v.2l.1.15-.35.3-.3.6.1.35.45-.1.4-.25.25-.2H46l.1.15v.25q0 .4.35.55.3.25.65 0 .4-.3.2-.65l-.35-.4-.35-.3.15-.15.5-.3.25-.1.2-.3.2-.15.05-.1.05-.2-.1-.35q-.15-.25-.5-.25t-.55.2l-.45.4-.4.35-.2.15-.1-.15-.2-.25h-.3q-.2.2-.05.35zm19.15 15.5 1.3.5.65-.6q.5-.45 1.35-.95 1.45-.75 3.2-.6 1.75.1 3.15 1 1.3.8 1.65 1.85l.15 1.5-.15 1.55q-.5 1.6-2.45 2.6l-3.6.85-1.9.3-1.2.15-.15.8-.3.8-1 1.15-1.45.75-.65.05-1.55-.3-.45-.3-.65-.75q-.5-.75-.3-1.6h-.05l-1-.8-.25.1-.65.2-.55.05-1.4-.1q-1.2-.25-1.75-1.3-.55-1.1 0-2.2.35-.75 1.3-1.2l1.05-.4 1.4-.2q.55-1.65 2.25-2.5 1.85-.95 4-.4M45.1 31.4l.55.4q.3.4.25.9l-.35.85-1.15.65-2.8.7-2.2.25q-1.25 0-2.15-.55l-.5-.45q-.5-.65.05-1.45.35-.5 1.05-.75 1.8-.95 4-1.05l2.2.2zm3.9 5.55.55.25.1.2-.05.45-.05.1-.6.25-.3-.05q-.35-.25-.25-.65l.1-.25q.15-.35.5-.25zm12.5-2.3-.2.4v.6l.15.2.45.3.25.1.4-.15.6-.5.2-.2v.05l.4.35.55.25.35.3.45.1.25-.35-.15-.3-.25-.3-.25-.5-.2-.35-.15-.15-.05-.1.8-.55.35-.6-.25-.4-.55-.1-.05.05-.3.05-.15.15-.2.1-.25.2-.15.05-.15.15-.1-.1-.25-.25-.35-.15h-.2q-.4 0-.65.35-.2.4-.05.7l.15.25zM5.9 16.55l-.35.3H4.9l-.4-.45-.05-.4.05-.3.25-.3.4-.15h.1v-.05q.45.1.65.35l.2.5zm-.55 6.2-.05.05-1.45-.05-1.15-.8-.2-.35q-.25-.6.1-1.35l.2-.4.55-.45.2-.2.5-.15.1-.05 1.65.25.35.2.6.2q.7.25.85.95.25 1-.7 1.55l-.55.3zm29.05 12.4.7.25q.5.45.35 1.1l-.45.6-.8.15-.65-.4q-.25-.35-.2-.75.05-.35.35-.65.35-.3.7-.3"/><path fill="#fff" d="m67.85 17.5-.4-.35-.05-.05-1 .75-.15.1-.2-.25.15-.3.7-.85-.25-.45v-.4l.05-.1h.2l.6.3.25-.25q.3-.15.6 0l.15.4-.35.45v.05q.3.5.2.75-.2.4-.5.2M45.3 13.2l-.15-.2q-.15-.15.05-.35h.3l.2.25.1.15.2-.15.4-.35.45-.4q.2-.2.55-.2t.5.25l.1.35-.05.2-.05.1-.2.15-.2.3-.25.1-.5.3-.15.15.35.3.35.4q.2.35-.2.65-.35.25-.65 0-.35-.15-.35-.55v-.25l-.1-.15h-.05l-.25.2-.4.25-.45.1-.1-.35.3-.6.35-.3-.1-.15zm14.4 17.6-.1-.55.1-.25.2-.2.35-.1h.25l.8.45.15-.15.25-.25.3-.15.35-.1q.5 0 .65.5v.15l-.05.1-.6.7-.1.05.4.55v.1l.05.05-.05.1-.3.2h-.55l-.45-.3v-.05l-.1.05-.35.3-.2.1-.55.4-.25.1h-.4l-.25-.2v-.2l.05-.4.4-.5.3-.2zm1.8 3.85.45-.35-.15-.25q-.15-.3.05-.7.25-.35.65-.35h.2l.35.15.25.25.1.1.15-.15.15-.05.25-.2.2-.1.15-.15.3-.05.05-.05.55.1.25.4-.35.6-.8.55.05.1.15.15.2.35.25.5.25.3.15.3-.25.35-.45-.1-.35-.3-.55-.25-.4-.35v-.05l-.2.2-.6.5-.4.15-.25-.1-.45-.3-.15-.2v-.6z"/><path d="M38.15 20.1q.25 1.8 0 3.6-.3 2.6-1.35 5-1.35 3.45-3.75 5.85-2.7 2.7-6.15 3.2l-2.15.15-1.7.05 1.4.5 2.6.2 2.35.05 4.45-.1 1.7-.3 1.6-.55q1.85-.65 2.9-1.45 1.6-1.25 2.4-3.7-.35-2.2-.25-3 .05-.8.4-1.9l.65-1.4-.1-.25-.05-.7-.1-.4-.5-1.6-.55-1.1-.2-.35q-.2-.35.2-.55l.6-.05q1.35.25 2.35 1.9l.4.85.05.15 1.3-.5-.05-1.15-.1-.55-.85-2.1-.55-.6q-.1-.3.3-.5l.3-.1.7.4 1.5 1.25.55 1.2.2.8.15 1.1.05.15q.75.1 1.4.5l.05-.1.3-.7.1-.4v-1.1l-.1-.55-.35-1.3v-.45q0-.25.25-.35l.5.05q.7.3 1 1l.25.95.15.8.25 1.75-.2 1.5-.25.8q.95 1.55 1.05 2.85v1.8q-.15 2.1-.75 3.5l-.95 1.8q-1.8 2.95-4.9 5.2H0v-2.3l.15-.45-.05-.15Q.05 37.15.6 36q.4-.9 1.25-1.9l.05-.05q.7-2 2.4-3.65l1.95-1.5q-1.65-3.65-1.3-7.2l.6-3.1.5-2 1.25-2.5.2-.7L9 10.25q.6-1 2.1-2.7 3.7-4.2 6.1-6.25Q18.85-.05 19.95 0q.65 0 1.25.45.6.4.8 1.1l.05 2.2V6.5l1.9.2 2.2.45 2.3.9 1.9.5.45.2 1-1.05 1.85-2.3.65-1.1q.5-.55 1.3-.55t1.3.55l.6 1.15q1.1 3.2 1.25 4.85v2.2l-.1 2-.8 3.7zm13.4-6.1q.4.4.3.9l-.55.75q-.8.1-1.1.3l-.7.7-.75 1.15-.2.2-.25-.25.05-.4-.15-1.25q0-.8 1-1.8l.45-.45.9-.2q.75.1 1 .35m-12.3 12.35.4-.65.2-.7.55-1 .4-.25.2.4-.35 1.75.1 1.35.15 1.35q.1.45-.15.9l-.7.45-.8-.2q-.45-.4-.55-1.2-.1-1.2.55-2.2m17.3-2.2.3 1.1-.35.95-.9.4q-.5.05-.9-.35-.4-.35-.45-.9l.3-1.3q.2-1.3-.85-2.55-.35-.35-.2-.6l.5-.1q.95.25 1.6.9.7.65.85 1.55zM14.7 12.55l-.3.6.25.2.2.25.85 1.55.1-.5.5-1.15.55-1 .75-.7.25-.65q-1.4-.1-2.6.85zm20 3.45q-.8-1.1-1.95-1.45l.1.35L33 16v.4l.05.35v.45l.05.1.05.75.15.4v.65l.95-.2.85-.05.1.05q.5-1.45-.5-2.9m-16.4 7.85-1.15-.2-.4-.1q-1.05-.3-1.85-1.25l-1.15-1.95q-.7-1.85-.45-3.35l-.25-.55-.35-.8-.5.15-1 .9q-1.85 2.4-1.5 6.6.1 1.55.45 2.5.25.8 1.05 2.3 1.25 2.25 2.05 3.05l1.95 1.6q1.4.95 2.9 1.3 3.55.85 8.1-1.65 3.25-1.75 4.95-3.85 1.55-2 2.95-5.95.3-.85.1-1.3l-.5.15q-.35.1-.95.5l-2.3 1.65q-1.5 1.05-2.6 1.2l-.75.1-2.05-.25-.2-.1-.25-.2-.45-.45-.9-.8-2.5.1-1.15.4-.15.05h-.05zm2.75-10.3q-.5-1.65-2-2.15l-.4.95-.25 1.75-.65 1.9-.35.5-.15.55.05.15.2.3.35.7.05.1 1.1-.05q1.15-.2 1.9-1.65l.25-.65.1-.85zm7.4 3.35-.15 1q0 2 1.15 3l.6-.7q.3-.25.7-.4l.1-.7.05-.3v-1.6l.2-.8.1-.25.2-.25.35-1.1v-.2l.05-.05v-.15q-.85-.05-1.6.4t-1.4 1.45zm-16 5.5.05.25-.15.35-.25.25q-.35.15-.7-.2-.25-.25-.25-.7v-.75q0-.6.2-.7l.25-.1.05-.05.55.4v.4l.15.6zm9.85 8.85-.35.1.35-1.25.6-1.75.3-.6.5-.65 1.05.35-.3.6-1.05 2.2-.2.75zm7.65-4.85q-.4.85-1.65 1.7l-1 .8.3-1.2.1-.25q1.4-.3 2.25-1.05m-13.5-.15.05.05.35.1.35.1-.05.15.05.5-.25.65q-.35.6-.5 1.5l-.2.6-.05.05v.25l-.2-.15h-.1l-.55-.1q-.25-.1-.25-.55l.15-.7.5-1.6.3-.6.4-.2zm3.7 5.35h-.1v.05l-.65.35-.6-.4-.05-.65.45-2.25.25-.95.1-.75.3-.65q.2-.2.5-.15h.15v.05l.3.2v.65l-.35 1.9-.1.75v.15q-.15.5-.05 1.1l-.05.25-.1.3zm-6-6.9.4.4-.15.25-.05.6-.35.8-.3.3-.15.1-.55-.1-.15-.15q-.25-.25-.15-.55l.15-.5.25-.45.45-.45h.05l.35-.45z"/><path fill="#fff" d="m28.45 16.9.35-.65q.65-1 1.4-1.45t1.6-.4v.15l-.05.05v.2l-.35 1.1-.2.25-.1.25-.2.8v1.6l-.05.3-.1.7q-.4.15-.7.4l-.6.7q-1.15-1-1.15-3zm-7.4-3.35.2 1.55-.1.85-.25.65q-.75 1.45-1.9 1.65l-1.1.05-.05-.1-.35-.7-.2-.3-.05-.15.15-.55.35-.5.65-1.9.25-1.75.4-.95q1.5.5 2 2.15m-2.75 10.3 1.1-.2h.05l.15-.05 1.15-.4 2.5-.1.9.8.45.45.25.2.2.1 2.05.25.75-.1q1.1-.15 2.6-1.2l2.3-1.65q.6-.4.95-.5l.5-.15q.2.45-.1 1.3-1.4 3.95-2.95 5.95-1.7 2.1-4.95 3.85-4.55 2.5-8.1 1.65-1.5-.35-2.9-1.3l-1.95-1.6q-.8-.8-2.05-3.05-.8-1.5-1.05-2.3-.35-.95-.45-2.5-.35-4.2 1.5-6.6l1-.9.5-.15.35.8.25.55q-.25 1.5.45 3.35l1.15 1.95q.8.95 1.85 1.25l.4.1zM34.7 16q1 1.45.5 2.9l-.1-.05-.85.05-.95.2v-.65l-.15-.4-.05-.75-.05-.1v-.45L33 16.4V16l-.15-1.1-.1-.35q1.15.35 1.95 1.45m-20-3.45.55-.55q1.2-.95 2.6-.85l-.25.65-.75.7-.55 1-.5 1.15-.1.5-.85-1.55-.2-.25-.25-.2zm-2.25 9.85-.1-.25-.15-.6v-.4l-.55-.4-.05.05-.25.1q-.2.1-.2.7v.75q0 .45.25.7.35.35.7.2l.25-.25.15-.35zm1.7 2.3-.2-.2-.35.45h-.05l-.45.45-.25.45-.15.5q-.1.3.15.55l.15.15.55.1.15-.1.3-.3.35-.8.05-.6.15-.25zm6 6.9v-.05l.1-.3.05-.25q-.1-.6.05-1.1v-.15l.1-.75.35-1.9v-.65l-.3-.2v-.05h-.15q-.3-.05-.5.15l-.3.65-.1.75-.25.95-.45 2.25.05.65.6.4.65-.35v-.05zm-3.7-5.35v.05l-.4.2-.3.6-.5 1.6-.15.7q0 .45.25.55l.55.1h.1l.2.15v-.25l.05-.05.2-.6q.15-.9.5-1.5l.25-.65-.05-.5.05-.15-.35-.1-.35-.1zm13.5.15q-.85.75-2.25 1.05l-.1.25-.3 1.2 1-.8q1.25-.85 1.65-1.7m-7.65 4.85.9-.25.2-.75 1.05-2.2.3-.6-1.05-.35-.5.65-.3.6-.6 1.75-.35 1.25z"/></g></svg>