<svg xmlns="http://www.w3.org/2000/svg" xmlns:ffdec="https://www.free-decompiler.com/flash" ffdec:objectType="shape" width="43.2" height="38.6"><g fill-rule="evenodd"><path d="M19.55 37.7v.9H15.3q-.15-5.05.15-10.3l-.35-.7q-.2-.8.3-1.55.55-.7 1.35-.8l1.45.15h.25l.25-.2.95-.9q1.1-1.2 1.65-3.65l.3-1.95-.2-1.4q-.3-1.95-.85-3.05l-.2-.35q-1-.4-1.25-.85-.5-.7.05-1.6l.5-.6q-.65-.95-.55-3 .3-3.5 1.35-4.95.9-1.25 2.1-1.25.65-.05 1.15.45t.4 1.1l-.35.75-.5.75-.4 1.2q-.2 1.1.1 2.35l.05.15q1.45-.95 3.15-1.45l1.15-.3q.15-1.45.85-2.9.95-1.9 2.55-3.1.75-.6 1.45-.65l.75.15.5.6q.25.75-.85 1.8-1.6 1.6-1.6 3.2l.1.7.75.1q1.35.2 2.65.75.25-1.05.75-1.95 1.15-1.95 3.2-2.65l2.45.1q1 .55.7 1.25l-.9.65q-1.1.5-1.8 1.5-.65 1.05-.75 2.2v1.1q1.65 1.45 2.75 3.4 1.2 2.15 1.7 5.1.35 2.05.5 5.45.3 7.95-.1 15.15H39.1v-.2l.1-1.8q.3-8.75-.2-14.65-.5-5.5-2.5-8.15-2.1-2.75-5.65-3.15l-.65-.05-.95.15-.35-.1q-2.15.25-3.95 1.6 1.35 1.05 2.4 2.5.7 1.1.85 1.75l.2 1.8v.5l1.85-.1q1.15.15 2 .8 1.4 1 1.7 2.65.3 1.2 0 2.35-.15.9-.7 1.45-.9.9-2.7.9-2.35.1-3.95-.95l-.4-.35-1.75 1.25q-2.1 1.2-4.5 2l-.3.1q-.2 4.6-.1 8.8m13.8-19.55-.2-.95.15-.8q.2-.65.9-1l1.9-.1q.9.4 1.25 1.4.2.8-.2 1.55-.4.8-1.15 1.05l-1.55-.1q-.8-.35-1.1-1.05M13.25 11l-1.6-.15-1.1-.5q-.4-.4-.45-1.05t.3-1.15q.35-.35.85-.6.8-.45 1.5-.45 1.25 0 2.5 1.25l.95 1.2.6 1.55.3.8.2.85.05.65.05 1.05q-.1.6-.55.85-.45.1-.7-.25l-.25-.8-.6-1.2-.9-1.35-.5-.55zm-7.8 5.45-1.15.4-.85.45-1.25.55-1.1-.1q-.6-.2-.85-.7Q0 16.6 0 15.95l.2-1.15.5-.7q.75-.95 2.25-1.3l2.65-.2 1.4.15 1.75.65 1.2.55q2.15 1.2 3.3 3.4.35.65.3 1.05-.2.65-.8.65l-.75-.2-2.1-1.25q-1.35-.9-2.1-1.25l-.5-.15-.65.1zM8.35 23l1.1-.45 2.1-.55.95-.2.85-.05q.7.05 1.35.55l.4.8-.4.45-.6.2-1.35.25-.35.1-.35.25-1.55 1.8-.2.45-.1.5q-.15.75-1 1.1l-.85.15-.95-.25q-.55-.2-.8-.55-.35-.4-.35-1.6l.25-1.3.45-.6.6-.55zm19.6-8.6.2-1q.35-.7 1.1-1.05l1.5-.15 1.25.85q.5.6.45 1.4 0 .75-.5 1.4l-1.3.75-1.5-.2q-.75-.4-1.05-1.1zm-4.1 5.3.9-1.15q.3-.75-.55-1.9l-1-1 .15.35.4 1.7v2.15zm-.8 3.9.65-.65-.25-1.2v-.15l-.8 2.25z"/><path fill="#999" d="M39.2 36.6q-.7.7-2.6.7l-14.45.7-2.6-.3q-.1-4.2.1-8.8l.3-.1q2.4-.8 4.5-2l1.75-1.25.4.35q1.6 1.05 3.95.95 1.8 0 2.7-.9.55-.55.7-1.45.3-1.15 0-2.35-.3-1.65-1.7-2.65-.85-.65-2-.8l-1.85.1v-.5l-.2-1.8q-.15-.65-.85-1.75-1.05-1.45-2.4-2.5 1.8-1.35 3.95-1.6l.35.1.95-.15.65.05q3.55.4 5.65 3.15 2 2.65 2.5 8.15.5 5.9.2 14.65m-5.85-18.45q.3.7 1.1 1.05l1.55.1q.75-.25 1.15-1.05.4-.75.2-1.55-.35-1-1.25-1.4l-1.9.1q-.7.35-.9 1l-.15.8zm-10.3 5.45-.4.25.8-2.25v.15l.25 1.2zm.8-3.9-.1.15V17.7l-.4-1.7-.15-.35 1 1q.85 1.15.55 1.9zm4.1-5.3.15.9q.3.7 1.05 1.1l1.5.2 1.3-.75q.5-.65.5-1.4.05-.8-.45-1.4l-1.25-.85-1.5.15q-.75.35-1.1 1.05z"/></g></svg>