<svg xmlns="http://www.w3.org/2000/svg" xmlns:ffdec="https://www.free-decompiler.com/flash" ffdec:objectType="shape" width="77.3" height="41.85"><g fill-rule="evenodd"><path fill="#999" d="M1.05.55V0h75.6v.4l-.2-.1-.2-.05-.3-.05-.3-.05h-.15L67.3.2l-7.7.05H37L31 .2 17.8.15h-5.35V.2h-6L4.8.25 3.45.3H2.9l-.65.05L2 .4h-.25L1.6.45 1.3.5h-.2zm75.6 2.55v.6l.2.1.1.1.1.15.05.1.05.1.05.1.05.1.05.1v.7l-.05.1-.1.1v.1l-.1.15-.1-.15-.1-.1-.2-.1-.2-.1-.2-.05-.3-.05-.3-.05h-.15l-8.2.05-7.7.05H37l-6-.05-13.2-.05h-5.35v.05h-6L4.8 5.2l-1.35.05H2.9l-.65.05-.25.05h-.25l-.15.05-.3.05h-.2l-.05.05H.9l-.2.05-.2.15-.05.05L.4 5.7l-.1-.15-.1-.1-.05-.1-.05-.1-.05-.1v-.2L0 4.85l.05-.1v-.1l.05-.1v-.1l.1-.1.05-.1.1-.1.15-.1.2-.15.2-.05h.15v-.9h.05l.2.05h.3l.15.05.25.05h.25l.65.05.55.05 1.35.05h1.65l6 .05h5.35L31 3.25h36.3l8.2.05h.15l.3-.05h.3l.15-.05.1-.05.1-.05zm.4 4.25.05.1.05.1.05.1.05.1.05.1v.7l-.05.1-.1.1v.1l-.1.15-.05.1-.1.1-.15.1-.1.1v.45l-.2-.1-.2-.05-.3-.05-.3-.05h-.15l-8.2.05-7.7.05H37l-6-.05-13.2-.05h-5.35v.05h-6L4.8 9.7l-1.35.05H2.9l-.65.05-.25.05h-.25l-.15.05-.3.05h-.2l-.05.05v-.75L.8 9.2l-.25-.1L.4 9l-.1-.15-.1-.1-.05-.1-.05-.1-.05-.1v-.2L0 8.15l.05-.1v-.1l.05-.1v-.1l.1-.1.05-.1.1-.1.1-.05.1.05.25.1.25.05h.05l.2.05h.3l.15.05.25.05h.25l.65.05.55.05 1.35.05h1.65l6 .05h5.35L31 7.9h36.3l8.2.05h.15l.3-.05h.3l.15-.05.1-.05.1-.05h.05l.1-.1.15-.1.1-.1zm.25 4.05v.45l-.05.1-.1.1v.1l-.1.15-.05.1-.1.1-.15.1-.1.1v.9l.2.1.1.1.1.15.05.1.05.1.05.1.05.1.05.1v.6l-.05-.1-.05-.1-.05-.1-.05-.1-.05-.1-.1-.15-.1-.1-.2-.1-.2-.1-.2-.05-.3-.05-.3-.05h-.15l-8.2.05-7.7.05H37L31 14l-13.2-.05h-5.35V14h-6l-1.65.05-1.35.05H2.9l-.65.05-.25.05h-.25l-.15.05-.3.05h-.2l-.05.05H.9l-.2.05-.2.15-.15.1-.1.1-.05.1-.1.1v.15l-.05-.05v-.2l-.05-.1.05-.1v-.1l.05-.1v-.1l.1-.1.05-.1.1-.1.15-.1.2-.15.2-.05h.15v-1.2L.8 12.5l-.25-.1-.15-.1-.1-.15-.1-.1-.05-.1-.05-.1-.05-.1v-.2l-.05-.1.05-.1v-.05l.05.1.05.1.05.1.1.1.1.15.15.1.25.1.25.05h.05l.2.05h.3l.15.05.25.05h.25l.65.05.55.05 1.35.05h1.65l6 .05h5.35L31 12.4h36.3l8.2.05h.15l.3-.05h.3l.15-.05.1-.05.1-.05h.05l.1-.1.15-.1.1-.1.05-.1.1-.15v-.1l.1-.1zm-.65 5.2v.3l.2.1.1.1.1.15.05.1.05.1.05.1.05.1.05.1v.7l-.05.1-.1.1v.1l-.1.15-.05.1-.05.05-.1-.1-.2-.1-.2-.1-.2-.05-.3-.05-.3-.05h-.15l-8.2.05-7.7.05H37l-6-.05-13.2-.05h-5.35v.05h-6l-1.65.05-1.35.05H2.9l-.65.05-.25.05h-.25l-.15.05-.3.05h-.2l-.05.05H.9l-.2.05L.55 19l-.15-.1-.1-.15-.1-.1-.05-.1-.05-.1-.05-.1v-.2l-.05-.1.05-.1v-.1l.05-.1v-.1l.1-.1.05-.1.1-.1.15-.1.2-.15.2-.05h.15v-.6h.05l.2.05h.3l.15.05.25.05h.25l.65.05.55.05 1.35.05h1.65l6 .05H28.4q.1.5.95 1 .8.5 1.35.6 1.25.3 3.6-.8l1.15-.85H67.3l8.2.05h.15l.3-.05h.3l.15-.05.1-.05.1-.05zm.45 4.2.05.1.05.1.05.1.05.1v.7l-.05.1-.1.1v.1l-.1.15-.05.1-.1.1-.15.1-.1.1v.6l-.2-.1-.2-.05-.3-.05-.3-.05h-.15l-8.2.05-7.7.05H37l-6-.05-13.2-.05h-5.35v.05h-6l-1.65.05-1.35.05H2.9l-.65.05-.25.05h-.25l-.15.05-.3.05h-.2l-.05.05v-.9l-.25-.05-.25-.1-.15-.1-.1-.15-.1-.1-.05-.1-.05-.1-.05-.1v-.2L0 21.5l.05-.1v-.1l.05-.1v-.1l.1-.1.05-.1.1-.1.05.05.15.1.25.1.25.05h.05l.2.05h.3l.15.05.25.05h.25l.65.05.55.05 1.35.05h1.65l6 .05h5.35L31 21.4h36.3l8.2.05h.15l.3-.05h.3l.15-.05.1-.05.1-.05h.05l.1-.1.15-.1.1-.1.05-.1zm.2 4.1v.3l-.05.1-.1.1v.1l-.1.15-.05.1-.1.1-.15.1-.1.1v.9l.2.1.1.1.1.15.05.1.05.1.05.1.05.1.05.1v.75l-.05-.1-.05-.1-.05-.1-.05-.1-.05-.1-.1-.15-.1-.1-.2-.1-.2-.1-.2-.05-.3-.05-.3-.05h-.15l-8.2.05-7.7.05H37l-6-.05-13.2-.05h-5.35v.05h-6l-1.65.05-1.35.05H2.9l-.65.05-.25.05h-.25l-.15.05-.3.05h-.2l-.05.05H.9l-.2.05-.2.15-.15.1-.1.1-.05.1-.1.1v.05l-.05-.1v-.2L0 28.1l.05-.1v-.1l.05-.1v-.1l.1-.1.05-.1.1-.1.15-.1.2-.15.2-.05h.15v-1.2l-.25-.05-.25-.1-.15-.1-.1-.15-.1-.1-.05-.1-.05-.1-.05-.1v-.2L0 24.8l.05-.1v.1l.05.1.05.1.05.1.1.1.1.15.15.1.25.1.25.05h.05l.2.05h.3l.15.05.25.05h.25l.65.05.55.05 1.35.05h1.65l6 .05h5.35L31 25.9h36.3l8.2.05h.15l.3-.05h.3l.15-.05.1-.05.1-.05h.05l.1-.1.15-.1.1-.1.05-.1.1-.15v-.1l.1-.1zm-.65 5.2v.15l.2.1.1.1.1.15.05.1.05.1.05.1.05.1.05.1v.7l-.05.1-.1.1v.1l-.1.15-.05.1-.1.1v.05l-.05-.05-.2-.1-.2-.1-.2-.05-.3-.05-.3-.05h-.15l-8.2.05-7.7.05H37l-6-.05-13.2-.05h-5.35v.05h-6l-1.65.05-1.35.05H2.9l-.65.05-.25.05h-.25l-.15.05-.3.05h-.2l-.05.05-.25-.05-.25-.1-.15-.1-.1-.15-.1-.1-.05-.1-.05-.1-.05-.1v-.2L0 31.4l.05-.1v-.1l.05-.1V31l.1-.1.05-.1.1-.1.15-.1.2-.15.2-.05h.15v-.45h.05l.2.05h.3l.15.05.25.05h.25l.65.05.55.05 1.35.05h1.65l6 .05h5.35l13.2-.05h36.3l8.2.05h.15l.3-.05h.3l.15-.05.1-.05.1-.05zm.5 4 .05.1.05.1.05.1v.7l-.05.1-.1.1v.1l-.1.15-.05.1-.1.1-.15.1-.1.1v.9l-.2-.1-.2-.05-.3-.05-.3-.05h-.15l-8.2.05-7.7.05H37l-6-.05-13.2-.05h-5.35v.05h-6l-1.65.05-1.35.05H2.9l-.65.05-.25.05h-.25l-.15.05-.3.05h-.2l-.05.05v-1.2l-.25-.05-.25-.1-.15-.1-.1-.15-.1-.1-.05-.1-.05-.1-.05-.1v-.2L0 34.7l.05-.1v-.1l.05-.1v-.1l.1-.1.05-.05.05.05.1.15.15.1.25.1.25.05h.05l.2.05h.3l.15.05.25.05h.25l.65.05.55.05 1.35.05h1.65l6 .05h5.35L31 34.9h36.3l8.2.05h.15l.3-.05h.3l.15-.05.1-.05.1-.05h.05l.1-.1.15-.1.1-.1.05-.1.1-.15zm-.5 5.15v1.95H1.05v-2.1h.05l.2.05h.3l.15.05.25.05h.25l.65.05.55.05 1.35.05h1.65l6 .05h5.35L31 39.4h36.3l8.2.05h.15l.3-.05h.3l.15-.05.1-.05.1-.05z"/><path d="m76.65.4.2.1.1.1.1.15.05.1.05.1.05.1.05.1.05.1v1l-.05.1-.1.1v.1l-.1.15-.05.1-.1.1-.15.1-.1.1h-.05l-.1.05-.1.05-.15.05h-.3l-.3.05h-.15l-8.2-.05H31l-13.2.05h-5.35l-6-.05H4.8L3.45 3.2l-.55-.05-.65-.05H2l-.25-.05L1.6 3h-.3l-.2-.05h-.05L.8 2.9l-.25-.1-.15-.1-.1-.15-.1-.1-.05-.1-.05-.1-.05-.1v-.2L0 1.85l.05-.1v-.1L0 1.55l.05-.1v-.1l.05-.1v-.1l.1-.1.05-.1.1-.1.15-.1L.7.6.9.55h.15L1.1.5h.2l.3-.05.15-.05H2l.25-.05L2.9.3h.55L4.8.25 6.45.2h6V.15h5.35L31 .2l6 .05h22.6L67.3.2l8.2-.05h.15l.3.05.3.05.2.05zm.4 5.3.05.1.05.1.05.1.05.1.05.1v.7l-.05.1-.1.1v.1l-.1.15-.05.1-.1.1-.15.1-.1.1h-.05l-.1.05-.1.05-.15.05h-.3l-.3.05h-.15l-8.2-.05H31l-13.2.05h-5.35l-6-.05H4.8l-1.35-.05-.55-.05-.65-.05H2l-.25-.05-.15-.05h-.3l-.2-.05h-.05L.8 7.55l-.25-.1-.1-.05-.05-.05-.1-.15-.1-.1L.15 7 .1 6.9l-.05-.1v-.2L0 6.5l.05-.1v-.1l.05-.1v-.1L.2 6l.05-.1.1-.1.1-.05.05-.05.2-.15.2-.05h.15l.05-.05h.2l.3-.05.15-.05H2l.25-.05.65-.05h.55L4.8 5.2l1.65-.05h6V5.1h5.35l13.2.05 6 .05h22.6l7.7-.05 8.2-.05h.15l.3.05.3.05.2.05.2.1.2.1.1.1zm-.4 4.15.2.1.1.1.1.15.05.1.05.1.05.1.05.1.05.1v.7l-.05.1-.1.1v.1l-.1.15-.05.1-.1.1-.15.1-.1.1h-.05l-.1.05-.1.05-.15.05h-.3l-.3.05h-.15l-8.2-.05H31l-13.2.05h-5.35l-6-.05H4.8l-1.35-.05-.55-.05-.65-.05H2l-.25-.05-.15-.05h-.3l-.2-.05h-.05l-.25-.05-.25-.1-.15-.1-.1-.15-.1-.1-.05-.1-.05-.1-.05-.1v-.2L0 11l.05-.1v-.1l.05-.1v-.1l.1-.1.05-.1.1-.1.15-.1.2-.15.2-.05h.15l.05-.05h.2l.3-.05.15-.05H2l.25-.05.65-.05h.55L4.8 9.7l1.65-.05h6V9.6h5.35l13.2.05 6 .05h22.6l7.7-.05 8.2-.05h.15l.3.05.3.05.2.05zm.65 5.2v.7l-.05.1-.1.1v.1l-.1.15-.05.1-.1.1-.15.1-.1.1h-.05l-.1.05-.1.05-.15.05h-.3l-.3.05h-.15l-8.2-.05H31l-2.6.05H12.45l-6-.05H4.8l-1.35-.05-.55-.05-.65-.05H2l-.25-.05-.15-.05h-.3l-.2-.05h-.05L.8 16.4l-.25-.1-.15-.1-.1-.15-.1-.1-.05-.1-.05-.1-.05-.1v-.2l-.05-.1.05-.1v-.1l.05-.05v-.15l.1-.1.05-.1.1-.1.15-.1.2-.15.2-.05h.15l.05-.05h.2l.3-.05.15-.05H2l.25-.05.65-.05h.55l1.35-.05L6.45 14h6v-.05h5.35L31 14l6 .05h22.6l7.7-.05 8.2-.05h.15l.3.05.3.05.2.05.2.1.2.1.1.1.1.15.05.1.05.1.05.1.05.1zm-.35 4 .1.15.05.1.05.1.05.1.05.1.05.1v.7l-.05.1-.1.1v.1l-.05.1-.05.05-.05.1-.1.1-.15.1-.1.1h-.05l-.1.05-.1.05-.15.05h-.3l-.3.05h-.15l-8.2-.05H31l-13.2.05h-5.35l-6-.05H4.8l-1.35-.05-.55-.05-.65-.05H2l-.25-.05-.15-.05h-.3l-.2-.05h-.05l-.25-.05-.25-.1-.15-.1-.05-.05-.05-.1-.1-.1-.05-.1-.05-.1-.05-.1v-.2L0 20l.05-.1v-.1l.05-.1v-.1l.1-.1.05-.1.1-.1.15-.1.2-.15.2-.05h.15l.05-.05h.2l.3-.05.15-.05H2l.25-.05.65-.05h.55l1.35-.05 1.65-.05h6v-.05h5.35l13.2.05 6 .05h22.6l7.7-.05 8.2-.05h.15l.3.05.3.05.2.05.2.1.2.1zm-.3 4.3.2.1.1.1.1.15.05.1.05.1.05.1.05.1.05.1v.7l-.05.1-.1.1v.1l-.1.15-.05.1-.1.1-.15.1-.1.1h-.05l-.1.05-.1.05-.15.05h-.3l-.3.05h-.15l-8.2-.05H31l-13.2.05h-5.35l-6-.05H4.8l-1.35-.05-.55-.05-.65-.05H2l-.25-.05-.15-.05h-.3l-.2-.05h-.05l-.25-.05-.25-.1-.15-.1-.1-.15-.1-.1-.05-.1-.05-.1-.05-.1v-.2L0 24.5l.05-.1v-.1l.05-.1v-.1l.1-.1.05-.1.1-.1.15-.1.2-.15.2-.05h.15l.05-.05h.2l.3-.05.15-.05H2l.25-.05.65-.05h.55l1.35-.05 1.65-.05h6v-.05h5.35l13.2.05 6 .05h22.6l7.7-.05 8.2-.05h.15l.3.05.3.05.2.05zm.65 5.2v.7l-.05.1-.1.1v.1l-.1.15-.05.1-.1.1-.15.1-.1.1h-.05l-.1.05-.1.05-.15.05h-.3l-.3.05h-.15l-8.2-.05H31l-13.2.05h-5.35l-6-.05H4.8l-1.35-.05-.55-.05-.65-.05H2l-.25-.05L1.6 30h-.3l-.2-.05h-.05L.8 29.9l-.25-.1-.15-.1-.1-.15-.1-.1-.05-.1-.05-.1-.05-.1v-.2l-.05-.1.05-.1v-.1l.05-.1v-.1l.1-.1.05-.1.1-.1.15-.1.2-.15.2-.05h.15l.05-.05h.2l.3-.05.15-.05H2l.25-.05.65-.05h.55l1.35-.05 1.65-.05h6v-.05h5.35l13.2.05 6 .05h22.6l7.7-.05 8.2-.05h.15l.3.05.3.05.2.05.2.1.2.1.1.1.1.15.05.1.05.1.05.1.05.1zm-.4 3.95.05.05.1.15.05.1.05.1.05.1.05.1.05.1v.7l-.05.1-.1.1v.1l-.1.15-.05.1-.1.1-.15.1-.1.1h-.05l-.1.05-.1.05-.15.05h-.3l-.3.05h-.15l-8.2-.05H31l-13.2.05h-5.35l-6-.05H4.8l-1.35-.05-.55-.05-.65-.05H2l-.25-.05-.15-.05h-.3l-.2-.05h-.05l-.25-.05-.25-.1-.15-.1-.1-.15-.05-.05-.05-.05-.05-.1-.05-.1-.05-.1v-.2L0 33.5l.05-.1v-.1l.05-.1v-.1l.1-.1.05-.1.1-.1.15-.1.2-.15.2-.05h.15l.05-.05h.2l.3-.05.15-.05H2l.25-.05.65-.05h.55l1.35-.05 1.65-.05h6v-.05h5.35l13.2.05 6 .05h22.6l7.7-.05 8.2-.05h.15l.3.05.3.05.2.05.2.1.2.1zm-.25 4.35.2.1.1.1.1.15.05.1.05.1.05.1.05.1.05.1v.7l-.05.1-.1.1v.1l-.1.15-.05.1-.1.1-.15.1-.1.1h-.05l-.1.05-.1.05-.15.05h-.3l-.3.05h-.15l-8.2-.05H31l-13.2.05h-5.35l-6-.05H4.8l-1.35-.05-.55-.05-.65-.05H2l-.25-.05-.15-.05h-.3l-.2-.05h-.05l-.25-.05-.25-.1-.15-.1-.1-.15-.1-.1-.05-.1-.05-.1-.05-.1v-.2L0 38l.05-.1v-.1l.05-.1v-.1l.1-.1.05-.1.1-.1.15-.1.2-.15.2-.05h.15l.05-.05h.2l.3-.05.15-.05H2l.25-.05.65-.05h.55l1.35-.05 1.65-.05h6v-.05h5.35l13.2.05 6 .05h22.6l7.7-.05 8.2-.05h.15l.3.05.3.05.2.05z"/><path fill="#fff" d="m35.45 16.75-1.15.85q-2.35 1.1-3.6.8-.55-.1-1.35-.6-.85-.5-.95-1l2.6-.05z"/><path d="M49.5 13.7q.1 3.5-1.3 6-1.2 2.2-3.35 3.6l.1 1.5q0 .6.15.8l.65.4q1.8.7 2.45 2.55l.3 1.3.15 1.85q-.15 1.75-2.45 3.85.45.65.3 1.5-.1.85-.75 1.35-.8.65-2.75.55l-.85-.05-.15.25q-.6 1.15-1.25 1.45l-1.8.2-1.05-.2q-1.05.9-2.85.5-1.4-.4-1.9-1.2H33l-1.3.35-1.55.2q-1.25 0-1.8-.4l-.8-.8q-.4-.5-.45-.9-.15-.85.5-1.6l-1.25-1.65-.6-1.25q-2.25.7-3.45 1.4l-2.1 1.5.85-.15 1.7-.1q.9.05 1.7.5.8.5 1.05 1.3.4 1.4-.7 2.4-.9.9-2.35 1.05l-2.7-.3q-1.25-.1-2.7-.85L16 39.8q-.35-.5-.35-1.55 0-1.45.15-1.9l.75-1.3q1.4-1.8 4-3.1 1.55-.75 4.85-1.75l.65-.15q.15-.45.45-.85.85-1.2 2.05-1.85l1.05-.9.15-.8.3-1.05.55-1.15-1.4-1.05q-1.55-1.35-2.35-3.2-.8-1.95-.6-3.9.1-1.1.7-2.75L28 10.4l.5-.65-.6-.95q-.15-.4-.15-1.35 0-1.25.15-1.85l.95-2 .4-1.1q.2-.7.5-1.1Q30.2.85 31 .7q.7-.1 1.35.4l.8 1 1 1.9.75 1 6.8-.2.35-.35q1.15-.95 2.4-2.65.75-1.15 1.3-1.4.5-.2 1 0l.8.6.35 1.25.5 1.75.4 1.75.1 1.25.1.85-.05.75.1.7.1 1v.25q.35 1.4.35 3.15m-2.4 2.95q.05-.75-1.15-1.4-1.5-.75-3-.8l-.05.1-.55.6q-1.35 1.4-2.85 1.9l-.5.15.15.4h.1l.15.05.8.05 1.25.05h1.95l1.1.05 1.45.05H46q1.05-.5 1.1-1.2m-19.15 0q.05.5.5.85h.3v-.05h2.6l1.6.05H36l.15-.4-.9-.25-.8-.35q-1.1-.65-1.5-1.65l-.15-.35-.45-.05q-1.65 0-3.25.8-1.2.65-1.15 1.4"/><path fill="#fff" d="M47.1 16.65q-.05.7-1.1 1.2h-.05l-1.45-.05-1.1-.05h-1.95l-1.25-.05-.8-.05-.15-.05h-.1l-.15-.4.5-.15q1.5-.5 2.85-1.9l.55-.6.05-.1q1.5.05 3 .8 1.2.65 1.15 1.4m-19.15 0q-.05-.75 1.15-1.4 1.6-.8 3.25-.8l.45.05.15.35q.4 1 1.5 1.65l.8.35.9.25-.15.4h-3.05l-1.6-.05h-2.6v.05h-.3q-.45-.35-.5-.85"/></g></svg>