<svg xmlns="http://www.w3.org/2000/svg" xmlns:ffdec="https://www.free-decompiler.com/flash" ffdec:objectType="shape" width="71.25" height="38.25"><g fill-rule="evenodd"><path fill="#999" d="m60 16.2-.85-.05-.35-.1q-.55.9-2.6 1.8-2.4 1-4.9 2.6-3.2 2.05-4.65 4.3l-1.45 2q-.65.65-1.05.3-.35-.2-.15-1.05l.8-2.3.6-1.25q2.6-5.15 9.6-9 1.2-.65 1.8-.65h.5l-.1-.4-2 .8-.75.3-1.7.75-1.3.35-.05.1q-.25.1-.35-.15-.05-.1.05-.3.25-.65.6-1.15l.65-.55.4-.35q.45-.35.6-.4l1.3-.8q.7-.45 1.35-.65l.7-.25.75.1.4.2.15-.25.85-1.05q.9-.9 2.1-.4l.8.75q.3.5.2 1.05l-.2.65-.4.65 1.65-.05 1.4.3q1.15.6 1.05 1.85-.1 1.35-1.3 1.7l-.65.1-2.2.15zm3.85 11.65q-.45.5-1.25.2l-1.1-.8-2.75-2.1q-.4-.25-.25-.45l2.1-.15q2.15.5 3.05 1.5l.45.9q.2.55-.25.9m-4.2 3.35-1.45-.3-1.2-.95q-1.3-1-3.55-.9l-2.95.65-.15.15-1.2.65-.2.2-.55.4-.3.1q-.2.1-.25.15-.2.15-.45.25l-.6.45q-.65.4-1.6.4l-.55-.05-.7-.65q-.25-.5.05-1.3l.05-.05-.15-.5q-.15-.6.25-1.25l.55-.55.8-.5 1.65-.35h.05l.7-.35.65-.25.5-.05h.25q1.75-.9 3.8-1.2 2.85-.4 5.5.5 1.65.6 2.35 1.45 1.1 1.25.55 2.6-.6 1.15-1.85 1.25m2.15-.25 2.6-1.85q1-.5 1.55-.65 1-.2 1.6.3.6.4.6 1.2l-.45 1.25-1 .9-1.6 1.3-1.15.7q-.6.2-1.25 0-.6-.2-1-.7-.35-.5-.35-1.2.05-.65.45-1.15zm-49.6-18.5.15.5v1.45l-.05.5.15 2.2h.05l.8.4q-.3-.8.05-1.75.4-.95 1.3-1.25l2.2.2q2.45 1 4.4 3.65 1.8 2.5 2.8 5.45l.2 1.15-.1 1.05q-.2.95-.7 1.05-.45.05-.9-.7-2-3.1-4.4-5.7l-.7-.7-2-.8L15 19l.15.15.2.25 1.1 1.05.2.25.1.2.15.15q.2.3-.15.4l-.35-.1h-.45l-.25-.15-1.6-.3-.55-.05-.8-.05-1.45-.25q-.8-.2-1.5-1l-.2-.4-.1-.25q-.65-.4-.75-1.25L8.7 17q0-2.15.4-3.4l.3-.7.1-.45q.2-.9 1.1-1.05.8-.15 1.4.6zM4.7 28.4q.75-.3 1.55 0l.75.5.05-.05q.4-.35.85-.4l-.25-.35q-.65-.95-.15-2 .3-.65 1.15-1.1l1.55-.6 1.9-.35 1.15.05 2.3.25 1.05.2 1.25.55 1.05.3.9.55q.5.5.25 1 .5-.4 1.15-.45.75-.15 1.65.4l1.25 1.25q.5.95.15 1.75-.35 1.05-1.6 1.3-1.15.15-2.1-.55-.65-.4-1-1.15T19.4 28l.3-.65-.35.1-.85.1-3-.05q-2.65 0-4.1.7l-1.85.75.2.3.05.05.4-.05h.9l.75-.1 1.6-.05 1.25-.25.55.05.3.45q-.05.35-.65.45-1.3.3-1.75.65l-.8.55-.6.2-.95.6-1 .45-1.8.65-1.2-.1q-.5.45-1.2.6-1.2.25-1.95-.75-.45-.5-.55-1.45-.05-.9.4-1.7t1.2-1.1m29.05 3 .8.15q.45.25.55.8t-.35.9q-.35.35-1.1.45l-1.25.05-.7-.45q-.3-.5.05-1.05l.9-.65z"/><path d="M68.95 15.05q-.3.4-1.1.4l-1.2-.1-2.7.1-1.85.45-2.4.8-.15-.05q-.25.5-.9.45-.85-.05-1-.8V16l-.75-1.65-.9-1.5-.3-.45q-.35-.6-.1-1.1v-.2q.05-.5.3-.7l.75-.45h.1l.3-.25 1.25-.9 2.1-1.6 1.1-1.15.35-.25 1.1-.05q.8.35.7 1.2l-.15.45v.5L63 9.7l-.65 1.2q1.8 0 3.2.6l1.35.9 1.35.85.5.3.4.75zm-10.3-2.8q.15-.4.55-.7l.15-.25.85-1.15-1.95 1.45.1.25zm5.35 1.1-3.55.15-.6.1-.55-.1.1.35.3.75-.05.05.05.15q1.55-.95 4.3-1.45M39.65 2.3l.1.05.7-.85Q41.85.1 44.1 0q1.9 0 3.8 1.15l1.05.85q2.6 2.4 2.5 5.95-.1 1.95-1.05 3.05l-1.35 1.05q-.85.55-1.75.75l-.15.05-.05 1.4-.1.9-.25 1.5q-.4 1.6-1.45 3.05l.6.05 1.1.05q1.8.05 3.45 1.05 1.25.75 2.15 1.85l.55.2q.95.3 1.75 1.4l.3.6.2.7.15 1.35-.3 1.25-.55.65-1.35.7-.6.1-.15.25-1.2 1.45-2.8 2.6-.15.1-.15.15-.95.8-1.6.85-1.1.7-1.55.65q-.2.15-.45.25l-.9.15-3.4.45h-6.1l-.8-.05-.4.1-1.7.15q-4.55-.1-8.65-1.25l-3.9-.95-2.9-.1q-3 0-4.2.95-.9.7-1.35.55l-.4-.45q-.05-.35.05-.65l.85-.9q1.6-1 5.3-1.8l2.65-.35 4.85.4-2.45-2.35L18 29.9l-.15-.25-.6-.1q-.7-.15-1.35-.7l-.55-.65q-.3-.5-.3-1.25 0-.65.15-1.35l.2-.7.3-.6q.8-1.1 1.75-1.4l.55-.2q.9-1.1 2.15-1.85 1.65-1 3.45-1.05l1.1-.05.6-.05q-1.05-1.45-1.45-3.05-.2-.65-.25-1.5l-.1-.9v-1.4l-.2-.05q-.9-.2-1.75-.75-.9-.55-1.35-1.05-.95-1.1-1.05-3.05-.1-3.55 2.5-5.95l1.05-.85Q24.6 0 26.5 0q2.25.1 3.65 1.5l.7.85.1-.05 2.4-.35 1.8-.1 2.1.1zm-7.8 16.8.2.25 1.1-.6 2.8-.3 1.25.1 1.05.45.8.25.2.1.2-.1q.4-.3.4-.9l-.15-.4-.3-.4-.6-.4q-1.05-.6-2.1-.75v-.55l-.1-.75q-.25-.55-.85-.55-.6-.1-.95.45-.15.3-.15 1.25l.05.25h-.1l-1 .3q-.85.35-1.25.6l-.5.4q-.4.65 0 1.3m6.75-7.45-.15.6-.05.55q0 1 .8 2l1.25 1 1.2.15.95-.05 1.45-.9q1.25-1.25 1.25-2.65l-.05-.65-.85-.35-1.15-.6-1.35-1.2-.3-.5q-.9 0-1.55.45-.55.35-1.15 1.45zm11.15 16.2-1.75-.1.3 1.9.7-.75zm16.1-1.45.9.35q1.65.7 2.8 1.7l1 1 .65 1.3v.85l-.7 2.45-.85 1.25q-1.1.95-3.15.65L65 35.7l-1.6-.55-2-1.2-1.1-.7L58.85 32l-.4-.75q0-.45.35-1.05l.55-1 .55-1.6q.6-1.15 2.4-1.55zM46.8 24.8l.15.25 1.9-.3.4.05q-.75-.8-2-1.2l-1.6-.4zm15.4 3.6q-.1.25.15.5.85.85 2.2 1.45l2.25.9 1.45.1q.35-.05.35-.4l-.25-.45L66 28.9q-1.7-.75-3.8-.5m5.95 5.3h-.7l-1-.05-.5-.3-1.7-.65-3.3-1.7.3.6.3.3.35.25q1.65 1.1 2.6 1.2l.55.1.4.15 1.3.35zm-35.9-21.35q-.55-1.3-1.7-1.75l-.25.3q-1.05 1.3-2.4 1.95l-.45.2-1.5.4-.2.05-.05.1v.8l.1.45q.35 1.1 1.15 1.6.85.65 1.9.55 1.05-.05 2.2-.85l.45-.3.55-.7q.8-1.3.2-2.8M10.3 19.7l-1.4.35q-.85 0-1.4-.4l-.8-1.1-.6-1.25-.5-.9q-.25-.75.35-1.95 1.65-3.1 4.95-4.3l2.05-.4q1.15.1 1.9.7l.75.95.7 1.15q.45 1 .3 2.1-.2 1.1-.9 1.9l-1.1.95q-2 1.45-4.3 2.2m1.25-2.65 2.7-1.95.25-.25.2-.65-.05-.4-.2.25-1.7 1.65-.4.25-1.7.9-.9.4-1.25.3v.15l.25.2 2.15-.5zm-3.6-1.65q3.25-.5 5.15-3-.25-.25-.75-.15-2.95.5-4.4 3.15m-.2 14 .35.8q.6-.4 1.65-.85l-.5-.9-1.5.9zm1.3 3.9-.75.8-1.1.25-4.95.15-1.05-.1q-.55-.15-.95-.6-.3-.45-.2-1.15L.4 31.5l.6-2.05 1.35-3.4.45-.8 1.4.05.75.6q.25-.2.65-.35l1.15-.45 1.6-.1q.3.2.6 1.05l.15.3.15-.1.35-.15q.55-.15 1 .35l.45.85 1 2.65q.1.45-.2.8l-.6.45-1.5.7-.65.45v.15zM4.1 27.9h-.15l-.1.15-1.15 4 3.95-.15-.1-.45v-.5l-.2-.45-.95-1.45zm3-.4.55-.3-.2-.5q-.3.05-.95.4v.05l.4.55zM6.05 31q-.25.75-1 .55l-.35-.15-.4-.6q-.1-.7.5-.95.55-.35 1.05.15.45.4.2 1m17.75-6.2q.5-.85 1.15-1.6l-1.6.4q-1.25.4-2 1.2l.4-.05 1.9.3zm-2.95 3.05.75 1.05.7.75.3-1.9z"/><path fill="#fff" d="m38.6 11.65.3-.7q.6-1.1 1.15-1.45.65-.45 1.55-.45l.3.5 1.35 1.2 1.15.6.85.35.05.65q0 1.4-1.25 2.65l-1.45.9-.95.05-1.2-.15-1.25-1q-.8-1-.8-2l.05-.55zm-6.75 7.45q-.4-.65 0-1.3l.5-.4q.4-.25 1.25-.6l1-.3h.1l-.05-.25q0-.95.15-1.25.35-.55.95-.45.6 0 .85.55l.1.75v.55q1.05.15 2.1.75l.6.4.3.4.15.4q0 .6-.4.9l-.2.1-.2-.1-.8-.25-1.05-.45-1.25-.1-2.8.3-1.1.6zm.4-6.75q.6 1.5-.2 2.8l-.55.7-.45.3q-1.15.8-2.2.85-1.05.1-1.9-.55-.8-.5-1.15-1.6l-.1-.45v-.8l.05-.1.2-.05 1.5-.4.45-.2q1.35-.65 2.4-1.95l.25-.3q1.15.45 1.7 1.75"/></g></svg>