<svg xmlns="http://www.w3.org/2000/svg" xmlns:ffdec="https://www.free-decompiler.com/flash" ffdec:objectType="shape" width="69.4" height="41"><g fill-rule="evenodd"><path fill="#999" d="M8.2 7.9q1.75-2.65 5.5-4.3 3.2-1.35 6.5-1.35h.25q.35-.8 1.25-1.75l.45-.5h4.75l.15.4q1.15 2.25 1.7 4.2l.3 1.25 1.1 1.55 1.15 2.45q1.2 3.1 1.35 4.45.3 2.05-.4 4.5l-.75 2.05 1.5.6q3.15 1.4 4.8 2.75 2.5 2 3.05 4.55.4 1.8-.15 4.6-.65 3.05-1.65 4.75-1.05 1.85-2.5 2.9H31.4l-.55-1.05q-.2-.6-.1-1.6l.15-1.6q-.05-1.1-.65-2.55l-.05-.1-3.6-4.25-.9-.95q-.35-.25-.8-.35h-1.35l-2.45.85q-2.4.55-4.95.1-1.45.6-2.5 1.75-.75.75-1.15 1.6-.1 1.1.35 1.95l1.05.95q1.65.9 4.05-.05l3.65-1.9q1.65-.85 3.35-1.2l2.45-.1q1.45.25 2.05 1.2.55.8.45 1.95l-.65 2q-.7 1.2-2 2.1L24.65 41H9q-1.4-.85-2.05-2.2-.6-1.15-.6-2.8-.15-4 2.3-7.4l1.4-1.6.2-.3q-2.15-1.8-3.3-4.4l-.1-.25-.4-.2-1.7-1.05q-1.7-1.15-3.8-3.9L.1 15.45q-.25-.85.1-1.75.3-.9 1.1-1.35l1.2-.45 1.7-.85q1.05-.55 1.75-.75l1.1-.2q.5-1.3 1.15-2.2m55.65 2.55-3.1 1.85-.6.2-.55.5q-.35.35-.55.15-.2-.1-.05-.4l.3-.35.5-.9.6-.85 2.45-3.35.35-.65 1.5-1.7q.85-.85 1.9-.6 1.1.15 1.5 1.25.35 1.05-.35 1.9l-.55.5zM49.3 23.95l1.5-1.6 1.5-.9q5-2.95 8.6-5.65 2.05-1.55 3.35-1.4 1.4.1 2 1.4.55 1.3-.25 2.45l-1.8 1.3-4.75 1.9-4.7 2.2q-2.8 1.2-4.9 1.4-.6.1-.8-.2-.2-.35.25-.9m-1.65-.7q-.4.1-.5-.4l.05-.7.6-1.55 2.05-4.7q1.85-4.05 4.2-8.3.45-.9 1.1-1.3l1.35-.15q.85.25 1.25.85.5.75.05 1.85l-1 1.65-3.35 4.95-3.35 5L48.05 23zm2.55-10.3-1.05 1.6-.2.45-.35.05-.25-.3.05-.7-.05-1.85.7-3.45q.2-.75.55-1.05.5-.5 1.1-.45.7 0 1.05.45.5.5.35 1.1l-.15.55-.9 2.05-.25.4-.15.45zm7.3 12.8q.65.05 1.75-.5l1-.1h.9l1.55.35q.7.45.7 1.3 0 .9-.75 1.3l-1.65.25-2.1-.6-.6-.25-1.6-.35-.55-.1-1.15-.4-.2-.45.5-.2.75-.2.75-.15zm-41.3-4.9-.05-1.2h-1.1l-3.65-.5q-1.25-.45-2.05-1.2L9.3 18l-.55.8Q8.1 20 8.1 21.15q0 1.35.7 2.25.55.85 1.65 1.25 1.8.7 3.3-.05l1.5-1.1q.75-.95.9-1.85z"/><path fill="#fff" d="m16.2 20.85-.05.8q-.15.9-.9 1.85l-1.5 1.1q-1.5.75-3.3.05-1.1-.4-1.65-1.25-.7-.9-.7-2.25 0-1.15.65-2.35l.55-.8.05-.05q.8.75 2.05 1.2l3.65.5h1.1z"/><path d="M43.6 6.35q2.35 1.95 3.2 3.4 1.25 2.05 1.25 4.65-.05 2.85-1.5 5.75l1.4 1L49 20.2q1.9-1.7 2.95-2.45l1.45-1.15 1-1.15 1.4-1.4.7-.45.8.1q.3.3.2.8l-.45.8L53 20.75l-1.95 2.45-.6.85.5.85q1.85 3.3 2.3 8.15l.65-.3 2.15-.3q1.25.15 1.8 1.1l.7 1.45q.45.55 1.25.6.8 0 1.25-.55l.55-1.4 1-1.9q.65-.8 1.25-1 1.15-.45 2.65.75.55.45.85.35l.6-.7q.2-.25.65-.2l.6.3q.45.6 0 1.35l-1.15.85-2.35-.15-1.3-.45q-.8.1-1.05 1.05l-.25 1.55q-.25 1.3-1.35 2.15-1.1.9-2.4.8-1 0-2.1-.6-1.25-.55-1.65-1.35l-.4-.45-.4.05-1.55.9-.6 2.75-.5 1.3h-16q-.4-1.3-.05-3.65l.35-1.85-1.3.95h-.05l-.35.5q-.2 2.2-2.1 3.8l-.3.25h-8.9l-1.35-1.45q-.7-1.35-.35-3.4.65-3.1 3.2-4.95t5.75-1.55l1.65.4 1.4.85.1.1L38 28.05l.4-.25.3-1.4-1.85.15q-4.05 0-7-2.7L27.7 21.3l-.7-1.05q-1.65 1.15-3.8 1.4-2.25.2-4.15-.75-1.1-.55-1.55-1.3-.5-.8-.5-2.45 0-1.6.3-2.6.35-1.1 1.25-2.1 1.45-1.7 3.7-2.5 2.2-.8 4.45-.45l.95.25.3-.45q1.45-1.95 2.95-3 .95-.65 2.45-1.2-.3-1.3-.1-2.65.25-1.4.95-2.45h9.15l.25.5.25 1.7q0 1.95-.95 3.5-.5-.35-1.1-.55l-2.25-.2q-1.6.4-2.55 1.9-.4.7-.45 1.15l-.05.75q0 1.45.85 2.55.8 1.1 2.3 1.45 2.05.3 3.7-1.35l.45-.55q.8-1.15.65-2.5-.15-1.1-.85-2m-3.05-.55q1.6 0 2.35 1.4.8 1.3-.05 2.7-.65 1.15-2.05 1.25-.9.1-1.6-.35-.7-.4-1.1-1.25-.5-1.35.2-2.45.75-1.25 2.15-1.25zm-.7 11.9.6.65q.65.5 1.5.5.85.05 1.5-.45l.7-.9.3-1q0-.9-.85-1.6-.8-.7-1.9-.7-1.05.1-1.6.9l-.95-.1q-.8.3-.65 1.05l.45.55q.3.25.65.3zm11.1-.95q-.8.65-1.15 1.5l-.7.75q-.5 0-.5-.65l.25-.85.3-1.4.05-1.55q.25-.95 1.3-1.15 1.05-.1 1.6.8l.2.85-.35.85zM55 22.2l1.1-.2q1.15 0 1.55 1.05.5 1-.3 1.85-.75.85-1.8.5l-1.35-.7-1.05-.15q-.6-.2-.7-.7 0-.5.65-.85zm-23.25-5.3-1.05-.15-1.05-.05q-.55.25-.65.75-.1.6.5.85l.2.15 2 .1-.35 1.7.25.85.5.4.65-.35.3-.75.4-1.7.9.15 1.05.05.6-.3.3-.2q.25-.4 0-.8l-.35-.25-1.3-.45h-1l.2-.25.45-.75-.2-.85-.7-.55-.85.05-.6.55q-.25.45-.15.85l.3.65-.1.3z"/><path fill="#fff" d="m42.9 5.7.4.35.3.3q.7.9.85 2 .15 1.35-.65 2.5l-.45.55q-1.65 1.65-3.7 1.35-1.5-.35-2.3-1.45-.85-1.1-.85-2.55l.05-.75q.05-.45.45-1.15.95-1.5 2.55-1.9l2.25.2q.6.2 1.1.55m-2.35.1-.1.05q-1.4 0-2.15 1.25-.7 1.1-.2 2.45.4.85 1.1 1.25.7.45 1.6.35 1.4-.1 2.05-1.25.85-1.4.05-2.7-.75-1.4-2.35-1.4m-.7 11.9-.25-.8q-.35-.05-.65-.3l-.45-.55q-.15-.75.65-1.05l.95.1q.55-.8 1.6-.9 1.1 0 1.9.7.85.7.85 1.6l-.3 1-.7.9q-.65.5-1.5.45-.85 0-1.5-.5zm-8.1-.8H32l.1-.3-.3-.65q-.1-.4.15-.85l.6-.55.85-.05.7.55.2.85-.45.75-.2.25h1l1.3.45.35.25q.25.4 0 .8l-.3.2-.6.3-1.05-.05-.9-.15-.4 1.7-.3.75-.65.35-.5-.4-.25-.85.35-1.7-2-.1-.2-.15q-.6-.25-.5-.85.1-.5.65-.75l1.05.05z"/></g></svg>