<svg xmlns="http://www.w3.org/2000/svg" xmlns:ffdec="https://www.free-decompiler.com/flash" ffdec:objectType="shape" width="76.15" height="34"><g fill-rule="evenodd"><path fill="#999" d="m52.4 3.8-.3.1h-.4l-.2-.3q.3-.6.75-1.05l.7-.75L54.1.9l.75-.45 1.05-.4h1q.6.15.85.85.15.65-.15 1.2t-.95.7l-.45.05-.05.05h-.05l-2.65.65zm-.3 3.6-.45-.15-.2-.35.2-.45.4-.25.8-.15.45-.15 1-.25 1.05-.1.4.05h.55l.8.3.45.25.5.8-.1.9-.65.65-.9.1-.65-.35-.4-.3-1.15-.4h-.55zM40 4.5q.75-1.3 1.8-1.55l1-.2 1.05-.85 1.1-.1 1.05.5 1 .65q1.5 1.35 1.3 3.7-.1 2.5-1.9 3.65l-.85.5-.65.6-1.25 1.1q-.7.55-1.55.55l-.55.05-.45.2-1 .1v1.9l-.05.1v.15l-.05.05-.05.1v.1l-.05.05-.1.1-.1.1-.15.1-.2.1-.15.05-.1.1v.1l-.15.05-.05.1h-.1l-.15.05-.25-.05-.15-.1-.1-.1-.05-.1-.05-.1v-.15L38 16v-1l-.05-.1v-4.75l.05-.1V8.6l.05-.1v-.9L38 7.5v-.15l-.05-.1V5.8l.05-.1v-.1l.05-.1v-.1l.05-.05.05-.1.05-.1.1-.1.1-.1.1-.1.25-.05.3-.05V4.7l.35.1.15.05.15.1zm14.45 7.3q.15.5-.2 1l-.8.55q-.9.05-1.75-.9l-1.35-1.5-.35-.25-.1-.4q.15-.25.5-.25 2.2-.1 3.4.9z"/><path d="m20.75 11.8.65-.85q1.2-1 3.4-.9.35 0 .5.25l-.1.4-.35.25-1.35 1.5q-.85.95-1.75.9l-.8-.55q-.35-.5-.2-1m2.35-4.4-1.55.15H21l-1.15.4-.4.3-.65.35-.9-.1-.65-.65q-.2-.4-.1-.9t.5-.8l.45-.25.8-.3h.55l.4-.05 1.05.1 1 .25.45.15.8.15.4.25.2.45-.2.35zm-.3-3.6-1.05-.25-2.65-.65h-.05L19 2.85l-.45-.05q-.65-.15-.95-.7T17.45.9q.25-.7.85-.85h1l1.05.4.75.45 1.15.9.7.75.75 1.05-.2.3h-.4z"/><path fill="#999" d="m46.2 20.9-.95-.45-1.3.05q-.6.2-.85.65-.25.5-.2.9.05.6.5 1.05l.9.5 1.95-.1q.6-.4.65-1.3-.05-.75-.7-1.3m-1.1-1.25.9.15q.95-.1 1.3-.75.35-.6 0-1.25-.4-.6-1.15-.7l-1.1.15q-.85.25-.8 1.2 0 .85.85 1.2m4.2 2.7.4.7.6.7 1.1.95 1.25.5 3.2.3.95-.4q1.65-.85 1.85-2.2.1-.95-.3-2.05l-.65-1.15-1.45-1.1L55 18q-1.75-.75-3.8-.4-1.45.25-2 .95l-.25.7q-.25.95-.1 1.85zm15.4-5.25q6.1 2 11.45 5.25V34q-2.6-.95-5.8-1.35l-3.5-.35-5.8.8-7.75.9-5.1-.4q-4.5-1.05-6.95-4.25-1.3-1.75-1.7-3.75-.45-2.15.25-3.95 1.3-3.75 6.1-5.25 3-.95 8.45-.8l6.05.45zm-18.65 9.2q-.05.55.2.95l.75.85q1 .65 1.95.55 1.15-.1 1.6-1 .5-.95-.15-2.05-.6-.9-1.85-1.15l-1.35.05q-.75.25-1 .8-.15.45-.15 1M32.4.45q1.2.25 1.85.7L36 2.8l1.15 1.6q.5 1.15-.2 1.9l-.85.45-.95-.2-.65-.75-.5-.9q-1-1.8-3-2.05l-1.45.2q-.55.3-1 1.05-.45.6-.55 1.05-.15.75.05 1.4.35 1.65 1.9 3.1l2.95 2.05q1.9 1.1 2.7 1.8 1.45 1.25 1.7 2.75v.65l-.5.4q-.4.05-.85-.75l-1.4-1.3q-.55-.4-1.5-.9l-1.6-.75q-1.65-.75-2.95-1.95-1.75-1.6-2.4-3.25l-.4-1.45-.2-1.45q0-.6.5-1.8 1.3-3 3.7-3.5z"/><path d="M42.8.45 45.5.2q2.4.5 3.7 3.5l.5 1.8-.2 1.45-.4 1.45q-.65 1.65-2.4 3.25-1.3 1.2-2.95 1.95l-1.6.75q-.95.5-1.5.9l-1.4 1.3-.85.75-.5-.4v-.65q.25-1.5 1.7-2.75.8-.7 2.7-1.8 1.95-1.1 2.95-2.05 1.55-1.45 1.9-3.1.2-.65.05-1.4l-.55-1.05-1-1.05-1.45-.2q-2 .25-3 2.05l-.5.9-.65.75-.95.2-.85-.45q-.7-.75-.2-1.9l1.15-1.6q.95-1.15 1.75-1.65.65-.45 1.85-.7M31 19.65q.85-.35.85-1.2.05-.95-.8-1.2l-1.1-.15q-.75.1-1.15.7-.35.65 0 1.25.35.65 1.3.75zm-1.1 1.25q-.65.55-.7 1.3.05.9.65 1.3l1.95.1.9-.5q.45-.45.5-1.05l-.2-.9q-.25-.45-.85-.65l-1.3-.05q-.55.1-.95.45m-3.1 1.45.45-1.25q.15-.9-.1-1.85l-.25-.7q-.55-.7-2-.95-2.05-.35-3.8.4l-1.25.6-1.45 1.1q-.3.3-.65 1.15-.4 1.1-.3 2.05.2 1.35 1.85 2.2l.95.4 3.2-.3 1.25-.5 1.1-.95.6-.7zM11.4 17.1q2.6-.8 4.3-1.05l6.05-.45q5.45-.15 8.45.8 4.8 1.5 6.1 5.25.7 1.8.25 3.95-.4 2-1.7 3.75-2.45 3.2-6.95 4.25l-5.1.4-7.75-.9-5.8-.8-3.5.35Q2.6 33.05 0 34V22.3q5.35-3.2 11.4-5.2m18.65 9.2-.15-1q-.25-.55-1-.8l-1.35-.05q-1.25.25-1.85 1.15-.65 1.1-.15 2.05.45.9 1.6 1 .95.1 1.95-.55l.75-.85z"/><path fill="#fff" d="m49.3 22.35-.45-1.25q-.15-.9.1-1.85l.25-.7q.55-.7 2-.95 2.05-.35 3.8.4l1.25.6 1.45 1.1.65 1.15q.4 1.1.3 2.05-.2 1.35-1.85 2.2l-.95.4-3.2-.3-1.25-.5-1.1-.95-.6-.7zm-4.2-2.7q-.85-.35-.85-1.2-.05-.95.8-1.2l1.1-.15q.75.1 1.15.7.35.65 0 1.25-.35.65-1.3.75zm1.1 1.25q.65.55.7 1.3-.05.9-.65 1.3l-1.95.1-.9-.5q-.45-.45-.5-1.05-.05-.4.2-.9.25-.45.85-.65l1.3-.05zm-.15 5.4q0-.55.15-1 .25-.55 1-.8l1.35-.05q1.25.25 1.85 1.15.65 1.1.15 2.05-.45.9-1.6 1-.95.1-1.95-.55l-.75-.85q-.25-.4-.2-.95M26.8 22.35l-.4.7-.6.7-1.1.95-1.25.5-3.2.3-.95-.4q-1.65-.85-1.85-2.2-.1-.95.3-2.05.35-.85.65-1.15l1.45-1.1 1.25-.6q1.75-.75 3.8-.4 1.45.25 2 .95l.25.7q.25.95.1 1.85zm3.1-1.45q.4-.35.95-.45l1.3.05q.6.2.85.65l.2.9q-.05.6-.5 1.05l-.9.5-1.95-.1q-.6-.4-.65-1.3.05-.75.7-1.3m1.1-1.25-.9.15q-.95-.1-1.3-.75-.35-.6 0-1.25.4-.6 1.15-.7l1.1.15q.85.25.8 1.2 0 .85-.85 1.2m-.95 6.65-.2.95-.75.85q-1 .65-1.95.55-1.15-.1-1.6-1-.5-.95.15-2.05.6-.9 1.85-1.15l1.35.05q.75.25 1 .8z"/></g></svg>