<svg xmlns="http://www.w3.org/2000/svg" xmlns:ffdec="https://www.free-decompiler.com/flash" ffdec:objectType="shape" width="60.2" height="42.6"><g fill-rule="evenodd"><path fill="#999" d="m23.05 29.45-.15-1q-.15-1.3-.5-2.25l-.85-2.05-.6-1.3q-.7.65-1.1 1.25-1.8 2.25-1.65 4.6 0 .65.3 1.1l1.15.95q1.45 1.2 1 2.85-.2.85-.8 1.45-.55.6-1.35.8l-.75.05-.4.05-1-.35-.05-.05q-.55-.2-.95-.55-3.6-2.15-5.1-5.4l-.95-2.7q-.25-1.35-.15-4 .1-1.25.35-1.8.1-.35.35-.35l.35.3v.5q-.3 2.2.45 4.25l1 2.05.85 1.4.65.75q-.05-.8.05-1.65-.65-.8-1.05-1.8l-.2-.7q-.3-1.1.15-2.4l1.45 2.5.1.2.3-.85q.55-1.2 1.9-2.35l-1.7-.15q-1.55-.45-2.8-1.5L9.8 19.7l-1.3-1.95-2.3-1.95-1.25-1.7-.7-1.2q-.25-.85.15-1.45l.8-.6.9-.6 1.85-.9.4-1.25q1.25-3.3 4.3-4.95.05-.4.25-.85l.15-.95q.15-.6.7-.95.8-.45 1.75-.4l1.6.6q1.15.55 2.05 1.4l1.8.5q3.95 1.6 5.45 5.6.95 2.4.55 5.3-.45 2.7-1.95 5.1l-.3.55.3.45.35.8 1.1 3.4.1.2.3.05q.75-.05 1.35.45.65.5.75 1.25.15 1-.8 2.05l-1 .8.45.2-.25.05-.8.35-.35.2-4.45 1.75-.1.05.1-.3q.25-.55 1.15-1l.25-.5zm5.15-.25v.05q.45.55.45 1.3 0 .8-.45 1.3l-.7.6-.05 3.2q-.05.35.05.45l.45.35q.95.45 1.25 1.25.45.95-.05 1.75-.35.8-1.45 1.2l-1.8.15-1.85-.25-1.3-.95-.4.4-2.8 1.6q-1.6.65-2.95.75-1.85.15-3.6-.7t-2.75-2.5l-1.15-2.6q-.65-1.7-1.3-2.55l-1-.75q-.7-.25-1.15.2-.5.45-.1 2.2.6 2.05-.7 3.4-.6.5-1.6.7l-1.6-.35Q.3 38.55.05 36.55q-.25-1.85.35-3.5.6-1.8 2-2.9Q3.75 29 5.6 28.8q1.9-.15 3.4.8 2.4 1.5 3.75 6.05.5 1.65 1.1 2.2 1 1.15 3.05 1.15 1.9-.05 3.65-1.3l2.2-2.3.25-.25.1-.55-.65-.15-.1-.05.55-.5.35-2.1 1.1-.55-.15.45-.25 1.45.15.45.55-.05.3-.55.25-.95.2-1.3.7-.35-.35 1.3-.05.7.35.35h.45q.4-.15.5-.8l.1-1.7.05-.35.7-.45zm-6.65 4.45-.2-.5-.05-.5.5-.05-.2.55zm17.45-12q-.25-.7.3-1.4v-.1q.75-.95 1.85-.85l.8.2.55.35.9.8.15.25.7.45.75.9.35.8.3 1.45-.2 1.6q-.2 1.1-1.05 2-1.05 1.05-2.2 1-1.3 0-1.9-1.15-.55-.9-.2-1.85l-.5-.55q-.7-1.05-.15-2.05l.15-.65-.15-.25zm-22.85-5.1q-.05-1.4-1-2.2l-.05.05-2.6.25-1.3-.15-.45.4q-.8 1-.55 2.35.4 1.6 1.9 2.2 1.45.6 2.8-.35 1.4-.95 1.25-2.55M18.1 4.6q-.7.4-1.1 1.1l.25.4.75 1.95.1.85v1.2l.1.05q.9.5 1.9.45.9-.1 1.75-.75t1.1-1.55q.25-1-.1-1.9-.25-1.05-1-1.7-.8-.55-1.9-.6-1-.05-1.85.5M24 29.2l-.05.1.1-.05z"/><path fill="#fff" d="m27.6 28.7.3-.05.25.1.1.25-.05.2-.35.25-.7.45-.05.35-.1 1.7q-.1.65-.5.8h-.45l-.35-.35.05-.7.35-1.3-.7.35-.2 1.3-.25.95-.3.55-.55.05-.15-.45.25-1.45.15-.45-1.1.55-.35 2.1-.55.5q-.5.1-.7-.2l-.1-.55.05-.5.2-.55-.5.05-.15-.1q-.4-.15-.4-.55-.05-.35.2-.65l.55-.2-.05-.25.4-.55 1.2-.9.1-.15-.25.5q-.9.45-1.15 1l-.1.3.1-.05 4.45-1.75.35-.2.8-.35zM18.1 4.6q.85-.55 1.85-.5 1.1.05 1.9.6.75.65 1 1.7.35.9.1 1.9-.25.9-1.1 1.55t-1.75.75q-1 .05-1.9-.45l-.1-.05V8.9l-.1-.85-.75-1.95-.25-.4q.4-.7 1.1-1.1m-1.95 11.95q.15 1.6-1.25 2.55-1.35.95-2.8.35-1.5-.6-1.9-2.2-.25-1.35.55-2.35l.45-.4 1.3.15 2.6-.25.05-.05q.95.8 1 2.2M24 29.2l.05.05-.1.05z"/><path d="m48.3 16.15-.3-.35-.05-1.2.35-1.35q-.25-.8-.2-1.2.15-.65.95-.85l1.25.25 1.15.65.25-.5v-.7q.1-.7 1.25-1.3 1.25-.65 4.1-1.15 1-.2 1.65 0 .9.25 1.3 1.1.4.9 0 1.75-.45.95-1.7 1.3l-2.15.3-1.85.05-.5.1-.85 1.35q-.5.6-1 .6l-1.2-.4-1.3-.8-.65 1.35-.3.65zm1.25 3.75-.25-.2-.2.05-.55.45-.55.35-.65-.1q-.25-.15-.15-.6l.35-.45 1.15-1q0-.7.65-.95l1.2.15.9.8q1.1-.65 1.7-.7l1.2.25 1.05.2 1 .3.8.85q.25.6.15 1.15-.1.6-.6 1.05-.45.45-1.05.5l-1.1-.2-1.8-1.05-.35-.15-.5.25-1.6.15-.45-.5z"/><path d="M25.7 25.4q-1.35-1.45-1.85-2.7-.65-1.6-.55-3.65l.05-.5-1.1-.35-1.1-.6-.95-1.1q-1.3-2.4-.55-4.8l.05-.1.15-.55q.45-1.3 1.3-2.25l.45-.55q.3-.3.9-.7 1.9-1.15 4-.7 2 .45 3.15 2l1.65-.6 5-.2.8.15.55-.8.65-.55Q39.9 5.6 42 5.7q2.1.15 3.55 1.6l.7.9q.45.75.55 2.2v1.2q-.1 1.65-1.25 2.9l-.55.55.5 2.35.1.4q.25 1.75-.35 3.5l-.55 1.35q-.65 1.55-1.85 3.1l-.9 1.05 1.8 2.1q1.4 2.1 1.65 4l.1.9.2-.1q.8-.4 1.65-.45.9-.05 1.55.4 1 .7 1.2 2.55l.2.8q.35.6 1.25.3l1.15-.75q.8-.65 1.7-.8 1.1-.15 1.8.45l.6.7.6.5q.55.25.65.4l-.35.65-1.15.2q-.65-.15-1.05-.6l-.45-.5-1 .1q-.15.1-.75.7-1.2 1.2-2.75 1.2-1.7-.1-2.6-1.45l-.6-1.7-.35-.5-.5.05-1.35.45q-.6 2.15-2.25 3.75-1.8 1.75-4.1 2.25l-3.4.2-2.65-.4-.25-.05-1.85.25q-.7-.15-1.8-.95-1.75-1.5-2.3-3.15l-.35-1.75-.05-1.75-.75.65-2.15 2.4-.3.5-.45.65q-.55.55-1.45.2-.75-.35-.75-1.2-.1-.75.7-1.2l1.25-.55 2-1.55-1.9.85-.8.35q-.7 0-1.1-.95l-.2-.9-.45.05q-1.05-.1-1.35-.85-.2-.65.25-1.45l.45-.55.9-.3q-.05-.45.15-.7l.55-.35 2.05-.9 3.05-1.05-1.1-.05-.65.15-.55.25-.75.05-.95-.2q-1-.45-.9-1.45-.1-.9.7-1.4.45-.3 1.15-.3.85 0 1.35.5l.5.5.55.15 1.05.5.45.2.75.2zm4.5-7.35.05.15-.15.05-1.55.55q-1.1.45-1.4.8-.3.3-.15.5l.4.1 2.7-.3-.1.25-.3.55-.3.4q-.2.35-.05.5l.65-.05.45-.55.95-.85q.7-.7.6-1.15l-.1-.2v-.45l-.35-.85-.5-.85-.45-.15-.45.2-.1.85zm9.45 2.55-1.05-.55h-.2v.15l-.1 3.35v.15l1.4-.05.55-.2.55-.3q.3-.3.2-.7l-.25-.55-.4-.6-.3-.4zm-7.5 5 1.15-.6-.05-.1q-1.1-2.1-1.45-4l-.4.35q-1.1 1.2-1.1 2.85 0 .95.5 1.4zm4-1.65 1-.15q.1-2.55.3-3.85v-.1l-.15-.2-.95-.1v-.15l-.25-.85-.4-.3-.35-.05q-.7 0-.85.6v.85h-.05q-1.15.2-2 .75l.05.1.85 1.65.85 1.65.35.65.65-.3zm5.75-11-1.95-.05q-1.05.25-1.7.95-.7.7-.9 1.75-.25 1 .1 1.95l.45.8.65-.05.4.05 3.1.2q.65.1 1.1.35l.7-.9q.5-.85.4-1.9-.05-1.05-.65-1.9l-.35-.4-.65-.5zM26.8 30.3l.45-1.3-.65.2-4.4 1.9-.25.2-.05.3.3 2.15 1.75-.8q1.4-.55 2.1-1.05l.4-.2zm-8.65-3.4q.45 0 .7.35l.15.3-.25.75q-.25.35-.7.25l-.3-.1-.3-.25-.05-.75.1-.25.25-.2zm6.4 12.75v.3l-.05.5-.1.45q-.35.75-1.1.45l-.45-.45-.05-.65q.15-.4.65-.75l.4-.35.5-.75.45-.1.05.45z"/><path fill="#fff" d="m41.9 12.95.7.35.65.5.35.4q.6.85.65 1.9.1 1.05-.4 1.9l-.7.9q-.45-.25-1.1-.35l-3.1-.2-.4-.05-.65.05-.45-.8q-.35-.95-.1-1.95.2-1.05.9-1.75.65-.7 1.7-.95zm-5.75 11-.95.2-.65.3-.35-.65-.85-1.65-.85-1.65-.05-.1q.85-.55 2-.75h.05v-.85q.15-.6.85-.6l.35.05.4.3.25.85v.15l.95.1.15.2v.1q-.2 1.3-.3 3.85zm-4 1.65-1.35-.1q-.5-.45-.5-1.4 0-1.65 1.1-2.85l.4-.35q.35 1.9 1.45 4l.05.1zm7.5-5 .4.3.3.4.4.6.25.55q.1.4-.2.7l-.55.3-.55.2-1.4.05v-.15l.1-3.35v-.15h.2zm-9.45-2.55-.15-.5.1-.85.45-.2.45.15.5.85.35.85v.45l.1.2q.1.45-.6 1.15l-.95.85-.45.55-.65.05q-.15-.15.05-.5l.3-.4.3-.55.1-.25-2.7.3-.4-.1q-.15-.2.15-.5.3-.35 1.4-.8l1.55-.55.15-.05z"/></g></svg>