<svg xmlns="http://www.w3.org/2000/svg" xmlns:ffdec="https://www.free-decompiler.com/flash" ffdec:objectType="shape" width="75.85" height="43.25"><g fill-rule="evenodd"><path fill="#999" d="m38.2 3.55.1 3.95-.5 3.55-.35.45q-.25 0-.35-.45l-.5-3.25-.2-1.9-.15-1.25-.35-1.85q-.1-.7.15-1.05l.45-.4.85-.15q.45.05.7.4l.25.45.05.85zM27.3 12.7q-.1.1-.45-.15-.95-1.05-1.35-2l-3.35-8.8-.2-.85q.05-.4.45-.7l.75-.15.65.6.25.9.65 2.4 2.65 8.25q.15.4-.05.5m18 2.65-.05-.4L43.3 2.1q-.1-.6-.4-.65l-.3.05v-.05l.05-.1.1-.05.1-.1.1-.1.2-.1.15-.05.1-.05h8.8l2 .05 4.7.05h2.9l2.55.05h1.45l.55.05.8.05h2.6L72 1.2h.45l.4.05.45.05h.45l.2.05h.3l.05-.05.2-.1h.3v-.05l.35.05.15.1.15.1.1.1.05.1.05.05.05.1.05.1.05.1v.8l.05.1v.65l-.05.1v1.25l.05.1v.2l-.05.05v6.5l.05.05V26.5l-.05.1v5.8l-.05.1v4.1l-.05.1v1.15l-.05.1v.9l-.05.1v.55l-.05.1v.25l-.05.1v.1l.05.1.05.1.05.05.05.1.05.1v.1l.05.1v.35l-.05.1v.1l-.1.05v.1l-.05.1-.1.1-.05.1-.15.05-.15.1-.1.05-.15.05-.25.05H53.6l-1.7-.05h-7l-.8.95-1.15-.15-.75-.85-.45-.05H40.6l-1.25-.05-.45.05-.3.05h-.1l-.4-.05h-.15l-1.35.8h-.8l-.65-.5-.05-.25 4.35-3.4 3.05-2.9q.45-.1.75.2.4.3.2.9l-.2.5-.05.45v.1q.1 1.25.5 1.7l1.8-2.95.8-.85q.65-.25 1.5.3l1.4.9q.15-2.45-.05-4.55 0-1.1.15-1.4.35-.65 1.2-.75l3.25 1.8 2.2 1.3 1.35.65.45-.1.1-.55-.35-.4-1.55-1.25-1.5-1.45-1.2-1-.6-1.7.3-.1L64 29.9l4.15 1.4.5.05q.35 0 .35-.3l-.4-.55q-2.15-1.2-5.1-2.3l-5.35-1.7-1.2-.35 5.05-1.3 10.95-2.3.55-.45q-.05-.3-.6-.3l-2.05.15L57 23.85l4.6-2.4 10.3-5.4q.55-.4.25-.6-.15-.15-.4 0l-19.2 7.85.35-.5 3.6-3.75 5.75-3.6q1.9-1.1 2.9-1.5l.35-.35-.25-.3-.45.05q-1.5.4-5.2 2.05l-7 3.35-.6-.4q-.2-.4.2-1.35l1.4-2.7 2.95-5.5q-2.2 1.4-6.2 4.6l-.95.6-1.05-.15q-.45-.35-.35-1.55l-.25-2.2-1.55 4.2q-.4.9-.9 1.05M40.95 7.8q-.5.1-.75-.45L40 6.5l-.35-3.2q-.1-1 .1-1.4.35-.7 1.1-.7.75-.1 1.1.6l.2 1-.1 1.1L42 5.55l-.25 1.2q-.25 1.05-.8 1.05m5.2 31.95h.05v-.1zm-13-30.25.15.45v.5l.15.6-.05.8.2.65-.3.2-.35-.1-.35-.65-2.35-9.55q0-.55.6-.9l1.05.15q.45.35.55 1.05l.1 1.25.4 1.7.15 2.8.1.55z"/><path fill="#fff" d="m42.6 1.5.3-.05q.3.05.4.65l1.95 12.85.05.4.1 2.35-.2 1.2-.6.7q-.35 0-.65-.5l-.45-1q-.35-.95-.55-2.45l-.8-10.6q-.1-1.7.15-2.85l.15-.55zm10 17.25 7-3.35q3.7-1.65 5.2-2.05l.45-.05.25.3-.35.35q-1 .4-2.9 1.5l-5.75 3.6-6.2 3.75q-1.2.65-1.8.4-.7-.25-.7-1.05-.05-.6.45-1.2l1-.65zm-.05 4.55 19.2-7.85q.25-.15.4 0 .3.2-.25.6l-10.3 5.4-4.6 2.4 13.85-1.9 2.05-.15q.55 0 .6.3l-.55.45L62 24.85l-5.05 1.3 1.2.35 5.35 1.7q2.95 1.1 5.1 2.3l.4.55q0 .3-.35.3l-.5-.05L64 29.9l-11.05-2.55-.3.1-1.1.4 1.25.95.45.35 1.2 1 1.5 1.45 1.55 1.25.35.4-.1.55-.45.1-1.35-.65-2.2-1.3-3.25-1.8-1.45-.8-1.2-.9q-.4-.55-.25-1.2.1-.5.5-.75l.1-.2.1-.6q.25-.75 1.75-1.4zM42.5 35.6l-3.05 2.9-4.35 3.4-1.2.9q-.75.55-1.25.4-.4-.15-.55-.6-.2-.4 0-.8l.6-.7 2.35-1.8 2.9-2.05 3.7-3q.3-.3.65-.45.45-.1.65.15.3.35-.05 1z"/><path d="m67.4 22-.95 1.2-1.1.7-1.05.45.95 1.85q.7 1.8.65 3.1-.1 1.75-1.2 2.8l-1.4.95-1.5.7-.4.05v1.15q-.15.85-.85 1.75l-.6.65-.9.5-2.3.2q-.75-.2-1.3-.85l-.6-.65q-.4-.4-.8-.2l-.35.35-.5.65.1 1-.1.4q-.2.25-.4.2-.3-.05-.3-.4l-.15-.55-.25-.35q-.2-.3-.1-.75l.3-.7.3-.45.75-1 .7-.25 1.95.2q.75.3 1.2 1l.95.05.9-.75.2-.8-.1-.25-2.45-.45q-2-.75-2.8-2.35-.35-.8-.45-1.8-.4-2.35 0-4.7l.3-1.3q.6-1.55 2.8-3.1l.95-.55q.15-1.4 1.2-2.65l-.45-.5q-.45-.5-.45-1.25l.2-1.6.35-.45.55-.45.8-.5 1.65-.1q.85.25 1.5.75l.35.35.3.8.15.9 1.05.15q1.25.35 2.05 1.05l.45.45.45-.1q.95-.1 1.65.6.55.55.7 1.45l.1 1.15q-.1.75-.65 1.3-.6.6-1.3.7h-.3l.5-.8q.15-.6-.15-1.05-.5-.75-1.4-.6-.95.2-1.05 1.1-.1.45.05.75l.85.75zm-4.9-1.15-.1.2q-.25.05-.65.25l-1.05.4q-.4.1-.6.35-.2.55.45.75l.95-.05.75-.2.15 1.35.5.3.3-.25.2-1.9-.05-.1.1-.4v-.05l.1-.15.35-.5.2-.35q.2-.35-.05-.65l-.6-.1zm-2.9-3.65q-.4.85.1 1.6.5.8 1.4.7.95 0 1.35-.85t-.1-1.6q-.5-.8-1.4-.7-.9 0-1.35.85m-7.2-2.9 1.7-3.15q-2 1.35-3.85 3.2l-.75.65q-.6.35-1 0-.3-.2-.4-1l-.4-2.55-.3 1.35-.75 2.3-.45.3q-.35-.05-.25-.65l.3-1.05 1-6.15q0-.35.25-.6l.5-.05q.3.05.45.3l.3 1.05q.25 2.5.8 4.5.95-1.05 2.8-2.45l2.95-2.35 1-.75q.85-.3 1.15.25.35.5-.2 1.45l-4.35 8.2q-.3.95-.75 1.15l-.75.05q-.4-.15-.5-.5-.15-.35.05-1.1zm-6.5 2.55q1.6.55 2.35 1.85.65 1.25.65 3.15-.15 6.05-6.1 11.9-5.8 5.65-13.2 8.2l-2.2.2-.9-.85-.1-.3-3.75 1.1q-5.8 1.3-14.9.1l-1.7-.05L4 42.6q-1.2.05-2.25-.85-1-.85-1.4-2.15L0 37.1l.1-2.5.25-3.45q.4-1.75 1.8-3.15L2 27.3q-.35-1.6-.35-2.55l.25-2.1.05-.35V21l.25-2.4q1.3-6.65 6.3-12.2 2.1-2.3 3.85-2.15.8.1 1.5.65t1 1.35q.6 1.45 0 3.3-.5 1.4-1.75 2.9L9.65 15.9 8.2 17.1q-1.35 1.3-1.85 3.4-.45 1.85-.15 3.95.25.95.45 1.15l.3.3 2.2.1 3.3.05q1.75-.2 3.7-1.35l1.5-.95.3-2.2q.3-1.35.95-2.6l-1.4-1.85-1.05-1.5-.4-.7q-.2-.5 0-1 .15-.55.6-.8l.8-.3 3.45-.55h1.15l.8-.1 2.35.1q2.15-1.25 4.75-1.9l5.4-.45 2.15-2.05.75-.7 2.1-1.4.9-.4 1 .25.7.9.15.85-.15 5.55.9 1.25q.8 1.2.95 2.45zm4.45 19.9-.1 1.3q-.3.8-.95.75l-.9-.6-1.75-2.1-.8 1.5-.2.3-.2.65-.35.75-.6.95-.55.2-.7-.3-.4-.7-.15-.45-.5-2.1-.1-.95q0-.5.4-.75l.6-.05.45.35.1.4.3 1.5.1.15.5-1 .9-1.4.4-.45q0-.35.25-.6l.2-.1v-.1l.45-.4.6.2q.3.3.2.75v.05l.95 1.25.05-1.6-.2-2.3q0-.65.3-1.65l.15-.45q.15-.4.65-.55.35 0 .55.4l.1.7-.05 2.2.2 1zM34 25.8l.7-.1 1.55-.6.65-1.7-.15.05-.9.2-.5.2-1.65.35-1.3.15-1.9-.45-.9-.1q-.45.1-.6.5-.15.3-.05.7l-.4.4q-.55.65-1.1.9l-1.3.35-.65.1-.6.2q-.4.3-.15.75l.6.25 1.55.2.65-.05.45-.25.5-.15.3-.2.55-.4.8-.85.25-.4 1 .25h.85zm-12.55-3.6q-.3.5-.2 1.1.05.6.45 1 .65.8 1.95.9l.95-.2.75-.65q.65-1 .6-1.95-.1-1.25-1.1-1.55-.85-.35-2.2.4zm16.15-2.95q.8-.5 1.5-.65l.9-.25.85-.65.35-.55q.1-.5-.35-.85-.6-.6-1.55-.4-.55.05-1.55.55l-2.25 1.2-2.3 1.75-.75.45-.1-.65-.15-.7q-.3-.4-.6-.25-.3.1-.4.7l-.1.8v.45l.1.4.2.5.3.6q.35.3.9.2l.3.25 1.75-.05 1.85-.4 1.25-.1.05-.1.7-.9-.55-.25-1.2-.25H36z"/><path fill="#fff" d="m67.85 21.75-.1.05-.35.2-.75-.1-.85-.75q-.15-.3-.05-.75.1-.9 1.05-1.1.9-.15 1.4.6.3.45.15 1.05zM59.6 17.2q.45-.85 1.35-.85.9-.1 1.4.7.5.75.1 1.6t-1.35.85q-.9.1-1.4-.7-.5-.75-.1-1.6m2.9 3.65.95-1.1.6.1q.25.3.05.65l-.2.35-.35.5-.1.15v.05l-.1.4.05.1-.2 1.9-.3.25-.5-.3-.15-1.35-.75.2-.95.05q-.65-.2-.45-.75.2-.25.6-.35l1.05-.4q.4-.2.65-.25zm-24.9-1.6-1.6.85h.75l1.2.25.55.25-.7.9-.05.1-1.25.1-1.85.4-1.75.05-.3-.25q-.55.1-.9-.2l-.3-.6-.2-.5-.1-.4v-.45l.1-.8q.1-.6.4-.7.3-.15.6.25l.15.7.1.65.75-.45 2.3-1.75 2.25-1.2q1-.5 1.55-.55.95-.2 1.55.4.45.35.35.85l-.35.55-.85.65-.9.25q-.7.15-1.5.65M21.45 22.2l1.2-.95q1.35-.75 2.2-.4 1 .3 1.1 1.55.05.95-.6 1.95l-.75.65-.95.2q-1.3-.1-1.95-.9-.4-.4-.45-1-.1-.6.2-1.1M34 25.8l-1.75.3h-.85l-1-.25-.25.4-.8.85-.55.4-.3.2-.5.15-.45.25-.65.05-1.55-.2-.6-.25q-.25-.45.15-.75l.6-.2.65-.1 1.3-.35q.55-.25 1.1-.9l.4-.4q-.1-.4.05-.7.15-.4.6-.5l.9.1 1.9.45 1.3-.15 1.65-.35.5-.2.9-.2.15-.05-.65 1.7-1.55.6z"/></g></svg>