<svg xmlns="http://www.w3.org/2000/svg" xmlns:ffdec="https://www.free-decompiler.com/flash" ffdec:objectType="shape" width="75.65" height="41"><g fill-rule="evenodd"><path fill="#999" d="M44.95 5.45q.05 1-.6 2.5-.75 1.8-.85 2.5-.2 1.2.15 2.4.4 1.25 1.3 2.1l1 .85 1.1.8q1.3.85 1.65 2.05l.1.4.6.4.55.35 1.15.2 2.45.2q.9-.6 1.75-.25.95.45 1.1 1.4.1 1.05-.65 1.6l-.75.4-1 .05-1.3-.05-1.65-.45-2.8-1.75-.55.6q-1.15 1.05-2.45.9-1.6-.2-2-1.6l-.2-.75-.45-.4q-2.35-1.75-3.45-3.85-1.35-2.4-1.2-5l.1-1.5-.4-1.3q-.6-1.8-.2-3.3l.35-1-.35-.3q-.7-.8-.55-1.9.15-1 1.1-1.6l.4-.15h5.85l.3.15.65.45.35.35h.05l.6-.05h.95V.85h1.3L50.6.9h5.25l2.1.05h.5l.15.05h.3l.35.05h1.65l.35.05h.2l.45.05h.75l.35.05h.4l.2.05h.15l.1.05h.1l.15.05.1.05h.45l.2.05h.4l.1.05h.15l.05.05h.15l.05.05h.1l.1.05h.45l.15.05h.35l.15.05h.1l.1.05h.2l.05.05h.15l.05.05h.3l.15.05h1.2l.1.05h.1l.15.05.15.05H70l.1.05h.4l.15.05.05.05.05.05.05.05v.25l-.15.15-.15.05-.4.05H70l-.1.05-.15.05h-.15l-.05.05h-.2l-1.2.05H68l-.2.05h-.2l-.1.05h-.05l-.1.05h-.15l-.05.05h-.25l-.3.05h-.05l-.3.05h-.35l-.15.05-.1.05h-.15v.05h-.25l-.25.05h-.15l-.6.05-.15.05h-.15v.05h-.1l-.25.05h-.4v.05h-.45l-.25.05h-.85l-.2.05h-1l-1.2.05h-.15l-.5.05h-.15l-.25.05h-2.15l-1.3.05H46.2v-.05h-.85V4h-.3l-.15-.05h-.25zM51 15.6h1.45l.6.05h.25l.05.05h.2l.4.05h.3l.4.05h.65l.3.05h1.1l.5.05h.25l.25.05h.6l.35.05h.3l.35.05h.85l.35.05h.35l.1.05h.15l.1.05h.2l.05.05h.2l.1.05h.15l.1.05h.25l.05.05h.1l.1.05h1.35l.3.05h1l.15.05h.05l.15.05.2.05h.4l.25.05h.3l.4.05h.65l.1.05h.1l.1.05h.2l.15.05h.1l.15.05h.25l.2.05h.3l1.35.05h.1l.25.05h.15v.05l.05.1v.05l-.05.05-.05.05-.25.05h-.2l-1.35.05H69l-.05.05h-.15l-.1.05h-.35l-.1.05h-.2l-.15.05-.2.05h-.55l-.5.05h-.05l-.25.05h-.55l-.15.05h-.15l-.05.05h-.1l-.05.05h-1l-.45.05H62.5v.05h-.1l-.1.05h-.15l-.25.05h-.15l-.1.05h-.15l-.1.05h-.15l-.05.05h-.25l-.1.05h-.2l-.3.05h-.5l-.35.05h-.75l-.25.05h-.8l-.25.05h-.1l-.45.05h-1.2l-.45.05h-.15l-.25.05h-.65l-.65.05h-.2l-.05.05-.75.05h-1.9l-.1-.05-.2-.05-.1-.05-.1-.1-.1-.05-.05-.05-.1-.05-.05-.05-.05-.05-.05-.1-.15-.15v-.05l-.05-.05-.05-.05v-.1l-.05-.05v-.1l-.05-.05v-.1l-.05-.1v-.55l.05-.05v-.15l.05-.05v-.05l.05-.05v-.05l.05-.05v-.05l.05-.1.15-.15v-.05l.1-.05.05-.05.05-.1.05-.05.1-.05.1-.05.15-.05.15-.05.1-.05.05-.05H51m22.4 2.3h2.25v2.55h-2.8l-.2-.05-.2-.05-.15-.05-.15-.05h-.05l-.15-.05h-.6l-1-.05-.25-.05H70l-.1-.05h-.35L69.4 20h-.15l-.25-.05h-.1l-.05-.05h-.1v-.05h-.2l-.6-.05h-.5l-.15-.05h-.1l-.2-.05h-1.1v-.05h-.25l-.1-.05h-.85l-.15-.05h-.15v-.05l-.3-.05-.05-.05-.05-.05-.05-.05v-.25l.15-.15h.15l.1-.05.05-.05h.1l.05-.05h1.25l.1-.05h.15l.95-.05h.2l.15-.05h.1l.5-.05h.6l.25-.05.1-.05.1-.05h.25l.3-.05h.15l.2-.05h.1l.15-.05h.15l.2-.05h1.05l.3-.05h.25l.2-.1h.1l.05-.05h.2l.1-.05h.65zm-18.3 9.25-.55-.35-.8-.7-.3-.55q-.05-.35.25-.6l.65-.05.45.35q.55.5 2.05.8l2.6.4.75-.2q1.35-.4 2.25.65.4.5.45 1.15t-.35 1.15q-.6.75-1.6.85l-1.85-.1q-1.75-.2-2.5-.9l-1.25-1.45zm-22.35 1.5-1.3-1.75q-1.15-1.25-2-1.45H28.3l-1.2.1q-1.25-.1-1.9-.95l-.25-.15-.1-.05H24l-1.15.05H19.9l-1.15-.05h-.25l-.3-.05h-.4v-.05h-.2l-.35-.05h-.2l-1.25-.05h-.6l-.25-.05H13.6l-.65-.05h-.3l-.05-.05h-.2l-.1-.05h-.1v-.05h-1.15l-.3-.05h-.5v-.05h-.1L8.5 23.8h-.3l-.15-.05H7.3l-.9-.05h-.65l-.1-.05H5.5l-.05-.05H5.3l-.65-.05H4.1v-.05h-.2l-.15-.05H3.6l-.15-.05-.15-.05-.2-.05h-.75l-.05-.05h-.25l-.25-.05-.1-.05-.1-.05-.05-.05v-.25l.05-.05h.05l.05-.05h.1l.1-.05h.35l.05-.05h.15l.35-.05h.35l.15-.05h.1l.05-.05h.15l.1-.05h.25l.15-.05h.35l.3-.05.7-.05h.15l.05-.05h.1l.15-.05h1.55l.6-.05h.45l.2-.05h1.45l.1-.05h.4l.25-.05h.15l.9-.05h.35l.05-.05h.2l.1-.05h.15l.15-.05h1.5l.7-.05h.25l.2-.05h1.65l.2-.05h.25l.1-.05h.1l.2-.05h.4l.25-.05h4.65l.1-1 .5-.9v-.05q-2.3-.3-3.85-.05l-1.85.35q-2.4.6-3.55 1.15l-2 .65q-1.1-.1-1.5-1-.4-1 .2-1.8.45-.6 1.7-1l3.8-.6h1.4l2.4.05 6.05 1q1.9.3 2.85.9l.4.65.5.1q2.25.65 3.8 1.9l1.8 1.9q1.85 2.25 2.25 3.6.35 1.1.35 2.9-.1 3.9-1.2 6.05-1.3 2.5-4.3 4.4l-.6.35H28.1l-.75-.9-.35-.85h-.4l-.4-.05h-.55l-.4-.05h-.4l-.35-.05-.15-.05h-.1L23.9 39h-1.55l-.25-.05h-.7l-.2-.05h-.05l-.1-.05h-.8l-.5-.05-.65-.05h-.85l-.6-.05h-.75l-.45-.05h-.15l-.8-.05h-.2l-.15-.05h-.75l-.1-.05h-.5v-.05h-.2l-.3-.05-.2-.05h-.4l-1-.05h-.3l-.65-.05h-.1l-.25-.05h-.25l-.4-.05-.25-.05h-.3l-.05-.05h-.1l-.2-.05-.1-.05H8.5l-.05-.05-.15-.05h-.15l-.05-.05H8l-.1-.05-.35-.05h-.4v-.05h-.2l-.1-.05H6.8l-.3-.05h-.15l-.05-.1v-.05l.05-.05.05-.05h.4l.05-.05h.1l.1-.05h.2l.05-.05h.25l.4-.05.15-.05h.15L8.3 37l.15-.05h.1l.15-.05h.15l.2-.05.1-.05h.05l.15-.05h.55l.25-.05h.1l.15-.05h.25l.25-.05h.6l.2-.05h1l.3-.05h.25l.1-.05h.1l.15-.05h.4l.4-.05h.2l.25-.05h.45l.2-.05h.8l.35-.05h.45l.5-.05h.9l.6-.05h.25l.4-.05h.75l.3-.05h.4l.2-.05h.25l.2-.05h.65l.65-.05h1.15l.05-.05h.1l.1-.05H25l.45-.05h.25l.25-.05h2.55l.15-.1q.85-.4 1.7-.35l.95-.05.65-.45q.85-1.15 1.05-3 .25-1.85-.25-3.05M11.4 10.1 9.85 8.75 9.45 8q-.6-1.45-.8-2.7v-.45q.05-.55.45-1l.95-.5q.55-.05 1.1.25.5.3.7.85l.1.85.25 1.85.15.6.15.65.75 1.5.25.25.05.35-.3.3-.8-.05zm6.7 4.85-.1.2-2.55.05-1.35.35-1.2.35q-1.25.4-2.35.9l-.95.4q-1.45.8-2.4 2.05l-.8.8-1.9.1q-1-.55-.9-1.7 0-.65.6-1.35l1.2-1 2.15-1.2q1.9-.75 5.25-.85l1.6.05 1.25.25.95.05z"/><path d="M28.3 20.05q-3.5-.9-5.3-2.65-1.7-1.6-2.1-4.05l-2.8-.3q-2-.65-3.05-2.5Q14 8.75 14.4 6.6l.3-.95.75-1.15q.8-.9 1.35-1.2l1.3-.45 2.7.15 1.45.8.05-.1q1.35-2.35 4.3-3.7h10.5q1.35.85 2.3 2.4 1.25 2.1 1 2.65-.3.5-.8 4.3-.45 3.75 1.2 5.85 1.6 2.1 2.65 2.6l.95.6q1.95 1.25 2.7 1.85 4 3.15 5.3 7.95.45 1.6.6 3.95l-.1 2.55.1-.1 1.85-1.95q.75-.9.95-1.9.2-.95 0-2.65-.25-1.9-.15-2.65.15-1.7 1.55-3.4 1.25-1.4 2.85-1.85 1.8-.5 3.2.55.7.55 1 1.4t.05 1.65q-.3.85-.95.7l-.4-.5-.3-.7q-.5-.75-1.45-.45l-1.3.85q-1.15 1.15-1.15 2.2l.35 1.55q.65 2 .1 4.2-.45 2.1-1.85 3.9-2.1 2.8-6.85 5.15l-.6.3H32.55l-.1-.25q-.7-1.85-.5-2.2l2.3-2.25q2.05-1.95 2.55-5.25.45-3.35-.45-5.75-.95-2.45-2.1-3.35-1.2-.9-2.35-1.1zm12.85-12.6q.4-2.05 1.25-3.15.75-1.05 2.5-1.85 2-.9 4.4-1.05l3.95.2Q66.5 3.15 72.9 4.8q1.6.35 2.75.95v9.4l-1.95.45-6.65.8-6.55 1.15-3.95.85-4.3.6-5.3-.55q-2.85-.85-4.35-2.9-2.45-3.15-1.45-8.1m13.4 2.35q-.25-1.55-1.25-2.4-1.25-1.1-2.85-.85-1.45.15-2.3 1.3-.9 1.05-.75 2.55l.3 1.15.3.65 1.4 1.35q.9.5 1.9.45.95-.05 1.8-.7.85-.6 1.25-1.5l.2-.7zM45.3 6.7q.4.55 1.3.65.65.05 1.35-.45.95-.9.55-2.05-.45-1.2-1.65-1.3Q45.6 3.45 45 4.6q-.55 1.15.3 2.1m-2.85 3.9q.4 1.1 1.55 1.35l1.6-.25q.75-.4 1-1.2.25-.75-.1-1.55T45.45 7.8q-1.3-.65-2.45.4-1.1 1-.55 2.4m5.3 2.6-1.55-.15-.95.75q-.65 1.15.1 2.2.85 1.05 2.1.6 1.15-.4 1.25-1.6t-.95-1.8m-6.4 16.1-.1.3.25.3.4-.05.95-.8.35-1.1.1-.55-.1-.8q-.2-1.1-.8-1.35-.45-.2-.8.15t-.3.8l.3.65.1.75q0 1.1-.35 1.7m3.5-2.15 1.45.3.95-.15q.65-.45.3-1.15-.25-.7-1.05-.5l-.5.2-.5-.1-.95-.3-.2-.6h-.25q-.3.45-.15 1.05l.35.65zm-.3 4.1q.3-.85.7-1.2.55-.5 1.3-.4h.55q.25-.15.1-.5l-.35-.35-1.9.05q-.8.25-1.25.65l-.55.6-.5.95q-.1.65.2.95.25.35.7.35t.65-.35zm-9.6-17.5q-.05-.7-.7-1.15l-.5-.2v-.05l-.2-.45q-.2-.2-.55-.3l-.25.05-.1.1q-.2.1-.25.2v.6l.1.25q-.3.35-.3.95 0 .85.5 1.3.6.6 1.35.3l.65-.65zm-2.55-6.2q1.2.85 2.6.65V6.35q.2-1.1.5-1.85l.5-.75q.5-.85 1.1-1.25l.1-.05Q36.4 1.4 35 1.2l-1.9.25q-.9.4-1.45 1.2-.8 1.15-.65 2.45.15 1.45 1.4 2.45m-6.1.9h-.25l.3-.6.25-.55-.25-.7-.7-.1-.3.4q-.25.4-.35 1.05v.5l-.75-.15-.65.1q-.45.25-.25.7.15.5.65.4l.5-.15h.45l-.15 1.1q-.1.6.05.85h.2l.65-2 .3-.15.45.05h1.05l.4-.15-.3-.4H27zm2.3 8.85.9-.55-.05-.1-.1-.55.05-.4v-.8l.3-1.25.45-1 .2-.2-.3-.5q-.6-.8-1.55-1.15l-.4-.1-.15.35-1.55 3-.55.7-.85.6-.85.35.2.3.7.8q1.65 1.25 3.55.5m7 10.55q.8 3.25-1.35 6.25t-5 3.85l-5.3.55-4.3-.6-3.95-.85-6.55-1.15-6.65-.8-2.2-.55-.3-.15v-8.8l.1-.1q1.25-.75 3.2-1.2 6.4-1.65 19.65-3.2l3.95-.2q2.4.15 4.4 1.05 1.75.8 2.65 1.75.85.9 1.65 4.15"/><path fill="#fff" d="M47.75 13.2q1.05.6.95 1.8t-1.25 1.6q-1.25.45-2.1-.6-.75-1.05-.1-2.2l.95-.75zm-5.3-2.6q-.55-1.4.55-2.4 1.15-1.05 2.45-.4.7.35 1.05 1.15t.1 1.55q-.25.8-1 1.2l-1.6.25q-1.15-.25-1.55-1.35m2.85-3.9q-.85-.95-.3-2.1.6-1.15 1.85-1.05 1.2.1 1.65 1.3.4 1.15-.55 2.05-.7.5-1.35.45-.9-.1-1.3-.65m9.25 3.1v1.3l-.2.7q-.4.9-1.25 1.5-.85.65-1.8.7-1 .05-1.9-.45L48 12.2l-.3-.65-.3-1.15q-.15-1.5.75-2.55.85-1.15 2.3-1.3 1.6-.25 2.85.85 1 .85 1.25 2.4M32.4 7.55q-1.25-1-1.4-2.45-.15-1.3.65-2.45.55-.8 1.45-1.2L35 1.2q1.4.2 2.2 1.25l-.1.05q-.6.4-1.1 1.25l-.5.75q-.3.75-.5 1.85V8.2q-1.4.2-2.6-.65m2.55 6.2-.25.95-.65.65q-.75.3-1.35-.3-.5-.45-.5-1.3 0-.6.3-.95l-.1-.25v-.6q.05-.1.25-.2l.1-.1.25-.05q.35.1.55.3l.2.45v.05l.5.2q.65.45.7 1.15M28.6 17.3q-1.9.75-3.55-.5l-.7-.8-.2-.3.85-.35.85-.6.55-.7 1.55-3 .15-.35.4.1q.95.35 1.55 1.15l.3.5-.2.2-.45 1-.3 1.25v.8l-.05.4.1.55.05.1z"/><path fill="#999" d="m44.55 31.25-.35.75q-.2.35-.65.35t-.7-.35q-.3-.3-.2-.95l.5-.95.55-.6q.45-.4 1.25-.65l1.9-.05.35.35q.15.35-.1.5h-.55q-.75-.1-1.3.4-.4.35-.7 1.2m.3-4.1-.55-.6-.35-.65q-.15-.6.15-1.05h.25l.2.6.95.3.5.1.5-.2q.8-.2 1.05.5.35.7-.3 1.15l-.95.15zm-3.5 2.15q.35-.6.35-1.7l-.1-.75-.3-.65q-.05-.45.3-.8t.8-.15q.6.25.8 1.35l.1.8-.1.55-.35 1.1-.95.8-.4.05-.25-.3zM26.3 8.45l.7.2h.6l.3.4-.4.15h-1.05L26 9.15l-.3.15-.65 2h-.2q-.15-.25-.05-.85l.15-1.1h-.45l-.5.15q-.5.1-.65-.4-.2-.45.25-.7l.65-.1.75.15v-.5q.1-.65.35-1.05l.3-.4.7.1.25.7-.25.55-.3.6z"/></g></svg>