<svg xmlns="http://www.w3.org/2000/svg" xmlns:ffdec="https://www.free-decompiler.com/flash" ffdec:objectType="shape" width="74.2" height="39.65"><g fill-rule="evenodd"><path fill="#999" d="m67.95 3.5.2 1.2q.1 1.6-.9 2.15l-1.15.3-1.8-.25-1.3-.55q-1.95-.75-5.2-1.05L56.65 5q-.95-.55-.6-1.75.2-.85 1.2-1.5 1-.6 3.05-.9l3.8-.3 1.2.25.95.6.3.25-.5.25-.35 1.05-.2.6q-.1.9.75 1.15.75.25 1.3-.45l.35-.75zm-7.1 19.9q-1.3-.25-1.85-.9-.3-.4-.5-1.2l-.3-1.3q-.5-1.4-1.9-1.9-1.1-.35-1.35-.65-.5-.6-.15-1.3.2-.6.9-1.05l.15-.1h-.1q-.6-.1-1.1-.6-.4-.5-.5-1.1-.05-.65.25-1.3.35-.6.95-.85 1.4-.5 2.3.55.9 1.1.25 2.35l-.1.15 3.1-.25 1.05.05 1.05.3q2 .65 2.9 1.5l1.25 1.65.55 1.6-1.05.25-.45.25-.3.5q-.2.55.1.85l.3.2-.45 1.15-1.25.9-.05.05q.55-.4.55-.85 0-.3-.4-.7-.55-.5-1.35-.4-.75.1-1.4.55-.8.6-1.05 1.35zm-6.5-20.75q.25.7-.15 1.25-.5.55-1.2.4-.3 0-.6-.3-.3-.25-.35-.7-.05-.5.15-.85.45-.65 1.15-.55.75.1 1 .75m-8.7 19.7q-.1-.55.05-.95.25-.6.8-.85l1.2-.1q.5.15.8.6l.3.95-.35.95-.8.55h-1l-.75-.65zm6.25-7.3-.3-.1-.4-.25q-.15-.15-.15-.45l.1-.65q.15-.3.55-.3l.2-.05q.6 0 .8.65l-.05.65-.45.4zm-7.25 19.1q-.55-.55-.75-1.35-.25-.95.25-2.1.3-.8 1.15-1.85l.8-1.15-.05-1.75q-.1-1.2.55-1.6l1.55-.1q1.5.4 2.1.8l1.1 1 .55.85.1.65.55.75.35.6q.65 1.45.5 2.9l-.1.7-1.35-.5-1.65.1-.6.6-.15.4-.15-.65q-.35-.5-.85-.65l-1.05-.15q-.95 0-1.65.35-.75.4-1.15 1.15-.2.6-.05 1m5.2-.25h-.75l.45-.75.05.35zm-1.75.3q-.45.5-1.1.65l-1.3-.1 1-.45 1.2-.1zM30.05 3.4l.05.6q-.15.75-.95.85T28 4.15q-.25-.75.4-1.25l1.3.05zm-14.8-1 2.25-.65 2.9-.3 1.25.3q2.9.8 5 2.55l.65.65q.25.45.1 1t-.6.8l-1.2.05-1.35-.6-1.15-.15-2.55.3q-.7.35-1.8 1.45-1.2 1-2 1-.95.1-1.7-.65-.6-.65-.6-1.7l-.05-.9q.9.05 1.3-.7.4-.55.1-1.5l-.4-.8zM.6 28.9q-.75-.65-.6-1.6.2-1.15 1.65-1.85l-.15-.25-1.05-.9-.35-1.1q.05-.6.45-1 .9-.85 2.4-.15.65.3 1.05.8.55.6.75 1.6l1.8-.15 2.3.35.05-.05 1.95-.15q1 .2 1.65.9l.8.05q1-1.6 1.65-2.25 1.2-1.1 2.5-1.1l.6.05v-.25q0-1.6 1.15-2.9l1.05-1.05 1.15-.9.1-.05.1-1.3.15-.55.45-.6.7-.65q.4-.35.95-.5 1.05-.45 1.8-.5h1q.6.15.75.7.2.4-.15.95l.7.15q.5.3.5.75-.05.45-.5.7l-.3.15v.5l-.45.55-.65.1-1.05.4.15 1.15.15.3-.05.3v.1l.35.05q.85.15 1.25.7l.95-.35 1.15-.15 2.3.25 1.1.5q.8.65.7 1.85l-.85 1.85-1.25 1.15-.75.4-1.15.25-1.8.15-1.2-.05-.4-.1q-.9.9-2.3.75h-.15l-.6.6-.4.3-1.3.8-.1.45-.45 1.3-1.55 1.4-.45.4-.2.6-.3.65-.7.65-.75.55-1.1.5-.4 1.65-.1.3q.2.35.05.75-.15.75-.85.9l-.7-.1-1.55-.1-2 .15-5.4.35-2.7-.3q-.5-.35-.95-1.55Q.65 35.4.35 32.3q-.2-2.2.2-3.2l.1-.15zm8.6-7.85.2-.65q.4-.75 1.35-.95l1.1.2q1.05.6.95 1.7-.1 1.15-1.1 1.6-1.05.4-1.9-.35-.7-.55-.6-1.55m30.6 3.9-.05.25-.2.3-.55.05h-.1l-.25-.25v-.1l-.05-.15v-.15l.2-.4.4-.1v-.05l.5.3zM24.4 28.9q1.25.25 1.9 1.35.65 1.2-.05 2.3-.45.75-1.5 1-.9.15-1.75-.3l-1.1-.95q-.6-.95-.2-2t1.5-1.35zm3.9 1.5q-.4.15-.8-.25l-.25-.45v-.25l.2-.5q.3-.35.8-.35l.7.45.15.4-.25.65z"/><path fill="#fff" d="M66.55 1.65h.5l.6.1.55.35q.4.4 0 1l-.25.4h-.05l-.35.75q-.55.7-1.3.45-.85-.25-.75-1.15l.2-.6.35-1.05zm1.15 17.4.1-.05q.85-.1 1.05.75l-.05.7-.5.5-.8.15-.75.05-.45-.05-.3-.2q-.3-.3-.1-.85l.3-.5.45-.25zm-3.15 4.15-1 .5-.2.25.05.35-.15.75q-.25.4-.65.45-.95.25-1.5-.65-.45-.65-.25-1.45l.05-.25q.25-.75 1.05-1.35.65-.45 1.4-.55.8-.1 1.35.4.4.4.4.7 0 .45-.55.85M53.3 32.5l.8.65q.4.5.4 1.15 0 .7-.45 1.1l-.75.25-.6-.35-.55-.55-1.4-.45-.9-.4-.25-.4-.05-.35-.45.75-.1.05-.9.25h-.2l-1.2.1-1 .45h-.3q-.5-.05-.75-.6-.15-.4.05-1 .4-.75 1.15-1.15.7-.35 1.65-.35l1.05.15q.5.15.85.65l.15.65.15-.4.6-.6 1.65-.1zM14.4 5.55l-.6-.15-.65-.2-.6-.25q-.45-.45.05-1-.45-.75-.15-1.35.2-.55 1-.75l1.3.25.5.3.15.15.4.8q.3.95-.1 1.5-.4.75-1.3.7"/><path d="m71.1 1.4 1.25.75 1 .95.65 1.4q.3.95.2 1.5l-.3.8-.45 1.05-.8.75-1 .55-3.2-.2-.8-.35-1.15.05-1.7-.25q-.85-.35-1.1-1.2l.05-1.35.05-.75.35-.65.05-.05-.45-.75q-.15-.45.05-1.1.15-.85.65-1.5 1-1.2 3.05-1l1.35.3.75.8zm.45 4.9.3-.85-.1-.55-.3-.85L71 3.6l-.3-.55-.7-.5-.65-.25-.5.1-.45-.25-.4-.3-.7-.1-.9.15q-.45.25-.6.65-.05.3.2.85.9-.8 2.15-.85 1-.05 1.85.5.85.6 1.15 1.5l.2 1.5-.05.55zM55.6 3.35l1.9-.55 3.4-.4q1.05.1 1.45 1 .4 1-.25 1.75-.65.8-1.65.55l-.75-.3-1.65-.2-.8.15-.7.05-.8.15-1.6.3-.65-.05-.05-.4.2-.35.1-.35.35-.35q.75-.65 1.5-1M54.4 16h-.9q-.2 0-.3-.15-.15-.2.2-.45.2-.3.55-.45l1.25-.65 1.4-.3 2.1.05 1.5.4 1.35.45.4.5.4.75q.35 1.1-.6 1.85-.9.75-1.9.15l-1-1-.25-.25-.25-.15q-1.65-.75-3.4-.9h-.25zm12.35 1.8 1.15.05q1.35.25 2.15 1 .45.45.55 1.05.15.65-.1 1.15 1.45 1.6 1.1 3.95-.4 2.2-2.3 3.4-1.05.75-2.25.8l-1.8-.4L64 28q-.65-.55-.6-.95-1.55.15-2.8-.7-.7-.35-.95-.95l-.2-.9q0-1.4.4-2.4.35-.9.95-1.3l.3-.15q.25-.35.85-.5l1.65-.2.5-.1.3-.4q.45-1.05 1.55-1.1.25-.35.8-.55m-5.05 4.85-.3.55-.15.9q0 .35.15.55l.35.2.15.05.05-.65q.1-.7.35-1.15.4-.65 1.05-.85l.55-.25.15-.1-1.25.1-.7.3zm7-2.4q0-.5-.75-.7l-.8-.25-.45.35q-.5.25-.6.35l-.2.4q.15-.2.35-.25l.6-.05q1.25 0 1.7.55l.05.05zm-34.15 3q-1.35.6-2.5.45-1.45-.25-2.05-1.3l-5.4 3.1q-1.6 1-2.6 1.15-1.75.3-2.6-.9-.6-.8-.4-2.1.35-2 2.05-3.6 1.2-1.2 3.45-2.45l.6-.6-.25-.95q-.45-1-.15-2.2.35-1.15 1.2-2 1.1-1.1 4-2.3.15-3.55 3.7-6.3 3.65-2.9 8-2.9 2.2 0 4.25.85t3.55 2.4q1.5 1.6 2.2 3.7.65 2.15.25 4.25-.35 1.6-1.35 3.45-2 3.75-5.1 5.8-3.65 2.4-7.45 1.95l-1.85-.1zm11.5-18q-2.25-1.55-5.1-1.3Q37.2 4.2 34.7 7q-1.3 1.4-1.5 2.9l-.05.4.1.65q.35-1 1.85-2.5 2.05-1.9 3.8-2.75 2.45-1.15 4.55-.65 1.25.3 2.8 1.3 1.45 1.05 2.1 2.1-.5-1.9-2.3-3.2m3.8 23.2q-.4 1-1.5 1.1-1.05 0-1.55-.95l-.2-1.8q-.1-1.75-.95-3.15l-.35-.7q0-.4.4-.65l.8-.15q.6.15 1.3 1.05l1.2 1.4.8 1.3.2 1.45zM46.5 39.6q-1.6-.1-2.7-.6l-1.4-.95q-.75-.8-.85-1.55-.1-.85.5-1.6l.6-.8.1-.9q.1-1.6 1.5-2.5 1.25-.8 2.9-.65 1.6.2 2.35 1.15 1.4-.6 3.45-.05l1 .45q.75.45 1.2 1.6l.2 1.2q0 1.15-1.05 2.75l-.55.8q-.7.75-2.35 1.25l-2 .35zm7.35-4.95-.1-.7-.4-.7q-.5-.55-1.7-.65l-1.1.1h.5q1.15 0 1.85.65.8.6.9 1.45zm-6.1-2.4-.5-.2-1.4.2q-.7.2-.9.7-.1.25-.05.7l.05-.05 1-.3.8-.4 1.3-.4zm-25.3-30.7L24 1.6q.7.15 1.6.9.7.5 1.2 1.1l.9 1.65.4 1.4q0 .65-.3.9l-1-.1-.7-.85q-1.2-1.8-3.2-1.9l-2.55-.05q-1-.5-1-1.6.1-1.15 1.15-1.5l.95-.1zm8.3 11.05q-1.55.4-2.6 1.45-.35.35-.4.6v.05l.95.35q.2-.65.95-1.3l1.2-.9.2-.05.35-.3zM10.65 1.5h.75l.55-.5q.45-.4 1.5-.4l1.8.05q1.05.25 1.55.9.4.5.45 1.4l-.05 1.5.05.45.15.35.5 1.7-.35 1.1-.85 1.05-.85.45-1.85.3-.8.05-.8.7q-.5.45-1.6.9l-1.1.3-1.95-.35-1.3-.65-.6-.85q-.35-.6-.35-1.15l.4-1.5q-1.05-.6-1.05-1.75l.25-1Q5.7 2.95 7.3 2q1.55-.8 3.35-.5m4.8 2.1q.1-.7-.3-1.05l-.75-.15h-.6l-.55.1-.05.1.65.15q.65.2 1.1.75l.45.6zm-7 .1-1 .9-.35.55-.1.3.25.3.3.2.05-.15.2-.45.35-.55.55-.6.75-.5.3-.25zm5.3 19-.05.5.45.25.15.05q-.15-.55.05-1.15l.3-.65zm-2.05 1.4q-.15-.25-.05-.65l.05-.9.1-.4.4-.7.4-.5 1.25-1.1q.6-.45 2.35-1.2l.6-.2h.65l1.55.2q.4.1.6.45l.15.55.05.9-.75 1.45-.65.75-.7.6-.4.55q-1.15 1.4-2.35 1.85-1.15.35-2 0-1.05-.5-1.2-1.5zm3.5 4.75q.65.6.35 1.95-.4 1.55-1.8 2.45l-1.2.55-2.35.15-1-.65q-.45-.5-.4-1.1 0-.7.7-1.4l1.2-1 1.55-1.2 1.55-.3q1 .1 1.4.55m-4.65 3 .3.3q-.05-.4.05-.75zm15.6-5.05q-.15-.6.3-1.2.35-.4.85-.55l1 .1.75.75.1 1q-.1.5-.55.8l-.95.35q-.5 0-.95-.35t-.55-.9"/></g></svg>