<svg xmlns="http://www.w3.org/2000/svg" xmlns:ffdec="https://www.free-decompiler.com/flash" ffdec:objectType="shape" width="72.8" height="40.6"><g fill-rule="evenodd"><path fill="#999" d="M63.35 12.35q.9.35 1.4 1.1.3.55.25 1.2l-.25.85v.6q0 1.55-1.4 2.95-.7.75-2.7 1.9-6.8 4-8.35 5.15l-1.9 1.15-2.15-.2q-.65-.5-.75-1.4l-.05-.85-.15-.35q-1.05.65-1.75.4-.45-.1-.7-.6-.25-.45-.05-.9l.7-.9.2-.15 6.05-4.3h.1l1.05-.8 3.4-2.45.95-.8q1.65-1 3.1-1.45l2.4-.3zm-17.8 7.8-7.25.75.9 1.05 2.95 3.3 1.3 1.3.75 1.25 1.5 1.75 1.5 1.7.35.6q.1.35-.2.65l-.5-.1q-.7-.1-1.5-.75l-1.3-1.3-7.8-6.15-.05.9-.25 4.4-.05 1.8-.3 1.5-.15 2.25-.15 2.3-.15.65q-.25.35-.6.3l-.35-.35q-.4-.65-.45-1.65v-.25l1.1-5.8.05-1.5-.2-.4q-.4-.5-1.1-.55l-.95.15-.15.1v-4.6l-8.75 6.9-1.3 1.3q-.75.65-1.45.75l-.55.1q-.3-.3-.15-.65l.3-.6 1.5-1.7 1.55-1.75.75-1.25 1.3-1.3 2.95-3.3.9-1.1L18.8 19.7l-1.75-.1q-1-.05-1.65-.45l-.35-.35q-.05-.35.3-.6l.65-.15 2.3-.15 2.3-.15 1.45-.3 1.8-.05 4.4-.25.85-.05-6.75-8.45L21.1 7.4q-.65-.75-.8-1.55-.2-.25 0-.45.2-.35.55-.25l.6.35 1.75 1.55 1.7 1.45 1.3.85 1.3 1.3 2.8 2.5.25 4.25q.1.8.3 1 .3.5 1 .45.6-.05.8-.7l.05-.9-.3-2.25h.05L33.7 3.75 33.75 2q.05-1 .45-1.65.1-.3.35-.35.35-.05.6.3l.15.65.15 2.3.15 2.25.3 1.5.05 1.8.25 4.4.1 1 .75-.65 3.25-2.9 1.3-1.3 1.3-.85 1.7-1.45 1.7-1.55.65-.35q.35-.1.6.25v.45L46.7 7.4l-1.2 1.25-5.4 6.8.2.05.8.55q.45.45.5 1.2l2.95.15 1.8.05 1.5.3.25.05h.25L47 19l-1.15 1.1zm-5.25-5.5q.4-.5.25-.85l-.45-.4-.6.05q-.8.2-2.05 1.35-.45.35-.55.7t.1.7l.65.4q.3.05 1.4-.7l.55-.45zm1.6 19.3.2.55-.1.65-.4.8-.8.25q-.8 0-1.3-.5-.5-.55-.4-1.3.25-1.1 1.25-1.25t1.55.8m-30.75-10.4-.6-.25q-.95-.4-1.15-1.45-.1-.5.1-1.4l.4-1.9q.55-1.3 2-1.3 1.45.1 1.95 1.4.25.55.15 1.5v.3l.25.3q1.8 1.45 3.1 3.05l.75 1.1q.3.75 0 1.3-.35.75-1.2.85l-1.5-.3-1.3-.9-2.05-1.7zM21.5 35q-.05-.95 1.15-1.5l1.65-.6 1.7-.1q.95.2 1.35.95.15.5-.05.85l-1.05.7-1.65.55-1.8.3q-1.2-.1-1.3-1.15"/><path fill="#fff" d="M48.1 17.8q1.8-1.55 4.55-3.55 2.35-1.7 3.85-2.5 2.25-1.15 4.3-1.25l1.8.25q.95.45 1.1 1.35l-.35.25-.6-.15-2.4.3q-1.45.45-3.1 1.45l-.95.8-3.4 2.45-1.05.8h-.1l-6.05 4.3-.2.15-1 .15h-.1l-.1-.35V22l.05-.15q.35-.8 1.2-1.7l.3-.05L47 19l1.35-1.2zm-7.8-3.15-.7.8-.55.45q-1.1.75-1.4.7l-.65-.4q-.2-.35-.1-.7t.55-.7q1.25-1.15 2.05-1.35l.6-.05.45.4q.15.35-.25.85"/><path d="m72.35 1.05-.85.7-2.2 2.05-3.5 2.65-.8.45q-.65.15-1-.4-.4-.55-.15-1.1l.7-.75q2.5-1.8 4.15-2.65l1.6-.8 1.5-.9q.25-.2.45-.25.35-.05.5.15l-.05.5zm-38.6 35-.15.5-.2.65-.9 2.5-.25.9H30.7v-.2l.2-4.4.9-6.3q.05-.75.4-1.3l.3-.35.15-.1.95-.15q.7.05 1.1.55l.2.4-.05 1.5zm-3.45-22.9v-.6l.1-1.8L30.35 9l.05-.55q.1-.35.35-.35.3 0 .4.25l.15.5.2 1.1.65 2.95.25 2.1.3 2.25-.05.9q-.2.65-.8.7-.7.05-1-.45-.2-.2-.3-1zm21.5-10.8-.6 1.6-1.3 4.15-2.55 5.85-.75 1.15q-.7.65-1.5.25-.9-.4-.95-1.25-.1-.45.35-1.5 1.85-4.05 3.3-6.3l1.45-2.15L50.5 1.9l.45-.65q.4-.35.7-.15.4.25.3.6zM68.35 36.8l-1.6-.6-4.15-1.3-5.85-2.55-1.15-.75q-.65-.7-.25-1.5.4-.9 1.25-.95.45-.1 1.5.35 4.05 1.85 6.3 3.3l2.15 1.45 2.25 1.25.65.45q.35.4.15.7-.25.4-.6.3zM13.4 5.55l1.4.95 3.7 2.35 4.95 3.95.95.95q.45.9-.15 1.55-.6.8-1.5.6-.45-.05-1.3-.7l-5.3-4.8-1.7-1.95-1.8-1.85-.55-.6q-.2-.4.05-.7l.7-.1zM1 5.1l.9.6 2.55 1.65 3.45 2.7.65.7q.25.55-.15 1.05-.4.55-1 .35-.3.05-.9-.45L2.85 8.4l-1.2-1.35-1.2-1.2-.4-.4q-.15-.35.05-.5l.45-.1zm-.1 32 1.25-1.05L5.4 33.1l5.1-3.8q.6-.5 1.2-.65.95-.2 1.45.55.6.8.2 1.6l-1.05 1.05q-3.65 2.6-6 3.85l-2.35 1.15q-1.35.7-2.2 1.3l-.7.35q-.5.1-.7-.2-.2-.4.05-.7z"/><path d="M57.7 22.3q3.55-2.1 4.7-3.35 1.1-1.05 1.35-2.25.35-1.4-.35-3.05-.95-1.9-2.4-2.3-1.55-.4-3.65.6-3.1 1.55-7.15 5.7l-5.1 4.85.5.1.85.3 1.1.15q.75.1 1.5.55.95.55 1.15 1 .25.55.05 1.05l-.65.85-.4.55zm-16.1.9.6-1.1q4.4-6 8.05-9.8 2.7-2.85 5-4.1 3.2-1.8 6.2-1.2 3 .55 4.8 3.2 1.75 2.25 1.8 5.55.05 1.6-.5 2.85-.55 1.55-2.35 3.25-2.65 2.55-7.75 5.25-6.9 3.7-8.3 4.55-2.1 1.4-3.25 1.05l-1.1-.9v-.05l-.2-.2q-.5-.4-.4-1.1l.45-1.15 1.65-3.05-1.85-.3-1.85-.05q-1.05-.4-1.2-1.6 0-.5.15-.85zm-5.45-3.9-.9-2.8-.15-1.3q.1-.45.9-1.25l1.05-.9 2.2-1.55q1.5-.9 2.25-.75.8.15 1 .75l-.15 1.35-.25.8q-.65 2.6-1.2 5.85l-.3 1.2-.35.55-.9.85-1.2.15q-.65-.2-1.3-1.5zM39 18.2l.85-3.75-1.8 1.45.3.8zm5.05 20.1q-.55.3-1.85 0l-1.05-.25Q39 37.45 38 36.9l-.85-.8q-.45-.8.15-1.9.75-1.6 2.9-3.5.65-.55 1.05-.7.95-.35 1.55.35l.3.6 1.75 4.45.1 1.2q-.05 1.25-.9 1.7m-3.8-3.4 2.25.45-.8-2.1-.65.65-.15.3zm-28.7-13.25q1-.35 1.7.35l.4.45.7.65 1.25 1.2 1.15 1.25q.2.45.4.3.2-.65.9-1l.8-.2-.45-.45-2.7-2.65q-1.15-.95-1.35-1.55t.1-1.35l.5-1.3.05-.75q-.3-.3-.95 0-1.6.9-2.75 2.45-1.1 1.6-1.4 3.4.6-.05 1.65-.8m-2.25 4.6q-1.85 0-2.8-1.35-.85-1.1-.65-2.7.15-1.15.8-2.75.9-1.9 1.5-2.75l1.15-1.2q1.4-1.45 2.7-2.05 1.6-.95 3.2-.65 2.05.3 3.05 2.05 1.05 1.65.35 3.6-.2.5-.1.65l.25.45 3.8 4.65.65.7.15.15q.75.6.6 1.65-.15 1-1.05 1.35l-1.45.1-1.85-.1-.6 1.3-.9 1.05q-.8.4-1.75-.2L15 28.95l-2.15-2.7-.6-.75q-1.55.8-2.95.75m18.85 4.35q.45.35.45 1.15l-.05 1.3.25 1.05q.1.9-.5 1.45l-.75.3-4.2 1.55-2 .65-1.4-.15q-.8-.45-.55-1.5.1-.55.8-1.5l1.7-2.45 1.35-1.8L24 30l1.6-.15 1.55.35q.75.1 1 .4m-3.85 1.95-.15.05-.05.15-.95 1.85 3.1-.85-.1-1.05z"/></g></svg>