<svg xmlns="http://www.w3.org/2000/svg" xmlns:ffdec="https://www.free-decompiler.com/flash" ffdec:objectType="shape" width="75.85" height="41.55"><g fill-rule="evenodd"><path fill="#999" d="M41.85 16.75q.05 1.9-.7 3.3-.65 1.2-1.85 1.95l.05.8.1.45.35.25q1 .35 1.35 1.4l.15.7.1 1q-.1.95-1.35 2.1.25.35.15.85l-.4.75-.4.2h36.2v10.1H1.8V30.5h21.55l-.05-.3.1-1.05.4-.7q.75-1 2.2-1.7l2.65-.95.35-.1.25-.45 1.1-1.05.6-.45.1-.45.15-.6.3-.6-.8-.6q-.85-.75-1.25-1.75-.45-1.05-.35-2.15.05-.6.4-1.5.3-.8.55-1.15l.3-.4-.35-.5-.05-.75.05-1 .55-1.1.2-.6.3-.6q.2-.3.65-.4.4-.05.75.25l.45.55.55 1 .4.55 3.75-.1.15-.2 1.35-1.45.7-.75h.55l.45.35.2.65.25.95.2 1 .05.65.1.5-.05.4.05.4.05.5V15zm-5.6 4.95.2.2.3.2.35-.25v-.5l-.35-.5-.1-.15.1-.2q.15-.45-.05-.8-.25-.3-.6-.25-.35 0-.45.35l-.25.65q-.2 0-.3.1l-.35.25-.3.3-.3.35.1.2q.1.2.4.2l.45-.1.2-.2.4-.1.4.05h.05zM30.8 18q-.1.5.15.95.4.5.8.55l.95-.1q.85-.5.65-1.4-.25-1.05-1.3-1.05l-.75.3q-.4.3-.5.75m8.45-.35-.1.05q-.7 0-.85.65l-.05.45.05.4.4.35.7.25.45-.2q.6-.55.4-1.2-.15-.75-1-.75m-9.7 12.6q-.05-.45.3-.85l-.7-.95-.3-.65q-1.25.35-1.9.75l-1.15.85.45-.1.95-.05.9.25.6.75.05.25h.9z"/><path fill="#fff" d="M39.25 17.65q.85 0 1 .75.2.65-.4 1.2l-.45.2-.7-.25-.4-.35-.05-.4.05-.45q.15-.65.85-.65zM30.8 18q.1-.45.5-.75l.75-.3q1.05 0 1.3 1.05.2.9-.65 1.4l-.95.1q-.4-.05-.8-.55-.25-.45-.15-.95m5.45 3.7-.1-.2h-.05l-.4-.05-.4.1-.2.2-.45.1q-.3 0-.4-.2l-.1-.2.3-.35.3-.3.35-.25q.1-.1.3-.1l.25-.65q.1-.35.45-.35.35-.05.6.25.2.35.05.8l-.1.2.1.15.35.5v.5l-.35.25-.3-.2z"/><path d="m75.15 38.6-.15.25q-.6 1.15-1.25 1.45l-1.8.2-1.05-.2q-1.05.9-2.85.5-1.4-.4-1.9-1.2H66l-1.3.35-1.55.2q-1.25 0-1.8-.4l-.8-.8q-.4-.5-.45-.9-.15-.85.5-1.6l-1.25-1.65-.6-1.25q-2.25.7-3.45 1.4-1.25.65-2.1 1.5l.85-.15 1.7-.1 1.7.5q.8.5 1.05 1.3.4 1.4-.7 2.4-.9.9-2.35 1.05l-2.7-.3q-1.25-.1-2.7-.85-.8-.4-1.05-.8-.35-.5-.35-1.55 0-1.45.15-1.9l.75-1.3q1.4-1.8 4-3.1 1.55-.75 4.85-1.75l.65-.15q.15-.45.45-.85.85-1.2 2.05-1.85l1.05-.9.15-.8.3-1.05q.25-.8.55-1.15l-1.4-1.05q-1.55-1.35-2.35-3.2-.8-1.95-.6-3.9.1-1.1.7-2.75.6-1.5 1.05-2.15l.5-.65-.6-.95q-.15-.4-.15-1.35 0-1.25.15-1.85l.95-2 .4-1.1q.2-.7.5-1.1Q63.2.55 64 .4q.7-.1 1.35.4l.8 1 1 1.9.75 1 6.8-.2.35-.35.8-.75v35.25zM15 13.4q.1 3.5-1.3 6-1.2 2.2-3.35 3.6l.1 1.5q0 .6.15.8l.65.4q1.8.7 2.45 2.55l.3 1.3.15 1.85q-.15 1.75-2.45 3.85.45.65.3 1.5-.1.85-.75 1.35-.8.65-2.75.55l-.85-.05-.15.25Q6.9 40 6.25 40.3l-1.8.2-1.05-.2q-1.05.9-2.85.5L0 40.65V4.2l.4.5 6.8-.2.35-.35 2.4-2.65Q10.7.35 11.25.1q.5-.2 1 0 .55.15.8.6.25.35.35 1.25l.5 1.75.4 1.75.1 1.25.1.85-.05.75.1.7.1 1v.25q.35 1.4.35 3.15"/></g></svg>