<svg xmlns="http://www.w3.org/2000/svg" xmlns:ffdec="https://www.free-decompiler.com/flash" ffdec:objectType="shape" width="22.65" height="24.95"><g fill-rule="evenodd"><path fill="#717171" d="M15.1.6q2.4.75 3.8 2.05 2.05 1.85 3 5.35 1.25 4.1.45 7.75-.6 3.15-2.7 5.65-1.35 1.6-2.7 2.25-1.15.55-3.15.95-4.55.75-7.2-.15-3.45-1.2-5.25-4.75-1.55-3.1-1.3-7.1Q.4 8.45 2.4 5.35 4.75 1.9 8.3.55 9.95 0 11.6 0z"/><path d="m9.15 5.9.2-.75q.35-1.4 1.75-1.75 1.4-.3 2.3.85.4.55.6 2.2l.1 4.65.1 4.65v.4l1.05.05q.75.2 1.25.85t.55 1.45l-.45 1.45q-.5.7-1.25.9l-1.2.2-4.2.05-2.1-.1q-1.15-.15-1.7-.8-.5-.55-.4-1.35t.7-1.2l.85-.4 2-.4.1-1.45.05-2.4v-2.45l-2.05.15q-1.3-.2-1.5-1.2-.3-1 .8-2 .6-.45 2-1.15z"/></g></svg>