<svg xmlns="http://www.w3.org/2000/svg" xmlns:ffdec="https://www.free-decompiler.com/flash" ffdec:objectType="shape" width="78.9" height="38.75"><g fill-rule="evenodd"><path fill="#717171" d="m63.1 24.2-1.55.8.55 1.6.75 2.35q1.35 4.75 1.2 7.05-.1 1.75-.8 2.75H52.7l-.35-.55q-.55-1.1-.45-3.35.1-2.2.35-3.3.35-1.75 1.85-4.95l.85-1.75q-1.45-.75-2.35-2.2-.7-1.15-.95-2.4l-.55 1.45.45 1.4q.25 1.5-.5 3.65l-1 2-1.55 1.35-1.55.8.55 1.6.75 2.35.95 3.9H37.45l.2-1.3Q38 35.7 39.5 32.5l.85-1.75Q38.9 30 38 28.55q-1.2-1.9-1.05-4.15l.1-.85-.4-1.15-.4-2.2-3.1.15-.7-.2-.4.05-1.6.05-.85-.15-.9.4-2.2.25-.7-.35-.2.85q-.65 1.2-2.4 1.2-1.7.1-2.25-.95-.2-.35-.25-1.05l-.2-1.05-1.2-1.6q-2.3-2.5-1.95-6.75.1-1.35.55-2.6 1.1-3 5.55-5.9 1.45-.95 2.45-1.3l2.25-.5 3.1-.25h.1l3.3.3q2.75 1 6.35 4.7l1.6 2.1q.6 1 1 3.4.5 3.1-.3 4.6l-1.2 1.5-.25.25q1.4-.6 3.2-.6l2.05.3.55.25 1.4-.75 1.9.1.45.35-.15-.5q-.3-1.05-.5-3.25v-.8q.1-.7.7-1.25.55-.5 1.3-.5l.85.15 1.25.25 1.45.4q1.45-.65 3.35-.65l2.05.3.55.25 1.4-.75 1.9.1q.95.55 1.1 1.6.05.8-.4 2l-.35 1 1.2.25 1.45.4q1.45-.65 3.35-.65l2.05.3.55.25 1.4-.75 1.9.1q.95.55 1.1 1.6.05.8-.4 2l-.55 1.45.45 1.4q.25 1.5-.5 3.65l-1 2-1.55 1.35-1.55.8.55 1.6.75 2.35 1.15 5.3H64.2l.3-2.7q.35-1.75 1.85-4.95l.85-1.75q-1.45-.75-2.35-2.2-1-1.6-1.05-3.4zm8.1 2.4 1.2.2q.55-.25.35-.85l-.55-.75-.9-.35-.3-.05v-.05l-.3-.9-.6-.2q-.35 0-.55.35l-.15.75-.8.2q-.55.2-.75.6-.25.45 0 .9.4.4.95.3l.95-.25zM44.35 28l1.2.2q.55-.25.35-.85-.1-.5-.55-.75l-.9-.35-.3-.05v-.05l-.3-.9-.6-.2q-.35 0-.55.35l-.15.75-.8.2q-.55.2-.75.6-.25.45 0 .9.4.4.95.3l.95-.25zm14.6-5.9 1.2.2q.55-.25.35-.85-.1-.5-.55-.75l-.9-.35-.3-.05v-.05l-.3-.9q-.35-.25-.6-.2-.35 0-.55.35l-.15.75-.8.2q-.55.2-.75.6-.25.45 0 .9.4.4.95.3l.95-.25zm-2.4-4.9q-.2-.7-.8-1.15-.6-.5-1.3-.5-.75-.05-1.35.45-.6.45-.85 1.15-.2.7.1 1.4.25.75.9 1.1l2.5-.1.75-1.05zm-11.5 6.2q.05.7.5 1.3.4.6 1.05.8l1.4.05 1.15-.75q.45-.5.5-1.25.1-.75-.25-1.35-.35-.65-1-.95l-1.4-.2q-.8.15-1.4.85-.55.65-.55 1.5M71.9 22q.05.7.5 1.3.4.6 1.05.8l1.4.05L76 23.4q.45-.5.5-1.25.1-.75-.25-1.35l-1-.95-1.4-.2q-.8.15-1.4.85-.55.65-.55 1.5m-3.1-.3q-.2-.7-.8-1.15-.6-.5-1.3-.5l-.8.15-.55.3q-.6.45-.85 1.15-.2.65.1 1.35v.05q.25.75.9 1.1l2.5-.1.75-1.05q.25-.65.05-1.3m-9.15-4.2q.05.7.5 1.3.4.6 1.05.8l1.4.05.6-.25-.2-1.65v-.8q.1-.65.65-1.15l-.65-.45-1.4-.2q-.8.15-1.4.85-.55.65-.55 1.5M33.15 4.55 31 3.75h-.05l-.2-.05-2.25.2-2.2.5q-.85.4-2.6 2.1-1.1 1.3-1.25 1.9-.25.9.25 2.5.35 1.25.85 2.1l.9.7.95 1.1.05.8.1.8.75.95.85.75q.15.15.35.15l.25-.1 1.75-.3 1.65.35 1.35-.4 1.3-.25.9.4.05.05 1.35-.4q1.1-.65 1.45-2.15.25-1.15 0-2.7l-.75-2.35-.65-.65-.75-.25q-.5-.3-.6-1l-.15-1.2-.45-1.15-.4-1.1zm8.8 18.55q-.2-.7-.8-1.15-.6-.5-1.3-.5-.75-.05-1.35.45-.6.45-.85 1.15-.2.7.1 1.4.25.75.9 1.1l2.5-.1.75-1.05z"/><path fill="#fff" d="M59.65 17.5q0-.85.55-1.5.6-.7 1.4-.85l1.4.2.65.45q-.55.5-.65 1.15v.8l.2 1.65-.6.25-1.4-.05q-.65-.2-1.05-.8-.45-.6-.5-1.3m9.15 4.2q.2.65-.05 1.3L68 24.05l-2.5.1q-.65-.35-.9-1.1V23q-.3-.7-.1-1.35.25-.7.85-1.15l.55-.3.8-.15q.7 0 1.3.5.6.45.8 1.15m3.1.3q0-.85.55-1.5.6-.7 1.4-.85l1.4.2 1 .95q.35.6.25 1.35-.05.75-.5 1.25l-1.15.75-1.4-.05q-.65-.2-1.05-.8-.45-.6-.5-1.3m-26.85 1.4q0-.85.55-1.5.6-.7 1.4-.85l1.4.2q.65.3 1 .95.35.6.25 1.35-.05.75-.5 1.25l-1.15.75-1.4-.05q-.65-.2-1.05-.8-.45-.6-.5-1.3m11.5-6.2-.05 1.3-.75 1.05-2.5.1q-.65-.35-.9-1.1-.3-.7-.1-1.4.25-.7.85-1.15.6-.5 1.35-.45.7 0 1.3.5.6.45.8 1.15m2.4 4.9L57.5 22l-.95.25q-.55.1-.95-.3-.25-.45 0-.9.2-.4.75-.6l.8-.2.15-.75q.2-.35.55-.35.25-.05.6.2l.3.9v.05l.3.05.9.35q.45.25.55.75.2.6-.35.85zM44.35 28l-1.45-.1-.95.25q-.55.1-.95-.3-.25-.45 0-.9.2-.4.75-.6l.8-.2.15-.75q.2-.35.55-.35l.6.2.3.9v.05l.3.05.9.35q.45.25.55.75.2.6-.35.85zm26.85-1.4-1.45-.1-.95.25q-.55.1-.95-.3-.25-.45 0-.9.2-.4.75-.6l.8-.2.15-.75q.2-.35.55-.35l.6.2.3.9v.05l.3.05.9.35.55.75q.2.6-.35.85zm-29.25-3.5-.05 1.3-.75 1.05-2.5.1q-.65-.35-.9-1.1-.3-.7-.1-1.4.25-.7.85-1.15.6-.5 1.35-.45.7 0 1.3.5.6.45.8 1.15M31.1 10.3l-.05.15-.45.1-.35-.25q-.1-.25.1-.45v.05l.55.35zM1.7 20.1l.45-.2 1.7-.1q.9.2 1.55.85.85.85.95 2.1.1 1.2-.75 2.2l-1.05.85-1.8.25-.7-.2q-.15-.1-.35-.15l-.35-.2-1.1-1.35q-.35-.85-.2-1.7.1-.85.7-1.55zM15.6 25q-.95.95-2.35.95-1.5 0-2.55-1.15-1-1.25-.75-2.7.15-.9.8-1.6l1.5-1.05 2.15.05.65.35 1 1q.55 1 .5 2-.05 1.05-.8 1.95zm-5.25 5.3-.05.45v.35q0 .8-.4 1.5l-1.2 1.05-.9.2-.95-.1q-1.2-.3-1.7-1.55-.25-.85-.1-2.05.2-1.15.55-1.85.5-.8 1.35-1.1V27l.05-.4.2-.75q.15-.25.45-.35l.6.1.35.3.2 1-.05.35L10 28.5q.45.8.35 1.8"/><path d="M22.05 21.35q2.9-.25 6.2-2.15h1.3l3.75-.3 4.5-1.05 1.35-.45.85-.4q1.4-.85 2.3-2.45.9-1.55.95-3.3.15-1.75-.5-3.05-.5-1-2-2.3l-2.1-1.65q-1.1-.7-2.75-1.45l-3.15-.9q-1.35-.2-3.75.05-2.45.25-6.1 2.75-3.7 2.45-4.65 6.7-.3 1.25-.15 2.25.35 2.1 2.6 3.7l1.25.7zm2-20.3Q27.25-.1 30.7 0q3.45.05 6.65 1.3l2.8 1.4q1.95 1.25 3.3 3.1 1.35 1.9 1.75 4.1.5 2.25-.25 4.55-.7 2.25-2.45 3.7-1.8 1.55-5.25 2.35-4.65 1.1-8.5.7l-2.1 1.35-2.7 1-1.9.55q-1.15.35-1.8 0-.6-.3-.6-.95l.1-.9v-.75l.15-1.6q-1.45-.7-2.55-1.8-1.4-1.35-1.9-3.1-.95-3.45 1.85-8.25 1.35-2.25 2.65-3.4 1.55-1.45 4.1-2.3M23.2 8.2q.1-.6.35-1.1.5-1.05 1.75-1.8l.55-.35q1.3-.7 2.8-.9h.05l2.05.2q1.2.3 1.75.7.7.55 1.2 1.75l.05.05q.65 1.7.55 3.15h.3l1.25.4-.05-.05q.65.3 1 1.3.4 1.15.35 2.75l-.25 1.6-.25.5-.15.15-.1.1-.35.1-1.1.35h-.3l-.55-.3-.5-.85-.05-.05v-.05q-.15 1-.7 1.2l-.25.2h-.05l-.9.15q-.8 0-1.15-.45l-.05-.05-.3-.8v.15l-.05.05-1 1.15-1.65.1-.85-.75-.05-.05-.3-1.05q-.15-.75 0-1.5l-.8-.35Q23.9 12.8 23.4 11.7q-.35-.65-.4-1.65zm2.3 3.85 1 .75 1.8.5 1.9-.2 1.45-.55q1.05-.75 1.4-2.3l.1-1-.05-.85-.2-.85-.45-1.1q-.45-.5-1.7-.75l-2.35-.25-.95.25q-1.1.4-1.75.95-.85.7-1.15 1.6-.15.5-.15 1.2 0 1.25.45 1.95zm.7-2.95q-.2.25-.1.5l.3.2.4-.1.05-.1v-.3l-.1-.2-.35-.1zm.3-.5.35-.05.5.05q.45.25.55.65v.65l-.3.55-.6.2-.65-.1-.45-.45-.1-.6.2-.55q.2-.3.5-.35m3.85 1.25-.3-.55v-.25q.05-.4.25-.65.25-.3.55-.4l.95.1q.4.25.5.8v.2l-.15.7-.55.4-.5.1-.2-.05-.55-.35zm.65-1.5-.3.05q-.25.1-.3.35l.1.35.35.15.4-.15.05-.5q-.1-.2-.3-.25m-1.05 2.4.2.25-.1.2-.35.1-.8.05-.25.05-.35.05-.05-.15v-.2l.2-.05 1.1-.3zm3.3 1.2q-.45.85-1.1 1.3-.75.45-1.8.7l-1.6.25-1.2-.05v.1q-.15.65.2 1.4l.45.5.5-.1.25-.35q.35-.8.8-1t.95 0q.45.25.55.75l.15.4.25.2.4-.05.25-.45v-.6l.2-.45.25-.05.85-.25q.45-.15.8 0l.4.5.05.6.1.35.1.1.45-.05.15-.3q.3-.95.2-2.15l-.35-1.3-.4-.55-.3-.1-.95-.1-.25-.05zM1.7 25.7q.2.05.35.15l.7.2 1.8-.25 1.05-.85q.85-1 .75-2.2-.1-1.25-.95-2.1-.65-.65-1.55-.85l-1.7.1-.45.2v-7.8l2.4.15 1.8.4L7 12.2l3.45-1.5 1.5-.4q.7-.05 1.3.35.65.35.85 1l.15.85.75 6.85.05.5-.65-.35-2.15-.05-1.5 1.05q-.65.7-.8 1.6-.25 1.45.75 2.7 1.05 1.15 2.55 1.15 1.4 0 2.35-.95l-.5 2.6q-.65 2.2-2.2 4.05 4.15-1.15 9.85-1.9 1.45-.15 2.35 0l.55-.25 2-.6 1.65-.25.65-.05q.95 0 1.45.85.55.8.15 1.65-.3.85-1.2 1.1l-2.7.2-.1 1.3q-.3 1.2-1.45 1.9-1.1.65-2.3.4l-1.2-.4q-.95-.25-3.35.05l-7.6 1.3.2.55.2 1v.25H1.7zm8.65 4.6q.1-1-.35-1.8l-1.25-1.25.05-.35-.2-1-.35-.3-.6-.1q-.3.1-.45.35l-.2.75-.05.4v.2q-.85.3-1.35 1.1-.35.7-.55 1.85-.15 1.2.1 2.05.5 1.25 1.7 1.55l.95.1.9-.2 1.2-1.05q.4-.7.4-1.5v-.35z"/></g></svg>