<svg xmlns="http://www.w3.org/2000/svg" xmlns:ffdec="https://www.free-decompiler.com/flash" ffdec:objectType="shape" width="77.1" height="41.75"><g fill-rule="evenodd"><path fill="#fff" d="m64.9 17.25-.4-.65v-.45h-.05L63.7 16q-.45-.3-.25-.9l.3-.45.55-.1h.25v-.75q.05-.45.35-.7l.55-.05q.3.05.45.25l.1.55.05.55v.1h.15q.8 0 1.05.3l.2.45-.15.5q-.25.3-1.1.35h-.05l-.05.3-.25.75-.5.25zm-12.7.25q-.4-.25-.45-.85v-.55h-.15l-.95-.2q-.6-.4-.3-1.2.05-.4.35-.6l.75-.1h.3v-1q.1-.6.5-.85l.7-.15q.4.1.6.35l.15.7.05.7v.2h.2q1.05 0 1.4.4l.25.6-.2.6q-.35.4-1.45.5h-.1l-.05.4-.35.95-.6.3q-.35 0-.65-.2M36 19.1q-.5-.35-.6-1.1v-.7h-.15L34 17.05q-.75-.55-.4-1.55.1-.5.5-.75l.95-.15h.4v-1.3q.1-.75.6-1.1l.9-.15q.5.1.75.45l.2.9.05.9v.25h.3q1.3 0 1.75.5l.35.75-.25.8q-.45.5-1.85.6h-.15l-.05.5-.45 1.25q-.3.35-.8.4z"/><path fill="#999" d="m76.4 0 .7 9-29.5-9zM64.9 17.25l.45.15.5-.25.25-.75.05-.3h.05q.85-.05 1.1-.35l.15-.5-.2-.45q-.25-.3-1.05-.3h-.15v-.1l-.05-.55-.1-.55q-.15-.2-.45-.25l-.55.05q-.3.25-.35.7v.75h-.25l-.55.1-.3.45q-.2.6.25.9l.75.15h.05v.45zm-19.65-2q.05 2.65-1 4.6-.95 1.7-2.6 2.75l.1 1.15.1.65.5.3.7.35 1.9-.65.4-.1.25-.5q.5-.7 1.2-1.1l.65-.55.1-.5.15-.6.35-.65-.85-.7q-.9-.75-1.4-1.9-.45-1.15-.35-2.35.05-.65.4-1.65.35-.9.65-1.3l.3-.35-.4-.6-.05-.85.05-1.05.6-1.25.25-.65.3-.65q.3-.3.75-.4t.8.25l.5.55 1.05 1.8 4.1-.15.2-.2L56.4 7.3l.75-.8h.6l.5.35.2.75.3 1.05L59 9.7l.05.75.1 1.4.05.6v.15l.25 1.9q0 2.1-.8 3.6-.75 1.35-2.05 2.15l.1.9.1.5.35.25q.75.3 1.2.95l1-.35.3-.1.2-.35.9-.85.5-.4.1-.4.1-.5.25-.5-.65-.5L60 17.45q-.35-.9-.3-1.8l.35-1.25.5-1 .2-.3-.3-.4-.05-.65.05-.85.45-.9.2-.5.25-.5q.2-.25.55-.3.35-.1.6.15l.4.45.8 1.35 3.1-.1.15-.15 1.1-1.25.6-.6h.45l.4.25.15.55.25.8.15.8.05.6.05.4v.35l.05.3v.6l.2 1.45q.05 1.55-.6 2.75-.55 1-1.55 1.6l.05.7.05.4.3.2q.85.3 1.15 1.15l.1.6.1.8q-.1.85-1.15 1.8.25.3.15.7l-.35.6-1.25.25h-.35l-.1.1-.6.65-.8.1-.5-.1q-.45.4-1.3.25-.65-.2-.85-.55h-.1l-.55.15-.75.1-.8-.2-.4-.35-.2-.4q-.05-.4.25-.75l-.55-.75-.3-.55-.65.2.1.9-.05.3.45.6q.2.65-.3 1.1-.4.45-1.05.5l-.45.05.1.7-.5.8-1.6.35-.55-.05-.1.15-.75.85-1.1.1-.6-.1q-.65.55-1.75.3-.8-.2-1.1-.7h-.1l-.75.2-.95.15-1.1-.25-.5-.5-.25-.5q-.1-.55.3-1l-.75-1-.35-.7-.8.25.1.75.15 1.05.35.6q.3.85-.35 1.45-.5.5-1.2.6l-.7.7q.35.5.25 1.15t-.6 1.05q-.6.5-2.1.4l-.65-.05-.15.2-.95 1.1-1.4.15-.8-.15q-.8.7-2.2.4-1.05-.3-1.45-.9h-.1l-1 .25-1.2.15-1.4-.3-.6-.6-.35-.7q-.1-.65.4-1.25l-.95-1.25-.5-.95q-1.7.5-2.65 1.05-.95.5-1.6 1.15l.65-.1 1.3-.1q.7.05 1.3.4.65.4.8 1 .35 1.1-.5 1.85-.7.7-1.8.8l-2.1-.25q-.95-.05-2.1-.65l-.8-.6q-.25-.4-.25-1.2l.1-1.45.6-1q1.05-1.4 3.05-2.4 1.2-.55 3.75-1.35l.5-.1.35-.65q.65-.9 1.55-1.4l.85-.7.1-.65.2-.8.45-.85-1.1-.85q-1.15-1-1.8-2.45-.6-1.5-.45-3 .1-.85.55-2.1l.8-1.65.4-.5-.5-.75-.1-1.05.1-1.4.75-1.55.3-.85.4-.85.95-.5q.55-.1 1.05.3l.6.75L34 8.55l5.25-.15.25-.3 1.85-2.05q.6-.85 1-1.05.4-.15.75 0 .45.1.65.45l.25.95.4 1.35.3 1.35.05.95.1.7-.05.55.1.55.05.75v.2zm6.95 2.25q.3.2.65.2l.6-.3.35-.95.05-.4h.1q1.1-.1 1.45-.5l.2-.6-.25-.6q-.35-.4-1.4-.4h-.2v-.2l-.05-.7-.15-.7q-.2-.25-.6-.35l-.7.15q-.4.25-.5.85v1h-.3l-.75.1q-.3.2-.35.6-.3.8.3 1.2l.95.2h.15v.55q.05.6.45.85M26.1 41.75l51-15.55-1.25 15.35zM36 19.1l.8.25q.5-.05.8-.4l.45-1.25.05-.5h.15q1.4-.1 1.85-.6l.25-.8-.35-.75q-.45-.5-1.75-.5h-.3v-.25l-.05-.9-.2-.9q-.25-.35-.75-.45l-.9.15q-.5.35-.6 1.1v1.3h-.4l-.95.15q-.4.25-.5.75-.35 1 .4 1.55l1.25.25h.15v.7q.1.75.6 1.1"/><path d="M26.6 15.55q.1 3-1.1 5.2-1.1 1.9-2.95 3.1l.1 1.3.1.75.6.35q1.55.6 2.15 2.2l.2 1.15.2 1.6q-.2 1.5-2.15 3.4.4.55.25 1.3-.1.7-.65 1.2-.7.55-2.4.45l-.75-.1-.15.25q-.5 1-1.1 1.25l-1.55.15-.95-.15q-.9.8-2.45.45-1.2-.35-1.65-1h-.15l-1.1.25-1.35.2-1.6-.35-.7-.7-.4-.8q-.1-.7.45-1.4l-1.05-1.4-.6-1.1q-1.9.55-3 1.2-1.05.55-1.8 1.3l.75-.1 1.45-.1q.8.05 1.5.45.7.45.9 1.1.4 1.25-.55 2.1-.8.8-2.05.9l-2.4-.25-.65-.05V32.2l1.35-.8 4.25-1.55.55-.1.4-.75q.75-1 1.75-1.55l.95-.8.15-.75.2-.9.5-.95-1.25-1q-1.3-1.1-2-2.75-.7-1.7-.55-3.4.15-.95.65-2.4.5-1.3.9-1.85l.45-.6-.55-.85-.1-1.15.1-1.6.85-1.75.35-1q.15-.6.45-.95.4-.45 1.05-.55.65-.15 1.2.35l.7.85 1.5 2.55 5.95-.2.3-.35 2.1-2.3q.7-.95 1.15-1.2.45-.15.85 0 .5.1.7.5l.3 1.1.45 1.5.35 1.55.05 1.1.1.8-.05.6.15.6.05.85v.25zM18 18.8l-.3.4-.6.15h-1.25l-.85-.2-.4-.5q-.4-.7-1.25-.55-.85.1-1 .85-.2.5.05 1.25l.4.75.7.5.65.25 1.15.1 1.85-.05 1.15-.1 1.3-.8.75-.9.2-1.65-.05-1.15-.55-.9-1.3-.4q-.95-.7-1.55-.85h-.95q-.65.15-.85-.4.25-.65.9-.75l.55-.1 1.1-.05h.3l.55.4.5.35q.6.1.85-.55.15-.55-.1-1.1-.35-.9-1.05-1.15l-1.35-.15-1.8.05q-1.05.1-1.65.75l-.95 1.4-.2.7.05 1.2.45.7.85.95 1.5.2h.5l1.55.75.25.2z"/><path fill="#fff" d="m18 18.8.1-.4-.25-.2-1.55-.75h-.5l-1.5-.2-.85-.95-.45-.7-.05-1.2.2-.7.95-1.4q.6-.65 1.65-.75l1.8-.05 1.35.15q.7.25 1.05 1.15.25.55.1 1.1-.25.65-.85.55l-.5-.35-.55-.4h-.3l-1.1.05-.55.1q-.65.1-.9.75.2.55.85.4h.95q.6.15 1.55.85l1.3.4.55.9.05 1.15-.2 1.65-.75.9-1.3.8-1.15.1-1.85.05-1.15-.1-.65-.25-.7-.5-.4-.75q-.25-.75-.05-1.25.15-.75 1-.85.85-.15 1.25.55l.4.5.85.2h1.25l.6-.15z"/></g></svg>