<svg xmlns="http://www.w3.org/2000/svg" xmlns:ffdec="https://www.free-decompiler.com/flash" ffdec:objectType="shape" width="72.05" height="42.65"><g fill-rule="evenodd"><path fill="#999" d="m38.55 10.35-.55-.1-.2-.55-.25-1.05-.75-6.75q.1-.5.5-.9.45-.4.95-.45.5 0 .95.35l.55.9v.8l-.65 5.5-.4 1.9zM14.8 1.7h2.1l.75.05h3.3l.3-.05h.35l.5.05h.1q.25-.35.75-.4.25-.55.85-.65l1.4.35 1.55.85.5.35.5-.15h.9l.3.4.5.8.95 1.05.95 1.1q.25.4.45.2V5.4l-.55-1.6-.5-1.6v-.05l.65-.05h.15l.05-.4.3-.45q.5-.25.8.3l.2.5.25.25.25.65.6 2.55.25.7v.25l.1.35.15.6-.15.75q-.35.7-1.1.55-.65-.1-.8-.7l-.5-.2-3.65-2.05-1.85-1.85-2.35-1.8-.25-.25-.4-.1q-.25.15-.1.35l.5.8.25.45.2.5.2.2.15.4.5 1.2.15.35v.3l.15.15.3.9.25.4.3.7.45.65.55.25.1.05.1 1.25q0 .55-.35.6l-.55-.4-.15-.75-.6-.8-.1.1-.85.55-2.25 1.8-2.45 2.6-1.25 2.1-1.75 3.3-.35.65q.45.65.15 1.2l-.45-.3-1.25-.5-2.75-.6-9.55.4-.3.1-1.05.55-.15-.2q-.1-.35.15-.65l-.05-.05-.05-.1-.1-.1-.05-.05V20l-.05-.1-.05-.1v-.65l-.05-.05v-4.85l.05-.1V12.7l.05-.05V10.9l.05-.1V6.65l.05-.1v-2.2l-.05-.1.05-.1V4l.05-.1.05-.1v-.25l.05-.1V3.3l-.05-.05-.1-.1-.05-.1v-.1l-.05-.1V2.7l-.05-.1.05-.1v-.1l.05-.1v-.05l.05-.1.1-.1.05-.1.1-.1.15-.05.1-.1H2l.1-.05.15-.1h.2l.25.05.1.05h9.8l-.45.65q-.35 1.05.5 1.8l.95.4 5.15 2.25q1.7.85 3.85 1.35l.55-.05q.3-.2.1-.55l-.35-.45-.95-.85-2-1.65q-.8-.5-2.35-1.3l-2.35-1.3zM49 4.95l1.55-2.55.9-1 .35-.45.6-.1.4.5-.3.8q-.6 1.15-1.05 2.4l-.6 1.7q1-.55 4.7-2.2l2.6-1.1q1.6-.6 2.85-.85l.65.1-.05.45-.35.3L58.5 4.6q-5.7 3.3-8.3 5.3-.8.6-1.3.65-.9.1-1.35-.7l-.15-.45-.2-.4q-.15-.5.05-.95l.3-.45zM43.9 2l-.05-.2q.2-1 .9-1.45l1.65.1.55.65.1.5-.15.65-1.3 3.2-.5 1.2-.3.35q-.35.35-.8.2-.55-.2-.45-.7l-.1-.75.1-2.15.15-.55V2.6zm16.25 13.3 8.7-.1q.55 0 .55.35.05.3-.55.4l-14.5 2.8-1.4.2q-.85-.1-1.25-.55-.35-.35-.35-.85t.3-.9q.4-.5 1.2-.7l1.4-.1 2.75-.4zm-9.65-2.6.75-.8 1.7-1.2q5.15-3.65 7.35-4.9.9-.45 1.3-.25.3.1.25.3l-.25.35-3.75 2.75-3.4 3.15-.6.65h1l3.35.3q.7.1.8.35v.45l-.7.3-5.5.75-1.2.1q-.4-.05-.75-.45-.3-.4-.3-.8-.3-.5-.05-1.05m8.85 10.6-.75.2-1.85.3-.55.15-.6.05-.8.25.95.65 1.3.75 1.75.8.5.4.05.6-.75.25-1.75-.35-1.6-.4-2.55-1.25-1.2-.75q-.45-.8.15-1.5l.4-.3q.1-.35.5-.5l.6-.15 3.9-.5h1.05l1.45-.15.95.15q.8 0 1 .3v.5l-.4.3zm-8.9 7.9.85-.2.95.35 2.1.8 2.1.85.85.45 4.5 1.85.6.35q.35.35.1.65-.2.3-.85.2l-7.8-2.15-.75-.25 1.85 3.8.55 1.6.15.5.3.5.1.45q-.15.4-.6.3-.15 0-.6-.35l-.4-.55-.8-.7-.3-.6-.4-.5-3.25-4.7-.2-.6-.15-.8q.1-.8.85-1.15l.2-.05zm-1.5 8.6.15.25.2.75v.35l-.2.35-.55-.05-.45-.35-.95-.9-.75-.6-1.15-1.35-1-.95q-.7-.7-.35-1.65.3-.95 1.3-1.1l1 .15.7.7 1.3 2.8.2.6.1.05.25.5zM41.7 36l1.05-.2.9.65 1.2 3.45.15.8q.1.45-.2.75-.25.4-.65.3l-.6-.3-.15-.15-.05.2-.55.7-.9.1q-.8-.2-1.1-1.25-.15-.55-.15-1.75l-.05-1.05-.05-.8q.1-.5.45-.65h.1q.1-.5.6-.8M15.1 8.45l-1.5-.65q-.65 0-1.05.5-.45.45-.35 1.15l.1.4.65.65 1.7.15 4.15.6.7-.05.35-.55-.35-.45zM25.6 37.3l-.2 1.4-.7 2.35-.35.7-.7.25q-.8 0-.95-.75v-.35l-.4.45-.65.6-.95.25-.35.3-.6.15q-.3-.05-.5-.3-.35-.5-.15-1.15l.15-.25 1.5-1.5 1.55-1.65q.5-.5.95-.45l.1-.05.7.25.05.05.2-.4q.45-.7.9-.5.3.05.4.6m13.95.95-.35 1.05q-.25.5-.25 1.05v.95l-.4.65-.7.35-.75-.2-.5-.65-.1-.65-.35-1.85q-.1-1.15.8-1.55l.85.05.45-.6.55.05.4.4.05.4q.25.15.3.55m-10.1-.05q.4.3.2 1.05l-.6 1.4-.45.95-.35.5q-.45.5-1.05.25t-.6-.95q.1-.45.35-.8l1.7-2.3z"/><path fill="#fff" d="m28.65 2.1-.4-.65q-.15-.45.1-.85l.7-.55.85.1.6.6.25 1.4v.05l.5 1.6.55 1.6v.25q-.2.2-.45-.2l-.95-1.1-.95-1.05-.5-.8zm-.35 3.65.9.95.45.55v.7q-.25.55-.95.45l-.9-.6-.05-.05.1.5.1.7-.1.05-.15.35-.3.05-.1-.05-.55-.25-.45-.65-.3-.7-.25-.4-.3-.9-.15-.15V6l-.15-.35-.5-1.2-.15-.4-.2-.2-.2-.5-.25-.45-.5-.8q-.15-.2.1-.35l.4.1.25.25 2.35 1.8zm-15.7-4.1q.4-.4 1.1-.35l1.1.4.45.25 2.35 1.3q1.55.8 2.35 1.3l2 1.65.95.85.35.45q.2.35-.1.55l-.55.05q-2.15-.5-3.85-1.35L13.6 4.5l-.95-.4q-.85-.75-.5-1.8zm2.5 6.8 4.4 1.75.35.45-.35.55-.7.05-4.15-.6-1.7-.15-.65-.65-.1-.4q-.1-.7.35-1.15.4-.5 1.05-.5z"/><path d="m17 21.6.35.35q.65.65.25 1.1l-.75.25-3.9-.15-3.9-.1q.4.45.1 1.35-.35.9-.25 1.35l.45.95q.7 1.25.2 3.9L8.35 37q-.2 1.15-.05 1.7l.2.65.15.65q.1 1.2-1.4 1.7L4.9 42l-1.95.1q-1.2-.1-1.8-.7t-.8-2.1q-.5-3.6-.25-8.15L.95 23l.45-1.5.25-.25 1.05-.55.3-.1 9.55-.4 2.75.6 1.25.5z"/><path d="M65.8 6.15q.35-.05.75.25l.65.5q.6.3 1.7-.35 1.2-.65 1.75-.4l.5.55v.75l-.65.7q-1.5 1-2.85.85-.75-.1-1.4-.55-.65-.5-.85-1.2-.2-.85.4-1.1m-2.4 3.4q-.15-.8.65-1.15.6-.3 1.35.25l.55.9.6 2.1q.1 1.15-.5 2.1l-.5.45h-.65q-.25-.2-.25-.9 0-2-.5-2.7l-.4-.5zm6.7 1.5-.2.25-.05.6-.05.25v.4l.2.5q.45.75.15 1.4-.25.55-.85.65l-1.05-.25q-.5-.4-.65-1l-.15-1.3.15-.8.45-1.2.6-.6.45-.3.35-.3.65-.3.55-.15.45.05q.6 0 .8.25.3.4-.1.65l-.6.15-.55.4zM57 25.8l1.15-1.2-.15-.1q-1.75-1.5-2.25-3.85-.35-1.75.3-3.2l.9-1.45.6-.65-.05-.05-.65-1.15q-.2-1.15.7-2.45.4-.75 1.5-2.15l.15-.35q-.1-.2-.65-.15-.95.15-1.8-.5-.65-.45-1.15-1.5l-.15-.8q0-.5.6-1.1.35-.55.75-.65.3-.1.65.25.3.3.25.7l-.25.7q-.25.45-.15.75l.3.4.3.25.55.05 1.85.05q.95.55 1.1 1.5.15.85-.25 1.9t-1.45 2l-.1.05.4.6.65 1.1 1 .05q.55.05 1.35.5l1.2.7q1.9 1.35 2.2 4.2.05 1.4-.45 2.6l-.85 1.6-.4.55 1 1.35.75 1.6.1 1.2h.05l1.3 1.15q.5.65.6 1.2l-.5 1.35q-.5.95-1.2 1.35l-2.3.1-1.2-.9-1.3.4-2.05-.15-1.2-.75-.15-.15-.85.4-1.6.2q-.9-.15-1.55-1-.6-.75-.75-1.75-.1-.7.05-1.25.4-.85 1.25-1.25l1-.25.2-.95zM19.5 13.6q1.85-2.65 4.25-4.4 2.6-1.85 5.5-2.35l6.2.15 2.45.5.55-.5 3-1.9 1.4-.8 1.55-.15q1 .25 1.15 1l.05.9-.1 1-.75 3.4q1.6 1.5 2.8 4.1 1.45 3.25 1.65 6.8.2 3.3-.7 6.4l-.4 1.4-1.3 2.65.15.4.75 3.4.05 1.7q-.2 1.05-1 1.4l-2-.15-3.45-.5-.45-.1q-2.7 1.85-5.55 2.5-4.2.95-8.7-.65-1.95-.65-3.15-1.6l-.25.2-4.8 3.85H6.55v-.1l.15-8.2-.05-2.55-.2-2.3.1-1.45.2-1.4.45-2.7-.3-.55q-.3-1.2.6-2 .55-.35 1.45-.55l2.25-.1 2.25.1 1.6.05 1.25.3q.95-3.95 3.2-7.2m17.55.4-.7-.25-1.2-.05-.75.1-1.4.9q-.85.85-.75 2.3l.2 1.2.15.4.45.6q.65.6 1.6.9l.85.15q1.6.05 2.95-1.45l.4-.65.1-1.5-.05-.45-.3-.65-1-1.1zm-6.4 5.3.55-.45-.1-.4-.35-.25-.95.1-.8.5q-.6.45-.85.85l-.55 1.3-.15.6-.15 1.55.15.8.5.85.35.45 1.45 1.2-.55.8-.55 1.6-.15.7-.05.7.05.6q.2 1.35 1.65 2.35l.7.3h.65l.5-.4q.25-.35 0-.6l-.5-.3-.45-.2-.15-.2-.05-.45-.15-.85.05-.35.1-.35.4-1.25q.25-.5 1.1-1l1-1.1q.2-.4 0-1l-.25-.35-.15-.45-.75-.75-1.3-.45-.55-.35-.4-.4q-.3-.4-.2-1.1v-.4q0-.85.3-1.35zm32 10.05q-.45.8.15 1.55.55.75 1.45.55.95-.15 1.2-1.05.15-.6-.15-1.15-.35-.6-.9-.75-.85-.15-1.45.35zm-25.15.1.15.3.1.6.05 1.2-.25 1.3q-.35 1.05-.35 1.4 0 .4.25.6l.55.05.9-.95.6-1.35.15-.45.15-1.75.05-.1 1.4 1.6.3.95.35.25q.25 0 .35-.2l.15-.45.1-.5-.1-.45-.5-1.55-1.4-2-.5-.4q-.6-.55-1.25-.7l-1.05.1-.5.6q-.15.4 0 .75l.25.7zm19.1.7q.35 1 1.4 1.1 1.1.1 1.6-.85t-.15-1.8q-.65-.8-1.7-.55-.7.25-1 .8-.3.5-.15 1.3m6.3-3.75-.45-.2-.5.25-.45.2-.85-.75-.45.05q-.3.1-.35.3-.15.35.15.7l.55.45.5.35-.05.05.05.05q-.2.2-.1.6l.45.55.35.05.2-.45.15-.2.1-.4-.05-.45.3-.45.35-.3z"/><path fill="#fff" d="m62.9 26.4-.1.4-.35.3-.3.45.05.45-.1.4-.15.2-.2.45-.35-.05-.45-.55q-.1-.4.1-.6L61 27.8l.05-.05-.5-.35-.55-.45q-.3-.35-.15-.7.05-.2.35-.3l.45-.05.85.75.45-.2.5-.25zm-6.3 3.75q-.15-.8.15-1.3.3-.55 1-.8 1.05-.25 1.7.55.65.85.15 1.8t-1.6.85q-1.05-.1-1.4-1.1m-19.1-.7-.05-.45-.25-.7q-.15-.35 0-.75l.5-.6 1.05-.1q.65.15 1.25.7l.5.4 1.4 2 .5 1.55.1.45-.1.5-.15.45q-.1.2-.35.2l-.35-.25-.3-.95-1.4-1.6-.05.1-.15 1.75-.15.45-.6 1.35-.9.95-.55-.05q-.25-.2-.25-.6 0-.35.35-1.4l.25-1.3-.05-1.2-.1-.6zm25.15-.1.3-.5q.6-.5 1.45-.35.55.15.9.75.3.55.15 1.15-.25.9-1.2 1.05-.9.2-1.45-.55-.6-.75-.15-1.55m-32-10.05-.6.5q-.3.5-.3 1.35v.4q-.1.7.2 1.1l.4.4.55.35 1.3.45.75.75.15.45.25.35q.2.6 0 1l-1 1.1q-.85.5-1.1 1l-.4 1.25-.1.35-.05.35.15.85.05.45.15.2.45.2.5.3q.25.25 0 .6l-.5.4h-.65l-.7-.3q-1.45-1-1.65-2.35l-.05-.6.05-.7.15-.7.55-1.6.55-.8-1.45-1.2-.35-.45-.5-.85-.15-.8.15-1.55.15-.6.55-1.3q.25-.4.85-.85l.8-.5.95-.1.35.25.1.4zm6.4-5.3.55.45 1 1.1.3.65.05.45-.1 1.5-.4.65q-1.35 1.5-2.95 1.45l-.85-.15q-.95-.3-1.6-.9l-.45-.6-.15-.4-.2-1.2q-.1-1.45.75-2.3l1.4-.9.75-.1 1.2.05z"/></g></svg>