<svg xmlns="http://www.w3.org/2000/svg" xmlns:ffdec="https://www.free-decompiler.com/flash" ffdec:objectType="shape" width="77.45" height="35.35"><g fill-rule="evenodd"><path fill="#999" d="m18.7 21.9-3.25-.05H13.5l-1.55.1-.7-.1-5.15-.05H3.5l-.2-.05-.1-.05H3l-.3-.05-.35-.05-.5-.05H1.4l-.2-.05-.1-.05-.25-.05H.6l-.3-.05-.1-.1-.1-.1L.05 21v-.1L0 20.8l.05-.1v-.1l.05-.1.1-.1.1-.1.3-.05.25-.05.25-.05h.1l.2-.05h.1l-.05-.1-.05-.1-.1-.1-.05-.1-.05-.1v-.3l-.05-.1v-8.25l.05-.1V6.4l.05-.1V4.75l.05-.1V3.5l.05-.1v-.2l.05-.1v-.4l.05-.1.05-.15.05-.1.05-.05v-.05l-.05-.1V1.5l.05-.1.05-.1v-.1l.05-.1.05-.1.1-.1.1-.1.1-.1.1-.1.15-.1.2-.15.25-.05.2-.05h.3l.5-.05h2.2V.15h18.8L35.2.2l3.85.05h3.35l2.8.05L60 .35h3.2l6 .05 3 .05.65.05h.3l.2.05.05-.05.1-.1.1-.1.15-.1.2-.1.2-.05h.25V0l.3.05.2.05.15.1.15.1.15.1.05.1.1.1v.1l.1.1v.1l.05.15v.2l.05.1V2.6l-.05.1v1.2l.05.1v6.4l.05.15v1.4l-.05.1v5.1l-.05.1v.6l-.05.1v.85l-.05.1v.4l-.05.1v.3h.3v-.05h.5l.35.05.25.1.15.1.1.1.1.15.05.1.05.1.05.1v.1l.05.1v.4l-.05.1-.05.1-.05.1-.05.1-.1.1-.1.15-.1.1-.2.1-.15.05-.3.05h-.5l-.5-.05-3.9-.05h-8.65q.2-.95-.1-2.05l-.9-2.05-.75-1.15q-1.25-1.6-3.35-2.5-4.1-1.7-7.9 0l-.05.05-.75-.5q-1.05-.7-1.85-.8h-1l-.65.1-.7.4-.6.5q-.4.4-.5 1.15l-.05 1.25.05.25-.6.15q-.4.05-.7-.2h-.05l-.8-.15-1.4-.6-3.6-.7-6.45.35q-.75.15-1.25.5-2.45.65-4.35 2l.05-1.15.1-1.05.1-1.5.05-.3-.05-.15-.05-.5-.15-1.2q-.2-.8-.8-1.85L22.85 9Q21.7 7.75 20 7.7l-1.05-.3q-3.55-.5-6.15 1.5l-1.25 1.2-.5.6-.4.35-.85.95-.3.85-.15.25-.15.4-.1.1-.3 1.1q-.2 1.05 0 2.05.5 2.15 2.35 2.75l1.6.2 1.25-.2q1.15-.35 2-1.2.85-.9 1.05-2.05l.05-1.65.55-.1.75.1q.5.2.6 1.25l.05 2.1-.3 1.2v.5l-.05.1h.05l-.05.2q-.25 1.4-.05 1.8zm40.95 0H36l-3.3.05h-4.2l-3.65-.05h-.7l.35-.25 3.05-1.95H36l12.9.05h10l.1.2zM22 21.9h-2.4l.05-.7.25-1.2.1-.25h.4l-.05.15q-.05.75.4 1.4.5.6 1.25.6m35.75 3.65q1-1.15 3.45-1.55l3.4.3q.8.35 1.05.95.25.55.1 1.3-.2.8-.8 1.2l-1 .4-5.55.75-1.5.05q-.95-.2-1.2-.8-.3-.55.05-1.2.35-.6.95-.75l.55-.2zm-32.15-1.1.4.45.6.3q1.1.5 1.1 1.3-.1.8-1 1.15-1.35.7-4.05.7L16.7 28l-1.7-.35q-.9-.35-1.25-1.1-.45-.85 0-2.1.55-1.65 1.8-1.95l1-.1 2.6.05 3.75.7q2.1.4 2.7 1.3"/><path fill="#fff" d="m62.75 21.9-.05.15-.75 1.1q-.65.5-1.3.2-.55-.2-.95-1.25l-.05-.2-.65-1.95-.1-.2q-1-2-3.2-2.7l-1.4-.35-2.5-.2-.5.2q-.1.6-.75 1l-1.6.1-1.65-1.1q-.4-.35-1-.6l-.1.85.2 1.15-.3.6-1 .05q-1.05-.3-1.3-1l-.15-.7v-.5l-.05-.25.05-1.25q.1-.75.5-1.15l.6-.5.7-.4.65-.1h1q.8.1 1.85.8l.75.5.05-.05q3.8-1.7 7.9 0 2.1.9 3.35 2.5l.75 1.15.9 2.05q.3 1.1.1 2.05m-38.6 0-.95.35q-.6 0-.95-.35H22q-.75 0-1.25-.6-.45-.65-.4-1.4l.05-.15.1-.55.5-2.65q-.5-.4-.5-1.3l.05-1.45-.45-.95-.7-.95-.6-.6-1.1-.2-1.95.1q-.5.3-.9.8 1.25-.15 1.9.95l1.3-.15q.95.15 1.6.8.6.7.8 1.85v2.05L20 19.75l-.1.25-.25 1.2-.05.7-.1.2H19l-.3-.2-.05-.15q-.2-.4.05-1.8l.05-.2v-.6l.3-1.2-.05-2.1q-.1-1.05-.6-1.25l-.75-.1-.55.1-.05 1.65q-.2 1.15-1.05 2.05-.85.85-2 1.2l-1.25.2-1.6-.2q-1.85-.6-2.35-2.75-.2-1 0-2.05l.3-1.1.1-.1.15-.4.15-.25.3-.85.85-.95.4-.35.5-.6 1.25-1.2q2.6-2 6.15-1.5l1.05.3q1.7.05 2.85 1.3l.85 1.2q.6 1.05.8 1.85l.15 1.2.05.5v.45l-.1 1.5-.1 1.05-.05 1.15q1.9-1.35 4.35-2l3.3-.6h2.3q1.65.25 3 .95.8.4.95 1.05.15.7-.7 1.2l-1.45.3h-1.45l-1.2-.2-2.2.15-2.75.5q-.45.15-1.05.45l-3.05 1.95zM13 15v-.4h-.05l-.05.2v.15l-.05.05v.15h.05l.05-.05z"/><path d="M54.15 14.85q2.05.35 3.75 1.45 1.75 1.2 2.65 2.95l.8 1.9.45-.05q2.1-.1 2.9.8.85.95.35 2l-.75 1.05-1 .85-.7.7-.8.6-.4.2-.65 1.4 2 .05q1.5.2 2.15.85t.65 1.75q.1 2.2-1.45 2.95l-2.1.25-5.85-.3L52.6 34l-5-.95-3.05-.85L39 33q-9.1.7-14.4-1.55l-1.05.5-5.75 2.65-1.85.7-2.35-.35q-1.1-.5-1.55-1.8l-.1-1.35.2-1.35.8-.9q.6-.5 1.8-.85l4.5-1.5.85-.15-.05-.05q-.8-1.65-.95-3.7-.1-1.4.25-3.8l.4-3.85q0-1.35-.65-1.8-.25-.25-1.3-.35-1.5 0-1.95.5-.2.3-.3.85l-.1.85q-.15 1.9-1.75 2.75l-3.25-.1q-.75-.6-1.1-1.6-.3-1-.05-1.95.25-1.3 1.3-2.6.55-1 1.6-1.95l1.65-1.2q1.7-1.05 3.8-1T21.3 9.3q1.35 1.05 2.05 2.8.65 1.7.4 3.5l-.65 2.5-.25 1.25-.3 2.05 1.05-1.05q1.75-1.55 3.2-2.45 4.3-2.55 9.9-2.15 3.95.3 8.25 2.05l-.15-.6-.35-1.55q0-1 .45-1.5.6-.7 1.85-.5l1.8.8 1.1.7zm5.75 8.85-.6-.15-1.15-.15q-.45.1-.55.6-.1.4.3.7l1.05.25.75.15.7.4.75.05.3-.5-.2-.5-.65-.45-.4-.2zm-7.65 1.9-.7-.2-.4-.55q-.2-.4-.55-.4l-.35.3q-.15.25-.05.55l.5.85.55.5 1 .3 2.15-.15.95.8q2.1.9 3.7 0l.5-.65q.05-.3-.25-.45l-.55-.15-1.15.2-1.45-.3-.75-.4q.1-.35-.25-.6l-.8-.05-.7.35zm-.45-4.05-.85-.25L49 21q-.6-.1-.9.3l-.2.6.3.55 1.15.2 2 .4h.75l.5-.5q.1-.35-.2-.65-.25-.25-.6-.35"/><path fill="#fff" d="M51.8 21.55q.35.1.6.35.3.3.2.65l-.5.5h-.75l-2-.4-1.15-.2-.3-.55.2-.6q.3-.4.9-.3l1.95.3zm.45 4.05 1.4-.05.7-.35.8.05q.35.25.25.6l.75.4 1.45.3 1.15-.2.55.15q.3.15.25.45l-.5.65q-1.6.9-3.7 0l-.95-.8-2.15.15-1-.3-.55-.5-.5-.85q-.1-.3.05-.55l.35-.3q.35 0 .55.4l.4.55zm7.65-1.9.3.2.4.2.65.45.2.5-.3.5-.75-.05-.7-.4-.75-.15-1.05-.25q-.4-.3-.3-.7.1-.5.55-.6l1.15.15z"/></g></svg>