<svg xmlns="http://www.w3.org/2000/svg" xmlns:ffdec="https://www.free-decompiler.com/flash" ffdec:objectType="shape" width="69.55" height="37.75"><g fill-rule="evenodd"><path fill="#999" d="m52.55 30.9.8-1.15.3-.9.2-.45-.65 1.05-1.15.85v.5q0 .7-.7 1.15l-1.8-.15q-.4-.3-.45-.8-.1-.55.15-.95l2.3-3.15.3-.55q.4-.7.9-1.25-.1-.6.1-1.85L53 20.6l.25-1.85q.35-4.5.65-6.75.2-1.9 1.05-2.45l.9-.3.75-.1q0-.85.25-1.35l.3-.95.15-1.65v-.5l.25-.6.45-.5.6.05.15.3.05.5v3.6l.05.35.1.8q.1.6-.2 1l-.65.55-.25.15-1.15.5q-.2 1.4-.25 3.85l-.15 3.85-.2 3 .05 2.55q-.2 1.6-1.45 1.9L54 28.1q.35-.6.8-.9l.75-.15.55.1q.7.15 1.05.9l.1.55.85-.1q.75 0 1.2.55l.2.25 1.1.65v.1l.2.2 1.15 2.15.45.8.05.95q-.15.85-.9 1.25l-.95.25-.15.35-.45.7q-.3.35-.8.35-.55.05-.9-.3l-.35-.5q-.3-.45-.3-1.05l-.75.1-1.05-.35-.5-.55-.3.75q-.5.95-1.4 1.1-.65.15-1.2-.3-.6-.5-.6-1.15l.25-1.05.25-.5.1-.05-.2-.2q-.35-.4-.25-1.05l.3-.55zm7.95-16.5q.75 0 1.15.35.55.4.7 1.05l-.3 2.8-.4 2.05-.25.85-.2 2.05-.3.65q-.3.35-.8.4l-.9-.25q-.5-.5-.5-1.3l.1-1.4-.2-2.65q-.05-1.2.2-2.95l.1-.6q.4-.95 1.6-1.05m-16.3-3.9.1.8q-.1.65-.8.75-.6.1-1.1-.35l-.3-.5-.1-1-.25-.35-.15-.8-.3-1.45-.5-2.15q0-.55.15-.8l.35-.25.45-.15q.6.05 1.1.85l.3.6.6 1.6 1.6-2.05.2-.35.05-.05h-.05l-.7-.2-.5-.65q-.15-.45 0-.85.25-.9 1.2-1.15l.55-.05q.85.15 1 .95l.05.3.8-.2q.7.1 1.15.55.4.4.4 1.05 0 .6-.35 1.05v.1l-.8.9-.7 1.05-.9.9-1.05.9q-.75.5-1.5.2zm6.35-6.05q.85-.2 1.25 0 .65.25.75.9.15.75-.4 1.15l-.85.65-.7-.1-.75-.8q-.3-.3-.25-.75 0-.5.35-.75zm-4.2 7.15 1-1.1 1.85-1.15q.3-.25.65-.3l.65.2.2.6-.35.55-2.05 2-.7.4q-.6.15-1-.25t-.25-.95M37.9 6.4l.8.75q.3.7-.1 1.05l1.8 2.05.3.45q.3.5.25 1.05l-.4.95-.1.1-1.4 7.1-.65.95-.05 1.45q-.2.85-.75 1.2l-1.1.1-.7-.8v-1.2l2-9.65-.3-.4-.55-.6-.65-1.15-1.05-1.3-.55-.95-.25-.65q-.1-.7.25-1.1.4-.55 1-.55.55 0 1.15.35zm6.4 6.85q.7-.3 1.25.35.4.45.4 1.3l-.15.75-.05.8L45.2 18q-.25.85-.55 2.8l-.3 2.65q-.15.85-1.1 1.1-.85.15-1.45-.5-.5-.6-.4-1.75l.6-3.05.55-2.85.3-.7.8-1.75q.25-.5.65-.7m-2.6 20.6.05-.25v-.05q-.1-.6.15-1.15-.15-.6 0-1.2l.15-.45L42 28.2l.15-.7.6-.35q.4 0 .65.3l1.5-.25.45-1.6 1.35-6.25.3-1.1q.2-.55.5-.95l.05-.35.05-1q-.3-1.2-.1-1.75.2-.8 1.05-.8.6.1.95.45l.25.85.05.4.1 1.5-.3 1.9-.15.45v.4l-.3.85-.8 3.95-1.05 4.3-.25.8-.75.6-1 .05-.55-.1-.95 2.05-.25 1L43.1 34l-.05.45-.65 1.45-.45.05-.15-.25-.15-.75.1-.4q-.15-.25-.05-.7m13.2-1.9-.7.85.7.4-.05-.3.05-.4.5-1.15zm-15-1.8-.95-.1-.65-.65q-.25-.6-.1-1.35l.25-.8q.3-.55.95-.55t1 .5l.3.8.1 1.35q-.25.65-.9.8m25.85 1.8-.65.5-.85-.25-.45-.55-.6-1-.85-1.75q-.25-1.1.15-1.85.55-.15 1.15.35l.7.95.7 1.15.75 1.65zM32.5 3.05l-.45.5-.55.75 2.05-.2.6.35.1.25q.25.5-.05.95-.2.3-.55.35l-1.05.25H29l-.45-.45q-.2-.35-.05-.65l.15-.3L30.05 3l.4-.45-.75-.1-.25.05-.15.25-.5.1-.3-.5v-.6l.1-.55.2-.3q.35-.3 1.3-.4h1.05l.4.1 1 .1.95.4q.55.65 0 1.25zm-6.4 0-.45.5-.55.75 2.05-.2q.4.1.6.35l.1.25q.25.5-.05.95l-.55.35-1.05.25h-3.6l-.45-.45q-.2-.35-.05-.65l.15-.3L23.65 3l.4-.45-.75-.1-.25.05-.15.25-.5.1-.3-.5v-.6l.1-.55.2-.3 1.3-.4h1.05l.4.1 1 .1.95.4q.55.65 0 1.25zm-6.5.2-.45.5-.55.75 2.05-.2q.4.1.6.35l.1.25q.25.5-.05.95l-.55.35-1.05.25h-3.6L15.65 6q-.2-.35-.05-.65l.15-.3 1.4-1.85.4-.45-.75-.1-.25.05-.15.25-.5.1-.3-.5v-.6l.1-.55.2-.3q.35-.3 1.3-.4h1.05l.4.1 1 .1q.65.1.95.4.55.65 0 1.25zm5.7 19.6-1.2-1.55-1.75-1.85-.35-.25h-.05l-.95-.25-.6-.85v-.7q.15-.7.95-1.15.8-.6 1.6-.55.95.2 1.2.85l.6.65 2.5 3.2 1.25 1.9q.45.65.4 1.2 0 .7-.7 1.15l-1.35-.05-.7-.7zM14.95 10.3l.65 1 .1.2 1.3 1.2.15.2.25.2q.75.4.9 1.2l-.2.9-.7.55q-1.1.3-1.6-.65l-.35-.8-.15-.25-.35-.3-.6-1.25-.25-.75-.3-.4-.25-.7.05-.55.4-.35.2-.05zM19 18.55l.3.5 1.5 1.8 2.25 2.85 1.7 2.35.95 1.2.2 1.05.35 1.3.6 4.7q-.1 1.2-1.25 1.55-1.2.25-1.8-.85l-.3-1.1-.15-2.15v-.7q0-.8.15-1.45l-.75-.65-1.55-2-2.1-3.05-1.4-2.15q-1-1.35-1.3-2.4-.2-.65-.05-1.15.15-.45.7-.85.6-.45 1.25-.3.85.2.75.9zM12.45 3.3l-.55.65-.7.9 2.55-.25q.5.15.75.45l.15.3q.3.65-.05 1.2-.25.4-.7.45l-1.3.3H8.1q-.4-.1-.55-.55-.25-.45-.1-.8l.2-.4 1.75-2.3.5-.55-.95-.15-.3.05-.2.35-.6.1-.4-.6V1.7q0-.5.15-.7l.25-.35q.45-.4 1.6-.5h1.35l.5.1 1.2.15q.85.1 1.2.5.7.8 0 1.55zm-8.4.95L4.15 6l.2 1.7.4 1.6q.1.85-.25 1.45l-.4.7v.75l2 13.1q.2.85 0 1.4-.25.9-1.25 1.15l-.9 1.95-.3.8-.4 1.3-.2.35-.7.75-1.75-.1q-.85-.65-.5-1.7l1.7-3.05.3-.45.8-.95q-.35-.7-.4-1.9l-.8-6.7q-.6-4.1-.55-6.65 0-.9.25-1.3l.8-.8q.25-.4.15-1.6-.15-1.4.1-3.7.1-.95.6-1.1.45-.1.75.4zM10.5 16.3l.45 1.1.3 1.2.4.8.1.75-.1 1.2q-.35 1.05-1.45 1.15t-1.7-.85l-.9-2.7-.6-1.8-.1-1 .05-1.55q.1-.9.4-1.2l1-.45 1.7.2.5.9-.35.95-.15.2v.25zm2.65 10.5 1.4 3.5.2.4-.05 1.35-.4.95q-.35.55-.9.4l-.6-.45-2-4.05-.5-1.15-.05-.5q0-.65.25-1.05.35-.65 1.15-.65.7 0 1.2.6zm-3.2 2.4.05 2.95.15.6-.05.4q.25-.15.6-.35l.65-.2 1 .25.6.8q.3 1.05-.6 1.85-.55.4-1.2.4-.6-.05-1.05-.45l-.55-.75q-.45.4-1.15.45l-1.1-.35-.65.5-.9.65-1.05.15-.75-.65-.35-.95-.1-.75q.1-.75.75-.85l-.35-.65q-.15-.55.25-1.2l.8-1 1.75-2 .3-.5q.7-.7 1.55-.55.9.15 1.3 1zm-3.5 3-.4.4.5-.05zM36 26.25l.9.5q.4.25.4.8t-.5.7l-.45.05H35.1l-.8-.15-2-.7-1.6-.6-.75-.15-.65-.55q-.25-.4-.2-.85l.35-.75q.35-.3.8-.35l1.1.2.65.25.7.4.75.3 1.9.65zm-7.45 8.15q-.55-.55-.65-1.5l-.1-1.6-.1-1.05q.05-.45.4-.8.35-.4.8-.5h.65q.15-.7.8-1.15l1.75-.15 1.8 1.15.9.85q.4.55.4 1.15 0 .65-.4 1.15l-1.05.6q-.25.1-.25.15l-.05.2q-.15 1-1.15 1.2l.1.4q.25.8-.35 1.4-.5.6-1.35.6l-.85-.25q-.7-.45-.75-1.5zm2.3-1.1-.15-.35v.35l.15.05h.05z"/><path d="M28 20.85h-.05l-.1-.05-.75.5-.45.4h-.05l-.95 1.1.85 1 .2.15.3-.05 1-.8.95-.75zm-3.95-5.05-.85-1-.2-.35-.1.1-2 1.35-.35.15-.05.05.1.25 3.95 5.05.65-.45q1.35-.8 1.9-1.4l-.8-1.05zM38.8 27.7l-.2-.05 1.2 1.75.05-1 .1-.5zm22.95.05-.5-.65H59.9v.05l.45 1.1.3 1.3.1.35.05.4.15.3.25.85v.5l-.35.2-.35-.05-.45-.7-.45-.7-.05-.3-.25-.25-.05-.35-.3-.25-.15-.4-.25-.3-.2-.45h-.05l-.2.35-.95 1.4-.75.9-.3.35-.35.2-.2-.15q-.25-.1-.1-.55l.25-.8v-.7l.1-.35.6-1.2.25-1-.75-.2-.3.6-2.2 3.25q-.45.6-.5.95l.85-.15q.55-.25.85-.2.85.1.95 1v.15l.35.6.4 1.35 1.85-1.25.7-.25.65-.05.85.55 1.25 1.4.05-.1.2-1.15.5-1 .2-.2q.1-.75.95-.95l1.85.35-2.05-2.2-.5-.4zM40.8 21.5l-.1.95-.25 1.2v.05l-.1.4.15.05 2.3.65.2.15.15.05.05-.05.1-.2 1.35-6.3-.75-.2-2.3-.55-.3 1.25zm1.2-5.35v.05l.1.1.3.1.2.1.3.1.65.05.05.05 1.4.05.25-1.3-.05-.3L45 15l-1.25-.25-1.2-.3zm0-6.2.4.75 1.35.2v-.05L43.5 9.7v-.55l-.1-.6v-.2L43.35 8v-.4l-.1-.35-.1-.85.1-.5q.15-.15.35-.15l.35.1.3.75.35.75v.3l.2.3v.35l.25.3.1.45.2.35.1.45h.05l.25-.3L46.9 8.3l.95-.75.3-.3q.15-.15.4-.15l.15.15q.25.15.05.55l-.4.75-.1.75-.15.3-.75 1.1-.45.95.75.3.4-.55 2.65-2.9.65-.85-.9.05-.85.05q-.8-.2-.8-1.1l.05-.15-.25-.65-.2-1.45-2.05 1-.7.15L45 5.5l-.75-.7-1-1.6-.05.1-.45 1.1-.65.95-.2.15q-.2.7-1.1.8l-.7-.2-1.05-.45 1.7 2.5.4.45zM33.2 22v.1h.25l3.8.85.4-3.7q.35-2.65.9-4.4l.55-1.9q.25-1.2.45-1.5l.05-.05-.15-.2-3.5-6.65-.6-1.4.1-.45-.1-.1q-.1-.4.2-.6l.65-.1.3.2 1.05.35.95.5 1.9.75.65-2.15q.2-.8.45-1.05.7-.8 1.75-.35l.4.25.15.15.6.9 1.2 1.85.15-.1q.6-.3 1.15-.65L48.15 2l.9-.05.55.2.3.7.25 1.1.35 1.65v.05l2.95-.5.9-.1.8.5.15.9-.35.7-2.4 3.15-1.9 2-1.75 1.35v.85l-.7 4.2-1.55 7.7q-.3 1.5-.95 1.9l-1.9.3-1.4-.2-1.2 4.55-.3.7-.1.55-.2.45-.1 1q-.1.7-.65.6l-.4-.35-.1-.5-.05-.9.25-1.7.05-.75-.15.05-.45.15h-.2l-1.05-.1-2.2-.25-.05.15-.25 1.3-.35 1.3-.5.75-.55.3-.7-.2-1-.55-1.5-.8h-.05l-1.5 2.55-.5.75q-.4.4-.95.3-.5-.05-.75-.5l-.3-.7-1.2-6.6q-.15-1.35.1-2.2l-.65-.55L22.1 24l-4.9-6.15q-.95-1.25-.85-2 0-.6.95-1.65l1.1-.9-2.7-3.85-.35-.7L15 8.3l-.2-.45-.7-.65q-.5-.55-.1-.9l.55-.1.45.25.7.5 1.15 1.3 3.2 3.1.3.35.9-.7q.75-.65 1.3-.65.75-.05 1.75.9l4.15 4.3q1.8 2 2.8 3.5l1.1 1.65zm27.6-.4v-.05l-.15-.05-.3-.05-.2-.1-.35-.05-.6.05-.05-.05-1.4.2-.05 1.35.1.25.2.15 1.3.05 1.2.1zm.35-5.4-.05-1 .05-1.25.05-.45h-.15l-2.4-.3-.35-.15-.05.05-.05.2-.35 6.5.75.05 2.35.2.1-1.3zm2.8 9.7v.05l.15.15 4.5 6.05.8 1.3v.45l.1.1q.15.35-.1.6-.25.35-.65.2l-.35-.15-1.1-.15-1-.35-2-.5-.3 2.25q-.05.85-.3 1.15-.55.85-1.6.55l-.45-.15-.2-.1-.75-.8-1.45-1.65-.15.1-1.05.85-1.1.75-.9.15-.6-.1-.4-.65-.4-1.05-.6-1.55-.05-.05-2.8.95-.9.25q-.5 0-.85-.4t-.3-.85l.25-.75 3.45-5.8q.75-1.05 1.55-1.55l-.15-.85.05-4.25.3-7.85q.05-1.55.65-2.05.45-.5 1.85-.6h1.4l.5-4.7.15-.7.15-1.05-.05-1q0-.75.55-.7l.45.25.2.5.2.9v1.7l.4 4.4-.05.5h1.15l1.45.4q.55.5.7 1.85l.3 5.95-.2 4.5-.2 1.95zm-58.7-.4q-.2-.3-.45-1.5l-.55-1.9q-.55-1.75-.9-4.4l-.6-5.95q-.1-1.35.4-1.9.4-.4 1.35-.6l1.15-.2-.1-.5-.3-4.4L5 2.45l.05-.9.1-.5.4-.35q.55-.1.65.6l.1 1 .2.45.1.55.3.7 1.2 4.55 1.4-.2q1.4-.1 1.9.3.65.4.95 1.9l1.55 7.7.7 4.2v.85q.85.35 1.75 1.35l1.9 2 2.4 3.15.35.7-.15.9q-.3.45-.8.5l-.9-.1-2.95-.5v.05L15.85 33l-.25 1.1-.3.7-.55.2-.9-.05-1.25-.55-1.15-.65-.15-.1-1.2 1.85-.6.9-.15.15-.4.25q-1.05.45-1.75-.35l-.45-1.05-.65-2.15-1.9.75-.95.5-1.05.35-.3.2-.65-.1q-.3-.2-.2-.6l.1-.1-.1-.45.6-1.4 3.5-6.65.15-.2zM6.5 15.45 7 18l.3 1.25 2.3-.55.75-.2L9 12.2l-.1-.2-.05-.05-.35.2-2.3.65-.15.05.1.4.25 1.25zm1.2 5.35.55 1.7 1.2-.3 1.25-.25.2-.15.05-.3-.25-1.3-1.4.05-.05.05-.65.05-.3.1-.2.1-.3.1-.1.1zm0 6.2-.85 1.35-.4.45-1.7 2.5 1.05-.45.7-.2q.9.1 1.1.8l.2.15.65.95.45 1.1.05.1 1-1.6q.4-.6.75-.7l.65-.05.7.15q.95.35 2.05 1l.2-1.45.25-.65-.05-.15q0-.9.8-1.1l.85.05.9.05-.65-.85-2.65-2.9-.4-.55-.75.3.45.95.75 1.1.15.3.1.75.4.75q.2.4-.05.55l-.15.15q-.25 0-.4-.15l-.3-.3-.95-.75-1.15-1.25-.25-.3h-.05l-.1.45-.2.35-.1.45-.25.3V29l-.2.3v.3l-.35.75-.3.75-.35.1-.35-.15-.1-.5.1-.85.1-.35v-.4l.05-.35v-.2l.1-.6v-.55q0-.55.25-1.15v-.05l-1.35.2zm25.05-2.15-.8-.15-1.05.9.05.05q.6.15 1.05.5l.4.35.5.3.2.15q.1.15.3.15l.6.45.75.45.3.4-.1.35-.3.25-.75-.3-.8-.15-.25-.2-.35-.05-.3-.25h-.35l-.4-.2-.45-.1q-.2-.2-.35-.2h-.05l.05.4.2 1.7v1.65l-.1.4h-.25q-.25.1-.4-.3l-.35-.8-.5-.55-.15-.3-.3-1.25-.5-1-.7.35.2.7.5 3.9.2 1.05.55-.75.55-.65 1.35.1.05.15.7.2 1.2.8q.2-1.3.6-2.25l.3-.6.45-.5 1.05-.15 1.8.3v-.1L36.55 29l-.35-1.15.05-.25q-.45-.6.1-1.35l.7-.35v-.6L35 25.05l-.65.05z"/></g></svg>