<svg xmlns="http://www.w3.org/2000/svg" xmlns:ffdec="https://www.free-decompiler.com/flash" ffdec:objectType="shape" width="78.75" height="43.3"><g fill-rule="evenodd"><path d="m24.55 13.25 3.7-.35h.2L28.4 11q-2.35-1.45-3.55-3.2-1.55-2.15-1.3-4.6.05-1.05.85-2.8h3.45l-.05.55q0 1.3 1.35 2.95l1.25 1.3.55.4.55-.55q2-1.7 4.95-2.7l2.8-.7 2.95.3q2.3.6 4.4 2.05l2.1 1.8.4-.5.5-1.45q.2-1.55-.3-3.45h4.1l.2 1.1.2 2.2-.1 2.05q-.3 2-1.5 3.7-.95 1.35-2.3 2.2l-.25 1.55.85-.55 1.6-1 1.55-.9 1.05-.35 3.8-.55q4.1-.1 6 1.5l.6.55h.2l1.1.3.15.1.8.6.3.25.7 1.05.1.3.2.4.25 1-.1.85-.5.85-.6.1q-.35-.15-.35-.5-.4-.4-.4-.95l-.2-.25-.15.45q.4 1.05.05 2.3l-.15.55-.7.9q-.5.4-.9.2l-.3-.4v-.45l.2-1-.15-.5-.9.05-.25.9q-.5 1.4-1.75 1.7h-.7l-.5-.55q-.05-.3.25-.7l.55-.6q.35-.55.25-1.35v-.55l-.8-1.05-.9-.2q-2.75-.3-5.7.5l-1.9.6-.35.1-.15.05-.3.15 1.15 2.15.5 1.25.05 1.2q-.2 2.1-1.15 3-.95 1-2.35.85-.85.65-2 .55l-.55-.05-.55.35q-1.15.85-2.65 1.05-1.55.15-2.85-.45-1.35-.6-2.2-1.85-.85-1.3-.95-2.75-.05-.85.2-2l-1.7-.05-2.65-.85-1.85-.85-.2-.05-2.8-.35-1.15.2q-.85.25-1.75.85l-.35.3-2.1 1.75-2.15 1.55-.55.65-.9 1.1-.45.65-.85-.15-.45-.65-.1-1 .05-.15-.5-.2-.55.2-.4.3-.15.2-.1.3-.1.2-.35.6-.4.5-.6.15-.3-.15q-.3-.3-.3-.75l.2-1.1.35-.6.7-1.5.25-.3-.05-.1-.45.2q-.4.1-.7.3l-.6.6-.4.3-.25.2-.45-.25-.05-.55.05-.2.5-1.6.3-.65.35-.45.55-.4 1.7-.8.8-.8 2.1-1.35 1.9-1.2q1.55-.85 3.3-1.2m21-2.95-.4-.2-.55 1.35q-.95 1.8-2.85 2.9l-.95.5.05.1q.55.95 1.55 1.45l2.05.35q1.05-.15 1.9-.95.8-.8.95-1.85.2-1.05-.3-2.1-.5-1-1.45-1.55M34.6 16.15l.85-1.15q-1.95-.55-3.1-1.85-.85-.95-1.05-2l-.65.5q-1 .9-1 2.2 0 .85.5 1.6.45.8 1.25 1.15l1.7.25q.85-.15 1.5-.7"/><path fill="#fff" d="M45.55 10.3q.95.55 1.45 1.55.5 1.05.3 2.1-.15 1.05-.95 1.85-.85.8-1.9.95l-2.05-.35q-1-.5-1.55-1.45l-.05-.1.95-.5q1.9-1.1 2.85-2.9l.55-1.35zM34.6 16.15q-.65.55-1.5.7l-1.7-.25q-.8-.35-1.25-1.15-.5-.75-.5-1.6 0-1.3 1-2.2l.65-.5q.2 1.05 1.05 2 1.15 1.3 3.1 1.85z"/><path fill="#717171" d="m54.7 10.4 3.1-3.9q1.2-1.4 2.1-1.4 1.3-.05 2.2 1.55l.7 1.3q.35.75.8 1.1l9.15-7.75Q74 .25 74.8.1q1.5-.35 2.45.85 1 1.25.3 2.6-.35.85-1.9 1.85-3.2 2.15-9.25 6.8l-1.1-.3h-.2l-.6-.55q-1.9-1.6-6-1.5zm11.8 8.9q.55.05 1.1.6l.85 1.55q.8 2 1.2 4.15l4.65-.65 2.6-.1 1.25.85q.55.6.6 1.35l-.25 1.5q-.35.75-1 1.1l-2.05.55-5.5.7-2.05.05q-1.15-.15-1.7-.95l-.5-1.65-1.25-5-6.9 1.4-.75-.05-.45-.55q0-.35.55-.7 1.85-1.2 5.95-2.7l1.65-.7.1-.05.3.4q.4.2.9-.2zm-38.7-.85 1.05 2.1.2.75q-.1.6-.6.7-.7.15-1.45-.8l-1.3-1.6.35-.3q.9-.6 1.75-.85m-11.3 5.7.55.4 2.9 1.75q1.1.65.9 1.35-.2.6-.9.6l-1.1-.35-5.7-2.7q-2.8 2.6-4.25 4.4l-1.25 1.1q-.7.25-1.85-.25-1.5-.75-3.6-2.3Q.15 26.6 0 25.3q-.15-1.15.9-2.05Q2 22.5 3.15 23l1.5 1.3 2.4 2.45 4.35-4.05q.9-.95 1.65-1l-.05.2.05.55.45.25.25-.2.4-.3.25.25.6.55-.35.6-.2 1.1q0 .45.3.75l.3.15.6-.15.4-.5.35-.6zm4.75-9.7-1.7-1.85q-1.6 1.65-2.75 3.55-.8 1.35-1.35 1.65l-.5.2-.45.2q-.6.2-1.1 0-1-.35-1.5-2.2L9.1 5.9l-.2-.3h-.25Q7.05 6 5 6.75l-2.55.55q-1.3-.15-1.8-1.4-.5-1.15.3-3.25.6-1.45 1.35-2L3.7.4q.75.1 1.25.6l.4.3.5-.05 2.2-.7L10.1.1q1.2 0 1.9.7.45.45.75 1.75l2.05 9.6 2.4-2.95q.65-.75 1.35-1.15l1.7-.15q.6.25 1.45 1.65l1.4 1.8 1.45 1.9q-1.75.35-3.3 1.2m38.5 20.5q-.1-.8.35-1.05.55-.45 1.4.3l1.5 1.65 2.05-.4 1.9-.25 1.55-.15q.75.05 2 1.1l3.65 2.95.8.8q.5.65.45 1.5-.1.85-.65 1.35l-3.15.1-1.4-1-1.25-1.1-1.45-1.2-.4-.35-.5-.05-2.3.35-1.6.1q-.85-.1-1.4-.7l-.45-.8-.4-.95q-.6-1.5-.7-2.2m-46.95 1.9.8.15q.55.2.45.65t-.9.55l-2.45.35-1.65-.1-1.55.2Q7 38.9 6.15 40l-1.8 1.75-1.25.85-1.45-.05q-1.05-.4-1.4-1.5-.3-1.05.3-2 .5-.7 1.75-1.35l2.85-1.6q.8-.5 1.4-.5l1.1.35.9.1 2.1.4z"/><path fill="#717171" d="M21.9 29.25q.7-1.55 1.5-2.55.95-.95 2.45-1.95 2.35-1.8 3.7-2.15l3.85-.2q2.85.4 5.15 2.1 1.65-.8 3.55-1.1 2.65-.4 5.05.45l.95.35q.7-.45 1.8-.8l2.25-.2q1.2.15 1.85.55t.6 1.65q-.1 1.25-.95 1.85L52.6 28l.65 1.45 2.2-1.05q3.35-1.8 4.05-1.65.65.05 1.65.6.75.4 1.1 1.25.35.7.25 1.5-.15 1.75-1.85 2.5-.9.2-1.3.35l-1.6.5q-.75.25-3 1.4l-4.1.9 5.05 1.2q1.4.5 2.05 1.45.6.9.2 2.25l-.6 1.15H42.9l-2.65-.85-.15.4-.1.45h-8.45l.2-.45-.25-1.4-.25-.85-.25-.25-.4.05-.35.3-.1.5-.05.55-.3.45q-.35.55.05 1.1H24.6l-2.1-1.65h-.45q-1.15.1-3.05-.65-1.05-.4-1.6-.8-1.7-.6-.5-2.8l-1.1.2-2.1.05q-1.3-.25-2-.95l-.6-1.05q-.55-1.65.45-3 .85-1 3.15-1.6l2.3-.45 4.15.1.7.05-.1.05q-1.1.4-1.7 1.4l-.2.45q-.5 1.1-.1 2.3.45 1.2 1.55 1.75l1.7.4 1-.05q1.2-.3 1.9-1.25.6-.95.75-2.1v-.65l-.35-1.1q-.65-1.1-2.05-1.4zm3.95 3.15-.55 1.35-1.3.85-1.65-.05q-.85-.3-1.25-.95-.5-.7-.5-1.55.05-.85.65-1.45.5-.65 1.35-.8l1.6.05q.75.25 1.25 1.05.5.7.4 1.5m12.5 6.25.6-.8.35-1.2-.05-1.1-.45-1.45q-.7-1.6-2.35-1.95-1.7-.45-3.2.5-1.45.85-1.9 2.5-.25.75-.1 1.65.2 1.5 1.65 2.45 1.25.8 2.85.7 1.75-.2 2.6-1.3M34.6 27.9q-.1-.45-.7-.55l-.8.05-.65.25-.55.1-.9-.2-.4-.3q-.1-.8-.75-1.1l-1.35.1q-.65.5-.6 1.15l.05.35.35.35.25.6.7.6h-.05q-.3.45-.2 1l.25.75.75.35q.8.15 1.35-.75l.2-.8.05-.05.85-.05.4-.1.25-.1.45-.15.5-.25.2-.3.3-.55zm4.3 2.65.25.6.15.25-.1.3q-.35.7.05 1.25.45.6 1.15.35l.45-.35.25-.75-.3-.75-.45-.75-.45-.8q-.55-.4-.9-.15-.3.3-.1.8m-2.8 2.6q.55.15.95.45l.35.35q.65.6.85 1.45.15.85-.1 1.65-.75 1.8-2.6 2.05-1.9.3-3.05-1.3-.5-.7-.5-1.55-.1-.9.35-1.65.5-.95 1.65-1.4zm-11.2 3.9-.25-.4-.45-.1q-.2.05-.45.35l-.15.5-.35.35q-.45.65-.25 1.15.2.7 1 .65.75-.1.9-.85l-.1-.75q-.1-.45.05-.7z"/><path fill="#fff" d="M31.55 41.8h-1.7q-.4-.55-.05-1.1l.3-.45.05-.55.1-.5.35-.3.4-.05.25.25.25.85.25 1.4zm-9.7-12.55h.05l2.35-.2q1.4.3 2.05 1.4l.35 1.1v.65q-.15 1.15-.75 2.1-.7.95-1.9 1.25l-1 .05-1.7-.4q-1.1-.55-1.55-1.75-.4-1.2.1-2.3l.2-.45q.6-1 1.7-1.4zm4 3.15q.1-.8-.4-1.5-.5-.8-1.25-1.05l-1.6-.05q-.85.15-1.35.8-.6.6-.65 1.45 0 .85.5 1.55.4.65 1.25.95l1.65.05 1.3-.85zm13.05-1.85q-.2-.5.1-.8.35-.25.9.15l.45.8.45.75.3.75-.25.75-.45.35q-.7.25-1.15-.35-.4-.55-.05-1.25l.1-.3-.15-.25zm-4.3-2.65-.05.4-.3.55-.2.3-.5.25-.45.15-.25.1-.4.1-.85.05-.05.05-.2.8q-.55.9-1.35.75l-.75-.35-.25-.75q-.1-.55.2-1h.05l-.7-.6-.25-.6-.35-.35-.05-.35q-.05-.65.6-1.15l1.35-.1q.65.3.75 1.1l.4.3.9.2.55-.1.65-.25.8-.05q.6.1.7.55m3.75 10.75q-.85 1.1-2.6 1.3-1.6.1-2.85-.7-1.45-.95-1.65-2.45-.15-.9.1-1.65.45-1.65 1.9-2.5 1.5-.95 3.2-.5 1.65.35 2.35 1.95l.45 1.45.05 1.1-.35 1.2zm-2.25-5.5-2.1.05q-1.15.45-1.65 1.4-.45.75-.35 1.65 0 .85.5 1.55 1.15 1.6 3.05 1.3 1.85-.25 2.6-2.05.25-.8.1-1.65-.2-.85-.85-1.45l-.35-.35q-.4-.3-.95-.45m-11.2 3.9-.05.2q-.15.25-.05.7l.1.75q-.15.75-.9.85-.8.05-1-.65-.2-.5.25-1.15l.35-.35.15-.5q.25-.3.45-.35l.45.1z"/></g></svg>