<svg xmlns="http://www.w3.org/2000/svg" xmlns:ffdec="https://www.free-decompiler.com/flash" ffdec:objectType="shape" width="75.25" height="38.55"><g fill-rule="evenodd"><path fill="#999" d="M68.3 8.05q-.35-.25-.15-1.15l.8-2.8.35-.95q.6-.85 1.55-.6 1 .25 1.15 1.2.15.85-.95 2.25l-1 1.2q-.5.65-1 .9zM61.05 5.9l-.4-1.4-.3-1.45-.4-.7q-.5-.95.3-1.85.8-.75 1.8-.35t1 1.55l-.15.95-.05 1.2q-.1 1.1-.55 1.85l-.65.5q-.3.05-.6-.3M1.15 20.85h.25l.1.05h2.45l14.6-.05H39.3l2.7.05h8.5l4.05.05H56l1.6.05 2.75.05h3.2l1.6.05H66l.6.05h7.8l.25.05.2.1.1.1.1.05.05.1.05.05.05.1v.1l.05.05v.25l-.05.1v.1l-.05.05-.1.1-.05.05-.1.1.05.1v.15l.05.1v.2l.05.1v.9l.05.1v1.3l.05.05v.8l.05.1v1.55l.05.1V34l-.05.05v.25l.05.1v1.55l-.05.05v.85l-.05.05v.1l-.05.1-.05.05v.1l-.05.05-.05.1-.05.1-.05.05-.05.05-.05.05-.1.1-.05.1-.1.05-.15.1-.15.1-.15.05H74l-.1.05h-.55l-.35-.05h-.55l-.6-.05h-3.1l-.55-.05-.25-.05h-.55l-.5-.05h-.75l-1.65-.05h-3l-4.3.05h-5.15l-3.1.05H21.9l-3.7-.05h-1.3l-2.7-.05h-.75l-.95-.05H3.75l-.45-.05h-.5l-.25-.05v.05l-.05.05-.05.1-.05.05-.1.1-.05.1-.1.05-.15.1-.15.1-.15.05h-.1l-.25.05-.25-.05-.2-.05-.2-.05-.15-.1-.1-.1-.05-.05-.1-.1-.05-.1-.05-.05-.05-.1-.05-.05-.05-.1v-.15L0 37.4v-10l.05-.1v-3.4l.05-.1v-.3l.05-.1v-.3L.1 23l.05-.05-.05-.1.05-.1v-.15l.05-.05-.05-.05-.05-.1-.05-.05v-.25L0 22l.05-.1v-.2l.05-.1v-.1l.05-.05.05-.1.05-.1.1-.05.05-.1.15-.05.15-.1.15-.05.05-.05zm53.35-14-.7-.2-.85-.8q-.3-.6-.1-1.2.2-.55.75-.85l1.15-.2q.85.25 1.5 1.3l.7 1.5.1.85q-.1.6-.55.65-.35.1-1.1-.45z"/><path d="m50.75 16.75.15.1 1.05.95 1.25-1.75-.45-.7-.9-2.75-.2-.65q-.3-1.2-.15-1.8.25-.75.85-1.05l1-.3q1.35-.25 2.8 0l.8.2.25-.15q1.45-.85 3.15-.95h1.05L63 6.55q.7-.6 1.1-.65l1.25.25.85.9.7 1.15 1.35 3.85.25 1.5v.05l-.1-.3-.2-.3-.95-1-.5-.2-.6-.1-1.5.1q-.55.2-1.05.7l-.25.3q-.45.55-.55 1.25-.15.7.2 1.3l.35.5q.6.8 1.05 1l.55.2q1.4.35 2.4-.3l1.05-1.3.05-.2v.9q-.2 3.6-2.8 6.75-1.9 2.4-5.65 4.8l-2.95 1.55q-3 1.25-8.5 1.25h-.9l-1.2 1.05q-1.15.9-2.9 1.5l-4.2 1-5.1.45-3.7-.1-3.4-.4-4.8-.65-3.8-.9q-1.35-.55-4.35-2.2-3.05-1.7-4.65-3.55Q7.9 24.9 7.9 23t.55-3q.5-1.15 1.75-2.2.7-.65 1.55-1l.15.4.9 1q3.85 3.1 8.5 4.8 4.7 1.7 9.6 1.75 4.05.1 7.5-1 2.3-.65 5.95-2.45 4.4-2.25 6.15-4.25zm-38-1.1q1.15-2.95 3.9-5.75 2.2-2.25 4.6-3.75l.1.35q-.1.3.1.65l.45.85.6 1.1 1.1 1.65.15.3.55.85.3.4.25.4v.05l-.15.1-.8.6-2.5 2.4-2.65 2.65-.45.5v.1q-2.1-1.15-4.05-2.7l-1.05-.7zM22.85 5.3q2.3-1.2 4.85-1.65 3.55-.7 7.7.1 4.35 1 7.85 3.4L38.9 12.2l-.75 1.15-1.2-.25-2.1-.55-1.55-.2-6.75-.4-.35.05-.05-.1-.25-1.25L25 8.6l-.25-.3q-.7-.95-1.05-1.9l-.35-.5-.25-.45zm22 3.1 1.85 1.75q2.65 2.75 3.3 5.65l-.25.1-4.25 2.25q-2.65 1.55-4.25 2.2l-.3.15-.25-.55-.6-2-.55-2.4-.25-.8.05-.05.45-.65.5-.6.1-.2.05-.05 1.25-1.5 1-1.1 1.2-1.15zm-15.45 14q-4.65-.3-8.95-2.2l.3-.3 4.75-5.85.6.1h1.85l1.3-.05 1.25.05 1.75.3 1.4.1 1.7.45 1.65.25.55.1.2.4.75 2.4 1.1 2.9q-4.9 1.75-10.2 1.35m28.05-9.15q-1.15-.3-2.25.45-.85.75-1.15 2.3l-.05.5q0 1.4 1.25 2.05l1.35.3 1.1-.1q1-.35 1.45-1.15l.35-.75.25-.9-.1-.85-.2-.45q-.35-.65-1.5-1.25zm5.6 5.45-.65.25h-.05l-.25-.2-.05-.05v-.05l-.4-.15-.4.1q-.2.2-.1.5l-.25.3-.3.3-.55.2q-.35-.1-.35-.4l.05-.2-.3-.2-.3.2-.4.5q-.2.5.1 1l.85.6q.85.3 1.65-.3l.95-1.2.8-.05.4-.15q.4-.2.6-.75l.1-.6-.2-.7-.4-.1q-.25 0-.35.2z"/><path fill="#fff" d="m68.5 13.6-.05 1.65-.05.2-1.05 1.3q-1 .65-2.4.3l-.55-.2q-.45-.2-1.05-1l-.35-.5q-.35-.6-.2-1.3.1-.7.55-1.25l.25-.3q.5-.5 1.05-.7l1.5-.1.6.1.5.2.95 1 .2.3zm-56.75 3.2q-.1-.55.25-.85.25-.3.75-.3l.45.05 1.05.7q1.95 1.55 4.05 2.7V19l.45-.5 2.65-2.65 2.5-2.4.8-.6.15-.1v-.05l-.25-.4-.3-.4-.55-.85-.15-.3-1.1-1.65-.6-1.1-.45-.85q-.2-.35-.1-.65l-.1-.35V6.1q0-.4.35-.7.35-.35.75-.3l.5.2.25.15.25.45.35.5q.35.95 1.05 1.9l.25.3.9 2.05.25 1.25.05.1.35-.05 6.75.4 1.55.2 2.1.55 1.2.25.75-1.15 4.35-5.05 1.15.05q.6.45.45 1.05v.15l-.95 1.05-1.2 1.15-1 1.1-1.25 1.5-.05.05-.1.2-.5.6-.45.65-.05.05.25.8.55 2.4.6 2 .25.55.3-.15q1.6-.65 4.25-2.2l4.25-2.25.25-.1.7.05q.4.3.05.9l-.25.3q-1.75 2-6.15 4.25-3.65 1.8-5.95 2.45-3.45 1.1-7.5 1Q26 24.7 21.3 23q-4.65-1.7-8.5-4.8l-.9-1zm51.3 1.9.2-.95q.1-.2.35-.2l.4.1.2.7-.1.6q-.2.55-.6.75l-.4.15-.8.05-.95 1.2q-.8.6-1.65.3l-.85-.6q-.3-.5-.1-1l.4-.5.3-.2.3.2-.05.2q0 .3.35.4l.55-.2.3-.3.25-.3q-.1-.3.1-.5l.4-.1.4.15v.05l.05.05.25.2h.05zm-5.6-5.45.5.15q1.15.6 1.5 1.25l.2.45.1.85-.25.9-.35.75q-.45.8-1.45 1.15l-1.1.1-1.35-.3Q54 17.9 54 16.5l.05-.5q.3-1.55 1.15-2.3 1.1-.75 2.25-.45M29.4 22.4q5.3.4 10.2-1.35l-1.1-2.9-.75-2.4-.2-.4-.55-.1-1.65-.25-1.7-.45-1.4-.1-1.75-.3-1.25-.05-1.3.05H26.1l-.6-.1-4.75 5.85-.3.3q4.3 1.9 8.95 2.2"/></g></svg>