<svg xmlns="http://www.w3.org/2000/svg" xmlns:ffdec="https://www.free-decompiler.com/flash" ffdec:objectType="shape" width="56.65" height="31.1"><g fill-rule="evenodd"><path fill="#999" d="M18.45 5.1q.55.55.45 2.2l-.75 5.05q-.2.85-.65.85-.45-.05-.55-.8l-.9-4.85q-.3-1.5.2-2.25.35-.5 1.05-.6.7-.05 1.15.4M12 10.6l.45 1.4.25.9.3.6.1.6-.35.55-.65.1-.75-.6-.6-.75Q8.6 10.8 7.6 8.9l-.45-.7-.4-.5Q6 6.7 6.4 5.55q.45-1.2 1.65-1.35 1.3-.15 1.95.9l.95 3.05.7 1.4zm-4.6 8.15-1.8-.4-1.4-.5L2.7 17Q.95 16.4.4 15.7q-.55-.8-.3-1.7.35-.9 1.25-1.15.95-.3 2.35.6L5 14.5l2.3 2.45.5.75.15.4q.1.65-.55.65"/><path d="m53.85 18.25-.8-.05.05.85.15 1.2.2.55q.2.75-.1 1.3-.3.6-1 .85l-1.2.1L47.9 23l-1.25-.2q-1.1-.45-1-1.45l.05-1.75v-.95l-1.6.2-2-.1q-.5-.2-.75-.65-.3-.5-.1-.95l.6-.8 5.25-8.5q.85-1.3 1.55-1.5 1-.2 1.9.75l1.1 1.85 1.95 3.1 2.3 3.15q.95 1.3.7 2.1-.25.75-1.2.9zm-31.5-6.65q-.9-.85-1.3-2.1t-.2-2.5q.3-2.55 2.25-4.4 1.45-1.4 3.35-2.1Q28.4-.2 30.3.1q1.9.35 3.75 1.55 1.8 1.05 2.8 2.55 1.2 1.8 1.5 5.75.4 5.05.3 9.35l.1.45.05 5.85-.45 1.8-.75 1.75q-.85 1.25-2.6 1.5l-2.95-.35-.45-.15-21.15.85-1.9-.4q-.8 0-1.25-.6-.45-.55-.55-1.85-.35-4.6 1.85-7.7l1.5-1.8 2.6-2.4q3.9-2.9 8.85-2.25 2.2.3 4.1 1.15v-.35l.65-1.45q-2.6-.4-3.95-1.75m23.6 14.35q-.25-.3-.15-.75.05-.45.4-.7.45-.4 1.5-.5l2.75-.45 1.65-.1q.95.2 1.4.75.55.65.3 1.45t-1 1.1l-1.1.15-1.15-.2-3.45-.4z"/></g></svg>