<svg xmlns="http://www.w3.org/2000/svg" xmlns:ffdec="https://www.free-decompiler.com/flash" ffdec:objectType="shape" width="56.1" height="40"><g fill-rule="evenodd"><path fill="#999" d="m29.35 18.3.05-.95-.3-.85q-.2-.95.6-1.85l1.7-1.1 6.85-4.05q4.05-2.4 7.1-3.2l3.75-.35q2.2.45 3.15 1.95.6 1 .5 2.35-.1 1.25-.8 2.3-1.2 1.85-3.9 2.9l-2.35.75-2.35.65q-1.85.5-5.05 1.75l-5 1.85-2.25.25q-.8-.2-1.3-.9t-.4-1.5M24 19.35q-.15-.9.05-3.2l.6-9.25.1-1.1q.15-.65.75-1.1.6-.5 1.25-.5.7.05 1.25.55t.6 1.15l-.15 1.05-2.45 9.8-.75 2.7-.65.7q-.5 0-.6-.8m-3.95-6.1q.65-.6 1.6-.35l-1.15-2.8-.3-1.1-1.7-6.05-.2-.8q-.05-.7.4-1.35.4-.6 1.1-.75l1.35.15q.7.35.95 1l.55 3.7.2 1.8.05 1.3.35 2.35v3.05l-.15.5-.3.25q.15.65-.3 1.2l-.6.5-.9.2.65 1.15.75 1.4.3 1.25-.1.7q-.3.3-.7.2l-.65-.35q-1.9-1.55-3.15-3.8l-.9-1.65-1.7-2.4q-1.15-2.55-2-3.6L12.8 8q-.35-.7-.1-1.55.2-.8.9-1.2l1.55-.1q.9.25 1.25.95l.4 1.7.65 1.55 2.25 4.35zM3.2 14.4l.4-1.35q.3-.75.7-1.15.85-.85 2.1-.7 1.15.15 1.75 1.25l.45 1.3.25 1.2.2.5.55.35 6 2.2.9.45q.4.35.45.95 0 .6-.4.95-.4.45-1.45.55l-4.55-.4-3.3-1.2-.5-.05-.45.25q-1.1.85-2.35.4-1.25-.4-1.6-1.75-.2-.8.15-1.9z"/><path d="m39.8 17.15 5.4-1.3q2.95-.9 4.8-2.4 1.3-1.1 1.85-2.25.45-1.1.25-2.2-.15-1.2-1.05-2.45-.8-1.05-1.65-1.4L47.55 5q-3.3.35-7 2.1-2.35 1.1-6.45 3.7l-6.15 3.9.75.2.65.25.45.15q.9.2 1.6.9.35.4.35.75.4.7-.05 1.4l-.45.55zm-9.6 5.95-2 .5q-.9-.1-1.4-1.05l-.1-.3-.2-.2q-.4-.55-.2-1.15l.2-.45q.5-.9 1.75-2.35l-2.3-.3-.75-.15-.75-.5-.2-.15-.45-.6-.1-.7q.1-.65.4-.95l.15-.05.1-.15q.15-.4.8-.95 2.7-2.25 4.95-3.95 4.5-3.45 7.5-5.25 4.4-2.5 8.35-3.25 2.5-.4 4.1-.05 2.1.5 3.7 2.25 1.5 1.7 2.05 3.9.9 3.55-.7 6.3-.7 1.3-2.3 2.6-2.9 2.35-6.55 3.5l-5.3 1.25-7.8 1.5zm-9.1 2.5q5.25 1.75 10.75.1l1.95-.65 2-.2.45.1q1.6-1.1 3.25-1.4l1.65-.2 3.65.3q1.55.6 2.4 2.35.7 1.6.45 3.4l-.4 1.45-.9 1.15q-1.05 1.05-2.55 1.35-1.05.2-2 0l.15.85.05 1.1q0 1.45-.7 2.85l-.85 1.1-1.15.65-.3.1h-3.5l-.3-.25-.6.25H12.5q-1.7-.65-2.5-2.35-.35-.8-.3-1.4l.25-1.1-3.85.2q-.85-.15-1.55-.7l-.8-.85-.6-1.3-.1-1.55.3-1.95q.25-.65.85-1.4l1.1-1.25q1.5-1.5 4.05-2.1L14 24.1q1.6.25 2.45.9l1.65-.2 1.5.3zm12.55 11.35L28.4 35.9l-.05-.7q-.2-1.2-.8-1.5l-1.25.15q-.5.25-.75 1l-.2.65-3.95.2q-1.25.25-1.55.5-.85.6-.5 1.6.25 1 1.3 1l1.05-.15 4-.65 3.1-.15 1.45.05 1.95-.15 1.05.05.6-.15q.35-.25.1-.5zm.4-6.45-.45-.25q-.7-.55-1.45-.2-.85.25-.85 1.15-.1.85.65 1.25l1.05.4-.75 1.35q-.1.6.05.85.2.45.65.45l.45-.15.95-1 .4-.55.05-.05 1.1.65q.9.25 1.45-.35l.25-.7-.2-.75-.35-.35-.6-.4.6-.85.25-.45.05-.7q-.25-.6-.8-.85l-1.15.15-.45.45-.75.95zM23.2 11.9l-.15 3.5v.5l.15.75-.1.65-.15.35-.4.35q-.45.5-1.15.5l-1.35-.55-.65-.45-1.45-1.7-.95-1.4q-.2-.6.15-1.65l1.3-2.25.95-1q.45-.15 1.4 0l1.25.4.65.25q.75.45.6 1.35zm-3.1 1.35-.15.2.25.45.4.6.4.4-.1-2.55q-.25-.05-.35.25zm-5.45 2 2.4 1.2.8.55h.05l.4.35.95 1.25.6.6.5.65q.25.5.1 1.15-.4.95-1.7 1.25l-1.1.15-1.1.05-2.35.5-1.75-.35Q10.7 22 7.5 20.15l-.4.3q-1.25 1.1-2.4 1.35-1.15.2-2.3-.4-1.1-.55-1.75-1.6-.45-.6-.55-1.3-.15-.65-.05-1.5.3-3 1.95-6.2.8-1.6 1.7-2.6 1.2-1.3 2.7-1.6 1.35-.3 2.7.4 1.3.7 1.85 1.95.55 1.2.35 2.8l-.4 1.65zm-1.95 2.6L9.45 16.4q-.75-.3-.95-.5l-.05-.05q-.6-.25-.7-1.25 0-.4.35-1.75l.1-2.05-.15-.7q-.4-.5-1.1-.15l-.8.75q-.9 1.45-1.95 4.65l-.4 1.8q0 .85.45.9.3.1.85-.55.7-.75 1.65-.65l.2-.05 1.7.35q1.1.4 3 1.5l1.95.8 2.05-.25-.2-.4zm6.6 11.7-.55-.4-.55.45q-2.3 1.75-4.95 2.3-.1.65.1 1.3l.3.5.15-.05 6.6-.3q.4-1.45-.3-2.8z"/><path fill="#fff" d="m34.05 30.5.15.05.75-.95.45-.45 1.15-.15q.55.25.8.85l-.05.7-.25.45-.6.85.6.4.35.35.2.75-.25.7q-.55.6-1.45.35l-1.1-.65-.05.05-.4.55-.95 1-.45.15q-.45 0-.65-.45-.15-.25-.05-.85l.75-1.35-1.05-.4q-.75-.4-.65-1.25 0-.9.85-1.15.75-.35 1.45.2zm-.4 6.45.3.2q.25.25-.1.5l-.6.15-1.05-.05-1.95.15-1.45-.05-3.1.15-4 .65-1.05.15q-1.05 0-1.3-1-.35-1 .5-1.6.3-.25 1.55-.5l3.95-.2.2-.65q.25-.75.75-1l1.25-.15q.6.3.8 1.5l.05.7zm-14.35-7.4.8 1q.7 1.35.3 2.8l-6.6.3-.15.05-.3-.5q-.2-.65-.1-1.3 2.65-.55 4.95-2.3l.55-.45z"/></g></svg>