<svg xmlns="http://www.w3.org/2000/svg" xmlns:ffdec="https://www.free-decompiler.com/flash" ffdec:objectType="shape" width="74.65" height="43.6"><g fill-rule="evenodd"><path fill="#999" d="M3.15 4.75 2.6 4.1l-1.15-.95q-.65-.4-.9-1.1-.2-.5 0-1L1.2.2l1-.15q.55.05.9.45l.35.5L7.1 5.5l1.5 2.7.25.7-.5.5-.7-.1-.45-.4-1.95-2.1L3.8 5.3zM12.3 6.5q-.45.05-.65-.45l-.1-.85-.4-1.3-.55-1.2q-.4-1.05-.15-1.55.2-.4.75-.5.55 0 .85.45l.2 1.35.45 2.85.05.7zm50.5-1.1q2.2-.4 4.05 0 1.95.35 3.5 1.45l.05-.05.7-.55.8-.45q.6-.25 1.3 0 .7.2 1.05.75.5.8.4 2.25-.2 2.1-.9 4 .05 2.15-1.2 4.5-1.25 2.25-3.15 3.8l-1.9 1.2-.85.35q-.2 3.65 1.15 9.75l.15.7.75-1.05.25-1.7Q69.3 29 70.5 28.6q1.35-.45 2.3.35 1.7 1.25.9 4-.55 1.85-2.05 3.3-1 .9-2.15 1.5l.4.75q1 1.5 1.05 2.4.1.95-.65 1.75-.7.75-1.7.75-.9 0-1.8-.7l-.9.6-2.4.2-2.35.05q-1.25-.1-1.9-.75l-.25.1-1.85.05q-.9-.5-1.25-1.45-2.9 2.05-6.15 2.1-1.7.1-2.85-.6-1.1-.7-1.55-2.05-.5-1.3-.25-2.65.45-2.35 2.75-4.45 2.05-1.85 3.9-2.5l4.55-.1q.9-4.2 2.85-7.6L58.2 23 50 17.1l-.9-.5-.85-.05-1.65-.5q-1.3-.6-1.75-1.15-.75-1.05-.4-2.45.3-1.15 1.15-1.95l.3-.25-.7-.05q-.65-.05-1.15-.65-.5-.55-.4-1.25.1-1.2 1.15-1.6 1.1-.4 1.95.5l.25.3.5.35.2.35 1.05 1.3q.5.05 1 .35 1.05.65 1.4 1.7l.3.95q.25.7 1.45 1.55l2.6 2.1q-.2-1.6.2-3.25l-.2-1.65.05-1.8q0-2.35.55-3.6l.65-.9 1.95-.05 1.7 1.05.3.2q.95-.5 2.1-.75m-4.75 7.85q-.3 1.15.15 2.25l.1.05.4.6.8.5q1.6.75 3.05-.2l.65-.55q-.8-.35-1.25-.75-.7-.7-.95-1.8-.2-1-.05-2.05v-.05h-.45l-.75.15-.65.4-.55.45zm11.35 4q1.1.3 2.05-.4.85-.6 1.1-1.75.2-1.45-.8-2.3l-.55-.3-.3 1-.4.8q-.8 1.45-2.35 2 .45.75 1.25.95M49.25 24.1l.2.5q-.15.5-.95.15l-1.75-1.1-1.6-1.3q-1.5-1.25-5-3.5-3.4-2.15-5-3.55l-3.4-2.85-1.15-.75-.95-.9q-.6-.85-.45-1.7l-.1-.05-2.8-.4-2.85-.1-3.9.7q-2.1.5-3.05 1-1.2.65-2.75 2.4-3.3 3.7-3.9 6.65-.35 1.7-.1 3.75.2 1.75.6 2.8l1.25 2.35q1.2 2 2 2.8l1.3 1 1.8.15 21.9 3.45q1 .1 1 .75 0 .6-1 .7l-8.05.75-2.8.05L25 37.6l-.55.1-1.3-.05-3.35-.25-3.35-.45q-3.7-.65-6-2.75-.9-.85-2.5-3.2-1.45-2.15-1.85-3.2-.55-1.35-.85-4.35-.2-2.35 0-3.9.5-5.05 5.4-10.3Q12.5 7.3 13.8 6.6q1.6-.95 3.9-1.45 3.1-.85 5.55-.8 2.45.1 4.7.9 2.1.85 2.55 2.15l.4-.1q1.1-.2 2.8 1.15l5.45 5 5.45 5.25q2.55 2.55 4.65 5.4m6.05 11-2.55.05-.5.25q-1.65.9-2.65 2.25l-.65 1-.2.45-.05.5.15.35.25.05q2.7 0 4.8-1.35l1.65-1.05.1-2.25zM5.8 12.7l-1.25-.35-1.45-.6-1.45-.65-.9-.65Q.6 10.1.8 9.7q.2-.35.55-.45l.75.1q1.3.5 3.65 2.05l.7.5q.3.65-.2.8zm4.65 29.8-.9-.05q-.45-.2-.45-.8-.05-.3.25-.9l1.55-3 .3-.45.5-.05.2.5-.55 2.8-.25 1.1zM4.6 32.1l.95.15q.6.3.3.85l-.5.35L1.7 34.7l-1.3-.15q-.4-.5.1-1.1l1.1-.55 1.15-.35zm2.9 5-2.05 1.85-2.6 2.65-1.1.9q-.75.4-1.35 0-.4-.3-.4-.85t.35-.9l.75-.55 2.6-2.1L7.85 35q.4-.3.65-.3l.45.25.15.5-.5.65z"/><path fill="#fff" d="M69.4 17.25q-.8-.2-1.25-.95 1.55-.55 2.35-2l.4-.8.3-1 .55.3q1 .85.8 2.3-.25 1.15-1.1 1.75-.95.7-2.05.4m-11.35-4 .5-1 .55-.45.65-.4.75-.15h.45v.05q-.15 1.05.05 2.05.25 1.1.95 1.8.45.4 1.25.75l-.65.55q-1.45.95-3.05.2l-.8-.5-.4-.6-.1-.05q-.45-1.1-.15-2.25"/><path d="M12.65 34.6q-1.75-1.1-2.85-2.5-1.25-1.6-2-4t-.9-4.6q-.65-3.25.45-6.15 1.1-2.95 1.55-3.85l-.15-.95q-.1-1.45.4-2.25.85-1.2 2.4-.65l.5.15q2.6-2.35 5.75-3.25 3.15-1 6.5-.5 2 .25 3.9 1l.15-.35q.45-.65 1.9-1.1l1.55-.15q1.5.45 1.85 1.85.5 1.45-.35 2.5 3.45 2.15 4.25 7.15l.4 2q2.95 1.1 6.15 3.3 3.5 2.5 4.7 5.05l2.9-.05 2.95-.75q-.3-1 .2-2.15.5-1.05 1.45-1.6l2.05-.35q1.1.1 2 .85 1.7 1.55 1.6 4.1-.05 1.55-1 2.9-.9 1.3-2.25 1.8l-2.85.3-3-.45-4.25-.5-.55.6h.1l2.15.35 1.45.15h.9l.8.2.7.4q.7.6.35 1.45-.25.85-1.2.95l-.9-.1-.9-.35-.9-.15-2.4-.6-2.4-1q-2.1 1-3.7 1.25l-2.95-.05q-3.25-.25-6.85-1.25-2.65 2.25-5.4 3.1l-5.55.65q-3.35 0-5.25-.7-1.75-.5-3.45-1.7M29.8 11.55l-.5-.55-.15-.15q-.75-.6-2.3-.5h-.1l-.1.35-.45 1-.3.5-1.15 1.05-.55.3-.55.1-.05.4.05.6.6 1q.6.7 1.55 1l1.35.2.85-.05.65-.3q.8-.4 1.45-1.35l.3-1.85-.15-.95-.15-.3zM20.95 21.7V20q-.1-.55.45-.8l.85.1.55.6.4 1.05.45 1.3.5 2.15.5 2.15.2.7.1 2.55-.25 1.05q-.3.6-.8.6l-.65-.25-.65-.35-.75.05-1.5.55-1.5.65q-.95.3-1.55-.3l-.4-.65q-.6-1.65-.5-4.4l.1-1.5q-.1-.5-.05-1.3v-.4l.25-1.05.1-.8.2-.7.15-.25.05-.2v-.15l.05-.35.25-.5.25-.35q.4-.15.6.25l.2.7-.05 1.65zm-.6 11.4q1.2-.7 2.05-.3l1.15.8q.6.4 1.4.25.75-.15 1.1-.8l.3-1.55q.1-8.25-3.25-14.25-1.1-1.95-2.4-2.4v-1.1l-.1-1.15-.6-.5q-.5-.1-.8.2-.35.3-.45 1.05l-.05 1.45.05.15-.95.65q-.9.85-1.4 2.25-.7 1.7-1 4L15 26l-.1 2.35v2.75q.25 1.6 1.15 2.4 1.15 1.15 2.55.7l.9-.45zM11 18.45l1.3.25.25.05q.6 0 1.25-.4l.9-.95.3-.55.25-1.25v-.05h-.05l-1.45-.6-.9-.85-.25-1.1h-.35q-1.45-.05-2.35 1.2-.5.7-.5 1.65v.5l.15.5q.4 1.1 1.45 1.6"/><path fill="#fff" d="m29.8 11.55.3.5.15.3.15.95-.3 1.85q-.65.95-1.45 1.35l-.65.3-.85.05-1.35-.2q-.95-.3-1.55-1l-.6-1-.05-.6.05-.4.55-.1.55-.3 1.15-1.05.3-.5.45-1 .1-.35h.1q1.55-.1 2.3.5l.15.15zM20.95 21.7l-2.45.1.05-1.65-.2-.7q-.2-.4-.6-.25l-.25.35-.25.5-.05.35v.15l-.05.2L17 21l-.2.7-.1.8-.25 1.05v.4q-.05.8.05 1.3l-.1 1.5q-.1 2.75.5 4.4l.4.65q.6.6 1.55.3l1.5-.65 1.5-.55.75-.05.65.35.65.25q.5 0 .8-.6l.25-1.05-.1-2.55-.2-.7-.5-2.15-.5-2.15-.45-1.3-.4-1.05-.55-.6-.85-.1q-.55.25-.45.8zM11 18.45q-1.05-.5-1.45-1.6l-.15-.5v-.5q0-.95.5-1.65.9-1.25 2.35-1.2h.35l.25 1.1.9.85 1.45.6h.05v.05L15 16.85l-.3.55-.9.95q-.65.4-1.25.4l-.25-.05zm9.35 14.65-.85.65-.9.45q-1.4.45-2.55-.7-.9-.8-1.15-2.4v-2.75L15 26l.4-4.15q.3-2.3 1-4 .5-1.4 1.4-2.25l.95-.65-.05-.15.05-1.45q.1-.75.45-1.05.3-.3.8-.2l.6.5.1 1.15v1.1q1.3.45 2.4 2.4 3.35 6 3.25 14.25l-.3 1.55q-.35.65-1.1.8-.8.15-1.4-.25l-1.15-.8q-.85-.4-2.05.3"/></g></svg>