<svg xmlns="http://www.w3.org/2000/svg" xmlns:ffdec="https://www.free-decompiler.com/flash" ffdec:objectType="shape" width="76.2" height="42.55"><g fill-rule="evenodd"><path fill="#999" d="M.05 33.1q-.15-.5.35-.75l.85-.25 5.35-.3q8.25-.6 12.85-.15l4.55.55 6.65.8q-.15-.7.1-1.3l-1.05-.3-.15-.15-.5-.1-.75-.6q-.3-.5-.25-.95.15-.8 1.6-1.3 3-1.05 6.95-1.6l7.1-.75 7.95-.45 7.85.8q1.7.4 2.5 1.05l.8.95q.8.6.8 1.8l-.05.6 2-.4 8.45-.25q1.65.35 1.9 1.2.15.75-.4 1.25l.05.05.05.1.05.1v.05l.05.1v.15l.05.05v.1l.05.1v.2l.05.1v.3l.05.1v.45l.05.1v.05l.05.1v.35l.05.1v.95l.05.05v.65l.05.05v1.1l.05.1v1.8l-.05.05v.35l-.05.05-.05.1v.05l-.05.1v.25l-.05.1v.15l-.05.05-.05.1v.05l-.05.1-.05.1-.05.05-.1.1-.05.05-.15.1-.1.05-.15.1-.15.05h-.1l-.25.05h-.35l-.3-.05h-9.15L63.6 42h-6.9l-5.55-.05H48.9l-4 .05h-8.1l-1.45-.05h-.85l-1-.05h-1.05l-1.8-.05h-2.6l-3.25-.05h-6.9l-3.55.05H12l-.85.05H7.4l-.95-.05h-1.2l-.95-.05h-.9l-.6-.05h-.1q-.45.55-1.15.45-.75-.1-1.1-.65-.4-.6-.2-2.1l.1-2.7v-2.7l.05-.6z"/><path d="M62.6 36.2q-1.45 1.9-3.6 3.25-5.65 3.6-13.3 3.05-7.7.55-13.3-3.05-2.2-1.35-3.65-3.25l-1.3-2.3q-3.15-4.15-3.6-10.55h-.05L23.75 22v-1.45l.05-1.3h.05q.45-6.4 3.6-10.5l1.3-2.35q1.45-1.9 3.65-3.3Q38-.5 45.7.1q7.65-.6 13.3 3 2.15 1.4 3.6 3.3L64 8.75q3.1 4 3.6 10.5l.05 1.3V22l-.05 1.35Q67.1 29.8 64 33.9zm-9.4-15.5q-.1 1.75-.9 3l-1.1 1.25q.95.9 1.5 2.4l.45 1.55.15-.1 1.35-.75q2.15-.65 3.75.7.45-.15.65-1l.2-2.1v-.75q.2-.5.5-.5.45-.05.8.6.8 1.5.55 3-.25 1.7-1.55 2.55-1.25.8-2.2.2l-.55-.3-.65.15-1.1.8-1.3 1.75q-.75 1.15-1.55 1.5l-.1.05q-1.6 1.8-4.25 2.35l-1.35.35v.6q3.05-.15 5.95-1.35 7.05-2.75 9.35-8.3.8-2.05 1.15-4.95l.05-1.3h-5.9l.05-1.25h5.9l-.1-1.7q-.35-2.9-1.15-4.95-2.3-5.5-9.35-8.3-2.9-1.15-5.95-1.35v6.7l-1.25-.15V4.5q-2.95.05-6.3 1.4-7.05 2.8-9.35 8.3-.85 2.05-1.15 4.95l-.1 1.6h2.4v-.05h4.35q-.15.75-.15 1.5h-4.2l-2.35-.05.05 1.25q.3 2.9 1.15 4.95 2.3 5.55 9.35 8.3 3.35 1.35 6.3 1.4v-.5l-2.15-.05-1.65-.35-1.75-1.25-.85-1.05-.65-1.05-.3-.7-.6-1.6v-1.45l.35-1.9q.3-.85.8-1.55.75-1.1 1.5-1.65-.85-.95-1.2-2.05l-.2-2v-.1q.3 1.2 1.35 1.9 1.35.95 2.95.3 1.55-.6 1.9-2.25l.05-1.15q-.25-1.8-1.85-2.45-1.55-.75-3.05.25-1.35.85-1.45 2.4-1.65-.8-2.1-2.7-.5-2 .65-3.7.6-1 1.9-1.7.6-.35 1.2-.4l1.5.1 1.55.45 1.1 1.15.35.8 1.2.05 2 .1v-.05l.65-.65q1.15-.95 1.9-1.1l1.15-.05 1.55.2.95.65q.7.65 1.1 1.55.75 1.7-.45 3.6l-.95 1v.05l-.1-.8q-.2-.95-1-1.7-.75-.7-1.75-.85-1.25-.15-2.15.45-1 .6-1.4 1.8l-.1.95q-.05 1.05.7 2.1l.5.45q.8.65 1.85.7 1 .05 1.85-.5zm-8.45 4.9.95-.6q.4-.25 1.35-.35l1.55.05.65-.15q.3-.35-.15-.9-.3-.35-.75-.6l-1.15-.3-.1-.65q-.3-.5-.7-.5l-.1.05q-.35 0-.5.3l-.2.6v.35l-.25.05q-1 .25-1.45.8l-.3.75q-.05.45.15.75.45.5 1 .35"/><path fill="#fff" d="m38.55 20.8-.1-.7v-.3q.1-1.55 1.45-2.4 1.5-1 3.05-.25 1.6.65 1.85 2.45l-.05 1.15q-.35 1.65-1.9 2.25-1.6.65-2.95-.3-1.05-.7-1.35-1.9m15.15-1.65-.3 1.15-.2.4-1.1 1.05q-.85.55-1.85.5-1.05-.05-1.85-.7l-.5-.45q-.75-1.05-.7-2.1l.1-.95q.4-1.2 1.4-1.8.9-.6 2.15-.45 1 .15 1.75.85.8.75 1 1.7zm-1.95-1.1-.95-.6-1.1.05q-1.05.5-.95 1.65.15 1.1 1.2 1.45 1.15.25 1.8-.65.6-.95 0-1.9M43.5 20.5l-.65.85-1.05.2q-.55-.05-.9-.5-.4-.45-.4-1 0-.5.4-.95t.9-.55q.55-.05 1.05.25l.65.8zm-1.75-3.15q-1.15 0-1.9.85-.4.5-.55 1.05-.3.95.15 1.9.65 1.35 2.25 1.45 1.55.1 2.4-1.25.55-1 .25-2.1l-.35-.8q-.5-.65-1.2-.95l-.95-.2zm3 8.25q-.55.15-1-.35-.2-.3-.15-.75l.3-.75q.45-.55 1.45-.8l.25-.05v-.35l.2-.6q.15-.3.5-.3l.1-.05q.4 0 .7.5l.1.65 1.15.3q.45.25.75.6.45.55.15.9l-.65.15-1.55-.05q-.95.1-1.35.35z"/><path fill="#999" d="M51.75 18.05q.6.95 0 1.9-.65.9-1.8.65-1.05-.35-1.2-1.45-.1-1.15.95-1.65l1.1-.05zM43.5 20.5v-.9l-.65-.8q-.5-.3-1.05-.25-.5.1-.9.55t-.4.95q0 .55.4 1 .35.45.9.5l1.05-.2zm-1.75-3.15.1-.05.95.2q.7.3 1.2.95l.35.8q.3 1.1-.25 2.1-.85 1.35-2.4 1.25-1.6-.1-2.25-1.45-.45-.95-.15-1.9.15-.55.55-1.05.75-.85 1.9-.85"/></g></svg>