<svg xmlns="http://www.w3.org/2000/svg" xmlns:ffdec="https://www.free-decompiler.com/flash" ffdec:objectType="shape" width="75.4" height="41.15"><g fill-rule="evenodd"><path fill="#fff" d="M9.05 0h4.9l.15.4q.7 1.85 1.75 3.85l.35.3.4-.05.1-.05q1.95-.85 4.1-1.1h.3l1.4.2.75.75.3.6 1.95 3.95 1.25 2 .7 1.8.1.95q-.1.55-.55.7-.65.25-1.4-.7-3.45-3.85-4.25-6.35l-3.85 1.5-.6.25q-1.4.7-2.15.6-1.3-.15-2.45-2.25L9.65 2.1Q9.05.8 9.05.05zM25.8 0h4.65l.4 1.4.6 1 .8 1.65.5 1.15.25.85.15.8.25.65q.1.55-.25.9-.4.4-.85.3l-1.1-.6-.6-.3-.65-.5-1.55-1.75-.4-.6-1.2-1.7L26.1 2l-.3-.8q-.2-.65 0-1.2m16.4 0H47l-.15.75-.5.85-.5.55-.4.3-.3.35-.8 1.25-.1.1L43 5.7l-1.05.8-.55.35q-.65.25-1.15-.25-.5-.45-.45-1.1l.1-.6.15-1 .3-.65V3.2zm15.75 0h1.85l1.15.65L62.8 2.9 67.1 0h7.1l-.05.25-.5.8-2.2 1.45q-3.55 1.85-6.6 4.6-1.2 1.1-2.05 1.2-1.3.1-2.7-1.6l-.3-.4-1.1-1.45-.75-.6-.6.15q-1.5.65-4.1 2.2L49.2 8.9l-1.55.05Q47.3 8.6 47.5 8l.6-.8.75-.75Q51.4 4.1 56.7.65zM75.4 8.15v4.4l-.55.3-5.75 2.45q-4.1 1.5-5.8 2.3l-1.75.7q-1.05.2-1.8-.4L59 16.55l-1-2.95-1.35.65-1.9 1-3.25 1.6-1.1.2q-.7-.1-.9-.55-.3-.6.15-1.2l1-.8 6.9-4.6 1.1-.7.5-.15q1.2-.15 2.1 1.1l.85 2.3.15.35h.6l9.65-4.15q1.6-.7 2.45-.6zm0 11.45v5l-.65.2q-5.25 1.5-9.9 3.35l-2.05.45q-1.2-.15-1.7-1.3l-.25-1.05-.15-1.05-.25-.45-.6-.05-2.2.5-3.85.8-1.35.1q-.85-.1-1-.75-.25-.6.3-1.15l.95-.65q1.25-.6 3.45-1.15l1.6-.4 1.85-.6q1.4-.5 2.1-.4 1.25.25 2.25 2.15l8.6-3 2.3-.55zm0 16.4v4.5h-.6l-2.35-.45-4.4-.75-6.8-.7q-1.8-.1-2.45-.65-.6-.45-.9-1.5l-.4-1.85-3-.75q-1.8-.55-2.85-1.25l-1.05-.95q-.45-.75-.2-1.35.35-.75 1.4-.85l1.7.2 3 .5h1.1l1.75.05q1 .1 1.6.5 1 .6 1.25 1.85l.2.8q.2.25.7.35l6 1.05 5.95 1.15zm-21.5 5.15h-4.05l-.25-.2q-.9-.75-1.85-1.25l-.6-.35-.2-.15q-.85-.7-.75-1.95.15-1.3 1.4-1.9 1.25-.5 2.3.3l.75.7.6.75.7 1 .8 1.05.95 1.5zm-28.7 0h-2.7l-.2-.7.2-.85.3-.65.35-.45.75-1.2v-.05l.35-.55q.4-.65 1.05-1l.95-.2q1 0 1.7.85.65.85.35 1.85l-.35.8-.6.65-.95.7zm-15.8 0H0V39.5l.4-.45q.5-.4 2.15-.85l11.65-2.4-.15-1.65q.1-.95.75-1.45.5-.45 1.95-.55l1.75-.2 2.9-.75 1.3-.3q.8 0 1.1.55.4.6-.15 1.3l-1 .8-2.45 1.1-2.2.6v1.7q.1 1-.2 1.55-.35.75-1.6 1.2l-3 .7zM0 28.75v-4.8l.55-.15q.85-.15 2.85.65 3.15 1.35 6.55 1.95.45-1.65 1.2-3.15.75-1.2 1.25-1.5.7-.4 1.45-.25.8.15 1.3.75l.7 1.15 1.05.95.45.4 1.25.95 1.45 1.55.35 1.15q-.1.7-.75.8l-.85-.3-1.25-.6-.95-.5-2-1.3-.5 1.35-.35 1.4q-.5 1.75-1.65 2.2l-1.85.05q-3.75-.55-5.95-1.3l-2.7-.95zm0-25.5V.3L.2 0h3.55L4.8 2.1Q6.75 8 9.5 14.15l1.3-.9 1.25-1.05q1.65-1.25 2.95-.6.65.3 1.35 1.35l2.4 4.2 1.3 2.9q.55 1.45.05 2.1-.3.4-.9.45l-1.05-.25-.55-.45-.85-1.05-3-4.55-2.9 2.5-1.35 1q-1.35.5-2.65-.8-.65-.7-1.35-2.5L.35 4.15z"/><path fill="#717171" d="M3.75 0h1.1l.5.05h2.1L7.7 0h1.35v.05q0 .75.6 2.05l2.65 5.25q1.15 2.1 2.45 2.25.75.1 2.15-.6l.6-.25.65 2.45.25.5.4 1.6.5 1.1v.1l.05.1.15.55q-.45.95-.75 2l-2.4-4.2q-.7-1.05-1.35-1.35-1.3-.65-2.95.6l-1.25 1.05-1.3.9Q6.75 8 4.8 2.1zm10.2 0H25.8q-.2.55 0 1.2l.3.8.7 1.25 1.2 1.7.4.6-1.35.75-1.25-.65-2.55-1.35-.75-.75-1.4-.2-1.8-.6-1.2-.1-.45.15-.35.25-.4.5-.15.6-.05.3-.1.05-.4.05-.35-.3Q14.8 2.25 14.1.4zm16.5 0H42.2l-1.85 3.2v.05l-2.2-.05-2.8.2-3.1.65-.8-1.65-.6-1zM47 0h10.95L56.7.65q-5.3 3.45-7.85 5.8-1.55-1.2-3.1-1.85l-.95-.4-.45-.15.8-1.25.3-.35.4-.3.5-.55.5-.85zm12.8 0h7.3l-4.3 2.9L60.95.65zm14.35.25h.15l.1.05h.05l.1.05h.1l.15.05.15.05h.15l.05.05h.1l.15.05v7.6l-.45-.1q-.85-.1-2.45.6l-9.65 4.15h-.6l-.15-.35-.85-2.3q-.9-1.25-2.1-1.1l-.5.15 1.15-2.9.3.4q1.4 1.7 2.7 1.6.85-.1 2.05-1.2 3.05-2.75 6.6-4.6l2.2-1.45zm1.25 12.3v7.05h-.55l-2.3.55-8.6 3q-1-1.9-2.25-2.15-.7-.1-2.1.4l-1.85.6-.2-2.2q-.35-2.6-1-4.1l-.25-.6.35-.85L58 13.6l1 2.95.75 1.35q.75.6 1.8.4l1.75-.7q1.7-.8 5.8-2.3l5.75-2.45zm0 12.05V36l-.35-.1-5.95-1.15-6-1.05q-.5-.1-.7-.35l-.2-.8q-.25-1.25-1.25-1.85-.6-.4-1.6-.5l-1.75-.05h-1.1l.35-1.15.8-3.8 2.2-.5.6.05.25.45.15 1.05.25 1.05q.5 1.15 1.7 1.3l2.05-.45q4.65-1.85 9.9-3.35zm0 15.9v.65H53.9l-.2-.5-.95-1.5-.8-1.05-.7-1 .75-.6 2.5-2.65 3 .75.4 1.85q.3 1.05.9 1.5.65.55 2.45.65l6.8.7 4.4.75 2.35.45zm-25.55.65H25.2l1.2-.8.95-.7.6-.65 2.8.8 5.4.6q6.35.25 10.8-1.2l.2.15.6.35q.95.5 1.85 1.25zm-27.35 0H9.4l3.8-.75 3-.7q1.25-.45 1.6-1.2.3-.55.2-1.55v-1.7l2.2-.6.05.05q1.2 1.35 3.65 2.6l-.75 1.2-.35.45-.3.65-.2.85zM0 39.5V28.75l1.6.5 2.7.95q2.2.75 5.95 1.3l1.85-.05q1.15-.45 1.65-2.2l.35-1.4.5-1.35 2 1.3.95.5q.25 2 .95 3.65l-1.75.2q-1.45.1-1.95.55-.65.5-.75 1.45l.15 1.65-11.65 2.4q-1.65.45-2.15.85zm0-15.55V3.25l.35.9L5.5 16.5q.7 1.8 1.35 2.5 1.3 1.3 2.65.8l1.35-1 2.9-2.5 3 4.55.85 1.05q-.2 1.4-.25 2.85l-.45-.4-1.05-.95-.7-1.15q-.5-.6-1.3-.75-.75-.15-1.45.25-.5.3-1.25 1.5-.75 1.5-1.2 3.15-3.4-.6-6.55-1.95-2-.8-2.85-.65z"/><path d="m25.55 38.1-.75-.35q-3.1-1.45-4.55-3.05-2.9-3.15-2.9-9.35 0-5.4 2.15-10.2l-.15-.55-.05-.1v-.1l-.5-1.1-.4-1.6-.25-.5-.85-3.15-.25-.95-.35-2.35.05-.6.15-.6.4-.5.35-.25.45-.15 1.2.1 2.15.75 1.6.7.05.05 2.7 1.4 1.25.65q2.1-1.35 4.55-2.1l3.75-.8 2.8-.2q3.15-.05 5.8.75l.85.25.95.4q1.6.7 3.25 1.95l1.05-.5 2.5-1 1.45-.5.95-.35.7-.25.55-.25 1.75-.7q1.2-.2 1.75.45l.4.75v1.05l-.2.8-3.6 9.05.25.6q.65 1.5 1 4.1.6 4.85-.7 9.2-1.45 4.7-4.85 7.5-.95.8-2.05 1.4-5.1 2.85-13.8 2.5l-5.4-.6q-2.2-.45-5.2-1.7m23.3-21.2-.8-.5-1.05.05q-1.1.35-1.2 1.6-.1 1.2 1 1.7t2-.3.45-1.9zm1.95 1.7-.15.45-.3.65-.7.9q-.75.65-1.75.8l-1.9-.25q-.85-.4-1.45-1.2-.55-.85-.6-1.8-.1-2.15 1.8-3.2.85-.45 1.85-.4 1 .1 1.8.65t1.15 1.5q.4.9.25 1.9m.25 5.15-.4 5.7-.3 1.75 2.65.15 1.05-1.6 1.1-2.75.2-1.1.4-1.65q.1-.95-.45-1.55-.45-.6-1.25-.6H54l-.55-.05-.6.4zm-7.35 1.3v.75l-.75 3.7-.1.5 1.2.2 5.1.85.15-3.45v-1.95l-.05-1.15-4.05.6zM34.4 24l-.1.8-.8 2.35-.25 1.05 6.15 1.15 2.25.4q-.15-1.75.3-3.95l.4-1.1.1-.05-1.15-.55q-1.85-1-3.5-.7l-2.1.5zm10.15-1.75q2 1.25 4.3.6 2.25-.6 3.5-2.6l.55-1.3.1-1.4-.35-2q-.8-2.2-3.25-2.8-2.1-.6-4.35.55-2.4 1.15-2.9 3.2l-.1 1.3.1 1.3.45 1.15q.7 1.2 1.95 2m8 9.7h-1.2l-1.15-.05-.15.15-.45.15-.4-.3v-.05l-2.85-.15.05.15v.5l-.85 3.8v.25l1.25-.5 2.45-1.25q1.45-.65 2.6-1.9zm-8.85 5 .15-.5 1.05-4.8h.05L42 31.4l-4.15-.5-.1.55-.15.3-.25.75-.85 3.8-.45 1.55q3.95.1 7.65-.9M33.95 19.7q1.45-2.25.95-4.4-.5-2.2-2.8-3.65-.65-.4-1.6-.65l-2-.15-1.75.3-1.25.85q-2.45 2.25-2.7 4.65v.95l2.05-.25q2 .1 3.7.9l1.35.8 1.85 1.85.1.15.65.25zM27.8 17l-.4-.55q-.35-.6-.2-1.3.15-.75.7-1.15l1.25-.4q.75 0 1.25.45.55.45.65 1.15.15.75-.2 1.3l-1 .85-1.35.05zm-7.85 8.35 1.35.15 3.3.85v-.1l.45-2.25v-.25l.55-2.3.3-.65.05-.45q.05-.35.3-.55l-.45-.15-.35-.1-1.35.1-.95.3-.8.55-.05.05q-1.3 1.05-1.85 2.3l-.35 1.3zm7.55-4.75-.4.45-1.45 4.55-.2.95 6.8 1.45.1-1.1.35-2.3q.1-.5.35-.75l-1.6-.55q-1.75-.8-3.55-2.4zm-1.4 14.85.05-1.1 1-4.6v-.8l.15-.4-6.85-1.2-.4-.1.35 1.65q.75 2.4 2.55 3.95 1.05 1.2 2.35 2.1zm8.65 2.3v-.25l.4-2.3.1-.3.3-1.9.15-.4.2-.7.1-.2-.1-.25-.1-.4.1-.5-3.15-.7-3.45-.9-.05.3-.2.35q-.4.65-.55 1.4l-.35 1.1-.1.35-.05.4-.3 1.2-.4 1.05-.2.85 4 1.25z"/><path fill="#fff" d="m48.85 16.9.4.65q.45 1.1-.45 1.9t-2 .3-1-1.7q.1-1.25 1.2-1.6l1.05-.05zm1.95 1.7q.15-1-.25-1.9-.35-.95-1.15-1.5t-1.8-.65q-1-.05-1.85.4-1.9 1.05-1.8 3.2.05.95.6 1.8.6.8 1.45 1.2l1.9.25q1-.15 1.75-.8l.7-.9.3-.65zm-6.25 3.65q-1.25-.8-1.95-2l-.45-1.15-.1-1.3.1-1.3q.5-2.05 2.9-3.2 2.25-1.15 4.35-.55 2.45.6 3.25 2.8l.35 2-.1 1.4-.55 1.3q-1.25 2-3.5 2.6-2.3.65-4.3-.6M34.4 24l1.3-.1 2.1-.5q1.65-.3 3.5.7l1.15.55-.1.05-.4 1.1q-.45 2.2-.3 3.95l-2.25-.4-6.15-1.15.25-1.05.8-2.35zm9.3 1.05 1.5.05 4.05-.6.05 1.15v1.95l-.15 3.45-5.1-.85-1.2-.2.1-.5.75-3.7zm7.35-1.3 1.8-1.3.6-.4.55.05h.05q.8 0 1.25.6.55.6.45 1.55l-.4 1.65-.2 1.1-1.1 2.75-1.05 1.6-2.65-.15.3-1.75zm-7.35 13.2q-3.7 1-7.65.9l.45-1.55.85-3.8.25-.75.15-.3.1-.55 4.15.5 2.95.25h-.05l-1.05 4.8zm8.85-5-.7.8q-1.15 1.25-2.6 1.9L46.8 35.9l-1.25.5v-.25l.85-3.8v-.5l-.05-.15 2.85.15v.05l.4.3.45-.15.15-.15 1.15.05zM33.95 19.7l-1.45 1.6-.65-.25-.1-.15-1.85-1.85-1.35-.8q-1.7-.8-3.7-.9l-2.05.25v-.95q.25-2.4 2.7-4.65l1.25-.85 1.75-.3 2 .15q.95.25 1.6.65 2.3 1.45 2.8 3.65.5 2.15-.95 4.4M27.8 17l.7.4 1.35-.05 1-.85q.35-.55.2-1.3-.1-.7-.65-1.15-.5-.45-1.25-.45l-1.25.4q-.55.4-.7 1.15-.15.7.2 1.3zm-7.85 8.35.15-1.2.35-1.3q.55-1.25 1.85-2.3l.05-.05.8-.55.95-.3 1.35-.1.35.1.45.15q-.25.2-.3.55l-.05.45-.3.65-.55 2.3V24l-.45 2.25v.1l-3.3-.85zm14.8 12.4-3.65-.55-4-1.25.2-.85.4-1.05.3-1.2.05-.4.1-.35.35-1.1q.15-.75.55-1.4l.2-.35.05-.3 3.45.9 3.15.7-.1.5.1.4.1.25-.1.2-.2.7-.15.4-.3 1.9-.1.3-.4 2.3zm-8.65-2.3-.8-.5q-1.3-.9-2.35-2.1-1.8-1.55-2.55-3.95l-.35-1.65.4.1 6.85 1.2-.15.4v.8l-1 4.6zm1.4-14.85.4.3q1.8 1.6 3.55 2.4l1.6.55q-.25.25-.35.75l-.35 2.3-.1 1.1-6.8-1.45.2-.95 1.45-4.55z"/></g></svg>