<svg xmlns="http://www.w3.org/2000/svg" xmlns:ffdec="https://www.free-decompiler.com/flash" ffdec:objectType="shape" width="68.5" height="33.9"><g fill-rule="evenodd"><path fill="#767676" d="m58.15 5.4-.65-.1-.25-.35-.4-.4-.85-.7q-.55-.35-.6-.85-.05-.35.25-.95.45-.75 1.2-1l1.2.1.25.1.3-.3q.55-.4 1.2-.3.7.1 1.05.6l.3 1.2-.2.85q-.35.6-1.1.85l-.9.45zM31 4.35Q36-.2 41.9 0q3.1.1 5.7 1.8 2.7 1.7 3.85 4.45.9 2.05.8 4.5 0 1.9-.65 3.5-.7 1.65-2.45 3.4-3.35 3.3-8.2 4.8l-2.1.65-2 .85q-1.8 1.05-3.3 3.4l-2.35 4.3-.7.6-.4-.3q-.55-.05-1.05-.5l-1-1.15q-1.75-2-5.6-2.9l-3.1-.75-3.05-.95q-3.65-1.65-5.4-5.1-1.8-3.5-1-7.4.2-1.3 1.1-3.45l1.45-2.95q2.1-3.4 5.8-4.9 1.65-.65 3.15-.8 3.2-.45 6.1.75 2.1.9 3.5 2.55zm18.25 18.5q.55-.75 1.8-1l2.65.1q1.5.5 1.95 1.8l.2 1.15q.1 1.05-.3 1.7l-.75.75-1.85 1.25-.6.3-.5.55-.3.35q.35.7-.3 1.15l-1.1.1-.45-.3-.5-.15-2.3-.9-.85-.25-.75-.4-.5-.55-.35-.6q-.3-.55-.2-1.3l.35-1.05q.65-1.2 1.45-1.7.75-.5 1.9-.4l.95.1zm4.1 3.2.45-.5q.2-.35 0-.8l-.6-.65-1.2-.15q-.55.1-.75.25-.35.2-.65.9-.25.55-.7.75-.65.35-1.2-.3l-.05-.1-.2-.05-1.1.1q-.6.25-.85.8-.3.65.05 1l.45.35.75.35 1.3.4.65.3.75.2.15-.4 1.25-1.4zM7.7.15 8.75.2q1.1.1 1.75.6l.6.7.5.8.1 1.65-.2 1q-.4 1.1-1.35 1.65l-1.9.95-1.35.55-.6.6-.35.4-.35.35q-.6.45-1.2 0L3.85 9 2.1 8.15.6 7.1Q.25 6.6.15 5.9q-.2-.75-.1-1.8l.15-.7.3-.6.9-1.15.6-.35 2.5-.2.6.2Q6.2.3 7.7.15m-1.85 6.9q.2-.2.7-.5l1-.5 1.55-.9q.8-.6.8-1.5-.1-.85-.85-1.2L8.5 2.3h-.8q-.85.2-1.3.75L6 3.6l-1.25.05-.4-.6-.6-.1-1 .15-.55.8Q1.95 4.55 2 5l.25.75.35.25q1.6.6 2.35 1.2l.45.4zM10 29.6l-.55.6H9q-.5.05-.8-.3l-.3-.3-.45-.15q-.95-.2-1.25-.8L6.1 28q0-.65.15-.95l.55-.55q.7-.4 1.1-.4l.55.1.7-.7 1.95-.1q.65.35.85 1.1t-.2 1.4l-.85.85z"/><path d="m54.95 29.1.35-.75q.25-.5.7-.35.6.05.75.9l.2.7.9.05q.65.35.65 1.1 0 .7-.65 1.05l-.7.1-.3.85q-.45.65-1.1.5l-1-.75-.05-.6v-.25l-.65-.1-.75-.25q-.3-.35-.15-.95.25-.35 1.2-.45l.5-.1zm9.4.75-.6-.05-.3-.45-.5-.4-.7-.35q-.25-.05-1.05.4l.1.85.35.2 1.3.95.7.5.6.2 1.05-.7q1.2-.7 1.55-1.75l.05-.5q-.15-.45-.65-.3-.7 0-1.1.55zm1.7-2.85q1.55-.15 2.2.75.35.55.2 1.6l-.35 1.15-1.1 1.05-.5.35-.25.3-.45.4-.95.7-.35.45-.35.15q-.7 0-.95-.8l-2.5-1.5-.55-.25-.3-.45-.4-.95.3-1.4q.25-.75.6-1 .45-.45 1.05-.55l1.9.2.8.6q.75-.7 1.95-.8M30.4 5.8q-4.8.6-7.6 1.35l.35 3.75q6.2-1.55 12.55-2.6l.6-.25.1-.4.1-2.65zm-9.55 24q-.85-.6-.95-2.55l-.25-10.15q-.15-6.15-.95-10.15-.3-1.8.2-2.55.55-.7 2.05-1l5.55-.95 3.4-.2.4-.1 3.45-.7 1.35-.1 1.3-.2 2.65.15q.65.55.6 2.25l.15.9.1 5.95q0 6.75.45 9.6 1.65-.1 2.85 1.1 1.15 1.05 1.15 2.8-.1 1.15-.65 1.9-1.3 1.85-4.75 1.95l-1.75-.25q-1-.55-1.1-2.05l.2-2.4q.25-1.9.05-5.25-.25-3.75-.15-5.3l.25-1.7-9.35 1.4-3.8.55.45 10.15q2.65.1 3.65.85.8.55 1.15 1.55t.05 1.9q-.45 1.7-2.4 2.5l-3.5.55q-1.3 0-1.85-.45"/></g></svg>