<svg xmlns="http://www.w3.org/2000/svg" xmlns:ffdec="https://www.free-decompiler.com/flash" ffdec:objectType="shape" width="77.15" height="38.95"><g fill-rule="evenodd"><path fill="#999" d="m62.95 15-.3-.9.05-1.5.2-.8q.45-.85 1.35-.75.95.1 1.2.95.25.95-.45 1.5l-.55.5-.3.55-.3.65-.25.3-.4-.1zm-2.7 5.3.1-.65.35-.7.2-.25.5-.5q.85-.6 1.75-.5 1.4.1 1.95 1l.25.4.15.75-.15.7-.35.8-1.35.9-.6.2-1.5-.15q-.75-.3-1.1-1.05zM39.5 7.95l-.3.05-.3-.3v-.4l.55-1.5q.35-.55 1.25-1.55l1.35-1 2.05-.65.85-.1q.95.1 1.35.9.45.7 0 1.6-.55.8-1.35.8l-1.25-.15-1.5.3-1.35.75-.5.4-.3.45zm.25 13.65-.05 3.85h6.15l7.65.05h.6l1.15.05h1.05l7 .05h2.4l2.2.05h5.45l1.05.05h.55l.3.05h.2l.2.05h.1l.15.05h.15l.35.05.25.05.15.1.05.05.05.1.05.05.05.1v.4l-.05.05-.05.1-.05.05-.1.1-.1.05h-.05l-.2.05h-.1v.35l.05.1v1.3l.05.1v5l.05.1v1.45h.15l.1.1.1.1.1.05.05.1.05.05.05.1.05.05v.1l.05.05v.35l-.05.05v.1l-.05.05v.1l-.05.05-.05.1-.05.1-.1.05-.1.1-.1.05h-.1l-.1.05h-.2l-1.25.05h-2.8l-.6.05h-34.9l-.5.4q-1.15.9-2.55.4l-1.2-.8H21.05l-.65-.05h-.7l-.6-.05h-.65l-2.3-.05h-.45l-.45-.05h-.65l-.8-.05h-3.75l-4.4-.05h-1.8l-1-.05H2.3l-.15-.05h-.1q-.3.3-.75.2-.7-.1-.7-.8-.1-.65.5-.85v-.6l.05-.05v-.25l-.05-.1v-2l.05-.1v-.9l.05-.1V28.7l.05-.1v-.05l-.05-.1v-.2l-.05-.1.05-.1v-.2l.05-.1v-.05h-.3l-.2-.05-.15-.1-.1-.05-.1-.1-.1-.1-.05-.05-.05-.1-.05-.05L.1 27l-.05-.05v-.1L0 26.8v-.5l.05-.05v-.15L.1 26l.05-.1.05-.05.1-.1.05-.05.1-.1.05-.05.15-.1.1-.05h.1l.1-.05h1l.7-.05h1.2v-.05h9.9l1.85.05h.7l.75.05h2.25l3.25.05h9.3l-.1.5q-.05.55.45 1l1.1.05.6-.5.3-.4.2-.2.55-.3.8-.45.45-.15.35-.2.7-.1.8-.25.1-.05-.1-.15h-.2l-.7-.3-.65-.1-1.75.05q-.55.15-1.3.45l-.7.3-.7.5v-.6q-.85-.2-1.5-.9-.65-.75-.75-1.65v-.3l.35-.1.6-.35.7-.6.45-.5.75-.35.9-.55q.7-.4 2-.6l1.35-.25 1.65-.05.3-.2q.15-.1-.1-.35l-.4-.1-2.95-.4-1.75.1-1.35.25-.9.35-1.1.3-.2.1-.45-1.4q-.4-1.25-.3-2 .1-.65.55-1.3l.05-.45q.15-.65.85-1.3l1.35-.8 1-.4 1.3-.4 2.25-.05 1.65.2.15.05q1.65.2 2.55 1.1.6.65.65 1.5 0 .85-.5 1.4v-.05q0-.55-.35-.9l-.75-.35q-2.75-.9-5.75-.1l-1.2.35-.6.25-1.65.7-.3.25v.3l.5.05 2-.4 1.95-.1.95.05 1.2.15.6.15.95.25q.9 1.35 1 4.2l-1.05.05-1.55.3q-1 .3-1.85.8l-1.25.7-.45.5-.15.3-.1.15.05.15h.1l.2-.25.7-.2.45-.05 1-.25 1.55-.15 1.6.15zm-3.2-14.7-.35-.35-.25-1.05v-.35L35.1 3.5l-.75-.55-.55-.75q-.2-.5-.05-.95.25-1.1 1.4-1.2L35.3 0q1.1.1 1.5 1.05l.25.9.15 1.95-.05 1.8-.2.8zm-3.2 1.25-.1-.3-.45-.3-.2-.3-.25-.15L31 6.5l-.6-.2-.7.1-.9-.25q-.4-.3-.5-.8-.1-.45.1-.9l.7-.7 1.55-.1.45.1.45.2q1.2.6 1.75 1.5l.4.65.15.5.35 1.15.05.7q-.2.4-.55.3zM12.2 16.5q.2-.2.55-.3.8-.25 1.45.35.8.7.55 1.6v.3l.15.3q.5.75.35 1.55-.15.95-.9 1.4-.65.5-1.5.35l-.4-.1q-.85-.3-1.3-1-.45-.6-.55-1.55l.1-.7q.35-1.45 1.5-2.2m.65-2.75-.1-.35-.3-.4-.5-.3q-.75-.6-.45-1.5.25-.95 1.2-.95.95-.1 1.3.85l.1 1.1-.4 2-.55.4-.3-.4z"/><path fill="#fff" d="m31.85 25.4.15-.25.05-.05.7-.5.7-.3q.75-.3 1.3-.45l1.75-.05.65.1.7.3h.2l.1.15-.1.05-.8.25-.7.1-.35.2-.45.15-.8.45-.55.3-.2.2-.3.4-.6.5-1.1-.05q-.5-.45-.45-1zm-2.05-3.75q-.7.05-1.1-.6-.5-.85-.05-1.6l.55-.6q.35-.3.9-.5l.2-.1 1.1-.3.9-.35 1.35-.25 1.75-.1 2.95.4.4.1q.25.25.1.35l-.3.2-1.65.05-1.35.25q-1.3.2-2 .6l-.9.55-.75.35-.45.5-.7.6-.6.35zm11.4-7.15-.35.85q-.35.35-.8.35-.35-.05-.95-.45l-.35-.15-.95-.25-.6-.15-1.2-.15-.95-.05-1.95.1-2 .4-.5-.05v-.3l.3-.25 1.65-.7.6-.25 1.2-.35q3-.8 5.75.1l.75.35q.35.35.35.9zm-1.45 4.8h.2l.65.25.35.25q.6.5.15 1.25-.35.6-1.1.6l-.25-.05-.75-.1-1.6-.15-1.55.15-1 .25-.45.05-.7.2-.2.25h-.1l-.05-.15.1-.15.15-.3.45-.5 1.25-.7q.85-.5 1.85-.8l1.55-.3z"/><path d="m61.3 17.1 1.4-.45.05.4.1 1.2q-.8-.1-1.25.25-.25.2-.35.55t.1.55l.05.1v.15q.1.6.55.9l.15.3.45.5.35.3.35-.15v-.85l-.2-.45-.15-.25-.1-.3h.05l.85-.05.65-.5-.1-.75-.2-1.85v-.1l1.5.3.55-.55.8-.55 1.6-.15 1.15.3.8.5 1.1 1.1.2.55q.4 1.85-1 3l-1.3.65-.1.05-.15 1.05q-.35 1.3-1.35 2.35l-.6.6 1 .9.55 1.1q.5 1.3.5 2.4l.8-.25 1.75-.15.65.15.75.7q.25.55.1 1.05l-.25.45-.7.85-.95.4-2.95.5-.8.1-.4.1-.7.1-.35.05-3.55.25q-1.9-.2-2.8-1.2l-.75-1.55-.25-1.4.15-1.05q.15-.85.45-1.55.25-.6 1-1.35-1.4-.65-2.05-1.9l-.1-.2-1.35-.35-.9-.45q-.5-.3-.85-1-.55-1.3-.1-2.5l.25-.5.75-1.15 1.1-.7.9-.25q.95-.1 1.65.55l.15.15q.7-.7 1.35-1m7.7 5.4q.25-.95-.4-1.7-.6-.75-1.6-.75-.6 0-1.15.4-.5.4-.7 1-.45 1.3.65 2.15 1 .8 2.2.2.75-.35 1-1.3m-26.15 4.85q1.05 2.2 1.7 4.75l3.05-5.9q1.4-2.65 2.1-3.55l.35-.3.45.1v.4l-1.15 2.7q-.9 1.8-1.15 2.7l-.4 1.35-1.3 2.85-1 3.1-.35 1.25-.2 1.05q-.2.65-.85.95l-1.25.05-.85-.65h-.15l-2-.05-2.7.15-1.15-.05-.25-2.2-.05-1.45-.2-1q0-.45.7-1.95l.8-2.4 1.85-4.45.15-.75-.1-.45-.25-.6-1.05-.95-1.1-.75 3-8.25 1.25-3.5.4.05.85-.9q1.55-1.15 4.15-.85l1.25.3 1 .7.85.8.45.8.65 1.6q.3 1.15-.15 2.3-.35 1.1-1.3 1.85l-1.2.85.15.65-.05 1.55q-.25 2.4-.8 3.45l-.75 1.35Q45 25.75 43.3 26.6l-.75.3zM58.9 22.2q-.25.6-.1 1.15.15.65.7 1.05l1.2.35q.6-.05 1.1-.5l.55-1.15q.1-.6-.3-1.15L61 21.2l-1.2.15q-.65.3-.9.85m-13.65.55q.25-.3.05-1l-.3-.9.7-.3q.6-.15 1-.5.5-.5.25-1.05-.15-.6-.85-.7-.45 0-.9.35l-.75.55-.05-.2-.3-.75q-.25-.35-.65-.35-.35 0-.6.4-.15.3 0 .8l.3 1-.15.1-.65.25-.55.4q-.35.55 0 .75h.25l1.6-.3.05.1.45 1.15q.2.25.55.35zM69 31.9l-.3.55.95-.15 1.65-.5q.5-.2.65-.4.3-.3 0-.5l-.2-.1-1.5.05-1 .15zm-41.35-5.6q-1.8-1.2-2.6-3l-.8-2.65-.25-2.6-.4-.4-1.3-1.3-.35-1.3q-.25-1.6.1-2.95.4-1.55 1.5-2.5 1.4-1.2 3.75-1.3l1.1.1q1.05.25 1.75 1.3l2.1-.6-.1.6-.7 5.6q-.15 1.05-.15 3.45l-.1 2.1q0 1.1.35 1.6l1.15.65 1.9.6.85.25-.15.85-1.45 7.4-.15 1.2.55 1.2.9 2.3.2.85-1.45.2-3.4.8q-2.05.3-3.15-.95-.7-.7-.8-1.9-.4-2.7.6-5.3.75-2.05 2.25-3.5zm1.5-6.05.4-.25.05-.45-.8-.7h-.05l.05-.1q1-1 1-1.5.05-.45-.35-.8-.35-.35-.8-.3-.7.1-1.3 1.3l-.05.15-.35-.45q-.25-.3-.7-.3-.5 0-.75.35-.25.3-.2.75l.45.7.75.25.1.1-.5 1-.2.8q0 .55.45.6.45.15.9-.55l.7-1 .6.25zM11.6 15.6l.85-.05-.65 2.6q-.2.6-.05.85l.8.35.9.05-.05.05-.15.4-.25.95v.35l.2.1.15-.2.7-.65.55-.9.15-.4-.05-.3-.4-.65-1.05-.25.45-2.25.7.2.8.35.9-.4.9-.1 1.85.05q1.15.4 1.55 1.55l.15 1-.05.55-.1.45q-.3.9-.9 1.5l-.5.5q-.45.35-1 .5l-.25.8q-.8 1.9-2.8 2.95l.45.5.5.9.15.85-.05 1.1q-.25 1.6-1.35 2.65-1.1 1.1-2.65 1.25l-1.95-.1h-.3q-1.05.05-2-.45-.55-.35-.85-.25t-.5.65l-.3.8q-.3.45-1.1.45l-1.55-.3-.45-.3-.2-.6v-.85l.3-.65.25-.35.25.05-.1.9q.05.35.7.55l.85.05q.1-.6.35-1.05l.65-.65q.5-.3.95-.45l-.3-.65q-.25-1 .15-1.9.35-.85 1-1.65l.65-.7-1-.75q-.95-.9-1.2-2.1v-1.4q0-.65.15-1.2-.8-.7-.85-1.7l.05-.65q0-.55.15-1l.7-1.1.6-.6q.8-.7 2.25-.5l.65.15q.75.25 1.2 1.2zm2.95 5.45q-.4.4-.5 1t.25 1.1l.85.65 1.1-.05.85-.75.15-1.05q-.05-.55-.55-.95t-1.05-.4l-.65.15q-.3.1-.45.3m-7.25.25q-.1 1.1.9 1.6.9.5 1.8-.2.85-.6.6-1.7-.1-.55-.65-.95-.5-.4-1.15-.35-.6.05-1.05.5-.4.5-.45 1.1"/><path fill="#fff" d="M69 22.5q-.25.95-1 1.3-1.2.6-2.2-.2-1.1-.85-.65-2.15.2-.6.7-1 .55-.4 1.15-.4 1 0 1.6.75.65.75.4 1.7m-23.75.25-.55.15q-.35-.1-.55-.35l-.45-1.15-.05-.1-1.6.3h-.25q-.35-.2 0-.75l.55-.4.65-.25.15-.1-.3-1q-.15-.5 0-.8.25-.4.6-.4.4 0 .65.35l.3.75.05.2.75-.55q.45-.35.9-.35.7.1.85.7.25.55-.25 1.05-.4.35-1 .5l-.7.3.3.9q.2.7-.05 1m13.65-.55q.25-.55.9-.85l1.2-.15 1.05.75q.4.55.3 1.15l-.55 1.15q-.5.45-1.1.5l-1.2-.35q-.55-.4-.7-1.05-.15-.55.1-1.15m-29.75-1.95-.6-.15-.6-.25-.7 1q-.45.7-.9.55-.45-.05-.45-.6l.2-.8.5-1-.1-.1-.75-.25-.45-.7q-.05-.45.2-.75.25-.35.75-.35.45 0 .7.3l.35.45.05-.15q.6-1.2 1.3-1.3.45-.05.8.3.4.35.35.8 0 .5-1 1.5l-.05.1h.05l.8.7-.05.45zM7.3 21.3q.05-.6.45-1.1.45-.45 1.05-.5.65-.05 1.15.35.55.4.65.95.25 1.1-.6 1.7-.9.7-1.8.2-1-.5-.9-1.6m7.25-.25q.15-.2.45-.3l.65-.15q.55 0 1.05.4t.55.95L17.1 23l-.85.75-1.1.05-.85-.65q-.35-.5-.25-1.1t.5-1"/></g></svg>