<svg xmlns="http://www.w3.org/2000/svg" xmlns:ffdec="https://www.free-decompiler.com/flash" ffdec:objectType="shape" width="68.5" height="37"><g fill-rule="evenodd"><path fill="#999" d="m56.35 12.5.3 1.5v1.85l-.05 1.9-.4 1.65-.95 2.2-1.9 2.3-1.8 1.65q-1.35 1-4.35 2.05l-2.05.65-4.65 1.1q-2.1.6-2.7 1.6l-.05.05 4.3.9 2.3.1 1.9-.2 2.9-.85-.05-.5q.1-.45.85-.75l1.85-1.2q3.35-2.7 4.6-7.6L57 18l.2-1.9.05-.7-1-4.4-.75-3.45-.05-1.4-1.25-.35q-.25-.05-.5-.3l-.25-.25-.5-.7v-.7l.15-.95.3-.7.3-.35.65-.45.75-.1 1.65.25.55.4V1.9Q58.4.95 59.7.65q1.35-.35 2.7 0 1.3.35 2.3 1.2.35-.2.75-.25l1 .05.45.2.35.25.8.8q.55.65.4 1.55l-.4.95-.85.85-.2.1.25 1.4q.4 4.15-1.7 10.2-.55 3.1-2.05 6l-1.5 2.5-1 1.25q-2.85 3.2-5.7 4.7l-4.9 2.1-1.3.25-11.75-.4-3.4-1.35-1.15-.55-1.15-.25-1.9-.55-1.9-.4-3.35.6-2.9.9q-1.75.85-3.4 1.85l-3.25 1.6-1.3.25q-3.5.45-6.85-.75l-2-1.05q-1.05-.95-1.2-2.3-.25-1.4.55-2.5.4-.6 1.35-1.25 1.8-1.2 4-1.4h.8l.65-.15 1.15.05 1.7.1 1.3.25q.85.15 1.35.55l.35.45.05.2.15.65-.4.5-.8.05-4.5-.3-1 .1-2.6.95-.7.5-.15.55q.05.6 1.05.95 2.45.85 4.45-.05l1.2-.65 2.8-.15.4.2q3.35-2.1 6.75-3.45.85-.4 1.55-.55l1.6-.3 3.7-.2q2.1.1 3.6.9l.75.4 1.7.55.3.15.9-.95q1.1-.9 3.8-1.8l1.8-.6 1.45-.35 2.4-1 2.05-1 .95-.7 2.1-2.2q2-2.8 1.45-6.15l-.3-1.4q-.8-2.8-2.05-4.4-1.75-2.2-4.1-2.4L44 6.9l-.1.05-1.4 1.1-.95 1.15q-.7 1-1.5 2.8l-1.35 2.9q-1.8 3.35-5.55 5.65-1.05.65-2.1 1.1-1.25.55-4.25 1.5l-1.25.4-.65.25-4.95 1.9-5.3.55-2.4.4q-1.75 0-3.75-.75l-.85-.3-1.1-.55-2.05-1.2q-1.95-1.3-2.9-3.2l-.2-.45v-.1l-.05-.1-.95-2.5q-.6-2.1-.25-5.05L.4 10.9q.25-.9 1.05-2.7L2 7.05l-.6-.4-.35-.35q-.3-.35-.3-1.45l.15-.9.25-.4L1.6 3l.5-.35.8-.35 1.7-.1.95.4Q7.4 1.1 9.65.4q3.4-1 5.55.4l1.45 1.35.1-.05.9-.1.1-.05q1 .1 1.55.85l.15.3.1.8-.1.7-.45.75-.55.4-.1.1q.1 1.35-.5 2.75-.9 2.15-3.1 3.2l-2.85.9q-1.85.45-2.75 1.15l-1.4 1.5q-1.2 1.7-1.3 2.75l-.05 1 .2.4.85 1.1q1.5 1.35 3.6 1.8l4.05.35 2.1-.15q2.4-.3 6.45-2.15l1.95-1.05 1.95-1.45 2.15-1.1q3.1-1.6 4.8-3.9 1.15-1.5 2.8-4.9 1.75-3 3.95-3.95l1.35-.45q3.85-1 6.6-.1 2.3.75 4.1 2.75l1.5 2.1q.95 1.7 1.55 4.1m7.85-2.25-.35-1.15-.8-.8-.85-.2-.2-.55q-.15-.3-.6-.4l-.1.05q-.45.1-.6.5v.5l-.25.05q-.9.35-1.05 1.15l-.1 3.15L60 16q.35.75.9 1.05l1.4.1 1-1.25.35-.9.15-1.2.2-.75q.4-1.45.2-2.8m-4.5-6-.2-.2-.65-.35-.9-.1-.05.05-.6.1-.35.25-.1.2-.45.65-.05.55q0 .85.25 1.2l.35.35.7.45.6.05.55-.05.45-.2.3-.2.2-.25.25-.6.05-.5L60 5.3v-.25l-.2-.6zm5.55-.15-.65-.4-1.15-.1-.25.1-.3.2-.3.3-.2.45-.1.9.05.3.1.15.1.35.25.4.3.25.4.2.8.05.4-.15.6-.45.2-.25.15-1.05-.05-.5-.25-.55zm-7.7 1.2q.2-.45.6-.35V4.9q.45 0 .6.35l.1.3-.05.2-.3.35-.25.1-.4-.1-.25-.3-.1-.25v-.1zm-41.2-1.2.1.65q-.1.75-.85.85-.5 0-.8-.3l-.25-.45q-.15-.4.15-.85.35-.35.75-.35l.05-.05q.5.05.85.5M12.9 6.7q-.25-.25-.6-.35.1-.65-.15-1-.35-.45-.95-.3-.3.05-.5.55l-.1.75-.25.05q-.65.25-1.7 1.5l-.9 1.25q-.5.85-.75 1.8-.25.6-.15 1.25.1.8.55 1.1l.85.3.85-.35.3-.3.95-.65.7-.45 1.65-1.35.8-1.15.15-1-.05-.6-.25-.5zM5.05 4.6q-.3.6-.3 1.2l.15.65.2.35.25.3.4.25L8.2 7.2l.7-.65.2-.25.15-1-.05-.55-.2-.5q-.45-.75-1.35-1-.95-.25-1.7.3l-.4.4zM16.2 2.9 15 2.7l-.05.05-1 .25-.5.55-.15.25-.1.2-.05.85.3.95.35.55q.7.7 1.9.55l.45-.1.75-.55.25-.35.15-.35.15-.35q.1-.85-.25-1.4l-.2-.3-.35-.4z"/><path fill="#fff" d="m65.25 4.1.1.2.25.55.05.5-.15 1.05-.2.25-.6.45-.4.15-.8-.05-.4-.2-.3-.25-.25-.4-.1-.35-.1-.15-.05-.3.1-.9.2-.45.3-.3.3-.2.25-.1 1.15.1zm-5.55.15.1.2.2.6v.25l.05.35-.05.5-.25.6-.2.25-.3.2-.45.2-.55.05-.6-.05-.7-.45-.35-.35q-.25-.35-.25-1.2l.05-.55.45-.65.1-.2.35-.25.6-.1.05-.05.9.1.65.35zm4.5 6q.2 1.35-.2 2.8l-.2.75-.15 1.2-.35.9-1 1.25-1.4-.1q-.55-.3-.9-1.05l-.7-3.45.1-3.15q.15-.8 1.05-1.15l.25-.05v-.5q.15-.4.6-.5l.1-.05q.45.1.6.4l.2.55.85.2.8.8zM16.35 4.1q-.35-.45-.85-.5l-.05.05q-.4 0-.75.35-.3.45-.15.85l.25.45q.3.3.8.3.75-.1.85-.85zm41.2 1.2-.05.15v.1l.1.25.25.3.4.1.25-.1.3-.35.05-.2-.1-.3q-.15-.35-.6-.35v.05q-.4-.1-.6.35M16.2 2.9l.45.2.35.4.2.3q.35.55.25 1.4l-.15.35-.15.35-.25.35-.75.55-.45.1q-1.2.15-1.9-.55l-.35-.55-.3-.95.05-.85.1-.2.15-.25.5-.55 1-.25.05-.05zM5.05 4.6l.5-.65.4-.4q.75-.55 1.7-.3.9.25 1.35 1l.2.5.05.55-.15 1-.2.25-.7.65-2.45.15-.4-.25-.25-.3-.2-.35-.15-.65q0-.6.3-1.2m7.85 2.1.45.55.25.5.05.6-.15 1-.8 1.15-1.65 1.35-.7.45-.95.65-.3.3-.85.35-.85-.3q-.45-.3-.55-1.1-.1-.65.15-1.25.25-.95.75-1.8l.9-1.25q1.05-1.25 1.7-1.5l.25-.05.1-.75q.2-.5.5-.55.6-.15.95.3.25.35.15 1 .35.1.6.35"/><path d="m47.95 21.1.55-.6q.5-.65.25-1.65l-.3-.75-.35-.55-.35-.3-.55-.3-1.5-.25-.5.1-.35.15-.05.05h-.05l-.4.25q-.65.6-.8 1.35l-.1.8.05.8q.1.6.55 1.1l1.1.65.65.05 1.2-.15.5-.35.25-.2zm-12.7 6.6q-1.85-1.35-2.5-3.35-.9-2.85.45-6.8l.15-.45q-.65-.4-1.15-1.1l-.7-1.35-.1-.9.2-1.9q.25-.75.95-1.55l.9-.8q.7-.4 1.85-.3l.9.2.55.4q1.3 1.15 1.55 2.9l.2-.05 2.8-.45q1.8-.1 3.5.6l.7.35q1.5-1.25 2.8-1.5l1.2-.05.95.1q.35.05.85.45 1.15.85 1.5 2 .4 1.3-.3 2.4l-.9.9q-.9.65-1.9.85.4 1.45.3 3.1l-.35 1.9.9.45q2 1.1 3 2.8 1.15 1.85.75 3.9l-.6 1.75 1.4.35 1.25-.25 1.2-.5q1.6-.6 3.3-.45 1.75.2 3.05 1.2l.65.8q.2.65-.4.9L63.3 34q-1.2-.6-1.95-.7l-2.05.2-1.2.8q-2.45 1.7-5.25.8l-.9-.3h-.05q-.55.45-1.85 1-4.1 1.6-7.5.65l-2.35-.9-1.2-.6-1.8-1.45q-1.6-1.7-1.95-3.55-.2-1.2.05-2.2zm5.4-5.3v.05q-.35.05-.6.35l-.2.2-.45.3-.45.5-.2.3-.15.25v.2l.2.3.35.1h.3l.15-.05h.1l.15-.1 1.3-.5v-.05l.35-.1.05-.05.55.45.35.2.25.1.2.05v.05l.35.05h.35l.65.1.2-.15.1-.25-.05-.3-.3-.5-.8-.7-.3-.35-.45-.35-.3-.05v-.05l-.1-.3V22l-.05-.1v-.15l-.05-.1-.1-.5v-.1l-.15-.5-.2-.15-.2-.05-.3.15-.1.15-.25.95-.05.1v.1l-.05.2-.05.1v.1zm-4.9-6-.85.75-.35.45-.35 1.15q-.15 1.05.65 1.8.4.35 1.3.65l.4.15 1.55-.25 1.15-1.05.15-.35.1-.8-.05-.7-.65-1-.35-.4q-.95-.8-2.25-.55zm10.45 3.9-.7-.2-.4-.6v-.45q.2-.7.85-.7.35-.05.7.2l.35.5-.05.55q-.2.6-.75.7m-32.3 1.35q-.35-1.1-.4-2.2l-1.35.05-1.05-.15q-.55-.15-1.55-.85l-.9-.8q-.7-.95-.4-2.15.2-1.1 1.1-1.9 1.6-1.6 3.8-1.5 1.4.1 2.6.9 1.6-1.9 3.45-2.55l5-.2.4.1V8.95l.25-.65.55-1.1.55-.55q.9-.9 1.8-1.15 1.2-.25 2.1.5l.95 1.25q.6 1.2.6 1.9l-.15 1.35q-.3 1.95-.85 2.75l-.4.45.05.05.75 1.65q.8 2.25.35 4.75-.4 2.45-1.9 4.3l.35.65.75 1.75q.85 2.8-.95 6-1.5 2.75-3.65 3.6L22.7 37l-2.2-.05-2.05-.35-1.4-.75-1.25-1.05h-.85l-3 .6-3 .2q-1.1-.2-2.6-1.15l-.85-.4-1.15.15-.85.1-.8.3q-.5.5-.7.45-.4 0-.4-.5l.35-.65q.75-.8 2.5-1.4l2.35-.2q.55.2 1.55.75l1.75.1 1.3-.55q1.2-.55 2.5-.75l-.1-1.05.2-1.8.65-1.45q.65-1.25 1.6-2.35-1.7-1.7-2.35-3.55m5.4-5.2-1.45-.2-.6.05-.65.3-.45.35-.35.4q-.4.5-.5 1.3v.45l.25.8.5.75.4.3 1.4.45.95-.25.9-.45.8-1.25.05-.4-.05-.3v-.7q-.15-.7-.85-1.35zm8.95-2.65q-.6-1.05-1.65-1.2l-.55-.05-.75.05q-1 .15-1.6 1.15-.55.9-.3 2 .1.65.5 1.15l.4.4 1.5.45q1.45.1 2.25-.8l.45-.7.2-.8q0-.9-.45-1.65m-10.7 5.65q-.6-.25-.4-.95.25-.65.9-.55l.5.25.1.15.05.1q.15.4-.1.75-.45.6-1.05.25m6.55.35H24l-.5-.7q-.25-.55-.7-.6l-.4.2q-.15.35.05.8l.25.7.05.2-.2.2v.15l-.05.15v.2l-.1.1v.15l-.15.35v.1l-.05.1-.1.45v.5l.05.2v.15l.2.2.4-.05.05-.1.05-.15.1-.1.3-.2.1-.2.15-.25.1-.15.2-.3.1-.15v-.1l.1-.1.65-.05v.05l.95.05.3.1.55-.1.2-.15.05-.1.05-.05-.05-.1v-.1l-.1-.35-.7-.4-.2-.05-.5-.2h-.15l-.1-.05-.35-.1v-.05l-.5-.15z"/><path fill="#fff" d="m47.95 21.1-.2.2-.25.2-.5.35-1.2.15-.65-.05-1.1-.65q-.45-.5-.55-1.1l-.05-.8.1-.8q.15-.75.8-1.35l.4-.25h.05l.05-.05.35-.15.5-.1 1.5.25.55.3.35.3.35.55.3.75q.25 1-.25 1.65zm-12.2-4.7.45-.15q1.3-.25 2.25.55l.35.4.65 1 .05.7-.1.8-.15.35-1.15 1.05-1.55.25-.4-.15q-.9-.3-1.3-.65-.8-.75-.65-1.8l.35-1.15.35-.45zm4.9 6 .05-.2v-.1l.05-.1.05-.2v-.1l.05-.1.25-.95.1-.15.3-.15.2.05.2.15.15.5v.1l.1.5.05.1v.15l.05.1v.1l.1.3v.05l.3.05.45.35.3.35.8.7.3.5.05.3-.1.25-.2.15-.65-.1h-.35l-.35-.05v-.05l-.2-.05-.25-.1-.35-.2-.55-.45-.05.05-.35.1v.05l-1.3.5-.15.1h-.1l-.15.05h-.3l-.35-.1-.2-.3v-.2l.15-.25.2-.3.45-.5.45-.3.2-.2q.25-.3.6-.35zm5.55-2.1q.55-.1.75-.7l.05-.55-.35-.5q-.35-.25-.7-.2-.65 0-.85.7v.45l.4.6zm-17.95-6.5q.45.75.45 1.65l-.2.8-.45.7q-.8.9-2.25.8l-1.5-.45-.4-.4q-.4-.5-.5-1.15-.25-1.1.3-2 .6-1 1.6-1.15l.75-.05.55.05q1.05.15 1.65 1.2m-8.95 2.65.35.25q.7.65.85 1.35v.7l.05.3-.05.4-.8 1.25-.9.45-.95.25-1.4-.45-.4-.3-.5-.75-.25-.8v-.45q.1-.8.5-1.3l.35-.4.45-.35.65-.3.6-.05zm-1.75 3q.6.35 1.05-.25.25-.35.1-.75l-.05-.1-.1-.15-.5-.25q-.65-.1-.9.55-.2.7.4.95m6.55.35v-.05l.5.15v.05l.35.1.1.05h.15l.5.2.2.05.7.4.1.35v.1l.05.1-.05.05-.05.1-.2.15-.55.1-.3-.1-.95-.05v-.05l-.65.05-.1.1v.1l-.1.15-.2.3-.1.15-.15.25-.1.2-.3.2-.1.1-.05.15-.05.1-.4.05-.2-.2v-.15l-.05-.2v-.5l.1-.45.05-.1v-.1l.15-.35v-.15l.1-.1v-.2l.05-.15v-.15l.2-.2-.05-.2-.25-.7q-.2-.45-.05-.8l.4-.2q.45.05.7.6l.5.7z"/></g></svg>