<svg xmlns="http://www.w3.org/2000/svg" xmlns:ffdec="https://www.free-decompiler.com/flash" ffdec:objectType="shape" width="76.75" height="43.25"><path fill="#717171" fill-rule="evenodd" d="M.55 1h75.2v41.05H.55z"/><path fill="none" stroke="#000" stroke-linecap="round" stroke-linejoin="round" d="M.55 1h75.2v41.05H.55z"/><path fill="#fff" fill-rule="evenodd" d="M3.35 6.2 4.7 4.4q.6-.7 1.1-1l.8-.35.25-.15 2.2-1.15 1.4-.35q.3-.55.95-.9l1.15-.3L13.6 0q1.45 0 2.1 1.3.6 1.3-.3 2.4l-.85.7q-.7.45-1.5.55l-1.55-.3-.35-.25-1 .45q-1.1.5-1.5.75-.7.45-1.9 1.65l-.4.6q-.15.25-.15.8-.15 1.4-1.55 2.1-.4.1-.55.25l-.2.55-1.1 3.1-.35.95.25.65-.05.4-.2.65-.75.4-.75-.45-.15-.4V16q-.3-.3-.25-.8l-.25-1q0-.8.4-1.6l.75-1.25.35-3.2q.3-.95 1.15-1.55l.35-.2zm.35-3.7-.6.6q-.6.5-1.05.55l-.2.4-.45.1-.3-.35q-.1-.25.1-.45-.5-.3-.4-1l.55-.95.7-.6q.85-.35 1.45.25.65.65.2 1.45m71.65 13.15q-.2.65-.7.5l-.3-.65-.1-1-.25-.05q-1.05-.25-1.35-1.2l-.2-.45-.4-.6-.15-1.45v-.35l.15-.6-.05-.35v-.1q-.8-.2-1.35-1-.5-.8-.15-1.75l.1-.2-1.15-.95q-.8-.75-.95-1.5l-1.1-.35-1.1-.15q-.65-.05-2.05-.7l-.75-.55q-.5-.6.1-1.3.45-.5 1.2-.6l1.4.15q1.9.25 2.95.95l.8.7.75.65.95 1.15.85 1.3.25-.05q.7-.05 1.35.45l.8 1.2q.15.7-.2 1.45l-.05.1.2.4.5.4.2.3q.4.65.35 1.3v.7l.2.7q.15 1.05-.45 1.75zM75.2 1.5l.4.6.3 1.2v.65q-.15.55-.75.65-.65.1-.9-.5l-.3-.8-.4-.25-.4-.65q-.15-.45.05-.8l.55-.5.75-.1zM63.15 5.1l.2-.2q.4-.3.85-.25.5 0 .8.35.35.35.3.85l-.3.8-.8.35-.85-.25q-.35-.3-.4-.8t.2-.85m2.9 9.5q.15-.95 1.1-1.2.95-.35 1.55.45.65.65.3 1.6l-.75.8-1.1.1-.9-.65q-.3-.55-.2-1.1m4.2 5.5-.6-.5-.4-.55-.15-.4q-.25-.7-.05-1.45.15-.8.65-1.3.5-.55 1.25-.75l1.45-.05q1.6.4 2 2 .4 1.5-.8 2.7-1.25 1.1-2.75.6zm2.3 6.75q.4.85-.15 1.5-.6.65-1.45.4T70 27.6q-.05-.5.25-.9.3-.45.75-.55l.9.1zM25.95 38.9q-3.7-1.6-5.3-3.4-2.9-3.15-2.9-9.35 0-5.4 2.15-10.2l-.15-.55-.05-.1v-.1l-.5-1.1-.4-1.6-.25-.5-.85-3.15-.25-.95-.35-2.35.2-1.2.4-.5.35-.25.45-.15 1.2.1 2.15.75 1.65.75 2.7 1.4 1.25.65q3.65-2.3 8.3-2.9l2.8-.2q3.15-.05 5.8.75l1.8.65q1.6.7 3.25 1.95l1.05-.5 2.5-1 1.45-.5 1.65-.6.55-.25 1.75-.7q1.2-.2 1.75.45.6.65.4 1.8l-.2.8-3.6 9.05.25.6q.65 1.5 1 4.1.6 4.85-.7 9.2-1.45 4.7-4.85 7.5-5.25 4.3-15.85 3.9l-5.4-.6q-2.2-.45-5.2-1.7M42.5 23.7q-.4-1.2-1.2-2l-1.7-1v-.05l-.1-.95q-.25-1.1-1.35-1.2-1.1-.2-1.6.8-.35.6-.15 1.75-1.25.6-2.2 1.8-.6.8-1.1 1.95l-.65 2q-.4 1.6-.6 4.2l-.1 2.95q.1 2.1.7 3.3 1 1.8 2.65 2 1 .1 1.95-.45l1.5-1.5.8-1.8 1.15.5q1.35.3 2.35-.5l.6-.6.45-1.1q.25-1.15.05-2.85-.35-4.65-1.45-7.25m2.4 1.6q-.1 1.1 1.05 1.45 1.1.3 1.6-.65l.15-1.05-.6-.9-1.05-.15q-.6.1-.9.55-.25.4-.25.75m-1.2-7.75q-.1 1.95.25 2.85.45 1.2 1.75 2.15l1 .7 1.4.35h.1l-.15 2.45-.3 2.75v1.05l-.25 1.75q-.1 1.1.2 1.75.6 1.2 1.9 1.1 1.4-.1 1.8-1.35.2-.55 0-1.85l-.75-5q1-.1 1.6-1 .6-.8.6-1.95l-.2-1.15.1-.15q.5-.65 1-2.25l.35-1.9q0-1.25-.65-2.55-.8-1.65-2.3-2.55-1.6-.95-3.35-.6-.95.2-2.15 1.1-1.45 1.25-1.75 2.6zM35.8 8.9l.45-.75.6-.75q.4-.35 1.3-.55l1.2-.2 1 .25.8-.2q.35-.25.3-.65 0-.55-1-1L39.2 4.8l-2.2.45-1.9.65-1.1 1q-.9 1.05-1.2 1.95-.5 1.25-.3 2.3l.45 1.3.5.9.25.3-.3.35-.45.35q-.25.25-.15.6l.3.25.45-.05.75-.55.4-.2 1.5.6 2.65.2 2.05-.25q1.7-.55 2.6-2.65l.75-2.05q.2-.55-.1-1.45v-.05l.25-.2.75-.6q.6-.7.2-1.55-.3-.85-1.3-.95-.6 0-1.45.55l-1.15 1-1.8 1.05q-1.2.55-1.75 1l-1.45 1.45-.95.9-.05-.15-.15-1.3q.1-.5.5-1.05m39.55 19.25q.8-.1 1.2.8.3.55.2 1.45-.25 1.85-2.3 4.45l-.5.7-.35.8-1.05 1.25-2.85 1.85-.7.45-.25.5q-.4.6-1.35 1.15l-.9.35-.85.05-.15.05-2.55.65-2.45-.2q-.75-.3-.75-.8.05-.4.6-.65L63 39.5l1.45-.8 1.1-.9q.5-.35 1.05-.45l-.7-.05q-.75-.15-1.25-.65-.45-.5-.55-1.2t.2-1.35q.35-.65 1-.95l1.4-.25q.7.1 1.2.65.55.55.65 1.25l-.25 1.4-1 .95-.3.15.5-.05 1.05-.05q.05-.05.35-.15l-.1-.35q-.1-.7.35-1.2t1.35-.6l.25-.3 1.35-.85q.8-.65 1.2-2.35.45-1.85.9-2.55.6-.7 1.15-.7m-1.1 11.15 1.3-.05q.65.4.55 1.15-.15.7-.95 1.25l-.9.6q-1.2.7-2 .4-.4-.1-.55-.4-.15-.45.1-.8.15-.3.7-.55l.6-.3.55-.65zm-50.4-15.25.6.3-.4 2.4-.3.8q-.35 1.2.15 2.05.55 1.05 1.7 1.05 1.15.1 1.75-.9.55-.85.3-1.85l-.5-1.5q.75-.1 1.3-.75l.4-.75.2-.6 2.2-1.85.6-.9q1.35-2.3.6-4.9l-.75-1.7q-1.1-1.65-3.15-1.8-1.35-.15-2.95.75-1.3.75-2.35 2l-1.1 1.5q-1.2 2.3-.2 4.55l.8 1.25zM37.7 13l-.2-.05 1.2-.8 3.6-2.25q0 1.95-1.2 2.7l-.9.35-1.45.25zM8.35 7.35l1.05.05q.55.2.8.65l.2 1.05-.45.95q-.85.7-1.8.3Q7.2 9.9 7.2 8.8q.1-1.1 1.15-1.45M5.7 39.8l-.65-.7-.3-.25-.35-.5-.2-.25-1.35-2.15-.2-.4-.85-.3q-.6-.35-1.1-1.6L.4 32.6q-.1-.95.45-1.6l-.15-.85-.35-.55Q0 28.9 0 28.05l.2-1.15.05-.1-.05-.4v-.7l.45-.45q.4-.05.65.55l.05-.05 1.65.1q1.2.7 1.2 2.3.1 1.4-.65 2.15l.35.3q.4.4.6 1.3l.2 1.75v.05l1.05 1.65.4-.05q1.25-.1 1.9 1l.35 1.2h.1l1.3.6.55.25.55.05q.55.05 1.65.8l.75.85.15.35.75.6q.3.45.1.85-.3.5-1.05.6l-.6.1-1.2.4h-.7l-.55.2-1.85-.2-.75-.55-.9-.8-.55-.75L6 40.4l-.05-.4zm7.35-19.6.3.15q.4.25.4.75v.3q-.15.6-.8.75-.6.1-.95-.35-.25-.35-.2-.65v-.3q.05-.25.45-.55zm-2.1 12.9q.25-.6.95-.9l1.3-.05q.65.2 1 .8t.25 1.3l-.65 1.15q-.55.45-1.25.4l-1.2-.55q-.5-.45-.6-1.15-.05-.4.2-1m7.3 4.4q.75.5.5 1.25-.25.8-1.15.7l-.6-.35-.25-.65v-.3q.15-.65.9-.75zm-11-7.1q.65.05 1.2.45.55.45.75 1.05.25.6.05 1.25l-.75 1.1-1.25.45q-.75 0-1.3-.4-.55-.35-.8-1.05T5.1 31.9t.85-1.1zM2.6 42.6l-1.15.1q-.6-.15-1.05-.85L.05 41q-.1-.95.75-1.55l1.7.1.55.55.3.6q.15.55-.05 1.1z"/><path fill-rule="evenodd" d="M35.8 8.9q-.4.55-.5 1.05l.15 1.3.05.15.95-.9 1.45-1.45q.55-.45 1.75-1L41.45 7l1.15-1q.85-.55 1.45-.55 1 .1 1.3.95.4.85-.2 1.55l-.75.6-.25.2v.05q.3.9.1 1.45l-.75 2.05q-.9 2.1-2.6 2.65l-2.05.25-2.65-.2-1.5-.6-.4.2-.75.55-.45.05-.3-.25q-.1-.35.15-.6l.45-.35.3-.35-.25-.3-.5-.9-.45-1.3q-.2-1.05.3-2.3.3-.9 1.2-1.95l1.1-1 1.9-.65 2.2-.45 1.25.25q1 .45 1 1 .05.4-.3.65l-.8.2-1-.25-1.2.2q-.9.2-1.3.55l-.6.75zm7.9 8.65.2-1.7q.3-1.35 1.75-2.6 1.2-.9 2.15-1.1 1.75-.35 3.35.6 1.5.9 2.3 2.55.65 1.3.65 2.55l-.35 1.9q-.5 1.6-1 2.25l-.1.15.2 1.15q0 1.15-.6 1.95-.6.9-1.6 1l.75 5q.2 1.3 0 1.85-.4 1.25-1.8 1.35-1.3.1-1.9-1.1-.3-.65-.2-1.75l.25-1.75V28.8l.3-2.75.15-2.45h-.1l-1.4-.35-1-.7q-1.3-.95-1.75-2.15-.35-.9-.25-2.85m1.2 7.75q0-.35.25-.75.3-.45.9-.55l1.05.15.6.9-.15 1.05q-.5.95-1.6.65-1.15-.35-1.05-1.45m-2.4-1.6q1.1 2.6 1.45 7.25.2 1.7-.05 2.85l-.45 1.1-.6.6q-1 .8-2.35.5l-1.15-.5-.8 1.8-1.5 1.5q-.95.55-1.95.45-1.65-.2-2.65-2-.6-1.2-.7-3.3l.1-2.95q.2-2.6.6-4.2l.65-2q.5-1.15 1.1-1.95.95-1.2 2.2-1.8-.2-1.15.15-1.75.5-1 1.6-.8 1.1.1 1.35 1.2l.1.95v.05l1.7 1q.8.8 1.2 2M37.7 13l1.05.2 1.45-.25.9-.35q1.2-.75 1.2-2.7l-3.6 2.25-1.2.8zM23.85 24.05l-1.1-.85-.8-1.25q-1-2.25.2-4.55l1.1-1.5q1.05-1.25 2.35-2 1.6-.9 2.95-.75 2.05.15 3.15 1.8l.75 1.7q.75 2.6-.6 4.9l-.6.9-2.2 1.85-.2.6-.4.75q-.55.65-1.3.75l.5 1.5q.25 1-.3 1.85-.6 1-1.75.9-1.15 0-1.7-1.05-.5-.85-.15-2.05l.3-.8.4-2.4z"/></svg>