<svg xmlns="http://www.w3.org/2000/svg" xmlns:ffdec="https://www.free-decompiler.com/flash" ffdec:objectType="shape" width="66.35" height="39.8"><g fill-rule="evenodd"><path fill="#999" d="m41.7 8.55 2.45 1.65q3.2 2.25 6.4 2.85 3.6.8 6.95-.5 1.85-.75 2.85-2.1l.5-.8.6-.65L63 8.9q.8.35 1.2 1.1.6 1.3-.05 3.2-1.05 3.15-3.95 5.7-2.25 2-5.8 3.9l-4 1.9q-2.5 1-7.15 1.95L41 26.9q-1.3-.2-1.85-1.1-.45-.9.05-2l1.2-1.6q3.7-3.6 8.45-4.9-2.75-.7-5.05-2.1l-.2.45q-.3.6-.85.5l-.6-.45-.25-.35-.35-.1-2.3-.3-1.4.75-1.05.45-1.1-.2q-.5-.4-.4-1.1 0-.5.35-1.2l.45-1.05.45-.65-1.05.05-4.55.4q-2.35.35-3.75 1-1.15.5-3.5 2.3l-2.95 2.35-.45.35q.45 0 .6.4.15.45-.5 1.1-1.85 2.05-2.5 5.05l.85-.2q.6 0 1.05.6l.4 1 .2.9.25.7q.3.45 1.35 1 2 .85 2.9 2.15.45.5.5 1.1.1.7-.35 1.15t-1.3.4q.3.7.1 1.3-.3.85-1.4 1.15l-1.85-.1q-2.8-.7-4.55-2.6-1.9-2.05-2.05-4.75-.15-2.75 1.6-5.7 1-1.85 2.25-3.1l-.25-.5q-.05-.45.15-.9.5-1.2 2.3-3 3.45-3.45 5.7-4.75 2.9-1.7 8.35-2.65 5.05-.9 7.6.4M7.2 1.9 7.75.85q.4-.8.85-.85.45 0 .75.4l.25.85.2.4.2.05h.9q.5 0 .8.3l.2.45q.1.6-.4 1.1l-1.05.55.45 1.9.05.7q0 .55-.5.8-.45.15-1-.25L7.7 5.95l-1.05.8-.5.3-.75-.1q-.35-.25-.35-.65t.45-1.05L6 4.2Q5 3.75 4.8 3q-.1-.65.35-.95l.5-.1zm-6 4.4.05-.65-1-.25L0 4.7l.45-.6.9-.1.3-.95q.25-.35.65-.35.55 0 .65.55v.65l.4-.05.75.25.25.7-.4.6-.7.2H2.8l-.25.9q-.2.3-.65.3-.6 0-.7-.5"/><path d="M18.1 14.35q-.15-1.6.5-3.3l-.15-.1q-.6-.6-.6-1.35-.05-.65.3-1.45.5-.95 1.15-1.15.75-.15 1.4.35l.1.1q1.5-1.7 3.8-2.7 2.75-1.2 5.6-.8.1-.6.35-1 .6-.85 1.85-.75 1.3.1 1.8 1.05.4.8-.05 1.95l.8.55q1 .85 1.85 2.1 1.55 2.3 1.75 4.15l.05.25.4.25.15-.2q.9-1.2 2.15-1.7l3.05-.05q1.35.4 2.6 1.6l.4.4-.55-2.3-.2-.4-.6-.05-2.1-.2q-1.15-.5-1.7-1.75-.5-1.2-.2-2.45.3-1.15 1.3-2.05.95-.85 2.2-1.1 1.75-.4 3.2.5 1.1.65 1.85 2.05 2.6 4.1 2.5 8.55 0 2.6-1.3 4.05l-1.4 1.1-1.65.85-2.15 1.2-2.1.85-1.4.65-.4 1.95-.25 1q3.05-2.75 6.7-4.6 2.45-1.2 4.4-1.6 3.55-.7 6.85.95 3.25 1.6 4.95 4.8 1.05 2.05 1.05 4.25 0 2.35-1.25 4.1-1.4 2.05-4.2 2.9l-5.75.15q-2.95-.9-4.45-3.45l-.45-.95q-2.8-.1-5.6.95-3.8 1.45-7.05 4.75-1.4 1.4-2.15 1.65l-2.05-.2-1.05.6-2.1.2-1.2-.75-.15-.15-1.4.4-1.95.05-2 .05-1.95.35-1.55.05-.35.15-1.25.1Q17 39.4 16.75 38l-.05-.5-.05-.15.2-.9.05-.15.75-1.55.45-.6 2.85-2.8.1-.25q-1.15-.8-1.85-2l-1.05-2.3q-.25-.65-.35-1.55l-.05-1-.4.05-2.35.25q-1.85 0-2.85-.8h-.05l-1.75.1q-.8-.1-1.45-.45-1.2-.7-1.45-2.1v-1.2l.2-2.95.6-2.35-.2-1.9q-.1-1.15.1-1.7.1-.3.75-1.05l.7-.6q1.6-1.2 3.45-.5.95.4 1.5 1.25.6.85.5 1.8-.05 1-.8 1.7-.65.7-1.65 1l-.25.15-.1.35.05.95.2 1.1v.05q1.15-1.2 2.85-1.75l1.25-.3 1.65.2zm12.2-2.95q-.35.65-.2 1.45.15.75.7 1.25.55.45 1.35.5l1.35-.45q.55-.45.75-1.25.2-.75-.15-1.4-.55-1.1-1.85-1.2-1.25 0-1.95 1.1m-.5 3.45-.15-.95-.35-.55h-.4l-.3.3.2.7q.2.4-.05.65l-.65-.05-.6-.45q-.5-.2-.7 0l-.2.5-.2.5-.6.05-.2-.65-.1-.7-.25-.2-.3.05-.15.35-.1.85V16q.2.85 1.45.95h.15V17l.15.65.15.4.5.3.55-.05.4-.2q.65 0 .85-.4l-.05-.7-.1-.55.6-.25q.45-.35.45-1.35m-7.9-2q-.6 0-1.1.35-.5.4-.7.95t-.05 1.15q.15.65.65 1 .45.4 1.1.4.6.05 1.1-.3 1.15-.65.9-2.05-.25-.85-.9-1.2-.45-.3-1-.3m6.85 21.85 1.2-.25q1.6-.6 3-1.7l2.25-1.9 2-1.35 1.85-1.5q1.15-1.3 1.5-3.1.35-1.5.05-2.9l-.15-.1-1.6-2-.2-.35-.25-.3-.55-.45-.15-.2-.15.1-1.15 1-1.9 1-1.6.65-2 .7-4.1.3-2.8-.4q-1.1-.3-1.85-.85l-.2.2-1.6 1.75-.4.6-.45 1.05q-.25.8.25 2.15.25.85.65 1.45l1.25 1.15 2.9 2.4 2.95 2.3zm-3.35-6.35q-.4-.5-.3-1.55l.05-.85.15-.75.45-.65.7-.65.75-.4q.95-.35 1.75-.35l1.65.5q1.15.4 1.45.95l.3.95-.05.6-.45.35-.65-.35q-1-.85-2.45-.7-1.05.1-1.25.9 0 .4.15.5l.4.05 1.2-.15h.95l1.1.35.75.5.5.8q.25 1.15-.15 1.9l-.45.7-.6.65-.75.5-.65.25-.9.05-1.7-.05-.7-.35q-1.05-.75-1.1-1.4 0-.6.45-1l1.05-.2 1 .55.65.15h.6l.65-.6q-.15-.2-.5-.3l-.65.05-2.65-.4z"/><path fill="#fff" d="m28.75 34.7-1.25-.55-2.95-2.3-2.9-2.4-1.25-1.15q-.4-.6-.65-1.45-.5-1.35-.25-2.15l.45-1.05.4-.6 1.6-1.75.2-.2q.75.55 1.85.85l2.8.4 4.1-.3 2-.7 1.6-.65 1.9-1 1.15-1 .15-.1.15.2.55.45.25.3.2.35 1.6 2 .15.1q.3 1.4-.05 2.9-.35 1.8-1.5 3.1l-1.85 1.5-2 1.35-2.25 1.9q-1.4 1.1-3 1.7zM21.9 12.85q.55 0 1 .3.65.35.9 1.2.25 1.4-.9 2.05-.5.35-1.1.3-.65 0-1.1-.4-.5-.35-.65-1-.15-.6.05-1.15t.7-.95q.5-.35 1.1-.35m7.9 2q0 1-.45 1.35l-.6.25.1.55.05.7q-.2.4-.85.4l-.4.2-.55.05-.5-.3-.15-.4-.15-.65v-.05h-.15q-1.25-.1-1.45-.95v-.75l.1-.85.15-.35.3-.05.25.2.1.7.2.65.6-.05.2-.5.2-.5q.2-.2.7 0l.6.45.65.05q.25-.25.05-.65l-.2-.7.3-.3h.4l.35.55zm.5-3.45q.7-1.1 1.95-1.1 1.3.1 1.85 1.2.35.65.15 1.4-.2.8-.75 1.25l-1.35.45q-.8-.05-1.35-.5-.55-.5-.7-1.25-.15-.8.2-1.45m-4.9 16.95.75.55 2.65.4.65-.05q.35.1.5.3l-.65.6h-.6l-.65-.15-1-.55-1.05.2q-.45.4-.45 1 .05.65 1.1 1.4l.7.35 1.7.05.9-.05.65-.25.75-.5.6-.65.45-.7q.4-.75.15-1.9l-.5-.8-.75-.5-1.1-.35h-.95l-1.2.15-.4-.05q-.15-.1-.15-.5.2-.8 1.25-.9 1.45-.15 2.45.7l.65.35.45-.35.05-.6-.3-.95q-.3-.55-1.45-.95l-1.65-.5q-.8 0-1.75.35l-.75.4-.7.65-.45.65-.15.75-.05.85q-.1 1.05.3 1.55"/></g></svg>