<svg xmlns="http://www.w3.org/2000/svg" xmlns:ffdec="https://www.free-decompiler.com/flash" ffdec:objectType="shape" width="76.45" height="41.35"><path fill="#999" fill-rule="evenodd" d="m51.95 26.45-.45 1.15-.15.25-.2.9-.05.65.05.6.15.35q.55.65 1.2.7.8.1 1.25-.45l.5-1.05.1-.05.25-.6.55-1 .25-.6.05-.35-.15-.75q-.35-1.15-1.55-1.15l-.15.05q-.25-.05-.7.2l-.5.5zM46.4 37q1.55-.15 2.55-.95 1-.85 1.4-2.25.3-1.1.1-2.4l-.15-1.5q-.05-.65.25-1.8.65-2.4 1.8-4.45l1.05-1.95q.2-1.1-.45-2.25-.6-.95-1.6-1.6-1.55-1.1-3.45-1.4l-3.65.25q-1.5.55-2.2 1.45-.65.85-.5 1.95.1 1.15.9 1.85l1.15 1.15q.25.5.15 1.35-.2 1.9-1.15 3.55l-.95 1.6q-.5 1-.65 1.75-.25 1.1.15 2.25.35 1.1 1.15 1.85 1.6 1.65 4.1 1.55m9.2 3.45q1.55.25 2.7-.3 1.25-.5 2-1.75.5-1 .65-2.35l.3-1.5.65-1.6q1.3-2.2 2.9-3.85 1.25-.95 1.5-1.65.5-1 .2-2.25-.35-1.1-1.15-1.95-1.2-1.5-2.95-2.25-1.75-.8-3.6-.75-1.6.15-2.5.85-.85.65-.95 1.75-.25 1.15.35 2.05l.8 1.4q.15.55-.2 1.3-.7 1.8-2 3.2l-1.35 1.3-1.1 1.45q-.5 1.05-.4 2.25.05 1.15.6 2.1 1.15 2 3.55 2.55m5 .7H18.15l.35-.3q1.05-1.05 1.25-2.15.15-1.2-.45-2.4l-1.35-1.75q-.7-.55-1.05-.9-.4-.4-.85-1.4-1-2-1.35-4.1-.2-1.35-.55-1.95-.45-.85-1.6-1.25l-2.05-.15q-1.65.2-3.15 1.1-1.45.9-2.35 2.35-.75 1.3-.7 2.3.1.95.85 1.65t1.7.75l1.55.1.85.8q1 1.45 1.4 3.1l.3 1.65q.2.95.55 1.6l.75.95H10.1l-.85-.55-1.1-.5-1.1-1.05q-1.35-1.5-2.15-3.3-.5-1.15-.95-1.55-.6-.65-1.7-.7H1.9v7.65H.5V.5h75.45v29.95l-.9-.9q-1.5-1.25-3.35-1.65l-2.6.2q-1 .35-1.4 1.4-.55 1.1-.2 2.1l.45 1.55-.55 1.2q-1.15 1.55-2.75 2.6l-1.65.9-1.4 1.1q-.8.85-1 2.1zm15.35-3.45v3.45H71.3l.15-.15q1.8-1.8 3.8-3zM9.4 35.55q-.3-.95-1.3-1.3-1.05-.35-1.75.5-.65.85-.1 2.15.45 1.15 1.55 1.95l.65.35q.8.2 1.25-.5.4-.55.25-1.4zm6.2-6.35v1.1l.4 1.35 1 .95 1.25.3q.6-.15 1-.9l.4-1.05-.3-1.35-.9-1.35q-.7-.65-1.65-.3-.95.25-1.2 1.25m14.55-4.45q-.7-1.05-1.9-.9-.5.1-.95.5t-.55.9l.05 1.5.25 1.65q.25.65.9.95l1.35.05q.6-.25.95-1.1l.2-1.45q.1-1.35-.3-2.1m-3.4 12.6q1.2-.8 1.75-1.8.45-1.1.2-2.4-.2-1-.9-2.05L27 30l-.45-1.55q-.45-2.25-.3-4.35l.05-2q-.2-.95-1.2-1.65-.85-.55-2-.7l-3.3.25q-1.6.55-2.9 1.7-1.05 1.05-1.2 2.05-.2.95.35 1.85.55.8 1.5 1.1l1.4.45q.4.25.65 1 .55 1.65.5 3.4l-.15 1.65.2 1.7q.25.95.95 1.75.75.8 1.75 1.1 1.9.65 3.9-.4m9.9-1.2q1.5-.55 2.25-1.55.75-1.1.75-2.55 0-1.15-.5-2.4l-.6-1.4-.2-1.8q0-2.5.65-4.75.5-1.4.45-2.15-.05-1.1-1-2.05-.8-.75-1.95-1.15l-3.65-.45q-1.9.2-3.5 1.2-1.35.9-1.75 1.95-.4 1 0 2.05t1.35 1.55l1.45.8.45 1.25q.3 1.9-.15 3.75l-.5 1.8q-.25 1.05-.2 1.85.05 1.1.7 2.1.6 1 1.6 1.55 1.95 1.15 4.35.4m27.2.1.3-.2.35-.3.85-1 .9-1.3.15-.3.25-1.15-.5-1q-.5-.4-1.05-.4l-.1.05q-.45-.1-.9.35l-.65.8-1.3 1.8-.3.9v.4l-.1.5q0 .65.55.95z"/><path fill="#fff" fill-rule="evenodd" d="M55.6 40.45q-2.4-.55-3.55-2.55-.55-.95-.6-2.1-.1-1.2.4-2.25l1.1-1.45 1.35-1.3q1.3-1.4 2-3.2.35-.75.2-1.3l-.8-1.4q-.6-.9-.35-2.05.1-1.1.95-1.75.9-.7 2.5-.85 1.85-.05 3.6.75 1.75.75 2.95 2.25.8.85 1.15 1.95.3 1.25-.2 2.25-.25.7-1.5 1.65-1.6 1.65-2.9 3.85l-.65 1.6-.3 1.5q-.15 1.35-.65 2.35-.75 1.25-2 1.75-1.15.55-2.7.3M46.4 37q-2.5.1-4.1-1.55-.8-.75-1.15-1.85-.4-1.15-.15-2.25.15-.75.65-1.75l.95-1.6q.95-1.65 1.15-3.55.1-.85-.15-1.35l-1.15-1.15q-.8-.7-.9-1.85-.15-1.1.5-1.95.7-.9 2.2-1.45l3.65-.25q1.9.3 3.45 1.4 1 .65 1.6 1.6.65 1.15.45 2.25l-1.05 1.95q-1.15 2.05-1.8 4.45-.3 1.15-.25 1.8l.15 1.5q.2 1.3-.1 2.4-.4 1.4-1.4 2.25-1 .8-2.55.95m5.55-10.55.45-.65.5-.5q.45-.25.7-.2l.15-.05q1.2 0 1.55 1.15l.15.75-.05.35-.25.6-.55 1-.25.6-.1.05-.5 1.05q-.45.55-1.25.45-.65-.05-1.2-.7l-.15-.35-.05-.6.05-.65.2-.9.15-.25zm19.35 14.7-.15.2h-10.6l.05-.2v-.1q.2-1.25 1-2.1l1.4-1.1 1.65-.9q1.6-1.05 2.75-2.6l.55-1.2-.45-1.55q-.35-1 .2-2.1.4-1.05 1.4-1.4l2.6-.2q1.85.4 3.35 1.65l.9.9.1.1v7.1l-.1.05-.7.3q-2 1.2-3.8 3zm-53.15 0-.25.2h-5.4l-.25-.2-.75-.95q-.35-.65-.55-1.6l-.3-1.65q-.4-1.65-1.4-3.1l-.85-.8-1.55-.1q-.95-.05-1.7-.75t-.85-1.65q-.05-1 .7-2.3.9-1.45 2.35-2.35 1.5-.9 3.15-1.1l2.05.15q1.15.4 1.6 1.25.35.6.55 1.95.35 2.1 1.35 4.1.45 1 .85 1.4.35.35 1.05.9l1.35 1.75q.6 1.2.45 2.4-.2 1.1-1.25 2.15zm-8.05 0 .25.2H1.9V33.5h.35q1.1.05 1.7.7.45.4.95 1.55.8 1.8 2.15 3.3l1.1 1.05 1.1.5zm53.75-4.9-1.55.1q-.55-.3-.55-.95l.1-.5v-.4l.3-.9 1.3-1.8.65-.8q.45-.45.9-.35l.1-.05q.55 0 1.05.4l.5 1-.25 1.15-.15.3-.9 1.3-.85 1-.35.3zm-27.2-.1q-2.4.75-4.35-.4-1-.55-1.6-1.55-.65-1-.7-2.1-.05-.8.2-1.85l.5-1.8q.45-1.85.15-3.75l-.45-1.25-1.45-.8q-.95-.5-1.35-1.55t0-2.05Q28 18 29.35 17.1q1.6-1 3.5-1.2l3.65.45q1.15.4 1.95 1.15.95.95 1 2.05.05.75-.45 2.15-.65 2.25-.65 4.75l.2 1.8.6 1.4q.5 1.25.5 2.4 0 1.45-.75 2.55-.75 1-2.25 1.55m-9.9 1.2q-2 1.05-3.9.4-1-.3-1.75-1.1-.7-.8-.95-1.75l-.2-1.7.15-1.65q.05-1.75-.5-3.4-.25-.75-.65-1l-1.4-.45q-.95-.3-1.5-1.1-.55-.9-.35-1.85.15-1 1.2-2.05 1.3-1.15 2.9-1.7l3.3-.25q1.15.15 2 .7 1 .7 1.2 1.65l-.05 2q-.15 2.1.3 4.35L27 30l.8 1.1q.7 1.05.9 2.05.25 1.3-.2 2.4-.55 1-1.75 1.8m3.4-12.6q.4.75.3 2.1l-.2 1.45q-.35.85-.95 1.1l-1.35-.05q-.65-.3-.9-.95l-.25-1.65-.05-1.5q.1-.5.55-.9t.95-.5q1.2-.15 1.9.9M15.6 29.2q.25-1 1.2-1.25.95-.35 1.65.3l.9 1.35.3 1.35-.4 1.05q-.4.75-1 .9L17 32.6l-1-.95-.4-1.35zm-6.2 6.35.55 1.75q.15.85-.25 1.4-.45.7-1.25.5l-.65-.35q-1.1-.8-1.55-1.95-.55-1.3.1-2.15.7-.85 1.75-.5 1 .35 1.3 1.3"/><path fill="none" stroke="#fff" stroke-linecap="round" stroke-linejoin="round" d="M.5.5h75.45"/><path fill-rule="evenodd" d="m54.1 9.1-.8.3-.45.3-.6.15-.6-.15q-.2-.2-.1-.45.1-.45.95-1l1-.95 3.05-2.1q.8-.6 1.4-.5.5.05.8.65l.35 1.05.35 1.75 1.9-.65.55-.35 1.35-.5.7-.15.35-.1q.2 0 .25.15v.3q-.3.05-.65.4l-.5.55-.7.55-.65.35-.4.15-.5.3q-.15.1-1.15.75-.2.15-.45.25l-.25.15-.05.05-.25.45q-.3.35-.8.35-.55-.1-.7-.55l-.15-.75-.4-.65-.4-1.15q-1.2.75-1.8.9zm1.9 6.5-1.25-.1-.4-.2-.5-.15-.2-.35.1-.4.95-.5.6-.2 3.5-.55q1.1-.1 1.55.45.3.4.05 1.3l-.3 1.35 2-.15 1.6-.3 1.6.2.45.35q.25.35.1.75l-.55.55-.65.05-2.5.35-2.95.3-1.25.2q-.55-.25-.55-1.2.1-1 .5-1.85zm-28.35-2.65q-.5-.9-.3-2.15.1-1.2.5-2.1.6-1.2 2.15-2.85 1.5-1.7 4.6-2.7t6.4-.5 4.8 1.4 2.1 1.8l1.25 2.2q.7 1.3.7 3.75.1 1.1-.4 2.15-.55 1.15-1.7 1.3l-1.4.05-1.4.1q-1.2.15-2.3 1.05L41 17.7l-.35.15-.35-.15-.8-.75-1-1.15q-.95-.85-3.5-.75l-4.4-.4q-2.3-.5-2.95-1.7M39.7 23.3q.65-.75 1.3-.7l.1-.05q.9 0 1.45.65l.2.3.35 1.65v.2l-.05.4-.25.65-.1.5-.55.95-.95.55-1.25-.05q-.65-.35-.85-.9-.25-.5-.15-1.35l.5-2.4zM20.3 3.75q1.45.1 1.75.4.45.45.35 1.15L22 6.5l-.3.7 1.8.1.95.15q.6.25.65.7.15.7-.6 1l-1.25.2-3.05.05-.75-.1q-.8-.35-.6-1.55l.55-1.7-1.2-.25-1.2-.4-.65-.1-1.7-.35-.85-.4q-.4-.35-.25-.85.2-.35.8-.45l1.85.1.85.2.8-.1zm-.55 12.05q1.7-.5 2.9-1.4l1-.55q.75-.2 1 .35.25.5-.25.9l-.8.55q-.65.25-1.4.85l-1.15.85-1.05.55-.6.5-.6.35q-.45.1-.9-.2l-.65-.8q-.25-.7-.05-1.95l-3.15.9q-1.3.3-1.9.55L9.9 18.3l-.85-.05q.05-.5.85-1.1l2.5-1.55 1.25-.9q1.1-.85 3.4-1.6l1.15-.3q.65-.1 1.1.3.45.45.45 1.3z"/><path fill="#fff" fill-rule="evenodd" d="m44.85 12.75-.4.25-1.7.5-.65 1.05-1.25.55q-.7 0-1.3-.5-.5-.45-.6-1.15v-.1l-1.65-.1q-1.45-.2-2.35-.7-1-.6-1.5-1.75-.45-1.1-.15-2.25.45-1.95 2.5-2.9 1.6-.85 3.85-.75 2.45 0 4 1 1.3.8 1.9 2.1L46 9.45l-1.05-.2q-.65.1-1.05.5-.75.75-.4 1.85.4.95 1.35 1.15M38 8.7q-.8-.45-1.7 0-.85.45-1 1.4-.05.6.25 1.15l.85.8 1.2.1 1-.6q.55-.7.4-1.6-.25-.85-1-1.25"/><path fill-rule="evenodd" d="M46 9.45h.05q.5.3.75.9.2.6.05 1.15l-.7.95-1.1.3h-.2q-.95-.2-1.35-1.15-.35-1.1.4-1.85.4-.4 1.05-.5zm-8-.75q.75.4 1 1.25.15.9-.4 1.6l-1 .6-1.2-.1-.85-.8q-.3-.55-.25-1.15.15-.95 1-1.4.9-.45 1.7 0"/></svg>