<svg xmlns="http://www.w3.org/2000/svg" xmlns:ffdec="https://www.free-decompiler.com/flash" ffdec:objectType="shape" width="69.65" height="39"><g fill-rule="evenodd"><path fill="#999" d="M41.1 1.9q.5-.4 1.25-.35.7.05 1.15.5T44 3.2t-.35 1.25q-.4.5-1.05.65l-1.3-.2-.65-.65-.2-.7V2.9q.15-.6.65-1m-.9.35q-.25.9-1.05 1.2L38 3.5q-1.05-.35-1.15-1.45Q36.7.9 37.7.4l1.85.1q.9.65.65 1.75M35.75 3.5l-.9.65q-1.1.4-2.1-.25-.95-.55-1.05-1.8l.1-.9Q32.35 0 34.05 0q1.3 0 1.9.9.3.55.25 1.15zM2 36.5l-.9-.9q-1.5-1.65-.95-4.35.3-1.45 1.15-2.65l.6-.65-.95-.65Q.3 26.6.3 25.4q.1-1.65 1.3-2.5l.5-.25v-.05l-.9-.65q-.55-.65-.4-1.6l.25-.75q-.5-.6-.4-1.45Q.7 17.05 2 16.3l2.35-.3 1.2.3 1.3-1.05 1-.55.15-1.05q.45-1.9 2.55-2.95l.9-.3.4-.05q.25-.95 1.3-1.5l2.5-.2q-.4-1.7.8-2.85 1.25-1.25 2.85-.75L20.45 4l1.05-1.25q1-.8 2.2-.75l1.05.05.9-.25q.1-.7.9-1.15.65-.4 1.7-.3 1.1.1 1.6.6.55.55.65 1.5.15 1.15-.5 2.3L29 5.9q-.9.65-1.9.7l-2.05 1.75-.3.8q-.85 1.75-1.9 2.25l-1.4.2h-.25l-.1.2q-.5 1.05-1.35 1.8l-.55.55v.25q.15 1.65-.9 3-.5.65-1 .9l-.25.1.25.95q.4 1.4.2 2.35l-.65 1.7-.45.6-.95.9-.9.65.1 1.3-.1.55-.25 1-.4.85-.65.85-.15.15.2.85q.1 1-.45 2.45l.15.35.45 1.25v.75q-.1 1.05-.4 1.5-.45.75-1.35.9l-1.65-.35-.15-.1-1.95.35-1.45-.35-1.1.05q-1.7.2-2.55-.45z"/><path d="m65.65 18 1.2 1.55.05.05.8-.6 1.2.1q.5.4.5 1.4l.2 2.95-.05 1q-.35.8-1.1.8l-.85-.2-.9-.4-2.1-.45-.95-.65q-.4-.45-.3-.95t1.05-1.15l-.85-1.05-.3-.55v-.05l-1.25.1q-1.2-.1-1.55-.4l-.7-.95-.5-1q-.55-1.15-.4-1.65.15-.7.85-.95l1.6.2.75.3q0-.8.25-1.5.3-.75.7-1.05l.8-.15.7.4.55 1.25.3.95q.15.75-.2 1.65l-.1.25zm-9.6-7.5-.1.1-.45.05q-.45.1-.85-.3l-.4-.8.1-.55v-.05l.35-.4q.65-.45 1.2-.15.65.25.75 1 0 .75-.6 1.1m-10.7-7.8 1.25.25 1.55.7.95 1.4.35 1.05q.1.65-.35.95L47.9 7l-1-.8-1-.6-1.2-.5q-.75-.5-.5-1.45.25-.85 1.15-.95m2.05 7.1-.3.7-.4.3-1.1.15-.55-.3-.35-.45q-.45-.9.3-1.65t1.65-.25q.7.3.8.95zm2.45-.1q-.1-.75.6-1.2l.35-.15h.55l.7.5.2.85-.4.8-.8.3-.8-.3q-.35-.35-.4-.8m-.7 3q.75.4.75 1.25 0 .55-.4.95-.6.7-1.5.35-.75-.35-.85-1.1-.15-.8.55-1.35zm-6.65-2.25-.05.5-.2.35-.7.55-.85-.05-.25-.15-.4-.5q-.2-.45-.05-.85 0-.3.25-.55.3-.3.55-.35l1.1.1q.5.35.6.95m4.3 18.35-.25-1.7.05-1.25-.85-.15q-.9-.35-1.05-1.1l.05-1 .2-1.15.25-.7q.25-.45.75-.65l.95.05.55.3.55.25.35-.4q.95-.85 1.6-.75.6.15.9.9l.2 1.35-.05 1.25-.95 1.15-.35.3.05 1.2.25 1.4v.1h.05q.8 0 1.15.35.6.45.4 1.35l-.55 1.35-.65 1.15-1.1 1.6q-.9.75-1.85.35l-.75-.75-.55-.95-1.1-1.7q-.25-.5-.15-1.05.05-.55.5-.8.35-.25 1.2-.25h.2zm2.65-10.4q0 .65-.7 1l-1.25-.15q-.55-.45-.4-1.15.05-.45.5-.8l.75-.2q.5.1.8.45.35.35.3.85m10.45-5.85-.3.85-.75.45q-1 .25-1.55-.75-.4-.9.4-1.65.45-.3 1-.3.55.05.95.55.35.4.25.85M36.05 1.75q.1-.5.45-.8.45-.35 1.35-.25 1.65.15 3.2.85l1.05.75q.5.7.05 1.25-.35.35-1.05.35l-1.55-.25-1.55-.3-1.1-.15q-.95-.35-.85-1.45m-6.4-.65 1.3.05 1.3.15q1.15.3 1.2 1.05 0 .6-.65.95l-1.2.2-2.25.2-1.6.15q-.55-.2-.8-.8t.05-1.1q.35-.6 1.2-.75zM20.4 7.9q-.45.1-.8-.2-.4-.3-.4-.75.05-.4.45-.9.7-.85 2.1-1.8 1-.65 1.45-.65l.9.5q.4.45.3.95-.2.7-.95 1.05-1.45.65-2.1 1.15zm9.4 14.2-1.7 1.7-.05.05.3 1.35q-.2.7-1.1.95l-1.5.25-1.35.15q-.9-.1-1.15-.65-.25-.4-.05-1.2l.55-2.9.4-1.15q.3-.35.8-.45l.85.1.7.7 2.2-1.7 1.3-.95-.05-.15q-.4-1.45.15-2.15.3-.45 1.3-.95l.8-.65 1.4.05q.65.55.5 1.3l-.25.8.3.35h.2l1.2.2.55.65-.05.8-.45.7-.3.65q-.4.7-1.3.95l-1.65.2-1.15-.2-.1-.05zm8.45-6.7-.5.3-1.15-.1q-.6-.35-.65-.9-.15-.55.25-1.05.6-.85 1.55-.45l.7.7q.25.55 0 1.05zm-22.7-2.15-.65 1-1.45.15q-.8-.45-.65-1.3 0-.55.6-1.25 1.4-1.8 2.25-2.5l.15-.1.25-.25 1-.15.2.1.3.25q.7.7.2 1.5l-.9.85L16 12.7l-.4.5zM11 16.7q.55-.45 1.05-.3.6.25.6 1.05l-.45 1.2-1.05 2.5-.5 1.1q-.3.35-.75.4l-.85-.1q-.9-.4-.75-1.45l.4-.85 1.25-2.15q.55-1 1.05-1.4m-2.25 9.25q.2.3 0 1.1L7.9 30.1l-.35.85q-.5.75-1.4.6-.85-.15-1.1-1.05-.15-.7.45-1.9l.9-1.65q.5-1 .95-1.25l.8-.15q.4.05.6.4M3.75 39l-1-.6q-.45-.55-.45-1.2l.6-1.85.85-1.7q.3-.4.75-.6l.9-.05q.7.2.9 1.1l-.05 1.5-.25 1-.7 1.65q-.65.85-1.55.75"/><path fill="#999" d="M53.95 2.8q.8-.85 1.55-1l.95.2q.45.25.5.7.1.7-.8 1.5-1.9 1.65-3.9 2.35v-.6l1-2.1zm3.25 2.65q.6-.35 1.15-.4.65-.1 1.1.3l.4.85-.35.85-1.2.45-1.85-.05-1.65-.15-.15-.3.15-.2zm-19.4 2.4q-.55-.35-.65-.95 0-.65.45-1.05l1.25-.35 2.25.5 1.85 1.05.2.2-.15.35q-.35.25-.7.2l-.65-.1-.8.05-1.9.25zm15.15 4.95q.4 0 .75.35.4.4.3 1l-.15.55-.65.45-.85-.1q-.85-.5-.5-1.5.4-.75 1.1-.75M42.8 14.4l.55-.7.5-.15h.1q.55 0 .95.4.4.5.25 1.05-.1.7-.85.95-.75.2-1.2-.35-.55-.55-.3-1.2m-.1 3.65-.1.55-.3.4q-.3.35-.8.4l-.9-.2-.55-.75q-.15-.5.05-.9.15-.45.6-.7l.9-.15q.5.1.8.5zm11.85.2-.8.1-.6-.45q-.35-.6-.05-1.1.25-.55.9-.65.55.1.85.5l.2.65q0 .6-.5.95m.2 3.7q-.15-.2-.15-.55l.05-.4.3-.45q.2-.2.7-.3.65.1.95.6.3.55 0 1.1l-.9.5q-.6 0-.95-.5m4.4 6.1.1.45.7-.15q.6.2.7.75v.7l-.3 1.6q-.1.95-.65 1.15-.5.15-1.2-.45l-.8-.7-.45-.3-.65-.25q-.45-.25-.15-.85.15-.3.75-.6l-.1-.15-.65-1.6-.3-.05q-1.15-.2-1.6-.55-.95-.65-.55-1.5l.55-.55q.55-.45 1.1-.45l.65.3q.3-.3.75-.3l.65-1q.45-.4 1.1-.2.65.3.65.9l-.25 1-.4.8-.1.35zM37.3 23l.05-.4q.15-.55.65-.8l1-.15.75.6q.3.4.2.9-.05.5-.5.8-.4.35-.9.3-.45 0-.85-.4-.35-.35-.4-.85m-3.2 6.25.7-1.15-.2-.85-.45-1.2q-.1-.8.6-1.15.65-.4 1.3.15l.45.55.2.35.4.1.3.4.45-.1q.55 0 .75.3.35.45 0 1.1-.3.55-1 .75l-.85.05-.4.35-.65 1.4-.25.55.1.1q.55.4.55 1.05 0 .75-.6 1.05l-.85.2-1.4.5q-.45 0-.75-.35-.3-.4-.25-.85l.35-1.05-.2-.6-.25-.6q-.05-.35.2-.65t.6-.35q.4-.1.95.35z"/></g></svg>