<svg xmlns="http://www.w3.org/2000/svg" xmlns:ffdec="https://www.free-decompiler.com/flash" ffdec:objectType="shape" width="75.45" height="42.55"><path fill="#717171" fill-rule="evenodd" d="M.5.6h74.45v40H.5z"/><path fill="none" stroke="#999" stroke-linecap="round" stroke-linejoin="round" d="M.5.6h74.45v40H.5z"/><path fill-rule="evenodd" d="m54.85 9.25 1.35 1.3 1.3 2.15.6 1.2.4.05 2.5 1 .75.4 1.3.8q.7.6.8 1.2.2.75-.35 1.65l-1.25 1.25-3.15 2.05-.4.2q.35.9-.05 2.4-.75 2.8-1.9 4.1l-.65.9-.2 1.3q-.1 1.1-.75 2.55l-.85 1.5-1.25 1-1.65.95q-2.85 1.5-5.6 1.3l-4.15-1.1-1.7-.85-1.75-1.8-1.05-1.45-.5-1.3-.25.4q-1.95 3.4-2.85 5.9-.65 1.8-1.1 2.25l-.55.5H7.6q.3-.7 1.1-1.5l1.95-1.85.4-.45q.45-.4 1.95-1.45l2.6-1.95 2.6-2 3.15-2 4.8-2.8q2.3-1.2 5.1-2.25L29 24.25l-1.45-.4-1.7-.15-5 .2-2.2.6q-.6.2-1.45.65-1.8 1-2.75 2.95L13.2 31l-1.3 1.6-1.65 1.35q-1.2.7-2.9.7l-1.5-.25q-.9-.35-1.35-1.25t-.3-1.9q.3-1.95 2.25-2.95l1.75-.75 1.6-1 .65-.85q1.05-1.65 2.8-2.9 2.55-1.9 6.2-2.65l6.8-.3 1.9.25 7.05 2.75q-.4-1.2-.5-2.5-.25-2.8.75-5.35l.9-1.85-.8-1.6-.5-1-.6-1.65q-.2-1.1.3-1.7.4-.7 1.45-.95l3.75-.5L45.8 6l.6.2q2.5-.25 4.85.75 1.65.7 3.6 2.3m-2.3 13.15q.95.75 2.2.65 1.15-.05 2.1-1l.4-.55-1.1-1q-1-1.55-.7-3.45l.25-1.1-1.05-.2-1 .1q-.6.1-1.1.5-.95.75-1.35 1.9t0 2.3l.2.45.25.4zm-6.8 4.95.4-.65 1.25-2 1.2-2.05.4-1.3.2-1.3q.15-1.05-.05-1.6l.05-.1.1-.3.25-.35.15-.1.15-.2.2-.45v-.3L50 16.5l-.25-.15-.35-.05-.1.15-.95.95q-1.7.2-3.85 1.2l-.25.1q-2.5 1.45-3.8 2.8l-.75 1q-.3.65-.15 1.2.25 1.05 1.4 1.25l2-.25.4-.1.3.25.25 1.05q-.05.8.05 1.1l.8.65q.6.1 1-.3m-.8-17.75q-1.9-.1-3.05 1.2-.9 1.05-.9 2.5l.15 1.25.2.55.35-.15 2-.3 1.05.05.85.1.7.25.65.4.35.4q1.45-1.15 1.35-2.9l-.15-1q-.45-1.05-1.4-1.7-1.05-.65-2.15-.65m6.6 19.85L48.1 30q-4.7.3-6.9-.8l-1.5-1-.15 1.2q0 1.35.55 2.25l.95 1.1.8.65.8.25 2.9.5 2.8-.3 1.45-.7 1-.75q.6-.65.7-2.05z"/><path fill="#717171" fill-rule="evenodd" d="M44.95 9.6q1.1 0 2.15.65.95.65 1.4 1.7l.15 1q.1 1.75-1.35 2.9l-.35-.4-.65-.4-.7-.25-.85-.1-1.05-.05-2 .3-.35.15-.2-.55L41 13.3q0-1.45.9-2.5 1.15-1.3 3.05-1.2m.8 17.75q-.4.4-1 .3l-.8-.65q-.1-.3-.05-1.1l-.25-1.05-.3-.25-.4.1-2 .25q-1.15-.2-1.4-1.25-.15-.55.15-1.2l.75-1q1.3-1.35 3.8-2.8l.25-.1q2.15-1 3.85-1.2l.95-.95.1-.15.35.05.25.15.05.15v.3l-.2.45-.15.2-.15.1-.25.35-.1.3-.05.1q.2.55.05 1.6l-.2 1.3-.4 1.3-1.2 2.05-1.25 2zm6.8-4.95-.9-1-.25-.4-.2-.45q-.4-1.15 0-2.3t1.35-1.9q.5-.4 1.1-.5l1-.1 1.05.2-.25 1.1q-.3 1.9.7 3.45l1.1 1-.4.55q-.95.95-2.1 1-1.25.1-2.2-.65"/><path fill="#fff" fill-rule="evenodd" d="M44.85 6.6q-.15-.1-.15-.4l-.1-.45-.3-.3-.45-.9-.4-.4-.4.75q-.25.45-.2.8l.1.4v.3l.15.35.1.5-.15.5-.15.35q-.2.25-.45 0l-.35-.55-.4-.75-.25-.3-.15-.65-.05-.7-.15-.5.2-1.4.15-.3.65-1.6.25-.7q.15-.4.6-.6l.85.2 1.35 2.3q.9 1.65 1 2.25l.05.8-.05.65-.15.4v.45l-.3.7-.7 1.15-.45.35-.45.05q-.4 0-.55-.25l.05-.4.3-.3q.8-.8.95-1.8M55.8 5.35l.05-.95.05-.25v-.3l-.05-.45.05-.1-.05-.05.05-.3V2.7l.1-.95-.05-.25q-.05-.5.25-1l.25-.2.45-.15.1-.05q.85.1 1 .85.25.45.05 1.5l-.1.6-.05.05-.3.5-.15.2-.55.35-.15.25-.2.8v.3l-.1.2-.1.3-.25.15-.1-.05-.05-.35-.1-.15zm6.05 2.75.4-1.15.5-.7.8-.85.4-.35.25-.05.15.2-.1.3-.25.4-.5 1-.2.9q0 .6.15 1.05l.9 2.05.05.4-.05.4-.15.55-.15.35-.65.55q-.2.3-.45.2l-.35-1.3-.3-.65-.4-1.25-.05-.75q-.15-.7 0-1.3m-4.15 8.6 1.4-1.3q.65-1 .5-1.8l-.9-1.95q-.75-1.4-.95-2.7-1 1.45-.65 3.25l.4 1.95q0 1.3-.95 1.6h-.65l-.5-.45-.3-1.15-.5-2q-.1-.85.35-2.05.55-1.5 1.85-3.05l2.5-2.7.85-1.05q.5-.85.75-.9.5-.2.75.25l.3.8-.2.95-.8 1-.85 1q-.4.9-.15 2.05l.75 2q.8 2.15.55 3.75-.25 2.2-1.9 3.15L58 17.8l-.55-.15-.25-.45q.05-.3.5-.5m10.75 7.35q-1.3 1.7-1.6 2.75-.4 1.45.1 2.75l.95 1.6.5.6.6.55 1 1.35.3-.8.15-.7q.15-1.1-.2-2.1l-.45-1.3v-1q.25-1.5 1.05-2.35l.5-.3.3.1.1.25-.25.35-.25.55-.05.6q0 .65.3 1.15l.55.9q.65 1.25.4 3.45v3l-.5 2.2-.75 2.25-.55.7q-.55.55-1.05.35l-.15-.1q-.55.1-.55-.25 0-.25.25-.4.85-.95.9-1.8l-.35-1.45-.25-.95q-.3-.9-1.45-1.85-1.5-1.15-1.85-1.5-1.15-1.2-1.45-2.85-.5.8-.05 1.9l.95 1.7q.6 1.2.5 2.6-.1 1.35-.8 2.5-.5.9-.55 1.35l.1 1.4q-.1.85-.8 1.15l-1.4-.15-.6-.9q-.3-1 .1-2.1l.95-1.85.7-1.3-.35-1.55-.75-1.4q-.75-1.65-.2-4 .75-3.6 3.1-5.5l1.8-1.4 1.45-.65.8-.2q.5 0 .65.45.15.35-.25.75l-.7.5zM47 3.9l-.1-.65.05-.05.1-.6.15-.3.25-.2h.05v-.05l.25.2-.05.4-.05.75v.2l.1.1.6.4.25.35.45.65.05.25.05.6-.05.7-.3.7-.65.4-.3-.05q-.8-.25-.7-1.05l.05-.3-.1-1.05v-.45l-.1-.2.05-.55zm13.15 29.2.15-1.85.05-.05q0-.6.15-.7l.2-.2.2-.2h.05l.05-.05.4.2v.35l-.1.3-.1 1.65.45.65.45.5.6.85.1.45-.1.4-.35.3-.3.1-.65-.3-.25-.35-.25-.35-.25-.3-.1-.35-.35-.6zm10.75 2.45.05.05v-.05zM22.95 18l.15.6v1.1l-.25.7-.45.7q-.6.6-1.35.45-.85-.1-1.15-.8-.45-.85.2-1.7l.25-.35.05-.35-.2-.25-.2-.5-.1-1.2.05-.65q.05-.45.45-1.35l.35-.6.55-.65q.3-.4.6-.45l.45.2q.25.2.1.5l-.2.35-.45.7-.3.65-.15.35v.25l.45.75.9 1.05zm-10.9-5.75q-1.1 1.6-1.05 2.95 0 .65.4 1.75l.55 1.4.75 1.4.75 1.4q.75 1.85.3 3.9-.4 2-1.95 3.4-.9.8-1.65.8l-.4-.15q-.25-.25.1-.75l1.35-2.9q.25-1.5-.65-3.4Q9.4 20 9 18.95l-.4-1.4-.2.45q-1 3.1-.4 5.7l.85 2.55.1 1.65q-.25 1-1.1 1.15-1 .25-1.6-.9-.3-.6-.5-1.9l-.45-1.9q-.3-1.1-.3-1.9l.1-1.55q.7-5.05 3.2-7.95l1.65-1.85 1.25-1.4.3-1.05.35-1.6.35-.35.35.2q1.1 1 .7 2.9l-.6 1.55zm5.9 3.65-.05-.1v-.15l-.05-.25v-.2l.05-.15v-.15l.05-.1H18v-.25l.05-.15h.05l.15-.25.2-.15.3-.05v-.05l.35.1.2.25h.05l.05.2.05.1v.15l-.05.1-.1.3-.35.35-.25.5h-.05l-.05.3.05.05-.05.1v.6l-.05.1h-.1l-.15-.15h-.05l-.05-.25-.05-.1v-.1l-.05-.05v-.1l-.05-.25H18zm-3.4-.05-.1.85v.35l-.1.5v.55l.3 1.8.1.3q0 .4-.4.4l-.5-.25-.3-.45-.6-1.3-.45-1.5-.1-1 .4-1.95.3-.5.75-.4.8.2.35.75-.3 1.1zM15.9 33l-.1-1.25.1-1.45.15-.9.3-.95.25-.65.6-1.1.35-.35q.15-.15.45-.15.45 0 .6.35v.7l-.25.45v.3l.1 1.05q.05.95.55 1.9l.25.55.1.65.05.7-.1.8-.15.5-.25.2-.75.15-.25-.5.2-.85.05-.45-.15-.55-.6-.85v1.45l-.3.85-.4.15-.45-.15q-.25-.2-.35-.6m-2.4.4.15-1.15.25-.3.05-.2.25-.15.3.1.05.15-.1.3v.2l.05.6.05.2.3.3.3.4.2.2.2.35.1 1.15-.1.45-.15.1-.55.55h-.8l-.3-.2-.15-.15-.15-.4.05-.7.05-.2-.05-.15v-.15l-.05-.1.05-.05-.05-.05.05-.05-.05-.2.1-.25-.05-.2.05-.05-.05-.05.05-.05z"/></svg>