<svg xmlns="http://www.w3.org/2000/svg" xmlns:ffdec="https://www.free-decompiler.com/flash" ffdec:objectType="shape" width="77.3" height="37.6"><g fill-rule="evenodd"><path fill="#999" d="M66.95 7.05 66.8 8.5l-.5 2-.15.5-.45.25-.35-.25-.15-.4-.45-1.65-.15-1.1-.15-1.95.05-.6q.05-.35.25-.6l.3-.35.8-.25q.6-.05 1.05.5.35.5.2 1.2zm-2.3 5.9q.8-.75 1.7-.2l.55.75-.05.85-.6.7-.9.1-.75-.45q-.3-.4-.3-.85t.35-.8zM25.25 25.3h1.1l.8-.25q1.7-.55 4.3-.65l6.5.45 2.6.45h1.25l2.95.05.45-.05 4.35-.9.5-.8q1.55-1.9 3.9-3.45 2.8-1.75 6-2.4l6.45-.2 2.6.4 2.55.1q2.15-.3 3.6-1.75.7-.7 1.1-.45l.2.5-.2.5-.7.9q1.15.4 1.55 1.7.3.95.15 2.35-.15 1.55-.85 2.65l-1.1 1.3h.05l.05.05.05.1.05.05.05.05v.05l.05.1v.05l.05.05V27l.05.1v4.65l-.05.1v.5l-.05.05v.5l-.05.05v.6l-.05.05v.25l.05.05v.05l.05.05.05.1v.55l-.05.05v.1l-.05.05-.05.05-.05.05-.05.1-.1.05-.05.05-.15.05-.1.05-.2.05-.25-.05-.2-.05-.15-.05-.25.05h-12.6l-3.75.05h-1.5l-2.45.05h-17l-2.2-.05H29.5l-2.25.05h-5.7l-8.75-.05H6.3l-.7-.05H4.45l-1.1-.05h-.2l-.05.05-.05.1-.05.05-.1.05-.1.05-.1.1-.1.05h-.15l-.2.05-.2-.05H1.9l-.15-.1-.1-.05-.1-.05-.05-.05-.1-.1-.05-.05-.05-.05-.05-.1V35l-.05-.05v-.05l-.05-.1v-5.85l.05-.05-.85-.45Q-.1 28 0 27.25q.05-.7.55-1.2l.95-.6.05-.05h.1l.1-.05h.05L3 25.1l1.35-.1 1.3-.25 2.05-.95q1.05-.45 2.45-.7Q17.4 21.75 24 24.95l.75.35z"/><path d="M57 20.3q-.5-.7-.6-1.65l.15-1.4.2-.7q.35-.95 1.4-1.75.65-.5 1.4-.65l1.35-.1 1.35.25.7.45 1.05 1.3.3.85.15.55q1.1.15 2.1.65l.45-.2 1.25-.2q1.2 0 2.05.4 1.25.6 1.85 1.65.65 1.25.45 2.5-.2 1.2-1.2 2.1l-.95.7-.3.9q-.45 1.25-1.85 3.1l-.65.75.35.45q1.25 1.6 1.5 3 .45 1.95-.75 3.15-.65.65-1.85.9l-2.1.2-4.5.05-1.5-.05q-.8-.2-1.65-.8-1.15-.75-1.4-1.65-.15-.45-.05-1.4.25-1.45 1.5-2.95l1.05-1.05q-.9-.75-1.5-1.75-1.35-2.2-.75-4.8l.35.7q.5.7 1.4.95l1.7-.15q.8-.4 1.15-1.25t.1-1.7-1.05-1.35-1.65-.4zM45.6 1.45q.45.1.95.35Q48.3.35 49.5.05L50.65 0q.7.1.95.55l.45 1q.4 1.15.4 2.1v.6l.1.65-.05 1.45.15 1.3q.8 1.95.75 4.1-.1 2.4-1.3 4.45-1.85 3.15-5.35 4.25l-.65.2.55 1.35.05-.05 2.85-.2q.75.1 1.35.5l1.9-.2q1.35.15 1.75.95.4.65-.1 1.3-.55.55-1.25.4l-.75-.4v.6q-.05 1.05-.65 1.8-1.35 1.6-3.4 1.35l.05.4.5 3q.1 1.7-.4 2.9l-.7 1.35H35.1l-.2-.35q-.75-.2-1.1-.55l-.55-.95-.55-.9q-.6-.5-1.25-.5h-.05l-.7.45-1.75 1.1-3.65-.2q-1.7-.85-2.45-2.75l-.25-1.1.1-1.15q.25-1.35 1-2.1.9-1 2.05-.85.7.05 1.25.5.55.5.7 1.15.2.65-.05 1.3l-.85 1.05q.45.75.8.8l.65-.1 2.6-.7q1.55-.15 2.65.5l.35.25.3.1.45-2-.55-.35q-1.4-1.15-1.5-2.95-.2-1.8.9-3.2.45-.65 1.45-1.4l1.2-.75-2.05-1.5q-1.5-1.55-2.05-3-1-2.5-.3-5.4V8.7l.05-1.4-.1-1.2q-.1-1.4.35-4.15.1-.85.4-1.2.25-.4.65-.45L35 .5q1.4.7 2.45 1.7l1.3-.5 3.1-.5zM33.4 8.5q-.4.95-.25 2 .2 1.05.85 1.8.7.75 1.75 1l2-.15q.95-.35 1.55-1.3.6-.9.6-1.9t-.6-1.9q-.6-.85-1.55-1.25l-2-.15q-1.05.25-1.75 1zm33.15 11.95q-.85.05-1.55.55-.75.5-1.05 1.25-.55 1.05.05 2.3.5 1.15 1.75 1.5.8.25 1.6 0l1.35-.9.65-1.45q.1-.85-.25-1.55-.65-1.6-2.55-1.7M63.7 26.3q-.1-.25-.55-.35l-.7-.2.05-.25-.05-.25v-.3l-.3-.45q-.25-.15-.55 0l-.3.45v.25l-.1.15v.2h-1.1l-.45.1q-.35.2-.35.55-.05.4.25.6l.95.2h2.25l.8-.1q.35-.2.15-.6M40.4 15.15q.15.6.85 1.05l1.3.25q.9-.1 1.3-.5l.35-.7q.35-1.15-.35-1.95-.3-.3-.95-.5l.1-.35-.25-.7-.65-.3q-.7 0-.9.75l.05.6v.15q-.25.1-.45.3-.35.45-.45 1.15zm7.7-7.8q-1.35-.85-2.7-.3-1.45.5-1.85 1.95-.45 1.4.35 2.7.9 1.2 2.4 1.3 1.55.1 2.45-1.05.45-.5.7-1.4l.05-.6q0-.8-.5-1.65zM7.05 12Q4.85 9.3.75 6.3V4.4q1.65.9 3.9 2.5 3.7 2.65 5.45 4.65 2.75 3.1 3.45 6.3l.3 1.5h.05l.05-.05h.1l.25.05.5-.05h.35l.85.05h.45q-.4-.8 0-1.3.3-.45 1-.15.35.1.9.55l1.3 1.3.6.75.05.15v.25l-.1.15-.6.65-1.4 1.2-.95.55q-.7.2-.95-.25-.4-.5.05-1.3h-.45l-.85-.05h-.35l-.45-.05-.25-.05h-.1l-.05-.05h-.05l-.4 1.5q-.95 3.1-3.9 6-1.9 1.9-5.75 4.35l-3 1.7V33.2q3.65-2.4 5.75-4.65 3.1-3.4 4.1-7l-1.3-.05-.95-.05-.15-.1h-.25l-.5-.05-.55-.05-1.15-.05-.25-.05h-.2l-2.4-.1L1.3 21l-.4-.1H.75v-1.65h.6l1.6.05h2.6l.25.05 1.15-.05.55.05.5-.05h.25l.15-.1.95.05 1.3.05q-.7-3.7-3.6-7.3"/><path fill="#fff" d="M56 23.1q-.3-.85.05-1.7.3-.7.95-1.1l1-.4q.85-.1 1.65.4t1.05 1.35-.1 1.7-1.15 1.25l-1.7.15q-.9-.25-1.4-.95zM48.1 7.35l.9.95q.5.85.5 1.65l-.05.6q-.25.9-.7 1.4-.9 1.15-2.45 1.05-1.5-.1-2.4-1.3-.8-1.3-.35-2.7.4-1.45 1.85-1.95 1.35-.55 2.7.3m-7.7 7.8-.05-.75q.1-.7.45-1.15.2-.2.45-.3v-.15l-.05-.6q.2-.75.9-.75l.65.3.25.7-.1.35q.65.2.95.5.7.8.35 1.95l-.35.7q-.4.4-1.3.5l-1.3-.25q-.7-.45-.85-1.05M63.7 26.3q.2.4-.15.6l-.8.1H60.5l-.95-.2q-.3-.2-.25-.6 0-.35.35-.55l.45-.1h1.1v-.2l.1-.15v-.25l.3-.45q.3-.15.55 0l.3.45v.3l.05.25-.05.25.7.2q.45.1.55.35m2.85-5.85q1.9.1 2.55 1.7.35.7.25 1.55l-.65 1.45-1.35.9q-.8.25-1.6 0-1.25-.35-1.75-1.5-.6-1.25-.05-2.3.3-.75 1.05-1.25.7-.5 1.55-.55M33.4 8.5l.6-.85q.7-.75 1.75-1l2 .15q.95.4 1.55 1.25.6.9.6 1.9t-.6 1.9q-.6.95-1.55 1.3l-2 .15q-1.05-.25-1.75-1-.65-.75-.85-1.8-.15-1.05.25-2"/></g></svg>