<svg xmlns="http://www.w3.org/2000/svg" xmlns:ffdec="https://www.free-decompiler.com/flash" ffdec:objectType="shape" width="76.45" height="41.85"><path fill="#999" fill-rule="evenodd" d="m11.1.5-.05.1q-.45 1.7-.5 4.7l-.2 4.7-.3 1.55-.2.9-1.1.25-1-2.9Q6.05 4.85 4 .5zM2.9.5q.15 1.3.6 2.95l.9 3.05 1.85 7.75-.35.35-2.7-3.45L1.25 8.4.9 8l-.25-.05-.15.1V.5zM.5 8.6l.4.8.3.5 1.9 3.3 1.6 2.95-.95-.3-2.1-1.15-.7-.3-.45-.05zm0 7.55.1.1.5.3 1 .9 2.7 1.75v.1l.4 1.35L3 22.3l-.5.3-.9.7-.45.6-.6.7.15.5.45.2.7-.3.6-.25L3.9 24l1.45-.8.35-.15-.4.8-.65 1.9q-.35 1.65-.35 2.9.1 1.6.65 2.95L6 33.4l.9.75q1.6.9 2.95.6.8-.2 1.35-.75.6-.55.65-1.3.1-.75-.3-1.3-.45-.6-1.1-.6L9.2 31q-.95 0-1.55-1.25-.85-1.75-.3-4.65l.5-2.2 1.45.15q1.35-.1 2.9-1 1.5-.8 2.1-1.5 1-1.1.95-2.35l-.15-1-.05-.85 2.8-2.9 2.05-1.7.3-.3q0-.25-.4-.35l-.6.25-2.15.9-1.15.75-1.65.9-.15.1v-.05q2.6-5.7 5.85-10.9l.1-.35-.45-.25-.45.4L15.9 7l-2.65 4-.65 1.05v-.1l-.1-3.45-.6-7.9V.5h50.25l-.1.15q-.25.4.05.75l.3.2.85 1.2.3.35.45.7.6 1.25.45.7-.65.25-.3.2L62.3 5q-.45-.3-1.35-.65l-1.4-.6-.5-.25-.55.1-.1.4.35.5 2.3 2 .6.75.6.5-.4.45-1.55-.4-.65-.25-1.55-.35-1.55-.25-5.1-1.3-.55-.05-.45.25.05.45.25.2.7.3.65.25h.05l.35.15 2.05 1.1 2.35.9 2.1.6 1.05.05.8.3q-.25.85-.15 1.9h-.15l-.5.6-.05.8.1.75-2.1 1.55-2.4 1.65-1.25.85-2.1 1.45-.2.4.35.05q1.15-.25 2.65-1.1 1.5-.5 4.5-1.95l1.5-.75.15.2.6.45-5.2 5-.3.4q-.15.35.15.45l.4-.05 3.6-2.4 3.35-2.45.65.15.95.35-.65 2.3-.3 1-.3 2-.45 1.95-.1.6q.1.4.45.25l.1-.2.95-2.8 1.85-4.95.55-.05v2.25l.4 7.1.2 1.35.2.15.2-.05.25-.45.3-1.35.6-5.5.35-4.45.5-.4q1.35-1.2 1.9-3.05l1.35.3q1.35-.1 1.95-1.4v28.3H.5zM62.95.5H75.7v1.1l-.05-.05q-.75-.9-1.9-1l-1.35.3h-.05q-.75-.2-1.15.4l-.3.55-.25.95q-.55.75-.85 1.65-.4 1.05.1 1.6l.65.35.7-.15.45-.6-.05 2.2-.15-.2q-.95-1.3-2.45-1.9l-.75-.25-.1-.1-.5-.6-.1-.15-2.05-2.15L63.1.6zM27 7.95l-2.65 1.4-.85.6-2.6 2.4Q19.4 14 18.3 16.2l-.35 1.1q-.1.8.5 1.4.7.65 1.45.3t1-1.3l.3-1.65.35-.8.9-1.75L24 11.45l1.6-1.75.8-.75q.15-.15.8-.45l.35-.2.05-.35q-.2-.2-.6 0m11.8-.4-.25-.45-.55-.05-2.1-.15-2.1.05q-.55.1-1.65.5-3.7 1.35-6.35 3.9-2.85 2.7-3.9 6.3-.35 1.4-.15 2.25.25 1.35 1.45 1.65.9.15 1.5-.5.5-.5.7-2.15.65-4.85 4.25-7.9 3.65-3.2 8.4-3.1.7 0 .75-.35m6.55 30.25 1.5-.3q-1.7.8-3.75.7-2.55-.15-4.75-1.65l-.25-.05-.1.3q0 1.1 1.45 2.15 2.45 1.6 5.35 1.35t4.95-2.3l1-1.1q2.05-2.55 2.65-5l.2-1.5-.4-1.8-.6 1.05-.4.2-1.5 1.55-1.4 1.65q-2.05 2.05-5.05 1.9-1.85-.1-3.55-1.25-1.6-1.1-2.65-2.8-.15-.35-.4-.35l-.3.3q-.25.65 0 1.6.6 2.55 3.2 4.25l1.3.65 1.35.3z"/><path fill="#fff" fill-rule="evenodd" d="M11.1.5h.8v.1l.6 7.9.1 3.45v.1l.65-1.05 2.65-4 3.25-4.15.45-.4.45.25-.1.35q-3.25 5.2-5.85 10.9V14l.15-.1 1.65-.9 1.15-.75 2.15-.9.6-.25q.4.1.4.35l-.3.3-2.05 1.7-2.8 2.9.05.85.15 1q.05 1.25-.95 2.35-.6.7-2.1 1.5-1.55.9-2.9 1l-1.45-.15-.5 2.2q-.55 2.9.3 4.65Q8.25 31 9.2 31l1.25-.2q.65 0 1.1.6.4.55.3 1.3-.05.75-.65 1.3-.55.55-1.35.75-1.35.3-2.95-.6L6 33.4l-1.05-1.8q-.55-1.35-.65-2.95 0-1.25.35-2.9l.65-1.9.4-.8-.35.15-1.45.8-1.45.75-.6.25-.7.3-.45-.2-.15-.5.6-.7.45-.6.9-.7.5-.3 2.2-1.65-.4-1.35v-.1l-2.7-1.75-1-.9-.5-.3-.1-.1v-1.8l.45.05.7.3 2.1 1.15.95.3-1.6-2.95-1.9-3.3-.3-.5-.4-.8v-.55l.15-.1L.9 8l.35.4 1.95 2.75 2.7 3.45.35-.35L4.4 6.5l-.9-3.05Q3.05 1.8 2.9.5H4q2.05 4.35 3.75 9.3l1 2.9 1.1-.25.2-.9.3-1.55.2-4.7q.05-3 .5-4.7zm51.05 0h.8l.15.1 2.45 1.85L67.6 4.6l.1.15.5.6.1.1.75.25q1.5.6 2.45 1.9l.15.2.05-2.2-.45.6-.7.15L69.9 6q-.5-.55-.1-1.6.3-.9.85-1.65l.25-.95.3-.55q.4-.6 1.15-.4h.05l1.35-.3q1.15.1 1.9 1l.05.05q.5.65.65 1.4l.1 1.2-.05 2.5-.45 5.4-.25.95q-.6 1.3-1.95 1.4l-1.35-.3q-.55 1.85-1.9 3.05l-.5.4-.35 4.45-.6 5.5-.3 1.35-.25.45-.2.05-.2-.15-.2-1.35-.4-7.1v-2.25l-.55.05-1.85 4.95-.95 2.8-.1.2q-.35.15-.45-.25l.1-.6.45-1.95.3-2 .3-1 .65-2.3-.95-.35-.65-.15-3.35 2.45-3.6 2.4-.4.05q-.3-.1-.15-.45l.3-.4 5.2-5-.6-.45-.15-.2-1.5.75q-3 1.45-4.5 1.95-1.5.85-2.65 1.1l-.35-.05.2-.4 2.1-1.45 1.25-.85 2.4-1.65 2.1-1.55-.1-.75.05-.8.5-.6h.15q-.1-1.05.15-1.9l-.8-.3L59 9.8l-2.1-.6-2.35-.9-2.05-1.1-.35-.15h-.05l-.65-.25-.7-.3-.25-.2-.05-.45.45-.25.55.05 5.1 1.3 1.55.25 1.55.35.65.25 1.55.4.4-.45-.6-.5-.6-.75-2.3-2-.35-.5.1-.4.55-.1.5.25 1.4.6q.9.35 1.35.65l1.8 1.25.3-.2.65-.25-.45-.7-.6-1.25-.45-.7-.3-.35-.85-1.2-.3-.2q-.3-.35-.05-.75zm-16.8 37.3-2.15-.15-1.35-.3-1.3-.65q-2.6-1.7-3.2-4.25-.25-.95 0-1.6l.3-.3q.25 0 .4.35 1.05 1.7 2.65 2.8 1.7 1.15 3.55 1.25 3 .15 5.05-1.9l1.4-1.65 1.5-1.55.4-.2.6-1.05.4 1.8-.2 1.5q-.6 2.45-2.65 5l-1 1.1q-2.05 2.05-4.95 2.3t-5.35-1.35Q38 37.9 38 36.8l.1-.3.25.05q2.2 1.5 4.75 1.65 2.05.1 3.75-.7zM38.8 7.55q-.05.35-.75.35-4.75-.1-8.4 3.1-3.6 3.05-4.25 7.9-.2 1.65-.7 2.15-.6.65-1.5.5-1.2-.3-1.45-1.65-.2-.85.15-2.25 1.05-3.6 3.9-6.3 2.65-2.55 6.35-3.9 1.1-.4 1.65-.5l2.1-.05 2.1.15.55.05zm-11.8.4q.4-.2.6 0l-.05.35-.35.2q-.65.3-.8.45l-.8.75-1.6 1.75-1.55 2.05-.9 1.75-.35.8-.3 1.65q-.25.95-1 1.3t-1.45-.3q-.6-.6-.5-1.4l.35-1.1q1.1-2.2 2.6-3.85l2.6-2.4.85-.6z"/><path fill="none" stroke="#5f645e" stroke-linecap="round" stroke-linejoin="round" stroke-opacity=".498" d="M75.7.5v1.1m0 11.45v28.3H.5"/><path fill-rule="evenodd" d="M69.35 18.65h-.05q-.6.5-1.4.65l-1 .05-.95-.1-1.4-1.05-.3-.55q-.25-.75.1-1.85.1-.55.4-.65v-.1q.8-.8 1.85-.7l.1-.05.5.1.2-.85q.45-1.25 1.05-1.85.4-.4 1.15-.6v-.2q-.05-.65-.85-1.45L67.4 8.3q-.6-.6-.85-1.25l-.35-1.2-.05-1.1-.4-.2-.7-.05-2.3.3q-1.05.2-1.65.55l-.9.55-.3.15-.3.3-.15-.1q-.2-.15-.1-.5l.95-1 .55-.45.5-.4.95-.6 1.55-.7.85-.25.9-.05h.7l.65.2.45.25q.25-.2.6-.35l2.95-.25q.95.15 1.7.6l.9.9q1.15 1.5 1.15 3.7 0 1.65-.9 3.8 1 .45 1.65 1.4.65 1 .65 2.25-.05 1.1-.5 2.1l.15.3.15.9-.2 1-.45 1.1-.35.5q-.65.7-1.5.75l-1.7-.15-1.05-.65q-.3-.4-.5-1.4l.05-.25zm-35.1 6.2q1.4 3.95-.25 7.25l-.25.35-.05.5-.35 1.4q-.5 1.4-2.4 3.85l-.6.7-1.4.35-1.35-.75-1.2-1.05-.2.05h-.3l-.45 4.3H20.3l1-4.55-1.3-.45q-1.3-.6-2.3-1.75l-1.15.25-1.35.6q-1.05.2-1.7-.6-.5-.65-.45-2l.1-1.25.75-2.4.25-.6.8-2.05q1.05-2.15 2.65-3.75.4-.45.8-.6 1.35-1.4 3-2l.25-.1-1-.3q-2.05-.5-4.5.95-2.95 1.75-4.25 4.85l-.25 1.3.65 1.9q.6 1.35.35 2.35-.15 1.3-1.15 2.1-.65.55-1.6.55l-1.7-.35q-1.55-.75-2.2-2.6-.55-1.4-.3-3.45.4-4.25 3.55-7.6 2.95-3.15 7.35-3.95 3.05-.6 5.45.4 1.35.6 2.25 1.45l.95-1.6q1.05-1.6 2.05-2.5 1.2-.95 2.85-1.85 4.1-2 8.4-1.85 4.65.2 8.15 2.7 1.45 1 2.45 2.25 3.35-2.95 7.1-5.15l3.8-2.5 2.3-1.35q1.5-.5 2.75.55.85.65 1.65 2.6l.5 1.8q.1.95-.45 1.8t-1.4 1.15l-1.85.05q-.95-.25-1.5-1-2.1.3-4.75 1.55l-4.55 2.3-2.1.85.3 1.1q.35 1.9-.25 3.75-.6 1.65-1.85 2.65l.3.65q.45.75 1.2.85.85.05 1.4-.55l.9-1.35Q54.4 22.15 56 21q1.15-.85 2.4-1.1l2.55.05q2.55.85 3.85 4.2l.65 1.75.55 1.6-.25 1.3q-.3.65-.95.9l-1.35.15q-.75-.15-1.15-.65-.45-.45-.8-1.8l-.5-1.6-.55-1.4q-.6-.8-1.25-.9-.6.05-1.4.6l-1.7 1.7-1 1.1 1.2.9q1.05.85 1.35 1.75.25.8-.05 1.7l-1.1 1.3-1.55.35q-.95-.05-1.6-.55L51.8 33.8q-2.55 1.75-5.15 1.8-3.05.1-5.15-1.7-2.4-2.15-2.4-5.8.1-2.2 1.15-4.45l-.4-1q-.9-1.9-3.3-2.65l-2.65-.15q-1.15.25-2.45 1.3l.7.4q1.3 1.2 2.1 3.3m39.8-7.15.55-.65q.2-.6 0-1.1l-.5.3-1.35.2-.9-.25-.05.3q0 .6.35.95.35.4.9.5zM70 15.55l.05-.1h-.1q-1-.1-1.4-.7l-.2-.5-.1.05q-.3.35-.3.75t.3.75q.3.3.7.35.7 0 1.05-.6M46.15 26.6l-3.1-.1H43l.1 1.3q.25 1.3.9 2.15 1.35 1.45 3.4.95 1.25-.2 2.25-1.25-1.2-.3-2.1-1.4-.65-.75-.95-1.75zm-18.75.85.45.05h.3l.45-.4.5-.35q.45-.05.5.3v.25l-.2.4v.25l.25.3.35-.05.3-.6.1-.85-.05-.45q-.15-.55-1.05-.65l-1.15.15-.3-.45-.55-.3-1.05-.1q-.65.25-1 1-.35.55-.15.95.1.3.4.25l.3-.4.5-.6q.55-.2.65.2l.05.5q.05.4.4.6M5.75 6.75l.85-.4q-.1-.4-.05-.95.1-.85.5-1.5.4-.6 1.15-.8.75-.25 1.45 0 .95.3 1.4 1.05.5.9.2 1.75l-.15.4 1.25 1.3.6 1.85.05.85-.5 1.5q-.75 1.35-2.05 1.9.35 1.45-.2 2.95-.55 1.65-1.8 2.5-1.4 1.05-3 .75l-.75-.2-.45-.25-.1.05-.1.6.05.45.6.6q.85.7.4 1.75l-.45.7-.7.45q-.4 0-.45-.2l.35-.5.45-.95q-.15-.2-1.1-.7l-.4-.3-.25-.45-.1-.6-.05-.9v-.75l.3-.55.4-.35-.1-.2.1-1 .2-.65q.4-.7 1.65-1.5l1.15-.7.25-.2-.4-.25q-1.15-.75-1.5-1.6v-.1h-1.2l-1.45-.95q-.45-.65-.4-1.4l.05-.2-.1-.15q-.2-.55-.05-1.2.15-.6.65-1l.35-.25.9-.3q1.25-.3 2.3.5l.2.2zm26.45 23.7-.15-.2-.55.1-1.1.05-1.3-.25h-.25l-.1.05-.5.75.8.85.35.75q.3.65.25 1.5l1.25.05 1.25-.8q.5-.6.5-1.4.05-.85-.45-1.45m-12.65-.65.35.5.05-.05 1.7-.35 1.2.1 1 .25q.45-.5.55-1.3l.05-.15-.6-.05-.6-.45-.25-.25-1.2-1.3-.15-.8h-.1l-.1.05q-.8.1-1.5.7-.6.65-.7 1.5l.05.7q.05.45.25.9M5.45 11.1q.5.5 1.1.5.65 0 1.05-.5.7-.75.2-1.65-.5-.85-1.5-.7-.95.2-1.15 1.15-.15.65.3 1.2m4.5-4.3-.15.05-.3.05q-.4.15-.55.55-.2.4-.1.8l.1.25.45-.4q.8-.65 1.2-.75l.25-.05-.15-.15z"/><path fill="#fff" fill-rule="evenodd" d="M70 15.55q-.35.6-1.05.6-.4-.05-.7-.35-.3-.35-.3-.75t.3-.75l.1-.05.2.5q.4.6 1.4.7h.1zm4.05 2.15-1 .25q-.55-.1-.9-.5-.35-.35-.35-.95l.05-.3.9.25 1.35-.2.5-.3q.2.5 0 1.1zM27.4 27.45q-.35-.2-.4-.6l-.05-.5q-.1-.4-.65-.2l-.5.6-.3.4q-.3.05-.4-.25-.2-.4.15-.95.35-.75 1-1l1.05.1.55.3.3.45 1.15-.15q.9.1 1.05.65l.05.45-.1.85-.3.6-.35.05-.25-.3v-.25l.2-.4v-.25q-.05-.35-.5-.3l-.5.35-.45.4h-.3zM9.95 6.8l.75.35.15.15-.25.05q-.4.1-1.2.75l-.45.4-.1-.25q-.1-.4.1-.8.15-.4.55-.55l.3-.05zm-4.5 4.3q-.45-.55-.3-1.2.2-.95 1.15-1.15 1-.15 1.5.7.5.9-.2 1.65-.4.5-1.05.5-.6 0-1.1-.5m14.1 18.7q-.2-.45-.25-.9l-.05-.7q.1-.85.7-1.5.7-.6 1.5-.7l.1-.05h.1l.15.8 1.2 1.3.25.25.6.45.6.05-.05.15q-.1.8-.55 1.3l-1-.25-1.2-.1-1.7.35-.05.05zm12.65.65q.5.6.45 1.45 0 .8-.5 1.4l-1.25.8-1.25-.05q.05-.85-.25-1.5l-.35-.75-.8-.85.5-.75.1-.05h.25l1.3.25 1.1-.05.55-.1z"/></svg>