<svg xmlns="http://www.w3.org/2000/svg" xmlns:ffdec="https://www.free-decompiler.com/flash" ffdec:objectType="shape" width="69.6" height="39.55"><g fill-rule="evenodd"><path d="M40.8 4.35q-.55-.8-.45-1.8.1-1.05.85-1.65 1.2-.95 2.6-.35 1.45.7 1.45 2.2.05.8-.45 1.5-.45.7-1.2.95l-1.55.05q-.8-.25-1.25-.9m-3.05-1.1.35.35q.25.5 0 .95-.35.45-.85.35-.5-.05-.7-.6l-.05-.35-.2-.3q-.3-.4-.05-.85.5-.5.95-.2zm-1.5-2.1L36.4.7q.2-.45.65-.55.5-.1.8.3.35.35.1.85l-.25.3-.4.35-.5.25q-.4.1-.6-.2-.25-.35-.1-.65zm-2.7.25-.1-.5.1-.5.3-.25.45-.15q.35 0 .6.25l.7 1.15-.15.65-.35.25q-.4 0-.6-.2l-.55-.4zm1.4 2.85-.55.3q-.55.2-.8-.35-.3-.45.15-.9l.75-.5h.15l.4-.25.55.2q.3.2.2.55l-.45.6zm-4.85 1.6-1.05-.2q-.55-.35-.65-.95-.05-.5.3-1l.85-.6 1 .25q.5.35.6.85.1.55-.2 1.05zm-6.9-3.7.45-1q.25-.6.9-.3l.25.2.05.25-.25 1-.1.2-.25.3-.75.05q-.4-.25-.3-.7m.05 1.75.05-.05.6.45q.2.4-.05.8l.05.35-.15.55-.55.25-.55-.25-.1-.4v-.25l.1-.45-.05-.3q0-.3.15-.45.15-.25.5-.25M22.1 2.5l.65.4q.25.35.1.65l-.4.3-.5.05-.8-.25q-.35-.35-.15-.8l.55-.4.15-.05zm2.55 2-.55-.2q-.3-.25-.2-.65.15-.4.55-.4l.05-.05q.7 0 1 .3l.2.25.15.25-.2.55-.6.1z"/><path fill="#999" d="m63.35 11.9-.25.1-.4-.05-.15-.4.1-.15.15-.2.65-.2.05.05q.25 0 .4.25l-.15.45zm1.75-1.35q.1-.1.3-.1l.1.05.35.25q.15.35-.1.55l-.55.2-.35-.05-.25-.2.05-.45zm-.8.95.35.15.1.3v.2l.05.35v.15l-.05.25-.4.2-.35-.2-.1-.35v-.25q-.15-.25 0-.55l.4-.3zm.05-1.2-.2.45q-.25.25-.5 0l-.2-.2-.05-.15q-.15-.25-.15-.7v-.15l.2-.15q.45-.2.6.2zM58 8.6l-.3.2-.35.25-.4.15-.25-.15q-.2-.15-.1-.45l.45-.8q.2-.15.45-.15l.3.1q.1 0 .2.15l.05.35zm-.95 1.95-.3-.25-.3-.4q-.05-.25.15-.4.15-.15.35-.15l.3.2h.1l.5.35q.3.3.1.6-.15.35-.55.25zM48.8 24.5l-.2-1.5-1.25.05q-1.35-.05-2-.85-.35-.35-.6-1.1-.25-1.1-.05-2.2.25-1.15.9-2l.95-1q1.05-.85 2.15-1.1l1.95-.05 1.05.2.45.2 1.05-.6q2.05-1 4.8-.75 2.05.2 3.55.95l.8.5q1.35-1.25 2.5-1.4l1.15.05q2.15.4 3.15 2.35.5.95.45 2-.05 1.1-.6 1.95l-.75.85-.75.65q-.7.45-1.6.55v.4q.1 2.75-1.25 5L62.7 29.8q1.3 2.15 1.95 5.15l.1.3.2 1.45-.1 1q-.25 1.05-1.25 1.55l-1.85.2-5.95-.2h-1.65l-1.55.1-1.85-.15q-.75-.1-1.25-.4-.85-.6-.85-1.9 0-.55.15-1.15h-.1l.25-1.35q1-3.55 2.85-5.6-2.35-1.75-3-4.3m4.85-12.1-.85.6h-1.05q-.55-.2-.85-.65-.35-.5-.3-1.05 0-1 1-1.5.95-.4 1.75.25.55.4.6 1.1t-.3 1.25m1.45-2.55.4-.45q.3-.2.65.15l-.05.55-.1.25-.05.2q-.15.4-.5.4-.35.1-.55-.2t0-.65zm1.05-1.45.1.15-.05.45-.45.15-.3-.2-.3-.25-.15-.2q-.2-.3.05-.55.2-.3.55-.2l.45.35zm4 9.2q-.7.1-1.25.65l-.35.35q-.5.7-.55 1.6 0 .95.5 1.6l.35.45.45.4q.4.35.95.5l-.1.9.5.9q.45.35.95.3.55-.05.9-.45.4-.45.3-1l-.25-.95.15-.15.65-.75.3-.6.1-1-.05-.55-1.25-.5q-1.35-.65-1.8-1.55l-.1-.2zM60 12.2l-.6-.4-.15-.7.45-.6.65-.15q.4.05.6.4l.2.65-.45.65zm-.6 14.25q.4.2.55-.15l.1-.45-.45-1.4-.4-.3-.05-.15q-.5-.4-1.05-.5v-.15q.05-.5-.4-.75l-.9.05q-.45.35-.3.85l.05.15-.3.1-.8.45-.55.75-.2.5.15.75.55.5.95.05.65-.65.15-.2.15-.05.8-.1h.3l.45.3zm-6.4-8-.45.65-.75 1.05-.4.3-.65.4v.55q.1.95.75 1.5l.1-.15q.55-.4 1.8-.7l.7-.1h.25l.95.1.15.05.1-.4.15-.55q.2-1.1-.7-2-.8-.8-2-.7m-32.8 4.5v.4q0 1.05-.4 2.15l-.05.15-.35 1.4q-.65 1.55-2.45 2.7l.3.7q1.2 3.15 1.35 5.65l-.1 1.4q-.4 1.15-1.55 1.55-1.2.35-2.1-.4-.8.75-1.8.65-1.05-.1-1.7-.9l-2.2.1-.4-.25-.5.75q-.55.55-1.5.55-1 0-1.7-.55-.85-.6-1-1.45l-.05-.8q.05-.65.6-2.2.7-1.8 1.15-2.65.55-1.05 1.25-1.75l-1.1-.8-1.25-1.55-.75-1.6q-.2-.6-.1-1.85l.05-.3.05-1.15-.5-.15q-.75-.2-1.7-.85l-.65-.45-.55-.8q-.7-1.4-.4-2.9.3-1.4 1.45-2.55l.7-.5q.9-.5 2.25-.5 2.1 0 3.2 1.15l.55.8.45-.25q.85-.6 1.6-.85l4.4.15.8.35.1-.2q.6-1 1.7-1.3l2.15-.25.75.15q.85.3 1.3 1.05.5.8.4 1.65l-1.05 2.3-.55.65-.35.25-.25.15-.15-.15q-.8-.55-1.8-.4-1.1.15-1.7 1.15-.55 1.05-.1 2.1.25.65.95 1.1l1.35.35q.7-.05 1.3-.5zm-5-16.25-.55.9-.5.55L13 8.9q.15.6-.1 1.15l-.5.45-.6-.4-.3-.45V9.1l.05-1.1.3-.4.55-.45.6-.35.55-.45.1-.2-.1-.2-.3-.35-.3-.2q-.9-.45-1.55.15l-.1.85-.6.55-.8.05-.65-.6q-.15-.3-.05-1.1l.05-.4.15-.3.8-.85.45-.25q1-.45 1.75-.4l.95.15.7.25q1 .5 1.3 1.45l.05.5zm-2.85 4.45q.45 0 .8.35l.4.8-.35.85q-.35.35-.8.4l-.85-.3q-.35-.35-.4-.8l.05-.45q.3-.9 1.1-.8zm0 16.7.6-.35 1.1-.8.1-.05.5.1 1.05.25.8.25.45-.05h.35q.25-.15.1-.5l-.4-.35-1.4-.95-.5-.45v-.25l-.05-.6q-.2-.5-.8-.6l-.1.05q-.4 0-.65.35-.2.4-.05.7l.1.3v.1l-.7.4-.8.6-.6.75q-.2.45.15.8.25.4.75.3m-4.2-7.05q-.7.4-1.05 1.25-.35.8-.1 1.6l.4.8.4-.2 1.8-.4 1.45.05.5.1.2-.85q.1-.85-.4-1.55-.55-.8-1.35-1z"/><path fill="#fff" d="m19.7 20 .65 1.05q.25.75.05 1.4l-.2.5-.65.7q-.6.45-1.3.5l-1.35-.35q-.7-.45-.95-1.1-.45-1.05.1-2.1.6-1 1.7-1.15 1-.15 1.8.4zm-11.55.8 1.85-.2q.8.2 1.35 1 .5.7.4 1.55l-.2.85-.5-.1-1.45-.05-1.8.4-.4.2-.4-.8q-.25-.8.1-1.6.35-.85 1.05-1.25m4.2 7.05q-.5.1-.75-.3-.35-.35-.15-.8l.6-.75.8-.6.7-.4v-.1l-.1-.3q-.15-.3.05-.7.25-.35.65-.35l.1-.05q.6.1.8.6l.05.6v.25l.5.45 1.4.95.4.35q.15.35-.1.5h-.35l-.45.05-.8-.25-1.05-.25-.5-.1-.1.05-1.1.8z"/><path d="M20.95 22.25q-.3-.95-.35-2.2l-1.85.1q-1.95-.1-2.9-1.25-.5-.55-.85-1.65-.4-1.6-.1-3.25.35-1.65 1.3-2.95l1.4-1.4q1.55-1.3 3.2-1.65l2.85-.1 1.55.3.65.35q.7-.5 1.5-.9 3-1.45 7.1-1.1 3 .25 5.15 1.4.6.3 1.2.7 1.95-1.85 3.7-2.05l1.65.05q3.2.65 4.65 3.5.7 1.35.65 2.95-.1 1.6-.9 2.8l-1.05 1.3-1.15.95q-1 .65-2.3.8v.55q.1 4.1-1.9 7.35-1.2 2-2.85 3.15 1.95 3.15 2.9 7.6l.2 1.15H20.75l.35-2q1.5-5.2 4.25-8.2-3.45-2.6-4.4-6.3m6.15-8.9h-.05l-.6.95-.6.9-.55.65-.6.45-.9.6-.05.1v.7q.15 1.35 1.1 2.2l.15-.2q.8-.65 2.65-1.05l1.05-.15h.35l1.4.15.2.1.2-.65.2-.75q.25-1.65-1-2.95-1.2-1.2-2.95-1.05m9.35 11.75q.6.3.85-.25l.15-.6q0-1.05-.65-2.05l-.6-.5-.1-.2q-.7-.6-1.55-.7v-.25q.1-.75-.6-1.1l-1.3.1q-.65.5-.4 1.25l.05.2-.45.15-1.15.65q-.45.4-.8 1.1l-.3.75q-.1.55.2 1.1l.8.75 1.4.05.95-.95.2-.3.25-.1 1.15-.15.45.05.7.45zm1.1-13q-1 .15-1.8.95l-.5.55q-.75 1-.85 2.3 0 1.4.75 2.35l.55.7.65.6q.6.5 1.4.7-.25.85-.2 1.3.1.8.75 1.35t1.4.45q.8-.05 1.35-.7t.45-1.45l-.4-1.4.2-.2.95-1.1.45-.85.15-1.5-.05-.8-1.85-.75q-1.95-.95-2.65-2.25l-.15-.3z"/><path fill="#fff" d="m37.55 12.1.6-.05.15.3q.7 1.3 2.65 2.25l1.85.75.05.8-.15 1.5-.45.85-.95 1.1-.2.2.4 1.4q.1.8-.45 1.45t-1.35.7q-.75.1-1.4-.45t-.75-1.35q-.05-.45.2-1.3-.8-.2-1.4-.7l-.65-.6-.55-.7q-.75-.95-.75-2.35.1-1.3.85-2.3l.5-.55q.8-.8 1.8-.95m-1.1 13-.75-.55-.7-.45-.45-.05-1.15.15-.25.1-.2.3-.95.95-1.4-.05-.8-.75q-.3-.55-.2-1.1l.3-.75q.35-.7.8-1.1l1.15-.65.45-.15-.05-.2q-.25-.75.4-1.25l1.3-.1q.7.35.6 1.1v.25q.85.1 1.55.7l.1.2.6.5q.65 1 .65 2.05l-.15.6q-.25.55-.85.25M27.1 13.35q1.75-.15 2.95 1.05 1.25 1.3 1 2.95l-.2.75-.2.65-.2-.1-1.4-.15h-.35l-1.05.15q-1.85.4-2.65 1.05l-.15.2q-.95-.85-1.1-2.2V17l.05-.1.9-.6.6-.45.55-.65.6-.9.6-.95z"/></g></svg>