<svg xmlns="http://www.w3.org/2000/svg" xmlns:ffdec="https://www.free-decompiler.com/flash" ffdec:objectType="shape" width="75.3" height="41.95"><path fill="#999" fill-rule="evenodd" d="M74.8.5v40.95H.5V.5z"/><path fill="none" stroke="#999" stroke-linecap="round" stroke-linejoin="round" d="M74.8.5v40.95m-74.3 0V.5"/><path fill-rule="evenodd" d="m61.5 28-.15.9q-.25.45-.7.45-.55 0-.85-.95l-.7-2.8q-.3-1.35-.1-2.4.2-1.1 1.4-2.65l2.8-3.2 1.45-2.1q.35-1 .15-2.3-.45-2.1-2.15-3.25-1.8-1.15-3.65-.45-.95.35-1.55 1.15t-.65 1.8l.1 1.3.15 1.25q-.05.9-.55 1.65-.5.8-1.3 1.2l-1.7.2q-.95-.05-1.65-.65Q50.4 16 50.5 13.9q0-1.45.9-3.6 1.05-2.25 2.1-3.35 2.45-2.6 6.25-2.75 1.95 0 3.4.55 2.25.85 3.8 2.95 1.45 1.95 1.95 4.4.55 3.3-.75 5.6l-1.85 2.15-2.7 2.4q-1.55 1.35-1.8 2.1l-.2 1.55zm-22 0-.15.9-.7.45q-.55 0-.85-.95l-.7-2.8q-.3-1.35-.1-2.4.2-1.1 1.4-2.65l2.8-3.2 1.45-2.1q.35-1 .15-2.3-.45-2.1-2.15-3.25-1.8-1.15-3.65-.45-.95.35-1.55 1.15t-.65 1.8l.1 1.3.15 1.25-.55 1.65q-.5.8-1.3 1.2l-1.7.2q-.95-.05-1.65-.65Q28.4 16 28.5 13.9q0-1.45.9-3.6 1.05-2.25 2.1-3.35 2.45-2.6 6.25-2.75 1.95 0 3.4.55 2.25.85 3.8 2.95 1.45 1.95 1.95 4.4.55 3.3-.75 5.6-.55.95-1.85 2.15l-2.7 2.4q-1.55 1.35-1.8 2.1l-.2 1.55zm18.95 6.8v-.15q0-.65.3-1.2.35-.6 1-.95l.35-.2.55-.2 1.2-.05q.5.1.95.45l.55.8.15.35q.25.5.15 1.15l-.45 1.25-1.05.9-1.15.15-.95-.1-.4-.15q-1.2-.7-1.2-2.05m-22 0v-.15q0-.65.3-1.2.35-.6 1-.95l.35-.2.55-.2 1.2-.05.95.45.55.8.15.35q.25.5.15 1.15l-.45 1.25q-.45.7-1.05.9L39 37.1l-.95-.1-.4-.15q-1.2-.7-1.2-2.05M17.5 28l-.15.9q-.25.45-.7.45-.55 0-.85-.95l-.7-2.8q-.3-1.35-.1-2.4.2-1.1 1.4-2.65l2.8-3.2 1.45-2.1q.35-1 .15-2.3-.45-2.1-2.15-3.25-1.8-1.15-3.65-.45-.95.35-1.55 1.15t-.65 1.8l.1 1.3.15 1.25-.55 1.65-1.3 1.2-1.7.2q-.95-.05-1.65-.65Q6.4 16 6.5 13.9q0-1.45.9-3.6 1.05-2.25 2.1-3.35 2.45-2.6 6.25-2.75 1.95 0 3.4.55 2.25.85 3.8 2.95 1.45 1.95 1.95 4.4.55 3.3-.75 5.6l-1.85 2.15-2.7 2.4q-1.55 1.35-1.8 2.1l-.2 1.55zm-3.05 6.8v-.15q0-.65.3-1.2.35-.6 1-.95l.35-.2.55-.2 1.2-.05q.5.1.95.45l.55.8.15.35q.25.5.15 1.15l-.45 1.25-1.05.9-1.15.15-.95-.1-.4-.15q-1.2-.7-1.2-2.05"/></svg>