<svg xmlns="http://www.w3.org/2000/svg" xmlns:ffdec="https://www.free-decompiler.com/flash" ffdec:objectType="shape" width="76.3" height="42.95"><g fill-rule="evenodd"><path fill="#717171" d="M48.75.25q.2-.3.65-.25.45 0 .7.3.5.5.3 1.45l-.45.8-.65.6q-.45.55.2 1.3l.1.45-.55.05q-.7-.35-.9-1.35l-.05-.75.45-1.2.05-.7q0-.45.15-.7m20.8 29.25-.2.05-2.2.45-1.9 5.4L64 39l.45-.7 1.1-1.4q.75-.75 2.65-1.9l.75-.5 1.45-.05 1.6.6q.8.65.95 1.4.15 1.05-.6 1.65-.8.7-1.75.3l-.85-.4-1.55.05-1.4.8-1.85 1.35-.7.6-.55.4-.55-.1-.25.45q-.9 1.15-2.4.9l-.45-.1q-1.2.95-2.45.4-1.4-.5-1.65-1.95-.15-1.25 1.15-3.35l2.3-3.55 1.6-2.15-.75.05-1.55-.35q-1.75-.8-2.2-2.35-.15-.5-.15-1.55 0-2.55.8-3.85.5-.85 1.55-1.75l1.25-1.2.7-.6q.55-.35 1.2-.3l.4-.6.1-.3q.6-1.2 1.55-1.95l.2-.4 1.1-1.25 1.3-1.25 1.05-.8.8-.5 1 .05.8.65.25 1.2v1.15q.55.15 1.2.65 1.1.55 2 1.65l1.6-.15q1.1.35 1.1 1.45 0 1.05-1.05 1.5l-.05.05q.4 1.7-.4 3.6-.75 1.65-2.3 3.1-1.45 1.55-2.95 1.8m2.75-4.65-.3-.45-.35-1.45q-.15-1.05 0-2.15l.05-.15-1 .1q-.7.3-1.1 1v.1l.85.55 1 1.2.6 1.35zm-5.25-7.95-1.5-.05q-.75.2-1.25.8l-.3.5h.8q.45.15.95.55 1.1.95 1.2 2.4l.05.5.9-.65q.6-.55.7-1.3.15-.8-.3-1.65-.45-.8-1.25-1.1m-5.55 9.85-.5-1.3-.3.35q-.25.35-.35 1.15-.1.9.1 1.25.25.6 1.15.7l1.4-.3h.05q-1-.8-1.55-1.85m-10.85 7.6q.15-.35-.3-1.35-.3-.8-.25-1.55.1-.6.35-.95.15-.2.8-.7l.55-.75q.95 1.35.3 2.35l-.35.55.05.55q.25.9-.05 1.75-.25.95-.95 1.4l-.45.1-.25-.25.1-.45zm-17.8-34 .7.5.3.8.1.55-.05.5.05.5q0 .7-.65 1.35l-.3.25q-.15.35 0 .65l.3.6.2.9-.2.65-.7 1.3-.25.3-.45.1-.25-.35.2-.45.3-.8-.55-.95-.4-.95v-.55l-.1-.5.25-.7.4-.6.5-.45.1-.2v-.15l-.3-.55-.1-.55.2-.8q.35-.3.7-.4M18.55 11.2l.2.55-.2.85-.8 1.75h-.2l-.15-.15-.05-.45.15-.7.2-.25-.1-.45-.7-1.15q-.15-.35-.15-1.2l.05-.6.5-.55.45-.6.1-.55.3-.55.15-.1.1.05.4.7v.35l.15.6-.2.8-.4.7q-.1.55.1.8zm-3.3 15.3q-.65 2.05-2.05 3.4l.85 1.65.9 1.5 2.25 5.3.5 1.65q.05 1-.55 1.8-.6.85-1.55 1.05l-1.8-.2-.8-.55-.75.15q-.75 0-1.35-.5t-.8-1.2l-.05-1.25-.25-3.05-.15-.85.05-.9-.2-2.5-.1-.3-2.05-.1-1.75-.5q-1.65-.6-2.55-1.45-1.75-1.7-1.45-4.2l-.85-.8-.7-1.15q-.15-.75.1-1.3.45-.65 1.65-.95l1.55-.15.6-.75 1.25-1.2v-1.9l-.1-.5q-.1-1.1.6-1.7.75-.7 1.75-.35l1.75 1.05q1.25.85 2.3 1.85 1.75.6 2.95 2.3 2 2.9.8 6.6m-2.45-3.4.1-.6-.15-.25-.15-.15-.55-.2q-.45 0-1.1.45l-.65.7-.15.5-.1.15-.3-.15-.95-.25q-.65.1-.85.5-.25.55.15.95l.7.35.15.1-1.5 2.35-.15.4q-.1.65.3.95l.95.1.4-.45 2.1-3.5 1.15-1.4zm-4.9-1.15.45.4.45-1q1.1-1.65 2.25-1.8h.05l-.35-.4-1 .7-1.65.3-.55-.05-.1.6q.05.7.45 1.25M3.6 27.7l.15-.65q.55-1.4 1.05-1.85l.6-.75.35-.25q.35-.25.7-.35-.6-.55-1.45-.65-.85-.05-1.55.4-.7.5-.95 1.3-.25.85.05 1.6t1.05 1.2m15.8.8-.1.5.05.45.3.55.15.8v.6l-.2.35-.55.6-.4-.05-.15-.55-.1-.2-.4-.3-.5-.65-.2-.4q-.15-.35-.05-1.1l.2-.95q.25-.45.6-.75l.2-.3.1-.25.4-.65-.15-.35v-.35l-.1-.4q-.1-.35.25-.5l.55-.05q.3.1.5.75l.1.4.05 1.3-.25 1.1zM7.1 41.25l-.7-1.55-.15-.55q-.2-.45-1.05-.95l-.25-.1-.55.15q-1.2.55-2.1-.35-1-.8-.55-2.05.4-1.25 1.7-1.35l1.6.3.8.2q.55.2 1.25.7l.45.35.35.45.8 1.4.25 1.6v1.15l-.55.85q-.4.4-.8.25z"/><path fill="#fff" d="M67.05 16.9q.8.3 1.25 1.1.45.85.3 1.65-.1.75-.7 1.3l-.9.65-.05-.5q-.1-1.45-1.2-2.4-.5-.4-.95-.55H64l.3-.5q.5-.6 1.25-.8zm5.25 7.95-.25.1-.6-1.35-1-1.2-.85-.55v-.1q.4-.7 1.1-1l1-.1-.05.15q-.15 1.1 0 2.15L72 24.4zM3.6 27.7q-.75-.45-1.05-1.2t-.05-1.6q.25-.8.95-1.3.7-.45 1.55-.4.85.1 1.45.65-.35.1-.7.35l-.35.25-.6.75q-.5.45-1.05 1.85zm4.3-5.75q-.4-.55-.45-1.25l.1-.6.55.05 1.65-.3 1-.7.35.4h-.05q-1.15.15-2.25 1.8l-.45 1zm4.9 1.15-.6.55-1.15 1.4-2.1 3.5-.4.45-.95-.1q-.4-.3-.3-.95l.15-.4 1.5-2.35-.15-.1-.7-.35q-.4-.4-.15-.95.2-.4.85-.5l.95.25.3.15.1-.15.15-.5.65-.7q.65-.45 1.1-.45l.55.2.15.15.15.25z"/><path d="M56.6 20.25 55 20.1q-.4-.3-.5-.8-.15-.45 0-.8l-.3-.45-.15-.65v-.65q0-.7.4-1.3.45-.65 1.1-.9t1.35 0l1.05.9.25.95h.15q.95 0 1.55.4.75.6.75 1.4l-.4.95q-.7.95-1.65 1.1l-1.5-.35zm.8-1.65v.05q1.05 0 1.6-.85l-.75.05-.65.5h-.25zm-1.35-1.2.35.1.25-.7.05-.6-.45-.4-.5.3v.85l.1.45zM9 10.1l-.05-.3-.45.25-.85.05-.6-.4-.55-.85V8.5l-.05-.4v-.75l.25-.7.7-1 .7-.45q.35-.25.65-.2l.05-.05h.35l.55.1.8.6.45.5.1-.2q.65-1 1.9-1.15 1.05.1 1.65.85l.15.2.4.7v.3l-.3 1.3-.2.25-1.45 1.3-.7.2-.6.9q-.7.65-1.65.4-.9-.15-1.25-1.1m4.35-3.5q-.55.15-1.05.65l-.35.35-.1.5.25.25.6-.4.75-.65.15-.35zm-3.9 1.6q.35-.35.75-.45l.15-.4-.15-.1-.25-.3-.1-.1-.2-.05-.4-.15-.3.1-.4.5-.15.3v.6q.55.1.75.4zM61.05 11.05q-.5-.8 0-1.65.55-.8 1.55-.7.5.1.9.5l.4.9-.25 1-.8.6q-.5.2-1 0zm-4.6-7.45.25.1.2.2V4l.05.1v.15l-.1.2-.2.15-.5-.05q-.25-.25-.2-.5l.05-.2.1-.1.35-.1zm-2.7 7.5-.15.8-.6.8-.1.3-.1.2v.25l-.25.45-.05.15h-.35q-.35-.25-.35-1.15-.1-.55.25-.75l.3-.85-.2-1.1v-.4l-.1-.9.05-.5.4-.65.15-.3.15-.2.4-.05q.25.1.15.35l-.1.2.05.15-.1.25.1.3-.05.45.3.9.2.45.05.3zM42.9 1.7q.85.95.25 2.05-.35.55-.2.75l.35.2q.55.3.7.9l.15 1.15-.25.95-.7.15-.5-.45-.05-.8-.3-.6q-.55-.8-.55-1.7-.1-.5.15-.95.6-.6.6-1l-.1-.45q0-.35.25-.35zm8.5 19.2q.5 3.85-3.2 7.25-1.35 1.25-3.05 2.2l-1.6.75.3.55q2.15 4.15 2 9.65h-19.3l.2-1.4q.25-1.85.8-3.5t2.2-4.25q-3.3-.8-5.35-3.35-2.25-2.65-2.35-6.2l.05-.6-.65-.15q-2.1-.45-3.05-1.6-.55-.75-.6-1.65-.05-1 .5-1.6l1-.75q2.1-1.15 8.1-3.75 1.2-.5 1.8-.65l1.8-.2 3.25-.65 6-.35.35-.5q.4-.4 1.05-.8.5-.3 1.8-.95l1.8-1 1.1-.65 1.35-.15q.75.1 1.2.55l.7 1.45q1.45 5.05 1.1 8.5l-.2 1.1q.75 1.65.9 2.7m-5.55 3.25-2.8-.25-2.85.1h-2.1l-.15-.55q-.4-.95-1.2-.9-.65 0-1.05.75l-.15.65-4 .1q-2.05.2-4 .9-1.3.5-1.6 1.25-.2.5 0 1.05l.75.7 1.85-.2q3.1-.95 9.4-2.25l2-.4 5.5-.3.55-.05.15-.45zM48.5 20v-1.7l-.3-1-.6-.8q-.9-.95-2.2-1.05-1.2-.05-2.35.65-1.1.65-1.6 1.95-.45 1.25.1 2.5l.85 1.05h.2l.7-.1 2.15.05 2.2.3q.6-.55.75-1.3zm-1.1 12.7.55.5.15.7-.15 1.05-.55.7-.25.55-.45.4q-.55-.55-.4-1.4l.3-.8-.1-.8-.25-.8q-.15-1.05.35-1.85.3-.65.8-.4l.2.55-.25.8q-.15.5.05.8m-10.3-27-.2-.5.05-.1-.25-.45q-.2-.35 0-.85l.2-.55Q37 3 37.25 3q.45 0 .45.4l-.05.25v.45l.3.55.2.2.2.65v.9l-.65 1.2-.3.5.15.95q0 .8-.75.9t-.95-.65v-.35l.1-1.05.05-.25 1.05-1.45.1-.2zm-10.65.95.55-.8.4-.35.25-.35v-.5q-.1-.35.1-1.05l.2-.3.15-.05q.65.35.8 1v.6l-.25 1.4-.4 1-.15.65.1.35.3.6.15.45-.1.65-.15.65-.15.35-.2.2-.1.25-.35.15-.35-.2-.15-.55-.05-.75-.35-.45q-.55-.6-.6-1.2l.05-.45q0-.7.3-1.3m-4.65-3.4h.25l.05-.05.6.3q.3.4.05.85l-.4.35q-.5.15-.85-.25l-.15-.5.05-.3.15-.2zm-.55 9.55.25-1 .35-.55.4-.35q.25-.3.05-.75l-.25-.75.05-.55.25-.35.4-.05.15.7.45 1.05q.3.75 0 1.3l-.45.8-.2 1q-.1.65-.6.7-.4.15-.7-.35-.25-.4-.15-.85m6.6 6.85-1.05-.25-1.65 1.95-.9.5q-.05.7.45 1.35.45.7 1.4.85 1.25.25 2.15-.45 1-.75 1-1.9-.1-1.45-1.4-2.05m-14.65-5.7q.75-.15 1.35.45.5.7.2 1.4t-1.15.8l-.85-.25q-.4-.25-.5-.7-.25-.55.1-1.05.3-.5.85-.65m6.55 23.85q-.5-.1-.8-.6t-.25-1q.2-.8.95-1.05l1.35.2.5.8q.15.5-.1.95l-.7.65zm2.95-7.45-.9-.6-.1-.6q0-.45.3-.85.35-.25.85-.35.7 0 1.05.65.3.6-.05 1.25-.4.6-1.15.5m2.75 3.6-.65 1.15q-.15.4 0 .75l.2.4.15.5q.1.7-.35 1l-.6.35-.15-.45-.5-.8q-.5-.5-.5-1.3l.05-.55.1-.4.5-.7.25-.3.15-.25q.15-.2.45-.3l.05-.45-.05-.8-.05-.45q0-.25.35-.35l.45.4.25.55v.4l.1.85z"/><path fill="#fff" d="m48.5 20-.1.55q-.15.75-.75 1.3l-2.2-.3-2.15-.05-.7.1h-.2l-.85-1.05q-.55-1.25-.1-2.5.5-1.3 1.6-1.95 1.15-.7 2.35-.65 1.3.1 2.2 1.05l.6.8.3 1zm-2.65 4.15.3.15-.15.45-.55.05-5.5.3-2 .4q-6.3 1.3-9.4 2.25l-1.85.2-.75-.7q-.2-.55 0-1.05.3-.75 1.6-1.25 1.95-.7 4-.9l4-.1.15-.65q.4-.75 1.05-.75.8-.05 1.2.9l.15.55h2.1l2.85-.1zm-18-4.5q1.3.6 1.4 2.05 0 1.15-1 1.9-.9.7-2.15.45-.95-.15-1.4-.85-.5-.65-.45-1.35l.9-.5 1.65-1.95z"/></g></svg>