<svg xmlns="http://www.w3.org/2000/svg" xmlns:ffdec="https://www.free-decompiler.com/flash" ffdec:objectType="shape" width="72.7" height="39.55"><g fill-rule="evenodd"><path fill="#999" d="M24.7 23.75Q22.35 21.6 21.6 18q-.6-3.15.2-5.5.75-2.5 2.9-4.15.8-.55 2.5-1.45l2.9-1.25 1.15-.25.2-.15.75-.45 1.7-.55 3.85-.45 1.25.15q.9.35 1.1 1.15.3.8-.2 1.55l-1.25 1.2L39.8 8.9q2 2.1 2.65 4.55l.05.2q1.05-.55 2.3-.95l3.5 3.25-1.95 3.6 3.85-3.9-1.95-3.8 2.65-.25h.1l3.9.4q2.45.5 4.45 1.85l-.05-1q-.05-1.35.3-3.25.35-2.45.65-3.6.45-1.95 1.3-3.3 1.2-2 2.95-2.55l2-.05q1.05.25 1.65 1 .5.6.7 1.75.1 1.1-.25 1.85l-1.6 2q-1.85 1.95-2.65 4.6l-.7 3.5-.6 3.1q1 1.7 1.15 3.55V22l1.6.7q1.45.65 2.4.5-.5-1.1-.5-2.05.1-1.25 1-1.8.4-.25 1.25-.35l1.1.1q1 .4 1.35 1.8.7 2.3-.15 4.55-.35.95-.95 1.35l-1.6.45-3.05.05q-1.1-.2-3.75-1.3-1.6 1.7-4.35 1.5-1.55-.1-3.85-.95l-.55 1.25.9.65q.95.45 1.7 1.05 1.05.9 1.4 1.9.25.75 0 1.35l-.65.75q-.7.75-1.7.5l-1-.45q-2-1.1-3.85-2.5l-1-.95q-.65-1-.4-2.65.2-1.3.75-2.5l-.95-.25-2.55-.25-3 .15-2.45.85-.4.6-1.5 2-.5 1.2-.05.2.8 1.3q.5 1.5-.35 2.75-1 1.35-2.5 1.1-.7-.1-1.25-.6-.55-.55-.7-1.25l-.05-.55q-.45-.8-.5-1.85 0-.6.15-1.3.3-1.75.95-3.1l-.2.05-2.5.3q-5.15.1-8.05-2.55m28.85-17.5q0 .55-.6 1.15l-1.5 1.05q-.95.65-1.35 1.2l-.7.55q-.35 0-.45-.4-.1-.25.1-.75l.45-1.25.9-1.9q.85-1 1.8-.95.55 0 .95.4.45.4.4.9m-8.35 5.1-.3-.2q-.7-.9-.4-2.8l.45-1.3q.4-.65 1.05-.8.85-.15 1.3.45l.25.75-.35.85-.75 1.05-.45.8-.4 1.05zM32.25 19.1q.2.55-.6 1.25l-.95.55h-.6q-.3.05-.45.4t-.05.65q.2.6 1 .8h1.05q1.3-.3 1.8-1.6.35-.8.35-1.85 2.2.25 3.65-.9.8-.65 1.1-1.7.35-1.05-.1-1.95-.35-.65-.85-.7-.4-.05-.7.35-.25.35-.2.75l.25.8q.1.55-.45 1l-1.05.45-.9.1-.75-.45q-.7-.45-1.3-.2-.8.3-.75 1l-.05.15.15.65zm-5.15-1.7q-.85-.8-2-.7-1.2.1-1.75 1.1-.25.5-.25.95-.1.65.2 1.3t.9.9l1.35.15q.75 0 1.25-.35l.6-.7q.55-1 .3-1.8zm7.4-3.35q1.3-.1 1.95-1.45l.25-1.35-.4-1.2q-.6-.65-1.75-.75-.8-.1-1.5.3l-.75.7q-.45.7-.45 1.5 0 .85.5 1.4l.9.6zm-20.9 9.2.15.05.15.1.05.1.05.15v.2l.05.1v.1l.05.1v.1l.05.1v.1l.05.1v.5l.05.15v.3l.05.1v.6l.05.1v.65l.05.1.05.1v.1l.05.1v.1l.05.1v.5l.05.1v.25l.05.1v.4l.05.1v.1l.05.1v.1l.05.1.05.1v.1l.05.1v.35l.05.1v.2l.05.1v.1l-.05.1v.4l-.05.1v.3l-.05.15-.05.1-.05.1-.1.1-.05.1-.05.1-.15.1-.2.1-.1.05-.1.05-.1.05h-.55l-.25-.1-.2-.1-.15-.1-.1-.1-.1-.1-.1-.1-.05-.1-.05-.1v-.1l-.05-.1v-.2l-.05-.1V30.1l.05-.1v-.1l.05-.1v-.3l.05-.15v-.1l.05-.1v-.1l.05-.1.05-.1v-.5l.05-.1v-.1l.05-.1v-.55l.05-.1v-.1l.05-.1.05-.1V27l.05-.1v-.6l.05-.15v-.7l.05-.1v-.2l.05-.1v-.65l.05-.1.05-.1V24l.05-.1.05-.1v-.3l.15-.1.05-.1h.2z"/><path fill="#fff" d="m34.5 14.05-1.25-.25-.9-.6q-.5-.55-.5-1.4 0-.8.45-1.5l.75-.7q.7-.4 1.5-.3 1.15.1 1.75.75l.4 1.2-.25 1.35q-.65 1.35-1.95 1.45m-7.4 3.35.6.85q.25.8-.3 1.8l-.6.7q-.5.35-1.25.35l-1.35-.15q-.6-.25-.9-.9t-.2-1.3q0-.45.25-.95.55-1 1.75-1.1 1.15-.1 2 .7m5.15 1.7-.4-.45-.15-.65.05-.15q-.05-.7.75-1 .6-.25 1.3.2l.75.45.9-.1 1.05-.45q.55-.45.45-1l-.25-.8q-.05-.4.2-.75.3-.4.7-.35.5.05.85.7.45.9.1 1.95-.3 1.05-1.1 1.7-1.45 1.15-3.65.9 0 1.05-.35 1.85-.5 1.3-1.8 1.6H30.6q-.8-.2-1-.8-.1-.3.05-.65t.45-.4h.6l.95-.55q.8-.7.6-1.25"/><path d="M17.7 11.7q.6.6.6 1.55t-.8 1.35l-.9.2-.95-.15q-.65-.35-.85-1.35-.1-.7.15-1.3.35-.75.95-.9.95-.35 1.8.6M.85 38.65q-.7-1.05-.8-3.1-.3-7.3 2.3-13.85 1-2.6 2.25-4.05 1-1.25 2.3-1.8v-.1q0-.9.45-1.75.4-.8 1.15-1.25.8-.5 1.6-.35.6.1.7.55l-.2.5-.65 1.3-.2.6.5.1.5-.55 1.1-.7 1.5.1q.45.1.6.3.25.4-.2.75l-.4.15-.05.1-.3.4-.15.5v.5l.5.7.3-.05q.9 0 1.65.45.6.25.85.65.35.45.2.95-.2.65-.8.55l-.5-.2-1 .1-.05.05-.25 1.4-1.15 1.9-2.25 3.1Q8.1 29.7 7.1 31.35q-1.65 2.75-2.4 5.2l-.75 2q-.75 1.15-1.8 1-.75-.05-1.3-.9m13.8-34.7V3.4l-.15-.6q-.15-.7 0-1.3 0-.3.15-.55l.5-.5.5-.35.85-.1q1.55 0 2.1.5l.5 1 .05.5v2.45L19 5.2l-.05.65-.6 2.45q-.3.85-.9 1.2l-1.15.15q-.6-.25-.85-.85-.15-.35-.15-1.15l-.15-1.35-.15-.5v-.65l-.15-.75z"/></g></svg>