<svg xmlns="http://www.w3.org/2000/svg" xmlns:ffdec="https://www.free-decompiler.com/flash" ffdec:objectType="shape" width="77.6" height="35.85"><g fill-rule="evenodd"><path fill="#767676" d="M75.45 26h.25l.25.05h.1l.1.05h.1l.2.05.1.1.1.05.1.05.1.05.1.1.1.1.05.05.05.05.1.1.05.1.05.05V27l.05.05v.05l.05.05v.1l.05.05v.05l.05.05v.1l.05.1v.75l-.05.05v.05l-.05.05v.15l-.05.05v.05l-.05.05v.05l-.05.05-.05.1-.05.05v.05l-.15.15-.05.1-.1.05-.05.05-.1.05-.1.05-.1.05-.05.1-.2.05-.1.05h-.1l-.1.05h-.1v.05h-.25l.05.05.1.05.05.05.1.05v.05l.1.1v.05l.05.05.05.05.05.05v.15l.05.05.05.05v.15l.05.1v.55l-.05.05v.15l-.05.05v.05l-.05.05v.05l-.05.1v.05l-.05.05-.15.15-.05.1-.1.05-.05.05-.1.05-.05.05-.15.05-.1.1h-.15l-.05.05h-.1l.05.05.05.05v.05l.05.05v.1l.05.05v.05l.05.05v.1l.05.1v.8l-.05.05v.15l-.05.05v.05l-.05.05v.05l-.05.05v.1l-.05.05-.05.05v.05l-.1.1-.05.1-.05.05-.05.05-.1.05-.05.05-.05.05-.1.1-.1.05-.1.05-.1.05-.15.05-.15.05h-.05l-.1.05h-.1l-.15.05H69.8l-1.65.05h-55.1l-3.7-.05h-.8l-.4-.05h-.8l-.9-.05H5.3l-1-.05h-.6l-.15-.05H3.3l-.1-.05h-.15l-.15-.1-.15-.05-.1-.05-.1-.05-.1-.05-.05-.1-.1-.05h-.1l-1-.3-.65-.9-.1-.75.05-2.65.05-1.35-.1-.1-.1-.05v-.1l-.05-.05-.05-.05-.05-.05-.05-.05-.05-.05v-.15l-.05-.05v-.05L0 28.35v-.85l.05-.05v-.05l.05-.05v-.05l.05-.05.05-.1v-.05l.05-.05.15-.15.05-.1.1-.05.1-.05.05-.05.1-.05.15-.1h.1l.1-.05h.3l.2-.05h.15l.05-.05h.2l.1-.05h.1l.15-.05h.75l1.7-.05h1l2.25-.05h65.25l1.45-.05h.15l.1-.05h.4z"/><path d="m33.9 1.2 3.4-.5 3 .5 1.35-.75 1.7-.45q1.05 0 1.55.7l.35.7.25.85.1.6.1 2v.25l.2.4.95 2.65q.7 2.65 0 4.75l-1.25 2.4-1.45 1.85 2.3 2.9L47.9 23l.1.35q1.3.35 1.85 1.55.6 1.3-.05 2.5l-1 1.25-.55.55q-.35.25-.75.45l-1.05.6v.1l-.5 1.35q-.5.7-1.25.75l-.1.05-.9.15-1.6-.25-.4-.2-.3-.2-6.5.45-2.3-.2-1.65.9-1.05.35q-1.15.1-1.85-.6t-.6-1.6l-.15-.05-1.4-.55q-1.2-.55-1.8-1.05-.9-.75-1.1-1.7v-1l.2-.85q.25-.65 1.35-1.55l1.05-.65.25-.05q.15-1.25.65-2.45.8-2 2.35-3.4.4-.4 1.15-.95l-1.3-1.35q-1.1-1.4-1.45-3.25-.4-1.8 0-3.6l.1-.4-.05-.1-.35-.5-.35-.75-.65-1.5.05-.55.2-.75q.35-.65 1.6-1.05l.9-.25 2.15.05.25-.2q1.25-1.05 2.8-1.65m.6 12.7.75-1.5H29.5q.1.75.55 1.35.5.7 1.2 1l2.35-.1.8-.6zm10.2-.8.1-.35.1-.45h-.05l-.15.05-.15.05-.15.05h-.1v.05h-2.55l-1.35-.05H39q.1 1.1.95 1.8 1.2 1 2.7.7 1.5-.4 2.05-1.85"/><path fill="#fff" d="M44.7 13.1q-.55 1.45-2.05 1.85-1.5.3-2.7-.7-.85-.7-.95-1.8h1.4l1.35.05h2.55v-.05h.1l.15-.05.15-.05.15-.05h.05l-.1.45zm-10.2.8-.1.15-.8.6-2.35.1q-.7-.3-1.2-1-.45-.6-.55-1.35h5.75z"/></g></svg>