<svg xmlns="http://www.w3.org/2000/svg" xmlns:ffdec="https://www.free-decompiler.com/flash" ffdec:objectType="shape" width="70.9" height="39.75"><g fill-rule="evenodd"><path fill="#767676" d="M11.65 11.6q.55-.3 1.4-.5l1.55-.25q2.25-.5 3.45-1.8.75-.85 1.4-2.45.95-2.8.15-4.95L18.95.2h16.8q-.2 2.7-1.1 5.5-1.5 4.8-4.85 8.15-3.6 3.65-8.25 4.55-3.4.65-8.8-.2l-1-.2q-1.2 3.85-2.9 5.8L6.9 25.45q-1.15.65-2.5.65-1.35.05-2.55-.55-.75-.4-1.25-1.05-.8-1.05-.5-2.35l.55-1.3q2.6-4.95 5.6-9.1 1.05-1.45 2-1.6.9-.15 2.6 1l.75.5zm53.55 7.2v.9l-.5 1.35-.9 1-.2.15-.3-.2v-.35l-.1-1.85-.1-.9q.2-.9 1.05-.9l.65.25q.35.2.4.55m.3 4 .4-.5 1-.95.45-.25 1.45-.45.5-.05q1.2.1 1.55 1.2.25.9-.35 1.55-.7.7-1.5.55l-.75-.15-.9.1-1.35.35-.35.15-.2.2-.6.1q-.15-.3.05-.75zM58.85 4q-.95 11.7-.95 22.25 4.75-.1 6.8 1.55 1.85 1.5 1.5 3.3-.3 1.75-2.3 2.55l-3.5.55-3.8.25-.1.15-.55.6-1.35.6-.85.2-2.1-.1-1.75-.55-.4.25-1 .45q-3.5 1-8.6.2l-1.45-.4q-.8-.4-1.05-1.1-.15-.65.1-1.15l-.05-.05q-.6-.95-.7-2.2 0-.9.15-1.85.2-.8.7-1.35l1.05-.95q1.9-1.2 4.05-1.2v-.25l-.3-4.1-.2-.05-1.3-.5q-1.3-.8-1.3-2.3 0-1.75 1.55-2.5l1.55-.25q.8.05 1.4.55l.6.8 1.6-.2q1.15.15 1.75.95.6.75.55 1.75-.05 1.15-.75 1.8-.65.7-1.65.8l-.5 4.2 1.6.9.2.2q.2-.15.95-.35l1-.2h.5q-.3-3.2-.45-7v-.8l-.55-3.1-1.3-8.2-.65-3.7L46.6 3q-.15-.85 0-1.5l.15-.3H58.6q.4 1 .25 2.8M26.7 27.85l.55 2.45q.2 1.25-.3 1.85-.5.65-1.3.55t-1.15-.85l-.15-.9.1-4.25.65-7.5.15-.35q.2-.2.5.1l.15.55.8 7.35zm-4.8-5.1.35-.6.15-.35q.25-.15.4.1l.1.4.25 2.6.6 3.05v.9q-.05.5-.5.8l-.9.35q-.5 0-.9-.35-.45-.35-.5-.85l.05-.85.4-2.3.2-.95.05-.75zM37.7 25q-.3-.25-.95-.45l-1-.45q-.8-.7-.55-1.65t1.3-1.15q.75-.15 1.6.45 1.45 1.05 1.6 2.85 0 .95-.55 1.15l-.8-.2zM6.25 37.35Q5.9 36.75 6 36t.6-1.3q.75-.9 2.45-1.35l3.3-.55q1.75-.15 5.25.05l8.6.6q1.8.25 2.4.65.7.55.85 1.55.15.95-.4 1.65-.75 1-2.95 1.3l-6.25.4-6.25-.25-4.4-.25q-2.4-.2-2.95-1.15"/><path d="m9.45 32.6-.15-.9L6.35 7.8 5.7 4l-.35-2.1q0-1.05.55-1.7h12.7q.25.9.1 2.35-1.1 10.75-2 24.3l1.7-.15q4.55 0 7 2.5l.65.75.3-.25 1.6-2.2q-1.25.05-2.45-.75-1.15-.75-1.7-1.95l-.35-1.3-.9.15-1.75-.45q-.8-.5-1.05-1.4l-.05-.9q0-.8.3-1.3.2-.45.75-.95l1-.8 1.7-.15.7.1 1.05.65.25.3q1.45-1.25 3.55-1.3l1.35.1.3-.7q.75-1.35 2.25-1.5 1.15-.1 1.95.55l.85.85.15.45.05 1.45-.05.2q-.3 1.15-1.25 1.75l-.5.25.2.75-.3 2.15-.9 2.2-.8 1.4-.05 1.05q0 2.05-.75 3.85-.5 1.25-1.15 1.85l-1.6 1.25q-2.8 1.7-5.1 1.45l-1.45-.5-.3-.05-3.35-.15-2.6.05h-.3l-3.75.65-1.65.05q-.7-.1-1.9-.8l-2.5-2.1-2.3-2.45-1-1.2-.65-1.05-.45-.45q-.25-.35-.1-.65.15-.35.6-.25l.6.25q1.85 1.05 3.9 2.5l1.3 1 1.7 1zM64.3 14.45q-1.55 2.6-3.3 4.5l-.55.55q2.25 2.55 3 6.05.55 2.65-.5 4.05-1.25 1.5-3.55 1.25-1.35-.15-2.55-.9Q55.7 29.15 55 28l-1.3-3.3-1-2.55q-.5-1.5-.2-2.6l.3-.6.15-.5q.55-1.4 2.7-5.1Q57.4 10.2 58 8.15q1.15-3.95-.1-8L57.85 0h12.6q-.2 1.45-1.15 4l-2.85 6.25zM26 8.85q-.35-1 .05-1.7.5-1 1.65-.85t1.4 1.3l.05.45-.35 1.7-.2 1.4.05.5-.2.95-.65.65q-.25 0-.55-.3L27 12.4l-.55-1.9-.1-.55zm.9 6 .55-.45.4-.1.75.25.4.65-.05.75-.5.6Q27.6 17 27 16.3t-.1-1.45m3.7 11.55q.4.1.4-.35l-.1-.55-.4-.55-.2-.05-.35-.15-.15-.5-.4-.25v.05q-.35 0-.35.3l.05.35v.35l-.2.2-.45.65v.55l.3.35.5-.05.15-.25.45-.55zm-2.8-1.65.2-.45-.2-.45-.45-.2q.3-.6.2-1.05-.15-.5-.65-.6-.5-.05-.85.35l-.2.4-.05-.05-.6-.25q-.45 0-.7.45-.2.45.15.8l.65.5.1.05v.1l-.25.65.2.3.35.05.5-.45.25-.2.4.15zm.65-4.4-.05.35q0 1.25 1.1 2.1 1.1.75 2.3.3 1.25-.4 1.6-1.65.4-1.3-.4-2.3l-1-.8-1.75-.1q-.65.2-1.2.8-.5.6-.6 1.3m-26.9 16.5q.4-.6 1.25-.85l1.55-.1 1.95.1.75.15.55.6q.05.65-.7.95l-1.25.3-1.4.75-1.4.5q-.9-.1-1.35-.85-.45-.8.05-1.55m26.9-.1 1.4-.3.65-.15 1.05-.25.5-.05q.95-.1 1.7.3l.45.25q.75.65.65 1.45 0 .9-.75 1.4-.7.5-1.7.25l-1.15-.55-1.75-1.05-1.2-.3-.35-.1-.15-.25.05-.25.25-.2z"/><path fill="#fff" d="M28.45 20.35q.1-.7.6-1.3.55-.6 1.2-.8l1.75.1 1 .8q.8 1 .4 2.3-.35 1.25-1.6 1.65-1.2.45-2.3-.3-1.1-.85-1.1-2.1zm-.65 4.4-.95.1-.4-.15-.25.2-.5.45-.35-.05-.2-.3.25-.65v-.1l-.1-.05-.65-.5q-.35-.35-.15-.8.25-.45.7-.45l.6.25.05.05.2-.4q.35-.4.85-.35.5.1.65.6.1.45-.2 1.05l.45.2.2.45zm2.8 1.65-.75-.45-.45.55-.15.25-.5.05-.3-.35v-.55l.45-.65.2-.2v-.35l-.05-.35q0-.3.35-.3V24l.4.25.15.5.35.15.2.05.4.55.1.55q0 .45-.4.35"/></g></svg>