<svg xmlns="http://www.w3.org/2000/svg" xmlns:ffdec="https://www.free-decompiler.com/flash" ffdec:objectType="shape" width="75.75" height="41.85"><g fill-rule="evenodd"><path fill="#999" d="M.85.3v5.3L5.6 7.55 34.4 18.7l.05.05v.7l.4-.3-.1-.3.5.15.05 2.2-.55.15.1-.35-.4-.3v.75h-.05L5.6 32.6Q2.85 33.7.85 34.55v6.85l.4-.2 4.35-1.85q3.5-1.45 10.1-5.05l6.45-3.45 4.65-2.65 4.25-2.3 4.2-2.4-.05.45q0 1.3.45 2.05.65 1.1 1.6 1.25l1.2-.1 1.1-1.1.2-1.2V23.3q1.8 1.1 4.5 2.6l4.25 2.3 4.65 2.65 6.45 3.45q6.6 3.6 10.1 5.05l4.35 1.85.6.3h-4l-1-.7-4.6-2.3q-6.2-2.9-11.8-6.65L49.9 29.8l-2.45-1L45 27.75l-1.5-.95q-.9-.55-1.6-.75l-.85-.1q-.5.1-.5.5l.6.65 4.3 3 4.2 3.2q2.1 1.55 6.25 4.2l6.05 4H57.2l-.85-.85-2.25-1.4q-1.3-.75-3.15-2.3l-3.1-2.4-2.2-1.5-2.1-1.9-2.3-1.8q-.55-.3-.7 0l.1.4 9.5 10.7 1 1.05H45.2l-.25-1-.75-1.4-1-2.3-1-2.3-1.9-2.9-.15-.35q-.1-.35-.35-.1v.5l.1 1.05 1.2 5.2.5 2.4.2 1.2h-2.05V41l-.05-.05v-.25l-.05-.05v-.2l-.05-.05v-.1l-.05-.05v-.4l-.05-.05v-.35l-.05-.05v-.5l-.05-.05v-.25l-.05-.05v-.2l-.05-.05v-.6l-.05-.05v-.6L39.2 37v-.6l-.05-.05v-.65l-.05-.05v-.3l-.05-.05v-.15L39 35.1v-.15l-.05-.05v-.2l-.05-.05v-.15l-.05-.05v-.15l-.05-.05v-.45l-.05-.05v-.45l-.05-.05V33l-.05-.05v-.35l-.05-.05v-.65l-.05-.05v-.25l-.05-.05v-.1l-.05-.05v-.1l-.05-.05V31l-.05-.05v-.25l-.05-.05v-.35l-.05-.05v-1.5l-.05-.05v-.05l-.05-.05v-.1l-.05-.05v-.05l-.05-.05v-.3L38 28v-.1l-.05-.05v-.05l-.1-.05-.05-.05h-.3l-.1.05-.05.05-.05.05v.05l-.05.05v.35l-.05.05v.05l-.05.05v.05l-.05.05v.1l-.05.05v1.35l-.05.05v.35l-.05.05v.3l-.05.05v.3l-.05.05v.1l-.05.05v.1l-.05.05v.2l-.05.05v.45l-.05.05v.6l-.05.05v.2l-.05.05v.4l-.05.05v.45l-.05.05v.3l-.05.05v.1l-.05.05v.15l-.05.05v.2l-.05.05v.15l-.05.05v.2l-.05.05v.55l-.05.05v.65l-.05.05v.6l-.05.05v.6l-.05.05v.4l-.05.05v.15l-.05.05v.4l-.05.05v.45l-.05.05v.4l-.05.05v.2l-.05.05v.15l-.05.05v.2l-.05.05v.4l-.05.05v.2h-1.85l.15-1.2.5-2.4 1.2-5.2.1-1.05v-.5q-.25-.25-.35.1l-.15.35-1.9 2.9-1 2.3-1 2.3-.75 1.4-.2 1H24.2l.95-1.05 9.5-10.7.1-.4q-.15-.3-.7 0-1 .6-2.3 1.8l-2.1 1.9-2.2 1.5-3.1 2.4-3.15 2.3-2.25 1.4-.85.85h-4.75l6.05-4 6.25-4.2 4.2-3.2q2.5-1.95 4.3-3l.6-.65q0-.4-.5-.5l-.85.1q-.7.2-1.6.75l-1.5.95-2.45 1.05-2.45 1q-1.2.55-3.35 2.05-5.6 3.75-11.8 6.65l-4.6 2.3-1 .7H0V.3zM75.6 35.05l-5.9-2.45-28.8-11.15h-.05v-.75l-.4.3.1.35-.75-.2v-2.1l.75-.2-.1.3.4.3v-.7l.05-.05L69.7 7.55l5.9-2.4V7.7l-.7.3q-2.25 1.1-7.75 3.05L56 14.85l-8.6 2.85q-1.6.5-2.65 1.15-.85.5-.65 1.05l.1.2-.1.15q-.2.55.65 1.05 1.05.65 2.65 1.15L56 25.3l11.15 3.8q5.5 1.95 7.75 3.05l.7.35zM70.95.3 69.7.8q-3.5 1.45-10.1 5.05L53.15 9.3l-4.65 2.65-4.25 2.3q-2.7 1.5-4.5 2.65-.15-1.5-.6-2-.55-.7-1.45-.7t-1.5.6q-.5.55-.8 1.9v.1l-4.35-2.55-4.25-2.3-4.65-2.65-6.45-3.45Q9.1 2.25 5.6.8L4.4.3h3.1l2.75 1.35q6.2 2.9 11.8 6.65 2.15 1.5 3.35 2.05l2.45 1 2.45 1.05 1.5.95 1.6.75.85.1.5-.5-.6-.65q-1.8-1.05-4.3-3l-4.2-3.2-6.25-4.2L15.8.3h4.45l.95.6 3.15 2.3 3.1 2.4 2.2 1.5 2.1 1.9q1.3 1.2 2.3 1.8.55.3.7 0l-.1-.4L25.7.3h4.55l.2.65.75 1.4 1 2.3 1 2.3 1.9 2.9.15.35q.1.35.35.1v-.5l-.1-1.05-1.2-5.2-.5-2.4-.1-.85h1.85v.3l.05.05v.2l.05.05v.15l.05.05v.2l.05.05v.4l.05.05v.45l.05.05v.4l.05.05v.15l.05.05v.4l.05.05V4l.05.05v.6l.05.05v.65l.05.05v.55l.05.05v.2l.05.05v.15l.05.05v.2l.05.05v.15l.05.05V7l.05.05v.3l.05.05v.45l.05.05v.4l.05.05v.2l.05.05v.6l.05.05v.45l.05.05v.2l.05.05v.1l.05.05v.1l.05.05v.3l.05.05v.3L37 11v.35l.05.05v1.35l.05.05v.1l.05.05V13l.05.05v.05l.05.05v.35l.05.05v.05l.05.05.05.05.1.05h.3l.05-.05.1-.05v-.05l.05-.05v-.1l.05-.05v-.3l.05-.05V13l.05-.05v-.1l.05-.05v-.05l.05-.05v-1.5l.05-.05v-.35l.05-.05v-.25l.05-.05v-.25l.05-.05v-.1l.05-.05v-.1l.05-.05V9.6l.05-.05V8.9l.05-.05V8.5l.05-.05V8.2l.05-.05V7.7l.05-.05V7.2l.05-.05V7l.05-.05V6.8l.05-.05v-.2L39 6.5v-.15l.05-.05v-.15l.05-.05v-.3l.05-.05V5.1l.05-.05v-.6l.05-.05v-.6l.05-.05v-.6l.05-.05v-.2l.05-.05V2.6l.05-.05v-.5L39.5 2v-.35l.05-.05v-.4l.05-.05v-.1l.05-.05V.8l.05-.05V.5l.05-.05V.3h2l-.15.85-.5 2.4-1.2 5.2-.1 1.05v.5q.25.25.35-.1l.15-.35 1.9-2.9 1-2.3 1-2.3.75-1.4.2-.65h4.45l-8.95 10.1-.1.4q.15.3.7 0l2.3-1.8 2.1-1.9 2.2-1.5 3.1-2.4Q52.8 1.65 54.1.9l1-.6h4.4l-3.6 2.35q-4.15 2.65-6.25 4.2l-4.2 3.2-4.3 3-.6.65q0 .4.5.5l.85-.1q.7-.2 1.6-.75l1.5-.95 2.45-1.05 2.45-1 3.35-2.05q5.6-3.75 11.8-6.65L67.8.3zm4.65 26.55L65.4 24.4l-13.1-3.25-4.5-1.05 4.5-1.1 13.1-3.25 10.2-2.4v2.3l-5.15 1.15-5.4 1.05-6.3 2-.8.2.05.05h-.05l.8.25 6.3 1.95 5.4 1.05q3.25.5 5.15 1.2zm0-6.5-3.35-.25 3.35-.25zm-58.25-.3-.8-.2-6.3-2-5.4-1.05-4-.8v3.95l2.2.15-2.2.15v3.95l4-.85 5.4-1.05 6.3-1.95.8-.25h-.05zm5.65 1.1L9.9 24.4Q4.55 25.6.85 26.55v5.4q2.3-1.1 7.3-2.85l11.15-3.8 8.6-2.85 2.65-1.15q.85-.5.65-1.05l-.1-.15.1-.2q.2-.55-.65-1.05-1.05-.65-2.65-1.15l-8.6-2.85-11.15-3.8q-5-1.75-7.3-2.8v5.35l9.05 2.15L23 19l4.5 1.1z"/><path fill="#fff" d="M.85.3V0h2.8l.75.3 1.2.5q3.5 1.45 10.1 5.05l6.45 3.45 4.65 2.65 4.25 2.3 4.35 2.55v-.1q.3-1.35.8-1.9.6-.6 1.5-.6t1.45.7q.45.5.6 2 1.8-1.15 4.5-2.65l4.25-2.3 4.65-2.65 6.45-3.45Q66.2 2.25 69.7.8l1.25-.5.7-.3h4.1v5.1l-.15.05-5.9 2.4L40.9 18.7l-.05.05v.7l-.4-.3.1-.3-.75.2v2.1l.75.2-.1-.35.4-.3v.75h.05L69.7 32.6l5.9 2.45.15.05v6.75h-.35l-.75-.35-.6-.3-4.35-1.85q-3.5-1.45-10.1-5.05l-6.45-3.45-4.65-2.65-4.25-2.3q-2.7-1.5-4.5-2.6v1.55l-.2 1.2-1.1 1.1-1.2.1q-.95-.15-1.6-1.25-.45-.75-.45-2.05l.05-.45-4.2 2.4-4.25 2.3-4.65 2.65-6.45 3.45q-6.6 3.6-10.1 5.05L1.25 41.2l-.4.2v-6.85q2-.85 4.75-1.95l28.8-11.15h.05v-.75l.4.3-.1.35.55-.15-.05-2.2-.5-.15.1.3-.4.3v-.7l-.05-.05L5.6 7.55.85 5.6zM7.5.3 6.9 0h8.45l.45.3 3.6 2.35 6.25 4.2 4.2 3.2q2.5 1.95 4.3 3l.6.65-.5.5-.85-.1-1.6-.75-1.5-.95-2.45-1.05-2.45-1q-1.2-.55-3.35-2.05-5.6-3.75-11.8-6.65zm12.75 0-.5-.3h5.7l.25.3 8.95 10.1.1.4q-.15.3-.7 0-1-.6-2.3-1.8l-2.1-1.9-2.2-1.5-3.1-2.4L21.2.9zm10 0V0h3.4l.05.3.1.85.5 2.4 1.2 5.2.1 1.05v.5q-.25.25-.35-.1l-.15-.35-1.9-2.9-1-2.3-1-2.3-.75-1.4zm5.3 0V.2L35.5.15V0h4.25v.45L39.7.5v.25l-.05.05V1l-.05.05v.1l-.05.05v.4l-.05.05V2l-.05.05v.5l-.05.05v.25l-.05.05v.2l-.05.05v.6l-.05.05v.6l-.05.05v.6l-.05.05v.65l-.05.05v.3l-.05.05v.15l-.05.05v.15l-.05.05v.2l-.05.05v.15l-.05.05v.15l-.05.05v.45l-.05.05v.45l-.05.05v.25l-.05.05v.35l-.05.05v.65l-.05.05v.25l-.05.05v.1l-.05.05v.1l-.05.05v.25l-.05.05v.25l-.05.05v.35l-.05.05v1.5l-.05.05v.05l-.05.05v.1l-.05.05v.05l-.05.05v.3l-.05.05v.1l-.05.05v.05l-.1.05-.05.05h-.3l-.1-.05-.05-.05-.05-.05v-.05l-.05-.05v-.35l-.05-.05v-.05l-.05-.05v-.05l-.05-.05v-.1l-.05-.05V11.4l-.05-.05V11l-.05-.05v-.3l-.05-.05v-.3l-.05-.05v-.1l-.05-.05V10l-.05-.05v-.2l-.05-.05v-.45l-.05-.05v-.6l-.05-.05v-.2l-.05-.05v-.4l-.05-.05V7.4l-.05-.05v-.3L36.4 7v-.1l-.05-.05V6.7l-.05-.05v-.2l-.05-.05v-.15l-.05-.05V6l-.05-.05V5.4l-.05-.05V4.7l-.05-.05v-.6L36 4v-.6l-.05-.05v-.4l-.05-.05v-.15l-.05-.05v-.4l-.05-.05V1.8l-.05-.05v-.4l-.05-.05v-.2l-.05-.05V.9L35.6.85v-.2L35.55.6zm6.2 0 .05-.3h3.4l-.05.3-.2.65-.75 1.4-1 2.3-1 2.3-1.9 2.9-.15.35q-.1.35-.35.1v-.5l.1-1.05 1.2-5.2.5-2.4zm7.85 0 .3-.3h5.7l-.5.3-1 .6q-1.3.75-3.15 2.3l-3.1 2.4-2.2 1.5-2.1 1.9-2.3 1.8q-.55.3-.7 0l.1-.4zm9.9 0 .45-.3h8.45l-.6.3-2.75 1.35q-6.2 2.9-11.8 6.65l-3.35 2.05-2.45 1L45 12.4l-1.5.95q-.9.55-1.6.75l-.85.1q-.5-.1-.5-.5l.6-.65 4.3-3 4.2-3.2q2.1-1.55 6.25-4.2zm16.1 32.2-.7-.35q-2.25-1.1-7.75-3.05L56 25.3l-8.6-2.85q-1.6-.5-2.65-1.15-.85-.5-.65-1.05l.1-.15-.1-.2q-.2-.55.65-1.05 1.05-.65 2.65-1.15l8.6-2.85 11.15-3.8Q72.65 9.1 74.9 8l.7-.3.15-.05v5.65l-.15.05-10.2 2.4L52.3 19l-4.5 1.1 4.5 1.05 13.1 3.25 10.2 2.45.15.05v5.65zm0-7.95q-1.9-.7-5.15-1.2l-5.4-1.05-6.3-1.95-.8-.25H58l-.05-.05.8-.2 6.3-2 5.4-1.05 5.15-1.15.15-.05v4.25h-.15l-3.35.25 3.35.25h.15v4.25zM61.95 41.5l-6.05-4q-4.15-2.65-6.25-4.2l-4.2-3.2-4.3-3-.6-.65q0-.4.5-.5l.85.1q.7.2 1.6.75l1.5.95 2.45 1.05 2.45 1 3.35 2.05q5.6 3.75 11.8 6.65l4.6 2.3 1 .7.35.35h-8.55l-.3-.2zm-10.8 0-1-1.05-9.5-10.7-.1-.4q.15-.3.7 0l2.3 1.8 2.1 1.9 2.2 1.5 3.1 2.4q1.85 1.55 3.15 2.3l2.25 1.4.85.85.2.35h-5.95zm-9.35 0-.2-1.2-.5-2.4-1.2-5.2-.1-1.05v-.5q.25-.25.35.1l.15.35 1.9 2.9 1 2.3 1 2.3.75 1.4.25 1-.05.35H41.9zM23 21.15l4.5-1.05L23 19 9.9 15.75.85 13.6V8.25q2.3 1.05 7.3 2.8l11.15 3.8 8.6 2.85q1.6.5 2.65 1.15.85.5.65 1.05l-.1.2.1.15q.2.55-.65 1.05l-2.65 1.15-8.6 2.85-11.15 3.8q-5 1.75-7.3 2.85v-5.4q3.7-.95 9.05-2.15zm-5.65-1.1-.05.05h.05l-.8.25-6.3 1.95-5.4 1.05-4 .85v-3.95l2.2-.15-2.2-.15V16l4 .8 5.4 1.05 6.3 2zM4.65 41.5l1-.7 4.6-2.3q6.2-2.9 11.8-6.65 2.15-1.5 3.35-2.05l2.45-1 2.45-1.05 1.5-.95q.9-.55 1.6-.75l.85-.1q.5.1.5.5l-.6.65q-1.8 1.05-4.3 3l-4.2 3.2-6.25 4.2-6.05 4-.2.15-.25.2H4.35zm13.45 0 .85-.85 2.25-1.4 3.15-2.3 3.1-2.4 2.2-1.5 2.1-1.9q1.3-1.2 2.3-1.8.55-.3.7 0l-.1.4-9.5 10.7-.95 1.05-.3.35h-6zm12.15 0 .2-1 .75-1.4 1-2.3 1-2.3 1.9-2.9.15-.35q.1-.35.35-.1v.5l-.1 1.05-1.2 5.2-.5 2.4-.15 1.2-.1.35h-3.3zm5.25 0v-.2l.05-.05v-.4l.05-.05v-.2l.05-.05v-.15l.05-.05v-.2l.05-.05v-.4l.05-.05v-.45l.05-.05v-.4l.05-.05v-.15l.05-.05v-.4l.05-.05v-.6l.05-.05v-.6l.05-.05v-.65l.05-.05v-.55l.05-.05v-.2l.05-.05v-.15l.05-.05v-.2l.05-.05v-.15l.05-.05v-.1l.05-.05v-.3l.05-.05v-.45l.05-.05v-.4l.05-.05v-.2l.05-.05v-.6l.05-.05v-.45l.05-.05v-.2l.05-.05v-.1l.05-.05v-.1l.05-.05v-.3l.05-.05v-.3l.05-.05v-.35l.05-.05V28.7l.05-.05v-.1l.05-.05v-.05l.05-.05v-.05l.05-.05v-.35l.05-.05v-.05l.05-.05.05-.05.1-.05h.3l.05.05.1.05v.05l.05.05v.1l.05.05v.3l.05.05v.05l.05.05v.1l.05.05v.05l.05.05v1.5l.05.05v.35l.05.05v.25l.05.05v.25l.05.05v.1l.05.05v.1l.05.05v.25l.05.05v.65l.05.05v.35l.05.05v.25l.05.05v.45l.05.05v.45l.05.05v.15l.05.05v.15l.05.05v.2l.05.05v.15l.05.05v.15l.05.05v.3l.05.05v.65l.05.05v.6l.05.05v.6l.05.05v.6l.05.05v.2l.05.05v.25l.05.05v.5l.05.05v.35l.05.05v.4l.05.05v.1l.05.05v.2l.05.05v.25l.05.05v.85H35.5z"/><path d="M65 16.1q-1.65.05-2.85-1.55l-.55-.9-.15-.75-.05-.35-1.5-.45q-.6-.15-1-.45l-.95-.75-.65-.8q-.3-.3-.45-.9l-.2-.95q-.1-1.6 1.15-2.5l1.5-.7 1.3-.25q.65 0 1.65.5l1.85 1.35.5-1 .8-.75.8-.3 3.2.2q1.6.7 2.2 2.2.3 1 .25 2.05l-.25 1.5q-.4 1.05-1.45 1.7l-1.2.5-.3.1-.15.85-.45.9-.6.75-1.6.65zm1.15-7.2 1.35.95.2-.15.85-.45.1-.45-.15-.6-.6-.45-.7-.1-.4.05-.4.45-.45.7zm-4.2 1.35q.35-.65.85-1-.65-.75-1.7-1.35l-.55-.3-1.45.15q-.15.2 0 .45.45 1.05 1 1.35zm8.05 15-.8-1.55q-.7-.85-1.5-1.15l-1.15-.1-1.15.25q-.4.05-.8.25-.7.35-1.15 1.4l.2.6.55 2.7.15 1.4.5.2.45.2.55-.5q.8-.5 1.55.2l.45.6.2-.05 1.1-.45v-.1q-.15-.85.55-1.3.3-.2.55-.25l.05-.1-.05-1.2zm-27.15 2.7.95-.9 1.05-.85 1.25-1.3q-2-.05-2.95-.5l-1.25-.75q-1.65-1.25-2.35-2.55l-.5-1.3-.45-1.6q-.35-2.1.5-4.1.65-1.35 1.6-2.3l-.3-.3-.55-.7-.25-.85q-.1-.55.05-1l.4-.65.65-.6 1.05-.5.6-.15 1.35-.1.6.05.6.25q.75.4 1.5 1.55l.75-1.1q.7-.75 1.65-1l.75-.15 1.95.15.95.65q1.25 1 1.5 2.15l.1.7-.1.95-.3.7q-1.1 1.85-2.9 2.1l-.3.05-.1.75-.2.45-.2.25q.45.4.75 1.25l.45 1.4.1.95.7-.35q1.3-.6 2.85-.6 3.65-.1 6.1 2l.75.8 1.1-1.05q2.3-1.45 5.05-1.1 2.8.45 4.4 2.55l.7 1 1.05 2.45.2 1.8L74.1 28q-.15 1.25-.85 2.3l.05.6-.1.35-.45 1.6q-.2.95-.8 1.4l-.65.3-.4-.15-.35-.25-.2-.95v-.5l-.75.25-1.35.25-.45 1.05-.6.9-.65.45-.6-.15q-.2-.2-.25-.7l-.1-.55.1-.35.15-.7-.65-.15-1.2-.3-.75 1.65q-.8 1.2-2 2-1.55 1.15-3.55 1.5l-3.2.3-3.55-.2-3.45-.2-2.1-.1q-1.15-.15-1.9-.6-2-1.25-2-4.75 0-2.7 1.35-4.35m.7-6.5q1.7 1.1 3.7.6l1.05-.6q.35-.4.35-1.45l-.35-1.85-.4-1.2-.05-.15-1.7-.1q-1.1-.35-1.6-1.3L44 14.15l-.05-.95-.85-.25-.2.25-1.15 1.4q-.45.9-.55 1.6-.2 1.3.2 2.6.45 1.3 1.45 2.15zM44 10.2h.55L44 9.5l-.5-.4-1.7.1q-.35.1-.35.3l.15.25.75.75.4-.2zm4.5.35q.7.3 1.2 1l.45-.2 1-1 .05-.2-.1-.25q-.55-.65-.85-.75l-1.05.1-.8.65-.45.55zm-1.4 11-.75-.25q-.7-.55-.3-1.3l.55-.5.7-.05.6.45.15.7-.3.65zm7.1-6.45.2-.15.35-.2.45-.1.55.05h.15q.3.05.6.35l.35.5v.9l-.35.55-.45.3-.35.1h-.85l-.2-.1-.2-.2-.55-.7-.05-.35.1-.55zm0 16.05-.1-1.55.15-1.55.65-1.4.45-.55q.55-.35 1.15-.35l1.05.3.35.25q.85.7 1.1 1.65l.45 2.45.05.75q-.1 1.05-1 1.5l-1 .25h-1.8l-.95-.3-.5-.8-.05-.45zm-7.9 2.75H49l2.75.25 3 .05 2.1-.1 1.5-.55 1.5-1.1.55-1.45q.25-1.7-.3-4.15l-.45-.1-.85-.6q-.3-.45-.3-.95V25l.45-.35.15-.3-.05-.4-.4-.5-.65-.75q-.8-.55-2.05-.75-2.1-.5-3.4.3l-1.05.9Q49.7 25 48.45 26.9l-1.9 2.35-1.25 1q-.25.4-.3 1.35 0 1.2.25 1.75l.3.45zm8.85-8.7q-.6.85-1.4.8-.95 0-1.45-.8-.25-.5-.15-1.1.1-.65.55-1t.95-.35V23q0 .55.45 1 .5.45 1.2.6h.05zm-23.35-15 1.25.1.4.2.75-.75.15-.25q0-.2-.35-.3l-1.7-.1-.45.4-.6.7zm1.15 17.75q1.35 1.65 1.35 4.35 0 3.5-2 4.75l-1.9.6-2.1.1-3.45.2-3.55.2-3.2-.3q-2-.35-3.55-1.5-1.2-.8-2-2l-.75-1.65-1.2.3-.65.15.15.7.1.35-.1.55-.25.7-.6.15-.65-.45-.6-.9-.45-1.05-1.35-.25-.7-.25v.5l-.25.95-.35.25-.4.15q-.3.05-.65-.3-.6-.45-.8-1.4l-.45-1.6-.1-.35.05-.6q-.7-1.05-.85-2.3l-.05-1.45.2-1.8q.3-1.1 1.05-2.45l.7-1q1.6-2.1 4.4-2.55 2.75-.35 5.05 1.1.65.45 1.1 1.05l.75-.8q2.45-2.1 6.1-2 1.55 0 2.85.6l.75.35.05-.95.45-1.4q.3-.85.75-1.25l-.2-.25-.2-.45-.1-.75-.3-.05q-1.8-.25-2.9-2.1l-.3-.7-.1-.95.1-.7q.25-1.15 1.5-2.15.5-.45.95-.65l1.95-.15.75.15q.95.25 1.65 1l.75 1.1q.8-1.15 1.5-1.55l.6-.25.65-.05 1.3.1.6.15 1.05.5.65.6.4.65.05 1-.25.85-.5.7-.35.3q1 .95 1.6 2.3.85 2 .5 4.1l-.45 1.6-.5 1.3q-.7 1.3-2.35 2.55l-1.25.75-2.95.5 1.25 1.3 1.05.85zm-5.65-17.4.55-.1-.45-.55-.8-.65-1.05-.1q-.3.1-.85.75l-.1.25.05.2q.35.65 1 1l.45.2q.5-.7 1.2-1m4.6 2.9-.1.7-.55 1.25q-.5.95-1.6 1.3l-1.7.1-.05.15-.35 1.2q-.35.85-.4 1.85 0 1.05.35 1.45.3.4 1.05.6 1.25.3 2.4 0 1.05-.25 2-1.1 1-.85 1.45-2.15.4-1.3.2-2.6l-.55-1.6-1.15-1.4-.2-.25-.85.25zM21.6 15.1l.25.4.1.25v.65h-.05l-.55.7-.2.2-.2.1h-.85l-.35-.1-.45-.3-.3-.55-.05-.35.05-.55.3-.5q.35-.3.6-.35h.15l.55-.05.45.1.35.2zm-.95 10.1-.2-.6h.05q.7-.15 1.2-.6.45-.45.45-1v-.25q.5 0 .95.35t.55 1q.1.6-.15 1.1-.5.8-1.45.8-.8.05-1.4-.8m8.85 8.7.75-.1.3-.45.3-1.75-.35-1.35-1.25-1-1.9-2.35Q26.1 25 24.3 23.15l-1.05-.9q-1.3-.8-3.4-.3-1.25.2-2.05.75l-.65.75-.4.5-.05.4.15.3.5.35v.2l-.35.95-.85.6-.45.1q-.55 2.45-.3 4.15.2.95.55 1.45.4.6 1.5 1.1l1.55.55 2.05.1 3-.05 2.75-.25zm-.8-12.35-.65-.3-.3-.65.15-.7q.25-.35.6-.45l.7.05.55.5q.4.75-.3 1.3zm-17.75-5.4-.85-.1-1.6-.65-.6-.75q-.4-.5-.45-.9-.15-.35-.15-.85l-.3-.1-1.2-.5q-1.05-.65-1.45-1.7-.25-.6-.25-1.5-.05-1.05.25-2.05.6-1.5 2.2-2.2l3.2-.2.8.3.8.75.5 1 1.85-1.35q1-.5 1.65-.5l1.3.25 1.5.7q1.25.9 1.15 2.5l-.2.95-.45.9-.65.8-.95.75-1 .45-1.5.45-.05.35-.15.75-.55.9q-1.2 1.6-2.85 1.55m5.65-8.4-1.2-.1-.55.3q-1.05.6-1.7 1.35l.85 1 1.85-.7q.55-.3 1-1.35l.1-.3-.1-.15zm-6.8 1.2.2-.05-.45-.7-.4-.45-.35-.05-.75.1-.6.45-.15.6.1.45.85.45.2.15q.65-.65 1.35-.95m2.4 15.9.15-.5q-.45-1.05-1.15-1.4l-.75-.25-1.2-.25-1.1.1q-.85.3-1.55 1.15-.4.5-.65 1.2l-.4 1.4-.05 1.2.05.1q.25.05.55.25.7.45.55 1.3v.1l1.1.45.2.05q.2-.45.45-.6.75-.7 1.55-.2l.55.5.45-.2.5-.2.15-1.4q.15-1.5.6-2.8m9.4 6.3v.2l-.05.45-.5.8-.95.3h-1.8l-1-.25q-.9-.45-.95-1.5v-.75l.45-2.45q.25-.95 1.1-1.65.2-.2.35-.25.4-.3 1.05-.3.6 0 1.15.35l.45.55.65 1.4.15 1.55z"/><path fill="#fff" d="m63.65 24.95-.2-.6q.45-1.05 1.15-1.4.4-.2.8-.25l1.15-.25 1.15.1q.8.3 1.5 1.15l.8 1.55q-.75-1.05-2.1-1.6-1.5-.5-2.75 0-.95.45-1.5 1.3m-20.1-3.5-.7-.5q-1-.85-1.45-2.15-.4-1.3-.2-2.6.1-.7.55-1.6l1.15-1.4.2-.25.85.25.05.95-1 .6q-.6.7-.8 2.05-.25 1.65.2 2.85l.45.9zm11.6 3.75.2-.6h-.05q-.7-.15-1.2-.6-.45-.45-.45-1v-.25q-.5 0-.95.35t-.55 1q-.1.6.15 1.1.5.8 1.45.8.8.05 1.4-.8m-8.85 8.7-.75-.1-.3-.45Q45 32.8 45 31.6q.05-.95.3-1.35l1.25-1 1.9-2.35q1.25-1.9 3.05-3.75l1.05-.9q1.3-.8 3.4-.3 1.25.2 2.05.75l.65.75.4.5.05.4-.15.3-.45.35v.2q0 .5.3.95l.85.6.45.1q.55 2.45.3 4.15l-.55 1.45-1.5 1.1-1.5.55-2.1.1-3-.05L49 33.9zm7.9-2.75v.2l.05.45.5.8.95.3h1.8l1-.25q.9-.45 1-1.5l-.05-.75-.45-2.45q-.25-.95-1.1-1.65l-.35-.25-1.05-.3q-.6 0-1.15.35l-.45.55-.65 1.4-.15 1.55zm-23.25-9.1.9-.9 1.2-2.25q.65-1.6.65-2.65-.1-1.65-1.1-2.45-.35-.25-.7-.35l-.05-.25.85-.25.2.25 1.15 1.4.55 1.6q.2 1.3-.2 2.6-.45 1.3-1.45 2.15-.95.85-2 1.1M29.5 33.9h-2.7l-2.75.25-3 .05-2.05-.1-1.55-.55q-1.1-.5-1.5-1.1-.35-.5-.55-1.45-.25-1.7.3-4.15l.45-.1.85-.6.35-.95V25l-.5-.35-.15-.3.05-.4.4-.5.65-.75q.8-.55 2.05-.75 2.1-.5 3.4.3l1.05.9q1.8 1.85 3.05 3.75l1.9 2.35 1.25 1 .35 1.35-.3 1.75-.3.45zm-8.85-8.7q.6.85 1.4.8.95 0 1.45-.8.25-.5.15-1.1-.1-.65-.55-1t-.95-.35V23q0 .55-.45 1-.5.45-1.2.6h-.05zm-14.7-.3q.25-.7.65-1.2.7-.85 1.55-1.15l1.1-.1 1.2.25.75.25q.7.35 1.15 1.4l-.15.5-.4-.5q-1.15-1.3-3-1.15-1.6.25-2.85 1.7m15.65 6.25.1-1.55-.15-1.55-.65-1.4-.45-.55q-.55-.35-1.15-.35-.65 0-1.05.3-.15.05-.35.25-.85.7-1.1 1.65l-.45 2.45v.75q.05 1.05.95 1.5l1 .25h1.8l.95-.3.5-.8.05-.45z"/><path fill="#999" d="m61.95 10.25-1.85-.7q-.55-.3-1-1.35-.15-.25 0-.45l1.45-.15.55.3q1.05.6 1.7 1.35-.5.35-.85 1m4.2-1.35-.2-.05.45-.7.4-.45.4-.05.7.1.6.45.15.6-.1.45-.85.45-.2.15zM70 25.25l.25 1.05.05 1.2-.05.1q-.25.05-.55.25-.7.45-.55 1.3v.1l-1.1.45-.2.05-.45-.6q-.75-.7-1.55-.2l-.55.5-.45-.2-.5-.2-.15-1.4-.55-2.7q.55-.85 1.5-1.3 1.25-.5 2.75 0 1.35.55 2.1 1.6m-21.5-14.7-.55-.1.45-.55.8-.65 1.05-.1q.3.1.85.75l.1.25-.05.2-1 1-.45.2q-.5-.7-1.2-1M44 10.2l-1.25.1-.4.2-.75-.75-.15-.25q0-.2.35-.3l1.7-.1.5.4.55.7zm0 3.95.55 1.25q.5.95 1.6 1.3l1.7.1.05.15.4 1.2.35 1.85q0 1.05-.35 1.45l-1.05.6q-2 .5-3.7-.6l-.7-.9-.45-.9q-.45-1.2-.2-2.85.2-1.35.8-2.05zm3.1 7.4.65-.3.3-.65-.15-.7-.6-.45-.7.05-.55.5q-.4.75.3 1.3zM31.8 10.2h-.55l.6-.7.45-.4 1.7.1q.35.1.35.3l-.15.25-.75.75-.4-.2zm-.85 11.85q-1.15.3-2.4 0-.75-.2-1.05-.6-.35-.4-.35-1.45.05-1 .4-1.85l.35-1.2.05-.15 1.7-.1q1.1-.35 1.6-1.3l.55-1.25.1-.7q.35.1.7.35 1 .8 1.1 2.45 0 1.05-.65 2.65l-1.2 2.25zm-3.65-11.5q-.7.3-1.2 1l-.45-.2q-.65-.35-1-1l-.05-.2.1-.25q.55-.65.85-.75l1.05.1.8.65.45.55zm1.4 11 .75-.25q.7-.55.3-1.3l-.55-.5-.7-.05q-.35.1-.6.45l-.15.7.3.65zM16.95 7.95l-.1.3q-.45 1.05-1 1.35l-1.85.7-.85-1q.65-.75 1.7-1.35l.55-.3 1.2.1zm-7.15 1q-.7.3-1.35.95l-.2-.15-.85-.45-.1-.45.15-.6.6-.45.75-.1.35.05.4.45.45.7zM5.95 24.9q1.25-1.45 2.85-1.7 1.85-.15 3 1.15l.4.5q-.45 1.3-.6 2.8l-.15 1.4-.5.2-.45.2-.55-.5q-.8-.5-1.55.2-.25.15-.45.6l-.2-.05-1.1-.45v-.1q.15-.85-.55-1.3-.3-.2-.55-.25l-.05-.1.05-1.2z"/></g></svg>