<svg xmlns="http://www.w3.org/2000/svg" xmlns:ffdec="https://www.free-decompiler.com/flash" ffdec:objectType="shape" width="75" height="39.1"><g fill-rule="evenodd"><path fill="#999" d="M75 10.55V39.1H.55V11.9Q0 11.4 0 10.5q0-1.15 1.1-1.75l2.05-.3 1.6.1-.6-2.75q-.2-.9.15-1.3.25-.3.7-.25l.75.3q.45.4.75 1.35l.95 3.2.6.3.35.25.05-.5-.6-5.25.05-2.7.05-.8.4-.35.55.05.45.75.3 1.75.15 1.05.7 2.55.45-1.7q.2-.65.5-.85.35-.2.75 0l.55.65-.15 1.65-.3 2.8-.05.65.65-.05 1.35.1 1.3.35 2.25.3.85-.4.65-.2v-.2l-.2-1.75-.3-3.9-.35-1.55L17.9 1q0-.5.4-.75l.85-.05.5.45q1.2 1.6 1.35 2.7l.05.95.15 1 .35 1.2.35-1.05.1-.65.3-1 .65-1.7.35-.6q.35-.35.8-.25.4.1.6.55l-.1 1-.2.75-.5 3.25-.15.5v.5l-.1 1.05 1.3.35v-.05l.7-1.05.7-.7q.55-.25.95 0 .5.35.2 1.1l-.65 1.1-.15.45.45.5H32q.45-.55 1.25-.9 1.05-.45 2.6-.35 1.25.2 1.75.7l.35.55h4.1q.1-.6.75-1 .65-.45 1.7-.45l1.4.25q.8.35.9 1.1v.1h9.4l.2-.2q.75-.55 2.3-.9L59 7.3l.8-1.7q.45-.85 1-.75l.45.4v.7L60.8 7.2l.1 1.1.1.85 1.45.2 1.1.4.8-.15-.05-.5-.3-2 .25-1.8.25-1.8.05-.95q.1-.55.6-.65.45-.05.75.55l.05 1q0 1.3.3 2.5l.25 1.25.55-1.4.3-.5.3-.7.6-1.3q.6-1.1 1.85-2.2.35-.35.65-.35.3-.05.5.25l.1.55-.4.5q-1.1 1-1.65 3.3l-.2 1.25-.05.75-.2.6-.15.85 1.35.45q.65.3 1 .9l.2.4z"/><path d="m45.15 9.9-.55-.55Q42.85 7.8 40.45 7.5q-2.45-.25-4.25.65l-1.5.9q-1.2.8-1.7 1.3-.65.65-1.3 2l-.25.5q-.55 1.2-.7 2.1l-.05 1.2q.05.6.45 1.5.85 1.8 2 2.7l.9.55 1.05.55.6.25q2.7 1.1 4.55.8 1.1-.25 2.65-1.15l1.8-1.45.9-1.2.7-1.5.2-.65.35-1.5v-1.7q-.2-1.15-.75-2.1zm-9.6 1.65.35-.55.45-.15h.25l.6.2.15.15.05.05.2-.1.75-.4.5-.15-.05-.1q0-.45.25-.7l.4-.2q.7-.25 1.3.3l.25.5h.55q1.8.2 2.45 1.4l.1.2.15.9q.25 1.85-.4 2.95l.2.2.45.75-.1.45-.35.2-.65-.3-.55-.25-.25.2-.45.35-.05.05v.05l.25.75.05.1-.25.65q-.3.45-.7.15l-.3-.35-.1-.05-.4-.4-.75.35-.45.15v.2l.05.15.15.65q-.1.5-.6.6-.55 0-.8-.45l-.15-.35-.45-.45-1.85-.05q-.6-.2-.9-.4l-.8-.8q-.15-.35-.15-1.15l.05-1-.5-.1-.45-.3Q32.9 15.3 33 15q.05-.25.4-.35l1.05-.3.25-.4.25-.5.8-.95-.2-.6zm11.3 11.8-2.7 1.95q-1.2.7-2.25.95l-4.3.25q-2.1-.3-3.95-1.2l-.15-.05-.3.4-1 .85.2.35.3 1.2q.05.9-.65 1.9l-1.5 1.4-3.35 2.75q-1.4 1.15-2.35 1-.6-.1-1.2-.65L22.6 33.4l-1.8-1.25q-1.05-.9-.85-1.95.1-.6.9-1.3l5.45-4.75q.95-.75 1.55-.8l1 .2.1.05.4-.45.4-.45-1.6-2.05q-2.05-3.45-1.15-7l1.1-2.7 1.25-2.1q1.05-1.4 4.25-3.45 1.65-1.1 2.8-1.45l2.5-.3q3.7 0 5.65.95 1.25.6 2.75 1.95l1.75 2.05q.85 1.3 1.2 2.7.9 3.15-.05 6.5-.95 3.3-3.35 5.55m-4.7-9.15q0-1-.45-1.35l-.85-.2h-.05l-1.4.35q-.8.25-1.5.85-1.2 1.1-1.2 2.35-.05 1.25.6 1.2l1.6-.5q.9-.4 2.65-1.6l.5-.5zm6.55 12.45 1.05.3q.45.45.5.95l-.05.95q-.25.6-1.1 1.05l-1.6.45q-1.05 0-1.35-.85-.15-.55.05-1.05l.6-.9q.4-.6 1.05-.8zM19.15 17.6l-.45.9-.9.5q-.5.05-1.1-.45l-.85-1.05q-.15-.45-.15-1.4l.15-8.65q-.1-1.75.2-2.8.45-1.65 1.75-2.1l2.2.2q.85.4 1.1.85.55.8.25 2.5l-1.25 8.25zm-.5 7.8-.85.45q-.7.25-1.5 0-1.25-.35-1.5-1.6l.05-1.15.4-1q.7-1 2.1-.8.85.1 1.2.5l.45 1.05.1 1.35zm6.65 5.55.4-.15.65-.45L29.1 28q-.55-.95-1.1-.9l-.3.05q-.35.15-.9.85l-1.4 1.1q-.9.7-1.25 1.25.6.7 1.15.6"/><path fill="#fff" d="m41.3 10.4.35-.1 1.15-.05 1.15-.1 1.2-.25.95 1.35-2.1.55q-.65-1.2-2.45-1.4zm-9.6 1.95.4-.1 2.75-.55.7-.15v.35l.2.6-.8.95-.25.5-2.4.7-1.4.3h-.15q.15-.9.7-2.1zm5.65-1.15.2-.05h.05l-.2.1zm5.05 7.2.75-.35 1.15-.45 2-.4-.7 1.5-9.9 3-.6-.25-1.05-.55.25-.1 3.8-1.1.15.35q.25.45.8.45.5-.1.6-.6l-.15-.65 1.45-.45h.1l.1.05.3.35q.4.3.7-.15zm-.25-4.2-.1.6-.5.5q-1.75 1.2-2.65 1.6l-1.6.5q-.65.05-.6-1.2 0-1.25 1.2-2.35.7-.6 1.5-.85l1.4-.35h.05l.85.2q.45.35.45 1.35M25.3 30.95q-.55.1-1.15-.6.35-.55 1.25-1.25l1.4-1.1q.55-.7.9-.85l.3-.05q.55-.05 1.1.9l-2.75 2.35-.65.45z"/></g></svg>