<svg xmlns="http://www.w3.org/2000/svg" xmlns:ffdec="https://www.free-decompiler.com/flash" ffdec:objectType="shape" width="75.15" height="42.95"><g fill-rule="evenodd"><path fill="#999" d="m33 8.5-.6 1.2q-.95 1.35-2.55 2.25l-1.05.45-1.6.1-1.5-.1q-1.65-.3-2.6-1.75-.55-.75-.8-1.75h-.45l-.35-.05-.7-.45-.25-.2-.1-.15-.2-.4-.1-.4.05-.45q.15-.5.7-.9l.15-.1.8-.1.2.05.25.05.65-1.25.7-.75q1.1-.95 2.1-1.4 1.25-.55 2.5-.4.85.1 2.55 1.05l.5.3.05-.05 2.8-1.9 2.3-1.05L38.3 0q1.2.2 1.35 1.15l.05.15.25-.15.55-.2.1-.1q.8-.7 1.55-.4.75.35.75 1.2.05.65-.4 1.4l-.65.8-1.2.75h-.05l-.2.1-2.65 1-2.95 1-.3.15q-.65.35-1.15.65zm32.6 11.85-1.4.8-2.1.3q-2.25.1-3.9-.6-.85-.3-1.55-.85-2.15-1.45-3.05-3.6-.65-1.6-.45-3.45.2-1.75 1.15-3.25l1-1.25q.4-.45 1.1-.85l-.15-.3q-.3-.65-.1-1.3.25-.5.75-.75l.1-.05-.15-.1-.35-.1-.35-.05-.3.05-.2.35-.45.75-.4.25-.45.1h-.6l-.6-.2-.55-.4-.2-.3-.15-.6.2-.55q.25-.25.6-.25l.35.05.35.4.15.2.25-.1.15-.25.85-.75.9-.1 1 .1.65.35.45.35.3.35.2-.05q.65-.1 1.1.3l.3.2.3.5.1.4h.6l3.2.35q1.8.5 2.8 1.6l.85 1.15 1.1 1.95q.65 1.75.3 3.7l.2-.05q.65-.05 1.2.4.55.4.65 1.05t-.3 1.5l-.6 1.5q-.3 1.1.1 3.35l.45 4.35.2.5.2-.05.5.05.15.05.05.1.2.1.2.25.15.15.05.15v.1l.05.15v.15l-.05.3v.15l-.3.45-.45.3-.25.05v.05h-.2l-.55 1.6-.6 1.2q-.9 1.5-2.4 2l-.25.1.55 1.9.3.5q.55-2.05 2-4.15.7-1.15 1.55-1.6 1.2-.65 2.1 0 .7.5.75 1.7l.05.25q.35 1.45-.1 2.35l-.6.75-1.2 1.25-.2.3-.8 1.8-.2 1-.45.9q-.45.6-1.3.6l-.85-.3h-.25l-1.7.15-2-.25-.7.7-1.85-.1-.1-.05-.6-.1q-.85-.3-1.2-1.5l-.25-.95-.05-.65-.05-.1q-.2-.95 0-2.5l.25-1.6q.25-1.5.75-2.4l.15-.2-.1-.15-.65-1.6q-.4-1.1-.05-2.35.3-1.15 1.1-2.1L63.55 25l.9-.6q1.4-.75 2.95-.45l1.2.4-.25-.95-.25-.95-.15-1.2-.3-.7q-.35-.75-.25-1.65l-.4.45zm4.35 6.95-.1-.1-.05-.15-.15-.35-.6-.45-.05.05-1.4.85-.25.05-.05.05h-.1l-.4.1-.05.7.1.3.35.5.5.35.15.05.55.05.35-.05q.45-.1.7-.35l.2-.2.2-.45.1-.15zM47.8 14.85q-.55.1-.8-.35-.25-.4 0-.9l3.35-3.6q.15-.15.6-.25.8-.25 1.5.25.5.4.55 1.05.1.6-.4 1.1l-.55.45-1.9 1.2-.5.2-1.3.6zm-.7-5.95-.6.25-.6-.15q-.3-.2-.3-.8l.05-.4.3-.5.1-.3 1.3-2.45.35-.5q.45-.55 1.2-.55.75.1 1.15.65.3.4.25.95l-.4.9-.6.7-.4.35-1.8 1.75zm-8.95 27.45v-3.2l.15-.7.2-.45q.5-.85 1.45-.75 1 .1 1.3.9l.2.8.2 1.85-.1 1.5-.5 2.05-.35.4-1.05.1q-.55-.15-.7-.75l-.1-.5-.4-.55zM24.5 4.95l-.15.15-.6.75-.1.65.05.4.05.2.35-.05.3.05.3-.05.7.2.6.2.5.35.1-.1.25-.25.2-.35.15-.75-.1-.55-.15-.35-.2-.25-.2-.2-.4-.25q-.9-.35-1.65.2M21.9 15.3l-.9-.55-1.25-.95-.75-.55-.25-.9.05-.25q.15-.95 1.15-1.2 1.05-.15 1.55.7l.15.3.25.3.9 1.4.05.2.1.05.1.25.3.5v.55l-.3.25-.3.15-.3-.05zm7.6-5.05.05-.5-.05-.35-.05-.15-.1-.2-.25-.35q-.7-.5-1.35-.45l-.7.35.1.35.05.8-.1.45-.45.6.15.2.3.2.55.3.85-.1.3-.1.65-.85zm-17.8-1.2-.3 1.2-.3.95-.75 1.25-1.25 1.1-1.15.25-1.55.1q-1.4-.15-2.65-1.45l-.9-1.3q-.25-.75-.15-1.6l.1-.9.25-.7q.7-1.5 1.1-1.9l.85-.7q.5-.25.95-.55l1.6-.1L9 4.8q.45.1 1.2.75l.8-.1.85.15.25-.15.5-.15.7-.05.6.2.15.15.35.55.15.05.15-.1v-.15l.05-.05-.05-.1-.05-.4.1-.6.35.05.1.35v.2l.05.2-.1.65-.05.15-.15.1-.05.1-.15.05-.65.1-.55-.5H13l-.1.05v.05l-.1.15-.2.2-.05.3-.5.75-.35.2zm7.45 19.3.1 1.05h.45l.35.15.2.15.1.15.2.4v.15l.05.05-.05.3v.1l-.05.15-.1.15-.25.3-.25.15-.45.2-.4.05h-.1L17.8 33.3q-2 2.1-4.35 2.45l-.95.05.4.55.45.55.8.65.2.15.25-.15q.45-.5 1.4-.4l.95.1.8.7q.35.5.3 1.05l-.15.55-.55.6-.7.5-.9.2-2.05-.25q-.55-.25-1.25-1.15l-.3-.35-1.65-2.3-.05 3.2-.4.45-.55.2-1.25.3q-.65.2-1.05 0l-.35.6-.7.25-1-.05-.5-.1H4l-.75-.15-.4-.2-.25.25-.95.25-.9-.5-.2-.2-.2-.5-.05-.3.05-.8.05-.25.2-.15-.1-.05q-.5-.3-.5-1.1l.05-.65.6-3.4.5-1.7.2-.75q.2-.35 1.1-.35h1.4l.15.05-.3-.6-1.8-3.65-.15-.6q-.15-.8.05-1.5.25-.8 1-1.2.8-.35 1.55 0 .85.45.95 1.4.15.85-.5 1.65l-.2.25 1.75 4.05.15-.15.15-.05q-.15-1.75.45-3.3.8-2.05 2.65-3.15l1.2-.65.95-.65q.95-.5 2.1-.35l.55.1v-.1q.15-.45.6-.55l.85.1.45.65v.45l-.1.4q1.25 1.1 2.25 3.2zm-8.85.9.1.1h-.1q-.5.25-.65.75l-.05.4q0 .5.45.75.5.25.9 0l.15-.1.05.4.4.55.6.15.15-.45v-.35l-.25-.8.25-.7.15-.6q0-.25-.35-.45l-.6-.15-.45.05-.35-.15-.1-.6q0-.4-.3-.4t-.3.45q-.05.5.3 1.15m3.45 1.85.15.3.2.15.15.15q.65.5 1.4.25.65-.15 1.1-.85l.1-.2V30l-.05-.2h-.5l-1-.1-.55-.25-.5-.4q-.35.25-.55.7l-.05.25.05.9zm-2.9-4.35.1.15.65.45.45.15 1.05-.25-.05-.1-.05-.75v-.65l.15-.5.05-.35.2-.3-.45-.25-.7-.2v.05q-.6-.05-1.1.35l-.3.4-.15.25-.1.5v.45l.2.5zM21.5 33.7l-.7.65q-.4.2-.5.4l-.2.3-.3.25-.35.45-.7.4q-.7.1-1.15-.35-.5-.5-.4-1.2l.25-.65q.25-.3 1.05-.6l1.95-1q.25-.15.45-.15l.4.05h.35q.4.2.4.55l-.05.3-.15.25zM2.75 37.2l.3-1.2.05-.5.1-.45q.05-.65.25-.9.25-.1.45-.25l.5-.05.05-.55q-.15-.45-.65-.45h-.85l-.9 4.45.7.1zm2.65 2.65.35.05.65-.25-.05-.75.1-.35-.05-.15.05-.2v-.9l.05-.2v-.25l.05-.2.05-1-1.75-.1v-.05h-.1q-.15.25-.15.8l-.1.5v.15l-.05.4-.05.15-.05.25v1.05l-.1.3-.05.65zm2.5-4.25-.05 1.5-.15 1.25-.1.85.05-.05 1.15-.2V36.2l.1-.75-.05-.5-.6.1-.3.4zm23.75-1.8v.35l.4 4.2q-.1.8-.7 1.2l-1.4.15q-.75-.25-.9-1.05l-.1-.4-.05-.45.05-.65-.1-1.3.15-2.75.05-.45q.15-.4.7-.7l.55-.15q.75.1 1.1.4.6.35.5 1zm1.9 5.55-.15-.9.1-3.3q.1-1.3.6-1.8.5-.4 1.1-.4t1 .55l.4.95v1.05l.1 2.5q0 1.55-.3 2.05-.65.9-1.7.65l-.8-.5zm-6.1-3.85-.5.6-1.35.15-.85-.8-.2-.55-.05-1.35.2-2.1.25-.45.6-.45 1.05.1.7.75.2 1.65v.4l.1.25.05.3q0 1.15-.2 1.5"/><path fill="#fff" d="M69.95 27.3v.8l-.1.15-.2.45-.2.2q-.25.25-.7.35l-.35.05-.55-.05-.15-.05-.5-.35-.35-.5-.1-.3.05-.7.4-.1h.1l.05-.05.25-.05 1.4-.85.05-.05.6.45.15.35.05.15zM24.5 4.95q.75-.55 1.65-.2l.4.25.2.2.2.25.15.35.1.55-.15.75-.2.35-.25.25-.1.1-.5-.35-.6-.2-.7-.2-.3.05-.3-.05-.35.05-.05-.2-.05-.4.1-.65.6-.75zm5 5.3-.05.2-.65.85-.3.1-.85.1-.55-.3-.3-.2-.15-.2.45-.6.1-.45-.05-.8-.1-.35.7-.35q.65-.05 1.35.45l.25.35.1.2.05.15.05.35zm-18.65 16.5-.05-.1-.2-.5v-.45l.1-.5.15-.25.3-.4q.5-.4 1.1-.35v-.05l.7.2.45.25-.2.3-.05.35-.15.5v.65l.05.75.05.1-1.05.25-.45-.15-.65-.45zm2.9 4.35-.05-.2-.05-.9.05-.25q.2-.45.55-.7l.5.4.55.25 1 .1h.5l.05.2v.9l-.1.2q-.45.7-1.1.85-.75.25-1.4-.25l-.15-.15-.2-.15zm-3.45-1.85q-.35-.65-.3-1.15 0-.45.3-.45t.3.4l.1.6.35.15.45-.05.6.15q.35.2.35.45l-.15.6-.25.7.25.8v.35l-.15.45-.6-.15-.4-.55-.05-.4-.15.1q-.4.25-.9 0-.45-.25-.45-.75l.05-.4q.15-.5.65-.75h.1z"/><path d="m23.55 19.05.2-1.9.75-2.1.9-1.7-.2-.1-.6-.6-.2-.55-.1-.45.1-.55.15-.35.25-.35q.6-.6 1.15-.95.25-.1.45-.25h.5l.1-.05.65.05.4.1q.4.15.7.45l.1-.05q2.1-1.25 3.95-1.65l2.05-.15 2.45.1q2.1.3 4.45 1.75l.2-.2q.55-.3.65-.3l.35-.05L44 9.15q.5.05 1 .4l.25.3.85 1.6v.65q-.15.7-.8 1.4 1.75 3.45 1.75 6.05.05 1.4-.45 3.3-.95 3.25-3 5.05l-.7.5.3.6 1.75 3.95.8 2.3.05-.45q.5-4.1.95-6.05l1.4-4.8.5-1.3.75-1.4q1.45-2.6 2.7-4.05 1.9-2.05 4.1-2.55 2.85-.6 5.45 1.35 2.2 1.65 3.45 4.55l.7 2v1.9q-.35 3.4-2.65 5.05l-1.55.8-4.05.1-.85-.4q-.55-.15-.9 0l-.7.7q-2.4 3.7-3.4 6.35L51 39l-.8 1.6q-.85 1.5-1.6 1.75l-1.35-.15-.55-.45q-.55.65-1.85 1l-1.6.2-1.05-.2q-.55-.15-.75-.7l-2.3.5-1.6-.15-.6-.25-.7.05-3.2.05-1.05-.1q-.65-.2-.9-.9v-.05h-2.5l-1.6-.3q-.8-.25-.95-.95v-1.7h-.5l-1.15-.45-.9-.35q-.4-.15-.7-.6l-.05-.7.3-5.5q.2-1.6.5-2.4l.2-.35-.45-.25-2.95-1.6-1.95-.9-3.15-1.85-2.4-1.1-.4-.2-1-.2L9.9 21l-1.2-.9q-.55-.45-1-1.5-.5-1.05-.5-2.4.1-2.15 1.45-3.95l-.05-.05q-1.3-.65-1.45-2.1v-.5q.05-.8.9-1.25.7-.45 1.6-.35 1.65 0 3.5 1.25l.9.6q1.3.25 2.55 1.25l1.05 1.1.7 1.3.75 1.65.2.4 2.3 2.5 1 1.2.95.8zm13.45-.4.25.6.35.6q.4.5.9.7l1 .3.75-.05q.85-.2 1.5-.85.6-.65.75-1.5v-.65l-.1-.35-.8-1.55q-.55-.55-1.5-.65l-.1.05h-.3l-.45.95-.55.65-1.7 1.25zm3.3 12.15-1.85.3.1 2.85.85-.15.55-.15.25-.1.15-.05zm.1 4.35V35l-1.15.05-.6-.05h-.05l.1 2.9.6.1 1.4-.05-.05-1.2-.15-.65v-.6zM33.95 22.2l.05.05.35-.05.35.2.15.25v.2l-.3.65-.1.15-.05.2-.1.1v.1l-.1.1-.35.65-.25.15V25l-.5-.1-.2-.15-.1-.25-.1-.1v-.1l-.1-.2v-.15l-.15-.35v-.1l-.1-.2-.1-.65v-.15l.05-.1q.15-.25.5-.25v-.05l.25.1v-.15l.05-.45v-.75l.1-.35v-.25l.2-.15.2-.15.4.3v.55l-.15.7.05.65zm2.25-1.6q-.4-.15-.85-.5l-.2-.25-.6-.8-.1-.15v-.2l-.1-.35q-.1-.2-.55-.3l-.1.05-.25.05h-.15q-.3.1-.5.35l-.95 1.5-.7.5-.4-.1-.4.05-.05.25.15.5.3.25.5.2.3.05-.1 1.2.1.9.45 1.25.55.7.15.25.75.4.8-.05.5-.4.25-.35.4-1.3v-.25l.2-.6.05-.65.1-.35.05-.65.35-.05.45-.1q0-.1.15-.1l.2-.35-.15-.35zm-5.65-1.7.3-.95h-.25l-.15-.05-.15-.05q-.45 0-1.05-.4l-.85-.7-.5-.6-.3-.7-.95.55-.25.3-.5.8-.15.35-.05.55.1.7.7.85q.6.5 1 .5l.05.05 1.15.15 1.05-.35.55-.55zM29 31.45l-.35 3.1.15.05.05.1 1.65.25.55-.05-.05-3.75-.65-.05zm5.95.65-1.7.1h-.05l-.05 4.55h1.1l.95-.25zm-6.4 6.45 1.5.2 1 .1v-3H29l-.2.1-.25.05zm4.55 1v.15l.3.05h1.95l-.1-1.6h-.75v-.05l-.7-.1-.4-.1h-.25zm-6.65-8.65.15-.95.3-.45-1.15-.05-.3 2.15.05.1.55.3.3.1zm-.25 2.55.05-.25-.1-.05-.7-.05v.05h-.25v.05l-.05 2.1.85.25.05.05z"/><path fill="#fff" d="M37 18.65v-.5l1.7-1.25.55-.65.45-.95h.3l.1-.05q.95.1 1.5.65l.8 1.55.1.35v.65q-.15.85-.75 1.5-.65.65-1.5.85l-.75.05-1-.3q-.5-.2-.9-.7l-.35-.6zm-6.45.25-.25.45-.55.55-1.05.35-1.15-.15-.05-.05q-.4 0-1-.5l-.7-.85-.1-.7.05-.55.15-.35.5-.8.25-.3.95-.55.3.7.5.6.85.7q.6.4 1.05.4l.15.05.15.05h.25zm5.65 1.7.6.25.15.35-.2.35q-.15 0-.15.1l-.45.1-.35.05-.05.65-.1.35-.05.65-.2.6v.25l-.4 1.3-.25.35-.5.4-.8.05-.75-.4-.15-.25-.55-.7-.45-1.25-.1-.9.1-1.2-.3-.05-.5-.2-.3-.25-.15-.5.05-.25.4-.05.4.1.7-.5.95-1.5q.2-.25.5-.35h.15l.25-.05.1-.05q.45.1.55.3l.1.35v.2l.1.15.6.8.2.25q.45.35.85.5m-2.25 1.6-.05-.05-.05-.65.15-.7v-.55l-.4-.3-.2.15-.2.15v.25l-.1.35v.75l-.05.45v.15l-.25-.1v.05q-.35 0-.5.25l-.05.1v.15l.1.65.1.2v.1l.15.35v.15l.1.2v.1l.1.1.1.25.2.15.5.1v-.05l.25-.15.35-.65.1-.1v-.1l.1-.1.05-.2.1-.15.3-.65v-.2l-.15-.25-.35-.2-.35.05z"/></g></svg>