<svg xmlns="http://www.w3.org/2000/svg" xmlns:ffdec="https://www.free-decompiler.com/flash" ffdec:objectType="shape" width="76.05" height="41.1"><g fill-rule="evenodd"><path fill="#999" d="m13 .7-.95-.7h7.55l1.9 1.75 4.4 3.55q3.5 2.8 8.1 7.25.6.45.4.85-.2.5-1.1.3-.4 0-1-.5Q26.1 8.8 13 .7m16.9.15L29.35 0h5.6l1.65 5.4 1.05 3.2.4 3.25q.15.3-.1.4l-.6-.05-.3-.45-1.7-1.9Q34.8 9.3 34 7.95l-3.4-5.6zM63.75.7Q50.6 8.8 44.4 13.2q-.6.5-1 .5-.9.2-1.1-.3-.15-.4.45-.85 4.55-4.45 8.1-7.25l4.35-3.55L57.15 0h7.55zM41.9 17.5l-.9-.2q-.25-.35.4-.75 9.4-6.45 19.65-11.9l6-3.1L69.85 0h6.2v3.35l-16.1 7.4-8.05 3.45-6.05 2.2zM46.8.85l-.7 1.5-3.35 5.6-1.4 1.9-.95.95-.7.95-.3.45-.6.05q-.25-.1-.15-.4.15-1.8.45-3.25l1-3.2L41.85 0h5.5zm2.65 15.75 9-2.75q10.45-3.1 15.85-5.4 1-.4 1.75-.6v5.1q-4.1 1.05-10.4 2.1-9.35 1.5-12.7 2.35l-3.6.65-.95-.25q-.3-.35.1-.75.1-.1.95-.45m-22.2 0q.85.35.95.45.45.4.15.75l-.95.25-3.6-.65q-3.4-.85-12.75-2.35L0 12.8V7.65q.95.25 2.4.8 5.4 2.3 15.85 5.4zM65.5 40.95l-.05.15h-5.7l-.5-.55-4.05-3.8-4.35-3.6q-3.55-2.8-8.1-7.2-.6-.45-.45-.9.2-.5 1.1-.3l1 .5q6.2 4.4 19.35 12.5 1.55 1.1 1.85 1.8.25.7-.1 1.4m-17.4-.9q.05.55-.3 1.05h-5.05q-.4-.55-.65-1.55l-2-6.5-1-3.15q-.3-1.5-.45-3.25-.1-.35.15-.45l.6.05.3.45.7 1 .95.9 1.4 1.95 3.35 5.6.7 1.45.8 1.2zm5.5-20.7v-.05l.5.4zm-4.15 2.5-.95-.4q-.4-.4-.1-.8l.95-.2 3.6.6 12.7 2.35q6.3 1.05 10.4 2.15v5.15l-1.75-.65q-5.4-2.3-15.85-5.45zM41.9 21q1.5.15 3.95 1.1l6.05 2.2q2.8 1.05 8.05 3.45l16.1 7.4v5.95h-1.6l-1.6-.85q-2.35-1.45-5.8-3.35l-6-3.1Q50.8 28.4 41.4 21.95q-.65-.4-.4-.8zm18.65-.55-1.7-.3-4.1-.4h-.35l-.25-.05-.15-.05-.3-.25v-.05l-.05-.1.05-.2.3-.25h.4l.3-.05h.05l4.1-.4.55-.1.35-.05.8-.15 1.15-.2 4.75-.75h.05l4.7-.2h.05l4.45-.15.3-.05h.05v5.05H76l-4.35-.15h-.45l-4.7-.25h-.05l-4.75-.7zm-37.9-1.65h.15l.3.25.05.2-.05.1v.05l-.3.25-.15.05-.25.05h-.35l-5.9.7-5.85.9-4.75.25-4.8.15-.75.1v-5.2l.75.05 4.8.2 4.75.2 5.85.95 5.9.7.35.05zm4.6 3.05-9 2.75Q7.8 27.75 2.4 30.05l-2.4.8V25.7q4.25-1.15 11.05-2.3l12.75-2.35 3.6-.6.95.2q.3.4-.15.8zm7.55-4.35-3.95-1.1-6.05-2.2q-2.75-1.05-8.05-3.45L0 3V0h6.9l2.8 1.55 6 3.1q10.25 5.45 19.6 11.9.65.4.4.75zm0 3.5.9.15q.25.4-.4.8-9.35 6.45-19.6 11.85l-6 3.1q-3.5 1.9-5.85 3.35l-1.55.85H0v-5.6q6.65-3.3 16.75-7.75 5.3-2.4 8.05-3.45l6.05-2.2q2.45-.95 3.95-1.1M11.25 40.95q-.35-.7-.15-1.4.3-.7 1.9-1.8 13.1-8.1 19.3-12.5l1-.5q.9-.2 1.1.3.2.45-.4.9l-8.1 7.2-4.4 3.6q-2.45 2.1-4 3.8l-.45.55h-5.7zm17.4-.9q.05-.55.45-1.25l.8-1.2.7-1.45 3.4-5.6q.8-1.4 1.35-1.95l.95-.9.75-1 .3-.45.6-.05q.25.1.1.45l-.4 3.25-1.05 3.15-1.95 6.5-.6 1.55h-5.1q-.35-.5-.3-1.05"/><path d="m67.45 17.15 2.5.3.85.25 1.4.95q.65.85.7 1.45.35 1.55-.6 2.65-.65.65-1.4.9l-.65 1.65q-1 1.05-2.5.9-1.35-.2-2.35-1.3l-.5-.75-.85-.5 1.35 2.55q.65 1.6.8 3.05l.25 2q.05 1.35-.55 1.95l-1 .3q-.55.05-.9-.3-.55-.5-.55-1.55l.1-1.65v-2.4l-.15.7-1.15 2.25-.45.8-1.45.95-1.7.2q-1.45-.25-2.1-1.6-.5-.8-.3-1.6-.9-.35-1.4-1.3-.7-1.2.1-2.55.55-1.25 1.9-1.7l.95-.3 1.1-.9q-2.05 1-3.65.9l-2.4-.4-.9-.35-1.3-1q-.55-.9-.65-1.6-.2-1.55.85-2.55.6-.65 1.45-.8.1-.95.8-1.6 1-1 2.5-.65 1.35.25 2.25 1.4l.5.75 1.6 1.1q-.95-3-.4-4.95.15-.65.95-2.4l.55-.75 1.25-1 1.7-.3q1.5.1 2.2 1.4.5.8.45 1.55.9.35 1.4 1.25.8 1.15.15 2.55-.6 1.3-2 1.85l-.8.35-.55.5q1.4-.65 2.6-.65m-21.5 2.55q.75.35 2.45 1.65l.8.65q.55.75.9 1.85l.05 1.9q-.5 1.8-2 2.45l-2 .2-1.55 1.45q-1.6.6-3.1-.45-1.35-.9-1.85-2.65l-.1-.95-.65-1.05.1 3.4q-.15 2.1-.7 3.75l-.85 2.2q-.65 1.45-1.6 1.8l-1.2-.15-.85-.9q-.25-.85.25-1.9l1.05-1.7.95-2 .3-.5-.65.6-2.35 1.75-.95.6-1.95.25-1.95-.7q-1.4-1-1.4-2.8 0-1.1.55-1.9-.8-.75-.85-2.05-.1-1.7 1.45-2.75 1.25-.95 2.95-.65l1.15.15 1.6-.4q-2.65-.05-4.2-.95-.7-.35-2.45-1.8l-.75-.8q-.5-.65-.8-1.8-.2-1.3.1-2.1.6-1.65 2.2-2.15L30 11.2q.6-1.05 1.7-1.35 1.6-.45 3.05.6 1.3 1 1.6 2.75l.15 1 1.15 2.1q.55-3.65 2.1-5.5l2.3-2 .95-.5q.8-.35 1.85-.4 1.3.15 2 .65 1.5.85 1.65 2.6.05 1.1-.35 1.9.75.9.8 2.05.2 1.7-1.15 2.8-1.3 1.1-3.05.9l-1.1-.05-.8.25q1.8.05 3.1.7M21.3 17.5q.7 0 2.45.55l.8.35 1.3 1.15q.55.9.55 1.55.1 1.5-.95 2.55-.65.55-1.45.7l-.8 1.55q-1.1 1-2.65.6-1.3-.3-2.2-1.55L18 24.2l-.8-.6 1.05 2.65q.45 1.7.5 3.15l-.05 2q-.1 1.35-.75 1.9l-1 .2q-.6-.05-.95-.45-.45-.6-.3-1.65l.3-1.6.2-1.85.05-.5-.25.7-1.4 2.05-.55.75-1.5.75q-1.05.25-1.7 0-1.45-.35-1.95-1.75-.35-.9-.1-1.7-.9-.35-1.25-1.4-.55-1.3.35-2.55.75-1.2 2.15-1.45l.95-.2 1.2-.75q-2.15.7-3.7.5l-2.4-.7-.85-.45-1.1-1.2q-.55-.95-.55-1.65 0-1.5 1.15-2.35.75-.65 1.55-.65.2-.95.9-1.55 1.15-.9 2.6-.4 1.3.4 2.1 1.7l.35.75 1.55 1.35q-.6-3.1.1-5.05l1.25-2.2.6-.65 1.4-.9 1.65-.1q1.5.3 2.1 1.65.4.85.25 1.6.9.5 1.25 1.35.65 1.3-.15 2.6-.7 1.2-2.15 1.65l-.85.2-.6.45zm-8.45-8.95-.2-.8V7l-.3-2.85.15-1.05.6-.6.8-.2.7.45q.3.35.25.8L14.6 6.3l-.1.6v.8l-.1.35-.25.6q-.25.4-.65.3-.4 0-.65-.4M7.2 5.1v-.4l.15-1 .45-.65.45-.35.55-.3.6-.05 1.25.15.55.4.25.35.25.8-.05.9-.2.45-.75 1.4q.8 0 1.25.7.4.75-.15 1.4-.55.7-1.4.3l-.5-.25-.95.05-.65.3q-.4.1-.7-.2-.35-.2-.35-.65.35-1.9 1.95-2.95 1.1-.55.6-1.25l-.7.15-.35.3-.3.6q-.2.45-.7.35T7.2 5.1m-1.5.25.05.1h.3q.45 0 .65.35.4.4-.05.95L5.9 7h-.05v.25l-.25.65-.65.3q-.35 0-.65-.3l-.25-.6v-.1q-.45 0-.65-.45t0-.8q.25-.4.75-.5.05-.4.35-.7l.85-.05q.25.15.35.65"/></g></svg>