<svg xmlns="http://www.w3.org/2000/svg" xmlns:ffdec="https://www.free-decompiler.com/flash" ffdec:objectType="shape" width="76.7" height="43.1"><path fill="#999" fill-rule="evenodd" d="M.5.7h75.7v41.9H.5z"/><path fill="none" stroke="#999" stroke-linecap="round" stroke-linejoin="round" d="M.5.7h75.7v41.9H.5z"/><path fill-rule="evenodd" d="M2.75 12.45.9 12.4l-.55-.35.2-.35q.15-.15.4-.15l3.7-.95 3.85-.7h.3q2.45-1.2 5.8-2l.8-.3.65-.7 1.75-2-.75-2.65q-.25-.7-.2-1.25.1-.75.8-.95Q18.3 0 18.7.7l.3 1.25.45 1.5.35 1.45-.05.8-.55.85-1.6 1.75-.85 1.1-1.15.3-3.15.85.9.1 3.7.4q1.05 0 1.35.35.35.35.15 1.45-.5 3.05-.65 5.3-.1 1.15-.5 1.5l-1.5.5q-.8.1-2.05.55l-2.05.7-.7.25-.45.65-1.5 2.7 5.2-2.95 1-.3q.7.05 1.3 1.1l1.05 1.7q.6 1.05.45 1.65l-.1.25-.35.7L14.9 32l1.8-.35 1.5.1q.45.3.55 1.7l.75 6.05 1.6-1.55 1-1.05 1.5-1.6.7-1.05.45-.15.15-.05.8.2q.3.3.15.75l-.15.3q.45 2.2 1.2 4.5l.35 1.55-.1.6-.6.55-.8-.25-.35-.7-1.25-4.45-.05-.05-.3.3-3.25 4q-.35.45-.6.25-.3-.15-.1-.55l.2-.25-.35.25-.05.8-.65.7q-.55.25-1 0-.5-.2-.8-.95l-.15-1.25-.7-6.2-2.7.6-.95.25-.9 1.1-.55.95-.25.35v3.7l-.2.75-.3.15-.3-.15q-.25-.3-.25-.85l-.05-2.6-.15-.55v-.2H9.6l-.6.05-1-.1-.5.05-1.45.05-.8-.1-3.65.2-.2-.05q-.2 0-.05-.15l.1-.1 1-.25 2-.35.25-.15 1-.05.55-.1 1.05-.2 2.4-.35h.3l.8-1.4.75-.95.5-1.3.7-1.15q1.85-3.2 3.2-4.9l-.4-.55-.75-1.45-3.35 1.75-1.6.8-5.4 2.75-.4.2-1.4.7-1.35.55-.55.1-.4-.3.35-.6q1.85-1.6 5.8-3.8l.25-.55.15-.25L8 23.85l.15-.25.95-1.85.8-1.5.2-.25q.25-.25.9-.45l.4-.2L15.8 18l.65-5-3.45-.4-3.45-.4-.9-.05-1 1L5.7 15.3l-.8.95-.45.55v.75l.15.8.3 2.1-.05.8-.7.8-.85.85-1.8 1.8q-.6.75-1.1.55-.5-.15-.4-.8l.4-.85 2.7-2.7.35-.45v-.3L3.2 17.8q-.1-.6.05-1.05l.65-.8 2.45-2.5 1.35-1.4-3 .3-.7.05-1.15.05zm24.75-6.2.1-.1 1.45-2.1 1.65-2.5q.4-.7.85-.8l.7.2.3.6-.35.75-2.7 4.35-1.2 1.45-.35.35L27 8.3l-2.5-.7q-.8-.4-1.2-.45l-1-.1-.4-.25-.15-.15-.25-.3-1.35-2.7-.1-.25-.4-.8q-.3-.5-.25-.9l.65-.7.5-.25.35-.2q.4-.05.7.35l.9 2.4.55 1.45q0 .3.15.4l.3.1.5.1 1.25.45 1.7.6.4-.05zm37.7 27.7-3.1.85-.8.3-.65.7-1.75 2 .75 2.65.2 1.25q-.1.75-.8.95-.65.05-1.05-.65l-.3-1.25-.45-1.5-.35-1.45.05-.8.55-.85 1.6-1.75.85-1.1q.35-.2 1.15-.3l3.15-.85-.9-.1-3.7-.4q-1.05 0-1.35-.35-.35-.35-.15-1.45l.65-5.3q.1-1.15.5-1.5.3-.3 1.5-.5l2.05-.55 2.05-.7.7-.25.45-.65 1.5-2.7-5.2 2.95-1 .3q-.7-.05-1.3-1.1L59 18.15q-.6-1.05-.45-1.65l.1-.25.35-.7 2.8-4.85-1.8.35-1.5-.1q-.45-.3-.55-1.7L57.2 3.2l-1.6 1.55-1 1.05-1.5 1.6-.7 1.05-.45.15-.15.05q-.45.1-.8-.2-.3-.3-.15-.75l.15-.3-1.2-4.5-.35-1.55.1-.6.6-.55q.45-.1.8.25l.35.7.6 2.05.3 1.2.35 1.2.05.05.3-.3 3.25-4q.35-.45.6-.25.3.15.1.55l-.2.25.35-.25q-.05-.5.05-.8.15-.5.65-.7.55-.25 1 0 .5.2.8.95l.15 1.25.7 6.2 2.7-.6.95-.25.9-1.1.4-.6.15-.35.25-.35V1.6l.2-.75.3-.15.3.15.25.85.05 2.4v.2l.1.35.05.2v.2h.15l.6-.05 1 .1 1.4-.05.55-.05.8.1 3-.15.65-.05.2.05q.2 0 .05.15l-.1.1-3 .6-.25.15L71 6l-1.6.3-2.4.35h-.3l-.8 1.4-.75.95-.5 1.3-.7 1.15-3.2 4.9.4.55.75 1.45 2.9-1.45 1.65-.85 5.7-2.9.5-.3.6-.3 2.15-.95.55-.1q.3 0 .4.3l-.35.6q-1.85 1.6-5.8 3.8l-.25.55-.45.75-.8 1.35-.15.25q-.65 1.05-.95 1.85l-1 1.75-1.3.65-.8.25-1.25.4-2.35.7-.65 5 3.45.4 3.45.4.9.05 1-1L71 27.4l.8-.95.45-.55v-.75l-.45-2.9.05-.8.7-.8L75.2 18q.6-.75 1.1-.55.5.15.4.8l-.4.85-2.7 2.7-.35.45v.3l.25 2.35-.05 1.05-.65.8-2.45 2.5-1.35 1.4 3-.3 1.85-.1 1.95.05q.5.1.55.35l-.2.35-.4.15-3.7.95-3.85.7h-.3l-1.9.85zM46.5 40.4l-.5.75-.85.8-.7-.2q-.3-.25-.3-.6 0-.3.35-.75l2.7-4.35 1.2-1.45.35-.35.95.15 2.5.7 1.2.45 1 .1.4.25.15.15.25.3 1.35 2.7.1.25.4.8.25.9-.65.7-.5.25-.35.2q-.4.05-.7-.35l-.9-2.4-.55-1.45-.15-.4-.3-.1-1.75-.55-1.7-.6-.4.05-.25.2-.9 1.3-.55.8z"/><path fill="#fff" fill-rule="evenodd" d="M12.35 1.7q1 .95 1 3l-.2 1.45-.5 1Q11.6 8.6 10.05 9.1q-1.8.5-3.2-.3Q6 8.3 5.4 7.3q-1.05-2.1.3-4.4l.5-.75q.85-.95 2.15-1.1l.75-.1.45-.3.6-.1.95.3zm-1.1 35.35 1.1-.2.75.05.8.05.6.15.45.2 1.1 1.1.35.55.5 1.25-.1.75q-.3.4-.65.25l-.45-.65-.3-.45-.3-.4-.6-.65-.3-.2-1.55-.2-.75.25-.6.3-.3.05V37.4zm-3.75.6.55 1.05.2.6v.3l.05.4-.05.65-.3.7q-.2.2-.55 0-.25-.15-.35-.45v-.3l-.3-1-.35-.6-.75-.75-.6.05-1.15.3-.8.4-.55.75-.55.75q-.25.35-.65.35-.35 0-.55-.3l-.2-.65q-.05-.55.45-1.45l.55-.65 3.65-.2.8.1zm-5.05-.4.55-.3 1.15-.3 1.35-.15.75.1-.55.1-1 .05-.25.15zm9-11.15.2.2q.2.25.2.95l-.05 1.45q-.15 2.5-1.8 4l-1.4.95-.8.35-1.35.1-1.25-.15q-.55-.2-1.1-.6l-.7-.65q-.65-.8-.75-2.1v-.05l1.4-.7.4-.2-.05.45-.05.3.05.25.9.85 1.2.4 1.75-.6.7-.65.65-1.5.25-1.6v-.65zm-4.55-.4q-1.45 0-2.3-.6T3.3 23v-.1l.85-.85.7-.8.05-.8-.3-2.1.85-.75q1.05-.55 2.6-.45l.9.15.85.5.9.9.3.85q-.65.2-.9.45l-.2.25-.1-.2-.3-.3q-1.25-.9-2.6-.45l-.55.25-.4.6q-.7 1.2-.65 1.9.1.75.5 1.15.5.5 1.1.4l.8-.1.45.1-.15.25zM4 12.4l.1.45v.8l-.1.1v.35l-.05.35-.25.55-.6.95q-.2.1-.25.2l-.35.25-.95.05q-.3-.1-.3-.4l.15-.35 1.15-1.15.15-.3.15-.6v-.3l.05-.2-.05-.25-.1-.3v-.15h.1zm20-7.05-.15-1 .2-.95.25-.65.25-.4.3-.35 1-.7.9-.35.35-.05q.8 0 .95.75v.4l-.45.25q-.6.15-1.1.5l-.6.6-.15.65v.55l.15.35.35.35.5.1q.6.2.7.75l.05.1-.15.1-.4.05-1.7-.6zM51.9 3.2l.35-.15.75-.5.15-.2v-.2l.05-.4.1-.25.1-.05.15-.3.2-.2h.15V.9l.35.25.05.15.1.2.05.15-.1.7v.3l-.2.45-.35.6-.8.6-.35.1h-.45zM65.3 6l-.5.2-.75.2-.9-.05-1.15-.2-.5-.25-1.05-1-.35-.5-.25-1.05V2.3l.35-.7.45-.45.65-.05.4.45-.25.7q-.15.45.15 1.1l.45.75 1.2.45.65.05.55-.15 1-.5.25-.15v1.5l-.25.35zm1.5-1.9.1.5v.05l-.1-.35zm3.3.95-.25-.15-.75-.8-.4-.8-.2-.8.15-1 .1-.3.4-.25q.35 0 .45.5v.75l.3.8.4.35 1.15.55.95.05.45-.05 1.05-.4 1.1-.6h.65l.15.05v.2l-.3.9-.6.6-.45.3-3 .15-.8-.1zM64.8 16.9l-.35-.25q-.45-.4-.55-1.45-.15-2.45 1-4.05L66.1 10q.65-.45 1.15-.65l1.7-.2q1.3 0 2.15.45l.95.7q1 1 1.2 2.25l-.6.3-.5.3-.25-.3-1-.9-.5-.35-.85-.15-1.5.2q-.95.35-1.45 1.4-.4 1.1-.2 2.05l.05.75v.2zm4.7.6q.35.2.7.55.85.85 1.1 1.5l.2.7.05 2.15q-.25 1.55-1.25 2.65-1.05 1.2-2.5 1.5l-1.2.05-1.8-.3-1.05-.8-.4-.5-.1-1 1.25-.4v.05l.15.45.3.25 2.35.3q1.25-.25 1.95-1.3l.4-.9q.4-1.25.1-1.95l-.4-.65-.55-.6-.25-.15.15-.25zM66 33.65l1.4-.1q1.7.1 2.45.65l.75.65q.95.95 1.2 1.8l.15 2L71.7 40l-.55.7q-.9 1-1.85 1.05l-.7-.15-.15-.3.1-.35.35-.15.3-.25.9-1.2.2-1.1-.2-.9q-.5-1.15-1.6-1.55l-2.25.1q-1.2.7-1.7 2.05l-.15.75.15.55.45.85.55.3q.8.4.75 1l-.5.6-1.6.05q-.8-.3-1.25-1l-.55-.9q-.6-1.6.05-3.25.65-1.55 2.1-2.6l.65-.35zm-17.8 4.2.3-.1h1.75l.6.2 1.05.5.65.5q.75.75.85 1.4v.4l-.1.2-.1.4q-.1.3-.4.1l-.25-.3-.35-.4-.35-.35q-.3-.25-1-.55l-.55-.25-.65-.1-1.6.25-.85.55-.7.1 1.15-1.75zM11.3 5.35l.15-.5-.05-.7-.1-.4-.2-.35-.05-.2q-.1-.35-.5-.35v.05h-.05l-.9.15-.95.35-.4.2-.35.4-.45 1.15-.05.25.05.4.15.3.65.7 1 .15.45-.1.4-.2.75-.55.3-.45z"/><path fill-rule="evenodd" d="M37.15 39.45h-.05l-2.2.15h-.65l-.6-.05h-.05l-2.95-.4q-1.1-.25-3.1-1.35-1.8-1-2.95-1.95l-1.1-1-.55-.6-.25-.2-1.85-2-1.25-1.7q-1.3-2.1-1.55-5.15-.15-2.1.2-5.45.65-6 2.8-9.2l1.15-1.4q2.1-2.4 4.35-3.65l3-1.4 1.6-.6q2.3-.7 4.3-.7l2.4-.1 2.1.05q1.65.1 3.9.75l1.6.6q2.25.95 3 1.4 2.25 1.25 4.35 3.65l1.15 1.4q2.15 3.2 2.8 9.2.35 3.35.2 5.45-.25 3.05-1.55 5.15l-1.25 1.7-1.85 2-.25.2-.55.6-1.1 1-2.95 1.95-3.1 1.35-2.95.4h-.05l-.6.05h-.65l-2.2-.15h-.75M32.1 8.85l-.65.3q-2.7.45-4.65 2.6l-1.65 2.45-1.1 2.25-.6 1.5-.1.5-.15 1.35q-.1 2.4.2 4.5.25 2.4 1.1 4.1l.1.25.7 1.5 1.4 2 .75.85 2.8 2.45 1.15.7 1.3.5.7.2.9.2q2.85.95 4.9.45l2.45-.65.65-.2 1.3-.5 1.15-.7 2.8-2.45.75-.85 1.4-2 .7-1.5.1-.25q.85-1.7 1.1-4.1.3-2.1.2-4.5l-.15-1.35-.1-.5-.6-1.5-1.1-2.25-1.65-2.45q-1.95-2.15-4.65-2.6l-.65-.3-4.9-.7h-.45L37 8.2v-.05q-2.9.05-4.9.7M29 27.65v-.1l-.05-.05q-.3-.95-.3-1.8l-.05-.15q-.2-1.95.5-3.85.7-1.95 2.1-3.3 1.15-1.05 2.25-1.45.85-.35 2.65-.55l.9-.05h1l.9.05 2.65.55q1.1.4 2.25 1.45 1.4 1.35 2.1 3.3.7 1.9.5 3.85l-.05.15-.3 1.8-.05.05v.1l-.4 1.55-.05.1q-.45 1.25-1.35 2.25l-.65.65q-1.2 1.1-2.7 1.6l-.45.15-1.25.25-1.15.1-.5-.05-1.65-.05-1.25-.25-.45-.15q-1.5-.5-2.7-1.6l-.65-.65q-.9-1-1.35-2.25l-.05-.1z"/><path fill="#fff" fill-rule="evenodd" d="M32.1 8.85q2-.65 4.9-.7v.05l.55-.05H38l4.9.7.65.3q2.7.45 4.65 2.6l1.65 2.45 1.1 2.25.6 1.5.1.5.15 1.35q.1 2.4-.2 4.5-.25 2.4-1.1 4.1l-.1.25-.7 1.5-1.4 2-.75.85-2.8 2.45-1.15.7-1.3.5-.65.2-2.45.65q-2.05.5-4.9-.45l-.9-.2-.7-.2-1.3-.5-1.15-.7-2.8-2.45-.75-.85-1.4-2-.7-1.5-.1-.25q-.85-1.7-1.1-4.1-.3-2.1-.2-4.5l.15-1.35.1-.5.6-1.5 1.1-2.25 1.65-2.45q1.95-2.15 4.65-2.6zm3.25 4.7q-1.8.35-3.6 1.5-2.2 1.5-3.45 3.95l-.4.95-.3.85q-.55 1.6-.5 3.3l.2 1.95q.6 3 2.85 5.9l.7.85.95.75q2.45 1.75 5.2 1.85h1q2.75-.1 5.2-1.85l.95-.75.7-.85q2.25-2.9 2.85-5.9l.2-1.95q.05-1.7-.5-3.3l-.3-.85-.4-.95q-1.25-2.45-3.45-3.95-1.8-1.15-3.6-1.5l-1.6-.15h-1.1z"/><path fill="#999" fill-rule="evenodd" d="m29 27.65.4 1.55.05.1q.45 1.25 1.35 2.25l.65.65q1.2 1.1 2.7 1.6l.45.15 1.25.25 1.65.05.5.05 1.15-.1 1.25-.25.45-.15q1.5-.5 2.7-1.6l.65-.65q.9-1 1.35-2.25l.05-.1.4-1.55v-.1l.05-.05.3-1.8.05-.15q.2-1.95-.5-3.85-.7-1.95-2.1-3.3-1.15-1.05-2.25-1.45l-2.65-.55-.9-.05h-1l-.9.05q-1.8.2-2.65.55-1.1.4-2.25 1.45-1.4 1.35-2.1 3.3-.7 1.9-.5 3.85l.05.15q0 .85.3 1.8l.05.05zm6.35-14.1 1.6-.15h1.1l1.6.15q1.8.35 3.6 1.5 2.2 1.5 3.45 3.95l.4.95.3.85q.55 1.6.5 3.3l-.2 1.95q-.6 3-2.85 5.9l-.7.85-.95.75Q40.75 35.3 38 35.4h-1q-2.75-.1-5.2-1.85l-.95-.75-.7-.85q-2.25-2.9-2.85-5.9l-.2-1.95q-.05-1.7.5-3.3l.3-.85.4-.95q1.25-2.45 3.45-3.95 1.8-1.15 3.6-1.5"/></svg>