<svg xmlns="http://www.w3.org/2000/svg" xmlns:ffdec="https://www.free-decompiler.com/flash" ffdec:objectType="shape" width="73.75" height="37.2"><g fill-rule="evenodd"><path fill="#767676" d="M65 19.1q.4-.15.75.45l.8 1.35h.2l.4.1.9.75.3.5.45 2.8v.9l-.3.8q-.35.7-1.15.7l-.6-.15-.95-.8-.5-.75-.8-1.65-.05-.75-.1-.4V22l.55-.45q.3-.05.65.25l.3 1.6h.1l-.05-.45q-.2-1.3-.95-2.8l-.2-.55zm-29.4 8.85q.35.45 1 .5.6-.05 1-.5l.25-.85.15-.9q.3-1.2 1.55-1.5-.05-1.05.75-1.8 1.1-1.05 2.5-.6 1 .35 1.65 1.45l.95 1.75q.7 2.2.05 3.85l-.65 1.1.15.05.65.45.55.55.35-.1.75-.05.75-.1.65.35.15.75-.6.95-.1.15.4.95q.25.65-.15 1l-.6.05-.55-.3-1.05-.75h-.05l-.15.55-.75.55q-.6.2-.75-.35l-.1-.4-.05-1.2-.05-.15-.8-1.05-.15-.35-2.95 1.55.15.25.15.45.15.95-.1.65-.55.9-.6.35q-.55.2-1.05 0l-.55-.3-.05.05q-.45.35-.9.3l-.4-.05-.4.05q-.45.05-.9-.3l-.05-.05-.55.3q-.55.2-1.05 0l-.6-.35-.55-.9-.15-.65.2-.95.15-.45.1-.25q-1.65-.45-2.9-1.55l-.2.35-.8 1.05-.05.15-.05 1.2-.05.4q-.15.55-.8.35l-.7-.55-.2-.55-1.05.75-.55.3-.6-.05q-.45-.35-.15-1l.4-.95-.1-.15-.6-.95q-.05-.4.15-.75.3-.3.65-.35l.75.1.7.05.4.1.55-.55q.5-.4.65-.45l.15-.05-.65-1.1q-.7-1.65.05-3.85.35-1.1 1-1.75.55-1.1 1.6-1.45 1.4-.45 2.45.6.8.75.8 1.8 1.25.3 1.55 1.5l.15.9q.05.5.25.85m26 4q-.1-.35.1-.5l.55.05.1.25.45.6.55.6.2.15q-.25-.3-.05-.75.15-.4.6-.5l1.35.3 1.3.75 1.05.9.15.9-.05.9-.55.65-1.3.1-.7-.05-.45-.2q-1.25-.45-1.9-.95l-.65-.6q-.4-.65 0-1.2l-.4-.7zm-8.65-5.75.15.2.15.25.25.3.1.1h.05l.2.05h.1l-.75-1.15-.05-.45q.05-.3.3-.3l.45.15.35.25q.85.5 1.2.95l.55 1.2.15.65-.05.8-.1.85-.45.7-.8.2-.7-.05-.6-.35-1.55-1.25-.35-.35-.3-.5-.5-1.4v-.5l.1-.55.2-.3-.55-.9-.05-.5q.15-.4.5-.45.2 0 .4.15l.4.3.75 1.2zM8.2 19.1l.25.5-.2.55q-.75 1.5-.95 2.8l-.05.45h.1l.3-1.6q.35-.3.65-.25l.55.45v.95l-.1.4-.05.75-.8 1.65-.5.75-.95.8-.6.15q-.8 0-1.15-.7-.2-.2-.3-.8v-.9q.1-1.9.45-2.8l.3-.5.9-.75.4-.1h.2l.8-1.35q.35-.6.75-.45m12.05 7.1.45-.7.75-1.2.4-.3.4-.15q.35.05.5.45l-.05.5-.55.9.2.3.1.55v.5l-.5 1.4-.3.5-.35.35-1.55 1.25-.6.35-.7.05-.8-.2-.45-.7-.1-.85-.05-.8.15-.65q.2-.7.55-1.2l1.2-.95.35-.25.45-.15.3.3-.05.45-.75 1.15h.1l.2-.05h.05l.1-.1.25-.3.15-.25zm-8.65 5.75-.35.7-.4.7q.4.55 0 1.2l-.65.6q-.65.5-1.9.95l-.45.2-.7.05-1.3-.1-.55-.65-.05-.9q0-.5.15-.9l1.05-.9 1.3-.75q.95-.45 1.35-.3l.6.5q.2.45-.05.75l.2-.15.55-.6.45-.6.1-.25.55-.05z"/><path d="M36.3 29.5q-2.7.15-5.7-1.3-4-1.9-5.25-5.05-.45-1-.5-2.3-1.55-.45-2.15-2.15-1.65 2.35-3.1 2.5-.9.05-1.7-.6-.75-.65-.85-1.6-1.65 1.1-2.55 1.3-1.65.5-2.65-.6-.7-.75-.6-1.9l.1-.7-2.05.85-3.15-.2q-1-.6-1.1-1.8t.8-1.95q-1.45-.05-2.75-.7T.95 11.55Q0 10.35 0 9.1q-.1-1.55 1.05-2.35.7-.45 1.9-.45l2.1.15q1.95.1 5.4-1.05 4.75-1.55 7.4-2.9 1.6-.85 2.45-.95 1.15-.1 2.55.75 2.45 1.6 3.9 5.55l1.05 3.3.3.85q.45-.35 1.05-.75l1.6-.95q.65-.35 1.45-.55.65-.35 1.45-.55 1-.45 1.9-.55l1.3-.05 1.3.05q.95.1 1.95.55l1.4.55 1.45.55 1.65.95 1.05.75.3-.85L47 7.85q1.45-3.95 3.85-5.55 1.45-.85 2.55-.75.9.1 2.5.95 2.65 1.35 7.4 2.9 3.4 1.15 5.35 1.05l2.1-.15q1.2 0 1.9.45 1.2.8 1.1 2.35 0 1.25-1 2.45-.85 1.1-2.15 1.75t-2.7.7q.85.75.75 1.95-.05 1.2-1.05 1.8l-3.15.2-2.05-.85.1.7q.1 1.15-.6 1.9-1.05 1.1-2.65.6-.9-.2-2.6-1.3-.05.95-.8 1.6-.8.65-1.75.6-1.45-.15-3.05-2.5-.6 1.7-2.2 2.15-.05 1.3-.45 2.3-1.25 3.15-5.25 5.05-3.05 1.45-5.75 1.3l-.55-.05zm5.6-11.95q-.1 1.4 1.05 2.35 1.05.95 2.5.7 1.85-.25 2.5-2.05.25-.8.1-1.65-.15-.8-.65-1.35l-.7.15-1.85.45-1.85.6-.7.15-.3.1zm-7.55 6.6L36 27.1q.25.3.8.3h.2l.8-.3 1.65-2.95q1.05-1.4 1-2.05v-.45l.2-.7q.4-1.25-1.45-2l-2.3-.4-2.3.4q-1.85.75-1.45 2l.2.7v.45q-.05.65 1 2.05m-2-6 .1-.95-.45-.15L28.6 16l-1.55-.65q-.65.6-.75 1.6l-.05.45q0 1.7 1.35 2.55 1.35.9 2.85.35 1.5-.6 1.9-2.15"/><path fill="#fff" d="M41.9 17.55 42 17l.3-.1.7-.15 1.85-.6 1.85-.45.7-.15q.5.55.65 1.35.15.85-.1 1.65-.65 1.8-2.5 2.05-1.45.25-2.5-.7-1.15-.95-1.05-2.35m-9.55.6q-.4 1.55-1.9 2.15-1.5.55-2.85-.35-1.35-.85-1.35-2.55l.05-.45q.1-1 .75-1.6l1.55.65 3.4 1.05.45.15z"/><path fill="#767676" d="M35.6 7.8h-2.5l-.55-.05q-.4-.2-.6-.8l-.6-1.35-1.05-1.65-.35-.85-.2-.35q-.35-.55 0-1.15.5-.6 1.1-.35l.1.05h.1q.45.05 1.15.6l.95.35.25.1 2.45-2 .4-.25.5-.1.5.1.4.25 2.45 2 .25-.1.95-.35q.7-.55 1.15-.6h.1l.1-.05q.6-.25 1.1.35.35.6 0 1.15l-.2.35-.35.85-1.05 1.65-.6 1.35q-.2.6-.6.8l-.55.05h-2.5l-1.15-.15zm-1.25 16.35q-1.05-1.4-1-2.05v-.45l-.2-.7q-.4-1.25 1.45-2l2.3-.4 2.3.4q1.85.75 1.45 2l-.2.7v.45q.05.65-1 2.05L37.8 27.1l-.8.3h-.2q-.55 0-.8-.3z"/></g></svg>