<svg xmlns="http://www.w3.org/2000/svg" xmlns:ffdec="https://www.free-decompiler.com/flash" ffdec:objectType="shape" width="73.5" height="35.65"><g fill-rule="evenodd"><path fill="#999" d="m64.8 6.45.1.4q.35 1.3-.4 2.05l-1.2.75-1.8.45-.5.05q-1.1 0-1.75-.9-.55-.65-.55-1.45-.05-.65.35-1.3l.3-.4q.25-.25.85-.55l2.4-.3 1.25.3zM56.3 14q-.65-.4-.4-1.1.2-.65 1.2-.85l3.9-.5 1.7-.05 3.95.1 2.65.3q1.2.2 1.65.55.95.65.5 1.5-.2.55-1 .65l-1.25-.05-4.85-.5-7.15.1zm-3.6 5.75q.2-.65 1.15-.95l1.8-.15 2.65-.3L65.6 17l1.55-.2q.95 0 1.4.6.65.8.1 1.6-.35.65-1.3.85l-1.65.2-1.9.3-1.35.05-4.15.4-4.2.3-.95-.15q-.7-.45-.45-1.2M45.4 30.6l-2.35.35-1.05-.1-.7-.35q-1-.65-1.15-1.6l.1-1.1.45-3.35.35-1.35.25-.4.15-1.1.3-1-.1-.2q-.65-1.25-.75-3.3l.05-.95q.3-.95 1.35-1.6.85-.5 1.8-.55 1.05-.05 1.8.45 1.1.65 1.6 2.25.35.95.15 1.75l-1.1 2.15-.45 1.75.05.1.75 1.4.05 4-.05.8-.25.55zm12.15-5.3 1.1.25.75.45q.25.2.85.4l2.55.45q4.15.3 6.3-.85 1.4-.8 1.75-.9 1.25-.3 1.7.55.4.65-.05 1.35l-1.05.95q-.95.65-2.7 1.3l-1.25.4-1.55.1-5.85-.45-2.3-.85q-1.1-.7-1.5-1.9-.1-.8.2-1.1zM40.2 4.25l.1.4q.15.35-.2.6h-.65l-.3-.25-1.1-.2-.15.1h-.75l-.05-.05-.75.15q-.85.1-1.35-.35-.65-.5-.65-1.2-.1-1.05.9-1.65.9-.55 2.45-.3l.9.25.75.65.7.75.2.8zm-25.8 7.5q-1.2-.4-1.35-1.7-.15-1 .65-1.95.7-.75 1.75-1.25 3.25-1.45 7.65-.5 1.95.4 2.9 1.05 1.7 1.1 3.3 4.65l1.35 3.45q.55 2.2.15 3.7l-.45 1q-.35.45-.85.45l.05.05q.45.75.25 2.75-.15 1.2-.15 2.45 0 1.4-.3 1.95-.5 1-2.1 1.45-1.8.5-2.35 1.05l-.95.9q-.6.5-1.45.35-1.15-.15-1.8-1.45-.35-.75-.55-2.35-.4-2.5.2-3.7l-.8.05q-.9-.1-1.45-.6l.35 6.05-.05 1.8q-.15 1.05-.8 1.6-.85.7-1.95.45-1.05-.2-1.65-1.15-.45-.7-.65-2.05-.7-3.85-1.3-11.65-.2-2.8.2-4.1.15-.7.55-1.25.85-1.1 2.15-1l.95.25-.25-.3zm11.2 1.65-.5.15h.7zm-1.75.45-.75.05-.7.15q-.75.45-.65 2.1l.35 4.2q.15 1.3-.1 2.1l1.3-.25.4-.15.1-.35-.3-3.2-1-.35q-.45-.4-.55-.95-.25-.95.45-2.05.65-.9 1.55-1.3zM6.2 22.55H7l.8.15.6.1q.65.15.95.75.2.45.05 1l-.5.95-.4.4-.65.4-.85.35-2.05.4-1.05-.15q-.65-.2-1.1-.8-.4-.6-.4-1.3 0-.65.45-1.25l.25-.25q-.45-.45-.55-1.3 0-.6.3-1.7l1.65-4.65.3-.75.4-.65 1.3-1.65q.9-.85 1.9-.45.75.25 1.1 1.05.2.75-.1 1.55l-3.85 7.5-.15.35z"/><path d="M66.15 32.9q-5.1 1.1-9.75-1.15-1.4-.6-1.65-1.6-.1-.4.1-1.2.3-1.6.2-3.45l.05-1.3-1.7-.45q-.5-.15-.85-.45-.6-.6-.6-2.05l-.05-2-.05-1-.45-1q-.05-.6.45-1.1.25-.2 1.05-.55l1.9-.45-.2-2.7v-.8l-.05-.35-.15-.45q-.05-.5.25-1l.1-.05.1-.35.05-.05q-.3-.6-.3-1.2l.35-2.2q.2-1.2 1.25-2.5Q57.35 1.85 59 .9q1.9-1.05 3.75-.85.55.05 1.55.45 1.4.55 2.1 1.2 1 .95 1.3 2.05l.1 1q.2 2.25-.55 3.4l-.2.3 3.35.25q1.8.2 2.25.95.3.5.3 1.35.1 3.05-.65 5.3-.2.8-.7 1.05l-1.55-.15h-.35l.15 3.05v.1q1.95.35 2.85 1.9.45.8.65 2.65l.15 2.15q.1 1.6-.5 2.65l-1.25 1.4-1.2.8-1.25.35-1.3.2zm-6.8-24.55 2.35-.25 1.7.1 1.5-.55.65-.55q.25-.35.05-1.3-.2-1.3-.65-1.85-.45-.65-1.45-1l-1.3-.3q-1.4-.05-2.9 1.45-.8.7-1.1 1.4l-.4 1.95-.05 1.15zM56.9 14.7l5.55-.8 5.55.2q.85.2 1.15.5l.3.5.55-.1.2-.3q.55-1.65.25-3.3l-6-.6q-1.85-.1-3.3.05l-1.9.3-1.95.1-.35.05-.05.1-.1 2.05v.3l.05.25v.3l-.05.45zm8.2 5.95q1.45-.25 2.3-.7l-.15-2.85-.1-.35-.2-.1q-2.05-.55-5.85.05-4.8.7-7.1 1.35l-.35.2-.1.45.1 1.6.4.85.7.4 4.8.2zM42.8 9.5l1.8.05v-1l-.2-.15h-.9l-2.15.35.1.85zm7.05 12.75.3 2.65.05 4.7q0 1.6-.4 2.25l-1.4 1.1q-2.8 1.4-5.1 1.6-3 .15-5.15-1.35-1.15-.85-1.45-1.8-.3-.7-.2-2.65l.35-4q.3-2.6 1.15-3.55l.3-.5-.3-.35q-1.9-1.5-1.9-4.2 0-2.35 1.65-4.4l1.05-1.1-.05-.15-.15-1.15-.05-1.95q.15-.55.75-1l1.2-.4.85-.2 1.55-.2h1.6l.9.3q.5.15.85.4l.55.75-.15 1.6-.05.6-.15.65.95.35q1.55.7 2.15 1.85.35.65.45 2.2.3 4.2-1.1 5.95.75 1 .95 2m-7.2-9.65-1.35.3q-.6.25-.95.75-.85.95-.95 2.45l.05.7.5.8.65.65.6.9 2.75.05 2.6.25.1-.3.8-2.25-.2-2-.3-1.35-.6-.45q-1.2-.6-3.7-.5m2.15 7.95-1.95.1-1.25.15-.2.9 1.35-.05 1.75-.1 1.75-.1-.05-.95H46zm26.1 7.55.2-.95q0-1.55-.4-3.25l-1.2.85q-2.35 1.4-6.8 1.3l-2.4-.2-1.15-.25-1.2-.15-.2 3.7q4.15 1.7 6.65 1.3l1.85-.45 1.8-.4.75-.05.7-.15.9-.6zm-30.3-4.9q-.25.5-.35 1.7l-.4 4.55.1.8.9.55 2.25.4q1.45 0 4.15-1.35l-.15-5.55-.1-1.25h-.8l-2.95.15-.8.05-.75-.1h-1.05zm25.85.75q1.85-.1 3.05-.9l-1.65-.35-4.2 1zM32.2 30.5q-4.8 2.5-7.35 3.4l-2.85 1-1.05.4-1.05.3-2.75-.05-2.85-.5Q9.9 34 8.9 30.95q-.25-.75-.35-2.25l-.6-.05-2.15.3q-1.4.15-2.7-.5Q1.75 27.8 1 26.6q-1.25-1.85-.9-4.9.7-5.85 6.45-11.1l.75-.7Q7.85 8.2 9 6.65q1.6-2.25 4-3.7Q17.55.25 23.5.8q2.2.15 3.8.9 1.2.55 2.6 1.8 1.55 1.4 2.5 2.75 1.95 2.9 2.3 8.55.5 5.45.1 11.65-.2 2-.75 2.75zM29.15 8.2 27.2 6.25q-.95-.85-1.5-1.05l-1.2-.35q-4.15-.65-7.55.8-3.7 1.45-5.4 4.65 1.25-.45 3 0 1.4.35 2.1 1.1l.55 1 .25.65v.7l.15.7.95 7.7 2.8-.25.05-.6-.6.15-1.25-.25q-.55-.35-.75-1t.05-1.25.75-.9l1.25-.2.4.15-.05-.3-.2-2.5.1-1q.3-.75 1.7-1.05l3.8-.9 1.65-.05q.5.2.65.75l.05.05q.35.45.35 1.35l-.15 1.4.45 3.4.1.25h.25l.85-.25.45-.05v-.8q-.6-.05-1.05-.5-.45-.5-.35-1.15.1-.9.95-1.15l.25-.05-.15-1.3-.5-3.15q-.45-1.65-1.25-2.8m-8.8 22.75 3.3-1.05 6.45-2.7.75-.55.2-.9.2-3.5-2.1.5-.7.05q-.7-.1-1-.6l-.3-1.65-.1-.85q-.4-2.6-.2-4.7l-2.1.55-1.1.25.35 3v3l-.15 1.6q-.45 1-2.25 1.5l-1.65.4-.5-.05-.05.6.2 3.6.05 1.75zm-12.6-16.5L7.4 14l-.55.65q-2.8 3.75-3.3 6.85l.75-1.55L6.2 17l1.7-1.7zM7 19.05l-.45.8-.95 2.1-.05.15h.05l.35-.1 1.55-.65.65-.3-.15-3.4zm5.3 8.5q.2 1.9.8 2.6.65.7 2.2.9l2.4.15.7.1-.05-.3-.15-.7-.45-4.15-.25-1.1-.7-.35q-.4-.35-.6-1.45-.7-4.65-.65-8.85l.1-.9v-.05l-.7-.4-1.1-.4-1.25.15-.65.35-.35.3-.65.75zm-7.35-2.6 2-.25 1.4-.1-.05-.9-.8.25-.1.05-.5.1-.8.05-.65-.1L5 24l-.2.9z"/></g></svg>