<svg xmlns="http://www.w3.org/2000/svg" xmlns:ffdec="https://www.free-decompiler.com/flash" ffdec:objectType="shape" width="78.7" height="43.35"><g fill-rule="evenodd"><path fill="#999" d="M46.45 5.9q.4-.75 1.25-.75t1.25.75q.3.65 0 1.85-.3 1.95-.75 2.85l-.3.35q-.4.2-.85-.25-.5-.5-.7-1.7l-.1-2.1zm.3 7.95q-.1 1.3-1.25 1.95l-1.3.3.25.55q.6 1.25.45 2.35l-.4.85-1.65.15-1.2-1.25-2.3-3.1-1.55-2.15-.9-1-1.4-1.9q-.5-.8-1.2-1.25-.75-.45-2.65.3-.2-.35.2-1Q32.2 8 33.6 7.5l2.15.05 1.75 1.2 1.85 1.4-.3-.4q-1.4-2-3.1-3.15-2.05-1.4-4.1-1.3-2.1.1-4.8 2.55T23.1 12.1l-1.9 2.6q-.6.85-1.05.4-.5-.5.2-1.65l2.4-4q2.1-3.6 3.5-5.15 2.45-2.65 5.15-3.25Q35.15.1 39 2.65q2.9 1.95 5.3 5.85l1.85 3.35q.65 1.2.6 2M6.1 20.8l-.05-.35-.55-.55-.25-.3-.6-.85q-.25-.5-.15-1.05.2-.55.65-.85l.5-.2 1.85-.45.65-.45q1.3-.75 2.75-.7l.7.05.4-.25 1.3-.4q.8.1 1.05.8v.65l-.25 1.85-.05.35.05.2v.5l.2-.15.1-.05q0-.4.15-.85l.25-.55q.5-.85 1.45-1.2l1.95.05.7.35q1.4.9 1.3 2.45L19.75 20l-.15.4-.4.4-1.7.95-.7.1-1.45-.05h-.1l-.85.45-.6.35-.75.3-.25.15.05.25.05.95.05 1.35-.1.75-.2 2.6q.55.25.7.65l2.75-.05h7l5.8-.05h7.4l.45-.05h1.05l3.1-.05h33.65v-.05h1.9l.3.05h.2l.05.05.15.05.15.05.15.05.1.05.1.05.1.05.05.1.1.05.05.05.1.05.05.05.05.05.05.1.15.15v.05l.05.05v.1l.05.05.05.05v.05l.05.05v.05l.05.1v.1l.05.05v.05l.05.05v.95l-.05.05v.05l-.05.1v.1l-.05.05v.05l-.05.05v.1l-.05.05-.05.05v.05l-.05.05v.1l-.05.05-.05.05-.05.05-.1.1-.05.1-.1.05-.05.05-.1.05-.05.05-.1.05-.1.1-.1.05-.15.05-.15.05-.15.05h-.05l-.1.05h-.1l.15.45.1 1.05v2.2l-.25 1.45.05.05v.7l-.05.05v.2l-.05.05v.05l-.05.05v.05l-.05.1-.05.05v.05l-.05.05-.05.05v.05l-.05.1-.2.2-.1.05-.05.1-.1.05-.05.05-.1.05-.1.05-.15.05-.15.1h-.15l-.1.05h-.1l-.05.05h-4.1l-1.05.05h-2.7l-1.8.05H9.45l-.35.75-1.2.85-1.45.05-1.2-.8-.4-.9H4.8l-.65.2-1.2-.2-.95-.8q-.35-.65-.35-2.2V34.3l.15-1.5-.1-.05-.05-.05-.05-.05-.05-.1-.05-.05-.05-.05-.05-.05-.05-.05v-.05l-.05-.1v-.05l-.05-.05v-.05L1.2 32v-.7l.05-.05v-.1l.05-.05v-.05l.05-.05v-.05l.05-.05.05-.1.25-.25.1-.1.1-.05.05-.05.1-.05.1-.05.15-.05.15-.1h.15l.1-.05h.05l.1-.05h.2l.25-.05h.35l.2-.05H4l.1-.05h.2l.1-.05q.25-.5.7-.7l-.65-.05-.95-.5-.4-.45-.95-1.45q-1 .35-1.75-.45-.7-.85-.2-1.8t1.6-.85l.85.3.95.65.85 1.6q.25.9.65 1.1h.85l-.3-.2q-.4-.25-.45-.7-.1-.7.3-1.35l.4-.5 1.3-1.5.25-.25.15-.25h.05l-.2-.1Q6.5 21.7 6.1 20.8m33.4-3.05.35.05q.25.25 0 .45l-.25.4-2.6 2.5-.65.85-.65 1.1q-.25.6-.85.8l-1.2.1q-.65-.1-1-.7-.45-.5-.4-1.15 0-.65.5-1.45L34 19.05l.75-.5 1.9-1 .95-.2.9.15h.6zm-25.55.65q-.05-.6-.65-1.05l-.5-.15-.6.85-1.3.95.25.5.7.6 2.1-1.25h.1zM7.4 20.9q.65.5 1.55.25.85-.3 1-1.15l.1-.7-.6.05-1-.35-.5-.15-.55-.4-.5.7q-.25.75.15 1.35zm2.95 7.15h-.6l-.8-.05-.45-.1-.3.8-.2.8v.2h1.1l.45-.05H10l.45-.05h.1l.15-1.6z"/><path fill="#fff" d="m7.4 20.9-.35-.4q-.4-.6-.15-1.35l.5-.7.55.4.5.15 1 .35.6-.05-.1.7q-.15.85-1 1.15-.9.25-1.55-.25m6.55-2.5.1.45h-.1l-2.1 1.25-.7-.6-.25-.5 1.3-.95.6-.85.5.15q.6.45.65 1.05"/><path d="M40.25 24.6q0-1.8.25-3.1.35-1.65 1.45-3.55l.75-1.1-.7-.55-2.45-2.65-1-.9-.95.75-1.5.2q-.8-.15-1.35-.75-.5-.55-.55-1.4-.05-.8.3-1.5l.4-.6 2.55-2.4L39.3 5.5q1.35-.85 2.7 0 .6.4.9 1.1t.15 1.35l-.85 1.5-.2.25.75 1.45 2.25 3.1q1.55-1.4 3.4-2.3l.7-.3-.2-.35q-.7-1.5-.3-3.95.35-2.15 1.35-3.8 1.15-1.85 2.8-2.7 1.2-.6 2.95-.8l3.15.3 2 1.05Q63.1 3 64.1 5.25q1.15 2.5.3 4.95l-1.25 2.35-.6.95L65 15.7q1.65 1.7 2.25 3.05l.2-.05.95-.4 1.75.05h.3l1.95.45q1.55.6 2.6 2.15.7 1 1.4 3.05l.35 1.5q.05 1.2-.65 2.4l-.1.25q-.45 1.5-2 2.95-1.8 1.7-3.6 1.85l-1.7-.05h-2.25l-1-.3q-2.05 3-5.2 4.3-1.65.65-3.8.8l.8 4.35v.1h-24.2l.1-.4q.4-1.15 1.55-2.9 1.9-3 3.15-4.25 1.7-1.7 4.65-3.3-1.2-1.4-1.65-2.6-.6-1.55-.6-4.1m23.9 5.05.1-.5q-.9-.6-1.35-1.7l-.4-1.55-.1-.65q-.5-.25-1.1-.35-1.8-.2-2.7 1l-.45.8q-.7 1.7-.15 3l.35.6q.7 1 1.9 1.4l2.35-.2q1.05-.6 1.55-1.85m-9.3 2.4q.85-.25.85-1.45l-.2-1.75V27.5l.95-1.3.35-.75q0-.7-.55-1l-1.15-.05-.7.45-.5.4-.6.6-3.4.65-.45.2q-.7.35-.7 1.1l.05.4q.15.65.9.8l2.35-.05h.6l.25.55.55 1.7q.55 1.05 1.4.85m.55-15.4-.25-.3-.5.2-1.85.6-2.5-.05-.8-.15-.75-.35-.25.8.3.1 1.7.55 1.6 1 .9.75q.85.85 1.15 1.9 1.35-.75 1.6-2.25l.05-.7q.1-1.2-.4-2.1"/><path fill="#fff" d="M55.4 16.65q.5.9.4 2.1l-.05.7q-.25 1.5-1.6 2.25-.3-1.05-1.15-1.9l-.9-.75-1.6-1-1.7-.55-.3-.1.25-.8.75.35.8.15 2.5.05 1.85-.6.5-.2zm-.55 15.4q-.85.2-1.4-.85l-.55-1.7-.25-.55h-.6L49.7 29q-.75-.15-.9-.8l-.05-.4q0-.75.7-1.1l.45-.2 3.4-.65.6-.6.5-.4.7-.45 1.15.05q.55.3.55 1l-.35.75-.95 1.3v1.35l.2 1.75q0 1.2-.85 1.45m9.3-2.4q-.5 1.25-1.55 1.85l-2.35.2q-1.2-.4-1.9-1.4l-.35-.6q-.55-1.3.15-3l.45-.8q.9-1.2 2.7-1 .6.1 1.1.35l.1.65.4 1.55q.45 1.1 1.35 1.7z"/></g></svg>