<svg xmlns="http://www.w3.org/2000/svg" xmlns:ffdec="https://www.free-decompiler.com/flash" ffdec:objectType="shape" width="71.75" height="38.7"><g fill-rule="evenodd"><path fill="#999" d="m70.45 21.2-.95.45H69q-.2-.15-.1-.7.5-1.25.35-1.9l-.2-.6q-.1-.45.1-.9.15-.4.55-.6.95-.5 1.65.3.65.65.25 2.2l-.5 1.15zM59 33.05l.7-.4.65-.45.4-.5.45-.4q.7.35.85 1l-.1.9-.4 1.1-.4.65-.7.6-1 .05q-.55-.2-.8-.65t-.15-1 .5-.9M.6 30.9q.45-.35 1.25-.55l1.4-.15.85-.15 2.6-.1 2.05.15q1.3.45 1.6 1.6.2.6-.05 1.2l-.75.9-.85.3-3.75.6-1.55-.2-1.5-.3q-.8-.2-1.15-.55-.65-.5-.75-1.35 0-.85.6-1.4m9.5 5.5q-.2-.45 0-1.5.3-1.05.85-1.3l.75-.3 1.15-.6 3.05-.85q2.1-.25 3.95.55.7-.95 1.95-.95l1.75.3q1.6.45 1.95.9.75.85.2 2.05-.55.9-1.7 1.25l-1.8.05-1 1.05q-.65.5-2.25 1l-4.3.65-2.55-.55-1.15-.8zm19.9-.65q-.4 0-.7-.35-.25-.3-.05-.75.15-.35.65-.45l.05-.05q.45.1.7.5l.1.3-.05.25-.3.4zm9.6-2.4q.35.35.35.85l-.25.85q-.4.65-1.4.85l-1.7.05-1.55-.45q-.45-.45-.35-1.2 0-.4.25-.75.3-.3 1.2-.5l1.85-.1q1.05-.1 1.6.4"/><path d="M56.7 23.75q-1.4 1.3-3.4 1.95l3.3.8q1.95.35 3.2-.05l.55-.4.05-.65q0-.65.35-1.3-.75-.5-.95-1.1-.2-.5 0-1.3t.5-1.1q.35-.45 1.15-.55.65 0 1.25.35l.6.6.25.55 1.95.2q1.25.65 1.5 2.1.1.9-.2 1.75l.75 1.6.35.55.7 1.5 1.7 4.4q.4.95.15 1.5-.35.45-.85.45l-.8-.4q-2.2-1.5-3.2-2.4l-.8-.7-.95-.65-.55-.55-.65-.4-.55-.5-.1-.15-2.4.6q-3.35.5-7.25-.85-2.05-.75-3.2-1.6l-1.6-1.75-1.4-.25-.2-.05q.65 1.35.95 3.1l.15 1.3q-.05 1.05-.5 1.85l-.05.55-.7 1.25q-.55.5-1.25.6-1.5.25-2.5-1.1-.85-1.25-.35-2.75l.8-1.3-.05-.2-.5-1.2-1.5-2-.4-.6-2.45-.85-3-.15-2.55.25-.95.25q.55 1.2.75 2.5.25 1.65-.4 2.65l-1 .95-3.85 2.5-1 .45q-1 .25-1.7-.5l-.65-.75q-.25-.6 0-1.35.35-1 1.4-1.9.75-.6 1.7-1.05l.9-.65-.55-1.25q-2.3.85-3.85.95-2.75.2-4.35-1.5l-3.75 1.3-3.05-.05-1.6-.45q-.6-.4-.95-1.35Q8.3 23.2 9 20.9q.35-1.4 1.35-1.8l1.1-.1 1.25.35q.9.55 1 1.8 0 .95-.5 2.05.95.15 2.4-.5l1.6-.7v-.55q.15-1.85 1.15-3.55l-.6-3.1-.7-3.5q-.8-2.65-2.65-4.6-1.4-1.5-1.6-2-.35-.75-.25-1.85.2-1.15.7-1.75.6-.75 1.65-1l2 .05q1.75.55 2.95 2.55.85 1.35 1.3 3.3l.65 3.6q.35 1.9.3 3.25l-.05 1q3.55-2.35 8.35-2.25l3.6.4q2.85.55 4.9 1.65l.05-.2Q39.6 11 41.6 8.9l1.15-1.05-1.25-1.2q-.5-.75-.2-1.55.2-.8 1.1-1.15l1.25-.15 3.85.45 1.7.55.75.45.2.15 1.15.25 2.9 1.25 1.25.7.5-.4 1.5-.75 1.4-.4q.85 0 1.3.55.55.8-.05 2.25l-.35 1.1-.65 1.25.5 1.3q.8 2.35.2 5.5-.75 3.6-3.1 5.75m-1.45-8.8.1.4 3.15.05.3.15.15-1.05q-.05-.65-.5-1.1-.95-.95-2.15-.35-.55.25-.8.8-.3.55-.25 1.1m2.15 4.2q.25-.35.1-.85l-.55-.55-.85.05q-2.25.15-3.75-1.4l-.85-.7q-.4-.2-1.05 0l-.95.4-3 .2-1.05-.35-.7-.5q-.4-.35-.8-.25-.55.1-.55.6l.35.5 1.45 1.1v.65l.25.5q.35.45.9.15l.4-.7h.6q2.2.1 3.5-.65l2.3 1.7.35.2v.05l.15.65.35.15.45.05.55-.3.25-.2h.65q1.15 0 1.5-.5M43.85 11.9l.05.95.15-.05 1.3-.05q1.65 0 2.1.5l.05.05.1-.2q.3-.65.1-1.3-.15-.65-.7-1.05-.55-.45-1.25-.45-.65 0-1.2.45t-.7 1.15m22.8 18.05-.3-.7-.75-1.45-.1-.25-1.5 1.3.65.65.9.65 1.6 1.4zm-58.9 6.3-.9.4-.85.05h-.8l-.4-.15q-.4.7-1.3.8-1.15.1-1.6-.95-.25-.55-.1-1.2.2-.6.7-.9l.15-.1v-1.1l-.35-.45q-.3-.55-.25-1.2.05-.6.5-1.05.4-.5 1.05-.65l1.2.2.65.5.75-.1 1.3.25.8.3.85.85q.8-.65 1.85-1.1 2.85-1.35 4.65-.9l1.35.55q1.2.7 1.6 1.65l.25.8.1.55.45-.05 1.45.15.55.4.15.7-.05.75 2.05.3 1.7.1 1.2.75-.45.25-.45.25-.85.1-1.25-.05-1.95-.2-1-.3-.6-.3-.15-.6v-.65h-.9l-1.2 1.45-1.25.6q-2.25.75-4.3.45l-1.45-.25-1-.3-.85-.6-.1-.1-.4-.25z"/><path fill="#fff" d="M43.85 11.9q.15-.7.7-1.15t1.2-.45q.7 0 1.25.45.55.4.7 1.05.2.65-.1 1.3l-.1.2-.05-.05q-.45-.5-2.1-.5l-1.3.05-.15.05zm13.55 7.25q-.35.5-1.5.5h-.65l-.25.2-.55.3-.45-.05-.35-.15-.15-.65v-.05l-.35-.2-2.3-1.7q-1.3.75-3.5.65h-.6l-.4.7q-.55.3-.9-.15l-.25-.5v-.65l-1.45-1.1-.35-.5q0-.5.55-.6.4-.1.8.25l.7.5 1.05.35 3-.2.95-.4q.65-.2 1.05 0l.85.7q1.5 1.55 3.75 1.4l.85-.05.55.55q.15.5-.1.85m-2.15-4.2q-.05-.55.25-1.1.25-.55.8-.8 1.2-.6 2.15.35.45.45.5 1.1l-.15 1.05-.3-.15-3.15-.05z"/></g></svg>