<svg xmlns="http://www.w3.org/2000/svg" xmlns:ffdec="https://www.free-decompiler.com/flash" ffdec:objectType="shape" width="76.85" height="40.85"><g fill-rule="evenodd"><path fill="#999" d="m17.25 37.05 1.5 1 2.05 1.8.55 1h-6.2L12.4 38.7q-2.2-1.9-3.05-3.7-.55-1.05-.9-2.9Q6.9 24.35 10 14.8q2.05-6.25 5.3-10.1 2.65-3.2 5.95-4.7h6.1l-.05.25q-.15.55-1.35 1-5.1 2-8.4 7.55-2.5 4.25-3.8 10.85-.8 4-.8 6.85 0 2.25.45 4.4.4 1.8 1 2.7l1.7 2zm8.9 2.75q-3.3-1.65-4.9-3.55-.95-1.1-2.1-3.25-1.65-3-2.05-5.1-.4-2-.1-6.05.4-4.3 1-6.35.65-2.45 2.3-5.4 2.35-4.05 5.05-6.45Q27.5 1.8 30.5.4l1-.4H42l.4.05q1.95.35 5 1.45 2.35.8 3.5 1.6l2.55 2.65q2.15 2.7 3.1 4.55 1.8 3.3 2.3 8.05.65 7.15-1.95 13.2-1.2 2.8-2.65 4.4-3.3 3.75-9.75 4.9H28.55zM15.7.45 14.4 1.6q-2.55 1.85-3.8 3.65-1.15 1.6-2.05 4.1Q5.1 18.3 5.2 30.3q0 4.35 1.5 6.35l1.6 1.85q.95 1.25.7 2.3v.05H3.35Q1.2 38.7.5 35.3q-.6-2.6-.5-6.7.2-9.8 2.55-16.4-.85-.2-1.3-.9Q.6 10.45.7 9.15q.1-1.9 2.1-5.1l.8-1.2Q4.3 2 6.3.6l.95-.6h3.45l.05.1.1-.1h5.1zm48.15 39.6q.1-.85 1.4-2.7 4-5.55 4-14.6 0-4.5-1-9.1-.6-2.85-1.6-4.95-1.35-2.95-4.85-6.85Q60.85.8 60.75 0h4.9l.25.25.15-.25h3.8l.75.95q1.25 1.75 2.15 3.8 3.45 7.3 4 15.35.55 8.25-2.05 15.65-1 2.7-1.95 4.25l-.55.85h-8.3q-.1-.4-.05-.8m-3.6-26.75L59 9.3q-.85-2.15-2.1-3.55t-3.75-3l-2.1-1.7q-.4-.55-.5-1.05h6.5l1.5 1.45 3 3.7q2.4 3.8 3.25 11.4.95 7.9-.25 12.85-.85 3.8-3.05 7.15-1.6 2.45-3.65 4.3H53.2l.95-1.1q3-2.7 4.5-4.95 2.9-4.35 3.05-10.55.1-4.3-1.45-10.95M47.4 7.55l-2.25-1q-5.3-1.7-9.7-1.55l-2.15.25q-1.45.3-2.65 1.05-1.3.75-2.8 2.65-1.4 1.8-2.75 4.9-.8 1.7-1.15 3.2-.4 1.7-.5 4.45-.1 3.7.2 5.2.6 3 2.85 5.3 2.25 2.35 5.2 3.05l3.1.4q4.6.35 7.8.05 4.65-.45 7.1-2.65 1.95-1.75 3.05-5.4 1.55-5.45.4-10.9-.3-1.65-.95-3-.55-1.2-2.5-3.65zm-3.55 11.8q-.05-2.05-1.2-3.2-.8-.7-2.1-1.05l-2.85-.45q-2.55-.1-4.65 1.05-2.3 1.35-3.05 3.5l-.6 1.35q-.5.65-1.25.5-.6-.1-.65-.95-.15-.4.15-1.2.85-2.8 2.75-4.9l1.85-1.8 2.1-1.55q1.8-.9 4.75-.7 3.75.3 6.5 2.05 3.15 2.15 3.7 5.55.2 1.25.05 2.8-.15 2.3-1.05 3.75-.65 1.15-2.25 2.55l.7 1.35-.25 1.45-1 1.05-1.65.2-1.65-.05-1.85-.1-1.1.1-1-.15q-.75-.2-1.2-.9-.45-.65-.5-1.45 0-.5.25-1.15l.4-1.1.95-2.7.45-1.2q.8-1.4 2.2-1.35.8.1 1.6.75l.5.65.45-.55q.5-.8.5-2.15"/><path d="m62.45 24.7.85.6 1.6-3.65q.6-1.95.9-5.5.2-2.35 0-3.95-.45-4.1-3.35-7.85-1-1.2-.5-1.85.4-.45 1.05-.3.4.05 1 .45 2.3 1.5 3.15 2.5Q68.75 7.1 69.4 11q1.1 5.8.6 10.25-.45 4.45-2.45 7.75l.35.4q1.15 1.45 1.35 2.3.15.95-.3 1.65l-1.35 1-5.25 2.25-2.3.85q-1.4.25-2.3-.55-.6-.6-.7-1.6l.15-1.75 1.05-6 .3-2.05q.35-1.2 1.25-1.55l1.4.05zM28.8 10.55q-.7.95-1.7 3.35l-1.3 3.85q-.7 2.8-.65 6.2-.05 2.15.45 3.65 1.2 3.55 5.15 5.55 2.9 1.45 7.4 1.7 5.7.25 8.7-1.95 2.4-1.7 3.6-4.95.95-2.65 1.15-6.3.25-5.95-1.8-9.3-.85-1.35-2.4-2.8-1.25-1.2-2.55-1.85-.95-.45-2.4-.8-3.3-.8-5.2-.6-1.45.1-3.45.9-3.35 1.3-5 3.35m20.85-4.2q2.6 2.3 3.95 5.1 2.65 5.35 1.3 14.25l-.7 3.05q-.9 2.95-3.75 6-1.7 1.85-3.3 2.6-1.3.7-3.3 1.05-3 .45-7.95 0l-5-.7q-2.2-.65-3.95-1.85-3.7-2.35-5.2-5.75-.95-2.2-1.2-5.35-.35-6.25 2.25-11.8l2-3.45q1-1.8 2.2-3.05 2.9-3 7.25-3.9 3.75-.8 8.35.15 2.1.45 3.5 1.1 1.75.8 3.55 2.55M28.9 16.1l.2-.2.1-.15.1-.05.2-.1.15-.05q.1-.1.15-.05l.05-.05H30l.15-.05h.2l.1-.05h.05l.1.05.1.05h.15l.05.05h.15l.1.1h.1l.1.1h.05l.1.1.1.05.05.05.05.05h.05l.1.1.05.05h.05l.1.1h.05l.1.05.05.05.05.05v.05l.1.05.05.05.05.05h.05l.1.05.05.1h.05l.1.05.15.15.1.05.1.1h.05l.1.1.1.05.1.05v.05l.1.05.1.05.05.05.05.05.1.05H34l.05.1h.05l.1.05.05.05.05.05.1.05.15.15.1.05.1.1h.05l.1.1.1.05.1.1.1.05.15.15.1.05h.05l.05.05.05.05.1.05v.05l.1.05.05.05.05.05.1.05.05.05.05.05h.05l.1.1h.05l.05.05.05.05.1.05v.05l.1.05.1.05.1.1h.05l.1.1.1.05.15.15.1.05h.05l.05.1.1.05.6-9.15q.1-1.1.3-1.4.25-.45.75-.75.55-.3 1.1-.25 1.2.15 1.5 1.4l.1 1.3-.45 11.4-.25 1.6-1.1.95H40l-.15.1h-.1l-.15.05-.15.05h-.2l-.1.1-.05-.05h-.4l-.05-.05-.1-.05-.05.05-.1-.1h-.2l-.05-.1h-.05l-.1-.05v-.05h-.1l-.05-.05-.05-.05h-.05l-.1-.1h-.05l-.05-.05-.1-.15h-.05l-.05-.05-.05-.05-.1-.05v-.05l-.1-.05-.05-.05-.1-.05-.1-.05-.1-.1-.1-.05-.15-.15-.1-.05-.1-.1h-.05l-.1-.1-.1-.05-.05-.05-.05-.05-.1-.05-.05-.05-.05-.1v-.05l-.1-.05h-.05l-.05-.1h-.05l-.05-.1-.05-.05-.05-.05-.1-.05-.05-.05-.05-.05-.05-.05-.1-.05-.1-.1h-.05l-.1-.1-.1-.05-.1-.1-.1-.05-.05-.05-.05-.05-.05-.05-.1-.05h-.05l-.05-.05-.05-.05-.1-.05V22l-.1-.05-.05-.05-.05-.05-.1-.05-.05-.05-.05-.05h-.05l-.1-.1h-.05l-.05-.05-.05-.05-.1-.05-.1-.1H33l-.1-.1-.05-.05h-.05l-.1-.1-.1-.05-.15-.15-.1-.05-.1-.1h-.05l-.1-.05-.05-.1H32l-.1-.05-.05-.05-.05-.05-.05-.05-.1-.05v-.05l-.1-.05h-.05l-.05-.1h-.05l-.1-.05-.1-.1-.1-.05-.15-.15-.1-.05-.1-.1h-.05l-.1-.05-.05-.1h-.05l-.1-.05v-.05l-.1-.05-.05-.05-.05-.05h-.05l-.1-.1H30l-.05-.05-.05-.05-.1-.05-.05-.05-.05-.05-.1-.05v-.05l-.1-.05-.05-.05-.1-.05-.1-.05-.15-.15-.1-.05-.05-.05v-.1l-.1-.05-.05-.1-.05-.05.05-.1-.1-.1-.05-.1v-.15l-.05-.1.05-.1-.1-.1v-.15l.05-.1-.05-.2.05-.1.05-.15.05-.15.1-.15.15-.2zM14.95 15l-.85-.6q-1.15 2.25-1.6 3.65-.6 1.95-.9 5.5-.2 2.35 0 3.95.45 4.1 3.35 7.85 1 1.2.5 1.85-.4.45-1.05.3l-1-.45q-2.3-1.5-3.15-2.5Q8.65 32.6 8 28.7q-1.1-5.8-.6-10.25.45-4.45 2.45-7.75l-.35-.4Q8.35 8.85 8.15 8q-.15-.95.3-1.65l1.35-1q1.75-.85 5.25-2.25 1.5-.7 2.3-.85 1.4-.25 2.3.55.6.6.7 1.6l-.15 1.75-1.05 6-.3 2.05q-.35 1.2-1.25 1.55l-1.4-.05z"/></g></svg>