<svg xmlns="http://www.w3.org/2000/svg" xmlns:ffdec="https://www.free-decompiler.com/flash" ffdec:objectType="shape" width="75.2" height="40.95"><g fill-rule="evenodd"><path fill="#999" d="M3.45.1h.15l.2.05.15.1.05.1.05.1V.8L4 .9v.2l-.05.1v3.7L4 5v1.05l.05.1v.2l.05.1v.2l.05.1v.75l.05.1v.1l.05.1v.7l.05.15.05.1v.2l.05.1.05.1v.1l.05.1v.2l.05.1v1.15l.05.1v.4l.05.1v.3l.05.15v.8l.05.1v2.3l-.05.1v.3l-.1.1-.05.1-.05.1-.05.1-.1.1-.1.1-.15.1-.15.1H3.9l-.15.05-.3.05-.25-.05-.2-.05-.2-.1-.15-.1-.1-.15-.05-.1-.15-.1v-.1l-.1-.1v-.3l-.05-.1v-2.5l.05-.1v-.7l.05-.1v-.4l.05-.15v-1.2l.05-.1V9.5l.05-.1v-.1l.05-.1v-.1l.05-.1v-.1l.05-.1v-.2l.05-.1.05-.1v-.65l.05-.1v-.1l.05-.1v-.8l.05-.1V6.4l.05-.1v-.9l.05-.1v-.45l.05-.1v-4l-.05-.1.05-.1v-.1l.05-.1.1-.1.1-.1h.2zm9.35.05.2.05.15.1.05.1.05.1v.1l.05.1v.85l.05.1.05.1v.1l.05.1.05.1V3l.05.1v.2l.05.1v.1l.05.1V4l.05.1v.35l.05.1v.3l.05.1.05.1v.2l.05.1.05.1V6.7l.05.1v3.3l.05.1v1.45l-.05.1v.2l-.05.1v.1l-.05.1-.05.15-.05.1-.05.1-.1.1-.1.1-.15.1-.15.1-.15.05-.3.05-.4-.05-.2-.1-.15-.15-.1-.1-.1-.1-.05-.1-.05-.1-.05-.1-.05-.1v-.1l-.05-.1v-.1l-.05-.1v-1.65l.05-.1v-3.3l.05-.1V5.4l.05-.1.05-.1V5l.05-.15.05-.1v-.3l.05-.1v-.3l.05-.1v-.4l.05-.1v-.1l.05-.15v-.1l.05-.1V2l.05-.1.05-.1v-.15l.05-.1.05-.1v-.8l.05-.1v-.1l.05-.1.1-.1.15-.1zM23.7.3l.2.05.2.1.05.1.1.15v.2l.05.1v.2l.05.1v.1l.05.1.05.1V2l.05.1v.25l.05.1v.3l.05.1v.1l.05.1v.6l.05.1V4l.05.1v.2l.05.1v.7l.05.1v.25l.05.1V8.1l-.05.1-.05.1v.1l-.1.1-.05.15-.1.1-.1.1-.1.1-.25.1-.15.05-.25.05-.4-.1-.25-.1-.15-.1-.1-.1-.1-.1-.05-.1-.1-.1v-.1l-.05-.1-.05-.1v-2.7l.05-.1v-.2l.05-.1V4.3l.05-.1V4l.05-.1v-.2l.05-.1V3l.05-.1v-.1l.05-.15v-.3l.05-.1v-.2l.05-.1v-.4l.05-.1v-.1l.05-.1V1l.05-.1.05-.1V.7l.05-.1.1-.1.1-.1.15-.05h.2zM34.85.15l.2.05.1.1.1.1v.2l.05.1v.4l-.05.15v.7l.05.1v.4l.05.1V3l.05.1v.7l.05.1v.2l.05.1v.65l.05.1v.1l.05.1v.4l.05.1v.2l.05.15v.4l.05.1v.4l.05.1v1.45l-.05.1-.05.1-.05.1-.05.1-.1.1-.1.1-.15.15-.15.1-.1.05-.15.05-.25-.1-.2-.1-.1-.1-.15-.1-.1-.1-.1-.1v-.1l-.05-.1-.05-.1V6.95l.05-.1V6.4l.05-.1v-.4l.05-.1v-.2l.05-.1v-.4l.05-.1v-.15l.05-.1v-.6l.05-.1v-.2l.05-.1v-.2l.05-.1V2.5l.05-.1V2l.05-.1v-.65l-.05-.1v-.5l.05-.1v-.1l.05-.1.1-.1.1-.1zM53.8 0l.35.1.15.1.15.1.05.1.1.1.05.1.05.1v1.95l.05.15v.3l.05.1v.6l.05.1v.2l.05.1v.45l.1.1.05.1.05.1.05.1v.1l.05.1.05.1V7.3l.05.1.05.1v.35l.05.1v.6l.05.1v.1l-.05.1v.85l-.05.1v.3l-.05.1-.05.1v.55l-.05.1v.1l-.05.1v.3l-.05.1-.05.1v.1l-.05.1-.05.1-.05.1-.1.1-.05.1-.1.15-.15.1-.2.1-.2.05-.3.05-.25-.05-.2-.05-.2-.1-.15-.1-.1-.15-.1-.1-.1-.1-.05-.1-.05-.1v-.1l-.05-.1v-.1l-.05-.1v-.2l-.05-.1v-.2l-.05-.1v-.45l-.05-.1-.05-.1v-.1l-.05-.1V8.95l-.05-.1v-.2l.05-.1v-.9l.05-.15v-.1l.05-.1.05-.1V5.25l.05-.1.05-.1v-.1l.1-.1.05-.1.05-.1.05-.1V4.2l.05-.1v-.2l.05-.1v-.7l.05-.1v-.2l.05-.15V.7L53 .6l.05-.1.05-.1.1-.1.1-.1.2-.1.3-.05zm4.9.15.2.1.1.1.05.1.05.1v1.1l.05.15v.3l.05.1v.2l.05.1V3l.05.1v.1l.05.15V5.7l.05.1v.3l-.05.1v1.15l.05.1v.3l.05.1v2.2l-.05.1v1.45l.05.1v4.1l.05.1v.35l.05.1v.3l.05.1v.1l.05.1v.95l.05.1v.1l.05.1.05.1v.5l.05.1v.35l.05.1v.7l.05.1v.1l.05.1v.4l.05.15.05.1v.3l.05.1v.6l-.05.1v.1l-.05.1-.05.15v.1l-.1.1-.05.1-.05.1-.15.1-.15.1-.15.1-.15.05-.1.05-.1.05h-.65l-.2-.1-.25-.1-.1-.1-.15-.1-.1-.1-.1-.1-.05-.1-.05-.1-.05-.1-.05-.1v-.1l-.05-.1v-.2l-.05-.15.05-.1v-.3l.05-.1v-.3l.05-.1.05-.1v-.55l.05-.1.05-.1v-.7l.05-.1v-.4l.05-.1v-.45l.05-.1.05-.1v-.1l.05-.1v-.95l.05-.1v-.2l.05-.1v-.2l.05-.1v-.3l.05-.1v-4.15l.05-.1V10.2l-.05-.1V7.75l.05-.1V7.4l.05-.1v-1l-.05-.1v-.45l.05-.1V3.3l.05-.1V3l.05-.1v-.25l.05-.1v-.4l.05-.1v-.3l.05-.1v-.3l-.05-.1-.05-.15V.8l.1-.1V.5l.05-.1.05-.1.1-.05.05-.05h.2zm13.35 1 .15.1.05.1.05.1.05.1V3.4l.05.1v.2l.05.1v.1l.05.1v.95l.05.1V6l.05.1v.6l.05.1v.3l.05.1v.45l.05.1.05.1v.1l.05.1v.1l.05.1v.8l.05.15v.3l.05.1.05.1v.1l.05.1v.1l.05.1v.4l.05.1v.25l.05.1v3.4l.05.1v.4l-.05.1v.3l-.05.1-.05.1-.05.15-.05.1-.1.1-.15.1-.1.1-.2.1-.2.05-.25.05-.3-.05-.2-.05-.2-.1-.15-.1-.1-.1-.05-.1-.1-.1-.05-.15-.1-.1v-.3l-.05-.1v-.5l.05-.1v-3.4l.05-.1v-.35l.05-.1v-.1l.05-.1v-.3l.05-.1v-.1l.05-.1v-.1l.05-.1v-.35l.05-.1v-.7l.05-.1v-.2l.05-.1v-.1l.1-.1V7.5l.05-.1v-.6l.05-.1v-.3l.05-.1V4.95l.05-.1V4.3l.05-.1v-.5l.05-.1v-.1l.05-.1V1.45l.05-.1.1-.1.2-.05zM68.75 1l.15.1.05.1.05.1.05.1v.7l.05.1v.15l.05.1v.3l.05.1v.1l.05.1v.2l.05.1v.3l.05.1v.15l.05.1v1.85l.05.1v3.9l.05.1v.55l.05.1v.2l.05.1v3.3l.05.1v1.05l.05.1v.6l.05.1V17l.05.1v.9l.05.1v.95l.05.1V20l.05.1v.5l.05.1v.1l.05.1v.2l.05.1.05.15v.1l.05.1v.2l.05.1v.6l-.05.1v.2l-.05.1v.25l-.05.1-.05.1v.1l-.05.1-.05.1-.1.1-.05.1-.1.1-.1.1-.2.1-.2.1-.15.1h-.3l-.45-.05-.25-.1-.15-.1-.1-.1-.1-.1-.1-.1-.1-.1-.05-.1-.05-.15-.05-.1-.05-.1V23l-.05-.1v-.2l-.05-.1v-.85l.05-.1v-.2l.05-.1v-.1l.05-.1.05-.1v-.2l.05-.1v-.1l.05-.1V20l.05-.1v-.8l.05-.1v-.95l.05-.1V17l.05-.1v-.8l.05-.1v-.65l.05-.1v-1l.05-.1v-3.3l.05-.1v-.25l.05-.1v-.5l.05-.1V5.85l.05-.1V3.9l.05-.1v-.1l.05-.1v-.3l.05-.1V3l.05-.1v-.1l.05-.15v-.2l.05-.1v-.1l.05-.1v-.8l.05-.1.05-.15.1-.05h.15zm-4.9-.6.25.05.2.1.05.15.05.1.05.1.05.1.05.1v.1l.05.1v5.15l.05.1v.2l.05.1.05.1v.25l.05.1.05.1v.1l.05.1v.1l.05.1v.5l.05.1v.35l.05.1v.1l.05.1v.2l.05.1v.1l.05.1v1.35l.05.1v.1l.05.1v.4l.05.1v.25l.05.1v1.1l-.05.1v.25l-.05.1v.1l-.05.1-.05.1-.05.1-.05.1-.1.1-.1.1-.15.1-.15.1-.2.1h-.1l-.3.05-.25-.05-.25-.05-.2-.1-.15-.1-.1-.1-.1-.1-.1-.1-.05-.1-.05-.15-.05-.1v-.1l-.05-.1v-1.85l.05-.1v-.2l.05-.1v-.3l.05-.1V9.7l.05-.1v-.3l.05-.1.05-.15v-.1l.05-.1v-.5l.05-.1v-.3l.05-.1V7.5l.05-.1.05-.1v-.1l.05-.1V7l.05-.1v-.1l.05-.1.05-.1v-.1l.05-.1V2.05l-.05-.1-.05-.1-.05-.1.05-.1v-.1l-.05-.1V1.1l-.05-.1.05-.1V.8l.05-.1.1-.1.1-.1.15-.05h.15zm-.05 23.7q-.8 0-1.2-.75-.35-.6-.25-1.5l.35-1.3.5-1.15q.1-.35.35-.45l.5-.05.3.35.05.4.2.4.55 1.6q.15.85-.1 1.55-.45.9-1.25.9M49.2.4l.2.05.2.1.05.15.1.1V1l.05.1v.8l-.05.1v.2l-.05.15-.1.1v3.4l-.05.1v3.9l.05.1v1.45l.05.1v.1l.05.1v.25l.05.1v1.2l.05.15v2.05l.05.1v.9l.05.15v.5l.05.1v2.7l.05.1v.5l.05.1v.2l.05.1.05.1.05.1v.45l.05.1.05.1.05.1.05.1.05.1.05.1v.3l.05.1-.05.1v.95l-.05.1-.05.1-.05.1-.05.1-.05.1-.05.1-.15.1-.1.1-.15.15-.2.1-.15.05-.15.05h-.6l-.25-.1-.2-.1-.15-.1-.15-.1-.1-.1-.1-.1-.05-.1-.05-.1-.05-.1-.05-.1v-.1l-.05-.1v-.25l-.05-.1.05-.1v-.3l-.05-.1v-.2l.05-.1v-.2l.05-.1V22l.05-.1.05-.15.1-.1v-.1l.05-.1v-.1l.05-.1v-.3l.05-.1.05-.1v-.2l.05-.1V20l.05-.1v-2.25l.05-.1V16.5l.05-.1v-.2l.05-.1v-2.8l.05-.1v-.7l.05-.1v-.65l.05-.1v-.2l.05-.1V9.9l.05-.1V6l-.05-.15v-4l.1-.1v-.1l.05-.1V1l.05-.1V.8l.05-.1.1-.1.1-.1.15-.05h.2zm-8.85.15.35.05.2.1.1.1.1.1.05.1.05.1.05.15.05.1v.2l.05.1v.4l.05.1v6.8l-.05.1v.25l-.05.1-.05.1-.05.1-.1.1-.05.1-.15.1-.1.1-.2.05-.25.05-.35-.05-.15-.1-.15-.1-.1-.1-.05-.15-.1-.1v-.1l-.05-.1-.05-.1V1.9l.05-.1v-.25l.05-.1v-.3l.1-.1.05-.1.1-.1.1-.1.15-.1.2-.1zM0 27.45h.45l.75-.6.95-.7q1.3-.9 3.25-.45l1.35.35H7.9l1.25.4 3.2.9.55.1h7.6q.15-.4.6-.7.9-.55 2.15-.8l1.2-.05.9.25 1.25.05 1.15-.05.65-.15 1.25-.15q.75.1 1.1.6t.2 1h13l.35-.3q1.2-1 2.05-1.1l1.8.15q1 .2 1.35.65l.25.6h7.15l.5-.25 1.15-.15 3.05-.6q.95-.2 1.65.35l.45.65h1l.1-.15q.35-.3.85-.45l.95-.25 2.05-.05.5.1 1-.1q.85-.15 1.7 0l1.2.35 1.1.2.65.05.25.3h.15v13.5H0zm26.9-27 .2.1.1.1.05.1.05.1V2l.05.1v.1l.05.1v.1l.05.1v.3l.05.1v.3l.05.15v1.3l-.05.1v2l-.05.1V8.6l-.05.1v2.8l-.05.1v2.05l.05.1v.2l.05.1v.2l.05.1.05.15.05.1.05.1v.2l.05.1.05.1v.3l.05.1.05.1.05.1.1.1v.1l.05.15.05.1v1l.05.1v.45l.05.1v2.55l-.05.1v.2l-.05.1v.15l-.05.1-.05.1-.05.1-.1.1-.1.1-.1.1-.1.1-.15.1-.15.05-.1.05-.25.05-.4-.1-.2-.1-.15-.1-.1-.1-.1-.1-.1-.1-.1-.1-.05-.1-.05-.1v-.1l-.05-.1v-.2l-.05-.1v-2.7l.05-.1v-.5l.05-.15v-.9l.05-.1.05-.1v-.1l.05-.1.1-.1v-.15l.05-.1.05-.1v-.3l.05-.1.05-.1v-.1l.05-.1.05-.1.05-.1v-.1l.05-.1.05-.1v-.45l.05-.1v-1.85l-.05-.1V7.4l-.05-.1v-.4l-.05-.1V4.85l-.05-.1V3.3l.05-.1v-.3l.05-.1v-.25l.05-.1v-.2l.05-.1v-.1l.05-.1V.8l.05-.1.05-.1.1-.05.05-.05h.2zm-8.05.6.2.05.1.15.05.1.05.1v.1l.05.1.05.1v3.1l.05.1V7l.05.1v.2l.05.1v.35l.05.1V9.4l.05.1v4.95l.1.1v.1l.05.1.05.1v.3l.05.1v.2l.05.15.05.1.1.1.05.1.05.1.05.1.05.1v1.15l-.05.1-.05.1v.1l-.05.1-.05.1-.1.1-.05.1-.1.1-.15.1-.15.1-.25.1-.4.1-.4-.1-.25-.1-.15-.1-.1-.1-.15-.1-.1-.1-.05-.1-.05-.1-.05-.1-.05-.1v-.3l-.05-.1v-.45l-.05-.1.05-.1v-.2l.05-.1v-.1l.05-.1.05-.1.05-.1.05-.1.1-.1.05-.15v-.2l.05-.1v-.2l.05-.1v-.2l.05-.1.05-.1.05-.1v-.75l.05-.1v-.8l-.05-.1v-.45l.05-.1v-.5l-.05-.1V9.8l.05-.1V7.85l.05-.1V7.5l.05-.1v-.3l.05-.1V4.95l.05-.1v-2.8l.05-.1v-.4l.05-.1.05-.1.05-.1.1-.15h.2zM6.9 3.2l.2.05.1.1v.1l.05.1V4.9l.05.1v.3l.05.15V7.4l-.05.1v.7l-.05.1v.45l.05.1v1.55l.05.1v.3l.05.1v.1l.05.1v.5l.05.1v2.2l.05.1v1.25l.05.1v.1l.05.1v.4l.05.1.05.1v.1l.05.1v.75l.05.1v.2l.05.1v.6l.05.15.05.1v.7l.05.1.05.1v1.65l.05.1v.2l.05.15v.7l-.05.1v.2l-.05.1v.1l-.1.1v.1l-.1.1-.05.15-.15.1-.15.1-.15.1-.2.05-.3.05-.25-.05-.2-.05-.2-.1-.15-.1L6 23l-.1-.15-.1-.1v-.1l-.1-.1v-.3l-.05-.1v-.95l.05-.1v-1.65l.05-.1v-.2l.05-.1v-.5l.05-.1v-.2l.05-.15v-.2l.05-.1v-.4l.05-.1v-.6l.05-.1v-.25l.05-.1v-.2l.05-.1.05-.1v-.4l.05-.1v-.85l.05-.1v-.5l.05-.1v-2.6l.05-.1V11l.05-.1v-.2l.05-.1v-.1l.05-.1V7.5l-.05-.1V5.3l.05-.1V3.55l.05-.1v-.1l.1-.1zm4.6 13.75q.15-.9.4-1.2.3-.3.75-.25l.65.45.05 1.4.4 1.1q.25.85-.05 1.55-.35.85-1.2.95-1.05.15-1.65-.8-.5-.85-.05-1.9z"/><path d="M47.65 14q.1 3.15-1.15 5.45-1.1 2-3.05 3.25l.1 1.35.1.75.6.35q1.65.65 2.25 2.35l.25 1.15.15 1.7q-.15 1.6-2.25 3.5.4.6.3 1.35t-.7 1.25q-.7.55-2.5.5L41 36.9l-.15.2q-.55 1.05-1.15 1.35l-1.6.15-1-.15q-.95.8-2.55.45-1.3-.4-1.75-1.1h-.15l-1.15.3-1.4.2q-1.15 0-1.65-.35l-.75-.75-.4-.8q-.15-.8.45-1.45l-1.1-1.5-.55-1.15q-2.05.65-3.15 1.25l-1.9 1.4.75-.15 1.55-.1q.85.05 1.55.45.75.45.95 1.2.35 1.25-.65 2.15-.8.85-2.1.95l-2.45-.25q-1.15-.1-2.45-.75l-.95-.75q-.35-.45-.35-1.4 0-1.3.15-1.75.2-.5.7-1.15 1.25-1.65 3.6-2.85 1.4-.65 4.4-1.55l.6-.15.4-.8q.8-1.05 1.9-1.65l.95-.85.1-.7.3-.95q.2-.75.5-1.05l-1.3-.95q-1.4-1.25-2.1-2.9-.75-1.8-.55-3.55l.6-2.5 1-1.95.45-.6-.55-.85q-.15-.35-.15-1.25 0-1.1.15-1.65l.85-1.85.35-1 .45-1 1.15-.6q.65-.1 1.25.35l.7.9.9 1.75.7.9 6.15-.2.35-.3 2.15-2.4q.7-1.05 1.2-1.3.45-.15.9 0 .5.15.75.55l.3 1.15.45 1.6.35 1.55.1 1.15.1.8-.05.65.1.65.1.9v.25zm-4.1 2.95.75-.2.35-.7q0-.5-.75-1.15l.8-.95q.3-.95-.35-1.3l-1 .05-.75.7-.05.1-.95-.85-.65-.05q-.4.1-.5.4-.1.4.35 1l.6.8-.15.15-.95 1.2q-.3.4-.15.65l.45.25.75-.1.8-.55.35-.25.25.25zm10.3 6.45q-.7.6-1.5.55-.8 0-1.4-.6-.6-.55-.7-1.35l-1.05-.4-.95-1.05q-.15-.5-.05-1.5.1-.85.3-1.2.25-.45.65-.8 1.4-1.2 2.95-.85.8.15 1.35.75.6.55.7 1.2l1.4-.3q1.05 0 1.65.35l.8.95.15 1.3q-.15 1.3-1.5 2-1 .65-2.4.55zm-2.05-3.5.35-.35.05-.4-.1-.7q-.15-.25-.65-.35l-.85.1q-.5.2-.5.6-.05.35.3.7l.65.55.1.1zm-18.15-.55-.1-.45-.4-.3-.35.3-.05.3-.2.4-.15.65.05.45.35.55.5.55 1.2.35 1.7-.15 1.15-.75 1 .7 1 .2q.95 0 1.75-.55.8-.6 1.15-1.5l.1-.75q-.1-.5-.5-.5-.2-.05-.6.25l-.6.65q-.4.4-.8.4L39.4 20l-.8-.55-.6-.55q-.4-.3-.7-.3-.45 0-.95.6l-.85.7-.75.05-.75-.2zM54.4 20.9l.15.3.7-.2q.5-.2.95-.45l.3-.6.1-.35q-.05-.15-.35-.15l-.7.05-.9.25-.65.6zm-2.45 9.2h-.75q-.45-.1-.6-.45-.1-.25.1-.7l.25-.7v-.65q0-.45.3-1.15l.3-.6.4-.25q.3-.1.55.15l.15.4.25 2.45q.1.9-.35 1.3zM33.7 17.65l.85-.25q.4-.3.4-.75 0-.55-.85-1.4l.35-.35.55-.8q.1-.5-.2-.9-.3-.45-.8-.45-.65 0-1.45.8l-.2.25-.55-.35-.85-.3q-.55 0-.8.4-.15.4.05.85l.55.65.3.25-.55.6-.5.85q-.1.65.35.85l1.1-.2.95-.65q.85.85 1.3.9m-13.3 4.5q-.15 1.45-1.4 2l-1.4.25-1.15-.2q-.7-.35-1-1.05l-1 .05h-.9l-.7-.1-.7-.45q-.6-.6-.75-1.25l.15-1.3.05-.75.55-1 1.15-.85 1.2-.05.95-.05.95.15.55.2.85-.45 1-.55 1.45-.3.8.2 1.1.9q.4.65.2 2l-.25.8-.5.65-1.2 1zM19.3 20l.35.25.2-.15q.75-.55.8-1.25.1-.35-.15-.6h-.75l-1 .45q-.5.35-.65.85v.05q.6 0 1.2.4m-3.65 1.1.4-.65-.35-.7-.7-.2q-1-.1-1.35.35l-.2.9 1 .2 1 .15.15.1zm2.65 8.2-.1.35-.55.35-.7-.15-.35-.25-.1-.4q-.1-1.25.15-2.1l.5-1.05q.2-.65.6-.65t.5.55v.8l.2.75.1.7z"/><path fill="#fff" d="m43.55 16.95-.8-.55-.25-.25-.35.25-.8.55-.75.1-.45-.25q-.15-.25.15-.65l.95-1.2.15-.15-.6-.8q-.45-.6-.35-1 .1-.3.5-.4l.65.05.95.85.05-.1.75-.7 1-.05q.65.35.35 1.3l-.8.95q.75.65.75 1.15l-.35.7zm-9.9 2.4.35.4.75.2.75-.05.85-.7q.5-.6.95-.6.3 0 .7.3l.6.55.8.55.45.15q.4 0 .8-.4l.6-.65q.4-.3.6-.25.4 0 .5.5l-.1.75q-.35.9-1.15 1.5-.8.55-1.75.55l-1-.2-1-.7-1.15.75-1.7.15-1.2-.35-.5-.55-.35-.55-.05-.45.15-.65.2-.4.05-.3.35-.3.4.3zm.05-1.7q-.45-.05-1.3-.9l-.95.65-1.1.2q-.45-.2-.35-.85l.5-.85.55-.6-.3-.25-.55-.65q-.2-.45-.05-.85.25-.4.8-.4l.85.3.55.35.2-.25q.8-.8 1.45-.8.5 0 .8.45.3.4.2.9l-.55.8-.35.35q.85.85.85 1.4 0 .45-.4.75z"/></g></svg>