<svg xmlns="http://www.w3.org/2000/svg" xmlns:ffdec="https://www.free-decompiler.com/flash" ffdec:objectType="shape" width="75.4" height="41.9"><g fill-rule="evenodd"><path fill="#999" d="m1.95 18.05 2.3-1.5.4-.3 5.1-3.4 6.6-4.3 3.8-2.5L29.2 0h1.95L20.8 7 17 9.55l-6.5 4.4-5.1 3.4-.4.3-2.3 1.5-1.45.9 1.45.9 2.3 1.5.4.3 5.1 3.4 6.5 4.4 3.8 2.55 13 8.8h-1.95l-11.7-7.85-3.8-2.5-6.6-4.3-5.1-3.4-.4-.3-2.3-1.5L2 22 .5 21l-.25-.25-.15-.15-.1-.2.05-.1-.05-.15.05-.05.05-.05L.05 20 0 19.95l.05-.15-.05-.1.1-.2.15-.15.25-.25 1.5-1zm49.9 20.05-3.35 3.8h-4.85l4.2-4.85q3.65-4.85 5.45-9.95l-2.8-1.75q-2.15-1.5-3.25-2.1l-1.9-1.1h-.05l-.8.1-.75.1H41.4l3.35 3.25q.75.75.65 1.3-.15.7-1 .7l-1.15-.25-3.25-2-3.25-2.1-1.75-1h-.4l-.75.1H31.5l3.35 3.25q.75.75.65 1.3-.15.7-1 .7l-1.15-.25L31.1 26l-.45-.15-2.55-1.55-2.5-1.6-1.45-.85h-1.8l-.65.05-.6.05h-.75l1.45 1.45.4.8-.25.35q.55.55.45 1-.1.5-.75.5l-.9-.2-2.55-1.55-2.5-1.6-2.05-1.35h-1.4l-.5.05-.45.05H9.9l2 1.95.4.8q-.1.4-.6.4l-.7-.15-1.95-1.2L7.1 22q-1.65-.85-1.9-1.45v-.65l-.05-.05v-.05l.05-.05v-.65q.25-.6 1.9-1.45l1.95-1.25L11 15.2l.7-.15q.5 0 .6.4l-.4.8-2 1.95h1.4l.45.05.5.05h1.45q.65-.55 2-1.25l2.5-1.65 2.55-1.55.9-.15q.65 0 .75.5.1.4-.4.95l.2.3-.4.8-1.55 1.5h.85l.6.05.65.1h1.7q.75-.8 2.8-1.9l3.25-2.05q2.1-1.45 3.25-2l1.15-.25q.85 0 1 .65.1.6-.65 1.35l-2.25 2.2-.3.35-.7.7h2.25l.75.05.45.05q.65-.5 1.7-1.05L40 13.95q2.1-1.45 3.25-2 .8-.35 1.15-.25.85 0 1 .65.1.6-.65 1.35l-3.35 3.25h2.35l.75.05.8.1h.15l1.8-1.1 3.25-2.05 2.3-1.5q-1.75-4.4-4.95-8.7-1.4-1.9-3.15-3.75h4.85l2.3 2.7q4.95 6.5 6.65 14.45h1v.05h1.3l2.25.05h1.15q-1.55-6.95-6.45-13.5L54.6 0h4.85l2.3 2.7q5.1 6.7 6.8 14.9h.4l.75.1.65.05h.75l.6.1.6.1h.7l.7.05.85.1h.3q-1.4-7.4-6.6-14.35L65.1 0h4.85l2.3 2.7 3.15 4.9v25.65l-3.15 4.85-3.35 3.8h-4.85l4.2-4.85q5.6-7.5 6.8-15.5l.1-.4h-.6l-.85.1-.7.1h-.7l-.6.05-.6.1h-.75l-.65.1-.75.05h-.15q-1.45 9.1-7.05 16.45l-3.35 3.8h-4.85l4.2-4.85q5.45-7.3 6.75-15.1l-.25.05h-1.2l-2.25.1-1.3.05h-.7q-1.5 8.8-6.95 15.95m.05-21.15h2.35l-.5-1.8zm2.35 5.4H51.9l2.15 2.1.5-2.15z"/><path d="M56.7 21.2h-1.2l-1 .05-.7.05H53l-1 .05-.7.05h-.55l-.95.05-1.85.05H45.6l-2.5.05-9.8.05h-5.95l-.1.15-1.4 1.35q-.55.7-1.05.7-.65 0-.9-.55-.1-.3-.05-.7l-.3.2-1.25 1.05q-.3.35-.75.4l-.9-.1q-.35-.25-.25-.95l-1.2.5-1 .2q-.65 0-.85-.4-.2-.35.35-1l2-1.8-.05-.1-.05-.1v-.1l-.05-.1-.1-.1v-.2l-.05-.1v-.35l.05-.05v-.2l.1-.1.05-.1v-.1l.05-.1.05-.1-.3-.25v-.05l-1.7-1.5q-.55-.65-.35-1 .2-.4.85-.4l1 .2 1.2.55v-.05q-.1-.7.25-.95l.9-.1q.45.05.75.4l1.25 1.05.3.2q-.05-.4.05-.7.25-.55.9-.55.5 0 1.05.7l1.4 1.35.1.15h5.95l9.8.05 2.5.05h2.35l1.85.05.95.05h.55l.7.05 1 .05h.8l.7.05 1 .05h1.2l1.3.05-.55-.45-1.2-1.2-.25-.8q.05-.5.45-.65l1.35.1 2 1.2 2 1.25 1.45.65q.8.45 1 1l.05.2h.1v.3h-.1l-.05.2-1 1-1.45.65-2 1.25-2 1.2-1.35.1q-.4-.15-.45-.65 0-.45.25-.8l1.2-1.2.55-.45z"/></g></svg>