<svg xmlns="http://www.w3.org/2000/svg" xmlns:ffdec="https://www.free-decompiler.com/flash" ffdec:objectType="shape" width="68.9" height="41.6"><g fill-rule="evenodd"><path fill="#999" d="m30.7 13.05 3.25-.1q2.95-.25 4.75-1.25 2.5-1.45 2.8-3.8.15-1.1-.25-2.3-.7-2.25-2.45-3.7-.55-.45-.35-.8.15-.4.75-.15 2.45.65 3.8 4.15.45 1.15.5 2l-.25 1.95q-.95 3.2-3.35 4.55-1.05.65-2.7 1-6.4 1.5-11.55-.25l-.5.25-2.4.9-.85-.25q-.4-.3-.4-1.15l.3-1.2.05-.7-.65-.7Q18.95 8.8 19 5.8q0-1.6.7-3 .75-1.5 2.05-2.3.85-.55 1.55-.5 1.05.2 1.05 1.05 0 .55-.6 1l-1 .65q-1.55 1-1.7 3-.05 1.7 1 3.35.75 1.2 2 2.05 1.25.9 3.55 1.45zm7.35-9h.45l.6.05q.35.2.45.85l-.05.65-.7.8-.7 1.05-1.3-.1q-.4-.35-.7-1.2l-.15-.65q0-.45.4-.75.35-.35.8-.3l.5.05zM31.9 3l.85.6.35.65q.3.8.25 1.75l.85.3q.25-.45.75-.35.3 0 .8.3l.45.9q.1.55-.15.9l-.6.55-.65.5-.3.55-.6.3-.65-.15-.6-.9-.3-.75-.45.45-.95.75q-1.05.45-1.45.8l-.3.3-.05.05q-.2.5-.75.6-.7.2-1.05-.4l-.9-1.05-1.15-.8-.4-.25-.7-.85q-.55-.6-.45-1.75 0-.85.35-1.4l.65-.75.6-.55 1.45-.2.95.2.55.45.2.2.85-.85.4-.35.65-.1 1 .1zM1.05 22.55q.4-3.4 2.4-5.8l-.3-.75-.1-.5-.2-.4-.25-.9-.05-.45-.1-.25q0-.4.15-.7l.4-.5.5-.05 1.7.05 1.15.4 1.1.35.4.25.1-.05q2-.8 4-.8 3.05 0 5.2 1.55l1.9 1.9 1.6-.05 2.25.3q.95.15 1.25.6l.2.8-.2.6-.5.45-.85.75q-.5.35-.9.65l-.6.55-.2.5q.25 2.1-.05 5.5-.35 3.4-2.9 5.35l-2.1 1.7q.9 3.5.75 5.9v.7l-.15.5v.7l-.05.2H1.9l-.6-1.15q-.85-1.9-.8-3.6.05-1.1.5-1.9l-1-5.9 1.3-1 .45-.25q-1-2.35-.7-5.25m9.1 6.35-.45-.8.4-.2 1.05.05.25.1.35.3.55-.1.3-.05.25.1.05.05-.45.6q-.65.55-1.25.5-.35-.45-.8-.5zM18 21.05q-.8.15-1.25.75-.6.8-.3 1.75l1.45.6.95.65.15.15.9-.7q.7-.85.3-1.95t-1.55-1.25zM8.45 24.4l-.25.25q-.25.45-.45 1.45l-.1.6.1.55.5 1.45.2.3.1.25.2.3.4.4.75.65q1.05.75 2.5.2l.55-.3.65-.65.6-.9.15-.3.45-1.6V27l.35-.05L16.3 26l.1-.25-.1-.4-.05.05-.65.6-.5.2-.6.05-.8-.25-.4-.4h-.05l-.2-.25-.05-.1-.05-.6.05-.15-.35-.25-.1.05-1.6.95L9.1 25l-.4-.45-.1-.3zm1.75-3.05q.1-.85-.5-1.6-.55-.75-1.4-.9-.8-.15-1.6.35-.8.45-1.05 1.25-.45 1.5.65 2.4l.25.25.85-.15 1.1-.1.9.15q.75-.6.8-1.65"/><path fill="#fff" d="m49.75 21.65.05-.75q0-.55.2-.7.3-.2.5.1l.05.4q0 .9.25 1.45l.15.45q.1.65-.4.95l-1-.1q-.5-.35-.2-.95l.3-.45zm-39.55-.3q-.05 1.05-.8 1.65l-.9-.15-1.1.1-.85.15-.25-.25q-1.1-.9-.65-2.4.25-.8 1.05-1.25.8-.5 1.6-.35.85.15 1.4.9.6.75.5 1.6M8.45 24.4l.15-.15.1.3.4.45 1.85.25 1.6-.95.1-.05.35.25-.05.15.05.6.05.1.2.25h.05l.4.4.8.25.6-.05.5-.2.65-.6.05-.05.1.4-.1.25-1.15.95-.35.05v.05l-.45 1.6-.15.3-.6.9-.65.65-.55.3q-1.45.55-2.5-.2l-.75-.65-.4-.4-.2-.3-.1-.25-.2-.3-.5-1.45-.1-.55.1-.6q.2-1 .45-1.45zM18 21.05h.65q1.15.15 1.55 1.25t-.3 1.95l-.9.7-.15-.15-.95-.65-1.45-.6q-.3-.95.3-1.75.45-.6 1.25-.75m-7.85 7.85.25.05q.45.05.8.5.6.05 1.25-.5l.45-.6-.05-.05-.25-.1-.3.05-.55.1-.35-.3-.25-.1-1.05-.05-.4.2z"/><path d="m53.65 5.9-.3.35-.35.35-.2.1-.15.2-.2.2-.25.2-.3-.2-.05-.05-.2-.05-.65-.15-.5-.25-.05-.35V5.8l.05-.3.15-.25.4-.25q.4-.15.75 0l.15.05.1-.1q.25-.25.4-.25h.5q.45.1.55.35l.1.35zm-20.9 13.35q.55-.45 1-.5.8-.15 1.35.55.55.65.4 1.45-.1.9-.85 1.4l-.45.7-.6.6-.3.05-.35-.05-.55-.15h-.9l-.8-.15-.5-.6q-.3-.65 0-1.4.25-.75.95-1.1l.7-.15.3.05v-.05z"/><path d="M61.4 20.35q.3 2.7 0 4.35-.5 2.85-2.65 5l-.4.4 1.2-.55 1.7-.8 1.6-1.05.55-.35-.05-.55q0-1.05.45-1.55.35-.55 1.2-.65.75 0 1.35.45l.5.7.15.7q.6.15 1.05.55.7.6.85 1.65.1 1.1-.4 1.85t-1.95 1.4l-3.85 1.8-2.55 1.1-2.4.55-.35.1.05.4.4 1.05L59 40.35l.15.65h-21.3q-.3-1.05-.25-2.05l.3-1.35.3-1.55v-.5l-.15-.4q-.25-.9-.8-1.45-.7-.7-1.55-.35l-.9 1.1-1.05 1.25q-.6.5-1.45.6l-1.5-.25q-.7-.4-1.05-1.15-.35-.8-.1-1.55l.15-.45-.15-.6q0-.7.75-.8.7 0 .95.6l.15 1.2q-.1.7.15.8l.35.05.65-.65.3-.9q.45-.95 1.45-1.45l2.05-.4 1.3.25 1.1.75.75.7.55 1q.6 1.55.5 3.15.6-1.4 1.9-3.55l1-1.5q-2.75-.9-4.35-2.8-2.1-2.45-2-6.5.05-2.2.8-4.2-1.05-.45-1.85-1.25-.6-.6-.9-1.45-.35-.85-.25-2.05l.2-1.55q.65-3 4.1-4.7 2.3-1.1 4-.5 1 .35 1.95 1.3.95.85 1.35 1.8l.05.2 1.05-.3 3.8-.35 3.2.5.05-.15q.6-1.9 2.5-2.9Q59 5.8 61.1 6.1q1.85.3 3.25 1.5 1.4 1.15 1.85 2.95l.2 1.8-.15 1.8q-.6 2.7-3.4 4.4l-1.55.7zM44.7 16.7l-1.25.05-.65.55q-.45-.4-1.05-.4t-1.15.45q-.5.45-.65 1.05-.25 1.05.55 1.55l1.15.45.45.5q.5.5 1 .2l.65-.65.65-.75.9-.5.3-.4.3-.55q.35-.85-.45-1.3zm4.05 7.9 1-.6 1 .6.3.1 1.1.1h.2l-1 1.05-1.3.4-1.1.1q-.7-.05-1.5-.7l-.75-.9.65.05 1.1-.1zm-3.7-3.15-.2.1q-.6.35-.75.9l.15 1.25q.2 1.05.85 2 .6.9 2.2 1.7l.9.4.5.1.95.05 1.1-.1.7-.2.65-.3 1.2-.95.65-1 .35-.95v-.05l.25-.15.25-.25.55-.95.05-.6-.75-.9-.2-.1q-.2 0-.3.2l-.05.35-.3.75-.3.2-.3.15-.85.15-1-.25-.75-.6-.4-.5-.4-.1h-.1l-.4.1-.4.5-.75.6-1 .25-.85-.15-.3-.15-.3-.2-.3-.75-.05-.35q-.1-.2-.3-.2m9.75-4.75-.75.25q-.8.45-.45 1.3l.3.55.3.4.9.5.65.75.65.65q.5.3 1-.2l.45-.5 1.15-.45q.8-.5.55-1.55-.15-.6-.65-1.05-.55-.45-1.15-.45t-1.05.4l-.65-.55z"/><path fill="#fff" d="M45.05 21.45q.2 0 .3.2l.05.35.3.75.3.2.3.15.85.15 1-.25.75-.6.4-.5.4-.1h.1l.4.1.4.5.75.6 1 .25.85-.15.3-.15.3-.2.3-.75.05-.35q.1-.2.3-.2l.2.1.75.9-.05.6-.55.95-.25.25-.25.15v.05l-.35.95-.65 1-1.2.95-.65.3-.7.2-1.1.1-.95-.05-.5-.1-.9-.4q-1.6-.8-2.2-1.7-.65-.95-.85-2l-.15-1.25q.15-.55.75-.9zm3.7 3.15-.3.1-1.1.1-.65-.05.75.9q.8.65 1.5.7l1.1-.1 1.3-.4 1-1.05h-.2l-1.1-.1-.3-.1-1-.6z"/><path fill="#999" d="m44.7 16.7.75.25q.8.45.45 1.3l-.3.55-.3.4-.9.5-.65.75-.65.65q-.5.3-1-.2l-.45-.5-1.15-.45q-.8-.5-.55-1.55.15-.6.65-1.05.55-.45 1.15-.45t1.05.4l.65-.55zm10.1 0 1.25.05.65.55q.45-.4 1.05-.4t1.15.45q.5.45.65 1.05.25 1.05-.55 1.55l-1.15.45-.45.5q-.5.5-1 .2l-.65-.65-.65-.75-.9-.5-.3-.4-.3-.55q-.35-.85.45-1.3z"/></g></svg>