<svg xmlns="http://www.w3.org/2000/svg" xmlns:ffdec="https://www.free-decompiler.com/flash" ffdec:objectType="shape" width="75.7" height="43.5"><g fill-rule="evenodd"><path fill="#717171" d="M0 17.3V1.45h38.6v14.6q2.55.15 4.6 1.1.95.45 1.7 1.1 1.05-1.35 2.35-1.95 1.6-.9 4.5-.9h.75q2.85 0 4.5.9 1.25.6 2.3 1.95l.05-.05.05.05q1.1-1.35 2.35-1.95 1.65-.9 4.55-.9h.7q2.9 0 4.5.9 1.3.6 2.3 1.95l.05-.05 1.7-1.05.15-.05v9.6l-.15-.1-1.7-1.05-.05-.05q-1 1.35-2.3 1.9-1.6.9-4.5.9h-.7q-2.9 0-4.55-.9-1.25-.55-2.35-1.9l-.05.05-.05-.05q-1.05 1.35-2.3 1.9-1.65.9-4.5.9h-.75q-2.9 0-4.5-.9-1.3-.55-2.35-1.9l-1.7 1.1q-2.05.95-4.6 1.05v15.6H0v-16.8l1.45-.9.05-.05q1.05 1.35 2.3 1.9 1.6.9 4.5.9h.75q2.9 0 4.5-.9 1.25-.55 2.35-1.9l.05.05.1-.05q1 1.35 2.25 1.9 1.65.9 4.55.9h.7q2.9 0 4.55-.9 1.25-.55 2.35-1.9l1.65 1.1q2.05.95 4.6 1.05l.95-.05-.65-.2-.3-.1q-.95-.7-.95-2 0-1.25.95-1.9l.3-.2.35-.05v-.3l.05-.1v-.05l.1-.05v-.55l.05-.05v-1.4L37 20.5l-.3-.1q-.95-.75-.95-1.95 0-1.3.95-1.95l.3-.2.65-.2-.95-.05q-2.55.15-4.6 1.1-.95.45-1.65 1.1-1.1-1.35-2.35-1.95-1.65-.9-4.55-.9h-.7q-2.9 0-4.55.9-1.25.6-2.25 1.95l-.1-.05-.05.05q-1.1-1.35-2.35-1.95-1.6-.9-4.5-.9H8.3q-2.9 0-4.5.9-1.25.6-2.3 1.95l-.05-.05zm70.3 5.75 1-1.2-1-1.15-1.25-.5-1.65-.2v.75l-.05.1v.45l.05.05v2.45l1.65-.25zm-21.85 0q.4.25 1.25.5l1.1.2v-2.2l.05-.05V20l-1.15.2-1.25.5-.95 1.15zm14.5 0 1.3.5 1.05.2v-2.2l.05-.05V20l-1.1.2-1.3.5q-.45.4-.95 1.15zm-7.15 0 .95-1.2-.95-1.15-1.25-.5-1.65-.2v.75l-.05.1v.45l.05.05v2.45l1.65-.25zm-28.95 0-1.25.5-1.1.2v-2.2l-.05-.05V20l1.15.2 1.25.5 1 1.15zm-7.35 0-.95-1.2q.5-.75.95-1.15l1.3-.5 1.6-.2v.75l.05.1v.45l-.05.05v2.45l-1.6-.25zm16.05-.15Q34 22.65 33 21.85q1.05-.85 2.65-1v1.2l-.05.05v.45l-.05.1zm4.2 0q1.6-.25 2.55-1.05-1.05-.85-2.65-1v1.2l.05.05v.45l.05.1zm-27.4.15-1.25.5-1.1.2v-2.2l-.05-.05V20l1.15.2 1.25.5.95 1.15zm-7.35 0-.95-1.2q.45-.75.95-1.15l1.25-.5L7.9 20v.75l.05.1v.45l-.05.05v2.45l-1.65-.25z"/><path fill="#fff" d="M0 26.45V17.3l1.45.9.05.05q1.05-1.35 2.3-1.95 1.6-.9 4.5-.9h.75q2.9 0 4.5.9 1.25.6 2.35 1.95l.05-.05.1.05q1-1.35 2.25-1.95 1.65-.9 4.55-.9h.7q2.9 0 4.55.9 1.25.6 2.35 1.95.7-.65 1.65-1.1 2.05-.95 4.6-1.1l.95.05-.65.2-.3.2q-.95.65-.95 1.95 0 1.2.95 1.95l.3.1.55.15v1.4l-.05.05v.55l-.1.05v.05l-.05.1v.3l-.35.05-.3.2q-.95.65-.95 1.9 0 1.3.95 2l.3.1.65.2-.95.05q-2.55-.1-4.6-1.05l-1.65-1.1q-1.1 1.35-2.35 1.9-1.65.9-4.55.9h-.7q-2.9 0-4.55-.9-1.25-.55-2.25-1.9l-.1.05-.05-.05q-1.1 1.35-2.35 1.9-1.6.9-4.5.9H8.3q-2.9 0-4.5-.9-1.25-.55-2.3-1.9l-.05.05zm26.85-3.4 1-1.2-1-1.15-1.25-.5-1.15-.2v1.5l.05.05v2.2l1.1-.2zm-7.35 0 1.3.5 1.6.25v-2.45l.05-.05v-.45l-.05-.1V20l-1.6.2-1.3.5q-.45.4-.95 1.15zm16.05-.15v-.25l.05-.1v-.45l.05-.05v-1.2q-1.6.15-2.65 1 1 .8 2.55 1.05m-23.2.15.95-1.2-.95-1.15-1.25-.5-1.15-.2v1.5l.05.05v2.2l1.1-.2zm-7.35 0 1.25.5 1.65.25v-2.45l.05-.05v-.45l-.05-.1V20l-1.65.2-1.25.5q-.5.4-.95 1.15z"/><path d="M21.95 9.15q.6.25 1.4 1.2l.6.95.1 1.1-.1 1.15q0 .4.15.5.25.15.7-.2.3-.4.6-.4l.35.25v.4l-.45.65q-1.1.9-2 .65-.65-.15-1.05-.9-.25-.55-.25-1.45l-.05-.75-.55-.55q-.35-.1-.85.3-1.7 1.2-3.3 1.05-.9-.1-1.6-.6-.8-.5-1.05-1.35-.35-.9.1-2.05l.95-1.85-1.1.4q-2.85 1.4-4.65.85l-1.7-.95-.9-.8q-.5-.6-.65-1.55-.25-.85-.15-1.75l.25-1.3.25-.7h3.8l-.05.95-.4.9q-.2.55-.1.9l.6.65.95.15 1.7-.7q1.4-.55 2.7-.35 1.45.35 2.15 1.55.6 1.05.35 2.3-.15.95-.9 2.2.75 0 2.05-.6zm31.9 12.25 1.3.2 1.3 1.05q.7.7 1.45.7-.45-2.35-.1-3.85.45-2.2 2.3-2.9l1.2-.25 2.25.1q.95.35 2.2 2.1l1.45 2.1-.2-1.1-.4-1.15q-.65-2.15.6-4.35.8-1.25 1.75-1.75 1.15-.6 2.45-.35 1.4.25 2.2 1.25l.95 1.65.7 1.5.45.85v4.5l-.45-.05Q74.1 21.6 73 20.4q-.7-.8-1.35-2.3l-1-2.05q-.4.3-.3.8l.25.85q.5 1.4.8 4.4.1 1.3-.25 1.95-.55 1-2.35 1.2-2.15.1-3.65-1.05-.8-.6-1.9-2.3L62 20q-.25-.15-.55 0l-.4.4-.2 1.15.1 1.7-.3 1.6q-.65 1.1-2.05 1.35-1.15.2-2.45-.35-1.45-.75-2.1-1.9-.6-.1-.95.45l-.45 1q-.3 1.05-.9 1.4l-1.8-.05-.9-.75q-.4-.6.1-1.05l1.35-.15q.55-1.75 1.1-2.35.9-.9 2.25-1.05m.45-12.25q.85-.25 2.1.25 1.3.6 2.05.6-.75-1.25-.9-2.2-.25-1.25.35-2.3.7-1.2 2.15-1.55 1.3-.2 2.7.35l1.7.7.95-.15.6-.65-.1-.9-.4-.9q-.35-1.15.65-1.95l2.1-.15q.9.5 1.25 1.85l.25 1.3-.15 1.75q-.15.95-.65 1.55l-.9.8-1.7.95q-1.8.55-4.65-.85l-1.1-.4.95 1.85q.45 1.15.1 2.05-.25.85-1.05 1.35-.7.5-1.6.6-1.6.15-3.3-1.05-.5-.4-.85-.3-.35.05-.55.55l-.05.75L54 14.5q-.4.75-1.05.9-.9.25-2-.65l-.45-.65v-.4q.15-.2.35-.25.3 0 .6.4.45.35.7.2l.15-.5-.1-1.15.1-1.1.6-.95q.8-.95 1.4-1.2m-4.6 7.15q.1 3.5-1.35 5.95-1.2 2.15-3.35 3.5l.05 1.5q0 .6.15.8t.65.4q1.8.75 2.45 2.65l.3 1.3.1 1.85Q48.55 36 46.25 38q.45.7.3 1.55-.1.85-.8 1.3-.8.65-2.75.45l-.85-.05-.15.25q-.6 1.1-1.25 1.4l-1.8.15-1.05-.25q-1.05.85-2.85.4-1.4-.45-1.9-1.25H33l-1.3.3-1.55.15q-1.25-.05-1.8-.45l-.8-.85q-.4-.5-.45-.9-.1-.85.55-1.6l-1.25-1.65-.6-1.3q-2.25.65-3.45 1.3l-2.1 1.45.85-.15 1.7-.05q.9.1 1.7.55.8.55 1 1.35.4 1.4-.7 2.4-.9.85-2.35.95-1.55.25-2.7-.4-1.25-.15-2.7-.9L16 41.3q-.35-.5-.35-1.55l.2-1.9q.2-.55.75-1.3 1.4-1.75 4-2.95 1.55-.7 4.9-1.6l.65-.15.45-.8q.85-1.2 2.05-1.8l1.05-.85.15-.8.3-1.05.6-1.15-1.4-1.1Q27.8 22.9 27 21.05q-.8-2-.55-3.9.1-1.1.7-2.75.6-1.5 1.05-2.1l.55-.65-.6-.95Q28 10.25 28 9.3q0-1.25.15-1.8l.95-2 .45-1.1q.2-.65.5-1.05.45-.55 1.25-.65.7-.1 1.35.4.4.35.8 1.05l.95 1.95.75 1q3.3-.7 6.8.05l.35-.35 2.45-2.6q.75-1.1 1.3-1.35l1 .05q.55.15.8.6l.35 1.3.45 1.75.4 1.75.1 1.25.1.85-.05.75.1.7.1 1-.05.25q.35 1.45.35 3.2m-6.6 2.3v-2.5l.9.2.35-.05q.6-.05.95-.7.35-.6.1-1.2l-.7-.8-1-.4-1.3-.25H42l-1.95.1q-1.15.35-2.25 1.95l-.05.1-.05-.1q-1.1-1.6-2.25-1.95l-1.95-.1h-.4l-1.3.25-1 .4-.7.8q-.25.6.1 1.2.35.65.95.7l.35.05.9-.2v2.5h-1.3q-.85.25-1 1.05-.25.8.3 1.45.6.65 2 .75l1.8.05 2-.3q.85-.3 1.55-.9l1.55.9 2 .3 1.8-.05q1.4-.1 2-.75.55-.65.3-1.45-.15-.8-1-1.05zm-7.25-.5-.5.35-1.05.3-.05-.15V16l.6.45.55.85zm3.85 0 .4-.8.55-.85.6-.45v2.75l-1.1-.3zm28.85 14 .5 1.65.5 1.6q.55.9 1.4.9l.7-.2.75-.3 2.15.15 1.15.85v4.8l-.7-.05q-.7-.15-1.65-1.4l-.3-.25-.4.1-2.4.05q-2.15-.65-3.3-2.4-1.25-1.8-.95-3.95l-.8-.15-.7.45q-1.5 1.1-3.15.55L60 33.6q-.6-.7-.65-1.5l-.5.1-.55.25-.35-.2-.1-.4.4-.7q.75-.65 1.85-.5.95.15 1.55 1.1l.35.4.45-.1.85-.8q.7-.65 1.75-.7l1.95.3q1.05.45 1.55 1.25M22.4 21.4q1.35.15 2.25 1.05.55.6 1.1 2.35l1.35.15q.5.45.1 1.05l-.9.75-1.8.05q-.6-.35-.9-1.4l-.45-1q-.35-.55-.95-.45-.65 1.15-2.1 1.9l-2.45.35q-1.4-.25-2.05-1.35-.3-.65-.3-1.6l.1-1.7-.2-1.15-.4-.4q-.3-.15-.55 0L13 21.9l-1.9 2.3q-1.5 1.15-3.65 1.05-1.8-.2-2.35-1.2-.35-.65-.25-1.95.3-3 .8-4.4l.25-.85q.1-.5-.3-.8l-1 2.05-1.35 2.3Q2.15 21.6 1 21.65l-1-.1v-3.7l.2-.2.8-1.3.7-1.5.95-1.65q.8-1 2.2-1.25 1.3-.25 2.45.35.95.5 1.75 1.75 1.25 2.2.6 4.35l-.4 1.15q-.25.65-.2 1.1l1.45-2.1q1.25-1.75 2.2-2.1l2.25-.1 1.2.25q1.85.7 2.3 2.9.35 1.5-.1 3.85.75 0 1.45-.7l1.3-1.05zM7.7 32.1q.5-.8 1.55-1.25.95-.4 1.95-.3 1.05.05 1.75.7l.85.8.45.1.35-.4q.6-.95 1.55-1.1 1.1-.15 1.85.5.4.4.4.7l-.1.4-.35.2-.55-.25-.5-.1q-.05.8-.65 1.5l-1.35.9q-1.65.55-3.15-.55l-.7-.45q-.5-.15-.8.15.3 2.15-.95 3.95Q8.15 39.35 6 40l-2.4-.05-.4-.1-.3.25q-.95 1.25-1.65 1.4-.7.2-1.25-.25V37.4l.05-.1q.75-.9 1.65-1.4l2.15-.15.75.3.7.2q.85 0 1.4-.9l.5-1.6q.2-1.15.5-1.65"/><path fill="#fff" d="m37.75 15.05-1.5 2.45-.4.6-.45-.8-.55-.85-.6-.45v2.6l.05.15-1.45-.1-.45-.05v-2.5l-.9.2-.35-.05q-.6-.05-.95-.7-.35-.6-.1-1.2l.7-.8 1-.4 1.3-.25h.4l1.95.1q1.15.35 2.25 1.95zm0 5.65.8-.85 1.15-1.75.45.35 1.1.3-.05.1v.2l.1.25q.15.4.65.55l.85-.2.25-.35.1-.25-.05-.45h1.3q.85.25 1 1.05.25.8-.3 1.45-.6.65-2 .75l-1.8.05-2-.3z"/><path fill="#717171" d="m37.75 15.05.05-.1q1.1-1.6 2.25-1.95l1.95-.1h.4l1.3.25 1 .4.7.8q.25.6-.1 1.2-.35.65-.95.7l-.35.05-.9-.2v2.5l.05.45-.1.25-.25.35-.85.2q-.5-.15-.65-.55l-.1-.25v-.2l.05-.1V16l-.6.45-.55.85-.4.8-1.15 1.75-.8.85q-.7.6-1.55.9l-2 .3-1.8-.05q-1.4-.1-2-.75-.55-.65-.3-1.45.15-.8 1-1.05h1.3l.45.05 1.45.1 1.05-.3.5-.35.4-.6z"/></g></svg>