<svg xmlns="http://www.w3.org/2000/svg" xmlns:ffdec="https://www.free-decompiler.com/flash" ffdec:objectType="shape" width="30.55" height="31.2"><g fill-rule="evenodd"><path d="M29.55 1.9q.8.6.95 2.3.15 2.7-.25 5.35-1.15 8.35-6.3 14.85-2.9 3.8-6.75 5.75l-.9.4-.3.2-1.6.45q-1.3-.15-3.1-1.35-4.25-2.85-6-4.9l-1.95-2.5-1.8-2.85Q.15 16.8 0 13.15-.1 10.9.3 6.5q.1-1.15.45-1.7.6-1 1.5-.8l1.1.3 1.45.2q1.15.1 3.55-.7Q10.7 3 12.5 1.45l1.55-1.2L15.9.1l1.15.95q.6.45 1.95.8l3.55.75 3.55-.25q1.3-.6 1.7-.65zm-14.6 24.65 1.9-1q1.35-.75 2.75-2.15 3.2-3.4 5.05-7.85 1.85-4.4 2.05-9.15-3 .6-6.05-.05-3.05-.55-5.75-2.3-2.75 2.3-5.8 3.05l-4.35.15-.6-.2h-.2L3.2 6.8q-.4 4.15.9 8.15 1.35 4.2 4.1 7.15 2.2 2.35 6.35 4.75zm9.7-17.6v1.45q-.9 4.7-2.8 8.05-2.2 4.1-4.35 5.6-2.05 1.45-2.5 1.45l-.6.05-.65-.3-2.4-1.75q-2-1.4-4.1-5.2-2-3.55-2.85-7.7-.15-1.2 0-1.7l.1-.1h.15l5.75-.2.95-.25q1.9-.65 3.4-1.6l.1 1.7.25 8.45-.4 4.65q-.1 1.55.2 2.3l.45-.4.45-2.6.75-6.35.25-4.75-.05-2.8v-.1l.15.1q.95.55 1.45.65l1.05.3 4.05.6h.5l.45.1h.1z"/><path fill="#fff" d="m24.65 8.95-.15-.35h-.1l-.45-.1h-.5l-4.05-.6-1.05-.3q-.5-.1-1.45-.65l-.15-.1v.1l.05 2.8-.25 4.75-.75 6.35-.45 2.6-.45.4q-.3-.75-.2-2.3l.4-4.65-.25-8.45-.1-1.7q-1.5.95-3.4 1.6l-.95.25-5.75.2H4.5l-.1.1q-.15.5 0 1.7.85 4.15 2.85 7.7 2.1 3.8 4.1 5.2l2.4 1.75.65.3.6-.05q.45 0 2.5-1.45 2.15-1.5 4.35-5.6 1.9-3.35 2.8-8.05zm-9.7 17.6-.4.3q-4.15-2.4-6.35-4.75-2.75-2.95-4.1-7.15-1.3-4-.9-8.15l.75.25h.2l.6.2L9.1 7.1q3.05-.75 5.8-3.05 2.7 1.75 5.75 2.3 3.05.65 6.05.05-.2 4.75-2.05 9.15Q22.8 20 19.6 23.4q-1.4 1.4-2.75 2.15z"/></g></svg>