<svg xmlns="http://www.w3.org/2000/svg" xmlns:ffdec="https://www.free-decompiler.com/flash" ffdec:objectType="shape" width="71.4" height="38.5"><g fill-rule="evenodd"><path fill="#999" d="M61.95 4.6q-3.4-1.05-6.8-1l-3.25.15h-2.35Q45 4 40.65 9q-1.15 1.3-1.6 2.3-.75 1.7-.65 3.6l.1 1.35.1.55.1.3q.3 1.05 1.15 1.9 1.25 1.35 3.95 2.25 4.35 1.55 9.1 1.4 4.7-.2 9-1.95 4.3-1.8 5.45-4.65.8-2.2-.05-4.8-.5-1.7-2.25-4.25L63.8 5.5q-.55-.4-1.85-.9m7.6 2.6L70.9 10q.6 1.9.45 4-.1 1.95-.7 3.55-1.15 2.75-4.35 4.8-4.9 3.35-12.2 3.75-6.75.5-12.3-1.65-2.25-.85-3.75-2l-.2.05-1.7.55-1.85.8q-1.25.4-1.85-.45-.4-.55-.15-1.35l.65-1.2 2.1-3.05q-.2-1.1-.25-2.6 0-2.9.7-4.8.65-1.65 2.1-3.35Q42.2 1.5 48.65.3L54.5 0l6.4.4q3.5.65 5.75 2.7 1.35 1.3 2.9 4.1m-43.6 1.75-.4.8-.6.95-.3.25-.6-.05-.2-.55-.1-.35v-.35l.15-.7.5-1.45.05-1 .15-1.4q-.05-.55.4-1.1.45-.45 1.05-.45l.1-.05q.6.05 1.05.45l.55.95-.05.65-.45.65-.35.75-.05.4-.2.3-.15.4zm-4.05.6-.25.45-.5.05-.45-.55-1-1.9-.3-.9q-.15-1 .85-1.4.95-.25 1.55.5.4.65.15 1.85l-.15 1.5zm8.9 1.25-1.1.3q-.5.1-1.15.5l-1.05.65-.8.05q-.3-.1-.3-.5l.2-.65.95-.95 1.05-.95.6-.8q.7-.8 1.6-.4.95.4.95 1.4 0 .95-.95 1.35"/><path d="m55.15 5.8 1.55-.05.6.9 1.25 2.55.4.6-.15 1.2-.9 2.8-.05.5q.9.1 1.3.55.35.45.25 1.1t-.6.95l-1.15.25-.2 1.2q-.25.65-.9.8-.75.1-1.2-.75l-.2-1.25L54 17q-.7-.35-.8-1-.15-.75.35-1.25l.4-.25-.05-.15-1-3.05-.2-.75v-.7l.2-1.05.45-.85 1.1-1.45zM50 11.2l.3 1.15.6-.05 1.1.2q.6.25.7.95.15.8-.4 1.35-.45.45-1.2.45l-.45-.05v1.15l-.55.9-.95.35q-.55 0-.95-.35-.45-.4-.55-.9l-.05-.5.05-.75-1.1-.2-.65-.6q-.25-.5 0-.9l.7-.45.9-.15.45-.05.15-1.15q.2-.7.6-.95.55-.35 1.05.15zm-25.05 8.7q-.3.35-.2.9l.45.85.9.25q.55 0 .85-.4l.4-.85-.25-.9q-.35-.35-.9-.4l-.95.15zm-5.5.25-.85.15-.25-.1-.05-.25q-.1-.4.05-.75l.1-.35-.45-.4-.55.45q-.25.3-.25 1.15v.55l-.4.45-.15.35-.25.3-.3 1.6v.4l.15.65.35.3.65.55.5.1.3.15.5.05.7-.15 1.3-.6.35-.25.85-1 .1-.25.15-.85.55-.35.55-.6.3-.5v-.45l-.4-.3q-.25 0-.5.15-.4.8-.8.85l-.65-.25-.45-.45.15-.35v-.05l-.1-.3-.5-.05-.2.05zm-8.6 4.95Q9.5 23.25 9.5 20.8q-.05-2.4 1.2-4.35l1.6-1.8q1.3-1.2 2.8-2.05-.1-.6.25-1.3.4-.55.85-.75 1.1-.5 2 .3l.25.4.5-.1q1.7-.2 3.7.85 3.55 1.85 5 4.9l.1-.05q.6 0 1.1.4.5.35.6.9l-.15 1.2-.85.8v.05l-.05.7q0 2-.7 3.2l-1.4 1.7q-1.7 1.85-3.45 2.55-1.45.65-3.45.75l-1.55.05-.05.15-.35.95q.6.5 1.5.5-.1-.45.15-.8l.35-.3.45-.1.1-.05q.35 0 .7.25h.65q.6.15 1 .6.45.55.35 1.1-.05.65-.8 1.25-1.1.75-2.5.5-1.15-.25-2.45-1.1l-.15-.15-.25.8Q15.2 36.2 14 37.85l-.6.65H4.6l-.05-.05-.15-.15-1.2-.95q-.4-.55-.65-1.75l-.2-1.5.25-1.75.05-1.5.1-.1-1.6-.5L0 29.6V19.45l1.45-.95 1.7-.15 1.7.1q.45.1 1.25.55t1.05.65l1 1.15.9 1.35.5 1.1.4 1.75.05.3.05 3.45 1.85-1.85.35-.25zm9.65-2.7.2-.2.5.2-.15.35-.6.8v.1q-.9.55-1.4.7l-1-.2q-.35-.1-.55-.35-.25-.3-.15-1.05l.1-.45.25-.5.25-.35.3.05-.05.1q-.25.2-.15.65l.05.35q.15.25.9.5l.7.15q.5 0 .6-.3zm-3.95-4.15v-.95l-.65-.8-.9-.1q-.55.1-.85.5-.35.4-.25.9 0 .45.3.8l.8.5q1.05.25 1.55-.85"/><path fill="#fff" d="m19.45 20.15.5-.35.2-.05.5.05.1.3v.05l-.15.35.45.45.65.25q.4-.05.8-.85.25-.15.5-.15l.4.3v.45l-.3.5-.55.6-.55.35-.15.85-.1.25-.85 1-.35.25-1.3.6-.7.15-.5-.05-.3-.15-.5-.1-.65-.55-.35-.3-.15-.65v-.4l.3-1.6.25-.3.15-.35.4-.45v-.55q0-.85.25-1.15l.55-.45.45.4-.1.35q-.15.35-.05.75l.05.25.25.1zm5.5-.25.3-.4.95-.15q.55.05.9.4l.25.9-.4.85q-.3.4-.85.4l-.9-.25-.45-.85q-.1-.55.2-.9m-8.4-1.65q-.5 1.1-1.55.85l-.8-.5q-.3-.35-.3-.8-.1-.5.25-.9.3-.4.85-.5l.9.1.65.8zm3.95 4.15-.2.55q-.1.3-.6.3l-.7-.15q-.75-.25-.9-.5l-.05-.35q-.1-.45.15-.65l.05-.1-.3-.05-.25.35-.25.5-.1.45q-.1.75.15 1.05.2.25.55.35l1 .2q.5-.15 1.4-.7v-.1l.6-.8.15-.35-.5-.2z"/></g></svg>