<svg xmlns="http://www.w3.org/2000/svg" xmlns:ffdec="https://www.free-decompiler.com/flash" ffdec:objectType="shape" width="76.6" height="43.15"><path fill="#999" fill-rule="evenodd" d="M26.4.7h14.4l.05.5.8 3.05.85 3 1.7 6.2-1.85.45-1.8.85-1.15-1.45-.9-1.35-1.05-1.15-6.15-7.3-.55-.55q-.45-.3-.75.1-.2.3 0 .7.4 1.3 1.4 2.8l1.85 2.5 2.7 3.75 2 3.5-.7.65Q34.8 14.55 30.8 12q-1.15-.65-1.6-1.3l-.5-.55L28 10q-.25.2-.25.65l.35.65 1.9 2.45 1.3 1.1 1.6 1.75.85.75.75.95 1 1.05q-.75 1.4-.95 2.95-.25 1.55.05 4.1l.3 1.65.85 2.35-1.95 1.35-10.2 6.65q-.4.2-.4.5.1.4.5.3l.55-.2 1.7-.5 1.6-.75 8.55-3.9 1.75-.75.95.75 1.25.75-2.9 2.9-3.85 3.75q-.5.35-.3.7l.1.1H8.3l.85-.5q.95-.55 2.45-1.15L23.95 35q.65-.2.6-.65L24.2 34h-.55l-2.6.65-6.65 2.25-6.7 1.95-2.3.6q-1.05.35-1.4.8-.65.65-.4 1.55l.05.25H.5V.7h23.55l-.15.4q-.1.55.15 1l.45.6 5.25 6.4 1.1 1q.4.4.7.2.2-.2 0-.7L29 5.4l-2.35-4.1zM42 .7h34.1v41.35H43.7l3.9-4.55.6-1.1q.2-.9-.4-1.45l2.05-.85q4.2-2 5.85-6.85l.5-1.8.2.4.75.7q.15 2.35-.75 5.05l-.95 1.8-1.2.9q-1.7 1-3.85 1.55l-.95.35q-.45.35-.6.9-.1.55.1 1.1.4 1.05 1.6 1.4l2.2.15q2.45-.15 4.4-1.25 2.15-1.2 3.25-3.15l.85-2.05.85-3.6.1-2-.05-2.9.6-.7.95-1.5.7-1.45q.35-.9.35-2.15.1-2.85-1.7-5.1-.7-.95-1.55-1.35l-2 .05q-1.15.75-.95 2.45l.8 2.6.2.65-.9-.45q-.75-.2-1.4 0-1.1.4-1.5 1.4l-.4-.95q-.65-1.45-1.6-2.45l.05-.4-.4-1.65-.3-1.05Q51.75 7.5 51 1.95L50.65 1l-.4-.2q-.3 0-.45.2l-.3 2.25q-.2 1.7 0 4.2l.4 6.2-2-.35-.35-.55-1.75-3.6-1.6-3.75-1.6-3.25zm.4 41.35h-8.75l.2-.15 9-6.4h2.25l-.25.45-1.2 2.55-.2.45-.25.3-.3.75-.65 1.65zM26.3 14q.2-.1-.1-.55l-1.05-.9-2.05-1.4q-1.45-1.2-4-2.7L15 5.95q-1.2-.8-1.8-.9-1.4-.25-2.15.9-.5.7-.35 1.6t.8 1.4l1.05.55L25.9 14z"/><path fill="#fff" fill-rule="evenodd" d="m24.05.7.35-.45 1-.25q.55.1.85.5l.15.2.25.6L29 5.4l2.55 4.2q.2.5 0 .7-.3.2-.7-.2l-1.1-1-5.25-6.4-.45-.6q-.25-.45-.15-1zM40.8.7V.45l.55-.45.6.55.05.15.6 1.45 1.6 3.25 1.6 3.75 1.75 3.6.35.55 2 .35-.4-6.2q-.2-2.5 0-4.2L49.8 1q.15-.2.45-.2l.4.2.35.95q.75 5.55 2.1 10.8l.3 1.05.4 1.65-.05.4q.95 1 1.6 2.45l.4.95q.4-1 1.5-1.4.65-.2 1.4 0l.9.45-.2-.65-.8-2.6q-.2-1.7.95-2.45l2-.05q.85.4 1.55 1.35 1.8 2.25 1.7 5.1 0 1.25-.35 2.15l-.7 1.45-.95 1.5-.6.7.05 2.9-.1 2-.85 3.6-.85 2.05q-1.1 1.95-3.25 3.15-1.95 1.1-4.4 1.25l-2.2-.15q-1.2-.35-1.6-1.4-.2-.55-.1-1.1.15-.55.6-.9l.95-.35q2.15-.55 3.85-1.55l1.2-.9.95-1.8q.9-2.7.75-5.05l-.75-.7-.2-.4-.5 1.8q-1.65 4.85-5.85 6.85l-2.05.85q.6.55.4 1.45l-.6 1.1-3.9 4.55-.65.4q-.25.05-.55-.25l-.1-.15-.15-.4.65-1.65.3-.75.25-.3.2-.45 1.2-2.55.25-.45h-2.25l-9 6.4-.2.15-.2.05-.35-.05-.1-.1q-.2-.35.3-.7l3.85-3.75 2.9-2.9-1.25-.75-.95-.75-1.75.75-8.55 3.9-1.6.75-1.7.5-.55.2q-.4.1-.5-.3 0-.3.4-.5l10.2-6.65 1.95-1.35-.85-2.35-.3-1.65q-.3-2.55-.05-4.1.2-1.55.95-2.95l-1-1.05-.75-.95-.85-.75-1.6-1.75-1.3-1.1-1.9-2.45-.35-.65q0-.45.25-.65l.7.15.5.55q.45.65 1.6 1.3 4 2.55 6.45 4.95l.7-.65-2-3.5-2.7-3.75-1.85-2.5q-1-1.5-1.4-2.8-.2-.4 0-.7.3-.4.75-.1l.55.55 6.15 7.3 1.05 1.15.9 1.35 1.15 1.45 1.8-.85 1.85-.45-1.7-6.2-.85-3-.8-3.05zM8.3 42.05 6.1 43.1l-1.45-.05q-.8-.25-1-1l-.05-.25q-.25-.9.4-1.55.35-.45 1.4-.8l2.3-.6 6.7-1.95 6.65-2.25 2.6-.65h.55l.35.35q.05.45-.6.65L11.6 40.4q-1.5.6-2.45 1.15zM26.3 14h-.4L12.55 9.5l-1.05-.55q-.65-.5-.8-1.4t.35-1.6q.75-1.15 2.15-.9.6.1 1.8.9l4.1 2.5q2.55 1.5 4 2.7l2.05 1.4 1.05.9q.3.45.1.55"/><path fill="none" stroke="#5f645e" stroke-linecap="round" stroke-linejoin="round" stroke-opacity=".498" d="M26.4.7h14.4m1.2 0h34.1v41.35H43.7m-1.3 0h-8.75m-.55 0H8.3m-4.65 0H.5V.7h23.55"/><path fill-rule="evenodd" d="M63.35 11.35q1.45 3.2.35 7.05l-.45 1.15-.9 1.4q-1.15 1.6-2.5 2.45l-1 .5.45 1.3.35 2.5q.25 3.95-.95 6.45l-1.6 2.55-1.6 1.9q-2 1.8-5.15 1.7-2.1-.1-3.95-1.05l-.05-.05-1.3.05-3.15-.55-2.35-1.85-.9-.4-.7.2q-.6.3-2.45 2.05-1.4 1.45-2.65 1.6-2 .35-3.7-1.55-.65-.7-.75-1.25v-1.25q.1-.9.3-1.25l1.2-1.45q.4-.3.5-.3.35-.1.5.15.2.25-.15.75-.7 1.1-.75 1.75-.05.6.25 1.15.3.6.85.85l.9.1 1.25-1.3q1.55-2.7 4.55-3.8l1.65-.3q1.2.05 3.15 1.45v-.4q.15-2.5 2-4.45.9-.9 2.8-1.95 2.15-1.25 2.8-1.95l.95-1.05-2-.7q-2.4-1.15-3.7-3.45l-.35-.7-1.9-.3q-.75-.15-1.35-.5l-1.1-.95Q39.6 16.4 39.4 15.5q-.2-.65 0-1.75.55-2.6 2.15-3.75l1.15-.65q.8-.3 1.45-.45l2.3.3.5.25 1-.85 2.8-1.4.55-.1.35-1.5q.65-1.5 1.9-2.4 1.4-1 3.35-1.1l1.85.15 1.45.55q1.7.8 2.5 1.85 1.7 2.15.7 5.3l-.3.85zm-15.8 7.95.55.45v-.1l.25-.5 1.1-1q.6-.45 1.3-.6l.85.05-.05-.25-.35-.85q-.6-.7-1.3-.9-1-.25-1.9.35-.65.5-.9 1.3-.15.8.15 1.55l.2.3zm14.35-6.9-.4-.95-.3.2-1.75 1.25-2.7 1.1-.05.05.55.75.65.5v-.1l.15-.3q.5-.85 1.35-1.4l.85-.35 1-.1.05-.05.6.1h.05zM29.55 32l-1.9-.05-2.45.15-5.6-.25-6.6-.65-1.85-.3-1.4-.35-4.75-.9-4.6-.9v-4.9l.75-4.65q4.35-1.25 10.75-2l11.35-1.1 8.3-.75 3.05.3 2.2.5q.85.4 1.7.95l1.85 1.5q.8.85 1.35 2.05l.6 1.5q.35 1.25-.35 3.4L40.9 28q-1.4 2.05-4.55 3.3-1.25.5-2.15.6h-2.5l-.7.05zm19.4.6.1.05.15.2.05.55.15.35.2.2.65-.1.2-.15.05-.15.05-.25.05-.15-.1-.5-.05-.15-.2-.4-.5-.8-.15-.2-.55-.3-.7-.2v.05q-.35 0-.5.15l-.2.35-.05.2.15.5.45.25.7.3zm3.65-.9-.1-.4.25-.55.2-.15.35-.45.1-.2-.25-.35-.5.2-.45.35-.05.1-.45.3-.4.4-.2.5-.2.85.1.5.1.3.35.45.1.05.2.05.7-.1.25-.25.15-.25.1-.35-.05-.15-.15-.6zm-4.05-2.15.1.25q.1.2.25.1 0 .2.15.25l.5.25 1.05-.05.5-.2.3-.25.15-.1.25-.2.05-.1.25-.3.05-.15.05-.25-.1-.3-.2-.2h-.6l-.75.7-.25.1-.95.05-.5.1zM56 19.15l.05.15.05.25v.15l.1.2.2.3.3.25.35.2.35.1.7-.05.75-.45.25-.45.05-.25.05-.15-.05-.65-.05-.2-.25-.4-.45-.4-.75-.2v.05h-.25l-.25-.4q-.3-.4-.7-.45l-.05.05q-.25 0-.45.3t-.05.5l.15.3.2.3.05.1-.2.35zM38.35 6.95l-.2.5-.1.85q.05.65.65 1.05l.5.2q1 .65.75 1.7l-.55.8q-.4.35-.9.3l-.55-.15q-1.55-.65-2.35-2.3l-.2-.6.1-1.05.3-1.3q.35-.75.8-1.05l1.4-.7.85-.1q.45.1.55.55l-.45.7zm-6.8 2-.8-.25-.45-.5q-.2-.3-.05-.65l.55-.35.65-.1q1-.15 1.65-1.05l.25-.6V4.9q.1-.8.8-1.05.7-.3 1.35.25.5.5.35 1.25l-.3.7-.6 1.1-.85 1.05-.6.4-.65.3-.8.15zm3.75 5.1-.2-.35-.4-.35-.4-.5-.7-.6-.45-.05-1.55.4-.6-.05-.8-.6q-.25-.5-.2-1 .1-.5.5-.85t.9-.4l2.5.3q.7.25 1.5.95l.4.4.25.4.45.5.3.9q0 .85-.55 1.05-.5.3-.95-.15m3.15 11.3.15-.3q.4-.55.3-1.2l-.05-.4-.3-.7-.2-.25q-.55-.65-1.45-.65-.85 0-1.5.55l-.2.25q-.45.55-.45 1.05l-.05.25.05.3q0 .3.3.8l.3.4.3.25q.3.25.65.3l.3.05q1.05.1 1.85-.7m-6.3-6.95-.35.7-.05.2-.05.4.05.3.2.65.25.45.25.2q.6.5 1.3.5.95.1 1.6-.65l.4-.65.15-.45-.1-1-.1-.25q-.4-.85-1.3-1.1-.95-.3-1.75.25zm-5.35 3.1q-.85.4-1.4 1.5-.5 1.1-.35 2.1l.2.75.65.9.6.6q.85.7 2 .8l1.6-.3q1.8-.75 2.25-2.45.4-1.7-.65-3.05l-.6-.55q-.4-.4-1.1-.65l-.8-.1q-1.45-.1-2.4.45m-9.05 14.1-.15-.35.15-.4.25-.1.65-.15.3-.05h.15l.1-.1.75-.45.15-.2.05-.15q.1-.6.65-.85l.3-.05.45.1q.6.15.6.8.1.6-.45.95l-.1.2-.35.4-.25.2-1 .5-.3.1-1.85-.3zm2 3.1-1 .25q-.8 0-1-.8l-.05-.25q0-.75.55-1.05l.85-.25 1.95.05.5.15.4.35.5.4.15.4.1.25.05.95-.15.4-.2.3-.3.2-.4-.05-.3-.3-.15-.4-.05-.2-.2-.15q-.3-.2-.7-.3zm15.4-8.25q1-.4 1.15-1.45.15-.55-.1-1.2-.15-.5-.7-.95-.4-.25-.95-.35l-.8.05-.45.2-.5.4-.45.7-.05.2q-.25.9.35 1.75.7.85 1.6.85l.55-.05zm-10 7.35-.35.2-.75.1-.2-.05-.25-.1-.65-.5-.15-.25-.2-.4-.2-.6-.05-.75.05-.25.2-.65.1-.1.05-.15q.35-.55.65-.65l.45-.05.7.2.1.35-.2.35-.15.45.1.3.25.25.35.2q.75.55.6 1.3l-.2.45z"/><path fill="#fff" fill-rule="evenodd" d="m61.9 12.4.05.7h-.05l-.6-.1-.05.05-1 .1-.85.35q-.85.55-1.35 1.4l-.15.3v.1l-.65-.5-.55-.75.05-.05 2.7-1.1 1.75-1.25.3-.2zm-14.35 6.9-.1-.2-.2-.3q-.3-.75-.15-1.55.25-.8.9-1.3.9-.6 1.9-.35.7.2 1.3.9l.35.85.05.25-.85-.05q-.7.15-1.3.6l-1.1 1-.25.5v.1zm8.45-.15.1-.5.2-.35-.05-.1-.2-.3-.15-.3q-.15-.2.05-.5t.45-.3l.05-.05q.4.05.7.45l.25.4h.25v-.05l.75.2.45.4.25.4.05.2.05.65-.05.15-.05.25-.25.45-.75.45-.7.05-.35-.1-.35-.2-.3-.25-.2-.3-.1-.2v-.15l-.05-.25zm-7.45 10.4.3-.3.5-.1.95-.05.25-.1.75-.7h.6l.2.2.1.3-.05.25-.05.15-.25.3-.05.1-.25.2-.15.1-.3.25-.5.2-1.05.05-.5-.25q-.15-.05-.15-.25-.15.1-.25-.1zm4.05 2.15.15.25.15.6.05.15-.1.35-.15.25-.25.25-.7.1-.2-.05-.1-.05-.35-.45-.1-.3-.1-.5.2-.85.2-.5.4-.4.45-.3.05-.1.45-.35.5-.2.25.35-.1.2-.35.45-.2.15-.25.55zm-3.65.9-.05-.2-.7-.3-.45-.25-.15-.5.05-.2.2-.35q.15-.15.5-.15v-.05l.7.2.55.3.15.2.5.8.2.4.05.15.1.5-.05.15-.05.25-.05.15-.2.15-.65.1-.2-.2-.15-.35-.05-.55-.15-.2zM26.8 21.5q.95-.55 2.4-.45l.8.1q.7.25 1.1.65l.6.55q1.05 1.35.65 3.05-.45 1.7-2.25 2.45l-1.6.3q-1.15-.1-2-.8l-.6-.6-.65-.9-.2-.75q-.15-1 .35-2.1.55-1.1 1.4-1.5m5.35-3.1.5-.45q.8-.55 1.75-.25.9.25 1.3 1.1l.1.25.1 1-.15.45-.4.65q-.65.75-1.6.65-.7 0-1.3-.5l-.25-.2-.25-.45-.2-.65-.05-.3.05-.4.05-.2zm6.3 6.95q-.8.8-1.85.7l-.3-.05q-.35-.05-.65-.3l-.3-.25-.3-.4q-.3-.5-.3-.8l-.05-.3.05-.25q0-.5.45-1.05l.2-.25q.65-.55 1.5-.55.9 0 1.45.65l.2.25.3.7.05.4q.1.65-.3 1.2zm-3.3 5.1-.35.15-.55.05q-.9 0-1.6-.85-.6-.85-.35-1.75l.05-.2.45-.7.5-.4.45-.2.8-.05q.55.1.95.35.55.45.7.95.25.65.1 1.2-.15 1.05-1.15 1.45"/></svg>