<svg xmlns="http://www.w3.org/2000/svg" xmlns:ffdec="https://www.free-decompiler.com/flash" ffdec:objectType="shape" width="77.65" height="43.1"><g fill-rule="evenodd"><path fill="#717171" d="M8.95 7.95Q7.8 9.6 8.1 11.45l.35 1.65q.15.95-.1 1.55L7.5 15.8l-2.2 3-1.15 1.3-.8 1.35-1 1.15q-.35.3-.85.4l-.85-.15q-.4-.25-.5-1l.25-1.1q.45-1.2 1.5-2.65-.8-.3-1.2-1.05-.35-.75-.15-2.45l.55-7.45L1 5.7.75 4.4q0-.65.7-1.65l.9-.95q.4-.2 1.25-.3l2.25-.35 1-.05.75-.65L9.1.1l2.3-.1 1.9.3 3.2.5 3.7-.3 5.1.2h1.35l1.2.2h1.65l3.9-.5 1.3-.3q.75 0 1.3.65l.3.7.1-.15.15-.1.4-.3.65-.1V.75l.45.1.3.2.1.2.6.1Q39.5.5 40.5.6l.9.2.85-.1L45.8.6l5.6.1h1.65l3.5.55 3.55-.05 3.55-.25 2.8-.05L67.8.55l1.4.15q.75.3 1.1.9l.2.35.7-.3 1.65-.8L74.7.8q.85.4 1 1.3l.05.15.65.6q.45.6.45 1.9l-.05 5-.5 7.55-.3 2.15-.4 1.2-.5.8-.75.25-2 .3-1.05.5H70l-3.15-.15-.8-.15-.15-.1-.05-.05-.7-.6q-.35-.35-1-.45l-.65-.05-.65-.25-1.3-.05-.55.05-1.6.35-.85.4-1 1.1-.7.9-.1.1-.25.5-.1.6q-.1 1.45.15 2.35l.25 1q.4 1.2.9 1.8l.9.7h.2l.55.3.25.75.15 1.1.2.8.4.7.1.5.95 2.25.2.35.35.3q.45.45.25 1.1l-.6 1.05-1.3 1.7-.75.35-.95.3-1.05.1-1.1-.2-.15.1q-1.15 1.15-3.8 1.05l-1.35-.25-.65-.5-1.95.15H47.5l-2.35.1-2.4.1q-1.1-.2-1.65-.75l-.2.1-1.4.2-1.5-.15-.55-.25-.9-.05h-.9l-.45-.15-.5.05-.9-.3-.45-.8.3-1.45.3-1.15.8-2.05.55-1.15q.35-.35.85-.35l.95.05 2.1-.1 2.15-.1q1.05.1 1.35.5.3.3.4 1.1l.05.3.45 1.05.35.45.6.15 1.1.25.6-.2q1.4-.8 1.9-.85l1.15.1q1 .2 1.4.5l.6.7q.65.85.8 2.1l.35.05h.7l.7-.05h.6l.35-.3.45-1.1-.1-.65-.1-.65q0-.4.3-1.05l.45-1-.05-1.1-.3-2.05-.8-2.9-.15-1.9-.5-2-.1-1.1q-.1-1.3.6-2l.7-.55.9-1.1.45-.95.25-.35v-.05l.05-.25-.05-.15.15-1.25-.05-1.15-.1-.35-.15-.5-.05-.35-.2-.15-.3-.45-.2-.5-.5-.55-.4-.45-.45-.85-.25-.1-.5-.4-.15-.15-.75-.25-.4.05-.45.15-.85.65-.4.25-.65.5-.65.05-.35-.35-.15-.5-.25-.5-.8-1-1.35-.95-2.9-1.55q-1.1-.45-3.05-.65l-.45-.1-.35.05-.7-.4-.2-.8.1-.8V4.75L39 4.5l-.1-.3q-.25-1.05-1.4-1.4h-.4q-.2 0-.35.15l-.45.25-.65.15-1.1 1.05-1.1 1.5-3.6 5.5-1.05.95-.4.5-1.1 1.45-.65 2.3-.45.8-.8.2q-.45-.1-.7-.45l-.4-.95q-.2-.7-.95-1.45l-1.25-1.3q-1.2-1.75-2-2.45l-.8-.6-1.35-1.7q-.8-1.2-1.4-1.65l-1.05-.8-.1-.05-1.05-.25-1.3-.25-.6-.05-.7.35-1.25.85-1.1.55zM72.5 39l.35-.5.35-.15.25-.3.35-.25.5-.6.6-.45.15-.15.25-.1.35.15.1.35-.2.35-.25.6.6.65-.05.9-.3.45-.2.4-.1.15-.15.45-.2.3-.3.3-.9.1-.75-.45-.1-.1-.1-.45-.05-.1-.2-1.25zM20 32.9q.7-.1.8.5l-.1.4-.1.1-.65.6-1.15 1.25-4.25 5.6-1.35 1.35-1.4-.1q-.7-.4-.8-1.15l.05-.6-.35.15-1.55.25-2.55.2-3.75-.3Q1.4 40.7.9 39.75q-.4-.7-.3-2.15.05-2.55.5-6.15l.25-1.1.7-.85q.9-.9 1.75-1.15l2.35.2q1.15.55 1.7 1.7l.45.85.6.6.5.1h.05l1-.5 1.3-.85 1.2-.95q1.6-1.15 2.85-.75 1.3.35 1.45 1.65l.1.55.3.45.35.8.5.65.85.15.55-.05z"/><path fill="#717171" d="m54.95 37-.35.4-.15.35.2.85-.55 1.2-1.4-.1-.65-1.15q-.5-1.45-1.8-2.05-1.3-.75-2.7-.3-.55.2-1.65.75-1.1.35-1.65-.3-.3-.35-.5-1.3-.2-1.2-1-2.35l-1.1-1.25-2.5-.05-1.1.8-.65.35-.2.25-.05.05-.95.2-.7-.25-.7-.3-1-.95-1.15-.95-.45-.65q-1.35-1.65-.85-3.55.45-2 1.65-3.6l2.2-3.15 1.2-1.5-.15.4q2.2-.95 5.45-2.15l6.1-2.1 1.95-.45q1.3-.75 2.6-.75 1.45.05 2.55 1 .75.85 1.4 3.25l.15 1-.25.9q-.6 1.85-2.3 2.75l-.65.2q.45 5.95 1.6 10.9l.45 2.35q0 .7-.35 1.25"/><path d="m76.05 29.5.05 2.05-.3 1.95q-.5 1.8-1.45 2.95L72 38.5l.15.85.65 2.2.05.25h-11.5q-.05-.65.2-1.35.25-.65 1.35-1.95l.6-.6q-1.15-.85-1.9-2.05l-.85-1.6q-.65-1.75-.7-2.95v-1.1H60q-.8-.2-1.5-.85l-.95-1.25-.4-.95-.1-.75q-.15-1.7.7-3.2.95-1.5 2.55-2.05 1.4-.4 3.15 0 1 .25 1.6.75l.65.95.5-.15 2-.15 2.05.2 1.35.45.2-.15.7-.3.8-.3q1.45-.25 2.55.4 1.15.7 1.55 2.05l.1.5q.35 1.7-.15 2.8-.45.95-1.3 1.3M29.5 12.35l1.2-1.1.65-1.4 1.5-2.25 2.75-3.55.85-.85q.4-.25.75-.2.4-.15.8.15.4.4.35.9l.1.45.2 3.75h.2l1.35.1q1.8.2 2.65.55l2.5 1.05q1.7.8 3.2 3.2l.6 1.15 1.55-.95 1.7-1.05q.85-.1 1.35.4.65.5.55 1.3l-.65 2.05-2.3 5.2-.6 1.1-.2.25-.2 1.3-.7 2.55-.85 1.35q-3.35 4.4-6.8 5.5l-3.5.5-4.05-.25-.6 2.05-.25 1.8-.35 1.7-.45 1.85-.15.6h-11.2l-.55-.4-.15-.1-.35.5h-4.9v-.05q0-1.15 1.5-2.85l4.55-5.05 1.9-2-.4.05-1.5.25-1.3.25-.8-.1-.75-.1q-.4-.2-.65-.7L18 31.2l-.05-.3-.35-.65L17 29q-.7-1.15-2.15-1.15l-1.55.5q-1.3.55-2.1 1.45l-1.05.9q-.8.3-1.6-.6L7.5 28.65Q6.5 27.5 5 27.5q-1.45-.1-2.6.85L1.3 29q-.8.25-1.25-.6-.2-.55.15-1.3l.6-.65.05-.4-.1-.5q0-.65.4-1.3l1.5-1.8q3.5-3.65 6.9-8.5l-.4-.55q-1-1.6-.6-3.55l.3-.85.6-.8q1.75-1.75 2.9-2.05 1.35-.3 2.65.45 1.1.6 1.9 1.9l1.4 1.45 4.2 4.9 3.6 4.6.1-.4.45-1.75q.65-1.9 1.05-2.65.7-1.2 1.8-2.3M40.3 22l.3-.15h.1q0 1.05.25 1.65l.35.75.05.05h-.15l-.2.1-.5.35-.2.1-.2.2-.45.2-.4.2-.05.15-.15.05-.05.15.05.2.3.05h.3l.15.05.2-.05.55-.05h.05l-1.3 1.2-2.5 1.7-.9.25q-1.05.1-1.5-.85l-.2-1.2v-1.85l.2-1.1q.1-1.25.3-1.95l.4.2v.4l.15.4v.75l.15.7.15.15.3-.05.3-.4.2-.6.35-.7.1-.25 1-.1 1.85-.45zm-4.25-2.75Q37.9 19.4 39 18q-.75-.75-1.15-1.9-.4-1.2-.4-2.75l.05-.85-.5-.15-2 .2-.7.45q-.4.25-.85.85-.5.75-.6 1.7-.05.95.35 1.75.4.85 1.15 1.35.8.55 1.7.6m29.7 12.35-.2.3h-.05l-.05.1-.45.4v.05l-.15.15-.3.2-.1.4h-.05l.1.4.15.15.35.1.25-.05.15-.15.25-.2.05-.1.3-.25.1-.05.15.05h.3l.05.05.3.1.1.15.4.25.1.05.1.1.15.2.2.05.05.1q.3.3.7.3l.4-.2.15-.3v-.3h-.05l-.25-.35-.25-.2-.15-.3h-.05l-.25-.25-.05-.1-.1-.05-.2-.2-.05-.3-.15-.2-.05-.05-.1-.55.05-.6-.5-.45q-.4-.1-.65.25l-.15.3-.2.75-.15.15zm3.4-1.65q.2.8.95 1.4.65.6 1.5.65.85.1 1.65-.35t1.15-1.25q.4-.75.25-1.65-.1-.9-.7-1.5-.55-.65-1.45-.85l-1.65.1q-.8.3-1.3 1.05-.55.75-.55 1.6zm-7.95-3q-.3.65-.2 1.4.05.8.5 1.35 1.1 1.35 2.7.9 1.6-.5 1.85-2.1l.05-.35-.15-.9-.25-.6-.25-.25q-.95-1.1-2.45-.85-.7.2-1.05.5l-.55.6zm-27.35-7.5-.3.1q-.15.15-.15.55-.1.6.2 1.05l.4.45-.85 2.15q-.8 2-.9 3.15v1.2q.15 1.2 1.15 2.05 1.05.8 2.3.75 1.15-.05 2.85-1.1l.55-.4 1.7-1.45 1.55-1.55.6-.7.85.25.75.05.4-.1.45-.05.6-.25.3-.4-.4-.35-.35-.05-.3.15-.45.05-.3-.1-1.3-.85-.25-.2-.45-.8-.15-.75V21l-.05-.5q-.15-.5-.6-.7-.45-.25-1 0-.2.15-.45.25l-.15.15-.15.05q-1.5.8-3.1.7l-.7-.05-.85-.3-.5-.15-.15-.25-.35-.25zm10.3 2.65q.4.85 1.25 1.35.9.55 1.85.5t1.75-.6l1.15-1.5q.35-.9.15-1.85-.25-1-.95-1.65l-.2-.2-.65.65-1.65.85-2.95.65-.05.4.15.95z"/><path fill="#fff" d="m44.15 22.1-.15-.45-.15-.95.05-.4 2.95-.65 1.65-.85.65-.65.2.2q.7.65.95 1.65.2.95-.15 1.85L49 23.35q-.8.55-1.75.6t-1.85-.5q-.85-.5-1.25-1.35m-10.3-2.65.45.5.35.25.15.25.5.15.85.3.7.05q1.6.1 3.1-.7l.15-.05.15-.15q.25-.1.45-.25.55-.25 1 0 .45.2.6.7l.05.5v1.3l.15.75.45.8.25.2 1.3.85.3.1.45-.05.3-.15.35.05.4.35-.3.4-.6.25-.45.05-.4.1-.75-.05-.85-.25-.6.7-1.55 1.55-1.7 1.45-.55.4q-1.7 1.05-2.85 1.1-1.25.05-2.3-.75-1-.85-1.15-2.05v-1.2q.1-1.15.9-3.15L34 21.6l-.4-.45q-.3-.45-.2-1.05 0-.4.15-.55zm27.35 7.5.2-.3.55-.6q.35-.3 1.05-.5 1.5-.25 2.45.85l.25.25.25.6.15.9-.05.35q-.25 1.6-1.85 2.1-1.6.45-2.7-.9-.45-.55-.5-1.35-.1-.75.2-1.4m7.95 3-.15-.8q0-.85.55-1.6.5-.75 1.3-1.05l1.65-.1q.9.2 1.45.85.6.6.7 1.5.15.9-.25 1.65-.35.8-1.15 1.25T71.6 32q-.85-.05-1.5-.65-.75-.6-.95-1.4m-3.4 1.65.2-.1.15-.15.2-.75.15-.3q.25-.35.65-.25l.5.45-.05.6.1.55.05.05.15.2.05.3.2.2.1.05.05.1.25.25h.05l.15.3.25.2.25.35h.05v.3l-.15.3-.4.2q-.4 0-.7-.3l-.05-.1-.2-.05-.15-.2-.1-.1-.1-.05-.4-.25-.1-.15-.3-.1-.05-.05h-.3l-.15-.05-.1.05-.3.25-.05.1-.25.2-.15.15-.25.05-.35-.1-.15-.15-.1-.4h.05l.1-.4.3-.2.15-.15v-.05l.45-.4.05-.1h.05zm-29.7-12.35q-.9-.05-1.7-.6-.75-.5-1.15-1.35-.4-.8-.35-1.75.1-.95.6-1.7.45-.6.85-.85l.7-.45 2-.2.5.15-.05.85q0 1.55.4 2.75.4 1.15 1.15 1.9-1.1 1.4-2.95 1.25M40.3 22l-.65.25-1.85.45-1 .1-.1.25-.35.7-.2.6-.3.4-.3.05-.15-.15-.15-.7v-.75l-.15-.4v-.4l-.4-.2q-.2.7-.3 1.95l-.2 1.1v1.85l.2 1.2q.45.95 1.5.85l.9-.25 2.5-1.7 1.3-1.2h-.05l-.55.05-.2.05-.15-.05h-.3l-.3-.05-.05-.2.05-.15.15-.05.05-.15.4-.2.45-.2.2-.2.2-.1.5-.35.2-.1h.15l-.05-.05-.35-.75q-.25-.6-.25-1.65h-.1z"/></g></svg>