<svg xmlns="http://www.w3.org/2000/svg" xmlns:ffdec="https://www.free-decompiler.com/flash" ffdec:objectType="shape" width="76.2" height="45.05"><g fill-rule="evenodd"><path d="m18.3 4.05 4.4-.15 2.35.1 4.55.5h.15l.55.1 1.3.3 5.4-.5h1.8l5.4.5.95-.25.9-.15 1.15-.15 4.35-.4 2.7-.05 4.15.25q1.95.3 2.6 1.1.7.9.4 2.5l-.1.45-.3.85-.45 1-.45 1.2-.25.65-.15.75-.25.95q1.35 2.2 2.05 5.35.7 3.1.45 5.95-.25 2.8-.8 4.5-.5 1.7-2.05 4.4-1.55 2.75-3.95 4.7-1.5 1.3-3.3 2.1l-4.3 1.45-8.85.45-.8.05-.8-.05-8.85-.45q-2.5-.6-4.3-1.45-1.8-.8-3.3-2.1-2.4-1.95-3.95-4.7-1.55-2.7-2.05-4.4-.55-1.7-.8-4.5-.25-2.85.45-5.95.7-3.15 2.05-5.35l-.4-1.7v-.05l-.7-1.8-.6-1.5-.15-.35q-.35-1.3-.1-2.15l.4-.8q.65-.8 2.6-1.1zm26.85 6.45q2.9.8 4.25 1.45 2.25 1.1 3.9 3.15 1.65 1.95 2.4 4.4 1.55 4.85-.3 9.95-.7 1.85-1.6 3.05-2 2.8-6.35 4.2-3.8 1.3-8.6 1.4h-1.9q-4.8-.1-8.6-1.4Q24 35.3 22 32.5q-.9-1.2-1.6-3.05-1.85-5.1-.3-9.95.75-2.45 2.4-4.4 1.65-2.05 3.9-3.15 1.35-.65 4.25-1.45l4.05-.85 3.2-.1 3.2.1zm-3.9-4.25L37.9 6.1l-3.35.15Q32.5 6.5 29.5 7.4q-2.6.7-3.8 1.35-1.2.6-3.05 2.15-1.95 1.65-2.8 2.85-.9 1.35-1.55 3l-.75 2.1q-.35 1.45-.45 3.7-.15 4.55 1.1 7.9 1.45 4.1 4.7 6.4 1.45 1.1 3.9 1.95l3.9 1.2 7.2.75 7.2-.75 3.9-1.2q2.45-.85 3.9-1.95 3.25-2.3 4.7-6.4 1.25-3.35 1.1-7.9l-.45-3.7-.75-2.1-1.55-3q-.85-1.2-2.8-2.85L50.1 8.75q-1.2-.65-3.8-1.35zm9.05 10.7-.9-1.15-.3.1-.55.15-.4.15-.45.05-.5-.55-.3-.8q-.2-.3-.75-.5l-2.6-.85-1.2-.15q-1 .05-1.95.85-.95.9-1.3 2.3-.35 1.25-.15 2.6.35 1.75 1.45 2.15l1.2-.05.65-.2.1-.25q.5-1.2 1.15-1.55l1.4-.5q.6-.1.85-.4.3-.45-.2-.95l-.85-.45-1.3-.1-.7.1q-.3.1-.5.4-.45.5-.65 1.2l-.15.5-.5.25-.5-.15q-.3-.2-.3-.65-.05-.9.7-1.95.65-.85 1.35-1.1l.9-.1 1.95.1q1.5.4 2.1 1.75.2.65.05 1.4l-.7 1.15q-.3.35-.95.5l-.85.25q-.9.25-1.1 1.25v.75l.15.75.5.85.55.6h.5l1.65-.05 1 .05 1.35-.45 1.7-1.2q.65-.8.75-2.1l-.25-1.45-.1-.6-.6.05q-.6.2-.95.45l-.5.7-.05.45.15.5q.15.35-.1 1.05l-.35.7-.4.3-.5.2-.65.1h-.15l-.35-.1-.1-.05h-.2q-.6-.2-.8-.45-.25-.3-.15-.7.15-.35.45-.5l.65-.1h.35v.05h.1l.35.15.7-.3-.2-1v-.45l.3-.65q.7-1.1 2.05-1.3l.55-.05zM39.3 12q-.7.05-1.35.4l-1.4-.4-1.45.2-.1.05.65.35q1.55 1.1 2.3 2.7.75-1.6 2.25-2.7l.65-.35-.05-.05zm2.65 13.2.6-.25v-.9l-.1-.3-.1-.35q-.2-.55-.55-.7h-.25l-1.55.15q-1.2-.15-1.9-1.35l-.15-.3-.2.3q-.7 1.2-1.9 1.35l-1.5-.15h-.25q-.4.15-.55.7l-.15.35-.1.3v.9l.6.25q2.35.7 4.05-.55 1.65 1.25 4 .55m-16.4-8.25-.6 1 .5.05q1.35.2 2.05 1.3l.3.65v.45l-.15 1q.25.4.65.3.1-.1.35-.15h.1l.05-.05h.3l.65.1.45.5-.1.7-.8.45h-.25l-.1.05-.35.1h-.1l-.7-.1-.45-.2-.4-.3-.35-.7q-.3-.7-.1-1.05l.1-.5v-.45l-.5-.7-1-.45-.55-.05-.15.6-.2 1.45q.05 1.3.75 2.1.45.6 1.65 1.2.75.4 1.35.45l1-.05 1.65.05h.5l.6-.6.45-.85.15-.75v-.75q-.2-1-1.05-1.25l-.85-.25q-.65-.15-1-.5l-.7-1.15q-.15-.75.1-1.4.55-1.35 2.1-1.75l1.95-.1.85.1q.75.25 1.4 1.1.7 1.05.65 1.95l-.25.65-.55.15-.45-.25-.2-.5-.6-1.2-.5-.4-.7-.1-1.3.1-.9.45q-.5.5-.15.95.2.3.8.4l1.45.5q.6.35 1.15 1.55l.1.25.6.2 1.25.05q1.05-.4 1.4-2.15.25-1.35-.1-2.6-.35-1.4-1.35-2.3-.95-.8-1.95-.85l-1.15.15-2.6.85q-.6.2-.8.5l-.3.8-.5.55-.4-.05-.4-.15-.6-.15-.25-.1z"/><path fill="#fff" d="M41.25 6.25 46.3 7.4q2.6.7 3.8 1.35l3.05 2.15q1.95 1.65 2.8 2.85l1.55 3 .75 2.1.45 3.7q.15 4.55-1.1 7.9-1.45 4.1-4.7 6.4-1.45 1.1-3.9 1.95L45.1 40l-7.2.75-7.2-.75-3.9-1.2q-2.45-.85-3.9-1.95-3.25-2.3-4.7-6.4-1.25-3.35-1.1-7.9.1-2.25.45-3.7l.75-2.1q.65-1.65 1.55-3 .85-1.2 2.8-2.85 1.85-1.55 3.05-2.15 1.2-.65 3.8-1.35 3-.9 5.05-1.15l3.35-.15zm3.9 4.25-4.05-.85-3.2-.1-3.2.1-4.05.85q-2.9.8-4.25 1.45-2.25 1.1-3.9 3.15-1.65 1.95-2.4 4.4-1.55 4.85.3 9.95.7 1.85 1.6 3.05 2 2.8 6.35 4.2 3.8 1.3 8.6 1.4h1.9q4.8-.1 8.6-1.4 4.35-1.4 6.35-4.2.9-1.2 1.6-3.05 1.85-5.1.3-9.95-.75-2.45-2.4-4.4-1.65-2.05-3.9-3.15-1.35-.65-4.25-1.45"/><path fill="#999" d="m14.4 6.05-.4.25q-3.7 2.35-5.8 5.65-1.55 2.55-2.7 6.7-.8 2.95-1 4.65-.35 3.75.7 8.05 1.1 4.9 3.5 7.45l2.5 2.45q.55.65.5 1.15-.15.6-.85.85l-2.9-.15-2.35-1.8Q1.5 36.9.35 30.1q-.85-5 .25-10.05 1.1-5.1 3.9-9.3 1.8-2.7 3.75-4.35Q11 4.05 16.1 2.2q3.3-1.25 5.35-.8.8.25.8.65.05.45-.8.8-1.65.55-3.15 1.2l-.9.1q-1.95.3-2.6 1.1zm8.3-2.15q4.05-1.55 8.6-1.75l.2-.05 2.95-.2 1.55.15 2.5-.1.65-.1 6.25.4q.95-1 2.75-.8l3.1 1.05 3 1.4-2.7.05-4.35.4-1.15.15-.9.15-3.6-.8-1.85-.2-1.3-.05-2.4.25h-1.2l-1.65.25-2.85.5-.55-.1h-.15L25.05 4zm38.7 3.85 1.25 1.05q2.45 2.45 3.95 7.1 2.4 7.75.45 14.55l-.55 1.7-.3 1.05q-.6 1.9-1.6 3.45-2.75 4.45-8.35 7.05-2.95 1.4-4.6.3-.6-.5-.6-.95 0-.5.5-.9l1.5-1.1 1.65-.8q3.4-1.75 5.75-4.85 2.4-3.15 3.15-6.85.35-2.15.3-3.6l-.55-4.2-.75-3.2q-.95-2.85-2.9-4.9l.15-.75.25-.65.45-1.2.45-1 .3-.85zm-45.45 4.1q-.65.75-1.15 1.65-1.15 2.05-2.15 6.75-.55 2.3-.65 3.85v3.75q.1 2.2.3 3.25.55 2.6 2.15 4.75Q16.1 38 18.4 39.2l3.95 1.65q2.35.95 3.5 2.2-1.35 1.3-3.6 1.1-1.45-.05-3.7-1-3.95-1.6-6.15-3.7Q8.5 35.6 8.05 28.5q-.15-2.8.2-5.35.45-2.8 1.55-6.45 1.25-3.75 2.5-5.6.9-1.35 2.35-2.55l.6 1.5zM58.8 3.2l-2.45-.85q-1.3-.45-1.35-1.1-.15-.75.8-1.15.55-.2 1.5 0 3.1.35 5.15 1.1 3.2 1.1 5.95 3.5 2.65 2.3 4.4 5.45 4 6.9 3.3 15.2-.6 7.8-5.15 14.8-1.6 2.6-3.35 3.9-1.9 1.5-3.45.75-.75-.4-1-1.3-.2-.9.2-1.7l1.55-1.7q1.85-1.65 3.55-4.9 3.2-6.3 3.2-12.75-.1-7.15-3.9-12.45-1.5-2-3.35-3.65-1.35-1.25-2.7-2-.65-.35-2.9-1.15m-8.5 13.75.65 1-.55.05q-1.35.2-2.05 1.3l-.3.65v.45l.2 1-.7.3-.35-.15h-.1v-.05h-.35l-.65.1q-.3.15-.45.5-.1.4.15.7.2.25.8.45h.2l.1.05.35.1h.15l.65-.1.5-.2.4-.3.35-.7q.25-.7.1-1.05l-.15-.5.05-.45.5-.7q.35-.25.95-.45l.6-.05.1.6.25 1.45q-.1 1.3-.75 2.1l-1.7 1.2-1.35.45-1-.05-1.65.05h-.5l-.55-.6-.5-.85-.15-.75v-.75q.2-1 1.1-1.25l.85-.25q.65-.15.95-.5l.7-1.15q.15-.75-.05-1.4-.6-1.35-2.1-1.75l-1.95-.1-.9.1q-.7.25-1.35 1.1-.75 1.05-.7 1.95 0 .45.3.65l.5.15.5-.25.15-.5q.2-.7.65-1.2.2-.3.5-.4l.7-.1 1.3.1.85.45q.5.5.2.95-.25.3-.85.4l-1.4.5q-.65.35-1.15 1.55l-.1.25-.65.2-1.2.05q-1.1-.4-1.45-2.15-.2-1.35.15-2.6.35-1.4 1.3-2.3.95-.8 1.95-.85l1.2.15 2.6.85q.55.2.75.5l.3.8.5.55.45-.05.4-.15.55-.15.3-.1zm-8.35 8.25q-2.35.7-4-.55-1.7 1.25-4.05.55l-.6-.25v-.9l.1-.3.15-.35q.15-.55.55-.7h.25l1.5.15q1.2-.15 1.9-1.35l.2-.3.15.3q.7 1.2 1.9 1.35l1.55-.15h.25q.35.15.55.7l.1.35.1.3v.9zM39.3 12l1.5.2.05.05-.65.35q-1.5 1.1-2.25 2.7-.75-1.6-2.3-2.7l-.65-.35.1-.05 1.45-.2 1.4.4q.65-.35 1.35-.4m-13.75 4.95.95-1.15.25.1.6.15.4.15.4.05.5-.55.3-.8q.2-.3.8-.5l2.6-.85 1.15-.15q1 .05 1.95.85 1 .9 1.35 2.3.35 1.25.1 2.6-.35 1.75-1.4 2.15l-1.25-.05-.6-.2-.1-.25q-.55-1.2-1.15-1.55l-1.45-.5q-.6-.1-.8-.4-.35-.45.15-.95l.9-.45 1.3-.1.7.1.5.4.6 1.2.2.5.45.25.55-.15.25-.65q.05-.9-.65-1.95-.65-.85-1.4-1.1l-.85-.1-1.95.1q-1.55.4-2.1 1.75-.25.65-.1 1.4l.7 1.15q.35.35 1 .5l.85.25q.85.25 1.05 1.25v.75l-.15.75-.45.85-.6.6h-.5l-1.65-.05-1 .05q-.6-.05-1.35-.45-1.2-.6-1.65-1.2-.7-.8-.75-2.1l.2-1.45.15-.6.55.05 1 .45.5.7v.45l-.1.5q-.2.35.1 1.05l.35.7.4.3.45.2.7.1h.1l.35-.1.1-.05h.25l.8-.45.1-.7-.45-.5-.65-.1h-.3l-.05.05h-.1q-.25.05-.35.15-.4.1-.65-.3l.15-1v-.45l-.3-.65q-.7-1.1-2.05-1.3l-.5-.05z"/><path fill="#fff" d="m42.6 16.3-.85-.2-.85-.15q-.85-.3-.85-1.4l.45-4.75q.1-1.3.35-1.85.45-1.1 1.3-1.3l1.3.15q.6.35.8 1 .2.6-.1 1.85l-1 4.25 1.5.45q1 .3 1.15.95l-.25.8-.6.6-2.6 2.1-1.2.8h-.25l-.15-.35.3-.75q.65-1.15 1.55-2.2m1.8 9.4q1.35-1.55 3.25-1.65 1.15-.05 2.25.5t1.75 1.55q.6 1 .65 2.25 0 1.2-.55 2.25l-1 1.15q-1.45 1.1-3.4.75-1.35-.25-2.25-.95-1-.75-1.4-2.05l-.1-1.55q.1-1.05.3-1.5zm-20.3 0q1.35-1.55 3.25-1.65 1.15-.05 2.25.5t1.75 1.55q.6 1 .65 2.25 0 1.2-.55 2.25l-1 1.15q-1.45 1.1-3.4.75-1.35-.25-2.25-.95-1-.75-1.4-2.05l-.1-1.55q.1-1.05.3-1.5z"/></g></svg>