<svg xmlns="http://www.w3.org/2000/svg" xmlns:ffdec="https://www.free-decompiler.com/flash" ffdec:objectType="shape" width="30.65" height="30.1"><g fill-rule="evenodd"><path d="M8.95 29.65q-3.3-.75-4.85-2.2Q2.9 26.4 1.65 24q-1-1.9-1.4-3.6Q0 19.15 0 15.85q.1-2.65.35-3.95.55-2.85 2.5-5.35Q4.7 4.2 7.4 2.7 12.15 0 18.95 0l3.15.35q1.45.45 2.95 1.55 2.55 1.95 4 4.9 1.55 2.95 1.6 6.1.05 2.15-.7 5.65-.65 2.75-1.5 4.25-1.35 2.55-4.15 4.35-2.5 1.6-5.7 2.3-4.95 1.2-9.65.2M24.4 8.3q-.65-1.25-1.85-2.15-1.6-1.2-3.65-1.45l-4.4.25q-1.5.4-3.15 1.15l-.7.35q-1.2.6-2.25 1.3l-2.15 1.8-.9 1.15-.1.15q-1.35 1.95-1.6 4.2l-.05.45q-.05 1 .25 1.9l.6 1.2.15.2q.85 1.15 2.65 1.7l.7.15 2.75.25q5.2 0 8.8-1.4l1.8-.9 1.75-1.25.6-.75q1.4-1.75 1.5-4.65v-.75l-.35-2zM14.05 6q.35-.3.95-.3.5.1.8.3.6.4.75 1.25l2 .4q1.2.55 1.6 1.45.5 1 .1 1.85l-.45.55q-.85 1.1-2.35.75l-1.1-.45-1.9-.15q-1 .25-1.7.95-.7.8-.45 1.45.25.6 1 .7l1.3-.15 2.45-.8 1.2-.55 1.3.1.4.2.6.6q.35.6.25 1.3t-.55 1.2L19 17.4l-2.45.85-.5.15v.05l-.25 1.1-.85.65-1.1-.05q-.6-.25-.85-.75l-.2-.75v-.2q-2.1-.45-3.25-1.9l-.05-.1-.5-.75-.15-.35q-.3-.85-.3-1.75 0-1.5.9-3.05.75-1.3 2.05-2.15.85-.55 1.85-.85V7.5l.1-.65.2-.45zm5.9 18.55 2.1-1.2q1.8-1.25 2.65-2.85-1.55 1.4-3.75 2.55l-.5.25-2.3.9-.9.25-3.7.4h-.9l-1-.1-3.5-.3 1.6.85 2.1.5.7.05 1.5-.1 2.85-.25.1-.05.85-.2.65-.2z"/><path fill="#fff" d="m19.5 19.5.35-1.15 3.5-8.25.8-1.5.25-.3.4.9.35 2-.85 2.8-1.25 3.35-1.75 1.25zm-5-14.55L14.05 6l-.4.4-.2.45-.1.65v.05q-1 .3-1.85.85-1.3.85-2.05 2.15-.9 1.55-.9 3.05 0 .9.3 1.75l.15.35.5.75-1.3 3.5-.25.7-.7-.15q-1.8-.55-2.65-1.7l6.05-12.35.7-.35Q13 5.35 14.5 4.95m5.95 18.35-.5 1.25-1.45.5-.65.2.3-1.05zm-3.55 2.2-2.85.25-1.5.1v-.75l.1-.25h.9l3.7-.4-.05.1zM5.25 10.85l.1-.15.9-1.15 2.15-1.8-.95 2-3.4 7.35-.2.3q-.3-.9-.25-1.9l1.3-3.45z"/></g></svg>