<svg xmlns="http://www.w3.org/2000/svg" xmlns:ffdec="https://www.free-decompiler.com/flash" ffdec:objectType="shape" width="63.75" height="39.55"><g fill-rule="evenodd"><path fill="#999" d="M46.75 19.8q-1.1 1.7-.95 3.1.05.8.5 1.65.45 1 1.1 1.5.95.7 1.8.4-.2-1.15.75-3.55.6-1.4 1.25-1.95.85-.55 2.55-.55 1.45-.1 2.3.4l.15-.2.65-.65.65-.45.7-.3.9-.3h.15l-.05-.2q0-.5.55-.6.35.1.5.35l.05.4 1.25.2 1.1.4.75 1 .35.95-.4.45q-.45-.15-.6-.6l-1.1-.05H60.2l-.85.25-1.1.75-.4.65-.3.7-.35.6q-.15 1.35-.75 2.5-.8 1.5-2.15 2.1.5 1.05 1.6 1.6 1.05.5 2.25.4 2.2-.15 4-2.1.8 1.05.4 2.35-.45 1.15-1.55 1.95l-.8.5.05.1.2.5-.15.65-.65.4q-.25 0-.55-.3l-.6-.65-.1-.2h-1.15l-.05.95q-.2 1-1.1 2.1l-.6.65-1.2.65-2.5.45-1.35-.35-1.35-.45-.65-.5-.6-.4-.3-.5q-.3-.9-.3-1.8 0-.55.3-.85.2-.25.6-.2.35.05.55.35l.2.6.2.4.35.25q.6.45 1.15.55l.1.05.05-.25.35-.7.5-.2.05-.05q.35 0 .6.35l.05.65-.2.4h.5l.6-.2 1.15-.75q.4-.45.5-1.5v-.3Q52.7 32.35 51 30l-3.75-.15q-1.6-.4-2.85-1.6l-.8-.9-.7.45q-.65.3-1.05 0l-.3-.55q-.05-.35.15-.6l.6-.45.4-.45-.1-.3q-.65-1.9-.35-3.85l-.3-.25-.25-.4-.15-.45q.1-.45.65-.55l.5-.05.3-.85q.95-2.05 2.65-3.25.7-.45 1.4-.6-.1-.6.25-.95l.2-.2q.5-.25.9.25l.3.7 1 .2 1.1.35 1.05-.1.6-.85q.5-1.2.1-2.4l-.2-.9q0-.6.45-.75.55-.15 1 .65 1.25 2.1.75 4.15-.3 1.1-1.1 1.9t-1.85 1l-1.95.1q-1.2 0-1.85.35zm-4.2-15.25-.15 1 .2.4.35.05 1.35-.2 1.1-.9q1.2-.95 2.6-.9.8 0 1.25.4.6.6.1 1.2l-.95.45q-.65.2-1.6 1.15-1 1-1.6 1.25l-2.1.35-2.1-.25-.7-.55-.25.1h-.45l-.2-.45.3-.45-.1-.3q-.35-.95-.25-2.2V4l-.75-.6-1.05-.2q-.65 1.25-1.45 1.65l-1.5.2q-1.3-.1-1.9-.65-1-.85-.75-2.4l.1-.25h.3l1.1.35.9.1v-.1l.1-.6v-.2l.1-.2.15-.1.3.2q.3-.6 1-.95L37.7 0q2.35.1 4.15 1.95l.4.45.55-.05.05-.05.6.45.05.2-.2.45-.3.2-.25.05zm10.05 21.1.35-.05.55-.35.35-.35.2-1.05.2-.25-.45-.05-.45.1-.15.25-.5 1.3zM28.75 5.3l-.25.55-.4.35v.2l-.25.85q-.35.45-.85.3-.55-.1-.65-.6l-.15-.9-.55-.4-.55-.45q-.2-.25-.15-.65l.3-.6.8-.3q1.35-.2 2.15.55.6.45.55 1.1m-11.4.65.7-.05-.2-.8q.1-.75.75-.65.7.1.75.6l-.2.8v.45l.65.45q.7.5 1.2.35.5-.1.95-1.1.45-1.05.8-1.25l1.05-.05q.6.3.7 1.2l-.25 1.45-.35 1-1.1 1.1-1.25.65-1.55-.05-1.4-.35-.8-.55q-.15.6.35 1.7.55 1.2.55 1.75 0 .8-.55 1.55l.25.2.25.35.2.15.1.4-.35.55-.65-.1-.65-.4-.2-.3q-1.3.85-2.85.75l-1.5-.5q-.7-.55-.55-1.35.1-.4.45-.65l.75-.1.65.35h.7l1.2-.4.25-.4-.2-.6-.65-1.05-.2.05-1.05.35-.6-.4-.05-.75.2-.35.45-.25.95-.1-.05-.1q0-1.55.35-2.2.55-1 2-1.35M.8 28.25q.25-.25.55-.35l.1-.4v-.4q0-.8.8-1t1.2.55q.25.45.05 1.2l1.35.35q.55 0 1.45-.7.8-.55.8-1.15-.05-.35-.85-1.15-1.4-1.3-1.3-3.3.15-1.5 1.2-2.7L6 18.85q-.05-.35.2-.8.2-.4.45-.35l.1-.05.7.45q.85-.6 1.9-.75 1-.1 1.35.35.35.3.25.9l-.5.85-1.75.95q-1.2.55-1.35 1.4-.1.8 1.25 2.15l1.4 1.7.15.3.2-.05 1.15-.2q.5.15.65.6l-.15.85-.95.5-.7.25-.8 1.45Q8.25 31 6.45 31.8l.8.75.35-.15.85-.3q.75-.1 1.1.35.5.5.25 1.15l-1 .9-.6.4-.05.35q-.1.7-.55 1.4l.25.45v.1l-.1.1v.1l-.1.05-.3.2-.2-.1-.2-.1-.25.25q-1.1 1.1-2.35 1.6l-1.8.25q-.9-.1-1.55-.5-.75-.5-.95-1.25-.15-.6.2-1.2t.95-.8l1.5-.05q1 0 1.15-.75-1.7-.15-2.75-1.45Q.1 32.4 0 30.6q-.1-1.6.8-2.35"/><path d="m57.05 20.25-.85.85-.55.8-1.35 1.25-1.55 1.05q2.6-.2 3.55-.05 1.65.2 2.75 1.25l-.3-1-.75-1.7.1-.6q.2-.4.85-.3.7.1 1.25.6l.25-.1.55-.55.5-.45q.4 0 .5.35l-.05.55-.5.95-.05.55-.05.15q.7 1.2.7 2.5l-.3 1.7.55.5.3.75q0 .5-.35.65l-.95-.2-.5-.35-.45.3-.35 1.5q-.55 1.25-2.4 2.2l-1.05.5.05.3.05.55-.2.6-.55.45q-.3.1-.6-.2l-.35-.5-.25-.6-3.35-.25-1.35.8-.3.15-.2.8-.25.45-.5.25-.55-.25-.25-.6v-.1l-.95.05-1.25-.4-1.1-.5-1.25-1.25-.3.1-.55.15-.5-.2q-.25-.25-.15-.55l.2-.55.35-.45q-.4-.95-.35-1.95l-.45-.5-.25-.3-.3-.25-.2-.5.4-.55 1.1-.1.3.05.9-1.1.55-.3q.4-.1.6.3l.05.65-.25.5.1.45-.05.75.65 1.15 1.25 1.45 2.15.05-.2-.35q-.85-1.65-.85-3.65-1.7-.75-2.3-2.85l-.95-.2-.6-.35q-.3-.4-.15-.65.1-.25.95-.5l.45-.25q0-1.7.7-2.95.55-.95 1.45-1.6l-.3-.7q-.05-.4.2-.8.25-.35.65-.4.45-.05 1.05.45l.45.6.35-.1q2.3-.35 4.6.85l.9.2.45-.4q.6-.9.25-1.95-.3-.6-.25-.9.05-.35.45-.55l.75-.05q.75.3 1 1.2l.3 1h.85q.5.1.55.5l-.25.6-.6.3-.6.15zM46.5 8.75l-.6-.45-.55-.55Q45 7.4 44.1 6.9l-.6-.7q-.2-.6.5-1.1l2.5.2q1.05.5 1.5 1.25.6 1.05-.05 1.85-.6.7-1.45.35m5.6 2.5.7 1.4.15.9-.35.75q-.3.4-.7.45-1 .2-1.45-.7l-.3-1.1-.75-1.55q-.4-.7-.2-1.1.35-.55 1.25-.25t1.65 1.2m-.4 9.8-1.35-.2q-.75.1-1.25.6t-.6 1.25q-.15.7.15 1.35.35-.9.85-1.5l.8-.65zm5.05 7.55q-.25-.55-.85-.8l-.15-.05-.3.3-.35.25-.2.5-.55.65-.3.05-.3-.15-.2-.25q-.15-.25.05-.8l.3-.7-.6.15-2.6.7q.2 1.45.65 2.05l.2-.6q.15-.4.65-.4.6 0 .7.7l-.05 1.05h.3l1.85-.4 1.4-.8q.65-.65.35-1.45M40.3 2.9q.3.6-.05 1.25-.3.6-1.05.7l-2.95-.5-.9-.3q-.55-.35-.55-.8 0-.55.5-.8l.95-.35q2.1-.5 3.2 0zm-9.45 1.4-1.4.3-2 .3-.8.15q-.5 0-.75-.3-.45-.5.1-1.25.75-1 2.6-1.45l1.3-.2q.75 0 1.25.5.35.4.25 1.05-.05.6-.55.9m-13.6 5.85q-.5-.3-.4-1 .05-.35.45-.95.4-.65 1.85-1.95.9-.65 1.3-.7.6-.1 1.1.4.4.5.25 1.15t-.95 1.1l-1.3.8-1 .95q-.7.6-1.3.2m-7.1 8.1q-.45-.6.05-1.6t1.9-2.8l.95-.8q.65-.25 1.2.3.45.55.3 1.3l-.65 1.05-1.4 1.75-1.05.95-.7.15q-.4-.05-.6-.3M8.9 21.7q.5.5.35 1.35l-.6 1.3L7.5 26.2l-.55.7-1.1-.1q-.4-.4-.3-1l.25-1L7 22.4q.3-.65.65-.8zM2.75 35.15q-.3-.4-.2-1 0-.75.35-1.8l.35-1.1.55-1.1q.45-.45 1.15-.3t.85.85l-.05.95-.7 2.4-.2.95q-.3.6-1 .7-.7 0-1.1-.55"/></g></svg>