<svg xmlns="http://www.w3.org/2000/svg" xmlns:ffdec="https://www.free-decompiler.com/flash" ffdec:objectType="shape" width="77.6" height="43.8"><g fill-rule="evenodd"><path fill="#999" d="m22.75 10.6.7.35q.35.45.15.7-.15.4-.65.3l-.7-.35-3.85-2.3-1-.55q-5.1-3-8.5-5.4Q7.4 2.3 7.45 1.3l.3-.75.7-.5 1.3.25 1.1.85 2.2 1.65 2.2 1.7 1.3 1.3 1.3 1.25L19.7 8.3l1.45 1.25zm40.7-6.4-2.4 1.1-1.55.6-.85.35-.5.2q-.3-.15-.1-.5l.45-.3 1.2-.85 2.1-1.65 2.35-1.35q1.4-.9 2.25-.9l.65.15.35.6-.2.7q-.2.3-1.15.65L65 3.5zM52.4 12.8l-1.05-.15q-.2-.45.55-.9 1.45-.8 4.4-2.1l4.2-2.3 4.1-1.95 8.2-3.65 1.9-.5.95.35q.45.35.5.8.15.7-.65 1.3l-1.4.6q-3.3 1.05-8.7 3.6l-2.35.95-3.35.95-2.35 1.1L54 12.2zM42.85 1.25l-.05.6q-.75 1.3-.95 2.6l-.35 2.9-.6 1.2q-.65.65-1.25.25-.6-.3-.5-1.1l.45-1.2 1.7-3.35 1.05-1.7q.25-.35.5-.2m14.05 15.3-.05-.2.2-.25q8.4-5.1 17.3-9.4 1.3-.6 2.05-.5l.95.6q.35.55.2 1.05-.2.8-1.75 1.35-1.3.45-5.7 2.4-3.75 1.65-9.25 3.7zm13.05-.45 2.85-1q1.9-.85 2.5-.9l1.1.2q.6.3.7 1 .1.75-.45 1.2l-.95.45-1.45.35-5.65.75-.8.05-2.15.2q-.5 0-.55-.25 0-.25.35-.35l.55-.1.4-.3 1.3-.6zM68 27.65l5.1 3.7 3.15 2.95.45.85v.55q0 .3.25.4h-1.4l-.8-.6-2.7-2.55-3.65-2.7-3.5-2.85-1.2-1.15-1.75-1.3-1.05-.7q-.5-.4-.25-.65h.45l1.6 1 1.6 1.05 1.2.55zM56.8 13.6l.35.1v.35l-.25.25-.9.55-3.05.9q-.5.25-.6.4l-1.15.25-2.2.75-.85.45-.95-.05q-.45-.25-.45-.75 0-.45.45-.8l.9-.25zm-9.55 7.45-.75-.1-.65-.5-.15-.75q.1-.4.45-.7.35-.25.75-.25l.85.3q1.6.8 2.25 1.45l.6.55.2.4-2.5-.15zM55 22.7q.35-.4 1 .15l1.65 1.1q8.8 6.25 16.1 12.5 2.25 1.9 2.95 2.9.95 1.3.4 2.05-.3.35-.8.4l-.95-.25-1.3-1.35-2.25-2.3q-8.4-7.65-12.85-11.1l-2.05-1.6-1.65-1.5q-.55-.65-.25-1M44.9 33.85q-.2-.3-.05-.65l.4-.55 1.3-.45 5.75-.9q.8-.1.95.3l-.2.6-.65.3-5.9 1.7q-1.25.2-1.6-.35m7.55 5.25q0-.3.35-.5.35-.1.6.15l.4.65.3.5.75.7.6.85-.2.65-.55.35q-.7.1-1.15-.6l-.3-1.05-.3-.65-.35-.55zm6.25-1.5-.95-.8-.6-.75-.35-.35-.8-1.1-.05-.3q.05-.2.3-.2l.3.25q.5 0 .85.3l.6.7 1.1 1.15 1.4 1.2 1.2.8.7.25.55.45 1.6 1.15q1 .75.85 1.65l-.65.85q-.7.35-1.6-.2L61.9 41.5l-1-.9-1.35-1.85zM35.65 9.15 35.2 9q-.5-.5-.5-1.4-.05-.6.3-1.5l.35-.85.15-.5q.25-.35.45-.2l.15.2.3 1 .15 1 .1 1.2q-.1.75-.55 1.05zm-6.8-.9.85 2.15.45 1.6.2 1.1-.3 1.35-.3.85-.2-.45-.25-.35-.8-1.45-.6-1.65-.5-1.35-.2-.65v-.5l-.15-1.45-.55-2.75q0-.3.3-.45l.55.15.3.45.65 1.25.25.75zm-5.15 6.4.75.25.75.15 1.95.5 1.15.45.45.3q.7.05.85.5l.05.2.1.45q0 .6-.6.85l-1 .1-.6-.15-6 .45q-.2-.2.05-.3.1-.1.35-.15l3.25-1.15h.05l-3.65-1.95-.65-.2-1.85-.85-.15-.15.15-.2.25-.05.95.15zM1.5 13.1l2.4.05 6 1.55 3.4.85 1.25.3 1.75.2 2.15.5.15.15-.25.2-2.9-.05-2.95-.3-5.9-.35-2.6-.35-1.5-.3-1.05-.35q-.5-.4-.5-1.05t.55-1.05m8.75-.45-.75-.3-.95-.1-1.9-.55-.35-.05-2.05-.6-.85-.15-.6-.2q-1.45-.35-1.75-.65-.35-.45-.2-.9.1-.55.65-.7.4-.2 1.4.25l3.8 1.6 1 .6.7.45.95.3 1.6.55q.45.25.3.45-.55.25-1 0m9.25 8.8-.25.2-1.25.3-2.05 1-2 .55-1.45.6Q9.55 25.45 6 26.4l-2.1.65-1.8.6q-.8-.1-1.15-.9-.3-.85.35-1.35.35-.35 1.2-.55l11.8-2.7 2.7-.5 1.05-.1.6-.2.65-.05q.2 0 .2.15M1.4 31.1l2.6-1 8.55-2.4 7.6-2.5.75.05q.3.3-.05.6l-.6.25q-2.2.75-7.2 2.8l-3.2 1.4-7.4 3.25-1.25.35q-.7 0-1.05-.7t.05-1.25q.25-.4 1.2-.85m9.85.7-9.1 4.3-.85.3q-.65.1-1.05-.4-.35-.6-.05-1.15l1.05-.65 1.3-.45 1.3-.45 2.65-.9 5.7-1.85h.5l.15.3-.65.5zm-.75 5-6.9 5.35q-.4.3-.95.4-.9 0-1.2-.95-.15-.95.6-1.45l1.75-.85 5.35-3.1 1.3-.8q2.65-1.55 3.7-2.05l.35-.1q.35.1.15.3l-.1.1q-1.75.8-3.2 2.25zm5.55 1.35L14.3 38l-.5-.4q0-.35.55-.45l1.1-.15.75-.1.55-.4.85-.2q1.95-.1 2.85.85l.2.35q.1.3-.2.5-.65.75-2.25.85l-1.55-.3zm16.45-6.8q0 .5-.6.7l-1-.05-1.75-.9q.2.5-.15.75l-.6.15-.65-.25-1.45-.8-.35-.15-.3-.3q-.5-.05-.55-.25-.1-.25.25-.35l.9-.1 1 .25.5.2.4.15q-2-1.4-3.15-2.8l-.1-.15q0-.3.5-.2 1.45.4 3.55 1.6l2.65 1.45q.9.4.9 1.05"/><path d="m49.3 15.65-.05 2.1h3.4q.5 0 .6.3.1.25-.2.45l-.45.15-3.65.65-.95 2.35q-1.2 2.2-3.35 3.6l.1 1.5q0 .6.15.8l.65.4h.05l.55-.4 2-1.6.8-.75 1.75-1.5.45-.35.15-.05.25.1.05.2-.25.45-2.4 2.85-1.6 2.05-.1.2.55.85 1.3-.95.95-.5q.45-.25.65 0l-.2.6q-1 .9-1.45 1.35l-.8.8.05.5.15 1.85-.3 1.15.8.55.7.7.3.5.4.2.05.4-1.05-.4-2.05-.55-1.3 1.3q.45.65.3 1.5-.1.85-.75 1.35-.8.65-2.75.55l-.85-.05-.15.25q-.6 1.15-1.25 1.45l-1.8.2-1.05-.2q-1.05.9-2.85.5-1.4-.4-1.9-1.2h-.15l-1.3.35-1.55.2q-1.25 0-1.8-.4l-.8-.8q-.4-.5-.45-.9-.15-.85.5-1.6l-1.25-1.65-.6-1.25q-2.25.7-3.45 1.4L20 38.7l.85-.15 1.7-.1q.9.05 1.7.5.8.5 1.05 1.3.4 1.4-.7 2.4-.9.9-2.35 1.05l-2.7-.3q-1.25-.1-2.7-.85l-1.05-.8q-.35-.5-.35-1.55 0-1.45.15-1.9l.75-1.3q.8-1 1.95-1.85l-2.95-3.7q-.2-.3-.1-.45l.2-.15q.55-.15 1.45.45 1.8 1.2 3.3 2.7v-.15q0-1.25-.35-2.25-.25-.55.05-.8l.5.05.4.5.25.65.8 1.3q1.35-.55 3.35-1.15l.65-.15q.15-.45.45-.85.85-1.2 2.05-1.85l1.05-.9.15-.8.3-1.05.55-1.15-1.4-1.05-.9-.9-.35.2-.4.05-3.45 1.7-.75.15-.6.35-.9.25q-.1-.1.05-.3l.3-.2.9-.45.3-.25.2-.25.85-.55 2.95-2-.3-.55-1.25.65-9 3.45-.4.1-.25-.25q.45-.55 1.9-1.2l5.25-3q1.7-1.05 3-1.8-.2-1.15-.1-2.3.1-1.1.7-2.75.5-1.3.95-1.95l-.6-.55q-2.5-2.3-3.45-3.7-.2-.35-.05-.45l.3-.05q1.45.35 3.65 1.95V9.4q0-1.25.15-1.85l.95-2 .4-1.1q.2-.7.5-1.1.45-.55 1.25-.7.7-.1 1.35.4l.8 1 1 1.9.75 1 3.4-.45v-.65l-.1-1.3V3.2l.1-.85-.1-.25q0-.25.2-.15l1.4 4.6 1.9.2.35-.35q1.15-.95 2.4-2.65.75-1.15 1.3-1.4.5-.2 1 0l.8.6.35 1.25.5 1.75.4 1.75.05.55.8-.2 3.75-1.2 1.7-.6.45-.1q.2 0 .3.25l-.15.35-.4.1q-.6.2-1.6.9l-2.6 1.4-1.65 1.25-.45.4.05.45.1 1v.25q.35 1.4.35 3.15m-12.35 5.1-.75.8-.7.75q-.3.65.05.95l.55.05.95-.8q.5-.7.9-.85l1.8 1.6.65.4q.5.1.8-.3l.15-.85-.55-.8-1.65-1.6-.05-.3v-.25l-.2-.75q-.15-.4-.6-.4l-.15.05-.3.15q-.25.2-.25.75v.5l-.2.2zm-6.8-1.9q.3.85 1.15 1.15.6.25 1.3 0l1-.8.25-1.25q-.05-.7-.55-1.15-.45-.5-1.15-.55-.7-.1-1.25.3t-.8 1.05q-.2.65.05 1.25m12.35-1.3q-.15.95.55 1.6.45.4 1.1.5.7.05 1.2-.3l.75-.95q.2-.65 0-1.25l-.75-.9q-.55-.4-1.2-.35-.65.1-1.1.55t-.55 1.1"/><path fill="#fff" d="M42.5 17.55q.1-.65.55-1.1t1.1-.55q.65-.05 1.2.35l.75.9q.2.6 0 1.25l-.75.95q-.5.35-1.2.3-.65-.1-1.1-.5-.7-.65-.55-1.6m-12.35 1.3q-.25-.6-.05-1.25.25-.65.8-1.05t1.25-.3q.7.05 1.15.55.5.45.55 1.15l-.25 1.25-1 .8q-.7.25-1.3 0-.85-.3-1.15-1.15m6.8 1.9.45-.7.2-.2v-.5q0-.55.25-.75l.3-.15.15-.05q.45 0 .6.4l.2.75v.25l.05.3 1.65 1.6.55.8-.15.85q-.3.4-.8.3l-.65-.4-1.8-1.6q-.4.15-.9.85l-.95.8-.55-.05q-.35-.3-.05-.95l.7-.75z"/></g></svg>