<svg xmlns="http://www.w3.org/2000/svg" xmlns:ffdec="https://www.free-decompiler.com/flash" ffdec:objectType="shape" width="75.2" height="42.65"><g fill-rule="evenodd"><path fill="#999" d="M52.8 40.9H0V0h75.2v40.9h-9.75l.1-.35v-1l-.1-.95.35.2q1 .6 1.65.7l.8-.1.7-.05.55-.15.85-.55q.6-.55.85-1.4l-.15-1.45q-.3-.95-1.05-1.55l-.65-.45-.65-.25q-.65-.15-1.25 0-.55.1-1 .3l-.25-.3-1.45-2-.25-1.35 2.35-.55 1.5-.65q.95-.65 1.75-2.5 1.05-2.3 1.05-3.7-.05-1.5-1.3-3.35l.8-.85.4-.75.05-.4-.05-.25-.5-1.05q-.4-.5-1.05-.5l-1.3.1-.5-.05-.55.05-.5.15-.9-.55-.9-.6-.55-.25-1.8-.4-.25-.25L61 12.8l-.45-.3-.5-.15h-1q-.55.2-.75.55-.15.2-.35.95l-.2.35-.15.5-.25 1.4v.05l-.8.8-.7 1.1-.6 1.7-.2 1.2-.05.65-4.35-7.4q-.65-1.2-1.3-1.85-.9-.95-2-1.1-.65-.1-1 .25-.35.4-.25 1.1l.1.9-.4-.05-5.3-4.6q-3.1-2.55-5.85-3.9-2.35-1.3-3.85-.6-1.1.5-1.4 1.75-.35 1.25.3 2.25.5.8 2.45 2.05 2.3 1.4 5.3 3.95l5.05 4.4 7.9 6 2.75 2.95 2.6 2.55-.5 1.1-1.2 2.8-.5 2.4-.65 1.75q-.35 1.05-.3 1.75zm7.65-22.1.05.5.3 1.25q.3.8 1.1 1.85l.3.45q-.4.65-1.15 1l-1.6.25q-.8-.1-1.4-.7t-.8-1.4.15-1.55q.3-.8 1-1.25.65-.45 1.5-.45zm4.95 5.8 1.85-.05q.65-.15 1.15-.65l.45-.7.45.3q.6.55.75 1.4t-.25 1.55-1.15 1.05l-1.6.1-1.3-.9q-.5-.7-.45-1.55z"/><path fill="#fff" d="M65.45 40.9q-.35.75-1.15.95-.5.6-1.45.75h-1.7l-1.75-.05-1.6-.4-.55-.4-1.05.65-1.6.1-1.4-.9-.4-.7-.2-.85q-.05-.7.3-1.75l.65-1.75.5-2.4 1.2-2.8.5-1.1-2.6-2.55-2.75-2.95-7.9-6-5.05-4.4q-3-2.55-5.3-3.95-1.95-1.25-2.45-2.05-.65-1-.3-2.25.3-1.25 1.4-1.75 1.5-.7 3.85.6 2.75 1.35 5.85 3.9l5.3 4.6.4.05-.1-.9q-.1-.7.25-1.1.35-.35 1-.25 1.1.15 2 1.1.65.65 1.3 1.85L55 21.6l.05-.65.2-1.2.6-1.7.7-1.1.8-.8v-.05l.25-1.4.15-.5.2-.35q.2-.75.35-.95.2-.35.75-.55h1l.5.15.45.3 1.25 1.05.25.25 1.8.4.55.25.9.6.9.55.5-.15.55-.05.5.05 1.3-.1q.65 0 1.05.5l.5 1.05.05.25-.05.4-.4.75-.8.85q1.25 1.85 1.3 3.35 0 1.4-1.05 3.7-.8 1.85-1.75 2.5l-1.5.65-2.35.55.25 1.35 1.45 2 .25.3q.45-.2 1-.3.6-.15 1.25 0l.65.25.65.45q.75.6 1.05 1.55l.15 1.45q-.25.85-.85 1.4l-.85.55-.55.15-.7.05-.8.1q-.65-.1-1.65-.7l-.35-.2.1.95v1zm-5-22.1-.55-.05q-.85 0-1.5.45-.7.45-1 1.25-.35.75-.15 1.55t.8 1.4 1.4.7l1.6-.25q.75-.35 1.15-1l-.3-.45q-.8-1.05-1.1-1.85l-.3-1.25zm4.95 5.8-.1.55q-.05.85.45 1.55l1.3.9 1.6-.1q.75-.35 1.15-1.05t.25-1.55-.75-1.4l-.45-.3-.45.7q-.5.5-1.15.65z"/><path d="m51.65 11.25-.4 3 .75-.05 3 .1-1.7-6.25-.65-1.3q-.65 2.15-1 4.5M32.2 2.65l5.05-.1h4.15l9.85.8 1 .25q.65.05 1.25.6l1.15 1.7.55 1.05.3.7.25 1q.45 2.2 1.2 4.4l.45 1.4v1.15q-.3.75-1.2.95l-1.6.1-1.95-.1h-1.9q-.45 1.15-1.2 1.7 1.4.55 1.65 1.25.2.45 0 1.5-.35 1.75-.45 5.25V29l.65.05.5.1.4-.15.85-.15h1.05l1.7.2q.95.4.9 1.3l-.15.5-.85 4.3-.45 1.55-.05.15-.2.75-.35.85-.85.5-.75.05-.75.05-.55-.35-4.55.05q-4.6.2-7.65 0l-2.6-.15-2.6-.05-5.4.5-4.2.05-2.55-.35-1.15-.4-1.05.15-2.4.3-1.2-.05-.9.15-2.25.15-1.35-.1q-.7-.25-1.4-1.5l-2.65-4.9Q7 30.8 6.8 30q-.25-1-.35-2.25-.6-5.75-.2-11.85l.45-4.85q.35-2.85.7-3.8L8.85 3.8q.45-1.3.85-1.6l1.4-.25 6.85.7h9.4q1.25 0 1.6.6l.55.85q.05-.8 1.05-1.2zm21.35 32.9.1.25.15-.4.75-4.35-1.55.1-.7.1-.85.05h-.2l.85 1.7zM26.05 4.7l-7.4-.6h-.2l-7.4.3-.8 1.95L9.5 8.4q-.4 1.45-.6 3.7l-.5 4.2q-.35 2.8-.3 4.6l.35 3.35L8.5 26l.15 1.7q.3 2.05 1.85 4.7l2.6 4.45 1.7-.15 1.4-.05 1.5-.15 1.85-.15 1.15-.25q-.55-.7-1.2-.9l-.55-.2q-.3-.2-.15-.45l.9-.1.95.15h.9l.75.75.95 1.05.3.35h1.15q9-.6 17.6-.25l8.6.45-1.45-3Q48.4 31.9 48.2 30.4q-.15-1 .05-2.9l.65-6.95-1.3-.5q-.65-.35-.75-.75-.1-.3.2-.9l.55-.95.5-.9.9-1.35.3-1.5q.5-4.2 1.6-7.9l-3.7-.2q-5.25-.5-14.6-.2l-1.15.2-1 .8-1.1.25q-.65-.05-1.1-.45l-.5-.65-.6-.6z"/><path fill="#fff" d="M51.65 11.25q.35-2.35 1-4.5l.65 1.3L55 14.3l-3-.1-.75.05zM26.05 4.7l1.1.25.6.6.5.65q.45.4 1.1.45l1.1-.25 1-.8 1.15-.2q9.35-.3 14.6.2l3.7.2q-1.1 3.7-1.6 7.9l-.3 1.5-.9 1.35-.5.9-.55.95q-.3.6-.2.9.1.4.75.75l1.3.5-.65 6.95q-.2 1.9-.05 2.9.2 1.5 1.25 3.55l1.45 3-8.6-.45q-8.6-.35-17.6.25h-1.15l-.3-.35-.95-1.05-.75-.75h-.9l-.95-.15-.9.1q-.15.25.15.45l.55.2q.65.2 1.2.9l-1.15.25-1.85.15-1.5.15-1.4.05-1.7.15-2.6-4.45q-1.55-2.65-1.85-4.7L8.5 26l-.05-1.75-.35-3.35q-.05-1.8.3-4.6l.5-4.2q.2-2.25.6-3.7l.75-2.05.8-1.95 7.4-.3h.2zm27.5 30.85L52.1 33l-.85-1.7h.2l.85-.05.7-.1 1.55-.1-.75 4.35-.15.4z"/><path d="M28.2 10.2q2-.4 3.6.55v-.05q.7-1.6 2.6-2 1.2-.25 2.4.4 1.65 1 1.8 3.15 0 1.25-.45 2.2l-.55.8-.75.55q-1 .6-1.8.8l-.05.5q-.2 1.5-1 2.75t-2 2.1l.05.05 1.3 2.2.5 1.05.3.6 1.35-2.75.85-1.8 1.05-2.65.35-.5q.35-.25.6 0v1.4L35.4 29.8l-.35.8-.3.45-1.15 1.45q-2 1.85-4.75 2.25-2.65.35-5.3-.65-2.3-.8-3.05-2.35-.4-.95-.4-1.9-.2-2.4.85-4.45l-.95.25-1.95.15-1.4-.15q-.55-.15-1.1-.7-1.1-1.2-.7-2.6.3-.9 1.2-1.4l1.1-.25.25-.5q.45-.55 1.05-.3.6.15.8.8v.5l-.05.25.25.2.35.2.6.05 1.8-.45.6-.2q-1.1-1.45-1.2-3.35l.25-2 .1-.25q-1.25-.2-1.8-.85l-.45-.7-.3-.75-.1-1.5.15-.95q.15-.65.85-1.5 1.1-1.3 2.65-1.5Q24.7 7.65 26 8.95q.7.7 1 1.6.75-.3 1.2-.35m1.65 4.4q-.4.1-.65.45-.3.35-.3.75 0 .8.9 1.35l1.25.55.05.05.6.2.55-.2.35-.1q.75-.2 1.1-.8.4-.6.1-1.3l-.45-.5q-.4-.4-.75-.4l-.9.1q-.25.05-.4.2-.7-.6-1.45-.35m.75 4.35-1.35-.3h-.2v-.05l-.1-.25-.15-.25-.3-.25-.4-.05-.35.45-.15.4-1.5.1-.7.15q-.35.2-.35.7.1.5.5.6h.7l.65-.2.95-.05 2.65-.45q.45-.1.35-.4zm-3.55-4.35q-.75-.25-1.45.35l-.4-.2-.9-.1q-.35 0-.75.4l-.45.5q-.3.7.1 1.3.35.6 1.1.8l.35.1.55.2.6-.2.05-.05 1.25-.55q.9-.55.9-1.35l-.3-.75z"/><path fill="#fff" d="M29.85 14.6q.75-.25 1.45.35.15-.15.4-.2l.9-.1q.35 0 .75.4l.45.5q.3.7-.1 1.3-.35.6-1.1.8l-.35.1-.55.2-.6-.2-.05-.05-1.25-.55q-.9-.55-.9-1.35 0-.4.3-.75.25-.35.65-.45m-2.8 0 .65.45.3.75q0 .8-.9 1.35l-1.25.55-.05.05-.6.2-.55-.2-.35-.1q-.75-.2-1.1-.8-.4-.6-.1-1.3l.45-.5q.4-.4.75-.4l.9.1.4.2q.7-.6 1.45-.35m3.55 4.35.25.15q.1.3-.35.4l-2.65.45-.95.05-.65.2h-.7q-.4-.1-.5-.6 0-.5.35-.7l.7-.15 1.5-.1.15-.4.35-.45.4.05.3.25.15.25.1.25v.05h.2z"/></g></svg>