<svg xmlns="http://www.w3.org/2000/svg" xmlns:ffdec="https://www.free-decompiler.com/flash" ffdec:objectType="shape" width="65.15" height="40.7"><g fill-rule="evenodd"><path fill="#999" d="M.1 20.85q.05-1.5 1.3-3.35l-.8-.85-.4-.75-.05-.4.05-.25.5-1.05q.4-.5 1.05-.5l1.3.1.5-.05.55.05.5.15.9-.55.9-.6.55-.25q.95-.45 1.8-.4L9 11.9l1.25-1.05.45-.3q.25-.15.5-.15h1q.55.2.75.55l.35.95.2.35.15.5.25 1.4v.05l.8.8.7 1.1.6 1.7.2 1.2.05.65 4.35-7.4q.65-1.2 1.3-1.85.9-.95 2-1.1.65-.1 1 .25.35.4.25 1.1l-.1.9.4-.05 5.3-4.6q3.1-2.55 5.85-3.9 2.35-1.3 3.85-.6 1.1.5 1.4 1.75.35 1.25-.3 2.25-.5.8-2.45 2.05-2.3 1.4-5.3 3.95l-5.05 4.4-7.9 6-2.75 2.95-2.6 2.55.5 1.1 1.2 2.8.5 2.4.65 1.75q.35 1.05.3 1.75-.05.85-.6 1.55l-1.4.9-1.6-.1L14 39.8l-.55.4-1.6.4-1.75.05H8.4q-.95-.15-1.45-.75-1-.25-1.25-1.3v-1l.1-.95-.35.2-1.65.7-.8-.1-.7-.05-.55-.15-.85-.55q-.6-.55-.85-1.4l.15-1.45q.3-.95 1.05-1.55l.65-.45.65-.25q.65-.15 1.25 0l1 .3.25-.3 1.45-2 .25-1.35-2.35-.55-1.5-.65q-.95-.65-1.75-2.5Q.1 22.25.1 20.85m10.7-4-.05.5-.3 1.25-1.1 1.85-.3.45 1.15 1 1.6.25q.8-.1 1.4-.7t.8-1.4-.15-1.55q-.3-.8-1-1.25-.65-.45-1.5-.45zm-4.95 5.8L4 22.6l-1.15-.65-.45-.7-.45.3q-.6.55-.75 1.4t.25 1.55 1.15 1.05l1.6.1q.8-.2 1.3-.9t.45-1.55z"/><path fill="#fff" d="m10.8 16.85.55-.05q.85 0 1.5.45.7.45 1 1.25.35.75.15 1.55t-.8 1.4-1.4.7l-1.6-.25-1.15-1 .3-.45 1.1-1.85.3-1.25zm-4.95 5.8.1.55q.05.85-.45 1.55t-1.3.9l-1.6-.1q-.75-.35-1.15-1.05t-.25-1.55.75-1.4l.45-.3.45.7L4 22.6z"/><path d="M45.2 2.75 44.1 3l-.6.6-.5.65q-.45.4-1.1.45l-1.1-.25-1-.8-1.15-.2q-9.35-.3-14.6.2l-3.7.2q1.1 3.7 1.6 7.9l.3 1.5.9 1.35.5.9.55.95.2.9-.75.75-1.3.5.65 6.95.05 2.9q-.2 1.5-1.25 3.55l-1.45 3 8.6-.45q8.6-.35 17.6.25h1.15l.3-.35.95-1.05q.45-.65.75-.75h.9l.95-.15.9.1-.15.45-.55.2q-.65.2-1.2.9l1.15.25 1.85.15 1.5.15 1.4.05 1.7.15 2.6-4.45q1.55-2.65 1.85-4.7l.15-1.7.05-1.75.35-3.35q.05-1.8-.3-4.6l-.5-4.2q-.2-2.25-.6-3.7L61 4.4l-.8-1.95-7.4-.3h-.2zM39.05.7l1.65.25q1 .4 1.05 1.2l.55-.85q.35-.6 1.6-.6h9.4l6.85-.7 1.4.25q.4.3.85 1.6l1.45 3.45q.35.95.7 3.8l.45 4.85q.4 6.1-.2 11.85l-.35 2.25-1.15 2.55-2.65 4.9q-.7 1.25-1.4 1.5l-1.35.1-2.25-.15-.9-.15-1.2.05-2.4-.3-1.05-.15-1.15.4-2.55.35-4.2-.05-5.4-.5-2.6.05-2.6.15q-3.05.2-7.65 0l-4.55-.05-.55.35-.75-.05-.75-.05-.85-.5-.35-.85-.2-.75-.05-.15-.45-1.55-.85-4.3-.15-.5q-.05-.9.9-1.3l1.7-.2h1.05l.85.15.4.15.5-.1.65-.05V24.3l-.45-5.25q-.2-1.05 0-1.5.25-.7 1.65-1.25-.75-.55-1.2-1.7h-1.9l-1.95.1-1.6-.1q-.9-.2-1.2-.95-.15-.55 0-1.15l.45-1.4 1.2-4.4.25-1 .3-.7.55-1.05q.7-1.3 1.15-1.7.6-.55 1.25-.6l1-.25 9.85-.8H34zM19.6 9.3l-1-4.5-.65 1.3-1.7 6.25 3-.1.75.05zm-1.9 24.3 1.45-2.55.85-1.7h-.2l-.85-.05-.7-.1-1.55-.1.75 4.35.15.4z"/><path fill="#999" d="m45.2 2.75 7.4-.6h.2l7.4.3.8 1.95.75 2.05q.4 1.45.6 3.7l.5 4.2q.35 2.8.3 4.6l-.35 3.35-.05 1.75-.15 1.7q-.3 2.05-1.85 4.7l-2.6 4.45-1.7-.15-1.4-.05-1.5-.15-1.85-.15-1.15-.25q.55-.7 1.2-.9l.55-.2.15-.45-.9-.1-.95.15h-.9q-.3.1-.75.75L48 34.45l-.3.35h-1.15q-9-.6-17.6-.25l-8.6.45 1.45-3q1.05-2.05 1.25-3.55l-.05-2.9-.65-6.95 1.3-.5.75-.75-.2-.9-.55-.95-.5-.9-.9-1.35-.3-1.5q-.5-4.2-1.6-7.9l3.7-.2q5.25-.5 14.6-.2l1.15.2 1 .8 1.1.25q.65-.05 1.1-.45l.5-.65.6-.6zM17.7 33.6l-.1.25-.15-.4-.75-4.35 1.55.1.7.1.85.05h.2l-.85 1.7zm1.9-24.3.4 3-.75-.05-3 .1 1.7-6.25.65-1.3z"/><path d="m54.6 7.75.15.15.5.5.45.8.2.35.4 1.1.05 1.9-.1.65-.1.7-.9 1-.15.2-.35.35-1.05.3-.5.05q.35 1.9.05 4.4L53 21.55q1.25-.6 2.15-.7h.2l1.55-.15 1.05-.1.25.1.6.8.05 1.25q-.1 1.7-.8 4.9l-.35.85-.8.25h-.45L56 28.7l-1.45.15-.65.1h-.8l-1-.1-.95-.1-.75-.65-.1-.4V27l.05-1.05-.95.8q-2.15 1.55-3.6 1.9-1.55.4-4.7 0l-.55-.1-.05.25-.25 1.05-.05.05v.35q-.15.75-.95.75l-.6-.05-.9-.05-2.55-.2-.55-.05-.75-.4-.5-.65v-.45q-.1-.6.15-1.05l-.1-.1q-.25-.3-.15-.65-.05-.3.25-.55h.05l.35-.25.55-.15h.55q-2-1.5-2.75-3.55l-.2-.55q-.6-1.95-.1-4.45l.5-1.65h-.1l-.3.05-.55-.1-.7-.1q-1.05-.3-1.65-1.15l-.15-.25q-.45-.75-.4-1.65 0-1.1.95-1.9.35-.35.75-.5.5-.3.85-.25l.1-.05.55.15h.05l.05-.1.25-1.2.15-.6-.7-.7q-.3-.6-.05-1.35.45-1.05 1.4-1.05l.55.1q.85.3 1.15 1l.15-.1 1 .3.4.25.3.35.15.7-.25.95-.75.6-.6.2-.5.1-.15.2-.6 1.2q.55.55.75 1.2 1.1-1.4 2.6-2.2l2.3-.9.65-.2L43 8.75l2.2.45 2.1.3.75.25.65.35.1-.6.2-.45.2-.4h.05l.5-.5 1.25-.8.7-.35.2-.05.7-.05h.15q.65 0 1.15.3zm-27.05 19.4-.1-.1-.25-.5-.4-.5-.75-1.8v-.35l.1-.25q0-.4.45-.5.25 0 .3.15l.5.65.55.5.15.35.1.1.65.55-.55-1.3-.1-.2-.35-.95.1-1.3.15-.75.1-.3q.1-.15.35-.15l.3.1.2.5.45 2.3.35.9q.1-1.5.65-2.5l.35-.3.2-.05.25.05.15.4.1 1.6.1 1.15.3 1.25.05.3.1.05q.35.4.15 1.45l-.3.75-.7.65h-.1l-1.3.5-1.5-.25-.65-.3q-.3-.3-.1-.6l.85-.2H29l-.1-.05-1.25-.95zm16.75-22 .5-.5.25-.5.6-.2h.4l1-.3q.4-.1.7.15.3.2.4 1.1l.05.15.1 1.3q0 .6.15 1.1l.1.5v.4l-.1.4-1.2.2-.8-.1-.55-.2-1.2-.05-.7-.25-.6-.2-.35-.2-.3-.3-.2-.45q0-.45.5-.85zm9.6 4.9-.85-.9-.25-.1.05.25.6 1.9.85 1.4q.35-1.35-.4-2.55M45.8 5.6l-1.15 1.15.65.2h.65l.8.15v-.7l-.2-.95zm6.25 4.7-.05-.2-.05-.15-.1-.95-.35.1-.5.55-.05.15-.05.7.1.5.3 1.05.35.4.35.45 1.1.4.1.05L53 13q-.7-1.55-.95-2.7m-14.4 13.65.15.1 1.35.85q.55.3 1.85.6l4.25.3q1.2-.3 3.1-1.8l1-1q.65-.8.95-2.4.65-3.5-1-5.7l-1.25-1.2-.5-.4q-.9-.6-1.5-.65H44.8l-.35-.1-1.3-.4-1.65.1q-2.55.65-4.25 2.7-1.6 2.1-1.7 4.75v.25q-.05 1.45.6 2.45zm8.6-8.55.15.4-.05.45-.35.3-.7-.1h-.1l-1.25.1q-1.5.3-2.05.8l-.65.95q-.4 1.15-.1 1.65l.2.25 1.1.4.8-.05 1.1-.6q.7-.45 1.1-.55.8-.15 1.3.35.55.55.45 1.3-.1.85-1.25 1.55l-.5.3.05.85q-.25.75-1.05.85-.65.1-1.2-.55l-.25-.5-1.1.05-1.25-.2-1.5-1-.6-.75-.5-.8-.05-.8q0-1.1.25-1.9l.3-.8q.5-1.1 1.65-1.8l.7-.25-.05-.55.2-.7q.35-.5.8-.65.6-.15 1.05.2l.1.1.35 1.05q1.65-.2 2.45.3zm8.55 7.4-.15.05v.35l-.05.8h1.5l.25-1.9zm-1.9 3.3v.1l2.9.05.1-.7-.95-.15q-.9-.1-1.15-.45l-.1-.15q-.15-.3-.05-.95l.2-.65-.8.35-.2.15-.05.25zm-16.4 3.05 1.95.05.3-.1.1-.35-.1-.35-1.25-.35-1.3-.1h-1.3v.15l-.2.9z"/><path fill="#fff" d="M48.2 5.05q1.1.15 2.75.95l1.3.7 3.3-2.25q.6-.4.95-.45.55-.2.9.3.45.65-.65 1.65l-2.15 1.8-.7-.55q-.5-.3-1.15-.3h-.15l-.7.05-.2.05-.7.35-1.25.8-.5.5-.7-.3v-.4l-.1-.5q-.15-.5-.15-1.1zm7.7 4.5q1.25 1.45 1.8 3.1l.55 2.8q.25 2.25.1 4.1l-.15 1.15-.25-.1-1.05.1-1.55.15q.45-2.7-.25-5.75l.15-.2.9-1 .1-.7.1-.65-.05-1.9zm-2 19.4-.75.6q-2.9 2.3-7.3 3.05-3.3.5-8 .05l-2.9-.65q-1.05-.5-2.3-1.65l-.9-.8-2.95 2.6-1.65 1.1-1.9-.05q-.8-.4-.95-1.4-.2-.9.25-1.75l1.1-1.4 1.4-1.15.5-.35.1.1 1.25.95.1.05h-.55l-.85.2q-.2.3.1.6l.65.3 1.5.25 1.3-.5h.1l.7-.65.3-.75q.2-1.05-.15-1.45l-.1-.05-.05-.3-.3-1.25-.1-1.15.35-.3.4-.35q.75 2.05 2.75 3.55h-.55l-.55.15-.35.25h-.05q-.3.25-.25.55-.1.35.15.65l.1.1q-.25.45-.15 1.05v.45l.5.65.75.4.55.05 2.55.2.9.05.6.05q.8 0 .95-.75v-.35l.05-.05q4.4.2 7.4-.7 1.5-.35 2.75-1.05l.75.65.95.1 1 .1zM28.2 24.9q-1.4-3.4-.1-7.7.4-1.35.95-2.55l.15.25q.6.85 1.65 1.15l.7.1.55.1q-.45 1-.75 2.15-.4 1.6-.3 3.05l-.2.05-.35.3q-.55 1-.65 2.5l-.35-.9-.45-2.3-.2-.5-.3-.1q-.25 0-.35.15l-.1.3-.15.75-.1 1.3.35.95.1.2.55 1.3zm3.65-14.45.1-.1-.05.1zM36.25 7q1.9-1 4.1-1.35l3.1-.4.85-.1-1.25 1.2q-.5.4-.5.85l.2.45.3.3.35.2.6.2q-2.8.45-4.5 1.05l-2.3.9q-1.5.8-2.6 2.2-.2-.65-.75-1.2l.6-1.2.15-.2.5-.1.6-.2.75-.6.25-.95-.15-.7zm17.65 3.05q.75 1.2.4 2.55l-.85-1.4-.6-1.9-.05-.25.25.1zM45.8 5.6l.75-.15.2.95v.7l-.8-.15h-.65l-.65-.2zm2.25 4.15.95-.7-.2.45-.1.6zM51 11l-.1-.5.05-.7.05-.15.5-.55.35-.1.1.95.05.15.05.2-.2-.1-.25.2zm-2.95 2.7-1.8 1.7-.45-.35q-.8-.5-2.45-.3L43 13.7l1.45-1.15.35.1h1.25q.6.05 1.5.65zm-2.85 2.75-3.85 3.75-.2-.25q-.3-.5.1-1.65l.65-.95q.55-.5 2.05-.8zm-6.05 5.95-1.2 1.2-.3.35-1.5-1.55q-.65-1-.6-2.45l3-2.6-.3.8q-.25.8-.25 1.9l.05.8.5.8zm15.5.8.15-.4 1.55-.7-.25 1.9h-1.5zm-.85 1.75q.25.35 1.15.45l.95.15-.1.7-2.9-.05v-.1zM34.9 28.1l1.6 1.05-1.8-.15z"/></g></svg>