<svg xmlns="http://www.w3.org/2000/svg" xmlns:ffdec="https://www.free-decompiler.com/flash" ffdec:objectType="shape" width="65.15" height="40.7"><g fill-rule="evenodd"><path fill="#999" d="M.1 20.85q.05-1.5 1.3-3.35l-.8-.85-.4-.75-.05-.4.05-.25.5-1.05q.4-.5 1.05-.5l1.3.1.5-.05.55.05.5.15.9-.55.9-.6.55-.25q.95-.45 1.8-.4L9 11.9l1.25-1.05.45-.3q.25-.15.5-.15h1q.55.2.75.55l.35.95.2.35.15.5.25 1.4v.05l.8.8.7 1.1.6 1.7.2 1.2.05.65 4.35-7.4q.65-1.2 1.3-1.85.9-.95 2-1.1.65-.1 1 .25.35.4.25 1.1l-.1.9.4-.05 5.3-4.6q3.1-2.55 5.85-3.9 2.35-1.3 3.85-.6 1.1.5 1.4 1.75.35 1.25-.3 2.25-.5.8-2.45 2.05-2.3 1.4-5.3 3.95l-5.05 4.4-7.9 6-2.75 2.95-2.6 2.55.5 1.1 1.2 2.8.5 2.4.65 1.75q.35 1.05.3 1.75-.05.85-.6 1.55l-1.4.9-1.6-.1L14 39.8l-.55.4-1.6.4-1.75.05H8.4q-.95-.15-1.45-.75-1-.25-1.25-1.3v-1l.1-.95-.35.2-1.65.7-.8-.1-.7-.05-.55-.15-.85-.55q-.6-.55-.85-1.4l.15-1.45q.3-.95 1.05-1.55l.65-.45.65-.25q.65-.15 1.25 0l1 .3.25-.3 1.45-2 .25-1.35-2.35-.55-1.5-.65q-.95-.65-1.75-2.5Q.1 22.25.1 20.85m10.7-4-.05.5-.3 1.25-1.1 1.85-.3.45 1.15 1 1.6.25q.8-.1 1.4-.7t.8-1.4-.15-1.55q-.3-.8-1-1.25-.65-.45-1.5-.45zm-4.95 5.8L4 22.6l-1.15-.65-.45-.7-.45.3q-.6.55-.75 1.4t.25 1.55 1.15 1.05l1.6.1q.8-.2 1.3-.9t.45-1.55z"/><path fill="#fff" d="m10.8 16.85.55-.05q.85 0 1.5.45.7.45 1 1.25.35.75.15 1.55t-.8 1.4-1.4.7l-1.6-.25-1.15-1 .3-.45 1.1-1.85.3-1.25zm-4.95 5.8.1.55q.05.85-.45 1.55t-1.3.9l-1.6-.1q-.75-.35-1.15-1.05t-.25-1.55.75-1.4l.45-.3.45.7L4 22.6z"/><path d="m39.05.7 1.65.25q1 .4 1.05 1.2l.55-.85q.35-.6 1.6-.6h9.4l6.85-.7 1.4.25q.4.3.85 1.6l1.45 3.45q.35.95.7 3.8l.45 4.85q.4 6.1-.2 11.85l-.35 2.25-1.15 2.55-2.65 4.9q-.7 1.25-1.4 1.5l-1.35.1-2.25-.15-.9-.15-1.2.05-2.4-.3-1.05-.15-1.15.4-2.55.35-4.2-.05-5.4-.5-2.6.05-2.6.15q-3.05.2-7.65 0l-4.55-.05-.55.35-.75-.05-.75-.05-.85-.5-.35-.85-.2-.75-.05-.15-.45-1.55-.85-4.3-.15-.5q-.05-.9.9-1.3l1.7-.2h1.05l.85.15.4.15.5-.1.65-.05V24.3l-.45-5.25q-.2-1.05 0-1.5.25-.7 1.65-1.25-.75-.55-1.2-1.7h-1.9l-1.95.1-1.6-.1q-.9-.2-1.2-.95-.15-.55 0-1.15l.45-1.4 1.2-4.4.25-1 .3-.7.55-1.05q.7-1.3 1.15-1.7.6-.55 1.25-.6l1-.25 9.85-.8H34zm6.15 2.05L44.1 3l-.6.6-.5.65q-.45.4-1.1.45l-1.1-.25-1-.8-1.15-.2q-9.35-.3-14.6.2l-3.7.2q1.1 3.7 1.6 7.9l.3 1.5.9 1.35.5.9.55.95.2.9-.75.75-1.3.5.65 6.95.05 2.9q-.2 1.5-1.25 3.55l-1.45 3 8.6-.45q8.6-.35 17.6.25h1.15l.3-.35.95-1.05q.45-.65.75-.75h.9l.95-.15.9.1-.15.45-.55.2q-.65.2-1.2.9l1.15.25 1.85.15 1.5.15 1.4.05 1.7.15 2.6-4.45q1.55-2.65 1.85-4.7l.15-1.7.05-1.75.35-3.35q.05-1.8-.3-4.6l-.5-4.2q-.2-2.25-.6-3.7L61 4.4l-.8-1.95-7.4-.3h-.2zM19.6 9.3l-1-4.5-.65 1.3-1.7 6.25 3-.1.75.05zm-1.9 24.3 1.45-2.55.85-1.7h-.2l-.85-.05-.7-.1-1.55-.1.75 4.35.15.4z"/><path fill="#999" d="m17.7 33.6-.1.25-.15-.4-.75-4.35 1.55.1.7.1.85.05h.2l-.85 1.7zm1.9-24.3.4 3-.75-.05-3 .1 1.7-6.25.65-1.3zm25.6-6.55 7.4-.6h.2l7.4.3.8 1.95.75 2.05q.4 1.45.6 3.7l.5 4.2q.35 2.8.3 4.6l-.35 3.35-.05 1.75-.15 1.7q-.3 2.05-1.85 4.7l-2.6 4.45-1.7-.15-1.4-.05-1.5-.15-1.85-.15-1.15-.25q.55-.7 1.2-.9l.55-.2.15-.45-.9-.1-.95.15h-.9q-.3.1-.75.75L48 34.45l-.3.35h-1.15q-9-.6-17.6-.25l-8.6.45 1.45-3q1.05-2.05 1.25-3.55l-.05-2.9-.65-6.95 1.3-.5.75-.75-.2-.9-.55-.95-.5-.9-.9-1.35-.3-1.5q-.5-4.2-1.6-7.9l3.7-.2q5.25-.5 14.6-.2l1.15.2 1 .8 1.1.25q.65-.05 1.1-.45l.5-.65.6-.6z"/><path d="m57.4 16.55.1.15q.3.45.2 1.3l-.15.65-.4 1.15.35 1 .05.2q.45 1.8-.25 3.25l.35 1.6-.25.9-.75.5-.65-.05-.5-.1-.15-.05-.6.05-.75.3-1.75.15-1.85-.15-.75-.2q-1.25-.45-2.1-1.45l-.3.2-1.45.7q-2.45.9-6 .9l-2.55-.4-.55-.35-.55-.4-1.25.05-.95-.05-.25-.05-2.1-.75q-1.2-.55-1.5-.85l-.3-.35-.2-.4-.45-1.4-.25-1.95.05-.75.4-.75.45-.45q.7-.45 1.45-.4.75.1 1.35.65l.55.75.1.55v1.15l.2.65.35.35.8.55q.1-1.1.8-2l-.3-.8-.15-.5L34.4 18q-.25-1-.15-1.75.15-.75.75-1.3.6-.6 1.4-.75l1.35.1q.75.35 1.3 1.5l.2.55.2.95.2 1.35q.5-.2.95-.25l2.8.15.3.05.25.05v-.25L44 16l.15-.8.5-1.25q.25-.65.6-.95.7-.6 1.75-.5h.1l.8.4q.85.65.85 2v.05l-.4 2.2-.05.55.9-.7q1.1-.65 2.75-.55l1.7.2.25-.1.25-.1 1.6-.3q1.15-.1 1.65.4m-4.8 5.4.65-.8H54l.4-.1.25-.3-.25-.35-.3-.05-.1-.05-.45-.25.15-.65.05-.6-.3-.25h-.35l-.25.3-.5.8-.85-.15-.4.35-.1.5.5.5h.25l.1.75q.25.5.75.35m1.45 2.55.25-.3q.1-.35-.35-.45l-.6.15-.4.25-.3-.35-.3-.4-.75-.05q-.45.2-.45.6l.15.65.25.35-.35.55.05.25.65.25q.2-.05.35-.15l.2-.1.2.2.4.3.45-.05.15-.4-.15-.3-.1-.4z"/><path fill="#fff" d="M29.35 19.15q.25-2.6 1.45-4.8 1-1.75 3.3-4.05 2.35-2.25 4.4-3.25 2.7-1.3 7.65-1.5l3.75.3q2.35.65 4.1 2.6 1.75-.9 2.9-1.1.95-.2 1.15.35.2.45-.6 1.15L55.4 10.3q1.2 2.05 1.75 4.95l.25 1.3q-.5-.5-1.65-.4l-1.6.3-.25.1-.05-.2q-.4-2.45-1.3-4.05l-1.35.9-2.45 1.75v-.05q0-1.35-.85-2l-.8-.4H47l3.7-2.25q-.9-.6-2-.7h-2.5q-1.65-.2-1.95-1.35-3.4.15-6.85 3.4-2.45 2.25-3.4 4.5-.8 1.75-.85 3.6l-.55-.75q-.6-.55-1.35-.65-.75-.05-1.45.4zm28.2-.5-.05 2.15-.35-1zM55.5 27.1l-.65.9Q52 31.5 47.2 32.65l-6.5.2q-4.15-.9-8.4-4.9l-.25-.2-2.05 1.8q-1.75 1.55-2.9 1.5-.9-.05-1.5-.9-.6-.8-.45-1.7.2-1.1 1.9-2.5L29.6 24l.2.4.3.35q.3.3 1.5.85l2.1.75.25.05.95.05 1.25-.05.55.4.15.15q2.2 1.7 4.8 2.25 3.75.85 7.05-.75.95-.45 1.7-1.05l1.85.15L54 27.4l.75-.3.6-.05zM44.65 13.95l-.5 1.25-.15.8-.05 2.4-.25.2-.3-.05-2.8-.15q-.45.05-.95.25l-.2-1.35 4.35-2.85zm7.95 8q-.5.15-.75-.35l-.1-.75h-.25l-.5-.5.1-.5.4-.35.85.15.5-.8.25-.3h.35l.3.25-.05.6-.15.65.45.25.1.05.3.05.25.35-.25.3-.4.1h-.75zm1.45 2.55-.65.6.1.4.15.3-.15.4-.45.05-.4-.3-.2-.2-.2.1q-.15.1-.35.15l-.65-.25-.05-.25.35-.55-.25-.35-.15-.65q0-.4.45-.6l.75.05.3.4.3.35.4-.25.6-.15q.45.1.35.45zm-20.8-3.1 1.85-1.25.3.8q-.7.9-.8 2l-.8-.55-.35-.35z"/></g></svg>