<svg xmlns="http://www.w3.org/2000/svg" xmlns:ffdec="https://www.free-decompiler.com/flash" ffdec:objectType="shape" width="76.9" height="39.85"><g fill-rule="evenodd"><path fill="#999" d="m70.1 9.75-.35.55-.8.7-.25.35-.3.55-.25.25-.25-.3.2-.4.4-1.5.55-1.4L71 4.15q.45-1.4.9-1.75.3-.3.8-.3.95 0 1.25.8.25.7-.45 1.9l-1.55 2.05q-1 1.35-1.85 2.9m-3.75 1.9-.45.45-.95.65v.2l-.2.45q-.25.1-.45-.25l-.1-.15-1.85-.35q-1.1-.6-1.25-1.9l.1-.9.65-1.3L61.6 8q-.85 1-2.25.8-1.45-.25-1.85-1.65-.45-1.4.65-2.4.55-.55 1.25-.65l-1.15-1.6-.5-.7q-.25-.75.2-1.35.5-.55 1.3-.4.75.25 1.2 1.3l1.95 5.4.4.85.4-.3 1.2-.25q1 0 1.65.45.8.5.95 1.4l.1.45q0 1.5-.75 2.3m-8.2 7.95q-.35-1.4.1-2.9.5-1.45 1.7-2.35l.65-.4 1.25-.25 1.05.05q1.5.25 2.4 1.6.95 1.6.25 3.75-.65 2.35-2.5 3.05l-2.5.05-.75-.4-.5-.4-.8-.9zm8.75 2.9 1.2-.1 1 .25 1.05.8.3.35.6.35q.85.5 1.25 1.45t.15 1.9q-.35 1-1.25 1.8-1.85 1.5-4.2 1.2-1.35-.1-2.25-.9l-.6-.7q-.75-.9-.9-1.6v-.55l-.65.5-1 .9-.55.6-.5.35-1.2.95-.95.85.05.15.7.5.65.6.65.4.6.45.3.3.45.25 1.1.75 1.2.7.9.95q.3.8-.3 1.5-.6.6-1.45.35l-.9-.65-1.55-1.85-.45-.45-.55-.9-.6-.4-.4-.3q-.2 1.7-1.75 2.65-.9.6-2.25.7-1.55.1-2.85-.75-1.2-.75-1.45-2.1-.1-.65.2-1.25.3-.65.9-.95.1-1.2 1.2-2.05.9-.7 2.3-.7l.85.05q.5.15.95.45l.85.65.1-.2 4.8-5.7.7-.6 1.3.1 1.25-.65zm5.25-6q.65-.05 1.3.35l.85 1q.6 1.4-.5 2.5-.5.45-1.2.6l-1.3-.15q-.7-.3-1.05-1-.4-.75-.25-1.5t.8-1.25q.6-.55 1.35-.55M53.95.95q.55.2.8.85.2.6-.15 1.1-.4.65-1.2.65-.4 0-.85-.35-.65-.55-.4-1.4.25-.75 1.1-.95zM45.1 23.4q-2.05.3-3.65-1.05-1-.85-1.3-1.9-.3-.95-.05-2.4l.35-1.1.7-.9L42.2 15q1.2-.8 3.1-.7h.15l4.1-7.95q.5-.95 1.05-1.3.95-.45 1.65.2.75.65.4 1.6l-.45.75-3.45 4.8-1.65 2.25q.8.3 1.55 1.3.6.8.95 2.3l.1 1.35q-.15 1.85-1.75 2.85l-1.05.45zM57.5 9.2l.35.6 1.35 1.75.75 1.15-.3.25-.35-.15-2.65-1.7-.55-.3-.45-.75q-.05-.5.25-.85t.8-.35.8.35m-23.25 1.1q.5-1.65 1.9-2.25 1.25-.45 2.6 0l1.1-3.15.2-.65.35-1.3.7-.7.95-.1q.5.1.85.45l.35.9q0 .7-.95 1.95l-.85 1.3-1 1.9-.15.45.3.4.5 1.1.05.7-.25 1.45-.65.95-1 .9q-1.45.85-2.85.3-1.55-.5-2.1-1.95-.55-1.3-.05-2.65m13.5-4.05q.1.9-.5 1.5-.8.8-1.8.45-1.05-.35-1.2-1.45-.1-.95.65-1.6.85-.6 1.75-.25.95.35 1.1 1.35m2.55 21.6q-.7-.05-1.25-.65-.6-.55-.7-1.3-.05-.7.35-1.4t1.1-.95l1.45-.05q.75.25 1.15.85.45.6.4 1.4t-.55 1.35q-.75.9-1.95.75m-3.75 6.9.85-.5q.75-.15 1.3.4.55.45.45 1.25-.15.9-1 1.15-.8.35-1.45-.3-.4-.35-.45-1-.05-.6.3-1m-10.1-6.95q-.25-.9.1-1.7.3-.65.95-1.05l1.4-.3q1.65.15 2.15 1.75.35 1.45-.65 2.4l.35-.05.45.1h.5q2.05-.2 3 1.4l.35.95q.4 1.8-1.05 3.5-.8.9-1.8 1.25-1.2.35-2.2 0-.95-.35-1.6-1.35-1.15-1.65-.65-3.45.25-.9.9-1.55l.2-.15h-.05q-.7.05-1.35-.3l-.5.6.45.75-.15.95-.65.7-.95.1-.6-.3-1.65 1.85-1.15 1.7-.75 1.1q-.45.65-1.1.7-.95.1-1.35-.65-.5-.7-.05-1.5.25-.5.95-.9l1.2-.65 1.75-1.5 1.6-1.55.1-.4q.4-.75 1.15-.8l1-.95zm39.4 3.25-.6.1-.65-.3-.5-.7q-.15-.5.05-.9.15-.4.6-.65l.85-.15q1 .2 1.15 1.2.1 1.05-.9 1.4M71.1 37.1q-.35-.3-.35-.8-.05-.45.2-.8.2-.25.6-.35l.35-.1q.35 0 .7.25l.4.6q.25.85-.5 1.35-.7.45-1.4-.15M34.4 6.85q-.2.5-.7.2l-.3-.35-.5-.3q-.55-.35-.95-1l-.85-1.1q-.8-1-.65-1.65.1-.65.75-.9l1.2.15.75 1.1 1.05 2.25.2 1.15zm5.35 14.35q0 .15-.2.15l-2.45.95-.85.55-1.3.55-1.4.5-2.95 1.45q-.8.25-1.5-.45t-.35-1.5q.25-.85 1.15-1.1l.95-.05.9-.2 3.55-.85h.9l1.6-.2 1.55-.1.3.05zm-11.5-2.75q.1-.8.7-1.25.6-.55 1.6-.35.95.25 1.25 1.05.35.75.05 1.55l-.95.9-1.3.15-1.05-.75q-.4-.65-.3-1.3m-2.2 14.75.65.45.2.75-.35.7-.7.35q-1 .1-1.25-.8-.25-.95.6-1.4z"/><path d="m71.6 7.85 1.15 1.05.65-.25.8-.1q.65 0 1.4.5l.95 1.1.3.65.05.65-.1.95q-.35 1.3-1.75 1.9l-1 .35-.35 1.2-.9 1.55-.9.8.1.25 1 1.25.75 1.5.2 2.2-.2 1.65q-.25 1.05-1.05 1.8l-1.05.9q-.15 1.15-.7 1.95-.75 1.05-1.95 1.15l-.8.15-.55.5q-.45.45-.25.7l1 .7 1.35.15.35-.1q.2-.1.35.15.15.3-.25.6l-.4.35-.75.05-1.9-.2-.9-.45-.55-.5-.3-.9q-.2-.55-.05-.9l.5-1 .55-.65q.55-.65 1.65-1l.7-.35q-2.15-.25-3.95-1.4-1.9-1.2-2.85-3.15-.9-2.15-.7-4.8.1-.95.35-1.65.3-.9 1-1.7l-.1-.25q-.85-1.95.2-4.45L63.8 9q-.5-.6-.55-1.25L63.3 7l.2-1.15q.45-1.4 1.9-2.1l2.85-.1.45.3.75.6.4.45.5 1.05.25 1.1v.2zm-6.4 4.9h.05l-.95.65q-.4.2-.4.65 0 .35.55.45l.75-.1.9-.25.5.4.7-.1.2-.3-.1-.2-.3-.35.7-.45.35-.6q0-.5-.5-.65l-.8-.05q-.2.05-.5.25l-.3-.55-.5-.2-.5.2q-.2.2-.25.5l.2.45zm6.3 4.15.05-.65.3-.15.7-.3q.35-.25.35-.7t-.55-.75l-.95.05-.25.15-.3-.75-.4-.25q-.3-.05-.5.4-.15.2-.05.6l.1.4-.4.2-.6.45q-.4.25-.3.5l.35.25 1.25.15.1.5.6.25zM49 29.6q-.3-2.45 1-4.7l.9-1.2-.2-.25q-1-1-1.45-1.95-.35-.9-.35-2.1-.15-2.3.8-3.85.4-.95 1.05-1.7.6-.7 1.25-1.05.6-.3 1.35-.45l-.45-.45-1.1-.05q-.55.2-.95.7l-.75.9-1 1.05-1.05.15-.55-.25-.2-.65.1-.4q.25-.25.5-.15l.25.35 2.1-3.05q1.05-1.25 2.35-1.4 1.55-.25 2.55.8l.4.55.55.95.25 1.1.4.1q1.35.4 2.15 1.05 1.1.85 1.45 2.45.35 1.2.2 2.9l-.3 1.95q-.3 1.15-1.3 2.7l.2.15q1.15 1.05 1.65 2.45.4 1.05.35 2.25l.8.75q1.1 1.45.4 3.15l-.9 1.1-.7.55-2.7.05-.6-.2-2.4.4-1.05-.1-.15.3q-.85 1.4-2.65 1.45l-.75-.05q-.95-.1-1.7-.9-.65-.85-.65-1.8l.05-.85.05-.4.55-.85.55-.5zm-2.8-13.35q.05 1-.45 2.3l-.4.7.45.4q2.2 2.15 2.55 5.15.4 3-1.05 5.75L46 32.2v.05l-.1.7q-.25 1.9-.8 2.6l-1.2 1.25q-1.25.9-2.8 1.15-1.8.2-3-.6l-.8-.5-.9-.15-.7.1-.7.35-.25.05q-.2-.2-.1-.35.05-.65.85-1.15.4-.25 1.3-.55l.9-.15 1.3.2 1.2.35q1.45.1 2.55-1.1l.5-.8.05-.25q-1.05.2-2.2 0-1.85-.3-3.15-1.65-1.95-2.2-1.25-5.4.25-1.3.95-2.45l-1.15-.45q-2.15-1.1-3.05-3.45v-.05l-.55.05q-1.45 0-2.45-1.15l-.4-.8-.1-.4-.1-1.35q.05-1 .75-1.75.75-.75 1.65-.9l.6-.1h.5l.7.15.15.05q.7-1 1.7-1.75 1.3-.85 2.75-1.1l.35-.05.1-.7q.2-.85.9-1.5.75-.65 1.55-.8l1.1-.05.95.15.75.4q.75.55 1.2 1.45.4 1 .2 1.95l-.3.85-.4.8q1.05 1.45 1.15 2.85m7.4 14.35-.3-.25.5-.55q.15-.5-.1-.85-.35-.3-.75-.25-.35.1-.65.45l-.4-.4-.8.15q-.35.3-.25.8l.5.6-.1.1-.2.4-.15.35.2.3.4.05q.4 0 .8-.35l.2.15.7.15.35-.3zm6-1.6-.2-.3-.3-.25.35-.6v-.8l-.35-.35q-.35-.2-.75 0l-.5.6v.2l-.1-.1-.55-.3q-.5-.1-.75.4-.2.5.15.85l.75.35h.1q-.1.4-.05.9l.2.35.3-.1.55-.35.1-.15.65.3.45-.05q.3-.2.2-.4zM42.25 17.7l.95-.1v-.55l-.4-.35-.7-.45v-.2l.35-1.2-.4-.5q-.35-.15-.65 0-.25.1-.5.7l-.3.6-.35-.1-1.3-.05q-.35.15-.4.6-.05.4.25.65l1.05.3.15.05q-.2.7-.05 1.15l.35.4q.45 0 .75-.3l.45-.7zM17.5 27.45l-.2.05q2.75.55 5.5.1 1.65-.3 4.6-1.4l1.15-.55.3-.25-.1-.15q-.7-1.2-.6-2.05.1-.65.65-1.05.55-.45 1.25-.45 1.15 0 1.65 1l.2.65h.05q1.4-.15 2.45.65 1.55 1.25 1.3 3.35-.3 1.9-2 3.05-1.65 1-3.05.5l-.85-.3-.85.25q-6.25 2.65-12.75 1.1-2.15-.5-3.6-1.35l-.3 2.15-.95 4.85q-.55 1.5-1.05 2l-.35.25h-2.2L6.9 39q-.5.45-1.05.55-1.25.3-2.25-.75l-1 1.05H0v-8.5l2.55-3.4 1.35-1.8-.4.15-.95.55-.35.35-1.8 2.3-.1.2-.3.4v-6.3l1.15-.6 1.1-.4 2.5-.65.9-.15q-.7-1.25-.95-2.25-.45-1.5-.35-3.75.15-4.3 2.1-7.05l1.2-1.4q.15-1.45.65-3.4l.35-1.05q.3-.55.95-.9l1.25-.2 1.4.5 1.85.85.85.55.2.1 3.65-.1q3.45.5 5.95 2.8l1.45 1.7 2.75.4 1.25.4q1.05.65.75 2.3l-1.1 2.25-2.25 3.35-.1.4q-.8 3.75-2.6 5.85-2.3 2.85-7.4 4.1m-4.65-6.7q-.45-.1-.7-.4l-.25-.55q-.2-.3-.6-.3t-.65.3q-.15.2-.15.65 0 .8.55 1.45.5.6 1.25.85l2.55.05.9 1.05 1.15.45q.85.15 2.2-.6.95-.5.8-1.15l-.4-.5-.7-.05-.95.35-.65-.6-.3-.8q-.35-.65-1-.65l-.45-.1-1.2.45zm-3.1-8.05q-1.4.8-1.7 2.4-.2 1.1.4 2.1h.45l2.45.2 1.7.55.45.25.95-1.15q.5-.9.4-1.85-.1-1.25-.95-2.1-.8-.8-2-.9t-2.15.5m25.65 7.7q-.2.15-.1.4l.25.4.8.2.1.55.25.45.6.1.2-.6.05-.2.95-.1.45-.2.15-.4q0-.35-.6-.5l-.6-.1.1-.65-.1-.95q-.4-.4-.85-.15l-.5.45q-.25.4-.25.95l-.45.05q-.35.1-.45.3m-11.05-4-.3-.15-.15.05-1.25.6-2.2.5-.7.05-.2.45q-.3.8-.25 1.55.05.8.65 1.45l.15.2.95.75q.85.55 1.95.4 1.05-.15 1.75-.95l.4-.5q.95-1.4.4-2.85-.3-1-1.2-1.55"/><path fill="#fff" d="m71.5 16.9-.5.35-.6-.25-.1-.5-1.25-.15-.35-.25q-.1-.25.3-.5l.6-.45.4-.2-.1-.4q-.1-.4.05-.6.2-.45.5-.4l.4.25.3.75.25-.15.95-.05q.55.3.55.75t-.35.7l-.7.3-.3.15zm-6.3-4.15-.2-.25-.2-.45q.05-.3.25-.5l.5-.2.5.2.3.55q.3-.2.5-.25l.8.05q.5.15.5.65l-.35.6-.7.45.3.35.1.2-.2.3-.7.1-.5-.4-.9.25-.75.1q-.55-.1-.55-.45 0-.45.4-.65l.95-.65zM42.25 17.7l-.75-.05-.45.7q-.3.3-.75.3l-.35-.4q-.15-.45.05-1.15l-.15-.05-1.05-.3q-.3-.25-.25-.65.05-.45.4-.6l1.3.05.35.1.3-.6q.25-.6.5-.7.3-.15.65 0l.4.5-.35 1.2v.2l.7.45.4.35v.55zM59.6 29l.25.2q.1.2-.2.4l-.45.05-.65-.3-.1.15-.55.35-.3.1-.2-.35q-.05-.5.05-.9h-.1l-.75-.35q-.35-.35-.15-.85.25-.5.75-.4l.55.3.1.1v-.2l.5-.6q.4-.2.75 0l.35.35v.8l-.35.6.3.25zm-6 1.6-.05.55-.35.3-.7-.15-.2-.15q-.4.35-.8.35l-.4-.05-.2-.3.15-.35.2-.4.1-.1-.5-.6q-.1-.5.25-.8l.8-.15.4.4q.3-.35.65-.45.4-.05.75.25.25.35.1.85l-.5.55zM24.35 16.4q.9.55 1.2 1.55.55 1.45-.4 2.85l-.4.5q-.7.8-1.75.95-1.1.15-1.95-.4l-.95-.75-.15-.2q-.6-.65-.65-1.45-.05-.75.25-1.55l.2-.45.7-.05 2.2-.5 1.25-.6.15-.05zm11.05 4q.1-.2.45-.3l.45-.05q0-.55.25-.95l.5-.45q.45-.25.85.15l.1.95-.1.65.6.1q.6.15.6.5l-.15.4-.45.2-.95.1-.05.2-.2.6-.6-.1-.25-.45-.1-.55-.8-.2-.25-.4q-.1-.25.1-.4M9.75 12.7q.95-.6 2.15-.5t2 .9q.85.85.95 2.1.1.95-.4 1.85l-.95 1.15-.45-.25-1.7-.55-2.45-.2h-.45q-.6-1-.4-2.1.3-1.6 1.7-2.4m3.1 8.05 1.4-.1 1.2-.45.45.1q.65 0 1 .65l.3.8.65.6.95-.35.7.05.4.5q.15.65-.8 1.15-1.35.75-2.2.6l-1.15-.45-.9-1.05-2.55-.05q-.75-.25-1.25-.85-.55-.65-.55-1.45 0-.45.15-.65.25-.3.65-.3t.6.3l.25.55q.25.3.7.4"/></g></svg>