<svg xmlns="http://www.w3.org/2000/svg" xmlns:ffdec="https://www.free-decompiler.com/flash" ffdec:objectType="shape" width="61.85" height="34.55"><g fill-rule="evenodd"><path fill="#999" d="M50.95 26.65q.25-.45.75-.6l.95-.05q.75.3 1.15 1.65l2.1-1.55.95-.9q.55-.35 1.2-.25.7.05 1.15.55.4.45.45 1.15t-.35 1.2l-1.1.85-4.2 2.55-.95.4q-.8.15-1.4-.55-.5-.55-.4-1.45l-.7.5-2.3 2.1q-.55.45-.9.35-.5-.15-.4-.7.05-.4.4-.8L48.5 30l2.2-2.7zM34.8 29.9l.4-2.7q.1-.9.3-1.3.25-.75.85-1.05 1.1-.45 1.75.45l.4 1.3.6 3.85.05.8q0 1.2-1.05 1.85l-2.1.15-1.05-.95q-.35-.75-.15-2.4M7.35 25.45l.35.8q.55 1.75 1.6 4l.9 1.9.15.4q.1.25-.15.35t-.6-.35l-.7-.85-.6-1-.75-1-.85-1.2q-.15.2-.55 1.8-.3 1.2-1.15 1.4-.6.1-1.2-.5l-.65-1.15L1.5 26.1.35 24.05q-.5-1.05-.3-1.8.25-1.15 1.45-1.3 1.2-.1 1.7.95l.3 1.35.7 1.6.75 1.55Q5.4 25.35 6 25.1q.75-.35 1.35.35m12.9-2.4q1.2-.6 1.5-.65l1.2-.1q1.9 0 2.75.45l.8.55.05-.2q.3-.6 1-.85l1.25.15q.55.4.85 1.4l.1.6-.1.8-.3 1.05-.55 1.3-.75.95-1.05.75-.8.95-1.35 1.15-.05.25q-.35 1.5-1.45 2.15-1.45.75-2.6-.25-.55-.45-.75-1.15l-.1-.45-1-.3q-1.05-.5-1.6-1.3-.9-1.15-.6-2.3.2-.65.7-1.05.55-.45 1.15-.4-.65-.95.1-2.05.45-.7 1.6-1.45"/><path fill="#fff" d="m43 8.9 1.35.1q.6.35.75 1.1.15.6-.2 1.2l-1 .7-1.2-.15q-.55-.35-.75-.95t.15-1.2q.3-.6.9-.8"/><path d="M37 4.7q.95.5 1.9 1.2l.9-.85.05-1.45.2-1.1.25-.85q0-.6.15-.85.35-.9 1.35-.8.1 0 .7.3l1.25.85 1.1 1.1.3.35q2.6-.7 4.85-.5 2.95.3 5.55 2.25l.8.65h.05l2.25-.3 1.05-.1.75-.05q.65.1 1.05.6.35.55.35 1.15l-.45 1.35-.75 1.4-.5.75-.15.8q.55 2.05.45 4.3-.25 3.05-1.8 5.5-1.85 2.95-4.95 3.95l-3.15.45q-2.8.15-4.65-.5l-.4-.15q-1.15 1.3-2.85 2.2l.25 1.1.2.6.15.9.2.55.15.75.2 1.35-.1.55q-.1.95-.4 1.35l-.6.55q-1 .6-1.95.45-1.05-.1-1.75-.95-.4-.65-.45-1.45v-1.75l.3-2.85q-2.6.4-6.05.1l-7.85-1.1q-.15.75-.7 1.45-.95 1.2-2.6 1.45l-1.45 1.45-1.45.8-.05.2q-.05 1.35-.5 1.85t-1.15.55q-.75 0-1.35-.4-1.1-.75-1.15-2.15-2.35-.7-3.9-2.9l-1-2.1q-1.05-2.9-.7-5.75-.45-.75-.6-1.8-.35-2.45.55-4.4.3-.7.7-1.25l-2.2.2-2.3-.2q-.85-.2-1.7-.8-1.45-1-2.05-2.5-.25-.75-.25-1.85 0-2.25.8-3.8 1.05-2 2.75-2.7l2.3-.15q.95.45 1.1 1.4.25.9-.45 1.75l-.75.6-.75.65q-.3.35-.55 1.5l.05.85q.2.65 1.15.85L11 9.1l2.8-.6q.85-1.95 2.3-3.2 3.1-2.75 9.65-2.9Q32.6 2.35 37 4.7m9 10.9.4.3.3.3.8.45q1.2.3 2.3-.3l.25.3.8.7.7.1.9.05.8-.4.85-.8.2-.7-.05-.5q-.25-.4-.65-.3l-.65.6-.5.4-.65.25-.6-.35-.8-1q-.35-.35-.7-.3l-.4.2-.4.35q-.7.45-1.55-.2l-.25-.25-.1-.35q-.1-.3-.5-.4l-.6.25q-.35.35-.15 1zm-5.25-3.2q.45.7 1.25.9l1.5-.1q.7-.35 1.05-1.1.4-.75.15-1.5-.2-.75-.9-1.2t-1.5-.35q-.75.1-1.3.75-.55.6-.6 1.4 0 .6.35 1.2m19.25.4q-.25-.95-1.2-1.35l-1.45-.05q-.75.2-1.15.8t-.35 1.35q.05.8.55 1.35t1.25.65l1.4-.25q.65-.35.9-1.1.3-.7.05-1.4"/><path fill="#fff" d="M60 12.8q.25.7-.05 1.4-.25.75-.9 1.1l-1.4.25q-.75-.1-1.25-.65t-.55-1.35q-.05-.75.35-1.35t1.15-.8l1.45.05q.95.4 1.2 1.35m-19.25-.4q-.35-.6-.35-1.2.05-.8.6-1.4.55-.65 1.3-.75.8-.1 1.5.35t.9 1.2q.25.75-.15 1.5-.35.75-1.05 1.1l-1.5.1q-.8-.2-1.25-.9M46 15.6l-.25-.6q-.2-.65.15-1l.6-.25q.4.1.5.4l.1.35.25.25q.85.65 1.55.2l.4-.35.4-.2q.35-.05.7.3l.8 1 .6.35.65-.25.5-.4.65-.6q.4-.1.65.3l.05.5-.2.7-.85.8-.8.4-.9-.05-.7-.1-.8-.7-.25-.3q-1.1.6-2.3.3l-.8-.45-.3-.3z"/></g></svg>