<svg xmlns="http://www.w3.org/2000/svg" xmlns:ffdec="https://www.free-decompiler.com/flash" ffdec:objectType="shape" width="30.05" height="34.7"><g fill-rule="evenodd"><path d="m16.3 6 .1-.1 1.25-1.25 2.4-1.7.3-.25.9-.15.7.1q.75.35 1 1.1l.1.4.1.35q.2.9-.2 1.6l.85.9 1.65-.15 1.65.4.55.3.7.55 1 1.5.45 1.35.15.75.1 1.25L30 15.2q-.1 1.75-.6 2.9-.3.9-.85 1.15l-.7.15-.6-.4q-.25-.4.1-1.3l.2-1.45-.1-.85-.1-.4-1.7.4-2.75-.45-1-.4-1.7 1.65-2.3 1.95-.5.45 2.3 2.55 2.9 3.35 1.35 1.4.4.5.75-.1 1.5.35.9.65.85.85q.4.65.4 1.7 0 1.35-.4 2.35-.45 1.1-1.5 1.8l-1.2.5-.85.2-1-.05-1.65-.65-.55-.5-.8-1q-.25-.6-.35-1.45l-.05-.8q0-.3.35-1.25l.25-.4-1.15-1.1L17 23.95l-1.15-1.15-1.35-1.5-1.25 1.2-.3.35L7.2 29.4q-1.75 1.95-3.05 2.05-1.25.1-2.1-.7-.85-.75-1-1.95-.1-1 .25-1.75l.95-1.15q4.05-3.95 8.45-7.2l1-.6.05-.05-3.5-3.7-.5-.45-3.1.35-1.3-.2-1-.3-.8-.6q-.9-.9-1.3-2.05-.4-1.3-.1-2.4.25-1 1-1.2.8-.25 1.25.45l.25.75.65 1.1.35.4.55.15 2.2-.1Q7.55 9.8 8 8.85q.55-1.15-.3-2.05L7 6.15q-.85-.75-.4-1.9Q7 3.2 8.15 3.1q1-.05 2.05 1 1.45 1.45 1.7 3.55.15 1.95-.85 3.65l3.8 4.45 1.3-.9q.7-.45 2.15-1.35l1.65-1.1-.1-.5.05-.95.4-1.5-.2-.3-.25-.5-1.2.4q-1.3.1-1.95-.9-.45-.6-.45-1.2V6.1zm6.85 25.8q.35.4.75.55l1.2.05.95-.7q.35-.5.3-1.2-.05-.65-.5-1.05-.4-.45-1.05-.5-.65-.1-1.2.25-.5.35-.7.95-.2.65 0 1.2z"/><path fill="#999" d="m20.35 2.7-.3.25-2.4 1.7L16.4 5.9l-.1.1-.3.2q-.8.35-1.35-.2-.65-.55-.3-1.3l.9-1.25.2-.75.2-.3.45-.45 1.6-1.3.8-.5q1-.35 1.75.25t.5 1.6zm2.8 29.1-.25-.45q-.2-.55 0-1.2.2-.6.7-.95.55-.35 1.2-.25.65.05 1.05.5.45.4.5 1.05.05.7-.3 1.2l-.95.7-1.2-.05q-.4-.15-.75-.55"/></g></svg>