<svg xmlns="http://www.w3.org/2000/svg" xmlns:ffdec="https://www.free-decompiler.com/flash" ffdec:objectType="shape" width="75.6" height="41.35"><g fill-rule="evenodd"><path fill="#999" d="m23.55 21.5.7.15.55-.1 3.9.3 1.65.3q1 .1 1.65-.35.85-.65.45-1.55l-.75-.6-1.9-.35-2.55.1-3.35.6-1.2.55-.4.25-.1.35.2.35h1.15m16.05-5.35q-.55-.6-1.95-.9l-5.15-.65-3.3-.2-3.55-.05-4.5.6-2.6.6q-2 .55-5.15 2.35-.6.35-.3.65 3.8-1.5 6.7-1.75l2.45-.05h2.1l3.1.2q5.55.55 9.15 1.7l2.2.2q.85-.25 1.1-1.15.25-.85-.3-1.55M28.7 7.8l7.35 1.25-4.9-.05-5.75.4q-3.15.5-5.4 1.75l1 .05 1.05-.3 1.55-.2q10.05-.7 19.55 3l1.7.45 1-.25.85.05q.85-.1 1.25-1t.15-1.8q-.4-1.35-2.35-2.6-3.15-2.1-7.6-3.35-6-1.55-12.35-.75-6.35.85-11.75 3.9l-1.8 1.1-.55.55q-.25.45.1.75l.95-.1 1.85-1q1.1-.6 1.9-.9 1.65-.6 4.5-.9l3.9-.35zm10.1-4.2q.05.15.55.3l3.95.8q1.95.5 3.95 1.55 2.1 1.15 3.1 2.15l1.5 1.35 1.9-.1.45-.85q.15-1.1-.35-2L52.5 5.2q-2-1.65-6.45-2.25l-1.3-.15-5.45.25q-.55.25-.5.55M0 0h75.6v41.35H0z"/><path fill="#fff" d="M38.8 3.6q-.05-.3.5-.55l5.45-.25 1.3.15q4.45.6 6.45 2.25l1.35 1.6q.5.9.35 2l-.45.85-1.9.1-1.5-1.35q-1-1-3.1-2.15-2-1.05-3.95-1.55l-3.95-.8q-.5-.15-.55-.3M28.7 7.8l-3.8-.3-3.9.35q-2.85.3-4.5.9-.8.3-1.9.9l-1.85 1-.95.1q-.35-.3-.1-.75l.55-.55 1.8-1.1q5.4-3.05 11.75-3.9 6.35-.8 12.35.75 4.45 1.25 7.6 3.35 1.95 1.25 2.35 2.6.25.9-.15 1.8t-1.25 1l-.85-.05-1 .25-1.7-.45q-9.5-3.7-19.55-3l-1.55.2-1.05.3-1-.05q2.25-1.25 5.4-1.75l5.75-.4 4.9.05zm10.9 8.35q.55.7.3 1.55-.25.9-1.1 1.15l-2.2-.2q-3.6-1.15-9.15-1.7l-3.1-.2h-2.1l-2.45.05q-2.9.25-6.7 1.75-.3-.3.3-.65 3.15-1.8 5.15-2.35l2.6-.6 4.5-.6 3.55.05 3.3.2 5.15.65q1.4.3 1.95.9M23.55 21.5H22.4l-.2-.35.1-.35.4-.25 1.2-.55 3.35-.6 2.55-.1 1.9.35.75.6q.4.9-.45 1.55-.65.45-1.65.35l-1.65-.3-3.9-.3-.55.1z"/><path d="M60.45 12.55q.3.4.75.65l1.1.15.95-.6.35-1.05q0-.6-.35-1.05-.35-.4-.95-.55l-1.1.1-.6.5-.3.7q-.1.6.15 1.15m-.2 6.35q-1.65 2.15-4.1 3.25l1.75.8q.7.5.8 1 .1.7-.45 1.15-.35.3-1.1.4l-1.1-.1-3.6-.7q-.7 1.6-2.15 2.8-1.9 1.7-4.4 2.55l-.25 1.3-.5 1.8L44.5 35l-.65 1.1-.6.7-.6.3q-.35.3-.85.4l-1.8-.2-3.2-.5-.95-.15-.5-.15-.15.25-1.05 1.2q-.65.3-1.35 0-.65-.3-.8-1.05l.05-1.05.55-1.8q.5-1.35 1.2-1.7l1.45-.1q.65-.15 1.2.25l.95.65 2 .45.2.05-.15-.8.2-2.1q-1.65-.15-2.8-.7-1.8-.9-2.8-2.95l-.55-1.45-2.1.5-1.5.15-1.4-.1-.2 2.45q0 1.1-.35 1.75.15.5-.1 1l-1.15 1.15q-1.1.9-1.8.9-.8 0-1.25-.7t-.05-1.45l1.1-1.2.4-.45-.1-.8-.3-2.5q-.15-1.3.1-2.05-.1-.55.15-.95.1-.45.35-.85.4-.65 1.15-1.2 1.35-1.05 2.5-1.5l2.1-.55 1.45-.2h1.85q.85-1.8 2.35-3.6 1.3-1.6 2.6-2.35 1.25-.85 2.65-1.1l-.2-.85-.1-.5.1-1.15-.05-.3q-.05-.55.25-1.75l.3-.65q.35-.5.95-.5.5-.05.95.45.35.4.55 1.5l.35.85.1.35.1.15q.7-1.35 2.4-2.45 2.35-1.5 4.85-1.7.25-.65.85-1.2 1.4-1.15 3.2-1 1.5.15 2.4 1.2 1 1.15.6 2.55l-.25.55.35.35.3.3q.4-.25 1.05-.35 1.3-.25 2.35.8 1.25 1.1 1.25 2.85-.1 1.75-1.4 2.8l-1.1.6q-.45 2.1-1.85 4m-2.9-6.2q-1.3-.4-2.2-1.3l-.7-.85-.35-.7q-.25-.45-.7-.35-.45.15-.45 1 .15 1.6 1.35 2.85 1.2 1.3 2.8 1.5l1.1-.05q.65-.3.65-.9l-.55-.8zM54.9 7.55q.3.4.75.45l1.15-.05.85-.75q.25-.5.15-1.1-.1-.65-.55-1-.4-.35-1.05-.4-.6-.05-1.05.3l-.45.5-.2.8q-.1.7.4 1.25"/><path fill="#fff" d="M60.45 12.55q-.25-.55-.15-1.15l.3-.7.6-.5 1.1-.1q.6.15.95.55.35.45.35 1.05l-.35 1.05-.95.6-1.1-.15q-.45-.25-.75-.65m-5.55-5q-.5-.55-.4-1.25l.2-.8.45-.5q.45-.35 1.05-.3.65.05 1.05.4.45.35.55 1 .1.6-.15 1.1l-.85.75-1.15.05q-.45-.05-.75-.45m2.45 5.15.95.4.55.8q0 .6-.65.9l-1.1.05q-1.6-.2-2.8-1.5-1.2-1.25-1.35-2.85 0-.85.45-1 .45-.1.7.35l.35.7.7.85q.9.9 2.2 1.3"/></g></svg>