<svg xmlns="http://www.w3.org/2000/svg" xmlns:ffdec="https://www.free-decompiler.com/flash" ffdec:objectType="shape" width="75.7" height="38.15"><g fill-rule="evenodd"><path fill="#999" d="m29.8 0 .2.05.15.1.05.05.05.1.05.1v.2l.05.1v.05l.05.1V3.5l.05.1v.8l.05.1.05.1v.25l.05.1v.1l.05.1.05.1.1.05.05.1v.1l.1.1v.1l.05.05v.2l.05.1v.2l.05.05v1.2l.05.1v.35l.05.1.05.1v.1l.05.05.05.1.05.1.05.1.05.1.05.05v.1l.05.1v.2l.05.1v.25l.05.1v.15l-.05.1v.3l-.05.1v.05l-.05.1v.1l-.05.1-.05.1-.05.05-.05.1-.05.1-.05.1-.1.1-.1.1-.1.05-.1.1-.15.1-.2.1-.15.05-.1.05h-.15l-.3.05-.35-.05h-.15l-.2-.1-.15-.05-.2-.1-.15-.1-.1-.1-.1-.1-.05-.1-.1-.05-.05-.1-.05-.1-.05-.1-.05-.1-.05-.05-.05-.1v-.2l-.05-.1V9.9l-.05-.1v-.25l.05-.1v-.3l.05-.1V8.9l.05-.1v-.1l.05-.1.05-.05.05-.1.05-.1.1-.1v-.2l.05-.05.05-.1v-.35l.05-.1v-1.2l.05-.1V6l.05-.1v-.2l.05-.1v-.05l.1-.1.05-.1.05-.1.05-.1.1-.1V4.9l.05-.1v-.25l.05-.1.05-.1v-.8l.05-.1V.8l.05-.1V.6l.05-.05v-.2l.05-.1.1-.1.05-.1.15-.05zm29.45 6.6 1.95-1.35.65-.6.2-.05.2.05.65.6q1.1 1 1.95 1.35l1.7.4 2.05.35q.9.1 1.25.55l.2 1.1q-.15 1.55-1.55 4.25l-.7 1.3q-1.4 2.4-4 4.25-.7.5-1.15.45h-1.2q-.45.05-1.15-.45-2.6-1.85-4-4.25l-.7-1.3q-1.4-2.7-1.55-4.25l.2-1.1q.35-.45 1.25-.55L57.55 7zm3 2.5v.05h-.3l-.15.1-.1.05-.1.1-.1.1-.05.1-.05.1v.05l-.1.1v.2l-.05.1v.95H61l-.85.05-.35.05-.2.1-.15.1-.1.05-.1.1-.1.1-.05.1-.05.1-.05.05v.1l-.05.1v.55l.05.1v.1l.05.05.05.1.05.1.1.1.1.1.1.1.15.05.2.1.35.05.85.05h.2l-.05.05v.8l.05.1v.1l.05.05v.1l.05.1.05.1.05.1.1.1.1.05.1.1.25.1.3.05h.25l.1-.05.15-.05.1-.1.15-.1.1-.1.05-.05.05-.1.05-.1v-.1l.05-.1v-.15l.05-.1v-.65l-.05-.1v-.1h.05l.1-.05.15-.05.15-.1.55-.05.25-.05h.1l.15-.05.1-.1.1-.1.1-.1.05-.1v-.1l.1-.05v-.55l-.05-.1-.05-.1-.05-.1-.05-.1-.05-.05-.15-.1-.15-.1-.15-.05-.25-.05h-.5l-.05-.05-.1-.05-.2-.1-.15-.05v-.7l-.05-.1v-.3L63.2 10l-.05-.1v-.1l-.05-.1-.05-.1-.05-.05-.05-.1-.1-.1-.1-.1-.2-.1zM33.7 22.6l-.7 1.85-.1.6.25.4.85.85 1.7 1.25.95.8.6-.25 1.7-.85q1.2-.65 1.75-.7l.35-.05.25-.4.35-1.05q.25-.5 0-1.05-.15-.4-.95-.7l-1.2-.35-.45-.35-.65.55-1.6-.1q-.5-.2-.65-.4l-.05-.1zm-8.4-3.75q-.7-.3-.65-.8 0-.4.6-.5l.85.1 2.55-.15 2.5-.3 1.6.35 1.6.35 2.85-.4 2.85-.4 2.35.45 4.1-.5q1.45-.2 1.9.65.45.7-.2 1.35l-.75.35.15.1q.5.5.4 1.7l-.55 2.2-1.9 6.15h3.7l9-.05 3.75-.05h1.5l1.45-.05h8.25l1.9.05.25.05.15.1.1.1.05.05.05.1v.4l-.05.05v.1l-.1.1-.1.1-.1.05-.05.05h-.2l-1.9.05h-8.25l-1.45-.05H62l-3.75-.05-9-.05H45.2l-.5 1.4q-.4 1.15-1 1.65l-1.4.5.9.05q1.25.1 1.7.55.4.4.35 1.05-.05.6-.45 1l-1.35.7-3.4.4-7 .25-6.95-.7q-1.6-.4-1.9-1.2-.2-.5.05-1.05l.7-.85q.7-.45 2.05-.55l1.6-.15-1-1.55-.55-1.5-4.05-.05h-3.05l-7.4.05H7.6l-.45-.05H4.9l-1.35-.05-1.3-.05H.65l-.05.1H.55l-.15.05-.2-.05-.15-.1-.05-.1v-.25l.05-.1.1-.1.1-.1.1-.05.1-.05h1.8l1.3-.05 1.35-.05h2.25l.45-.05h4.95l7.4.05h6.8l-.05-.1q-1.95-6.4-1.15-10.55zm9.55-7.65-.95.5-.75.3q-.4-.1-.3-.5l.15-.6.7-.9.6-.3q.4 0 .65.25.3.3.2.7zm-8.1 1-.65.1-.6-.35-.7-.45q-.45-.45-.1-1l.3-.3 1.1.05.45.75.2.7zm-17-5.6 1.95-1.35.65-.6.2-.05.2.05.65.6q1.1 1 1.95 1.35l1.7.4 2.05.35q.9.1 1.25.55l.2 1.1q-.15 1.55-1.55 4.25l-.7 1.3q-1.4 2.4-4 4.25-.7.5-1.15.45h-1.2q-.45.05-1.15-.45-2.6-1.85-4-4.25l-.7-1.3Q4.7 10.55 4.55 9l.2-1.1Q5.1 7.45 6 7.35L8.05 7zm2.8 2.5v.05h-.3l-.15.1-.1.05-.1.1-.1.1-.05.1-.05.1v.05l-.1.1v.2l-.05.1v.95h-.25l-.85.05-.35.05-.2.1-.15.1-.1.05-.1.1-.1.1-.05.1-.05.1-.05.05v.1l-.05.1v.55l.05.1v.1l.05.05.05.1.05.1.1.1.1.1.1.1.15.05.2.1.35.05.85.05h.2l-.05.05v.8l.05.1v.1l.05.05v.1l.05.1.05.1.05.1.1.1.1.05.1.1.25.1.3.05h.25l.1-.05.15-.05.1-.1.15-.1.1-.1.05-.05.05-.1.05-.1v-.1l.05-.1v-.15l.05-.1v-.65l-.05-.1v-.1h.05l.1-.05.15-.05.15-.1.55-.05.25-.05h.1l.15-.05.1-.1.1-.1.1-.1.05-.1v-.1l.1-.05v-.55l-.05-.1-.05-.1-.05-.1-.05-.1-.05-.05-.15-.1-.15-.1-.15-.05-.25-.05h-.5l-.05-.05-.1-.05-.2-.1-.15-.05v-.7l-.05-.1v-.3L13.5 10l-.05-.1v-.1l-.05-.1-.05-.1-.05-.05-.05-.1-.1-.1-.1-.1-.2-.1z"/><path fill="#fff" d="m62.25 9.1.3.05.2.1.1.1.1.1.05.1.05.05.05.1.05.1v.1l.05.1.05.05v.3l.05.1v.7l.15.05.2.1.1.05.05.05h.5l.25.05.15.05.15.1.15.1.05.05.05.1.05.1.05.1.05.1v.55l-.1.05v.1l-.05.1-.1.1-.1.1-.1.1-.15.05h-.1l-.25.05-.55.05-.15.1-.15.05-.1.05h-.05v.1l.05.1v.65l-.05.1v.15l-.05.1v.1l-.05.1-.05.1-.05.05-.1.1-.15.1-.1.1-.15.05-.1.05h-.25l-.3-.05-.25-.1-.1-.1-.1-.05-.1-.1-.05-.1-.05-.1-.05-.1v-.1l-.05-.05v-.1l-.05-.1v-.8l.05-.05H61l-.85-.05-.35-.05-.2-.1-.15-.05-.1-.1-.1-.1-.1-.1-.05-.1-.05-.1-.05-.05v-.1l-.05-.1v-.55L59 12v-.1l.05-.05.05-.1.05-.1.1-.1.1-.1.1-.05.15-.1.2-.1.35-.05.85-.05h.25v-.95l.05-.1v-.2l.1-.1V9.7l.05-.1.05-.1.1-.1.1-.1.1-.05.15-.1h.3zm-49.7 0 .3.05.2.1.1.1.1.1.05.1.05.05.05.1.05.1v.1l.05.1.05.05v.3l.05.1v.7l.15.05.2.1.1.05.05.05h.5l.25.05.15.05.15.1.15.1.05.05.05.1.05.1.05.1.05.1v.55l-.1.05v.1l-.05.1-.1.1-.1.1-.1.1-.15.05h-.1l-.25.05-.55.05-.15.1-.15.05-.1.05h-.05v.1l.05.1v.65l-.05.1v.15l-.05.1v.1l-.05.1-.05.1-.05.05-.1.1-.15.1-.1.1-.15.05-.1.05h-.25l-.3-.05-.25-.1-.1-.1-.1-.05-.1-.1-.05-.1-.05-.1-.05-.1v-.1l-.05-.05v-.1l-.05-.1v-.8l.05-.05h-.2l-.85-.05-.35-.05-.2-.1-.15-.05-.1-.1-.1-.1-.1-.1-.05-.1-.05-.1-.05-.05v-.1l-.05-.1v-.55l.05-.1v-.1l.05-.05.05-.1.05-.1.1-.1.1-.1.1-.05.15-.1.2-.1.35-.05.85-.05h.25v-.95l.05-.1v-.2l.1-.1V9.7l.05-.1.05-.1.1-.1.1-.1.1-.05.15-.1h.3z"/><path d="M24.15 13.45h25v.05h.25l.15.05.15.05.2.1.15.05.1.1.05.1.1.1.05.1.1.1.05.05v.1l.05.1v.1h.05v.05l.05.1.1 1.25-.45 1.55V18l-.05.1-.05.1v.25l-.05.1v.1l-.05.1v.1l-.05.05v.1l-.05.1v.35l-.05.1v.1l-.05.1-.05.1v.05l-.05.1v.2l-.05.1v.35l-.05.1-.05.1-.05.05v.2l-.05.1v.2l-.05.05v.1l-.05.1-.05.1-.05.1-.05.05v.4l-.05.1-.05.05v.1l-.05.1-.05.1-.05.1v.35l-.05.1v.25l-.05.1-.05.1V24l-.05.1v.1l-.05.1-.05.1v.05l-.05.1-.05.1v.25l-.05.1v.1l-.05.1-.05.1v.1l-.05.05v.4l-.05.1-.05.05-.05.1v.1l-.1.1v.1l-.05.05v.1l-.05.1-.05.1-.05.1v.45l-.05.1-.05.05v.1l-.05.1-.05.1-.05.1v.25l-.05.1v.1l-.05.1v.05l-.05.1v.1l-.05.1-.05.1v.1l-.05.05v.1l-.05.1-.05.1v.1l-.05.05v.1l-.05.1-.05.1v.2l-.05.05v.1l-.05.1-.05.1v.1l-.05.05v.3l-.05.1-.05.1v.25l-.05.1v.35l-.05.1v.1l-.05.1V32l-.1.1v.1l-.05.1v.25l-.05.1-.05.1v.1l-.05.1-.05.05-.05.1v.1l-.05.1v.15l-.05.1-.05.1-.05.1-.05.1-.05.1v.25l-.05.1v.1l-.05.05-.05.1v.1l-.05.1v.1l-.05.1-.05.05v.1l-.05.1-.05.1-.05.1-.05.05-.05.1-.1.1-.1.1-.1.1-.05.1L45 36l-.15.1-.15.1-.2.1-.2.05-.3.05H29.3l-.3-.05-.2-.05-.2-.1-.15-.1-.15-.1-.15-.05-.05-.1-.1-.1-.1-.1-.1-.1-.05-.1-.05-.05-.05-.1-.05-.1-.05-.1V35l-.05-.05-.05-.1v-.1l-.05-.1v-.1l-.05-.1-.05-.05v-.1l-.05-.1v-.25l-.05-.1-.05-.1-.05-.1-.05-.1-.05-.1v-.15l-.05-.1v-.1l-.05-.1-.05-.05-.05-.1v-.1l-.05-.1-.05-.1v-.25l-.05-.1v-.1l-.1-.1v-.05l-.05-.1v-.1l-.05-.1v-.35l-.05-.1v-.25l-.05-.1-.05-.1v-.3l-.05-.05v-.1l-.05-.1-.05-.1V30l-.05-.05v-.2l-.05-.1-.05-.1v-.1l-.05-.05v-.1l-.05-.1-.05-.1V29l-.05-.05v-.1l-.05-.1-.05-.1v-.1l-.05-.1v-.05l-.05-.1v-.1l-.05-.1v-.25l-.05-.1-.05-.1-.05-.1v-.1l-.05-.05-.05-.1v-.45l-.05-.1-.05-.1-.05-.1v-.1l-.05-.05v-.1l-.1-.1v-.1l-.05-.1-.05-.05-.05-.1v-.4l-.05-.05v-.1l-.05-.1-.05-.1V25l-.05-.1v-.25l-.05-.1-.05-.1v-.05l-.05-.1-.05-.1v-.1l-.05-.1v-.25l-.05-.1-.05-.1v-.25l-.05-.1v-.35l-.05-.1-.05-.1-.05-.1v-.1l-.05-.05-.05-.1v-.4l-.05-.05-.05-.1-.05-.1-.05-.1v-.1l-.05-.05v-.2l-.05-.1v-.2l-.05-.05-.05-.1-.05-.1v-.35l-.05-.1V20l-.05-.1v-.05l-.05-.1-.05-.1v-.1l-.05-.1v-.35l-.05-.1v-.1l-.05-.05v-.1l-.05-.1v-.1l-.05-.1v-.25l-.05-.1L23 18v-.45q-.35-.5-.45-1.55l.1-1.25.05-.1v-.05h.05v-.1l.05-.1v-.1l.05-.05.1-.1.05-.1.1-.1.05-.1.1-.1.15-.05.2-.1.15-.05.15-.05h.25zm1.15 3.1.05.05v.2l.05.1v.1l.05.1.1.05.05.1.05.1v.1l.05.1v.15l.05.1.05.1v.1l.05.1.05.05.05.1v.1l.05.1v.35l.05.1.05.1v.15l.05.1v.1l.05.1v.15l.05.1.05.1v.1l.1.1v.1l.05.05v.4l.05.05.05.1.05.1.05.1.05.1v.1l.05.05v.2l.05.1v.15l.05.1.05.1.05.1v.1l.05.1v.25l.05.1.05.1.05.05.05.1.05.1v.2l.05.1v.15l.05.1.05.1.05.1v.05l.05.1.05.1v.2l.1.1v.05l.05.1v.2l.05.1.05.05v.3l.05.1.05.1.05.05v.1l.05.1.05.1.05.1.05.05v.1l.05.1.05.1v.1l.05.1v.35l.1.1v.15l.05.1v.1l.05.1.05.1v.05l.05.1v.2l.05.1.05.05.05.1.05.1v.1l.05.1v.15l.05.1.05.1.05.1v.1l.05.05.05.1v.3l.05.1v.05l.05.1.05.1.05.1v.25l.05.1.05.1v.1l.05.1.05.05v.3l.05.1v.15l.05.1.05.1v.1l.05.1v.05l.05.1.05.1v.25l.05.1v.1l.05.1.05.1v.1l.05.05v.1l.05.1.05.1v.1l.05.05v.1l.1.1v.1l.05.1v.15H43V33l.05-.1v-.1l.1-.1v-.1l.05-.05v-.1l.05-.1.05-.1v-.1l.05-.05V32l.05-.1.05-.1v-.1l.05-.1v-.25l.05-.1.05-.1v-.05l.05-.1v-.1l.05-.1.05-.1v-.15l.05-.1v-.3l.05-.05.05-.1v-.1l.05-.1.05-.1v-.25l.05-.1.05-.1.05-.1v-.05l.05-.1v-.3l.05-.1.05-.05v-.1l.05-.1.05-.1.05-.1V28l.05-.1v-.1l.05-.1.05-.1.05-.05.05-.1v-.2l.05-.1v-.05l.05-.1.05-.1v-.1l.05-.1v-.15l.1-.1v-.35l.05-.1v-.1l.05-.1.05-.1v-.1l.05-.05.05-.1.05-.1.05-.1v-.1l.05-.05.05-.1.05-.1v-.3l.05-.05.05-.1v-.2l.05-.1v-.05l.1-.1v-.2l.05-.1.05-.1v-.05l.05-.1.05-.1.05-.1v-.15l.05-.1v-.2l.05-.1.05-.1.05-.05.05-.1.05-.1v-.25l.05-.1v-.1l.05-.1.05-.1.05-.1v-.15l.05-.1v-.2l.05-.05V21l.05-.1.05-.1.05-.1.05-.1.05-.05v-.4l.05-.05V20l.1-.1v-.1l.05-.1.05-.1v-.15l.05-.1v-.1l.05-.1V19l.05-.1.05-.1v-.35l.05-.1v-.1l.05-.1.05-.05.05-.1v-.1l.05-.1.05-.1v-.15l.05-.1v-.1l.05-.1.05-.1.1-.05.05-.1v-.1l.05-.1v-.2l.05-.05v-.05H25.3zm6.4 9V24.5q.1-.75.65-1.4l1.15-1.05.65-.35h.75l1.15.05.95.75.25.15.45-.1q1.15-.65 2.3-.25 1.2.3 1.85 1.45l.25.65-.25 1.2q-.7 1.4-2.1 1.95l-1.3.35q-.8.2-1.25.55l-1.1.75-.55-.1-.6-.6-2.1-1.15-.75-.6-.35-.5zm8.7-.9-.1-.4q-.6-.6-1.3-.5l-1.15.7-.3.45-.3.65q-.45.5-1.05.25l-.3-.35-.05-.5.25-.75.05-.2-.05-.2-.2-.3q-.3-.3-.95-.2l-.35.05-.5.3-.45.5q-.35.5-.4.95-.1.35.05.55.15.25.9.45l.65.45 1.05.4.65.25.3-.2q.7-.45 1.35-.65l.7-.2 1.15-.7.3-.5z"/></g></svg>