<svg xmlns="http://www.w3.org/2000/svg" xmlns:ffdec="https://www.free-decompiler.com/flash" ffdec:objectType="shape" width="69.1" height="43.5"><g fill-rule="evenodd"><path fill="#999" d="M45.85 29.7q-4.7 6.1-13.7 8.9-2.65.8-4.05.65-1.75-.2-2.55-1.2-.55-.8-.4-1.85.2-1.05 1-1.6.45-.3 1.25-.5l1.4-.25q2.1-.4 3.5-2 1.45-1.8.9-3.8-.25-.95-.9-1.7l-1.55-.7q-1.65-.85-2.55-.85-.85.05-2.15.85l-2.7 1.5-2.95 1.4-4.05.55q-3.6-.1-6.2-1.45Q7 26 5.9 23.05l-.4-1.5h-.05q-.9-.15-2.2-1.65L1 17.05.35 15.8q-.15-.75.05-1.4l.95-1 2.3-.85 2.4-.65q.8-2.3 2.35-4.4 2.45-3.3 6.05-5.25Q17 .95 19.35.65q2.6-.3 4.8.75Q25.2.75 26.9.4q5.2-1 9.25.5 5 1.85 9.2 7.7l2.35 3.7q2.3 4 2.5 7.25.1 2-.65 3.8-.5 1.3-1.4 2.25l-.2.5.6-.1q1.75-.15 3.6-1.3l3.1-2.45q1.65-1.35 2.8-1.75l2.4-.15q1.25.25 2.15 1.1t1.3 2.05q.35 1.2.05 2.4l-.4 1.65.35 1.75.6 1.75q.5 1.25.4 2.15h.05l.5.1.5-.25 1.05-1 .45-.6q.4-.4 1-.2.6.25.65.85l-.15.85-.4.85q-.55 1-2 1.9-.95.8-1.7 1l-.85.2-1.2.05q-.4-.05-1.4-.7l-.55-.45q-.5-.6-.4-2.05l.25-.8q-2-2.85-2.4-6.4-.35.1-.55.75l-.1.95q-.1 1.55-1.2 2.6t-2.7 1.05q-.1-.45.1-1.45.2-1.4-.35-2.95-1.4.75-3.1.9l-2.35-.4-.65-.6zM5.5 5.1l.7-.75.25-1.05q.15-.85.55-1.35.6-.65 1.25-.6H9L9.75 1l.7-.25q.5-.1.65.2v.4q-.25 1-1.05 1.5l-1.8.3-.4 1.15-.35 1.2q-.45.9-1.55 1.15L4.9 6.6l-.35-.05-.15.2-.2.6-.05.8v1.3q-.15.85-1.1 1.2l-2-.25-.4-.4q0-.3.35-.3h.5l.8-.3.55-.45v-1q-.15-1.35.5-2.4l.35-.4.9-.1zm44.6 5.15L48.65 9.1q-.6-.85-.65-1.8l.2-1 .55-.85v-.3l-.3-.1-1.6-.35q-.8-.4-1.1-1.15l-.2-.6-.4-.45-.7-.55q-.35-.35-.1-.8l.4-.25 1.6.1q.8.35 1.1 1.1l.25.5 1.35.35q1.3.15 1.8 1.4.4 1.25-.2 2.3l-.45.85q-.2.55.1.85l.6.3q1.3.45 1.8 1.25.5.9.15 2.1l-.25 1.1q0 .7.4.95l.55.45q.05.35-.4.55-.65.15-1.25-.35-.4-.35-.6-1.15-.2-.7 0-1.45l.15-.5v-.5l-.55-.6zm7.15 6.6.6-.4.9-1.1 1.05-.85 1.1-.2 1.05.1.6.9.3.75 1.5-.2 1.35.25q.5.45.5 1.5l-.35 1.55 1 .55.8.8q.35.6.1 1.45l-.75 1.3-.7 1.05q-.15-1.2.1-2.6-.35-.4-1.15-.7-.9-.4-1.05-.9l-.05-.7q.1-1.2.3-1.6H63.4l-1.1.05q-1.05-.2-1.4-1.6l-.15-.3h-.35q-.5.1-1.1.65l-.95.95-.6.25-.65-.1-.4-.35q-.2-.3.05-.45zm-38.2 7.2q1.25-.1 2.1-1l.55-.75.45-1.25.35.1.7.1q1.65.3 3.15-.85l.55-.6q.45-.65.3-1.8l-.3-.8-1-.9.45-.5q.8-1.25.75-2.55l-.25-1.55-.65-1.25-.75-.05q-.25.15-.25.75v1.5l-.25.8-.4.6-.85.45-1.55.4-1.4.1q-.8.2-1.25.55l-.35.65q-.55.45-.45 1.15l.15.6q.5.45 1 1.9v.55l-.45.95-.65.7-1.1.05h-.7q-.4.15-.5.6-.05.4.2.75l.45.4.9.15zM17.35 6.5q-.2.4-.3 1.55-.1 1.05.1 1.75.2.95 1.05 1.6.7.55 1.8.65l.8-.05.75-.25 1.1-.65.7-.7q.85-1.15.7-2.65-.15-1.45-1.3-2.35-1.1-.9-2.55-.8l-.9.2q-.65.25-1.35.95zm-2.1 27.1q-1.2.7-2.35.7-1.45 0-2.15-1.05L10 32.2q-.45-.2-1.5.45-1.1.6-2.15.45Q5.1 33 4.4 32q-.65-.95-.35-2.6-1.4-.1-2.2-.7l-.65-.95q-.2-.65.05-1.15l.5-.65.25-.7q0-.35-.4-.75l-.7-.65q-.5-.75.15-2.55l.6.45.35.75.5.55.55.5q.7.75.75 1.85t-.65 1.9q1.35 0 2.15.6 1.05.85.8 2-.2.6 0 .85l.65.1 1.65-.75 2.4.15q1.15.65 1.55 1.8l.4.6.55.1q.7-.1 1.95-.95l1.8.05q.9.3 1.3 1.1.3.65-.05.85l-.6-.15-.4-.45-1.05-.1zM8.9 22.8l.6.55q.95.8 2.25.7 1.25-.1 2.1-1l.6-.8.45-.7q.5-1.1 0-2.25l-.35-.5q-.65-1.2-1.9-1.6t-2.45.25l-.75.5q-1.05.8-1.35 2-.35 1.3.35 2.3z"/><path fill="#fff" d="m17.35 6.5.6-.75q.7-.7 1.35-.95l.9-.2q1.45-.1 2.55.8 1.15.9 1.3 2.35.15 1.5-.7 2.65l-.7.7-1.1.65-.75.25-.8.05q-1.1-.1-1.8-.65-.85-.65-1.05-1.6-.2-.7-.1-1.75.1-1.15.3-1.55m1.7 17.55L18 24l-.9-.15-.45-.4q-.25-.35-.2-.75.1-.45.5-.6h.7l1.1-.05.65-.7.45-.95v-.55q-.5-1.45-1-1.9l-.15-.6q-.1-.7.45-1.15l.35-.65q.45-.35 1.25-.55l1.4-.1 1.55-.4.85-.45.4-.6.25-.8v-1.5q0-.6.25-.75l.75.05.65 1.25.25 1.55q.05 1.3-.75 2.55l-.45.5 1 .9.3.8q.15 1.15-.3 1.8l-.55.6q-1.5 1.15-3.15.85l-.7-.1-.35-.1-.45 1.25-.55.75q-.85.9-2.1 1M8.9 22.8l-.45-.55q-.7-1-.35-2.3.3-1.2 1.35-2l.75-.5q1.2-.65 2.45-.25t1.9 1.6l.35.5q.5 1.15 0 2.25l-.45.7-.6.8q-.85.9-2.1 1-1.3.1-2.25-.7z"/><path d="M49.75 43.4q-3.6.1-6.45-1.45l-1-.65-1.7 1.5q-1.1.55-2.75.6l-2.9-.05q-1.7-.1-6.55.1-4.1.15-6.55-.15-2.5-.3-3.95-1.3h-1.6l-5.3.2-2.95.15-1.8-.1L4.4 42 2 41.55Q.55 40.9.15 39.4q-.2-.7-.1-2.2.2-2.8 1.1-3.9 1.1-1.25 3.05-1.35 1.3 0 2.05.5 1.1.6 1.5 1.9.35.95.35 2.45l7.4-.4h.7q.55-2.2 2.8-4.45 2.6-2.65 6.1-4.15l.95-.35q.35-1.9 2-3.05 1.8-1.25 3.95-.85 1.15.15 2 .85 1 .85 1.35 2.1 1.95.35 3.4 1.35l1.3 1.05.45-.85q1.8-3.05 4.75-5 1.9-1.35 4.05-1.8 1.55-.3 3.4.05 3.35.55 6.05 2.9l2 2.15 3.15.05q1.75 0 2.6.5 1.2.75 1.1 2.05-.05.85-1.1 2.2l-4.05 4.9-.15.45q-1.05 3.4-3.75 5.5l-2 1.05q-1.3.25-2.2-.4l-.05-.05zm3.2-18.5q-.35.15-.25.6l.15.7.4.75q-.65.5-1.6 1.3l-.55.6q-.2.5.15.75l.6.05 2.35-1.15.3.4.65.7 1.2-.1q.55-.45.35-1.15l-.75-1 .6-.35q.4-.3.4-.9l-.3-.85q-.35-.35-.9-.3l-.55.25-.6.35-.1.1-.85-.75q-.4-.2-.7 0"/><path fill="#fff" d="M52.95 24.9q.3-.2.7 0l.85.75.1-.1.6-.35.55-.25q.55-.05.9.3l.3.85q0 .6-.4.9l-.6.35.75 1q.2.7-.35 1.15l-1.2.1-.65-.7-.3-.4-2.35 1.15-.6-.05q-.35-.25-.15-.75l.55-.6q.95-.8 1.6-1.3l-.4-.75-.15-.7q-.1-.45.25-.6"/></g></svg>