<svg xmlns="http://www.w3.org/2000/svg" xmlns:ffdec="https://www.free-decompiler.com/flash" ffdec:objectType="shape" width="76.15" height="41.35"><g fill-rule="evenodd"><path fill="#999" d="M25.35 37.25q3 1.25 5.2 1.7l5.4.6q10.6.4 15.85-3.9 3.4-2.8 4.85-7.5 1.3-4.35.7-9.2-.35-2.6-1-4.1l-.25-.6 3.6-9.05.2-.8q.2-1.15-.4-1.8-.55-.65-1.75-.45l-1.75.7-.55.25-1.65.6-1.45.5-2.5 1-1.05.5q-1.65-1.25-3.25-1.95l-1.8-.65q-2.65-.8-5.8-.75l-2.8.2q-4.65.6-8.3 2.9L25.6 4.8l-2.7-1.4-1.65-.75-2.15-.75-1.2-.1-.45.15-.35.25-.4.5-.2 1.2.35 2.35.25.95.85 3.15.25.5.4 1.6.5 1.1v.1l.05.1.15.55q-2.15 4.8-2.15 10.2 0 6.2 2.9 9.35 1.6 1.8 5.3 3.4M74.6 0v41.35H0V0z"/><path d="M25.35 37.25q-3.7-1.6-5.3-3.4-2.9-3.15-2.9-9.35 0-5.4 2.15-10.2l-.15-.55-.05-.1v-.1l-.5-1.1-.4-1.6-.25-.5-.85-3.15-.25-.95-.35-2.35.2-1.2.4-.5.35-.25.45-.15 1.2.1 2.15.75 1.65.75 2.7 1.4 1.25.65q3.65-2.3 8.3-2.9l2.8-.2q3.15-.05 5.8.75l1.8.65q1.6.7 3.25 1.95l1.05-.5 2.5-1 1.45-.5 1.65-.6.55-.25 1.75-.7q1.2-.2 1.75.45.6.65.4 1.8l-.2.8-3.6 9.05.25.6q.65 1.5 1 4.1.6 4.85-.7 9.2-1.45 4.7-4.85 7.5-5.25 4.3-15.85 3.9l-5.4-.6q-2.2-.45-5.2-1.7"/><path d="M64.8 34.05q-1 .2-1.5-.45-.6-.6-.35-1.8l-2.3-2.9q-1-1.45-1.3-2.65-.25-.85-.25-2.7 0-3.25.8-6.2l-.2-.85q-.1-1 .95-1.5 2.3-5.55 7.3-8.65 3.7-2.25 7.85-2.6l.35-.25v7l-.05-.3-1.4 3.1 1.45-.15v3.35l-2.8.5-.3.1-.15.2-1.35 2.55q2.4 1.3 3.5 2.15l.3.15.15-.15.6-.35.05-.05v5.6l-1.05-.75-5.85 4.85q1.8.9 3.95 1.25l2.95.05v3.9l-.95.05-4.2-.15q-2.95-.55-5.65-2.5zm3.6-15.85h.2l.1-.1.35-.65-1.55.1zm1.5-4.2.85-.2.45-.7 2.2-4.8q-2.4.75-4.4 2.3-1.9 1.55-3.25 3.7zm-3.1 7.45q-1.5-1.1-3.2-1.95-.35 1.55-.4 3.15-.1 1.4.25 2.3.3 1.15 1.15 2.2zm3 1.7q-1.25 2.3-1.95 4.9l4.3-3.6q-1.05-.8-2.35-1.3m-45.95-1.7-.35-.7-.5-1.2q-.25-.85.25-1.65.55-.9 1.4-.95.8-.1 1.8.6l1.35 1.35q1.85 2 4.05 2.5l1.55.25 1.5.45q1 .5 1.3 1.55.35 1.1-.4 1.95-.6.85-2.3 1.05l-2.3-.05q-2.9-.5-5.5-2.7-1.15-1-1.65-1.95zm-20.9-8.7 5.75.6 1.35-.05.35-.1q-1.45-2.6-3.2-3.8-1.35-.9-2.8-1.25-1.25-.4-2.55-.5zM.8 20.35l1-.75-1.05-3.35H.6l-.6.1V3.4l.5.3 1.85.05Q6.9 4.2 9.7 6.7q1.15.95 2.55 3 2.4 3.5 3.2 6.5 1.1 4.25 0 8.45L14.4 27.4l-2.05 2.7-1.75 2Q6.85 35.8 0 36.45V32.5l3.95-.85.9-.3L0 27.85V20.9zm3.2-4.4.65 1.85.55-.4.85-.7.85-.7zm.55 10.55-.4-.85-.95-2.7q-.3 0-.6.35l-1.3.95zm1.5-5.3 2.75 7.4.55-.6q1.8-1.9 2.35-3.15l.65-2.6.25-3.05-.65-2.6z"/><path fill="#fff" d="m41.45 16.5-.65.05-.9-.2-.75-.5-.55-.55-.25-.75-.1-.55.15-.6q.35-1.1 1.05-1.7.95-.7 1.9-.55l.65.15.65.3q.15.05.7.6l.4.5.65 1.25.15 1.7-.1 1.3-.25.6-.4.45-.75.1q-.4-.15-.45-.6l.15-.8.2-1.15-.75.6zm-1.3-1.85.25.25.3.1.55-.15.4-.5.35-.8v-.15l-.25-.15q-.45-.2-.95 0l-.7.6-.1.3.15.25zM52.5 25.4l-.15 1.5-.65.95q-1.15 1.3-2.6 1.75l-3.1.05-1.1-.55-.7-.45q-.85-.75-1.2-2.05 2.9-.5 5.5-2.7l1.65-1.95.2-.5q1.05.7 1.65 1.75l.4.85zM39.45 6.85l.45.45.5.75.15.9v.75l-.65 1.2-.55.35-1.95.35q-1.1-.1-1.7-.9l-.35-.55-.25-.65-.05-.9.05-.7.5-1.3q.35-.8 1-1.35l1-.8.6-.3q.25-.15.6 0 .4.05.6.45t-.1.75l-.65.45-.95.65.9.1q.55.1.85.3m-7.3 7.75-.05-.7.2-.9.5-.7.55-.55.75-.3.55-.05.6.15q1.1.3 1.7 1.05.7.9.55 1.85l-.15.65-.3.65-.6.7-.5.4-1.25.65-1.7.2-1.3-.1-.6-.25-.45-.45q-.2-.3-.1-.75l.6-.45.8.15 1.15.2-.6-.75q-.35-.4-.35-.7m6.9-5.5v-.35l-.15-.3-.5-.25-.65.05-.8.3-.15.1.05.3.7.7h.95l.25-.1.1-.25zM31.2 26.6q-.35 1.3-1.2 2.05l-.7.45-1.1.55-3.1-.05q-1.45-.45-2.6-1.75-.4-.3-.65-.95-.15-.5-.15-1.5l.1-1.35.4-.85q.6-1.05 1.65-1.75l.2.5q.5.95 1.65 1.95 2.6 2.2 5.5 2.7M34 13.25q-.2.05-.25.25l-.1.3.15.6.5.35.8.35h.15l.15-.2q.2-.5 0-1l-.6-.65-.3-.1-.25.1z"/></g></svg>