<svg xmlns="http://www.w3.org/2000/svg" xmlns:ffdec="https://www.free-decompiler.com/flash" ffdec:objectType="shape" width="74.85" height="41.05"><g fill-rule="evenodd"><path d="M24.9 37.7q-3.7-1.6-5.3-3.4-2.9-3.15-2.9-9.35 0-5.4 2.15-10.2l-.15-.55-.05-.1V14l-.5-1.1-.4-1.6-.25-.5-.85-3.15-.25-.95-.35-2.35.2-1.2.4-.5.35-.25.45-.15 1.2.1 2.15.75 1.65.75 2.7 1.4 1.25.65q3.65-2.3 8.3-2.9l2.8-.2q3.15-.05 5.8.75l1.8.65q1.6.7 3.25 1.95l1.05-.5 2.5-1 1.45-.5 1.65-.6.55-.25 1.75-.7q1.2-.2 1.75.45.6.65.4 1.8l-.2.8-3.6 9.05.25.6q.65 1.5 1 4.1.6 4.85-.7 9.2-1.45 4.7-4.85 7.5Q46.1 40.4 35.5 40l-5.4-.6q-2.2-.45-5.2-1.7m10.2-7.2 1.95-2 .25.15 1.9.8h.2l-.05.05-.5 1.15-1.2 1.6q-.85.8-1.8.55l-.7-.25q-.95-.5-1.6-1.35l.45-.15zm-8.15-15.75h-.7l-.6.05q-1.25.25-2.25 1-1.85 1.35-2 3.35v.9l.3 1.55.55.8 1.5 1.25 2.4.15 1.55-.35.95-.6.9-.8q1.55-1.65 1.15-3.9-.25-1.05-.9-1.85l-.85-.8q-.8-.65-2-.75m-.3 12.45q-.4.75.15 1.8 1.05 1.9 3.1 2.3l.75.1.35 1.25q.65 1.85 2.65 2.75l3.8.25q1.4-.35 2.5-1.4l1.4-2.2.75-1.9.1-.7 2.1-.55q1.1-.55 1.35-1.4.35-1-.4-1.65-.65-.75-1.65-.5l-1.3.5-1.15.2-1.05-.1q-.7-.15-1.9-.85l-.25-1.15-.65-1.65q-.4-.4-.95-.4t-.95.35q-.35.35-.7 1.65-.3 1.2-.2 1.85l-.25.4-.7 1q-.75.8-2.05.8l-2.2-.5-.5-.2-.55-.45-.85-.1q-.5.15-.75.5M46.2 15.3l-1.65.2-2.25.55q-1.5.25-2.4.75l-.65.4q-.7.75-.45 1.7l.3.7q.05.65.55 1.05.55.5 1.25.4l.95-.2 1.2-.25 2.9-.3 3.5-.35.3-.2q.6.1.85-.4.3-.45-.1-.95l-.55-.3-1-.35-2.25-.15-.7.05.35-.2L47 17l.65-.4.65-.25.15-.5q-.15-.4-.65-.5z"/><path fill="#fff" d="m46.2 15.3 1.6.05q.5.1.65.5l-.15.5-.65.25-.65.4-.65.45-.35.2.7-.05 2.25.15 1 .35.55.3q.4.5.1.95-.25.5-.85.4l-.3.2-3.5.35-2.9.3-1.2.25-.95.2q-.7.1-1.25-.4-.5-.4-.55-1.05l-.3-.7q-.25-.95.45-1.7l.65-.4q.9-.5 2.4-.75l2.25-.55zM26.65 27.2q.25-.35.75-.5l.85.1.55.45.5.2 2.2.5q1.3 0 2.05-.8l.7-1 .25-.4q-.1-.65.2-1.85.35-1.3.7-1.65.4-.35.95-.35t.95.4l.65 1.65.25 1.15q1.2.7 1.9.85l1.05.1 1.15-.2 1.3-.5q1-.25 1.65.5.75.65.4 1.65-.25.85-1.35 1.4l-2.1.55-.1.7-.75 1.9-1.4 2.2q-1.1 1.05-2.5 1.4l-3.8-.25q-2-.9-2.65-2.75l-.35-1.25-.75-.1q-2.05-.4-3.1-2.3-.55-1.05-.15-1.8m.3-12.45q1.2.1 2 .75l.85.8q.65.8.9 1.85.4 2.25-1.15 3.9l-.9.8-.95.6-1.55.35-2.4-.15-1.5-1.25-.55-.8-.3-1.55v-.9q.15-2 2-3.35 1-.75 2.25-1l.6-.05zM35.1 30.5l-1.1.55-.45.15q.65.85 1.6 1.35l.7.25q.95.25 1.8-.55l1.2-1.6.5-1.15.05-.05h-.2l-1.9-.8-.25-.15z"/><path fill="#717171" d="m14.85 3.8-.35 1.05-.1 1.05q0 .75.3 1.4l.1.4-.1.5.1.3-.2.35-.35-.05-.2-.25-.6-.7-.55-2.15q-.2-.1-.3-.6l-.1-1 .1-.7.1-.7.2-.6q.25-.65.6-1.15l.5-.6.4-.35h1.75l.2.2q.4.5.25 1.1l-.4.65-.5.6-.35.65zm59.95.25q-.5.5-1.2 0l-.75-1L71.8 1.5l-.2-.6q-.05-.35.25-.6l.65-.1.5.4.25.15.4-.35.1-.1-.3-.3h1.4v2.05l-.3.2.3.4v1.4zM46.5.15l1.2.5 1.2 1 .5.65q.45.85-.25 1.55-.25.3-.7.35l-.8-.15-.65-.6-.65-.55Q44.9 1.7 43.9 1.45l-.7-.2-.5-.25-.7-.1-.65-.1-.4-.5.1-.3h5.05zM72.55 5.6q-.25.7-1.15.85-.75.2-1.35-.35l-.65-.8q-.6-.9-.7-1.35-.2-.85.2-1.55.5-.8 1.35-.6l.55.4q.25.35 0 .7l-.15.2-.15.05-.25.1-.1-.05.05.05-.25.5.1.45q.05.4.35.55.35.3.85 0l.25-.3h-.15l-.4-.25-.15-.3.05-.55.45-.45.4-.25q.5-.05.7.25l.15.15.1.15.05.4.15.1.2.15.1.25.15.65-.2.15-.35.15-.1-.05zM66.7 4q.25-.25.75-.25l.3.15.2.2.5.75.5.8.25.35.15.8v.3l-.2.7-.85.85-1.25.15-.75-.35-.45-.35-.65-.75-.2-.4-.2-.45v-.3l.05-.4q.05-.5.5-.55l.4.1.25.1v.1l.75 1.2.6.45h.45l.2-.4q.05-.35-.3-.75L66.45 4.6zm-4.95 5.4q-.45 0-.8.75l.6.5q.5.25.7.4v.7l-.55.5q-.7.15-1.35-.35-1.1-.65-1.1-1.75-.05-.55.55-1.5l.65-.8q.65-.45 1.7-.25l1.05.4q.5.5.4 1l-.4.6-.75.1zm3.65 1.35-.5-.15q-.6.05-.85.55-.3.5-.05.95.3.5.85.5t.85-.5l.15-.75zm.85 2L65 13.85h-1.05q-.55-.15-.85-.65-.75-.9-.25-1.95l.7-1q.6-.55 1.15-.7.9-.2 1.65.5.7.7.45 1.65zm4.2-.45.55.6-.05.35-.1.3-.25.15-.05.25-.2.3-.6.75-.25.35-.7.45-.3.1-.7.05q-.6-.05-1.1-.5-.45-.45-.6-1.1l.2-1.35.5-.85.35-.35.3-.4h.3l.35-.2q.5-.1.7.3l.05.45v.25h-.05l-.85 1.15q-.3.5-.25.75l.2.4.45.05.55-.6.9-1.65zm.65 6.05q-.75 0-1.2-.75-.5-.65-.15-1.45l.45-.85q.65-.85 1.05-1.15.7-.4 1.5-.35.9.25 1.1 1.05l-.2.65-.7.25-.25-.05-.05-.1-.2-.25-.05-.05v.05l-.55-.05q-.15 0-.35.2-.35.25-.4.55-.1.45.3.8l.4.15-.05-.15.05-.5.25-.25.55-.15.5.3.4.3q.2.4 0 .75l-.05.15-.15.15-.3.2-.05.15-.05.25-.2.2-.55.35-.3-.1-.15-.35zm-6.9 6.3-.1.6-.5 1.65q-.6.9-1.4.7-.75-.3-.75-1.25l.3-1.55.3-2.95v-1.2l-.25-4.7.05-.65q.15-.4.55-.35l.3.35.75 1.3.3 1.05.5 2.45.05 3zm-6.4-11.2 1.15.05.65 1.05 1.15 2.85.45 3.45v1.35l-.05 1.7q-.1.9-.65 1.55-.45.55-1 .6l-1-.25q-.45-.35-.55-.9-.05-.3.2-1.15.75-2.75.65-4.5l-.75-3.85-.45-1q-.2-.6.2-.95m15.55 6.45q-.65-.25-.45-1.05.05-.45.6-1.15l1.15-1.5.2-.25v3.25l-.45.55zm.6 10.5q-.5.5-1.2 0l-.75-1-1.05-1.55-.2-.6q-.05-.35.25-.6l.65-.1.5.4.25.15.4-.35.1-.1-.55-.55q-.25-.7.25-1.05l1.1-.05.4.4.75 1.1v2.2l-.35-.2-.4-.25-.4.35.45.7q.25.8-.2 1.1m-17.3 2.75.1-.25.1-.45.35-.3.5.2.05.4-.1.7.05.3-.05.45v.45l-.55 1.75-.5.8q-.75 1.05-1.95 1.65l-.95.25-.75-.35-.35-.8q.1-.6.45-.95l.7-.5 1.25-1 .65-.75.25-.5zM60 37.4q-.15.45.4 1.05l.7-.4.6-.5.65.25q.3.35.2.7 0 .7-.75 1.15-.95.75-2 .4-.55-.2-1.25-1.1l-.45-.85q-.2-.75.4-1.65.2-.55.7-.85l1.1-.05.4.6-.2.7zm11.7-5.45q-.25.7-1.15.85-.75.2-1.35-.35l-.65-.8-.7-1.35q-.2-.85.2-1.55.5-.8 1.35-.6.4.05.55.4.25.35 0 .7l-.15.2-.15.05-.25.1-.1-.05.05.05-.25.5.1.45.35.55q.35.3.85 0l.25-.3h-.15l-.4-.25-.15-.3.05-.55.45-.45.4-.25q.5-.05.7.25l.15.15.1.15.05.4.15.1.2.15.1.25.15.65-.2.15-.35.15-.1-.05zm-5.85-1.6q.25-.25.75-.25l.3.15.2.2.5.75.5.8.25.35.15.8v.3l-.2.7-.85.85-1.25.15-.75-.35-.45-.35-.65-.75-.2-.4-.2-.45v-.3l.05-.4q.05-.5.5-.55l.4.1.25.1v.1l.75 1.2q.35.4.6.45h.45l.2-.4q.05-.35-.3-.75l-1.25-1.45zm-3.25 4.2-.35.35q-.15.65.2 1 .4.45.85.35.6-.05.8-.6.2-.5-.15-1-.3-.35-.7-.35-.35 0-.65.25m2.1-.1q.55.85.55 1.5.05.55-.3 1l-.85.65q-1.2.35-2-.55l-.7-1q-.3-.75-.15-1.35.1-.9 1-1.3l1.7.15zM9.15 7.1q-.25-.8-.25-2-.1-.6.15-1.15.35-.7 1.1-.7.8-.1 1.05.7l.05.7V5.9l.4 2.75.3 1.1.3.6.65 2.05-.15.5-.4-.1-.25-.45-.5-.65-.6-.65-.65-1.25-.3-.45-.15-.55-.4-.7zm7.1 10.55q-.5.5-1.2 0l-.75-1-1.05-1.55-.2-.6q-.05-.35.25-.6l.65-.1q.15 0 .5.4l.25.15.4-.35.1-.1-.55-.55q-.25-.7.25-1.05l1.1-.05.4.4 1.1 1.6.45.85q.1.65-.35.8-.35.2-.8-.15l-.4-.25-.4.35.45.7q.25.8-.2 1.1M5 3.3q.2.3.05.8l-.25.25-.25.15-.85.25-.9.3-.4.15-.8-.05-.3-.05-.65-.4L.1 3.65Q0 3 .25 2.4l1-1 .9-.45L2.6.9l.45-.05.3.05.35.15q.5.2.45.6l-.2.4-.2.2h-.1q-.5.05-1.3.35-.5.25-.65.5l-.1.45.35.3.8-.1 1.7-.8zM1.95 8.5q-.65-.35-.6-1.3.05-.75.7-1.2l1-.4 1.45-.35q.85 0 1.45.6.65.7.2 1.45l-.45.45q-.45.1-.7-.2l-.2-.2V7.2l-.05-.25.05-.05-.4-.4h-.5q-.4-.05-.6.2-.4.25-.25.8l.25.3.05-.15.35-.25.35-.1.45.2.35.5.15.5-.45.6-.15.1-.2.05-.4-.05-.1.1-.2.15-.3.05h-.65q-.2-.1-.1-.25l-.1-.4.1-.05zm.9 2.6q-.4-.6.3-1.15.35-.2 1.15-.45l1.75-.6.65-.05.5.4q.15.4-.05.6l-.55.4-.15.25.2.45.05.15.7-.4q.7-.1.95.5.3.6-.25 1.05l-.5.3-1.85.65-.9.25q-.65-.1-.65-.55-.1-.45.3-.75.1-.2.35-.3l-.2-.5-.8.25q-.8.05-1-.5m5.3 6.5q.25-.25.75-.25l.3.15.2.2.5.75.5.8.25.35.15.8v.3l-.2.7-.85.85-1.25.15-.75-.35-.45-.35-.65-.75-.2-.4-.2-.45v-.3l.05-.4q.05-.5.5-.55l.4.1.25.1v.1l.75 1.2.6.45h.45l.2-.4q.05-.35-.3-.75L7.9 18.2zM7 21.7q.55.85.55 1.5.05.55-.3 1l-.85.65q-1.2.35-2-.55l-.7-1q-.3-.75-.15-1.35.1-.9 1-1.3l1.7.15zm-4.7 2.95q-.15.45.4 1.05.3 0 .7-.4l.6-.5.65.25q.3.35.2.7 0 .7-.75 1.15-.95.75-2 .4L.85 26.2l-.45-.85q-.2-.75.4-1.65.2-.55.7-.85l1.1-.05.4.6-.2.7zm2.6-2.85-.35.35q-.15.65.2 1 .4.45.85.35.6-.05.8-.6.2-.5-.15-1-.3-.35-.7-.35-.35 0-.65.25m9.1-2.6q-.25.7-1.15.85-.75.2-1.35-.35l-.65-.8-.7-1.35q-.2-.85.2-1.55.5-.8 1.35-.6l.55.4q.25.35 0 .7l-.15.2-.15.05q-.15 0-.25.1l-.1-.05.05.05-.25.5.1.45.35.55q.35.3.85 0l.25-.3h-.15l-.4-.25-.15-.3.05-.55.45-.45.4-.25q.5-.05.7.25l.15.15.1.15.05.4.15.1.2.15.1.25.15.65-.2.15-.35.15-.1-.05zm.15 2.75.35-.5h.35l.15.3-.1.4.1.6v1.55q-.2 1.4.15 3.2.4 1.8 1.05 3.45l.25.7q.6 1.2.5 1.9-.15.8-.8 1.1-.7.3-1.35 0l-.8-.7q-1.1-1.35-1.4-4.75l-.1-.95-.05-.9.15-1.15.45-2.1q.3-1.25.7-1.75zm-4.8 11.7q-.25-1.6-.15-2.2l.4-1.8q.1-.5.35-.55.2-.05.4.2l.2.4.3 1.35.45 1.05 1.1 1.95.25.4.35.4.7.5.65.55q.75.9 0 1.9-.75.85-1.9.4l-.75-.55-.75-.7-.45-.5-.85-1.3zm-4.8.4.45.7-.05.35-.15.25-.65.65-.6.7-.3.35-.7.35-.3.05H1.5Q.9 37.3.45 36.8q-.4-.45-.45-1.15l.15-.8.75-1.35.35-.25.35-.35.3-.05.45-.05q.5-.1.65.3v.7h-.1l-1 1.05q-.3.45-.25.7l.1.45.45.1.6-.5L3.9 34zm-.05 6.1q-.75-.05-1.1-.9-.35-.65 0-1.4l.6-.8q.7-.85 1.15-1.05l1.55-.2q.85.3.9 1.15.05.4-.25.65-.25.3-.7.2l-.2-.1-.1-.15-.15-.25v-.1l-.05.05-.5-.1-.4.2q-.4.15-.5.5-.2.45.25.8l.35.2-.05-.15.15-.45.25-.2.55-.1.55.3.35.3q.2.5-.05.8l-.15.1-.1.15-.4.15v.2l-.1.25-.2.15-.65.3-.2-.15-.2-.3v-.15zm1.8.65.75-1.05 1.25-1.4.55-.35.6.1.25.6-.25.6-.05.25.4.35.15.05.4-.7q.6-.4 1.05 0 .6.4.35 1.05l-.3.5-.2.25h-5z"/><path fill="#fff" d="M38.35 15.5q-.25-.1-.25-.6 0-.65.7-1.55l.55-.75.85-.95q.55-.45 1.1-.45 1.05 0 1.3.95.3.9-.5 1.55l-.8.35-1.4.9-.7.6zm5.75 21.4-.8-.2q-.45-.3-.55-.85l-.1-1.2-.4-.65q-.2-.55-.05-.75.2-.3.8-.2 1.6.25 2.15 1.65.35.75.05 1.4-.35.8-1.1.8"/><path d="M50.85 20.2q1.05.3 1.05 1 0 .55-.65.85l-1.05.2-4.6.2-4.55.8-1.2.2q-.7 0-1.05-.7-.3-.65 0-1.3l.9-.8 1.15-.3 2.3-.45q1.35-.2 3.25-.05l3.3.2z"/></g></svg>