<svg xmlns="http://www.w3.org/2000/svg" xmlns:ffdec="https://www.free-decompiler.com/flash" ffdec:objectType="shape" width="76.55" height="43"><g fill-rule="evenodd"><path fill="#999" d="M60 9.1q-2.7.4-4 .9l-1.55.65q-1 .2-1.35.45l-.8.35-.45-.2-.2-.4q-.05-.45.7-1 1.6-1 4.85-2.2 4.9-1.8 7.85-2.15 1.65-.1 2.3.5.4.4.4 1 .05.6-.3 1-.55.65-2 .75L63.7 8.7l-1.3-.1-1.15.3zm-.9 15.4-4.4-1.3-1.65-.35-.9-.1q-.55-.2-.55-.65 0-.3.4-.6l.65-.15 3.35.1 1.65.2 1.55.3 1.3.5 2.1.65 2.55 1.3 1.9 1.05q.95 1.05.45 2.2l-.8.85q-.55.3-1.1.2-.7-.15-1.9-1.45l-2.05-1.6q-1.4-.75-2.55-1.15m13.75 12.1q2 .45 2.95 1.45 1 1 .7 2.15-.3 1.25-1.85 1.6H73l-.35.15-1.85.1q-4.35-.35-14.55-.15l-1.85-.15q-1.05-.25-1.4-1.1l-.05-.2-.35-.4q-.3-.5-.3-1l-1-.15q-.6-.3-.75-1.1-.1-.75.3-1.4l.3-.3-1.15-.15q-2.1-.2-6.45.85l-1.85.1q-.45-.1-.8-.4-.35-.35-.4-.8-.05-.65.6-1.3 1.2-1.2 4.25-1.8l4.55-.45 2.6.55q1.25.3 1.95.7.6.35 1.15.95 4.05-.8 8.45-.15 3.85.55 7.85 2.3zM13.95 3.1l-.55-.45q-.2-.4.2-.9l.85-.4 3.1.1q1.1.4 2.3 1.25 1.8 1.2 2.55 2.4.5.85.2 1.35-.2.25-.55.3l-.65-.1-1.1-.75q-.7-.55-3.1-1.35-1.8-.65-3.25-1.45m6.55 14.35q-.15.75-.95.9l-.85.1-3.05.25-3.4.4-2.2.85-1.5.45q-.9.1-1.45-.45l-.4-1.2.15-.75q.35-.8 1.3-1.05l1.75-.3 1.25-.2 1.15.05 1.75-.1 4.15-.4q1.35-.1 1.8.4l.1.15q.5.3.4.9M8.9 34.1q-.25-.75-.05-1.4l.8-1.15.8-.75.9-.5 1.5-1.25q2.5-2.3 5.2-3.75l.8-.25q.45 0 .7.4.25.45 0 .85l-.8.65-3.6 2.9q-.9.7-1.25 1.15l-1.15 1.6-.75 1.2 4.65-.25 2.2.3q1.8.5 3.75 2.35l.9 1.15q.35.75 0 1.4-.45.8-1.6.65l-.8.9q-.7.45-1.5.4l-1.3-.2-.05.8q-.25 1.2-1.6 1.55l-1.55.1q-4.9-.4-7.7 0L6.1 43q-.85-.25-1.15-1.05L3.6 41.8h-.05l-1.2.55q-.7.1-1.35-.3l-.9-1.1q-.35-1.2.6-2.35.55-.7 1.95-1.55 3.15-1.75 6.4-2.65z"/><path d="m53 5.7-.9.4-.5.15q-.4.15-.75-.2t-.25-.75l.3-.55 1.6-1.35.85-.5 1.2-.55.95-.85q1-.95 2.25-1.3 1.25-.4 2 0 1.05.55.95 1.7-.1 1.1-1.1 1.7l-1.8.45q-2.1.3-3.95 1.2zm1.05 10.95q.25-.5 1.1-.6l1.15-.2 1.2.05 2.7-.25 1.15-.25 1.75-.05 1.25-.1 1.2.05q.7.2 1.2.8.5.65.5 1.4-.05.75-.5 1.4l-1.25.75q-1.05.3-3.05-.65l-1.3-.55-2.85-.5-2.1-.15-.6-.2-1.05.05-.45-.4q-.2-.35-.05-.6M34.55 5.4h1.8q1.65 0 2.3.45.55.45.6 1l.05.4.3.9.45 2q0-2.9 1.1-3.95 1.05-.95 3.6-.95l1.75.2q1.15.5 1.5 1.95.3 1 .2 2.5l-.15 2.55.15 3.2.25 3.25q.1 1.8-.25 3.15-.35 1.4-.35 1.75l.5 1.95.35 2.45.1 1.25.75.95q2.55 2.5 6.55 7.35l1 1.55q.45 1.05-.15 1.8l-1 .6-1.2-.2h-.1l-2.05.35-8.45.5-8.5.3-7.35-.15-6.25.25-2.55-.25-.25-.15-.8.45-1.9-.1q-.65-.45-.75-1.3-.15-.85.25-1.65.35-.65 2.2-2.4 1.7-1.5 4.4-5.45.65-.9.75-1.6l-.15-1.55q-.3-1.6-.3-4.85 0-2.75 1.15-3.65-.85-1.65-.85-5.1l.2-4.6q.2-2.9 1.35-3.95 1.1-1.05 4.1-1.15 2.2 0 2.75.9.4.6.15 1.85-.3 1.5-.25 1.95l.4-.05.3-1.2.1-1.25q.2-1.7 1.25-1.9.4-.25.95-.35m24.7 23.3.9.15q.35.1.95.6l.7.6 1.05.2.95.45 1.65.9q1 .85 1 2.1 0 .9-.55 1.4-.5.5-1.3.5l-1.4-.25q-.7-.25-1.2-.65l-.65-.75-.75-.8q-.45-.5-.3-1l-.45-.4-.4-.5-.8-.4-.8-.35-.65-.4-1.45-1.1-.65-.85q-.05-.35.25-.6l.65-.15.75.4 1.5.35zM36.5 17.45l-1.25.1-.2 4.55-.15 1.05 2.3-.25h.3l-.4-1.7-.15-2.7-.1-1.1zM5.6 8.35q-.05-.75.4-1.4.45-.7 1.35-.85l1.6-.15 2.25.45.95.6 1 .3 1.3.4 1.45.2q1.25.15 4.45 1.7l.95.65q.45.6.1 1.2t-1 .6l-.9-.25-2.2-.8-2.75-.45-2.3-.25h-.95l-.75.2-1.65.25q-2.1 0-2.85-.9-.45-.6-.45-1.5M9.75 24l1.3-.6.85-.45 1.2-.3 3-1.15 1.1.05.3.5-.2.55-.8.35q-1.05.2-2.4 1l-2.3 1.3q-1.85.9-2.2 1.35l-.75.95L7.4 28.9l-1.4 1-1.7.1q-1-.45-1-1.75.05-.95.95-1.85.45-.45 1.75-1.1.95-.45 1.6-.55l1.1-.2z"/></g></svg>