<svg xmlns="http://www.w3.org/2000/svg" xmlns:ffdec="https://www.free-decompiler.com/flash" ffdec:objectType="shape" width="76.2" height="41.6"><g fill-rule="evenodd"><path fill="#999" d="M0 24.2v-5l.15.05.75-.15 8.85-3.55 5.15-3.5q4.05-2.85 6.7-5.25 2.75-2.5 3.05-2.7l1.25-.9L23.75 1l-.6-1H52.3l-.6 1-2.15 2.2 1.25.9 3 2.7q2.7 2.4 6.75 5.25l5.15 3.5 8.8 3.55.8.15.8-.75.1-.1v5.85l-3.8-2.05q-2.5-1.3-3.5-1.5l-1.55-.3-1.5-.45-1.1-.65 1.55-.2 1.2.1.85.55.85-.05.15-.45q-.05-.3-.3-.45l-.9-.5-1.25-.7q-1-.6-2.45-.4-.85.05-1.35.4l-2.8-3.15q-2.4-2.25-4.55-2.8l-.8-.15-.05-.45q-.25-.85-1.65-1.9Q52.1 8.3 51.1 7.8l-1-.2q-.55 0-.7.6 0 .55.85.95l1.7 1.15.6.65-.05 1v.4l-1.15 1.2q-.7.9-.85 1.35-.05.5.4.95.35.45.95.4l.9-.45.8-.65q1.55-1.1 3.15-.35l1.85 1.4 3.3 3.55 1.55 1.65q2.1 1.8 5.25 1.5l1.8-.15q.5.1 2.1 1.05l3.65 2v3.75Q62.85 24.5 54.15 17.7l2.15 7.85q1.55 6.05 2 9.1l.5 6.95H16.7q.25-5.4.45-6.95.45-3.05 2-9.1l2.15-7.85Q12.85 24.3 0 29.25v-3.5l3.55-1.95q1.6-.95 2.1-1.05l1.8.15q3.1.3 5.25-1.5l1.5-1.65 3.35-3.55q1-1.05 1.85-1.4 1.6-.75 3.1.35l.85.65q.5.4.9.45.55.05.95-.4.45-.45.4-.95l-.85-1.35-1.15-1.2v-.4l-.05-1 .55-.65q.8-.65 1.75-1.15.8-.4.8-.95-.1-.6-.7-.6l-.95.2q-1 .5-2.15 1.35-1.4 1.05-1.65 1.9l-.1.45-.75.15q-2.2.55-4.55 2.8L13 17.6q-.5-.35-1.35-.4-1.45-.2-2.5.4l-1.2.7-.9.5-.3.45q-.1.25.1.45l.9.05.85-.55 1.2-.1 1.55.2-1.1.65-1.55.45-1.5.3q-1.05.2-3.55 1.5zm37.85 6.75.2.05.2-.05q.55-.05 1.4-.65l1.45-1.45 1.65-2 5.4-6.25Q49.2 19 49.5 17q.3-1.95-.35-3.8-.55-1.75-1.9-3.35-1.3-1.6-2.75-2.1l-3-.2q-1.65.25-2.45.85l-1 .9L37 8.4q-.75-.6-2.4-.85l-3 .2q-1.5.5-2.75 2.1-1.35 1.6-1.9 3.35-.65 1.85-.35 3.8.25 2 1.35 3.6l5.35 6.25 1.7 2 1.4 1.4q.7.55 1.45.7m14.5-2.65.85.6.9.5.55.2.6-.05.5-.4-.2-.45-.4-.2q-.7-.2-.95-.5l-.3-.55-.8-1.9 1 .45.6.2q.55 0 .65-.5v-.65q-.2-.65-1-1.15-.6-.3-1.55-.45l-1.15-.05q-.65-.65-1.3-.9l-.5-.05-1.15.2q-.55.3-.65.9-.1.7.65 1.2l1.1.4.7.4q.85.65 1 1.3l.15.4zm-3 6.55.3 3.3v.05l.15.4.25.25q.3.1.4-.2l.05-.05.3-.55q.35-1.15.3-2.05l-.15-1.3.15-.9-.2-1.25L53 34.2l.9.9q.5.55.7 1.65v2.55q.1.4.5.4l.5-.25.2-.6.15-.95-.2-2.15-.45-1.05-1.6-2.6-1.15-.95q-.9-1.4-2.6-2.85-.6-.45-1.05-.55l-.7-.5-.15-.15q-.3-.2-.6-.25l-.45-.3q-1.05-.35-1.65.35-.8.8-.3 1.75l1 1.4.55.5.85 1.15.9 1.3.75.9zm-22.6 0 .25-.95q.1-.3.75-.9l.9-1.3.85-1.15.55-.5.95-1.4q.55-.95-.25-1.75-.65-.7-1.65-.35-.2.1-.45.3-.3.05-.65.25l-.1.15-.7.5q-.45.1-1.05.55-1.7 1.45-2.6 2.85l-1.15.95-1.6 2.6q-.4.65-.45 1.05l-.2 2.15.3 1.55.55.25.5-.4v-2.55q.2-1.1.7-1.65l.9-.9 2.1-1.65q-.25.75-.2 1.25l.15.9L25 36q-.05.9.25 2.05l.35.55.05.05q.05.3.4.2l.25-.25.1-.4v-.05zm-3-6.55.7-1.05.1-.4q.2-.65 1.05-1.3l.7-.4 1.05-.4q.8-.5.65-1.2-.05-.6-.65-.9l-1.15-.2-.5.05-1.25.9-1.15.05-1.55.45q-.85.5-1 1.15v.65q.1.5.6.5L22 26l.95-.45-.75 1.9-.3.55q-.3.3-1 .5l-.35.2q-.25.25-.2.45l.5.4.6.05.55-.2.9-.5z"/><path fill="#fff" d="M76.2 24.25v1.55l-3.65-2q-1.6-.95-2.1-1.05l-1.8.15q-3.15.3-5.25-1.5l-1.55-1.65-3.3-3.55-1.85-1.4q-1.6-.75-3.15.35l-.8.65-.9.45q-.6.05-.95-.4-.45-.45-.4-.95.15-.45.85-1.35l1.15-1.2v-.4l.05-1-.6-.65-1.7-1.15q-.85-.4-.85-.95.15-.6.7-.6l1 .2q1 .5 2.15 1.35 1.4 1.05 1.65 1.9l.05.45.8.15q2.15.55 4.55 2.8l2.8 3.15q.5-.35 1.35-.4 1.45-.2 2.45.4l1.25.7.9.5q.25.15.3.45l-.15.45-.85.05-.85-.55-1.2-.1-1.55.2 1.1.65 1.5.45 1.55.3q1 .2 3.5 1.5zM0 25.75V24.2l3.65-2q2.5-1.3 3.55-1.5l1.5-.3 1.55-.45 1.1-.65-1.55-.2-1.2.1-.85.55-.9-.05q-.2-.2-.1-.45l.3-.45.9-.5 1.2-.7q1.05-.6 2.5-.4.85.05 1.35.4l2.8-3.15q2.35-2.25 4.55-2.8l.75-.15.1-.45q.25-.85 1.65-1.9Q24 8.3 25 7.8l.95-.2q.6 0 .7.6 0 .55-.8.95-.95.5-1.75 1.15l-.55.65.05 1v.4l1.15 1.2.85 1.35q.05.5-.4.95-.4.45-.95.4-.4-.05-.9-.45l-.85-.65q-1.5-1.1-3.1-.35-.85.35-1.85 1.4l-3.35 3.55-1.5 1.65q-2.15 1.8-5.25 1.5l-1.8-.15q-.5.1-2.1 1.05zm37.85 5.2q-.75-.15-1.45-.7l-1.4-1.4-1.7-2-5.35-6.25Q26.85 19 26.6 17q-.3-1.95.35-3.8.55-1.75 1.9-3.35 1.25-1.6 2.75-2.1l3-.2q1.65.25 2.4.85l1.05.9 1-.9q.8-.6 2.45-.85l3 .2q1.45.5 2.75 2.1 1.35 1.6 1.9 3.35.65 1.85.35 3.8-.3 2-1.35 3.6l-5.4 6.25-1.65 2-1.45 1.45q-.85.6-1.4.65l-.2.05zm11.5 3.9-.25-.95-.75-.9-.9-1.3-.85-1.15-.55-.5-1-1.4q-.5-.95.3-1.75.6-.7 1.65-.35l.45.3q.3.05.6.25l.15.15.7.5q.45.1 1.05.55 1.7 1.45 2.6 2.85l1.15.95 1.6 2.6.45 1.05.2 2.15-.15.95-.2.6-.5.25q-.4 0-.5-.4v-2.55q-.2-1.1-.7-1.65l-.9-.9-2.1-1.65.2 1.25-.15.9.15 1.3q.05.9-.3 2.05l-.3.55-.05.05q-.1.3-.4.2l-.25-.25-.15-.4v-.05zm3-6.55-.7-1.05-.15-.4q-.15-.65-1-1.3l-.7-.4-1.1-.4q-.75-.5-.65-1.2.1-.6.65-.9l1.15-.2.5.05q.65.25 1.3.9l1.15.05q.95.15 1.55.45.8.5 1 1.15v.65q-.1.5-.65.5l-.6-.2-1-.45.8 1.9.3.55q.25.3.95.5l.4.2.2.45-.5.4-.6.05-.55-.2-.9-.5zm-28.6 0-.85.6-.9.5-.55.2-.6-.05-.5-.4q-.05-.2.2-.45l.35-.2q.7-.2 1-.5l.3-.55.75-1.9L22 26l-.65.2q-.5 0-.6-.5v-.65q.15-.65 1-1.15l1.55-.45 1.15-.05 1.25-.9.5-.05 1.15.2q.6.3.65.9.15.7-.65 1.2l-1.05.4-.7.4q-.85.65-1.05 1.3l-.1.4zm3 6.55-.35 3.3v.05l-.1.4-.25.25q-.35.1-.4-.2l-.05-.05-.35-.55Q24.95 36.9 25 36l.15-1.3-.15-.9q-.05-.5.2-1.25l-2.1 1.65-.9.9q-.5.55-.7 1.65v2.55l-.5.4-.55-.25-.3-1.55.2-2.15q.05-.4.45-1.05l1.6-2.6 1.15-.95q.9-1.4 2.6-2.85.6-.45 1.05-.55l.7-.5.1-.15q.35-.2.65-.25.25-.2.45-.3 1-.35 1.65.35.8.8.25 1.75l-.95 1.4-.55.5-.85 1.15-.9 1.3q-.65.6-.75.9z"/><path d="m35.1 27.5-1.35-.05-1.25-.8q-.45-.45-.55-1.25-.1-.75.25-1.35-.8-.45-1.6-1.45t-1.1-1.9q-.4-1.2-.05-2.95.35-1.85 1.1-3.25 1-1.7 2.6-2.8t3.55-1.45l1.9-.05q2.35.05 4.4 1 2.15 1.05 3.4 2.8l.6 1.45q.25.7.15 1.85-.3 3.65-2.3 5.15l-1.55.85.2.3q.45.55.45 1.4l-.35 1.3-.6.6-1.05.25L40.5 27l-.45.95-.8.65-1.05.05-.75-.55q-.8-.7-.9-1.25v-.1q-.65.55-1.45.75m-2.6-8.95q-.6.5-.75 1.25-.1.8.25 1.45.4.65 1.15.9.75.3 1.45 0l1-.7q.5-.5.65-1.15.1-.85-.5-1.6-.6-.6-1.5-.7-1.1-.1-1.75.55m7.8 2.95q.45.55 1.25.7L43 22l1-1q.35-.75.2-1.5l-.55-1q-.65-.7-1.95-.6-.6 0-1.2.35l-.6.8q-.25.65-.15 1.35.1.65.55 1.1"/></g></svg>