<svg xmlns="http://www.w3.org/2000/svg" xmlns:ffdec="https://www.free-decompiler.com/flash" ffdec:objectType="shape" width="76.9" height="41.15"><g fill-rule="evenodd"><path fill="#717171" d="m6.95 7.1-.6-1-.25-.3-.05-.05L3.3 5.2Q1.15 4.9.4 3.75q-.55-.8-.3-1.8.2-1 1-1.5l2.65-.4L5.05 0H19.5l.2 1.05 1.45.1-.05-.6.15-.55h7.15l1.35.95.45.15.45-.05.45.05.6-.45L32.75.6q.6.2.7.7l-.15.85-.5.85q-.85 1.45-.25 3.25.5 1.5 1.9 2.75l1.2.85 1.6.5q2.55.6 3.85-.4l1.05-1.15.95-2.2-.05-1.85-.6-2.9Q42.2.7 42.3.4l.25-.4h2l.6 1.4.05.25.75.6.95.1.35-.05.1-.1q.95-1.1 2.3-.85l.45.1.3-.25.35-.1q.15-.7.7-.8.7-.15 1.1.65l.15 1.35q-.1 4.9 1.2 7.85 1.25 2.95 3 4.7l2 1.75.35.15.45.3.45.3 2.1 1.1q2.35.7 5.35-.55 1.4-.6 2.15-1.35l1.45-2.45q2.95-6.9 3.15-12.2 0-.9.15-1.3l.4-.6h1.5l.25.45.25 1.45q0 3.3-1.25 7.15l-.1.4q.5.2.65.95l-.15 1.4-.9 3.1-.7 1.7q-.4 1-.5 1.75-.15 1.45.9 3.8l1.35 3.8-.1 2.4-.35 2.15-1.3 2.25-1.5 2.2Q72 36.7 72 38.5l-.1 1.3q-.15.7-.6 1l-1.75.2-.8.15H66.3l-.4-.3-.55.25-.15.05h-6.65l-.6-.2-.95-.7-.15-.15-.6.45-1.4.1-1.05-.35-.8-.5q-.95-.6-2.15-.6-1.75-.05-4.4 1.5l-1.1.45H45l-.85-.45-.95.45H26.85l-.1-.1-.8-.8-.35.05-.5-.05-1.6-.3-.6.05-.3.15-1.05.35-.3.6-.05.05h-1.7l-.2-.25q-.2-.3-.2-1.6l-.1-.8q-.2-.85-.9-1.5l-1.5-.85-1.15-.1q-2.55 0-4.15 1.15-.85.65-1.15 1.25L9.5 40l-.5.55-.3.1q-.15.3-.55.4-.5.15-1-.3l-.95-.65-.55-.1-.65-.25-.7-.35-1 .05-.9.15h-.9q-.5-.05-.8-.45-.35-.4-.3-.9l.1-.55q.25-.55.95-.8l.15-.05.45-1.25q1.45-3.8 1.6-6.2.35-3.6-1.2-6.15L1.75 22l-.1-.8-.35-.6-.05-.7.05-1.6.1-.2-.35-.25-.25-.65.3-.65 1.45-.25 1.2-.2.3-.3.85-.35 1.45-1.6q1-1.7 1.1-4.55l-.1-1.25zM58.2 9.25l-.95-3.15q-.6-2.45-.65-3.15 0-1.05.15-1.55.25-.8.95-1.2.7-.3 1.4 0l.4.15h.6L62.6.3h2.45L67.5.15q1.5.2 2.05 1.2.3.65.2 1.5l-.5 2-.45 1.65q-1.1 3.3-1.9 4.4-1.75 2.3-4.1 2.1-1.35-.15-2.8-1.4-1.1-.95-1.8-2.35M41.55 14.8q.25.55.85.85l1.2-.05q.95-.35.95-1.45 0-1-.95-1.45-1-.4-1.75.35-.7.75-.3 1.75m7.3-7.3q.65-.1.8-.6.2-.55-.15-.95-.4-.4-.9-.3-.55.15-.7.7l-.05.25.05.2q.15.5.6.65zm23.2 16.85q-.5-.75-1.45-1l-1.75.1q-.8.4-1.2 1.3-.35.9-.05 1.75.45 1.2 1.6 1.5l1.9-.15q.9-.4 1.25-1.45.35-1.1-.3-2.05m-10.7-1.55q-.7.65-.35 1.6.35.9 1.3 1 1.05 0 1.45-.85.25-.5.1-1.05l-.55-.85q-.45-.3-1-.25-.6.05-.95.4M71 17.3l.25.65q.2.25.55.3.75.15 1.05-.6.25-.75-.4-1.15-.5-.35-.95 0-.3.15-.45.45zm-39.8 6.1q-2.75 2.05-4.25 6.35-1.3 3.95-.15 6.15l1.3 1.8q.95 1.15 1.75 1.6 1.2.7 3.05.7l3.3-.35 4-.55q2.35-.55 5.7-2.6l3.45-2 2.45-2.55 1.75-2.45.85-2.05 1.85-4.5q.95-2.75.65-4.8l-.15-.8q-.1-1.15-1.75-1.75h-.15l-1.25-.05-2.8-.25-5 .6-3.15.8q-1.15.4-3.35 1.6L32 22.5q-.1.45-.8.9m16.95-3.2 2.1-.3q1.25.1 1.8 1 .45.8.1 1.75l-.9 1.55q-4.3 5.75-10.5 9.15-2.3 1.3-3.9 1.35-1.45.15-2.85-.6-1.25-.6-1.7-1.7-.5-1.25.15-2.7.5-1.05 1.7-2.25 2.1-1.95 7.2-4.85l2.1-1.1 1.85-.55zm12.05 8.3-.45.4L58.4 30q-.95.75-1.4 1.65-.45 1.15-.35 2.85 0 .85.15 1.25.2.7.95 1.45.75.95 1.4 1.3.6.4 1.5.5l2.3.05 1.55-.25 1.35-.85L66.9 37l1.05-1.45q1.15-2.25.15-4.2l-1.2-1.5q-.7-.7-1.55-1l-1.55-.4-1.1-.4-.8.05-1.1.2zM54.75 35q-.35-.3-.9-.3l-.8.45q-.5.7-.1 1.35.35.7 1.2.6.75-.1 1-.85t-.4-1.25m9.8-2.3q.4.75-.05 1.6-.5 1-1.65 1t-1.65-1q-.55-.95.05-1.9.35-.55 1-.8l1.35.15q.7.3.95.95M36.15 1.85l.45-.45.8-.45 1-.35q1-.1 1.8.7l.35.5q.7 1.25.05 2.5l-.3.4q-.75.95-1.9 1.05-1.25.1-2.05-.8-.65-.8-.65-1.7l.05-.55zm-9.75 1q.25.55.8.8l1.05.05.85-.55.25-1-.4-1q-.4-.4-.95-.45-.6-.05-1.05.25-.4.3-.55.85-.2.55 0 1.05m-4.45 6q1 0 1.65.4 1.4.85 1.5 3.3.15 3.3-1.4 6.25l-2.15 3.05-2.5 2.8-1.6 1.75q-1 .85-2.15.9-1.35.1-2-1-.4-.65-.2-2.25 1.2-7.25 4.3-12.2.65-1.1 1.4-1.75 1.35-1.15 3.15-1.25m-2.3-4.65-1.9.25q-1.8.55-3.7 3.35Q9.8 14.05 8.8 18.85q-.35 1.55-.65 4.55-.2 2.1-.1 3.2.25 1.95 1.55 4.2l1.05 1.25 2.75.15q5.85-1.25 10.3-5.85 4.05-4.25 5.7-10.45.7-2.75.5-4.9-.35-2.75-2.1-4.35Q26.65 5.6 24.7 5q-2.65-.8-5.05-.8M30.7 21.6l.65-.55q.2-.4.05-.9-.15-.65-.9-.8-.7-.1-1.1.4-.4.6-.2 1.2l.35.45.35.2zm-.9.15.1-.1h-.05zM9.75 3.05q-.6 1.25.3 2.3l1.2.7 1.3-.15 1-.9.25-1.3q-.05-.65-.55-1.2t-1.2-.65l-1.35.25q-.65.35-.95.95M32.9 16.1q-.1 1.05.6 1.65.55.5 1.25.55l1.35-.3q.6-.35.85-1.1.2-.7-.05-1.35T36 14.5l-1.35-.3q-.7.1-1.2.65t-.55 1.25M1 11.7l-.05-.95q.1-1.6.45-2t.95-.5l1.05.1q1.1.45 1.25 1.75.25 1.05-.4 1.95-.65.95-1.75.85-1.15-.1-1.5-1.2m8 21.85q-.4-.5-1.05-.6l-1.2.1q-.55.2-.85.8t-.25 1.2q.1.7.7 1.15.6.5 1.25.45.7-.05 1.25-.55.55-.55.6-1.25 0-.75-.45-1.3m-3.8-3.1.05.05v.1l.2.3.25.1q.3.1.5-.3l.05-.15-.1-.4-.15-.1-.45-.1-.3.35zm15.85 1.6-.45.5-.1.7q.2.8.95.9.75.15 1.2-.55.4-.7-.15-1.35-.5-.55-1.3-.3zM11.25 8.8q0-.85-.8-1.2t-1.4.3q-.6.6-.3 1.4.25.8 1.15.8l.65-.15q.7-.3.7-1.15m4.2 29.45q.9.1 1.35.75.5.75.25 1.5l-.35.65h-2.75l-.1-.1-.35-.7q-.15-.95.45-1.55.65-.65 1.5-.55"/><path fill="#fff" d="m71 17.3.05-.35q.15-.3.45-.45.45-.35.95 0 .65.4.4 1.15-.3.75-1.05.6-.35-.05-.55-.3zm-9.65 5.5q.35-.35.95-.4.55-.05 1 .25l.55.85q.15.55-.1 1.05-.4.85-1.45.85-.95-.1-1.3-1-.35-.95.35-1.6m10.7 1.55q.65.95.3 2.05-.35 1.05-1.25 1.45l-1.9.15q-1.15-.3-1.6-1.5-.3-.85.05-1.75.4-.9 1.2-1.3l1.75-.1q.95.25 1.45 1M48.85 7.5l-.35-.05q-.45-.15-.6-.65l-.05-.2.05-.25q.15-.55.7-.7.5-.1.9.3.35.4.15.95-.15.5-.8.6m-7.3 7.3q-.4-1 .3-1.75.75-.75 1.75-.35.95.45.95 1.45 0 1.1-.95 1.45l-1.2.05q-.6-.3-.85-.85M54.75 35q.65.5.4 1.25t-1 .85q-.85.1-1.2-.6-.4-.65.1-1.35l.8-.45q.55 0 .9.3M26.4 2.85q-.2-.5 0-1.05.15-.55.55-.85Q27.4.65 28 .7q.55.05.95.45l.4 1-.25 1-.85.55-1.05-.05q-.55-.25-.8-.8m4.3 18.75h-.8l-.35-.2-.35-.45q-.2-.6.2-1.2.4-.5 1.1-.4.75.15.9.8.15.5-.05.9zm2.2-5.5q.05-.7.55-1.25t1.2-.65l1.35.3q.65.4.9 1.05t.05 1.35q-.25.75-.85 1.1l-1.35.3q-.7-.05-1.25-.55-.7-.6-.6-1.65M9.75 3.05q.3-.6.95-.95l1.35-.25q.7.1 1.2.65t.55 1.2L13.55 5l-1 .9-1.3.15-1.2-.7q-.9-1.05-.3-2.3m1.5 5.75q0 .85-.7 1.15l-.65.15q-.9 0-1.15-.8-.3-.8.3-1.4.6-.65 1.4-.3t.8 1.2m9.8 23.25.15-.1q.8-.25 1.3.3.55.65.15 1.35-.45.7-1.2.55-.75-.1-.95-.9l.1-.7zM5.2 30.45l.05-.15.3-.35.45.1.15.1.1.4-.05.15q-.2.4-.5.3l-.25-.1-.2-.3v-.1zm3.8 3.1q.45.55.45 1.3-.05.7-.6 1.25-.55.5-1.25.55-.65.05-1.25-.45-.6-.45-.7-1.15-.05-.6.25-1.2t.85-.8l1.2-.1q.65.1 1.05.6"/><path d="M34.05 1.6q.85-.9 2.4-1.6h3.45l.75.3q1.65.95 1.9 2.95l.05 2-.25.8q-.8 1.8-2.45 2.7l-.9.35-1.1.05q-2-.1-3.3-1.3l-.8-.95-.35-.6L33 4.8q-.3-1.75 1.05-3.2m39.4-.85q-.3 4.4-.85 6.55l-.9 2.95-1.3 3q-1.1 1.8-2.85 2.85-1.85 1.15-4 1.15-2.15-.05-4.2-1.55-2.1-1.55-3.65-4-1.55-2.5-2.1-5.85-.4-2.4-.3-5.55l.05-.3h2.3v.45q.05 1.85.5 4.4l.7 2.5L58.1 9.7q1.35 2.2 2.25 2.95 1.6 1.4 3.6 1.45 2.2 0 3.55-1.45l1.2-1.95q2.15-4.55 2.15-9.55l.1-1.15h2.45zM60.8 8.35l.05-.4q.4-1.55 1.9-2l.4-.1q1.05-.25 2.1.25.95.35 1.55 1.4.55 1.05.3 2.25l-.35.8q-.65.95-1.65 1.35l-2.2.15-.85-.35q-.85-.6-1.2-1.9-.15-.6-.05-1.45M33.55 35.1l3.15.65q3.75.2 8.35-3.65 7.05-5.9 8.2-12.7v-.5q-.1-.15-.45-.25l-1.4-.3q-1.65 0-3.95.55l-4.3 1.05-.2.05q-6.65 2.7-10.55 7.6-1.4 1.65-1.7 3.1-.45 2.05.85 3.35.6.55 2 1.05M55.3 16.8q1.25 1.45.55 4.3-1.7 7.05-8.5 12.95-2.4 2.15-4.75 3.3-2.8 1.35-6.05 1.35-3.2 0-6.05-1.3-1.85-.9-2.7-2.1-.7-1.15-.8-2.75-.1-2.2.9-4.45.9-2.05 2.6-3.75 2.5-2.55 7.65-5.05l3.25-1.35 1.3-.3q1.15-.5 2-.75l1.95-.4 4.65-.55.8-.15q2.15-.2 3.2 1m4.95 14.45-.45.8-.1.6-.1.45.05.85.1.35.3.5.7.5.6.25 2.1-.15.55-.45.8-1.1.2-1.1-.2-.75-.55-.8-.8-.35-.25-.25h-.35l-.45-.1-.7-.05-.45.05-.4.3-.35.2zm3.05 6.5-1 .15q-2 0-3.05-.8l-1-1.1-.5-.8-.2-1.05v-.85q.1-2.15 1.9-3.55 1.5-1.2 3.45-1.2l1 .15q1 .25 1.8 1.05t1 1.8l.1.65q.15 1.45-.35 2.7-.7 1.55-2.4 2.55zM37.55 6.65l1.25.1.95-.65.6-.7q.4-.6.3-1.3-.05-.7-.55-1.2-.5-.6-1.6-.85L37.45 2q-.35.05-.65.3-.75.6-1.05 1.3-.35.95 0 1.65.35.9 1.8 1.4m-14.35 8.3-.65.4-1.5.2-1.2-.2q-.95-.35-1.6-1.25-.6-1-.45-2 .05-.9.85-1.95l1.1-.95q.5-.35.9-.4l.85-.05.95.1.95.4.8.65q.6.7.7 1.75.05.9-.4 1.85l-.5.8zM22.8 4.8q1.55.15 2.85.8 1.8 1.05 2.7 3.2.7 1.7.8 4.15.1 3.6-1.4 7.05-1.45 3.45-4.1 5.9l-2.4 1.95-3.55 2.4q-2.1 1.15-4 1.25-2.35.1-3.5-1.2-.85-.9-1.15-3.2-.35-2.1-.35-3.55.05-3.95 2.85-10.2 2.1-4.5 4.35-6.35 3-2.5 6.9-2.2m-1.35 2.95q-2.15.3-3.65 1.75-1.2 1.1-2.8 4.35l-1.55 3.6q-1.6 4.85-.45 9.6l.2.6q.45.8 1.75.7 1.35-.15 3.3-1.7 5.25-4.05 6.9-8.15l.7-2.25.45-2.7q.05-1.4-.45-3.15l-.75-1.55q-1.25-1.45-3.65-1.1M3.2 12.85l.9-1q.8-1 .7-2.25l-.3-1-.6-.65q-.25-.25-.5-.3l-.7-.05q-.85 0-1.35-.5-.35-.4-.25-.95.05-.5.5-.85l1.5-.15 1.5.45q.7.4 1.45 1.55l.35.55q.6 1.15.4 3.15-.15 1.4-.7 2.4l-.9 1.1q-1.1 1.2-2.7 1.1l-1-.2L.8 15l-.3-.5q-.2-.7.25-1l.75-.15.9-.15zM18.45 40.7l-.4.45H17l-.1-.2q-.15-.35.1-.7.3-.6-.1-1.15l-.3-.4-.45-.35-1.2-.05q-.85.15-1.5.65-.65.45-1 1.3l-.25.9h-1.95l-.15-.65q-.05-.55.3-1.3l.4-.7.2-.5.6-.65q1.15-.85 2.25-1.1l2.5-.05q.4.1.75.35l.5.5.3.45.1.4.35.6.2 1.5zm20.75-7.95q-.55 1.05-1.55 1.5l-.7.2q-1.55.25-2.65-.4-1.35-.75-1.45-2.2l.05-.85q.2-1.05.55-1.75.55-1 1.7-1.4l2.2-.15.65.15q.9.35 1.45 1.35.65 1.2.25 2.55z"/></g></svg>