<svg xmlns="http://www.w3.org/2000/svg" xmlns:ffdec="https://www.free-decompiler.com/flash" ffdec:objectType="shape" width="76" height="38.2"><g fill-rule="evenodd"><path fill="#999" d="m74.6 17.85.3.1.2.1.15.1.1.1.1.1.1.1.05.1.1.1v.1l.05.1.05.1v.3l.1.1v.1l.05.1.05.1v.65l-.05.1-.05.1v.1l-.1.1-.05.1-.05.1-.1.1.15.9.05 1.35.1 1.75-.1 1.5.05 4.35-.15 3.2-.25 1.05-.55.55-.1.1-.05.1-.05.15-.1.1-.1.1-.15.1-.2.1-.15.05-.15.05-.3.05h-16.3l-2.05-.05-9.1-.05-2-.05h-2.3l-10.1-.05-10.75-.05H12l-.25.7q-.55.9-1.45.75-1-.15-1.3-1.35v-.5l-.15-.2q-.2-.4-.1-1.7l.05-.15.25-.3q.35-.45.55-1.85.4-3 1.1-5.55l.45-1.5 1.5-4.4.8-1.75.1-.05.25-.05h.05l.15-.05.2-.05h.1l.1-.05h.15l.2-.15 2.55-1.7q2.9-1.6 6.65-.5 1.1.4 1.5.8l1 .35.9.4.15-.1q.85-.4 1.95-.5l1.75.1q1 .35 1.35 1.15h.75l1.3-.05 5-.05h8.95l1-.5 1.35-.75 2.85-.05 1.35.2q.8.25 1 .85l.05.2L58 17.9l1.7-.05h1.95l1.05-.05h.35l-.05-.1q-.05-.5.55-.9 1.6-1.25 3.3-1.4 2.1-.15 3.3 1.25l.4.6q.2-.45.7-.75l1.6-.45 1.25.15q.7.25.7.9l-.3.7zm-18.55-6.9-.25.35-.05.45-.35 1.05-.35.35-.45-.05-.05-.4-.15-.55.1-.55-.2-.7.1-1.75.15-.4v-.4l.2-.8q.3-.35.75-.45.7-.1 1.15.45.4.55.1 1.2l-.25.75-.2.4zm-12.8 0L43 9.9l-.2-.4-.25-.75q-.3-.65.1-1.2.45-.55 1.15-.45.45.1.75.45l.2.8v.4l.15.4.1 1.75-.2.7.1.55-.15.55-.05.4-.45.05-.35-.35q-.25-.45-.35-1.05l-.05-.45zm19.45 9.9-1.05-.05-1.95-.05H58l-2.95-.05H51.9l-2.7-.05h-9.6l-3.4-.05-.3.4.2.7-.95 1-3.4 2.25-.65.7q-.2.5.1 1.2.65 1.65 3.8 2.8 4.2 1.45 7.05 1.4 2.75 0 6.3-1.3l1.7-.25q.35.15.55.45l1.35.25 2.8.25 2.35.2h2.35q2.6-.1 4.45-1.35 1.45-1 2.7-3.45.7-1.4.35-2.25-.25-.65-1.4-1.15-1.3-.55-1.65-.85l-.45-.75zm-4.35-7.75q-.2 0-.35-.2t-.15-.4l.2-.8.85-1.7.7-1.1q.5-.55 1.2-.5.4.05.7.4l.25.7-.45.95-2.35 2.35q-.3.35-.6.3m11.2 12-.6 1.75q-1.05 2.35-2.9 4l-.25.25 2.75-1.35 1.65-1.7.6-1.7q.5-2.25-.35-3.4-.45-.65-1.4-1 .8 1.45.5 3.15m-28.6-12q-.3.05-.6-.3-1.3-1-2.35-2.35-.4-.5-.45-.95-.1-.35.25-.7.3-.35.7-.4.7-.05 1.2.5l.7 1.1.85 1.7.2.8-.15.4zM1.4 34.85Q.7 34.7.35 33.9q-.2-.6.1-1.85l.4-1.3Q.4 29.85.4 28.2v-1.15l.1-1.8.15-.6.5-1.35-.55-.85q-.2-.5-.05-1l.25-.65.05-.05-.5-.25q-.6-.5-.1-1.2.2-.2.6-.3l-.35-.45q-.3-.65 0-1.3.55-1 1.95-.8.8.1 1.45.65l.7.75.5.05 1.2.25h.8l.8.6-.05 1-.65.55-3.55 7.5-.8 2.25q-1 3.05-1.3 4.75v.1zm27.55-6.55q-.45-.7-.6-1.65-.25-1.45.5-2.45l.75-.7q-.95.5-1.75 1.1-1.7 1.2-1.6 2.45.05 1 1.45 2 1.25.85 2.95 1.4-1.05-.9-1.7-2.15m1.85 5.35-.6-.1v.1z"/><path d="M49.3 28.25q-5.3 2.45-9.9 1.4l-2.6-1.1-2-1.6q-.95-.9-1.25-1.65-.3-.3-.35-1.1l-.05-5.3.05-.85.05-.75.35-1.9.25-1.05q.35-.65.9-.55.4.1.7.65l.4 1.35.2.7.05.05.15-.45.1-.35.25-.9.2-.25.15-.55.4-.65.25-.1q.4-.25.8 0l.6.8.7 1.25 1 2.3.15-.3.7-1.3.05-.15.05-.1.3-.65q.3-.85.7-.95h.45q.4.15.6.4l.7 1.1.15.35.65 1.2.4.8.25.75 1.5-.05q1.15 0 1.75.45l.15.1.1.05.05.05.05-.05.05-.05.15-.1q.6-.45 1.75-.45l1.55.05.2-.75.4-.8.65-1.2.85-1.45.6-.4h.45q.45.1.75.95l.25.65.05.1.05.15.7 1.3.15.3 1-2.3.7-1.25.6-.8q.4-.25.8 0l.25.1.4.65.15.55.2.25.25.9.1.35.15.45.05-.05.2-.7.45-1.35q.3-.55.65-.65.55-.1.9.55l.25 1.05.4 1.9.05.75v.85l-.05 5.3-.3 1.1-1.3 1.65-2 1.6q-1.05.7-2.6 1.1-4.6 1.05-9.9-1.4l-.05-.05zm-1.55-24.9q.65.35.95.8.65.9.05 1.8t-1.65.75q-.6-.05-1.3-.65l-1.15-.95-1.05-.75q-.4-.5-.15-1.2.25-.65 1-.8l1.05.1q1.2.3 2.25.9m.85 7.05q-.1-1.2.45-1.6l.7-.15q.45.1.7.35.45.5.7 1.4l.35.9q.6 1.75.1 2.6t-1.35.75q-.9 0-1.25-.85l-.2-.95zm10.9 13.9.45-.45-.1-.15q-.65-.55-1.3-.8l-1.15-.3.3.4.25.75.2.2.1.35.2.35v.25zm-12.85 1.2 2.25-.25.5.05.45-.05 2.25.25 1.3.15.4-1.2.35-.55.95-1.7-1.3-.2.35.35.25.65-.1.55-1.1.9-2.45.45H48.2l-2.5-.3-.85-.3.1.15.45 1.2zM46.4 23q3 .7 6.05-.05-.3-.45-1.65-.45l-2.25-.05q-1.3 0-2.15.55m-2.7-.8.65 1.2.15-.65.75-.8zM40.45.85q.5.75.2 1.6-.45.85-1.3.95l-1.1-.15-1.15-.35-1.15-.2q-.75-.2-.85-.7-.3-.55.3-1.15.3-.3 1.1-.6L38.3 0q1.5 0 2.15.85m-8.8 2.35-1.2.35-1.15.05-1.25.05H28l-.55-.3q-.5-.5-.05-1.25l.4-.6h.05l.05-.05Q28.45.9 29.45.6l1.3-.2q.75 0 1.25.5t.35 1.2q-.1.7-.7 1.1m-9 .15q1.1-.25 1.6.65.55.85-.15 1.75l-1.4.95-.75.55-.2.15-.35.15h-.85q-.8-.4-.6-1.4.2-.75.9-1.35l.95-.9zM10.25 16.4l.4-.7q.4-.45 1.05-.4t1 .55q.5.85-.05 2l-1 1.8-.25.7-.35.6q-.65.75-1.45.35t-.7-1.45q0-.6.5-1.6zm3.8-3.15-.2-.85q.05-.7.85-2 .7-1.2 1.45-1.4.65-.25 1.25.2.55.4.55 1.15l-.35 1.05-.7.9-1.3 1.2-.85.15q-.5-.05-.7-.4M6.45 24.8q.4-.65 1.15-.8.85-.1 1.3.55.3.5.2 1.2l-.35 1.2-.3 1.15-.3 1.1q-.4.85-1.45.75-.95-.15-1.15-1.15-.1-.4.1-1.2l.4-1.65zm-.8 13q-.7.6-1.5.35T3.1 37.1q-.15-.5.05-1.5l.25-1q.2-1.2.45-1.65.4-.9 1.25-1.2l1.3.15q.6.5.4 2.05l-.5 2.55q-.15.8-.65 1.3m33.6-13.5 1.1.6v-.25l.15-.35.15-.35.15-.2.25-.75.3-.4-1.15.3q-.65.25-1.3.8l-.1.15z"/></g></svg>