<svg xmlns="http://www.w3.org/2000/svg" xmlns:ffdec="https://www.free-decompiler.com/flash" ffdec:objectType="shape" width="73.85" height="39.7"><g fill-rule="evenodd"><path fill="#999" d="m60.15 23.4.15.05.15.1.05.1.05.15v.2l.05.1v.1l.05.1v.1l.05.1v.1l.05.1v.5l.05.15v.3l.05.1v.6l.05.1v.65l.05.1.05.1v.1l.05.1v.1l.05.1v.5l.05.1v.25l.05.1v.4l.05.1v.1l.05.1v.1l.05.1.05.1v.1l.05.1v.35l.05.1v.2l.05.1v.1l-.05.1v.4l-.05.1v.3l-.05.15-.05.1-.05.1-.1.1-.05.1-.05.1-.15.1-.2.1-.1.05-.1.05-.1.05h-.55l-.25-.1-.2-.1-.15-.1-.1-.1-.1-.1-.1-.1-.05-.1-.05-.1v-.1l-.05-.1v-.2l-.05-.1v-1.05l.05-.1v-.1l.05-.1v-.3l.05-.15v-.1l.05-.1v-.1l.05-.1.05-.1v-.5l.05-.1v-.1l.05-.1v-.55l.05-.1v-.1l.05-.1.05-.1v-.1l.05-.1v-.6l.05-.15v-.7l.05-.1v-.2l.05-.1v-.65l.05-.1.05-.1v-.2l.05-.1.05-.1v-.3l.15-.1.05-.1h.2z"/><path d="M73 38.8q-.55.85-1.3.9-1.05.15-1.8-1l-.75-2q-.75-2.45-2.4-5.2l-3.25-4.75-2.25-3.1-1.15-1.9-.25-1.4-.05-.05-1-.1-.5.2q-.6.1-.8-.55-.15-.5.2-.95.25-.4.85-.65.75-.45 1.65-.45l.3.05.5-.7v-.5l-.15-.5-.3-.4-.05-.1-.4-.15q-.45-.35-.2-.75.15-.2.6-.3l1.5-.1 1.1.7.5.55.5-.1-.2-.6-.65-1.3-.2-.5q.1-.45.7-.55.8-.15 1.6.35.75.45 1.15 1.25l.45 1.75v.1q1.3.55 2.3 1.8 1.25 1.45 2.25 4.05 2.6 6.55 2.3 13.85-.1 2.05-.8 3.1M59.2 4.1l-.2.45-.15.75v.65l-.15.5q-.15.7-.15 1.35l-.15 1.15-.85.85-1.15-.15q-.6-.35-.9-1.2L54.9 6l-.05-.65-.15-.75V2.15l.05-.5q.1-.6.5-1 .55-.5 2.1-.5l.85.1.5.35.5.5.15.55v1.3l-.15.6zm-3.05 7.75q.85-.95 1.8-.6.6.15.95.9.25.6.15 1.3-.2 1-.85 1.35l-.95.15-.9-.2q-.8-.4-.8-1.35t.6-1.55"/><path fill="#999" d="M6.9 23.75Q4.55 21.6 3.8 18q-.6-3.15.2-5.5.75-2.5 2.9-4.15.8-.55 2.5-1.45l2.9-1.25 1.15-.25.2-.15.75-.45 1.7-.55 3.85-.45 1.25.15q.9.35 1.1 1.15.3.8-.2 1.55l-1.25 1.2L22 8.9q2 2.1 2.65 4.55l.05.2q2.05-1.1 4.9-1.65l3.6-.4q4.8-.1 8.35 2.25l-.05-1q-.05-1.35.3-3.25.35-2.45.65-3.6.45-1.95 1.3-3.3 1.2-2 2.95-2.55l2-.05q1.05.25 1.65 1 .5.6.7 1.75.1 1.1-.25 1.85l-1.6 2q-1.85 1.95-2.65 4.6l-.7 3.5-.6 3.1q1 1.7 1.15 3.55V22l1.6.7q1.45.65 2.4.5-.5-1.1-.5-2.05.1-1.25 1-1.8.4-.25 1.25-.35l1.1.1q1 .4 1.35 1.8.7 2.3-.15 4.55l-.95 1.35-1.6.45-3.05.05L45.1 26q-1.6 1.7-4.35 1.5-1.55-.1-3.85-.95l-.55 1.25.9.65 1.7 1.05q1.05.9 1.4 1.9.25.75 0 1.35l-.65.75q-.7.75-1.7.5-.55-.15-1-.45l-3.85-2.5-1-.95q-.65-1-.4-2.65.2-1.3.75-2.5l-.95-.25-2.55-.25-3 .15-2.45.85-.4.6-1.5 2-.5 1.2-.05.2.8 1.3q.5 1.5-.35 2.75-1 1.35-2.5 1.1-.7-.1-1.25-.6-.55-.55-.7-1.25l-.05-.55q-.45-.8-.5-1.85 0-.6.15-1.3.3-1.75.95-3.1l-.2.05-2.5.3q-5.15.1-8.05-2.55m48.55 5.75H56l.45.1.2.1.2.1.15.1.1.1.05.1.05.1.05.1.05.1.05.1.05.15v.7l-.05.1-.05.1-.05.1-.05.1-.1.1-.05.1-.15.1-.15.1-.15.15-.15.05-.15.05h-1.15l-.8-.05-1.15-.05h-.95l-.4-.05-.35-.05-.25-.05h-.1l-.25-.05-.45-.05h-.2L50.1 32l-.3-.05h-.35l-.25-.05-.25-.05h-.15l-.2-.05-.1-.05h-.2l-.2-.05-.1-.05-.3-.05h-.2l-.55-.05-.9-.05H44.9l-.25-.1-.15-.1-.1-.1-.05-.1-.05-.1.05-.1v-.1l.1-.1.1-.1.1-.1h.05l.2-.05 1.15-.05h.9l.55-.05.2-.05h.3l.1-.05.2-.05h.2l.1-.05.2-.05h.15l.25-.05.25-.05.35-.05h.3l.15-.05.2-.05h.45l.25-.05.1-.05h.25l.35-.05.4-.05h.95l1.15-.05.8-.05h.3zM35.35 6.55h.3l.25.05.2.05.15.15.2.1.1.1.05.1.05.1.1.1v.1l.1.1v.1l.05.1v.4l-.05.1-.05.1-.05.15-.05.1-.05.1-.1.1-.1.1-.1.1-.2.1-.15.05-.1.05-.25.05h-.85l-.25-.05-.15-.05h-.05l-.65-.05-1-.05h-1.25l-.25-.05-.3-.05h-.4l-.4-.05-.25-.05-.15-.05h-.2l-.3-.05-.25-.05h-.3l-.25-.05-.3-.05h-.2l-.2-.05-.2-.05h-.3L27 8.4l-1.45-.05-.25-.05-.1-.1-.1-.1-.05-.1v-.25l.05-.1.1-.1.1-.1.25-.05L27 7.35h.2l.3-.05.2-.05.2-.05h.2l.3-.05.25-.05h.3l.25-.05.3-.05h.2l.15-.05.25-.05h.4l.4-.05.3-.05h.25l1.25-.05 1-.05.65-.05h.05l.15-.05.25-.05zM19.3 17.15l-.6.05-.05-.05-.75-.6q-.85-.4-1.55.2-.3.25-.35.7-.1.4.1.75l.5.5.45.35-.1.7.1 1.6q.1.55.3.75.35.35.75.2l.6-.8.5-1.5.2-.8.9-.25 1.15-.25.2-.6-.3-.5-.8-.15zm1.95-3.8q.5-.85.4-1.8l-.35-1-.75-.7-.55.3-.75.1-.9-.15-.75-.45-.1.05q-1.5.75-1.6 2.3-.15 1.65 1.15 2.45.75.5 1.8.4 1.1 0 1.8-.7zm-8.4-9.1q-.5.5-1 .25-.4-.25-.5-1.05l-.1-1.7.2-.5.75-.85q.7-.35 1.3.15.65.5.5 1.3l-.3.85zm-6 1.8q-.4.3-1.05 0l-.75-.7L3.8 3.9l-.55-.8q-.25-.5-.1-1.05.1-.6.55-.95 1-.8 2.05-.15.85.55 1.15 2.35l.25 1.1.1.9zM1.35 8.3l.75.2 1.25.85.2.65-.55.6-1.7.2-.8-.3q-.75-.5-.4-1.4t1.25-.8m7.5 8.35L8.4 17l-.1 1-.55 1.1q.35 1.45 1.5 2.05l2.5-.05 1.05-1.15q1-1.6.15-2.7-.55-.7-1.5-.85l-1.5-.15z"/><path fill="#fff" d="m21.25 13.35-.6.8q-.7.7-1.8.7-1.05.1-1.8-.4-1.3-.8-1.15-2.45.1-1.55 1.6-2.3l.1-.05.75.45.9.15.75-.1.55-.3.75.7.35 1q.1.95-.4 1.8m-1.95 3.8 1.25.3.8.15.3.5-.2.6-1.15.25-.9.25-.2.8-.5 1.5-.6.8q-.4.15-.75-.2-.2-.2-.3-.75l-.1-1.6.1-.7-.45-.35-.5-.5q-.2-.35-.1-.75.05-.45.35-.7.7-.6 1.55-.2l.75.6.05.05zm-10.45-.5 1.1-.4 1.5.15q.95.15 1.5.85.85 1.1-.15 2.7l-1.05 1.15-2.5.05q-1.15-.6-1.5-2.05L8.3 18l.1-1z"/></g></svg>