<svg xmlns="http://www.w3.org/2000/svg" xmlns:ffdec="https://www.free-decompiler.com/flash" ffdec:objectType="shape" width="76.4" height="39.95"><g fill-rule="evenodd"><path fill="#999" d="m76.1 25.75.1.1.05.1.05.1.05.1.05.1v.4l-.05.15v.1l-.05.1-.1.1-.05.1-.05.1-.15.1-.15.1-.1.05-.1.05h-.3v.15l.05.1.05.1v4.8l-.05.1v.7l-.05.1v1.95l-.05.1v.4l-.05.1v.4l-.05.1v.5l-.05.1v.1l-.05.1v.2l.1.1.1.1.05.1.05.1.05.1.05.1v.4l-.05.1v.1l-.05.1-.05.1-.1.1-.05.1-.15.1-.15.1-.1.1h-.1l-.3.05-7.5.05h-5.7l-17-.05-2.25-.05H25.4l-16-.05-2.85-.05h-1.8l-.65-.05-.6-.05h-.35l-.1.1-.1.1-.1.1-.2.15-.15.05-.3.05-.35-.1-.2-.1-.15-.1-.1-.1-.1-.1-.05-.1-.05-.1-.05-.1v-.2l-.05-.1v-.2l-.05-.1V36.4l.05-.1v-.8l.05-.1v-1.75l.05-.1v-1.2l.05-.1V30.9l.05-.1v-1.4l.05-.1v-.75l.05-.1v-.8l.05-.1.05-.1.05-.1.05-.1h-.55l-.3-.05-.25-.05-.1-.1-.1-.1v-.1l-.05-.1.05-.1v-.1l.05-.1.05-.1.1-.1.15-.1-.1-.1-.15-.1-.1-.1-.1-.15-.05-.1-.05-.1-.05-.1v-.1L0 25.2v-.5l.05-.1.05-.1v-.1l.1-.1.05-.1.1-.1.1-.1.1-.1.2-.05-.05-.15-.05-.1v-.3l-.05-.1v-.1L.55 23v-1.3l-.05-.1v-.7l-.05-.1v-2.35l-.05-.1v-3.8l-.05-.1V4l.05-.1V1.45l.05-.1v-.2l.05-.1.05-.1.05-.1.05-.1.1-.1.1-.1.2-.1.15-.1h.4V.3l.35.05.2.1.05.05.1-.05.1-.05.15-.05h.15L2.8.3l.25-.05h.35L3.7.2l.25-.05H5.6L6.65.1 7.5.05h3.8V0H14l18.55.05H53.1l2.85.05 2.2.05h2.6l5.5.05h7.7l.4.05.2.1.15.1.1.1.05.1.1.15.05.1.05.1.1.1.05.1.05.1v.1l.05.1.05.1.05.1v.75l.05.1v.1l.05.1v.5l.05.1v.1l.05.1v.8l.05.1v.65l.05.1v4.15l.05.1v1.75l.05.1v6.9l.05.1v5.4l-.05.1v.05l.05.1.05.1.1.1v.1l.1.1v.1l.05.1v.1l.05.15v.4l-.05.1v.1l-.05.1v.1l-.05.1zm-9.9-13.6.1-.1.2.9.6 1.1q.35.2.75 0l.5-.6-.15-.9-.9-2.35.2-.65.3-.55 1.4-1.9.2-.4-.1-.4-.55.05q-.5.2-1.25 1.2l-.75 1.25-.6-1.45-.4-.5-.35.1-.2.25.05.75.55 2.25-1.65 2.55q-.4.6-.5.95-.15.6.15 1.05.5.5 1.05.15l.65-1.05zm6.05 5.9L71 16.9q-1-.5-1.6-.55-1.95-.25-3.75 1.45-.75.75-1.1 1.6-.2.65.2.8l.35-.05.95-.5 1.05-.35q.65-.05 1.95.6 1.25.65 1.95.55.8-.15 1.2-.9.4-.7.05-1.5M53.9 4.45l.1.45 1.3 2.85-1.2 1.8q-.45.55-.5.95-.15.65.35 1 .55.35 1.15-.25l.55-1.1.4-.8.7 1.6.5.7 1-.1q.35-.35.25-1l-.45-.95L57 7.65l1.3-2.05.3-.65q0-.5-.4-.5l-.4.2-1.5 1.7L55.55 5l-.75-.9-.6-.05q-.3.15-.3.4M38.95 10.8q-.35.5-.3 1.15 0 .65.4 1.1t1.1.5l1.1-.3.75-.6 1.6.1q.6.3.85.55l.6.3q.5 0 .6-.55l-.15-.8q-.45-1.1-1.3-1.85-.9-.8-1.95-.9l-1.75.25q-1.1.35-1.55 1.05m-6.6.8.55.3.7-.25.65-1.15.05-.15.05.05q.55.95 1.1.95.25.05.5-.2l.25-.5-.4-.85-.85-1.3 1-2.9q.1-.6-.15-.7-.3-.15-.55.4l-1 1.9-.5-.9q-.2-.45-.5-.45-.25 0-.35.3l-.05.5.3 1.25.3.75-.95 1.7q-.45.85-.15 1.25m11 16.5q.45-.45.35-1.15-.1-.65-.6-1l-.9-.35-1.45-.2-1.25.3-2.3.3q-1.75.2-2.55.55-.45.25-.75.6-.3.5-.1.85.1.35.7.55h.95l3.5.35 1.05-.1.6-.15.85.05q1.3.1 1.9-.6M28.3 5.6l1.05-.55q.7-.55.55-1.4-.1-.85-.9-1.2l-1.5.05-1.15 1q-1.35 1.9-.9 5.15 0 .85.55.75.35-.05.45-.85t1.1-2.1q.4-.65.75-.85m-15.8 6.35q-.15.3-.15.65.1.65.75.85.7.2 1.05-.25l.3-.6 1.65-4 1.4 1.4.65.15q.25-.1.15-.4l-.2-.5-1.35-2 1.5-2.95.7-1.05.3-.4-.05-.5-.7-.05q-.5.3-1.05 1.1L15.9 5.9l-.4-.75-.6-1q-.6-.5-1.1-.15-.4.3-.3.9l.45.85 1.15 1.6zm-5.1 3.2 3.4.1.45.05q.25-.1.15-.4l-.8-1.3-1.05-.85q-.55-.3-1.5-.5-1.6-.3-2.5 0-.6.2-1.1.65-.5.5-.55 1.1-.15.95.65 1.6.75.6 1.7.25zm2.85 7.65.25-.85 1.65.6q.5 0 .6-.3l-.25-.55-1.6-1.55.65-2.7v-.3l-.4-.05-.6.8-.6 1.4q-.7-.5-1.15-.5-.45.1-.65.5-.25.4-.05.8l.6.55.7.55-.45 1.15q-.35.8-.25 1.1l.45.45.55-.05z"/><path fill="#fff" d="m66.2 12.15-.7 1.7-.65 1.05q-.55.35-1.05-.15-.3-.45-.15-1.05.1-.35.5-.95l1.65-2.55-.55-2.25-.05-.75.2-.25.35-.1.4.5.6 1.45.75-1.25q.75-1 1.25-1.2l.55-.05.1.4-.2.4L67.8 9l-.3.55-.2.65.9 2.35.15.9-.5.6q-.4.2-.75 0l-.6-1.1-.2-.9zm-12.3-7.7q0-.25.3-.4l.6.05.75.9.75 1.35 1.5-1.7.4-.2q.4 0 .4.5l-.3.65L57 7.65l1.05 1.95.45.95q.1.65-.25 1l-1 .1-.5-.7-.7-1.6-.4.8-.55 1.1q-.6.6-1.15.25-.5-.35-.35-1 .05-.4.5-.95l1.2-1.8L54 4.9zM43.35 28.1q-.6.7-1.9.6l-.85-.05-.6.15-1.05.1-3.5-.35h-.95q-.6-.2-.7-.55-.2-.35.1-.85.3-.35.75-.6.8-.35 2.55-.55l2.3-.3 1.25-.3 1.45.2.9.35q.5.35.6 1 .1.7-.35 1.15m-11-16.5q-.3-.4.15-1.25l.95-1.7-.3-.75-.3-1.25.05-.5q.1-.3.35-.3.3 0 .5.45l.5.9 1-1.9q.25-.55.55-.4.25.1.15.7l-1 2.9.85 1.3.4.85-.25.5q-.25.25-.5.2-.55 0-1.1-.95l-.05-.05-.05.15-.65 1.15-.7.25zm-19.85.35 2.6-4.6-1.15-1.6-.45-.85q-.1-.6.3-.9.5-.35 1.1.15l.6 1 .4.75 1.55-2.5q.55-.8 1.05-1.1l.7.05.05.5-.3.4-.7 1.05-1.5 2.95 1.35 2 .2.5q.1.3-.15.4L17.5 10l-1.4-1.4-1.65 4-.3.6q-.35.45-1.05.25-.65-.2-.75-.85 0-.35.15-.65M10.25 22.8l-.55 1.05-.55.05-.45-.45q-.1-.3.25-1.1l.45-1.15-.7-.55-.6-.55q-.2-.4.05-.8.2-.4.65-.5.45 0 1.15.5l.6-1.4.6-.8.4.05v.3l-.65 2.7 1.6 1.55.25.55q-.1.3-.6.3l-1.65-.6z"/><path d="M72.25 18.05q.35.8-.05 1.5-.4.75-1.2.9-.7.1-1.95-.55-1.3-.65-1.95-.6l-1.05.35-.95.5-.35.05q-.4-.15-.2-.8.35-.85 1.1-1.6 1.8-1.7 3.75-1.45.6.05 1.6.55zm-33.3-7.25q.45-.7 1.55-1.05l1.75-.25q1.05.1 1.95.9.85.75 1.3 1.85l.15.8q-.1.55-.6.55l-.6-.3q-.25-.25-.85-.55l-1.6-.1-.75.6-1.1.3q-.7-.05-1.1-.5t-.4-1.1q-.05-.65.3-1.15M28.3 5.6q-.35.2-.75.85-1 1.3-1.1 2.1T26 9.4q-.55.1-.55-.75-.45-3.25.9-5.15l1.15-1 1.5-.05q.8.35.9 1.2.15.85-.55 1.4zM7.4 15.15l-1.15.7q-.95.35-1.7-.25-.8-.65-.65-1.6.05-.6.55-1.1.5-.45 1.1-.65.9-.3 2.5 0 .95.2 1.5.5l1.05.85.8 1.3q.1.3-.15.4l-.45-.05z"/><path d="M23.9 37.85q-2.35-.65-4.05-1.7l-3.1-2.5q-1.45-1.4-1.95-2.55-.45-.5-.55-1.7v-4.35L16.2 6.1l2.55 11.4 2.6-10.3 4.45 11.65.1.35 3.2-10.65L33.9 21l2.35-.1q1.65 0 2.6.65.95-.65 2.6-.65l2.35.1 4.8-12.45 3.2 10.65.1-.35L56.35 7.2l2.6 10.3L61.5 6.1l1.95 18.95v4.35q-.1 1.2-.55 1.7-.5 1.15-1.95 2.55-1.95 1.8-3.1 2.5-1.7 1.05-4.05 1.7-7 1.55-14.95-2-7.95 3.55-14.95 2m30.15-8.3.7-.7-.15-.25-2.05-1.25-1.75-.45.45.6.4 1.2.2.3.25.55.25.55v.35zm-18.9 1.85 3.5-.4h.4l3.5.4 1.95.25.7-1.9.1-.15-1.25.4-3.9.45-.65.05h-1.3l-.65-.05-3.9-.45-1.25-.4.1.15.7 1.9zm12-5.15-2.4-.35q.75.55 1.15 1.25l.2 1zm-12.4 1.25 4.45.55 3.75-.55q-1.35-.85-3.35-.85h-1.5q-2 0-3.35.85m-4.2-1.25 1.05 1.9.2-1q.4-.7 1.15-1.25zm-6.9 3.3q.8.55 1.7.9v-.35l.25-.55.25-.55.2-.3.4-1.2.45-.6-1.75.45q-1 .4-2.05 1.25l-.15.25z"/></g></svg>