<svg xmlns="http://www.w3.org/2000/svg" xmlns:ffdec="https://www.free-decompiler.com/flash" ffdec:objectType="shape" width="77.6" height="43.2"><path fill-rule="evenodd" d="m7.95 32.5.05-.3-.15-.25-.1-.25q-.05-.15-.25-.15-.5.25-.7.6l-.45.85-.65 1.75-.15.25-.8 2v.55l.35.35.75-.1.35-.65.25-.8.15-.35.15-.5.2-.4zm2.45 2-.25.3-.65.25q-.35.2-.35.5-.05.35.25.6h.05l.05.15.3.55q.15.6-.2.95-.4.4-.95.25l-.5-.2q-.6-.15-.9.5-.05.45.3.9l.95.35 1.5-.3q.85-.4 1.15-1.25.35-.95-.2-1.65l-.35-.35q.75-.4 1.3-1.35.5-.85.35-1.75-.3-1.05-1.2-1.2-.7-.1-1.55.55l-.6.55q-.3.5-.05.8l.5.3.55-.15.4-.45.5.05-.05.45zm6.45-8.3v-.4l.35-.55.4-.2.4.3v.15l-.1.25-.2.2q-.15.25 0 .45l.4.1.1-.1.2-.05.1-.05h.1l.2.2.15.45-.25.4-.75.65q-.2 0-.3.15v.35l.3.15v.1l.4.15.45-.05.2-.15.6-.95.2-.3-.05-.4-.3-.75-.1-.25-.35-.25-.4-.1.05-.3-.05-.6-.45-.5-1.05-.05-.45.2q-.45.35-.6.85l-.05.75.2.5h.4zm-1.6 3.1.7-.1.1-.75-.75-2.15-.25-.55q-.2-.35-.6-.15-.35.1-.35.5l.1.45.6 1.6.1.65q.1.35.35.5M14 17.1q-.1 1.05-.6 1.25l-.4.2q-.35.25-.05.6l.05.35.15.65-.45.65-1.1.3q-.25.15-.15.5l.35.45q.45.3 1 .25.6 0 1-.35.95-.75.6-1.95l-.35-.7.35-.25q.75-.75.9-1.7.2-1.4-.7-1.9l-1.2-.2-.65.1q-.35.3-.35.75l.2.45h.7q.45-.1.65.15zm-7.8 8.75.3-.3.65-.15.45.15q.2.2.05.55l-.1.1-.25.05H7q-.3.1-.35.35l.25.35H7l.2.1.15.05.05.05v.3l-.2.4-.5.1-.95-.05-.3-.1q-.2 0-.25.25l.1.3-.1.1.2.4.35.25.25.05 1.05-.25.4-.1.2-.3.35-.75.1-.2-.05-.45-.25-.35.3-.2.35-.45.05-.65-.7-.8-.5-.2-1 .2-.6.5q-.25.25-.2.5l.3.3zm-3.3 1.1q.1.4.6.4l.55-.45 1-2.1.25-.55q.1-.4-.35-.55l-.6.1-.25.45-.7 1.5-.35.55zm6.35-6.2.2.05q.45.3.8-.15l.9-3.05.15-.05.45-.7-.1-.9.05-.35-.1-.6-.25-.35v-.1q-.05-.05-.15.05l-.45.35-.5 1.3-.05.25-.1.3-.4 1.25-.5 1.2q-.45.85-.35 1.15.1.25.4.35M5.75 9l-.25-.7-.35-.6q-.3-.55-.5-1.9-.1-.6-.4-.7t-.5.2l-.2.55.15.65.3.55.2 1.2q.1.95.35 1.7l.35.5q.5.35.85-.35zM6 5.2l-.15.8.2.65.65.1.2-.4V5.8l.25-.6.25-.6.7.6q.25.4.15.85l-.15.6.1.4.4.4H9l.4.1q.3.3-.15.7l-.5.35-.6.25q-.4.3-.25.6l.3.25q.6.4 1.05.4.65 0 1.1-.65.5-.65.5-1.3 0-.8-.55-1.25l-.55-.3-.7-.2v-.05l.3-1.4q.1-.95-.6-1.25l-.55-.15-.3-.05h-.35q-.35.05-.8.6zm9.3 3.9q.2.45.65.3l.45-.6.4-2.25.1-.6q0-.4-.45-.45-.35-.05-.55.3l-.15.45-.25 1.65-.3.65zm2.9-1.85.2-.35q.2-.2.6-.3l.45.05.2.45-.3.3-.25.05q-.3.15-.25.4l.3.3.15-.05.2.05h.1l.1.05.05.3-.05.45-.45.2-1 .2-.3-.05-.2.3.2.3-.05.1.25.3.45.2h.2l1.05-.55.3-.15.15-.4.1-.8.1-.25-.25-.35-.25-.3.15-.25.3-.55-.15-.65-.85-.55-.5-.1q-.6.1-1 .45l-.35.65q-.2.3-.1.55l.35.2zm10 1v.05l-.15-.05.15-.05zm1.9 1.25v.3l-.1-.2zm-5.9 6.3 1.55.15 1.15-.7q.5-.5.6-1.2l.05-.5.35-.05h.1l-.05.25-.5 2.85q-.3 2.55.2 3.9l.25.95-.3.9q-.55-.2-1.15 0-1 .45-1.1 1.45-.05.6.3 1.15l1 .65.3.05.35.9.65 1 .45 1.05-.05 1-.25.95.1 1.55-.9.25q-.95.8-1.5 1.05l-1.2.3q-.95.3-1.8 1.2l-.35.4-.2.3-.35.1-.45.2-.7.45-.45.55q-.3.45-.3 1.05 0 .95.6 1.6.7.7 1.55.7l1.75-.35.45-.2.55-.4q.85-.25 1.3-.9l.3-.4q.15-.15.65-.4l1.1-.6.4.8q.9 1.1 2.3.95l.9-.1 1.25.25.25.25 1.1.15.3-.3.3-.45.3.05q.75.1 1.35-.3.95-.7.95-1.8 0-.7-.45-1.25-.5-.6-1.15-.75l-.6-.05q-.35-.35-.85-.55l-.7-.2-.7-.1-.95.05-.05-.2q-.4-1-.35-1.55l.5-1.5q.75-1.85.5-3.55.35.75 1.2.85l1.2-.2q1.05-.5.85-1.65-.1-1.15-1.15-1.5-1.1-.35-1.85.5-.35.4-.4.9l-.1-.95.3-1.35.35-1.4-.05-1.35-.25-1.35.05-1.85.2-1.85q.15-2-.45-3.2l.2-.5q.45-1.75-.3-4.4L32.4 6.4l-.05-.5-.4-1.25-.25-.45-.55-.3-1.65.15-.6.7-.1.2q-.5-.45-1.1-.55l-1.2.2q-.6.3-.8.85-.15.6.05 1.3l.25.7q.3.55.95.8l.35.1-.75.2-.2.15-.65.5-.1.1-.45.45q-.4.6-.4 1.25h-.15q-1.1.15-1.6 1.2l-.15 1.25q0 1 .5 1.65.4.45.85.7m41.3 18.7-.25.3-.65.25q-.35.2-.35.5-.05.35.25.6h.05l.05.15.3.55q.15.6-.2.95-.4.4-.95.25l-.5-.2q-.6-.15-.9.5-.05.45.3.9l.95.35 1.5-.3q.85-.4 1.15-1.25.35-.95-.2-1.65l-.35-.35q.75-.4 1.3-1.35.5-.85.35-1.75-.3-1.05-1.2-1.2-.7-.1-1.55.55l-.6.55q-.3.5-.05.8l.5.3.55-.15.4-.45.5.05-.05.45zm-2.45-2 .05-.3-.15-.25-.1-.25q-.05-.15-.25-.15l-.7.6-.45.85-.65 1.75-.15.25-.8 2v.55l.35.35.75-.1.35-.65.25-.8.15-.35.15-.5.2-.4zm-8.9.75-.2-.25.55-.75.65-.95.05.45q0 .75-.9 1.75zm5.9-6.2q.1.4.6.4l.55-.45 1-2.1.25-.55q.1-.4-.35-.55l-.6.1-.25.45-.7 1.5-.35.55zM43.65 6.2l-.15.05.25-.1zM38.6 28.25q-.65.4-.95 1.2-.35.75-.15 1.5.15.65.65 1.15l-.15.15q-.45.65-.55 1.8-.1 1.2.25 2.05.5 1.1 1.4 1.5l1 .35.95.55.9.3.1.1.45.3 1.3.55.7.45.4.4.75.2.85-.05 2.75-.5 2.55-.8 1-.8.25.15q.75.45 1.55.3t1.3-.85q.55-.7.45-1.55l-.15-.5.7-.65q1.2-1.35 1.6-2.8.4-1.65-.25-3.15l-.45-1-.05-.65.2-.9-.1-1.05-.25-1.05-.2-1.25-.7-1.05-.5-1.1q-.35-.85-1.5-1.7-.75-.65-1.6-.8-1-.2-1.5.4l-.25-.25.35-.4.35-.6h.45q1-.15 1.75-.9l1.15-1.6q.6-1.2.6-1.8.05-.7-.45-1.7l-.75-1.7q-.15-1.85-.6-2.65l-.8-1.05Q52.15 5.55 51.1 5l-.6-.45-.4-.5q-.7-1.1-1.8-1.25-1.2-.25-1.85.6h-.05l-.75-.45q-.9-.45-1.6-.45-1 .1-1.5.7l-.35.45-.75.25q-1.05.25-1.6.95l-.35.55q-1.15 1.95-1.85 3.8-.45 1.15-.3 1.85.15.5.45.8l-.15.4-.55.65-.4.85-.05 1.1-.15.45.05.95.55.75 1.8-.1q.9-.7.5-1.7l-.15-.5.15-.35 1.85-1.5q.85-.7 1-1.8l.05-.35 1.1-.2 1.2.1 1.1-.1q.7-.3 1.1-1.5l1.75.5.6.25.35.8.6 1.85.05 1.55q-.55.1-1.05.5l-.8.75-.7.3-.9.8-.2.25-.45.1-2.8.45q-1.5.6-2.1 1.85-.75 1.45.15 2.7.6.8 1.65.9H43q.1.75.55 1.35t1.2.85l1.5.1q.75-.2 1.3-.75l.1-.1q-.05.5.2.9l.7.7.1.05-.2.1q-.85.4-.65 1.45.15.8.95.95.9.15 1.45-.7l.2-.85q-.1-.65-.6-.9l.3-.15.7-.55.25.65.5.8.4.85-.05 2v1.85l-.1 1.1.05.15q-.65.1-1.2.55-.65.5-1.2 1.75l-3.2-.65L44.5 34l-1.35-.8-.8-.7-.6-.6.35-.65q.4-.95-.1-1.85-.35-.9-1.35-1.3l-1.05-.2q-.6.1-1 .35M60.85 9l-.25-.7-.35-.6q-.3-.55-.5-1.9-.1-.6-.4-.7t-.5.2l-.2.55.15.65.3.55.2 1.2q.1.95.35 1.7l.35.5q.5.35.85-.35zm11.1 17.2v-.4l.35-.55.4-.2.4.3v.15l-.1.25-.2.2q-.15.25 0 .45l.4.1.1-.1.2-.05.1-.05h.1l.2.2.15.45-.25.4-.75.65q-.2 0-.3.15v.35l.3.15v.1l.4.15.45-.05.2-.15.6-.95.2-.3-.05-.4-.3-.75-.1-.25-.35-.25-.4-.1.05-.3-.05-.6-.45-.5-1.05-.05-.45.2q-.45.35-.6.85l-.05.75.2.5h.4zm-1.6 3.1.7-.1.1-.75-.75-2.15-.25-.55q-.2-.35-.6-.15-.35.1-.35.5l.1.45.6 1.6.1.65zm-7-3.35.3-.3.65-.15.45.15q.2.2.05.55l-.1.1-.25.05h-.3q-.3.1-.35.35l.25.35h.1l.2.1.15.05.05.05v.3l-.2.4-.5.1-.95-.05-.3-.1q-.2 0-.25.25l.1.3-.1.1.2.4.35.25.25.05L64.2 29l.4-.1.2-.3.35-.75.1-.2-.05-.45-.25-.35.3-.2.35-.45.05-.65-.7-.8-.5-.2-1 .2-.6.5-.2.5.3.3zm1-5.2.2.05q.45.3.8-.15l.9-3.05.15-.05.45-.7-.1-.9.05-.35-.1-.6-.25-.35v-.1q-.05-.05-.15.05l-.45.35-.5 1.3-.05.25-.1.3-.4 1.25-.5 1.2q-.45.85-.35 1.15zm4.75-3.65q-.1 1.05-.6 1.25l-.4.2q-.35.25-.05.6l.05.35.15.65-.45.65-1.1.3q-.25.15-.15.5l.35.45 1 .25 1-.35q.95-.75.6-1.95l-.35-.7.35-.25q.75-.75.9-1.7.2-1.4-.7-1.9l-1.2-.2-.65.1q-.35.3-.35.75l.2.45h.7q.45-.1.65.15zm-8-11.9-.15.8.2.65q.4.4.65.1l.2-.4V5.8l.25-.6.25-.6.7.6q.25.4.15.85l-.15.6.1.4.4.4h.4l.4.1q.3.3-.15.7l-.5.35-.6.25q-.4.3-.25.6l.3.25q.6.4 1.05.4.65 0 1.1-.65.5-.65.5-1.3 0-.8-.55-1.25l-.55-.3-.7-.2v-.05l.3-1.4q.1-.95-.6-1.25l-.55-.15-.3-.05h-.35l-.8.6zm8 3.15.6.4.55-.45 1-2.1.25-.55q.1-.4-.35-.55l-.6.1-.25.45-.7 1.5-.35.55q-.2.3-.15.65m3.3-1.1.3-.3.65-.15.45.15q.2.2.05.55l-.1.1-.25.05h-.3q-.3.1-.35.35l.25.35h.1l.2.1.15.05.05.05v.3l-.2.4-.5.1-.95-.05-.3-.1q-.2 0-.25.25l.1.3-.1.1.2.4.35.25.25.05 1.05-.25.4-.1.2-.3.35-.75.1-.2-.05-.45-.25-.35.3-.2.35-.45.05-.65-.7-.8-.5-.2-1 .2-.6.5q-.25.25-.2.5l.3.3zM1 1h75.6v41.2H1z"/><path fill="#717171" fill-rule="evenodd" d="m72.4 7.25-.4.1-.3-.3q-.05-.25.2-.5l.6-.5 1-.2.5.2.7.8-.05.65-.35.45-.3.2.25.35.05.45-.1.2-.35.75-.2.3-.4.1-1.05.25-.25-.05-.35-.25-.2-.4.1-.1-.1-.3q.05-.25.25-.25l.3.1.95.05.5-.1.2-.4v-.3l-.05-.05-.15-.05-.2-.1h-.1L72.85 8q.05-.25.35-.35h.3l.25-.05.1-.1q.15-.35-.05-.55l-.45-.15-.65.15zm-3.3 1.1q-.05-.35.15-.65l.35-.55.7-1.5.25-.45.6-.1q.45.15.35.55l-.25.55-1 2.1-.55.45zm-8-3.15.75-1.1.8-.6H63l.3.05.55.15q.7.3.6 1.25l-.3 1.4v.05l.7.2.55.3q.55.45.55 1.25 0 .65-.5 1.3-.45.65-1.1.65-.45 0-1.05-.4l-.3-.25q-.15-.3.25-.6l.6-.25.5-.35q.45-.4.15-.7l-.4-.1h-.4l-.4-.4-.1-.4.15-.6q.1-.45-.15-.85l-.7-.6-.25.6-.25.6v.55l-.2.4q-.25.3-.65-.1l-.2-.65zm8 11.9-.05-.4q-.2-.25-.65-.15h-.7l-.2-.45q0-.45.35-.75l.65-.1 1.2.2q.9.5.7 1.9-.15.95-.9 1.7l-.35.25.35.7q.35 1.2-.6 1.95l-1 .35-1-.25-.35-.45q-.1-.35.15-.5l1.1-.3.45-.65-.15-.65-.05-.35q-.3-.35.05-.6l.4-.2q.5-.2.6-1.25m-4.75 3.65-.4-.35q-.1-.3.35-1.15l.5-1.2.4-1.25.1-.3.05-.25.5-1.3.45-.35q.1-.1.15-.05v.1l.25.35.1.6-.05.35.1.9-.45.7-.15.05-.9 3.05q-.35.45-.8.15zm-1 5.2-.4.1-.3-.3.2-.5.6-.5 1-.2.5.2.7.8-.05.65-.35.45-.3.2.25.35.05.45-.1.2-.35.75-.2.3-.4.1-1.05.25-.25-.05-.35-.25-.2-.4.1-.1-.1-.3q.05-.25.25-.25l.3.1.95.05.5-.1.2-.4v-.3l-.05-.05-.15-.05-.2-.1h-.1l-.25-.35q.05-.25.35-.35h.3l.25-.05.1-.1q.15-.35-.05-.55l-.45-.15-.65.15zm7 3.35-.35-.5-.1-.65-.6-1.6-.1-.45q0-.4.35-.5.4-.2.6.15l.25.55.75 2.15-.1.75zm1.6-3.1-.25.35h-.4l-.2-.5.05-.75q.15-.5.6-.85l.45-.2 1.05.05.45.5.05.6-.05.3.4.1.35.25.1.25.3.75.05.4-.2.3-.6.95-.2.15-.45.05-.4-.15v-.1l-.3-.15v-.35q.1-.15.3-.15l.75-.65.25-.4-.15-.45-.2-.2h-.1l-.1.05-.2.05-.1.1-.4-.1q-.15-.2 0-.45l.2-.2.1-.25v-.15l-.4-.3-.4.2-.35.55zM60.85 9v1.1q-.35.7-.85.35l-.35-.5q-.25-.75-.35-1.7l-.2-1.2-.3-.55-.15-.65.2-.55q.2-.3.5-.2t.4.7q.2 1.35.5 1.9l.35.6zM38.6 28.25q.4-.25 1-.35l1.05.2q1 .4 1.35 1.3.5.9.1 1.85l-.35.65.6.6.8.7 1.35.8 1.75.05 3.2.65q.55-1.25 1.2-1.75.55-.45 1.2-.55l-.05-.15.1-1.1V29.3l.05-2-.4-.85-.5-.8-.25-.65-.7.55-.3.15q.5.25.6.9l-.2.85q-.55.85-1.45.7-.8-.15-.95-.95-.2-1.05.65-1.45l.2-.1-.1-.05-.7-.7q-.25-.4-.2-.9l-.1.1q-.55.55-1.3.75l-1.5-.1q-.75-.25-1.2-.85T43 22.55h-.05q-1.05-.1-1.65-.9-.9-1.25-.15-2.7.6-1.25 2.1-1.85l2.8-.45.45-.1.2-.25.9-.8.7-.3.8-.75q.5-.4 1.05-.5l-.05-1.55-.6-1.85-.35-.8-.6-.25L46.8 9q-.4 1.2-1.1 1.5l-1.1.1-1.2-.1-1.1.2-.05.35q-.15 1.1-1 1.8l-1.85 1.5-.15.35.15.5q.4 1-.5 1.7l-1.8.1-.55-.75-.05-.95.15-.45.05-1.1.4-.85.55-.65.15-.4q-.3-.3-.45-.8-.15-.7.3-1.85.7-1.85 1.85-3.8l.35-.55q.55-.7 1.6-.95l.75-.25.35-.45q.5-.6 1.5-.7.7 0 1.6.45l.75.45h.05q.65-.85 1.85-.6 1.1.15 1.8 1.25l.4.5.6.45q1.05.55 2.3 1.8l.8 1.05q.45.8.6 2.65l.75 1.7q.5 1 .45 1.7 0 .6-.6 1.8l-1.15 1.6q-.75.75-1.75.9h-.45l-.35.6-.35.4.25.25q.5-.6 1.5-.4.85.15 1.6.8 1.15.85 1.5 1.7l.5 1.1.7 1.05.2 1.25.25 1.05.1 1.05-.2.9.05.65.45 1q.65 1.5.25 3.15-.4 1.45-1.6 2.8l-.7.65.15.5q.1.85-.45 1.55-.5.7-1.3.85t-1.55-.3l-.25-.15-1 .8-2.55.8-2.75.5-.85.05-.75-.2-.4-.4-.7-.45-1.3-.55-.45-.3-.1-.1-.9-.3-.95-.55-1-.35q-.9-.4-1.4-1.5-.35-.85-.25-2.05.1-1.15.55-1.8l.15-.15q-.5-.5-.65-1.15-.2-.75.15-1.5.3-.8.95-1.2M43.65 6.2l.1-.05-.25.1zm16.4 20.85.15-.65.35-.55.7-1.5.25-.45.6-.1q.45.15.35.55l-.25.55-1 2.1-.55.45q-.5 0-.6-.4m-5.9 6.2.15.25q.9-1 .9-1.75l-.05-.45-.65.95-.55.75zm8.9-.75-1 2.6-.2.4-.15.5-.15.35-.25.8-.35.65-.75.1-.35-.35V37l.8-2 .15-.25.65-1.75.45-.85.7-.6q.2 0 .25.15l.1.25.15.25zm2.45 2 .35-.65.05-.45-.5-.05-.4.45-.55.15-.5-.3q-.25-.3.05-.8l.6-.55q.85-.65 1.55-.55.9.15 1.2 1.2.15.9-.35 1.75-.55.95-1.3 1.35l.35.35q.55.7.2 1.65-.3.85-1.15 1.25l-1.5.3-.95-.35q-.35-.45-.3-.9.3-.65.9-.5l.5.2q.55.15.95-.25.35-.35.2-.95l-.3-.55-.05-.15h-.05q-.3-.25-.25-.6 0-.3.35-.5l.65-.25zM24.2 15.8q-.45-.25-.85-.7-.5-.65-.5-1.65L23 12.2q.5-1.05 1.6-1.2h.15q0-.65.4-1.25l.45-.45.1-.1.65-.5.2-.15.75-.2-.35-.1Q26.3 8 26 7.45l-.25-.7q-.2-.7-.05-1.3.2-.55.8-.85l1.2-.2q.6.1 1.1.55l.1-.2.6-.7 1.65-.15.55.3.25.45.4 1.25.05.5.25 1.15q.75 2.65.3 4.4l-.2.5q.6 1.2.45 3.2L33 17.5l-.05 1.85.25 1.35.05 1.35-.35 1.4-.3 1.35.1.95q.05-.5.4-.9.75-.85 1.85-.5 1.05.35 1.15 1.5.2 1.15-.85 1.65l-1.2.2q-.85-.1-1.2-.85.25 1.7-.5 3.55l-.5 1.5q-.05.55.35 1.55l.05.2.95-.05.7.1.7.2q.5.2.85.55l.6.05q.65.15 1.15.75.45.55.45 1.25 0 1.1-.95 1.8-.6.4-1.35.3l-.3-.05-.3.45-.3.3-1.1-.15-.25-.25-1.25-.25-.9.1q-1.4.15-2.3-.95l-.4-.8-1.1.6q-.5.25-.65.4l-.3.4q-.45.65-1.3.9l-.55.4-.45.2-1.75.35q-.85 0-1.55-.7-.6-.65-.6-1.6 0-.6.3-1.05l.45-.55.7-.45.45-.2.35-.1.2-.3.35-.4q.85-.9 1.8-1.2l1.2-.3q.55-.25 1.5-1.05l.9-.25-.1-1.55.25-.95.05-1-.45-1.05-.65-1-.35-.9-.3-.05-1-.65q-.35-.55-.3-1.15.1-1 1.1-1.45.6-.2 1.15 0l.3-.9-.25-.95q-.5-1.35-.2-3.9l.5-2.85.05-.25h-.1l-.35.05-.05.5q-.1.7-.6 1.2l-1.15.7zm5.9-6.3-.1.1.1.2zm-1.9-1.25V8.2l-.15.05.15.05zm-10-1-.35.2-.35-.2q-.1-.25.1-.55l.35-.65q.4-.35 1-.45l.5.1.85.55.15.65-.3.55-.15.25.25.3.25.35-.1.25-.1.8-.15.4-.3.15-1.05.55h-.2l-.45-.2-.25-.3.05-.1-.2-.3.2-.3.3.05 1-.2.45-.2.05-.45-.05-.3-.1-.05h-.1l-.2-.05-.15.05-.3-.3q-.05-.25.25-.4l.25-.05.3-.3-.2-.45L19 6.6q-.4.1-.6.3zM15.3 9.1l-.1-.55.3-.65.25-1.65.15-.45q.2-.35.55-.3.45.05.45.45l-.1.6-.4 2.25-.45.6q-.45.15-.65-.3M6 5.2l.75-1.1q.45-.55.8-.6h.35l.3.05.55.15q.7.3.6 1.25l-.3 1.4v.05l.7.2.55.3q.55.45.55 1.25 0 .65-.5 1.3-.45.65-1.1.65-.45 0-1.05-.4l-.3-.25q-.15-.3.25-.6l.6-.25.5-.35q.45-.4.15-.7l-.4-.1h-.4l-.4-.4-.1-.4.15-.6q.1-.45-.15-.85l-.7-.6-.25.6-.25.6v.55l-.2.4-.65-.1-.2-.65zM5.75 9v1.1q-.35.7-.85.35l-.35-.5q-.25-.75-.35-1.7L4 7.05l-.3-.55-.15-.65.2-.55q.2-.3.5-.2t.4.7q.2 1.35.5 1.9l.35.6zm3.5 11.75q-.3-.1-.4-.35-.1-.3.35-1.15l.5-1.2.4-1.25.1-.3.05-.25.5-1.3.45-.35q.1-.1.15-.05v.1l.25.35.1.6-.05.35.1.9-.45.7-.15.05-.9 3.05q-.35.45-.8.15zm-6.35 6.2.15-.65.35-.55.7-1.5.25-.45.6-.1q.45.15.35.55l-.25.55-1 2.1-.55.45q-.5 0-.6-.4m3.3-1.1-.4.1-.3-.3q-.05-.25.2-.5l.6-.5 1-.2.5.2.7.8-.05.65-.35.45-.3.2.25.35.05.45-.1.2-.35.75-.2.3-.4.1-1.05.25-.25-.05-.35-.25-.2-.4.1-.1-.1-.3q.05-.25.25-.25l.3.1.95.05.5-.1.2-.4v-.3l-.05-.05-.15-.05-.2-.1h-.1l-.25-.35q.05-.25.35-.35h.3l.25-.05.1-.1q.15-.35-.05-.55l-.45-.15-.65.15zM14 17.1l-.05-.4q-.2-.25-.65-.15h-.7l-.2-.45q0-.45.35-.75l.65-.1 1.2.2q.9.5.7 1.9-.15.95-.9 1.7l-.35.25.35.7q.35 1.2-.6 1.95-.4.35-1 .35-.55.05-1-.25l-.35-.45q-.1-.35.15-.5l1.1-.3.45-.65-.15-.65-.05-.35q-.3-.35.05-.6l.4-.2q.5-.2.6-1.25m1.25 12.2q-.25-.15-.35-.5l-.1-.65-.6-1.6-.1-.45q0-.4.35-.5.4-.2.6.15l.25.55.75 2.15-.1.75zm1.6-3.1-.25.35h-.4l-.2-.5.05-.75q.15-.5.6-.85l.45-.2 1.05.05.45.5.05.6-.05.3.4.1.35.25.1.25.3.75.05.4-.2.3-.6.95-.2.15-.45.05-.4-.15v-.1l-.3-.15v-.35q.1-.15.3-.15l.75-.65.25-.4-.15-.45-.2-.2h-.1l-.1.05-.2.05-.1.1-.4-.1q-.15-.2 0-.45l.2-.2.1-.25v-.15l-.4-.3-.4.2-.35.55zm-6.45 8.3.35-.65.05-.45-.5-.05-.4.45-.55.15-.5-.3q-.25-.3.05-.8l.6-.55q.85-.65 1.55-.55.9.15 1.2 1.2.15.9-.35 1.75-.55.95-1.3 1.35l.35.35q.55.7.2 1.65-.3.85-1.15 1.25l-1.5.3-.95-.35q-.35-.45-.3-.9.3-.65.9-.5l.5.2q.55.15.95-.25.35-.35.2-.95l-.3-.55-.05-.15H9.4q-.3-.25-.25-.6 0-.3.35-.5l.65-.25zm-2.45-2-1 2.6-.2.4-.15.5-.15.35-.25.8-.35.65-.75.1-.35-.35V37l.8-2 .15-.25.65-1.75.45-.85q.2-.35.7-.6.2 0 .25.15l.1.25.15.25z"/><path fill="none" stroke="#717171" stroke-linecap="round" stroke-linejoin="round" stroke-width="2" d="M1 1h75.6v41.2H1z"/><path fill="#fff" fill-rule="evenodd" d="m45.3 3.45 1.1-.1q1.15 0 1.8.9 2.25.3 3.8 1.65.8.7.85 1.3l.15.7.45.35.45 1 .7 1.4q.45.9.5 1.9.5.3.65 1l-.15 1-.7.65-.65.2-.3.4-1.45 1.85-1.2.7-.8.5.45.4 1.15.45q1.05.3 2.05 1.2.8.75 1.9 2.65.7 1.2.6 1.95l-.25 1.1.3.9.6 2.6q.3 1.8 0 2.9-.35 1.75-1.95 2l-1.8.1-.9.65-.9.2.1.2q.3.5.2 1.05l-.35.65q-.5.7-1.25.75h-.1q-.7.65-2.1.65l-2.85-.2-1.4.15-1.35-.2q-.65-.3-1.35-1.25l-.25-.35-1 .2q-.65-.1-1.15-.65-.45-.55-.4-1.25l.3-1 .1-.25-.35-.85q0-.5.25-.85l-.1-.4q0-.65.45-.95l-.1-.25-.05-.5q-.05-.35.2-.8.25-.25.6-.25.35-.05.6.25l.25.6-.35.75-.05.15h.05l.45.6.05.2.2.05 1.35 1.15 1.3 1.3q.75.5 2.15.5l1.45-.15 1.7-.2 1.1.2 1.05-.2q-.1-.35.7-1.2.4-.5.5-1.55l.15-1.7.6-2.25q.15-1.1-.35-2.35-.5-1.5-1.5-2.7-.75-1.05-1.75-1.5l-1.6-.3-.65.85-.25.2.1.5-.25.6q-.55.55-1.2 0l-.25-.55.05-.2q-.5-.1-.8-.5l-.1-.15h-.15q-.95.15-1.6-.5-.7-.7-.45-1.6.25-.75 1.45-1.45 1.9-.9 3.95-.75l.85-.4q-.05-.8.55-1.45.55-.65 1.35-.7.6-1.7.4-4.15-.2-1.4-.6-1.95-.6-.85-2.4-1.45l-.95-.1-.3.25.2.25.2.4q.25.8-.5 1.25-.75.4-1.35-.2l-.2-.45-.3.1q-1.05.3-2.05 0 0 .7-.75 1.25-.8.55-1.15.9l-1.2 1.4-.65.35-.4.8-.2.45.35.45v.6l-.05.45-.6.25q-.35-.15-.35-.55l.05-.3-.15-.25q-.2-.25.05-.5l.15-.2v-.15l-.05-.05v-1.85l.1-1.25.85-1.5.6-1.55q.35-.9 1.55-2.5l.85-.95q1.1-1.1 2.7-1zm4.35 18.9q.9.2.9 1.05.1.8-.75 1.15-.85.25-1.35-.45l-.15-.35v-.25q-.05-.4.25-.75.25-.35.65-.45zm-.8 4.35-.25-.15-.05-.3v-.15l.05-.1.2-.15.2-.05v-.05l.3.1.05.1.15.2-.05.3-.2.25zm5.35 10.6q-.55-.2-.55-.7t.45-.75q.55-.2.85.2l.15.15.1.45-.1.25-.15.2q-.3.4-.75.2M28.45 22.7q-1-1.5-.8-2.8l.45-1.55.1-1.4-.05-2.45q0-1.3.15-1.95.95-1.75.9-2.75 0 .65-.75 1.2l-1.4.45q.1 1-.75 1.6l-.7.4-.05.05-.05.2.05.15.1.5v.3l-.45.4-.6-.1-.25-.5.05-.05-.05-.05.05-.25.2-.25.1-.25h-.15q-.75-.1-1.05-.35l-.4-.7q-.35-.9-.1-1.6.35-.9 2.35-1.5 2.6-.85 3.3-2.2l.65-1.7q.5-1.1 1.45-1.1.75.1 1.15.9l.2 1.45.1 11.5q.7.75.75 1.8t-.6 1.8l-.55.6-.45.7v.85l.15.8-.05 1-.05.95.45 1.4-.15 1.1-.25 1.15q-.1.7.35 1.8l.55 1.85v.55l.05-.05.35-.15.6-.15 1.2.05.4.3.65.15q1.1.5 1.1 1.55-.1.9-.85 1.35l-1.7.2q-.6-.15-1-.6l-.25-.3-.55.25-.7.1-.35.15-.45.5q-.4.45-1.7.8l-1.85.45q-.95 0-1.75-.6l-.25-.1-.2.15q-.95.95-2.25.75-1.35-.25-1.75-1.5-.35-1.3.75-2.1.65-.4 2.3-.5.65-1.55 2.4-1.65l1.05.05h.1l.1-.8.3-.95.15-1-.25-1.4q-.25-.9-.15-1.4l.35-1 .35-1q0-1.15.15-1.65l.2-.8zm-2.5-15.8q-.3-.4-.15-1 .15-.7.8-.9.75-.35 1.4.25.6.6.35 1.35t-1.1.85q-.85.2-1.3-.55m.65 17.2-.05-.3q0-.45.45-.55.45-.2.75.15l.15.35-.05.3-.15.2-.15.15h-.6l-.25-.2zm7 1.55q0-.25.15-.55.2-.25.45-.35l.65-.1q.9.2.9.95 0 .8-.85 1l-.25.05-.15.35-.3.2-.75-.15q-.4-.2-.3-.65.05-.4.5-.55z"/></svg>