<svg xmlns="http://www.w3.org/2000/svg" xmlns:ffdec="https://www.free-decompiler.com/flash" ffdec:objectType="shape" width="68.85" height="38.05"><g fill-rule="evenodd"><path fill="#fff" d="m58.15 18.85.2.05 1.9.1q1.05-.2 1.7-.8l.8-1.2.25-1.6.2.2q.6.7.65 1.25.1.8-.6 1.45l-1.35.85-.7.4-1.1.45-.1.05-.7.15-.7.15-.6.05-.85.1-.8-.1-.65-.05-.7-.15-.55-.1-.15-.05-.1-.05-1.15-.45-.65-.4-1.35-.85q-.75-.65-.6-1.45.05-.55.65-1.25 1.35-1.7 2.45-2.3l.1-.05.25-.2.4-.15q.6-.45 1.5-.7l.8-.1h.4l1.05.05.25.05.4.05.15.1.3.1.5.25-.5.1-.75.2-.15-.05q-.5-.3-.95-.3l-.95.15q-1.7.35-2.4 1.65l-.25.8-.25.9.2.95.3.65.45.5.6.45.55.2 1.9.1zm2.25 4.85-.25-.5v-.15l.3-.1 3.75-1.3.65-.2.3.95q.15.8-.15 1.4l-.95 1.05q-.65.45-1.45.4-.7 0-1.3-.4-.7-.45-.9-1.15m-7.55.6q-1.05.9-2.35.45t-1.55-1.8q-.2-1.2.65-2.1l.65.7q.4.4 1.1.65l1.9.75.4.05q-.2.75-.8 1.3m-41.9-11.4-.9-.25-.35.05q.5-.3 1.15-.5l.8-.1h.4l1.05.05.25.05.35.05.2.1.25.1 1.55.8.05.05q1.1.6 2.45 2.3.65.7.7 1.25.1.8-.6 1.45l-1.35.85-.7.4-1.1.45-.15.05-.65.15-.75.15-.55.05-.85.1-.85-.1-.6-.05-.75-.15-.5-.1-.15-.05-.1-.05-1.15-.45-.65-.4-1.35-.85q-.75-.65-.65-1.45.05-.55.7-1.25l.4-.45-.1.1-.2.9.15.95.35.65.45.5.55.45.6.2 1.9.1.4-.1 1.85.1q1-.2 1.65-.8l.8-1.2q.45-.95.25-2.1-.3-1-1.25-1.65l-.7-.3-.95-.3-.95.15zm4.45 10.8-.2-.5v-.15l.25-.1 3.8-1.3.65-.2.3.95q.15.8-.2 1.4l-.95 1.05q-.6.45-1.4.4-.7 0-1.35-.4zm-7.5.6q-1.1.9-2.4.45T4 22.95q-.25-1.2.6-2.1l.7.7 1.05.65 1.9.75.4.05q-.15.75-.75 1.3"/><path fill="#999" d="m61.45 6.6-.3.4-.55.4-.2.1-.45-.1-.1-.25.15-1 .7-1.6v-.2l.15-.35.45-.6q.35-.3.7-.25V3.1l.45.1.55.6.15.6-.4.8-.3.35-.1.15-.25.15-.3.4zm-3.3.05v.55l-.2.35-.25.3-.8-.05-.25-.45-.1-.6V6.3l-.1-.3v-.35l-.5-3.45.05-.6q.1-.85.95-1 .8-.15 1.3.5l.1.1.1 1.6v1.6l-.15.6v.4zM49.35 27l-1.3-.95-.9-1.05q-.85-1.1-1.1-2.15l-.7-1.8-.3-4.5-.1-2.7.65-3.8V9.8q.25-1.05.6-1.4h.05l.15-.15q.75-.8 1.9-.65l1.25.4 1.1.7 1.3.7.8.65q1.4-.7 3.05-.85H58q1.7.15 3.1.85l.8-.65 1.3-.7 1.1-.7q.7-.35 1.25-.4 1.1-.15 1.9.65l.1.15h.1q.3.35.6 1.4v.25l.6 3.8-.05 2.7-.35 4.5-.65 1.8q-.3 1.05-1.15 2.15l-.9 1.05-1.25.95-3.15 1.55.5.65 1.4 2.3q.5 1 1.45 4.65l.3 1.9H48.85l.3-1.9q.95-3.65 1.45-4.65l1.4-2.3.5-.65q-1.5-.6-3.15-1.55m9.05-14 .75-.2.5-.1-.5-.25-.3-.1-.15-.1-.4-.05-.25-.05L57 12.1h-.4l-.8.1q-.9.25-1.5.7l-.4.15-.25.2-.1.05q-1.1.6-2.45 2.3-.6.7-.65 1.25-.15.8.6 1.45l1.35.85.65.4 1.15.45.1.05.15.05.55.1.7.15.65.05.8.1.85-.1.6-.05.7-.15.7-.15.1-.05 1.1-.45.7-.4 1.35-.85q.7-.65.6-1.45-.05-.55-.65-1.25l-.2-.2-.25 1.6-.8 1.2q-.65.6-1.7.8l-1.9-.1-.2-.05-.35-.15-.55-.45-.45-.5-.35-.65-.2-.95.25-.9.3-.8q.5-1 1.6-1.45m-5.55 11.3q.6-.55.8-1.3l-.4-.05-1.9-.75q-.7-.25-1.1-.65l-.65-.7q-.85.9-.65 2.1.25 1.35 1.55 1.8t2.35-.45m7.55-.6q.2.7.9 1.15.6.4 1.3.4.8.05 1.45-.4L65 23.8q.3-.6.15-1.4l-.3-.95-.65.2-3.75 1.3-.3.1v.15zM4.4 27l-1.3-.95L2.2 25q-.85-1.1-1.1-2.15-.4-.65-.7-1.8l-.35-4.5-.05-2.7q.05-1.15.65-3.8V9.8q.25-1.05.6-1.4h.05l.1-.15q.8-.8 1.9-.65.6.05 1.25.4l1.15.7 1.3.7.75.65q1.4-.7 3.1-.85h2.2q1.7.15 3.1.85l.8-.65 1.25-.7 1.15-.7q.65-.35 1.25-.4 1.1-.15 1.9.65l.1.15h.05l.65 1.4v.25l.6 3.8-.05 2.7-.35 4.5-.65 1.8q-.3 1.05-1.15 2.15l-.9 1.05-1.3.95q-1.6.95-3.15 1.55l.5.65 1.45 2.3q.5 1 1.45 4.65l.3 1.9H3.9l.25-1.9q.95-3.65 1.5-4.65l1.4-2.3.5-.65zm6.25-8.1-.4.1-1.9-.1-.6-.2-.55-.45-.45-.5-.35-.65-.15-.95.2-.9.1-.1-.4.45q-.65.7-.7 1.25-.1.8.65 1.45l1.35.85.65.4 1.15.45.1.05.15.05.5.1.75.15.6.05.85.1.85-.1.55-.05.75-.15.65-.15.15-.05 1.1-.45.7-.4 1.35-.85q.7-.65.6-1.45-.05-.55-.7-1.25-1.35-1.7-2.45-2.3l-.05-.05-1.55-.8-.25-.1-.2-.1-.35-.05-.25-.05-1.05-.05h-.4l-.8.1q-.65.2-1.15.5l.35-.05.9.25.05.05.7.3q.95.65 1.25 1.65.2 1.15-.25 2.1l-.8 1.2zm4.75 4.8.9 1.15q.65.4 1.35.4.8.05 1.4-.4L20 23.8q.35-.6.2-1.4l-.3-.95-.65.2-3.8 1.3-.25.1v.15zM12.95 5.8l-.3.75-.3.5-.1.3-.25.05-.25-.15L11.7 7l-.15-.35L11.4 6l-.1-.7.05-.05-.05-.45-.05-.05-.3-2.85v-.75q.05-.4.45-.75l.85-.3V0l.8.3q.55.4.55 1l-.2 1.5-.15 1.1-.05.05-.05.85-.05.15zM7.8 3.4l.3.2.3.9h.05l.2.6.15.1.05.2.05.05.5 1.3.05.65-.15.4-.35.1-.3-.1-1.2-1.05-.9-1.05-.2-.1L6 5l-.05-.15-.05-.35.1-.55.15-.3q.3-.3.65-.35zm.1 20.9q.6-.55.75-1.3l-.4-.05-1.9-.75-1.05-.65-.7-.7q-.85.9-.6 2.1.2 1.35 1.5 1.8t2.4-.45"/><path d="m25.65 24.35-1.6-1.15-1.1-1.35q-1-1.3-1.4-2.65-.45-.8-.8-2.25l-.45-5.5-.05-3.4q.05-1.35.7-4.7l.1-.3q.3-1.3.7-1.7l.1-.05.15-.15q.95-.95 2.35-.8.65.05 1.5.5l1.4.85 1.6.9.95.75q1.75-.8 3.8-1h2.75q2.1.2 3.85 1l.95-.75 1.6-.9 1.4-.85q.8-.45 1.5-.5 1.4-.15 2.35.8l.1.15.15.05q.4.4.7 1.7l.05.3.75 4.7-.05 3.4-.45 5.5-.8 2.25q-.4 1.35-1.4 2.65l-1.1 1.35-1.6 1.15-3.85 1.9.55.75 1.8 2.85q.6 1.3 1.8 5.8l.35 2.4H25.05q-.05-1 .3-2.4 1.2-4.5 1.8-5.8l1.8-2.85.55-.75q-1.85-.7-3.85-1.9m8.6-8.15 1.05.05 1-.05.75-.05.9-.2.85-.25.1-.05 1.4-.55.85-.45q1.15-.5 1.7-1.1.9-.75.7-1.8-.05-.6-.8-1.5Q41.1 8.1 39.7 7.4l-.05-.05-.35-.25-1.6-.8-.3-.1-.2-.05-.5-.1-.25-.05-1.35-.1h-.45l-1.05.2q-1.05.2-1.85.8l-.5.2-.35.25-.05.05q-1.4.7-3 2.85-.8.9-.85 1.5-.2 1.05.7 1.8l1.7 1.1.85.45 1.4.55.1.05.85.25.9.2zm-3.5-5.25.3-1.15.3-.95q.85-1.6 2.9-2.1l1.25-.1 1.1.3.85.4q1.15.8 1.5 2.05.35 1.35-.2 2.6l-.65.95-.4.45q-.75.8-2.05 1.05l-2.35-.15-.7-.3-.65-.5-.6-.6-.45-.8zM29.95 21q.8-.7.95-1.6l-.5-.1-2.35-.85q-.8-.4-1.3-.9l-.85-.8q-1 1.1-.7 2.55.25 1.7 1.85 2.25t2.9-.55m9.3-.75q.35.85 1.1 1.4.8.5 1.7.5.95.05 1.75-.45t1.15-1.35q.4-.75.25-1.7l-.4-1.2-.8.3-4.65 1.6-.35.1v.15z"/><path fill="#fff" d="m34.25 16.2-.75-.05-.9-.2-.85-.25-.1-.05-1.4-.55-.85-.45-1.7-1.1q-.9-.75-.7-1.8.05-.6.85-1.5 1.6-2.15 3-2.85l.05-.05.35-.25.5-.2q.8-.6 1.85-.8l1.05-.2h.45l1.35.1.25.05.5.1.2.05.3.1 1.6.8.35.25.05.05q1.4.7 3.05 2.85.75.9.8 1.5.2 1.05-.7 1.8-.55.6-1.7 1.1l-.85.45-1.4.55-.1.05-.85.25-.9.2-.75.05-1 .05zm-3.5-5.25.15 1.15.45.8.6.6.65.5.7.3 2.35.15q1.3-.25 2.05-1.05l.4-.45.65-.95q.55-1.25.2-2.6-.35-1.25-1.5-2.05l-.85-.4-1.1-.3-1.25.1q-2.05.5-2.9 2.1l-.3.95zm8.5 9.3L39 19.6v-.15l.35-.1 4.65-1.6.8-.3.4 1.2q.15.95-.25 1.7-.35.85-1.15 1.35t-1.75.45q-.9 0-1.7-.5-.75-.55-1.1-1.4m-9.3.75q-1.3 1.1-2.9.55T25.2 19.3q-.3-1.45.7-2.55l.85.8q.5.5 1.3.9l2.35.85.5.1q-.15.9-.95 1.6"/></g></svg>