<svg xmlns="http://www.w3.org/2000/svg" xmlns:ffdec="https://www.free-decompiler.com/flash" ffdec:objectType="shape" width="74.55" height="40"><g fill-rule="evenodd"><path fill="#999" d="m72.4 3.1-.3-.15-.1-.25.1-.3q.2-.2.6-.2l.05-.05.85.05q.45.2.45.65.1.5-.45.65-.35.2-.95-.2zM71.1.75l.15-.55q.15-.15.35-.15l.1-.05.45.2.15.45-.05.25-.3.85-.3.4-.5-.1L71 1.6l-.05-.3zm-.6 1.8-.3.25-.35.05h-.2l-.95-.1-.2-.1q-.15-.05-.15-.35v-.15q.05-.3.4-.4h.6V1.7l.35.05.5.2.25.15q.2.25.05.45m.35.35.35-.1q.25 0 .35.2l.1.45-.1.9-.15.35-.4.25q-.2 0-.4-.2l-.1-.65.1-.65q.1-.45.25-.55m-7.9 3L61.9 6l-.65.3q-.4.2-.65-.15-.15-.25.05-.55l.55-.35 2.5-1 1.45-.1q1.65.1 2.55.6l.65.45 1.15 1.25.2-.15.9-.2q.55 0 .7.45l-.05.8-.15.3-.05.3-.1.55-.1.3-.05.25-.3.95-.5.9-.9.35-2.45-1.05-.2-.15-.5-.3-.1-.25q-.15-.5.05-.95l.2-.25 1.15-.45-.5-.5-.95-.75-1.3-.45zm-1.85 9.8q.85-1.2 2.15-1.75l2.4-.35q2.85.1 4.3 1.55.95.95 1.25 2.25l1.1.05.5-.05.3-.1.8-.15.45.05q.3.2.2.4l-.15.2-.75.35-.25.05-1.4.65-.65.2-.2.15-.2 1-.25 1.1h.05l.45.35.2.25.85.5.6.6v.4l-.4.1-.45-.1-2.45-.3h-.15l-1.15.85.3.5L69 26l.45 1 .2.6v.3h-.3l-.75-.75-1.3-1.45-.6-.45-.45-.25-.05-.05-1.2.25-.05.15-.25.7-.2.3-.45.85-.4 1.1-.2.3-.25-.1-.1-.25-.1-.55.1-.7.05-.6v-.25l-.05-.2.05-.05q-.15 0 0-.15l-.05-.45.1-.25V25q-1.1-.3-2-1-.7-.55-.85-1.15l-.1-.9-.3-.85v-.05L59.9 21l-1.15-1.05-1.55-.85q-1.3-.55-1.9-.45-1 .1-1.5 1.1-.45.8-.1 1.85 2.15.65 3 1.05 1.65.85 2.45 2l1.45 2.05q.8 1.05 1.35 2.9l.25 1.6q-.05.9-.8 1.6-.7.65-1.6.65T58 32.8l-1.45-1.3q-3.9-4.4-4.55-7.85-.9-.15-1.6.55-.65.55-.8 1.55-.1.35.05.55l.45.35q2.55 1.5 4.1 5.35l.4 1.45q.1.85-.45 1.4-.6.65-1.6.5-.75-.1-1.55-.75-1.8-1.25-2.65-3.25l-.6-2-.4-1.45-1.4.2q-.65.3-.95.95l-.4 1.5q-.1 2.15.65 3.95.25.7-.05.85h-.4q-1.5-.4-2.05-2.15-.35-1.15-.05-3.1.2-1.3.6-2.1.5-1.1 1.65-1.7t2.4-.45q.1-1.85 1.25-3.1 1.25-1.35 3.05-1.35-.25-1.75.65-3 .9-1.35 2.55-1.7l1.75.05 1.1.45 1.65 1 .4.35.05-.3q.3-1.3 1.3-2.55M53.5 6l.1-.15.15-.4-.25-.15-.05-.15q-.15-.2 0-.5l.05-.1.15-.15.6-.05.55-.2.15-.4.3-.3.5.2.2.2-.05.5.6.05.45.45q.1.6-.5.7l-.45.1v.5l-.05.2.05.15q.1.4-.35.5l-.6-.1-.45-.45-.25.25-.35.1-.5-.25-.05-.2v-.2zm-13 10.35q1.2 1.05.95 2.95-.15 1.15-1.2 2.95 2.35.25 4.3-1.45 1.65-1.45 2.5-3.9.55-1.55.5-2.9l-.2-1.55-.6-1.2-.85-.85q-.35-.6-.05-1.2L46 9q-.15-.55.3-1.1.5-.6 1.55-.4l1.45.75.9.75.3.45.35.4.85 2.15.2 1.1-.2 1.95-.2 1-.45 1.1-.25.2-.1.25h-.15v-.35l.25-1.15.05-1.8-.15-.65q-.45-1.8-1.15-2.5l.55 2.25q.2 1.95-.6 4.4-.65 1.95-1.8 3.4-1.1 1.25-2.6 2.2l-1.5.85q-1.85.85-4.25.35l-.65-.05-.75.55q-1.6 1.6-3.85 1.85l-1.3-.3q-.15-.05-.15-.3 0-.2.3-.3 2.7-1.35 3.6-2.45-1.15-.55-1.6-2.1-.4-1.4.05-2.9.5-1.45 1.65-2.35.7-.5 1.2-.6l1.35.05q.85.25 1.3.65m18.8 14.5q.45.35.7.35t.3-.15v-.3l-.4-1.45-.25-.55-.95-1.35-.85-1.1-.4-.5-1.05-.8q-1.3-.8-2-.9l.85 1.65.85 1.5 2.2 2.7zm-8.4.1.15.15.15.4.15.25.3.35.3.45.5.35-.2-.65-.1-.2-.05-.15-.1-.1v-.1l-.1-.25-.2-.35-.15-.2-.5-.8-.1-.1v-.1l-.75-.75.1.35v.15l.25.75.1.1zm-11.8-12.6v-.1l-.25-.25-.25-.05-.4.15-.35.35-.2.15-.35.8v.15l-.05.1v.1l-.05.15v.3l.05.3v.2l.05.15.1.2.05.15.5.35.4-.55v-.1l.1-.1.15-.2.3-.65.05-.15v-.1l.2-.55v-.4l.05-.1-.05-.1v-.1zM10.25 6.15l-1 .35-.6.3-.75.15-.95-.15q-.55-.4-.55-1.2.05-.65.55-1.2l.65-.75-.15-.15-.85-1.25q-.3-.75-.1-1.05l.45-.35L8.4.65 9.65 1l1.1.45 1.1-.45L13.1.65l1.45.2.45.35q.2.3-.1 1.05l-.85 1.25-.15.15.65.75q.5.55.55 1.2 0 .8-.55 1.2l-.95.15-.75-.15-.6-.3-1-.35-.5-.2zM13.9 1.8l-.9.1-.8.4.75.6zm-6.3 0 .95 1.1.75-.6-.8-.4zm5.35 3.9.6-.05-.15-.4-.1-.25-.5-.45-.85.65.7.4zm-2-1.25.95-.7-.8-.55-.35-.15-.35.15-.75.55.9.7.2.1zM8.55 5.7l.3-.1.7-.4-.8-.65L8.2 5l-.1.25q-.15.15-.15.4z"/><path d="M65.55 23.05q-1.05.7-2.35.9l-2.35.05.05 1.25-.15 1.4q-.35 1.7-1.1 2.95-.85 1.4-2.3 2.1l-3.2.5-1.35-.05-1.3-.55-1.05-.85-1.55.15.85 1.6q.1.65-.2 1.25l-.9.95-2.5.2q-.6-.15-.9-.55-.45-.5-.45-1.25l.3-1.35q-1.45.5-2.2 1.6l-.3.25-.35-.3.1-.45q.15-.65.45-1.15.5-.8 1.35-1.3t1.8-.45h.55l.45-.25q1.25-.9 2.35-1.15h.15l-.05-.85.2-1.55q.35-.8.8-1.25 1-1.1 2.85-2l2.9-1.2-.6-.65q-.7-.85-.95-1.65l-.25-1.2q-.1-1.65.5-3.25.6-1.65 1.8-2.8l.45-.35-.25-.9v-.75l.15-.9q.35-1.15 1.65-1.75l2.5-.2q1.3.4 1.85 1.6l.2.45.1.95h.1q2.35.35 3.7 2.05l.65 1.05 1.75-.15.95.15.5.25q1.65 1 1.55 2.6l-.05.75q-.4 1.4-1.35 2.2l-.9.45-1.5.25-.5-.05-.2.5-.3-.25-.4-.25-.7-.15-.05.05-.55.1-.4.2-.6.65-.15.4q-.15.7.15 1.3l.2.35zm-21-12.7.3-.05.3-.2q.35-.35.15-.8l-.1-.25-.55-.3-.4.05q-.4.15-.5.65 0 .35.15.55l.4.3zM63.5 19.4l-.05-.25v-.5l.5-1.05.15-.45q-.1-.45-.5-.45v.05h-.1l-.25.15-.35.5-.2.65v.05h-.3l-.85.4q-.9.2-1.15.55l.1.2 1.3.3.5.15.05.15.1 1.6.3.4h.35l.2-.25v-.4l.1-1.3zm.8-7-.35-.5-.4-.3-2.35-.05q-1.1.6-1.2 1.85h.25l.5.05.6.25.9.7.1.2q.5.5.5 1.25l.85-.4.65-.8.2-.45q.15-.75-.05-1.4zM42.7 9.05q.35-1.05 1.1-1.6.5-.35 1.4-.55l2.1.1q1.1.4 1.6 1.3.45.75.45 2.05-.05 4.3-3.7 7.95l-.95.9-3.9 2.35-1.6.7-2.15.85-2 .75-4.45 1.2-6.85 1.2-.95 2.85h.1q1.25.3 2.2.9 1.1.75 1.4 1.85l.2 1.25q0 1.4-.45 2.05l-.85.95-1.1.95q-1.85 1.25-5.35 1.55l-.35.05-.25.15-1.6.15-5.25.2-1.55.1-2.2.2q-.7-.15-1.05-.55H6l-.95.8q-1.1.65-2.1 0-1.1-.7-.85-1.95.2-.65 1.35-1.7L4.9 34.8l-2.15-.4q-.6-.35-.85-1.1t.05-1.4l.2-.3-.2-.05L.6 30.8q-.5-.55-.6-1.35t.25-1.5l1.4-1.4 3.4-2.05q2.5-1.15 5.95-1.6l6.2-.3q-2.1-1.65-2.65-3.6l-.15-1.65q0-4.1 2.7-7.8V9.4l-.05-.65.35-2.55.35-1.25q.5-1.15 1.05-1.45l1.6-.1 1.8.6.55.3.45.4 1.75-.25 2.55.25 2.1.6q1.8.55 2.55 1l1.3 1.1h1.8l.95.2q.95.5.65 1.6l-.25.65-1.25 1.95.15 1.25-.05 1.95-.3 1.65-.05.15-.35 1.25q-.6 1.8-1.85 3.15l1.45-.6q3.45-1.45 6.3-3.5 1.35-.85 1.75-1.75.35-.65.3-1.7l.2.15.35.15.55.1h.25l.3-.1.65-.45.2-.4.1-.15.05-.15-.1-.9-.05-.1-.1-.15-.1-.2-.4-.3-.55-.25h-.6l-.25.1-.2.05-.2.15-.25.3-.05.05-.05-.75h.15l.5-.1q.5-.15.5-.7 0-.6-.5-.85zm4.4 2.25.05-.35-.3-.6-.6-.3v.05H46l-.55.5q-.15.35 0 .65.15.6.8.6.6 0 .85-.55m-.05 22.25.6-.3.15-.2-.05-.1-.2-.3-.35-.3-.45-.25-.3.65-.05.3-.05.3zm-20.7-15.2.1-.05.15.3.1.1-.75.75-.35.3-.3.1-.45-.1-.05-.05q-.2 0-.4-.2l-.4-.9-.05-.25h.2l.15.1.3.1 1.5-.1zM20.8 15.5l2.1-.15q.95-.4 1.35-1.4l-.3-.3q-.55-.5-.65-1.1l.05-.85.2-.8h.05q-.5-.55-1.35-.75l-1.5.1-1.25.9q-.5.65-.6 1.4-.1 1 .4 1.8.55.85 1.5 1.15m9.65.9q1 1.2 2.4.85 1.05-.15 1.65-1.15t.2-2.2q-.5-1.15-1.65-1.45-.55-.2-1.2 0-.2 1.4-1.45 2.45l-.5.35.05.2.15.45zm-7-.25-.2.3v.05l-.2.6-.05.25-.2 1.2q-.05.8.25 1.5l.1.25.5.4.55.3.55.15.55.05.55-.05.4-.25.95-.85.25-.4.15-.35h.05l.95-.15.35-.2.2-.25.45-.3.1-.15v-.15l.05-.1v-.15l.05-.1-.05-.05.05-.05-.05-.6-.1-.35-.15-.1-.25-.05-.2.2-.15.3-.1.15-.1.3-.25.15-.25.2-.4.2-.2-.3-.15-.3v-.15l-.15-.35-.05-.1-.3-.3q-.3-.15-.55 0l-.45.35-.15.2-1 .25-.05-.05-.3-.05-.15-.1-.1-.15v-.05l.05-.4.2-.4q.1-.4-.35-.5l-.05.05-.5.4zm-11 10q-3.3.95-5.6 2.5l-2.1 1.7 1.05-.05 1.8.25L9 31l.2.05 6.6-5.75zm11.45 6.8q-.05-.5-.85-.75l-1.3-.2-1.7 4.35q2.1-.85 3.5-2.45z"/><path fill="#fff" d="m68 20.35.05.1.1.05.2.4.1.6-.05.4-.15.5-.1.2-.1.05-.1.15-1.15.6-1.25-.35-.35-.3-.2-.35q-.3-.6-.15-1.3l.15-.4.6-.65.4-.2.55-.1.05-.05.7.15.4.25zm-3.7-7.95.2.4q.2.65.05 1.4l-.2.45-.65.8-.85.4q0-.75-.5-1.25l-.1-.2-.9-.7-.6-.25-.5-.05H60q.1-1.25 1.2-1.85l2.35.05.4.3zm-.8 7-.1.5-.1 1.3v.4l-.2.25h-.35l-.3-.4-.1-1.6-.05-.15-.5-.15-1.3-.3-.1-.2q.25-.35 1.15-.55l.85-.4h.3v-.05l.2-.65.35-.5.25-.15h.1v-.05q.4 0 .5.45l-.15.45-.5 1.05v.5zm-18.95-9.05-.25-.05-.4-.3q-.15-.2-.15-.55.1-.5.5-.65l.4-.05.55.3.1.25q.2.45-.15.8l-.3.2zm-2.1.45q-.45-.15-.6-.65-.1-.6.3-.9l.55-.2.4.1q.5.25.5.85 0 .55-.5.7l-.5.1zm.25 2.85-.25-.3-.15-.25-.15-.6.05-.3.05-.15.15-.35.1-.15.05-.05.25-.3.2-.15.2-.05.25-.1h.6l.55.25.4.3.1.2.1.15.05.1.1.9-.05.15-.1.15-.2.4-.65.45-.3.1h-.25l-.55-.1-.35-.15zm4.4-2.35q-.25.55-.85.55-.65 0-.8-.6-.15-.3 0-.65l.55-.5h.25v-.05l.6.3.3.6zm-23.65 4.85.1-.05.5-.4.05-.05q.45.1.35.5l-.2.4-.05.4V17l.1.15.15.1.3.05.05.05 1-.25.15-.2.45-.35q.25-.15.55 0l.3.3.05.1.15.35v.15l.15.3.2.3.4-.2.25-.2.25-.15.1-.3.1-.15.15-.3.2-.2.25.05.15.1.1.35.05.6-.05.05.05.05-.05.1V18l-.05.1v.15l-.1.15-.45.3-.2.25-.35.2-.95.15h-.05l-.15.35-.25.4-.95.85-.4.25-.55.05-.55-.05-.55-.15-.55-.3-.5-.4-.1-.25q-.3-.7-.25-1.5l.2-1.2.05-.25.2-.6v-.05zm7 .25-.35-.5-.15-.45-.05-.2.5-.35q1.25-1.05 1.45-2.45.65-.2 1.2 0 1.15.3 1.65 1.45.4 1.2-.2 2.2t-1.65 1.15q-1.4.35-2.4-.85m-9.65-.9q-.95-.3-1.5-1.15-.5-.8-.4-1.8.1-.75.6-1.4l1.25-.9 1.5-.1q.85.2 1.35.75h-.05l-.2.8-.05.85q.1.6.65 1.1l.3.3q-.4 1-1.35 1.4zm5.55 2.85-.25.1-1.5.1-.3-.1-.15-.1h-.2l.05.25.4.9q.2.2.4.2l.05.05.45.1.3-.1.35-.3.75-.75-.1-.1-.15-.3z"/><path fill="#999" d="m5 5.35-.55-.05-.35-.45V4.6l-.35-.1-.25-.55q0-.25.35-.45l.4-.05h.05l.05-.3.15-.4q.2-.3.6-.2.35.1.35.5l-.05.35v.1h.25q.5.1.5.55l-.25.4-.5.1v.3z"/></g></svg>