<svg xmlns="http://www.w3.org/2000/svg" xmlns:ffdec="https://www.free-decompiler.com/flash" ffdec:objectType="shape" width="56.55" height="35.65"><g fill-rule="evenodd"><path fill="#999" d="m18.15 3.3 1.45-.7 1.4-.25 3.75-.15q1.25.1 1.75.55l.75 1 .15.25q1.65.05 3.3.65l1.5.8q.75.65.8 1.45h.2l.25.05q.4-.45 1.05-.45 1.1-.1 1.6.85l.2.7.35.5q1.25 2.1 1 4.55l-.1.85-.2.7-.3.65-.65 1q-.75.95-2.25 1.4l-2.75.3-1.15-.2-.2.2.25.6.85-.05q.45.3.1 1.2-1.75 4.75-6.65 7.05-4.65 2.1-9.75.75-2.55-.65-4.3-2-2-1.55-2.75-3.75-.4-1.15-.2-1.85.2-1.1 1.05-1.45l.9-.1q.3.1.55.3l.25-.35.1-.3h-1.6l-.55-.15-.55-.7-.55-1.15q-.15-.55.15-1.75L7.7 13l.4-1 .6-.55 1.05-.65.1-.5q.25-.9 1.25-2 1.35-1.4 4.05-2.9l1-.5q.8-.85 2-1.6M6.75 33.15q0-.8.65-1.3.55-.4 1.35-.65l4.85-1.6 4.4-.7q9.75-.95 19.5.85 1.65.25 2.55.95l.75 1.1q.25.7-.1 1.3-.4.75-1.8 1.15l-6.7 1q-9.2.65-17.1.3l-6.3-.7q-2-.5-2.05-1.7m6.55-12.1.25.15q0-.6.3-1.05l-.85.65z"/><path fill="#fff" d="M54.3 9.05q.8.15 1.25.85.6 1.05-.1 2t-1.9.7q-.65-.2-1.05-.85-.4-.6-.25-1.3.1-.65.75-1.1.6-.4 1.3-.3M44.35 12q-.7.85-1.7.6-1.1-.25-1.35-1.2-.2-.6.05-1.2.25-.65.8-.95l1.2-.15q.7.1 1.05.6.4.5.4 1.15zm7.35 1.05-.4 1.1q-.25.7-.85.9l-.55.1q-.9.1-1.45-.45-.2-.3-.4-.25l-.2.2q-.45.45-.9.45l-.7-.1-.95-.6-.15-.4q-.15-.35-.15-.85l.05-.35.25-.4.25-.25.45.1.15.35-.05.15v.2l.15.5.35.3.65-.15.4-.5.55-.45q.35-.05.65.4l.55.8h.55l.3-.4.1-.25.1-.3.1-.05q0-.55.3-.75.2-.2.65 0l.25.3-.05.35z"/><path d="m24.85 28.9-.8.2v.6l-.25.8-.2.35-.8.65-.5.35-.6.15h-.8l-1.05-.1-.65-.35-.35-.25q-.5-.6-.35-1.25l.15-.4-.3-.05-3.05-.25.05.15.25.8.3 1.85q-.1 1.15-.9 1.6l-1.6.25H12q-1-.15-1.85-.9l-.35-.4q-.25-.35-.25-1.25L9.5 30.2l.25-1.5-.3-.05-1.65-.15-1.35.25-3.55-.15q-1.8-.65-2.5-1.95-.75-1.5-.05-3.2.1-.5.5-.65.6-.15.8.6l.3 1.1q.35.55 1.55.85l1.2.15 1.25-.3.75-.15q-1.15-1.75-1.6-4.1-.55-3.3.7-7.15 1.25-3.8 4-7 2.7-3.05 6.35-5.05Q17.9.8 19.4.4l3.35-.4L27 .3q3.5.65 6.5 3.15 2.85 2.35 4.55 5.7 1.1 2.15 1.25 4.05v.65l.2-.15q.2-2.75 1.05-4.55l-.25-.5-.85-1.45-.2-.4q-.2-.35-.1-1.2l.3-.85q.25-.25.75-.35l.8-.05.15.05.3-.05 2.35.35 1.05.2.2.1 1.4-.45 3.55.1q1.35.3 2.45 1.05l.3-.1.65-.15.4-.2L55.15 5l.9.2q.5.35.5.95l-.15.7-.9 2.55q.6 1.55.5 3.15l-.5 2.5q-1.05 3.5-3.65 5.8-2.5 2.25-6.5 3.25l-6.4.9.35.95.1 1.3-.15 1.3-.15.6-.35.65q-.25.4-.85.65l-.5.25q-1.3.3-2.3-.6l-.4-.55-.2-.65-.25-2.1.05-.55-.7.2q.45 2.7.4 4.75l-.2 1.25q-.45.8-1.5 1.15l-2.3.25q-1.25-.25-1.9-1.3-.45-.8-.45-2.35l.3-2.35zM44.35 12l.45-1.15q0-.65-.4-1.15-.35-.5-1.05-.6l-1.2.15q-.55.3-.8.95-.25.6-.05 1.2.25.95 1.35 1.2 1 .25 1.7-.6m9.95-2.95q-.7-.1-1.3.3-.65.45-.75 1.1-.15.7.25 1.3.4.65 1.05.85 1.2.25 1.9-.7t.1-2q-.45-.7-1.25-.85m-19.5 5.4.85-.95-.05-.75q-1-3.5-3.55-5.8l-.75.5-1.5 1.95-.7 1.15-.45.85-.2.75q-.3 1.85.45 3.55l.4.55.85.35 1.4.15.75-.05q1.1-1.3 2.5-2.25m16.9-1.4v-.3l.05-.35-.25-.3q-.45-.2-.65 0-.3.2-.3.75l-.1.05-.1.3-.1.25-.3.4h-.55l-.55-.8q-.3-.45-.65-.4l-.55.45-.4.5-.65.15-.35-.3-.15-.5v-.2l.05-.15-.15-.35-.45-.1-.25.25-.25.4-.05.35q0 .5.15.85l.15.4.95.6.7.1q.45 0 .9-.45l.2-.2q.2-.05.4.25.55.55 1.45.45l.55-.1q.6-.2.85-.9zM30 5.45l-.3-.15-1.6 3.2.05-.05q1.5-1.8 2.5-2.3l.25-.1zm-4.4-1.6-4.7.2q-2.6.6-5.05 2.35-.7 1.45-.45 3.05l.35 1.15q.45.7 1.55 1.15 2.8.95 5.8-.85l1.75-1.4q1.5-1.5 3.15-5zM13.9 8l-.8.85.3.25.4.6zm4.5 12.65 4-.1q2.35-.35 3.4-1.9l.35-.6.15-.25-.05-.15-.95-1.4-.45-.55-.65-.3-2.25-.65-1.3-.1-1-.1-1.75.5q-1.8.6-2.6 1.15-1.35 1-1.4 2.35l.15.5.4.35 2.35 1.05.65.15zm-3.75-8.35-.2-.45.15 1.2v1.25q.6-.35 1.7-.75-1.1-.5-1.65-1.25M9.6 14.75 9 16.9l.45-.1q.6-.1 1.3-.65L12 14.9q.5-.8.35-1.65l-.2-.95v-.75l-.25-.85-.1-.25q-1.35 1.95-2.2 4.3m-.75 5.2q.25 1.9 1.2 3.25.45-1.55 1.95-2.85l-.2-.3q-.25-.55-.25-1.4l.05-.35-.5.25-1.15.4-1.15.15zm2.45 4.55q1.15.9 3.65 1.65l3.15.75q-.15-.6-.15-1.75v-1.3l.2-.8-2.3-.35L14 22l-1.05-.65q-1.35 1.1-2.2 2.65zm15.6-14.3q-1.6 1.95-3.5 2.95l1.15.55 1.2.5.35.3-.05-1.3.1-1.2q.2-.85.85-1.85zm.3 14.4q1.25-.9 2.25-2.9l1.35-2.55-1.3-.2-1.25-.4-.45.65-1.1 1.6-.6.55.15.55-.15.65.15 1.65.25.8.05.05zM19.15 27q1.8.05 5.1-1.05l1.35-.45-.2-.3-.45-1.65-.25-1.35-1.35.4-3.75.4-.35.7q-.25.5-.45 2.15l.1 1.15z"/></g></svg>