<svg xmlns="http://www.w3.org/2000/svg" xmlns:ffdec="https://www.free-decompiler.com/flash" ffdec:objectType="shape" width="76.9" height="42.35"><g fill-rule="evenodd"><path fill="#999" d="m59.7.15.95-.15q.65.1.65.6.05.45-.8.9-4 1.9-9.95 5.75L40.8 13.4q-1.6.85-2.4.7-.85-.15-1.3-1-.5-.85-.15-1.65.4-.9 2.2-1.75l6.35-3.3q3.85-2.05 6.45-2.95l2.9-1L57.3 1.3zM75.15.6l.7-.1q.45.1.45.5l-.55.55-7.4 4.3q-10.15 6.35-12.75 8-1.3.75-1.9.75-.75-.05-1.3-.65-.5-.6-.45-1.3.1-1.2 2.15-2.4 3.5-1.95 7.3-3.75l7.15-3.3 4.4-1.9zm1 4.7-2.7 2.3-2.3 1.55-2.4 1.5-9.55 5.75-1.55.45q-.5-.05-.85-.45t-.4-.9q0-.65.55-1.3.5-.5 1.2-.85 2.55-1.5 6.8-3.45l3.7-1.75q5-2.3 7-2.95zM47.4 32.7q-.45-.3-.55-.85-.1-.6.15-1.05.35-.7 1.5-1.5 2.8-1.85 7.8-4.3l12.8-6.4 6.55-3.2q.35-.25.75-.2.6 0 .5.5l-.4.5q-11.45 8.25-24.85 15.35l-2.7 1.2zm4.35-.2L57.4 29l10.95-5.7q3.25-1.7 5.3-2.05l.3.05-.15.35-13.65 9.25q2.9-1.25 4.6-1.35l.6.1.4.45-.5.65-2.4 1.5-8.05 4.1q-1 .5-1.55.45l-.9-.65-.2-.5H52q-1.35.1-1.65-.95-.2-.6.3-1.3zm1-31.4-5.4 2.95-9.1 5.25-1.6 1q-.75.15-1.4-.35-.6-.6-.45-1.35.15-1 1.85-1.85 2.95-1.45 7.85-3.3l8-3.05.7.05q.25.4-.45.65M32.6 9.4l1.15.9q3.4 3.95 3.1 11.65-.1 2.5-.55 4.45-1.4 5.7-6.15 8.95Q25.4 38.7 19.6 38q-2.6-.35-3.8-1.5-.7-.6-.5-1.15.25-.5.85-.5l1.05.2 8.75-.25q4.35-1.6 6.75-5.6.9-1.45 1.25-2.9.75-2.65.4-6.5-.3-3.1-1.15-5.2l-1.05-1.25-2.2-2.65q-2.3-2.15-5.85-2.65l-6.4.5q-2 .55-3.3 1.2-1.35.7-3.4 2.55-1.8 1.7-2.5 2.95-.8 1.45-1.3 4.4-.5 3.5-.65 6l-.15 1q-.25.55-.75.55-.55-.05-.9-1.05-.65-2.2-.25-6 .4-4.5 1.6-6.6.55-.9 2.65-3Q11.2 8.2 12.8 7.3q2.1-1.2 5.05-1.8l7.55-.2q4.1.75 6.65 3.5l.5.6zM28 17.15q-.1-.1-.9-.35-1.55-.4-2.6-1.5l-1.35-1.05-1-.05q-4.1.5-7.55 4.2-.85.95-1.25 1.8-.45.85-.55 2.05-.15 1 0 1.95.2 1.05.95 2.25l1.4 2.05q.75 1.05.75 1.8l5.7.2q3-.3 4.25-1.2l1.4-1.4q1.45-1.95 1.95-3.7.7-2.15.2-4.15L28.6 18zm-16.35 20.3 2.4.1 2.85 1.1 2.95.65 3.8-.5q3.85-.95 6.4-2.3 3.2-1.6 5.1-4.3l1.35-2.55q1.45-3.3 1.5-6.95l.05-2.25.15-.45q.15-.25.35-.2l.3.4q.7 2.05.3 5.6l-.4 3.2q-1.1 4.95-5.55 8.4-3.6 2.8-9.2 4.25-6.65 1.65-11-.55-1.25-.65-1.7-1.5-.3-.55-.2-1.15.1-.65.55-1m6.4-2.75q-2.9-.2-4.15-1.65l-.75-.95-1.2-.7q-1.25-.75-2.35-2.15-1.1-1.55-1.65-3.4-.65-2.45-.15-5.05.5-2.55 2-4.75 2.9-4.15 8.15-5.95 4.95-1.75 8.75-.1 2.2.95 4.15 3.3 3.05 3.8 3.1 8.4 0 4.45-3.05 8.5-2.1 2.8-4.55 3.65l-3.65.65zM6.6 33.5l-.9.15q-1.3-.25-2.4-1.45-2.05-2.1-2.55-5.6-.3-2.1 0-6.25.3-3.7.95-5.45.6-1.55 1.85-3.2 2.75-3.75 6.6-6.05 4.05-2.4 8.4-2.6l2.05.35q-6.1.8-11.25 5.3-4.15 3.7-5.15 7.9l-.45 3.3q-.3 5.05.75 7.45l1.4 2.6q.85 1.55.95 2.7z"/><path d="m51.3 21.1-1.2-.1q-1.15-.25-1.8-1.05-.7-.85-.7-1.95l.15-1.2.4-1.1.6-.9-.1-1.15q.05-1 .95-1.9l.7-.6 1.15-.95q1.3-.85 2.55-.8 1.65.1 2.15 1.45l.15.5q1.45-1.35 2.45-1.9Q60.7 8.3 62.9 8.2l7.6-3.65 1.95-.8h.9q.6.1.5.65l-.6.65-5.5 3.15-1.25.9.15.2q.65.7.75 1.55.05.75-.3 1.75-.65 1.8-2.35 2.9l-3 1.25-3.95 1.05-.5.1-.6 1-2.3 1.8q-.8.45-1.4.5zm-1.9 8.1 3.6-.65 1 .05q.7-1.05 2.3-2 1.25-.8 2.35-1.25l.2-.6q.35-.7 1.2-1.5l.65-.55 2.35-1.3 2.05-.15 1.05.25q.8.4 1 1.2.2.9-.35 1.85l-1.35 1.4.45-.1.65-.05h1.05q.95.2 1.55 1.05.45.6.4 1.35-.05.7-.55 1.25l-.85.55-2.7 1.1-.95.2h-.25l-.1.1q-1.1 1.15-2.9 1.45l-2.85-.1-.55.7-1.3 1.25 1.35-.45 2.5-.75.65.05-.1.55-.55.3-1.6 1.05q-.75.45-1.55.85l-4.05 1.55-2.75.25-.55-.15-3-.3q-2.05-.75-2.3-2.8l.15-1.55.45-1.3q.55-.75 1.95-1.7l1-.7zm-17.2-22q-.15-.35-.15-.85 0-2.05 1.9-3.35 1.6-1.05 3.85-1.05l.95.05q.65.15 1.1.55l.25.2q.2-.15.55-.25l.55-.15h1l.95.05.65.25.85.65q.55.7.45 1.6l-.1.65-.3.6-.45.45q-1 .8-2.8.8h-.35l-.25.55-.5.75.35.6.35.7 4.65-1.6q1.2-.55 1.55-.65l1.4-.35q.6-.1.8.2.15.25-.1.6l-.55.35-3.55 1.65L40.9 13l-.2.25-.8.75-.9.55-2.05.3-2.8-.3-1.05-.5-.95-.65q-.95-.85-1.1-2.15-.2-1.05.15-2.45l.4-.85.65-.65zm7.4-1.4q.85-.9.3-2.1-.6-1.2-1.9-1.1-1.3.15-1.7 1.35-.35 1.3.6 2.05.35.35.9.45l.8-.05q.55-.05 1-.6m21.3 24.8q.15.45.65.6l.85-.05 1.1-.6q.45-.65-.1-1.2-.3-.35-.9-.35l-.95.35-.55.55zm.3-4.85q-.4-.4-1.2-.3-.45.05-1.15.45l-.55.45q-.45.55-.1 1.15.3.6 1.05.6l.9-.25q.85-.3 1.1-.65l.25-.75zM54.25 15q-.65-.85-1.7-.6-1.1.25-1.2 1.4-.1.95.65 1.45l1.6.2q.85-.4.95-1.35.1-.65-.3-1.1M26.3 11.2q1.35.7 2.45 2l.7.7q1.35 1.45 2.15 3.15l.4.1.95.45.9.35q1.45.65 2.3 1.85l.25.5q.5 1.15-.3 2.1l-1 .8-2.9 1.8-.15.4.6.6q.6.95.2 2.65l-.1.95.2.85q.25.7.15 1.9-.15 2.6-1.3 4.5-1.3 2.25-3.45 3.15-1.2.5-2.6.65-4.6.65-7.3-.55-2.5-1.1-3.6-3.15L13.25 40l-.9 1.35q-1 .9-2.3.5Q8.8 41.5 8.4 40.2q-1.35 1.55-2.35 1.75-.85.15-1.65-.4t-.95-1.4q-1.5.6-2.65-.5L.1 38.4q-.2-.7.05-1.4l.7-1q-.25-.7 0-1.45.3-1 1.5-2l3.35-2.4q-.6-.25-1.1-.65-2-1.55-2.35-4.35-.35-2.25.6-5.05.85-2.85 2.5-4.55 2.05-2.2 4.6-2.35H10l1.3-1.25q.8-.65 1.7-.65 1.2-.1 1.9.75l.7-.45.75-1.8q.5-1.2.9-1.75.65-.9 1.45-1.25.95-.5 1.85 0l.8.65 2.55 2.9q1.35.25 2.4.85M9.65 23.65q-.3-1.9-.2-2.85l-.2-.15-.65-.4-.45-.65Q6.9 21.55 6.8 23.8q-.1 1.3.4 1.95.6.85 2.3.95h1q-.55-1.35-.85-3.05m9.75 5.15.05-.3q-.1-.95-1.05-2.05l.6-.75q.15-.45-.05-.8-.2-.45-.7-.45-.3.1-.35.15l-.4.25-.2.35h-.05l-.35-.3q-.85-.75-1.5-.7-.65 0-1 .7-.25.65.2 1.2.25.35 1.1.65 1.35.55 2.4 1.65l.95.6zm-3.05-6.4.85-.5-.55-.9q-.85-1.55-.7-3.25l.15-1.15-.95-.1q-.9 0-1.6.45-.8.65-1.1 1.55l-.05.25.75.3 1.45.95.7.8.6.9.3.75zm9.2 10.2q-2.85 1.45-6.3.9l-1.2-.25.15.8q.6 1.65 2.75 2.2 1.2.3 3.65 0 1.9-.2 2.7-.85.75-.65 1.3-2.8l-1.05-.2-1-.3zm2.25-5.65v-.3l-1.65-.05-2.7-.55-1.05-.3-.25.55-.05.45.6.2.45.3.8.5.65.6.4.6.45.95q.8-.15 1.45-.8.9-.9.9-2.15"/><path fill="#fff" d="M54.25 15q.4.45.3 1.1-.1.95-.95 1.35l-1.6-.2q-.75-.5-.65-1.45.1-1.15 1.2-1.4 1.05-.25 1.7.6m6.95 10.75.3.7-.25.75q-.25.35-1.1.65l-.9.25q-.75 0-1.05-.6-.35-.6.1-1.15l.55-.45q.7-.4 1.15-.45.8-.1 1.2.3m-.3 4.85.1-.7.55-.55.95-.35q.6 0 .9.35.55.55.1 1.2l-1.1.6-.85.05q-.5-.15-.65-.6M39.6 5.8q-.45.55-1 .6l-.8.05q-.55-.1-.9-.45-.95-.75-.6-2.05.4-1.2 1.7-1.35 1.3-.1 1.9 1.1.55 1.2-.3 2.1M16.35 22.4l-.15.05-.3-.75-.6-.9-.7-.8-1.45-.95-.75-.3.05-.25q.3-.9 1.1-1.55.7-.45 1.6-.45l.95.1-.15 1.15q-.15 1.7.7 3.25l.55.9zm3.05 6.4-.35.2-.95-.6q-1.05-1.1-2.4-1.65-.85-.3-1.1-.65-.45-.55-.2-1.2.35-.7 1-.7.65-.05 1.5.7l.35.3h.05l.2-.35.4-.25q.05-.05.35-.15.5 0 .7.45.2.35.05.8l-.6.75q.95 1.1 1.05 2.05zm8.4-1.85q0 1.25-.9 2.15-.65.65-1.45.8l-.45-.95-.4-.6-.65-.6-.8-.5-.45-.3-.6-.2.05-.45.25-.55 1.05.3 2.7.55 1.65.05z"/></g></svg>