<svg xmlns="http://www.w3.org/2000/svg" xmlns:ffdec="https://www.free-decompiler.com/flash" ffdec:objectType="shape" width="65.45" height="34.05"><g fill-rule="evenodd"><path fill="#999" d="M50.7 29.75q-.4-1.95-.5-5.95V14q.1-1.8.55-2.5.65-1 2.5-1.6l2.9-.35.1-.55q-.65-.5-.95-1.1-.35-.75-.25-1.8.05-1.3.7-3.3.35-1.35 1.05-2.05 1-1 2.3-.65.65.15 1.55.8.3.3.6.3l.6-.2 2.1-.1q1.1.4 1.4 1.55.2.6 0 1.55l-.3 1.4-.25 1.2-.45 1.5q-.35.85-1.05 1.1l-.55.3-.3.6-.35 1.35q1.6.95 2 2.45.3 1.1 0 2.8L63 23.6q-.8 3.8-1.95 6.65-.85 2.25-2.1 3.05-1.45 1-4 .55-2.45-.45-3.4-1.8-.55-.7-.85-2.3m7.4-7.6-.35 1.7-.95 3.4-.6 1.15-.65.5v.05l.4.05.45.15.25-.25q1.05-2.4 2.05-7.5l.4-2.7.5-2.9v-.4l-.3-.15-1.15-.35-.95-.7-.45-.5-.5.05-.85.25-.3.15-.1.25-.15 1.45.05 1.4.75-.45q.6-.15 1.15 0 .85.1 1.35.6.75.7.65 2.25l-.4 1.8zM48.15 10.5q-1.3 1.5-5.05 1.8l-.7.05v.6l.05 3.95-.15 6.5 1.6.3 2.45.45q1.1.4 1.85 1.5.7 1.05.7 2.3 0 1.2-.7 2.3t-1.8 1.65q-1.4.7-4.35.7l-16.4.05-3.95-.05q-2.9-.3-4.15-1.5-1.6-1.6-1.05-3.85.45-2.1 2.55-3.2 1.15-.6 2.95-.75l1.55-.15-.25-5.8q-.15-3.25.05-5.45l-2.75-.2q-2.6-.45-3.5-2.3-.5-1.05-.25-2.3.25-1.2 1.05-2.15 1.5-1.65 4.25-2l4.8.15 14.3.4L44 3.45q1.5.05 2.55.6 1.85.95 2.4 2.85.5 2.15-.8 3.6M33.3 23.2l.35-10.65-2.25-.15-.05 10.75zM.15 14.4q.45-1.1 2.1-2l1.15-.6-.05-.75-.1-.45-1.3-.65L.4 8.7Q.1 8.15.1 6.6l.05-2.7q0-1.25.15-1.65Q.75 1.2 2 .85l2.3.1.85.1 1-.4 1.9-.1q1.05.3 1.5 1.25l.35 1.75.05 2.6q0 1.35-.45 1.95l-.55.6q-.25.4-.25 1l.05.65 1.1-.1q2.85-.1 4.1 1.3.75.75.95 2.1l.1 2.4-.15 6.35q-.1 3.7-.55 6.3-.35 2.35-1.25 3.45-1.5 1.9-4.75 1.9-2.85 0-4.2-1.55L3 30.3Q1.85 26.8.55 19.6l-.4-2.55q-.3-1.75 0-2.65M7.2 26.5 7 20.05l-.2-.85q-.1-.75.35-1.45.45-.65 1.15-.9 1.2-.25 1.95.5l.1.1v-2.6l-3.5.35q-.7.15-1.75.75l-.25.2v.35l.9 4.7.8 3.75.7 2.35zm.8 2.25-.5-.55.15.55.2.35.35.1.8-.05q-.55-.05-1-.4"/><path d="M53.7 31.85q-.65-.4-.9-1.1-.2-.75-.45-3.35l-.2-5.85-.1-5.55q-.1-2.35.05-2.85l.45-.7 1.8-.5 3.4-.25.35-2.9-.2-.1-1.25-.8q-.8-.6-.75-1.2t.6-.8q-.6-.7-.55-1.1.1-.55.65-.8l.7-.15q-.55-1.05-.4-1.65t.8-.8l1.15.1 1.3.75.45.3.7-.45q.9-.55 1.5-.55l.8.2.45.6q.15.6-.45 1.25l-.15.15.05.05q.5.25.5.8l-.6 1.1-.25.25.15.1.35.7-.2.75-.6.5-1.5.8-.1.05-.85 3.45 1.4.65q.95.6 1.25 1.15.3.7 0 2.2l-.9 4.25-1.45 5.8-.5 1.7q-.45 3.25-1.4 3.95-.95.65-2.65.45-1.75-.2-2.45-.6m2.85-3.95.3-.3.45-.6.2-.6 1.25-5.9.85-4.35q-2.05-.9-4.25-.35v10l.25 2.05.5.05zM21 5.2h7.9l4.05.05H43l1.5.05h.4l.4.15.25.1.15.05.1.05.2.15.15.1.2.15.1.1.1.1.05.15.1.1.05.1.15.15v.1l.1.2v.1l.05.1v.05l.05.1v1.2l-.05.1-.05.2V9l-.1.15v.1l-.15.1-.05.15-.1.1-.05.15-.1.1-.1.1-.2.15-.05.05-.1.05-.2.1-.25.15-.25.1-.4.15h-.15l-.25.05h-2.25l-1.7.05h-.4v.35l.05.15v.35l.05.1V12l.1.1v1l.05.15v9.1l-.05.15V25h3.9l.5.05.15.05.25.05h.05l.15.1.15.05.25.1.2.15.1.1h.05l.15.15.1.15.1.1.1.15.1.1.05.1.05.15.05.05.1.05v.15l.05.1.05.1v.25l.05.1v.45l.05.1-.05.15v.2l-.05.15v.25l-.05.1-.05.1V29l-.05.1-.1.1-.1.15-.05.1-.05.2-.2.1-.1.15-.05.05-.1.05-.1.1-.2.15-.25.1-.2.1-.25.1-.2.05-.15.05h-11.8v-.05h-10.7l-1.5-.05h-.4L20 30.4l-.3-.1-.15-.05-.1-.05-.15-.15-.2-.1-.2-.15-.1-.1-.05-.1-.05-.15-.15-.1-.05-.15-.1-.1V29l-.05-.05-.1-.15v-.1l-.05-.15-.05-.1v-1.2l.05-.1.05-.2v-.1l.1-.1.05-.05v-.1l.1-.1.05-.15.15-.1.05-.15.05-.1.05-.05.05-.05.2-.15.2-.1.15-.1.25-.15.3-.1.35-.15.4-.05h4.55l-.05-.05v-.1l-.05-.15-.1-.1-.05-.15v-.35l-.05-.1v-.25l-.05-.1V22.7l-.05-.1v-9.1l.05-.15v-2.5H21l-1.25-.4-.65-.4-.05-.05-.15-.1-.1-.1-.05-.15-.1-.05-.1-.25-.1-.7-.25-.45v-.15l-.05-.1.05-.15v-.2l.05-.15V7.2l.05-.1.1-.1v-.15l.05-.1.05-.15.1-.1.1-.1.05-.2.15-.1.15-.15.1-.1.15-.1.15-.15.1-.05.15-.05.25-.15.2-.05.2-.05.2-.05H21m12.65 19.85h1.25v-.3l-.05-.1v-2.3l-.05-.1V13.3l.05-.1v-.55l.05-.1v-.75l.05-.1v-.15l.05-.1v-.1l.1-.2v-.1l.05-.15.05-.1h-4.85v.3l.1.1v2.3l.05.1v8.95l-.05.1v.55l-.1.1v.75l-.05.1v.15l-.05.1v.1l-.05.2v.1l-.05.15-.1.1v.05h2.9v-.05zm-25 2.85h.45l.5-.05.25-2.05v-10q-2.2-.55-4.25.35l.85 4.35 1.25 5.9.2.6.45.6zm2.85 3.95-2.45.6q-1.7.2-2.65-.45-.95-.7-1.4-3.95l-.5-1.7q-.75-2.35-1.45-5.8l-.9-4.25q-.3-1.5 0-2.2.3-.55 1.25-1.15l1.4-.65-.85-3.45-.1-.05-1.5-.8-.6-.5q-.25-.3-.2-.75l.35-.7.15-.1-.25-.25-.6-1.1q0-.55.5-.8l.05-.05-.15-.15q-.6-.65-.45-1.25.05-.4.45-.6.35-.25.8-.2.6 0 1.5.55l.7.45.45-.3 1.3-.75 1.15-.1q.65.2.8.8t-.4 1.65l.7.15q.55.25.65.8L8.7 5.9q.55.2.6.8t-.75 1.2l-1.25.8-.2.1.35 2.9 3.4.25 1.8.5.45.7.05 2.85-.1 5.55-.2 5.85-.45 3.35q-.25.7-.9 1.1"/></g></svg>