<svg xmlns="http://www.w3.org/2000/svg" xmlns:ffdec="https://www.free-decompiler.com/flash" ffdec:objectType="shape" width="75.4" height="42.5"><g fill-rule="evenodd"><path fill="#fff" d="m21.1 2.7.7-.2 1.9-.4 3.75.35.4-.3q4.7-2 9.75-2.15h.7q5.05.15 9.75 2.15l.35.3 3.8-.35 1.95.4 1.1.35.8.3q2.25.9 1.75 2.95l-.65 2.95q-.45 1.45-1.5 2.35l.25.5.75 4.05v2.35q2.2-.75 3.9-2.45l.25-.3q1.9.8 2 3.2.05 1.45-.95 2.4l-.3-.25-1.35-.75q-1.8-.65-3.65-.9-.3 1.8-1.15 3.55-2.6 5.15-7.75 7.85.4 5.6.75 6.8L49.7 41l.3.9.15.6H25.8l.15-.6.3-.9 1.2-3.55q.25-.75.35-7.05-4.85-2.7-7.3-7.6-.75-1.55-1.05-3.2l-.95.05q-1.75.15-3.35.9-.75.35-1.35.85l-.05.05q-1.2-1.05-1.05-2.75.25-2.05 1.85-2.8l.8.55q1.8 1.2 3.9 1.75v-2.25q.2-2.05.8-4.05l.25-.5q-1.15-.9-1.5-2.35l-.7-2.95q-.45-2.05 1.75-2.95zm24.35 15.55h.05l.05.5q1.85.25 3.65.85.9.35 1.65.85l.35.25q1.2-1 1.15-2.6-.15-2.65-2.4-3.55l-.3.35Q47.3 17 44.2 17.8v.1zm-15.4.25 1.55-.55-.05-.4h-.1q-2.65-.6-4.9-2l-1-.6q-1.9.85-2.2 3.1-.2 1.85 1.25 3l.05-.05q.75-.55 1.65-.95 1.8-.75 3.75-.9z"/><path fill="#999" d="M55.25 2.85q2.05.45 4 1.4l.3.25 3.15-.3 1.6.35 1.6.6q1.85.8 1.45 2.7l-.55 2.65q-.35 1.35-1.25 2.15l.2.45.65 3.7q.25 3.25-1.05 6.25-2.15 4.7-6.45 7.15.35 5.1.65 6.2l1.3 4.05.15.55H49.7l-1.3-3.55q-.35-1.2-.75-6.8 5.15-2.7 7.75-7.85.85-1.75 1.15-3.55 1.85.25 3.65.9l1.35.75.3.25q1-.95.95-2.4-.1-2.4-2-3.2l-.25.3q-1.7 1.7-3.9 2.45v-2.35l-.75-4.05-.25-.5q1.05-.9 1.5-2.35l.65-2.95q.5-2.05-1.75-2.95zM26.25 41h-11.5l.1-.55 1.25-4.05.3-6.45q-4.05-2.45-6.05-6.9-1.3-3-1.05-6.25.15-1.85.65-3.7l.2-.45q-.95-.8-1.25-2.15l-.55-2.65q-.4-1.9 1.45-2.7l1.6-.6L13 4.2l3.1.3.35-.25q2.3-1.1 4.65-1.55l-1.25.45q-2.2.9-1.75 2.95l.7 2.95q.35 1.45 1.5 2.35l-.25.5q-.6 2-.8 4.05v2.25q-2.1-.55-3.9-1.75l-.8-.55q-1.6.75-1.85 2.8-.15 1.7 1.05 2.75l.05-.05q.6-.5 1.35-.85 1.6-.75 3.35-.9l.95-.05q.3 1.65 1.05 3.2 2.45 4.9 7.3 7.6-.1 6.3-.35 7.05zm46.3-34.6 2.85-.3v12.45q-.45-.9-1.35-1.3l-.75.5q-1.75 1.15-3.7 1.65v-2.1q-.2-1.95-.8-3.85l-.2-.5q1.05-.85 1.4-2.2l.65-2.85Q71.1 6 69 5.1l-1.2-.4q2.25.4 4.45 1.45zm1.3 34.7h-10.9l-1.15-3.4q-.25-.7-.35-6.7 4.6-2.55 6.95-7.2.7-1.5 1-3.05l.9.05q1.65.15 3.15.85.75.35 1.3.8l.05.05.6-.7v6.3q-1.35 1.45-3.1 2.5l.25 6.1 1.2 3.85zm-43.8-22.6v.65q-1.95.15-3.75.9-.9.4-1.65.95l-.05.05q-1.45-1.15-1.25-3 .3-2.25 2.2-3.1l1 .6q2.25 1.4 4.9 2h.1l.05.4zm15.4-.25-1.25-.35v-.1q3.1-.8 5.45-2.9l.3-.35q2.25.9 2.4 3.55.05 1.6-1.15 2.6l-.35-.25q-.75-.5-1.65-.85-1.8-.6-3.65-.85l-.05-.5zM.3 6.1l2.95.3.3-.25Q5.75 5.1 8 4.7l-1.2.4Q4.7 6 5.15 7.9l.65 2.85q.35 1.35 1.4 2.2l-.2.5q-.6 1.9-.8 3.85v2.1q-1.95-.5-3.7-1.65l-.75-.5q-1.5.7-1.75 2.65V6.2zm1.65 35 .1-.55 1.2-3.85.25-6.1q-2-1.25-3.5-2.95V20.6q.1 1.15 1 1.9l.05-.05 1.3-.8q1.5-.7 3.15-.85l.9-.05q.3 1.55 1 3.05 2.35 4.65 6.95 7.2-.1 6-.35 6.7l-1.1 3.4z"/><path d="M54.05 9.45H54l-.05.1v.1l-.05.05v.1l-.05.05v.45l-.05.2q-.35 1.35-1.25 2.15l.2.45.65 3.7q.25 3.25-1.05 6.25-1.6 3.55-4.45 5.8l-2 1.35q.35 5.1.65 6.2l1.3 4.05.15.55H27.75l.1-.55 1.25-4.05.3-6.45-.05.05.05-.05-1.6-1.05v-.05h-.05l-.05-.05-.05-.05q-2.75-2.25-4.3-5.7-1.3-3-1.05-6.25.15-1.85.65-3.7l.2-.45q-.95-.8-1.25-2.15l-.05-.2v-.45l-.05-.05v-.1l-.05-.05v-.1l-.05-.1-.05-.1-.3-1.5q-.4-1.9 1.45-2.7.75-.35 1.6-.6L26 4.2l3.1.3.35-.25q3.9-1.85 8.1-1.95h.6q4.2.1 8.1 1.95l.3.25 3.15-.3 1.6.35 1.6.6q1.85.8 1.45 2.7l-.3 1.5zm-9.8 8.35h-.1q-.45 1.95-2.45 2.9l-.85.4q-.2 1.35.9 2.6 1.7 1.85 4 .75 1.95-.95 1.9-3.05-.1-3.2-3.4-3.6m-13.5-.15q-2.9.25-3.35 3.1-.3 2 1.4 3.15 2.25 1.55 4.3-.25 1.1-.95 1.05-2.4l-.35-.15q-2.05-.75-2.5-2.85l-.05-.5z"/><path fill="#fff" d="M54.05 9.45v-.1l.05-.05.05-.1.05-.05.05-.05.05-.05.1-.05.05-.1.1-.05.1-.05.1-.05.2-.1h.15l.1-.05h.5l.25.05h.5l.1.05h.15l.1.05h.25l.25.05h.2l.1.05h.1l.05.05h1.2l.4.05h.25l.2.05h.35l.2.05h.7l.4.05h.45l.2.05h.45l.6.05h1.05l.4.05h.2l.1.05h.1l.1.05h.35l.6.05h.15l.2.05h.3l.1.05h.05l.25.05h.6l.25.05h.2l.1.05H69l.3.05h.5l.15.05h.15l.1.05h.85l.25.05h.2l.1.05h.05l.15.05h.1l.1.05h.05l.15.05h.05l.05.05.05.05v.1l-.05.05h-.2v.05h-.05l-.1.05-.1.05h-.05l-.15.05-.05.05h-.1l-.2.05h-.5l-.6.05h-.1l-.15.05h-.65l-.3.05h-.65l-.1.05h-.3l-.25.05h-.15l-.45.05h-.3l-.1.05h-.15l-.15.05h-.2l-.15.05h-.9l-.05.05H65l-.1.05h-.3l-.4.05h-.55l-.5.05H62.1l-.2.05h-.25l-.2.05h-.4l-.7.05h-.45l-.1.05h-.2l-.25.05H58.3l-.55.05h-.05l-.1.05h-.3l-.25.05h-.1l-.15.05h-.25l-.1.05h-.25l-.25.05h-.25l-.25.05-.25-.05h-.1l-.15-.05-.2-.05-.1-.1-.1-.05-.1-.05-.05-.05-.1-.05-.05-.1-.05-.05-.05-.05-.05-.05-.05-.1V11l-.05-.05-.05-.05v-.15l-.05-.05v-.05l-.05-.05v-.75l.05-.05v-.1l.05-.05v-.1l.05-.1zm-6.15 19.4h.05l.05-.05.05-.05.15-.05.15-.1h.15l.1-.05h.2l.15-.05h6.85l.6.05h.2l.2.05h1.85l.5.05h.25l.4.05h1.35l.2.05h.6l.3.05h.4l.25.05h.4l.25.05h1.25l.45.05h.55l.2.05h.15l.15.05h.3l.3.05h.4l.2.05h.25l.4.05h.45l.15.05h.1l.1.05h.1l.2.1h.55l.15.05.05.1.05.05v.25l-.05.05-.05.05-.15.05-.55.05-.15.05H69l-.15.05-.1.05h-.4l-.2.05h-.4l-.25.05h-.2l-.15.05h-.55l-.3.05h-.15l-.15.05h-.45l-.3.05h-.45l-1.25.05h-.5l-.15.05h-.25l-.4.05h-.8l-.1.05h-.2l-1.35.05h-.4l-.25.05h-1.8l-.55.05h-.2l-.2.05h-7.6q-.45.1-.8.35l-.65.25-.3-.05-.05-.1q-.1-.4.2-.65l.4-.4h.1l-.05-.1v-.05l-.05-.05v-.05l-.05-.05v-.5l.05-.1v-.1l.05-.05.05-.05v-.1l.05-.05.05-.05.05-.05.05-.05zm-20.1.05.05.05.05.05.05.05.05.05v.1l.05.05.05.05v.1l.05.1v.5l-.05.05v.05l-.05.05v.05l-.05.1h.1l.4.4q.3.25.2.65l-.05.1-.3.05-.65-.25-.8-.35h-7.6l-.2-.05h-.2l-.55-.05h-1.8l-.25-.05h-.4l-1.35-.05h-.2l-.1-.05h-.8l-.4-.05h-.25l-.15-.05h-.5l-1.25-.05h-.45l-.3-.05H9.7l-.15-.05H9.4l-.3-.05h-.55l-.15-.05h-.2l-.25-.05h-.4l-.2-.05h-.4l-.1-.05-.15-.05h-.1l-.15-.05L5.9 30l-.15-.05-.05-.05-.05-.05v-.25l.05-.05.05-.1.15-.05h.55l.2-.1h.1l.1-.05h.1l.15-.05h.45l.4-.05h.25l.2-.05h.4l.3-.05h.3l.15-.05h.15l.2-.05h.55l.45-.05h1.25l.25-.05h.4l.25-.05h.4l.3-.05h.6l.2-.05h1.35l.4-.05h.25l.5-.05h1.85l.2-.05h.2l.6-.05h6.85l.15.05h.2l.1.05h.15l.15.1.15.05.05.05.05.05h.05zm-5.95-18.6v.3l-.05.05v.05l-.05.05v.15l-.05.05-.05.05v.05l-.05.1-.05.05-.05.05-.05.05-.05.1-.1.05-.05.05-.1.05-.1.05-.1.1-.2.05-.15.05h-.1l-.25.05-.25-.05h-.25l-.25-.05h-.25l-.1-.05h-.25l-.15-.05h-.1l-.25-.05h-.3l-.1-.05h-.05l-.55-.05h-1.05l-.25-.05h-.2l-.1-.05h-.45l-.7-.05h-.4l-.2-.05h-.25l-.2-.05h-1.05l-.5-.05h-.55l-.4-.05h-.3l-.1-.05h-.1l-.05-.05h-.9L9.5 11h-.2l-.15-.05H9l-.1-.05h-.3l-.45-.05H8l-.25-.05h-.3l-.1-.05H6.7l-.3-.05h-.65l-.15-.05h-.1l-.6-.05h-.5l-.2-.05h-.1l-.05-.05-.15-.05h-.05l-.1-.05-.1-.05H3.6v-.05h-.2l-.05-.05v-.1l.05-.05.05-.05h.05l.15-.05h.05l.1-.05h.1l.15-.05h.05l.1-.05h.2l.25-.05h.85l.1-.05h.15l.15-.05h.5l.3-.05h.75l.1-.05h.2L8 9.55h.6l.25-.05h.05l.1-.05h.3l.2-.05h.15l.6-.05h.35l.1-.05h.1l.1-.05h.2l.4-.05h1.05l.6-.05h.45l.2-.05h.45l.4-.05h.7l.2-.05h.35l.2-.05h.25l.4-.05h1.2l.05-.05h.1l.1-.05h.2l.25-.05h.25l.1-.05h.15l.1-.05h.5L20 8.6h.5l.1.05h.15l.2.1.1.05.1.05.1.05.05.1.1.05.05.05.05.05.05.05.05.1.05.05v.05l.05.05.05.1v.1l.05.05v.1l.05.05v.45M53.8 23.05h.25l.25.05h.2l.4.05h.65l.3.05h.4l.25.05h.4l.15.05h.4l.2.05h.65l.4.05h1.25l.35.05h.35l.3.05h.6l.1.05h.2l.1.05h.15l.1.05h.05l.15.05h.15l.1.05h.25l.05.05.05.05.05.1L63 24l-.05.05-.2.05h-.15l-.1.05-.1.05-.15.05-.05.05h-.25l-.1.05h-.2l-.1.05h-.6l-.3.05h-.35l-.35.05h-.65l-.6.05h-1.05l-.2.05h-.1l-.3.05h-.55l-.25.05H56l-.15.05h-.95l-.4.05h-.2l-.25.05h-.1l-.15.05h-.25l-.2-.05-.1-.05-.15-.05-.1-.05-.05-.05-.1-.1-.05-.05v-.05l-.05-.05-.05-.1v-.05l-.05-.05v-.5l.05-.05v-.05l.05-.1.05-.05v-.05l.05-.05.1-.05.05-.1.1-.05.15-.05.1-.05h.45M55.15 13h.2l.35.05h.5l.2.05h.3l.3.05h.65l.5.05h.4l.15.05h.1l.2.05h.25l.15.05h.1l.15.05h.2l.15.05h.25l.15.05h.25l.25.05h.6l.15.05h.15l.1.05h.25l.1.05h.2l.25.05h.45l.1.05h.1l.2.05h.2l.15.05h.4l.45.05H65l.2.05h.45l.15.05h.25l.15.05h.1l.1.05.3.05h.25l.05.05h.3l.1.05.05.05.05.1v.05l-.05.05v.05l-.1.05h-.4l-.1.05h-.65l-.1-.05h-.05l-.25.05h-.15l-.2.05h-.25l-.2.05h-.7l-.4.05h-.15l-.05.05h-.35l-.1.05h-.1l-.25.05h-.45l-.2.05h-.1l-.15.05h-.2l-.15.05h-.15l-.4.05h-.2l-.25.05h-.4l-.25.05h-.15l-.1.05h-.25l-.1.05h-.15l-.2.05h-.25l-.1.05h-.15l-.2.05h-.7l-.65.05h-.3l-.2.05h-.1l-.2.05h-.85l-.2.05h-.1l-.25-.05h-.15l-.1-.05-.15-.1-.1-.05-.1-.05-.05-.05-.1-.05-.05-.1-.05-.05v-.05l-.05-.05-.05-.1v-.05l-.05-.05-.05-.05v-.15l-.05-.05v-.55l.05-.05v-.15l.05-.05v-.05l.05-.05v-.1l.05-.05.05-.05.05-.05.05-.1.05-.05.1-.05.1-.05.05-.05.15-.1.15-.05.15-.05h.35m-10.9 4.8q3.3.4 3.4 3.6.05 2.1-1.9 3.05-2.3 1.1-4-.75-1.1-1.25-.9-2.6l.85-.4q2-.95 2.45-2.9zm3.5 14.55h.3l.1.05.15.1h.2l.15.05h1.5l.25.05h.6l.65.05h1l.75.05h.45l.9.05h.95l.15.05h1.2l.65.05h.65l.3.05h.8l.6.05h.85l.6.05h.3l.25.05H63l.25.05h.1l.05.05h.15l.1.05h.2l.2.05.1.05.05.05.05.05v.1l-.05.1-.05.05-.1.05h-.2l-.2.05h-.15l-.1.05h-.05l-.1.05h-.75l-.45.05h-.25l-.3.05h-1.2l-.25.05h-.6l-.8.05h-.95l-.65.05h-.8l-.4.05h-.15l-.95.05h-1.2l-.15.05h-.75l-1 .05H50.6l-.2.05h-.25l-1.5.05h-.15l-.2.05-.15.05-.1.05h-.1l-.2.05h-.1l-.2-.05h-.1l-.05-.05h-.1l-.15-.1-.05-.05-.1-.05-.1-.1-.05-.1-.05-.05V34l-.05-.05-.05-.1v-.1l-.05-.05v-.5l.05-.05v-.1l.05-.05v-.05l.05-.05v-.1l.05-.05.05-.05.1-.05.05-.05.1-.1.1-.05.15-.05.15-.05h.3M20.55 13h.35l.15.05.15.05.15.1.05.05.1.05.1.05.05.05.05.1.05.05.05.05.05.05v.1l.05.05v.05l.05.05v.15l.05.05v.55l-.05.05v.15l-.05.05-.05.05V15l-.05.1-.05.05v.05l-.05.05-.05.1-.1.05-.05.05-.1.05-.1.05-.15.1-.1.05h-.15l-.25.05h-.1l-.2-.05h-.85l-.2-.05h-.1l-.2-.05h-.3l-.65-.05h-.7l-.2-.05H17l-.1-.05h-.25l-.2-.05h-.15l-.1-.05h-.25l-.1-.05h-.15l-.25-.05h-.4l-.25-.05h-.2l-.4-.05h-.15l-.15-.05h-.2l-.15-.05h-.1l-.2-.05h-.45l-.25-.05h-.1l-.1-.05H12l-.05-.05h-.15l-.4-.05h-.7l-.2-.05h-.25l-.2-.05H9.9l-.25-.05H9.6l-.1.05h-.65l-.1-.05h-.4l-.1-.05v-.05l-.05-.05v-.05l.05-.1.05-.05.1-.05h.3l.05-.05H9l.3-.05.1-.05h.1l.15-.05h.25l.15-.05h.45l.2-.05h.25l.45-.05h.4l.15-.05h.2l.2-.05h.1l.1-.05H13l.25-.05h.2l.1-.05h.25l.1-.05h.15l.15-.05h.6l.25-.05h.25l.15-.05h.25l.15-.05h.2l.15-.05h.1l.15-.05h.25l.2-.05h.1l.15-.05h.4l.5-.05h.65l.3-.05h.3l.2-.05h.5l.35-.05zm1.35 10.05h.45l.1.05.15.05.1.05.05.1.1.05.05.05v.05l.05.05.05.1v.05l.05.05v.5l-.05.05v.05l-.05.1-.05.05v.05l-.05.05-.1.1-.05.05-.1.05-.15.05-.1.05-.2.05h-.25l-.15-.05h-.1l-.25-.05h-.2l-.4-.05h-.95l-.15-.05h-.25l-.25-.05h-.55l-.3-.05h-.1l-.2-.05H17l-.6-.05h-.65l-.35-.05h-.35l-.3-.05h-.6l-.1-.05h-.2l-.1-.05h-.25l-.05-.05-.15-.05-.1-.05-.1-.05h-.15l-.2-.05-.05-.05-.05-.05.05-.1.05-.05.05-.05h.25l.1-.05h.15l.15-.05h.05l.1-.05h.15l.1-.05h.2l.1-.05h.6l.3-.05h.35l.35-.05H17l.4-.05h.65l.2-.05h.4l.15-.05h.4l.25-.05h.4l.3-.05h.65l.4-.05h.2l.25-.05h.25m8.85-5.4.5.1.05.5q.45 2.1 2.5 2.85l.35.15q.05 1.45-1.05 2.4-2.05 1.8-4.3.25-1.7-1.15-1.4-3.15.45-2.85 3.35-3.1m-2.8 14.7h.3l.15.05.15.05.1.05.1.1.05.05.1.05.05.05.05.05v.1l.05.05V33l.05.05v.1l.05.05v.5l-.05.05v.1l-.05.1L29 34v.05l-.05.05-.05.1-.1.1-.1.05-.05.05-.15.1h-.1l-.05.05h-.1l-.2.05h-.1l-.2-.05h-.1l-.1-.05-.15-.05-.2-.05h-.15l-1.5-.05h-.25l-.2-.05h-1.05l-1-.05h-.75l-.15-.05h-1.2l-.95-.05h-.15l-.4-.05h-.8l-.65-.05h-.95l-.8-.05h-.6l-.25-.05h-1.2l-.3-.05h-.25l-.45-.05h-.75l-.1-.05h-.05l-.1-.05h-.15l-.2-.05h-.2l-.1-.05-.05-.05-.05-.1v-.1l.05-.05.05-.05.1-.05.2-.05h.2l.1-.05h.15l.05-.05h.1l.25-.05h.95l.25-.05h.3l.6-.05h.85l.6-.05h.8l.3-.05H18l.65-.05h1.2l.15-.05h.95l.9-.05h.45l.75-.05h1l.65-.05h.6l.25-.05h1.5l.15-.05h.2l.15-.1.1-.05h.3"/></g></svg>