<svg xmlns="http://www.w3.org/2000/svg" xmlns:ffdec="https://www.free-decompiler.com/flash" ffdec:objectType="shape" width="72.8" height="42.7"><g fill-rule="evenodd"><path fill="#999" d="M68 31.65q3.3.3 4.55 3.3.3.8.2 1.6-.4 4.05-4.25 5.55l-2.3.55q-5.75.35-11.3-1.15-3.05-.85-5.75-2.35-2.25-1.3-4.15-3.05-1.45-1.3-2.15-3.05l.3-.4 1-.15q2.05.65 3.95 1.65l1.6.75q5.7 2.4 11.65 2.45l-3.8-1.2-.05-.15v-.1l.05-.1q.25-.25.65-.25h1.15l4.45-.2q.6-3.45 4.2-3.7M63.45 9.8q2.25.05 4.05 1.55.95.8 1.45 1.75l.3.75.1.55q.6 2.4.35 4.95l-.45 2.9q-.9 4.7-4.85 7.35l-.25.1-.1.15-.3.1-.3.15-.1-.05-.1-.1v-.05l.05-.15.15-.2.15-.1v-.2l.9-1.25q1.2-1.65 1.65-3.55l-2 2q-2.25 2.1-5.25 2.95-4.6 1.35-9.45 1.9l-.9.15q-3.35.8-6.25-.75-.2-.2-.1-.4.6-1.15 2.05-1.05l.9-.15q3.3-1.35 6.8-2.2l4.15-1.3q4.5-1.7 7.1-5.7-2.3-1.2-3.5-3.45-.9-1.55-.45-3.25.85-3.2 4.2-3.4m-12.2-1.9q2.15-2.75 5.25-4.4l-1.65.4-.6.25q-1.7.55-3.1 1.65-.6.45-1.25.35l-.05-.05V6l.05-.05V5.6l.15-.3.35-.35.1-.15.1-.1.25-.1q1.3-1.95 3.45-3Q57.95-.15 62.1 0l3.2.6q1.8.45 3.2 1.4 1.35.45 2.5 1.3 2.7 2 1.4 4.95-.35.95-1.35 1.3-2.55.85-5-.3l-3.1-1.4q-2-.95-3.95-.05-3.7 1.65-6.15 4.9-2.4 3.25-3.65 7.1l-1.35 5-.55 2.8-.1.05-.05.05-.05.05-.3.1h-.15l-.1-.05q-.4-.45-.5-1.05-.8-4 .2-8 .95-3.95 2.85-7.55.95-1.75 2.15-3.3m-29.7 0 2.15 3.3q1.9 3.6 2.85 7.55 1 4 .2 8l-.5 1.05-.1.05H26l-.3-.1-.05-.05-.05-.05-.1-.05-.55-2.8-1.35-5q-1.25-3.85-3.65-7.1-2.45-3.25-6.15-4.9-1.95-.9-3.95.05l-3.1 1.4q-2.45 1.15-5 .3-1-.35-1.35-1.3Q-.9 5.3 1.8 3.3 2.95 2.45 4.3 2 5.7 1.05 7.5.6l3.2-.6q4.15-.15 7.8 1.6 2.15 1.05 3.45 3l.25.1.1.1.1.15.35.35.15.3v.35l.05.05v.1l-.05.05q-.65.1-1.25-.35-1.4-1.1-3.1-1.65l-.6-.25-1.65-.4q3.1 1.65 5.25 4.4M9.35 9.8q3.35.2 4.2 3.4.45 1.7-.45 3.25-1.2 2.25-3.5 3.45 2.6 4 7.1 5.7l4.15 1.3q3.5.85 6.8 2.2l.9.15q1.45-.1 2.05 1.05l-.1.4q-2.9 1.55-6.25.75l-.9-.15q-4.85-.55-9.45-1.9-3-.85-5.25-2.95l-2-2Q7.1 26.35 8.3 28l.9 1.25v.2l.15.1.15.2.05.15v.05l-.1.1-.1.05-.3-.15-.3-.1-.1-.15-.25-.1q-3.95-2.65-4.85-7.35-.3-1.4-.45-2.9-.25-2.55.35-4.95l.1-.55.3-.75q.5-.95 1.45-1.75 1.8-1.5 4.05-1.55M4.8 31.65q3.6.25 4.2 3.7l4.45.2h1.15q.4 0 .65.25l.05.1v.1l-.05.15-3.8 1.2q5.95-.05 11.65-2.45l1.6-.75q1.9-1 3.95-1.65l1 .15.3.4q-.7 1.75-2.15 3.05-1.9 1.75-4.15 3.05-2.7 1.5-5.75 2.35-5.55 1.5-11.3 1.15l-2.3-.55Q.45 40.6.05 36.55q-.1-.8.2-1.6 1.25-3 4.55-3.3"/><path d="M36.45 2.2h.35l5.1.8q1.5.45 3 1.15l.3.25 1.55-.25 1.5-.05h.1l1.6.35 1.6.6q1.85.8 1.45 2.7l-.55 2.65q-.3 1.35-1.25 2.15l.2.45q.5 1.85.65 3.7.25 3.25-1.05 6.25-2 4.45-6.05 6.9l.35.25q1.75.85 3.65 1.15l1.35.2 1.15-.05q2.3.3 3.95-1.25-1.8-1-2.55-2.95-.5-1.4-.2-2.9.8-3.7 4.65-3.85 1 0 1.95.5 1.85.9 2.8 2.7.7 1.3.65 2.75-.15 3.1-1.9 5.65l-1.4 1.65q-2.3 2.4-5.55 2.55-4.1.2-7.55-1.85l-1.5-1.05q.25 2.25.45 2.95l1.25 4.05.1.55H26.3l.1-.55 1.25-4.05.45-2.95-1.5 1.05q-3.45 2.05-7.55 1.85-3.25-.15-5.55-2.55l-1.4-1.65q-1.75-2.55-1.9-5.65-.05-1.45.65-2.75.95-1.8 2.8-2.7.95-.5 1.95-.5 3.85.15 4.65 3.85.3 1.5-.2 2.9-.75 1.95-2.55 2.95 1.65 1.55 3.95 1.25l1.15.05 1.35-.2q1.9-.3 3.65-1.15l.35-.25q-4.05-2.45-6.05-6.9-1.3-3-1.05-6.25.15-1.85.65-3.7l.2-.45q-.95-.8-1.25-2.15l-.55-2.65q-.4-1.9 1.45-2.7.75-.35 1.6-.6l1.6-.35h.1l1.55.05 1.5.25.3-.25q1.5-.7 3.05-1.15l5.05-.8h.35M26.5 23.95v.35l-.05.25.1.75q.25 1.1 1.35 1.85 2.25 1.55 4.3-.25l.6-.7q-1.35-.45-2.55-1.25l-.85-.75q-1.15-1.2-1.35-2.8-1.25.75-1.55 2.55m20.3.9q-.05-2.15-1.6-3.05l-.7 1.1q-1.9 2.05-4.35 3 .2.65.75 1.25 1.7 1.85 4 .75 1.9-.95 1.9-3.05"/><path fill="#fff" d="M46.8 24.85q0 2.1-1.9 3.05-2.3 1.1-4-.75-.55-.6-.75-1.25 2.45-.95 4.35-3l.7-1.1q1.55.9 1.6 3.05m-20.3-.9q.3-1.8 1.55-2.55.2 1.6 1.35 2.8l.85.75q1.2.8 2.55 1.25l-.6.7q-2.05 1.8-4.3.25-1.1-.75-1.35-1.85l-.1-.75.05-.25z"/></g></svg>