<svg xmlns="http://www.w3.org/2000/svg" xmlns:ffdec="https://www.free-decompiler.com/flash" ffdec:objectType="shape" width="75.95" height="41.4"><g fill-rule="evenodd"><path fill="#999" d="M.35 19.65V.05h53.8V.2h21.8v19.4l-.15-.05H75l-.25-.05h-.25l-.75-.05h-.9l-.2-.05h-.25l-.25-.05h-.35l-1.4-.05h-.6l-.15-.05h-.2l-.25-.05h-.6l-.75-.05h-.45l-.75-.05h-.35l-.15-.05h-.2l-.3-.05h-.8l-1-.05H62.1l-.25-.05h-.2l-.25-.05h-.75l-.1-.05h-.2l-.15-.05h-.45l-.25-.05h-.25l-.35-.05h-.25l-.1-.05-.15-.05-.1-.05h-.25l-.25-.05h-.3l-.2-.05h-.6l3.4-1.35Q64.4 15 69 13.5l.05-.05.05-.05.1-.05.1-.05.35-.05.25-.2v-.15l-.05-.1-.05-.05-6.8 1.1-1.7.35q-3.8.7-7.55 1.9l.65-.45 1.35-.95 5.5-3.95 4-3.15q3.45-2.9 7.15-5.4v-.3l-.15-.1-.1-.05-.15.05-.35.2-.8.2-3.05 1.15Q64 4.7 60.55 6.75l-7.1 4.1-3.6 2.1q-.9.55-.95 1.6 0 2.35 2.45 2.55.85-.2 1.65-.6l-.15.35q-.3.75-.15 1.25h-.25l-.25-.05h-.6l-.35-.05H49.3l-.4.05h-.45l-.1.05-.15.05-.15.05-.15.05-.15.05-.1.1-.1.05-.05.05-.1.05-.1.1-.05.05-.05.05-.1.05-.05.05-.05.1-.05.05-.05.05-.05.05v.1l-.05.05-.05.05v.05l-.05.1-.05.05v.1l-.05.05v.15l-.05.05V20l-.05.05v.2l.05.05v.15l.05.05v.15l.05.05v.1l.05.05.05.1V21l.05.05.05.05v.1l.05.05.05.05.05.05.05.1.05.05.1.05.05.05.05.05.1.1.1.05.05.05.1.05.1.1.15.05.15.05.15.05.15.05.1.05h.45l.4.05h1.95l.35-.05h.6l.25-.05h.25q-.15.5.15 1.25l.15.35-1.65-.6q-2.45.2-2.45 2.55.05 1.05.95 1.6l3.6 2.1 7.1 4.1q3.45 2.05 7.25 3.4l3.05 1.15.8.2.35.2.15.05.1-.05.15-.1v-.3q-3.7-2.5-7.15-5.4l-4-3.15-5.5-3.95-1.35-.95-.65-.45 7.55 1.9 1.7.35 6.8 1.1.05-.05.05-.1v-.15l-.25-.2-.35-.05-.1-.05-.1-.05-.05-.05-.05-.05q-4.6-1.5-8.9-3.55l-3.4-1.35h.6l.2-.05h.3l.25-.05h.25l.1-.05.15-.05.1-.05h.25l.35-.05h.25l.25-.05h.45l.15-.05h.2l.1-.05h.75l.25-.05h.2l.25-.05h1.75l1-.05h.8l.3-.05h.2l.15-.05h.35l.75-.05h.45l.75-.05h.6l.25-.05h.2l.15-.05h.6l1.4-.05h.35l.25-.05h.25l.2-.05h.9l.75-.05h.25l.25-.05h.95V41.4H.35V20.65l.15.05h.2l.4.05h.8l.25.05h.25l.75.05h.9l.2.05h.25l.25.05h.35l1.4.05h.6l.15.05h.2l.25.05h.6l.75.05h.45l.75.05h.35l.15.05h.2l.3.05h.8l1 .05h1.75l.25.05h.2l.25.05h.75l.1.05h.2l.15.05h.45l.25.05h.25l.35.05h.25l.1.05.15.05.1.05h.25l.25.05h.3l.2.05h.6q-1.75.55-3.4 1.35-4.3 2.05-8.9 3.55l-.05.05-.05.05-.1.05-.1.05-.35.05-.25.2v.15l.05.1.05.05 6.8-1.1 1.7-.35q3.8-.7 7.55-1.9l-.65.45-1.35.95-5.5 3.95-4 3.15-7.15 5.4v.3l.15.1.1.05.15-.05.35-.2.8-.2 3.05-1.15q3.8-1.35 7.25-3.4l7.1-4.1 3.6-2.1q.9-.55.95-1.6 0-2.35-2.45-2.55-.85.2-1.65.6l.15-.35.15-1.25h.25l.25.05h.6l.35.05h1.95l.4-.05h.45l.1-.05.15-.05.15-.05.15-.05.15-.05.1-.1.1-.05.05-.05.1-.05.1-.1.05-.05.05-.05.1-.05.05-.05.05-.1.05-.05.05-.05.05-.05v-.1l.05-.05.05-.05v-.05l.05-.1.05-.05v-.1l.05-.05v-.15l.05-.05v-.15l.05-.05v-.2l-.05-.05v-.15l-.05-.05v-.15l-.05-.05v-.1l-.05-.05-.05-.1v-.05l-.05-.05-.05-.05v-.1l-.05-.05-.05-.05-.05-.05-.05-.1-.05-.05-.1-.05-.05-.05-.05-.05-.1-.1-.1-.05-.05-.05-.1-.05-.1-.1-.15-.05-.15-.05-.15-.05-.15-.05-.1-.05H28l-.4-.05h-1.95l-.35.05h-.6l-.25.05h-.25l-.15-1.25-.15-.35q.8.4 1.65.6Q28 16.9 28 14.55q-.05-1.05-.95-1.6l-3.6-2.1-7.1-4.1Q12.9 4.7 9.1 3.35L6.05 2.2l-.8-.2-.35-.2-.15-.05-.1.05-.15.1v.3l7.15 5.4 4 3.15 5.5 3.95 1.35.95.65.45q-3.75-1.2-7.55-1.9l-1.7-.35-6.8-1.1-.05.05-.05.1v.15l.25.2.35.05.1.05.1.05.05.05.05.05q4.6 1.5 8.9 3.55 1.65.8 3.4 1.35h-.6l-.2.05h-.3l-.25.05h-.25l-.1.05-.15.05-.1.05H18l-.35.05h-.25l-.25.05h-.45l-.15.05h-.2l-.1.05h-.75l-.25.05h-.2l-.25.05h-1.75l-1 .05h-.8l-.3.05h-.2l-.15.05h-.35l-.75.05h-.45l-.75.05h-.6l-.25.05h-.2l-.15.05h-.6l-1.4.05h-.35l-.25.05h-.25l-.2.05h-.9l-.75.05h-.25l-.25.05h-.8l-.4.05H.5z"/><path fill="#fff" d="M75.95 19.6v1.15H75l-.25.05h-.25l-.75.05h-.9l-.2.05h-.25l-.25.05h-.35l-1.4.05h-.6l-.15.05h-.2l-.25.05h-.6l-.75.05h-.45l-.75.05h-.35l-.15.05h-.2l-.3.05h-.8l-1 .05H62.1l-.25.05h-.2l-.25.05h-.75l-.1.05h-.2l-.15.05h-.45l-.25.05h-.25l-.35.05h-.25l-.1.05-.15.05-.1.05h-.25l-.25.05h-.3l-.2.05h-.6l3.4 1.35q4.3 2.05 8.9 3.55l.05.05.05.05.1.05.1.05.35.05.25.2v.15l-.05.1-.05.05-6.8-1.1-1.7-.35-7.55-1.9.65.45 1.35.95 5.5 3.95 4 3.15q3.45 2.9 7.15 5.4v.3l-.15.1-.1.05-.15-.05-.35-.2-.8-.2-3.05-1.15q-3.8-1.35-7.25-3.4l-7.1-4.1-3.6-2.1q-.9-.55-.95-1.6 0-2.35 2.45-2.55l1.65.6-.15-.35q-.3-.75-.15-1.25h-.25l-.25.05h-.6l-.35.05H49.3l-.4-.05h-.45l-.1-.05-.15-.05-.15-.05-.15-.05-.15-.05-.1-.1-.1-.05-.05-.05-.1-.05-.1-.1-.05-.05-.05-.05-.1-.05-.05-.05-.05-.1-.05-.05-.05-.05-.05-.05v-.1l-.05-.05-.05-.05v-.05l-.05-.1-.05-.05v-.1l-.05-.05v-.15l-.05-.05v-.15l-.05-.05v-.2l.05-.05v-.15l.05-.05v-.15l.05-.05v-.1l.05-.05.05-.1v-.05l.05-.05.05-.05v-.1l.05-.05.05-.05.05-.05.05-.1.05-.05.1-.05.05-.05.05-.05.1-.1.1-.05.05-.05.1-.05.1-.1.15-.05.15-.05.15-.05.15-.05.1-.05h.45l.4-.05h1.95l.35.05h.6l.25.05h.25q-.15-.5.15-1.25l.15-.35q-.8.4-1.65.6-2.45-.2-2.45-2.55.05-1.05.95-1.6l3.6-2.1 7.1-4.1Q64 4.7 67.8 3.35l3.05-1.15.8-.2.35-.2.15-.05.1.05.15.1v.3q-3.7 2.5-7.15 5.4l-4 3.15-5.5 3.95-1.35.95-.65.45q3.75-1.2 7.55-1.9l1.7-.35 6.8-1.1.05.05.05.1v.15l-.25.2-.35.05-.1.05-.1.05-.05.05-.05.05q-4.6 1.5-8.9 3.55l-3.4 1.35h.6l.2.05h.3l.25.05h.25l.1.05.15.05.1.05h.25l.35.05h.25l.25.05h.45l.15.05h.2l.1.05h.75l.25.05h.2l.25.05h1.75l1 .05h.8l.3.05h.2l.15.05h.35l.75.05h.45l.75.05h.6l.25.05h.2l.15.05h.6l1.4.05h.35l.25.05h.25l.2.05h.9l.75.05h.25l.25.05h.8zM.35 20.65H.2l-.15-.05H0v-.9h.05l.15-.05h.15l.15-.05h.2l.4-.05h.8l.25-.05h.25l.75-.05h.9l.2-.05h.25l.25-.05h.35l1.4-.05h.6l.15-.05h.2l.25-.05h.6l.75-.05h.45l.75-.05h.35l.15-.05h.2l.3-.05h.8l1-.05h1.75l.25-.05h.2l.25-.05h.75l.1-.05h.2l.15-.05h.45l.25-.05h.25l.35-.05h.25l.1-.05.15-.05.1-.05h.25l.25-.05h.3l.2-.05h.6q-1.75-.55-3.4-1.35Q12.5 15 7.9 13.5l-.05-.05-.05-.05-.1-.05-.1-.05-.35-.05-.25-.2v-.15l.05-.1.05-.05 6.8 1.1 1.7.35q3.8.7 7.55 1.9l-.65-.45-1.35-.95-5.5-3.95-4-3.15L4.5 2.2v-.3l.15-.1.1-.05.15.05.35.2.8.2L9.1 3.35q3.8 1.35 7.25 3.4l7.1 4.1 3.6 2.1q.9.55.95 1.6 0 2.35-2.45 2.55-.85-.2-1.65-.6l.15.35.15 1.25h.25l.25-.05h.6l.35-.05h1.95l.4.05h.45l.1.05.15.05.15.05.15.05.15.05.1.1.1.05.05.05.1.05.1.1.05.05.05.05.1.05.05.05.05.1.05.05.05.05.05.05v.1l.05.05.05.05v.05l.05.1.05.05v.1l.05.05v.15l.05.05V20l.05.05v.2l-.05.05v.15l-.05.05v.15l-.05.05v.1l-.05.05-.05.1V21l-.05.05-.05.05v.1l-.05.05-.05.05-.05.05-.05.1-.05.05-.1.05-.05.05-.05.05-.1.1-.1.05-.05.05-.1.05-.1.1-.15.05-.15.05-.15.05-.15.05-.1.05H28l-.4.05h-1.95l-.35-.05h-.6l-.25-.05h-.25l-.15 1.25-.15.35q.8-.4 1.65-.6 2.45.2 2.45 2.55-.05 1.05-.95 1.6l-3.6 2.1-7.1 4.1q-3.45 2.05-7.25 3.4L6.05 38.1l-.8.2-.35.2-.15.05-.1-.05-.15-.1v-.3l7.15-5.4 4-3.15 5.5-3.95 1.35-.95.65-.45q-3.75 1.2-7.55 1.9l-1.7.35-6.8 1.1-.05-.05-.05-.1v-.15l.25-.2.35-.05.1-.05.1-.05.05-.05.05-.05q4.6-1.5 8.9-3.55 1.65-.8 3.4-1.35h-.6l-.2-.05h-.3l-.25-.05h-.25l-.1-.05-.15-.05-.1-.05H18l-.35-.05h-.25l-.25-.05h-.45l-.15-.05h-.2l-.1-.05h-.75l-.25-.05h-.2l-.25-.05h-1.75l-1-.05h-.8l-.3-.05h-.2l-.15-.05h-.35l-.75-.05h-.45l-.75-.05h-.6l-.25-.05h-.2L7.1 21h-.6l-1.4-.05h-.35l-.25-.05h-.25l-.2-.05h-.9l-.75-.05h-.25l-.25-.05h-.8l-.4-.05H.5z"/><path d="M37.85 2.35h.6q4.2.1 8.1 1.95l.3.25 3.15-.3 1.6.35 1.6.6q1.85.8 1.45 2.7l-.55 2.65q-.35 1.35-1.25 2.15l.2.45.65 3.7q.25 3.25-1.05 6.25-2.15 4.7-6.45 7.15l5.25.4q4.5.5 8.8 1.55l1 .1 3.3.35q2.55.6 3.5 2.9.7 1.9-.5 3.45-1.05 1.4-2.85 1.5-1.65.05-2.9-1-1.75-1.3-3.75-2.05l-4.55-1.4Q49.8 35 46 34.3l.85 2.15 1.3 4.05.15.55H28.05l.1-.55 1.25-4.05.9-2.15q-3.8.7-7.5 1.75l-4.55 1.4q-2 .75-3.75 2.05-1.3 1.05-2.95 1Q9.8 40.4 8.7 39q-1.2-1.55-.45-3.45.9-2.3 3.5-2.9l3.3-.35.95-.1q4.35-1.05 8.85-1.55l5.25-.4q-4.35-2.45-6.45-7.15-1.3-3-1.05-6.25.15-1.85.65-3.7l.2-.45q-.95-.8-1.25-2.15l-.55-2.65q-.4-1.9 1.45-2.7.75-.35 1.6-.6l1.6-.35 3.1.3.35-.25q3.9-1.85 8.1-1.95M32 22.7l.65-.7-2.8-.75q-2.05-.65-3.35-2.15l-.2.7q-.3 2 1.4 3.15 2.25 1.55 4.3-.25m18.6-2.6-.1-.95-.55.4q-2.7 1.6-5.65 2.3.3.55.95.95 2.25 1.5 4.3-.25 1.1-1 1.05-2.45"/><path fill="#fff" d="M50.6 20.1q.05 1.45-1.05 2.45-2.05 1.75-4.3.25-.65-.4-.95-.95 2.95-.7 5.65-2.3l.55-.4zM32 22.7q-2.05 1.8-4.3.25-1.7-1.15-1.4-3.15l.2-.7q1.3 1.5 3.35 2.15l2.8.75zM38.25 25.2v-.15l-.1-.1v-.05l-.05-.1v-.05l-.05-.1v-.15l-.05-.05v-.15l-.05-.05v-.15l-.05-.05v-.35l-.1-.15v-.75l-.05-.05v-.25l-.05-.05v-.6l-.05-.05v-.25l-.05-.05v-.45l-.05-.1v-.1l-.1-.05v-1.55l-.05-.1v-.65l-.05-.05v-.4L37.3 18v-1.55l-.05-.05v-2.35l-4 5.4-.05.05h-.15l-.2-.1-.1-.05v-.5q1.35-3.4 3.15-6.65l-.15-.05h-.65l-.2-.05h-.5l-.3-.05h-.5l-.35-.05h-.55l-.1-.05h-.1l-.2-.1h-.45l-.2-.05h-.15l-.2-.05h-.15l-.4-.05h-.2l-.2-.05h-.1l-.1-.05h-.25l-.15-.1-.15-.05-.2-.05-.05-.05-.15-.05h-.3v-.5h.3l.15-.05.05-.05.2-.05.15-.05.15-.1h.25l.1-.05h.1l.2-.05h.2l.4-.05h.15l.2-.05h.15l.2-.1h.45l.2-.05h.1l.1-.05h.55l.35-.05h.5l.3-.05h.5l.2-.05h.65l.15-.1q-1.8-3.2-3.15-6.6v-.5l.1-.05.2-.1h.15l.05.05 4 5.4V5.7l.05-.05V4.1l.05-.05v-.4l.05-.05v-.65l.05-.15V1.3l.1-.05V1.1l.05-.05V.6l.05-.05V.3l.05-.05V0h1.4v.25l.05.05v.25l.1.05v.45l.05.05v.15l.05.05v1.5l.05.15v.65l.05.05v.4l.1.05v1.55l.05.05v2.35l4-5.4.05-.05h.1l.25.1.05.05v.5q-1.35 3.4-3.1 6.6l.1.1h.65l.25.05h.45l.3.05h.55l.35.05h.5l.1.05h.15l.15.05h.5l.15.1h.2l.15.05h.2l.35.05h.25l.15.05h.1l.15.05h.25l.1.1.15.05.2.05.05.05.2.05h.4v.5h-.4l-.2.05-.05.05-.2.05-.15.05-.1.1h-.25l-.15.05h-.1l-.15.05h-.25l-.35.05h-.2l-.15.05h-.2l-.15.05h-.5l-.15.1h-.15l-.1.05h-.5l-.35.05h-.55l-.3.05h-.45l-.25.05h-.65l-.1.05q1.75 3.25 3.1 6.65v.5l-.05.05-.25.1h-.1l-.05-.05-4-5.4v2.35l-.05.05V18l-.1.05v.4l-.05.05v.65l-.05.1v1.55l-.05.05v.1l-.05.1v.45l-.1.05v.25l-.05.05v.6l-.05.05v.25l-.05.05v.75l-.05.15v.35l-.05.05v.15l-.1.05v.15l-.05.05v.15l-.05.1v.05l-.05.1v.05l-.05.1v.4h-.35z"/></g></svg>