<svg xmlns="http://www.w3.org/2000/svg" xmlns:ffdec="https://www.free-decompiler.com/flash" ffdec:objectType="shape" width="72.05" height="37.85"><g fill-rule="evenodd"><path fill="#999" d="m16.25 1.15 2.05.45.45-.25Q20.05.75 22 .2l1.2-.2q.9.1 1.4.8.45.65.45 1.8l-.3 2.9-.35 2.1-.1.75.2 1.05q.65 3.7-.7 5.9l-1.25 1.6-1.8 1.75-.6.4q1 .85 1.9 2.25l.2.35.25-.3L24 20.2q-.9-.8-.75-2 .1-1.2 1.15-1.85.7-.4 1.6-.3.85.1 1.5.65 1.35 1.1 1.1 3-.15 1.7-1.45 2.9l-1.55 1.25q-.8.5-.85 1 2.4-1.65 4.4-1.35h.05q.6-1.55 1.45-2.75l1.65-1.95q-1.7-.8-2.85-2.05-2.1-2.3-2.05-5.1 0-1 .5-2.8l.05-.1-.05-.1-.15-2.75.1-3.05q0-.5.15-1.05.35-1.25 1.4-1.65l1.15-.1q2.2.15 4.05 1.05 1.65-.45 4.55.05l2.05.45.45-.25Q42.95.75 44.9.2l1.2-.2q.9.1 1.4.8.45.65.45 1.8l-.3 2.9-.35 2.1-.1.75.2 1.05q.65 3.7-.7 5.9l-1.25 1.6-1.8 1.75-.6.4q1 .85 1.9 2.25l.75 1.35q.35-.8.9-1.3l1.5-1.15q-.9-.8-.75-2 .1-1.2 1.15-1.85.7-.4 1.6-.3.85.1 1.5.65 1.35 1.1 1.1 3-.15 1.7-1.45 2.9l-1.55 1.25q-.8.5-.85 1 2.4-1.65 4.4-1.35h.05q.6-1.55 1.45-2.75.85-1.15 1.65-1.95-1.7-.8-2.85-2.05-2.1-2.3-2.05-5.1 0-1 .5-2.8l.05-.1-.05-.1-.15-2.75.1-3.05q0-.5.15-1.05.35-1.25 1.4-1.65l1.15-.1q2.2.15 4.05 1.05 1.65-.45 4.55.05l2.05.45.45-.25L69 .2l1.2-.2q.9.1 1.4.8.45.65.45 1.8l-.3 2.9-.35 2.1-.1.75.2 1.05q.65 3.7-.7 5.9l-1.25 1.6-1.8 1.75-.6.4q1 .85 1.9 2.25 1.05 1.65 1.35 3.25l.15 1.15.2 1.05q.45 3.25-.5 5.4L69.05 34l-1.75 1.65q-1.05.65-3.5.95l-2.95.1-1.55-.5-1.7-.4q-1.5-.45-2.35-1.05-2.5-1.65-2.95-5.1-.15-1.3.05-2.75l-1.05.45-.2.25-1.8 1.45q-1.7.7-3-.45l-.2-.2q-.7 2.15-2.45 4.35-1.55 1.95-3.3 2.85l-6.85.2q-1.5-.45-2.35-1.05-2.5-1.65-2.95-5.1-.15-1.3.05-2.75l-1.05.45-.2.25q-1 1.1-1.8 1.45l-2.25.05q-.7 1.8-2.2 3.65-1.55 1.95-3.3 2.85l-6.85.2q-1.5-.45-2.35-1.05-2.5-1.65-2.95-5.1-.15-1.3.05-2.75l-1.05.45-.2.25q-1 1.1-1.8 1.45L0 29.1v-8l1.1-.9q-.9-.8-.75-2 .1-1.2 1.15-1.85l1.6-.3q.85.1 1.5.65 1.35 1.1 1.1 3-.15 1.7-1.45 2.9L2.7 23.85q-.8.5-.85 1 2.4-1.65 4.4-1.35h.05q.6-1.55 1.45-2.75L9.4 18.8q-1.7-.8-2.85-2.05-2.1-2.3-2.05-5.1 0-1 .5-2.8l.05-.1-.05-.1-.15-2.75.1-3.05q0-.5.15-1.05Q5.45.55 6.5.15l1.15-.1Q9.85.2 11.7 1.1q1.65-.45 4.55.05m-4.4 11.65q.7-.75.75-1.7v-.15l-.5-.15q-1.7-.65-2.35-2.35l-.2-.55v-.05Q8.5 7.9 7.7 8.6q-1.1.9-1 2.3l.05.35.1.35q.5 1.65 2.15 2.05t2.85-.85m5-.8q.4.7 1.15 1.2.75.45 1.55.45l1.6-.45 1.1-1.25q.8-1.6-.3-3.15-1.1-1.3-2.65-1.15l-.1.4-.7 1.35-.45.45-1.1.85-.4.2.05.4zm17.9.8q.7-.75.75-1.7v-.15l-.5-.15q-1.7-.65-2.35-2.35l-.2-.55v-.05q-1.05.05-1.85.75-1.1.9-1 2.3l.05.35.1.35q.5 1.65 2.15 2.05t2.85-.85m5-.8q.4.7 1.15 1.2.75.45 1.55.45l1.6-.45 1.1-1.25q.8-1.6-.3-3.15-1.1-1.3-2.65-1.15l-.1.4-.7 1.35-.45.45-1.1.85-.4.2.05.4zm19.1.8q.7-.75.75-1.7v-.15l-.5-.15q-1.7-.65-2.35-2.35l-.2-.55v-.05q-1.05.05-1.85.75-1.1.9-1 2.3l.05.35.1.35q.5 1.65 2.15 2.05t2.85-.85m5-.8q.4.7 1.15 1.2l1.55.45 1.6-.45 1.1-1.25q.8-1.6-.3-3.15-1.1-1.3-2.65-1.15l-.1.4-.7 1.35-.45.45q-.45.55-1.1.85l-.4.2.05.4z"/><path fill="#fff" d="m63.85 12-.25-.7-.05-.4.4-.2q.65-.3 1.1-.85l.45-.45.7-1.35.1-.4q1.55-.15 2.65 1.15 1.1 1.55.3 3.15l-1.1 1.25-1.6.45L65 13.2q-.75-.5-1.15-1.2m-5 .8q-1.2 1.25-2.85.85t-2.15-2.05l-.1-.35-.05-.35q-.1-1.4 1-2.3.8-.7 1.85-.75v.05l.2.55q.65 1.7 2.35 2.35l.5.15v.15q-.05.95-.75 1.7m-19.1-.8-.25-.7-.05-.4.4-.2 1.1-.85.45-.45.7-1.35.1-.4q1.55-.15 2.65 1.15 1.1 1.55.3 3.15l-1.1 1.25-1.6.45q-.8 0-1.55-.45-.75-.5-1.15-1.2m-5 .8q-1.2 1.25-2.85.85t-2.15-2.05l-.1-.35-.05-.35q-.1-1.4 1-2.3.8-.7 1.85-.75v.05l.2.55q.65 1.7 2.35 2.35l.5.15v.15q-.05.95-.75 1.7m-17.9-.8-.25-.7-.05-.4.4-.2 1.1-.85.45-.45.7-1.35.1-.4q1.55-.15 2.65 1.15 1.1 1.55.3 3.15l-1.1 1.25-1.6.45q-.8 0-1.55-.45-.75-.5-1.15-1.2m-5 .8q-1.2 1.25-2.85.85T6.85 11.6l-.1-.35-.05-.35q-.1-1.4 1-2.3.8-.7 1.85-.75v.05l.2.55q.65 1.7 2.35 2.35l.5.15v.15q-.05.95-.75 1.7M29.1 34.6 28 33.15l-.65-.75-.15-.25h-.05l-.8-.1-1.4-.15q-.95-.2-.85-.95.05-.65.9-.85l1.3-.1 1.1-.15.15.05.05-.05.6-.45.3-.45 1.5-.8.5.1q.25.2.05.65l-.45.6-.35.85-.35.95.2.4.5 1.15.45.6q.25.75-.2 1.2-.35.35-.7.25zm-7.65-2.25.3.5.25.65.5-.4q.55-.45 1.05-.45.75 0 .85.65.05.4-.3.75l-.75.45q-.3.15-.7.45l.55 1.25.15.5q-.1.6-.65.7-.45.15-.85-.35l-.4-1.25-1.15.9-.65.15-.3-.3.05-.5.6-.65 1.05-1.05-.4-1.5q-.3-.55-.05-.8l.5-.05zm1.1-4.95-.1-.6.1-1.25-1.8-.45-.7-.45q-.25-.5.05-.9t.85-.4l.9.3 1 .35.05-.3.4-1.5q.25-.45.7-.6l.7.1q.2-.05.35.15l.15.5-.45 1.65-.05.4q1.1.3 1.7.75l.3.5-.35.3-.5-.05-1.4-.2-.2.75-.05.75-.4.55-.7.05-.3-.1z"/><path d="m14.95 23.5 1-1.7-.2-.75-.4-1.2-.25-.6-.1-.75-.05-1.8q.35-1 1.4-1.1l1.2.3 1.05.65q.9.6 2.2 1.1l.7.35 1.3-.2q2.95-.25 5.85.85 2.85 1.15 4.85 3.4l1.8 2.6.25-.15-.2-.85-.15-1.55-.3-1.35-1.3-5.95.05-.9q.1-.85.35-1.15.5-.75 1.8-.95l2.15-.05q1.2.25 1.8 1.15l.45 1 .35 1.25.2 2.65.05 4.9 2.6-.3q3.65-.15 6.95 1.05l.35.15-.1-.75q-.25-3 .15-6.1.1-.75.35-1.35.2-.35.9-.95.85-.7 1.8-.75 1.1-.15 1.85.45.6.45.95 1.35.85 1.9.65 3.85l-.4 2.45-1.1 4.1-.3 1-.05.05.75 1.45q.4.95.5 2.6l-.05 1.55q1.4-.85 2.25-2.4.8-1.35 1.15-3.55.25-1.75.15-4.4l.05-1.65q.15-.9.6-1.45.65-.65 1.65-.65 1.05.05 1.65.75.6.75.6 2.55.2 7.05-1.75 10.55l-.85 1.3q-1.7 2.2-4.45 3.4l-2.9.85h-18.8l-1.4-.9-.55.55-.35.35H12.6l-.5-.45q-.65-.95.35-2.55.7-1.25 1.65-2.2l.2-.2-.35-1.75q-.4-2.75-.15-4.15.3-1.6 1.15-3.05m7.6 3.9.25.3.3.1.7-.05.4-.55.05-.75.2-.75 1.4.2.5.05.35-.3-.3-.5q-.6-.45-1.7-.75l.05-.4.45-1.65-.15-.5q-.15-.2-.35-.15l-.7-.1q-.45.15-.7.6l-.4 1.5-.05.3-1-.35-.9-.3q-.55 0-.85.4t-.05.9l.7.45 1.8.45-.1 1.25zm-1.1 4.95L21.1 32l-.5.05q-.25.25.05.8l.4 1.5L20 35.4l-.6.65-.05.5.3.3.65-.15 1.15-.9.4 1.25q.4.5.85.35.55-.1.65-.7l-.15-.5-.55-1.25q.4-.3.7-.45l.75-.45q.35-.35.3-.75-.1-.65-.85-.65-.5 0-1.05.45l-.5.4-.25-.65zm7.65 2.25.55.3q.35.1.7-.25.45-.45.2-1.2l-.45-.6-.5-1.15-.2-.4.35-.95.35-.85.45-.6q.2-.45-.05-.65l-.5-.1-1.5.8-.3.45-.6.45-.05.05-.15-.05-1.1.15-1.3.1q-.85.2-.9.85-.1.75.85.95l1.4.15.8.1h.05l.15.25.65.75z"/></g></svg>