<svg xmlns="http://www.w3.org/2000/svg" xmlns:ffdec="https://www.free-decompiler.com/flash" ffdec:objectType="shape" width="64.4" height="40.4"><g fill-rule="evenodd"><path fill="#999" d="M18.55 24.25q-.6.5-1 .3-.55-.3-.1-1.2.9-1.7 2.45-2.6-1.75-.25-3.55.6-1.7.75-2.9 2.2-2 2.45-2.8 6.75-.4 2.05.1 3.1l1 1.7q.65 1.45-.3 2.7-.9 1.2-2.45 1.05-1.45-.15-2.65-1.8l-.5-.75H5.6l-.85.1-2.05.6-1.1.3-.45-.1q-.25-.1-.25-.35.2-.45 1.35-1.15l.95-.6.9-.65.95-.7q-.2-1.35 0-3.1l-3.15-.5-.7-.25-.85-.2q-.25-.15-.35-.5 0-.35.25-.6.2-.2.85-.3l.65-.15h.9l2.8-.25Q5.9 25.8 6.7 24l-1-1.45-.65-.65q-.85-.8-1.75-2.3l-.7-1.05q-.2-.4.1-.55.2-.15.65.2l1.95 1.25q1.35.85 2.45 1.85l.25.25 1.3-1.85q1.8-2 4.2-3.15v-.4l-.15-1.3v-.5l-.2-.95-.1-.95v-1.3l.05-.8-.05-.85.1-.55q.1-.2.4-.15l.35.15.25.2.15.4.2 1.5.3.9 1.6 3.6 3.35-.1 1.25.3 1.75-2.8.45-.55.95-1.6.55-.95.4-.35q.25-.2.45 0 .25.25.05.75l-1.05 3.1-.6 2-.1 1.45 1.05.65q1.45 1.15 2.85 4.3l.3 1q0 .65-.55.8l-1-.4q-1.2-.85-2.75-1t-2.85.45q-.9.4-2.35 1.65"/><path d="M45.65 2.75q4.6-1.15 8.35.5 1.5.65 2.7 1.8l1.35-.75q1-.55 1.8-.6 1.1-.1 1.65.7l.35 1.3-.15 3.05q-.2 3.35-.95 5.1l-.35.75q-.25 2.25-1.45 4.4-1.15 2.3-3.1 3.8-2.15 1.75-4.4 2.15l-.6.1L52 28.2l.9 3.15q3.2.1 4.9-.95-.5-1.05-.2-2.25.3-1.25 1.25-1.95.95-.75 2.2-.7 1.25 0 2.15.8.9.85 1.15 2.35.25 2.15-1.4 4.05-1.3 1.5-3.7 2.45-2.3.9-5.1 1.1.25 1.4-.05 2.1-.6 1.35-2.15 1.45l-1.3-.35-.45-.35-1.4.05-2.55.2-1.65.05-.5.2-1.45.05-.75-.25q-1.65.75-3.85.95-2.75.3-4.05-1-1.1-1.1-.95-3.05.15-1.5.85-2.6 1-1.6 2.95-2.5 1.75-.75 3.85-.85h1.05l.7-2.9.25-.8q-2.75 1.6-7.1 3.85-6.15 3.1-8.35 4.4l-1.75.95-1.85.55q-1.3.15-2.5-.5-1.25-.7-1.75-1.9-.35-.85-.45-2.65-.1-1.95.25-3.4.4-1.8 1.65-2.9.95-.85 2.2-1l2.4.3q1.15.5 1.9 1.55t.8 2.3l8.05-3.5q2.7-1.15 4.65-1.8-2.75-1.6-3.85-4.35-.8-2.15-.55-5.35l.3-2.15.05-1.2q.1-1.35.35-2.5.7-3.15 2.65-5.6Q40.5.8 41.2.4q1.05-.6 1.9-.25.8.3 1.6 1.65l.6 1.05zM51.5 21.4q.55-.1.7-.55.25-.45-.05-.95-.3-.4-1.1-.7l-.35-.1V19l.05-.95q-.2-.65-.7-.65-.45 0-.7.4l-.25 1v.15q-1.4.1-2.4 1.05-.35.35-.25.65t.45.2l.5-.1 1.3-.15 1.5.4q.95.5 1.3.4m-4.95-3.35.55-.5-1.65.25-2-.35q-1.3-.45-1.95-1.05-.85-.7-1.15-1.9l-.1.25q-.35 1.35.25 2.4l.5.75.45.45 1.05.6q1.9.7 3.35-.3zm12.15.15q.55-.8.7-1.6L58 18l-2.3.65-2.4-.2-.6-.1.05.05q.6.85 1.5 1.15 1.05.35 2.4 0l1.2-.45zm-18 16.75.05-.1-1.6.2q-1.6.45-1.85 1.35l3.2.15zM16.95 18.1q.65-.45 1.45-.4l.9.2.45-.05q1.65.1 2.25 1.3.65 1.45-.1 2.35l-1.45 1.3q-.7.45-1.2 1.15-.55.7-1 1.7-.5 1.05-.75 2.15l-.3 2.85q-.05 1.65.7 4.05.2.9.55 1.45l.95 1.2.7.65.3.55-.5.45-.65-.1-1.2-.55-.65.7-2.1.1-.4-.3-.2.05-1.7.65-1.3-.3-.5-.2-.5.1-1.95-.05q-.95-.35-1.4-1.4l-.15-.4-.25-.25Q6.1 36.1 6 34.8l-.95.85L3.8 36q-.4-.05-.8-.3-1.15-.65-1.25-1.85v-.7l.2-.7.5-.4q.3-.05.5.25l.15.6.2.9q.3.4.65.25l.25-.25.9-1.1q.6-.6 1.2-.75l.95.1q.6.2 1.1.8l.1.1L9.6 31.3l-1.3-1.5-.9-1.55Q6.9 27 7 25.45q.05-1.15.4-2.2-.9-.65-1.05-1.65-.15-.55-.05-1.65l.15-1.05q.25-.85.65-1.45 1.4-2.5 3.7-3l.9-.05q1.1 0 1.8.5.85.55 1.1 1.5v1.7q.95.2 1.65.75zm-1.7 9.55L15 27.4l-.8-.05-.9.5q-.75.4-.85.55v.65q.35.5.95.25l.6-.45.85-.6.2-.35zm-4.9-4.85-.2.9-.05.95q.1.6.35 1 .85 1.2 2.25 1.2 1.05-.1 1.75-.8.7-.8.85-1.75l-.1-1.35-.15-.45-.3-.5-.4-.35q-.7-.5-2.05-.3l-.4.05-.75.35q-.65.55-.8 1.05"/><path fill="#fff" d="m58.7 18.2-.85.9-1.2.45q-1.35.35-2.4 0-.9-.3-1.5-1.15l-.05-.05.6.1 2.4.2L58 18l1.4-1.4q-.15.8-.7 1.6m-12.15-.15-.7.6q-1.45 1-3.35.3l-1.05-.6-.45-.45-.5-.75q-.6-1.05-.25-2.4l.1-.25q.3 1.2 1.15 1.9.65.6 1.95 1.05l2 .35 1.65-.25zm4.95 3.35q-.35.1-1.3-.4l-1.5-.4-1.3.15-.5.1q-.35.1-.45-.2t.25-.65q1-.95 2.4-1.05v-.15l.25-1q.25-.4.7-.4.5 0 .7.65l-.05.95v.1l.35.1q.8.3 1.1.7.3.5.05.95-.15.45-.7.55m-41.15 1.4q.15-.5.8-1.05l.75-.35.4-.05q1.35-.2 2.05.3l.4.35.3.5.15.45.1 1.35q-.15.95-.85 1.75-.7.7-1.75.8-1.4 0-2.25-1.2-.25-.4-.35-1l.05-.95zm4.9 4.85-.2.25-.2.35-.85.6-.6.45q-.6.25-.95-.25v-.65q.1-.15.85-.55l.9-.5.8.05z"/></g></svg>