<svg xmlns="http://www.w3.org/2000/svg" xmlns:ffdec="https://www.free-decompiler.com/flash" ffdec:objectType="shape" width="64.35" height="38.7"><g fill-rule="evenodd"><path fill="#999" d="m57.6 1.65 2.95.35q1.5.45 2.4 1.6l.85 1.45q.55 1.3.55 2.3l-.3 1.7q-.8 2.65-2.2 4.05l-1 .85-.75.7-1.3.9-1.4.9L55.65 18l-.55.6-.4.75q-.35.45-.75.35l-.25-.15-.2-.25-.1-.2-.4-.6-.1-.1q-.6-.5-2.1-1.2-2.75-1.35-4.5-1.95l-2.2-.8-1.9-1.3q-.95-1.05-1.2-2.55-.35-1.75.3-3.5.6-1.8 1.95-2.95 1.35-1.2 3.2-1.55l3.5.2q1.1.3 1.85 1l.65.65L53.6 3.2q1.1-.9 1.8-1.15zM51.95 9.3q.25.4.1.8l-.15.35v.45l-.65.6h-.85l-.85-.5-.05-.45.1-.8q.1-.2.5-.45l.5-.45.65.15zm-3.5 1.45.2.95q.4.75 1.8.85l1-.05q.75-.25 1.1-1.05l.3-1.55-.15-.85-.55-.55L51 7.95l-.7-.05-.45.2q-.95.55-1.2 1.1-.3.6-.2 1.55M47.4 12l-.55-3.2-.25-.55q-.35-.15-.55.15l-.25.6q-.1 1 .15 3 0 .6.15.85.25.45.65.35l.6-.4zm14.25-1.15.3.1.3-.1q.6-.3.6-.75l-.3-.65-.6-.3-.1.05q-.55.1-.7.55-.15.55.15.85zm.1-3.6-.3.15q-.35.15-.55.45l-.8.85-.85.95-.3.5q-.1.3.2.6l.65.1.55-.6 1.35-1.9.3-.55q.1-.4-.25-.55m-2.9-.1v.2l.05.35q.3.45.8.3.5-.1.5-.65 0-.65-.7-.75v.05h-.1l-.15.05-.3.2zM57.8 8.5q-.55-.85-2.25-.95l-1.1.15q-.55.3-.95 1.35l-.2.95.45 1.1.9 1 1.1.1q.75 0 1.3-.35l.65-.85q.8-1.55.1-2.5m-3.15 1.75-.2-.5.3-1q.1-.4.45-.5.1.4.65.4l.75.05.4.4.15.3-.25.75-.7.85-.4.05-.45-.05z"/><path fill="#fff" d="m54.65 10.25.7.75.45.05.4-.05.7-.85.25-.75-.15-.3-.4-.4-.75-.05q-.55 0-.65-.4-.35.1-.45.5l-.3 1zM57.8 8.5q.7.95-.1 2.5l-.65.85q-.55.35-1.3.35l-1.1-.1-.9-1-.45-1.1.2-.95q.4-1.05.95-1.35l1.1-.15q1.7.1 2.25.95m1.05-1.35.1-.25.3-.2.15-.05h.1V6.6q.7.1.7.75 0 .55-.5.65-.5.15-.8-.3l-.05-.35zm2.9.1q.35.15.25.55l-.3.55-1.35 1.9-.55.6-.65-.1q-.3-.3-.2-.6l.3-.5.85-.95.8-.85q.2-.3.55-.45zm-.1 3.6-.35-.25q-.3-.3-.15-.85.15-.45.7-.55l.1-.05.6.3.3.65q0 .45-.6.75l-.3.1zM47.4 12l-.05.8-.6.4q-.4.1-.65-.35-.15-.25-.15-.85-.25-2-.15-3l.25-.6q.2-.3.55-.15l.25.55zm1.05-1.25q-.1-.95.2-1.55.25-.55 1.2-1.1l.45-.2.7.05 1.15.55.55.55.15.85-.3 1.55q-.35.8-1.1 1.05l-1 .05q-1.4-.1-1.8-.85zm3.5-1.45-.7-.3-.65-.15-.5.45q-.4.25-.5.45l-.1.8.05.45.85.5h.85l.65-.6v-.45l.15-.35q.15-.4-.1-.8"/><path d="m5.45 11.25 1.35-2.4V8.1l-.4-4-.2-2.15Q6.3.75 7.2.2q.75-.4 2.15 0l3.7 1.15L15.4 2.6q1.75-.6 3.55-.8l6.1.5q3.1.85 5.45 2.7l2.15 2 .95.1 1.3.35h1.55l1.05.15 1.2.1q.75.1 1.15.35l.75.8.1 1.05-.35.75-3.8 4.7.15 1.1q.45 3.75-.7 7.3-.9 2.5-2.05 3.95-2.6 3.4-7.55 4.4l-.3.1q.45.4 1.65.8l3.6.6 2.05-.6 1-.6q.3-.35.4-1.1l.45-2.3.65-2.5q.85-2.05 2.6-3.05l.1-.4q.5-2.45-.3-3.6l-.2-.55.3-.35q.5-.25.95 0l.7.75q1 1.5 1.15 3.25l.5.05.95-1.2q.95-1.4.4-3.6-.2-.55.05-.75l.75.1q.45.45.65 1.5l.25 2.4q-.05 1.2-.75 2.65v.1l.5.55.7-.65q1.7-1.55 1.7-3.5-.1-.4.05-.75.2-.4.55-.25l.25.3q.6 1.6.15 3.4-.45 1.7-1.6 3.05l-.8.75q.5 2.7-1.45 5.7-1.05 1.5-1.9 2.2-1.3 1.1-4.2 2.3L34.6 38h-2.55l-2.55-.35-2.25-.35q-.5.45-1.2.55l-1.45.05h-.85l-1.3.25-8.05.55L3 38.45l-1.85-.3q-1-.35-1.15-1.3-.1-.7.75-1.85 3.6-4.85 6.35-7.65-2.65-2.4-3.4-5.6-1.15-4.55 1.75-10.5m15.25 11.4-.95.4.15-1.05.05-.15zM10.65 18.2l.95.8-1.25 1.3.15-1.45zm15.8-2.6q-.35 1.15.05 2.1l.35-.05 1.5.3 1.75.35.6.2.7-.95q.9-1.75.15-2.8-.65-1-2.35-1-1.2 0-1.95.6-.55.5-.8 1.25m-2.35 5.45-.9.25-1.1.25q-.65.1-.95-.35l-.3-.8-.25-.8q-.35-.6-1.25-.6l-1.4.2h-1.8q-1.1-.3-2.4-1.5l-2-2.05-.15-.15-.95-.15-.55-.05-.8.65q-.9 1-1.3 2.3l-.3 1.8q-.1 1.5.05 2.25.5 2.35 3.15 3.6 2.75 1.25 6 .6 2.55-.45 5.7-2.2l1-.55.95-.6 1.85-1.25.25-.5-.1-.4.05-.25-.15-.1zm-7.25.45h.4l-.65 1.35q-.25.75-.2 1.3h-.1l-.85.1.1-.65.9-2 .05-.05zm-2.65-.45.05.05-1.05 1.05-.9 1.4-.3-.15-.45-.2.35-.5.45-.85.7-1.1.15-.25zm-2.1-10.7q-.85.9-.95 2.15 2.7.25 3.9 1.9l.3.45.15-.1 1-1.05.55-1.45q.1-1.1-.75-1.95-.75-.8-2-.8t-2.2.85M43.2 30q.55-.1.7-.6.15-.45-.1-.9L43 28l-.1.05-.25.05q-.35.1-.55.45-.2.4-.1.75.1.4.45.6zm-5.8 1.5q.65.75 1.6.65 1-.15 1.4-1 .3-.6.1-1.3-.2-.65-.75-1l-1.25-.2q-.7.15-1.1.65-.35.35-.35.95-.05.65.35 1.25m3.7-6.1-.1.05-.3.05q-.35.1-.55.5l-.1.7q.1.4.45.6l.75.15.65-.35.2-.7-.35-.7q-.25-.3-.65-.3m-3.95.9q-.1.55.3.95.5.4.95.25.6-.15.7-.85l-.1-.7q-.35-.6-1.05-.5-.7.2-.8.85"/><path fill="#fff" d="M37.15 26.3q.1-.65.8-.85.7-.1 1.05.5l.1.7q-.1.7-.7.85-.45.15-.95-.25-.4-.4-.3-.95m3.95-.9q.4 0 .65.3l.35.7-.2.7-.65.35-.75-.15q-.35-.2-.45-.6l.1-.7q.2-.4.55-.5l.3-.05zm-3.7 6.1q-.4-.6-.35-1.25 0-.6.35-.95.4-.5 1.1-.65l1.25.2q.55.35.75 1 .2.7-.1 1.3-.4.85-1.4 1-.95.1-1.6-.65m5.8-1.5-.75-.1q-.35-.2-.45-.6-.1-.35.1-.75.2-.35.55-.45l.25-.05.1-.05.8.5q.25.45.1.9-.15.5-.7.6M12.1 10.35q.95-.85 2.2-.85t2 .8q.85.85.75 1.95l-.55 1.45-1 1.05-.15.1-.3-.45q-1.2-1.65-3.9-1.9.1-1.25.95-2.15m2.1 10.7-1-.55-.15.25-.7 1.1-.45.85-.35.5.45.2.3.15.9-1.4 1.05-1.05zm2.65.45-.35.05-.05.05-.9 2-.1.65.85-.1h.1q-.05-.55.2-1.3l.65-1.35zm7.25-.45 2.35-.4.15.1-.05.25.1.4-.25.5-1.85 1.25-.95.6-1 .55q-3.15 1.75-5.7 2.2-3.25.65-6-.6-2.65-1.25-3.15-3.6-.15-.75-.05-2.25l.3-1.8q.4-1.3 1.3-2.3l.8-.65.55.05.95.15.15.15 2 2.05q1.3 1.2 2.4 1.5h1.8l1.4-.2q.9 0 1.25.6l.25.8.3.8q.3.45.95.35l1.1-.25zm2.35-5.45q.25-.75.8-1.25.75-.6 1.95-.6 1.7 0 2.35 1 .75 1.05-.15 2.8l-.7.95-.6-.2-1.75-.35-1.5-.3-.35.05q-.4-.95-.05-2.1m-15.8 2.6-.15.65-.15 1.45L11.6 19zm10.05 4.45-.75-.8-.05.15-.15 1.05z"/></g></svg>