<svg xmlns="http://www.w3.org/2000/svg" xmlns:ffdec="https://www.free-decompiler.com/flash" ffdec:objectType="shape" width="79.8" height="44"><g fill-rule="evenodd"><path fill="#999" d="M3.5 0h71.1l.55.05.25.05.3.1.4.15.25.15.25.15.2.15.15.15.15.15.15.15.1.15.1.15.1.15.1.15.05.15.1.15.05.15.05.15.05.15.05.15v.15l.05.15v.55l.05.15v.15l.05.15v.45l.05.15V37.2l.1.05.2.15.15.15.15.15.15.15.1.15.1.15.1.15.1.15.05.15.1.15.05.15.05.15.05.15.05.15v.15l.05.15v.45l.05.15v.15l-.05.15V41l-.05.15-.05.15v.15l-.05.15-.1.15-.05.15-.05.15-.1.15-.05.15-.1.15-.1.15-.15.15-.15.15-.15.15-.15.15-.25.15-.2.15-.35.15-.2.1-.15.05-.2.05-.25.05-.55.05h-.4l-.55-.05-.25-.05-.2-.05L6 43.8l-.55-.05-.25-.05-.35-.1-.35-.15-.3-.15-.25-.15L3.8 43h-.3l-.55-.05-.25-.05-.35-.1-.35-.15-.3-.15-.25-.15-.15-.15-.15-.15L1 41.9l-.15-.15-.15-.15-.1-.15-.1-.15-.1-.15L.35 41l-.05-.15-.1-.15-.05-.15v-.15l-.05-.15-.05-.15v-.45L0 39.5V4.85l.05-.15v-.45L.1 4.2l-.05-.1v-.45L0 3.5l.05-.15V2.9l.05-.15.05-.15v-.15L.2 2.3l.1-.15L.35 2l.05-.15.1-.15.1-.15.1-.15.15-.15L1 1.1l.15-.15L1.3.8l.15-.15L1.7.5 2 .35 2.35.2 2.7.1l.25-.05h.55zm46 3.25-4.6.55q-2.65.45-4.3 1.45-1.2.7-2.15 1.75-.95 1-1.6 2.35l-2.9.5q-.6.2-.9.5-.85.8-.7 2.25.15.8.95 2.2l1.15 2.2.2.65.45 1.25q-.1 1.65-.05 3.8.1 3.25.7 5.45 1.3 4.65 5.45 7.5.85.65 1.85 1.15 3.1 1.65 6.95 2.05l3.6-.15.15 1.15q.4 2.15 1.05 3.65h22.25V20.75l-.2-.1.15-1.45q0-1.5-.7-4.6-1.1-4.2-1.75-5.65L73.6 7l-.95-1.65-1.3-1.9L69.8 1.9q-1-.65-2.15-.7-1.25-.05-2.05.65-1.2 1.05-1.05 2.95.1.8.65 2.2l.35.85q1.3 2.75 3.35 5.7l1.3 1.85 1.9 3.6-.6-.15-.3-.05-2.65-.35-.7-2.45-1.2-2.95-1.45-2.6-2.25-2.65V7l-.1-4.95-.05-.95h-9.35L51.2 2.15l-1.1.75-.55.35zM30.6 37.7l.55-.9.45-1.5.05-1.7q-.25-2.15-2.2-3.5-.9-.6-1.95-.9l.05-1.2-.5-1.25q-.7-.9-2.1-.9-1.3.1-2 .85-.9 1-.35 2.05l.5.6-.65.4q-1.15.85-1.75 1.75-.35-.25-.7-.35L18.25 31l-.9.35-1 .9-.3.7-.05.8.2 1 1.1 1 1.5.8.7.25.55.2.8.1-.3.45-.9 2.1-.4 2.5h-.95q-.5-.1-.7-.45V41l.65-1.35-.35-1.1q-.9-1.25-2.05-1.4l-.7.2q-.4.3-.2.65.1.3.75.3l.75.3.1.1-.15.25-.9.9q-.8 1.05-.55 2.35l.2.65.4.65h16.3l-.05-1.75q-.25-2-1.8-3.45z"/><path d="m30.6 37.7-.6.6q1.55 1.45 1.8 3.45l.05 1.75h-16.3l-.4-.65-.2-.65q-.25-1.3.55-2.35l.9-.9.15-.25-.1-.1-.75-.3q-.65 0-.75-.3-.2-.35.2-.65l.7-.2q1.15.15 2.05 1.4l.35 1.1L17.6 41v.7q.2.35.7.45h.95l.4-2.5.9-2.1.3-.45-.8-.1-.55-.2-.7-.25-1.5-.8-1.1-1-.2-1 .05-.8.3-.7 1-.9.9-.35 1.75.15q.35.1.7.35.6-.9 1.75-1.75l.65-.4-.5-.6q-.55-1.05.35-2.05.7-.75 2-.85 1.4 0 2.1.9l.5 1.25-.05 1.2q1.05.3 1.95.9 1.95 1.35 2.2 3.5l-.05 1.7-.45 1.5zM49.5 3.25h.05l.55-.35 1.1-.75 2.25-1.05h9.35l.05.95.1 4.95v.8l2.25 2.65 1.45 2.6 1.2 2.95.7 2.45 2.65.35.3.05.6.15-1.9-3.6-1.3-1.85q-2.05-2.95-3.35-5.7L65.2 7q-.55-1.4-.65-2.2-.15-1.9 1.05-2.95.8-.7 2.05-.65 1.15.05 2.15.7l1.55 1.55 1.3 1.9L73.6 7l.95 1.95q.65 1.45 1.75 5.65.7 3.1.7 4.6l-.15 1.45.2.1V43.5H54.8q-.65-1.5-1.05-3.65l-.15-1.15-3.6.15q-3.85-.4-6.95-2.05-1-.5-1.85-1.15-4.15-2.85-5.45-7.5-.6-2.2-.7-5.45-.05-2.15.05-3.8l-.45-1.25-.2-.65-1.15-2.2q-.8-1.4-.95-2.2-.15-1.45.7-2.25.3-.3.9-.5l2.9-.5Q37.5 8 38.45 7q.95-1.05 2.15-1.75 1.65-1 4.3-1.45z"/><path d="M29.75 21.5q.5-.35 1-.35.55-.05 1.65.6l.45.3.1.5-.55.35q-.25.1-.75.55l-.7.5q-.75.25-1.3-.3-.45-.35-.45-1.1.05-.55.55-1.05m-3.45-3.4q-.3-.55 0-1.25.3-.65.9-1 1.35-.9 3.1-.2 1.4.6 2.4 2 .3.5.2.8-.15.35-.95.35l-2.2.1-1.9.15q-1.2-.1-1.55-.95m-4.5 8.85q-.15 1.1-1.3 1.35l-1.15-.1-.8-.7q-.55-.95.05-1.9.65-.9 1.7-.75.55.1 1 .5l.5.9zm-1.9-3q-.6 0-.95-.65-.25-.45-.35-1.1l-.75-3.75q-.2-1.1-.05-1.6.35-1.2 1.6-1.3l1 .2.75.8.2 1.5v2.9l-.3 1.9q-.3 1.1-1.15 1.1M42.1 38.5q.15.7-.45 1.2-.55.45-1.3.2-.7-.35-.75-1.1 0-.6.35-.95.3-.4.9-.4.45 0 .85.3l.25.4z"/><path fill="#fff" d="M50.45 6.25q.1-.8.5-1.35.55-.7 1.65-.95 1.85-.4 3.25.65.7.55 1 1.4t.05 1.65q-.4 1.4-1.85 1.9-1.75.65-3.2-.4-1.55-1.05-1.4-2.9m.7 6.95q.65.55.75 1.9v1.8l-.15 1.3v1.1l-.15 1.05-.35.6-.65.1q-.3-.2-.4-.7l-.6-2.6-.2-1.1-.45-1.05-.8-.2q-.7-.1-2.1.55-1.5.85-1.95 1.45l-.65.85-.2.2.75 2.75q.2 1.15-.25 1.45l-1.05-.1-.6-.9L40.8 19l-.5-1.35q-.05-.65.2-1.05 0-.5.3-.95l1-1.2L43 13.4l1.45-.7q1.3-.6 1.7-.65l1.5-.05 1.95.2 1.2.75.15.15zm1.15 18.7q-2.6 1.95-6.35 1.15l-1.15-.45q-.6-.4-.6-.95 0-.25.35-1.05l1.25-2.1.55-.45q.35.1.35.45.15.55-.65 1.9l-.05.4.25.15q2.45.5 4.5-1 1.35-1 2-.8l.55.6.05.85q-.2.75-1.05 1.3M37.65 12.25l-1.25-.35-.85-.95q-.3-.7-.15-1.4.2-.8.8-1.1l1.2-.3 1.15.15q1.15.4 1.15 1.7 0 1.2-1.05 1.85zm-19-4.65h-.05l.55.35zM15.9 5.2l1.35-.05 1.7.1q1.2.25 2 1.3t.85 2.25l-.25 1.7-.45 1.1-.9 1.05-1.7 1.1-2.8 1.65-.55.45-1.15 1.8-.55.4-.35-.1h-.05q-.6.05-.95-.3l-.6-.8-1.1-1-2.2-1.1-1.9-1.45-.5-1.05q-.5-1.6-.05-3 .55-1.9 2.2-2.9Q9.7 5.3 11.6 5.7l1.1.4.85.7q1.3-1.35 2.35-1.6m8.65 30.05-.15.75-.55.7q-.65.5-1.5.4-.85-.05-1.35-.65T20.55 35t.6-1.4q.55-.5 1.4-.5t1.45.5l.5.85zm3.05.4q-.35.2-.35.65.05.45.65 1.15.25.45-.15.95-.5.6-1.25.2-.55-.25-.85-1.05-.15-.45-.15-1.4l.25-1.1-.3-.55-.2-.2-.2-.3-.05-.4.55-.4.65.25.55.65.05.1 1.1-.05 1.35.5.35.3q.2.45-.4.65h-.8zm-1.5-4.6q-.1-.8.35-1.5.5-.75 1.3-.95l1.45.2q.7.4 1 1.1.3.65.05 1.45-.2.75-.8 1.2-.65.5-1.35.4-1.05 0-1.65-.95z"/></g></svg>