<svg xmlns="http://www.w3.org/2000/svg" xmlns:ffdec="https://www.free-decompiler.com/flash" ffdec:objectType="shape" width="62.2" height="33.95"><g fill-rule="evenodd"><path fill="#999" d="M13.6 20.7q.95-3.1 4.05-5.85 3.4-3 7.9-4.2l8.85-.35q1.9.4 3.55 1.1l.05-.05q.95-.7 3-1.5l1.05-.3h1.35l1.4.1 1.9-2.05-.05-.05q-.6-.7-.7-1.8-.05-.9.3-1.6.5-1.15 1.8-1.45l2.35.25 1.3.95.4.9 1 .1q.9.3 1.3.8l.4 1.2q.15.75-.05 1.25-.35 1-1.7 1.55l-2.35.15h-.8q-.3.1-.55.35l-2.05 1.9.2.45q.65 1.55-.2 3.4l-1.5 2.15q2.35 3.05 2.2 5.45l.55.05q2.1.3 2.8 1 .75.75.75 2 0 1.15-.75 2.15-1 1.3-3.65 2.35-8.7 3.35-21.85 2.75-8.7-.45-15-2.25-2.5-.65-3.4-1.8-.8-1-.65-2.25.05-1.3.95-2.2.75-.75 2.85-1.35l2.6-.45q-.1-1.35.4-2.85M37.85 8.75l-.35-.05-.3-.3-.5-.75-.25-1.05.25-.75q.25-.65.55-.95l.8-.55q.7-.55.85-1.4l-.05-.45-.1-.25q-.55-.1-.8-.4-.4-.35-.35-.7 0-.35.35-.55l.9-.15.55.1.7.55.45.55.1.6.1.5q.1.9-.3 1.65l-.5.75-1.35.95-.6.4-.2.3q-.25.45-.2.8l.3.55q.25.3-.05.6m8.45 18.1q-2.1 2.05-5.75 2.75l-6.5.35-10.5-.25-5.45-.6q-3.05-.8-4.25-3.15l-.25-.6-3.15.65q-1.15.3-1.4.9-.2.75.45 1.4l1.35.6Q16 30.65 25.2 31.15q13.05.75 20.75-1.95 3-1.1 3.95-2.65-1-.45-2.7-.75zM28.25 1.25l1.2 1 .7.6.4.7.15.85q.1.55-.55 1.8l-.35.6-1.2 1.05-.6.35-.5.15-.2.35-.15.4-.1.2-.35.05q-.55-.15-.8-.95-.2-.9.4-1.6l1-.6q.8-.45 1.2-1.25l.1-.4-.35-.55-1.3-1.4-.35-.65q0-.35.15-.6Q27.2.5 28.15 0l.4.2.15.45zm-9.65 9.8q-.6.25-1.05-.35-.45-.3-.35-1v-.45l-.7-.55-.7-.75-.35-.65v-.5l.45-1.5 1.2-1.25q.7-.65.7-1.05l-.2-.8q0-.4.25-.7l.65-.1q.4.05.6.85l.25 1.6-.45 1.05-.8.65-.6.75 1.05.35L19 7q.85 1 .85 2.3l-.1.65-.45.6z"/><path d="M41.75 5.55q1.1 0 1.7 1.1.5.9.1 2.05-.4.9-1.75 1.95l-4.6 3.6-3.8 3.3 1.4 1.8q2.65 3.4 3.55 5.3.5 1 .45 1.65l-.35.8q-.3.35-.7.35-.55.05-1.4-.8l-2.85-3.1-2.95-3.15-.6.6q-3.3 3.25-7.35 6.25l-2.15 1.55q-.85.7-1.55.55-.5-.05-.8-.55-.25-.45-.2-1 .05-.95.85-1.8l1.85-2 7.05-7-4.35-5.25q-1.25-1.45-1.4-2.3-.15-1.25.85-2t2.2-.25l1.5 1.4 4.2 5.4 2.3-2.1 3.7-3.15 2.5-2q1.5-1.3 2.6-1.2"/><path fill="#999" d="m61.3 18.45-.1 5.2v3.4q0 1.7-.3 2.25-.65 1.15-1.9 1l-1.05-.4-.6-.95q-.15-.4-.15-1.25l.1-2.85.2-2.55.2-4.7.1-.55-.85-.05q-1-.25-1.35-1.15-.35-.8-.05-2.25l.25-1.25 1.05-4.85.35-.9L58.85 4q.75-1.15 1.35-1.35l1.15.05q.6.25.8.8.2.5-.15 2.2-.2.8-.3 3.25l-.05 1.9q0 2.95-.4 4.7zM1.4 25.4l.75-11.35.3-1.1h-.3l-1.05-.2-.85-.65q-.35-.5-.25-1.05l.2-.55.1-1.25.4-1.8.2-.9q.25-.55.8-.45.5 0 .7.55l-.05.65.05.8-.1 1v.95l.25.05.2-.7.3-2.05q.1-1.4.3-2.1.35-.8.85-.7l.35.5-.05.65V8l.15 2.25h.4l-.1-3.35q0-.6.15-.85.2-.5.85-.6.55-.1.95.4l.3 1v1.1l.15.8v1.85l.1 1q.1.55-.25.95-.4.5-1.55.5h-.8l.15 2.5.15 4.7v4.4q.2 1.6-.15 2.3l-.75.85-1.15.2-1.05-.45q-.45-.4-.6-.95-.15-.5-.05-1.2"/></g></svg>