<svg xmlns="http://www.w3.org/2000/svg" xmlns:ffdec="https://www.free-decompiler.com/flash" ffdec:objectType="shape" width="75.6" height="42.75"><g fill-rule="evenodd"><path fill="#999" d="M46.5 1.35h29.1v41.2H0V1.35h25.4l-.05.1v.05l-.05.05v.1l-.05.05v.9l-.05.1v.1l-.05.1v2l-.05.1v.55l-.05.1v1.9L25 7.6v.45l-.1-.15-.2 2.25-.45-.25L15 5l-3.6-1.55-.2.05.05.15 3.5 3.15 1.4 1.1 2.4 2.25 2.25 1.95.35.35h-1.7l-.65.05h-2.05l.1.05h-.25l-.3.05h-1l-2.45-.05h-.5v.05h-4.4l-.1.05h-.1l-.1.05H7.6l-.1.05-.15.05-.1.1-.1.05-.05.05-.1.1-.1.1-.05.05-.05.1-.05.05-.05.05v.1l-.05.05-.05.05-.05.1-.05.05-.05.05-.05.1-.05.05v.05l-.05.1-.05.05v.15l-.05.05v.05l-.05.05v.2l-.05.1v.5l-.05.1v.2l-.05.05v.4l-.05.05V25l-.05.05v.8l.05.05v.25l-.05.1v1.5l.05.05v.15L6 28v.1l.05.05.05.05v.1l.05.05.05.05.05.05.05.1.05.05.1.05.05.1.1.05.1.05.1.1.2.05.1.05.1.1.15.05.15.05.15.1.1.05.2.05.15.05v.05h.25l.2.05.15.05h.2l.35.05h1.05l.3.05h1.85l1.3.05h3.2l1.1.05h.1l-.35.35-2.25 1.95-2.4 2.25-1.4 1.1-3.5 3.15-.05.15.2.05L12 37.3l9.25-4.9.45-.25.2 2.25.6 5.25q.1 1.05.45 1.65.45.7 1.05.8l.55.2 1.05-.2.6-.85-.1-.85-.3-.85-.2-.55-.1-4.25-.1-4.95q.1-5.85 1.95-9.7 1.55-3.3 4.35-5.05 3.25-1.9 6.55-1 1 .3 2.55 1.15 1.9 1.15 3 2.35 1.65 1.85 2.35 4.75.5 2.1.65 5.4l.1 2.8v1.3l-.4 7.7q-.2 1.5.25 2.25l1.1.7q.75.15 1.3-.25.65-.4.85-1.4l.15-1.85.25-3.15.3-2.25 7.1 3.75 3.6 1.55.2-.05-.05-.15-3.5-3.15-1.4-1.1-2.4-2.25L52 30.2l-.2-.25h1.3v-.05h.3l.2-.05h.25l.8-.05h3.45l1.35-.05h1.85l.3-.05h1.05l.35-.05h.2l.15-.05.2-.05h.25v-.05l.15-.05.2-.05.1-.05.15-.1.15-.05.15-.05.1-.1.1-.05.2-.05.1-.1.1-.05.1-.05.05-.1.1-.05.05-.05.05-.1.05-.05.05-.05.05-.05v-.1l.05-.05.05-.05V28l.05-.05v-.15l.05-.05v-1.5l-.05-.1v-.25l.05-.05v-.8l-.05-.05v-8.9l-.05-.05v-.4l-.05-.05v-.2l-.05-.1v-.5l-.05-.1v-.2l-.05-.05v-.05l-.05-.05v-.15l-.05-.05-.05-.1V14l-.05-.05-.05-.1-.05-.05-.05-.05-.05-.1-.05-.05-.05-.05v-.1l-.05-.05-.05-.05-.05-.1-.05-.05-.1-.1-.1-.1-.05-.05-.1-.05-.1-.1-.15-.05-.1-.05h-.05l-.1-.05h-.1l-.1-.05h-4.4v-.05h-.5l-2.45.05h-1l-.3-.05h-.35l.1-.05H53.1l-.65-.05h-1.8l.35-.35 2.25-1.95 2.4-2.25 1.4-1.1 3.5-3.15.05-.15-.2-.05Q58.35 4.2 56.8 5l-9.25 4.9-.45.25-.2-2.25v-.3l-.05-.05v-1.9l-.05-.1V5l-.05-.1v-2l-.05-.1v-.1l-.05-.1v-.9l-.05-.05v-.1l-.05-.05v-.05zm-3.4 9.5.15-.05.15-.05h.1l.15-.05.1-.05v.1l-.05.05v.8l-1-.6.1-.05h.05l.1-.05zm7.8 15.95-.05.05v-.3zM23.75 16.25l.05-.3h.85q-.95 1.6-1.6 3.4l.3-1.55zm-2.65 10.6-.1-.05.45-1.55.45-1.55-.3 2.7-.05.95-.05-.05-.05-.1-.05-.05-.05-.05-.05-.05-.05-.1-.1-.05zm7.7-16 .15.05.1.05h.05l.1.05h.1v.05h.05l-1.15.8V10.8l-.05-.05v-.1l.1.05.15.05h.1l.15.05z"/><path fill="#fff" d="M25.4 1.35V1.3l.05-.05.05-.1.1-.05.05-.05.05-.1.05-.05.15-.05.1-.1h.15L26.2.7h.3V.65h.05l.2.05h.1l.15.05.15.05.05.1.1.05V.9l.15-.05.15-.05.15-.05.05-.05.05-.1.05-.05.05-.05.1-.1.05-.05.1-.05.1-.1.15-.05.2-.05.15-.05.1-.05H43l.1.05.15.05.2.05.15.05.1.1.1.05.05.05.1.1.05.05.05.05.05.1.05.05.15.05.15.05.15.05v.05l.1-.05.05-.1.15-.05.15-.05h.1l.2-.05h.05V.7h.3l.05.05h.15l.1.1.15.05.05.05.05.1.05.05.1.05.05.1.05.05v.05l.05.1v.05l.05.05v.1l.05.05v.9l.05.1v.1l.05.1v2l.05.1v.55l.05.1v1.9l.05.05v.3l.2 2.25.45-.25L56.8 5q1.55-.8 3.6-1.55l.2.05-.05.15-3.5 3.15-1.4 1.1-2.4 2.25L51 12.1l-.35.35h1.8l.65.05h1.95l-.1.05h.35l.3.05h1l2.45-.05h.5v.05h4.4l.1.05h.1l.1.05h.05l.1.05.15.05.1.1.1.05.05.05.1.1.1.1.05.05.05.1.05.05.05.05v.1l.05.05.05.05.05.1.05.05.05.05.05.1.05.05v.05l.05.1.05.05v.15l.05.05v.05l.05.05v.2l.05.1v.5l.05.1v.2l.05.05v.4l.05.05V25l.05.05v.8l-.05.05v.25l.05.1v1.5l-.05.05v.15l-.05.05v.1l-.05.05-.05.05v.1l-.05.05-.05.05-.05.05-.05.1-.05.05-.1.05-.05.1-.1.05-.1.05-.1.1-.2.05-.1.05-.1.1-.15.05-.15.05-.15.1-.1.05-.2.05-.15.05v.05h-.25l-.2.05-.15.05H63l-.35.05H61.6l-.3.05h-1.85l-1.35.05h-3.45l-.8.05h-.25l-.2.05h-.3v.05h-1.3l.2.25 2.25 1.95 2.4 2.25 1.4 1.1 3.5 3.15.05.15-.2.05-3.6-1.55-7.1-3.75-.3 2.25-.25 3.15L50 40.8q-.2 1-.85 1.4-.55.4-1.3.25l-1.1-.7q-.45-.75-.25-2.25l.4-7.7v-1.3l-.1-2.8q-.15-3.3-.65-5.4-.7-2.9-2.35-4.75-1.1-1.2-3-2.35-1.55-.85-2.55-1.15-3.3-.9-6.55 1-2.8 1.75-4.35 5.05-1.85 3.85-1.95 9.7l.1 4.95.1 4.25.2.55.3.85.1.85-.6.85-1.05.2-.55-.2q-.6-.1-1.05-.8-.35-.6-.45-1.65l-.6-5.25-.2-2.25-.45.25L12 37.3l-3.6 1.55-.2-.05.05-.15 3.5-3.15 1.4-1.1 2.4-2.25 2.25-1.95.35-.35h-.1l-1.1-.05h-3.2l-1.3-.05H10.6l-.3-.05H9.25l-.35-.05h-.2l-.15-.05-.2-.05H8.1v-.05l-.15-.05-.2-.05-.1-.05-.15-.1-.15-.05-.15-.05-.1-.1L7 29l-.2-.05-.1-.1-.1-.05-.1-.05-.05-.1-.1-.05-.05-.05-.05-.1-.05-.05-.05-.05-.05-.05v-.1l-.05-.05L6 28.1V28l-.05-.05v-.15l-.05-.05v-1.5l.05-.1v-.25l-.05-.05v-.8l.05-.05v-8.9l.05-.05v-.4l.05-.05v-.2l.05-.1v-.5l.05-.1v-.2l.05-.05v-.05l.05-.05v-.15l.05-.05.05-.1V14l.05-.05.05-.1.05-.05.05-.05.05-.1.05-.05.05-.05v-.1l.05-.05.05-.05.05-.1.05-.05.1-.1.1-.1.05-.05.1-.05.1-.1.15-.05.1-.05h.05l.1-.05h.1l.1-.05h4.4v-.05h.5l2.45.05h1l.3-.05h.25l-.1-.05h2.05l.65-.05h1.7l-.35-.35-2.25-1.95-2.4-2.25-1.4-1.1-3.5-3.15-.05-.15.2-.05L15 5l9.25 4.9.45.25.2-2.25.1.15V7.6l.05-.05v-1.9l.05-.1V5l.05-.1v-2l.05-.1v-.1l.05-.1v-.9l.05-.05v-.1l.05-.05v-.05zm17.7 9.5-.15.05-.1.05h-.05l-.1.05 1 .6v-.8l.05-.05v-.1l-.1.05-.15.05h-.1l-.15.05zm7.8 15.95-.05-.25v.3zM28.8 10.85l-.15-.05-.15-.05h-.1l-.15-.05-.1-.05v.1l.05.05v1.05l1.15-.8h-.05V11h-.1l-.1-.05h-.05l-.1-.05zm-7.7 16 .05.05.1.05.05.1.05.05.05.05.05.05.05.1.05.05.05-.95.3-2.7-.45 1.55L21 26.8zm2.65-10.6-.4 1.55-.3 1.55q.65-1.8 1.6-3.4h-.85z"/><path d="M20.35 18.85q1.05-3.6 3.2-6.4 2.3-3 5.4-4.45 1.8-.85 4-1.25l3.4-.25 3 .25q2.2.4 4 1.25 3.1 1.45 5.4 4.45 2.15 2.8 3.2 6.4 1.6 5.4.95 14.15-.35 5.25-1.1 9.75h-4.75l.05-.6q.85-5.5 1.15-10.65.45-7.65-1.05-12-1.05-3-3.15-5.15-2.25-2.35-5.1-3.05l-2.6-.3h-.4l-2.6.3q-2.85.7-5.1 3.05-2.1 2.15-3.15 5.15-1.5 4.35-1.05 12 .3 5.15 1.15 10.65l.1.6h-4.8q-.45-2.65-.75-5.6v-.1l-.05-.45v-.2l.05-.05q-.45-13.9.6-17.5M40.2 17.4q.95-1.4 2.55-1.25 1.65.1 2.4 1.6.5.95.2 2.1l-.2.55-.25.4q-.7 1-2 1.15-1.25.15-2.2-.65-1-.9-1-2.1 0-.85.25-1.35zm.65 10.25-.55 1.45-.55.85-.8.65-1.35.8-3.3.3q-1.7-.45-2.85-1.75l-.7-1.05q-.15-.35-.15-.85-.3-2.2.65-4 1.05-1.95 3.15-2.5l1.6-.1q1.8.1 2.8.85l1.4 1.8.55 1.15.15 1.2zM38.1 13.9q.95 1.35.4 2.9-.7 1.6-2.25 1.85h-.8q-1.2-.05-2.05-1.15t-.55-2.5q.4-1.65 2.05-2.15t2.9.75zm-10.3 8.25q-.95-.45-1.25-1.35-.4-.9-.05-1.9l.1-.25.45-.65.55-.45q.7-.4 1.55-.35.8.05 1.45.55t.9 1.3q.25.75 0 1.55l-.9 1.25q-.65.55-1.45.6z"/></g></svg>