<svg xmlns="http://www.w3.org/2000/svg" xmlns:ffdec="https://www.free-decompiler.com/flash" ffdec:objectType="shape" width="74.35" height="41.65"><g fill-rule="evenodd"><path fill="#999" d="M24.6 8q.75.4.65 1.3-.1.85-.9 1.15h-1.6l-3.95.6-1.15.4.6.9.1 1.35-.3.65 4-.55 1.7.05 1.5.15q.8.1 1.25.7l.05 1.2-.85.85-1.1.15-3.55-.3-2.45-.3v.45q.1 1.15-.85 1.6l-1.15.15-1-.6-.75-.8-.25-.45-.1-.4q-.85.2-1.3-.5-.55-.65-.15-1.55.5-.65 1.25-.8l-.4-.05-1.2.55-.45.2q-.45.4-1 .4-1.1.1-1.55-1.1-.35-1 .2-2.05l.85-.8-.15-.5L9.05 7.4 8.2 5.35l-1.6-2.5-.2-.6q-.15-.4-.15-.95Q6.4.2 7.4.05q1.1-.2 1.5.75l.25 1 .95 2.75.65 3.1.15.3.55 2.2 1.55-.2-.15-.5.05-.6.45-1.9 1.05-1.8 1.05-.9.55-.4q.95-.3 1.6.35t.2 1.55l-.45.6-.95.85-.45.4-.3.6-.65.55-1.1 1.35q.85.3 1.2 1.05Q16.95 10 18 9.6l2.5-1.1q1.3-.6 2.8-.75zm32.2 8.65-1.4.85q-2.5 1.4-4.1 1.7l-3.2.35h-1.6q-1.25-.3-1.25-1.65.15-1.25 1.3-1.65h1.35l3.2.25 2.15-.1-.55-.55-.35-.55-.05-.8h-1.2l-1.9.25-1.75.45q-1.3.55-1.9.5-.7-.2-1.05-.65-.35-.55-.25-1.25.2-.8.95-1.15l1.55-.5h1.7l.8.15.75.15.65.35 1.3.3.5.25.15.05.1-.25.3-.4-.3-.3-.1-.65q.1-.4.5-.7h.05l-.05-.1q-.05-.3.2-.7.3-.3.65-.3l.1-.05q.4 0 .7.3l.25.35.75-.3h.7l1.5.4L62.2 6l1.25-1.5.9-1.3.95-1.3q.7-.7 1.35-.75.8-.1 1.25.6.6.65.2 1.45l-.8.95-6.65 5.45-1.3 1.4-.25.4.35.55q.3.5.2.95l-.35.85-.4.45-.45.05-.15.45-.6.75v.05l-.15.55zm7.3-8.05q.15-.75.85-1.05l.45-.15h.1q1.05 0 1.35.95.45.95-.4 1.6l-1.65.1q-.85-.45-.7-1.45m-8.35-3.3q-.55-.5-.4-1.25.1-.8.8-1.1.75-.35 1.7.3.6.45 1 1.4.8 2-.05 4.1l-.25.3q-.35.15-.45-.45l-.9-2.3q-.15-.2-.7-.5zM40 34.25l1.15-.1q.65.35.65.95.05.6-.45 1.1-.35.45-1 .6-1.45.65-3.35.65-.5 0-.55-.25-.15-.15.1-.4l.4-.25 2.1-1.55zm-19.65-20.9-.3-.05-.35-.25-.25-.35v-.65l.25-.25q.3-.3.45-.2h.05l.05-.1.65.3.2.25q.35.75-.4 1.15zm-.25 4.5v-.25l.1-.1.55-.2v-.05l.35.1.15.3.15.05-.05.45-.25.35-.65.05-.3-.3-.05-.15zm-10.9 2.4q-.95.1-1.55-.3-.85-.55-.85-1.35 0-.5.4-1.05l.85-.9 1.15-.25q.65.15.95.8l.1.4.35.5q.3.4.25.9l-.45.85z"/><path d="M19.8 18.45q0-3.95 1.25-6.4.5-1.1 2.1-2.95l-.05-.8.35-2.15q.2-1.2.8-2.65L25 1.35l.9-.95 1.2-.2.8.35 1.45 1.15.5.75.8.75.75.75.4-.05 6.15.35 3.55.3q1.3.3 2.9 1.35l.4.25 5.95-1.5q1.35-.35 2.05 0l.25.15h.3q1.2.3 1.35 1.5.05 1.05-1.25 2.45L50 13.3l.05.25q.45 1.9.25 4-.5 5.8-5.45 9.7l-2.55 1.7 2.5-.15q3.45-.6 7.85-3.6 1.35-1 1.4-1.8l-.55-1.75q-.4-1.25 0-2.5.45-1.3 1.5-2.15.65-.5 1.45-.7-.45-.6-.55-1.1-.05-.8 1-1.4l-.1-.15-.45-1-.15-.2-.45-.65q0-.4.35-.75l.05-.05q.65-.6 1.8-.7l1.55-.2q1.75 0 2.5.55l1 1.05.1.05.45.35q.8-.45 1.8-.3l.75.35.55 1.05q.3.65.7.6l1.45-1.35 1.15-.7q1.4-.6 3.05.25l.85.7q.7.85.4 1.85l-.4.75-1 .75-.25.4.25.4.45 1.15q-1.5-.1-2-.8-.4-.6-.1-1.35.1-.55.8-1.1l.3-.35q.05-.35-.4-.6l-1.25-.05q-.55.25-1.4 1l-.9.8-1.05.35-1-.1-.9-.55q-.5-.55-.85-1.4l-.25.05-.05.45-.1.9-.7 1.5-1.3 1.35-.4.2q.55.95.75 2.35.15 2.6-1.15 4.85-1 1.8-3.3 3.85-3.55 2.85-8.4 3.75l-7.25.35.05.2 1.25 3.85.85 2.05.65-.75 1.9-2.1q1.05-.75 3.1-1.6 3.1-1 4.95-1 2.05 0 2.9 1.15.5.75.7 2.65.25 1.05 1.2 1.65l2 .2q.8-.35 1.7-2.2 1-2.05 2.45-3.15.95-.7 2-.85 1.15-.25 2.05.35 1.45.9 1.35 3-.2 2.6-2.55 4.75H54.5l-.5-1.1-.85-1.1-2.6-.15q-1.7.75-2.5 2.35H22.5q.8-5.1 2-7.35l.95-1.55-4.25.6q-3.8.25-5.95-.8-1.05-.5-3.1-2.2l-2.2-2.15q-1.2-1.5-1.75-3.45-.5-1.95-.2-3.85.25-2 1.4-3.4l-.7-.9-.2-.15-.35.1-.75.1-1.6-.1-.4.6-.7.55-1.65.15q-1.1-.35-1.25-1.25-.2-.5.1-1.15.3-1.05 1-1.6l.5-.2V13l.2-.9.4-.7.45-.5q-.6-.95-.05-2.3.35-.75.95-1l.9-.1q1.15.1 1.5.45L8.2 9.2l.05.55.5.15q.7.2 1.3 1l.55 1.25.05.25.9-.3 2-.35 1.15-.1q.7 0 1 .55.2.7-.25 1l-.35.5-.25.35.75.3q.65.25.75.5v.85l-.75.45.45.6q.6.85.6 1.9l-.1 1.3-.45 1.75q-.65 2.35-.2 3.2l.8 1q1.4 1.4 2.65 2 1.7.7 4.05.55l1.75-.15q-4.1-2.85-5-6.15-.45-1.5-.35-3.7M33.9 13q-2.05.75-4.05.55L29 13.3l-.3-.25q-.35-.2-.6.15-.2.25-.1.65.1.75 1 1.3l.7.25.1.2.2.6.5 1.05.5.55.7.05.35-.4.45-1.05.4-.55.15-.4q1.7-.35 2.95-1.3l1.05 1.1.65.55.35.15-.1.95.1.4q-.2.5.1.85.25.3.7.3l.7-.45.85-1 .35-.5h.35l1.25-.25q.75-.35.65-1-.15-.7-1-.8l-1.35-.05q-1.9 0-3.05-1.55-.75-1.1-1.25-1.15-.4-.05-1.55.8zm11.8-4.3L42 8.2l-.95.1-.6.1q-.75.3-.85 1.2-.15.85.65 1.35l2.4 1.05.5.3 1 1.05.9.5.65.7.6-.05.3-.6-.1-.4-1.25-2.45-.7-.8.85.1 1.1-.1q.4-.45.05-.95-.3-.4-.85-.6m-9.1 32.1q-.1.4.55.7l2.5-.2 2.45-.75q1-.35 1.3-.95.25-.65-.2-1.1-.4-.5-1.05-.35l-1.2.8-1.15.55-2.75.95q-.4.1-.45.35m4.55-5.55q-.5-.2-1.4.25l-3.55 2.05-.7.45-.1.15.25.2 4.65-.65 1.3-1.05.05-.8q-.15-.45-.5-.6M31.1 10.05l.9.05 1.15.05.9-.2.45-.4.25.05q.75.15 1.45-.3l.85-1.25q.55-1.05.35-1.9l-.2-.6-.65-.2-.35.45-.6.85-.5.75-.5-.45-1-.65-1.7-.3-1.2-.05-1.2.2q-.85.1-.8.8 0 .35.8.65l.85.25L27.9 8.9q-1.5.65-1.9 1.45l-.1.35.1.6q.2.3.55.3l.65-.35.9-.5zm-8.2 6.85q-.05.45.2 1.3l.15.65-.95.5q-.95.65-1.2 1.15-.35.75.1 1.25.55.65 1.25.35l1-.9.35-.35v.05q.3 1.05.7 1.25l.95.1.5-.8-.35-1.1-.3-.6.9-.5 1-.8q.35-.85-.25-1.2-.35-.25-1.3.2l-1.2.7-.45-.8-.45-.55-.35-.05q-.25 0-.3.15M6.5 11.05l-.65.35-.25.1-.2.25q.2.3.6.3l.75-.1h.1l.2.25.4.15.3-.5v-.25l.5-.3.2-.25q.25-.35-.1-.6l-.7-.05-.25.2v-.35q-.1-.45-.55-.45-.35 0-.45.35l.1.5zM4.8 13.8l.2.4-.6.55-.3.15-.05.4.25.25.6-.15.55-.25.15.15.25.2.25-.25.05-.45.15-.05q.4-.2.4-.75l-.05-.3q-.15-.25-.3-.15l-.6.15-.15-.2q-.2-.3-.5-.3-.4-.1-.4.25zm24.7 6.25q-.25.9.45 1.4.55.6 1.4.3l.7-.35 1.9-.15 2.5.45 1.95.8.65-.1q.3-.3.2-.6l-.25-.55q-.4-.55-1.75-1.2l-1.75-.65-2.6-.35-1.15-.05-1.3.2q-.75.35-.95.85"/><path fill="#999" d="m68.35 20.6 1 1.5.4.9.15.5.15.1.2.7.2.75q.1 1.15-.9 1.65-.85.55-1.85 0-.7-.55-1.05-1.85l-.3-1.25-1.1-2.35-.55-1-.65-.9q-.25-.65.25-.9l.5-.1q.85.1 2 1zm-5.3 4.85.25-.6-.2-.45q0-.6.6-.7.25 0 .4.15l.3.35.9 1.85.05.05.15.8q.45.8.5 1.55v.65q-.15 1.4-.5 2.25l-.5.5-1.7.1q-.9-.45-.9-1.45l.1-.7.25-1.5.25-.35-.1-.55.1-.5zm-21.9 9.8q.35.15.5.6l-.05.8-1.3 1.05-4.65.65-.25-.2.1-.15.7-.45 3.55-2.05q.9-.45 1.4-.25M36.6 40.8q.05-.25.45-.35l2.75-.95 1.15-.55 1.2-.8q.65-.15 1.05.35.45.45.2 1.1-.3.6-1.3.95l-2.45.75-2.5.2q-.65-.3-.55-.7M22.9 16.9q.05-.15.3-.15l.35.05.45.55.45.8 1.2-.7q.95-.45 1.3-.2.6.35.25 1.2l-1 .8-.9.5.3.6.35 1.1-.5.8-.95-.1q-.4-.2-.7-1.25v-.05l-.35.35-1 .9q-.7.3-1.25-.35-.45-.5-.1-1.25.25-.5 1.2-1.15l.95-.5-.15-.65q-.25-.85-.2-1.3M6.6 22.5l-.45.6-1.1.7-.6.5-1.05 1.15-1.15 1.75-.3.7q-.1 1.6-1.3 2.1l-.65.15v-4.8l.5-.5 1.2-.7 3.75-1.85.65-.15q.4 0 .5.35M6 29.8l.1.55v.55l.35.75.15 1 .35.9v.75Q6.7 35.7 5.5 36q-1.05.3-1.8-.6-.7-.8-.5-1.85l.15-.85-.05-.8.4-1.65.25-.35.8-1.5 1.4-1.55q.5-.1.6.3l-.1.7-.5 1.15z"/><path fill="#fff" d="M45.7 8.7q.55.2.85.6.35.5-.05.95l-1.1.1-.85-.1.7.8 1.25 2.45.1.4-.3.6-.6.05-.65-.7-.9-.5-1-1.05-.5-.3-2.4-1.05q-.8-.5-.65-1.35.1-.9.85-1.2l.6-.1.95-.1zM33.9 13l.9-.5q1.15-.85 1.55-.8.5.05 1.25 1.15 1.15 1.55 3.05 1.55l1.35.05q.85.1 1 .8.1.65-.65 1l-1.25.25h-.35l-.35.5-.85 1-.7.45q-.45 0-.7-.3-.3-.35-.1-.85l-.1-.4.1-.95-.35-.15-.65-.55-1.05-1.1q-1.25.95-2.95 1.3l-.15.4-.4.55-.45 1.05-.35.4-.7-.05-.5-.55-.5-1.05-.2-.6-.1-.2-.7-.25q-.9-.55-1-1.3-.1-.4.1-.65.25-.35.6-.15l.3.25.85.25q2 .2 4.05-.55m-2.8-2.95-3 .7-.9.5-.65.35q-.35 0-.55-.3l-.1-.6.1-.35q.4-.8 1.9-1.45l2.45-1.05-.85-.25q-.8-.3-.8-.65-.05-.7.8-.8l1.2-.2 1.2.05 1.7.3 1 .65.5.45.5-.75.6-.85.35-.45.65.2.2.6q.2.85-.35 1.9L36.2 9.3q-.7.45-1.45.3l-.25-.05-.45.4-.9.2L32 10.1zm-1.6 10q.2-.5.95-.85l1.3-.2 1.15.05 2.6.35 1.75.65q1.35.65 1.75 1.2l.25.55q.1.3-.2.6l-.65.1-1.95-.8-2.5-.45-1.9.15-.7.35q-.85.3-1.4-.3-.7-.5-.45-1.4M4.8 13.8l-.1-.35q0-.35.4-.25.3 0 .5.3l.15.2.6-.15q.15-.1.3.15l.05.3q0 .55-.4.75l-.15.05-.05.45-.25.25-.25-.2-.15-.15-.55.25-.6.15-.25-.25.05-.4.3-.15.6-.55zm1.7-2.75v-.4l-.1-.5q.1-.35.45-.35.45 0 .55.45v.35l.25-.2.7.05q.35.25.1.6l-.2.25-.5.3v.25l-.3.5-.4-.15-.2-.25h-.1l-.75.1q-.4 0-.6-.3l.2-.25.25-.1z"/></g></svg>