<svg xmlns="http://www.w3.org/2000/svg" xmlns:ffdec="https://www.free-decompiler.com/flash" ffdec:objectType="shape" width="76.15" height="37.9"><g fill-rule="evenodd"><path fill="#999" d="M70.65 21.6q-3 1.05-7.7 1.05-7.15.1-10.85-2.8l-1.7-1.8-.8-.05-.75-.15-.95-.1-.9.05-.45-.15q-.6-.35-.5-.95l.1-.55.3-.3.7-.55 1.45-1.1-.05-.3q-.65-3.65 1.2-6.8 2.7-4.7 9.85-6.25Q66.95-.75 72.8 2q2.05 1 3.35 2.3v13.65q-1.95 2.4-5.5 3.65m-16.25-4q2.2 1.6 6.25 1.95l5.8-.15q2.75-.35 4.45-1.15 2.3-1.05 3.5-2.9l.95-2.25q.6-2.05.3-3.8-.3-2.05-1.75-3.35l-2.1-1.3-2.65-1.1q-3.55-1.1-9.05.4-4.55 1.25-6.5 3.35-.85 1-1.5 2.35-.65 1.45-.7 2.55 0 1.35.65 2.65.8 1.6 2.35 2.75m2.3 15.8q-.6-1.1 0-2.15-.25-.4-.2-.9.15-.8.95-.95.75-.1 1.15.5l.05.1 1.05.15.55.35.8-.15.7.35q.45.4.55.95.1.6-.2 1.1-.35.5-.9.65l-.4.1-.3.4-.8.6v.4q0 .85-.4 1.3l-.8.45-1-.15-.55-.55q-.2-.4-.1-1.05l.3-.9zm3.95-.95-.05-.25-.2-.2-.6-.2q-.35.1-.55.3l-.1.4.05.35.5.45.75-.2q.3-.25.2-.65m-2.4-.6.1-.35-.15-.4q-.2-.4-.65-.2l-.15.05-.2.35-.05.2.05.25.25.25.15.05q.45.1.65-.2m12.05 1.5q.15-.65.65-1l-.05-.1.2-.55q.25-.25.5-.25l.1-.05.45.15.25.25.05.25q.45.05.8.4h.1q.55 0 .85.4l.15.95-.7.7-.25.4q-.4.5-1.05.6l-.25.05-.05.35q-.15.8-.95.95-.75.15-1.2-.5-.4-.65 0-1.35l.45-.65q-.2-.5-.05-1m-3.1.45-.5.2-.6.15-.1 1.05-.35.95q-.45.7-1.3.6-.85-.15-1.15-.95l-.1-.65.35-1.05.3-.6-.55-.75q-.3-.65-.2-1.35l.05-.35.1-.95.15-.25q-.3-.5-.2-1.1.1-.55.6-1 .45-.4 1.05-.5 1.1-.1 1.75.85l.2.55h.2l.75.5 1.3-.25q.65.1 1.15.6t.55 1.15q.1.7-.3 1.4-.45.65-1.15.9l-1.1.1zm6.1.25-.1-.1-.05-.15-.15-.05v.05q-.25 0-.35.15v.15l.05.25.35.1.1-.1.1-.05.05-.1zm-2-1.25-.1.05-.15.25.15.2.1.05.1-.05.15-.1.05-.15v-.1zm-4.5-1.25.05.25.2.15h.4l.25-.35v-.15l-.05-.05v-.1l-.3-.25-.35.1zm-1.3-.7.1-.1.05-.15.05-.4q-.05-.45-.65-.55-.45-.1-.7.25l-.15.45.05.25.1.2.25.2.35.1zm-44-13.25q1.55-1.15 2.35-2.75.65-1.3.65-2.65-.05-1.1-.7-2.55-.65-1.35-1.5-2.35-1.95-2.1-6.5-3.35-5.5-1.5-9.05-.4-.75.2-2.65 1.1L2 5.95Q.55 7.25.25 9.3q-.3 1.75.3 3.8l.95 2.25q1.2 1.85 3.5 2.9 1.7.8 4.45 1.15l5.8.15q4.05-.35 6.25-1.95m-16.25 4Q1.9 20.45 0 18.25V4.1Q1.25 2.95 3.1 2 8.95-.75 16.3.85q7.15 1.55 9.85 6.25 1.85 3.15 1.2 6.8l-.05.3 1.45 1.1.7.55.3.3.1.55q.1.6-.5.95l-.45.15-.9-.05-.95.1-.75.15-.8.05-1.7 1.8q-3.7 2.9-10.85 2.8-4.7 0-7.7-1.05M15.6 31.8l-.45.3.25.65.25.8.2-.2.9-.25 1.3.05.8.7.1-.25.1-.25-.6-.6q-.45-.7-.35-1.85l.05-.4-.2-.55v-.6q.1-.75.45-1.05.55-.5 1.4 0l.45-.4 1.85-.25 1.25.5.3-.15.85-.1q.4.05.75.4.25.3.15.75-.05.4-.45.6l-.2.1.1.6.05 1.3-.35 1-.45.65-.85.85.2.75q.15.95-.55 1.6-.75.7-1.7.25l-.5-.4q-.55.55-1.45.3l-.1-.05-.6.15q-.55-.05-.95-.4-.65-.65-.65-1.9-.6-.1-.95.4l.05.6q-.1.85-.85 1.3l-.65.2-2.3.05-.7-.7-1-.1q-.95-.3-1.25-.85-.25-.4-.25-.9-.15-1 .1-2.15l.25-.55.5-.15q.3.05.4.3l.05.9q0 .95 1 1.4v-.1l.2-1.35.15-.4-.35-.1-.8-.4q-.8-.5-1.15-1.5-.35-.95-.1-1.9l.1-.2-.55-1.1q-.25-1.1.45-1.75.45-.35 1.25-.25l.95.5q.7-.4 1.6-.45l1.3.1.85-.75.85-.15.8.45q.5.5.5 1.4l-.3 1.5.1.6q.15 1.25-.45 2.25l-.45.65zm3.85-2.2v.05l-.3.05-.2.2q-.3.5.1.8l.4.2.4-.15.2-.2.05-.25-.05-.35-.25-.25zm-9.5-1.8q-.35.6.05 1.05.35.6.95.4l.75-.55q.15-.5-.1-.95l-.35-.3-.8-.05q-.35.1-.5.4m5.05-.65-.15.15-.1.25v.2l.25.45.5.15.3-.15.15-.1.1-.45-.05-.3-.3-.25-.3-.1q-.25 0-.4.15M2.9 34.4l-.3-.35-.5-.7q-.3-.7-.2-1.5v-.05l-.15-.2q-.35-.4-.35-1.05 0-.6.25-.9.35-.45.85-.3l.45.2.2-.2q1-.8 2.15-.75l.3-.35.7-.45.8.05.4.5.4.9.05.75.05.2.05.15.1.45q.3 1.35-.35 2.6l.7 1.2q.35.9 0 1.65-.4.9-1.4 1L6 37l-.1.05-1.8.1-.3-.25-.35.15-.65-.1q-.7-.3-.6-1.15.05-.5.75-1.35zm21.05-3.3.35-.2q.35-.4.15-.85-.25-.5-.75-.5l-.05.05q-.3 0-.5.25-.25.2-.2.5v.2q.1.5.65.6zM7.3 30.25l-.1-.15-.2-.15-.4-.15-.1.05q-.25 0-.55.3l-.1.4L6 31q.35.4.9.25l.3-.25.1-.15.05-.2zm-3.9 1.9.2-.2v-.6l-.5-.3q-.4 0-.6.45l-.1.25.1.15.25.3.4.05z"/><path fill="#fff" d="M58.25 31.85q-.2.3-.65.2l-.15-.05-.25-.25-.05-.25.05-.2.2-.35.15-.05q.45-.2.65.2l.15.4zm2.4.6q.1.4-.2.65l-.75.2-.5-.45-.05-.35.1-.4q.2-.2.55-.3l.6.2.2.2zm4.85-1.6-.55.25-.35-.1-.25-.2-.1-.2-.05-.25.15-.45q.25-.35.7-.25.6.1.65.55l-.05.4-.05.15zm1.3.7.2-.4.35-.1.3.25v.1l.05.05v.15l-.25.35h-.4l-.2-.15zm4.5 1.25.3.15v.1l-.05.15-.15.1-.1.05-.1-.05-.15-.2.15-.25zm2 1.25v.15l-.05.1-.1.05-.1.1-.35-.1-.05-.25v-.15q.1-.15.35-.15v-.05l.15.05.05.15zM15 27.15q.15-.15.4-.15l.3.1.3.25.05.3-.1.45-.15.1-.3.15-.5-.15-.25-.45v-.2l.1-.25zm-5.05.65q.15-.3.5-.4l.8.05.35.3q.25.45.1.95l-.75.55q-.6.2-.95-.4-.4-.45-.05-1.05m9.5 1.8.35.1.25.25.05.35-.05.25-.2.2-.4.15-.4-.2q-.4-.3-.1-.8l.2-.2.3-.05zM3.4 32.15l-.25.1-.4-.05-.25-.3-.1-.15.1-.25q.2-.45.6-.45l.5.3v.6zm3.9-1.9.05.4-.05.2-.1.15-.3.25q-.55.15-.9-.25l-.15-.45.1-.4q.3-.3.55-.3l.1-.05.4.15.2.15zm16.65.85-.35.05q-.55-.1-.65-.6v-.2q-.05-.3.2-.5.2-.25.5-.25l.05-.05q.5 0 .75.5.2.45-.15.85z"/><path d="m73.25 1.35.25.55-.05 1.2-.15.4-.25.3-.45.4-.3.2-.35-.15.05-.4.2-.45.2-1.1-.25-.65q0-.35.25-.5l.55-.05zm-2.6 2.8h-.5l-.35-.3v-.4l.15-.45.05-.65-.1-.5-.4-.75q.1-.25.35-.35l.55.05q.65.2 1 1.1.25.7 0 1.5l-.25.5zM66.1 9.1l.05 2.4q0 1.4-.45 2.3l-1.05 1.5-2.45 2.75-1 .75q-.5.25-1.05 0-.6-.3-.75-.85-.1-.3-.05-1l-.05-3.5q-.15-1.1.25-1.7l.55-.6 1.05-1.45 1.45-2.1-.15-.05-.95-.65q-.6-.7-.3-1.5.3-.9 1.1-1.05l1.35.2h.15l-.05-.7q.1-.55.45-.9.45-.35.95-.4l.95.2.6.75q.35.85-.2 1.55l-.25.25.5.25.5.15q.45.25.65.9.15.6-.1 1l-.7.8-.45.15-.45-.1zm4.8 7.35-.85.55-.75.1-.65-.05-.55-.45-.2-.25-.1-.3q-.15-.5.2-1.1l.85-.7L70 14l.1-2.8.1-.5q.1-.35.4-.25h.1v-.05l.35.1h.2l.8.1h.7l.5.35.05.65-.7.5-.8.2-.45.2v.45l.1 1.65.05.75-.4.6zm-15.3-7.3-.35.9-.75.65-.6.35-1.05-.15-.65-.55q-.15-.2-.15-.7.15-1.05 1.2-1.4l-.2-1.05L53 6.15q-.2-.8-.05-1.2l.55-.45.75-.2 3.4-.25.65.1q.6.25.7.95l-.1 1.25-.3 1.95V9l-.35.9q.2.35 0 .85-.35.65-1.1.75t-1.2-.6q-.3-.35-.2-.85.1-.55.5-.75l.7-.25v-.5l-1.45.1zm-.5-2.1.05.15 1.4.1.5.1.05-1.25-2.2.05v.25zm-18.05-5.7q3.5-.25 6.2 1.1l.95.5.55-.1 1.7-.2q1.05.1 1.6.6l.4.55q.3.65.2 1.45l-.05.4-.55 2.65v.05l.2 1.7q.15 2.95-.85 5.1-1.2 2.7-3.7 4l-1.7.75.3.65 1.55.05 2.3-.75 2.75-1.35q-.4-1.9-.25-2.65.25-1.15 1.3-1.8 1-.65 2.15-.35.8.2 1.15.6.55.55.55 1.65l-.35 1.75-.5 1.3q-.7 1.35-2.2 2.35l-2.95 1.5q-2.45 1.05-4.05 1.1h-.35l.65 2.8.5 3.05.15 1.25.6 2.25.1.35 2.05-.5 2.1-.75L51 31.3q.65-.9.35-1.7l-.55-.75-.9-.15q.25 1-.4 1.7-.75.75-1.7.6l-1.2-.8q-.45-.6-.5-1.35 0-1.5 1.4-2.55 1.2-.9 2.8-.8 1.65.1 2.8 1.1 1.1.95 1.5 2.55.35 1.55-.2 3-.9 2.15-3.2 3.4-1.75 1-4.45 1.5l-8.1.6h-.75l-3.2-.1-1.55.1-.9.25-1.2-.25q-.6-.35-.85-.9-.3-.6-.3-1.95l.15-1.6 2.35-5.85-1 .65q-1.85 1-4.3 1.35l-2.75-.15q-1.45-.5-2.05-1.75-.25-.75-.25-1.5 0-.9.3-1.45.6-1.35 2.45-1.45 1.8-.2 2.6 1.15l.45.6.7.05 1.3-.35 1.2-.85 2.7-2.35.7-.55-2.7-.95q-2.45-1.4-3.55-4.4-.7-2-.55-4.15l-.2-.2-.45-.55-.35-.95-.5-1.25Q26 7.85 26 6.95l.2-1.15q.2-.35.9-.75 1.65-.8 3.65-.8.95-1 1.65-1.5 1.85-1.25 4.65-1.4M33.9 5.9l-.55.1-1.5.5-1.1.7q-.3.3-.2.45l.55.05 1.2-.3h.65l.55.2.7-.1.45-.55-.15-.7q-.25-.35-.6-.35m-.85 4.6q.5 1.3 1.7 1.4l-.1 1.4v.75l.15.75 1.05 1.35.3.3.5.3 1.75.35.75-.4.45-.4.3-.45.35-.65.05-.35-.05-2.45-.1-.55.25-.3.1-.05q1.05-.35 1.2-1.35.1-.5-.2-1.5l-.2-.1-.25.15-.1.55-.6.75-.95.2-.4-.1-.8-.6q-.2-.2-.55-.25-.45.1-.6.45l-.1.55-.2.25-1.05.25-1.3-.4-.1-.05v-.75q-.2-.4-.6-.4-.5 0-.65.5-.15.45 0 .85m10.8-4.55-.2-.4-.65-.2h-.75l-1.3.05q-.45.1-.7.35-.3.4-.1.75.25.4.8.2l.85-.35.9-.1.7.15.45.2.15-.15zM17.8 11.7l-.25-.4V11l.4-1.15q.4-.6 1.05-.5l-.2-.9-.05-.4v-1.1l.05-.35q-.05-.2.05-.3l.35-.3.3-.05 1.2-.35.75-.1q.55.2.55.7.1.5-.4.8l-1.2.65-.1.1.55 1.8.05.95-.1.25v.5q-.1.65-.75.9l-.95.1-.95-.25zm19.55-.25.2-.25.15-.1.5.3.55.3.1.4.2.35.05.35-.1.9v.25q-.65-.15-1.15.25-.3-.2-.6-.25-.4-.15-.85.2l-.15.2-.2-.75-.1-1.45v-.05h.1l.45-.05.4-.25.2-.15zm-25.8 2.15-1.25-2.05q-.7-1.2-.8-2.2-.05-.45.2-1.85l.75-3.6.45-1.15q.35-.45.95-.5.65-.05 1.05.35l.55.85 1.8 3q.7.9.65 1.55l-.2.85-.2 1.75-.2 2.55h.15l1.2.1q.85.25 1 1.15.2.9-.45 1.45-.5.4-1.25.5l-.15.05.4.6q.2.5.05 1l-.6.85-.95.25q-.5 0-.9-.35-.7-.55-.6-1.45l.1-.35-.55.1-.5.1q-.55 0-1-.45t-.45-.95q-.05-.5.25-1l.3-.35.45-.2zM6.8 1.1l-.15.4.15.65-.15.45-.4.15-.6-.4Q5.1 1.55 5.7.8q.2-.7.9-.8.45-.1.55.25L7.2.5zm1.85.45q-.2.2-.2.75v.75q-.2.6-.75.3-.45-.15-.45-.85l.05-.7q.1-.6.45-.95.55-.45 1-.4L8.9.4q.4.1.4.45l-.3.5zM5.05 11.8l.2-.5q.25-.25.75-.35l1.85.2.8.3q.35.25.25.7l-.35.75-.1.6-.1.45v1.15l-.1.45-.05.5q0 .5-.55.7l-.95.05-.5-.3q-.25-.25-.15-.75.15-.85 1-1l.1-1.25.2-.65.2-.15-1.25-.2-.15 1.2-.2.95.05.25-.3.5-.55.15-.1-.05-.75.1q-.5-.15-.65-.55l-.1-.4.1-.4.15-.4q.2-.35.6-.35l.1-.05.25.1z"/><path fill="#fff" d="m43.85 5.95.15.5-.15.15-.45-.2-.7-.15-.9.1-.85.35q-.55.2-.8-.2-.2-.35.1-.75.25-.25.7-.35l1.3-.05H43l.65.2zm-10.8 4.55q-.15-.4 0-.85.15-.5.65-.5.4 0 .6.4v.75l.1.05 1.3.4 1.05-.25.2-.25.1-.55q.15-.35.6-.45.35.05.55.25l.8.6.4.1.95-.2.6-.75.1-.55.25-.15.2.1q.3 1 .2 1.5-.15 1-1.2 1.35l-.1.05-.25.3.1.55.05 2.45-.05.35-.35.65-.3.45-.45.4-.75.4-1.75-.35-.5-.3-.3-.3-1.05-1.35-.15-.75v-.75l.1-1.4q-1.2-.1-1.7-1.4m.85-4.6q.35 0 .6.35l.15.7-.45.55-.7.1-.55-.2h-.65l-1.2.3-.55-.05q-.1-.15.2-.45l1.1-.7 1.5-.5zm3.45 5.55-.25.2-.2.15-.4.25-.45.05h-.1v.05l.1 1.45.2.75.15-.2q.45-.35.85-.2.3.05.6.25.5-.4 1.15-.25v-.25l.1-.9-.05-.35-.2-.35-.1-.4-.55-.3-.5-.3-.15.1z"/></g></svg>