<svg xmlns="http://www.w3.org/2000/svg" xmlns:ffdec="https://www.free-decompiler.com/flash" ffdec:objectType="shape" width="76.6" height="42.2"><path fill="#999" fill-rule="evenodd" d="M15.9 23.2q-.6-1.15-1.6-1.75-1.25-.75-3.1-.5-1.25.1-2.2.8-.6.5-.85 1.25-.2.8 0 1.55.25.75.85 1.3t1.35.65L12 32.45l.65 1.7q.75 1.1 2 1.25 1.3.25 2.25-.55l1.5-2.15 2.8-5.5.95-1.6q.5-1.15.5-2.6 0-1.2-.45-1.85-.75-1.15-2.3-1.05-1.25.05-2.35 1.1-.75.6-1.65 2m43.2 2.35L58.4 28q-.2.65-.55.75L57 28.7l-.85-.35q-.25-.25-.25-.85l.1-5.55.3-8.55q0-.3.15-.55l.35-.2 1.4-.4.3 1.8.45 4.25.25 5.5zm-30.35-9.3-.15-.45.05-.2q.45-1 1.35-1.45l1.9.15.65 1.3q.45 2.15-.65 4.15l-1.65 2.05-2.1 1.75q-1.4 1.1-2.85 2.65-2.75 2.85-3.1 5.3-.2 1.6.4 2.5.85 1.5 3.05 1.8l3.65-.25 5.9-.2 3.05.2q1.75-.1 2.7-1.1.6-.6.8-1.35l.5.55 1 .95q.95.65 2.2.65 1.15.1 1.9-.4l.6-.55.9-1.55.05-.65.9 1.6q1.25 1.6 3.65 2.1l4.3.1q3.75-.45 5.55-2.25 1.15-1.15 1.7-3.1l.6-3.65.7-6.65q.45-4.65.3-6.5-.25-3.7-1.95-6.15-1.4-2.05-3.45-2.85l-3-.45q-4.65 0-7.05 2.4-1.5 1.45-2.15 3.95-.45 1.7-.65 4.6-.35 6.25-.15 12.5l.15 1.95q-.65-.9-2.05-1.35l-.75-.15h-.5l-1.6.35q-.95.35-1.35.95l-.45.65-.15.45-.5-.8q-1.5-1.85-4.5-2.2l-1.6-.05 1.25-1.5 2.7-3.1q1.25-1.4 1.75-2.7.85-2.1.15-6.05-.9-4.9-3.15-6.65-1.65-1.25-4.75-1.45-2.6-.25-4.5.4-3.2 1.05-5.05 4.4-1.55 2.95-1.4 6.6.1 2.1.7 3.3.85 1.8 2.45 2.3l2-.05q1.05-.3 1.7-1.1 1.4-1.65.75-3.9zM.5.5h75.6v41.2H.5z"/><path fill="#fff" fill-rule="evenodd" d="m28.75 16.25.75 1.8q.65 2.25-.75 3.9-.65.8-1.7 1.1l-2 .05q-1.6-.5-2.45-2.3-.6-1.2-.7-3.3-.15-3.65 1.4-6.6 1.85-3.35 5.05-4.4 1.9-.65 4.5-.4 3.1.2 4.75 1.45 2.25 1.75 3.15 6.65.7 3.95-.15 6.05-.5 1.3-1.75 2.7l-2.7 3.1-1.25 1.5 1.6.05q3 .35 4.5 2.2l.5.8.15-.45.45-.65q.4-.6 1.35-.95l1.6-.35h.5l.75.15q1.4.45 2.05 1.35l-.15-1.95q-.2-6.25.15-12.5.2-2.9.65-4.6.65-2.5 2.15-3.95 2.4-2.4 7.05-2.4l3 .45q2.05.8 3.45 2.85 1.7 2.45 1.95 6.15.15 1.85-.3 6.5l-.7 6.65-.6 3.65q-.55 1.95-1.7 3.1-1.8 1.8-5.55 2.25l-4.3-.1q-2.4-.5-3.65-2.1l-.9-1.6-.05.65-.9 1.55-.6.55q-.75.5-1.9.4-1.25 0-2.2-.65l-1-.95-.5-.55q-.2.75-.8 1.35-.95 1-2.7 1.1l-3.05-.2-5.9.2-3.65.25q-2.2-.3-3.05-1.8-.6-.9-.4-2.5.35-2.45 3.1-5.3 1.45-1.55 2.85-2.65l2.1-1.75 1.65-2.05q1.1-2 .65-4.15l-.65-1.3-1.9-.15q-.9.45-1.35 1.45l-.05.2zm30.35 9.3.1-1.75-.25-5.5-.45-4.25-.3-1.8-1.4.4-.35.2q-.15.25-.15.55l-.3 8.55-.1 5.55q0 .6.25.85l.85.35.85.05q.35-.1.55-.75zM15.9 23.2q.9-1.4 1.65-2 1.1-1.05 2.35-1.1 1.55-.1 2.3 1.05.45.65.45 1.85 0 1.45-.5 2.6l-.95 1.6-2.8 5.5-1.5 2.15q-.95.8-2.25.55-1.25-.15-2-1.25l-.65-1.7-1.65-5.95q-.75-.1-1.35-.65t-.85-1.3q-.2-.75 0-1.55.25-.75.85-1.25.95-.7 2.2-.8 1.85-.25 3.1.5 1 .6 1.6 1.75"/><path fill="none" stroke="#5f645e" stroke-linecap="round" stroke-linejoin="round" stroke-opacity=".498" d="M.5.5h75.6v41.2H.5z"/><path fill-rule="evenodd" d="M55.65 29.55q1.25.35 2.45 0l.9-.5.4-.95.7-3q.3-2.35.1-7.15L60 15.5l-1.05-3.7q-.2-.7-.5-.85l-1.05-.15q-1.3.05-1.8.65-.5.45-.75 1.7-.55 2.8-.6 6.95l-.1 5.1q-.05 1.65.2 2.85.1.7.55 1.15zm3.5 4.8-5.1.25q-2.75-.75-4-2.95-.85-1.6-.95-4.9-.05-6 .85-11.9.55-2.95 1.1-4.2.85-2.2 2.55-3.4 1.6-1.15 3.75-1.15 2.45-.15 4.1 1.05 2 1.55 2.85 5.7 1.35 7.15.1 14.4-.7 3.75-2.25 5.3-1.15 1.15-3 1.8M43.6 33.7q-.7-.5-.95-1.35t.05-1.65q.35-.8 1.15-1.25.85-.45 1.7-.3.75.15 1.3.7.55.6.7 1.3l-.15 1.45-.95 1.15zm-6.9 1.05L32 34.7l-4.75-.05h-2.2q-1.25-.25-1.75-1-.7-.95-.3-2.45l1.3-2.3q1.95-2.6 5.4-5.9l3.2-3.1q1.25-1.55 1.45-2.8.2-1.15-.25-3.1l-.55-1.4q-.6-.7-1.8-.75-1.25 0-2.4.6-1.05.6-1.65 1.45l-.3 1.75q-.1.45.05.7l.4.7.55.55q.65.7.65 1.75t-.65 1.85-1.65 1.05l-1.9-.1q-1.3-.6-1.8-2.45-.55-1.55-.4-3.4l.05-.85q.2-2 .85-3.55 1.4-2.9 4.8-4.45 2.7-1.3 5.2-.95 2.85.35 4.4 2.4.9 1.2 1.45 3.4.8 3.5.3 5.9-.75 2.85-3.65 5.95l-2.5 2.4L31 29l5.65-.05q2.15-.05 3 .55 1.15.85 1.05 2.25-.1 1.3-1.2 2.25-.95.6-2.8.75M12.4 21.5q1.2 0 1.95 1.3l.75 2.35.6 1.7 1.5-3.25q.7-1.75 1.05-2.1.55-.55 1.4-.65.9-.1 1.55.35.65.4.95 1.25.25.8 0 1.55l-.75 1.25-.75 1.3-2.75 5.4q-1 2.1-2.25 2.5l-1.35-.05-1.05-.85-.4-.95q-1.55-4.65-2.2-7.3l-.2-.4-.6-.15q-.95-.15-1.1-1.1t.7-1.4l1.3-.3.85-.3z"/></svg>