<svg xmlns="http://www.w3.org/2000/svg" xmlns:ffdec="https://www.free-decompiler.com/flash" ffdec:objectType="shape" width="77.95" height="44.1"><g fill-rule="evenodd"><path fill="#999" d="M10.5 13.8q-.25-.25.2-.7 4.3-4 8.85-6.95l2.9-1.8Q27.7 1.45 33.2.2l2.7-.05q1 .25 1.15 1.1.2.9-1 1.7-.65.4-2.55.9-10.7 2.7-18.45 7.9-2.75 1.8-4.05 2.15zm13.7 23.25-.95 1-.65.05q-.35-.1-.45-.4-.1-.25.1-.9 6.7-15.1 24.1-26.35 3.5-2.2 5.95-3.2 3-1.15 7.95-2 8.85-1.5 14.05-.2 1.55.35 2.35 1.1.5.5.65 1.15.2.7-.1 1.25l-.25.4.1.15q.35.5.3 1.1 0 .65-.4 1.1l-.2.2.25.3q.45.6.45 1.35 0 .8-.55 1.25-.8.65-2.75 0-5.3-1.65-10.9-1.65-5.65 0-10.95 1.65-2.05.65-4.3 1.6l-4.45 2.05-1.45.35q-10.6 7.65-17.9 18.65M77.7 17.9q.1.65-.5 1.2l-.7.45.3.4.55.75q.6.9.6 1.55 0 1.05-.8 1.35l-1.45-.15q-.65-.3-1.05-.8l-1-1.15-.8-.35-1.3-.6L70.3 20l-.5-.3-.5-.5-.1-.45-3.85.45q-3.6.6-5.3 1.1-3.7 1.1-7.85 3.4-8.5 4.85-14.9 12.15l-.55.25q-.2-.1-.1-.7 2.25-5.25 8.15-10.25 7.1-5.9 14-7.95l4.6-1.1 6.4-.8q3.6-.05 6.25 1.05 1.45.6 1.65 1.55M1.6 42.45q-.7-.2-1.1-.85t-.35-1.45q.1-1.05 1.1-2.65 4.05-6.35 12.6-14.1 4.5-4.05 8-6.45 6.9-4.65 15.1-6.45.45-.15.85 0t.35.55l-.5.5-5.6 2.8q-3.5 1.65-5.5 2.9-3 1.9-6.25 4.85l-5.7 5.55-5.35 5.75q-2.8 3.35-4.45 6.4l-1.2 1.9q-.9.95-2 .75M3.75 30.6 2.7 31.9q-.75.7-1.6.45l-.9-.8-.15-1.25q.2-.9 1.3-2.2 7.4-8.4 17.2-13.85 3.55-1.95 6.05-2.6h.3l-.25.45q-4.25 1.8-9.75 6.35l-2.7 2.45-3 3.2q-3.8 4-5.45 6.5m10.8 12.8-1.2.25q-.7-.05-1.15-.55-1-1.05-.15-3.55 2.4-6.95 6.9-12.9l2.1-2.55Q24.7 19.65 27 18q1-.75 1.55-.25.35.35.15.95l-.55.8q-6.6 7.45-10.55 16.15l-1.1 2.6-.65 2.4q-.45 2.15-1.3 2.75M34.1 29.25l1.3-1.35.55-.45.4-.35q.45-.35.9-.15.6.3.25 1.4l-.65 1.1-.8 1-1.8 3.1-.45.95-.5 1.8-.3 1.2q-.15 1.3.15 4 0 1.3-.6 1.85l-1.15.45q-.6-.05-.95-.4-.4.4-1.05.4-.85-.1-1.2-.9-.35-.65-.25-1.55.05-1 .65-2.7 1.7-4.8 5.05-8.65z"/><path d="m38.05 5.95 2.85.35.4-.25q2.25-1.2 4.65-2.1l1.45-.3q.9 0 1.35.6l.25 1.1-.2 1.1-1.6 5.15.6 1q1 1.8 1.35 3.7 2.8-.85 6.2-.95 4.75-.15 9.35 1.15 4.65 1.35 8.55 4 2.25 1.5 2.95 3.05.65 1.3.55 4.3L76.3 40.5q-.1 1.85-.7 2.5-.65.65-2 .7h-2.35l-1.5.35h-1.5q-.75-.15-2.05-1.45-2.6-2.7-5.2-4.85-3.1 1.9-7.45 2.15l-4.7-.6-1.9-.85-2.05-.75q-1.3-.85-1.45-2.15-.25-1.45.75-2.5 1-.95 2.7-.95 1.45 0 4 1 2.7 1.05 4 1.1l1.1-.05-.3-.15q-6.05-3.55-12.15-3.9-2 1.25-4.6 1.8l-7.55-.25q-3.85-1.1-6.2-4.15l-.6-.85q-2 1.05-4.95 3.45-3.95 3.25-5.35 5.55l-1.55 2.4-1.15 1-.5 1.55-.55.7q-.75.45-1.4-.3-.4-.5-.25-1.35h-.25l-.6.75-.6.8q-.5.15-.8-.2l-.35-.75q-.2-.65.15-1.65l-.2-.2-.1.1-.35.8-.65.55q-.55.1-.8-.45l-.2-.9q0-1.2.7-2.3l.2-.25v-.2q0-1.7 1.4-3.65 2.45-3.25 8.25-6.2 4.45-2.25 8.25-3.2l-.3-1.7q-.1-2.2.95-4.7l-1.1-.85-1.1-1.15-.95-.65q-.65-.55-.65-1.4 0-.8.6-1.4.45-.45 1.5-.75l5.45-1.7 2.25-.2q1.8-1.45 4.45-1.95l1.3-.15zm-10.6 18q.9-.05 1.65-.6.8-.6 1.05-1.45l.1-.35.9-.1q.75-.35.9-1.1.15-.85-.35-1.35-.45-.55-1.9-.75l-2.85-.45-1-.05q-.6.1-.75.6-.15.45.2.85l.75.55q-.7.55-.9 1.45t.2 1.65l.7.8q.55.4 1.3.3m8.95 2.5q3.2-.95 6.55-1.2l1.35-.2 1.15-.75q.35-.5.2-1.15t-.7-.95L43.1 22l-2.4.35-3.4 1.1-.45-.85-1.1-1.2q-.4-.35-.75-.4l-.85.1q-.45.4-.3 1l.35 1.05.4.9.15.25q-.9.3-1.35.55-1 .65-1.2 1.55-.3.85.3 1.25l1 .05.85-.45q.85-.45 2.05-.8m3.85-9.8-1.4-.35q-.85-.3-.9-.95l.15-.55q.6-1.2 1.8-1.5l1.45.05q.75.4.9 1.05v.55q-.15.8-1.15 1.35zm-.1 2.55.65-.2q2-.9 2.6-1.5l.55-.65.4-.6.2-.7.1-1-.15-1-.8-1.3-.4-.45q-.7-.8-1.8-.95h-1.15l.3-.3.45-1q0-.45-.4-.75l-.85-.1-.65.4q-3 2.8-5.4 6.15l-.5.95q-.25.85.45 1.55.7.6 1.6.35l.8-.55.05.05q1.1 1.4 3 1.65z"/><path fill="#fff" d="m40.15 19.2-.95.05q-1.9-.25-3-1.65l-.05-.05-.8.55q-.9.25-1.6-.35-.7-.7-.45-1.55l.5-.95q2.4-3.35 5.4-6.15l.65-.4.85.1q.4.3.4.75l-.45 1-.3.3h1.15q1.1.15 1.8.95l.4.45.8 1.3.15 1-.1 1-.2.7-.4.6-.55.65q-.6.6-2.6 1.5zm.1-2.55.85-.35q1-.55 1.15-1.35v-.55q-.15-.65-.9-1.05l-1.45-.05q-1.2.3-1.8 1.5l-.15.55q.05.65.9.95zm-3.85 9.8q-1.2.35-2.05.8l-.85.45-1-.05q-.6-.4-.3-1.25.2-.9 1.2-1.55.45-.25 1.35-.55l-.15-.25-.4-.9-.35-1.05q-.15-.6.3-1L35 21q.35.05.75.4l1.1 1.2.45.85 3.4-1.1 2.4-.35 1.85.2q.55.3.7.95t-.2 1.15l-1.15.75-1.35.2q-3.35.25-6.55 1.2m-8.95-2.5q-.75.1-1.3-.3l-.7-.8q-.4-.75-.2-1.65t.9-1.45l-.75-.55q-.35-.4-.2-.85.15-.5.75-.6l1 .05 2.85.45q1.45.2 1.9.75.5.5.35 1.35-.15.75-.9 1.1l-.9.1-.1.35q-.25.85-1.05 1.45-.75.55-1.65.6"/></g></svg>