<svg xmlns="http://www.w3.org/2000/svg" xmlns:ffdec="https://www.free-decompiler.com/flash" ffdec:objectType="shape" width="75.75" height="41.6"><g fill-rule="evenodd"><path fill="#999" d="M23.6 2q-4 7.2-8.6 9.7-1.45.75-4.7 1.7-3.15 1-4.7 1.8-3.7 2-5.6 5.9v-6.95q1.8-1.85 4-3.1Q6 9.1 8.4 7.6l3.1-1.9 2.75-2.3L16 1.1l.75-1.1h7.95zm8.7 38.35q-5.7-1.3-11.65-7.2L18.1 30.1q-3.35-5.05-2.05-11.7.8-3.95 3-7.35 2.25-3.5 5.55-5.75 2.95-1.95 6.4-2.75 4.1-.95 8.9-1.1 4.75-.15 9.7 4.1 4.9 4.15 5.85 7.1.9 2.9 3.35 5.45 1.95 1.45 3.8 1.45 2.75.15 4.65-2.25 1.55-1.95 1.95-4.95l.1-1.85-.85-2.45q-1.1-1.8-4.4-4-3.55-2.2-4.65-3.8L59.25 0h10.7q4 3.9 5.15 11.95l.25 4.15q-.05 2.8-1.2 5.8-1.9 5.35-6.1 9.4l-5.3 4.05-4.25 2.55q-2.8 1.25-7.65 2.2l-11 1.05-4.4-.35zm39.05-5.9 1.7.05h1.7l1-.25v3.35l-1.3.2-4.15.1q-1.2.3-2.5 1.35l-2.15 1.95-.4.4H60.9l.35-.35 2.95-3q3.7-3.65 7.15-3.8M7.3 36.65q1.65.5 3 1.6 1.3 1.05 2.05 2.4l.45.95H7.75q-1-1.05-2.85-1.75Q1.7 38.9.3 38.1l-.3-.15v-5l1.8 1.55 2.95 1.35z"/><path d="M40.7 11.65q-1.45-.6-3.05-.7-4.2-.35-7.65 2.2-1.2.9-1.9 2-.65 1-.95 2.7l-.1.35q-.3 1.9-.25 3.15.1 1.35.55 2.55l.2.6 1.65-1.3q4.1-3.3 9.3-7.05l4.55-3.25-.85-.5-.65-.35zm4.5-3.2.35.2.75.45 1.1.75q.6-.45 1.15-.7l.7-.35q1.4-.25 2 .65.55.75.1 1.85l-.75 1.1-.4.4h-.05l.7 1.35.1.15q.8 1.7 1.25 3.35.55 2.7-.2 6.7-.8 4.15-2.4 6.15l-.65.75-2.15 1.85-1.95 1.4-.6.35-2.85 1.05q-2.9.9-5.15.65l-1.35-.3-2.25-.75q-3.45-1.3-4.85-2.4l-.6-.65-.45-.5-.55.25-.6.15h-.05q-1.2.1-2-.85-.8-.85-.6-2v-.15q.15-.65.7-1.4l-.3-.55-.15-.2q-2-3.8-1.2-9.05.4-2.75 1.5-4.85 1.7-3.3 5.1-5.15 1.15-.65 2.7-1.2 5.75-1.95 10.75 0l1.5.65zM30.75 29l.35.3 1.1.9q2.2 1.5 4.6 1.75 4.2.5 8.15-3l1.55-1.65q.75-1.25 1.2-3.9l.35-3.1-.3-2.25-.05-.1-.75-1.6-.3-.3-.6.55-1.1.9-5.55 4.25-4 3.1-4.15 3.3-.75.65.05.05z"/><path fill="#fff" d="m25.85 33.45-2.6-.1q-1.25-.7-1.5-2.15-.2-1.15.5-2.45-1.05-1.3-1.7-3.1-1.05-3.05-.4-6.7.55-3.2 2.3-6 1.75-2.85 4.4-4.7 2.65-1.9 5.85-2.6 3.25-.75 6.4-.1l3.7 1q3.2.85 4.05 1.3l.9.55.1-.05 1.05-.15 1.55.1q1.25.4 1.8 1.6.55 1.15.1 2.4l-.9 1.45q1.8 3.35 1.45 9.1-.1 2.65-.7 4.8-1.4 4.4-5.35 7.1-3.6 2.5-8.45 2.9-3.5.25-5.95-.8-1.8-.95-2.75-1.35l-2.8-1.4-.8-.75zm4.9-4.45-.2-.15-.05-.05.75-.65 4.15-3.3 4-3.1 5.55-4.25 1.1-.9.6-.55.3.3.75 1.6.05.1.3 2.25-.35 3.1q-.45 2.65-1.2 3.9l-1.55 1.65q-3.95 3.5-8.15 3-2.4-.25-4.6-1.75l-1.1-.9zM45.2 8.45l-1.65-.85-1.5-.65q-5-1.95-10.75 0-1.55.55-2.7 1.2-3.4 1.85-5.1 5.15-1.1 2.1-1.5 4.85-.8 5.25 1.2 9.05l.15.2.3.55q-.55.75-.7 1.4v.15q-.2 1.15.6 2 .8.95 2 .85h.05l.6-.15.55-.25.45.5.6.65q1.4 1.1 4.85 2.4l2.25.75 1.35.3q2.25.25 5.15-.65l2.85-1.05.6-.35 1.95-1.4 2.15-1.85.65-.75q1.6-2 2.4-6.15.75-4 .2-6.7-.45-1.65-1.25-3.35l-.1-.15-.7-1.35h.05l.4-.4.75-1.1q.45-1.1-.1-1.85-.6-.9-2-.65l-.7.35q-.55.25-1.15.7l-1.1-.75-.75-.45zm-4.5 3.2.85.4.65.35.85.5-4.55 3.25q-5.2 3.75-9.3 7.05l-1.65 1.3-.2-.6q-.45-1.2-.55-2.55-.05-1.25.25-3.15l.1-.35q.3-1.7.95-2.7.7-1.1 1.9-2 3.45-2.55 7.65-2.2 1.6.1 3.05.7m-.05 17.9q2.5-.65 3.5-1.9l1-1.95q.55-1.35.7-2.65.25-1.8-.15-3.5l-2.6 1.6-4 2.4-4.2 3-3 2.2.2.15q1.7 1.2 4.2 1.3zm-3.5-15.05-3.05.3q-2.3.7-3.6 2.8-1.2 1.95-1.3 4.45v.3l.6-.55 5.2-4.55 3-2.7z"/></g></svg>