<svg xmlns="http://www.w3.org/2000/svg" xmlns:ffdec="https://www.free-decompiler.com/flash" ffdec:objectType="shape" width="77.1" height="40.95"><g fill-rule="evenodd"><path d="m14.45 30.05-1.3-1.6q-3.2-3.65-4.7-7.25-.6-1.35-.85-2.6l-.8 2.05q-2.35 5.7-6.8 9.8v-4.4Q4.05 21.5 5.75 14.2L5 13.05 3.7 11.4Q1.4 8.8 0 6.25V0h.4q.7 2.05 1.95 4.2Q4.4 7.6 7.6 11l.4.25.35-.2Q13.15 7 15.4 0h5.45q.55 1.4 1.4 2.8 2.05 3.35 5.25 6.8l.4.25.4-.2Q32.55 6 34.85 0h3.1l-.8 2.2q-2.7 6.45-7.95 10.85v.15q.5 4 2.85 8.05 2 3.35 5.2 6.8l.4.2.4-.15q5.9-5 7.95-14.5l.1-.35-.2-.2-.2-.25-.7-1.15L43.7 10q-3.2-3.65-4.75-7.25L38.05 0h2.9q.55 1.4 1.4 2.8 2 3.35 5.2 6.8l.4.25.4-.2Q52.65 6 54.95 0h5.5q.7 2.05 1.95 4.2 2.05 3.4 5.25 6.8l.4.25.4-.2Q73.1 7.15 75.35.3v7.2q-2.4 3.95-6.1 6.95l-.05.05q.7 3.35 2.65 6.75l3.5 4.85v13.5l-.65 1.35h-3.45q2.4-4 3.6-9.45l.15-.6-.5-.85-1.3-1.6Q70 24.8 68.5 21.2q-.6-1.35-.85-2.6l-.8 2.05q-2.7 6.5-8.05 10.85l-.6.45q.55 3.6 2.7 7.2l1.15 1.8H58.4l-.9-1.9-.75-2.25-.35.85-1.6 3.3h-3.5q2.75-4 4.05-9.7l-.75-1.2-1.3-1.6q-3.2-3.65-4.7-7.25-.6-1.35-.85-2.6l-.8 2.05q-2.7 6.5-8.05 10.85l-.05.05q.65 3.35 2.65 6.75l1.75 2.65H39.5l-1.4-2.7-.85-2.6-.75 2-1.6 3.3h-3.5q2.7-4 4-9.7l-.7-1.2-1.3-1.6q-3.2-3.65-4.75-7.25l-.05-.1-.95-3.1-.95 2.65q-2.65 6.4-7.8 10.65.65 3.5 2.7 7l1.75 2.65H19.6l-1.4-2.7q-.8-2-1.1-3.85l-1.35 4.1-1.15 2.45h-3.4q2.4-4 3.6-9.45l.15-.6zM49.1 13.2q.5 4 2.85 8.05 2.05 3.35 5.25 6.8l.35.2.4-.15q5.75-4.85 7.85-13.9l-.75-1.15-1.3-1.65q-3.2-3.65-4.7-7.25-.8-1.9-1.15-3.75l-.65 1.8q-2.7 6.5-8.05 10.85l-.05.05-.05.05zm-37.3 8.05q2 3.35 5.25 6.8l.35.2.4-.15q5.9-5 7.95-14.5l.1-.45-.05-.1-.15-.25-.75-1.15L23.6 10q-3.2-3.65-4.7-7.25L18.2.9l-.95 2.7q-2.7 6.5-8.05 10.85l-.05.05q.7 3.35 2.65 6.75m6.3-4.5q-.3-.05-.5-.5-.45-.8-.65-2.05l-.5-4.25.2-1.65q.25-.65 1-1l1.4-.1q1.05.4 1.35 1.45l-.15 1.85-.35 2.75q-.25 1.65-.7 2.65-.3 1.15-1.1.85m.9 4.85-.5.05q-1.2 0-1.45-1.1-.15-.45.05-.95.15-.55.55-.75l1.85.1q.85.8.4 1.8zM.85 39.15 2 40.95H0V37.6z"/><path fill="#999" d="m19 21.6.9-.85q.45-1-.4-1.8l-1.85-.1q-.4.2-.55.75-.2.5-.05.95.25 1.1 1.45 1.1zm-.9-4.85q.8.3 1.1-.85.45-1 .7-2.65l.35-2.75.15-1.85q-.3-1.05-1.35-1.45l-1.4.1q-.75.35-1 1l-.2 1.65.5 4.25q.2 1.25.65 2.05.2.45.5.5m-6.3 4.5q-1.95-3.4-2.65-6.75l.05-.05q5.35-4.35 8.05-10.85L18.2.9l.7 1.85q1.5 3.6 4.7 7.25l1.3 1.65.75 1.15.15.25.05.1-.1.45q-2.05 9.5-7.95 14.5l-.4.15-.35-.2q-3.25-3.45-5.25-6.8"/><path d="m58.9 17.2-.45-.7h-.25l-.35-.05-.3-.05-.2-.05H57l-.3-.05-.35-.05h-.2l-.1-.05-.6-.05H54.1l-.95-.1-.95-.05h-1.3l-1.6-.05-1.8-.05h-.4l-.6-.05-.85-.05-.6-.05h-.45l-.35-.05-.5-.1h-.9l-.75-.05-.55-.05H41l.2.4q.3.8-.15 1.5-.65.75-1.4.65Q39 18 38.3 17.4l-1.2-.95-1.05-.7q-.65-.5-.7-1.05-.05-.6.4-1.15.35-.4 1-.8l1.55-1.05q1.55-.95 2.35-.8.45.1.75.4l.15.7-.45.6-1.25 1.05.75-.05.65-.05h.3l.55-.05h.25l.5-.05.9-.1h.6l.25-.05.45-.05h.6l.85-.05.6-.05h.4l1.8-.05 1.6-.05h1.3l.95-.05h1.3l.2-.1h.8l.6-.05.1-.05.2-.05h.35l.3-.05.35-.05h.2l.3-.05.35-.05h.5l.2-.4.1-.05.6-.9.95-1.1q.4-.6.95-.6l.3.1.4.7-.25.95.9-.8L64 10.3q.65.1.65.75l-.1.7v.05l-.25.55-.1.3-.35.7-.2.3.05.1.05.15.05.1v.1l.05.1v.6l-.05.1v.1l-.05.1-.05.2v.15l-.1.05-.05.1-.15.15v.05l.1.4.25.65.05.85-.05.7q-.15.35-.55.35l-.45-.25-1.2-1.45-.1-.2.05.35.05 1.05v.2l-.05.4-.1.1q-.15.4-.55.4-.35 0-.85-.65z"/><path fill="#fff" d="m59 12.1.45-1.55Q60 9.4 60.6 9q.95-.75 1.8 0l.55.4h.65q.6-.2 1.15 0l.35.2h1.75l.45.05h.3l.25.05.4.05h.35l.35.1.7.05.65.05h.5l1.1.05.45.05h3.9l.2.05.3.05.15.15.1.1.1.15v.25l-.05.1-.05.1-.15.1-.1.1-.05.05-.25.05h-1.6l.25.05.25.1.15.1.15.15v.1l.05.1v.25l-.05.15v.1l-.15.15-.15.1-.25.1-.3.05-.3.05h-.4l-.2-.05-.2-.05h-1.35l-.45-.05-5.5-.05h-1.25l-.4.55 1.3-.05h7.55l.15.05.25.05h.1l.3.05.1.05h.15l.3.1.3.1.3.1.3.1.15.15.15.1.1.1.05.1.05.15v.2l-.1.1-.05.15-.1.1-.2.1-.2.1q-.2.05-.35.2l-.25.05-.15.05h-.3l-.15.05-.1.05h-.3l-.1.05-.25.05h-.15l-.35.1H70.4l-4.35-.1h-1.3l-.15-.05.05.25.3 1.25.05 1 .1-.05h10.15l.2.1.2.1.1.1v.15l.05.1v.1l-.05.1-.05.15-.15.1-.1.1h-.1l-.1.05-.25.05h-1.25l-1.2-.05H65.1l-.6-.05h-.25l-1 .2-.75-.15-.35.65-1.05.2q-.55-.05-1.55-.7-.7-.6-.8-1.1-.15-.5.15-1l1.1 1.5q.5.65.85.65.4 0 .55-.4l.1-.1.05-.4v-.2l-.05-1.05-.05-.35.1.2 1.2 1.45.45.25q.4 0 .55-.35l.05-.7-.05-.85-.25-.65-.1-.4v-.05l.15-.15.05-.1.1-.05v-.15l.05-.2.05-.1v-.1l.05-.1v-.6l-.05-.1V14l-.05-.1-.05-.15-.05-.1.2-.3.35-.7.1-.3.25-.55v-.05l.1-.7q0-.65-.65-.75l-1.15.15-.9.8.25-.95-.4-.7-.3-.1q-.55 0-.95.6l-.95 1.1zm-4.9 4.05q.35.55-.2 1.05-.3.35-.9.35h-.95l-2-.15h-2.2l-.9.1-2.2-.3-.3-.15-.35-.15-.55-.15-.45-.05q-.35-.3-.2-.55l.3-.45.05-.1h.5l.5.1.35.05h.45l.6.05.85.05.6.05h.4l1.8.05 1.6.05h1.3l.95.05zM42.35 13.5l.15-.45q.15-.3 1-.6l3.8-.3 3.7.1 1.75.05q.65.1 1.7.7h-1.3l-.95.05h-1.3l-1.6.05-1.8.05h-.4l-.6.05-.85.05h-.6l-.45.05-.25.05h-.6l-.9.1zm30.9-2.2-.45.05.9-.05z"/></g></svg>