<svg xmlns="http://www.w3.org/2000/svg" xmlns:ffdec="https://www.free-decompiler.com/flash" ffdec:objectType="shape" width="63.45" height="39.35"><g fill-rule="evenodd"><path d="M57.2 12.8q2.6-1.6 2.7-3.45 0-1.25-.9-2.4-1-1.35-2.4-1.85-1.4-.45-3.2 0-1.1.25-2.95 1.15l.25.95.8 2.75.45 2.15.5 2.7q2.75-.85 4.75-2M49.4 2.55q2.1-1 3.25-1.3l5 .15q2.6.8 4.15 2.75 1.6 2 1.65 4.7.05 2.75-1.6 4.65l-2.35 1.95q-2.8 1.75-6.8 2.9l-2.6.65.55 1.65.2.6.4-.15.95-.15q.6.1.7.6l-.2.7-.6.4L49.65 24l-1.05.4q-.8 0-1.15-.7-.35-.8.25-1.35.25-.25.9-.4l-.55-2.35v-.15l-2.65.5q-22 4.15-34.6 8.3l-1.9.5-.85 1.45q-.9.95-2.15 1.15L3.5 31q-1.2-.55-1.9-1.6-1.45-2.05-.95-4.75.45-2.3 2-3.05.65-.35 1.8-.45l1.95.05 1.25.2.9-.2 8.65-3.4 1.75-.7Q31.3 10.95 42.9 5.55l.2-.6.65-1.6v-.2l-2.05-1.6-.45-.5q-.2-.25-.1-.6.15-.35.6-.45l.75.15 1.25.75 1.2.75.45.2q.55.3.55 1l-.3 1.45zm-2.8 5.4-2.2.95.45 1.05.3.45.6 1.55.2.3zm.5 7.85.05.25 4.4-.95-.3-.95-1.95-7.4-1.5.65-.25 2.1-.35 3.3q-.2 2-.1 3m-1.65.6.2-2.55v-.05L45 12.4l-.1-.15-.9-1.75-.2-.3-.05 3.1-.1 3.45zM7 25.9q.45-.5 1.8-.9l9.4-2.7q5.85-1.7 9.5-2.5l15.15-2.9-.15-2.7-.05-4.5q-13.5 5.85-26.55 10.9l-2.9 1.25q-3.4 1.55-4.5 2.2-1.2.75-1.85.6l-1-.55-.9-.1-.9.25q-.25.2-.35.9-.1 1.35.6 2.4.25.55.8.8.7.3 1-.25l.2-.7q.1-.4.35-.7.05-.5.35-.8"/><path fill="#999" d="M57.2 12.8q-2 1.15-4.75 2l-.5-2.7-.45-2.15-.8-2.75-.25-.95q1.85-.9 2.95-1.15 1.8-.45 3.2 0 1.4.5 2.4 1.85.9 1.15.9 2.4-.1 1.85-2.7 3.45M7 25.9q-.3.3-.35.8-.25.3-.35.7l-.2.7q-.3.55-1 .25-.55-.25-.8-.8-.7-1.05-.6-2.4.1-.7.35-.9l.9-.25.9.1 1 .55q.65.15 1.85-.6 1.1-.65 4.5-2.2l2.9-1.25q13.05-5.05 26.55-10.9l.05 4.5.15 2.7-15.15 2.9q-3.65.8-9.5 2.5L8.8 25q-1.35.4-1.8.9"/><path d="m15.95 38.6.05.05-4.15.7-1.05-6.7q-.4-2.7-.65-5.55l-.05-1q1.5-.5 2.8-1.2l1.3-.55v.6l3.6-2.35 1.25-.7-.25-.05q-2.95-.75-4.45-2.85l-.05.5-.1 1-.8.35L10 23.1q.05-3.2.65-6.4 1-5 4.45-7.9 2.2-1.55 5.15-2.15 4.3-.85 5.75-.55 1.2.15 3.1 1l.7.35q1.8 1.15 3.25 2.9l.05.1h.05l.35.55.5.75-.35.2-.05 1.2-.05.5-.6 1.45-.4.75H33l.6.25.6.35 1.15 1.2q1 1.1 1.15 2l.3.7h.05v.05l.05.1.1.25.4 1.25-.05.65v.1l.9 5.2.85 5.65.15.45v.5l.05.3.1.3q.3.75.15 1.6l-.05.8-.4.9q-.45.45-.9.45l-.55-.1-.25.25-.6.05q-.35 0-.6-.3l-.25-.9v-.05l-.1-.5v-.45l-.25-.5-.05-.9h-.05l-.05-.2-.05-.2-.2-1.6-.4-2.6-.35-1.95v-.15l-.05-.2-1.7-8.95-.55-.35-.1.2-.3.2-.3-.25-.7-.7q-1.9-1.35-3.35-1.35l-.95.1-.6.15-.5.3q-1.3.8-1.6 1.6-.2.5-.1 1.5 0 .6.15.95l.7.75.75.8q.3.65 0 1.05-.25.4-.9.35l-.95-.35q-.75-.35-1.05-.8l-.35-.65-.1-.15-.2-.4-.05-.2-.6.35L19.4 24l-.55.2q-1.35.35-3.1 1.55-.65.35-1 .8l-.25.45-.1.05v.3l.05.4.15 1.35.35 2.85V32l.4 2.4.3 2.35.15.75zM15.9 6.45l-.35-.05-.75-.9-1.15-2.65q-.3-.65-.25-1.1 0-.7.75-1 .7-.25 1.25.35.4.45.4 1.15l-.05 1.25.25 1.4v1.15zm-4.95.2.6 1.1.25.8.25.2.05.35-.25.25-.35-.05-.6-.35-1.6-1.6-3.05-3-.45-.45q-.65-.75-.25-1.65Q6 1.4 6.9 1.4q1 0 1.4.85l.15.35.25.3.5 1.15zm17.5 5.3Q25.65 9.7 23.9 9.8l-1.95.15-1.85.4q-1.5.35-3.2 2.2-1.65 1.9-2.25 4.9l.4.4 1 .65q2.5 1.25 5.4.8l.1-.55.55-1q1-1.65 3-2.2l3.75-.1h.1l1.15-1.8zM8.4 12.8q.35.3.3.55 0 .5-.6.5l-.7-.25-1.45-.4-4.1-1.75-.9-.25q-1-.5-.95-1.65.1-1.1 1.2-1.45.8-.2 1.65.25l.35.25 1.2.55.45.45.45.25 2.05 1.9z"/><path fill="#fff" d="m35.4 35.1-.6.35-2.9.4-4.05.75-4 1-4.5.65-3.4.35-.15-1.1-.15-.75-.3-2.35-.4-2.4v-.05l-.35-2.85-.15-1.35-.05-.4.1-.35.25-.45q.35-.45 1-.8 1.75-1.2 3.1-1.55l.55-.2 1.65-1.25.6-.35.05.2.2.4.1.15.35.65q.3.45 1.05.8l.95.35q.65.05.9-.35.3-.4 0-1.05l-.75-.8-.7-.75q-.15-.35-.15-.95-.1-1 .1-1.5.3-.8 1.6-1.6l.5-.3.6-.15.95-.1q1.45 0 3.35 1.35l.7.7.3.25.3-.2.1-.2.55.35 1.7 8.95.05.2v.15l.35 1.95.4 2.6zm-6.95-23.15 1.65 1.7-1.15 1.8h-.1l-3.75.1q-2 .55-3 2.2l-.55 1-.1.55q-2.9.45-5.4-.8l-1-.65-.4-.4q.6-3 2.25-4.9 1.7-1.85 3.2-2.2l1.85-.4 1.95-.15q1.75-.1 4.55 2.15"/></g></svg>