<svg xmlns="http://www.w3.org/2000/svg" xmlns:ffdec="https://www.free-decompiler.com/flash" ffdec:objectType="shape" width="57.4" height="41"><g fill-rule="evenodd"><path d="m48.4.3-.1-.3h2.55l.3 1.5q.2.9 0 1.35-.35.75-1.85 1.05l-.15.05.2.9q1.5-.15 2.3.35L53 6.5q1.35 1.85 2.9 6.45.85 2.4.75 4.05l.3 2.15.2 3.75.25 2.35-.15 2.35-.25 2.9q-.2 1.9-.6 2.6l-.95.9-1.3.2q-.9-.3-1.55-1.55l-1.2-2.25-.15-.25-.45-.9v1.8l-.05 1.8v.1q-.3 1.25-1.2 1.95-1.15.85-2.3.4-1.25-.45-1.95-2.5L44 28.45l-1.55-4.25-.3-.7h-.1l-2.9 1.4q-1.1.55-1.6.6-.85.1-1.5-.55-.45-.5-.4-1.15v-.4q.1-.6.75-1.1.4-.45 1.1-.8 1.15-.55 3.45-1.55 2-.95 3.2-1.9l.3-.35-.05-.4-.3-.6-.1-.15-.3-.4-.35-.3-.55.1L37 18.2l-2.4 1.4q-.85.4-1.55-.2l-.2-.3-.05-.3.5-.9.45-.35.1-.05 1-1.25q1.05-.8 2.85-1.65l-.45-1.7q-.35-1.7-.15-2.3l.85-1.2q.85-.85 1.85-1.5l-.1-.15-.3-.65-.1-.3-1.2.25L36.9 7l-.65-.6-1.1-1.7-.25-.5-.55-.55q-.45-.45-.75-1.4l-.2-1.15q0-.6.4-1.1h7.45l-1.7.45-.2.05-1.5.7-1.1.3-.1.05-.4.45.25.6.45 1.25.45.5.25.55h.45l1.7-.45 2.05-.7.8-.35 1.6-.6Q47 1.75 48.7 1.3zm5.45 28.05.4.7.15-5.5-.6-6.6-.15-2.7Q52.5 11.7 51.2 9.7q-.85-1.25-1.55-1.5l-1.6.05q-2.8.6-4.15 1.1-2.3.9-3.55 2.25l.15.7.15.7.05.35 1.4-.7.15-.05q1.1-.6 1.6-.65l1.5.35.5.35.1.05.85.8q1.35 1.5 1.8 3.9l.05.35-.05 1.1v.05l-1.4 1.6-.6.45-.95.75-1.1.7q1.05 1.5 1.85 3.55l.15.5.15.4 1.25 4.2q.25-2.3-.05-4.35-.2-1.7.15-2.35l.8-.7.5-.15h.7l.85.2q1.2.6 2 2.45l.6 1.45zM2.8 38.1Q1 36.15.35 34.25q-.45-1.4-.3-2.75.2-1.45 1.15-2.4.8-.75 2.5-1.4 6.55-2.45 13.35-4.2l1.85-.15q.55.1.8.45.4.55-.2 1.25-.35.45-1.1.7L9.55 29.8l.1.25.3.65.05.1.55-.4 4.95-2.2 1.5-.9q1.9-1.2 3.95-1.95l2-.1.35.3-.05.55-.25.6.75-.35q1-.5 1.65-.55 1.05-.1 1.55.6.65.8-.05 1.85-.4.6-1.5 1.25l-3.5 1.65q-2.8 1.25-7.3 3.8l-7.25 3.9q-1.55.75-2.55.6-.9-.15-2-1.35m1.75-5.05.15.3 1.2 1.85L8.25 34l-.05-1.85-.1-.3-.45-1.2L5.1 31.8l-.7.55z"/><path fill="#999" d="M51.4 30.4q.2 1.1 0 1.65l-.65.9v-.1l.05-1.8v-1.8l.45.9zm-15.75-6.6q-.65-.15-1-.8-.45-.7-.1-1.45l.1-.6q.2-.45.8-.8l2.4-1.1 2.2-.8q.7-.4 1.35-.65l1.05-.35 1.1-.55.45-.15.1.15.3.6.05.4-.3.35q-1.2.95-3.2 1.9-2.3 1-3.45 1.55-.7.35-1.1.8-.65.5-.75 1.1zM39.55.45 40 .9l1.15 1.55.7 1.3-2.05.7-1.7.45-.2-.25-.45-.55-.5-1.35-.3-1.2.1-.05 1.1-.3 1.5-.7zm3.1 2.95-.1-.15q-.35-.7-.2-1.4l.25-.9.05-.85.05-.1h1.6l.1.15V0h3.7l.3.3.3 1q-1.7.45-4.45 1.5zm-2.15 8.9.05-.15q.15-.4.9-.7l1.2-.45q.5-.4 1.6-.7l4.05-.95 2.35.15.65 1 .6 1.25q.7 1.65.9 4.45l.35 4.55.4 2.1.45 3.6-.15 1.9-.35-.75-.6-1.45q-.8-1.85-2-2.45l-.85-.2h-.7l-.5.15-.8.7q-.35.65-.15 2.35.3 2.05.05 4.35l-1.25-4.2-.15-.4-.15-.5q-.8-2.05-1.85-3.55l1.1-.7.95-.75.6-.45 1.4-1.6v-.05l.05-1.1-.05-.35q-.45-2.4-1.8-3.9l-.85-.8-.1-.05-.5-.35-1.5-.35q-.5.05-1.6.65l-.15.05-1.4.7-.05-.35zM29.3 9.25l-.45.65-.45.05q-.3-.1-.3-.4l.05-.45-.1-.45.25-1.7.15-.55.35-1.5.1-.45.4-.9q.55-.7 1.3-.7.8.1 1.25.6.45.6.35 1.35l-.75 1.4-1.2 1.6-.6 1.05zm-7.1.05-.1-.4-.7-1.9-.1-.5-.35-1.75-.1-.65-.15-.5q-.1-.55.15-1.05.2-.55.7-.8l1.05-.1q.55.1.9.5l.25.4.25.95-.05 1.35-.05 1.75-.2 1.75-.05.9-.05.9-.2.35-.8-.1q-.25-.25-.25-.8-.15-.05-.15-.3m-4.4.8.75 1.05.15.5-.15.5-.5.05-.5-.3-1.5-.9-.8-.6-.75-.45-.45-.35-.65-.35q-.75-.5-.7-1.35-.05-.55.35-1.05.35-.5.9-.65l1.1.15.8.75.35.9.45.6.4.6.1.05v.1l.35.4zM8.1 31.85l.1.3.05 1.85-2.35 1.2-1.2-1.85-.15-.3.3-.4q.3-.3 1.2-.6z"/><path d="M18.5 41h-4.25l-.5-3.15q-.4-2.7-.65-5.55l-.05-1 2.8-1.2 1.3-.55v.6l3.6-2.35 1.25-.7-.25-.05q-2.95-.75-4.45-2.85l-.05.5-.1 1-.8.35-3.4 2.25q.05-3.2.65-6.4 1-5 4.45-7.9 2.2-1.55 5.15-2.15l5.75-.55q1.2.15 3.1 1l.7.35q1.8 1.15 3.25 2.9l.05.1h.05l.35.55.5.75-.35.2-.05 1.2-.05.5-.6 1.45-.4.75h.45l.6.25.6.35 1.15 1.2q1 1.1 1.15 2l.3.7h.05v.05l.05.1.1.25.4 1.25-.05.65v.1l.9 5.2.85 5.65.15.45v.5l.05.3.1.3.2.65h-4l-.05-.3h-.05l-.05-.2-.05-.2-.2-1.6-.4-2.6-.35-1.95V34l-.05-.2-1.7-8.95-.55-.35-.1.2-.3.2-.3-.25-.7-.7q-1.9-1.35-3.35-1.35l-.95.1-.6.15-.5.3q-1.3.8-1.6 1.6-.2.5-.1 1.5l.15.95.7.75.75.8q.3.65 0 1.05-.25.4-.9.35l-.95-.35-1.05-.8-.35-.65-.1-.15-.2-.4-.05-.2-.6.35-1.65 1.25-.55.2q-1.35.35-3.1 1.55l-1 .8-.25.45-.1.05v.3l.05.4.15 1.35.35 2.85v.05l.4 2.4zm12.9-23.85Q28.6 14.9 26.85 15l-1.95.15-1.85.4q-1.5.35-3.2 2.2-1.65 1.9-2.25 4.9l.4.4q.35.4 1 .65 2.5 1.25 5.4.8l.1-.55.55-1q1-1.65 3-2.2l3.75-.1h.1l1.15-1.8z"/><path fill="#fff" d="m38.35 40.3-.6.35-2 .35H18.5l-.2-1.4-.4-2.4v-.05l-.35-2.85-.15-1.35-.05-.4.1-.35.25-.45 1-.8q1.75-1.2 3.1-1.55l.55-.2L24 27.95l.6-.35.05.2.2.4.1.15.35.65 1.05.8.95.35q.65.05.9-.35.3-.4 0-1.05l-.75-.8-.7-.75-.15-.95q-.1-1 .1-1.5.3-.8 1.6-1.6l.5-.3.6-.15.95-.1q1.45 0 3.35 1.35l.7.7.3.25.3-.2.1-.2.55.35 1.7 8.95.05.2v.15l.35 1.95.4 2.6zM31.4 17.15l1.65 1.7-1.15 1.8h-.1l-3.75.1q-2 .55-3 2.2l-.55 1-.1.55q-2.9.45-5.4-.8-.65-.25-1-.65l-.4-.4q.6-3 2.25-4.9 1.7-1.85 3.2-2.2l1.85-.4 1.95-.15q1.75-.1 4.55 2.15"/></g></svg>