<svg xmlns="http://www.w3.org/2000/svg" xmlns:ffdec="https://www.free-decompiler.com/flash" ffdec:objectType="shape" width="76.2" height="42.05"><path fill="#999" fill-rule="evenodd" d="M63.75 26.1q-.5.15-.7.55-.3.35 0 .95l1 .75.9.8-1.95 2.9q-.75.85-.7 1.35 0 .5.5.8l.9.1.8-.75 1.2-.95 1.2-1q1.25 1.75 2 3.9l.5.85.85.25.7-.5.1-1.25-.95-5.65q.9-.75 1.95-1.2l.75-.4q.7-.65.3-1.3-.25-.4-.85-.5l-1.3-.1-1.3-.05q-.4-1.25-.5-2.75l-.2-1.1q-.3-.7-.9-.45l-.5.5q-.65 1.2-1.15 3.95zM.5.5h75.2v41.05H.5z"/><path fill="#fff" fill-rule="evenodd" d="m63.75 26.1 2.65-.3q.5-2.75 1.15-3.95l.5-.5q.6-.25.9.45l.2 1.1q.1 1.5.5 2.75l1.3.05 1.3.1q.6.1.85.5.4.65-.3 1.3l-.75.4q-1.05.45-1.95 1.2l.95 5.65-.1 1.25-.7.5-.85-.25-.5-.85q-.75-2.15-2-3.9l-1.2 1-1.2.95-.8.75-.9-.1q-.5-.3-.5-.8-.05-.5.7-1.35l1.95-2.9-.9-.8-1-.75q-.3-.6 0-.95.2-.4.7-.55"/><path fill="none" stroke="#999" stroke-linecap="round" stroke-linejoin="round" d="M.5.5h75.2v41.05H.5z"/><path fill="#fff" fill-rule="evenodd" d="M62.15 21.25q-.25-.35-.2-.8t.35-.75.75-.35.8.2l.65 1.05 1.05 2.7.15.8-.25.35-.5-.1-1.05-1.2-1-1.2zm12.2-.6q.15.8-.65 1.6l-1.4 1.1-.8.65q-.45.4-.9.45-.25-.3-.15-.85l.4-.8.7-1.95q.6-1.2 1.55-1.2 1 0 1.25 1M64.25 38.5q-.15-.55.2-1.15l.7-1.05 1-1.7q.25-.25.55-.15l.25.5-.05.55q-.2.75-.15 1.5l-.15 1.55q-.3.75-1.2.85-.9 0-1.15-.9M14.8 6.45l-.1.3-.35.8-.3.5-.1.1-.2-.65.05-.3.3-.9.3-.6z"/><path fill-rule="evenodd" d="m14.55 27.2 1.25-.8v-.5q.1-.6.6-1.1.45-.5 1.05-.6l1.25.1.8.6.1-.05 1.7-.15 1.7-.2q1.2-.25 3.3-1.65l3.15-2.45q1.45-1.45 3.75-5.45 2.15-3.75 3.9-5.25 2.2-1.9 6.2-2.9l7.4-.4q4.1.75 6.45 3.4 1.95 2.15 2.5 5.3.5 3-.45 6l-.95 2.75q-.4 1.65-.05 2.85.55 1.9 2.55 2.9 1.75.85 3.7.6 2-.25 3.45-1.5.3-.2.45-.2.3.05.3.4l-.15.6q-.9 1.3-2.9 1.9-3.3 1.1-6.05 0-1.45-.6-2.55-1.7-1.15-1.2-1.5-2.65-.5-1.9.45-5.3 1-3.75.85-5.35-.15-1.8-1.25-3.55-.85-1.45-2.1-2.15-1.05-.6-2.9-.7l-6.1.45q-3.1.8-5.25 3-1.05 1.1-2.55 3.8l-2.25 3.9q-1.4 2.1-2.8 3.45l-3.35 2.5q-2.85 1.8-4.75 2.25l-1.85.3q-.1 1.05-1.05 1.6l-1.3.25q-.7-.05-1.15-.5-.55.25-1.1.65l-.4-.2-.45-.1q-.25 0-.55-.2l-1.4-.55v-.45l.05-1.65.05-.35.05-.2.1-.65zm-1.4-16.7-.4.05-.7-.25q-.3-.25-.3-.65-.1-.65.55-.9l.3-.2-.1-.25q-.25-.3-.15-.7l.15-.95.95-2.85.15-.35q.35-.35.8-.25l.4.15.25.5.25.4.15.4.3.5.4.6-.05.65-.05 1.25-.2.9q.6.2.7.8t-.55.85l-.7.1-.1.05.25.65q.1.95-.45 1.35-.45.4-1.1.2-.5-.2-.7-.85-.05-.25.2-1.2zm.8-2.35.05.3.5.05.3-1.25v-.8l-.4-.75-.3.6-.3.9-.05.3zM9.3 11l-.8.5q-.55 0-.85-.45-.2-.3-.2-1.2l.05-.3-.8-.05-.6-.15q-.5-.25-.5-.75 0-.55.5-.8l.6-.15.85-.05-.05-.3.05-.5q.15-.65.9-.65h.25l.4.3.05.15.1.35-.1.7.6.1.6.2q.4.3.3.65l-.35.65-.65.2-.25.05.05.5zM7.15 32.05q.35-.25.8-.55l1.95-1.25.05.15.1.05v.1l.05.05-.3 1.25-.15.7-.15.55v.3l-.35-.15-1.25-.75-.1-.15zm8.85.3-2.1 1.55.05-.3.1-.55.05-1 .05-.25 1.1.35zm-5-2.85 2.8-1.85-.4 2-.05.6-.2-.1-1.15-.3-.3-.15-.65-.2zm2.15 4.95-.5.35-.7-.25-.6-.1-.2-.15-.55-.3v-.1l.05-.7.1-.35v-.35q-.1-.75.05-1.25v-.35h.15l.55.2.95.1.3.2.35.1-.05.2-.25 1.15.05.1-.15.55-.05.35.4.55zM9.5 37.1q-1.3.85-2.25.8-.85-.05-1.55-.65-.65-.55-.8-1.4-.15-1.4.9-2.6l.75-.7v.15l.05.4q.2.25.85.4l.45.25 1.4.6L8.95 36l-.05.5.4.5zm2.25-1.65L10.3 36.5l-.1.1v-.05l.25-1 .05-.6.45.25z"/></svg>