<svg xmlns="http://www.w3.org/2000/svg" xmlns:ffdec="https://www.free-decompiler.com/flash" ffdec:objectType="shape" width="69" height="39.8"><g fill-rule="evenodd"><path fill="#999" d="M51.8 18.95q-.75-1-1.2-2.8-.5-2.55.4-4.75.7-1.75 2.15-2.75l1.6-1.95.55-.55.85-.55.6-.5q.55-.4 1.2-.3.65.05 1.05.55.3.35.65 1.9l.2.8q2.05.85 3.4 2.7l.75 1.3 1.25.15q1.25.2 1.7.95.35.6.25 1.65l-.1.6-.45.75-1.2 1.65-1.85 1.15-.05.1-1.6 1.8-2.2.95-1.8.35-1.85-.35-.2 3.05 1.1.05q.9.15 2.15.95l2 1.35q1.3.7 2.15.3-.5-1.2-.7-2.35l-.15-1.25q.1-1.8 1.45-2.7 1.35-1.05 3-.55 1.35.4 1.9 1.6.5 1.4-.35 2.4-.45.45-1.1.55l-1.2-.25.3 2.45q-.1 1.45-.9 2.25-.6.6-1.45.75-1.7.45-3.4-.3-1.4-.6-2.8-2-.8-.9-1.3-1.05l-1.2.05q-.55 1.85-1.6 3.2l-1.5 1.2q-1.4.45-2.25-.65-.9-1.1-.25-2.35l.5-.7-.65.65-1.45.4-1.4-.45q-1.35-1.1-.85-2.75l.8-1.2 1.1-1.05 1.6-1.7 1.45-1.75.95-.9zm1.55-5.4 1.4.3 1.3-.55q.55-.5.65-1.25.15-.75-.2-1.4t-1.05-.95l-1.4-.15q-.9.25-1.4 1.1-.5.8-.15 1.75zm7.45 1.3q-.7-.05-1.3.4-.65.45-.9 1.15t0 1.4q.2.7.8 1.15.65.5 1.55.45t1.45-.6q.6-.6.65-1.5.1-.85-.4-1.55-.75-.9-1.85-.9m-43.6 4.1-.05.1.95.9 1.45 1.75 1.6 1.7 1.1 1.05.8 1.2q.5 1.65-.85 2.75l-1.4.45q-.8 0-1.45-.4l-.65-.65.5.7q.65 1.25-.25 2.35-.85 1.1-2.25.65l-1.5-1.2q-1.05-1.35-1.6-3.2l-1.2-.05q-.5.15-1.3 1.05-1.4 1.4-2.8 2-1.7.75-3.4.3-.85-.15-1.45-.75-.8-.8-.9-2.25l.3-2.45-1.2.25q-.65-.1-1.1-.55-.85-1-.35-2.4.55-1.2 1.9-1.6 1.65-.5 3 .55 1.35.9 1.45 2.7l-.15 1.25-.7 2.35q.85.4 2.15-.3l2-1.35q1.25-.8 2.15-.95l1.1-.05q-.25-1.75-.2-3.05l-1.85.35-1.8-.35-2.2-.95-1.6-1.8-.05-.1q-1.1-.4-1.85-1.15l-1.2-1.65q-.3-.3-.45-.75l-.1-.6q-.1-1.05.25-1.65.45-.75 1.7-.95L5 12.05l.75-1.3q1.35-1.85 3.4-2.7l.2-.8q.35-1.55.65-1.9.4-.5 1.05-.55.65-.1 1.2.3l.6.5.85.55.55.55 1.6 1.95q1.45 1 2.15 2.75.9 2.2.4 4.75-.45 1.8-1.2 2.8m-7.3-1.6q.2-.65-.05-1.4-.3-.75-.9-1.15-.65-.4-1.4-.35-.8.05-1.35.55t-.75 1.25q-.15.8.15 1.45l1 1.05L8 19q.7-.05 1.2-.55.55-.45.7-1.1M12.25 8q-1 .35-1.5 1.2-.5.9-.15 1.9.5 1.35 1.9 1.6l1.4-.2 1.05-.95q.35-.6.3-1.35t-.45-1.3-1.1-.8z"/><path fill="#fff" d="M60.8 14.85q1.1 0 1.85.9.5.7.4 1.55-.05.9-.65 1.5-.55.55-1.45.6t-1.55-.45q-.6-.45-.8-1.15-.25-.7 0-1.4t.9-1.15q.6-.45 1.3-.4m-7.45-1.3-.85-1.15q-.35-.95.15-1.75.5-.85 1.4-1.1l1.4.15q.7.3 1.05.95t.2 1.4q-.1.75-.65 1.25l-1.3.55zM12.25 8l1.45.1q.7.25 1.1.8t.45 1.3-.3 1.35l-1.05.95-1.4.2q-1.4-.25-1.9-1.6-.35-1 .15-1.9.5-.85 1.5-1.2M9.9 17.35q-.15.65-.7 1.1-.5.5-1.2.55l-1.4-.25-1-1.05q-.3-.65-.15-1.45.2-.75.75-1.25t1.35-.55q.75-.05 1.4.35.6.4.9 1.15.25.75.05 1.4"/><path d="M45.9 10.55q1.2 3.65.55 6.3l-.3.9 2.15 1q3.05 1.95 5.25 4.9 2.2 3 3 6.5l.7 4.6v1.9q-.15 1.05-.9 1.65-.55.35-1.3.3l-.1.1-4.05.2-4.7-.6-4 .35-4.3.45-.75.35-2.6-.05q-8.8.5-16.25-.25l-2.05-.35-.5.4q-1.15.9-2.55.45l-.55-.05q-1.35-.3-1.95-1.8-.35-1-.15-2.75.05-.6.25-1.25l-.2.15q-1.1 1.2-2.55 1.8-1.5.65-3 .35-2.5-.55-3.7-2.9-1.1-2.1-.6-4.75.55-2.65 2.35-3.9.5-.4 1.4-.65l1.7-.2q.85.1 1.5.75.65.6.8 1.45.1.85-.3 1.7-.4.8-1.15 1.2l-.9.6q-.5.6-.15 1.35l.55.55.8-.25 1.5-1.2q.9-.65 1.7-.8h.55l.45-.05.8.05.85-2L15 23.6q1.45-2.1 3.65-3.75 1.65-1.15 3-1.55-.55-1-.8-2.1-.35-1.6.1-3.65l.25-.95q-.85-3.15-.7-6.35.1-1 .3-1.25.3-.4.9-.6l1.1-.1 1.55.05 1.55.35 1.05.3.25.1 2.15-.8q3.3-1 6.3-.75l.4-.3 2.2-1.4q1.55-1 2.45-.8.75.15 1.35.9l.75 1.4 1.55 3.8.65 2.1zm-23.75 1.6q-.3 1.25.5 2.4l.05.05.05-.1q.5-.4.85-.5l.9-.25.55-.05 1.6.05.6.3.1.05q.45-.9.2-1.9-.3-1.35-1.55-1.9l-2.15-.05q-1.1.4-1.5 1.45zm9.8 2.05-.55-.1-.65-.2-.2-.3q.2-.15-.05-.4-.25-.1-.35.1l-.3.4-.15.4.35.8.35.3.65.45 1.15.2q.8-.05 1.7-.7l1.45.5 1.55-.25.6-.4.35-.45.1-.45-.1-.8q-.2-.45-.6-.35l-.4.35-.25.5-.65.25q-.55.15-1.1-.3l-.5-.4-.5-.1-.45.1-.4.45-.65.3zM39.3 11l-.05.4q0 .8.5 1.55l.15.2.4-.2.75-.2 2.45-.1.35.05.5.2q.85-1.35.1-2.8Q43.6 8.65 42 8.65l-.05.05q-1 0-1.75.65-.75.6-.9 1.65"/><path fill="#fff" d="M39.3 11q.15-1.05.9-1.65.75-.65 1.75-.65l.05-.05q1.6 0 2.45 1.45.75 1.45-.1 2.8l-.5-.2-.35-.05-2.45.1-.75.2-.4.2-.15-.2q-.5-.75-.5-1.55zm-7.35 3.2.4-.1.65-.3.4-.45.45-.1.5.1.5.4q.55.45 1.1.3l.65-.25.25-.5.4-.35q.4-.1.6.35l.1.8-.1.45-.35.45-.6.4-1.55.25-1.45-.5q-.9.65-1.7.7l-1.15-.2-.65-.45-.35-.3-.35-.8.15-.4.3-.4q.1-.2.35-.1.25.25.05.4l.2.3.65.2zm-9.8-2.05.2-.45q.4-1.05 1.5-1.45l2.15.05q1.25.55 1.55 1.9.25 1-.2 1.9l-.1-.05-.6-.3-1.6-.05-.55.05-.9.25q-.35.1-.85.5l-.05.1-.05-.05q-.8-1.15-.5-2.4"/></g></svg>