<svg xmlns="http://www.w3.org/2000/svg" xmlns:ffdec="https://www.free-decompiler.com/flash" ffdec:objectType="shape" width="76.8" height="42.15"><g fill-rule="evenodd"><path fill="#767676" d="M28.5 7.2q.9 3.6.8 5.85l-1.55-2.55-3.15-5.85q-2.1-3.2-4.6-4.6h5.3q2 2.7 3.2 7.15m12.75 1.7q.85 2.55 1.1 4.25 1 6.05-2.4 12.9l-2.15 3.7q.7-2.05.75-3.55 0-1.7-.7-2.55l-.15-.15q1.7-3.85 1.8-7.45.1-3.2-1.25-7.65L36.6 4.25l-.05-.1-1.65-.25q-1-.4-1.4-1.45-.35-1.05.35-1.85L33.3.05h4.4l.3.3q.5.5.55 1.2.1.8-.3 1.4 1.75 2.4 3 5.95m-10.8 8.95q.35-.65.55-2.6l.35-4.4-.1-2.25-.1-.65-.65-3.05-.5-1.4-.55-1.45L28.3.15l-.1-.1h2.15l.5.5Q32.55 2 33.9 4q3.85 5.7 4.05 13 .05 3.1-.55 6.15l-1.35-.75-3.5-1.35q-1.95-.7-3.1-1.5zM7.4 2.75l.15-.4L9.7.05h2.9L10.75 1.2 8.5 2.75l-.65.35q-.45.05-.45-.35M54.65.4q0 .95-1 2.15L52.5 3.6l-1.3.45q-.9.2-1.3.5l.75 1.9q.25 1.15-.5 1.9l-.8.7q-.35.4-.5 1.25l-.3 1.35Q48 12.8 46.7 12.8t-1.8-1.15q-.3-.55-.2-1.25.1-1.2 1-2.2.8-1 2-1.5l.35-.25L48 6.1l-.35-1.55q0-1 .5-1.45l.8-.5 1.6-.3 1.05-.2.6-.45 1-1.4.1-.2h1.35zm14.85 9 .4-.75.2-.6.45-.75.3-.85.4-.65.2-.65q.2-.55.75-1.2l1.2-1q.75-.4 1.5-.35 1.15.1 1.6 1 .55.9.15 1.85-.4.85-2.05 1.65l-1.05.4-.6.1-.7.45-.4.15-.3.25-1.2.95-.35.3q-.4.2-.5-.3m.4-5.65q-.55.1-.9-.35-.3-.45-.15-.95.15-.75.95-.75l.6.2q.4.3.4.8l-.25.7q-.25.35-.65.35m1.5 13.55q.1 1-.7 1.95-.95 1.2-2.65 1.35h-1.2l-.85-.15-.8-.15-1.2-.45q-1.05-.65-1.25-1.65l-1.3.95Q59.9 20.5 59 20.65q-1.3.15-3.2-1.5l-1.3-1.1-.55-.35-.65.15-2.95 1.35-1.2.65-.85.7-1.25.2q-.7-.2-1.05-.75-.35-.6-.15-1.3t.8-1.05l1.15-.35 1-.45 2.05-1q1.2-.6 1.9-.6.95.05 2.4 1.2l1.55 1.25q1.1.9 1.95 1.15l.75.05 1.45-.65 1.95-1.3.4-1 .15-.2.4-.6q.35-.3.8-.25.5 0 .8.35.25-.4.85-.65 1.75-.8 3.5.3l.4.35.2.15.8 1zM55.65 33.2l-.2-.2-.2-.3q-.55-1.15.1-2.3.4-.6 1.1-.9l.1-.35q.3-.9.75-1.65l-1.3-2-.5-.55-.7-.05-2.3.65-2.2.95-.95.4-1.25.75-1.4-.1q-.6-.35-1.05-1.05l-.5-.85-.85-.65q-.45-.35-.6-.95-.2-.55 0-1.1.4-1.25 1.75-1.25t1.75 1.25l.3 1.1.4.65.35.45.4-.05 3-1.3 3.05-1 1.95.1q.55.25 1.4 1.35l1.4 2.3.2.9-.45.85-.75.95 1.1.1q.55.3.65 1v.4l.1.2.15.6q.2.55 0 1.4l-.25.75q-.6 1.25-1.95 1.4L57 34.9l-.5-.2q-.65-.45-.8-1.2zm6.25-7.3q.7-.55 1.55-.55 1.05-.1 1.8.75.7.75.6 1.85-.05.75-.5 1.35l-1.2.85-1.6-.1q-.85-.35-1.2-1.1-.4-.75-.25-1.6.15-.9.8-1.45M75.25 33l1 1.35q.5 1.3-.5 2.4-.4.45-1.05.6l-1.25-.15q-.7-.3-1.55-1.45l-1.5-2.55-.25-.6q-.35-.75-1.1-1.3l-.75-.45-.15-.45.3-.4.7-.2L71.9 31l.95.2q.45.15.95.55zM70 39.25q-.6.55-1.5.45-1.35-.25-1.5-1.5-.15-1.3 1-1.9l1.2-.1q.65.15 1.05.7.35.5.3 1.2zm-38.85-.95q.2.7-.35.95-.3.2-1 0-1.9-.65-3.4-1.7-1.15-.8-1.55-.9l-.9-.3q-.25-.2-.35-.85l-.1-1.1-.3-.7-.6-.1-1.45.05-1.4-.25-.45-.7-1.7-3.75-.35-.95q0-.65.4-.9-.2-.3-.9-.35-.75-.05-1-.3l-.3-.9-.4-2.1-.15-1.4q-.25-1.1.55-2.25.55-.85 1.9-1.9l2.3-1.85q1.4-1.05 2.1-1.2l1.65.1.3-.2q1-.3 1.5.25l.25.65v.75l-.45.65-.25.35v.15l1.6 2.2q1.6 1.95 2.35 2.55 1.9 1.65 6.4 3.1l1.15.65q.55.7-.2 2.1l-2.5 4.55q-1.8 2.95-2.55 4.55l-.2.45zM6.5 9.2q1.1-.25 1.9.55l.5.75.65 2.05.5 2.05.35.85L12.25 20q.5.1.95.45.6.5.6 1.2l-.35 1.5-.25.5-.3.35.15.55q.45.9-.05 1.9-.55.85-1.6 1.1l-1.7-.25q-1.35.7-2.1 1.2l-1.15.65-1.05.4-.9.9-1.6.65-1.15.05q-.65-.05-1.1-.55-.5-.45-.6-1.05-.1-.65.15-1.25.3-.6.85-.9l1.2-.4 1.15-.1.85.1 1.05-.25 1.05-.25.7-.05 1.4-.4-.65-.95q-.3-.7-.2-1.55l.2-.75.55-1.2q.5-.65 1.75-1.25l.25-.1-1.9-3.35q-1.3-2.25-2.5-3.5l-.85-1q-.55-.9-.1-1.95.45-1 1.5-1.25m.35 14.1-.25.15-.95-.15q-.4-.4-.25-.95t.75-.65l.1-.05.65.3q.4.4.15 1.15zm5 7.2q.2.45.05.95-.25.9-1.15 1.15l-1-.1-.75-.65q-.6-1 .2-1.9l.85-.45 1 .1zm4.25 3.3.6.2.45-.1 1.55-.05q.85.15 1.4.7.55.6.7 1.55l.15 1.6-.25.85-.8 1.2-1.2.75-.95.05-2-.3-1.7-1.25-.4-.35q-.45-.45-.65-1.35v-.15l-2.35 1.1-6.05 3.1-1.05.45-1.1-.15-.85-.75q-.3-.5-.2-1.15.05-.6.45-1 .5-.45 1.6-.75l4-.55 4.85-1.35.85-.2v-.05q.35-1.1 1.1-1.65.9-.7 1.85-.4m18.35-6.5-.45-.25.3.55z"/><path fill="#fff" d="m70.1 15.25.65-.3 1.75-.1q.55.3.45 1.1-.2.7-.75 1l-.8.35-.3-.9-.8-1zm-11.45 3.6.15-.5 1-.75q1.2-.7 2.65-1.35l.75-.45.15-.05-.15.2-.4 1-1.95 1.3-1.45.65z"/><path d="M31.85 3.25Q30.3 1.8 30.25.05h6.05l-.55.5q-.65.75-1.15 1.75l-.6.85-.2.3-.45.85zM55.3 6.1q.8-1.7 2.35-2.55l.1-.6q.3-1.75 1.15-2.4.55-.45 1.25-.5h.55l1.75.65q1.2.65 1.55 1.6l.15.65h.05q1.5.45 2.5 1.95.8 1.2 1.15 3.05l.15 1.4q1.9 1.15 2.85 2.8 1.25 2.1 1.05 5.75l-.2 1.5q-.5 1.9-3 3.45-1.25.75-2.35 1l-.5.7q-.3.6-.3.9-.05.5.25 1.6l1.45-.15 1.25-.9.9-1 .7-1.1q.45-.6 1-.75l1.1.15.45.3v.5l-.35.15h-.4q-.4.1-.6.85-.5 1.4-1.95 2.85l-.9.65q-.95.55-2.65.45l-.95-.15-.55-.5-.35-.5-.2-.65-.3-1.95q0-.9.5-1.8l-1.4-1q-.8-.9-1.05-1.7v-.1l.3-.15 2.85-1.8.45-.3.3.35.6.55 1.6-.2L70 17.9l.7-.6.05-.6-.3.05-1.85.45-.3.15-.3.05-.25.1-.55.05-.45-.05-.3-.4-.3-.5-1-1.2-2.1.8-.7.25-.85.6v-.5l.15-1.15h-.85q-2.35-.1-3.7-1.05l-.3-.25-.05.05q-.8.55-1.75.55-1.9.2-2.65-1.15-.35-.7-.25-2 .1-1.1.35-1.6.55-1.1 1.7-1.5l.65-.1zM43.65 2.35l-.25.45 1 1.3q.6 1.1.45 2.4l-.35 1.05-.9.95-.95.45-1.15.1-1.75.3q-.85.3-1.4 1.1-.3.45-.15.85l.15.35v.3q-.1.25-.45.15l-.35-.35-.3-.7-.05-.95q.15-.85.95-1.6 1.5-1.3 3.35-1.55l.9-.2q.7-.55.2-1.5l-.85-.75Q40.2 5.6 38.3 5.6l-2.85-.45.2-.3.45-.85.05-.25.4-2.45q.15-.9.6-1.25h6.6q.45 1.2-.1 2.3m16 7.3-.65-.8q-.5-.35-1-.35-1.25 0-1.7 1.15-.5 1.1.4 2 .45.4 1.1.5l1.2-.3.7-.95q.15-.65-.05-1.25m3.5.55.05-.65-.05-.65-.1-.35.1-.15.9-.7q.5-.3.5-.7t-.5-.5l-.05.05-.4.2q-.9.55-1.25.85l-.05.05-.7-.4h-.65q-.4.1-.4.45l.25.5.45.6.65.45h.05l.05.45.25.8.3.3h.4q.2-.1.2-.6m-.7-6.35-.2-.55q-.4-.55-1.05-.65t-1.2.3q-.75.65-.5 1.6.25 1 1.2 1.15 1 .15 1.55-.65l.25-.6zm.45 33.4q-.5 2.25-2.05 3.8H38.8l.4-.5-.4-.7-.55-1.25q-.3-1.3.15-2.45.7-2.1 2.7-2.8l1.05-.4 1.3-1.15.55-.85q.1-.45-.2-1.25l-.35-.75-.45-.6q0-.45.5-.55.4-.05.75.2.8.55 1.3 2.35l.15.95-.35.95-1.2 1.85-1.1 1.1-1.15 1.05q-.45.45-.5.85-.05.55.4 1.2l.5.75 1.35-.25q1.05-.3 2.9-1.75l-.05-1.2q.1-1.45.3-2.15l.95-1.8 1.55-2.2-.2-1.05q-.05-1.8 1.2-3.25l.95-.8 1.25-.55 1.45-.05q1.5.3 2.55 1.6.85 1.2.85 2.35l.25.1.3.15-.45.4q-.4.25-.5.4l-.15.5v.05l.2.25.95 1.15.3.65-.2.65-1.15 1.7.45.1.85-.3.05-.05.55-.65q.65-.8 1.25-1.1l-.6-1.3-.1-.25-.05-.25.4-.55.3-.25.7.45q.95-.55 2.4-.45l.95.05q.85.15 1.6.6 1.25.75 1.55 2.15.3 1.35-.45 2.5l-.5.65-.6.6-2.1 1.1-.6.15zm-4.05 1.4 2.15-.1.6-.95q.2-.65-.05-1.15Q61 35.2 59.7 35.3q-.55.1-1 .5-.5.4-.6.95-.25 1.15.75 1.9m-2.9.4.2-.3.4-.6.35-.8.4-.9q0-.6-.6-.7l-.45.25-.35.4-.35.3-.3.6-.4.05-2.8.45q-.25.2-.2.45l.45.35 2.5.3-.1 1.2.1.65q.15.35.55.25l.35-.4zm-4.1-6.8q-.1.3.2.5l.45.4.25.2-1.6.35-.45.2q-.25.15-.25.45.05.4.75.5l2.65.25 1.2-.25q.4-.3.3-.85-.1-.5-.5-.7h-.05l-.2-.25q-.5-.6-1.1-.9-.8-.5-1.3-.25-.3.1-.35.35m-37.6.5q-1.75-3.15-2.8-6.65-.55-1.75-.4-2.9.2-1.2 1.55-2.8 2-2.3 4.4-4.05l-.65-.35-2.25-1.65-.95-.8-.9-1.85-.3-1V9.2q.05-1.35.45-2.05l.9-1.05q1.4-1.2 2.95-1.45 1.8-.35 3.1.65.7.5 1.25 1.5l.9 1.8q1 2 2.35 4.1l.05.1 1 .05.75 1.25q.65 1.5 2.85 3.4 3.5 2.95 6.15 3.9l2.7.9q1.55.6 2.3 1.55.75 1 .7 2.25 0 1.5-1.6 4l-4.25 6.7q-1.4 2.05-1.9 3.35l-.85 1.55q-.55.45-1.7.45-3.35 0-7.45-1.75l-3.75-2q-2.5-1.95-4.6-5.65m-.1-7.65q1.35 4 4.2 8.15l1.9 2.3 2.25 1.55q2.25 1.3 3.5 1.8 2 .8 3.8.65 3.75-6.3 7.25-11.4 1.05-1.5.65-2.45-.35-.7-2.05-1.2-3.55-.9-6.55-3.4-3.05-2.4-4.7-5.75-3.6 1.25-7.1 4.4l-2.45 2.45q-.8.9-.9 1.45-.15.55.2 1.45m21.3 3.25q-.4 1.1-1.25 1.4l-1.6-.15q-.5-.3-.6-.8-.35-.95.5-2.05.35-.65 1.05-.8.65-.2 1.45.45l.45.5q.35.6 0 1.45"/><path fill="#fff" d="m62.45 3.85.05.6-.25.6q-.55.8-1.55.65-.95-.15-1.2-1.15-.25-.95.5-1.6.55-.4 1.2-.3t1.05.65zm.7 6.35q0 .5-.2.6h-.4l-.3-.3-.25-.8-.05-.45h-.05l-.65-.45-.45-.6-.25-.5q0-.35.4-.45h.65l.7.4.05-.05q.35-.3 1.25-.85l.4-.2.05-.05q.5.1.5.5t-.5.7l-.9.7-.1.15.1.35.05.65zm-3.5-.55q.2.6.05 1.25l-.7.95-1.2.3q-.65-.1-1.1-.5-.9-.9-.4-2Q56.75 8.5 58 8.5q.5 0 1 .35zm-7.8 22.6q.05-.25.35-.35.5-.25 1.3.25.6.3 1.1.9l.2.25h.05q.4.2.5.7.1.55-.3.85l-1.2.25-2.65-.25q-.7-.1-.75-.5 0-.3.25-.45l.45-.2 1.6-.35-.25-.2-.45-.4q-.3-.2-.2-.5m4.1 6.8-.25 1.55-.35.4q-.4.1-.55-.25l-.1-.65.1-1.2-2.5-.3-.45-.35q-.05-.25.2-.45l2.8-.45.4-.05.3-.6.35-.3.35-.4.45-.25q.6.1.6.7l-.4.9-.35.8-.4.6zm2.9-.4q-1-.75-.75-1.9.1-.55.6-.95.45-.4 1-.5 1.3-.1 1.85 1.15.25.5.05 1.15l-.6.95z"/></g></svg>