<svg xmlns="http://www.w3.org/2000/svg" xmlns:ffdec="https://www.free-decompiler.com/flash" ffdec:objectType="shape" width="77.25" height="45.1"><g fill-rule="evenodd"><path fill="#999" d="m34.5 6.75.15.05q2.2 3.15 4.05 6.6l.4.7q1.3-.6 2.85-.9l3.25-.4q3.9.5 5.65 3.7v.65q-.75 1.45-2.55.85l-3.35-1.15-3.35-.35-1.15.15 2 3.6 2.5 4.6L50 33.7q2.45 4.25 4.2 8.75.2.55 0 1.1-1.1 2.35-3.45 1.1-.8-.45-1.25-1.3l-4.65-9.2q-2.15-3.9-3.95-8-1.15-2.55-1.95-5.15l-.4-.8-.1-.65-1-2.2-1.85.6-.35.25-.3.15-.25.3-.15.15-.05.15-.3.3-.2.1-.15.1-.05.1-.05.05h-.2l-.1-.05-.05-.15-.05-.2v-.1l-.05-.05q1.4-2.15 3.3-3.5l-.15-.35-.65-1.95-.05-.1-.05-.05-.25-1-.35-.8v-.2l-.6-1.5q-.15-.45-.15-.95l-.15-.35v-.45l-.05-.1-.05-.2V7.2l.05-.25.1-.1.05-.05zm11.25 16.2.5.4.15.2.15.4.25.4 2.15 3.15.65 1.1 1.85 2.65.5.9 5.75 8.55q1.05 1.65-.8 2.35-.6.25-1.1-.2-1.2-1.05-1.75-2.55l-1.9-3.45-.65-1.55-.95-1.6-.3-.8-1.6-2.65-.55-1-.15-.45-.3-.4q-.2-.85-.75-1.6l-.35-.65-.15-.25-.1-.2-.55-1.15-.25-.6-.1-.1-.05-.1v-.45l.15-.25zm-33.65-1.4q3.9.3 7.45 1.9l2.15 1.2.05.1v.1l.1.05.1.1.1.1.05.1v.25l-.05.1-.05.05h-.05l-.1.05h-.15l-.4-.05h-.2l-.15-.1-.05-.05q-5.15-1.8-10.6-.6-4.8 1.1-8.3 4.55-.95.95-2 .55v-4.4l.2-.15q5.35-3.8 11.9-3.85"/><path fill="#fff" d="M65.85 21.85q3.25.35 3.4 3.4.05 2-1.7 3-2.35 1.3-4.2-.65-1.5-1.7-.55-3.7.95-1.95 3.05-2.05"/><path d="M32.15 24.05q1.8-3.65 5.75-5.35 1.7-.7 3.5-.75l1.6-.15 3.2.35.05-1.3q.65-5.45 5.3-8.65l.9-.55q1.6-1.75 3.65-3.15l2.35-1.6q1.95-1.3 4.1-2 2.25.6 2.55 3.05l.2 2.15v.2l2.5 1.55Q70.05 9.6 71.6 12q1.7 2.6 2.25 5.45 1.8 1.15 2.9 3.2.45.8.5 1.7.15 1.65-1.35 2.6l-1.05.75q-1.4 1.15-3 1.95-1.25 1.95-3.15 3.55-2.05 1.7-4.7 2.1-5.6.9-9.95-2.35L50.6 28l-1-1.25q-1-.8-2.25-1l-2.55.3q-2.1.9-3.45 2.85l-1.9 3.8q-1 1.85-2.45 3.3-2.15 2.2-5.15 2.7-3.8.7-7.6 0-5.65-1.05-9.1 3.35l-.7.65-.65.9q-.3.45-.85.5-2.25.3-2.65-1.5l-.8.95q-.85 1-1.85.15l-.6-.8-.45.05q-.75 1.15-2.7 1.2-.9 0-1.5-.65-1.6-1.85-.85-4.25l.1-.25-.55-.2-.6-.25-.5-.65v-4.5q.5-1.05 1.6-1.95 1.55-1.4 3.4-2.4 4.75-2.65 10.2-2.4 4.2.2 8.3 1.1l6.4-.3 1-.8.2.45.05.1.05.1.15.15.05.1.05.15.4.85.15.4.05.1.1.1.05.1.8 1.6.9 1.85.05.05.3.05h.05q.45-.9.05-1.9L33.6 29v-.25l-.05-.2-.1-.15v-.2l-.6-2.05zm21.8-8.1V16q-.4.05-.7.4l-.15.6-.05 1.35.15.35.3.9v.15q1.45 2.35 4.25 2.4l-.25.95q-.25 1.25.2 2.4l.05.25.15.4q.45 1.1 1.35 1.9 1.9 1.7 3.45-.05v-.05l-.05-.2v-.15l-.3-.35q-1.7-.7-2.55-2.2-.35-.8-.1-1.6l.25-.45q1.1-1.3.55-2.7l-.4-.25q-3.05.1-5.3-1.8l-.05-.2-.25-.35-.05-.5-.2-1.1-.1-.05zm3.35-7.7q-1.85.05-2.8 1.7-1.35 2.2.45 4.1 1.6 1.65 3.7.7 2-.85 1.95-3-.05-3.1-3.3-3.5M68.25 20.9q-2.05.1-3 1.95-1.05 2 .4 3.7 1.7 2 4.1.85 1.65-.75 1.8-2.55.2-3.45-3.3-3.95M11.9 2.2q4.95-.25 6.85 4.2 2.15 5.1-.45 9.95-.9 1.7-2.65 2.7-2.35 1.35-4.85 1.55l-.3.1-3.85.95q-2.4.25-3.3 2.6Q2.6 26.3 1.2 27.8l-.4.05-.35-.35-.05-.35.05-.2q-.2-.85.05-1.75l.3-.9v-.05l-.35-.6-.25-.95q-.65-3.55 2.1-6.05 3.4-3.15 8.2-2.25l.85-.05q1.9-.45 2.15-2.45l-.05-.1-.05-.15-.1-.3-.05-.15q-4.1.65-6.05-2.85-.45-.75-.25-1.6.95-3.9 4.95-4.55"/><path fill="#999" d="m30.9 26.65-1.4-3-.9-2.05-.75-1.75-.6-1.7-3-7.3.55 2 1.2 3.9.5 2.35.25.6.1 1.15.3 1.5q.15.85-.05 1.6L27 24l-.1.05-.35-.15-.05-.15-.1-.3-.05-.45-.05-.05-.05-.1-.05-.1-.15-.15-.15-.45-.5-.9v-.1l-.05-.1v-.15l-.05-.1-.1-.15-.1-.2-.1-.1v-.15l-2.2-5.1-.9-2.4-1.65-4.1-.7-2.25q-1-2-1.45-4.15-.15-.5.25-.95.55-.6 1.35-.65 1.1.35 1.7 1.1l.15-.5q.35-.8 1.2-1.05l.6-.15q2.6.85 2.95 3.75l.4 1.7q.95 2.4 1.3 4.9l.65 1.85.4 1.9.1.15.1.3.05.35 1.65 5.7.95 2.9.25.55.7 2.1.6 2.05v.2l.1.15.05.2V29l.75 1.9q.4 1-.05 1.9h-.05l-.3-.05-.05-.05-.9-1.85-.8-1.6-.05-.1-.1-.1-.05-.1-.15-.4-.4-.85-.05-.15-.05-.1-.15-.15-.05-.1-.05-.1zm10.25 6.15.2.1.1.05.5 2.4-.1 1q-.85 4.7-5.5 6.65-3.9 1.65-8.05.8-.4-.1-.5-.5-.3-1.5 1.3-1.55 3.05-.2 6-1.25 3.5-1.25 4.95-4.5l.3-.5.2-1.75.3-.8.05-.05.2-.05z"/><path fill="#fff" d="M68.25 20.9q3.5.5 3.3 3.95-.15 1.8-1.8 2.55-2.4 1.15-4.1-.85-1.45-1.7-.4-3.7.95-1.85 3-1.95M57.3 8.25q3.25.4 3.3 3.5.05 2.15-1.95 3-2.1.95-3.7-.7-1.8-1.9-.45-4.1.95-1.65 2.8-1.7m-3.35 7.7.2.1.1.05.2 1.1.05.5.25.35.05.2q2.25 1.9 5.3 1.8l.4.25q.55 1.4-.55 2.7l-.25.45q-.25.8.1 1.6.85 1.5 2.55 2.2l.3.35v.15l.05.2V28q-1.55 1.75-3.45.05-.9-.8-1.35-1.9l-.15-.4-.05-.25q-.45-1.15-.2-2.4l.25-.95q-2.8-.05-4.25-2.4v-.15l-.3-.9-.15-.35.05-1.35.15-.6q.3-.35.7-.4z"/></g></svg>