<svg xmlns="http://www.w3.org/2000/svg" xmlns:ffdec="https://www.free-decompiler.com/flash" ffdec:objectType="shape" width="77.4" height="42.65"><g fill-rule="evenodd"><path fill="#999" d="m8.85 7.4.85.1.3.1.05.1.05.1v.3l-.1.1-.05.05q-3.7 1.45-6.2 4.65l-.05.1-2.05 2.55-.4-.05q-.6-1 .15-2.1l-.1-.05q-.5-.3-.45-.9.1-.95.7-1.65l-.45-.3Q.3 9.75 1 8.85q2.8-3.5 6.95-5.3 3.2-1.35 6.6-1.9h.15l.15.05.15.1.05.2v.05l-.05.1-.1.15q-4 1.35-7.5 3.75-2 1.4-3.7 3.15 2.4-1.35 5.15-1.8m21.55-6q.15.05.25.15l1.9.05.5.25h.3l.45-.15q.6-1 2-1.3.75 0 1.4.55l.5.75.05.25.05-.25.5-.75Q38.95.4 39.7.4q1.4.35 2.05 1.3l.4.15h.3l.5-.25.9-.15-.05.05q-.55 1.1-.05 2.1l.05-.05 3.25-.15 1.25.1.15-.9q0-.95-.4-1.55l.1-.05Q49.3.65 50.4 1l.25-.1.95-.2.85.05q3.2.25 4.85 2.9l.8-.05.75.1q3.5.55 6.3 2.65l.05.15v.15l-.05.1-.05.05-.05.05-.15.05-1.2-.2-3.6.25-.2.1q2.85.35 5.35 1.7l.7.35.3.25.15.35v.1l-.05.1-.05.05-.05.1-.1.05h-.3l-.1-.05-.05-.05-3.6-.05-.85.1-2 .45 2.05.5q1.5.25 2.55 1.2l.05.05v.05l-.05.05v.15l-.05.05-.15.1-.2.05-.75-.15q-2.55-.15-5 .8l-.5.15h1.05q2.35.25 4.45 1.45 4.3 2.5 6.35 6.95 1.7 3.85 2 7.95.1 1.95-.55 3.65.8 2.05.6 4.3-.1 1.25-1.15 1.85-.3.15-.55-.15-.95-1.15-1.35-2.6L66.4 38q-.15 1.55-1 3.05-.5.95-1.5.7-.6-.15-.7-.8l-.25-2.1-1.9-.15-.35.65q-.7 1.15-1.95 1.55-1.2.35-1-.85l-.1-1.4.1-1.5q-.9-.65-1.5-1.45h-.15l-1.65.25q-1.35.3-2.2-.6-.2-.25-.05-.5.75-1.15 1.8-1.8l.1-.1.85-.75v-.95l.1-.8-2.3 1.75-.95.65-.15.1-.4.05-.3-.15v-.35q3.2-2.6 4.3-6.6.65-2.4.05-4.7l-.25-.7-1.5-.35q1.7 3.75-.25 7.6-1.55 3.1-4.3 5.1 1.55 2 2.6 4.35l.95 2.7q.45 1.8-.8 2.75H48.5l-1.8-1.4q-.9.25-1.55-.4-.9-.9-1.35-2.1l-1.4-2.85-.4-.9-.35-.05q-1.2-.15-1.8-1.2-1.4-2.2.7-3.85l.7-.3q3-.2 5.25-2.1 3.5-2.9 2.4-7.2l-.05-.3-.5-.3q-1-.75-.9-2 .15-2 1.8-2.5-.25-.75.05-1.75l-2.05-.25q1.6-1.05 2.65-2.85.6-1 .3-2.15-.6-2.65-3.45-2.8h-.55l-.85.1-1.8.4 1.15 1.55 1 1.25q1.45 1.35.4 2.8l-.2.1q-.95-.2-1.55-1L43 8.9q-1-1.15-1.55-2.55l-1.6.35-1.95.35V8.7q.1 1-.15 2-.3 1.3-1.3.45l-.4-.7Q35.7 8.7 36 7.05l-3.45-.65-.1.1q-1 1.5-1.7 3.15-.7 1.55-2.1 2.35l-.6-.05q-1.1-.85-.35-2.1 1.3-2.15 2.85-4.1l-3-.45q-3 .55-3.5 3.6-.25 1.95 1.15 3.3l1.7 1.35-.7-.1q.3 1 .05 1.75 1.65.5 1.8 2.5.1 1.25-.9 2l-.5.3-.05.3q-1.1 4.3 2.4 7.2 2.25 1.9 5.25 2.1.4.05.7.3 2.1 1.65.7 3.85-.6 1.05-1.8 1.2l-.35.05-.4.9q-.85 1.35-1.4 2.85l-1.35 2.1q-.65.65-1.55.4l-1.8 1.4h-3.2q-1.3-.95-.85-2.75.35-1.4.95-2.7 1.05-2.35 2.6-4.35-2.75-2-4.3-5.1-1.95-3.85-.25-7.6l-.95.15-.65 1.95-.15.6q-.25 2.05.45 3.95l.95 1.7.2.6 2.75 3.6.35.5v.1l-.1.1-.15.05-.2.05q-2.4-1.05-3.95-3.15l.05.9v.95l.85.75.1.1q1.05.65 1.8 1.8l-.05.5q-.85.9-2.2.6l-1.65-.25h-.15l-1.5 1.45.1 1.5-.1 1.4q.2 1.2-1 .85-1.25-.4-1.95-1.55l-.35-.65-1.9.15-.25 2.1q-.1.65-.7.8-1 .25-1.5-.7-.85-1.5-1-3.05l-1.65-1.1q-.4 1.45-1.35 2.6l-.55.15q-1.05-.6-1.15-1.85-.2-2.25.6-4.3-.65-1.7-.55-3.65.3-4.1 2-7.95 2.05-4.45 6.35-6.95 2.1-1.2 4.45-1.45h1.05l-.5-.15q-2.45-.95-5-.8l-.75.15-.2-.05-.15-.1-.05-.05v-.15l-.05-.05v-.05l.05-.05q1.05-.95 2.55-1.2l2.05-.5-2-.45-.85-.1-3.6.05-.05.05-.1.05h-.3l-.1-.05-.05-.1-.05-.05-.05-.1v-.1l.15-.35.3-.25q.3-.25.7-.35 2.5-1.35 5.35-1.7l-.2-.1-3.6-.25-1.2.2-.15-.05-.05-.05-.05-.05-.05-.1V6.5l.05-.15q2.8-2.1 6.3-2.65l.75-.1.8.05Q19.85 1 23.05.75L23.9.7l.95.2.25.1 2.05-.05-.25.2q-1.1 1.15-.55 2.45l1-.15 3.25.35.15-.85Q30.8 2 30.4 1.4m37.75 5.5q2.7.5 4.9 2L71.8 7.6q-1.55-1.5-3.45-2.5l-2.9-1.3-3.15-1.4v-.15l-.05-.1V2.1l.05-.1.05-.1.15-.2.1-.05.15-.05h.1q4.1.2 7.65 2.3Q74 6 76.35 9.3q1.45 2 .5 4.15l.35 1.3-.05.95-.2.3q-1.45-.6-2.45-1.95-1.25-1.8-2.9-3.15-1.25-1.05-2.7-1.75l-1.3-.6-1.25-.8-.05-.1v-.2l.05-.05q.6-.55 1.45-.5zm4.45-5.6q3.25.3 4.6 3.1.45.9-.05 1.7l-.1.05-.2.05q-1.6-.7-2.8-2.1l-.7-.55q-1.1-.65-1.85-1.6l.4-.5zm-6.9 9.45q4.05.75 7.25 3.4t4.15 6.75q.45 2.1-.6 3.95-.95-1.15-1.45-2.65l-1.3-3.45-.1-.2q-1.5-2.5-4-4.1l-3.9-2.4-.8-.9v-.1l.1-.1.55-.15zm-1.4 2.7q3.2.95 5.85 3l1.2 1.25q2.55 3.15 3.95 7 1.4 3.8 1.2 7.9l-.4 2q.8 2.15.95 4.4.15 1.7-1.1 2.6l-.25.05q-1.15-.45-1.4-1.75l-.15-.7-.3-1.15-.65-1.75q-.4-1.05-.25-2.15l.2-.75v-.1l.05-.1v-.15l.1-.2q.15-2.2-.1-4.4-.4-3.7-2.15-7.05-.75-1.5-1.95-2.75-1.7-1.7-3.75-2.95-1.1-.7-1.7-1.8l.2-.3.3-.15zM4.8 1.5l.8.3.15.25v.25L2.9 5l-.35.3-.25.35-.4.5-.6.25-.1-.05-.1-.05-.1-.2-.05-.2.05-.3.05-.3.2-.35-.05-.1q-.4-.65.05-1.3.4-.55.95-.95 1.2-.8 2.6-1.1m5.2 9.55.6.1.25.2.05.05v.2l-.05.05v.05L8.5 13.25l-.55.3Q6.2 15 4.8 16.8l-1.55 2.25-.55 1.4-.95 1.15q-1.5-.2-1.3-1.7.2-1.4 1.05-2.65 3.15-4.55 8.5-6.2m.4 3.15.3.1.1.05.05.1v.1l-.05.2-.15.05-.3.1-.15.1-.2.15-.05.05-.05.05-.05.05Q7.4 17 6.2 19.85q-1.55 3.65-2.45 7.5L3.4 28.7v.4l-.1.4q-.25 3.05.05 6.1v1.1l-.1.1-.05.1-.85 4.5-.3.35q-1.4.5-1.55-.9Q.4 39.9.75 39q.2-1.05.75-1.9-1.95-2.35-1.35-5.45l.3-2q.4-2.95 1.5-5.7.95-2.35 2.35-4.45Q5.7 17 8 15.2q.8-.7 1.8-.85l.35-.1z"/><path fill="#fff" d="M43.85 1.45Q44.5.05 46 0q1.4.2 2.05 1.05.4.6.4 1.55l-.15.9-1.25-.1-3.25.15-.05.05q-.5-1 .05-2.1zm3.4 11.75q-1.2.75-2.75 1.05L39 15.3l-1.8.1-4.7-.2q-3.15-.05-5.6-1.65l-1.7-1.35q-1.4-1.35-1.15-3.3.5-3.05 3.5-3.6l3 .45Q29 7.7 27.7 9.85q-.75 1.25.35 2.1l.6.05q1.4-.8 2.1-2.35.7-1.65 1.7-3.15l.1-.1 3.45.65q-.3 1.65.05 3.4l.4.7q1 .85 1.3-.45.25-1 .15-2V7.05l1.95-.35 1.6-.35Q42 7.75 43 8.9l1.35 1.7q.6.8 1.55 1l.2-.1q1.05-1.45-.4-2.8l-1-1.25-1.15-1.55 1.8-.4.85-.1h.55q2.85.15 3.45 2.8.3 1.15-.3 2.15-1.05 1.8-2.65 2.85M27.15.95Q27.7.45 28.5.4q1.35.15 1.9 1 .4.6.35 1.55l-.15.85-3.25-.35-1 .15q-.55-1.3.55-2.45z"/><path d="m36.15 8.4 6.95.7 2.45-1.55q.85-.5 1.8-.6 2 .35 2.4 2.4l.3 1.25 1.55 5.6q1.15 2.6 1.1 5.55-.05 3-1.55 5.6-2.1 3.5-5.7 5.5-1.2.65-2.5 1.1l1.2 1.65q1.65 2.9 2.9 5.95l.15 1.1H28.15l.1-.85q1.05-3.95 3.85-7l.8-.7-1-.25q-4.05-1.1-6.75-4.3-1.3-1.55-1.85-3.5-1-3.4-.5-6.95v-.05l-.05-2.55q.15-2.7.7-5.4.35-1.9 1.45-3.35.25-.4.75-.5l.85-.1q2.1.6 3.8 2.1zm-2.2 18.7q1.15-1.35.8-3.05-1.55-.4-3.05-1.15-1.25-.65-1.6-1.6-1.6.4-2.5 1.9-1.05 1.85-.1 3.7.4.75 1.15 1.15 3.15 1.6 5.3-.95m3.7-12.2-.8-.85L38 13.7l-.1.65-.05.75zm11.15 9.3q-.55-2.6-2.9-3.15l-.25.25q-1.85 1.85-4.2 2.6v.85q.2 2.35 2.5 3.1 2.55.85 4.25-1.2.85-1.1.6-2.45M37.85 11.7l-1.2.4q-2.95 1.1-3.15 4-.05.8.3 1.5 1.35 2.75 4.5 3.15l1.4-.1q3.5-1.15 3.55-4.75l-.15-.75q-.95-2.8-3.6-3.3v-.2q.2-1.25-.8-1.7-.75.1-.7.9l.05.85zm-2.05 3.05.2-.15 2.15 2.5.1.05.2.05.3-.1.1-.05.5-3.25 1.4.45.4.3.4.35v.1l.05.1.05.2.15.25v1.05l-.15.3q-1.15 2.85-4.3 2.05L37 18.7l-.9-.5-.7-.9-.25-.55v-.35l.05-.6.1-.55z"/><path fill="#fff" d="m35.8 14.75-.5.5-.1.55-.05.6v.35l.25.55.7.9.9.5.35.25q3.15.8 4.3-2.05l.15-.3v-1.05l-.15-.25-.05-.2-.05-.1v-.1l-.4-.35-.4-.3-1.4-.45-.5 3.25-.1.05-.3.1-.2-.05-.1-.05L36 14.6zm2.05-3.05h.2l-.05-.85q-.05-.8.7-.9 1 .45.8 1.7v.2q2.65.5 3.6 3.3l.15.75q-.05 3.6-3.55 4.75l-1.4.1q-3.15-.4-4.5-3.15-.35-.7-.3-1.5.2-2.9 3.15-4zM48.8 24.2q.25 1.35-.6 2.45-1.7 2.05-4.25 1.2-2.3-.75-2.5-3.1v-.85q2.35-.75 4.2-2.6l.25-.25q2.35.55 2.9 3.15m-11.15-9.3.2.2.05-.75.1-.65-1.15.35zm-3.7 12.2q-2.15 2.55-5.3.95-.75-.4-1.15-1.15-.95-1.85.1-3.7.9-1.5 2.5-1.9.35.95 1.6 1.6 1.5.75 3.05 1.15.35 1.7-.8 3.05"/></g></svg>