<svg xmlns="http://www.w3.org/2000/svg" xmlns:ffdec="https://www.free-decompiler.com/flash" ffdec:objectType="shape" width="74.95" height="40.65"><g fill-rule="evenodd"><path fill="#767676" d="m68.05 18 .55-1.9.35-.65.1-.5.35-.6.4-.4.5-.25q.6-.15 1.15 0 .8.35 1.05 1.1.3.75-.2 1.5l-.55.6-.3.5-1.1 1.45-1 1.2-.2.3-.35.4-.7.7-.45.2q-.25 0-.35-.25l.1-.5.35-1.45zm-3.6-2.5q-.05-.55.4-1 .45-.4 1-.4t.95.45.4 1l-.25.95q-.25.85-.35 2.5-.2.9-.7.9l-.65-.25-.3-.65-.2-2.3zm10.2 4.9q-.4.45-1.35.75l-3.2 1.05-.35.05q-.25-.1-.25-.4l.2-.45q.55-.9 1.35-1.5l.85-.7.5-.7q.4-.4 1-.45l1.05.3q.45.35.5 1 .05.6-.3 1.05m-26.7 7.55q1.1-1.8 3.35-3.55 1.75-1.3 3.45-2.05 1.3-1.05 2.65-1.4l2.85-.3 4.7.45q2.6.7 3.9 2.35.8.95 1.4 2.65.95 2.25 1.05 3.7.2 2-.75 4.5L69 37.45q-1.5 2.05-4 3.2H48.25q-1.35-1-1.9-2.5-.4-1.05-.4-2.8.1-2.45.95-4.6.2-1.4 1.05-2.8m9.4 3.1-.1.2-.1.7 1.25-.75.35-.3.4-.5q-.6.05-1.6.55zm-24-22.75q-.2 1.1-1.75 1.5-1.35.35-3.25.05l-3.3-.65q-4.95-.65-11.25 2-5.75 2.4-8.7 5.7-.15-.25.1-.7Q8.1 11 16.1 7.1q1.35-.7 2.65-1.15 4.85-1.7 12 0 1.3.3 1.8.7.95.6.8 1.65M10.9 16q-.2-.2-.1-.35l.25-.25q3.5-2.9 7.3-4.05 3.05-.9 6.95-.8l1.6.1q1.2.2 1.75.8.65.65.45 1.6-.25.95-1.15 1.3-.7.3-1.7 0l-1.6-.6-3.25-.35-1.95.05q-4.15.35-8.2 2.5zm9.2-.25 3.7-.5q1.45 0 2.35.7.85.75.65 1.6-.15.7-.85.95l-1.35.15-3.85-1.15-2.35-.1-1.35.2-.4-.05-.5.15-.1-.25.15-.25.85-.5 1.45-.6zm17.75 20.7-1.35.65-2.5.35-.1.15.45.8q.35 1 .1 1.7l-.3.55h-2.5l-.2-.3-.15.15-.1.15h-7l-.3-.25q-.5-.65-.6-1.85-.25-2.3.55-4.55-2-.35-2.6-2-.15-.5-.15-1.55l.25-1.75q.35-1.1 1.4-1.9.95-.75 2.2-1l2.45.2q1.25.45 1.95 1.55l.35.75.6-.7.1-.6q.35-1.05 1.45-1.05.7.05 1.1.55l.55-.05 3.6.35.25.1.35-.25 1-.05.8.65.1.3-.15 1-.1.2.1.15q.7 1.2.95 3.1l-.05 1.45q-.3 1.65-2.5 3m0-3.5q.3.35.8.35l.85-.25q.3-.25.4-.7l-.1-.75q-.3-.6-.8-.7l-.3.45-.4.55-.65.6-.05.05zm-7.35-.35q-.05.55.3 1l.85.5.95-.15.65-.8.05-.7-.65-.2-.7-.65-.35-.2h-.15q-.8.3-.95 1.2m3.55 3h.35l.9-.85.25-.15h.05l.1.1.6.25.25.1h.4l.1-.25-.05-.3-.2-.25-.2-.1-.25-.4-.05-.05v-.35l-.15-.45-.15-.3q-.05-.15-.25-.15l-.05.05h-.05l-.1.1-.25.35-.3.75v.1l-.25.15-.6.6-.4.65q0 .3.3.4"/><path fill="#fff" d="M34.05 35.6q-.3-.1-.3-.4l.4-.65.6-.6.25-.15v-.1l.3-.75.25-.35.1-.1h.05l.05-.05q.2 0 .25.15l.15.3.15.45v.35l.05.05.25.4.2.1.2.25.05.3-.1.25h-.4l-.25-.1-.6-.25-.1-.1h-.05l-.25.15-.9.85zm-3.55-3q.15-.9.95-1.2h.15l.35.2.7.65.65.2-.05.7-.65.8-.95.15-.85-.5q-.35-.45-.3-1m7.35.35-.25-.4.05-.05.65-.6.4-.55.3-.45q.5.1.8.7l.1.75q-.1.45-.4.7l-.85.25q-.5 0-.8-.35"/><path d="M41.7 10.6q1.85-.2 3.75.45l1 .45q.4-.7 1-.85l1.1.15.65.95-.2 1.15-.25.5q1.15 1.35 1.6 3.05.35 1.4.25 2.8l1.65.3q.65.4.95 1.15.35.75.05 1.45-.5 1.05-1.7 1.05-1.2-.1-1.65-1.2l-.2.05q-.7 1.2-1.8 2.25l-2.1 1.35-2.05.5q-3.1.5-4.6-.05-.95-.3-2.2-1.25-1.45-1.05-2.15-2l-.45-.15h-.45l-.55.2-1.2.7-1.05-.1-.55-.55q-.4-.6-.35-1.25 0-1.4 1.5-2.15l1.9-.55v-.25l-1.1-.2q-.55.05-1.15.4-.5.25-2.65 2.05-1.75 1.25-3 1.2l-.75.35-1.95 1q-1.3.4-2.05-.3-.55-.45-.45-1.2 0-.7.7-1.15.75-.45 1.75 0l.3.1-.55-.9-1.9-.15q-1.05-.3-1.65-1.15-.7-.95-.4-1.95.35-1.15 1.5-1.3.5-.05.95.25.5.35.65.85l.35 1.1.2.2.25-1.2q0-.75.5-1.55.2-.4 1.3-1.85 1.85-2.45 2.3-5.55l-4.55-.25q-2.55-.95-3.15-3.15-.2-.95.05-2.15T20 0h12.8q.95 1.35 1.3 3.1.45 2.1-.1 4.15l-1.6 3.6-.15.3 1.65.1 2.1.3q.4-.45 1.1-.5.8 0 1.3.55 1.6-.85 3.3-1m15.45 12.8.5-.15v-1.7q.2-1.2 1.65-2 1.2-.7 2.7-.6 1.45.15 2.45 1.15 1.05 1.15.75 2.6l-.3.9-.25.45q1.05.65 1.75 1.65l.45-.2 1.55.05.7.15.8.45q.85.8 1.15 1.7l.2.95.05.85q-.05.75-.6 1.35l-.9.7q-1.35.75-2.55.7h-.2l-.85 1.7q-.45.65-1.6 1.4l-2 1.1q-1.55.65-3.25.55l-2.15-.45-.05.1-.85 1.8-.3 1.25.4-.4q.45-.3 1.25-.5l7.45-2.15 2.85-1.15 1.65-.5h.5q.35.1.25.45l-.35.35-1.5.85-4.55 2.5-2.1 1.35H46.4l.2-.8q.3-.8 1.2-1.9 2.05-2.35 5.45-4.45l.15-.05q-.7-1.15-.95-2.45l-.1-1.5.1-1.65q.35-1.55 1.75-2.8l.35-.25-.05.1q-.1.7.2 1.2.25.55.85.85l1.15.25q1-.1 1.5-1.05.5-.9 0-1.85-.35-.6-.85-.8zM41.7 19.9q-.6.45-1.4.45l-.95.15q-.35.35.05.9l.9.3h.55l-.15.45q-.05.4.25 1l.6.85.95.25.85-.1q.85-.35 1.25-1.85l.2-.7h.2l1-.3q.45-.35.25-.6-.05-.15-.35-.15l-.4.1q-.85.15-1.45-.55l-.35-.5-.05-.3-.15-.35-.35-.15-.45.1-.25.45v.1q-.2 0-.75.45m6.4-2.55-.35-.4-.15.15-1.7 1.35-.45.25.45.7 1 .35 1-.45.45-.95q.1-.55-.25-1M63.9 30.1q.1-1.1-.9-1.6l-1.85.15q-.8.65-.65 1.65.15.9 1.1 1.35 1.1.35 1.8-.45.5-.4.5-1.1m-6.05.25.05-.25.25-.35.3-.25.2-.25q0-.35-.35-.35l-.05.05-.25.1-.75.5-.15.15-.05-.05-.7.1-.4.3q-.4 0-.5.15-.2.1-.1.25-.05.2.2.3l.4.1.35.3.15.1.05.05.25.25.15.45.2.4q.25.2.45 0v-.45l.1-.25.2-.75-.05-.4zm-15.5-9.2.4-.3q.25.2.8.4l-.15.45-.2.65-.45.4q-.3.1-.85-.35l-.35-.5-.05-.3zM37.3 18.4q.15 1 1.2 1.25 1 .15 1.6-.7l.1-.2-.6-.3-.6-.75-.8-.85-.05-.05q-.55.2-.75.8z"/><path fill="#fff" d="m54.55 24.8.5-.95q.45-.45 1.1-.55l1 .1.2.1q.5.2.85.8.5.95 0 1.85-.5.95-1.5 1.05l-1.15-.25q-.6-.3-.85-.85-.3-.5-.2-1.2zm-6.45-7.45q.35.45.25 1l-.45.95-1 .45-1-.35-.45-.7.45-.25 1.7-1.35.15-.15zm-6.4 2.55q.55-.45.75-.45v-.1l.25-.45.45-.1.35.15.15.35.05.3.35.5q.6.7 1.45.55l.4-.1q.3 0 .35.15.2.25-.25.6l-1 .3h-.2l-.2.7q-.4 1.5-1.25 1.85l-.85.1-.95-.25-.6-.85q-.3-.6-.25-1l.15-.45h-.55l-.9-.3q-.4-.55-.05-.9l.95-.15q.8 0 1.4-.45m.65 1.25-.85.45.05.3.35.5q.55.45.85.35l.45-.4.2-.65.15-.45q-.55-.2-.8-.4zm15.5 9.2-.05.2.05.4-.2.75-.1.25v.45q-.2.2-.45 0l-.2-.4-.15-.45-.25-.25-.05-.05-.15-.1-.35-.3-.4-.1q-.25-.1-.2-.3-.1-.15.1-.25.1-.15.5-.15l.4-.3.7-.1.05.05.15-.15.75-.5.25-.1.05-.05q.35 0 .35.35l-.2.25-.3.25-.25.35zm6.05-.25q0 .7-.5 1.1-.7.8-1.8.45-.95-.45-1.1-1.35-.15-1 .65-1.65L63 28.5q1 .5.9 1.6M37.3 18.4l.1-.8q.2-.6.75-.8l.05.05.8.85.6.75.6.3-.1.2q-.6.85-1.6.7-1.05-.25-1.2-1.25m-21.95 5.25q.45.15.7.6l.1.9-.5.75-.9.25-.8-.45-.15-.25.3-.45.45-.7.35-.7zm-3.2 2 .15.2.15.3.45.35h.25l.95.55.3.1.4.35.1.3-.55.25-1.05-.2-.35-.05-.2.25q-.4.3-.55.85l-.1.05v.1l-.2.25q-.2.45-.55.2-.3-.1-.2-.4l.2-.45.75-1.35-.1-.15-.45-.95-.1-.4q0-.3.3-.3l.05-.05zm-2.6 1.2.05.4-.3.8-.75.4q-1 .1-1.35-.85-.15-.4.05-.85l.35-.45.3.05 1.25.3.4.15z"/><path fill="#767676" d="M6.85 22.5q.6-.45 1.65-1l1.35-.6 1.25-.2.25-.45q.3-.4.7-.5 1-.25 1.5.6l.2.75.65.3q1 .6 1.9 2.4l.75 1.85q.2 1-.15 2.1l.15-.05.75-.2.15-.05q.65.1 1.1.35l.7.9q.3.8-.3 1.5-.65.65-1.5.5l-.85-.45q-.7-.1-2.2.5l.4.65.05.05 1.25.6q.55.45.55 1.25 0 .75-.55 1.15l.15.5.6 3.3v.95q-.25.95-1.05 1.4l-.1.05H8.9l-.15-.1-1.6-1.25-1.3-2q-.9-1.25-1.65-1.6-.65 2.2-2.45 3.15-.9.45-1.75.5V30.3q3.15-.65 5.45.7l1.25.9q2.15 1.9 2.7 3.3l.2.45.25-1.8.05-1.55.05-.25-.7-.1-1.6-.4-1.5-.85-1.2-1.3q-.4-.8-.3-2.6l.15-1.15-.4-.25q-.75-.65-.4-1.6.35-.85 1.3-.95.6 0 .95.3zm2.7 4.35v-.05l-.4-.15-1.25-.3-.3-.05-.35.45q-.2.45-.05.85.35.95 1.35.85l.75-.4.3-.8zm2.6-1.2-.35-.2-.05.05q-.3 0-.3.3l.1.4.45.95.1.15-.75 1.35-.2.45q-.1.3.2.4.35.25.55-.2l.2-.25v-.1l.1-.05q.15-.55.55-.85l.2-.25.35.05 1.05.2.55-.25-.1-.3-.4-.35-.3-.1-.95-.55h-.25l-.45-.35-.15-.3zm3.2-2-.45-.05-.35.7-.45.7-.3.45.15.25.8.45.9-.25.5-.75-.1-.9q-.25-.45-.7-.6"/></g></svg>