<svg xmlns="http://www.w3.org/2000/svg" xmlns:ffdec="https://www.free-decompiler.com/flash" ffdec:objectType="shape" width="75.6" height="41.35"><g fill-rule="evenodd"><path fill="#999" d="M0 0h75.6v41.35H0zm4 6q-.85-.4-1.7.3-.55.45-1 1.5-1.35 3.55-.3 6.95 1.2 3.65 4.3 5.55l.95.55L4.3 23.1l-2 3.25Q1 28.75.8 29.85L.65 31.2.3 33.35q-.1 1.35.2 2.1l.9 1q.55.4 1.25.4l1.25-.35.9-1 .25-2.2q.05-1.95.4-3.8l.85-1.55q1.15-2.1 2.1-3.25l.95-1v.05q1.85 3.3 1.1 7l-.35 1.75q-.15 1 .1 1.7.45 1.35 1.85 1.75 1.4.35 2.45-.7.7-.7 1.05-2.6.75-4.75-.7-8.85-.8-2.35-2.25-4.25l1-1.8q1.45-2.8 1.75-4 .55-2.15.2-5.3-.25-1.95-.9-2.65-1-1.1-2.4-.75-1.35.35-1.8 1.7-.2.65-.05 1.65l.25 1.65q.15 1.4-.3 3.1l-1.1 2.95-.05.05L7.65 15Q6.5 14.1 6 13.2q-.6-1-.75-2.7l-.3-2.8Q4.7 6.4 4 6m21.4 31.9q3 1.25 5.2 1.7l5.4.6q10.6.4 15.85-3.9 3.4-2.8 4.85-7.5 1.3-4.35.7-9.2-.35-2.6-1-4.1l-.25-.6 3.6-9.05.2-.8q.2-1.15-.4-1.8Q59 2.6 57.8 2.8l-1.75.7-.55.25-1.65.6-1.45.5-2.5 1-1.05.5Q47.2 5.1 45.6 4.4l-1.8-.65Q41.15 2.95 38 3l-2.8.2q-4.65.6-8.3 2.9l-1.25-.65-2.7-1.4-1.65-.75-2.15-.75-1.2-.1-.45.15-.35.25-.4.5-.2 1.2.35 2.35.25.95L18 11l.25.5.4 1.6.5 1.1v.1l.05.1.15.55q-2.15 4.8-2.15 10.2 0 6.2 2.9 9.35 1.6 1.8 5.3 3.4M63.2 6q-.85-.4-1.7.3-.55.45-1 1.5-1.35 3.55-.3 6.95 1.2 3.65 4.3 5.55l.95.55-1.95 2.25-2 3.25q-1.3 2.4-1.5 3.5-.15.65-.15 1.35-.25 1.05-.35 2.15-.1 1.35.2 2.1.3.6.9 1 .55.4 1.25.4l1.25-.35.9-1 .25-2.2q.05-1.95.4-3.8l.85-1.55q1.15-2.1 2.1-3.25l.95-1v.05q1.85 3.3 1.1 7l-.35 1.75q-.15 1 .1 1.7.45 1.35 1.85 1.75 1.4.35 2.45-.7.7-.7 1.05-2.6.75-4.75-.7-8.85-.8-2.35-2.25-4.25l1-1.8q1.45-2.8 1.75-4 .55-2.15.2-5.3-.25-1.95-.9-2.65-1-1.1-2.4-.75-1.35.35-1.8 1.7-.2.65-.05 1.65l.25 1.65q.15 1.4-.3 3.1l-1.1 2.95-.05.05L66.85 15q-1.15-.9-1.65-1.8-.6-1-.75-2.7l-.3-2.8Q63.9 6.4 63.2 6"/><path fill="#fff" d="M63.2 6q.7.4.95 1.7l.3 2.8q.15 1.7.75 2.7.5.9 1.65 1.8l1.55 1.15.05-.05 1.1-2.95q.45-1.7.3-3.1L69.6 8.4q-.15-1 .05-1.65.45-1.35 1.8-1.7 1.4-.35 2.4.75.65.7.9 2.65.35 3.15-.2 5.3-.3 1.2-1.75 4l-1 1.8q1.45 1.9 2.25 4.25 1.45 4.1.7 8.85-.35 1.9-1.05 2.6-1.05 1.05-2.45.7-1.4-.4-1.85-1.75-.25-.7-.1-1.7l.35-1.75q.75-3.7-1.1-7v-.05l-.95 1q-.95 1.15-2.1 3.25l-.85 1.55q-.35 1.85-.4 3.8L64 35.5l-.9 1-1.25.35q-.7 0-1.25-.4-.6-.4-.9-1-.3-.75-.2-2.1.1-1.1.35-2.15 0-.7.15-1.35.2-1.1 1.5-3.5l2-3.25 1.95-2.25-.95-.55q-3.1-1.9-4.3-5.55-1.05-3.4.3-6.95.45-1.05 1-1.5.85-.7 1.7-.3M25.4 37.9q-3.7-1.6-5.3-3.4-2.9-3.15-2.9-9.35 0-5.4 2.15-10.2l-.15-.55-.05-.1v-.1l-.5-1.1-.4-1.6L18 11l-.85-3.15-.25-.95-.35-2.35.2-1.2.4-.5.35-.25.45-.15 1.2.1 2.15.75 1.65.75 2.7 1.4 1.25.65q3.65-2.3 8.3-2.9L38 3q3.15-.05 5.8.75l1.8.65q1.6.7 3.25 1.95l1.05-.5 2.5-1 1.45-.5 1.65-.6.55-.25 1.75-.7q1.2-.2 1.75.45.6.65.4 1.8l-.2.8-3.6 9.05.25.6q.65 1.5 1 4.1.6 4.85-.7 9.2-1.45 4.7-4.85 7.5Q46.6 40.6 36 40.2l-5.4-.6q-2.2-.45-5.2-1.7M4 6q.7.4.95 1.7l.3 2.8q.15 1.7.75 2.7.5.9 1.65 1.8l1.55 1.15.05-.05 1.1-2.95q.45-1.7.3-3.1L10.4 8.4q-.15-1 .05-1.65.45-1.35 1.8-1.7 1.4-.35 2.4.75.65.7.9 2.65.35 3.15-.2 5.3-.3 1.2-1.75 4l-1 1.8q1.45 1.9 2.25 4.25 1.45 4.1.7 8.85-.35 1.9-1.05 2.6-1.05 1.05-2.45.7-1.4-.4-1.85-1.75-.25-.7-.1-1.7l.35-1.75q.75-3.7-1.1-7v-.05l-.95 1q-.95 1.15-2.1 3.25l-.85 1.55q-.35 1.85-.4 3.8l-.25 2.2-.9 1-1.25.35q-.7 0-1.25-.4l-.9-1q-.3-.75-.2-2.1l.35-2.15.15-1.35q.2-1.1 1.5-3.5l2-3.25 1.95-2.25-.95-.55Q2.2 18.4 1 14.75q-1.05-3.4.3-6.95.45-1.05 1-1.5.85-.7 1.7-.3"/><path d="m53.75 15.1-1.15-.7-.9-.15-2.35.15-1.8.85-1.65-.05q-.85-.35-1.25-1.1-.4-.7-.25-1.55.15-.9.75-1.45t2-.85l2.2-.15 1.05.2 1.3.4 2.25 1.85.75.75q.35.45.3.95l-.45.7zM37.1 22.45l.55-.05.55.05q.35.1 1.6 1.1 1.05.8 2.8 1.15 2.9.4 5.25-1.05 2.4-1.5 3.35-4.2l.2-.6-.35-.6q-.25-.6.05-1.15l.15-.4.75-.55 1.25-.15.85.2 1.05.6.65.5.9 1.1.15.35.3 1.1.05.6q.15.5-.3.75l-.8.05-.35-.3-.3-.1-.5-.35-.2-.1-.2.85q-1 3.6-4.5 5.65-3.1 1.85-7.1 1.6l-2.05-.35q-1.55-.45-3.25-1.65-1.7 1.2-3.25 1.65l-2.05.35q-4 .25-7.1-1.6-3.5-2.05-4.5-5.65l-.2-.85-.2.1-.5.35-.3.1-.35.3-.8-.05q-.45-.25-.3-.75l.05-.6.3-1.1.15-.35.9-1.1.65-.5 1.05-.6.85-.2 1.25.15.75.55.15.4q.3.55.05 1.15l-.35.6.2.6q.95 2.7 3.35 4.2 2.35 1.45 5.25 1.05 1.75-.35 2.8-1.15 1.25-1 1.6-1.1M22.05 15.1l-.8-.15-.45-.7q-.05-.5.3-.95l.75-.75Q23.4 11 24.1 10.7l1.3-.4 1.05-.2 2.2.15q1.4.3 2 .85t.75 1.45q.15.85-.25 1.55-.4.75-1.25 1.1l-1.65.05-1.8-.85-2.35-.15-.9.15z"/></g></svg>