<svg xmlns="http://www.w3.org/2000/svg" xmlns:ffdec="https://www.free-decompiler.com/flash" ffdec:objectType="shape" width="76.75" height="43.75"><g fill-rule="evenodd"><path fill="#999" d="m5.05 27.85.25.05 7.05.05-.15-1.05.05-1 .35-1.8q.3-1.15 1.1-2.1l1.45-1.4q.45-.35 1.05-.5l.2-.3.35-.65 1.3-.95q1.05-.55 1.85-.4l.55-.3 2.65-.3 1.1.2.6-.4q-.6-.4-.75-1.35-.1-.8.2-1.55.25-.6.75-.95l.35-.85.05-.1q.5-.9 1.05-1.15l.45-.3q1-.6 2.1-.6-1-1.75-.7-3.9.25-2.05 1.6-3.6Q31.2 1.2 33.25.5q1.9-.7 3.95-.45 2.05.15 3.6 1.25l.45.35.35-.1 1 .15 1.2 1.15.65 1.3.05.45.1.4.1.45 1.1.2q.75.45.85 1.4l-.3.95-.3.35.15.4h.4l.7-.75 2.05.15.65.9 1.3 1.1q.75.8 1 1.7l.1 1.3.95.25.8.45q.6.45 1.1 1.6l.2.85.05.3q.8.1 1.5.55l.8.6q1.55 1.4 1.7 2.95l-.05 1.4q.55.45.55 1.25.05.55-.3 1.05l-.8.65-1.15.05-.6.4-.4.2.45 1.35.05 1 2.25.05h1.05l1.85.05h2.65l1.5.05h2.05l.35.05h.7l2.4.05h1.3l.35.05h.25l.2.05h.4l1.25.05h.05l.25.05.2.05.1.1.1.1.05.05.05.1.05.05.05.1v.05l.05.1v.25l-.05.05v.1l-.05.05v.1l-.05.05-.05.1-.05.05-.05.1-.1.05-.1.1-.2.1-.2.05v.95l-.05.05v.35l-.05.05v.7l.05.1v.3l-.05.05v.25l.05.1v3.45l-.05.1v2.55l-.05.1v.7l-.05.05.1.1.05.05.05.1v.1l.05.05.05.1v.05l.05.1v.35l-.05.1v.1l-.05.05-.05.1-.05.05-.05.1-.05.05-.1.1-.05.05-.1.1-.15.1-.1.05h-.05l-.1.05h-.25l-.2.05h-.4l-1.3-.05h-6.35l-14.8.05h-18.1l-.85-.05H21.25l-2.1-.05h-.6l-.45-.05h-.65l-1.55-.05h-5.65l-1.9.05h-4.5l-.3-.05H3.3l-.1.05h-.1l-.25.05-.25-.05-.2-.05-.2-.1-.15-.05-.05-.05-.15-.1-.05-.05-.1-.1-.1-.05-.05-.1-.05-.05-.05-.1v-.25L1.4 41l.05-.1v-.1l-.05-.05v-2.1l.05-.1v-1.6l.05-.1V34.5l.05-.05v-1.1l.05-.05v-1.55l.05-.1v-.6l.05-.1v-.4l.05-.05v-.1l-.05-.1-.1-.05-.1-.1-.05-.1L1.4 30l-.05-.1v-.05l-.05-.1v-.05l-.05-.1v-.55L1.3 29v-.1l.05-.05v-.1l.05-.05.05-.1.05-.1.1-.05.05-.1.1-.05.05-.1.15-.05.15-.1.15-.05h.1l.25-.05h2.1l.1-.05h.25zM55.7 10.9l.25.85-.2.75-.85.75-1.2-.05-.8-.85q-.25-.6-.05-1.15.25-.55.85-.85l1.15-.1zm2.75 3.3q.45 0 .65.3l.3.3q.25.5 0 .95l-.3.3q-.4.5-1.05.2-.75-.35-.65-1.15.2-.85 1-.85zM43.7 28l9.3.05h1.4l-.35-.35-.2-.15q-1.3-.25-1.95-1.1-.35-.5-.35-1.2 0-.65.35-1.2.4-.55 1.05-.7l.35-.05.9-.55.85-.95v-.25l-.3-.05-1.35-.15q-.75-.4-1.15-1.15-.35-.8-.1-1.6l-.05-.1-.35-.75-1.6-.25q-1.4-.5-1.5-2.05l.1-.7-.7-1.2q-.25 0-.6.55-.7 1.1-2.1 1.1-1.35-.1-2-1.25l-.1-.2-.45.35q1.4.9 1.25 2.55L43.4 18l-1.3.7-.45.05-.35.9.25.75.25.4.75.65q.4.5.5 1.15.1.7-.2 1.25-.6 1.25-2.05 1.25h-.05l-.75.75q-.65.45-.95.95-.3.45-.45 1.05V28zm17.9-8.3-.45.3-.95-.05-.45-.6q-.1-.5.2-.95.3-.35.85-.45l.7.25.35.65zm-23.5-3.25-.3-.85q-.25-1-.05-2.05l-.15-.05q-.8-.35-1.3-1.25-.35-.8-.15-1.45.2-.55.65-1 .4-.5 1-.7l-.3-1.15L37 6.7q-.55-.65-1.55-.55l-1.45.4.05.2q.25.7.05 1.5l-.8 1.25-.55.35.1.75q0 1.8-1.75 2.75-1.1.6-2.55.65l.2 1.15-.35 1.1-.5.5q-.25 1.2-.95 1.95l.7 1.15.4.95.6.6.6 1.3.5 2.15-.35 1.85L29 28h1.3l.15-.3q.3-.5.8-.65l.75-.1q.8.2 1.1.8l.15.25h.85l.45-1.3q.6-1.4 1.15-1.95l.75-.65.4-.3-.8-.75q-.55-.6-.65-1.15v-.6l.15-.7q.1-.8.55-1.25.45-.55 1.15-.55l.25-.2.45-.25q.35-.7.65-1.1zm-2.75-2 .3.7-.15.75q-.45.8-1.4.55-.9-.25-.9-1.2.1-.9.9-1.15.7-.25 1.25.35m-6.45 5.6-.45-.15q-.3-.3 0-.75.35-.4 1-.7l.65-.25h.95q.8.25 1.2.95.4.75-.05 1.45l-.75.55-.95-.15-.7-.55q-.3-.3-.9-.4m-10.45 7.9 5.4.05h1.35l.1-.25.15-1.5q.1-1.35-.35-1.95l-.7-.7-.75-1.1-.25-.8-.2-.3-.1.35-.35 1.5-.5.45q-.4-.05-.4-.7l-.05-1.25-.45.3-1.35.15-.7-.3-.05.05v.2q0 1.25-1.05 1.65l-.8.2q-.25.4-.4.95-.15.4-.05.95l.3.7.65 1.35zm16.25-3.3q.1 1-.8 1.45-1.05.55-1.8-.3-.8-.8-.25-1.75.5-1 1.65-.75.5.1.85.45zm-14.3-12.3q.55.8.65 1.9 0 .9-.35 1.55-.3.55-.65.35l-.3-.3q-.3-.65-.8-1.05l-.4-.3-.6-.1q-1.15-.25-1.3-1.4-.15-1.1.8-1.65l1.65-.1q.8.3 1.3 1.1m-5.9 7.15-.6.8q-.25.35-.7.45l-.85-.1q-.8-.5-.65-1.5l.6-.9q.7-.7 1.8-.8t1.8.7q.65.55.25 1.05-.3.3-.8.2z"/><path d="M52.55 15.55q1 .9 1.55 2.2l.5-.05 1.05.15q1.65.45 2.3 2.45l.15.6q.15 1.35-.85 2.7l-.5.6q-.8.7-1.8.8l-1.1-.1-.65-.15q1.3.65 2.25 1.7t1.3 2.4l.2 1.15.6.75q.45.95.1 2.1-.35 1.05-1.3 1.75-1.3 1-4.1 1.4l-10.55.7q-4.15 0-6.15-.9-1.3-.65-1.75-1.4-.5-.75-.5-1.7t.5-1.7l1.2-1q0-.8.3-1.7.7-2 2.7-3.6.95-.75 2.4-1.45l-.3-.75-.4-1.55q-.2-1.9.8-3.45-.6-.6-.75-1.35l-.05-1.2q.1-1.45.5-2.05l.55-.65 1.2-.95.55-.1 1.6.05.55-.05.3-.25q1.2-1.1 2.9-.7l.5.2q1.2.5 1.85 1.8l.3 1-.05 1q1.15.4 2.1 1.3M50.5 22l-.1.15h.3q.9.15 1.45.65l.45.45v-.8l-.25-.55q-.2-.25-.65-.35-.75-.15-1.2.45m-7.1 1.55q-.35.6.15 1.1l1.1.25.9-.5 1.25.1q.7.25.85.4l.35.35.4.05.15-.35-.2-.4-.45-.6-.75-.5v-.15l-.05-.2.15-.45-.05-.2q-.1-.55-.65-.55l-.1.05q-.35 0-.55.45l-.1.45-1.5.05q-.7.2-.9.65m2.95-3.9q1.15-.95 1.1-2.25l-1.3-.1-.25-.05-.1.1-.4.35q-1 .95-2.35.85l-.75-.15q.3.95 1.3 1.45 1.4.75 2.75-.2m13.8 8.8-.65-.25-1.3.15-.25.1-.25-.25q-.05-.2.2-.55l1.05-1.1q.75-.5 1.4-.35.85.1 1.1.9.2.65-.3 1.05-.45.45-1 .3m-45.1-6.25q.45-.85 1.45-1.85l1.4-1.1q1.65-1.05 4.3-.8 1.55.1 2.55.7l1.25 1.1q1.1 1.15 1.65 2.75.95 2.65.3 5.65-.8 4.05-3.7 5.4l-.7.25-1.15.55-9 4.35Q8 41.8 4.25 43.25q-2 .8-3.1.3l-.9-.9q-.35-.7-.2-1.35.15-.95 1.7-2.2 6.3-5.05 10.1-7.7 1.3-.9 2.45-1.5l-.1-.5-.2-2.75q.2-2.9 1.05-4.45m20.7.55-.65.1q-.8.1-1.05-.6-.2-.55.1-.9.35-.55 1.2-.55l1.1.25q1.2.55 1.35 1.9 0 .7-.35.75l-.65-.4q-.5-.6-1.05-.55"/><path fill="#fff" d="M46.35 19.65q-1.35.95-2.75.2-1-.5-1.3-1.45l.75.15q1.35.1 2.35-.85l.4-.35.1-.1.25.05 1.3.1q.05 1.3-1.1 2.25m-2.95 3.9q.2-.45.9-.65l1.5-.05.1-.45q.2-.45.55-.45l.1-.05q.55 0 .65.55l.05.2-.15.45.05.2v.15l.75.5.45.6.2.4-.15.35-.4-.05-.35-.35q-.15-.15-.85-.4l-1.25-.1-.9.5-1.1-.25q-.5-.5-.15-1.1M50.5 22q.45-.6 1.2-.45.45.1.65.35l.25.55v.8l-.45-.45q-.55-.5-1.45-.65h-.3z"/></g></svg>