<svg xmlns="http://www.w3.org/2000/svg" xmlns:ffdec="https://www.free-decompiler.com/flash" ffdec:objectType="shape" width="76.6" height="42.35"><path fill="#fff" fill-rule="evenodd" d="m13.15 7.4.2-1.6q.25-.9.9-1.55t1.55-.85l1.1-.05q2.4.1 4.75 1.5l.85-.1 2.3.15 1.55.7 1.95 1.15-.2-.35-.35-.35-.7-.95q-.35-.55-.85-.75l-.95-.1h-.7l-.3-.05q-.25-.15-.05-.45l.45-.25 1.1-.2.75.1.3.2.25.05.5.2 1.7 1.35.65.85.4.75.6 2.2.05.15.85 1.25.55-.35 2.6-1.55q1.35-.65 3.75-.65l-.7-.2-1.1-.1h-1.15q-.8.05-1.55.75l-.45.3-.25.05-.2-.15q-.15-.25.2-.6.5-.45 2.1-1.25l.7-.3 1.5-.6 1.45-.05q1.7.1 2.35.6l.5.5 1.1 1.55q.45.7.5 1.35l.35.35 1.1 1.2.75 1.35.35-.4.9-.65.85-.45.6-.15 1.6-.05 1.3.15.75.25.35.2-.05.4h-.35l-.55-.15-1-.15q-.5.05-1.05.35l-.55.25-.4.25-.45.4 1.25-.15 3.85.35 1.2.75q1.2-1.6 3.35-1.95 1.8-.35 4.05.35h.8l.3-.35q.55-1.1.1-1.85l-.25-.2h-.3q-.75.2-2 .9l-2 .95-2.55.1q-1.3-.25-2.25-1.05l-1.25-.55-1.15-.95-.35-.45-.15-.55-.15-.3.05-.85V6.7q.1-1.25.95-2.05.45-.45 1.45-.95l.55-.2.15-.05.2.05.15.1-.05.25-.4.15-.9.5-.85.8q-.5.75-.5 1.5l.05.35.3.65.25.2v-.9q.25-2 2.15-2.85l3.5.2V4.4l.45-.65 1-.75q1.7-.85 2.15-1l1.2-.2 1.05.05q.55.1 1.65.65l.9.55.2.15.25-.15 1.25.3 1.4.9.4.4.15.25.2.15.3.4.15.35.2.65.15.35.05.25.15.3q.25.45.15 1L71 8.4l-.2-.45-.5-1.4-.2-.3-.65-.8L69 5.1h-.1l.75 1q.5.95.6 2.4.25 2.95-.6 5.3-1 2.8-3.2 4.2l-2.05 1 1.1.05q1-.05 1.85-.75l1.2-1q.1-.2.25-.2l.35.25-.15.35q-.95 1.25-1.9 1.6l-1.1.45q-1.1.55-3.55.55l-.9-.1-1.95-.55-.3-.1-.2.3.2.9.45 2.4q.05 1-.4 2.65l-.55 2.6v.45l.9-.95.3-.85.75-1.45q.8-.95 1.95-1.25l2.35-.15.75.2.95.6.8.95v.4h-.35l-.25-.3q-.35-.65-.9-.85l-.85-.15-.7.05-.8.05-.45.25-.25.25.55-.05q1.5.1 2.6.95l1 1.05.75 1.1q.85 1.6.7 3.7l-.2 1.2-.95 1.35-.4.35.7-.25.4-.2.5-.4.2-.4.1-.25.35-.35v-.25l.1-.2v-.35l.15-.2-.05-.25-.05-.7-.15-.65q0-.15.15-.25l.25.05v.25l.2.4.05.7-.05.7-.2.45v.55l-.35 1.15-.45.85-.35.25-.95.55-1.1.15h-.6l-.65-.2-.8-.35-.3-.2q-1.05-.15-1.8-.75l-.4.45q-1.1 1.25-2.3 1.8l-.45.2-.35.45-1.25 1-.65.15q-1.75.35-3.2.05-1.7-.4-2.6-1.75l-1.3-2.55q-.3-.75-.2-1.2.1-.4.4-.4l.25.1q.55.45 1.1 1.75l1.3 1.1.85.5.4.15-.5-.35-1-1.15Q50.4 32.4 51 29.05l.4-1.3-1.65-1.35-.25-.4-.45.65-.8 1-.45.4-1.05.55-1.05.2-.35-.1-.45-.05-.6-.2-.3-.05q-.25-.2-.2-.4v-.05q0-.2.3-.3l.6.05.5-.1 1.1-.45.4-.35-1.55.25q-2.8.3-5.75-1.8 1.35 1.5 1.75 3.55.4 2.1-.4 3.95l-.9 1.65-.05.1 1.3-1.05.5-.55.3-.65.1-.4.3-1.15-.5-2.05-.05-.55q0-.3.35-.3l.35.25.55 1.5.15 1.55-.1 1.25-.05.3-.2.6q-.5 1.3-1.65 2.45l-.75.7-1.45.7-.8.2-.05.1q-.5 1.9-2.15 2.5l-2.1.25-1.4-.15q-.7-.3-1.25-.95-.9-1-1.1-1.95-.2-.65 0-1.65.4-2.5 1.8-4.25l1.55-1.85.3-.6-.2-.55-1.95-2.8-.1.1-.65.7-.95.75q-1.15.8-2.4 1.15l-1.45 2.55q-1.35 1.75-3.2 2.8l-1.6.8-2.25.8 1.1.2.5-.05q3.1-.45 4.6-2.35l.8-1.2q.1-.3.35-.3.35-.1.45.2l-.15.55-.35.8-.75 1q-1.85 1.85-3.8 2.45l-.95.25-1.5-.1-1.7-.35q-.6-.15-.8-.55l-.1-.25-.6-.05h-.65l-.45.45q-.8 1.2-2.15 1.75l-1.6.35q-.3.4-1.1.3l-1.1-.1-1.3-.35-.95-.65-.3-.35q-.65-.8-.75-1.4l-.05-.65.1-1.3.25-1 .2-.4.2-.65 1.1-1.4.2-.15.35.3-.15.45-.5.95-.25.65v1.85l.05.6.15.4-.05-1.5q.15-1.2.95-2.35 1.15-1.8 3.05-2.7h-.8l-1.15-.1q-.6-.1-1.05-.6l-.2-.05-.4-.15-.35-.15-.4-.3-.35-.35-.3-.85-.05-.3q-.1-.5.15-1.2l.1-.5.5-1.7.6-1.25.25-.35q.15-.2.4-.2.4 0 .4.35l-.25.45-.45 1-.3 1.05-.05.35-.05.15.4 1.1.55-1.85.35-.7q.3-.85.55-1.15l.6-.65.15-.2q-.45-2.8.1-5.65l-.05.1-.3.5-.15.35-.1.45v.7l-.05.3-.1 1.55-.15.3-.4-.1-.2-.7-.15-1.6v-.3q0-.65.35-1.45l.2-.5.5-.75 1.35-1.6.3-.3.3-.15.75-1.15-.05-.1-.25-.8-.1-.6.05-.7L12 7.8l.25-1.6.15-.25.05-.2.2.1-.05.25-.05.55.05.05.15.95.15.15.05.2.15.3zM48.7 19.35q1.6-.8 2.8.3l.55 1q.5.4.7 1.2l.1.4.6.4.25.05q-.2-.85.2-2.25v-1l-1.5-1q-.6-.6-1.05-.7l-.85-.15-2.3.25-.7.35.05.5q.1.95-.25 1.75zM17.8 7.8q-.1.75.3 2.2 0 .95-.35 1.6-.5.8-1.25 1.05l-.85.05-.5 1.55q-.6 3-.15 4.7l.5 2-.45 1.45-1.15.95-1.3.1-.2.6 1.95-.55.95-.2q.65-.05 1.2.35.55.3.8.85l.55.1 1.8.15 1.95-.5h.95l.8.25.1.05.5-.85q.9-1 2.2-.75l.75.25.3-.25.6-.55.65-1.1.6-1.1q.7-.75 1.6-.85l1.05.15.2-.45 1.25-1.7q1.35-1.2 3.4-.95 1.7.2 3.2 1.55l1.35 1.4 2.25 1.8.8.45-.15-.15-1.1-1.55-.75-1.8-.8-2.65q-.6-1.55-1.75-2.1l-3.05.05q-1.8.5-2.85 1.2l-.05 1.15q-.25 1.15-1.4 1.65l-2.2-.15-1.15-1.1-1.7-2.95q-1.15-1.65-3.7-3.2-.45-.3-.95-.45l-1.6.1q-.95-.1-1.55-.75l-.4-.8zm10.05 27.15.25-1.45.25-.5.75-1.2.95-.85.5-.65.35-.35.25-.15.1-.2q.2-.2.35-.15l.3.25-.15.25-.6.65-.5.7-.15.4-.2.3-.2.4-.4 1.1-.2 2.05v.55l.1.35q.1.5-.15.8-.25.4-.7.3l-.45-.25-.5-.9z"/><path fill="#999" fill-rule="evenodd" d="m27.85 34.95-.05 1.45.5.9.45.25q.45.1.7-.3.25-.3.15-.8l-.1-.35v-.55l.2-2.05.4-1.1.2-.4.2-.3.15-.4.5-.7.6-.65.15-.25-.3-.25q-.15-.05-.35.15l-.1.2-.25.15-.35.35-.5.65-.95.85-.75 1.2-.25.5zM17.8 7.8l1.2.3.4.8q.6.65 1.55.75l1.6-.1q.5.15.95.45 2.55 1.55 3.7 3.2l1.7 2.95 1.15 1.1 2.2.15q1.15-.5 1.4-1.65l.05-1.15q1.05-.7 2.85-1.2l3.05-.05q1.15.55 1.75 2.1l.8 2.65.75 1.8 1.1 1.55.15.15-.8-.45-2.25-1.8-1.35-1.4q-1.5-1.35-3.2-1.55-2.05-.25-3.4.95l-1.25 1.7-.2.45-1.05-.15q-.9.1-1.6.85l-.6 1.1-.65 1.1-.6.55-.3.25-.75-.25q-1.3-.25-2.2.75l-.5.85-.1-.05-.8-.25h-.95l-1.95.5-1.8-.15-.55-.1q-.25-.55-.8-.85-.55-.4-1.2-.35l-.95.2-1.95.55.2-.6 1.3-.1 1.15-.95.45-1.45-.5-2q-.45-1.7.15-4.7l.5-1.55.85-.05q.75-.25 1.25-1.05.35-.65.35-1.6-.4-1.45-.3-2.2m30.9 11.55-1.4 1.1q.35-.8.25-1.75l-.05-.5.7-.35 2.3-.25.85.15q.45.1 1.05.7l1.5 1v1q-.4 1.4-.2 2.25l-.25-.05-.6-.4-.1-.4q-.2-.8-.7-1.2l-.55-1q-1.2-1.1-2.8-.3M13.15 7.4l-.05.9-.15-.3-.05-.2-.15-.15-.15-.95-.05-.05.05-.55.05-.25-.2-.1-.05.2-.15.25L12 7.8l.05.25-.05.7.1.6.25.8.05.1-.75 1.15-.3.15-.3.3-1.35 1.6-.5.75-.2.5q-.35.8-.35 1.45v.3l.15 1.6.2.7.4.1.15-.3.1-1.55.05-.3V16l.1-.45.15-.35.3-.5.05-.1q-.55 2.85-.1 5.65l-.15.2-.6.65q-.25.3-.55 1.15l-.35.7L8 24.8l-.4-1.1.05-.15.05-.35.3-1.05.45-1 .25-.45q0-.35-.4-.35-.25 0-.4.2l-.25.35-.6 1.25-.5 1.7-.1.5q-.25.7-.15 1.2l.05.3.3.85.35.35.4.3.35.15.4.15.2.05q.45.5 1.05.6l1.15.1h.8q-1.9.9-3.05 2.7-.8 1.15-.95 2.35l.05 1.5-.15-.4-.05-.6V32.1l.25-.65.5-.95.15-.45-.35-.3-.2.15-1.1 1.4-.2.65-.2.4-.25 1-.1 1.3.05.65q.1.6.75 1.4l.3.35.95.65 1.3.35 1.1.1q.8.1 1.1-.3l1.6-.35q1.35-.55 2.15-1.75l.45-.45h.65l.6.05.1.25q.2.4.8.55l1.7.35 1.5.1.95-.25q1.95-.6 3.8-2.45l.75-1 .35-.8.15-.55q-.1-.3-.45-.2-.25 0-.35.3l-.8 1.2q-1.5 1.9-4.6 2.35l-.5.05-1.1-.2 2.25-.8 1.6-.8q1.85-1.05 3.2-2.8l1.45-2.55q1.25-.35 2.4-1.15l.95-.75.65-.7.1-.1 1.95 2.8.2.55-.3.6-1.55 1.85q-1.4 1.75-1.8 4.25-.2 1 0 1.65.2.95 1.1 1.95.55.65 1.25.95l1.4.15 2.1-.25q1.65-.6 2.15-2.5l.05-.1.8-.2 1.45-.7.75-.7q1.15-1.15 1.65-2.45l.2-.6.05-.3.1-1.25-.15-1.55-.55-1.5-.35-.25q-.35 0-.35.3l.05.55.5 2.05-.3 1.15-.1.4-.3.65-.5.55-1.3 1.05.05-.1.9-1.65q.8-1.85.4-3.95-.4-2.05-1.75-3.55 2.95 2.1 5.75 1.8l1.55-.25-.4.35-1.1.45-.5.1-.6-.05q-.3.1-.3.3V28q-.05.2.2.4l.3.05.6.2.45.05.35.1 1.05-.2 1.05-.55.45-.4.8-1 .45-.65.25.4 1.65 1.35-.4 1.3q-.6 3.35 1.45 6.4l1 1.15.5.35-.4-.15-.85-.5-1.3-1.1q-.55-1.3-1.1-1.75l-.25-.1q-.3 0-.4.4-.1.45.2 1.2l1.3 2.55q.9 1.35 2.6 1.75 1.45.3 3.2-.05l.65-.15 1.25-1 .35-.45.45-.2q1.2-.55 2.3-1.8l.4-.45q.75.6 1.8.75l.3.2.8.35.65.2h.6l1.1-.15.95-.55.35-.25.45-.85.35-1.15v-.55l.2-.45.05-.7-.05-.7-.2-.4v-.25l-.25-.05q-.15.1-.15.25l.15.65.05.7.05.25-.15.2V33l-.1.2v.25l-.35.35-.1.25-.2.4-.5.4-.4.2-.7.25.4-.35.95-1.35.2-1.2q.15-2.1-.7-3.7l-.75-1.1-1-1.05q-1.1-.85-2.6-.95l-.55.05.25-.25.45-.25.8-.05.7-.05.85.15q.55.2.9.85l.25.3h.35v-.4l-.8-.95-.95-.6-.75-.2-2.35.15q-1.15.3-1.95 1.25L60 27.05l-.3.85-.9.95v-.45l.55-2.6q.45-1.65.4-2.65l-.45-2.4-.2-.9.2-.3.3.1 1.95.55.9.1q2.45 0 3.55-.55l1.1-.45q.95-.35 1.9-1.6l.15-.35-.35-.25q-.15 0-.25.2l-1.2 1q-.85.7-1.85.75L64.4 19l2.05-1q2.2-1.4 3.2-4.2.85-2.35.6-5.3-.1-1.45-.6-2.4l-.75-1h.1l.45.35.65.8.2.3.5 1.4.2.45.15-.05q.1-.55-.15-1l-.15-.3-.05-.25-.15-.35-.2-.65-.15-.35-.3-.4-.2-.15-.15-.25-.4-.4-1.4-.9-1.25-.3-.25.15-.2-.15-.9-.55q-1.1-.55-1.65-.65l-1.05-.05-1.2.2q-.45.15-2.15 1l-1 .75-.45.65v.05l-3.5-.2q-1.9.85-2.15 2.85V8l-.25-.2-.3-.65-.05-.35q0-.75.5-1.5l.85-.8.9-.5.4-.15.05-.25-.15-.1-.2-.05-.15.05-.55.2q-1 .5-1.45.95-.85.8-.95 2.05v.35l-.05.85.15.3.15.55.35.45 1.15.95 1.25.55q.95.8 2.25 1.05l2.55-.1 2-.95q1.25-.7 2-.9h.3l.25.2q.45.75-.1 1.85l-.3.35h-.8q-2.25-.7-4.05-.35-2.15.35-3.35 1.95l-1.2-.75-3.85-.35-1.25.15.45-.4.4-.25.55-.25q.55-.3 1.05-.35l1 .15.55.15h.35l.05-.4-.35-.2-.75-.25-1.3-.15-1.6.05-.6.15-.85.45-.9.65-.35.4-.75-1.35-1.1-1.2-.35-.35q-.05-.65-.5-1.35L42.1 6.8l-.5-.5q-.65-.5-2.35-.6l-1.45.05-1.5.6-.7.3q-1.6.8-2.1 1.25-.35.35-.2.6l.2.15.25-.05.45-.3q.75-.7 1.55-.75h1.15l1.1.1.7.2q-2.4 0-3.75.65l-2.6 1.55-.55.35-.85-1.25L30.9 9l-.6-2.2-.4-.75-.65-.85-1.7-1.35-.5-.2-.25-.05-.3-.2-.75-.1-1.1.2-.45.25q-.2.3.05.45l.3.05h.7l.95.1q.5.2.85.75l.7.95.35.35.2.35-1.95-1.15-1.55-.7-2.3-.15-.85.1q-2.35-1.4-4.75-1.5l-1.1.05q-.9.2-1.55.85t-.9 1.55zM.5.5h75.6v41.35H.5z"/><path fill="none" stroke="#000" stroke-linecap="round" stroke-linejoin="round" d="M.5.5h75.6v41.35H.5z"/><path fill="#fff" fill-rule="evenodd" d="m23.7 8.85.65.5q.65.65.9 1.55l.1 1.35v.2l-.15-.05v.05l-.6.1-.65.35-.45.4-.55.65-.2.45v.05l-.1.25-.05.25.05-.1v.4l-2.15-.2q-.95-.4-1.55-1.35-.6-.9-.55-1.95 0-.9.45-1.65h.05l1.7.35.95-.2.6-.25.85-.5.45-.4zm2.25 4.95.1-.85.05-.1.4-.45.65-.1.45.3.05.1v.65l-.3.55-.1.4q0 .55-.4 1.1l-.55.45q-1 .15-1.25.55-.15.25.05 1.05.35 1.15-.05 1.95l-.6.85-1.45.9.3.85.25 1v.35l-.25.25-.45-.1-.3-.15-.65-.8-.3-.65q-.4-.8 0-1.65l.15-.25q.25-.4.95-.7l.7-.35.3-.35h-.15l-.6-.05-.45.1-.6-.25q-.25-.45 0-.8l.9-.25h.65l-.05-.6v-.25q.05-.6.25-1 .3-.5.75-.65l.25-.1.5-.1q.65-.25.8-.85m-4.65 10-.75 1-.7.55-.65.35-2.65-.1q-1.25-.65-1.6-2.1l-.1-.75v-.55q.1-1.05.75-1.8.6-.75 1.65-1l.75-.05 1.2.1q.95.25 1.55.9l-.1.3-.1.65.1 1.05.2.8.25.4.1.15z"/><path fill-rule="evenodd" d="M10.9 19.3q-.25-2.5.6-4.75l.9-2 1.1-1.9 1-1.1.05-.55.05-2.6.25-1.1q.55-.95 1.5-1.05l1.15.05q1.25.3 3.1 1.25l1.55.8 2.5.2q2.35.4 3.8 1.75l1.2 1.15 1.6 2.05.45 1.1.2-.25 1.6-1.45 1.7-1.2q1.1-.6 3.25-.8l1.85.05 1.3.6 1.1.75q1.05.9 1.85 2.8l1.15 3.2q1.15-1.4 3-2.1 1.8-.65 3.65-.4 1.35.15 2.25.8l.8.65.75-1.3q.9-1.05 2.45-1.2l2.75.4 1.9.45q1.15-.15 1.6-1.45.3-.95-.05-2.2Q64.4 8.3 63.4 8l-.65-.05-.4.45q-1.45 1.85-3.85 2.4l-3.1-.2q-1.65-.6-2.2-2.15-.6-1.7.55-2.95.75-.75 1.85-.75 1.1-.05 2 .55l.55.25q.3 0 .65-.5.75-1 1.95-1.5t2.5-.4q2.5.25 4.3 2.35 1.6 1.95 1.75 4.6.15 1.75-.25 3.05-.65 2.45-2.55 3.9-2.15 1.5-4.5 1.1l-2.85-.8-1.05 3 .1.35q.8 3-.25 6.3l-.7 2.1q-.4 1.25-.45 2.15l.1.7q.2.4.55.3 1.65-2.9 3.95-4.85l.9-.65 1.75-.15 1.5.5q.95.55 1.65 1.85 1.05 1.95.65 3.6l-.95 1.6q-.75.7-1.65.7-1.05 0-1.85-.8-.65-.65-.9-1.75l-1.9 2.65q-1.5 1.75-3.75 1.6t-3.55-2q-1.2-1.9-.7-4.55.2-1.25 1.1-3.05l-1.6-.45-1.4-1.35-.55-1.5-.15-.5-1.75 1.45q-2.2 1.4-4.8 1.1l-1.7-.45-1.5-1-.95-.9-1.05-1.55-1.1-2.2-.3-.45q-.3-.15-.6 0-.9.25-1.35 1.1l-.15.45.15.6.65.7 1.9 1.85 1.55 1.9q1.05 1.5 1.25 3.15.25 2.2-1 3.9L38.2 34l-1.15 1.25q.5 1.55-.65 2.75-1.1 1.15-2.7.9-1.05-.15-1.75-1t-.7-2.15q0-1.15.45-2.2.85-1.8 3.55-3.5l.5-.5-.05-.65q-.3-.95-1.5-2.55l-1.1-1.55-1-1.35-.3-.8h-.05l-1.4 1.5-2.9 1.9-.45.2-.35.95q-1.05 2.55-4.05 4.65l-2.4 1.45-1.65.6-1.6.15-1.6-.05q-.75 0-1.1.35l-.45.7q-.4.75-1.2 1.15-.75.45-1.6.35-.8-.05-1.5-.6t-.95-1.35q-.4-1.35.35-2.8.65-1.15 2.05-2 1.05-.6 1.85-.8l2.2-.05 1.8.25 1.35.2q.65 0 1.85-.7l1.8-1.3q-2.75.35-5.45-.7l-4.3.6H10.4q-.95-.15-1.2-1-.1-.5.25-1.25l.6-1.3.3-.6 1-1.7zM23.7 8.85l-.25.25-.45.4-.85.5-.6.25-.95.2-1.7-.35h-.05q-.45.75-.45 1.65-.05 1.05.55 1.95.6.95 1.55 1.35l2.15.2v-.4l-.05.1.05-.25.1-.25v-.05l.2-.45.55-.65.45-.4.65-.35.6-.1v-.05l.15.05v-.2l-.1-1.35q-.25-.9-.9-1.55zM21.3 23.8l-.1-.1-.1-.15-.25-.4-.2-.8-.1-1.05.1-.65.1-.3q-.6-.65-1.55-.9l-1.2-.1-.75.05q-1.05.25-1.65 1-.65.75-.75 1.8v.55l.1.75q.35 1.45 1.6 2.1l2.65.1.65-.35.7-.55zm4.65-10q-.15.6-.8.85l-.5.1-.25.1q-.45.15-.75.65-.2.4-.25 1v.25l.05.6h-.65l-.9.25q-.25.35 0 .8l.6.25.45-.1.6.05h.15l-.3.35-.7.35q-.7.3-.95.7l-.15.25q-.4.85 0 1.65l.3.65.65.8.3.15.45.1.25-.25V23l-.25-1-.3-.85 1.45-.9.6-.85q.4-.8.05-1.95-.2-.8-.05-1.05.25-.4 1.25-.55l.55-.45q.4-.55.4-1.1l.1-.4.3-.55v-.65l-.05-.1-.45-.3-.65.1-.4.45-.05.1z"/></svg>