<svg xmlns="http://www.w3.org/2000/svg" xmlns:ffdec="https://www.free-decompiler.com/flash" ffdec:objectType="shape" width="76.25" height="40.8"><g fill-rule="evenodd"><path fill="#999" d="m76 26.9-.05-.1-.1-.15-.15-.15-.25-.15-.25-.15-.5-.1v.05H63.2l-1.75.05-2.15.05-1.9.05-1.4.05-3.9.05 1.8-1.35q1.1-1.4 1.2-3.65.1-3.35-2.15-6.15-1.15-1.5-2.9-2.7-2.5-1.7-5.2-2.45l-5.05-.55-4.75.55q-2.75.6-5.4 1.9-1.55.75-3.5 2.05-4.8 3.25-7.1 6.95-1.45 2.55-.85 4.3l.55 1h-1.7l-.3.05-.15.05H5.95l-.45.05-1.15.05-1.95.05-.4.05-.3.05-.15.05h-.2l-.25.05-.15.05H.9V0H76zM19.65 12.7l.85-1.05.4-.55.15-.2q.75-1.05.7-2.05-.1-1-1-1.6-.85-.65-1.85-.55-1.2.1-2.1.9l-.05.05-1.6-.25q-2.1.1-3.15 1.3-.6.65-.75 1.55-.15.95.3 1.7t1.6 1.25q1.45.7 3.15.85.4.3.9.3.75-.05 1.4-.65z"/><path fill="#fff" d="M.9 26.8h.05l.15-.05.25-.05h.2l.15-.05.3-.05.4-.05 1.95-.05 1.15-.05.45-.05H16.6l.15-.05.3-.05h1.7l-.55-1q-.6-1.75.85-4.3 2.3-3.7 7.1-6.95 1.95-1.3 3.5-2.05 2.65-1.3 5.4-1.9l4.75-.55 5.05.55q2.7.75 5.2 2.45 1.75 1.2 2.9 2.7 2.25 2.8 2.15 6.15-.1 2.25-1.2 3.65l-1.8 1.35 3.9-.05 1.4-.05 1.9-.05 2.15-.05 1.75-.05h11.5v-.05l.5.1.25.15.25.15.15.15.1.15.05.1.05.05.05.1.1.15.05.15v.6l-.05.15-.05.1-.05.15-.1.15v12.3H.9V28.6l-.35-.1-.2-.15-.15-.15-.1-.1-.05-.15v-.15L0 27.65l.05-.15v-.15l.1-.15.15-.15.15-.1.2-.1zm18.75-14.1-1.05 1q-.65.6-1.4.65-.5 0-.9-.3-1.7-.15-3.15-.85-1.15-.5-1.6-1.25t-.3-1.7q.15-.9.75-1.55 1.05-1.2 3.15-1.3l1.6.25.05-.05q.9-.8 2.1-.9 1-.1 1.85.55.9.6 1 1.6.05 1-.7 2.05l-.15.2-.4.55z"/><path d="M52.55 25.25q.45-.6.55-1.5.4-2.4-.4-4.8-.75-2.05-2.2-3.45l-1.05 1.05-1.3.1q-.7-.15-1.15-.65t-.5-1.15q-.1-.7.25-1.25l.2-.3q-4-1.6-8.75-1.2-4.25.4-9.1 2.5-6 2.8-9 6.7-1.25 1.75-1.2 3 .25 1.9 2.35 2.7l3.7.5H35.9l10.9-.6q3.15-.3 4.75-1 .7-.35 1-.65m-5.2-6.4q.3 1.05-1.05 2.3l-1.65 1.15-3.6.25q-1.55-.45-2.35-1.35-.45-.65-.45-1.1 0-.8.65-.95l.75.15.7.35 1.25.25q1.5.1 2.35-.5l.9-.8 1-.65.9.15q.45.25.6.75m7.05 10.6q-1.45 1.05-5.05 1.25L37.2 31l-7.85-.05-3.25-.25-3.25-.05-3.75-.15q-1.6-.4-2.75-1.8-1.15-1.3-1.45-3-.5-3.25 1.55-6.4 1.55-2.35 4.8-4.7 4.5-3.25 9.5-4.95 5.3-1.8 10.45-1.6 5.65.15 9.65 2.7 4.8 3 5.9 7.95l.3 3.5q.1 5.3-2.65 7.25m-17.65-12.2-.45.85-1.1.7-1.3-.15-.95-.85q-.7-1.2.05-2.25.85-1.1 2.1-.85 1.4.25 1.65 1.55zm-18.05-5.3q-1.05 1.25-1.7 1.3l-.9-.15-1.35-.45-1.3-.55q-1.1-.7-1.1-1.9-.1-1.35 1.15-1.85.65-.3 1.4 0 .75.25 1.25.85.75-1.25 1.5-1.7l2.15.1q.45.4.55 1.1.1.6-.2 1.2z"/></g></svg>