<svg xmlns="http://www.w3.org/2000/svg" xmlns:ffdec="https://www.free-decompiler.com/flash" ffdec:objectType="shape" width="75.45" height="41.6"><path fill="#999" fill-rule="evenodd" d="m59.2 16-1.95 1.8-1.7 2-1.2 1.3-3.3 2.9-1.3 1.25q-.5.4-.3.8.2.35.9 0l.95-.45 1.55-.75 3.15-1.8q3.8-2.2 5.45-3.65 1.05-.95 1.15-1.75.1-.85-.55-1.55-.65-.65-1.35-.65-.65 0-1.5.55m-1.75 9.05 1.65-.8 1.75-.7 1.7-.85.65-.6q.4-.6.05-1.3-.25-.6-1.1-.8-.75-.05-1.45.45l-1.15.95-.6.65-.7.7-1.1.8-3.1 2.45-.25.25q-.1.3.05.35l.4-.05.35-.2h.3l.3-.25q.1-.05.95-.45l.7-.4zM.5.6h74.45v40.5H.5zm18.2 18.05-.65-1.05q-.45-.55-1-.6-.8-.15-1.3.5-.45.55-.3 1.4l.4.7-1.35.15q-.65.45-.5 1.2.1.5.7 1.1 2.75 3.15 4.65 4.6l.8.05-.1-.5-2.45-4.35.1.15 2.85 2.9 1.25 1.25q1.5 1.6 2.5 1.95l.25-.05v-.15l-.7-1.4-.9-1.35-.6-1.1z"/><path fill="#fff" fill-rule="evenodd" d="m57.45 25.05-.6.2-.7.4q-.85.4-.95.45l-.3.25h-.3l-.35.2-.4.05q-.15-.05-.05-.35l.25-.25 3.1-2.45 1.1-.8.7-.7.6-.65 1.15-.95q.7-.5 1.45-.45.85.2 1.1.8.35.7-.05 1.3l-.65.6-1.7.85-1.75.7zM59.2 16q.85-.55 1.5-.55.7 0 1.35.65.65.7.55 1.55-.1.8-1.15 1.75-1.65 1.45-5.45 3.65l-3.15 1.8-1.55.75-.95.45q-.7.35-.9 0-.2-.4.3-.8l1.3-1.25 3.3-2.9 1.2-1.3 1.7-2zm-40.5 2.65 3.65 5.4.6 1.1.9 1.35.7 1.4v.15l-.25.05q-1-.35-2.5-1.95l-1.25-1.25L17.7 22l-.1-.15 2.45 4.35.1.5-.8-.05q-1.9-1.45-4.65-4.6-.6-.6-.7-1.1-.15-.75.5-1.2l1.35-.15-.4-.7q-.15-.85.3-1.4.5-.65 1.3-.5.55.05 1 .6z"/><path fill="none" stroke="#5f645e" stroke-linecap="round" stroke-linejoin="round" stroke-opacity=".498" d="M.5.6h74.45v40.5H.5z"/><path fill-rule="evenodd" d="M51.05 13.3q.05 3.9-1.5 6.8-1.3 2.45-3.75 4l.2 1.65.1.9.75.45q2 .8 2.7 2.85l.4 1.45.1 2.05q-.1 1.95-2.75 4.25.55.8.35 1.75-.05.95-.8 1.5-.65.55-2.1.65h-1l-.95-.1-.05.1H26.3l-.3-.7q-.15-.95.6-1.8l-1.45-1.8-.5-.9-.15-.55q-2.55.75-3.85 1.6L18.3 39.1l.95-.15 1.9-.1q1 0 1.85.5.95.6 1.2 1.45l.15.8h-11.1l-.05-.8.2-2.15q.15-.6.8-1.45 1.6-2 4.45-3.45 1.8-.8 5.45-1.95l.55-.15.15-.05.5-.9q1-1.4 2.35-2.1l1.15-1 .2-.85.35-1.25q.2-.85.55-1.25l-1.55-1.2q-1.7-1.5-2.65-3.6-.9-2.1-.65-4.25.1-1.3.8-3.1.7-1.7 1.15-2.4l.5-.75-.6-1.15-.2-1.45.2-2.05 1.05-2.25.45-1.2.35-.85h3.8l.25.4 1.1 2.1.8 1.1 7.6-.2.4-.35Q44 2 45.4.05l.05-.05h3.75l.05.5.6 2 .4 1.95.1 1.45.1.95-.05.8.15.8.1 1.1v.25q.4 1.6.4 3.5m9.55 2.75.35.5.9.5.6.15.15.15-.5.55q-.45.45-1.25.25l-.35-.1-.3.2q-.6.4-.55.55-.1.3.2.45 1.05 1.15 2.75.55 1.2-.6 2.1-2 .85-1.35.75-2.2 0-1.05-.95-2.1l-1-.7-1.1.05q-1.6.35-2.25 1.45-.35.5-.25.9zm-1.85 6q-1.15-.65-1.7-1.85-.35-1.25 0-2.45l.15-.5-.2-.65q-.4-.95 0-2.5.4-1.35.95-2l.8-.8 1-.85q.45-.2 1.35-.45 2.8-.55 4.25.55l1 1.1 1.25 1.7q.45.85.55 2.15L68 16.65l-.45 1.25-1.4 2.15-1.2.8-1.25.75q-1.15.75-1.85.9H60.5zm-25.8-2q.4 1.05 2.15 1.5 2 .35 2.9-.55l.35-.2.4.3q.65.6 2.1.75 1.55.1 2.55-.55 1.35-.75 1.45-2.1l-.2-.8q-.3-.4-.65-.4-.4 0-.85.5l-.6.9-.95.3q-1.15.2-1.85-.6l-.35-.65-.55-.45q-.6-.2-1.05.4l-.75 1-1.05.45-1.1-.25-.8-.55q-.55-.35-.9-.15-.65.3-.25 1.15m11.5-3.55q.65.5 1.4.5.85 0 1.4-.5l.85-1.2q.15-.75-.1-1.4l-1.4.45-2.8.65-.2.05q.05.9.85 1.45m9.75 5.3-.55-.35q-.25-.4-.15-.75 0-.5.4-.75l.75-.2.15-.05q.7.35.85.8.15.7-.35 1.05-.45.4-1.1.25m-1.4 5.25-.5-.2q-.1-.2.3-.5.9-.75 4.15-2.35 1.2-.45 1.65-.4 1.05.2 1.25 1.15.35.9-.5 1.5-.55.4-1.7.5zm1.3 10.9.2-1.35 1.35-2.25q.4-.4 1.2-.85l1.4-.7q1.05-.5 2.55-.65h1.6l1.7.05q1.6.25 2.95 1.2 1.3.85 1.95 2.1.7 1.45.3 2.8-.35 1.05-1.4 1.7-1 .6-2.1.4l-2.1-.4h-1.15l-1.75.25-4.4.15q-1.6-.25-2.05-1.15-.25-.4-.25-1.3m7.05-.1h5.35q.55-.1.6-.35l-.05-.5q-.55-1.05-1.95-1.5l-2.4-.35-3.15.4q-1.7.55-2.2 2.1zM29.4 16.4l1 1.05 1.4.3q1.6-.1 2.15-1.8l.05-.9h-1.35l-2.95-.45-.35-.05q-.35.85.05 1.85m-8.3 5.7q-.55-.65-.35-1.35l.45-.8q.4-.35.95-.35l.95.3.5.75q.3 1.05-.65 1.7-1 .65-1.85-.25M6.95 18.3q-.7-.9-.8-1.55-.15-.55 0-1.65.35-2.35 1.35-3.5 1.35-1.5 3.65-1.5l2 .3q.8.15 1.7.6l1.45 1.3q1.8 2 2.75 4.5.7 2.2.25 3.45l-.65 1.15-.9.9-1.35.4q-2.15.25-3.15 0l-1.35-.4q-1.95-.75-2.7-1.35-1-.75-2.25-2.65m3.9-5q-.95.15-1.25 1.35-.25.55 0 1.45.15.55.85 1.35 1.9 1.9 4.45 2.2l1.25-.05q.75-.3.8-.85t-.55-1.35L15 15.7l-1.45-1.45q-.8-.65-1.8-.85zM9.7 29.7q-.3-.35-.3-1.35 0-1.05.35-1.5.25-.35.95-.7 1.9-1.05 4.2-1.05 1.1 0 1.4.6.35.75-.6 1.3l-1.4.8-1.7 1.75q-.75.55-1.75.55-.75.15-1.15-.4"/><path fill="#fff" fill-rule="evenodd" d="m60.6 16.05-.7-.85q-.1-.4.25-.9.65-1.1 2.25-1.45l1.1-.05 1 .7q.95 1.05.95 2.1.1.85-.75 2.2-.9 1.4-2.1 2-1.7.6-2.75-.55-.3-.15-.2-.45-.05-.15.55-.55l.3-.2.35.1q.8.2 1.25-.25l.5-.55-.15-.15-.6-.15-.9-.5zm-16.15.45q-.8-.55-.85-1.45l.2-.05 2.8-.65 1.4-.45q.25.65.1 1.4l-.85 1.2q-.55.5-1.4.5-.75 0-1.4-.5m-11.5 3.55q-.4-.85.25-1.15.35-.2.9.15l.8.55 1.1.25 1.05-.45.75-1q.45-.6 1.05-.4l.55.45.35.65q.7.8 1.85.6l.95-.3.6-.9q.45-.5.85-.5.35 0 .65.4l.2.8q-.1 1.35-1.45 2.1-1 .65-2.55.55-1.45-.15-2.1-.75l-.4-.3-.35.2q-.9.9-2.9.55-1.75-.45-2.15-1.5m28.2 17.8-3.8-.2q.5-1.55 2.2-2.1l3.15-.4 2.4.35q1.4.45 1.95 1.5l.05.5q-.05.25-.6.35h-5.35M29.4 16.4q-.4-1-.05-1.85l.35.05 2.95.45H34l-.05.9q-.55 1.7-2.15 1.8l-1.4-.3zm-18.55-3.1.9.1q1 .2 1.8.85L15 15.7l1.4 1.7q.6.8.55 1.35t-.8.85l-1.25.05q-2.55-.3-4.45-2.2-.7-.8-.85-1.35-.25-.9 0-1.45.3-1.2 1.25-1.35"/></svg>