<svg xmlns="http://www.w3.org/2000/svg" xmlns:ffdec="https://www.free-decompiler.com/flash" ffdec:objectType="shape" width="75.9" height="42.7"><g fill-rule="evenodd"><path d="M25.55 1.45V1.3l.05-.6h7.3l.65.8.05.05.7.85.9 1.1 2.35-.2q3.1-.1 6.4.8l2.65.9 1.35.6q1.9.95 3.45 2.15l.25.2 1.4 1.3q1.2 1.3 2.25 3.1l1.15-.05 1.55-.05 1.15.05 1.5.15 1.8.1.6-.05 1.85.05q1.2.3 1.45 1.1.3.85-.3 1.8l-.5.7-5.85 5.9-1 1-.05.65q0 1.65-.65 4.2-1.35 4.65-4.25 8.15-3.15 3.8-7.4 5-6.25 1.85-15.4-2.3l-.35-.15-.35-.15-1.5-.75-2.5-1.4-.75-.5-4.15-3.55Q18.6 29.3 17.85 27q-1.5-4.05.95-9.75 2.1-5 6-8.55-.05-.25.05-.55v-1.4l.25-1.4v-.2l-.05-.6z"/><path fill="#999" d="M30.95 38.75v.8l.4.65q.6 1.1-.25 1.95-.35.4-.85.5l-1.05-.1-.7-.6-1.4.15-4.55-.1L3 41.25q-1.3-.1-1.85-.6-.6-.55-.6-2.3L.7 31.8l-.05-2.15-.45-2Q-.1 25.7.05 23.1L.65 13l.3-4.15Q1.05 6.5.8 4.7.5 2.75 1 1.9 1.55 1 2.85.8L5.1.9l8.6.3 5.2-.35 5.2.15q.85.15 1.45.45l-.5 3.1.05.6v.2q-2.35 1-4.1 3-1.15 1.3-2.8 4.5-2.2 4.2-2.8 6.45-.55 2-.7 3.95-.15 2.3.25 4.2.35 1.65 1.55 3.95 1.75 3.4 3.95 4.4 1.5.7 4.15.55l1.65-.05 2.5 1.4 1.5.75.35.15zm2.6-37.25.2-.1 5.7-.95L51.8.05l5.25.5 14.45.6q2.1 0 2.8.65.6.5 1 2 .95 3.9.4 10.1-.3 2.7-.3 4.1-.05 1.85.25 5.5l-.1 6.9q-.2 4.35.15 6.9l.15 2.35q-.1 1.3-.9 1.9-.75.6-2.35.4l-2.3-.6-2.95.1-3 .45h-4.8l-2.35.15-1.3-.35-1.65.5q-1.4.2-1.7-.65-.2-.65.85-1.6 3.45-2.95 5.25-7.3 1.75-4.35 1.3-8.85l-.25-1.75 5.85-5.9.5-.7q.6-.95.3-1.8-.25-.8-1.45-1.1l-1.85-.05-.6.05-1.8-.1-1.5-.15-1.15-.05-1.55.05-1.15.05q-1.05-1.8-2.25-3.1l-1.4-1.3-.25-.2q-1.55-1.2-3.45-2.15L46.6 5l-2.65-.9q-3.3-.9-6.4-.8l-2.35.2-.9-1.1-.7-.85z"/><path fill="#fff" d="m46.25 20.3.3-.5.5-.45q1.15-.8 2.6-.7 1.5.2 2.5 1.2.75.75.85 1.55.3.95-.1 2.3l-.25.6-.35.4-.65.55q-1.35.85-3.05.25-1.65-.6-2.3-2.15-.7-1.25-.25-2.6zm-7.2 3.7q2.25.35 4.45 1.4 1.6.8 2 1.8.35 1-.25 1.85-.8.9-1.8.75l-2-.9q-1.65-1-4.6-1.35l-1.9-.4-1.15-.95q-.5-.45-1.9-.8l-3.15-.7-3.1-.1-1.15.15q-.5-.2-.7-.65-.2-.5 0-1.05.35-.8 1.45-1.25l3.95-.4q3.4.25 5.9 1.3l.65.3.95-1.5q.45-.7.9-.8.75-.3 1.35.5.35.45.35 1.4zm-12.7-8.3-.65-.25-.95-.2-.4-.45q-.2-.45 0-.7.15-.4 1.05-.7l1.5-.4 1.15.05.35.05-.6-.45-.65-.65q-.25-.6-.1-1 .25-.55.8-.65h1l.8.2 1.85.8 3.7 1.95q1.55.8 1.85 1.65.25.5.1 1.15l-.55 1.05-.65.3-.75.65-1.1.1-1-.35-1.3-.65-1.65-.55-1.8-.45-1.05-.4z"/><path d="m70.35 24.45-.1 2.75-.45 2.15q-.3 1.65-1.15 2.1l-1.4-.05q-.7-.4-.7-1.2l.15-.85.7-2.55.1-3.05-.05-1.5-.25-1.65-.1-2.25q-.1-.75.15-1.15l.4-.4.55-.05q.3.1.5.55l.6 1.05.4 1.25.45 1.8zm-6.95-2.7q.2.05.6.45.95 1.2.95 3.6l-.2 3.15-.25 1.35-.7 2.75-1.2 2.4-.9 1.1q-.85.4-1.55-.2-.65-.55-.5-1.45l.55-1.3q1.5-2.4 1.95-5.2l.35-2.55v-1.3l-.2-.7-.05-.85.1-.75q.1-.3.45-.45zm-2.35-11.5q-.2.6-.8.8-.7.2-1.1-.3-.35-.35-.45-1.55l-.25-1-.2-.6q0-.45.35-.7l.75-.05.7.7.65.8.35 1.15zM8.35 8.9l1.05.45 2.4 1.15.35-2.2.2-1.05q.2-.4.65-.65l.9-.1 1.15.7 1.7 1.4L18.7 11l.35.8-.2.65-.55.35q-.55.05-1.2-.4l-2.3-2.2-.4 2.7-.25.7q-.3.5-.9.6-.7.15-2.15-.75-1.4-.9-2.65-1.3L7.4 11.7q-.95-.7-.6-1.75.15-.5.6-.8t.95-.25m8.15 16.75.2.65-.5.5-.75.05-3.35-.55.4 1.45.05 1.5q-.3.8-1.05 1l-1.1.1-3.7.35q-.95.2-1.55 0-.9-.4-1-1.35-.1-1 .75-1.5.45-.25 1.45-.35l2.7-.15q-.45-1.5-.35-2.15.1-.55.45-1t.9-.5l1.1.15.9.15 3.2.65.75.35zm.5 12.2-1.45-.6q-.8-.6-.85-1.25l.05-.6.25-.55q.15-.2.7-.45l1.3-.6.85-.3.85-.25.8-.45.75-.1.65.05q.6.15.75.75.15.55-.25 1.05l-.9.5-1.55.7.95.35.9.4q.4.3.5.9l-.15 1-.7.7-1.1.85-.9.65-1.55 1.45q-.95.65-1.65.65-1.1.1-1.45-.85-.2-.8.45-1.55l1.25-1.15z"/></g></svg>