<svg xmlns="http://www.w3.org/2000/svg" xmlns:ffdec="https://www.free-decompiler.com/flash" ffdec:objectType="shape" width="77.25" height="34.15"><g fill-rule="evenodd"><path fill="#999" d="M53.75 6.35h1.95l2.4-.05h13.85v-.05H73l2.2.05h.3l.25.1.2.1.15.1.15.1.1.1.1.1.05.1.05.1.05.1.05.1.05.1v.15l.05.1v.5l-.05.1v.1l-.05.1-.05.1-.05.1-.05.1-.1.1-.1.1-.1.15-.15.1.05.1.05.1v.3l.05.1v.8l.05.15v2.85l.05.1v5.6l.15.05.15.1.15.1.1.1.1.1.1.1v.1l.1.1v.1l.05.1.05.1v.75l-.05.1-.05.1-.05.1-.05.1-.05.1-.05.1-.1.1-.15.1-.15.1-.15.1-.2.1h-.1l-.15.05-.3.05H52.2l-.5.5-.2.4-1.65 1.3-5 2.6-2.65 1.15q-.45.1-.6.3l-.25.8q-.15.65-.75 1l-1.25.2-.85-.35-1.15-.1q-1.25-.05-3-.8-2.55-1.2-6.2-4l-1.8-1.45-1-1.15-.45-.45-.8-.05h-2.35l-.75-.05-4.45-.05h-.8l-11-.05L3.9 22H1.95l-.35-.05-.3-.1-.1-.1-.15-.1-.1-.1-.1-.1v-.1l-.1-.15v-.3l-.05-.1.05-.1v-.2l-.15-.1-.1-.1-.1-.1-.1-.1-.05-.1-.05-.1-.05-.1-.05-.1v-.15l-.05-.1v-.1l-.05-.1V17l.05-.1v-.55l.05-.1v-3.5l.05-.1v-.5l.05-.1v-2.3l.05-.1v-.5l.05-.1v-.3l-.05-.1.05-.1V8.2l.05-.1L.4 8v-.1l.1-.1.05-.1.1-.1.1-.1.1-.1.1-.1.25-.1.2-.1h.25l.1-.1h.1l.25-.05 1.4-.05.25-.05h.2l.25-.05 1-.05h.7l.5-.05.35-.05h.45l2.55-.05.3-.05h.75l3.3-.05h8.8l.15.35L24.8 10l6.2 9.2q1.1 1.5 2 1.45.8-.05 1.65-1.3l3.65-5.2 3.65 5.2q.85 1.25 1.65 1.3.9.05 2-1.45l6.2-9.2 1.75-3.15.15-.35zm-29.8-.8q.4-.5.8-.7l1.9-.45q9.1-.6 22.45-.25l2.1.3q1.05.4 1.35 1.2l-.45.4-6.05 7.35q-1.75 2.3-2.25 3.3L40.25 12q-.95-1.35-1.85-1.4h-.2q-.9.05-1.85 1.4l-3.55 4.7-2.25-3.3-6.05-7.35zM26.6 20.4l-.35.1q-.25.2-.25.6l.05.45.5.35.6-.1.2-.2.1-.25q.2-.55-.25-.9zm10.65 8.15q.15.6.65.9l1.1.15q1-.25 1-1.3 0-1-.9-1.35-.7-.25-1.3.2-.75.5-.55 1.4m-1.1-.55.45-.55.05-.35q-.1-.7-.95-.9l-.15.05-.3.05q-.5.25-.5.8 0 .65.45.85zM12.6 9.7q-.65-.25-1.05.35l-.15.4v.15l.1.3.55.45.65-.05.4-.5-.05-.65zm.7 2.9-1.25-.2q-.65.05-1.15.5-.5.4-.7 1.05-.15.65.05 1.3.25.6.75 1 .55.4 1.2.4l1.25-.35q.6-.35.8-.95.35-.7.05-1.5-.3-.85-1-1.25m10.9 5.2q-.95-.35-1.55.4l-.25.8.25.8q.5.75 1.5.5.9-.35.9-1.25t-.85-1.25m-1.1-1.15.4.2.5-.05q.8-.15.7-1.1l-.35-.6-.65-.2h-.15l-.35.15q-.45.25-.45.9 0 .35.35.7M37.75 4.4q-.45.3-.6.9-.15.5.1 1 .2.55.7.75l1.05.1.85-.6q.35-.4.3-1-.05-.55-.45-.95-.35-.35-.9-.45-.6-.05-1.05.25M35.1 6.6h.45l.45-.25q.5-.45.25-1.05l-.95-.65-.1.05-.25.05q-.7.25-.6 1l.25.55q.2.25.5.3m5.8 20.5q.25.5.85.4.55-.1.7-.6.15-.55-.25-.95l-.55-.2q-.45 0-.7.3-.3.3-.2.75zm10.45-5.75-.3-.6-.6-.3-.05.05q-.7 0-.8.75v.4l.1.2q.35.5.9.4l.65-.5zm1-4.7q.1.45.5.55l.7-.2.15-.2v-.4l-.2-.3-.25-.15h-.45q-.25.05-.35.35zm.4 4.1q.85-.1 1.15-.8.35-.65-.2-1.35-.55-.55-1.35-.3-.45.15-.7.55l-.15.45q-.1.55.3 1 .45.45.95.45M42.25 4.9q-.5.3-.4.75.1.55.6.7.4.1.7-.25.3-.3.2-.7-.15-.55-.75-.65l-.15.05zm20.35 11q.45.65 1.25.85l1.55-.1 1.1-1.05q.35-.75.15-1.5-.2-.8-.85-1.3-.7-.5-1.45-.45-.8.1-1.35.55-.65.55-.75 1.45-.15.9.35 1.55m.85-5.05q.25.9 1.15.8l.65-.4.2-.7-.3-.65q-.3-.3-.7-.3l-.05.05q-.7 0-.95.7z"/><path fill="#fff" d="M22.9 6.5q-.2-.45 0-.8.25-.3.7-.3l.35.15.55.5 6.05 7.35 2.25 3.3 3.55-4.7q.95-1.35 1.85-1.4h.2q.9.05 1.85 1.4l3.55 4.7q.5-1 2.25-3.3l6.05-7.35.45-.4.1-.1q.2-.15.35-.15.45 0 .7.3l.05.65-.05.15-.15.35L51.8 10l-6.2 9.2q-1.1 1.5-2 1.45-.8-.05-1.65-1.3l-3.65-5.2-3.65 5.2q-.85 1.25-1.65 1.3-.9.05-2-1.45L24.8 10l-1.75-3.15zm40.55 4.35v-.5q.25-.7.95-.7l.05-.05q.4 0 .7.3l.3.65-.2.7-.65.4q-.9.1-1.15-.8m-.85 5.05q-.5-.65-.35-1.55.1-.9.75-1.45.55-.45 1.35-.55.75-.05 1.45.45.65.5.85 1.3.2.75-.15 1.5l-1.1 1.05-1.55.1q-.8-.2-1.25-.85m-20.35-11 .2-.1.15-.05q.6.1.75.65.1.4-.2.7-.3.35-.7.25-.5-.15-.6-.7-.1-.45.4-.75m10.5 15.85q-.5 0-.95-.45-.4-.45-.3-1l.15-.45q.25-.4.7-.55.8-.25 1.35.3.55.7.2 1.35-.3.7-1.15.8m-.4-4.1.1-.35q.1-.3.35-.35h.45l.25.15.2.3v.4l-.15.2-.7.2q-.4-.1-.5-.55m-1 4.7-.1.4-.65.5q-.55.1-.9-.4l-.1-.2v-.4q.1-.75.8-.75l.05-.05.6.3zM40.9 27.1l-.15-.3q-.1-.45.2-.75.25-.3.7-.3l.55.2q.4.4.25.95-.15.5-.7.6-.6.1-.85-.4M35.1 6.6q-.3-.05-.5-.3l-.25-.55q-.1-.75.6-1l.25-.05.1-.05.95.65q.25.6-.25 1.05l-.45.25zm2.65-2.2q.45-.3 1.05-.25.55.1.9.45.4.4.45.95.05.6-.3 1l-.85.6-1.05-.1q-.5-.2-.7-.75-.25-.5-.1-1 .15-.6.6-.9M23.1 16.65q-.35-.35-.35-.7 0-.65.45-.9l.35-.15h.15l.65.2.35.6q.1.95-.7 1.1l-.5.05zm1.1 1.15q.85.35.85 1.25t-.9 1.25q-1 .25-1.5-.5l-.25-.8.25-.8q.6-.75 1.55-.4m-10.9-5.2q.7.4 1 1.25.3.8-.05 1.5-.2.6-.8.95l-1.25.35q-.65 0-1.2-.4-.5-.4-.75-1-.2-.65-.05-1.3.2-.65.7-1.05.5-.45 1.15-.5zm-.7-2.9.45.45.05.65-.4.5-.65.05-.55-.45-.1-.3v-.15l.15-.4q.4-.6 1.05-.35M36.15 28l-.95-.05q-.45-.2-.45-.85 0-.55.5-.8l.3-.05.15-.05q.85.2.95.9l-.05.35zm1.1.55q-.2-.9.55-1.4.6-.45 1.3-.2.9.35.9 1.35 0 1.05-1 1.3l-1.1-.15q-.5-.3-.65-.9M26.6 20.4l.6.05q.45.35.25.9l-.1.25-.2.2-.6.1-.5-.35-.05-.45q0-.4.25-.6z"/><path d="m66.55 20.75.1-.55H63.9l-2.45.1.2.4 2.45.15zm-8.1-5.05L58.2 4.5q0-1.05.25-1.5.55-.85 2.45-.75l7.4.55q1.15.1 1.55.45.5.45.6 1.85.5 8.35-.15 16.75l-.35 1.45q-.45.7-1.6 1.05l-3.15.3-3.25-.05-1.7.05q-1-.2-1.45-.8-.3-.4-.3-1.1l.05-1.2zm8.35-9.5-.3-.1-2.6-.05-1.25-.2h-1.2l-.1 7.7L61 18.7h.1l5.7-.3.05-1.45.2-9.45-.1-.95zM23.85 0h.35l.15.05.4.05.65.05H51l.65-.05.4-.05.15-.05h.7l.1.05.25.1.2.1.15.1.1.1.1.1.1.1.1.1.1.1.05.1.05.1.7.8L57.05 5l.35.45.1.2h.05l.05.1.05.15V6l.05.1.05.1v1.55l.05.1v7.5l.05.15v4.6l-.05.15v.2l-.05.1v.2l-.1.1v.1l-.1.1-.05.1-.05.1-.15.1-.05.05-.85 1.15-2.25 2-13.25 8.7q-1.6 1.05-2.6.9h-.2q-1 .15-2.6-.9l-13.25-8.7-2.25-2-.85-1.15-.05-.05-.15-.1-.05-.1-.05-.1-.1-.1v-.1l-.1-.1v-.2l-.05-.1v-.2l-.05-.15v-4.6l.05-.15v-7.5l.05-.1V6.2l.05-.1.05-.1v-.1l.05-.15.05-.1h.05l.1-.2.35-.45 2.15-3.15.7-.8.05-.1.05-.1.1-.1.1-.1.1-.1.1-.1.1-.1.15-.1.2-.1.25-.1.1-.05zM40.7 3.45h-5l-10.3.05-.65.05h-.35l-.4.5-.85 1.6-.25.35.9.95.9 1.4q1.4 2.5 3 4.6L29 14.6l3.9 4.7.6.65.55-.75.55-.65.5-.9.95-1.15.5-.7.5-.5.6-.7q.35-.4.7-.5.65-.1.95.35l.8.9 3.4 4.05.85.75q.55-1.2 1.7-2.8l4.7-6.75.55-1.05q.85-1.75 2.1-3.35l.15-.15-.3-.4-.85-1.6-.4-.5h-.35L51 3.5zM22.05 7.2l-.05.05v.6l.05.1v11.8l.5.35Q30.4 25.5 37.8 30l.4.25.4-.25 15.25-9.9.5-.35V8.15L52.6 10.8l-3 4.75-3.75 5.25-.95 1.05-.55.3-.3.15-.75.1q-.35-.1-1-.75l-.75-.6-2.7-3.9-.35-.55-.55.6-1.55 2-1.3 1.75-.9 1-.45.55-.6.1-.3-.15-.4-.1-.85-.7Q28.35 18.1 25.7 14l-.7-1.1q-1.6-2.55-2.85-5.8zM9.6 6.2l-.15.35-.1.95.2 9.45.1 1.55.8-.15 2.95-.15.75-.05 1.05-.25h.1q-.2-1.5-.25-4.35l-.1-7.7h-1.2l-1.25.2-2.6.05zm8.35 9.5-.1 5.85.05 1.2-.3 1.1q-.45.6-1.45.8l-1.7-.05-3.25.05-3.15-.3Q6.9 24 6.45 23.3q-.25-.45-.35-1.45-.65-8.4-.15-16.75.1-1.4.6-1.85.4-.35 1.55-.45l7.4-.55q1.9-.1 2.45.75l.25 1.5zm-8.1 5.05 2.45.1 2.45-.15.3-.5.35-.55.05-.1h-.35l-.55.1-.95.05h-2.15l-1.35.15h-.35z"/></g></svg>