<svg xmlns="http://www.w3.org/2000/svg" xmlns:ffdec="https://www.free-decompiler.com/flash" ffdec:objectType="shape" width="76.2" height="42.5"><path fill="#999" fill-rule="evenodd" d="M8.75 41.4H.5V.5h75.2v40.9H63.75L65 40.35q1.1-1.2 1.5-2.8.45-1.8.05-3.5l.15.3.75 2.3L67.4 38l-.3 1.3v.3l.25.2q.25 0 .1-.25.45-.1.75-.95l.7-2.9q0-1.5-1.45-4.4l-.6-.95-.75-.7q-1.75-1.45-2.95-1.85l.2-.55.4-1.65.1-.75-.45-2.45-.2-.55-.25-.25-.25-.5-.45-.35-.2.1-.05.2.15.5.1.2-.1.25.1.7.1.6-.1.7-.2 1.1q-.25-1.65-.95-2.85l-.9-1.3q1.3-2.15 1.65-4l.05-.85-.35-2.4q-.15-.95-.5-1.6l-1.3-2.5-.3-.25q-.3-.1-.3.25l.05.45.65 1.6.1.6.05 1.5v.2l-.75-1.7-1.4-1.95q-2.1-2.35-4.7-3.2l-1.85-.35Q51.2 4.2 50 3.2l-1.2-.8-.4-.2q-.25-.1-.4.15t.25.65l1.05 1.6.05.1q-1.1-.95-2.45-1.55-2.2-.95-4.6-.85-1.3.1-2.35.5-1.25.55-2.2 1.6-.95-1.05-2.2-1.6l-2.35-.5q-2.4-.1-4.6.85-1.6.7-2.75 1.8l.1-.2.25-.45.2-.25.15-.25q.15-.35.45-.55l1.2-.85q.1-.35-.2-.45-.2 0-.45.15l-.8.5-.25.2-.45.25-.9.8-.75 1-.55 1.25-.15.7-1.35.3q-2.6.85-4.7 3.2l-1.4 1.95q-.6 1.1-.9 2.35 0-1.25.4-2.35l1-2.2.15-.45-.7-.05q-.85.35-1.65 1.3l-1.1 2-.6 2.6q-.3 2.55.45 4l.8 1.15.25.3h-.05l-1.1.95-.25.3-.85 1.45-.1.3-.2 1.35v1.5l.2.5q.3.3.55 0l.05-.35v-.8l.1-.65q.15-.45.8-1.35l.25-.3q-.25.75-.35 1.65l-.1 1.05.2 1.45q-2.2 1.35-3.45 3.4Q8.2 34.4 9 37.55l.35 1-.25-.2-.75-1.25-.3-.8L8 35.2l.2-2.05.15-.6.3-.6.4-1 .2-.2v-.25l-.4.1-.9 1.05Q6.25 33.75 6 36.4l-.05.75.2.7.4 1.15q.6 1.45 2 2.3zm40.25 0H26.5l1.2-.75q.75-.6 1.75-2.3l2.95-5.5q.75-1.6.7-3-.2-1.9-1.65-2.45 0-1.45-1.25-2.2l-1.05-.5q-.95-1.2-1.65-1.25-.35-1.55-1.7-2.1l1.45-3.5q.95.35 1.9-.6l.75-.8q.45-.45.85-.65.45-.25 1.4-.5.9-.4 2.1-2l1.15-1.5.2 1.3.35 1.05 1.55-1.35.25-.35.25.35q.7 1 1.55 1.35l.35-1.05.25-1.3 1.1 1.5q1.2 1.6 2.1 2l1.4.5.85.65.75.8q.95.95 1.9.6.55 1.8 1.45 3.5-1.35.55-1.7 2.1-.7.05-1.65 1.25l-1.05.5q-1.25.75-1.25 2.2-1.45.55-1.65 2.45-.05 1.4.7 3 .85 2.05 2.95 5.5 1 1.7 1.75 2.3zm9.65-4.05.15-.55.45-.2.4-.3.55-.05 1.1-.4q.1.3-.2.8l-.35.45-.25.1-.4.1zM11.1 8.8l.35.15.05.1q.55.8 1.4.55l.6-.3.5-.45.2-.25.3-.25.4-.6.75-.35.45-.7q.35-.85.1-1.45l-.3-.4q.15-.15-.1-.15-.5-.35-1-.4l-.05.05-.6.15-.9.7h-.5l-.3.1q0-.6-.35-.9l-.55-.15-.05-.15-.4-.2q-.2 0-.35.15h-.05q-.4.05-.5.7l-.05 2.05.2 1.15.5.65zM5.4 3.65 5.05 4l-.8 1.6-.1.55.4.35q.35 0 .5-.2l-.1 3.85H4.8q-1 .1-1.2.75-.15.5.4.95l1 .3h1.1l1.25.05q.7-.2.8-.95.1-.8-.6-1.05l-.2-.05V9.5l-.1-4.35.1-1-.15-.65q-.2-.3-.55-.4l-.7.05-.35.2zm11.45 33.7-1.45-.05-.4-.1-.25-.1-.35-.45q-.3-.5-.2-.8l1.1.4.55.05.4.3.45.2z"/><path fill="#fff" fill-rule="evenodd" d="M63.75 41.4q-.65.45-1.4.7l-3.65.4-7.15-.35L49 41.4l-1.2-.75q-.75-.6-1.75-2.3-2.1-3.45-2.95-5.5-.75-1.6-.7-3 .2-1.9 1.65-2.45 0-1.45 1.25-2.2l1.05-.5q.95-1.2 1.65-1.25.35-1.55 1.7-2.1-.9-1.7-1.45-3.5-.95.35-1.9-.6l-.75-.8-.85-.65-1.4-.5q-.9-.4-2.1-2l-1.1-1.5-.25 1.3-.35 1.05Q38.7 13.8 38 12.8l-.25-.35-.25.35-1.55 1.35-.35-1.05-.2-1.3-1.15 1.5q-1.2 1.6-2.1 2-.95.25-1.4.5-.4.2-.85.65l-.75.8q-.95.95-1.9.6l-1.45 3.5q1.35.55 1.7 2.1.7.05 1.65 1.25l1.05.5q1.25.75 1.25 2.2 1.45.55 1.65 2.45.05 1.4-.7 3l-2.95 5.5q-1 1.7-1.75 2.3l-1.2.75-2.55.75-7.15.35-3.65-.4-1.2-.55-.8.3q-1.15.25-2.4-.45l-.2-.1q-1.4-.85-2-2.3l-.4-1.15-.2-.7.05-.75q.25-2.65 1.95-4.75l.9-1.05.4-.1v.25l-.2.2-.4 1-.3.6-.15.6L8 35.2l.05 1.1.3.8.75 1.25.25.2-.35-1q-.8-3.15 1.05-6.2 1.25-2.05 3.45-3.4l-.2-1.45.1-1.05q.1-.9.35-1.65l-.25.3q-.65.9-.8 1.35l-.1.65v.8l-.05.35q-.25.3-.55 0l-.2-.5v-1.5l.2-1.35.1-.3.85-1.45.25-.3 1.1-.95h.05l-.25-.3-.8-1.15q-.75-1.45-.45-4l.6-2.6 1.1-2q.8-.95 1.65-1.3l.7.05-.15.45-1 2.2q-.4 1.1-.4 2.35.3-1.25.9-2.35l1.4-1.95q2.1-2.35 4.7-3.2l1.35-.3.15-.7.55-1.25.75-1 .9-.8.45-.25.25-.2.8-.5q.25-.15.45-.15.3.1.2.45l-1.2.85q-.3.2-.45.55l-.15.25-.2.25-.25.45-.1.2q1.15-1.1 2.75-1.8 2.2-.95 4.6-.85l2.35.5q1.25.55 2.2 1.6.95-1.05 2.2-1.6 1.05-.4 2.35-.5 2.4-.1 4.6.85 1.35.6 2.45 1.55l-.05-.1L48.25 3q-.4-.4-.25-.65t.4-.15l.4.2 1.2.8q1.2 1 1.3 3.55l1.85.35q2.6.85 4.7 3.2l1.4 1.95.75 1.7v-.2l-.05-1.5-.1-.6-.65-1.6-.05-.45q0-.35.3-.25l.3.25 1.3 2.5q.35.65.5 1.6l.35 2.4-.05.85q-.35 1.85-1.65 4l.9 1.3q.7 1.2.95 2.85l.2-1.1.1-.7-.1-.6-.1-.7.1-.25-.1-.2-.15-.5.05-.2.2-.1.45.35.25.5.25.25.2.55.45 2.45-.1.75-.4 1.65-.2.55q1.2.4 2.95 1.85l.75.7.6.95q1.45 2.9 1.45 4.4l-.7 2.9q-.3.85-.75.95.15.25-.1.25l-.25-.2v-.3l.3-1.3.05-1.35-.75-2.3-.15-.3q.4 1.7-.05 3.5-.4 1.6-1.5 2.8zm-5.1-4.05 1.45-.05.4-.1.25-.1.35-.45q.3-.5.2-.8l-1.1.4-.55.05-.4.3-.45.2zM11.1 8.8l-.25-.2-.5-.65-.2-1.15.05-2.05q.1-.65.5-.7h.05q.15-.15.35-.15l.4.2.05.15.55.15q.35.3.35.9l.3-.1h.5l.9-.7.6-.15.05-.05q.5.05 1 .4.25 0 .1.15l.3.4q.25.6-.1 1.45l-.45.7-.75.35-.4.6-.3.25-.2.25-.5.45-.6.3q-.85.25-1.4-.55l-.05-.1zm5.75 28.55-.15-.55-.45-.2-.4-.3-.55-.05-1.1-.4q-.1.3.2.8l.35.45.25.1.4.1z"/><path fill-rule="evenodd" d="m5.4 3.65.2-.3.35-.2.7-.05q.35.1.55.4l.15.65-.1 1 .1 4.35v.65l.2.05q.7.25.6 1.05-.1.75-.8.95l-1.25-.05H5l-1-.3q-.55-.45-.4-.95.2-.65 1.2-.75h.15l.1-3.85q-.15.2-.5.2l-.4-.35.1-.55.8-1.6z"/><path fill="none" stroke="#8c5a5a" stroke-linecap="round" stroke-linejoin="round" d="M8.75 41.4H.5V.5h75.2v40.9H63.75M49 41.4H26.5"/><path fill-rule="evenodd" d="M29.25 29.5q-3.65-2.7-4.65-7.05l-.2-1.3Q21.95 20 20.9 18.9q-1.55-1.55-1.1-3 .25-.8 1.25-1.65 1.5-1.25 5.6-3.55 1.05-.55 1.65-.8l.25-.3q2.2-2.25 5.1-3.35Q35.3 5.6 37 5.5h1.75q1.65.1 3.3.75 2.9 1.1 5.1 3.35l.25.3 1.65.8q4.1 2.3 5.6 3.55 1 .85 1.25 1.65.45 1.45-1.1 3-1.05 1.1-3.5 2.25l-.2 1.3q-1 4.35-4.65 7.05l-1.6 1q4.65 1.85 9.75 2.95.2-1.3 1.35-2.2t2.5-.9q1.3 0 2.45.8t1.75 2.05q.45 1 .45 2.15-.05 1.05-.65 2L60.9 38.8l-2.65.45q-3.75-.05-7.85-2l-2.9-1.55.4.7 1 2.6.35 1.55v.3H26.5l-.05-.3q0-.4.35-1.55l1-2.6.4-.7-2.9 1.55q-4.1 1.95-7.85 2l-2.65-.45q-.95-.5-1.55-1.45t-.65-2q0-1.15.45-2.15.6-1.25 1.75-2.05t2.45-.8q1.35 0 2.5.9t1.35 2.2q5.1-1.1 9.75-2.95zm.05-7 1.4.15 1.2-.1q.7-.2 1.7-1.2l.4-.55.3-.8.2-.7-1.25-.35q-1.05-.5-1.9-1.6l-1.2-2.05h-.2l-.9.3q-1.85.75-2.2 2.75t1.2 3.3l.65.5zm9.3 6.8.7.2.85.45 1.05.4q.85.1 1.55-.45.65-.55.65-1.45l-.15-1.15-.75-2.6q-.75-2.25-1.95-3.1l-1.1-.5-.05-.85q-.2-.55-.6-.7-.6-.25-1.05.25-.4.35-.4 1.05l.05.3-.5.15q-1.75.65-2.8 2.45-.85 1.4-1.3 3.55-.3 1.4.15 2.05l.9.7 1.1-.1.95-.65q.9-.5 2.7 0m8.85-8.35-.25-.7-.1-.45-.15-.6.1-.1.7-.45.3-.55q.3-.75-.2-1.3-.4-.65-1.2-.55-.55.05-1.05.6l-.05-.05-.65-.75q-.35-.25-.8-.25l-.8.3q-.8.6-.45 1.55l.35.6.4.55-.75.6-.2.35-.5.4q-.45.55-.4 1 .1.55.65.65.45.15.9-.2l.45-.35.4-.2.8-.5.05.1.8.75.3.3.95.05q.5-.3.4-.8M13.15 3.6q.5-.35 1.75-.35l.75.05.6.35.3.35.2.4.35 1v1.1q-.15 1-.75 1.75l-.65.65-1.55 1.1-.5.6-.2.25-.35.35-.5.05-.5-.05-.35-.35-.2-.25-.5-.6L9.5 8.9l-.65-.65q-.6-.75-.75-1.75V5.4l.35-1 .2-.4.3-.35.6-.35.75-.05q1.25 0 1.75.35l.55.6zm.5 4.5 1.3-1.05.5-.9-.25-1.2q-1-.25-1.65.65l-.1.2-.3.55q-.25.3-.55.25l-.55-.25-.3-.55-.1-.2Q11 4.7 10 4.95q-.35.6-.25 1.2l.5.9 1.3 1.05 1.05.9z"/><path fill="#fff" fill-rule="evenodd" d="M47.45 20.95q.1.5-.4.8l-.95-.05-.3-.3-.8-.75-.05-.1-.8.5-.4.2-.45.35q-.45.35-.9.2-.55-.1-.65-.65-.05-.45.4-1l.5-.4.2-.35.75-.6-.4-.55-.35-.6q-.35-.95.45-1.55l.8-.3q.45 0 .8.25l.65.75.05.05q.5-.55 1.05-.6.8-.1 1.2.55.5.55.2 1.3l-.3.55-.7.45-.1.1.15.6.1.45zM38.6 29.3q-1.8-.5-2.7 0l-.95.65-1.1.1-.9-.7q-.45-.65-.15-2.05.45-2.15 1.3-3.55 1.05-1.8 2.8-2.45l.5-.15-.05-.3q0-.7.4-1.05.45-.5 1.05-.25.4.15.6.7l.05.85 1.1.5q1.2.85 1.95 3.1l.75 2.6.15 1.15q0 .9-.65 1.45-.7.55-1.55.45l-1.05-.4-.85-.45zm-9.3-6.8-.6-.35-.65-.5q-1.55-1.3-1.2-3.3t2.2-2.75l.9-.3h.2l1.2 2.05q.85 1.1 1.9 1.6l1.25.35-.2.7-.3.8-.4.55q-1 1-1.7 1.2l-1.2.1z"/></svg>