<svg xmlns="http://www.w3.org/2000/svg" xmlns:ffdec="https://www.free-decompiler.com/flash" ffdec:objectType="shape" width="77" height="40.6"><g fill-rule="evenodd"><path fill="#999" d="m75.65 3.55.15.1.15.1.1.1.05.1.1.1.05.1.05.1v.1l.05.1.05.15V5l-.05.1-.05.1v.1l-.05.1-.05.1-.1.1-.05.1-.1.1-.15.1-.15.1-.25.15-.4.05h-3l-3.25.05H62.9l-7.35-.05-10.15-.05H18.35l-1.3-.05-1.35-.05L13.85 6H12.5l-1.95-.05L9.5 5.9H8.05L6.9 5.85l-.8-.05h-.55l-.6-.05-.7-.05H3.7l-.3-.05L3 5.6h-.3l-.35-.05h-.3L2 5.6h-.8l-.25-.1-.15-.1-.1-.1-.05-.1-.05-.1V5l-.05-.1.05-.1v-.1l.05-.1.1-.15.15-.05-.2-.1-.1-.1-.1-.1L.4 4l-.05-.1-.1-.1-.05-.1-.05-.1-.05-.1v-.15l-.05-.1v-.2L0 2.95l.05-.1v-.2l.05-.1v-.1l.05-.1.05-.1.05-.1.1-.1.05-.1.1-.15.1-.1.1-.1.2-.1.2-.1.25-.05h.1V1.1L1.5 1l.05-.1.1-.1.1-.1.15-.1.3-.1h.55L3 .55h.1L4.35.5h.4L5.2.45 6.45.4h1.7l1.7-.05 2.1-.05h1.45l1.95-.05L16.8.2h19.1l8.05-.05h8.9l8.8-.05 5.2-.05h2.55V0h5.35l.3.05.2.05.2.1.2.1.1.1.1.1.05.1.05.1.05.15.05.1.05.1v.7l-.05.1-.1.1v.1l-.1.1-.05.1-.1.15-.05.05v.05l.05.1.05.1v.5l-.05.1-.05.1-.05.1v.05zM56.8 7.25h19.45l.25.1.2.1.15.1.05.1.05.1v.1l.05.1v.2l-.05.1v.1l-.05.1-.05.1-.15.1-.2.15-.25.05-.35.05h-1.5l-1.6-.05h-4.65l-2.25.05h-8.05l2 .15q2.95.25 4.85 1.15 2.65 1.25 3.55 3.4l.55 2.05q.6 3 .6 4.6.05 2.75-1.15 5.2-1.2 2.55-3.35 4.05-2.9 1.95-7.15 2.1-5.65.25-8.9-2.45l-2.4 1.75-1.45.65-2.35.65-1.55.15-.25-.05-.35.05-.1.05h-.25l-.25.05-.9.05h-.65l-1.15.05-1 .05-5 .05h-.7l-5.85-.05-.65-.05-.45-.05h-.3l-.25-.05-.9-.05h-1.75l-1.75-.05-1.45-.05h-1.6l-.7-.05-.8-.05h-.45l-.85-.05-1.05-.05h-1l-.55-.05-.6-.05-.6-.05h-.6l-.3-.05-.45-.05H7l-.7-.05-.4-.05h-.15l-.1-.05-.3-.05h-.7l-.35.1h-.1l-.1-.1v-.1l.1-.1.05-.05h.2l.3-.05.05-.05h.3l.25-.05.3-.05h.1l.15-.05.4-.05H7l.6-.05.45-.05.3-.05h.6l.6-.05.6-.05h.55l1-.05 1.05-.05h.85l.45-.05.8-.05h.7l1.6-.05 1.45-.05h1.75l1.75-.05.9-.05h.1l-.45-.05H21.3l-.7-.05-.55-.05h-.4l-1.05-.05-1.35-.05h-.55l-.4-.05-2.45-.05h-.5l-4.65-.05L5.95 30h-1.3l-.75-.05-.5-.05-.25-.05H2.9l-.35-.05-.35-.05h-.65l-.25.05h-.2l-.1-.1-.05-.1v-.1l.05-.1.1-.1.15-.1h.1l.2-.05.15-.05h.5l.35-.05.35-.05h.25l.25-.05.5-.05h.75l1.3-.05 2.75-.05 4.65-.05h.5l2.45-.05.4-.05h.55l1.35-.05 1.05-.05h.4l.55-.05.7-.05h1.35l.75-.05.45-.05.45-.05h1.75l2.55-.05.8-.05h.7l1.35-.05 2-.05h.65l2.8-.05h2.25V28h4.05l.3.05.1.05.25.05.2.1.15.1.1.1.1.1.1.1.05.1.95-.55 1.3-.85.95-1q.6-.55 1.1-.75.45-.2.75 0l.35.4q.4.7.15 1.5 3.15 1.8 8.05 1.55 3-.2 4.8-1.25 2.55-1.55 3.5-4.75.75-2.7 0-5.95-.55-2.65-2.1-3.8-.85-.65-2.75-1.05-4.9-1-11.2-.1h.15l.25.05.25.1.15.1.15.15.1.1.05.1.05.1.05.1.05.1.05.1v.6l-.05.1-.1.1v.15l-.1.1-.1.1-.1.1-.15.1-.2.1-.2.05-.15.05-.25.05h-.85v.2l-.05.1-.05.15-.1.1-.15.1-.15.05-.15.05h-.2l-.25.05-.2.05-.2.05h-.3l-.3.05-.4.05-.2.1h-.25l-.3.05h-4.85l-.65-.05h-.3l-.2-.05-.25-.05h-.25l-.2-.05-.2-.05h-.15L39 15.6l-.15-.05-.2-.05-.2-.1-.1-.1-.1-.1-.05-.15v-.2l.05-.1H33.6l-.7-.05-.3-.05h-1.3l-2-.05-1.05-.05-3.15-.05h-3.5l-1-.05-3.7-.05h-.75l-1-.05-2.65-.05h-.95l-1.35-.05-.8-.05h-.85l-1-.05-.6-.05H6.1l-1-.05-.45-.05-.8-.05h-1.4l-.4-.05h-.2l-.15.05h-.15l-.2-.1-.15-.1v-.1l-.05-.1.05-.1v-.1l.15-.1.15-.1.15-.1.25-.05.15-.05.4-.05 1.4-.05h.8l.45-.05 1-.05h.85l.6-.05 1-.05h.85l.8-.05 1.35-.05h.95l2.65-.05 1-.05.75-.05h3.7l1-.05 3.5-.05h3.15l1.05-.05h1.5l-.9-.05h-.65l-2.2-.05-2.1-.05h-.85l-.55-.05-1-.05H21l-1.65-.05-.45-.05-1.2-.05h-1.25l-.95-.05-.8-.05H14l-1.9-.05-.15-.05h-.15l-.45-.1-.1-.1-.05-.1.05-.1.1-.1.45-.05.15-.05.15-.05H14l.7-.05.8-.05h.95l1.25-.05 1.2-.05.45-.05H21l1.55-.05 1-.05h.55l.85-.05 2.1-.05h2.2l.65-.05 3.45-.05h2.2l.5-.05.45-.05h7.7l.7-.2q4.4-1.1 8.95-1.25l-2.95-.05-2.8-.05h-9.65l-1.15.05h-8.35L24.1 8.8h-4.35l-6.4-.05-4.5-.05L7 8.65H5.55L3.3 8.6l-.5-.05h-.2l-.35-.05L2 8.45l-.25-.05-.2-.05-.05-.05-.2-.05-.1-.15-.05-.1-.05-.1.05-.1.05-.1.1-.1.2-.05h.1l.2.05.2.05.25-.05.35-.05h.2l.5-.05 2.25-.05H7l1.85-.05 4.5-.05h6.4l4.35-.05 4.85-.05h8.35l1.15.05h9.65l2.8-.05zM74.3 31.4h1l.35.1.2.1.2.1.1.1.05.1.05.1.05.1.05.1v.45l-.05.1-.05.1-.05.1-.05.1-.1.1-.2.1-.2.1-.35.05h-1.7l-.3-.05-.2-.05h-1.4l-1.45-.05-.6-.05h-.4l-.55-.05-1.1-.05-.6-.05h-.6l-.5-.05-.25-.05H64.6l-.35-.05-.55-.05h-.55l-.25-.05-.3-.05h-.4l-.35-.05-.15-.05-.3-.05-.2-.05-.45.05-.4-.1-.05-.1.05-.1.4-.05.4-.05.15-.05h.1l.1.05h.2l.15-.05.35-.05h.4l.3-.05.25-.05.55-.05h.55l.35-.05 1.05-.05h.25l.5-.05.6-.05h.6l1.1-.05.55-.05h.4l.6-.05 1.45-.05h1.4l.2-.05.3-.05h.7zm-33.05 2.15h1.4l5.4.05h2.9l5.7.05 6.9.05h1.15l6-.05 1.55-.05h1.4l.8-.05h.1l.2.05.35.05.2.1.1.1.1.1.05.1.05.15.05.1v.2l-.05.1-.05.1-.05.1-.1.1-.1.1-.2.1-.35.05-.2.05h-.1l-.8-.05h-1.4l-1.55-.05-6-.05h-1.15l-6.9.05-5.7.05h-2.9l-5.4.05h-1.4l-6.4-.05H31.6l-4.2-.05-1.4-.05h-1.45l-4.1-.05-1.35-.05h-.9L5.1 34.9l-2.9-.05-.2.1-.25-.05-.2-.05h-.2l-.15-.1-.1-.1-.05-.1.05-.1v-.1l.1-.05v-.05l.15-.05h.2l.15-.1.1-.1.25-.05.2-.05 2.85-.05h13.1l.9-.05 1.35-.05h4.1L26 33.7l1.4-.05 4.2-.05h9.65zM63.6 35.5h10.6l.35.05.2.05.2.1.2.15.15.1.1.1.05.1.1.1.05.1.05.1.05.1.05.1v.1l.05.1v.55l-.05.1v.1l-.05.1-.05.1v.1l-.1.1-.05.1-.1.1-.1.1-.1.1.1.05.05.1.05.1.05.1v.3l-.05.1-.05.1-.05.1-.1.15-.15.1-.2.1-.15.1-.15.1-.35.05-.2-.05h-.15l-.25.05-.25.05-.3.05h-.8l-1.35.05-1.1.05h-.7l-.95.05-1.95.05h-5.3l-4 .05-3.25.05H50.3l-1.1.05-2.7.05h-1.55l-1.2.05-6.05.05-2.25.05H17.9l-8.75-.05-1.95-.05H3.05l-.5.05-.35.05h-.45l-.3-.05-.25-.1-.2-.1-.2-.1-.1-.1-.1-.1-.1-.1-.05-.1-.1-.1-.05-.1-.05-.1-.05-.1v-.1l-.05-.1v-.2L.1 38.9l.05-.1v-.2l.05-.1v-.1l.05-.1.05-.1.05-.1.1-.1.05-.1.1-.1.1-.1.1-.05-.05-.05-.15-.1-.1-.1-.05-.1V37l.05-.1.05-.1.15-.1.2-.1.25-.1.2-.1h.15l.15-.05.15-.05.2-.05h.25l.5-.05.7-.05h.7l.25-.05.5-.05h.85l.8-.05.65-.05h.6l.9-.05 1.4-.05h1.5l.75-.05 1.55-.05 4.45-.05h2.8l2.35-.05 3.95-.05h3.6l27.25-.05h5.3z"/><path fill="#fff" d="m2.9 23.6 2.35-2.3 4.35-3.5-2.05.1-1.1.05-.9-.25h-1.8q-.7 0-.7-.35-.05-.25.25-.45l.5-.1 8.25-.9.95.15q.55.4.15 1.2l-1 .85q-3.25 2-5.95 4.85l6.85-.7q1.05 0 1.5.35l.35.7-.65.7-2.35.3-3.4.25-2.9.5-1.8.45-.85.05-.55-.4-.15-.65q.05-.4.65-.9"/><path d="M65.7 11.45q.9.7 1.65 1.9 2.25 3.85 1.25 8.85-.55 2.9-2.1 4.8-1.95 2.5-5.6 3.35-3.35.85-7 .1-3.4-.6-5.4-2.15-2.15 1.95-5.9 2.9l-7.3.8-10.3.05-3.45-.2-1.6-.3q-.95-.45-.85-1.2 0-.6.75-.95l1.3-.2 11.8-.6 8.75-1.1-15.75.2-6.6-.1-8.5.3-7.6.35-1.1.05q-.7-.1-.85-.6v-.45l-.05-.15q0-.45.65-.6l.15-.05q-.7-.2-.65-.65l.2-.25Q.45 25 .55 24.05l.55-1.3.1-1.05.05-2.3.1-1.1-.2-.05-.9-.75q-.35-.6-.05-1.05.25-.5 1.1-.7.1-.55.45-.8.4-.4 1.7-.4 6.6-.3 17.85.05l1.8-.05 21.4.3 3.1.1q.65-1.05 1.6-1.95l-6.55-.5q-1.65-.2-2.15-.55-.5-.25-.75-.85-.25-.5.05-.95.3-.6 2.2-.6l2.35-.1q5.8-.3 11.5-.05l2.15.05.9.1q2.55.15 4.1.65l1 .35q1 .35 1.7.9M3.2 24.1q-.6.6-.5 1.15.1.5.7.6h.95l10.45-1.2 3.25-.15 1 .05.8-.55q.2-.3 0-.7l-.6-.6-1.55-.2-7.65.85-2.75.35q1.25-1.45 3.95-2.55l4.4-1.7 2.3-.95.9-.3.4-.55-.1-.7q-.25-.4-.85-.5l-1.05.05-5.95.45-5.95.4q-.65.1-.7.5 0 .4.75.5l7.2.5-3 1.2-1.6.85-1.3 1-1.6.85Q4 23.3 3.2 24.1m30.6-7.45q-.4-.35-1.05-.35l-2.05.15-3.1.2-3.15.15q-.8.1-1.25.35-.3.2-.3.45l.35.35.95.1 3.4.15-.6 5.35v.35l-.7.05-1.25.15-1.25.2-1.5.4-.25.35q.05.25.55.35l2.7.25 7.65-.35 1.3-.3.3-.7-.35-.7-1.3-.25-3.85.35-.15-5.4h3.75l1.1-.3.3-.65zm19.1 11.2q.7.6 1.45.2.85-.35.75-1.3l-.35-.7-.65-.4q-.9-.2-1.4.55l-.1.3q-.15.45 0 .85zm0-4.25q0 .5.35.85t.8.4l.85-.35.4-.8-.15-1.35.05-.9-.1-.6.05-1.1L55 16.4l-.15-.55q-.15-.25-.5-.25l-.5.25-.15.55-.15 2.4v.4l-.15.4q-.1.4-.05 1.2l-.2.8-.15 1.35zm-13.85-5.2v-.1l7.2.35 2.45.4-.5.45q-1.3.65-3.2 1l-6.05.5zm-1.3 7.05q.5.35.85-.25l.2-.95.05-1.4 4.1-.3 3.2-.35 2.4-.75 1.7-.95.55-.6.15-.85q-.1-1.2-1-1.95-.6-.45-1.4-.6l-2.75-.25-5.65.2-1.45.15-.25.05-.45-.05q-.6 0-.8.8l.05 1.25v3.15q-.1 1.95.2 3.1zM66.1 23.7l.8-.55.05-.05.5-.35.25-.8v-1.3q-.1-.6-.55-.6l-.15.05-.35.35-.25.6-.05.5-.1.35q-.45 0-.85.35l-2.1 1.65-.4.4q-.15.3 0 .55l.5.2zm-.1-7.95q-1.15-.85-2.45-.15-1.2.65-1.3 2.1-.1.65.25 1.2.3.45 1 .7l1.75.15q1-.25 1.35-1.05l.2-.8-.05-1.05z"/><path fill="#fff" d="m66 15.75.75 1.1.05 1.05-.2.8q-.35.8-1.35 1.05l-1.75-.15q-.7-.25-1-.7-.35-.55-.25-1.2.1-1.45 1.3-2.1 1.3-.7 2.45.15m.1 7.95-2.7 1.35-.5-.2q-.15-.25 0-.55l.4-.4 2.1-1.65q.4-.35.85-.35l.1-.35.05-.5.25-.6.35-.35.15-.05q.45 0 .55.6v1.3l-.25.8-.5.35-.05.05zm-28.35 1.75-.3-.55q-.3-1.15-.2-3.1v-3.15l-.05-1.25q.2-.8.8-.8l.45.05.25-.05 1.45-.15 5.65-.2 2.75.25q.8.15 1.4.6.9.75 1 1.95l-.15.85-.55.6-1.7.95-2.4.75-3.2.35-4.1.3-.05 1.4-.2.95q-.35.6-.85.25m1.3-7.05-.1 2.6 6.05-.5q1.9-.35 3.2-1l.5-.45-2.45-.4-7.2-.35zm13.85 5.2.1-.65.15-1.35.2-.8q-.05-.8.05-1.2l.15-.4v-.4l.15-2.4.15-.55.5-.25q.35 0 .5.25l.15.55.15 3.35-.05 1.1.1.6-.05.9.15 1.35-.4.8-.85.35q-.45-.05-.8-.4t-.35-.85m0 4.25-.3-.5q-.15-.4 0-.85l.1-.3q.5-.75 1.4-.55l.65.4.35.7q.1.95-.75 1.3-.75.4-1.45-.2m-19.1-11.2.25.7-.3.65-1.1.3H28.9l.15 5.4 3.85-.35 1.3.25.35.7-.3.7-1.3.3-7.65.35-2.7-.25q-.5-.1-.55-.35l.25-.35 1.5-.4 1.25-.2 1.25-.15.7-.05v-.35l.6-5.35-3.4-.15-.95-.1-.35-.35q0-.25.3-.45.45-.25 1.25-.35l3.15-.15 3.1-.2 2.05-.15q.65 0 1.05.35M3.2 24.1q.8-.8 1.9-1.35l1.6-.85 1.3-1 1.6-.85 3-1.2-7.2-.5q-.75-.1-.75-.5.05-.4.7-.5l5.95-.4 5.95-.45 1.05-.05q.6.1.85.5l.1.7-.4.55-.9.3-2.3.95-4.4 1.7q-2.7 1.1-3.95 2.55l2.75-.35 7.65-.85 1.55.2.6.6q.2.4 0 .7l-.8.55-1-.05-3.25.15-10.45 1.2H3.4q-.6-.1-.7-.6-.1-.55.5-1.15"/></g></svg>